<svg xmlns="http://www.w3.org/2000/svg" width="1024" height="1024" viewBox="0 0 1024 1024" version="1.1">
	<path d="M 622.571 119.571 C 620.590 121.553, 620.077 119.845, 626.946 134.133 C 630.216 140.935, 633.198 147.768, 633.572 149.318 L 634.251 152.137 627.376 147.488 C 580.543 115.827, 504.053 111.383, 432.189 136.147 C 400.577 147.040, 380.114 157.663, 340 184.003 C 325.975 193.212, 312.591 201.817, 310.258 203.124 C 304.850 206.153, 304.656 208.650, 309.750 209.632 C 314.989 210.643, 323.435 210.652, 330.438 209.655 L 336.377 208.809 328.438 214.794 C 298.556 237.323, 277.054 274.640, 275.803 306.144 C 275.353 317.484, 279.471 317.811, 289.719 307.250 C 293.855 302.988, 296.918 300.400, 296.526 301.500 C 286.325 330.093, 289.036 375.547, 303.471 417.925 C 306.753 427.561, 306.825 427.238, 300.930 429.331 C 278.836 437.178, 273.310 474.537, 290.429 500.328 C 304.473 521.485, 327.057 531.346, 348.829 525.826 C 349.621 525.626, 351.379 528.579, 353.399 533.500 C 372.960 581.173, 405.471 609.319, 461.500 627.086 C 468.100 629.179, 472.822 630.916, 471.994 630.946 C 471.166 630.975, 464.703 631.677, 457.633 632.504 C 403.742 638.808, 383.224 653.552, 377.968 689.750 L 376.770 698 350.885 698 L 325 698 325 679.050 L 325 660.100 330.671 659.800 C 333.863 659.631, 336.510 658.989, 336.727 658.332 C 337.136 657.091, 326.958 643.381, 302.811 612.648 L 288 593.797 288 587.246 L 288 580.694 298.750 581.283 C 309.349 581.864, 315 581.440, 315 580.064 C 315 579.677, 313.650 577.848, 312 576 C 308.373 571.937, 308.371 571.901, 311.500 568.182 C 315.954 562.889, 315.113 562, 305.647 562 C 301.052 562, 294.527 561.711, 291.147 561.358 L 285 560.715 285 576.963 L 285 593.211 270.678 611.855 C 262.801 622.110, 251.776 636.412, 246.178 643.637 C 234.009 659.344, 233.841 660, 242 660 L 248 660 248 679 L 248 698 198.566 698 L 149.132 698 143.593 705.680 C 136.923 714.929, 137.238 716, 146.622 716 L 153 716 153 767.500 L 153 819 138.500 819 C 124.667 819, 124 819.092, 124 821 C 124 822.986, 124.667 823, 217.500 823 C 268.925 823, 311 823.337, 311 823.750 C 311 824.163, 310.264 828.100, 309.365 832.500 C 306.771 845.197, 307.025 865.828, 309.874 873.917 C 316.008 891.334, 327.897 899.498, 347.127 899.499 L 357.754 899.500 358.238 908.500 C 358.587 914.995, 359.349 918.825, 360.976 922.261 C 363.215 926.990, 372.067 936, 374.473 936 C 375.165 936, 376.912 936.929, 378.355 938.065 C 382.251 941.129, 382.677 940.181, 383.430 926.771 C 384.323 910.871, 383.968 911.650, 392.310 907.275 C 412.707 896.578, 435.152 865.182, 443.281 835.978 C 445.377 828.450, 445.694 827.945, 449 826.882 C 457.888 824.026, 461.785 819.226, 460.691 812.485 C 460.247 809.747, 460.523 808.790, 461.983 808.009 C 464.813 806.495, 466.267 801.064, 464.896 797.132 C 463.905 794.288, 464.028 793.599, 465.881 791.626 C 468.930 788.381, 468.626 783.782, 465.097 779.763 C 462.500 776.806, 462.342 776.253, 463.597 774.537 C 466.819 770.130, 463.574 762.728, 457.270 760.108 L 454.500 758.956 454.336 739.728 C 454.161 719.163, 451.971 691.996, 449.129 675.152 L 447.383 664.805 449.567 663.974 C 452.874 662.717, 460.182 660.826, 460.351 661.184 C 468.728 678.928, 476.516 687.333, 491 694.262 C 503.530 700.257, 509.089 701.489, 523.500 701.468 C 550.305 701.427, 573.183 688.685, 583.027 668.313 C 586.833 660.436, 586.393 660.616, 595 663.421 C 597.575 664.260, 598.444 665.082, 598.287 666.531 C 598.169 667.614, 597.400 673, 596.577 678.500 C 593.766 697.291, 592.896 708.508, 592.309 733.567 L 591.722 758.633 588.112 760.568 C 586.127 761.632, 583.616 764.157, 582.532 766.179 C 580.621 769.745, 580.615 769.970, 582.347 773.601 C 584.002 777.073, 584.012 777.414, 582.473 778.275 C 578.086 780.730, 577.489 787.489, 581.287 791.711 C 583.006 793.623, 583.113 794.312, 582.080 796.807 C 580.586 800.414, 581.475 804.158, 584.500 807 C 586.482 808.862, 586.682 809.614, 585.839 812.033 C 583.900 817.594, 587.568 822.477, 596.395 826.085 C 600.127 827.611, 600.402 828.049, 602.993 836.589 C 612.960 869.435, 632.813 896.643, 655.124 908.031 C 661.950 911.515, 661.665 910.812, 662.552 926.387 C 662.949 933.352, 663.628 939.270, 664.062 939.538 C 665.278 940.290, 676.117 933.562, 679.699 929.832 C 684.836 924.481, 687.236 917.811, 687.782 907.370 L 688.261 898.215 691.374 899.107 C 709.371 904.269, 730.939 891.921, 736.759 873.124 C 739.126 865.477, 739.101 843.615, 736.711 832.643 C 735.770 828.322, 735 824.384, 735 823.893 C 735 823.377, 766.479 823, 809.573 823 C 880.057 823, 884.128 822.904, 883.810 821.250 C 883.495 819.616, 880.215 819.483, 834.236 819.241 L 785 818.981 785 797.032 L 785 775.083 790.144 777.666 C 803.940 784.595, 820.169 777.942, 825.047 763.358 C 826.520 758.955, 827.121 758.333, 831.464 756.720 C 857.930 746.890, 861.835 709.926, 838.116 693.750 C 835.767 692.148, 835.756 692.066, 837.366 688.042 C 844.145 671.100, 829.910 651.680, 812.727 654.428 C 808.818 655.053, 808.568 654.914, 803.650 649.396 C 785.164 628.656, 752.353 636.856, 745.370 663.961 L 743.607 670.807 739.553 671.432 C 727.744 673.251, 719.414 678.768, 715.374 687.444 C 711.303 696.186, 712.762 707.697, 718.867 715.010 L 721.660 718.356 719.278 722.618 C 715.101 730.091, 716.102 740.512, 721.702 747.853 C 724.458 751.467, 732.923 755.972, 737 755.994 C 739.034 756.005, 739.861 756.886, 741.437 760.718 C 747.151 774.607, 763.638 780.817, 776.872 774.065 L 781 771.959 781 795.498 L 781 819.036 757.318 818.768 L 733.636 818.500 730.483 808 C 718.588 768.390, 697.744 728.506, 676.313 704.346 C 669.085 696.198, 669.079 696.187, 667.097 686.481 C 660.563 654.498, 640.186 639.248, 596.300 633.495 C 590.028 632.673, 583.147 632, 581.008 632 C 574.406 632, 575.694 630.404, 584.115 628.150 C 595.462 625.113, 613.834 617.778, 625 611.827 C 658.477 593.983, 679.732 570.639, 695.119 534.817 L 699.189 525.342 704.312 526.671 C 729.439 533.189, 760.052 511.109, 767.607 481.019 C 770.138 470.939, 769.219 454.322, 765.707 446.662 C 760.958 436.305, 753.595 429.662, 745.522 428.451 C 741.210 427.804, 741.199 427.793, 742.135 424.651 C 758.463 369.867, 761.720 319.008, 751.030 285.763 C 749.480 280.943, 748.414 277, 748.662 277 C 748.910 277, 751.899 279.259, 755.306 282.020 C 762.856 288.139, 764.395 288.104, 764.802 281.803 C 765.593 269.563, 755.844 244.879, 744.024 229.193 C 734.981 217.191, 718.156 202.958, 702.268 193.867 L 696.563 190.603 701.940 188.164 C 704.897 186.822, 711.710 184.999, 717.080 184.112 C 728.227 182.271, 729.046 181.814, 726.411 178.898 C 716.694 168.146, 685.473 163.696, 667.750 170.538 C 666.544 171.004, 666 170.731, 666 169.659 C 666 168.803, 664.886 164.593, 663.525 160.302 C 658.201 143.520, 645.699 127.452, 633.090 121.185 C 625.781 117.553, 624.748 117.394, 622.571 119.571 M 626 122.820 C 626 123.244, 628.003 127.483, 630.450 132.240 C 635.852 142.737, 640.736 157.664, 639.255 159.145 C 638.561 159.839, 635.676 158.268, 630.242 154.240 C 574.939 113.235, 478.519 114.155, 394 156.494 C 376.248 165.387, 330.402 193.604, 314.500 205.424 C 309.572 209.087, 331.880 206.303, 346.035 201.488 C 354.744 198.526, 355.009 198.504, 354.968 200.750 C 354.948 201.856, 352.281 204.025, 347.718 206.645 C 318.739 223.286, 296.130 249.566, 285.621 278.822 C 281.405 290.560, 277.962 309.240, 279.805 310.380 C 280.870 311.038, 288.706 302.958, 296.904 292.750 C 306.434 280.884, 308.371 282.325, 302.528 296.931 C 289.698 328.998, 291.878 372.502, 308.794 421.955 C 310.554 427.100, 310.912 427.475, 315.080 428.543 C 320.975 430.055, 325.332 432.402, 329.894 436.523 L 333.669 439.934 333.209 429.590 C 331.964 401.600, 338.648 377.856, 358.569 339.500 C 363.140 330.700, 369.180 318.325, 371.992 312 C 377.425 299.778, 379.331 296.931, 380.976 298.576 C 381.629 299.229, 380.966 301.678, 379.028 305.776 C 372.084 320.459, 368.686 338.175, 372.531 339.650 C 376.085 341.014, 403.040 329.375, 421.743 318.399 C 448.440 302.732, 477.631 280.975, 506.500 255.225 C 520.614 242.635, 520.780 245.560, 507.481 272.500 C 501.368 284.881, 497.691 290.906, 484.707 309.809 C 478.346 319.071, 477.899 320.685, 481.447 321.576 C 495.006 324.979, 544.692 285.346, 571.069 250.087 C 582.219 235.183, 583.757 235.169, 579.648 250.007 C 575.290 265.744, 570.366 276.624, 558.984 295.667 C 550.827 309.315, 550.486 311.587, 556.636 311.322 C 572.966 310.619, 609.382 277.778, 628.047 246.922 C 631.182 241.740, 634.130 237.500, 634.599 237.500 C 635.694 237.500, 636.588 240.771, 637.879 249.500 C 640.953 270.286, 651.596 294.865, 666.872 316.454 C 673.163 325.344, 691.743 344.505, 696.827 347.345 L 700.130 349.190 697.419 343.845 C 693.274 335.672, 685.044 314.738, 685.613 313.817 C 687.179 311.284, 689.395 314.705, 696.260 330.250 C 713.207 368.629, 718.903 394.077, 717.803 426.510 L 717.350 439.871 722.205 435.506 C 724.903 433.080, 729.240 430.417, 731.968 429.511 C 737.716 427.601, 738.344 426.180, 744.389 401.402 C 751.125 373.790, 752.491 362.434, 752.496 334 C 752.501 305.209, 751.943 300.943, 745.732 282.252 C 743.494 275.516, 741.964 269.703, 742.333 269.334 C 743.334 268.333, 747.288 270.734, 754.685 276.835 L 761.311 282.300 760.623 276.452 C 757.211 247.415, 735.017 218.094, 701.234 197.991 C 691.653 192.289, 691.111 191.575, 694.018 188.481 C 696.901 185.412, 705.342 182.152, 714.488 180.575 L 721.476 179.370 715.777 176.675 C 702.395 170.344, 682.810 169.140, 669.704 173.844 C 665.452 175.370, 663.803 175.601, 663.512 174.712 C 663.294 174.045, 662.418 170.575, 661.565 167 C 658.079 152.381, 646.434 134.523, 635.469 126.978 C 630.687 123.688, 626 121.630, 626 122.820 M 627.297 255.410 C 605.007 290.319, 560.250 324.250, 550.004 314.004 C 546.696 310.696, 547.858 306.365, 555.358 294.042 C 564.979 278.235, 576.273 253.940, 574.722 252.389 C 574.538 252.204, 572.798 254.179, 570.857 256.777 C 564.452 265.345, 548.061 282.859, 538.200 291.671 C 508.277 318.408, 483.396 331.140, 476.851 323.063 C 473.966 319.502, 474.823 317.485, 486.857 299.500 C 496.431 285.191, 506.061 268.231, 508.999 260.502 C 510.351 256.946, 510.130 257.102, 494.366 270.841 C 461.457 299.521, 421.460 325.603, 391.494 337.924 C 372.348 345.796, 368.302 345.626, 367.035 336.894 L 366.398 332.500 360.325 344.500 C 348.740 367.390, 342.573 383.448, 338.821 400.500 C 336.575 410.705, 337.185 449.435, 339.864 466.689 C 354.238 559.272, 392.691 605.033, 474.115 626.453 C 514.989 637.205, 547.775 635.962, 590 622.058 C 653.735 601.071, 686.447 564.522, 704.110 494.565 C 715.543 449.282, 716.890 407.980, 708.053 373.705 C 703.719 356.899, 702.737 354.888, 697.505 352.112 C 679.444 342.531, 654.297 309.890, 642.718 281 C 639.175 272.161, 634 253.894, 634 250.228 C 634 246.142, 632.449 247.341, 627.297 255.410 M 463.701 330.633 C 463.330 331.003, 463.952 332.805, 465.084 334.635 C 466.215 336.466, 467.399 340.463, 467.714 343.517 C 468.494 351.071, 470.502 350.132, 470.493 342.219 C 470.484 334.957, 466.379 327.954, 463.701 330.633 M 582.390 330.765 C 578.631 333.252, 576.060 348, 579.385 348 C 580.310 348, 580.993 346.211, 581.443 342.612 C 581.813 339.648, 582.751 336.386, 583.526 335.362 C 586.032 332.053, 585.246 328.875, 582.390 330.765 M 451.040 332.806 C 450.237 333.082, 445.910 336.107, 441.425 339.529 C 431.238 347.301, 423.994 351.354, 407.500 358.509 C 387.003 367.401, 379.998 372.243, 376.540 379.911 C 373.170 387.385, 373.735 387.396, 397.089 380.334 C 443.500 366.298, 465.283 353.446, 462.009 342.031 C 460.140 335.515, 455.217 331.375, 451.040 332.806 M 591.342 334.473 C 588.450 336.499, 585.752 343.593, 586.528 347.129 C 588.460 355.926, 612.178 367.891, 652.325 380.322 C 675.214 387.410, 675.836 387.397, 672.466 379.925 C 668.879 371.971, 661.347 366.811, 640.500 358.027 C 626.084 351.953, 615.022 345.726, 606.583 338.938 C 598.758 332.643, 595.371 331.651, 591.342 334.473 M 416 384.276 C 392.390 392.355, 378.130 412.559, 379.175 436.450 C 379.797 450.685, 385.768 460.514, 399.216 469.443 C 414.688 479.716, 437.220 480.667, 452.126 471.678 C 460.475 466.643, 460.810 466.582, 456 470.974 C 442.499 483.300, 425.109 488.183, 407.250 484.662 C 403.661 483.954, 403 484.075, 403 485.437 C 403 489.272, 418.302 491.074, 430 488.616 C 471.491 479.899, 492.999 427.800, 467.373 398.088 C 455.414 384.223, 433.428 378.312, 416 384.276 M 603.945 383.885 C 584.948 389.965, 571.627 405.536, 570.308 423.206 C 568.016 453.908, 588.725 481.908, 618.647 488.565 C 630.499 491.202, 646.819 489.298, 645.343 485.451 C 644.921 484.352, 644.052 484.040, 642.612 484.471 C 627.313 489.049, 606.098 483.385, 593.244 471.290 C 587.321 465.717, 587.605 465.499, 594.585 470.261 C 621.940 488.924, 665.517 471.612, 669.955 440.318 C 675.035 404.496, 638.130 372.945, 603.945 383.885 M 416.762 387.887 C 401.284 392.982, 387.966 407.335, 383.962 423.236 C 382.829 427.736, 382.917 445.254, 384.078 446.413 C 384.396 446.730, 393.621 443.676, 404.578 439.627 C 415.535 435.577, 435.384 428.335, 448.687 423.532 C 472.779 414.835, 472.871 414.790, 471.933 412.324 C 468.822 404.140, 458.875 394.246, 449.180 389.691 C 440.518 385.621, 426.086 384.818, 416.762 387.887 M 605.500 387.351 C 593.409 391.352, 583.366 399.398, 578.516 408.969 C 577.058 411.845, 576.027 414.361, 576.225 414.558 C 577.138 415.471, 664.153 447.181, 664.578 446.755 C 665.786 445.547, 666.966 433.961, 666.386 429 C 664.415 412.128, 654.265 398.194, 638.142 390.226 C 631.093 386.742, 630.010 386.505, 620.072 386.274 C 613.341 386.117, 608.047 386.508, 605.500 387.351 M 466.375 421.151 C 461.313 423.148, 461.249 423.227, 461.161 427.595 C 460.613 454.903, 428.483 467.979, 409.620 448.570 C 407.177 446.056, 404.823 444, 404.390 444 C 401.602 444, 387 450.487, 387 451.725 C 387 454.094, 399.134 465.527, 404.571 468.283 C 424.143 478.200, 445.776 475.181, 460.478 460.478 C 470.021 450.935, 475.650 435.948, 474.275 423.746 C 473.673 418.409, 473.484 418.347, 466.375 421.151 M 574.331 420.579 C 573.178 423.584, 574.815 437.523, 577.003 443.324 C 587.398 470.892, 622.449 482.754, 646.986 467.009 C 652.608 463.401, 662.275 453.324, 661.717 451.652 C 661.516 451.049, 657.629 449.064, 653.080 447.240 L 644.807 443.924 639.928 448.881 C 633.294 455.621, 626.066 458.359, 616.500 457.757 C 600.894 456.775, 590.436 446.654, 587.594 429.785 L 586.403 422.722 581.952 420.917 C 576.374 418.655, 575.091 418.598, 574.331 420.579 M 301 433.117 C 290.543 437.257, 283.015 453.766, 284.352 469.624 C 286.940 500.312, 314.241 526.737, 340.181 523.665 C 348.740 522.651, 349.144 522.109, 346.802 514.768 C 345.702 511.321, 343.334 502.603, 341.539 495.395 C 338.227 482.087, 332.348 471, 328.605 471 C 323.748 471, 319.454 480.497, 320.365 489.221 C 320.909 494.419, 320.779 495.104, 319.305 494.820 C 317.056 494.387, 315.663 488.645, 316.359 482.681 C 317.033 476.916, 320.182 471.468, 324.284 468.973 L 327.278 467.153 323.389 463.484 C 319.046 459.387, 310.712 455.025, 307.200 455.010 C 304.213 454.997, 299.368 457.524, 298.112 459.750 C 297.310 461.172, 296.883 461.260, 295.835 460.222 C 294.262 458.665, 295.401 456.535, 299.403 453.550 C 307.437 447.558, 323.749 454.929, 333.458 468.940 C 335.020 471.193, 336.436 472.897, 336.606 472.727 C 336.777 472.557, 336.262 468.386, 335.462 463.459 C 334.662 458.531, 334.006 452.397, 334.004 449.827 C 333.995 439.017, 312.976 428.375, 301 433.117 M 732.154 433.477 C 721.531 438.262, 717.029 444.532, 715.335 456.901 C 714.612 462.180, 713.732 467.850, 713.379 469.500 C 712.790 472.254, 713.069 472.081, 716.784 467.386 C 729.998 450.689, 746.255 446.462, 753.764 457.771 C 755.077 459.749, 755.049 460.044, 753.490 460.642 C 752.384 461.066, 751.416 460.707, 750.827 459.654 C 746.943 452.715, 736.155 454.207, 726.613 463.002 L 722.108 467.156 725.443 470.084 C 730.074 474.150, 732 478.740, 732 485.710 C 732 491.993, 730.032 496.383, 728.077 494.460 C 727.354 493.748, 727.332 492.328, 728.009 489.967 C 729.717 484.013, 727.210 475.661, 722.783 472.561 C 719.629 470.352, 719.487 470.421, 715.219 476.250 C 712.025 480.613, 710.816 483.774, 708.061 494.961 C 706.238 502.365, 703.904 510.873, 702.873 513.868 C 700.336 521.244, 700.441 521.751, 704.750 522.947 C 727.451 529.252, 758.258 506.468, 763.903 479.201 C 767.714 460.791, 762.716 442.473, 751.937 435.340 C 746.838 431.965, 737.469 431.083, 732.154 433.477 M 521.629 438.167 C 518 451.157, 514.745 456.978, 507.881 462.754 C 504.828 465.322, 504.229 467.405, 506.192 468.619 C 507.881 469.663, 518.384 457.958, 521.532 451.524 C 524.344 445.776, 525.283 437.991, 523.251 437.274 C 522.563 437.032, 521.833 437.434, 521.629 438.167 M 416.851 443.701 C 414.202 446.782, 413.872 447.893, 414.989 449.979 C 417.414 454.510, 425.327 451.024, 424.806 445.654 C 424.432 441.797, 419.525 440.593, 416.851 443.701 M 624.401 444.540 C 623.644 447.553, 625.895 450.506, 629.669 451.453 C 632.600 452.189, 635 450.579, 635 447.878 C 635 442.563, 625.637 439.615, 624.401 444.540 M 467.665 467.478 C 461.208 480.056, 450.056 489.925, 437.513 494.161 C 434.482 495.184, 432.361 496.534, 432.148 497.574 C 431.202 502.203, 448.357 494.891, 457.441 486.794 C 465.357 479.739, 475.990 463.411, 474.373 460.794 C 473.092 458.721, 471.186 460.621, 467.665 467.478 M 574.434 462.592 C 576.343 470.199, 588.018 485.164, 596.707 491.142 C 601.804 494.649, 611.963 499, 615.053 499 C 618.985 499, 616.646 495.903, 611.368 494.120 C 598.661 489.829, 588.114 480.580, 580.864 467.369 C 576.815 459.992, 573.086 457.222, 574.434 462.592 M 519.120 471.142 C 511.937 473.230, 506.369 479.863, 505.784 487.031 C 505.357 492.245, 508.103 491.567, 509.696 486.065 C 514.102 470.848, 531.431 470.478, 536.801 485.486 C 538.822 491.134, 540.530 491.431, 540.425 486.117 C 540.232 476.334, 528.831 468.320, 519.120 471.142 M 517.114 537.633 C 508.711 543.519, 509.385 562.536, 518.192 568.018 C 528.137 574.209, 538.759 560.961, 535.011 547.041 C 532.545 537.881, 523.527 533.141, 517.114 537.633 M 288 570.727 L 288 576.728 292.640 577.364 C 299.335 578.282, 308 578.146, 308 577.122 C 308 576.640, 307.325 575.685, 306.500 575 C 304.539 573.373, 304.598 571.101, 306.661 568.823 C 308.934 566.310, 308.779 566.251, 297.745 565.441 L 288 564.726 288 570.727 M 513 579.348 C 513 584.268, 531.542 585.243, 533.392 580.420 C 534.209 578.292, 532.278 577.753, 528.409 579.030 C 525.035 580.144, 521.939 580.003, 515.750 578.455 C 513.619 577.922, 513 578.123, 513 579.348 M 279.902 606.162 C 276.424 610.748, 266.784 623.275, 258.479 634 C 250.173 644.725, 243.041 654.063, 242.630 654.750 C 242.036 655.742, 251.069 656, 286.476 656 C 328.647 656, 331.018 655.905, 330.108 654.250 C 329.217 652.631, 288.854 600.539, 287.036 598.662 C 286.589 598.201, 283.379 601.576, 279.902 606.162 M 470.146 635.079 C 411.988 639.540, 388.355 653.698, 382.219 687.750 C 381.100 693.959, 381.021 693.922, 386.332 689.636 C 388.624 687.785, 392.445 685.004, 394.822 683.455 C 397.216 681.895, 400.015 678.930, 401.099 676.806 C 404.514 670.112, 418.804 661.696, 432.491 658.319 C 438.640 656.802, 439.059 656.820, 443.043 658.791 C 446.893 660.696, 447.491 660.738, 451.346 659.376 C 457.104 657.341, 478.457 652, 480.835 652 C 481.908 652, 483.089 652.788, 483.460 653.750 C 484.749 657.095, 486.240 652.187, 486.773 642.849 L 487.277 634 483.889 634.142 C 482.025 634.221, 475.841 634.642, 470.146 635.079 M 490.721 642.639 C 490.402 646.962, 489.392 652.636, 488.478 655.246 L 486.815 659.991 489.539 663.246 C 506.049 682.965, 536.711 684.052, 554.945 665.563 L 560.390 660.042 558.537 656.271 C 557.326 653.809, 556.520 649.428, 556.214 643.650 L 555.746 634.801 552.982 635.354 C 538.976 638.155, 514.667 638.162, 495.401 635.371 L 491.301 634.777 490.721 642.639 M 560.166 644.149 C 560.942 653.862, 562.074 656.599, 563.901 653.185 C 564.981 651.166, 565.054 651.172, 576.244 654.093 C 582.435 655.710, 590.291 657.955, 593.702 659.082 L 599.904 661.131 602.892 658.921 C 606.714 656.096, 611.982 656.686, 622.666 661.134 C 633.426 665.613, 642.018 671.636, 644.743 676.609 C 646.204 679.276, 649.189 682.176, 653.247 684.873 C 656.686 687.159, 660.567 689.789, 661.872 690.718 L 664.244 692.406 663.501 688.009 C 659.814 666.181, 646.400 651.121, 623.796 643.431 C 611.047 639.094, 583.629 635.031, 566.968 635.010 L 559.435 635 560.166 644.149 M 771.734 642.034 C 760.050 644.955, 750.369 655.180, 748.526 666.547 C 747.119 675.223, 747.620 674.676, 740.554 675.244 C 732.409 675.897, 724.718 679.989, 720.530 685.897 C 714.734 694.073, 716.392 708.628, 723.892 715.405 C 726.545 717.803, 726.529 718.131, 723.552 722.519 C 715.290 734.693, 722.617 750.305, 737.366 751.956 C 742.156 752.491, 742.262 752.579, 744.115 757.559 C 748.737 769.982, 762.185 776.292, 773.746 771.462 C 780.841 768.497, 781 768.114, 781 753.922 L 781 741.154 763.007 723.827 C 753.111 714.297, 745.011 705.964, 745.007 705.309 C 744.991 702.642, 746.892 703.359, 752.060 707.970 L 757.500 712.822 757.797 706.347 C 758.048 700.876, 758.358 699.922, 759.797 700.197 C 761.215 700.468, 761.548 701.953, 761.786 709.067 L 762.072 717.611 771.536 727.036 L 781 736.460 781 713.730 C 781 691.812, 781.070 691, 782.962 691 C 784.748 691, 784.951 691.822, 785.212 700.111 L 785.500 709.222 793.817 697.093 C 801.260 686.241, 803.975 683.635, 804.012 687.309 C 804.018 687.964, 799.734 694.829, 794.490 702.564 L 784.956 716.629 785.228 736.455 L 785.500 756.281 796.500 746.500 C 802.550 741.121, 807.831 736.220, 808.235 735.610 C 808.639 734.999, 808.976 728.789, 808.985 721.809 C 808.993 714.829, 809.427 708.854, 809.950 708.531 C 812.012 707.257, 812.816 711.920, 812.279 722.031 L 811.723 732.500 818.346 726.182 C 824.528 720.284, 827 719.223, 827 722.466 C 827 723.752, 802.913 746.442, 790.706 756.653 C 785.078 761.362, 784.921 761.628, 785.206 765.964 C 785.478 770.089, 785.856 770.647, 790.208 773.332 C 803.624 781.608, 819.581 774.412, 822.517 758.761 C 823.091 755.700, 823.706 755.006, 826.351 754.434 C 850.361 749.246, 858.217 718.743, 840.112 701 C 837.025 697.975, 833.600 694.998, 832.500 694.385 C 830.507 693.274, 830.508 693.256, 832.628 689.385 C 841.127 673.867, 830.369 657.173, 812.506 658.161 L 806.373 658.500 801.879 653.003 C 794.425 643.886, 782.167 639.426, 771.734 642.034 M 471 657.919 C 463.437 659.926, 463.315 660.422, 468.320 668.864 C 488.011 702.081, 539.691 708.010, 568.949 680.409 C 576.305 673.470, 584.374 660.388, 581.809 659.560 C 577.409 658.139, 568.986 656.003, 567.846 656.020 C 567.106 656.031, 565.170 658.280, 563.545 661.017 C 546.420 689.862, 501.516 689.854, 483.002 661.002 C 479.419 655.420, 479.925 655.550, 471 657.919 M 251 739.500 L 251 819 259 819 L 267 819 267 792.500 L 267 766 286 766 L 305 766 305 792.500 L 305 819 309 819 C 311.788 819, 313 818.570, 313 817.580 C 313 816.800, 315.025 810.038, 317.500 802.554 L 322 788.948 322 724.474 L 322 660 286.500 660 L 251 660 251 739.500 M 428.800 663.407 C 415.169 668.218, 404 676.161, 404 681.042 C 404 682.081, 404.667 687.784, 405.481 693.716 C 407.514 708.515, 409.766 732.835, 410.583 748.807 C 411.182 760.538, 411.455 762.031, 412.881 761.420 C 422.054 757.494, 437.540 755.276, 445.195 756.792 L 449.891 757.721 450.514 752.611 C 451.863 741.546, 448.007 689.755, 444.438 671 C 442.377 660.171, 440.521 659.270, 428.800 663.407 M 604.702 662.250 C 600.992 665.009, 596.016 709.228, 596.006 739.519 L 596 756.538 607.750 756.567 C 617.888 756.592, 620.566 756.966, 627.271 759.298 C 631.545 760.784, 635.188 762, 635.366 762 C 635.545 762, 635.973 754.013, 636.319 744.250 C 636.664 734.487, 637.866 718.625, 638.990 709 C 642.740 676.874, 642.740 678.961, 638.988 675.293 C 633.435 669.863, 614.550 661, 608.535 661 C 607.351 661, 605.626 661.563, 604.702 662.250 M 280.821 678.410 C 261.271 683.611, 259.535 709.643, 278.218 717.447 C 287.431 721.295, 299.137 717.354, 304.478 708.605 C 314.295 692.526, 299.370 673.476, 280.821 678.410 M 278.240 683.110 C 269.072 687.648, 265.939 699.543, 271.794 707.581 C 274.913 711.861, 281.117 715.553, 283.595 714.602 C 285.347 713.930, 285.255 681.915, 283.500 681.333 C 282.950 681.151, 280.583 681.950, 278.240 683.110 M 288 698 C 288 717.247, 287.881 717.018, 295.566 712.514 C 307.505 705.517, 306.169 687.891, 293.282 682.377 C 287.915 680.081, 288 679.830, 288 698 M 393.965 688.654 C 384.492 694.936, 366.263 714.260, 357.792 727 C 333.495 763.539, 313.268 817.049, 311.332 849.910 C 310.067 871.383, 316.894 885.771, 331.864 893.182 C 339.503 896.964, 354.275 896.554, 363.230 892.312 C 378.961 884.860, 393.949 870.097, 408.098 848.115 L 412.852 840.729 407.003 836.423 C 395.560 828, 388.152 814.927, 384.611 796.914 L 382.448 785.906 374.974 791.125 C 366.603 796.971, 355.174 806.091, 347.207 813.281 C 342.220 817.782, 340 818.507, 340 815.635 C 340 812.857, 371.868 787.418, 381.370 782.610 C 386.961 779.781, 387.399 779.193, 395.314 763.852 C 396.917 760.746, 400.136 756.021, 402.468 753.352 L 406.708 748.500 405.867 736.500 C 404.669 719.405, 400.965 686.636, 400.132 685.765 C 399.746 685.360, 396.970 686.660, 393.965 688.654 M 645.594 687.757 C 644.514 693.025, 640.986 726.591, 640.347 737.676 L 639.704 748.852 643.982 753.676 C 646.336 756.329, 650.827 763.218, 653.964 768.983 C 659.010 778.261, 660.189 779.736, 664.210 781.805 C 676.731 788.248, 708.502 814.788, 706.353 817.009 C 705.478 817.913, 702.141 815.622, 692.257 807.328 C 685.134 801.352, 675.886 794.097, 671.704 791.206 L 664.100 785.950 663.516 789.725 C 660.158 811.422, 649.968 830.294, 637.425 838.047 C 635.541 839.211, 634 840.552, 634 841.028 C 634 843.485, 649.368 864.355, 657.241 872.591 C 677.258 893.528, 697.100 900.695, 714.220 893.171 C 737.391 882.988, 741.105 853.683, 725.404 804.919 C 709.119 754.341, 683.656 712.164, 657.620 692.643 C 647.084 684.744, 646.278 684.416, 645.594 687.757 M 148.354 705.750 C 146.714 707.813, 145.037 710.063, 144.627 710.750 C 144.035 711.744, 154.563 712, 195.941 712 L 248 712 248 707 L 248 702 199.667 702 L 151.335 702 148.354 705.750 M 325 707 L 325 712 344.343 712 L 363.687 712 367.903 707 L 372.119 702 348.560 702 L 325 702 325 707 M 340.750 715.775 L 325 716.051 325.064 748.275 C 325.120 776.663, 325.294 780.143, 326.525 777.500 C 337.767 753.365, 338.059 752.612, 336.523 751.753 C 335.286 751.061, 335 748.563, 335 738.450 L 335 726 344.367 726 L 353.734 726 356.353 722.043 C 361.102 714.867, 362.419 715.397, 340.750 715.775 M 157 767.500 L 157 819 202.500 819 L 248 819 248 767.500 L 248 716 202.500 716 L 157 716 157 767.500 M 167 739 L 167 752 177 752 L 187 752 187 739 L 187 726 177 726 L 167 726 167 739 M 192.448 727.275 C 192.164 728.016, 192.059 733.770, 192.215 740.061 L 192.500 751.500 202.500 751.500 L 212.500 751.500 212.500 739 L 212.500 726.500 202.733 726.214 C 195.260 725.994, 192.844 726.244, 192.448 727.275 M 217.434 727.311 C 217.157 728.032, 217.059 733.770, 217.215 740.061 L 217.500 751.500 227.250 751.786 L 237 752.072 237 739.036 L 237 726 227.469 726 C 220.529 726, 217.800 726.357, 217.434 727.311 M 170.461 738.750 C 170.482 743.563, 170.838 747.612, 171.250 747.750 C 171.662 747.888, 174.700 748, 178 748 L 184 748 184 739 L 184 730 177.211 730 L 170.421 730 170.461 738.750 M 195.998 739.250 L 195.996 748.500 202.498 748.165 L 209 747.829 209 738.915 L 209 730 202.500 730 L 196 730 195.998 739.250 M 221 739.548 L 221 749.095 227.250 748.798 L 233.500 748.500 233.788 739.250 L 234.075 730 227.538 730 L 221 730 221 739.548 M 338.753 738.750 C 338.479 743.563, 338.584 747.864, 338.987 748.310 C 339.390 748.755, 342.225 744.817, 345.287 739.560 L 350.854 730 345.052 730 L 339.251 730 338.753 738.750 M 403.685 757.950 C 402.137 759.797, 399.264 764.501, 397.301 768.404 C 395.338 772.307, 392.175 777.938, 390.272 780.917 C 387.043 785.971, 386.856 786.708, 387.483 791.917 C 389.046 804.901, 396.470 821.494, 403.790 828.360 L 406.838 831.219 419.169 828.667 C 425.951 827.263, 434.875 825.588, 439 824.944 C 451.456 823, 457 819.908, 457 814.904 C 457 811.083, 456.444 810.923, 446.937 812.007 C 440.589 812.731, 438.412 812.667, 437.838 811.738 C 436.586 809.712, 438.125 809.121, 447.392 808.068 C 456.653 807.016, 460.417 805.411, 461.480 802.064 C 463.204 796.630, 457.883 794.474, 445.513 795.595 C 438.430 796.237, 438 796.161, 438 794.267 C 438 791.930, 446.752 790.429, 454.294 791.472 C 460.311 792.304, 463.500 790.417, 463.500 786.027 C 463.500 780.838, 459.127 778.699, 447.564 778.233 C 436.265 777.777, 435.323 777.520, 437.100 775.380 C 438.196 774.059, 440.223 773.845, 448.848 774.142 C 460.314 774.536, 461.921 773.806, 460.659 768.777 C 458.105 758.601, 431.181 757.361, 411.219 766.500 C 408.216 767.875, 405.588 769, 405.379 769 C 404.534 769, 405.073 765.327, 406.064 764.336 C 406.649 763.751, 406.987 761.319, 406.814 758.932 L 406.500 754.593 403.685 757.950 M 639.601 759.573 C 639.681 762.089, 640.254 764.654, 640.873 765.273 C 642.035 766.435, 642.429 769, 641.445 769 C 641.140 769, 637.818 767.693, 634.063 766.095 C 623.214 761.478, 614.127 759.637, 605.208 760.248 C 590.824 761.234, 581.586 767.570, 586.544 773.049 C 587.881 774.526, 589.564 774.685, 599.044 774.236 C 609.736 773.729, 610 773.768, 610 775.858 C 610 777.872, 609.513 778, 601.866 778 C 592.117 778, 586.541 779.496, 583.932 782.814 C 580.035 787.767, 583.313 790.996, 592.250 791.009 C 603.139 791.024, 609.133 792.070, 608.782 793.895 C 608.522 795.243, 606.841 795.500, 598.272 795.500 C 590.089 795.500, 587.743 795.829, 586.406 797.165 C 584.035 799.537, 585.323 803.599, 589.059 805.531 C 591.297 806.688, 603.498 808.833, 608.750 808.992 C 608.888 808.997, 609 809.961, 609 811.136 C 609 813.072, 608.603 813.218, 604.750 812.696 C 589.613 810.647, 590.327 810.642, 589.761 812.806 C 588.038 819.393, 593.043 821.808, 619.410 827.111 L 640.319 831.316 644.180 826.908 C 649.762 820.534, 655.697 807.770, 658.193 796.776 L 660.350 787.271 656.318 780.885 C 654.100 777.373, 651.036 772.025, 649.508 769 C 646.260 762.567, 641.218 755, 640.180 755 C 639.782 755, 639.521 757.058, 639.601 759.573 M 167.450 763.270 C 167.166 764.011, 167.061 769.990, 167.217 776.558 L 167.500 788.500 177 788.500 L 186.500 788.500 186.500 775.500 L 186.500 762.500 177.233 762.212 C 170.184 761.993, 167.843 762.247, 167.450 763.270 M 193.090 763.392 C 192.321 764.318, 192.029 768.754, 192.217 776.642 L 192.500 788.500 201.349 788.790 C 207.013 788.976, 210.702 788.662, 211.599 787.918 C 213.441 786.389, 213.615 765.015, 211.800 763.200 C 210.034 761.434, 194.583 761.593, 193.090 763.392 M 218.250 763.116 C 216.943 764.458, 216.418 784.320, 217.607 787.418 C 218.101 788.705, 219.964 789, 227.607 789 L 237 789 237 776 L 237 763 232.640 763 C 230.241 763, 226.304 762.737, 223.890 762.416 C 220.950 762.025, 219.087 762.256, 218.250 763.116 M 170.991 770.250 C 170.987 772.587, 170.699 776.862, 170.352 779.750 L 169.721 785 176.861 785 L 184 785 184 775.500 L 184 766 177.500 766 L 171 766 170.991 770.250 M 196 775.500 L 196 785 202.500 785 L 209 785 209 775.500 L 209 766 202.500 766 L 196 766 196 775.500 M 221 775.500 L 221 785 227.500 785 L 234 785 234 775.500 L 234 766 227.500 766 L 221 766 221 775.500 M 271 794.500 L 271 819 286.548 819 L 302.096 819 301.798 794.506 L 301.500 770.012 286.250 770.006 L 271 770 271 794.500 M 605 829.523 C 605 837.075, 618.919 866.460, 628.569 879.280 C 639.962 894.415, 659.795 909.332, 665.771 907.260 C 668.044 906.472, 670.191 900.846, 670.152 895.779 L 670.113 890.825 659.192 880.163 C 647.499 868.748, 643.359 863.606, 634.580 849.597 C 628.063 839.201, 627.957 838.596, 632.250 836.354 L 635.500 834.656 627.500 832.854 C 609.833 828.875, 605 828.160, 605 829.523 M 434.500 829.629 C 420.513 832.403, 412 834.432, 412 834.992 C 412 835.370, 413.125 836.192, 414.500 836.818 C 418.074 838.446, 417.654 840.477, 411.880 849.500 C 403.917 861.944, 395.098 872.715, 385.135 882.163 L 376 890.826 376 895.963 C 376 901.508, 377.945 906.381, 380.558 907.384 C 382.896 908.281, 394.574 901.867, 401.819 895.705 C 417.256 882.578, 429.424 863.637, 437.961 839.450 C 441.958 828.127, 441.965 828.148, 434.500 829.629 M 674 896.580 C 674 902.483, 671.903 907.272, 668.083 910.097 C 665.512 911.997, 665.063 912.911, 665.452 915.445 C 665.710 917.125, 666.203 921.994, 666.547 926.265 L 667.173 934.030 671.215 931.765 C 679.972 926.858, 684 918.412, 684 904.960 L 684 897.284 679 894.690 L 674 892.096 674 896.580 M 366.146 895.310 L 361.791 897.495 362.166 907.608 C 362.505 916.759, 362.827 918.187, 365.549 922.611 C 368.391 927.228, 378.135 935.162, 378.707 933.325 C 378.849 932.871, 379.381 928, 379.890 922.500 L 380.816 912.500 378.024 910.268 C 374.736 907.640, 372 901.378, 372 896.480 C 372 892.442, 371.899 892.422, 366.146 895.310" stroke="none" fill="#1a1a1a" fill-rule="evenodd"/>
</svg>