<svg xmlns="http://www.w3.org/2000/svg" width="1024" height="1024" viewBox="0 0 1024 1024" version="1.1">
	<path d="M 471.928 157.470 C 455.025 160.224, 438.656 165.163, 415.709 174.432 C 408.444 177.367, 399.415 180.720, 395.645 181.884 C 383.478 185.640, 369.675 184.154, 365.073 178.593 C 355.856 167.456, 349.669 181.981, 358.335 194.410 L 360.364 197.320 351.432 196.736 C 346.519 196.416, 338.563 195.163, 333.750 193.954 C 326.688 192.179, 324.711 191.995, 323.500 193 C 318.639 197.034, 325.975 207.085, 338.592 213.677 C 347.028 218.084, 345.321 219.550, 331 220.195 C 312.219 221.041, 298.606 231.634, 286.760 254.621 C 279.607 268.503, 270 301.031, 270 311.370 C 270 312.655, 266.663 318.645, 262.584 324.680 C 225.008 380.277, 203.497 438.322, 208.923 469.477 C 212.287 488.798, 229.920 510.195, 267 539.955 C 275.525 546.797, 282.373 552.800, 282.218 553.295 C 280.209 559.692, 280.773 563.050, 284.437 566.506 C 289.386 571.173, 321.099 592.073, 343.750 605.596 C 365.043 618.308, 363.069 614.057, 359.844 640.250 L 357.659 658 292.570 658 L 227.481 658 202.990 675.990 C 165.543 703.497, 153.845 714.503, 146.726 728.922 C 140.329 741.882, 140.517 771.325, 147.071 782.800 C 180.941 842.105, 395.674 880.436, 604.500 864.453 C 729.685 854.872, 830.149 826.459, 862.994 791.347 C 872.956 780.698, 874.431 776.587, 874.838 758.333 C 875.413 732.569, 872.731 725.621, 855.564 708.402 C 846.437 699.246, 826.700 683.349, 813.956 674.887 L 811.545 673.286 814.522 669.513 C 829.048 651.106, 829.237 650.796, 828.729 646.285 C 828.078 640.515, 824.200 635.734, 817.517 632.465 C 807.772 627.697, 805.499 629, 791.500 647.377 L 783.500 657.880 740.250 658.172 C 716.462 658.333, 691.263 658.472, 684.250 658.482 L 671.500 658.500 669.337 652 C 666.515 643.517, 666.478 643.854, 670.512 641.241 C 674.813 638.455, 674.813 638.409, 670.401 627.444 C 652.836 583.793, 628.661 554.030, 599.848 540.585 L 593.196 537.481 601.848 530.957 C 617.430 519.207, 629.967 500.343, 636.580 478.695 C 638.687 471.799, 639.602 470.017, 640.802 470.478 C 653.020 475.166, 673.179 468.720, 686.082 456 C 713.810 428.665, 707.670 381.064, 675.932 377.305 C 670.171 376.623, 670.325 377.490, 673.469 363.493 C 680.661 331.469, 681.473 306.432, 675.977 286.239 C 674.889 282.245, 674 278.746, 674 278.463 C 674 278.180, 675.328 278.635, 676.950 279.474 C 695.310 288.969, 682.141 255.461, 661.022 238.946 C 653.103 232.753, 653.267 232.273, 663.634 231.305 C 671.718 230.550, 674.979 228.236, 672.648 224.908 C 668.199 218.556, 657.899 214.650, 646.964 215.169 L 639.995 215.500 639.983 211.500 C 639.953 201.801, 635.047 188.539, 628.898 181.537 C 623.639 175.547, 619.283 178.024, 621.128 185.956 C 622.102 190.142, 622.263 201.151, 621.384 203.441 C 620.950 204.572, 619.469 202.764, 616.361 197.312 C 603.325 174.436, 583.357 157.043, 577.200 163.200 C 575.345 165.055, 575.722 166.977, 579.485 174.828 C 581.401 178.827, 582.414 181.771, 581.735 181.370 C 581.056 180.970, 579.150 179.668, 577.500 178.477 C 567.544 171.293, 548.244 163.137, 532.239 159.349 C 518.724 156.151, 486.237 155.139, 471.928 157.470 M 484 161.594 C 461.870 164.254, 445.216 168.789, 418.099 179.538 C 386.827 191.935, 373.885 192.984, 363.604 183.957 C 359.360 180.231, 359.043 180.258, 359.949 184.274 C 361.018 189.016, 362.296 191.030, 366.985 195.367 C 370.106 198.254, 370.877 199.521, 370.028 200.367 C 368.190 202.196, 341.763 201.719, 334.543 199.726 C 331.266 198.821, 328.434 198.233, 328.249 198.418 C 327.227 199.440, 338.641 207.726, 345.737 211.113 C 350.282 213.282, 354 215.466, 354 215.966 C 354 216.466, 351.971 218.333, 349.491 220.114 C 345.023 223.322, 344.999 223.371, 346.866 225.426 C 349.555 228.386, 351 231.492, 351 234.313 C 351 236.087, 351.824 237.099, 354.005 238.002 C 363.082 241.762, 366.383 252.321, 360.911 260.095 L 359.085 262.690 362.664 266.095 C 375.230 278.048, 370.443 295.984, 354.684 295.996 C 349.572 296, 346.861 294.989, 343.301 291.749 C 337.882 286.816, 334.742 292.637, 334.929 307.268 C 335.162 325.494, 330.919 338.323, 322.805 343.925 C 318.279 347.050, 318.242 347.614, 321.510 363.500 C 322.868 370.100, 323.984 375.805, 323.989 376.177 C 323.995 376.549, 326.447 377.974, 329.438 379.343 C 333.930 381.399, 335.297 382.660, 337.292 386.585 L 339.707 391.338 340.406 379.419 C 342.293 347.211, 347.864 329.652, 364.016 305 C 374.391 289.166, 386.673 275.340, 388.627 277.294 C 388.942 277.609, 387.580 282.423, 385.600 287.991 C 379.940 303.907, 380.289 304.004, 394.250 290.386 C 408.056 276.919, 419.871 267.219, 429.159 261.724 C 439.598 255.549, 440.842 257.163, 432.841 266.500 C 426.597 273.786, 421.631 281.172, 419.469 286.389 L 417.857 290.279 421.178 289.619 C 425.197 288.820, 443.302 278.983, 467.149 264.642 C 495.428 247.634, 496.741 248.007, 478.987 268 C 468.821 279.447, 463.620 285.954, 464.185 286.518 C 466.150 288.484, 498.649 272.938, 516.500 261.493 C 530.491 252.523, 534 250.597, 534 251.891 C 534 254.621, 522.266 269.720, 513.274 278.561 C 507.623 284.116, 503 289.188, 503 289.831 C 503 291.317, 502.601 291.366, 510.645 288.887 C 526.135 284.112, 551.169 269.507, 570.292 254.089 C 575.128 250.190, 579.456 247, 579.910 247 C 580.365 247, 581.516 249.813, 582.469 253.250 C 587.679 272.048, 597.298 290.704, 610.683 307.974 C 611.611 309.171, 611.743 307.856, 611.298 301.876 C 610.581 292.248, 611.497 286.756, 613.748 287.190 C 616.663 287.751, 639.540 347.028, 643.190 363.479 C 644.291 368.440, 645.513 378.800, 645.905 386.500 L 646.618 400.500 648.396 396.500 C 649.374 394.300, 651.351 389.847, 652.789 386.604 C 655.012 381.593, 656.044 380.426, 659.673 378.820 C 664.657 376.616, 665.413 374.723, 669.583 354 C 675.367 325.256, 675.157 300.753, 668.978 283.262 C 664.838 271.544, 664.407 269.165, 666.291 268.442 C 667.774 267.873, 673.137 270.312, 677.884 273.714 C 680.236 275.399, 680.259 275.389, 679.521 272.961 C 678.095 268.268, 672.785 259.134, 668.154 253.408 C 664.067 248.355, 660.184 244.998, 648.423 236.351 C 646.006 234.574, 645.685 233.882, 646.569 232.351 C 648.107 229.687, 654.002 227.024, 659.908 226.324 C 664.081 225.830, 664.805 225.470, 663.875 224.350 C 661.715 221.747, 652.131 219.705, 645.579 220.452 C 633.225 221.862, 634.581 222.961, 633.918 211 C 633.416 201.954, 632.900 199.600, 630.185 194 L 627.035 187.500 627.593 192.620 C 628.655 202.351, 624.610 215, 620.437 215 C 619.650 215, 616.959 210.886, 614.385 205.750 C 608.456 193.917, 603.957 187.151, 597.040 179.664 C 591.841 174.037, 584.573 168, 582.998 168 C 582.612 168, 584.928 173.287, 588.146 179.750 C 597.542 198.622, 597.037 201.177, 585.797 191.641 C 569.700 177.985, 549.185 168.306, 527.036 163.917 C 517.819 162.091, 491.630 160.677, 484 161.594 M 324.440 225.937 C 302.241 231.251, 284.195 261.750, 276.456 307.035 C 274.866 316.340, 274.681 316.737, 265.531 330.500 C 225.146 391.243, 205.262 452.050, 217.233 478.199 C 225.081 495.340, 248.564 519.317, 282.904 545.250 L 292.307 552.352 294.725 549.426 C 306.749 534.870, 330.301 492.834, 328.729 488.736 C 328.448 488.005, 319.073 480.775, 307.894 472.670 L 287.569 457.932 284.734 460.966 C 281.226 464.720, 279.708 464.898, 281.038 461.400 C 281.582 459.970, 283.392 453.683, 285.061 447.430 C 287.956 436.581, 288.029 435.836, 286.642 431.165 C 281.861 415.067, 284.871 397.135, 293.972 387.500 C 296.324 385.011, 297.598 381.362, 301.456 366.069 C 304.013 355.932, 306.315 347.299, 306.572 346.884 C 306.828 346.469, 309.392 345.042, 312.269 343.713 C 324.679 337.982, 328.259 330.545, 328.981 309 C 329.559 291.739, 330.034 290.328, 336.851 285.603 C 341.515 282.371, 342.073 282.373, 345.076 285.629 C 350.464 291.471, 358.107 292.221, 361.988 287.288 C 369.332 277.952, 356.427 263.044, 341 263.044 C 334.542 263.044, 329.336 265.172, 321.713 270.927 C 313.509 277.121, 311.619 276.266, 317.250 268.910 C 324.263 259.749, 337.637 255.455, 350.156 258.344 C 357.823 260.113, 360.839 251.639, 354.721 245.521 C 344.731 235.531, 325.679 239.917, 311.123 255.557 C 304.206 262.988, 302.001 262.839, 305.896 255.203 C 311.176 244.855, 325.249 236.005, 337.695 235.206 C 345.814 234.685, 347.030 233.250, 342.750 229.241 C 338.505 225.264, 332.088 224.106, 324.440 225.937 M 572.500 259.535 C 558.660 271.508, 530.846 287.768, 515.352 292.944 C 504.981 296.409, 502.375 296.651, 499.223 294.443 C 495.090 291.549, 496.309 288.463, 505.177 279.378 C 509.675 274.770, 513.015 271, 512.601 271 C 512.186 271, 507.374 273.476, 501.907 276.503 C 483.658 286.606, 466.856 292.934, 461.706 291.641 C 455.944 290.195, 457.309 285.333, 466.995 272.815 C 468.592 270.750, 465.885 272, 455.286 278.220 C 438.188 288.254, 422.358 295.967, 418.821 295.986 C 412.751 296.018, 411.488 290.791, 415.488 282.197 L 417.957 276.895 415.199 278.858 C 413.683 279.938, 406.078 286.895, 398.300 294.318 C 390.522 301.741, 383.138 308.139, 381.891 308.535 C 378.475 309.619, 375.645 305.683, 376.305 300.765 C 376.582 298.694, 376.619 297, 376.386 297 C 375.152 297, 362.951 317.095, 357.903 327.443 C 348.946 345.803, 346.220 360.927, 345.906 394 C 345.578 428.717, 355.317 477.570, 366.584 497.717 C 385.357 531.285, 422.953 550.249, 480.113 554.982 C 506.612 557.175, 539.105 552.905, 564.742 543.859 C 603.618 530.142, 623.634 507.282, 634.494 464.195 C 638.304 449.080, 643.949 408.858, 642.574 406.632 C 641.758 405.313, 640.841 398.021, 640.169 387.500 C 638.671 364.049, 636.855 357.407, 620.377 315.117 C 617.842 308.612, 617.463 308.098, 617.192 310.793 C 615.898 323.654, 601.794 310, 587.970 282.500 C 584.928 276.450, 581.341 268.012, 579.998 263.750 C 578.655 259.488, 577.319 256.017, 577.028 256.038 C 576.738 256.058, 574.700 257.632, 572.500 259.535 M 533.500 310.007 C 527.028 312.512, 523.352 321.864, 526.158 328.685 C 527.295 331.449, 527.331 331.404, 528.157 326.203 C 529.081 320.378, 531.137 315.700, 534.288 312.254 C 536.646 309.674, 536.373 308.895, 533.500 310.007 M 449.829 313.750 C 453.097 317.942, 455 322.873, 455 327.149 C 455 330.231, 456.410 330.979, 457.393 328.418 C 459.388 323.219, 457.116 315.809, 452.385 312.088 C 447.963 308.610, 446.542 309.533, 449.829 313.750 M 537.888 314.500 C 526.102 320.905, 537.617 340.451, 559.734 351.581 L 565.968 354.718 559.734 355.359 C 546.653 356.702, 533.738 366.486, 528.852 378.753 C 526.985 383.443, 526.558 386.446, 526.532 395.075 C 526.500 405.539, 526.545 405.742, 530.769 414.265 C 539.128 431.135, 550.631 439.962, 565.368 440.815 C 574.427 441.340, 575.435 439.634, 566.604 438.723 C 561.421 438.188, 551.172 434.495, 552.152 433.515 C 552.405 433.262, 554.387 433.546, 556.556 434.148 C 572.151 438.473, 593.429 428.140, 600.959 412.585 C 609.815 394.291, 601.295 369.282, 583.150 360.304 L 579.264 358.381 590.382 358.796 C 605.210 359.349, 608.405 358.498, 608.799 353.891 C 609.230 348.842, 606.702 347.088, 595.787 344.863 C 572.200 340.055, 562.481 334.390, 547.391 316.654 C 544.052 312.729, 542.002 312.264, 537.888 314.500 M 437.497 314.765 C 436.946 315.169, 434.553 318.057, 432.179 321.181 C 422.881 333.420, 409.257 340.828, 389.112 344.599 C 378.677 346.553, 375.238 348.202, 374.367 351.673 C 372.872 357.632, 377.447 359.367, 393.246 358.832 L 403.992 358.469 399.403 360.800 C 392.766 364.174, 386.315 371.114, 382.674 378.799 C 378.080 388.497, 377.977 403.392, 382.441 412.500 C 389.074 426.036, 402.368 434.358, 417.500 434.447 C 422.450 434.476, 427.850 434.182, 429.500 433.793 C 431.385 433.348, 430.542 434.026, 427.233 435.617 C 424.335 437.009, 419.485 438.404, 416.453 438.717 C 407.332 439.658, 408.654 441.324, 418.109 440.804 C 432.241 440.025, 443.840 431.348, 452.320 415.210 C 466.524 388.181, 449.682 355.275, 421.500 354.994 C 418.636 354.965, 418.727 354.838, 423.500 352.204 C 439.265 343.503, 451 331.012, 451 322.932 C 451 317.852, 441.295 311.982, 437.497 314.765 M 311.697 350.683 C 310.866 352.030, 303.913 378.246, 304.287 378.620 C 304.477 378.810, 306.175 378.523, 308.060 377.983 C 309.945 377.442, 312.952 377, 314.743 377 C 318.636 377, 318.601 377.636, 315.527 362.631 C 313.072 350.644, 312.610 349.203, 311.697 350.683 M 411 362.879 C 400.069 366.478, 390.602 375.113, 386.969 384.798 C 377.486 410.076, 399.482 436.448, 425.500 430.995 L 431.500 429.738 426.713 428.514 C 409.649 424.152, 404.178 402.241, 417.427 391.321 C 428.829 381.922, 444.868 385.740, 452.030 399.557 L 454.073 403.500 453.698 395 C 453.092 381.292, 446.275 370.660, 434.500 365.057 C 429.132 362.503, 415.874 361.275, 411 362.879 M 554.286 363.391 C 538.218 368.641, 527.285 384.425, 529.617 399.008 L 530.224 402.800 532.906 397.666 C 539.891 384.295, 557.435 382.154, 567.807 393.406 C 578.938 405.482, 573.148 423.598, 556.584 428.523 L 552.500 429.738 558.316 430.954 C 584.371 436.399, 605.815 410.154, 596.065 384.753 C 589.748 368.298, 570.067 358.235, 554.286 363.391 M 311.500 382.906 C 293.943 387.350, 285.309 409.906, 292.900 431.500 C 300.136 452.088, 321.375 467.287, 340.734 465.733 C 344.242 465.452, 347.365 464.969, 347.674 464.660 C 348.607 463.726, 343.961 440.824, 341.859 436 C 339.230 429.967, 334.317 425, 330.978 425 C 323.978 425, 320.714 437.064, 325.838 443.995 C 329.103 448.411, 327.914 448.805, 324.175 444.547 C 316.780 436.125, 318.638 422.814, 327.519 420.585 C 330.934 419.727, 329.619 417.359, 323.051 412.538 C 314.216 406.052, 308.825 405.959, 305.004 412.225 C 303.269 415.071, 303.007 415.211, 303.004 413.297 C 302.993 406.957, 309.151 402.243, 315.813 403.493 C 323.414 404.919, 331.723 411.048, 337.577 419.548 C 339.643 422.547, 341.435 424.888, 341.561 424.750 C 341.686 424.613, 341.241 419.550, 340.573 413.500 C 339.062 399.824, 333.556 387.418, 327.811 384.745 C 323.686 382.827, 315.472 381.900, 311.500 382.906 M 664.625 383.419 C 662.493 384.206, 660.375 385.225, 659.918 385.682 C 657.846 387.754, 649.903 407.894, 648.911 413.591 C 647.439 422.041, 648.008 423.039, 651.459 418.059 C 657.624 409.164, 669.588 402.137, 676.397 403.415 C 680.595 404.202, 685.002 409.025, 684.996 412.827 L 684.993 415.500 682.996 412.225 C 678.717 405.207, 671.629 406.131, 661.921 414.972 C 657.403 419.087, 656.862 419.917, 658.673 419.955 C 661.926 420.023, 666.817 424.656, 668.077 428.863 C 669.486 433.566, 667.994 439.665, 664.385 443.955 C 660.663 448.377, 659.923 447.690, 662.636 442.331 C 667.328 433.063, 664.304 425, 656.137 425 C 652.412 425, 650.302 427.059, 647.443 433.484 C 645.128 438.684, 640.342 463.675, 641.448 464.782 C 642.973 466.306, 654.999 466.143, 660.622 464.522 C 691.426 455.640, 708.179 417.342, 691.712 393.448 C 685.745 384.788, 673.347 380.198, 664.625 383.419 M 558.635 395.073 C 554.173 398.582, 556.137 404, 561.871 404 C 566.920 404, 568.997 398.117, 565.171 394.655 C 562.796 392.505, 561.819 392.568, 558.635 395.073 M 417.452 396.433 C 415.752 399.027, 416.381 401.411, 419.432 403.944 C 421.616 405.756, 425.848 404.428, 427.176 401.513 C 429.875 395.589, 421.032 390.968, 417.452 396.433 M 485 422.118 C 477.275 425.183, 470.434 436.626, 474.373 439.895 C 476.514 441.671, 479 440.130, 479 437.028 C 479 431.389, 485.745 426, 492.802 426 C 498.679 426, 503.154 429.473, 505.081 435.531 C 506.800 440.931, 509.192 442.378, 510.955 439.083 C 513.160 434.965, 506.936 425.224, 500.282 422.377 C 496.589 420.797, 488.669 420.663, 485 422.118 M 291.105 446.224 C 288.779 452.341, 288.521 452.034, 307.500 465.661 C 317.400 472.769, 326.015 478.900, 326.644 479.286 C 327.273 479.671, 329.416 479.306, 331.407 478.474 C 335.579 476.731, 336.280 476.987, 348.165 484.606 C 351.935 487.022, 355.170 489, 355.352 489 C 355.534 489, 354.298 484.743, 352.605 479.540 C 349.639 470.423, 349.436 470.106, 347.014 470.771 C 331.498 475.036, 307.776 465.211, 296.453 449.829 C 292.176 444.019, 291.991 443.894, 291.105 446.224 M 485.707 477.107 C 477.632 478.266, 468.071 483.114, 461.066 489.600 C 455.507 494.746, 455.056 494.973, 454.062 493.116 C 453.478 492.025, 453 490.427, 453 489.566 C 453 487.028, 451.094 487.776, 450.388 490.591 C 449.510 494.090, 451.438 500.102, 454.499 503.405 C 457.323 506.452, 459.458 505.963, 458.582 502.470 C 457.813 499.405, 466.879 491.185, 475.979 486.696 C 485.521 481.989, 498.485 481.991, 508.021 486.699 C 517.104 491.185, 525.658 499.902, 524.006 502.989 C 522.564 505.683, 523.917 507.479, 526.719 506.589 C 531.257 505.149, 535.049 496.316, 533.603 490.554 C 532.923 487.843, 531 487.016, 531 489.435 C 531 490.224, 530.569 492.004, 530.042 493.389 L 529.084 495.909 523.674 490.627 C 512.518 479.735, 499.554 475.118, 485.707 477.107 M 335.453 489.267 C 330.588 504.271, 309.633 540.178, 296.394 556.194 L 290.034 563.889 298.267 569.821 C 311.715 579.512, 336.788 595.271, 357.083 606.788 L 362.667 609.956 362.205 601.978 C 361.451 588.960, 365.162 592.737, 367.259 607.123 C 368.292 614.211, 365.585 648.273, 363.355 656.250 C 362.688 658.635, 411.896 658.828, 427 656.500 C 439.205 654.619, 456.574 654.627, 465.500 656.517 C 475.336 658.601, 532.966 658.599, 544.500 656.515 C 554.865 654.642, 574.733 654.643, 587.918 656.517 C 593.647 657.332, 598.545 657.788, 598.801 657.532 C 599.058 657.276, 598.757 651.693, 598.134 645.126 C 596.828 631.378, 596.702 612.452, 597.936 615.500 C 598.822 617.688, 602.246 636.793, 604.041 649.561 L 605.175 657.621 611.706 656.835 C 625.450 655.181, 647.018 647.924, 661.233 640.172 C 669.068 635.899, 669.049 637.590, 661.448 620.684 C 644.400 582.764, 624.940 559.631, 599.071 546.534 C 587.652 540.752, 587.327 540.729, 577.880 544.996 C 570.431 548.361, 554.291 553.776, 546.851 555.407 C 544.617 555.896, 544.011 556.810, 542.979 561.244 C 534.502 597.663, 488.798 611.075, 460.968 585.310 C 454.612 579.425, 447.527 567.151, 446.393 560.058 L 445.806 556.386 432.731 552.688 C 400.273 543.507, 376.461 526.585, 362.661 502.894 C 360.800 499.698, 358.221 497.231, 354.239 494.837 C 351.083 492.939, 345.946 489.732, 342.825 487.710 L 337.149 484.034 335.453 489.267 M 483.296 501.669 C 480.275 503.225, 478.380 505.713, 479.422 506.756 C 479.681 507.014, 482.219 506.667, 485.063 505.985 C 489.963 504.809, 497.560 505.078, 502.884 506.615 C 506.020 507.521, 505.371 505.366, 501.676 502.608 C 498.028 499.884, 487.776 499.360, 483.296 501.669 M 450.429 559.681 C 457.193 587.721, 489.455 602.740, 515.576 590.008 C 526.212 584.823, 536.783 571.366, 539.451 559.614 C 540.086 556.816, 540.010 556.748, 536.928 557.364 C 535.180 557.714, 532.913 558, 531.889 558 C 530.618 558, 529.066 559.908, 526.985 564.029 C 520.223 577.426, 510.243 583.501, 495 583.499 C 486.484 583.498, 484.902 583.195, 479.722 580.573 C 473.039 577.190, 465.996 570.103, 462.819 563.565 C 460.538 558.870, 460.167 558.626, 453.624 557.518 C 449.778 556.867, 449.754 556.884, 450.429 559.681 M 468.234 562.438 C 470.360 566.411, 478.261 573.903, 482.353 575.826 C 495.426 581.971, 511.288 577.829, 518.943 566.272 C 520.624 563.734, 522 561.397, 522 561.079 C 522 560.760, 509.669 560.500, 494.599 560.500 C 467.799 560.500, 467.220 560.543, 468.234 562.438 M 804.984 638.671 L 801.760 642.343 806.252 644.625 C 810.472 646.770, 814.217 650.070, 817.299 654.361 C 818.566 656.125, 818.774 656.057, 821.318 653.034 C 826.062 647.396, 823.636 640.555, 815.599 636.905 C 809.861 634.300, 808.644 634.502, 804.984 638.671 M 655.500 649.148 C 652.200 650.717, 645.450 653.463, 640.500 655.250 L 631.500 658.500 647.891 658.775 C 656.906 658.927, 664.506 658.827, 664.779 658.554 C 665.280 658.053, 663.212 649.443, 662.100 647.398 C 661.701 646.666, 659.487 647.253, 655.500 649.148 M 797.667 646.667 C 796.408 647.925, 797.003 648.784, 799.581 649.431 C 803.628 650.447, 809.969 655.060, 812.562 658.876 C 814.500 661.728, 815.043 662.052, 815.573 660.670 C 817.468 655.731, 801.270 643.063, 797.667 646.667 M 788.767 658.686 C 755.003 701.545, 744.019 716.511, 746.091 716.835 C 747.553 717.063, 749.110 716.108, 750.982 713.835 C 760.652 702.092, 798 653.729, 798 652.950 C 798 649.875, 793.510 652.664, 788.767 658.686 M 796.351 660.250 C 788.624 669.894, 751 718.128, 751 718.391 C 751 718.519, 752.323 719.602, 753.941 720.798 L 756.882 722.972 773.329 702.236 C 782.376 690.831, 793.850 676.325, 798.828 670 L 807.880 658.500 805.384 656.250 C 801.989 653.189, 802.020 653.175, 796.351 660.250 M 554 660.051 C 535.876 662.228, 518.117 669.106, 510.609 676.856 L 506.719 680.872 506.866 710.186 C 506.947 726.309, 507.298 746.318, 507.646 754.651 L 508.279 769.802 515.565 764.012 C 535.602 748.090, 557.948 741, 588.097 741 C 610.215 741, 620.767 742.777, 679.161 756.335 C 691.281 759.148, 707.681 761.653, 708.516 760.817 C 708.933 760.400, 676.486 706.973, 658.384 678.266 C 657.609 677.037, 655.968 675.810, 654.737 675.540 C 579.749 659.051, 572.108 657.877, 554 660.051 M 431 660.626 C 429.625 660.883, 424.540 661.751, 419.701 662.555 C 414.861 663.359, 400.236 666.465, 387.201 669.457 C 374.165 672.449, 361.146 675.203, 358.268 675.575 C 355.391 675.948, 352.376 676.758, 351.568 677.376 C 350.133 678.475, 333.493 704.719, 307.900 746.250 L 295.113 767 299.306 766.997 C 311.187 766.989, 333.050 763.257, 366.500 755.527 C 395.749 748.768, 405.072 747.117, 419.705 746.100 C 449.455 744.033, 473.933 749.983, 495.622 764.554 C 499.405 767.095, 502.789 769.357, 503.142 769.580 C 503.495 769.802, 503.556 750.076, 503.278 725.742 L 502.771 681.500 498.635 677.172 C 494.025 672.347, 480.317 665.181, 470.500 662.464 C 464.619 660.836, 436.801 659.542, 431 660.626 M 804.357 667.134 C 801.607 670.635, 790.652 684.525, 780.013 698 C 769.373 711.475, 760.254 723.043, 759.747 723.707 C 759.160 724.477, 759.340 725.647, 760.245 726.940 C 761.687 728.998, 772.275 716.375, 803.373 675.527 C 807.153 670.562, 810.632 666.013, 811.106 665.418 C 811.609 664.786, 811.424 663.594, 810.662 662.552 C 809.472 660.925, 808.917 661.328, 804.357 667.134 M 220.500 669.422 C 216.650 672.335, 205.625 680.581, 196 687.746 C 162.008 713.049, 150.952 725.223, 148.092 740.500 C 144.418 760.120, 163.009 780.562, 199 796.477 C 249.538 818.824, 323.716 833.556, 421.500 840.667 C 451.978 842.883, 556.980 843.232, 586 841.213 C 721.596 831.781, 818.558 806.672, 856.094 771.271 C 870.041 758.117, 873.344 744.280, 866.070 729.479 C 860.295 717.729, 845.103 703.670, 813.407 680.744 L 808.314 677.060 793.433 696.280 C 785.249 706.851, 774.600 720.497, 769.769 726.604 L 760.986 737.708 748.243 743.720 C 732.867 750.974, 731.397 751.478, 730.726 749.729 C 730.446 748.998, 731.571 741.615, 733.227 733.323 L 736.239 718.248 756.704 691.874 C 767.961 677.368, 777.383 665.163, 777.644 664.750 C 777.905 664.337, 744.004 664.039, 702.309 664.087 L 626.500 664.173 641.500 667.600 C 649.750 669.484, 657.400 671.233, 658.500 671.485 C 659.600 671.738, 661.267 673.307, 662.203 674.972 C 663.371 677.048, 664.673 678, 666.343 678 C 670.314 678, 671.803 679.970, 695.050 716 C 707.293 734.975, 720.841 755.941, 725.155 762.591 C 733.638 775.665, 734.369 778.297, 730.701 782.561 L 728.402 785.234 636.451 784.117 C 585.878 783.504, 540.648 782.913, 535.940 782.805 C 528.142 782.626, 527.074 782.837, 523.940 785.180 C 514.954 791.899, 497.403 792.477, 488.377 786.352 L 484.553 783.757 427.026 785.902 C 260.001 792.133, 276.753 791.844, 273.455 788.545 C 268.877 783.968, 269.752 781.664, 284.814 758.628 C 336.230 679.993, 336.182 680.061, 340.500 678.887 C 342.700 678.289, 345.625 676.557, 347 675.037 C 349.083 672.735, 351.085 671.989, 359 670.561 C 364.225 669.619, 372.775 667.800, 378 666.520 L 387.500 664.191 307.500 664.158 L 227.500 664.125 220.500 669.422 M 494.595 667.827 C 497.843 669.933, 501.118 672.408, 501.872 673.327 C 502.627 674.247, 503.810 675, 504.500 675 C 505.190 675, 506.373 674.247, 507.128 673.327 C 507.882 672.408, 511.157 669.933, 514.405 667.827 L 520.310 664 504.500 664 L 488.690 664 494.595 667.827 M 335.186 691.250 C 323.641 708.418, 278 778.060, 278 778.508 C 278 778.779, 279.129 779, 280.510 779 C 283.504 779, 284.398 777.765, 297.878 755 C 303.251 745.925, 314.626 727.250, 323.156 713.500 C 339.609 686.975, 341.365 684, 340.566 684 C 340.288 684, 337.867 687.263, 335.186 691.250 M 668.240 685.500 C 668.527 686.050, 679.027 703.150, 691.575 723.500 C 704.122 743.850, 715.763 763.200, 717.444 766.500 C 719.945 771.411, 721.006 772.558, 723.288 772.820 L 726.077 773.140 721.695 766.320 C 719.284 762.569, 712.001 751.400, 705.509 741.500 C 699.016 731.600, 688.541 715.400, 682.230 705.500 C 672.937 690.922, 665.589 680.419, 668.240 685.500 M 740.692 721.750 C 740.457 722.163, 739.696 725.585, 738.999 729.356 L 737.733 736.212 740.602 738.500 L 743.472 740.788 750.161 737.419 C 758.516 733.211, 758.868 732.613, 755.076 729.071 C 753.384 727.491, 752 725.790, 752 725.291 C 752 723.216, 741.693 719.989, 740.692 721.750 M 564.597 746.540 C 553.971 748.548, 539.928 753.334, 532 757.650 C 525.146 761.381, 511.740 771.074, 512.451 771.785 C 512.681 772.015, 517.561 770.368, 523.295 768.127 C 546.305 759.130, 569.012 755.433, 595.500 756.371 C 612.980 756.990, 616.617 757.427, 655 763.510 C 672.166 766.231, 681.885 767.215, 696 767.662 C 718.441 768.374, 718.713 767.293, 697 763.696 C 688.475 762.284, 670.475 758.580, 657 755.466 C 619.432 746.785, 614.060 745.959, 592 745.475 C 577.385 745.154, 570.520 745.421, 564.597 746.540 M 424 749.662 C 408.984 750.461, 391.844 753.512, 359.822 761.090 C 338.222 766.201, 316.871 769.790, 303.090 770.627 C 294.702 771.137, 291.965 771.649, 291.527 772.790 C 290.232 776.166, 329.665 772.159, 364.169 765.409 C 422.416 754.014, 452.486 754.363, 485.123 766.815 C 490.831 768.992, 496.400 771.102, 497.500 771.503 C 501.488 772.957, 489.311 764.731, 482 761.032 C 465.772 752.822, 444.182 748.589, 424 749.662 M 577 758.587 C 575.075 758.809, 569.225 759.487, 564 760.093 C 551.639 761.526, 534.488 765.889, 524.780 770.070 C 520.535 771.898, 517.192 773.525, 517.351 773.685 C 517.511 773.845, 521.990 772.873, 527.303 771.525 C 555.399 764.398, 588.433 763.639, 645.500 768.811 C 688.308 772.690, 716.475 773.928, 715.803 771.902 C 715.436 770.794, 711.365 770.374, 696.419 769.901 C 686.014 769.571, 675.250 768.972, 672.500 768.568 C 669.750 768.165, 659.087 766.514, 648.804 764.900 C 613.879 759.418, 588.868 757.219, 577 758.587 M 417 760.138 C 403.757 760.868, 388.639 763.098, 363.549 768.022 C 340.322 772.580, 322.179 774.936, 304.711 775.661 C 295.962 776.024, 288.646 776.764, 288.301 777.321 C 287.129 779.218, 325.609 777.132, 357.500 773.569 C 403.780 768.399, 411.617 767.814, 434 767.860 C 455.963 767.905, 473.274 769.637, 485.813 773.042 C 497.646 776.256, 498.076 774.059, 486.482 769.621 C 465.437 761.566, 444.050 758.647, 417 760.138 M 867.099 766.537 C 831.120 819.385, 642.350 855.748, 449.500 846.981 C 298.346 840.109, 179.189 808.955, 151.557 769.083 C 148.262 764.328, 146.908 764.568, 147.700 769.768 C 151.014 791.545, 184.106 813.487, 238.500 829.975 C 397.099 878.051, 670.411 872.903, 807 819.267 C 847.066 803.534, 871.938 782.252, 869.818 765.517 C 869.505 763.051, 869.462 763.067, 867.099 766.537 M 525.690 774.016 C 523.595 774.553, 520.895 775.525, 519.690 776.174 C 516.325 777.989, 492.203 778.112, 488.715 776.333 C 486.290 775.096, 476.383 775.240, 412.215 777.442 C 291.737 781.576, 276.521 782.146, 276.128 782.539 C 275.922 782.745, 276.019 783.608, 276.345 784.457 C 277.102 786.428, 270.750 786.528, 367 783.027 C 411.825 781.396, 457.162 779.753, 467.749 779.375 C 484.705 778.770, 487.211 778.881, 488.786 780.306 C 495.918 786.760, 514.044 786.722, 522.200 780.236 L 525.641 777.500 562.070 778.125 C 682.836 780.199, 726.939 780.322, 727.605 778.588 C 727.958 777.667, 728.073 776.740, 727.860 776.527 C 726.181 774.848, 531.852 772.434, 525.690 774.016" stroke="none" fill="#1a1a1a" fill-rule="evenodd"/>
</svg>