<svg xmlns="http://www.w3.org/2000/svg" width="1024" height="1024" viewBox="0 0 1024 1024" version="1.1">
	<path d="M 747.546 2.250 C 749.251 7.885, 754.826 16.442, 763.999 27.500 C 769.473 34.100, 774.368 40.676, 774.876 42.114 C 776.243 45.978, 773.274 51.721, 765.770 59.726 C 752.699 73.671, 749.487 80.576, 750.216 93.164 C 750.629 100.308, 751.198 102.168, 755.589 110.727 C 761.300 121.861, 761.891 127.131, 758.139 133.489 C 755.594 137.802, 755.850 138.667, 759.164 136.956 C 771.338 130.670, 772.275 117.770, 761.622 103.123 C 752.213 90.188, 752.628 87.492, 766.243 73.079 C 770.618 68.447, 775.261 63.047, 776.560 61.079 C 779.315 56.905, 782.385 45.795, 781.730 42.369 C 781.131 39.235, 780.750 39.084, 791.821 46.367 C 797.144 49.869, 806 55.158, 811.500 58.119 C 823.910 64.801, 825.515 67.259, 825.471 79.500 C 825.437 88.857, 823.948 92.313, 813.752 106.720 C 798.470 128.311, 797.033 143.244, 808.370 162.667 C 811.833 168.600, 815 176.741, 815 179.709 C 815 182.444, 819.778 177.264, 820.613 173.624 C 821.903 167.997, 821.028 164.901, 814.893 153.378 C 805.493 135.727, 805.795 133.641, 820.285 116.143 C 833.592 100.074, 837.669 89.079, 835.215 75.883 C 834.574 72.436, 834.153 69.514, 834.279 69.388 C 834.404 69.262, 837.588 70.474, 841.353 72.080 C 848.543 75.147, 850 75.506, 850 74.210 C 850 73.776, 845.837 71.677, 840.750 69.547 C 822.166 61.765, 795.850 47.607, 785.142 39.629 C 783.295 38.253, 780.774 34.961, 779.539 32.314 C 778.304 29.666, 774.091 23.675, 770.176 19 C 766.261 14.325, 762.032 8.145, 760.779 5.267 C 758.373 -0.256, 756.317 -1.856, 757.456 2.683 C 758.508 6.873, 762.336 12.804, 769.601 21.500 C 777.308 30.726, 778.749 33.651, 779.537 41.676 L 780.109 47.500 777.545 42.391 C 776.135 39.582, 771.334 33.057, 766.876 27.891 C 757.727 17.290, 751.646 8.489, 749.976 3.428 C 748.740 -0.319, 746.430 -1.439, 747.546 2.250 M 309.869 16.941 C 284.668 35.988, 258.980 49.414, 225.939 60.807 C 213.421 65.123, 188.645 71.508, 180.228 72.588 C 175.568 73.185, 173.060 74.394, 174.172 75.506 C 174.377 75.711, 179.006 75.014, 184.458 73.958 C 189.911 72.902, 194.538 72.204, 194.741 72.407 C 195.331 72.998, 177.873 132.989, 175.763 137.621 C 175.183 138.895, 174.388 139.740, 173.998 139.499 C 173.608 139.258, 173.501 140.172, 173.761 141.530 C 175.086 148.464, 178.099 140.343, 191.003 95.053 C 197.402 72.591, 197.802 71.566, 200.521 70.660 C 202.961 69.846, 203.651 70.068, 205.430 72.240 C 214.157 82.890, 256.614 128.963, 257.448 128.688 C 258.925 128.201, 259.724 111.430, 259.873 77.750 C 259.943 61.938, 260.212 49, 260.471 49 C 260.729 49, 264.442 51.626, 268.721 54.835 C 281.879 64.703, 325.168 95, 326.111 95 C 327.690 95, 327.075 91.091, 319.699 54.204 L 312.441 17.907 317.747 13.901 C 320.666 11.698, 322.790 9.469, 322.468 8.948 C 321.739 7.769, 323.384 6.726, 309.869 16.941 M 298 28.048 C 291.675 32.361, 282.225 38.140, 277 40.890 C 261.410 49.095, 260.134 46.199, 288.087 66.042 C 301.514 75.573, 314.975 85.119, 318 87.254 C 321.740 89.894, 323.590 90.706, 323.780 89.792 C 324.028 88.604, 319.721 65.562, 312.839 31.250 C 311.598 25.063, 310.339 20.046, 310.041 20.102 C 309.744 20.159, 304.325 23.734, 298 28.048 M 775.665 50.197 C 775.302 51.645, 771.269 56.883, 766.704 61.837 C 757.699 71.608, 753.540 78.247, 752.508 84.500 L 751.847 88.500 754.425 84.145 C 755.843 81.749, 761.023 75.542, 765.936 70.352 C 775.597 60.143, 779.105 53.791, 777.307 49.762 C 776.336 47.586, 776.320 47.590, 775.665 50.197 M 247.500 55.072 C 242.550 57.205, 231.975 61.029, 224 63.571 C 216.025 66.112, 208.633 68.517, 207.573 68.915 C 205.876 69.551, 206.473 70.535, 212.573 77.153 C 216.383 81.286, 227.825 93.925, 238 105.240 L 256.500 125.811 256.772 107.471 C 256.921 97.385, 256.921 80.596, 256.772 70.163 L 256.500 51.194 247.500 55.072 M 825.015 65.158 C 825.023 65.346, 825.679 67.300, 826.471 69.500 C 830.464 80.584, 827.883 89.627, 815.469 108.047 C 806.092 121.958, 802.955 129.622, 803.066 138.339 L 803.132 143.500 804.545 138.251 C 806.629 130.514, 808.995 126.493, 817.345 116.500 C 832.381 98.505, 836.065 88.172, 832.654 73.555 C 831.739 69.632, 830.828 68.218, 828.250 66.713 C 826.462 65.669, 825.007 64.970, 825.015 65.158 M 502 66.699 C 443.903 71.217, 383.732 100.553, 359.086 136.374 C 354.567 142.944, 354.819 145.159, 359.800 142.627 C 367.121 138.903, 367.632 139.651, 361.865 145.644 C 351.295 156.628, 344.473 168.775, 339.360 185.716 C 335.530 198.407, 334.848 223.951, 337.866 241.702 C 339.943 253.912, 346.505 276.067, 350.215 283.393 C 352.086 287.087, 352.092 287.243, 350.343 286.448 C 349.329 285.987, 345.800 285.445, 342.500 285.242 C 331.560 284.570, 322.821 291.911, 319.533 304.533 C 312.111 333.031, 336.072 362.326, 365.584 360.836 L 372.943 360.464 373.594 363.482 C 379.839 392.441, 404.099 418.417, 435.654 429.933 C 445.191 433.414, 465.438 438.428, 476.796 440.123 L 485.092 441.360 484.796 446.333 L 484.500 451.307 476.524 453.184 C 451.084 459.173, 422.659 480.200, 406.241 505.176 C 390.109 529.717, 374.055 567.246, 365.034 601.500 L 362.928 609.500 366.089 612.178 C 367.828 613.650, 371.937 616.287, 375.221 618.037 C 380.655 620.934, 381.138 621.456, 380.599 623.860 C 376.800 640.800, 380.583 660.770, 389.304 669.814 C 393.935 674.616, 402.080 679, 406.372 679 L 410 679 410.009 696.750 C 410.013 706.513, 410.301 716.863, 410.648 719.750 L 411.279 725 342.135 725 L 272.992 725 273.246 607.782 L 273.500 490.563 278 489.713 C 313.944 482.921, 338.599 474.457, 340.796 468.156 C 341.357 466.545, 341.877 457.749, 341.951 448.610 C 342.084 432.035, 342.078 431.987, 339.524 429.433 C 328.181 418.090, 276.569 409.697, 185.619 404.403 C 175.688 403.825, 173.813 403.941, 174.199 405.106 C 174.549 406.161, 178.043 406.673, 188.581 407.212 C 283.392 412.062, 346.555 424.371, 338.632 436.454 C 333.011 445.024, 291.064 455.541, 239 461.431 C 226.860 462.805, 178.969 467, 175.428 467 C 174.643 467, 174 467.668, 174 468.485 C 174 469.684, 175.105 469.872, 179.750 469.463 C 182.912 469.185, 193.600 468.285, 203.500 467.462 C 273.098 461.681, 313.910 453.732, 338.250 441.219 C 338.663 441.007, 339 446.876, 339 454.262 C 339 469.762, 339.159 469.450, 329.188 473.502 C 305.340 483.192, 249.787 493.459, 197 497.932 C 176.715 499.651, 174 500.056, 174 501.360 C 174 502.284, 176.338 502.391, 183.750 501.803 C 197.539 500.711, 232.159 496.991, 234.250 496.378 C 235.909 495.892, 236 501.792, 236 610.433 L 236 725 205 725 C 185 725, 174 725.355, 174 726 C 174 726.645, 184.984 727, 204.952 727 L 235.904 727 236.202 752.584 L 236.500 778.167 239.697 781.022 C 247.210 787.731, 263.444 787.710, 270.171 780.983 L 273 778.154 273 752.577 L 273 727 342.250 727.070 C 403.568 727.131, 410.973 727.302, 406.900 728.556 C 401.711 730.155, 397.697 733.714, 394.899 739.199 C 393.375 742.184, 392.155 743.140, 388.749 744.016 C 367.189 749.562, 357.313 757.013, 358.287 767 C 358.528 769.475, 358.061 773.929, 357.249 776.898 C 356.057 781.256, 356 783.057, 356.955 786.245 C 358.393 791.044, 359.363 790.181, 347.862 794.344 C 320.334 804.308, 301.173 817.336, 293.880 831.045 C 290.132 838.091, 290.381 854.292, 294.358 862.141 C 301.499 876.234, 318.334 889.344, 342.940 899.974 C 348.473 902.365, 353 904.630, 353 905.008 C 353 905.387, 351.145 906.533, 348.877 907.555 C 342.891 910.255, 331.174 921.878, 330.366 925.920 C 329.889 928.304, 328.826 929.592, 326.368 930.764 C 324.527 931.642, 322.783 933.108, 322.493 934.022 C 321.513 937.110, 317.527 939.830, 312 941.181 C 305.898 942.674, 305.645 943.376, 308.822 950 C 310.849 954.228, 317.014 956.969, 333 960.748 C 338.775 962.113, 346.129 964.347, 349.342 965.712 C 353.255 967.375, 358.372 968.479, 364.842 969.057 C 370.154 969.531, 378.325 971.053, 383 972.439 C 394.466 975.837, 400 975.882, 400 972.577 C 400 969.142, 404.496 964.231, 408.830 962.933 C 412.009 961.980, 412.716 961.193, 414.006 957.165 C 415.412 952.774, 417.899 950.548, 423.500 948.667 C 424.062 948.479, 424.386 945.608, 424.240 942.111 C 424.023 936.917, 424.412 935.153, 426.600 931.420 C 428.097 928.864, 428.999 926.103, 428.704 924.975 C 428.088 922.621, 427.197 922.664, 440.076 924.427 C 480.324 929.937, 537.220 929.937, 581.500 924.427 C 656.178 915.133, 713.729 890.654, 727.677 862.250 C 731.597 854.267, 732.159 842.137, 729 833.715 C 723.877 820.059, 703.794 805.279, 677.589 795.881 L 671.007 793.520 671.134 785.510 C 671.204 781.105, 671.011 770.750, 670.705 762.500 C 670.165 747.893, 670.217 747.362, 672.710 742.214 C 674.804 737.889, 675.163 736.025, 674.682 731.964 L 674.094 727 762.606 727 C 821.359 727, 850.910 726.664, 850.500 726 C 850.096 725.346, 819.338 725, 761.485 725 L 673.089 725 669.405 722.500 C 667.379 721.125, 664.713 720, 663.482 720 C 661.957 720, 660.862 719.080, 660.049 717.117 C 657.627 711.272, 653.481 708.499, 647.185 708.513 C 644.058 708.521, 640.768 708.885, 639.873 709.323 C 638.658 709.918, 638.098 709.528, 637.660 707.782 C 635.887 700.716, 624.446 696.650, 617.071 700.463 C 615.280 701.390, 613.674 702.002, 613.504 701.824 C 613.333 701.646, 613.037 696.325, 612.847 690 L 612.500 678.500 615.170 678.775 C 618.476 679.116, 628.583 674.091, 632.195 670.310 C 640.806 661.298, 644.505 642.743, 641.356 624.357 C 640.844 621.370, 641.113 621.057, 646.783 618.035 C 650.065 616.286, 654.174 613.650, 655.915 612.178 L 659.080 609.500 656.086 599 C 642.099 549.947, 617.115 500.866, 596.748 482.432 C 580.943 468.127, 559.066 455.915, 544 452.989 C 533.145 450.881, 534 451.462, 534 446.201 L 534 441.440 544.352 439.689 C 599.135 430.420, 630.302 407.896, 642.506 368.756 L 645.222 360.044 652.484 360.658 C 666.326 361.828, 680.707 354.925, 689.961 342.669 C 709.219 317.161, 695.269 278.596, 669.228 285.351 C 666.353 286.097, 664 286.616, 664 286.505 C 664 286.395, 665.800 280.822, 668 274.121 C 683.620 226.554, 682.551 178.524, 665.229 149.701 C 660.952 142.583, 649.948 130.802, 642.900 125.795 C 640.513 124.098, 640.529 124.088, 646 123.901 C 649.025 123.798, 654.538 123.825, 658.250 123.960 C 665.715 124.233, 666.299 123.617, 662.250 119.744 C 656.505 114.248, 648.479 111.538, 637.889 111.518 L 628.277 111.500 628.198 105.960 C 628.058 96.189, 621.736 82.796, 614.997 77.998 C 610.142 74.541, 609.304 75.178, 611.040 81.007 C 612.348 85.396, 613.997 99.196, 613.341 100.257 C 613.071 100.693, 610.833 98.806, 608.367 96.063 C 590.086 75.731, 545.201 63.340, 502 66.699 M 493.500 70.103 C 445.005 75.953, 399.089 97.204, 370.667 126.953 C 359.138 139.021, 359.131 139.488, 370.557 135.404 C 382.839 131.015, 383.419 131.109, 376.360 136.353 C 359.287 149.034, 347.177 167.428, 341.371 189.500 C 333.733 218.538, 342.055 267.493, 359.070 293.608 C 361.361 297.124, 363.299 300, 363.377 300 C 363.455 300, 363.514 289.762, 363.509 277.250 C 363.499 253.247, 364.009 249.025, 368.671 234.500 C 371.714 225.016, 373.892 220.487, 379.127 212.747 C 381.268 209.583, 384.097 204.132, 385.414 200.633 C 392.267 182.424, 410.138 159.468, 425.500 149.138 L 430.500 145.776 424.500 151.128 C 407.825 166.004, 392.499 186.748, 388.526 199.819 L 387.821 202.138 391.661 199.724 C 396.345 196.779, 401.703 195.024, 418.225 191.021 C 440.102 185.720, 455.201 178.066, 478.544 160.445 C 484.886 155.658, 490.337 152.003, 490.657 152.324 C 491.793 153.459, 477.976 169.841, 467.543 179.727 C 455.306 191.324, 455.389 191.568, 471 189.932 C 495.636 187.349, 515.539 177.025, 543.440 152.355 C 548.907 147.521, 553.081 144.348, 552.714 145.303 C 550.824 150.227, 534.102 172.850, 526.136 181.257 C 523.136 184.424, 520.939 187.272, 521.254 187.587 C 522.340 188.673, 534.521 184.948, 542.815 180.994 C 554.936 175.216, 565.008 167.904, 577.592 155.750 C 589.615 144.138, 589.991 143.881, 590.017 147.250 C 590.087 156.328, 596.689 174.754, 603.589 185.134 C 607.529 191.061, 616.139 200.008, 617.891 199.996 C 618.226 199.994, 618.500 194.406, 618.500 187.579 C 618.500 169.736, 619.461 169.398, 624.187 185.583 C 626.496 193.490, 630.513 202.704, 638.756 219 C 652.876 246.913, 653.264 248.469, 653.401 277.670 L 653.500 298.840 656.207 294.492 C 672.263 268.703, 681.050 206.785, 673.022 176 C 667.306 154.083, 654.537 135.689, 638.758 126.645 C 632.390 122.995, 634.346 121.972, 649.500 121.023 L 659.500 120.397 653.500 117.449 C 647.931 114.712, 646.710 114.504, 636.500 114.552 L 625.500 114.603 625.454 106.907 C 625.405 98.687, 620.843 86.883, 616.032 82.529 C 614 80.690, 613.991 80.701, 614.743 84.088 C 615.159 85.965, 615.500 91.961, 615.500 97.414 C 615.500 107.650, 614.390 110.346, 612.176 105.487 C 605.726 91.331, 579.175 77.246, 547.891 71.384 C 537.762 69.486, 505.007 68.714, 493.500 70.103 M 753.403 98.245 C 753.738 102.507, 754.885 105.864, 757.846 111.245 C 762.763 120.184, 763.601 124.227, 761.687 129.782 C 759.979 134.739, 760.981 135.239, 764.033 130.953 C 769.016 123.956, 767.935 116.222, 760.414 105.050 C 757.361 100.516, 754.434 95.837, 753.908 94.653 C 753.211 93.083, 753.074 94.057, 753.403 98.245 M 805.872 141.500 C 805.284 150.302, 806.272 154.489, 811.109 163.708 C 813.799 168.835, 816.014 174.035, 816.032 175.265 C 816.063 177.477, 816.079 177.480, 817.611 175.500 C 820.340 171.974, 818.978 164.523, 814.067 156.116 C 811.698 152.058, 808.929 146.434, 807.915 143.619 C 806.238 138.961, 806.054 138.770, 805.872 141.500 M 577.340 159.857 C 559.075 177.342, 539.121 188.342, 521.726 190.515 C 518.710 190.892, 515.998 190.807, 515.701 190.325 C 515.404 189.844, 518.612 185.588, 522.830 180.867 C 531.414 171.260, 540.438 160, 539.552 160 C 539.233 160, 536.391 162.106, 533.236 164.679 C 510.870 182.925, 489.732 191.766, 466.183 192.724 C 450 193.382, 448.607 192.703, 455.059 187.299 C 460.970 182.347, 477.069 166.735, 476.672 166.339 C 476.500 166.166, 472.021 168.885, 466.720 172.380 C 448.466 184.415, 435.253 190.173, 415.754 194.591 C 398.548 198.489, 394.345 200.387, 387.458 207.372 C 369.182 225.907, 362.680 257.384, 367.543 303.778 C 374.017 365.536, 380.634 385.837, 400.536 405 L 406.248 410.500 405.674 405.500 C 405.358 402.750, 403.511 396.675, 401.568 392 C 395.788 378.089, 396.529 367.752, 404.642 349.121 C 407.128 343.412, 409.515 336.502, 409.948 333.766 L 410.735 328.790 405.866 323.765 C 383.320 300.496, 392.277 266.739, 424 255.423 C 433.758 251.942, 445.497 246.028, 451.068 241.786 C 459.789 235.147, 460.317 235.670, 452.855 243.560 C 449.858 246.729, 448.330 249, 449.195 249 C 456.131 249, 469.300 260.133, 473.826 269.822 C 478.104 278.981, 477.806 296.741, 473.212 306.443 C 466.913 319.746, 457.392 328.048, 444.404 331.563 L 437.750 333.365 438.452 345.684 C 439.280 360.219, 438.598 363.132, 432.525 371 C 424.907 380.870, 423.583 384.343, 423.562 394.500 C 423.541 405.002, 427.514 416.833, 433.265 423.391 C 440.265 431.374, 479.858 440, 509.500 440 C 535.095 440, 576.172 431.933, 583.964 425.377 C 588.857 421.260, 594.189 407.108, 594.763 396.718 C 595.357 385.947, 594.079 382.093, 586.503 371.823 C 579.553 362.400, 578.407 358.322, 579.706 347.617 C 581.188 335.388, 580.668 333.289, 575.956 332.493 C 569.210 331.353, 558.230 325.360, 552.635 319.765 C 532.299 299.426, 536.488 263.250, 560.500 251.850 C 563.800 250.283, 567.053 249.001, 567.729 249.001 C 568.405 249, 566.410 246.532, 563.296 243.516 C 557.264 237.674, 556.555 234.646, 562.427 239.801 C 567.844 244.558, 573.774 247.685, 588.508 253.557 C 603.658 259.594, 609.202 262.969, 614.410 269.324 C 627.867 285.747, 626.771 308.744, 611.849 323.051 L 606.604 328.080 607.723 333.414 C 608.338 336.348, 610.891 343.455, 613.395 349.207 C 621.245 367.234, 622.012 379.408, 616.218 394 C 613.007 402.087, 611.404 409, 612.739 409 C 616.688 409, 632.650 387.124, 637.077 375.645 C 644.320 356.862, 650.409 312.224, 650.396 278 C 650.385 249.254, 649.576 245.326, 640.125 228.113 C 632.089 213.476, 627.946 204.663, 623.856 193.500 L 620.924 185.500 621.212 194.751 C 621.557 205.825, 621.135 206.067, 612.841 199.556 C 602.268 191.256, 592.837 174.880, 589.340 158.750 C 588.415 154.488, 587.399 151.020, 587.080 151.044 C 586.761 151.068, 582.378 155.034, 577.340 159.857 M 649.388 175 C 653.646 183.055, 655.652 188.950, 658.065 200.500 L 659.945 209.500 659.462 202.920 C 658.584 190.949, 654.121 178.247, 648.394 171.413 C 646.410 169.047, 646.597 169.720, 649.388 175 M 360.076 192.045 C 355.799 201.988, 351.241 226.205, 353.964 224.522 C 354.534 224.170, 355.007 222.446, 355.016 220.691 C 355.037 216.320, 358.436 200.781, 360.944 193.586 C 363.524 186.183, 362.999 185.251, 360.076 192.045 M 547.008 199.989 C 544.582 203.396, 543.197 210.386, 544.757 211.350 C 545.313 211.694, 545.971 210.253, 546.268 208.039 C 546.557 205.884, 547.517 202.670, 548.401 200.898 C 550.537 196.617, 549.766 196.115, 547.008 199.989 M 465.465 199.500 C 467.914 205.585, 468.924 208.711, 469.019 210.500 C 469.121 212.389, 469.176 212.379, 470.003 210.325 C 471.177 207.413, 469.539 201.783, 466.825 199.400 C 464.692 197.527, 464.672 197.528, 465.465 199.500 M 452.293 203.659 C 442.932 215.923, 434.441 222.309, 417.846 229.567 C 402.637 236.219, 393.206 242.539, 395.326 244.659 C 396.535 245.869, 417.804 242.992, 426.687 240.418 C 448.576 234.074, 467.612 218.617, 465.481 208.916 C 464.705 205.380, 459.566 200, 456.966 200 C 455.931 200, 453.829 201.647, 452.293 203.659 M 554.110 201.396 C 552.796 202.124, 551.124 203.796, 550.396 205.110 C 541.931 220.382, 574.084 241.123, 610.062 243.601 C 618.589 244.189, 620.193 244.074, 619.809 242.902 C 618.805 239.838, 608.925 233.772, 597.999 229.511 C 581.592 223.112, 575.072 218.941, 565.548 208.750 C 561.050 203.938, 557.175 200.016, 556.935 200.035 C 556.696 200.055, 555.425 200.667, 554.110 201.396 M 591.133 261.577 C 604.969 277.864, 593.359 303, 572 303 C 557.111 303, 546.312 291.179, 547.179 275.830 C 547.509 269.995, 547.386 269.335, 546.327 271.255 C 539.925 282.871, 544.813 297.103, 557.834 304.757 C 564.471 308.658, 578.964 308.795, 586.343 305.026 C 596.468 299.855, 601.471 291.256, 601.487 279 C 601.500 268.593, 600.085 265.399, 593.994 262.093 C 590.174 260.020, 589.745 259.943, 591.133 261.577 M 421.760 262.296 C 416.336 264.440, 413.569 279.693, 416.867 289.264 C 423.882 309.619, 451.431 314.814, 465.799 298.491 C 473.599 289.630, 475.077 279.598, 469.974 270.150 C 468.119 266.715, 468.047 266.677, 468.751 269.500 C 472.587 284.868, 463.805 299.731, 449.016 302.903 C 428.993 307.197, 413.101 285.234, 422.858 266.750 C 424.527 263.587, 425.580 261.048, 425.197 261.106 C 424.813 261.165, 423.267 261.700, 421.760 262.296 M 430.455 264.455 C 424.233 270.676, 431.127 280.575, 439.455 277.379 C 440.346 277.037, 441.742 275.466, 442.558 273.887 C 446.622 266.029, 436.651 258.258, 430.455 264.455 M 560.235 263.037 C 558.990 263.537, 557.502 265.178, 556.930 266.684 C 553.772 274.989, 563.364 281.727, 569.545 275.545 C 575.905 269.186, 568.775 259.606, 560.235 263.037 M 409.565 270.488 C 397.432 282.281, 394.374 303.934, 403.135 316.027 L 406.158 320.200 408.377 318.116 C 411.665 315.027, 415.741 314.630, 422 316.788 C 427.334 318.627, 427.621 318.629, 431.500 316.868 C 433.700 315.869, 436.721 315.041, 438.212 315.026 C 442.114 314.989, 452.202 318.855, 454.207 321.156 C 458.663 326.271, 471.997 308.592, 473.575 295.477 L 474.174 290.500 471.137 295.626 C 458.431 317.078, 426.819 315.707, 415.851 293.229 C 413.171 287.736, 412.199 276.562, 413.873 270.497 C 415.328 265.227, 414.980 265.226, 409.565 270.488 M 602.390 267.551 C 606.968 279.354, 603.977 293.173, 594.945 301.938 C 580.896 315.572, 556.241 313.197, 545.839 297.207 L 542.777 292.500 543.411 297 C 544.391 303.967, 549.370 313.137, 555.063 318.462 L 560.143 323.214 562.322 321.231 C 563.520 320.140, 567.770 318.252, 571.766 317.036 C 578.902 314.863, 579.132 314.855, 584.662 316.595 C 589.972 318.265, 590.562 318.270, 595.030 316.683 C 601.659 314.329, 605.312 314.550, 608.841 317.520 L 611.836 320.040 614.038 316.947 C 620.136 308.382, 620.598 290.613, 615 279.954 C 611.585 273.453, 600.419 262.471, 602.390 267.551 M 507.142 277.450 C 509.171 284.995, 506.533 295.004, 500.023 304.467 C 496.376 309.768, 497.521 310.628, 501.420 305.516 C 508.419 296.339, 511.579 280.812, 507.540 275.441 C 506.226 273.694, 506.186 273.894, 507.142 277.450 M 338.236 288.004 C 317.082 292.861, 315.136 327.949, 335.001 346.341 C 344.176 354.834, 350.411 357.401, 362 357.456 C 373.051 357.507, 372.170 359.308, 369.561 342 C 368.483 334.849, 367.073 329.271, 365.832 327.249 C 360.088 317.894, 351.991 319.223, 348.585 330.079 C 347.201 334.490, 347.198 334.493, 347.099 331.151 C 346.902 324.482, 352.043 318.085, 357.700 317.960 C 358.991 317.932, 358.086 316.617, 354.500 313.311 C 346.129 305.595, 340.315 304.181, 335.077 308.589 C 331.154 311.889, 331.046 310.288, 334.939 306.558 C 341.455 300.316, 354.039 305.410, 363.205 318 C 366.775 322.902, 367.150 323.174, 366.658 320.500 C 366.354 318.850, 365.803 315.025, 365.433 312 C 364.532 304.635, 356.062 292.176, 350.306 289.750 C 345.107 287.558, 342.083 287.121, 338.236 288.004 M 667.605 288.515 C 662.320 290.524, 661.634 291.201, 656.584 299.382 C 652.804 305.506, 652.090 307.547, 651.469 314 L 650.747 321.500 654.916 316.225 C 665.220 303.190, 676.713 299.734, 683.034 307.770 C 686.056 311.613, 685.364 312.601, 682.099 309.106 C 676.793 303.426, 669.465 305.388, 660.563 314.871 C 658.207 317.381, 657.969 318, 659.363 318 C 664.675 318, 670.113 324.288, 669.929 330.218 C 669.875 331.977, 669.433 331.542, 668 328.319 C 664.365 320.146, 657.869 318.813, 652.728 325.186 C 650.089 328.456, 649.533 330.407, 647.784 342.509 C 646.700 350.010, 646.119 356.451, 646.493 356.824 C 646.866 357.196, 651.070 357.500, 655.836 357.500 C 677.883 357.500, 696 338.589, 696 315.576 C 696 295.785, 682.451 282.872, 667.605 288.515 M 449.832 291.470 C 448.460 294.481, 450.096 297, 453.422 297 C 457.608 297, 459.281 293.423, 456.429 290.571 C 454.099 288.242, 451.118 288.648, 449.832 291.470 M 579.200 290.200 C 575.655 293.745, 580.654 299.192, 584.513 295.989 C 587.316 293.663, 585.640 289, 582 289 C 581.120 289, 579.860 289.540, 579.200 290.200 M 501.216 315.833 C 493.293 318.656, 488 324.486, 488 330.391 C 488 334.441, 489.613 334.236, 490.874 330.026 C 494.086 319.307, 510.730 313.967, 519.858 320.727 C 523.469 323.401, 527 328.801, 527 331.648 C 527 332.942, 527.450 334, 528 334 C 528.550 334, 529 332.267, 529 330.148 C 529 318.870, 514.157 311.223, 501.216 315.833 M 410.659 319.483 C 407.042 323.101, 411.092 326.859, 420.799 328.891 C 430.182 330.855, 436.455 330.386, 437.941 327.610 C 438.644 326.296, 440.316 324.721, 441.657 324.110 C 445.323 322.440, 445.340 322.725, 441.766 325.917 C 437.602 329.638, 438.395 330.369, 444.597 328.527 C 451.152 326.580, 453.916 324.556, 452.282 322.899 C 448.384 318.946, 436.344 317.375, 430.250 320.025 C 427.490 321.225, 426.510 321.233, 423.750 320.076 C 418.423 317.843, 412.565 317.578, 410.659 319.483 M 573.441 319.468 C 572.374 320.276, 570.318 320.951, 568.872 320.968 C 565.873 321.004, 563.175 323.575, 564.620 325.020 C 565.896 326.296, 577.204 330.129, 577.835 329.499 C 578.113 329.220, 577.286 327.869, 575.996 326.496 C 572.634 322.918, 575.534 323.380, 579.154 327 C 582.713 330.559, 586.836 330.887, 596.753 328.400 C 602.968 326.841, 605.936 327.152, 602.971 329.051 C 600.547 330.603, 594.868 332.015, 588.500 332.649 L 582.500 333.246 582.500 347.438 C 582.500 363.236, 581.653 360.699, 591.487 374.343 C 600.065 386.245, 599.900 400.815, 590.977 419.284 C 588.359 424.703, 588.787 424.803, 596.175 420.496 C 607.592 413.841, 608.583 412.796, 609.918 406.014 C 610.578 402.659, 612.666 395.636, 614.559 390.407 C 617.071 383.467, 618 379.247, 618 374.776 L 618 368.651 615.686 370.826 C 612.830 373.508, 609.951 373.592, 606.861 371.084 C 603.928 368.703, 603.567 357.534, 606.260 352.500 C 607.810 349.603, 607.846 349.810, 607.309 358.500 C 606.803 366.688, 606.937 367.665, 608.793 369.330 C 610.403 370.774, 611.259 370.932, 612.849 370.081 C 617.346 367.674, 616.866 363.586, 610.289 348.277 C 604.664 335.184, 603.538 327.011, 606.922 323.858 C 612 319.127, 603.260 316.208, 594.283 319.636 C 590.318 321.150, 589.682 321.150, 585.717 319.636 C 580.406 317.608, 575.981 317.547, 573.441 319.468 M 412.974 331.227 C 412.948 334.548, 410.855 340.941, 404.981 355.641 C 401.445 364.492, 401.474 368.113, 405.095 370.051 C 406.754 370.939, 407.571 370.795, 409.202 369.330 C 411.035 367.683, 411.186 366.657, 410.717 359.050 C 410.328 352.741, 410.468 351.084, 411.267 352.513 C 414.622 358.507, 413.898 369.914, 410.032 371.983 C 407.321 373.434, 404.444 373.240, 403.009 371.511 C 398.491 366.067, 399.425 380.012, 404.437 392.839 C 406.379 397.809, 408.254 404.307, 408.603 407.281 C 409.227 412.589, 409.350 412.760, 415.414 416.718 C 420.907 420.305, 429.329 425, 430.268 425 C 430.460 425, 428.894 421.512, 426.789 417.250 C 417.693 398.835, 418.477 385.243, 429.457 371 C 436.099 362.383, 436.392 361.513, 436.018 351.500 C 435.833 346.550, 435.722 340.363, 435.771 337.750 L 435.861 333 431.980 333 C 426.706 333, 417.994 331.114, 415.250 329.378 C 413.086 328.008, 412.999 328.079, 412.974 331.227 M 497.500 368.406 C 485.401 371.191, 470.701 379.687, 464.076 387.724 C 457.276 395.974, 461.885 396.208, 470.600 388.055 C 494.020 366.147, 525.469 366.351, 548.029 388.558 C 553.913 394.349, 556 395.245, 556 391.978 C 556 386.670, 539.531 374.166, 527.050 369.998 C 518.849 367.259, 505.587 366.545, 497.500 368.406 M 500.405 389.750 C 494.539 393.101, 493.520 393.854, 494.085 394.418 C 494.397 394.731, 496.643 394.009, 499.076 392.815 C 505.304 389.758, 514.901 389.818, 521 392.952 L 525.500 395.265 523.500 392.994 C 519.054 387.947, 506.619 386.200, 500.405 389.750 M 452.512 392.180 C 450.029 398.384, 460.545 405.454, 467.066 401.965 C 470.245 400.264, 469.256 399.109, 465.585 400.235 C 460.993 401.645, 455.984 398.845, 454.342 393.951 C 453.450 391.292, 453.030 390.886, 452.512 392.180 M 562.659 393.955 C 561.672 398.890, 555.987 401.445, 550 399.646 L 547.500 398.894 549.861 400.947 C 555.271 405.651, 565 401.236, 565 394.077 C 565 390.157, 563.435 390.075, 562.659 393.955 M 523 444.449 C 515.620 447.626, 503.650 450, 495.017 450 C 487.954 450, 487.950 450.002, 487.346 453.021 C 486.644 456.529, 485.454 457.626, 484.643 455.511 C 484.331 454.699, 483.384 454.251, 482.538 454.517 C 481.692 454.783, 480.247 455.241, 479.326 455.535 C 476.651 456.391, 485.192 464.364, 492.110 467.469 C 504.257 472.920, 515.830 472.971, 527.508 467.625 C 532.456 465.360, 542 457.706, 542 456.003 C 542 454.659, 534.634 453.973, 533.849 455.245 C 532.744 457.032, 531 451.637, 531 446.435 C 531 441.255, 530.634 441.164, 523 444.449 M 406.004 457.993 C 401.541 466.333, 400.814 476.905, 404.455 480.545 C 412.105 488.196, 416.620 477.323, 411.715 463.062 C 409.311 456.073, 407.765 454.701, 406.004 457.993 M 470.510 457.680 C 464.574 459.735, 464.486 460.294, 469.182 466.056 C 474.263 472.289, 483.450 478.849, 491.660 482.106 C 500.150 485.475, 519.800 485.496, 528.236 482.145 C 536.808 478.740, 545.671 472.382, 550.605 466.097 C 555.981 459.249, 555.982 459.541, 550.565 457.472 L 546.130 455.778 540.630 461.411 C 531.645 470.614, 524.321 473.500, 509.948 473.500 C 498.606 473.500, 498.258 473.432, 490.777 469.734 C 485.724 467.237, 481.694 464.341, 478.814 461.138 L 474.472 456.308 470.510 457.680 M 606.563 467.990 C 603.330 478.225, 603.309 481.400, 606.455 484.545 C 611.161 489.252, 617.021 485.491, 616.973 477.795 C 616.938 472.065, 612.899 460.604, 610.770 460.194 C 609.507 459.951, 608.531 461.760, 606.563 467.990 M 406.094 464.750 C 403.908 473.087, 403.817 474.144, 405.029 477.070 C 406.609 480.883, 410.022 480.750, 411.398 476.822 C 412.405 473.944, 409.566 461, 407.927 461 C 407.460 461, 406.635 462.688, 406.094 464.750 M 454.225 464.994 C 420.727 483.254, 399.591 511.983, 378.704 567.645 C 373.438 581.679, 365.753 607.791, 366.522 609.036 C 369.840 614.403, 407.284 629, 409.130 625.645 C 409.476 625.015, 410.069 621.350, 410.446 617.500 C 411.309 608.696, 416.162 578.513, 419.402 561.796 C 421.192 552.560, 421.623 548.192, 420.981 545.796 C 419.670 540.901, 418.251 529.037, 419.035 529.522 C 419.409 529.752, 420.293 532.668, 421 536 C 422.255 541.913, 423.972 544.925, 424.028 541.309 C 424.043 540.314, 425.372 534.325, 426.981 528 C 430.770 513.110, 430.025 518.777, 423.368 555.500 C 416.677 592.410, 413.160 615.319, 412.785 624.439 L 412.500 631.379 429.500 635.580 C 496.065 652.028, 543.260 652.916, 592.500 638.644 C 611.886 633.025, 610.390 634.108, 609.656 626.221 C 608.908 618.186, 603.747 586.739, 597.639 553 C 591.238 517.640, 590.444 507.729, 596.073 533.459 L 598.471 544.419 600.169 537.109 C 601.717 530.451, 603.867 525.135, 602.640 531.002 C 599.565 545.703, 599.577 549.227, 602.764 566.131 C 604.461 575.134, 607.268 591.500, 609.003 602.500 C 610.737 613.500, 612.343 623.465, 612.571 624.645 C 612.954 626.625, 613.314 626.717, 617.243 625.840 C 630.028 622.984, 647.470 615.573, 653.834 610.292 L 655.994 608.500 653.044 598.500 C 645.629 573.364, 638.045 554.051, 626.660 531.319 C 609.704 497.463, 594.755 480.581, 568.405 465.530 C 559.476 460.430, 557.567 460.073, 555.899 463.188 C 553.721 467.259, 545.531 475.297, 539.690 479.097 C 521.960 490.633, 498.040 490.633, 480.310 479.097 C 474.469 475.297, 466.279 467.259, 464.101 463.188 C 462.593 460.371, 462.762 460.340, 454.225 464.994 M 608.576 469.057 C 605.788 478.443, 606.773 484, 611.225 484 C 614.522 484, 615.447 479.309, 613.586 472.016 C 611.353 463.260, 610.455 462.730, 608.576 469.057 M 267.500 493.613 C 264.438 495.984, 254.289 501.023, 246.500 504.039 L 239.500 506.749 239.226 640.624 C 239.075 714.256, 239.195 775.507, 239.492 776.738 C 240.849 782.360, 257.181 785.543, 264.705 781.653 C 271.522 778.127, 271 790.382, 271 633.777 C 271 555.800, 270.663 492.014, 270.250 492.032 C 269.837 492.049, 268.600 492.761, 267.500 493.613 M 254.500 511.589 C 250.650 513.471, 248.625 514.722, 250 514.370 C 253.506 513.471, 263 509.225, 263 508.555 C 263 507.603, 261.716 508.062, 254.500 511.589 M 552.419 574.819 C 531.185 589.747, 502.468 602.288, 470.583 610.557 C 464.579 612.115, 460.186 613.562, 460.821 613.774 C 462.398 614.299, 480.125 609.779, 493.500 605.440 C 517.707 597.587, 544.251 583.858, 558 572.080 C 563.232 567.598, 561.437 568.478, 552.419 574.819 M 535.500 601.543 C 531.100 603.983, 522.215 608.087, 515.756 610.662 C 509.297 613.238, 504.157 615.490, 504.334 615.667 C 505.852 617.185, 535.891 604.110, 541.588 599.453 C 545.666 596.119, 544.653 596.466, 535.500 601.543 M 383.410 623.956 C 383.055 624.805, 382.530 629.930, 382.244 635.344 C 381.511 649.209, 383.860 658.482, 390.320 667.219 C 393.401 671.387, 393.899 670.598, 391.879 664.750 C 390.881 661.862, 390.076 657.925, 390.089 656 C 390.109 653.098, 390.573 653.876, 392.807 660.557 C 395.949 669.955, 398.162 673.661, 401.557 675.208 C 405.108 676.826, 405.477 675.762, 403.639 669.212 C 402.738 665.998, 402.046 661.823, 402.102 659.934 L 402.204 656.500 403.212 660 C 408.535 678.476, 410.994 681.236, 411.008 668.750 C 411.016 662.160, 412.032 650.333, 413.543 639.249 C 414.073 635.363, 413.902 634.913, 411.561 634.023 C 409.977 633.421, 409 632.277, 409 631.025 C 409 629.487, 408.339 628.996, 406.250 628.982 C 404.738 628.972, 399.125 627.489, 393.778 625.687 C 385.393 622.862, 383.967 622.624, 383.410 623.956 M 631.500 624.618 C 628.200 625.828, 622.688 627.391, 619.250 628.092 C 613.349 629.296, 613 629.526, 613 632.208 C 613 634.319, 612.357 635.294, 610.500 636 C 607.852 637.007, 607.658 638.012, 608.851 644.500 L 609.587 648.500 611.442 641.750 C 612.462 638.038, 613.680 635, 614.148 635 C 615.195 635, 615.252 634.167, 613.620 642.724 C 611.254 655.128, 615.502 656.574, 622.981 645.912 C 627.289 639.770, 629.352 638.507, 626.663 643.657 C 621.251 654.024, 615.722 657.580, 611.532 653.389 C 610.051 651.909, 609.968 652.332, 610.501 658.639 C 612.244 679.279, 612.273 679.312, 616.175 665.185 C 618.186 657.904, 618.868 656.379, 618.925 659.040 C 618.966 660.987, 618.325 665.171, 617.500 668.339 C 615.601 675.631, 615.616 676, 617.826 676 C 621.518 676, 626.347 668.363, 629.432 657.643 C 630.360 654.421, 631.361 652.027, 631.657 652.324 C 632.474 653.140, 630.201 662.757, 628.033 667.659 C 625.504 673.375, 627.121 673.181, 631.438 667.250 C 637.130 659.430, 639.504 650.491, 639.474 637 C 639.441 622.116, 639.227 621.784, 631.500 624.618 M 407.103 636.083 C 407.046 637.504, 407.518 641.245, 408.151 644.397 C 409.138 649.311, 409.077 650.351, 407.728 651.700 C 405.471 653.958, 403.675 652.872, 398.370 646.041 C 393.382 639.618, 391.796 638.772, 394.483 643.967 C 400.738 656.063, 411.114 658.719, 410.939 648.179 C 410.863 643.596, 407.256 632.224, 407.103 636.083 M 416.615 635.824 C 416.389 636.196, 415.910 639.650, 415.552 643.500 C 415.194 647.350, 414.653 652.223, 414.349 654.328 L 413.798 658.156 416.649 656.660 C 421.613 654.057, 432.308 640.975, 430.749 639.415 C 429.750 638.417, 417.008 635.179, 416.615 635.824 M 599 639.603 C 596.525 640.371, 593.913 641.219, 593.195 641.489 C 590.451 642.520, 603.291 657, 606.950 657 C 608.009 657, 605.592 638.679, 604.500 638.434 C 603.950 638.310, 601.475 638.836, 599 639.603 M 430.287 645.145 C 427.405 650.253, 421.262 656.710, 416.109 660.050 C 413.721 661.597, 413.717 661.635, 413.223 685.588 C 412.951 698.782, 413.055 713.497, 413.454 718.288 C 414.328 728.777, 415.369 729.277, 422.042 722.416 C 429.701 714.540, 442.179 709.772, 448.951 712.133 C 451.859 713.147, 452.453 714.319, 452.051 718.258 C 451.927 719.469, 453.293 720.625, 456.436 721.972 C 460.285 723.623, 461.002 724.365, 461.015 726.714 C 461.038 730.861, 462.002 731.675, 467.500 732.192 C 473.132 732.723, 479.564 735.421, 480.402 737.606 C 480.709 738.405, 480.293 741.616, 479.479 744.742 C 477.453 752.520, 478.529 753.655, 486.381 752.025 C 489.471 751.383, 492.635 750.223, 493.412 749.445 C 495.337 747.520, 499.446 729.622, 503.571 705.194 C 508.121 678.248, 508.125 678.366, 502.750 676.983 C 495.500 675.118, 488.849 672.818, 489.326 672.341 C 489.576 672.090, 494.443 672.771, 500.141 673.852 C 505.838 674.934, 514.672 676.375, 519.772 677.055 C 530.121 678.434, 531.165 679.394, 522.016 679.120 C 518.707 679.021, 516.001 679.065, 516.002 679.220 C 516.006 679.797, 520.855 707.762, 522.076 714.250 C 523.482 721.722, 524.072 722.091, 529.991 719.197 C 532.506 717.967, 533.625 716.666, 533.992 714.544 C 534.413 712.118, 535.391 711.236, 539.535 709.549 C 549.666 705.424, 553 702.348, 553.004 697.117 C 553.015 682.595, 570.046 678.006, 580.785 689.631 C 583.155 692.197, 584.547 692.982, 585.785 692.450 C 595.554 688.253, 600.194 688.285, 606.542 692.593 L 610.286 695.134 609.674 686.817 C 609.338 682.243, 608.771 674.412, 608.415 669.415 C 607.769 660.350, 607.760 660.326, 604.363 658.496 C 600.950 656.658, 593.821 649.552, 590.978 645.155 L 589.462 642.810 576.981 645.358 C 533.920 654.150, 498.114 653.623, 451.500 643.509 C 431.517 639.174, 433.754 639.002, 430.287 645.145 M 509.557 683.690 C 508.683 690.900, 504.038 720.171, 503.359 722.750 C 502.776 724.964, 502.916 725, 511.995 725 L 521.223 725 520.470 721.250 C 520.057 719.188, 518.289 708.950, 516.542 698.501 C 514.028 683.461, 513.030 679.437, 511.753 679.191 C 510.510 678.952, 510.007 679.982, 509.557 683.690 M 559.538 688.250 C 556.588 690.829, 555.068 695.380, 555.960 698.963 C 556.663 701.788, 567.192 705.208, 569.152 703.248 C 571.087 701.313, 571.782 695.386, 570.445 692.208 C 568.982 688.728, 569.991 687.754, 574.154 688.631 C 576.492 689.124, 576.491 689.120, 574 687.598 C 570.101 685.216, 562.623 685.553, 559.538 688.250 M 573.591 693.507 C 574.962 698.969, 573.170 702.804, 566.036 709.675 C 554.788 720.510, 553.280 727.522, 560.781 734.117 L 564.500 737.388 565.075 731.444 C 565.551 726.528, 566.484 724.247, 570.467 718.258 C 573.181 714.177, 575.839 708.721, 576.556 705.758 C 577.503 701.849, 577.840 701.270, 577.871 703.500 C 577.929 707.735, 575.986 712.526, 571.291 719.726 C 564.633 729.937, 564.771 735.915, 571.773 740.629 C 579.294 745.691, 589.318 744.065, 592.547 737.260 C 595.052 731.980, 594.057 723.332, 589.718 712.690 C 585.734 702.917, 585.699 701.924, 589.574 708.536 C 594.957 717.721, 597.395 730.201, 595.025 736.435 C 593.849 739.527, 596.237 739.963, 600.961 737.520 C 607.760 734.004, 609.967 725.952, 606.443 717.519 C 603.471 710.405, 590.552 698.798, 579.290 693.122 C 573.802 690.356, 572.817 690.422, 573.591 693.507 M 590.250 693.165 C 587.193 694.715, 587.281 694.863, 594.320 700.080 C 597.719 702.600, 602.300 706.879, 604.500 709.591 C 608.284 714.255, 609.095 714.710, 619.500 718.006 C 631.093 721.679, 640.309 725.660, 645.077 729.054 L 647.939 731.093 648.578 728.543 C 649.175 726.168, 652.418 722.853, 656.455 720.493 C 657.939 719.625, 658.006 719.107, 656.935 716.757 C 653.396 708.989, 641.945 708.783, 635.772 716.375 C 633.664 718.968, 633.172 716.298, 635.169 713.101 C 636.069 711.660, 636.045 710.524, 635.068 708.164 C 631.668 699.955, 619.497 699.178, 613.255 706.769 L 611.010 709.500 611.005 706.718 C 610.987 696.387, 599.145 688.654, 590.250 693.165 M 552.500 705.190 C 551.400 705.812, 549.242 707.361, 547.705 708.634 C 546.167 709.906, 543.130 711.427, 540.955 712.012 C 537.799 712.862, 537 713.543, 537 715.384 C 537 718.255, 534.876 720.155, 528.619 722.879 C 523.749 724.998, 523.739 725.014, 524.278 729.038 C 524.902 733.687, 524.107 734.455, 515 738.011 C 511.975 739.192, 507.953 741.335, 506.062 742.773 L 502.623 745.389 505.562 746.184 C 507.178 746.621, 512.775 747.255, 518 747.592 C 523.225 747.930, 529.525 748.768, 532 749.454 C 534.479 750.142, 539.249 750.495, 542.622 750.240 C 551.989 749.533, 552.472 752.679, 544.043 759.500 C 537.977 764.408, 537.921 764.807, 543.241 765.193 C 548.723 765.590, 549.257 767.853, 545.092 773.036 C 539.528 779.959, 541.672 780.694, 553.793 776.019 C 564.280 771.975, 570.061 771.024, 583.267 771.169 C 596.450 771.313, 599.527 770.403, 610.207 763.201 C 624.716 753.416, 631.292 751.142, 648 750.134 C 657.943 749.534, 658.517 749.379, 658.823 747.224 C 659.048 745.641, 658.154 744.118, 655.889 742.224 C 654.098 740.726, 650.353 737.419, 647.566 734.875 C 641.521 729.357, 637.203 727.076, 624.250 722.560 C 608.459 717.055, 609.928 716.934, 610.571 723.685 C 611.468 733.101, 606.234 740.061, 597.138 741.545 C 595.137 741.871, 591.864 743.007, 589.864 744.069 C 584.938 746.685, 576.590 746.647, 571.984 743.989 C 570.068 742.882, 566.685 741.140, 564.466 740.117 C 554.015 735.297, 550.912 725.260, 556.937 715.760 C 558.553 713.213, 561.028 710.373, 562.437 709.449 C 566.090 707.056, 565.664 706.308, 559.951 705.083 C 554.026 703.812, 554.964 703.799, 552.500 705.190 M 436.817 715.580 C 433.639 716.558, 429.917 719.056, 425.234 723.353 C 418.851 729.211, 417.897 729.737, 412.487 730.373 C 405.316 731.215, 401.099 733.699, 398.259 738.753 C 395.168 744.253, 393.326 745.572, 386 747.536 C 376.435 750.100, 367.622 754.528, 364.101 758.538 C 361.376 761.641, 361 762.791, 361 768.020 C 361 771.293, 360.459 775.992, 359.799 778.462 C 358.335 783.934, 359.558 788.500, 362.487 788.500 C 364.394 788.500, 364.867 787.454, 366.490 779.664 C 368.156 771.670, 378.025 769.545, 390.270 774.543 C 400.251 778.617, 410.866 778.668, 421.500 774.693 C 425.367 773.248, 425.517 773.021, 426 767.856 L 426.500 762.513 431.668 760.661 C 435.512 759.283, 437.138 758.082, 438.010 755.976 C 439.473 752.445, 439.945 752.271, 450.405 751.422 L 458.947 750.729 460.040 753.604 C 460.641 755.185, 460.854 757.966, 460.513 759.783 C 459.761 763.793, 460.647 767, 462.508 767 C 464.666 767, 465.127 765.508, 465.836 756.239 L 466.500 747.567 472 743.736 C 475.025 741.628, 477.629 739.537, 477.788 739.089 C 478.209 737.897, 472.460 735.741, 465.539 734.496 C 459.500 733.409, 459.500 733.409, 459.186 729.642 C 458.902 726.242, 458.438 725.688, 454.436 723.973 C 450.230 722.170, 449.525 721.260, 449.942 718.176 C 450.499 714.066, 445.165 713.012, 436.817 715.580 M 658.542 722.729 C 655.220 723.573, 651.968 726.162, 650.386 729.220 C 648.591 732.691, 649.004 733.364, 656.135 738.599 C 661.708 742.690, 663.076 746.059, 660.786 750.049 C 659.887 751.616, 659.588 753.299, 660.059 754.141 C 661.317 756.390, 662.326 812.534, 661.260 821 C 660.740 825.125, 660.519 831.497, 660.768 835.159 L 661.221 841.819 664.111 840.812 C 665.700 840.258, 667.026 839.286, 667.057 838.652 C 667.088 838.018, 667.263 834.350, 667.447 830.500 C 667.630 826.650, 668.504 821.531, 669.390 819.124 C 671.245 814.084, 671.492 805.069, 669.914 799.993 C 668.826 796.492, 668.294 785.337, 668 759.865 C 667.861 747.841, 668.088 745.748, 669.921 742.155 C 674.017 734.126, 672.107 726.196, 665.401 723.394 C 661.919 721.939, 661.726 721.921, 658.542 722.729 M 502.689 727.750 C 502.453 728.163, 501.474 732.100, 500.514 736.500 C 498.383 746.262, 496.311 751.667, 494.422 752.391 C 493.378 752.792, 493 754.816, 493 760.001 C 493 763.907, 492.352 768.614, 491.551 770.532 L 490.102 774 494.512 774 C 498.854 774, 498.941 773.934, 500.074 769.750 C 500.763 767.206, 501.048 761.158, 500.785 754.681 L 500.345 743.861 503.741 741.062 C 505.610 739.522, 510.254 737.039, 514.063 735.545 C 521.696 732.550, 522.423 731.909, 521.497 728.991 C 520.929 727.200, 519.974 727, 511.992 727 C 507.111 727, 502.925 727.337, 502.689 727.750 M 551.040 737.104 C 550.949 740.739, 559.835 747.123, 564.718 746.930 C 565.698 746.891, 564.855 746.254, 562.845 745.515 C 557.596 743.584, 554.123 741.098, 552.497 738.107 C 551.585 736.429, 551.066 736.072, 551.040 737.104 M 422.483 741.389 C 419.881 743.292, 419.168 753.025, 421.463 755.320 C 423.783 757.640, 426.591 757.421, 428.443 754.777 C 432.361 749.185, 427.317 737.854, 422.483 741.389 M 423.075 745.315 C 421.191 750.250, 422.601 755.474, 425.515 754.356 C 427.447 753.615, 427.486 747.044, 425.575 744.441 C 424.200 742.569, 424.111 742.600, 423.075 745.315 M 472.893 746.541 C 469.014 749.022, 468.033 751.938, 468.011 761.059 C 467.999 766.043, 466.658 768.455, 463.355 769.433 C 459.686 770.519, 458 767.684, 458 760.429 L 458 754 454.140 754 C 445.279 754, 441.003 755.140, 440.367 757.673 C 439.750 760.132, 436.606 762.214, 431.750 763.379 C 429.280 763.971, 429 764.475, 429 768.328 C 429 773.547, 427.648 775.416, 422.750 776.967 C 419.329 778.051, 419 778.472, 419 781.763 C 419 784.076, 419.770 786.191, 421.144 787.654 C 422.390 788.979, 423.632 792.106, 424.107 795.112 C 425.013 800.847, 429.167 808, 431.590 808 C 432.448 808, 436.189 804.895, 439.902 801.100 C 444.476 796.425, 448.923 793.057, 453.691 790.656 C 457.562 788.706, 464.083 784.446, 468.182 781.188 C 472.282 777.931, 476.588 774.756, 477.752 774.133 C 480.301 772.769, 479.961 769.158, 476.876 764.826 C 475.144 762.393, 475.011 761.498, 475.955 758.635 C 476.715 756.335, 476.746 754.461, 476.055 752.644 C 475.382 750.875, 475.381 749.127, 476.053 747.361 C 477.374 743.886, 477.140 743.825, 472.893 746.541 M 597.287 746.571 C 593.870 747.859, 587.795 749.357, 583.787 749.899 L 576.500 750.885 584.520 750.621 C 591.897 750.379, 604 746.610, 604 744.555 C 604 744.250, 603.888 744.051, 603.750 744.114 C 603.612 744.177, 600.704 745.282, 597.287 746.571 M 503.843 755.553 C 504.257 763.763, 501.949 776.174, 498.884 782.210 C 495.769 788.346, 496.280 789.781, 502.616 792.682 C 507.398 794.871, 509.954 795.305, 519.824 795.602 C 529.565 795.895, 532.181 796.330, 536.213 798.325 L 541.010 800.699 542.151 796.892 C 543.334 792.942, 541.753 781.583, 539.857 780.412 C 538.247 779.417, 539.054 776.503, 542.028 772.572 C 545.918 767.431, 545.836 767.163, 540.259 766.805 C 533.466 766.368, 533.661 764.361, 541.057 758.617 C 544.430 755.998, 546.892 753.559, 546.530 753.197 C 546.168 752.834, 542.863 752.481, 539.186 752.411 C 531.732 752.269, 505.573 749.472, 504.292 748.680 C 503.840 748.401, 503.638 751.494, 503.843 755.553 M 644 752.720 C 631.592 754.136, 623.273 757.463, 610.549 766.096 C 600.483 772.926, 596.428 773.997, 580.591 774.013 C 568.500 774.026, 566.851 774.262, 559 777.103 C 554.325 778.795, 549.018 780.477, 547.207 780.840 C 543.437 781.596, 543.516 781.337, 544.943 788.264 C 546.109 793.926, 545.703 796.189, 541.969 804.859 C 539.693 810.142, 539.685 810.291, 541.406 815.359 L 543.152 820.500 556.172 820.169 C 570.444 819.805, 574.328 818.986, 587.022 813.657 C 594.231 810.631, 597.340 809.937, 607.207 809.148 C 618.236 808.267, 619.470 807.938, 629.863 803.108 C 635.909 800.299, 641.089 798, 641.375 798 C 641.661 798, 645.744 796.607, 650.448 794.905 L 659 791.811 659 775.555 C 659 751.772, 658.533 751.061, 644 752.720 M 488 754.657 C 479.790 755.805, 479.223 756.055, 478.706 758.756 C 478.408 760.317, 478.890 762.742, 479.844 764.482 C 480.755 766.142, 481.725 768.850, 482 770.500 C 482.701 774.705, 486.354 775.176, 488.302 771.312 C 491.246 765.471, 491.042 754.232, 488 754.657 M 406 757.706 C 403.156 758.746, 400 762.354, 400 764.566 C 400 767.792, 404.537 768.734, 407.927 766.211 C 414 761.690, 412.555 755.310, 406 757.706 M 403.761 762.239 C 401.666 764.334, 401.642 764.500, 403.391 764.837 C 404.438 765.038, 406.399 764.056, 407.856 762.598 C 410.432 760.023, 410.435 760, 408.227 760 C 407.002 760, 404.993 761.007, 403.761 762.239 M 373.315 775.007 C 370.653 776.080, 369.397 778.288, 368.477 783.518 C 368.091 785.708, 367.133 788.524, 366.348 789.776 C 365.340 791.382, 365.005 794.440, 365.210 800.172 C 365.583 810.604, 367.002 811.911, 379.166 813.033 C 385.522 813.619, 389.385 814.663, 395.444 817.432 C 404.572 821.604, 413.189 823.119, 423.076 822.290 L 430 821.710 430 817.114 C 430 813.458, 429.252 811.431, 426.342 807.207 C 424.023 803.839, 422.396 800.071, 421.896 796.906 C 421.422 793.907, 420.089 790.705, 418.554 788.881 C 417.033 787.074, 416 784.609, 416 782.785 L 416 779.724 408.556 780.399 C 401.727 781.018, 400.238 780.781, 390.541 777.537 C 379.624 773.884, 377.043 773.505, 373.315 775.007 M 524.701 774.632 C 523.416 775.917, 523.972 777.268, 525.324 776.146 C 526.293 775.342, 526.996 775.376, 527.949 776.274 C 528.987 777.252, 529.157 777.197, 528.792 776 C 528.289 774.353, 525.810 773.524, 524.701 774.632 M 474.500 779.512 C 471.750 781.600, 468.193 784.393, 466.596 785.719 C 464.999 787.045, 460.566 789.704, 456.745 791.628 C 449.611 795.221, 432.169 810.424, 432.839 812.466 C 433.025 813.035, 433.163 815.671, 433.146 818.325 C 433.122 821.916, 433.419 822.915, 434.307 822.228 C 446.276 812.971, 458.650 802.565, 463 798.096 C 466.025 794.989, 471.130 790.209, 474.343 787.473 C 479.625 782.978, 480.154 782.174, 479.843 779.108 L 479.500 775.717 474.500 779.512 M 483.212 786.250 L 483.500 795.500 488 795.598 C 494.383 795.737, 494.862 795.402, 494.310 791.183 C 493.992 788.755, 494.539 785.854, 495.914 782.667 C 497.061 780.009, 498 777.646, 498 777.417 C 498 777.188, 494.608 777, 490.462 777 L 482.925 777 483.212 786.250 M 446 780 C 446 780.550, 446.675 781, 447.500 781 C 448.325 781, 449 781.450, 449 782 C 449 782.550, 449.466 783, 450.035 783 C 450.737 783, 450.726 782.356, 450 781 C 448.899 778.942, 446 778.218, 446 780 M 434.040 784.452 C 432.434 786.387, 433.674 790, 435.945 790 C 438.475 790, 440.289 787.485, 439.515 785.048 C 438.761 782.672, 435.786 782.348, 434.040 784.452 M 434.380 785.452 C 433.668 787.308, 434.707 789, 436.559 789 C 437.429 789, 438 788.010, 438 786.500 C 438 783.752, 435.329 782.979, 434.380 785.452 M 475 790.683 C 472.525 792.572, 467.125 797.389, 463 801.388 C 455.616 808.546, 441.979 820.014, 436.911 823.327 C 433.521 825.543, 433.052 835.397, 436.099 840.396 C 437.140 842.103, 438.254 845.525, 438.575 848 L 439.159 852.500 450.330 841.477 C 456.473 835.415, 466.563 825.596, 472.750 819.659 C 484.910 807.989, 485.357 807.089, 482.400 800.218 C 481.520 798.173, 480.508 794.418, 480.150 791.874 L 479.500 787.249 475 790.683 M 608.040 790.452 C 607.377 791.251, 606.989 792.713, 607.178 793.702 C 607.645 796.152, 612.041 796.664, 613.655 794.457 C 616.349 790.773, 610.962 786.931, 608.040 790.452 M 608.992 791.509 C 608.048 792.647, 607.988 793.388, 608.775 794.175 C 610.292 795.692, 613.217 794.363, 612.824 792.336 C 612.375 790.020, 610.554 789.627, 608.992 791.509 M 371.380 792.452 C 370.683 794.267, 371.695 796, 373.452 796 C 375.277 796, 376.096 793.496, 374.722 792.122 C 373.199 790.599, 372.048 790.712, 371.380 792.452 M 348.493 796.914 C 272.509 824.754, 276.244 864.748, 357.321 891.443 C 368.178 895.018, 371.564 895.769, 373.107 894.943 C 374.187 894.365, 379.782 893.273, 385.539 892.518 C 392.216 891.641, 398.041 890.212, 401.624 888.572 C 409.301 885.057, 409.705 885.177, 411.551 891.529 C 412.592 895.110, 414.012 897.617, 415.579 898.644 C 417.325 899.788, 418 901.144, 418 903.507 C 418 907.543, 417.712 907.457, 439.819 909.964 C 543.772 921.753, 656.215 905.987, 706.416 872.585 C 743.325 848.026, 732.269 819.134, 678.181 798.804 C 671.947 796.461, 671.726 796.557, 673.017 801.060 C 674.312 805.573, 674.261 811.079, 672.874 816.587 C 671.749 821.053, 671.753 821.066, 675.894 825.247 C 690.095 839.591, 677.468 854.394, 640.723 866.478 C 619.171 873.565, 591.223 878.771, 562.100 881.123 L 547.500 882.302 547.500 887.570 C 547.500 893.515, 545.260 896.780, 539 899.961 C 537.075 900.939, 534.150 902.444, 532.500 903.306 C 528.516 905.386, 506.263 905.007, 500.953 902.768 C 494.264 899.947, 489.794 891.941, 491.380 885.621 C 492.147 882.567, 490.335 882.032, 479.154 882.014 C 472.258 882.002, 470.295 882.366, 467.852 884.106 C 465.734 885.614, 464.058 886.040, 461.947 885.606 C 460.326 885.273, 457.615 884.719, 455.922 884.375 C 454.142 884.014, 452.427 882.836, 451.856 881.584 C 450.995 879.695, 449.519 879.258, 440.292 878.162 C 386.607 871.785, 346.296 856.546, 341.047 840.642 C 338.317 832.371, 344.156 823.568, 356.250 817.719 C 359.760 816.022, 362.046 814.268, 362.117 813.219 C 362.277 810.868, 361.876 792.543, 361.660 792.327 C 361.565 792.231, 355.639 794.295, 348.493 796.914 M 497.488 797.269 C 497.850 799.596, 498.357 802.250, 498.614 803.166 C 499.261 805.470, 503.998 806.965, 514.039 808.032 C 522.223 808.902, 526.147 809.945, 534.148 813.377 L 537.797 814.942 537.776 811.221 C 537.765 809.174, 538.069 806.362, 538.452 804.971 C 539.595 800.821, 534.129 798.880, 519 798.064 C 509.360 797.544, 505.394 796.892, 501.665 795.213 L 496.831 793.038 497.488 797.269 M 645.500 799.411 C 639.450 801.732, 632.519 804.658, 630.097 805.914 C 622.415 809.897, 617.787 811.071, 606.412 811.922 C 596.662 812.651, 594.160 813.249, 585.662 816.880 C 574.746 821.544, 567.062 822.951, 552.367 822.980 C 541.157 823.002, 540.664 823.358, 541.736 830.648 L 542.155 833.500 559.828 833.748 C 579.618 834.026, 583.397 833.344, 595.080 827.391 C 600.790 824.481, 603.814 823.689, 613.529 822.559 C 624.195 821.318, 625.901 820.814, 634.324 816.420 C 639.371 813.786, 646.875 810.688, 651 809.535 L 658.500 807.437 658.798 801.219 C 659.154 793.771, 659.926 793.876, 645.500 799.411 M 485.503 799.750 C 485.898 800.712, 486.440 803.300, 486.709 805.500 C 487.195 809.490, 487.165 809.530, 474.848 821.463 C 468.057 828.042, 456.722 839.213, 449.660 846.285 L 436.821 859.145 419.571 857.037 C 397.875 854.385, 370.226 847.661, 365.391 843.861 C 364.766 843.370, 363.971 837.657, 363.567 830.754 C 363.173 824.024, 362.674 818.341, 362.458 818.124 C 361.750 817.416, 356.121 820.164, 351.391 823.527 C 329.330 839.212, 350.950 857.796, 405 869.608 C 414.853 871.761, 447.173 876.992, 450.661 876.998 C 451.299 876.999, 452.809 874.960, 454.016 872.466 C 455.879 868.619, 456.536 868.037, 458.356 868.627 C 459.535 869.009, 462.399 869.229, 464.720 869.116 C 469.256 868.896, 468.849 868.384, 470.482 876.354 C 470.915 878.463, 471.667 878.774, 477.732 879.347 C 491.794 880.675, 492.502 880.525, 495.377 875.619 C 500.619 866.676, 520.445 851.303, 523.947 853.467 C 524.526 853.825, 525 855.731, 525 857.702 C 525 860.655, 525.855 862.140, 529.857 866.143 C 536.086 872.372, 539.799 872.441, 535.461 866.248 C 534.076 864.270, 534.076 863.754, 535.461 861.075 C 538.632 854.944, 537.493 853.087, 529.033 850.592 C 526.027 849.705, 521.943 847.905, 519.959 846.592 C 517.975 845.279, 512.898 842.767, 508.678 841.010 C 497.827 836.492, 496.278 834.129, 498.041 824.782 C 499.404 817.561, 499.297 816.534, 495.763 802.750 L 494.545 798 489.666 798 C 485.412 798, 484.878 798.224, 485.503 799.750 M 560.336 800.567 C 559.502 802.739, 561.618 804.782, 563.133 803.267 C 564.413 801.987, 563.620 799, 562 799 C 561.415 799, 560.667 799.705, 560.336 800.567 M 500.743 810.800 C 501.720 814.286, 501.667 821.256, 500.619 827.191 C 499.579 833.078, 501.757 835.648, 510.563 838.927 C 513.828 840.143, 518.525 842.417, 521 843.979 C 523.475 845.541, 527.075 847.261, 529 847.801 C 530.925 848.341, 533.288 849.105, 534.250 849.499 C 535.678 850.082, 536 849.683, 536 847.329 C 536 845.743, 536.759 843.362, 537.686 842.038 C 538.993 840.173, 539.393 837.243, 539.464 829.013 L 539.557 818.394 531.029 815.079 C 525.594 812.965, 519.417 811.430, 514 810.846 C 509.325 810.341, 504.260 809.517, 502.743 809.014 C 500.098 808.136, 500.017 808.209, 500.743 810.800 M 334 810.408 C 332.625 811.154, 330.197 812.154, 328.604 812.632 C 319.136 815.470, 325.486 824.487, 336.148 823.346 C 344.081 822.497, 346.736 816.645, 341.545 811.455 C 338.755 808.664, 337.531 808.494, 334 810.408 M 651.314 811.980 C 647.911 812.985, 642.286 815.271, 638.814 817.060 C 635.341 818.850, 631.281 820.942, 629.790 821.710 C 627.197 823.046, 624.580 823.560, 608.226 825.942 C 603.364 826.650, 598.390 828.286, 593.226 830.874 C 582.422 836.290, 577.079 837.217, 561.377 836.403 C 544.653 835.536, 543.937 835.728, 541.057 841.879 C 539.127 845.999, 538.860 847.722, 539.436 852.334 C 539.961 856.535, 539.735 858.612, 538.490 861.019 C 537.002 863.897, 536.996 864.338, 538.427 865.920 C 539.292 866.875, 540 868.860, 540 870.329 C 540 871.798, 540.438 873, 540.973 873 C 545.108 873, 580.950 866.108, 595.627 862.491 C 610.311 858.872, 656.200 844.296, 657.412 842.865 C 658.122 842.029, 658.943 810.006, 658.253 810.076 C 657.839 810.118, 654.716 810.975, 651.314 811.980 M 334.493 813.430 C 333.397 814.259, 331.289 814.951, 329.809 814.968 C 328.329 814.986, 326.841 815.448, 326.503 815.996 C 325.542 817.549, 331.101 822.193, 332.935 821.369 C 333.796 820.983, 335.734 820.723, 337.241 820.792 C 339.347 820.889, 340.121 820.367, 340.580 818.538 C 341.971 812.995, 338.701 810.250, 334.493 813.430 M 365.015 815.750 C 365.038 821.288, 365.820 821.922, 376.620 825.161 C 400.671 832.372, 404.160 833.088, 418.250 833.700 L 432 834.297 432 831.230 C 432 825.110, 431.789 825, 419.982 825 C 408.641 825, 404.007 823.961, 391.500 818.613 C 387.580 816.937, 383.594 816.032, 380 816.002 C 376.746 815.975, 372.720 815.148, 370.141 813.978 C 364.634 811.479, 364.997 811.353, 365.015 815.750 M 519.510 818.984 C 518.773 820.177, 519.709 822, 521.059 822 C 522.276 822, 522.284 819.293, 521.069 818.543 C 520.557 818.226, 519.856 818.425, 519.510 818.984 M 483.447 823.059 C 481.008 825.754, 482.534 828.383, 486.784 828.808 C 490.808 829.211, 492.635 826.351, 490.396 823.155 C 488.494 820.440, 485.850 820.404, 483.447 823.059 M 486 824 C 484.819 824.730, 484.770 825.170, 485.758 826.158 C 486.724 827.124, 487.267 827.133, 488.200 826.200 C 489.822 824.578, 488.005 822.761, 486 824 M 669.789 832.743 L 669.500 841.486 662 844.159 C 613.900 861.302, 594.396 866.741, 561.552 872.169 L 542.024 875.396 544.223 877.738 C 546.251 879.896, 546.974 880.033, 553.462 879.484 C 601.383 875.430, 636.333 867.750, 660.428 855.978 C 678.371 847.212, 683.429 837.253, 674.882 827.518 C 670.508 822.537, 670.113 822.942, 669.789 832.743 M 366.058 829.633 C 366.198 841.479, 366.425 841.815, 376.500 845.091 C 393.001 850.458, 422.745 856, 435.046 856 C 437.115 856, 435.717 844.896, 433.118 840.692 C 430.925 837.143, 430.617 836.999, 425.168 836.983 C 413.122 836.946, 400.973 834.933, 385.449 830.404 C 376.677 827.844, 368.712 825.529, 367.750 825.258 C 366.251 824.837, 366.008 825.464, 366.058 829.633 M 525.739 827.126 C 523.590 828.329, 523.484 831.327, 525.531 833.026 C 526.797 834.077, 527.311 833.968, 528.499 832.398 C 531.149 828.898, 529.206 825.186, 525.739 827.126 M 525.676 829.402 C 525.111 830.874, 525.758 832, 527.167 832 C 527.625 832, 528 831.100, 528 830 C 528 827.707, 526.477 827.315, 525.676 829.402 M 324.631 836.702 C 324.245 837.088, 322.383 837.300, 320.494 837.173 C 312.766 836.652, 310.777 843.424, 316.902 849.404 C 320.671 853.085, 320.976 853.191, 325.834 852.523 C 331.346 851.765, 333 849.452, 333 842.506 C 333 837.807, 327.406 833.927, 324.631 836.702 M 604.336 837.567 C 603.502 839.739, 605.618 841.782, 607.133 840.267 C 608.413 838.987, 607.620 836, 606 836 C 605.415 836, 604.667 836.705, 604.336 837.567 M 321.500 839.719 C 316.796 840.169, 314.593 842.370, 316.074 845.138 C 316.622 846.162, 317.681 847, 318.428 847 C 319.175 847, 320.045 847.675, 320.362 848.500 C 320.741 849.488, 322.306 850, 324.950 850 C 328.514 850, 329.029 849.693, 329.564 847.250 C 329.896 845.737, 330.362 843.880, 330.601 843.123 C 331.182 841.277, 329.147 838.960, 327.128 839.168 C 326.232 839.261, 323.700 839.509, 321.500 839.719 M 489.135 840.938 C 484.120 843.503, 483.402 845.493, 486.406 848.497 C 490.826 852.917, 500.051 851.626, 502.074 846.304 C 504.471 840.002, 497.012 836.909, 489.135 840.938 M 491.134 843.079 C 485.669 845.504, 486.829 848, 493.422 848 C 497.862 848, 500 846.670, 500 843.907 C 500 840.657, 497.184 840.394, 491.134 843.079 M 516.409 858.949 C 509.500 862.898, 499.634 872.814, 496.540 878.921 C 490.107 891.615, 496.530 902, 510.816 902 C 516.968 902, 516.837 902.445, 512.559 896.088 C 507.349 888.346, 506.718 879.745, 510.639 869.943 C 512.757 864.650, 513.452 865.468, 511.511 870.970 C 505.417 888.240, 517 907.205, 530.258 901.666 C 537.366 898.696, 536.802 893.006, 528.486 883.795 C 523.262 878.010, 520.017 871.903, 520.092 868 C 520.126 866.220, 520.539 866.795, 521.529 870 C 522.318 872.553, 525.147 877.096, 528.069 880.500 C 534.887 888.445, 536.992 891.928, 536.996 895.276 C 537 898.032, 537.021 898.040, 539.970 896.515 C 543.718 894.578, 545 892.188, 545 887.142 C 545 882.225, 542.084 878.490, 533.912 872.940 C 527.342 868.479, 523.561 864.014, 522.335 859.270 L 521.500 856.040 516.409 858.949 M 295 857.681 C 295 859.891, 303.007 870.796, 308.224 875.691 C 317.493 884.389, 332.607 893.289, 349.509 900.004 L 357.060 903.003 362.130 900.434 C 364.918 899.022, 367.042 897.720, 366.849 897.543 C 366.657 897.365, 361.775 895.643, 356 893.716 C 328.457 884.526, 307.483 872.694, 298.663 861.374 C 296.649 858.788, 295 857.126, 295 857.681 M 724.176 860.448 C 716.302 871.940, 692.062 885.655, 662.500 895.345 C 599.785 915.902, 504.443 922.188, 426.705 910.890 C 422.418 910.267, 418.699 909.968, 418.441 910.226 C 417.588 911.078, 422.011 915.869, 424.276 916.547 C 425.499 916.913, 427.175 918.026, 428 919.020 C 432.749 924.742, 523.130 928.073, 563.500 924.014 C 645.442 915.775, 708.766 891.732, 724.458 862.900 C 727.644 857.045, 727.481 855.624, 724.176 860.448 M 455.412 875.196 C 453.398 879.660, 454.085 882, 457.410 882 C 458.769 882, 460.160 882.450, 460.500 883 C 461.431 884.507, 463.523 884.207, 465.983 882.215 C 467.894 880.668, 468.097 879.826, 467.507 875.894 L 466.827 871.358 461.953 871.429 C 457.327 871.496, 456.995 871.687, 455.412 875.196 M 254.287 881.413 C 240.058 886.700, 238.933 892.431, 250.932 898.503 C 255.629 900.880, 268.896 900.187, 270.463 897.482 C 271.033 896.497, 272.738 894.239, 274.250 892.464 C 275.762 890.688, 277 888.578, 277 887.773 C 277 886.209, 273.950 883.015, 272.421 882.978 C 271.915 882.966, 270.375 882.076, 269 881 C 265.755 878.462, 261.940 878.569, 254.287 881.413 M 254.621 883.956 C 243.539 887.956, 242.714 889.661, 249.385 894.784 C 251.788 896.630, 253.555 897, 259.967 897 L 267.665 897 270.833 893.059 C 274.629 888.335, 274.832 886.247, 271.574 885.429 C 270.239 885.094, 268.369 883.961, 267.419 882.910 C 265.191 880.448, 264.089 880.538, 254.621 883.956 M 431.930 889.584 C 430.041 891.860, 432.010 894.500, 435.595 894.500 C 437.570 894.500, 438.581 893.936, 438.819 892.702 C 439.586 888.718, 434.544 886.435, 431.930 889.584 M 559 889.240 C 553.364 892.193, 556.882 898.455, 564.177 898.455 C 572.656 898.455, 573.375 889.669, 564.997 888.443 C 563.038 888.156, 560.400 888.507, 559 889.240 M 705.876 892.232 C 704.140 895.475, 704.214 902.644, 706 904.416 C 707.593 905.996, 716.975 907.289, 754.721 911.132 L 775.942 913.293 777.844 910.944 C 779.646 908.719, 779.958 908.666, 783.784 909.929 C 789.516 911.820, 792.580 910.743, 795.008 905.984 C 796.691 902.685, 797.553 902, 800.020 902 C 802.223 902, 803 901.531, 803 900.200 C 803 893.379, 792.773 895.402, 790.577 902.658 C 789.191 907.238, 781.060 906.462, 778.113 901.468 C 776.491 898.718, 775.408 898.056, 771.827 897.626 C 769.447 897.341, 755.125 895.500, 740 893.537 C 707.445 889.310, 707.440 889.310, 705.876 892.232 M 298.625 892.518 C 296.616 894.527, 296.554 896.385, 298.445 897.954 C 301.872 900.799, 307.666 896.876, 305.393 893.250 C 303.912 890.888, 300.611 890.531, 298.625 892.518 M 399.050 892.666 C 397.152 893.493, 391.322 894.607, 386.095 895.142 C 367.556 897.038, 334.511 917.196, 332.367 927.916 C 331.931 930.094, 330.808 931.474, 328.622 932.518 C 326.905 933.337, 324.736 935.352, 323.801 936.996 C 322.867 938.639, 320.491 940.752, 318.522 941.691 C 314.967 943.386, 314.958 943.407, 317.221 944.630 C 318.474 945.308, 321.750 946.172, 324.500 946.550 C 327.250 946.928, 331.075 948.022, 333 948.980 C 334.925 949.939, 339.595 951.029, 343.377 951.402 C 347.160 951.776, 352.915 953.202, 356.167 954.570 C 360.528 956.406, 364.627 957.204, 371.790 957.613 C 377.130 957.917, 382.722 958.550, 384.217 959.020 C 386.759 959.818, 386.976 959.646, 387.595 956.344 C 388.337 952.392, 387.523 942.094, 385.866 934.450 C 384.852 929.770, 384.972 929.017, 387.511 924.162 C 389.905 919.582, 390.170 918.206, 389.616 913.212 C 388.841 906.216, 390.784 902.421, 397.214 898.371 C 405.411 893.209, 406.651 889.355, 399.050 892.666 M 404.378 895.317 C 402.111 897.618, 398.390 901.125, 396.108 903.110 L 391.958 906.720 392.223 913.610 C 392.437 919.207, 392.047 921.362, 390.145 925.093 L 387.803 929.685 389.436 939.275 C 390.486 945.436, 390.846 951.122, 390.444 955.182 L 389.818 961.500 393.712 965.261 L 397.607 969.022 399.891 965.933 C 401.148 964.234, 403.996 962.070, 406.221 961.125 C 409.521 959.724, 410.565 958.586, 411.883 954.954 C 413.149 951.468, 414.370 950.067, 417.502 948.509 L 421.503 946.518 421.502 940.009 C 421.500 934.709, 421.942 932.912, 423.877 930.333 C 427.085 926.058, 426.270 921.181, 421.918 918.611 C 417.692 916.114, 415.008 911.337, 415.004 906.302 C 415.001 903.284, 414.339 901.390, 412.649 899.566 C 411.356 898.171, 409.893 895.703, 409.399 894.081 L 408.500 891.133 404.378 895.317 M 559.152 892.317 C 557.434 894.387, 560.060 896.214, 564.185 895.818 C 566.727 895.574, 567.500 895.034, 567.500 893.500 C 567.500 890.985, 561.019 890.067, 559.152 892.317 M 711 892.696 C 711 894.389, 716.851 902.850, 718.710 903.845 C 720.157 904.619, 733.783 907, 736.769 907 C 737.112 907, 736.025 905.538, 734.355 903.750 C 732.684 901.962, 730.353 899.090, 729.174 897.367 C 727.327 894.668, 726.233 894.139, 721.265 893.543 C 718.094 893.163, 714.487 892.611, 713.250 892.317 C 712.013 892.024, 711 892.194, 711 892.696 M 300.639 893.694 C 299.444 894.889, 299.994 897, 301.500 897 C 302.325 897, 303 896.352, 303 895.559 C 303 893.888, 301.573 892.761, 300.639 893.694 M 707.593 894.619 C 705.569 899.894, 707.907 904, 712.934 904 C 715.582 904, 715.605 904.100, 711.593 898.138 C 709.116 894.458, 708.023 893.497, 707.593 894.619 M 731 896.043 C 731 896.616, 733.077 899.306, 735.615 902.019 C 740.372 907.105, 740.753 907.256, 752 908.517 L 757.500 909.134 754.911 906.317 C 753.487 904.768, 751.359 902.094, 750.182 900.375 C 748.266 897.577, 747.248 897.131, 740.480 896.125 C 731.228 894.749, 731 894.747, 731 896.043 M 752.758 900.634 C 757.421 907.124, 760.529 909.163, 766.907 909.915 C 773.723 910.718, 773.769 910.680, 771 906.500 C 769.907 904.850, 769.010 902.748, 769.007 901.829 C 768.999 900.001, 767.218 899.493, 757.100 898.437 L 750.699 897.769 752.758 900.634 M 794.115 900.580 C 792.952 902.060, 792 903.659, 792 904.135 C 792 904.611, 791.100 905.900, 790 907 C 788.900 908.100, 788.450 909, 789 909 C 790.132 909, 792.613 906.468, 795.362 902.508 C 796.641 900.667, 797.835 899.985, 799.170 900.334 C 800.379 900.650, 800.968 900.400, 800.729 899.671 C 799.962 897.342, 796.263 897.851, 794.115 900.580 M 771.736 900.598 C 771.017 901.317, 771.811 903.659, 773.860 906.857 C 775.265 909.050, 775.459 909.093, 776.642 907.475 C 778.872 904.425, 774.307 898.026, 771.736 900.598 M 280.750 903.572 C 276.928 905.645, 277.025 909.444, 280.950 911.474 C 288.487 915.372, 294.191 910.100, 288.545 904.455 C 285.726 901.635, 284.564 901.503, 280.750 903.572 M 281.058 906.430 C 280.110 907.572, 280.274 908.076, 281.870 908.930 C 286.326 911.315, 289.923 909.323, 286.800 906.200 C 285.179 904.579, 282.505 904.686, 281.058 906.430 M 370 912.500 C 370 913.325, 370.675 914, 371.500 914 C 372.325 914, 373 913.325, 373 912.500 C 373 911.675, 372.325 911, 371.500 911 C 370.675 911, 370 911.675, 370 912.500 M 350.200 922.200 C 347.404 924.996, 349.337 929.575, 353.500 930.018 C 358.147 930.512, 359 930.053, 359 927.057 C 359 922.463, 353.160 919.240, 350.200 922.200 M 350.357 924.513 C 349.556 926.600, 351.779 929, 354.515 929 C 357.171 929, 358.534 926.349, 356.895 924.373 C 355.367 922.533, 351.081 922.624, 350.357 924.513 M 411.543 934.931 C 411.226 935.443, 411.425 936.144, 411.984 936.490 C 413.177 937.227, 415 936.291, 415 934.941 C 415 933.724, 412.293 933.716, 411.543 934.931 M 372.364 939.493 C 372.018 940.396, 372.214 941.614, 372.800 942.200 C 374.324 943.724, 377.210 942.331, 376.812 940.265 C 376.369 937.963, 373.165 937.407, 372.364 939.493 M 310 945.889 C 310 950.892, 318.371 955.030, 336.370 958.924 C 341.799 960.099, 348.324 962.014, 350.870 963.181 C 353.676 964.466, 359.047 965.632, 364.500 966.141 C 369.450 966.602, 375.975 967.660, 379 968.491 C 393.512 972.480, 396.204 973.130, 396.598 972.736 C 396.831 972.502, 394.628 970.047, 391.702 967.279 C 385.691 961.594, 380.833 960.017, 369.201 959.976 C 364.332 959.959, 360.860 959.263, 356.500 957.431 C 353.200 956.044, 347.121 954.547, 342.990 954.105 C 338.860 953.662, 334.126 952.599, 332.470 951.743 C 330.814 950.887, 326.832 949.701, 323.620 949.107 C 320.408 948.513, 316.314 947.121, 314.522 946.014 C 310.498 943.527, 310 943.513, 310 945.889" stroke="none" fill="#1a1a1a" fill-rule="evenodd"/>
</svg>