<svg xmlns="http://www.w3.org/2000/svg" width="1024" height="1024" viewBox="0 0 1024 1024" version="1.1">
	<path d="M 481.500 116.709 C 447.998 119.830, 415.469 129.568, 377 147.994 C 347.674 162.041, 332.198 167.527, 316.244 169.530 C 299.240 171.664, 306.864 181.843, 326.174 182.787 L 335.848 183.260 328.174 188.716 C 300.249 208.568, 278.557 243.436, 290.113 249.896 C 293.809 251.962, 297.534 250.201, 306.102 242.338 C 309.900 238.852, 313.203 236, 313.441 236 C 313.680 236, 312.581 238.853, 311 242.339 C 304.816 255.978, 303.463 274.107, 307.970 282.942 C 310.437 287.776, 312.653 288.674, 315.505 285.995 L 317.700 283.933 318.340 292.217 C 319.130 302.425, 321.819 312.340, 326.898 323.767 C 329.847 330.402, 330.892 334.201, 331.244 339.582 L 331.709 346.663 327.604 347.765 C 321.548 349.391, 315.806 354.842, 312.415 362.187 C 309.730 368.002, 309.500 369.407, 309.500 380 C 309.500 391.162, 309.606 391.720, 313.114 399 C 315.102 403.125, 318.127 407.850, 319.836 409.500 C 322.690 412.254, 322.947 413.041, 322.972 419.114 C 322.988 422.751, 323.452 428.111, 324.005 431.025 C 325.200 437.330, 325.122 437.466, 321.399 435.524 C 319.804 434.693, 317.245 434.010, 315.710 434.006 C 314.176 434.003, 311.156 433.100, 309 432 C 296.201 425.470, 284.831 434.195, 279.508 454.631 C 274.927 472.219, 280.788 485.650, 302.750 507.895 C 310.038 515.276, 316 521.697, 316 522.163 C 316 522.629, 313.743 531.446, 310.983 541.755 C 296.633 595.377, 298.224 621.531, 316.966 640.061 L 323.601 646.621 318.551 647.820 C 306.437 650.694, 293.443 660.913, 286.098 673.342 C 275.664 690.998, 268.528 718.782, 262.365 765.744 L 259.577 786.989 256.539 787.483 C 254.867 787.755, 245.175 788.429, 235 788.981 C 224.825 789.532, 211.285 790.277, 204.912 790.635 L 193.323 791.286 192.054 781.893 C 190.616 771.250, 188.806 766, 186.577 766 C 184.065 766, 181.708 772.036, 181.207 779.748 L 180.737 786.995 176.815 783.452 C 166.943 774.533, 161.463 777.031, 168.064 787.440 C 169.749 790.097, 170.762 792.601, 170.314 793.004 C 169.866 793.406, 163.200 794.262, 155.500 794.906 C 136.798 796.468, 134.465 796.865, 135.849 798.249 C 136.661 799.061, 141.580 799.033, 154.229 798.141 C 179.406 796.368, 226.707 793.263, 239.989 792.512 L 251.478 791.862 249.005 794.494 C 246.948 796.684, 246.471 798.336, 246.169 804.325 L 245.805 811.524 238.153 816.686 C 233.944 819.526, 228.700 822.739, 226.500 823.827 C 224.300 824.914, 221.450 827.020, 220.166 828.506 C 218.883 829.992, 214.383 832.790, 210.166 834.724 C 188.506 844.659, 180.500 854.228, 180.500 870.184 C 180.500 877.307, 180.713 878.091, 183.410 880.906 C 196.767 894.848, 265.423 893.425, 312.630 878.228 L 321.760 875.289 319.710 879.894 C 316.887 886.238, 316.187 898.526, 318.403 902.813 C 323.465 912.600, 351.448 920.348, 381.500 920.282 C 419.115 920.199, 471.278 908.292, 475.802 898.755 C 476.518 897.245, 477.602 889.145, 478.209 880.755 C 478.817 872.365, 479.356 865.428, 479.407 865.340 C 480.116 864.120, 506.075 867.731, 519.864 870.968 C 550.003 878.042, 565.964 879.883, 581.531 878.077 C 623.179 873.248, 649.516 850.034, 659.806 809.084 C 662.451 798.559, 662.861 797.678, 665.661 796.501 C 667.317 795.804, 669.797 793.796, 671.173 792.039 L 673.674 788.842 699.087 789.946 C 753.381 792.302, 819.094 796.651, 876.723 801.702 C 893.568 803.178, 898.490 803.150, 896.917 801.586 C 896.687 801.358, 888.094 800.151, 877.820 798.904 L 859.141 796.637 861.070 794.183 C 864.702 789.567, 863.730 787.675, 858.010 788.225 L 853.019 788.705 854.953 785.577 C 864.793 769.655, 858.456 765.946, 845.629 780.120 L 840.362 785.941 842.145 774.902 C 848.340 736.540, 846.128 702.044, 835.329 668.616 L 831.813 657.732 834.379 655.166 L 836.945 652.601 841.044 654.905 C 845.497 657.407, 850.121 657.919, 856.750 656.643 C 860.569 655.907, 861 656.021, 861 657.762 C 861 663.358, 870.293 670.984, 877.151 671.015 C 881.141 671.034, 881.897 671.499, 884.882 675.773 C 889.441 682.298, 900.016 685.111, 906.800 681.603 C 917.121 676.266, 919.050 661.046, 911.013 648.361 C 909.833 646.498, 909.953 645.537, 911.947 640.902 C 916.829 629.554, 912.562 614.186, 901.857 604.562 C 896.958 600.157, 889.421 596.012, 886.261 595.985 C 883.065 595.957, 882.293 594.572, 881.774 587.939 C 880.808 575.586, 874.684 565.939, 864.685 561.016 C 856.806 557.138, 849.728 556.223, 843.639 558.298 L 839.081 559.851 835.661 555.092 C 818.048 530.575, 776.049 527.046, 754.799 548.297 C 742.499 560.596, 739.695 579.938, 748.521 591.595 L 750.865 594.689 746.542 598.303 C 739.069 604.550, 735.134 616.123, 737.040 626.250 C 741.017 647.382, 763.700 663.264, 782.418 658.023 C 786.401 656.908, 787.174 656.978, 789.688 658.686 C 798.527 664.694, 806.247 665.231, 817.080 660.593 C 818.356 660.046, 819.169 661.603, 821.319 668.708 C 832.225 704.759, 831.166 739.243, 818.052 775.128 C 814.125 785.874, 812.079 789.010, 812.032 784.355 C 811.986 779.842, 808.364 768.733, 805.930 765.638 C 801.327 759.786, 799 763.309, 799 776.130 L 799 785.392 795.750 782.306 C 788.729 775.640, 785.160 777.584, 788.763 786.113 L 790.828 791 788.164 790.979 C 786.699 790.968, 778.750 790.519, 770.500 789.982 C 753.033 788.844, 709.753 786.420, 689.317 785.434 L 675.133 784.750 675.192 777.125 C 675.517 734.774, 672.053 677.561, 667.538 650.695 C 665.428 638.136, 665.344 636.410, 666.610 631.560 C 668.369 624.827, 669.881 605.528, 669.319 597 C 666.787 558.579, 652.813 528.751, 631.194 515.618 C 624.314 511.439, 624.122 511.105, 627.061 508.444 C 630.815 505.047, 638.942 493.367, 641.616 487.528 C 645.172 479.761, 645.797 471.125, 643.456 462.101 L 641.645 455.119 644.506 450.991 C 646.742 447.765, 647.819 446.992, 649.434 447.455 C 667.144 452.528, 683.395 447.645, 697.923 432.886 C 715.671 414.856, 716.664 382.800, 699.966 366.931 C 692.862 360.180, 694.890 358.609, 703.001 364.580 C 713.417 372.248, 719.352 373.595, 723.318 369.193 C 729.463 362.374, 721.947 352.887, 708 349.856 C 704.975 349.198, 702.361 348.561, 702.191 348.438 C 702.022 348.316, 702.613 346.480, 703.505 344.358 C 711.351 325.699, 716.090 294.938, 714.016 276.127 C 711.001 248.776, 702.794 229.698, 687.541 214.581 C 680.614 207.716, 680.586 207.667, 684.030 208.383 C 700.961 211.904, 707.300 209.222, 701.723 200.898 C 695.218 191.188, 677.820 185.639, 664 188.865 L 660.500 189.682 660.825 183.571 C 661.808 165.103, 647.797 139.317, 637.255 140.189 C 632.321 140.598, 631.877 144.066, 635.385 154.796 C 636.770 159.033, 638.167 164.300, 638.490 166.500 L 639.077 170.500 636.819 167.500 C 617.135 141.345, 579.559 123.215, 533.038 117.426 C 522.627 116.131, 492.245 115.708, 481.500 116.709 M 482.500 121.653 C 451.418 124.984, 417.618 134.360, 388.500 147.728 C 358.227 161.625, 352.552 164.050, 343.501 166.949 C 338.190 168.650, 328.656 171.062, 322.315 172.309 C 313.368 174.069, 311.092 174.832, 312.156 175.714 C 316.955 179.698, 340.096 179.999, 351.750 176.231 C 360.026 173.554, 359.654 174.762, 350.750 179.473 C 333.333 188.688, 315.086 203.427, 305.151 216.304 C 296.169 227.946, 289.389 242.584, 291.440 245.904 C 292.751 248.024, 298.228 244.505, 308.178 235.152 C 320.460 223.607, 330.752 215, 332.275 215 C 332.879 215, 332.207 216.238, 330.781 217.750 C 314.690 234.810, 305.742 263.677, 311.193 280.937 L 312.279 284.374 314.051 282.186 C 315.026 280.982, 317.043 276.165, 318.535 271.481 C 321.470 262.262, 323.764 258.988, 322.659 265.595 C 320.073 281.054, 321.035 292.908, 326.219 309.500 L 329.344 319.500 330.114 315.500 C 330.538 313.300, 330.911 309.632, 330.942 307.349 C 331.116 294.829, 337.573 268.134, 343.581 255.100 C 348.966 243.416, 362.677 219.920, 367.192 214.637 C 371.551 209.537, 373.566 208.992, 370.108 213.848 C 360.281 227.649, 353.945 252.266, 356.972 264.884 C 358.812 272.552, 360.302 271.326, 365.034 258.250 C 373.175 235.757, 382.187 221.810, 399.135 205.473 C 408.109 196.823, 420.785 187.452, 421.944 188.611 C 422.248 188.915, 421.147 190.117, 419.498 191.283 C 403.167 202.828, 385.588 226.179, 380.611 242.939 C 376.051 258.293, 379.613 259.773, 392.632 247.936 C 413.556 228.909, 426.906 220.462, 464.500 202.464 C 472.200 198.777, 478.837 195.563, 479.250 195.322 C 479.663 195.080, 480 195.108, 480 195.383 C 480 195.659, 474.712 199.363, 468.250 203.613 C 447.166 217.480, 425.781 241.417, 429.969 246.463 C 431.667 248.509, 432.512 248.435, 442.198 245.393 C 460.617 239.608, 505.152 217.549, 537.380 198.248 C 537.864 197.959, 538.089 198.183, 537.880 198.748 C 537.671 199.312, 532.381 203.746, 526.124 208.600 C 506.192 224.062, 493 237.716, 493 242.884 C 493 251.904, 535.638 233.828, 575.551 207.888 C 582.227 203.550, 587.923 200, 588.210 200 C 588.497 200, 587.807 203.037, 586.678 206.750 C 583.296 217.863, 583.641 247.950, 587.305 261.495 C 590.383 272.874, 597.665 288.346, 600.158 288.806 C 602.157 289.174, 602.640 287.239, 603.982 273.500 C 605.216 260.877, 608.087 244, 609.001 244 C 609.383 244, 609.985 248.723, 610.338 254.495 C 611.891 279.872, 617.100 300.442, 627.816 323.514 C 630.622 329.556, 633.445 336.961, 634.089 339.969 C 635.572 346.898, 634.750 364.660, 632.433 375.770 C 631.484 380.319, 630.956 384.290, 631.261 384.594 C 632.577 385.910, 638.285 381.479, 645.477 373.557 C 658.112 359.640, 671.799 354.474, 685.493 358.455 C 688.640 359.370, 691.503 359.830, 691.856 359.477 C 692.738 358.595, 689.015 356, 686.868 356 C 681.435 356, 685.383 351.984, 692.716 350.052 C 696.908 348.948, 696.946 348.895, 699.534 340.721 C 712.759 298.942, 712.228 265.257, 697.885 236.233 C 692.556 225.448, 681.854 212.545, 674.435 207.960 C 667.497 203.672, 671.625 203.186, 694.250 205.627 C 700.913 206.346, 701.271 205.688, 696.750 201.033 C 690.924 195.034, 683.913 192.518, 673 192.508 C 667.775 192.504, 662.147 192.849, 660.494 193.276 L 657.488 194.052 657.414 186.276 C 657.271 171.315, 651.042 154.981, 642.466 147.076 C 636.203 141.302, 635.468 142.688, 638.988 153.633 C 643.126 166.502, 645.376 182.291, 643.359 184.308 C 643.006 184.661, 640.715 181.701, 638.267 177.731 C 621.554 150.624, 588.838 131.867, 544.310 123.864 C 532.815 121.798, 494.076 120.412, 482.500 121.653 M 568.601 216.968 C 540.911 235.758, 503.366 252.066, 493.496 249.588 C 486.077 247.726, 487.150 239.719, 496.174 229.594 L 501.326 223.814 492.931 228.034 C 476.295 236.399, 459.522 244.097, 450.101 247.690 C 422.609 258.177, 416.677 246.385, 437.973 223.583 C 444.463 216.635, 443.394 216.825, 430.567 224.907 C 417.923 232.873, 411.594 237.613, 398.957 248.582 C 387.132 258.848, 382.902 261.443, 379.421 260.570 C 376.247 259.773, 374.733 256.624, 374.733 250.817 C 374.733 248.167, 374.603 246, 374.443 246 C 374.283 246, 372.014 251.466, 369.402 258.147 C 366.789 264.828, 363.641 271.465, 362.407 272.897 L 360.163 275.500 357.402 273.445 C 353.651 270.652, 352.175 265.998, 352.030 256.500 L 351.907 248.500 349.567 253 C 343.965 263.772, 338.398 285.051, 335.893 305.265 C 334.791 314.153, 335.232 341.888, 336.605 350.074 L 337.204 353.648 342.352 353.244 C 345.902 352.966, 348.121 353.308, 349.500 354.344 C 351.432 355.796, 351.287 356.039, 345.247 361.510 C 341.670 364.750, 338.741 368.312, 338.401 369.836 C 338.074 371.301, 335.741 380.150, 333.216 389.500 C 329.002 405.106, 328.620 407.484, 328.563 418.500 C 328.481 434.116, 330.155 441.978, 334.034 444.205 C 335.618 445.114, 338.071 448.180, 339.551 451.100 C 345.128 462.106, 346.704 460.123, 343 446.757 C 338.996 432.307, 340.580 424.547, 350.765 408.725 C 359.427 395.271, 360.425 392.060, 359.626 380.234 C 359.029 371.395, 359.402 367.920, 361.503 362.750 C 362.042 361.424, 361.721 361, 360.178 361 C 351.461 361, 354.093 348.520, 363.855 343.574 C 372.319 339.284, 388.757 337.225, 395.578 339.600 C 397.399 340.234, 397.395 340.183, 395.500 338.642 C 390.940 334.930, 377.825 331.831, 368.136 332.175 C 358.330 332.524, 357.173 331.743, 363.060 328.752 C 373.877 323.254, 396.869 329.420, 410.712 341.530 C 420.732 350.295, 419.184 352.994, 404.128 353.015 C 387.166 353.038, 384.488 355.914, 382.977 375.728 C 381.903 389.813, 381.047 392.604, 375.304 400.752 C 367.276 412.140, 366.222 419.261, 370.022 436.449 C 372.403 447.222, 372.524 455.397, 370.448 465.185 C 368.585 473.970, 368.941 476.276, 374.338 490.365 L 378.500 501.230 392.500 508.043 C 433.995 528.237, 483.943 533.197, 532.137 521.909 L 540.774 519.886 541.193 513.693 C 541.503 509.102, 542.740 505.042, 545.976 498 C 551.766 485.396, 552.230 479.676, 548.491 466.970 C 544.989 455.066, 545.346 445.982, 549.881 431.627 C 555.434 414.048, 554.199 406.391, 544.080 395.684 C 534.877 385.946, 534.825 385.812, 534.929 372.038 C 535.055 355.265, 535.483 355.657, 516.343 355.005 C 500.344 354.461, 499 354.114, 499 350.526 C 499 345.234, 518.446 333.082, 532 329.903 C 543.646 327.172, 559.209 328.932, 562.917 333.400 C 563.789 334.450, 562.146 334.606, 554.233 334.225 C 543.628 333.715, 532.946 335.383, 525 338.790 L 520.500 340.720 530 340.665 C 540.685 340.602, 547.717 342.011, 556.500 345.974 C 569.030 351.626, 573.982 360.919, 566.328 364.418 L 564.320 365.336 566.361 370.418 C 568.064 374.657, 568.412 377.822, 568.459 389.500 L 568.516 403.500 572.364 411.500 C 578.523 424.303, 580 429.455, 580 438.132 L 580 445.950 582.565 444.975 C 583.976 444.439, 586.230 444, 587.574 444 C 588.918 444, 591.881 442.650, 594.159 441 C 597.562 438.534, 599.298 437.994, 603.900 437.965 C 606.980 437.945, 610.625 437.286, 612 436.500 C 619.744 432.073, 630.624 435.974, 635.689 444.994 C 638.949 450.797, 639.164 450.878, 641.954 447.332 L 644.052 444.664 641.349 441.842 C 637.729 438.064, 639.141 437.059, 644.303 439.741 C 677.743 457.116, 717.600 418.905, 704.531 382 C 698.476 364.903, 680.390 357.507, 663.634 365.276 C 657.169 368.273, 646.839 378.033, 643.523 384.277 C 641.368 388.334, 639.867 389.223, 640.728 385.933 L 641.268 383.866 637.884 385.929 C 629.161 391.248, 626.494 388.070, 628.638 374.913 C 629.682 368.509, 630.050 361.025, 629.790 351.500 L 629.407 337.500 623.279 324.495 C 616.053 309.162, 612.835 299.959, 610.168 287 C 608.179 277.333, 607.571 276.988, 606.644 284.998 C 605.868 291.703, 602.052 294.798, 597.697 292.255 C 584.569 284.588, 574.949 238.149, 581.487 214 C 582.306 210.975, 582.982 208.387, 582.988 208.250 C 583.029 207.390, 580.088 209.172, 568.601 216.968 M 490.098 270.149 C 488.738 274.049, 488.683 280.036, 489.975 283.435 C 491.403 287.190, 493.139 286.697, 491.819 282.911 C 490.774 279.913, 491.159 272.303, 492.536 268.750 C 492.909 267.788, 492.760 267, 492.205 267 C 491.650 267, 490.702 268.417, 490.098 270.149 M 408.998 273.735 C 410.104 275.798, 411 279.380, 411 281.735 C 411 286, 412.249 287.400, 413.393 284.418 C 414.828 280.678, 413.981 275.271, 411.548 272.646 C 408.007 268.825, 406.672 269.396, 408.998 273.735 M 502.051 272.175 C 499.579 274.829, 498.407 280.417, 499.610 283.820 C 500.993 287.730, 502.663 287.556, 502.196 283.551 C 501.937 281.338, 502.557 278.481, 503.895 275.718 C 506.951 269.404, 506.120 267.808, 502.051 272.175 M 683.470 289.800 C 683.448 300.114, 682.901 306.987, 681.637 312.834 C 679.425 323.059, 680.132 324.549, 682.917 315.532 C 686.100 305.228, 687.361 292.336, 686.028 283.741 C 684.244 272.241, 683.502 273.997, 683.470 289.800 M 391.500 284.436 C 384.353 291.889, 382.328 293.341, 372.500 298.066 C 359.958 304.096, 355.728 306.751, 356.549 308.079 C 357.228 309.178, 367.763 308.361, 377.157 306.479 C 397.899 302.326, 411.941 287.069, 403.920 277.403 C 401.759 274.800, 399.529 276.063, 391.500 284.436 M 510.444 279.465 C 500.949 288.960, 517.224 304.623, 540.500 308.389 C 551.896 310.232, 565 311.101, 565 310.012 C 565 308.044, 558.583 304.060, 551.327 301.523 C 531.624 294.634, 525.240 290.898, 519.102 282.661 C 514.821 276.916, 513.486 276.423, 510.444 279.465 M 635.425 290 C 635.861 299.467, 639.243 313.701, 642.597 320.187 C 645.128 325.082, 645.082 322.926, 642.479 314.730 C 641.137 310.503, 639.107 301.522, 637.968 294.772 C 635.325 279.109, 634.886 278.285, 635.425 290 M 395 321.405 C 395 321.627, 397.570 323.260, 400.712 325.032 C 403.853 326.805, 408.803 330.693, 411.712 333.673 C 416.019 338.084, 417 338.701, 417 336.997 C 417 334.116, 408.527 325.917, 402.761 323.218 C 398.429 321.191, 395 320.389, 395 321.405 M 518 322.935 C 512.759 324.535, 506.647 328.301, 502.405 332.543 C 495.377 339.571, 496.962 341.006, 504.599 334.527 C 508.228 331.448, 513.853 327.589, 517.099 325.950 C 524.479 322.224, 524.896 320.830, 518 322.935 M 281.650 341.038 C 266.040 343.692, 256.304 356.358, 264.750 363.026 C 269.323 366.636, 275.390 365.421, 283.940 359.182 C 292.121 353.213, 296.773 350.714, 303 348.943 C 309.108 347.205, 309.725 346.426, 306.365 344.690 C 299.979 341.391, 289.066 339.778, 281.650 341.038 M 276.845 345.485 C 266.291 349.367, 261.482 358.332, 268.518 361.007 C 272.044 362.347, 276.312 360.700, 283.920 355.059 C 290.017 350.539, 292.494 349.185, 299.500 346.540 L 301.500 345.785 299.500 344.963 C 296.317 343.654, 280.854 344.011, 276.845 345.485 M 379.133 346.606 C 375.631 347.330, 372.481 347.886, 372.133 347.843 C 367.955 347.318, 363.711 348.372, 361.077 350.589 C 355.648 355.157, 357.752 359.411, 364.237 356.983 C 374.435 353.165, 374.811 353.085, 378.113 354.032 C 380.890 354.829, 382.239 354.562, 386.387 352.393 C 389.378 350.829, 393.951 349.522, 397.921 349.095 L 404.500 348.389 399 347.269 C 389.687 345.372, 385.744 345.240, 379.133 346.606 M 441.250 347.980 C 437.657 349.506, 438.538 349.729, 446.250 349.243 C 451.856 348.890, 454.804 349.247, 459.250 350.818 C 465.709 353.099, 466.989 352.195, 461.250 349.406 C 457.014 347.347, 444.791 346.476, 441.250 347.980 M 525 348.086 C 513.779 349.507, 511.252 350.811, 519.500 350.926 C 527.304 351.035, 533.581 352.490, 542.500 356.259 C 546.387 357.901, 550.261 358.769, 553.500 358.724 C 556.401 358.683, 559.872 359.371, 561.768 360.362 C 564.739 361.915, 565.092 361.925, 565.649 360.471 C 567.500 355.649, 561.805 351.532, 551.203 350.029 C 547.401 349.490, 543.662 348.849, 542.895 348.605 C 539.643 347.571, 531.042 347.322, 525 348.086 M 326.500 352.559 C 312.996 359.644, 309.344 380.819, 318.494 398.988 C 322.809 407.557, 323.645 408.078, 324.531 402.754 C 324.921 400.414, 326.986 392.887, 329.120 386.028 C 333.752 371.139, 333.670 372.248, 330.099 372.772 C 321.337 374.058, 320.911 362.308, 329.527 356.983 C 335.494 353.295, 332.747 349.281, 326.500 352.559 M 695.250 352.723 C 691.222 353.223, 691.080 354.484, 694.903 355.816 C 696.500 356.373, 701.477 359.342, 705.963 362.414 C 714.141 368.016, 718.343 369.257, 720.800 366.800 C 724.370 363.230, 718.578 356.140, 710.016 353.597 C 704.795 352.047, 702.023 351.883, 695.250 352.723 M 437.030 355.583 C 430.006 358.630, 427.496 362.497, 426.431 371.909 C 425.723 378.168, 425.728 378.187, 427.883 376.846 C 429.736 375.693, 430.472 375.744, 433.023 377.203 C 436.839 379.387, 436.815 377.998, 432.962 373.610 C 423.478 362.807, 444.561 352.385, 458.487 360.992 C 462.539 363.497, 463.349 363.521, 462.052 361.098 C 459.036 355.461, 444.631 352.287, 437.030 355.583 M 377.134 356.596 C 364.530 359.221, 362.394 362.547, 362.746 379 C 363.063 393.770, 361.776 398.160, 353.498 410.540 C 344.111 424.580, 342.275 432.349, 345.588 444 C 347.017 449.028, 348.087 456.161, 349.637 471 C 350.161 476.017, 350.707 477.009, 355.855 482.291 C 362.375 488.980, 373.561 498.035, 372.704 495.929 C 372.384 495.143, 370.660 490.033, 368.871 484.573 L 365.620 474.645 367.317 464.573 C 369.517 451.511, 369.480 450.292, 366.382 434.118 C 363.084 416.893, 363.705 412.599, 371.093 401.553 C 377.895 391.383, 379.071 388.093, 379.658 377.604 C 379.937 372.597, 381.052 365.635, 382.134 362.134 C 383.216 358.633, 383.966 355.656, 383.801 355.519 C 383.635 355.382, 380.635 355.867, 377.134 356.596 M 583.250 356.183 C 578.888 357.668, 579.112 358.299, 585.250 361.826 C 588.138 363.485, 593.325 367.339, 596.777 370.389 C 606.321 378.823, 613.399 379.900, 617.558 373.552 C 620.574 368.949, 616.548 361.853, 608.624 357.806 C 603.789 355.336, 588.592 354.364, 583.250 356.183 M 336.179 357.267 C 328.307 359.787, 323.394 369, 329.923 369 C 331.856 369, 333.892 367.954, 335.936 365.910 C 337.635 364.211, 340.863 361.286, 343.108 359.410 L 347.189 356 343.345 356.102 C 341.230 356.158, 338.006 356.682, 336.179 357.267 M 399.250 360.240 C 390.693 363.338, 388.101 365.766, 394.668 364.535 C 399.511 363.626, 408.127 360.371, 410.560 358.531 C 413.849 356.043, 408.688 356.823, 399.250 360.240 M 505 358.839 C 505 360.130, 519.285 366.039, 523.884 366.650 C 528.651 367.284, 526.627 365.978, 516.872 362.126 C 507.041 358.245, 505 357.680, 505 358.839 M 537.636 360.250 C 538.060 361.488, 538.288 366.873, 538.142 372.219 C 537.822 383.947, 539.053 387.184, 546.068 393.057 C 556.741 401.993, 558.850 415.914, 552.422 435 C 548.672 446.133, 548.496 457.107, 551.896 467.784 C 555.377 478.715, 554.680 486.820, 549.255 498.512 C 544.438 508.894, 542.357 519.845, 545.424 518.667 C 546.381 518.300, 547.577 518, 548.082 518 C 548.587 518, 549.004 515.862, 549.010 513.250 C 549.024 506.403, 552.632 499.451, 559.366 493.296 C 564.506 488.599, 564.872 488.002, 563.168 487.090 C 552.927 481.609, 558.320 458.468, 570.553 455.397 C 574.077 454.513, 576.079 449.992, 576.724 441.462 C 577.410 432.394, 576.243 427.592, 570.197 414.595 L 565.500 404.500 565.469 391 C 565.442 379.289, 565.116 376.595, 563.006 370.671 C 560.264 362.971, 558.530 361.552, 552.249 361.874 C 549.706 362.005, 546.138 361.270, 543.371 360.046 C 537.479 357.440, 536.683 357.468, 537.636 360.250 M 587 359 C 587 359.550, 587.400 360, 587.890 360 C 588.379 360, 591.571 362.137, 594.981 364.750 C 606.179 373.327, 607.268 374, 609.948 374 C 619.627 374, 614.819 362.805, 603.724 359.511 C 597.992 357.809, 587 357.473, 587 359 M 452.223 373.557 C 448.585 376.104, 449.327 378.217, 453.580 377.419 C 455.828 376.997, 458.059 377.229, 459.578 378.042 C 462.401 379.552, 463.430 378.929, 462.572 376.227 C 461.392 372.509, 455.784 371.062, 452.223 373.557 M 673.703 382.388 C 664.869 385.665, 655.514 394.148, 651.534 402.491 C 648.518 408.814, 649.923 409.452, 655.345 404.222 C 661.414 398.368, 666.888 397.855, 670.637 402.789 C 673.757 406.896, 670.896 415.964, 665.615 418.705 C 663.902 419.595, 663.032 420.502, 663.682 420.722 C 665.725 421.412, 671.004 418.037, 673.100 414.701 C 677.527 407.655, 673.308 395.638, 666.114 394.803 C 663.621 394.514, 663.720 394.347, 668.239 391.210 C 677.506 384.775, 684.130 383.867, 690.250 388.192 C 694.091 390.907, 693.944 388.279, 690.047 384.545 C 686.493 381.140, 679.540 380.223, 673.703 382.388 M 593.763 388.571 C 593.390 388.943, 593.905 390.879, 594.906 392.874 C 595.907 394.868, 597.518 398.975, 598.486 402 C 601.954 412.837, 606.198 416.812, 612.149 414.797 C 620.352 412.020, 616.389 400.220, 604.663 392.510 C 599.301 388.984, 594.929 387.404, 593.763 388.571 M 258.255 391.956 C 247.125 397.221, 237.033 409.121, 237.014 417 C 237.004 420.941, 240.458 425.722, 243.854 426.468 C 250.473 427.922, 255.696 422.123, 260.505 407.984 C 261.872 403.967, 264.342 398.284, 265.995 395.355 C 267.648 392.426, 269 389.798, 269 389.515 C 269 388.136, 263.862 389.303, 258.255 391.956 M 598 392.774 C 598 393.228, 598.389 394.028, 598.865 394.550 C 599.341 395.072, 600.969 398.796, 602.481 402.824 C 604.397 407.927, 605.935 410.469, 607.552 411.206 C 614.596 414.415, 614.752 406.403, 607.784 399.242 C 603.512 394.852, 598 391.208, 598 392.774 M 256.500 396.400 C 249.338 401.126, 242.267 409.061, 241.480 413.255 C 240.127 420.466, 242.272 423.902, 247.333 422.631 C 250.724 421.780, 252.164 419.499, 257.627 406.314 C 260.092 400.366, 262.357 394.938, 262.661 394.250 C 263.536 392.273, 261.880 392.850, 256.500 396.400 M 469 396.721 C 467.075 396.904, 461.728 397.777, 457.117 398.661 C 450.883 399.856, 446.911 400.055, 441.617 399.437 C 415.049 396.334, 402.493 400.909, 392.670 417.271 C 383.514 432.522, 383.150 457.420, 391.882 471.162 C 398.810 482.065, 408.904 483.965, 426.268 477.635 C 450.403 468.836, 459.371 469.287, 486.181 480.652 C 500.549 486.742, 508.668 488.255, 515.276 486.074 C 539.372 478.122, 540.412 436.034, 517.083 413 C 505.113 401.181, 486.903 395.016, 469 396.721 M 457 402.597 C 451.852 403.624, 447.305 403.872, 442.500 403.389 C 420.827 401.207, 407.173 403.403, 408.463 408.863 C 409.448 413.038, 412.563 415, 418.204 415 C 422.418 415, 423.272 414.677, 423.734 412.910 C 424.257 410.910, 424.379 410.942, 426.536 413.647 C 428.611 416.250, 429.421 416.504, 436.693 416.835 C 443.065 417.124, 444.855 416.879, 445.941 415.571 C 447.178 414.081, 447.445 414.093, 449.248 415.725 C 452.123 418.326, 466.919 418.288, 469.810 415.672 C 471.721 413.942, 471.971 413.935, 474.418 415.538 C 478.525 418.229, 489.563 417.210, 492.432 413.874 L 494.594 411.361 496.344 413.680 C 498.378 416.377, 505.338 416.936, 508.461 414.652 C 510.175 413.399, 509.980 413.082, 505.662 410.112 C 493.772 401.931, 474.926 399.021, 457 402.597 M 296.500 434.903 C 287.942 438.662, 280.068 460.849, 283.323 472.035 C 286.637 483.426, 298.441 498.962, 315 513.732 C 320.225 518.392, 324.650 522.609, 324.833 523.102 C 325.261 524.253, 323.910 524.229, 322.049 523.052 C 320.531 522.091, 312.260 552.579, 308.363 573.500 C 301.146 612.248, 313.179 641.404, 338.306 646.049 C 349.461 648.111, 367.560 643.797, 382.869 635.428 C 393.234 629.761, 393.155 629.879, 392.411 621.072 C 390.764 601.578, 386.073 588.271, 376.083 574.750 C 371.480 568.521, 370.970 568.752, 372.758 576.250 C 374.693 584.365, 374.871 599.175, 373.107 605.276 C 370.965 612.681, 369.997 611.855, 370.665 603.190 C 371.352 594.282, 370.013 583.367, 366.408 568.500 C 363.482 556.432, 361 538.369, 361 529.149 C 361 525.437, 360.534 521.934, 359.965 521.365 C 359.251 520.651, 359.872 518.337, 361.964 513.915 C 364.139 509.317, 364.981 506.084, 364.938 502.500 C 364.879 497.541, 364.810 497.436, 356.469 489.673 C 348.483 482.241, 347.951 481.921, 345.922 483.342 C 343.806 484.824, 343.823 484.863, 347.642 487.287 C 355.682 492.390, 360.948 499.985, 360.963 506.500 C 360.973 511.323, 359.351 512.885, 358.487 508.883 C 356.639 500.329, 350.558 493.447, 340 487.963 C 336.607 486.201, 333.434 483.571, 331.717 481.098 L 328.935 477.090 330.927 474.795 C 332.023 473.533, 333.576 471.601, 334.378 470.502 C 336.666 467.367, 337.548 469.628, 335.617 473.677 C 333.887 477.305, 333.892 477.347, 336.419 479.874 L 338.963 482.418 341.688 480.384 C 345.211 477.754, 346.470 472.962, 344.899 468.167 C 340.596 455.038, 331.479 454.271, 315.750 465.715 C 309.794 470.048, 309.544 468.052, 315.347 462.492 C 320.692 457.370, 327.427 454, 332.316 454 C 336.935 454, 337.143 452.140, 332.923 448.589 C 326.455 443.146, 317.734 445.640, 306.506 456.143 C 299.013 463.153, 297.679 463.338, 302.033 456.763 C 305.870 450.970, 312.807 445.260, 318.742 443.007 C 323.293 441.279, 323.320 441.242, 320.951 439.974 C 313.595 436.037, 304.868 440.552, 293.149 454.355 C 291.349 456.475, 289.625 457.958, 289.317 457.650 C 287.644 455.977, 300.284 440.010, 305.492 437.218 C 306.587 436.630, 307.187 435.853, 306.824 435.491 C 305.711 434.377, 298.617 433.973, 296.500 434.903 M 702 437.014 C 702 437.593, 703.074 440.189, 704.386 442.783 C 705.699 445.377, 707.768 450.875, 708.985 455 C 713.868 471.555, 720.982 477.172, 728.077 470.077 C 735.371 462.783, 727.650 447.995, 712.266 439.795 C 706.578 436.763, 702 435.523, 702 437.014 M 614.241 439.665 C 613.436 439.989, 615.070 442.452, 618.760 446.479 C 624.117 452.326, 629.813 461.520, 628.742 462.591 C 628.488 462.845, 625.702 460.004, 622.551 456.277 C 612.184 444.013, 605.584 440.476, 598.553 443.414 C 594.209 445.228, 594.181 445.525, 598.157 447.581 C 604.545 450.884, 616.417 463.916, 614.649 465.684 C 614.331 466.003, 610.698 463.114, 606.577 459.265 C 595.176 448.618, 587.503 445.997, 581.293 450.629 C 577.891 453.166, 577.067 456, 579.731 456 C 583.782 456, 598 467.676, 598 471.003 C 598 472.684, 596.983 472.155, 592.313 468.044 C 587.011 463.377, 578.652 458.998, 575.054 459.004 C 568.787 459.013, 563.232 465.759, 562.240 474.567 C 561.622 480.048, 566.252 486.006, 569.697 484.162 C 572.776 482.515, 573.307 479.985, 571.341 476.335 C 568.853 471.715, 570.608 470.855, 574.050 475.006 C 578.803 480.739, 577.437 484.063, 566.736 492.807 C 553.397 503.707, 550.246 514.955, 556.793 528.298 L 559.835 534.500 560.398 563.500 C 561.485 619.561, 565.092 636.473, 579.173 651.525 C 596.220 669.749, 618.868 669.394, 637.582 650.609 C 645.924 642.235, 653.455 628.741, 652.349 624.148 C 651.286 619.730, 646.392 610.731, 642.822 606.630 L 639.453 602.760 639.475 612.630 C 639.504 626.381, 637.542 629.414, 636.659 616.981 C 635.880 606.003, 632.143 594.130, 622.972 573.500 C 616.658 559.297, 609.761 539.784, 608.481 532.500 C 608.094 530.300, 607.067 527.938, 606.200 527.252 C 604.430 525.851, 603.908 526.546, 618.030 511.515 C 638.873 489.332, 643.727 476.820, 638.018 460 C 632.445 443.582, 623.502 435.933, 614.241 439.665 M 708.888 444.780 C 709.948 446.859, 711.589 451.247, 712.533 454.530 C 716.426 468.064, 722.306 473.041, 726.622 466.455 C 729.953 461.370, 723.808 451.035, 713.324 444.091 C 707.271 440.082, 706.548 440.194, 708.888 444.780 M 440.632 446.460 C 437.405 447.787, 433.601 449.914, 432.178 451.186 C 430.755 452.459, 429.090 453.950, 428.479 454.500 C 427.867 455.050, 426.568 456.721, 425.592 458.214 L 423.818 460.927 428.820 460.335 C 431.571 460.009, 435.156 460.207, 436.786 460.775 C 439.033 461.559, 440.906 461.428, 444.538 460.232 C 448.427 458.952, 450.300 458.860, 454.513 459.743 C 457.366 460.342, 463.255 460.605, 467.600 460.328 C 474.561 459.884, 476.052 460.109, 480.145 462.223 C 483.657 464.036, 485.365 464.403, 487.145 463.724 C 490.671 462.381, 499.072 463.677, 502.298 466.062 C 504.861 467.957, 505.611 468.053, 509.871 467.031 C 515.198 465.753, 518.951 466.682, 522.719 470.212 L 524.939 472.291 525.969 469.580 C 527.655 465.148, 527.280 464.299, 520.750 457.736 C 507.216 444.135, 492.299 441.162, 474.724 448.562 C 471.301 450.004, 467.375 451.432, 466 451.737 C 463.579 452.274, 463.555 452.229, 465.250 450.317 C 467.751 447.496, 467.572 447.247, 461.818 445.539 C 454.396 443.335, 447.505 443.634, 440.632 446.460 M 425.250 464.491 C 423.462 465.268, 422 466.375, 422 466.952 C 422 468.473, 420.094 468.236, 418.357 466.500 C 415.060 463.203, 406.900 465.561, 405.013 470.357 C 404.223 472.366, 404.096 472.297, 402.987 469.250 C 402.031 466.623, 401.260 466, 398.961 466 C 395.258 466, 394.529 467.352, 396.562 470.454 C 401.918 478.629, 409.509 479.087, 428.658 472.390 C 451.202 464.506, 461.147 465.283, 488.676 477.080 C 505.944 484.479, 514.373 484.560, 521.099 477.391 L 523.500 474.832 520.694 472.416 C 517.066 469.292, 509.951 469.049, 507.050 471.950 C 505.117 473.883, 505.071 473.871, 501.650 470.450 C 498.607 467.407, 497.590 467, 493.034 467 C 490.193 467, 487.022 467.453, 485.988 468.006 C 484.538 468.783, 483.294 468.461, 480.552 466.600 C 475.758 463.347, 468.062 462.324, 463.921 464.389 C 461.137 465.778, 460.536 465.789, 458.666 464.479 C 455.840 462.499, 445.151 462.506, 442.319 464.489 C 440.436 465.808, 439.785 465.808, 436.628 464.489 C 432.246 462.658, 429.466 462.659, 425.250 464.491 M 444.500 485.386 C 441.526 486.682, 438.343 489.677, 439.117 490.450 C 439.338 490.671, 442.169 489.957, 445.409 488.863 C 452.015 486.633, 456.608 486.943, 463.905 490.112 C 471.887 493.578, 469.782 489.949, 461.500 485.967 C 456.860 483.736, 448.909 483.464, 444.500 485.386 M 368.978 504.191 C 368.966 506.011, 368.019 509.525, 366.874 512 C 365.384 515.219, 364.822 518.350, 364.896 523 C 365.024 530.989, 366.999 548.234, 367.899 549.230 C 368.262 549.631, 375.746 545.644, 384.530 540.369 C 393.313 535.095, 403.594 529.220, 407.375 527.314 C 415.091 523.425, 415.053 523.224, 406 520.031 C 398.452 517.368, 383.706 510.135, 376.500 505.561 C 373.750 503.815, 370.938 502.048, 370.250 501.634 C 369.352 501.094, 368.994 501.813, 368.978 504.191 M 616.016 519.582 C 613.257 522.162, 611 525.131, 611 526.179 C 611 528.846, 618.232 550.438, 623.333 563 L 627.596 573.500 633.668 576.543 C 646.326 582.887, 653.553 590.176, 661.214 604.324 L 665.099 611.500 664.454 599.500 C 662.232 558.175, 649.026 530.623, 624.954 517.095 L 621.032 514.890 616.016 519.582 M 543.460 524.218 C 539.799 525.104, 539.101 525.819, 536.012 531.848 C 532.017 539.643, 522.716 549.288, 515.471 553.149 C 496.216 563.410, 478.022 555.855, 473.571 535.750 C 472.996 533.154, 472.651 533, 467.420 533 L 461.877 533 462.569 537.750 C 467.218 569.670, 501.881 580.133, 529.819 558.049 C 539.791 550.166, 551.969 530.996, 550.563 525.394 C 549.914 522.807, 549.542 522.746, 543.460 524.218 M 410.442 530.979 C 398.113 537.390, 374.999 551.002, 375.004 551.848 C 375.006 552.206, 376.983 553.313, 379.399 554.306 C 388.028 557.854, 398.865 571.435, 403.704 584.765 C 407.068 594.032, 406.085 593.371, 400.682 582.732 C 394.854 571.255, 388.721 563.463, 380.867 557.559 C 374.432 552.722, 372.066 552.077, 369.642 554.501 C 367.144 556.999, 369.304 561.534, 376.706 569.336 C 386.727 579.900, 393.451 594.101, 395.959 610 C 397.197 617.842, 397.241 633.801, 396.043 640 C 395.565 642.475, 395.339 644.667, 395.542 644.872 C 395.964 645.298, 412.683 634.322, 413.414 633.139 C 413.679 632.711, 414.599 626.542, 415.459 619.430 C 416.320 612.319, 417.484 604.215, 418.047 601.422 C 418.827 597.551, 418.705 594.252, 417.535 587.541 C 415.923 578.294, 415.640 563.245, 417 559 C 417.789 556.536, 417.803 556.543, 417.960 559.500 C 418.902 577.294, 420.254 587.685, 421.275 585 C 421.589 584.175, 423.244 578.460, 424.953 572.300 C 430.976 550.591, 434.315 547.351, 429.126 568.251 C 425.379 583.341, 422.689 599.201, 420.030 621.863 C 418.029 638.929, 416.973 642.788, 412.298 650.131 C 410.815 652.461, 410.773 653.386, 411.933 658.220 C 413.511 664.798, 412.893 666.315, 406.501 671.553 C 404.026 673.581, 402 676.045, 402 677.028 C 402 678.641, 424.124 701.364, 427.585 703.305 C 428.481 703.808, 429.170 703.620, 429.419 702.805 C 432.312 693.326, 436.282 684.292, 440.177 678.326 C 442.808 674.297, 444.674 671, 444.324 671 C 443.974 671, 438.823 672.386, 432.876 674.080 C 426.930 675.773, 421.327 677.011, 420.425 676.830 C 418.414 676.425, 429.947 671.876, 441.386 668.561 C 447.035 666.924, 451.437 664.884, 454.668 662.405 C 472.415 648.788, 495.920 648.573, 519 661.814 C 525.758 665.692, 528.832 666.840, 534 667.418 C 552.593 669.498, 573.117 676.769, 591.309 687.719 C 599.790 692.825, 597.583 692.812, 587.354 687.696 C 570.218 679.125, 553.742 673.627, 535.500 670.395 L 531.500 669.686 537.466 675.093 C 540.748 678.067, 545.652 682.862, 548.364 685.750 C 552.128 689.758, 553.985 691, 556.213 691 C 559.866 691, 562.542 692.355, 567 696.460 C 569.282 698.562, 573.805 700.828, 580 702.975 C 592.253 707.221, 611.814 717.136, 624.500 725.531 C 635.324 732.693, 642.056 738.387, 634.500 733.988 C 632.300 732.707, 626.675 729.433, 622 726.712 C 604.878 716.746, 575 702.695, 575 704.609 C 575 704.935, 579.185 709.993, 584.301 715.850 C 589.416 721.708, 595.505 728.920, 597.831 731.878 C 600.971 735.870, 605.078 739.128, 613.780 744.528 C 635.938 758.278, 656.229 774.288, 664.073 784.211 C 666.162 786.854, 668.081 788.676, 668.338 788.258 C 670.249 785.151, 671.132 774.527, 670.111 766.938 C 669.500 762.397, 668.991 748.291, 668.979 735.591 C 668.954 708.070, 665.017 654.668, 662.462 647.186 C 662.184 646.371, 659.885 648.170, 656.415 651.918 C 649.365 659.533, 640.749 664.007, 631.226 664.999 C 627.526 665.384, 622.752 666.473, 620.616 667.419 C 599.422 676.805, 571.562 660.373, 562.585 633.192 C 557.348 617.336, 554.401 583.011, 555.572 551.500 C 556.105 537.150, 555.966 534.188, 554.683 532.502 C 553.847 531.402, 552.998 530.727, 552.796 531.002 C 552.594 531.276, 550.649 535.100, 548.474 539.500 C 538.168 560.346, 516.006 574.186, 495.333 572.687 C 475.902 571.277, 460 555.061, 460 536.655 L 460 532.247 450.516 531.053 C 445.300 530.397, 437.397 528.991, 432.953 527.930 C 421.834 525.274, 421.266 525.351, 410.442 530.979 M 527.500 528.168 C 525.300 528.697, 515.381 531.125, 505.458 533.565 C 495.536 536.004, 485.523 538, 483.208 538 C 478.629 538, 478.256 538.661, 480.449 542.901 C 482.610 547.081, 488.447 551.774, 493.014 553.004 C 504.854 556.192, 523.803 545.520, 531.814 531.150 C 534.329 526.640, 534.207 526.556, 527.500 528.168 M 776.398 539.823 C 754.158 546.432, 741.399 568.086, 749.421 585.608 C 750.891 588.819, 752.790 592.215, 753.641 593.156 C 755.062 594.726, 754.700 595.343, 749.192 600.733 C 740.497 609.241, 738.227 617.667, 741.584 628.972 C 746.880 646.804, 766.897 659.425, 782.311 654.649 C 787.094 653.168, 787.153 653.178, 792.157 656.288 C 798.352 660.140, 807.357 661.131, 813.360 658.623 C 817.801 656.767, 817.785 656.602, 811.991 644.912 C 803.130 627.035, 802.485 626.463, 790.266 625.663 C 776.366 624.752, 766 621.285, 766 617.547 C 766 616.430, 766.671 616.337, 769.250 617.094 C 772.411 618.022, 793.843 618.490, 794.684 617.650 C 794.915 617.419, 792.605 613.561, 789.552 609.076 C 784.411 601.526, 783.157 599, 784.550 599 C 786.767 599, 791.960 603.219, 799.175 610.884 L 807.622 619.857 810.182 612.048 L 812.742 604.239 808.776 603.051 C 806.439 602.351, 802.899 599.947, 800.155 597.198 C 795.875 592.909, 795.097 592.530, 790.500 592.491 C 784.901 592.444, 778.471 589.749, 776.884 586.784 C 775.273 583.773, 776.409 583.659, 780.483 586.424 C 784.891 589.416, 789.373 590.368, 793.500 589.190 C 796.236 588.409, 796.841 588.719, 800.372 592.709 C 806.092 599.172, 810.369 601, 819.772 601 C 827.364 601, 827.699 601.101, 829.877 604.047 C 832.151 607.124, 836.171 609.385, 841.291 610.468 C 844.204 611.085, 844.128 613.004, 841.191 612.994 C 837.009 612.981, 831.725 610.618, 828.538 607.336 C 825.504 604.212, 824.647 603.844, 821.705 604.396 C 818.472 605.002, 818.295 605.273, 817.170 611.379 C 815.378 621.105, 815.712 626.839, 818.407 632.627 C 821.587 639.457, 822.339 639.722, 827.059 635.681 C 832.694 630.858, 842.249 626.394, 850.475 624.743 C 857.003 623.433, 857.490 623.150, 858.065 620.334 C 859.580 612.930, 861.752 613.280, 861.205 620.840 C 860.663 628.330, 862.465 631.908, 868.352 635.031 C 871.615 636.762, 872.984 638.172, 873.395 640.225 C 873.763 642.067, 875.200 643.775, 877.543 645.158 C 879.803 646.492, 880.777 647.623, 880.179 648.221 C 878.610 649.790, 873.077 646.228, 871.304 642.510 C 870.392 640.600, 868.420 638.588, 866.800 637.917 C 865.215 637.260, 862.643 635.178, 861.086 633.289 C 858.288 629.893, 858.206 629.867, 853.878 631.019 C 842.940 633.928, 829 644.872, 829 650.549 C 829 653.899, 830.800 654.537, 833.388 652.105 C 836.161 649.500, 836.615 649.500, 842.515 652.110 C 847.032 654.108, 852.238 654.316, 860.195 652.819 C 861.380 652.596, 862.732 654.138, 864.695 657.949 C 868.197 664.751, 871.433 667.143, 877.985 667.773 C 882.505 668.207, 883.501 668.741, 886.310 672.239 C 896.684 685.158, 911.028 681.025, 912.688 664.637 C 913.145 660.134, 912.767 658.655, 909.631 652.658 L 906.053 645.817 908.216 641.658 C 916.413 625.899, 903.372 602.950, 883.702 598.520 L 878.670 597.387 878.471 589.895 C 878.149 577.793, 872.402 568.320, 862.467 563.515 C 857.585 561.154, 846.497 560.351, 841.509 561.997 C 838.097 563.123, 837.718 563.042, 836.196 560.855 C 829.979 551.927, 820.986 544.990, 810.500 541.036 C 802.085 537.863, 785.036 537.256, 776.398 539.823 M 632.545 584.523 C 633.895 588.110, 635 591.274, 635 591.552 C 635 591.831, 637.839 594.858, 641.309 598.279 C 651.610 608.437, 658.881 623.400, 659.081 634.855 L 659.162 639.500 660.500 636.500 C 661.236 634.850, 662.381 629.893, 663.045 625.484 C 664.244 617.523, 664.231 617.415, 661.122 609.984 C 655.697 597.015, 645.185 585.114, 634.300 579.616 C 632.539 578.727, 630.872 578, 630.594 578 C 630.317 578, 631.194 580.935, 632.545 584.523 M 795.393 612.250 C 796.277 613.763, 797.690 616.069, 798.533 617.375 C 800.481 620.393, 798.821 620.967, 788.083 620.986 C 778.206 621.005, 779.603 621.935, 790.857 622.834 C 798.593 623.452, 799.984 623.333, 800.248 622.030 C 800.673 619.934, 809.941 633.803, 815.393 644.693 C 825.598 665.080, 830.939 686.963, 831.708 711.547 C 832.534 737.930, 827.930 762.861, 818.591 782.575 C 816.066 787.906, 814 792.384, 814 792.526 C 814 792.668, 818.497 793.106, 823.992 793.499 C 829.488 793.893, 834.318 794.279, 834.725 794.357 C 835.133 794.436, 836.240 790, 837.186 784.500 C 845.516 736.061, 843.002 697.460, 829.121 660.655 C 824.511 648.432, 824.481 648.693, 831.362 641.215 C 836.568 635.558, 841.728 632.272, 850 629.343 C 857.969 626.522, 854.665 626.242, 845.783 628.985 C 839.188 631.022, 828.983 637.019, 825.595 640.847 C 822.802 644.004, 821.766 643.567, 818.244 637.750 C 813.459 629.847, 812.660 626.702, 813.264 618.137 L 813.803 610.500 811.962 616 C 810.950 619.025, 810.095 622.288, 810.061 623.250 C 810.004 624.897, 807.031 625.860, 806.973 624.250 C 806.958 623.837, 803.985 620.350, 800.366 616.500 C 796.747 612.650, 794.509 610.737, 795.393 612.250 M 515 627.551 C 509.775 628.900, 500.100 631.781, 493.500 633.954 C 470.287 641.597, 453.737 643.709, 445.218 640.115 C 440.013 637.919, 440.394 639.524, 445.698 642.136 C 455.621 647.021, 469.635 645.003, 505 633.594 C 533.630 624.357, 542.171 627.537, 516.500 637.874 C 498.722 645.034, 497.696 645.994, 507.809 646.008 C 518.151 646.021, 529.925 647.876, 538.555 650.851 C 547.575 653.960, 548.455 652.733, 539.858 649.034 C 533.240 646.187, 523.020 644.055, 515.500 643.953 L 509.500 643.872 513 642.268 C 530.453 634.268, 533.156 632.752, 534.255 630.340 C 536.861 624.621, 530.128 623.645, 515 627.551 M 650.842 641.344 C 648.831 644.730, 644.599 650.348, 641.438 653.828 L 635.691 660.156 639.596 658.532 C 649.211 654.532, 654.319 648.938, 655.262 641.377 C 656.086 634.764, 654.757 634.754, 650.842 641.344 M 405.362 643.908 C 392.168 652.856, 385.177 653.822, 376.798 647.857 L 373.886 645.783 365.693 648.019 C 361.187 649.249, 356.825 650.453, 356 650.695 C 355.128 650.951, 357.641 652.779, 362 655.061 C 366.125 657.221, 373.100 661.690, 377.500 664.992 C 382.283 668.582, 386.505 670.999, 388 671.002 C 389.375 671.005, 391.905 671.864, 393.622 672.911 L 396.745 674.815 402.372 669.494 C 408.337 663.854, 408.808 662.448, 406.961 655.798 C 405.865 651.854, 406.707 649.100, 411.100 642.250 C 412.246 640.462, 413.030 639.015, 412.842 639.034 C 412.654 639.052, 409.288 641.246, 405.362 643.908 M 320.698 652.031 C 293.478 658.902, 277.768 689.459, 269.044 752.500 C 268.435 756.900, 267.733 761.448, 267.485 762.607 C 267.049 764.641, 267.476 764.734, 279.767 765.277 C 295.023 765.951, 308.466 769.117, 319.804 774.706 C 324.037 776.793, 327.837 778.650, 328.250 778.833 C 328.663 779.017, 328.993 778.567, 328.985 777.833 C 328.976 777.100, 334.155 766.150, 340.493 753.500 C 349.506 735.509, 352.561 728.338, 354.521 720.570 C 357.613 708.313, 358 707.872, 358 716.603 C 358 727.788, 353.381 741.516, 345.322 754.282 L 342.888 758.138 347.194 763.522 C 349.562 766.483, 352.082 768.927, 352.793 768.953 C 355.453 769.050, 370.684 752.560, 375.378 744.500 C 385.237 727.570, 389.252 713.007, 389.401 693.636 L 389.500 680.771 385.098 676.865 C 363.997 658.139, 337.293 647.841, 320.698 652.031 M 596.441 654.418 C 598.603 656.180, 606.601 656.550, 609 655 C 610.058 654.316, 608.683 654.026, 604.332 654.015 C 600.939 654.007, 597.339 653.738, 596.332 653.418 C 594.656 652.886, 594.665 652.971, 596.441 654.418 M 471.762 658.942 C 455.237 664.224, 442.043 679.087, 435.642 699.630 C 434.248 704.101, 429.906 723.451, 425.992 742.630 C 422.078 761.808, 418.647 778.443, 418.368 779.595 C 417.891 781.568, 418.377 781.728, 426.680 782.338 C 447.449 783.861, 468.544 792.057, 480.878 803.395 C 482.840 805.198, 484.430 806.026, 484.671 805.369 C 484.900 804.748, 488.036 799.123, 491.641 792.869 C 510.935 759.397, 514.476 751.755, 518.823 734.208 C 521.675 722.698, 523.759 722.289, 522.614 733.463 C 521.321 746.080, 516.224 760.137, 507.453 775.271 L 502.949 783.042 505.724 786.521 C 509.251 790.941, 509.593 790.909, 516.805 785.488 C 536.984 770.318, 552.987 741.906, 556.069 715.776 C 557.633 702.516, 557.225 701.604, 543.565 687.843 C 517.439 661.523, 493.646 651.946, 471.762 658.942 M 476 667.277 C 476 667.572, 478.485 668.596, 481.523 669.551 C 488.173 671.643, 495.021 677.373, 497.199 682.669 C 500.927 691.735, 501.069 691.899, 500.628 686.637 C 499.861 677.492, 490.402 668.363, 480.542 667.252 C 478.044 666.970, 476 666.982, 476 667.277 M 323.837 675.461 C 321.822 677.335, 318.222 679.399, 315.837 680.048 C 308.859 681.947, 308.256 682.397, 312.190 682.767 C 317.516 683.267, 325.401 678.806, 328.127 673.750 C 329.593 671.031, 327.855 671.724, 323.837 675.461 M 456.500 676.900 C 442.668 683.318, 438.378 701.508, 448.276 711.769 C 456.598 720.397, 471.163 716.660, 477.388 704.300 C 480.225 698.667, 479.092 697.306, 476.022 702.660 C 464.992 721.892, 441.224 713.737, 447.060 692.723 C 450.114 681.724, 464.602 674.640, 474.050 679.526 C 478.098 681.619, 477.846 679.486, 473.750 676.989 C 469.589 674.452, 461.862 674.412, 456.500 676.900 M 392.653 680.711 C 395.251 686.929, 394.707 706.237, 391.588 718.500 C 383.956 748.511, 359.683 777.163, 339 780.578 C 332.769 781.607, 332.521 781.809, 334.614 784.164 C 338.635 788.689, 341.651 789.789, 347.281 788.786 C 354.353 787.525, 365.284 782.151, 373.050 776.115 C 381.340 769.673, 382.228 770.636, 374.500 777.688 C 368.215 783.423, 357.518 789.213, 350.172 790.855 C 347.792 791.387, 345.736 791.975, 345.604 792.161 C 345.051 792.941, 386.126 832, 387.499 832 C 388.653 832, 389 830.721, 389 826.468 C 389 816.496, 393.973 810.013, 401.629 810.004 C 404.875 810, 404.918 809.940, 407.964 801.250 C 409.956 795.566, 413.190 781.231, 419.003 752.316 C 422.300 735.917, 425.665 719.800, 426.482 716.500 L 427.967 710.500 417.437 700.250 C 411.645 694.612, 406.815 690, 406.703 690.001 C 406.591 690.001, 406.499 697.088, 406.497 705.751 C 406.494 722.733, 405.890 725.958, 399.862 741.199 C 396.705 749.179, 391.285 758.618, 390.379 757.712 C 390.094 757.427, 390.781 755.390, 391.905 753.185 C 400.491 736.357, 403.949 721.713, 403.978 702.060 L 404 687.620 398.250 682.310 C 391.434 676.016, 390.590 675.775, 392.653 680.711 M 559.679 699.750 C 561.812 704.824, 560.912 722.644, 558.004 732.910 C 549.367 763.393, 522.849 794.038, 499.983 799.958 C 497.517 800.597, 494.703 801.351, 493.729 801.633 C 492.041 802.124, 487 810.687, 487 813.065 C 487 813.859, 488.865 813.993, 493.250 813.516 C 509.958 811.696, 521.596 806.920, 534.837 796.450 C 543.880 789.299, 545.545 789.293, 538.298 796.438 C 525.926 808.635, 508.318 816, 491.528 816 C 485.342 816, 484.891 816.157, 483.949 818.635 C 482.769 821.739, 482.700 821.617, 493.490 835.540 C 509.170 855.770, 519.133 864.245, 531.500 867.872 C 566.032 878.001, 604.108 873.057, 626.180 855.579 C 642.652 842.534, 655.535 816.827, 658.579 790.926 L 659.226 785.416 651.363 778.435 C 637.279 765.930, 633.526 763.179, 634.456 766.043 C 635.669 769.775, 636.197 785.317, 635.164 786.853 C 633.441 789.416, 630.280 786.233, 623.149 774.752 C 613.059 758.507, 596.511 736.809, 578.722 716.500 L 575.219 712.500 574.590 719.500 C 572.955 737.688, 568.625 752.644, 560.716 767.421 C 555.472 777.218, 552.537 778.876, 557.292 769.355 C 565.802 752.315, 570.694 735.308, 571.669 719.376 L 572.292 709.188 566.396 702.595 C 559.615 695.012, 557.269 694.018, 559.679 699.750 M 834.436 703.401 C 834.746 707.746, 835 714.159, 835 717.651 C 835 721.673, 835.411 724, 836.121 724 C 837.712 724, 836.829 700.168, 835.138 697.500 C 834.077 695.824, 833.963 696.782, 834.436 703.401 M 494.122 706.142 C 487.310 726.725, 460.921 734.393, 445.750 720.199 C 442.616 717.266, 442.055 718.528, 444.890 722.133 C 447.336 725.242, 454.454 728.771, 460.592 729.918 C 474.995 732.609, 491.236 722.942, 495.021 709.425 C 496.525 704.053, 495.750 701.222, 494.122 706.142 M 483.500 739.212 C 475.650 742.363, 463.031 742.740, 455.133 740.060 C 447.585 737.499, 446.132 737.917, 452.263 740.885 C 463.749 746.445, 479.313 745.498, 489.100 738.643 C 492.232 736.449, 489.755 736.701, 483.500 739.212 M 611.654 750.250 C 612.079 750.938, 614.097 754.015, 616.139 757.089 C 618.181 760.163, 622.697 768.009, 626.176 774.524 L 632.500 786.370 632.795 779.709 C 633.354 767.098, 630.399 761.354, 619.602 754.069 C 611.845 748.834, 610.330 748.107, 611.654 750.250 M 802 775.875 C 802 790.347, 802.475 792, 806.637 792 L 810.024 792 809.442 787.750 C 807.954 776.887, 804.469 766, 802.480 766 C 802.216 766, 802 770.444, 802 775.875 M 266.613 769.817 C 266.133 770.593, 264 786.028, 264 788.724 C 264 789.426, 265.125 790, 266.500 790 C 267.875 790, 269.003 789.663, 269.008 789.250 C 269.015 788.475, 270.582 777.977, 271.544 772.250 C 272.039 769.308, 271.855 769, 269.604 769 C 268.237 769, 266.891 769.368, 266.613 769.817 M 273.531 770.250 C 272.916 772.141, 270.851 789.187, 271.198 789.510 C 271.650 789.931, 279.366 791.981, 279.526 791.723 C 280.042 790.892, 282.637 770.349, 282.302 769.750 C 281.587 768.473, 273.967 768.907, 273.531 770.250 M 185.380 771.183 C 184.929 771.908, 184.382 776.888, 184.164 782.250 L 183.767 792 186.884 792 C 190.588 792, 190.720 790.932, 188.531 778.649 C 187.010 770.114, 186.621 769.192, 185.380 771.183 M 284.543 773.124 C 281.251 791.804, 281.197 792.466, 282.878 793.433 C 283.770 793.946, 285.738 795.599, 287.250 797.106 C 288.762 798.613, 290 799.686, 290 799.490 C 290 799.294, 291.139 792.967, 292.531 785.431 C 293.923 777.894, 294.900 771.566, 294.702 771.368 C 294.504 771.171, 292.271 770.725, 289.740 770.378 L 285.138 769.747 284.543 773.124 M 296.558 774.250 C 294.372 784.502, 292.048 799.709, 291.800 805.379 L 291.500 812.258 295.500 813.666 C 297.825 814.485, 302.221 814.954, 306 814.787 C 312.421 814.504, 312.503 814.463, 312.778 811.500 C 313.142 807.566, 317.892 782.445, 318.640 780.496 C 319.156 779.152, 310.483 774.066, 309.551 775.166 C 309.229 775.547, 304.350 801.321, 303.383 807.750 C 302.442 814.012, 300.674 813.082, 301.483 806.750 C 302.207 801.080, 306.819 777.636, 307.622 775.543 C 307.943 774.707, 306.557 773.874, 303.613 773.133 C 297.519 771.598, 297.110 771.663, 296.558 774.250 M 851.472 778.159 C 848.059 781.155, 839 792.979, 839 794.437 C 839 794.813, 840.618 794.981, 842.595 794.810 C 845.951 794.521, 846.551 793.905, 851.595 785.584 C 858.656 773.938, 858.622 771.881, 851.472 778.159 M 317.603 794.750 C 316.115 802.862, 314.738 810.288, 314.542 811.250 C 314.047 813.693, 316.242 813.431, 319.193 810.697 C 321.028 808.997, 321.850 806.935, 322.333 802.821 C 322.694 799.756, 323.933 794.189, 325.088 790.450 L 327.188 783.651 324.844 781.848 C 320.817 778.750, 320.403 779.487, 317.603 794.750 M 168 781.642 C 168 782.033, 169.650 784.749, 171.666 787.677 C 174.723 792.115, 175.832 793, 178.341 793 L 181.349 793 178.961 790.250 C 174.335 784.920, 168 779.945, 168 781.642 M 792.210 786.495 C 794.202 790.596, 797.299 793.034, 798.717 791.617 C 799.418 790.915, 792.214 782, 790.946 782 C 790.440 782, 791.009 784.023, 792.210 786.495 M 415.996 790.185 C 415.382 792.558, 413.834 797.987, 412.555 802.250 C 410.468 809.204, 410.400 810, 411.889 810 C 413.316 810, 419.451 790.963, 419.202 787.308 C 419.023 784.693, 416.931 786.572, 415.996 790.185 M 421 788.388 C 421 789.152, 419.824 793.764, 418.386 798.638 C 416.949 803.512, 415.568 808.203, 415.319 809.062 C 414.942 810.361, 421.650 813.727, 422.604 812.718 C 422.717 812.598, 424.228 807.550, 425.962 801.500 C 427.696 795.450, 429.344 789.712, 429.625 788.750 C 430.058 787.264, 429.445 787, 425.567 787 C 422.338 787, 421 787.407, 421 788.388 M 431.571 788.146 C 431.326 788.891, 430.218 793.100, 429.109 797.500 C 428 801.900, 426.464 807.300, 425.696 809.500 L 424.299 813.500 429.104 816.244 C 435.916 820.135, 439.473 826.377, 438.605 832.920 L 437.965 837.745 444.179 839.310 C 451.372 841.122, 451.618 841.047, 452.536 836.739 C 452.915 834.957, 456.132 825.672, 459.685 816.104 C 464.811 802.301, 465.872 798.518, 464.823 797.787 C 462.445 796.131, 456.795 793.871, 456.292 794.375 C 456.021 794.646, 452.998 803.335, 449.574 813.684 C 446.150 824.033, 442.784 833.551, 442.094 834.836 C 439.023 840.547, 440.452 834.806, 446.979 815.204 C 450.840 803.607, 454 793.843, 454 793.508 C 454 792.596, 447.364 790, 445.032 790 C 443.914 790, 443 790.618, 443 791.373 C 443 794.089, 434.634 818.461, 434.263 816.826 C 434.054 815.906, 435.701 809.402, 437.924 802.374 C 442.161 788.975, 442.123 788.049, 437.332 788.015 C 436.139 788.007, 434.456 787.728, 433.590 787.396 C 432.703 787.056, 431.823 787.383, 431.571 788.146 M 330.097 790.250 C 329.628 791.487, 328.484 795.917, 327.556 800.093 C 325.914 807.485, 325.923 807.791, 327.887 811.593 C 330.421 816.501, 332 831.284, 332 850.106 C 332 864.380, 332.162 864.956, 335.527 862.647 C 336.612 861.902, 340.650 860.048, 344.500 858.527 C 354.815 854.450, 358.191 852.553, 361.241 849.122 C 362.748 847.426, 366.798 844.632, 370.241 842.913 C 373.683 841.195, 377.671 838.691, 379.102 837.349 L 381.704 834.910 362.102 815.539 C 344.325 797.972, 333.274 788, 331.582 788 C 331.235 788, 330.566 789.013, 330.097 790.250 M 855.502 791.659 C 849.324 793.835, 847.633 796, 852.111 796 C 854.593 796, 856.353 795.254, 857.996 793.504 C 860.996 790.311, 860.459 789.914, 855.502 791.659 M 256.026 795.241 C 251.710 796.805, 249.903 800.166, 250.240 806 L 250.500 810.500 256.772 811.741 C 263.827 813.137, 269.178 815.596, 274.014 819.665 L 277.295 822.426 281.262 817.963 C 287.721 810.699, 288.615 806.072, 284.504 801.187 C 279.740 795.525, 264.196 792.280, 256.026 795.241 M 460.650 818.750 C 456.915 829.063, 453.606 838.313, 453.298 839.307 C 452.799 840.915, 453.312 841.080, 457.969 840.807 L 463.201 840.500 466.453 830 C 468.241 824.225, 471.109 816.350, 472.826 812.500 L 475.948 805.500 472.762 802.750 C 471.009 801.237, 469.096 800, 468.509 800 C 467.922 800, 464.386 808.438, 460.650 818.750 M 691.250 804.662 C 688.411 805.808, 690.323 807, 695 807 C 699.887 807, 701.575 805.818, 698.418 804.607 C 696.588 803.905, 693.060 803.932, 691.250 804.662 M 473.175 816.686 C 468.280 829.436, 465.652 837.986, 466.401 838.734 C 467.214 839.548, 471.999 836.129, 472.009 834.727 C 472.014 834.052, 474.268 828.339, 477.019 822.032 L 482.019 810.564 479.673 808.218 L 477.327 805.873 473.175 816.686 M 188.250 813.662 C 185.411 814.808, 187.323 816, 192 816 C 196.887 816, 198.575 814.818, 195.418 813.607 C 193.588 812.905, 190.060 812.932, 188.250 813.662 M 321 815.057 C 314.505 820.121, 305.632 820.838, 294.106 817.232 L 288.713 815.544 284.332 820.522 C 280.697 824.653, 280.056 825.975, 280.564 828.291 C 281.714 833.529, 276.408 838.359, 272.060 836.032 C 269.045 834.418, 263.195 838.483, 262.797 842.469 C 262.367 846.770, 258.453 848.820, 254.443 846.844 C 251.714 845.500, 251.227 845.572, 247.750 847.830 C 243.226 850.768, 243.212 850.930, 247.026 856.195 C 248.691 858.493, 250.763 862.816, 251.631 865.803 L 253.210 871.235 259.355 870.548 C 271.450 869.198, 306.240 862.685, 307.788 861.482 C 307.946 861.359, 308.321 859.063, 308.621 856.379 C 309.936 844.620, 314.465 835.799, 321.767 830.771 L 326.518 827.500 325.906 821.197 C 325.166 813.566, 324.301 812.484, 321 815.057 M 400.682 814.994 C 394.781 816.097, 393.500 818.006, 393.500 825.700 L 393.500 832.330 398.500 833.467 C 405.530 835.067, 412.499 838.758, 418.271 843.940 L 423.217 848.380 427.568 843.440 C 435.677 834.232, 436.540 828.675, 430.711 823.198 C 427.683 820.353, 417.941 816.151, 412.747 815.448 C 410.411 815.133, 407.600 814.740, 406.500 814.577 C 405.400 814.414, 402.782 814.601, 400.682 814.994 M 244.627 816.412 C 242.844 817.829, 242.891 817.930, 245.627 818.530 C 254.427 820.459, 259.444 822.703, 266.022 827.651 C 273.767 833.477, 276.322 834.011, 276.801 829.904 C 277.174 826.704, 271.001 820.773, 264.139 817.737 C 258.172 815.098, 247.216 814.354, 244.627 816.412 M 173.551 817.961 C 171.819 818.587, 171.930 818.784, 174.551 819.731 C 176.173 820.316, 178.287 821.115, 179.250 821.505 C 180.275 821.920, 181 821.766, 181 821.133 C 181 819.427, 175.717 817.177, 173.551 817.961 M 720.162 819.039 C 709.225 823.935, 715.461 829.615, 730 828 C 733.923 827.564, 734.538 827.173, 734.797 824.948 C 735.444 819.401, 726.983 815.985, 720.162 819.039 M 774.443 820.418 C 771.740 822.394, 772.487 822.720, 780.750 823.170 C 788.637 823.600, 790.625 822.111, 784.851 820.098 C 780.561 818.603, 776.766 818.719, 774.443 820.418 M 238.078 821.931 C 237.033 822.592, 237.826 823.145, 241.073 824.020 C 247.195 825.668, 252.415 828.476, 256.916 832.543 C 261.148 836.366, 262.545 836.669, 265.500 834.403 C 267.482 832.884, 267.477 832.852, 265.037 830.853 C 256.869 824.160, 242.217 819.311, 238.078 821.931 M 719.750 822.080 C 716.365 824.052, 718.070 825, 725 825 C 728.850 825, 732 824.566, 732 824.035 C 732 821.374, 723.337 819.991, 719.750 822.080 M 227.094 827.647 C 224.763 829.279, 224.806 829.312, 232.122 831.457 C 240.653 833.959, 245.918 836.540, 251.388 840.901 C 255.706 844.344, 257.764 844.778, 258.663 842.436 C 261.718 834.474, 235.130 822.018, 227.094 827.647 M 478.483 830.524 C 476.466 835.152, 476.293 838.927, 477.841 844.500 C 478.452 846.700, 478.963 851.313, 478.976 854.750 L 479 861 488.250 861.006 C 496.931 861.011, 506.553 862.089, 511.258 863.582 C 512.394 863.942, 509.538 860.444, 504.912 855.808 C 500.285 851.171, 493.575 843.628, 490 839.046 C 486.425 834.463, 482.761 829.776, 481.858 828.631 C 480.237 826.575, 480.193 826.600, 478.483 830.524 M 320.804 836.091 C 315.133 841.817, 312.797 846.701, 311.400 855.750 C 310.600 860.934, 311.114 861.027, 320.776 857.446 L 327.667 854.892 327.274 844.196 C 326.724 829.264, 327.100 829.735, 320.804 836.091 M 220 834.973 L 217.500 836.956 220 836.988 C 223.383 837.031, 232.128 841.205, 236.943 845.074 L 240.879 848.238 244.440 846.037 C 248.982 843.230, 248.915 842.612, 243.750 839.634 C 234.171 834.110, 223.683 832.052, 220 834.973 M 384.929 837.857 L 382.636 839.713 388.068 840.995 C 395.905 842.845, 405.616 848.023, 412.370 853.953 C 418.676 859.491, 422.244 860.300, 422.810 856.320 C 423.182 853.710, 417.623 847.213, 411.290 842.856 C 402.169 836.580, 389.478 834.173, 384.929 837.857 M 670 837.500 C 668.915 838.808, 669.604 839, 675.378 839 C 679.020 839, 682 838.598, 682 838.107 C 682 835.675, 671.937 835.166, 670 837.500 M 857.368 841.368 C 854.561 844.176, 853.112 846.373, 853.575 847.121 C 854.098 847.968, 854.992 847.494, 856.543 845.548 C 857.765 844.017, 860.017 841.765, 861.548 840.543 C 863.494 838.992, 863.968 838.098, 863.121 837.575 C 862.373 837.112, 860.176 838.561, 857.368 841.368 M 844.700 840.055 C 842.786 842.975, 842.101 846.735, 843.399 847.187 C 844.409 847.538, 847.223 840.170, 846.690 838.571 C 846.501 838.004, 845.606 838.672, 844.700 840.055 M 206.221 841.931 C 195.241 847.197, 187.821 854.645, 186.382 861.842 C 185.822 864.641, 186.053 864.876, 191.298 866.839 C 200.867 870.419, 213.216 871.993, 231.750 871.997 C 248.976 872, 249 871.997, 248.990 869.750 C 248.957 862.108, 236.614 846.975, 226.796 842.538 C 217.983 838.555, 213.532 838.424, 206.221 841.931 M 430.485 846.016 C 426.112 850.455, 425.797 851.105, 426.418 854.414 C 427.516 860.269, 422.002 864.677, 416.956 861.976 C 414.102 860.449, 408.029 864.604, 408.012 868.095 C 407.989 872.971, 401.936 875.642, 396.952 872.974 C 395.445 872.168, 394.175 872.517, 391.018 874.607 C 386.237 877.771, 386.362 876.924, 389.865 882.449 C 392.459 886.539, 393.820 890.375, 395.447 898.187 C 395.939 900.550, 396.397 900.825, 399.253 900.470 C 401.039 900.248, 407 899.565, 412.500 898.954 C 421.904 897.908, 439.493 894.577, 448.544 892.128 L 452.587 891.034 453.817 883.864 C 455.842 872.053, 463.366 860.670, 471.750 856.735 C 473.732 855.805, 474 854.932, 474 849.399 C 474 841.734, 473.430 841.321, 466.450 843.933 C 458.319 846.975, 453.499 846.668, 438.362 842.142 C 435.436 841.267, 434.904 841.529, 430.485 846.016 M 378.653 843.753 C 378.349 844.245, 380.290 845.209, 382.966 845.895 C 389.013 847.444, 396.064 851.792, 402.191 857.748 C 406.876 862.302, 406.884 862.306, 409.535 860.569 L 412.189 858.830 409.902 856.396 C 403.229 849.293, 380.830 840.231, 378.653 843.753 M 147.713 847.621 C 146.001 849.332, 147.368 850, 152.583 850 C 156.603 850, 158.051 849.650, 157.755 848.750 C 157.310 847.398, 148.883 846.450, 147.713 847.621 M 367.250 848.481 C 364.023 850.822, 364.443 851.662, 369.158 852.294 C 375.464 853.140, 386.790 859.213, 393.665 865.435 C 400.118 871.275, 403.432 872.365, 404.500 868.999 C 407.381 859.923, 375.605 842.419, 367.250 848.481 M 776.750 848.689 C 773.022 849.664, 775.288 850.844, 781.502 851.165 C 785.878 851.390, 788.004 851.129, 788.002 850.367 C 787.998 848.417, 781.499 847.448, 776.750 848.689 M 359.099 856.307 L 355.699 858.360 360.599 859.971 C 368.220 862.475, 374.420 865.900, 379.713 870.531 L 384.568 874.777 388.835 872.257 L 393.102 869.737 390.801 867.274 C 382.668 858.567, 365.305 852.560, 359.099 856.307 M 429.244 860.909 C 425.630 865.014, 421.986 867.830, 417.025 870.350 C 399.232 879.390, 395.880 882.774, 411.558 875.872 C 421.778 871.372, 430.667 864.479, 433.623 858.761 C 436.083 854.005, 434.741 854.663, 429.244 860.909 M 320.720 860.723 C 300.249 869.055, 250.270 876.866, 225 875.683 C 208.223 874.897, 190.770 871.322, 186.250 867.744 C 183.940 865.916, 184.333 875.606, 186.673 878.192 C 193.035 885.221, 230.663 888.084, 262.712 883.977 C 287.942 880.744, 321.718 872.521, 325.675 868.650 C 326.823 867.527, 327.870 859.436, 326.959 858.728 C 326.707 858.532, 323.899 859.429, 320.720 860.723 M 468.150 863.480 C 465.208 866.219, 461.774 870.494, 460.520 872.980 C 458.120 877.737, 455.296 888.629, 456.223 889.556 C 457.059 890.392, 473.129 884.827, 473.628 883.528 C 473.869 882.899, 473.939 877.010, 473.783 870.442 L 473.500 858.500 468.150 863.480 M 344.813 862.887 C 334.480 867.014, 326.037 874.805, 323.798 882.280 C 322.646 886.123, 322.711 886.359, 325.551 888.635 C 334.089 895.479, 358.993 900.937, 381.878 900.980 L 392.256 901 391.606 896.750 C 388.496 876.406, 360.923 856.451, 344.813 862.887 M 707.352 868.511 C 704.567 872.428, 702.815 878.846, 703.967 880.906 C 704.708 882.229, 705.041 882.022, 705.930 879.685 C 706.518 878.137, 707 876.427, 707 875.885 C 707 875.344, 707.702 873.543, 708.560 871.883 C 710.937 867.288, 710.027 864.748, 707.352 868.511 M 724.500 867.848 C 717.969 871.838, 711.147 882, 715 882 C 715.550 882, 716 881.561, 716 881.025 C 716 880.489, 718.716 877.275, 722.036 873.883 C 728.433 867.344, 729.467 864.814, 724.500 867.848 M 728.766 878.971 C 726.970 880.605, 726.086 881.955, 726.802 881.971 C 728.469 882.008, 735.982 877.741, 735.992 876.750 C 736.011 874.943, 731.756 876.251, 728.766 878.971 M 129 884.094 C 129 884.734, 130.575 887.001, 132.500 889.132 C 134.425 891.262, 136 893.454, 136 894.003 C 136 894.551, 136.450 895, 137 895 C 138.802 895, 138.049 891.753, 135.459 888.358 C 132.575 884.577, 129 882.216, 129 884.094 M 145.407 886.250 C 145.760 887.487, 146.319 889.737, 146.649 891.250 C 147.326 894.347, 149 894.987, 149 892.149 C 149 889.275, 146.919 884, 145.786 884 C 145.206 884, 145.043 884.970, 145.407 886.250 M 465.151 890.593 C 443.334 899.025, 415.961 903.420, 385 903.461 C 354.458 903.503, 339.652 900.825, 326.750 892.926 L 322 890.018 322 895.438 C 322 901.698, 322.883 902.894, 330.272 906.638 C 355.161 919.250, 407.379 918.491, 454.500 904.831 C 469.871 900.375, 473 897.926, 473 890.351 C 473 887.524, 473.101 887.520, 465.151 890.593 M 642 900.428 C 630.587 903.595, 621.538 911.399, 623.982 915.966 C 626.861 921.345, 660.093 922.292, 666.958 917.191 C 671.147 914.078, 670.906 909.671, 666.295 905.059 C 660.471 899.236, 652.067 897.634, 642 900.428 M 639.813 904.926 C 631.303 908.254, 625.520 912.853, 627.437 914.770 C 629.420 916.753, 648.514 917.564, 658.790 916.101 C 666.098 915.061, 668.107 912.977, 665.382 909.261 C 660.814 903.031, 649.545 901.121, 639.813 904.926 M 504.704 907.940 C 502.086 911.051, 501.011 916, 502.953 916 C 504.071 916, 508.196 907.087, 507.728 905.683 C 507.552 905.156, 506.192 906.172, 504.704 907.940 M 516.801 909.964 C 514.564 912.200, 513.141 914.420, 513.535 915.057 C 514.223 916.170, 523 908.504, 523 906.792 C 523 904.977, 520.518 906.246, 516.801 909.964 M 714.161 910.547 C 712.767 913.605, 712.633 918, 713.933 918 C 714.907 918, 715.414 916.670, 716.505 911.250 C 717.283 907.385, 715.803 906.942, 714.161 910.547 M 198 909.445 C 198 910.500, 207.538 918.786, 208.248 918.347 C 209.508 917.568, 205.976 912.417, 202.960 910.636 C 200.299 909.064, 198 908.512, 198 909.445 M 586.605 911.266 C 576.498 917.063, 578.994 922, 592.032 922 C 599.960 922, 607 920.165, 607 918.098 C 607 910.474, 594.997 906.454, 586.605 911.266 M 727.901 912.106 C 725.168 915.032, 724.085 918, 725.750 918 C 726.456 918, 730.732 912.994, 732.371 910.250 C 733.853 907.769, 730.748 909.058, 727.901 912.106 M 217.462 912.750 C 218.366 916.408, 220 918.038, 220 915.282 C 220 912.396, 218.995 910, 217.785 910 C 217.194 910, 217.062 911.129, 217.462 912.750 M 587.750 914.012 C 580.995 917.679, 584.101 919.502, 595.961 918.832 C 604.058 918.375, 605.141 917.697, 602.306 914.862 C 599.286 911.841, 592.480 911.444, 587.750 914.012" stroke="none" fill="#1a1a1a" fill-rule="evenodd"/>
</svg>