<svg xmlns="http://www.w3.org/2000/svg" width="1024" height="1024" viewBox="0 0 1024 1024" version="1.1">
	<path d="M 496 115.566 C 494.625 115.802, 489.450 116.482, 484.500 117.078 C 433.409 123.227, 367.211 156.225, 330.904 193.641 C 310.640 214.524, 312.795 218.726, 338.500 208.450 C 339.600 208.011, 337.070 211.264, 332.877 215.681 C 319.836 229.420, 309.796 245.327, 302.694 263.500 C 298.823 273.406, 295.472 287.181, 296.366 289.511 C 297.371 292.131, 301.118 291.120, 304.741 287.250 L 308.251 283.500 307.556 288 C 304.640 306.873, 305.106 323.986, 309.105 344.902 C 311.026 354.951, 315.329 373.088, 316.542 376.249 C 316.978 377.384, 315.850 377.860, 311.513 378.370 C 280.725 381.988, 273.173 425.530, 298.911 451.027 C 309.651 461.666, 321.846 466.965, 335.639 466.988 L 342.777 467 343.394 470.287 C 345.566 481.865, 360.820 505.570, 375.338 519.931 L 383.862 528.361 383.883 535.195 C 383.895 538.954, 384.646 544.670, 385.552 547.898 C 387.064 553.289, 387.068 553.967, 385.596 556.213 C 384.647 557.662, 384.016 560.663, 384.050 563.579 C 384.080 566.286, 383.816 572.100, 383.463 576.500 C 382.928 583.162, 383.154 585.342, 384.811 589.535 C 386.549 593.932, 386.628 594.881, 385.436 597.035 C 382.133 603.001, 385.005 608.297, 391.298 607.843 C 395.193 607.561, 395.427 607.707, 396.265 610.943 C 396.939 613.545, 396.809 614.528, 395.707 615.144 C 384.669 621.321, 343.980 660.102, 344.007 664.418 C 344.011 665.013, 345.586 666.571, 347.507 667.879 C 351.776 670.786, 351.774 670.694, 347.659 676.106 C 345.821 678.523, 343.144 682.367, 341.710 684.648 L 339.104 688.796 327.802 689.381 C 306.728 690.471, 261.648 691.981, 261.276 691.610 C 261.073 691.406, 261.907 689.322, 263.129 686.978 C 265.157 683.087, 265.222 682.488, 263.877 680.108 C 262.314 677.344, 256.878 676.564, 252.576 678.487 C 250.940 679.219, 250.775 679.060, 251.470 677.424 C 254.545 670.182, 255.237 666.816, 254.145 664.418 C 251.569 658.766, 245.120 661.128, 238.465 670.160 L 234.295 675.819 233.629 662.660 C 232.739 645.084, 230.412 636.361, 225.977 633.988 C 219.197 630.359, 214.364 646.088, 215.185 669.113 L 215.600 680.741 208.263 672.942 C 199.806 663.951, 193.276 660.098, 189.452 661.840 C 184.023 664.314, 186.006 673.283, 194.951 686.715 C 200.765 695.446, 202.317 694.604, 178.299 695.748 C 161.524 696.548, 158.652 697.067, 160.567 698.953 C 161.681 700.051, 203.049 698.113, 204.406 696.899 C 204.922 696.437, 203.151 692.953, 200.285 688.794 C 194.788 680.817, 190.659 673.049, 189.618 668.728 C 187.288 659.051, 204.851 670.475, 213.508 684.268 C 218.029 691.471, 219.620 690.376, 219 680.483 C 218.036 665.091, 218.774 648.736, 220.694 642.950 C 225.346 628.930, 230.055 641.449, 230.492 669 C 230.761 685.948, 230.657 685.001, 232.250 684.998 C 232.938 684.996, 234.849 682.409, 236.497 679.248 C 239.517 673.457, 247.711 664, 249.709 664 C 252.824 664, 251.694 669.750, 246.607 679.788 C 242.434 688.024, 243.469 689.017, 250.945 683.952 C 261.127 677.053, 265.010 679.993, 257.867 689.191 C 253.058 695.384, 253.069 695.388, 272.250 694.658 C 313.037 693.105, 336.258 692.714, 335.888 693.586 C 335.675 694.089, 333.818 697.964, 331.761 702.198 C 320.527 725.329, 321.730 747.006, 334.962 759.847 C 352.237 776.612, 378.858 769.933, 399.555 743.641 C 402.806 739.511, 405.581 736.248, 405.723 736.390 C 406.102 736.769, 402.249 766.348, 400.759 774.500 L 399.479 781.500 389.990 782.172 C 384.770 782.541, 365.524 783.346, 347.220 783.961 C 283.056 786.115, 184.328 791.690, 182.261 793.276 C 179.856 795.122, 182.227 796.202, 187.371 795.604 C 198.731 794.282, 280.680 789.703, 323 788.025 C 337.025 787.469, 353.450 786.790, 359.500 786.515 C 387.189 785.259, 398.515 785.580, 398.318 787.615 C 398.218 788.652, 397.442 794.193, 396.594 799.929 C 394.823 811.914, 394.910 812.145, 402.077 814.526 C 404.785 815.425, 406.997 816.237, 406.994 816.330 C 406.991 816.424, 405.641 831.106, 403.994 848.958 C 402.347 866.810, 401 881.731, 401 882.115 C 401 882.930, 391.821 883.542, 357.500 885.014 C 325.066 886.406, 255.685 890.480, 222 892.971 C 173.821 896.535, 165.509 897.283, 164.550 898.146 C 162.446 900.037, 165.873 900.683, 174 899.927 C 218.984 895.745, 344.780 888.111, 390.500 886.789 C 399.953 886.516, 400.490 886.608, 400.322 888.484 C 400.224 889.575, 399.830 896.808, 399.446 904.557 L 398.749 918.646 403.823 920.829 C 406.614 922.029, 411.171 923.536, 413.949 924.178 L 419 925.343 419 943.672 C 419 959.297, 419.221 962, 420.500 962 C 421.771 962, 422.002 959.521, 422.015 945.750 C 422.024 936.813, 422.413 928.897, 422.880 928.160 C 423.581 927.053, 425.994 927.186, 436.752 928.922 C 452.307 931.434, 480.223 933.437, 488.250 932.617 C 495.053 931.923, 494.691 930.527, 492.500 949 C 490.676 964.377, 490.677 964, 492.481 964 C 494.260 964, 494.634 962.459, 495.999 949.500 C 496.578 944, 497.298 937.855, 497.598 935.844 L 498.144 932.189 504.899 931.510 C 508.614 931.137, 512.218 930.483, 512.907 930.058 C 514.111 929.314, 516.261 915.905, 519.050 891.750 L 520.291 881 523.126 881 C 526.514 881, 526.174 879.828, 529.508 903 C 532.877 926.414, 532.987 926.923, 534.866 927.926 C 535.765 928.405, 539.092 929.121, 542.260 929.515 C 548.938 930.347, 548.108 928.538, 550.908 948.383 C 552.745 961.406, 553.980 965.353, 555.686 963.648 C 556.343 962.991, 553.635 938.145, 552.386 933.367 C 551.866 931.379, 552.363 931.303, 570.175 930.654 C 588.752 929.977, 603.570 928.303, 615.532 925.529 C 619.158 924.688, 622.321 924, 622.562 924 C 622.803 924, 623.002 927.263, 623.005 931.250 C 623.014 947.081, 624.253 961, 625.653 961 C 626.735 961, 627 957.259, 627 941.969 C 627 924.716, 627.164 922.887, 628.750 922.397 C 636.176 920.103, 643.925 916.637, 644.402 915.395 C 644.717 914.573, 644.317 908.887, 643.512 902.759 C 642.707 896.632, 642.150 891.540, 642.274 891.445 C 645.420 889.024, 646.986 889.140, 649.850 892.004 C 653.672 895.826, 655.138 895.770, 659.747 891.625 C 662.812 888.870, 663.925 888.410, 665.815 889.117 C 668.347 890.065, 674 887.814, 674 885.859 C 674 884.683, 683.618 884.904, 748.500 887.571 C 780.769 888.898, 815.576 890.821, 840.250 892.641 C 847.746 893.194, 849 893.066, 849 891.745 C 849 890.567, 847.405 890.061, 842.250 889.601 C 820.869 887.694, 758.444 884.507, 711.500 882.925 C 692.800 882.295, 677.365 881.656, 677.200 881.506 C 677.035 881.356, 677.877 878.368, 679.070 874.867 C 683.349 862.314, 682.784 840.231, 677.769 824 C 676.139 818.726, 675.736 814.435, 675.630 801.250 L 675.500 785 679 785 C 686.473 785.001, 751.448 787.066, 790 788.528 C 812.275 789.372, 833.153 790.161, 836.395 790.282 C 842.970 790.525, 845.544 788.498, 839.814 787.588 C 834.512 786.746, 702.988 782.023, 684.400 782.008 L 675.301 782 674.627 770.915 C 673.428 751.160, 668.606 721.240, 663.156 699.725 C 662.251 696.154, 662.378 695.814, 665.494 693.437 L 668.789 690.924 712.978 692.045 C 737.283 692.661, 757.438 692.896, 757.767 692.566 C 758.097 692.237, 757.496 690.891, 756.433 689.576 C 743.078 673.058, 740.185 666, 746.769 666 C 752.370 666, 762.073 674.437, 769.482 685.750 C 773.711 692.207, 774.569 691.393, 775.887 679.679 C 778.665 654.992, 789.757 629, 797.514 629 C 803.506 629, 802.782 639.875, 794.827 669.359 C 789.766 688.117, 790.272 688.885, 800.675 678.249 C 808.599 670.148, 814.924 666, 819.353 666 C 824.837 666, 823.079 671.135, 813.557 682.929 C 809.878 687.486, 807.089 691.790, 807.360 692.494 C 807.725 693.447, 813.187 693.950, 828.675 694.458 C 840.129 694.834, 851.300 695.222, 853.500 695.321 C 856.469 695.454, 857.500 695.113, 857.500 694 C 857.500 692.503, 844.900 691.517, 820.750 691.126 C 816.261 691.053, 813 690.573, 813 689.986 C 813 689.428, 814.947 686.581, 817.327 683.660 C 824.095 675.350, 826.689 669.321, 824.885 666.091 C 821.700 660.391, 812.179 663.002, 801.231 672.579 L 796.191 676.988 799.589 664.244 C 805.789 640.998, 806.149 630.694, 800.901 626.775 C 794.384 621.910, 783.941 634.405, 777.730 654.500 C 775.523 661.642, 774.563 666.183, 772.496 679.276 L 771.900 683.052 768.094 678.238 C 758.910 666.620, 748.348 660.231, 743.536 663.384 C 738.362 666.774, 739.871 673.850, 748.088 684.732 L 752.107 690.056 738.804 689.523 C 731.487 689.230, 713.467 688.717, 698.761 688.382 C 684.054 688.048, 672.256 687.394, 672.543 686.931 C 673.984 684.599, 655.052 652.025, 642.133 634.611 C 619.251 603.764, 590.173 585.258, 555.213 579.292 C 544.372 577.442, 544.045 577.193, 544.014 570.719 C 543.998 567.488, 542.994 567.865, 559 565.085 C 615.107 555.337, 662.536 518.969, 677.833 473.965 L 679.662 468.586 688.634 468.870 C 705.798 469.413, 721.145 461.276, 731.441 446.174 C 749.637 419.485, 740.281 383.678, 714.263 380.427 C 709.979 379.892, 709.035 379.444, 709.423 378.131 C 728.697 313, 723.284 246.636, 695.868 211.953 L 691.728 206.715 694.614 207.411 C 696.201 207.794, 700.947 209.710, 705.159 211.669 C 715.658 216.551, 717.597 214.604, 712.474 204.324 C 706.776 192.889, 693.237 183.667, 677.029 180.180 L 668.730 178.394 674.746 175.694 C 678.055 174.209, 682.790 172.716, 685.267 172.377 C 691.146 171.571, 692.919 170.519, 691.236 168.836 C 689.508 167.108, 680.650 169.039, 672.227 172.981 C 668.679 174.641, 665.601 176, 665.388 176 C 665.174 176, 665 173.477, 665 170.394 C 665 159.410, 659.870 145.881, 652.391 137.144 C 645.584 129.192, 635.194 124.446, 633.612 128.568 C 633.282 129.430, 634.358 133.301, 636.005 137.171 C 639.426 145.210, 642 154.449, 642 158.687 C 642 161.545, 641.911 161.499, 635.750 155.490 C 617.108 137.308, 587.958 124.157, 552.500 117.930 C 541.059 115.921, 503.172 114.335, 496 115.566 M 498 119.057 C 450.079 123.247, 397.610 144.564, 354.567 177.330 C 341.422 187.336, 320.777 208.111, 322.383 209.716 C 323.085 210.419, 332.300 207.241, 340.945 203.316 C 347.845 200.184, 351 199.702, 351 201.782 C 351 202.246, 345.913 207.773, 339.696 214.063 C 319.779 234.215, 304.002 262.001, 300.494 283.105 L 299.764 287.500 306.024 280.692 C 314.128 271.878, 315.097 272.705, 311.905 285.705 C 307.187 304.920, 309.066 333.497, 317.120 365 C 321.074 380.468, 320.770 379.725, 323.423 380.391 C 324.716 380.716, 328.188 382.798, 331.137 385.018 L 336.500 389.054 336.729 383.777 C 338.408 345.117, 346.947 310.679, 361.006 285.870 C 363.147 282.091, 364.754 279, 364.578 279 C 364.402 279, 359.691 281.025, 354.109 283.500 C 343.498 288.204, 340.977 288.831, 341.034 286.750 C 341.053 286.063, 344.541 283.954, 348.784 282.065 C 400.389 259.090, 433.186 238.560, 470.939 205.599 C 477.303 200.042, 479.940 199.463, 478.521 203.933 C 476.835 209.246, 457.424 233.304, 435.704 257 L 425.163 268.500 429.284 268.817 C 451.585 270.535, 502.016 245.921, 547.303 211.217 C 562.126 199.857, 562.407 203.564, 548.220 223.327 C 540.800 233.664, 526.392 248.791, 516.149 257 L 508.038 263.500 511.955 263.804 C 516.978 264.195, 533.266 260.077, 545.198 255.401 C 570.280 245.571, 597.034 228.819, 614.169 212.216 C 622.003 204.626, 622.599 205.115, 623.239 219.665 C 624.312 244.042, 634.176 275.204, 644.879 288.024 L 647.752 291.466 647.314 275.483 C 646.699 253.053, 649.424 249.779, 653.064 268.575 C 657.847 293.271, 668.662 315.528, 682.409 328.966 C 689.182 335.587, 690.253 339.667, 684.082 335.345 L 681.719 333.690 682.401 337.324 C 683.843 345.011, 684.915 357.460, 685.594 374.396 C 685.982 384.078, 686.510 392, 686.768 392 C 687.025 392, 688.774 390.649, 690.655 388.998 C 692.535 387.347, 696.420 384.818, 699.287 383.378 C 702.154 381.938, 704.633 380.643, 704.796 380.500 C 705.617 379.782, 712.202 351.525, 713.941 341.259 C 723.109 287.138, 713.858 237.387, 689.565 210.161 C 686.481 206.705, 684.251 203.403, 684.609 202.824 C 685.637 201.160, 691.932 202.462, 701.568 206.331 C 706.448 208.290, 710.621 209.713, 710.841 209.492 C 711.778 208.555, 705.776 200.064, 701.058 195.651 C 692.933 188.051, 683.533 184.423, 666.893 182.463 L 662.286 181.920 661.735 172.210 C 660.686 153.712, 651.970 137.780, 639.251 131.110 L 637.002 129.931 639.136 135.215 C 643.426 145.841, 645.192 152.679, 645.731 160.750 C 646.426 171.158, 645.454 171.376, 637.665 162.558 C 611.405 132.833, 552.012 114.334, 498 119.057 M 189.211 149.669 C 189.405 155.500, 189.909 158.474, 190.750 158.753 C 191.689 159.064, 192 156.904, 192 150.083 C 192 142.574, 191.733 141, 190.461 141 C 189.172 141, 188.969 142.407, 189.211 149.669 M 145.404 161.156 C 144.514 162.595, 156.458 174.453, 157.899 173.562 C 158.618 173.118, 157.187 170.757, 153.926 167.008 C 148.544 160.820, 146.485 159.406, 145.404 161.156 M 228.509 165.991 C 223.848 170.701, 222.842 172.242, 223.800 173.200 C 225.132 174.532, 237 163.817, 237 161.281 C 237 158.655, 234.269 160.170, 228.509 165.991 M 185.132 170.078 C 169.270 173.195, 158.534 186.522, 158.611 203 C 158.799 243.372, 215.853 248.608, 223.919 208.994 C 226.734 195.172, 219.039 179.746, 205.968 173.004 C 202.991 171.468, 191.907 168.754, 190.066 169.110 C 189.755 169.170, 187.534 169.605, 185.132 170.078 M 181.165 174.908 C 160.263 182.126, 155.142 210.153, 171.961 225.275 C 191.230 242.599, 220.529 229.149, 220.486 203 C 220.451 181.580, 201.353 167.936, 181.165 174.908 M 129 205.500 C 129 206.716, 130.611 207, 137.500 207 C 144.389 207, 146 206.716, 146 205.500 C 146 204.284, 144.389 204, 137.500 204 C 130.611 204, 129 204.284, 129 205.500 M 236.500 205 C 235.151 207.183, 237.465 208, 245 208 C 252.712 208, 255.831 206.774, 252.878 204.904 C 250.967 203.693, 237.258 203.774, 236.500 205 M 463.500 216.678 C 446.143 232.277, 408.415 257.260, 382.895 270.053 C 369.665 276.685, 369.325 277.048, 361.430 293 C 344.922 326.350, 338.888 363.212, 340.313 422 C 341.182 457.887, 346.588 477.007, 362.067 498.938 C 367.250 506.282, 382.534 523, 384.065 523 C 384.498 523, 385.987 520.524, 387.373 517.497 C 394.630 501.644, 412.805 491.765, 431.770 493.365 L 439.040 493.978 437.410 490.826 C 427.486 471.636, 430.326 452.348, 443.727 447.925 C 448.013 446.511, 464.703 447.151, 482.500 449.413 C 497.820 451.360, 515.753 451.381, 533.500 449.474 C 564.755 446.116, 567.587 446.351, 574.087 452.852 C 581.855 460.619, 581.622 474.562, 573.452 490.882 C 556.168 525.408, 511.004 541.241, 475.096 525.364 C 472.124 524.049, 469.548 523.119, 469.371 523.295 C 469.195 523.472, 469.567 526.398, 470.200 529.798 C 471.082 534.542, 471.065 537.523, 470.128 542.610 C 469.028 548.579, 469.081 549.432, 470.664 551.181 C 471.631 552.250, 472.664 555.202, 472.961 557.743 C 473.596 563.189, 473.712 563.240, 489.004 564.904 C 519.546 568.227, 557.171 564.141, 584.883 554.491 C 639.578 535.447, 671.459 499.704, 680.750 447.012 C 683.807 429.679, 682.582 358.877, 678.848 337 C 677.942 331.692, 676.843 329.308, 672.860 324 C 666.486 315.505, 658.432 299.893, 654.290 288 L 650.982 278.500 651.572 287.141 C 652.423 299.615, 649.241 300.428, 641.620 289.684 C 630.183 273.560, 621.444 247.047, 619.394 222.250 C 618.662 213.385, 618.329 212.872, 615.405 216.108 C 612.117 219.747, 596.898 231.479, 587 238.004 C 562.750 253.990, 526.084 268, 508.494 268 C 498.550 268, 498.698 266.016, 509.250 257.920 C 519.869 249.773, 536.979 232.633, 544.284 222.825 C 551.121 213.643, 551.328 212.827, 545.750 217.027 C 524.615 232.940, 488.091 254.820, 469.710 262.578 C 445.138 272.950, 416.132 276.550, 420.671 268.665 C 421.127 267.873, 428.546 259.411, 437.158 249.862 C 455.185 229.874, 469.370 212.839, 467.818 213.042 C 467.643 213.065, 465.700 214.701, 463.500 216.678 M 153.097 242.750 C 148.031 248.497, 146.872 251, 149.278 251 C 151.077 251, 161.251 239.215, 160.500 238 C 159.382 236.191, 158.224 236.933, 153.097 242.750 M 224.039 238.250 C 224.120 240.842, 234.808 251.573, 236.066 250.325 C 236.976 249.422, 236.014 247.745, 231.903 243.075 C 226.803 237.282, 223.954 235.534, 224.039 238.250 M 191.357 251.513 C 190.625 253.419, 191.333 266.667, 192.213 267.546 C 194.526 269.860, 196.332 256.635, 194.393 251.582 C 193.624 249.579, 192.112 249.545, 191.357 251.513 M 398.189 307.064 C 388.625 311.842, 380 323.106, 380 330.816 C 380 335.113, 381.767 334.961, 390.229 329.933 C 398.384 325.088, 405.402 322.533, 417.377 320.049 C 428.571 317.726, 430.840 314.749, 425.490 309.400 C 419.176 303.085, 408.055 302.133, 398.189 307.064 M 590.812 307.036 C 586.527 309.300, 584 312.509, 584 315.687 C 584 318.583, 585.690 319.394, 596 321.452 C 605.607 323.370, 614.704 326.967, 623.482 332.319 C 631.192 337.020, 633.197 335.961, 630.664 328.528 C 624.778 311.254, 604.021 300.060, 590.812 307.036 M 403.882 308.381 C 395.633 311.329, 389.880 316.394, 385.882 324.230 C 383.296 329.300, 383.860 329.744, 388.869 326.582 C 395.072 322.667, 404.844 319.064, 414.642 317.081 C 425.275 314.928, 426.383 312.954, 419.038 309.250 C 414.045 306.732, 409.262 306.458, 403.882 308.381 M 593 310.181 C 590.525 311.457, 588.359 313.263, 588.187 314.195 C 587.861 315.965, 587.980 316.009, 602.106 319.307 C 609.006 320.918, 619.146 325.275, 624.824 329.069 L 628.148 331.290 626.523 327.395 C 620.649 313.319, 603.750 304.642, 593 310.181 M 329.998 321.238 C 327.696 331.040, 326.758 348.298, 328.500 348.772 C 329.076 348.928, 329.801 345.225, 330.211 340.028 C 330.602 335.070, 331.839 327.150, 332.961 322.428 C 335.386 312.217, 335.399 312, 333.583 312 C 332.620 312, 331.473 314.955, 329.998 321.238 M 407 358.876 C 394.365 363.031, 385.932 373.220, 384.410 386.172 C 383.689 392.304, 384.808 395.487, 388.048 396.515 C 391.727 397.683, 394.636 394.724, 395.297 389.142 C 397.514 370.420, 416.684 362.602, 429.637 375.138 C 432.560 377.967, 433.948 380.523, 437.032 388.763 C 437.827 390.888, 439.135 392.247, 440.781 392.660 C 449.810 394.926, 448.181 378.847, 438.270 367.877 C 431.261 360.119, 416.310 355.815, 407 358.876 M 589.147 359.025 C 577.180 361.515, 566.565 373.344, 564.666 386.304 C 563.368 395.161, 573.676 396.933, 575.580 388.180 C 579.143 371.792, 594.785 364.435, 607.525 373.155 C 611.665 375.989, 615.669 383.009, 616.594 389.057 C 617.567 395.412, 618.630 397, 621.913 397 C 626.027 397, 627.532 394.586, 627.308 388.347 C 626.633 369.592, 607.822 355.138, 589.147 359.025 M 505.502 382.200 C 504.470 390.020, 501.510 395.904, 496.052 400.983 C 490.343 406.294, 487.929 412.354, 489.845 416.559 C 491.433 420.044, 493 418.726, 493 413.906 C 493 406.622, 498.130 401.997, 506.200 402.004 C 513.883 402.010, 518.890 406.498, 519.356 413.796 C 519.674 418.753, 522.389 418.915, 522.774 414 C 523.352 406.595, 517.160 399.851, 508.605 398.568 L 504.156 397.901 506.055 393.608 C 508.256 388.633, 509.107 377.928, 507.351 377.307 C 506.629 377.052, 505.941 378.870, 505.502 382.200 M 306.994 382.875 C 282.970 390.753, 279.970 426.623, 301.500 448.563 C 311.179 458.426, 327.860 465.222, 337.833 463.366 C 340.652 462.842, 341.071 462.418, 340.550 460.623 C 340.210 459.455, 339.249 453.325, 338.414 447 C 336.437 432.021, 333.004 424.659, 327.783 424.201 C 321.638 423.662, 317.467 429.944, 318.745 437.816 C 319.221 440.747, 319.039 441.155, 317.397 440.843 C 315.908 440.560, 315.435 439.465, 315.196 435.756 C 314.742 428.704, 317.241 424.260, 323.219 421.490 L 328.090 419.233 323.795 415.500 C 316.900 409.506, 309.801 407.431, 304.995 410.003 C 302.434 411.373, 301.255 409.317, 303.382 407.190 C 304.465 406.106, 306.750 405.571, 310.296 405.571 C 318.412 405.571, 326.510 411.074, 333.249 421.166 L 335.696 424.831 336.328 410.188 L 336.961 395.544 333.230 391.690 C 325.714 383.925, 314.886 380.287, 306.994 382.875 M 700.407 386.954 C 697.156 388.579, 692.820 391.624, 690.774 393.720 L 687.052 397.531 686.729 412.762 C 686.551 421.140, 686.676 427.658, 687.006 427.247 C 687.336 426.836, 689.470 424.015, 691.748 420.978 C 696.233 415, 699.258 412.439, 705.741 409.132 C 712.395 405.737, 722 406.753, 722 410.851 C 722 412.659, 721.793 412.678, 717.750 411.232 C 713.744 409.799, 713.207 409.839, 708.393 411.918 C 702.398 414.507, 694.343 421.998, 697.547 422.004 C 705.424 422.019, 712.210 435.256, 707.571 441.559 C 706.233 443.378, 706.100 443.389, 705.459 441.735 C 705.082 440.764, 705.011 439.066, 705.300 437.961 C 706.843 432.060, 700.844 424.585, 695.082 425.229 C 691.014 425.685, 686.532 435.367, 684.079 449 C 682.940 455.325, 681.739 461.478, 681.408 462.674 C 680.870 464.617, 681.293 464.921, 685.383 465.535 C 702.527 468.106, 723.866 454.959, 732.750 436.353 C 736.439 428.629, 736.500 428.304, 736.500 416.500 C 736.500 405.761, 736.248 404.027, 734.106 400 C 726.057 384.872, 713.952 380.186, 700.407 386.954 M 384.431 422.758 C 376.715 425.516, 368 433.946, 368 438.650 C 368 440.969, 369.882 440.129, 371.441 437.115 C 379.820 420.912, 405.968 420.256, 414.024 436.047 C 416.739 441.369, 418.506 442.282, 417.632 437.910 C 415.318 426.339, 397.351 418.139, 384.431 422.758 M 615.718 422.037 C 608.035 423.956, 601.498 429.142, 597.920 436.157 C 595.631 440.644, 595.591 441, 597.379 441 C 598.137 441, 599.312 439.661, 599.990 438.025 C 601.689 433.922, 608.866 427.538, 613.584 425.932 C 626.284 421.609, 637.814 426.529, 645.633 439.606 C 647.409 442.577, 648.419 440.425, 646.932 436.836 C 642.432 425.971, 627.779 419.024, 615.718 422.037 M 448.116 450.907 C 446.051 452.215, 449.618 458.886, 453.913 461.747 C 470.345 472.692, 535.920 474.284, 555.561 464.214 C 561.527 461.155, 567.310 453.643, 565.269 451.603 C 564.184 450.518, 552.749 450.987, 539.500 452.660 C 520.953 455.003, 493.951 454.791, 471.753 452.128 C 451.944 449.753, 450.090 449.657, 448.116 450.907 M 440.589 454.108 C 433.126 459.979, 433.290 473.727, 441.011 489.601 C 443.486 494.690, 444.935 496.295, 449.739 499.269 C 452.908 501.231, 456.793 504.193, 458.373 505.851 L 461.247 508.867 464.983 504.184 C 474.398 492.379, 495.174 485.969, 509.966 490.305 C 514.677 491.686, 515.963 491.689, 522.361 490.334 C 534.883 487.681, 548.146 490.325, 558.065 497.451 L 563.031 501.019 566.983 494.905 C 575.411 481.866, 578.178 467.367, 573.828 459.050 C 570.786 453.235, 569.718 453.080, 567.443 458.126 C 565.263 462.961, 559.872 467.228, 553.178 469.417 C 528.995 477.326, 476.532 476.217, 457.027 467.385 C 449.936 464.174, 448.165 462.521, 445.565 456.690 L 443.421 451.881 440.589 454.108 M 367.009 455.250 C 367.023 458.583, 372.486 467.506, 376.288 470.406 C 392.323 482.637, 414.721 475.046, 419.531 455.750 C 420.678 451.151, 417.507 452.363, 416.100 457.062 C 409.691 478.453, 377.095 478, 369.974 456.421 C 368.694 452.543, 366.995 451.872, 367.009 455.250 M 595.758 453.575 C 594.124 455.209, 598.575 464.297, 603.165 468.699 C 617.174 482.135, 641.381 477.005, 647.405 459.324 C 648.346 456.563, 648.510 454.815, 647.867 454.418 C 647.317 454.078, 646.784 453.957, 646.683 454.150 C 646.583 454.342, 645.206 457.090, 643.624 460.256 C 638.582 470.349, 628.971 475.081, 617.811 472.964 C 608.917 471.277, 600.162 463.565, 598.487 455.942 C 597.867 453.116, 596.983 452.350, 595.758 453.575 M 491.715 492.990 C 477.049 495.608, 460.293 509.828, 465.079 515.595 C 465.795 516.457, 468.973 518.472, 472.141 520.071 C 492.884 530.542, 519.269 530.262, 540.128 519.349 C 546.979 515.764, 560 505.697, 560 503.984 C 560 502.082, 551.568 496.947, 545.230 494.989 C 528.933 489.956, 507.157 496.040, 497.554 508.310 C 495.710 510.667, 494.787 511.187, 493.945 510.345 C 492.482 508.882, 498.513 502.054, 505.314 497.475 C 507.977 495.681, 509.767 493.974, 509.293 493.681 C 507.546 492.601, 496.356 492.161, 491.715 492.990 M 413.224 498.916 C 393.641 506.167, 383.125 525.533, 388.469 544.500 C 391.324 554.629, 391.324 554.643, 388.906 557.914 C 385.796 562.119, 387.253 563.604, 392.845 561.928 C 397.467 560.544, 399.074 561.295, 401.264 565.866 C 402.929 569.339, 405.305 569.631, 409.218 566.845 C 414.132 563.345, 418.775 563.778, 424.544 568.273 C 430.206 572.684, 432.283 572.910, 434.703 569.378 C 440.154 561.425, 443.971 560.197, 450.880 564.173 C 455.003 566.546, 458 566.146, 458 563.223 C 458 559.605, 460.463 557.651, 464.807 557.821 C 470.038 558.026, 470.645 556.920, 467.409 553.075 C 464.911 550.106, 464.855 549.773, 466.029 544.879 C 470.151 527.698, 460.386 507.690, 444.236 500.225 C 436.398 496.602, 421.204 495.961, 413.224 498.916 M 410.359 506.923 C 404.018 510.790, 404.799 513.604, 411.303 510.324 C 413.611 509.160, 416.316 507.939, 417.313 507.611 C 418.311 507.283, 418.847 506.561, 418.504 506.007 C 417.521 504.415, 413.782 504.836, 410.359 506.923 M 420.655 514.829 C 418.654 517.039, 418.509 519, 420.345 519 C 421.946 519, 425 515.832, 425 514.171 C 425 512.395, 422.518 512.770, 420.655 514.829 M 397.783 518.750 C 393.838 523.274, 392.651 530.635, 395.488 532.990 C 397.634 534.771, 403.606 528.619, 404.534 523.668 C 405.636 517.798, 401.342 514.670, 397.783 518.750 M 398.465 523.068 C 397.593 524.755, 397.024 527.117, 397.201 528.318 C 397.520 530.472, 397.545 530.468, 399.194 528 C 401.406 524.690, 402.543 520, 401.134 520 C 400.539 520, 399.337 521.380, 398.465 523.068 M 432.209 524.566 C 430.028 526.094, 429.163 529, 430.889 529 C 431.378 529, 432.841 528.132, 434.139 527.071 C 437.265 524.517, 435.517 522.249, 432.209 524.566 M 410.479 528.024 C 409.238 529.394, 408.975 530.375, 409.664 531.064 C 411.008 532.408, 415.599 528.779, 414.600 527.162 C 413.575 525.504, 412.568 525.714, 410.479 528.024 M 518 541.650 C 513.421 543.128, 499.745 543.017, 493.619 541.453 C 491.390 540.883, 490.842 541.031, 491.193 542.108 C 493.256 548.427, 522.632 548.104, 523.820 541.750 C 524.199 539.721, 523.987 539.718, 518 541.650 M 461.314 564.978 C 459.405 570.036, 455.853 570.850, 449.570 567.669 C 443.320 564.504, 441.612 564.880, 439 570 C 435.757 576.357, 429.784 576.906, 422.704 571.500 C 417.258 567.342, 415.115 567.170, 410.215 570.500 C 404.497 574.386, 400.294 573.538, 398.016 568.038 C 396.639 564.713, 395.810 564.473, 391.232 566.069 C 385.563 568.045, 384.458 580, 388.998 590.262 C 390.926 594.620, 390.972 595.202, 389.551 597.231 C 385.793 602.596, 388.812 606.694, 393.869 603.093 C 397.833 600.270, 399.475 600.453, 402 604 C 404.648 607.719, 407.643 607.860, 412.595 604.500 C 417.310 601.301, 418.592 601.355, 424.339 605 C 426.941 606.650, 430.388 608, 432 608 C 433.830 608, 436.213 606.874, 438.347 605 C 442.660 601.214, 447.141 601.052, 452.215 604.500 C 457.163 607.862, 458.511 607.663, 460.668 603.250 C 462.708 599.074, 466.698 597.727, 468.958 600.449 C 472.443 604.649, 475.332 601.018, 472.847 595.563 C 471.933 593.558, 472.060 591.478, 473.455 585.552 C 475.413 577.238, 474.685 571.299, 470.955 565.166 C 468.238 560.698, 462.969 560.595, 461.314 564.978 M 477.486 572.657 C 478.631 578.421, 478.697 578.504, 482.323 578.810 L 486 579.121 486 573.560 C 486 568.790, 485.734 568, 484.125 568 C 483.094 568, 480.917 567.733, 479.287 567.407 L 476.325 566.815 477.486 572.657 M 532.320 571.559 C 522.788 575.154, 512.083 577, 500.761 577 L 490.438 577 489.274 580.085 C 488.342 582.555, 487.702 583.040, 486.064 582.520 C 476.599 579.516, 488.873 596.402, 499.606 601.150 C 516.280 608.526, 536.620 603.348, 545.878 589.371 C 549.805 583.442, 549.836 582, 546.035 582 C 542.361 582, 541 579.720, 541 573.566 C 541 568.295, 540.983 568.291, 532.320 571.559 M 550.555 588.477 C 547.253 595.226, 539.487 602.242, 532 605.241 C 522.866 608.899, 506.598 608.499, 498 604.405 C 490.540 600.854, 483.872 594.621, 480.501 588.050 C 478.979 585.081, 477.995 584.021, 477.672 585 C 475.344 592.043, 475.272 592.704, 476.581 595.066 C 477.322 596.405, 477.945 598.685, 477.965 600.134 C 478.026 604.724, 487.943 612.360, 498.649 616.061 C 522.236 624.215, 550.201 613.552, 560.099 592.628 C 563.727 584.961, 563.713 584.393, 559.875 583.625 C 553.989 582.448, 553.339 582.786, 550.555 588.477 M 565.999 587.250 C 565.998 589.952, 560.051 600.745, 556.136 605.152 C 537.523 626.102, 501.587 628.353, 480.605 609.884 C 477.143 606.836, 474.930 605.671, 472.469 605.599 L 469.088 605.500 467.553 612.500 C 466.708 616.350, 465.296 623.035, 464.414 627.355 L 462.810 635.209 465.941 638.439 C 471.775 644.458, 471.032 652.633, 464.029 659.471 L 460.090 663.318 462.634 666.341 C 465.528 669.781, 465.346 673.626, 462.077 678.087 C 460.815 679.809, 460.480 681.147, 461.075 682.087 C 464.001 686.709, 460.526 694.435, 453.731 698.417 L 449.337 700.993 446.529 713.246 C 443.158 727.959, 442.362 729.871, 439.288 730.642 C 435.696 731.544, 433.550 728.876, 429.861 718.920 C 427.027 711.272, 426.230 710, 424.278 710 C 423.025 710, 422 710.350, 422 710.779 C 422 711.207, 419.318 715.705, 416.040 720.774 L 410.080 729.990 408.512 744.210 C 407.649 752.030, 405.156 769.284, 402.972 782.551 C 400.787 795.818, 399 807.347, 399 808.172 C 399 810.802, 428.918 819.237, 453 823.395 C 508.926 833.053, 568.185 828.753, 631.892 810.414 L 637.284 808.861 636.629 800.341 C 635.289 782.907, 627.652 742.659, 614.414 683.275 C 610.149 664.143, 609.596 659.014, 611.956 660.473 C 613.269 661.285, 614.255 665.040, 619.566 689.479 C 622.074 701.018, 624.332 710.665, 624.584 710.917 C 626.508 712.842, 652.927 698.933, 662.971 690.708 L 669.036 685.741 663.429 675.120 C 646.780 643.584, 625.248 616.651, 606.653 604.103 C 591.071 593.589, 566.002 583.196, 565.999 587.250 M 463.689 606.500 C 463.305 607.600, 461.418 609.517, 459.496 610.759 C 455.196 613.538, 455.173 614.126, 459.230 617.540 L 462.459 620.257 463.752 613.879 C 465.080 607.333, 465.039 602.626, 463.689 606.500 M 399.559 610.750 C 400.364 613.362, 401.297 616.539, 401.634 617.809 L 402.246 620.117 404.584 617.921 L 406.921 615.726 403.460 611.683 C 401.557 609.459, 400 607.271, 400 606.820 C 400 606.369, 399.572 606, 399.048 606 C 398.517 606, 398.743 608.100, 399.559 610.750 M 415.244 611.040 L 410.988 615.830 415.504 620.346 L 420.020 624.862 424.419 620.207 L 428.817 615.552 426.869 612.816 C 425.797 611.311, 423.701 609.218, 422.210 608.164 L 419.500 606.249 415.244 611.040 M 437.958 610.555 L 433.500 615.111 438.401 619.753 L 443.302 624.395 447.573 619.472 L 451.844 614.549 448.172 610.369 C 443.524 605.077, 443.316 605.080, 437.958 610.555 M 450.403 608.835 C 452 610.537, 453.755 611.651, 454.305 611.312 C 455.311 610.690, 453.311 608.810, 449.500 606.797 C 448.089 606.052, 448.356 606.653, 450.403 608.835 M 410.649 609.473 C 408.101 610.984, 407.206 612.009, 408.005 612.503 C 408.730 612.951, 410.461 612.001, 412.337 610.125 C 415.985 606.476, 415.813 606.410, 410.649 609.473 M 449.681 621.528 L 445.862 625.868 449.572 626.892 C 454.333 628.207, 458 631.665, 458 634.841 C 458 638.743, 458.829 636.962, 460.318 629.861 L 461.685 623.339 457.910 620.169 C 453.411 616.393, 454.334 616.240, 449.681 621.528 M 389.422 624.120 C 380.781 630.858, 349 661.971, 349 663.692 C 349 664.278, 352.488 667.366, 356.750 670.555 C 361.012 673.743, 365.879 677.387, 367.563 678.652 L 370.627 680.953 377.285 676.318 C 383.531 671.970, 384.076 671.276, 386.111 665.092 C 389.462 654.906, 393.672 647.275, 398.732 642.215 L 403.352 637.595 401.038 628.548 C 399.766 623.571, 398.414 619.150, 398.034 618.722 C 397.654 618.294, 393.779 620.723, 389.422 624.120 M 406.099 620.768 C 403.831 623.348, 403.761 623.803, 404.835 628.936 C 406.315 636.007, 407.152 636.740, 410.791 634.149 C 417.083 629.669, 417.565 627.527, 413.422 622.470 C 409.124 617.225, 409.198 617.242, 406.099 620.768 M 426.958 622.543 C 422.293 627.296, 422.354 629.952, 427.087 628.161 C 428.414 627.659, 431.891 626.922, 434.812 626.522 C 440.052 625.805, 440.100 625.768, 438.312 623.790 C 437.316 622.687, 435.335 620.954, 433.912 619.939 L 431.324 618.094 426.958 622.543 M 432.500 630.446 C 426.244 631.910, 416.698 635.592, 409.002 639.509 C 399.871 644.157, 393.032 653.720, 389.338 667.009 C 387.647 673.089, 387.476 673.290, 378.061 680.247 C 364.510 690.260, 350.955 702.178, 345.870 708.550 C 341.721 713.749, 340.063 714.690, 339.265 712.296 C 338.662 710.486, 348.327 699.719, 357.920 691.513 C 362.914 687.243, 366.982 683.467, 366.959 683.124 C 366.936 682.781, 364.023 680.360, 360.484 677.746 L 354.051 672.991 347.137 683.296 C 333.729 703.281, 327.918 717.792, 327.836 731.500 C 327.700 754.244, 345.101 769.468, 365.500 764.450 C 380.040 760.873, 400.100 740.844, 416.121 713.905 L 420.043 707.311 428.272 705.120 C 448.784 699.658, 462.264 689.846, 457.745 683.665 C 456.586 682.081, 456.104 682.065, 451.495 683.463 C 445.235 685.362, 442 685.411, 442 683.608 C 442 682.715, 444.496 681.604, 448.959 680.510 C 456.601 678.637, 461.009 675.444, 460.985 671.798 C 460.944 665.728, 457.052 664.438, 446.406 666.966 C 441.683 668.088, 437.387 668.739, 436.861 668.414 C 434.695 667.075, 438.631 664.963, 446.350 663.321 C 458.242 660.791, 462.849 655.787, 457.750 650.939 C 455.683 648.973, 454.769 648.848, 446.500 649.391 C 441.550 649.716, 436.038 650.262, 434.250 650.604 C 431.669 651.099, 431 650.895, 431 649.613 C 431 648.726, 431.412 648, 431.915 648 C 434.567 648, 449.701 641.345, 452.272 639.049 C 459.942 632.195, 447.730 626.882, 432.500 630.446 M 460.973 644.099 C 460.058 647.500, 460.136 648.493, 461.435 649.928 C 462.296 650.879, 463 652.436, 463 653.388 C 463 656.170, 464.839 654.243, 465.920 650.328 C 466.663 647.635, 466.560 645.882, 465.508 643.365 C 463.644 638.904, 462.314 639.120, 460.973 644.099 M 453.671 642.877 L 450.842 644.744 453.539 645.420 C 456.745 646.225, 457.270 645.854, 456.831 643.091 C 456.504 641.037, 456.465 641.034, 453.671 642.877 M 650.162 704.063 C 645.576 706.702, 638.376 710.090, 634.162 711.592 C 629.948 713.095, 626.192 714.588, 625.816 714.912 C 625.439 715.235, 626.700 722.925, 628.616 732 C 636.934 771.374, 641.857 803.736, 640.409 809.506 C 640.054 810.919, 638.709 812.081, 636.789 812.632 L 633.733 813.508 633.932 823.504 C 634.122 833.111, 638.562 868.131, 638.939 863 C 639.040 861.625, 639.208 854.200, 639.311 846.500 C 639.454 835.928, 639.812 832.500, 640.773 832.500 C 641.728 832.500, 642.104 835.766, 642.273 845.547 C 642.456 856.087, 642.841 859.113, 644.273 861.297 C 648.043 867.045, 651.625 863.560, 655.980 849.908 C 658.829 840.980, 660.364 838.698, 662.253 840.587 C 662.576 840.909, 662.108 843.148, 661.214 845.562 C 659.678 849.704, 659.696 850.246, 661.522 855.225 C 663.022 859.313, 663.412 862.717, 663.256 870.351 C 662.830 891.117, 671.177 891.480, 676.666 870.934 C 679.502 860.319, 678.993 841.874, 675.537 830 C 672.974 821.195, 672.716 818.635, 672.003 795 C 671.233 769.473, 670.230 757.219, 667.381 738.500 C 665.767 727.897, 660.228 702.264, 659.144 700.382 C 658.723 699.652, 655.608 700.928, 650.162 704.063 M 442.047 706.934 C 440.092 709.680, 440.021 710.192, 441.339 712.074 C 442.737 714.070, 442.849 713.948, 443.831 709.345 C 445.095 703.419, 444.817 703.044, 442.047 706.934 M 430.607 708.826 C 429.898 709.973, 431.046 714, 432.081 714 C 433.722 714, 434.973 710.373, 433.753 709.153 C 432.394 707.794, 431.315 707.682, 430.607 708.826 M 435.112 715.380 L 432.825 717.815 434.896 722.497 C 437.375 728.102, 438.992 727.950, 440.730 721.949 C 441.926 717.819, 441.863 717.408, 439.702 715.247 L 437.400 712.945 435.112 715.380 M 567.934 731.140 C 545.338 758.486, 512.541 779.513, 473.750 791.526 C 468.202 793.244, 465 794.749, 465 795.637 C 465 797.383, 466.629 797.025, 482.500 791.794 C 502.773 785.112, 525.751 773.193, 541.312 761.287 C 558.045 748.486, 582.499 721, 577.156 721 C 576.692 721, 572.542 725.563, 567.934 731.140 M 579.500 764.575 C 564.617 777.596, 543.467 788, 520.613 793.542 C 510.447 796.008, 509.183 796.516, 510.339 797.672 C 512.405 799.738, 538.066 792.524, 551.630 786.063 C 566.115 779.163, 586.935 764.322, 585.465 761.943 C 584.560 760.479, 583.795 760.817, 579.500 764.575 M 617.500 817.836 C 612 819.279, 607.323 820.570, 607.106 820.707 C 606.097 821.342, 610.583 830.558, 614.015 834.900 C 619.256 841.530, 632.020 847.814, 631.991 843.750 C 631.987 843.063, 631.315 836.875, 630.500 830 C 629.685 823.125, 629.013 816.938, 629.009 816.250 C 628.998 814.734, 629.704 814.636, 617.500 817.836 M 410.548 819.250 C 409.765 821.762, 407.814 846.147, 408.352 846.685 C 409.531 847.864, 415.948 845.820, 419.779 843.045 C 424.938 839.308, 428.668 834.380, 431.018 828.195 L 432.888 823.273 422.694 820.629 C 410.953 817.583, 411.063 817.596, 410.548 819.250 M 589.029 824.207 C 559.266 830.188, 546.025 831.460, 513.500 831.465 C 494.342 831.468, 480.067 830.999, 474 830.167 C 463.448 828.719, 441.656 825.173, 438.409 824.376 C 436.617 823.936, 436.006 824.720, 434.135 829.850 C 430.267 840.459, 420.712 849.063, 411.092 850.601 C 407.929 851.107, 407 851.697, 407 853.202 C 407 854.272, 406.121 866.027, 405.047 879.324 C 403.972 892.621, 402.927 906.369, 402.724 909.875 L 402.354 916.250 405.745 917.667 C 424.301 925.420, 472.132 930.796, 499.343 928.186 C 505.307 927.614, 510.382 926.951, 510.621 926.712 C 510.860 926.473, 512.366 916.213, 513.967 903.911 C 517.145 879.504, 517.213 880.053, 511 880.002 C 506.248 879.962, 503 879.001, 503 877.633 C 503 876.826, 508.898 876.500, 523.524 876.500 C 541.230 876.500, 544.010 876.706, 543.761 878 C 543.560 879.043, 541.510 879.742, 537.023 880.296 C 533.476 880.734, 530.421 881.245, 530.234 881.432 C 529.871 881.796, 536.045 924.272, 536.543 924.837 C 538.888 927.495, 582.923 927.268, 601 924.504 C 612.380 922.765, 631.409 918.109, 637.439 915.590 L 641.199 914.019 640.519 907.760 C 640.146 904.317, 638.551 892.275, 636.976 881 C 635.401 869.725, 633.812 857.923, 633.444 854.774 C 632.786 849.138, 632.719 849.038, 629.138 848.404 C 619.590 846.711, 611.325 839.522, 605.683 828 L 602.500 821.500 589.029 824.207 M 654.833 861.872 C 648.546 875.140, 649.098 892.691, 655.736 890.584 C 659.732 889.316, 660.612 885.369, 660.038 871.298 C 659.402 855.697, 658.518 854.096, 654.833 861.872 M 641.062 871.565 C 639.945 877.979, 640.507 885.577, 642.175 886.608 C 644.086 887.789, 645.748 884.751, 646.854 878.056 C 648.422 868.558, 648.388 868.340, 645.082 866.691 L 642.164 865.235 641.062 871.565 M 250.327 920.750 C 248.709 924.611, 248.996 937.606, 250.923 947.743 L 251.729 951.986 246.432 946.473 C 236.084 935.704, 227.476 936.446, 232.165 947.703 C 234.120 952.394, 243.360 966.924, 244.721 967.446 C 247.213 968.403, 245.944 964.684, 241.493 957.989 C 237.140 951.442, 234 945.173, 234 943.032 C 234 939.059, 244.238 947.292, 250.166 956.032 C 255.971 964.592, 257.361 961.965, 254.418 948 C 252.768 940.172, 251.969 921.702, 253.226 920.443 C 255.738 917.924, 260.780 931.002, 262.887 945.500 C 264.932 959.573, 265.040 960, 266.540 960 C 267.337 960, 268.982 957.889, 270.195 955.309 C 271.408 952.729, 274.304 948.631, 276.631 946.202 C 283.925 938.590, 285.868 942.296, 281.061 954.653 C 277.816 962.996, 277.412 965, 278.974 965 C 281.005 965, 287 950.060, 287 944.998 C 287 942.267, 284.343 939, 282.122 939 C 279.199 939, 274.830 942.391, 271.173 947.497 L 267.231 953.004 266.041 944.865 C 262.718 922.142, 254.821 910.023, 250.327 920.750 M 762.968 928.339 C 761.201 932.333, 759.851 939.154, 758.439 951.218 L 757.887 955.936 751.983 949.902 C 746.813 944.618, 745.669 943.907, 742.789 944.184 C 739.583 944.492, 739.501 944.617, 739.554 949.104 C 739.613 954.178, 747.156 969, 749.678 969 C 751.573 969, 751.300 966.959, 748.942 963.500 C 743.070 954.882, 740.401 947, 743.355 947 C 745.053 947, 753.801 956.234, 756.898 961.297 C 760.591 967.333, 761.440 965.711, 762.067 951.420 C 762.603 939.190, 764.734 928.901, 767.022 927.486 C 768.738 926.426, 769.989 934.722, 769.994 947.191 C 770 960.739, 770.877 963.236, 773.759 957.918 C 777.782 950.497, 785.163 940.123, 787.520 938.579 C 793.090 934.929, 792.911 938.578, 786.856 952.132 C 784.735 956.880, 783 961.241, 783 961.823 C 783 964.140, 785.303 964.087, 787.831 961.711 C 791.411 958.348, 797.096 955.008, 799.250 955.004 C 801.919 954.998, 801.358 957.377, 797.500 962.432 C 793.716 967.390, 793.205 969, 795.415 969 C 796.849 969, 803.137 961.021, 804.338 957.678 C 806.272 952.294, 800.106 950.375, 792.817 954.093 C 788.996 956.043, 788.769 956.060, 789.504 954.343 C 794.337 943.059, 795.260 939.045, 793.604 936.518 C 790.351 931.554, 783.898 935.364, 776.934 946.360 L 773.223 952.220 772.861 940.815 C 772.582 932.030, 772.092 928.789, 770.726 926.705 C 768.040 922.605, 765.244 923.193, 762.968 928.339 M 602.531 943.552 C 597.858 947.085, 591.301 947.355, 583.437 944.338 C 582.585 944.011, 582 944.391, 582 945.272 C 582 946.757, 585.084 948.367, 590.232 949.570 C 595.944 950.904, 608.273 945.868, 606.463 942.940 C 605.677 941.668, 604.855 941.796, 602.531 943.552 M 438.230 944.189 C 439.874 949.122, 453.531 951.845, 459.959 948.521 C 463.926 946.470, 462.805 944.363, 458.598 945.963 C 454.130 947.662, 446.846 947.204, 443.226 944.996 C 439.523 942.739, 437.645 942.435, 438.230 944.189" stroke="none" fill="#1a1a1a" fill-rule="evenodd"/>
</svg>