<svg xmlns="http://www.w3.org/2000/svg" width="1024" height="1024" viewBox="0 0 1024 1024" version="1.1">
	<path d="M 457 98.950 C 384.969 112.182, 307.083 189.460, 290.649 264 C 283.814 295.007, 284.664 329.270, 293.280 369.995 L 295.500 380.490 291.032 383.495 C 267.565 399.276, 278.407 448.875, 310 470.276 C 312.475 471.952, 314.658 473.446, 314.851 473.596 C 315.437 474.051, 319.814 492.930, 321.551 502.500 C 323.764 514.687, 324.593 538.857, 323.052 546.263 C 318.039 570.356, 296.448 585.158, 281.590 574.686 L 278.679 572.635 279.314 576.568 C 283.106 600.035, 312.602 620.388, 344.500 621.548 C 350.685 621.773, 357.170 622.700, 361.500 623.978 C 368.085 625.923, 392.597 628.993, 401.573 628.998 L 405.646 629 402.905 634.750 C 397.872 645.306, 397.359 655.993, 401.502 664.004 C 402.939 666.783, 402.924 667.445, 401.323 671.954 C 399.687 676.560, 399.682 676.992, 401.253 678.727 C 402.779 680.414, 402.799 681.069, 401.468 686.040 C 400.235 690.643, 388 751.026, 388 752.505 C 388 752.777, 342.738 753, 287.417 753 C 207.394 753, 186.919 753.256, 187.250 754.250 C 187.580 755.240, 221.146 755.604, 348.837 756 L 510.007 756.500 511.754 759.999 C 512.714 761.923, 514.737 764.085, 516.250 764.803 C 519.502 766.347, 519.761 767.624, 517 768.500 C 515.144 769.089, 515 770.013, 515 781.303 L 515 793.472 512.750 790.289 C 509.151 785.198, 504.166 783.650, 500.441 786.469 C 499.073 787.504, 497.140 787.766, 493.890 787.358 C 488.968 786.740, 485.561 787.912, 483 791.103 C 481.694 792.731, 481.030 792.828, 477.856 791.851 C 473.068 790.377, 469.767 791.312, 465.206 795.433 C 462.343 798.020, 460.626 798.791, 457.905 798.714 C 452.793 798.569, 448.833 800.543, 446.241 804.527 C 444.998 806.437, 443.389 808, 442.665 808 C 437.452 808, 434.311 819.523, 437.738 826.077 C 439.295 829.055, 439.537 831.265, 439.186 839.289 L 438.765 848.924 434.248 850.650 C 425.898 853.838, 418.177 859.583, 415.877 864.316 L 413.761 868.671 415.762 873.194 C 419.543 881.742, 429.477 886.885, 464.835 898.600 C 482.629 904.495, 518.708 907.421, 544.889 905.092 C 556.706 904.041, 577.791 900.543, 578.881 899.452 C 579.100 899.233, 580.004 900.504, 580.890 902.277 C 583.359 907.219, 587.856 907.928, 595.724 904.616 C 605.995 900.293, 614.827 902.069, 605.030 906.487 C 597.672 909.804, 595.991 914.106, 601.009 916.775 C 603.471 918.084, 607.814 918.008, 621.058 916.424 C 625.875 915.848, 627.400 916.130, 632.492 918.540 C 638.019 921.154, 638.669 921.247, 643.434 920.103 C 652.801 917.855, 655.382 917.727, 665.202 919.027 C 675.634 920.407, 681.409 919.622, 684.028 916.466 C 685.788 914.346, 683.991 910.698, 680.036 908.362 C 673.793 904.674, 676.479 903.107, 692.371 901.164 C 709.599 899.059, 706.947 890.520, 688.216 887.790 C 681.447 886.804, 678.323 886.892, 668.342 888.351 C 652.687 890.641, 645 889.025, 650.004 884.497 C 651.102 883.503, 652 882.090, 652 881.358 C 652 880.625, 653.828 878.871, 656.061 877.461 C 663.535 872.744, 659.685 866.599, 648.500 865.392 C 644.380 864.948, 641.115 863.845, 638.079 861.872 C 635.528 860.216, 632.291 859, 630.429 859 C 628.432 859, 625.324 857.737, 622.282 855.689 C 619.576 853.869, 614.243 851.124, 610.431 849.590 C 606.619 848.057, 602.854 846.478, 602.063 846.082 C 600.205 845.151, 597.730 834.401, 598.861 832.173 C 599.329 831.253, 599.764 827.240, 599.829 823.255 C 599.978 814.016, 600.534 814.363, 577 809.019 C 566.825 806.708, 551.424 802.988, 542.776 800.751 L 527.053 796.684 526.776 782.592 C 526.507 768.835, 526.446 768.492, 524.250 768.180 C 521.221 767.750, 521.467 766.880, 525.289 764.500 C 527.055 763.400, 529.175 761.048, 530 759.274 L 531.500 756.049 683.917 755.774 C 804.765 755.557, 836.420 755.241, 836.750 754.250 C 837.081 753.256, 816.606 753, 736.583 753 C 681.262 753, 636 752.692, 636 752.317 C 636 750.668, 628.565 712.021, 625.385 697.140 C 622.105 681.791, 621.993 680.666, 623.561 678.933 C 625.123 677.207, 625.118 676.771, 623.489 672.239 C 621.827 667.617, 621.828 667.233, 623.524 663.954 C 627.464 656.334, 626.416 643.852, 620.914 632.889 L 619.102 629.279 626.801 628.695 C 645.225 627.296, 655.993 625.868, 662.514 623.957 C 666.694 622.732, 673.516 621.747, 679.500 621.504 C 710.467 620.246, 737.717 602.335, 743.964 579.132 C 745.436 573.668, 745.109 573.394, 740.137 575.930 C 725.263 583.518, 706.332 569.547, 700.938 547 C 696.917 530.196, 703.776 477.588, 710.651 472.500 C 724.347 462.364, 730.948 454.811, 737.474 441.812 C 749.595 417.669, 746.634 390.716, 730.957 382.496 L 728.414 381.163 731.159 367.331 C 739.296 326.339, 739.067 285.877, 730.506 251.873 C 721.544 216.273, 703.800 186.430, 675.203 158.860 C 621.372 106.960, 568.421 87.186, 520.500 101.088 L 513.500 103.119 504 100.508 C 490.736 96.863, 471.782 96.235, 457 98.950 M 467 100.626 C 421.037 106.455, 372.665 136.614, 335.684 182.500 C 291.920 236.801, 280.320 290.099, 295.770 365.895 L 298.500 379.289 304.546 379.514 C 307.872 379.637, 312.012 380.472, 313.747 381.369 C 317.964 383.550, 317.919 383.587, 316.859 378.868 C 315.900 374.600, 316.443 372.259, 317.616 375.607 C 319.120 379.899, 324.165 391.673, 325.498 394 C 326.823 396.314, 326.932 395.853, 326.965 387.784 C 327.042 368.840, 332.111 343.959, 338.805 329.675 C 348.752 308.449, 363.177 293.664, 395.570 271.494 C 441.459 240.088, 469.298 216.329, 484.906 195.250 C 491.065 186.934, 491.480 186.605, 489.333 191.750 C 479.920 214.300, 463.227 237.929, 440.972 260.205 C 424.819 276.372, 424.996 276.980, 442.775 266.398 C 472.887 248.477, 501.232 217.635, 512.164 190.899 C 515.791 182.027, 515.789 182.027, 519.509 191 C 536.250 231.383, 575.303 271.465, 613.919 287.897 C 622.614 291.598, 623.554 291.399, 618.036 287.028 C 603.783 275.740, 583.706 245.874, 571.076 217.172 C 565.948 205.519, 565.923 204.472, 570.994 213.775 C 588.488 245.867, 619.250 275.130, 660.096 298.534 C 681.676 310.898, 695.426 321.431, 699.215 328.500 C 699.805 329.600, 697.635 328.001, 694.394 324.947 C 691.152 321.893, 686.447 317.992, 683.938 316.278 L 679.375 313.162 683.638 323.831 C 691.039 342.355, 695.410 362.994, 696.697 385.500 L 697.326 396.500 700.002 390.500 C 701.473 387.200, 703.685 381.350, 704.917 377.500 C 706.149 373.650, 707.357 369.873, 707.602 369.107 C 708.830 365.263, 708.736 369.421, 707.456 375.539 C 706.655 379.367, 706 382.589, 706 382.699 C 706 382.808, 707.626 382.219, 709.613 381.388 C 711.600 380.558, 715.982 379.794, 719.351 379.689 L 725.476 379.500 728.169 366 C 737.302 320.202, 735.629 275.544, 723.412 239.029 C 710.129 199.328, 684.815 166.789, 642.421 134.924 C 601.914 104.477, 561.187 93.775, 523.019 103.550 C 514.462 105.742, 511.983 106.035, 509.519 105.150 C 500.159 101.786, 477.151 99.338, 467 100.626 M 537 113.691 C 533.224 114.323, 524.813 117.146, 525.288 117.622 C 525.518 117.851, 528.810 117.287, 532.603 116.368 C 539.878 114.605, 558.196 113.983, 568 115.165 L 573.500 115.829 568.500 114.510 C 563.819 113.276, 542.752 112.728, 537 113.691 M 513.261 134.500 C 513.226 144.950, 513.540 155.975, 513.958 159 C 514.958 166.231, 515.024 133.525, 514.031 123 C 513.503 117.409, 513.307 120.336, 513.261 134.500 M 473.500 119.608 C 465.669 120.757, 454.733 123.511, 447.197 126.231 C 437.128 129.865, 436.788 130.973, 446.785 127.573 C 462.576 122.202, 481.624 120.225, 498.500 122.204 L 504.500 122.907 500 121.393 C 495.500 119.879, 479.157 118.778, 473.500 119.608 M 535 129.869 C 532.404 130.391, 534.340 130.737, 542.500 131.210 C 564.587 132.490, 584.884 138.321, 608 150.029 C 615.425 153.789, 620.464 156.018, 619.198 154.981 C 615.352 151.830, 592.045 140.400, 582.943 137.201 C 566.764 131.513, 544.084 128.045, 535 129.869 M 474.829 137.019 C 462.016 139.782, 452.160 143.359, 436.316 150.995 C 423.153 157.339, 403.684 169.266, 400.781 172.763 C 400.093 173.593, 403.797 171.464, 409.015 168.031 C 432.270 152.729, 459.726 141.714, 486.500 136.945 L 496.500 135.164 490 135.156 C 486.425 135.152, 479.598 135.990, 474.829 137.019 M 535.500 163.635 C 570.857 171.067, 605.059 190.717, 637.959 222.500 C 646.319 230.575, 650.286 233.961, 647.334 230.500 C 628.159 208.017, 599.138 185.663, 574.761 174.601 C 561.014 168.363, 539.122 161.961, 532 162.096 C 529.426 162.145, 530.352 162.552, 535.500 163.635 M 671.780 195 C 698.036 227.476, 714.540 267.844, 718.521 309.329 C 718.881 313.084, 719.404 315.929, 719.683 315.651 C 722.001 313.332, 715.332 274.923, 709.860 259.079 C 701.852 235.890, 679.644 198.894, 668.374 189.965 C 667.357 189.159, 668.890 191.425, 671.780 195 M 512.321 197.750 C 496.552 231.541, 455.668 268.285, 420.827 279.978 C 411.543 283.094, 410.950 282.277, 418.464 276.716 C 436.992 263.002, 463.487 232.941, 475.503 212 C 475.976 211.175, 470.742 215.900, 463.870 222.500 C 456.998 229.100, 446.679 238.162, 440.938 242.638 C 430.714 250.609, 424.898 254.807, 392.070 277.911 C 351.494 306.470, 337.668 327.114, 331.558 368.265 C 326.583 401.768, 337.069 468.137, 352.072 498.110 C 355.926 505.808, 365.629 519.475, 370.400 523.924 C 373.539 526.852, 373.537 526.873, 370.844 520 C 366.391 508.634, 368.155 496.827, 376.521 482 C 385.189 466.639, 386.477 454.177, 381 438.660 C 379.350 433.985, 377.991 428.887, 377.980 427.330 C 377.964 424.994, 377.070 423.976, 372.860 421.500 C 367.847 418.551, 362.157 412.510, 363.308 411.359 C 363.631 411.036, 365.132 411.745, 366.644 412.935 L 369.393 415.097 370.686 412.630 C 372.369 409.417, 377.762 407.579, 381.421 408.970 C 385.301 410.445, 385.377 410.349, 383.177 406.750 C 377.664 397.730, 376.633 385.446, 380.471 374.500 C 380.856 373.400, 378.771 374.990, 375.836 378.033 C 369.231 384.881, 364.108 394.292, 363.308 401.047 L 362.704 406.149 356.321 399.824 C 345.617 389.218, 343.364 382.500, 350.512 382.500 C 354.883 382.500, 355.296 382.218, 363.762 373.468 C 380.047 356.636, 393.554 350.038, 411.782 350.012 C 440.679 349.970, 461.808 374.933, 459.768 406.707 C 459.100 417.120, 457.005 418.809, 456.985 408.950 C 456.970 401.515, 455.262 392.169, 452.880 386.497 C 451.667 383.610, 451.598 383.763, 451.005 390.634 C 450.275 399.086, 445.987 408.689, 440.626 413.881 L 437.134 417.262 439.314 420.381 C 440.512 422.097, 441.566 423.646, 441.655 423.825 C 441.744 424.003, 444.783 423.260, 448.408 422.172 C 456.285 419.809, 456.676 420.117, 450.057 423.471 C 442.113 427.496, 428.621 430.928, 415.803 432.182 C 406.033 433.138, 403.708 433.677, 402.907 435.174 C 401.992 436.884, 402.585 437.008, 412.215 437.118 C 424.193 437.256, 421.262 438.692, 408.616 438.882 L 400.731 439 401.404 446.250 C 403.491 468.736, 403.500 468.595, 399.224 480.500 C 392.469 499.301, 392.674 504.235, 401.009 523.484 C 403.632 529.543, 406.108 536.075, 406.511 538 C 409.474 552.149, 416.763 557, 449.204 566.414 C 501.001 581.445, 532.715 580.398, 588.677 561.808 C 610.610 554.523, 613.340 552.220, 617.177 537.762 C 618.237 533.768, 621.192 526.013, 623.743 520.528 C 630.573 505.846, 630.799 498.916, 624.995 482.103 C 620.394 468.776, 620.439 469.432, 622.588 446.365 L 623.252 439.230 612.376 438.835 C 606.394 438.617, 600.744 438.003, 599.821 437.470 C 598.691 436.818, 602.132 436.618, 610.321 436.860 C 622.372 437.217, 622.481 437.200, 620.727 435.256 C 619.306 433.682, 617.087 433.161, 609.544 432.631 C 598.653 431.865, 583.641 428.297, 575.008 424.423 C 566.915 420.791, 567.384 419.570, 575.776 422.424 L 582.551 424.728 584.265 420.715 L 585.979 416.701 581.900 412.276 C 576.681 406.614, 573.320 399.218, 572.232 391 L 571.371 384.500 569.122 391.500 C 567.885 395.350, 566.608 402.466, 566.284 407.313 C 565.521 418.745, 564.031 416.554, 564.030 404 C 564.028 371.183, 583.073 350.022, 612.702 349.918 C 629.154 349.860, 640.933 355.440, 657.404 371.095 C 668.582 381.720, 670.468 383, 674.934 383 C 676.788 383, 678 383.516, 678 384.304 C 678 386.451, 672.469 394.507, 666.650 400.837 L 661.193 406.773 660.512 402.136 C 659.555 395.629, 654.977 386.585, 648.926 379.250 C 643.916 373.177, 640.838 370.961, 642.986 374.973 C 646.915 382.315, 645.991 395.692, 640.930 404.735 C 637.278 411.260, 637.227 411.032, 641.973 409.397 C 646.636 407.791, 649.791 408.648, 652.664 412.300 C 654.575 414.729, 654.611 414.734, 656.937 412.850 C 658.228 411.805, 659.481 411.148, 659.723 411.389 C 660.820 412.486, 657.360 416.476, 651.690 420.651 C 647.796 423.519, 645.601 425.824, 645.772 426.865 C 645.922 427.775, 644.891 431.890, 643.481 436.010 C 637.194 454.378, 638.045 463.786, 647.719 482.855 C 656.184 499.541, 657.150 507.666, 652.445 522.621 C 652.120 523.655, 654.515 521.664, 657.767 518.198 C 674.951 499.884, 684.014 472.722, 691.947 415.758 C 696.039 386.375, 692.749 357.087, 682.090 328 C 676.279 312.143, 674.849 310.431, 660.844 302.576 C 636.194 288.749, 618.102 275.180, 600.094 257.009 C 591.151 247.985, 589.296 246.472, 591.503 250 C 599.580 262.915, 612.632 278.434, 623.309 287.821 C 627.264 291.298, 630.660 294.589, 630.855 295.136 C 631.349 296.519, 624.859 295.241, 617.500 292.507 C 579.471 278.376, 539.537 240.392, 521 200.720 C 518.525 195.423, 516.268 191.069, 515.985 191.045 C 515.702 191.020, 514.053 194.037, 512.321 197.750 M 367.085 200.750 C 345.950 221.742, 329.443 249.449, 319.144 281.221 C 314.825 294.545, 309.951 316.912, 310.081 322.816 C 310.126 324.884, 311 321.734, 312.074 315.635 C 319.572 273.037, 341.813 228.222, 369.338 200.250 C 373.803 195.713, 377.105 192, 376.675 192 C 376.246 192, 371.930 195.938, 367.085 200.750 M 441 198.927 C 439.075 200.500, 427.600 208.180, 415.500 215.994 C 374.860 242.236, 363.781 251.212, 346.368 272 C 324.501 298.106, 313.915 324.741, 314.176 353 L 314.282 364.500 315.113 353.500 C 317.009 328.397, 323.215 309.799, 336.547 289.260 C 353.698 262.838, 370.031 247.929, 412.924 219.538 C 426.441 210.591, 439.300 201.654, 441.500 199.677 C 446.276 195.386, 445.944 194.887, 441 198.927 M 673.639 263.250 C 674.055 263.938, 676.500 267.200, 679.071 270.500 C 696.172 292.446, 706.958 315.018, 709.892 335 C 711.734 347.544, 711.905 347.863, 711.497 338 C 710.639 317.271, 700.632 295.158, 681.290 271.250 C 674.580 262.956, 671.530 259.767, 673.639 263.250 M 441.924 291.611 C 433.585 300.593, 418.667 309.141, 395.158 318.407 C 376.663 325.697, 367.862 330.396, 363 335.573 C 360.552 338.180, 360.101 339.060, 361.500 338.501 C 372.197 334.226, 380.857 331.839, 394 329.542 C 425.613 324.018, 435.947 320.657, 444.178 313.220 C 449.794 308.147, 451.309 304.735, 450.779 298.352 C 450.066 289.753, 446.307 286.891, 441.924 291.611 M 574.273 291.706 C 571.559 295.848, 571.904 303.759, 575 308.372 C 580.298 316.267, 594.290 322.999, 612.500 326.416 C 616.900 327.242, 625.606 328.858, 631.847 330.007 C 638.088 331.157, 647.088 333.452, 651.847 335.109 C 664.846 339.632, 665.026 339.631, 660.119 335.069 C 654.230 329.594, 644.073 324.190, 629 318.514 C 605.908 309.817, 596.821 304.915, 584.644 294.586 C 577.082 288.170, 576.666 288.054, 574.273 291.706 M 566.975 292.565 C 565.663 296.017, 565.802 301.017, 567.285 303.685 C 568.320 305.546, 568.500 304.693, 568.500 297.937 C 568.500 289.197, 568.396 288.829, 566.975 292.565 M 455.459 298.575 C 455.430 303.817, 455.700 305.501, 456.376 304.293 C 457.593 302.118, 457.619 294.927, 456.417 292.782 C 455.794 291.671, 455.487 293.531, 455.459 298.575 M 441.947 295.555 C 433.167 304.613, 420.543 311.611, 394.141 322.054 C 384.122 326.016, 376.055 329.377, 376.213 329.522 C 376.510 329.796, 394.681 326.531, 413 322.914 C 437.025 318.169, 450.519 308.181, 448.306 296.781 C 447.381 292.015, 445.693 291.690, 441.947 295.555 M 576.049 293.908 C 573.386 298.883, 575.905 307.166, 581.340 311.308 C 589.707 317.685, 601.162 321.608, 621.500 325.064 C 632.981 327.015, 643.218 329.150, 647.500 330.487 C 653.609 332.395, 637.569 324.963, 626.769 320.882 C 605.674 312.910, 594.389 306.735, 582.799 296.824 C 577.453 292.251, 577.033 292.070, 576.049 293.908 M 397 343.555 C 383.256 346.507, 364.824 358.691, 360.021 368 C 359.312 369.375, 361.379 367.739, 364.616 364.365 C 389.420 338.502, 430.557 337.529, 450.174 362.340 C 454.991 368.434, 455.196 367.397, 450.451 360.933 C 439.492 346.003, 418.053 339.033, 397 343.555 M 604 342.691 C 591.024 344.863, 578.795 352.540, 571.740 362.943 C 569.171 366.732, 569.788 366.280, 575.404 360.265 C 596.631 337.531, 632.092 338.868, 657.845 363.374 C 662.541 367.843, 665.408 370.150, 664.216 368.500 C 650.531 349.566, 625.927 339.020, 604 342.691 M 392.750 367.080 C 387.368 370.215, 386.700 377.900, 391.400 382.600 C 398.455 389.655, 410.159 383.514, 408.290 373.739 C 407.157 367.807, 398.137 363.943, 392.750 367.080 M 586.306 368.413 C 580.428 373.469, 583.669 384.097, 591.538 385.573 C 601.089 387.365, 606.998 375.844, 600.077 368.923 C 596.241 365.087, 590.423 364.872, 586.306 368.413 M 295.500 384.393 C 275.620 393.103, 277.165 429.414, 298.517 455.299 C 307.783 466.533, 318.424 473.224, 330.240 475.248 C 339.300 476.800, 340.193 476.291, 338.468 470.559 C 337.712 468.048, 335.942 459.808, 334.535 452.247 C 330.561 430.901, 326.351 423.649, 321.025 428.975 C 316.526 433.474, 317.268 441.070, 322.807 447.221 C 325.304 449.995, 325.807 450.954, 324.358 450.184 C 321.400 448.611, 317.127 443.354, 316.376 440.363 C 314.739 433.839, 318.670 425, 323.209 425 C 325.583 425, 324.542 422.861, 318.259 414.824 C 309.850 404.069, 300.424 400.103, 296.159 405.525 C 294.972 407.034, 294 407.820, 294 407.270 C 294 406.720, 294.933 405.084, 296.073 403.635 C 302.057 396.027, 317.224 404.733, 327.197 421.500 C 329.146 424.777, 329.995 425.639, 329.660 424 C 329.379 422.625, 328.604 417.065, 327.938 411.644 C 326.937 403.499, 326.145 400.822, 323.377 396.226 C 321.535 393.167, 319.782 389.889, 319.481 388.941 C 318.025 384.352, 302.369 381.383, 295.500 384.393 M 709.362 384.923 C 702.874 387.869, 697.563 398.794, 695.538 413.358 C 693.855 425.465, 694.018 426.809, 696.570 421.843 C 705.146 405.153, 720.752 396.163, 727.411 404.077 C 728.835 405.769, 730 407.603, 730 408.153 C 730 408.703, 728.835 407.769, 727.411 406.077 C 721.663 399.246, 710.575 405.409, 700.780 420.878 L 698.877 423.885 701.847 425.421 C 710.454 429.872, 708.431 446.108, 698.642 451.148 C 697.018 451.984, 697.257 451.434, 699.630 448.875 C 703.963 444.203, 705 441.840, 705 436.642 C 705 432.038, 701.366 426, 698.595 426 C 696.098 426, 691.983 437.587, 689.007 453 C 687.361 461.525, 685.593 469.962, 685.077 471.749 C 683.952 475.651, 686.136 476.657, 693.376 475.571 C 727.906 470.393, 755.789 412.069, 734.701 389.131 C 729.243 383.193, 717.475 381.239, 709.362 384.923 M 426.571 403.571 C 424.484 405.659, 424.584 408.314, 426.829 410.345 C 429.206 412.496, 431.291 412.440, 433.345 410.171 C 437.577 405.495, 431.029 399.114, 426.571 403.571 M 621.200 403.200 C 620.540 403.860, 620 405.345, 620 406.500 C 620 411.084, 626.892 412.939, 629.036 408.933 C 631.368 404.575, 624.702 399.698, 621.200 403.200 M 373.521 412.621 C 368.891 417.252, 378.326 423.129, 398.500 428.179 C 411.048 431.320, 437.109 428.050, 437.812 423.247 C 438.540 418.276, 428.269 415.979, 419.368 419.122 L 412.842 421.426 406.478 419.143 C 401.799 417.465, 398.973 417.024, 395.807 417.476 C 391.972 418.025, 390.960 417.704, 386.574 414.546 C 381.138 410.633, 376.233 409.909, 373.521 412.621 M 637 414.500 C 632.336 417.505, 630.714 418.002, 625.534 418.015 C 622.215 418.024, 617.494 418.630, 615.041 419.363 C 611.075 420.549, 609.779 420.475, 603.296 418.689 C 594.743 416.332, 589.168 417.288, 586.347 421.593 C 584.121 424.991, 585.132 425.730, 594.562 427.592 C 612.691 431.170, 628.919 429.373, 642.904 422.236 C 651.745 417.725, 653.198 415.981, 650.553 413.059 C 647.764 409.977, 643.280 410.454, 637 414.500 M 380.526 426.959 C 380.153 427.561, 381.203 431.979, 382.857 436.777 C 389.119 454.935, 388.230 463.972, 378.223 483.861 L 371.500 497.221 371.500 506.361 C 371.500 520.445, 375.602 529.808, 384.798 536.714 C 391.067 541.423, 408.013 552, 409.286 552 C 409.601 552, 408.792 550.087, 407.487 547.750 C 406.183 545.413, 404.615 541.250, 404.003 538.500 C 403.391 535.750, 400.949 529.225, 398.576 524 C 390.589 506.415, 390.137 497.337, 396.437 481.025 C 401.044 469.096, 401.504 465.849, 400.013 455.792 C 398.418 445.036, 398.582 438.708, 400.556 434.892 C 401.431 433.199, 402.002 431.734, 401.824 431.636 C 401.646 431.538, 397.675 430.494, 393 429.316 C 388.325 428.139, 383.758 426.880, 382.851 426.519 C 381.944 426.159, 380.898 426.356, 380.526 426.959 M 635 428.605 C 631.425 429.883, 627.337 430.945, 625.917 430.965 C 622.426 431.012, 621.734 431.942, 623.346 434.420 C 625.806 438.203, 626.124 443.645, 624.443 453.210 C 622.372 464.999, 622.939 470.203, 627.576 482 C 633.556 497.213, 632.849 508.246, 624.871 524.201 C 623.304 527.336, 621.069 533.411, 619.906 537.701 C 618.743 541.990, 616.878 547.001, 615.761 548.835 L 613.732 552.169 619.116 549.473 C 636.947 540.545, 646.790 531.579, 650.032 521.313 C 654.774 506.298, 653.831 499.157, 644.905 482.482 C 636.212 466.242, 634.993 454.067, 640.461 438.075 C 642.973 430.728, 643.702 425.869, 642.250 426.140 C 641.837 426.218, 638.575 427.327, 635 428.605 M 503.704 433.534 C 499.360 435.128, 495.328 438.077, 493.102 441.287 C 491.838 443.110, 492.156 443.009, 494.904 440.713 C 504.191 432.957, 517.174 432.701, 528.308 440.054 C 530.807 441.705, 530.553 441.280, 527.140 438.098 C 520.701 432.095, 512.158 430.431, 503.704 433.534 M 364.595 440.250 C 354.795 456.984, 355.267 470, 365.674 470 C 374.379 470, 375.905 460.754, 370.420 441.250 C 368.633 434.893, 367.815 434.752, 364.595 440.250 M 654.089 438.267 C 652.138 443.398, 649.826 457.664, 650.333 461.443 C 651.370 469.175, 659.201 472.608, 664.043 467.454 C 668.511 462.699, 666.951 453.186, 659.746 441.250 C 656.224 435.414, 655.349 434.953, 654.089 438.267 M 363.979 446.391 C 358.439 457.962, 359.084 468, 365.368 468 C 371.236 468, 372.779 456.895, 368.702 444 L 367.279 439.500 363.979 446.391 M 655.609 441 C 653.567 446.790, 652.060 459.651, 653.065 462.697 C 655.595 470.363, 664 468.813, 664 460.682 C 664 453.748, 656.947 437.205, 655.609 441 M 494.011 454.980 C 493.040 456.794, 493.203 456.909, 495.964 456.357 C 497.943 455.961, 499.839 456.320, 501.488 457.400 C 503.478 458.704, 504 458.762, 504 457.678 C 504 453.525, 495.952 451.352, 494.011 454.980 M 521.059 454.941 C 518.919 457.081, 518.361 459, 519.878 459 C 520.360 459, 521.315 458.325, 522 457.500 C 523.514 455.676, 527.132 455.545, 528.885 457.250 C 529.923 458.260, 530.105 458.021, 529.835 456 C 529.378 452.590, 524.053 451.947, 521.059 454.941 M 319 476.411 C 319 476.638, 320.094 481.475, 321.432 487.161 C 328.891 518.866, 329.059 544.813, 321.904 559.676 C 315.072 573.866, 299.626 583.925, 288.864 581.193 C 285.443 580.325, 285.076 580.387, 286.127 581.653 C 288.407 584.400, 296.438 588.449, 301.972 589.641 L 307.500 590.832 303 590.894 C 297.817 590.965, 290.752 588.078, 286.750 584.254 C 282.909 580.583, 283.323 582.643, 287.827 589.610 C 305.444 616.867, 346.887 626.232, 377.924 609.968 C 386.438 605.507, 388.166 605.418, 381.820 609.769 C 375.883 613.839, 368.336 617.556, 362.983 619.044 L 358.500 620.291 363.500 621.675 C 373.439 624.427, 386.181 624.567, 393.220 622.001 C 409.263 616.155, 421.824 604.264, 430.680 586.540 C 433.714 580.468, 435.903 576.850, 435.544 578.500 C 435.185 580.150, 432.830 585.775, 430.310 591 C 424.084 603.912, 413.387 614.828, 401.311 620.591 C 396.806 622.741, 393.094 624.837, 393.061 625.250 C 393.027 625.663, 396.308 626, 400.351 626 L 407.701 626 412.043 620.559 C 420.231 610.297, 429.160 604.936, 439.268 604.213 C 447.508 603.623, 449.103 602.097, 455.687 588.500 C 458.084 583.550, 459.739 580.850, 459.365 582.500 C 458.223 587.537, 455.079 594.151, 451.381 599.299 C 449.446 601.992, 448.006 604.288, 448.181 604.401 C 452.085 606.919, 453.522 606.592, 467.945 599.896 C 482.429 593.171, 482.503 593.120, 483.192 589.319 C 484.618 581.457, 484.202 578.078, 481.750 577.596 C 412.218 563.949, 371.321 540.479, 350.022 502 C 347.739 497.875, 346.106 495.400, 346.394 496.500 C 349.114 506.908, 350.374 545.677, 348.282 554.596 C 345.081 568.246, 337.906 579.254, 328.852 584.409 C 326.485 585.756, 327.429 584.531, 332.064 580.240 C 339.390 573.458, 344.095 564.860, 346.198 554.411 C 348.663 542.170, 346.265 498.153, 342.358 483.905 L 340.824 478.311 336.057 478.769 C 333.265 479.037, 328.993 478.558, 325.742 477.613 C 319.872 475.907, 319 475.751, 319 476.411 M 697.500 477.669 C 694.750 478.451, 690.362 478.911, 687.749 478.692 C 682.143 478.222, 682.153 478.200, 679.605 496 C 672.189 547.809, 676.368 570.296, 696.009 584.273 L 698.500 586.045 695.500 584.608 C 681.822 578.054, 674.054 560.476, 674.017 535.994 C 674.002 525.906, 675.984 503.184, 677.505 496 C 677.797 494.625, 676.330 496.673, 674.247 500.551 C 653.860 538.505, 615.768 561.912, 553 575.059 C 547.225 576.269, 541.938 577.411, 541.250 577.598 C 540.449 577.815, 540.043 579.656, 540.118 582.719 C 540.337 591.540, 541.054 593.033, 546 594.960 C 548.475 595.924, 555.206 598.953, 560.957 601.691 C 569.878 605.938, 571.805 606.522, 574.072 605.667 L 576.730 604.663 573.211 600.082 C 569.714 595.528, 565.784 587.780, 564.545 583 C 564.189 581.625, 565.642 583.936, 567.775 588.136 C 574.629 601.637, 576.754 603.642, 584.814 604.219 C 594.510 604.913, 602.267 609.228, 610.848 618.703 L 617.457 626 623.562 626 C 632.165 626, 632.050 625.269, 622.723 620.645 C 610.635 614.653, 600.020 603.791, 593.749 591 C 591.188 585.775, 588.797 580.150, 588.437 578.500 C 588.077 576.850, 590.332 580.535, 593.448 586.690 C 602.237 604.048, 613.590 615.007, 629.943 621.921 C 635.996 624.479, 648.032 624.524, 658.846 622.027 C 664.674 620.682, 664.606 619.890, 658.500 618.009 C 653.505 616.471, 643.472 610.926, 639.500 607.508 C 637.220 605.546, 638.540 605.996, 645 609.382 C 663.510 619.083, 679.778 620.900, 698.750 615.384 C 702.695 614.238, 703.871 613.526, 702.882 612.886 C 701.932 612.270, 702.482 612.056, 704.642 612.200 C 712.515 612.724, 731.694 598.467, 736.897 588.222 L 739.069 583.944 733.536 587.067 C 729.406 589.397, 726.417 590.288, 721.751 590.578 L 715.500 590.967 721.564 589.688 C 727.065 588.527, 736.132 584.213, 737.408 582.149 C 737.689 581.694, 735.226 581.296, 731.933 581.265 C 716.740 581.122, 702.679 567.390, 697.871 548 C 694.786 535.557, 697.116 505.694, 702.924 483.250 C 704.997 475.241, 705.224 475.474, 697.500 477.669 M 494.275 488.493 C 480.531 492.315, 465.676 504.027, 460.557 515.075 C 456.399 524.049, 458.409 524.214, 470 515.848 C 498.966 494.941, 524.052 495.110, 554.473 516.416 C 565.202 523.930, 567.390 523.606, 563.072 515.141 C 557.676 504.564, 545.664 494.272, 533.500 489.805 C 525.752 486.960, 502.578 486.185, 494.275 488.493 M 496.725 490.566 C 483.917 493.669, 469.559 504.217, 463.606 514.898 C 461.452 518.762, 461.663 518.681, 470.420 512.255 C 497.191 492.613, 528.377 493.285, 555.520 514.089 L 562.280 519.270 559.890 514.885 C 549.232 495.329, 521.358 484.598, 496.725 490.566 M 501 515.605 C 496.671 517.172, 490.546 520.879, 491.202 521.535 C 491.376 521.709, 494.215 520.926, 497.509 519.794 C 505.659 516.994, 518.221 516.985, 526.798 519.773 C 534.333 522.222, 533.633 520.391, 525.719 516.950 C 518.848 513.963, 507.275 513.333, 501 515.605 M 448.748 519.908 C 447.934 522.955, 450.208 528.506, 452.850 529.920 C 455.384 531.276, 459.684 531.321, 460.500 530 C 460.849 529.435, 460.029 529, 458.615 529 C 455.102 529, 450.977 525.109, 450.117 520.984 C 449.446 517.763, 449.343 517.682, 448.748 519.908 M 573 521.486 C 573 525.105, 568.845 529, 564.986 529 C 563.171 529, 562.139 529.415, 562.500 530 C 563.736 532, 569.998 531.093, 572.545 528.545 C 575.061 526.030, 575.920 520.687, 574 519.500 C 573.431 519.148, 573 520.005, 573 521.486 M 643.536 551.018 C 646.034 571.565, 651.902 585.586, 662.513 596.364 C 670.804 604.784, 683.722 610.822, 694.934 611.517 L 701.500 611.924 695.500 610.992 C 669.250 606.918, 651.998 587.992, 645.874 556.552 C 643.715 545.462, 642.516 542.625, 643.536 551.018 M 378.775 552.661 C 375.394 581.375, 357.917 603.406, 333.241 610.062 C 329.533 611.062, 327.418 611.907, 328.540 611.940 C 337.728 612.211, 353.649 604.236, 362.364 594.997 C 372.703 584.037, 380.730 563.797, 379.819 550.985 C 379.505 546.564, 379.490 546.588, 378.775 552.661 M 391.224 572.734 C 385.265 585.422, 384.733 593.521, 389.561 598.058 C 395.378 603.522, 403.023 599.040, 402.975 590.194 C 402.947 585.135, 397.184 566.826, 395.451 566.291 C 394.874 566.113, 392.972 569.012, 391.224 572.734 M 624.239 575.250 C 620.156 587.481, 619.884 588.998, 621.034 593.161 C 624.275 604.899, 637 602.167, 637 589.733 C 637 582.049, 630.969 566, 628.082 566 C 627.666 566, 625.937 570.163, 624.239 575.250 M 392.571 575.173 C 386.560 588.055, 388.563 599.582, 396.467 597.598 C 401.737 596.275, 401.918 588.712, 397.016 574.657 L 395.218 569.500 392.571 575.173 M 625.581 577.933 C 621.410 591.135, 622.742 598, 629.474 598 C 635.254 598, 636.370 588.124, 631.884 576.674 C 628.856 568.944, 628.391 569.037, 625.581 577.933 M 529 585.160 C 521.200 587.481, 502.644 587.944, 493.620 586.043 C 487.017 584.652, 486.043 585.203, 486.015 590.349 C 486.007 591.916, 485.282 594.711, 484.404 596.560 C 482.895 599.742, 482.921 600.080, 484.889 602.844 C 497.804 620.982, 522.645 622.571, 537.071 606.182 C 541.453 601.203, 541.588 600.655, 539.595 595.872 C 538.823 594.017, 537.871 590.362, 537.482 587.750 C 537.092 585.138, 536.487 583.051, 536.136 583.113 C 535.786 583.176, 532.575 584.097, 529 585.160 M 470.500 601.670 C 466.650 603.631, 463.346 605.375, 463.157 605.544 C 462.122 606.475, 466.545 617.588, 470.026 622.802 C 480.317 638.212, 494.487 639.739, 506.638 626.749 L 511.349 621.713 503.244 619.079 C 493.977 616.068, 487.423 611.200, 482.170 603.428 C 478.033 597.306, 478.831 597.426, 470.500 601.670 M 543.943 601.138 C 540.729 608.896, 529.029 617.669, 518.217 620.427 L 513.560 621.615 518.530 626.954 C 533.750 643.304, 552.997 636.005, 560.386 611.080 C 561.270 608.099, 561.882 605.564, 561.747 605.447 C 560.845 604.669, 546.874 598, 546.146 598 C 545.649 598, 544.658 599.412, 543.943 601.138 M 429.290 609.984 C 425.056 612.120, 420.978 615.386, 416.476 620.249 C 398.777 639.365, 396.393 662.021, 411.230 670.106 C 412.745 670.932, 412.898 670.643, 412.459 667.774 C 411.971 664.581, 412.006 664.603, 413.886 668.628 C 415.513 672.111, 419.768 676.565, 420.637 675.696 C 420.779 675.554, 420.378 672.415, 419.745 668.722 C 418.857 663.539, 418.869 661.731, 419.797 660.803 C 420.734 659.866, 421 660.745, 421 664.780 C 421 673.616, 423.211 677.488, 429.312 679.338 C 438.400 682.093, 438.162 682.177, 440.248 675.500 C 445.704 658.043, 453.391 610.991, 451.154 608.754 C 450.484 608.084, 446.688 607.382, 442.718 607.194 C 436.250 606.888, 434.854 607.178, 429.290 609.984 M 456.782 608.250 C 455.614 609.162, 454.604 613.958, 453.044 626 C 451.869 635.075, 449.853 647.450, 448.565 653.500 C 447.277 659.550, 446.305 664.595, 446.406 664.712 C 446.590 664.923, 470.744 668, 472.220 668 C 472.649 668, 473 665.625, 473 662.723 C 473 655.735, 474.919 652.997, 479.807 653.010 C 484.421 653.022, 492.831 656.879, 499.931 662.238 C 505.244 666.249, 505.529 666.336, 513.084 666.236 C 520.352 666.141, 521.086 665.921, 525.565 662.502 C 541.862 650.063, 553 650.062, 553 662.500 C 553 665.525, 553.355 668, 553.788 668 C 554.221 668, 559.959 667.329, 566.538 666.508 C 573.117 665.687, 578.581 665.012, 578.680 665.008 C 578.779 665.004, 578.433 663.538, 577.910 661.750 C 575.841 654.670, 570 616.606, 570 610.200 C 570 609.479, 565.788 607, 564.564 607 C 564.376 607, 563.948 608.462, 563.611 610.250 C 563.275 612.038, 561.708 616.231, 560.128 619.570 C 550.213 640.521, 531.268 644.921, 517.209 629.538 L 512.458 624.340 508.112 629.210 C 501.193 636.961, 493.008 640.156, 485.350 638.094 C 475.415 635.419, 465.749 624.865, 462.213 612.832 C 460.453 606.842, 459.554 606.084, 456.782 608.250 M 575.250 608.031 C 572.551 609.116, 572.515 609.933, 574.501 625.064 C 576.887 643.237, 579.674 657.612, 583.214 670 C 586.936 683.025, 586.698 682.865, 596.248 678.785 C 600.565 676.940, 601.131 676.297, 602.498 671.696 C 603.324 668.914, 604 665.069, 604 663.152 C 604 661.235, 604.296 659.963, 604.659 660.326 C 605.603 661.269, 605.142 670.497, 604.001 673.498 C 603.040 676.025, 603.045 676.028, 605.928 674.537 C 608.559 673.177, 609.756 671.028, 612.356 663 C 612.661 662.059, 612.872 662.314, 612.921 663.685 C 612.964 664.887, 612.561 667.024, 612.025 668.435 C 610.715 671.879, 611.862 671.666, 616.639 667.577 C 626.189 659.403, 625.146 644.356, 613.859 627.481 C 603.103 611.399, 587.023 603.299, 575.250 608.031 M 475.943 658.651 C 475.259 660.448, 475.278 663.748, 476.002 668.901 C 476.701 673.879, 476.751 678.914, 476.146 683.500 C 474.425 696.536, 479.184 698.742, 493.481 691.540 C 503.368 686.559, 504.379 685.646, 503.571 682.426 C 502.878 679.664, 499.719 679.368, 493.500 681.483 C 491.512 682.159, 491.512 682.153, 493.474 680.558 C 494.560 679.675, 497.165 678.678, 499.263 678.342 C 504.267 677.542, 503.581 676.070, 496.927 673.329 C 490.780 670.797, 491.435 670.324, 498.249 672.374 C 502.751 673.729, 502.821 673.715, 503.275 671.339 C 503.850 668.333, 498.884 663.821, 489.897 659.186 C 482.031 655.129, 477.350 654.950, 475.943 658.651 M 537.044 658.559 C 522.345 665.402, 515.838 675.394, 528.344 671.922 C 534.103 670.322, 533.884 671.546, 528.065 673.478 C 522.055 675.475, 521.517 677.507, 526.776 678.348 C 528.853 678.680, 531.440 679.623, 532.526 680.444 C 534.343 681.817, 534.223 681.859, 531.007 680.968 C 524.418 679.142, 522 679.640, 522 682.822 C 522 687.657, 541.156 697.182, 547.619 695.559 C 550.833 694.753, 551.528 691.163, 550.060 682.947 C 549.135 677.770, 549.111 674.362, 549.963 668.743 C 551.940 655.702, 548.689 653.139, 537.044 658.559 M 443.287 674.949 L 441.260 681.898 443.880 682.455 C 449.309 683.608, 466.623 685.988, 469.619 685.994 C 473.004 686.001, 473.963 683.544, 473.989 674.795 C 474.001 670.605, 475.262 671.067, 458.387 669.076 C 444.536 667.441, 445.598 667.028, 443.287 674.949 M 508.250 668.807 C 506.148 669.117, 506 669.628, 506 676.594 C 506 683.777, 506.099 684.087, 508.705 685.078 C 513.543 686.918, 518.681 685.344, 519.389 681.806 C 520.232 677.591, 520.128 671.750, 519.184 670.264 C 518.387 669.008, 512.346 668.204, 508.250 668.807 M 572 668.629 C 571.175 668.847, 566.450 669.357, 561.500 669.763 L 552.500 670.500 552.662 677.362 C 552.883 686.778, 552.683 686.681, 567.873 684.705 C 585.257 682.443, 584.094 683.267, 581.645 674.952 C 579.494 667.647, 578.406 666.934, 572 668.629 M 404.107 671.665 C 403.498 673.001, 403 674.728, 403 675.502 C 403 678.230, 426 690, 431.330 690 C 432.011 690, 433.354 688.671, 434.314 687.046 L 436.058 684.093 431.879 682.967 C 425.543 681.261, 417.869 677.642, 411.209 673.218 L 405.214 669.236 404.107 671.665 M 615 672.154 C 609.743 675.780, 598.313 681.261, 592.287 683.046 L 588.074 684.295 590.105 687.147 C 591.222 688.716, 592.893 689.992, 593.818 689.982 C 596.503 689.952, 611.721 683.387, 617.090 679.942 C 622.327 676.582, 622.579 676.013, 620.705 671.775 L 619.500 669.050 615 672.154 M 404.036 687.198 C 402.260 695.366, 391 751.663, 391 752.373 C 391 752.718, 393.813 752.999, 397.250 752.997 L 403.500 752.995 406.385 744.747 C 410.799 732.130, 419.408 712.642, 424.993 702.626 C 430.427 692.883, 430.425 692.848, 424.500 690.983 C 422.300 690.290, 417.350 688.102, 413.500 686.120 C 409.650 684.138, 406.205 682.377, 405.844 682.206 C 405.483 682.036, 404.669 684.282, 404.036 687.198 M 614.500 684.654 C 612.300 685.947, 606.846 688.409, 602.380 690.125 L 594.259 693.245 598.835 701.373 C 604.652 711.707, 613.732 731.801, 617.983 743.750 L 621.274 753 627.137 753 C 630.362 753, 633 752.656, 633 752.236 C 633 749.831, 619.775 683.397, 619.197 682.901 C 618.814 682.572, 616.700 683.361, 614.500 684.654 M 435.853 689.884 C 428.743 699.705, 407 746.533, 407 752.023 C 407 752.646, 425.588 753, 458.299 753 L 509.598 753 513.799 744.919 C 516.110 740.474, 518 736.001, 518 734.978 C 518 731.716, 520.213 731.534, 522.723 734.589 C 525.983 738.557, 531 748.486, 531 750.971 C 531 752.978, 531.463 753, 574.500 753 C 598.425 753, 618 752.625, 618 752.166 C 618 747.745, 601.054 710.294, 593.038 697 C 585.641 684.732, 585.423 684.563, 578.776 685.943 L 573.302 687.079 577.039 694.290 C 582.532 704.885, 582.900 707.922, 577.491 698.018 C 571.398 686.859, 571.658 687.107, 566.711 687.738 C 564.395 688.033, 562.353 688.397, 562.174 688.547 C 561.995 688.696, 563.510 693.247, 565.540 698.659 C 569.311 708.712, 574.082 725.961, 573.898 728.878 C 573.842 729.770, 573.343 728.925, 572.789 727 C 568.480 712.021, 565.356 702.446, 562.739 696.199 C 559.811 689.212, 559.548 688.910, 556.625 689.199 C 554.032 689.454, 553.465 690.022, 552.870 692.951 C 551.708 698.683, 546.999 700.239, 539.513 697.367 C 538.367 696.927, 538.916 698.398, 541.287 702.115 C 545.213 708.269, 548.408 714.418, 549.480 717.878 C 550.215 720.252, 550.206 720.255, 543.858 719.614 L 537.500 718.972 534.126 723.986 C 529.107 731.444, 528.866 731.217, 524.574 715 C 520.173 698.372, 515.872 688.552, 512.835 688.195 C 510.344 687.903, 510.074 688.392, 506.219 700.195 C 504.009 706.963, 501.404 716.212, 500.430 720.750 C 498.341 730.482, 497.502 730.814, 492.439 723.916 C 488.432 718.458, 488.462 718.465, 479.250 720.677 C 477.616 721.069, 477 720.771, 477 719.586 C 477 717.608, 481.870 707.051, 485.410 701.357 L 487.986 697.214 484.243 698.083 C 482.184 698.561, 479.917 698.963, 479.205 698.976 C 477 699.017, 473 694.226, 473 691.545 C 473 689.253, 472.612 689, 469.093 689 L 465.187 689 462.187 696.250 C 460.537 700.237, 457.975 707.550, 456.495 712.500 C 452.511 725.820, 451.918 727.284, 452.641 722.009 C 453.399 716.488, 459.552 696.817, 462.068 691.875 L 463.913 688.250 459.206 687.678 C 453.685 687.007, 452.563 687.961, 447.824 697.348 C 446.199 700.568, 444.645 702.978, 444.370 702.704 C 444.096 702.429, 445.504 698.963, 447.500 695 C 451.606 686.848, 451.621 686.904, 444.876 685.385 L 439.918 684.268 435.853 689.884 M 518.556 687.910 C 518.247 688.410, 518.825 690.772, 519.842 693.160 C 521.968 698.151, 527.360 714.436, 529.014 720.861 L 530.137 725.223 533.319 720.577 L 536.500 715.931 541.250 716.559 C 546.942 717.312, 546.933 717.373, 542.402 709.083 C 537.007 699.210, 534.616 696.495, 526.941 691.531 C 519.261 686.562, 519.362 686.606, 518.556 687.910 M 497.829 692.512 C 492.439 696.045, 490.383 698.192, 487.124 703.692 C 481.572 713.060, 479.347 718.464, 481.360 717.692 C 487.857 715.199, 489.788 715.641, 493.131 720.383 C 494.909 722.906, 496.456 724.864, 496.570 724.735 C 496.683 724.606, 497.778 720.450, 499.004 715.500 C 500.229 710.550, 502.714 702.337, 504.526 697.250 C 508.456 686.213, 507.967 685.867, 497.829 692.512 M 516.750 743.984 C 512.696 751.495, 511.950 757.028, 514.532 760.441 C 515.902 762.253, 516 762.119, 516 758.426 C 516 754.418, 518.775 747.908, 520.767 747.244 C 522.405 746.698, 526.198 756.042, 525.714 759.427 L 525.294 762.355 527.147 760.067 C 529.958 756.595, 529.484 751.106, 525.750 743.916 C 523.962 740.474, 522.050 737.518, 521.500 737.347 C 520.950 737.177, 518.813 740.163, 516.750 743.984 M 519.035 752.934 C 516.322 758.004, 519.534 765.725, 522.608 761.521 C 524.287 759.225, 524.327 758.235, 522.902 754.149 C 521.642 750.533, 520.510 750.178, 519.035 752.934 M 519.250 770.662 C 518.482 770.972, 518 773.110, 518 776.206 C 518 781.780, 519.570 781.666, 522.566 775.872 C 525.139 770.896, 523.817 768.819, 519.250 770.662 M 524.175 776.715 C 524.079 777.384, 522.650 779.468, 521 781.347 C 518.034 784.725, 516.307 795.164, 518.988 793.507 C 521.853 791.737, 525.108 783.978, 524.735 779.809 C 524.523 777.439, 524.271 776.047, 524.175 776.715 M 500.974 789.531 C 499.923 790.797, 500.032 791.311, 501.602 792.499 C 504.556 794.736, 502.584 794.254, 497.313 791.452 C 492.212 788.739, 488.985 788.818, 485.750 791.733 C 481.469 795.590, 486.812 798.273, 494.870 796.312 C 497.967 795.558, 503.200 794.612, 506.500 794.209 L 512.500 793.476 509.795 790.738 C 506.802 787.708, 502.927 787.178, 500.974 789.531 M 521.250 793.976 C 518.409 797.375, 518 798.591, 518 803.627 L 518 809.389 520.522 805.971 C 523.346 802.143, 525.276 796.063, 524.809 792.467 C 524.514 790.193, 524.355 790.260, 521.250 793.976 M 469.500 795.155 C 464.572 797.850, 463.985 800.424, 467.843 802.419 C 470.458 803.771, 471.385 803.665, 479.382 801.093 L 488.078 798.296 482.186 796.148 C 475.656 793.767, 472.490 793.519, 469.500 795.155 M 500 797.480 C 486.723 800.424, 454.056 812.389, 455.461 813.794 C 455.943 814.276, 471.071 817.076, 500 822.039 C 509.625 823.690, 521.164 825.849, 525.643 826.836 C 533.354 828.536, 533.911 828.540, 536.148 826.911 C 539.074 824.779, 549.643 821, 552.678 821 C 553.915 821, 557.204 820.102, 559.989 819.004 C 563.838 817.487, 567.382 817.013, 574.776 817.028 C 580.124 817.039, 586.300 816.675, 588.500 816.219 C 592.390 815.413, 592.183 815.315, 581 812.672 C 574.675 811.177, 568.481 809.685, 567.235 809.356 C 565.430 808.880, 565.097 809.090, 565.597 810.392 C 566.545 812.863, 564.152 815, 560.437 815 C 556.109 815, 555.255 813.422, 558.002 810.498 L 560.213 808.144 556.357 807.020 C 554.235 806.401, 546.763 804.426, 539.750 802.630 L 527 799.364 527 807.482 C 527 816.499, 526.217 818.008, 521.550 817.985 C 516.872 817.961, 515.510 816.584, 515.417 811.784 C 515.371 809.428, 515.258 804.913, 515.167 801.750 L 515 796 510.250 796.130 C 507.637 796.202, 503.025 796.809, 500 797.480 M 452.315 802.007 C 447.338 804.012, 447.699 809.844, 452.809 809.968 C 453.529 809.986, 453.811 810.497, 453.436 811.104 C 453.061 811.711, 453.822 811.532, 455.127 810.706 C 456.432 809.880, 460.379 808.174, 463.898 806.915 L 470.295 804.624 463.898 802.816 C 456.815 800.814, 455.503 800.723, 452.315 802.007 M 521.168 808.700 C 517.747 813.252, 517.577 816.012, 520.719 815.985 C 524.231 815.954, 525.126 814.489, 524.808 809.289 L 524.500 804.268 521.168 808.700 M 560.149 810.666 C 558.382 812.584, 559.152 813.249, 561.943 812.217 C 563.739 811.552, 563.914 811.177, 562.838 810.296 C 561.847 809.485, 561.149 809.581, 560.149 810.666 M 687.500 810.164 C 621.536 813.082, 597.080 835.920, 644 850.787 C 649.225 852.442, 656.054 854.947, 659.176 856.353 C 669.935 861.199, 679.319 862.500, 703.500 862.500 C 727.958 862.500, 736.744 861.249, 748.858 856.039 C 752.511 854.469, 759.550 851.984, 764.500 850.517 C 802.407 839.288, 792.607 820.193, 745 812.522 C 731.481 810.344, 706.548 809.321, 687.500 810.164 M 442.400 810.765 C 438.766 813.192, 437.902 821.675, 440.802 826.450 C 442.287 828.895, 442.463 830.491, 441.829 835.756 C 441.300 840.149, 441.531 844.642, 442.576 850.306 C 443.408 854.812, 444.181 860.937, 444.294 863.915 C 444.426 867.386, 444.978 869.490, 445.833 869.776 C 446.924 870.141, 447.110 866.066, 446.859 847.361 C 446.539 823.542, 446.692 822.448, 450.552 820.980 C 452.916 820.081, 474.144 823.735, 477.072 825.544 C 477.805 825.998, 482.927 826.692, 488.453 827.088 C 493.979 827.483, 501.200 828.711, 504.500 829.816 C 507.800 830.921, 515.260 832.299, 521.077 832.878 C 526.895 833.457, 532.350 834.197, 533.200 834.523 C 534.382 834.977, 534.641 834.572, 534.302 832.799 C 533.888 830.636, 532.690 830.268, 516.180 827.239 C 506.456 825.455, 496.700 823.732, 494.500 823.411 C 486.197 822.198, 456.385 816.112, 453.690 815.080 C 452.144 814.488, 451.159 813.552, 451.500 813 C 452.682 811.088, 444.811 809.155, 442.400 810.765 M 683.427 813.039 C 641.472 815.730, 613.702 827.793, 624.532 838.622 C 634.637 848.728, 663.913 854.524, 704.500 854.453 C 741.445 854.388, 767.938 849.623, 780.023 840.868 C 801.788 825.102, 745.987 809.026, 683.427 813.039 M 586.500 818.613 C 582.168 819.517, 577.199 819.848, 573.464 819.480 C 567.330 818.877, 562 820.064, 562 822.034 C 562 822.666, 562.521 822.781, 563.250 822.309 C 563.938 821.864, 569 821.455, 574.500 821.401 C 587.820 821.268, 598.173 820.024, 597.708 818.610 C 597.171 816.977, 594.338 816.978, 586.500 818.613 M 686.500 820.586 C 684.850 820.821, 679.951 821.494, 675.614 822.081 C 654.800 824.900, 644.524 831.973, 652.750 837.818 C 666.950 847.907, 724.777 849.790, 748.447 840.934 C 760.549 836.406, 759.158 828.568, 745.599 824.881 C 733.098 821.483, 698.079 818.937, 686.500 820.586 M 553.974 823.062 C 547.218 824.119, 537.581 828.220, 537.200 830.202 C 536.897 831.771, 537.170 831.759, 540.686 830.055 C 546.576 827.199, 551.106 825.756, 555.750 825.256 C 558.087 825.004, 560 824.420, 560 823.958 C 560 822.527, 558.666 822.328, 553.974 823.062 M 585 823.540 C 580.561 824.428, 577.073 824.556, 574 823.943 C 563.440 821.838, 559.058 826.503, 564.034 834.555 C 565.738 837.313, 565.947 838.359, 565.017 839.480 C 564.108 840.575, 564.115 841.675, 565.048 844.257 C 566.198 847.435, 566.503 847.604, 570.881 847.480 C 573.421 847.407, 578.650 846.596, 582.500 845.677 C 586.350 844.758, 591.075 843.780, 593 843.504 L 596.500 843.002 596.639 833.251 C 596.815 820.913, 597.068 821.124, 585 823.540 M 682.928 822.995 C 665.714 824.992, 651.678 829.743, 652.199 833.395 C 653.255 840.790, 687.995 846.463, 717.826 844.112 C 759.787 840.804, 768.284 830.606, 734.231 824.423 C 724.671 822.687, 693.148 821.810, 682.928 822.995 M 449.607 824.582 C 448.752 826.810, 448.879 841.263, 449.765 842.643 C 451.030 844.610, 475.829 850.784, 491.477 853.028 C 499.714 854.209, 510.680 856.273, 515.846 857.615 C 521.012 858.957, 527.956 860.340, 531.276 860.687 L 537.314 861.318 536.516 857.909 C 536.078 856.034, 535.797 852.764, 535.892 850.641 C 535.987 848.519, 535.560 846.175, 534.944 845.432 C 534.303 844.660, 534.100 842.820, 534.470 841.136 C 535.333 837.208, 534.904 837.031, 520.690 835.461 C 513.985 834.721, 505.647 833.189, 502.161 832.057 C 498.352 830.821, 493.163 830, 489.161 830 C 485.278 830, 479.998 829.188, 476.500 828.052 C 462.379 823.466, 450.617 821.949, 449.607 824.582 M 681 825.489 C 676.875 826.195, 671.925 827.269, 670 827.875 L 666.500 828.977 670 828.491 C 684.538 826.474, 690.474 826.062, 705 826.062 C 719.827 826.062, 732.801 827.025, 738.458 828.546 C 740.070 828.980, 740.178 828.890, 738.971 828.122 C 733.391 824.568, 696.235 822.881, 681 825.489 M 551.441 828.468 C 550.374 829.276, 548.375 829.952, 547 829.972 C 544.443 830.008, 538.062 833.357, 537.923 834.735 C 537.394 839.993, 537.458 843.836, 538.193 850.950 C 538.674 855.598, 539.233 859.567, 539.437 859.770 C 539.640 859.973, 541.537 859.270, 543.653 858.208 C 545.769 857.145, 550.425 855.299, 554 854.105 C 563.385 850.971, 564.471 849.959, 563.055 845.668 C 562.426 843.761, 562.201 841.047, 562.555 839.635 C 563.010 837.824, 562.582 836.283, 561.100 834.400 C 559.945 832.932, 559 830.666, 559 829.365 C 559 826.542, 554.667 826.028, 551.441 828.468 M 455.670 831.417 C 455.371 832.197, 455.837 833.107, 456.706 833.441 C 458.706 834.208, 459.413 833.519, 458.655 831.543 C 457.914 829.612, 456.387 829.548, 455.670 831.417 M 371.313 842.330 C 366.533 843.665, 351.779 858.745, 348.481 865.665 C 342.639 877.923, 346.331 891.383, 356.276 894.082 C 358.599 894.712, 362.608 896.077, 365.185 897.114 C 371.665 899.722, 379.074 899.285, 388 895.768 C 389.375 895.226, 394.451 894.651, 399.279 894.490 C 408.206 894.192, 411 893.145, 411 890.100 C 411 889.190, 411.692 887.456, 412.539 886.248 C 413.930 884.262, 413.919 883.743, 412.417 880.839 C 411.186 878.459, 410.895 876.098, 411.292 871.718 C 411.804 866.073, 411.704 865.737, 409.075 864.228 C 407.562 863.360, 405.913 861.715, 405.412 860.574 C 404.758 859.088, 403.522 858.472, 401.050 858.400 C 399.153 858.345, 397.419 857.757, 397.198 857.094 C 396.977 856.431, 396.135 855.351, 395.328 854.694 C 394.520 854.037, 393.105 852.700, 392.184 851.722 C 391.262 850.745, 388.799 849.484, 386.710 848.922 C 384.317 848.278, 382.517 847.033, 381.845 845.560 C 381.011 843.728, 376.789 840.650, 375.703 841.080 C 375.591 841.125, 373.616 841.687, 371.313 842.330 M 460 841.893 C 460 843.017, 462.601 844.066, 463.402 843.264 C 464.606 842.061, 463.949 841, 462 841 C 460.900 841, 460 841.402, 460 841.893 M 575.688 841.646 C 574.383 842.950, 575.006 844, 577.083 844 C 578.247 844, 578.992 843.476, 578.771 842.813 C 578.284 841.351, 576.614 840.719, 575.688 841.646 M 541.500 843 C 540.825 844.092, 541.682 846, 542.846 846 C 543.247 846, 543.642 845.100, 543.725 844 C 543.883 841.897, 542.552 841.298, 541.500 843 M 370.206 845.024 C 367.326 846.209, 365.005 851.630, 364.985 857.218 C 364.973 860.351, 364.709 861.098, 364 860 C 363.467 859.175, 363.024 857.167, 363.015 855.538 L 363 852.575 358.140 857.362 C 352.634 862.786, 349.415 868.551, 348.420 874.773 C 347.148 882.732, 352.664 892, 358.675 892 C 359.997 892, 362.844 892.900, 365 894 C 370.256 896.681, 379.606 896.856, 378.413 894.250 C 377.972 893.288, 377.517 889.575, 377.401 886 C 377.156 878.474, 375.082 872.075, 371.512 867.832 C 366.768 862.194, 369.154 851.166, 375.803 848 C 377.535 847.175, 378.816 846.050, 378.649 845.500 C 378.240 844.150, 373.042 843.857, 370.206 845.024 M 450 848.363 C 450 851.025, 457.433 853.518, 475.500 856.916 C 481.550 858.054, 490.896 860.101, 496.269 861.465 C 501.642 862.829, 511.767 864.636, 518.769 865.481 C 525.771 866.326, 532.737 867.275, 534.250 867.588 C 536.526 868.061, 537 867.813, 537 866.151 C 537 864.454, 536.111 864.037, 531.250 863.452 C 528.087 863.071, 520.550 861.491, 514.500 859.941 C 508.450 858.390, 496.750 856.189, 488.500 855.049 C 480.250 853.909, 471.250 852.286, 468.500 851.442 C 465.750 850.597, 460.462 849.056, 456.750 848.017 L 450 846.127 450 848.363 M 581.500 848.034 C 578.200 849.093, 573.700 849.856, 571.500 849.730 C 568.002 849.529, 567.459 849.790, 567.173 851.808 C 566.852 854.070, 566.973 854.103, 573.173 853.432 C 576.653 853.056, 581.300 852.136, 583.500 851.389 C 585.700 850.641, 589.862 850.023, 592.750 850.015 C 597.328 850.002, 598 849.744, 598 848 C 598 845.308, 589.939 845.324, 581.500 848.034 M 375.078 851.768 C 370.747 856.099, 370.245 861.278, 373.665 866.353 C 377.317 871.774, 379.967 880.240, 379.985 886.550 C 379.993 889.328, 380.540 892.140, 381.200 892.800 C 382.683 894.283, 386.652 894.372, 387.535 892.943 C 387.895 892.361, 390.734 891.948, 393.844 892.025 C 402.108 892.228, 408 891.051, 408 889.197 C 408 888.350, 408.733 886.848, 409.628 885.858 C 411.134 884.195, 411.125 883.783, 409.514 880.389 C 408.301 877.832, 407.916 875.221, 408.247 871.782 C 408.673 867.348, 408.489 866.756, 406.446 865.980 C 405.195 865.504, 403.877 864.189, 403.518 863.057 C 403.025 861.504, 402.019 861, 399.411 861 C 396.697 861, 395.713 860.464, 394.818 858.500 C 394.192 857.125, 393.092 856, 392.375 856 C 391.657 856, 390.589 855.100, 390 854 C 389.397 852.874, 387.906 852, 386.587 852 C 385.299 852, 383.685 851.325, 383 850.500 C 381.110 848.222, 378.150 848.696, 375.078 851.768 M 600.649 849.759 C 599.814 851.110, 599.693 863.250, 600.485 866.190 C 601.060 868.324, 600.681 869.410, 598.651 871.440 L 596.091 874 598.896 874 C 603.747 874, 607.643 872.027, 610.971 867.886 C 612.741 865.684, 616.158 862.926, 618.564 861.757 C 623.961 859.135, 623.528 858.480, 613.264 853.751 C 603.985 849.476, 601.341 848.639, 600.649 849.759 M 430.211 855.531 C 384.533 878.383, 465.855 903.869, 559.173 895.948 C 572.641 894.805, 580.212 893.188, 572.684 893.063 C 566.830 892.966, 564.666 891.420, 565.381 887.844 C 565.879 885.356, 565.693 884.953, 564.238 885.365 C 563.282 885.635, 559.575 886.170, 556 886.553 C 551.323 887.055, 548.707 887.916, 546.673 889.625 C 541.547 893.932, 540.612 893.918, 514.500 889.130 C 508.450 888.020, 498.225 886.632, 491.778 886.045 C 469.399 884.006, 457.951 881.021, 448.250 874.695 L 442 870.620 442 865.753 C 442 859.458, 440.110 852, 438.516 852 C 437.830 852, 434.093 853.589, 430.211 855.531 M 562 853.536 C 560.625 854.301, 557.250 855.660, 554.500 856.554 C 545.796 859.385, 539 863.160, 539 865.164 C 539 867.589, 539.653 867.506, 547.138 864.130 C 550.637 862.552, 555.643 860.488, 558.261 859.543 C 562.680 857.950, 565.560 855.081, 564.815 853.016 C 564.642 852.536, 563.375 852.770, 562 853.536 M 585 853.419 C 583.075 854.123, 579.036 855.020, 576.025 855.413 C 573.014 855.807, 569.976 856.605, 569.275 857.187 C 567.485 858.672, 567.662 863.933, 569.526 864.648 C 570.679 865.091, 570.779 865.561, 569.936 866.577 C 568.590 868.199, 571.736 876.281, 573.329 875.297 C 573.871 874.962, 576.283 874.762, 578.689 874.853 C 581.095 874.944, 584.287 874.404, 585.782 873.652 C 587.277 872.901, 590.032 871.994, 591.905 871.637 C 597.470 870.576, 600.012 866.412, 596.959 863.359 C 596.254 862.654, 596.234 860.915, 596.897 857.963 C 597.435 855.568, 597.652 853.246, 597.379 852.804 C 596.629 851.590, 588.964 851.972, 585 853.419 M 450 862.379 C 450 870.585, 450.057 870.780, 452.750 871.862 C 463.708 876.263, 537.378 891.718, 539.293 890.018 C 539.730 889.630, 539.285 887.916, 538.305 886.208 C 536.873 883.714, 536.733 882.546, 537.591 880.273 C 538.365 878.223, 538.338 876.490, 537.495 873.986 C 536.172 870.057, 536.185 870.061, 517.500 867.998 C 511.450 867.330, 501.325 865.463, 495 863.849 C 488.675 862.235, 479.450 860.241, 474.500 859.416 C 469.550 858.592, 462.640 857.036, 459.145 855.959 C 449.640 853.029, 450 852.777, 450 862.379 M 667.131 856.465 C 667.388 856.722, 672.076 857.682, 677.549 858.598 C 690.758 860.810, 716.076 860.802, 729.451 858.583 C 741.906 856.516, 743.033 855.674, 731.957 856.709 C 721.231 857.712, 684.996 857.737, 674.582 856.749 C 670.227 856.335, 666.874 856.207, 667.131 856.465 M 565 857.911 C 565 858.851, 562.625 860.044, 547.839 866.534 C 539.450 870.216, 539.207 870.416, 540.142 872.873 C 540.672 874.268, 540.814 877.144, 540.456 879.262 C 539.866 882.754, 541.355 889, 542.777 889 C 543.071 889, 544.704 887.940, 546.406 886.644 C 548.360 885.156, 551.613 884.025, 555.234 883.574 C 558.388 883.181, 561.220 882.454, 561.527 881.957 C 561.834 881.460, 563.641 880.315, 565.542 879.413 C 568.913 877.814, 570.371 873.965, 568.132 872.581 C 567.123 871.958, 565.511 862.553, 565.847 859.250 C 565.973 858.013, 565.834 857, 565.538 857 C 565.242 857, 565 857.410, 565 857.911 M 604.362 858.500 C 602.952 862.172, 607.013 865.416, 609.680 862.748 C 611.903 860.525, 610.506 857, 607.401 857 C 606.046 857, 604.678 857.675, 604.362 858.500 M 622.748 862.427 C 617.986 864.126, 612.319 868.421, 611.521 870.934 C 610.669 873.618, 604.151 875.784, 593.657 876.872 C 585.724 877.694, 584.483 878.108, 581.604 880.899 C 579.838 882.611, 576.012 884.796, 573.100 885.755 C 566.333 887.986, 566.474 889.213, 573.663 890.653 C 580.099 891.942, 583 894.532, 583 898.988 C 583 904.659, 587.202 905.217, 598.463 901.043 C 611.306 896.282, 617.279 903.963, 605.029 909.487 C 596.122 913.503, 600.225 915.707, 614.378 914.509 C 626.755 913.462, 628.683 913.616, 632.672 915.969 C 636.842 918.430, 642.015 918.555, 648.482 916.351 C 652.630 914.938, 654.402 914.868, 660.910 915.858 C 679.383 918.670, 686.938 915.968, 677.962 909.760 C 670.450 904.563, 673.897 900.668, 687.044 899.498 C 701.802 898.184, 705.130 895.131, 695.496 891.742 C 690.416 889.955, 682.919 889.910, 659.500 891.524 C 650.919 892.115, 646.805 890.940, 646.184 887.719 C 645.732 885.368, 650.736 877.897, 654.388 875.473 C 656.022 874.388, 657.543 872.931, 657.768 872.236 C 658.285 870.634, 652.126 868.007, 647.782 867.978 C 644.764 867.958, 640.375 866.210, 634 862.489 C 630.926 860.695, 627.652 860.677, 622.748 862.427 M 387.250 862.667 C 385.411 863.402, 385.728 867.682, 387.678 868.430 C 390.127 869.370, 392.769 866.442, 391.412 864.291 C 390.215 862.394, 389.059 861.943, 387.250 862.667 M 399.261 864.954 C 398.431 866.283, 398.375 867.114, 399.087 867.554 C 400.413 868.373, 401.302 867.491, 401.686 864.974 C 402.072 862.447, 400.833 862.437, 399.261 864.954 M 584.122 867.353 C 582.906 868.818, 583.596 870, 585.667 870 C 587.156 870, 587.492 867.422, 586.113 866.570 C 585.626 866.269, 584.730 866.621, 584.122 867.353 M 547 871.917 C 547 873.145, 547.646 874, 548.573 874 C 549.505 874, 550.015 873.320, 549.823 872.333 C 549.337 869.824, 547 869.480, 547 871.917 M 452 874.720 C 452 876.351, 476.267 883.066, 477.545 881.788 C 477.776 881.558, 472.122 879.794, 464.982 877.869 C 457.842 875.943, 452 874.526, 452 874.720 M 571.500 879 L 568.500 880.987 573.095 880.993 C 576.426 880.998, 578.188 880.450, 579.500 879 C 581.276 877.037, 581.247 877, 577.905 877.007 C 576.032 877.010, 573.150 877.907, 571.500 879 M 398.500 882.833 C 397.578 883.756, 397.988 885.125, 399 884.500 C 399.550 884.160, 400.007 884.471, 400.015 885.191 C 400.031 886.491, 401.949 884.276, 401.985 882.917 C 402.003 882.205, 399.196 882.138, 398.500 882.833 M 592.035 883.934 C 590.469 886.862, 590.763 887.935, 593.470 889.168 C 597.990 891.228, 601.425 885.368, 597.066 883.035 C 594.290 881.550, 593.208 881.743, 592.035 883.934 M 620.596 885.306 C 617.380 887.658, 618.871 891.500, 623 891.500 C 625.951 891.500, 626.554 891.117, 626.845 889.056 C 627.151 886.886, 624.957 884, 623 884 C 622.660 884, 621.579 884.588, 620.596 885.306 M 621 888.500 C 621 889.333, 621.889 890, 623 890 C 624.111 890, 625 889.333, 625 888.500 C 625 887.667, 624.111 887, 623 887 C 621.889 887, 621 887.667, 621 888.500 M 424.580 895.115 C 421.142 897.820, 421.472 901.100, 425.318 902.447 C 430.959 904.423, 436.104 898.983, 432.433 894.926 C 430.179 892.435, 427.918 892.490, 424.580 895.115 M 425.729 897.092 C 423.302 898.505, 424.500 900, 428.059 900 C 430.333 900, 431 899.547, 431 898 C 431 895.797, 428.649 895.392, 425.729 897.092 M 478 898.930 C 492.652 902.198, 508.162 903.315, 530.636 902.720 C 549.239 902.228, 569.360 900.043, 570.954 898.343 C 571.254 898.022, 569.700 898.038, 567.500 898.378 C 565.300 898.718, 550 899.277, 533.500 899.620 C 505.952 900.193, 498.552 899.931, 474.500 897.532 C 470.948 897.178, 471.961 897.582, 478 898.930 M 457.073 907.728 C 452.002 913.879, 453.801 917, 462.416 917 C 472.634 917, 474.263 910.280, 465.264 905.250 C 461.772 903.298, 460.376 903.721, 457.073 907.728 M 459.069 909.120 C 455.825 913.509, 456.794 915, 462.891 915 C 469.443 915, 470.437 910.687, 464.524 907.911 C 461.189 906.345, 461.108 906.362, 459.069 909.120 M 560.557 912.223 C 558.551 915.086, 558.591 915.591, 561.023 918.023 C 562.720 919.720, 563.405 919.857, 565.273 918.873 C 569.426 916.686, 569.880 914.880, 567 912 C 564.404 909.404, 562.485 909.470, 560.557 912.223 M 562 915.073 C 562 916.504, 562.539 917.043, 563.739 916.812 C 566.345 916.310, 566.636 913, 564.073 913 C 562.642 913, 562 913.642, 562 915.073 M 580.380 914.452 C 579.617 916.441, 580.747 918, 582.952 918 C 584.918 918, 585.979 916.283, 585.269 914.250 C 584.668 912.526, 581.062 912.675, 580.380 914.452" stroke="none" fill="#1a1a1a" fill-rule="evenodd"/>
</svg>