<svg xmlns="http://www.w3.org/2000/svg" width="1024" height="1024" viewBox="0 0 1024 1024" version="1.1">
	<path d="M 548.075 202.087 C 532.848 205.075, 517.156 213.620, 505.903 225.052 L 500.307 230.737 497.530 224.890 C 491.017 211.176, 473.702 201.733, 460.263 204.566 C 456.649 205.327, 456.771 205.388, 463.318 206.103 C 476.434 207.536, 487.189 213.911, 493.443 223.960 C 497.442 230.386, 497.134 230.957, 491.673 227.242 C 465.324 209.320, 427.401 208.562, 413.277 225.675 C 411.200 228.191, 408.271 231.571, 406.768 233.184 L 404.036 236.118 397.499 232.462 C 388.833 227.616, 381.897 226.904, 372.355 229.879 C 355.028 235.281, 346.909 247.340, 354.162 256.899 C 359.797 264.326, 359.661 263.997, 357.701 265.455 C 356.712 266.190, 352.887 267.327, 349.201 267.982 C 313.540 274.312, 300.811 287.060, 300.915 316.342 C 300.964 330.253, 300.265 331.518, 289.304 337.338 C 267.549 348.892, 263.124 359.817, 269.598 386 C 274.673 406.525, 273.034 410.739, 254.660 424.400 C 230.358 442.467, 222.193 455.410, 223.185 474.295 C 223.734 484.763, 226.931 491.966, 236.930 505.269 C 248.086 520.112, 248.082 523.322, 236.896 532.500 C 217.694 548.256, 217.450 559.346, 236 573.233 C 242.787 578.314, 242.307 579.995, 231.636 588.527 C 218.215 599.259, 214.015 606.213, 215.533 615.193 C 216.544 621.179, 221.069 625.514, 232.063 631.032 C 247.432 638.744, 249.796 643.967, 241.276 651.386 C 229.448 661.686, 225.987 667.439, 226.022 676.739 C 226.088 694.100, 244.698 705.854, 259.834 698.095 C 267.490 694.171, 269.868 684.401, 264.244 679.977 C 260.895 677.343, 256.962 677.165, 259.215 679.750 C 261.194 682.023, 260.430 684, 257.572 684 C 254.511 684, 252 680.992, 252 677.326 C 252 667.231, 268.543 669, 272.563 679.526 C 274.165 683.721, 274.162 684.444, 272.505 692.340 C 270.023 704.164, 273.150 711.494, 281.577 713.609 C 282.910 713.943, 284 714.395, 284 714.614 C 284 714.832, 275.424 732.157, 264.943 753.115 C 248.974 785.043, 244.544 794.845, 247.407 791.917 C 252.338 786.873, 303.472 689.885, 306.402 680.019 C 310.542 666.078, 307.653 653.253, 291.754 615 C 276.736 578.868, 273.099 565.338, 275.075 552.954 C 276.593 543.443, 288.312 509.979, 289.655 511.322 C 289.854 511.521, 288.622 516.367, 286.917 522.092 C 279.743 546.179, 278.276 560.723, 281.485 575.944 C 282.348 580.038, 283.251 583.584, 283.492 583.825 C 283.733 584.066, 283.844 576.667, 283.739 567.382 C 283.522 548.180, 283.384 548.873, 294.293 514.332 C 301.526 491.431, 302.869 488.734, 306.813 489.190 C 310.347 489.598, 310.232 491.193, 305.536 507 C 297.432 534.272, 294.857 547.940, 294.279 566.750 C 293.896 579.184, 294.062 584, 294.874 584 C 295.617 584, 296.002 581.195, 296.006 575.750 C 296.015 563.403, 298.408 549.727, 304.449 527.500 C 314.123 491.907, 315.412 488.883, 319.750 491.611 C 324.509 494.603, 327.986 505.798, 324.997 508.503 C 320.502 512.570, 313.160 547.825, 311.407 573.750 C 310.650 584.941, 312.245 588.460, 313.446 578.250 C 316.572 551.686, 326.257 511, 329.455 511 C 330.221 511, 332.169 512.113, 333.786 513.473 C 339.412 518.207, 339.966 525.083, 336.945 552.668 C 334.630 573.813, 338.987 586.108, 357.768 611.421 C 384.462 647.399, 388.967 666.686, 374.808 684.374 C 371.262 688.803, 371.259 688.828, 366.538 750.213 C 361.786 811.988, 361.302 823.032, 363.438 820.896 C 363.679 820.655, 365.449 805.623, 367.372 787.491 C 371.342 750.063, 370.228 753.185, 381.500 747.891 C 393.878 742.077, 404.293 741.904, 431.642 747.058 C 449.785 750.477, 448.591 749.962, 449.447 754.739 C 451.139 764.183, 458.816 777.079, 468.371 786.529 C 482.231 800.237, 494.572 805.570, 515 806.677 C 553.624 808.770, 582.667 787.307, 590.392 750.962 C 591.470 745.890, 629.397 739.240, 642.091 741.899 C 651.434 743.855, 657.999 746.935, 658.007 749.366 C 658.016 751.710, 663.643 807.629, 664.638 815.250 C 664.979 817.862, 665.713 820, 666.270 820 C 667.478 820, 667.035 811.272, 662.947 754.500 C 657.976 685.483, 658.445 689.374, 654.433 683.909 C 652.531 681.318, 650.041 677.085, 648.898 674.503 L 646.821 669.807 654.416 662.359 C 671.773 645.336, 682.403 624.426, 687.895 596.500 C 693.730 566.834, 693.932 562.983, 691.022 537 C 690.437 531.775, 690.246 525.576, 690.597 523.223 C 691.610 516.437, 696.831 509.954, 700.232 511.259 C 702.876 512.274, 711.967 549.740, 714.564 570.322 C 716.231 583.538, 716.516 584.817, 717.566 583.767 C 718.734 582.599, 715.953 553.041, 713.578 541.380 C 709.034 519.071, 706.216 509.488, 703.720 507.861 C 700.339 505.656, 706.578 491.733, 711.189 491.193 C 714.505 490.804, 715.674 493.745, 723.415 521.957 C 729.818 545.293, 731.675 555.107, 732.601 570.500 C 733.583 586.810, 734.934 586.736, 734.970 570.371 C 735.010 551.516, 728.512 517.596, 720.557 495.144 C 718.801 490.187, 719.158 489, 722.404 489 C 726.865 489, 727.797 490.986, 736.387 518.777 C 745.831 549.331, 746.420 552.592, 745.633 569.918 C 744.859 586.938, 746.024 587.603, 748.610 571.616 C 750.806 558.043, 749.880 549.128, 744.082 528.030 C 741.895 520.072, 740.256 513.411, 740.438 513.228 C 741.756 511.911, 752.398 543.475, 753.985 553.404 C 755.943 565.660, 752.327 579.266, 738.304 612.422 C 723.925 646.418, 719.983 661.214, 721.633 675 C 722.524 682.445, 750.996 738.630, 775.823 781.933 C 787.887 802.977, 783.295 791.460, 764.813 754.325 C 754.741 734.087, 746.350 717.184, 746.167 716.764 C 745.983 716.344, 746.464 716, 747.235 716 C 750.950 716, 759.401 712.587, 762.565 709.809 C 767.196 705.743, 769 702.082, 769 696.750 C 769 690.507, 769.953 689.959, 777.728 691.733 C 790.613 694.672, 800.899 686.921, 798.515 676.069 C 797.695 672.333, 796.153 671.094, 789.714 668.996 C 782.817 666.749, 782.707 665.036, 789.193 660.885 C 800.933 653.371, 805 647.740, 805 639 C 805 632.781, 802.941 628.652, 795.555 620.057 C 787.757 610.983, 786.906 603.524, 792.933 597.072 C 796.249 593.522, 798.944 593.176, 801.477 595.974 C 805.798 600.750, 810.048 599.253, 813.535 591.727 C 820.999 575.616, 815.523 561.278, 798.293 551.822 C 794.285 549.622, 790.117 546.692, 789.031 545.312 C 786.468 542.054, 787.614 539.121, 795.922 527.686 C 805.334 514.732, 807.778 506.819, 805.979 495.121 C 803.688 480.220, 794.160 467.219, 777.795 456.662 C 767.346 449.921, 766.770 449.070, 768.594 443.061 C 771.561 433.286, 769.890 428.360, 761.812 423.071 C 755.337 418.832, 755.045 417.697, 758.722 411.059 C 766.449 397.111, 762.453 383.275, 748.025 374.016 C 742.009 370.156, 741.899 369.263, 746.250 359.668 C 754.215 342.102, 747.677 325.132, 729.486 316.148 C 721.714 312.310, 720.533 310.828, 719.049 303.045 C 715.088 282.267, 705.828 272.911, 688.570 272.252 C 674.621 271.720, 675.271 272.089, 674.466 264.251 C 673.086 250.828, 666.504 241.976, 653.223 235.685 L 646.500 232.500 627 232.500 C 604.529 232.500, 604.159 232.415, 599.451 226.180 C 584.590 206.499, 567.186 198.338, 548.075 202.087 M 550.500 206.584 C 540.282 209.032, 535.265 210.837, 527.761 214.767 C 518.348 219.696, 507.984 227.709, 503.615 233.438 C 500.248 237.852, 499.680 237.851, 493.497 233.416 C 478.570 222.711, 459.444 217.184, 440.966 218.238 C 428.181 218.967, 421.035 222.556, 413.454 232.058 C 406.394 240.906, 405.025 241.244, 395.766 236.431 C 389.670 233.261, 387.534 232.659, 382.500 232.689 C 365.258 232.795, 350.020 247.065, 358.595 255.076 C 362.227 258.469, 364.270 262.789, 363.567 265.590 C 362.722 268.955, 358.408 270.834, 346.230 273.143 C 316.055 278.863, 306.393 289.212, 305.095 317.203 C 304.324 333.847, 303.873 334.655, 291.894 340.821 C 272.259 350.930, 268.241 360.984, 274.368 384.681 C 280.189 407.196, 277.838 413.321, 257.565 428.473 C 224.415 453.248, 219.601 474.146, 240.682 501.757 C 253.732 518.849, 253.507 523.923, 239.122 536.890 C 223.986 550.535, 223.429 557.834, 236.783 567.516 C 249.194 576.514, 248.765 581.118, 234.452 592.513 C 227.019 598.430, 224.679 600.956, 222.493 605.426 C 217.649 615.326, 220.156 619.651, 235 627.003 C 247.424 633.156, 251 637.105, 251 644.670 C 251 648.088, 250.221 649.188, 242.641 656.470 C 232.812 665.913, 230.710 669.498, 230.604 677.002 C 230.452 687.769, 238.017 695.153, 249.890 695.824 C 256.368 696.190, 256.868 696.055, 260.347 693.001 C 264.954 688.955, 265.964 682.483, 261.535 685.385 C 258.365 687.462, 255.055 687.405, 252.367 685.228 C 243.842 678.322, 248.512 667, 259.885 667 C 272.324 667, 279.646 676.945, 277.156 690.458 C 275.054 701.867, 275.643 704.623, 280.973 708.296 C 285.616 711.496, 286.234 710.824, 294.819 693.250 C 302.092 678.361, 302.997 675.889, 302.966 671 C 302.879 657.555, 299.337 645.890, 285.202 612.500 C 266.602 568.563, 265.821 556.666, 279.299 522.511 C 283.638 511.513, 285.180 508.750, 289.267 504.651 C 292.319 501.590, 294.841 497.827, 296.107 494.443 C 299.280 485.964, 304.951 482.270, 310.316 485.188 C 311.517 485.842, 314.439 486.449, 316.809 486.538 C 324.196 486.813, 329.692 493.090, 330.748 502.454 C 331.131 505.859, 331.774 507.032, 333.747 507.931 C 337.196 509.502, 337.456 508.897, 336.143 502.357 C 333.551 489.449, 334.694 484.885, 343.028 474.871 C 347.529 469.462, 350.889 462.555, 349.630 461.297 C 349.317 460.984, 346.891 461.661, 344.240 462.802 C 339.366 464.898, 327.869 466.946, 329.246 465.473 C 329.656 465.034, 332.910 463.443, 336.477 461.939 C 349.461 456.461, 361.264 445.793, 365.465 435.737 C 367.869 429.986, 367.555 429.308, 362.250 428.796 C 346.732 427.297, 339.259 413.445, 346.910 400.360 C 350.015 395.048, 356.051 391, 360.865 391 C 364.177 391, 368.765 393.685, 369.520 396.064 C 370.376 398.761, 369.464 399.630, 367.495 397.995 C 365.342 396.209, 361.248 398.165, 360.445 401.364 C 358.639 408.558, 362.885 411.708, 370.040 408.482 C 377.424 405.152, 383.777 395.380, 386.784 382.724 C 388.356 376.106, 388.526 375.817, 388.812 379.280 C 389.739 390.500, 379.728 408.537, 370.685 411.940 C 362.785 414.914, 356.332 411.014, 357.294 403.846 C 357.873 399.528, 360.374 396, 362.855 396 C 363.985 396, 364.103 395.703, 363.292 394.892 C 361.783 393.383, 355.967 395.341, 353.195 398.293 C 345.920 406.037, 346.718 417.225, 354.873 421.808 C 368.935 429.712, 393.192 420.696, 407.929 402.089 C 410.795 398.471, 411.026 397.559, 411.402 388.357 C 412.372 364.585, 427.145 342.515, 449.500 331.440 C 456.028 328.206, 470.609 324.275, 471.770 325.437 C 472.054 325.721, 471.659 326.127, 470.893 326.341 C 450.738 331.948, 440.725 338.390, 428.761 353.448 C 413.865 372.195, 411.487 398.645, 423.658 410.197 C 433.619 419.650, 451.601 417.320, 457.595 405.800 C 459.296 402.530, 459.598 397.368, 457.920 400.250 C 455.586 404.257, 448.124 406.159, 443.684 403.878 C 432.928 398.352, 431.359 384.060, 440.111 371.339 C 446.575 361.943, 454.103 358.476, 469.956 357.595 C 490.455 356.455, 501.469 348.074, 505.563 330.500 L 506.727 325.500 507.989 328.500 C 517.384 350.842, 525.722 359.009, 549.808 369.464 C 569.197 377.880, 572.838 384.178, 565.750 397.038 C 562.042 403.765, 562.368 405.335, 568.075 408.248 C 573.276 410.904, 584.337 410.181, 579.955 407.472 C 579.362 407.106, 578.441 405.660, 577.908 404.259 C 576.223 399.825, 578.524 395.606, 586.544 388.428 C 604.042 372.768, 604.046 353.815, 586.554 340.473 C 582.722 337.551, 572.496 334, 567.911 334 C 566.310 334, 565 333.486, 565 332.858 C 565 331.182, 575.580 332.497, 582.288 335.007 C 594.629 339.624, 602.998 351.414, 602.999 364.185 C 603 367.862, 602.554 372.043, 602.009 373.477 C 600.695 376.933, 604.258 385.805, 610.440 394.469 C 620.962 409.213, 633.872 415.968, 651.572 415.989 C 670.220 416.011, 681 407.909, 681 393.870 C 681 379.701, 663.964 368.763, 655.919 377.766 C 652.361 381.746, 652.123 383.621, 655.451 381.440 C 660.497 378.134, 667 382.814, 667 389.751 C 667 404.306, 645.102 404.482, 635.248 390.006 C 630.660 383.267, 629.831 371.095, 633.480 364.038 C 635.847 359.462, 637.091 359.491, 635.470 364.085 C 631.406 375.603, 635.270 388.799, 644.350 394.413 C 653.572 400.115, 664 397.498, 664 389.481 C 664 383.562, 659.294 381.408, 654.537 385.150 C 650.010 388.710, 648.257 383.370, 651.960 377.299 C 657.037 368.971, 669.149 368.972, 677.838 377.301 C 694.114 392.903, 683.440 418.241, 659.552 420.707 C 653.092 421.373, 653.094 422.663, 659.562 429.858 C 664.622 435.486, 672.179 439.748, 684.343 443.836 C 689.169 445.458, 693.391 447.058, 693.726 447.392 C 694.698 448.365, 685.913 448.046, 681.085 446.933 C 675.676 445.687, 675.037 446.414, 675.015 453.837 C 675 458.999, 675.193 459.374, 680.937 465.356 C 690.210 475.013, 690.601 478.650, 683.684 490.906 C 679.322 498.635, 679.174 506.909, 683.301 512.325 C 686.685 516.765, 686.965 516.782, 689.500 512.711 C 690.600 510.945, 692.914 508.825, 694.642 508 C 697.239 506.760, 697.886 505.763, 698.373 502.247 C 699.687 492.765, 706.160 485.470, 712.500 486.324 C 714.150 486.546, 716.915 486.054, 718.644 485.229 C 724.976 482.211, 730.401 485.910, 733.960 495.670 C 735.512 499.925, 736.986 502.151, 739.069 503.382 C 744.514 506.598, 756.693 536.732, 758.932 552.527 C 760.794 565.656, 757.175 580.923, 745.783 608 C 729.609 646.445, 726.985 654.834, 726.768 668.802 L 726.631 677.597 734.758 694.308 C 739.228 703.499, 743.601 711.294, 744.477 711.630 C 747.099 712.636, 755.098 709.853, 758.717 706.675 C 763.208 702.732, 765 699.033, 765 693.705 C 765 687.588, 767.392 685.516, 773.475 686.367 C 775.964 686.715, 779.913 687.265, 782.250 687.588 C 787.367 688.297, 792.787 685.189, 794.276 680.692 C 795.505 676.978, 793.340 674.575, 787.419 673.084 C 775.709 670.135, 776.152 663.513, 788.616 655.191 C 803.261 645.413, 804.483 638.057, 793.635 624.956 C 786.686 616.562, 785 613.128, 785 607.365 C 785 594.934, 795.706 586.048, 803.396 592.097 C 806.838 594.804, 808.455 593.575, 810.497 586.699 C 814.677 572.623, 810.238 563.566, 795.324 555.736 C 779.899 547.638, 779.176 541.548, 791.642 524.751 C 798.921 514.942, 801.203 509.174, 801.155 500.697 C 801.065 484.686, 793.043 472.408, 774.863 460.459 C 762.222 452.150, 761.105 449.919, 764.538 439.843 C 766.644 433.663, 765.431 431.046, 758.178 426.121 C 749.594 420.292, 749.339 419.011, 754.623 408.316 C 760.947 395.517, 758.372 386.593, 745.830 377.844 C 737.094 371.750, 736.734 370.254, 741.317 359.050 C 749.025 340.205, 745.004 329.809, 725.932 319.276 C 717.210 314.459, 716.418 313.362, 714.529 303.486 C 710.923 284.639, 703.367 277.038, 687.500 276.293 C 671.591 275.547, 670.741 274.919, 669.722 263.157 C 669.022 255.072, 665.308 248.838, 658.261 243.914 C 648.435 237.049, 641.393 235.921, 615.465 237.059 C 603.343 237.592, 602.807 237.323, 593.472 226.040 C 585.993 216.999, 579.271 211.672, 571.719 208.799 C 566.658 206.873, 554.564 205.611, 550.500 206.584 M 464.500 241.670 C 460.382 242.749, 460.995 243.769, 465.760 243.769 C 472.423 243.769, 478.859 246.808, 485.501 253.089 C 492.192 259.418, 493.149 257.298, 486.750 250.323 C 480.770 243.805, 470.943 239.983, 464.500 241.670 M 533.665 246.385 C 523.097 250.842, 514.366 258.442, 510.013 266.975 C 506.956 272.968, 508.079 274.198, 511.744 268.872 C 524.794 249.905, 544.967 242.503, 561.039 250.784 C 567.306 254.013, 567.371 254.024, 564.956 251.437 C 558.163 244.159, 544.266 241.916, 533.665 246.385 M 447.762 258.942 C 439.956 261.437, 432.519 266.402, 427.974 272.153 C 424.256 276.856, 422.799 280.009, 419.267 291 C 417.595 296.204, 417.258 296.569, 413 297.785 C 397.784 302.129, 397.703 302.167, 392.506 307.363 C 386.586 313.284, 383.935 319.625, 384.120 327.428 L 384.240 332.500 385.203 328 C 388.648 311.894, 395.398 304.793, 409.993 301.922 C 417.911 300.364, 420.327 298.142, 422.570 290.353 C 431.791 258.339, 467.026 249.654, 490.119 273.702 C 496.898 280.762, 498.138 281.151, 495.142 275.279 C 487.816 260.918, 465.573 253.248, 447.762 258.942 M 607 265.927 C 605.884 266.702, 607.007 266.973, 611.384 266.985 C 619.298 267.005, 624.202 268.625, 629.138 272.850 C 634.611 277.535, 636.046 281.383, 636.928 293.742 C 637.813 306.144, 638.116 306.536, 647.847 307.862 C 660.547 309.592, 667.837 316.479, 669.968 328.761 C 672.421 342.895, 674.638 345.323, 688.290 348.821 C 702.264 352.400, 710.394 359.217, 713.379 369.854 C 715.355 376.896, 715.373 379.822, 713.515 392 C 711.889 402.652, 712.618 407.779, 716.339 411.882 C 719.146 414.976, 725.697 417.971, 729.500 417.899 C 732.384 417.844, 732.344 417.787, 728.463 416.409 C 717.418 412.487, 714.495 406.767, 716.694 393.383 C 721.265 365.576, 712.491 350.820, 687.996 345.117 C 676.551 342.452, 675.749 341.472, 672.953 326.760 C 670.673 314.763, 662.112 306.839, 649.050 304.638 C 640.713 303.234, 640.036 302.496, 640.015 294.799 C 639.966 276.443, 631.703 266.422, 615.745 265.365 C 611.522 265.086, 607.874 265.320, 607 265.927 M 535 275.891 C 525.471 279.058, 515.299 286.543, 510.941 293.596 C 507.447 299.248, 509.276 298.539, 516.295 291.520 C 525.936 281.879, 533.616 278.475, 545.500 278.577 C 555.312 278.661, 560.070 280.200, 568.548 286.033 C 574.141 289.881, 574.361 288.321, 568.886 283.635 C 561.862 277.622, 556.639 275.691, 546.500 275.357 C 541.550 275.194, 536.375 275.434, 535 275.891 M 383.828 287.283 C 376.967 292.488, 373.672 298.368, 369.942 312.062 C 365.019 330.136, 362.701 332.246, 345.901 333.949 C 316.203 336.960, 300.753 360.790, 309.979 389.358 C 313.968 401.710, 313.856 402.130, 303.685 412.862 C 298.006 418.854, 295.071 422.819, 294.226 425.641 C 292.744 430.585, 292.626 436, 294 436 C 294.550 436, 295 434.513, 295 432.696 C 295 427.336, 299.372 419.993, 306.075 414.095 C 316.471 404.948, 317.429 402.143, 313.963 391 C 309.166 375.581, 309.458 367.594, 315.215 356.763 C 321.743 344.483, 330.945 339.044, 348.383 337.159 C 364.476 335.419, 367.251 332.607, 372.388 312.834 C 376.479 297.088, 380.616 290.371, 388.927 285.977 C 391.827 284.444, 392.091 284.080, 390.328 284.044 C 389.133 284.020, 386.208 285.477, 383.828 287.283 M 465.500 294.573 C 461.537 296.634, 458.140 299.865, 456.379 303.250 C 454.419 307.018, 455.449 306.697, 459.265 302.351 C 466.918 293.634, 479.390 293.726, 489.909 302.577 C 494.286 306.260, 494.823 305.007, 490.820 300.448 C 484.773 293.560, 472.792 290.780, 465.500 294.573 M 854.181 332.664 C 853.641 333.674, 852.478 336.975, 851.597 340 C 848.206 351.638, 844.201 355.132, 832.211 356.915 C 818.604 358.939, 813.633 363.524, 806.023 381.069 C 801.588 391.294, 801.557 391.392, 803.030 390.482 C 803.596 390.132, 806.254 385.493, 808.936 380.173 C 816.477 365.214, 820.545 361.865, 833.333 360.087 C 844.886 358.480, 848.246 356.282, 851.866 347.963 C 855.214 340.272, 857.227 326.965, 854.181 332.664 M 505.204 342.517 C 498.978 355.331, 489.678 360.802, 471.866 362.129 C 454.084 363.454, 446.612 367.468, 441.387 378.500 C 436.252 389.345, 440.167 401, 448.945 401 C 454.809 401, 459.521 392.921, 455.817 389.217 C 454.064 387.464, 455.501 386.663, 457.999 387.999 C 465.679 392.109, 464.063 408.901, 455.348 415.548 C 442.532 425.324, 421.199 420.366, 414.906 406.150 C 413.117 402.109, 413.015 402.134, 408.936 407.625 C 401.738 417.314, 386.096 427.255, 375.927 428.604 L 371.269 429.222 370.065 434.601 C 368.623 441.044, 362.421 450.706, 356.943 455.045 C 353.354 457.888, 353 458.590, 353 462.873 C 353 468.459, 351.084 472.503, 344.776 480.228 C 339.263 486.981, 338.394 490.481, 339.948 499.691 C 340.580 503.436, 341.021 508.075, 340.928 510 C 340.836 511.925, 341.489 515.469, 342.380 517.876 C 344.445 523.453, 344.440 529.759, 342.355 549 C 339.690 573.592, 342.798 582.704, 362.991 609.500 C 380.402 632.605, 386.730 645.789, 387.902 661.403 L 388.500 669.376 395.431 674.098 C 423.087 692.935, 480.372 713.616, 513.053 716.560 C 532.762 718.335, 556.974 711.232, 596.500 692.078 C 656.614 662.946, 675.945 637.580, 686.068 574.545 C 688.305 560.614, 688.306 560.561, 686.559 543.384 C 685.596 533.921, 685.110 525.230, 685.477 524.071 C 685.997 522.433, 685.170 521.015, 681.766 517.707 C 673.630 509.800, 673.132 501.010, 680.048 487.406 C 685.124 477.421, 685.092 477.123, 678.133 469.643 C 670.747 461.703, 669.294 457.735, 670.993 450.142 C 671.916 446.015, 671.943 444.481, 671.097 444.199 C 664.088 441.863, 653.182 431.112, 650.945 424.334 C 649.959 421.346, 649.457 421, 646.104 421 C 629.506 421, 608.413 404.922, 601.398 386.922 C 600.450 384.490, 599.591 382.380, 599.488 382.234 C 598.830 381.297, 581 400.083, 581 401.714 C 581 405.228, 584.626 407.580, 588.050 406.287 C 591.571 404.958, 591.830 405.873, 588.750 408.759 C 585.393 411.903, 581.203 413.186, 574.346 413.167 C 560.974 413.131, 555.556 405.552, 561.568 395.294 C 566.765 386.427, 564.611 381.557, 553.170 376.304 C 536.085 368.460, 532.843 366.733, 527.089 362.408 C 520.360 357.350, 513.990 349.855, 510.380 342.750 C 509.052 340.137, 507.839 338, 507.682 338 C 507.526 338, 506.411 340.033, 505.204 342.517 M 170.500 359 C 168.225 359.579, 169.214 359.792, 174.595 359.882 C 183.170 360.025, 184.374 361.039, 185.910 369.422 C 187.769 379.563, 189.234 380.756, 200.421 381.243 L 206.342 381.500 207.725 385.662 C 209.453 390.862, 213.198 395, 216.175 395 L 218.445 395 215.973 393.310 C 212.881 391.198, 211.885 389.649, 210 384.023 C 208.114 378.394, 205.303 376.843, 198.437 377.642 C 192.734 378.306, 190.419 376.898, 189.456 372.180 C 186.644 358.400, 182.950 355.832, 170.500 359 M 910.049 418.450 C 906.057 422.568, 904.234 422.969, 897 421.323 C 885.954 418.809, 883.048 419.620, 876.287 427.104 C 872.453 431.348, 869.364 432.555, 860.157 433.404 C 856.668 433.726, 851.943 434.816, 849.657 435.828 C 845.518 437.659, 839 444.021, 839 446.230 C 839 446.869, 840.462 445.796, 842.250 443.848 C 846.998 438.671, 851.184 436.921, 861.027 435.998 C 871.368 435.027, 872.854 434.370, 879.668 427.750 L 884.836 422.730 890.168 423.398 C 906.361 425.427, 905.359 425.501, 909.378 421.973 C 913.187 418.629, 915.713 415, 914.231 415 C 913.770 415, 911.888 416.552, 910.049 418.450 M 697.536 432.941 C 697.145 433.574, 697.851 434, 699.293 434 C 706.085 434, 710.822 440.898, 710.966 451 C 711.159 464.562, 716.169 468.942, 734.837 471.872 C 759.204 475.696, 772.248 495.226, 766.578 519.397 C 764.589 527.877, 765.031 528.680, 767.951 521.891 C 771.060 514.665, 771.727 504.032, 769.548 496.450 C 764.786 479.886, 752.951 470.625, 732.669 467.593 C 718.050 465.408, 715.607 463.173, 714.003 450.524 C 712.938 442.127, 710.976 437.759, 707 434.931 C 703.828 432.676, 698.405 431.536, 697.536 432.941 M 317.990 438.191 C 317.974 441.984, 313.523 450.383, 309.922 453.412 C 308.072 454.969, 301.968 458.435, 296.358 461.114 C 278.705 469.545, 274.184 480.171, 280.925 497.389 C 282.552 501.545, 283.243 500.018, 282.059 494.882 C 279.815 485.148, 281.354 476.519, 286.298 471.124 C 287.509 469.801, 292.626 466.789, 297.670 464.430 C 308.203 459.502, 313.948 454.769, 316.825 448.649 C 319.451 443.062, 320.506 437.431, 319.090 436.556 C 318.424 436.144, 317.996 436.781, 317.990 438.191 M 257.809 447.750 C 245.852 460.216, 245.933 478.276, 258.031 497.432 C 263.837 506.624, 264.091 504.972, 258.668 493.304 C 252.932 480.966, 251.614 475.628, 252.221 467.202 C 252.737 460.049, 255.709 452.876, 260.534 447.143 C 264.232 442.747, 262.166 443.208, 257.809 447.750 M 606.500 456.931 C 597.759 460.050, 587.018 465.939, 568 478.037 C 539.637 496.080, 537.582 496.848, 531.989 491.490 C 528.195 487.855, 527.619 488.525, 529.581 494.285 C 531.507 499.936, 537.483 505.625, 542.477 506.562 C 547.359 507.478, 559.232 501.624, 581 487.569 C 590.075 481.710, 602.513 474.401, 608.639 471.327 C 619.470 465.893, 619.997 465.741, 627.679 465.841 C 635.650 465.944, 649.812 469.300, 656.187 472.597 C 660.593 474.875, 660.648 473.680, 656.301 470.091 C 641.680 458.019, 619.715 452.214, 606.500 456.931 M 395.452 459.375 C 386.001 461.711, 365.537 473.034, 361.098 478.381 C 359.277 480.576, 359.791 480.460, 367.138 477.023 C 388.584 466.988, 400.759 467.817, 423.263 480.847 C 428.893 484.107, 439.125 490.044, 446 494.040 C 462.146 503.425, 472.042 508.001, 476.184 507.996 C 482.766 507.989, 489.419 501.358, 490.687 493.541 C 491.364 489.367, 490.526 489.062, 487.821 492.500 C 483.557 497.921, 479.415 496.445, 450.500 479.203 C 420.949 461.582, 406.937 456.535, 395.452 459.375 M 518.739 480 C 516.150 489.091, 519.003 500.162, 525.378 505.759 C 530.730 510.458, 533.422 510.059, 528.809 505.250 C 523.462 499.676, 520.995 493.943, 520.173 485.186 C 519.649 479.599, 519.257 478.183, 518.739 480 M 499.541 485.500 C 498.683 492.478, 495.171 500.914, 490.905 506.250 C 487.090 511.021, 489.447 511.400, 494.085 506.761 C 499.845 501.001, 503.243 489.380, 501.179 482.500 C 500.345 479.718, 500.226 479.937, 499.541 485.500 M 150.304 482.106 C 148.218 482.708, 144.412 485.975, 139.351 491.504 C 128.137 503.757, 126.805 503.952, 112 495.509 C 107.367 492.867, 99.060 492.271, 98.319 494.527 C 98.113 495.156, 99.541 495.406, 102.005 495.171 C 105.316 494.855, 107.219 495.502, 112.764 498.828 C 126.937 507.329, 129.108 507.042, 139.986 495.238 C 151.146 483.126, 153.637 482.540, 164.382 489.501 C 172.056 494.472, 175.880 495.530, 183.097 494.675 C 190.638 493.782, 193.029 491.720, 185.673 492.454 C 178.032 493.217, 173.754 491.958, 165.449 486.502 C 161.679 484.026, 158.047 482, 157.379 482 C 156.710 482, 155.564 481.816, 154.832 481.591 C 154.099 481.366, 152.062 481.598, 150.304 482.106 M 586.773 497.555 C 574.988 500.412, 563.760 508.585, 559.653 517.295 C 556.791 523.364, 558.271 523.761, 562.464 518.049 C 568.477 509.858, 585.781 498, 591.722 498 C 592.425 498, 593 497.550, 593 497 C 593 496.450, 592.888 496.037, 592.750 496.083 C 592.612 496.129, 589.923 496.791, 586.773 497.555 M 630.102 498.691 C 627.064 500.756, 625.545 501, 615.750 501 C 598.303 501, 580.941 507.890, 567.554 520.125 C 562.060 525.146, 556.181 533.514, 557.336 534.669 C 557.654 534.987, 562.546 533.201, 568.207 530.700 C 585.252 523.168, 602.206 518.972, 615.381 519.024 C 620.812 519.046, 623.761 519.474, 632.925 521.571 C 637.454 522.607, 633.266 519.244, 627.159 516.941 C 617.961 513.472, 602.941 513.305, 591.260 516.543 C 590.292 516.811, 591.750 515.969, 594.500 514.672 C 606.457 509.032, 620.807 508.207, 633.406 512.437 C 642.516 515.495, 643 515.531, 643 513.155 C 643 512.140, 643.946 510.454, 645.102 509.407 C 647.157 507.548, 650.513 502, 649.583 502 C 649.325 502, 647.499 502.953, 645.524 504.118 C 641.851 506.285, 639.454 506.271, 633.618 504.047 C 630.861 502.997, 630.811 502.867, 632.456 501.049 C 635.530 497.652, 633.954 496.073, 630.102 498.691 M 435.500 501.790 C 446.946 506.454, 455.874 513.162, 461.731 521.498 C 465.019 526.178, 465.341 523.881, 462.232 517.929 C 457.284 508.459, 445.087 500.711, 433.110 499.431 L 428.500 498.938 435.500 501.790 M 388 500.809 C 388 501.254, 388.661 502.491, 389.468 503.559 C 391.460 506.192, 391.386 506.503, 388.453 507.839 C 384.731 509.535, 380.965 509.265, 376.735 506.998 C 374.681 505.897, 373 505.244, 373 505.548 C 373 507.136, 376.279 512.074, 378.487 513.811 C 380.096 515.077, 380.791 516.380, 380.400 517.400 C 379.562 519.585, 380.903 519.416, 387.065 516.562 C 398.976 511.043, 413.241 510.999, 427.163 516.438 C 433.326 518.845, 433.376 518.894, 429 518.207 C 426.525 517.818, 419.325 517.505, 413 517.511 C 402.112 517.522, 401.133 517.696, 394.601 520.779 C 386.093 524.794, 386.454 525.434, 396.068 523.382 C 411.652 520.057, 433.376 523.386, 454.493 532.336 C 460.277 534.788, 465.221 536.451, 465.480 536.032 C 466.470 534.431, 459.439 525.635, 453.109 520.552 C 437.902 508.342, 425.043 503.603, 407.500 503.742 C 397.312 503.823, 395.029 503.547, 392.382 501.919 C 388.974 499.822, 388 499.575, 388 500.809 M 653 518.656 C 645.943 520.548, 642.384 523.607, 648.500 522.525 C 653.775 521.591, 659 519.365, 659 518.051 C 659 517.473, 658.888 517.041, 658.750 517.091 C 658.612 517.141, 656.025 517.845, 653 518.656 M 364.924 521.408 C 366.635 523.470, 372.407 526, 375.401 526 C 379.946 526, 378.212 524.242, 371.541 522.087 C 363.895 519.617, 363.394 519.565, 364.924 521.408 M 646.029 527.961 C 645.220 528.473, 644.770 529.081, 645.029 529.314 C 645.621 529.844, 663 530.910, 663 530.415 C 663 527.890, 649.278 525.906, 646.029 527.961 M 364.250 531.491 C 359.746 533.448, 360.067 535.006, 364.750 533.919 C 366.813 533.440, 370.637 533.037, 373.250 533.024 C 378.217 532.999, 379.610 531.665, 375.750 530.630 C 372.102 529.653, 367.726 529.980, 364.250 531.491 M 549.560 532.812 C 547.540 539.177, 559.821 547.116, 571.409 546.937 L 575.500 546.873 569 544.675 C 559.377 541.421, 553.741 537.971, 551.841 534.172 C 550.386 531.264, 550.104 531.096, 549.560 532.812 M 472 534.306 C 472 538.346, 460.809 546.032, 452.750 547.527 C 447.203 548.556, 448.089 550.253, 453.750 549.443 C 460.722 548.446, 467.605 545.214, 471.007 541.339 C 474.021 537.907, 474.850 534.644, 473 533.500 C 472.450 533.160, 472 533.523, 472 534.306 M 848.054 554.585 C 853.413 560.161, 855.796 561, 866.276 561 C 876.711 561, 876.757 561.025, 882.300 569.722 C 885.929 575.415, 889.961 577.402, 896.352 576.645 C 903.527 575.795, 904.747 574, 898.150 574 C 891.166 574, 887.826 572.084, 883.532 565.615 C 878.910 558.651, 876.199 557.534, 865.857 558.331 C 857.188 559, 852.695 557.640, 848.595 553.106 C 847.547 551.948, 846.221 551, 845.649 551 C 845.076 551, 846.158 552.613, 848.054 554.585 M 507.951 555.362 C 503.056 556.682, 496 560.617, 496 562.026 C 496 562.501, 498.401 561.790, 501.336 560.446 C 510.370 556.311, 520.155 556.338, 530.500 560.529 C 532.476 561.329, 532.477 561.313, 530.586 559.160 C 526.748 554.789, 516.469 553.065, 507.951 555.362 M 540 565.476 C 540 565.738, 540.898 567.425, 541.996 569.226 C 544.377 573.131, 544.579 578.979, 542.474 583.050 C 540.783 586.320, 541.465 586.763, 544.701 584.497 C 547.777 582.342, 549.340 577.029, 547.966 573.394 C 546.402 569.253, 540 562.890, 540 565.476 M 262.339 572.160 C 263.098 578.070, 261.189 585.500, 256.585 594.563 C 248.334 610.804, 250.082 621.470, 262.239 629.063 C 273.131 635.866, 275.187 639.871, 271.474 647.050 C 269.651 650.576, 271.286 651.020, 273.523 647.606 C 278.315 640.291, 275.957 633.882, 266.162 627.604 C 253.459 619.462, 252.287 613.780, 259.536 595.480 C 264.584 582.738, 266.040 571.531, 263.017 568.697 C 261.989 567.733, 261.857 568.405, 262.339 572.160 M 483.783 569.750 C 478.550 575.750, 479.130 584.859, 484.945 587.970 C 488.478 589.861, 488.962 589.033, 486.470 585.360 C 483.513 581.003, 483.332 576.733, 485.892 571.711 C 487.935 567.706, 486.627 566.490, 483.783 569.750 M 174 574.205 C 170.080 575.702, 166.731 578.105, 162.340 582.569 C 154.607 590.433, 153.509 591, 146.016 591 C 139.441 591, 134.712 592.800, 133.030 595.945 C 131.412 598.967, 131.803 599.107, 134.455 596.455 C 136.592 594.317, 137.812 594, 143.889 594 C 153.210 594, 155.257 593.059, 163.664 584.907 C 168.371 580.342, 173.015 576.943, 177.169 575.021 C 184.445 571.655, 182.194 571.075, 174 574.205 M 530.500 576.959 C 527.450 578.229, 523.227 583.159, 522.430 586.380 C 522.033 587.985, 522.112 589.078, 522.609 588.848 C 523.099 588.621, 524.625 587.916, 526 587.282 C 527.375 586.647, 530.208 585.849, 532.296 585.510 C 537.548 584.655, 539.540 580.665, 536.103 577.883 C 533.530 575.799, 533.356 575.770, 530.500 576.959 M 763.164 577.303 C 756.278 585.600, 757.680 595.662, 767.969 611.784 C 770.458 615.684, 771.463 618.543, 771.808 622.701 C 772.450 630.434, 770.553 633.581, 762.116 638.788 C 752.975 644.428, 751.612 647.814, 754.110 658.674 C 755.764 665.864, 754.090 670.871, 748.339 675.933 C 743.039 680.598, 744.724 681.432, 750.701 677.102 C 757.223 672.377, 759.157 665.495, 756.909 655.012 C 755.517 648.521, 756.762 646.445, 765.272 641.067 C 777.957 633.050, 779.189 622.034, 769.071 607.086 C 761.198 595.456, 759.547 587.603, 763.412 580.157 C 765.230 576.656, 765.084 574.988, 763.164 577.303 M 492.978 580.022 C 489.784 583.216, 492.179 586.387, 498.113 586.820 C 500.524 586.995, 503.287 587.855, 504.254 588.730 C 506.692 590.936, 507.514 589.655, 506.003 586.006 C 503.527 580.029, 496.294 576.706, 492.978 580.022 M 534.004 604.049 C 527.408 605.414, 522.481 607.589, 515.086 612.399 C 507.901 617.074, 497.615 625.949, 498.435 626.768 C 498.717 627.050, 500.745 625.656, 502.942 623.672 C 523.207 605.363, 546.301 602.314, 563.773 615.641 C 568.232 619.042, 567.586 619.312, 559.665 617.357 C 553.612 615.864, 552.993 615.473, 552.921 613.106 L 552.842 610.500 551.838 613.250 C 550.877 615.880, 550.538 616, 544.069 616 C 538.043 616, 537.187 615.755, 536.220 613.750 L 535.135 611.500 535.068 614.029 C 535.007 616.306, 534.307 616.736, 528.020 618.355 C 515.044 621.698, 497.437 631.715, 484.707 642.998 C 477.939 648.996, 479.652 649.172, 487.709 643.307 C 509.337 627.563, 526.244 620.977, 544.910 621.024 C 557.364 621.056, 561.032 621.980, 575.291 628.678 C 584.072 632.802, 587.443 633.957, 588.276 633.124 C 589.108 632.292, 588.948 632, 587.661 632 C 586.704 632, 580.790 627.038, 574.517 620.974 C 558.607 605.592, 547.988 601.155, 534.004 604.049 M 584.492 615.124 C 591.286 625.001, 592.402 634.371, 587.849 643.297 L 585.750 647.410 588.125 645.850 C 597.577 639.641, 596.919 624.664, 586.739 614.250 C 581.143 608.526, 580.204 608.891, 584.492 615.124 M 537.754 640.084 C 531.692 641.513, 517.853 649.186, 519.095 650.429 C 519.343 650.676, 522.210 649.590, 525.468 648.015 C 533.129 644.313, 542.472 642.569, 550.053 643.426 C 556.894 644.200, 558.086 642.769, 552.532 640.449 C 548.718 638.855, 543.512 638.727, 537.754 640.084 M 632.500 679.193 C 621.198 686.884, 595.642 700.149, 577 708.001 C 562.021 714.310, 563.290 713.217, 562.782 720.250 C 562.328 726.532, 562.363 726.579, 566 724.500 C 569.822 722.315, 572.771 722.711, 577.395 726.032 C 585.281 731.695, 591.122 731.146, 600.442 723.867 C 604.730 720.518, 606.074 718.762, 606.920 715.404 C 609.657 704.536, 622.443 700.413, 626.092 709.223 C 627.646 712.974, 625.910 716.787, 621.733 718.795 C 618.928 720.144, 615 719.055, 615 716.930 C 615 716.286, 615.714 716.312, 617 717 C 619.657 718.422, 622.774 716.749, 623.600 713.458 C 624.938 708.127, 618.278 705.947, 614.133 710.359 C 608.577 716.272, 609.683 725.451, 616.333 728.622 C 622.088 731.366, 626.126 729.908, 633.446 722.443 C 640.584 715.163, 642.672 714.600, 649.006 718.246 C 655.065 721.733, 655.414 720.737, 654.027 703.903 C 652.953 690.871, 652.621 689.340, 650.262 686.555 C 648.838 684.875, 646.510 681, 645.087 677.944 L 642.500 672.388 632.500 679.193 M 384.781 678.330 C 383.949 680.074, 381.720 683.527, 379.828 686.005 C 376.444 690.436, 376.367 690.756, 375.161 705.505 C 373.952 720.290, 373.965 720.524, 376.048 722.225 C 385.659 730.074, 406 724.239, 406 713.632 C 406 708.607, 403.049 705.789, 398.211 706.193 C 395.199 706.445, 394.357 707.013, 393.541 709.347 C 392.315 712.853, 395.012 715.599, 398.072 713.961 C 401.036 712.375, 401.656 712.937, 399.201 714.983 C 394.355 719.024, 388.454 712.891, 391.507 706.986 C 393.603 702.933, 397.371 701.510, 402.196 702.947 C 409.488 705.119, 412.346 713.640, 408.113 720.583 C 404.702 726.175, 408.138 728.511, 415.346 725.500 C 420.862 723.195, 426.125 723.593, 430.610 726.655 C 441.429 734.038, 446.809 734.393, 455.761 728.314 C 460.354 725.195, 461.496 724.834, 464.761 725.465 C 466.817 725.863, 469.762 726.425, 471.304 726.715 L 474.107 727.243 473.804 721.445 L 473.500 715.647 457 710.033 C 429.528 700.685, 409.189 691.158, 393.897 680.473 L 386.294 675.161 384.781 678.330 M 638.483 723.718 C 636.572 725.798, 635.007 727.819, 635.005 728.208 C 635.002 728.597, 632.900 730.146, 630.334 731.650 C 621.998 736.536, 612.344 734.767, 608.512 727.653 L 606.626 724.151 601.866 728.431 C 593.289 736.142, 585.215 736.745, 575.945 730.368 L 570.762 726.803 566.774 728.602 C 562.831 730.380, 562.791 730.453, 563.294 734.917 C 563.669 738.243, 564.543 740.070, 566.607 741.846 C 570.569 745.254, 586.963 744.493, 605 740.064 C 625.781 734.961, 641.310 734.965, 652.890 740.074 L 657.280 742.011 656.649 736.756 C 656.301 733.865, 656.013 729.813, 656.009 727.750 C 656.001 724.241, 655.805 724, 652.960 724 C 651.288 724, 648.128 723.086, 645.938 721.968 L 641.956 719.937 638.483 723.718 M 553.677 725.039 C 549.629 728.224, 535.113 734.661, 529.201 735.895 C 515.508 738.751, 495.634 736.395, 484.096 730.549 L 479 727.966 479 730.934 C 479 739.805, 474.954 748.515, 470.077 750.141 C 468.987 750.504, 469.395 751.961, 471.909 756.678 C 490.510 791.577, 546.958 792.656, 565.137 758.460 C 569.553 750.152, 569.586 749.372, 565.590 747.476 C 560.932 745.265, 558.144 739.393, 557.580 730.606 C 557.058 722.477, 557.014 722.415, 553.677 725.039 M 372.359 736.250 C 371.820 742.438, 371.493 747.662, 371.632 747.859 C 371.771 748.057, 373.185 747.292, 374.774 746.161 C 386.588 737.748, 402.853 736.434, 430.500 741.659 C 444.083 744.225, 462.922 745.738, 467.376 744.620 C 472.066 743.443, 476.410 732, 472.167 732 C 471.110 732, 468.594 731.311, 466.578 730.468 C 462.661 728.831, 462.368 728.912, 457 733.109 C 448.542 739.722, 440.266 739.033, 428.090 730.701 L 423.680 727.684 417.090 729.941 C 409.912 732.399, 406.212 731.914, 403.900 728.211 C 402.771 726.404, 402.633 726.403, 399.157 728.175 C 393.758 730.927, 384.582 730.631, 378.419 727.504 C 375.714 726.131, 373.464 725.006, 373.419 725.004 C 373.375 725.002, 372.898 730.063, 372.359 736.250 M 572.455 752.250 C 569.100 767.748, 552.914 782.787, 534.540 787.478 C 506.776 794.567, 472.642 777.890, 466.017 754 L 465.046 750.500 458.023 750.468 C 449.638 750.430, 449.658 750.370, 454.382 761.191 C 469.512 795.844, 506.348 811.764, 544.199 800.010 C 564.564 793.685, 583.094 773.238, 587.480 752.250 L 588.159 749 580.659 749 L 573.159 749 572.455 752.250" stroke="none" fill="#1a1a1a" fill-rule="evenodd"/>
</svg>