<svg xmlns="http://www.w3.org/2000/svg" width="1024" height="1024" viewBox="0 0 1024 1024" version="1.1">
	<path d="M 842.677 54.750 C 842.109 55.715, 844.456 71.790, 845.286 72.619 C 845.631 72.965, 846.666 72.959, 847.584 72.606 C 849.212 71.982, 849.086 61.514, 847.382 55.750 C 846.870 54.016, 843.527 53.306, 842.677 54.750 M 746.682 85.385 C 746.021 87.108, 748.721 89.681, 761.965 99.950 C 772.062 107.778, 775.500 109.277, 775.500 105.853 C 775.500 104.140, 750.577 84, 748.457 84 C 747.773 84, 746.975 84.623, 746.682 85.385 M 845.992 88.977 C 817.573 92.518, 791.746 113.855, 782.416 141.500 C 778.574 152.882, 777.893 170.797, 780.834 183.097 C 793.368 235.516, 853.424 259.515, 898.250 230.018 C 904.348 226.005, 905 225.254, 905 222.237 L 905 218.899 898.643 223.435 C 868.232 245.136, 828.813 241.686, 803.762 215.130 C 789.363 199.867, 784.550 187.453, 784.520 165.500 C 784.501 151.244, 784.653 150.073, 787.585 141.882 C 804.019 95.981, 861.544 78.487, 898.915 108.027 C 904.891 112.751, 905.004 112.774, 904.985 109.250 C 904.973 107.099, 903.829 105.661, 899.735 102.647 C 884.693 91.577, 865.108 86.595, 845.992 88.977 M 578.627 97.114 C 566.354 104.514, 552.281 120.224, 554.994 123.493 C 556.858 125.738, 557.136 125.551, 562.523 118.419 C 568.249 110.839, 575.907 104.221, 584.214 99.675 C 587.817 97.703, 589.914 95.932, 589.748 95 C 589.253 92.234, 585.552 92.938, 578.627 97.114 M 605.308 103.958 C 591.118 110.526, 573 126.897, 573 133.150 C 573 136.680, 576.481 134.857, 581.562 128.667 C 588.403 120.332, 596.867 113.655, 606.593 108.920 C 615.893 104.393, 616.045 104.280, 615.324 102.402 C 614.546 100.374, 612.295 100.724, 605.308 103.958 M 731.550 174.115 C 716.666 175.063, 716 175.228, 716 177.969 C 716 180.385, 714.740 180.330, 737 178.883 C 755.232 177.697, 756.479 177.412, 755.426 174.667 C 754.705 172.788, 753.001 172.749, 731.550 174.115 M 539 194.602 C 529.908 195.699, 521.873 197.251, 515.160 199.207 L 507.819 201.345 498.660 199.423 C 440.125 187.137, 361.713 231.638, 322.991 299.121 C 311.756 318.700, 303.254 342.935, 298.826 368 C 296.421 381.615, 295.665 412.825, 297.323 430.045 L 298.145 438.590 292.860 441.045 C 261.852 455.448, 261.814 505.080, 292.792 529.418 L 298.825 534.158 296.162 538.455 L 293.500 542.753 288 542.266 C 268.595 540.549, 242.194 548.735, 226.470 561.344 C 207.840 576.283, 197.769 597.040, 195.953 624.240 C 194.459 646.625, 187.946 654.736, 170.500 655.946 C 158.824 656.755, 158.958 658.222, 171.878 671.025 L 181.907 680.963 159.203 681.231 L 136.500 681.500 136.234 708.162 C 136.002 731.417, 136.171 735.028, 137.555 736.412 C 138.887 737.744, 142.029 738, 157.071 738 L 175 738 175 744.500 L 175 751 156.700 751 C 143.800 751, 138.046 751.354, 137.200 752.200 C 135.931 753.469, 135.387 803.238, 136.607 806.418 C 137.131 807.783, 139.802 808, 156.107 808 L 175 808 175 830.629 L 175 853.258 168.250 852.615 C 159.637 851.794, 160.540 851.170, 137.503 873.863 C 121.189 889.934, 119 892.467, 119 895.274 C 119 898.432, 119.074 898.385, 127.770 889.729 L 136.540 881 203.770 881 C 256.887 881, 271 881.262, 271.001 882.250 C 271.002 882.938, 270.484 887.212, 269.850 891.750 L 268.697 900 196.098 900.152 C 156.169 900.236, 123.050 900.409, 122.500 900.537 C 121.950 900.665, 120.938 900.821, 120.250 900.885 C 119.563 900.948, 119 901.900, 119 903 C 119 904.982, 119.667 905, 193.857 905 L 268.714 905 269.267 912.750 C 269.572 917.013, 270.134 921.288, 270.517 922.250 C 271.177 923.907, 267.189 924, 195.107 924 L 119 924 119 926.500 C 119 928.971, 119.100 929, 127.500 929 L 136 929 136 947.378 C 136 962.248, 136.278 965.986, 137.456 966.964 C 140.535 969.519, 141 967.023, 141 947.941 L 141 929 153.500 929 L 166 929 166 947.378 C 166 962.248, 166.278 965.986, 167.456 966.964 C 170.535 969.519, 171 967.023, 171 947.941 L 171 929 175 929 L 179 929 179 947.941 C 179 967.391, 179.633 970.509, 182.746 966.403 C 183.918 964.857, 184.108 961.166, 183.757 946.750 L 183.325 929 195.662 929 L 208 929 208 948.031 C 208 964.559, 208.211 967.144, 209.601 967.677 C 212.470 968.778, 212.969 965.766, 212.985 947.250 L 213 929 242.437 929 L 271.875 929 274.989 935.326 C 289.343 964.484, 323.520 970.697, 357.309 950.292 C 360.503 948.362, 363.238 946.945, 363.385 947.142 C 363.533 947.339, 363.201 951.672, 362.649 956.772 C 361.872 963.940, 361.927 966.323, 362.889 967.272 C 365.153 969.504, 366.611 965.577, 367.938 953.670 L 369.209 942.268 378.036 935.026 C 389.155 925.903, 409.364 905.297, 427.913 884.171 C 435.798 875.190, 442.756 867.706, 443.375 867.539 C 443.994 867.373, 448.550 866.775, 453.500 866.210 C 458.450 865.644, 463.098 865.028, 463.830 864.841 C 464.734 864.609, 466.697 868.916, 469.962 878.291 C 476.050 895.777, 479.044 899.275, 485.882 896.891 C 489.947 895.474, 491.387 891.987, 496.936 870.135 L 501.666 851.505 508.083 847.879 C 523.982 838.895, 529.727 828.624, 524.056 819.323 C 522.343 816.515, 522.293 816.002, 523.625 814.896 C 528.845 810.564, 529.373 800.086, 524.622 795.127 L 521.959 792.347 524.082 790.426 C 530.837 784.313, 530.290 773.966, 522.984 769.650 C 518.971 767.279, 518.939 763.600, 522.912 761.546 C 529.706 758.032, 531.774 751.422, 528.011 745.250 C 526.673 743.055, 526.430 741.988, 527.265 741.964 C 571.597 740.671, 607.690 713.121, 617.926 672.764 C 620.109 664.154, 619.742 664.298, 632.717 666.942 C 667.963 674.125, 693.737 690.563, 715.913 720.001 C 730.393 739.223, 749.645 771.979, 761.097 796.880 L 765.411 806.260 762.456 808.696 C 743.506 824.310, 690.860 851.109, 688.780 846.200 C 688.383 845.265, 686.670 836.625, 684.971 827 C 680.155 799.702, 675.198 773.678, 674.439 771.701 C 674.059 770.711, 673.017 770.051, 672.124 770.234 C 669.752 770.720, 670.073 773.448, 676.858 810.500 C 686.210 861.564, 695.278 917.698, 699.617 951.381 C 701.341 964.764, 702.779 968.873, 705.211 967.369 C 706.880 966.338, 703.100 935.772, 695.671 890.204 C 694.389 882.341, 693.604 875.745, 693.927 875.545 C 694.250 875.346, 699.686 873.289, 706.007 870.974 C 718.750 866.307, 735.336 858.535, 747.418 851.569 C 751.773 849.057, 755.440 847.115, 755.567 847.251 C 757.443 849.276, 769.781 924.782, 773.256 955.500 C 774.410 965.706, 774.662 966.523, 776.750 966.820 C 779.666 967.234, 779.698 964.425, 777.007 944.359 C 775.911 936.186, 775.011 929.388, 775.007 929.250 C 775.003 929.112, 786.700 929, 801 929 L 827 929 827 947.893 C 827 964.241, 827.214 966.868, 828.590 967.396 C 831.672 968.579, 832 966.707, 832 947.941 L 832 929 844 929 L 856 929 856 947.378 C 856 962.248, 856.278 965.986, 857.456 966.964 C 860.535 969.519, 861 967.023, 861 947.941 L 861 929 864.964 929 L 868.929 929 868.714 947.450 C 868.564 960.397, 868.847 966.246, 869.663 967.063 C 872.454 969.854, 873 966.726, 873 947.941 L 873 929 885.500 929 L 898 929 898 947.378 C 898 962.248, 898.278 965.986, 899.456 966.964 C 902.535 969.519, 903 967.023, 903 947.941 C 903 935.980, 903.369 929, 904 929 C 904.550 929, 905 927.875, 905 926.500 L 905 924 839.622 924 L 774.243 924 773.122 916.459 C 772.505 912.312, 772 908.037, 772 906.959 C 772 905.033, 773.129 905, 838.570 905 L 905.139 905 904.820 902.750 L 904.500 900.500 837.706 900.500 C 771.716 900.500, 770.908 900.476, 770.502 898.500 C 768.647 889.452, 768 885.555, 768 883.431 L 768 880.959 836.500 881.230 L 905 881.500 905 878.977 C 905 876.492, 898.672 869.688, 884.222 856.635 L 878.944 851.868 871.722 852.102 L 864.500 852.336 864.500 830.418 L 864.500 808.500 883.750 808.228 C 898.111 808.026, 903.017 807.645, 903.066 806.728 C 903.373 801.072, 902.764 752.426, 902.379 751.804 C 902.106 751.362, 893.584 751, 883.441 751 L 865 751 865 744.500 L 865 738 883.532 738 C 900.942 738, 902.108 737.883, 902.782 736.065 C 903.177 735.001, 903.373 722.176, 903.218 707.565 L 902.936 681 869.718 680.941 C 843.595 680.895, 836.909 680.628, 838.414 679.691 C 856.338 668.538, 866.320 660.418, 872.565 651.912 C 877.472 645.227, 876.809 644.003, 868.281 643.990 C 859.762 643.978, 852.843 640.971, 847.813 635.094 C 843.555 630.120, 842.340 625.995, 840.985 611.919 C 836.329 563.550, 801.272 532, 752.184 532 L 741.283 532 737.532 526.351 C 734.620 521.965, 734.085 520.531, 735.141 519.939 C 742.915 515.579, 752.666 504.474, 757.477 494.500 C 770.672 467.149, 762.089 435.663, 738.655 425.454 L 732 422.555 731.992 403.527 C 731.979 374.211, 728.860 353.743, 720.565 328.533 C 699.793 265.411, 652.435 218.138, 592.460 200.661 C 576.270 195.943, 551.324 193.116, 539 194.602 M 535.500 200.053 C 531.100 200.559, 523.450 202.148, 518.500 203.585 C 507.563 206.759, 508.326 206.725, 498.500 204.485 C 468.296 197.600, 427.872 208.320, 391.353 232.900 C 339.950 267.498, 308.433 320.717, 301.901 383.952 C 300.760 394.990, 301.153 421.338, 302.621 432.250 L 303.260 437 310.130 437 L 317 437 317.065 425.250 C 317.159 408.359, 318.894 397.500, 321.500 397.500 C 323.357 397.500, 323.464 398, 323 404.500 C 321.576 424.433, 322.552 448.203, 325.238 459 C 329.754 477.154, 329.931 477.296, 332.125 464.500 C 334.474 450.797, 339.437 432.756, 345.953 414.234 L 350.959 400 347.866 400 C 340.504 400, 332.516 391.702, 333.187 384.751 C 333.589 380.577, 336.193 380.407, 337.035 384.500 C 340.500 401.338, 361.833 397.802, 391.488 375.475 C 422.260 352.306, 454.642 313.548, 463.680 289.069 C 466.472 281.506, 469.185 279.798, 469.812 285.209 C 470.757 293.379, 458.741 330.892, 448.533 351.637 C 444.510 359.812, 441.351 366.644, 441.512 366.820 C 442.193 367.560, 450.355 362.640, 457.988 356.888 C 474.993 344.075, 489.869 322.558, 497.443 299.824 C 502.519 284.584, 503.128 279.911, 503.892 250.332 C 504.621 222.075, 505.159 218.356, 508.343 219.578 C 509.226 219.917, 509.534 226.369, 509.520 244.269 C 509.499 270.283, 510.135 275.161, 515.745 292 C 525.690 321.854, 550.424 352.758, 571.379 361.514 L 574.967 363.013 567.030 347.435 C 555.933 325.655, 545 295.960, 545 287.601 C 545 282.129, 548.488 284.501, 551.416 291.964 C 566.845 331.289, 615.093 371, 647.444 371 L 652.568 371 645.462 363.750 C 632.158 350.177, 615.580 324.142, 617.333 319.574 C 618.625 316.207, 620.907 318.326, 624.860 326.565 C 636.196 350.190, 660.729 374.788, 684.250 386.112 C 687.311 387.586, 689 389.039, 689 390.199 C 689 392.895, 685.465 392.453, 679.331 388.991 C 676.399 387.337, 674 386.435, 674 386.987 C 674 387.540, 677.321 397.106, 681.380 408.246 C 689.490 430.501, 696.105 450.620, 697.985 458.750 C 698.653 461.637, 699.540 464, 699.955 464 C 701.767 464, 705.798 439.513, 706.801 422.419 C 707.447 411.400, 707.651 410.500, 709.500 410.500 C 711.248 410.500, 711.537 411.264, 711.793 416.561 L 712.086 422.621 718.293 422.242 C 721.707 422.034, 725.063 421.683, 725.750 421.463 C 727.601 420.871, 727.402 388.171, 725.458 373.341 C 717.418 312.010, 686.975 259.840, 641.500 229.464 C 608.545 207.452, 568.298 196.285, 535.500 200.053 M 807.229 272.127 C 802.725 281.548, 799.282 289.648, 799.579 290.127 C 801.604 293.404, 803.964 290.397, 811.336 275.147 C 819.257 258.762, 820.354 255, 817.209 255 C 815.876 255, 813.323 259.382, 807.229 272.127 M 235.508 289.270 C 225.104 300.064, 217.063 316.659, 221.427 318.334 C 223.293 319.050, 224.389 317.623, 226.934 311.168 C 229.835 303.807, 235.892 295.182, 242.041 289.653 C 245.389 286.643, 247.011 284.472, 246.639 283.501 C 245.495 280.521, 242.389 282.131, 235.508 289.270 M 506.593 286.364 C 500.376 319.453, 475.260 355.216, 448.520 369.053 C 440.242 373.336, 438.356 373.712, 435.525 371.642 C 433.767 370.357, 434.129 369.357, 442.319 352.892 C 449.758 337.935, 459.783 312.449, 458.666 311.332 C 458.466 311.133, 456.725 313.347, 454.795 316.253 C 431.848 350.814, 390.373 387.624, 362.791 397.907 L 355.838 400.500 350.366 416.500 C 344.218 434.479, 338.943 453.849, 336.342 468 C 333.854 481.533, 333.802 518.953, 336.254 531.043 C 343.051 564.552, 362.087 592.553, 391.402 612.161 C 399.720 617.725, 413.931 625.538, 414.415 624.814 C 414.531 624.641, 415.158 620.687, 415.808 616.027 C 417.573 603.370, 422.125 594.550, 431.820 584.997 L 439.560 577.370 436.654 573.435 C 432.142 567.325, 427.231 556.325, 424.909 547.124 C 419.639 526.252, 425.775 512.317, 441.729 508.923 C 447.609 507.672, 451.480 507.856, 488 511.122 C 503.415 512.501, 524.650 511.719, 548.500 508.895 C 584.427 504.640, 593.536 506.466, 600.106 519.238 C 605.752 530.215, 602.001 551.713, 591.394 569.175 C 580.179 587.637, 557.166 603.597, 535.250 608.113 C 531.813 608.821, 529.003 609.873, 529.008 610.450 C 529.012 611.028, 529.491 614.425, 530.073 618 C 530.842 622.729, 530.810 626.762, 529.955 632.799 C 528.051 646.244, 528.735 646.532, 552.903 642.451 C 628.239 629.733, 680.158 590.474, 693.970 535.784 C 702.616 501.551, 699.944 475.811, 682.679 427 C 679.663 418.475, 674.798 404.707, 671.867 396.405 C 665.016 376.999, 663.964 376.081, 648 375.582 C 636.160 375.212, 629.244 373.560, 618.226 368.469 C 600.903 360.465, 578.407 342.286, 565.772 326.081 C 558.857 317.212, 558.712 317.070, 559.986 320.444 C 562.755 327.775, 567.532 337.826, 573.995 349.920 C 581.763 364.458, 582.078 365.639, 578.543 366.984 C 569.140 370.559, 542.867 350.465, 528.182 328.466 C 521.250 318.081, 513.799 302.767, 510.196 291.500 L 507.318 282.500 506.593 286.364 M 254.472 295.159 C 243.567 304.734, 229.477 333.877, 233.708 338.108 C 235.510 339.910, 236.865 338.277, 238.611 332.199 C 242.173 319.806, 248.273 308.945, 256.824 299.773 C 263.317 292.809, 261.410 289.067, 254.472 295.159 M 600.479 375.740 C 587.289 380.462, 584.269 387.799, 596.858 384.537 C 607.920 381.670, 619.081 383.753, 628.482 390.437 C 637.189 396.628, 637.887 390.954, 629.456 382.523 C 621.785 374.852, 610.403 372.187, 600.479 375.740 M 405.499 380.388 C 397.132 383.010, 386.314 393.221, 387.179 397.679 C 387.725 400.496, 389.345 400.157, 394.757 396.090 C 403.576 389.464, 417.371 386.817, 427.500 389.807 C 433.542 391.590, 434.879 388.759, 429.953 384.614 C 424.102 379.691, 413.544 377.866, 405.499 380.388 M 898.500 408.887 C 889.171 414.240, 880.204 426.067, 878.471 435.305 C 877.650 439.677, 877.738 439.653, 873.683 436.614 C 857.904 424.788, 837.807 425.648, 823 438.784 C 815.157 445.741, 809 458.903, 809 468.710 C 809 472.617, 809.061 472.605, 803.710 469.767 C 794.197 464.722, 772.187 468.178, 771.180 474.875 C 770.762 477.655, 772.357 477.572, 778.419 474.496 C 787.509 469.884, 799.409 471.498, 808.727 478.606 C 813.249 482.054, 813.663 481.425, 814.208 470.274 C 814.593 462.405, 815.207 459.404, 817.356 454.876 C 828.638 431.109, 857.924 425.774, 874.697 444.430 C 879.992 450.320, 881.283 449.700, 882.342 440.758 C 883.577 430.334, 891.874 418.043, 901.250 412.749 C 903.894 411.256, 905 409.949, 905 408.316 C 905 405.373, 904.558 405.411, 898.500 408.887 M 596.407 421.970 C 580.450 425.370, 564.469 444.326, 571.571 451.429 C 574.783 454.640, 577.258 453.519, 581.843 446.780 C 593.645 429.434, 613.947 429.831, 627.122 447.665 C 629.990 451.547, 631.720 453, 633.475 453 C 636.466 453, 639.140 449.407, 638.386 446.403 C 637.949 444.661, 638.938 443.102, 642.913 439.271 C 645.711 436.574, 648 433.596, 648 432.652 C 648 430.173, 645.229 429.483, 643.081 431.427 C 638.456 435.613, 634.499 435.429, 628.770 430.764 C 619.218 422.983, 607.102 419.691, 596.407 421.970 M 406.312 427.015 C 401.940 428.442, 398.522 430.498, 394.671 434.017 C 388.543 439.618, 385.439 440.271, 380.500 437 C 376.669 434.463, 375 434.473, 375 437.035 C 375 439.959, 377.686 443.643, 381.567 446.041 C 384.435 447.814, 384.843 448.533, 384.359 450.955 C 383.945 453.027, 384.359 454.359, 385.896 455.896 C 389.890 459.890, 392.142 458.643, 397.806 449.303 C 403.428 440.033, 415.844 435.776, 427.272 439.200 C 431.591 440.494, 440.670 448.146, 442.958 452.421 C 444.614 455.516, 447.965 456.624, 450.907 455.050 C 453.535 453.643, 453.603 449.891, 451.098 444.500 C 443.852 428.905, 424.122 421.202, 406.312 427.015 M 712.869 428.167 C 711.774 429.062, 711.038 431.820, 710.630 436.557 C 709.865 445.438, 706.418 462.472, 703.912 469.757 C 702.860 472.813, 702 476.921, 702 478.886 C 702 482.388, 702.086 482.311, 706.382 474.979 C 711.205 466.748, 719.378 458.378, 725.784 455.110 C 732.201 451.836, 741 452.678, 741 456.567 C 741 458.666, 738.554 459.367, 735.998 457.999 C 733.025 456.408, 724.974 460.404, 719.115 466.379 L 714.730 470.850 718.812 471.950 C 721.435 472.656, 723.935 474.311, 725.806 476.581 C 730.538 482.321, 732.681 492.418, 729.433 493.664 C 727.245 494.504, 726.165 493.107, 725.431 488.487 C 724.158 480.476, 720.990 476.786, 715.235 476.612 C 711.634 476.504, 711.389 476.721, 708.056 483 C 704.873 488.994, 704.549 490.434, 703.888 501.500 C 703.494 508.100, 702.850 516.313, 702.456 519.750 L 701.742 526 705.189 526 C 721.067 526, 744.049 509.921, 752.376 492.987 C 764.565 468.197, 758.194 440.846, 737.784 430.351 C 731.487 427.113, 715.839 425.742, 712.869 428.167 M 299.300 443.841 C 281.586 450.034, 271.746 468.329, 274.941 489.130 C 278.012 509.126, 293.295 527.729, 312.580 534.944 C 318.113 537.014, 330.882 539.451, 331.734 538.599 C 331.998 538.335, 331.491 533.173, 330.607 527.128 C 329.723 521.082, 329 513.613, 329 510.528 C 329 502.920, 322.328 490, 318.399 490 C 312.763 490, 307.067 497.605, 307.022 505.191 C 306.997 509.329, 305.634 510.771, 303.456 508.964 C 298.684 505.003, 304.998 489.577, 312.502 486.863 C 316.917 485.267, 316.894 485.079, 311.691 480.283 C 305.757 474.813, 299.078 472.311, 294.963 474.015 C 291.169 475.587, 289.248 474.273, 290.880 471.224 C 292.346 468.485, 297.668 467.695, 303.280 469.384 C 311.567 471.878, 319.618 478.990, 326.051 489.500 L 328.500 493.500 328.814 490.241 C 329.003 488.283, 327.717 483.216, 325.595 477.550 C 322.425 469.087, 318.646 453.526, 317.812 445.500 C 317.504 442.535, 317.425 442.497, 311 442.262 C 306.741 442.105, 302.707 442.650, 299.300 443.841 M 509.123 458.992 C 502.489 460.578, 495.676 468.511, 496.243 473.991 C 496.698 478.399, 499.403 477.475, 501.655 472.142 C 504.128 466.290, 507.580 463.745, 512.943 463.819 C 519.157 463.904, 522.152 466.517, 524.982 474.323 C 525.664 476.202, 526.586 477.034, 527.741 476.811 C 530.266 476.325, 530.399 473.690, 528.154 468.614 C 524.931 461.330, 516.718 457.177, 509.123 458.992 M 633.013 465.542 C 626.605 467.338, 623 469.470, 623 471.464 C 623 474.019, 625.046 474.226, 629.852 472.159 C 637.009 469.080, 643.610 468.528, 650.909 470.398 C 657.456 472.075, 659 471.883, 659 469.390 C 659 465.329, 642.493 462.885, 633.013 465.542 M 372.566 471.794 C 367.391 473.584, 366.462 474.598, 367.906 476.881 C 368.643 478.046, 369.532 478.007, 373.568 476.631 C 380.073 474.415, 388.816 474.558, 395.204 476.985 C 398.732 478.326, 400.758 478.642, 401.442 477.958 C 404.681 474.719, 394.418 470.088, 384 470.088 C 380.425 470.088, 375.280 470.855, 372.566 471.794 M 165.302 476.101 C 154.040 477.981, 142.119 484.533, 135.171 492.661 L 131.367 497.112 126.083 493.556 C 116.633 487.197, 116.119 490.843, 125.162 500.084 L 131.323 506.381 132.912 504.143 C 141.755 491.684, 147.755 486.687, 158.167 483.111 C 187.674 472.977, 218.919 494.897, 218.988 525.781 C 219.004 532.999, 220.747 533.445, 226.801 527.783 C 233.571 521.450, 239.070 519.582, 248.947 520.259 C 255.371 520.699, 256.969 520.522, 257.431 519.319 C 258.239 517.214, 258.311 517.304, 254.851 516.098 C 247.254 513.449, 233.208 515.902, 226.713 521.011 L 224.261 522.940 222.970 516.856 C 217.210 489.715, 191.707 471.692, 165.302 476.101 M 561 512.560 C 521.897 517.535, 500.065 517.995, 467.500 514.531 C 444.314 512.064, 441.698 512.443, 443.972 517.934 C 447.286 525.933, 465.643 531.742, 495.185 534.140 C 528.919 536.878, 571.031 529.562, 579.940 519.416 C 587.073 511.292, 582.885 509.776, 561 512.560 M 586.348 518.947 C 578.725 536.306, 516.959 545.366, 470.618 535.922 C 451.532 532.033, 443.673 528.087, 440.032 520.566 C 437.442 515.216, 436.790 515.056, 433.004 518.842 C 427.107 524.739, 426.608 536.831, 431.633 552.037 C 434.963 562.112, 443.375 575.456, 445.878 574.632 C 457.482 570.813, 461.048 569.217, 464.125 566.468 C 476.163 555.716, 493.877 552.237, 512.427 556.981 C 520.172 558.962, 520.176 558.962, 526.176 556.941 C 543.496 551.106, 564.204 556.535, 576.408 570.109 L 580.856 575.056 583.330 571.778 C 597.318 553.250, 601.639 526.592, 592.249 516.750 C 588.860 513.197, 588.876 513.191, 586.348 518.947 M 721.087 527.176 C 716.746 528.914, 710.893 530.377, 706.966 530.706 L 700.258 531.268 699.039 536.884 C 697.607 543.476, 691.660 559.030, 688.709 563.903 L 686.647 567.307 689.574 569.651 C 713.242 588.605, 747.821 564.236, 737.141 536.129 C 735.314 531.321, 730.371 523.899, 729.131 524.105 C 728.784 524.162, 725.164 525.544, 721.087 527.176 M 301.636 539.156 C 288.161 559.756, 302.430 586.081, 327.155 586.236 C 334.383 586.281, 342.732 583.164, 346.482 579.020 C 348.228 577.090, 348.133 576.732, 343.246 566.766 C 340.476 561.120, 337.262 553.575, 336.104 550 L 333.996 543.500 327.560 543.295 C 323.674 543.171, 318.227 542.067, 313.812 540.509 C 309.790 539.090, 305.751 537.677, 304.835 537.370 C 303.777 537.015, 302.611 537.666, 301.636 539.156 M 743.370 539.250 C 743.701 540.487, 743.979 543.862, 743.986 546.750 C 743.999 551.614, 744.176 552, 746.388 552 C 750.364 552, 765.696 556.818, 772.297 560.142 C 794.077 571.110, 808.951 588.997, 817.385 614.364 C 820.608 624.058, 820.797 628, 818.039 628 C 816.566 628, 815.810 626.941, 815.005 623.750 C 806.071 588.334, 782.456 564.515, 749.409 557.588 L 743.104 556.266 740.557 561.473 C 739.156 564.337, 735.732 568.890, 732.948 571.590 C 728.182 576.213, 727.921 576.727, 728.477 580.389 C 729.735 588.669, 738.885 607.567, 745.906 616.388 C 749.160 620.476, 749.712 622.442, 747.919 623.550 C 744.004 625.970, 728.844 601.198, 724.352 585.041 C 723.019 580.247, 722.309 579.051, 721.077 579.524 C 717.325 580.964, 709.570 582.169, 706.420 581.801 C 703.040 581.406, 703 581.448, 703 585.322 C 703 592.868, 706.154 610.576, 709.041 619.237 C 726.449 671.465, 778.104 698.475, 825 679.872 L 833.500 676.500 821.500 675.904 C 812.192 675.442, 807.823 674.718, 802.023 672.675 C 789.850 668.389, 774.148 656.383, 775.638 652.501 C 776.548 650.130, 777.805 650.666, 783.737 655.954 C 798.826 669.402, 819.159 674.202, 839.259 669.062 C 849.796 666.367, 854.276 663.827, 861.899 656.226 L 868.500 649.644 863.500 648.952 C 847.123 646.684, 837.912 635.592, 836.450 616.380 C 832.768 567.992, 800.158 537, 752.926 537 C 742.878 537, 742.773 537.025, 743.370 539.250 M 272 548.012 C 230.789 553.014, 203.978 581.753, 201.065 624.048 C 200.590 630.949, 199.648 638.444, 198.971 640.702 C 195.983 650.674, 185.187 659.548, 174.589 660.743 C 168.789 661.397, 168.816 661.566, 175.795 668.223 C 195.710 687.219, 231.501 686.137, 252.168 665.915 C 258.441 659.776, 260.609 658.817, 261.711 661.689 C 262.183 662.918, 260.504 665.102, 255.547 669.706 C 243.794 680.625, 227.711 686.851, 210.662 687.084 L 204.500 687.169 208.767 689.130 C 222.400 695.395, 245.808 697.417, 260.500 693.599 C 299.603 683.437, 329.220 645.279, 331.683 601.887 L 332.285 591.273 324.393 590.693 C 320.052 590.374, 315.680 589.975, 314.678 589.807 C 313.224 589.562, 312.391 590.916, 310.559 596.500 C 303.715 617.359, 289.951 638.248, 287.411 631.630 C 287.122 630.876, 288.911 627.362, 291.386 623.822 C 296.943 615.873, 303.400 602.707, 306.132 593.758 L 308.190 587.015 302.345 581.252 C 299.130 578.082, 295.627 573.540, 294.560 571.159 L 292.620 566.830 288.060 567.484 C 257.626 571.852, 232.195 596.048, 223.405 629 C 221.405 636.499, 219.661 639.061, 217.813 637.213 C 214.962 634.362, 223.695 610.109, 232.092 597.554 C 243.549 580.424, 262.471 567.859, 283.868 563.172 L 291.500 561.500 291.500 554.500 L 291.500 547.500 285 547.361 C 281.425 547.285, 275.575 547.578, 272 548.012 M 489 559.968 C 483.013 561.075, 474.099 564.552, 471 566.989 L 468.500 568.956 475.137 568.978 C 494.466 569.043, 515.579 581.903, 523.769 598.601 C 525.945 603.039, 526.873 604, 528.978 604 C 535.964 604, 554.622 596.830, 563.443 590.757 C 568.824 587.051, 577 579.878, 577 578.863 C 577 578.322, 574.671 575.417, 571.824 572.407 C 556.546 556.253, 530.659 555.031, 513.552 569.656 C 510.030 572.667, 509.440 572.868, 508.093 571.522 C 506.746 570.175, 506.992 569.593, 510.361 566.142 L 514.140 562.273 509.820 561.200 C 503.309 559.583, 494.045 559.035, 489 559.968 M 680.614 577.269 C 661.877 605.353, 624.622 629.609, 582.330 641.259 C 573.402 643.719, 571.080 644.716, 571.421 645.942 C 571.660 646.799, 572.152 649.840, 572.515 652.700 C 573.357 659.347, 574.027 659.825, 584.435 661.218 C 592.292 662.269, 593.380 662.207, 596.196 660.543 C 598.914 658.938, 600.744 658.787, 610.900 659.327 C 635.223 660.620, 657.822 666.926, 675.708 677.408 L 681.837 681 717.621 681 L 753.406 681 746.581 676.517 C 717.904 657.682, 700.776 626.942, 698.352 589.960 C 697.803 581.575, 697.420 579.951, 695.877 579.461 C 694.874 579.143, 691.814 577.342, 689.078 575.460 L 684.104 572.038 680.614 577.269 M 458.348 575.420 C 440.090 579.848, 424.412 596.007, 421.021 613.891 C 419.498 621.917, 419.769 627.705, 422.095 636.905 L 424.191 645.191 421.595 647.900 C 416.931 652.769, 418.452 656, 425.411 656 C 428.251 656, 428.898 656.525, 430.579 660.188 C 433.026 665.522, 434.043 665.779, 438.210 662.120 C 445.149 656.028, 451.372 656.685, 459.740 664.393 C 469.608 673.483, 473.099 673.910, 479.739 666.841 C 490.533 655.346, 504 658.774, 504 673.016 C 504 678.089, 505.458 681, 508 681 C 510.881 681, 512 677.931, 512 670.034 C 512 658.456, 516.256 652.001, 523.001 653.350 C 529.661 654.682, 531.623 649.004, 525.909 644.935 C 523.387 643.139, 522.929 642.252, 523.420 640.117 C 526.838 625.254, 526.016 614.897, 520.487 603.180 C 509.888 580.721, 484.061 569.183, 458.348 575.420 M 349.571 582.921 C 348.615 583.978, 345.458 586.086, 342.556 587.605 L 337.279 590.368 336.703 601.434 C 335.316 628.100, 324.731 652.671, 306.281 672.059 L 297.674 681.104 339.087 680.802 L 380.500 680.500 389 676.848 C 393.675 674.840, 399.466 672.615, 401.869 671.904 C 405.625 670.793, 406.503 669.993, 408.132 666.191 C 409.175 663.760, 410.921 660.515, 412.014 658.981 C 413.106 657.447, 414 654.608, 414 652.672 C 414 650.408, 414.863 648.127, 416.422 646.276 C 418.823 643.421, 418.830 643.351, 417.256 637.696 L 415.669 631.994 406.085 626.836 C 384.203 615.060, 367.061 601.266, 355.841 586.405 C 351.105 580.133, 351.764 580.499, 349.571 582.921 M 490.004 588.495 C 488.967 589.745, 489.639 590.814, 494.093 594.995 C 499.516 600.087, 501.481 600.988, 502.279 598.750 C 503.043 596.609, 500.308 592.485, 496.266 589.684 C 491.749 586.554, 491.633 586.532, 490.004 588.495 M 444.967 590.376 C 438.727 594.617, 437.111 601.948, 442.070 603.522 C 445.729 604.683, 455 597.030, 455 592.849 C 455 588.056, 450.143 586.859, 444.967 590.376 M 446.365 595.364 C 444.789 596.720, 443.786 598.116, 444.135 598.466 C 444.484 598.816, 446.059 597.993, 447.635 596.636 C 449.211 595.280, 450.214 593.884, 449.865 593.534 C 449.516 593.184, 447.941 594.007, 446.365 595.364 M 479.374 610.467 C 478.706 612.207, 485.782 621.237, 487.398 620.706 C 489.815 619.911, 489.021 616.164, 485.685 612.627 C 482.011 608.732, 480.269 608.135, 479.374 610.467 M 438.091 615.611 C 435.356 619.088, 434.424 622.824, 435.918 624.318 C 437.452 625.852, 444.075 618.390, 443.735 615.510 C 443.380 612.506, 440.493 612.558, 438.091 615.611 M 562 648.015 C 557.031 650.758, 540.555 656, 536.905 656 C 535.215 656, 534.005 656.337, 534.215 656.750 C 541.490 671.061, 543.059 679.120, 540.804 690.600 C 539.850 695.454, 539.589 699.149, 540.126 700.184 C 542.702 705.148, 540.426 710.872, 535.250 712.449 C 530.730 713.826, 532.609 716.012, 537.750 715.357 C 558.083 712.767, 579.365 697.787, 588.690 679.500 C 595.126 666.878, 595.174 667.396, 587.494 666.610 C 583.890 666.240, 579.697 665.689, 578.175 665.385 C 575.666 664.883, 575.412 665.096, 575.454 667.666 C 575.489 669.832, 575.037 670.500, 573.536 670.500 C 571.122 670.500, 568.517 662.901, 567.451 652.750 C 566.659 645.212, 566.822 645.354, 562 648.015 M 518.972 659.534 C 518.088 660.599, 517.360 664.677, 517.029 670.417 C 516.440 680.635, 514.730 684.528, 510.347 685.628 C 504.127 687.189, 499.005 681.701, 499.002 673.473 C 498.999 666.285, 493.926 662.828, 488.020 665.989 C 486.285 666.918, 486.394 667.410, 489.823 674.093 C 494.304 682.828, 494.821 692.742, 491.265 701.750 C 490.125 704.638, 489.486 707.166, 489.846 707.368 C 490.206 707.570, 495.675 707.131, 502 706.393 C 525.260 703.678, 529.652 703.542, 532.561 705.448 C 536.305 707.901, 537.663 706.199, 535.536 701.716 C 533.991 698.462, 533.993 697.832, 535.561 692.437 C 538.282 683.079, 535.900 667.644, 530.685 660.842 C 528.730 658.292, 520.743 657.400, 518.972 659.534 M 415.033 663.146 C 409.799 671.650, 408.540 684.730, 411.975 694.927 C 413.812 700.379, 413.839 701.015, 412.365 703.970 C 410.883 706.941, 410.915 707.504, 412.861 712.589 C 414.621 717.187, 414.793 718.821, 413.971 723.151 C 412.474 731.045, 412.726 733.783, 415.064 735.034 C 419.156 737.224, 420.267 734.691, 419.495 724.937 C 418.246 709.154, 424.099 703.915, 437.206 709.081 C 442.897 711.324, 447.163 711.297, 455.220 708.967 C 464.065 706.408, 469.157 710.924, 470.479 722.501 C 471.405 730.615, 471.820 731.833, 474.068 733.036 C 478.644 735.485, 481.983 729.701, 481.994 719.307 C 481.998 716.130, 483.224 710.500, 485.151 704.807 C 488.878 693.798, 489.355 685.751, 486.692 678.829 C 484.302 672.617, 482.559 671.184, 480.100 673.410 C 474.342 678.621, 466.405 677.361, 458.532 669.988 C 449.743 661.757, 446.425 661.132, 440 666.500 C 437.696 668.425, 434.919 670, 433.828 670 C 431.467 670, 426 664.817, 426 662.577 C 426 661.612, 425.126 660.995, 423.750 660.986 C 422.512 660.979, 420.509 660.707, 419.299 660.382 C 417.563 659.917, 416.661 660.501, 415.033 663.146 M 597.988 671.037 C 589.520 697.373, 564.539 717.426, 536.295 720.560 L 530.090 721.248 528.976 726.874 C 528.364 729.968, 527.638 733.288, 527.364 734.250 C 526.215 738.282, 547.001 735.731, 561.743 730.031 C 587.183 720.193, 607.934 695.262, 614.413 666.750 L 615.038 664 607.644 664 L 600.251 664 597.988 671.037 M 394.500 679.910 C 366.978 690.329, 352.304 701.944, 329.117 731.663 C 315.733 748.816, 286.725 793.192, 288.111 794.392 C 288.325 794.577, 291.650 795.752, 295.500 797.002 C 311.789 802.292, 332.585 811.511, 349.425 820.905 C 355.434 824.257, 360.781 827, 361.309 827 C 362.343 827, 382.776 814.180, 383.410 813.133 C 383.621 812.785, 385.508 801.088, 387.604 787.139 C 391.361 762.134, 392.561 758.119, 395.086 762.104 C 396.117 763.731, 395.720 767.357, 391.923 790.973 C 390.377 800.583, 389.304 808.637, 389.536 808.870 C 390.323 809.657, 398 803.982, 398 802.613 C 398 799.672, 403.365 784.976, 407.966 775.313 C 413.813 763.035, 417.531 757.443, 425.174 749.434 L 430.964 743.368 427.981 732.934 C 424.158 719.555, 424.041 719.329, 424.697 726.562 C 425.587 736.393, 421.334 741.967, 414.345 740.130 C 409.270 738.796, 407.327 733.552, 408.777 725.097 C 409.883 718.648, 409.809 717.590, 407.923 712.806 C 406.155 708.320, 406.022 706.992, 406.994 703.520 C 407.854 700.450, 407.840 698.746, 406.936 696.484 C 406.280 694.843, 405.463 689.590, 405.121 684.812 L 404.500 676.124 394.500 679.910 M 153.232 685.747 L 140.963 686.062 141.232 709.281 L 141.500 732.500 231.584 732.755 L 321.668 733.011 328.044 724.755 C 337.515 712.493, 353.497 696.481, 361.825 690.911 C 367.248 687.284, 368.740 685.837, 367.534 685.375 C 366.637 685.030, 348.872 684.963, 328.056 685.224 L 290.210 685.700 285.099 688.844 C 260.335 704.081, 227.686 704.544, 199.031 690.064 L 189.009 685 177.255 685.216 C 170.790 685.335, 159.979 685.574, 153.232 685.747 M 690.656 686.235 C 689.790 686.785, 689.797 686.973, 690.684 686.985 C 694.339 687.032, 716.049 710.603, 726.429 725.793 L 731.353 733 814.677 733 L 898 733 898 709.173 L 898 685.347 860.250 685.509 C 828.028 685.647, 821.873 685.910, 818.218 687.303 C 806.398 691.806, 786.566 691.853, 771.375 687.414 L 762.500 684.821 727.156 685.161 C 707.716 685.347, 691.291 685.831, 690.656 686.235 M 188.242 703.043 C 183.279 705.017, 182.840 712.538, 187.509 715.598 C 192.172 718.653, 198 715.312, 198 709.584 C 198 704.533, 192.971 701.163, 188.242 703.043 M 845.321 703.189 C 837.220 707.105, 843.009 719.228, 851.449 716.020 C 856.848 713.967, 856.807 705.600, 851.385 703.130 C 848.474 701.803, 848.181 701.806, 845.321 703.189 M 189.336 708.567 C 188.502 710.739, 190.618 712.782, 192.133 711.267 C 193.413 709.987, 192.620 707, 191 707 C 190.415 707, 189.667 707.705, 189.336 708.567 M 847.152 708.317 C 845.587 710.202, 847.874 712.314, 850.034 710.979 C 851.310 710.190, 851.295 709.867, 849.914 708.486 C 848.553 707.124, 848.162 707.100, 847.152 708.317 M 508.500 710.560 C 503 711.257, 496.186 711.867, 493.358 711.914 C 488.677 711.992, 488.158 712.234, 487.560 714.618 C 487.198 716.058, 487.160 717.493, 487.475 717.808 C 488.401 718.734, 497.533 718.037, 512.399 715.905 C 526.973 713.814, 530 712.879, 530 710.465 C 530 708.663, 523.221 708.692, 508.500 710.560 M 426.446 713.087 C 424.891 715.604, 432.040 716.970, 455.250 718.593 C 465.430 719.304, 466.107 719.025, 463.443 715.223 C 461.635 712.640, 459.001 712.473, 450.843 714.424 C 445.078 715.802, 438.161 715.227, 434.051 713.028 C 431.534 711.680, 427.295 711.713, 426.446 713.087 M 518 720.042 C 516.075 720.503, 509.325 721.389, 503 722.012 C 486.796 723.607, 487.188 723.479, 486.455 727.390 C 484.332 738.704, 473.331 742.511, 468.004 733.775 C 466.906 731.974, 466.006 729.091, 466.004 727.369 L 466 724.238 456.250 723.569 C 450.887 723.201, 442.965 722.445, 438.645 721.888 C 434.325 721.332, 430.588 721.079, 430.340 721.327 C 430.092 721.575, 431.993 728.915, 434.565 737.639 C 437.136 746.362, 439.463 754.288, 439.737 755.250 C 440.356 757.432, 439.168 757.740, 450.116 752.560 C 473.092 741.689, 504.501 735.249, 517.251 738.796 C 521.532 739.987, 520.874 741.137, 523.907 727.160 L 525.678 719 523.589 719.102 C 522.440 719.159, 519.925 719.582, 518 720.042 M 180 744.500 L 180 751 194 751 L 208 751 208 744.500 L 208 738 194 738 L 180 738 180 744.500 M 213 744.500 L 213 751 260.762 751 L 308.523 751 313.237 744.500 L 317.951 738 265.476 738 L 213 738 213 744.500 M 735.167 738.765 C 735.350 739.186, 737.068 742.111, 738.984 745.265 L 742.467 751 784.734 751 L 827 751 827 744.500 L 827 738 780.917 738 C 755.571 738, 734.983 738.344, 735.167 738.765 M 832 744.500 L 832 751 846 751 L 860 751 860 744.500 L 860 738 846 738 L 832 738 832 744.500 M 488.123 744.993 C 473.680 747.962, 463.866 751.490, 447.147 759.723 C 435.482 765.467, 431.600 766.971, 430.989 765.982 C 429.845 764.131, 430.733 762.443, 433.519 761.173 C 435.893 760.092, 435.907 760.008, 434.474 755.288 C 433.675 752.655, 433.017 750.074, 433.011 749.554 C 433.005 749.033, 431.381 750.158, 429.403 752.054 C 420.159 760.909, 410.637 778.265, 404.776 796.938 L 401.500 807.376 382.500 819.804 C 335.929 850.267, 321.089 860.654, 307.639 872.202 C 300.846 878.035, 298.786 878.810, 298.194 875.758 C 297.737 873.401, 312.824 860.421, 328.808 849.421 L 335.842 844.580 330.671 841.609 C 324.712 838.184, 298.015 826.009, 296.453 826.004 C 294.291 825.996, 283.299 855.014, 278.633 873.045 C 265.951 922.058, 280.964 955.599, 316.142 956.840 C 345.645 957.882, 375.236 937.104, 423.438 881.500 C 439.575 862.885, 440.586 862.036, 446.640 862.015 C 461.162 861.963, 497.380 849.715, 511.270 840.158 C 520.400 833.877, 523.919 825.883, 519.638 821.153 C 517.900 819.232, 517.765 819.251, 509.453 822.603 C 500.409 826.250, 498.499 826.616, 497.441 824.904 C 496.375 823.180, 498.851 821.551, 508 817.958 C 518.500 813.835, 523 809.807, 523 804.534 C 523 795.073, 519.843 794.009, 505.454 798.621 C 497.114 801.295, 493.616 802.016, 492.827 801.227 C 490.521 798.921, 493.223 797.241, 505.758 793.192 C 520.458 788.442, 524 785.943, 524 780.318 C 524 778.032, 523.192 776.101, 521.545 774.455 C 518.535 771.444, 506.985 771.051, 495.500 773.570 C 481.825 776.568, 481.781 776.570, 482.161 774.037 C 482.543 771.498, 493.876 766.294, 509.207 761.618 C 520.582 758.148, 524.500 755.446, 524.500 751.068 C 524.500 748.560, 523.794 747.189, 521.695 745.622 C 517.682 742.626, 501.144 742.316, 488.123 744.993 M 141 779.507 L 141 803.014 209.095 802.757 L 277.189 802.500 284.388 790 C 290.862 778.757, 298.450 766.297, 303.419 758.750 L 305.230 756 223.115 756 L 141 756 141 779.507 M 746 756.368 C 746 756.571, 749.585 763.409, 753.967 771.563 C 758.349 779.718, 763.617 790.127, 765.675 794.695 L 769.415 803 833.708 803 L 898 803 898 779.500 L 898 756 822 756 C 780.200 756, 746 756.166, 746 756.368 M 186.073 775.635 C 184.933 777.084, 184 779.048, 184 780 C 184 780.952, 184.933 782.916, 186.073 784.365 C 190.071 789.449, 198 786.547, 198 780 C 198 773.453, 190.071 770.551, 186.073 775.635 M 843.073 775.635 C 839.190 780.571, 842.260 787, 848.500 787 C 852.786 787, 856.418 782.880, 855.514 779.043 C 854.089 772.994, 846.735 770.979, 843.073 775.635 M 189.500 779 C 188.663 780.354, 189.792 782, 191.559 782 C 192.352 782, 193 781.100, 193 780 C 193 777.930, 190.587 777.240, 189.500 779 M 846.480 779.032 C 846.092 779.660, 846.245 780.645, 846.820 781.220 C 848.164 782.564, 851.297 781.392, 850.750 779.749 C 850.194 778.078, 847.364 777.602, 846.480 779.032 M 282.725 803.250 C 281.370 805.587, 279.525 808.945, 278.625 810.710 L 276.990 813.920 281.245 815.056 C 289.459 817.249, 308.657 825.234, 324.711 833.135 L 340.923 841.113 348.627 835.914 C 357.757 829.753, 358.722 831.158, 338.153 820.656 C 320.770 811.780, 289.636 799, 285.399 799 C 285.284 799, 284.081 800.913, 282.725 803.250 M 180.231 830.250 L 180.500 852.500 194 852.500 L 207.500 852.500 207.769 830.250 L 208.038 808 194 808 L 179.962 808 180.231 830.250 M 213 830.513 L 213 853.027 246.112 852.763 L 279.224 852.500 282.136 845.160 L 285.049 837.820 279.628 831.965 C 276.647 828.745, 273.406 824.011, 272.426 821.445 C 270.631 816.744, 270.648 816.548, 273.484 809.750 C 274.170 808.106, 272.368 808, 243.607 808 L 213 808 213 830.513 M 774.595 813.750 C 779.221 824.102, 780.223 826.976, 779.690 828.366 C 779.401 829.120, 774.836 832.990, 769.546 836.966 C 762.666 842.137, 760.066 844.666, 760.416 845.848 C 760.685 846.756, 761.200 848.737, 761.561 850.250 L 762.217 853 794.608 853 L 827 853 827 830.500 L 827 808 799.513 808 L 772.025 808 774.595 813.750 M 832.231 830.250 L 832.500 852.500 845.422 852.781 C 855.088 852.991, 858.548 852.740, 859.156 851.781 C 860.092 850.306, 860.307 811.964, 859.393 809.582 C 858.881 808.248, 856.682 808, 845.374 808 L 831.962 808 832.231 830.250 M 763.500 814.190 C 744.930 828.423, 708.641 847.852, 693.741 851.539 C 689.868 852.497, 689.744 853, 691.129 862.053 C 692.583 871.545, 691.129 871.337, 708.524 864.547 C 728.411 856.784, 750.001 845.057, 765.957 833.352 C 775.067 826.669, 774.872 827.196, 771.331 818.816 C 767.820 810.505, 768.095 810.668, 763.500 814.190 M 277.578 821.863 C 278.609 823.608, 281.113 826.658, 283.144 828.640 L 286.835 832.244 288.957 828.084 L 291.080 823.923 286.630 821.954 C 284.182 820.872, 280.723 819.695, 278.942 819.338 L 275.704 818.691 277.578 821.863 M 490 855.909 C 488.075 856.910, 482.840 859.013, 478.367 860.582 L 470.234 863.436 474.679 876.468 C 482.773 900.199, 485.010 899.074, 492.516 867.500 C 493.954 861.450, 495.312 855.938, 495.534 855.250 C 496.091 853.523, 494.140 853.756, 490 855.909 M 152 866.500 L 142.540 876 207.520 875.994 L 272.500 875.988 275.092 867.002 C 276.517 862.061, 277.455 857.788, 277.175 857.509 C 276.896 857.229, 250.745 857, 219.064 857 L 161.460 857 152 866.500 M 763.344 859.250 C 763.653 860.487, 764.443 864.763, 765.099 868.750 L 766.293 876 831.897 875.950 L 897.500 875.900 887.532 866.450 L 877.564 857 820.174 857 L 762.783 857 763.344 859.250" stroke="none" fill="#1a1a1a" fill-rule="evenodd"/>
</svg>