<svg xmlns="http://www.w3.org/2000/svg" width="1024" height="1024" viewBox="0 0 1024 1024" version="1.1">
	<path d="M 479 191.788 C 479 192.222, 480.916 194.178, 483.258 196.136 C 488.213 200.278, 492.671 207.915, 493.866 214.311 L 494.705 218.802 488.602 214.052 C 450.613 184.480, 379.126 185.722, 330.598 216.797 C 315.061 226.746, 296.333 244.754, 289.760 256.064 C 287.703 259.604, 283.052 265.425, 279.424 269 C 262.740 285.440, 255.584 302.474, 255.686 325.500 C 255.772 344.760, 259.920 358.090, 271.164 375.239 L 276.238 382.979 274.369 386.739 C 272.960 389.573, 272.500 392.717, 272.501 399.500 C 272.501 409.124, 274.260 414.480, 280.344 423.390 C 282.953 427.211, 283 427.567, 283 443.732 C 283 484.742, 270.593 507.652, 249.453 505.678 C 241.652 504.949, 241.508 505.382, 246.822 513.603 C 259.613 533.394, 301.087 552.977, 330.250 552.997 C 332.863 552.999, 335 553.211, 335 553.469 C 335 553.727, 333.032 556.989, 330.627 560.719 C 309.012 594.233, 309.229 620.942, 331.167 627.457 C 334.025 628.306, 337.688 629, 339.307 629 C 342.104 629, 342.215 629.161, 341.550 632.250 C 339.698 640.847, 338.060 651.286, 337.427 658.519 C 336.905 664.497, 334.781 672.398, 328.965 690 C 324.694 702.925, 319.094 721.150, 316.520 730.500 C 313.946 739.850, 311.501 748.625, 311.087 750 C 310.386 752.328, 309.445 752.657, 297.417 754.776 C 263.820 760.694, 232.314 766.338, 220.500 768.555 C 213.350 769.897, 200.075 772.310, 191 773.919 C 159.764 779.456, 69.497 796.068, 67.750 796.601 C 62.999 798.050, 66.879 798.599, 73.250 797.380 C 77.237 796.617, 88.211 794.612, 97.636 792.926 L 114.771 789.860 143.136 798.398 C 306.766 847.651, 333.390 856, 326.827 856 C 325.648 856, 300.241 863.377, 235.500 882.519 C 216.250 888.211, 176.650 899.904, 147.500 908.503 C 71.539 930.913, 67.603 932.109, 66.550 933.103 C 64.675 934.874, 68.731 933.747, 139.188 912.935 C 267.010 875.177, 325.440 858.060, 328.786 857.392 L 332.073 856.735 331.786 867.036 L 331.500 877.338 323 880.103 C 314.283 882.940, 213.063 914.824, 155 933.022 C 77.158 957.421, 66.542 960.874, 66.197 961.908 C 65.997 962.509, 66.433 962.796, 67.166 962.545 C 67.900 962.294, 79.975 958.502, 94 954.118 C 162.903 932.583, 207.637 918.540, 250.500 904.991 C 332.577 879.046, 365.269 868.935, 365.697 869.364 C 365.853 869.519, 366.037 875.230, 366.108 882.054 L 366.236 894.461 362.092 898.030 C 359.813 899.993, 351.773 905.380, 344.224 910.001 C 320.377 924.601, 315.851 928.900, 315.635 937.160 C 315.198 953.827, 343.003 955.721, 372.500 941.033 C 397.527 928.571, 401.387 922.922, 397.370 904.639 C 395.980 898.314, 395.870 894.309, 396.620 877.447 L 397.500 857.672 412.500 852.990 C 420.750 850.415, 427.602 848.378, 427.727 848.464 C 427.851 848.550, 428.451 860.310, 429.059 874.599 C 430.031 897.452, 429.974 901.312, 428.582 906.683 C 426.391 915.138, 426.523 923.705, 428.904 927.609 C 433.796 935.632, 461.898 953.067, 475.460 956.494 C 494.730 961.363, 509.621 953.446, 506.061 940.226 C 504.560 934.653, 497.969 928.254, 479.680 914.615 C 458.164 898.570, 459.692 902.042, 460.493 871 C 460.855 856.975, 461.462 843.700, 461.842 841.501 L 462.534 837.502 502.017 825.240 C 573.091 803.169, 586.731 799, 587.873 799 C 588.650 799, 589 802.985, 589 811.845 C 589 826.663, 589.763 825.306, 577.498 832.315 C 567.325 838.130, 565 840.306, 565 844.016 C 565 852.778, 582.263 852.145, 597.652 842.819 C 603.837 839.070, 605.083 836.418, 603.969 829.370 C 603.534 826.613, 603.475 817.463, 603.838 809.039 L 604.500 793.721 611.264 791.707 C 614.984 790.600, 618.258 789.924, 618.539 790.206 C 619.553 791.220, 621.068 818.780, 620.808 831.500 C 620.566 843.392, 620.743 844.908, 622.879 849.287 C 627.324 858.399, 637.957 862.134, 643.545 856.545 C 647.775 852.316, 646.409 846.598, 638.004 833.345 C 634.688 828.116, 634.383 822.636, 635.882 795.155 L 636.500 783.811 652 778.933 C 660.525 776.251, 667.837 774.043, 668.250 774.028 C 668.663 774.013, 669.007 777.487, 669.015 781.750 C 669.024 786.013, 669.444 790.153, 669.949 790.952 C 670.661 792.078, 669.365 793.291, 664.184 796.347 C 655.337 801.565, 653 803.795, 653 807.019 C 653 814.962, 665.798 815.534, 680.500 808.249 C 688.056 804.506, 689 803.363, 689 797.967 C 689 794.990, 689.554 792.785, 690.500 792 C 691.689 791.013, 692 788.127, 692 778.084 L 692 765.413 695.896 764.373 L 699.792 763.333 700.385 766.917 C 700.711 768.887, 700.983 775.251, 700.989 781.059 C 700.997 788.289, 701.422 792.195, 702.340 793.450 C 703.201 794.628, 703.516 796.983, 703.221 800.049 C 702.773 804.710, 702.860 804.887, 707.132 808.029 C 721.619 818.687, 738 820.233, 738 810.943 C 738 807.481, 736.357 805.675, 728.116 800.079 C 722.023 795.941, 721.065 794.696, 723.039 793.476 C 723.704 793.065, 724.033 786.292, 723.953 774.673 L 723.827 756.513 738.663 751.912 L 753.500 747.311 754 755.405 C 754.275 759.857, 754.853 764.045, 755.285 764.712 C 755.807 765.516, 754.759 766.593, 752.169 767.914 C 746.588 770.761, 742 774.875, 742 777.032 C 742 781.978, 750.310 783.352, 759.478 779.922 C 767.720 776.839, 771.336 773.457, 770.684 769.443 C 770.398 767.679, 770.561 765.839, 771.047 765.353 C 771.533 764.867, 772.058 759.333, 772.215 753.055 L 772.500 741.640 775.450 740.853 C 777.072 740.420, 778.528 740.195, 778.685 740.352 C 778.842 740.509, 779.263 746.006, 779.621 752.569 C 779.980 759.131, 780.719 765.066, 781.266 765.758 C 781.812 766.451, 782.007 768.569, 781.699 770.466 C 781.207 773.498, 781.572 774.295, 784.717 777.056 C 793.808 785.038, 809 786.610, 809 779.568 C 809 777.110, 804.730 772.726, 799.090 769.394 C 795.849 767.479, 795.338 766.527, 797 765.500 C 797.598 765.130, 798 758.560, 798 749.153 L 798 733.424 806.193 730.739 C 810.699 729.261, 814.516 728.182, 814.674 728.341 C 815.870 729.536, 815.277 740.265, 813.975 740.994 C 800.391 748.596, 798.044 755.029, 808.872 754.978 C 818.729 754.931, 825.667 749.572, 824.590 742.837 C 824.219 740.519, 824.218 735.555, 824.588 731.806 C 825.236 725.223, 825.366 724.962, 828.380 724.175 L 831.500 723.361 832.294 729.430 C 832.730 732.769, 832.844 738.492, 832.546 742.149 C 832.011 748.725, 832.042 748.830, 835.397 751.776 C 840.311 756.090, 847.373 758.607, 850.529 757.169 C 854.855 755.198, 853.766 751.804, 846.889 745.822 L 840.777 740.506 841.482 730.503 C 841.869 725.001, 842.266 720.415, 842.364 720.312 C 842.554 720.112, 935.482 691.018, 950.250 686.535 C 955.062 685.074, 959 683.426, 959 682.872 C 959 682.318, 958.212 682.103, 957.250 682.393 C 948.718 684.964, 888.270 703.767, 868.305 710.059 C 854.447 714.427, 842.835 718, 842.500 718 C 842.165 718, 842.028 715.885, 842.195 713.299 L 842.500 708.599 899.451 692.417 C 951.400 677.657, 962.539 674.171, 958 674.091 C 957.175 674.077, 934 680.515, 906.500 688.399 L 856.500 702.732 852.833 688.223 C 849.459 674.876, 849.256 673.283, 850.296 668.323 C 851.155 664.229, 851.918 662.821, 853.464 662.476 C 854.584 662.227, 874.625 658.829, 898 654.926 C 921.375 651.023, 944.663 647.124, 949.750 646.261 C 954.837 645.398, 959 644.311, 959 643.846 C 959 642.631, 959.734 642.534, 927.752 647.996 C 911.663 650.743, 897.938 652.993, 897.250 652.996 C 896.260 652.999, 896 635.420, 896 568.421 L 896 483.841 898.750 484.378 C 900.263 484.674, 904.544 485.213, 908.264 485.576 L 915.028 486.236 914.764 454.397 L 914.500 422.559 880 415.384 C 742.838 386.859, 742.698 386.832, 737.093 387.519 C 734.120 387.884, 731.082 388.415, 730.343 388.699 C 729.238 389.123, 729 400.707, 729 454.073 L 729 518.933 725.544 516.894 C 723.644 515.772, 721.808 513.970, 721.465 512.889 C 719.947 508.108, 706.397 503.061, 694.960 503.017 C 672.920 502.933, 656.939 520.397, 661.529 539.550 C 662.446 543.372, 663.535 551.235, 663.950 557.022 C 665.123 573.378, 670.468 582.516, 681.548 587.108 C 688.951 590.177, 689.222 593.208, 682.250 594.947 C 673.732 597.071, 669.459 600.320, 666.055 607.258 C 662.361 614.788, 657.557 632.957, 658.904 634.304 C 659.447 634.847, 659.632 642.190, 659.347 651.869 C 659.014 663.162, 659.307 671.804, 660.259 678.796 C 661.030 684.458, 661.400 689.245, 661.081 689.432 C 659.778 690.196, 648.954 692.287, 648.524 691.857 C 648.269 691.602, 648.984 686.243, 650.112 679.947 C 651.753 670.793, 652.061 665.921, 651.649 655.628 C 651.317 647.312, 651.515 642.149, 652.208 641.039 C 654.304 637.682, 646.108 614.134, 640.843 608.385 L 638.906 606.271 643.045 605.609 C 656.002 603.537, 658.497 599.343, 657.664 581.030 C 656.284 550.711, 654.160 528.633, 652.032 522.500 C 647.346 508.988, 636.456 499, 626.410 499 C 623.295 499, 622.572 497.449, 624.442 494.779 C 626.872 491.310, 626.448 491.001, 619.250 490.990 C 603.394 490.967, 593.187 480.479, 586.473 457.308 C 580.748 437.553, 580.511 434.256, 580.500 374 C 580.491 325.147, 580.276 317.303, 578.704 308.506 C 571.029 265.558, 555.744 240.095, 529.800 227.040 C 522.680 223.458, 519.159 222.399, 507 220.188 L 502.500 219.369 507.981 216.551 C 511.595 214.692, 515.596 213.561, 519.731 213.229 C 525.889 212.735, 527.547 211.808, 524.418 210.607 C 519.125 208.576, 505.257 211.849, 501.481 216.021 C 498.943 218.825, 498.339 218.522, 497.631 214.093 C 496.491 206.966, 490.967 197.842, 485.616 194.250 C 480.745 190.981, 479 190.331, 479 191.788 M 399 198.036 C 359.722 202.861, 324.271 220.872, 301.484 247.578 C 298.743 250.790, 297.175 253.010, 298 252.511 C 298.825 252.012, 302.425 249.724, 306 247.427 C 334.677 228.996, 374.805 217, 407.779 217 C 433.115 217, 462.750 225.371, 476.500 236.412 C 481.429 240.370, 478.956 240.107, 472.023 235.937 C 441.133 217.359, 394.811 214.689, 351.789 229.007 C 313.161 241.864, 277.201 269.947, 265.507 296.389 C 262.877 302.336, 259.963 315.097, 260.068 320.208 C 260.135 323.458, 260.149 323.468, 261.225 321 C 268.071 305.294, 273.729 296.854, 285.258 285.146 C 309.105 260.931, 343.945 243.529, 382 236.825 C 400.960 233.484, 441.192 235.764, 454.389 240.926 C 459.359 242.870, 456.806 242.917, 448.873 241.027 C 374.877 223.397, 282.770 264.542, 262.484 324.289 L 259.563 332.892 261.777 342.696 C 264.038 352.708, 272.342 371.265, 277.310 377.407 C 279.505 380.120, 279.883 380.236, 282.980 379.157 C 284.805 378.521, 287.309 378, 288.544 378 C 290.627 378, 290.726 377.729, 289.919 374.250 C 289.440 372.188, 289.037 368.561, 289.024 366.191 C 288.992 360.467, 287.243 361.689, 286.403 368.022 C 285.562 374.362, 284 373.462, 284 366.637 C 284 347.795, 303.635 334.437, 354.041 318.990 C 386.129 309.155, 411.312 298.741, 424.087 290.021 C 432.281 284.428, 431.478 286.305, 421.635 295.756 C 408.844 308.035, 396.826 316.590, 379.500 325.747 C 368.346 331.643, 369.689 331.974, 385.903 327.328 C 415.157 318.946, 446.474 298.746, 459.667 279.750 C 461.100 277.688, 462.554 276, 462.899 276 C 463.245 276, 464.484 280.009, 465.655 284.908 C 473.084 316.007, 495.103 343.712, 528.707 364.240 C 539.525 370.848, 537.292 371.883, 525.174 365.878 C 520.403 363.514, 516.125 361.399, 515.667 361.179 C 513.220 360.001, 519 368.230, 523.795 372.750 C 529.100 377.751, 529.438 379.320, 524.684 376.878 C 523.483 376.261, 521.209 374.573, 519.631 373.128 L 516.762 370.500 517.527 373 C 518.472 376.088, 522.507 382.577, 524.091 383.556 C 524.766 383.974, 525.694 383.479, 526.278 382.390 C 526.836 381.351, 529.323 378.579, 531.804 376.232 C 542.470 366.143, 556.778 367.273, 564.076 378.781 C 577.655 400.193, 558.904 436.477, 534.250 436.495 C 526.889 436.501, 527.139 435.707, 529.518 451.500 C 534.116 482.023, 545.474 506.018, 563.717 523.750 C 568.385 528.288, 572.970 532, 573.906 532 C 574.842 532, 580.254 529.252, 585.934 525.894 L 596.261 519.789 589.881 516.651 C 581.619 512.588, 568.766 499.988, 563.205 490.500 C 558.545 482.550, 553.613 468.604, 552.064 459 C 550.712 450.624, 550.669 433, 552 433 C 552.593 433, 553 436.698, 553 442.093 C 553 475.051, 571.805 508.435, 594.890 516.456 C 598.357 517.661, 598.675 517.568, 602.924 514.105 C 607.258 510.573, 618 498.309, 618 496.893 C 618 496.499, 616.087 495.856, 613.750 495.466 C 595.508 492.419, 584.124 475.289, 577.789 441.356 C 575.674 430.027, 575.574 426.990, 575.538 373 C 575.504 322.273, 575.310 315.478, 573.640 306.500 C 568.261 277.575, 559.727 258.778, 545.500 244.519 C 531.970 230.958, 518.531 224.755, 503.400 225.087 L 495.300 225.265 488.080 219.204 C 468.436 202.710, 431.806 194.005, 399 198.036 M 494 233.818 C 494 234.341, 496.363 235.537, 499.250 236.474 C 519.669 243.103, 537.373 261.790, 547.772 287.689 C 555 305.689, 560.931 338.043, 560.983 359.750 C 560.994 364.504, 561.393 367, 562.141 367 C 562.974 367, 563.093 363.418, 562.581 353.750 C 559.924 303.481, 548.210 270.269, 525.830 249.549 C 519.133 243.349, 506.641 235.967, 500.500 234.582 C 498.850 234.210, 496.712 233.671, 495.750 233.385 C 494.788 233.099, 494 233.294, 494 233.818 M 481.225 250.282 C 482.173 250.952, 485.736 253.075, 489.142 255 C 512.363 268.125, 532.292 299.719, 540.865 337 C 542.263 343.080, 542.845 344.504, 542.908 342 C 542.957 340.075, 541.899 333.968, 540.557 328.429 C 532.351 294.558, 513.847 266.926, 489.873 252.743 C 483.906 249.213, 476.881 247.214, 481.225 250.282 M 424 253.590 C 422.075 253.810, 416.225 254.473, 411 255.061 C 370.545 259.621, 322.050 279.555, 294.500 302.950 C 281.658 313.855, 269.674 331.635, 268.434 341.622 C 267.893 345.980, 267.367 346.824, 273.493 333.500 C 289.820 297.992, 348.618 265.952, 413 257.481 C 425.910 255.782, 455.871 255.427, 463.499 256.881 C 470.835 258.281, 471.496 256.669, 464.329 254.857 C 460.328 253.846, 430.066 252.895, 424 253.590 M 429.972 271.630 C 409.057 284.278, 382.477 295.779, 354 304.502 C 310.561 317.809, 300.116 322.039, 288.427 331.057 C 277.328 339.619, 269.084 355.646, 271.884 363.216 C 272.555 365.030, 272.844 364.403, 273.404 359.921 C 276.146 337.980, 293.805 325.242, 341.225 311.001 C 382.783 298.522, 407.404 288.115, 430.500 273.266 C 438.548 268.092, 438.478 268.145, 437.889 267.556 C 437.645 267.311, 434.082 269.145, 429.972 271.630 M 473 268.977 C 473 274.166, 485.500 298.882, 494.505 311.500 C 506.380 328.139, 527.417 348.628, 540.849 356.638 C 546.817 360.197, 545.944 358.172, 539.618 353.781 C 514.226 336.156, 483.157 296.284, 475.874 271.974 C 474.801 268.391, 473 266.514, 473 268.977 M 451.500 294.590 C 433.783 312.467, 410.997 325.213, 383.647 332.546 C 372.309 335.586, 348.564 337.964, 346.833 336.233 C 345.943 335.343, 346.002 334.965, 347.083 334.641 C 363.728 329.655, 385 319.150, 399.400 308.802 C 404.310 305.274, 403.834 305.294, 395.764 308.953 C 387.707 312.606, 370.311 318.635, 350.533 324.629 C 323.161 332.923, 304.330 341.846, 296.024 350.457 C 291.582 355.063, 291.657 360.007, 296.534 384.170 C 298.397 393.398, 300.606 407.464, 301.442 415.426 C 304.192 441.606, 307.623 453.126, 316.272 465.218 C 352.211 515.464, 444.183 520.320, 492.863 474.543 C 503.180 464.841, 516.044 444.888, 520.762 431.272 L 521.881 428.044 526.190 430 C 538.655 435.657, 552.359 428.142, 560.224 411.335 C 573.967 381.967, 547.647 359.607, 529.337 385.095 L 525.718 390.131 521.803 386.315 C 516.763 381.403, 512.367 372.287, 510.935 363.775 L 509.803 357.049 501.615 350.098 C 482.831 334.150, 469.419 313.875, 463.754 292.861 L 461.500 284.500 451.500 294.590 M 469.500 355.402 C 463.425 357.329, 458.124 360.255, 438.500 372.515 C 416.519 386.249, 414.925 387.069, 409.828 387.272 C 406.653 387.399, 405.354 386.921, 403.860 385.075 C 401.448 382.096, 400.575 382.923, 401.414 387.393 C 402.628 393.863, 409.149 397.415, 415.431 395.026 C 417.819 394.118, 418.157 394.377, 420.419 398.840 C 431.877 421.452, 466.074 421.070, 477.143 398.205 C 478.523 395.354, 479.490 391.044, 479.787 386.424 L 480.254 379.139 485.127 377.970 C 487.807 377.327, 490 376.395, 490 375.900 C 490 373.709, 473.747 376.165, 447.292 382.352 C 439.477 384.179, 433.289 385.341, 433.541 384.934 C 434.693 383.069, 462.298 365.295, 469 362.103 C 475.714 358.905, 477.310 358.542, 484.232 358.641 C 492.904 358.764, 493.388 357.787, 485.776 355.526 C 479.669 353.713, 474.942 353.677, 469.500 355.402 M 305.072 360.041 C 301.480 360.784, 297.244 362.891, 299.050 363.036 C 299.298 363.056, 302.650 363.170, 306.500 363.289 C 311.668 363.450, 314.939 364.194, 319 366.133 C 324.404 368.713, 345.475 382.872, 344.829 383.490 C 344.648 383.663, 338.553 382.744, 331.284 381.447 C 314.054 378.374, 303 377.356, 303 378.843 C 303 379.458, 304.238 380.237, 305.750 380.574 C 311.889 381.940, 311.711 381.714, 312.220 388.775 C 313.412 405.324, 325.390 416.459, 342 416.459 C 353.884 416.459, 364.241 410.445, 368.456 401.097 C 369.526 398.724, 371.191 396.989, 373.081 396.275 C 376.097 395.137, 379 390.114, 379 386.032 C 379 383.382, 378.222 383.469, 375.485 386.422 C 371.663 390.545, 369.986 389.891, 345.813 374.840 C 321.887 359.943, 315.958 357.789, 305.072 360.041 M 392.639 379.694 C 390.544 381.789, 393.138 393.468, 396.044 395.023 C 398.390 396.279, 398.383 396.338, 396.500 391 C 395.675 388.662, 395 385.257, 395 383.433 C 395 380.176, 393.900 378.434, 392.639 379.694 M 382 385.953 C 382 391.951, 383.502 397, 385.286 397 C 385.837 397, 385.976 395.631, 385.611 393.803 C 385.259 392.044, 384.691 388.219, 384.348 385.303 C 383.507 378.152, 382 378.569, 382 385.953 M 471.250 381.382 C 467.261 382.229, 467 382.493, 467 385.682 C 467 390.225, 463.848 396.122, 460.345 398.135 C 451.489 403.222, 442.533 400.428, 436.500 390.695 C 435.233 388.652, 422 391.419, 422 393.727 C 422 397.587, 428.975 405.384, 435.500 408.818 C 453.394 418.236, 477.176 404.070, 475.808 384.809 L 475.500 380.480 471.250 381.382 M 285 382.704 C 272.727 387.169, 273.928 410.203, 287.184 424.584 C 290.964 428.685, 297.741 433.691, 298.392 432.864 C 298.900 432.219, 296.917 414.623, 295.897 410.733 C 294.789 406.508, 290.023 400.595, 285.500 397.837 L 282.500 396.007 285.215 396.004 C 286.830 396.002, 289.363 397.258, 291.465 399.104 C 295.542 402.683, 295.498 402.847, 293.415 391.867 C 291.587 382.229, 290.264 380.788, 285 382.704 M 315.482 387.750 C 317.019 398.057, 320.268 403.648, 327.491 408.417 C 335.398 413.639, 346.487 414.343, 354.715 410.145 C 359.275 407.819, 366 400.544, 366 397.937 C 366 395.091, 362.388 394.957, 359.819 397.707 C 350.346 407.850, 333.017 402.708, 333.004 389.750 C 333.002 387.688, 332.815 386, 332.588 386 C 332.361 386, 328.649 385.325, 324.338 384.500 C 320.027 383.675, 316.111 383, 315.636 383 C 315.162 383, 315.092 385.137, 315.482 387.750 M 545.391 388.432 C 538.347 391.498, 528.312 406.221, 529.184 412.209 C 529.465 414.137, 529.977 413.669, 532.418 409.250 C 537.737 399.621, 543.964 403.512, 541.619 415 L 540.904 418.500 542.952 416.139 C 547.066 411.397, 544.371 401.619, 538.730 400.817 C 535.387 400.342, 543.802 391.439, 549.092 389.854 C 551.205 389.221, 552.698 388.320, 552.408 387.852 C 551.660 386.641, 548.999 386.861, 545.391 388.432 M 734.250 389.723 L 731 390.127 731 428.616 L 731 467.105 736.250 466.802 L 741.500 466.500 741.788 427.750 L 742.077 389 739.788 389.160 C 738.530 389.248, 736.038 389.502, 734.250 389.723 M 743 427.754 L 743 466.725 748.727 467.398 C 751.876 467.768, 787.764 471.412, 828.477 475.496 C 869.189 479.581, 904.862 483.197, 907.750 483.533 L 913 484.144 913 454.072 C 913 437.532, 912.800 424, 912.556 424 C 912.312 424, 901.399 421.767, 888.306 419.038 C 875.213 416.309, 838.175 408.639, 806 401.994 C 773.825 395.349, 746.487 389.658, 745.250 389.347 L 743 388.783 743 427.754 M 754 429.309 C 754 445.024, 754.397 458.127, 754.882 458.427 C 755.367 458.727, 782.929 462.137, 816.132 466.006 C 849.334 469.874, 881.887 473.705, 888.470 474.520 C 895.054 475.334, 901.916 476, 903.720 476 L 907 476 907 453.059 C 907 440.441, 906.646 429.899, 906.213 429.632 C 905.433 429.150, 764.955 402.322, 757.750 401.279 L 754 400.737 754 429.309 M 385.985 406.750 C 385.965 411.937, 384.190 414.960, 379.198 418.313 C 370.877 423.901, 370.245 430.034, 377.426 435.511 C 382.538 439.410, 385.205 438.838, 381.196 434.702 C 377.702 431.097, 377.123 428.551, 379.582 427.607 C 382.609 426.445, 391.119 427.010, 394.143 428.574 C 397.523 430.322, 398.940 429.837, 397.063 427.575 C 395.083 425.190, 389.170 423.738, 383.388 424.218 C 376.859 424.759, 376.737 424.276, 382.390 420.291 C 387.390 416.766, 389.572 411.862, 388.554 406.435 C 387.693 401.846, 386.004 402.053, 385.985 406.750 M 756 429.955 L 756 456.909 759.250 457.466 C 764.176 458.310, 900.497 474, 902.903 474 C 904.967 474, 905 473.665, 905 452.519 C 905 431.058, 904.998 431.038, 902.750 430.535 C 901.513 430.258, 880.025 426.182, 855 421.476 C 829.975 416.771, 797.886 410.689, 783.691 407.961 C 769.497 405.232, 757.459 403, 756.941 403 C 756.376 403, 756 413.771, 756 429.955 M 428 411.881 C 428 413.543, 434.510 418.006, 439.952 420.074 C 445.419 422.151, 458.408 422.767, 459.500 421 C 459.890 420.369, 457.422 419.991, 452.809 419.976 C 445.037 419.951, 437.326 417.504, 431.142 413.101 C 429.414 411.871, 428 411.322, 428 411.881 M 357.039 415.471 C 352.434 418.868, 345.051 421.155, 338.495 421.214 C 335.473 421.241, 333 421.654, 333 422.132 C 333 423.593, 345.362 423.096, 350.226 421.439 C 352.747 420.580, 356.539 418.348, 358.654 416.480 C 363.111 412.544, 361.972 411.832, 357.039 415.471 M 287.369 448.392 C 287.168 474.822, 282.294 490.818, 270.989 502.155 C 265.101 508.059, 260.869 509.984, 253.750 509.994 C 248.527 510.002, 248.874 510.717, 258.563 519.888 C 269.044 529.809, 270.026 530.112, 278.622 526.090 C 292.737 519.485, 304.045 503.231, 308.059 483.777 C 310.845 470.277, 310.624 466.626, 306.528 458.485 C 304.619 454.690, 302.272 448.538, 301.313 444.815 C 299.787 438.894, 299.200 437.917, 296.623 437.019 C 295.003 436.454, 292.288 434.932, 290.589 433.638 L 287.500 431.284 287.369 448.392 M 522.017 439.956 C 518.854 448.413, 512.285 459.146, 504.150 469.151 L 497.115 477.801 498.938 486.651 C 503.413 508.370, 515.189 533.218, 525.797 543.322 L 528.759 546.144 540.130 543.452 C 551.216 540.827, 571.007 534.159, 570.993 533.053 C 570.989 532.749, 569.407 531.424, 567.477 530.110 C 561.999 526.379, 552.218 515.404, 546.352 506.405 C 534.720 488.559, 528.549 468.998, 526.421 443.228 C 525.575 432.982, 524.831 432.429, 522.017 439.956 M 380.929 451.300 C 371.845 453.884, 364 460.015, 364 464.532 C 364 465.713, 365.118 465.229, 368.250 462.691 C 374.287 457.802, 377.904 456.182, 385.811 454.826 C 398.240 452.694, 416.362 457.863, 423.687 465.629 C 427.793 469.984, 429.271 469.231, 426.385 464.255 C 420.261 453.696, 396.407 446.897, 380.929 451.300 M 385.250 465.031 C 381.227 466.648, 382.875 467.679, 387.852 466.660 C 391.626 465.886, 393.737 466.006, 397.352 467.196 C 402.739 468.969, 403.668 467.595, 398.532 465.449 C 394.676 463.838, 388.687 463.650, 385.250 465.031 M 311.665 476.301 C 309.580 500.509, 296.369 521.196, 278.306 528.537 L 272.755 530.793 275.368 532.506 C 279.209 535.022, 295.207 541.772, 300.477 543.098 C 304.776 544.181, 305.271 544.084, 309.147 541.398 C 320.916 533.242, 331.281 513.190, 333.390 494.500 C 333.946 489.569, 333.898 489.459, 329.865 486.500 C 327.617 484.850, 322.741 480.261, 319.031 476.301 L 312.285 469.102 311.665 476.301 M 731 494.389 C 731 515.293, 731.309 521.142, 732.673 526.047 C 734.074 531.087, 734.168 533.207, 733.254 539.113 C 732.256 545.565, 732.326 546.326, 734.081 548.081 C 737.006 551.006, 736.685 558.032, 733.452 561.874 L 730.905 564.902 731.311 590.701 C 731.687 614.621, 731.902 617.156, 734.260 625.500 C 735.936 631.432, 736.476 634.900, 735.843 635.673 C 735.269 636.375, 735.145 641.198, 735.534 647.673 C 736.002 655.446, 735.737 661.441, 734.593 668.926 C 733.717 674.661, 733 679.668, 733 680.054 C 733 680.802, 745.658 678.676, 746.557 677.777 C 746.849 677.484, 746.588 672.352, 745.977 666.372 C 745.260 659.366, 745.175 652.367, 745.737 646.688 C 746.263 641.365, 746.244 637.651, 745.686 637.306 C 743.227 635.786, 748.731 616.515, 753.018 611.632 C 754.629 609.798, 758.658 607.080, 761.973 605.593 C 768.900 602.484, 769.478 600.936, 764.399 599.099 C 759.091 597.180, 753.594 591.193, 752.039 585.638 C 751.311 583.040, 749.951 580.371, 749.017 579.707 C 745.270 577.046, 743.645 569.755, 746.223 567.177 C 746.984 566.416, 747.456 562.844, 747.473 557.727 C 747.495 550.993, 747.904 548.851, 749.724 545.924 C 751.426 543.187, 751.673 542.073, 750.774 541.174 C 749.242 539.642, 750.460 538.566, 755.500 536.995 C 757.700 536.309, 761.525 534.832, 764 533.713 C 771.651 530.252, 781.663 530.980, 791.217 535.693 C 795.462 537.787, 798.950 540.043, 798.967 540.706 C 798.985 541.369, 800.102 543.535, 801.448 545.519 C 804.234 549.624, 805.527 556.300, 804.627 561.929 C 803.856 566.753, 806.140 569.476, 808.016 565.971 C 808.651 564.783, 811.158 562.933, 813.586 561.859 L 818 559.906 818 535.012 C 818 521.320, 818.357 509.897, 818.794 509.627 C 819.679 509.080, 864.951 510.655, 874.750 511.573 L 881 512.159 881 584.147 C 881 652.235, 881.095 656.107, 882.750 655.624 C 883.712 655.344, 886.638 654.812, 889.250 654.443 L 894 653.773 894 568.886 C 894 522.199, 893.801 484, 893.559 484 C 893.316 484, 861.704 480.803, 823.309 476.896 C 784.914 472.989, 748.438 469.557, 742.250 469.270 L 731 468.748 731 494.389 M 490 483.140 C 479.337 492.543, 462.640 501.028, 446.273 505.362 L 437.500 507.685 437.194 511.264 L 436.889 514.842 442.694 515.435 C 470.958 518.324, 488.304 527.535, 495.040 543.233 L 497.500 548.966 502 548.980 C 506.783 548.995, 524.238 547.054, 524.883 546.435 C 525.094 546.233, 523.883 544.492, 522.193 542.567 C 510.387 529.121, 500.070 506.826, 496.942 488 C 495.352 478.431, 495.345 478.426, 490 483.140 M 335.501 495.829 C 333.127 514.390, 324.906 531.128, 313.469 540.688 C 311.018 542.737, 309.347 544.722, 309.756 545.100 C 310.995 546.244, 320.562 547.955, 329.609 548.650 L 338.150 549.307 346.325 541.275 C 359.559 528.273, 371.659 521.705, 387.565 518.891 C 395.554 517.477, 397 516.642, 397 513.439 C 397 511.428, 396.373 511.042, 392.250 510.510 C 386.085 509.716, 368.980 506.348, 366.840 505.507 C 364.966 504.771, 364.531 505.810, 363.494 513.500 C 362.844 518.325, 359.143 528.476, 358.330 527.664 C 358.112 527.445, 358.808 523.944, 359.877 519.883 C 360.946 515.822, 362.079 510.664, 362.395 508.421 L 362.969 504.342 356.234 501.594 C 352.531 500.082, 346.485 497.116, 342.799 495.002 L 336.099 491.158 335.501 495.829 M 619.300 502.840 C 616.393 507.591, 603.644 519.360, 595.024 525.250 C 590.396 528.413, 586.972 531, 587.415 531 C 589.851 531, 601.151 523.786, 605.757 519.291 C 610.040 515.110, 611.193 514.419, 611.594 515.791 C 615.683 529.770, 634.675 546.995, 644.377 545.524 C 647.033 545.121, 649 545.425, 650.627 546.491 L 653 548.046 652.992 543.273 C 652.956 519.998, 641.762 502.855, 625.214 500.731 C 621.364 500.237, 620.762 500.451, 619.300 502.840 M 688 505.999 C 679.467 507.448, 669.608 512.815, 670.623 515.459 C 670.919 516.232, 670.236 517.338, 669.081 517.957 C 665.278 519.992, 662.992 526.187, 663.083 534.210 L 663.167 541.500 664.612 535.521 C 665.407 532.233, 666.477 529.123, 666.990 528.610 C 667.503 528.097, 673.227 527.638, 679.711 527.589 C 688.845 527.520, 692.267 527.106, 694.904 525.750 C 700.063 523.097, 700.746 523.635, 697.056 527.442 L 693.719 530.885 699.110 529.613 C 705.147 528.188, 711.966 524.951, 713.939 522.573 C 717.210 518.633, 719.397 521.429, 721.004 531.605 C 723.890 549.874, 731.303 552.285, 731.441 535 C 731.512 526.024, 729.384 520.816, 724.883 518.951 C 723.245 518.273, 721.263 516.475, 720.477 514.956 C 716.947 508.130, 701.134 503.769, 688 505.999 M 424 510.051 C 421.525 510.491, 415.395 510.885, 410.379 510.926 L 401.258 511 400.608 515.895 C 399.935 520.967, 397.960 523.711, 395.898 522.437 C 394.650 521.666, 395.061 524.400, 396.933 529.325 C 401.362 540.973, 421.948 539.818, 432.964 527.303 C 437.609 522.027, 437.691 521.691, 435 519 C 433.667 517.667, 433 515.667, 433 513 C 433 508.542, 432.817 508.482, 424 510.051 M 820 534.358 C 820 560.091, 819.626 558.625, 825.875 557.375 L 829 556.750 829 538.732 L 829 520.714 849.571 521.228 C 860.885 521.510, 870.567 522.167, 871.087 522.687 C 871.649 523.249, 871.925 534.779, 871.766 551.066 L 871.500 578.500 861.750 578.786 C 852.094 579.070, 852 579.097, 852 581.571 C 852 582.946, 852.696 585.132, 853.546 586.429 C 855.524 589.449, 854.553 593.592, 851.377 595.672 C 850.070 596.529, 849 597.992, 849 598.924 C 849 599.856, 848.368 601.482, 847.596 602.537 C 846.372 604.212, 846.436 604.934, 848.096 608.189 C 850.254 612.418, 850.500 615.809, 848.903 619.314 C 848.053 621.179, 848.147 622.384, 849.322 624.656 C 851.496 628.859, 854.282 640.190, 853.316 640.900 C 852.867 641.230, 852.478 645.858, 852.451 651.185 L 852.403 660.869 854.951 660.382 C 856.353 660.114, 862.225 659.116, 868 658.165 L 878.500 656.434 878.757 584.867 L 879.013 513.299 860.257 512.636 C 849.940 512.271, 836.663 511.689, 830.750 511.344 L 820 510.715 820 534.358 M 605.642 522.291 C 600.150 527.689, 593.101 531.446, 580.671 535.599 L 569.842 539.218 570.387 543.859 C 570.687 546.412, 571.203 552.325, 571.534 557 C 572.327 568.210, 574.246 573.862, 579.153 579.436 C 595.325 597.809, 625.715 592.883, 636.517 570.138 C 639.137 564.620, 639.562 564.214, 642.620 564.301 C 646.593 564.413, 649.516 561.997, 651.057 557.326 C 653.376 550.300, 649.620 545.594, 644.009 548.495 C 642.354 549.351, 641 549.613, 641 549.077 C 641 548.541, 638.015 546.678, 634.367 544.936 C 626.425 541.146, 616.865 531.991, 612.500 523.995 L 609.500 518.500 605.642 522.291 M 439.722 523.456 C 428.918 546.114, 395.859 547.732, 392.348 525.775 C 391.895 522.941, 391.336 522.041, 390.282 522.445 C 389.487 522.750, 388.198 523, 387.418 523 C 383.962 523, 387.568 534.077, 392.779 539.466 C 407.546 554.736, 434.460 547.786, 445.587 525.828 C 448.619 519.844, 448.643 520, 444.685 520 C 441.890 520, 441.112 520.541, 439.722 523.456 M 447.133 527.381 C 434.753 552.529, 401.179 558.120, 387.937 537.239 C 386.367 534.765, 384.789 530.774, 384.428 528.370 C 384.068 525.967, 383.669 524, 383.543 524 C 383.417 524, 380.756 524.880, 377.631 525.955 C 357.661 532.826, 340.578 549.520, 327.646 574.801 C 305.558 617.983, 327.054 636.391, 377.500 617.494 C 388.815 613.256, 426.039 597.177, 427.377 595.950 C 429.097 594.373, 426.778 589.492, 422.070 584.784 C 417.651 580.365, 416.912 580.001, 412.393 580.020 C 395.562 580.087, 355.231 588.583, 337.250 595.849 C 331.437 598.198, 330.193 597.070, 335.223 594.011 L 338.445 592.051 335.263 590.942 C 332.144 589.855, 330.284 586.967, 331.469 585.050 C 331.798 584.517, 331.494 583.163, 330.793 582.041 C 329.776 580.411, 329.769 579.600, 330.759 578.014 C 331.442 576.921, 332 575.154, 332 574.086 C 332 572.011, 336.372 568, 338.635 568 C 339.386 568, 340 567.358, 340 566.573 C 340 562.328, 349.188 559.600, 355.455 561.983 C 357.914 562.918, 358.170 562.686, 360.694 557.233 C 363.765 550.599, 365.159 552.609, 362.612 559.999 C 361.143 564.265, 361.156 564.333, 363.813 566.320 C 365.291 567.425, 369.090 570.989, 372.255 574.240 L 378.009 580.151 387.255 578.469 C 410.841 574.179, 432.793 575.653, 446.117 582.422 C 449.874 584.331, 453.121 585.579, 453.333 585.196 C 453.544 584.813, 454.968 579.325, 456.497 573 C 458.025 566.675, 459.693 560.825, 460.202 560 C 462.122 556.893, 459.986 573.921, 457.007 585.472 C 455.331 591.973, 454.081 597.391, 454.230 597.512 C 454.378 597.632, 456.863 598.502, 459.750 599.446 C 462.961 600.494, 465 601.738, 465 602.648 C 465 603.736, 464.397 603.942, 462.750 603.416 C 455.201 601.003, 449.454 599.907, 441.454 599.352 L 432.407 598.725 413.167 607.113 L 393.927 615.500 399.214 617.861 C 402.121 619.160, 411.700 622.614, 420.500 625.536 C 451.881 635.959, 469.006 636.523, 478.356 627.443 C 494.815 611.458, 500.584 559.498, 488.087 539.798 C 482.827 531.504, 468.338 523.523, 454.880 521.505 L 450.360 520.827 447.133 527.381 M 830.793 540.303 L 831.086 557.608 835.569 558.807 C 841.646 560.432, 848.637 566.961, 850.259 572.527 C 850.942 574.867, 851.837 576.831, 852.250 576.891 C 852.663 576.951, 856.825 577, 861.500 577 L 870 577 870 550.625 L 870 524.250 866.875 523.625 C 865.156 523.281, 856.269 522.999, 847.125 522.999 L 830.500 522.998 830.793 540.303 M 713 526.011 C 707.577 530.276, 689 535.057, 689 532.187 C 689 531.589, 689.644 530.740, 690.432 530.300 C 691.220 529.860, 686.832 529.606, 680.682 529.735 C 674.532 529.864, 669.180 529.977, 668.789 529.985 C 665.023 530.064, 665.151 563.038, 668.951 571.742 C 673.614 582.423, 682.773 587.570, 695.733 586.793 C 708.922 586.002, 717.204 580.286, 722.030 568.640 C 724.036 563.800, 724.743 563, 727.010 563 C 730.940 563, 734 559.195, 734 554.308 C 734 549.346, 731.835 546.997, 728.932 548.810 C 727.884 549.465, 726.632 550, 726.150 550 C 724.937 550, 720.267 539.269, 719.622 535 C 719.332 533.075, 718.827 529.813, 718.502 527.750 C 717.836 523.534, 716.633 523.154, 713 526.011 M 768.500 534.184 C 766.850 534.798, 765.275 535.612, 765 535.993 C 764.725 536.374, 763.150 536.949, 761.500 537.270 C 755.750 538.390, 752.590 539.990, 753.779 541.179 C 754.586 541.986, 754.165 543.229, 752.217 545.782 C 749.980 548.716, 749.514 550.425, 749.329 556.390 C 749.127 562.879, 749.181 563.099, 749.949 558.903 C 751.842 548.558, 756.327 544.838, 764.439 546.880 C 770.875 548.501, 780.981 548.255, 786.932 546.333 C 793.301 544.276, 794.428 545.083, 796.551 553.212 C 797.346 556.256, 798.741 560.491, 799.652 562.623 L 801.308 566.500 802.252 563 C 804.294 555.435, 800.073 542.455, 794.721 539.841 C 793.775 539.378, 792.212 538.549, 791.250 537.998 C 787.927 536.094, 784.492 534.809, 782 534.537 C 780.625 534.386, 777.700 533.995, 775.500 533.666 C 773.300 533.337, 770.150 533.571, 768.500 534.184 M 565.491 541.015 C 565.145 541.574, 565.407 547.986, 566.072 555.265 C 567.124 566.786, 567.063 569.872, 565.604 579.089 C 564.474 586.223, 564.231 590.465, 564.857 592.089 C 567.623 599.255, 581.791 605.332, 587.307 601.719 C 588.592 600.876, 591.547 599.617, 593.872 598.920 C 600.131 597.045, 599.471 593.512, 592.419 591.135 C 586.640 589.186, 580.563 585.014, 576.543 580.234 C 571.064 573.721, 569.254 565.320, 568.037 540.750 C 567.983 539.651, 566.220 539.835, 565.491 541.015 M 557.737 543.523 C 545.699 547.943, 517.613 553, 505.103 553 L 497.962 553 498.702 555.750 C 500.022 560.655, 499.351 583.163, 497.606 592.500 C 494.825 607.381, 490.287 619.635, 484.819 627.031 C 482.932 629.583, 482.921 630.056, 484.436 643.080 C 485.295 650.461, 486.014 658.525, 486.034 661 C 486.074 665.917, 502.100 715.200, 503.849 715.783 C 505.188 716.229, 567.336 704.983, 568.112 704.154 C 568.449 703.794, 569.496 700.350, 570.440 696.500 C 572.495 688.114, 573.045 639.963, 571.112 637.635 C 569.797 636.051, 574.775 619.251, 578.856 611.500 C 580.304 608.750, 581.641 606.163, 581.828 605.750 C 582.014 605.337, 581.342 605, 580.333 604.999 C 579.325 604.999, 575.695 603.671, 572.266 602.049 C 564.046 598.161, 561.722 594.606, 562.427 587 C 564.302 566.759, 564.154 541.858, 562.160 542.070 C 561.797 542.109, 559.807 542.763, 557.737 543.523 M 575 543 C 575 543.550, 575.654 544, 576.453 544 C 577.252 544, 579.027 544.511, 580.397 545.135 L 582.888 546.270 580.793 547.966 C 578.436 549.875, 578.841 554.341, 581.462 555.347 C 583.665 556.192, 586.247 553.120, 585.577 550.451 C 585.105 548.569, 585.344 548.277, 587.005 548.711 C 590.894 549.728, 589.035 546.416, 584.473 544.199 C 579.731 541.895, 575 541.296, 575 543 M 611.750 544.285 C 609.138 545.432, 607 546.962, 607 547.685 C 607 549.570, 608.415 549.330, 614 546.500 C 616.713 545.125, 619.848 544, 620.967 544 C 622.085 544, 623 543.550, 623 543 C 623 541.352, 616.824 542.057, 611.750 544.285 M 670.500 543 C 670.137 543.588, 671.247 544.015, 673.191 544.035 C 675.011 544.055, 677.625 544.714, 679 545.500 C 681.869 547.140, 684 547.402, 684 546.114 C 684 543.467, 671.932 540.683, 670.500 543 M 703.250 543.466 C 701.462 544.257, 700 545.575, 700 546.395 C 700 547.639, 700.771 547.546, 704.622 545.843 C 707.615 544.519, 710.286 544.007, 712.202 544.390 C 714.307 544.811, 715.043 544.624, 714.753 543.741 C 714.165 541.953, 707.058 541.783, 703.250 543.466 M 612.467 549.036 C 610.997 550.661, 610.883 551.447, 611.820 553.504 C 613.674 557.574, 618 556.056, 618 551.335 C 618 547.937, 614.702 546.567, 612.467 549.036 M 674.631 548.520 C 673.756 550.800, 675.800 554.185, 677.817 553.797 C 680.480 553.284, 680.100 547.586, 677.377 547.197 C 676.129 547.019, 674.998 547.564, 674.631 548.520 M 705.163 547.878 C 703.068 549.206, 704.142 553.449, 706.664 553.808 C 709.278 554.181, 710.789 550.656, 708.960 548.452 C 707.577 546.786, 707.019 546.701, 705.163 547.878 M 786 548.563 C 781.785 550.158, 771.183 550.339, 765.033 548.922 C 754.763 546.555, 752.009 550.390, 752.004 567.068 C 751.998 584.513, 754.791 591.812, 763.091 596.047 C 775.571 602.413, 790.558 597.240, 796.115 584.647 C 797.944 580.503, 799.159 579.074, 801.437 578.389 C 806.935 576.733, 806.917 567.051, 801.418 568.431 C 799.469 568.920, 799 568.653, 799 567.053 C 799 565.961, 798.345 563.590, 797.545 561.784 C 796.745 559.978, 795.383 555.913, 794.517 552.750 C 792.800 546.473, 792.245 546.200, 786 548.563 M 689 552.550 C 689 554.502, 688.297 557.459, 687.437 559.121 C 686.219 561.478, 686.135 562.458, 687.060 563.572 C 688.410 565.199, 692 565.510, 692 564 C 692 563.450, 691.273 563, 690.383 563 C 689.116 563, 688.919 562.407, 689.472 560.250 C 690.902 554.671, 691.219 549, 690.101 549 C 689.495 549, 689 550.597, 689 552.550 M 596.086 550 C 595.948 550.275, 595.621 551.850, 595.358 553.500 C 595.096 555.150, 594.044 557.926, 593.022 559.670 C 591.572 562.141, 591.420 563.157, 592.331 564.280 C 593.855 566.158, 596.787 567.153, 597.482 566.028 C 597.783 565.542, 597.123 564.856, 596.015 564.505 C 593.591 563.735, 593.497 562.698, 595.565 559.541 C 596.541 558.052, 596.981 555.713, 596.733 553.326 C 596.515 551.222, 596.224 549.725, 596.086 550 M 652.657 559.706 C 651.539 562.935, 646.256 567, 643.173 567.002 C 640.948 567.004, 640.017 567.929, 637.622 572.513 C 633.857 579.718, 627.784 585.720, 621.183 588.760 C 617.420 590.492, 616.032 591.640, 616.433 592.686 C 616.745 593.499, 617 594.764, 617 595.499 C 617 596.302, 619.092 597.276, 622.250 597.944 C 625.138 598.554, 629.860 600.239, 632.744 601.687 C 639.616 605.139, 647.351 603.849, 652.868 598.332 L 656.293 594.907 655.543 581.203 C 654.559 563.235, 653.686 556.733, 652.657 559.706 M 820.250 560.428 C 818.462 561.240, 817 562.423, 817 563.059 C 817 563.694, 816.319 563.953, 815.486 563.633 C 812.828 562.613, 807.903 568.061, 806.993 573.028 C 806.542 575.488, 806.301 577.629, 806.457 577.787 C 806.613 577.945, 809.321 575.633, 812.475 572.650 L 818.210 567.227 821.669 571.055 C 825.436 575.225, 832.247 579, 836.003 579 L 838.374 579 835.687 576.195 C 832.437 572.802, 832.090 570.822, 835.250 573.701 C 837.904 576.118, 841.391 578.010, 844.942 578.960 C 846.349 579.336, 847.556 580.174, 847.625 580.822 C 847.694 581.470, 847.806 582.702, 847.875 583.559 C 848.108 586.464, 850 583.904, 849.994 580.691 C 849.980 572.375, 845.858 565.499, 838.697 561.845 C 833.439 559.163, 824.544 558.480, 820.250 560.428 M 756.667 562.667 C 755.328 564.005, 756.062 564.712, 758.750 564.671 C 760.263 564.648, 762.737 564.987, 764.250 565.423 C 767.748 566.433, 767.901 564.731, 764.453 563.161 C 761.642 561.880, 757.703 561.630, 756.667 562.667 M 784.323 562.678 C 783.125 562.921, 781.598 563.780, 780.929 564.586 C 779.875 565.856, 780.497 565.963, 785.606 565.387 C 791.484 564.724, 792.707 564.374, 791.915 563.581 C 791.121 562.788, 786.495 562.237, 784.323 562.678 M 344.441 565.468 C 342.623 566.843, 342.740 566.938, 346.282 566.968 C 350.445 567.003, 356.448 569.191, 359.190 571.672 C 362.088 574.295, 360.102 575.226, 356.439 572.962 C 351.793 570.091, 343.536 569.331, 338.743 571.334 C 333.323 573.599, 334.142 574.690, 340.894 574.201 C 347.160 573.748, 353.050 575.151, 355.063 577.575 C 357.032 579.948, 355.255 580.492, 351.454 578.679 C 347.526 576.806, 339.527 576.469, 335.484 578.006 C 330.876 579.758, 333.154 581.283, 340.548 581.395 C 346.047 581.478, 348.160 581.971, 350.657 583.752 L 353.814 586.004 363.371 583.705 C 368.627 582.440, 373.178 581.155, 373.484 580.849 C 373.790 580.543, 370.764 577.180, 366.759 573.376 C 357.567 564.644, 349.370 561.740, 344.441 565.468 M 723.629 570.304 C 720.533 577.305, 715.780 582.571, 709.840 585.581 C 705.683 587.688, 705 588.455, 705 591.017 C 705 593.234, 705.467 594, 706.818 594 C 712.408 594, 719.672 597.373, 724.250 602.094 L 729 606.993 729 585.997 C 729 567.922, 728.790 565, 727.487 565 C 726.622 565, 724.971 567.270, 723.629 570.304 M 759.773 568.201 C 758.989 570.330, 760.035 572, 762.153 572 C 763.638 572, 764.059 571.435, 763.820 569.760 C 763.466 567.284, 760.528 566.152, 759.773 568.201 M 783.623 568.541 C 782.778 570.741, 783.690 572, 786.129 572 C 787.639 572, 788.060 571.443, 787.820 569.760 C 787.437 567.078, 784.510 566.228, 783.623 568.541 M 747 571.309 C 747 573.129, 747.661 575.491, 748.468 576.559 C 749.820 578.346, 749.939 578.084, 749.968 573.250 C 749.993 569.236, 749.647 568, 748.500 568 C 747.469 568, 747 569.034, 747 571.309 M 770.657 571.750 C 769.356 580.572, 769.343 580.482, 772 580.779 C 774.310 581.038, 774.365 580.952, 772.728 579.653 C 771.288 578.511, 771.147 577.743, 771.978 575.558 C 773.239 572.242, 773.310 568, 772.105 568 C 771.613 568, 770.961 569.688, 770.657 571.750 M 812.560 574.939 L 807.696 579.877 808.277 588.838 C 808.971 599.553, 811.245 604.752, 816.719 608.136 C 821.699 611.214, 829.743 611.211, 835.763 608.129 C 839.942 605.989, 846 599.018, 846 596.350 C 846 595.607, 846.868 595, 847.929 595 C 850.594 595, 853 592.342, 853 589.397 C 853 586.546, 850.617 585.243, 848.546 586.962 C 847.368 587.940, 847.005 587.545, 846.472 584.702 C 845.839 581.330, 845.718 581.255, 840.719 581.142 C 832.558 580.958, 820.967 575.683, 819.325 571.405 C 818.499 569.252, 817.803 569.616, 812.560 574.939 M 686.352 571.993 C 685.171 572.470, 683.860 573.418, 683.438 574.100 C 682.874 575.012, 683.178 575.120, 684.586 574.508 C 688.068 572.995, 694.019 572.765, 697.064 574.027 C 698.714 574.710, 700.344 574.990, 700.686 574.648 C 702.794 572.540, 690.597 570.281, 686.352 571.993 M 593.672 575.250 C 592.224 576.309, 592.768 576.503, 597.231 576.519 C 600.129 576.529, 603.288 576.915, 604.250 577.376 C 605.274 577.866, 606 577.822, 606 577.268 C 606 574.542, 596.718 573.023, 593.672 575.250 M 426.258 583.989 C 428.284 586.355, 430.417 589.735, 431 591.499 L 432.058 594.707 440.761 595.321 C 450.092 595.980, 450.648 595.805, 451.164 592.045 C 451.693 588.183, 439.093 581.877, 427.872 580.389 L 422.575 579.686 426.258 583.989 M 801.744 580.799 C 800.775 580.992, 798.848 583.560, 797.443 586.528 C 794.752 592.217, 790.342 596.636, 785.763 598.232 C 780.897 599.929, 782.413 602.212, 791.253 606.500 C 800.403 610.938, 802.411 613.393, 805.836 624.335 L 807.663 630.170 809.397 625.632 C 810.350 623.135, 812.676 619.736, 814.565 618.077 C 818.986 614.195, 818.897 612.055, 814.153 608.243 C 812.037 606.542, 809.705 603.655, 808.971 601.826 C 808.237 599.996, 806.369 597.022, 804.819 595.215 C 801.918 591.835, 801.120 587.280, 803.085 585.315 C 804.758 583.642, 803.793 580.391, 801.744 580.799 M 811.569 582.888 C 811.267 583.376, 812.253 583.988, 813.760 584.247 C 815.267 584.505, 817.288 585.054, 818.250 585.466 C 819.255 585.895, 820 585.784, 820 585.205 C 820 583.358, 812.545 581.309, 811.569 582.888 M 832.750 583.689 C 831.788 583.941, 831 584.594, 831 585.141 C 831 585.732, 831.912 585.824, 833.250 585.369 C 834.487 584.948, 836.513 584.645, 837.750 584.696 C 838.987 584.747, 840 584.386, 840 583.894 C 840 582.981, 835.902 582.866, 832.750 583.689 M 335.511 585.368 C 331.413 588.365, 341.830 590.556, 348.008 587.997 L 351.197 586.676 348.848 585.373 C 345.743 583.651, 337.864 583.648, 335.511 585.368 M 769.250 587.031 C 768.013 587.529, 767 588.416, 767 589.003 C 767 589.748, 767.583 589.758, 768.934 589.035 C 769.998 588.466, 772.278 588, 774 588 C 775.722 588, 778.002 588.466, 779.066 589.035 C 780.413 589.756, 781 589.748, 781 589.010 C 781 586.562, 773.543 585.306, 769.250 587.031 M 804.121 587.354 C 803.317 588.323, 803.254 589.538, 803.917 591.281 C 805.567 595.621, 806.852 595.331, 806.267 590.750 C 805.614 585.630, 805.587 585.588, 804.121 587.354 M 814.336 587.567 C 813.448 589.882, 815.413 591.412, 816.928 589.586 C 818.210 588.043, 817.629 586, 815.910 586 C 815.375 586, 814.667 586.705, 814.336 587.567 M 834.145 587.325 C 833.237 588.419, 833.311 589.013, 834.476 589.980 C 835.700 590.996, 836.095 590.916, 836.621 589.545 C 837.518 587.208, 835.640 585.523, 834.145 587.325 M 867 598.937 C 867 605.571, 867 611.337, 867 611.750 C 867 612.163, 868.462 612.500, 870.250 612.500 L 873.500 612.500 873.500 600 L 873.500 587.500 870.250 587.187 L 867 586.873 867 598.937 M 698.500 589.177 C 696.300 589.578, 693.263 589.667, 691.750 589.374 C 689.439 588.926, 689 589.184, 689 590.986 C 689 592.166, 688.490 594.084, 687.867 595.249 C 685.153 600.320, 696.424 603.245, 701.358 598.750 C 703.487 596.810, 703.736 595.945, 703.164 592.474 L 702.500 588.449 698.500 589.177 M 823.668 592.656 C 823.342 594.667, 823.310 596.692, 823.597 597.156 C 824.770 599.054, 825.510 597.751, 825.674 593.500 C 825.882 588.097, 824.502 587.516, 823.668 592.656 M 868.217 600.238 C 868.463 610.014, 868.728 611.520, 870.250 611.811 C 871.835 612.115, 872 611.057, 872 600.573 C 872 589.605, 871.894 589, 869.967 589 C 868.027 589, 867.947 589.514, 868.217 600.238 M 605.500 592.907 C 600.961 593.445, 600.471 593.754, 600.184 596.250 C 600.009 597.763, 598.975 599.478, 597.885 600.061 C 595.688 601.238, 596.047 604.145, 598.773 607.250 C 602.107 611.046, 612.108 608.404, 615.023 602.957 C 616.510 600.178, 614.307 591.948, 612.131 592.157 C 611.234 592.244, 608.250 592.581, 605.500 592.907 M 705.641 597.494 C 703.207 603.835, 690.582 604.638, 685.896 598.751 C 685.014 597.643, 683.788 596.908, 683.171 597.118 C 680.959 597.872, 686.999 603.923, 691.054 605.014 C 697.697 606.803, 709 601.804, 709 597.077 C 709 595.450, 706.296 595.786, 705.641 597.494 M 708.625 600.603 C 701.787 609.173, 689.266 609.266, 682.638 600.796 L 680.100 597.553 675.641 599.719 C 670.264 602.331, 666.390 609.423, 662.803 623.218 C 660.272 632.949, 660.506 633.721, 666.264 634.655 L 669.855 635.238 670.559 628.097 C 670.946 624.169, 671.654 620.714, 672.131 620.419 C 673.415 619.625, 673.217 622.792, 670.058 653.500 C 667.858 674.880, 667.453 681.788, 668.344 682.720 C 672.806 687.384, 715.879 688.401, 722.983 684.011 C 724.826 682.872, 722.716 653.496, 719.505 635.579 C 717.247 622.981, 717.018 619.685, 718.504 621.171 C 718.781 621.448, 719.481 624.335, 720.060 627.587 C 721.668 636.628, 721.872 637.058, 724.318 636.560 C 725.518 636.315, 728.188 635.844, 730.250 635.512 C 734.885 634.767, 734.986 633.626, 731.483 621.540 C 727.368 607.339, 723.596 601.817, 715.782 598.553 C 713.737 597.699, 711.937 597, 711.782 597 C 711.627 597, 710.206 598.622, 708.625 600.603 M 617.031 603.450 C 614.258 607.937, 609.201 611, 604.566 611 C 599.403 611, 597.147 609.509, 594.998 604.676 C 593.267 600.782, 593.136 600.689, 593.071 603.300 C 592.744 616.254, 610.692 617.761, 619.174 605.492 C 622.332 600.924, 622.568 600, 620.582 600 C 619.801 600, 618.204 601.552, 617.031 603.450 M 769.503 602.868 C 768.838 605.492, 770.988 608.544, 774.226 609.572 C 777.014 610.457, 781.854 605.685, 781.269 602.627 C 780.598 599.116, 770.402 599.325, 769.503 602.868 M 620.830 605.464 C 612.858 618.607, 596.169 619.247, 591.893 606.574 L 590.285 601.811 586.584 605.061 C 582.096 609.001, 580.256 612.536, 576.023 625.349 C 573.027 634.416, 572.897 635.326, 574.385 636.813 C 575.872 638.300, 576 638.044, 576 633.586 C 576 630.016, 576.804 627.338, 579.061 623.393 C 584.364 614.124, 586.038 615.218, 581 624.660 C 577.601 631.029, 577.383 633.418, 579.555 640.500 C 581.319 646.255, 581.066 649.432, 577.291 668.901 C 574.232 684.676, 573.834 683.857, 585.740 686.296 C 601.438 689.512, 621.912 689.247, 634.093 685.670 L 638.500 684.376 638.251 673.938 C 637.931 660.523, 636.095 645.701, 634.641 644.789 C 633.448 644.041, 628.880 626.842, 629.658 626.029 C 630.537 625.111, 631.961 628.594, 633.679 635.863 L 635.419 643.226 640.815 642.592 C 645.220 642.074, 649.050 640.891, 650.762 639.519 C 651.415 638.996, 645.709 621.352, 643.380 616.693 C 640.022 609.974, 636.619 606.385, 630.783 603.407 C 624.521 600.212, 623.944 600.331, 620.830 605.464 M 823.500 601.716 C 819.272 602.727, 820.225 603.604, 825.496 603.553 C 828.522 603.524, 830.998 603.163, 830.999 602.750 C 831 602.337, 830.362 602, 829.582 602 C 828.802 602, 827.564 601.828, 826.832 601.619 C 826.099 601.409, 824.600 601.453, 823.500 601.716 M 764.653 606.753 C 764.163 607.545, 766.373 614.707, 767.436 615.769 C 767.777 616.110, 769.035 615.409, 770.232 614.212 L 772.409 612.036 769.517 609.018 C 766.560 605.932, 765.473 605.425, 764.653 606.753 M 780.192 608.798 L 776.884 611.543 779.438 613.942 C 782.374 616.700, 782.273 616.747, 784.395 611.628 C 787.121 605.052, 785.789 604.155, 780.192 608.798 M 837.766 608.811 C 832.067 612.048, 832.147 612.704, 838.545 615.213 C 841.270 616.281, 844.232 617.815, 845.126 618.621 C 848.162 621.356, 849.166 614.155, 846.474 608.950 C 844.628 605.380, 843.827 605.367, 837.766 608.811 M 785.475 613.053 C 782.234 619.832, 782.166 619.870, 779.029 616.531 C 775.635 612.918, 775 614.114, 775 624.118 C 775 629.775, 774.634 632.892, 774.014 632.509 C 773.408 632.134, 773.273 628.462, 773.664 622.950 C 774.351 613.280, 773.851 612.401, 770 616.500 C 766.806 619.899, 766.591 619.783, 764.455 613.500 C 762.233 606.961, 761.046 606.719, 755.993 611.772 C 752.321 615.444, 749.245 622.846, 747.478 632.266 C 746.869 635.513, 747.041 635.818, 750.062 636.872 C 751.842 637.492, 753.434 638, 753.600 638 C 753.765 638, 754.207 635.290, 754.582 631.978 C 754.957 628.665, 755.721 625.672, 756.281 625.327 C 756.947 624.915, 757.090 626.389, 756.695 629.599 C 755.173 641.984, 752.799 674.034, 753.307 675.357 C 754.637 678.824, 785.669 681.019, 794.500 678.271 L 797.500 677.338 797.394 662.919 C 797.336 654.988, 796.548 643.649, 795.644 637.720 C 793.706 625.010, 793.764 626, 794.950 626 C 795.473 626, 796.206 628.700, 796.580 632 C 797.307 638.432, 797.971 638.917, 803.872 637.338 C 806.043 636.757, 806.197 636.314, 805.697 632.091 C 804.367 620.861, 798.806 611.372, 791.909 608.567 L 788.317 607.106 785.475 613.053 M 823.545 613.744 C 822.633 616.121, 822.911 616.882, 825.126 618.068 C 828.232 619.730, 832 617.789, 832 614.529 C 832 612.241, 831.644 612.028, 828.045 612.169 C 825.667 612.263, 823.872 612.891, 823.545 613.744 M 832.506 617.994 C 830.269 620.465, 825.353 620.617, 821.973 618.319 L 819.500 616.638 821.405 618.819 C 823.856 621.625, 829.840 621.761, 833.139 619.086 C 834.438 618.033, 835.235 616.906, 834.911 616.580 C 834.586 616.254, 833.504 616.890, 832.506 617.994 M 815.756 618.977 C 811.130 622.616, 806.562 637.648, 809.750 638.739 C 810.588 639.026, 811 638.050, 811 635.774 C 811 633.909, 811.708 631.509, 812.574 630.441 C 814.092 628.570, 814.126 628.590, 813.525 631 C 813.182 632.375, 812.500 638, 812.009 643.500 C 811.517 649, 810.810 656.021, 810.438 659.102 C 809.796 664.399, 809.888 664.742, 812.130 665.412 C 816.139 666.610, 836.266 667.219, 840.500 666.271 L 844.500 665.374 844.249 655.937 C 844.111 650.747, 843.376 643.237, 842.615 639.250 C 841.855 635.263, 841.602 632, 842.055 632 C 842.507 632, 843.181 634.025, 843.552 636.500 C 844.256 641.195, 844.987 641.646, 849.801 640.356 C 851.785 639.825, 852.009 639.311, 851.429 636.620 C 848.324 622.209, 840.031 613.369, 834.843 618.938 C 830.434 623.670, 823.640 623.901, 820.129 619.437 C 818.234 617.028, 818.234 617.028, 815.756 618.977 M 381.500 620.614 C 373.977 623.670, 359.162 627.708, 352.228 628.592 C 349.328 628.961, 346.784 629.542, 346.574 629.882 C 345.816 631.112, 342.069 655.635, 341.819 661 L 341.563 666.500 352.336 669.165 C 373.549 674.414, 384.120 675.500, 414 675.499 C 435.947 675.498, 443.721 675.129, 452.500 673.671 C 464.437 671.689, 478.850 668.329, 480.930 667.043 C 482.186 666.267, 481.599 655.345, 479.360 637.828 L 478.763 633.156 474.631 635.328 C 470.992 637.241, 469.012 637.488, 458 637.401 C 442.498 637.278, 429.796 634.158, 405.439 624.491 C 396.445 620.921, 388.729 618.040, 388.293 618.088 C 387.857 618.137, 384.800 619.274, 381.500 620.614 M 662.453 637.077 C 660.964 639.485, 660.928 665.548, 662.398 677.163 C 663.279 684.128, 664 691.260, 664 693.012 C 664 696.477, 666.687 703, 668.114 703 C 668.601 703, 669 699.275, 669 694.722 C 669 687.682, 668.701 686.188, 667 684.732 C 665.900 683.790, 665 682.433, 665 681.716 C 665 681, 665.900 671.677, 667 661 C 669.586 635.901, 669.647 637.322, 665.956 636.780 C 664.282 636.535, 662.705 636.668, 662.453 637.077 M 725.130 638.721 C 722.966 639.131, 722.811 639.534, 723.350 643.335 C 725.351 657.440, 726.372 684.257, 724.950 685.361 C 723.340 686.612, 722.718 704, 724.283 704 C 727.971 704, 734.800 661.767, 733.547 646.716 C 732.749 637.143, 732.867 637.255, 725.130 638.721 M 747.666 647.930 C 746.628 662.555, 750.131 691.993, 752.911 692.002 C 753.917 692.005, 752.980 679.626, 751.794 677.259 C 750.954 675.582, 751.026 670.925, 752.079 658.759 C 753.867 638.110, 753.953 639.553, 750.903 639.198 C 748.317 638.898, 748.304 638.934, 747.666 647.930 M 801.224 639.725 L 797.948 640.131 798.517 645.315 C 798.830 648.167, 799.287 652.300, 799.533 654.500 C 800.519 663.347, 800.239 678.234, 799.073 678.955 C 798.310 679.426, 798.006 682.090, 798.201 686.590 C 798.497 693.421, 798.519 693.471, 800.179 691 C 801.103 689.625, 802.322 685.350, 802.889 681.500 C 803.456 677.650, 804.640 670, 805.520 664.500 C 807.048 654.956, 806.809 638.748, 805.146 639.160 C 804.791 639.248, 803.026 639.502, 801.224 639.725 M 574.648 645.250 C 574.301 648.138, 574.066 655.225, 574.126 661 L 574.234 671.500 576.080 662.500 C 578.585 650.282, 578.563 640, 576.032 640 C 575.618 640, 574.995 642.362, 574.648 645.250 M 808.118 643.167 C 808.183 645, 808.580 647.850, 809 649.500 C 809.698 652.244, 809.786 652.095, 810.032 647.750 C 810.179 645.138, 810.345 642.475, 810.400 641.833 C 810.455 641.192, 809.938 640.479, 809.250 640.250 C 808.403 639.968, 808.038 640.907, 808.118 643.167 M 847.219 642.772 C 845.271 643.092, 845.008 643.612, 845.424 646.324 C 845.692 648.071, 846.180 653.325, 846.508 658 C 847.374 670.318, 848.107 671.735, 849.612 664 C 851.015 656.790, 851.419 643.319, 850.250 642.758 C 849.837 642.560, 848.473 642.566, 847.219 642.772 M 641.139 644.732 C 637.951 645.122, 637.811 645.306, 638.415 648.322 C 638.765 650.070, 639.722 659.375, 640.541 669 C 641.361 678.625, 642.632 688.508, 643.365 690.962 L 644.699 695.425 645.844 690.462 C 649.623 674.093, 650.748 660.876, 649.352 649.250 C 648.668 643.554, 649.048 643.763, 641.139 644.732 M 809.580 668.157 C 806.334 678.334, 801.967 701.366, 803.140 702.123 C 806.929 704.567, 820.625 706.986, 830.722 706.994 C 839.050 707.001, 852.976 704.225, 853.669 702.420 C 853.928 701.745, 852.244 693.481, 849.927 684.057 L 845.714 666.920 841.107 667.710 C 835.069 668.745, 821.857 668.718, 815.254 667.657 C 811.175 667.001, 809.914 667.112, 809.580 668.157 M 340.143 671.148 C 334.075 687.267, 319.719 734.324, 313.123 759.710 L 309.172 774.921 314.336 776.843 C 374.081 799.082, 443.072 800.532, 507.250 780.897 C 512.612 779.256, 517 777.661, 517 777.352 C 517 775.462, 503.451 732.253, 492.324 698.655 C 483.429 671.798, 482.623 669.845, 480.635 670.309 C 479.461 670.584, 473.550 671.970, 467.500 673.391 C 434.319 681.182, 388.803 680.847, 354.500 672.560 C 349 671.232, 343.719 669.841, 342.764 669.471 C 341.512 668.985, 340.781 669.453, 340.143 671.148 M 755.378 720.618 C 755.798 745.931, 756.463 762.863, 757.062 763.462 C 757.607 764.007, 760.628 764.463, 763.776 764.476 L 769.500 764.500 770.656 742 C 772.502 706.060, 774.200 692.278, 776.351 695.759 C 777.261 697.231, 779.800 723.631, 781.088 745 C 781.812 757.021, 782.692 764.782, 783.381 765.235 C 784.740 766.127, 792.226 766.234, 794.418 765.393 C 795.822 764.854, 796 760.496, 796 726.581 L 796 688.376 793 686.158 C 791.350 684.938, 790 683.284, 790 682.483 C 790 681.282, 788.704 681.135, 782.637 681.648 C 776.142 682.197, 762.042 680.942, 756.591 679.329 C 754.727 678.778, 754.699 679.733, 755.378 720.618 M 741 681.088 C 732.010 682.801, 732.280 682.610, 731.588 687.740 C 731.235 690.358, 730.690 694.210, 730.377 696.300 C 730.064 698.389, 728.333 702.031, 726.531 704.391 C 723.712 708.085, 723.272 709.429, 723.377 714.024 L 723.500 719.365 738.160 721.436 L 752.819 723.506 753.212 709.503 C 753.593 695.913, 753.535 695.423, 751.238 692.878 C 749.812 691.298, 748.598 688.350, 748.185 685.461 C 747.409 680.038, 747.195 679.908, 741 681.088 M 792.265 680.815 C 791.309 681.422, 791.379 682.096, 792.572 683.799 C 794.709 686.850, 796 686.548, 796 683 C 796 680.012, 794.714 679.260, 792.265 680.815 M 575.563 686.899 C 574.381 688.811, 559.982 750.162, 560.513 751.021 C 560.802 751.488, 563.487 752.787, 566.481 753.907 C 583.711 760.354, 615.436 762.785, 635.500 759.198 C 647.954 756.971, 658.107 753.507, 657.485 751.697 C 657.259 751.039, 653.403 736.775, 648.916 720 C 644.430 703.225, 640.555 688.783, 640.304 687.906 C 639.893 686.466, 639.101 686.500, 632.174 688.252 C 618.337 691.752, 588.650 690.804, 577.851 686.518 C 576.944 686.158, 575.914 686.329, 575.563 686.899 M 671 689.639 C 671 693.621, 672.162 693.929, 674.385 690.535 C 676.464 687.362, 676.455 687.320, 673.500 686.755 C 671.234 686.322, 671 686.592, 671 689.639 M 716.750 687.679 C 714.484 688.285, 714.543 689.133, 717.039 691.811 C 720.128 695.127, 722.192 694.672, 721.813 690.758 C 721.498 687.491, 720.262 686.740, 716.750 687.679 M 676.428 690.224 C 676.128 691.172, 674.783 692.812, 673.441 693.868 L 671 695.788 671 742.271 C 671 783.717, 671.174 788.899, 672.605 790.087 C 674.690 791.817, 686.574 792.599, 688.353 791.122 C 689.371 790.277, 689.851 784.076, 690.355 765.255 C 691.042 739.609, 693.280 706.387, 694.395 705.272 C 695.820 703.847, 696.941 706.938, 697.922 715 C 700.242 734.061, 702.071 756.494, 702.678 773.339 C 703.123 785.696, 703.712 791.569, 704.593 792.450 C 706.603 794.461, 713.429 795.136, 717.673 793.744 L 721.500 792.489 721.554 744.469 L 721.607 696.450 718.558 694.975 C 716.881 694.164, 715.018 692.493, 714.418 691.261 C 713.355 689.080, 712.858 689.016, 695.151 688.761 C 678.687 688.525, 676.924 688.662, 676.428 690.224 M 652.361 693.254 C 647.573 694.177, 647.185 694.472, 646.680 697.582 C 645.798 703.019, 647.592 707.759, 650.777 708.407 C 654.854 709.237, 666.321 710.984, 667.750 710.992 C 669.769 711.005, 669.183 706.476, 666.898 704.407 C 664.082 701.859, 662 697.669, 662 694.550 C 662 691.680, 661.131 691.563, 652.361 693.254 M 799.661 693.823 C 797.920 695.746, 797.077 719.023, 798.750 718.981 C 801.568 718.910, 814.481 714.115, 814.400 713.170 C 814.345 712.527, 814.232 710.942, 814.150 709.648 C 814.021 707.633, 813.060 707.042, 807.417 705.515 C 799.978 703.501, 799.338 702.650, 800.833 696.759 C 802.085 691.826, 801.896 691.352, 799.661 693.823 M 774.648 711.500 C 774.243 716.450, 773.670 721.737, 773.376 723.250 C 772.904 725.674, 773.145 726, 775.405 726 C 778.207 726, 778.236 725.234, 776.074 708 L 775.384 702.500 774.648 711.500 M 545.500 710.585 C 535.600 712.431, 522.174 714.909, 515.665 716.092 C 505.776 717.890, 503.908 718.511, 504.300 719.872 C 508.622 734.840, 517.416 762.710, 518.024 763.364 C 518.466 763.839, 532.929 767.104, 550.164 770.619 C 567.399 774.134, 582.737 777.289, 584.250 777.630 C 587.334 778.325, 587.566 776.988, 586.162 766.595 L 585.500 761.690 576.736 759.367 C 563.827 755.945, 557.997 753.223, 558.015 750.627 C 558.023 749.457, 560.191 739.163, 562.832 727.750 C 567.470 707.716, 567.564 707.004, 565.568 707.114 C 564.430 707.177, 555.400 708.739, 545.500 710.585 M 816.375 711.125 C 816.719 712.844, 817 717.794, 817 722.125 L 817 730 819.853 730 C 822.686 730, 822.711 729.945, 823.353 722.349 C 824.578 707.859, 824.612 708, 819.875 708 C 815.788 708, 815.756 708.029, 816.375 711.125 M 834.452 708.679 C 832.570 709.053, 832.462 709.550, 833.118 714.793 C 833.510 717.932, 833.869 722.862, 833.916 725.750 C 833.998 730.898, 834.058 731, 837 731 L 840 731 840 719.500 C 840 707.070, 840.236 707.530, 834.452 708.679 M 826 710.406 C 826 711.324, 826.700 711.630, 828.016 711.286 C 831.089 710.482, 831.442 709, 828.559 709 C 827.027 709, 826 709.564, 826 710.406 M 649.017 710.683 C 649.026 711.132, 651.501 720.702, 654.517 731.948 C 657.533 743.195, 660 752.746, 660 753.173 C 660 755.098, 643.601 761, 638.253 761 C 636.512 761, 636 761.572, 636 763.519 C 636 766.485, 634.768 766.678, 654.556 760.606 L 668.419 756.353 668.192 734.942 C 667.935 710.649, 668.816 712.773, 658.500 711.577 C 655.200 711.194, 651.712 710.653, 650.750 710.373 C 649.788 710.094, 649.008 710.233, 649.017 710.683 M 826.200 714.200 C 824.155 716.245, 824.628 723.367, 826.750 722.494 C 827.712 722.097, 829.288 721.547, 830.250 721.270 C 832.075 720.745, 832.389 719.055, 831.370 715.250 C 830.716 712.809, 828.118 712.282, 826.200 714.200 M 694.654 722.111 C 694.318 725.075, 693.748 732.335, 693.386 738.245 L 692.728 748.991 695.985 747.855 C 699.210 746.731, 699.237 746.669, 698.654 741.610 C 698.330 738.799, 697.766 732.675, 697.400 728 C 696.567 717.344, 695.463 714.977, 694.654 722.111 M 804.750 719.246 L 798 721.287 798 726.144 C 798 731.835, 797.416 731.692, 807.247 728.418 L 815 725.836 815 721.418 C 815 716.237, 814.824 716.200, 804.750 719.246 M 723.354 727.112 C 723.709 730.512, 724 734.971, 724 737.021 L 724 740.748 738.750 736.476 L 753.500 732.205 753.428 728.852 L 753.357 725.500 741.928 723.816 C 735.643 722.890, 728.747 721.862, 726.604 721.531 L 722.708 720.930 723.354 727.112 M 774.532 729.250 C 774.309 729.938, 773.972 732.437, 773.782 734.804 C 773.448 738.967, 773.519 739.087, 775.966 738.472 C 779.148 737.674, 778.906 738.273, 778.279 732.750 C 777.763 728.200, 775.544 726.128, 774.532 729.250 M 817.455 736.107 C 817.455 740.164, 815.963 742.242, 811.098 744.965 C 808.689 746.313, 810.467 747.276, 813.952 746.510 C 819.562 745.278, 823 741.441, 823 736.411 C 823 732.257, 822.839 732, 820.227 732 C 817.647 732, 817.455 732.285, 817.455 736.107 M 834.702 737.750 C 835.343 744.429, 835.293 744.347, 840.340 747.025 C 845.902 749.975, 847.688 748.833, 843.235 745.173 C 840.393 742.837, 839.983 741.900, 839.991 737.750 C 840 733.182, 839.890 733, 837.123 733 C 834.293 733, 834.253 733.078, 834.702 737.750 M 737.500 738.819 L 724.500 742.519 724.200 748.260 C 724.035 751.417, 724.261 754, 724.701 754 C 725.142 754, 731.802 752.049, 739.501 749.664 L 753.500 745.327 753.802 740.164 C 754.173 733.834, 754.824 733.888, 737.500 738.819 M 820.888 744.541 C 818.239 747.190, 811.947 748.933, 809.333 747.742 C 807.670 746.984, 806.648 747.047, 805.530 747.975 C 801.615 751.224, 806.077 752.701, 813.387 750.576 C 819.306 748.855, 823.505 746.014, 822.883 744.149 C 822.598 743.294, 822.021 743.407, 820.888 744.541 M 834.232 746.262 C 835.639 750.722, 851 756.549, 851 752.622 C 851 750.306, 848.222 748.571, 846.630 749.892 C 845.573 750.769, 843.953 750.342, 839.550 748.026 C 836.410 746.375, 834.017 745.581, 834.232 746.262 M 695.693 749.700 C 693.428 750.287, 692 753.938, 692 759.145 C 692 763.150, 692.007 763.157, 695.250 762.462 C 697.038 762.078, 698.837 761.566, 699.250 761.323 C 700.779 760.423, 699.718 748.826, 698.133 749.116 C 697.785 749.180, 696.687 749.443, 695.693 749.700 M 300.500 756.064 C 298.300 756.531, 269.950 761.690, 237.500 767.528 C 163.218 780.894, 120.956 788.710, 120.497 789.169 C 120.301 789.365, 146.097 797.353, 177.820 806.919 C 229.490 822.499, 275.063 836.355, 318.266 849.618 L 333.032 854.151 349.098 849.378 L 365.163 844.606 364.588 838.053 C 364.272 834.449, 363.509 823.400, 362.893 813.500 C 362.277 803.600, 361.487 795.236, 361.136 794.914 C 360.786 794.592, 356.675 793.547, 352 792.591 C 339.392 790.013, 323.638 785.307, 313.752 781.165 C 303.579 776.903, 303.820 777.553, 307.428 764.072 L 309.856 755 307.178 755.107 C 305.705 755.166, 302.700 755.596, 300.500 756.064 M 658 761.501 C 653.875 762.786, 647.237 764.793, 643.250 765.961 L 636 768.085 636 775.149 C 636 781.179, 636.232 782.125, 637.581 781.607 C 638.450 781.274, 645.875 778.890, 654.081 776.310 L 669 771.620 669 765.310 C 669 757.912, 669.249 757.998, 658 761.501 M 588.324 765.676 C 588.656 767.779, 589.410 776.700, 589.999 785.500 C 591.317 805.200, 590.874 804, 596.832 804 L 601.727 804 602.357 793.750 C 603.113 781.429, 603.417 764.065, 602.884 763.597 C 602.673 763.412, 599.175 762.943, 595.110 762.556 L 587.721 761.851 588.324 765.676 M 623.750 762.739 C 620.130 762.966, 618.007 763.544, 618.019 764.300 C 618.029 764.960, 618.921 772.250, 620 780.500 C 621.079 788.750, 621.971 797.582, 621.981 800.128 C 622.004 805.722, 623.524 807.239, 628.680 806.815 C 632.453 806.504, 632.508 806.438, 633.162 801.500 C 633.527 798.750, 633.864 788.737, 633.912 779.250 L 634 762 631.750 762.189 C 630.513 762.293, 626.913 762.541, 623.750 762.739 M 605.714 763.871 C 605.573 764.217, 605.693 766.790, 605.979 769.589 L 606.500 774.679 611.670 773.234 L 616.840 771.788 616.278 768.144 C 615.970 766.140, 615.668 764.447, 615.608 764.383 C 615.125 763.862, 605.911 763.385, 605.714 763.871 M 520.105 772.089 C 521.147 775.438, 522 778.737, 522 779.419 C 522 781.943, 485.995 792.394, 469.526 794.652 C 464.061 795.401, 464.332 794.852, 463.603 806.632 L 463.039 815.765 473.269 812.820 C 478.896 811.200, 500.150 804.994, 520.500 799.029 C 540.850 793.064, 563.462 786.476, 570.750 784.389 C 584.674 780.402, 586.052 779.618, 580.750 778.698 C 578.962 778.388, 564.225 775.405, 548 772.069 C 531.775 768.733, 518.435 766.003, 518.355 766.002 C 518.275 766.001, 519.063 768.740, 520.105 772.089 M 751.571 770.286 C 743.727 775.139, 742.697 776.635, 746.536 777.598 C 752.728 779.152, 768.238 773.341, 768.820 769.250 C 769.096 767.306, 768.687 766.998, 765.820 766.986 C 763.994 766.979, 761.600 766.754, 760.500 766.486 C 759.254 766.183, 755.887 767.616, 751.571 770.286 M 783 770.022 C 783 774.052, 796.087 780.497, 802.923 779.833 C 808.209 779.319, 807.670 777.579, 800.677 772.589 C 794.868 768.444, 793.703 768, 788.623 768 C 783.646 768, 783 768.232, 783 770.022 M 609.750 775.600 L 605 777.061 605 784.465 L 605 791.869 611.739 789.595 L 618.478 787.322 618.201 783.411 C 617.489 773.353, 617.381 773.253, 609.750 775.600 M 554.500 791.062 C 538 795.951, 511 803.842, 494.500 808.597 C 478 813.353, 464.192 817.527, 463.815 817.872 C 463.438 818.217, 462.818 822.383, 462.437 827.128 L 461.745 835.757 497.622 824.554 C 517.355 818.393, 545.762 809.560, 560.750 804.926 L 588 796.500 588 789.250 C 588 782.979, 587.764 782.012, 586.250 782.087 C 585.288 782.135, 571 786.174, 554.500 791.062 M 666 797.628 C 656.695 803.282, 654.180 805.580, 655.668 807.068 C 658.049 809.449, 664.418 809.245, 672.522 806.526 C 683.435 802.865, 687 800.546, 687 797.109 C 687 794.525, 686.746 794.378, 682.159 794.309 C 679.497 794.269, 676.459 793.974, 675.409 793.653 C 674.167 793.274, 670.881 794.662, 666 797.628 M 366.393 803.157 C 367.779 819.783, 369.993 855.797, 369.997 861.775 C 370 867.684, 370.160 868.114, 372.750 869.154 C 375.884 870.412, 386.243 870.767, 390.049 869.746 L 392.598 869.063 394.348 836.781 C 395.311 819.027, 396.330 803.294, 396.613 801.821 C 397.194 798.796, 399.040 799.283, 377.120 796.683 L 365.740 795.334 366.393 803.157 M 454 797.026 C 451.525 797.452, 444.887 798.132, 439.250 798.537 C 431.255 799.111, 429 799.595, 429 800.736 C 429 801.541, 429.685 811.492, 430.522 822.850 C 431.359 834.207, 432.371 849.548, 432.772 856.939 L 433.500 870.378 437 871.284 C 440.425 872.171, 454.432 871.941, 455.309 870.984 C 455.553 870.718, 456.504 856.775, 457.423 840 C 458.342 823.225, 459.363 806.462, 459.691 802.750 C 460.024 798.979, 459.893 796.055, 459.394 796.125 C 458.902 796.194, 456.475 796.599, 454 797.026 M 705.194 799.214 C 705.776 804.969, 725.123 814.401, 732.187 812.375 C 737.678 810.801, 736.544 808.247, 727.634 802.123 C 720.029 796.897, 719.520 796.709, 712.328 796.454 L 704.887 796.190 705.194 799.214 M 400.632 803.750 C 400.327 806.362, 399.787 814.283, 399.432 821.351 L 398.787 834.202 401.143 833.428 C 402.440 833.002, 408.450 831.213, 414.500 829.452 L 425.500 826.252 425.238 813.876 C 425.094 807.069, 424.770 800.938, 424.519 800.250 C 424.190 799.349, 420.865 799, 412.625 799 L 401.188 799 400.632 803.750 M 591.158 814.825 C 591.440 826.439, 591.118 827.069, 582.316 832.105 C 576.590 835.381, 575.884 836.475, 578.974 837.283 C 583.083 838.357, 596.848 833.401, 599.677 829.828 C 600.256 829.098, 601.023 823.438, 601.382 817.250 L 602.036 806 598.100 806 C 595.935 806, 593.432 805.719, 592.538 805.376 C 591.095 804.823, 590.941 805.880, 591.158 814.825 M 673.500 808.224 C 670.722 809.345, 665.932 810.296, 662.722 810.362 C 658.196 810.456, 657.487 810.662, 659.449 811.316 C 662.449 812.316, 670.844 810.705, 676.500 808.044 C 681.793 805.554, 679.819 805.672, 673.500 808.224 M 709.500 807.565 C 712.548 810.082, 723.243 815.007, 725.500 814.932 C 726.600 814.896, 725.604 814.274, 723.287 813.550 C 720.970 812.826, 716.470 810.811, 713.287 809.073 C 710.104 807.335, 708.400 806.657, 709.500 807.565 M 623.255 820.500 C 623.948 836.960, 626.717 843, 633.567 843 C 638.013 843, 638.442 840.989, 635.490 833.975 C 633.410 829.034, 633 826.451, 633 818.280 L 633 808.500 627.875 808.500 L 622.749 808.500 623.255 820.500 M 413 831.825 C 406.125 833.846, 399.938 835.864, 399.250 836.309 C 398.397 836.861, 398 840.079, 398 846.432 L 398 855.747 412.750 851.019 C 425.791 846.839, 427.492 846.043, 427.429 844.146 C 427.389 842.966, 427.277 838.850, 427.179 835 C 427.080 831.150, 426.663 828.034, 426.250 828.075 C 425.837 828.116, 419.875 829.803, 413 831.825 M 598.799 832.492 C 592.720 837.731, 578.729 840.788, 575.981 837.477 C 574.853 836.117, 574.439 836.130, 572.109 837.596 C 566.112 841.368, 565.740 843.542, 570.828 845.067 C 579.982 847.809, 605.358 837.008, 602.340 831.654 C 601.630 830.395, 601.082 830.525, 598.799 832.492 M 623.157 840.217 C 625.734 851.726, 635.720 858.183, 642.064 852.442 C 644.518 850.221, 644.495 848.890, 641.910 843.824 C 639.830 839.746, 639.815 839.738, 638.637 842.114 C 636.429 846.569, 631.507 845.931, 626.486 840.539 L 622.198 835.935 623.157 840.217 M 585 845.563 C 583.075 846.291, 578.800 846.951, 575.500 847.030 C 570.833 847.140, 570.086 847.349, 572.139 847.970 C 575.202 848.896, 584.309 847.449, 587.976 845.454 C 591.106 843.750, 589.650 843.803, 585 845.563 M 349 851.353 L 334.500 855.562 334.217 866.183 L 333.934 876.803 341.717 874.380 C 345.998 873.047, 353.212 870.814, 357.750 869.418 L 366 866.879 366 863.086 C 366 857.251, 364.788 846.991, 364.108 847.072 C 363.773 847.111, 356.975 849.038, 349 851.353 M 370.500 883.877 C 370.500 898.395, 371.091 897.537, 352.750 909.642 C 339.058 918.680, 337.554 920.744, 343.014 923.006 C 351.402 926.480, 375.475 917.584, 387.676 906.500 L 392.079 902.500 392.289 887.353 L 392.500 872.205 389 872.848 C 384.418 873.690, 379.446 873.633, 374.500 872.681 L 370.500 871.911 370.500 883.877 M 433.855 889.399 C 434.050 898.255, 434.626 906.282, 435.134 907.238 C 438.285 913.167, 463.537 927.619, 472.500 928.623 C 478.590 929.304, 483 927.814, 483 925.075 C 483 923.087, 481.091 921.321, 466.924 910.199 C 456.922 902.348, 456 900.280, 456 885.693 L 456 874.189 448.250 874.716 C 443.988 875.005, 438.925 874.805, 437 874.270 L 433.500 873.299 433.855 889.399 M 388.582 909.654 C 382.003 915.640, 365.441 923.643, 355.288 925.742 C 345.723 927.720, 338.537 925.987, 337.392 921.427 L 336.788 919.021 330.814 923.212 C 319.781 930.951, 317.556 935.543, 323.184 938.966 C 334.953 946.123, 362.192 939.075, 386.945 922.467 C 395.354 916.826, 395.554 916.491, 394.380 910.029 L 393.500 905.181 388.582 909.654 M 431.611 911.324 C 429.836 917.940, 430.661 919.707, 438.389 925.848 C 459.255 942.429, 480.041 950.794, 493.457 948.009 C 504.391 945.739, 504.470 941.043, 493.749 930.760 L 486.643 923.943 485.396 926.909 C 481.368 936.490, 459.974 931.115, 440.338 915.588 C 432.764 909.599, 432.154 909.301, 431.611 911.324 M 386 926.091 C 362.260 941.679, 335.208 948.533, 323.069 942.037 C 321.423 941.156, 321.151 941.229, 321.611 942.428 C 323.633 947.699, 343.176 948.395, 356.679 943.676 C 370.196 938.953, 394 925.129, 394 922.002 C 394 920.733, 394.720 920.365, 386 926.091 M 431.828 924.679 C 434.756 930.150, 450.860 941.731, 464.189 947.951 C 477.703 954.257, 490.124 955.573, 497.946 951.528 C 502.144 949.357, 501.810 947.764, 497.532 949.551 C 484.007 955.202, 456.165 945.012, 435.597 926.883 C 432.622 924.260, 431.140 923.394, 431.828 924.679" stroke="none" fill="#1a1a1a" fill-rule="evenodd"/>
</svg>