<svg xmlns="http://www.w3.org/2000/svg" width="1024" height="1024" viewBox="0 0 1024 1024" version="1.1">
	<path d="M 654 116.975 C 654 117.408, 655.563 118.955, 657.473 120.411 C 664.091 125.459, 670.046 136.455, 671.533 146.374 L 672.247 151.130 663.735 144.301 C 615.197 105.358, 528.857 108.188, 464.306 150.838 C 457.607 155.264, 448.835 161.973, 444.813 165.747 C 440.791 169.521, 433.468 175.284, 428.539 178.554 C 390.920 203.516, 369.458 244.373, 375.293 279.921 C 377.336 292.368, 381.828 306.111, 386.987 315.696 L 390.859 322.892 386.585 325.397 C 368.915 335.753, 367.428 368.714, 383.839 386.259 L 388.302 391.030 386.653 400.956 C 380.381 438.721, 358.702 468.126, 335.893 469.807 C 329.207 470.299, 322.104 467.615, 319.475 463.602 C 315.458 457.472, 314.682 465.962, 318.549 473.722 C 324.688 486.042, 337.429 490.032, 356 485.451 C 360.609 484.314, 348.769 491.249, 342 493.651 C 334.570 496.288, 326.457 496.609, 320.538 494.501 C 315.602 492.743, 315.116 493.204, 317.413 497.468 C 324.724 511.044, 346.646 515.533, 364.139 507.035 L 368.500 504.917 363.687 509.428 C 357.169 515.537, 344.620 521.717, 336.979 522.582 C 329.646 523.412, 329.353 524.771, 335.582 529.057 C 347.973 537.582, 365.374 538.579, 379.545 531.575 C 388.559 527.120, 399.521 516.870, 404.500 508.239 C 408.091 502.015, 408.031 502.030, 410.523 506.733 C 411.610 508.786, 415 513.398, 418.056 516.983 C 421.113 520.567, 423.947 524.055, 424.355 524.733 C 424.791 525.457, 422.955 529.587, 419.910 534.733 C 417.057 539.555, 412.701 547.325, 410.230 552 C 402.717 566.214, 403.663 565.306, 397.159 564.549 C 394.047 564.186, 389.250 563.145, 386.500 562.235 L 381.500 560.581 386.707 559.905 C 393.267 559.053, 403.209 554.373, 408.798 549.505 C 414.837 544.246, 413.491 544.197, 405.097 549.373 C 392.151 557.355, 376.343 559.311, 366.318 554.172 C 361.047 551.470, 359.893 549.829, 363.818 550.614 C 377.629 553.376, 401.608 537.854, 409.983 520.730 C 414.485 511.524, 413.421 511.494, 407.449 520.658 C 395.756 538.602, 375.011 550.244, 360.014 547.279 C 356.118 546.509, 355 546.569, 355 547.551 C 355 550.030, 364.969 557.805, 370.760 559.842 C 373.917 560.953, 379.309 563.034, 382.743 564.468 C 386.177 565.901, 391.937 567.349, 395.543 567.686 C 401.014 568.197, 401.996 568.564, 401.472 569.899 C 396.355 582.948, 395.565 586.689, 395.533 598.021 C 395.501 609.052, 395.640 609.826, 398.781 616.206 C 410.337 639.679, 434.638 641.268, 460.861 620.265 L 464.222 617.573 463.572 628.536 C 462.412 648.097, 462.365 648.289, 458.187 650.526 C 456.095 651.646, 453.851 653.912, 453 655.764 C 452.070 657.788, 450.550 659.242, 449 659.591 C 397.349 671.227, 377.379 682.269, 374.410 700.837 L 373.767 704.857 370.431 703.266 L 367.095 701.675 369.207 698.710 C 372.647 693.878, 372.814 686.756, 369.586 682.523 C 365.398 677.033, 363.863 676.589, 347 675.993 L 331.500 675.445 320.120 669.723 C 306.909 663.080, 302.921 662.513, 298.077 666.589 C 292.033 671.674, 294.445 677.281, 305.554 683.971 C 307.724 685.278, 309.620 686.427, 309.768 686.525 C 309.915 686.622, 309.193 688.583, 308.164 690.883 L 306.292 695.063 302.018 689.524 C 299.668 686.477, 293.752 680.185, 288.872 675.541 C 283.993 670.897, 280 666.893, 280 666.642 C 280 666.391, 282.042 663.107, 284.538 659.343 C 287.700 654.575, 288.944 651.762, 288.642 650.067 C 288.377 648.587, 289.431 645.300, 291.329 641.679 C 293.713 637.131, 294.542 634.103, 294.838 628.862 C 295.170 622.989, 295.493 622, 297.078 622 C 298.096 622, 299.409 622.895, 299.994 623.990 C 301.323 626.472, 304.241 627.938, 315 631.528 C 320.113 633.233, 324.754 635.525, 326.647 637.278 C 336.825 646.705, 351.490 631.517, 344.027 619.277 C 341.741 615.528, 338.714 614.516, 332.548 615.441 C 329.017 615.970, 326.302 615.474, 319.118 612.987 C 310.276 609.926, 305.284 609.089, 303.275 610.330 C 301.558 611.391, 282.534 604.443, 279.873 601.782 C 278.518 600.427, 273.913 598.143, 269.640 596.706 C 265.273 595.238, 260.352 592.760, 258.401 591.047 C 250.518 584.126, 241 589.742, 241 601.315 C 241 608.763, 246.786 613.494, 253.056 611.175 C 254.873 610.503, 257.142 610.913, 261.995 612.789 C 265.804 614.261, 270.950 615.390, 274.412 615.514 C 281.688 615.772, 283.004 617.218, 282.990 624.941 C 282.978 631.810, 279.104 641, 276.220 641 C 273.492 641, 269.154 646.426, 249.278 674.695 C 246.882 678.102, 243.927 681.199, 242.711 681.576 C 241.495 681.954, 239.362 683.063, 237.971 684.042 C 235.640 685.682, 235.013 685.706, 229.971 684.351 C 223.359 682.573, 206.678 682.912, 204.754 684.863 C 203.370 686.266, 203.972 686.879, 210.175 690.373 L 213.500 692.246 204.944 693.999 C 169.720 701.215, 146.240 736.143, 153.517 770.500 C 155.433 779.545, 155.579 778.998, 151.250 779.011 C 145.534 779.028, 140 780.143, 140 781.278 C 140 781.938, 142.953 782.068, 148.405 781.649 L 156.811 781.003 159.826 786.345 C 161.484 789.283, 164.451 793.206, 166.420 795.064 C 171.126 799.502, 171.122 799.509, 162.991 801.502 C 159.136 802.447, 155.735 803.620, 155.432 804.110 C 154.699 805.297, 155.215 805.236, 164.407 803.058 C 171.836 801.297, 175 801.259, 175 802.932 C 175 803.327, 169.356 804.928, 162.457 806.490 C 155.559 808.052, 149.682 809.705, 149.398 810.165 C 148.672 811.339, 150.570 811.190, 157.680 809.513 C 175.509 805.309, 181 804.449, 181 805.859 C 181 806.332, 175.831 807.940, 169.514 809.433 C 163.196 810.926, 157.770 812.564, 157.455 813.073 C 156.609 814.442, 157.679 814.284, 171.500 811 C 184.069 808.014, 191.075 807.139, 188 808.939 C 187.175 809.422, 183.575 810.553, 180 811.451 C 171.712 813.534, 170.597 813.931, 171.235 814.568 C 171.522 814.855, 176.821 813.923, 183.012 812.497 C 197.522 809.156, 201.036 809.679, 190.107 813.553 C 189.341 813.825, 188.951 814.284, 189.240 814.573 C 189.530 814.863, 192.471 814.189, 195.775 813.076 C 199.080 811.962, 204.473 810.827, 207.759 810.552 C 211.045 810.277, 214.945 809.591, 216.424 809.029 C 218.176 808.363, 218.899 808.354, 218.498 809.003 C 218.159 809.551, 218.208 810, 218.607 810 C 220.263 810, 253 798.485, 253 797.902 C 253 797.073, 241.631 799.710, 237.168 801.574 C 235.256 802.373, 233.522 802.855, 233.313 802.646 C 232.433 801.766, 240.261 796, 242.335 796 C 245.105 796, 247 794.246, 247 791.682 C 247 790.627, 248.302 788.281, 249.894 786.468 C 251.486 784.655, 254.021 780.978, 255.529 778.296 L 258.269 773.421 276.885 771.689 C 299.468 769.588, 300 769.584, 300 771.540 C 300 773.788, 303.359 780.007, 307.512 785.448 C 309.506 788.060, 310.994 790.322, 310.818 790.474 C 310.514 790.740, 301.334 792.779, 288.500 795.431 C 275.957 798.022, 242.100 809.433, 243.323 810.656 C 243.546 810.880, 252.126 808.315, 262.389 804.957 C 272.651 801.599, 285.425 797.974, 290.774 796.902 C 296.123 795.830, 303.300 794.254, 306.722 793.400 C 312.204 792.032, 313.193 792.022, 315.039 793.315 C 317.069 794.737, 316.999 794.830, 312.818 796.282 C 305.106 798.960, 292.686 803.091, 284.250 805.784 C 279.712 807.232, 276 808.803, 276 809.276 C 276 809.748, 276.788 809.914, 277.750 809.645 C 316.925 798.678, 320.354 797.844, 323.688 798.469 C 328.314 799.337, 328.369 799.310, 314.642 802.888 C 297.738 807.295, 288.728 810.061, 289.327 810.660 C 289.867 811.201, 308.428 807.267, 320.500 804.054 C 332.391 800.888, 333 800.809, 333 802.434 C 333 803.917, 330.451 804.860, 320.330 807.125 C 317.399 807.781, 315 808.727, 315 809.227 C 315 809.726, 315.788 809.906, 316.750 809.627 C 317.712 809.348, 320.525 808.615, 323 808 C 325.475 807.385, 328.400 806.623, 329.500 806.308 L 331.500 805.734 329.500 807.983 C 325.359 812.641, 319.056 815.905, 304.500 820.930 C 282.814 828.417, 278 831.837, 278 839.754 C 278 845.252, 288.972 852.617, 300 854.524 L 304.500 855.302 296.645 857.713 C 285.527 861.126, 287.955 861.803, 299.730 858.574 C 306.581 856.695, 311.332 855.979, 315.515 856.193 L 321.500 856.500 306 860.876 C 290.051 865.379, 285.864 866.912, 289.363 866.970 C 291.684 867.007, 316.953 860.664, 322.876 858.557 C 327.587 856.881, 334.696 856.521, 336.795 857.852 C 337.622 858.377, 334.912 859.495, 329.295 860.948 C 303.041 867.737, 298.005 869.338, 299.189 870.522 C 299.662 870.995, 324.305 864.987, 336.432 861.442 C 341.710 859.899, 346.988 859.623, 350.953 860.683 C 352.747 861.163, 348.718 862.514, 335.965 865.708 C 326.373 868.110, 318.091 870.509, 317.562 871.038 C 315.960 872.640, 319.260 872.183, 332.759 868.933 C 339.767 867.246, 350.450 864.781, 356.500 863.455 C 362.550 862.129, 371.438 859.980, 376.250 858.678 C 383.168 856.808, 385 856.599, 385 857.681 C 385 859.546, 383.301 860.099, 359.903 865.843 C 348.681 868.597, 338.375 871.306, 337 871.862 L 334.500 872.873 337 872.921 C 338.375 872.947, 349.625 870.575, 362 867.650 C 376.715 864.172, 384.737 862.690, 385.184 863.368 C 386.294 865.050, 385.404 865.592, 379.296 866.950 C 371.036 868.786, 360.717 872.051, 361.308 872.642 C 361.584 872.918, 367.477 871.901, 374.404 870.383 L 386.998 867.624 389.749 870.182 C 391.262 871.590, 393.801 873.568, 395.391 874.578 L 398.281 876.414 394.391 878.133 C 389.900 880.117, 390.781 880.466, 396.366 878.915 C 400.282 877.828, 405 878.348, 405 879.868 C 405 880.324, 401.063 881.736, 396.250 883.005 C 391.438 884.275, 386.150 885.901, 384.500 886.618 C 379.268 888.892, 384.617 888.218, 397.357 884.997 C 409.339 881.968, 414.475 881.341, 415.375 882.797 C 415.646 883.236, 409.340 885.580, 401.363 888.007 C 393.385 890.434, 386.609 892.824, 386.304 893.317 C 385.581 894.487, 388.876 893.733, 407.800 888.400 C 416.386 885.980, 424.417 884, 425.647 884 C 430.242 884, 428.720 885.748, 422.714 887.368 C 413.361 889.890, 398.479 895.326, 399.759 895.753 C 400.378 895.959, 408.993 893.796, 418.903 890.946 C 431.949 887.193, 437.691 885.965, 439.711 886.495 C 443.024 887.364, 443.113 887.320, 429.631 891.471 C 419.047 894.730, 413.592 896.925, 414.306 897.640 C 414.794 898.127, 436.012 892.164, 442.344 889.759 C 444.862 888.803, 452.820 888.487, 453.644 889.310 C 453.815 889.482, 448.790 891.380, 442.478 893.529 C 436.165 895.678, 431 897.819, 431 898.286 C 431 899.203, 431.696 899.041, 443 895.492 C 447.125 894.197, 454.325 892.174, 459 890.995 C 477.303 886.381, 506 877.223, 506 875.997 C 506 875.243, 488.925 879.436, 481.607 881.987 C 479.995 882.549, 478.528 882.862, 478.348 882.682 C 476.857 881.191, 483.622 878.285, 502 872.521 C 539.697 860.698, 558.680 854.118, 555.341 854.030 C 553.923 853.993, 531.312 860.525, 526.198 862.449 C 523.209 863.574, 490.560 873.721, 483.750 875.641 C 482.788 875.913, 482 875.740, 482 875.259 C 482 872.619, 485.760 870.657, 497.500 867.172 C 504.650 865.049, 524 859.231, 540.500 854.243 C 574.394 843.996, 591.055 839.518, 598.835 838.563 C 601.768 838.203, 606.493 837.045, 609.335 835.988 C 618.847 832.452, 650.186 826.766, 652.716 828.118 C 657.089 830.454, 683.115 826.937, 688.741 823.250 C 691.973 821.132, 691.565 820.229, 686.793 818.944 C 679.517 816.985, 663.321 819.359, 654.783 823.637 C 652.189 824.937, 648.364 826.007, 646.283 826.016 C 644.202 826.024, 638.269 826.924, 633.098 828.016 C 620.919 830.586, 620.732 830.556, 626.450 826.929 C 631.735 823.578, 638.449 822.216, 690.464 813.943 C 704.194 811.760, 715.894 809.491, 716.464 808.901 C 718.087 807.223, 681.803 812.140, 656.924 816.970 C 642.348 819.800, 641.797 819.441, 654.500 815.389 C 665.158 811.990, 681.002 809.095, 709 805.431 C 720.773 803.891, 728.291 801.979, 722.450 802.011 C 718.878 802.030, 693.637 804.884, 683.541 806.410 C 678.063 807.238, 673.408 807.742, 673.196 807.530 C 672.984 807.318, 674.766 805.900, 677.156 804.379 C 681.770 801.441, 687.280 800.444, 712.750 797.937 C 719.487 797.274, 725 796.342, 725 795.866 C 725 794.589, 717.673 794.806, 701.858 796.550 C 686.430 798.252, 684.314 798.131, 688.020 795.761 C 689.495 794.818, 694.957 793.715, 701.500 793.039 C 718.364 791.297, 720.801 790.840, 718.261 789.901 C 717.096 789.470, 710.711 789.666, 704.072 790.335 C 697.432 791.005, 692 791.229, 692 790.833 C 692 788.976, 696.865 786.999, 701.473 786.985 C 704.238 786.976, 707.175 786.533, 708 786 C 709.051 785.321, 707.494 785.026, 702.796 785.015 L 696.092 785 698.472 779.863 C 699.781 777.037, 701.627 771.862, 702.574 768.363 C 703.522 764.863, 704.793 762.009, 705.398 762.021 C 716.774 762.234, 763.560 767.182, 763.898 768.207 C 764.132 768.918, 766.070 772.819, 768.203 776.876 C 770.337 780.932, 771.951 784.363, 771.791 784.500 C 771.631 784.637, 768.025 786.431, 763.779 788.487 C 755.296 792.595, 753.669 793.973, 754.560 796.296 C 755.760 799.423, 758.280 798.930, 766.291 794 C 775.472 788.350, 776.091 788.217, 780.047 791.034 C 787.289 796.191, 803.100 801, 812.811 801 C 827.988 801, 842.152 794.698, 856.830 781.416 L 863.133 775.712 871.539 776.306 C 876.288 776.641, 880.192 776.499, 880.513 775.979 C 881.168 774.919, 878.919 774.368, 870.500 773.526 C 866.044 773.080, 862.019 771.652, 854.861 767.976 C 849.560 765.254, 842.923 762.533, 840.111 761.930 C 834.037 760.628, 834.123 761.128, 838.483 752.463 C 841.535 746.398, 843.044 741.213, 845.535 728.250 L 846.159 725 840.329 725.022 C 829.218 725.063, 812.233 729.849, 805.052 734.963 C 800.853 737.953, 800.560 737.686, 799.292 729.715 C 797.985 721.504, 794.371 711, 792.852 711 C 791.109 711, 780.450 719.706, 775.633 725.064 C 767.734 733.848, 763.817 743.167, 763.220 754.592 L 762.715 764.242 757.607 763.679 C 754.798 763.369, 743.725 762.393, 733 761.509 C 722.275 760.625, 711.700 759.688, 709.500 759.427 L 705.500 758.953 705.469 741.226 C 705.436 721.744, 705.258 720.351, 697.474 678.500 C 692.652 652.569, 689.509 632.882, 687.459 615.756 L 686.771 610.011 691.461 612.086 C 698.210 615.071, 705.490 615.581, 712.458 613.555 C 718.727 611.733, 718.726 610.969, 712.452 609.189 C 706.528 607.509, 700.028 602.828, 695.668 597.101 C 691.933 592.194, 691.859 591.935, 692.717 586.784 L 693.598 581.500 696.549 587.437 C 706.460 607.376, 729.408 614.306, 750.251 603.653 C 758.470 599.452, 758.553 598.354, 750.657 598.279 C 734.876 598.128, 720.077 589.077, 711.294 574.205 C 707.731 568.172, 707.177 569.798, 710.490 576.568 C 716.108 588.052, 728.882 597.506, 742.500 600.259 L 749.500 601.674 744 603.037 C 725.408 607.647, 709.619 601.664, 699.200 586.061 L 695.273 580.181 694.735 564.841 C 693.928 541.830, 689.522 530.300, 677.163 518.858 L 670.197 512.408 668.164 502.954 C 665.978 492.787, 664.009 474.427, 664.003 464.160 C 664.001 458.862, 664.444 457.202, 666.701 454.062 L 669.402 450.305 673.101 452.902 C 676.716 455.440, 676.816 455.685, 677.441 463.500 C 678.425 475.818, 679.997 484.759, 682.688 493.344 C 686.120 504.293, 686.418 502.453, 683.485 488.427 C 682.113 481.867, 680.698 471.872, 680.341 466.216 L 679.692 455.932 682.411 456.966 C 683.907 457.535, 686.451 458, 688.065 458 C 690.925 458, 691 458.130, 691 463.058 C 691 478.442, 698.099 505.421, 706.518 522.036 C 710.262 529.424, 710.472 527.679, 706.942 518.512 C 700.230 501.082, 694 473.943, 694 462.137 C 694 458.221, 694.158 458, 696.955 458 C 698.579 458, 702.967 456.845, 706.705 455.434 C 710.442 454.023, 714.223 452.638, 715.107 452.355 C 716.498 451.910, 716.787 453.362, 717.255 463.171 C 717.852 475.693, 719.860 486.623, 723.653 498 C 726.430 506.329, 734.332 522.671, 736.709 525 C 738.501 526.756, 738.592 526.995, 733.232 515.804 C 726.209 501.142, 721.794 482.585, 720.175 460.925 L 719.395 450.500 726.948 442.991 C 755.227 414.872, 747.103 372.096, 713.370 371.505 C 705.965 371.375, 704.772 371.062, 699.985 367.990 C 695.588 365.169, 685.434 354.233, 686.355 353.311 C 686.509 353.157, 690.353 354.599, 694.897 356.516 C 706.758 361.518, 707.442 360.838, 696.500 354.920 C 654.783 332.358, 620.349 284.454, 612.970 238.716 C 611.864 231.856, 611.939 230.726, 613.882 225.113 C 617.039 215.989, 616.555 213.324, 613.075 220.680 C 592.415 264.350, 542.218 283.954, 501.207 264.367 C 492.013 259.976, 481.463 250.244, 477.254 242.271 C 466.470 221.843, 473.017 193.358, 491.958 178.296 C 501.980 170.326, 527.871 160, 537.831 160 C 539.024 160, 540 159.522, 540 158.939 C 540 156.972, 519.325 160.770, 509.062 164.622 C 484.873 173.702, 470.025 191.674, 467.028 215.500 C 466.279 221.452, 465.737 222.799, 463.407 224.500 C 438.026 243.025, 416.114 270.183, 409.956 290.750 C 407.768 298.056, 406.663 295.775, 407.291 285.250 C 408.914 258.059, 423.183 232.589, 447.572 213.353 C 460.247 203.356, 461.309 202.363, 456.500 205.007 C 438.676 214.805, 419.414 235.454, 411.653 253.083 C 406.349 265.130, 405.512 269.585, 405.506 285.821 C 405.499 302.510, 404.592 302.994, 401.413 288.002 C 393.885 252.496, 411.559 213.753, 446.272 189.663 C 451.347 186.141, 457.004 182.493, 458.843 181.556 C 460.682 180.619, 461.950 179.616, 461.661 179.328 C 460.878 178.544, 445.039 188.106, 436.603 194.455 C 400.922 221.310, 386.631 266.833, 402.940 301.686 C 405.841 307.886, 406.008 308.837, 405.386 315.697 C 404.650 323.818, 404.059 324.828, 401.621 322.134 C 396.068 315.998, 390.876 293.309, 390.835 275 C 390.813 265.310, 390.547 262.347, 389.893 264.500 C 388.437 269.295, 388.770 290.775, 390.422 298.630 C 391.686 304.639, 393.794 311.070, 397.539 320.338 C 398.153 321.858, 397.867 322.117, 395.891 321.838 C 391.762 321.254, 382.520 299.101, 380.048 283.863 C 371.974 234.108, 406.287 187.243, 470.745 159.989 C 476.380 157.606, 480.830 155.497, 480.634 155.301 C 480.155 154.822, 464.998 159.643, 459.288 162.091 C 451.703 165.342, 453.223 163.464, 463.767 156.556 C 498.942 133.509, 534.894 122.730, 577 122.610 C 613.841 122.504, 644.916 132.243, 666.501 150.661 C 670.587 154.147, 674.059 157, 674.215 157 C 675.033 157.001, 673.970 141.429, 672.934 138.230 C 670.598 131.012, 667.048 125.212, 662.536 121.240 C 658.166 117.394, 654 115.312, 654 116.975 M 677.273 121.674 C 679.256 125.970, 679.489 128.017, 679.402 140.327 C 679.315 152.559, 679.488 154.097, 680.902 153.664 C 681.781 153.395, 685.199 152.192, 688.498 150.992 C 696.840 147.955, 706.912 147.345, 714.899 149.394 C 722.688 151.392, 723.614 150.897, 717.847 147.820 C 711.155 144.249, 694.803 144.420, 686.860 148.144 L 681.220 150.789 682.205 147.219 C 683.971 140.825, 682.820 128.063, 679.980 122.548 C 676.648 116.076, 674.346 115.333, 677.273 121.674 M 678.550 157.865 C 679.072 158.341, 682.745 159.949, 686.711 161.438 C 713.740 171.585, 740.952 198.147, 755.434 228.522 C 773.945 267.345, 778.227 309.928, 769.680 370.184 L 768.500 378.500 763.500 378.730 C 756.915 379.032, 751.990 379.920, 752.041 380.795 C 752.063 381.183, 755.213 383.449, 759.041 385.832 C 762.868 388.214, 765.999 390.689, 765.998 391.332 C 765.997 391.974, 765.004 399.700, 763.792 408.500 C 759.124 442.384, 760.818 472.226, 768.485 491.187 C 778.752 516.574, 805.363 532.437, 822.834 523.584 C 828.838 520.542, 828.968 520.780, 825.031 527.644 C 818.892 538.347, 810.374 542.502, 795.979 541.813 C 766.362 540.397, 749.967 515.272, 743.043 460.687 L 741.243 446.500 741.122 455.372 C 740.890 472.243, 745.801 496.907, 752.461 512.319 C 764.552 540.301, 785.087 556.994, 807.563 557.111 C 816.435 557.157, 816.349 557.850, 806.690 564.111 C 781.223 580.619, 748.801 572.883, 733.605 546.674 C 727.758 536.589, 727.895 539.620, 733.812 551.274 C 744.870 573.050, 761.704 585.730, 780 586.063 L 785.500 586.163 779.500 589.037 C 753.769 601.360, 724.926 588.195, 708.279 556.529 C 703.709 547.836, 702.814 548.240, 706.017 557.550 C 718.303 593.260, 764.516 609.156, 789.250 586.180 C 793.220 582.493, 792.736 582.007, 785.745 582.659 C 775.265 583.638, 759.778 578.832, 754.453 572.948 L 752.599 570.899 757.236 572.887 C 777.347 581.507, 801.786 576.154, 816.370 559.933 C 821.501 554.227, 822.448 551.339, 818.750 552.683 C 817.513 553.132, 812.450 553.488, 807.500 553.473 C 798.049 553.445, 794.339 552.314, 784.171 546.359 C 778.749 543.183, 779.180 542.635, 785.547 544.610 C 805.375 550.763, 825.257 541.078, 830.106 522.904 C 832.090 515.467, 830.926 514.307, 825.576 518.390 C 814.972 526.484, 800.140 522.960, 786.057 509 C 771.922 494.988, 764.910 470.672, 766.380 440.763 C 766.996 428.242, 770.581 397.085, 771.514 396.153 C 771.775 395.891, 774.175 397.956, 776.846 400.742 C 788.266 412.652, 802 413.064, 802 401.496 C 802 392.891, 790.265 382.229, 778.728 380.351 C 776.653 380.014, 774.752 379.408, 774.504 379.006 C 774.255 378.604, 774.936 372.250, 776.017 364.887 C 783.327 315.103, 779.924 274.523, 765.335 237.500 C 750.625 200.169, 719.894 168.759, 688.645 159.115 C 681.521 156.917, 676.878 156.342, 678.550 157.865 M 484.928 198.261 C 481.475 204.289, 481.355 220.359, 484.716 226.643 C 487.107 231.114, 494.446 238, 496.821 238 C 497.624 238, 496.231 236.195, 493.725 233.989 C 484.771 226.108, 481.693 211.777, 486.356 199.689 C 487.377 197.043, 488.019 194.686, 487.784 194.450 C 487.548 194.215, 486.263 195.930, 484.928 198.261 M 561 222.248 C 559.075 225.567, 555.048 230.469, 552.050 233.142 C 548.880 235.968, 547.266 238, 548.192 238 C 550.796 238, 559.366 229.581, 562.358 224.084 C 566.374 216.706, 565.163 215.070, 561 222.248 M 462.500 230.601 C 460.850 231.996, 456.206 235.920, 452.181 239.319 C 437.707 251.542, 421.029 273.329, 414.802 288.148 C 412.215 294.306, 411.578 297.670, 410.390 311.423 C 408.604 332.107, 407.985 335.033, 400.960 356 C 390.768 386.419, 390.921 404.019, 401.559 425 C 404.195 430.200, 407.523 434.646, 406.615 431.754 C 404.511 425.062, 402.836 411.529, 403.241 404.500 C 403.865 393.665, 406.570 388.077, 418.158 373.689 C 431.969 356.543, 438.860 341.937, 430.072 348.440 C 426.449 351.120, 424.817 351.130, 427.035 348.458 C 428.957 346.142, 433.956 343.769, 435.590 344.396 C 439.940 346.065, 433.727 359.124, 420.944 375.181 C 409.248 389.872, 406.758 395.109, 406.199 406.191 C 405.681 416.464, 409.065 436.724, 412.096 441.500 C 416.368 448.233, 416.539 448.348, 419.419 446.461 C 420.840 445.530, 422.903 445.003, 424.002 445.290 C 426.601 445.970, 426.744 437.033, 424.415 419.458 C 421.896 400.447, 423.826 390.714, 433.272 374.776 C 436.296 369.674, 439.799 362.415, 441.056 358.645 C 442.313 354.875, 444.287 350.385, 445.444 348.669 C 447.894 345.033, 454.096 340.561, 454.928 341.830 C 455.248 342.317, 458.791 342.343, 462.956 341.890 C 470.785 341.037, 472.121 341.279, 470.198 343.202 C 469.532 343.868, 465.345 344.473, 460.459 344.609 C 449.181 344.923, 449.037 345.050, 443.894 359.292 C 442.294 363.724, 438.991 370.759, 436.554 374.925 C 426.750 391.689, 425.078 399.514, 427.445 417.563 C 428.300 424.083, 429 433.805, 429 439.169 C 429 446.891, 429.332 449.190, 430.595 450.211 C 435.945 454.535, 437 456.050, 437 459.409 C 437 461.809, 437.786 463.695, 439.500 465.409 C 440.875 466.784, 442 468.577, 442 469.394 C 442 473.043, 468.257 486.723, 483.437 490.982 C 503.762 496.685, 535.228 499.601, 554.353 497.553 L 561.163 496.823 560.481 491.862 C 559.626 485.646, 561.278 481.219, 564.781 480.340 C 568.112 479.504, 569.840 480.679, 573.750 486.438 C 577.368 491.768, 578.092 490.346, 575.500 483 C 572.338 474.037, 574.691 466.113, 580.564 465.945 C 583.657 465.856, 586.627 461.058, 587.340 455 C 587.696 451.975, 589.570 444.812, 591.505 439.081 C 597.579 421.089, 597.271 414.984, 589.737 404.027 C 581.379 391.871, 581.519 392.228, 581.889 384.022 C 582.837 362.979, 582.492 361.814, 574.948 360.608 C 569.836 359.790, 557.341 353.014, 561 353.043 C 562.375 353.054, 565.750 354.169, 568.500 355.522 C 571.250 356.875, 574.266 357.986, 575.203 357.991 C 583.465 358.035, 587.494 367.227, 584.904 380.122 C 583.469 387.268, 584.755 391.982, 590.067 399.048 C 600.365 412.748, 601.137 420.895, 594.168 442.298 C 589.138 457.744, 589.063 459.015, 593.043 461.366 C 594.716 462.355, 596.604 463.995, 597.239 465.012 C 598.139 466.451, 598.812 466.636, 600.287 465.846 C 604.292 463.703, 608.857 467.308, 613.089 475.958 L 614.781 479.417 617.537 470.958 C 623.165 453.686, 621.458 438.039, 611.128 412.207 C 607.893 404.118, 604.907 395.925, 604.493 394 C 604.079 392.075, 602.448 386.576, 600.870 381.779 C 595.765 366.267, 597.405 360.767, 605.157 367.402 C 613.888 374.876, 620.487 368.959, 612.206 361.081 C 602.179 351.543, 581.858 346.555, 564.527 349.379 C 558.624 350.341, 553.553 350.886, 553.258 350.591 C 552.368 349.701, 557.941 343.055, 562.110 340.035 C 573.048 332.112, 592.250 328.691, 604.376 332.505 C 614.466 335.679, 613.204 336.574, 598.694 336.535 C 583.608 336.495, 576.639 338.346, 588.630 339.208 C 593.396 339.551, 598.350 340.857, 604.806 343.473 C 612.495 346.588, 614.973 347.161, 619.056 346.769 C 621.775 346.507, 624 346.608, 624 346.992 C 624 348.304, 620.503 350.843, 617.750 351.530 C 614.146 352.430, 614.201 352.620, 619.690 358.193 C 624.493 363.069, 624.877 365.176, 620.609 363.231 C 618.267 362.164, 618.221 362.230, 618.721 365.953 C 619.331 370.507, 616.574 374, 612.368 374 C 609.370 374, 603.470 370.662, 602.081 368.181 C 600.311 365.017, 599.887 367.805, 601.327 373.143 C 605.727 389.447, 609.477 400.802, 613.503 410.006 C 625.669 437.824, 627.010 454.681, 618.777 476.318 C 617.141 480.618, 616.026 484.360, 616.300 484.633 C 617.015 485.348, 628.465 479.422, 635.500 474.695 C 649.134 465.536, 664.601 450.945, 666.714 445.250 C 667.478 443.192, 667.662 443.240, 673.156 446.935 C 699.892 464.912, 741.558 436.128, 738.675 401.672 C 736.602 376.909, 712.582 368.955, 690.022 385.562 C 686.707 388.003, 683.602 390, 683.122 390 C 682.642 390, 679.788 385.163, 676.779 379.250 C 670.578 367.064, 666.603 363.423, 653.872 358.271 C 650.106 356.747, 647.019 355.180, 647.012 354.789 C 646.993 353.660, 656.670 351.089, 663.619 350.378 C 669.850 349.739, 669.958 349.678, 669.338 347.113 C 667.984 341.507, 666.815 339.908, 657.445 330.857 C 633.993 308.201, 616.531 276.752, 611.439 248 C 610.514 242.775, 609.583 237.892, 609.371 237.150 C 609.149 236.372, 607.142 238.282, 604.640 241.650 C 599.602 248.433, 589.476 258.271, 583 262.674 C 557.052 280.317, 523.691 282.456, 496.589 268.215 C 482.928 261.036, 469.608 244.476, 467.511 232.062 C 466.709 227.318, 466.465 227.247, 462.500 230.601 M 662.578 235.500 C 666.189 264.882, 685.646 302.239, 708.802 324.250 C 717.336 332.362, 717.408 331.388, 708.979 321.839 C 688.390 298.512, 675.405 274.962, 666.028 243.945 C 663.281 234.859, 662.162 232.121, 662.578 235.500 M 629 236.603 C 629 243.684, 641.481 276.144, 649.914 291 C 665.521 318.490, 692.389 344.031, 716.635 354.424 C 730.374 360.314, 732.461 359.622, 719.968 353.319 C 680.726 333.518, 650.120 296.433, 634.488 249.742 C 630.491 237.805, 629 234.235, 629 236.603 M 705.543 238.095 C 706.012 238.868, 708.388 242.591, 710.824 246.370 C 725.598 269.291, 736.024 300.860, 737.678 327.684 C 738.205 336.237, 738.529 337.872, 739.223 335.500 C 742.628 323.875, 734.289 286.482, 723.504 265.007 C 719.095 256.230, 707.815 238.622, 705.804 237.379 C 705.062 236.920, 704.975 237.159, 705.543 238.095 M 553 244.634 C 538.981 253.378, 518.316 254.743, 502.403 247.975 L 497.500 245.889 499.524 247.941 C 505.219 253.714, 527.148 256.548, 539.500 253.107 C 545.943 251.313, 555.198 246.483, 558.087 243.407 C 561.146 240.152, 559.582 240.529, 553 244.634 M 534 243.137 C 531.219 244.261, 511.624 244.466, 509.715 243.391 C 508.832 242.894, 508.795 243.028, 509.578 243.881 C 512.804 247.396, 531.238 247.120, 537.972 243.456 C 541.127 241.739, 538.068 241.493, 534 243.137 M 477.793 260.663 C 488.218 275.523, 508.324 283.623, 532.735 282.795 C 552.038 282.140, 551.299 280.500, 531.701 280.500 C 508.448 280.500, 496.183 276.176, 481.378 262.759 C 476.928 258.726, 476.092 258.237, 477.793 260.663 M 475.725 273.750 C 475.468 276.363, 474.940 279.625, 474.553 281 L 473.848 283.500 475.937 281.124 C 478.487 278.222, 479.424 274.824, 478.589 271.500 C 477.591 267.523, 476.233 268.590, 475.725 273.750 M 462.567 274.618 C 456.384 280.306, 448.852 284.137, 438.213 287.005 C 433.656 288.234, 428.931 290.098, 427.713 291.148 C 423.856 294.475, 452.613 293.459, 459.330 290.031 C 467.887 285.663, 473.043 278.291, 471.589 272.500 C 470.675 268.856, 468.198 269.438, 462.567 274.618 M 567.260 279.250 C 565.200 283.548, 564.986 285.235, 566.017 289.065 C 567.507 294.595, 569.076 295.020, 568.798 289.818 C 568.671 287.443, 568.929 283.587, 569.372 281.250 C 570.244 276.641, 569.051 275.512, 567.260 279.250 M 573.975 284.565 C 570.911 292.625, 579.706 304.127, 592.632 308.963 C 599.673 311.598, 622.003 315.122, 621.993 313.597 C 621.983 311.967, 616.268 308.375, 608.961 305.407 C 594.816 299.662, 588.184 295.044, 582.285 286.834 C 578.357 281.366, 575.489 280.583, 573.975 284.565 M 506.432 285.425 C 516.103 290.240, 539.369 291.490, 548 287.660 C 551.461 286.124, 551.423 286.114, 544.500 286.803 C 533.761 287.872, 520.198 287.362, 513 285.619 C 501.848 282.918, 501.367 282.904, 506.432 285.425 M 456 308.453 C 456 308.702, 457.688 309.694, 459.750 310.657 C 461.813 311.620, 466.313 315.200, 469.750 318.611 C 473.188 322.023, 476 324.384, 476 323.858 C 476 322.005, 473.147 317.471, 470.339 314.860 C 465.911 310.742, 456 306.314, 456 308.453 M 431.069 312.870 C 429.989 313.604, 430.601 314.003, 433.569 314.503 C 440.931 315.740, 447.493 317.956, 451.500 320.557 C 453.700 321.985, 454.647 322.882, 453.604 322.552 C 449.184 321.150, 438.901 320.238, 432.927 320.718 C 428.279 321.091, 425.414 320.782, 422.594 319.604 C 417.240 317.366, 416.777 318.491, 421.333 322.667 C 423.438 324.595, 425.011 326.312, 424.830 326.482 C 424.648 326.651, 422.839 327.478, 420.810 328.319 C 416.672 330.033, 412.450 337.370, 413.694 340.683 C 415.488 345.462, 418.987 345.969, 426.875 342.592 C 429.969 341.267, 433.400 339.832, 434.500 339.402 C 436.306 338.695, 436.240 338.583, 433.823 338.250 C 432.351 338.047, 428.900 338.848, 426.153 340.029 C 420.409 342.500, 417.623 342.330, 417.212 339.483 C 416.411 333.921, 423.714 331.768, 444 331.585 C 453.377 331.501, 453.626 331.561, 463.204 336.250 C 474.854 341.952, 475.379 342.022, 474.459 337.750 C 471.687 324.876, 455.779 313.054, 440.185 312.280 C 435.958 312.070, 431.856 312.336, 431.069 312.870 M 330.011 317.960 C 319.818 321.478, 315.025 330.105, 319.912 336.139 C 323.462 340.523, 330.507 339.534, 343.787 332.786 C 349.972 329.643, 357.725 326.516, 361.016 325.836 C 368.063 324.380, 368.337 323.723, 363.030 321.016 C 353.027 315.912, 339.555 314.666, 330.011 317.960 M 333.821 320.331 C 329.195 321.640, 322 326.289, 322 327.969 C 322 328.446, 321.749 329.490, 321.442 330.289 C 321.136 331.088, 321.618 332.475, 322.514 333.371 C 325.353 336.211, 330.944 335.341, 340.850 330.520 C 345.912 328.056, 352.630 325.277, 355.777 324.345 L 361.500 322.650 357 321.303 C 350.198 319.267, 339.208 318.806, 333.821 320.331 M 573.081 323.588 C 566.964 325.233, 562.586 327.683, 559.062 331.434 C 555.506 335.219, 557.127 335.521, 562.293 332.035 C 567.182 328.735, 578.810 324, 582.023 324 C 583.110 324, 584 323.550, 584 323 C 584 321.616, 579.520 321.857, 573.081 323.588 M 392.469 327.087 C 376.774 331.524, 372.216 360.637, 384.274 379.428 L 387.491 384.441 388.795 377.970 C 389.512 374.412, 391.662 366.943, 393.572 361.374 C 396.261 353.535, 396.834 350.693, 396.109 348.786 C 395.102 346.138, 389.568 341, 387.723 341 C 386.905 341, 386.910 340.690, 387.744 339.856 C 389.154 338.446, 393.976 340.211, 396.583 343.091 C 399.163 345.942, 399.802 345.501, 401.430 339.750 C 404.275 329.696, 404.312 329.234, 402.338 328.220 C 399.193 326.605, 395.623 326.195, 392.469 327.087 M 673 346.929 C 673 349.215, 675.537 352, 677.621 352 C 678.434 352, 680.457 352.702, 682.117 353.561 C 685.049 355.077, 685.104 355.063, 684.053 353.098 C 683.075 351.271, 674.957 345, 673.570 345 C 673.256 345, 673 345.868, 673 346.929 M 490.400 350.400 C 486.314 354.486, 485.858 359.415, 489.082 364.632 C 491.541 368.612, 493.377 369.121, 491.975 365.435 C 487.774 354.385, 496.895 347.611, 507.528 353.884 C 511.515 356.236, 513.069 355.963, 511.401 353.202 C 509.791 350.536, 501.973 347, 497.688 347 C 494.600 347, 493.101 347.699, 490.400 350.400 M 656.500 353.898 C 653.165 354.513, 652.833 354.772, 654.500 355.453 C 660.315 357.827, 665.150 360.334, 671 364.007 C 681.497 370.597, 689.743 368.362, 684.493 360.349 C 681.054 355.101, 667.239 351.917, 656.500 353.898 M 328.124 364.578 C 307.553 370.110, 292.632 386.906, 299.984 396.253 C 306.019 403.925, 313.879 399.624, 322.286 384.052 C 325.091 378.855, 329.324 372.224, 331.693 369.316 C 337.572 362.098, 337.533 362.047, 328.124 364.578 M 689.600 366.458 C 689.240 367.890, 687.620 369.868, 686 370.854 L 683.053 372.646 686.823 376.327 C 689.095 378.546, 690.971 379.655, 691.546 379.119 C 692.071 378.631, 694.678 377.091, 697.339 375.697 L 702.178 373.163 699.339 371.401 C 697.778 370.432, 695.095 368.338, 693.377 366.747 L 690.254 363.853 689.600 366.458 M 323.166 369.022 C 307.595 376.227, 297.570 389.170, 303.200 394.800 C 306.940 398.540, 313.088 394.167, 318.458 383.948 C 320.512 380.040, 324.179 374.403, 326.608 371.421 C 331.701 365.168, 331.619 365.111, 323.166 369.022 M 677 371.742 C 677 373.367, 683.255 386, 684.060 386 C 684.406 386, 685.523 385.080, 686.540 383.956 C 688.362 381.942, 688.305 381.827, 682.695 376.217 C 679.563 373.084, 677 371.071, 677 371.742 M 639.954 381.425 C 643.242 386.745, 645.428 391.580, 647.900 399 C 652.095 411.591, 659.630 415.794, 665.500 408.818 C 672.364 400.660, 657.104 381.273, 641.580 378.431 L 637.660 377.714 639.954 381.425 M 642 380.397 C 642 380.680, 643.084 382.509, 644.409 384.461 C 645.734 386.413, 648.256 391.496, 650.014 395.755 C 653.800 404.929, 656.331 408, 660.107 408 C 665.186 408, 665.132 401.244, 659.996 394.153 C 657.035 390.065, 642 378.572, 642 380.397 M 759 381.845 C 759 382.452, 760.462 383.691, 762.250 384.599 C 766.269 386.639, 773.064 392.033, 778.989 397.886 C 787.030 405.829, 793.698 408.159, 797.501 404.356 C 802.336 399.521, 792.493 388.279, 779.802 384.144 C 772.195 381.665, 759 380.207, 759 381.845 M 464.336 384.424 C 450.856 390.700, 442 408.022, 442 428.111 C 442 442.724, 445.690 451.865, 454.026 457.904 C 460.970 462.934, 466.812 463.646, 479.608 461.019 C 498.256 457.190, 502.823 457.933, 522.649 468.016 C 538.409 476.030, 539.277 476.342, 545.546 476.247 C 581.656 475.700, 586.018 416.065, 551.575 393.804 C 540.720 386.788, 534.643 385.613, 513.460 386.435 C 495.617 387.127, 494.986 387.083, 487.039 384.572 C 476.812 381.341, 471.038 381.304, 464.336 384.424 M 469.340 386.998 C 466.381 388.191, 468.005 395.156, 471.888 397.920 C 484.381 406.816, 520.717 409.487, 546.277 403.388 C 553.903 401.569, 553.937 400.911, 546.627 396.627 C 537.036 391.006, 530.651 389.683, 517.500 390.590 C 499.027 391.865, 494.316 391.575, 485.812 388.640 C 477.984 385.938, 473.160 385.457, 469.340 386.998 M 709.844 395.394 C 699.767 398.993, 691.037 406.803, 686.306 416.449 C 683.342 422.492, 683.949 425.163, 687.255 420.625 C 689.152 418.020, 694.367 415, 696.968 415 C 698.923 415, 702 419.005, 702 421.550 C 702 425.614, 699.266 429.811, 695.232 431.941 C 692.532 433.367, 692.053 433.923, 693.500 433.952 C 694.600 433.974, 696.967 433.098, 698.759 432.005 C 708.150 426.280, 707.934 414.336, 698.407 412.549 C 694.241 411.767, 694.549 411.135, 701.656 405.885 C 709.212 400.303, 715.264 397.802, 721.109 397.848 C 726.510 397.889, 727.344 396.933, 723.453 395.161 C 720.146 393.654, 714.441 393.751, 709.844 395.394 M 387.662 413.445 C 381.584 444.229, 359.802 470.847, 339.156 472.720 C 331.519 473.412, 327.093 472.552, 322.601 469.504 C 318.440 466.680, 318.347 466.805, 320.903 471.790 C 327.925 485.484, 346.832 487.882, 364.315 477.297 C 373.647 471.647, 385.452 454.103, 392.005 436.148 C 395.562 426.402, 395.646 424.708, 392.910 417.787 C 391.761 414.879, 390.507 410.700, 390.124 408.500 C 389.454 404.653, 389.360 404.841, 387.662 413.445 M 776.313 428.750 C 776.613 429.712, 777.774 432.975, 778.894 436 C 780.013 439.025, 781.891 444.854, 783.067 448.953 C 785.524 457.515, 789.975 463, 794.466 463 C 806.961 463, 803.876 444.680, 789.588 434.027 C 780.917 427.561, 775.238 425.304, 776.313 428.750 M 395 436.226 C 389.607 453.981, 373.086 478.167, 359.671 487.947 C 349.145 495.621, 341.359 498.387, 330.211 498.412 C 319.706 498.435, 319.728 499.060, 330.437 504.647 C 347.946 513.783, 375.162 502.274, 390.037 479.443 C 394.643 472.373, 396.346 471.441, 393.126 477.752 C 390.793 482.326, 385.466 489.545, 379.606 496.075 C 377.348 498.591, 373.503 503.225, 371.062 506.373 C 364.054 515.411, 347.530 525, 338.962 525 C 334.529 525, 335.372 526.484, 341.239 529.008 C 363.191 538.451, 387.410 529.046, 403.940 504.659 L 407.221 499.819 403.481 491.159 C 396.730 475.528, 397.860 460.593, 406.484 451.448 L 409.819 447.913 403.503 438.467 L 397.188 429.022 395 436.226 M 780.810 433.687 C 781.863 435.784, 783.748 440.650, 784.998 444.500 C 789.079 457.062, 792.603 461.353, 796.933 459.036 C 803.136 455.716, 792.738 437.282, 781.171 431.091 L 778.895 429.873 780.810 433.687 M 490.724 438.361 C 484.497 440.988, 483.266 441.780, 478.162 446.448 C 474.874 449.455, 470.421 456.754, 471.323 457.657 C 471.578 457.911, 476.823 457.107, 482.979 455.871 C 499.004 452.652, 503.735 453.560, 523.909 463.731 C 542.163 472.934, 547.618 473.758, 556.364 468.633 C 563.824 464.261, 564.858 461.895, 561.515 456.843 C 550.047 439.514, 531.864 433.789, 514.953 442.183 C 506.400 446.429, 504.839 446.211, 510.381 441.547 C 515.197 437.493, 514.337 436.777, 504.060 436.286 C 497.768 435.986, 495.531 436.334, 490.724 438.361 M 418.072 452.194 C 411.841 458.767, 408.866 466.671, 408.125 478.617 C 407.173 493.984, 409.525 499.834, 424.202 518.609 C 428.656 524.306, 430.659 527.602, 429.778 527.784 C 428.009 528.150, 410.657 560.678, 405.825 572.687 C 391.098 609.281, 407.276 637.531, 437.772 628.475 C 447.375 625.623, 465.996 611.245, 466.004 606.675 C 466.006 605.479, 466.934 598.903, 468.066 592.062 L 470.124 579.623 467.312 574.141 C 465.765 571.126, 464.046 568.509, 463.490 568.326 C 462.933 568.143, 461.702 572.225, 460.744 577.435 C 459.161 586.039, 454.321 601.345, 452.036 604.971 C 450.297 607.731, 449.745 605.093, 451.266 601.291 C 453.734 595.122, 456.668 580.067, 460.477 554.024 C 462.446 540.563, 464.719 527.318, 465.528 524.593 C 467.797 516.954, 467.420 508.379, 464.500 501.192 C 463.125 497.808, 462 493.719, 462 492.105 C 462 489.655, 461.237 488.745, 457.374 486.585 C 451.432 483.264, 451.371 483.276, 450.625 487.943 C 449.806 493.064, 448.752 493.581, 443.959 491.210 C 435.686 487.116, 440.288 494.171, 450.114 500.644 C 460.343 507.383, 464.720 514.148, 463.335 521.076 C 462.586 524.819, 461.423 524.037, 460.653 519.272 C 459.724 513.528, 455.697 508.531, 447.582 503.055 C 436.533 495.600, 434.105 489.327, 437.606 477.284 C 438.828 473.081, 438.952 471.191, 438.127 469.380 C 436.654 466.146, 435.666 466.369, 432.053 470.750 C 427.593 476.156, 425.006 483.840, 424.968 491.788 C 424.939 497.908, 424.807 498.329, 423.468 496.559 C 420.046 492.034, 422.304 480.200, 428.553 469.912 C 435.682 458.177, 432.590 449.506, 424.733 459.195 C 419.249 465.956, 416.997 471.407, 415.593 481.313 C 414.058 492.140, 412.483 490.953, 413.217 479.523 C 413.756 471.114, 416.722 464.021, 422.540 457.224 C 428.591 450.155, 424.437 445.480, 418.072 452.194 M 409.223 453.262 C 403.662 459.182, 400.739 471.933, 403.094 480 L 404.407 484.500 405.041 476 C 405.679 467.433, 407.863 460.810, 411.934 455.093 C 414.971 450.828, 412.854 449.398, 409.223 453.262 M 656.558 464.941 L 651.691 469.883 652.288 482.191 C 653.243 501.853, 654.168 504.551, 661.162 508.082 C 664.342 509.687, 667.110 511, 667.315 511 C 667.520 511, 666.642 507.086, 665.364 502.302 C 662.470 491.464, 660.578 474.495, 661.344 466.250 C 661.663 462.813, 661.812 460, 661.675 460 C 661.537 460, 659.235 462.224, 656.558 464.941 M 586.461 466.124 C 585.998 467.580, 587.133 471.081, 590.066 477.254 C 594.462 486.505, 596.318 497.614, 594.606 504.435 C 593.349 509.443, 592 506.943, 592 499.605 C 592 490.857, 589.406 481.603, 585.014 474.681 C 579.273 465.633, 576.386 470.609, 579.481 484.216 C 580.699 489.573, 580.928 493.626, 580.410 500.688 C 579.639 511.179, 578.455 513.433, 577.477 506.269 C 575.992 495.395, 569.285 482.909, 565.673 484.295 C 563.559 485.106, 563.497 489.770, 565.511 496.409 C 568.520 506.330, 567.164 512.139, 559.585 521.792 C 551.418 532.193, 549.727 541.427, 554.384 550.186 C 555.696 552.653, 557.079 556.657, 557.458 559.085 C 566.111 614.460, 578.142 642.207, 598.219 653.094 C 614.991 662.189, 635.369 653.613, 655.024 629.190 C 664.627 617.258, 665.686 615.086, 663.966 610.861 C 661.149 603.940, 645.390 589.717, 634.968 584.689 C 626.096 580.409, 618 577.913, 618 579.459 C 618 579.833, 619.290 582.021, 620.867 584.320 C 626.816 592.993, 632.861 607.923, 632.985 614.250 C 633.039 616.987, 631.030 613.868, 628.542 607.351 C 626.936 603.144, 623.168 595.832, 620.169 591.101 C 605.089 567.312, 602.411 562.858, 598.438 554.958 C 591.993 542.141, 591.955 543.024, 599.459 530.998 C 611.624 511.505, 615.595 497.773, 612.528 485.801 C 610.358 477.331, 605.928 469.597, 602.998 469.162 C 600.445 468.783, 600.351 468.111, 604.437 479.500 C 607.252 487.346, 607.782 496.903, 605.768 503.500 C 604.606 507.306, 604.520 506.937, 603.998 495.898 C 603.487 485.078, 603.201 483.791, 599.750 476.810 C 594.173 465.525, 588.180 460.706, 586.461 466.124 M 489.750 472.109 C 485.021 473.928, 486.718 474.718, 494.306 474.231 C 500.446 473.837, 502.298 474.112, 505.903 475.951 C 511.402 478.756, 512.172 477.996, 507.468 474.408 C 503.376 471.287, 494.785 470.172, 489.750 472.109 M 646.393 473.436 C 644.062 475.070, 644.035 477.349, 646.155 493.818 C 647.123 501.335, 647.469 502.228, 649.752 503.096 C 652.973 504.321, 653.240 503.987, 651.966 500.331 C 651.392 498.685, 650.377 491.627, 649.711 484.648 C 648.507 472.037, 648.487 471.968, 646.393 473.436 M 440.231 480.986 C 439.245 484.871, 439.307 485.027, 442.662 487.100 C 446.669 489.576, 446.616 489.601, 447.498 484.880 C 448.103 481.640, 447.860 481.036, 445.183 479.130 C 441.310 476.372, 441.412 476.334, 440.231 480.986 M 638.126 479.194 C 634.766 481.344, 634.755 481.378, 635.376 487.323 C 635.719 490.607, 636 494.506, 636 495.988 C 636 498.251, 636.621 498.869, 639.866 499.842 C 641.992 500.479, 643.969 501, 644.260 501 C 644.550 501, 644.350 499.087, 643.814 496.750 C 643.279 494.413, 642.764 489.015, 642.671 484.755 C 642.478 476.028, 642.682 476.277, 638.126 479.194 M 624.750 487.119 C 617.328 490.859, 616.140 492.136, 617.765 494.626 C 618.439 495.658, 632.892 498.656, 633.315 497.851 C 633.417 497.658, 633.275 494.286, 633 490.357 L 632.500 483.214 624.750 487.119 M 466 492.322 C 466 494.805, 469.187 503.003, 469.965 502.522 C 470.392 502.258, 470.993 500.795, 471.301 499.271 C 471.608 497.747, 472.134 495.793, 472.469 494.928 C 472.879 493.868, 472.235 492.972, 470.492 492.178 C 467.146 490.654, 466 490.690, 466 492.322 M 474.608 495.250 C 474.427 495.938, 473.539 498.750, 472.634 501.500 C 471.730 504.250, 470.992 507.967, 470.995 509.759 L 471 513.018 474.514 510.759 C 477.154 509.061, 478.396 507.275, 479.514 503.568 C 481.488 497.019, 481.424 496.514, 478.453 495.161 C 475.266 493.708, 475.013 493.714, 474.608 495.250 M 482.307 501.500 C 481.741 503.975, 481.328 505.990, 481.389 505.979 C 481.450 505.967, 485.186 504.710, 489.692 503.185 L 497.884 500.413 491.192 498.698 C 487.511 497.755, 484.238 496.987, 483.918 496.992 C 483.599 496.996, 482.874 499.025, 482.307 501.500 M 615.574 506.363 C 613.188 515.177, 609.912 521.952, 602.801 532.771 C 599.450 537.870, 596.988 542.321, 597.330 542.663 C 599.944 545.278, 617.274 516.533, 620.815 503.708 C 621.778 500.219, 621.705 500, 619.568 500 C 617.625 500, 617.048 500.919, 615.574 506.363 M 624.538 502.325 C 624.349 502.971, 623.635 505.750, 622.950 508.500 C 620.727 517.424, 611.259 534.650, 604.756 541.602 L 598.806 547.962 602.361 554.318 C 604.316 557.814, 606.763 561.721, 607.799 563 L 609.683 565.326 612.535 559.693 C 616.192 552.471, 624.150 540.783, 625.781 540.240 C 626.473 540.009, 624.128 545.620, 620.571 552.709 C 611.955 569.878, 611.814 570.289, 613.628 572.879 C 614.646 574.332, 616.182 575, 618.509 575 C 624.261 575, 638.827 580.529, 646.015 585.440 C 657.673 593.405, 668.040 606.012, 671.865 616.872 L 673.732 622.174 676.288 617.600 C 684.301 603.263, 689.014 586.186, 689.701 568.994 C 690.835 540.618, 682.042 524.262, 659.500 512.820 C 646.112 506.025, 625.281 499.772, 624.538 502.325 M 501.416 502.970 C 495.615 505.316, 492.933 534.701, 497.706 543.624 C 504.543 556.406, 515.764 555.888, 529.341 542.163 L 535.181 536.259 532.247 535.236 C 523.644 532.237, 518.291 523.589, 517.331 511.139 C 516.727 503.300, 516.679 503.186, 513.734 502.597 C 509.651 501.780, 503.929 501.953, 501.416 502.970 M 555 505.016 C 547.219 509.151, 535.055 512.898, 527.740 513.414 C 520.691 513.912, 520.319 514.785, 524.045 522.089 C 527.387 528.639, 532.278 532, 538.470 532 C 545.884 532, 548.583 530.738, 550.907 526.182 C 552.001 524.038, 555.165 519.633, 557.939 516.392 C 562.274 511.327, 562.983 509.903, 562.991 506.250 C 563.002 501.168, 562.414 501.077, 555 505.016 M 486.781 508.399 C 476.890 512.467, 471.179 516.704, 470.010 520.840 C 468.524 526.097, 466.258 538.854, 464.652 551 L 463.263 561.500 465.882 564.524 C 467.322 566.187, 469.199 568.616, 470.054 569.921 C 471.557 572.218, 471.716 571.888, 474.878 559.898 C 480.797 537.457, 482.727 536.475, 478.580 558.015 C 475.646 573.250, 471.695 600.471, 469.001 624 C 467.899 633.625, 466.740 643.145, 466.427 645.155 C 465.885 648.628, 466.017 648.845, 469.096 649.521 C 472.977 650.374, 471.592 651.430, 465.215 652.481 C 461.149 653.151, 455 657.129, 455 659.089 C 455 659.590, 456.548 660, 458.441 660 C 460.334 660, 462.160 660.450, 462.500 661 C 462.865 661.590, 461.753 662, 459.788 662 C 455.861 662, 417.639 671.991, 409.872 675.047 C 400.776 678.627, 391.148 684.089, 386.723 688.181 L 382.500 692.086 386 690.293 C 388.608 688.957, 391.795 688.503, 398.500 688.513 C 409.122 688.527, 414.081 690.489, 431.039 701.380 C 450.424 713.830, 461.323 715.431, 484 709.156 C 519.492 699.335, 532.579 701.107, 550.536 718.164 C 562.857 729.868, 570.446 743.458, 579.626 770.258 C 585.713 788.031, 588.511 794.312, 596.879 808.988 C 604.006 821.489, 605.632 825.914, 604.764 830.452 L 604.301 832.877 610.400 829.819 C 613.755 828.138, 621.356 824.066, 627.292 820.770 C 634.293 816.884, 641.655 813.743, 648.249 811.832 C 662.824 807.608, 673.024 801.997, 681.550 793.514 C 702.697 772.475, 705.344 747.431, 693.125 684 C 689.152 663.371, 686.024 643.999, 683.681 625.500 L 682.415 615.500 680.299 619.500 C 674.271 630.896, 669.150 635, 660.958 635 C 657.259 635, 656.357 635.543, 651.839 640.486 C 628.911 665.573, 602.630 668.325, 583.302 647.664 C 570.923 634.431, 561.366 609.778, 556.141 577.602 C 555.097 571.171, 554.075 565.785, 553.871 565.632 C 553.667 565.480, 551.328 564.111, 548.672 562.590 C 543.438 559.591, 538.653 553.140, 536.937 546.765 C 535.719 542.244, 535.031 542.114, 532.250 545.876 C 528.981 550.297, 518.572 556.792, 513.546 557.545 C 496.549 560.094, 485.821 538.661, 492 514.500 C 493.100 510.199, 494 506.527, 494 506.340 C 494 505.639, 492.342 506.113, 486.781 508.399 M 652 514.935 C 647.327 516.362, 640.921 520.076, 636.955 523.660 C 631.250 528.814, 632.091 529.751, 638.250 525.102 C 643.462 521.167, 653.353 516.029, 655.750 516.010 C 656.438 516.004, 657 515.550, 657 515 C 657 513.858, 655.587 513.840, 652 514.935 M 542.500 535.875 C 540.412 536.319, 539.404 537.188, 539.183 538.733 C 538.661 542.399, 543.931 552.704, 548.392 556.741 C 552.405 560.374, 552.508 560.405, 552.835 558.114 C 553.019 556.824, 551.934 553.017, 550.425 549.654 C 548.916 546.291, 547.640 541.618, 547.590 539.270 C 547.541 536.922, 547.050 535.054, 546.500 535.119 C 545.950 535.184, 544.150 535.524, 542.500 535.875 M 248.252 592.536 C 242.952 596.248, 243.347 606.155, 248.874 608.164 C 251.204 609.011, 251.218 608.981, 249.624 606.549 C 246.254 601.406, 249.192 594.163, 254.819 593.739 C 256.398 593.620, 256.640 593.271, 255.827 592.291 C 254.382 590.550, 250.928 590.662, 248.252 592.536 M 688.773 600.031 C 687.198 604.956, 687.210 605.091, 689.332 606.479 C 693.107 608.949, 698.337 610.788, 703.500 611.463 C 709.001 612.182, 709.134 612.471, 701.349 606.796 C 699.617 605.533, 696.692 602.384, 694.849 599.797 C 690.679 593.940, 690.721 593.939, 688.773 600.031 M 252.035 597.934 C 249.352 602.948, 250.524 604.673, 258.750 607.811 C 270.932 612.459, 270.484 612.415, 270.607 608.972 C 270.666 607.323, 271.483 605.124, 272.422 604.086 C 274.481 601.811, 274.574 601.873, 264.198 598.611 C 254.264 595.487, 253.372 595.437, 252.035 597.934 M 274 608.412 C 274 610.606, 275.099 611.192, 286.180 614.899 C 292.879 617.139, 298.495 618.839, 298.659 618.675 C 298.823 618.511, 299.079 617.293, 299.228 615.970 C 299.478 613.759, 298.646 613.262, 289 609.855 C 276.158 605.320, 274 605.112, 274 608.412 M 497.608 611 C 498.370 618.193, 502.030 629.115, 506.974 638.949 C 512.635 650.208, 513.584 649.769, 508.509 638.238 C 506.147 632.871, 502.997 624.435, 501.509 619.490 C 497.332 605.612, 496.949 604.780, 497.608 611 M 305.313 613.747 C 303.414 615.016, 302.186 619.314, 303.056 621.644 C 303.655 623.246, 306.210 624.571, 313.181 626.894 C 324.463 630.652, 323.992 630.637, 324.035 627.250 C 324.055 625.737, 324.686 623.389, 325.438 622.030 C 326.802 619.567, 326.785 619.554, 318.653 616.706 C 308.428 613.125, 306.787 612.761, 305.313 613.747 M 330.589 622.077 C 326.028 627.497, 327.908 637, 333.541 637 C 337.187 637, 341.963 632.167, 342.662 627.769 C 343.991 619.413, 336 615.646, 330.589 622.077 M 286.123 625.881 C 286.222 630.237, 285.608 633.176, 283.757 637.220 C 281.352 642.473, 281.328 642.724, 283.115 643.840 C 285.744 645.482, 285.710 645.505, 288.401 640.195 C 292.596 631.917, 292.971 625.114, 289.427 621.570 C 286.718 618.861, 285.986 619.816, 286.123 625.881 M 512 621.373 C 512 627.066, 528.145 648.008, 539.304 656.789 C 549.491 664.806, 549.077 663.955, 536.946 651.942 C 529.478 644.547, 523.163 637.140, 519.089 631 C 512.194 620.607, 512 620.343, 512 621.373 M 274.459 645.067 C 274.096 645.653, 273.957 646.242, 274.150 646.375 C 274.342 646.508, 276.825 648.251, 279.667 650.247 C 283.389 652.862, 284.975 653.507, 285.341 652.553 C 286.763 648.849, 276.489 641.781, 274.459 645.067 M 269.709 652.213 C 268.362 654.021, 263.577 660.675, 259.076 667 L 250.892 678.500 253.430 680.525 C 254.827 681.639, 257.287 683.329, 258.898 684.280 L 261.826 686.010 271.558 672.255 C 276.910 664.690, 281.337 657.871, 281.395 657.102 C 281.453 656.333, 279.398 654.179, 276.829 652.315 L 272.158 648.926 269.709 652.213 M 483 652.887 C 483 653.396, 484.913 654.493, 487.250 655.325 C 489.587 656.157, 497.693 659.385, 505.262 662.498 C 512.830 665.612, 519.524 667.992, 520.137 667.788 C 521.370 667.377, 497.541 655.895, 492 654.231 C 485.752 652.354, 483 651.943, 483 652.887 M 475 664.858 C 475 666.029, 492.929 674.332, 502.063 677.391 C 515.237 681.803, 522.259 682.417, 543.083 680.979 C 564.211 679.520, 573.794 680.275, 588.694 684.572 C 603.969 688.978, 627.421 701.524, 642.296 713.249 C 649.172 718.669, 647.280 715.335, 639.851 708.941 C 627.757 698.532, 615.488 691.203, 595 682.148 C 593.013 681.270, 594.039 681.162, 600 681.621 C 614.823 682.762, 632.068 687.255, 645.750 693.540 C 653.924 697.294, 654.949 697.255, 648.875 693.421 C 635.332 684.872, 617.352 679.906, 598.500 679.510 C 591.350 679.359, 581.450 678.510, 576.500 677.622 C 565.975 675.734, 555.922 675.589, 538.550 677.073 C 518.314 678.803, 508.242 676.953, 481.750 666.644 C 478.038 665.199, 475 664.395, 475 664.858 M 300.200 669.200 C 295.965 673.435, 299.887 676.865, 322.166 688.406 C 350.282 702.971, 364.448 703.900, 368.123 691.418 C 368.967 688.553, 366.686 683.456, 363.831 681.829 C 362.304 680.958, 356.259 680.328, 346.308 680 L 331.117 679.500 319.808 673.738 C 308.373 667.911, 302.783 666.617, 300.200 669.200 M 273.617 674.762 L 270.059 679.500 273.780 682.493 C 285.729 692.106, 297.870 706.459, 303.554 717.695 L 306.337 723.195 309.631 719.347 C 311.443 717.231, 312.942 714.782, 312.962 713.904 C 313.036 710.759, 298.452 690.348, 289.566 681.160 C 277.643 668.833, 277.970 668.964, 273.617 674.762 M 248 682.456 C 248 682.706, 249.162 684.619, 250.583 686.706 C 256.245 695.025, 250.742 705.354, 224.324 735.999 C 219.994 741.022, 217.509 744.655, 218.248 744.880 C 218.937 745.090, 220.196 745.864, 221.047 746.601 C 222.713 748.045, 221.832 748.976, 244.293 722.043 C 255 709.204, 259.006 701.718, 258.985 694.590 C 258.967 688.605, 258.729 688.173, 253.518 684.674 C 249.741 682.138, 248 681.438, 248 682.456 M 265.434 686.676 C 263.408 689.332, 262.685 691.344, 262.829 693.926 C 262.939 695.892, 262.630 698.872, 262.142 700.548 C 261.434 702.982, 261.655 704.091, 263.238 706.045 C 272.490 717.471, 276.854 741.025, 272.461 755.818 C 270.809 761.381, 269.359 762.160, 266.512 759.013 C 264.750 757.067, 264.668 757.163, 262.444 763.763 C 261.196 767.468, 260.248 770.574, 260.337 770.665 C 260.427 770.756, 265.450 770.239, 271.500 769.516 C 277.550 768.793, 285.875 767.904, 290 767.539 L 297.500 766.876 297.569 755.188 C 297.638 743.577, 298.529 739.232, 302.664 730.354 C 304.059 727.358, 303.961 726.872, 300.620 720.239 C 295.713 710.494, 286.284 698.334, 277.207 690.045 C 272.968 686.174, 269.216 683.005, 268.869 683.003 C 268.521 683.002, 266.976 684.654, 265.434 686.676 M 240.667 685.667 C 239.409 686.924, 240.004 687.759, 243.056 689.023 C 246.782 690.566, 249.150 689.090, 247.035 686.542 C 245.737 684.978, 241.885 684.448, 240.667 685.667 M 214.886 689.708 C 217.977 693.555, 218.433 693.762, 224.813 694.224 C 229.875 694.591, 233.254 695.594, 238.717 698.350 C 245.631 701.839, 245.977 701.911, 246.967 700.062 C 248.708 696.809, 248.150 695.594, 243.766 693.090 C 237.611 689.573, 228.601 687.052, 219.573 686.319 L 211.646 685.676 214.886 689.708 M 524 687.956 C 519.325 688.955, 507.400 692.101, 497.500 694.948 C 484.115 698.797, 476.936 700.315, 469.500 700.869 C 460.030 701.575, 459.754 701.657, 464.286 702.426 C 471.589 703.665, 485.967 701.427, 506.313 695.886 C 524.596 690.906, 539.811 688.017, 547.809 688.006 C 550.426 688.002, 551.875 687.607, 551.500 687 C 550.501 685.383, 533.235 685.984, 524 687.956 M 310.562 693.478 C 308.721 698.297, 308.961 700.109, 311.954 703.993 C 313.798 706.386, 313.904 706.406, 314.562 704.493 C 314.940 703.397, 316.263 700.202, 317.503 697.394 L 319.758 692.288 316.974 690.644 C 312.971 688.279, 312.461 688.504, 310.562 693.478 M 390.546 697.135 C 384.120 704.251, 378.289 713.451, 371.149 727.742 C 364.863 740.324, 356 760.273, 356 761.838 C 356 763.904, 361.608 768.799, 363.056 767.996 C 364.573 767.156, 368.067 766.703, 371.597 766.889 C 374.440 767.039, 377.795 770.114, 379.053 773.723 C 380.063 776.619, 380.194 776.670, 384.016 775.650 C 390.813 773.836, 394.576 776.541, 397.375 785.250 C 397.684 786.212, 398.751 787, 399.746 787 C 400.741 787, 402.521 787.677, 403.702 788.504 C 405.683 789.892, 405.990 789.821, 407.674 787.586 C 412.416 781.296, 424.556 763.321, 431.371 752.500 C 441.343 736.665, 442.207 735.542, 441.375 739.500 C 441.028 741.150, 439.858 744.610, 438.775 747.189 C 437.692 749.768, 437.108 752.365, 437.476 752.961 C 439.003 755.433, 458.758 764, 462.929 764 C 463.997 764, 466.299 760.351, 469.712 753.250 C 475.717 740.758, 481.384 730.216, 482.923 728.677 C 483.515 728.085, 484 727.070, 484 726.423 C 484 724.660, 467.588 719.205, 458.809 718.049 C 448.218 716.655, 443.035 714.470, 427.926 705.030 C 412.707 695.520, 407.743 693.222, 400.610 692.384 L 395.392 691.771 390.546 697.135 M 322.279 695.250 C 320.877 697.066, 315.833 710.166, 316.341 710.674 C 316.577 710.911, 319.579 709.290, 323.010 707.072 C 326.442 704.854, 330.750 702.496, 332.585 701.833 L 335.922 700.627 329.944 697.313 C 323.062 693.499, 323.534 693.626, 322.279 695.250 M 200.500 700.815 C 173.022 708.948, 154.121 738.866, 158.941 766.597 C 164.183 796.750, 193.880 812.850, 222.374 800.988 L 230.031 797.800 226.502 796.001 C 223.098 794.265, 222.803 794.267, 218.110 796.050 C 191.939 805.995, 166.067 786.674, 166.012 757.144 C 165.946 721.770, 202.919 695.011, 232.643 708.920 L 239.483 712.121 241.257 709.931 C 247.252 702.528, 217.327 695.834, 200.500 700.815 M 340.265 705.542 C 331.891 707.797, 325.422 711.603, 318.620 718.276 C 293.173 743.243, 300.927 787.192, 332.302 795.822 C 335.845 796.796, 336.180 796.700, 337.225 794.407 C 338.566 791.462, 338.040 790.897, 331.833 788.614 C 317.330 783.281, 308.039 764.556, 311.047 746.722 C 315.653 719.412, 343.408 702.648, 365.844 713.624 C 371.112 716.202, 371.358 716.231, 372.668 714.440 C 374.588 711.814, 373.990 710.888, 368.662 708.231 C 360.410 704.116, 349.423 703.075, 340.265 705.542 M 257.591 709.502 C 256.046 711.860, 256.091 712.181, 258.492 715.809 C 263.213 722.942, 265.267 730.599, 265.643 742.460 C 265.891 750.261, 266.404 753.833, 267.424 754.852 C 271.159 758.588, 271.683 734.520, 268.105 723.539 C 265.951 716.927, 261.734 708.572, 260.015 707.509 C 259.577 707.239, 258.486 708.135, 257.591 709.502 M 511 708.064 C 507.107 709.689, 496 717.133, 496 718.117 C 496 718.603, 498.645 719, 501.878 719 C 514.623 719, 524.916 728.927, 522.316 738.712 C 521.665 741.164, 521.492 740.852, 520.880 736.112 C 519.603 726.216, 514.139 721.474, 504.104 721.554 C 495.711 721.621, 491.686 723.780, 488.386 729.985 C 484.425 737.430, 486.571 748, 492.044 748 C 493.185 748, 493.839 748.451, 493.499 749.002 C 493.158 749.553, 494.032 750.442, 495.440 750.977 C 496.848 751.512, 498 752.235, 498 752.584 C 498 753.711, 492.578 751.962, 489.750 749.923 C 488.238 748.832, 487 748.334, 487 748.815 C 487 750.065, 490.428 753, 491.888 753 C 492.564 753, 492.854 753.427, 492.531 753.950 C 491.679 755.329, 494.766 756.671, 500.605 757.459 C 507.119 758.338, 512.329 756.329, 516.735 751.238 C 518.514 749.182, 519.977 748.028, 519.985 748.673 C 520.009 750.549, 515.039 755.928, 511.677 757.667 C 507.692 759.728, 497.263 759.704, 493.244 757.626 C 489.219 755.545, 485.429 750.886, 484.010 746.275 C 483.371 744.199, 482.632 741.834, 482.367 741.021 C 481.782 739.217, 477.032 748.316, 468.357 767.861 C 460.460 785.652, 460.417 785.836, 463.389 789.172 C 465.658 791.719, 465.947 791.783, 469.558 790.541 C 475.959 788.341, 481.898 791.385, 483.609 797.742 C 484.103 799.577, 484.693 799.872, 486.856 799.364 C 488.310 799.023, 489.725 798.748, 490 798.753 C 494.025 798.832, 495.607 799.453, 498.077 801.923 C 499.795 803.641, 501 805.908, 501 807.423 C 501 809.754, 501.374 810, 504.923 810 C 507.670 810, 509.756 810.765, 511.878 812.551 L 514.910 815.102 520.296 807.801 C 528.395 796.822, 536.972 783.743, 543.937 771.753 C 553.592 755.132, 554.975 756.787, 546.475 774.791 L 542.088 784.081 547.794 787.749 C 558.339 794.527, 585.774 805.560, 587.583 803.750 C 587.874 803.459, 586.546 800.134, 584.633 796.361 C 582.719 792.587, 578.608 782.075, 575.496 773 C 564.126 739.845, 554.512 724.700, 538.221 714.278 C 529.216 708.518, 516.739 705.669, 511 708.064 M 201.829 710.397 C 196.070 712.430, 189 716.348, 189 717.507 C 189 717.711, 192.683 723.193, 197.184 729.689 C 201.686 736.185, 205.467 741.644, 205.588 741.820 C 205.708 741.996, 207.740 741.487, 210.104 740.688 L 214.400 739.236 217.650 724.868 C 219.437 716.966, 220.922 709.938, 220.950 709.250 C 221.038 707.057, 209.294 707.762, 201.829 710.397 M 403.669 712.126 C 401.013 714.252, 398.091 716.409, 397.178 716.920 C 394.313 718.524, 396.666 719.225, 399.657 717.659 C 402.677 716.078, 409.659 709.293, 408.932 708.646 C 408.694 708.434, 406.326 710, 403.669 712.126 M 223 709.804 C 223 710.246, 221.459 717.334, 219.575 725.554 L 216.150 740.500 218.825 737.451 C 224.051 731.495, 236.502 715.994, 236.815 715.055 C 236.990 714.530, 234.868 712.953, 232.100 711.551 C 227.131 709.032, 223 708.240, 223 709.804 M 345.305 715.250 C 345.592 716.487, 346.620 722.450, 347.589 728.500 C 350.029 743.730, 352.626 745.560, 359.478 736.880 C 366.539 727.935, 370.277 719.963, 368.388 717.876 C 365.933 715.164, 358.313 713, 351.213 713 C 345.057 713, 344.805 713.096, 345.305 715.250 M 335 717.063 C 324.427 722.881, 317.619 731.685, 314.533 743.535 C 312.286 752.161, 312.434 753.267, 315.750 752.632 C 317.262 752.342, 323.050 751.812, 328.611 751.454 L 338.723 750.804 340.354 747.384 C 341.251 745.503, 343.113 743.450, 344.492 742.822 C 347.438 741.479, 347.540 740.220, 345.584 729.360 C 344.805 725.037, 343.884 719.813, 343.538 717.750 C 342.781 713.233, 342.065 713.175, 335 717.063 M 784.684 720.455 C 770.777 732.253, 764.403 747.605, 767.006 763.035 C 768.205 770.146, 773.389 782.496, 774.806 781.620 C 775.261 781.338, 776.224 776.150, 776.945 770.089 L 778.255 759.070 775.473 752.524 C 772.281 745.014, 772.669 742.619, 775.972 749.442 C 778.867 755.422, 779.644 755.734, 780.461 751.241 C 781.328 746.473, 785.458 732.273, 786.929 729 C 788.147 726.293, 788.025 727.826, 786.356 736.250 L 785.712 739.500 788.352 737.079 C 789.804 735.748, 791.234 734.901, 791.530 735.196 C 791.825 735.492, 790.492 737.117, 788.568 738.807 C 785.803 741.234, 784.762 743.203, 783.611 748.184 C 782.810 751.651, 782.273 754.607, 782.418 754.751 C 782.562 754.896, 784.552 753.658, 786.840 752.001 C 792.541 747.871, 792.073 749.536, 785.996 755 C 781.038 759.458, 780.978 759.584, 779.589 768.500 C 778.818 773.450, 778.259 777.577, 778.347 777.670 C 778.435 777.764, 781.477 775.040, 785.108 771.618 C 793.645 763.570, 796.119 757.641, 796.777 743.651 C 797.239 733.833, 794.042 715, 791.913 715 C 791.473 715, 788.221 717.455, 784.684 720.455 M 512 716.411 C 512 716.637, 514.037 717.808, 516.527 719.013 C 522.025 721.675, 525.463 725.965, 527.149 732.268 C 528.473 737.219, 530.520 739.032, 529.386 734.250 C 527.411 725.924, 523.051 719.845, 517.282 717.377 C 514.081 716.007, 512 715.627, 512 716.411 M 249.897 720.246 C 248.402 722.273, 248.467 722.787, 250.884 727.959 C 253.201 732.918, 253.471 734.708, 253.461 745 C 253.447 758.168, 251.866 763.480, 244.817 774.036 C 242.590 777.371, 240.932 780.242, 241.134 780.415 C 244.452 783.261, 245.946 782.938, 248.813 778.757 C 261.255 760.607, 263.829 735.986, 254.823 721.250 C 252.498 717.445, 252.034 717.350, 249.897 720.246 M 181.543 724.250 C 173.915 732.932, 169.037 745.045, 169.012 755.367 C 169.001 759.929, 169.141 760.195, 171.250 759.626 C 172.488 759.292, 179.688 757.825, 187.250 756.365 C 198.913 754.114, 201 753.434, 201 751.889 C 201 750.888, 201.731 748.535, 202.624 746.662 L 204.248 743.257 195.551 731.128 C 190.768 724.458, 186.697 719, 186.505 719 C 186.312 719, 184.080 721.362, 181.543 724.250 M 240.222 732.222 C 236.871 736.204, 234.259 739.592, 234.418 739.751 C 234.577 739.910, 238.136 738.412, 242.326 736.422 L 249.945 732.804 248.441 729.203 C 247.613 727.223, 246.797 725.463, 246.626 725.293 C 246.456 725.122, 243.574 728.241, 240.222 732.222 M 494.250 726.220 C 493.012 726.817, 492 727.677, 492 728.131 C 492 728.976, 496.737 727.271, 498.450 725.810 C 499.819 724.643, 496.937 724.924, 494.250 726.220 M 832 728.895 C 820.737 731.175, 811.298 734.425, 805.783 737.922 C 801.491 740.644, 801.252 741.047, 800.598 746.638 C 800.221 749.862, 799.064 754.970, 798.029 757.989 C 796.993 761.008, 796.248 763.581, 796.373 763.706 C 796.498 763.832, 799.580 761.245, 803.222 757.958 C 808.999 752.745, 810.129 751.123, 812.087 745.241 C 813.321 741.534, 814.518 739.059, 814.746 739.741 C 814.974 740.424, 814.630 742.592, 813.981 744.558 C 812.408 749.324, 813.126 749.699, 817.145 746.212 C 821.654 742.298, 832.990 734.656, 833.511 735.178 C 833.741 735.408, 831.634 737.374, 828.829 739.548 C 826.025 741.722, 822.637 744.400, 821.301 745.500 L 818.872 747.500 825.054 747.155 C 829.351 746.916, 831.029 747.144, 830.559 747.905 C 830.186 748.507, 827.321 749.002, 824.191 749.004 C 817.872 749.008, 815.315 750.257, 808 756.916 C 803.634 760.891, 803.589 760.990, 806.500 760.256 C 808.150 759.840, 814.346 759.500, 820.270 759.500 L 831.039 759.500 835.051 751.787 C 838.332 745.478, 843 731.416, 843 727.840 C 843 726.756, 842.178 726.835, 832 728.895 M 492.073 731.635 C 490.933 733.084, 490 735.284, 490 736.524 C 490 739.133, 493.468 743.858, 494.574 742.756 C 494.985 742.347, 494.574 741.187, 493.661 740.177 C 491.576 737.874, 491.532 734.113, 493.557 731.223 C 495.730 728.119, 494.589 728.436, 492.073 731.635 M 515.844 735.505 C 516.122 739.005, 515.684 740.838, 513.969 743.340 C 511.490 746.958, 505.408 751.370, 504.053 750.533 C 503.576 750.238, 502.131 750.418, 500.842 750.935 C 498.861 751.729, 499.211 751.883, 503.115 751.937 C 506.289 751.980, 508.524 751.376, 510.273 750 C 513.203 747.695, 514.781 747.353, 513.091 749.390 C 512.456 750.155, 509.658 751.761, 506.871 752.960 C 504.085 754.159, 502.037 755.370, 502.320 755.653 C 503.021 756.355, 511.998 752.312, 514.237 750.285 C 515.532 749.114, 515.713 748.441, 514.874 747.922 C 514.037 747.405, 514.317 746.413, 515.850 744.463 C 518.273 741.384, 518.726 735.375, 516.740 732.659 C 515.673 731.200, 515.536 731.636, 515.844 735.505 M 239.221 740.388 C 228.651 745.645, 224.101 749.658, 224.036 753.781 C 224.016 755.073, 224.760 756.335, 225.750 756.689 C 226.713 757.033, 231.744 759.276, 236.931 761.674 C 247.440 766.531, 247.092 766.619, 249.377 758.500 C 252.008 749.152, 252.471 734.615, 250.121 735.138 C 249.780 735.214, 244.874 737.577, 239.221 740.388 M 502.597 739.499 C 501 740.776, 499.026 741.563, 498.210 741.250 C 497.233 740.876, 496.894 741.162, 497.217 742.091 C 497.902 744.060, 501.045 743.297, 503.947 740.456 C 507.212 737.259, 506.252 736.579, 502.597 739.499 M 524.365 747.250 C 523.191 750.413, 522.577 753, 523.001 753 C 524.300 753, 527.149 746.062, 526.815 743.713 C 526.587 742.114, 525.907 743.096, 524.365 747.250 M 208.111 745.560 C 202.314 750.438, 202.940 759.117, 209.211 760.811 C 213.558 761.985, 213.624 761.778, 210.045 758.199 C 206.079 754.233, 206.195 751.496, 210.500 747.435 C 215.865 742.375, 213.811 740.764, 208.111 745.560 M 345.455 746.455 C 340.745 751.164, 342.557 758, 348.515 758 C 353.488 758, 356.993 749.135, 353.429 745.571 C 351.170 743.312, 348.276 743.633, 345.455 746.455 M 492.455 746.073 C 491.969 746.860, 492.103 747.054, 492.825 746.608 C 493.448 746.223, 494.907 746.415, 496.065 747.035 C 497.922 748.029, 500.027 747.694, 498.915 746.581 C 497.658 745.325, 493.137 744.970, 492.455 746.073 M 501 746 C 499.827 746.758, 500.086 746.973, 502.191 746.985 C 503.671 746.993, 505.160 746.550, 505.500 746 C 506.289 744.723, 502.976 744.723, 501 746 M 479.557 749.250 C 479.938 750.487, 480.850 752.625, 481.585 754 C 483.254 757.125, 483.460 754.619, 481.902 750.149 C 480.661 746.589, 478.482 745.753, 479.557 749.250 M 211.939 750.061 C 209.793 752.207, 209.640 756.060, 211.673 756.729 C 212.318 756.942, 212.993 756.081, 213.173 754.818 C 213.585 751.920, 216.558 751.290, 219.074 753.567 C 220.926 755.243, 221 755.215, 221 752.855 C 221 747.910, 215.718 746.282, 211.939 750.061 M 332.917 753.402 C 332.688 753.624, 328.244 754.017, 323.042 754.277 C 317.169 754.570, 313.438 755.187, 313.199 755.903 C 311.927 759.719, 317.877 774.705, 322.303 778.832 L 324.803 781.164 332.216 771.332 C 341.728 758.717, 341.397 759.374, 339.975 755.940 C 338.872 753.277, 334.627 751.751, 332.917 753.402 M 523.662 757.500 C 519.867 762.040, 519.899 763.924, 523.701 759.750 C 525.667 757.591, 528.419 753, 527.747 753 C 527.569 753, 525.731 755.025, 523.662 757.500 M 216.267 758.250 C 217.261 764.359, 220.141 773, 221.182 773 C 222.357 773, 221.708 768.458, 219.360 760.250 C 217.702 754.456, 215.408 752.973, 216.267 758.250 M 184.500 759.285 C 176.250 760.933, 169.313 762.442, 169.085 762.638 C 168.053 763.529, 172.395 775.713, 175.443 780.479 C 178.351 785.024, 184.487 791, 186.246 791 C 186.553 791, 190.680 784.524, 195.418 776.609 L 204.032 762.218 202.266 759.115 C 201.295 757.409, 200.275 756.075, 200 756.150 C 199.725 756.226, 192.750 757.636, 184.500 759.285 M 222.672 758.662 C 222.378 758.955, 222.305 759.714, 222.510 760.348 C 222.714 760.981, 223.400 764.135, 224.034 767.355 L 225.185 773.209 231.737 776.180 C 235.340 777.814, 238.561 778.774, 238.894 778.313 C 240.967 775.447, 245 768.948, 245 768.474 C 245 768.163, 241.063 766.086, 236.250 763.859 C 225.026 758.665, 223.321 758.012, 222.672 758.662 M 481.859 761.736 C 483.366 764.553, 487.917 767.719, 491.561 768.485 L 494.500 769.104 491.500 767.410 C 489.850 766.479, 486.750 764.343, 484.611 762.664 C 481.417 760.157, 480.925 759.991, 481.859 761.736 M 338.249 767.156 C 335.637 770.542, 331.805 775.379, 329.734 777.906 C 325.538 783.023, 325.729 783.581, 332.718 786.607 C 338.610 789.158, 339.252 788.702, 342.388 779.747 C 343.976 775.211, 346.339 769.377, 347.638 766.783 C 350.622 760.825, 350.656 761, 346.499 761 C 343.391 761, 342.465 761.691, 338.249 767.156 M 491.595 762.153 C 493.737 765.620, 505.346 767.126, 510 764.541 C 512.289 763.269, 511.981 763.199, 506.354 763.706 C 502.103 764.088, 498.780 763.772, 495.577 762.681 C 493.026 761.812, 491.237 761.575, 491.595 762.153 M 809 763.091 C 801.627 764.521, 790.554 770.607, 784.028 776.818 C 776.379 784.096, 776.262 785.490, 783.510 782.997 C 793.593 779.528, 809.378 776.063, 819.806 775.031 C 825.475 774.469, 831.041 773.513, 832.177 772.905 C 833.592 772.148, 834.033 772.137, 833.580 772.871 C 832.872 774.016, 835.274 774.782, 841 775.240 C 842.925 775.393, 839.785 775.880, 834.022 776.321 C 820.612 777.347, 820.472 777.516, 829.061 782.281 C 835.401 785.799, 830.994 785.106, 824.148 781.508 L 817.149 777.831 809.567 779.054 C 800.831 780.463, 800.840 781.045, 809.677 786.101 C 812.670 787.814, 814.912 789.422, 814.659 789.675 C 814.141 790.192, 805.990 786.115, 801.665 783.175 C 798.636 781.117, 799.012 781.085, 785.764 784.500 C 777.929 786.519, 777.996 787.225, 786.386 790.998 C 810.040 801.635, 831.959 798.284, 852.824 780.841 C 861.473 773.610, 861.487 773.654, 848.963 768.548 C 835.508 763.062, 820.043 760.951, 809 763.091 M 204.525 766.402 C 196.786 778.681, 188.920 792.254, 189.314 792.647 C 192.553 795.886, 208.455 796.469, 216.606 793.647 L 220.235 792.390 214.118 788.493 C 207.583 784.330, 207.030 783.081, 209.098 777.149 C 209.982 774.613, 210.749 774, 213.039 774 C 216.594 774, 216.870 773.455, 215.825 768.500 C 214.994 764.561, 214.911 764.499, 210.414 764.402 C 206.798 764.325, 205.571 764.742, 204.525 766.402 M 350.639 769.750 C 349.862 771.263, 347.114 778.800, 344.533 786.500 C 335.684 812.899, 331.294 817.110, 303.500 825.857 C 296.350 828.108, 288.818 831.098, 286.762 832.502 C 273.412 841.622, 290.483 851.943, 319 851.992 C 327.898 852.008, 333.853 852.578, 339.664 853.971 C 366.784 860.473, 371.502 858.594, 378.390 838.542 C 382.462 826.690, 386.718 818.700, 396.692 804.184 C 404.137 793.347, 404.292 791.284, 397.700 790.805 C 393.553 790.504, 393.493 790.444, 392.914 786.106 C 392.019 779.404, 387.783 777.300, 381.636 780.506 C 377.660 782.580, 377.251 782.440, 376.481 778.750 C 374.833 770.842, 368.635 768.353, 362.537 773.150 C 359.771 775.325, 358.058 774.633, 358.015 771.321 C 357.994 769.691, 355.154 767, 353.454 767 C 352.683 767, 351.416 768.237, 350.639 769.750 M 216 776.414 C 216 776.642, 218.928 778.465, 222.506 780.466 C 228.043 783.562, 229.780 784.059, 234.172 783.802 L 239.332 783.500 231.825 779.750 C 225.343 776.512, 216 774.543, 216 776.414 M 419.160 779.548 C 418.130 781.808, 418.310 782.375, 420.750 784.570 C 427.480 790.625, 450 799.526, 450 796.132 C 450 795.509, 450.019 794.719, 450.042 794.375 C 450.065 794.032, 447.252 792.790, 443.792 791.617 C 437.136 789.359, 428.039 783.799, 424.046 779.549 C 421.067 776.378, 420.604 776.378, 419.160 779.548 M 211.448 780.165 C 210.677 782.593, 212.392 784.222, 220.247 788.522 C 227.891 792.708, 229.962 789.122, 222.750 784.189 C 214.375 778.459, 212.231 777.696, 211.448 780.165 M 413.219 787.917 C 408.756 793.954, 399.085 807.973, 398.052 809.903 C 396.997 811.873, 397.067 811.883, 401.739 810.423 C 409.149 808.106, 438.273 801.027, 440.450 801.013 C 443.195 800.995, 441.360 799.647, 435.816 797.608 C 431.751 796.113, 424.388 791.675, 417.437 786.531 C 415.514 785.108, 415.226 785.203, 413.219 787.917 M 229.970 789.055 C 228.146 792.465, 229.237 793.449, 234.480 793.127 C 241.099 792.720, 244 791.470, 244 789.025 C 244 785.950, 231.618 785.977, 229.970 789.055 M 268.500 790.083 C 258.594 792.212, 252.646 793.979, 253.272 794.606 C 253.915 795.249, 276.394 789.978, 277.450 788.937 C 277.972 788.422, 278.197 788.034, 277.950 788.074 C 277.702 788.115, 273.450 789.019, 268.500 790.083 M 285 790.951 C 278.675 792.486, 268.325 795.569, 262 797.803 C 227.808 809.877, 222.669 811.904, 226.085 811.970 C 228.079 812.008, 235.746 809.517, 258.500 801.438 C 268.400 797.923, 281.828 793.720, 288.340 792.100 C 294.852 790.479, 300.440 788.894, 300.757 788.577 C 301.960 787.374, 296.098 788.257, 285 790.951 M 762.157 792.083 C 759.218 793.768, 757.023 795.356, 757.279 795.612 C 757.727 796.061, 768 790.062, 768 789.351 C 768 788.765, 767.688 788.911, 762.157 792.083 M 452.992 802.204 C 442.555 832.140, 436.728 839.933, 421.365 844.502 C 392.790 853.001, 387.637 855.653, 388.718 861.306 C 390.276 869.454, 406.834 877.649, 426.500 880.003 C 431.450 880.596, 439.428 882.011, 444.229 883.147 C 450.412 884.611, 455.284 885.108, 460.929 884.852 C 471.436 884.375, 473.651 882.286, 482.431 864.581 C 486.629 856.116, 492.623 846.383, 499.418 837 C 507.304 826.110, 509.929 821.721, 509.959 819.372 C 510.016 815, 507.935 813.600, 502.486 814.347 C 498.678 814.869, 497.989 814.700, 497.926 813.231 C 497.505 803.441, 493.461 800.375, 485.571 803.866 L 481.222 805.789 480.618 802.015 C 479.361 794.149, 473.103 791.330, 466.970 795.864 L 464.033 798.036 462.265 794.281 C 459.068 787.493, 457.719 788.646, 452.992 802.204 M 291 799.191 C 267.496 805.815, 252.372 811, 256.553 811 C 258.735 811, 295.315 799.856, 296.450 798.846 C 297.658 797.770, 295.572 797.902, 291 799.191 M 442 801.904 C 441.175 802.368, 430.600 805.133, 418.500 808.048 C 406.400 810.963, 395.984 813.832, 395.354 814.424 C 394.724 815.016, 392.727 818.162, 390.915 821.416 C 388.052 826.559, 387.875 827.260, 389.561 826.780 C 390.627 826.476, 395.550 825.031, 400.500 823.568 C 405.450 822.105, 417.150 818.874, 426.500 816.389 C 435.850 813.903, 444.159 811.223, 444.964 810.434 C 447.233 808.212, 444.729 808.539, 428.829 812.543 C 421.090 814.492, 414.251 815.904, 413.629 815.680 C 412.254 815.186, 426.407 810.779, 437.881 808.129 C 445.857 806.287, 447.950 805.069, 447.985 802.250 C 448.002 800.839, 444.277 800.624, 442 801.904 M 525 809.129 C 525 809.975, 527.805 811.401, 532.176 812.779 C 536.123 814.022, 545.840 817.979, 553.769 821.571 C 581.623 834.190, 598.639 837.658, 600.787 831.153 C 601.138 830.090, 600.800 830.037, 599.181 830.903 C 592.422 834.520, 583.332 831.714, 546 814.487 C 533.185 808.574, 525 806.485, 525 809.129 M 776 812.901 C 746.110 821.089, 727.971 837.677, 727.336 857.403 L 727.109 864.478 718.237 866.650 C 702.365 870.534, 699.955 872.252, 703.771 876.965 L 705.541 879.152 711.021 876.971 C 724.035 871.793, 730.365 870.142, 732.224 871.444 C 733.813 872.557, 733.608 872.801, 730.228 873.813 C 725.811 875.137, 721.628 877.922, 724 877.961 C 724.825 877.974, 728.221 877.157, 731.547 876.145 C 735.750 874.867, 738.330 874.578, 740.004 875.197 L 742.414 876.089 739.457 878.133 L 736.500 880.177 739.500 879.508 C 748.998 877.390, 753.489 878.129, 747.250 880.784 L 744.500 881.954 747.500 881.411 C 758.185 879.475, 768.442 879.844, 764.972 882.038 C 764.162 882.550, 763.746 882.976, 764.047 882.985 C 765.244 883.018, 782.945 878.930, 790 876.990 C 794.125 875.856, 803.350 873.316, 810.500 871.346 C 824.204 867.570, 829.448 865.492, 822.500 866.592 C 819.234 867.109, 807.362 870.060, 797.594 872.784 C 796.327 873.137, 795.925 872.931, 796.394 872.171 C 797.063 871.089, 799.627 870.238, 818.266 864.916 C 822.538 863.697, 825.824 862.491, 825.570 862.237 C 825.187 861.854, 815.844 863.604, 807.500 865.622 C 805.629 866.075, 805.643 865.981, 807.718 864.168 C 808.938 863.103, 813.101 861.456, 816.968 860.508 C 820.836 859.560, 824 858.547, 824 858.256 C 824 857.618, 816.128 858.630, 813.630 859.589 C 812.651 859.964, 815.067 856.273, 819.001 851.386 C 825.955 842.744, 837 825.984, 837 824.072 C 837 821.618, 799.529 821.478, 789.641 823.895 L 785.782 824.838 786.418 821.669 C 788.516 811.203, 788.496 810.995, 785.378 811.060 C 783.795 811.093, 779.575 811.922, 776 812.901 M 772.905 816.882 C 746.270 825.579, 728.620 843.075, 730.188 859.229 L 730.505 862.500 732.268 859.270 C 733.237 857.494, 737.197 852.769, 741.066 848.770 C 746.682 842.968, 748.269 840.633, 748.931 837.204 C 750.034 831.484, 751.420 830.366, 750.733 835.750 C 750.434 838.087, 750.399 840, 750.654 840 C 751.467 840, 759.314 833.695, 765 828.474 C 770.619 823.313, 777 818.468, 777 819.361 C 777 819.634, 774.662 822.088, 771.805 824.814 L 766.610 829.770 774.330 827.635 L 782.051 825.500 783.525 820.568 C 785.897 812.637, 785.902 812.639, 772.905 816.882 M 416 821.529 C 402.525 825.040, 390.560 827.932, 389.411 827.956 C 387.518 827.996, 384.250 832.584, 385.339 833.672 C 385.774 834.107, 436.857 819.660, 440.750 818.001 C 443.146 816.980, 443.840 814.951, 441.750 815.073 C 441.063 815.113, 429.475 818.019, 416 821.529 M 522.717 818.494 C 518.086 819.768, 514.499 821.833, 515.383 822.717 C 515.979 823.313, 532.277 818.938, 533.450 817.867 C 534.857 816.583, 528.268 816.968, 522.717 818.494 M 524.401 823.329 C 515.200 825.740, 511.883 827.055, 510.553 828.818 C 509.591 830.094, 508.971 831.304, 509.176 831.509 C 509.559 831.893, 543.172 823.061, 543.917 822.380 C 544.747 821.622, 543.178 820.907, 539.874 820.536 C 538.018 820.328, 531.055 821.585, 524.401 823.329 M 414.500 828.020 C 400.750 831.741, 388.247 835.072, 386.715 835.421 C 384.207 835.993, 381.127 840.460, 382.378 841.711 C 382.616 841.950, 395.280 838.590, 410.520 834.244 C 437.119 826.660, 440.963 825.065, 439.821 822.089 C 439.644 821.630, 428.250 824.299, 414.500 828.020 M 668.500 822.077 C 665.750 822.541, 661.700 823.582, 659.500 824.390 L 655.500 825.859 662.185 825.930 C 668.961 826.001, 681.841 823.781, 684.853 822.023 C 686.925 820.813, 675.773 820.850, 668.500 822.077 M 542 825.909 C 538.975 826.858, 529.594 829.374, 521.154 831.500 C 508.543 834.676, 505.533 835.783, 504.268 837.714 C 502.023 841.140, 502.444 841.133, 514.500 837.532 C 520.550 835.725, 531.954 832.542, 539.843 830.458 C 553.027 826.975, 553.996 826.565, 551.843 825.370 C 548.958 823.770, 548.782 823.780, 542 825.909 M 696.741 825.429 C 688.861 828.241, 688.442 831.024, 695.596 833.027 C 703.594 835.266, 718 832.375, 718 828.531 C 718 824.286, 705.185 822.416, 696.741 825.429 M 802 826.084 C 784.867 827.535, 769.153 832.029, 759.292 838.297 C 749.864 844.290, 733 860.981, 733 864.319 C 733 864.670, 737.156 863.481, 742.236 861.677 L 751.473 858.396 754.799 852.448 C 759.425 844.176, 761.870 842.157, 758.100 849.721 C 756.395 853.143, 755 856.161, 755 856.427 C 755 856.916, 765.216 853.241, 770.224 850.949 C 771.854 850.203, 774.545 847.016, 776.919 843.020 C 782.320 833.928, 785.421 831.664, 780.610 840.326 C 778.524 844.080, 777.024 847.357, 777.276 847.609 C 777.527 847.861, 781.870 846.378, 786.926 844.313 C 794.709 841.136, 796.429 840.010, 798.135 836.973 C 799.244 835.001, 801.064 832.817, 802.180 832.120 C 804.440 830.708, 804.279 831.179, 800.768 836.250 C 798.352 839.739, 798.008 839.809, 809.446 834.500 C 814.778 832.025, 819.361 830, 819.630 830 C 822.826 830, 803.992 840.078, 790.176 845.761 C 783.762 848.399, 784.117 849.534, 791.649 850.475 C 794.770 850.865, 798.264 851.564, 799.412 852.029 C 802.694 853.356, 794.321 853.220, 786.116 851.813 C 779.213 850.629, 779.168 850.637, 769.097 854.561 C 763.544 856.726, 759 858.768, 759 859.099 C 759 859.430, 762.825 861, 767.500 862.587 C 772.175 864.175, 776 865.825, 776 866.256 C 776 867.274, 772.062 866.302, 764 863.294 C 760.425 861.960, 756.825 860.659, 756 860.403 C 755.175 860.147, 749.325 861.701, 743 863.856 L 731.500 867.775 737.090 870.388 C 765.056 883.457, 793.424 876.400, 814.456 851.141 C 821.075 843.191, 832.949 826.916, 832.980 825.750 C 833.005 824.814, 814.666 825.012, 802 826.084 M 700.235 827.060 C 694.763 828.139, 693.360 828.980, 695.143 830.110 C 698.245 832.075, 715 830.365, 715 828.084 C 715 826.275, 707.022 825.722, 700.235 827.060 M 197 832.924 C 197 835.201, 197.649 838.617, 198.442 840.514 L 199.883 843.965 192.664 843.354 C 188.472 843, 182.312 843.268, 177.973 843.994 C 170.410 845.258, 154.430 850.494, 153.490 852.017 C 152.831 853.082, 167.449 866.388, 174.534 871.173 C 190.715 882.101, 210.366 882.901, 225 873.229 C 230.163 869.817, 230.919 869.612, 237.332 869.890 C 243.995 870.180, 244.155 870.129, 243.832 867.844 C 243.522 865.656, 243.121 865.520, 237.798 865.802 L 232.096 866.104 226.071 859.733 C 222.757 856.229, 218.963 852.783, 217.640 852.075 C 215.729 851.052, 215.137 849.773, 214.760 845.854 C 214.041 838.373, 207.669 831.413, 199.750 829.461 C 197.084 828.804, 197 828.909, 197 832.924 M 544 832.120 C 533.610 834.774, 504.769 842.433, 500.966 843.548 C 499.290 844.039, 495.368 850, 496.721 850 C 497.180 850, 503.393 848.177, 510.528 845.949 C 530.593 839.682, 548.821 834.299, 556.330 832.423 C 560.870 831.289, 562.714 830.434, 561.830 829.874 C 559.731 828.543, 556.318 828.973, 544 832.120 M 427 832.072 C 423.425 833.099, 411.725 836.348, 401 839.292 C 384.185 843.908, 381.335 844.974, 380.300 847.039 C 379.640 848.356, 379.190 849.522, 379.300 849.632 C 379.489 849.820, 382.862 848.959, 413 841.032 C 426.438 837.497, 431.402 835.427, 434.405 832.106 C 436.740 829.524, 435.885 829.520, 427 832.072 M 662.500 830.765 C 638.484 832.928, 591.030 843.178, 575.793 849.494 C 572.332 850.929, 565.900 853.404, 561.500 854.993 C 551.053 858.767, 537.589 864.923, 538.278 865.611 C 538.834 866.167, 566.604 855.545, 568.464 854.065 C 569.567 853.187, 595.875 845.743, 612.500 841.605 C 618 840.236, 632.363 837.495, 644.418 835.513 C 656.473 833.532, 667.048 831.506, 667.918 831.011 C 669.234 830.262, 669.163 830.142, 667.500 830.302 C 666.400 830.408, 664.150 830.616, 662.500 830.765 M 199 833.506 C 199 838.862, 202.801 844.737, 207.302 846.337 C 209.293 847.044, 209.082 846.487, 205.468 841.500 C 200.005 833.959, 203.881 837.062, 210.714 845.701 C 213.600 849.349, 213.842 846.571, 211.106 841.210 C 208.935 836.955, 206.846 834.923, 202.250 832.595 C 199.001 830.949, 199 830.950, 199 833.506 M 556 835.184 C 550.225 836.807, 535.150 841.193, 522.500 844.930 C 509.850 848.668, 498.283 852.016, 496.795 852.371 C 494.339 852.956, 488.154 859.487, 489.130 860.464 C 489.589 860.922, 512.393 854.071, 542.500 844.431 C 553.500 840.908, 565.200 837.274, 568.500 836.354 L 574.500 834.682 571.500 833.386 C 567.739 831.762, 568.482 831.675, 556 835.184 M 369.480 835.850 C 366.391 836.844, 363.661 839.147, 361.006 843 C 359.680 844.925, 357.448 847.512, 356.047 848.749 C 354.646 849.986, 354.092 850.998, 354.816 850.999 C 357.433 851.001, 359.986 848.880, 362.473 844.637 C 363.867 842.257, 366.581 839.463, 368.504 838.428 C 370.427 837.392, 372 836.198, 372 835.773 C 372 835.348, 371.887 835.045, 371.750 835.100 C 371.613 835.155, 370.591 835.492, 369.480 835.850 M 576 836.959 C 574.625 837.425, 566.750 839.699, 558.500 842.013 C 521.533 852.380, 487.181 863.793, 485.935 866.121 C 484.613 868.592, 483.893 868.726, 502.379 863.051 C 517.654 858.362, 539.906 851.783, 571.699 842.556 C 586.048 838.392, 589.324 837.011, 584.917 836.986 C 583.587 836.979, 581.600 836.779, 580.500 836.542 C 579.400 836.305, 577.375 836.493, 576 836.959 M 630.500 843.432 C 602.946 849.195, 531.571 873.729, 536.695 875.676 C 537.352 875.925, 538.725 875.682, 539.747 875.136 C 549.711 869.803, 601.259 852.791, 626.500 846.506 C 636.950 843.904, 645.688 841.600, 645.917 841.387 C 646.900 840.473, 640.737 841.290, 630.500 843.432 M 176.500 847.438 C 168.325 849.131, 159.148 851.952, 158.522 852.964 C 157.783 854.161, 171.345 865.465, 179 870.033 C 189.999 876.595, 201.710 878.518, 212.764 875.575 C 218.056 874.166, 227 869.533, 227 868.201 C 227 867.807, 223.431 866.485, 219.069 865.263 L 211.138 863.041 204.582 866.108 C 196.061 870.096, 193.812 869.373, 202.045 865.293 L 208.345 862.170 203.923 860.963 C 197.453 859.198, 192.989 859.455, 188.267 861.864 C 185.964 863.039, 183.499 863.979, 182.790 863.953 C 182.080 863.927, 183.941 862.642, 186.926 861.097 L 192.351 858.288 188.926 857.684 C 187.041 857.352, 182.575 856.780, 179 856.412 C 175.425 856.044, 171.825 855.324, 171 854.810 C 169.191 853.685, 185.550 854.618, 191.472 855.977 C 196.744 857.188, 197.062 856.546, 192.937 853.020 C 191.047 851.404, 189.999 850.063, 190.609 850.041 C 191.219 850.018, 193.694 851.712, 196.109 853.804 C 198.524 855.896, 202.525 858.175, 205 858.868 C 207.475 859.561, 210.400 860.380, 211.500 860.688 C 213.478 861.242, 213.477 861.222, 211.453 858.874 C 205.573 852.056, 208.143 852.842, 214.431 859.784 C 216.557 862.131, 226 865.597, 226 864.030 C 226 863.549, 223.637 861.074, 220.750 858.531 C 209.050 848.227, 192.604 844.104, 176.500 847.438 M 382.177 851.519 C 377.947 852.551, 373.296 855.629, 374.359 856.693 C 375.047 857.381, 386.962 853.531, 389.006 851.961 C 392.074 849.603, 390.462 849.499, 382.177 851.519 M 832.750 864.689 C 829.805 865.459, 830.808 866.682, 834 866.213 C 835.650 865.971, 837 865.374, 837 864.887 C 837 863.966, 835.742 863.908, 832.750 864.689 M 465.776 868.661 C 463.974 870.674, 460.865 874.049, 458.868 876.161 C 456.642 878.513, 455.797 880, 456.686 880 C 457.484 880, 461.436 876.625, 465.468 872.500 C 470.738 867.109, 472.273 865, 470.926 865 C 469.895 865, 467.577 866.647, 465.776 868.661 M 524.500 870.122 C 516.209 873.301, 511.955 875.288, 512.427 875.760 C 512.996 876.329, 532.179 870.047, 533.450 868.876 C 535.094 867.361, 529.766 868.102, 524.500 870.122 M 714.245 870.413 C 705.325 872.860, 704.454 873.308, 705.461 874.936 C 705.923 875.685, 706.778 875.650, 708.311 874.819 C 709.515 874.166, 714.100 872.396, 718.500 870.886 C 728.174 867.564, 725.654 867.284, 714.245 870.413 M 806.592 874.999 C 788.616 879.854, 782.882 881.798, 786.145 881.932 C 787.049 881.970, 790.649 881.150, 794.145 880.111 C 797.640 879.072, 806.350 876.749, 813.500 874.949 C 825.687 871.880, 830.973 869.893, 826.450 870.081 C 825.377 870.126, 816.441 872.339, 806.592 874.999 M 663.060 878.450 C 657.810 882.758, 655.355 885.688, 656.249 886.582 C 657.025 887.359, 671 876.702, 671 875.333 C 671 872.963, 668.603 873.904, 663.060 878.450 M 497.500 883.109 C 476.789 889.209, 458.543 895.297, 459.719 895.714 C 461.751 896.434, 507.495 882.833, 509.450 880.926 C 510.973 879.441, 508.282 879.933, 497.500 883.109 M 584.396 892.955 C 577.690 901.108, 579.331 900.291, 561 904.601 C 541.943 909.082, 536 910.848, 536 912.028 C 536 912.563, 536.702 913, 537.559 913 C 538.416 913, 538.867 913.405, 538.561 913.901 C 538.255 914.396, 539.565 914.758, 541.472 914.704 C 543.378 914.650, 545.188 914.855, 545.493 915.160 C 546.485 916.152, 544.823 919.007, 543.645 918.334 C 543.015 917.974, 542.844 918.058, 543.264 918.520 C 543.684 918.983, 542.817 920.625, 541.337 922.170 C 537.541 926.132, 538.534 926.333, 547.961 923.512 C 558.253 920.431, 617.719 907, 621.065 907 C 622.412 907, 628.911 909.403, 635.507 912.340 C 655.592 921.282, 660.605 922.823, 662.721 920.708 C 664.322 919.106, 664.345 918.702, 662.970 916.224 C 661.344 913.292, 660.497 912.806, 645.196 906.032 C 634.394 901.249, 634.227 901.045, 639.832 899.468 C 643.992 898.297, 643.914 896.494, 639.703 896.512 L 636.906 896.525 640.203 893.789 C 642.016 892.285, 643.837 891.042, 644.250 891.027 C 644.663 891.012, 645 890.550, 645 890 C 645 888.185, 638.778 888.978, 614.500 893.884 C 601.300 896.552, 590.355 898.611, 590.178 898.462 C 590.001 898.312, 591.035 896.320, 592.477 894.037 C 594.122 891.431, 594.868 889.161, 594.482 887.942 C 593.331 884.317, 590.239 885.854, 584.396 892.955 M 484.644 891.631 C 481.974 892.451, 480.013 893.346, 480.287 893.620 C 480.838 894.171, 491.857 891.477, 492.764 890.570 C 493.776 889.558, 489.629 890.100, 484.644 891.631 M 585.891 895.641 C 580.478 902.658, 577.887 903.842, 558.646 908.096 C 548.354 910.371, 544.407 911.607, 545.794 912.120 C 548.970 913.294, 549.302 914.822, 547.170 918.437 L 545.181 921.807 549.841 919.734 C 554.386 917.712, 559.061 916.419, 565.851 915.307 C 568.963 914.797, 569.159 914.544, 568.601 911.757 C 568.084 909.172, 568.209 908.928, 569.501 910.001 C 570.325 910.685, 571 911.913, 571 912.729 C 571 913.587, 571.588 913.988, 572.393 913.680 C 573.159 913.386, 577.693 912.369, 582.470 911.420 C 590.011 909.923, 591.090 909.453, 590.670 907.848 C 590.081 905.592, 590.398 905.541, 592.426 907.568 C 594.292 909.435, 598 908.598, 598 906.310 C 598 905.046, 598.279 904.987, 599.489 905.991 C 600.428 906.770, 602.261 906.986, 604.450 906.575 C 607.727 905.961, 607.867 905.772, 606.955 903.212 L 605.989 900.500 607.967 902.827 C 609.836 905.026, 610.239 905.092, 615.319 904.038 C 621.362 902.783, 623.253 903.333, 644.253 912.447 C 654.108 916.724, 657 917.314, 657 915.050 C 657 914.592, 655.168 913.484, 652.928 912.588 C 644.576 909.246, 627 900.680, 627 899.951 C 627 899.536, 628.272 898.752, 629.827 898.210 C 632.446 897.297, 639.109 892, 637.639 892 C 637.279 892, 630.801 893.376, 623.243 895.059 C 602.891 899.588, 586.782 902.182, 585.705 901.105 C 585.138 900.538, 586.023 898.374, 587.986 895.520 C 592.593 888.824, 591.083 888.912, 585.891 895.641 M 668.828 891.903 C 656.429 893.233, 663.224 895.392, 677.810 894.757 C 687.189 894.349, 688.695 893.933, 687.541 892.067 C 686.847 890.943, 678.454 890.870, 668.828 891.903" stroke="none" fill="#1a1a1a" fill-rule="evenodd"/>
</svg>