<svg xmlns="http://www.w3.org/2000/svg" width="1024" height="1024" viewBox="0 0 1024 1024" version="1.1">
	<path d="M 404 164.877 C 389.099 169.796, 373.725 185.589, 368.977 200.855 C 362.473 221.765, 372.779 241.236, 398.623 256.869 C 403.505 259.823, 406.375 261.942, 405 261.580 C 386.151 256.609, 358.886 259.486, 341.430 268.288 C 318.666 279.767, 298.766 303.596, 291.563 328 C 289.981 333.363, 289.748 333.606, 282.220 337.758 C 271.981 343.405, 255.947 355.439, 242.929 367.246 C 204.778 401.848, 182.119 448.119, 184.318 486.929 C 187.349 540.390, 234.576 607.452, 299.124 649.949 L 310.747 657.602 308.921 661.163 C 298.554 681.369, 287.856 720.086, 286.369 742.779 L 285.699 753 246.836 753 L 207.973 753 168.736 778.311 C 95.721 825.411, 92.931 827.303, 93.229 829.500 C 93.685 832.864, 96.083 831.602, 124.357 813.122 C 139.286 803.365, 153.206 794.348, 155.290 793.084 C 158.626 791.062, 160.545 790.761, 171.290 790.571 C 224.068 789.637, 224.782 789.585, 192.511 789.022 L 162.521 788.500 186.009 773.250 L 209.496 758 310.498 758.130 C 373.082 758.210, 408.660 758.588, 404.034 759.124 C 399.927 759.600, 386.652 762.011, 374.534 764.482 C 345.518 770.398, 334.544 771.987, 322.634 771.994 C 311.158 772.001, 315.847 769.331, 281.500 795.414 C 236.752 829.395, 216.069 846.167, 214.889 849.431 C 214.268 851.147, 211.998 853.818, 209.843 855.367 C 202.301 860.789, 201.295 867.032, 207.705 868.641 C 210.296 869.291, 272.294 868.111, 348.301 865.965 L 381.102 865.039 384.801 867.481 C 390.162 871.020, 397.557 872.368, 404.534 871.078 C 409.570 870.147, 418.568 866.508, 419.479 865.034 C 419.662 864.737, 427.617 865.008, 437.156 865.635 C 491.613 869.214, 604.870 875.261, 607 874.704 C 609.364 874.085, 628.457 849.813, 652.270 817.156 C 663.525 801.720, 659.788 803.051, 692 803.007 C 709.583 802.983, 718.963 802.630, 718.012 802.029 C 717.118 801.463, 706.539 801.328, 691.512 801.689 L 666.500 802.289 671 798.186 L 675.500 794.082 687.006 794.041 C 728.937 793.892, 766.458 781.882, 790.891 760.790 L 795.282 757 840.349 757 L 885.416 757 847.958 793.947 L 810.500 830.893 791 831.108 C 770.544 831.334, 774.637 832.587, 796.750 832.869 C 802.388 832.941, 806.996 833.337, 806.991 833.750 C 806.986 834.163, 795.057 846.127, 780.482 860.338 L 753.983 886.176 608.241 885.078 C 528.084 884.473, 415.250 883.552, 357.500 883.030 C 92.320 880.634, 99 880.651, 99 882.378 C 99 885.197, 62.379 884.683, 537 888.523 C 644.525 889.393, 737.112 890.350, 742.750 890.649 L 753 891.192 753 903.596 L 753 916 713.250 915.992 C 691.388 915.988, 630.075 915.542, 577 915.001 C 311.140 912.292, 104.630 910.970, 103.629 911.971 C 99.918 915.682, 101.541 915.751, 219 916.914 C 281.425 917.532, 374.125 918.484, 425 919.030 C 604.816 920.958, 712.757 921.993, 734.333 921.996 L 756.166 922 781.333 897.769 C 795.175 884.441, 821.462 858.706, 839.750 840.578 L 873 807.618 873.070 854.059 C 873.134 896.212, 873.660 907.541, 875.341 903 C 875.869 901.573, 877.187 869.204, 878.577 823.500 L 879.215 802.500 884.602 796.830 C 891.641 789.421, 892.057 788.096, 892.709 771 C 893.227 757.435, 893.131 756.339, 891.221 754 L 889.179 751.500 862.770 751.204 L 836.360 750.909 836.667 748.204 C 837.007 745.218, 839.566 683.600, 840.619 653.069 L 841.289 633.639 844.555 629.360 C 849.672 622.656, 851.555 611.838, 855.460 566.700 C 860.108 512.969, 855.484 497.682, 833.035 492.576 C 822.991 490.292, 802.805 488.047, 785.750 487.319 C 775.068 486.863, 771 486.349, 771 485.456 C 771 478.725, 761.141 454.524, 754.267 444.381 C 751.352 440.080, 749.982 436.754, 749.168 432 C 747.483 422.170, 744.987 399.680, 745.520 399.147 C 746.107 398.560, 764.059 400.725, 764.806 401.472 C 765.106 401.773, 765.641 405.952, 765.993 410.759 C 766.930 423.523, 769.532 427, 778.146 427 C 787.435 427, 791.831 419.808, 790.541 406.720 C 789.257 393.686, 785.561 385.893, 779.073 382.538 C 776.822 381.374, 762.575 378.297, 746.806 375.569 C 743.351 374.972, 743.077 374.658, 742.572 370.715 C 736.933 326.728, 728.855 299.155, 715.327 277.726 C 712.878 273.846, 712.878 273.845, 714.986 273.293 C 724.404 270.831, 742.310 259.472, 750.937 250.487 C 769.452 231.206, 767.604 205.837, 746.185 185.243 C 730.318 169.988, 712.074 169.512, 698.657 184.003 C 692.979 190.137, 692.452 190.971, 680.649 212.500 C 676.428 220.200, 671.966 227.764, 670.734 229.309 L 668.493 232.119 661.497 228.275 C 643.752 218.525, 621.564 210.229, 602 206.029 C 587.387 202.892, 580.223 198.265, 570.293 185.545 C 567.268 181.670, 564.092 178.100, 563.236 177.610 C 559.700 175.591, 557.722 184.058, 559.930 191.757 C 561.046 195.647, 561.174 195.628, 554.984 192.492 C 545.269 187.569, 528.070 185.037, 524.496 188.004 C 522.473 189.682, 523.023 190.284, 531.680 195.863 L 539.253 200.743 529.376 201.435 C 505.449 203.112, 480.465 209.743, 460.704 219.661 L 453.907 223.072 449.518 213.786 C 447.103 208.679, 443.569 200.182, 441.663 194.904 C 435.633 178.205, 430.696 170.926, 422.598 166.795 C 418.216 164.560, 408.117 163.518, 404 164.877 M 405.904 171.374 C 395.763 174.107, 383.243 185.723, 377.205 198 C 373.181 206.181, 373.268 218.955, 377.405 227.500 C 381.069 235.068, 394.883 248.967, 404.011 254.270 L 410.500 258.040 413.223 254.770 C 416.776 250.504, 417.024 251.053, 409.079 245.624 C 393.937 235.278, 386.136 221.851, 388.554 210.298 C 389.345 206.518, 389.353 206.529, 390.109 212.709 C 391.580 224.718, 398.686 234.659, 412.130 243.517 C 420.059 248.740, 418.789 248.943, 427.213 241.116 L 430.926 237.667 427.569 233.083 C 424.060 228.293, 419.984 220.650, 415.527 210.500 C 408.796 195.176, 397.408 191.596, 388.619 202.041 C 385.402 205.865, 385.124 203.579, 388.250 198.999 C 392.786 192.354, 400.763 190.308, 407.914 193.956 C 413.566 196.840, 416.447 200.851, 424.065 216.445 C 427.841 224.175, 431.799 231.504, 432.861 232.731 L 434.791 234.963 441.645 230.381 C 449.985 224.806, 449.787 225.309, 446.042 219.223 C 444.360 216.489, 440.685 208.457, 437.877 201.376 C 429.190 179.469, 424.914 173.458, 416.321 171.072 C 411.753 169.804, 411.726 169.804, 405.904 171.374 M 711.248 182.106 C 704.885 185.256, 699.408 192.078, 690.178 208.351 C 682.496 221.893, 674.712 233.298, 667.212 242 C 663.860 245.888, 662 245.491, 663.912 241.295 C 665.509 237.789, 665.376 237.689, 646.858 228.551 C 633.547 221.982, 621.078 217.424, 593.234 208.950 C 583.929 206.118, 577.011 201.245, 569.538 192.259 C 566.260 188.316, 563.406 185.261, 563.196 185.471 C 562.366 186.301, 566.102 196.871, 568.448 200.328 C 571.588 204.955, 571.282 204.929, 559.896 199.611 C 549.582 194.794, 541.041 191.968, 537.068 192.059 C 534.680 192.113, 534.633 192.201, 536.400 193.309 C 540.004 195.568, 550 204.075, 550 204.882 C 550 205.327, 544.038 205.978, 536.750 206.328 C 491.425 208.507, 441.300 231.681, 415.815 262.241 L 411.500 267.416 417.032 263.252 C 424.956 257.289, 431.966 254.387, 445.235 251.577 C 458.042 248.865, 461.827 247.307, 464.806 243.520 C 467.079 240.629, 468.925 240.393, 472.953 242.476 C 479.013 245.610, 481.504 253.464, 478.624 260.357 C 475.246 268.443, 465.308 272.920, 444.727 275.629 L 431.955 277.310 438.313 279.992 C 466.082 291.708, 485.367 319.015, 488.550 351.128 L 489.207 357.756 494.853 356.170 C 509.512 352.052, 535.335 354.757, 550.899 362.040 C 554.419 363.687, 557.363 364.914, 557.442 364.767 C 557.520 364.620, 558.156 362.250, 558.855 359.500 C 568.499 321.524, 602.289 293.738, 641.763 291.322 C 653.911 290.579, 653.599 290.280, 635.352 285.186 C 611.891 278.637, 602.994 271.930, 603.004 260.800 C 603.010 253.568, 607.907 247.866, 614.979 246.854 C 617.008 246.564, 617.779 247.177, 619.227 250.229 C 621.329 254.660, 624.923 256.674, 637.500 260.470 C 656.081 266.077, 668.520 275.841, 675.416 290.230 C 678.718 297.121, 679.598 298.171, 683.527 299.909 C 698.935 306.725, 715.606 323.306, 724.164 340.327 C 728.169 348.293, 733 364.585, 733 370.128 C 733 372.014, 733.515 373, 734.500 373 C 736.348 373, 736.349 373.121, 734.433 360.128 C 730.207 331.472, 723.422 307.867, 713.739 288.137 L 707.672 275.773 703.255 276.379 C 696.490 277.306, 698.353 275.447, 709.014 270.633 C 731.589 260.440, 747.106 248.280, 753.845 235.500 C 758.017 227.589, 757.725 214.946, 753.156 205.665 C 743.609 186.272, 724.516 175.539, 711.248 182.106 M 721.403 204.079 C 716.099 205.618, 709.814 212.169, 704.575 221.617 C 697.137 235.032, 691.443 243.612, 686.405 248.998 L 681.859 253.859 688.016 260.016 C 695.280 267.280, 694.712 267.281, 709.500 259.987 C 721.128 254.251, 730.439 247.072, 734.811 240.471 C 738.685 234.623, 740.677 226.427, 739.208 222.386 L 738.158 219.500 738.079 222.568 C 737.725 236.328, 726.260 248.497, 703.807 258.943 L 695.500 262.807 691.286 258.269 L 687.072 253.732 689.409 251.893 C 693.416 248.741, 702.607 235.920, 707.971 226 C 715.534 212.011, 720.001 208, 728.016 208 C 732.477 208, 735.247 209.109, 738.746 212.296 C 741.761 215.041, 742.862 213.648, 740.374 210.234 C 736.298 204.638, 728.356 202.061, 721.403 204.079 M 484.683 239.250 C 489.284 244.020, 491.617 248.145, 492.865 253.718 C 493.681 257.364, 493.738 257.406, 494.431 254.884 C 495.656 250.423, 493.259 244.206, 488.464 239.411 C 482.542 233.489, 478.980 233.337, 484.683 239.250 M 604.803 237.399 C 596.369 239.670, 588.808 246.116, 586.041 253.393 C 584.756 256.772, 585.663 258.398, 587.210 255.492 C 591.343 247.729, 605.986 238, 613.538 238 C 614.892 238, 616 237.550, 616 237 C 616 235.655, 610.563 235.849, 604.803 237.399 M 379.768 265.815 L 377.036 267.616 384.633 268.893 C 388.811 269.595, 393.640 271.029, 395.365 272.081 C 399.374 274.525, 399.243 274.551, 401.394 270.910 C 403.543 267.273, 403.045 266.646, 396.807 265.136 C 389.838 263.449, 382.939 263.724, 379.768 265.815 M 362.204 267.493 C 338.615 273.141, 318.108 289.101, 304.837 312.142 C 299.765 320.947, 294.009 336.878, 293.985 342.178 C 293.976 344.005, 293.557 346.152, 293.053 346.948 C 292.104 348.449, 291.451 346.785, 290.780 341.150 C 290.512 338.898, 290.120 339.049, 281.500 344.721 C 235.908 374.719, 202.366 419.002, 193.423 461 C 184.275 503.964, 207.258 556.404, 256.972 606 C 276.561 625.543, 312.348 653.018, 314.043 649.816 C 314.427 649.092, 315.006 642.425, 315.331 635 C 315.656 627.575, 316.331 620.150, 316.831 618.500 L 317.741 615.500 318.475 618.235 C 318.879 619.739, 319.038 625.477, 318.829 630.985 C 318.619 636.493, 318.508 641, 318.581 641 C 318.654 641, 321.505 636.388, 324.916 630.750 C 332.379 618.416, 333.788 616.455, 334.607 617.273 C 334.951 617.618, 332.215 624.288, 328.525 632.095 C 308.942 673.532, 296.188 715.092, 294.318 743.567 L 293.718 752.699 381.609 752.338 C 429.949 752.139, 488.075 751.703, 510.778 751.370 L 552.056 750.764 556.666 743.632 C 573.440 717.683, 621.148 685.368, 662.588 671.888 L 672.500 668.664 672.637 662.582 C 672.712 659.237, 673.463 654.925, 674.305 653 L 675.837 649.500 675.950 657.500 L 676.062 665.500 680.104 657.832 C 684.112 650.229, 690.878 641.409, 690.958 643.684 C 690.981 644.335, 689.665 647.035, 688.033 649.684 C 686.400 652.333, 683.912 657.132, 682.502 660.348 L 679.938 666.196 685.219 665.488 C 688.124 665.098, 692.300 664.102, 694.500 663.274 C 707.960 658.212, 713.195 656.755, 719.704 656.263 C 728.523 655.596, 729.802 657.400, 721.250 658.443 C 718.087 658.829, 713.025 659.928, 710 660.884 L 704.500 662.622 714 663.324 C 723.780 664.047, 732.297 665.859, 735.612 667.921 C 737.192 668.904, 736.847 669.010, 733.500 668.572 C 731.300 668.285, 724.953 667.752, 719.395 667.389 C 668.059 664.031, 578.358 712.926, 556.376 756.250 L 553.966 761 556.348 761 C 561.720 761, 566.879 768.648, 565.423 774.452 L 564.757 777.105 568.518 774.552 C 576.032 769.453, 583.674 772.850, 586.067 782.353 L 587.237 786.999 590.553 784.088 C 598.689 776.944, 608.294 780.271, 612.006 791.518 L 613.224 795.208 615.003 792.495 C 617.703 788.380, 621.974 786.014, 626.717 786.007 C 633.903 785.995, 637.704 791.032, 640.451 804.203 C 641.008 806.873, 641.061 806.890, 644.829 805.561 C 659.616 800.343, 675.140 788.443, 681.650 777.334 C 686.225 769.528, 687.156 773.631, 682.788 782.347 C 681.728 784.463, 681.096 786.429, 681.383 786.716 C 682.402 787.735, 714.651 784.895, 724.273 782.939 C 767.226 774.208, 796.601 753.699, 806.982 725.195 C 821.565 685.153, 804.625 627.188, 763.839 577.572 C 755.240 567.112, 755.131 567.052, 752.404 571.263 C 743.827 584.509, 727.481 600.575, 711 611.957 C 706.325 615.186, 700.025 619.969, 697 622.587 C 683.600 634.185, 656.574 648.969, 637 655.409 C 620.309 660.901, 616.835 660.752, 631 655.152 C 651.113 647.200, 670.138 637.722, 676.500 632.483 L 678.500 630.837 676.500 631.531 C 675.400 631.912, 668.650 634.456, 661.500 637.184 C 594.863 662.605, 518.115 667.138, 454 649.441 C 415.538 638.825, 382.800 622.547, 355.430 600.428 C 325.791 576.477, 308.437 548.118, 303.929 516.269 L 302.654 507.260 297.219 513.130 C 289.690 521.262, 289.105 520.465, 295.543 510.847 C 298.544 506.363, 301 502.340, 301 501.908 C 301 501.475, 297.475 502.911, 293.166 505.097 C 288.857 507.283, 283.569 509.313, 281.416 509.608 L 277.500 510.145 283.500 506.804 C 299.015 498.167, 302.526 494.595, 303.458 486.500 C 306.295 461.865, 318.889 435.514, 336.770 416.803 L 340.303 413.105 336.205 406.803 C 317.454 377.971, 317.739 341.046, 336.939 311.710 C 341.714 304.413, 352.630 292.986, 358.950 288.668 C 362.223 286.431, 362.385 286.046, 362.122 281.097 C 361.864 276.237, 362.094 275.648, 365.494 272.441 C 367.501 270.548, 369.673 268.997, 370.321 268.993 C 370.970 268.990, 372.756 268.159, 374.291 267.147 L 377.081 265.307 374.291 265.287 C 372.756 265.276, 367.317 266.268, 362.204 267.493 M 371.388 271.980 C 367.089 273.717, 363.360 281.027, 365.620 283.287 C 365.962 283.628, 368.933 282.548, 372.224 280.887 C 375.515 279.226, 381.424 277.062, 385.354 276.078 L 392.500 274.290 387.068 272.645 C 381.232 270.877, 374.793 270.604, 371.388 271.980 M 498.346 279.112 C 500.723 283.848, 503.257 290.499, 503.977 293.891 C 505.699 302.007, 507.538 303.235, 506.650 295.676 C 505.687 287.488, 502.477 279.779, 497.971 274.832 L 494.024 270.500 498.346 279.112 M 573.821 273.995 C 564.486 280.178, 556.486 290.726, 553.529 300.750 C 552.204 305.242, 554.581 302.836, 557.978 296.246 C 560.406 291.538, 564.246 286.705, 570.690 280.250 C 580.481 270.441, 581.123 269.158, 573.821 273.995 M 396.661 278.114 C 365.949 282.139, 339.923 304.935, 330.005 336.500 C 326.600 347.335, 326.046 367.750, 328.851 379.012 C 334.770 402.776, 352.068 424.510, 373.717 435.381 C 376.586 436.821, 379.120 438, 379.348 438 C 379.714 438, 382 429.907, 382 428.612 C 382 428.335, 378.962 426.513, 375.250 424.561 C 336.531 404.211, 324.621 352.254, 350.572 316.902 C 371.207 288.792, 407.236 280.040, 437.484 295.790 C 447.883 301.205, 460.396 314.012, 465.743 324.713 C 477.362 347.965, 475.220 377.718, 460.424 398.628 L 458.919 400.755 464.209 399.417 C 467.119 398.680, 470.672 397.843, 472.104 397.557 C 474.755 397.026, 480.150 386.498, 481.673 378.886 C 482.421 375.147, 485.321 373.603, 496.725 370.876 C 515.265 366.442, 537.027 369.755, 552.756 379.407 C 559.447 383.513, 559.506 383.589, 560.316 389.023 C 561.762 398.720, 563.783 407.358, 565.977 413.216 C 567.943 418.464, 568.420 418.987, 571.809 419.612 C 573.839 419.986, 577.222 420.894, 579.328 421.629 C 581.433 422.364, 582.985 422.636, 582.776 422.233 C 574.249 405.766, 572.035 397.471, 572.035 382 C 572.035 357.582, 581.505 337.793, 600.500 322.520 C 629.032 299.578, 670.192 302.150, 696.500 328.519 C 717.390 349.457, 723.892 378.288, 714.119 406.642 C 710.012 418.557, 705.714 425.285, 696 435.006 C 680.355 450.661, 666.738 456.388, 645 456.457 C 629.464 456.506, 621.831 454.695, 609.287 447.983 L 602.075 444.123 602.579 446.812 C 602.857 448.290, 603.415 451.525, 603.820 453.999 C 604.551 458.474, 604.595 458.516, 612.028 461.684 C 641.482 474.239, 676.689 468.026, 701.333 445.923 C 739.612 411.592, 738.693 348.740, 699.429 315.663 C 650.902 274.785, 576.812 300.265, 562.408 362.786 C 560.415 371.436, 560.058 371.704, 554.713 368.572 C 537.699 358.601, 513.539 355.632, 492.710 360.952 C 488.744 361.965, 485.325 362.627, 485.110 362.424 C 484.896 362.220, 484.523 358.329, 484.281 353.777 C 481.810 307.176, 441.371 272.256, 396.661 278.114 M 528.502 290.342 C 525.726 296.984, 524 305.332, 524.030 311.960 C 524.067 319.870, 525.442 318.281, 526.428 309.189 C 526.805 305.717, 527.988 299.456, 529.058 295.273 C 531.181 286.973, 530.910 284.577, 528.502 290.342 M 396 296.501 C 392.549 304.550, 387.110 321.704, 382.523 339 C 374.858 367.903, 370.207 379.638, 360.473 394.637 L 355.192 402.774 359.346 407.322 C 365.457 414.013, 382.051 425.345, 383.500 423.817 C 383.665 423.643, 385.600 421.097, 387.800 418.160 C 390 415.224, 393.532 411.667, 395.650 410.256 C 397.767 408.846, 399.685 407.539, 399.911 407.352 C 400.136 407.165, 399.504 406.110, 398.506 405.006 C 396.401 402.680, 397.604 402.386, 400.441 404.532 C 402.320 405.953, 408.104 406.563, 409.210 405.457 C 409.509 405.158, 407.087 402.247, 403.828 398.988 C 375.592 370.752, 393.873 315.663, 431.975 314.165 C 443.091 313.728, 449.748 316.098, 457.686 323.321 L 463.378 328.500 460.939 324.112 C 450.868 305.996, 429.878 293.294, 408.270 292.239 L 398.041 291.740 396 296.501 M 381.837 296.897 C 363.873 304.562, 350.482 319.575, 343.835 339.500 C 341.031 347.905, 340.439 371.360, 342.851 378.500 C 345.374 385.969, 350.319 396.060, 351.296 395.735 C 353.412 395.029, 362.196 378.912, 366.032 368.696 C 368.264 362.754, 372.509 348.804, 375.466 337.696 C 378.423 326.588, 381.585 315.320, 382.493 312.655 C 384.562 306.583, 383.995 306.004, 379.406 309.504 C 373.607 313.927, 371.311 320.359, 370.483 334.500 C 369.484 351.545, 366.601 359.551, 357.885 369.478 C 354.942 372.830, 349 376.827, 349 375.455 C 349 375.127, 350.770 372.753, 352.933 370.179 C 361.031 360.545, 364.168 351.136, 365.949 331.132 C 367.307 315.891, 369.506 311.101, 378.590 303.609 C 382.329 300.524, 385.736 298, 386.159 298 C 386.583 298, 387.411 297.100, 388 296 C 388.589 294.900, 388.942 294.012, 388.785 294.027 C 388.628 294.042, 385.502 295.333, 381.837 296.897 M 629 312.992 C 606.249 319.064, 587.016 336.938, 579.319 359.165 C 575.869 369.128, 574.978 387.308, 577.405 398.219 C 581.865 418.267, 596.788 437.540, 614.355 445.939 C 670.506 472.788, 730.507 418.005, 710.436 358.214 C 699.123 324.514, 662.348 304.092, 629 312.992 M 426.929 322.312 C 413.147 326.194, 401.192 339.680, 397.892 355.067 C 396.242 362.761, 397.248 377.339, 399.902 384.202 C 405.615 398.971, 422.283 409.746, 435.250 407.051 C 455.822 402.775, 468 385.826, 468 361.471 C 468 335.521, 447.940 316.394, 426.929 322.312 M 615.447 327.403 C 592.892 334.468, 578.579 355.365, 578.739 381 C 579.016 425.316, 626.150 447.955, 658.756 419.433 C 685.535 396.006, 681.375 349.342, 650.937 331.737 C 641.503 326.281, 625.335 324.306, 615.447 327.403 M 614.762 334.942 C 594.959 341.272, 581.892 360.292, 582.088 382.500 C 582.142 388.696, 583.760 395.204, 583.952 390 C 584.086 386.357, 587.253 379.921, 591.024 375.626 C 602.959 362.033, 625.692 365.205, 633.980 381.621 C 643.312 400.104, 630.115 422.520, 609.568 423.084 C 603.555 423.249, 614.742 427.265, 622.657 427.783 C 656.313 429.985, 679.603 391.099, 664.302 358.252 C 655.442 339.235, 633.553 328.935, 614.762 334.942 M 421.125 354.704 C 404.266 360.662, 399.779 384.888, 413.162 397.693 C 423.087 407.189, 436.942 407.110, 446.549 397.504 C 465.221 378.832, 445.724 346.011, 421.125 354.704 M 433.655 361.829 C 430.007 365.859, 432.451 372.061, 437.746 372.212 C 443.422 372.373, 446.563 367.034, 443.523 362.394 C 441.570 359.414, 436.123 359.102, 433.655 361.829 M 500.409 374.400 C 491.695 376.066, 486.006 378.058, 485.983 379.451 C 485.974 380.028, 484.503 384.108, 482.714 388.517 L 479.462 396.533 487.481 395.782 C 500.626 394.550, 519.313 396.372, 532.346 400.155 C 541.585 402.837, 540.168 403.516, 529.863 401.344 C 519.575 399.176, 492.407 398.927, 480.500 400.891 C 468.614 402.853, 442.676 410.990, 440.100 413.567 C 439.855 413.812, 441.717 415.988, 444.237 418.402 C 453.011 426.809, 452.833 429.765, 443.993 422.463 C 418.118 401.090, 388.515 409.764, 382.876 440.371 C 381.688 446.819, 380 449.350, 380 444.684 C 380 442.812, 378.916 441.919, 374.344 440.024 C 366.989 436.975, 355.891 429.470, 349.119 422.965 L 343.738 417.795 341.357 420.648 C 318.302 448.268, 309.246 472.278, 310.297 503 C 312.126 556.487, 354.044 603.364, 425.044 631.319 C 479.876 652.908, 543.292 657.459, 608.500 644.484 C 694.241 627.423, 750.508 585.711, 763.521 529.563 C 770.839 497.982, 763.338 464.151, 743.045 437.220 C 736.257 428.212, 735.712 426.947, 739.904 429.932 C 741.502 431.069, 742.996 432, 743.225 432 C 743.454 432, 742.616 425.813, 741.363 418.250 C 740.110 410.688, 739.066 403.086, 739.043 401.357 C 738.999 398.161, 737.634 397, 733.918 397 C 732.494 397, 731.998 397.709, 731.991 399.750 C 731.975 404.582, 725.478 421.566, 720.741 429.156 C 696.689 467.700, 648.989 482.978, 609.128 464.904 C 604.137 462.641, 602.455 462.255, 601.836 463.231 C 601.350 463.997, 601.020 462.914, 601.003 460.500 C 600.906 446.106, 591.354 431.895, 578.560 427.108 C 566.160 422.469, 553.075 423.710, 538.511 430.907 C 530.570 434.831, 529.141 435.199, 530.521 432.967 C 533.237 428.571, 549.182 421.335, 560.057 419.562 L 563.615 418.982 560.840 410.687 C 559.314 406.125, 557.489 398.592, 556.783 393.946 L 555.500 385.500 547 381.247 C 532.498 373.992, 515.558 371.502, 500.409 374.400 M 616.707 376.016 C 612.157 379.595, 613.494 386.168, 619.043 387.502 C 622.562 388.348, 627 384.787, 627 381.119 C 627 375.197, 621.325 372.383, 616.707 376.016 M 733.776 385.250 C 733.529 389.238, 733.415 392.624, 733.523 392.777 C 733.631 392.929, 740.649 393.867, 749.118 394.862 C 770.088 397.325, 769.184 396.613, 770.550 411.758 C 771.471 421.971, 776.999 426.067, 783.139 421.084 C 785.345 419.294, 785.500 418.491, 785.494 408.834 C 785.488 396.897, 782.958 389.933, 777.500 386.826 C 775.230 385.534, 738.889 378, 734.926 378 C 734.541 378, 734.023 381.262, 733.776 385.250 M 591.953 422.912 C 593.596 425.983, 602.140 432.448, 608.582 435.495 C 617.292 439.616, 636.305 442.921, 634.500 440 C 634.160 439.450, 632.878 439, 631.651 439 C 624.262 439, 607.841 432.362, 596.972 424.981 C 592.307 421.813, 591.098 421.315, 591.953 422.912 M 406.455 432.455 C 399.830 439.079, 406.282 446.937, 423.688 453.441 C 427.641 454.919, 432.746 457.482, 435.031 459.137 C 440.062 462.782, 440.418 462.547, 438.914 456.575 C 434.609 439.476, 414.429 424.480, 406.455 432.455 M 552.929 445.367 C 543.530 447.902, 532.118 456.529, 527.308 464.738 C 524.151 470.124, 524.626 470.661, 530.696 468.571 C 533.338 467.661, 540.283 466.279, 546.128 465.499 C 565.440 462.923, 574.074 456.262, 568.471 448.261 C 565.840 444.506, 560.093 443.436, 552.929 445.367 M 772.179 493.706 C 772.472 496.258, 772.890 496.522, 777 496.755 C 791.369 497.567, 814.086 500.401, 819.404 502.043 C 833.051 506.258, 836.970 517.380, 835.005 546.318 C 830.340 614.998, 829.627 621.417, 825.968 627.724 L 824.098 630.948 828.799 630.352 C 837.972 629.187, 841.322 626.019, 843.580 616.374 C 846.279 604.850, 850.287 558.465, 850.396 537.500 C 850.589 500.324, 848.507 498.610, 797 493.556 C 788.475 492.719, 779.331 491.782, 776.679 491.473 C 771.880 490.915, 771.860 490.925, 772.179 493.706 M 773 508.369 C 773 522.690, 768.187 542.324, 761.080 556.996 L 758.002 563.351 764.783 570.425 C 777.947 584.160, 789.753 601.032, 799.407 619.906 L 805.082 631 811.319 631 C 824.517 631, 825.675 627.651, 828.434 581.500 C 831.570 529.016, 831.472 522.012, 827.481 513.601 C 824.279 506.853, 818.930 505.157, 792.500 502.508 C 770.836 500.337, 773 499.686, 773 508.369 M 469.520 548.003 C 463.373 549.110, 450.221 553.834, 449.346 555.249 C 448.918 555.941, 449.677 556.043, 451.601 555.553 C 477.900 548.848, 492.621 551.131, 513.619 565.173 C 527.945 574.752, 531.478 576.184, 540.102 575.904 L 547.119 575.676 553.810 581.349 C 557.489 584.469, 563.254 588.400, 566.619 590.084 C 586.598 600.081, 605.700 585.877, 596.298 568.015 C 592.137 560.109, 586.035 556.481, 577.024 556.554 C 570.116 556.610, 570.598 556.422, 550.652 566.824 C 540.566 572.083, 532.484 570.961, 520.146 562.587 C 500.512 549.261, 485.906 545.053, 469.520 548.003 M 569 564.018 C 566.525 565.171, 561.711 567.744, 558.303 569.734 L 552.106 573.354 557.803 577.812 C 573.165 589.832, 588.427 591.403, 592.609 581.394 C 594.555 576.735, 593.441 575.408, 586.482 574.100 C 580.697 573.013, 576.517 573.595, 573 575.978 C 567.761 579.528, 567.359 579.629, 569.115 576.957 C 572.088 572.433, 576.784 570.496, 584.673 570.540 C 591.154 570.577, 591.757 570.415, 590.925 568.860 C 587.711 562.854, 576.710 560.424, 569 564.018 M 605.445 567.500 C 609.248 577.199, 610.271 581.294, 610.378 587.242 C 610.506 594.324, 611.392 595.728, 613.025 591.435 C 615.614 584.625, 612.491 572.275, 606.972 567.500 L 604.661 565.500 605.445 567.500 M 461.507 577.014 C 465.198 584.152, 477.151 590.092, 493.081 592.707 C 506.150 594.853, 509.732 593.390, 497.500 590.903 C 483.665 588.090, 473.166 583.549, 465.022 576.858 C 460.566 573.196, 459.556 573.241, 461.507 577.014 M 557.253 600.292 C 557.468 600.956, 560.705 603.069, 564.446 604.987 C 575.761 610.788, 589.224 610.331, 597.442 603.867 C 601.505 600.671, 600.421 599.877, 595.250 602.260 C 587.886 605.655, 571.848 605.397, 563.181 601.746 C 559.473 600.184, 557.023 599.583, 557.253 600.292 M 830.478 636.227 L 825.455 637.080 823.153 692.290 C 821.887 722.656, 820.629 748.288, 820.358 749.250 C 819.928 750.779, 820.633 751, 825.933 751 L 832 751 832.017 747.250 C 832.026 745.188, 832.906 719.218, 833.973 689.539 C 835.039 659.861, 835.819 635.532, 835.706 635.476 C 835.593 635.420, 833.240 635.758, 830.478 636.227 M 808.577 638.341 C 808.937 639.529, 810.592 644.775, 812.256 650 C 813.920 655.225, 816.269 664.450, 817.476 670.500 L 819.671 681.500 820.215 659.500 C 820.515 647.400, 820.702 637.448, 820.630 637.385 C 820.559 637.322, 817.670 637.026, 814.212 636.727 C 808.126 636.200, 807.944 636.252, 808.577 638.341 M 631 705.429 C 631 705.665, 633.561 706.602, 636.690 707.512 C 645.404 710.045, 655.315 715.442, 662.593 721.616 C 666.215 724.689, 668.705 726.317, 668.126 725.235 C 666.348 721.913, 655.994 713.030, 650.877 710.438 C 644.187 707.048, 631 703.725, 631 705.429 M 651 705.453 C 651 705.702, 652.913 706.773, 655.250 707.832 C 657.587 708.890, 661.515 711.134, 663.977 712.818 C 669.161 716.364, 670.811 716.088, 666.461 712.403 C 661.762 708.422, 651 703.585, 651 705.453 M 816.149 720.500 C 815.407 723.800, 813.023 730.320, 810.852 734.990 C 805.476 746.553, 805.930 751, 812.485 751 L 816.795 751 817.484 737.750 C 817.862 730.462, 818.021 722.250, 817.836 719.500 L 817.500 714.500 816.149 720.500 M 424 758.499 C 443.527 760.661, 455.241 764.828, 465.276 773.186 L 470.052 777.163 479.276 772.609 C 499.112 762.815, 527.434 758.738, 544.822 763.174 C 545.525 763.353, 546.731 762.038, 547.502 760.250 L 548.903 757 480.702 757.113 C 419.741 757.214, 413.721 757.362, 424 758.499 M 852.475 795.197 C 833.239 814.088, 803.663 842.990, 786.750 859.422 L 756 889.299 756 901.827 L 756 914.355 764.260 906.427 C 793.364 878.494, 863.577 810.069, 874.146 799.338 L 886.791 786.500 887.510 774.842 C 887.905 768.431, 888.053 762.659, 887.839 762.017 C 887.625 761.374, 871.711 776.306, 852.475 795.197 M 407.500 763.182 C 398.303 763.809, 389.217 765.393, 362.687 770.995 C 347.723 774.154, 333.470 775.961, 323.353 775.982 L 314.206 776 295.353 790.193 C 255.632 820.095, 223.983 845.163, 224.630 846.210 C 226.403 849.079, 259.215 845.300, 291.305 838.530 C 342.421 827.748, 368.833 829.492, 391.951 845.177 L 399.478 850.284 408.989 840.196 C 414.220 834.648, 429.414 818.888, 442.753 805.174 L 467.007 780.239 463.253 776.852 C 451.184 765.963, 432.806 761.456, 407.500 763.182 M 551.449 767.468 C 548.478 774.579, 550.436 784.470, 555.772 789.295 C 557.725 791.061, 557.791 790.964, 559.878 783.227 C 563.424 770.087, 562.162 764, 555.892 764 C 553.421 764, 552.645 764.605, 551.449 767.468 M 803 764.914 C 801.625 765.356, 787.450 772.024, 771.500 779.732 C 755.550 787.439, 736.425 796.566, 729 800.012 C 721.575 803.458, 704.378 811.835, 690.784 818.626 L 666.067 830.974 650.884 851.221 C 642.533 862.357, 635.655 872.150, 635.600 872.984 C 635.490 874.645, 642.283 874.667, 675.500 873.117 L 691.500 872.370 709.446 862.600 L 727.392 852.830 743.196 852.950 C 753.212 853.027, 759 852.702, 759 852.064 C 759 851.454, 753.796 850.948, 745.772 850.779 L 732.544 850.500 747.522 842.381 C 755.760 837.916, 771.405 829.591, 782.289 823.881 C 825.516 801.204, 828.550 798.843, 828.396 788.002 C 828.198 774.038, 814.200 761.311, 803 764.914 M 518 765.624 C 504.037 767.300, 484.078 773.592, 474.794 779.244 C 471.566 781.208, 412 841.204, 412 842.490 C 412 842.756, 414.515 841.863, 417.588 840.504 C 444.957 828.400, 472.113 828.853, 530.500 842.388 C 551.474 847.250, 579.917 850.115, 592.097 848.594 L 597.536 847.914 605.660 837.707 C 610.128 832.093, 615.626 825.194, 617.877 822.376 L 621.970 817.251 611.641 817.166 C 587.432 816.968, 567.348 809.521, 553.428 795.582 C 545.252 787.395, 543.378 782.793, 544.260 773.068 L 544.794 767.184 541.647 766.629 C 536.853 765.785, 521.942 765.151, 518 765.624 M 801.250 770.220 C 798.243 771.671, 798.358 771.924, 803.925 776.161 C 809.804 780.636, 813.247 787.271, 813.823 795.236 C 814.294 801.735, 814.288 801.731, 818.775 798.996 C 830.072 792.108, 821.313 768.863, 807.500 769.074 C 805.300 769.108, 802.487 769.624, 801.250 770.220 M 243 771 C 244.691 772.093, 264.759 772.118, 285 771.053 C 296.612 770.442, 294.515 770.321, 270 770.187 C 251.292 770.084, 242.015 770.364, 243 771 M 571.324 776.612 C 566.921 778.783, 561 788.440, 561 793.450 C 561 794.892, 568.678 799.805, 575.405 802.668 L 580.500 804.837 581.706 799.168 C 583.991 788.433, 582.804 779.377, 578.739 776.529 C 576.040 774.640, 575.307 774.648, 571.324 776.612 M 795.543 776.863 C 801.893 780.736, 805.039 785.793, 808.067 797 L 809.824 803.500 809.912 797.718 C 810.050 788.674, 805.265 779.777, 798.549 776.590 C 793.935 774.401, 791.820 774.593, 795.543 776.863 M 788.404 778.309 C 796.416 783.320, 801.440 791.397, 802.845 801.527 C 803.643 807.281, 803.716 807.397, 804.837 804.685 C 807.225 798.906, 805.475 788.438, 801.345 783.792 C 799.307 781.499, 790.359 776.991, 788 777.069 C 786.875 777.105, 786.976 777.415, 788.404 778.309 M 228 778.958 C 216.083 779.403, 214.353 779.645, 218.285 780.317 C 224.118 781.312, 261 780.049, 261 778.854 C 261 777.980, 253.538 778.004, 228 778.958 M 784.500 781.659 C 792.829 786.042, 797.955 794.701, 798.021 804.500 C 798.053 809.277, 798.280 810.123, 799.137 808.647 C 801.298 804.930, 799.742 793.517, 796.433 788.808 C 792.812 783.656, 787.649 779.985, 784.102 780.040 L 781.500 780.080 784.500 781.659 M 596.966 783.820 C 591.507 786.240, 587.136 792.285, 585.378 799.847 C 584.399 804.059, 584.365 805.608, 585.241 806.149 C 586.883 807.164, 602.832 810.004, 606.875 810.002 L 610.251 810 609.817 801.726 C 609.137 788.779, 603.500 780.924, 596.966 783.820 M 736.500 801.838 C 715.050 812.189, 692.650 823.093, 686.723 826.070 L 675.946 831.483 680.223 832.615 C 682.575 833.238, 684.950 833.893, 685.500 834.071 C 686.050 834.249, 708.550 823.449, 735.500 810.071 L 784.500 785.748 781 784.450 C 779.075 783.736, 777.050 783.122, 776.500 783.086 C 775.950 783.049, 757.950 791.488, 736.500 801.838 M 737 812.371 C 683.264 839.265, 684.888 838.121, 691.657 844.324 L 695.435 847.787 744.217 823.391 C 771.048 809.974, 793 798.474, 793 797.836 C 793 795.821, 787.970 787.998, 786.708 788.049 C 786.044 788.076, 763.675 799.021, 737 812.371 M 621.305 790.499 C 617.792 792.960, 614.874 798.659, 614.061 804.647 L 613.298 810.274 622.899 809.679 C 635.529 808.896, 637.001 808.422, 636.994 805.133 C 636.970 793.750, 628.261 785.627, 621.305 790.499 M 744.023 826.421 C 692.751 852.152, 691.348 853.045, 694.098 858.183 C 694.594 859.110, 695 861.011, 695 862.408 L 695 864.948 699.750 862.163 C 702.362 860.631, 712.150 855.394, 721.500 850.526 C 738.642 841.600, 792.260 813.023, 792.781 812.535 C 793.581 811.785, 794.148 802.007, 793.389 802.046 C 792.900 802.071, 770.685 813.040, 744.023 826.421 M 647.500 812.134 C 645.542 813.111, 615.526 851.291, 608.420 861.843 L 604.822 867.185 598.161 866.578 C 589.740 865.811, 536.632 862.622, 488.500 859.994 C 444.848 857.610, 422.339 856.139, 419.294 855.469 C 417.802 855.141, 415.993 855.946, 413.702 857.957 C 409.220 861.892, 406.026 863.001, 399.185 862.996 C 393.381 862.992, 387 860.312, 387 857.877 C 387 856.642, 377.675 856.785, 278 859.545 C 249.675 860.330, 222.548 860.978, 217.719 860.986 C 210.735 860.997, 208.816 861.316, 208.345 862.543 C 208.019 863.392, 207.974 864.307, 208.244 864.578 C 208.515 864.848, 225.333 864.621, 245.618 864.073 C 265.903 863.525, 305.267 862.539, 333.094 861.883 L 383.689 860.689 385.884 862.884 C 392.071 869.071, 409.603 868.479, 416.664 861.846 C 418.550 860.074, 419.668 859.873, 424.678 860.402 C 427.880 860.740, 442.875 861.686, 458 862.505 C 473.125 863.324, 492.925 864.466, 502 865.042 C 558.553 868.635, 605.577 870.766, 606.754 869.789 C 607.453 869.209, 609.693 866.432, 611.732 863.618 C 613.772 860.803, 623.441 848.063, 633.220 835.306 C 653.045 809.444, 653.115 809.331, 647.500 812.134 M 637 815 C 635.625 815.440, 632.853 815.845, 630.840 815.900 C 627.342 815.996, 626.617 816.711, 614.340 832.176 C 599.207 851.240, 599.656 850.563, 600.795 852.598 C 601.507 853.871, 603.841 851.479, 612.261 840.848 C 622.273 828.208, 634.285 814.450, 630.335 820.147 C 627.015 824.935, 607.716 849.433, 604.737 852.640 C 601.978 855.611, 601.900 855.930, 603.281 858.566 C 604.739 861.349, 604.743 861.349, 605.908 859.172 C 606.550 857.973, 614.169 847.881, 622.839 836.746 C 637.706 817.653, 640.546 813.862, 639.809 814.100 C 639.639 814.155, 638.375 814.560, 637 815 M 201 824.650 C 191.445 825.551, 156.592 828.103, 150 828.384 C 145.875 828.560, 150.600 828.611, 160.500 828.496 C 180.950 828.260, 210.160 826.068, 209.393 824.827 C 208.890 824.013, 207.961 823.994, 201 824.650 M 668.212 836.275 C 667.006 837.558, 662.921 842.849, 659.133 848.033 L 652.247 857.458 654.546 860.479 C 655.810 862.140, 657.164 864.782, 657.555 866.349 L 658.267 869.198 673.883 868.505 C 686.423 867.949, 689.746 867.498, 690.750 866.215 C 692.371 864.143, 692.335 861.840, 690.644 859.528 C 689.495 857.957, 689.527 857.068, 690.853 853.693 L 692.417 849.711 689.253 847.070 C 687.513 845.617, 685.506 842.645, 684.793 840.464 C 683.558 836.683, 683.267 836.473, 678.499 835.911 C 675.750 835.587, 672.803 835.011, 671.952 834.632 C 670.972 834.194, 669.600 834.797, 668.212 836.275 M 331.500 835.684 C 323.046 836.418, 305.934 839.263, 292.630 842.147 C 265.545 848.019, 257.214 849.158, 237.250 849.718 C 225.378 850.052, 218 850.644, 218 851.264 C 218 852.575, 261.774 851.546, 271.851 849.998 C 280.874 848.611, 282.549 849.354, 273.805 850.865 C 263.204 852.695, 249.249 853.934, 233 854.485 C 222.615 854.838, 217.373 855.392, 217.114 856.164 C 216.561 857.815, 276.875 856.361, 287 854.479 C 317.395 848.828, 319.778 848.586, 345 848.586 C 369.220 848.586, 369.637 848.622, 381.500 851.714 C 399.430 856.388, 390.138 851.077, 371 845.713 C 364.429 843.871, 360.714 843.604, 341 843.556 C 328.625 843.526, 320.525 843.190, 323 842.808 C 325.475 842.426, 334.925 842.050, 344 841.972 C 365.584 841.787, 378.643 844.371, 392.500 851.572 L 395.500 853.130 392.125 850.138 C 380.269 839.626, 355.127 833.632, 331.500 835.684 M 441.660 836.992 C 430.405 839.010, 418.236 843.696, 406.256 850.624 C 399.123 854.749, 404.156 854.185, 411.966 849.984 C 423.422 843.823, 449.857 838.551, 457.500 840.904 C 460.060 841.693, 459.547 841.841, 454 841.915 C 441.540 842.083, 423.724 846.069, 414.543 850.744 C 408.270 853.938, 410.107 854.852, 417.351 852.142 C 426.862 848.583, 438.269 847, 454.360 847.005 C 469.842 847.009, 494.275 849.821, 497.759 851.999 C 499.177 852.885, 498.943 852.986, 496.500 852.542 C 478.803 849.324, 452.540 848.210, 436.834 850.009 C 420.442 851.888, 424.183 852.500, 452.309 852.542 C 472.836 852.573, 484.102 853.049, 493.750 854.292 C 520.498 857.740, 533.036 858.948, 557.500 860.438 C 571.250 861.276, 586.900 862.244, 592.279 862.590 L 602.057 863.220 600.983 860.860 C 599.910 858.503, 599.887 858.500, 584.209 858.844 C 564.126 859.285, 540.995 856.870, 518.181 851.951 C 507.611 849.672, 514.127 849.933, 529.144 852.390 C 537.590 853.772, 548.870 855.375, 554.211 855.951 C 565.328 857.152, 599.008 857.377, 598.985 856.250 C 598.927 853.405, 596.817 852.991, 580.442 852.606 C 560.487 852.138, 548.307 850.428, 522.432 844.464 C 491.506 837.336, 488.199 836.864, 466.500 836.479 C 455.500 836.284, 444.322 836.514, 441.660 836.992 M 325.488 851.060 C 320.532 851.573, 312.207 852.646, 306.988 853.444 L 297.500 854.895 308.500 854.463 C 314.550 854.225, 331.650 853.719, 346.500 853.339 C 364.288 852.883, 372.306 852.365, 370 851.821 C 364.510 850.525, 335.453 850.028, 325.488 851.060 M 130.312 860.748 C 139.009 860.915, 152.959 860.915, 161.312 860.748 C 169.666 860.581, 162.550 860.444, 145.500 860.445 C 128.450 860.445, 121.616 860.582, 130.312 860.748" stroke="none" fill="#1a1a1a" fill-rule="evenodd"/>
</svg>