<svg xmlns="http://www.w3.org/2000/svg" width="1024" height="1024" viewBox="0 0 1024 1024" version="1.1">
	<path d="M 590.662 93.483 C 580.183 97.505, 576.193 102.393, 565.486 124.327 C 560.741 134.047, 556.728 142, 556.568 142 C 556.408 142, 553.300 140.650, 549.662 139.001 C 527.154 128.795, 484.855 122.352, 457.328 124.936 C 435.844 126.953, 420.200 130.608, 402.591 137.726 L 393.683 141.326 391.731 138.916 C 388.827 135.330, 384.576 126.410, 382.001 118.500 C 376.220 100.744, 369.373 93.964, 357.282 94.024 C 339.017 94.114, 320.480 115.777, 322.278 134.928 C 323.521 148.178, 330.913 159.529, 343.883 168.107 L 351.879 173.396 349.925 175.948 C 342.005 186.292, 336.106 195.537, 330.698 206.080 C 324.935 217.314, 324.104 218.436, 320.664 219.627 C 316.414 221.098, 311 224.687, 311 226.034 C 311 226.527, 313.250 227.230, 316 227.594 C 318.750 227.959, 321 228.545, 321 228.897 C 321 229.249, 319.906 234.379, 318.568 240.298 C 316.416 249.823, 315.009 262.393, 313.660 284.136 C 313.111 292.986, 309.660 299.169, 300.311 308.049 C 293.335 314.676, 292.770 315, 288.175 315 C 277.608 315, 267.144 321.588, 263.219 330.714 C 262.085 333.348, 259.948 336.627, 258.468 338.001 C 250.682 345.232, 243.868 359.546, 240.318 376.127 C 236.103 395.816, 238.623 431.267, 245.427 448.013 C 251.600 463.205, 265.105 476.783, 279.500 482.269 C 282.587 483.446, 286.807 486.388, 290.529 489.959 C 297.618 496.758, 305.334 501.869, 316.282 507.015 L 324.207 510.740 320.525 513.548 C 311.942 520.095, 298.555 537.930, 291.256 552.542 C 272.290 590.514, 278.004 630.920, 304.540 646.470 L 308.800 648.967 306.996 654.764 C 300.710 674.963, 299.660 709.966, 304.714 730.905 L 305.295 733.310 276.897 732.620 C 261.279 732.240, 237.025 731.499, 223 730.973 C 162.162 728.692, 101.712 726.955, 101.194 727.473 C 99.395 729.272, 106.150 729.880, 139.500 730.923 C 159.850 731.559, 195.175 732.711, 218 733.483 C 240.825 734.255, 269.946 735.198, 282.713 735.578 L 305.927 736.270 308.002 742.505 C 309.143 745.934, 312.033 752.543, 314.425 757.191 C 318.635 765.373, 318.810 766.086, 319.920 779.571 C 321.150 794.525, 323.293 809.621, 325.640 819.868 C 326.442 823.370, 326.964 826.353, 326.799 826.498 C 326.635 826.642, 307.600 832.937, 284.500 840.487 C 261.400 848.037, 238.675 855.479, 234 857.025 C 222.776 860.738, 119.548 894.171, 110.250 897.106 C 103.403 899.267, 100.931 901, 104.696 901 C 106.538 901, 124.916 895.283, 162.500 883.020 C 175.700 878.713, 203.375 869.691, 224 862.972 C 244.625 856.253, 276.324 845.873, 294.443 839.905 C 312.562 833.936, 327.453 829.154, 327.533 829.277 C 327.614 829.399, 328.878 833.775, 330.341 839 C 331.804 844.225, 335.007 854.800, 337.460 862.500 C 343.060 880.085, 343.189 884.001, 338.556 895.855 C 331.892 912.911, 333.012 918.754, 344 924.252 C 353.996 929.255, 362.121 930.444, 386.500 930.474 C 409.976 930.502, 416.471 929.662, 432.875 924.479 C 450.532 918.900, 454.619 913.583, 456.054 894.329 C 456.580 887.273, 457.485 875.200, 458.065 867.500 C 458.975 855.430, 461.617 834.046, 462.281 833.388 C 462.401 833.268, 469.421 833.046, 477.881 832.895 L 493.261 832.619 495.297 836.560 C 498.498 842.757, 506.621 863.076, 509.348 871.709 C 513.682 885.428, 515 894.049, 515.004 908.708 C 515.008 924.142, 515.737 926.410, 522.310 931.423 C 537.344 942.890, 581.929 944.448, 608.736 934.443 C 622.616 929.263, 630.863 921.112, 632.960 910.500 C 634.022 905.124, 638.112 863.511, 640.118 837.661 L 641.348 821.823 648.924 822.438 C 653.091 822.777, 677.650 824.170, 703.500 825.534 C 729.350 826.899, 761.525 828.669, 775 829.468 C 788.475 830.267, 809.523 831.468, 821.772 832.138 C 834.022 832.807, 843.697 833.703, 843.272 834.127 C 842.417 834.983, 793.057 864.221, 719 907.741 C 632.704 958.452, 619.576 966.194, 614.865 969.151 C 611.125 971.499, 609.484 971.956, 606.365 971.518 C 604.239 971.219, 590.350 970.066, 575.500 968.955 C 560.650 967.845, 531.850 965.607, 511.500 963.983 C 491.150 962.359, 462.575 960.119, 448 959.004 C 407.171 955.884, 348.287 951.266, 308 948.025 C 287.925 946.410, 262.275 944.397, 251 943.552 C 239.725 942.707, 218.575 941.120, 204 940.026 C 189.425 938.932, 175.363 937.788, 172.750 937.484 C 168.907 937.037, 168 937.224, 168 938.466 C 168 939.388, 168.898 940.003, 170.250 940.009 C 171.488 940.013, 177.450 940.447, 183.500 940.972 C 189.550 941.497, 210.250 943.089, 229.500 944.510 C 270.962 947.570, 317.893 951.199, 352.500 954.022 C 384.701 956.649, 463.803 962.832, 538 968.523 C 570.175 970.991, 600.645 973.458, 605.711 974.005 C 617.472 975.276, 625 975.274, 625 974 C 625 973.450, 623.538 972.993, 621.750 972.985 C 614.958 972.953, 615.514 971.455, 624.163 966.480 C 628.749 963.842, 652.525 949.909, 677 935.517 C 701.475 921.125, 725.325 907.101, 730 904.352 C 768.521 881.704, 830.429 845.108, 838.865 839.999 L 849.231 833.722 864.865 834.384 C 873.464 834.747, 884.212 835.321, 888.750 835.660 C 895.726 836.180, 897 836.041, 897 834.759 C 897 833.491, 894.177 833.124, 879.750 832.515 C 850.319 831.272, 849.064 833.879, 891.068 809 C 923.351 789.879, 930.686 785, 927.154 785 C 926.597 785, 908.798 795.352, 887.600 808.005 L 849.059 831.009 829.780 829.976 C 819.176 829.409, 795.041 828.060, 776.148 826.980 C 757.254 825.900, 719.454 823.841, 692.148 822.406 C 664.841 820.970, 642.326 819.630, 642.114 819.428 C 641.901 819.226, 642.432 810.755, 643.293 800.604 C 644.761 783.296, 645.082 781.637, 648.456 773.964 C 650.435 769.463, 652.931 762.616, 654.003 758.748 C 655.074 754.880, 656.122 751.545, 656.330 751.336 C 656.857 750.810, 657.844 762.074, 658.625 777.510 L 659.284 790.520 652.408 796.034 C 645.192 801.819, 643.278 804.989, 644.371 809.341 C 646.303 817.041, 666.063 817.062, 681.232 809.381 C 688.437 805.732, 688.685 804.981, 689.943 783 C 690.557 772.275, 691.335 760.013, 691.673 755.750 L 692.288 748 696.532 748 C 701.635 748, 700.839 744.997, 705.007 779.958 C 706.902 795.852, 708.588 806.249, 709.495 807.632 C 713.023 813.018, 733.813 819.839, 742.680 818.520 C 754.903 816.702, 755.069 808.578, 743.094 798.163 L 737 792.863 737.005 781.181 C 737.008 774.757, 737.304 765.062, 737.663 759.639 L 738.316 749.778 751.602 750.166 C 758.909 750.379, 765.087 750.767, 765.332 751.027 C 765.576 751.287, 766.096 755.179, 766.486 759.675 L 767.195 767.851 761.173 772.527 C 751.495 780.043, 750.117 785.681, 757.085 789.248 C 765.428 793.520, 788.990 787.457, 792.643 780.099 C 793.299 778.778, 794.155 771.915, 794.546 764.849 L 795.257 752 801.435 752 L 807.614 752 809.280 766.750 L 810.947 781.500 814.591 784.708 C 823.910 792.910, 845.165 795.257, 849.548 788.567 C 851.950 784.902, 850.419 781.562, 843.388 775.119 L 837 769.265 837 761.064 L 837 752.863 844.750 753.427 C 853.526 754.067, 926.664 756.161, 947.357 756.366 C 955.832 756.449, 960.973 756.123, 960.992 755.500 C 961.010 754.882, 952.139 754.214, 937.761 753.752 C 924.967 753.340, 909.550 752.740, 903.500 752.419 L 892.500 751.834 892.780 604.167 C 893.130 418.953, 893.048 417.195, 883.065 396.310 C 861.711 351.640, 817.830 325.368, 765 325.625 C 718.160 325.852, 677.927 349.052, 659.967 386.191 L 656 394.394 656 384.328 C 656 359.416, 647.840 334.012, 632.669 311.688 C 626.341 302.377, 626 301.580, 626 296.083 C 626 259.219, 616.876 216.944, 603.341 191.092 C 598.099 181.080, 597.745 179.091, 601.196 179.015 C 605.947 178.911, 625.661 162.389, 630.817 154.192 C 640.999 138.002, 638.518 117.875, 624.597 103.730 C 615.080 94.060, 600.575 89.680, 590.662 93.483 M 594.123 97.952 C 585.527 100.109, 578.365 108.355, 571.574 123.908 C 566.475 135.588, 560.615 145.323, 555.419 150.746 C 550.390 155.995, 548.695 155.847, 552.030 150.451 C 554.758 146.038, 555.105 146.333, 541.500 141.509 C 518.551 133.371, 492.583 129.483, 466.500 130.279 C 407.028 132.093, 362.259 158.081, 337.477 205.175 C 331.370 216.779, 331.064 217.996, 334.250 218.010 C 340.114 218.035, 351.846 225.961, 369 241.485 C 385.280 256.218, 391.305 259.445, 397.016 256.492 C 400.352 254.767, 401.954 251.664, 402.082 246.685 L 402.163 243.500 403.685 246.997 C 407.290 255.280, 402.471 267.087, 394.325 269.930 C 390.528 271.255, 390.113 271.774, 388.658 277.007 C 386.445 284.966, 381.416 291.740, 373.903 296.881 C 370.381 299.291, 368.342 300.972, 369.371 300.617 C 373.532 299.179, 395.100 298.795, 407 299.947 C 425.704 301.757, 449.810 307.266, 451.583 310.134 C 452.009 310.824, 451.572 311.005, 450.375 310.635 C 416.035 300.032, 363.269 302.102, 327.691 315.448 C 322.297 317.472, 317.347 318.942, 316.691 318.716 C 315.058 318.152, 331.952 309.793, 340.248 307.061 L 346.996 304.838 341.012 301.848 C 335.742 299.215, 328.317 292.350, 329.480 291.187 C 329.713 290.953, 331.789 292.376, 334.093 294.348 C 339.510 298.985, 346.222 301.193, 353.666 300.787 C 358.712 300.512, 359.095 300.361, 356.500 299.668 C 340.256 295.332, 330.898 283.285, 330.167 265.768 C 329.728 255.246, 331.728 247.819, 336.786 241.193 C 339.469 237.678, 339.905 236.543, 338.845 235.827 C 336.920 234.528, 328.160 230, 327.572 230 C 325.585 230, 321.070 255.508, 320.008 272.729 C 318.658 294.626, 314.414 304.623, 303.058 312.659 C 298.066 316.191, 298.029 315.991, 304.224 319 C 309.545 321.585, 321.884 332.449, 320.768 333.566 C 320.420 333.913, 317.145 332.064, 313.490 329.456 C 288.041 311.296, 264 320.700, 264 348.815 C 264 356.675, 262.283 356.186, 261.320 348.052 L 260.693 342.756 258.835 345.128 C 248.805 357.933, 244.011 376.685, 244.004 403.140 C 243.992 446.089, 258.605 470.565, 290.727 481.401 C 297.520 483.692, 300.878 486.658, 295.348 485.482 C 290.059 484.357, 300.416 492.394, 311.956 498.369 C 342.810 514.346, 385.361 521.854, 438.451 520.688 C 530.589 518.666, 572.547 492.004, 575.663 433.500 C 576.692 414.192, 572.252 395.146, 561.211 371.500 C 553.509 355.006, 552.613 350.241, 556.060 344.107 C 558.174 340.345, 561.383 338.050, 562.694 339.361 C 562.993 339.660, 562.472 340.671, 561.535 341.608 C 555.668 347.475, 556.548 353.755, 565.802 372.064 C 577.521 395.250, 581.154 409.251, 581.135 431.153 C 581.119 448.889, 578.670 460.616, 572.345 473.250 C 569.525 478.881, 569.394 478.838, 577.279 474.865 C 586.620 470.158, 595.178 463.686, 602.464 455.816 C 609.515 448.200, 611.159 448.290, 605.512 455.983 C 597.015 467.558, 578.835 481.720, 568.281 484.986 C 564.495 486.157, 562.037 487.712, 559.928 490.271 C 547.157 505.764, 514.932 519.975, 480 525.518 C 432.692 533.024, 380.568 529.674, 340.511 516.551 L 327.523 512.296 321.666 518.398 C 307.293 533.375, 293.679 556.102, 288.958 573 C 285.968 583.704, 285.184 603.299, 287.398 612 C 293.901 637.564, 312.953 650.259, 345 650.381 C 374.259 650.493, 397.298 641.281, 438.144 613.135 C 447.431 606.736, 458.510 599.099, 462.764 596.164 C 477.904 585.721, 493.474 579.209, 507.493 577.458 L 513.093 576.758 516.027 570.947 L 518.960 565.136 515.230 562.197 C 501.019 550.999, 476.666 545.149, 449.194 546.335 C 427.753 547.260, 409.759 551.247, 384.310 560.709 C 372.217 565.206, 372.067 565.301, 365.464 572.650 C 355.014 584.279, 345.099 587.497, 339.151 581.188 C 336.879 578.777, 335.896 578.435, 332.276 578.790 C 327.775 579.232, 322 575.186, 322 571.590 C 322 570.730, 320.422 569.368, 318.494 568.562 C 306.500 563.551, 315.131 544.457, 333.469 535.432 C 347.293 528.629, 361.800 527.504, 377.815 531.993 C 386.242 534.355, 399.193 540.608, 403.954 544.615 C 407.158 547.311, 407.337 547.341, 412.862 546.109 C 457.147 536.235, 490.956 539.619, 515.890 556.421 C 518.855 558.419, 521.386 559.929, 521.516 559.777 C 521.646 559.624, 525.162 554.953, 529.331 549.396 C 537.901 537.971, 550.112 526.050, 558.110 521.299 C 565.685 516.799, 568.248 516.225, 563.500 520.091 C 543.689 536.221, 524.564 561.422, 514.415 584.767 C 512.659 588.806, 510.884 592.423, 510.470 592.805 C 509.641 593.571, 510.520 585.415, 511.558 582.709 C 512.117 581.252, 511.729 581.094, 508.855 581.611 C 494.299 584.228, 483.427 588.847, 468.614 598.708 C 455.144 607.675, 428 634.034, 428 638.147 C 428 640.505, 465.983 655.741, 482.443 659.985 C 515.090 668.403, 545.548 668.074, 567.175 659.071 C 592.616 648.480, 621.907 618.187, 637.102 586.750 C 638.365 584.138, 639.759 582, 640.199 582 C 643.926 582, 630.284 609.202, 619.097 624.079 C 576.111 681.246, 516.654 687.894, 428.913 645.347 L 411.326 636.818 406.366 639.870 C 386.668 651.990, 355.422 658.922, 326.318 657.629 C 309.990 656.904, 311.880 655.619, 309.437 669.104 C 307.273 681.053, 306.485 704.668, 307.899 715.220 C 310.495 734.605, 315.828 749.312, 327.033 767.986 C 331.016 774.626, 333.979 780.354, 333.617 780.716 C 333.255 781.079, 330.943 779.397, 328.479 776.979 C 326.016 774.562, 324 773.104, 324 773.741 C 324 788.025, 332.845 829.918, 341.473 856.500 C 347.713 875.723, 348.746 882.018, 346.764 888.750 L 345.219 894 347.975 894 C 351.696 894, 355.604 897.269, 357.024 901.571 L 358.192 905.111 361.346 901.504 C 369.091 892.646, 380.140 894.231, 385.155 904.920 C 387.952 910.882, 387.919 910.872, 390.678 906.612 C 393.965 901.536, 401.090 898.411, 406.014 899.886 C 412.141 901.722, 416.912 908.600, 418.475 917.852 C 419.311 922.799, 418.933 922.761, 430.088 919.024 C 448.361 912.902, 449.398 911.208, 450.973 884.889 C 452.030 867.227, 453.529 851.821, 454.620 847.410 C 455.304 844.643, 453.875 843.799, 434.500 835.530 C 401.951 821.638, 372 805.553, 372 801.964 C 372 801.423, 376.011 802.994, 380.913 805.456 C 407.008 818.562, 443.530 827.005, 474 826.975 C 493.573 826.956, 519.683 823.199, 533.074 818.474 C 535.233 817.712, 537 817.474, 537 817.944 C 537 819.478, 519.754 826.163, 508.922 828.829 L 498.344 831.431 504.091 843.466 C 515.469 867.292, 520.996 887.526, 521.004 905.381 L 521.007 914.500 522.995 911.241 C 530.008 899.738, 544.154 902.872, 547.923 916.764 L 548.665 919.500 550.447 916 C 558.899 899.396, 575.172 900.060, 583.387 917.343 L 585.720 922.253 586.438 919.376 C 590.809 901.868, 608.852 901.952, 615.558 919.512 L 617.311 924.102 621.199 920.306 C 627.511 914.143, 627.949 911.538, 633.544 847 C 638.533 789.462, 639.510 782.140, 643.936 769.169 C 657.030 730.796, 658.157 704.407, 649.062 649.207 C 644.356 620.651, 643.423 606.563, 645.472 595 C 650.022 569.312, 650.328 566.247, 650.410 545.500 C 650.517 518.500, 648.372 504.511, 639.831 476.500 C 636.035 464.052, 636.259 464.375, 633.754 467.716 C 630.561 471.978, 624.696 478, 623.740 478 C 623.271 478, 624.060 476.088, 625.493 473.750 C 660.316 416.978, 658.798 353.536, 621.427 303.742 C 614.397 294.374, 612.993 290.663, 618.500 296 C 620.425 297.866, 622 299.145, 622 298.842 C 622 298.540, 621.082 289.789, 619.960 279.396 C 615.407 237.213, 610.941 219.166, 598.745 193.669 C 593.182 182.039, 593.192 182.046, 586.614 184.589 C 582.044 186.356, 586.097 182.254, 592.273 178.861 C 609.824 169.219, 623.022 157.640, 628.597 146.991 C 632.742 139.074, 632.788 127.123, 628.705 118.808 C 621.337 103.805, 606.486 94.848, 594.123 97.952 M 347.497 101.349 C 340.813 104.462, 332.767 113.362, 329.955 120.753 C 323.970 136.489, 329.970 152.308, 346.686 164.863 C 354.570 170.784, 354.854 170.848, 358.069 167.426 C 360.104 165.260, 360.251 164.718, 358.994 164.008 C 350.931 159.451, 343.360 151.328, 339.912 143.534 C 337.444 137.954, 336.085 127, 337.861 127 C 338.488 127, 339 128.278, 339 129.841 C 339 139.011, 346.127 150.898, 355.950 158.113 L 362.401 162.851 367.219 158.817 L 372.037 154.783 368.562 150.937 C 364.325 146.247, 361.759 141.328, 357.396 129.531 C 352.315 115.793, 347.380 112.473, 338.654 116.921 C 334.068 119.260, 334.288 117.426, 338.975 114.250 C 344.776 110.320, 352.693 111.871, 356.760 117.735 C 357.815 119.256, 360.323 124.790, 362.333 130.034 C 366.240 140.224, 371.483 149.706, 374.105 151.319 C 375.322 152.068, 377.399 151.259, 382.718 147.963 L 389.727 143.620 385.531 137.492 C 383.224 134.121, 380.069 127.794, 378.521 123.432 C 372.703 107.034, 370.529 103.386, 364.800 100.405 C 360.704 98.274, 353.224 98.682, 347.497 101.349 M 603.500 110.326 C 595.372 113.507, 592.059 117.793, 586.031 132.922 C 580.136 147.718, 576.782 153.914, 571.464 159.829 C 564.041 168.085, 567.696 168.084, 575.689 159.827 C 581.323 154.008, 585.960 146.041, 590.971 133.572 C 597.668 116.909, 604.124 111.341, 613.744 113.931 C 616.035 114.548, 619.280 116.206, 620.955 117.615 C 625.130 121.129, 624.805 118.872, 620.519 114.586 C 615.511 109.577, 609.352 108.036, 603.500 110.326 M 616.607 134.058 C 614.726 145.820, 598.450 162.353, 582.035 169.174 C 576.330 171.545, 576.141 173.350, 581.758 171.805 C 599.080 167.041, 618.003 147.832, 618.183 134.830 C 618.257 129.462, 617.408 129.046, 616.607 134.058 M 412.923 211.690 C 411.316 215.896, 409.808 224.880, 410.516 226.027 C 411.551 227.700, 412.999 226.054, 413.012 223.191 C 413.018 221.711, 413.652 218.139, 414.421 215.253 C 415.915 209.639, 414.758 206.886, 412.923 211.690 M 520.571 219.106 C 512.610 221.844, 502.579 227.402, 484 239.370 C 454.906 258.112, 446.506 261.435, 439.314 257.050 C 435.082 254.469, 433.743 251.698, 434.165 246.391 C 434.609 240.811, 432.984 241.188, 431.215 247.076 C 427.488 259.486, 434.761 270.471, 447.636 271.881 C 453.194 272.490, 453.304 272.564, 454.474 276.500 C 463.512 306.891, 502.260 314.849, 524.457 290.873 C 536.981 277.346, 538.299 255.715, 527.464 241.520 L 523.946 236.912 528.285 234.992 C 535.032 232.007, 543.774 229.929, 552.250 229.295 C 556.513 228.975, 560 228.323, 560 227.845 C 560 226.465, 549.936 220.397, 544.700 218.619 C 538.147 216.395, 527.851 216.602, 520.571 219.106 M 652 268.004 L 652 311.008 766.250 310.754 L 880.500 310.500 880.761 270.352 L 881.023 230.203 876.583 227.602 L 872.144 225 762.072 225 L 652 225 652 268.004 M 655.007 268.250 L 655.013 308.500 678.257 308.471 C 691.040 308.454, 739.188 308.342, 785.250 308.221 L 869 308 869 268 L 869 228 762 228 L 655 228 655.007 268.250 M 872 268.500 L 872 308 875 308 L 878 308 878 269.661 L 878 231.321 875.453 230.161 C 874.052 229.522, 872.702 229, 872.453 229 C 872.204 229, 872 246.775, 872 268.500 M 664.672 236.662 C 664.302 237.031, 664 251.436, 664 268.672 L 664 300.010 761.750 299.755 L 859.500 299.500 859.500 268 L 859.500 236.500 762.422 236.245 C 709.028 236.105, 665.041 236.292, 664.672 236.662 M 417.534 241.763 C 412.865 251.327, 414.859 265.598, 421.607 270.905 C 426.321 274.613, 428.753 273.576, 424.578 269.638 C 418.265 263.685, 416.572 255.757, 419.098 243.980 C 420.457 237.642, 419.919 236.878, 417.534 241.763 M 667 268 L 667 298 762 298 L 857 298 857 268 L 857 238 762 238 L 667 238 667 268 M 340.158 242.940 C 327.496 260.420, 335.446 289.004, 354.511 294.546 C 366.519 298.037, 380.001 290.249, 384.425 277.266 C 387.185 269.167, 386.034 267.685, 381.810 273.898 C 374.929 284.021, 359.174 283.090, 353.171 272.207 C 350.045 266.541, 349.958 258.962, 352.951 253.095 C 354.167 250.712, 354.788 248.449, 354.331 248.067 C 353.874 247.685, 351.158 245.464, 348.296 243.132 L 343.092 238.891 340.158 242.940 M 513.644 241.619 L 508.788 244.146 510.846 246.337 C 522.984 259.257, 512.778 282, 494.843 282 C 486.277 282, 476 272.704, 476 264.957 C 476 263.789, 475.663 263.011, 475.250 263.229 C 474.837 263.447, 470.788 265.383, 466.250 267.531 C 457.029 271.897, 456.917 272.132, 460.438 279.695 C 463.754 286.816, 470.116 293.417, 476.857 296.728 C 485.340 300.895, 500.789 300.829, 509.438 296.589 C 526.028 288.454, 533.561 271.021, 528.146 253.293 C 526.313 247.290, 521.042 238.918, 519.177 239.047 C 518.805 239.072, 516.315 240.230, 513.644 241.619 M 464.606 299.416 C 466.150 303.440, 480.741 310.547, 490.213 311.888 C 501.892 313.542, 517.300 310.376, 526.184 304.497 C 532.033 300.626, 530.716 299.610, 524.148 302.925 C 507.762 311.197, 486.203 310.387, 470.735 300.917 C 465.468 297.693, 463.787 297.281, 464.606 299.416 M 444.275 318.475 C 435.688 320.893, 427.147 325.785, 420.893 331.868 C 412.954 339.588, 413.431 341.260, 421.750 334.874 C 439.047 321.595, 458.428 318.438, 471.871 326.710 C 477.351 330.082, 482.546 337.351, 483.497 342.979 C 484.249 347.435, 486 347.496, 486 343.067 C 486 325.837, 464.055 312.903, 444.275 318.475 M 751.500 328.620 C 720.844 333.292, 698.887 343.840, 680 362.968 C 660.441 382.777, 654 400.409, 654 434.143 L 654 452.110 659.750 447.422 C 662.913 444.844, 666.903 442.065, 668.617 441.246 C 671.947 439.655, 672.962 435.083, 673 421.500 C 673.021 413.890, 676.608 400.536, 680.971 391.819 C 700.689 352.423, 748.388 331.827, 795.274 342.462 C 834.590 351.381, 866.457 380.751, 875.501 416.404 L 877.896 425.845 878.280 588.673 L 878.665 751.500 884.333 751.800 L 890 752.100 890 593.774 C 890 493.233, 889.632 432.510, 888.991 427.398 C 883.040 379.944, 843.596 340.602, 791.816 330.476 C 783.751 328.899, 757.577 327.694, 751.500 328.620 M 278.302 338.501 C 273.859 341.613, 274.542 348.766, 279.814 354.342 C 283.186 357.909, 287.308 360.001, 297.740 363.441 C 302.271 364.935, 306.235 366.572, 306.549 367.079 C 307.621 368.814, 309 368.001, 309 365.634 C 309 361.674, 302.198 349.393, 297.366 344.629 C 290.019 337.386, 283.079 335.155, 278.302 338.501 M 446.500 340.882 C 440.961 343.427, 430.673 351.363, 427.156 355.803 C 420.637 364.035, 418.319 371.505, 423.074 368.960 C 424.149 368.385, 430.759 366.818, 437.764 365.477 C 457.292 361.740, 466 356.135, 466 347.304 C 466 339.765, 456.058 336.490, 446.500 340.882 M 760 343.016 C 748.927 343.910, 737.747 347.058, 726.133 352.552 C 693.445 368.017, 675 396.961, 675 432.791 C 675 437.880, 675.107 438.100, 677.250 437.413 C 701.078 429.769, 728.362 441.126, 738.784 463.028 C 750.759 488.193, 741.427 519.649, 718.420 531.670 C 713.602 534.188, 713.004 534.849, 713.002 537.670 C 713 540.609, 713.381 540.964, 718.250 542.558 C 735.641 548.251, 745.767 558.493, 747.620 572.266 L 748.262 577.032 751.725 570.266 C 759.875 554.342, 768.663 545.688, 781.203 541.234 C 787.495 539, 787.510 536.839, 781.250 534.487 C 748.083 522.023, 739.310 478.086, 765.081 453.504 C 791.306 428.490, 834.433 440.390, 844.536 475.429 C 847.538 485.838, 846.278 500.029, 841.494 509.710 C 837.030 518.742, 829.997 526.292, 821.669 530.991 C 814.135 535.244, 813.603 538.972, 820.250 540.946 C 828.414 543.371, 835.165 547.400, 840.087 552.785 L 845 558.161 845 553.781 C 845 551.371, 845.540 548.860, 846.200 548.200 C 847.781 546.619, 860.219 546.619, 861.800 548.200 C 863.068 549.468, 863.606 592.258, 862.393 595.418 C 861.609 597.460, 846.474 597.760, 845.662 595.750 C 845.323 594.909, 845.132 595, 845.079 596.028 C 845.036 596.869, 843.489 600.710, 841.642 604.564 C 839.505 609.024, 838.411 612.649, 838.635 614.536 C 843.884 658.849, 843.866 658.540, 841.161 659.248 C 839.441 659.697, 839.278 661.810, 838.654 691.614 C 838.287 709.151, 837.697 729.688, 837.344 737.250 L 836.702 751 856.371 751 L 876.041 751 875.768 588.250 L 875.495 425.500 873.225 417.500 C 859.732 369.957, 812.353 338.789, 760 343.016 M 429.177 389.667 C 429.663 392.176, 432 392.520, 432 390.083 C 432 388.855, 431.354 388, 430.427 388 C 429.495 388, 428.985 388.680, 429.177 389.667 M 291.570 389.887 C 290.889 390.988, 293.438 393.229, 294.342 392.325 C 294.704 391.963, 295 391.067, 295 390.333 C 295 388.844, 292.422 388.508, 291.570 389.887 M 454.510 389.984 C 453.773 391.177, 454.709 393, 456.059 393 C 457.276 393, 457.284 390.293, 456.069 389.543 C 455.557 389.226, 454.856 389.425, 454.510 389.984 M 275.446 398.087 C 274.416 399.755, 276.733 401.667, 278.113 400.287 C 279.267 399.133, 278.545 397, 277 397 C 276.515 397, 275.816 397.489, 275.446 398.087 M 445 406.500 C 445 407.325, 445.675 408, 446.500 408 C 447.325 408, 448 407.325, 448 406.500 C 448 405.675, 447.325 405, 446.500 405 C 445.675 405, 445 405.675, 445 406.500 M 422.651 409.468 C 421.945 411.306, 423.820 412.580, 425.200 411.200 C 426.267 410.133, 425.500 408, 424.048 408 C 423.589 408, 422.960 408.661, 422.651 409.468 M 267 412.500 C 267 413.325, 267.675 414, 268.500 414 C 269.325 414, 270 413.325, 270 412.500 C 270 411.675, 269.325 411, 268.500 411 C 267.675 411, 267 411.675, 267 412.500 M 290 413.500 C 290 414.325, 290.675 415, 291.500 415 C 292.325 415, 293 414.325, 293 413.500 C 293 412.675, 292.325 412, 291.500 412 C 290.675 412, 290 412.675, 290 413.500 M 457 428.637 C 444.364 430.482, 429.236 435.217, 410.765 443.108 L 397.030 448.976 390.265 447.447 C 372.906 443.524, 342.950 444.529, 325.212 449.630 C 311.693 453.517, 290.131 465.465, 292.450 467.783 C 292.637 467.970, 296.593 466.068, 301.240 463.555 C 318.111 454.433, 331.355 451.118, 354 450.351 C 381.608 449.416, 401.817 453.819, 441.019 469.309 C 465.688 479.057, 470.921 480.733, 479.384 481.595 C 494.461 483.132, 505 474.792, 505 461.326 C 505 440.650, 482.001 424.987, 457 428.637 M 457.500 434.473 C 456.950 434.646, 453.238 435.326, 449.250 435.985 L 442 437.182 442 450.512 L 442 463.842 454.917 468.930 C 462.021 471.728, 469.221 474.294, 470.917 474.633 L 474 475.250 474 455.250 L 474 435.250 470.875 434.625 C 467.707 433.991, 459.331 433.896, 457.500 434.473 M 647.634 441.500 C 646.058 445.900, 643.695 451.623, 642.384 454.217 C 641.073 456.811, 640 459.506, 640 460.206 C 640 461.848, 643.343 470.002, 644 469.962 C 644.275 469.945, 645.979 466.684, 647.787 462.716 C 650.954 455.764, 651.064 455.097, 650.787 444.500 L 650.500 433.500 647.634 441.500 M 476.358 439.750 C 476.699 441.813, 476.983 445.637, 476.989 448.250 L 477 453 480.750 453.027 C 482.813 453.042, 487.620 454.385, 491.433 456.011 C 495.246 457.637, 498.538 458.795, 498.749 458.585 C 498.959 458.374, 498.610 456.244, 497.973 453.851 C 496.549 448.508, 488.951 440.765, 482.357 437.939 C 476.083 435.249, 475.636 435.384, 476.358 439.750 M 435.500 439.208 C 430.246 441.046, 415.677 446.762, 410.500 449.016 L 405.500 451.193 415 454.033 C 420.225 455.595, 427.762 458.202, 431.750 459.827 L 439 462.782 439 450.391 C 439 443.576, 438.887 438.036, 438.750 438.079 C 438.613 438.122, 437.150 438.630, 435.500 439.208 M 682.206 439.557 C 665.843 443.961, 653.255 455.281, 647.966 470.348 L 645.914 476.196 648.398 484.848 C 649.765 489.607, 651.637 497.550, 652.560 502.500 C 655.430 517.904, 655.690 518.554, 660.771 523.073 C 689.008 548.188, 734.298 531.462, 740.154 493.755 C 745.376 460.128, 714.180 430.950, 682.206 439.557 M 788.251 444.516 C 753.509 452.064, 741.391 497.219, 767.485 521.897 C 795.957 548.825, 843 528.019, 843 488.500 C 843 459.351, 816.812 438.312, 788.251 444.516 M 476.549 464.995 C 476.153 470.587, 476.066 475.399, 476.356 475.689 C 477.548 476.882, 489.330 475.937, 492.596 474.387 C 496.120 472.715, 499 468.624, 499 465.290 C 499 462.988, 495.380 460.487, 494.650 462.286 C 494.364 462.991, 494.125 462.791, 494.079 461.809 C 494.036 460.879, 493.644 459.898, 493.209 459.629 C 492.774 459.360, 492.598 460.684, 492.818 462.570 C 493.329 466.946, 492.424 466.949, 490.597 462.578 C 488.931 458.591, 485.946 456.412, 480.885 455.488 L 477.270 454.828 476.549 464.995 M 355.514 474.006 C 347.567 475.434, 345.880 475.996, 346.506 477.009 C 346.838 477.546, 349.573 477.702, 352.797 477.366 C 360.110 476.605, 380.642 478.482, 393.354 481.072 C 404.382 483.320, 406.518 483.008, 399.805 480.131 C 387.963 475.055, 366.329 472.063, 355.514 474.006 M 656.694 473.639 C 655.041 475.293, 657.847 476, 666.059 476 C 673.340 476, 675 475.721, 675 474.500 C 675 472.949, 658.175 472.158, 656.694 473.639 M 689.729 473.605 C 688.018 475.315, 690.851 476, 699.642 476 C 706.816 476, 709.064 475.691, 708.752 474.750 C 708.306 473.402, 690.975 472.358, 689.729 473.605 M 767 476.500 C 767 477.836, 768.303 478.034, 775.506 477.789 C 780.317 477.625, 784.012 477.066, 784.012 476.500 C 784.012 475.934, 780.317 475.375, 775.506 475.211 C 768.303 474.966, 767 475.164, 767 476.500 M 797.694 475.639 C 796.022 477.311, 798.901 478, 807.559 478 C 815.284 478, 817 477.727, 817 476.500 C 817 474.949, 799.179 474.154, 797.694 475.639 M 663.035 482.934 C 659.918 488.758, 664.617 495.983, 668.800 491.800 C 671.573 489.027, 669.491 481, 666 481 C 664.939 481, 663.605 481.870, 663.035 482.934 M 694.571 482.571 C 692.422 484.721, 692.569 490.300, 694.829 492.345 C 697.085 494.387, 697.463 494.394, 699.429 492.429 C 702.400 489.457, 700.603 481, 697 481 C 696.529 481, 695.436 481.707, 694.571 482.571 M 772.800 485.540 C 771.106 489.257, 772.812 493.500, 776 493.500 C 777.765 493.500, 778.719 492.741, 779.405 490.790 C 780.654 487.239, 778.801 483, 776 483 C 774.783 483, 773.489 484.027, 772.800 485.540 M 803.200 484.200 C 799.513 487.887, 803.672 497.177, 807.564 493.947 C 810.478 491.529, 808.870 483, 805.500 483 C 804.895 483, 803.860 483.540, 803.200 484.200 M 675.500 506.900 C 671.016 508.025, 668 509.889, 668 511.535 C 668 513.341, 668.792 513.334, 672 511.500 C 675.911 509.264, 686.532 509.595, 691.736 512.114 C 696.428 514.386, 698.140 514.079, 695.893 511.369 C 692.944 507.814, 681.687 505.347, 675.500 506.900 M 780.750 509.658 C 778.688 510.514, 777 511.841, 777 512.607 C 777 514.329, 776.968 514.329, 781.346 512.500 C 786.441 510.371, 795.572 510.623, 800.899 513.040 C 805.806 515.266, 807.166 514.946, 804.644 512.160 C 800.941 508.068, 787.881 506.701, 780.750 509.658 M 656.375 538.594 C 656.444 546.509, 656.609 552.988, 656.741 552.992 C 656.874 552.997, 658.931 551.513, 661.311 549.696 C 663.692 547.879, 667.071 545.799, 668.820 545.075 C 671.755 543.859, 672 543.395, 672 539.064 C 672 534.754, 671.735 534.244, 668.750 532.819 C 666.962 531.966, 663.419 529.679, 660.875 527.736 L 656.251 524.204 656.375 538.594 M 344.500 535.399 C 329.856 540.030, 317.560 551.760, 318.204 560.482 C 318.637 566.333, 320.990 566.162, 323.775 560.076 C 326.987 553.061, 335.054 544.610, 341.593 541.411 C 348.290 538.134, 349.475 538.706, 343.940 542.542 C 330.420 551.911, 321.812 569.210, 328.493 573.587 C 332.170 575.996, 336 574.767, 336 571.177 C 336 564.046, 345.611 551.790, 354.933 547.034 C 360.325 544.283, 362.502 544.909, 357.752 547.844 C 345.840 555.206, 336.371 572.573, 341.750 577.193 C 347.131 581.815, 352.041 579.970, 363.381 569.063 C 372.670 560.130, 377.846 557.410, 400.428 549.594 C 402.125 549.006, 401.906 548.621, 398.600 546.374 C 383.696 536.247, 358.184 531.071, 344.500 535.399 M 809 536.174 C 807.625 536.751, 802.563 537.285, 797.750 537.361 C 789.348 537.494, 789.001 537.591, 789 539.781 C 789 541.078, 788.244 542.300, 787.250 542.613 C 774.571 546.597, 767.300 551.722, 760.849 561.223 C 747.209 581.309, 743.816 605.234, 753.872 610.434 C 761.181 614.213, 770.917 611.849, 790.900 601.443 C 807.134 592.989, 806.779 593.375, 803.058 588.239 C 797.709 580.854, 797.500 580.859, 774.862 588.901 C 762.017 593.464, 759.623 593.406, 756.376 588.450 C 754.733 585.943, 754.736 585.645, 756.452 582.459 C 758.260 579.102, 763.165 576, 766.664 576 C 768.082 576, 768.819 574.768, 769.751 570.846 C 771.731 562.512, 773.938 562.597, 772.288 570.943 L 771.299 575.944 774.899 577.111 C 776.880 577.752, 779.736 579.145, 781.246 580.204 C 783.967 582.113, 784.075 582.111, 792.715 579.946 C 802.516 577.491, 811.470 577.640, 816.704 580.347 L 819.818 581.957 821.899 575.229 C 826.114 561.596, 827.420 563.801, 823.961 578.711 C 819.857 596.401, 820.647 595, 814.771 595 C 810.438 595, 808.140 595.820, 800.310 600.157 C 795.189 602.994, 791 605.661, 791 606.085 C 791 608.233, 815.099 615.970, 821.849 615.988 C 834.908 616.024, 844.133 600.063, 844.385 577 C 844.587 558.538, 837.904 549.986, 818.250 543.557 C 813.275 541.929, 813 541.660, 813 538.420 C 813 534.725, 812.769 534.595, 809 536.174 M 675 539 C 675 542.181, 675.215 542.317, 678.750 541.370 C 683.014 540.227, 680.705 536.104, 675.750 536.014 C 675.337 536.006, 675 537.350, 675 539 M 705 537.201 C 703.625 537.792, 698.567 538.326, 693.761 538.388 C 685.331 538.496, 684.990 538.590, 684.131 541.056 C 683.484 542.910, 682.039 543.971, 678.870 544.918 C 672.098 546.944, 665.232 550.745, 660.547 555.064 L 656.274 559.002 655.080 569.611 C 654.424 575.446, 654.025 580.342, 654.193 580.491 C 654.362 580.641, 655.945 580.543, 657.710 580.274 C 660.607 579.832, 661.072 579.263, 662.473 574.443 C 663.328 571.505, 664.470 568.827, 665.013 568.492 C 666.118 567.809, 666.191 573.106, 665.128 576.903 C 664.519 579.080, 665.113 579.644, 671.451 582.903 L 678.447 586.500 687.473 584.174 C 697.629 581.556, 706.665 581.671, 713.382 584.501 C 717.895 586.403, 718.346 586.077, 719.858 579.831 C 721.516 572.981, 722.879 569.807, 723.893 570.434 C 724.712 570.940, 721.897 586.312, 719.073 596.750 L 717.923 601 712.211 601.014 C 707.227 601.026, 705.233 601.710, 696.543 606.384 C 691.067 609.330, 686.446 612.163, 686.273 612.680 C 685.468 615.096, 712.572 624, 720.732 624 C 730.766 624, 737.796 615.940, 741.956 599.669 C 748.865 572.644, 743.300 557.469, 723.129 548.330 C 710.188 542.466, 710.526 542.704, 710.187 539.219 C 709.854 535.805, 709.011 535.477, 705 537.201 M 848.170 550.295 C 847.393 551.231, 847.280 557.943, 847.784 573.061 L 848.500 594.500 853.761 594.803 C 857.424 595.013, 859.146 594.709, 859.430 593.803 C 860.179 591.406, 860.867 552.402, 860.179 551.341 C 859.043 549.590, 849.449 548.754, 848.170 550.295 M 760.841 582.005 C 757.480 585.366, 757.533 586.877, 761.080 588.837 C 764.322 590.629, 781.135 584.638, 778.842 582.509 C 774.208 578.205, 764.901 577.945, 760.841 582.005 M 803.808 584.434 C 805.467 586.323, 807.113 588.779, 807.466 589.893 C 808.010 591.607, 808.866 591.885, 813.054 591.708 C 815.774 591.594, 818.006 591.050, 818.013 590.500 C 818.021 589.950, 818.298 588.489, 818.630 587.253 C 819.421 584.301, 812.654 581.054, 805.646 581.022 L 800.793 581 803.808 584.434 M 655.344 583.996 C 654.004 584.537, 652.935 586.120, 652.520 588.183 C 652.152 590.007, 651.629 592.288, 651.358 593.250 C 650.966 594.642, 651.489 595, 653.912 595 C 657.110 595, 674 589.031, 674 587.901 C 674 585.088, 659.936 582.144, 655.344 583.996 M 699.186 585.891 L 696.871 586.503 699.863 589.369 C 701.508 590.945, 703.381 593.506, 704.024 595.059 C 705.145 597.765, 705.408 597.859, 710.347 597.301 C 716.533 596.603, 715.689 597.212, 716.501 592.860 L 717.181 589.221 712.341 587.702 C 705.920 585.688, 701.997 585.147, 699.186 585.891 M 681.500 589.408 C 677.650 590.683, 671.350 592.956, 667.500 594.460 C 663.650 595.964, 658.250 597.488, 655.500 597.847 L 650.500 598.500 650.194 606 C 649.680 618.571, 650.234 620, 655.625 620 C 661.575 620, 670.319 616.500, 687.735 607.146 C 703.977 598.423, 704.169 598.116, 697.526 591.474 C 692.362 586.309, 691.278 586.170, 681.500 589.408 M 744.058 605 C 744.025 605.825, 742.660 609.329, 741.025 612.786 L 738.051 619.073 740.448 638.786 C 744.597 672.905, 744.498 671.057, 742.212 671.655 C 740.324 672.148, 740.178 673.284, 739.604 691.839 C 739.270 702.653, 738.735 719.487, 738.415 729.250 L 737.833 747 744.266 747 C 747.804 747, 754.166 747.293, 758.404 747.651 L 766.109 748.303 765.533 743.401 C 764.844 737.531, 762.359 696.619, 761.389 675.163 C 760.784 661.781, 760.460 659.680, 758.848 658.673 C 756.151 656.989, 756.903 640.054, 760.587 619.500 C 761.096 616.658, 760.861 616.407, 756.140 614.736 C 751.594 613.128, 748.535 610.487, 745.309 605.384 C 744.404 603.953, 744.103 603.861, 744.058 605 M 780 610.628 C 776.975 612.009, 772.251 613.722, 769.502 614.433 L 764.505 615.727 763.305 624.113 C 760.292 645.176, 759.600 655.134, 761.084 656.059 C 769.809 661.498, 806.812 663.052, 830.283 658.964 C 841.071 657.086, 840.623 658.387, 838.033 636.417 C 835.240 612.727, 835.792 614.347, 831.431 617.043 C 824.827 621.124, 810.067 618.754, 793.584 610.966 C 786.150 607.454, 786.907 607.473, 780 610.628 M 674.170 617.969 C 670.689 619.631, 665.401 621.700, 662.420 622.566 C 659.439 623.433, 656.999 624.447, 656.999 624.821 C 656.998 625.194, 656.347 629.193, 655.553 633.706 C 654.186 641.471, 654.238 642.673, 656.514 656.082 C 657.837 663.876, 659.088 670.421, 659.294 670.628 C 660.776 672.109, 682.914 674.266, 697 674.300 C 721.459 674.361, 740.022 671.087, 739.977 666.722 C 739.961 665.160, 736.138 630.828, 735.029 622.280 C 735.013 622.159, 733.397 623.148, 731.437 624.478 C 723.912 629.584, 711.298 628.068, 692.500 619.797 C 680.391 614.470, 681.308 614.561, 674.170 617.969 M 764.012 662.750 C 764.033 665.957, 766.862 715.145, 768.594 742.421 L 770.304 769.342 767.794 771.421 C 766.413 772.564, 763.195 775.210, 760.642 777.300 C 754.398 782.411, 754.276 785.457, 760.250 787.072 C 767.675 789.080, 784.766 784.623, 788.927 779.593 C 789.993 778.305, 791.048 767.938, 793.090 738.684 C 794.595 717.133, 796.093 696.457, 796.421 692.738 L 797.016 685.975 793.508 684.302 C 789.366 682.327, 788.841 680.492, 792.695 681.459 C 799.467 683.159, 801.726 684.725, 802.339 688.144 C 803.293 693.473, 808.720 734.524, 811.508 757.500 C 812.910 769.050, 814.302 779.297, 814.602 780.271 C 815.715 783.880, 834.062 790.595, 839.738 789.470 C 846.904 788.049, 847 787.994, 847 785.268 C 847 783.238, 845.398 781.085, 840.500 776.536 L 834 770.498 833.981 758.499 C 833.970 751.900, 834.509 727.501, 835.178 704.280 C 835.847 681.060, 836.193 661.867, 835.947 661.629 C 835.701 661.392, 832.125 661.906, 828 662.771 C 817.275 665.021, 784.427 664.963, 773.500 662.675 C 763.684 660.620, 763.997 660.618, 764.012 662.750 M 659.274 675.272 C 660.352 678.080, 662.206 706.022, 661.628 710.742 C 660.100 723.217, 659.986 744.388, 661.332 765.782 C 662.137 778.588, 662.564 789.950, 662.281 791.033 C 661.998 792.115, 658.874 795.274, 655.338 798.053 C 643.434 807.408, 644.345 811.540, 658.291 811.443 C 668.004 811.377, 678.426 808.285, 682.785 804.178 L 685.627 801.500 686.894 778.500 C 687.591 765.850, 689.152 743.193, 690.362 728.152 L 692.562 700.804 688.281 698.792 C 684.520 697.024, 681.964 694.035, 685.250 695.247 C 685.938 695.501, 688.857 696.484, 691.738 697.431 C 694.619 698.378, 697.192 699.501, 697.455 699.926 C 698.613 701.800, 705.653 753.293, 709.497 788 C 711.459 805.717, 711.689 806.302, 717.945 809.472 C 731.555 816.369, 749 816.801, 749 810.241 C 749 809.336, 745.553 805.290, 741.339 801.251 L 733.678 793.907 734.464 757.703 C 734.897 737.791, 735.532 710.812, 735.875 697.749 C 736.219 684.685, 736.275 673.998, 736 674 C 735.725 674.001, 732.125 674.691, 728 675.532 C 711.696 678.858, 670.292 678.119, 660.409 674.327 C 659.072 673.813, 658.801 674.039, 659.274 675.272 M 797.671 719.270 C 796.735 733.697, 795.976 746.288, 795.984 747.250 C 795.997 748.703, 796.935 749, 801.500 749 C 805.865 749, 807 748.671, 807 747.407 C 807 745.331, 799.951 693.618, 799.624 693.291 C 799.486 693.153, 798.608 704.844, 797.671 719.270 M 694.573 718.500 C 694.155 724.550, 693.495 732.987, 693.106 737.250 L 692.400 745 696.719 745 C 700.682 745, 700.996 744.814, 700.530 742.750 C 700.251 741.513, 699.340 735.100, 698.506 728.500 C 695.752 706.703, 695.444 705.918, 694.573 718.500 M 359.052 849.870 C 357.054 851.240, 360.104 851.814, 371.750 852.261 C 380.566 852.599, 383.076 852.021, 379.250 850.534 C 376.182 849.341, 360.573 848.828, 359.052 849.870 M 557.500 857.698 C 552.857 858.313, 544.162 860.928, 543.570 861.887 C 543.277 862.361, 546.067 862.100, 549.769 861.309 C 553.471 860.517, 561.112 859.809, 566.750 859.734 C 572.388 859.659, 577 859.297, 577 858.930 C 577 857.378, 565.424 856.647, 557.500 857.698 M 356.045 859.963 C 363.764 864.044, 378.783 864.834, 386.500 861.564 C 389.090 860.466, 387.929 860.358, 378 860.772 C 369.365 861.131, 364.923 860.846, 360.169 859.625 C 352.215 857.583, 351.634 857.631, 356.045 859.963 M 578 868.698 C 571.303 870.496, 553.354 870.731, 546.617 869.108 C 540.484 867.631, 539.476 868.431, 544.596 870.713 C 552.561 874.262, 578.861 872.839, 584.531 868.552 C 587.028 866.664, 585.443 866.699, 578 868.698 M 344.189 899.028 C 339.827 903.709, 338.774 913.500, 342.278 916.792 C 344.009 918.418, 351.719 922, 353.488 922 C 354.212 922, 354.944 908.504, 354.404 905.123 C 353.251 897.913, 348.094 894.836, 344.189 899.028 M 366.957 901.250 C 362.775 904.068, 358.844 911.566, 358.237 917.882 C 357.670 923.787, 357.724 923.810, 373.908 924.691 L 385.316 925.313 384.710 918.079 C 383.416 902.651, 375.713 895.349, 366.957 901.250 M 397.365 904.919 C 393.901 907.032, 389.591 915.059, 388.514 921.407 L 387.850 925.314 398.675 924.632 C 414.450 923.637, 415 923.459, 415 919.351 C 415 914.939, 412.589 909.225, 409.260 905.750 C 406.096 902.447, 401.900 902.154, 397.365 904.919 M 532.500 907.716 C 527.990 908.807, 522.076 917.268, 522.022 922.708 C 521.988 926.111, 531.218 930.758, 543.385 933.464 L 546.270 934.106 545.794 926.698 C 545.224 917.815, 542.134 910.638, 537.947 908.473 C 536.381 907.663, 534.964 907.052, 534.800 907.116 C 534.635 907.180, 533.600 907.450, 532.500 907.716 M 564 908.086 C 557.331 909.520, 551.527 919.157, 550.801 930 L 550.500 934.500 559 935.052 C 563.675 935.356, 571.041 935.400, 575.370 935.151 L 583.240 934.698 582.597 929.232 C 580.951 915.224, 572.975 906.155, 564 908.086 M 597.235 910.543 C 592.591 912.496, 589.011 919.627, 587.570 929.799 L 586.961 934.098 590.730 933.421 C 596.605 932.367, 609.328 928.212, 611.463 926.651 C 613.207 925.375, 613.272 924.852, 612.149 921.105 C 609.593 912.572, 603.191 908.039, 597.235 910.543" stroke="none" fill="#1a1a1a" fill-rule="evenodd"/>
</svg>