<svg xmlns="http://www.w3.org/2000/svg" width="1024" height="1024" viewBox="0 0 1024 1024" version="1.1">
	<path d="M 631.939 101.343 C 621.302 104.263, 610.048 118.008, 606.403 132.530 C 605.643 135.560, 606.116 135.586, 599.221 132.141 C 585.486 125.279, 568.562 120.185, 552.262 118.008 C 542.508 116.705, 539.343 115.482, 529.065 109.041 C 512.502 98.661, 504.176 98.321, 509.861 108.257 L 512.992 113.729 506.268 111.865 C 498.840 109.805, 492.483 109.486, 488.565 110.975 C 484.935 112.356, 485.352 113.536, 490.545 116.579 C 493.045 118.044, 494.903 119.430, 494.674 119.659 C 494.445 119.888, 490.263 121.153, 485.379 122.470 C 474.729 125.343, 464.400 129.535, 454.489 135.006 L 447.169 139.047 445.209 136.273 C 444.130 134.748, 441.199 129.410, 438.695 124.411 C 433.163 113.369, 430.267 109.792, 424.661 107.078 C 409.584 99.779, 391.667 114.069, 390.279 134.500 C 389.385 147.648, 395.507 158.047, 407.722 164.126 C 411.450 165.982, 414.682 167.607, 414.904 167.737 C 415.126 167.868, 413.495 170.568, 411.278 173.737 C 401.729 187.396, 392.707 209.761, 389.390 228 C 387.471 238.550, 386.996 260.460, 388.293 278.579 L 389.086 289.657 385.572 294.579 C 383.640 297.285, 379.948 302.650, 377.368 306.500 C 374.788 310.350, 371.556 314.722, 370.186 316.215 C 368.802 317.722, 367.377 320.835, 366.981 323.215 C 366.589 325.572, 365.034 331.550, 363.525 336.500 C 352.910 371.329, 365.875 407.473, 396.219 427.645 L 402.949 432.120 396.068 439.001 C 377.728 457.341, 364.323 485.362, 363.299 507.500 C 362.379 527.400, 367.172 540.235, 380.476 553.500 L 388.500 561.500 387.500 565.508 C 386.950 567.713, 385.296 571.088, 383.825 573.008 C 380.581 577.243, 379.442 581.736, 377.495 597.970 C 372.845 636.754, 378.035 661.506, 397.004 691.006 C 402.883 700.150, 405.374 705.403, 410.450 719.364 C 417.603 739.039, 422.231 749.327, 427.224 756.655 L 430.736 761.809 417.618 762.387 C 410.403 762.705, 391.450 763.434, 375.500 764.006 C 359.550 764.578, 341.539 765.321, 335.475 765.656 L 324.450 766.267 323.382 761.054 C 322.653 757.495, 322.632 754.452, 323.315 751.464 C 324.878 744.635, 320.960 742.018, 309.151 742.006 C 304.524 742.001, 303.431 741.603, 301.054 739.057 C 295.818 733.452, 287.982 733.783, 281.900 739.865 C 278.703 743.061, 277.813 743.457, 275.350 742.779 C 271.793 741.800, 267.788 742.605, 264.797 744.902 C 263.534 745.872, 260.025 747.447, 257 748.403 C 245.372 752.077, 234.944 757.955, 228.092 764.695 C 221.853 770.833, 221.205 771.204, 216 771.620 C 169.090 775.373, 148.496 777.171, 148.122 777.545 C 147.305 778.362, 154.021 778.069, 186.756 775.858 C 204.497 774.659, 219.240 773.907, 219.519 774.186 C 219.798 774.465, 219.311 776.405, 218.437 778.497 C 217.562 780.590, 216.176 786.144, 215.357 790.840 C 214.537 795.536, 212.944 802.043, 211.817 805.300 C 209.253 812.708, 209.262 818.510, 211.841 821.999 C 213.668 824.470, 213.758 825.748, 213.152 840.576 L 212.500 856.500 208 856.398 C 205.525 856.342, 199.900 855.948, 195.500 855.522 C 185.716 854.576, 178.238 855.956, 170.352 860.164 L 164.678 863.192 150.533 862.485 C 122.930 861.105, 107.667 868.542, 121.569 876.597 C 123.106 877.488, 121.587 877.931, 113.514 878.947 C 95.903 881.164, 87 885.048, 87 890.513 C 87 893.653, 91.347 895.974, 98.638 896.726 C 103.639 897.243, 103.935 897.414, 102.526 898.971 C 101.687 899.899, 101 901.163, 101 901.782 C 101 902.859, 106.919 904.983, 109.952 904.994 C 110.751 904.997, 112.776 906.312, 114.452 907.916 C 117.192 910.536, 119.845 911.438, 123.858 911.111 C 124.781 911.036, 125.023 910.229, 124.614 908.599 C 123.946 905.935, 124.571 905.740, 149 900.963 C 154.775 899.834, 160.400 898.654, 161.500 898.342 C 163.126 897.881, 163.266 898.021, 162.250 899.088 C 160.284 901.152, 160.783 904.812, 163.250 906.426 C 166.942 908.843, 172.991 909.218, 181.500 907.560 C 195.929 904.747, 199.841 905.862, 195.532 911.559 C 189.944 918.947, 200.093 922.957, 214.538 919.069 L 222.500 916.926 228.500 919.035 C 273.740 934.932, 316.702 938.982, 370.804 932.451 C 403.579 928.494, 433.429 918.834, 444.896 908.475 C 449.416 904.392, 449.650 904.347, 451.910 907.137 C 453.517 909.122, 453.920 909.180, 457.570 907.956 C 463.644 905.919, 477.250 906.693, 483.435 909.429 C 502.847 918.014, 522.206 919.089, 526.108 911.799 C 527.422 909.342, 526.017 907.560, 520.581 904.786 C 516.553 902.731, 516.543 902.713, 519.014 901.761 C 520.544 901.172, 525.539 901.130, 532 901.652 C 564.349 904.264, 581.723 901.002, 579.641 892.708 C 578.274 887.257, 567.086 883.128, 548 881.030 C 532.062 879.278, 530.556 878.521, 535 874.500 C 536.100 873.505, 537 872.117, 537 871.418 C 537 869.225, 532.046 866.129, 527.430 865.437 C 523.690 864.876, 523 864.420, 523 862.509 C 523 856.961, 519.034 851.433, 511.192 846.052 C 509.373 844.803, 508.132 843.534, 508.435 843.232 C 508.737 842.929, 525.526 842.690, 545.743 842.701 C 576.485 842.717, 579.636 842.599, 565 841.982 C 555.375 841.576, 538.612 841.189, 527.750 841.122 L 508 841 508 838.468 L 508 835.935 547.750 836.419 C 576.717 836.771, 589.941 837.314, 596.500 838.420 C 604.179 839.715, 612.618 839.819, 654 839.132 C 700.477 838.361, 701.269 838.317, 673 838.082 C 645.343 837.852, 643.719 837.739, 647 836.278 C 650.590 834.680, 675.706 834.319, 702 835.488 C 709.024 835.800, 711.341 835.669, 709 835.092 C 706.206 834.404, 680.461 833.314, 659 832.975 L 655.500 832.920 658.500 831.286 C 661.111 829.864, 665.256 829.683, 690.479 829.889 C 706.418 830.019, 719.237 829.903, 718.965 829.632 C 718.085 828.751, 704.933 828.157, 684.547 828.078 L 664.594 828 668.179 824.250 C 670.150 822.188, 672.283 819.487, 672.917 818.250 C 674.045 816.049, 674.444 816, 691.202 816 C 700.624 816, 708.146 815.836, 707.917 815.636 C 707.575 815.338, 682.664 814.032, 676.844 814.007 C 675.760 814.002, 675.345 813.395, 675.644 812.250 C 676.060 810.656, 677.546 810.530, 692.300 810.839 C 701.210 811.026, 708.275 810.971, 708 810.717 C 707.217 809.995, 694.351 809.037, 685.177 809.018 C 677.795 809.002, 676.891 808.802, 677.185 807.250 C 677.442 805.898, 678.880 805.368, 683.509 804.918 C 688.663 804.418, 688.941 804.297, 685.500 804.053 C 683.300 803.897, 680.825 803.709, 680 803.635 C 677.990 803.454, 678.521 797.854, 680.676 796.500 C 689.531 790.937, 693.922 778.752, 690.538 769.131 L 689.705 766.762 700.602 767.403 C 706.596 767.756, 727.475 768.949, 747 770.054 C 784.332 772.168, 824.494 775.028, 851.766 777.516 C 869.302 779.116, 874.668 779.335, 873.747 778.413 C 871.990 776.657, 777.513 768.929, 726.500 766.368 C 707.800 765.430, 692.345 764.546, 692.157 764.404 C 691.269 763.738, 703.218 736.276, 712.999 716.500 C 724.671 692.901, 727.941 684.386, 730.934 669.791 C 736.608 642.126, 735.973 614.789, 728.970 585.171 C 727.734 579.945, 727 573.307, 727 567.355 C 727 556.791, 726.352 554.837, 721.412 550.497 C 718.468 547.911, 717.648 546.107, 715.504 537.497 C 714.134 531.999, 711.303 521.694, 709.213 514.598 L 705.412 501.697 706.785 492.098 C 710.507 466.093, 703.827 435.796, 688.982 411.352 C 686.929 407.971, 684.695 402.895, 684.017 400.072 C 682.705 394.602, 679.551 390.716, 672.791 386.243 C 669.178 383.852, 669.041 383.580, 670.451 381.602 C 689.857 354.381, 692.654 318.781, 677.971 285.891 C 674.867 278.938, 673.714 274.515, 671.976 262.891 C 665.770 221.407, 656.603 192.593, 643.582 173.647 C 640.992 169.878, 639.014 166.684, 639.186 166.550 C 639.359 166.416, 641.895 165.023, 644.822 163.455 C 667.268 151.430, 672.843 126.803, 657.008 109.625 C 649.980 102, 640.705 98.936, 631.939 101.343 M 511 104.663 C 511 104.970, 513.010 108.096, 515.467 111.611 C 520.693 119.087, 520.726 119.072, 507.053 115.481 C 501.857 114.117, 496.007 113.004, 494.053 113.010 L 490.500 113.019 496.750 116.984 C 503.461 121.242, 504.533 123, 500.417 123 C 496.502 123, 482.764 126.717, 474.402 130.039 C 428.842 148.137, 404.442 178.231, 393.352 230 C 391.852 237.002, 391.529 243.196, 391.516 265.144 L 391.500 291.788 385.750 300.256 C 380.118 308.550, 378.993 310.740, 381 309.500 C 381.550 309.160, 382.490 309.185, 383.089 309.555 C 383.708 309.938, 382.092 311.426, 379.339 313.007 C 372.573 316.894, 369.773 320.144, 370.174 323.646 C 370.402 325.646, 371.126 326.589, 372.591 326.799 C 374.309 327.044, 375.341 325.729, 378.378 319.419 C 382.865 310.098, 383.910 310.181, 380.520 319.589 C 377.876 326.925, 374.808 330.444, 371.752 329.646 C 365.715 328.067, 362.251 363.069, 366.835 379.341 C 372.604 399.818, 384.515 415.219, 402.845 425.901 C 410.554 430.393, 413.688 431.774, 428 436.984 C 433.775 439.086, 442.550 442.596, 447.500 444.784 C 489.712 463.445, 562.150 457.663, 599.810 432.627 C 616.528 421.512, 630.035 403.558, 634.438 386.599 C 636.168 379.932, 637 378.495, 637 382.173 C 637 386.389, 633.278 399.517, 630.565 404.871 C 627.104 411.702, 627.074 411.684, 634.750 407.443 C 657.574 394.834, 671.489 378.396, 679.145 355 C 686.534 332.416, 683.210 301.651, 670.967 279.328 C 668.476 274.786, 667.459 272.014, 668.193 271.769 C 669.368 271.377, 667.309 257.139, 662.874 235 C 659.011 215.717, 650.759 193.302, 642.050 178.436 C 635.757 167.693, 635.760 167.696, 631.596 168.846 C 625.231 170.603, 626.951 168.552, 635.522 164.163 C 663.122 150.031, 670.317 128.189, 653.043 110.972 C 645.897 103.850, 638.925 102.421, 630.500 106.353 C 621.907 110.363, 616.879 117.416, 608.295 137.500 C 604.129 147.247, 602.489 149.195, 603.367 143.355 L 603.990 139.210 593.326 134.540 C 579.145 128.329, 569.991 125.420, 555.195 122.421 C 540.469 119.437, 536.088 117.796, 525.241 111.207 C 517.305 106.386, 511 103.488, 511 104.663 M 407.265 111.750 C 395.765 119.586, 390.578 135.870, 395.871 147.521 C 398.004 152.217, 405.813 159.562, 412.373 163.042 L 416.973 165.482 419.513 162.942 L 422.053 160.401 415.594 156.283 C 406.873 150.724, 403.023 144.265, 403.009 135.173 C 403.001 129.507, 403.305 128.541, 405.923 125.923 C 412.188 119.658, 418.239 123.046, 425.340 136.796 C 427.835 141.626, 430.733 146.353, 431.779 147.300 C 433.748 149.082, 434.122 148.899, 443.875 141.373 C 444.081 141.214, 442.676 138.702, 440.752 135.792 C 438.829 132.881, 435.800 127.575, 434.022 124 C 426.836 109.555, 417.057 105.078, 407.265 111.750 M 637.500 120.164 C 631.642 123.396, 624.290 135.041, 617.944 151.141 C 615.190 158.129, 617.443 156.931, 621.905 149.036 C 623.882 145.538, 625.950 142.636, 626.500 142.588 C 628.780 142.388, 628.122 149.936, 625.464 154.472 C 623.056 158.581, 622.981 159, 624.655 158.999 C 631.066 158.996, 650 145.091, 650 140.385 C 650 139.192, 648.817 140.022, 646.262 143.006 C 642.875 146.964, 628.130 157.463, 627.227 156.560 C 627.021 156.354, 627.507 154.907, 628.306 153.343 C 630.854 148.358, 631.282 144.272, 629.608 140.916 C 628.148 137.990, 628.200 137.549, 630.506 133.157 C 636.286 122.152, 642.569 119.242, 648.954 124.615 L 652.062 127.230 650.836 124.540 C 648.705 119.862, 642.022 117.669, 637.500 120.164 M 406.039 128.189 C 404.529 129.809, 404 131.726, 404 135.576 C 404 142.796, 408.297 148.989, 416.861 154.111 L 423.223 157.915 427.080 154.815 L 430.938 151.715 428.401 148.700 C 427.005 147.041, 424.102 142.180, 421.948 137.896 C 416.002 126.070, 410.908 122.962, 406.039 128.189 M 535.148 186.321 C 534.523 187.074, 533.773 189.223, 533.481 191.095 C 532.985 194.278, 533.024 194.337, 534.078 192 C 534.698 190.625, 535.641 188.669, 536.172 187.653 C 537.371 185.362, 536.685 184.470, 535.148 186.321 M 541.096 192.821 C 536.553 201.309, 553.368 215.232, 571.500 217.996 C 575.350 218.582, 580.911 219.750, 583.857 220.590 C 586.804 221.431, 589.406 221.927, 589.641 221.693 C 590.172 221.162, 579.236 214.698, 568 208.902 C 562.443 206.036, 557.036 202.178, 552.384 197.759 C 544.984 190.731, 542.740 189.749, 541.096 192.821 M 435 201.931 C 429.427 207.682, 425.350 210.805, 419.132 214.085 C 414.530 216.513, 409.130 219.961, 407.132 221.747 L 403.500 224.993 408.500 222.877 C 411.250 221.713, 416.104 220.595, 419.287 220.392 C 433.748 219.472, 451.020 204.313, 447.641 195.508 C 446.384 192.231, 442.474 194.218, 435 201.931 M 535.345 216.739 C 535.679 218.795, 537.313 222.408, 538.976 224.768 C 542.532 229.813, 542.584 230.162, 540.113 232.398 C 536.890 235.314, 532.954 245.548, 532.089 253.256 C 529.905 272.736, 536.798 287.436, 551.685 295.040 C 556.059 297.275, 557.673 297.500, 569.312 297.500 L 582.125 297.500 586.487 302.112 C 590.520 306.376, 591.409 308.314, 593.407 317.203 C 595.116 324.807, 602.283 327.871, 607.098 323.056 C 612.677 317.477, 610.383 311.582, 599.143 302.614 C 592.302 297.156, 590.500 294.427, 592.065 291.894 C 592.522 291.156, 592.430 290.018, 591.858 289.328 C 591.121 288.441, 591.552 287.143, 593.375 284.753 C 600.227 275.769, 603.166 263.519, 600.694 254.250 C 599.330 249.139, 599.349 248.999, 601.396 248.968 C 605.755 248.902, 600.087 246.245, 590.692 243.950 C 563.613 237.335, 545.035 228.015, 538.739 217.887 C 535.091 212.018, 534.549 211.835, 535.345 216.739 M 450.465 217.111 C 447.492 226.476, 425.686 239.800, 404.730 245.056 C 396.893 247.022, 393.325 249, 397.617 249 C 398.823 249, 399.065 249.571, 398.570 251.250 C 395.864 260.429, 397.266 272.855, 401.822 280.062 C 405.314 285.587, 403.793 290.482, 398.241 291.581 C 393.450 292.529, 390 295.621, 390 298.966 C 390 304.404, 395.944 304.419, 403.883 299 C 410.067 294.779, 412.795 294.259, 419.004 296.119 C 423.022 297.323, 434.201 294.787, 442.136 290.870 C 457.675 283.201, 461.946 248.974, 449.248 233.883 L 446.651 230.796 449.825 224.547 C 453.024 218.250, 453.787 215, 452.067 215 C 451.554 215, 450.833 215.950, 450.465 217.111 M 542.615 235.261 C 538.664 240.440, 536.053 247.204, 535.329 254.131 L 534.668 260.447 537.878 256.792 C 549.830 243.179, 573.151 246.621, 581.422 263.220 C 584.359 269.114, 584.812 276.120, 582.599 281.417 L 581.198 284.770 584.849 285.385 C 587.927 285.903, 588.814 285.615, 590.500 283.546 C 595.505 277.406, 597.590 262.356, 594.593 254 C 593.469 250.867, 592.768 250.368, 587.919 249.243 C 571.151 245.352, 557.242 240.008, 548.335 234.034 L 545.170 231.911 542.615 235.261 M 439.405 236.119 C 433.774 240.658, 420.637 246.747, 412.215 248.724 L 404.950 250.429 403.475 255.396 C 399.609 268.414, 403.561 282.081, 412.262 285.791 L 415.024 286.968 413.012 283.024 C 411.669 280.392, 411.007 277.154, 411.022 273.290 C 411.100 252.588, 436.054 241.601, 451.089 255.647 L 453.678 258.066 452.852 252.025 C 451.973 245.596, 448.483 237.644, 445.264 234.736 C 443.383 233.037, 443.167 233.088, 439.405 236.119 M 423.605 261.537 C 420.116 265.027, 422.335 272, 426.934 272 C 428.650 272, 432 268.159, 432 266.191 C 432 261.865, 426.389 258.754, 423.605 261.537 M 547.571 261.571 C 545.086 264.057, 545.581 268.680, 548.541 270.619 C 554.576 274.573, 559.398 266.491, 553.833 261.750 C 551.292 259.586, 549.605 259.538, 547.571 261.571 M 483.500 272.984 C 481.850 273.395, 484.550 273.504, 489.500 273.227 C 494.450 272.950, 498.688 272.560, 498.917 272.362 C 499.684 271.696, 486.539 272.227, 483.500 272.984 M 480.500 277.024 C 477.200 277.521, 473.150 278.393, 471.500 278.960 L 468.500 279.992 471.500 279.471 C 479.018 278.167, 500.826 277.797, 505.913 278.888 C 512.203 280.237, 513.941 279.643, 508.344 278.056 C 502.922 276.519, 487.612 275.952, 480.500 277.024 M 438.709 277.624 C 436.786 279.547, 438.043 282.128, 440.750 281.816 C 442.728 281.589, 443.500 280.938, 443.500 279.500 C 443.500 277.491, 440.153 276.181, 438.709 277.624 M 566 281.500 C 566 283.500, 566.500 284, 568.500 284 C 570.500 284, 571 283.500, 571 281.500 C 571 279.500, 570.500 279, 568.500 279 C 566.500 279, 566 279.500, 566 281.500 M 473.500 283.588 C 472.400 283.857, 468.201 284.774, 464.169 285.625 C 453.882 287.796, 455.778 288.286, 467.584 286.506 C 483.534 284.102, 512.263 285.195, 523.492 288.634 C 524.596 288.972, 525.180 288.910, 524.788 288.496 C 521.734 285.266, 482.128 281.476, 473.500 283.588 M 405.775 287.250 C 404.892 287.938, 404.018 289.353, 403.834 290.396 C 403.608 291.678, 402.002 292.729, 398.878 293.639 C 393.766 295.129, 391.473 297.184, 392.357 299.487 C 393.229 301.761, 395.817 301.326, 400.925 298.048 C 408.318 293.304, 412.500 291.859, 415.517 293.007 C 418.955 294.314, 423.938 294.266, 427.890 292.889 C 430.838 291.861, 430.943 291.675, 429.289 290.420 C 427.140 288.791, 423.575 288.622, 420.952 290.026 C 419.475 290.816, 417.892 290.472, 414.051 288.526 C 408.319 285.621, 407.943 285.563, 405.775 287.250 M 580 287.680 C 578.625 287.890, 575.337 289.037, 572.693 290.229 C 568.418 292.156, 567.532 292.249, 564.693 291.072 C 559.876 289.076, 555.482 288.672, 553.006 289.997 C 547.620 292.879, 560.655 296.739, 570.085 295.054 C 576.216 293.958, 577.268 294.028, 581.179 295.792 C 587.819 298.785, 595 308.032, 595 313.587 C 595 319.588, 602.835 325.314, 605.694 321.404 C 608.879 317.048, 607.470 313.933, 598.476 305.459 C 591.544 298.928, 589.830 296.726, 589.343 293.725 C 588.516 288.630, 585.699 286.807, 580 287.680 M 527.698 304.444 C 522.719 306.220, 516.446 310.615, 513.479 314.407 C 509.974 318.885, 511.291 318.794, 516.512 314.198 C 526.288 305.593, 540.876 304.542, 547.500 311.965 C 549.055 313.708, 549.500 315.621, 549.500 320.563 C 549.500 326.210, 549.667 326.751, 551 325.423 C 553.320 323.111, 553.003 313.188, 550.500 309.765 C 546.121 303.775, 536.117 301.441, 527.698 304.444 M 403.984 305.852 C 396.993 309.567, 393.735 319.295, 397.321 325.751 C 398.448 327.779, 398.571 327.478, 398.571 322.710 C 398.571 306.839, 414.168 302.013, 426.930 313.935 C 430.680 317.437, 431.476 317.758, 430.116 315.218 C 425.280 306.181, 412.192 301.490, 403.984 305.852 M 405.919 320.278 C 403.547 325.484, 407.248 329.227, 417.879 332.376 C 420.837 333.252, 423.874 334.481, 424.629 335.107 C 426.990 337.066, 426.243 333.957, 422.991 328.286 C 417.904 319.417, 408.353 314.937, 405.919 320.278 M 529.973 319.651 C 525.434 322.682, 520.844 327.463, 518.955 331.126 C 517.093 334.737, 517.330 336.800, 519.408 335.078 C 520.009 334.580, 524.035 333.268, 528.356 332.162 C 537.074 329.929, 541 327.093, 541 323.026 C 541 318.007, 535.126 316.210, 529.973 319.651 M 408.180 324.250 C 408.513 326.594, 412.907 329.283, 418.500 330.566 L 421.500 331.254 417.042 326.627 C 412.033 321.429, 407.611 320.243, 408.180 324.250 M 529.750 324.791 C 527.688 326.281, 525.315 328.491, 524.476 329.703 L 522.952 331.906 528.226 330.368 C 535.031 328.383, 538 326.441, 538 323.977 C 538 321.130, 534.315 321.493, 529.750 324.791 M 606.792 331.251 C 611.242 336.041, 611.760 345, 607.587 345 C 604.885 345, 603.743 342.113, 604.211 336.463 C 604.780 329.612, 603.177 330.710, 602.344 337.743 C 601.390 345.794, 607.414 350.550, 611.750 345.169 C 614.692 341.518, 610.888 329.971, 606.473 329.150 C 604.632 328.808, 604.654 328.949, 606.792 331.251 M 662.462 391.742 C 660.283 394.349, 658.612 396.824, 658.750 397.242 C 658.888 397.659, 658.371 398, 657.603 398 C 656.835 398, 651.997 400.851, 646.853 404.335 C 641.709 407.819, 634.539 411.836, 630.920 413.262 C 625.399 415.438, 622.742 417.440, 614.420 425.694 C 607.158 432.896, 602.310 436.733, 596.325 440.016 C 589.367 443.832, 587.917 445.085, 586.586 448.427 C 585.725 450.588, 584.758 452.092, 584.437 451.770 C 584.116 451.449, 584.569 449.800, 585.445 448.106 L 587.038 445.025 584.552 446.158 C 581.369 447.609, 572.411 468.744, 574.215 470.548 C 574.510 470.843, 577.619 470.618, 581.125 470.049 C 584.631 469.481, 590.730 469.012, 594.677 469.008 C 600.667 469.001, 601.929 468.711, 602.311 467.250 C 602.655 465.933, 602.797 466.057, 602.884 467.750 C 603.048 470.940, 605.837 470.562, 606.571 467.250 C 613.939 433.968, 649.675 397, 674.478 397 C 678.680 397, 681.358 398.381, 678.807 399.231 C 678.046 399.485, 678.228 399.874, 679.301 400.285 C 683.846 402.029, 680.303 396.248, 673.709 391.161 C 667.028 386.007, 667.263 385.995, 662.462 391.742 M 467.364 390.869 C 464.539 391.915, 459.589 394.555, 456.364 396.736 C 451.550 399.991, 449.371 400.801, 444.193 401.261 C 436.793 401.918, 432.129 404.647, 429.053 410.119 C 426.460 414.733, 426.422 419.167, 428.956 421.460 C 430.868 423.191, 430.899 423.151, 430.335 419.678 C 429.104 412.088, 435.082 406.654, 445.672 405.738 C 450.298 405.338, 452.927 404.461, 456.172 402.239 C 471.907 391.460, 482.141 391.813, 506.599 403.981 C 518.234 409.769, 518.993 410, 526.389 410 C 538.059 410, 546.400 415.203, 546.400 422.484 C 546.400 425.184, 546.676 425.684, 547.700 424.834 C 549.602 423.255, 549.280 417.972, 547.059 414.329 C 543.665 408.762, 536.966 405.692, 527.092 405.177 C 518.987 404.754, 517.848 404.397, 507 398.878 C 489.533 389.993, 476.720 387.404, 467.364 390.869 M 664.500 394.464 C 662.850 395.219, 662.175 395.854, 663 395.874 C 663.825 395.894, 665.850 395.292, 667.500 394.536 C 669.150 393.781, 669.825 393.146, 669 393.126 C 668.175 393.106, 666.150 393.708, 664.500 394.464 M 666.313 401.939 C 647.941 408.553, 629.485 425.169, 619.706 443.900 C 614.007 454.816, 612.659 459.176, 616.953 452.803 C 620.312 447.818, 630.606 437.781, 634.295 435.894 C 635.517 435.269, 634.232 437.159, 631.411 440.133 C 628.613 443.085, 624.719 447.525, 622.758 450 C 619.212 454.477, 610.597 469.930, 611.271 470.605 C 611.466 470.799, 614.297 471.168, 617.562 471.425 C 620.828 471.682, 625.300 472.600, 627.500 473.466 C 629.700 474.332, 630.375 474.806, 629 474.520 C 627.625 474.233, 624.700 473.733, 622.500 473.409 C 618.555 472.827, 618.583 472.861, 624.500 475.823 C 627.800 477.475, 631.850 480.019, 633.500 481.475 C 637.147 484.693, 636.482 484.511, 627.393 479.801 C 617.350 474.597, 606.506 472.573, 592.520 473.291 C 583.461 473.756, 557.995 477.174, 553.279 478.557 C 552.348 478.830, 552.417 479.930, 553.572 483.205 C 558.920 498.363, 553.747 532.413, 543.513 549.408 C 541.562 552.648, 540.086 555.395, 540.233 555.512 C 541.330 556.387, 555.065 561.318, 562.027 563.335 C 603.739 575.423, 647.270 570.855, 669.212 552.088 C 709.779 517.392, 714.882 458.339, 681.685 407.750 C 675.945 399.002, 675.226 398.731, 666.313 401.939 M 475.030 415.055 C 471.805 416.417, 465.730 421.063, 466.356 421.689 C 466.624 421.957, 468.156 421.205, 469.760 420.019 C 476.058 415.363, 484.414 415.665, 495.728 420.960 C 504.482 425.056, 503.616 422.906, 494.750 418.532 C 486.980 414.699, 479.145 413.317, 475.030 415.055 M 620.255 427.250 C 619.711 427.938, 618.729 429.625, 618.072 431 C 616.917 433.420, 616.961 433.410, 619.440 430.694 C 620.848 429.151, 622 427.464, 622 426.944 C 622 425.660, 621.436 425.758, 620.255 427.250 M 398.464 441.750 C 363.853 481.877, 357.428 522.826, 381.641 548.979 C 397.193 565.777, 428.069 568.604, 458.341 556.002 L 465.831 552.884 461.666 548.692 C 445.934 532.861, 442.511 497.399, 455.045 480.097 C 456.751 477.741, 457.965 475.631, 457.742 475.408 C 456.424 474.090, 438.723 472.824, 427.558 473.249 C 414.873 473.732, 411.894 474.347, 397.500 479.457 C 395.700 480.096, 395.727 479.967, 397.766 478.160 C 399.013 477.056, 402.163 475.369, 404.766 474.411 C 411.626 471.887, 412.058 471.004, 406.450 470.970 C 402.401 470.945, 401.840 470.742, 403.368 469.854 C 404.519 469.185, 407.468 469.021, 411.051 469.426 L 416.865 470.084 417.496 465.292 C 418.004 461.442, 420.753 451.795, 424.064 442.243 C 424.467 441.081, 409.327 434.060, 406.325 434.017 C 405.678 434.008, 402.141 437.488, 398.464 441.750 M 613 438.211 C 613 438.511, 612.319 440.386, 611.487 442.378 C 610.654 444.370, 610.227 446, 610.538 446 C 611.412 446, 614.189 438.855, 613.559 438.225 C 613.251 437.918, 613 437.912, 613 438.211 M 424.725 451.167 C 423.243 456.300, 421.752 462.525, 421.412 465 L 420.795 469.500 433.373 469.500 L 445.950 469.500 446.550 465 C 446.879 462.525, 447.791 458.507, 448.575 456.072 C 449.359 453.636, 450 451.503, 450 451.331 C 450 450.678, 432.759 442.902, 430.154 442.381 C 427.470 441.844, 427.373 442.001, 424.725 451.167 M 429 446.500 C 428.340 448.499, 428.026 450.359, 428.301 450.634 C 428.576 450.909, 429.340 449.499, 430 447.500 C 430.660 445.501, 430.974 443.641, 430.699 443.366 C 430.424 443.091, 429.660 444.501, 429 446.500 M 565 452.749 C 543.531 458.998, 533.226 460.368, 507.500 460.393 C 483.297 460.416, 476.226 459.506, 459.303 454.189 L 453.105 452.242 451.553 459.069 C 449.129 469.725, 449.031 469.494, 456.755 471.371 C 461.831 472.605, 465.772 472.852, 472.614 472.367 C 484.175 471.546, 493.324 473.185, 499.679 477.216 C 504.965 480.568, 504.121 480.888, 509.272 473.579 C 512.058 469.627, 518.016 468.471, 523.376 470.842 C 525.771 471.901, 531.468 473.099, 536.038 473.503 C 540.607 473.908, 545.620 474.604, 547.176 475.051 C 549.054 475.589, 553.331 475.162, 559.877 473.784 L 569.748 471.705 570.999 466.102 C 571.688 463.021, 573.325 458.068, 574.639 455.096 C 575.952 452.124, 576.908 449.627, 576.763 449.547 C 576.618 449.467, 571.325 450.908, 565 452.749 M 444.158 454.866 C 442.755 459.551, 442.651 461.770, 443.897 460.450 C 444.837 459.455, 446.491 451, 445.746 451 C 445.510 451, 444.795 452.740, 444.158 454.866 M 605.459 455.445 C 604.597 457.508, 604.047 459.940, 604.237 460.848 C 604.427 461.757, 605.350 460.286, 606.288 457.580 C 608.322 451.715, 607.693 450.096, 605.459 455.445 M 425.684 458.382 C 425.308 459.362, 425.045 461.589, 425.100 463.332 C 425.198 466.418, 425.225 466.398, 426.123 462.567 C 427.113 458.342, 426.809 455.448, 425.684 458.382 M 580.228 460.718 C 578.293 465.890, 578.060 467, 578.910 467 C 579.732 467, 582.214 458.880, 581.584 458.250 C 581.411 458.077, 580.801 459.188, 580.228 460.718 M 514.465 472.952 C 513.346 473.405, 511.771 474.586, 510.965 475.575 C 509.631 477.214, 509.678 477.307, 511.498 476.624 C 512.597 476.211, 515.692 475.401, 518.378 474.826 C 521.797 474.092, 522.846 473.517, 521.880 472.905 C 520.188 471.833, 517.177 471.852, 514.465 472.952 M 457.384 479.996 C 445.817 497.475, 448.663 532.050, 462.902 547.018 L 466.680 550.990 473.900 548.534 C 482.378 545.650, 490.043 541.441, 495.241 536.815 L 498.965 533.500 495.409 526.250 C 493.454 522.263, 491.246 519, 490.504 519 C 489.761 519, 487.769 517.615, 486.077 515.923 C 480.791 510.637, 482.665 503.038, 490.005 499.998 L 493.077 498.725 489.789 496.769 C 485.600 494.277, 483.051 491.097, 483.022 488.327 C 482.990 485.192, 487.534 480.261, 491.195 479.457 C 498.238 477.910, 490.766 476.501, 475.145 476.430 L 459.790 476.361 457.384 479.996 M 520 477.692 C 518.625 477.923, 515.998 478.584, 514.161 479.163 L 510.822 480.214 513.884 482.076 C 521.516 486.717, 517.876 496.507, 507.713 498.671 L 504.926 499.265 508.438 501.652 C 518.094 508.213, 514.683 519.725, 502.542 521.546 C 500.044 521.921, 498 522.423, 498 522.663 C 498 526.313, 508.138 537.650, 516.465 543.311 C 522.844 547.648, 537.640 554.340, 538.996 553.502 C 540.637 552.488, 545.923 538.205, 548.990 526.500 C 552.745 512.164, 553.965 495.915, 552.048 485.756 L 550.814 479.215 543.366 478.108 C 536.140 477.033, 525.097 476.836, 520 477.692 M 489.775 482.559 C 484.337 485.510, 484.119 489.869, 489.230 493.449 C 492.528 495.759, 493.724 495.366, 494.979 491.562 C 495.603 489.672, 497.017 486.976, 498.122 485.572 C 499.226 484.168, 499.849 482.565, 499.506 482.010 C 498.592 480.531, 492.922 480.851, 489.775 482.559 M 502.582 485.304 C 500.007 488.680, 497 495.024, 497 497.081 C 497 498.458, 504.899 497.486, 509.500 495.543 C 516.586 492.551, 517.856 486.528, 512.035 483.518 C 507.617 481.233, 505.362 481.659, 502.582 485.304 M 443.550 491.107 C 441.985 495.495, 441.063 502.411, 441.164 509 L 441.279 516.500 442.058 508 C 442.486 503.325, 443.298 497.487, 443.862 495.027 C 444.833 490.793, 444.619 488.109, 443.550 491.107 M 562 503.208 C 562 507.906, 561.763 513.269, 561.473 515.125 C 560.985 518.256, 561.026 518.319, 562.037 516 C 563.122 513.514, 563.528 496.195, 562.525 495.192 C 562.236 494.903, 562 498.510, 562 503.208 M 437.652 500.342 C 437.211 503.005, 437.087 505.420, 437.376 505.710 C 438.213 506.546, 439.191 501.523, 438.805 498.371 C 438.519 496.037, 438.303 496.405, 437.652 500.342 M 567.070 502.750 C 567.032 505.637, 567.450 508, 568 508 C 569.203 508, 569.203 502.300, 568 499.500 C 567.369 498.031, 567.122 498.894, 567.070 502.750 M 496 507.986 C 496 518.510, 496.750 519.962, 501.717 519.047 C 516.570 516.311, 514.923 503.957, 499.250 500.548 L 496 499.841 496 507.986 M 488 504 C 484.911 507.089, 485.012 511.248, 488.261 514.750 C 491.505 518.247, 492 517.552, 492 509.500 C 492 501.582, 491.334 500.666, 488 504 M 699.743 517.144 C 693.507 533.223, 679.656 551.170, 666.763 559.879 C 657.436 566.178, 637.720 573, 628.840 573 C 623.582 573, 624.025 574.380, 630.250 577.396 C 653.261 588.542, 691.821 583.136, 708.538 566.419 C 715.897 559.059, 715.995 558.237, 711.552 541.054 C 709.482 533.049, 706.844 522.788, 705.689 518.250 C 704.535 513.712, 703.345 510.008, 703.045 510.017 C 702.745 510.026, 701.259 513.233, 699.743 517.144 M 497.121 540.077 C 491.697 544.937, 484.758 548.872, 475 552.620 L 467.500 555.500 476 556.144 C 480.675 556.499, 496.425 557.079, 511 557.434 L 537.500 558.079 529.896 555.163 C 520.758 551.660, 512.104 546.341, 506 540.476 L 501.500 536.152 497.121 540.077 M 718 555.550 C 718 557.502, 717.368 560.321, 716.597 561.813 C 714.778 565.329, 705.316 574.268, 701.111 576.443 C 698.698 577.690, 698.018 578.577, 698.523 579.818 C 699.981 583.394, 703 594.587, 703 596.413 C 703 599.699, 701.931 597.465, 700.435 591.052 C 699.646 587.669, 698.335 583.615, 697.522 582.043 L 696.044 579.185 689.272 581.520 C 665.029 589.877, 633.606 587.954, 620.994 577.341 C 618.236 575.021, 617.097 574.808, 605.366 574.423 C 589.819 573.913, 573.702 571.439, 560 567.459 C 558.704 567.082, 558.500 569.634, 558.500 586.262 C 558.500 618.868, 553.006 627.799, 530 632.592 C 523.299 633.988, 494.570 634.765, 486.098 633.779 C 483.744 633.506, 483.698 633.649, 483.787 641 C 483.851 646.263, 483.627 647.754, 483.039 646 C 482.577 644.625, 482.155 641.244, 482.100 638.487 L 482 633.473 473.222 631.376 C 456.236 627.319, 446.577 620.234, 441.964 608.449 C 439.287 601.609, 438.129 582.012, 439.790 571.652 L 440.728 565.804 437.614 566.597 C 435.901 567.033, 428.174 567.415, 420.442 567.445 C 406.541 567.499, 406.346 567.532, 403.058 570.298 C 398.226 574.363, 392.177 577.200, 388.338 577.200 C 384.881 577.200, 383.033 580.036, 384.314 583.376 C 384.605 584.135, 384.464 585.149, 383.999 585.628 C 382.675 586.995, 380.804 609.165, 380.803 623.500 C 380.800 650.625, 388.839 672.938, 407.615 697.919 C 416.905 710.281, 417.336 711.088, 413 708 C 411.350 706.825, 410 706.042, 410 706.259 C 410 706.476, 412.050 712.245, 414.556 719.077 C 424.039 744.934, 434.797 763.807, 441.244 765.896 C 461.412 772.429, 520.582 772.215, 536.532 765.551 C 539.534 764.297, 540.932 761.108, 540.989 755.387 C 540.995 754.774, 538.291 753.058, 534.981 751.572 C 531.670 750.086, 529.185 748.510, 529.457 748.069 C 529.730 747.628, 529.176 746.586, 528.226 745.754 C 525.828 743.652, 519.632 740.595, 520.449 741.917 C 521.472 743.573, 520.422 743.226, 516.637 740.658 C 514.739 739.370, 508.982 736.865, 503.843 735.093 C 493.646 731.575, 470.668 720.890, 469.606 719.172 C 469.242 718.582, 471.825 719.406, 475.346 721.003 C 492.437 728.752, 513.602 734.661, 535.650 737.839 C 553.967 740.479, 556.954 743.084, 566.469 764.717 L 570.773 774.500 578.136 776.221 C 607.980 783.196, 647.308 782.154, 675.122 773.650 C 679.864 772.200, 684.200 770.448, 684.757 769.757 C 685.315 769.066, 688.363 761.525, 691.530 753 C 694.698 744.475, 701.554 728.958, 706.766 718.517 C 721.179 689.648, 725.222 677.869, 728.569 655 C 730.934 638.837, 730.055 613.711, 726.452 594.500 C 725.008 586.800, 723.525 575.301, 723.157 568.947 C 722.665 560.448, 722.021 556.681, 720.721 554.697 C 718.406 551.164, 718 551.291, 718 555.550 M 459 559.870 C 456.438 560.885, 454.626 562.212, 454.792 562.951 C 454.994 563.852, 454.278 564.095, 452.451 563.746 C 451.003 563.469, 448.324 563.702, 446.496 564.263 L 443.173 565.282 442.455 575.814 C 439.544 618.529, 453.912 631.264, 505 631.250 C 547.201 631.240, 554.709 624.399, 555.770 584.995 L 556.268 566.489 549.384 563.615 C 542.547 560.761, 542.371 560.742, 523.500 560.940 C 506.445 561.118, 472.462 559.697, 466 558.535 C 464.625 558.288, 461.475 558.889, 459 559.870 M 391.137 567.369 C 390.512 569.853, 390 572.371, 390 572.963 C 390 574.157, 396.063 571.204, 399.988 568.100 L 402.477 566.132 399.694 565.074 C 392.677 562.406, 392.366 562.489, 391.137 567.369 M 462.500 564.506 C 464.836 565.321, 471 565.533, 471 564.799 C 471 564.360, 468.863 564.036, 466.250 564.079 C 463.637 564.122, 461.950 564.315, 462.500 564.506 M 481 566 C 482.375 566.440, 485.975 566.801, 489 566.801 C 493.169 566.801, 493.895 566.607, 492 566 C 490.625 565.560, 487.025 565.199, 484 565.199 C 479.831 565.199, 479.105 565.393, 481 566 M 540 566 C 540 567.194, 542.721 567.194, 545.500 566 C 547.104 565.311, 546.758 565.127, 543.750 565.070 C 541.688 565.032, 540 565.450, 540 566 M 505.500 567 C 505.840 567.550, 508.090 568, 510.500 568 C 512.910 568, 515.160 567.550, 515.500 567 C 515.884 566.379, 513.991 566, 510.500 566 C 507.009 566, 505.116 566.379, 505.500 567 M 714.453 574.147 C 710.737 578.045, 711.267 578.619, 715.343 575.109 C 717.066 573.625, 719.475 570, 718.738 570 C 718.555 570, 716.627 571.866, 714.453 574.147 M 550 576.500 C 550 579.324, 550.388 580.878, 551 580.500 C 551.550 580.160, 552 578.360, 552 576.500 C 552 574.640, 551.550 572.840, 551 572.500 C 550.388 572.122, 550 573.676, 550 576.500 M 394.656 580.116 C 392.541 581.232, 391.023 582.356, 391.282 582.615 C 391.945 583.278, 399 579.804, 399 578.815 C 399 577.782, 399.188 577.725, 394.656 580.116 M 611.498 579.928 C 613.410 582.107, 619 585.569, 619 584.574 C 619 584.311, 616.862 582.646, 614.250 580.874 C 610.592 578.393, 609.959 578.175, 611.498 579.928 M 628 588.828 C 630.294 590.270, 636.713 591.430, 635.500 590.183 C 634.950 589.618, 632.700 588.870, 630.500 588.520 C 627.823 588.095, 626.996 588.197, 628 588.828 M 686 589.168 C 684.075 589.712, 682.107 590.536, 681.628 591.001 C 680.467 592.123, 687.142 590.590, 689.584 589.173 C 691.886 587.837, 690.723 587.835, 686 589.168 M 549.860 595 C 549.507 598.025, 549.395 600.688, 549.610 600.917 C 550.635 602.011, 551.084 599.736, 550.806 594.861 L 550.500 589.500 549.860 595 M 523.416 595.134 C 516.601 599.895, 511.550 604, 512.505 604 C 513.282 604, 530 591.944, 530 591.383 C 530 590.629, 529.253 591.055, 523.416 595.134 M 642 591.935 C 642 595.516, 646.755 609.646, 650.168 616.206 C 659.442 634.031, 679.206 648.191, 699.255 651.372 L 706.010 652.444 705.506 660.472 C 705.194 665.458, 705.321 667.553, 705.843 666 C 706.306 664.625, 706.948 659.225, 707.270 654 C 707.592 648.775, 707.531 645.623, 707.134 646.995 C 706.157 650.370, 704.158 650.544, 695.701 647.990 C 671.890 640.796, 655.276 624.556, 646.940 600.325 C 644.328 592.733, 644.126 593.019, 651.750 593.512 C 657.155 593.862, 657.703 593.781, 654.500 593.105 C 647.808 591.692, 642 591.148, 642 591.935 M 505.243 601.523 C 499.601 606.735, 495.326 610.997, 495.743 610.994 C 496.159 610.991, 501.116 606.716, 506.759 601.494 C 512.401 596.272, 516.676 592.010, 516.259 592.023 C 515.841 592.035, 510.884 596.310, 505.243 601.523 M 666.500 593 C 664.945 593.668, 665.433 593.875, 668.691 593.930 C 670.996 593.968, 673.160 593.550, 673.500 593 C 674.251 591.785, 669.328 591.785, 666.500 593 M 635.286 596.625 C 635.561 597.656, 636.343 600.638, 637.023 603.250 C 637.703 605.862, 638.631 608, 639.086 608 C 639.540 608, 639.256 606.143, 638.456 603.874 C 637.655 601.605, 637 598.932, 637 597.933 C 637 596.935, 636.502 595.810, 635.893 595.434 C 635.182 594.994, 634.965 595.421, 635.286 596.625 M 547.003 612.492 C 546.424 614.015, 544.976 616.665, 543.786 618.381 L 541.622 621.500 543.949 619.500 C 546.376 617.414, 549.506 611.173, 548.587 610.253 C 548.295 609.961, 547.582 610.969, 547.003 612.492 M 705.697 624 C 706.010 630.325, 706.431 635.688, 706.633 635.917 C 707.387 636.772, 706.767 617.401, 705.965 615 C 705.480 613.552, 705.368 617.339, 705.697 624 M 645.031 621.820 C 644.965 624.607, 656.458 638.876, 657.738 637.596 C 658.088 637.245, 656.450 634.996, 654.097 632.599 C 651.744 630.201, 648.748 626.498, 647.440 624.370 C 646.133 622.241, 645.048 621.094, 645.031 621.820 M 500.125 642.691 C 500.056 646.646, 500.450 650.160, 501 650.500 C 502.181 651.230, 502.204 646.482, 501.051 640 C 500.289 635.717, 500.244 635.846, 500.125 642.691 M 666 644.458 C 666 645.034, 674.421 650, 675.397 650 C 676.999 650, 674.634 647.854, 670.972 645.986 C 666.994 643.956, 666 643.651, 666 644.458 M 484 654.460 C 484 657.931, 488.176 673.991, 489.251 674.655 C 489.977 675.104, 490.089 674.690, 489.587 673.414 C 489.174 672.361, 487.946 667.462, 486.860 662.526 C 484.890 653.574, 484 651.064, 484 654.460 M 685 653.883 C 685 654.573, 692.926 657, 695.181 657 C 697.471 657, 695.101 655.846, 690.103 654.527 C 687.297 653.787, 685 653.497, 685 653.883 M 501.408 661.250 C 502.854 670.682, 503.172 672.161, 503.652 671.681 C 504.530 670.803, 502.832 658, 501.838 658 C 501.327 658, 501.134 659.462, 501.408 661.250 M 504.674 678.250 C 505.501 682.561, 506.943 686.391, 507.520 685.813 C 508.208 685.125, 505.650 675, 504.788 675 C 504.382 675, 504.331 676.462, 504.674 678.250 M 701.065 686 C 700.401 688.475, 699.215 692.719, 698.429 695.432 C 696.604 701.728, 696.659 703.466, 698.545 699.120 C 700.579 694.435, 703.191 684.053, 702.688 682.656 C 702.459 682.020, 701.728 683.525, 701.065 686 M 492 684.909 C 492 686.251, 500.308 703.174, 502.511 706.319 C 505.141 710.074, 504.132 707.673, 498 695.583 C 494.700 689.076, 492 684.273, 492 684.909 M 509 692.122 C 509 693.606, 512.295 702.038, 512.712 701.621 C 513.317 701.016, 511.077 693.845, 509.879 692.550 C 509.396 692.028, 509 691.835, 509 692.122 M 516.723 710.750 C 518.258 714.820, 527.836 729.771, 526.813 726.500 C 526.331 724.958, 516.875 709, 516.444 709 C 516.234 709, 516.360 709.788, 516.723 710.750 M 689.208 721.532 C 687.454 725.089, 686.382 728, 686.825 728 C 687.817 728, 693.545 716.211, 692.877 715.544 C 692.613 715.280, 690.962 717.975, 689.208 721.532 M 684 735.090 C 684 735.323, 683.581 736.973, 683.070 738.757 C 682.558 740.540, 682.502 742, 682.945 742 C 683.876 742, 685.265 735.931, 684.507 735.174 C 684.228 734.895, 684 734.857, 684 735.090 M 284.285 741.378 C 280.609 744.746, 280.603 744.766, 281.932 748.792 L 283.264 752.830 288.382 752.530 C 291.197 752.365, 294.001 752.178, 294.614 752.115 C 296.514 751.919, 301 746.826, 301 744.864 C 301 741.640, 293.223 742.331, 288.150 746.006 C 284.075 748.958, 282.314 748.789, 285.750 745.776 C 289.122 742.819, 294.260 740.811, 297.310 741.259 L 300.355 741.706 298.067 739.853 C 294.269 736.777, 288.623 737.402, 284.285 741.378 M 521 743.418 C 521 744.204, 528.104 748.230, 528.605 747.728 C 528.880 747.453, 527.566 746.277, 525.685 745.114 C 522.353 743.055, 521 742.565, 521 743.418 M 547.566 745.091 C 546.869 747.081, 544 759.932, 544 761.062 C 544 761.578, 547.600 762, 552 762 C 556.400 762, 560 761.725, 560 761.390 C 560 757.305, 548.546 742.291, 547.566 745.091 M 264.329 749.518 C 259.296 754.770, 259.253 754.950, 262.340 757.850 L 264.680 760.048 270.086 755.104 C 273.060 752.384, 275.719 750.396, 275.996 750.687 C 276.273 750.977, 273.800 753.678, 270.500 756.690 L 264.500 762.166 268 761.463 C 278.102 759.432, 282.777 752.686, 277.641 747.550 C 273.568 743.477, 269.547 744.071, 264.329 749.518 M 302.608 747.791 C 299.771 753.278, 296.515 755, 288.980 755 C 282.850 755, 282.077 755.234, 280.561 757.548 C 278.192 761.163, 273.099 763.992, 268.951 763.996 C 265.814 764, 265.257 764.400, 264.154 767.451 C 262.738 771.367, 257.768 776, 254.982 776 C 252.405 776, 251.691 777.554, 253.077 780.144 C 254.634 783.053, 254.418 790.063, 252.642 794.315 L 251.208 797.746 254.854 798.886 C 261.151 800.855, 264.217 804.566, 267.940 814.719 L 270.220 820.937 273.061 819.469 C 280.672 815.533, 287.913 819.701, 291.847 830.282 C 293.029 833.462, 294.711 837.155, 295.584 838.488 C 297.903 842.027, 296.629 843.001, 289.691 842.990 C 277.368 842.971, 265.119 833.502, 267.542 825.868 C 268.041 824.295, 267.600 824, 264.749 824 C 258.802 824, 251.444 821.166, 246.883 817.118 C 242.845 813.535, 242.504 812.851, 242.437 808.207 C 242.373 803.843, 241.949 802.828, 239.233 800.543 C 234.626 796.666, 230.607 787.911, 231.427 783.538 C 232.150 779.682, 236.085 774.425, 238.922 773.525 C 240.326 773.079, 240.864 771.651, 241.213 767.440 C 241.510 763.864, 242.455 760.875, 243.914 758.902 L 246.158 755.867 243.292 757.349 C 229.154 764.660, 221.740 774.573, 218.484 790.515 C 217.587 794.907, 215.735 802.416, 214.369 807.201 C 212.109 815.117, 212.017 816.155, 213.351 818.700 L 214.816 821.497 215.446 817.498 C 217.060 807.254, 220.929 805.317, 224.340 813.045 C 226.217 817.298, 227.443 818.634, 231.068 820.373 C 238.564 823.970, 240.905 832.404, 237.511 843.591 C 233.945 855.345, 237.768 864.333, 243.595 857.895 C 245.087 856.247, 245.514 854.205, 245.563 848.472 C 245.633 840.459, 246.819 838, 250.613 838 C 252.213 838, 253.715 839.123, 255.241 841.460 C 256.483 843.363, 258.551 845.484, 259.835 846.174 C 264.772 848.827, 265.690 853.243, 264.481 868.500 C 263.688 878.506, 265.522 883, 270.398 883 C 275.387 883, 277.527 878.696, 277.231 869.260 C 276.832 856.549, 280.498 853.603, 288.132 860.500 C 291.449 863.497, 292.710 864, 296.908 864 C 301.067 864, 302.461 864.543, 306.092 867.577 C 310.230 871.034, 310.565 871.131, 316.167 870.481 C 321.341 869.880, 322.474 870.103, 326.731 872.554 C 330.130 874.511, 333.081 875.355, 337 875.493 C 340.247 875.606, 344.644 876.648, 347.733 878.034 L 352.965 880.382 358.451 878.109 C 363.416 876.051, 364.879 875.902, 373.868 876.539 C 383.241 877.204, 383.861 877.128, 384.900 875.187 C 386.152 872.848, 386.383 868, 385.243 868 C 384.827 868, 380.474 864.850, 375.571 861 C 364.695 852.460, 360 851.881, 360 859.078 C 360 863.202, 362.187 864.371, 368.516 863.627 C 374.389 862.937, 376.024 864.280, 371.435 866.025 C 361.677 869.735, 353.704 863.027, 358.103 854.807 C 359.449 852.292, 358.631 851.656, 351.245 849.486 C 344.967 847.640, 340.500 842.064, 340.500 836.072 C 340.500 833.003, 340.148 832.461, 338 832.220 C 332.402 831.593, 331.172 830.933, 330.152 828.006 C 329.320 825.620, 328.521 825, 326.275 825 C 322.544 825, 319.008 822.431, 318.968 819.693 C 318.947 818.190, 317.556 816.662, 314.550 814.839 C 302.911 807.780, 304.873 801.818, 319.738 799.077 C 325.543 798.006, 326.416 798.103, 332.316 800.463 C 339.700 803.417, 340.794 803.510, 344.636 801.506 C 352.828 797.233, 358.464 802.308, 352.195 808.313 C 348.394 811.955, 346.916 811.741, 350.443 808.060 C 355.581 802.697, 352.560 800.538, 344.752 803.992 C 340.249 805.983, 335.919 805.586, 332.399 802.856 C 330.473 801.363, 322.373 800.725, 318.875 801.791 C 317.019 802.357, 314.262 803.094, 312.750 803.429 C 307.632 804.562, 310.124 809.555, 317.725 813.396 C 319.911 814.500, 321.218 816.068, 321.784 818.263 C 322.404 820.667, 323.246 821.572, 325.059 821.780 C 330.602 822.416, 331.832 823.078, 332.841 825.973 C 333.697 828.430, 334.595 829.072, 337.922 829.603 C 342.835 830.389, 344.442 832.101, 343.561 835.612 C 342.522 839.752, 346.846 845.561, 351.636 846.459 C 353.710 846.849, 357.097 848.029, 359.164 849.083 C 361.230 850.138, 363.969 851, 365.251 851 C 366.533 851, 370.489 853.267, 374.041 856.037 C 377.593 858.808, 382.413 862.292, 384.750 863.780 C 390.077 867.171, 390.708 871.412, 386.827 877.750 C 384.978 880.769, 384.959 881.047, 386.554 881.659 C 388.923 882.568, 391.256 880.874, 392.129 877.610 C 393.233 873.483, 394.719 872.191, 400.429 870.391 C 405.460 868.805, 405.810 868.822, 410.477 870.887 C 415.720 873.206, 414.788 873.416, 421.827 868.334 C 423.771 866.931, 424.684 866.846, 427.372 867.817 C 432.289 869.596, 436.443 867.645, 438.412 862.632 C 439.274 860.439, 439.721 858.387, 439.406 858.073 C 439.091 857.758, 433.710 857.479, 427.449 857.454 C 416.931 857.412, 415.875 857.231, 413.580 855.075 C 411.889 853.487, 410.391 852.926, 408.888 853.319 C 407.498 853.682, 405.131 852.989, 402.502 851.448 C 400.204 850.102, 397.657 849, 396.842 849 C 396.027 849, 393.520 847.425, 391.271 845.500 C 386.128 841.098, 385.837 841.126, 386.607 845.943 C 387.196 849.624, 387.014 850.021, 383.869 851.939 C 380.462 854.016, 376.927 854.593, 375.620 853.286 C 375.227 852.894, 376.821 852.106, 379.161 851.536 C 383.321 850.523, 383.423 850.398, 383.705 845.986 C 384.019 841.057, 382.608 838.963, 375.629 834 C 373.696 832.625, 371.564 830.490, 370.891 829.257 C 368.257 824.422, 365.527 823.659, 359.257 826.005 C 352.210 828.642, 350.714 828.176, 344.630 821.450 C 337.963 814.078, 338.613 812.439, 347.771 813.530 C 351.472 813.971, 355.625 814.287, 357 814.231 C 384.077 813.129, 381.978 812.775, 384.627 818.896 L 385.755 821.500 386.877 818.685 C 387.495 817.137, 388 815.240, 388 814.470 C 388 812.633, 391.155 811, 394.703 811 C 398.510 811, 413.585 803.439, 411.429 802.611 C 410.553 802.275, 406.934 802, 403.386 802 C 399.838 802, 395.387 801.353, 393.495 800.562 C 390.981 799.512, 389.170 799.380, 386.777 800.071 C 382.648 801.264, 373.332 799.422, 370.436 796.840 C 369.300 795.828, 367.007 795, 365.341 795 C 363.580 795, 361.551 794.162, 360.500 793 C 359.278 791.649, 357.420 791, 354.779 791 C 349.548 791, 347.389 789.683, 345.026 785.051 C 343.585 782.226, 342.211 780.986, 339.979 780.495 C 337.901 780.039, 336.125 778.575, 334.471 775.954 C 331.744 771.634, 330.120 770.555, 324.944 769.623 C 320.600 768.840, 314.469 762.777, 313.716 758.518 C 313.036 754.672, 315.106 750.729, 318.653 749.112 C 322.484 747.367, 320.471 746.365, 311.327 745.464 L 304.176 744.759 302.608 747.791 M 292.250 747.989 C 290.462 749.079, 289 750.239, 289 750.567 C 289 750.895, 290.462 750.283, 292.250 749.206 C 294.038 748.130, 296.175 747.004, 297 746.704 C 298.333 746.219, 298.333 746.150, 297 746.083 C 296.175 746.041, 294.038 746.899, 292.250 747.989 M 255 752.500 L 252.500 753.929 255.143 753.965 C 256.597 753.984, 258.045 753.325, 258.362 752.500 C 259.071 750.650, 258.235 750.650, 255 752.500 M 530.574 752.333 C 530.856 753.067, 531.629 753.688, 532.293 753.714 C 532.957 753.740, 534.400 754.088, 535.500 754.486 C 536.603 754.886, 536.154 754.269, 534.500 753.112 C 531.030 750.684, 529.852 750.451, 530.574 752.333 M 317.607 753.582 C 316.301 756.984, 317.016 761.569, 319.135 763.384 C 321.257 765.200, 321.265 765.194, 320.426 762.356 C 319.962 760.785, 319.632 757.813, 319.691 755.750 C 319.803 751.910, 318.692 750.754, 317.607 753.582 M 249.299 757.960 C 238.694 764.425, 242.821 777.856, 254.033 773.370 C 261.530 770.370, 264.102 763.942, 259.927 758.635 C 257.420 755.447, 253.797 755.217, 249.299 757.960 M 248.965 762.250 C 246.820 765.725, 245.469 769.802, 246.215 770.549 C 246.466 770.799, 247.836 768.303, 249.261 765.002 C 252.132 758.348, 252.019 757.302, 248.965 762.250 M 254.788 765.607 C 253.297 768.023, 252.397 769.997, 252.788 769.993 C 253.878 769.983, 258.244 763.216, 257.848 762.151 C 257.657 761.635, 256.280 763.190, 254.788 765.607 M 298.465 761.952 C 292.798 764.249, 292.810 769.733, 298.489 772.428 C 303.361 774.740, 302.893 776.262, 296.496 778.913 C 288.028 782.423, 284.824 787.947, 288.582 792.559 C 290.141 794.472, 290.153 794.471, 289.420 792.500 C 287.373 786.987, 290.543 781.739, 296.966 780.009 C 302.702 778.465, 304.482 776.768, 303.091 774.171 C 302.452 772.977, 301.349 772, 300.639 772 C 299.342 772, 295 767.935, 295 766.722 C 295 766.364, 296.679 764.931, 298.732 763.536 C 302.447 761.012, 302.341 760.381, 298.465 761.952 M 676.207 767.511 C 674.968 770.060, 674.418 771.859, 674.985 771.509 C 676.427 770.618, 679.190 765.071, 678.790 763.870 C 678.608 763.323, 677.445 764.962, 676.207 767.511 M 544.731 770.234 C 545.384 778.376, 543.799 783.536, 540.048 785.475 C 537.667 786.707, 537.187 787.684, 536.741 792.208 C 536.454 795.119, 536.282 797.551, 536.360 797.612 C 536.437 797.674, 545.451 798.009, 556.391 798.357 L 576.281 798.990 572.982 796.745 C 566.876 792.589, 565.723 790.056, 565.471 780.246 C 565.161 768.148, 563.538 765, 557.614 765 C 555.230 765, 551.239 764.720, 548.745 764.379 L 544.211 763.757 544.731 770.234 M 369.500 766.553 C 353 767.249, 337.726 767.859, 335.559 767.909 C 332.261 767.985, 331.864 768.204, 333.129 769.250 C 333.960 769.938, 335.405 771.735, 336.340 773.245 C 337.274 774.754, 339.596 776.640, 341.498 777.435 C 343.400 778.229, 345.839 780.369, 346.919 782.190 C 350.044 787.461, 350.829 788, 355.384 788 C 358.420 788, 360.224 788.590, 361.500 790 C 362.594 791.209, 364.580 792, 366.520 792 C 368.286 792, 370.803 792.829, 372.115 793.841 C 375.817 796.699, 383.148 798.193, 386.957 796.865 C 389.485 795.984, 390.889 796.079, 393.818 797.329 C 396.108 798.307, 400.055 798.849, 404.262 798.764 C 414.138 798.564, 416.536 800.574, 416.400 808.943 L 416.299 815.123 419.900 814.599 C 421.880 814.311, 426.748 814.059, 430.719 814.038 C 436.715 814.006, 437.840 813.746, 437.362 812.500 C 436.936 811.390, 435.058 810.974, 430.143 810.900 C 419.189 810.736, 417.166 809.214, 427.750 809.100 C 436.300 809.008, 437 808.849, 437 807 C 437 805.159, 436.265 804.984, 427.750 804.794 L 418.500 804.589 427.467 804.252 C 436.279 803.922, 437.950 803.268, 437.985 800.137 C 437.995 799.188, 437.086 798.907, 435 799.213 C 433.350 799.455, 432 799.282, 432 798.827 C 432 798.372, 433.462 797.999, 435.250 797.998 C 438.314 797.996, 438.590 797.691, 440.070 792.663 L 441.640 787.330 438.774 785.685 C 435.185 783.625, 430.551 773.950, 430.663 768.750 L 430.744 765 415.122 765.144 C 406.530 765.223, 386 765.858, 369.500 766.553 M 434.280 769.048 C 435.233 776.158, 438.794 781.983, 443.384 783.944 C 458.664 790.468, 497.490 791.770, 522.022 786.580 C 539.068 782.973, 540.013 782.370, 541.095 774.407 C 542.058 767.318, 541.666 766.790, 536.429 768.119 C 532.800 769.040, 532.407 769.434, 532.728 771.825 C 532.926 773.296, 532.398 776.525, 531.554 779 C 530.711 781.475, 530.248 782.375, 530.524 781 C 532.148 772.926, 532.245 770, 530.886 770.001 C 530.124 770.002, 525.675 770.700, 521 771.552 C 496.307 776.051, 451.223 773.593, 437.627 767.006 L 433.754 765.129 434.280 769.048 M 682.293 773.922 L 677.085 776.344 677.658 780.518 C 678.071 783.534, 677.658 785.984, 676.171 789.346 C 673.971 794.321, 674.442 794.857, 678.961 792.520 C 683.139 790.360, 685.729 786.568, 687.045 780.689 C 689.032 771.804, 688.494 771.038, 682.293 773.922 M 238.750 776.080 C 234.355 778.640, 232.868 785.849, 235.610 791.300 C 237.627 795.309, 244.043 802.092, 245.163 801.400 C 245.623 801.115, 246 796.382, 246 790.882 C 246 783.692, 246.318 781.079, 247.132 781.582 C 247.903 782.058, 248.093 785.027, 247.727 790.891 L 247.190 799.500 249.027 796 C 255.226 784.191, 248.201 770.576, 238.750 776.080 M 568.519 776.970 C 567.731 778.244, 570.039 788.130, 571.724 790.702 C 576.272 797.643, 611.983 803.194, 637.818 800.976 C 648.528 800.056, 663.297 797.512, 670.302 795.381 C 673.379 794.444, 677.397 784.928, 676.572 780.531 C 675.926 777.089, 675.644 776.825, 673.184 777.364 C 647.507 782.986, 633.656 784.484, 614.516 783.708 C 600.118 783.125, 580.757 780.260, 573.276 777.606 C 570.953 776.781, 568.812 776.495, 568.519 776.970 M 239.439 784.750 C 240.184 790.060, 242.974 799.360, 243.626 798.707 C 243.859 798.475, 243.363 795.651, 242.524 792.432 C 241.686 789.213, 241 785.099, 241 783.290 C 241 781.480, 240.499 780, 239.886 780 C 239.131 780, 238.987 781.528, 239.439 784.750 M 274.200 784.200 C 271.518 786.882, 273.603 791, 277.643 791 C 281.129 791, 283.429 787.131, 281.325 784.806 C 279.452 782.737, 275.960 782.440, 274.200 784.200 M 317.905 785.615 C 316.353 787.485, 319.705 791, 323.039 791 C 324.592 791, 328 788.596, 328 787.500 C 328 784.398, 320.133 782.929, 317.905 785.615 M 275 786.930 C 275 788.487, 275.638 789, 277.573 789 C 280.856 789, 280.564 785.655, 277.240 785.180 C 275.539 784.938, 275 785.359, 275 786.930 M 320.217 787.166 C 320.459 787.900, 321.684 788.650, 322.940 788.834 C 324.491 789.061, 325.082 788.741, 324.783 787.834 C 324.541 787.100, 323.316 786.350, 322.060 786.166 C 320.509 785.939, 319.918 786.259, 320.217 787.166 M 528 789.540 C 508.993 795.479, 474.600 796.080, 453.176 790.848 C 448.598 789.729, 444.713 788.969, 444.543 789.157 C 444.373 789.346, 443.927 790.932, 443.552 792.682 C 442.904 795.712, 443.028 795.879, 446.161 796.182 C 448.706 796.428, 449.909 797.293, 451.475 800.003 L 453.500 803.506 455.940 801.225 C 461.243 796.265, 467.534 797.618, 472.015 804.684 L 474.761 809.014 476.458 806.424 C 482.714 796.876, 495.701 802.426, 498.502 815.843 C 499.174 819.063, 499.333 819.161, 502.850 818.519 C 516.148 816.094, 527.291 809.853, 530.246 803.175 C 531.926 799.378, 533.937 787.887, 532.890 788.067 C 532.675 788.104, 530.475 788.767, 528 789.540 M 761.500 788.929 C 764.800 789.381, 773.125 790.276, 780 790.920 C 786.875 791.563, 793.344 792.343, 794.375 792.652 C 795.491 792.987, 796 792.808, 795.631 792.212 C 795.290 791.660, 791.296 790.885, 786.756 790.489 C 782.215 790.092, 777.600 789.598, 776.500 789.390 C 775.400 789.182, 770.225 788.809, 765 788.560 C 757.151 788.187, 756.543 788.251, 761.500 788.929 M 544 793.925 C 546.870 794.758, 563.846 794.488, 564.739 793.594 C 565.066 793.267, 559.971 793.045, 553.417 793.100 C 546.671 793.156, 542.585 793.514, 544 793.925 M 755.571 801.702 C 744.610 805.375, 736.060 808.510, 736.571 808.669 C 737.082 808.827, 746.950 805.846, 758.500 802.044 C 770.050 798.242, 778.600 795.107, 777.500 795.077 C 776.400 795.048, 766.532 798.029, 755.571 801.702 M 442.892 798.886 C 441.038 800.388, 440.590 801.759, 440.550 806.055 C 440.502 811.142, 440.669 811.484, 444.500 814.150 C 449.783 817.827, 449.640 817.907, 450.275 810.903 C 451.203 800.669, 447.711 794.984, 442.892 798.886 M 670 799.743 C 645.679 807.155, 610.901 807.859, 585.856 801.445 C 582.751 800.650, 579.981 800, 579.699 800 C 579.418 800, 578.888 802.362, 578.522 805.250 C 578.155 808.138, 577.603 811.400, 577.295 812.500 C 576.758 814.414, 576.818 814.425, 578.683 812.762 C 583.872 808.133, 591.863 810.241, 594.908 817.043 L 596.659 820.953 598.927 817.885 C 605.177 809.431, 616.479 811.151, 620.998 821.245 L 622.746 825.148 624.848 821.746 C 630.416 812.736, 640.559 814.573, 645.048 825.403 C 647.615 831.595, 647.625 831.601, 652.521 829.556 C 662.974 825.188, 669.432 818.097, 672.966 807.106 C 675.744 798.466, 675.574 798.044, 670 799.743 M 459.215 801.693 C 455.479 803.502, 453 808.382, 453 813.926 C 453 818.872, 454.417 819.653, 465.211 820.656 L 472.299 821.315 471.774 814.772 C 470.883 803.678, 465.878 798.466, 459.215 801.693 M 535 800.918 C 535 801.423, 534.772 802.436, 534.492 803.168 C 534.081 804.247, 537.878 804.532, 554.492 804.669 L 575 804.838 575 802.419 L 575 800 555 800 C 543.521 800, 535 800.391, 535 800.918 M 248.229 801.669 C 243.095 803.735, 244.147 811.741, 250.147 816.275 C 253.382 818.718, 263.857 822.476, 264.802 821.532 C 265.055 821.278, 266.216 821.578, 267.381 822.198 C 268.547 822.819, 267.025 820.624, 264 817.321 C 258.656 811.485, 253.526 803.971, 255.878 805.425 C 256.520 805.821, 258.874 808.623, 261.111 811.650 C 265.931 818.175, 266.824 818.093, 263.961 811.392 C 260.174 802.527, 254.623 799.097, 248.229 801.669 M 480.743 805.084 C 478.158 806.589, 475 813.395, 475 817.460 L 475 821 481.750 820.989 C 496.223 820.965, 498.294 819.442, 494.383 811.700 C 490.785 804.580, 485.779 802.151, 480.743 805.084 M 532.459 807.067 C 531.440 808.715, 531.257 808.696, 553.250 809.292 C 573.266 809.834, 574 809.786, 574 807.927 C 574 806.087, 573.075 806, 553.559 806 C 540.160 806, 532.891 806.367, 532.459 807.067 M 408.707 808.533 C 406.621 809.299, 403.626 810.842, 402.053 811.963 C 400.304 813.208, 397.613 814, 395.134 814 C 391.207 814, 391.041 814.136, 389.935 818.250 C 389.307 820.587, 388.301 822.806, 387.700 823.180 C 385.963 824.262, 382.930 822.098, 381.853 819.007 L 380.863 816.169 370.182 816.670 C 354.808 817.392, 355.054 817.394, 348.631 816.507 L 342.761 815.697 347.941 820.542 L 353.121 825.387 357.810 823.590 C 360.390 822.601, 363.249 821.572, 364.163 821.302 C 366.119 820.726, 371.688 824.572, 373.344 827.642 C 374.735 830.221, 383.927 837.817, 388.598 840.248 C 391.818 841.923, 392.133 841.917, 396.228 840.093 C 398.578 839.047, 403.200 837.109, 406.500 835.786 L 412.500 833.382 412.612 823.441 C 412.673 817.973, 413.062 812.038, 413.475 810.250 C 414.312 806.633, 414.096 806.555, 408.707 808.533 M 250.783 810.500 C 252.116 813.080, 255.594 816.246, 260 818.891 C 265.298 822.072, 265.882 821.413, 260.900 817.875 C 258.480 816.156, 254.981 813.343, 253.125 811.625 C 250.839 809.509, 250.083 809.146, 250.783 810.500 M 219.649 811.759 C 218.928 812.925, 217.577 823.466, 216.585 835.658 L 216.003 842.816 221.022 848.023 C 223.782 850.887, 227.490 855.248, 229.261 857.714 C 232.689 862.487, 236.452 864.996, 240.200 865.007 C 242.880 865.014, 245.996 867.046, 251.321 872.259 C 256.869 877.690, 260.612 877.534, 260.834 871.864 C 260.923 869.589, 261.446 866.057, 261.996 864.014 C 263.873 857.045, 260.302 847.174, 255.849 847.022 C 255.491 847.010, 254.241 845.380, 253.073 843.399 C 249.944 838.096, 247.554 840.271, 248.468 847.590 C 249.509 855.918, 245.982 862.250, 240.303 862.250 C 233.973 862.250, 230.876 852.327, 234.500 843.654 C 238.206 834.785, 235.901 824.998, 229.535 822.566 C 225.887 821.173, 224.795 820.079, 222.762 815.775 C 221.377 812.844, 220.042 811.122, 219.649 811.759 M 526.500 813.531 L 523.500 815.990 548.133 815.995 C 571.683 816, 572.789 815.915, 573.275 814.058 C 573.554 812.990, 573.531 811.865, 573.225 811.558 C 572.918 811.251, 562.954 811.016, 551.083 811.036 C 529.662 811.072, 529.478 811.090, 526.500 813.531 M 579.923 814.923 C 576.348 818.498, 575.840 824.840, 578.885 827.885 C 580.611 829.611, 590.769 834, 593.038 834 C 594.594 834, 594.169 821.227, 592.506 818.011 C 589.215 811.648, 584.384 810.462, 579.923 814.923 M 415.009 817.500 C 415.016 818.600, 415.302 821.197, 415.645 823.270 C 416.234 826.831, 416.441 827.014, 419.384 826.558 C 421.098 826.292, 427.450 825.862, 433.500 825.602 C 443.240 825.182, 443.813 825.243, 438.500 826.135 C 435.200 826.689, 432.135 827.498, 431.689 827.932 C 431.243 828.367, 429.528 828.446, 427.878 828.109 C 426.228 827.771, 422.865 827.655, 420.405 827.851 L 415.931 828.207 416.161 832.103 C 416.434 836.725, 416.584 836.772, 420.149 833.357 C 422.336 831.262, 423.887 830.714, 427.633 830.714 C 431.500 830.714, 432.770 831.194, 434.631 833.357 C 435.881 834.811, 437.837 836, 438.977 836 C 441.318 836, 443 839.402, 443 844.137 C 443 848.854, 448.576 851.830, 450.830 848.314 C 451.198 847.739, 453.413 846.299, 455.750 845.114 C 460.973 842.466, 461.107 841.298, 456.294 840.395 C 453.630 839.896, 451.764 840.173, 449.658 841.381 C 446.172 843.382, 445.243 842.995, 447.857 840.630 C 450.567 838.177, 459.191 837.321, 460.866 839.338 C 462.978 841.883, 461.197 844.867, 455.993 847.504 C 453.320 848.858, 450.339 851.310, 449.369 852.952 C 447.529 856.068, 444.336 858.173, 445.313 855.626 C 445.608 854.858, 444.533 852.969, 442.925 851.428 C 440.485 849.090, 440 847.828, 440 843.813 C 440 839.158, 438.219 837.218, 436.500 840 C 435.298 841.944, 434.123 840.960, 433.813 837.750 C 433.510 834.602, 433.342 834.491, 428.480 834.206 C 421.728 833.810, 417.416 837.794, 417.865 844.012 C 418.112 847.434, 417.800 848.134, 415.576 849.148 C 414.159 849.793, 413 850.602, 413 850.945 C 413 852.311, 419.185 855.112, 421.760 854.912 C 436.911 853.732, 446.634 856.432, 442.737 860.738 C 441.592 862.003, 440.873 864.752, 440.648 868.715 C 440.414 872.857, 439.637 875.701, 438.182 877.744 C 437.015 879.384, 436.346 881.012, 436.696 881.363 C 437.047 881.713, 436.861 882, 436.283 882 C 435.706 882, 434.995 881.091, 434.705 879.979 C 434.221 878.130, 433.602 878.005, 427.438 878.513 C 420.461 879.087, 419 879.514, 419 880.981 C 419 883.057, 433.377 885.817, 434.523 883.962 C 435.531 882.331, 437 882.897, 437 884.917 C 437 885.971, 437.563 887.023, 438.250 887.254 C 440.092 887.874, 437.278 891, 434.878 891 C 432.508 891, 432.410 889.276, 434.750 888.764 C 435.712 888.554, 433.800 888.025, 430.501 887.588 C 427.202 887.151, 423.168 886.104, 421.538 885.261 C 418.811 883.851, 418.491 883.870, 417.537 885.498 C 413.735 891.987, 406.908 896.053, 402.594 894.398 C 400.811 893.713, 397.720 895.737, 398.534 897.056 C 399.660 898.877, 407.820 899.238, 410.938 897.604 C 412.622 896.722, 415.428 895.253, 417.174 894.340 C 419.897 892.916, 420.928 892.858, 424.424 893.931 C 426.666 894.619, 431.765 895.517, 435.756 895.928 C 441.780 896.548, 443.680 897.211, 446.947 899.837 C 451.677 903.639, 451.625 903.632, 452.407 900.515 C 453.718 895.289, 462.967 897.129, 463.811 902.784 C 464.097 904.700, 464.740 904.858, 471.811 904.748 C 478.432 904.645, 480.498 905.071, 486.686 907.810 C 500.060 913.732, 511.938 915.477, 519.925 912.694 C 524.968 910.936, 524.741 909.409, 519.003 906.501 C 508.076 900.964, 515.804 897.179, 534.500 898.911 C 559.356 901.214, 577 899.148, 577 893.935 C 577 889.807, 566.086 885.794, 549.848 883.952 C 531.569 881.879, 527.614 879.718, 531.781 874.082 C 534.548 870.340, 534.560 870.454, 531.250 869.206 C 524.257 866.569, 522.650 866.890, 520.500 871.350 C 518.161 876.203, 512.795 879.157, 489.191 888.586 L 474.882 894.302 470.691 892.016 C 468.386 890.760, 466.004 889.121, 465.398 888.376 C 464.791 887.631, 462.615 886.319, 460.562 885.461 L 456.829 883.902 457.066 874.201 C 457.196 868.865, 456.958 863.059, 456.536 861.297 C 455.829 858.347, 456.216 857.625, 461.429 852.160 C 465.673 847.710, 467.238 845.259, 467.683 842.363 C 468.529 836.864, 469.605 835.932, 474.891 836.119 C 483.531 836.425, 490 835.768, 490 834.585 C 490 833.027, 495.282 830, 498 830 C 500.391 830, 506 832.955, 506 834.216 C 506 834.647, 523.438 834.980, 544.750 834.956 C 583.271 834.912, 583.479 834.900, 579.947 833.033 C 576.751 831.343, 573.447 831.122, 546.947 830.828 C 530.751 830.648, 515.250 830.197, 512.500 829.826 C 509.750 829.455, 522.877 829.340, 541.671 829.571 L 575.842 829.990 574.419 827.137 L 572.995 824.284 537.248 823.765 C 516.037 823.456, 498.893 823.643, 495.090 824.225 C 491.373 824.794, 482.129 824.916, 473.090 824.515 C 451.333 823.551, 436.013 823.073, 425.583 823.034 C 420.679 823.015, 416.854 822.834, 417.083 822.632 C 417.450 822.308, 438.457 821.120, 446.500 820.968 L 449.500 820.912 445.500 818.706 C 439.509 815.402, 414.989 814.433, 415.009 817.500 M 601.673 818.940 C 596.183 825.017, 595.274 833.802, 600 835.109 C 601.375 835.490, 606.725 835.845, 611.890 835.900 L 621.280 836 620.724 830.613 C 619.238 816.218, 609.515 810.260, 601.673 818.940 M 398.951 818.559 C 397.248 820.611, 399.622 823.559, 401.633 821.890 C 402.385 821.266, 403 820.183, 403 819.485 C 403 817.550, 400.300 816.933, 398.951 818.559 M 514.500 819.452 L 508.500 821.897 535.500 821.957 C 550.350 821.990, 564.862 822.301, 567.750 822.648 C 572.917 823.269, 573 823.237, 573 820.639 C 573 818.161, 572.710 817.998, 568.250 817.973 C 565.638 817.958, 553.825 817.735, 542 817.477 C 520.964 817.018, 520.371 817.061, 514.500 819.452 M 632.500 818.788 C 627.863 819.758, 624 825.662, 624 831.777 C 624 836.178, 623.433 836.087, 637.250 833.891 C 644.730 832.702, 645.168 832.041, 642.583 825.852 C 640.373 820.563, 636.611 817.927, 632.500 818.788 M 274.523 821.565 C 264.316 826.887, 272.282 837.442, 289.500 841.411 C 292.077 842.005, 291.776 841.609, 287.364 838.602 C 282.445 835.248, 276 828.490, 276 826.685 C 276 826.212, 278.616 828.452, 281.813 831.663 C 285.010 834.873, 289.173 838.363, 291.063 839.417 L 294.500 841.333 292.595 839.167 C 291.547 837.975, 290.962 837, 291.294 837 C 291.626 837, 291.203 835.313, 290.354 833.250 C 285.144 820.599, 281.514 817.919, 274.523 821.565 M 676.538 820.937 C 681.590 822.046, 723.002 822.771, 723.001 821.750 C 723 821.337, 718.572 821, 713.159 821 C 707.746 821, 696.384 820.786, 687.909 820.525 C 677.670 820.209, 673.855 820.348, 676.538 820.937 M 761.500 821.042 C 762.600 821.504, 778.350 823.949, 796.500 826.476 C 814.650 829.003, 830.513 831.217, 831.750 831.396 C 832.987 831.576, 834 831.335, 834 830.861 C 834 830.388, 832.876 830, 831.503 830 C 830.130 830, 821.467 828.895, 812.253 827.544 C 763.118 820.340, 758.380 819.733, 761.500 821.042 M 283 826.850 C 283 827.969, 288.543 835.599, 290.018 836.511 C 290.650 836.902, 289.491 834.697, 287.442 831.611 C 283.730 826.019, 283 825.237, 283 826.850 M 406.639 826.694 C 405.444 827.889, 405.994 830, 407.500 830 C 408.325 830, 409 829.352, 409 828.559 C 409 826.888, 407.573 825.761, 406.639 826.694 M 539.750 826.740 C 543.188 826.936, 548.813 826.936, 552.250 826.740 C 555.688 826.545, 552.875 826.385, 546 826.385 C 539.125 826.385, 536.313 826.545, 539.750 826.740 M 514.784 827.738 C 517.689 827.941, 522.189 827.939, 524.784 827.734 C 527.378 827.528, 525 827.363, 519.500 827.365 C 514 827.368, 511.878 827.536, 514.784 827.738 M 391 829.107 C 391 829.716, 391.725 829.936, 392.611 829.596 C 393.753 829.157, 394.057 829.408, 393.655 830.457 C 393.343 831.270, 393.471 832.173, 393.939 832.462 C 394.407 832.752, 395.078 832.240, 395.429 831.324 C 396.075 829.640, 394.541 828.043, 392.250 828.015 C 391.563 828.007, 391 828.498, 391 829.107 M 445 829.169 C 447.423 830.179, 505.829 829.504, 506.879 828.454 C 507.129 828.204, 492.746 828.029, 474.917 828.063 C 451.451 828.109, 443.190 828.414, 445 829.169 M 357.500 830 C 355.121 831.022, 355.221 831.061, 361 831.362 C 363.475 831.491, 366.288 831.960, 367.250 832.405 C 368.224 832.855, 369 832.812, 369 832.308 C 369 830.087, 361.023 828.486, 357.500 830 M 494.260 834.250 C 493.719 834.938, 492.978 836.747, 492.613 838.272 C 491.807 841.647, 494.552 843.333, 496.505 840.662 C 497.173 839.748, 498.027 839, 498.402 839 C 499.946 839, 502.812 842.739, 503.935 846.219 C 504.652 848.443, 506.702 851.180, 509.033 853.026 C 513.680 856.707, 514.655 860.374, 513.205 868.717 C 512.027 875.495, 512.155 875.784, 515.388 873.666 C 518.237 871.799, 520.129 863.455, 518.826 858.500 C 517.986 855.303, 514.258 851.545, 509.252 848.851 C 506.725 847.490, 505.966 846.208, 504.921 841.536 C 503.272 834.168, 497.456 830.193, 494.260 834.250 M 403.237 839.569 C 392.739 843.829, 392.070 844.717, 398 846.512 C 399.375 846.929, 401.388 847.884, 402.473 848.635 C 405.045 850.416, 406.519 850.357, 411.209 848.288 L 415.091 846.575 414.420 841.038 C 414.051 837.992, 413.693 835.479, 413.625 835.453 C 413.556 835.426, 408.882 837.279, 403.237 839.569 M 299.923 839.923 C 296.682 843.164, 296.207 846.566, 298.402 850.810 C 302.177 858.110, 323.413 862.730, 328.733 857.410 C 329.994 856.149, 328.970 854.752, 320.713 846.482 C 311.759 837.514, 311.018 837, 307.046 837 C 303.737 837, 302.226 837.620, 299.923 839.923 M 366.585 837.863 C 365.846 839.058, 369.596 841.368, 370.933 840.541 C 371.424 840.238, 373.410 841.897, 375.346 844.228 C 377.283 846.559, 379.205 848.128, 379.618 847.715 C 380.631 846.702, 373.012 839, 370.997 839 C 370.119 839, 368.911 838.511, 368.313 837.913 C 367.570 837.170, 367.023 837.154, 366.585 837.863 M 480 839.052 C 478.075 839.491, 475.321 839.614, 473.880 839.326 C 471.503 838.851, 471.193 839.155, 470.544 842.616 C 469.546 847.938, 467.706 851.124, 464.097 853.780 C 462.394 855.034, 461 856.407, 461 856.831 C 461 857.769, 469.517 862, 471.404 862 C 472.147 862, 473.315 862.675, 474 863.500 C 476.039 865.956, 472.767 865.379, 465.772 862.047 C 462.363 860.423, 459.428 859.239, 459.252 859.415 C 459.075 859.592, 459.364 861.666, 459.894 864.024 C 460.424 866.382, 460.606 871.313, 460.298 874.980 L 459.739 881.649 463.120 883.819 C 464.979 885.013, 467.816 886.865, 469.424 887.936 L 472.347 889.883 474.141 884.691 C 475.145 881.786, 475.949 876.563, 475.967 872.832 C 476.010 864.103, 476.383 863.346, 482.063 860.468 C 486.723 858.107, 492 852.592, 492 850.084 C 492 849.409, 492.675 848.182, 493.500 847.357 C 495.548 845.309, 495.587 842.268, 493.544 843.964 C 491.737 845.463, 490 844.500, 490 842 C 490 840.965, 489.663 839.929, 489.250 839.697 C 487.323 838.616, 483.180 838.327, 480 839.052 M 302.039 841.189 C 295.640 848.057, 303.520 855.028, 319.500 856.635 L 325.500 857.238 318.482 853.666 C 314.622 851.701, 310.122 848.662, 308.482 846.913 C 305.985 844.249, 306.720 844.561, 313 848.831 C 325.633 857.421, 327.617 856.689, 317.627 847.122 C 308.420 838.304, 305.693 837.266, 302.039 841.189 M 352.690 840.643 C 351.755 841.578, 353.931 844, 355.706 844 C 356.509 844, 357.005 843.516, 356.808 842.925 C 356.611 842.334, 356.062 841.922, 355.587 842.010 C 355.112 842.099, 354.418 841.676, 354.043 841.070 C 353.669 840.465, 353.061 840.273, 352.690 840.643 M 184.223 843.557 C 178.309 847.699, 186.300 852.586, 193.066 848.965 C 196.786 846.974, 193.526 842, 188.500 842 C 187.370 842, 185.445 842.701, 184.223 843.557 M 600 843.020 C 605.345 843.780, 683.750 844.363, 682.917 843.637 C 682.688 843.437, 662.700 843.040, 638.500 842.756 C 614.300 842.471, 596.975 842.590, 600 843.020 M 429.892 844.630 C 427.751 847.210, 431.643 849.633, 434.204 847.315 C 435.219 846.397, 435.901 845.204, 435.722 844.665 C 435.162 842.987, 431.275 842.964, 429.892 844.630 M 185.750 845.080 C 182.846 846.771, 183.768 848, 187.941 848 C 192.458 848, 193.967 846.588, 191.094 845.050 C 188.701 843.770, 187.993 843.774, 185.750 845.080 M 497.692 846.260 C 496.697 847.492, 494.447 850.922, 492.692 853.882 C 490.359 857.816, 488.154 860.008, 484.500 862.030 L 479.500 864.796 478.908 873.648 C 478.583 878.517, 477.564 884.188, 476.645 886.250 C 474.354 891.389, 474.365 891.386, 498.044 881.423 L 508.589 876.986 509.794 872.479 C 511.665 865.487, 511.361 858.309, 509.114 856.386 C 503.197 851.325, 501.903 849.764, 501.355 847.026 C 500.634 843.418, 500.080 843.303, 497.692 846.260 M 473 847 C 473 849.369, 473.634 849.509, 475.571 847.571 C 477.509 845.634, 477.369 845, 475 845 C 473.667 845, 473 845.667, 473 847 M 216.644 856 C 217.340 869.643, 218.052 871.702, 224.247 877.962 C 249.624 903.607, 313.615 916.675, 371.500 908.033 L 379.500 906.839 379.611 900.919 L 379.721 895 374.486 895 C 371.607 895, 367.338 895.675, 365 896.500 C 359.045 898.601, 356.706 898.394, 351.111 895.270 L 346.222 892.540 340.842 894.770 C 333.763 897.704, 331.592 897.589, 325.968 893.980 C 321.721 891.254, 320.581 890.986, 314.300 891.230 C 308.028 891.473, 306.927 891.215, 303.178 888.620 C 299.326 885.953, 298.567 885.791, 292.955 886.426 C 287.680 887.022, 286.344 886.805, 282.665 884.748 C 278.521 882.432, 278.377 882.421, 275.468 884.187 C 270.841 886.997, 268.145 886.478, 263.835 881.947 C 261.715 879.718, 259.572 878.146, 259.074 878.454 C 257.362 879.512, 252.494 876.880, 247.978 872.456 C 244.542 869.089, 242.324 867.813, 238.739 867.143 C 233.227 866.114, 231.987 865.208, 226.909 858.501 C 224.826 855.751, 221.544 851.700, 219.616 849.500 L 216.109 845.500 216.644 856 M 606.456 846.929 C 606.772 847.439, 613.436 847.839, 621.265 847.816 C 629.918 847.791, 634.324 847.473, 632.500 847.005 C 628.103 845.879, 605.766 845.813, 606.456 846.929 M 557.882 848.161 C 576.364 848.644, 592.890 848.630, 596.382 848.127 C 600.516 847.532, 590.016 847.258, 564 847.280 L 525.500 847.314 557.882 848.161 M 663 851.921 C 657.225 853.476, 643.755 857.079, 633.067 859.927 C 622.379 862.775, 612.929 865.553, 612.067 866.100 C 610.087 867.358, 609.114 867.588, 636 860.428 C 647.825 857.278, 661.178 853.753, 665.674 852.593 C 670.170 851.434, 674.182 850.151, 674.591 849.743 C 675.728 848.606, 674.341 848.866, 663 851.921 M 481 852 C 479.819 852.730, 479.770 853.170, 480.758 854.158 C 481.724 855.124, 482.267 855.133, 483.200 854.200 C 484.822 852.578, 483.005 850.761, 481 852 M 333.679 854.464 C 328.463 859.680, 334.142 865.990, 344.059 865.996 C 354.212 866.003, 355.533 862.527, 347.483 856.988 C 341.824 853.095, 336.096 852.047, 333.679 854.464 M 335.605 856.537 C 331.622 860.521, 336.637 863.447, 346.872 863.111 C 350.791 862.982, 350.093 861.426, 344.638 858.126 C 339.716 855.149, 337.401 854.742, 335.605 856.537 M 183.764 858.002 C 181.159 858.458, 175.869 860.286, 172.008 862.066 L 164.988 865.301 152.184 864.732 C 128.326 863.671, 111.551 869.077, 122.500 874.299 C 129.320 877.551, 126.874 879.175, 111.288 881.741 C 85.840 885.930, 80.945 894.500, 104 894.500 C 112.311 894.500, 112.572 894.426, 115.747 891.176 C 119.406 887.430, 122.645 887.247, 122.259 890.808 C 122.060 892.640, 122.414 892.945, 124.259 892.532 C 125.491 892.256, 130.775 891.315, 136 890.441 C 141.225 889.567, 149.712 887.985, 154.860 886.926 C 166.455 884.540, 166.494 884.541, 168.864 887.084 C 170.566 888.911, 171.497 889.082, 176.403 888.469 C 179.481 888.084, 182 888.035, 182 888.359 C 182 889.462, 176.109 892, 173.550 892 C 172.147 892, 171 892.563, 170.999 893.250 C 170.999 893.938, 169.195 896.249, 166.991 898.388 C 159.935 905.232, 165.750 907.363, 183.580 904.465 C 194.170 902.745, 194.951 902.738, 197.402 904.344 C 200.419 906.320, 200.616 907.908, 198.383 912.227 C 196.868 915.156, 196.880 915.439, 198.574 916.678 C 201.010 918.459, 207.009 918.344, 213.742 916.387 C 217.039 915.428, 221.260 914.963, 224.145 915.240 C 232.371 916.030, 232.205 913.803, 223.758 910.053 C 214.753 906.056, 208.089 901.956, 201.109 896.115 C 197.507 893.101, 196.108 892.334, 196.894 893.802 C 198.747 897.265, 195.805 896.632, 193.731 893.122 C 187.120 881.930, 190.689 869.593, 202.750 861.943 C 206.224 859.740, 206.748 859.069, 205.310 858.666 C 201.556 857.614, 188.317 857.206, 183.764 858.002 M 205.193 863.683 C 183.812 878.189, 192.247 894.519, 228.659 909.114 C 285.275 931.807, 394.147 929.082, 437.937 903.876 C 443.089 900.910, 443.272 900.670, 441.437 899.290 C 440.076 898.267, 438.054 897.997, 434.635 898.383 C 431.364 898.753, 428.842 898.453, 426.935 897.466 C 422.941 895.401, 420.677 895.621, 414.717 898.657 L 409.500 901.313 398.382 900.104 C 383.608 898.498, 382 898.933, 382 904.531 C 382 908.522, 381.757 908.921, 378.750 909.865 C 361.171 915.381, 305.961 914.634, 279.500 908.521 C 241.804 899.813, 213.061 880.243, 213.010 863.250 C 212.997 859.113, 211.833 859.177, 205.193 863.683 M 280.188 868.250 C 280.360 872.788, 280.129 877.523, 279.675 878.773 C 278.302 882.559, 285.829 885.350, 293.227 883.798 C 298.649 882.661, 298.862 882.703, 303.872 885.918 C 308.683 889.005, 309.338 889.157, 315 888.500 C 320.608 887.849, 321.343 888.012, 325.846 890.901 C 331.158 894.310, 335.898 894.845, 340 892.500 C 343.607 890.438, 348.750 890.682, 352.665 893.102 C 355.327 894.747, 356.982 895.067, 360.283 894.574 C 362.602 894.228, 367.907 893.688, 372.070 893.374 L 379.640 892.805 380.894 887.152 C 381.584 884.044, 382.356 881.002, 382.610 880.393 C 382.917 879.656, 380.141 879.103, 374.286 878.737 C 366.505 878.251, 364.841 878.465, 359.741 880.611 C 353.554 883.213, 351.276 883.106, 344.895 879.911 C 342.705 878.816, 339.317 878.152, 336.269 878.221 C 332.460 878.308, 330.119 877.674, 326.570 875.594 C 322.319 873.103, 321.314 872.914, 315.564 873.530 C 309.317 874.199, 309.185 874.162, 305.247 870.604 C 301.765 867.459, 300.609 867, 296.162 867 C 291.672 867, 290.651 866.584, 287.567 863.500 C 281.465 857.398, 279.818 858.458, 280.188 868.250 M 566.400 864.428 C 560.079 867.180, 561.874 873, 569.044 873 C 576.816 873, 579.585 866.445, 572.810 864.084 C 571.100 863.488, 569.656 863.018, 569.601 863.039 C 569.545 863.061, 568.105 863.686, 566.400 864.428 M 565.937 867.576 C 563.502 870.510, 568.928 872.236, 572.462 869.652 C 573.476 868.910, 573.985 867.785, 573.594 867.152 C 572.551 865.464, 567.455 865.747, 565.937 867.576 M 493.050 868.440 C 490.933 870.990, 492.149 875.459, 495.052 875.797 C 498.786 876.232, 501.356 873.067, 500.053 869.640 C 498.922 866.663, 495.072 866.004, 493.050 868.440 M 494.667 869.667 C 494.300 870.033, 494 871.191, 494 872.240 C 494 874.965, 497.416 874.071, 497.820 871.240 C 498.127 869.083, 496.208 868.125, 494.667 869.667 M 421.082 872.412 C 417.597 876.123, 415.522 876.421, 410.976 873.866 C 405.118 870.574, 395 873.269, 395 878.122 C 395 881.215, 391.203 884.257, 387.939 883.778 C 384.624 883.291, 384.264 883.906, 383.361 891.585 L 382.725 897 389.862 897 C 396.069 897, 397 896.765, 397 895.200 C 397 892.218, 398.875 891.232, 403.542 891.758 C 407.558 892.210, 408.259 891.941, 411.508 888.692 C 414.243 885.957, 414.934 884.584, 414.481 882.779 C 413.536 879.017, 419.858 876, 428.686 876 C 435.899 876, 438 875.026, 438 871.683 C 438 870.090, 437.537 869.885, 435.250 870.466 C 431.819 871.338, 429.215 871.351, 425.991 870.512 C 424.073 870.013, 422.915 870.461, 421.082 872.412 M 466.446 873.087 C 466.077 873.685, 466.256 874.656, 466.845 875.245 C 468.093 876.493, 471.339 874.357, 470.430 872.887 C 469.669 871.655, 467.256 871.777, 466.446 873.087 M 638.083 873.392 C 638.313 873.607, 646.375 874.974, 656 876.428 C 665.625 877.883, 682.950 880.608, 694.500 882.484 C 715.362 885.872, 727.415 887.446, 725.500 886.533 C 721.544 884.648, 636.448 871.855, 638.083 873.392 M 158.963 875.847 C 155.893 878.354, 157.107 879.946, 162.629 880.655 C 167.678 881.304, 171.329 878.965, 168.987 876.583 C 166.373 873.926, 161.732 873.585, 158.963 875.847 M 160.244 876.664 C 159.553 876.943, 159.242 877.582, 159.553 878.085 C 160.281 879.264, 166.709 879.280, 167.435 878.105 C 168.452 876.460, 163.306 875.430, 160.244 876.664 M 203.200 877.200 C 201.199 879.201, 201.859 880.438, 203.928 878.565 C 205.215 877.400, 206.587 877.052, 208.054 877.517 C 209.543 877.990, 210.030 877.858, 209.566 877.107 C 208.657 875.636, 204.706 875.694, 203.200 877.200 M 397.750 882.013 C 394.816 884.954, 394.368 886, 396.040 886 C 397.763 886, 403 881.720, 403 880.312 C 403 878.267, 400.765 878.991, 397.750 882.013 M 508.503 886.995 C 508.119 887.617, 509.785 887.898, 512.937 887.745 C 515.714 887.610, 517.989 887.163, 517.993 886.750 C 518.004 885.621, 509.212 885.848, 508.503 886.995 M 159.711 888.697 C 158.280 889.069, 158.754 889.764, 162.091 892.181 C 166.265 895.204, 168.798 894.729, 167.489 891.168 C 167.220 890.436, 167 889.423, 167 888.918 C 167 887.982, 162.938 887.858, 159.711 888.697 M 149.500 890.713 C 145.836 891.594, 145.886 892.659, 149.710 895.136 C 153.172 897.379, 153.918 897.499, 158.334 896.527 C 162.933 895.515, 163.079 895.382, 161.333 893.801 C 159.307 891.968, 154.536 889.935, 152.685 890.116 C 152.033 890.180, 150.600 890.448, 149.500 890.713 M 515.738 890.692 C 513.047 891.393, 514.603 892.799, 517.464 892.252 C 518.846 891.987, 519.730 891.373, 519.429 890.886 C 518.856 889.958, 518.601 889.945, 515.738 890.692 M 116.500 894 C 115.398 896.131, 114.218 897, 112.425 897 C 109.198 897, 103.751 899.788, 104.526 901.043 C 104.852 901.569, 106.663 902, 108.550 902 C 111.001 902, 112.772 902.809, 114.741 904.829 C 119.246 909.448, 121.323 909.746, 119.290 905.481 C 117.949 902.669, 117.835 901.063, 118.658 896.527 C 119.764 890.422, 118.884 889.390, 116.500 894 M 132.703 893.698 C 128.829 894.704, 139.377 900.203, 143.692 899.428 C 150.089 898.278, 150.614 897.542, 146.741 895.149 C 143.418 893.095, 137.417 892.475, 132.703 893.698 M 184.250 894.662 C 182.324 895.439, 182.770 897, 184.918 897 C 187.531 897, 190 895.976, 190 894.893 C 190 893.952, 186.372 893.806, 184.250 894.662 M 121.557 896.307 C 119.850 897.579, 119.792 897.935, 121.077 899.220 C 124.293 902.436, 126.430 902.912, 132.050 901.663 L 137.477 900.458 133.780 898.173 C 128.951 895.189, 124.057 894.442, 121.557 896.307 M 454.667 900.667 C 453.644 901.689, 453.875 906, 454.953 906 C 456.422 906, 461 903.759, 461 903.039 C 461 900.845, 456.263 899.071, 454.667 900.667 M 609.098 901.265 C 605.647 903.040, 604.255 905.595, 605.587 907.708 C 608.294 911.998, 620.130 911.316, 621.568 906.787 C 623.070 902.052, 614.740 898.363, 609.098 901.265 M 422.348 903.246 C 422.016 903.784, 422.364 904.616, 423.122 905.096 C 425.008 906.291, 425.572 906.220, 426.900 904.621 C 427.813 903.520, 427.530 903.143, 425.498 902.755 C 424.098 902.487, 422.680 902.708, 422.348 903.246 M 610 903.606 C 606.655 905.067, 606.586 905.198, 608.441 906.567 C 611.753 909.011, 619 908.189, 619 905.368 C 619 904.299, 614.961 901.769, 613.685 902.039 C 613.583 902.061, 611.925 902.766, 610 903.606 M 439.500 906.093 C 407.873 924.343, 332.802 932.207, 274 923.428 C 263.469 921.856, 238.303 915.767, 234.976 913.987 C 232.820 912.833, 231.160 915.839, 233.216 917.172 C 239.441 921.205, 276.116 928.653, 301 930.937 C 351.367 935.561, 421.934 923.440, 442.500 906.631 C 446.879 903.053, 445.269 902.764, 439.500 906.093 M 255.750 907.025 C 251.589 909.579, 255.060 913, 261.812 913 C 266.670 913, 269.139 910.711, 266.802 908.373 C 264.870 906.442, 258.055 905.610, 255.750 907.025 M 255.543 908.931 C 254.379 910.814, 262.010 912.653, 264.712 911.141 C 266.315 910.244, 266.209 910.030, 263.685 909.070 C 260.219 907.752, 256.312 907.686, 255.543 908.931 M 393 909 C 390.613 909.765, 390.644 909.805, 393.691 909.900 C 395.446 909.955, 397.160 909.550, 397.500 909 C 398.211 907.850, 396.591 907.850, 393 909 M 387 913 L 383.500 913.737 387.191 913.868 C 389.221 913.941, 391.160 913.550, 391.500 913 C 392.170 911.915, 392.154 911.915, 387 913 M 449.117 914.883 C 446.581 917.419, 446.277 923.155, 448.577 925.064 C 450.547 926.699, 495.277 930.984, 497.484 929.749 C 498.318 929.282, 499 928.248, 499 927.450 C 499 926.402, 500.225 926, 503.418 926 C 505.848 926, 508.560 925.722, 509.444 925.383 C 512.367 924.261, 509.089 922, 504.538 922 C 501.023 922, 500.134 921.589, 499.195 919.528 C 497.810 916.490, 497.393 916.405, 477 915.025 C 467.925 914.411, 458.415 913.652, 455.867 913.338 C 452.015 912.863, 450.877 913.123, 449.117 914.883 M 269 915 C 269 915.550, 270.602 916, 272.559 916 C 274.677 916, 275.868 915.595, 275.500 915 C 275.160 914.450, 273.559 914, 271.941 914 C 270.323 914, 269 914.450, 269 915 M 631.069 914.346 C 631.829 915.181, 663.889 920.171, 665.913 919.769 C 666.786 919.596, 661.200 918.457, 653.500 917.237 C 632.934 913.979, 630.442 913.658, 631.069 914.346 M 450.608 917.579 C 448.741 922.445, 449.749 923.799, 455.501 924.157 C 458.527 924.346, 461.002 924.429, 461.001 924.343 C 461.001 924.257, 458.799 922.343, 456.108 920.090 C 452.137 916.765, 451.102 916.293, 450.608 917.579 M 459.709 920.325 C 465.221 924.418, 466.682 925.008, 472.709 925.581 L 479.500 926.226 474.500 921.658 C 471.456 918.877, 468.522 917.069, 467 917.036 C 465.625 917.007, 462.025 916.697, 459 916.349 L 453.500 915.714 459.709 920.325 M 302.500 918 C 305.401 919.247, 314.929 919.247, 313 918 C 312.175 917.467, 309.025 917.055, 306 917.086 C 302.013 917.125, 301.050 917.377, 302.500 918 M 348 918 C 344.745 918.685, 344.867 918.746, 349.750 918.868 C 352.671 918.942, 355 918.556, 355 918 C 355 916.894, 353.254 916.894, 348 918 M 475.502 920.071 C 477.691 921.957, 480.358 924.288, 481.429 925.250 C 482.501 926.212, 484.530 927.005, 485.939 927.011 C 487.347 927.017, 490.273 927.315, 492.439 927.673 L 496.378 928.323 490.678 923.161 C 485.713 918.665, 484.433 917.998, 480.739 917.986 C 478.408 917.979, 475.380 917.673, 474.011 917.307 C 471.892 916.741, 472.114 917.151, 475.502 920.071 M 491.715 921.572 C 496.404 925.715, 497 925.764, 497 922 C 497 920.301, 496.458 918.972, 495.750 918.936 C 495.063 918.901, 493.022 918.727, 491.215 918.550 L 487.929 918.227 491.715 921.572 M 159.580 923.115 C 154.234 927.321, 158.553 932.471, 166.749 931.664 C 174.136 930.937, 176.283 926.941, 171.365 923.073 C 167.979 920.409, 162.998 920.427, 159.580 923.115 M 162.389 923.980 C 160.196 924.866, 158.697 927.364, 159.736 928.402 C 160.718 929.385, 169.382 929.048, 171 927.964 C 172.280 927.107, 172.154 926.669, 170.139 924.980 C 167.613 922.861, 165.752 922.621, 162.389 923.980 M 224.750 928.572 C 219.150 931.610, 222.532 936.284, 230.254 936.177 C 233.942 936.126, 238 933.856, 238 931.845 C 238 927.757, 229.928 925.763, 224.750 928.572 M 226.441 930.481 C 224.761 931.763, 224.702 932.097, 226 932.966 C 228.887 934.897, 235 933.902, 235 931.500 C 235 928.838, 229.459 928.179, 226.441 930.481 M 429.500 933.399 C 423.196 935.393, 419.197 937.803, 418.488 940.037 C 416.983 944.779, 423.417 947.351, 437 947.439 C 447.330 947.505, 452.528 946.062, 453.550 942.843 C 454.242 940.661, 451.628 936, 449.712 936 C 449.029 936, 446.791 935.100, 444.739 934 C 440.525 931.741, 435.382 931.539, 429.500 933.399 M 428.601 936.473 C 421.096 939.558, 419.911 940.700, 422.346 942.498 C 426.362 945.463, 447.782 945.647, 450.686 942.742 C 452.440 940.988, 451.270 939.698, 445.168 936.657 C 438.631 933.400, 436.143 933.372, 428.601 936.473" stroke="none" fill="#1a1a1a" fill-rule="evenodd"/>
</svg>