<svg xmlns="http://www.w3.org/2000/svg" width="1024" height="1024" viewBox="0 0 1024 1024" version="1.1">
	<path d="M 472.500 142.882 C 464.565 146.691, 459.094 151.594, 455.472 158.141 C 449.498 168.942, 452.068 184.498, 461.410 194.082 L 464.902 197.664 460.041 201.370 C 452.369 207.221, 442.052 218.650, 432.527 231.849 C 418.510 251.272, 415.100 253.089, 403.928 247.082 C 361.417 224.229, 311.596 264.325, 308.304 324.042 C 306.933 348.908, 314.355 364.093, 332.309 373.156 L 338.198 376.129 337.510 379.814 C 336.633 384.508, 336.854 384.384, 332.558 382.589 C 330.546 381.748, 325.566 380.372, 321.492 379.530 C 275.438 370.017, 235.430 410.537, 249.227 452.719 L 251.261 458.938 248.131 462.504 C 244.443 466.704, 244.094 470.578, 247.063 474.353 C 248.713 476.450, 249.003 477.830, 248.511 481.238 C 248.133 483.851, 248.457 487.335, 249.347 490.242 C 250.715 494.708, 250.680 495.137, 248.743 497.600 C 247.575 499.084, 246.487 502.281, 246.227 504.991 C 245.588 511.641, 248.295 514.452, 254.646 513.736 C 259.949 513.139, 260.359 513.687, 262.559 524.323 L 264.090 531.725 257.723 538.113 C 247.638 548.230, 243.035 560.575, 243.035 577.500 C 243.035 604.463, 258.574 628.077, 283.603 639.148 C 286.420 640.395, 288.160 641.874, 288.477 643.293 C 295.132 673.041, 296.347 676.547, 300.355 677.553 C 306.332 679.053, 308.777 675.935, 313.495 660.796 L 316.207 652.091 319.354 652.796 C 325.133 654.089, 354.194 653.608, 358.317 652.150 C 360.416 651.408, 362.293 650.960, 362.488 651.155 C 362.683 651.349, 362.013 654.990, 360.999 659.245 C 357.880 672.336, 355.994 684.975, 355.330 697.231 L 354.695 708.961 352.097 708.231 C 338.470 704.397, 323.113 712.036, 318.923 724.735 C 318.057 727.357, 317.422 727.968, 316.150 727.398 C 306.685 723.161, 296.459 728.319, 293.860 738.641 C 292.975 742.156, 292.388 742.970, 291.117 742.448 C 283.866 739.468, 278.610 739.628, 271.939 743.031 L 268.285 744.895 267.151 741.109 C 262.784 726.533, 245.858 719.674, 231.779 726.776 L 226.277 729.551 226.195 723.798 C 225.999 709.934, 215.940 699.068, 201.760 697.402 L 196.388 696.770 198.301 691.135 C 205.096 671.119, 188.742 648.571, 169.674 651.666 C 164.024 652.582, 165.317 654, 171.804 654 C 191.093 654, 203.349 676.131, 194.155 694.359 L 191.309 700 197.289 700 C 205.243 700, 210.176 701.603, 215.042 705.768 C 222.253 711.941, 225.599 722.549, 223.142 731.449 C 221.719 736.600, 222.164 736.826, 226.704 733.258 C 238.211 724.214, 251.317 724.172, 259.688 733.153 C 262.581 736.256, 265.951 743.809, 265.978 747.250 C 266.004 750.554, 267.040 750.730, 269.595 747.862 C 274.295 742.587, 282.928 741.613, 290.581 745.496 C 293.286 746.869, 295.613 747.994, 295.750 747.996 C 295.887 747.998, 296.002 745.862, 296.004 743.250 C 296.013 731.796, 306.791 724.626, 315.294 730.416 C 320.040 733.648, 319.699 733.742, 320.504 728.975 C 322.298 718.356, 332.446 710.066, 343.703 710.023 C 353.865 709.985, 354.618 710.680, 355.441 720.852 C 356.997 740.078, 362.253 758.016, 370.482 772.178 C 376.360 782.295, 376.563 785.961, 371.250 786.093 C 369.188 786.143, 321.863 786.256, 266.084 786.343 C 185.954 786.467, 164.581 786.762, 164.251 787.750 C 163.919 788.745, 185.371 789, 269.300 789 L 374.767 789 375.440 795.750 C 377.183 813.250, 383.202 842.745, 390.970 871.854 C 394.671 885.724, 394.726 889.072, 391.390 897.727 C 389.954 901.452, 388.244 906.497, 387.590 908.939 L 386.401 913.377 372.950 916.153 C 340.044 922.943, 326.083 930.227, 328.386 939.404 C 334.918 965.426, 529.279 980.206, 658 964.468 C 751.486 953.038, 769.844 930.972, 698 916.391 C 690.575 914.884, 684.434 913.617, 684.353 913.575 C 684.272 913.534, 685.070 910.125, 686.126 906 C 691.984 883.117, 696.695 840.182, 697.262 804.500 L 697.500 789.500 784.831 789.244 C 853.957 789.042, 872.076 788.730, 871.746 787.744 C 871.418 786.765, 852.854 786.500, 784.429 786.500 C 685.979 786.500, 694.900 787.445, 699.893 777.546 C 702.636 772.108, 703.134 771.650, 706.677 771.308 C 715.151 770.490, 723.694 765.530, 728.959 758.370 C 734.439 750.919, 733.843 746.588, 727.663 748.938 L 724.981 749.958 726.990 746.019 C 730.148 739.829, 729.390 728, 725.836 728 C 725.235 728, 723.027 729.550, 720.931 731.443 C 718.835 733.337, 715.743 735.599, 714.060 736.469 L 711 738.051 711 729.526 L 711 721 717.340 721 C 741.178 721, 769.654 703.451, 777.026 684.218 C 779.004 679.056, 779.408 678.942, 786.555 681.542 C 791.369 683.292, 796.684 688.547, 800.828 695.654 L 803.834 700.807 797.531 703.910 C 788.126 708.540, 783 716.278, 783 725.842 C 783 731.284, 785.180 738.436, 787.681 741.200 C 790.592 744.416, 790.749 743.111, 788.097 737.752 C 781.187 723.790, 788.056 708.563, 803.181 704.308 L 808.862 702.711 806.054 699.105 C 794.070 683.714, 804.990 662.047, 824.750 662.010 C 827.638 662.004, 830 661.703, 830 661.340 C 830 660.978, 827.599 658.163, 824.664 655.087 C 805.921 635.437, 814.949 602.135, 841.495 593.002 C 847.713 590.862, 857.341 590.377, 862.757 591.930 C 865.280 592.654, 866 592.559, 866 591.501 C 866 590.654, 863.835 589.685, 860.250 588.929 C 843.546 585.406, 824.070 595.841, 815.804 612.743 C 812.694 619.104, 812.502 620.115, 812.533 630 C 812.570 641.750, 813.852 645.744, 820.292 654.167 L 823.860 658.834 818.992 660.002 C 808.320 662.562, 800.094 671.222, 798.549 681.522 L 797.907 685.802 792.777 682.350 C 789.956 680.451, 785.740 678.388, 783.410 677.765 C 779.379 676.687, 779.138 676.409, 778.490 672.087 C 773.757 640.522, 727.353 557.999, 687.991 511.148 L 681.814 503.795 682.907 499.455 C 684.249 494.127, 684.328 483.629, 683.059 479.207 C 682.223 476.292, 682.557 475.227, 686.056 469.646 C 707.040 436.180, 707.316 393.150, 686.741 363.139 L 683.751 358.777 684.967 339.705 C 686.660 313.159, 684.133 288.895, 677.993 272.740 C 675.262 265.554, 675.262 265.552, 681.797 264.203 C 689.990 262.511, 702.570 256.129, 708.805 250.503 C 720.843 239.640, 722.899 225.693, 714.825 209.666 C 700.770 181.765, 673.798 183.951, 653.373 214.647 L 647.763 223.079 642.132 217.715 C 634.479 210.426, 625.350 203.841, 615.322 198.374 C 606.611 193.626, 604.316 191.103, 596.571 177.757 C 592.789 171.240, 585.202 163, 582.985 163 C 580.790 163, 578.593 168.774, 579.204 172.936 L 579.613 175.722 573.398 171.467 C 562.545 164.037, 548.018 159.863, 545.129 163.345 C 543.183 165.689, 544.543 168.382, 550.357 173.695 L 555.613 178.500 537.057 178.569 C 526.850 178.607, 516.608 179.117, 514.297 179.702 L 510.093 180.766 509.082 175.633 C 508.526 172.810, 507.570 167.575, 506.958 164 C 503.328 142.800, 489.862 134.547, 472.500 142.882 M 477.879 145.666 C 459.994 151.637, 452.433 168.603, 460.485 184.697 C 465.144 194.011, 466.999 195.657, 470.974 194.011 C 474.619 192.501, 474.603 192.658, 471.520 188.615 C 461.736 175.788, 465.296 158, 477.646 158 C 484.611 158, 488.600 163.432, 493.069 179 C 493.779 181.475, 494.470 183.653, 494.603 183.839 C 494.805 184.122, 506 181.899, 506 181.576 C 506 178.456, 499.313 153.624, 497.824 151.214 C 493.921 144.901, 486.421 142.814, 477.879 145.666 M 472.229 161.669 C 465.731 164.284, 467.296 179.666, 474.992 188.829 L 476.948 191.158 483.724 188.465 C 487.451 186.984, 490.659 185.627, 490.853 185.450 C 491.325 185.019, 487.111 172.276, 485.247 168.500 C 482 161.923, 477.486 159.554, 472.229 161.669 M 548 166.140 C 548 166.362, 551.402 169.625, 555.561 173.391 L 563.122 180.239 574.960 183.070 C 581.472 184.628, 589.622 187.049, 593.072 188.451 C 596.522 189.853, 599.740 191, 600.223 191 C 601.306 191, 587.815 171.047, 585.022 168.520 C 583.030 166.717, 583 166.741, 583.012 170.095 C 583.018 171.968, 583.653 175.863, 584.421 178.750 C 585.190 181.637, 585.620 184, 585.377 184 C 585.134 184, 581.410 181.529, 577.100 178.509 C 567.853 172.030, 557.578 167.021, 551.997 166.273 C 549.799 165.978, 548 165.918, 548 166.140 M 522 183.586 C 520.625 183.826, 516.800 184.482, 513.500 185.042 C 510.200 185.603, 502.912 187.465, 497.305 189.181 L 487.110 192.301 490.055 195.051 C 493.349 198.128, 493.733 200.124, 491.468 202.389 C 489.954 203.903, 488.290 204.308, 478.500 205.543 C 475.750 205.890, 469.900 207.015, 465.500 208.043 C 456.237 210.207, 452.393 213.677, 438.408 232.500 C 427.526 247.147, 424.240 250.827, 420.162 252.937 L 416.500 254.831 419 255.819 C 420.375 256.363, 423.628 257.731, 426.228 258.859 C 433.615 262.063, 444.961 264, 456.352 264 C 493.979 264, 519.990 272.217, 533.275 288.302 C 535.599 291.115, 541.192 297.181, 545.704 301.782 C 553.937 310.176, 560.494 318.840, 559.423 319.910 C 559.108 320.225, 558.356 319.587, 557.753 318.492 C 556.008 315.322, 544.712 304.286, 545.479 306.500 C 546.820 310.368, 549.074 322.260, 548.563 322.770 C 548.279 323.054, 547.779 322.434, 547.452 321.393 C 540.933 300.667, 529.548 286.698, 512.500 278.508 C 493.324 269.296, 474.976 269.028, 457.649 277.706 C 454.981 279.043, 453.106 279.637, 453.483 279.028 C 454.513 277.361, 461.425 273.201, 466.767 271.031 L 471.500 269.109 461.474 269.055 C 439.295 268.934, 430.240 266.626, 411.947 256.429 C 396.740 247.953, 389.973 245.744, 379 245.673 C 350.949 245.492, 326.714 268.834, 316.367 306 C 313.752 315.392, 313.732 341.297, 316.334 348.762 C 323.090 368.140, 345.948 376.515, 390 375.751 L 404.500 375.500 427.500 386.661 C 469.407 406.997, 487.607 411.890, 517 410.722 C 538.536 409.866, 559.103 403.100, 577.130 390.941 C 583.198 386.848, 598 373.408, 598 371.992 C 598 370.867, 593.524 369.201, 588.460 368.442 C 584.100 367.788, 583.831 367.597, 585.521 366.361 C 588.534 364.157, 596.005 364.700, 601.694 367.535 C 607.752 370.553, 611.770 376.042, 612.656 382.509 C 613.413 388.029, 611.987 388.365, 609.710 383.204 C 608.789 381.116, 606.701 378.130, 605.071 376.568 L 602.106 373.728 601.631 376.114 C 601.369 377.426, 600.400 382.325, 599.477 387 C 595.897 405.130, 584.753 435.437, 574.844 453.986 C 547.420 505.323, 512.294 530.262, 467.500 530.198 L 453.500 530.178 446 534.003 C 431.517 541.388, 414.019 543.459, 401.682 539.250 C 394.064 536.650, 395.456 537.819, 406.500 543.295 C 445.628 562.697, 493.293 564.927, 535.500 549.330 C 547.748 544.804, 571.880 532.384, 583.374 524.689 C 590.962 519.610, 590.289 521.449, 582.184 527.941 C 578.710 530.723, 576.281 533, 576.786 533 C 577.291 533, 582.309 531.839, 587.938 530.419 C 593.567 529, 598.387 528.053, 598.649 528.316 C 599.274 528.940, 582.039 534.631, 575.084 536.096 C 572.106 536.723, 567.381 538.699, 564.584 540.486 C 549.628 550.045, 529.837 558.029, 510.749 562.204 C 495.760 565.482, 459.340 565.476, 444.500 562.192 C 423.994 557.655, 403.858 549.605, 390.609 540.647 L 383.718 535.988 375.735 541.109 C 367.991 546.077, 353.979 552, 349.971 552 C 347.444 552, 347.485 552.352, 350.525 556.803 C 354.494 562.613, 358.015 575.016, 357.906 582.802 L 357.812 589.500 356.433 582.500 C 355.088 575.672, 347.402 558.265, 346.243 559.423 C 345.924 559.743, 342.404 570.241, 338.423 582.752 C 334.442 595.264, 328.244 614.725, 324.649 626 C 320.318 639.588, 318.449 646.837, 319.107 647.500 C 320.655 649.059, 353.500 648.563, 359.449 646.891 L 364.399 645.500 370.543 626.500 C 373.922 616.050, 378.112 603.858, 379.855 599.407 C 382.383 592.953, 383.093 589.509, 383.360 582.407 C 383.545 577.508, 384.366 571.925, 385.185 570 C 386.632 566.599, 386.662 566.742, 386.252 575 L 385.830 583.500 391.350 572.427 C 399.850 555.373, 400.507 557.109, 392.787 576.226 C 386.009 593.011, 372.845 634.733, 367.617 656 C 357.501 697.153, 359.007 735.052, 371.845 762.393 C 375.987 771.216, 384.366 785.149, 389.197 791.249 C 393.665 796.889, 392.062 796.798, 385.115 791.016 C 377.825 784.950, 378.035 783.872, 382.011 807 C 385.913 829.701, 389.166 844.552, 394.103 862.200 C 398.967 879.591, 399.941 888.789, 397.635 895.557 C 395.637 901.423, 395.619 901, 397.865 901 C 400.904 901, 404.869 904.830, 406.106 908.960 L 407.261 912.814 410.407 908.688 C 418.182 898.495, 430.269 901.263, 434.574 914.222 L 436.277 919.350 438.100 915.796 C 446.043 900.315, 463.585 904.495, 468.334 923 C 469.971 929.381, 469.609 929.322, 482.500 925.309 C 502.268 919.156, 503.349 917.078, 506.526 879.119 C 507.372 869.009, 508.942 856.213, 510.014 850.683 C 511.086 845.154, 511.859 840.570, 511.731 840.498 C 511.604 840.425, 505.742 839.596, 498.705 838.654 C 472.917 835.203, 448.674 827.128, 432.551 816.619 C 427.722 813.471, 423.960 810.707, 424.190 810.477 C 424.421 810.246, 428.860 811.900, 434.055 814.151 C 486.935 837.069, 547.164 841.818, 596.953 826.994 C 600.502 825.937, 603.553 825.220, 603.733 825.400 C 604.889 826.556, 580.409 834.955, 568.300 837.557 L 560.255 839.286 563.012 845.393 C 571.191 863.514, 574.986 882.311, 575.030 904.926 C 575.054 916.837, 575.320 920.030, 576.164 918.500 C 580.004 911.540, 586.645 908.068, 592.450 909.984 C 596.637 911.365, 601.564 916.738, 602.484 920.926 C 603.366 924.945, 604.306 924.809, 605.888 920.434 C 611.708 904.339, 629.142 904.115, 636.784 920.036 L 639.669 926.048 640.810 922.238 C 642.227 917.510, 647.145 912.347, 651.049 911.489 C 657.193 910.140, 665.165 915.375, 668.280 922.806 L 669.666 926.112 673.273 922.119 C 682.308 912.119, 689.854 863.843, 692.439 799.500 L 692.962 786.500 689.731 790.250 C 687.954 792.313, 686.221 794, 685.881 794 C 685.540 794, 688.363 787.813, 692.154 780.250 C 700.461 763.680, 703.413 752.920, 704.956 733.597 L 706.049 719.912 702.872 717.239 C 701.125 715.769, 692.875 704.201, 684.539 691.533 C 676.204 678.865, 664.901 662.200, 659.422 654.500 C 653.944 646.800, 648.687 639.285, 647.740 637.800 C 646.745 636.238, 644.520 634.685, 642.463 634.117 C 637.250 632.678, 630.715 628.578, 627.137 624.503 C 623.015 619.809, 623.096 617.763, 627.250 621.645 C 631.395 625.519, 636.004 628.671, 639.427 629.972 C 642.552 631.160, 642.594 631.266, 636.449 622.500 C 631.832 615.912, 628 608.794, 628 606.803 C 628 606.101, 629.646 607.996, 631.657 611.013 C 633.669 614.031, 640.123 622.350, 646 629.500 C 665.387 653.088, 679.722 673.304, 699.477 704.920 L 702.239 709.339 704.648 704.270 C 709.030 695.052, 717.370 693.621, 724.900 700.797 L 728.787 704.500 729.365 699.592 C 730.970 685.971, 742.768 681.044, 753.055 689.700 L 756.060 692.228 755.400 688.099 C 753.597 676.822, 762.381 669.163, 772.212 673.440 C 777.358 675.679, 761.823 637.122, 745.240 606.500 C 729.052 576.606, 716.061 556.301, 693.258 525.248 L 679.855 506.995 675.443 512.864 C 671.190 518.522, 664.321 524.490, 657 528.889 C 651.931 531.935, 651.044 531.477, 655.600 528.166 C 670.428 517.392, 680.852 497.739, 679.208 483.659 L 678.788 480.054 673.908 485.824 C 665.985 495.193, 653.162 505.330, 642.153 510.929 C 635.601 514.261, 636.129 512.797, 643.335 507.655 C 652.141 501.371, 666.252 487.147, 674.325 476.416 C 705.772 434.618, 704.085 384.773, 670 348.648 C 660.553 338.635, 663.221 338.828, 674.264 348.956 L 680.212 354.412 679.729 326.456 C 679.221 297.115, 678.516 291.445, 673.132 273.422 C 671.082 266.561, 670.929 266.357, 668.127 266.768 C 663.405 267.461, 663.479 265.215, 668.220 263.964 C 701.982 255.053, 717.818 240.753, 714.068 222.563 C 709.955 202.610, 694.398 190.629, 680.268 196.532 C 671.170 200.334, 658.529 213.390, 650.268 227.518 C 646.071 234.695, 644.456 235.716, 645.419 230.583 C 646.035 227.295, 645.764 226.914, 638.268 220.543 C 617.732 203.088, 594.741 192.015, 566.500 185.977 C 556.904 183.926, 528.715 182.411, 522 183.586 M 302 203.941 C 302 205.109, 313.768 218.078, 323.604 227.750 C 338.466 242.365, 332.433 233.355, 313.224 212.250 C 305.665 203.944, 302 201.231, 302 203.941 M 680.500 214.351 C 671.152 218.709, 659.145 234.665, 657.435 245 C 656.729 249.268, 657.715 248.196, 662.902 239.055 C 669.979 226.580, 682.234 216.031, 689.673 216.009 C 693.346 215.999, 698.630 219.963, 700.205 223.911 C 700.805 225.414, 701.434 225.972, 701.705 225.243 C 702.504 223.088, 698.186 215.541, 695.117 213.728 C 691.132 211.374, 686.457 211.573, 680.500 214.351 M 602.250 221.491 C 596.046 224.187, 597.793 228.297, 608 235.019 C 611.575 237.373, 618.428 243.282, 623.229 248.150 C 633.717 258.784, 634.494 259.005, 633.669 251.109 C 631.584 231.160, 615.307 215.816, 602.250 221.491 M 451.500 228.815 C 445.818 231.480, 441.234 235.621, 438.897 240.201 C 435.681 246.505, 436.735 247.472, 442.500 243.509 C 459.643 231.725, 473.522 237.127, 480.370 258.250 C 481.152 260.663, 482.725 260.443, 483.562 257.803 C 486.371 248.955, 481.903 235.987, 474.174 230.555 C 468.597 226.635, 457.898 225.814, 451.500 228.815 M 693.517 237.983 C 689.213 242.390, 679.804 247.618, 670 251.049 C 658.511 255.070, 660.275 256.704, 672.145 253.036 C 682.095 249.962, 694.281 241.988, 697.167 236.664 C 698.932 233.409, 697.467 233.938, 693.517 237.983 M 358.248 260.250 C 352.102 266.835, 356.987 280.747, 367.547 286.728 C 376.122 291.585, 380.375 288.467, 378.174 278.935 C 374.461 262.850, 364.522 253.529, 358.248 260.250 M 569.797 261.732 C 560.869 265.088, 553.406 271.937, 550.708 279.250 C 549.801 281.709, 551.245 281.443, 557.273 278.041 C 577.961 266.366, 597.614 273.165, 606.804 295.178 C 610.244 303.418, 611.460 304.452, 612.367 299.914 C 615.341 285.045, 608.767 270.545, 595.868 263.525 C 588.976 259.773, 577.169 258.962, 569.797 261.732 M 360.200 264.200 C 357.259 267.141, 359.394 274.725, 364.701 280.187 C 371.090 286.763, 377.167 287.512, 375.350 281.500 C 370.847 266.608, 364.752 259.648, 360.200 264.200 M 266 274.854 C 266 276.755, 269.488 277.899, 284.649 280.972 C 308.494 285.806, 309.640 284.685, 287 278.673 C 270.159 274.200, 266 273.444, 266 274.854 M 417.287 288.250 C 408.140 298.234, 399.879 324.494, 400.107 342.860 L 400.214 351.500 401.571 340.310 C 403.785 322.037, 409.633 302.981, 416.330 292.215 C 419.819 286.607, 420.151 286, 419.733 286 C 419.522 286, 418.421 287.012, 417.287 288.250 M 489.902 294.892 C 479.104 299.117, 469.019 308.281, 470.609 312.424 C 472.171 316.493, 483.132 318.816, 492.551 317.075 C 508.404 314.145, 516.691 303.537, 509.077 295.923 C 505.525 292.371, 497.456 291.937, 489.902 294.892 M 494.754 298.040 C 485.207 300.403, 471.391 309.698, 473.782 312.150 C 475.812 314.231, 488.826 314.483, 495.411 312.569 C 511.716 307.829, 511.091 293.996, 494.754 298.040 M 331.364 310.493 C 331.018 311.396, 331.214 312.614, 331.800 313.200 C 333.324 314.724, 336.210 313.331, 335.812 311.265 C 335.369 308.963, 332.165 308.407, 331.364 310.493 M 358.915 317.602 C 358.027 318.672, 357.988 319.388, 358.775 320.175 C 360.156 321.556, 363 320.522, 363 318.638 C 363 316.555, 360.344 315.881, 358.915 317.602 M 613.500 316.713 C 608.669 317.875, 609.652 319.241, 614.900 318.658 C 617.870 318.329, 622.317 318.511, 624.783 319.063 C 630.426 320.328, 631.442 319.500, 626.686 317.513 C 623.188 316.052, 617.647 315.716, 613.500 316.713 M 610.157 322.942 C 603.354 324.658, 605.371 325.500, 616.302 325.508 C 626.124 325.516, 628.268 325.839, 633.750 328.142 C 637.188 329.586, 640 330.346, 640 329.831 C 640 325.939, 618.217 320.910, 610.157 322.942 M 344.071 336.956 C 342.415 337.980, 343.379 341, 345.362 341 C 346.145 341, 347.032 340.358, 347.334 339.573 C 348.059 337.682, 345.812 335.880, 344.071 336.956 M 322.666 338.427 C 321.904 340.414, 324.731 342.669, 326.175 341.225 C 327.556 339.844, 326.522 337, 324.638 337 C 323.855 337, 322.968 337.642, 322.666 338.427 M 517.364 344.493 C 517.018 345.396, 517.214 346.614, 517.800 347.200 C 519.324 348.724, 522.210 347.331, 521.812 345.265 C 521.369 342.963, 518.165 342.407, 517.364 344.493 M 486.720 349.288 C 485.927 351.354, 487.475 353.248, 489.620 352.835 C 492.277 352.323, 492.081 348.583, 489.377 348.197 C 488.210 348.031, 487.014 348.521, 486.720 349.288 M 459.667 358.667 C 458.202 360.132, 459.045 363, 460.941 363 C 463.297 363, 464.215 361.725, 463.396 359.590 C 462.770 357.957, 460.851 357.482, 459.667 358.667 M 507.701 372.632 C 506.127 374.207, 507.061 376.130, 509.250 375.820 C 510.488 375.644, 511.500 374.831, 511.500 374.014 C 511.500 372.425, 508.866 371.467, 507.701 372.632 M 478.336 376.567 C 477.502 378.739, 479.618 380.782, 481.133 379.267 C 482.413 377.987, 481.620 375, 480 375 C 479.415 375, 478.667 375.705, 478.336 376.567 M 341 381.360 C 341 386.192, 341.151 386.359, 354.116 395.864 C 356.573 397.666, 368.079 398.563, 370.704 397.158 C 372.083 396.420, 373.265 393.977, 374.370 389.579 C 376.629 380.583, 376.904 381.004, 368.750 380.965 C 362.206 380.934, 351.022 379.382, 343.750 377.496 C 341.047 376.795, 341 376.861, 341 381.360 M 379.546 385.750 C 377.683 398.735, 375.632 401.277, 366.435 402 L 360.074 402.500 363.158 407 C 367.916 413.943, 371.071 421.694, 372.913 430.964 L 374.594 439.429 379.692 429.464 C 385.976 417.184, 389.615 405.830, 391.049 394.036 C 392.536 381.803, 392.197 381, 385.546 381 L 380.227 381 379.546 385.750 M 395.406 390.750 C 395.246 407.514, 390.206 422.970, 379.138 440.643 C 375.398 446.615, 372.006 452.850, 371.600 454.500 C 371.194 456.150, 369.902 459.434, 368.729 461.798 C 366.696 465.898, 366.674 466.245, 368.264 469.298 C 371.026 474.604, 371.309 477.504, 369.418 481.142 C 368.284 483.324, 367.754 486.307, 367.904 489.656 C 368.032 492.493, 367.604 496.591, 366.952 498.765 C 365.968 502.052, 366.027 503.119, 367.303 505.108 C 368.147 506.424, 369.342 509.415, 369.959 511.756 C 371.043 515.871, 382.534 529.799, 383.800 528.533 C 384.087 528.247, 383.595 527.210, 382.707 526.229 C 377.646 520.637, 375.504 512.955, 375.392 500 C 375.333 493.125, 374.701 485.025, 373.990 482 C 372.195 474.376, 373.336 467.510, 377.008 463.838 C 378.568 462.278, 380.385 459.314, 381.046 457.251 C 381.707 455.188, 385.310 446.975, 389.053 439 C 398.811 418.210, 401.977 406.037, 401.992 389.250 L 402 381 398.750 381 L 395.500 381.001 395.406 390.750 M 592.993 384.508 C 581.160 396.716, 555.102 410.528, 537.500 413.922 C 534.200 414.558, 530.553 415.278, 529.396 415.522 C 527.614 415.897, 527.200 416.921, 526.690 422.232 C 526.358 425.680, 525.797 429.905, 525.444 431.622 L 524.801 434.745 530.409 435.445 C 541.845 436.874, 555.332 441.801, 565.288 448.186 C 567.921 449.875, 570.274 451.060, 570.515 450.818 C 571.394 449.939, 579.311 432.258, 582.970 423 C 587.862 410.625, 597.505 381, 596.642 381 C 596.505 381, 594.862 382.578, 592.993 384.508 M 403.431 396.252 C 403.348 413.493, 401.386 421.023, 391.507 442 C 383.328 459.369, 383.029 460.540, 386.556 461.425 C 388.966 462.029, 390.050 461.290, 396.382 454.724 C 404.189 446.630, 410.230 442.158, 418.425 438.406 C 422.939 436.339, 423.882 435.441, 424.393 432.726 C 425.763 425.445, 430.990 416.784, 438.624 409.151 C 443.402 404.372, 445.705 401.410, 444.853 401.141 C 444.109 400.905, 435.238 396.502, 425.141 391.356 C 415.043 386.210, 406.043 382.001, 405.141 382.002 C 403.700 382.003, 403.492 383.739, 403.431 396.252 M 292.345 384.904 C 272.750 390.511, 256.242 406.961, 252.079 425.028 C 249.984 434.122, 250.758 442.924, 254.863 456.654 C 255.685 459.407, 255.441 460.235, 252.943 463.154 C 246.772 470.369, 249.612 474.592, 259.951 473.574 C 270.438 472.540, 273.546 474.773, 275.519 484.758 C 276.720 490.839, 282.162 491.390, 286.120 485.831 C 290.630 479.498, 296.941 479.198, 302.547 485.049 C 306.016 488.669, 307.637 488.732, 312.056 485.414 C 319.405 479.895, 322.905 480.236, 327.315 486.899 C 331.087 492.600, 334.300 492.578, 336.155 486.839 C 336.895 484.551, 338.738 481.762, 340.251 480.643 L 343.003 478.607 350.042 480.874 C 357.734 483.352, 361.687 483.108, 364.515 479.983 C 366.750 477.514, 365.778 471.659, 362.786 469.563 L 360.653 468.068 364.516 459.836 C 378.475 430.088, 357.816 392.770, 322.823 384.520 C 314.318 382.515, 300.065 382.695, 292.345 384.904 M 281.500 396.153 C 267.649 403.301, 263.804 418, 275.786 418 C 278.103 418, 290.235 410.467, 294.750 406.225 C 303.465 398.037, 293.106 390.163, 281.500 396.153 M 282.195 398.590 C 273.066 403.139, 267.898 412.269, 272.928 414.961 C 275.447 416.310, 276.933 415.705, 286.625 409.390 C 295.581 403.554, 296.792 401.858, 294.500 398.359 C 292.457 395.242, 288.776 395.311, 282.195 398.590 M 328.035 397.771 C 326.286 399.187, 325.600 400.738, 325.600 403.278 C 325.600 407.556, 326.894 409.229, 333.457 413.436 C 340.242 417.786, 340.920 418.786, 342.073 426.150 C 343.252 433.678, 345.616 437.373, 349.550 437.836 C 353.193 438.265, 355 435.890, 355 430.674 C 355 427.770, 355.648 426.129, 357.456 424.454 C 360.743 421.407, 359.672 417.672, 353.404 410.336 C 343.258 398.460, 333.284 393.520, 328.035 397.771 M 330.250 399.040 C 324.887 401.174, 327.978 407.702, 336.829 412.934 C 341.569 415.737, 343.578 419.340, 344.570 426.820 C 346 437.596, 352.203 439.356, 352.802 429.154 C 353.030 425.281, 353.584 423.758, 355.052 422.972 C 358.533 421.109, 357.256 418.050, 349.776 410.336 C 339.893 400.144, 334.833 397.217, 330.250 399.040 M 442.565 411.250 C 437.940 415.901, 434.216 420.798, 432.178 424.910 C 427.716 433.910, 427.802 434.076, 435.750 431.789 C 448.686 428.066, 466.355 428.371, 480.704 432.565 C 482.729 433.157, 482.865 432.937, 482.381 429.855 C 482.091 428.010, 481.774 423.619, 481.677 420.097 L 481.500 413.694 472.874 411.405 C 468.129 410.147, 461.414 407.965, 457.951 406.558 C 449.786 403.240, 450.853 402.915, 442.565 411.250 M 485.643 414.855 C 485.454 415.210, 485.615 418.767, 486.003 422.760 C 487.101 434.074, 490.102 435.984, 506.795 435.994 C 517.906 436.001, 520.065 434.587, 521.882 426.114 C 524.086 415.837, 525.002 416.515, 508.749 416.392 C 500.912 416.332, 492.585 415.817, 490.244 415.247 C 487.903 414.677, 485.833 414.500, 485.643 414.855 M 261.039 425.189 C 257.193 429.317, 259.591 438, 264.577 438 C 266.981 438, 272 432.456, 272 429.799 C 272 423.601, 265.188 420.735, 261.039 425.189 M 262.413 427.493 C 260.124 430.986, 261.236 435, 264.493 435 C 266.212 435, 267.416 434.097, 268.505 431.991 C 271.481 426.236, 265.925 422.133, 262.413 427.493 M 448.585 434.107 C 438.696 435.549, 428.012 438.893, 420.057 443.034 C 378.257 464.797, 366.053 517.340, 399.253 532.601 C 404.921 535.206, 406.520 535.474, 416.500 535.486 C 433.068 535.507, 444.528 530.949, 463 516.990 C 467.125 513.873, 473.049 509.637, 476.164 507.577 C 479.492 505.376, 482.332 502.614, 483.051 500.878 C 484.584 497.177, 486.797 495.987, 494.990 494.457 C 498.571 493.789, 505.673 491.386, 510.772 489.118 C 521.795 484.216, 531.102 481.502, 544 479.427 C 554.661 477.712, 553.761 478.410, 561.766 465.664 C 569.172 453.873, 569.268 454.879, 560.304 450.242 C 545.150 442.403, 525.846 437.878, 516.807 440.046 C 513.281 440.892, 507.938 441.071, 499.839 440.613 C 486.866 439.880, 480.654 441.260, 466.436 448.035 C 450.763 455.503, 431.908 471.243, 423.727 483.686 C 419.216 490.548, 417.737 491.394, 420.825 485.347 C 429.662 468.041, 451.065 449.255, 472.086 440.354 C 482.311 436.024, 482.145 435.707, 468.772 434.031 C 459.517 432.870, 456.997 432.880, 448.585 434.107 M 262.104 462 C 265.451 467.215, 271.503 470.398, 278.548 470.648 C 282.119 470.774, 286.044 471.154, 287.270 471.491 C 289.440 472.087, 289.447 472.061, 287.559 470.552 C 286.348 469.584, 283.601 469, 280.259 469 C 274.470 469, 270.791 467.509, 264.500 462.613 C 260.769 459.710, 260.608 459.668, 262.104 462 M 379.631 466.512 C 377.826 468.317, 376.731 474.781, 377.177 481 L 377.500 485.500 379.378 480.500 C 380.411 477.750, 382.518 473.406, 384.059 470.847 C 385.600 468.289, 386.593 465.926, 386.264 465.597 C 385.124 464.458, 381.135 465.008, 379.631 466.512 M 345 471.168 C 341.052 472.283, 338.718 474, 341.151 474 C 343.193 474, 349.245 471.959, 350.450 470.864 C 351.662 469.761, 349.569 469.879, 345 471.168 M 314.250 473.031 C 310.880 474.386, 311.441 474.631, 317.750 474.563 C 320.913 474.528, 324.512 474.868, 325.750 475.317 C 327.033 475.783, 328 475.744, 328 475.226 C 328 472.984, 318.242 471.427, 314.250 473.031 M 253.006 483.956 C 253.009 487.005, 253.470 491.151, 254.030 493.169 C 254.926 496.395, 254.744 497.288, 252.525 500.559 C 249.659 504.782, 249.348 507.214, 251.452 508.960 C 253.396 510.573, 256.457 509.477, 258.434 506.461 C 260.655 503.070, 265.796 503.089, 269 506.500 C 271.639 509.309, 274.316 509.606, 278 507.500 C 281.890 505.276, 285.389 505.733, 289.500 509 C 294.192 512.729, 295.326 512.739, 298.583 509.084 C 304.605 502.325, 311.157 502.573, 319.211 509.864 C 327.355 517.236, 329.771 517.342, 333.993 510.511 C 336.890 505.823, 339.975 505.178, 346 508 C 349.122 509.462, 351.712 510.038, 353.334 509.631 C 356.791 508.763, 358.814 509.740, 360.563 513.121 C 361.381 514.705, 362.662 516, 363.409 516 C 365.876 516, 365.871 512.055, 363.396 507.401 C 361.049 502.986, 361.019 502.674, 362.485 497.738 C 365.271 488.356, 364.827 487, 358.968 487 C 356.200 487, 352.320 486.325, 350.346 485.500 C 344.827 483.194, 342.138 483.548, 340.854 486.750 C 338.446 492.754, 337.630 493.911, 335.050 494.979 C 331.238 496.558, 327.623 494.898, 324.458 490.115 C 320.879 484.708, 319.569 484.468, 315.351 488.446 C 309.372 494.086, 305.123 493.986, 299.063 488.062 C 294.921 484.013, 293.726 484.177, 288.552 489.500 C 280.557 497.727, 272.774 494.825, 270.599 482.806 C 269.798 478.380, 268.512 477.839, 259.593 478.168 L 253 478.411 253.006 483.956 M 540 484.619 C 532.240 486.311, 518.853 490.328, 513.456 492.583 L 509.578 494.203 512.710 495.520 C 516.538 497.130, 517.684 499.140, 518.567 505.790 L 519.248 510.926 523.874 507.752 C 529.038 504.209, 546.657 487.510, 548.125 484.766 C 549.250 482.665, 548.980 482.660, 540 484.619 M 260 494.952 C 260 495.409, 261.913 496.556, 264.250 497.501 C 271.974 500.624, 271.646 500.555, 270.188 498.760 C 268.701 496.931, 260 493.678, 260 494.952 M 496.813 498.925 C 487.499 499.935, 486.975 500.553, 487.118 510.372 C 487.183 514.843, 487.521 519.705, 487.868 521.178 L 488.500 523.856 497 521.078 C 501.675 519.549, 507.683 517.220, 510.351 515.901 L 515.202 513.503 514.537 507.502 C 514.172 504.201, 513.339 500.958, 512.686 500.296 C 511.031 498.617, 504.701 498.070, 496.813 498.925 M 261.545 508.928 C 258.144 514.430, 284.160 520.630, 315 521.668 C 332.444 522.255, 354.622 520.230, 356.049 517.920 C 357.632 515.360, 355.914 513.144, 352.654 513.538 C 350.919 513.748, 346.643 514.161, 343.150 514.455 C 338.342 514.860, 336.078 515.598, 333.823 517.495 C 330.087 520.639, 325.247 520.769, 321.504 517.824 C 318.984 515.843, 317.472 515.634, 304.553 515.490 C 291.458 515.344, 290.130 515.156, 287.261 513.035 C 284.900 511.289, 283.475 510.910, 281.327 511.457 C 273.545 513.439, 270.446 513.246, 267.285 510.586 C 264.037 507.853, 262.486 507.405, 261.545 508.928 M 304.750 509.080 C 301.393 511.036, 303.048 512, 309.750 511.993 L 316.500 511.987 313.500 510 C 310.198 507.813, 307.425 507.522, 304.750 509.080 M 470.500 517.735 L 459.500 526.247 471.286 525.754 C 477.769 525.483, 483.263 525.070, 483.495 524.838 C 483.728 524.605, 483.374 520.997, 482.709 516.819 L 481.500 509.223 470.500 517.735 M 265.325 519.081 C 265.680 520.412, 266.486 524.087, 267.116 527.250 C 268.466 534.033, 268.281 533.985, 273.938 529.018 C 279.471 524.160, 278.822 520.837, 271.982 518.995 C 269.723 518.387, 267.156 517.613, 266.277 517.276 C 264.993 516.783, 264.806 517.138, 265.325 519.081 M 362.826 519.724 C 360.805 519.937, 358.710 520.649, 358.170 521.306 C 357.238 522.440, 350 545.301, 350 547.112 C 350 548.348, 358.969 544.649, 370.250 538.761 C 380.858 533.225, 381.106 532.955, 377.680 530.710 C 376.404 529.874, 373.611 526.897, 371.474 524.095 C 369.337 521.293, 367.344 519.076, 367.045 519.168 C 366.745 519.261, 364.847 519.511, 362.826 519.724 M 282.169 523.296 C 281.003 524.702, 282.207 526.994, 287.185 532.844 C 290.603 536.860, 290.061 536.993, 297.744 530.250 L 304.295 524.500 296.397 523.325 C 285.882 521.761, 283.448 521.756, 282.169 523.296 M 351.916 522.417 C 350.817 523.516, 330.160 525.168, 319.250 525.030 C 312.512 524.945, 307 525.248, 307 525.705 C 307 526.161, 309.072 528.903, 311.604 531.798 L 316.209 537.061 322.604 531.446 C 330.508 524.507, 330.946 525.475, 323.369 533.132 L 317.738 538.823 319.778 541.661 C 320.899 543.223, 323.182 545.796, 324.850 547.381 L 327.882 550.261 331.691 547.230 C 333.786 545.563, 336.584 543.036, 337.910 541.615 L 340.319 539.031 335.660 533.100 C 329.372 525.097, 329.796 524.100, 336.365 531.443 L 341.682 537.387 344.759 533.944 C 346.450 532.051, 348.125 530.791, 348.479 531.146 C 348.833 531.500, 347.695 533.417, 345.948 535.406 C 343.337 538.381, 342.993 539.286, 344.009 540.511 C 344.689 541.330, 345.569 542, 345.964 542 C 346.647 542, 349.060 535.208, 349.517 532 C 349.635 531.175, 350.493 528.764, 351.424 526.642 C 352.910 523.255, 353.152 521.181, 351.916 522.417 M 275.927 529.378 C 273.962 531.207, 271.548 533.154, 270.563 533.705 C 269.259 534.435, 268.968 535.323, 269.492 536.975 C 270.143 539.026, 270.644 539.184, 274.745 538.621 C 277.239 538.280, 281.466 538, 284.139 538 L 288.998 538 284.338 532 C 281.776 528.700, 279.639 526.012, 279.590 526.027 C 279.540 526.042, 277.892 527.550, 275.927 529.378 M 298.719 531.779 C 291.979 538.590, 291.999 538.515, 296.525 540.008 C 298.464 540.648, 301.378 542.289, 303 543.653 L 305.949 546.135 309.975 542.900 C 312.189 541.121, 314 539.324, 314 538.906 C 314 537.856, 305.757 526, 305.028 526 C 304.703 526, 301.864 528.601, 298.719 531.779 M 260.122 541.673 C 242.688 561.881, 244.638 598.974, 264.184 618.927 C 268.883 623.724, 285.696 635.782, 286.391 634.854 C 286.536 634.659, 286.251 632.559, 285.756 630.186 C 284.901 626.082, 284.717 625.903, 281.967 626.507 C 278.767 627.210, 274.285 625.530, 277 624.646 C 277.825 624.377, 281.486 623.202, 285.135 622.035 C 288.784 620.868, 293.866 618.423, 296.428 616.601 L 301.087 613.289 295.917 612.677 C 289.585 611.927, 286.259 609.865, 284.469 605.580 C 282.380 600.580, 285.392 592.963, 290.041 591.487 C 292.629 590.665, 291.786 589.407, 288.160 588.682 C 277.154 586.481, 274.994 572.476, 284.771 566.708 L 288.181 564.696 285.256 563.466 C 278.037 560.430, 275.733 551.847, 280.589 546.077 L 283.178 543 273.972 543 C 265.439 543, 264.803 542.862, 265.261 541.111 C 266.417 536.689, 264.215 536.930, 260.122 541.673 M 311.115 544.936 C 305.875 549.538, 305.969 551.509, 311.732 557.844 L 315.500 561.986 320.938 557.135 L 326.376 552.285 321.438 546.655 C 318.722 543.559, 316.275 541.039, 316 541.055 C 315.725 541.072, 313.527 542.818, 311.115 544.936 M 335.216 546.281 C 328.900 552.677, 328.910 552.514, 334.496 557.996 C 339.877 563.277, 340.206 563.076, 343.458 552.535 L 345.871 544.716 343.685 542.891 C 340.757 540.446, 341.123 540.300, 335.216 546.281 M 284.277 545.973 C 275.521 551.312, 281.226 562, 292.832 562 C 297.067 562, 298.180 561.587, 299.927 559.365 C 302.137 556.556, 302.663 551.107, 301.021 548.039 C 298.843 543.970, 289.461 542.812, 284.277 545.973 M 322.052 558.919 L 316.603 563.733 321.552 568.859 L 326.500 573.985 331.836 568.840 L 337.171 563.695 332.336 558.900 L 327.500 554.105 322.052 558.919 M 305.631 559.387 C 303.902 562.597, 303.896 562.912, 305.518 565.387 C 307.625 568.602, 308.071 568.618, 310.932 565.573 L 313.212 563.145 310.488 559.573 C 307.219 555.288, 307.826 555.311, 305.631 559.387 M 312.209 567.412 C 309.822 568.941, 309.087 570.035, 309.461 571.500 C 309.743 572.600, 309.994 575.075, 310.020 577 C 310.046 578.938, 310.933 581.539, 312.007 582.828 L 313.947 585.156 318.973 580.828 C 325.011 575.629, 325.007 575.680, 319.694 569.912 L 315.468 565.323 312.209 567.412 M 333.127 570.371 L 327.871 575.693 330.575 578.907 C 332.062 580.675, 333.608 581.756, 334.010 581.310 C 334.954 580.263, 339.239 565.905, 338.752 565.419 C 338.549 565.216, 336.018 567.444, 333.127 570.371 M 288.383 567.914 C 275.076 573.956, 280.337 587, 296.080 587 C 301.739 587, 304.989 583.470, 304.996 577.315 C 305.008 567.193, 298.312 563.404, 288.383 567.914 M 320.556 582.366 L 315.613 586.691 319.427 591.345 C 321.525 593.905, 323.433 596, 323.668 596 C 325.059 596, 333 586.892, 333 585.297 C 333 583.343, 328.172 577.983, 326.445 578.021 C 325.925 578.032, 323.275 579.987, 320.556 582.366 M 308.135 584.747 C 306.508 587.789, 307.660 590.252, 310.100 588.947 C 312.361 587.737, 312.449 586.997, 310.632 584.511 C 309.306 582.698, 309.228 582.706, 308.135 584.747 M 311.538 590.348 C 310.273 591.273, 309.978 592.137, 310.597 593.098 C 311.094 593.869, 311.725 597.334, 312 600.798 L 312.500 607.096 317.266 602.247 L 322.033 597.398 318.438 593.199 C 314.451 588.541, 314.169 588.424, 311.538 590.348 M 294.257 592.460 C 281.854 598.235, 284.418 609.941, 298.095 609.985 C 303.943 610.004, 306.124 607.765, 306.766 601.083 C 307.148 597.111, 306.813 595.546, 305.052 593.073 C 302.416 589.371, 301.058 589.294, 294.257 592.460 M 327.648 594.845 C 325.221 597.378, 325.094 597.833, 326.485 598.988 C 328.396 600.573, 328.535 600.439, 329.815 595.750 C 331.042 591.257, 331.074 591.270, 327.648 594.845 M 318.602 603.897 L 313.930 608.639 318.163 613.448 L 322.397 618.257 324.698 611.434 C 327.485 603.174, 327.538 601.817, 325.137 600.317 C 323.532 599.316, 322.624 599.813, 318.602 603.897 M 714.103 609.157 C 709.586 610.455, 699.464 620.611, 698.553 624.760 C 694.939 641.211, 725.960 637.557, 730.473 621 C 731.094 618.722, 730.986 618.766, 729.244 621.500 C 721.499 633.661, 700 638.494, 700 628.073 C 700 622.416, 711.412 610, 716.612 610 C 717.311 610, 718.160 609.550, 718.500 609 C 719.225 607.827, 718.659 607.847, 714.103 609.157 M 307.562 614.937 L 302.718 619.856 305.821 623.774 C 310.866 630.144, 310.998 630.154, 316.144 624.554 L 320.788 619.500 316.598 614.759 L 312.407 610.018 307.562 614.937 M 721.498 618.260 C 717.646 624.385, 711.191 625.267, 713.911 619.296 L 715.167 616.539 713.040 618.464 C 709.890 621.314, 710.735 624.426, 714.763 624.814 C 718.554 625.180, 724 620.618, 724 617.077 C 724 614.408, 723.887 614.461, 721.498 618.260 M 295.683 625.323 L 290.865 629.570 295.052 634.828 C 297.355 637.721, 299.581 639.955, 299.999 639.793 C 301.206 639.327, 309 632.068, 309 631.410 C 309 630.603, 301.629 621.086, 301 621.081 C 300.725 621.079, 298.332 622.988, 295.683 625.323 M 291.250 624.031 C 290.012 624.529, 289 625.656, 289 626.536 C 289 627.884, 289.473 627.799, 292 626 C 296.240 622.981, 295.924 622.152, 291.250 624.031 M 316.446 627.501 L 312.667 632.112 314.709 634.153 L 316.751 636.195 318.868 629.924 C 321.517 622.082, 321.170 621.735, 316.446 627.501 M 290 631.084 C 290 632.315, 292.931 645.265, 293.291 645.625 C 293.525 645.859, 294.671 645.251, 295.837 644.275 L 297.957 642.500 294.542 637.146 C 291.138 631.811, 290 630.292, 290 631.084 M 305.639 638.250 L 300.833 642.500 304.550 647.250 C 306.595 649.862, 308.625 652, 309.061 652 C 310.630 652, 313.739 647.005, 315.021 642.425 C 316.278 637.934, 316.236 637.685, 313.914 635.900 C 310.761 633.476, 311.169 633.360, 305.639 638.250 M 296.055 645.924 L 293.610 647.803 295.708 657.651 C 299.927 677.452, 303.207 679.341, 307.975 664.714 C 310.750 656.200, 310.146 653.593, 306.220 657.141 C 304.724 658.494, 302.600 660.245, 301.500 661.033 L 299.500 662.466 301.500 660.021 C 302.600 658.676, 304.379 656.828, 305.454 655.914 C 307.369 654.285, 307.330 654.151, 303.498 649.126 C 299.054 643.298, 299.321 643.413, 296.055 645.924 M 761.282 677.250 C 757.707 681.143, 757.492 686.857, 760.581 695.915 C 761.362 698.203, 767.659 691.369, 771.086 684.516 L 774.094 678.500 771.936 676.750 C 768.873 674.266, 763.805 674.504, 761.282 677.250 M 737.838 689.526 C 732.733 692.298, 730.297 706.009, 733.880 711.805 C 734.970 713.569, 743.776 710.237, 751.896 704.989 C 759.049 700.366, 759.004 700.532, 754.533 695.310 C 748.883 688.708, 743.058 686.691, 737.838 689.526 M 710.750 700.080 C 708.196 701.568, 706 706.374, 706 710.475 C 706 715.217, 708.862 716.318, 719.772 715.771 C 730.376 715.239, 731.183 714.448, 727.384 708.304 C 722.610 700.582, 715.729 697.180, 710.750 700.080 M 720.751 736.459 C 718.689 738.247, 715.568 740.121, 713.816 740.624 C 710.724 741.511, 710.566 741.832, 708.476 751.519 C 707.291 757.008, 705.976 762.737, 705.553 764.250 C 704.089 769.481, 714.524 766.115, 722.570 758.762 C 729.027 752.861, 728.956 752.342, 721.975 754.415 C 715.396 756.369, 713.960 755.543, 717.814 752.023 C 722.170 748.044, 725.168 741.618, 724.804 737.038 L 724.500 733.209 720.751 736.459 M 791.506 829.332 C 789.734 833.572, 788.449 843, 789.643 843 C 790.138 843, 791.447 839.175, 792.551 834.500 C 794.584 825.886, 794.050 823.243, 791.506 829.332 M 802.241 835.250 C 799.453 838.226, 797.012 843.015, 797.016 845.500 C 797.018 846.834, 798.014 845.834, 800.007 842.500 C 801.650 839.750, 803.726 836.487, 804.620 835.250 C 805.513 834.013, 805.817 833, 805.296 833 C 804.775 833, 803.400 834.013, 802.241 835.250 M 779.155 839.641 C 780.720 842.743, 782 845.893, 782 846.641 C 782 847.388, 782.450 848, 783 848 C 785.209 848, 782.624 839.453, 779.307 835.787 C 776.338 832.507, 776.282 833.945, 779.155 839.641 M 533.368 840.748 L 516.236 841.046 515.103 848.664 C 514.098 855.422, 512.477 871.598, 510.434 895.250 L 509.765 903 539.883 903 L 570 903 570 900.461 C 570 887.861, 564.817 863.155, 559.048 848.250 C 556.087 840.601, 555.660 840.016, 553.177 840.225 C 551.705 840.348, 542.791 840.584, 533.368 840.748 M 268.643 847.221 C 269.366 850.675, 269.968 855.188, 269.979 857.250 C 269.991 859.313, 270.450 861, 271 861 C 273.514 861, 271.033 842.178, 268.404 841.301 C 267.671 841.057, 267.747 842.948, 268.643 847.221 M 283.776 849.750 C 280.203 853.825, 276.736 864, 278.921 864 C 279.514 864, 280 863.379, 280 862.620 C 280 861.862, 281.499 858.262, 283.332 854.620 C 286.617 848.094, 286.778 846.326, 283.776 849.750 M 254 849.491 C 254 849.762, 255.515 851.968, 257.367 854.394 C 259.219 856.820, 261.028 859.974, 261.386 861.403 C 262.013 863.901, 264 865.091, 264 862.968 C 264 860.705, 260.746 854.345, 258.260 851.750 C 255.853 849.237, 254 848.255, 254 849.491 M 423.500 850.497 C 422.950 850.684, 420.826 851.116, 418.779 851.458 C 416.733 851.800, 413.677 853.243, 411.987 854.664 C 408.219 857.835, 408.762 858.971, 412.671 856.094 C 418.425 851.859, 433.086 851.300, 440.089 855.048 C 443.104 856.661, 443.505 855.561, 440.596 853.655 C 436.670 851.082, 427.027 849.301, 423.500 850.497 M 435 859.955 C 435 861.551, 427.998 862.335, 424.187 861.165 C 419.605 859.759, 418.933 860.397, 422.857 862.426 C 426.453 864.285, 429.960 864.431, 433.398 862.865 C 435.932 861.710, 437.734 859, 435.969 859 C 435.436 859, 435 859.430, 435 859.955 M 610.158 860.852 C 607.220 861.898, 604.070 863.534, 603.158 864.486 C 601.590 866.123, 601.663 866.137, 604.500 864.743 C 611.997 861.058, 623.789 860.209, 635.500 862.510 L 638.500 863.100 635.500 861.364 C 630.903 858.704, 616.977 858.423, 610.158 860.852 M 445.727 863.979 C 441.779 869.617, 427.225 871.951, 417.538 868.501 C 411.805 866.459, 411.844 867.597, 417.595 870.172 C 427.274 874.505, 442.254 872.121, 446.551 865.562 C 448.610 862.420, 447.846 860.954, 445.727 863.979 M 629.149 869.250 C 628.375 870.024, 625.238 870.478, 620.909 870.443 C 614.738 870.393, 614.188 870.536, 616.210 871.658 C 620.323 873.941, 631 872.059, 631 869.051 C 631 867.691, 630.674 867.726, 629.149 869.250 M 642.636 872.507 C 641.666 875.034, 631.784 879.002, 624.846 879.650 C 617.061 880.377, 607.080 878.061, 602.307 874.420 C 598.194 871.283, 597.911 872.906, 601.975 876.325 C 609.157 882.369, 626.227 883.606, 636 878.790 C 640.930 876.361, 644.879 872.546, 643.693 871.359 C 643.448 871.114, 642.972 871.631, 642.636 872.507 M 394.656 904.827 C 393.747 905.833, 392.492 909.195, 391.869 912.301 C 390.312 920.051, 392.828 923.692, 401.608 926.396 C 403.518 926.984, 403.774 926.559, 404.329 921.872 C 405.743 909.933, 399.690 899.266, 394.656 904.827 M 416.784 906.554 C 413.132 908.536, 409.365 915.286, 408.162 922 C 407.620 925.025, 407.357 927.682, 407.576 927.904 C 408.549 928.890, 422.083 930.930, 427.866 930.963 L 434.233 931 433.511 924.256 C 431.900 909.211, 425.116 902.032, 416.784 906.554 M 828.813 906.744 C 826.720 909.180, 825.975 910.602, 824.991 914.033 C 823.615 918.830, 825.366 917.443, 828.339 911.381 C 831.210 905.528, 831.392 903.740, 828.813 906.744 M 507.965 911.146 C 504.820 924.255, 488.008 932.435, 456.701 936.087 C 424.495 939.845, 387 931.228, 387 920.069 C 387 916.776, 385.221 916.702, 371.732 919.434 C 323.006 929.299, 317.990 941.334, 358.191 951.919 C 450.983 976.352, 679.692 972.004, 731.118 944.831 C 749.206 935.273, 734.928 926.424, 685.500 916.561 C 683.958 916.253, 682.648 917.518, 679.780 922.083 C 669.334 938.713, 634.112 947.334, 600.534 941.478 C 575.826 937.169, 570.066 932.123, 570.022 914.750 L 570 906 539.600 906 L 509.199 906 507.965 911.146 M 815.395 907.587 C 815.730 908.461, 816.286 910.936, 816.630 913.087 C 817.182 916.539, 819 918.729, 819 915.943 C 819 913.228, 816.655 906, 815.774 906 C 815.231 906, 815.060 906.714, 815.395 907.587 M 447.041 910.274 C 443.232 912.201, 439.125 918.912, 437.861 925.274 C 437.230 928.449, 436.964 931.297, 437.268 931.602 C 437.913 932.247, 463.264 930.220, 465.557 929.340 C 468.907 928.054, 463.437 914.902, 458.034 911.250 C 454.313 908.736, 450.712 908.416, 447.041 910.274 M 614.957 913.250 C 610.625 916.170, 607.229 922.925, 606.179 930.714 L 605.341 936.929 609.736 937.588 C 614.677 938.329, 636.640 937.694, 637.550 936.784 C 638.557 935.776, 635.928 924.611, 633.584 919.943 C 630.945 914.688, 625.962 911, 621.500 911 C 619.738 911, 616.793 912.013, 614.957 913.250 M 582.658 914.995 C 572.224 924.157, 576.837 931.549, 595.383 935.387 L 602.265 936.811 601.656 930.985 C 599.998 915.123, 591.071 907.609, 582.658 914.995 M 648.187 916.496 C 644.815 919.333, 642.510 924.417, 641.480 931.287 C 640.797 935.839, 640.858 936, 643.281 936 C 648.171 936, 667 929.211, 667 927.448 C 667 925.255, 663.654 919.904, 660.614 917.234 C 656.108 913.278, 652.282 913.050, 648.187 916.496" stroke="none" fill="#1a1a1a" fill-rule="evenodd"/>
</svg>