<svg xmlns="http://www.w3.org/2000/svg" width="1024" height="1024" viewBox="0 0 1024 1024" version="1.1">
	<path d="M 584 120.126 C 584 121.987, 586.067 127.076, 589.106 132.696 C 593.939 141.635, 601.163 158.149, 600.525 158.802 C 600.362 158.968, 596.558 156.604, 592.070 153.548 C 560.830 132.275, 514.778 121.496, 474.500 126.029 C 452.355 128.522, 448.353 132.991, 463.735 138.053 C 474.084 141.459, 492.115 148.512, 497.594 151.297 L 502.500 153.792 497 154.357 C 493.975 154.668, 487.900 155.187, 483.500 155.510 C 466.720 156.741, 442.520 163.175, 429.006 169.997 L 422.855 173.102 418.987 169.608 C 402.182 154.425, 387.992 164.665, 379.254 198.282 C 377.590 204.684, 375.338 210.486, 373.225 213.817 C 367.619 222.656, 367.788 229.172, 373.566 226.975 C 375.754 226.143, 375.809 226.305, 376.223 234.813 C 376.597 242.481, 376.396 243.852, 374.511 246.500 C 373.336 248.150, 368.847 255.125, 364.535 262 C 354.700 277.682, 347.119 288.274, 338.031 299.034 C 327.520 311.478, 328.975 313.960, 346.792 313.985 C 358.656 314.002, 368.372 312.242, 382.500 307.518 C 395.831 303.060, 396.135 303.322, 393.159 316.704 C 390.238 329.837, 389.044 338.935, 389.020 348.231 C 389 355.844, 388.958 355.971, 386.250 356.571 C 361.739 361.998, 341.930 384.132, 333.958 415 C 331.566 424.266, 330.054 441.096, 330.748 450.750 L 331.269 458 310.884 458.074 L 290.500 458.148 271.500 464.350 L 252.500 470.553 251.857 483.527 C 251.504 490.662, 251.408 538.458, 251.645 589.741 L 252.075 682.982 245.498 686.225 C 237.899 689.972, 237.393 690.979, 237.719 701.709 C 238.094 714.013, 240.443 717, 249.746 717 L 252.242 717 251.960 730.250 C 251.805 737.538, 251.750 753.063, 251.839 764.750 L 252 786 257.500 786 L 263 786 263.015 832.250 C 263.024 857.688, 263.389 879.065, 263.827 879.755 C 264.317 880.525, 270.199 881.646, 279.062 882.658 L 293.500 884.306 301 880.542 C 313.234 874.402, 312 880.088, 312 829.845 L 312 786 343.983 786 L 375.966 786 376.233 811.750 L 376.500 837.500 388.352 838.678 L 400.204 839.857 407.819 836.386 C 412.007 834.478, 415.779 832.372, 416.202 831.708 C 416.624 831.044, 416.976 820.487, 416.985 808.250 L 417 786 420.500 786 L 424 786 424 791.394 C 424 798.614, 425.727 815.459, 427.583 826.333 C 430.444 843.100, 434.163 849.506, 443.615 853.949 C 464.586 863.807, 506.804 857.917, 517.105 843.696 C 520.943 838.399, 521.441 833.491, 520.161 813.625 C 518.694 790.847, 519.535 775, 522.211 775 C 524.020 775, 524.085 775.616, 523.443 786.750 C 521.997 811.844, 526.998 845.301, 533.798 856.022 C 541.420 868.038, 571.008 873.564, 595.500 867.546 C 598.800 866.735, 601.837 866.055, 602.250 866.036 C 602.663 866.016, 603 876.095, 603 888.433 C 603 908.937, 603.150 910.909, 604.750 911.372 C 605.712 911.650, 612.710 912.609, 620.299 913.503 L 634.099 915.128 642.799 909.790 L 651.500 904.453 651.774 887.227 L 652.047 870 658.052 870 C 662.706 870, 665.364 869.340, 669.866 867.068 L 675.674 864.136 676.335 831.818 C 676.699 814.043, 676.997 793.587, 676.998 786.359 L 677 773.218 688.043 767.109 C 694.117 763.749, 699.287 761, 699.532 761 C 699.777 761, 700.095 779.562, 700.239 802.250 L 700.500 843.500 706.250 843.800 L 712 844.100 712 851.005 L 712 857.909 715.250 858.455 C 717.038 858.756, 722.992 859.433, 728.481 859.960 L 738.462 860.919 746.231 856.364 L 754 851.810 754 829.070 C 754 816.563, 754.298 778.655, 754.662 744.830 L 755.324 683.331 762.082 679.525 C 769.929 675.105, 769.968 675.016, 769.986 661.321 C 770.005 647.376, 771.204 648.099, 745.250 646.410 L 735 645.742 735 634.526 C 735 624.572, 735.226 623.106, 737.004 621.496 C 740.269 618.542, 740.812 614.311, 743.018 574.653 C 745.530 529.503, 745.097 525.466, 737.005 518.658 C 733.346 515.579, 729.423 514.389, 717.740 512.816 C 709.527 511.711, 709.026 511.508, 709.716 509.569 C 711.746 503.859, 709.138 496.744, 702.881 490.920 L 699.034 487.339 700.224 481.670 C 701.634 474.944, 701.966 474.816, 704.821 479.895 C 709.079 487.471, 711.777 486.174, 717.825 473.642 C 725.435 457.876, 728.962 444.510, 729.869 428 L 730.500 416.500 734.500 424 C 739.113 432.650, 742.565 434.445, 744.867 429.393 C 751.261 415.360, 749.994 373.815, 742.448 350.043 C 741.146 345.941, 740.191 342.475, 740.326 342.340 C 740.462 342.205, 743.655 345.916, 747.423 350.586 C 755.148 360.160, 757.328 361.803, 759.696 359.838 C 761.001 358.754, 761.171 356.858, 760.714 348.518 C 759.567 327.630, 747.822 298.550, 734.279 283.069 C 730.678 278.953, 730.051 277.647, 730.607 275.428 C 731.267 272.798, 731.384 272.763, 737.389 273.389 C 740.750 273.740, 745.975 274.690, 749 275.501 C 757.230 277.708, 760 277.506, 760 274.696 C 760 269.289, 746.768 253.878, 736.305 247.100 C 731.289 243.850, 731.088 243.542, 730.440 238.117 C 726.912 208.550, 709.717 172.384, 690.515 154.144 C 674.106 138.557, 663.324 140.638, 647.215 162.500 C 644.783 165.800, 642.655 168.500, 642.485 168.500 C 642.314 168.500, 639.957 165.457, 637.246 161.738 C 626.184 146.565, 609.188 130.260, 594.595 120.820 C 587.088 115.964, 584 115.761, 584 120.126 M 594.815 134.750 C 600.214 145.190, 609.562 168.771, 608.660 169.673 C 608.532 169.801, 604.144 166.890, 598.910 163.203 C 575.436 146.671, 551.628 136.971, 522 131.868 C 509.570 129.727, 459.067 130.401, 461.343 132.677 C 461.619 132.952, 467.075 134.930, 473.468 137.073 C 488.676 142.169, 497.161 145.897, 510.250 153.232 C 521.931 159.779, 523.289 161.174, 516.750 159.909 C 514.413 159.457, 507.988 159.068, 502.474 159.044 C 460.262 158.860, 416.638 175.887, 388.597 203.490 C 380.460 211.500, 373.306 220.639, 374.353 221.687 C 374.654 221.987, 378.410 220.215, 382.700 217.749 C 390.306 213.376, 401.976 207.968, 407 206.486 C 408.375 206.081, 414 203.850, 419.500 201.530 C 429.055 197.498, 438.809 194.476, 439.627 195.294 C 439.838 195.505, 436.746 196.982, 432.755 198.577 C 410.534 207.456, 395.572 222.583, 371.011 261 C 358.763 280.160, 349.132 293.434, 341.163 302.140 C 338.323 305.242, 336 308.280, 336 308.890 C 336 310.525, 349.102 310.284, 359.619 308.457 C 389.881 303.199, 437.763 278.082, 446.095 263.095 C 450.700 254.810, 456.405 246.019, 457.181 246.009 C 457.986 245.998, 448.998 265.697, 442.358 278.500 C 436.156 290.455, 430.684 298.938, 419.388 314.106 C 414.225 321.040, 410 327.248, 410 327.902 C 410 331.236, 437.875 321.925, 458 311.867 C 490.981 295.385, 540.936 257.602, 552.067 240.720 C 554.686 236.749, 558.490 231.925, 560.522 230 C 564.192 226.521, 564.184 226.547, 559.164 234.291 C 551.088 246.749, 545.455 263.012, 544.332 277.106 C 543.620 286.042, 544.711 287.561, 548.401 282.772 C 549.787 280.972, 553.878 275.675, 557.492 271 C 576.444 246.484, 601.767 227.213, 620.750 222.860 C 623.638 222.198, 626.003 221.396, 626.006 221.078 C 626.098 212.048, 633.017 186.768, 638.150 176.706 L 640.122 172.840 634.393 165.170 C 626.330 154.376, 612.306 140.162, 600.045 130.359 C 594.296 125.762, 589.283 122, 588.906 122 C 588.529 122, 591.188 127.737, 594.815 134.750 M 668.355 149.455 C 657.487 154.156, 642.246 176.585, 635.709 197.500 C 631.749 210.170, 630.714 219.149, 631.166 236.905 C 631.391 245.757, 631.464 253, 631.328 253 C 630.463 253, 627.030 239.072, 626.453 233.223 L 625.759 226.179 620.630 227.688 C 601.125 233.426, 580.243 249.907, 559.533 275.907 C 554.279 282.504, 549.056 288.548, 547.925 289.340 C 540.785 294.341, 537.751 281.963, 541.884 264.692 L 543.753 256.884 541.626 258.756 C 540.457 259.786, 535.900 263.795, 531.500 267.666 C 495.280 299.529, 457.557 321.727, 424.647 330.544 C 411.350 334.107, 405 333.450, 405 328.512 C 405 327.063, 411.140 317.825, 421.581 303.568 C 428.899 293.573, 438.185 278.851, 437.562 278.229 C 437.338 278.005, 434.758 279.567, 431.828 281.700 C 425.399 286.378, 418.595 290.605, 410.354 295.040 L 404.209 298.347 401.610 306.923 C 396.734 323.020, 395.883 328.782, 395.326 349.500 C 394.521 379.458, 397.875 399.473, 409.001 431.101 C 414.584 446.972, 414.922 450.283, 412 460.500 C 407.470 476.339, 410.920 487.912, 424.045 500.908 C 469.422 545.837, 561.657 554.365, 631.500 520.089 C 677.569 497.481, 706.070 453.707, 714.573 392.500 C 716.807 376.418, 716.794 350.974, 714.544 336 C 712.549 322.719, 712.493 322.604, 709.835 326.252 C 705.672 331.967, 706.160 328.644, 710.864 319.250 C 726.705 287.614, 730.139 256.124, 721.470 222 C 711.474 182.656, 682.642 143.276, 668.355 149.455 M 397.848 170.163 C 393.625 174.683, 390.379 180.578, 386.972 189.915 C 382.714 201.582, 383.052 202.046, 390.706 195.032 C 395.789 190.374, 409.929 180.105, 417.892 175.287 C 418.576 174.873, 413.639 171.029, 409.790 168.977 C 404.450 166.131, 401.324 166.442, 397.848 170.163 M 682 189.308 C 682 189.722, 683.067 192.634, 684.371 195.780 C 695.837 223.441, 695.914 252.881, 684.590 279.235 L 682.985 282.971 675.997 276.134 C 666.518 266.859, 660.064 252.166, 660.015 239.750 C 660.006 237.611, 659.509 236, 658.856 236 C 657.394 236, 658.417 247.960, 660.600 256.385 C 662.959 265.490, 666.509 271.585, 674.156 279.665 C 679.874 285.706, 681.002 287.430, 680.439 289.264 L 679.752 291.500 682.240 289.203 C 685.539 286.159, 691.424 273.448, 694.141 263.500 C 697.400 251.567, 697.433 226.799, 694.204 215.605 C 691.259 205.397, 682 185.445, 682 189.308 M 391 217.906 L 381.500 222.752 381.201 229.511 L 380.902 236.269 383.622 232.885 C 385.118 231.023, 389.967 225.787, 394.399 221.250 C 398.830 216.713, 402.016 213.014, 401.478 213.030 C 400.940 213.047, 396.225 215.241, 391 217.906 M 731.391 258.882 L 731.391 268.764 737.526 269.392 C 740.899 269.738, 746.275 270.702, 749.472 271.535 C 752.669 272.367, 755.432 272.902, 755.612 272.722 C 756.941 271.393, 734.631 249, 731.978 249 C 731.655 249, 731.391 253.447, 731.391 258.882 M 728.439 286.580 C 727.345 292.578, 722.111 306.877, 719.045 312.244 C 716.464 316.764, 716.375 317.319, 717.524 321.772 C 727.264 359.531, 720.775 418.646, 703.012 453.975 L 698.864 462.226 700.869 464.363 C 701.972 465.538, 704.325 469.601, 706.097 473.391 C 709.949 481.626, 709.855 481.693, 715.945 466.403 C 724.447 445.059, 727.795 423.317, 725.161 406.548 C 724.561 402.725, 724.239 399.428, 724.445 399.221 C 725.236 398.430, 733.241 411.365, 736.672 418.980 C 738.649 423.366, 740.609 426.742, 741.029 426.482 C 742.610 425.505, 744.432 407.984, 744.354 394.500 C 744.236 373.863, 740.371 354.228, 732.952 336.564 C 731.349 332.750, 730.193 329.474, 730.381 329.285 C 731.278 328.388, 743.055 338.582, 747.500 344.104 C 750.250 347.519, 753.545 351.481, 754.822 352.907 L 757.144 355.500 756.547 348.781 C 754.828 329.419, 743.213 300.100, 731.508 285.580 L 729.154 282.661 728.439 286.580 M 532.164 340.303 C 527.990 345.332, 526.590 356.374, 529.431 361.866 C 531.632 366.123, 533.255 365.855, 531.449 361.532 C 529.453 356.755, 529.635 350.981, 531.976 344.820 C 534.027 339.423, 534.087 337.985, 532.164 340.303 M 539.609 348.020 C 536.206 356.523, 538.556 364.799, 546.311 371.624 L 550.908 375.671 548.287 379.529 C 541.109 390.091, 538.071 410.234, 541.400 425.194 C 545.139 442, 553.300 453.568, 565.763 459.728 C 573.134 463.370, 573.759 463.500, 583.948 463.500 C 594.021 463.500, 594.846 463.335, 602.119 459.861 C 618.711 451.938, 628.897 435.930, 630.599 415.107 C 631.154 408.313, 630.748 404.410, 628.378 393.750 L 627.767 391 634.442 391 C 648.427 391, 637.446 388.074, 610 384.487 C 561.063 378.090, 542.500 368.833, 542.500 350.823 C 542.500 342.981, 541.869 342.370, 539.609 348.020 M 461.575 349 C 462.938 351.533, 463.453 354.525, 463.437 359.826 C 463.419 366.055, 463.610 366.887, 464.708 365.385 C 467.654 361.356, 465.714 350.496, 461.411 346.927 C 459.887 345.663, 459.905 345.899, 461.575 349 M 454 356.532 C 454 369.369, 445.092 376.594, 418.393 385.412 C 402.810 390.558, 397.302 393.490, 404.778 392.659 L 409.056 392.183 408.315 395.841 C 403.769 418.266, 415.791 449.235, 432.219 457.422 C 447.605 465.089, 459.478 455.829, 463.627 432.927 C 466.958 414.540, 463.125 396.285, 452.759 381.166 L 449.788 376.831 452.341 374.166 C 457.399 368.884, 459.399 360.164, 456.839 354.547 C 455.091 350.710, 454 351.473, 454 356.532 M 384.618 362.214 C 372.539 364.734, 355.790 379.216, 348.209 393.696 C 320.937 445.783, 341.635 514.398, 395.455 550.323 L 399.410 552.963 401.813 550.732 C 408.427 544.591, 419.728 524.664, 423.072 513.250 L 424.317 509 418.334 502.750 C 404.852 488.666, 401.660 477.298, 406.500 460.597 C 409.812 449.167, 409.732 448.096, 404.531 434.191 C 396.280 412.135, 391.984 394.368, 389.720 372.952 L 388.500 361.404 384.618 362.214 M 549.151 382.852 C 545.070 391.744, 544.054 396.716, 544.024 407.930 L 544 417.360 547.607 413.146 C 557.942 401.071, 575.890 401.296, 588.611 413.659 C 600.913 425.616, 602.501 446.060, 591.970 456.911 L 588.063 460.937 591.281 460.364 C 615.919 455.973, 631.117 427.390, 624.434 398.011 L 622.869 391.128 617.184 390.540 C 589.147 387.643, 567.932 383.394, 557.351 378.557 L 552.202 376.203 549.151 382.852 M 444.750 380.604 C 439.812 383.797, 432.430 386.663, 422 389.435 C 412.006 392.091, 412.304 391.530, 412.118 408.020 C 411.911 426.475, 419.069 444.929, 429.247 452.176 L 432.202 454.280 429.663 450.259 C 423.649 440.731, 422.679 429.036, 427.078 419.091 C 433.152 405.360, 447.947 401.871, 458.250 411.740 L 461 414.374 460.983 411.937 C 460.926 404.002, 454.524 385.521, 449.863 379.839 C 448.606 378.307, 448.209 378.366, 444.750 380.604 M 575.019 413.189 C 571.730 414.405, 571.033 415.715, 571.015 420.715 C 570.977 431.352, 586.265 438.018, 590.003 428.994 C 593.188 421.303, 582.775 410.319, 575.019 413.189 M 433.229 415.669 C 431.140 416.510, 429 421.635, 429 425.795 C 429 433.507, 436.363 435.585, 440.718 429.102 C 446.056 421.155, 441.208 412.459, 433.229 415.669 M 448.476 436.667 C 446.322 438.821, 446.975 442.425, 449.588 442.798 C 452.237 443.177, 454.353 440.687, 453.545 438.140 C 452.689 435.445, 450.371 434.772, 448.476 436.667 M 561.390 437.427 C 559.728 441.756, 563.386 446.506, 566.750 444.388 C 569.203 442.843, 569.483 440.191, 567.433 437.926 C 565.384 435.662, 562.169 435.397, 561.390 437.427 M 482.199 443.986 C 476.331 445.376, 477.807 445.657, 488.759 445.234 C 494.667 445.006, 501.409 445.261, 503.742 445.802 C 509.370 447.105, 508.298 445.564, 502.574 444.123 C 497.584 442.866, 487.222 442.797, 482.199 443.986 M 481.043 450.192 C 470.253 451.875, 459.703 458.237, 455.332 465.696 C 447.634 478.832, 454.681 502.178, 468.919 510.709 C 477.050 515.581, 481.249 515.841, 489.976 512.010 C 502.218 506.637, 513.863 506.990, 523.375 513.023 C 528.483 516.262, 529.657 515.079, 525.637 510.743 C 518.255 502.777, 503.080 501.366, 490.262 507.453 C 481.626 511.554, 479.215 511.767, 473.379 508.942 C 460.041 502.485, 451.804 480.298, 457.996 467.507 C 463.567 456, 482.171 449.969, 502 453.243 C 506.254 453.945, 506.363 453.907, 504 452.542 C 501.732 451.232, 498.024 450.490, 489.500 449.639 C 487.850 449.475, 484.044 449.723, 481.043 450.192 M 277.500 464.968 C 270.900 467.099, 264.375 469.300, 263 469.858 C 261.238 470.574, 271.240 470.892, 296.881 470.937 L 333.262 471 332.642 467.250 C 332.301 465.188, 332.017 462.938, 332.011 462.250 C 332.003 461.288, 327.102 461.011, 310.750 461.046 L 289.500 461.092 277.500 464.968 M 691.753 473.750 L 685.359 483.500 689.866 484.194 C 692.345 484.575, 694.698 484.686, 695.096 484.441 C 696.020 483.869, 699.232 464, 698.400 464 C 698.261 464, 695.269 468.387, 691.753 473.750 M 505.562 472.546 C 504.645 473.946, 502.793 475.593, 501.447 476.206 C 498.732 477.443, 498.127 480, 500.550 480 C 504.985 480, 509 476.161, 509 471.918 C 509 469.257, 507.543 469.523, 505.562 472.546 M 461.355 473.517 C 460.557 475.598, 462.815 478.915, 465.486 479.586 C 469.699 480.643, 469.774 479.614, 465.759 475.845 C 463.053 473.307, 461.709 472.596, 461.355 473.517 M 254 577.583 C 254 635.104, 254.361 682.017, 254.801 681.833 C 255.242 681.650, 258.617 680.162, 262.301 678.527 L 269 675.555 269 581.277 L 269 487 303.607 487 C 334.329 487, 338.148 486.827, 337.624 485.463 C 337.300 484.618, 336.320 481.468, 335.446 478.463 L 333.858 473 293.929 473 L 254 473 254 577.583 M 683.301 488.253 C 682.091 488.948, 679.102 492.189, 676.659 495.455 L 672.216 501.394 677.628 503.593 C 684.474 506.376, 689.065 509.876, 693.911 516.007 L 697.737 520.847 699.901 517.920 C 707.986 506.984, 708.551 504.564, 704.432 498.495 C 698.823 490.230, 688.537 485.245, 683.301 488.253 M 323.750 489.748 L 309 490.053 309 494.027 L 309 498 318.392 498 C 327.467 498, 327.803 498.081, 328.385 500.396 C 328.939 502.605, 329.280 502.724, 332.743 501.920 C 334.809 501.440, 338.188 501.037, 340.250 501.024 C 342.313 501.011, 344 500.829, 344 500.621 C 344 499.981, 338.865 488.985, 338.677 489.221 C 338.580 489.343, 331.863 489.580, 323.750 489.748 M 271 538.567 L 271 587.135 273.163 586.448 C 274.352 586.071, 276.827 585.134, 278.663 584.367 L 282 582.973 282 542.554 C 282 504.926, 282.121 502.099, 283.750 501.610 C 292.769 498.906, 301.030 497, 303.730 497 C 306.800 497, 307 496.786, 307 493.500 L 307 490 289 490 L 271 490 271 538.567 M 294 501 C 292.041 501.627, 292.582 501.801, 296.500 501.801 C 299.250 501.801, 302.625 501.440, 304 501 C 305.959 500.373, 305.418 500.199, 301.500 500.199 C 298.750 500.199, 295.375 500.560, 294 501 M 312.500 501 L 309.500 501.763 313 501.811 C 314.925 501.838, 317.400 501.473, 318.500 501 C 320.315 500.220, 320.268 500.145, 318 500.189 C 316.625 500.215, 314.150 500.580, 312.500 501 M 318.750 502.771 C 316.031 503.675, 314 504.963, 314 505.783 C 314 506.694, 314.591 506.987, 315.629 506.589 C 316.525 506.245, 319.225 505.469, 321.629 504.863 C 324.149 504.229, 326 503.178, 326 502.381 C 326 500.686, 324.830 500.749, 318.750 502.771 M 330 504.588 C 322.174 506.660, 321.766 506.993, 327.893 506.308 C 335.026 505.510, 342.961 503.134, 338.500 503.133 C 336.850 503.132, 333.025 503.787, 330 504.588 M 284 544.500 L 284 585 291.500 585 L 299 585 299 544.500 L 299 504 291.500 504 L 284 504 284 544.500 M 301 544.500 L 301 585 307.558 585 L 314.115 585 313.636 549.250 C 313.373 529.587, 312.851 511.363, 312.478 508.750 L 311.799 504 306.399 504 L 301 504 301 544.500 M 339.129 506.128 C 335.625 507.108, 332.574 508.093, 332.349 508.318 C 332.124 508.543, 334.618 523.076, 337.891 540.614 C 341.165 558.151, 344.156 574.643, 344.537 577.262 C 344.919 579.882, 345.652 582.285, 346.168 582.604 C 347.035 583.140, 362.556 577.509, 364.255 576.042 C 364.670 575.683, 362.810 564.165, 360.121 550.445 C 357.432 536.725, 354.907 523.540, 354.510 521.144 C 353.881 517.350, 347.856 505.506, 346.121 504.653 C 345.779 504.485, 342.633 505.149, 339.129 506.128 M 667.565 506.211 C 666.062 508.356, 666.136 508.467, 669.755 509.547 C 678.356 512.112, 685.458 517.513, 689.661 524.684 C 692.187 528.995, 692.279 529.047, 693.717 526.993 C 695.903 523.873, 694.627 520.728, 688.739 514.728 C 680.567 506.399, 670.320 502.277, 667.565 506.211 M 659.241 509.777 C 656.022 512.466, 655.165 514, 656.881 514 C 657.366 514, 658.964 512.425, 660.432 510.500 C 663.628 506.310, 663.490 506.226, 659.241 509.777 M 325 508.754 C 322.525 508.893, 319.107 509.238, 317.403 509.520 L 314.307 510.033 316.043 519.267 C 316.997 524.345, 319.932 541.481, 322.565 557.348 L 327.352 586.195 333.926 585.536 C 343.227 584.604, 344.094 584.255, 343.499 581.682 C 342.888 579.040, 336.141 543.043, 332.505 523.021 C 331.058 515.057, 329.791 508.532, 329.687 508.521 C 329.584 508.509, 327.475 508.614, 325 508.754 M 662.543 512.953 C 660.833 514.842, 660.869 514.928, 663.638 515.595 C 671.046 517.378, 680.771 524.658, 685.097 531.657 C 686.787 534.392, 687.486 534.841, 688.604 533.914 C 693.177 530.118, 684.100 518.125, 672.756 512.976 C 667.333 510.514, 664.755 510.508, 662.543 512.953 M 425.087 519.250 C 420.593 533.375, 409.729 550.383, 401.311 556.471 C 399.007 558.137, 397.095 559.744, 397.061 560.042 C 397.027 560.340, 399.933 562.300, 403.518 564.397 L 410.036 568.210 413.561 565.522 C 418.117 562.046, 423.846 554.762, 428.273 546.815 C 431.882 540.336, 438 524.184, 438 521.134 C 438 519.804, 429.219 512, 427.723 512 C 427.542 512, 426.356 515.263, 425.087 519.250 M 642.337 520.772 C 637.847 523.372, 630.156 527.255, 625.244 529.399 L 616.315 533.299 613.647 539.399 C 597.731 575.788, 547.521 589.521, 520.542 564.864 C 515.017 559.815, 510.650 553.438, 509.454 548.673 C 508.588 545.222, 509.136 545.471, 496.938 543.003 C 481.798 539.941, 464.118 533.753, 451.348 527.046 L 440.196 521.190 438.537 527.791 C 435.115 541.417, 425.258 558.484, 416.960 565.152 C 414.782 566.903, 413 568.652, 413 569.039 C 413 570.752, 441.691 582.479, 455.900 586.574 C 460.630 587.937, 465.250 589.284, 466.167 589.567 C 467.479 589.972, 468.191 588.849, 469.510 584.291 C 471.489 577.456, 477.787 563.453, 478.542 564.209 C 478.831 564.498, 477.966 568.537, 476.619 573.185 C 473.768 583.026, 470.484 598.066, 468.658 609.654 L 467.374 617.807 473.937 618.469 C 488.512 619.938, 504.384 625.004, 511.563 630.480 L 514.728 632.894 522.114 630.259 C 532.002 626.732, 551.319 626.558, 565.953 629.864 C 571.152 631.039, 575.540 632, 575.703 632 C 575.866 632, 576 631.355, 576 630.567 C 576 629.361, 631.128 551.317, 649.296 526.803 C 655.444 518.507, 655.837 517.535, 653.418 516.607 C 651.063 515.703, 651.132 515.677, 642.337 520.772 M 705.750 516.562 C 704.202 518.154, 705.144 518.738, 710.222 519.340 C 717.775 520.234, 723.881 523.695, 726.408 528.512 C 728.664 532.813, 728.851 537.377, 728.230 573 C 727.641 606.749, 727.829 622, 728.835 622 C 731.609 622, 735.912 616.754, 736.457 612.707 C 737.433 605.462, 740 554.576, 740 542.478 C 740 522.197, 736.249 518.444, 714 516.460 C 709.875 516.092, 706.163 516.138, 705.750 516.562 M 633 555.180 C 618.425 575.665, 600.562 600.657, 593.303 610.718 C 582.843 625.218, 580.594 628.889, 582.457 628.422 C 584.072 628.016, 585.103 628.362, 585.756 629.529 C 586.517 630.888, 586.946 630.258, 587.913 626.363 C 590.958 614.102, 597.799 604.550, 607.519 598.989 C 610.416 597.332, 613.582 594.744, 614.555 593.238 C 615.527 591.732, 626.983 575.650, 640.011 557.500 C 670.260 515.360, 667.887 519.491, 662.427 518.478 C 659.570 517.947, 658.867 518.824, 633 555.180 M 495.168 519.816 C 494.285 520.415, 496.139 520.914, 500.668 521.295 C 504.426 521.612, 508.625 522.177, 510 522.550 L 512.500 523.228 510.044 521.413 C 507.331 519.408, 497.349 518.337, 495.168 519.816 M 666.455 523.750 C 665.478 525.263, 654.027 541.350, 641.007 559.500 C 627.988 577.650, 617.046 593.001, 616.693 593.613 C 616.251 594.380, 617.829 594.307, 621.776 593.378 C 624.924 592.637, 628.850 592.011, 630.500 591.985 C 633.146 591.945, 634.239 590.852, 639.766 582.720 C 643.212 577.649, 653.430 563.375, 662.473 551 L 678.915 528.500 674.829 524.750 C 669.951 520.273, 668.789 520.134, 666.455 523.750 M 697.203 527.847 C 694.554 531.506, 692.034 535.085, 691.603 535.800 C 691.079 536.670, 693.423 539.812, 698.691 545.300 C 708.064 555.066, 713.318 561.883, 719.854 572.756 L 724.704 580.827 725.348 569.664 C 726.436 550.782, 726.139 535.269, 724.621 531.636 C 722.169 525.767, 716.998 522.967, 706.260 521.695 L 702.020 521.193 697.203 527.847 M 357.387 525 C 357.767 526.925, 359.868 537.725, 362.057 549 C 364.246 560.275, 366.239 570.063, 366.487 570.750 C 366.827 571.694, 371.891 572, 387.172 572 L 407.407 572 399.840 567.032 C 391.869 561.799, 389.334 558.922, 388.348 553.988 C 387.934 551.921, 386.240 549.879, 382.917 547.439 C 380.260 545.489, 373.274 538.855, 367.391 532.697 C 357.381 522.217, 356.740 521.724, 357.387 525 M 677.707 533.231 C 667.094 547.549, 640.599 584.488, 637.705 589 L 636.102 591.500 641.301 591.705 L 646.500 591.911 652.435 583.205 C 655.699 578.417, 664.387 566.296, 671.741 556.270 L 685.113 538.040 683.435 534.504 C 681.120 529.626, 680.484 529.485, 677.707 533.231 M 605.390 536.723 C 600.192 538.467, 597.914 539.793, 596.919 541.651 C 594.711 545.777, 584.259 554.840, 578.159 557.919 C 557.653 568.268, 534.388 565.211, 523.978 550.798 C 521.198 546.950, 520.356 546.445, 515.936 545.972 C 510.324 545.372, 510.224 545.558, 513.110 551.216 C 516.333 557.534, 524.811 565.875, 531.378 569.191 C 559.156 583.214, 595.450 569.699, 610.670 539.665 C 612.025 536.990, 612.992 534.697, 612.817 534.569 C 612.643 534.442, 609.300 535.411, 605.390 536.723 M 316.120 559.250 C 316.054 572.862, 316.383 584, 316.851 584 C 319.319 584, 324 581.613, 324 580.355 C 324 578.508, 318.302 543.817, 317.125 538.500 C 316.519 535.758, 316.202 542.283, 316.120 559.250 M 581.738 542.627 C 567.098 545.608, 553.322 547, 538.461 547 C 531.607 547, 526 547.403, 526 547.896 C 526 549.565, 533.379 555.285, 538.454 557.550 C 553.102 564.090, 573.356 559.590, 587.547 546.644 C 590.821 543.657, 593.275 541.038, 593 540.824 C 592.725 540.611, 587.657 541.422, 581.738 542.627 M 675.103 557.522 C 668.446 566.610, 663 574.218, 663 574.431 C 663 574.643, 665.813 573.962, 669.250 572.918 C 681.697 569.137, 705.344 567.892, 712.507 570.641 C 715.475 571.780, 706.709 559.902, 697.136 549.814 C 692.536 544.966, 688.420 541, 687.989 541 C 687.559 541, 681.760 548.435, 675.103 557.522 M 687 571.680 C 681.144 572.282, 669.643 574.949, 664.525 576.892 C 660.618 578.375, 658.817 579.942, 655.157 585.043 C 652.020 589.415, 651.222 591.096, 652.563 590.508 C 666.808 584.262, 670.841 583.507, 689.500 583.589 C 707.263 583.668, 712.890 584.510, 722.335 588.503 C 724.407 589.380, 719.941 579.515, 716.360 575.309 C 713.754 572.247, 699.100 570.436, 687 571.680 M 367 575.809 C 367 577.577, 346.648 586.258, 340 587.326 C 338.625 587.547, 361.350 587.772, 390.500 587.827 L 443.500 587.926 434.964 584.583 C 430.269 582.745, 423.193 579.611, 419.239 577.620 L 412.050 574 389.525 574 C 368.460 574, 367 574.117, 367 575.809 M 319.500 585.566 C 317.209 586.637, 311.824 586.939, 296.727 586.841 C 285.851 586.771, 276.664 587.003, 276.310 587.357 C 275.956 587.710, 286.950 588, 300.740 588 C 325.320 588, 325.802 587.961, 325.290 586 C 324.687 583.694, 323.664 583.618, 319.500 585.566 M 676.500 587.674 C 670.437 588.431, 659.024 591.152, 658.525 591.960 C 658.242 592.418, 661.610 593.111, 666.011 593.501 C 680.732 594.804, 675.165 595.741, 653.229 595.652 C 629.863 595.558, 623.236 596.372, 614.388 600.423 C 595.248 609.185, 586.854 632.073, 595.981 650.614 C 605.321 669.584, 631.728 678.421, 664.376 673.500 C 702.760 667.714, 725.079 645.011, 722.691 614.184 C 722.074 606.218, 718.688 593.380, 716.662 591.319 C 713.713 588.320, 689.169 586.093, 676.500 587.674 M 271.417 590.917 C 271.187 591.146, 271 594.183, 271 597.667 L 271 604 367.868 604 L 464.737 604 465.261 600.250 C 465.550 598.188, 465.947 595.893, 466.143 595.151 C 467.156 591.326, 459.563 590.999, 363.815 590.744 C 313.225 590.610, 271.646 590.688, 271.417 590.917 M 271 640.583 C 271 659.054, 271.340 674.017, 271.755 673.833 C 272.170 673.650, 274.645 672.651, 277.255 671.614 C 279.865 670.577, 281.979 669.227, 281.953 668.614 C 281.927 668.001, 281.090 658.725, 280.093 648 C 278.545 631.358, 278.484 628.334, 279.674 627.365 C 281.337 626.011, 300.857 621, 304.470 621 C 306.936 621, 307 620.822, 307 614 L 307 607 289 607 L 271 607 271 640.583 M 309 614 L 309 621 314 621 C 318.397 621, 319 621.251, 319 623.079 C 319 624.852, 319.443 625.073, 322 624.579 C 323.650 624.261, 326.323 623.745, 327.940 623.434 C 331.382 622.771, 332.328 624.186, 335.999 635.500 C 337.249 639.350, 338.399 642.651, 338.555 642.836 C 338.710 643.020, 348.662 638.745, 360.669 633.336 L 382.500 623.500 394.500 623.500 C 405.030 623.500, 407.016 623.224, 410.710 621.250 C 413.905 619.543, 416.580 619, 421.800 619 C 425.585 619, 436.187 618.704, 445.361 618.342 C 463.904 617.611, 462.045 618.444, 463.409 610.250 L 463.950 607 386.475 607 L 309 607 309 614 M 431 621.885 L 414.500 622.500 398.500 630.901 C 382.241 639.439, 374.721 643.498, 349.199 657.511 C 331.056 667.473, 331.178 667.565, 360.914 666.392 C 413.482 664.317, 427.267 666.201, 445.647 677.977 C 447.614 679.237, 448.193 679, 452.585 675.134 C 455.220 672.814, 459.092 669.952, 461.188 668.774 C 465.269 666.480, 466.087 664.990, 463.250 665.015 C 460.951 665.035, 459.509 666.082, 458.677 668.333 C 457.868 670.521, 455.639 670.049, 455.161 667.588 C 454.074 661.980, 460.962 656.174, 467.104 657.523 C 469.389 658.025, 470 657.810, 470 656.503 C 470 655.592, 471.373 653.473, 473.052 651.794 C 475.811 649.036, 476.531 648.801, 480.552 649.352 C 484.753 649.928, 485 649.828, 485 647.553 C 485 644.323, 489.391 641, 493.660 641 C 496.273 641, 497.249 640.475, 497.921 638.709 C 499.127 635.536, 501.017 634.173, 505.506 633.240 L 509.355 632.441 501.410 628.809 C 486.504 621.995, 470.437 620.415, 431 621.885 M 296 624.422 C 293.525 625.106, 290.825 625.955, 290 626.307 C 287.389 627.424, 300.319 625.774, 304.500 624.458 L 308.500 623.198 304.500 623.188 C 302.300 623.183, 298.475 623.738, 296 624.422 M 306.250 625.757 C 297.911 628.060, 297 628.544, 297 630.676 L 297 633.041 301.241 630.877 C 303.574 629.687, 308.162 627.990, 311.436 627.107 C 314.710 626.223, 317.335 625.061, 317.269 624.525 C 317.076 622.949, 315.979 623.071, 306.250 625.757 M 318 627.885 C 313.875 628.816, 310.561 630.011, 310.635 630.539 C 311.192 634.512, 317.660 652, 318.573 652 C 319.204 652, 323.541 650.235, 328.211 648.077 L 336.702 644.155 333.601 635.078 C 330.045 624.669, 330.767 625.002, 318 627.885 M 728.179 627.750 C 727.689 628.712, 726.750 631.705, 726.092 634.401 C 725.434 637.097, 724.232 640.584, 723.422 642.151 L 721.949 645 726.474 645 L 731 645 731 635.500 C 731 626.335, 730.125 623.930, 728.179 627.750 M 358 638.881 C 343.425 645.389, 313.725 658.924, 292 668.959 C 270.275 678.994, 250.794 687.889, 248.709 688.727 C 246.623 689.565, 245.086 690.419, 245.292 690.625 C 245.661 690.994, 302.038 695.672, 364.109 700.483 C 397.783 703.093, 512.221 712.110, 573.500 716.982 C 593.850 718.599, 617.752 720.468, 626.615 721.134 L 642.730 722.346 664.115 710.068 C 713.197 681.889, 763 652.661, 763 652.035 C 763 651.665, 753.336 650.719, 741.526 649.932 L 720.051 648.500 716.626 653.090 C 709.344 662.847, 692.263 672.920, 675.893 677.110 C 669.220 678.819, 663.786 679.332, 649.369 679.616 L 631.239 679.972 608.869 694.543 C 588.430 707.856, 586.198 709.065, 583 708.559 C 581.075 708.255, 560.150 705.516, 536.500 702.472 C 512.850 699.429, 487.163 696.052, 479.418 694.969 C 462.012 692.535, 461.333 692.536, 456.500 695 C 450.407 698.106, 440.933 696.964, 436.036 692.533 C 434.596 691.230, 430.820 690.687, 418.353 689.993 C 343.176 685.805, 324.201 684.598, 322.250 683.879 C 319.100 682.718, 319.420 679.533, 323.008 676.335 C 324.662 674.861, 326.472 671.961, 327.030 669.889 C 328.328 665.067, 334.360 661.391, 389 632.121 L 398.500 627.032 391.500 627.041 C 384.729 627.049, 383.634 627.436, 358 638.881 M 457.500 628.136 C 472.546 629.739, 479.458 631.072, 482.728 633.002 C 484.528 634.064, 486 634.595, 486 634.182 C 486 630.944, 469.859 626.931, 457.685 627.141 L 449.500 627.283 457.500 628.136 M 422 629.095 C 422 629.593, 424.100 630, 426.667 630 C 429.233 630, 431.146 629.837, 430.917 629.638 C 429.909 628.761, 422 628.280, 422 629.095 M 281 631.626 C 281 635.187, 284.083 667.416, 284.460 667.793 C 285.094 668.428, 296.498 662.447, 296.459 661.500 C 296.436 660.950, 296.044 653.413, 295.587 644.750 L 294.758 629 287.879 629 C 281.120 629, 281 629.046, 281 631.626 M 302.831 632.562 L 298.162 634.956 301.807 646.228 C 303.811 652.428, 305.576 657.689, 305.729 657.920 C 306.315 658.808, 316.049 653.568, 315.682 652.563 C 315.468 651.978, 313.822 647, 312.022 641.500 C 310.223 636, 308.470 631.200, 308.126 630.834 C 307.782 630.467, 305.399 631.245, 302.831 632.562 M 524.489 632.864 C 515.933 635.315, 515.639 635.580, 517.661 639.003 C 520.433 643.696, 514.492 647.707, 511 643.500 C 509.429 641.608, 508.514 641.617, 505.554 643.557 C 503.366 644.990, 503.286 645.323, 504.547 647.754 C 506.918 652.324, 501.933 655.059, 497.895 651.405 C 494.719 648.531, 488.087 653.687, 491.093 656.693 C 492.712 658.312, 490.419 662, 487.794 662 C 486.619 662, 484.851 661.270, 483.866 660.378 C 482.208 658.878, 481.838 658.906, 478.925 660.750 C 476.988 661.977, 476.204 663.008, 476.888 663.431 C 478.528 664.444, 478.239 668.557, 476.423 670.064 C 475.109 671.155, 474.279 671.067, 471.437 669.536 L 468.026 667.699 462.513 671.360 C 459.481 673.373, 457 675.189, 457 675.396 C 457 675.602, 460.262 674.864, 464.250 673.755 C 470.207 672.099, 474.711 671.723, 489.500 671.650 C 510.229 671.547, 517.549 672.714, 547.500 680.900 C 557.400 683.606, 568.321 686.370, 571.768 687.043 L 578.037 688.267 585.768 683.453 C 590.021 680.805, 595.959 677.139, 598.963 675.306 C 606.634 670.627, 606.593 670.893, 600.486 665.621 L 594.961 660.851 582.425 667.037 C 575.530 670.439, 569.626 672.960, 569.305 672.639 C 568.984 672.317, 570.093 663.830, 571.770 653.777 C 573.446 643.725, 574.684 635.363, 574.520 635.195 C 574.357 635.027, 570.010 634.020, 564.861 632.958 C 552.648 630.438, 533.118 630.393, 524.489 632.864 M 579.265 632.250 C 578.491 633.237, 574.970 653.028, 574.994 656.250 C 574.997 656.663, 575.591 657, 576.313 657 C 577.035 657, 578.897 658.326, 580.450 659.948 L 583.274 662.895 588.137 660.431 C 593.767 657.578, 593.583 658.063, 590.971 652.943 C 589.855 650.755, 588.506 646.611, 587.975 643.733 C 587.443 640.855, 586.597 637.600, 586.094 636.500 C 585.592 635.400, 584.930 633.712, 584.622 632.750 C 583.975 630.725, 580.700 630.420, 579.265 632.250 M 406.168 635.039 C 408.497 636.392, 432.803 637.559, 431.500 636.256 C 430.950 635.706, 424.650 634.989, 417.500 634.663 C 408.908 634.271, 405.066 634.399, 406.168 635.039 M 460.500 635 C 461.600 635.473, 464.092 635.891, 466.039 635.930 C 467.985 635.968, 471.329 636.893, 473.470 637.985 C 477.975 640.281, 479.379 639.950, 475.609 637.480 C 472.527 635.460, 466.782 634.031, 462 634.094 C 459.144 634.132, 458.868 634.299, 460.500 635 M 506 637.169 C 507.925 637.713, 510.688 639.284, 512.140 640.661 C 513.639 642.082, 515.045 642.736, 515.393 642.173 C 516.571 640.267, 510.094 635.994, 506.173 636.090 L 502.500 636.180 506 637.169 M 297.507 644 C 297.769 647.025, 297.987 652.087, 297.991 655.250 C 298 661.247, 298.987 662.308, 302.176 659.750 C 303.568 658.633, 303.377 657.435, 300.383 648.500 C 297.119 638.762, 297.044 638.644, 297.507 644 M 438.158 640.065 C 436.869 640.582, 435.407 640.751, 434.908 640.443 C 434.408 640.134, 434 640.410, 434 641.055 C 434 641.881, 435.355 642.024, 438.589 641.539 C 442.215 640.995, 443.579 641.214, 445.092 642.583 C 446.908 644.227, 447.318 644.220, 453.134 642.459 L 459.263 640.604 461.631 643.358 C 464.319 646.482, 464.834 645.635, 462.378 642.129 C 460.693 639.724, 459.431 639.664, 450.248 641.557 C 448.005 642.020, 446.233 641.727, 444.533 640.614 C 441.751 638.791, 441.411 638.762, 438.158 640.065 M 500.667 640.667 C 498.397 642.936, 500.765 643.645, 503.559 641.532 C 505.466 640.089, 505.464 640.063, 503.417 640.032 C 502.271 640.014, 501.033 640.300, 500.667 640.667 M 541.808 643.023 C 544.728 643.448, 548.038 644.629, 549.164 645.648 C 550.712 647.048, 552.787 647.500, 557.669 647.500 C 563.401 647.500, 563.819 647.374, 561.389 646.379 C 559.547 645.624, 557.540 645.564, 555.253 646.196 C 552.252 647.024, 551.575 646.833, 549.475 644.567 C 547.457 642.390, 546.290 642.019, 541.798 642.125 L 536.500 642.250 541.808 643.023 M 493 645.169 C 494.925 645.713, 497.688 647.284, 499.140 648.661 C 500.639 650.082, 502.045 650.736, 502.393 650.173 C 503.571 648.267, 497.094 643.994, 493.173 644.090 L 489.500 644.180 493 645.169 M 408.500 646.440 C 413.119 648.207, 416.825 648.397, 420.367 647.050 C 421.908 646.465, 424.136 646.452, 426.182 647.018 C 429.298 647.880, 429.378 647.841, 427.500 646.392 C 426.045 645.268, 424.410 645.035, 421.500 645.533 C 416.383 646.411, 413.466 646.422, 408.500 645.585 L 404.500 644.910 408.500 646.440 M 391.750 647.572 C 387.425 649.918, 387.858 654.591, 392.519 655.878 C 402.332 658.587, 409.683 650.784, 400.322 647.594 C 394.765 645.701, 395.197 645.702, 391.750 647.572 M 391.571 649.571 C 388.165 652.977, 391.070 655.412, 397.405 654.462 C 403.907 653.487, 405.258 651.424, 400.654 649.500 C 396.065 647.583, 393.540 647.602, 391.571 649.571 M 446.360 649.551 C 450.134 650.301, 454.335 651.645, 455.697 652.537 C 457.059 653.430, 458.399 653.935, 458.674 653.660 C 460.422 651.911, 449.628 647.950, 443.507 648.094 C 440.050 648.175, 440.442 648.375, 446.360 649.551 M 488 649.500 C 486.446 651.372, 487.725 651.372, 491 649.500 C 493.355 648.154, 493.377 648.069, 491.372 648.035 C 490.202 648.016, 488.685 648.675, 488 649.500 M 523 650.955 C 523.825 651.513, 526.168 651.976, 528.206 651.985 C 531.759 651.999, 556.789 656.892, 563.934 658.968 C 567.212 659.920, 569.798 659.569, 566.893 658.566 C 555.523 654.639, 519.111 648.326, 523 650.955 M 363.250 654.967 C 356.984 660.795, 356.834 660.649, 371.070 662.560 C 375.393 663.140, 375.813 662.977, 378.820 659.552 C 383.374 654.365, 383.001 653.373, 376.250 652.732 C 373.087 652.431, 369.825 651.922, 369 651.600 C 368.083 651.241, 365.849 652.549, 363.250 654.967 M 476 652.948 C 474.856 653.727, 475.415 653.973, 478.349 653.985 C 481.354 653.997, 482.834 654.681, 485.099 657.106 C 487.581 659.763, 488 659.930, 488 658.261 C 488 654.168, 479.644 650.468, 476 652.948 M 364.115 656.381 L 360.871 659.729 368.165 660.448 C 375.301 661.151, 375.512 661.106, 377.862 658.374 L 380.265 655.581 377.882 654.951 C 369.375 652.702, 367.491 652.898, 364.115 656.381 M 763.500 655.175 C 762.400 655.787, 749.800 663.139, 735.500 671.512 C 721.200 679.886, 694.763 695.164, 676.750 705.465 L 644 724.194 644 734.212 L 644 744.230 646.250 742.776 C 647.487 741.976, 662.675 733.081, 680 723.010 C 697.325 712.939, 719.600 699.890, 729.500 694.012 C 739.400 688.135, 751.663 680.947, 756.750 678.039 L 766 672.751 766 668.015 C 766 665.410, 766.286 661.191, 766.636 658.640 C 767.298 653.812, 766.845 653.312, 763.500 655.175 M 417.500 658.177 C 420.250 658.654, 426.026 659.146, 430.336 659.272 C 437.507 659.481, 438.373 659.733, 440.538 662.250 C 443.312 665.475, 444.521 665.843, 443 663 C 440.628 658.568, 437.419 657.600, 424.614 657.451 C 414.925 657.339, 413.501 657.484, 417.500 658.177 M 473.459 658.067 C 472.295 659.950, 473.743 660.200, 476.662 658.618 L 479.500 657.080 476.809 657.040 C 475.329 657.018, 473.821 657.480, 473.459 658.067 M 461 661.552 L 458.500 663.114 461.085 662.579 C 464.602 661.852, 469.808 663.477, 472.768 666.226 C 474.978 668.278, 475.181 668.315, 474.858 666.606 C 473.989 662.009, 465.325 658.849, 461 661.552 M 546.423 664.496 C 554.080 666.451, 560.798 667.901, 561.352 667.716 C 562.830 667.223, 543.219 662.105, 537.445 661.477 C 534.725 661.182, 538.765 662.540, 546.423 664.496 M 499 663.948 C 497.901 664.696, 499.129 664.973, 503.587 664.985 C 509.272 664.999, 532.458 668.803, 539.750 670.918 C 541.538 671.436, 543 671.656, 543 671.405 C 543 668.724, 502.154 661.801, 499 663.948 M 372 669.196 C 363.475 669.689, 350.769 669.880, 343.764 669.620 C 336.462 669.349, 330.783 669.542, 330.455 670.073 C 330.125 670.607, 332.984 671.042, 337.191 671.099 C 341.211 671.153, 346.975 671.574, 350 672.033 C 353.812 672.612, 351.618 672.713, 342.853 672.363 C 335.576 672.073, 329.963 672.251, 329.633 672.784 C 328.876 674.010, 345.254 674.948, 359.345 674.484 L 370.500 674.117 360.500 675.108 C 355 675.653, 345.663 675.883, 339.750 675.619 C 333.837 675.355, 329 675.509, 329 675.961 C 329 676.413, 337.438 677.046, 347.750 677.367 C 385.329 678.539, 413.691 680.088, 422 681.424 C 438.664 684.102, 438.920 684.104, 431.228 681.497 C 422.926 678.682, 415.912 677.426, 397.500 675.455 L 384.500 674.063 396 674.526 C 412.617 675.196, 430.351 678.928, 443.500 684.523 C 445.247 685.267, 445.335 685.171, 444.195 683.769 C 442.673 681.896, 431.010 677.482, 420.700 674.876 C 414.347 673.271, 414.088 673.122, 418.500 673.608 C 423.885 674.202, 435.663 677.855, 442.360 681.009 L 446.500 682.959 444.010 680.874 C 437.176 675.155, 423.492 670.654, 408 669.030 C 397.321 667.911, 393.938 667.927, 372 669.196 M 607.677 672.713 C 607.389 673.180, 601.048 677.374, 593.587 682.031 C 581.398 689.641, 577.616 693.003, 581.250 692.998 C 581.938 692.998, 587.253 690.141, 593.062 686.651 C 609.751 676.624, 613 674.776, 613 675.313 C 613 675.590, 611.007 677.077, 608.571 678.618 C 606.135 680.160, 604.358 681.771, 604.623 682.199 C 604.887 682.627, 604.332 682.681, 603.388 682.319 C 602.273 681.891, 601.910 682.046, 602.352 682.761 C 602.726 683.366, 602.506 684.187, 601.862 684.585 C 601.088 685.063, 600.960 684.873, 601.485 684.025 C 602.523 682.344, 602.064 682.559, 591.217 688.825 C 586.148 691.754, 582 694.600, 582 695.149 C 582 695.698, 584.587 694.696, 587.750 692.923 C 594.529 689.123, 593.682 690.434, 586.519 694.829 C 582.571 697.252, 581.897 698.023, 583.268 698.549 C 584.439 698.999, 587.988 697.253, 594.249 693.149 C 599.337 689.813, 607.237 684.765, 611.805 681.930 C 616.373 679.096, 619.972 676.638, 619.802 676.469 C 619.632 676.299, 617.695 675.510, 615.497 674.715 C 613.299 673.920, 610.758 672.953, 609.851 672.567 C 608.944 672.180, 607.966 672.246, 607.677 672.713 M 473.500 675.036 C 465.424 676.299, 454.954 679.540, 452.500 681.536 L 450.500 683.163 452.500 682.423 C 459.555 679.810, 472.437 678.045, 483.500 678.175 L 495.500 678.316 482 679.015 C 468.696 679.704, 457.936 681.344, 455 683.129 C 453.987 683.745, 454.637 683.879, 457 683.542 C 458.925 683.268, 464.100 682.532, 468.500 681.907 C 473.516 681.195, 481.350 681.027, 489.500 681.457 C 510.255 682.551, 511.217 683.703, 491 683.253 C 480.825 683.027, 469.350 683.235, 465.500 683.717 C 458.863 684.546, 459.381 684.631, 475.500 685.341 C 484.850 685.753, 496.550 686.551, 501.500 687.114 C 509.668 688.043, 573.137 698.257, 578.925 699.574 C 580.926 700.029, 581.145 699.880, 580.179 698.716 C 579.536 697.941, 574.203 696.251, 568.328 694.962 C 562.453 693.673, 558.110 692.463, 558.677 692.274 C 559.245 692.085, 563.820 692.846, 568.844 693.965 C 579.431 696.323, 579.310 696.310, 578.500 695 C 578.160 694.450, 576.896 693.955, 575.691 693.900 C 573.661 693.808, 573.684 693.745, 576 693.041 L 578.500 692.281 575.685 691.140 C 574.137 690.513, 572.169 690, 571.312 690 C 570.455 690, 560.365 687.501, 548.890 684.447 C 513.906 675.137, 491.079 672.287, 473.500 675.036 M 550.083 674.416 C 550.313 674.645, 555.642 676.210, 561.927 677.893 C 568.212 679.577, 572.937 680.565, 572.427 680.088 C 570.538 678.322, 548.356 672.691, 550.083 674.416 M 324.053 679.436 C 322.472 681.341, 331.243 682.041, 411.430 686.412 C 432.087 687.538, 436.560 688.046, 437.532 689.375 C 440.996 694.112, 451.445 695.312, 456.946 691.605 L 460.500 689.210 491 693.117 C 507.775 695.266, 535 698.820, 551.500 701.014 C 568 703.209, 582.589 705.004, 583.921 705.002 C 587.424 704.999, 628.193 678.599, 625.326 678.190 C 623.399 677.916, 592.135 697.018, 586.772 701.746 C 585.580 702.798, 583.877 703.097, 581.272 702.713 C 579.198 702.408, 568.950 700.807, 558.500 699.158 C 535.013 695.450, 512.706 692.641, 486 690.030 C 474.725 688.927, 463.700 687.822, 461.500 687.574 C 458.361 687.220, 456.999 687.593, 455.169 689.311 C 452.197 692.103, 445.123 692.326, 442.243 689.720 C 439.469 687.210, 435.580 686.282, 422.732 685.066 C 413.526 684.195, 349.866 680.489, 333 679.843 C 330.525 679.748, 327.760 679.304, 326.855 678.856 C 325.808 678.338, 324.789 678.549, 324.053 679.436 M 531.083 684.416 C 531.807 685.137, 548.212 689.122, 548.651 688.682 C 548.881 688.452, 545.246 687.304, 540.571 686.132 C 531.921 683.962, 530.342 683.676, 531.083 684.416 M 743.750 690.021 L 739 693.004 739 774.541 L 739 856.078 745.114 852.789 L 751.229 849.500 750.616 819 C 750.279 802.225, 750.003 765.663, 750.002 737.750 C 750.001 709.837, 749.663 687.009, 749.250 687.019 C 748.837 687.029, 746.362 688.380, 743.750 690.021 M 241.307 701.562 C 241.669 706.687, 242.464 710.856, 243.214 711.553 C 244.010 712.295, 254.780 713.573, 271.500 714.911 C 325.985 719.271, 383.826 723.945, 396 724.972 C 402.875 725.552, 436.175 728.267, 470 731.006 C 503.825 733.744, 541.850 736.892, 554.500 738 C 575.237 739.817, 639.401 744.993, 641.250 744.998 C 641.663 744.999, 642 740.520, 642 735.045 L 642 725.091 638.750 724.578 C 636.962 724.297, 617.050 722.672, 594.500 720.967 C 571.950 719.262, 536.850 716.541, 516.500 714.920 C 496.150 713.298, 459.700 710.417, 435.500 708.516 C 310.158 698.673, 253.683 694.153, 246.593 693.397 L 240.687 692.767 241.307 701.562 M 731 697.413 C 727.154 699.936, 688.996 722.408, 665.750 735.841 L 651 744.364 651 757.266 C 651 764.739, 651.389 770.026, 651.925 769.833 C 652.433 769.650, 671.770 758.925, 694.896 746 L 736.943 722.500 736.971 708.750 C 737.003 693.575, 736.964 693.501, 731 697.413 M 254 749.883 L 254 783 258.500 783 L 263 783 263 750.500 L 263 718 260.750 717.986 C 259.512 717.979, 257.488 717.701, 256.250 717.370 L 254 716.767 254 749.883 M 267 797.862 L 267 877.674 277.750 878.838 C 283.663 879.479, 289.288 880.002, 290.250 880.001 C 291.902 880, 292 875.528, 292 800.093 L 292 720.187 282.250 719.560 C 276.887 719.216, 271.262 718.735, 269.750 718.492 L 267 718.050 267 797.862 M 295 736.852 C 295 751.563, 295.156 753, 296.750 753.004 C 297.712 753.006, 305.700 753.664, 314.500 754.466 C 323.300 755.268, 347.825 757.305, 369 758.994 C 435.539 764.299, 504.605 769.908, 529 771.989 C 554.099 774.131, 601.283 778, 602.295 778 C 602.630 778, 603.038 770.818, 603.202 762.039 L 603.500 746.079 598.500 745.515 C 591.198 744.692, 512.855 738.251, 355 725.495 C 331.075 723.562, 307.788 721.693, 303.250 721.342 L 295 720.705 295 736.852 M 725.750 732.804 L 716 738.402 715.763 780.951 C 715.633 804.353, 715.521 830.463, 715.513 838.973 L 715.500 854.446 719.500 855.097 C 721.700 855.455, 726.538 855.977, 730.250 856.259 L 737 856.770 737 791.885 C 737 756.198, 736.663 727.046, 736.250 727.103 C 735.837 727.159, 731.112 729.725, 725.750 732.804 M 687 754.442 L 663.500 767.740 663.194 772.410 L 662.887 777.081 668.694 773.804 C 671.887 772.002, 682.825 765.959, 693 760.376 L 711.500 750.225 711.805 745.613 C 711.972 743.076, 711.747 741.032, 711.305 741.072 C 710.862 741.111, 699.925 747.128, 687 754.442 M 606.815 826.662 C 606.988 871.102, 607.299 907.633, 607.507 907.841 C 607.802 908.135, 627.774 910.756, 631.250 910.957 C 631.663 910.981, 632 874.371, 632 829.601 L 632 748.203 624.750 747.573 C 620.763 747.226, 615.025 746.699, 612 746.402 L 606.500 745.861 606.815 826.662 M 645.500 747.610 C 644.088 748.702, 642.250 748.992, 639.250 748.597 L 635 748.038 634.956 795.769 C 634.931 822.021, 634.666 858.513, 634.367 876.863 C 634.011 898.667, 634.165 910.100, 634.812 909.863 C 635.356 909.663, 638.532 907.925, 641.871 906 L 647.941 902.500 647.970 824.250 C 647.987 781.212, 647.888 746.014, 647.750 746.032 C 647.612 746.049, 646.600 746.760, 645.500 747.610 M 706.250 757.175 L 703 759.184 703 799.467 L 703 839.750 706.125 840.375 C 707.844 840.719, 709.869 841, 710.625 841 C 711.770 841, 712 833.818, 712 798 C 712 751.216, 712.311 753.428, 706.250 757.175 M 294 817.381 C 294 851.272, 294.216 879, 294.481 879 C 294.746 879, 297.896 877.553, 301.481 875.785 L 308 872.571 308 819.404 L 308 766.237 304.750 763.809 C 302.962 762.474, 299.813 760.117, 297.750 758.572 L 294 755.763 294 817.381 M 312 770.538 L 312 783 344.036 783 L 376.072 783 375.786 773.276 L 375.500 763.551 350 761.370 C 335.975 760.170, 321.688 758.938, 318.250 758.632 L 312 758.075 312 770.538 M 379.429 798.809 L 379.358 833.861 383.929 834.404 C 386.443 834.703, 390.750 835.072, 393.500 835.224 L 398.500 835.500 398.763 800.250 L 399.026 765 396.664 765 C 395.365 765, 390.971 764.720, 386.901 764.378 L 379.500 763.756 379.429 798.809 M 400.998 800.250 C 400.999 819.362, 401.171 835, 401.379 835 C 401.588 835, 404.288 833.842, 407.379 832.427 L 413 829.853 413 798.016 L 413 766.178 406.998 765.839 L 400.996 765.500 400.998 800.250 M 417 775 L 417 783 420.421 783 C 424.185 783, 424.228 782.911, 425.541 772.250 L 426.188 767 421.594 767 L 417 767 417 775 M 430.655 769.457 C 430.295 770.396, 430 774.902, 430 779.472 L 430 787.781 437.750 789.860 C 457.424 795.138, 492.206 797.305, 507.454 794.204 C 514.934 792.682, 514.628 793.117, 515.360 782.987 L 515.975 774.473 480.238 771.649 C 460.582 770.096, 441.532 768.584, 437.905 768.288 C 432.301 767.832, 431.211 768.008, 430.655 769.457 M 655.250 772.566 C 649.939 775.749, 649.869 777, 655 777 C 657.200 777, 659.337 777.112, 659.750 777.250 C 660.163 777.388, 660.640 775.813, 660.810 773.750 C 661.177 769.315, 660.806 769.236, 655.250 772.566 M 528.799 781.250 C 528.536 788.082, 528.892 798.226, 529.412 798.745 C 530.507 799.840, 545.619 803.067, 554.500 804.103 C 564.708 805.294, 599.724 804.907, 601.872 803.579 C 602.592 803.134, 603 799.130, 603 792.502 L 603 782.123 598.750 781.542 C 593.925 780.883, 534.317 776, 531.100 776 C 529.259 776, 528.975 776.647, 528.799 781.250 M 667.250 778.566 L 663 781.113 663 823.557 C 663 846.901, 663.213 866, 663.473 866 C 663.734 866, 665.984 865.010, 668.473 863.801 L 673 861.601 673 818.801 C 673 795.260, 672.663 776.004, 672.250 776.009 C 671.837 776.015, 669.587 777.165, 667.250 778.566 M 652 822.875 L 652 866 656.500 866 L 661 866 661 823.500 C 661 788.106, 660.770 781, 659.625 781 C 658.869 781, 656.844 780.719, 655.125 780.375 L 652 779.750 652 822.875 M 430 797.169 C 430 811.323, 433.752 834.604, 437.090 841.166 C 446.523 859.709, 505.576 856.776, 514.175 837.337 C 516.110 832.962, 516.161 831.974, 515.111 819.072 C 514.500 811.571, 514 803.170, 514 800.404 L 514 795.376 506.750 796.648 C 487.558 800.016, 447.534 796.724, 431.750 790.478 C 430.179 789.857, 430 790.540, 430 797.169 M 529.351 810.804 C 530.116 822.293, 532.420 837.189, 534.702 845.387 C 536.807 852.949, 541.486 857.917, 549.500 861.094 C 557.535 864.281, 587.693 864.677, 597.250 861.722 L 603 859.944 603 832.930 L 603 805.917 595.250 806.708 C 576.176 808.657, 547.306 806.727, 533.603 802.587 L 528.706 801.107 529.351 810.804" stroke="none" fill="#1a1a1a" fill-rule="evenodd"/>
</svg>