<svg xmlns="http://www.w3.org/2000/svg" width="1024" height="1024" viewBox="0 0 1024 1024" version="1.1">
	<path d="M 452 74.539 C 451.175 74.708, 446.113 75.627, 440.750 76.580 C 435.387 77.534, 431 78.591, 431 78.929 C 431 79.267, 435.837 81.938, 441.750 84.863 C 452.768 90.315, 475.590 103.528, 476.482 104.971 C 476.756 105.414, 474.654 106.537, 471.811 107.467 C 443.627 116.685, 417.598 141.064, 408.399 166.856 C 406.900 171.060, 404.756 175.525, 403.636 176.779 L 401.598 179.057 399.810 168.437 C 395.091 140.410, 378.140 105.443, 366.540 99.807 C 359.699 96.483, 355.575 98.155, 345.432 108.362 C 327.412 126.497, 311.462 157.807, 304.450 188.812 C 294.470 232.941, 303.517 278.793, 327.078 303.500 L 332.800 309.500 332.013 314.500 C 327.480 343.289, 331.662 388.663, 341.690 419.500 C 355.211 461.079, 386.054 490.282, 433.750 506.666 C 438.287 508.225, 441.999 509.778, 442 510.118 C 442 510.457, 439.933 513.818, 437.407 517.585 C 417.723 546.939, 413.428 579.940, 425.412 609.762 L 428.923 618.500 426.100 620.714 C 422.510 623.530, 420.159 629.050, 415.119 646.500 C 410.503 662.481, 401.435 698.428, 400.423 704.759 L 399.744 709 322.219 709 L 244.694 709 245.343 697.750 C 245.699 691.563, 245.993 643.862, 245.995 591.750 L 246 497 256.845 497 L 267.690 497 268.345 483.342 C 268.705 475.830, 268.999 466.942, 268.999 463.592 L 268.997 457.500 283.249 458.109 C 291.087 458.444, 297.783 458.563, 298.129 458.375 C 299.379 457.693, 301.223 434.911, 300.543 428.557 C 299.767 421.313, 299.972 421.476, 290.500 420.570 C 287.200 420.254, 278.200 419.329, 270.500 418.513 C 229.093 414.128, 140.781 405, 139.755 405 C 139.340 405, 139 405.647, 139 406.439 C 139 408.180, 139.107 408.196, 176.500 412.024 C 192.450 413.657, 218.550 416.368, 234.500 418.049 C 250.450 419.729, 270.925 421.873, 280 422.811 L 296.500 424.518 296.473 439.203 C 296.458 447.279, 296.167 454.166, 295.826 454.507 C 295.485 454.849, 281.097 454.411, 263.853 453.534 C 246.609 452.658, 214.725 451.069, 193 450.003 C 171.275 448.938, 149.563 447.792, 144.750 447.458 C 136.557 446.889, 136 446.973, 136 448.783 C 136 450.547, 137.029 450.774, 147.750 451.376 C 165.468 452.370, 260.133 457, 262.732 457 L 265 457 265 475.349 L 265 493.698 209.250 494.367 C 144.626 495.143, 135 495.586, 135 497.786 C 135 499.117, 138.307 499.212, 162.500 498.581 L 190 497.864 190 603.432 L 190 709 166.500 709 C 146.278 709, 143 709.209, 143 710.500 C 143 711.791, 146.278 712, 166.500 712 L 190 712 190 731 L 190 750 167.582 750 C 155.252 750, 144.452 750.273, 143.582 750.607 C 138.851 752.422, 144.262 753, 166 753 L 190 753 190 778.843 L 190 804.686 207.614 805.350 L 225.229 806.015 235.364 800.734 L 245.500 795.454 245.438 774.227 L 245.376 753 310.862 753 L 376.349 753 374.337 755.250 C 373.231 756.487, 363.178 768.075, 351.998 781 C 340.817 793.925, 329.850 806.413, 327.626 808.750 L 323.584 813 232.351 813 C 172.930 813, 140.904 813.347, 140.503 813.995 C 140.098 814.651, 170.848 815.076, 230.844 815.245 L 321.800 815.500 312.277 826.500 C 307.039 832.550, 289.704 852.463, 273.754 870.750 L 244.754 904 203.377 904 C 176.459 904, 162 904.349, 162 905 C 162 905.779, 236.723 906.833, 241.250 906.118 C 242.915 905.855, 241.593 907.664, 232.310 918.348 C 219.296 933.325, 219.604 932.937, 220.231 933.564 C 220.534 933.868, 226.077 928.049, 232.549 920.633 C 239.020 913.218, 245.257 906.902, 246.408 906.599 C 247.558 906.295, 293.215 906.032, 347.868 906.014 L 447.235 905.981 456.629 908.991 C 468.344 912.743, 471.610 912.786, 476.610 909.250 L 480.500 906.500 521 906.219 L 561.500 905.937 562.500 908.170 C 563.110 909.532, 564.866 910.731, 567 911.242 C 568.925 911.704, 571.949 912.833, 573.719 913.752 C 576.826 915.363, 577.047 915.341, 580.048 913.123 C 581.758 911.858, 583.303 910.976, 583.482 911.162 C 583.661 911.348, 584.778 917.340, 585.964 924.477 C 587.151 931.615, 588.319 937.652, 588.561 937.894 C 589.829 939.162, 589.694 936.325, 587.946 924.982 C 585.624 909.915, 585.627 910, 587.492 910 C 588.312 910, 589.545 909.100, 590.232 908 C 591.471 906.016, 592.564 906, 730.241 906 C 822.080 906, 869 905.662, 869 905 C 869 904.338, 822.058 904, 730.174 904 L 591.349 904 589.174 901.686 C 587.978 900.413, 587 898.691, 587 897.860 C 587 897.029, 585.921 895.335, 584.602 894.096 C 582.824 892.425, 580.355 886, 581.492 886 C 581.572 886, 584.059 886.719, 587.019 887.598 C 589.979 888.477, 593.807 888.969, 595.525 888.690 C 599.170 888.098, 624.189 874.563, 637.376 866.048 C 642.394 862.808, 648.158 859.852, 650.185 859.479 C 655.304 858.538, 657.377 856.013, 656.476 851.817 C 655.487 847.212, 654.185 845, 652.465 845 C 651.412 845, 650.994 843.806, 650.978 840.750 C 650.966 838.413, 650.066 834.538, 648.978 832.141 C 647.668 829.255, 647 825.622, 647 821.391 L 647 815 715.842 815 L 784.684 815 801.161 829.750 C 810.223 837.863, 821.207 847.623, 825.569 851.440 C 829.931 855.257, 834.511 859.271, 835.746 860.361 C 836.981 861.450, 838.244 862.089, 838.552 861.781 C 838.861 861.473, 830.425 853.447, 819.806 843.947 C 809.188 834.446, 797.671 824.047, 794.213 820.837 L 787.927 815 829.463 815 C 856.488 815, 871 814.651, 871 814 C 871 813.349, 856.081 812.999, 828.250 812.996 L 785.500 812.992 767.388 796.746 C 757.426 787.811, 742.465 774.425, 734.140 767 L 719.004 753.500 795.502 753.244 C 845.343 753.077, 872 752.641, 872 751.994 C 872 751.344, 845.059 751, 794.149 751 L 716.297 751 695.231 732.539 C 683.645 722.385, 673.877 713.610, 673.524 713.039 C 673.082 712.324, 694.231 712, 741.258 712 L 809.634 712 824.865 719.067 C 843.901 727.900, 847.311 727.560, 829 718.655 L 815.500 712.090 828.750 712.045 C 839.841 712.007, 842 711.756, 842 710.500 C 842 709.176, 829.130 709, 732.173 709 L 622.347 709 619.030 694.250 C 614.703 675.010, 602.357 629.591, 600.453 625.908 C 599.636 624.328, 597.674 622.080, 596.094 620.912 L 593.222 618.788 596.103 612.432 C 602.136 599.127, 603.506 592.041, 603.436 574.500 C 603.378 559.992, 603.115 557.661, 600.619 549.505 C 597.170 538.232, 591.676 526.532, 585.638 517.597 C 583.072 513.800, 581.091 510.586, 581.236 510.453 C 581.381 510.320, 585.775 508.789, 591 507.052 C 630.372 493.956, 660.897 469.821, 676.093 439.770 C 691.032 410.229, 698.601 363.988, 695.072 323.819 L 693.870 310.138 699.685 303.181 C 732.619 263.780, 734.584 199.796, 704.622 142.424 C 690.242 114.889, 672.605 96.538, 662.368 98.459 C 657.850 99.306, 651.393 105.805, 645.926 115.009 C 641.576 122.330, 633.013 140.716, 633.005 142.750 C 632.996 145.006, 631.889 144.109, 622.715 134.415 C 593.338 103.374, 548.312 82.171, 497.699 75.545 C 487.514 74.212, 456.888 73.538, 452 74.539 M 450.750 79.735 C 444.953 80.192, 444.830 80.936, 450.145 83.390 C 455.983 86.084, 479.433 100.383, 484.181 104.143 L 488.181 107.311 478.051 110.626 C 441.323 122.642, 417.517 147.313, 408.558 182.644 C 407.701 186.024, 407 189.043, 407 189.353 C 407 190.021, 419.122 183.639, 430.793 176.826 C 440.994 170.872, 451.074 165.741, 451.579 166.246 C 451.786 166.453, 448.826 172.709, 445 180.149 C 434.797 199.991, 423.778 229.946, 425.184 234.019 C 426.269 237.162, 454.025 222.407, 476.956 206.497 C 486.007 200.217, 493.552 195.219, 493.723 195.390 C 493.894 195.561, 493.093 199.660, 491.944 204.500 C 487.038 225.156, 485.013 244.958, 486.442 258.299 L 487.165 265.052 492.832 261.857 C 517.649 247.867, 541.955 224.407, 561.590 195.493 L 567.500 186.790 567.772 205.395 C 567.922 215.628, 568.432 224, 568.905 224 C 570.635 224, 584.297 209.322, 588.620 202.819 C 596.203 191.413, 601.425 177.684, 603.536 163.607 C 604.379 157.990, 606 157.528, 606 162.905 C 606 166.440, 606.402 167.046, 610.250 169.309 C 612.587 170.683, 616.510 173.403, 618.968 175.353 C 621.425 177.303, 623.584 178.749, 623.766 178.567 C 624.052 178.281, 628.185 159.609, 629.693 151.791 C 630.384 148.207, 609.997 127.614, 596 117.758 C 556.719 90.099, 501.763 75.713, 450.750 79.735 M 356.500 105.846 C 347.463 111.383, 334.462 129.114, 324.493 149.500 C 299.385 200.843, 300.057 255.255, 326.283 294.500 C 333.529 305.342, 333.095 305.286, 335.636 295.713 C 336.862 291.095, 338.574 285.784, 339.442 283.909 L 341.018 280.500 340.570 283.571 C 340.323 285.261, 339.307 291.786, 338.311 298.071 C 335.726 314.387, 335.736 363.358, 338.328 380 C 343.725 414.651, 353.560 439.630, 369.157 458.305 L 371.500 461.111 371.500 455.730 C 371.500 451.194, 372.126 449.342, 375.493 443.925 C 379.078 438.156, 379.487 436.836, 379.493 431 L 379.500 424.500 375 424.520 C 372.525 424.531, 368.250 424.881, 365.500 425.297 C 360.860 426, 360.643 425.942, 362.481 424.498 C 363.570 423.642, 366.270 422.424, 368.481 421.791 C 370.691 421.157, 372.624 420.559, 372.775 420.461 C 372.926 420.363, 372.139 418.157, 371.025 415.559 C 369.911 412.960, 369 409.530, 369 407.937 C 369 406.329, 367.428 402.582, 365.471 399.521 C 356.502 385.501, 352.544 369.366, 353.235 349.641 C 353.488 342.413, 354.043 335.699, 354.467 334.719 C 355.157 333.124, 354.813 333.006, 351.157 333.591 C 348.913 333.950, 346.274 333.935, 345.293 333.559 C 344.101 333.101, 349.807 330.776, 362.505 326.546 C 401.150 313.672, 422.830 302.463, 438.147 287.438 C 446.099 279.638, 448.345 275.795, 448.430 269.841 C 448.508 264.440, 449.216 263.874, 451.512 267.377 C 456.038 274.286, 455.282 279.474, 448.471 288.245 L 443.909 294.120 448.723 299.388 C 476.673 329.969, 472.035 388.966, 439.326 418.938 C 432.860 424.864, 432.119 426.913, 436.417 426.985 C 436.921 426.993, 437.071 427.262, 436.750 427.583 C 436.430 427.904, 432.642 427.479, 428.334 426.640 C 415.210 424.084, 408.539 423.646, 407.206 425.252 C 404.102 428.992, 400.727 440.663, 400.623 448.016 C 400.525 454.957, 400.841 456.183, 404.752 464.016 C 409.258 473.044, 411.543 482.251, 410.479 487.096 C 409.843 489.992, 410.005 490.132, 418.665 494.141 C 476.234 520.792, 550.281 520.476, 608.127 493.332 L 617.754 488.814 618.219 481.157 C 618.611 474.690, 619.357 472.124, 623.018 464.642 C 629.346 451.714, 629.483 442.101, 623.526 429.250 C 620.678 423.106, 619.099 422.802, 603.881 425.468 C 588.367 428.186, 588.206 428.203, 590.743 426.875 C 592.923 425.734, 592.793 425.515, 586.123 419.100 C 568.308 401.966, 559.598 380.055, 559.647 352.500 C 559.687 330.151, 564.844 314.315, 576.954 299.348 L 581.873 293.269 578.503 290.003 C 570.975 282.707, 569.552 273.359, 574.978 266.847 L 576.933 264.500 576.976 269 C 577.145 286.832, 608.655 308.037, 661.745 326.045 C 683.123 333.297, 684.326 333.929, 676.820 333.970 L 671.140 334 672.116 337.250 C 673.956 343.379, 673.366 364.774, 671.093 374.346 C 668.989 383.202, 663.836 395.613, 660.059 400.916 C 658.762 402.739, 657.987 405.416, 657.965 408.154 C 657.945 410.544, 657.286 413.625, 656.500 415 C 654.072 419.247, 654.657 420.481, 660.004 422.404 C 665.191 424.270, 668.375 426.902, 663.906 425.630 C 662.583 425.254, 658.394 424.662, 654.597 424.315 L 647.694 423.684 648.260 429.932 C 648.704 434.829, 649.652 437.511, 652.646 442.340 C 655.124 446.335, 656.648 450.155, 656.983 453.210 L 657.500 457.919 661.790 452.210 C 675.290 434.241, 685.774 402.498, 689.065 369.629 C 691.323 347.069, 689.551 306.137, 685.400 285 C 684.101 278.386, 686.286 282.962, 689.510 293.609 L 692.739 304.268 696.937 298.585 C 705.919 286.427, 712.168 272.410, 716.794 254.044 C 720.495 239.350, 720.681 211.370, 717.189 194.664 C 710.360 161.995, 694.027 128.931, 676.260 111.809 C 668.249 104.089, 665.083 102.810, 661.163 105.709 C 650.298 113.743, 636.193 144.974, 628.616 177.772 C 627.190 183.947, 627.205 184.090, 629.583 186.917 C 633.748 191.867, 632.308 191.220, 621.879 183.459 C 616.313 179.316, 610.529 175.291, 609.027 174.514 L 606.296 173.101 605.058 178.630 C 600.980 196.852, 586.720 218.012, 571.805 227.972 C 562.405 234.249, 562.587 234.484, 563.305 217 C 563.643 208.750, 563.788 202, 563.625 202 C 563.463 202, 560.373 205.959, 556.760 210.798 C 542.333 230.118, 525.323 246.915, 508.876 258.084 C 502.158 262.646, 486.366 271, 484.460 271 C 482.751 271, 480.999 258.728, 481.006 246.807 C 481.012 236.055, 482.891 221.403, 485.468 212 C 486.298 208.975, 486.982 206.136, 486.988 205.692 C 486.995 205.247, 484.413 206.859, 481.250 209.274 C 461.034 224.710, 435.857 238.149, 422.640 240.560 L 418.780 241.264 419.467 236.882 C 421.957 220.992, 427.826 203.342, 436.135 186.750 C 438.821 181.387, 440.797 177, 440.527 177 C 440.256 177, 437.099 178.797, 433.511 180.993 C 426.687 185.170, 412.266 192.612, 405.611 195.390 L 401.722 197.014 402.405 190.351 L 403.088 183.687 398.626 187.344 C 393.018 191.938, 391.896 192.022, 395.820 187.552 L 398.847 184.105 397.411 177.802 C 388.716 139.640, 371.045 103.975, 360.846 104.004 C 360.106 104.006, 358.150 104.835, 356.500 105.846 M 338.579 151.466 C 327.116 178.899, 325.208 217.778, 334.173 241.226 C 336.973 248.550, 344.975 261, 346.882 261 C 347.369 261, 348.787 258.489, 350.032 255.420 C 352.926 248.291, 364.633 227.819, 371.650 217.619 C 374.631 213.284, 376.908 209.575, 376.709 209.376 C 375.387 208.054, 358.075 232.804, 351.147 245.920 L 346.172 255.340 343.122 250.531 C 339.637 245.037, 335.601 233.404, 334.005 224.259 C 331.234 208.382, 333.394 176.303, 338.527 157.098 C 341.010 147.809, 341.030 145.599, 338.579 151.466 M 685.421 149.500 C 690.587 163.943, 693.333 182.344, 693.330 202.500 C 693.327 225.259, 690.812 236.798, 682.792 250.851 L 679.738 256.201 674.086 245.351 C 667.696 233.081, 662.740 225.509, 654.610 215.590 C 647.125 206.458, 647.536 207.707, 656.509 221.352 C 663.967 232.694, 673.039 249.382, 676.430 258 L 678.201 262.500 682.212 258 C 687.660 251.886, 692.606 241.720, 695.236 231.227 C 698.137 219.655, 698.372 192.206, 695.685 178.759 C 693.804 169.345, 687.510 150.135, 685.770 148.500 C 685.028 147.803, 684.922 148.106, 685.421 149.500 M 455.854 262.664 C 458.842 268.591, 460.049 274.849, 459.055 279.256 C 457.990 283.977, 459.114 284.082, 461.315 279.466 C 464.273 273.262, 462.514 266.551, 456.474 261 L 453.754 258.500 455.854 262.664 M 567.670 262.189 C 562.680 268.730, 561.971 273.116, 564.868 279.500 L 566.684 283.500 566.658 276.500 C 566.639 271.405, 567.230 268.165, 568.828 264.595 C 571.497 258.636, 571.064 257.738, 567.670 262.189 M 438.432 298.075 C 428.854 308.659, 392.986 325.374, 367.632 331.069 C 363.305 332.041, 359.255 333.345, 358.632 333.967 C 357.875 334.725, 357.500 340.956, 357.500 352.800 C 357.500 372.527, 358.758 378.676, 365.510 391.957 C 370.362 401.501, 371.281 402.571, 372.925 400.590 C 375.216 397.830, 382.786 398.552, 387.900 402.018 C 392.599 405.202, 394.937 405.639, 398.129 403.931 C 400.035 402.911, 399.950 402.669, 396.288 398.681 C 381.752 382.849, 379.372 359.055, 390.181 337.642 C 402.432 313.373, 434.287 307.003, 454.950 324.689 L 459.326 328.435 458.596 325.467 C 456.716 317.828, 444.533 297.435, 441.127 296.226 C 440.702 296.075, 439.489 296.907, 438.432 298.075 M 581.186 300.441 C 577.100 305.095, 571.748 314.386, 569.143 321.347 C 566.353 328.804, 566.314 328.743, 571.213 324.550 C 592.262 306.532, 623.843 313.619, 636.427 339.185 C 646.542 359.733, 644.297 381.421, 630.270 398.681 C 626.997 402.709, 626.946 402.901, 628.871 403.931 C 632.017 405.615, 634.422 405.209, 638.610 402.286 C 642.395 399.646, 648.439 398.805, 654.372 400.093 C 658.788 401.052, 667.231 379.767, 668.905 363.455 C 669.940 353.377, 668.883 335.483, 667.151 333.751 C 666.700 333.300, 662.544 332.036, 657.915 330.942 C 632.882 325.026, 608.203 314.018, 591.006 301.096 C 584.437 296.161, 584.916 296.193, 581.186 300.441 M 414 320.935 C 400.325 325.110, 389.593 338.955, 389.532 352.500 C 389.390 383.754, 432.257 369.219, 433.770 337.500 C 434.412 324.031, 426.253 317.194, 414 320.935 M 598.346 322.054 C 584.739 330.771, 592.755 358.251, 611.500 367.150 C 635.401 378.497, 646.252 351.220, 626.316 329.907 C 617.726 320.723, 605.696 317.346, 598.346 322.054 M 437.195 372.489 C 432.514 376.428, 432.408 384, 437.034 384 C 443.282 384, 448.346 375.489, 444.429 371.571 C 442.250 369.393, 440.631 369.598, 437.195 372.489 M 582.571 371.571 C 578.707 375.435, 582.776 384, 588.476 384 C 594.324 384, 593.897 374.549, 587.909 371.453 C 584.437 369.657, 584.487 369.656, 582.571 371.571 M 499.665 385.507 C 494.275 386.989, 491.812 388.637, 496.500 387.626 C 502.354 386.364, 518.590 385.860, 524.703 386.752 C 532.023 387.819, 532.192 386.636, 524.942 385.081 C 518.248 383.645, 505.669 383.858, 499.665 385.507 M 498.773 395.555 C 493.463 396.842, 483 401.444, 483 402.492 C 483 402.744, 484.227 402.484, 485.727 401.914 C 491.993 399.531, 502.828 398.001, 513.315 398.017 C 523.028 398.032, 527.998 398.683, 540 401.511 C 541.375 401.835, 540.313 400.919, 537.639 399.475 C 528.110 394.327, 510.969 392.599, 498.773 395.555 M 433.448 402.456 C 428.700 404.742, 427.993 404.819, 421.701 403.742 C 413.804 402.389, 410.966 403.621, 415.355 406.497 C 419.953 409.510, 425.164 409.529, 431.651 406.558 C 435.770 404.672, 438.847 403.951, 442.053 404.121 C 447.982 404.434, 450.157 403.207, 446.885 401.393 C 443.311 399.412, 439.074 399.747, 433.448 402.456 M 579.136 401.073 C 575.134 402.676, 578.132 405.078, 582.596 403.846 C 586.381 402.801, 590.653 403.781, 596.985 407.147 C 601.582 409.591, 606.690 409.486, 610.998 406.860 L 614.496 404.728 612.050 403.823 C 610.705 403.325, 606.624 403.212, 602.981 403.571 C 597.384 404.122, 595.716 403.896, 592.219 402.112 C 587.848 399.882, 583.061 399.502, 579.136 401.073 M 373.557 404.223 C 371.517 407.135, 371.591 408.749, 374.037 414.634 L 376.073 419.535 383.315 419.169 C 387.356 418.965, 392.534 419.366, 395.029 420.076 L 399.500 421.349 396.500 422.056 C 394.850 422.445, 391.003 422.817, 387.952 422.882 L 382.404 423 382.452 430.828 C 382.498 438.342, 382.339 438.894, 378.500 444.578 C 373.836 451.482, 372.909 460.161, 376.285 465.313 C 379.812 470.695, 403.365 488, 407.165 488 C 409.666 488, 407.017 475.677, 402.517 466.381 C 395.743 452.386, 395.609 443.439, 401.963 429.500 C 406.706 419.094, 408.772 418.532, 427.239 422.622 C 429.629 423.152, 430.933 422.302, 437.489 415.945 C 441.620 411.940, 445 408.288, 445 407.831 C 445 406.040, 436.735 407.101, 432 409.500 C 424.450 413.326, 417.166 412.499, 411.097 407.127 C 408.269 404.624, 404.622 404.424, 399.654 406.500 C 394.488 408.659, 392.073 408.373, 387 405 C 381.364 401.253, 375.859 400.935, 373.557 404.223 M 640 405 C 635.067 408.279, 631.822 408.685, 628 406.500 C 623.967 404.195, 620.192 404.759, 613.974 408.597 C 606.544 413.183, 603.119 413.273, 594.101 409.116 C 587.645 406.140, 581 405.415, 581 407.686 C 581 408.937, 587.540 416.309, 591.604 419.639 L 596.032 423.267 604.266 421.633 C 618.940 418.720, 621.641 419.384, 625.413 426.829 C 632.620 441.051, 632.790 451.921, 626.015 465.470 C 622.481 472.538, 621.488 475.676, 621.161 480.812 L 620.750 487.269 624.858 484.960 C 631.518 481.217, 645.234 470.555, 649.897 465.496 C 654.165 460.866, 654.216 460.726, 653.829 454.650 C 653.519 449.785, 652.782 447.543, 650.313 443.954 C 646.440 438.326, 644.658 431.982, 645.519 426.887 L 646.176 423 640.338 422.882 C 637.127 422.817, 633.150 422.438, 631.500 422.041 L 628.500 421.319 631.500 420.067 C 633.411 419.269, 637.495 418.965, 642.748 419.228 L 650.995 419.641 652.998 415.505 C 658.442 404.259, 650.622 397.939, 640 405 M 484.663 418.670 C 482.184 421.149, 485.615 427.365, 490.008 428.353 C 494.360 429.331, 495.767 427.448, 492.101 425.552 C 490.347 424.645, 488.105 422.576, 487.119 420.955 C 486.133 419.334, 485.028 418.306, 484.663 418.670 M 538.161 420.546 C 537.523 421.947, 535.653 423.859, 534.007 424.796 C 530.661 426.700, 530.307 427.520, 532.472 428.351 C 535.136 429.373, 539.760 426.994, 541.019 423.953 C 543.116 418.893, 540.393 415.648, 538.161 420.546 M 502.500 457.405 C 491.050 460.234, 481.770 466.655, 475.943 475.780 L 473.210 480.060 471.137 477.280 C 468.829 474.186, 468.225 475.832, 469.977 480.440 C 471.137 483.491, 477.013 486.599, 479.659 485.563 C 481.250 484.940, 481.050 484.607, 478.190 483.114 L 474.880 481.386 479.880 476.709 C 500.635 457.295, 524.441 457.318, 545.399 476.771 C 550.880 481.858, 550.836 481.639, 546.750 483.377 C 544.049 484.526, 543.796 484.883, 545.252 485.488 C 549.850 487.398, 556.003 482.966, 555.995 477.750 L 555.990 474.500 553.675 477.393 L 551.361 480.285 550.074 477.179 C 548.311 472.923, 540.095 464.914, 534.199 461.705 C 524.774 456.575, 512.564 454.919, 502.500 457.405 M 502.101 477.040 C 497.044 479.334, 497.020 480.428, 502.060 478.983 C 506.406 477.736, 519.495 477.708, 523.776 478.936 C 528.016 480.152, 527.036 478.331, 522.410 476.398 C 517.469 474.334, 507.362 474.653, 502.101 477.040 M 226.786 643.750 C 226.580 784.690, 226.647 799.981, 227.473 800.807 C 228.091 801.424, 242.519 793.558, 242.250 792.750 C 242.113 792.337, 242 725.625, 242 644.500 L 242 497 234.500 497 L 227 497 226.786 643.750 M 207.750 517.198 L 193 529.314 193 665.657 L 193 802 208.500 802 L 224 802 224 653.500 C 224 571.825, 223.662 505.019, 223.250 505.041 C 222.838 505.064, 215.863 510.535, 207.750 517.198 M 397.925 513.250 C 394.016 523.263, 393.602 529.642, 396.600 533.675 C 402.287 541.323, 412.032 535.549, 410.636 525.358 C 409.791 519.194, 404.118 505, 402.500 505 C 401.730 505, 399.755 508.562, 397.925 513.250 M 399.998 515.507 C 395.985 527.565, 397.060 534, 403.087 534 C 408.771 534, 409.380 527.148, 404.775 515.022 L 402.315 508.544 399.998 515.507 M 623.039 516.561 C 619.340 525.447, 618.226 532.717, 619.932 536.837 C 623.652 545.817, 636 541.895, 636 531.733 C 636 524.970, 629.964 509, 627.408 509 C 626.736 509, 624.770 512.402, 623.039 516.561 M 443.293 518.250 C 426.108 543.875, 420.357 574.550, 428.060 599.500 C 431.444 610.461, 435.916 619.754, 436.979 618.035 C 438.844 615.017, 439.108 607.483, 437.556 601.540 C 436.700 598.262, 436.047 593.537, 436.104 591.040 L 436.208 586.500 437.650 591.500 C 438.442 594.250, 439.928 598.792, 440.952 601.594 C 442.553 605.977, 442.683 607.850, 441.883 615.003 C 438.755 642.956, 430.634 678.041, 415.036 730.988 C 407.013 758.222, 407.105 759.648, 417.174 763.980 C 440.554 774.037, 485.973 768.722, 491.064 755.333 C 491.554 754.043, 493.098 732.629, 494.495 707.744 C 495.891 682.860, 497.512 657.630, 498.096 651.677 C 499.227 640.153, 498.977 638, 496.509 638 C 494.614 638, 483.262 632.821, 480.500 630.696 C 479.112 629.629, 481.103 629.954, 487 631.757 C 498.614 635.308, 523.386 635.555, 534.486 632.230 C 538.328 631.079, 541.635 630.302, 541.835 630.502 C 542.371 631.037, 533.133 635.528, 528.500 636.984 C 522.751 638.791, 522.888 638.175, 524.488 655.039 C 525.295 663.543, 526.880 689.145, 528.011 711.934 C 529.325 738.420, 530.506 754.260, 531.283 755.843 C 533.043 759.423, 539.422 764.228, 542.158 764.033 C 546.724 763.707, 560.525 764.094, 562.199 764.594 C 563.133 764.874, 564.176 765.979, 564.516 767.051 C 565.783 771.042, 593.278 768.947, 604.826 763.980 C 615.066 759.574, 615.092 758.695, 605.961 726.397 C 587.766 662.037, 577.920 612.111, 581.686 603.293 C 582.577 601.207, 584.069 596.621, 585.002 593.101 C 585.935 589.582, 586.968 587.140, 587.298 587.674 C 588.110 588.986, 586.496 599.556, 584.729 604.500 C 583.943 606.700, 583.433 608.950, 583.596 609.500 C 583.759 610.050, 584.414 612.525, 585.052 614.999 L 586.211 619.498 588.732 614.538 C 601.797 588.830, 600.860 554.419, 586.406 529.136 C 582.009 521.444, 576.536 513.018, 575.931 513.009 C 575.619 513.004, 576.579 519.638, 578.066 527.750 C 581.033 543.934, 582.414 553.748, 581.614 552.948 C 581.151 552.484, 573.856 527.841, 571.070 517.325 C 569.978 513.206, 569.920 513.163, 566.732 514.099 C 541.993 521.360, 490.136 521.607, 460.130 514.607 C 455.444 513.514, 453.787 513.443, 453.509 514.325 C 453.306 514.971, 450.794 523.600, 447.927 533.500 C 445.061 543.400, 442.493 551.725, 442.219 552 C 440.964 553.263, 446.289 521.351, 448.602 513.750 C 449.679 510.211, 447.374 512.165, 443.293 518.250 M 625.077 518.730 C 621.925 526.936, 621.318 533.310, 623.387 536.469 C 626.761 541.617, 633 538.083, 633 531.023 C 633 527.844, 629.002 514.669, 627.618 513.284 C 627.439 513.106, 626.296 515.556, 625.077 518.730 M 428.637 625.635 C 425.005 629.552, 410.720 681.718, 403.944 715.808 L 401.696 727.116 403.704 729.808 C 407.679 735.137, 408.129 734.358, 414.738 710.754 C 429.614 657.619, 436.393 627.384, 434.060 624.573 C 432.275 622.421, 431.472 622.579, 428.637 625.635 M 588.915 624.602 C 586.354 627.688, 596.314 671.143, 612.584 727.866 L 614.123 733.233 616.562 730.942 C 619.583 728.104, 619.644 725.357, 616.975 712.360 C 612.221 689.214, 598.521 635.575, 595.541 628.444 C 593.770 624.206, 590.715 622.434, 588.915 624.602 M 503.591 646.250 C 503.279 649.688, 502.563 662.400, 502 674.500 C 501.437 686.600, 500.744 699.313, 500.460 702.750 L 499.944 709 511.122 709 L 522.301 709 521.690 699.250 C 521.354 693.888, 520.523 678.362, 519.843 664.750 L 518.606 640 511.383 640 L 504.159 640 503.591 646.250 M 245 718.500 C 245 722.075, 245.338 724.977, 245.750 724.948 C 246.162 724.919, 252.125 722.018, 259 718.500 L 271.500 712.104 258.250 712.052 L 245 712 245 718.500 M 260.500 719.999 L 245.500 727.737 245.500 739.118 L 245.500 750.500 292 750.812 C 317.575 750.983, 347.608 750.821, 358.741 750.452 L 378.982 749.781 387.549 739.887 C 395.377 730.847, 396.152 729.572, 396.526 725.116 C 396.752 722.433, 397.353 718.385, 397.862 716.119 L 398.787 712 337.144 712.131 L 275.500 712.262 260.500 719.999 M 499.632 722.250 C 499.273 727.888, 498.697 736.663, 498.352 741.750 L 497.726 751 510.951 751 L 524.175 751 523.563 738.750 C 523.226 732.013, 522.698 723.237, 522.390 719.250 L 521.829 712 511.058 712 L 500.286 712 499.632 722.250 M 623.404 714.475 C 626.275 725.913, 624.747 733.528, 618.983 736.509 C 615.608 738.254, 615.545 738.600, 617.337 745.500 L 618.636 750.500 665.317 750.500 C 690.992 750.500, 711.999 750.404, 711.999 750.286 C 712 750.168, 704.919 743.868, 696.265 736.286 C 687.612 728.704, 677.880 720.138, 674.639 717.250 L 668.748 712 645.765 712 L 622.783 712 623.404 714.475 M 389.819 740.560 C 385.794 745.278, 382.345 749.573, 382.155 750.104 C 381.943 750.697, 385.951 750.960, 392.547 750.785 L 403.283 750.500 404.626 746 C 406.460 739.859, 406.496 739.980, 401.536 735.740 L 397.138 731.981 389.819 740.560 M 359.373 775.750 C 348.456 788.263, 336.654 801.786, 333.147 805.803 L 326.770 813.105 359.003 812.803 L 391.236 812.500 394.868 808.385 C 399.286 803.380, 401.458 802.767, 407.994 804.683 C 412.921 806.127, 413.155 806.099, 417.516 803.543 C 421.879 800.987, 426 801.191, 426 803.964 C 426 807.851, 434.596 809.477, 436.768 806 C 438.896 802.593, 446 804.346, 446 808.278 C 446 812.651, 446.824 813, 457.132 813 C 466.638 813, 467.087 812.902, 467.948 810.636 C 468.442 809.336, 469.556 808.001, 470.423 807.668 C 471.296 807.333, 472 805.909, 472 804.480 C 472 802.474, 472.781 801.572, 475.500 800.436 C 478.884 799.022, 479 798.795, 479 793.605 C 479 788.646, 479.266 788.034, 482.500 785.568 C 484.425 784.100, 486 782.262, 486 781.484 C 486 780.707, 486.837 779.622, 487.861 779.075 C 488.884 778.527, 491.314 776.486, 493.261 774.539 C 495.298 772.502, 497.797 770.998, 499.150 770.995 C 500.443 770.993, 504.200 769.879, 507.500 768.519 C 515.248 765.327, 516.955 765.381, 522.661 769 C 528.282 772.565, 527.661 772.504, 531.922 769.906 L 535.344 767.820 532.206 765.834 C 528.579 763.537, 525 758.222, 525 755.132 C 525 753.058, 524.620 753, 511.125 753 L 497.250 753 496.633 756.084 C 495.194 763.278, 486.694 769.354, 473.397 772.692 C 462.818 775.349, 434.297 775.039, 423.635 772.153 C 410.135 768.497, 403 762.861, 403 755.852 L 403 753 391.111 753 L 379.223 753 359.373 775.750 M 618.704 757.250 C 617.330 767.701, 599.441 775, 575.205 775 C 568.894 775, 568.669 775.080, 570.783 776.561 C 572.009 777.419, 573.681 779.417, 574.500 781 C 575.676 783.274, 576.777 783.944, 579.744 784.189 C 582.762 784.439, 583.563 784.942, 583.820 786.750 C 584.199 789.419, 584.031 789.386, 587.636 787.506 C 589.211 786.685, 591.545 786.010, 592.823 786.006 C 594.255 786.002, 596.496 784.497, 598.664 782.081 C 601.533 778.886, 603.079 778.039, 607.041 777.494 C 609.713 777.127, 612.427 776.190, 613.072 775.413 C 614.728 773.417, 617.937 773.664, 621.924 776.095 C 625.151 778.062, 625.791 778.109, 633.094 776.924 C 642.859 775.338, 644.868 776.387, 648.020 784.718 C 650.242 790.590, 650.325 796.058, 648.386 808.750 L 647.737 813 715.068 813 L 782.399 813 776.557 807.750 C 773.344 804.862, 758.291 791.385, 743.107 777.800 L 715.500 753.100 667.382 753.050 L 619.263 753 618.704 757.250 M 538.954 770.724 C 528.997 776.061, 526.525 776.219, 520.517 771.905 L 516.021 768.676 509.236 771.338 C 505.504 772.802, 501.471 774, 500.273 774 C 498.342 774, 494.002 777.899, 486.176 786.665 C 484.260 788.811, 484.262 788.835, 486.372 789.402 C 490.916 790.621, 492.932 790.031, 494.485 787.030 C 497.444 781.307, 503.855 780.385, 511.697 784.552 C 517.856 787.825, 518.181 788.185, 518.899 792.542 L 519.500 796.186 522.427 793.881 C 526.235 790.883, 538.221 790.956, 541.500 793.997 C 543.454 795.809, 543.565 795.796, 546.306 793.426 C 547.849 792.092, 550.349 791, 551.861 791 C 553.374 791, 556.125 789.883, 557.975 788.518 C 561.915 785.611, 563.462 786.321, 564.430 791.479 C 565.202 795.593, 567.395 796.509, 572.914 795.023 C 579.435 793.267, 582.600 787, 576.966 787 C 574.567 787, 573.506 786.278, 571.894 783.544 C 570.772 781.644, 568.987 779.813, 567.927 779.477 C 566.601 779.056, 566 777.950, 566 775.933 C 566 774.320, 565.543 773, 564.985 773 C 564.427 773, 563.190 771.763, 562.235 770.250 C 560.984 768.268, 559.663 767.490, 557.500 767.464 C 555.850 767.444, 552.904 767.150, 550.954 766.810 C 547.994 766.294, 546.014 766.940, 538.954 770.724 M 541.425 774.083 C 540.389 775.228, 538.040 776.792, 536.205 777.559 C 533.264 778.788, 532.907 779.339, 533.185 782.222 C 533.487 785.353, 533.732 785.529, 538.960 786.356 C 542.717 786.950, 544.990 786.863, 546.250 786.076 C 547.257 785.447, 548.466 785.170, 548.937 785.461 C 550.794 786.609, 554.323 782.423, 553.675 779.841 C 552.022 773.257, 545.112 770.009, 541.425 774.083 M 542.912 776.607 C 542.136 777.543, 540.038 778.921, 538.250 779.668 C 534.337 781.304, 534.091 782.734, 537.571 783.607 C 542.974 784.963, 553.477 782.171, 550.357 780.208 C 549.738 779.819, 549.062 778.600, 548.855 777.500 C 548.374 774.938, 544.748 774.393, 542.912 776.607 M 614.139 779.033 C 612.691 780.240, 610.290 781, 607.929 781 C 605.610 781, 603.566 781.634, 602.789 782.595 C 598.858 787.459, 596.852 789, 594.450 789 C 592.055 789, 581.870 793.841, 579.550 796.082 C 579.027 796.587, 577.853 797, 576.940 797 C 576.026 797, 573.543 798.178, 571.422 799.617 C 568.053 801.904, 566.872 802.163, 562.095 801.670 C 556.914 801.136, 556.424 801.288, 552.810 804.553 C 549.447 807.591, 548.349 808, 543.565 808 C 538.694 808, 537.920 808.303, 536.035 810.951 C 534.676 812.859, 532.266 814.413, 529.217 815.347 L 524.500 816.792 529.191 816.896 C 531.771 816.953, 534.195 816.493, 534.578 815.874 C 535.830 813.849, 545.572 815.608, 551.322 818.898 C 557.408 822.380, 561.718 823.024, 565.477 821.012 C 567.645 819.852, 569.302 819.816, 575.067 820.805 C 578.901 821.462, 583.093 822, 584.384 822 C 591.166 822, 595.346 829.418, 595.135 841.080 C 595.016 847.596, 595.441 850.769, 596.877 854.098 C 598.842 858.651, 598.571 878.512, 596.478 883.414 C 595.663 885.322, 596.319 885.014, 615.303 874.588 C 619.079 872.514, 619.100 872.469, 618.303 868 C 617.295 862.353, 617.379 848.330, 618.466 840.692 C 618.984 837.045, 618.810 829.888, 617.996 821.461 L 616.701 808.038 612.886 811.484 C 610.788 813.379, 606.693 816.096, 603.786 817.522 L 598.500 820.114 603 815.920 C 605.475 813.613, 609.584 809.794, 612.132 807.434 C 614.680 805.075, 619.934 801.548, 623.808 799.597 C 631.885 795.529, 632.535 794.830, 630.811 792.069 C 629.714 790.313, 629.940 789.637, 632.579 786.778 C 638.633 780.219, 638.878 779.648, 635.312 780.431 C 629.333 781.745, 624.193 781.283, 620.689 779.117 C 616.603 776.592, 617.063 776.598, 614.139 779.033 M 640 781.465 C 640 782.271, 638.628 784.493, 636.952 786.402 C 634.263 789.464, 634.056 790.117, 635.195 791.940 C 636.871 794.624, 635.545 796.838, 630.669 799.500 L 627.005 801.500 627.003 808.619 C 627.001 812.534, 627.707 819.734, 628.570 824.619 C 629.769 831.395, 629.985 836.818, 629.485 847.500 C 629.124 855.200, 629.211 862.504, 629.679 863.731 L 630.530 865.962 635.939 862.714 C 641.101 859.615, 641.401 859.203, 642.495 853.724 C 643.126 850.563, 644.411 847.420, 645.353 846.731 C 647.794 844.946, 647.676 837.554, 645.117 832 C 642.512 826.346, 642.472 820.717, 644.931 805.901 C 646.951 793.727, 646.652 789.095, 643.446 782.895 C 641.850 779.810, 640 779.042, 640 781.465 M 499.223 786.557 C 498 787.413, 497 788.753, 497 789.534 C 497 792.300, 492.845 793.982, 488.500 792.975 C 482.241 791.524, 482 791.634, 482 795.929 C 482 800.011, 480.409 802.418, 476.994 803.502 C 475.897 803.850, 475 804.944, 475 805.933 C 475 806.921, 474.055 808.932, 472.900 810.400 C 468.969 815.397, 470.839 818, 478.360 818 C 483.719 818, 485.908 818.607, 492.723 821.982 C 500.619 825.894, 500.943 825.961, 510.881 825.789 C 520.996 825.614, 521 825.613, 521.092 823.057 C 521.411 814.177, 521.192 814.602, 526.314 812.903 C 528.962 812.024, 532.424 809.887, 534.008 808.153 C 536.554 805.365, 537.509 805, 542.254 805 C 546.913 805, 548.040 804.589, 550.810 801.881 C 556.915 795.913, 554.075 791.417, 547.411 796.500 C 543.535 799.457, 543.208 799.499, 540.829 797.345 C 537.636 794.455, 526.957 794.581, 522.926 797.555 C 517.665 801.436, 515 799.932, 515 793.083 C 515 790.431, 514.353 789.706, 510.033 787.517 C 504.263 784.593, 502.278 784.416, 499.223 786.557 M 608.446 787.087 C 607.416 788.755, 609.733 790.667, 611.113 789.287 C 612.267 788.133, 611.545 786, 610 786 C 609.515 786, 608.816 786.489, 608.446 787.087 M 557.667 792.065 C 556.102 794.300, 556.532 797.977, 558.367 798.038 C 558.990 798.059, 561.281 798.333, 563.457 798.647 L 567.414 799.219 564.207 796.521 C 562.443 795.036, 561 792.962, 561 791.911 C 561 789.408, 559.479 789.479, 557.667 792.065 M 599.042 795.449 C 597.224 797.640, 599.500 800.197, 602.914 799.801 C 604.926 799.567, 605.500 798.945, 605.500 797 C 605.500 793.987, 601.127 792.937, 599.042 795.449 M 593.571 802.571 C 590.374 805.769, 592.326 810, 597 810 C 600.144 810, 602 808.330, 602 805.500 C 602 801.222, 596.747 799.396, 593.571 802.571 M 498.200 803.200 C 494.859 806.541, 499.110 811.182, 503.626 809.124 C 507.673 807.281, 506.096 802, 501.500 802 C 500.345 802, 498.860 802.540, 498.200 803.200 M 519.994 804.507 C 518.887 805.841, 518.931 806.359, 520.258 807.687 C 522.403 809.831, 525.230 808.640, 524.820 805.765 C 524.429 803.026, 521.793 802.339, 519.994 804.507 M 621.591 804.307 C 619.820 805.605, 619.742 806.494, 620.518 816.603 C 621.638 831.208, 621.596 841.127, 620.380 849.194 C 619.524 854.876, 620.321 869.330, 621.575 870.847 C 622.401 871.848, 627.975 867.378, 627.487 866.105 C 626.073 862.420, 625.831 852.334, 626.994 845.534 C 628.033 839.460, 628.032 836.887, 626.988 831.781 C 626.282 828.326, 625.208 820.417, 624.602 814.204 C 623.543 803.350, 623.425 802.963, 621.591 804.307 M 500 805.500 C 500 806.325, 500.675 807, 501.500 807 C 502.325 807, 503 806.325, 503 805.500 C 503 804.675, 502.325 804, 501.500 804 C 500.675 804, 500 804.675, 500 805.500 M 595 805.441 C 595 806.234, 595.470 807.172, 596.044 807.527 C 597.335 808.325, 600.183 806.105, 599.430 804.887 C 598.534 803.438, 595 803.880, 595 805.441 M 418.012 807.136 C 415.474 809.248, 414.117 809.271, 404.139 807.378 C 401.109 806.803, 400.420 807.147, 397.139 810.870 C 394.125 814.291, 392.383 815.277, 387 816.615 C 383.425 817.504, 378.493 819.247, 376.040 820.490 L 371.580 822.749 375.040 823.437 C 383.218 825.063, 384.024 825.777, 387.502 834.484 L 389.094 838.469 391.354 834.484 L 393.614 830.500 401.032 830.815 C 408.737 831.142, 411 832.074, 411 834.922 C 411 837.742, 413.180 839, 418.065 839 C 423.639 839, 427.537 841.615, 428.500 846.001 C 429.387 850.038, 430.545 850.503, 433.645 848.065 C 435.088 846.929, 436.832 846, 437.520 846 C 438.207 846, 439.507 844.875, 440.408 843.500 C 442.594 840.164, 447.771 840.101, 451.673 843.363 C 455.622 846.665, 458.259 847.277, 463.016 845.996 C 466.097 845.166, 468.038 845.187, 470.745 846.081 C 474.018 847.161, 474.524 847.071, 476.096 845.130 C 478.444 842.231, 487.732 838.022, 491.809 838.010 C 493.758 838.004, 494.864 837.589, 494.500 837 C 494.152 836.436, 489.312 836, 483.409 836 C 476.362 836, 471.761 835.509, 469.346 834.500 C 467.371 833.675, 464.776 833, 463.578 833 C 459.412 833, 457.657 829.141, 460.429 826.079 C 462.901 823.348, 449.965 824.035, 447.220 826.780 C 443.289 830.711, 429 827.604, 429 822.819 C 429 821.746, 428.519 819.969, 427.931 818.870 C 426.618 816.417, 428.712 812.917, 430.126 815.203 C 430.762 816.232, 431.270 816.158, 432.582 814.846 C 434.669 812.760, 433.644 811, 430.342 811 C 428.810 811, 426.691 809.810, 425 808 C 421.702 804.470, 421.280 804.418, 418.012 807.136 M 483.040 806.452 C 481.589 808.200, 482.483 811.588, 484.611 812.404 C 486.757 813.228, 490 811.279, 490 809.165 C 490 805.403, 485.399 803.610, 483.040 806.452 M 576.589 809.077 C 573.601 812.628, 573.533 812.979, 575.350 815.464 C 577.978 819.058, 587 815.249, 587 810.545 C 587 805.201, 580.608 804.300, 576.589 809.077 M 437.965 810.695 C 436.403 815.545, 435.224 817, 432.859 817 C 431.300 817, 431.077 817.491, 431.605 819.750 C 432.554 823.806, 433.986 824.826, 439.150 825.123 C 443.337 825.363, 444.078 825.060, 446.581 822.086 L 449.362 818.781 446.977 816.982 C 445.665 815.993, 444.108 813.458, 443.516 811.350 C 442.045 806.106, 439.539 805.810, 437.965 810.695 M 560.571 808.571 C 558.360 810.783, 558.596 814.714, 561.019 816.010 C 563.706 817.448, 568.389 815.255, 568.803 812.365 C 569.429 807.995, 563.760 805.383, 560.571 808.571 M 635.500 809 C 634.771 810.180, 635.717 812, 637.059 812 C 637.577 812, 638 811.100, 638 810 C 638 807.891, 636.545 807.309, 635.500 809 M 578.494 811.006 C 577.496 812.110, 576.985 813.318, 577.359 813.692 C 578.506 814.839, 583.460 812.565, 583.814 810.729 C 584.281 808.300, 580.779 808.482, 578.494 811.006 M 562.010 811.488 C 561.012 812.691, 561.075 813.091, 562.339 813.577 C 564.296 814.328, 566 813.333, 566 811.441 C 566 809.561, 563.585 809.590, 562.010 811.488 M 513.190 814.750 C 513.376 815.712, 514.190 816.500, 515 816.500 C 515.810 816.500, 516.624 815.712, 516.810 814.750 C 517.046 813.522, 516.506 813, 515 813 C 513.494 813, 512.954 813.522, 513.190 814.750 M 288.247 857.250 C 267.940 880.487, 250.577 900.118, 249.663 900.872 C 248.748 901.627, 248 902.640, 248 903.122 C 248 903.620, 289.008 903.968, 342.750 903.926 C 435.475 903.854, 437.350 903.815, 430.500 902.081 C 426.650 901.106, 418.325 898.619, 412 896.554 C 405.675 894.489, 396.900 891.665, 392.500 890.279 C 382.667 887.180, 371.404 881.624, 370.130 879.243 C 369.609 878.269, 368.880 867.578, 368.511 855.486 C 368.063 840.790, 367.360 831.977, 366.392 828.906 C 364.515 822.956, 365.075 821.775, 371.116 818.946 C 373.874 817.654, 376.353 816.237, 376.625 815.798 C 376.896 815.359, 365.430 815, 351.144 815 L 325.169 815 288.247 857.250 M 450.895 816.712 C 451.422 817.695, 452.117 819.339, 452.439 820.364 C 452.952 821.997, 453.693 822.144, 458.443 821.550 C 464.900 820.744, 467.205 822.835, 464.350 826.910 C 462.501 829.550, 462.394 829.429, 467.750 830.744 C 471.776 831.732, 472 831.671, 472 829.594 C 472 828.387, 471.521 826.921, 470.937 826.337 C 470.352 825.752, 469.560 823.074, 469.177 820.387 L 468.480 815.500 459.208 815.212 C 450.566 814.944, 450.001 815.046, 450.895 816.712 M 534.857 819.567 C 532.956 820.563, 531.356 820.676, 528.942 819.983 C 527.122 819.461, 525.583 819.139, 525.523 819.267 C 524.443 821.572, 523.517 828.210, 524.139 829.191 C 525.424 831.216, 525.092 835.294, 523.468 837.441 C 520.431 841.457, 521.415 841.999, 531.750 842.010 C 542.256 842.020, 547.359 843.647, 554.974 849.413 C 559.645 852.951, 563.898 853.929, 574 853.793 C 580.978 853.698, 583.619 854.133, 588.750 856.223 C 592.188 857.622, 595 858.652, 595 858.511 C 595 858.370, 594.065 856.140, 592.921 853.555 C 591.150 849.551, 590.946 847.757, 591.540 841.421 C 592.603 830.067, 589.349 825, 580.992 825 C 579.284 825, 575.888 824.497, 573.447 823.882 C 569.668 822.931, 568.615 823.022, 566.362 824.499 C 562.852 826.798, 557.187 825.991, 550 822.169 C 543.266 818.588, 538.340 817.742, 534.857 819.567 M 473.178 822.683 C 473.416 823.924, 475.342 824.678, 480.501 825.552 C 484.350 826.204, 490.650 828.203, 494.500 829.993 C 500.869 832.954, 502.424 833.259, 511.750 833.374 C 522.632 833.508, 524.401 832.619, 519.562 829.449 C 517.591 828.157, 515.616 827.983, 509.228 828.540 C 501.376 829.225, 501.288 829.206, 493.340 825.115 C 484.267 820.443, 472.472 819.021, 473.178 822.683 M 369.964 827.933 C 370.576 829.076, 371.350 832.937, 371.684 836.514 C 372.246 842.540, 372.537 843.169, 375.645 845.090 C 377.490 846.230, 379 847.492, 379 847.894 C 379 848.295, 380.402 849.660, 382.116 850.927 C 384.756 852.880, 386.548 853.251, 393.866 853.365 C 402.061 853.493, 402.743 853.678, 407.276 857 C 409.903 858.925, 414.178 862.009, 416.776 863.854 L 421.500 867.208 432.103 866.529 C 444.537 865.733, 447.447 866.586, 455.411 873.361 C 460.775 877.924, 464.867 880.467, 465.625 879.708 C 465.875 879.459, 465.002 877.230, 463.687 874.755 C 461.538 870.715, 461.394 869.704, 462.273 864.856 C 463.734 856.798, 460.504 849.496, 455.096 848.631 C 453.029 848.301, 450.517 847.123, 449.514 846.015 C 447.079 843.325, 444.817 843.475, 442.187 846.500 C 440.991 847.875, 439.448 849.010, 438.757 849.022 C 438.065 849.034, 436.375 849.924, 435 851 C 430.184 854.767, 426.235 852.813, 424.630 845.869 C 423.979 843.054, 421.752 842.037, 416.184 842.014 C 411.702 841.995, 409.405 840.600, 408.209 837.171 C 407.306 834.580, 406.638 834.233, 401.367 833.613 C 398.153 833.236, 395.405 833.281, 395.258 833.713 C 392.315 842.413, 387.497 842.980, 384.321 835 C 381.795 828.651, 380.306 827.467, 373.676 826.534 C 369.018 825.879, 368.890 825.927, 369.964 827.933 M 475 829.731 C 475 832.038, 484.712 833.782, 488.912 832.228 C 491.143 831.403, 491.138 831.384, 488.332 830.102 C 486.774 829.391, 483.137 828.564, 480.250 828.265 C 475.477 827.770, 475 827.903, 475 829.731 M 664.483 829.028 C 664.133 829.594, 662.238 830.831, 660.271 831.778 C 651.818 835.849, 654.917 842.475, 664.758 841.372 C 673.700 840.368, 675.250 837.639, 670.449 831.344 C 667.885 827.982, 665.662 827.120, 664.483 829.028 M 535.046 830.444 C 532.345 833.699, 536.815 837.614, 539.811 834.618 C 541.084 833.344, 541.215 832.563, 540.376 831.231 C 538.916 828.913, 536.601 828.571, 535.046 830.444 M 687.792 831.250 C 685.766 832.842, 684.805 836.117, 685.867 837.808 C 687.154 839.854, 697.005 838.975, 698.397 836.689 C 700.757 832.815, 691.706 828.173, 687.792 831.250 M 556.173 832.659 C 556.368 833.672, 557.196 834.500, 558.014 834.500 C 560.157 834.500, 559.848 831.594, 557.659 831.173 C 556.323 830.916, 555.916 831.323, 556.173 832.659 M 664.139 833.057 C 662.841 834.126, 661.120 835, 660.316 835 C 659.461 835, 658.993 835.727, 659.190 836.750 C 659.376 837.712, 660.309 838.462, 661.264 838.417 C 662.219 838.371, 664.575 838.258, 666.500 838.167 C 670.401 837.981, 670.870 836.661, 668.228 833.307 C 666.510 831.127, 666.487 831.126, 664.139 833.057 M 581.638 834.500 C 580.291 838.010, 583.571 840.765, 586.525 838.605 C 588.967 836.820, 587.614 833, 584.540 833 C 583.261 833, 581.955 833.675, 581.638 834.500 M 605.218 834.154 C 605.737 835.712, 607.974 835.984, 608.053 834.500 C 608.082 833.950, 607.355 833.345, 606.438 833.154 C 605.395 832.939, 604.938 833.313, 605.218 834.154 M 688.676 834.402 C 687.946 836.305, 688.834 837, 692 837 C 695.325 837, 696.314 836.083, 694.869 834.342 C 693.406 832.579, 689.360 832.618, 688.676 834.402 M 497.972 835.949 C 499.509 838.820, 499.257 839.857, 496.373 842.530 C 494.508 844.258, 494.145 845.074, 495.123 845.341 C 495.880 845.548, 498.075 846.213, 500 846.818 C 501.925 847.424, 506.501 848.221, 510.169 848.589 L 516.839 849.260 517.547 844.380 C 517.937 841.696, 518.664 838.712, 519.163 837.750 C 519.995 836.146, 519.322 836, 511.100 836 C 506.167 836, 500.964 835.556, 499.538 835.014 C 497.170 834.114, 497.034 834.195, 497.972 835.949 M 571.544 837.344 C 568.907 839.273, 570.168 844, 573.319 844 C 577.600 844, 579.314 840.457, 576.429 837.571 C 574.511 835.654, 573.895 835.625, 571.544 837.344 M 640.496 840.007 C 640.153 840.561, 640.596 841.292, 641.480 841.631 C 643.394 842.365, 644.461 841.556, 643.541 840.067 C 642.711 838.723, 641.306 838.696, 640.496 840.007 M 485.500 843.155 C 483.300 844.291, 480.036 846.611, 478.246 848.310 C 475.205 851.198, 474.776 851.321, 471.675 850.200 C 467.584 848.720, 463 848.641, 463 850.050 C 463 850.627, 463.732 852.514, 464.626 854.243 C 465.882 856.672, 466.109 858.923, 465.623 864.145 C 465.057 870.238, 465.236 871.259, 467.443 874.511 C 468.790 876.496, 469.650 878.749, 469.355 879.518 C 467.733 883.744, 480.752 882.501, 488.628 877.677 C 491.858 875.700, 496.637 873.520, 499.250 872.833 C 504.819 871.370, 505.486 869.107, 501.450 865.366 C 499.090 863.179, 498.950 862.565, 499.565 857.131 C 500.279 850.819, 499.947 850.221, 495.255 849.370 C 491.880 848.758, 490.842 847.283, 491.298 843.750 C 491.720 840.488, 490.837 840.398, 485.500 843.155 M 521.004 846.644 C 520.998 849.808, 531.518 853.723, 543.774 855.118 C 549.123 855.726, 558.267 857.524, 564.094 859.112 C 569.921 860.700, 576.778 862, 579.333 862 C 581.888 862, 586.233 862.857, 588.989 863.904 C 591.745 864.951, 594 865.438, 594 864.986 C 594 864.534, 594.249 863.515, 594.553 862.723 C 595.630 859.916, 583.835 856.558, 572.500 856.445 C 561.546 856.335, 559.873 855.806, 549.069 849.032 C 542.458 844.887, 542.189 844.830, 528.254 844.613 C 521.480 844.507, 521.009 844.639, 521.004 846.644 M 372.193 850.159 C 372.640 856.206, 379.598 861, 387.928 861 C 396.907 861, 402.700 863.233, 410.007 869.512 C 421.152 879.089, 424.791 880.313, 433.401 877.379 C 441.522 874.612, 444.669 875.636, 458.359 885.499 C 464.332 889.802, 466 889.938, 466 886.121 C 466 883.827, 465.352 882.974, 462.807 881.920 C 461.050 881.192, 457.373 878.608, 454.635 876.176 C 447.145 869.524, 444.306 868.650, 432.829 869.463 C 421.326 870.279, 417.763 869.108, 409.050 861.649 C 402.696 856.209, 399.540 855.125, 391.906 855.758 C 385.418 856.296, 382.231 854.971, 377.054 849.585 C 372.623 844.976, 371.816 845.071, 372.193 850.159 M 649.393 847.801 C 647.328 848.096, 643.930 855.263, 645.236 856.569 C 646.165 857.499, 653.126 855.834, 653.613 854.567 C 654.532 852.171, 651.609 847.484, 649.393 847.801 M 603.476 849.039 C 602.468 850.669, 604.707 852.693, 606.042 851.358 C 606.766 850.634, 606.640 849.946, 605.631 849.109 C 604.557 848.218, 603.995 848.199, 603.476 849.039 M 503.327 856.750 C 502.274 861.182, 502.360 861.671, 504.599 864.055 C 506.200 865.758, 507 867.789, 507 870.150 C 507 872.420, 507.717 874.339, 509 875.500 C 511.412 877.683, 511.512 879.666, 509.423 883.854 C 507.931 886.846, 507.968 887.212, 510.119 890.692 C 511.369 892.715, 511.966 894.522, 511.446 894.709 C 510.926 894.895, 506.450 897.027, 501.500 899.447 L 492.500 903.847 527.962 903.673 L 563.424 903.500 566.278 899.250 C 568.810 895.479, 569.567 895, 572.984 895 C 579.833 895, 581.051 893.522, 579.370 887.250 C 578.888 885.451, 578.039 884.992, 575.133 884.960 C 573.112 884.938, 569.158 883.659, 566.221 882.078 C 561.542 879.558, 560.216 879.293, 554.549 879.748 C 548.879 880.203, 547.399 879.907, 541.470 877.133 C 537.792 875.412, 531.814 873.529, 528.185 872.950 C 516.084 871.016, 511.295 866.509, 516.010 861.489 C 519.625 857.641, 517.825 853.385, 512.260 852.622 C 504.616 851.574, 504.548 851.605, 503.327 856.750 M 521 856.671 C 521 859.646, 520.389 862.018, 519.317 863.202 C 516.710 866.082, 519.169 867.643, 529 869.347 C 534.008 870.216, 539.349 871.880, 542 873.398 C 545.846 875.601, 547.718 875.978, 554.882 875.988 C 561.671 875.998, 563.918 876.404, 566.705 878.127 C 571.196 880.902, 591.208 885.219, 592.223 883.631 C 593.532 881.585, 595.084 872.381, 594.414 870.636 C 593.348 867.859, 588.030 865.752, 580.010 864.931 C 575.879 864.508, 568.574 863.018, 563.775 861.621 C 558.976 860.223, 550.570 858.620, 545.096 858.058 C 539.171 857.450, 532.435 856.017, 528.452 854.518 C 524.772 853.133, 521.590 852, 521.381 852 C 521.171 852, 521 854.102, 521 856.671 M 716 853.055 C 706.375 853.441, 694.551 853.811, 689.725 853.878 C 681.120 853.998, 680.930 854.053, 679.906 856.748 C 679.331 858.260, 678.192 860.236, 677.374 861.139 C 676.043 862.610, 676.234 863.275, 679.194 867.482 L 682.500 872.182 689.500 871.617 C 693.350 871.306, 706.175 870.801, 718 870.495 C 746.341 869.761, 747.538 869.591, 749.650 866.015 L 751.345 863.146 756.422 867.597 C 764.849 874.982, 772.425 875.609, 780.336 869.574 C 784.906 866.089, 786.299 863, 783.301 863 C 782.286 863, 779.891 861.719, 777.978 860.153 C 770.861 854.329, 764.164 853.382, 756.067 857.055 L 751.635 859.066 748.203 855.533 C 744.314 851.528, 747.669 851.787, 716 853.055 M 660.750 854.080 C 658.278 855.520, 658.487 859.703, 661.072 860.523 C 664.586 861.638, 668 860.238, 668 857.681 C 668 853.554, 664.574 851.853, 660.750 854.080 M 472.489 856.384 C 468.996 858.938, 473.085 864.698, 476.750 862.386 C 477.712 861.779, 478.500 860.258, 478.500 859.006 C 478.500 856.156, 474.931 854.599, 472.489 856.384 M 734.838 861 C 741.803 867.794, 743.935 868.305, 747.051 863.929 L 749.238 860.857 746.432 857.929 C 743.820 855.202, 743.110 855, 736.156 855 L 728.687 855 734.838 861 M 695.304 862.203 L 701.500 867.906 709.333 867.953 C 718.631 868.009, 718.720 867.516, 710.571 861.091 C 704.779 856.524, 704.707 856.500, 696.928 856.500 L 689.109 856.500 695.304 862.203 M 714.703 861.464 L 720.500 866.927 728.250 866.964 C 736.969 867.005, 737.328 866.636, 732.750 862.347 C 726.628 856.611, 725.085 856, 716.731 856 L 708.907 856 714.703 861.464 M 372.652 866.914 C 372.794 875.783, 372.979 876.585, 375.350 878.625 C 378.489 881.325, 391.143 886.274, 403.063 889.464 C 407.984 890.781, 415.495 893.199, 419.755 894.837 C 424.015 896.475, 430.425 898.358, 434 899.021 C 437.575 899.684, 446.070 901.975, 452.877 904.113 C 459.685 906.251, 466.323 908, 467.629 908 L 470.004 908 468.002 904.265 C 466.901 902.210, 465.994 899.623, 465.986 898.515 C 465.964 895.229, 464.842 892, 463.723 892 C 463.149 892, 458.899 889.254, 454.279 885.897 C 444.393 878.714, 440.780 877.842, 431.972 880.509 C 424.307 882.829, 419.976 881.335, 409.850 872.874 C 400.374 864.957, 399.870 864.735, 389.723 863.991 C 382.174 863.437, 380.355 862.930, 376.723 860.370 L 372.500 857.392 372.652 866.914 M 447.701 857.632 C 446.365 858.969, 447.008 862.789, 448.678 863.430 C 451.173 864.387, 453.768 861.441, 452.376 859.231 C 451.184 857.338, 448.808 856.525, 447.701 857.632 M 681.285 860.528 C 679.616 864.029, 679.625 864.079, 682.357 866.778 C 685.044 869.433, 685.146 869.453, 686.555 867.559 C 688.548 864.882, 688.365 860.640, 686.171 858.655 C 683.629 856.354, 683.196 856.520, 681.285 860.528 M 760 858 C 757.697 858.738, 757.776 858.811, 761 858.927 C 762.925 858.996, 766.300 859.901, 768.500 860.937 L 772.500 862.822 765.500 862.324 L 758.500 861.826 762.819 864.511 C 768.087 867.786, 767.593 868.854, 761.868 866.564 C 758.042 865.033, 757.778 865.027, 759.004 866.505 C 762.996 871.315, 771.156 872.302, 777.422 868.734 C 782.350 865.927, 782.737 864.765, 779.259 863.218 C 777.742 862.543, 774.700 860.875, 772.500 859.512 C 768.458 857.007, 764.570 856.536, 760 858 M 690 865.607 C 690 868.485, 690.320 869.091, 691.582 868.607 C 692.452 868.273, 694.364 867.988, 695.832 867.973 L 698.500 867.946 695 865 C 690.489 861.203, 690 861.262, 690 865.607 M 487.363 864.497 C 486.440 866.902, 488.616 868.732, 490.778 867.369 C 493.206 865.836, 492.917 863.559, 490.246 863.180 C 488.861 862.983, 487.749 863.492, 487.363 864.497 M 547.701 864.632 C 545.943 866.390, 547.060 869, 549.570 869 C 551.659 869, 552.079 868.582, 551.820 866.760 C 551.503 864.543, 549.055 863.278, 547.701 864.632 M 649.051 865.439 C 647.078 867.816, 648.536 870.186, 651.744 869.817 C 653.933 869.565, 654.500 868.985, 654.500 867 C 654.500 864.023, 651.047 863.034, 649.051 865.439 M 337.280 871.020 C 331.901 873.184, 334.204 881, 340.221 881 C 344.669 881, 347 879.322, 347 876.120 C 347 871.153, 342.638 868.864, 337.280 871.020 M 385.624 871.538 C 385.284 872.423, 385.681 873.324, 386.560 873.661 C 388.517 874.412, 389.409 873.509, 388.655 871.543 C 387.896 869.565, 386.382 869.562, 385.624 871.538 M 606.510 870.984 C 605.773 872.177, 606.709 874, 608.059 874 C 609.276 874, 609.284 871.293, 608.069 870.543 C 607.557 870.226, 606.856 870.425, 606.510 870.984 M 338.104 873.893 C 335.758 875.414, 337.617 878.177, 340.744 877.817 C 342.728 877.589, 343.500 876.939, 343.500 875.500 C 343.500 873.298, 340.432 872.385, 338.104 873.893 M 494.919 877.373 C 479.832 885.476, 480.934 885.092, 474.781 884.396 L 469 883.742 469 886.478 C 469 888.680, 469.342 889.079, 470.750 888.525 C 471.712 888.146, 476.100 887.034, 480.500 886.054 C 484.900 885.074, 490.300 883.342, 492.500 882.206 C 494.700 881.070, 499.113 879.829, 502.307 879.448 C 508.048 878.763, 508.091 878.734, 506.099 876.878 C 503.409 874.371, 500.249 874.511, 494.919 877.373 M 523.716 878.941 C 523.079 880.629, 521.637 882.125, 520.332 882.453 C 514.456 883.928, 515.295 890.340, 521.725 893.096 C 527.298 895.485, 528.260 895.475, 530.500 893 C 531.495 891.900, 533.310 891, 534.533 891 C 538.239 891, 539.487 888.570, 538.121 884.010 C 536.836 879.720, 536.202 879.121, 531 877.273 C 525.895 875.460, 524.948 875.677, 523.716 878.941 M 400 879.500 C 400 880.325, 400.675 881, 401.500 881 C 402.325 881, 403 880.325, 403 879.500 C 403 878.675, 402.325 878, 401.500 878 C 400.675 878, 400 878.675, 400 879.500 M 525.990 881.526 C 525.462 882.915, 524.236 884.335, 523.265 884.681 C 519.189 886.135, 517.994 890, 521.621 890 C 522.394 890, 523.902 890.546, 524.971 891.214 C 526.605 892.234, 527.292 892.074, 529.272 890.214 C 530.568 888.996, 532.312 888, 533.148 888 C 537.075 888, 535.378 882.834, 530.682 880.491 C 526.894 878.601, 527.121 878.551, 525.990 881.526 M 649.500 880.970 C 643.265 883.445, 642.727 888.847, 648.595 890.055 C 650.193 890.384, 652.535 891.209, 653.801 891.889 C 656.979 893.596, 662.500 890.493, 662.500 887 C 662.500 883.192, 653.924 879.214, 649.500 880.970 M 501 882.069 C 498.525 882.536, 494.250 884.024, 491.500 885.376 C 488.750 886.727, 483.650 888.346, 480.167 888.973 C 469.919 890.817, 468.999 891.374, 469.004 895.725 C 469.007 899.500, 472.123 906, 473.928 906 C 474.455 906, 476.374 905.155, 478.193 904.123 C 480.012 903.091, 483.750 901.712, 486.500 901.058 C 489.250 900.405, 492.881 899.063, 494.569 898.076 C 496.257 897.089, 499.935 895.518, 502.741 894.586 L 507.844 892.891 506.184 889.997 C 504.820 887.621, 504.729 886.557, 505.674 884.052 C 506.308 882.373, 506.528 881.049, 506.163 881.110 C 505.798 881.170, 503.475 881.602, 501 882.069 M 648.889 884.944 L 646.500 886.933 648.785 886.967 C 650.042 886.985, 652.149 887.707, 653.468 888.571 C 655.330 889.791, 656.328 889.895, 657.933 889.036 C 661.611 887.067, 660.593 885.852, 653.389 883.610 C 651.998 883.177, 650.465 883.632, 648.889 884.944 M 442.409 889.376 C 441.562 891.584, 442.689 892.711, 444.217 891.183 C 445.119 890.281, 445.122 889.722, 444.233 888.833 C 443.343 887.943, 442.909 888.072, 442.409 889.376 M 536.040 894.452 C 533.297 897.757, 536.753 901.781, 541.345 900.628 C 545.998 899.460, 544.370 893, 539.422 893 C 538.225 893, 536.703 893.653, 536.040 894.452 M 484.459 895.067 C 484.096 895.653, 484.050 896.384, 484.357 896.690 C 485.179 897.513, 488 896.229, 488 895.031 C 488 893.674, 485.303 893.701, 484.459 895.067 M 579.500 897 C 578.400 897.473, 575.813 897.891, 573.750 897.930 C 571.688 897.968, 570 898.387, 570 898.860 C 570 899.334, 568.853 901.411, 567.451 903.478 C 566.048 905.544, 565.036 907.309, 565.201 907.400 C 565.365 907.491, 568.085 908.410, 571.244 909.443 C 576.587 911.190, 577.115 911.206, 578.810 909.672 C 579.812 908.766, 582.074 907.735, 583.836 907.383 C 587.820 906.586, 588.642 905.367, 586.668 903.185 C 585.827 902.256, 584.669 900.260, 584.094 898.748 C 582.977 895.810, 582.602 895.667, 579.500 897 M 506.068 914.904 C 503.346 918.727, 503.425 921.781, 506.278 923.081 C 512.357 925.850, 516.799 918.799, 512 914 C 509.341 911.341, 508.516 911.467, 506.068 914.904 M 507.607 917.582 C 506.598 920.211, 506.906 921, 508.941 921 C 511.297 921, 512.215 919.725, 511.396 917.590 C 510.611 915.545, 508.391 915.540, 507.607 917.582" stroke="none" fill="#1a1a1a" fill-rule="evenodd"/>
</svg>