<svg xmlns="http://www.w3.org/2000/svg" width="1024" height="1024" viewBox="0 0 1024 1024" version="1.1">
	<path d="M 491.727 214.268 C 491.415 215.083, 492.297 218.168, 493.687 221.125 C 495.078 224.081, 497.740 230.023, 499.604 234.329 L 502.992 242.158 499.717 240.134 C 463.161 217.541, 412.365 213.075, 373.323 229.022 L 364.136 232.774 361.818 230.281 C 358.226 226.417, 349.880 222.020, 346.118 222.009 C 331.534 221.969, 316.118 255.899, 315.551 289.287 L 315.334 302.074 311.417 306.085 C 302.954 314.753, 291.076 317.630, 282.280 313.143 C 279.970 311.964, 277.426 311, 276.628 311 C 274.255 311, 273.700 317.894, 275.461 325.489 C 280.367 346.643, 297.840 360, 320.605 360 L 327.791 360 324.470 370.250 C 315.222 398.794, 314.583 433.015, 322.717 464 C 328.918 487.619, 328.764 486.024, 325.392 491.614 C 318.978 502.248, 317.882 508.419, 320.776 517.604 C 328.906 543.403, 370.920 571.731, 414.300 580.660 L 422.691 582.387 419.302 586.827 C 417.439 589.269, 415.194 592.658, 414.315 594.358 C 413.435 596.059, 409.517 600.645, 405.608 604.549 C 401.699 608.453, 396.930 614.289, 395.011 617.516 C 380.429 642.047, 386.130 670.566, 405.718 671.072 C 408.213 671.136, 408.962 672.091, 412.976 680.322 C 416.616 687.784, 419.005 691.062, 425.759 697.854 C 430.328 702.449, 435.010 708.074, 436.164 710.354 C 437.318 712.634, 440.062 717.077, 442.260 720.228 L 446.258 725.955 442.674 736.228 C 440.702 741.877, 438.548 747.889, 437.887 749.587 L 436.684 752.675 419.592 755.348 C 410.191 756.818, 402.219 758.016, 401.875 758.010 C 401.531 758.005, 400.987 756.687, 400.666 755.082 C 399.925 751.373, 394.906 745.618, 391.005 744.002 C 389.352 743.317, 388.002 742.699, 388.004 742.629 C 388.006 742.558, 389.131 740.286, 390.504 737.581 C 398.171 722.468, 386.673 702.079, 372.737 706.075 C 370.964 706.584, 369.197 707, 368.811 707 C 368.425 707, 368.103 702.388, 368.096 696.750 C 368.042 654.899, 334.379 631.734, 312.470 658.471 C 301.161 672.273, 297.504 698.675, 304.253 717.790 C 306.469 724.065, 306.596 725.013, 305.164 724.598 C 304.249 724.333, 297.425 723.635, 290 723.045 C 267.298 721.244, 268.483 721.571, 267.060 716.711 C 259.772 691.823, 231.402 684.799, 217 704.316 L 213.500 709.059 211.202 703.876 C 209.938 701.025, 209.130 698.105, 209.405 697.387 C 210.817 693.708, 229.257 687.319, 256.500 681.069 C 284.380 674.673, 289.646 672.592, 288.819 668.298 C 288.254 665.367, 281.696 663.972, 263.529 662.922 C 239.567 661.537, 227.384 660.321, 225.296 659.106 C 224.024 658.366, 234.922 658.052, 262.625 658.030 L 301.750 658 302.350 655 C 304.474 644.379, 294.477 636.904, 286.520 643.163 L 283.769 645.327 284.502 641.913 C 284.905 640.036, 285.463 638.115, 285.741 637.646 C 286.209 636.856, 306.035 637.113, 359.500 638.599 C 374.253 639.010, 380.198 638.869, 379.484 638.126 C 378.828 637.443, 364.888 636.821, 340.160 636.372 C 301.954 635.679, 301.853 635.671, 302.420 633.588 C 307.854 613.644, 298.750 588.772, 281.512 576.472 C 275.024 571.842, 274.101 570.674, 276 569.500 C 276.550 569.160, 277 567.610, 277 566.055 C 277 563.491, 277.400 563.167, 281.283 562.585 C 290.510 561.201, 294.452 556.844, 295.381 547 C 296.131 539.059, 294.022 534.736, 288.228 532.335 C 286.178 531.485, 284.370 530.669, 284.210 530.522 C 284.051 530.375, 286.189 524.025, 288.960 516.412 C 293.533 503.853, 294.958 498.708, 293.447 500.220 C 293.143 500.524, 290.488 507.461, 287.549 515.636 C 282.210 530.482, 282.199 530.502, 278.352 531.767 C 270.153 534.465, 265.931 544.417, 270.806 549.553 C 272.555 551.394, 272.523 551.531, 269.806 553.816 C 267.749 555.548, 267 557.081, 267 559.563 C 267 564.727, 263.237 566.279, 252.706 565.457 C 216.927 562.665, 185.980 596.063, 193.272 629.599 L 194.599 635.697 173.549 636.358 C 125.669 637.862, 116.429 638.307, 115 639.180 C 114.079 639.743, 120.057 639.856, 130.500 639.472 C 155.074 638.570, 202.459 637.254, 202.740 637.465 C 202.871 637.565, 203.251 639.004, 203.583 640.663 C 204.162 643.559, 204.063 643.663, 201.125 643.232 C 198.726 642.880, 197.432 643.414, 195.143 645.703 C 192.777 648.070, 191.560 648.547, 188.738 648.218 C 184.500 647.723, 181 650.876, 181 655.189 L 181 658 200.184 658 C 217.509 658, 219.781 658.200, 223.623 660.059 C 226.771 661.584, 231.207 662.355, 240.688 663.029 C 247.735 663.529, 259.830 664.382, 267.566 664.924 C 295.490 666.881, 293.962 670.810, 262.500 677.951 C 231.348 685.022, 217.532 689.349, 210.801 694.142 L 207.969 696.158 201.626 689.593 C 180.467 667.692, 149.352 673.292, 135.457 701.500 C 131.747 709.032, 129.522 720.534, 130.543 726.899 C 134.278 750.182, 145.205 763.987, 164.250 769.483 L 170 771.142 170 776.915 C 170 780.091, 169.709 787.448, 169.353 793.265 L 168.706 803.841 155.603 807.054 C 148.396 808.822, 142.072 810.657, 141.550 811.134 C 139.949 812.594, 141.903 812.214, 165.641 806.446 C 233.646 789.923, 298.513 777.037, 387 762.471 C 405.776 759.380, 434.247 755, 435.563 755 C 436.387 755, 425.210 776.583, 423.841 777.635 C 423.103 778.201, 414.175 780.335, 404 782.376 C 336.043 796.006, 266.955 813.678, 218 829.952 C 193.328 838.154, 186 840.893, 186 841.913 C 186 842.336, 198.262 838.567, 213.250 833.537 C 244.905 822.914, 270.545 815.486, 308.401 805.970 C 344.502 796.896, 415.996 781, 420.707 781 C 422.617 781, 420.047 785.495, 410.430 798.973 C 401.348 811.701, 400.141 815.269, 402.847 821.387 C 408.120 833.307, 444.261 846.699, 458.487 842.004 C 469.764 838.283, 480.052 820.483, 488.993 789.227 C 491.152 781.677, 493.218 773.600, 493.583 771.278 C 494.338 766.473, 493.887 766.702, 507 764.474 C 512.225 763.586, 521.900 761.813, 528.500 760.532 C 549.918 756.378, 546.915 755.929, 552.513 764.121 C 557.409 771.287, 564.330 777.651, 569.918 780.124 C 571.921 781.011, 573.008 782.283, 573.205 783.974 C 573.883 789.780, 571.904 804.215, 569.053 814.261 C 561.844 839.667, 567.623 845.500, 600 845.500 C 622.687 845.500, 632.841 841.964, 637.104 832.579 C 642.379 820.962, 636.755 774.161, 628.027 757.053 C 625.272 751.652, 620.591 748, 616.423 748 C 613.709 748, 613 747.601, 613 746.071 C 613 744.065, 614.126 743.720, 629.440 741.038 C 635.514 739.974, 636.945 740.494, 636.985 743.775 C 637.024 747.026, 644.659 759.789, 649.403 764.534 C 657.202 772.332, 665.125 775.516, 663.644 770.255 C 663.372 769.290, 662.834 766.940, 662.448 765.034 L 661.746 761.567 667.337 766.677 C 682.247 780.304, 704.324 782.964, 723.184 773.407 C 732.440 768.716, 743.248 756.695, 741.741 752.767 C 741.330 751.697, 739.090 751.138, 733.834 750.795 C 724.896 750.211, 719.734 747.776, 714.266 741.565 C 710.658 737.466, 705.983 726.683, 707.260 725.406 C 707.525 725.142, 711.962 723.799, 717.121 722.423 C 779.377 705.820, 795.014 684.549, 760 664.095 C 738.409 651.483, 734.526 647.464, 737.365 640.669 C 740.023 634.308, 750.958 628.145, 769.662 622.466 L 781.500 618.872 801.946 618.966 C 813.192 619.017, 822.528 619.194, 822.693 619.360 C 822.858 619.525, 818.607 620.887, 813.247 622.387 C 796.295 627.131, 786.926 633.586, 788.410 639.498 C 789.865 645.293, 796.015 649.144, 821.994 660.523 C 865.439 679.553, 880.042 694.131, 879.979 718.407 C 879.907 746.074, 855.581 770.910, 797.537 802.578 C 765.174 820.235, 697.222 850.532, 665.750 861.336 C 664.788 861.667, 664 862.381, 664 862.924 C 664 864.120, 666.134 863.375, 689.500 854.027 C 775.300 819.701, 834.092 787.876, 860.514 761.454 C 881.124 740.844, 887.147 719.420, 877.825 699.880 C 869.949 683.373, 855.554 672.873, 819.643 657.441 C 779.408 640.150, 779.814 633.083, 821.684 621.909 L 833.357 618.793 856.928 619.454 C 869.893 619.818, 887.898 620.529, 896.940 621.035 C 912.222 621.889, 915.130 621.797, 913.829 620.496 C 913.110 619.777, 881.487 618.031, 868.872 618.014 C 857.607 617.999, 856.796 617.686, 855.660 612.915 C 852.734 600.626, 868.572 592.417, 878.459 601.098 L 881.875 604.097 881.875 597.493 C 881.875 580.915, 897.503 571.745, 910.604 580.635 C 915.089 583.679, 916.613 582.710, 912.505 579.427 C 905.942 574.183, 896.004 574.116, 888.666 579.267 L 885.832 581.256 886.544 549.878 C 886.935 532.620, 887.449 518.163, 887.687 517.750 C 887.924 517.337, 894.616 517, 902.559 517 C 912.686 517, 917 516.660, 917 515.862 C 917 515.041, 912.953 514.862, 902.470 515.218 C 894.478 515.489, 887.713 515.345, 887.437 514.898 C 887.161 514.451, 887.242 506.914, 887.616 498.148 L 888.298 482.209 902.149 481.492 C 910.004 481.086, 916 480.352, 916 479.799 C 916 479.176, 910.928 479.081, 902 479.536 L 888 480.250 888 463.006 L 888 445.763 891.433 448.381 C 896.036 451.892, 899.194 451.747, 902.452 447.874 C 903.899 446.155, 904.937 444.311, 904.759 443.776 C 904.580 443.241, 897.699 437.090, 889.467 430.107 L 874.500 417.410 874.200 401.205 C 873.906 385.314, 873.941 385, 876 385 C 877.924 385, 878.075 384.520, 877.800 379.250 L 877.500 373.500 862 373.500 L 846.500 373.500 846.195 378.829 C 845.928 383.500, 846.144 384.225, 847.945 384.696 C 849.729 385.162, 850 386.021, 850 391.210 L 850 397.186 845.250 393.210 C 824.759 376.058, 813.359 367.046, 812.505 367.324 C 811.952 367.504, 806.980 373.017, 801.456 379.576 C 795.932 386.134, 778.944 406.267, 763.706 424.316 C 748.468 442.364, 736 457.759, 736 458.527 C 736 460.797, 740.164 464, 743.116 464 C 745.061 464, 746.744 462.920, 748.927 460.272 C 751.917 456.645, 752 456.614, 752 459.100 C 752 460.505, 752.924 473.259, 754.053 487.441 C 755.182 501.623, 755.885 513.448, 755.614 513.719 C 755.123 514.211, 710.322 517.929, 704.327 517.975 C 701.271 517.999, 700.895 518.500, 694.077 531.629 C 685.565 548.022, 685.568 548, 691.766 548 L 696.532 548 699.296 571.750 C 700.816 584.813, 702.046 595.878, 702.030 596.339 C 702.013 596.800, 700.583 595.985, 698.851 594.528 C 692.337 589.047, 682.322 584.983, 671.750 583.530 L 667 582.877 666.985 575.689 C 666.923 545.353, 650.761 530.661, 608.270 522.312 L 599.938 520.675 607.379 516.936 C 620.945 510.118, 634.145 498.345, 638.090 489.544 C 640.470 484.235, 639.812 483.635, 632.369 484.330 L 626.018 484.923 629.519 481.849 C 639.141 473.401, 650.519 454.610, 655.419 439.078 C 659.558 425.958, 660.008 407, 656.180 407 C 655.702 407, 652.740 409.250, 649.597 412 C 646.455 414.750, 643.712 417, 643.501 417 C 643.291 417, 644.179 413.883, 645.475 410.073 C 652.678 388.896, 651.253 363.985, 641.518 340.903 C 638.039 332.653, 638 332.400, 637.996 318.030 C 637.992 302.335, 636.497 290.928, 632.507 276.143 C 623.872 244.150, 603.492 214, 590.500 214 C 583.035 214, 566.632 228.862, 556.622 244.695 L 550.809 253.891 545.086 246.695 C 535.201 234.267, 520.158 222.750, 506.243 216.957 C 496.861 213.051, 492.504 212.244, 491.727 214.268 M 498 219.292 C 498 219.526, 499.639 223.265, 501.641 227.599 C 505.051 234.980, 510 248.340, 510 250.166 C 510 250.614, 507.802 249.629, 505.116 247.976 C 467.398 224.768, 420.531 218.106, 383.066 230.625 C 364.562 236.808, 348.117 246.759, 335.676 259.299 C 331.373 263.637, 328.060 267.394, 328.314 267.648 C 328.568 267.902, 334.564 266.753, 341.638 265.094 C 355.715 261.795, 372.105 258.772, 372.699 259.366 C 372.906 259.573, 369.686 261.352, 365.544 263.319 C 351.135 270.162, 342.385 277.630, 325.885 297.171 C 311.183 314.581, 305.169 318.896, 294.397 319.760 C 290.188 320.098, 286.703 319.746, 283.520 318.661 L 278.835 317.065 279.546 321.269 C 284.301 349.418, 313.815 363.252, 343.776 351.378 C 355.722 346.643, 360.271 342.942, 364.869 334.219 C 369.470 325.491, 370.118 326.362, 366.638 336.594 C 362.587 348.505, 355.021 360.650, 345.638 370.304 C 343.087 372.929, 341 375.346, 341 375.674 C 341 376.856, 370.663 375.090, 378 373.471 C 411.912 365.992, 452.724 340.059, 473.800 312.597 C 477.230 308.128, 477.201 309.688, 473.633 321.547 C 470.450 332.127, 468.555 337.538, 464.082 348.822 L 461.973 354.143 464.236 353.501 C 476.202 350.107, 488.847 341.670, 507.868 324.390 C 519.210 314.086, 527.670 308.657, 534.618 307.222 C 538.451 306.430, 538.503 306.358, 538.744 301.460 C 539.266 290.842, 541.291 280.054, 544.697 269.738 L 548.251 258.977 545.708 255.135 C 538.565 244.341, 521.931 229.995, 509.115 223.576 C 502.405 220.214, 498 218.517, 498 219.292 M 583.677 222.090 C 561.178 236.993, 542.035 278.410, 542.006 312.250 C 541.999 319.626, 540.562 321.286, 539.520 315.121 C 538.880 311.328, 538.791 311.258, 535.567 311.985 C 529.602 313.330, 521.784 318.371, 512.278 327 C 493.912 343.673, 489.558 346.983, 479.500 351.923 C 469.509 356.830, 460.024 359.751, 458.047 358.529 C 456.463 357.550, 456.778 354.633, 459.101 348.787 C 460.256 345.879, 462.490 340.026, 464.065 335.779 L 466.928 328.059 457.214 336.555 C 431.852 358.740, 404.889 373.104, 378.500 378.490 C 362.773 381.699, 338.672 381.704, 334.362 378.499 C 332.615 377.200, 332.907 376.694, 339.091 370.307 C 345.148 364.052, 351.681 356.269, 353.388 353.276 C 353.772 352.603, 351.718 353.149, 348.825 354.490 C 345.932 355.830, 341.354 357.493, 338.651 358.186 C 332.750 359.699, 331.405 362.159, 326.998 379.500 C 324.233 390.382, 321.194 412.527, 322.312 413.645 C 323.291 414.624, 339.315 406.366, 345.592 401.647 C 351.938 396.877, 357.282 390.228, 358.370 385.750 C 359.198 382.342, 360.760 382.194, 361.576 385.447 C 363.738 394.062, 350.809 407.126, 332.765 414.559 C 328.219 416.431, 323.938 417.972, 323.250 417.982 C 322.360 417.995, 322.020 420.090, 322.068 425.250 C 322.125 431.408, 322.301 432.124, 323.237 430 C 326.672 422.202, 327.292 420.959, 327.594 421.261 C 327.777 421.444, 327.276 423.755, 326.481 426.397 C 325.686 429.040, 324.730 434.180, 324.357 437.821 L 323.679 444.441 326.589 442.506 C 340.146 433.493, 360.599 422.906, 364.162 423.057 C 364.898 423.088, 361.807 424.849, 357.294 426.971 C 341.429 434.430, 324.094 445.263, 324.045 447.750 C 323.986 450.726, 323.749 450.799, 334.306 444.609 C 343.075 439.467, 361.399 430.712, 369.119 427.976 L 372.738 426.693 371.406 421.645 C 370.674 418.868, 368.921 414.374, 367.512 411.657 C 364.129 405.136, 365.078 404.480, 368.990 410.635 C 377.284 423.681, 379.055 447.205, 372.958 463.329 C 371.266 467.804, 363.325 481, 362.324 481 C 362.081 481, 362.211 480.438, 362.613 479.750 C 363.015 479.063, 362.479 479.235, 361.422 480.133 C 353.122 487.188, 340.830 487.923, 334.250 481.759 L 332 479.651 332 483.851 C 332 486.711, 330.828 490.353, 328.324 495.275 C 320.864 509.938, 323.993 521.259, 339.881 537.086 C 379.772 576.825, 452.691 590.753, 517.188 570.954 C 576.716 552.681, 612.296 498.717, 612.433 426.500 C 612.470 406.686, 611.847 400.359, 609.971 401.518 C 608.386 402.498, 608.872 400.707, 611.061 397.500 C 631.411 367.690, 638.545 319.440, 628.407 280.181 C 620.642 250.109, 601.340 219.023, 590.421 219.004 C 589.278 219.002, 586.243 220.391, 583.677 222.090 M 340.082 230.035 C 334.340 235.952, 323 259.619, 323 265.687 C 323 265.949, 325.039 263.764, 327.530 260.832 C 333.227 254.127, 342.450 246.226, 351.500 240.299 C 355.350 237.777, 358.689 235.551, 358.921 235.353 C 360.465 234.028, 348.674 226, 345.183 226 C 344.531 226, 342.236 227.816, 340.082 230.035 M 598.293 255.321 C 610.467 287.046, 609.765 321.836, 596.393 349.500 C 590.805 361.061, 590.726 361.114, 585.942 356.448 C 580.193 350.841, 576.184 344.179, 573.182 335.244 C 569.612 324.617, 569.440 301.040, 572.841 288.585 C 575.351 279.394, 575.125 277.927, 572.246 284.720 C 568.696 293.095, 566.777 303.844, 566.749 315.500 C 566.704 334.756, 570.929 345.971, 582.760 358 L 590.137 365.500 593.664 361.500 C 612.405 340.251, 616.661 289.044, 602.087 260.172 C 599.370 254.790, 596.855 251.575, 598.293 255.321 M 331.832 271.776 L 321.163 274.313 320.475 283.486 C 319.461 297.017, 319.541 297.066, 327.500 287.779 C 331.350 283.287, 337.317 277.224, 340.761 274.306 C 348.095 268.091, 347.746 267.992, 331.832 271.776 M 636.718 343.615 C 636.323 344.010, 636 345.334, 636 346.557 C 636 355.383, 627.366 378.610, 619.880 389.922 L 614.969 397.343 616.484 407.550 C 621.099 438.629, 614.337 478.517, 599.572 507.315 L 594.177 517.837 600.750 514.888 C 610.514 510.507, 620.012 503.811, 626.887 496.462 C 634.020 488.836, 634.318 487.904, 629.250 489.081 C 627.188 489.560, 622.800 489.959, 619.500 489.967 L 613.500 489.982 622 482.129 C 640.389 465.140, 651.846 443.431, 653.683 422.092 C 654.407 413.674, 655.079 413.750, 645.304 421.149 C 637.606 426.975, 632.416 429.873, 633.298 427.851 C 643.679 404.075, 645.479 396.138, 644.701 377.581 C 644.345 369.099, 643.458 362.039, 642.177 357.500 C 639.293 347.281, 637.532 342.801, 636.718 343.615 M 543.061 350.339 C 539.031 360.939, 539.207 376.061, 543.402 379.669 C 550.936 386.150, 558.376 375.465, 553.618 364.997 L 552.028 361.500 552.615 367.772 C 553.270 374.778, 551.535 379, 548 379 C 542.901 379, 541.149 368.233, 544.007 354.466 C 545.256 348.449, 544.701 346.026, 543.061 350.339 M 786.790 399.742 C 772.675 416.659, 755.925 436.575, 749.569 444 C 743.213 451.425, 738.010 458.047, 738.006 458.715 C 737.999 460.083, 741.109 462, 743.336 462 C 744.143 462, 755.985 448.645, 769.652 432.321 C 806.547 388.253, 812.018 382, 813.681 382 C 814.515 382, 828.483 393.137, 844.722 406.750 C 860.962 420.363, 879.214 435.663, 885.283 440.750 C 891.352 445.837, 896.634 450, 897.022 450 C 897.410 450, 898.935 448.792, 900.411 447.316 L 903.094 444.633 900.297 441.896 C 895.663 437.362, 814.616 369.809, 813.130 369.242 C 812.758 369.101, 800.906 382.826, 786.790 399.742 M 473.750 375.583 C 472.189 377.145, 472.995 386.480, 474.971 389.720 C 480.786 399.257, 506.267 410.313, 535.383 415.932 C 558.570 420.406, 560.050 417.969, 537.750 412.032 C 494.136 400.422, 477.356 391.545, 475.203 378.946 C 474.816 376.684, 474.163 375.170, 473.750 375.583 M 848 379 L 848 383 862 383 L 876 383 876 379 L 876 375 862 375 L 848 375 848 379 M 783.941 418.250 C 768.267 437.087, 754.950 453.175, 754.349 454 C 753.547 455.099, 753.880 463.118, 755.593 484 C 758 513.339, 766 615.134, 766 616.419 C 766 616.815, 767.013 616.995, 768.250 616.820 C 769.964 616.576, 770.574 615.740, 770.809 613.312 C 771.041 610.912, 771.659 610.047, 773.309 609.812 C 774.969 609.576, 775.576 608.712, 775.813 606.250 C 776.077 603.513, 776.530 603, 778.682 603 L 781.238 603 780.635 593.750 C 780.304 588.663, 779.747 577.723, 779.398 569.441 L 778.762 554.381 776.074 554.776 C 773.369 555.173, 770.475 553.010, 771.155 551.101 C 771.802 549.288, 802.330 524.913, 803.417 525.341 C 805.501 526.163, 836.503 548.129, 836.815 549.005 C 838.001 552.334, 832.748 555.348, 830.200 552.800 C 829.267 551.867, 829 557.311, 829 577.300 L 829 603 831.500 603 C 833.628 603, 834 603.460, 834 606.094 C 834 608.346, 834.544 609.329, 836 609.710 C 837.503 610.103, 838 611.074, 838 613.617 L 838 617 844.750 617.077 C 848.462 617.119, 852.193 617.290, 853.040 617.457 C 854.321 617.710, 854.522 616.730, 854.236 611.631 C 853.525 598.975, 865.430 591.424, 876.750 597.350 L 880 599.051 880.022 595.276 C 880.034 593.199, 880.905 589.603, 881.958 587.284 C 883.718 583.406, 883.963 578.677, 885.011 528.284 C 885.637 498.153, 886.003 466.773, 885.825 458.551 L 885.500 443.602 877.500 436.662 C 857.947 419.700, 814.614 384, 813.580 384 C 812.953 384, 799.615 399.413, 783.941 418.250 M 852 391.910 L 852 398.821 860.226 405.660 C 864.751 409.422, 869.476 413.320, 870.726 414.323 L 873 416.145 873 400.573 L 873 385 862.500 385 L 852 385 852 391.910 M 463.960 406.698 C 449.040 423.692, 447.817 457.705, 461.389 478.199 C 479.285 505.220, 520.358 504.657, 537.881 477.152 C 546.884 463.019, 548.082 441.919, 540.798 425.750 C 539.621 423.137, 538.273 421, 537.803 421 C 537.333 421, 537.635 422.328, 538.474 423.950 C 542.048 430.861, 544.564 452.057, 542.235 455.625 C 541.729 456.400, 536.019 454.656, 523.904 450.025 C 514.226 446.326, 495.214 439.570, 481.654 435.011 C 468.094 430.452, 457 426.352, 457 425.899 C 457 423.857, 461.315 413.858, 464.428 408.690 C 468.442 402.024, 468.362 401.684, 463.960 406.698 M 583.322 413.735 C 580.582 425.412, 580.834 436.130, 583.924 439.419 C 587.297 443.009, 592.117 442.936, 595.023 439.250 C 597.855 435.658, 597.574 424.087, 594.586 421.253 C 592.810 419.568, 592.765 419.597, 593.433 422 C 596.943 434.628, 592.371 444.621, 586.309 437.572 C 583.549 434.365, 583.291 428.108, 585.385 415.226 C 587.111 404.614, 585.700 403.595, 583.322 413.735 M 811.500 414.491 C 810.950 414.675, 809.297 415.089, 807.827 415.412 C 804.114 416.228, 799.281 420.528, 796.956 425.086 C 789.287 440.119, 806.102 456.454, 821.548 448.977 C 835.461 442.242, 835.525 422.878, 821.655 416.420 C 816.886 414.199, 814.012 413.654, 811.500 414.491 M 805.907 418.325 C 801.229 420.793, 797.046 426.680, 797.016 430.835 C 797 433.143, 797.091 433.162, 804.750 432.464 C 809.013 432.075, 812.613 431.661, 812.751 431.544 C 813.332 431.052, 811.646 416, 811.011 416 C 810.628 416, 808.331 417.046, 805.907 418.325 M 814 423.875 L 814 432 822 432 C 829.733 432, 830 431.921, 830 429.648 C 830 424.618, 823.208 417.554, 817.250 416.387 L 814 415.750 814 423.875 M 469.244 423.077 C 470.203 423.635, 478.263 426.563, 487.154 429.583 C 496.045 432.602, 511.792 438.656, 522.147 443.036 C 532.502 447.416, 541.305 451, 541.710 451 C 543.778 451, 536.724 447.498, 520.557 440.498 C 499.538 431.399, 461.164 418.370, 469.244 423.077 M 821.250 433.740 L 815 434.095 815 441.656 L 815 449.217 817.750 448.563 C 821.478 447.677, 825.047 444.982, 827.750 441.010 C 830.190 437.425, 830.772 432.881, 828.750 433.193 C 828.063 433.299, 824.688 433.545, 821.250 433.740 M 797.437 436.750 C 798.771 442.365, 804.110 447.509, 809.750 448.613 L 813 449.250 813 441.625 L 813 434 804.892 434 L 796.783 434 797.437 436.750 M 341.725 445.779 C 335.864 449.118, 335.465 452.305, 340.844 452.820 C 345.239 453.241, 348 450.743, 348 446.345 C 348 442.333, 347.803 442.315, 341.725 445.779 M 491.004 446.750 C 491.016 455.928, 503.363 461.152, 508.637 454.211 C 510.929 451.193, 510.165 450.480, 501.129 447.210 C 490.434 443.340, 490.999 443.365, 491.004 446.750 M 456.069 449 C 455.976 453.056, 459.186 464.426, 461.999 469.998 C 478.022 501.739, 521.288 501.571, 536.973 469.708 C 538.920 465.753, 539.937 462.572, 539.408 462.092 C 538.427 461.201, 514.519 451.989, 513.262 452.017 C 512.843 452.026, 511.433 454.498, 510.130 457.509 C 500.231 480.376, 467.583 477.357, 458.103 452.698 C 457.003 449.839, 456.089 448.175, 456.069 449 M 329.750 452.773 C 325.522 455.589, 325.358 456.451, 327.595 464.068 C 334.784 488.544, 359.780 487.292, 368.896 462 C 371.988 453.422, 372.425 450.842, 370.055 455.158 C 361.607 470.544, 343.178 470.499, 335.797 455.075 L 333.500 450.276 329.750 452.773 M 575.698 457.683 C 572.879 462.265, 572.460 479.953, 575.110 482.467 C 581.672 488.691, 588.294 480.161, 585.370 469.250 C 584.207 464.911, 582.989 467.053, 583.610 472.343 C 584.366 478.772, 582.918 482.272, 579.692 481.811 C 575.678 481.237, 574.597 476.870, 575.975 466.789 C 577.091 458.617, 576.999 455.569, 575.698 457.683 M 841.250 462.737 L 836 463.105 836 472.397 C 836 477.507, 836.293 486.484, 836.652 492.344 L 837.304 503 852.070 503 C 860.192 503, 867.548 502.727, 868.418 502.393 C 869.787 501.868, 870 499.110, 870 481.893 L 870 462 858.250 462.185 C 851.788 462.287, 844.138 462.535, 841.250 462.737 M 777.500 464.909 C 772.550 465.252, 768.040 465.826, 767.479 466.184 C 766.493 466.813, 766.918 479.445, 768.546 497.897 L 769.198 505.293 784.849 504.596 C 793.457 504.212, 800.881 503.518, 801.346 503.053 C 801.811 502.588, 801.811 493.724, 801.346 483.354 L 800.500 464.500 793.500 464.392 C 789.650 464.333, 782.450 464.566, 777.500 464.909 M 838.667 464.667 C 838.300 465.033, 838 469.083, 838 473.667 L 838 482 845 482 L 852 482 852 473 L 852 464 845.667 464 C 842.183 464, 839.033 464.300, 838.667 464.667 M 854 473.044 L 854 482.088 861.250 481.794 L 868.500 481.500 868.789 472.750 L 869.078 464 861.539 464 L 854 464 854 473.044 M 784.917 466.412 C 784.688 466.639, 784.647 470.750, 784.827 475.549 L 785.155 484.273 792.269 483.612 C 796.182 483.248, 799.440 482.849, 799.510 482.725 C 799.579 482.601, 799.445 478.788, 799.212 474.250 L 798.788 466 792.061 466 C 788.361 466, 785.146 466.185, 784.917 466.412 M 768.687 467.750 C 768.449 468.163, 768.484 472.268, 768.763 476.873 L 769.271 485.246 774.386 484.632 C 777.199 484.294, 780.400 484.015, 781.500 484.011 C 783.368 484.005, 783.479 483.444, 783.177 475.502 L 782.853 467 775.986 467 C 772.208 467, 768.924 467.337, 768.687 467.750 M 370.114 477.984 C 367.717 481.812, 352.717 492.539, 346.500 494.871 L 343.500 495.997 346.750 495.672 C 348.538 495.493, 349.993 495.381, 349.985 495.423 C 349.977 495.465, 349.321 497.300, 348.529 499.500 C 346.599 504.858, 346.631 516.381, 348.595 523.068 C 352.677 536.965, 360.141 545.881, 369.973 548.605 C 373.013 549.448, 376.162 550.355, 376.971 550.622 C 377.780 550.889, 382.055 551.229, 386.471 551.379 C 390.887 551.529, 395.104 551.842, 395.843 552.075 C 396.582 552.309, 397.668 551.770, 398.257 550.878 C 401.059 546.636, 391.173 536.714, 382.790 535.353 C 378.290 534.623, 375 537.486, 375 542.131 C 375 545.187, 374.911 545.247, 371.273 544.657 C 360.804 542.958, 352.160 528.782, 351.234 511.793 C 350.616 500.451, 352.826 496.184, 362.472 490.092 C 372.104 484.009, 382.670 482.700, 399.500 485.507 C 402.454 486, 402.446 485.983, 399 484.399 C 394.094 482.143, 383.563 480.671, 376.754 481.289 C 370.530 481.853, 370.485 481.830, 372.063 478.882 C 374.145 474.993, 372.471 474.222, 370.114 477.984 M 244.684 512.750 C 245.031 535.867, 245.639 550.888, 246.253 551.500 C 246.923 552.168, 247.047 543.410, 246.628 525.088 C 246.283 510.011, 246 492.573, 246 486.338 C 246 479.919, 245.592 475, 245.059 475 C 244.477 475, 244.334 489.424, 244.684 512.750 M 358.500 483.588 C 353.824 487.343, 347.406 490, 343.011 490 C 340.805 490, 339 490.450, 339 491 C 339 494.360, 352.963 490.480, 358.654 485.538 C 363.105 481.674, 362.973 479.997, 358.500 483.588 M 457 485.027 C 457 491.498, 477.812 509.563, 483.198 507.767 C 483.816 507.561, 481.833 506.174, 478.790 504.686 C 471.817 501.274, 464.839 495.167, 460.425 488.612 C 458.541 485.815, 457 484.202, 457 485.027 M 838 486.353 C 838 487.648, 838.289 491.473, 838.642 494.853 L 839.285 501 846.249 501 C 852.189 501, 853.125 500.767, 852.607 499.418 C 852.273 498.548, 852 494.723, 852 490.918 L 852 484 845 484 C 838.316 484, 838 484.106, 838 486.353 M 854 492.500 L 854 501 861 501 L 868 501 868 495.625 C 868 492.669, 868.281 488.844, 868.625 487.125 L 869.250 484 861.625 484 L 854 484 854 492.500 M 464 486.057 C 464 488.552, 474.395 497.920, 480.497 500.924 C 488.929 505.075, 499.883 507.365, 506.483 506.357 C 511.449 505.599, 511.409 505.584, 502.576 504.866 C 488.226 503.700, 475.791 498.045, 467.571 488.947 C 465.607 486.773, 464 485.472, 464 486.057 M 788.495 485.705 L 785.489 486.090 785.851 494.295 C 786.049 498.808, 786.305 502.603, 786.419 502.730 C 786.533 502.856, 789.635 502.679, 793.313 502.335 L 800 501.711 800 493.355 L 800 485 795.750 485.160 C 793.413 485.248, 790.148 485.493, 788.495 485.705 M 770.500 486.657 C 769.510 486.995, 769.969 502.317, 771 503.327 C 772.318 504.619, 785.094 502.686, 784.553 501.277 C 784.249 500.485, 784 496.699, 784 492.865 L 784 485.894 777.750 486.105 C 774.313 486.221, 771.050 486.469, 770.500 486.657 M 177 489.476 C 177 489.737, 183.476 502.225, 191.392 517.226 C 199.307 532.226, 207.732 548.438, 210.114 553.250 C 212.497 558.063, 214.784 562, 215.198 562 C 216.656 562, 213.314 555.310, 183.611 498.770 C 179.288 490.541, 177 487.324, 177 489.476 M 353.596 503.610 C 352.634 506.116, 355.629 510, 358.523 510 C 361.742 510, 361.659 509.579, 357.619 505.419 C 354.778 502.494, 354.135 502.205, 353.596 503.610 M 397.056 503.895 C 396.499 504.937, 394.683 506.264, 393.021 506.843 C 389.001 508.244, 388.987 511, 393 511 C 396.656 511, 400 507.894, 400 504.500 C 400 501.540, 398.483 501.228, 397.056 503.895 M 729 518.045 C 717.175 519.021, 706.266 519.859, 704.758 519.909 C 702.282 519.991, 701.407 521.192, 695.766 532.250 C 688.126 547.225, 688.264 546.743, 691.709 546.334 C 694.587 545.991, 754.664 542, 756.942 542 C 758.183 542, 757.717 522.535, 756.361 517.750 C 755.783 515.711, 757.542 515.692, 729 518.045 M 585.128 530.432 C 578.318 539.096, 571.635 545.718, 562.809 552.548 C 558.579 555.822, 554.079 559.312, 552.809 560.304 L 550.500 562.108 553.424 561.660 C 559.192 560.774, 576.275 567.699, 579.428 572.200 C 581.192 574.719, 581.540 580.548, 579.984 581.510 C 578.197 582.614, 579.823 583.703, 584.223 584.347 C 586.575 584.691, 589.513 585.256, 590.750 585.603 C 592.704 586.150, 593.002 585.857, 593.017 583.367 C 593.158 560.126, 610.578 539.773, 632.500 537.235 L 639.500 536.425 633.500 534.106 C 624.965 530.807, 606.844 526.336, 597.695 525.271 L 589.897 524.363 585.128 530.432 M 787.750 539.108 C 779.638 545.751, 773 551.594, 773 552.093 C 773 554.564, 777.129 552.088, 789 542.500 C 796.150 536.725, 802.389 532, 802.865 532 C 803.341 532, 809.979 536.334, 817.615 541.630 C 825.252 546.927, 832.127 551.314, 832.892 551.380 C 836.396 551.682, 834.567 548.784, 828.808 544.906 C 825.339 542.570, 818.172 537.585, 812.882 533.829 C 807.592 530.073, 803.092 527.007, 802.882 527.015 C 802.672 527.023, 795.862 532.465, 787.750 539.108 M 127.046 533.635 C 127.110 534.828, 192.159 584.174, 192.810 583.523 C 193.469 582.864, 197.147 585.803, 162.500 559.306 C 130.503 534.836, 126.974 532.281, 127.046 533.635 M 275.353 534.926 C 269.752 538.341, 268.910 544.787, 273.399 549.887 C 275.098 551.818, 275.224 552.372, 274.057 552.785 C 270.581 554.014, 267.767 558.086, 268.357 561.033 C 268.890 563.699, 268.575 564.094, 264.474 565.909 C 259.210 568.237, 257.462 571.319, 258.442 576.543 L 259.135 580.239 260.818 576.869 C 262.190 574.121, 263.389 573.281, 267.327 572.309 C 273.573 570.767, 274.823 569.635, 275.194 565.181 C 275.489 561.645, 275.664 561.491, 280.097 560.862 C 285.806 560.052, 290.582 557.650, 292.090 554.831 C 293.776 551.681, 294.227 540.924, 292.788 538.165 C 290.125 533.057, 281.153 531.390, 275.353 534.926 M 792.954 541.587 C 787.754 545.760, 783.275 549.421, 783 549.723 C 782.725 550.025, 791.275 549.990, 802 549.647 C 812.725 549.304, 822.366 549.018, 823.424 549.011 C 825.049 549.002, 804.619 534.026, 802.954 534.007 C 802.653 534.003, 798.153 537.414, 792.954 541.587 M 627.734 541.088 C 610.765 545.086, 598.425 560.640, 596.379 580.608 C 595.816 586.102, 595.951 587, 597.343 587 C 598.303 587, 599.197 585.880, 599.539 584.250 C 602.419 570.515, 605.077 564.628, 611.316 558.166 C 619.894 549.280, 632.176 545.905, 642.933 549.478 C 652.210 552.559, 657.852 560.447, 660.420 573.929 C 662.309 583.842, 663.411 584.134, 662.578 574.500 C 660.220 547.219, 648.681 536.153, 627.734 541.088 M 384.400 541.765 C 383.256 542.529, 381 546.365, 381 547.546 C 381 547.918, 382.462 547.959, 384.250 547.636 C 386.038 547.314, 389.177 547.439, 391.226 547.914 C 394.630 548.704, 394.869 548.623, 393.989 546.979 C 393.459 545.989, 391.504 544.239, 389.645 543.089 C 385.845 540.741, 385.909 540.757, 384.400 541.765 M 847.750 543.795 L 844 544.121 844 554.409 C 844 560.068, 844.291 568.141, 844.647 572.349 L 845.293 580 860.169 580 L 875.045 580 874.773 561.750 L 874.500 543.500 863 543.485 C 856.675 543.477, 849.813 543.616, 847.750 543.795 M 723.245 545.971 C 709.904 546.910, 698.835 547.863, 698.646 548.089 C 698.245 548.568, 703.635 594.371, 704.500 597.841 C 704.940 599.606, 705.504 599.993, 706.792 599.414 C 710.883 597.573, 717.973 597.787, 721.479 599.855 L 724.952 601.904 726.646 598.334 C 730.518 590.173, 743.793 588.447, 747.787 595.584 C 748.579 596.999, 749.041 596.945, 752.087 595.088 C 753.964 593.944, 756.962 593.006, 758.750 593.004 C 762.656 592.999, 762.567 594.246, 760.493 568.500 C 759.695 558.600, 759.033 549.038, 759.021 547.250 L 759 544 753.250 544.133 C 750.087 544.206, 736.585 545.033, 723.245 545.971 M 846 553 L 846 561 852.500 561 L 859 561 859 553 L 859 545 852.500 545 L 846 545 846 553 M 860.917 545.412 C 860.688 545.639, 860.648 549.239, 860.829 553.412 L 861.158 561 867.079 561 L 873 561 873 553 L 873 545 867.167 545 C 863.958 545, 861.146 545.185, 860.917 545.412 M 315.660 563.616 C 307.542 570.555, 301.123 576.457, 301.397 576.730 C 302.003 577.336, 303.333 576.291, 318.798 563.063 C 329.119 554.236, 332.314 551, 330.710 551 C 330.551 551, 323.778 556.677, 315.660 563.616 M 791.624 551.747 L 780.748 552.070 781.410 572.285 C 782.345 600.816, 782.644 603, 785.615 603 L 788 603 788 580.572 L 788 558.144 793.250 557.511 C 796.138 557.163, 803.225 557.018, 809 557.189 L 819.500 557.500 820.121 572.500 C 820.462 580.750, 820.800 590.763, 820.871 594.750 L 821 602 824 602 L 827 602 827.077 578.250 C 827.119 565.188, 827.304 553.712, 827.488 552.750 C 827.844 550.889, 824.094 550.784, 791.624 551.747 M 625.275 553.654 C 619.714 555.623, 612.091 562.579, 608.734 568.748 C 602.973 579.332, 602.697 582.738, 603.367 635 C 604.333 710.340, 605.956 719.267, 618.667 719.148 C 631.813 719.026, 658.360 710.171, 662.905 704.393 C 666.169 700.244, 665.473 699.913, 658.750 702.422 C 638.084 710.135, 618.482 708.642, 613.801 699 C 611.351 693.953, 610 680.924, 610 662.341 C 610 642.569, 610.304 641.581, 616.997 639.594 C 624.939 637.235, 649.108 632.095, 656.194 631.257 L 662.596 630.500 660.400 606.390 C 657.890 578.835, 656.013 568.405, 652.479 562.373 C 647.115 553.220, 636.294 549.752, 625.275 553.654 M 726.581 555.635 C 716.175 556.389, 707.502 557.165, 707.307 557.360 C 707.112 557.555, 707.533 563.516, 708.244 570.607 L 709.535 583.500 720.017 583.170 C 725.783 582.988, 735.450 582.538, 741.500 582.170 L 752.500 581.500 752.145 568.500 C 751.950 561.350, 751.586 555.163, 751.336 554.750 C 750.804 553.871, 751.042 553.863, 726.581 555.635 M 742.250 556.662 C 740.897 557.208, 740.455 566.589, 741.750 567.285 C 742.163 567.507, 744.300 567.498, 746.500 567.265 L 750.500 566.841 750.157 561.420 C 749.819 556.057, 749.782 556.001, 746.657 556.079 C 744.921 556.122, 742.938 556.385, 742.250 556.662 M 724.250 557.807 C 720.037 558.112, 720 558.149, 720 561.976 C 720 567.983, 720.731 569, 725.048 569 C 729.705 569, 729.842 568.780, 729.095 562.500 L 728.500 557.500 724.250 557.807 M 731 562.500 L 731 568 735.500 568 C 740.436 568, 740.528 567.828, 739.358 560.750 C 738.766 557.170, 738.563 557, 734.869 557 L 731 557 731 562.500 M 710.750 558.689 C 708.896 559.174, 708.565 561.576, 709.623 566.867 C 710.228 569.889, 710.373 569.965, 714.373 569.353 C 719.567 568.558, 719.215 569.101, 718.421 563.117 C 717.708 557.742, 716.669 557.142, 710.750 558.689 M 790.667 559.667 C 790.300 560.033, 790 570.001, 790 581.817 L 790 603.302 799.750 602.656 C 805.112 602.301, 811.638 602.008, 814.250 602.005 L 819 602 819 594.158 C 819 589.845, 818.705 580.170, 818.345 572.658 L 817.690 559 804.512 559 C 797.264 559, 791.033 559.300, 790.667 559.667 M 846.176 570.499 L 846.500 577.998 852.750 577.999 L 859 578 859 570.500 L 859 563 852.426 563 L 845.852 563 846.176 570.499 M 861 570.500 L 861 578 867 578 L 873 578 873 570.500 L 873 563 867 563 L 861 563 861 570.500 M 553.088 566.159 C 541.843 570.337, 521.086 591.928, 513.133 607.721 C 509.052 615.825, 508.933 615.568, 516.750 615.532 C 520.462 615.514, 525.136 615.848, 527.136 616.274 C 530.410 616.971, 530.829 616.818, 531.353 614.729 C 533.923 604.489, 552.764 584.768, 568.377 575.975 L 574.255 572.665 569.877 570.443 C 562.989 566.947, 555.863 565.128, 553.088 566.159 M 534.427 569.530 C 515.970 578.287, 488.517 584, 460.500 584.913 L 442.500 585.500 440.222 593.500 C 438.970 597.900, 437.092 605.668, 436.050 610.762 L 434.155 620.025 436.697 624.574 C 442.179 634.383, 439.971 656.909, 432.763 664.715 C 430.942 666.687, 430.790 667.730, 431.381 674.246 C 434.933 713.450, 459.031 740.889, 498.500 750.672 C 508.175 753.070, 511.488 753.404, 526 753.445 C 546.543 753.504, 546.284 753.590, 544.390 747.312 C 542.597 741.366, 541.322 727.066, 542.713 728.500 C 543.247 729.050, 544.238 732.094, 544.917 735.264 C 549.078 754.718, 559.868 769.564, 576 778.036 C 583.835 782.151, 584.257 782.524, 581.391 782.803 L 578.282 783.106 577.702 793.303 C 577.317 800.065, 576.073 807.332, 574.009 814.877 C 570.339 828.295, 570.337 833.450, 574 836.128 C 584.607 843.882, 622.816 842.211, 630.868 833.641 C 637.398 826.690, 635.304 793.905, 626.572 766.383 C 623.068 755.337, 621.319 753.309, 614.572 752.466 C 607.843 751.625, 607.769 751.387, 609.612 736.434 C 611.241 723.219, 611.304 723.479, 606.272 722.615 C 604.197 722.259, 600.250 720.854, 597.500 719.493 C 594.750 718.132, 591.087 717.014, 589.360 717.009 C 574.515 716.966, 550.137 708.151, 532.354 696.396 C 525.117 691.613, 510 677.129, 510 674.979 C 510 674.529, 507.823 673.438, 505.161 672.554 C 495.694 669.409, 492.537 663.136, 492.550 647.500 C 492.562 634.142, 494.736 626.894, 500.327 621.575 C 502.819 619.204, 505.134 615.716, 506.172 612.769 C 511.347 598.074, 527.117 578.177, 540.583 569.353 C 542.873 567.853, 543.870 565.899, 542.250 566.087 C 541.837 566.135, 538.317 567.684, 534.427 569.530 M 235 568.583 C 210.323 575.093, 194.707 595.160, 194.597 620.500 C 194.544 632.810, 195.566 636, 199.567 636 C 202.565 636, 203.438 634.147, 202.583 629.593 C 202.091 626.967, 201.542 626.307, 200.154 626.670 C 199.167 626.928, 197.799 626.463, 197.113 625.636 C 196.071 624.381, 197.809 621.309, 207.683 606.953 L 219.500 589.771 229.500 590.407 C 235 590.756, 242.088 591.316, 245.250 591.650 C 250.946 592.253, 251 592.234, 251 589.629 C 251 588.183, 250.550 587, 250 587 C 249.450 587, 249 585.650, 249 584 C 249 581.111, 249.167 581, 253.500 581 C 258.304 581, 258.655 580.532, 256.839 576.547 C 255.951 574.597, 255.963 573.376, 256.891 571.341 C 257.859 569.216, 257.841 568.515, 256.801 567.856 C 254.726 566.540, 241.011 566.997, 235 568.583 M 742 574.500 L 742 580 746.500 580 L 751 580 751 574.500 L 751 569 746.500 569 L 742 569 742 574.500 M 723.250 570.706 C 721.292 571.083, 721 571.758, 721 575.903 C 721 581.712, 720.945 581.653, 725.948 581.176 L 730 580.790 730 575.395 C 730 569.584, 729.799 569.444, 723.250 570.706 M 731.393 571.582 C 731.727 572.452, 732 574.954, 732 577.142 L 732 581.121 735.750 580.810 L 739.500 580.500 739.802 575.250 L 740.105 570 735.445 570 C 731.607 570, 730.893 570.279, 731.393 571.582 M 710.564 571.897 C 710.259 572.390, 710.294 574.865, 710.641 577.397 L 711.272 582 715.753 582 C 719.911 582, 720.190 581.838, 719.630 579.750 C 719.299 578.513, 719.021 576.038, 719.014 574.250 C 719.001 571.135, 718.836 571, 715.059 571 C 712.891 571, 710.869 571.403, 710.564 571.897 M 267.413 573.943 C 262.950 575.010, 262 575.820, 262 578.559 C 262 580.583, 262.493 581, 264.883 581 C 268.330 581, 269.804 584.454, 267.462 587.042 C 265.131 589.618, 265.585 593, 268.262 593 C 270.001 593, 272.370 595.588, 278.512 604.200 C 293.908 625.788, 293.393 624.823, 289.989 625.713 C 288.854 626.010, 287.725 627.385, 287.396 628.869 C 287.076 630.316, 286.618 632.232, 286.379 633.126 C 285.855 635.083, 288.565 635.967, 295.143 635.986 C 300.820 636.003, 301.049 635.569, 301.734 623.500 C 302.829 604.224, 293.950 586.354, 278.298 576.331 C 272.855 572.846, 272.410 572.748, 267.413 573.943 M 568.504 578.540 C 559.614 583.893, 549.322 592.706, 543.464 599.981 C 538.506 606.137, 531.561 616.942, 532.205 617.497 C 534.762 619.700, 536.676 618.639, 539.345 613.540 C 544.668 603.371, 556.970 591.175, 569.753 583.393 C 574.192 580.690, 576.609 578.552, 576.820 577.143 C 577.273 574.103, 575.330 574.429, 568.504 578.540 M 809.364 581.493 C 809.018 582.396, 809.214 583.614, 809.800 584.200 C 811.324 585.724, 814.210 584.331, 813.812 582.265 C 813.369 579.963, 810.165 579.407, 809.364 581.493 M 250.459 583.067 C 249.526 584.575, 250.499 585.256, 253.979 585.530 C 256.355 585.717, 257 585.365, 257 583.884 C 257 581.778, 251.667 581.112, 250.459 583.067 M 259 583.712 C 259 585.187, 259.789 585.545, 263.030 585.545 C 268.462 585.545, 268.213 582.643, 262.742 582.190 C 259.667 581.935, 259 582.206, 259 583.712 M 422.568 589.898 C 418.724 595.679, 411.997 609.679, 412.001 611.888 C 412.002 612.224, 414.151 612.564, 416.777 612.643 C 419.403 612.722, 423.218 613.482, 425.254 614.333 C 429.720 616.199, 429.416 616.642, 432.447 603.850 C 433.795 598.157, 435.601 591.517, 436.460 589.094 C 438.307 583.882, 438.715 584.426, 432.342 583.613 L 427.183 582.955 422.568 589.898 M 571.031 587.462 C 570.040 588.657, 570.549 589.803, 573.803 593.712 C 581.723 603.225, 590.678 619.528, 595.109 632.500 C 600.313 647.736, 597.918 668.348, 590.124 675.390 C 588.844 676.547, 588.200 678.099, 588.465 679.390 C 588.703 680.551, 589.182 684.538, 589.528 688.250 L 590.159 695 593.544 695 C 597.614 695, 598.314 696.089, 600.542 705.887 C 601.776 711.310, 601.899 713.417, 601.041 714.451 C 599.726 716.035, 600.475 716.702, 605.033 718.009 C 608.408 718.977, 608.540 718.784, 606.599 715.715 C 603.070 710.134, 601.760 693.676, 599.895 631.500 C 599.235 609.500, 598.636 591.410, 598.565 591.301 C 598.344 590.962, 574.920 586, 573.542 586 C 572.829 586, 571.699 586.658, 571.031 587.462 M 253 592.592 C 253 596.670, 253.542 598.873, 255 600.727 L 257 603.270 257 595.135 C 257 587.667, 256.836 587, 255 587 C 253.238 587, 253 587.667, 253 592.592 M 259 595.566 L 259 604.133 261.750 603.816 C 264.475 603.503, 264.503 603.425, 264.790 595.250 L 265.081 587 262.040 587 L 259 587 259 595.566 M 665.332 591.391 C 664.571 594.718, 665.942 624.400, 666.958 626.591 C 666.981 626.641, 669.466 627.234, 672.480 627.908 C 678.768 629.315, 680.919 631.479, 683.840 639.333 C 686.705 647.039, 687.421 652.528, 685.761 654.078 C 684.607 655.156, 684.590 656.437, 685.654 661.933 C 686.354 665.545, 686.941 672.325, 686.960 677 C 687.003 688.299, 685.418 691.011, 676.965 694.093 C 673.578 695.328, 670.675 696.825, 670.514 697.419 C 667.410 708.850, 663.790 712.262, 650.272 716.502 C 645.447 718.015, 641.127 719.592, 640.671 720.006 C 639.048 721.479, 639.894 736.448, 641.983 743.211 C 643.976 749.662, 649.968 758.982, 655.217 763.792 L 657.717 766.083 657.221 754.042 C 656.693 741.209, 657.716 738.467, 659.882 746.916 C 667.046 774.869, 708.266 783.836, 729.951 762.159 L 736.500 755.612 730.410 754.973 C 714.640 753.317, 703.987 741.373, 702.315 723.473 C 701.579 715.589, 703.054 707.060, 708.279 689 C 712.257 675.249, 712.472 673.828, 712.451 661.500 C 712.426 646.580, 710.708 640.524, 704.414 633.171 C 698.678 626.470, 705.922 628.477, 716.435 636.503 C 719.936 639.175, 721.044 639.646, 720.679 638.309 C 715.765 620.282, 711.645 612.767, 701.283 602.924 C 691.782 593.899, 683.445 589.817, 669.921 587.569 C 666.373 586.979, 666.334 587.011, 665.332 591.391 M 223.490 592.834 C 223.784 593.600, 228.631 600.902, 234.262 609.060 L 244.500 623.894 267.333 623.947 C 279.892 623.976, 290.017 623.651, 289.833 623.224 C 289.650 622.797, 285.069 616.272, 279.652 608.724 C 268.479 593.153, 266 591.544, 266 599.868 L 266 604.737 261.750 605.312 C 256.519 606.020, 251 601.652, 251 596.804 C 251 595.262, 250.887 593.966, 250.750 593.926 C 250.613 593.885, 244.302 593.309, 236.728 592.646 C 225.014 591.621, 223.035 591.649, 223.490 592.834 M 557.095 598.531 C 546.695 608.467, 542.706 614.354, 543.584 618.469 C 544.508 622.796, 545.173 623.360, 552.981 626.423 C 560.734 629.465, 563.357 631.654, 557.875 630.508 C 556.019 630.120, 548.200 627.753, 540.500 625.249 C 507.200 614.418, 495.692 621.159, 497.230 650.596 C 497.930 663.996, 500.501 667.311, 512.232 669.940 C 514.784 670.512, 522.069 672.758, 528.420 674.931 C 553.482 683.505, 575.237 682.457, 586.342 672.140 C 599.436 659.974, 594.883 632.109, 575.074 603.188 C 565.482 589.182, 566.582 589.467, 557.095 598.531 M 209.204 607.698 C 201.834 618.275, 198.527 623.831, 199.201 624.500 C 199.873 625.168, 200.588 624.885, 201.354 623.648 C 204.390 618.743, 215.788 601.907, 218.028 599.019 L 220.556 595.760 228.933 608.130 C 238.247 621.883, 240.906 625.176, 242.100 624.438 C 242.791 624.011, 238.703 617.886, 222.918 595.698 L 220.214 591.897 209.204 607.698 M 366 594.011 C 364.625 594.480, 352.475 597.873, 339 601.550 C 325.525 605.227, 314.050 608.683, 313.500 609.230 C 312.836 609.891, 313.172 610.047, 314.500 609.696 C 347.140 601.068, 370.992 594.336, 370.995 593.750 C 371.001 592.813, 369.241 592.905, 366 594.011 M 730.954 595.750 C 728.760 597.710, 727.715 599.706, 727.313 602.702 L 726.750 606.903 723.833 603.987 C 720.127 600.281, 715.147 598.844, 710.476 600.134 L 706.952 601.107 711.360 606.804 C 713.785 609.937, 716.286 613.513, 716.919 614.750 C 718.063 616.985, 718.225 617, 741.115 617 L 764.160 617 763.455 606.750 C 763.067 601.112, 762.555 596.163, 762.316 595.750 C 761.180 593.787, 754.932 595.121, 751.613 598.035 C 748.334 600.914, 748.124 600.967, 747.519 599.061 C 745.557 592.879, 736.249 591.018, 730.954 595.750 M 127 595.730 C 127 596.205, 136.787 599.017, 148.750 601.979 C 160.713 604.940, 173.087 608.140, 176.248 609.089 C 179.409 610.039, 182.216 610.460, 182.484 610.026 C 183.032 609.140, 182.915 609.106, 152.500 601.452 C 140.400 598.407, 129.713 595.680, 128.750 595.391 C 127.787 595.102, 127 595.254, 127 595.730 M 216.761 603.676 C 209.094 614.189, 202.988 624.390, 203.456 625.906 C 203.934 627.457, 206.973 652.251, 206.991 654.750 C 206.996 655.470, 208.272 656, 210 656 L 213 656 213 644.519 C 213 631.411, 212.874 631.573, 222.554 632.188 C 228.300 632.552, 228.836 633.899, 228.942 648.250 L 229 656 232.899 656 L 236.797 656 237.373 649.250 C 237.691 645.538, 238.235 638.766, 238.583 634.203 L 239.216 625.906 230.961 613.703 C 219.758 597.143, 220.925 597.967, 216.761 603.676 M 784.500 604.927 C 778.358 605.430, 777.500 605.745, 777.500 607.500 C 777.500 609.459, 778.061 609.493, 804.749 609.183 C 819.736 609.008, 831.998 608.671, 831.999 608.433 C 832.012 603.645, 833.635 603.986, 811.750 604.177 C 800.612 604.274, 788.350 604.611, 784.500 604.927 M 403.111 613.979 C 395.174 624.020, 391.964 633.086, 391.907 645.626 C 391.830 662.415, 398.106 667.770, 415.500 665.757 C 429.006 664.193, 431.327 662.228, 433.877 650.201 C 438.374 628.982, 431.968 618.112, 414.424 617.191 C 405.832 616.740, 405.197 616.368, 407.065 612.879 C 409.513 608.305, 407.056 608.988, 403.111 613.979 M 218.225 610.721 C 214.962 611.330, 212.678 615.258, 213.476 618.890 C 215.382 627.570, 227 625.990, 227 617.050 C 227 611.965, 223.827 609.676, 218.225 610.721 M 772.362 612.500 C 770.838 616.470, 771.587 616.570, 805.027 616.873 C 834.767 617.142, 837.227 617.035, 836.639 615.500 C 836.287 614.585, 836 613.198, 836 612.418 C 836 610.227, 773.203 610.307, 772.362 612.500 M 216.729 613.132 C 215.778 613.664, 215 614.752, 215 615.550 C 215 617.756, 218.692 617.284, 219.289 615.001 C 219.934 612.536, 219.005 611.858, 216.729 613.132 M 221 614.031 C 221 616.341, 223.633 617.767, 225.132 616.268 C 225.794 615.606, 225.580 614.723, 224.493 613.636 C 222.288 611.430, 221 611.576, 221 614.031 M 215 618.929 C 215 620.061, 217.839 623, 218.933 623 C 219.367 623, 219.508 621.875, 219.245 620.500 C 218.790 618.122, 215 616.719, 215 618.929 M 221 620.500 C 221 623.369, 222.171 623.686, 224.429 621.429 C 226.686 619.171, 226.369 618, 223.500 618 C 221.500 618, 221 618.500, 221 620.500 M 743.373 618.749 L 719.247 619.035 721.729 625.181 C 723.297 629.063, 724.409 634.214, 724.749 639.163 C 725.392 648.542, 724.388 649.134, 717.819 643.250 C 714.865 640.605, 713.859 640.089, 714.402 641.500 C 716.863 647.889, 718.165 658.047, 717.606 666.500 C 717.020 675.348, 715.867 680.595, 710.571 698.500 C 707.730 708.104, 705.985 723, 707.701 723 C 708.249 723, 714.751 721.230, 722.149 719.067 C 753.550 709.885, 771.139 700.670, 775.430 691.155 C 779.605 681.896, 774.331 674.848, 753.987 662.500 C 738.724 653.236, 734.997 649.646, 735.007 644.215 C 735.022 635.742, 744.314 628.795, 764 622.542 C 776.359 618.617, 777.323 618.105, 772 618.299 C 769.525 618.389, 756.643 618.591, 743.373 618.749 M 240.628 630.750 C 238.114 652.067, 239.093 661.134, 243 652.730 C 244.849 648.753, 248.859 647.131, 252.988 648.689 C 255.252 649.544, 256.307 649.485, 257.702 648.427 C 260.050 646.646, 262.443 646.660, 265.952 648.475 C 268.482 649.784, 268.871 649.778, 269.388 648.430 C 270.213 646.281, 276.555 643.850, 279.445 644.576 C 281.596 645.115, 281.989 644.746, 282.891 641.342 C 284.470 635.385, 285.949 628.630, 285.976 627.250 C 285.994 626.286, 280.865 626, 263.594 626 L 241.188 626 240.628 630.750 M 247.412 631.369 C 247.123 632.122, 247.024 635.160, 247.193 638.119 L 247.500 643.500 253.500 643.500 L 259.500 643.500 259.796 636.750 L 260.091 630 254.014 630 C 249.793 630, 247.777 630.418, 247.412 631.369 M 266.667 630.667 C 265.425 631.909, 265.931 642.760, 267.255 643.268 C 269.387 644.086, 277.431 642.919, 278.221 641.676 C 278.633 641.029, 278.976 638.138, 278.985 635.250 L 279 630 273.167 630 C 269.958 630, 267.033 630.300, 266.667 630.667 M 667 632.106 C 667 632.714, 668.114 634.535, 669.475 636.153 C 671.917 639.054, 675 647.515, 675 651.312 C 675 652.994, 675.497 653.181, 678.624 652.674 C 683.558 651.873, 683.543 651.915, 681.484 644.264 C 679.274 636.057, 674.934 631, 670.100 631 C 668.395 631, 667 631.498, 667 632.106 M 248 634 C 248 635.467, 248.667 636, 250.500 636 C 252.333 636, 253 635.467, 253 634 C 253 632.533, 252.333 632, 250.500 632 C 248.667 632, 248 632.533, 248 634 M 254 634 C 254 635.467, 254.667 636, 256.500 636 C 258.333 636, 259 635.467, 259 634 C 259 632.533, 258.333 632, 256.500 632 C 254.667 632, 254 632.533, 254 634 M 267.710 634 C 267.294 635.591, 267.680 636, 269.594 636 C 271.333 636, 272 635.446, 272 634 C 272 632.708, 271.333 632, 270.117 632 C 269.074 632, 268 632.893, 267.710 634 M 273.723 634.048 C 274.362 636.492, 277.325 636.267, 277.812 633.739 C 278.057 632.465, 277.484 632, 275.667 632 C 273.660 632, 273.289 632.391, 273.723 634.048 M 214.539 634.937 C 214.188 635.504, 213.979 640.476, 214.074 645.984 L 214.247 656 220.657 656 L 227.068 656 226.784 645.250 L 226.500 634.500 220.838 634.203 C 217.692 634.038, 214.893 634.364, 214.539 634.937 M 649 635.899 C 628.494 640.315, 617 643.260, 617 644.098 C 617 644.594, 617.745 645, 618.656 645 C 623.890 645, 627.722 651.074, 629.475 662.150 C 630.449 668.298, 631.639 668.628, 643.693 666.099 C 660.054 662.666, 669.966 659.267, 670.888 656.774 C 672.478 652.476, 668.554 639.364, 664.728 636.189 C 662.221 634.108, 657.701 634.025, 649 635.899 M 248 640 C 248 641.467, 248.667 642, 250.500 642 C 252.333 642, 253 641.467, 253 640 C 253 638.533, 252.333 638, 250.500 638 C 248.667 638, 248 638.533, 248 640 M 254 640 C 254 641.467, 254.667 642, 256.500 642 C 258.333 642, 259 641.467, 259 640 C 259 638.533, 258.333 638, 256.500 638 C 254.667 638, 254 638.533, 254 640 M 267 640 C 267 641.467, 267.667 642, 269.500 642 C 271.333 642, 272 641.467, 272 640 C 272 638.533, 271.333 638, 269.500 638 C 267.667 638, 267 638.533, 267 640 M 274 640 C 274 641.111, 274.667 642, 275.500 642 C 276.333 642, 277 641.111, 277 640 C 277 638.889, 276.333 638, 275.500 638 C 274.667 638, 274 638.889, 274 640 M 289.308 643.010 C 288.103 643.495, 286.388 645.005, 285.497 646.364 C 283.946 648.732, 283.761 648.770, 281.132 647.261 C 277.656 645.266, 273.878 646.140, 270.572 649.705 C 268.217 652.246, 267.987 652.298, 266.214 650.694 C 263.822 648.529, 260.179 648.528, 257.788 650.692 C 256.033 652.281, 255.745 652.281, 253.055 650.692 C 249.382 648.522, 248.437 648.563, 246 651 C 241.131 655.869, 241.822 656, 272.500 656 L 301 656 301 651.923 C 301 645.007, 295.244 640.619, 289.308 643.010 M 195.557 647.223 C 194.701 648.445, 194 650.020, 194 650.723 C 194 652.240, 192.378 652.420, 191.500 651 C 189.721 648.122, 183 650.652, 183 654.200 C 183 655.824, 184.074 656, 194 656 C 206.276 656, 205.993 656.215, 204.375 648.125 C 203.573 644.115, 198.124 643.557, 195.557 647.223 M 614.274 668.750 C 614.965 694.505, 616.032 698.995, 622.028 701.394 C 627.513 703.589, 630.429 703.533, 629.509 701.250 C 628.252 698.132, 627.066 686.723, 627.033 677.434 C 627.004 669.505, 626.184 662.140, 624.447 654.219 C 623.900 651.725, 618.616 648.010, 615.608 648.004 C 613.795 648, 613.740 648.865, 614.274 668.750 M 324.323 651.069 C 303.682 661.286, 296.052 698.015, 309.034 724.659 C 312.547 731.868, 321.763 740.978, 327.246 742.661 L 330.863 743.771 331.417 740.135 C 331.722 738.136, 332.081 731.775, 332.214 726 L 332.456 715.500 326.728 703.604 C 320.518 690.706, 320.457 690.546, 322.136 691.584 C 322.760 691.970, 325.389 696.772, 327.979 702.256 L 332.686 712.227 333.337 703.864 C 333.695 699.264, 333.991 692.462, 333.994 688.750 C 333.997 685.038, 334.408 682, 334.907 682 C 335.813 682, 336.356 688.197, 337.755 714.500 L 338.500 728.500 343.500 720.752 C 346.250 716.491, 348.864 713.003, 349.309 713.002 C 350.265 713, 350.242 713.042, 343.300 724.125 C 338.080 732.460, 337.921 732.924, 338.578 737.875 C 339.392 744.013, 340.546 744.308, 347.210 740.082 C 363.958 729.460, 371.391 699.134, 363.058 675.424 C 355.655 654.361, 338.924 643.842, 324.323 651.069 M 649.239 651.545 C 646.553 653.426, 645.914 656.432, 647.667 658.935 C 650.417 662.862, 657 660.853, 657 656.087 C 657 651.708, 652.646 649.159, 649.239 651.545 M 650.064 654.423 C 648.512 656.293, 649.497 658, 652.129 658 C 653.624 658, 654.057 657.443, 653.820 655.828 C 653.420 653.115, 651.688 652.466, 650.064 654.423 M 677.248 656.706 C 673.292 657.468, 672.680 660.227, 674.028 671.229 C 674.701 676.725, 674.992 683.422, 674.673 686.111 C 674.355 688.800, 674.411 690.998, 674.797 690.996 C 676.950 690.985, 682.041 686.686, 682.616 684.394 C 683.828 679.566, 681.739 655.791, 680.133 656.136 C 679.785 656.211, 678.487 656.468, 677.248 656.706 M 664.500 664.694 C 656.476 667.537, 640.366 670.997, 635.151 670.999 L 629.803 671 630.537 682.748 C 630.941 689.210, 631.799 696.298, 632.444 698.498 L 633.618 702.500 640.059 702.376 C 648.967 702.204, 662.104 697.849, 666.845 693.497 L 670.500 690.141 670.338 678.821 C 670.124 663.812, 669.724 662.844, 664.500 664.694 M 422 669.549 C 421.175 669.724, 418.785 670.147, 416.689 670.490 L 412.879 671.113 416.519 677.736 C 420.018 684.102, 428.895 696.455, 429.507 695.811 C 430.272 695.008, 425.418 669.014, 424.522 669.116 C 423.960 669.180, 422.825 669.375, 422 669.549 M 897.086 676 C 897.167 682.680, 898.844 685.889, 898.914 679.500 C 898.945 676.750, 898.533 673.825, 898 673 C 897.299 671.915, 897.046 672.744, 897.086 676 M 521.034 681.574 C 536.783 697.636, 564.149 710.068, 589 712.450 C 597.953 713.308, 598.632 712.697, 596.890 705.355 L 595.500 699.500 588 698.859 C 575.742 697.812, 562.630 693.579, 553.192 687.621 C 550.865 686.152, 545.741 684.327, 541.740 683.541 C 537.758 682.759, 530.478 680.743, 525.562 679.060 C 520.647 677.377, 516.387 676, 516.097 676 C 515.806 676, 518.028 678.509, 521.034 681.574 M 903.098 679.149 C 901.772 682.954, 901.769 683, 902.902 683 C 903.618 683, 906 677.886, 906 676.351 C 906 674.693, 903.968 676.652, 903.098 679.149 M 162.929 679.308 C 132.163 688.003, 122.054 732.322, 145.366 756.309 C 152.233 763.375, 167.651 770.807, 170.130 768.246 C 170.527 767.836, 170.983 762.500, 171.143 756.388 L 171.434 745.276 167.671 739.888 C 165.601 736.925, 162.500 732.591, 160.780 730.257 C 159.060 727.923, 157.909 725.758, 158.222 725.445 C 158.535 725.132, 161.651 728.815, 165.146 733.629 L 171.500 742.383 172.500 720.771 C 173.050 708.885, 173.791 698.869, 174.147 698.515 C 174.503 698.162, 175.120 703.076, 175.517 709.436 C 175.915 715.796, 176.559 721, 176.949 721 C 177.339 721, 178.712 718.750, 180 716.001 C 181.963 711.808, 186 706.541, 186 708.172 C 186 708.437, 183.937 712.444, 181.415 717.077 L 176.829 725.500 177.665 738.299 L 178.500 751.099 183.764 744.049 C 191.354 733.886, 192.156 735.351, 184.695 745.750 L 178.416 754.500 178.794 761.250 C 179.240 769.233, 179.256 769.238, 188.730 764.499 C 221.143 748.283, 220.929 697.890, 188.379 681.866 C 180.898 678.183, 170.580 677.146, 162.929 679.308 M 579.085 682.194 C 576.657 683.308, 571.932 684.432, 568.585 684.691 C 559.591 685.387, 558.899 685.851, 563.390 688.177 C 566.703 689.893, 585.092 695.195, 585.709 694.612 C 586.210 694.140, 584.650 680.008, 584.105 680.084 C 583.772 680.131, 581.513 681.080, 579.085 682.194 M 889.041 681.781 C 889.099 682.816, 895 689.584, 895 688.617 C 895 687.138, 891.625 682.070, 890.303 681.563 C 889.586 681.288, 889.018 681.386, 889.041 681.781 M 235.500 694.735 C 227.648 696.288, 222.242 699.936, 216.924 707.268 C 214.347 710.821, 214.223 711.487, 214.735 718.970 C 215.046 723.499, 214.764 729.524, 214.078 733.009 C 212.988 738.552, 213.064 739.501, 214.908 743.307 C 218.721 751.179, 226.778 757.737, 234.750 759.457 L 238 760.159 238 754.505 C 238 748.999, 237.853 748.697, 232.341 742.918 C 229.228 739.655, 226.965 736.702, 227.311 736.355 C 227.658 736.009, 230.151 738.116, 232.852 741.038 L 237.763 746.352 238.347 740.426 C 238.668 737.167, 239.213 730.112, 239.559 724.749 C 240.375 712.084, 241.552 713.085, 242.476 727.229 C 243.292 739.710, 242.647 739.426, 249.116 730.157 C 253.990 723.174, 253.538 726.105, 248.553 733.812 C 244.130 740.649, 244 741.074, 244.015 748.675 C 244.035 758.603, 244.684 759.788, 249.103 757.957 C 264.217 751.697, 271.366 729.400, 263.657 712.562 C 258.409 701.098, 245.297 692.797, 235.500 694.735 M 370.413 708.422 C 367.949 709.495, 367.057 710.750, 365.995 714.633 C 365.263 717.310, 363.604 721.775, 362.308 724.555 C 360.076 729.342, 360.030 729.833, 361.444 733.840 C 363.925 740.872, 368.884 745.977, 373.250 745.993 C 376.031 746.004, 375.565 739.430, 372.500 735.411 C 369.266 731.171, 369.238 728.558, 372.469 732.500 L 374.928 735.500 375.034 730.500 C 375.093 727.750, 375.504 724.600, 375.947 723.500 C 376.860 721.238, 377.470 724.695, 378.552 738.250 C 379.239 746.861, 379.514 747.121, 383.967 743.374 C 399.206 730.551, 387.705 700.894, 370.413 708.422 M 335.173 710 C 334.576 717.272, 332.030 762.082, 332.016 765.549 L 332 769.598 335.623 769.175 L 339.246 768.752 338.661 763.626 C 338.161 759.249, 336.662 734.143, 335.667 713.500 C 335.508 710.200, 335.286 708.625, 335.173 710 M 174.135 729.500 C 174.045 735, 173.560 745.800, 173.059 753.500 C 172.557 761.200, 171.832 775.536, 171.447 785.357 L 170.748 803.214 174.124 802.480 C 181.984 800.770, 181.804 801.046, 180.386 792.840 C 179.688 788.803, 178.416 775.825, 177.559 764 C 176.702 752.175, 175.618 737.325, 175.151 731 L 174.301 719.500 174.135 729.500 M 628.500 722.523 C 625.750 723.230, 621.833 723.851, 619.795 723.904 C 616.418 723.992, 616.044 724.287, 615.559 727.250 C 615.266 729.038, 614.610 732.975, 614.102 736 C 613.593 739.025, 613.322 741.647, 613.499 741.827 C 613.775 742.107, 627.386 739.862, 633.500 738.529 C 635.342 738.127, 635.474 737.417, 635.177 729.546 C 634.999 724.846, 634.549 721.053, 634.177 721.119 C 633.804 721.184, 631.250 721.816, 628.500 722.523 M 269 727.152 C 269 741.710, 260.012 755.963, 248.244 760.065 C 245.761 760.931, 245 761.778, 245 763.677 C 245 766.217, 247.099 785.326, 247.421 785.716 C 247.519 785.835, 261.077 783.295, 277.549 780.071 C 294.022 776.847, 312.095 773.412, 317.712 772.437 C 323.328 771.463, 328.358 770.397, 328.888 770.069 C 329.418 769.742, 330.170 764.028, 330.560 757.373 L 331.267 745.273 327.884 744.632 C 323.186 743.743, 315.291 737.481, 311.210 731.407 L 307.788 726.313 293.644 725.105 C 285.865 724.440, 277.137 723.633, 274.250 723.311 L 269 722.725 269 727.152 M 448.055 734.313 C 443.198 753.823, 430.836 778.747, 414.884 801.188 C 411.096 806.517, 407.559 812.030, 407.023 813.438 C 406.074 815.935, 406.156 816, 410.275 816.017 C 421.553 816.064, 437.428 821.773, 450.545 830.501 C 455.090 833.526, 459.264 836, 459.820 836 C 461.885 836, 468.697 826.947, 472.720 818.856 C 478.179 807.877, 482.807 794.229, 487.931 774 C 490.230 764.925, 492.314 756.796, 492.564 755.935 C 492.901 754.770, 491.548 753.910, 487.259 752.564 C 476.225 749.102, 463.206 741.587, 454.173 733.466 L 449.346 729.126 448.055 734.313 M 357.216 733.026 C 355.576 735.651, 355.668 736, 358 736 C 360.053 736, 360.561 734.431, 359.200 732.290 C 358.645 731.416, 358.093 731.621, 357.216 733.026 M 350.105 740.105 C 347.228 742.175, 343.518 744.167, 341.861 744.531 L 338.847 745.192 339.472 752.846 C 340.381 763.983, 341.064 768, 342.046 768 C 343.832 768, 372.491 762.815, 373.230 762.358 C 373.654 762.096, 374 758.849, 374 755.142 L 374 748.402 370.520 747.143 C 368.606 746.451, 365.442 743.936, 363.490 741.553 C 358.707 735.716, 356.533 735.481, 350.105 740.105 M 240 747.578 C 240 755.048, 238.862 772.302, 237.575 784.346 L 237.165 788.192 240.825 787.505 C 242.838 787.127, 244.731 786.666, 245.031 786.481 C 245.332 786.295, 245.028 781.273, 244.355 775.321 C 243.682 769.370, 242.814 758.763, 242.425 751.750 C 241.626 737.337, 240 734.540, 240 747.578 M 209.948 745.125 C 205.968 754.733, 195.056 764.869, 185 768.299 L 180.500 769.834 180.642 777.007 C 180.836 786.829, 182.981 800.015, 184.372 799.935 C 184.993 799.900, 196.750 797.289, 210.500 794.133 L 235.500 788.394 236.381 776.260 C 237.363 762.730, 237.070 761.004, 233.781 760.991 C 228.087 760.967, 217.702 752.637, 214.193 745.279 C 212.250 741.204, 211.582 741.180, 209.948 745.125 M 382.705 746.294 L 378.910 748.500 379.567 754.500 C 379.929 757.800, 380.397 760.685, 380.608 760.912 C 381.560 761.936, 398.187 758.677, 398.689 757.367 C 399.730 754.655, 396.658 749.739, 392.127 746.866 C 386.799 743.486, 387.466 743.527, 382.705 746.294 M 376.079 750.500 C 376.024 752.700, 375.699 756.188, 375.358 758.250 C 374.814 761.544, 374.982 762, 376.746 762 C 378.882 762, 378.982 756.865, 376.991 749.500 C 376.201 746.578, 376.178 746.604, 376.079 750.500 M 496.199 760.114 C 495.596 762.491, 495.192 764.520, 495.301 764.622 C 495.634 764.935, 523.964 759.631, 523.648 759.315 C 523.486 759.153, 519.337 758.597, 514.427 758.079 C 509.517 757.562, 503.654 756.836, 501.398 756.465 L 497.296 755.792 496.199 760.114 M 407.562 819.899 C 405.709 822.899, 423.219 832.603, 436.711 836.054 C 444.499 838.046, 454.482 838.648, 455.389 837.180 C 456.034 836.136, 447.731 831.109, 437.818 826.542 C 426.315 821.242, 409.072 817.456, 407.562 819.899 M 835.588 829.250 C 836.436 835.140, 837.964 841, 838.652 841 C 839.187 841, 838.666 835.944, 837.338 828.250 C 836.501 823.396, 834.879 824.323, 835.588 829.250 M 846.143 830.750 C 844.621 833.623, 843.102 840, 843.939 840 C 844.367 840, 845.629 837.525, 846.743 834.500 C 848.633 829.372, 848.224 826.822, 846.143 830.750 M 827 835.551 C 827 836.962, 833.462 846.115, 833.781 845.157 C 833.966 844.601, 832.984 842.352, 831.599 840.157 C 829.182 836.329, 827 834.143, 827 835.551" stroke="none" fill="#1a1a1a" fill-rule="evenodd"/>
</svg>