<svg xmlns="http://www.w3.org/2000/svg" width="1024" height="1024" viewBox="0 0 1024 1024" version="1.1">
	<path d="M 465.500 100.553 C 466.600 101.358, 472.225 105.127, 478 108.929 C 493.117 118.881, 516.300 139.775, 504.750 133.037 C 496 127.932, 476.838 121.541, 462.575 118.970 C 451.818 117.030, 434.973 116.284, 435.028 117.750 C 435.044 118.162, 437.509 119.984, 440.507 121.798 C 446.863 125.645, 462.357 136.999, 461.848 137.437 C 461.657 137.602, 456.325 136.616, 450 135.246 C 433.522 131.678, 401.652 131.463, 386.222 134.816 C 357.393 141.080, 335.181 153.538, 312.971 175.899 C 303.005 185.934, 289.919 203.252, 291.277 204.611 C 291.622 204.956, 296.538 203.659, 302.202 201.729 C 314.847 197.421, 324.911 194.578, 325.484 195.150 C 325.720 195.387, 325.370 197.420, 324.706 199.669 C 323.703 203.066, 322.143 204.768, 315.499 209.712 C 277.501 237.992, 261.632 286.664, 277.177 327.250 C 278.810 331.512, 280.526 335, 280.991 335 C 281.456 335, 283.882 331.154, 286.383 326.454 C 294.648 310.917, 309.874 292.823, 323.296 282.587 C 327.730 279.206, 327.962 279.358, 331.401 287.895 C 332.818 291.413, 335.333 296.403, 336.990 298.985 L 340.003 303.679 338.149 309.090 C 333.235 323.437, 331.500 337.241, 331.500 362 C 331.500 390.170, 334.143 405.204, 343.028 427.571 L 345.982 435.006 342.741 441.194 C 336.321 453.453, 339.016 465.235, 351.898 481.225 C 369.784 503.425, 403.129 522.127, 437.796 529.403 C 443.458 530.591, 448.009 531.999, 447.909 532.532 C 447.809 533.064, 445.201 534.450, 442.113 535.611 C 420.468 543.750, 397.283 561.542, 385.570 579 C 361.808 614.416, 373.081 646.833, 410.153 649.691 C 414.835 650.052, 418 650.741, 418 651.398 C 418 652.004, 417.291 656.100, 416.426 660.500 C 413.015 677.837, 414.723 695.674, 421.035 708.649 C 423.889 714.516, 424.043 715.504, 424.390 730.149 C 424.833 748.884, 423.404 787.996, 422.233 789.167 C 421.765 789.635, 399.808 794.295, 373.441 799.523 C 347.073 804.750, 304.125 813.265, 278 818.444 C 202.376 833.438, 148.720 843.961, 132.122 847.056 C 123.664 848.633, 116.501 850.165, 116.205 850.461 C 114.400 852.267, 120.132 851.436, 149.633 845.614 C 167.710 842.046, 210.175 833.679, 244 827.021 C 277.825 820.362, 315.400 812.916, 327.500 810.474 C 339.600 808.031, 364.800 803.077, 383.500 799.463 C 402.200 795.850, 418.571 792.629, 419.881 792.305 L 422.261 791.718 421.530 799.609 C 421.128 803.949, 420.712 807.595, 420.605 807.711 C 420.498 807.828, 397.706 813.136, 369.955 819.507 C 342.205 825.878, 315.675 831.997, 311 833.104 C 306.325 834.211, 290.125 838.011, 275 841.549 C 259.875 845.086, 235.125 850.897, 220 854.462 C 204.875 858.028, 175.625 864.836, 155 869.592 C 134.375 874.348, 117.050 878.668, 116.500 879.191 C 115.860 879.799, 116.400 879.943, 118 879.591 C 119.375 879.288, 125.900 877.871, 132.500 876.441 C 146.333 873.446, 228.728 854.275, 259 847.009 C 296.658 837.970, 291.493 838.581, 314.855 840.396 C 359.403 843.858, 389.291 846.033, 400.916 846.658 C 407.603 847.017, 413.269 847.626, 413.507 848.011 C 413.991 848.795, 409.288 866.578, 407.915 869.153 C 407.352 870.208, 397.892 873.776, 381.767 879.014 C 367.870 883.528, 342.775 891.697, 326 897.168 L 295.500 907.114 282 906.012 C 274.575 905.405, 252.975 903.565, 234 901.921 C 215.025 900.278, 191.625 898.264, 182 897.446 C 172.375 896.627, 155.619 895.164, 144.766 894.194 C 133.912 893.224, 125.362 892.717, 125.766 893.066 C 126.467 893.672, 142.055 895.204, 201 900.459 C 215.575 901.758, 241.565 904.080, 258.755 905.618 C 275.946 907.156, 289.446 908.721, 288.755 909.095 C 287.541 909.753, 273.283 914.452, 241 924.836 C 215.520 933.031, 194.889 940.222, 195.397 940.731 C 195.660 940.993, 206.815 937.595, 220.187 933.180 C 233.559 928.764, 255.921 921.458, 269.880 916.944 L 295.260 908.737 350.880 913.419 C 463.254 922.878, 595.719 933.996, 603.500 934.622 C 613.896 935.457, 615.378 936.238, 610.921 938.533 C 608.182 939.943, 583.784 954.222, 565.207 965.287 C 563.396 966.365, 562.093 967.426, 562.310 967.644 C 562.528 967.861, 575.100 960.823, 590.247 952.003 L 617.788 935.967 646.144 938.474 C 661.740 939.853, 690.700 942.347, 710.500 944.016 C 730.300 945.684, 753.700 947.712, 762.500 948.521 C 777.701 949.918, 786.687 950.300, 784.500 949.456 C 783.396 949.030, 731.266 944.211, 693 940.997 C 679.525 939.866, 658.745 938.054, 646.823 936.970 C 634.901 935.887, 624.187 935, 623.014 935 C 619.444 935, 621.462 933.462, 636.269 924.895 C 644.096 920.367, 667.699 906.374, 688.721 893.800 L 726.941 870.938 733.221 871.501 C 750.928 873.088, 839.625 879.051, 841.419 878.774 C 843.921 878.389, 827.079 876.970, 772.500 872.968 C 749.950 871.314, 731.084 869.831, 730.576 869.672 C 729.606 869.370, 743.738 860.638, 783.104 837.217 L 806.708 823.174 841.104 825.048 C 860.022 826.079, 877.975 827.208, 881 827.558 C 884.025 827.907, 886.192 827.879, 885.816 827.495 C 884.888 826.550, 881.532 826.223, 860 824.985 C 849.825 824.399, 834.750 823.484, 826.500 822.951 C 818.250 822.418, 806.325 821.755, 800 821.479 C 793.675 821.203, 774.550 820.108, 757.500 819.047 C 740.450 817.985, 717.275 816.626, 706 816.026 C 675.674 814.414, 677.915 814.967, 672.568 807.772 C 670.066 804.404, 668.172 801.495, 668.359 801.307 C 668.547 801.119, 671.337 802.553, 674.559 804.494 C 677.781 806.434, 682.011 808.464, 683.959 809.005 C 687.880 810.095, 697 810.355, 697 809.377 C 697 809.035, 694.300 805.869, 691 802.341 C 684.207 795.079, 683.804 793.738, 687.905 792.039 C 689.502 791.378, 691.037 789.967, 691.315 788.905 C 691.809 787.016, 695.746 784.919, 701.250 783.614 C 703.837 783.001, 704 783.163, 704 786.346 C 704 790.999, 706.852 794.213, 713.696 797.274 C 724.645 802.171, 739.943 803.194, 745.750 799.417 C 748.525 797.613, 748.830 791.631, 746.330 788.061 L 744.660 785.677 757.580 786.368 C 782.914 787.724, 850.561 790.995, 854 791.031 L 857.500 791.067 852.144 794.284 C 849.198 796.053, 842.673 800.022, 837.644 803.105 C 832.615 806.187, 824.075 811.287, 818.666 814.437 C 813.257 817.587, 809.067 820.401, 809.356 820.689 C 809.645 820.978, 821.270 814.394, 835.190 806.058 L 860.500 790.902 866.500 791.427 C 869.800 791.715, 881.275 792.148, 892 792.387 C 912.528 792.846, 907.205 792.261, 874.070 790.416 C 860.620 789.668, 860.335 790.342, 878.740 779.356 C 884.923 775.666, 889.795 772.462, 889.569 772.236 C 889.079 771.746, 883.186 775.093, 869.213 783.798 L 858.926 790.207 825.213 788.505 C 772.482 785.842, 757.002 785.134, 749.985 785.064 C 744.095 785.006, 742.975 784.641, 738.291 781.250 L 733.110 777.500 733.055 771.250 L 733 765 737.418 765 C 744.470 765, 745.541 765.835, 741.758 768.384 C 732.479 774.637, 736.923 783.017, 749.500 782.984 C 759.814 782.956, 774.863 777.816, 775.128 774.230 C 775.666 766.933, 776.225 766, 780.059 766 C 782.909 766, 783 766.150, 783 770.845 C 783 776.563, 784.012 777.716, 792.527 781.703 C 801.408 785.860, 815.982 785.878, 819.548 781.737 C 822.316 778.522, 821.987 776.859, 817.674 772.265 C 816.003 770.486, 814.888 768.779, 815.195 768.472 C 815.669 767.998, 854.798 769.137, 881.500 770.402 C 897.300 771.151, 919.470 771.723, 918 771.345 C 917.175 771.132, 911.550 770.628, 905.500 770.224 L 894.500 769.489 901.750 765.130 C 905.737 762.733, 909 760.583, 909 760.351 C 909 759.781, 905.681 761.579, 898.500 766.040 L 892.500 769.767 883 769.034 C 877.775 768.631, 874.218 768.234, 875.095 768.151 C 877.228 767.949, 880 764.778, 880 762.539 C 880 761.548, 878.314 759.146, 876.254 757.203 L 872.508 753.670 897.487 754.369 C 912.890 754.799, 922.090 754.710, 921.483 754.137 C 920.943 753.626, 908.935 752.823, 894.799 752.354 C 880.063 751.864, 868.668 751.070, 868.090 750.491 C 867.524 749.924, 866.955 742.499, 866.791 733.536 L 866.500 717.590 870.895 716.708 L 875.289 715.825 874.628 705.734 C 874.264 700.184, 873.699 693.970, 873.372 691.925 C 872.813 688.428, 872.954 688.169, 875.763 687.552 C 882.258 686.125, 883.527 683.184, 883.268 670.156 C 883.141 663.745, 882.547 654.225, 881.948 649 C 881.349 643.775, 880.508 635.900, 880.078 631.500 C 878.835 618.771, 872.585 604.946, 865.529 599.316 C 862.313 596.749, 862 596.044, 862 591.355 L 862 586.210 866.250 585.566 C 868.587 585.212, 872.638 584.672, 875.250 584.365 L 880 583.807 880 576.526 C 880 571.138, 880.407 568.907, 881.566 567.945 C 885.961 564.298, 887.262 556.780, 884.161 552.950 C 882.648 551.082, 882.399 549.417, 882.759 543.589 C 883.576 530.371, 875.603 516.920, 866.045 515.391 L 862 514.744 862 464.872 L 862 415 854.750 415.019 C 850.763 415.029, 834.900 415.450, 819.500 415.954 C 804.100 416.458, 781.375 417.131, 769 417.449 C 756.625 417.768, 741.438 418.291, 735.250 418.613 L 724 419.197 724 437.932 C 724 448.236, 723.735 456.931, 723.411 457.255 C 723.088 457.579, 720.845 456.589, 718.428 455.056 C 706.600 447.556, 688.855 448.403, 678.018 456.986 C 675.238 459.187, 673.147 460, 670.261 460 C 660.129 460, 646.981 473.531, 649.819 481.039 C 650.516 482.881, 650.278 484.376, 648.875 486.984 C 646.555 491.295, 646.356 501.523, 648.492 506.635 C 649.878 509.952, 649.843 510.385, 647.992 512.737 C 643.937 517.892, 645.824 527.492, 651.593 531.057 C 653.783 532.411, 655.825 535.165, 657.857 539.508 C 662.398 549.211, 669.751 555.629, 681.250 559.923 C 686.337 561.823, 684.811 564.477, 675.991 569.065 C 666.439 574.035, 664.342 576.356, 658.055 588.913 C 651.052 602.903, 648.108 612.536, 650.197 614.625 C 651.406 615.835, 651.587 616.954, 650.937 619.220 C 650.465 620.867, 649.565 625.724, 648.938 630.014 L 647.797 637.813 644.149 636.269 C 630.096 630.319, 612.083 630.585, 599.929 636.920 C 597.734 638.064, 595.722 639, 595.457 639 C 595.192 639, 596.510 635.951, 598.387 632.225 C 605.148 618.800, 610.006 597.823, 609.992 582.119 C 609.980 568.136, 608.508 561.455, 602.275 547.089 C 601.802 546.001, 602.215 545.840, 604.081 546.386 C 607.289 547.324, 618 548.409, 618 547.795 C 618 547.530, 617.096 544.687, 615.992 541.477 C 613.081 533.016, 612.489 521.391, 614.388 510 C 616.357 498.192, 617.853 492.791, 618.964 493.478 C 619.895 494.053, 621.588 503.419, 622.765 514.500 L 623.508 521.500 629.144 513 C 648.781 483.387, 657.618 444.850, 652.975 409.078 C 652.445 404.995, 652.274 401.395, 652.595 401.078 C 654.108 399.581, 662.776 413.500, 666.500 423.408 C 667.744 426.715, 669.201 429.567, 669.740 429.747 C 671.639 430.380, 675.598 412.348, 677.194 395.796 L 678.419 383.092 683.460 382.546 C 686.232 382.247, 700.875 381.569, 716 381.041 C 812.170 377.685, 857.559 375.666, 858.160 374.717 C 858.522 374.144, 858.877 354.285, 858.949 330.587 L 859.078 287.500 853.601 282.096 L 848.125 276.692 837.312 277.349 C 831.366 277.711, 805.125 279.361, 779 281.017 C 678.247 287.402, 683.651 287.165, 682.228 285.260 C 681.528 284.324, 681.174 282.988, 681.441 282.292 C 685.548 271.590, 685.880 232.641, 682.019 214.606 C 673.286 173.822, 650.727 136, 635.135 136 C 630.141 136, 615.895 147.579, 610.855 155.734 L 608.809 159.045 603.722 150.512 C 598.007 140.925, 587.611 129.124, 579.148 122.618 C 573.139 117.998, 561.154 111.513, 560.266 112.401 C 559.973 112.693, 561.346 116.686, 563.317 121.274 C 565.288 125.862, 567.827 132.991, 568.959 137.117 C 570.984 144.498, 573.126 161.027, 572.050 160.972 C 571.748 160.956, 569.989 158.448, 568.143 155.398 C 554.287 132.509, 528.240 112.286, 502.618 104.525 C 486.451 99.627, 460.431 96.843, 465.500 100.553 M 481.500 106.737 C 494.793 115.383, 509.057 128.518, 517.924 140.277 C 523.123 147.171, 522.808 148.153, 516.715 144.040 C 500.382 133.017, 465.239 121, 449.337 121 L 445.776 121 451.138 124.643 C 461.748 131.851, 474.982 143.351, 473.906 144.427 C 473.667 144.666, 470.424 144.017, 466.699 142.984 C 458.197 140.627, 436.937 136.982, 432.125 137.056 C 429.281 137.101, 430.763 137.813, 439 140.361 C 480.144 153.090, 515.750 180.984, 538.500 218.312 C 539.420 219.822, 540.371 219.779, 550.392 217.775 L 561.284 215.597 560.685 203.048 C 559.177 171.499, 549.790 147.254, 530.747 125.729 C 521.501 115.277, 501.699 106.533, 480.500 103.540 L 475.500 102.834 481.500 106.737 M 566.279 119.101 C 574.304 137.575, 577.382 153.305, 576.193 169.750 C 575.773 175.547, 574.582 175.098, 570.881 167.750 C 562.729 151.561, 549.613 136.595, 532.512 123.968 C 530.135 122.213, 530.374 122.582, 538.752 133.595 C 552.957 152.268, 559.918 172.332, 562.182 201.122 L 563.332 215.745 572.416 216.253 C 577.412 216.532, 582.107 216.927, 582.849 217.130 C 583.799 217.391, 584.867 214.839, 586.462 208.500 C 587.707 203.550, 589.913 195.512, 591.363 190.638 C 597.309 170.656, 592.724 140.488, 582.184 130.245 C 576.911 125.120, 565.386 117.046, 566.279 119.101 M 392 138.482 C 362.806 143.289, 336.954 156.983, 315.500 179.004 L 308.500 186.190 316.500 182.210 C 339.185 170.927, 373.686 163.891, 399 165.385 C 441.870 167.917, 483.118 185.943, 511.813 214.688 L 523.126 226.021 530.563 223.381 C 534.653 221.929, 538 220.540, 538 220.295 C 538 220.051, 535.912 216.621, 533.359 212.675 C 512.243 180.028, 476.502 153.461, 437.500 141.419 C 423.324 137.042, 407.103 135.995, 392 138.482 M 591.594 144.647 C 594.415 153.102, 595.953 162.851, 595.980 172.458 L 596 179.416 601.053 170.604 L 606.106 161.791 601.907 154.453 C 599.598 150.416, 595.796 144.951, 593.459 142.307 L 589.209 137.500 591.594 144.647 M 628.453 143.907 C 611.371 157.020, 595.928 185.651, 588.217 218.500 C 583.006 240.701, 582.995 240.729, 583.409 230.804 L 583.772 222.109 580.636 221.391 C 570.363 219.041, 550.124 221.553, 534.166 227.160 C 502.977 238.118, 477.828 256.613, 429.077 304.443 C 393.247 339.595, 390.332 341.419, 382.860 333.351 C 368.595 317.947, 370.215 280.167, 386.097 257.863 C 387.264 256.225, 388.057 254.739, 387.859 254.560 C 387.349 254.099, 369.719 258.438, 368.142 259.412 C 361.970 263.227, 345.355 299.227, 340.459 319.392 C 337.724 330.658, 337.701 330.534, 342.684 331.468 C 351.381 333.100, 362.645 340.983, 383.980 360.369 C 404.535 379.047, 410.834 383.023, 414.330 379.527 C 416.490 377.367, 418.211 370.689, 417.420 367.537 C 417.059 366.098, 417.213 365, 417.775 365 C 420.025 365, 420.850 376.481, 418.875 380.316 C 416.917 384.118, 413.726 387, 411.475 387 C 409.448 387, 409.256 387.619, 408.654 396.089 C 408.228 402.096, 406.991 408.218, 405.005 414.146 C 403.352 419.078, 402 423.262, 402 423.443 C 402 423.623, 405.262 422.891, 409.250 421.814 C 417.009 419.720, 433.745 419.639, 437.389 421.678 C 438.638 422.377, 436.056 422.543, 428.840 422.226 C 417.511 421.729, 405.934 424.619, 394.500 430.798 C 385.586 435.615, 382.515 447.270, 386.566 460.911 C 392.719 481.631, 423.680 484.693, 453 467.482 C 481.809 450.571, 491.572 449.998, 504.773 464.442 C 517.297 478.145, 519.871 496.510, 510.080 502.294 C 506.196 504.588, 503.890 504.465, 487 501.059 C 461.289 495.874, 434.257 494.709, 415.500 497.977 C 412.200 498.552, 408.262 499.231, 406.750 499.486 C 402.495 500.204, 403.503 498.337, 408.250 496.708 C 413.015 495.073, 412.983 495.279, 409.645 487.731 C 407.416 482.691, 406.798 482.094, 402.262 480.587 C 392.106 477.214, 384.979 470.180, 381.951 460.542 C 380.612 456.280, 380.224 444.762, 381.310 441.500 C 381.919 439.671, 381.528 439.498, 376.738 439.482 C 366.538 439.446, 357.376 432.167, 350.326 418.500 C 338.488 395.550, 336.847 368.058, 345.542 338.389 C 346.053 336.644, 345.497 336.009, 342.330 334.728 C 340.224 333.875, 338.202 333.475, 337.837 333.839 C 336.727 334.946, 335.105 360.977, 335.615 369.500 C 336.784 389.040, 340.235 406.403, 346.232 422.920 C 350.010 433.329, 350.064 435.790, 346.681 443.500 C 342.976 451.942, 343.159 457.063, 347.471 465.616 C 363.836 498.070, 415.209 525.097, 467 528.499 C 487.174 529.825, 519.496 525.580, 539 519.044 C 549.547 515.510, 550.205 515.866, 541.352 520.318 C 521.846 530.127, 487.622 535.429, 459.142 533.053 L 453.785 532.606 450.062 543.686 L 446.340 554.767 452.244 556.408 C 455.492 557.311, 461.340 559.657, 465.241 561.621 L 472.333 565.193 479.629 563.026 C 509.853 554.054, 535.482 557.818, 551.651 573.604 C 554.734 576.614, 557.325 578.947, 557.409 578.789 C 557.492 578.630, 558.848 575.728, 560.421 572.339 C 563.233 566.284, 568.974 558.238, 567.441 562.500 C 564.247 571.385, 556.358 591.786, 553.944 597.405 C 552.312 601.203, 551.095 604.383, 551.239 604.472 C 551.382 604.561, 554.087 605.915, 557.250 607.480 C 562.406 610.033, 565.595 613.250, 561.250 611.515 C 560.288 611.131, 554.100 608.968, 547.500 606.709 C 525.678 599.240, 521.674 600.181, 490.767 620.036 C 473.391 631.198, 473.023 629.237, 494.500 639.880 C 527.261 656.114, 557.423 661.410, 573.190 653.695 C 585.244 647.798, 595.831 631.734, 601.657 610.500 C 605.590 596.166, 605.817 566.941, 602.069 557.500 C 597.559 546.140, 591.948 539.458, 583.759 535.697 C 580.485 534.194, 579.167 533.050, 579.500 532.001 C 579.915 530.693, 581.939 508.867, 581.984 505.215 C 581.996 504.222, 581.526 504.183, 579.914 505.046 C 575.115 507.614, 577.678 504.572, 590.484 492.496 C 632.195 453.167, 652.842 407.447, 655.680 348.129 L 656.319 334.759 654.084 335.955 C 651.455 337.362, 651.665 336.862, 658.154 326.253 C 673.701 300.833, 680 277.984, 680 247 C 680 208.701, 666.696 169.739, 646.080 147.663 C 637.985 138.994, 635.534 138.471, 628.453 143.907 M 373 167.617 C 371.625 167.879, 366.653 168.731, 361.950 169.512 C 349.092 171.646, 329.711 177.536, 319.262 182.486 C 307.712 187.957, 305.299 189.663, 301.364 195.142 L 298.235 199.500 310.867 195.314 C 326.081 190.274, 334.300 188.536, 352.428 186.526 C 374.155 184.117, 375.412 184.420, 362.627 188.987 C 318.619 204.708, 288.868 233.567, 278.485 270.607 C 276.249 278.584, 275.393 301.473, 276.979 310.877 C 278.461 319.660, 278.889 319.422, 280.577 308.879 C 286.503 271.874, 310.602 242.649, 349 225.905 C 398.553 204.296, 456.497 204.814, 500.365 227.257 L 510.230 232.304 515.671 229.635 L 521.112 226.967 519.155 224.233 C 515.785 219.528, 502.855 207.587, 494.206 201.194 C 474.221 186.421, 452.769 176.815, 425.500 170.429 C 414.771 167.916, 380.941 166.104, 373 167.617 M 645.067 188.500 C 652.501 210.426, 652.955 245.284, 646.069 265.299 C 643.855 271.736, 638.231 283.001, 637.236 282.996 C 636.831 282.994, 634.961 279.957, 633.080 276.246 C 631.199 272.536, 629.142 268.825, 628.508 268 C 626.070 264.825, 621.821 253.674, 620.035 245.764 L 618.169 237.500 618.084 243.198 C 617.967 251.095, 621.739 262.251, 628.988 275.444 C 632.294 281.463, 635 286.976, 635 287.694 C 635 290.268, 637.001 288.912, 640.979 283.644 C 655.395 264.551, 659.137 225.696, 649.499 195.188 C 648.109 190.787, 646.086 186.133, 645.002 184.844 C 643.069 182.543, 643.071 182.611, 645.067 188.500 M 335 192.732 C 331.683 193.342, 330.316 194.569, 329.770 197.424 C 329.326 199.747, 329.431 199.726, 335.909 196.222 C 339.534 194.261, 342.688 192.509, 342.917 192.328 C 343.478 191.886, 338.113 192.160, 335 192.732 M 411.705 212.088 C 385.531 214.248, 364.953 219.765, 343.462 230.382 C 311.636 246.106, 291.970 269.155, 283.925 300.160 C 281.856 308.131, 280.046 327, 281.349 327 C 281.691 327, 283.287 324.413, 284.895 321.250 C 297.591 296.281, 324.226 272.456, 353.359 260.009 C 362.825 255.965, 384.001 250, 388.893 250 C 390.596 250, 392.579 248.989, 394.076 247.359 C 401.075 239.736, 422.766 225.432, 424.578 227.245 C 424.810 227.477, 421.288 230.079, 416.750 233.027 C 384.917 253.708, 368.812 294.447, 381.141 323.105 C 383.158 327.795, 388.466 333.868, 389.577 332.757 C 389.905 332.428, 390.594 328.636, 391.106 324.330 C 395.867 284.361, 422.360 251.977, 461 238.898 C 472.025 235.167, 489.480 233.755, 497.350 235.958 C 502.279 237.338, 509.542 234.489, 506.777 232.260 C 496.500 223.978, 463.823 214.232, 438.951 212.031 C 426.384 210.918, 425.867 210.919, 411.705 212.088 M 470 237.914 C 428.488 247.187, 396.997 282.836, 392.410 325.750 C 391.998 329.606, 392.116 332, 392.718 332 C 394.669 332, 408.997 318.702, 432 295.541 C 456.706 270.666, 474.299 255.333, 490.387 244.651 C 501.532 237.251, 501.439 236.986, 487.500 236.396 C 481.114 236.126, 476.031 236.567, 470 237.914 M 356.275 263.480 C 348.968 266.657, 345.160 268.595, 338.700 272.428 C 330.784 277.123, 330.838 276.555, 337.047 289.827 C 340.419 297.034, 343 299.635, 343 295.824 C 343 294.252, 353.606 273.443, 356.851 268.650 C 361.951 261.114, 361.940 261.017, 356.275 263.480 M 834 279.058 C 820.880 280.118, 714.268 286.955, 699.318 287.695 C 684.369 288.434, 684.491 288.369, 686.723 294.389 L 688.482 299.137 699.491 298.513 C 705.546 298.170, 716.575 297.471, 724 296.960 C 750.357 295.147, 812.658 291.809, 823 291.656 L 833.500 291.500 833.500 323.497 L 833.500 355.494 789.500 357.674 C 765.300 358.873, 733.575 360.333, 719 360.919 C 704.425 361.505, 688.960 362.264, 684.633 362.606 L 676.766 363.229 677.266 367.664 C 677.541 370.103, 677.978 372.311, 678.238 372.571 C 678.497 372.831, 689.238 372.585, 702.105 372.024 C 714.972 371.464, 748.225 370.110, 776 369.016 C 803.775 367.923, 831.112 366.743, 836.750 366.394 L 847 365.761 847 321.881 C 847 280.701, 846.892 278.009, 845.250 278.145 C 844.288 278.225, 839.225 278.636, 834 279.058 M 849 323.192 L 849 366.854 852.750 369.946 L 856.500 373.037 856.761 330.294 L 857.022 287.551 853.011 283.540 L 849 279.529 849 323.192 M 679.555 290.107 C 679.285 290.873, 677.942 294.644, 676.570 298.487 L 674.076 305.474 679.078 309.850 C 681.830 312.257, 685.218 316.470, 686.608 319.212 C 687.997 321.955, 689.349 323.984, 689.611 323.722 C 690.459 322.875, 686.013 303.080, 683.440 296.245 C 680.615 288.739, 680.245 288.154, 679.555 290.107 M 817.500 293.192 C 810.900 293.597, 788.625 294.881, 768 296.046 C 693.427 300.256, 689.971 300.497, 689.904 301.500 C 689.868 302.050, 690.360 305.155, 690.999 308.400 L 692.160 314.300 704.830 313.654 C 711.798 313.299, 728.750 312.344, 742.500 311.532 C 756.250 310.720, 776.500 309.572, 787.500 308.980 C 798.500 308.389, 809.821 307.744, 812.657 307.547 L 817.814 307.189 818.170 311.669 C 818.366 314.133, 818.281 316.545, 817.982 317.029 C 817.301 318.131, 798.926 319.395, 746 321.983 C 723.175 323.098, 702.138 324.266, 699.250 324.578 L 694 325.144 694 333.054 L 694 340.964 684.713 331.586 C 677.633 324.437, 674.406 321.902, 671.134 320.922 C 665.124 319.121, 664.623 320.537, 668.179 329.276 C 671.453 337.320, 674.647 348.857, 675.610 356.115 L 676.258 361 680.379 360.986 C 682.645 360.979, 693.275 360.534, 704 359.997 C 714.725 359.461, 738.350 358.334, 756.500 357.491 C 774.650 356.649, 798.500 355.529, 809.500 355.002 C 820.500 354.475, 830.063 354.034, 830.750 354.022 C 831.722 354.005, 832 347.155, 832 323.167 C 832 299.134, 831.724 292.347, 830.750 292.395 C 830.063 292.429, 824.100 292.788, 817.500 293.192 M 671.127 311.676 C 669.907 314.187, 669.042 316.309, 669.204 316.391 C 669.367 316.473, 671.680 317.558, 674.345 318.803 C 677.009 320.048, 681.683 323.414, 684.729 326.283 C 689.310 330.597, 690.137 331.067, 689.505 329 C 687.219 321.519, 681.368 312.822, 676.094 309.067 L 673.345 307.110 671.127 311.676 M 796.500 310.079 C 789.350 310.507, 767.075 311.787, 747 312.924 C 726.925 314.061, 706.563 315.283, 701.750 315.639 L 693 316.287 693 319.771 L 693 323.255 705.750 322.599 C 712.763 322.238, 727.275 321.492, 738 320.941 C 748.725 320.390, 764.025 319.525, 772 319.017 C 779.975 318.510, 793.362 317.791, 801.750 317.420 L 817 316.744 817 312.872 C 817 308.406, 819.273 308.716, 796.500 310.079 M 589 323.124 C 563.174 328.512, 540.144 339.604, 504.757 363.699 C 478.381 381.659, 473.247 383.699, 467.306 378.584 C 464.755 376.388, 464.502 375.570, 464.519 369.584 C 464.542 361.719, 463.640 361.163, 461.994 368.027 C 460.342 374.913, 461.380 379.313, 465.667 383.600 C 468.998 386.931, 469.583 387.144, 474.369 386.769 C 477.191 386.548, 480.227 386.035, 481.115 385.629 C 482.471 385.008, 482.840 385.870, 483.424 391.032 C 487.097 423.498, 511.791 448.506, 540 448.329 C 586.188 448.039, 619.314 389.695, 602.134 338.893 C 600.533 334.159, 598.732 329.367, 598.130 328.243 C 596.742 325.650, 597.405 325.382, 609.004 323.838 C 613.899 323.186, 617.674 322.281, 617.393 321.826 C 616.452 320.305, 598.605 321.120, 589 323.124 M 578.916 330.939 C 572.545 333.057, 565.428 335.761, 563.101 336.948 L 558.871 339.106 560.975 342.303 C 577.462 367.348, 574.419 398.729, 553.667 417.678 C 544.298 426.233, 538.535 428.486, 526 428.494 C 513.459 428.501, 507.364 426.214, 498.890 418.320 C 492.864 412.707, 493.611 415.289, 500.771 424.817 C 529.740 463.372, 585.441 444.407, 600.096 391 C 604.703 374.213, 603.409 352.105, 596.804 334.750 C 593.324 325.606, 594.321 325.818, 578.916 330.939 M 661.192 328.268 C 660.567 329.022, 660.121 335.449, 660.094 344.111 C 660.050 358.247, 658.700 370.643, 655.336 387.793 L 653.709 396.087 656.247 398.793 C 659.672 402.445, 665.565 411.873, 667.595 416.947 C 668.506 419.222, 669.430 420.903, 669.651 420.683 C 671.601 418.733, 673.426 400.408, 673.404 383 C 673.377 362.081, 672.141 353.561, 666.477 335.250 C 663.911 326.957, 663.133 325.929, 661.192 328.268 M 347.576 343.057 C 335.149 384.902, 351.790 436.842, 377.666 436.978 C 381.320 436.997, 382.209 436.524, 384.895 433.132 C 386.703 430.850, 389.970 428.399, 392.864 427.154 C 397.010 425.370, 399 423.503, 399 421.395 C 399 421.152, 397.988 421.606, 396.750 422.403 C 383.344 431.037, 362.945 414.951, 357.420 391.387 C 354.884 380.571, 355.826 363.551, 359.458 354.601 L 362.256 347.702 359.878 345.874 C 358.570 344.869, 355.609 342.673, 353.297 340.995 L 349.094 337.943 347.576 343.057 M 549.760 343.059 L 544.019 346.022 547.354 350.761 C 556.304 363.478, 557.340 380.660, 550.053 395.500 C 535.970 424.182, 503.638 418.336, 495.420 385.622 C 493.661 378.619, 492.864 377.994, 489.244 380.781 C 487.074 382.452, 487.026 382.818, 487.988 390.406 C 489.788 404.599, 497.853 416.558, 509.659 422.540 C 518.577 427.059, 532.646 426.926, 542.180 422.232 C 567.938 409.551, 576.827 371.437, 559.928 346.130 C 557.677 342.758, 555.759 340.022, 555.667 340.048 C 555.575 340.075, 552.917 341.430, 549.760 343.059 M 361.966 355.213 C 359.193 361.556, 358.097 379.781, 359.904 389.500 C 365.614 420.199, 396.114 433.919, 403.406 409.068 C 405.580 401.662, 405.465 401.401, 401.852 405.516 C 394.073 414.376, 383.807 414.485, 376.465 405.786 C 372.629 401.242, 368.192 391.543, 367.444 386.068 C 367.101 383.556, 365.961 379.121, 364.910 376.212 C 362.821 370.429, 362.435 365.467, 364 364.500 C 364.594 364.133, 365 365.301, 365 367.376 C 365 378.489, 372.945 383.519, 379.509 376.560 C 385.638 370.060, 385.324 368.869, 374.906 359.114 C 369.846 354.376, 365.385 350.371, 364.992 350.213 C 364.599 350.055, 363.238 352.305, 361.966 355.213 M 509.041 367.509 C 501.638 372.595, 495.434 377.197, 495.255 377.735 C 494.732 379.304, 500.450 384.824, 503.354 385.553 C 510.173 387.264, 518.589 382.315, 522.135 374.509 C 523.953 370.506, 524.727 359.534, 523.250 358.689 C 522.837 358.453, 516.443 362.422, 509.041 367.509 M 453.517 367.605 C 450.073 374.863, 454.127 387.090, 459.937 386.967 C 461.181 386.940, 461.085 386.583, 459.469 385.217 C 454.178 380.744, 452.827 375.577, 454.983 368.060 C 456.326 363.377, 455.626 363.160, 453.517 367.605 M 427.493 369.339 C 426.605 372.680, 427.490 382.890, 428.779 384.179 C 429.305 384.705, 429.504 381.658, 429.262 376.787 C 428.766 366.823, 428.480 365.619, 427.493 369.339 M 827.500 368.625 C 825.850 368.793, 806.500 369.625, 784.500 370.474 C 728.515 372.635, 699.106 373.890, 687.750 374.603 L 678 375.216 678 378.218 L 678 381.221 689.750 380.567 C 703.012 379.829, 792.048 376.290, 819.500 375.410 C 829.400 375.092, 838.625 374.682, 840 374.498 C 841.375 374.315, 845.200 374.109, 848.500 374.042 L 854.500 373.919 851.038 370.959 C 847.532 367.963, 840.684 367.284, 827.500 368.625 M 526.258 388.202 C 524.121 390.801, 524.344 395.534, 526.645 396.417 C 529.235 397.411, 532.146 394.098, 531.799 390.551 C 531.471 387.201, 528.215 385.821, 526.258 388.202 M 391.428 391.431 C 390.569 394.853, 391.592 397.225, 393.747 396.810 C 396.204 396.337, 396.238 389.669, 393.786 389.197 C 392.639 388.976, 391.858 389.716, 391.428 391.431 M 646.675 417.370 C 638.144 441.132, 625.335 462.342, 608.186 481.106 C 603.838 485.864, 602.981 487.567, 600.947 495.501 C 597.098 510.517, 598.049 540.654, 602.425 542.333 C 603.151 542.611, 605.825 543.151, 608.368 543.532 L 612.991 544.226 611.491 539.973 C 606.683 526.348, 610.409 496.248, 618.296 484.987 C 619.695 482.991, 619.883 483.256, 621.992 490.192 C 623.214 494.211, 624.733 500.601, 625.369 504.391 L 626.525 511.282 631.685 501.391 C 645.155 475.571, 650.574 451.842, 649.817 422 L 649.500 409.500 646.675 417.370 M 416.250 415.031 C 412.549 416.519, 413.651 416.720, 420.250 415.760 C 423.688 415.259, 430.100 415.074, 434.500 415.348 C 439.350 415.650, 441.713 415.510, 440.500 414.993 C 437.835 413.857, 419.099 413.886, 416.250 415.031 M 846 416.701 C 839.125 416.849, 812.575 417.654, 787 418.490 C 761.425 419.326, 737.040 420.008, 732.812 420.005 L 725.123 420 725.079 437.474 C 725.035 454.567, 725.083 454.973, 727.267 456.099 C 728.495 456.732, 730.513 458.172, 731.750 459.299 L 734 461.349 734 445.733 C 734 434.324, 734.337 429.908, 735.250 429.337 C 737.584 427.880, 849.294 425.863, 850.183 427.262 C 850.616 427.943, 850.990 446.725, 851.016 469 L 851.063 509.500 855.532 512.212 L 860 514.923 860 465.462 C 860 438.258, 859.663 416.097, 859.250 416.216 C 858.837 416.335, 852.875 416.553, 846 416.701 M 787.500 429.055 C 775.400 429.435, 758.862 429.804, 750.750 429.873 L 736 430 736 448.922 L 736 467.845 739.353 468.951 C 745.293 470.912, 750.711 479.233, 748.098 482.382 C 747.272 483.377, 747.373 484.649, 748.493 487.329 C 749.322 489.313, 750 491.866, 750 493.003 C 750 494.737, 750.312 494.903, 751.934 494.035 C 752.998 493.466, 755.590 493, 757.694 493 C 760.397 493, 761.874 492.431, 762.731 491.059 C 768.618 481.632, 788.506 480.750, 798.686 489.463 C 800.958 491.408, 803.842 493, 805.093 493 C 811.402 493, 821.542 501.327, 824.207 508.695 C 824.870 510.529, 825.882 511.825, 826.456 511.574 C 832.008 509.155, 839.014 507.825, 843.675 508.306 L 849 508.855 849 468.428 L 849 428 829.250 428.182 C 818.388 428.282, 799.600 428.675, 787.500 429.055 M 441.805 442.422 C 440.322 443.735, 438.099 445.517, 436.865 446.382 C 435.631 447.247, 434.873 448.206, 435.181 448.514 C 436.176 449.509, 440.924 446.765, 442.579 444.239 C 443.805 442.368, 444.460 442.065, 445.343 442.960 C 446.221 443.852, 446.032 444.480, 444.559 445.567 C 443.010 446.710, 442.935 447, 444.186 447 C 446.306 447, 448.243 444.501, 447.821 442.310 C 447.313 439.670, 444.858 439.716, 441.805 442.422 M 392 444 C 392 446.092, 395.266 450, 397.014 450 C 397.572 450, 396.837 448.200, 395.381 446 C 392.362 441.438, 392 441.224, 392 444 M 487 447.903 C 487.825 448.489, 489.625 448.981, 491 448.994 C 496.900 449.054, 506.965 455.739, 512.504 463.277 C 515.443 467.278, 516.975 467.691, 514.969 463.941 C 512.632 459.575, 505.505 452.783, 500.712 450.354 C 495.790 447.860, 483.968 445.746, 487 447.903 M 798 465.087 C 790.025 472.713, 783.950 478.945, 784.500 478.936 C 785.821 478.913, 813.646 452.325, 813 451.703 C 812.725 451.438, 805.975 457.461, 798 465.087 M 688.681 453.430 C 683.918 454.711, 678.235 458.138, 676.718 460.645 C 676.221 461.465, 674.881 461.726, 673.046 461.359 C 667.358 460.222, 654.130 469.047, 652.042 475.372 C 651.254 477.760, 651.245 479.513, 652.009 481.523 C 652.696 483.332, 652.729 484.549, 652.101 484.937 C 648.984 486.864, 648.054 499.164, 650.472 506.500 L 651.790 510.500 651.913 507 C 652.131 500.743, 654.930 489.662, 657.718 484.017 C 659.217 480.983, 660.338 478.002, 660.211 477.394 C 660.049 476.626, 661.579 476.703, 665.207 477.644 C 671.758 479.343, 673.266 479.337, 680.031 477.582 C 683.037 476.802, 685.649 476.316, 685.834 476.501 C 686.580 477.246, 681.680 479.127, 675.765 480.367 L 669.500 481.680 674.932 483.340 C 684.344 486.217, 697.519 484.841, 705.466 480.152 C 711.725 476.460, 712.005 478.535, 705.850 482.994 L 701.700 486 706.882 486 C 713.356 486, 718.146 484.033, 724.291 478.852 L 729.086 474.808 728.293 477.654 C 726.390 484.483, 727.645 493.001, 731.228 497.575 L 733.500 500.475 734.059 495.988 C 734.734 490.570, 735.374 491.980, 736.972 502.407 C 738.630 513.228, 738.479 512.990, 742.500 511.099 C 745.454 509.710, 746.053 508.786, 747.059 504.068 C 748.666 496.534, 747.855 488.648, 745.090 484.908 C 743.072 482.178, 743.030 481.909, 744.675 482.189 C 746.126 482.436, 746.458 481.911, 746.295 479.629 C 746.030 475.909, 743.533 473.172, 738.250 470.808 C 735.067 469.384, 734 468.340, 734 466.649 C 734 463.736, 727.694 457.520, 725.566 458.336 C 724.705 458.667, 724 459.679, 724 460.585 C 724 461.792, 722.946 461.280, 720.060 458.673 C 713.249 452.520, 700.186 450.338, 688.681 453.430 M 813 463.573 C 801.229 474.090, 797.677 477.664, 800.500 476.153 C 802.579 475.040, 823.880 455.100, 823 455.091 C 822.725 455.088, 818.225 458.905, 813 463.573 M 477.500 459.346 C 472.515 460.997, 467.019 463.790, 455.500 470.527 C 440.749 479.155, 430.455 482.348, 418.250 482.082 C 414.262 481.995, 411 482.110, 411 482.338 C 411 482.565, 412.128 485.301, 413.506 488.417 L 416.011 494.082 423.756 493.291 C 434.946 492.148, 462.063 492.688, 472.250 494.257 C 477.530 495.070, 481 495.226, 481 494.650 C 481 494.125, 479.462 488.027, 477.581 481.098 C 475.701 474.169, 473.913 466.925, 473.608 465 C 472.958 460.893, 477.634 474.881, 481.050 487.260 L 483.423 495.860 491.675 497.930 C 507.763 501.965, 512.012 500.188, 511.985 489.436 C 511.966 482.124, 511.543 481.466, 506.342 480.655 L 502.184 480.006 503.994 483.753 C 506.176 488.271, 507.659 497, 506.245 497 C 505.705 497, 505.025 495.313, 504.734 493.250 C 504.443 491.188, 503.275 487.363, 502.138 484.750 L 500.071 480 494.786 479.985 C 491.878 479.976, 488.825 479.533, 488 479 C 486.907 478.294, 487.722 478.022, 491 478 C 497.343 477.957, 498.288 477.092, 497.860 471.718 C 497.662 469.228, 497.820 467.389, 498.211 467.631 C 498.847 468.023, 500.339 473.920, 500.455 476.500 C 500.502 477.533, 509 478.565, 509 477.538 C 509 476.675, 504.393 469.871, 501.785 466.882 C 495.511 459.693, 485.672 456.640, 477.500 459.346 M 659.461 484.305 C 653.871 496.514, 652.583 515.514, 656.386 529.664 C 661.540 548.843, 675.344 559.346, 695.500 559.423 C 714.356 559.496, 731.005 549.690, 736.141 535.485 C 737.219 532.505, 737.860 532, 740.566 532 C 749.123 532, 754.410 518.202, 747.663 513.477 C 744.833 511.494, 743.385 511.615, 740.964 514.036 C 738.189 516.811, 737.256 515.896, 736.474 509.638 C 735.734 503.712, 735.380 502.980, 732.500 501.409 C 728.871 499.430, 725.896 492.625, 725.803 486.091 L 725.718 480.113 722.555 482.526 C 717.588 486.315, 712.552 488, 706.199 488 C 699.867 488, 698.427 487.395, 700.064 485.423 C 700.860 484.464, 699.985 484.501, 696.396 485.581 C 686.700 488.499, 670.405 486.266, 669.254 481.862 C 668.986 480.838, 668.257 479.994, 667.633 479.986 C 667.010 479.979, 665.487 479.701, 664.248 479.369 C 662.288 478.844, 661.668 479.484, 659.461 484.305 M 524.993 490.500 C 524.951 497.340, 522.656 503.217, 518.551 507 C 516.035 509.319, 515.115 509.500, 505.849 509.500 C 496.282 509.500, 496 509.561, 499.180 510.941 C 505.285 513.591, 515.064 512.951, 519.437 509.616 C 525.699 504.840, 529.451 491.339, 526 486 C 525.314 484.938, 525.020 486.251, 524.993 490.500 M 774.994 485.875 C 770.622 487.308, 766.577 489.727, 764.076 492.405 C 762.348 494.254, 760.624 495.004, 758.076 495.014 C 752.325 495.036, 750.001 495.999, 749.988 498.367 C 749.982 499.540, 749.374 502.761, 748.638 505.524 C 747.343 510.387, 747.376 510.606, 749.674 512.339 C 752.020 514.108, 752.100 514.082, 756.664 510.064 C 759.204 507.829, 761.668 506, 762.141 506 C 762.613 506, 763.014 504.988, 763.032 503.750 C 763.061 501.637, 763.197 501.683, 765.254 504.500 C 769.283 510.017, 777.689 516.984, 780.332 516.996 C 780.789 516.998, 780.190 515.425, 779 513.500 C 776.175 508.928, 777.152 509.082, 782.847 514.104 C 790.916 521.221, 802.752 525.986, 812.432 526.015 C 815.369 526.024, 816.968 526.368, 816.236 526.833 C 815.217 527.480, 815.219 529.237, 816.250 535.878 L 817.529 544.120 821.014 537.324 C 825.086 529.387, 825.893 516.919, 822.793 509.860 C 819.234 501.757, 810.813 495, 804.273 495 C 802.687 495, 801.005 494.237, 800.378 493.234 C 797.170 488.097, 781.803 483.642, 774.994 485.875 M 593.898 494.659 C 586.673 501.092, 586.784 500.744, 585.450 521.167 L 584.753 531.834 588.627 533.911 C 590.757 535.053, 594.019 537.217, 595.876 538.719 L 599.252 541.451 598.376 536.975 C 596.768 528.762, 597.333 503.192, 599.279 496.101 C 600.245 492.581, 600.869 489.535, 600.665 489.332 C 600.462 489.128, 597.416 491.525, 593.898 494.659 M 667 504.012 C 670.128 506.473, 679.183 509.985, 680.435 509.222 C 681.384 508.644, 667.674 501.981, 665.620 502.022 C 665.004 502.034, 665.625 502.930, 667 504.012 M 716 502.668 C 706.237 505.985, 700.980 508.380, 701.757 509.157 C 702.780 510.180, 719 504.241, 719 502.844 C 719 501.925, 718.306 501.884, 716 502.668 M 426.860 505.087 C 425.015 506.227, 428.461 506.825, 440.623 507.475 C 449.487 507.949, 452.055 507.830, 450.746 507.004 C 448.755 505.747, 428.431 504.115, 426.860 505.087 M 757.787 511.334 C 753.185 515.107, 752.540 516.075, 752.810 518.804 C 753.314 523.901, 749.720 530.689, 745.436 532.732 L 741.748 534.491 742.306 541.995 C 744.165 566.987, 758.970 581.077, 781.990 579.765 C 795.814 578.977, 805.608 572.980, 812.227 561.251 C 814.870 556.568, 815.550 556, 818.507 556 C 825.509 556, 830.240 544.383, 824.791 540.566 C 822.316 538.833, 821.625 539.263, 819.195 544.046 C 816.521 549.307, 815 548.976, 815 543.133 C 815 540.364, 814.524 535.881, 813.943 533.171 L 812.886 528.243 807.746 527.561 C 800.611 526.614, 792.287 523.552, 787.250 520.021 C 784.033 517.765, 783 517.417, 783 518.588 C 783 521.788, 774.857 517.548, 768.547 511.063 C 763.703 506.084, 764.208 506.071, 757.787 511.334 M 672.203 510.256 C 669.988 512.924, 669.831 516.570, 671.824 519.031 C 675.439 523.496, 678.981 516.571, 675.965 510.934 C 674.764 508.690, 673.666 508.492, 672.203 510.256 M 706.241 511.986 C 704.463 514.832, 704.705 517.430, 706.999 520.139 C 708.961 522.456, 709.027 522.464, 710.499 520.559 C 713.247 517.005, 711.948 510, 708.541 510 C 707.958 510, 706.923 510.894, 706.241 511.986 M 831.529 511.733 L 826.557 513.500 826.384 521.500 C 826.289 525.900, 825.508 531.413, 824.650 533.750 C 823.742 536.222, 823.508 538, 824.092 538 C 824.644 538, 826.184 539.174, 827.514 540.610 L 829.933 543.220 836.264 540.257 C 844.238 536.526, 849.351 532.059, 853.069 525.578 L 855.981 520.500 855.991 524.054 C 856.012 532.044, 863.677 542.200, 872.699 546.191 L 877 548.094 877.103 553.797 L 877.205 559.500 879.041 554 C 884.724 536.979, 876.896 518.277, 863.356 516.527 C 860.685 516.182, 857.825 515.478, 857 514.962 C 848.916 509.913, 839.873 508.767, 831.529 511.733 M 649.200 514.200 C 647.337 516.063, 647.781 523.129, 649.989 526.750 C 652.279 530.506, 654.486 531.106, 653.670 527.750 C 653.369 526.513, 652.812 522.688, 652.432 519.250 C 651.723 512.829, 651.273 512.127, 649.200 514.200 M 686.015 517.364 C 686.007 518.389, 685.004 520.999, 683.787 523.165 C 681.369 527.467, 682.008 530.170, 685.607 530.866 C 687.463 531.225, 687.463 531.191, 685.612 529.135 C 684.126 527.484, 683.975 526.735, 684.904 525.616 C 686.740 523.403, 687.882 518.424, 686.907 516.884 C 686.223 515.803, 686.027 515.909, 686.015 517.364 M 849.500 533.134 C 844.985 537.774, 834.533 543.997, 831.250 543.999 C 829.420 544, 829.713 544.927, 832.250 547.159 L 834.500 549.139 831.728 548.545 C 827.998 547.745, 826.975 550.349, 830.043 552.834 C 833.084 555.296, 832.132 560.301, 828.715 559.815 C 827.347 559.620, 826.384 558.685, 826.196 557.370 C 825.928 555.493, 825.606 555.374, 823.488 556.370 C 820.525 557.763, 819.263 565.302, 820.792 572.471 C 821.608 576.299, 821.524 577.245, 820.327 577.705 C 818.048 578.579, 824.491 584.636, 829.934 586.738 C 837.571 589.685, 851.087 589.194, 858.182 585.710 C 868.933 580.430, 873.627 572.733, 874.608 558.775 L 875.269 549.367 869.677 546.630 C 863.654 543.684, 859.090 538.746, 856.259 532.115 L 854.500 527.995 849.500 533.134 M 754 530.076 C 752.886 530.853, 753.342 530.955, 755.774 530.476 C 758.174 530.003, 760.009 530.398, 762.650 531.956 C 767.030 534.540, 768.116 534.023, 764.418 531.114 C 761.553 528.860, 756.471 528.354, 754 530.076 M 789 529.709 C 786.963 530.458, 784 533.111, 784 534.185 C 784 534.666, 785.302 534.097, 786.893 532.921 C 789.118 531.276, 790.858 530.867, 794.425 531.151 C 798.349 531.463, 798.798 531.325, 797.341 530.260 C 795.583 528.974, 791.696 528.718, 789 529.709 M 759.054 537.435 C 757.032 539.872, 758.137 545.448, 760.715 545.815 C 763.458 546.205, 764.815 542.085, 763.148 538.426 C 761.885 535.654, 760.759 535.381, 759.054 537.435 M 788.054 538.435 C 786.032 540.872, 787.137 546.448, 789.715 546.815 C 792.458 547.205, 793.815 543.085, 792.148 539.426 C 790.885 536.654, 789.759 536.381, 788.054 538.435 M 437.978 541.892 C 390.899 562.247, 362.299 613.969, 386.188 635.551 C 392.925 641.637, 400.067 644.340, 410.674 644.818 C 433.082 645.828, 455.046 637.654, 490.237 615.206 C 505.869 605.234, 514.497 600.778, 522.629 598.475 C 524.563 597.928, 526.065 586.404, 524.907 581.004 C 523.403 573.988, 518.214 565.834, 514 563.863 C 503.564 558.983, 469.666 568.727, 436 586.284 C 408.239 600.762, 403.550 603.012, 400 603.559 L 396.500 604.099 400.881 601.712 L 405.263 599.325 401.651 597.093 C 391.274 590.680, 396.972 572.927, 412.826 562.271 C 419.986 557.459, 426.774 555.083, 435.623 554.293 L 441.747 553.747 444.328 546.161 C 445.748 541.989, 446.817 538.493, 446.705 538.392 C 446.592 538.290, 442.665 539.865, 437.978 541.892 M 736.633 539.515 C 735.234 543.159, 736.033 548.529, 738.415 551.500 C 741.607 555.481, 741.943 554.761, 740.608 546.792 C 739.413 539.658, 737.748 536.609, 736.633 539.515 M 685.250 541.220 C 682.616 542.491, 682.136 544.604, 684.750 543.423 C 687.793 542.048, 696.718 541.779, 698.989 542.994 C 701.833 544.516, 702.917 543.405, 700.427 541.521 C 698.155 539.802, 688.584 539.613, 685.250 541.220 M 772.116 544.115 C 772.052 545.003, 771.056 546.930, 769.903 548.396 C 767.640 551.273, 768.569 554, 771.814 554 C 773.111 554, 773.067 553.770, 771.559 552.667 C 769.827 551.400, 769.821 551.203, 771.451 548.716 C 772.394 547.276, 772.956 545.289, 772.699 544.299 C 772.324 542.856, 772.209 542.819, 772.116 544.115 M 728.750 549.008 C 725.043 552.477, 725 552.605, 725 560.246 L 725 567.975 728.980 570.487 C 731.169 571.869, 733.194 573, 733.480 573 C 734.252 573, 733.972 548.748, 733.180 547 C 732.638 545.804, 731.741 546.211, 728.750 549.008 M 855.370 546.438 C 853.649 547.188, 851.935 548.297, 851.561 548.901 C 850.632 550.405, 851.556 550.281, 855.157 548.419 C 856.901 547.517, 859.243 547.095, 860.608 547.438 C 861.959 547.777, 863 547.594, 863 547.019 C 863 546.459, 862.587 546, 862.082 546 C 861.577 546, 860.564 545.791, 859.832 545.536 C 859.099 545.282, 857.092 545.687, 855.370 546.438 M 735.641 563.279 C 735.996 574.882, 736.012 574.952, 739.911 580.984 C 742.064 584.315, 744.839 589.485, 746.077 592.473 L 748.329 597.906 752.119 594.116 C 755.570 590.665, 761.783 586.914, 766.250 585.584 C 772.435 583.742, 761.629 576, 752.873 576 C 750.438 576, 747.557 575.382, 746.473 574.628 C 745.388 573.873, 742.990 572.927, 741.145 572.525 C 738.009 571.843, 737.833 571.591, 738.435 568.648 C 740.377 559.152, 740.296 557.455, 737.753 554.500 L 735.286 551.631 735.641 563.279 M 853.389 555.585 C 852.450 559.326, 855.285 562.144, 857.630 559.799 C 859.824 557.605, 858.720 553, 856 553 C 854.724 553, 853.811 553.904, 853.389 555.585 M 878.655 559.781 C 875.593 567.586, 875.528 568, 877.364 568 C 882.117 568, 886.265 557.125, 882.655 554.129 C 881.580 553.236, 880.780 554.367, 878.655 559.781 M 718.250 556.770 C 711.966 560.289, 712.139 564.178, 718.678 566.406 C 721.251 567.283, 723.501 568, 723.678 568 C 724.345 568, 723.937 556.454, 723.235 555.445 C 722.751 554.750, 721.049 555.202, 718.250 556.770 M 741.421 559.817 C 741.429 561.843, 741.225 565.075, 740.967 567 C 740.562 570.032, 740.781 570.504, 742.605 570.533 C 743.762 570.552, 745.482 571.339, 746.426 572.283 C 747.370 573.228, 749.507 574, 751.175 574 L 754.207 574 751.102 570.463 C 749.394 568.518, 746.881 564.725, 745.517 562.034 C 742.337 555.758, 741.404 555.253, 741.421 559.817 M 430.045 559.092 C 417.805 561.492, 404.584 572.298, 401.355 582.543 C 399.273 589.147, 400.268 592.084, 405.650 595.228 L 408.780 597.056 421.140 589.837 C 433.802 582.441, 456.543 571.219, 463.259 569.052 C 468.074 567.498, 467.564 566.838, 458.697 563.146 C 447.873 558.640, 438.859 557.365, 430.045 559.092 M 813.263 563.357 C 810.191 568.492, 804.368 574.575, 800.395 576.799 C 796.961 578.721, 799.958 579.391, 806.270 578.112 C 809.697 577.418, 813.902 576.772, 815.616 576.675 L 818.733 576.500 818.635 567.250 C 818.520 556.440, 817.739 555.874, 813.263 563.357 M 839.241 562.173 C 838.012 565.429, 838.931 568, 841.322 568 C 842.068 568, 842.056 567.656, 841.282 566.882 C 840.651 566.251, 840.403 564.291, 840.713 562.382 C 841.402 558.136, 840.797 558.050, 839.241 562.173 M 707 561 C 705.625 561.440, 700.390 561.845, 695.367 561.900 C 686.744 561.994, 686.206 562.126, 685.745 564.250 C 685.477 565.487, 684.926 567.288, 684.521 568.251 C 683.483 570.721, 690.887 573.963, 697.500 573.934 C 705.666 573.898, 717.212 568.818, 713.654 566.826 C 712.698 566.291, 712 564.655, 712 562.950 C 712 559.870, 711.337 559.611, 707 561 M 521.400 567.436 C 526.898 574.639, 528.363 579.698, 527.759 589.386 L 527.237 597.749 531.958 598.309 C 534.555 598.616, 539.210 599.722, 542.302 600.766 L 547.925 602.664 551.462 593.825 C 555.967 582.569, 556.055 583.193, 549.048 576.705 C 542.588 570.724, 535.295 566.695, 526.869 564.453 C 518.013 562.096, 517.526 562.361, 521.400 567.436 M 771.562 563.900 C 771.033 564.756, 779.987 566.060, 780.971 565.269 C 781.230 565.061, 780.780 564.473, 779.971 563.961 C 778.083 562.767, 772.288 562.725, 771.562 563.900 M 716.464 569.059 C 716.076 569.686, 713.001 571.504, 709.630 573.099 C 699.858 577.721, 689.789 577.011, 683.775 571.273 L 681.050 568.674 676.775 570.586 C 670.140 573.554, 664.713 579.703, 659.986 589.609 C 653.980 602.198, 650.746 611.989, 652.069 613.583 C 653.025 614.735, 662.073 618.336, 662.532 617.747 C 662.637 617.611, 663.708 611.650, 664.911 604.501 C 666.114 597.352, 667.526 591.074, 668.049 590.551 C 669.512 589.088, 669.288 591.228, 665.565 614.253 C 660.164 647.656, 660.195 646.969, 663.882 652.329 C 667.661 657.821, 667.708 658.220, 664.435 656.975 C 660.768 655.581, 660 655.748, 660 657.941 C 660 660.505, 660.478 660.734, 669.651 662.550 C 685.241 665.637, 727.569 665.357, 732.787 662.132 C 733.531 661.672, 733.590 657.450, 732.980 648.254 C 731.510 626.085, 730.996 622.934, 728.712 622.089 C 727.072 621.482, 726.280 619.250, 724.405 609.953 C 722.283 599.432, 722.092 596.759, 723.567 598.234 C 723.879 598.546, 725.111 603.571, 726.304 609.401 L 728.473 620 733.216 620 C 740.663 620, 751 616.242, 751 613.534 C 751 607.652, 742.337 587.348, 736.649 579.899 C 731.991 573.798, 718.134 566.357, 716.464 569.059 M 876.259 569.715 C 875.576 569.960, 874.310 571.652, 873.445 573.475 C 872.580 575.298, 870.292 578.636, 868.360 580.893 C 864.855 584.987, 865.298 585.347, 870.678 582.779 C 871.876 582.207, 873.978 581.954, 875.349 582.216 C 877.774 582.679, 877.852 582.513, 878.171 576.248 C 878.512 569.566, 878.337 568.969, 876.259 569.715 M 837.673 575.250 C 836.241 576.297, 837.026 576.500, 842.500 576.500 C 847.974 576.500, 848.759 576.297, 847.327 575.250 C 846.387 574.563, 844.215 574, 842.500 574 C 840.785 574, 838.613 574.563, 837.673 575.250 M 810.500 579.536 C 808.850 580.292, 807.950 580.967, 808.500 581.036 C 809.050 581.106, 810.625 581.280, 812 581.424 C 813.375 581.568, 815.850 582.045, 817.500 582.484 L 820.500 583.282 818.076 580.641 C 815.357 577.680, 814.748 577.591, 810.500 579.536 M 794.388 580.480 C 791.599 582.552, 793.507 584.854, 800.028 587.280 C 803.898 588.720, 807.177 591.027, 811.225 595.158 C 817.459 601.519, 818.084 601.813, 820.128 599.338 C 820.882 598.424, 823.862 596.630, 826.750 595.351 C 829.707 594.041, 832 592.372, 832 591.529 C 832 588.902, 822.254 584.790, 815.038 584.374 C 809.984 584.082, 808.117 583.535, 806.812 581.964 C 805.595 580.498, 804.435 580.104, 802.655 580.550 C 801.297 580.891, 799.307 580.699, 798.231 580.124 C 796.785 579.350, 795.785 579.442, 794.388 580.480 M 769.996 582.500 C 769.991 583.050, 769.354 584.715, 768.579 586.200 C 767.187 588.869, 767.221 588.919, 771.588 590.587 C 774.795 591.812, 777.784 592.131, 782.502 591.752 C 789.034 591.228, 795.353 588.454, 793.137 587.085 C 792.517 586.701, 791.919 585.288, 791.808 583.944 C 791.607 581.515, 791.538 581.500, 780.805 581.500 C 774.277 581.500, 770.001 581.896, 769.996 582.500 M 856.177 588.614 C 852.289 590.312, 852.456 591.778, 856.830 594.333 L 860 596.184 860 591.592 C 860 589.066, 859.888 587.037, 859.750 587.082 C 859.612 587.126, 858.005 587.816, 856.177 588.614 M 761.159 589.601 C 758.019 591.801, 757.318 594.069, 754.918 609.800 C 753.477 619.248, 753.053 625.192, 753.548 628.993 C 753.943 632.022, 754.329 642.257, 754.407 651.739 C 754.520 665.482, 754.848 669.269, 756.025 670.413 C 759.748 674.034, 784.940 674.518, 803.250 671.320 L 812 669.792 811.982 666.146 C 811.954 660.541, 809.293 642.913, 806.300 628.500 C 804.259 618.674, 803.588 612.525, 803.550 603.316 L 803.500 591.132 800.223 589.569 C 797.102 588.081, 796.770 588.122, 793.223 590.432 C 786.207 595.003, 774.241 595.010, 767.519 590.448 C 763.241 587.545, 763.958 587.641, 761.159 589.601 M 833.132 593.458 C 831.775 597.056, 832.483 597.872, 838.047 599.122 C 842.411 600.102, 846.315 599.716, 851.250 597.816 C 854.471 596.576, 854.360 596.923, 852.611 593.551 C 851.284 590.994, 850.842 590.865, 842.735 590.687 L 834.248 590.500 833.132 593.458 M 752.677 595.815 C 749.678 598.946, 749.464 600.481, 751.215 606.324 L 752.431 610.381 754.090 601.940 C 755.003 597.298, 755.661 593.392, 755.552 593.260 C 755.443 593.129, 754.150 594.278, 752.677 595.815 M 805.684 593.649 C 803.510 595.824, 806.705 628.038, 809.358 630.692 C 810.228 631.561, 820.336 629.206, 822.488 627.633 C 824.137 626.427, 824.145 626.012, 822.635 620.818 C 819.162 608.868, 808.136 591.197, 805.684 593.649 M 823.929 598.976 C 818.029 602.095, 817.464 603.309, 819.471 608.562 C 821.071 612.752, 821.314 612.964, 822.625 611.301 C 823.906 609.677, 823.987 609.845, 823.456 613.010 C 823.132 614.941, 823.406 617.866, 824.065 619.510 C 824.724 621.155, 825.380 624.975, 825.523 628 C 825.666 631.025, 826.273 636.650, 826.872 640.500 C 827.470 644.350, 827.969 651.642, 827.980 656.705 L 828 665.909 831.628 666.590 C 836.616 667.526, 861.651 666.392, 866.250 665.023 C 870.846 663.654, 870.792 664.799, 867.500 638.600 C 866.125 627.657, 865.029 617.534, 865.063 616.102 C 865.177 611.445, 866.672 616.735, 867.458 624.577 C 868.420 634.166, 868.699 634.494, 874.093 632.392 C 876.517 631.448, 878.659 630.552, 878.853 630.401 C 879.597 629.824, 874.595 616.197, 871.320 609.879 C 868.960 605.327, 866.527 602.281, 863.531 600.129 C 858.419 596.459, 857.155 596.325, 852.774 598.996 C 848.237 601.762, 837.896 601.764, 832.739 599 C 828.269 596.604, 828.415 596.605, 823.929 598.976 M 651.508 628.590 L 649.693 639.180 652.596 641.603 C 658.715 646.711, 658.578 646.803, 659.845 636.703 C 660.479 631.641, 661.277 625.848, 661.617 623.830 C 662.220 620.252, 662.138 620.132, 658.368 619.085 C 656.241 618.494, 654.235 618.009, 653.912 618.006 C 653.588 618.003, 652.506 622.765, 651.508 628.590 M 746.500 619.605 C 744.850 620.310, 740.918 621.194, 737.763 621.571 C 732.603 622.187, 732.069 622.469, 732.455 624.378 C 733.540 629.736, 734.054 634.521, 735.021 648.230 L 736.060 662.960 732.530 668.092 C 728.935 673.319, 727.998 677.495, 730.250 678.256 C 730.938 678.489, 732.026 677.514, 732.669 676.089 C 733.699 673.806, 733.847 674.342, 733.919 680.619 L 734 687.738 737.250 688.249 C 742.405 689.059, 746.553 688.019, 750.157 685.011 C 753.438 682.274, 753.496 682.084, 753.297 674.861 C 753.185 670.812, 753.047 663.675, 752.992 659 C 752.852 647.357, 751.052 622.291, 750.198 620.108 C 749.580 618.528, 749.155 618.471, 746.500 619.605 M 815.500 631.897 L 809.500 633.500 811.239 643 C 812.195 648.225, 813.188 657, 813.445 662.500 C 813.702 668, 814.208 676.483, 814.570 681.352 L 815.228 690.204 818.364 689.605 C 820.089 689.275, 822.727 687.658, 824.228 686.012 L 826.955 683.018 826.349 663.759 C 825.718 643.746, 824.220 630.786, 822.500 630.475 C 821.950 630.375, 818.800 631.015, 815.500 631.897 M 461.006 637.076 C 451.350 642.029, 435.962 647.447, 428.228 648.617 C 423.021 649.404, 423.402 648.783, 421.487 659.605 C 419.347 671.702, 419.333 686.839, 421.453 695 C 429.974 727.785, 463.531 749, 506.870 749 L 514.984 749 513.367 744.959 C 510.345 737.407, 512.856 739.754, 517.313 748.646 C 537.549 789.023, 548.954 840.112, 548.991 890.538 C 549.005 909.216, 552.643 913.959, 570.417 918.474 C 597.351 925.317, 625.615 920.878, 633.081 908.634 C 640.845 895.901, 623.257 823.242, 602.902 783.959 C 597.609 773.743, 593.422 768.728, 592.501 771.500 C 588.621 783.185, 588.341 778.434, 591.663 757.289 C 595.493 732.906, 595.748 701.322, 592.246 684.982 C 590.029 674.644, 584.462 654.128, 583.652 653.319 C 583.425 653.092, 581.273 654.229, 578.870 655.847 C 560.117 668.466, 519.899 660.769, 480.415 637.006 C 475.840 634.253, 471.738 632.046, 471.299 632.103 C 470.859 632.159, 466.228 634.397, 461.006 637.076 M 873.832 634.438 C 868.875 635.873, 868.902 635.815, 870.082 642.562 C 870.653 645.828, 871.274 655.700, 871.460 664.500 C 871.936 686.942, 873.090 689.691, 879.307 683.201 C 882.782 679.574, 882.839 675.614, 879.843 646 C 878.539 633.117, 878.520 633.080, 873.832 634.438 M 612.402 636.486 C 605.495 637.988, 597.284 641.857, 591.750 646.215 C 587.457 649.596, 587.491 649.440, 589.535 656.471 L 591.069 661.750 598.785 657.868 C 610.966 651.739, 617.083 650.526, 634.500 650.789 C 642.750 650.913, 651.972 651.412, 654.994 651.897 L 660.489 652.779 655.494 648.417 C 642.798 637.328, 627.719 633.153, 612.402 636.486 M 792.521 655.052 C 789.783 657.192, 784.608 660.096, 781.021 661.506 C 776.393 663.326, 775.516 663.910, 778 663.519 C 782.912 662.746, 790.913 658.664, 795.562 654.560 C 800.885 649.860, 798.717 650.211, 792.521 655.052 M 612.373 653.979 C 605.242 655.848, 593.691 661.073, 592.528 662.955 C 592.188 663.504, 592.398 665.764, 592.994 667.977 L 594.077 672 601.828 672 C 615.498 672, 627.183 676.349, 636.217 684.800 C 648.529 696.316, 653.962 713.941, 656.555 750.775 C 658.656 780.614, 660.710 787.543, 670.170 796.684 C 674.883 801.238, 683.485 806, 686.999 806 C 689.145 806, 689.126 805.908, 686.354 802.741 C 673.910 788.528, 668.833 771.392, 666.994 737.394 C 666.408 726.559, 665.693 717.313, 665.405 716.847 C 665.117 716.381, 665.246 716.011, 665.691 716.024 C 666.454 716.046, 672.273 724.392, 676.767 731.911 L 678.806 735.322 679.527 728.594 C 681.175 713.203, 677.827 694.229, 671.017 680.369 C 665.504 669.150, 658.411 662.218, 646.536 656.440 C 637.761 652.172, 637.061 652.002, 628.454 652.055 C 623.093 652.088, 616.640 652.860, 612.373 653.979 M 651 654.294 C 651 654.574, 652.575 655.732, 654.500 656.867 C 657.885 658.865, 658 658.870, 658 657.028 C 658 655.854, 657.329 655.152, 656.250 655.196 C 655.288 655.235, 653.712 654.934, 652.750 654.527 C 651.788 654.119, 651 654.015, 651 654.294 M 666.406 666.250 C 678.055 682.131, 683 697.406, 683 717.506 L 683 728.095 689.172 727.798 L 695.343 727.500 695.129 709 C 694.949 693.406, 694.667 690.343, 693.339 689.500 C 690.011 687.388, 687.547 685.065, 688.602 685.033 C 689.208 685.015, 691.233 686.029, 693.102 687.287 L 696.500 689.573 697.062 708.362 C 697.486 722.514, 697.956 727.355, 698.966 727.979 C 702.854 730.382, 726.532 730.923, 733.850 728.775 L 738.199 727.499 738.075 712 C 737.944 695.757, 737.372 690, 735.889 690 C 733.636 690, 731.057 685.964, 731.590 683.271 C 732.030 681.045, 731.682 680.303, 729.819 679.500 C 726.439 678.042, 726.277 673.691, 729.425 668.934 C 730.841 666.794, 732 664.893, 732 664.709 C 732 664.526, 728.737 664.949, 724.750 665.648 C 714.676 667.416, 686.613 667.339, 675.500 665.514 C 664.064 663.635, 664.464 663.602, 666.406 666.250 M 859 668.167 C 856.525 668.688, 848.578 668.943, 841.340 668.733 L 828.181 668.351 828.693 675.426 C 829.349 684.499, 826.967 688.698, 819.866 690.980 L 815.262 692.460 815.761 703.480 C 816.036 709.541, 816.341 714.602, 816.441 714.727 C 818.899 717.821, 870.206 717.321, 873.126 714.175 C 873.471 713.804, 872.702 703.600, 871.417 691.500 C 870.133 679.400, 869.063 668.938, 869.041 668.250 C 868.994 666.815, 865.555 666.786, 859 668.167 M 801.500 673.664 C 794.254 675.167, 763.059 675.043, 758.250 673.492 C 756.250 672.847, 756 673.105, 756 675.818 C 756 681.697, 752.481 687.027, 747.250 689.071 C 745.186 689.878, 744.999 690.593, 744.993 697.725 C 744.989 702.001, 744.704 708.487, 744.359 712.138 L 743.732 718.777 748.616 719.813 C 756.545 721.497, 767.535 722.297, 772.500 721.552 L 777.126 720.858 776.875 707.282 C 776.640 694.599, 776.466 693.518, 774.223 690.853 C 771.534 687.657, 772.316 687.133, 775.787 689.805 C 777.924 691.449, 778.121 692.545, 778.787 706.521 L 779.500 721.477 785 722.321 C 790.606 723.181, 807.556 722.576, 811.898 721.360 L 814.297 720.689 813.527 702.595 C 812.110 669.291, 812.942 671.292, 801.500 673.664 M 595 674.057 C 595 679.493, 597.459 684.079, 601.709 686.569 C 616.366 695.159, 622.618 709.640, 624.999 740.516 C 628.464 785.430, 633.441 803.649, 647.068 821.301 C 659.068 836.845, 677.846 842.239, 694.731 834.994 C 700.392 832.565, 700.670 831.526, 695.936 830.486 C 691.225 829.451, 678.565 820.481, 673.579 814.644 C 661.368 800.351, 657.712 787.340, 654.995 748.500 C 652.073 706.744, 643.401 687.166, 623.754 677.972 C 614.400 673.595, 595 670.953, 595 674.057 M 598.242 692.750 C 599.440 702.223, 600.438 706.471, 603.348 714.500 C 606.930 724.382, 607.982 732.296, 608.003 749.500 C 608.037 778.400, 609.195 785.888, 616.403 803.810 C 619.873 812.439, 623.490 821.869, 624.441 824.764 C 626.462 830.918, 629.146 833.272, 640.009 838.420 C 646.919 841.694, 655.316 844, 660.331 844 C 662.114 844, 661.982 843.700, 659.340 841.750 C 654.742 838.357, 651.261 833.813, 648.300 827.338 C 646.832 824.127, 644.132 819.413, 642.302 816.862 C 631.916 802.390, 627.381 785.085, 624.519 749 C 622.210 719.876, 619.910 709.545, 613.485 699.440 C 609.956 693.889, 600.725 686, 597.760 686 C 597.555 686, 597.772 689.038, 598.242 692.750 M 740.085 708.843 C 740.334 729.456, 740.316 729.552, 735.989 730.503 L 733 731.159 733 739.079 L 733 747 741.500 747 L 750 747 750 734.652 L 750 722.303 745.897 720.692 L 741.794 719.080 742.473 706.290 C 742.847 699.255, 743.373 692.712, 743.644 691.750 C 744.001 690.476, 743.553 690, 741.997 690 C 739.880 690, 739.861 690.190, 740.085 708.843 M 600.082 718.076 C 599.978 728.986, 598.354 744.959, 596.178 756.490 L 594.480 765.480 598.045 769.045 C 600.005 771.005, 603.003 775.023, 604.706 777.973 L 607.803 783.338 607.412 770.919 C 607.197 764.088, 606.810 751.975, 606.551 744 C 606.079 729.445, 604.520 719.510, 601.686 712.998 C 600.164 709.502, 600.163 709.504, 600.082 718.076 M 819 731.886 C 819 748.003, 818.356 750.881, 814.133 753.648 C 811.709 755.237, 811.678 755.365, 813.537 756.092 C 817.187 757.519, 824.897 757.011, 830.310 754.985 L 835.694 752.971 836.347 740.828 C 836.706 734.150, 837 726.565, 837 723.972 L 837 719.258 829.750 718.579 C 825.763 718.205, 821.712 717.667, 820.750 717.382 C 819.138 716.906, 819 718.050, 819 731.886 M 853.463 718.738 L 846.427 719.079 846.824 735.290 C 847.043 744.205, 847.649 752.030, 848.173 752.677 C 849.898 754.812, 858.251 757, 864.678 757 C 871.626 757, 872.392 756.181, 868.261 753.172 C 865.294 751.010, 864.297 744.466, 864.087 725.750 C 864.011 718.989, 863.777 718.025, 862.250 718.199 C 861.288 718.308, 857.333 718.551, 853.463 718.738 M 838.131 734.500 L 837.957 750 841.478 750 L 845 750 845 734.500 L 845 719 841.653 719 L 838.306 719 838.131 734.500 M 815.818 721.156 C 815.442 722.066, 813.755 723.115, 812.068 723.485 L 809 724.159 809 737.079 L 809 750 812.481 750 C 815.259 750, 816.074 749.546, 816.519 747.750 C 817.312 744.551, 816.642 719.156, 815.818 721.156 M 428.558 738.552 C 430.354 787.473, 422.450 845.050, 409.060 880.583 C 404.361 893.053, 403.954 897.669, 407.278 900.792 C 415.891 908.883, 451.566 910.569, 471.913 903.847 C 484.364 899.734, 486.802 895.279, 489.066 872.500 C 491.226 850.780, 490.245 793.402, 487.136 759.586 L 486.500 752.672 480 751.362 C 460.972 747.527, 443.013 737.774, 432.053 725.323 L 427.899 720.603 428.558 738.552 M 752.229 743.086 L 752.500 763.455 757.327 764.264 C 759.982 764.708, 764.640 764.718, 767.678 764.286 L 773.202 763.500 773.629 743.750 L 774.056 724 768.278 723.991 C 765.100 723.987, 760.128 723.698, 757.229 723.350 L 751.958 722.716 752.229 743.086 M 775.967 723.250 C 775.949 723.388, 775.837 728.976, 775.717 735.670 L 775.500 747.840 778.811 748.226 C 780.632 748.439, 782.358 748.229, 782.648 747.761 C 783.586 746.243, 782.558 724.523, 781.513 723.765 C 780.584 723.092, 776.043 722.670, 775.967 723.250 M 784.377 725.200 C 783.906 725.961, 785.022 764.285, 785.531 764.838 C 786.301 765.674, 798.241 766.191, 802.395 765.568 L 807 764.877 807 744.689 L 807 724.500 795.905 724.500 C 789.802 724.500, 784.614 724.815, 784.377 725.200 M 693.250 729.662 C 692.388 730.010, 692 732.793, 692 738.618 L 692 747.069 697.250 746.410 C 704.044 745.558, 704.157 745.414, 703.802 738.051 L 703.500 731.806 699.500 730.418 C 695.180 728.919, 695.112 728.911, 693.250 729.662 M 686.353 730.716 C 683.343 731.094, 683.152 731.393, 681.987 737.568 C 681.317 741.119, 680.427 744.236, 680.010 744.494 C 679.593 744.752, 677.846 741.821, 676.130 737.981 C 674.268 733.818, 672.401 731, 671.504 731 C 670.677 731, 670.005 731.337, 670.010 731.750 C 670.136 740.902, 673.147 764.781, 675.134 772.385 L 676.150 776.269 682.244 775.632 C 685.596 775.282, 688.429 774.884, 688.541 774.748 C 688.890 774.321, 690.166 729.991, 689.824 730.160 C 689.646 730.248, 688.084 730.498, 686.353 730.716 M 706.350 747.302 C 706.708 755.561, 707 765.621, 707 769.659 L 707 777 719 777 L 731 777 731 754.678 L 731 732.356 718.350 732.321 L 705.700 732.285 706.350 747.302 M 700.500 747.497 C 699.950 747.684, 697.813 748.118, 695.750 748.463 C 692.404 749.023, 692 749.409, 692 752.045 C 692 755.386, 692.045 755.398, 698.951 753.917 C 703.615 752.917, 704 752.612, 704 749.917 C 704 747.188, 703.148 746.599, 700.500 747.497 M 733 756.540 L 733 764.081 741.250 763.790 L 749.500 763.500 749.794 756.250 L 750.088 749 741.544 749 L 733 749 733 756.540 M 775 756.500 C 775 760.075, 775.170 763, 775.378 763 C 775.586 763, 777.386 762.319, 779.378 761.487 C 782.854 760.034, 783 759.772, 783 754.987 L 783 750 779 750 L 775 750 775 756.500 M 809 752.406 C 809 753.320, 809.700 753.630, 811 753.290 C 812.100 753.002, 813 752.369, 813 751.883 C 813 751.398, 812.100 751, 811 751 C 809.900 751, 809 751.633, 809 752.406 M 838 756.977 C 838 762.402, 836.548 764.078, 830.500 765.638 L 827.500 766.412 830.500 767.088 C 834.703 768.034, 859.103 768.012, 856 767.065 C 854.625 766.645, 851.587 765.325, 849.250 764.131 C 845.110 762.015, 845 761.831, 845 756.980 L 845 752 841.500 752 L 838 752 838 756.977 M 491.538 764.987 C 492.110 771.319, 493.010 776.444, 493.538 776.375 C 497.870 775.810, 519.850 771.639, 521.139 771.138 C 522.591 770.573, 522.410 769.539, 519.555 762.077 L 516.332 753.655 503.416 753.564 L 490.500 753.473 491.538 764.987 M 697.750 755.707 C 693.307 756.873, 692 757.646, 692 759.108 C 692 760.149, 692.536 761, 693.191 761 C 693.846 761, 693.573 761.591, 692.585 762.314 C 691.032 763.450, 690.836 764.870, 691.144 772.732 C 691.340 777.739, 691.817 782.152, 692.204 782.539 C 692.592 782.926, 695.404 782.930, 698.454 782.549 L 704 781.856 704 772.483 L 704 763.110 699.250 762.735 L 694.500 762.360 699.250 762.180 L 704 762 704 758 C 704 755.800, 703.888 754.045, 703.750 754.099 C 703.612 754.154, 700.913 754.877, 697.750 755.707 M 832 756.321 C 828.299 758.600, 817.657 759.249, 811.750 757.555 C 809.069 756.787, 809 756.870, 809 760.864 C 809 764.445, 809.329 765.044, 811.605 765.616 C 815.265 766.534, 825.612 765.393, 831.250 763.450 C 835.826 761.872, 836 761.669, 836 757.906 C 836 755.758, 835.888 754.037, 835.750 754.083 C 835.612 754.128, 833.925 755.136, 832 756.321 M 847.179 757.568 C 847.488 761.348, 847.726 761.589, 853.353 763.817 C 863.885 767.986, 878 767.713, 878 763.339 C 878 760.241, 874.009 756.925, 871.741 758.139 C 867.216 760.560, 852.719 758.501, 848.265 754.805 C 847.089 753.829, 846.910 754.282, 847.179 757.568 M 779.500 762.713 C 775.651 763.639, 775.532 765, 779.300 765 C 781.922 765, 783 764.563, 783 763.500 C 783 761.947, 782.837 761.910, 779.500 762.713 M 745.525 768.187 C 733.104 775.918, 738.862 782.602, 755.776 780.087 C 767.730 778.309, 772.628 775.729, 773.417 770.793 C 773.774 768.560, 773.895 766.561, 773.685 766.352 C 773.475 766.142, 768.028 765.863, 761.579 765.731 C 750.381 765.503, 749.660 765.614, 745.525 768.187 M 803.500 767.279 C 801.300 767.760, 796.211 767.872, 792.190 767.529 L 784.880 766.906 785.190 771.203 C 785.495 775.437, 785.603 775.552, 792.474 779 C 798.873 782.211, 800.179 782.500, 808.303 782.500 C 821.760 782.500, 823.399 778.485, 813.128 770.681 C 807.844 766.667, 807.256 766.459, 803.500 767.279 M 506.250 775.850 L 493 778.461 493 785.298 C 493 791.346, 493.202 792.073, 494.750 791.602 C 495.712 791.309, 503.185 789.506, 511.355 787.596 C 519.525 785.686, 526.434 783.900, 526.707 783.626 C 526.980 783.353, 526.447 780.850, 525.522 778.065 C 523.535 772.085, 524.680 772.217, 506.250 775.850 M 681.202 777.735 C 676.302 778.174, 676.279 778.561, 680.653 787.263 L 683.047 792.027 686.024 790.488 C 688.816 789.044, 689.250 788.239, 689.250 784.500 C 689.250 778.166, 688.933 777.007, 687.250 777.175 C 686.288 777.271, 683.566 777.523, 681.202 777.735 M 706 783.226 C 706 788.956, 708.368 792.052, 714.902 794.863 C 724.523 799.001, 743.703 799.716, 745.987 796.021 C 746.970 794.430, 746.137 790.985, 744.236 788.786 C 742.709 787.019, 737.884 787.091, 730.333 788.995 C 727.463 789.718, 726.648 789.330, 721.626 784.854 C 716.996 780.727, 715.256 779.818, 711.043 779.319 L 706 778.721 706 783.226 M 719 779.916 C 719 780.420, 720.778 782.240, 722.950 783.961 C 726.830 787.033, 727.029 787.075, 734.040 786.295 L 741.180 785.500 736.561 782.250 C 732.502 779.394, 731.157 779, 725.471 779 C 721.912 779, 719 779.412, 719 779.916 M 512 789 C 503.475 791.003, 495.842 792.867, 495.038 793.142 C 493.849 793.548, 493.247 802.590, 494.338 803.658 C 494.758 804.070, 533.118 806.215, 533.486 805.848 C 533.898 805.435, 528.495 786.070, 527.836 785.598 C 527.651 785.465, 520.525 786.996, 512 789 M 494.827 805.681 C 494.621 806.132, 494.610 814.901, 494.804 825.169 L 495.157 843.838 500.828 841.886 C 503.948 840.813, 513.475 837.869, 522 835.344 C 530.525 832.819, 537.832 830.454, 538.239 830.088 C 538.779 829.602, 535.423 809.660, 534.574 808.311 C 534.244 807.787, 528.410 807.162, 518.500 806.589 C 512.450 806.239, 504.733 805.707, 501.351 805.408 C 497.970 805.108, 495.034 805.231, 494.827 805.681 M 751.446 808.087 C 750.199 810.105, 753.069 811.500, 758.467 811.500 C 764.313 811.500, 765.561 810.904, 764.655 808.543 C 763.949 806.703, 752.545 806.309, 751.446 808.087 M 752.500 809 C 752.113 809.627, 754.236 809.994, 758.191 809.985 C 762.633 809.974, 764.056 809.683, 763 809 C 761.024 807.723, 753.289 807.723, 752.500 809 M 398.500 814.633 C 320.418 832.702, 300.161 837.494, 300.486 837.819 C 301.314 838.647, 389.712 845.083, 403.445 845.315 L 414.389 845.500 415.178 842 C 416.537 835.975, 420 814.608, 420 812.250 C 420 809.489, 421.400 809.334, 398.500 814.633 M 680.454 816.926 C 681.996 819.421, 694.042 826.259, 700.176 828.122 C 703.980 829.278, 706.938 830.685, 706.750 831.251 C 706.092 833.225, 693.823 839.872, 688.882 840.932 C 679.387 842.968, 665.872 841.376, 661 837.648 C 659.679 836.637, 659.672 836.719, 660.942 838.334 C 661.736 839.343, 664.333 841.509, 666.713 843.147 C 672.764 847.309, 671.465 848.370, 661.110 847.725 C 650.812 847.083, 641.605 844.341, 633.634 839.540 C 629.131 836.827, 627.889 836.412, 628.290 837.753 C 628.576 838.714, 630.182 844.616, 631.858 850.869 C 633.534 857.122, 635.070 862.403, 635.271 862.605 C 635.999 863.332, 713.707 869, 722.958 869 C 726.914 869, 730.740 866.992, 759.439 849.852 C 777.072 839.320, 794.114 829.147, 797.309 827.244 C 800.503 825.341, 802.978 823.646, 802.809 823.477 C 802.639 823.309, 794.400 822.674, 784.500 822.066 C 774.600 821.459, 759.750 820.519, 751.500 819.978 C 695.399 816.302, 679.650 815.625, 680.454 816.926 M 512.761 819.250 C 515.057 819.986, 516.685 819.976, 518.261 819.216 C 520.150 818.304, 519.640 818.141, 515 818.170 C 509.742 818.203, 509.644 818.250, 512.761 819.250 M 528.500 834.468 C 524.100 835.729, 514.763 838.638, 507.750 840.933 L 495 845.106 495 848.894 L 495 852.682 510.750 853.874 C 519.413 854.529, 530.147 855.337, 534.604 855.669 L 542.708 856.273 541.296 845.386 C 539.272 829.785, 540.671 830.978, 528.500 834.468 M 494.623 859.179 C 494.327 862.106, 493.850 868.595, 493.564 873.600 C 492.349 894.828, 488.339 902.770, 476.500 907.396 C 458.403 914.468, 424.585 914.533, 409.276 907.526 C 399.224 902.925, 397.884 896.179, 403.944 880.686 C 405.625 876.389, 407 872.711, 407 872.514 C 407 872.317, 397.663 875.228, 386.250 878.982 C 374.837 882.737, 351.325 890.393, 334 895.995 C 316.675 901.597, 302.157 906.505, 301.738 906.902 C 301.320 907.299, 310.320 908.400, 321.738 909.349 C 333.157 910.298, 363.200 912.839, 388.500 914.995 C 413.800 917.151, 443.500 919.636, 454.500 920.518 C 483.449 922.839, 526.757 926.515, 572.203 930.510 C 594.040 932.430, 613.300 934, 615.004 934 C 618.176 934, 620.943 932.452, 671 902.672 C 719.847 873.611, 723.075 871.571, 721.245 870.914 C 720.285 870.569, 713.650 869.977, 706.500 869.598 C 699.350 869.218, 681.622 868.029, 667.105 866.954 C 652.588 865.879, 639.518 865, 638.061 865 L 635.412 865 637.294 875.750 C 639.940 890.866, 640.070 905.352, 637.605 910.315 C 635.080 915.398, 628.360 920.365, 620.184 923.190 C 611.343 926.245, 582.910 926.524, 571.500 923.668 C 562.653 921.453, 554.319 917.664, 550.661 914.193 C 545.076 908.896, 544.745 907.325, 543.886 882.086 C 543.028 856.888, 543.068 857.046, 537.500 857.013 C 533.923 856.992, 510.058 855.306, 501.331 854.458 L 495.162 853.858 494.623 859.179 M 343.001 934.978 C 342.025 935.595, 344.118 935.716, 349.001 935.324 C 353.126 934.994, 356.688 934.561, 356.917 934.362 C 357.889 933.518, 344.364 934.117, 343.001 934.978 M 345 944.082 C 342.963 944.668, 343.287 944.819, 346.750 944.900 C 349.087 944.955, 351 944.827, 351 944.617 C 351 943.742, 347.325 943.415, 345 944.082" stroke="none" fill="#1a1a1a" fill-rule="evenodd"/>
</svg>