<svg xmlns="http://www.w3.org/2000/svg" width="1024" height="1024" viewBox="0 0 1024 1024" version="1.1">
	<path d="M 515.604 109.832 C 515.321 110.289, 518.686 114.397, 523.082 118.961 C 527.477 123.525, 530.896 127.438, 530.678 127.655 C 530.461 127.872, 528.218 127.165, 525.694 126.083 C 501.757 115.823, 466.118 115.737, 446.213 125.891 C 438.480 129.836, 438.858 130.394, 451.356 133.489 C 465.517 136.996, 465.841 137.614, 453.859 138.258 C 422.451 139.945, 382.823 155.358, 366.111 172.387 C 361.050 177.544, 361.349 179.413, 367.103 178.571 C 369.246 178.257, 372.913 177.755, 375.250 177.455 L 379.500 176.909 373.806 180.071 C 366.128 184.334, 357.208 191.645, 353.524 196.693 C 351.611 199.315, 349.398 201.093, 347.500 201.532 C 312.492 209.636, 293.321 262.677, 313.310 296.128 L 316.517 301.495 312.781 307.090 C 305.729 317.651, 299 336.971, 299 346.660 C 299 352.035, 300.219 352.168, 305.169 347.335 L 308.922 343.670 306.482 350.585 C 305.002 354.780, 304.034 359.760, 304.021 363.245 C 304.001 368.643, 303.695 369.368, 298.944 375.245 C 292.599 383.094, 288.618 391.350, 285.185 403.779 L 282.500 413.500 282.743 449 C 282.997 485.933, 283.767 497.041, 287.180 513 C 299.585 571.004, 330.439 597.246, 406 614.062 C 416.175 616.327, 424.582 618.259, 424.682 618.355 C 424.783 618.452, 423.324 623.699, 421.442 630.016 C 419.559 636.332, 418.015 642.450, 418.009 643.611 C 417.998 646.242, 413.084 646.979, 395.461 646.991 C 385.674 646.998, 382.735 647.351, 379.743 648.876 C 376.234 650.665, 375.131 650.690, 356.014 649.404 L 335.965 648.056 328.732 650.663 C 317.038 654.878, 185.687 711.450, 168.898 719.502 C 163.373 722.151, 161.534 726.098, 161.649 735.054 C 161.824 748.739, 164.560 751.351, 180.572 753.131 L 191.645 754.361 192.927 821.931 C 193.633 859.094, 194.414 889.837, 194.664 890.250 C 197.115 894.299, 197.300 888.082, 196.668 823 C 196.305 785.600, 196.388 755, 196.852 755 C 197.316 755, 214.302 757.016, 234.598 759.479 C 254.894 761.943, 322.125 770.058, 384 777.512 C 445.875 784.967, 522.195 794.201, 553.600 798.033 C 585.004 801.865, 611.217 805, 611.850 805 C 612.705 805, 613 821.052, 613 867.500 C 613 908.500, 613.344 930, 614 930 C 614.656 930, 615 908.557, 615 867.671 L 615 805.342 621.616 806.228 C 625.808 806.790, 629.281 806.749, 631.094 806.117 C 632.668 805.569, 662.777 787.093, 698.004 765.060 C 733.231 743.027, 762.338 725, 762.687 725 C 763.036 725, 763.052 750.762, 762.723 782.250 C 762.081 843.487, 762.508 863, 764.486 863 C 765.799 863, 767 810.663, 767 753.463 L 767 722.253 775.250 716.869 C 784.999 710.508, 785.859 708.805, 785.944 695.705 C 786.018 684.135, 784.706 682.596, 773.944 681.626 C 758.765 680.258, 755.876 679.767, 756.308 678.627 C 756.544 678.007, 757.738 665.125, 758.963 650 C 761.749 615.588, 761.069 618.627, 766.444 616.575 C 774.849 613.364, 777.036 606.197, 783.550 560.500 C 788.761 523.939, 786.245 516.621, 766.609 511.242 L 760.037 509.442 763.591 504.471 C 774.645 489.014, 782 469.146, 782 454.745 C 782 449.284, 782.856 450.463, 784.848 458.670 C 787.762 470.677, 791.161 467.081, 796.751 446.081 C 801.040 429.971, 800.339 400.749, 795.289 385.058 C 795.013 384.201, 795.993 384.962, 797.466 386.750 C 802.089 392.359, 803.380 391.249, 802.699 382.250 C 801.889 371.562, 799.534 362.998, 794.655 353 C 789.192 341.804, 789.241 342.041, 793.122 345.582 C 802.973 354.572, 804.442 354.802, 803.752 347.250 C 802.701 335.752, 794.782 316.492, 784.149 299.574 C 780.767 294.194, 778 289.579, 778 289.318 C 778 289.058, 780.355 290.905, 783.233 293.422 C 791.503 300.657, 792.619 299.458, 788.885 287.355 C 785.454 276.238, 775.510 258.158, 770.572 254.060 C 769.257 252.969, 769.058 251.597, 769.559 247.100 C 770.317 240.297, 768.634 227.303, 765.890 218.784 C 756.844 190.691, 738.910 171.883, 716.427 166.912 C 712.369 166.015, 708.946 164.382, 705.574 161.733 C 695.475 153.800, 671.512 144.237, 661 143.944 C 659.452 143.901, 661.356 142.851, 666 141.187 C 676.457 137.440, 675.995 136.326, 662.079 131.721 C 625.593 119.649, 593.937 119.203, 573.370 130.472 L 567.240 133.830 563.370 129.821 C 555.046 121.197, 541.897 113.390, 530.661 110.398 C 524.919 108.869, 516.397 108.548, 515.604 109.832 M 526.688 118.250 C 532.288 123.960, 539 133.206, 539 135.210 C 539 135.660, 536.288 134.660, 532.973 132.986 C 516.998 124.922, 499.895 121.422, 480.642 122.278 C 469.556 122.770, 454.465 125.612, 450 128.047 C 448.285 128.983, 447.386 128.563, 458.500 132.013 C 466.066 134.361, 476 138.901, 476 140.010 C 476 140.388, 469.363 140.974, 461.250 141.313 C 437.143 142.320, 415.093 147.895, 393.500 158.443 C 383.492 163.332, 367.426 173.759, 368.401 174.734 C 368.621 174.954, 372.253 174.654, 376.473 174.067 C 385.752 172.776, 397 172.671, 397 173.875 C 397 174.356, 395.611 175.028, 393.914 175.367 C 385.020 177.146, 365.573 188.553, 358.054 196.403 L 354.608 200 359.054 200.015 C 372.844 200.061, 392.778 209.729, 408.068 223.788 L 413.410 228.701 421.492 222.535 C 425.937 219.143, 431.432 215.498, 433.704 214.434 C 437.086 212.851, 438.347 211.413, 440.667 206.500 C 444.979 197.368, 455.578 187.230, 466.174 182.101 C 470.834 179.845, 475.401 178, 476.323 178 C 480.055 178, 477.645 176.324, 472.250 175.167 C 464.666 173.540, 459.732 171.323, 460.217 169.762 C 462.051 163.854, 490.716 159.860, 500.822 164.105 C 503.885 165.391, 503.067 165.500, 490.322 165.500 C 479.605 165.500, 475.075 165.929, 470.157 167.408 C 462.647 169.667, 463.096 170.128, 475.654 173.051 C 490.628 176.537, 490.437 176.257, 480.078 179.541 C 464.379 184.518, 449.148 196.544, 443.601 208.343 C 440.284 215.396, 440.578 215.856, 446.720 213.223 C 454.980 209.682, 479.116 201, 480.701 201 C 481.605 201, 479.978 203.416, 476.664 206.996 C 468.469 215.848, 459.902 235.002, 464.139 234.999 C 468.447 234.997, 487.532 223.758, 499.318 214.284 C 506.568 208.456, 508.580 207.972, 505.072 212.898 C 502.645 216.307, 498.634 224.968, 499.214 225.548 C 499.862 226.196, 513.110 219.087, 520.909 213.907 C 529.667 208.090, 530.945 208.116, 524.293 213.977 C 511.561 225.196, 494.498 232.005, 496.398 225.109 C 496.642 224.224, 497.158 222.375, 497.545 221 L 498.248 218.500 495.874 220.607 C 485.094 230.174, 464.905 239.826, 461.532 237.026 C 458.187 234.251, 461.022 223.133, 467.568 213.355 L 471.682 207.209 465.091 209.688 C 461.466 211.052, 454.517 213.705, 449.650 215.584 C 439.616 219.457, 438.451 219.628, 437.212 217.414 C 436.469 216.086, 434.850 216.939, 427.244 222.664 C 417.135 230.274, 396.431 249.723, 401.750 246.613 C 404.094 245.242, 403.006 248.077, 399.186 253.293 C 375.357 285.827, 368.202 323.061, 374.036 384.159 C 376.752 412.599, 376.356 417.799, 370.086 436.126 C 366.636 446.210, 363.514 458.847, 364.283 459.616 C 364.435 459.769, 365.622 457.892, 366.919 455.447 C 369.402 450.766, 371.661 449.426, 370.622 453.250 C 369.328 458.014, 368.772 468.995, 369.540 474.620 L 370.343 480.500 371.248 475.250 C 372.251 469.428, 374 468.170, 374 473.270 C 374 481.318, 380.599 498.551, 385.280 502.728 C 387.212 504.452, 387.247 504.432, 386.569 502 C 386.030 500.066, 386.921 500.683, 390.510 504.731 C 402.222 517.942, 424.529 530.593, 449.063 537.939 C 464.810 542.654, 465.471 542.748, 464.035 540.066 C 461.810 535.907, 463.179 535.849, 466.691 539.952 C 471.484 545.551, 477.679 550, 480.683 550 C 481.994 550, 485.189 551.067, 487.783 552.370 C 495.251 556.123, 496.933 556.461, 496.311 554.080 C 495.790 552.088, 495.805 552.087, 499.790 554.013 C 504.148 556.118, 517.629 558.704, 518.694 557.639 C 519.057 557.276, 518.487 556.299, 517.427 555.467 C 515.650 554.073, 515.811 554.015, 519.500 554.727 C 526.685 556.115, 537.129 555.266, 546 552.571 C 558.353 548.820, 567.507 546.458, 585.318 542.430 C 615.057 535.704, 636.660 527.369, 653.054 516.296 C 660.985 510.940, 670.422 502.481, 671.235 500 C 671.505 499.175, 671.973 498.725, 672.274 499 C 672.575 499.275, 672.217 501.300, 671.479 503.500 L 670.136 507.500 675.668 501.500 C 682.411 494.186, 690.594 480.546, 695.612 468.256 C 699.855 457.865, 700.983 457.460, 701.039 466.309 C 701.077 472.365, 701.108 472.433, 702.420 469.418 C 704.771 464.019, 706.065 455.868, 706.091 446.297 C 706.105 441.184, 706.305 437, 706.534 437 C 706.764 437, 707.843 438.688, 708.932 440.750 C 710.431 443.589, 710.945 444.014, 711.049 442.500 C 711.369 437.823, 710.747 431.462, 709.501 426.655 C 707.716 419.774, 708.171 419.715, 713.995 426.072 L 718.967 431.500 715.093 422 C 709.210 407.571, 707.130 399.905, 705.497 386.626 C 704.677 379.957, 703.808 373.038, 703.566 371.250 C 703.324 369.463, 703.499 368, 703.955 368 C 704.937 368, 707.374 377.932, 709.476 390.500 C 711.156 400.544, 713.089 407.462, 718.626 423.252 C 722.967 435.630, 722.522 438.156, 716.873 433.189 L 713.500 430.223 713.807 438.362 C 714.160 447.710, 712.143 452.999, 710.132 448 C 709.285 445.893, 709.114 446.443, 709.048 451.500 C 708.946 459.251, 706.971 467.527, 703.922 472.979 C 700.856 478.463, 699.630 478.288, 699 472.275 L 698.500 467.500 696.151 474 C 691.243 487.583, 680.701 503.413, 673.143 508.549 C 668.970 511.384, 666.496 511.757, 667.395 509.414 C 667.729 508.542, 665.190 510.268, 661.752 513.250 C 642.423 530.012, 616.322 540.484, 572.500 549.058 C 566.450 550.241, 556.775 552.803, 551 554.750 C 543.332 557.336, 537.668 558.524, 530 559.156 C 524.225 559.632, 517.866 560.284, 515.869 560.606 C 513.872 560.928, 509.597 560.620, 506.369 559.922 C 503.141 559.224, 499.479 558.764, 498.231 558.900 C 496.983 559.037, 493.833 558.493, 491.231 557.693 C 488.629 556.893, 484.630 555.729, 482.345 555.107 C 480.060 554.486, 476.010 552.477, 473.345 550.644 C 470.089 548.404, 465.877 546.732, 460.500 545.543 C 435.227 539.957, 410.022 528.293, 396.512 515.931 C 394.305 513.913, 391.529 511.960, 390.342 511.592 C 386.712 510.468, 380.033 502.277, 376.250 494.311 C 374.275 490.153, 371.648 485.739, 370.412 484.503 C 367.677 481.768, 366.013 476.151, 366.006 469.628 C 366.001 465.376, 365.806 464.916, 364.476 466.020 C 359.578 470.085, 360.347 452.505, 365.789 436 C 372.509 415.623, 372.776 410.431, 368.903 375.500 C 368.294 370, 367.774 357.288, 367.749 347.250 L 367.704 329 364.562 329 C 353.698 329, 336.384 320.971, 325.670 310.965 L 318.129 303.923 315.462 308.474 C 310.471 316.991, 302 340.237, 302 345.416 C 302 345.928, 305.613 342.831, 310.028 338.535 C 314.443 334.238, 318.287 330.954, 318.570 331.236 C 318.853 331.519, 317.044 335.819, 314.551 340.791 C 309.953 349.963, 307 359.128, 307 364.230 L 307 367.041 311.017 364.991 C 320.834 359.983, 333.072 360.463, 339.099 366.092 C 340.845 367.724, 342.377 368.933, 342.503 368.779 C 342.628 368.626, 343.949 366.545, 345.438 364.156 C 348.666 358.974, 349.779 359.242, 347.461 364.642 C 343.035 374.952, 342.256 378.363, 343.612 381.500 C 345.452 385.754, 345.294 391, 343.202 395.103 C 341.672 398.105, 341.591 399.065, 342.657 401.565 C 345.823 408.983, 342.597 419.540, 335.100 426.299 L 330.886 430.098 332.143 437.576 C 333.232 444.058, 333.172 446.150, 331.695 453.277 C 326.983 476.013, 332.038 500.796, 345.277 519.860 L 348.500 524.500 349.112 514.443 C 350.074 498.623, 351.753 497.119, 354.546 509.574 C 359.143 530.071, 369.086 545.432, 386.415 558.806 C 391.692 562.878, 392.251 563.108, 391.593 560.936 C 390.492 557.297, 389.650 544.355, 390.389 542.429 C 390.863 541.192, 391.842 542.366, 394.095 546.874 C 403.657 566.010, 430.348 583.884, 462.779 592.872 L 469.889 594.842 464.945 585.588 C 462.225 580.498, 460 576.037, 460 575.674 C 460 575.311, 463.938 578.952, 468.750 583.765 C 476.583 591.599, 493.314 603.019, 494.793 601.540 C 495.013 601.320, 493.799 599.115, 492.096 596.640 C 487.872 590.500, 488.207 589.051, 492.875 593.268 C 498.678 598.510, 504.922 601.833, 516.904 606.054 L 527.712 609.861 532.416 605.086 C 538.491 598.918, 566.129 583, 570.764 583 C 571.074 583, 568.329 586.106, 564.664 589.903 C 560.999 593.699, 558 597.032, 558 597.309 C 558 598.060, 581.643 591.615, 594.370 587.394 C 608.760 582.622, 621.332 577.168, 630.971 571.517 C 635.208 569.033, 638.923 567, 639.226 567 C 639.529 567, 635.753 571.101, 630.835 576.113 C 625.917 581.126, 622.063 585.396, 622.270 585.603 C 623.218 586.552, 643.509 579.291, 652.489 574.790 C 667.208 567.412, 679.225 558.757, 690.381 547.500 C 701.344 536.438, 701.512 536.646, 694.236 552.261 C 691.735 557.629, 689.902 562.235, 690.163 562.496 C 690.424 562.758, 693.982 560.911, 698.069 558.392 C 718.811 545.610, 732.968 528.617, 742.134 505.500 C 743.879 501.100, 745.745 497.050, 746.281 496.500 C 747.274 495.481, 746.688 510.914, 745.464 518 L 744.860 521.500 748.510 517.500 C 768.601 495.485, 778.392 472.488, 778.430 447.223 C 778.450 434.383, 778.508 434.021, 780.197 436.223 C 782.608 439.366, 786.615 449.603, 787.486 454.846 C 788.454 460.668, 789.380 459.343, 792.622 447.500 C 797.901 428.216, 796.515 398.341, 789.429 378.662 C 785.264 367.094, 785.263 367.077, 788.878 370.457 C 790.618 372.083, 793.682 375.796, 795.687 378.707 C 800.084 385.092, 800.195 385.123, 799.375 379.750 C 797.380 366.686, 791.440 351.961, 783.142 339.509 C 780.946 336.214, 779.334 333.333, 779.559 333.107 C 780.132 332.535, 790.507 339.472, 796.403 344.370 L 801.306 348.442 800.572 344.471 C 798.406 332.749, 785.872 307.277, 773.399 289.250 C 769.879 284.163, 767.503 280, 768.119 280 C 769.654 280, 780.446 286.628, 782.042 288.551 C 782.753 289.408, 784.123 290.530, 785.085 291.045 C 786.679 291.899, 786.744 291.651, 785.815 288.241 C 784.193 282.283, 778.612 270.795, 773.497 262.889 L 768.781 255.599 766.490 262.823 C 760.837 280.653, 746.766 296.464, 728.105 305.954 C 723.118 308.490, 706.258 313, 701.765 313 C 699.305 313, 698.918 313.305, 699.546 314.750 C 704.597 326.375, 704.546 331.637, 699.432 326.523 C 697.511 324.602, 696.925 324.345, 697.443 325.650 C 703.036 339.754, 709.065 363.884, 708.937 371.657 C 708.845 377.208, 707.832 374.262, 702.543 353.060 C 700.134 343.402, 696.622 331.113, 694.739 325.750 C 690.955 314.976, 691.068 314.411, 695.985 319.485 C 697.843 321.402, 699.536 322.797, 699.747 322.586 C 700.265 322.068, 694.484 310.689, 690.558 304.500 C 685.558 296.618, 685.474 296.288, 689.416 300 C 691.460 301.925, 694.039 304.962, 695.148 306.750 C 697.608 310.718, 700.237 310.915, 710.981 307.938 C 735.928 301.025, 757.738 280.462, 763.472 258.448 C 770.922 229.842, 753.986 189.237, 729.132 176.118 C 699.401 160.425, 667.529 174.127, 641.013 214 C 638.636 217.575, 636.541 220.681, 636.359 220.903 C 636.177 221.124, 635.082 220.103, 633.926 218.633 C 631.561 215.627, 627.953 213.563, 620.551 210.982 C 616.824 209.682, 615.945 209.038, 617.197 208.524 C 620.047 207.353, 630.212 210.886, 633.750 214.277 C 635.538 215.991, 637 216.870, 637 216.232 C 637 213.982, 645.998 200.415, 652.212 193.294 C 665.265 178.337, 680.049 169.051, 694.953 166.450 C 699.571 165.643, 703.530 164.803, 703.750 164.583 C 704.286 164.047, 693.045 157.802, 684.878 154.099 C 676.437 150.271, 664.434 147.224, 653.863 146.224 L 645.500 145.434 650.437 143.190 C 653.152 141.957, 657.877 140.234, 660.937 139.363 C 669.196 137.011, 668.977 136.590, 657.948 133.632 C 620.896 123.697, 596.873 123.416, 575.225 132.665 L 566.951 136.201 562.351 132.350 C 550.548 122.469, 543.224 118.068, 532.714 114.540 C 520.334 110.384, 519.485 110.907, 526.688 118.250 M 567.500 195.486 C 559.720 197.208, 556.638 198.418, 550.250 202.263 C 543.702 206.204, 543.357 207.856, 549.750 204.655 C 557.563 200.743, 575.268 195.930, 571.029 198.871 C 568.686 200.496, 570.144 200.895, 575 199.957 C 581.233 198.752, 592.288 198.810, 589.250 200.031 C 584.881 201.787, 587.108 202.821, 596.750 203.513 C 602.112 203.897, 608.750 204.664, 611.500 205.216 C 618.433 206.610, 619.450 206.644, 619.847 205.500 C 620.429 203.822, 613.464 202.073, 603.379 201.364 C 596.186 200.858, 594.262 200.444, 595.651 199.698 C 598.452 198.194, 598.562 197.967, 596.971 196.961 C 596.162 196.449, 591.814 196.024, 587.309 196.015 C 582.804 196.007, 578.840 195.550, 578.500 195 C 577.706 193.716, 574.953 193.838, 567.500 195.486 M 707 198.935 C 697.150 201.942, 685.838 210.805, 675.120 223.913 C 670.653 229.376, 664.644 235.906, 661.766 238.423 C 654.850 244.474, 657.440 244.341, 669.229 238.043 C 677.584 233.578, 688.789 229.579, 689.947 230.648 C 690.193 230.876, 686.706 234.769, 682.197 239.302 C 672.791 248.757, 672.424 249.503, 678.250 247.316 C 685.651 244.537, 705 245.669, 705 248.881 C 705 249.280, 701.737 250.654, 697.750 251.934 C 681.776 257.063, 675.790 261, 683.965 261 C 688.362 261, 696.064 263.341, 699.867 265.833 L 702.338 267.451 699.089 268.116 C 697.303 268.481, 692.478 269.095, 688.367 269.480 C 679.435 270.317, 679.246 271.507, 687.537 274.718 C 697.882 278.725, 698.050 280.323, 688.039 279.473 L 679.577 278.754 682.539 282.306 C 684.167 284.260, 686.238 286.902, 687.140 288.179 C 688.612 290.264, 689.473 290.478, 695.602 290.283 C 730.982 289.157, 753.716 252.508, 738.270 221.500 L 735.780 216.500 739.536 220 L 743.293 223.500 740.897 219.121 C 736.769 211.580, 724.355 203.528, 714.901 202.260 C 709.413 201.524, 712.091 200.208, 719.500 200 C 723.254 199.894, 724.002 199.645, 722.500 199 C 720.035 197.941, 710.389 197.900, 707 198.935 M 351 205.098 C 318.512 211.443, 299.284 257.313, 315.093 290.760 C 320.002 301.146, 332.584 313.137, 345.053 319.313 C 353.197 323.347, 366.609 327.502, 367.893 326.389 C 368.109 326.201, 368.796 322.498, 369.420 318.159 L 370.555 310.270 364.527 309.149 C 350.630 306.565, 338.041 296.642, 331.715 283.288 C 328.719 276.963, 328.502 275.784, 328.533 266 C 328.575 252.949, 330.763 247.197, 338.244 240.471 C 343.718 235.549, 342.905 234.904, 335.011 237.904 C 329.228 240.101, 329.281 238.918, 335.098 235.950 C 348.647 229.038, 363.156 232.822, 381 247.923 C 386.225 252.345, 390.950 255.963, 391.500 255.963 C 392.050 255.964, 394.062 254.084, 395.970 251.787 C 397.879 249.489, 398.892 247.949, 398.220 248.364 C 394.199 250.849, 398.630 244.205, 406.166 236.451 L 412.044 230.402 399.687 221.730 C 377.687 206.291, 365.758 202.216, 351 205.098 M 699.725 206.460 C 693.839 209.530, 672.914 230.247, 674.299 231.632 C 674.421 231.755, 676.992 231.002, 680.011 229.960 C 683.030 228.918, 687.413 228.051, 689.750 228.033 C 695.578 227.988, 695.399 230.308, 689.037 237.269 L 684.074 242.699 688.892 242.236 C 698.054 241.356, 710.951 246.944, 707.990 250.512 C 707.361 251.270, 702.820 253.330, 697.899 255.090 L 688.952 258.291 694.078 260.026 C 700.890 262.332, 704.500 265.132, 704.500 268.108 C 704.500 270.335, 703.996 270.559, 697.173 271.354 C 689.939 272.196, 689.881 272.226, 692.673 273.670 C 702.993 279.010, 701.902 283.601, 690.628 282.272 L 685.500 281.668 688.118 285.070 C 690.399 288.035, 691.234 288.438, 694.618 288.205 C 722.646 286.276, 743.548 261.625, 739.233 235.587 C 737.832 227.135, 733.340 217.406, 728.690 212.756 C 722.041 206.107, 706.766 202.787, 699.725 206.460 M 346.500 238.655 C 318.282 253.468, 332.343 301.973, 366.200 306.614 L 370.855 307.252 371.976 302.876 C 372.593 300.469, 373.526 297.195, 374.049 295.601 C 375.542 291.051, 375.263 290.825, 370.903 293.049 C 362.961 297.101, 361.802 292.190, 368.500 282.867 L 371.997 278 365.580 278 C 357.967 278, 356 277.390, 356 275.028 C 356 271.931, 359.836 268.259, 365.544 265.893 L 371.095 263.592 367.548 261.772 C 360.373 258.091, 364.321 255.025, 376.315 254.962 L 383.500 254.925 379.500 251.410 C 365.141 238.791, 354.256 234.584, 346.500 238.655 M 371.500 260.566 C 374.250 261.891, 377.261 262.980, 378.191 262.987 C 382.157 263.017, 380.595 264.921, 375.757 265.954 C 369.449 267.300, 362.926 270.319, 360.477 273.025 C 358.710 274.978, 358.792 275, 367.786 275 C 378.211 275, 379.103 275.578, 374.875 279.597 C 371.614 282.698, 366.446 290.780, 367.226 291.560 C 367.485 291.818, 369.730 290.892, 372.217 289.502 C 375.846 287.474, 377.082 286.042, 378.484 282.238 C 379.444 279.632, 382.399 273.382, 385.049 268.349 C 390.740 257.542, 391.134 257.989, 376 258.093 L 366.500 258.158 371.500 260.566 M 527.693 309.787 C 522.806 315.187, 521.429 326.734, 525.114 331.418 C 527.905 334.966, 528.233 334.356, 526.398 329.030 C 524.561 323.697, 525.257 318.205, 528.526 312.250 C 530.935 307.861, 530.527 306.655, 527.693 309.787 M 443.742 319.250 C 447.680 323.333, 449 326.800, 449 333.065 C 449 337.897, 450.187 339.561, 451.393 336.418 C 453.746 330.287, 447.129 316, 441.936 316 C 441.202 316, 442.011 317.455, 443.742 319.250 M 536.629 319.029 C 529.914 327.009, 533.776 337.776, 545.491 343.738 C 553.868 348.001, 555.713 348.280, 580 348.958 C 602.013 349.572, 603.992 349.784, 611.271 352.307 C 620.317 355.442, 620 355.393, 620 353.653 C 620 351.475, 613.254 345.162, 608.187 342.598 C 600.483 338.699, 596.321 337.935, 578.254 337.103 C 561.026 336.309, 561 336.304, 553.435 332.566 C 544.872 328.333, 541.699 324.554, 542.257 319.250 C 542.707 314.963, 540.135 314.863, 536.629 319.029 M 434.785 326.987 C 436.202 336.646, 426.211 345.873, 410.830 349.108 C 399.134 351.568, 390.167 357.921, 387.519 365.622 C 385.851 370.475, 386.467 371.595, 389.303 368.865 C 393.599 364.729, 403.133 361.117, 414 359.508 C 434.143 356.525, 447.776 345.280, 445.561 333.474 C 444.228 326.369, 433.770 320.074, 434.785 326.987 M 565.319 357.795 C 550.483 363.096, 542.154 377.496, 543.255 395.945 C 544.574 418.044, 555.251 428.500, 576.500 428.500 C 592.957 428.500, 602.556 422.529, 609.380 408.047 C 622.391 380.435, 593.662 347.669, 565.319 357.795 M 564.385 364.568 C 552.566 368.902, 542.691 385.714, 545.479 396.754 L 546.172 399.500 547.708 396.500 C 551.610 388.877, 558.124 385.057, 567.282 385.022 C 587.955 384.943, 598.393 408.624, 583.923 422.772 L 580.701 425.921 584.600 424.848 C 600.252 420.537, 607.595 410.786, 606.833 395.320 C 606.176 381.986, 599.442 371.331, 588.193 365.827 C 582.292 362.940, 570.521 362.317, 564.385 364.568 M 319 365.935 C 300.892 371.463, 288.495 393.975, 286.445 425.055 C 285.429 440.449, 287.693 492.888, 289.875 504.500 C 301.494 566.332, 330.057 592.461, 404 608.900 C 411.425 610.551, 419.406 612.577, 421.736 613.402 L 425.972 614.902 427.915 608.201 C 428.984 604.515, 430.151 599.731, 430.508 597.569 C 430.984 594.695, 431.402 594.023, 432.064 595.069 C 434.218 598.473, 432.227 609.296, 424.955 633.724 C 423.117 639.896, 421.813 645.120, 422.057 645.331 C 422.301 645.542, 425.650 645.352, 429.500 644.909 C 433.350 644.466, 441 644.074, 446.500 644.038 L 456.500 643.973 458.089 639.237 C 458.962 636.631, 460.025 633.707, 460.450 632.739 C 461.048 631.376, 460.858 631.117, 459.611 631.596 C 457.205 632.519, 457.616 630.030, 460.593 625.648 L 463.186 621.832 460.686 623.470 C 456.756 626.045, 456.518 623.684, 460.042 617.073 C 463.505 610.576, 473.426 598, 475.089 598 C 475.664 598, 474.581 599.913, 472.682 602.250 C 468.755 607.086, 460 620.458, 460 621.621 C 460 622.045, 461.575 620.866, 463.500 619 C 467.782 614.850, 467.842 615.389, 463.956 623.087 C 461.236 628.475, 461.130 629.001, 462.956 628.024 C 465.540 626.641, 465.565 626.478, 462 634.340 C 458.107 642.925, 458.087 645, 461.895 645 C 469.778 645, 483.933 651.241, 489.815 657.309 L 493.112 660.711 499.306 658.466 C 511.610 654.006, 536.548 652.610, 547.474 655.770 C 550.057 656.517, 551.110 656.125, 555.474 652.790 C 560.753 648.757, 580.946 638.099, 592 633.512 C 600.635 629.928, 600.575 630.038, 597.334 623.872 C 593.360 616.308, 593.349 616.149, 597.048 619.500 L 600.360 622.500 598.222 619 C 594.218 612.445, 588.066 604.481, 583.685 600.182 L 579.314 595.891 567.009 598.998 C 552.804 602.584, 551.274 602.207, 555.306 596.114 L 557.931 592.148 551.740 595.647 C 544.255 599.877, 534.204 606.980, 531.595 609.881 C 530.547 611.047, 528.738 612, 527.575 612 C 523.815 612, 511.002 608.030, 505.025 605.013 C 499.638 602.293, 499.246 602.225, 499.734 604.090 C 500.197 605.862, 499.915 606.024, 497.380 605.441 C 492.577 604.337, 484.042 600.204, 477.882 596 L 472.054 592.022 472.652 595.011 C 473.410 598.799, 472.430 598.840, 459.859 595.551 C 432.179 588.307, 408.253 573.472, 395.267 555.500 C 392.811 552.101, 392.830 552.563, 395.549 562.228 C 397.235 568.220, 396.273 568.819, 390.247 565.532 C 375.278 557.365, 361.353 540.682, 354.746 523 L 351.943 515.500 352.521 523.333 C 353.244 533.134, 351.885 533.336, 344.723 524.494 C 330.167 506.520, 322.744 478.112, 327.480 458.500 C 329.261 451.125, 329.369 443.735, 327.820 435.328 L 326.641 428.925 331.425 424.213 C 351.401 404.535, 332.607 382.814, 308.715 397.965 C 303.471 401.291, 302.540 400.740, 306.750 396.801 C 315.086 389.002, 328.089 387.367, 336.147 393.105 L 338.998 395.135 340.084 392.317 C 341.728 388.051, 340.563 382.197, 337.415 378.912 C 330.513 371.707, 318.065 372.807, 306.250 381.665 C 301.701 385.076, 302.187 382.967, 306.940 378.673 C 315.137 371.267, 327.436 368.724, 335.250 372.819 C 338.635 374.593, 339 374.622, 339 373.115 C 339 367.065, 328.107 363.155, 319 365.935 M 416.453 368.326 C 400.012 374.661, 392.651 394.153, 399.610 412.927 C 404.434 425.942, 412.949 432.901, 425.116 433.775 C 445.170 435.214, 456.866 419.923, 453.044 397.263 C 449.344 375.326, 432.617 362.098, 416.453 368.326 M 419.500 374.207 C 407.882 378.268, 400.482 393.843, 402.934 409.071 C 404.598 419.403, 409.487 425.799, 418.648 429.626 L 422.413 431.199 418.662 427.047 C 414.005 421.893, 413 419.311, 413 412.500 C 413 393.262, 434.880 385.032, 448.247 399.242 L 451.312 402.500 450.611 398.042 C 447.846 380.460, 433.360 369.362, 419.500 374.207 M 572.557 395.223 C 570.507 398.148, 570.590 400.319, 572.829 402.345 C 577.802 406.846, 585.169 399.311, 580.429 394.571 C 578.173 392.316, 574.372 392.630, 572.557 395.223 M 484.010 395.892 C 479.782 397.069, 483.150 397.730, 490.500 397.166 C 496.067 396.739, 496.886 396.486, 494.500 395.933 C 490.638 395.037, 487.133 395.023, 484.010 395.892 M 477.500 400.960 L 473.500 403.005 477.500 402.252 C 479.700 401.839, 485.640 401.500, 490.701 401.500 C 501.971 401.500, 501.356 399.956, 489.845 399.353 C 482.846 398.987, 480.855 399.246, 477.500 400.960 M 421.200 401.200 C 418.017 404.383, 420.502 410, 425.093 410 C 429.199 410, 430.522 404.688, 427.171 401.655 C 425.012 399.701, 422.863 399.537, 421.200 401.200 M 464.359 411.271 C 450.003 426.386, 443.918 441.139, 448.435 449.875 C 451.622 456.037, 464.540 464.853, 475.614 468.422 L 480.727 470.070 481.456 475.785 C 482.831 486.575, 482.948 486.154, 478.129 487.776 C 471.188 490.113, 464 497.777, 464 502.842 C 464 505.064, 464.450 507.160, 465 507.500 C 465.573 507.854, 466 506.959, 466 505.404 C 466 502.201, 471.617 496.403, 477.595 493.437 C 488.937 487.810, 514.352 494.189, 525.059 505.351 C 530.814 511.350, 531.707 509.776, 526.750 502.369 C 521.302 494.228, 507.637 487.664, 493.317 486.308 L 487.133 485.723 486.114 481.112 C 483.526 469.397, 483.382 470.242, 488.183 468.963 C 498.581 466.192, 516.161 455.171, 520.598 448.641 C 526.054 440.611, 526.065 427.987, 520.625 415.686 C 517.152 407.833, 515.793 407.853, 518.541 415.718 C 521.551 424.334, 522.524 433.341, 521.039 438.857 L 519.888 443.128 517.933 440.643 C 513.580 435.108, 508.410 434.385, 495.313 437.480 C 482.713 440.457, 473.600 440.889, 464.264 438.951 C 461.198 438.315, 456.960 438.071, 454.845 438.409 C 452.088 438.850, 451.004 438.666, 451.014 437.762 C 451.037 435.666, 458.463 422.708, 464.016 415.073 C 470.024 406.813, 470.174 405.148, 464.359 411.271 M 501 439.501 C 476.980 444.687, 479.536 444.464, 467.137 442.456 C 454.993 440.490, 450.982 441.140, 450.199 445.204 C 449.694 447.825, 455.568 453.794, 457.133 452.250 C 460.421 449.006, 466.658 452.119, 470.310 458.827 C 473.194 464.128, 476.376 466, 482.500 466 C 488.924 466, 491.305 464.358, 494.500 457.727 C 498.300 449.839, 503.002 446.916, 507.853 449.424 C 509.484 450.268, 510.979 451.436, 511.173 452.020 C 511.368 452.605, 513.025 451.537, 514.856 449.648 C 517.701 446.713, 518.023 445.911, 517.070 444.130 C 514.725 439.750, 508.351 437.913, 501 439.501 M 501.380 452.436 C 499.385 453.843, 495.422 460.755, 496.177 461.510 C 497.157 462.491, 508.074 454.621, 507.792 453.138 C 507.375 450.952, 504.007 450.583, 501.380 452.436 M 458.991 454.006 C 458.030 454.599, 459.010 455.684, 462.508 457.903 C 467.991 461.380, 469.281 461.193, 466.402 457.337 C 464.120 454.280, 460.893 452.830, 458.991 454.006 M 478 509.856 C 478 510.653, 499.086 512.222, 499.844 511.482 C 500.033 511.297, 498.458 510.665, 496.344 510.078 C 491.756 508.804, 478 508.638, 478 509.856 M 755.640 514.845 C 753.390 517.332, 753.545 517.741, 757.024 518.505 C 767.774 520.866, 770.079 530.550, 766.476 558.202 C 762.095 591.826, 759.533 605.994, 756.897 611.185 L 755.026 614.870 758.763 614.325 C 770.196 612.656, 771.111 610.831, 776.456 578.984 C 785.693 523.955, 784.431 518.974, 759.890 513.603 C 758.097 513.211, 756.768 513.599, 755.640 514.845 M 736.953 524.750 C 730.510 536.191, 718.849 549.118, 709.250 555.458 C 704.043 558.898, 704.038 558.522, 709.382 566.202 C 717.525 577.906, 729 604.116, 729 611.011 C 729 613.110, 730.814 613.599, 742.184 614.568 C 755.900 615.736, 756.959 612.989, 763.025 560.552 C 766.600 529.640, 765.426 523.874, 755.019 521.233 C 751.427 520.321, 750.722 520.494, 747.059 523.188 C 742.454 526.575, 740.810 526.201, 741.658 521.961 C 742.606 517.218, 740.487 518.474, 736.953 524.750 M 681.292 560.903 C 666.341 573.013, 650.636 581.258, 632.638 586.446 C 618.819 590.429, 614.821 589.743, 619.493 584.190 C 623.191 579.796, 622.879 579.809, 612.250 584.484 C 606.888 586.843, 597.775 590.249, 592 592.053 C 586.225 593.858, 581.358 595.438, 581.185 595.566 C 581.011 595.693, 583.205 597.981, 586.060 600.649 C 592.794 606.943, 600.198 617.353, 600.388 620.794 C 600.470 622.282, 600.869 624.024, 601.275 624.665 C 601.680 625.305, 601.574 625.980, 601.038 626.165 C 600.483 626.356, 600.423 627.077, 600.898 627.842 C 601.565 628.916, 603.685 628.453, 611.514 625.520 C 616.894 623.505, 625.427 620.695, 630.475 619.277 L 639.653 616.697 637.844 608.098 C 635.798 598.377, 635.639 596.659, 636.852 597.408 C 637.320 597.698, 638.740 601.662, 640.006 606.217 C 642.900 616.632, 642.714 616.459, 649.057 614.576 C 651.975 613.709, 656.869 613.049, 659.932 613.109 L 665.500 613.218 659.500 614.398 L 653.500 615.578 661 616.208 C 668.657 616.851, 672 617.671, 672 618.909 C 672 619.291, 668.962 619.282, 665.250 618.890 C 645.423 616.792, 614.751 625.952, 576.094 645.515 C 561.535 652.883, 559.473 654.199, 553.382 660.004 C 543.250 669.660, 540.079 685.236, 546.974 691.476 C 548.602 692.950, 548.753 692.731, 549.302 688.095 C 550.288 679.777, 555.481 671.562, 563.364 665.851 C 569.806 661.185, 569.718 662.583, 563.140 669.433 C 553.542 679.428, 550.241 690.765, 554.521 699.040 C 556.972 703.780, 566.847 707.851, 572.750 706.555 C 575.385 705.976, 575.502 705.690, 575.542 699.725 C 575.592 692.416, 578.443 685.229, 583.301 680.168 C 588.340 674.919, 590.985 673.969, 587.178 678.775 C 577.141 691.449, 575.901 705.972, 584.548 709.585 C 593.241 713.217, 605.099 710.437, 618.303 701.674 L 626.500 696.233 638.500 695.647 C 656.880 694.748, 670.990 691.877, 687.874 685.600 C 725.926 671.453, 736.600 643.249, 720.911 598.312 C 717.077 587.330, 707.852 569.741, 701.440 561.186 C 701.311 561.013, 698.020 562.476, 694.127 564.436 C 683.820 569.626, 682.934 569.010, 687.567 559.867 C 688.979 557.081, 689.992 554.678, 689.817 554.528 C 689.643 554.378, 685.807 557.247, 681.292 560.903 M 731.847 629.869 C 732.129 640.335, 731.824 644.112, 730.212 650.117 C 729.122 654.178, 727.930 661.829, 727.564 667.120 C 726.910 676.570, 726.939 676.751, 729.199 677.356 C 732.439 678.224, 739.999 678.150, 740.007 677.250 C 740.011 676.837, 741.135 663.900, 742.504 648.500 C 743.874 633.100, 744.996 620.183, 744.997 619.795 C 745 619.152, 743.398 618.795, 734.500 617.454 L 731.500 617.002 731.847 629.869 M 752.400 618.797 L 747.299 619.094 746.635 630.720 C 746.035 641.235, 743.868 664.017, 742.457 674.655 L 741.906 678.809 747.414 679.155 L 752.922 679.500 753.465 674.500 C 754.459 665.367, 758.056 618.720, 757.776 618.609 C 757.624 618.549, 755.205 618.634, 752.400 618.797 M 432.500 648.003 C 411.770 650.249, 401.699 650.998, 392.215 650.999 C 385.057 651, 381.256 651.430, 379.715 652.415 C 378.497 653.194, 363.325 661.445, 346 670.751 C 328.675 680.057, 306.335 692.132, 296.355 697.585 L 278.210 707.500 286.855 707.814 C 291.610 707.987, 305.625 707.146, 318 705.946 C 360.888 701.786, 380.262 705.139, 396.767 719.578 L 401.979 724.137 406.740 720.182 C 412.454 715.436, 436.621 698.673, 466 679.080 C 492.953 661.104, 491.130 662.864, 486.912 658.893 C 477.315 649.857, 455.564 645.504, 432.500 648.003 M 323.500 656.913 C 295.585 668.276, 171.084 722.549, 169.620 723.993 C 168.609 724.990, 171.397 725.525, 185.500 727.041 C 191 727.632, 215.525 730.548, 240 733.520 C 264.475 736.493, 292.600 739.860, 302.500 741.003 C 328.175 743.966, 427.242 755.749, 505 765.088 C 541.575 769.481, 584.486 774.633, 600.358 776.536 L 629.215 779.998 640.358 773.299 C 652.681 765.890, 709.145 730.967, 752.486 703.947 L 780.472 686.500 774.986 685.824 C 771.969 685.452, 756 683.938, 739.500 682.459 L 709.500 679.770 703.705 683.297 C 698.099 686.709, 697.978 686.871, 699.999 688.287 C 705.070 691.839, 707.619 702.244, 704.506 706.688 C 702.428 709.655, 696.442 712.863, 645.903 738.096 L 601.500 760.266 589 761.628 C 566.546 764.074, 562.317 764.322, 561.645 763.235 C 561.294 762.666, 566.458 756.047, 573.122 748.526 L 585.238 734.851 609.369 723.178 C 657.389 699.949, 661.199 697.915, 655.500 698.555 C 652.750 698.864, 647.125 699.441, 643 699.838 L 635.500 700.560 614 714.435 C 602.175 722.066, 587.550 731.553, 581.500 735.517 C 551.966 754.869, 548.262 757, 544.156 757 C 541.110 757, 455.202 744.315, 423.259 739.149 C 419.137 738.483, 416.894 738.690, 412.759 740.118 C 403.402 743.350, 392.911 741.648, 387.523 736.024 C 384.923 733.310, 384.003 733, 378.563 732.998 C 367.810 732.994, 267.577 724.633, 263.750 723.420 C 260.264 722.315, 261.543 717.323, 265.963 714.780 C 268.147 713.523, 270.055 711.602, 270.213 710.500 C 270.565 708.050, 283.627 700.444, 333.331 673.746 L 369.163 654.500 355.831 653.332 C 336.237 651.615, 336.618 651.572, 323.500 656.913 M 398 657.946 L 387.500 658.500 395 659.207 C 399.125 659.596, 406.958 659.489, 412.406 658.968 C 431.355 657.158, 423.492 656.600, 398 657.946 M 435.559 658.089 C 429.296 659.613, 429.944 660.256, 437 659.515 C 442.910 658.895, 443.837 659.062, 447.208 661.358 C 452.023 664.637, 460.913 667.287, 459.517 665.027 C 459.186 664.492, 457.069 663.557, 454.812 662.949 C 452.555 662.342, 449.537 660.986, 448.104 659.936 C 444.779 657.499, 440.545 656.876, 435.559 658.089 M 518 657.656 C 503.135 659.938, 496.856 662.221, 486.229 669.209 C 471.846 678.668, 414 718.131, 414 718.485 C 414 718.640, 415.759 718.160, 417.908 717.420 C 437.385 710.709, 456.077 712.933, 502.500 727.483 C 511.850 730.414, 523.922 733.763, 529.326 734.926 L 539.152 737.040 556.826 725.896 C 566.547 719.766, 575.513 714.122, 576.750 713.352 C 580.616 710.949, 579.265 710.214, 571.250 710.359 C 561.882 710.529, 557.028 708.423, 552.500 702.222 C 550.850 699.963, 548.712 697.833, 547.749 697.489 C 544.997 696.507, 541.235 690.909, 539.851 685.734 C 538.203 679.569, 539.819 671.419, 544.035 664.637 C 545.708 661.946, 546.936 659.602, 546.763 659.430 C 545.136 657.802, 525.098 656.567, 518 657.656 M 369.074 666.411 C 368.089 667.598, 368.525 667.739, 371.807 667.299 C 373.955 667.011, 376.677 667.292, 377.856 667.923 C 380.435 669.303, 380.704 668.255, 378.250 666.392 C 375.929 664.630, 370.542 664.642, 369.074 666.411 M 396.208 666.106 C 381.369 667.034, 382.252 668.191, 397.515 667.818 C 404.657 667.643, 411.625 667.888, 413 668.362 C 414.919 669.024, 415.238 668.948, 414.372 668.035 C 412.463 666.020, 406.946 665.434, 396.208 666.106 M 719.278 670.892 C 714.823 676.077, 715.025 677, 720.613 677 C 723.559 677, 724.227 675.559, 723.813 670.103 L 723.500 665.978 719.278 670.892 M 455.013 671.569 C 451.599 674.083, 449.052 676.385, 449.353 676.686 C 449.830 677.163, 463 668.113, 463 667.307 C 463 666.212, 460.419 667.590, 455.013 671.569 M 422.569 671.112 C 423.011 671.827, 424.954 671.998, 428.013 671.593 C 433.268 670.896, 437.340 672.047, 440.679 675.174 C 441.877 676.296, 443.408 677.031, 444.081 676.806 C 444.755 676.582, 443.348 674.958, 440.956 673.199 C 436.992 670.284, 435.953 670, 429.244 670 C 424.097 670, 422.089 670.335, 422.569 671.112 M 354.055 675.874 C 356.412 677.400, 369.909 678.231, 375 677.163 C 379.007 676.323, 378.390 676.207, 369.375 676.110 C 363.806 676.049, 357.731 675.745, 355.875 675.433 C 353.395 675.017, 352.912 675.134, 354.055 675.874 M 396 676 C 392.734 676.688, 392.848 676.746, 397.713 676.868 C 400.580 676.941, 405.080 677.845, 407.713 678.878 C 410.346 679.911, 414.525 681.067, 417 681.448 C 423.822 682.497, 427.573 683.870, 429.534 686.038 C 431.453 688.158, 433 688.594, 433 687.014 C 433 684.911, 425.117 680.923, 418.921 679.891 C 415.389 679.302, 410.121 677.961, 407.212 676.910 C 401.587 674.878, 401.402 674.863, 396 676 M 336.750 683.572 C 332.976 685.620, 333.277 685.801, 338.457 684.599 C 341.185 683.966, 342.446 683.267, 341.707 682.798 C 340.131 681.796, 339.980 681.820, 336.750 683.572 M 362.500 684.512 C 357 685.264, 350.744 685.612, 348.597 685.287 C 345.556 684.826, 344.870 684.981, 345.494 685.990 C 346.122 687.007, 348.672 687.104, 357.397 686.443 C 363.504 685.980, 373.091 685.578, 378.701 685.551 C 384.720 685.521, 388.534 685.132, 388.005 684.603 C 386.509 683.110, 373.112 683.062, 362.500 684.512 M 396 688 C 392.844 688.664, 393.050 688.750, 398.102 688.868 C 402.866 688.980, 404.173 689.449, 406.843 692 C 408.569 693.650, 410.624 695, 411.409 695 C 412.194 695, 413.548 695.273, 414.418 695.607 C 415.288 695.941, 416 695.752, 416 695.186 C 416 694.621, 414.538 693.850, 412.750 693.472 C 410.962 693.094, 408.288 691.484, 406.806 689.893 C 404.041 686.923, 402.444 686.644, 396 688 M 688.250 689.220 C 685.465 690.564, 685.445 691.188, 688.106 693.595 C 690.626 695.874, 693.994 702.209, 694.015 704.710 C 694.048 708.473, 695.478 709.321, 698.853 707.576 C 708.975 702.342, 698.531 684.262, 688.250 689.220 M 779.500 690.220 C 778.400 690.817, 762.200 700.846, 743.500 712.505 C 706.411 735.630, 652.479 768.742, 639 776.663 L 630.500 781.657 630.213 791.365 C 629.850 803.660, 628 803.305, 628 790.941 C 628 786.023, 627.842 782, 627.648 782 C 626.828 782, 549.401 772.805, 463.500 762.506 C 399.968 754.889, 341.175 747.912, 316 745.003 C 301.425 743.319, 267 739.256, 239.500 735.975 C 212 732.693, 185.450 729.550, 180.500 728.990 C 175.550 728.430, 170.289 727.724, 168.808 727.419 C 165.332 726.706, 164.333 730.920, 165.923 739.587 C 167.302 747.098, 167.983 747.543, 180.295 748.964 C 202.848 751.567, 434.626 779.487, 483.500 785.489 C 621.933 802.487, 627.499 803.126, 629.751 802.276 C 635.138 800.241, 779.134 709.725, 780.639 707.428 C 781.671 705.853, 782.001 702.920, 781.792 697.178 C 781.512 689.476, 781.415 689.180, 779.500 690.220 M 321.074 692.591 C 319.380 694.016, 318.239 695.577, 318.537 696.060 C 319.189 697.115, 346.289 696.212, 349.351 695.034 C 350.566 694.566, 344.574 694.376, 335.565 694.596 L 319.630 694.986 323.009 692.493 C 324.868 691.122, 325.886 690, 325.271 690 C 324.656 690, 322.768 691.166, 321.074 692.591 M 369.351 694.059 C 378.148 695.080, 396.145 701.461, 399.099 704.605 C 400.336 705.922, 401.799 707, 402.349 707 C 403.911 707, 398.836 701.985, 395.539 700.270 C 388.008 696.354, 375.573 693.001, 369.062 693.131 L 362.500 693.263 369.351 694.059 M 683.008 696.773 C 686.637 700.402, 688.983 705.901, 688.994 710.809 C 688.998 712.093, 689.444 712.844, 690 712.500 C 693.517 710.326, 689.154 697.165, 684.040 694.521 C 679.293 692.066, 678.981 692.746, 683.008 696.773 M 674 695.407 C 674 695.705, 675.307 696.624, 676.903 697.450 C 680.890 699.511, 683.904 704.770, 684.228 710.231 C 684.559 715.794, 686 715.477, 686 709.842 C 686 705.028, 683.515 699.362, 680.601 697.529 C 678.105 695.960, 674 694.640, 674 695.407 M 412.821 701.003 C 408.506 703.689, 406.050 706, 407.511 706 C 407.857 706, 410.246 704.577, 412.820 702.838 C 418.633 698.910, 418.422 699.088, 417.893 698.560 C 417.651 698.318, 415.369 699.417, 412.821 701.003 M 638.500 712.620 C 622 720.612, 604.225 729.197, 599 731.698 C 589.535 736.227, 589.512 736.247, 592.722 737.143 C 595.672 737.967, 599.296 736.417, 635.565 718.817 C 673.768 700.280, 677.166 698.237, 670 698.115 C 669.175 698.101, 655 704.628, 638.500 712.620 M 619.500 705.848 C 615.650 708.503, 610.490 711.458, 608.034 712.416 C 603.570 714.156, 598.904 716.976, 563.769 739.169 C 553.467 745.676, 544.242 751, 543.269 751 C 542.296 751, 525.975 748.549, 507 745.554 C 430.409 733.465, 415.083 731.503, 411.612 733.343 C 404.672 737.022, 396.302 736.233, 392.198 731.513 C 390.997 730.131, 389.436 729, 388.730 729 C 388.025 729, 383.859 728.568, 379.474 728.039 C 375.088 727.511, 355.075 725.916, 335 724.495 C 314.925 723.074, 291.975 721.258, 284 720.458 C 276.025 719.659, 269.136 719.003, 268.691 719.002 C 268.246 719.001, 268.160 718.550, 268.500 718 C 269.365 716.600, 267.651 716.749, 266.200 718.200 C 264.025 720.375, 264.911 720.756, 273.750 721.454 C 278.563 721.834, 300.950 723.676, 323.500 725.548 C 346.050 727.419, 369.598 729.256, 375.829 729.630 C 386.095 730.246, 387.296 730.522, 388.637 732.569 C 392.064 737.799, 406.230 740.001, 413.214 736.389 C 415.868 735.017, 417.378 734.941, 423.414 735.878 C 479.072 744.510, 542.358 754, 544.262 754 C 545.714 754, 558.326 746.500, 575.596 735.368 C 591.493 725.120, 609.450 713.576, 615.500 709.715 C 627.369 702.138, 628.941 700.994, 627.450 701.011 C 626.928 701.017, 623.350 703.194, 619.500 705.848 M 643.500 717.153 C 625.350 725.986, 607.460 734.603, 603.745 736.301 C 596.528 739.601, 595.892 741.077, 599.886 745.254 C 601.476 746.917, 603.598 746.004, 640.805 727.647 C 662.389 716.998, 680.306 708.027, 680.621 707.712 C 681.234 707.100, 677.934 700.968, 677.034 701.047 C 676.740 701.073, 661.650 708.320, 643.500 717.153 M 321.500 708.973 C 311.600 710.007, 296.889 710.886, 288.809 710.927 C 280.729 710.967, 273.867 711.407, 273.559 711.904 C 272.636 713.399, 291.664 714.116, 324.500 713.825 C 351.075 713.589, 356.927 713.811, 365.500 715.383 C 375.581 717.232, 389.351 721.690, 393.620 724.487 C 398.033 727.378, 398.475 725.896, 394.321 722.136 C 379.817 709.011, 358.327 705.126, 321.500 708.973 M 641.719 729.359 C 607.875 745.976, 602.866 748.725, 602.376 750.950 C 602.067 752.353, 601.633 754.186, 601.411 755.025 C 601.113 756.152, 678.403 718.634, 680.821 716.478 C 680.997 716.321, 680.997 714.870, 680.821 713.255 L 680.500 710.317 641.719 729.359 M 562 726.121 C 550.725 733.312, 541.315 739.374, 541.090 739.591 C 540.455 740.203, 542.985 748, 543.818 748 C 544.223 748, 545.493 747.343, 546.638 746.541 C 547.784 745.738, 559.423 738.313, 572.502 730.041 C 592.572 717.346, 595.779 715, 593.057 715 C 590.027 715, 570.545 726.183, 553 737.994 C 546.702 742.233, 543 744.296, 543 743.566 C 543 742.793, 555.907 734.315, 572 724.517 C 588.263 714.616, 587.482 715.134, 586.917 714.624 C 584.405 712.359, 581.418 713.737, 562 726.121 M 273.490 715.824 C 274.295 716.629, 303.083 718.888, 333 720.494 C 362.049 722.054, 381.971 724.185, 389.953 726.587 C 396.776 728.639, 396.079 727.364, 388.501 723.928 C 380.519 720.309, 370.230 717.533, 359.307 716.053 C 351.758 715.030, 272.485 714.818, 273.490 715.824 M 429.300 718.098 C 422.541 718.885, 406.651 724.138, 405.527 725.956 C 403.908 728.576, 410.158 729.925, 426.150 730.408 C 443.970 730.946, 458.907 732.759, 477.500 736.641 C 490.982 739.455, 540.351 747.972, 540.774 747.556 C 541.939 746.408, 539.299 744, 536.876 744 C 533.311 744, 520.904 741.384, 494 734.958 C 482.725 732.266, 469.450 729.332, 464.500 728.439 C 447.550 725.380, 419.271 725.486, 410.348 728.641 C 409.106 729.080, 408.828 728.963, 409.500 728.283 C 411.076 726.689, 419.179 725.036, 428.745 724.357 C 443.198 723.332, 461.541 725.913, 494.046 733.548 C 516.993 738.938, 535.701 743, 537.580 743 C 539.900 743, 539.193 740.078, 536.750 739.570 C 523.284 736.770, 513.933 734.338, 500 730.012 C 475.583 722.430, 462.455 719.223, 451.021 718.050 C 439.766 716.895, 439.626 716.895, 429.300 718.098 M 580.349 745.064 L 574.199 752.118 575.772 755.809 L 577.344 759.500 587.683 758.567 L 598.022 757.634 599.107 753.604 C 600.080 749.990, 599.975 749.398, 598.096 747.877 C 596.943 746.943, 595.993 745.352, 595.985 744.340 C 595.976 743.328, 595.639 742.011, 595.235 741.414 C 594.587 740.456, 588.705 737.991, 587.101 738.005 C 586.770 738.008, 583.732 741.185, 580.349 745.064 M 702.455 809.826 C 679.880 824.497, 655.208 840.499, 647.628 845.387 C 638.716 851.133, 633.520 855.132, 632.923 856.702 C 630.784 862.329, 632.149 921.450, 634.401 920.700 C 635.154 920.450, 635.657 910.453, 636 888.917 L 636.500 857.500 643.500 852.813 C 654.153 845.680, 722.152 802, 722.604 802 C 722.822 802, 723 802.878, 723 803.950 C 723 805.367, 718.008 809.236, 704.750 818.096 C 675.782 837.454, 671.144 841, 674.796 841 C 676.042 841, 688.004 833.381, 705.973 821.143 C 718.574 812.561, 722.573 810.284, 722.985 811.458 C 723.281 812.301, 723.668 825.931, 723.845 841.746 C 724.144 868.451, 724.813 875.257, 726.664 870.434 C 727.065 869.389, 727.417 852.728, 727.446 833.409 L 727.500 798.283 736 792.659 L 744.500 787.035 744.761 830.017 C 744.927 857.522, 745.378 873, 746.011 873 C 746.648 873, 747 857.011, 747 828 C 747 785.781, 746.892 783.005, 745.250 783.076 C 744.288 783.117, 725.030 795.155, 702.455 809.826 M 223 859 C 223 883.667, 223.351 897, 224 897 C 224.648 897, 225 884.146, 225 860.439 L 225 823.877 229.750 824.503 C 232.363 824.847, 235.666 825.345, 237.092 825.609 L 239.684 826.089 240.291 857.661 C 240.625 875.025, 241.171 889.504, 241.504 889.837 C 243.421 891.754, 243.971 884.494, 243.985 857.108 L 244 826.715 249.750 827.327 C 252.912 827.663, 283.625 831.114, 318 834.995 C 352.375 838.877, 404.575 844.755, 434 848.058 C 463.425 851.361, 508.425 856.429, 534 859.321 L 580.500 864.578 581 895.039 C 581.430 921.227, 581.710 925.500, 583 925.500 C 585.062 925.500, 585.793 865.430, 583.764 862.754 C 582.473 861.051, 549.375 856.980, 415 841.995 C 256.791 824.353, 226.420 821, 224.804 821 C 223.097 821, 223 823.042, 223 859" stroke="none" fill="#1a1a1a" fill-rule="evenodd"/>
</svg>