<svg xmlns="http://www.w3.org/2000/svg" width="1024" height="1024" viewBox="0 0 1024 1024" version="1.1">
	<path d="M 476.700 119.119 C 472.496 120.742, 473.711 122.025, 484.634 127.500 C 493.876 132.132, 508.330 141.107, 509.439 142.902 C 509.703 143.328, 506.224 142.540, 501.709 141.152 C 489.801 137.491, 465.218 137.332, 454.035 140.844 C 440.260 145.170, 423.512 155.229, 424.194 158.767 C 424.469 160.198, 426.783 160.356, 444.502 160.160 C 466.162 159.921, 469.856 160.578, 462.243 163.316 C 459.634 164.254, 455.056 166.871, 452.069 169.132 C 449.082 171.393, 443.499 174.579, 439.663 176.211 C 429.731 180.438, 415.652 189.095, 407.553 195.955 L 400.605 201.839 397.053 199.979 C 392.215 197.446, 388.388 193.884, 380.696 184.757 C 372.889 175.495, 369.625 172.639, 363.852 170.019 C 359.052 167.840, 355.455 167.455, 354.490 169.016 C 354.144 169.575, 353.451 169.779, 352.949 169.469 C 351.299 168.449, 338.027 168.836, 334.477 170.008 C 330.617 171.282, 330.127 172.392, 332.750 173.920 C 334.271 174.806, 334.288 174.943, 332.884 174.970 C 331.996 174.986, 328.041 176.615, 324.096 178.588 C 298.005 191.641, 282.034 227.702, 287.990 260.114 C 290.349 272.952, 302.203 290.772, 314.207 299.526 L 316.914 301.500 306.445 310.965 C 300.688 316.171, 296.129 320.888, 296.316 321.448 C 296.503 322.008, 294.788 323.651, 292.505 325.099 C 287.196 328.466, 285.242 332.756, 287.041 337.098 C 288.271 340.067, 288.182 340.302, 284.912 342.765 C 274.686 350.465, 264.178 363.404, 262.009 370.968 C 260.578 375.957, 263.144 375.785, 270.732 370.383 C 275.684 366.858, 277.023 366.227, 275.722 368.032 C 258.131 392.444, 251.275 415.699, 254.880 438.728 C 257.336 454.418, 261.246 457.025, 265.409 445.750 C 270.354 432.360, 270.496 432.472, 270.542 449.818 C 270.591 467.954, 271.735 473.420, 278.427 487.500 C 282.869 496.846, 287.495 502.910, 289.014 501.379 C 289.493 500.895, 290.033 498.025, 290.212 495 C 290.529 489.680, 290.580 489.593, 291.774 492.326 C 292.453 493.880, 294.452 497.250, 296.217 499.815 L 299.426 504.479 299.535 519.490 C 299.649 535.158, 300.832 540.870, 306.104 551.203 C 308.742 556.374, 308.664 556.782, 302.557 569.852 C 295.208 585.580, 293.398 590.436, 291.649 599.112 C 290.114 606.729, 290.661 614.689, 292.692 614.290 C 293.355 614.160, 293.939 617.381, 294.234 622.790 C 294.858 634.251, 297.813 641.995, 303.903 648.135 C 306.431 650.685, 309.801 654.890, 311.391 657.481 C 314.679 662.840, 321.818 668.582, 323.321 667.079 C 323.939 666.461, 325.415 666.977, 327.435 668.518 C 335.614 674.756, 340.324 675.881, 354.500 674.983 C 368.705 674.083, 375.714 672.387, 383.750 667.909 C 386.637 666.300, 389 665.317, 389 665.726 C 389 666.135, 386.188 674.021, 382.750 683.250 L 376.500 700.030 370.500 699.265 C 355.536 697.357, 339.719 699.980, 337.938 704.664 C 337.449 705.949, 336.424 707, 335.659 707 C 332.196 707, 319.406 714.634, 314.106 719.865 C 307.330 726.553, 302.958 734.765, 305.273 736.458 C 306.528 737.375, 306.395 738.029, 304.348 741.014 C 301.616 744.999, 298 754.127, 298 757.038 C 298 759.474, 297.079 759.469, 289.161 756.987 C 269.051 750.683, 250.862 758.716, 241.100 778.213 C 233.308 793.773, 237.194 814.485, 252.060 836.629 C 280.788 879.425, 310.244 892.123, 337.501 873.462 C 341.086 871.008, 344.911 869, 346.001 869 C 347.090 869, 352.149 866.834, 357.241 864.186 C 367.485 858.860, 376.890 856.534, 392.866 855.375 L 402.231 854.696 401.461 857.098 C 398.035 867.786, 398.001 883.348, 401.387 890.500 C 405.088 898.315, 414.872 905.901, 421.349 905.978 C 422.366 905.990, 425.841 907.631, 429.071 909.625 C 438.194 915.256, 451.125 917.432, 461.355 915.058 C 464.163 914.406, 466.337 914.570, 469.355 915.659 C 492.982 924.189, 545.390 908.402, 555.449 889.725 L 557.314 886.261 574.907 885.713 C 599.943 884.933, 615.173 881.748, 632 873.774 C 647.635 866.365, 663.357 852.224, 671.454 838.288 L 676.095 830.302 682.297 828.581 C 712.035 820.333, 733.409 800.639, 740.123 775.300 C 741.779 769.052, 742.339 762.825, 742.939 744 C 743.733 719.101, 744.201 716.452, 749.368 707.634 L 752.033 703.087 755.267 704.993 C 769.606 713.444, 794.043 710.529, 805.750 698.971 C 809.971 694.804, 810.080 692.534, 806.021 693.346 C 803.254 693.899, 803.491 693.499, 809.355 687.721 C 818.162 679.041, 825.894 662.406, 822.185 660.114 C 821.402 659.630, 821.653 657.577, 823.038 653.125 C 825.736 644.457, 825.636 633, 822.862 633 C 822.355 633, 820.531 634.604, 818.809 636.564 C 812.939 643.250, 806.055 645.550, 786.027 647.515 L 779.555 648.150 781.454 646.051 C 788.614 638.140, 768.685 644.224, 758.750 652.982 C 754.608 656.634, 754 656.903, 754 655.085 C 754 649.893, 746.933 655.907, 742.422 664.938 C 739.298 671.192, 738.065 681.878, 739.869 687.054 C 740.928 690.092, 740.762 690.535, 737.054 694.557 C 727.799 704.597, 725.234 713.072, 724.031 737.578 C 722.750 763.686, 720.094 771.961, 709.954 781.446 C 704.837 786.233, 695.174 791.418, 689.118 792.627 L 685.737 793.303 686.457 785.401 C 686.854 781.056, 687.588 777.073, 688.089 776.550 C 689.439 775.142, 689.126 759.331, 687.623 753 C 686.905 749.975, 686.515 744.800, 686.758 741.500 C 687.274 734.476, 685.465 726.191, 678.053 701.650 C 671.935 681.394, 671.251 678.477, 669.481 665.096 C 668.110 654.740, 668.116 654.665, 670.643 648.659 C 673.689 641.422, 675.959 631.260, 675.983 624.750 C 675.996 621.039, 676.355 620, 677.625 620 C 679.053 620, 679.169 618.935, 678.582 611.250 C 678.214 606.438, 677.789 599.575, 677.638 596 C 677.304 588.140, 673.208 575.389, 668.510 567.587 L 665.103 561.929 670.454 559.563 C 676.494 556.891, 691.164 547.713, 693.077 545.407 C 696.697 541.045, 697.683 542.231, 694.824 547.509 C 690.069 556.287, 692.569 557.252, 703.442 550.834 C 707.855 548.229, 714.319 542.831, 720.693 536.429 C 729.068 528.015, 730.940 526.560, 731.193 528.266 C 731.750 532.035, 733.920 531.243, 740.600 524.833 C 751.348 514.519, 762.245 496.024, 764.646 484.021 C 765.742 478.541, 767 479.732, 767 486.250 C 767 490.350, 767.530 493.309, 768.487 494.559 C 770.282 496.900, 771.951 495.241, 776.983 486.118 C 793.177 456.752, 796.159 420.220, 784.947 388.521 C 783.395 384.133, 782.218 380.449, 782.332 380.335 C 782.445 380.221, 785.641 382.124, 789.433 384.564 C 797.529 389.773, 798.005 389.867, 797.985 386.250 C 797.949 379.868, 786.814 359.334, 778.246 349.850 L 774.776 346.010 779.014 347.505 C 788.010 350.679, 788.802 349.492, 782.565 342.185 C 777.403 336.137, 768.536 323.560, 764.650 316.775 L 761.945 312.050 767.901 304.955 C 780.577 289.858, 788.606 265.436, 784.983 252.993 C 784.250 250.476, 784.297 248.871, 785.153 247.248 C 788.034 241.783, 778.429 214.237, 769.335 201.883 C 766.991 198.698, 762.814 194.407, 760.053 192.345 C 756.836 189.944, 755.453 188.338, 756.202 187.875 C 760.864 184.994, 737.997 174, 727.343 174 C 723.461 174, 722 173.622, 722 172.617 C 722 167.365, 703.531 172.833, 692.500 181.350 C 690.300 183.049, 683.775 188.894, 678 194.339 C 663.545 207.970, 665.079 207.693, 653.799 198.713 C 642.274 189.537, 626.454 179.045, 623.891 178.875 C 621.051 178.687, 620.780 178.582, 617 176.195 C 615.075 174.979, 611.136 173.094, 608.247 172.005 C 593.195 166.334, 583.556 159.084, 575.666 147.500 C 571.488 141.366, 565.034 127.719, 565.012 124.973 C 564.987 121.805, 561.968 118.783, 560.247 120.202 C 557.687 122.316, 555.034 129.382, 554.352 135.907 C 553.606 143.046, 553.896 142.878, 549.432 138.750 C 543.208 132.995, 529.072 125.120, 519.100 121.851 C 510.386 118.996, 508.116 118.674, 494.500 118.371 C 485.310 118.166, 478.415 118.456, 476.700 119.119 M 490.874 126.025 C 501.392 131.011, 511.112 138.174, 517.810 145.875 C 524.043 153.042, 524.187 153.646, 519.034 151.017 C 498.701 140.644, 467.556 140.106, 445 149.737 C 435.353 153.856, 428.686 157.652, 433 156.569 C 446.370 153.214, 480.810 156.735, 488.278 162.220 C 489.748 163.299, 488.727 163.513, 481.761 163.582 C 474.934 163.650, 472.111 164.218, 465.500 166.853 C 453.948 171.458, 452.598 172.749, 459.793 172.308 L 465.500 171.958 458 174.322 C 412.456 188.680, 377.406 224.345, 355.911 278.207 C 348.689 296.301, 341.706 325.082, 341.832 336.231 C 341.867 339.274, 341.478 340.880, 340.742 340.731 C 338.702 340.319, 336.892 347.290, 338.678 348.681 C 340 349.711, 339.915 350.031, 338.015 351.181 C 336.816 351.906, 334.317 355.679, 332.461 359.564 C 330.605 363.449, 324.859 372.059, 319.694 378.699 C 308.481 393.110, 307.394 395.316, 314.122 389.998 C 321.660 384.040, 322.565 384.795, 318.022 393.250 C 313.408 401.839, 309.458 413.354, 308.504 421 L 307.818 426.500 310.910 420.404 C 312.611 417.051, 314.942 413.457, 316.091 412.418 L 318.179 410.528 317.350 414.514 C 316.240 419.852, 316.557 438.746, 317.819 442.500 C 318.786 445.375, 318.834 445.396, 318.959 443 C 319.031 441.625, 319.708 439.150, 320.464 437.500 L 321.838 434.500 321.919 437.645 C 322.070 443.509, 325.912 453.470, 331.023 461.250 C 333.824 465.513, 336.426 469, 336.807 469 C 337.188 469, 337.342 463.648, 337.148 457.107 C 336.735 443.161, 337.754 438.728, 344.578 424.777 L 349.116 415.500 348.496 403 C 347.780 388.573, 349.024 384.773, 358.646 372 C 365.899 362.371, 367.763 359.008, 369.463 352.482 C 371.870 343.241, 371.580 343.106, 362 349 C 354.843 353.403, 350.297 354.091, 347.655 351.171 C 343.965 347.094, 346.617 341.502, 353.732 338.355 C 356.630 337.074, 359 335.548, 359 334.965 C 359 333.303, 364.146 328.885, 367.976 327.259 C 373.921 324.737, 382.266 324.036, 389.198 325.477 C 397.369 327.177, 397.651 326.659, 390.402 323.264 C 384.223 320.370, 373.237 319.459, 366.652 321.294 C 362.306 322.505, 363.760 320.057, 369.502 316.500 C 373.898 313.776, 375.133 313.500, 382.922 313.500 C 393.641 313.500, 399.084 315.883, 407 324.041 C 420.592 338.049, 419.483 345.904, 404.219 343.742 C 397.218 342.750, 396.839 342.802, 394.387 345.105 C 390.439 348.812, 385.556 360.263, 382.065 374 C 379.875 382.616, 377.478 389.141, 374.350 395 C 368.199 406.520, 366.162 411.911, 363.955 422.500 C 357.856 451.763, 360.483 478.904, 370.054 485.538 C 375.117 489.046, 377.420 492.240, 379.040 498 C 380.964 504.840, 384.697 507.801, 407.427 520.514 C 421.337 528.293, 423.071 528.870, 421.016 525.030 C 418.605 520.525, 420.770 520.947, 424.807 525.770 C 429.179 530.991, 435.713 535.728, 442.390 538.519 L 446.256 540.134 443.156 536.373 C 438.999 531.329, 439.625 531.238, 446.604 535.872 C 457.371 543.020, 467.933 545.400, 461.166 539.154 C 455.681 534.090, 455.897 533.340, 461.794 536.968 C 467.262 540.333, 476.524 543.018, 482.460 542.961 L 486.500 542.922 483.370 541.560 C 478.979 539.648, 477.788 537.502, 481.601 538.370 C 483.196 538.733, 487.087 539.310, 490.250 539.654 L 496 540.278 496.022 536.889 C 496.067 529.896, 500.925 522.101, 507.250 518.873 C 509.547 517.701, 511 516.241, 511 515.105 C 511 514.086, 511.613 511.507, 512.363 509.376 L 513.726 505.500 505.113 505.458 C 497.517 505.421, 494.906 504.866, 483 500.752 C 460.560 492.998, 449.921 492.554, 429.353 498.514 C 418.449 501.674, 412.385 501.741, 407.990 498.750 C 399.972 493.293, 398.694 487.601, 401.970 471.946 C 406.141 452.019, 405.734 434.265, 400.751 418.700 C 397.632 408.957, 398.078 408.515, 411.109 408.441 C 422.609 408.376, 425.836 407.501, 436.430 401.576 L 443.147 397.820 442.824 393.160 C 442.510 388.645, 442.335 388.415, 437.211 385.778 C 426.293 380.160, 413.283 368.314, 410.368 361.338 L 408.888 357.796 405.489 361.648 C 397.462 370.745, 392.588 385.659, 394.431 395.486 C 395.052 398.794, 395.383 399.121, 397.563 398.574 C 400.451 397.849, 400.821 399.490, 398.097 400.948 C 397.051 401.508, 395.219 403.981, 394.027 406.444 L 391.860 410.921 394.387 420.170 C 395.777 425.257, 396.713 429.621, 396.466 429.868 C 395.758 430.576, 388.933 415.221, 388.526 412.004 C 388.324 410.409, 389.040 407.402, 390.121 405.305 C 391.824 402.003, 391.930 400.947, 390.929 397.313 C 387.518 384.933, 391.811 371.004, 402.259 360.556 C 405.727 357.087, 409.087 353.105, 409.724 351.707 L 410.882 349.165 406.394 351.150 C 399.897 354.024, 398.982 352.959, 405.214 349.777 C 417.800 343.350, 428 332.512, 428 325.565 C 428 324.704, 428.509 324, 429.131 324 C 430.281 324, 429.899 328.655, 428.446 332.332 C 427.865 333.805, 429.175 333.425, 435.111 330.402 C 441.739 327.026, 443.468 326.592, 451.899 326.193 C 460.977 325.764, 470.709 327.079, 474 329.180 C 475.090 329.876, 474.817 329.972, 473 329.533 C 462.328 326.952, 446.629 328.224, 437.500 332.408 C 429.246 336.191, 416.194 346.426, 419.121 346.820 C 420.429 346.996, 425.060 348.249, 429.411 349.605 C 438.861 352.549, 449.539 352.863, 461.500 350.548 C 477.056 347.538, 485.084 349.428, 489.012 357.024 L 490.710 360.307 493.855 353.651 C 495.585 349.990, 497 346.347, 497 345.556 C 497 344.765, 497.517 343.799, 498.149 343.408 C 499.958 342.290, 498.271 352.445, 495.761 357.784 C 491.910 365.979, 484.606 372.069, 469.840 379.398 C 462.503 383.040, 454.114 386.577, 451.198 387.259 C 446.639 388.324, 445.972 388.778, 446.435 390.499 C 446.731 391.600, 446.979 393.672, 446.986 395.105 C 446.998 397.402, 448.049 398.197, 455.883 401.837 C 467.555 407.260, 474.153 408.884, 487.478 409.611 C 506.106 410.627, 514.717 416.526, 523.515 434.295 C 534.131 455.737, 536.812 478.780, 530.413 493.581 C 529.284 496.194, 535.630 493.709, 537.237 490.910 C 538.162 489.299, 540.511 487.041, 542.459 485.892 C 546.492 483.512, 546.871 480.961, 544.951 469.125 C 544.382 465.619, 544.127 462.539, 544.385 462.281 C 545.195 461.472, 547.046 469.224, 547.660 476 L 548.249 482.500 556.875 482.529 C 566.661 482.562, 573.845 485.174, 581.579 491.511 C 586.872 495.849, 587.102 495.437, 587.733 480.500 C 588.081 472.259, 587.771 467.744, 586.497 462.500 C 585.561 458.650, 584.425 449.798, 583.972 442.829 C 582.841 425.449, 581.152 420.050, 573.827 410.396 C 564.511 398.118, 563.862 396.421, 562.438 380.624 C 561.372 368.791, 560.766 365.923, 558.326 361.151 C 554.068 352.827, 551.532 351.539, 536.710 350.175 C 519.311 348.575, 518.564 348.049, 523.456 340.850 C 531.129 329.559, 551.486 319.598, 567.021 319.535 C 576.584 319.496, 586.817 323.410, 590.976 328.697 C 593.622 332.060, 593.206 332.337, 588.178 330.563 C 579.053 327.343, 564.259 327.724, 555.500 331.403 C 552.806 332.535, 553.469 332.657, 562 332.604 C 576.101 332.517, 589.083 337.606, 596.316 346.056 C 598.962 349.148, 600.395 350, 602.945 350 C 610.140 350, 617 355.619, 617 361.512 C 617 369.173, 610.225 369.439, 599.510 362.200 C 594.613 358.892, 590.755 357, 588.906 357 C 585.391 357, 585.385 357.111, 588.421 366.229 C 589.753 370.228, 591.582 378.575, 592.485 384.779 C 594.492 398.561, 596.447 404.434, 602.423 414.628 C 618.410 441.902, 622.417 477.475, 612.562 504.626 C 611.204 508.366, 610.227 511.561, 610.391 511.724 C 611.161 512.495, 625.528 504.407, 631.152 500.037 C 638.618 494.235, 639.511 494.367, 635.026 500.613 C 628.433 509.793, 646.862 494.744, 655.879 483.583 C 658.838 479.921, 661.409 477.076, 661.593 477.259 C 661.776 477.443, 661.268 479.781, 660.463 482.456 C 659.658 485.130, 659 487.803, 659 488.396 C 659 490.501, 666.370 478.487, 670.748 469.246 C 675.754 458.677, 676.888 457.987, 674.605 466.898 C 672.464 475.256, 668.668 482.371, 663.279 488.133 C 658.172 493.593, 657 494.061, 657 490.640 C 657 488.604, 655.989 489.276, 649.614 495.548 C 641.796 503.241, 627.535 511.484, 626.090 509.146 C 625.643 508.423, 623.704 509.183, 620.454 511.357 C 617.729 513.179, 612.350 515.875, 608.500 517.347 C 598.472 521.182, 598.993 520.405, 600.684 529 C 602.406 537.756, 601.942 550.023, 599.494 560.452 C 598.294 565.565, 598.138 568.007, 598.903 569.687 L 599.944 571.970 608.153 568.943 C 618.579 565.099, 632.894 557.890, 640.043 552.883 C 648.829 546.729, 648.195 548.265, 637.530 558.970 L 627.598 568.940 638.660 565.475 C 672.324 554.932, 697.310 540.100, 707.094 524.853 C 713.581 514.744, 710.684 524.732, 702.293 541.406 L 698.817 548.313 703.159 544.971 C 718.691 533.017, 732.038 515.456, 738.357 498.662 C 740.132 493.943, 741.959 489.726, 742.418 489.291 C 744.494 487.319, 739.755 510.707, 735.385 524 C 733.575 529.506, 748.313 508.316, 753.469 498 C 759.497 485.939, 763.001 474.081, 765.292 458 C 766.137 452.066, 769.971 472.670, 770.071 483.680 L 770.141 491.500 772.170 487 C 778.850 472.186, 784.270 450.872, 785.530 434.469 C 786.754 418.526, 782.131 390.126, 776.086 376.461 C 774.925 373.837, 774.157 371.509, 774.379 371.288 C 774.807 370.860, 783.476 375.929, 788.500 379.546 C 794.164 383.622, 794.355 383.327, 790.529 376.421 C 785.499 367.344, 778.868 357.785, 769.090 345.517 C 764.714 340.026, 761.237 335.430, 761.363 335.303 C 761.490 335.177, 765.622 337.154, 770.547 339.698 L 779.500 344.322 774.776 339.231 C 769.900 333.977, 760.577 320.394, 759.485 316.951 C 758.702 314.485, 757.520 314.494, 754.012 316.992 C 748.864 320.657, 739.016 324.771, 732.398 326.019 L 725.844 327.256 729.607 331.110 C 734.720 336.346, 733.575 336.735, 727.249 331.912 C 719.351 325.889, 712.619 316.858, 705.326 302.500 C 701.694 295.350, 697.884 288.306, 696.861 286.846 C 694.088 282.890, 694.195 282.842, 705.056 283.184 C 714.748 283.489, 715.034 283.437, 712.956 281.759 C 710.811 280.026, 702.012 277, 699.118 277 C 695.479 277, 700.606 274.434, 712.097 270.506 L 724.256 266.350 720.378 264.447 C 717.430 263.001, 714.282 262.539, 707.254 262.522 C 702.168 262.510, 698.006 262.173, 698.004 261.773 C 697.999 260.802, 707.323 253.411, 713.261 249.679 C 715.879 248.034, 717.848 246.515, 717.637 246.303 C 716.717 245.383, 703.140 249.280, 699.500 251.509 C 687.684 258.745, 681.260 260.443, 675.547 257.839 C 671.757 256.113, 672.436 255.385, 677.834 255.385 C 687.029 255.385, 691.782 251.258, 705.998 230.931 C 716.936 215.292, 725.186 210.393, 739.750 210.889 C 744.585 211.054, 743.686 212.993, 738.750 213.045 C 736.413 213.070, 733.150 213.672, 731.500 214.382 L 728.500 215.675 733.500 216.410 C 743.468 217.875, 754.359 224.856, 759.580 233.126 C 763.063 238.644, 762.587 238.787, 757.649 233.707 C 755.256 231.244, 752.364 228.730, 751.221 228.118 C 749.222 227.049, 749.234 227.166, 751.522 231.260 C 758.602 243.927, 758.628 262.933, 751.585 276.831 C 745.345 289.145, 731.625 300.732, 718.820 304.501 C 715.344 305.525, 712.317 306.501, 712.093 306.671 C 711.361 307.228, 722.984 324, 724.103 324 C 727.107 324, 737.381 320.324, 744.500 316.701 C 770.157 303.645, 786.880 268.462, 778.581 245 C 774.491 233.435, 774.459 233.046, 777.931 236.962 C 781.580 241.079, 781.631 240.849, 778.858 232.754 C 770.608 208.667, 758.383 193.226, 742.024 186.231 L 736.500 183.869 742.500 184.371 L 748.500 184.873 743.234 182.363 C 733.501 177.724, 721.457 177.079, 710.283 180.599 C 709.302 180.908, 710.300 179.538, 712.500 177.555 C 716.016 174.385, 716.175 174.067, 713.812 174.926 C 703.909 178.527, 697.277 183.310, 680.616 198.863 C 672.753 206.203, 667.709 210.023, 662.443 212.626 C 654.012 216.792, 646 218.256, 646 215.630 C 646 214.613, 646.846 213.992, 648.250 213.978 C 650.327 213.958, 659 210.545, 659 209.748 C 659 208.224, 627.930 185.804, 623.500 184.132 C 584.792 169.518, 571.519 157.400, 561.472 127.500 C 560.840 125.619, 560.739 125.649, 559.784 128 C 558.147 132.031, 558.509 146.909, 560.365 151.876 C 561.264 154.282, 562 156.338, 562 156.444 C 562 156.550, 558.031 152.781, 553.181 148.068 C 535.923 131.302, 513.064 121.937, 489.619 122.028 L 482.500 122.055 490.874 126.025 M 340.624 172.799 C 340.299 173.326, 341.375 174.025, 343.016 174.353 C 347.612 175.272, 346.562 176.655, 340.750 177.338 C 323.627 179.350, 304.194 198.064, 296.350 220.095 C 292.814 230.027, 291.792 253.307, 294.483 262.629 C 297.116 271.752, 301.893 279.846, 309.182 287.538 C 319.539 298.468, 319.385 298.444, 327.256 290.337 L 333.869 283.527 328.558 278.794 C 311.848 263.900, 307.594 239.367, 318.668 221.750 C 319.964 219.688, 320.631 218, 320.150 218 C 319.094 218, 311.801 223.705, 310.812 225.305 C 310.425 225.930, 309.855 226.188, 309.544 225.878 C 309.234 225.567, 310.543 223.266, 312.454 220.764 C 316.259 215.781, 324.382 211.066, 329.446 210.900 C 331.126 210.845, 333.625 210.483, 335 210.096 C 337.467 209.400, 337.455 209.375, 334.101 208.195 C 332.231 207.538, 329.392 207, 327.792 207 C 325.889 207, 325.123 206.610, 325.578 205.874 C 326.027 205.147, 328.301 204.931, 331.975 205.264 C 342.402 206.209, 347.625 210.291, 356.143 224.152 C 361.822 233.395, 367.137 240, 368.895 240 C 369.303 240, 372.624 235.613, 376.275 230.250 C 379.926 224.887, 386.073 217.063, 389.935 212.862 L 396.957 205.225 394.072 204.030 C 390.602 202.593, 382.486 194.900, 374.989 185.942 C 369.221 179.050, 362.537 173, 360.692 173 C 359.963 173, 359.999 173.399, 360.800 174.200 C 363.080 176.480, 361.980 176.683, 356.750 174.946 C 349.979 172.698, 341.393 171.555, 340.624 172.799 M 329.280 215.971 C 316.406 223.820, 313.047 247.416, 322.235 265.455 C 323.344 267.631, 326.739 272.020, 329.781 275.209 L 335.311 281.007 341.406 275.254 C 349.127 267.964, 349.128 267.961, 343.070 268.678 C 336.277 269.483, 336.693 265.216, 344 259.144 C 346.308 257.226, 346.346 257.064, 344.500 257.028 C 341.222 256.964, 335 254.976, 335 253.992 C 335 251.846, 339.727 248.977, 345.302 247.738 L 351.303 246.405 346.152 242.704 C 343.318 240.669, 341 238.601, 341 238.109 C 341 235.707, 347.580 235.367, 354.391 237.417 L 359.100 238.834 357.212 235.667 C 356.173 233.925, 353.338 229.173, 350.912 225.106 C 344.423 214.230, 337.163 211.164, 329.280 215.971 M 717.392 225.452 C 715.045 227.900, 710.793 233.361, 707.942 237.586 L 702.758 245.268 706.629 244.397 C 712.437 243.091, 720.714 243.311, 722.200 244.812 C 723.645 246.270, 720.460 249.416, 712.161 254.724 L 707.822 257.500 712.879 258.635 C 722.180 260.724, 728.939 265.461, 726.333 268.067 C 725.716 268.684, 721.451 270.714, 716.855 272.578 C 712.260 274.442, 709.030 275.974, 709.679 275.983 C 711.768 276.013, 718 282.667, 718 284.868 C 718 286.877, 717.508 287, 709.512 287 L 701.025 287 704.305 292.250 C 706.109 295.137, 708.119 298.738, 708.771 300.250 C 710.355 303.922, 712.903 303.799, 721.528 299.631 C 749.155 286.283, 760.808 254.601, 746.713 231.156 C 742.229 223.699, 737.387 221, 728.491 221 C 721.708 221, 721.625 221.033, 717.392 225.452 M 417 238.982 C 417 239.487, 417.628 240.260, 418.397 240.700 C 422.165 242.858, 424.276 248.901, 423.763 256.066 C 423.349 261.857, 423.493 262.835, 424.625 261.896 C 429.069 258.208, 428.201 246.397, 423.144 241.732 C 420.190 239.007, 417 237.579, 417 238.982 M 347 239.327 C 347 239.506, 349.700 241.609, 353 244 C 356.300 246.391, 359 248.654, 359 249.029 C 359 249.404, 355.738 249.965, 351.750 250.274 C 347.762 250.584, 343.715 251.146, 342.756 251.523 C 340.690 252.336, 341.395 253.998, 343.809 254.006 C 346.630 254.015, 353 256.039, 353 256.926 C 353 257.383, 351.757 258.272, 350.238 258.902 C 346.659 260.384, 341.329 264.648, 342.091 265.418 C 342.416 265.747, 345.428 265.640, 348.784 265.181 C 356.160 264.172, 356.109 264.410, 346.767 274.725 C 343.320 278.531, 334.849 287.914, 327.941 295.578 C 321.034 303.241, 312.165 311.965, 308.233 314.964 C 304.300 317.963, 301.255 320.589, 301.466 320.800 C 301.677 321.010, 304.021 321.390, 306.675 321.643 C 314.577 322.396, 322.500 324.723, 329.967 328.483 C 333.835 330.431, 337 331.888, 337 331.721 C 337 331.553, 338.348 324.491, 339.995 316.026 C 344.457 293.096, 353.549 267.844, 363.385 251.061 C 367.308 244.366, 367.998 245.345, 356.575 241.395 C 350.206 239.192, 347 238.500, 347 239.327 M 531.699 241.780 C 527.204 246.747, 525.613 257.416, 528.526 263.050 C 530.720 267.293, 530.871 266.875, 530.275 258.188 C 529.825 251.615, 530.080 249.608, 531.882 245.534 C 534.238 240.208, 534.181 239.038, 531.699 241.780 M 543.385 245.611 C 536.509 248.940, 533.594 262.038, 538.611 267.056 C 540.463 268.907, 540.500 268.799, 540.500 261.554 C 540.500 254.802, 540.786 253.758, 543.807 249.472 C 547.630 244.047, 547.579 243.579, 543.385 245.611 M 409.315 246.852 C 408.780 247.208, 407.032 249.975, 405.430 253 C 401.325 260.753, 391.812 270.036, 384.500 273.423 C 371.904 279.259, 369.810 280.512, 365.418 284.843 C 361.241 288.961, 357.154 295, 358.544 295 C 358.872 295, 361.138 293.625, 363.581 291.944 C 369.444 287.911, 373.317 286.362, 383.731 283.889 C 398.160 280.462, 407.219 274.601, 412.796 265.085 L 415.481 260.504 416.032 263.502 L 416.583 266.500 417.958 264.004 C 419.858 260.556, 419.680 253.967, 417.601 250.794 C 415.787 248.027, 410.983 245.741, 409.315 246.852 M 552 251.765 C 546.160 253.695, 544.006 260.819, 547.093 267.995 C 551.795 278.925, 564.044 287.111, 581.500 290.990 C 592.760 293.493, 601.330 297.181, 608.363 302.551 C 613.861 306.749, 614.478 306.698, 612.312 302.226 C 608.066 293.459, 599.752 286.944, 586.500 282 C 572.161 276.651, 563.935 269.757, 558.101 258.199 C 554.764 251.590, 554.232 251.028, 552 251.765 M 419 279.265 C 419 279.546, 420.379 282.723, 422.065 286.326 C 423.751 289.929, 425.977 297.005, 427.010 302.050 C 429.209 312.783, 430.005 314.216, 429.988 307.417 C 429.973 301.301, 427.911 293.381, 424.536 286.484 C 422.330 281.975, 419 277.633, 419 279.265 M 528.205 285.466 C 522.626 291.571, 517.518 299.864, 516.483 304.500 C 516.114 306.150, 515.232 308.850, 514.523 310.500 C 511.762 316.925, 509.658 331.241, 510.844 335.531 C 512.171 340.328, 515.568 345.314, 514.570 341 C 510.377 322.861, 517.482 299.292, 531.824 283.760 C 533.216 282.254, 534.109 280.776, 533.809 280.476 C 533.509 280.176, 530.987 282.422, 528.205 285.466 M 682 299.351 C 682 299.544, 684.725 307.522, 688.057 317.080 C 691.388 326.638, 693.899 335.280, 693.636 336.284 C 693.148 338.151, 695.626 346.651, 696.885 347.429 C 698.404 348.368, 694.807 328.973, 691.890 320.500 C 687.473 307.670, 682 295.965, 682 299.351 M 392 302.321 C 392 302.617, 394.137 303.895, 396.750 305.159 C 399.363 306.424, 404.762 310.722, 408.750 314.710 C 416.664 322.624, 417.550 322.836, 413.048 315.737 C 410.144 311.158, 403.712 305.662, 399.206 303.909 C 395.668 302.532, 392 301.724, 392 302.321 M 549.500 308.457 C 542.166 310.689, 534.722 315.148, 529.334 320.536 C 522.236 327.634, 522.515 329.414, 529.750 323.193 C 536.804 317.128, 542.832 313.296, 549.842 310.422 C 555.858 307.955, 555.622 306.595, 549.500 308.457 M 454 321.274 C 449.729 322.399, 450.188 322.490, 463 323.059 C 470.425 323.389, 477.800 324.198, 479.389 324.857 C 480.977 325.516, 482.454 325.880, 482.669 325.664 C 482.885 325.449, 480.735 324.272, 477.891 323.049 C 471.718 320.393, 460.502 319.560, 454 321.274 M 295.011 327.752 C 286.422 332.055, 289.891 340, 300.359 340 C 303.244 340, 309.857 338.883, 315.053 337.519 C 320.249 336.154, 326.975 335.007, 330 334.971 L 335.500 334.904 329.764 331.943 C 318.294 326.022, 302.309 324.094, 295.011 327.752 M 208 327.935 C 193.788 332.274, 186.862 343.814, 194.747 350.016 C 199.473 353.733, 207.067 352.146, 218.199 345.116 C 227.024 339.543, 234.776 336.133, 242.209 334.557 L 248.500 333.222 244.755 331.600 C 235.159 327.442, 215.903 325.523, 208 327.935 M 209.500 331.328 C 200.406 334.365, 195 338.908, 195 343.512 C 195 350.205, 203.835 349.509, 217.018 341.777 C 226.047 336.482, 234.052 333.075, 237.785 332.937 C 238.947 332.894, 238.694 332.548, 237 331.864 C 232.822 330.179, 214.038 329.812, 209.500 331.328 M 372 334.820 C 368.975 335.834, 364.605 337.640, 362.290 338.832 C 359.974 340.024, 357.262 341, 356.262 341 C 353.266 341, 350 343.915, 350 346.588 C 350 350.788, 352.809 350.686, 361.117 346.183 C 369.796 341.480, 372.553 341.017, 373.531 344.099 C 375.493 350.280, 370.699 361.698, 360.216 375.807 C 352.092 386.741, 350.837 391.054, 351.597 405.415 L 352.184 416.500 347.613 425.776 C 341.895 437.377, 340 444.595, 340 454.769 C 340 465.888, 340.737 468.998, 343.375 469.010 C 347.302 469.028, 355.679 473.713, 358.577 477.512 C 361.433 481.257, 363.099 480.923, 361.012 477.023 C 359.316 473.854, 357.003 459.334, 357.001 451.849 C 356.998 435.217, 362.857 411.030, 370.639 395.548 C 374.362 388.141, 377.251 380.447, 379.547 371.822 C 383.420 357.276, 388.411 346.515, 393.124 342.549 C 396.474 339.730, 397.195 339.683, 408 341.583 C 409.375 341.825, 406.799 340.168, 402.275 337.902 C 392.061 332.786, 381.329 331.693, 372 334.820 M 639.500 337.604 C 632.957 339.160, 620.769 344.898, 620.604 346.500 C 620.547 347.051, 624.318 347.797, 629 348.161 C 634.191 348.564, 641.351 350.060, 647.392 352.003 C 663.032 357.034, 671.046 355.815, 671.803 348.291 C 672.760 338.772, 656.795 333.490, 639.500 337.604 M 314 341.138 C 306.200 343.620, 303.403 344.065, 298.368 343.629 L 292.236 343.097 284.868 349.421 C 278.284 355.072, 270.851 363.027, 268.531 366.905 C 267.550 368.544, 268.817 367.904, 273.507 364.387 C 276.739 361.965, 287.192 356.859, 287.759 357.426 C 287.948 357.615, 285.602 361.084, 282.544 365.135 C 274.644 375.603, 265.536 394.332, 262.427 406.500 C 259.615 417.511, 258.124 439.343, 259.699 446.467 L 260.576 450.435 262.841 443.467 C 265.027 436.742, 275.685 417.352, 276.660 418.327 C 276.923 418.589, 276.657 421.406, 276.069 424.586 C 274.705 431.961, 274.701 453.543, 276.060 462 C 277.112 468.544, 282.833 486.894, 285.272 491.550 C 286.419 493.738, 286.603 492.311, 286.731 480.278 C 286.811 472.700, 287.326 465.375, 287.875 464 L 288.873 461.500 288.954 464.500 C 289.196 473.484, 294.959 490.184, 300.327 497.451 C 301.684 499.290, 301.954 499.033, 304.980 493.040 C 309.222 484.637, 316.697 476.894, 324.447 472.875 L 330.731 469.618 327.288 464.236 C 325.394 461.276, 323.381 457.522, 322.813 455.894 C 322.035 453.661, 321.330 453.078, 319.943 453.518 C 316.636 454.568, 312.004 441.357, 311.996 430.856 L 311.993 425.500 310.011 428.750 C 306.108 435.151, 304.436 431.527, 305.252 418.437 C 305.660 411.902, 306.452 408.631, 308.887 403.428 C 312.713 395.252, 312.713 395.222, 308.915 398.418 C 299.208 406.586, 304.973 390.190, 317.324 374.500 C 324.532 365.344, 330.782 355.388, 327.828 357.766 C 326.964 358.463, 323.480 363.012, 320.086 367.877 C 309.957 382.395, 301.005 387.159, 295.046 381.200 C 285.318 371.472, 302.729 353.166, 325.054 349.651 L 332.057 348.548 333.528 343.593 C 334.338 340.867, 335 338.494, 335 338.318 C 335 336.867, 321.891 338.627, 314 341.138 M 635 342.268 L 627.500 344.382 635.105 345.574 C 639.288 346.230, 646.861 347.988, 651.933 349.480 C 662.151 352.487, 667.442 352.334, 668.499 349.003 C 671.046 340.977, 652.682 337.285, 635 342.268 M 544.500 342.504 C 541.200 343.244, 536.718 344.484, 534.541 345.261 L 530.582 346.673 539.348 347.347 C 550.108 348.174, 553.623 349.573, 558.111 354.817 C 562.792 360.285, 565 367.863, 565.676 380.769 C 566.342 393.491, 567.785 397.426, 574.937 406.020 C 584.110 417.042, 586.985 425.471, 587.026 441.460 C 587.042 447.749, 587.779 454.676, 589 460 C 591.313 470.089, 591.559 483.992, 589.573 492.433 C 588.218 498.194, 588.246 498.456, 590.556 501.484 C 591.864 503.199, 594.068 507.167, 595.455 510.301 C 598.289 516.710, 597.920 516.478, 602.336 514.633 C 609.178 511.774, 614.258 493.843, 614.272 472.500 C 614.288 449.338, 609.376 431.311, 598.488 414.578 C 593.757 407.307, 591.329 399.403, 589.074 383.928 C 587.986 376.463, 585.958 367.238, 584.567 363.428 C 582.189 356.914, 582.141 356.421, 583.769 355.172 C 586.975 352.711, 593.528 354.348, 600.947 359.463 C 605.960 362.920, 608.509 364.070, 610.618 363.828 C 617.771 363.009, 611.735 354.130, 603.468 353.311 C 600.735 353.040, 593.738 350.844, 587.918 348.431 C 570.592 341.247, 557.861 339.509, 544.500 342.504 M 720 345.692 C 713.950 346.336, 706 348.113, 706.004 348.821 C 706.007 349.194, 709.269 351.187, 713.254 353.248 C 717.239 355.310, 723.425 359.525, 727 362.615 C 741.261 374.942, 748.112 377.042, 754.202 370.952 C 762.010 363.144, 752.710 351.025, 735.465 346.533 C 729.753 345.045, 727.324 344.913, 720 345.692 M 692.306 347.625 C 692.591 348.656, 693.378 351.938, 694.053 354.917 C 694.728 357.897, 696.325 363.001, 697.602 366.260 C 699.640 371.460, 699.714 372.102, 698.212 371.507 C 693.327 369.573, 682.386 368.034, 673.500 368.033 C 659.996 368.030, 658.232 369.529, 670.836 370.297 C 691.253 371.541, 709.478 378.565, 714.852 387.261 C 719.137 394.194, 716.452 400, 708.960 400 C 703.263 400, 698.867 397.403, 688.102 387.678 C 679.496 379.903, 664.648 370.018, 663.420 371.247 C 663.138 371.528, 665.741 373.790, 669.204 376.273 C 672.667 378.755, 680.333 385.303, 686.239 390.823 C 692.146 396.342, 697.815 401.124, 698.837 401.448 C 700.146 401.864, 701.486 404.625, 703.361 410.769 C 706.879 422.299, 706.854 422.476, 702.040 420.020 C 699.862 418.909, 697.866 418, 697.605 418 C 697.344 418, 697.381 421.938, 697.689 426.750 C 698.182 434.465, 697.187 445.346, 695.288 453 C 694.753 455.158, 694.878 455.327, 696.201 454.238 C 699.131 451.826, 701.172 442.696, 700.825 433.555 C 700.646 428.847, 700.605 424.996, 700.733 424.998 C 701.549 425.006, 706.170 435.765, 708.046 442.025 C 712.817 457.949, 718.367 463.483, 726.455 460.379 C 728.362 459.647, 731 454.905, 731 452.209 C 731 447.432, 724.754 437.935, 716.796 430.612 C 709.355 423.766, 708.702 422.848, 708.350 418.754 C 708.140 416.313, 707.367 411.995, 706.631 409.158 L 705.293 404 708.999 404 C 713.481 404, 719.110 400.473, 720.377 396.871 C 722.592 390.571, 717.545 381.986, 708.240 376.225 C 703.615 373.361, 703.380 372.968, 698.571 360.093 C 695.860 352.835, 693.224 346.639, 692.714 346.323 C 692.203 346.008, 692.020 346.593, 692.306 347.625 M 517.873 349.750 C 520.103 353.887, 526.193 357.871, 533.250 359.809 C 538.489 361.248, 537.935 360.503, 531.250 357.116 C 528.087 355.515, 523.751 352.808, 521.612 351.102 C 517.140 347.533, 516.566 347.326, 517.873 349.750 M 714.530 348.744 L 709.561 349.128 715.203 351.421 C 718.306 352.682, 723.816 355.916, 727.448 358.607 C 741.684 369.157, 743.124 370, 746.913 370 C 757.478 370, 753.367 357.415, 741.074 352.127 C 736.543 350.178, 724.512 347.824, 721 348.200 C 720.175 348.288, 717.264 348.533, 714.530 348.744 M 416 351.288 C 412.521 353.038, 412.122 358.094, 415.117 362.466 C 417.320 365.680, 417.412 365.712, 418.962 363.799 C 421.686 360.434, 425.420 363.116, 429.568 371.417 C 432.144 376.572, 434.114 379.111, 436.804 380.745 C 441.928 383.857, 441.912 383.875, 441.289 375.642 C 440.565 366.063, 442.467 364.424, 443.462 373.770 C 444.546 383.947, 444.573 383.980, 450.467 382.471 C 453.199 381.771, 455.565 380.806, 455.725 380.326 C 457.808 374.075, 467.145 365, 471.493 365 C 473.790 365, 477 367.815, 477 369.829 C 477 371.839, 478.589 371.136, 483.109 367.126 C 487.129 363.558, 487.395 363.026, 486.474 360.407 C 484.006 353.387, 476.837 351.706, 461.860 354.635 C 449.069 357.136, 440.254 356.726, 428.627 353.088 C 423.197 351.390, 418.697 350.007, 418.627 350.015 C 418.557 350.023, 417.375 350.596, 416 351.288 M 320.791 353.896 C 302.884 360.362, 291.561 372.419, 297.664 378.521 C 301.664 382.521, 308.390 378.208, 317.675 365.691 C 321.287 360.821, 326.055 355.524, 328.271 353.919 C 333.443 350.172, 331.121 350.165, 320.791 353.896 M 506 360.805 C 520.438 370.200, 529.824 386.812, 530.100 403.460 L 530.201 409.500 531.168 405.500 C 532.937 398.186, 530.972 386.649, 526.477 377.956 C 522.748 370.744, 510.696 360.337, 504 358.545 C 502.313 358.094, 502.964 358.829, 506 360.805 M 421 368.229 C 421 368.996, 422.437 370.686, 424.193 371.984 L 427.386 374.345 425.434 371.003 C 423.338 367.415, 421 365.952, 421 368.229 M 464.385 373.695 C 459.674 378.839, 460.135 379.402, 466.500 376.281 C 470.116 374.507, 472 372.970, 472 371.792 C 472 368.738, 468.013 369.734, 464.385 373.695 M 627 370.458 C 627 370.644, 628.814 373.782, 631.031 377.431 C 633.248 381.081, 636.899 388.822, 639.144 394.633 C 644.467 408.414, 649.374 414.016, 656.079 413.968 C 660.822 413.934, 662.991 412.782, 664.837 409.316 C 668.684 402.092, 659.353 388.515, 643.283 377.954 C 637.245 373.985, 627 369.270, 627 370.458 M 631.478 374.064 C 631.933 374.854, 633.012 376.322, 633.877 377.328 C 634.743 378.333, 638.612 385.533, 642.475 393.328 C 648.602 405.688, 649.978 407.756, 653.239 409.500 C 656.073 411.016, 657.388 411.242, 658.672 410.433 C 664.663 406.661, 662.492 400.196, 651.638 389.494 C 643.900 381.865, 629.724 371.015, 631.478 374.064 M 230.608 375.608 C 219.110 378.563, 206.563 386.980, 201.352 395.235 C 195.387 404.684, 200.557 415.146, 210.274 413.288 C 215.524 412.284, 219.705 407.334, 225.525 395.229 C 228.622 388.786, 232.696 381.636, 234.578 379.339 C 239.315 373.558, 239.158 373.411, 230.608 375.608 M 224 380.793 C 206.940 389.226, 197.294 404.341, 206 409 C 211.007 411.680, 215.969 407.048, 222.897 393.229 C 225.178 388.679, 228.661 383.167, 230.638 380.979 C 235.079 376.063, 233.650 376.023, 224 380.793 M 436.666 407.007 C 428.081 411.624, 420.151 414, 413.333 414 C 411.500 414, 410 414.373, 410 414.829 C 410 416.316, 417.472 426.396, 418.500 426.296 C 419.050 426.242, 420.569 423.408, 421.876 419.999 C 424.210 413.909, 424.306 413.812, 427.376 414.469 C 432.629 415.594, 471.899 416.156, 473.728 415.132 C 475.087 414.372, 474.548 413.964, 470.957 413.035 C 463.210 411.029, 462.675 410.823, 454 406.496 L 445.500 402.257 436.666 407.007 M 524.642 416.516 C 529.071 421.846, 531.790 426.764, 535.655 436.440 C 536.987 439.773, 537.815 441.150, 537.496 439.500 C 535.159 427.416, 529.657 416.842, 524 413.562 L 520.500 411.533 524.642 416.516 M 479.406 415.943 C 480.157 416.799, 482.002 419.975, 483.506 423 C 486.943 429.913, 486.624 429.650, 488.982 427.516 C 491.263 425.452, 497.450 416.099, 496.879 415.579 C 496.670 415.390, 492.346 415.044, 487.270 414.810 C 478.976 414.429, 478.178 414.544, 479.406 415.943 M 702.783 424.750 C 706.510 429.486, 709.051 434.541, 712.404 443.883 C 715.876 453.560, 718.358 457, 721.868 457 C 731.817 457, 727.301 445.177, 711.750 430.507 C 701.240 420.593, 697.746 418.349, 702.783 424.750 M 688.121 444.188 C 687.794 451.348, 685.600 460.269, 682.049 468.881 C 678.803 476.753, 679.748 477.850, 684.236 471.420 C 687.940 466.114, 691.003 456.006, 690.986 449.145 C 690.962 438.999, 688.548 434.824, 688.121 444.188 M 491 459.817 C 484.024 462.151, 479.721 464.371, 473.750 468.715 C 467.881 472.984, 467.488 471.116, 473.061 465.438 L 477.121 461.301 471.394 460.150 C 455.376 456.933, 442.435 462.339, 434.962 475.369 C 431.881 480.740, 431.469 482.614, 432.880 484.840 C 433.542 485.885, 434.323 485.586, 436.424 483.485 C 438.646 481.263, 439.678 480.906, 442.309 481.452 C 444.064 481.815, 450 482.098, 455.500 482.079 C 462.938 482.054, 466.313 482.471, 468.672 483.708 C 471.444 485.161, 472.355 485.203, 475.877 484.041 C 480.610 482.479, 483.968 484.021, 486.846 489.079 C 488.995 492.857, 488.929 492.885, 492.919 486.530 C 497.896 478.603, 499.831 478.344, 504.165 485.028 C 505.581 487.212, 507.292 491.137, 507.968 493.750 C 508.643 496.362, 509.383 499.117, 509.613 499.872 C 510.182 501.742, 515.439 500.631, 519.741 497.732 C 525.332 493.965, 528.296 486.484, 528.249 476.258 C 528.203 466.394, 528.353 466.610, 518.249 461.792 C 510.046 457.879, 499.150 457.090, 491 459.817 M 392.770 476.637 C 389.059 487.628, 388.693 490.206, 389.973 496.369 C 391.438 503.429, 395.792 508.423, 402.750 511.027 C 409.217 513.447, 409.493 512.446, 403.418 508.607 C 394.013 502.666, 391.526 494.631, 394.482 479.736 C 396.760 468.255, 396.040 466.952, 392.770 476.637 M 327.201 477.058 C 303.886 488.708, 297.529 521.625, 312.433 553.520 C 314.895 558.787, 318.334 564.896, 320.075 567.095 C 324.863 573.140, 322.641 573.107, 316.952 567.048 C 314.200 564.116, 311.794 561.894, 311.606 562.109 C 310.426 563.455, 300.701 587.222, 298.570 593.967 C 295.666 603.160, 295.325 605.804, 297.250 604.209 C 298.237 603.391, 298.511 605.624, 298.552 614.836 C 298.610 627.759, 302.602 645.298, 303.938 638.500 C 304.527 635.507, 304.532 635.511, 306.345 640.246 C 308.415 645.652, 316.728 658.752, 319.515 661 C 321.227 662.381, 321.311 662.341, 320.574 660.500 C 318.288 654.791, 318.749 654.567, 323.588 659.032 C 333.439 668.120, 337.777 669.576, 354.539 669.412 C 364.819 669.311, 375.369 666.601, 383.522 661.968 C 391.727 657.305, 392.610 655.834, 394.340 643.944 C 395.702 634.584, 396.932 629.746, 399.477 623.739 C 400.051 622.384, 399.852 622.120, 398.615 622.594 C 394.117 624.320, 403.222 603.370, 412.376 590.931 C 418.472 582.648, 418.770 583.594, 408.940 580.020 C 405.882 578.908, 400.791 576.439, 397.627 574.534 L 391.874 571.070 390.540 574.242 C 389.038 577.815, 389.254 578.635, 394.554 589.500 C 398.124 596.817, 400.293 605.917, 398.152 604.594 C 397.519 604.202, 396.990 602.896, 396.978 601.691 C 396.956 599.536, 393.512 591, 392.664 591 C 392.425 591, 392.462 593.882, 392.744 597.404 C 393.287 604.160, 392.414 611.374, 391.149 610.592 C 390.736 610.337, 390.302 608.187, 390.183 605.814 C 389.934 600.830, 389.466 598.063, 387.300 588.750 C 385.533 581.154, 385.797 581.432, 382.434 583.635 C 378.918 585.939, 378.645 584.987, 381.580 580.668 C 388.974 569.786, 388.360 558.718, 379.796 548.500 C 376.194 544.203, 373.828 539.211, 374.195 536.682 C 374.483 534.694, 374.687 534.792, 376.488 537.779 C 379.121 542.145, 380.845 541.553, 384.200 535.132 C 388.926 526.084, 387.739 516.783, 381.055 510.500 C 378.071 507.695, 377.363 507.502, 370.182 507.535 C 358.361 507.588, 349.158 513.412, 342.579 525 C 339.555 530.327, 339.028 527.722, 341.872 521.500 C 346.258 511.901, 357.574 504.431, 369.402 503.327 C 376.741 502.642, 376.973 502.277, 373.725 496.542 C 363.856 479.117, 334.929 485.095, 324.334 506.750 C 321.249 513.056, 320.472 513.073, 322.362 506.794 C 326.011 494.669, 338.801 483.758, 351.068 482.305 C 356.448 481.668, 356.912 481.135, 354.213 478.693 C 348.061 473.125, 336.473 472.424, 327.201 477.058 M 423.630 482.442 C 422.051 484.851, 418.902 495.128, 419.528 495.827 C 419.967 496.317, 431.991 492.823, 432.457 492.070 C 432.820 491.482, 427.833 482.651, 426.035 480.699 C 425.629 480.258, 424.547 481.043, 423.630 482.442 M 437.612 487.049 C 434.092 491.232, 434.362 491.354, 443.925 489.890 C 453.767 488.383, 465.709 489.677, 478.104 493.593 C 487.509 496.564, 488.244 496.319, 484.534 491.455 C 481.078 486.925, 479.789 486.447, 474.943 487.899 C 471.664 488.881, 470.517 488.801, 467.812 487.403 C 465.528 486.221, 461.660 485.680, 454.544 485.547 C 449.020 485.443, 443.556 485.018, 442.403 484.602 C 440.764 484.012, 439.719 484.545, 437.612 487.049 M 493.779 490.994 L 489.269 497.929 493.885 499.381 C 503.117 502.287, 506 502.385, 505.999 499.795 C 505.998 497.290, 500.785 485.603, 499.243 484.650 C 498.718 484.326, 496.259 487.180, 493.779 490.994 M 547.500 488.810 C 540.705 491.992, 540.074 493.678, 545.176 495.023 C 557.021 498.147, 568.280 508.635, 571.589 519.629 C 573.369 525.542, 572.046 525.079, 569.070 518.747 C 558.610 496.485, 525.615 491.225, 516.893 510.429 C 514.233 516.286, 514.424 516.661, 520.384 517.276 C 530.968 518.368, 541.615 525.201, 546.383 533.962 C 549.633 539.934, 549.323 541.877, 545.983 536.472 C 538.571 524.480, 518.019 517.143, 508.952 523.253 C 498.676 530.179, 498.744 548.674, 509.082 558.578 C 512.596 561.946, 513.148 561.512, 513.785 554.883 C 514.257 549.973, 514.345 549.838, 515.605 552.111 C 517.703 555.896, 517.252 559.397, 513.397 569.263 C 507.176 585.184, 510.186 595.229, 524.103 604.991 C 530.733 609.642, 531.234 610.960, 525.455 608.545 C 523.386 607.681, 521.481 607.186, 521.221 607.446 C 520.566 608.101, 523.866 626.040, 526.179 634.397 C 533.297 660.113, 545.257 677.107, 562.682 686.264 C 570.165 690.196, 587.848 696.389, 594.500 697.408 L 598.500 698.020 595.750 696.478 C 592.724 694.781, 591.901 692.334, 594.750 693.505 C 595.712 693.900, 601.900 694.394, 608.500 694.602 C 620.180 694.971, 620.359 694.945, 615.220 693.627 C 607.842 691.735, 607.889 691.278, 615.547 690.458 C 623.792 689.575, 633.273 685.036, 640.928 678.306 C 646.271 673.608, 646.740 673.769, 644.416 679.500 C 643.967 680.608, 644.941 679.939, 646.600 678 C 661.946 660.066, 669.882 640.805, 670.911 619 C 671.496 606.582, 671.511 606.520, 673.210 609.500 C 676.049 614.481, 675.434 609.525, 671.954 599.380 C 670.279 594.496, 668.633 589.600, 668.297 588.500 L 667.686 586.500 669.976 588.500 L 672.266 590.500 671.523 588 C 670.205 583.564, 663.366 569.574, 661.283 567.052 L 659.261 564.605 650.381 567.284 C 638.305 570.927, 633.363 571.947, 627.633 571.976 C 623.192 571.998, 622.814 571.818, 623.310 569.921 C 623.670 568.547, 623.455 568.025, 622.677 568.381 C 622.030 568.678, 617.370 570.579, 612.323 572.607 L 603.146 576.293 604.790 578.802 C 607.682 583.215, 620.719 593.599, 624.966 594.872 C 629.166 596.130, 635.310 600.842, 637.092 604.171 C 637.761 605.422, 636.530 604.865, 633.477 602.534 C 627.302 597.821, 625.291 597.866, 628.535 602.647 C 630.987 606.260, 634.050 614.911, 633.946 617.932 C 633.917 618.794, 632.488 616.590, 630.772 613.034 C 627.580 606.420, 623.447 601.866, 608.592 588.594 C 604.340 584.795, 599.622 579.516, 598.107 576.863 L 595.352 572.039 593.589 575.735 C 591.692 579.715, 585.999 587.333, 585.384 586.717 C 585.177 586.511, 586.586 583.227, 588.514 579.421 C 601.699 553.392, 598.125 515.030, 580.912 497.817 C 571.531 488.435, 556.786 484.461, 547.500 488.810 M 391.853 523.096 C 392.326 529.927, 390.439 536.158, 386.528 540.684 L 383.302 544.415 386.487 548.958 C 390.168 554.208, 391.911 558.291, 392.235 562.419 C 392.497 565.762, 396.599 568.772, 408.854 574.618 C 417.347 578.669, 417.917 578.598, 414.377 573.928 C 411.317 569.893, 406.996 560.680, 407.009 558.221 C 407.015 557.275, 408.317 558.763, 409.903 561.529 C 413.677 568.109, 424.744 578.418, 433.756 583.750 C 442.666 589.022, 443.168 589.035, 438.504 583.872 C 434.562 579.509, 430.588 571.724, 431.271 569.703 C 431.495 569.041, 432.386 569.864, 433.251 571.531 C 435.064 575.022, 441.858 581.548, 450.500 588.099 C 458.968 594.518, 459.177 594.569, 456.359 589.526 C 453.259 583.979, 453.725 581.356, 456.972 586.076 C 458.267 587.959, 461.555 592.111, 464.278 595.302 C 469.307 601.197, 469.989 603.506, 465.842 600.602 C 464.584 599.721, 462.643 598.982, 461.527 598.960 C 460.412 598.938, 457.025 597.589, 454 595.961 C 450.975 594.332, 447.504 593, 446.287 593 C 443.254 593, 435.222 589.734, 429.312 586.097 C 426.364 584.283, 423.630 583.293, 422.455 583.613 C 420.593 584.120, 401.513 614.847, 402.467 615.801 C 402.697 616.030, 404.261 615.238, 405.942 614.041 C 409.724 611.348, 409.743 611.110, 405.419 620.468 C 401.503 628.944, 399.011 636.382, 399.041 639.500 C 399.059 641.338, 399.144 641.358, 400.080 639.750 C 402.269 635.992, 402.865 638.268, 400.958 643.106 C 399.852 645.914, 397.547 653.896, 395.838 660.843 C 394.128 667.791, 389.401 682.435, 385.332 693.386 C 377.717 713.882, 370.929 736.012, 369.065 746.419 C 367.972 752.523, 368.366 755.461, 369.594 750.368 C 370.463 746.769, 374.978 737.645, 375.589 738.256 C 375.840 738.506, 375.366 741.588, 374.537 745.105 C 371.480 758.072, 373.164 784.854, 377.987 800 L 379.739 805.500 379.387 797.500 C 379.086 790.648, 379.188 790.002, 380.100 793 C 385.480 810.680, 394.267 824.561, 407.399 836.120 L 411.847 840.035 416.174 837.162 C 422.510 832.953, 429.343 830.950, 439.579 830.302 L 448.657 829.727 448.631 810.613 C 448.600 788.996, 449.355 783.852, 455.071 766.728 C 457.232 760.254, 459 753.227, 459 751.113 C 459 741.609, 469.029 728.160, 480.376 722.446 C 483.194 721.027, 487.833 718.394, 490.684 716.595 C 503.778 708.334, 528.731 704.752, 546.229 708.622 L 548.957 709.225 546.466 701.900 C 545.096 697.872, 544.134 694.109, 544.330 693.538 C 544.808 692.137, 548.388 699.405, 550.027 705.106 C 551.292 709.504, 551.580 709.770, 556.426 711.003 C 564.562 713.073, 579.584 719.538, 587.336 724.306 C 591.863 727.090, 596.644 729.126, 600.326 729.838 C 605.674 730.871, 614.716 734.986, 619.427 738.530 C 623.035 741.244, 620.315 741.042, 613.899 738.119 C 610.380 736.516, 606.150 734.927, 604.500 734.588 C 601.637 734, 601.724 734.165, 606.393 738.211 C 610.750 741.985, 624.447 758.886, 623.730 759.603 C 623.575 759.758, 618.876 755.454, 613.288 750.039 C 579.880 717.665, 532.321 704.309, 499.500 718.083 C 496.599 719.300, 496.749 719.371, 504 720.217 C 513.362 721.310, 523.024 725.649, 528.189 731.078 C 533.523 736.685, 532.957 738.137, 527.426 733.038 C 504.449 711.859, 463.597 726.881, 463.620 756.500 C 463.635 776.257, 483.111 789.953, 509.500 788.764 C 518.931 788.340, 519.302 788.396, 516.021 789.754 C 509.341 792.517, 489.860 791.125, 481.777 787.306 C 473.910 783.590, 465.979 776.557, 463.106 770.749 C 461.524 767.552, 460.930 767.019, 460.423 768.339 C 459.528 770.673, 461.530 775.317, 466.743 783 L 471.154 789.500 466.079 784.183 C 463.288 781.258, 460.730 777.770, 460.394 776.433 C 459.385 772.414, 458.454 773.621, 456.679 781.250 C 454.392 791.082, 453.038 805.120, 453.017 819.231 C 452.998 832.535, 451.700 830.823, 463.500 833.057 C 471.565 834.584, 482.147 839.095, 489.750 844.248 C 498.412 850.119, 497.572 850.337, 486.750 845.030 C 472.196 837.892, 461.466 835.500, 444 835.500 C 430.131 835.500, 429.251 835.622, 423.776 838.310 C 411.598 844.289, 403.942 859.066, 404.024 876.434 C 404.076 887.415, 406.492 892.362, 414.435 897.750 C 420.859 902.107, 422.026 902.017, 420.919 897.250 C 417.414 882.158, 423.653 861.087, 434.586 851.095 C 441.668 844.623, 443.705 844.469, 437.730 850.858 C 432.162 856.810, 429.624 861.650, 427.074 871.177 C 423.062 886.166, 423.536 898.336, 428.306 902.817 C 433.715 907.900, 447.556 911.661, 456.663 910.523 L 461.909 909.867 461.909 900.503 C 461.909 885.028, 466.259 872.613, 474.191 865.446 C 479.458 860.688, 481.034 861.113, 476.546 866.080 C 470.128 873.185, 466 886.627, 466 900.424 C 466 909.369, 466.770 910.181, 477 912.030 C 495.661 915.403, 531.715 905.678, 544.608 893.794 C 550.668 888.208, 553.921 880.778, 559.890 858.883 C 562.682 848.643, 565.395 839.193, 565.920 837.883 L 566.873 835.500 566.917 838 C 566.940 839.375, 566.539 843.408, 566.026 846.963 C 565.512 850.517, 565.256 853.589, 565.457 853.790 C 565.657 853.991, 567.750 851.420, 570.108 848.078 C 572.465 844.735, 574.792 842, 575.278 842 C 576.195 842, 574.434 845.222, 567.894 855.515 C 565.456 859.352, 563.522 864.059, 562.555 868.515 C 561.721 872.357, 560.734 876.586, 560.360 877.913 L 559.682 880.325 574.091 879.679 C 627.132 877.300, 657.093 859.556, 673.136 821.019 C 678.614 807.861, 680.406 796.921, 680.456 776.333 C 680.480 766.341, 680.576 758.243, 680.670 758.336 C 680.763 758.430, 681.751 760.755, 682.865 763.503 C 687.033 773.783, 684.217 758.847, 677.896 737.144 C 674.477 725.407, 674.630 723.806, 678.533 730.467 C 680.024 733.010, 681.443 734.890, 681.688 734.645 C 681.933 734.400, 679.418 725.942, 676.098 715.850 C 669.516 695.838, 665.242 679.283, 664.180 669.687 L 663.500 663.541 658.794 670.139 C 652.642 678.762, 644.298 686.311, 641.675 685.625 C 640.510 685.321, 638.437 686.091, 636.554 687.527 C 634.814 688.854, 631.325 690.853, 628.802 691.969 C 626.279 693.086, 623.980 694.611, 623.692 695.359 C 623.014 697.126, 615.481 699, 609.057 699 C 606.276 699, 604 699.450, 604 700 C 604 700.552, 601.395 701, 598.184 701 C 582.054 701, 562.795 694.292, 549.108 683.907 C 545.580 681.230, 543.986 680.452, 544.498 681.658 C 548.827 691.848, 551.664 702.135, 549.005 698 C 548.474 697.175, 546.392 692.225, 544.377 687 C 542.363 681.775, 538.332 673.892, 535.420 669.483 C 529.619 660.699, 524.870 650.802, 522.431 642.412 C 521.118 637.894, 519.461 635.575, 512.397 628.366 C 507.743 623.617, 504.154 619.512, 504.422 619.245 C 505.152 618.515, 512.471 624.572, 516.594 629.319 C 518.810 631.869, 519.998 632.720, 519.641 631.500 C 519.122 629.726, 517.269 618.975, 515.505 607.500 C 515.081 604.738, 513.655 602.181, 510.900 599.240 L 506.910 594.981 499.017 596.996 C 494.676 598.104, 488.396 599.384, 485.062 599.840 C 479.077 600.658, 479 600.638, 479 598.231 L 479 595.793 475.465 598.896 C 473.521 600.603, 471.496 602, 470.965 602 C 465.952 602, 482.884 585.596, 490 583.558 C 491.923 583.007, 491.231 584.004, 487 587.878 C 480.275 594.035, 480.798 594.158, 490.993 588.821 C 500.687 583.746, 502.361 584.322, 494.139 589.906 C 487.944 594.112, 485.160 596.920, 488.427 595.667 C 489.392 595.296, 493.433 593.992, 497.406 592.767 L 504.632 590.541 504.644 583.021 C 504.653 577.461, 505.228 574.215, 506.851 570.571 L 509.046 565.642 506.122 562.571 C 501.757 557.985, 498.128 552.187, 496.999 547.998 L 495.995 544.269 491.748 545.251 C 473.924 549.372, 442.849 545.730, 430.838 538.112 C 428.390 536.560, 424.107 534.532, 421.322 533.607 C 418.536 532.682, 413.612 530.324, 410.379 528.367 C 405.669 525.517, 399.547 522.149, 392 518.256 C 391.725 518.115, 391.659 520.292, 391.853 523.096 M 448.337 611.459 C 438.332 618.197, 427.899 634.890, 435.500 632 C 438.494 630.862, 438.523 631.038, 436.135 635.790 C 433.810 640.415, 432.518 647, 433.936 647 C 434.500 647, 435.260 645.763, 435.624 644.250 C 436.891 638.987, 441.307 631.488, 445.390 627.664 C 450.102 623.253, 447.516 623.239, 441.018 627.641 C 436.372 630.788, 435.630 630.616, 437.581 626.843 C 439.968 622.228, 447.785 614.210, 452.716 611.321 C 455.072 609.940, 457 608.628, 457 608.405 C 457 606.999, 452.720 608.507, 448.337 611.459 M 481 610.121 C 482.375 610.755, 485.750 612.322, 488.500 613.603 C 491.250 614.884, 496.558 618.702, 500.296 622.087 C 508.758 629.751, 510.334 629.147, 502.373 621.289 C 495.778 614.779, 488.458 610.462, 482.500 609.568 C 478.926 609.032, 478.766 609.091, 481 610.121 M 433.237 613.112 C 427.673 616.356, 422 621.448, 422 623.199 C 422 624.295, 423.626 623.262, 428 619.384 C 429.375 618.165, 432.965 615.555, 435.977 613.584 C 442.656 609.214, 440.547 608.851, 433.237 613.112 M 420.932 618.828 C 415.270 622.419, 407.990 630.637, 408.032 633.391 C 408.060 635.267, 408.298 635.168, 410.186 632.500 C 411.353 630.850, 415.444 626.462, 419.276 622.750 C 423.108 619.038, 426.052 616, 425.817 616 C 425.583 616, 423.385 617.273, 420.932 618.828 M 444.553 640.120 C 441.318 643.964, 438.762 648.786, 439.224 650.173 C 439.415 650.744, 441 649.026, 442.748 646.355 C 444.495 643.685, 446.672 640.487, 447.585 639.250 C 450.108 635.829, 447.545 636.564, 444.553 640.120 M 816.184 644.639 C 811.081 648.592, 804.297 650.690, 794 651.500 C 783.369 652.337, 773.971 654.031, 770.657 655.709 C 766.308 657.910, 766.265 656.429, 770.561 652.377 C 773.886 649.242, 774.083 648.837, 771.965 649.496 C 763.925 651.997, 751.705 664.428, 748.866 672.994 C 748.300 674.703, 748.124 673.354, 748.315 668.753 C 748.628 661.202, 747.973 661.139, 745.706 668.500 C 741.913 680.816, 742.412 688, 747.060 688 C 750.653 688, 755 693.338, 755 697.750 C 755 705.951, 782.577 707.358, 797.190 699.903 C 801.990 697.454, 802.005 696.977, 797.250 698.081 C 791.527 699.410, 780.744 699.185, 784 697.805 C 798.982 691.453, 807.487 684.545, 814.465 673.058 C 818.949 665.677, 818.791 665.222, 813.076 669.060 C 807.206 673.003, 806.231 672.763, 809.785 668.250 C 814.903 661.752, 822.652 643.027, 820.830 641.561 C 820.649 641.415, 818.558 642.801, 816.184 644.639 M 449.015 649.691 C 449.024 652.336, 449.458 655.175, 449.980 656 C 450.639 657.042, 450.908 655.742, 450.861 651.745 C 450.824 648.580, 450.390 645.741, 449.897 645.436 C 449.403 645.131, 449.007 647.046, 449.015 649.691 M 743.340 693.750 C 732.552 705.321, 729.598 714.932, 728.050 743.500 C 727.013 762.625, 725.423 768.907, 719.390 777.703 C 713.164 786.779, 701.234 794.684, 690.183 797.054 L 685.243 798.114 684.571 803.178 C 684.201 805.963, 682.815 811.656, 681.490 815.828 C 680.165 820, 679.175 823.503, 679.290 823.611 C 680.003 824.281, 696.740 817.758, 702.330 814.632 C 728.061 800.243, 737.884 781.071, 737.965 745.082 C 738.018 721.653, 740.094 712.862, 748.070 702.293 C 752.625 696.258, 752.660 696.086, 749.961 693.189 C 747.320 690.354, 746.437 690.428, 743.340 693.750 M 348.500 705.381 C 352.802 706.813, 352.571 707.016, 344.500 708.884 C 335.905 710.873, 325.741 716.539, 318.135 723.582 C 311.164 730.035, 308.996 733.143, 312.934 731.035 C 316.505 729.124, 316.957 729.974, 314.376 733.750 C 307.635 743.611, 301.096 760.561, 303.240 762.616 C 303.933 763.281, 307.776 766.482, 311.780 769.729 C 319.328 775.851, 325.765 783.537, 329.158 790.479 L 331.124 794.500 327.404 790 C 320.625 781.799, 309.373 771.553, 302.892 767.679 C 297.095 764.214, 296.007 763.905, 291.203 764.362 C 281.933 765.243, 271.881 773.364, 270.301 781.250 C 269.603 784.735, 268 784.841, 268 781.401 C 268 775.360, 275.079 766.210, 282.231 763.008 C 285.831 761.396, 285.950 761.219, 283.812 760.646 C 266.136 755.913, 246.185 770.338, 245.980 788 L 245.916 793.500 244.111 790.112 L 242.305 786.723 241.653 789.987 C 240.259 796.954, 240.737 799.104, 243.524 798.405 C 248.705 797.104, 257.333 810.485, 253.945 814.566 C 252.992 815.715, 251.621 816.038, 249.296 815.661 C 245.103 814.980, 245.108 815.013, 250.655 824.521 C 268.345 854.845, 293.113 876.537, 309.500 876.057 C 311.700 875.993, 314.625 875.907, 316 875.867 C 326.127 875.569, 339.454 866.895, 346.961 855.716 C 352.073 848.102, 353.347 848.897, 349.602 857.365 C 348.232 860.464, 347.368 863, 347.683 863 C 347.997 863, 355.060 859.232, 363.378 854.627 C 383.926 843.249, 384.380 843.068, 378.500 848.591 C 375.550 851.362, 374.320 853.039, 375.500 852.680 C 380.923 851.034, 387.599 849.995, 395.517 849.563 C 408.586 848.851, 410.965 846.051, 403.644 840 C 397.078 834.573, 390.349 826.189, 386.315 818.409 C 384.293 814.509, 381.707 810.909, 380.569 810.409 C 375.130 808.019, 369.003 789.263, 368.236 772.655 C 367.950 766.466, 367.386 762.375, 366.922 763.126 C 365.244 765.841, 364.503 762.507, 364.593 752.657 C 364.694 741.649, 366.412 732.226, 371.229 716.244 C 372.930 710.603, 373.987 705.653, 373.579 705.244 C 373.170 704.835, 366.461 704.398, 358.668 704.274 C 345.703 704.068, 344.840 704.161, 348.500 705.381 M 516 718.406 C 516 718.629, 518.893 720.165, 522.430 721.820 C 525.966 723.475, 530.916 726.725, 533.430 729.042 C 535.943 731.359, 538 732.809, 538 732.264 C 538 730.001, 528.104 722.183, 522.662 720.146 C 516.691 717.912, 516 717.732, 516 718.406 M 543.950 730.045 C 546.725 732.820, 549.705 736.462, 550.572 738.138 C 551.438 739.814, 552.394 740.939, 552.695 740.638 C 553.649 739.684, 548.221 731.401, 544.503 728.137 C 538.809 723.138, 538.412 724.507, 543.950 730.045 M 556 758.223 C 556 761.711, 555.362 767.024, 554.582 770.030 C 553.354 774.767, 553.355 775.235, 554.591 773.544 C 557.672 769.331, 559.427 754, 557 752.500 C 556.373 752.113, 556 754.250, 556 758.223 M 543.015 757.712 C 542.996 764.453, 539.922 772.563, 535.373 777.877 C 530.705 783.330, 531.784 784.458, 536.822 779.392 C 543.077 773.103, 547.115 758.820, 544 754 C 543.306 752.925, 543.026 753.978, 543.015 757.712 M 210.456 761.071 C 208.824 763.712, 212.526 777.169, 219.992 795.726 L 223.703 804.952 217.247 798.912 C 208.956 791.156, 202.674 787.897, 200.400 790.172 C 198.241 792.330, 199.844 795.297, 211.147 810.072 C 216.016 816.436, 220 821.956, 220 822.339 C 220 822.721, 217.787 821.912, 215.083 820.542 C 202.270 814.049, 194.690 817.488, 203.863 825.631 C 208.207 829.488, 221.089 838.245, 221.626 837.707 C 221.901 837.432, 218.385 834.285, 213.813 830.713 C 204.748 823.631, 201.357 820.309, 202.265 819.401 C 203.469 818.198, 213.809 822.077, 219.911 826.021 C 223.386 828.267, 226.454 829.880, 226.729 829.605 C 227.537 828.797, 223.291 822.395, 212.308 807.859 C 206.638 800.356, 202 793.465, 202 792.545 C 202 788.315, 216.609 800.270, 224.964 811.336 C 227.338 814.481, 229.478 816.856, 229.719 816.615 C 230.200 816.133, 227.574 808.683, 220.592 790.723 C 215.125 776.660, 211.633 763.967, 212.888 762.712 C 215.022 760.578, 225.872 781.054, 230.062 795.121 C 232.570 803.543, 234.545 806.684, 233.443 800.500 C 229.758 779.808, 214.767 754.095, 210.456 761.071 M 821 763.089 C 809.442 770.057, 797.601 786.771, 791.469 804.774 C 789.646 810.123, 787.943 813.825, 787.684 813 C 787.425 812.175, 786.458 808.529, 785.535 804.898 C 781.865 790.450, 775.060 785.990, 775.013 798 C 774.987 804.382, 778.088 827.313, 779.129 828.450 C 780.257 829.681, 780.236 825.699, 779.059 815 C 777.271 798.749, 777.024 794, 777.969 794 C 780.282 794, 784.805 808.758, 786.550 822 C 787.367 828.194, 787.721 827.691, 790.387 816.549 C 794.281 800.277, 804.813 781.251, 815.647 770.918 C 829.512 757.696, 829.312 760.923, 814.807 784.500 C 808.183 795.266, 799.764 811.791, 800.214 813.141 C 800.391 813.672, 802.673 811.195, 805.286 807.637 C 812.231 798.178, 825.769 786.436, 827.609 788.275 C 827.841 788.508, 824.443 793.604, 820.058 799.599 C 811.391 811.446, 805 821.699, 805 823.753 C 805 824.467, 807.990 822.515, 811.644 819.415 C 820.929 811.538, 834 805.557, 834 809.185 C 834 809.837, 830.109 814.346, 825.354 819.205 C 820.599 824.065, 816.980 828.314, 817.313 828.647 C 818.211 829.544, 832.636 816.326, 835.086 812.361 C 840.203 804.082, 828.365 803.907, 816.870 812.093 C 811.818 815.690, 812.621 813.652, 820.346 803.272 C 824.431 797.783, 828.274 792.356, 828.887 791.212 C 832.955 783.610, 825.374 784.489, 815.105 792.810 C 811.467 795.758, 810.973 795.952, 812.237 793.935 C 829.151 766.935, 832.154 756.365, 821 763.089 M 250.479 785.430 C 247.181 788.728, 247.319 792.535, 250.943 798.249 C 259.189 811.251, 271.465 806.269, 265.110 792.500 C 261.362 784.379, 254.733 781.176, 250.479 785.430 M 540.381 786.811 C 531.258 795.069, 520.192 798.961, 505.540 799.063 C 498.384 799.114, 497.021 799.339, 499 800.147 C 504.347 802.329, 520.896 800.731, 528.123 797.336 C 534.687 794.252, 542.194 788.374, 544.088 784.836 C 545.415 782.356, 545.141 782.502, 540.381 786.811 M 272.200 786.200 C 268.938 789.462, 271.560 798.769, 277.041 803.381 C 282.766 808.199, 288 806.469, 288 799.760 C 288 790.021, 277.441 780.959, 272.200 786.200 M 252.035 787.934 C 249.990 791.756, 252.616 798.185, 257.420 801.114 C 261.246 803.447, 261.689 803.449, 262.924 801.143 C 264.491 798.214, 262.384 792.544, 258.441 789.082 C 254.339 785.481, 253.435 785.319, 252.035 787.934 M 274 791.965 C 274 798.359, 282.046 805.970, 284.540 801.935 C 286.757 798.348, 280.488 788, 276.099 788 C 274.320 788, 274 788.604, 274 791.965 M 464 791.070 C 464 793.025, 473.763 801.846, 478.691 804.343 C 485.166 807.624, 494.572 810.018, 500.644 809.929 C 505.020 809.865, 504.560 809.661, 496 807.867 C 484.265 805.407, 475.879 801.375, 469.154 794.961 C 466.319 792.257, 464 790.506, 464 791.070 M 295.036 799.409 C 295.016 799.909, 297.743 804.552, 301.096 809.728 C 316.767 833.919, 324.221 859.966, 318.585 870.843 C 316.315 875.223, 317.326 876.156, 319.848 872.009 C 326.734 860.687, 320.524 834.894, 305.548 812.611 C 299.413 803.482, 295.090 798.053, 295.036 799.409 M 243 802.566 C 243 806.034, 248.196 813, 250.783 813 C 252.796 813, 251.528 808.399, 248.371 804.250 C 245.754 800.811, 243 799.947, 243 802.566 M 266.892 812.808 C 253.946 824.384, 276.865 863, 296.681 863 C 312.866 863, 310.518 839.494, 292.530 821.446 C 281.401 810.280, 272.916 807.421, 266.892 812.808 M 267.966 815.750 C 262.859 822.196, 268.344 838.563, 279.233 849.371 C 296.956 866.963, 310.656 860.225, 300.552 838.885 C 296.040 829.354, 284.901 817.621, 277.282 814.372 C 272.555 812.356, 270.403 812.675, 267.966 815.750 M 474 833.374 C 474 833.630, 476.363 834.607, 479.250 835.546 C 482.137 836.485, 488.508 839.225, 493.406 841.637 C 504.182 846.941, 505.681 846.680, 496.327 841.130 C 487.983 836.179, 474 831.322, 474 833.374 M 707 844.994 C 645.429 871.390, 629.369 878.875, 628.294 881.677 C 627.357 884.119, 629.761 945.161, 630.837 946.237 C 632.486 947.886, 683.507 962, 687.817 962 C 688.892 962, 693.345 959.413, 697.712 956.250 C 702.079 953.087, 714.235 944.322, 724.725 936.771 L 743.797 923.042 754.148 924.398 C 759.842 925.144, 764.950 925.523, 765.500 925.241 C 766.050 924.958, 775.388 919.118, 786.250 912.263 C 809.187 897.787, 807.383 901.240, 803.012 880.182 C 798.729 859.553, 798.161 857.960, 794.552 856.486 C 790.389 854.786, 721.469 842.992, 715.936 843.033 C 713.496 843.051, 709.475 843.933, 707 844.994 M 697 853.865 C 687.375 858.154, 671.175 865.397, 661 869.960 C 650.825 874.523, 640.925 878.938, 639 879.772 L 635.500 881.287 647.500 883.514 C 654.100 884.739, 665.272 887.149, 672.327 888.870 C 687.900 892.670, 687.178 892.661, 692.320 889.128 C 699.476 884.210, 711.849 877.076, 729 867.977 C 757.608 852.801, 756.564 853.579, 749.750 852.507 C 747.413 852.140, 739.650 850.732, 732.500 849.378 C 725.350 848.025, 718.375 846.726, 717 846.493 C 715.360 846.214, 708.479 848.750, 697 853.865 M 716 851.347 C 698.570 860.220, 658.821 884, 661.419 884 C 661.912 884, 668.433 880.463, 675.908 876.139 C 683.384 871.816, 696.700 864.122, 705.500 859.042 C 719.937 850.708, 724.281 847.963, 722.950 848.019 C 722.702 848.029, 719.575 849.527, 716 851.347 M 724.270 855.615 C 712.749 862.171, 708.746 867.835, 716.071 867.217 C 720.621 866.834, 743.994 853.661, 742.599 852.266 C 742.333 852, 740.701 852.789, 738.973 854.019 C 734.605 857.129, 717.176 866, 715.433 866 C 711.564 866, 713.506 864.381, 730.655 853.309 C 734.864 850.592, 730.030 852.337, 724.270 855.615 M 751 857.458 C 748.525 859.357, 743.237 862.840, 739.250 865.199 C 732.057 869.454, 732 869.521, 732 873.744 C 732 876.085, 732.258 878, 732.573 878 C 732.888 878, 739.525 874.017, 747.323 869.150 C 755.120 864.282, 763.014 859.519, 764.865 858.565 C 769.120 856.371, 768.014 855.223, 760.987 854.539 C 755.882 854.042, 755.186 854.245, 751 857.458 M 762.087 861.910 C 757.263 864.985, 748.759 870.200, 743.189 873.500 L 733.063 879.500 733.032 887.365 L 733 895.230 735.250 893.777 C 739.264 891.184, 784.365 865.355, 789 862.995 C 792.936 860.990, 793.249 860.605, 791.500 859.922 C 788.097 858.593, 784.921 858.920, 782.154 860.885 C 780.694 861.922, 773.200 866.024, 765.500 870 C 757.800 873.977, 748.125 879.047, 744 881.267 C 739.875 883.487, 737.175 884.606, 738 883.753 C 740.222 881.456, 759.693 870.505, 771.543 864.887 C 777.236 862.189, 782.132 859.595, 782.423 859.124 C 782.714 858.653, 780.231 857.830, 776.905 857.294 L 770.858 856.320 762.087 861.910 M 195.667 857.667 C 193.131 860.202, 198.308 880.751, 204.631 893.250 C 207.498 898.918, 207.360 898.968, 200.977 894.578 C 192.618 888.828, 184.929 887.360, 184.164 891.368 C 183.798 893.287, 193.574 903.601, 201.277 909.424 C 208.604 914.962, 205.911 911.194, 196.015 902.063 C 190.507 896.980, 186 892.412, 186 891.911 C 186 888.829, 195.024 892.831, 204.950 900.315 C 212.743 906.190, 214.182 906.734, 211.629 902.837 C 206.981 895.740, 197 867.043, 197 860.776 C 197 854.786, 206.476 868.877, 212.954 884.500 C 215.234 890, 217.825 896.075, 218.712 898 L 220.323 901.500 222.034 891.345 C 223.783 880.962, 226.712 873.106, 228.500 874 C 229.111 874.305, 229.408 879.757, 229.264 888 C 228.961 905.313, 231.060 903.485, 231.789 885.801 C 232.301 873.361, 231.101 869.257, 227.369 870.689 C 224.311 871.862, 220.078 883.763, 219.966 891.500 C 219.911 895.292, 219.739 895.059, 216.649 887 C 209.039 867.150, 199.508 853.826, 195.667 857.667 M 786 867.600 C 781.875 870.075, 768.263 877.756, 755.750 884.668 L 733 897.235 733.015 901.368 C 733.036 907.085, 734.283 908.941, 736.689 906.835 C 741.547 902.581, 771.505 884.600, 787.250 876.488 C 796.369 871.790, 797.516 870.113, 795.393 864.582 C 794.577 862.457, 794.568 862.460, 786 867.600 M 663.134 872.647 C 658.200 875.204, 652.889 878.392, 651.331 879.732 L 648.500 882.169 652 880.214 C 653.925 879.139, 659.100 876.342, 663.500 873.999 C 671.192 869.904, 674.128 868, 672.752 868 C 672.396 868, 668.068 870.091, 663.134 872.647 M 692.903 874.284 C 680.970 881.789, 676.377 885, 677.577 885 C 678.149 885, 681.291 883.364, 684.559 881.365 C 687.826 879.366, 693.097 876.158, 696.271 874.236 C 701.955 870.794, 703.990 869, 702.212 869 C 701.713 869, 697.524 871.378, 692.903 874.284 M 715 879.702 C 708.125 883.838, 699.455 888.819, 695.733 890.772 L 688.966 894.323 689.029 925.692 C 689.078 949.854, 689.369 956.898, 690.296 956.351 C 690.958 955.961, 696.337 952.041, 702.250 947.639 L 713 939.636 713.030 911.568 C 713.051 892.316, 713.376 884.040, 714.063 885.220 C 714.684 886.284, 714.958 896.681, 714.783 912.471 C 714.627 926.513, 714.646 938.001, 714.823 938.001 C 715.001 938, 718.767 935.413, 723.193 932.250 L 731.238 926.500 730.623 919.500 C 730.285 915.650, 729.710 903.388, 729.345 892.250 C 728.981 881.112, 728.416 872.041, 728.091 872.091 C 727.766 872.141, 721.875 875.566, 715 879.702 M 779.500 882.620 C 770.700 887.798, 756.862 895.958, 748.750 900.753 L 734 909.471 734 916.819 C 734 920.860, 734.337 924.016, 734.750 923.832 C 735.163 923.649, 738.865 921.273, 742.977 918.553 C 748.159 915.127, 751.593 913.554, 754.159 913.429 C 757.918 913.247, 771.666 906.432, 790.750 895.291 C 793.087 893.926, 795 893.061, 795 893.368 C 795 894.512, 783.110 901.919, 771.500 908.008 C 764.900 911.470, 759.339 914.432, 759.143 914.591 C 758.947 914.750, 760.097 916.282, 761.699 917.996 L 764.612 921.113 770.056 917.359 C 773.050 915.295, 781.125 910.066, 788 905.741 C 794.875 901.415, 800.855 897.527, 801.288 897.100 C 801.943 896.455, 800.758 889.667, 797.474 875.250 C 796.797 872.275, 797.738 871.889, 779.500 882.620 M 692.204 883.179 C 688.741 885.413, 686.097 887.430, 686.329 887.662 C 686.862 888.195, 698.698 881.297, 699.513 879.979 C 700.628 878.175, 698.546 879.086, 692.204 883.179 M 721.652 887.750 C 720.790 896.877, 721.010 917.909, 722 921 C 722.460 922.436, 722.843 914.457, 722.900 902.250 C 722.955 890.563, 722.840 881, 722.645 881 C 722.449 881, 722.002 884.038, 721.652 887.750 M 633.261 893.657 L 633.500 903.315 644 906.054 C 656.337 909.273, 678.157 915.824, 678.851 916.517 C 680.344 918.010, 668.030 915.007, 649.252 909.299 C 640.865 906.749, 633.872 904.852, 633.710 905.082 C 633.549 905.312, 633.661 910.894, 633.959 917.487 L 634.500 929.474 645 933.823 C 650.775 936.214, 661.350 940.152, 668.500 942.573 C 676.235 945.192, 680.312 946.979, 678.567 946.987 C 674.754 947.004, 654.147 939.975, 643.251 934.941 C 638.559 932.774, 634.537 931, 634.312 931 C 634.088 931, 634.039 933.773, 634.202 937.163 L 634.500 943.325 660.850 950.538 L 687.200 957.750 686.600 954.750 C 686.270 953.100, 686 946.415, 686 939.894 C 686 928.403, 685.931 928.024, 683.750 927.576 C 676.091 926.004, 643.776 917.804, 640.474 916.596 C 633.365 913.993, 638.563 914.909, 659.219 919.899 C 670.374 922.593, 680.962 925.103, 682.750 925.478 L 686 926.159 686 910.814 L 686 895.469 671.750 892.605 C 663.913 891.029, 652.185 888.448, 645.689 886.870 C 639.194 885.291, 633.686 884, 633.450 884 C 633.214 884, 633.129 888.346, 633.261 893.657 M 776.486 892.595 C 757.423 902.947, 755.913 905.142, 774.500 895.483 C 791.299 886.753, 794.218 885, 791.959 885 C 791.141 885, 784.179 888.418, 776.486 892.595 M 704.755 899.500 C 704.346 905, 704.071 917.600, 704.146 927.500 L 704.282 945.500 705.144 934.500 C 705.618 928.450, 705.892 915.850, 705.753 906.500 C 705.504 889.800, 705.487 889.676, 704.755 899.500 M 636 893.913 C 636 895.098, 674.741 905.592, 675.673 904.660 C 676.061 904.272, 662.292 900.180, 645.250 895.617 C 640.163 894.254, 636 893.488, 636 893.913 M 696.370 906 C 696.370 911.775, 696.535 914.138, 696.737 911.250 C 696.939 908.362, 696.939 903.638, 696.737 900.750 C 696.535 897.862, 696.370 900.225, 696.370 906 M 253.421 904.321 C 246.978 907.402, 243.608 911.400, 245.103 914.192 C 248.603 920.733, 275.884 922.025, 283.219 915.996 C 285.353 914.242, 285.403 913.947, 284 911.418 C 279.621 903.525, 263.102 899.691, 253.421 904.321 M 373.558 904.459 C 365.071 907.553, 361.590 912.600, 366.189 915.142 C 368.731 916.547, 384.797 916.978, 389.140 915.759 C 394.364 914.291, 393.612 909.739, 387.555 906.165 C 382.726 903.316, 378.207 902.765, 373.558 904.459 M 256.558 906.435 C 252.144 908.071, 247.864 910.984, 247.645 912.500 C 247.362 914.451, 254.637 915.886, 264.500 915.825 C 281.745 915.719, 284.715 913.759, 275.289 908.708 C 268.922 905.295, 261.923 904.446, 256.558 906.435 M 371.060 908.752 C 365.907 911.370, 366.223 912.628, 372.214 913.348 C 382.736 914.611, 390.745 913.713, 389.213 911.442 C 386.184 906.951, 377.218 905.622, 371.060 908.752 M 598.122 913.513 C 594.496 917.643, 592.370 921.555, 590.068 928.326 L 588.393 933.254 587.102 928.877 C 584.226 919.129, 580.391 914.932, 578.607 919.582 C 577.545 922.348, 577.983 933.295, 579.395 939.296 C 580.981 946.037, 582.598 948.373, 581.612 942.500 C 580.159 933.849, 579.684 921, 580.817 921 C 582.612 921, 583.807 924.142, 585.610 933.605 C 587.229 942.104, 589 946.703, 589 942.410 C 589 935.355, 595.866 918.354, 600.457 914.040 C 604.146 910.575, 603.791 912.806, 598.500 926.338 C 592.590 941.452, 592.739 942.467, 599.777 935.071 C 608.773 925.616, 610.438 926.670, 603.479 937.414 C 599.570 943.447, 597.369 948.285, 599.822 945.450 C 611.462 931.998, 613.039 921.394, 602.166 929.687 C 599.203 931.947, 598.767 932.066, 599.423 930.437 C 605.567 915.190, 606.502 910, 603.104 910 C 602.061 910, 599.819 911.581, 598.122 913.513 M 298.571 913.571 C 294.932 917.211, 297.923 919.448, 305.587 918.820 C 308.500 918.581, 309.576 918.012, 309.850 916.566 C 310.618 912.523, 301.928 910.215, 298.571 913.571 M 738.750 915.573 C 736.688 916.924, 735 918.284, 735 918.596 C 735 919.166, 741.676 915.408, 743.450 913.840 C 745.462 912.061, 742.376 913.199, 738.750 915.573 M 300.518 914.971 C 299.747 916.218, 304.460 917.421, 306.720 916.554 C 308.196 915.987, 308.233 915.759, 306.972 914.962 C 305.038 913.738, 301.276 913.744, 300.518 914.971 M 694.750 921.390 C 693.593 928.934, 693.796 945.604, 695.030 944.370 C 695.664 943.736, 695.953 938.178, 695.780 929.920 C 695.563 919.507, 695.332 917.595, 694.750 921.390 M 751.500 918.248 C 749.611 919.370, 749.666 919.473, 752.500 920.100 C 754.150 920.465, 756.625 920.807, 758 920.859 L 760.500 920.956 758 919 C 755.099 916.731, 754.226 916.630, 751.500 918.248 M 646.152 926.025 C 647.770 926.970, 668.580 933.103, 674.500 934.380 C 681.724 935.939, 673.351 932.765, 660.345 929.015 C 646.235 924.946, 643.214 924.310, 646.152 926.025 M 540.118 938.099 C 525.019 945.644, 529.212 952, 549.286 952 C 560.441 952, 569.378 950.064, 570.389 947.429 C 571.494 944.550, 568.214 940.285, 562.831 937.603 C 555.340 933.870, 548.272 934.024, 540.118 938.099 M 543.489 939.273 C 534.544 942.918, 531.799 946.658, 537.005 948.106 C 544.707 950.249, 568.599 948.316, 567.711 945.621 C 565.934 940.228, 550.849 936.275, 543.489 939.273" stroke="none" fill="#1a1a1a" fill-rule="evenodd"/>
</svg>