<svg xmlns="http://www.w3.org/2000/svg" width="1024" height="1024" viewBox="0 0 1024 1024" version="1.1">
	<path d="M 164 431.500 L 164 805 159.250 805 C 154.214 805.001, 48.621 801.345, 33.708 800.654 C 27.475 800.365, 25.024 800.574, 25.289 801.373 C 25.692 802.591, 25.405 802.577, 113 805.525 L 166.500 807.325 246 800.119 C 289.725 796.155, 331.125 792.321, 338 791.598 C 344.875 790.876, 350.642 790.400, 350.816 790.542 C 350.990 790.683, 351.548 795.231, 352.056 800.649 C 352.882 809.465, 354.321 818.602, 355.591 823.107 C 355.942 824.352, 354.854 824.963, 350.772 825.812 C 320.602 832.091, 79.249 885.341, 50.250 892.117 C 47.363 892.791, 45 893.716, 45 894.172 C 45 895.452, 44.544 895.540, 87.226 885.963 C 109.377 880.992, 133.575 875.612, 141 874.007 C 148.425 872.401, 182.175 864.964, 216 857.479 C 249.825 849.994, 288.975 841.377, 303 838.330 L 328.500 832.791 343.529 833.490 L 358.557 834.190 361.615 842.845 C 363.296 847.605, 364.993 852.221, 365.386 853.102 C 365.991 854.460, 364.993 854.806, 358.830 855.379 C 343.098 856.841, 333.044 864.852, 330.037 878.320 C 327.697 888.798, 332.354 894.507, 347 899.118 C 364.490 904.624, 408.845 901.186, 425.544 893.030 C 433.976 888.911, 435.735 885.499, 437.551 869.739 C 439.349 854.140, 440.805 844.519, 442.106 839.643 L 443.135 835.786 470.317 836.494 C 488.571 836.970, 497.879 837.580, 498.653 838.351 C 503.022 842.704, 513.037 867.138, 516.969 883.039 C 518.595 889.613, 520.375 895.833, 520.925 896.859 C 529.587 913.045, 591.977 919.155, 613.578 905.933 C 622.350 900.565, 620.340 885.043, 609.596 875.178 C 604.967 870.928, 596.044 866.029, 592.897 866.010 C 591.214 866, 590 857.341, 590 845.349 L 590 840 597.250 840.004 C 601.237 840.005, 627 840.661, 654.500 841.461 C 682 842.261, 731.275 843.640, 764 844.525 C 796.725 845.411, 832.500 846.442, 843.500 846.818 L 863.500 847.500 845 856.133 C 834.825 860.881, 799.050 877.586, 765.500 893.255 C 731.950 908.924, 684.025 931.285, 659 942.946 C 614.601 963.634, 611.074 965.407, 612.157 966.490 C 612.698 967.031, 615.902 965.584, 657 946.238 C 670.475 939.894, 693.875 928.982, 709 921.989 C 724.125 914.995, 778.125 889.811, 829 866.025 C 879.875 842.239, 937.475 815.333, 957 806.233 C 996.116 788.003, 993.601 789.268, 992.644 788.311 C 991.751 787.417, 992.186 787.222, 925.500 818.515 L 868.500 845.263 827.500 844.179 C 755.769 842.282, 590.505 837.693, 590.379 837.595 C 590.313 837.543, 589.742 830.075, 589.111 821 C 588.480 811.925, 587.688 801.313, 587.351 797.418 L 586.738 790.336 593.119 791.119 C 601.503 792.147, 610.089 790.723, 617.501 787.074 C 622.445 784.640, 636.734 781.157, 637.451 782.210 C 637.915 782.892, 641.110 799.215, 640.820 799.423 C 640.644 799.549, 638.865 800.635, 636.868 801.835 C 629.218 806.431, 629.561 814.140, 637.536 816.845 C 642.390 818.492, 657.190 817.727, 664.928 815.429 C 670.824 813.678, 673 810.371, 673 803.163 C 673 799.456, 675.456 783.478, 676.598 779.750 C 677.030 778.341, 678.288 778, 683.056 778 L 688.978 778 692.866 785.750 C 698.848 797.673, 700.596 804.069, 699.170 808.826 C 697.492 814.426, 697.705 816.379, 700.250 818.730 C 706.388 824.400, 725.551 824.449, 731.191 818.809 C 733.031 816.969, 733.183 815.980, 732.605 809.624 L 731.957 802.500 740.471 802.823 C 750.110 803.189, 759.351 801.081, 760.914 798.160 C 761.444 797.171, 762.398 791.520, 763.035 785.603 C 763.672 779.686, 764.712 772.760, 765.347 770.214 L 766.500 765.584 771.995 765.879 C 778.405 766.223, 777.993 765.728, 782.060 777.976 C 784.836 786.335, 785.148 788.356, 784.616 794.500 C 784.282 798.350, 784.360 802.045, 784.789 802.711 C 787.317 806.633, 801.748 808.386, 808.452 805.585 C 813.049 803.664, 814.271 801.018, 813.481 794.694 C 813.124 791.837, 812.848 789.078, 812.868 788.562 C 812.888 788.047, 815.288 787.017, 818.202 786.274 C 825.614 784.385, 826.816 782.850, 827.614 774.250 L 828.287 767 837.056 767 L 845.824 767 846.602 771.250 C 847.030 773.587, 847.254 777.845, 847.100 780.710 C 846.740 787.420, 850.111 789.990, 859.282 789.996 C 870.423 790.003, 874.330 786.454, 872.085 778.366 C 871.494 776.240, 871.009 772.969, 871.006 771.099 L 871 767.698 907.250 768.355 C 927.188 768.716, 954.638 769.301, 968.250 769.654 C 986.585 770.130, 993 769.999, 993 769.148 C 993 768.366, 990.021 768, 983.651 768 C 978.509 768, 970.867 767.710, 966.668 767.355 L 959.034 766.709 958.739 570.605 L 958.443 374.500 956.155 366.500 C 940.316 311.121, 886.701 281.577, 824.727 294.076 C 788.506 301.381, 759.299 327.700, 747.685 363.500 C 742.224 380.335, 742 383.529, 742 444.590 L 742 500.959 738.137 502.930 C 724.423 509.926, 713.803 533.991, 710.868 564.723 C 710.197 571.750, 709.520 577.669, 709.364 577.877 C 709.208 578.084, 706.925 576.459, 704.290 574.265 C 698.722 569.629, 693.940 567, 691.076 567 C 689.099 567, 689.056 566.458, 689.156 543.051 L 689.258 519.103 693.194 513.864 C 707.557 494.749, 715.983 470.240, 715.996 447.537 L 716 440.574 720.277 447.537 C 728.154 460.359, 730.048 457.112, 730.215 430.500 C 730.375 405.029, 724.217 378.966, 711.933 353.121 C 709.220 347.413, 707 342.605, 707 342.437 C 707 342.269, 711.249 344.801, 716.442 348.065 C 728.150 355.424, 729.490 355.590, 728.666 349.583 C 727.854 343.653, 721.740 328.601, 716.854 320.500 L 712.887 313.923 715.499 310.819 C 726.713 297.492, 731.239 267.502, 725.196 246.568 C 718.349 222.848, 701.465 203.326, 683.622 198.496 C 674.087 195.915, 660.438 196.703, 652.660 200.283 L 646.820 202.972 642.346 199.894 C 639.886 198.201, 634.678 195.337, 630.773 193.528 C 622.886 189.875, 622.873 189.892, 634.804 187.975 C 644.632 186.395, 644.164 184.829, 632.059 178.789 C 591.974 158.787, 545.739 151.586, 512.233 160.127 L 503.966 162.234 498.733 156.816 C 486.874 144.540, 466.327 135, 451.745 135 C 445.479 135, 444.821 136.648, 449.591 140.390 C 454.756 144.442, 467.099 156.234, 466.648 156.685 C 466.453 156.880, 462.515 156.122, 457.897 155.001 C 434.865 149.410, 408.386 152.091, 387.198 162.161 C 379.641 165.752, 376.807 168.141, 378.315 169.648 C 378.624 169.957, 383.742 171.146, 389.688 172.289 L 400.500 174.368 390.791 175.611 C 369.432 178.346, 341.835 190.313, 329.250 202.297 C 324.686 206.644, 325.023 206.997, 333.750 207.022 L 341.500 207.044 336.251 210.104 L 331.002 213.164 327.751 211.205 C 314.079 202.966, 296.800 204.746, 281.956 215.923 C 252.587 238.037, 245.815 286.557, 268.565 311.861 L 273.088 316.892 270.557 321.887 C 265.122 332.613, 261.321 343.201, 251.496 374.977 C 242.439 404.268, 242.569 405.147, 254.482 395.259 C 258.287 392.101, 261.141 390.190, 260.825 391.013 C 247.071 426.855, 247.638 471.862, 262.175 498.215 C 265.993 505.136, 267.329 504.027, 271.469 490.500 C 271.903 489.084, 272.809 490.948, 274.572 496.882 C 281.607 520.566, 299.774 545.518, 319.362 558.400 C 326.429 563.048, 327.263 562.420, 326.338 553.152 L 325.704 546.804 332.804 553.807 C 336.710 557.659, 343.864 563.411, 348.703 566.590 C 353.541 569.769, 357.669 572.494, 357.876 572.644 C 358.083 572.795, 355.448 575.974, 352.021 579.709 C 339.564 593.284, 329.282 611.079, 323.470 629.119 C 319.504 641.428, 318.853 659.017, 322.050 667.469 C 326.065 678.085, 335.829 685.929, 349.401 689.442 C 352.647 690.282, 355.467 691.134, 355.668 691.335 C 355.869 691.536, 355.147 695.480, 354.063 700.100 C 350.256 716.326, 348.721 731.453, 349.405 746 C 349.754 753.425, 350.320 765.850, 350.662 773.612 L 351.283 787.724 347.892 788.337 C 346.026 788.673, 322.225 790.967, 295 793.434 C 267.775 795.900, 227.915 799.512, 206.422 801.459 C 184.929 803.407, 167.041 805, 166.672 805 C 166.302 805, 166 636.925, 166 431.500 C 166 183.167, 165.665 58, 165 58 C 164.335 58, 164 183.167, 164 431.500 M 459.866 145.616 C 466.511 151.790, 475.179 162, 473.775 162 C 473.599 162, 468.964 160.857, 463.477 159.461 C 437.888 152.948, 413.124 154.514, 389.866 164.117 C 380.657 167.919, 380.534 167.786, 396 170.728 C 401.775 171.827, 408.975 173.800, 412 175.113 L 417.500 177.500 402.500 178.096 C 380.363 178.976, 362.521 184.398, 342.500 196.330 C 327.683 205.161, 327.723 204.980, 340.750 204.294 C 346.938 203.967, 352 203.954, 352 204.263 C 352 204.573, 348.512 206.707, 344.250 209.005 C 333.453 214.828, 324.936 221.409, 314.896 231.690 C 306.551 240.235, 299.207 249.541, 300.103 250.436 C 300.344 250.678, 304.133 249.612, 308.521 248.068 C 312.909 246.524, 317.625 244.917, 319 244.497 C 320.652 243.992, 317.560 247.592, 309.877 255.116 C 297.490 267.247, 289.474 277.319, 283.503 288.250 C 279.269 296.002, 279.265 295.996, 286.346 292 C 293.532 287.945, 293.585 288.033, 288.597 295.750 C 277.134 313.486, 268.914 332.027, 259.006 362.500 C 255.608 372.950, 251.569 384.875, 250.030 389 C 248.491 393.125, 247.399 396.682, 247.604 396.906 C 247.810 397.129, 251.020 394.617, 254.739 391.324 C 262.843 384.149, 267.593 380.862, 266.723 383.033 C 258.266 404.133, 254.720 422.121, 254.605 444.500 C 254.492 466.536, 256.598 478.135, 263.773 494.992 L 265.685 499.484 266.964 495.492 C 269.020 489.072, 272.184 482, 273 482 C 273.415 482, 274.738 485.938, 275.941 490.750 C 281.508 513.024, 298.112 537.966, 317.101 552.578 C 324.130 557.986, 324.069 557.985, 323.858 552.750 C 323.764 550.413, 323.757 546.542, 323.843 544.149 L 324 539.797 331.034 547.329 C 342.646 559.763, 359.461 570.815, 383.015 581.495 C 399.877 589.140, 399.197 589.050, 396.434 583.272 C 393.193 576.494, 392.304 573.193, 394.106 574.622 C 406.234 584.247, 418.160 591.396, 433.114 598.007 L 444.190 602.903 447.845 600.488 C 449.855 599.160, 458.475 595.399, 467 592.131 C 475.525 588.864, 486.277 584.562, 490.893 582.572 C 495.510 580.581, 499.414 579.081, 499.570 579.237 C 499.727 579.393, 497.662 582.441, 494.983 586.011 C 492.304 589.580, 490.516 592.643, 491.009 592.818 C 492.284 593.269, 538.241 581.832, 552.101 577.614 C 567.354 572.972, 584.704 565.555, 595.481 559.069 C 600.261 556.192, 604.384 554.050, 604.643 554.310 C 604.902 554.569, 603.480 559.146, 601.481 564.481 C 599.483 569.817, 598.011 574.344, 598.209 574.542 C 598.407 574.740, 603.153 572.707, 608.754 570.022 C 639.765 555.163, 668.489 527.026, 677.555 502.628 C 680.127 495.704, 681.207 499.261, 680.808 513.344 L 680.500 524.200 684.298 519.850 C 702.376 499.146, 712.148 473.394, 712.383 445.836 C 712.519 429.901, 712.371 429.951, 720.902 443 C 727.617 453.270, 727.410 453.822, 726.713 427.500 C 726.029 401.671, 721.164 381.941, 707.924 351.313 C 705.116 344.816, 702.586 338.938, 702.302 338.250 C 701.367 335.985, 703.410 336.921, 714.859 344 C 721.085 347.850, 726.340 351, 726.536 351 C 727.866 351, 715.709 323.142, 712.183 318.110 C 711.403 316.996, 710.056 317.659, 705.410 321.444 C 698.995 326.670, 691.310 330.832, 681.503 334.391 L 675.037 336.738 670.277 328.619 C 667.660 324.154, 662.419 317.238, 658.632 313.250 C 654.844 309.262, 652.225 306, 652.811 306 C 653.397 306, 656.882 306.697, 660.556 307.549 C 664.229 308.401, 667.429 308.905, 667.665 308.668 C 668.483 307.850, 659.888 301.219, 653.816 297.982 C 646.350 294.003, 646.905 293.547, 661.281 291.840 C 671.188 290.663, 671.819 290.458, 670.391 288.880 C 667.345 285.514, 658.804 282.684, 650.250 282.208 C 645.712 281.956, 642 281.419, 642 281.016 C 642 280.018, 650.851 274.223, 660.250 269.069 C 664.513 266.732, 668 264.574, 668 264.273 C 668 262.703, 648.839 264.997, 641.500 267.446 C 628.779 271.692, 628 271.902, 628 271.099 C 628 270.680, 630.155 268.941, 632.788 267.234 C 635.422 265.528, 640.593 260.557, 644.279 256.189 C 664.862 231.799, 680.262 224.721, 694.715 233.010 C 697.583 234.655, 700.409 236.896, 700.995 237.990 C 701.944 239.763, 701.661 239.710, 698.411 237.504 C 690.922 232.422, 681.633 231.313, 688.143 236.279 C 705.398 249.440, 708.445 278.950, 694.504 297.888 C 688.118 306.562, 673.895 315.997, 667.202 315.999 C 664.912 316, 664.914 316.015, 667.905 320.361 C 669.555 322.760, 671.650 326.585, 672.561 328.861 C 674.535 333.794, 674.746 333.816, 683.849 330.062 C 703.598 321.918, 718.004 305.811, 722.465 286.886 C 724.396 278.697, 724.418 259.674, 722.508 250.500 C 718.757 232.483, 703.755 211.485, 689.824 204.753 C 667.967 194.192, 649.800 200.548, 620.607 228.973 C 612.966 236.413, 607.297 241.375, 608.010 240 C 612.270 231.786, 626.615 216.867, 637.917 208.896 L 643.975 204.624 641.238 202.758 C 637.345 200.106, 624.370 193.622, 618.671 191.482 C 612.698 189.238, 613.456 188.772, 626.860 186.450 L 637.219 184.656 633.493 182.744 C 619.702 175.669, 588.985 165.624, 571 162.307 C 556.641 159.659, 523.636 159.831, 511.783 162.615 L 503.066 164.663 499.783 161.249 C 490.714 151.817, 475.879 143.166, 463.226 139.930 C 450.913 136.781, 450.715 137.116, 459.866 145.616 M 405.831 188.065 C 399.685 188.979, 392.684 191.895, 392.786 193.500 C 392.821 194.050, 396.782 195.587, 401.589 196.915 L 410.328 199.330 406.200 200.549 C 397.176 203.213, 386.783 211.101, 382.367 218.636 C 378.140 225.849, 381.354 226.481, 396.341 221.384 C 405.635 218.223, 405.711 218.257, 401.715 223.750 C 395.722 231.987, 392.033 242.378, 393.482 246.942 C 394.402 249.841, 395.162 249.617, 403.348 244.039 C 407.352 241.310, 414.575 236.978, 419.399 234.412 L 428.170 229.746 426.030 233.941 C 423.443 239.012, 422.226 247.404, 423.926 248.454 C 425.302 249.305, 425.962 248.849, 437.625 239 C 442.510 234.875, 447.855 230.502, 449.503 229.282 C 454.745 225.401, 450.587 226.833, 443.648 231.298 C 439.974 233.661, 434.501 237.994, 431.484 240.926 C 426.260 246.003, 426 246.132, 426 243.639 C 426 240.155, 429.241 231.780, 431.896 228.405 C 433.069 226.914, 433.833 225.500, 433.595 225.261 C 432.349 224.015, 407.425 237.299, 399.588 243.386 L 395.677 246.424 396.371 242.083 C 397.442 235.385, 401.798 227.510, 408.445 220.256 L 414.497 213.651 411.030 214.344 C 409.123 214.725, 402.478 216.639, 396.263 218.596 C 390.048 220.553, 384.447 221.982, 383.816 221.772 C 383.185 221.562, 385.387 218.611, 388.710 215.215 C 394.871 208.919, 405.631 202.723, 412.709 201.395 C 414.519 201.055, 416 200.410, 416 199.961 C 416 198.962, 406.722 195.414, 401.593 194.451 C 399.535 194.065, 398.223 193.377, 398.678 192.922 C 400.162 191.438, 414.341 189.756, 421.225 190.249 C 427.956 190.730, 429.772 189.515, 423.715 188.583 C 416.156 187.419, 411.152 187.275, 405.831 188.065 M 300.251 210.486 C 262.940 220.954, 245.592 276.376, 269.728 308 C 271.617 310.475, 273.548 312.500, 274.020 312.500 C 274.492 312.500, 277.303 308.638, 280.266 303.917 L 285.655 295.334 281.275 297.781 C 275.772 300.857, 275.170 300.231, 277.369 293.720 C 278.996 288.902, 279.010 288.211, 277.550 284.744 C 272.204 272.049, 276.079 254.712, 286.388 245.210 L 290.955 241 287.713 241 C 285.929 241, 282.677 241.956, 280.485 243.125 L 276.500 245.249 278.500 242.987 C 282.757 238.171, 290.918 236.685, 297.654 239.500 C 302.506 241.527, 301.874 241.854, 308.288 234.002 C 311.432 230.154, 317.154 224.432, 321.002 221.288 C 324.851 218.144, 328 215.250, 328 214.858 C 328 213.521, 316.801 209.948, 311.141 209.480 C 307.778 209.201, 303.380 209.608, 300.251 210.486 M 514.429 210.014 C 506.727 211.408, 503.135 213.198, 509.390 212.526 C 512.079 212.237, 521.529 211.971, 530.390 211.937 C 542.316 211.890, 545.851 211.610, 544 210.858 C 540.561 209.462, 520.625 208.893, 514.429 210.014 M 543.500 215 C 543.106 215.638, 546.069 215.994, 551.691 215.985 C 557.748 215.974, 560.031 215.667, 559 215 C 557.018 213.719, 544.292 213.719, 543.500 215 M 557.627 218.482 C 555.854 219.825, 555.907 219.934, 558.627 220.539 C 560.207 220.890, 563.525 221.770, 566 222.495 C 572.119 224.286, 575 224.894, 575 224.394 C 575 223.716, 563.903 219.007, 562.126 218.930 C 560.877 218.876, 560.964 218.660, 562.500 218 C 564.329 217.214, 564.286 217.137, 562 217.102 C 560.625 217.081, 558.657 217.702, 557.627 218.482 M 383.277 227.887 C 350.434 245.322, 322.001 287.596, 310.562 336 C 306.130 354.757, 304.723 368.577, 304.607 394.500 L 304.500 418.500 298.330 429.500 C 291.561 441.566, 287.693 452.678, 288.184 458.648 C 288.567 463.314, 290.262 463.606, 293.121 459.500 C 294.352 457.733, 294.935 457.322, 294.540 458.500 C 291.945 466.235, 293.170 482, 296.367 482 C 297.146 482, 298.113 480.762, 298.517 479.250 C 299.180 476.767, 299.464 477.186, 301.456 483.576 C 307.973 504.485, 332.753 525.867, 366.204 539.446 C 372.411 541.966, 374.499 543.389, 376.949 546.771 C 381.490 553.039, 393.344 559.679, 395.054 556.912 C 395.517 556.164, 397.010 556.638, 399.621 558.361 C 405.491 562.236, 411.536 564, 418.948 564 C 422.630 564, 427.721 564.708, 430.259 565.573 C 435.087 567.218, 438.262 567.185, 465 565.213 C 476.974 564.330, 477.921 564.092, 487.500 559.554 C 494.618 556.181, 502.552 553.555, 515.032 550.440 C 558.417 539.613, 586.229 526.528, 608.787 506.331 C 619.598 496.652, 629.430 482.657, 632.694 472.300 L 634.350 467.047 636.161 470.024 C 637.156 471.661, 638.410 473, 638.947 473 C 641.746 473, 642.857 454.053, 640.442 447.500 C 639.935 446.124, 640.935 446.671, 643.645 449.250 C 645.812 451.313, 647.850 453, 648.176 453 C 650.936 453, 649.115 439.617, 644.932 429.172 C 642.020 421.899, 641.997 421.689, 643.114 412.653 C 645.054 396.947, 643.336 375.596, 638.373 353.750 C 636.837 346.989, 634.188 343.948, 635.324 350.250 C 635.646 352.038, 636.851 358.675, 638 365 C 640.457 378.515, 641.641 404.443, 640.256 414.423 C 639.354 420.927, 639.493 421.926, 642.565 430.923 C 644.364 436.190, 646.146 442.468, 646.526 444.873 L 647.217 449.246 643.520 445.873 C 636.358 439.339, 635.637 439.472, 637.582 446.969 C 638.362 449.976, 638.982 456.275, 638.961 460.968 L 638.922 469.500 636.340 465.217 L 633.758 460.935 631.544 467.217 C 618.660 503.773, 581.565 529.390, 516.750 546.491 C 503.506 549.985, 502.768 549.990, 505.868 546.564 C 511.874 539.925, 510.817 539.099, 504.147 545.219 C 494.365 554.194, 487.928 557.223, 477 557.995 C 468.408 558.603, 468.214 558.915, 475 561.223 C 475.825 561.503, 473.892 562.073, 470.704 562.487 C 464.462 563.300, 454.506 561.830, 449.812 559.403 C 448.320 558.631, 446.782 558, 446.395 558 C 445.118 558, 449.223 561.936, 451.132 562.542 C 452.159 562.868, 453 563.622, 453 564.218 C 453 564.964, 450.118 565.103, 443.750 564.662 C 430.628 563.756, 421.654 560.722, 415.750 555.199 C 413.658 553.241, 413 553.005, 413 554.209 C 413 555.080, 414.674 557.263, 416.721 559.059 L 420.441 562.326 415.971 561.625 C 409.209 560.563, 399.645 555.684, 394.027 550.428 C 388.437 545.200, 388.081 545.278, 391.041 551.081 L 393.083 555.083 389.267 553.136 C 380.375 548.600, 373.256 537.556, 371.446 525.491 C 370.802 521.192, 370.595 520.862, 369.835 522.918 C 369.311 524.333, 369.395 527.664, 370.044 531.242 C 370.639 534.523, 370.962 537.371, 370.763 537.571 C 370.041 538.293, 350.761 529.058, 343.359 524.445 C 321.829 511.025, 307.799 495.572, 303.463 480.500 C 302.514 477.200, 301.415 473.375, 301.022 472 L 300.307 469.500 298.157 473 L 296.007 476.500 296.004 471.197 C 296.002 468.281, 296.712 462.766, 297.581 458.942 C 299.662 449.794, 299.164 448.902, 294.551 453.516 L 290.711 457.356 291.380 453.787 C 292.347 448.634, 295.723 440.912, 302 429.500 L 307.500 419.500 308.097 392.500 C 309.261 339.799, 318.349 307.413, 341.961 271.812 C 354.579 252.788, 365.394 241.799, 382.866 230.250 C 393.635 223.131, 393.777 222.313, 383.277 227.887 M 569.463 226.061 C 569.138 226.585, 569.689 227.288, 570.687 227.623 C 577.831 230.020, 585.437 234.584, 591.291 239.985 C 600.088 248.104, 601.389 246.917, 592.838 238.574 C 584.812 230.742, 571.104 223.404, 569.463 226.061 M 670.500 236.640 C 666.333 238.763, 641.258 262.659, 642.251 263.561 C 642.388 263.686, 645.425 263.170, 649 262.415 C 656.820 260.763, 662.220 260.656, 667.250 262.053 C 673.953 263.914, 672.120 266.025, 656.199 274.776 L 649.554 278.429 653.027 279.158 C 654.937 279.559, 657.625 280.017, 659 280.176 C 664.172 280.773, 675 287.839, 675 290.615 C 675 292.524, 674.104 292.812, 664.208 294.081 L 655.079 295.252 660.857 298.986 C 672.187 306.309, 674.229 311.655, 665.295 310.605 L 659.590 309.934 661.896 312.389 C 664.103 314.738, 664.391 314.787, 668.620 313.514 C 674.627 311.706, 681.468 307.147, 687.698 300.797 C 706.351 281.790, 703.688 246.583, 682.790 235.897 C 678.025 233.461, 676.568 233.549, 670.500 236.640 M 289.222 245.542 C 282.019 251.708, 278.480 260.516, 278.600 271.980 C 278.761 287.328, 279.435 287.780, 286.528 277.295 C 289.801 272.458, 296.260 264.563, 300.882 259.750 C 309.818 250.446, 309.978 249.795, 302.521 253.094 C 296.203 255.889, 295.014 254.669, 298.014 248.470 C 301.590 241.084, 296.436 239.367, 289.222 245.542 M 830.814 295.012 C 786.628 302.004, 752.854 336.234, 745.475 381.500 C 744.600 386.867, 744.006 397.324, 744.004 407.405 L 744 424.310 801.750 423.651 C 833.513 423.289, 875.864 422.699, 895.865 422.341 L 932.230 421.690 931.744 395.595 C 931.177 365.171, 930.191 359.871, 922.059 343.500 C 905.447 310.063, 866.499 289.365, 830.814 295.012 M 870.822 296.545 C 901.105 306.861, 923.331 330.685, 931.123 361.182 C 932.939 368.290, 933.318 373.319, 933.732 395.750 L 934.215 422 945.608 422 L 957 422 957 402.631 C 957 389.948, 956.485 380.308, 955.508 374.705 C 948.807 336.279, 919.037 305.254, 880.473 296.507 C 865.838 293.187, 861.021 293.207, 870.822 296.545 M 621.025 310.711 C 633.769 328.178, 634.584 329.647, 631 328.710 C 629.900 328.423, 629 328.331, 629 328.506 C 629 329.928, 641.443 354.170, 641.731 353.308 C 642.184 351.947, 637.766 341.126, 634.325 335.171 C 631.568 330.400, 631.881 328.677, 634.994 331.494 C 639.747 335.796, 634.652 324.535, 628.088 316.230 C 624.033 311.100, 617.695 306.148, 621.025 310.711 M 852.500 326.922 C 840.957 331.946, 837.938 352.553, 847.263 362.669 L 851.297 367.046 850.650 377.773 C 850.294 383.673, 849.715 393.050, 849.363 398.612 C 848.637 410.105, 849.972 413, 856 413 C 863.321 413, 864.038 409, 861.562 382 L 860.232 367.500 863.629 364.174 C 869.031 358.887, 870.461 355.383, 870.435 347.500 C 870.390 334.053, 860.964 323.237, 852.500 326.922 M 806.667 328.667 C 806.300 329.033, 806.002 335.671, 806.004 343.417 C 806.008 358.866, 807.168 362.752, 812.498 365.181 C 815.409 366.507, 815.695 370.290, 814.003 385.054 C 811.423 407.569, 812.508 413, 819.584 413 C 826.936 413, 827.691 409.648, 825.619 386.195 L 823.975 367.576 828.237 363.908 L 832.500 360.239 832.830 346.505 C 833.201 331.045, 832.765 328, 830.181 328 C 826.683 328, 826 330.087, 826 340.783 C 826 348.644, 825.696 351.066, 824.750 350.753 C 823.894 350.470, 823.342 346.894, 823 339.420 L 822.500 328.500 819.785 328.187 C 816.458 327.803, 816.098 328.983, 815.750 341.419 C 815.580 347.480, 815.099 350.471, 814.250 350.753 C 813.304 351.066, 813 348.644, 813 340.783 C 813 334.041, 812.579 329.979, 811.800 329.200 C 810.493 327.893, 807.728 327.605, 806.667 328.667 M 850.064 331.155 C 846.396 334.573, 843.800 341.553, 843.800 347.999 C 843.800 354.590, 844.821 357.019, 849.768 362.195 L 853.299 365.891 852.678 377.695 C 852.337 384.188, 851.759 393.570, 851.394 398.544 C 850.647 408.731, 851.832 411.391, 856.857 410.804 C 861.044 410.315, 861.523 407.065, 860.018 389.342 C 857.942 364.874, 857.830 366.053, 862.658 361.690 C 871.063 354.097, 870.525 338.008, 861.625 330.772 C 858.613 328.323, 852.900 328.513, 850.064 331.155 M 808 343.840 C 808 357.386, 808.084 357.946, 810.544 360.870 C 811.943 362.533, 814.030 364.192, 815.182 364.558 C 817.490 365.290, 817.471 362.299, 815.384 396.719 C 814.625 409.238, 815.212 411, 820.144 411 C 825.708 411, 825.912 407.495, 822.353 372.906 L 821.777 367.313 826.389 362.767 L 831 358.220 831 344.027 C 831 333.118, 830.711 329.929, 829.750 330.247 C 828.901 330.529, 828.420 333.520, 828.250 339.581 C 827.936 350.782, 827.429 353, 825.181 353 C 821.688 353, 821 350.910, 821 340.300 C 821 331.811, 820.736 330, 819.500 330 C 818.267 330, 818 331.769, 818 339.918 C 818 351.524, 817.595 353, 814.412 353 C 811.493 353, 811.084 351.499, 810.750 339.581 C 810.580 333.520, 810.099 330.529, 809.250 330.247 C 808.290 329.929, 808 333.081, 808 343.840 M 534.584 345.423 C 525.776 348.607, 516.609 353.928, 490.500 371.012 C 462.018 389.649, 461.196 390.001, 454.863 386.260 C 451.344 384.181, 450.396 381.172, 451.901 376.855 C 453.339 372.728, 452.630 372.109, 450.385 375.535 C 447.633 379.735, 447.418 388.748, 449.972 392.818 C 452.632 397.058, 459.886 400.432, 464.487 399.568 C 467.635 398.978, 467.797 399.104, 468.465 402.665 C 472.659 425.023, 499.220 439.804, 523.234 433.145 C 555.573 424.177, 567.976 384.348, 544.893 363.593 L 539.886 359.092 547.080 356.907 C 553.067 355.089, 555.763 354.818, 563.137 355.296 C 568.012 355.612, 572 355.502, 572 355.051 C 572 353.789, 564.514 347.320, 560.810 345.381 C 555.144 342.415, 542.852 342.435, 534.584 345.423 M 325.500 345.960 C 320.645 347.102, 316.310 349.756, 313.998 353.003 L 311.838 356.037 317.232 355.403 C 322.696 354.760, 326.888 356.119, 332.500 360.352 C 334.466 361.835, 334.446 361.917, 331.312 365.180 C 317.912 379.134, 320.987 409.076, 337.175 422.267 C 355.460 437.167, 383.375 427.172, 388.159 404.011 C 389.086 399.520, 389.900 398.020, 392.093 396.761 C 397.773 393.502, 400.288 383.269, 397.073 376.500 L 395.173 372.500 395.337 377.859 C 395.482 382.624, 395.196 383.449, 392.758 385.298 C 389.104 388.071, 386.515 386.831, 372.819 375.747 C 334.883 345.045, 333.389 344.105, 325.500 345.960 M 524.695 366.644 L 513.891 372.072 518.217 376.286 C 525.325 383.209, 527.074 394.004, 522.633 403.541 C 513.532 423.086, 485.353 421.867, 476.938 401.564 C 475.136 397.216, 474.381 396.349, 472.762 396.773 C 468.613 397.857, 474.227 412.279, 481.711 419.763 C 489.560 427.613, 497.436 430.500, 511 430.500 C 525.070 430.500, 532.529 427.619, 541.312 418.791 C 555.957 404.072, 556.705 379, 542.871 366.503 C 536.404 360.660, 536.607 360.659, 524.695 366.644 M 334.287 366.250 C 322.879 378.702, 324.023 404.956, 336.518 417.451 C 352.074 433.008, 376.445 427.113, 384.442 405.859 C 386.794 399.607, 386.117 396.036, 383.574 401.283 C 375.689 417.552, 350.937 417.800, 343.434 401.686 C 342.106 398.834, 341.015 395.005, 341.010 393.177 L 341 389.855 343.635 391.927 C 346.929 394.518, 348.467 394.533, 351 392 C 355.015 387.985, 351.423 382.345, 345.466 383.312 C 342.199 383.842, 342.169 383.812, 343.154 380.989 C 343.702 379.417, 345.242 376.952, 346.575 375.513 C 349.668 372.176, 349.889 372.720, 343.543 368.032 C 337.179 363.330, 336.995 363.295, 334.287 366.250 M 420.887 378.750 C 419.231 383.034, 420.336 390.664, 423.027 393.529 C 426.124 396.825, 426.397 396.179, 423.912 391.432 C 422.294 388.342, 421.956 386.269, 422.332 381.750 C 422.861 375.392, 422.486 374.614, 420.887 378.750 M 409.667 380.667 C 408.002 382.332, 409.066 390.818, 411.365 394.206 L 413.730 397.691 408.867 398.937 C 406.193 399.623, 403.752 400.592, 403.443 401.092 C 402.704 402.289, 403.306 402.250, 411.223 400.594 C 417.585 399.262, 424.421 399.533, 433 401.457 C 434.392 401.769, 433.644 401.122, 431.312 399.998 C 429.009 398.887, 424.528 397.781, 421.355 397.540 C 416.832 397.196, 415.199 396.604, 413.799 394.801 C 411.389 391.698, 409.800 385.644, 410.580 382.537 C 411.216 380.004, 410.925 379.408, 409.667 380.667 M 482.250 391.745 C 477.077 394.320, 478.880 400, 484.871 400 C 488.299 400, 490 398.341, 490 395 C 490 390.120, 487.568 389.099, 482.250 391.745 M 405.299 404.042 C 400.741 405.452, 400.217 407.055, 404.721 405.811 C 406.780 405.243, 412.426 404.967, 417.268 405.198 C 422.722 405.459, 425.465 405.280, 424.479 404.728 C 422.079 403.385, 408.942 402.915, 405.299 404.042 M 389.342 415.476 C 382.268 422.870, 373.415 435.833, 372.456 440.202 C 371.221 445.824, 372.835 449.965, 378.448 455.579 C 384.676 461.806, 394.501 468.385, 401.044 470.709 L 405.683 472.357 406.603 480.124 C 407.600 488.547, 407.367 488.947, 401.432 488.986 C 396.657 489.018, 388.430 492.441, 381.049 497.467 C 372.190 503.499, 372.246 503.508, 368.208 495.470 C 362.312 483.733, 361.710 472.684, 366.233 459.199 C 368.740 451.725, 368.231 450.668, 365.090 456.823 C 358.277 470.177, 359.609 487.065, 368.455 499.507 L 371.885 504.331 369.942 506.800 C 367.947 509.337, 367.542 511.644, 368.607 514.418 C 369.639 517.108, 370.677 516.162, 370.208 512.961 C 369.646 509.134, 371.440 507.038, 380.116 501.386 C 392.343 493.421, 395.543 492.534, 412 492.544 C 431.225 492.556, 441.732 495.126, 472 507.219 C 490.983 514.802, 499.521 514.694, 503.594 506.817 C 508.340 497.641, 499.293 479.354, 486.791 472.851 C 477.117 467.818, 466.830 470.014, 442.500 482.305 C 427.361 489.953, 428.777 489.584, 418.378 488.591 L 410.257 487.815 409.637 482.657 C 408.427 472.586, 408.417 472.612, 414.156 471.249 C 422.622 469.237, 441.695 459.303, 447.060 454.109 C 453.295 448.075, 454.161 443.387, 451.234 431.531 C 449.349 423.895, 444.278 411.389, 443.416 412.250 C 443.208 412.458, 444.407 416.649, 446.079 421.564 C 447.751 426.479, 449.385 433.337, 449.709 436.805 L 450.299 443.109 446.900 441.152 C 440.624 437.538, 437.968 437.581, 423.782 441.523 C 407.108 446.157, 402.925 446.159, 390.962 441.538 C 385.922 439.592, 380.719 438, 379.400 438 C 378.080 438, 377 437.588, 377 437.084 C 377 435.351, 386.838 421.491, 392.499 415.250 C 400 406.980, 397.285 407.174, 389.342 415.476 M 324.274 421.500 C 326.424 425.632, 332.610 431.324, 338 434.132 C 344.864 437.708, 357.516 437.512, 364.750 433.719 C 371.526 430.166, 371.403 429.658, 364.367 432.131 C 350.825 436.891, 336.282 433.539, 327.306 423.591 C 323.872 419.784, 323.107 419.257, 324.274 421.500 M 553 427.036 C 537.364 440.763, 510.181 444.275, 491.872 434.935 C 486.874 432.385, 485.648 433.005, 490.281 435.738 C 509.172 446.885, 535.364 444.654, 551.762 430.502 C 555.236 427.504, 558.983 422.864, 557.785 423.043 C 557.628 423.066, 555.475 424.863, 553 427.036 M 908.851 424.447 C 908.658 424.621, 876.100 425.049, 836.500 425.398 C 796.900 425.747, 759.888 426.304, 754.250 426.636 L 744 427.239 744 464.511 L 744 501.783 746.572 502.429 C 756.044 504.806, 757.870 535.625, 749.910 558.761 L 748.009 564.286 751.892 568.499 C 754.028 570.816, 756.245 573.590, 756.820 574.663 C 758.315 577.457, 765.370 576.741, 764.464 573.887 C 763.966 572.318, 764.381 572, 766.925 572 L 769.985 572 770.242 509.750 L 770.500 447.500 851.750 447.244 L 933 446.988 933 606.994 L 933 767 945 767 L 957 767 957 595.470 L 957 423.939 933.101 424.035 C 919.957 424.088, 909.044 424.273, 908.851 424.447 M 377.250 440.780 C 373.806 441.330, 374.154 447.021, 377.887 451.200 C 380.417 454.032, 380.980 454.261, 382.434 453.055 C 384.560 451.290, 387.917 453.599, 393.071 460.370 C 396.894 465.392, 399.208 467.328, 402.682 468.411 C 404.788 469.068, 404.845 468.897, 404.293 463.546 C 403.558 456.425, 404.526 456.399, 406 463.500 C 406.981 468.225, 407.463 469, 409.422 469 C 414.223 469, 418.660 466.508, 423.716 460.971 C 430.726 453.296, 435.320 451.073, 439.368 453.397 C 442.284 455.070, 442.350 455.053, 445.657 451.848 C 449.682 447.947, 449.794 446.770, 446.399 444.099 C 441.862 440.530, 438.038 440.504, 426.310 443.964 C 406.826 449.710, 400.163 449.695, 388.757 443.876 C 383.560 441.225, 380.172 440.313, 377.250 440.780 M 772.667 449.667 C 772.300 450.033, 772 477.731, 772 511.218 L 772 572.102 775.686 573.642 C 777.714 574.490, 780.824 576.289, 782.597 577.642 L 785.821 580.101 788.411 576.706 C 789.835 574.839, 791 572.666, 791 571.878 C 791 569.478, 794.103 565.825, 795.640 566.416 C 796.429 566.718, 799.663 565.198, 802.828 563.037 C 809.619 558.402, 813.598 556.738, 816.040 557.513 C 818.347 558.245, 821.446 564.936, 822.983 572.500 C 824.792 581.409, 826.707 583, 835.625 583 C 839.627 583, 845.219 583.497, 848.052 584.104 C 853.186 585.206, 853.213 585.198, 856.851 581.667 C 864.865 573.889, 880.088 566.808, 884.486 568.812 C 890.895 571.732, 889.303 597.590, 881.980 609.513 C 880.144 612.503, 880.154 612.610, 883.366 623.513 C 885.145 629.556, 887.929 636.659, 889.551 639.299 C 895.968 649.739, 895.640 648.962, 894.042 649.962 C 893.241 650.464, 892.566 652.128, 892.542 653.660 C 892.503 656.226, 892.108 656.504, 887.500 657.199 C 878.997 658.482, 873.671 659.777, 867.675 662.020 L 861.909 664.178 866.064 668.686 C 872.610 675.787, 882 699.647, 882 709.179 C 882 710.971, 882.222 710.935, 885.250 708.665 C 894.147 701.995, 905.533 699.489, 915.777 701.947 C 924.017 703.923, 924.413 704.911, 921.440 716.056 C 916.342 735.168, 905.948 745.667, 889.962 747.854 C 884.430 748.610, 875.296 747.919, 873.130 746.580 C 871.983 745.872, 870.572 763.972, 871.687 765.087 C 872.157 765.557, 885.583 765.982, 901.521 766.031 L 930.500 766.119 930.753 607.559 L 931.006 449 852.170 449 C 808.810 449, 773.033 449.300, 772.667 449.667 M 486 462.434 C 486 462.694, 488.010 463.796, 490.467 464.882 C 501.539 469.780, 511.370 479.758, 514.722 489.500 C 516.035 493.315, 516.526 493.965, 516.792 492.244 C 517.813 485.637, 507.131 471.442, 497.237 466.260 C 491.757 463.390, 486 461.430, 486 462.434 M 465 475.892 C 461.975 476.873, 454.775 480.101, 449 483.065 C 436.430 489.516, 437.029 489.833, 458.377 488.028 L 472.255 486.855 475.625 490.121 C 478.906 493.301, 479.036 493.337, 480.510 491.444 C 481.343 490.375, 482.303 488.246, 482.644 486.714 C 483.336 483.608, 482.813 483.356, 490.400 490.452 C 494.464 494.253, 495.461 494.179, 496.451 490 C 497.574 485.261, 490.795 477.714, 483.101 475.138 C 478.289 473.527, 471.405 473.814, 465 475.892 M 482.413 492.794 C 480.897 494.833, 479.524 496.673, 479.361 496.884 C 479.199 497.095, 477.605 495.617, 475.819 493.600 L 472.573 489.933 458.536 490.527 C 438.722 491.366, 437.804 491.699, 447.500 494.522 C 451.900 495.803, 461.575 499.298, 469 502.289 C 490.908 511.114, 495.903 511.690, 500.233 505.889 C 502.142 503.334, 501.961 497.081, 499.887 493.888 C 498.306 491.454, 495.082 496.731, 495.726 500.699 C 496.068 502.803, 495.852 504, 495.131 504 C 494.509 504, 494 503.273, 494 502.385 C 494 499.980, 489.193 491.601, 487.042 490.259 C 485.425 489.249, 484.793 489.595, 482.413 492.794 M 733.351 509.230 C 721.592 520.350, 712 550.668, 712 576.712 C 712 582.603, 709.704 582.275, 702.210 575.313 C 697.054 570.522, 688.492 567.273, 691.926 571.411 C 692.972 572.671, 692.343 572.790, 687.318 572.288 C 681.614 571.718, 681.534 571.745, 683.222 573.651 C 684.900 575.546, 684.758 575.640, 677.770 577.280 C 657.660 581.999, 644.928 594.795, 638.477 616.769 C 637.229 621.021, 635.237 627.144, 634.051 630.375 C 626.707 650.382, 637.909 666.496, 664.210 673.758 C 673.190 676.237, 700.823 676.221, 710 673.730 C 723.832 669.977, 734.598 662.555, 739.255 653.561 C 744.981 642.503, 741.011 614.954, 731.374 598.869 C 729.518 595.772, 728 592.987, 728 592.680 C 728 592.373, 730.515 588.616, 733.590 584.331 C 749.242 562.515, 756.552 534.359, 751.585 515.014 C 749.206 505.746, 747.832 504, 742.917 504 C 739.421 504, 738.140 504.700, 733.351 509.230 M 675.969 513.074 C 675.269 514.765, 672.184 519.827, 669.115 524.324 L 663.533 532.500 663.615 545 C 663.719 560.940, 667.519 577.557, 670.840 576.598 C 671.753 576.335, 674.369 575.637, 676.653 575.047 C 680.088 574.161, 680.716 573.631, 680.286 571.988 C 679.839 570.275, 680.267 570, 683.383 570 L 687 570 687 545.953 L 687 521.906 683 525.120 C 680.801 526.888, 678.714 528.047, 678.364 527.697 C 678.013 527.347, 677.811 523.222, 677.915 518.530 C 678.121 509.187, 677.870 508.485, 675.969 513.074 M 732.471 523.462 C 724.236 532.193, 716.793 558.859, 717.108 578.500 C 717.244 586.979, 718.385 582.184, 720.403 564.653 C 723.934 533.975, 737.339 511.187, 742.955 526.315 C 747.036 537.308, 739.861 562.546, 727.594 580.353 C 721.959 588.532, 722.126 590.412, 727.814 582.827 C 745.665 559.022, 752.069 521.779, 738.588 520.177 C 736.531 519.933, 735.049 520.729, 732.471 523.462 M 654.971 541.582 C 640.509 556.292, 612.650 574.111, 598.759 577.536 C 593.878 578.740, 594.048 574.976, 599.469 561.818 C 599.926 560.709, 596.817 561.987, 590.331 565.575 C 584.924 568.566, 579.693 571.272, 578.707 571.588 C 577.144 572.088, 577.381 572.679, 580.554 576.192 C 596.547 593.894, 593.908 631.665, 574.333 665.242 L 569.819 672.984 571.478 685.242 C 572.390 691.984, 575.355 711, 578.066 727.500 C 580.778 744, 582.997 758.651, 582.998 760.059 C 583.003 766.240, 583.686 766.396, 604.393 764.954 L 623.124 763.649 627.562 757.813 C 632.659 751.112, 632.710 750.924, 629.926 749.186 C 618.074 741.784, 630.124 699.758, 650.229 678.380 L 655.044 673.261 649.391 670.400 C 631.138 661.165, 625.455 646.438, 632.644 627 C 634.373 622.325, 636.943 614.907, 638.356 610.515 L 640.925 602.531 638.577 600.015 C 632.305 593.297, 630.838 583.955, 634.842 576.237 C 641.443 563.515, 657.305 562.302, 663.889 574.016 C 667.257 580.010, 667.411 578.423, 664.435 568.383 C 662.283 561.122, 661.775 557.264, 661.651 547.255 C 661.568 540.520, 661.487 535.008, 661.471 535.005 C 661.455 535.002, 658.530 537.962, 654.971 541.582 M 807.093 562.750 C 803.362 564.949, 797.710 569.747, 793.427 574.350 L 786.124 582.199 780.236 578.565 C 776.998 576.566, 772.583 574.654, 770.424 574.315 L 766.500 573.699 768.405 575.850 L 770.310 578 765.155 578 C 759.991 578, 758.042 579.675, 762 580.710 C 765.138 581.531, 764.340 582.999, 760.750 583.010 C 753.920 583.030, 741.328 591.164, 736.900 598.416 C 735.357 600.943, 735.298 601.676, 736.456 603.916 C 737.191 605.337, 738.803 609.875, 740.039 614 C 741.734 619.654, 743.078 622.166, 745.501 624.205 C 749.425 627.508, 751.331 633.634, 750.849 641.391 L 750.500 647.003 753.500 647.015 C 755.150 647.022, 757.513 647.299, 758.750 647.630 C 759.987 647.962, 761 647.787, 761 647.243 C 761 645.828, 766.143 636.810, 766.657 637.324 C 766.892 637.559, 765.935 640.352, 764.529 643.529 C 763.124 646.707, 762.147 649.480, 762.358 649.691 C 762.569 649.902, 766.911 648.239, 772.008 645.996 C 795.605 635.612, 811.010 635.460, 825.734 645.465 C 831.114 649.121, 831.397 648.659, 827.506 642.577 C 824.156 637.339, 822.405 632.552, 818.279 617.351 C 816.576 611.076, 816.509 609.875, 817.735 607.536 C 823.228 597.052, 823.090 572.809, 817.474 561.950 C 815.521 558.172, 814.759 558.231, 807.093 562.750 M 745.652 568.463 C 745.344 569.268, 746.539 573.053, 748.308 576.873 L 751.525 583.819 754.797 582.443 L 758.068 581.068 755.413 576.784 C 752.555 572.172, 748.066 567, 746.920 567 C 746.532 567, 745.961 567.659, 745.652 568.463 M 806.973 568.649 C 802.871 571.385, 796.925 577.330, 795.418 580.200 C 793.117 584.583, 793.692 586.303, 798.463 589.317 C 800.915 590.867, 805.157 594.579, 807.887 597.567 C 810.618 600.555, 813.052 603, 813.296 603 C 814.699 603, 816.493 592.189, 816.449 584 C 816.370 569.232, 813.374 564.379, 806.973 568.649 M 642.913 570.280 C 633.815 576.410, 632.222 591.594, 639.952 598.487 C 642.094 600.397, 642.232 600.403, 643.507 598.659 C 644.649 597.098, 644.496 596.347, 642.417 593.283 C 635.083 582.476, 646.764 570.586, 656.402 579.048 C 659.462 581.735, 660.118 581.943, 661.937 580.807 C 664.511 579.200, 664.507 578.557, 661.903 574.344 C 657.883 567.838, 649.271 565.995, 642.913 570.280 M 806.656 571.104 C 801.953 574.220, 795 582.186, 795 584.460 C 795 585.104, 796.913 586.706, 799.250 588.019 C 801.587 589.333, 805.617 592.614, 808.204 595.311 L 812.908 600.216 813.704 597.358 C 815.166 592.110, 814.653 573.776, 812.959 570.725 L 811.418 567.950 806.656 571.104 M 877.286 571.451 C 871.632 573.218, 865.225 577.067, 858.182 582.929 C 853.464 586.854, 852.012 587.586, 850.555 586.771 C 847.779 585.218, 833.019 584.627, 828.392 585.884 L 824.285 587 823.660 592.980 C 823.316 596.269, 822.095 601.748, 820.947 605.157 C 819.799 608.565, 819.143 612.287, 819.490 613.427 C 819.837 614.567, 821.173 619.592, 822.460 624.594 C 824.922 634.162, 827.165 639.254, 831.421 644.942 C 833.163 647.270, 833.632 648.609, 832.870 649.080 C 832.251 649.463, 832.042 650.258, 832.406 650.848 C 832.828 651.531, 836.585 650.108, 842.784 646.915 C 858.774 638.679, 870.192 638.176, 884.643 645.070 C 892.573 648.852, 893.835 648.787, 890.767 644.750 C 886.736 639.447, 884.811 635.102, 881.424 623.658 L 878.215 612.816 881.482 605.658 C 886.107 595.526, 887.384 589.192, 886.583 580.349 C 885.553 568.985, 885.460 568.896, 877.286 571.451 M 739.349 579.759 C 735.100 586.661, 734.685 587.978, 734.885 593.930 L 735 597.360 738.517 593.251 C 740.452 590.991, 743.602 588.173, 745.517 586.989 C 747.433 585.805, 749 584.211, 749 583.445 C 749 581.778, 744.836 572.996, 744.051 573.009 C 743.748 573.013, 741.632 576.051, 739.349 579.759 M 565.500 576.692 C 557.957 579.857, 533.395 586.846, 517 590.491 C 510.125 592.020, 504.361 593.387, 504.191 593.528 C 504.021 593.669, 504.601 596.259, 505.480 599.283 L 507.078 604.781 511.698 603.390 C 514.239 602.626, 518.172 602, 520.439 602 C 524.286 602, 524.825 601.634, 528.530 596.505 C 533.663 589.401, 535.044 589.431, 530.966 596.559 C 529.217 599.617, 527.946 602.229, 528.143 602.363 C 528.339 602.497, 530.358 603.414, 532.630 604.401 C 545.357 609.930, 550.994 623.497, 543.500 630.565 C 541.575 632.380, 540 634.585, 540 635.465 C 540 641.324, 534.317 647, 528.451 647 C 526.798 647, 524.749 648.127, 523 650 C 517.904 655.455, 507.647 653.647, 499.933 645.933 C 496.572 642.572, 495.630 642.214, 487.332 641.150 C 470.813 639.032, 472.627 638.428, 451.427 653.096 C 441.017 660.299, 430.816 667.162, 428.758 668.346 C 426.699 669.531, 425.012 670.814, 425.008 671.199 C 424.978 673.884, 460.319 692.234, 474.500 696.898 C 517.626 711.079, 544.422 703.762, 565.705 671.992 C 589.424 636.585, 594.571 595.531, 577.551 577.486 C 573.708 573.410, 573.373 573.388, 565.500 576.692 M 355.430 580.648 C 326.702 611.430, 314.832 656.294, 330.509 674.843 C 337.499 683.113, 348.875 687.306, 364.500 687.369 C 389.510 687.470, 410.966 677.335, 467.210 638.854 C 468.700 637.834, 471.219 637, 472.808 637 C 475.201 637, 475.965 636.357, 477.262 633.250 C 478.123 631.188, 479.996 627.622, 481.425 625.326 L 484.023 621.152 481.261 619.207 C 465.388 608.022, 439.750 605.180, 414.759 611.834 C 399.836 615.808, 386.456 620.797, 372.431 627.617 C 363.017 632.196, 360.551 632.988, 355.931 632.921 C 352.944 632.878, 351.011 632.632, 351.635 632.376 C 353.207 631.731, 351.055 627.177, 348.839 626.460 C 342.637 624.452, 342.378 612.081, 348.434 607.055 C 349.295 606.340, 350 604.626, 350 603.246 C 350 599.732, 357.427 592.530, 362.503 591.121 C 367.456 589.746, 377.376 589.674, 381.929 590.980 C 385.440 591.987, 388.012 590.989, 387.989 588.628 C 387.980 587.779, 368.354 577.676, 361.802 575.148 C 361.301 574.955, 358.434 577.430, 355.430 580.648 M 645.262 579.529 C 642.166 581.697, 641.319 587.349, 643.428 591.771 L 645.120 595.319 651.285 589.409 C 654.676 586.159, 657.578 583.458, 657.735 583.407 C 657.892 583.355, 656.912 582.118, 655.558 580.657 C 652.747 577.624, 648.626 577.173, 645.262 579.529 M 872.698 580.444 C 868.057 582.099, 861.211 586.737, 859.961 589.072 C 859.223 590.452, 860.069 591.594, 864.271 594.888 C 867.147 597.142, 870.625 600.552, 872 602.465 C 875.278 607.028, 875.500 606.954, 877.928 600.462 C 881.113 591.949, 880.573 578.763, 877.050 579.044 C 876.748 579.068, 874.789 579.698, 872.698 580.444 M 903.229 580.669 C 899.772 582.060, 899 586.593, 899 605.500 C 899 626.031, 899.626 628.774, 904.799 630.917 C 908.538 632.466, 912.518 631.428, 915.016 628.253 C 916.840 625.934, 917 624.164, 917 606.299 C 917 586.671, 916.576 583.961, 913.087 581.282 C 911.503 580.066, 905.635 579.701, 903.229 580.669 M 872.804 581.974 C 869.848 582.878, 861 588.921, 861 590.037 C 861 590.420, 862.803 591.928, 865.008 593.386 C 867.212 594.845, 870.352 597.884, 871.987 600.140 L 874.958 604.242 875.901 601.760 C 877.500 597.554, 879.193 587.591, 878.837 584.476 C 878.471 581.261, 877.056 580.674, 872.804 581.974 M 903.441 583.418 C 901.651 584.725, 901.476 586.387, 901.193 604.737 C 900.844 627.382, 901.384 629.333, 908 629.333 C 914.616 629.333, 915.156 627.382, 914.807 604.737 C 914.470 582.881, 914.206 582, 908 582 C 906.560 582, 904.509 582.638, 903.441 583.418 M 400.474 585.950 C 401.858 588.626, 402.517 592, 401.657 592 C 401.468 592, 398.821 591.142, 395.774 590.094 L 390.235 588.189 389.231 590.393 C 388.327 592.377, 388.805 592.972, 394.027 596.353 C 397.218 598.419, 401.859 602.280, 404.342 604.934 L 408.855 609.759 416.678 607.839 C 420.980 606.782, 428.772 605.639, 433.993 605.298 L 443.486 604.677 435.493 601.985 C 425.513 598.623, 414.400 593.082, 406.202 587.380 C 398.739 582.189, 398.498 582.129, 400.474 585.950 M 484.500 588.503 C 480.650 590.335, 469.898 594.684, 460.606 598.167 L 443.713 604.500 451.106 605.184 C 461.073 606.106, 473.351 610.134, 480.733 614.906 L 486.809 618.833 489.154 616.334 C 491.520 613.814, 501.883 606.539, 504.215 605.762 C 505.187 605.438, 505.061 604.035, 503.661 599.593 C 502.405 595.609, 501.432 594.004, 500.492 594.365 C 499.746 594.651, 496.405 595.194, 493.068 595.572 C 485.987 596.373, 485.708 595.880, 489.542 589.338 C 490.940 586.952, 491.953 585.039, 491.792 585.086 C 491.631 585.133, 488.350 586.671, 484.500 588.503 M 362.030 594.583 C 358.173 596.256, 355.282 598.604, 353.901 601.186 C 353.084 602.711, 353.468 602.680, 357.494 600.899 C 364.256 597.909, 370.695 597.543, 375.500 599.878 L 379.500 601.822 372.867 601.277 C 356.661 599.947, 340.678 613.207, 347.835 622.045 L 349.671 624.312 351.979 619.542 C 355.498 612.274, 361.583 608.741, 369.747 609.224 C 378.391 609.736, 380.102 611.718, 371.794 611.594 C 361.686 611.443, 353.076 617.878, 353.016 625.628 C 352.967 632.032, 359.159 631.583, 373.198 624.164 C 379.414 620.878, 389 616.527, 394.500 614.495 C 400 612.462, 404.694 610.613, 404.932 610.385 C 405.612 609.731, 398.913 603.096, 394.417 599.971 C 385.381 593.691, 369.990 591.131, 362.030 594.583 M 510.656 606.975 C 503.395 609.295, 496.002 614.138, 489.343 620.939 C 484.612 625.770, 478.251 635.585, 479.222 636.555 C 479.453 636.787, 483.727 637.814, 488.720 638.838 C 496.046 640.341, 498.636 641.378, 502.148 644.218 C 507.458 648.510, 509.748 649.733, 513 650.009 C 518.202 650.451, 520.002 649.926, 521.589 647.504 C 525.396 641.695, 519.908 632.764, 509.509 627.844 C 503.812 625.149, 503.674 625.002, 506.849 625.001 C 514.065 624.999, 522.755 632.111, 525.100 639.938 C 526.407 644.301, 527.914 644.907, 532.385 642.870 C 542.922 638.069, 532.644 618.087, 518.249 615.387 C 515.997 614.965, 515.186 614.414, 515.844 613.756 C 519.253 610.347, 533.140 618.433, 537.055 626.107 C 539.294 630.497, 539.993 630.770, 542.345 628.171 C 547.837 622.103, 540.231 609.928, 528.833 606.543 C 522.158 604.561, 517.895 604.662, 510.656 606.975 M 648.589 622.902 C 645.975 625.790, 646.817 631.793, 650.186 634.298 C 655.416 638.186, 662.499 632.072, 660.093 625.745 C 658.283 620.985, 651.779 619.377, 648.589 622.902 M 695.465 622.952 C 687.482 626.187, 689.920 637.400, 698.607 637.400 C 706.847 637.400, 708.797 627.148, 701.316 623.163 C 698.819 621.834, 698.272 621.814, 695.465 622.952 M 776.635 625.073 C 771.285 629.281, 775.072 637.509, 782.042 636.822 C 789.232 636.112, 790.897 627.097, 784.385 624.130 C 780.914 622.548, 779.649 622.702, 776.635 625.073 M 649.446 625.087 C 648.416 626.755, 650.733 628.667, 652.113 627.287 C 653.267 626.133, 652.545 624, 651 624 C 650.515 624, 649.816 624.489, 649.446 625.087 M 693.659 626.742 C 693.369 627.212, 693.507 628.202, 693.965 628.943 C 694.979 630.584, 698.341 629.524, 697.750 627.749 C 697.250 626.247, 694.399 625.545, 693.659 626.742 M 777.074 626.954 C 775.496 627.930, 776.505 630, 778.559 630 C 780.079 630, 780.562 627.465, 779.202 626.625 C 778.763 626.354, 777.806 626.502, 777.074 626.954 M 844.655 628.829 C 841.040 632.824, 844.105 640, 849.427 640 C 852.598 640, 856.267 635.449, 855.399 632.593 C 853.756 627.183, 847.976 625.159, 844.655 628.829 M 845.154 631.438 C 845.345 632.355, 845.950 633.082, 846.500 633.053 C 847.984 632.974, 847.712 630.737, 846.154 630.218 C 845.313 629.938, 844.939 630.395, 845.154 631.438 M 746.179 633.972 C 743.381 637.756, 743.246 644.007, 745.909 646.418 C 748.381 648.655, 749.200 646.517, 749.200 637.831 C 749.200 630.563, 748.943 630.234, 746.179 633.972 M 663.667 637.667 C 662.299 639.034, 663.077 641.724, 665.500 644 C 668.881 647.176, 668.657 649.966, 664.759 653.223 C 662.967 654.721, 662.013 655.958, 662.639 655.973 C 663.266 655.988, 664.822 655.155, 666.096 654.123 C 668.382 652.272, 668.468 652.281, 672.228 654.769 C 677.164 658.036, 678.213 657.027, 673.566 653.482 C 669.230 650.176, 668.733 646.535, 672.487 645.593 C 673.855 645.249, 675.743 643.796, 676.682 642.363 C 678.306 639.884, 678.297 639.691, 676.503 638.379 C 674.592 636.981, 664.890 636.443, 663.667 637.667 M 665 640.345 C 665 641.883, 668.143 645, 669.694 645 C 671.420 645, 676.060 640.905, 675.451 639.920 C 674.508 638.395, 665 638.782, 665 640.345 M 787.500 641.837 C 784.200 642.829, 778.350 645.037, 774.500 646.743 C 770.650 648.448, 766.244 650.158, 764.708 650.541 C 763.172 650.924, 760.619 652.534, 759.035 654.119 C 754.655 658.498, 749.827 657.307, 746.711 651.079 C 745.256 648.169, 743 647.189, 743 649.466 C 743 651.611, 740.276 656.942, 737.789 659.665 C 735.813 661.828, 735.813 661.831, 738.156 663.350 C 745.807 668.312, 756.009 670.489, 771.500 670.464 C 787.470 670.438, 793.329 669.345, 805 664.212 C 808.025 662.881, 813.650 660.983, 817.500 659.993 C 822.806 658.629, 824.429 657.807, 824.206 656.597 C 824.027 655.623, 824.612 654.994, 825.706 654.985 C 832.686 654.925, 828.970 649.115, 818.500 643.718 C 810.784 639.741, 797.210 638.917, 787.500 641.837 M 855.769 643.081 C 849.882 644.469, 834.665 652.521, 830.759 656.314 C 828.805 658.212, 826.597 660.046, 825.853 660.389 C 825.109 660.732, 826.413 660.828, 828.750 660.602 C 831.087 660.375, 833 660.541, 833 660.970 C 833 662.227, 827.666 662.934, 823.939 662.170 C 819.951 661.353, 815 661.773, 815 662.928 C 815 664.347, 826.097 666, 835.618 666 C 846.565 666, 851.871 665.033, 866 660.462 C 874.723 657.640, 886.373 655.040, 890.441 655.008 C 890.959 655.003, 890.509 654.334, 889.441 653.519 C 887.784 652.255, 887.715 651.897, 888.971 651.073 C 890.734 649.918, 890.646 649.824, 885.280 647.118 C 876.234 642.557, 864.689 640.977, 855.769 643.081 M 747.674 658.118 C 750.505 660.949, 759.317 661.730, 764.411 659.602 C 768.724 657.799, 768.870 656.338, 764.574 657.972 C 760.854 659.386, 754.272 659.187, 749.591 657.519 C 745.687 656.128, 745.685 656.129, 747.674 658.118 M 731.472 665.942 C 730.388 667.009, 726.953 669.214, 723.840 670.841 L 718.180 673.798 721.111 676.606 C 722.723 678.151, 725.682 681.796, 727.687 684.707 C 729.692 687.618, 731.423 690, 731.534 690 C 731.646 690, 733.462 687.049, 735.571 683.443 C 737.680 679.837, 740.858 675.190, 742.632 673.117 L 745.859 669.347 740.407 666.674 C 733.897 663.481, 733.966 663.487, 731.472 665.942 M 805.704 666.180 L 800.908 668.295 803.597 671.101 L 806.285 673.907 809.149 669.953 C 810.724 667.779, 812.486 666, 813.065 666 C 813.644 666, 813.840 665.550, 813.500 665 C 812.613 663.565, 811.122 663.791, 805.704 666.180 M 853.500 666.160 C 851.300 666.684, 848.546 667.307, 847.380 667.543 L 845.261 667.973 847.077 674.523 C 849.345 682.702, 853 703.987, 853 709.017 C 853 712.200, 853.387 712.880, 855.500 713.411 C 858.585 714.185, 858.638 715.722, 855.885 724.645 C 852.611 735.260, 848.631 742.248, 842.951 747.354 C 838.814 751.074, 838.199 752, 839.866 752 C 843.722 752, 849.327 768.120, 849.167 778.751 C 849.043 787.006, 850.863 788.403, 860.994 787.831 C 870.648 787.285, 871.648 786.175, 869.996 777.838 C 869.051 773.068, 868.958 766.599, 869.620 751.687 L 870.500 731.874 868.121 729.687 C 864.908 726.733, 863.496 723.091, 861.578 712.808 C 860.687 708.028, 858.617 699.605, 856.979 694.090 C 853.962 683.937, 853.262 680.133, 854.937 683 C 856.795 686.180, 861.218 701.394, 863.541 712.595 C 866.011 724.510, 867.489 727.461, 871.815 729.115 C 877.592 731.324, 881.572 724.454, 880.542 714.054 C 878.683 695.275, 871.022 675.474, 862.663 667.840 C 859.285 664.754, 859.349 664.766, 853.500 666.160 M 812.887 668.750 C 808.031 674.119, 807.766 674.693, 809.038 677.071 C 809.975 678.822, 810.394 678.988, 811.092 677.885 C 811.700 676.925, 811.974 677.497, 811.985 679.750 C 812.009 684.922, 813.320 683.546, 815.806 675.741 C 817.075 671.758, 818.350 667.938, 818.640 667.250 C 819.642 664.872, 815.392 665.980, 812.887 668.750 M 817.354 676.390 L 814.364 685.500 817.618 694.630 C 819.408 699.652, 821.408 706.627, 822.063 710.130 C 823.856 719.724, 823.759 719.528, 825.807 717.674 C 829.706 714.146, 836.953 711.863, 844.348 711.834 L 851.597 711.806 850.838 704.705 C 849.942 696.318, 845.139 670.825, 844.172 669.322 C 843.802 668.746, 838.307 668.053, 831.922 667.778 L 820.344 667.279 817.354 676.390 M 795.071 670.152 C 793.735 670.656, 790.360 671.404, 787.571 671.815 C 781.519 672.707, 781.641 671.247, 785.921 691.500 C 790.032 710.956, 791.020 727.412, 788.528 734.915 C 785.423 744.263, 777.307 750.926, 768.962 750.978 C 766.012 750.996, 764.806 751.738, 761.711 755.441 C 757.239 760.791, 757.545 761.068, 768.697 761.764 C 778.840 762.397, 779.157 762.731, 784.111 778 C 786.837 786.401, 787.119 788.343, 786.552 794.782 L 785.911 802.065 789.700 803.648 C 795.207 805.949, 807.365 805.080, 810.267 802.178 C 812.254 800.191, 812.308 799.689, 811.186 793.782 C 810.453 789.929, 810.050 779.111, 810.144 765.801 L 810.297 744.102 807.254 740.637 C 803.599 736.474, 802.820 734.177, 799.577 718 C 798.199 711.125, 795.930 702.159, 794.535 698.075 C 791.781 690.009, 791.514 688.582, 792.921 689.451 C 794.619 690.501, 800.031 708.545, 802.496 721.379 C 803.839 728.370, 805.243 734.632, 805.618 735.295 C 809.107 741.479, 814.939 742.829, 819.076 738.410 C 824.644 732.460, 820.840 704.582, 812.083 687.165 C 805.747 674.562, 799.621 668.437, 795.071 670.152 M 744.494 674.250 C 740.142 679.302, 733 691.203, 733 693.404 C 733 694.260, 733.751 696.837, 734.670 699.132 L 736.339 703.305 739.808 692.402 C 744.257 678.420, 745.239 680.646, 741.009 695.123 C 738.245 704.579, 737.931 706.748, 738.739 710.799 C 739.647 715.357, 739.697 715.409, 740.381 712.500 C 744.255 696.027, 747.645 683.414, 749.614 678.146 C 753.122 668.759, 750.768 666.968, 744.494 674.250 M 749.642 683.829 C 742.797 705.805, 740.994 717.361, 742.502 729.599 L 743.253 735.697 747.877 733.489 C 755.248 729.968, 759.960 728.732, 763.697 729.338 C 770.503 730.443, 771.563 733.867, 768.001 743.239 C 766.901 746.133, 766.001 748.612, 766.001 748.750 C 765.998 749.966, 774.347 748.487, 777.470 746.718 C 789.678 739.804, 791.086 724.067, 782.951 685.487 C 781.769 679.883, 780.509 674.847, 780.151 674.297 C 779.793 673.746, 773.600 673.039, 766.389 672.727 L 753.278 672.158 749.642 683.829 M 413.597 676.959 C 405.269 681.639, 392.982 686.590, 384.502 688.683 L 378.269 690.221 377.139 695.361 C 370.996 723.311, 372.618 748.645, 381.672 766.136 C 386.402 775.275, 386.696 776.140, 384.005 773 C 380.844 769.313, 375.307 757.433, 373.286 750 C 370.084 738.228, 371.315 707.611, 375.567 693.250 C 376.221 691.041, 376.079 691, 367.731 691 L 359.228 691 357.148 702.250 C 352.427 727.787, 352.401 728.814, 354.965 785.500 C 356.190 812.578, 358.987 827.067, 367.007 847.862 C 369.891 855.342, 370.098 855.592, 374.420 856.868 C 379.505 858.370, 384.474 861.634, 380 860.534 C 361.159 855.900, 346.890 858.470, 338.768 867.958 C 332.735 875.006, 331.030 885.801, 335.314 889.826 C 338.286 892.617, 338.830 892.564, 338.252 889.539 C 336.967 882.815, 342.858 870.676, 348.931 867.536 C 353.160 865.349, 353.133 865.503, 348.443 870.398 C 343.573 875.481, 340.731 882.834, 341.190 889.164 C 341.487 893.266, 341.700 893.523, 346.180 895.181 C 348.754 896.133, 353.070 897.206, 355.771 897.564 L 360.682 898.216 360.233 892.795 C 359.687 886.209, 362.715 878.259, 367.210 874.477 C 371.183 871.134, 373.005 871.326, 369.801 874.750 C 365.768 879.061, 363.779 883.884, 363.234 890.678 C 362.603 898.533, 364.122 899.430, 376.450 898.486 C 403.569 896.408, 421.951 892.446, 427.835 887.409 C 432.478 883.435, 432.503 883.355, 434.471 865.598 C 436.721 845.304, 440.723 827.488, 445.445 816.750 C 446.037 815.402, 445.743 815, 444.164 815 C 437.043 815, 412.722 804.656, 405.500 798.555 C 402.957 796.407, 403.851 796.645, 411.367 800.114 C 429.909 808.671, 442.286 811.826, 467.772 814.490 C 487.647 816.568, 491.369 818.865, 500.856 834.903 C 510.811 851.733, 516.507 865.566, 520.600 882.848 C 523.825 896.469, 524.878 898.306, 531.233 901.404 C 540.159 905.754, 560.860 909.988, 573.250 909.997 L 577 910 576.994 904.250 C 576.987 896.638, 575.642 892.155, 571.536 886.054 C 569.061 882.376, 568.651 881.278, 570.028 882.015 C 575.498 884.943, 580 895.211, 580 904.760 L 580 910.203 587.250 909.522 C 598.554 908.461, 601.874 907.349, 602.621 904.375 C 604.355 897.463, 600.828 885.752, 595.203 879.750 C 591.804 876.123, 593.686 876.207, 597.685 879.860 C 603.013 884.726, 605.389 890.506, 605.448 898.745 C 605.477 902.730, 605.635 905.992, 605.800 905.995 C 606.623 906.009, 612.719 902.567, 614.250 901.224 C 616.593 899.170, 616.522 891.726, 614.110 886.500 C 607.933 873.118, 588.544 865.149, 568.833 867.890 C 564.711 868.464, 560.514 869.249, 559.505 869.636 C 558.248 870.119, 557.897 869.976, 558.387 869.183 C 559.716 867.032, 570.365 864.635, 578.896 864.567 L 587.292 864.500 586.663 845 C 585.558 810.747, 581.925 773.288, 576.480 740 C 570.902 705.899, 568.008 685.839, 568.004 681.250 C 568.002 678.913, 567.550 677, 567 677 C 566.450 677, 566 677.355, 566 677.789 C 566 679.856, 552.093 693.462, 545.418 697.927 C 535.334 704.671, 527.499 707, 514.895 707 C 509.453 707, 505 707.337, 505 707.750 C 505 708.163, 505.675 712.027, 506.500 716.338 C 508.523 726.911, 508.466 747.472, 506.390 755.936 C 504.594 763.258, 499.814 774.079, 497.544 775.963 C 496.730 776.639, 497.400 774.517, 499.034 771.248 C 505.940 757.429, 507.847 738.032, 504.364 717.057 L 502.727 707.204 493.614 705.548 C 474.329 702.043, 451.092 692.385, 432 679.940 C 420.059 672.156, 421.677 672.418, 413.597 676.959 M 653.464 677.686 C 640.888 690.453, 627 720.893, 627 735.692 C 627 741.009, 629.143 746.471, 631.784 747.884 C 634.513 749.345, 635 748.467, 635.001 742.083 C 635.003 734.933, 637.280 722.023, 640.565 710.529 C 643.237 701.184, 650.888 683.805, 652.871 682.580 C 654.491 681.578, 654.406 681.841, 650.090 691.183 C 643.572 705.292, 637.013 730.910, 637.003 742.297 L 637 746.093 639.469 744.297 C 641.458 742.849, 641.943 741.616, 641.969 737.946 C 642.036 728.166, 650.791 717.093, 661.677 713.020 C 667.369 710.890, 669.307 711.038, 668.351 713.528 C 667.749 715.097, 668.943 715.021, 679.500 712.821 C 684.919 711.691, 691.022 708.628, 692.300 706.397 C 693.440 704.405, 695.754 704.671, 696.965 706.934 C 698.459 709.726, 698.191 713.757, 696.113 719.773 C 694.459 724.562, 694.446 724.906, 695.975 723.523 C 699.950 719.925, 701.229 723.123, 698.462 729.746 C 697.616 731.770, 696.230 734.193, 695.383 735.129 C 694.536 736.066, 693.703 738.101, 693.533 739.653 C 693.092 743.670, 685.494 750.197, 677.997 753.001 C 669.916 756.023, 660.280 756.102, 653.719 753.200 L 648.985 751.106 645.109 756.303 C 637.184 766.928, 637.189 766.881, 641.655 791.453 C 643.032 799.028, 643.068 800.475, 641.891 800.857 C 639.591 801.604, 633 808.647, 633 810.359 C 633 815.174, 647.321 817.091, 661.118 814.122 C 669.646 812.287, 669.937 811.889, 671.090 800.484 C 671.646 794.993, 672.716 787.810, 673.469 784.523 C 675.088 777.452, 675.077 777.425, 670.296 776.528 C 666.351 775.788, 660.521 773.146, 661.242 772.425 C 661.477 772.190, 665.191 772.898, 669.495 773.999 C 673.799 775.099, 680.151 776, 683.611 776 L 689.902 776 693.613 782.636 C 700.231 794.470, 703.119 804.411, 701.375 809.351 C 698.408 817.756, 702.057 820.527, 716 820.457 C 728.214 820.396, 731.407 818.585, 730.603 812.175 C 730.280 809.604, 729.731 795.465, 729.383 780.755 L 728.751 754.009 725.626 752.074 C 720.954 749.181, 719.165 745.276, 716.412 731.963 C 715.038 725.322, 712.094 714.704, 709.869 708.366 C 705.607 696.231, 705.310 691.929, 709.366 701.102 C 712.943 709.190, 716.686 721.654, 718.532 731.626 C 720.788 743.817, 723.007 748.559, 727.447 750.676 C 738.646 756.017, 743.593 742.119, 738.545 719.500 C 734.628 701.947, 728.348 687.892, 720.601 679.335 L 716.419 674.715 707.459 676.360 C 692.490 679.107, 668.455 678.188, 658.861 674.501 C 657.763 674.079, 655.980 675.131, 653.464 677.686 M 897.994 703.934 C 890.051 706.350, 885.307 710.686, 891.730 709.659 C 897.125 708.796, 898.782 710.587, 896.563 714.879 C 894.329 719.199, 894.521 719.614, 899.213 720.608 C 905.142 721.864, 907.132 725.404, 904.734 730.433 L 903.032 734 906.965 734 C 911.517 734, 914.571 730.761, 917.336 723 C 919.587 716.681, 921.985 706.785, 921.468 705.948 C 920.009 703.587, 903.726 702.191, 897.994 703.934 M 693.682 709.764 C 691.990 712.381, 684.802 715.027, 675.313 716.529 C 669.916 717.383, 664.644 718.340, 663.599 718.656 C 662.148 719.095, 661.844 718.848, 662.317 717.615 C 664.291 712.472, 652.210 721.079, 648.450 727.495 C 645.097 733.217, 643.518 739.715, 645.037 741.544 C 645.877 742.557, 645.489 743.289, 643.381 744.670 C 641.866 745.662, 637.171 750.846, 632.947 756.189 C 620.400 772.060, 616.562 774.485, 604 774.477 C 596.682 774.473, 594.775 774.092, 590.283 771.736 C 587.414 770.231, 584.918 769, 584.736 769 C 584.555 769, 584.877 772.909, 585.453 777.688 L 586.500 786.376 590 787.291 C 596.077 788.880, 608.846 787.594, 615.125 784.760 C 623.238 781.098, 628.358 775.981, 636.601 763.299 C 641.301 756.069, 645.373 751.018, 648.091 749.049 C 652.980 745.507, 656.412 744.782, 653.604 747.885 C 651.975 749.686, 652.041 749.819, 655.099 750.885 C 660.254 752.682, 671.260 752.249, 677.234 750.014 C 682.293 748.121, 691.933 741.060, 687.500 742.493 C 680.432 744.779, 677.108 743.768, 683.048 741.139 C 688.879 738.558, 694.861 732.321, 696.469 727.146 L 697.201 724.792 694.350 726.849 C 692.783 727.980, 690.150 729.228, 688.500 729.623 L 685.500 730.340 688.627 726.775 C 692.409 722.464, 695.281 715.343, 694.830 711.395 C 694.610 709.461, 694.229 708.919, 693.682 709.764 M 888 711.732 C 884.075 712.454, 883.276 713.654, 882.786 719.563 C 882.245 726.086, 879.657 730.093, 875.148 731.386 C 872.083 732.265, 872 732.443, 872 738.086 C 872 744.674, 871.998 744.672, 879.074 746.014 C 888.931 747.883, 904.869 742.850, 908.078 736.854 C 909.187 734.782, 909.085 734.731, 905.113 735.366 C 900.602 736.087, 899.895 735.045, 902.532 731.559 C 906.156 726.767, 903.742 722, 897.691 722 C 893.843 722, 893.789 721.949, 894.286 718.750 C 894.564 716.962, 895.116 714.487, 895.512 713.250 C 896.275 710.869, 894.569 710.524, 888 711.732 M 838 714.372 C 835.525 715.052, 831.475 716.745, 829 718.134 C 824.524 720.646, 824.499 720.691, 824.243 726.580 C 823.797 736.826, 820.886 742.207, 815.102 743.478 C 812.369 744.078, 812.278 744.287, 812.773 748.801 C 813.426 754.744, 814.125 755.201, 821.755 754.667 C 829.456 754.128, 837.020 750.613, 842.453 745.049 L 846.406 741 843.703 741 C 840.578 741, 840.469 740.516, 842.493 735.670 C 844.631 730.554, 843.158 727, 838.900 727 C 835.910 727, 835.781 726.843, 836.371 723.895 C 836.991 720.793, 836.989 720.791, 832.996 721.172 C 830.604 721.400, 829 721.127, 829 720.491 C 829 719.903, 830.896 719.445, 833.250 719.465 C 837.023 719.496, 837.535 719.780, 837.808 722 C 838.013 723.671, 839.174 724.997, 841.308 726 C 845.115 727.789, 846.029 732.232, 843.593 737.113 C 842.208 739.891, 842.209 740.134, 843.611 739.596 C 844.465 739.268, 845.793 739, 846.561 739 C 848.336 739, 851.182 733.425, 853.887 724.645 C 856.752 715.348, 856.746 715.326, 850.951 714.083 C 844.830 712.770, 843.739 712.794, 838 714.372 M 754.799 732.586 C 750.445 733.925, 747.493 736, 749.941 736 C 750.523 736, 751 736.675, 751 737.500 C 751 739.315, 749.347 739.496, 748.712 737.750 C 747.645 734.818, 743.623 739.130, 742.501 744.409 C 741.726 748.052, 735.896 754, 733.100 754 C 731.225 754, 731 754.581, 731 759.421 C 731 764.639, 731.113 764.866, 734.022 765.505 C 743.758 767.643, 757.570 760.533, 762.609 750.790 C 764.120 747.868, 764.107 747.831, 761.822 748.525 C 760.545 748.913, 759.275 749.232, 759 749.234 C 756.749 749.248, 756.286 748.542, 756.386 745.250 C 756.495 741.661, 756.361 741.500, 753.250 741.510 C 749.290 741.521, 749.012 740.465, 752.729 739.532 C 756.179 738.666, 758.978 741.664, 758.254 745.451 C 757.252 750.694, 764.005 746.945, 766.415 740.920 C 770.216 731.421, 766.725 728.916, 754.799 732.586 M 831.124 756.195 C 830.646 757.463, 829.937 759.962, 829.548 761.750 L 828.841 765 836.921 765 C 841.364 765, 845 764.888, 844.999 764.750 C 844.999 764.612, 844.146 762.250, 843.105 759.500 C 841.244 754.585, 841.133 754.495, 836.602 754.195 C 832.566 753.928, 831.884 754.177, 831.124 756.195 M 812.996 761 C 812.993 763.475, 812.699 769.888, 812.344 775.250 L 811.698 785 814.381 785 C 817.822 785, 823.892 782.475, 824.488 780.795 C 824.741 780.083, 825.606 774.998, 826.411 769.496 C 827.215 763.994, 828.132 758.819, 828.448 757.996 C 828.929 756.745, 827.713 756.500, 821.013 756.500 L 813.003 756.500 812.996 761 M 750.307 764.624 C 747.450 765.975, 742.838 767.350, 740.057 767.680 C 737.276 768.009, 735.008 768.553, 735.017 768.889 C 735.027 769.225, 735.699 773.550, 736.510 778.500 C 737.980 787.466, 737.977 787.506, 735.743 789.228 C 734.509 790.178, 733.138 790.966, 732.695 790.978 C 732.253 790.990, 732.028 793.138, 732.195 795.750 L 732.500 800.500 743 800.437 C 757.972 800.348, 759.568 799.375, 760.492 789.778 C 761.288 781.511, 763.483 768.306, 764.465 765.869 C 764.952 764.660, 764.292 763.949, 761.912 763.119 C 757.576 761.608, 756.344 761.768, 750.307 764.624 M 609 766.558 C 608.175 766.737, 603.450 767.198, 598.500 767.583 C 590.037 768.240, 589.679 768.358, 592.500 769.551 C 600.256 772.830, 610.384 772.176, 617.320 767.946 L 620.500 766.007 615.500 766.120 C 612.750 766.181, 609.825 766.379, 609 766.558 M 731 778.500 C 731 789.163, 731.291 789.973, 734.323 787.750 C 735.814 786.657, 735.899 785.748, 734.998 780.500 C 734.431 777.200, 733.729 773.038, 733.438 771.250 C 732.324 764.401, 731 768.336, 731 778.500 M 631.735 776.134 C 628.168 780.744, 628.089 780.999, 630.235 780.986 C 635.668 780.954, 637 779.960, 637 775.942 C 637 770.546, 636.031 770.581, 631.735 776.134 M 447.175 821.261 C 446.063 824.233, 444.844 828.315, 444.465 830.332 L 443.777 834 452.228 834 C 456.876 834, 468.924 834.299, 479 834.664 L 497.321 835.327 494.260 830.914 C 487.264 820.824, 484.616 819.546, 467.500 817.998 C 461.450 817.450, 454.857 816.745, 452.849 816.430 C 449.204 815.859, 449.193 815.868, 447.175 821.261 M 345.500 829 C 340.547 830.104, 338.643 830.835, 340.500 830.922 C 342.150 830.998, 346.833 831.330, 350.906 831.659 C 357.618 832.200, 358.251 832.096, 357.656 830.546 C 357.295 829.606, 357 828.423, 357 827.918 C 357 826.695, 355.004 826.882, 345.500 829" stroke="none" fill="#1a1a1a" fill-rule="evenodd"/>
</svg>