<svg xmlns="http://www.w3.org/2000/svg" width="1024" height="1024" viewBox="0 0 1024 1024" version="1.1">
	<path d="M 554.500 151.928 C 541.724 156.482, 529.407 164.898, 522.499 173.794 L 517.995 179.594 510.247 175.786 C 484.593 163.179, 455.146 160.635, 428.578 168.730 C 420.587 171.165, 420.611 172.379, 428.699 175.042 C 432.440 176.274, 438.650 178.895, 442.500 180.867 L 449.500 184.454 436.823 185.138 C 414.217 186.360, 393.584 191.482, 370.661 201.565 C 349.483 210.879, 347.661 213, 360.835 213 C 365.786 213, 370.535 213.268, 371.389 213.596 C 374.191 214.671, 350.429 225.748, 342.681 226.978 C 307.858 232.507, 285.992 268.828, 295.109 306.002 L 297.218 314.601 292.501 321.893 C 283.160 336.332, 276.309 353.634, 273.374 370.199 C 270.877 384.291, 271.434 384.681, 281.089 375.598 C 291.375 365.922, 292.418 365.738, 289.453 374.124 C 284.183 389.029, 277.106 425.004, 275.116 447 C 272.534 475.542, 272.898 479.181, 277.716 473 C 281.592 468.027, 291.247 457.914, 291.693 458.359 C 291.899 458.565, 291.050 462.281, 289.808 466.617 C 286.794 477.131, 286.504 501.890, 289.277 511.934 C 293.226 526.238, 300.782 539.530, 311.243 550.571 C 318.875 558.627, 320.181 558.484, 318.360 549.791 C 317.635 546.331, 317.069 541.250, 317.103 538.500 L 317.164 533.500 320.552 540.750 C 330 560.971, 343.680 574.852, 367.664 588.552 L 374.828 592.644 369.399 594.490 C 362.739 596.753, 353.805 602.497, 346.358 609.304 C 341.715 613.547, 340.198 614.381, 337.534 614.151 C 333.768 613.827, 328 619.398, 328 623.360 C 328 624.620, 326.875 626.708, 325.500 628 C 321.889 631.392, 322.340 634.215, 327.250 638.942 C 333.712 645.163, 338.552 645.136, 340.542 638.868 C 340.906 637.720, 342.070 637, 343.561 637 C 346.945 637, 352.295 629.622, 351.509 626.040 C 351.046 623.935, 351.798 622.656, 355.723 618.872 C 360.200 614.554, 367.711 609, 369.072 609 C 369.406 609, 365.457 621.263, 360.296 636.250 C 344.268 682.794, 344.016 689.404, 357.756 702.750 L 364.190 709 340.718 709 C 323.149 709, 316.989 709.314, 316.228 710.250 C 313.640 713.429, 304.920 731.061, 305.484 731.974 C 305.833 732.538, 308.341 733, 311.059 733 L 316 733 316 739.640 C 316 744.783, 315.606 746.583, 314.250 747.627 C 312.611 748.890, 312.653 749.095, 314.916 750.867 C 317.629 752.992, 317.323 753.219, 309.990 754.513 C 303.347 755.686, 295.077 750.593, 297.195 746.636 C 300.640 740.199, 299.948 732.581, 295.301 725.771 L 292.757 722.041 295.945 718.410 C 305.186 707.885, 301.768 694.731, 289 691.684 C 286.596 691.110, 286.500 690.786, 286.500 683.223 C 286.500 648.806, 242.655 649.114, 241.682 683.538 C 241.507 689.742, 241.404 689.982, 238.929 689.991 C 237.515 689.996, 233.932 691.237, 230.967 692.750 C 218.310 699.205, 217.537 714.261, 229.329 724.640 L 233.741 728.524 231.406 731.932 C 222.534 744.880, 232.125 760.481, 251.389 764.437 L 257.500 765.692 257.197 774.596 C 256.704 789.058, 256.918 788.636, 249.700 789.330 C 246.290 789.658, 236.373 790.234, 227.662 790.611 C 215.512 791.137, 211.699 791.621, 211.288 792.691 C 210.994 793.458, 210.969 794.302, 211.233 794.566 C 211.497 794.830, 228.765 794.141, 249.606 793.036 C 298.288 790.453, 317.903 790.176, 324.643 791.977 C 329.359 793.237, 330.323 793.175, 336.221 791.239 C 345.971 788.039, 411.442 786.628, 412.352 789.599 C 412.672 790.644, 414.094 800.725, 415.511 812 C 419.355 842.570, 421.447 849.833, 428.002 855.348 C 440.676 866.013, 499.508 868.473, 517.781 859.102 C 524.335 855.741, 526.359 852.722, 526.810 845.635 C 527.569 833.722, 519.579 824.441, 505.515 820.899 L 500.727 819.694 501.358 811.597 C 501.704 807.144, 501.991 800.688, 501.994 797.250 L 502 791 506.058 791 C 508.291 791, 514.441 790.469, 519.726 789.819 L 529.335 788.638 532.249 792.069 C 537.447 798.188, 543.673 809.803, 550.068 825.314 C 559.554 848.323, 563.497 853.540, 573.731 856.620 C 586.311 860.406, 607.900 855.797, 629.120 844.795 C 647.687 835.170, 655.163 827.273, 655.770 816.644 C 656.242 808.366, 654.183 804.793, 645.448 798.731 C 637.165 792.984, 632.625 791.615, 624.845 792.518 C 621.107 792.952, 619 792.830, 619 792.180 C 619 791.621, 618.713 790.415, 618.362 789.501 C 617.774 787.970, 619.498 787.887, 640.112 788.457 C 709.092 790.365, 769.544 792.797, 803 795.010 C 821.586 796.239, 821 796.255, 821 794.519 C 821 792.650, 818.988 792.254, 806 791.572 C 773.520 789.865, 758.425 788.806, 757.827 788.191 C 757.457 787.811, 756.839 781.847, 756.452 774.937 L 755.750 762.374 761.552 761.076 C 774.093 758.269, 782.400 752.852, 786.365 744.895 C 790.279 737.040, 789.486 727.510, 784.457 721.952 C 783.142 720.499, 783.603 719.715, 788.890 714.415 C 796.275 707.011, 798.662 700.507, 796.975 692.381 C 795.100 683.350, 785.745 675.080, 777.337 675.022 L 774.174 675 774.125 668.639 C 773.887 637.566, 738.179 625.639, 725.804 652.500 C 723.898 656.636, 723.500 659.185, 723.500 667.250 L 723.500 677 720.398 677 C 716.565 677, 711.289 680.448, 708.274 684.922 C 703.951 691.336, 705.815 701.132, 712.704 708.202 L 716.311 711.903 713.483 715.611 C 700.964 732.025, 712.358 754.908, 735.645 760.120 C 738.641 760.790, 741.281 761.645, 741.512 762.019 C 741.929 762.694, 740.493 778.393, 739.424 784.861 L 738.868 788.222 722.684 787.586 C 713.783 787.236, 703.462 786.691, 699.750 786.374 L 693 785.797 693 757.399 L 693 729 697.378 729 C 704.450 729, 704.521 727.787, 698.143 716 L 692.460 705.500 664.926 705.235 L 637.391 704.969 636.117 694.735 C 633.806 676.170, 625.357 647.451, 616.690 628.702 C 614.232 623.384, 613.470 620.778, 614.293 620.508 C 614.957 620.290, 619.857 618.981, 625.182 617.598 C 643.709 612.787, 661.234 605.343, 673.455 597.095 C 676.730 594.884, 679.575 593.242, 679.778 593.445 C 680.391 594.058, 677.310 599.441, 673.460 604.484 C 667.260 612.607, 671.692 612.462, 689.778 603.950 C 717.848 590.739, 738.041 572.264, 750.931 548 L 755.978 538.500 755.399 543.500 C 755.080 546.250, 754.185 551.124, 753.410 554.331 C 750.673 565.650, 751.424 566.226, 759.174 558.750 C 776.060 542.461, 786 516.809, 786 489.521 C 786 479.731, 784.293 465.258, 782.444 459.375 C 782.120 458.344, 785.631 461.438, 790.247 466.250 C 794.862 471.063, 799.015 475, 799.474 475 C 800.638 475, 799.351 450.621, 797.463 436.885 C 794.387 414.501, 789.379 395.911, 781.459 377.471 C 779.432 372.753, 777.960 368.706, 778.188 368.479 C 778.415 368.252, 782.403 370.938, 787.050 374.448 C 791.811 378.044, 795.888 380.458, 796.388 379.978 C 799.160 377.313, 788.503 346.606, 779.107 330.188 C 774.238 321.678, 773.994 320.936, 775.368 318.792 C 781.146 309.781, 783.743 287.109, 780.526 273.765 C 774.654 249.410, 755.567 230.621, 733 226.981 C 726.913 225.999, 724.211 224.918, 718.657 221.247 C 714.894 218.759, 707.244 214.423, 701.657 211.611 L 691.500 206.500 702.250 206.216 C 716.239 205.847, 716.309 204.679, 702.750 197.874 C 682.690 187.808, 661.391 180.763, 642.626 177.989 C 633.246 176.603, 609.439 176.495, 602.750 177.809 C 600.138 178.322, 598 178.438, 598 178.067 C 598 176.018, 610.048 166.670, 619.296 161.544 C 628.665 156.350, 627.793 155.474, 613.404 155.625 C 593.070 155.838, 575.318 160.377, 557.426 169.937 C 549.310 174.274, 548.093 174.686, 549.094 172.758 C 551.330 168.451, 558.824 158.482, 562.403 155.054 C 564.381 153.158, 566 151.246, 566 150.804 C 566 149.443, 559.762 150.053, 554.500 151.928 M 547.368 159.351 C 535.700 165.641, 527.701 172.767, 521 182.845 L 519.500 185.100 510.500 180.609 C 493.353 172.053, 478.824 168.539, 460.500 168.515 C 448.322 168.500, 434 170.432, 434 172.090 C 434 172.591, 434.473 173, 435.052 173 C 438.507 173, 461.779 186.840, 461.956 189 C 461.978 189.275, 454.460 189.521, 445.248 189.547 C 421.973 189.611, 404.989 192.858, 382.295 201.582 C 364.140 208.560, 364.202 208.499, 374.114 209.793 C 378.726 210.396, 384.975 211.441, 388 212.117 L 393.500 213.346 388 214.498 C 377.194 216.761, 356.815 225.317, 358.569 226.854 C 359.081 227.302, 361.648 228.460, 364.273 229.426 C 375.398 233.521, 388.965 245.670, 396.152 257.974 L 399.479 263.671 405.789 260.718 C 413.301 257.203, 415.013 257.585, 408.255 261.269 C 399.523 266.028, 389.612 273.714, 377 285.506 C 370.125 291.934, 361.667 299.229, 358.204 301.717 C 354.741 304.205, 352.110 306.443, 352.356 306.689 C 353.187 307.520, 364.061 305.066, 368.758 302.989 L 373.417 300.928 365.849 308.714 C 354.965 319.912, 347.429 332.421, 342.645 347.226 C 338.350 360.522, 338.387 361.169, 343.059 354.500 C 348.611 346.574, 355.134 338.801, 355.731 339.398 C 355.994 339.660, 353.498 343.616, 350.185 348.188 C 346.872 352.759, 342.240 360.072, 339.893 364.437 C 337.545 368.802, 335.449 371.846, 335.233 371.200 C 334.861 370.084, 336.496 357.883, 337.620 353.388 C 338.056 351.642, 337.398 350.977, 333.824 349.552 C 322.117 344.883, 308.222 333.354, 302.467 323.534 L 299.678 318.775 297.825 321.138 C 291.844 328.765, 279.529 358.024, 277.460 369.524 L 276.745 373.500 279.622 370.868 C 282.859 367.908, 299.541 356, 300.451 356 C 300.775 356, 300.194 357.688, 299.158 359.750 C 291.665 374.679, 280.736 424.769, 278.485 454.500 C 278.152 458.900, 277.695 463.427, 277.469 464.559 C 277.211 465.848, 281.442 462.357, 288.779 455.227 C 303.943 440.488, 304.837 440.031, 300.460 449.247 C 286.773 478.068, 288.553 511.250, 305.114 536.009 C 313.429 548.441, 313.489 548.456, 313.559 538.165 C 313.591 533.399, 313.889 525.900, 314.220 521.500 C 314.552 517.100, 314.895 511.925, 314.982 510 C 315.096 507.474, 315.795 509.282, 317.495 516.500 C 325.590 550.862, 340.145 568.946, 374.299 587.077 C 384.991 592.753, 385.809 592.953, 383.194 589.250 C 378.432 582.510, 370.210 564, 371.977 564 C 372.466 564, 373.162 564.936, 373.525 566.079 C 374.525 569.231, 386.667 581.662, 393.525 586.555 C 407.323 596.401, 426.651 604.312, 454.500 611.512 C 462.200 613.503, 469.320 615.368, 470.322 615.656 C 471.323 615.944, 468.847 612.877, 464.819 608.840 C 457.246 601.250, 450.130 592, 451.865 592 C 452.410 592, 453.675 593.013, 454.678 594.250 C 459.812 600.584, 475.557 612.458, 489.409 620.441 C 493.610 622.863, 494.209 622.999, 493.562 621.385 C 489.925 612.318, 488.789 608.878, 489.271 608.396 C 491.138 606.529, 510.926 622.466, 517.347 631.008 L 522 637.198 521.956 633.349 C 521.932 631.232, 521.264 627.700, 520.471 625.500 C 518.623 620.369, 518.626 620.352, 521.032 622.529 C 524.042 625.253, 529.043 634.455, 530.884 640.656 L 532.500 646.099 539.998 640.934 C 548.945 634.771, 555.325 629.699, 564.893 621.147 C 572.723 614.148, 573.172 614.292, 569.487 622.625 C 566.484 629.415, 566.585 629.646, 571.182 626.522 C 573.145 625.188, 579.420 621.553, 585.126 618.445 C 599.374 610.681, 608.177 604.701, 615.657 597.704 C 624.330 589.591, 623.613 591.756, 613.750 603.465 C 601.914 617.517, 600.760 619.001, 601.678 618.995 C 603.784 618.982, 633.329 610.846, 640 608.442 C 664.853 599.485, 683.178 586.978, 696.323 570 L 699.032 566.500 697.572 570.239 C 696.769 572.295, 694.797 575.895, 693.192 578.239 C 691.586 580.583, 688.662 585.993, 686.695 590.262 C 684.728 594.531, 682.162 599.369, 680.991 601.012 C 678.217 604.909, 678.651 604.827, 689.340 599.436 C 719.728 584.110, 739.188 564.604, 751.301 537.329 C 754.274 530.634, 758 517.199, 758 513.173 C 758 511.795, 758.285 510.951, 758.633 511.300 C 759.682 512.349, 760.026 544.928, 759.035 549.342 C 757.734 555.131, 758.220 554.957, 763.284 547.818 C 783.417 519.439, 787.833 476.989, 773.590 448.752 C 771.718 445.041, 770.779 442.341, 771.503 442.752 C 774.038 444.192, 789.615 458.536, 792.792 462.358 C 796.663 467.014, 796.611 467.455, 794.525 447.800 C 791.465 418.969, 784.087 391.978, 773.258 370 C 770.141 363.675, 767.399 358.095, 767.163 357.600 C 766.545 356.306, 777.419 362.555, 784.750 367.708 C 788.188 370.124, 791 371.573, 791 370.927 C 791 365.984, 777.848 334.332, 772.798 327.122 C 771.541 325.328, 771.301 325.445, 768.484 329.222 C 763.881 335.393, 753.378 343.607, 744.887 347.677 C 740.660 349.703, 737.376 351.843, 737.589 352.431 C 738.496 354.929, 740.619 372, 740.023 372 C 739.664 372, 738.576 370.313, 737.604 368.250 C 736.113 365.083, 732.825 360.009, 719.061 339.630 C 718.270 338.459, 719.541 339.300, 721.887 341.500 C 724.232 343.700, 728.367 348.800, 731.076 352.834 C 736.828 361.400, 737.048 360.922, 732.964 348.732 C 726.876 330.561, 716.111 313.240, 705.808 305.036 C 699.955 300.376, 700.555 299.991, 708.210 303.496 C 713.023 305.700, 724.315 308.173, 723 306.735 C 722.725 306.435, 719.800 304.178, 716.500 301.721 C 713.200 299.263, 704.657 291.743, 697.515 285.009 C 684.703 272.929, 677.091 266.931, 667.705 261.521 C 661.310 257.835, 662.449 257.144, 669.557 260.397 C 672.683 261.829, 675.379 263, 675.547 263 C 675.716 263, 677.317 260.441, 679.107 257.313 C 686.362 244.632, 701.585 231.966, 713.917 228.350 L 719.334 226.761 716.917 224.909 C 708.374 218.362, 680.115 206.111, 673.145 205.932 C 666.774 205.769, 675.087 203.978, 688 202.731 L 701.500 201.428 690.500 196.775 C 665.708 186.289, 648.402 182.109, 626.429 181.299 C 611.633 180.753, 596.752 182.243, 589.515 184.994 C 586.134 186.280, 586.323 185.561, 590.936 179.592 C 596.423 172.492, 600.401 168.843, 608.500 163.483 L 615.500 158.850 608.500 159.513 C 584.792 161.761, 562.014 169.759, 547.146 181.058 C 544.202 183.295, 541.608 184.941, 541.382 184.715 C 539.511 182.844, 548.168 164.727, 553.788 158.750 C 557.307 155.009, 555.028 155.222, 547.368 159.351 M 583.264 227.750 C 580.190 230.498, 569.706 242.764, 558.120 257.167 C 552.279 264.428, 545.381 271.890, 542.791 273.748 L 538.082 277.128 534.513 274.703 C 532.550 273.369, 528.336 268.727, 525.150 264.389 C 519.801 257.106, 514.187 251.024, 516.482 255 C 516.959 255.825, 519.125 259.143, 521.295 262.374 C 523.466 265.604, 524.851 268.073, 524.371 267.859 C 518.473 265.227, 487.393 249.465, 484 247.385 C 477.868 243.625, 480.612 246.953, 488.360 252.674 C 491.583 255.053, 493.833 256.997, 493.360 256.993 C 492.887 256.989, 485.814 256.089, 477.641 254.993 C 459.564 252.568, 456.883 252.462, 459.355 254.270 C 460.863 255.373, 459.847 255.914, 451.666 258.372 C 414.586 269.512, 381.878 306.758, 369.446 352 C 367.935 357.498, 366.667 359.561, 361.224 365.380 C 355.091 371.938, 345 386.155, 345 388.238 C 345 388.778, 346.981 386.583, 349.402 383.360 C 355.222 375.613, 364.644 365.364, 365.337 366.027 C 365.640 366.317, 365.475 368.389, 364.971 370.632 C 364.467 372.875, 362.887 384.788, 361.460 397.105 C 358.495 422.695, 355.098 441.420, 351.506 451.981 C 346.584 466.452, 345.099 477.215, 347.053 484.250 C 348.317 488.802, 349.214 488.932, 351.748 484.929 L 353.693 481.857 354.297 490.424 C 355.181 502.937, 359.939 512.640, 361.568 505.250 C 361.902 503.738, 362.281 502.063, 362.411 501.529 C 362.541 500.994, 364.275 503.919, 366.265 508.029 C 380.593 537.625, 417.117 557.404, 483.500 571.516 C 491.934 573.309, 498.278 575.281, 501.562 577.129 C 517.237 585.953, 558.714 585.941, 574.389 577.107 C 577.523 575.341, 583.561 573.387, 590 572.054 C 658.276 557.920, 698.498 535.928, 710.619 506.105 L 712.832 500.661 713.954 504.831 C 715.342 509.984, 715.450 509.982, 718.165 504.750 C 719.837 501.528, 720.477 498.218, 720.812 491.068 L 721.254 481.636 724.050 485.062 C 727.591 489.400, 728.196 488.718, 728.740 479.768 C 729.207 472.086, 727.928 464.796, 723.575 450.342 C 720.056 438.655, 718.258 429.251, 716.008 410.760 C 711.880 376.845, 710.799 368.636, 710.260 367.092 C 709.287 364.301, 717.959 373.221, 724.085 381.312 C 727.338 385.608, 730 388.612, 730 387.987 C 730 385.950, 721.285 373.317, 714.566 365.612 C 710.955 361.472, 708 357.620, 708 357.054 C 708 353.990, 701.072 335.042, 696.462 325.500 C 679.730 290.861, 651.848 265.228, 622.500 257.503 C 614.332 255.353, 614.088 255.217, 616.029 253.872 C 617.643 252.754, 609.519 253.209, 593.212 255.151 C 588.103 255.759, 583.694 256.028, 583.415 255.748 C 583.135 255.468, 585.065 253.649, 587.703 251.704 C 592.476 248.186, 599.860 240.914, 597 242.547 C 596.175 243.019, 592.350 245.501, 588.500 248.063 C 584.650 250.625, 575.287 255.917, 567.694 259.823 L 553.889 266.923 559.158 260.212 C 562.056 256.520, 566.935 250.350, 570 246.500 C 586.243 226.099, 588.192 223.344, 583.264 227.750 M 338.112 232.581 C 304.628 241.586, 287.852 283.347, 304.201 317 C 309.222 327.336, 326.882 343.677, 337.208 347.542 C 338.495 348.024, 339.089 347.482, 339.616 345.341 C 340.001 343.778, 341.119 340.609, 342.102 338.297 L 343.889 334.094 340.608 332.067 C 317.807 317.975, 313.194 284.061, 332.178 270.100 L 336.213 267.133 332.356 266.779 L 328.500 266.425 331.500 265.121 C 333.487 264.257, 337.370 263.955, 343 264.227 C 353.415 264.730, 360.594 267.901, 369.087 275.750 C 372.211 278.637, 375.091 281, 375.487 281 C 375.882 281, 378.444 278.988, 381.180 276.528 C 383.916 274.068, 388.845 270.298, 392.134 268.149 L 398.114 264.241 393.198 258.371 C 374.127 235.599, 356.893 227.530, 338.112 232.581 M 713.772 233.286 C 703.095 237.018, 691.928 245.728, 681.216 258.679 L 676.933 263.858 681.716 267.087 C 684.347 268.864, 689.554 272.754, 693.287 275.732 L 700.075 281.146 705.990 275.670 C 714.555 267.740, 721.557 264.583, 731.528 264.157 C 737.146 263.916, 740.598 264.267, 743.028 265.325 L 746.500 266.837 742.054 266.918 L 737.608 267 742.255 269.947 C 759.515 280.892, 759.027 309.250, 741.289 326.130 C 738.105 329.160, 734.626 332.124, 733.559 332.716 C 731.654 333.774, 731.663 333.927, 734.041 340.915 C 736.756 348.889, 736.348 348.783, 744.867 343.701 C 781.596 321.793, 788.645 274.807, 759.551 245.826 C 746.411 232.737, 728.991 227.965, 713.772 233.286 M 465.479 257.889 C 464.941 258.410, 460 260.282, 454.500 262.050 C 435.619 268.120, 422.943 276.077, 409.123 290.533 C 384.335 316.461, 371.685 346.977, 366.437 393.500 C 363.317 421.159, 360.535 437.995, 357.276 448.941 C 351.813 467.292, 351 470.591, 351 474.424 L 351 478.391 354.385 474.695 C 358.253 470.472, 360.494 469.859, 359.670 473.250 C 359.121 475.507, 358.759 485.022, 358.938 492.500 L 359.034 496.500 361.115 493.250 C 364.050 488.668, 364.450 488.992, 367.352 498.301 C 375.503 524.442, 402.787 544.366, 449.017 557.935 C 461.178 561.504, 489.199 568.134, 489.759 567.575 C 489.968 567.365, 489.199 565.350, 488.049 563.097 C 485.399 557.901, 485.496 557.931, 492.090 564.317 C 499.915 571.896, 513 578.268, 513 574.500 C 513 572.798, 514.567 572.490, 515.504 574.007 C 519.353 580.234, 549.346 581.533, 558.915 575.888 C 561.133 574.579, 562.572 574.215, 562.802 574.905 C 563.821 577.962, 576.451 571.680, 583.543 564.587 C 589.276 558.854, 590.454 558.911, 586.849 564.745 L 584.698 568.225 588.099 567.531 C 660.622 552.719, 699.945 529.641, 709.040 496.554 C 710.941 489.640, 712.260 488.707, 714.139 492.952 C 716.654 498.634, 717.314 496.211, 716.713 483.500 C 716.388 476.625, 716.493 471, 716.945 471 C 717.397 471, 719.432 472.843, 721.468 475.096 L 725.168 479.192 724.458 473.346 C 724.067 470.131, 722.253 462.702, 720.427 456.837 C 715.755 441.838, 713.343 428.408, 709.949 398.500 C 706.697 369.851, 702.793 351.591, 696.751 336.769 C 680.496 296.899, 651.528 269.107, 617.133 260.382 C 606.202 257.609, 602.703 257.489, 590.500 259.467 C 585.550 260.269, 579.075 261.167, 576.110 261.461 C 571.551 261.915, 568.282 263.461, 554.900 271.499 C 546.198 276.724, 538.544 281, 537.889 281 C 537.235 281, 533.261 278.794, 529.058 276.098 C 515.801 267.594, 502.261 260.782, 500.024 261.492 C 498.368 262.018, 479.543 259.565, 468.979 257.447 C 467.593 257.169, 466.018 257.368, 465.479 257.889 M 338.158 271.569 C 324.625 278.413, 320.088 296.003, 327.701 312.111 C 331.017 319.126, 337.102 326.527, 341.794 329.250 L 344.809 331 348.038 325.250 C 349.814 322.088, 352.482 317.925, 353.966 316 C 358.226 310.475, 358.239 310.511, 351.785 310.356 C 342.855 310.141, 341.548 308.211, 347.710 304.339 C 350.345 302.683, 354.947 299.378, 357.937 296.993 C 364.363 291.869, 363.739 291.183, 352.550 291.070 C 346.991 291.014, 345.850 290.750, 346.849 289.750 C 347.660 288.938, 351.628 288.447, 358.164 288.349 C 372.405 288.136, 373.581 286.806, 365.895 279.607 C 355.396 269.773, 346.696 267.252, 338.158 271.569 M 720.130 271.165 C 715.732 273.342, 704 283.466, 704 285.085 C 704 287.574, 708.546 288.805, 714 287.793 C 718.105 287.031, 720.641 287.098, 724 288.056 L 728.500 289.341 720.167 290.586 C 715.584 291.271, 711.626 292.041, 711.371 292.296 C 710.798 292.869, 721.837 301.234, 727.695 304.667 C 730.063 306.055, 732 307.589, 732 308.076 C 732 309.317, 727.342 310.415, 721.882 310.461 L 717.265 310.500 721.511 316.500 C 723.846 319.800, 726.725 324.421, 727.908 326.769 C 730.479 331.870, 731.270 331.661, 738.965 323.844 C 755.785 306.756, 754.743 280.529, 736.890 271.633 C 730.472 268.434, 725.903 268.307, 720.130 271.165 M 482.067 315.500 C 482.069 316.050, 482.714 317.625, 483.500 319 C 485.373 322.276, 485.376 329.646, 483.507 335.124 L 482.015 339.500 484.463 336.746 C 489.005 331.637, 489.016 322.400, 484.487 317.254 C 483.154 315.739, 482.065 314.950, 482.067 315.500 M 589.070 318.863 C 587.931 321.095, 587 324.756, 587 327 C 587 329.244, 587.931 332.905, 589.070 335.137 C 591.448 339.798, 592.770 339.647, 591.116 334.902 C 590.502 333.142, 590 329.586, 590 327 C 590 324.414, 590.502 320.858, 591.116 319.098 C 592.770 314.353, 591.448 314.202, 589.070 318.863 M 471 319.892 C 471 322.085, 461.586 330.937, 456.313 333.704 C 451.057 336.461, 440.103 340.347, 431.078 342.655 C 422.433 344.866, 430.208 348, 444.337 348 C 467.104 348, 483.556 334.625, 476.011 322.250 C 474.195 319.272, 471 317.768, 471 319.892 M 599.653 322.011 C 596.844 326.766, 597.237 332.490, 600.664 336.724 C 608.154 345.978, 629.805 351.114, 644.262 347.067 C 650.117 345.427, 650.238 344.402, 644.750 342.960 C 635.097 340.424, 622.213 335.696, 617.312 332.892 C 612.464 330.119, 604 321.832, 604 319.859 C 604 317.884, 601.302 319.219, 599.653 322.011 M 453.601 367.647 C 410.667 375.418, 388.293 414.096, 409.090 444.595 C 422.022 463.559, 449.617 467.743, 470.396 453.889 C 473.638 451.727, 476.452 450.119, 476.650 450.316 C 476.847 450.514, 474.081 453.486, 470.504 456.921 C 463.031 464.097, 462.505 465.053, 467.750 461.931 C 490.140 448.602, 501.465 412.170, 490.597 388.431 C 487.957 382.664, 481.660 375.259, 475.704 370.918 C 472.289 368.428, 472.088 368.046, 473.704 367.106 C 476.395 365.540, 463.297 365.893, 453.601 367.647 M 601.500 367 C 601.160 367.550, 601.633 368, 602.551 368 C 603.469 368, 601.453 370.037, 598.071 372.527 C 591.647 377.255, 584.988 386.186, 582.883 392.894 C 580.581 400.230, 580.591 417.953, 582.903 426.379 C 587.150 441.859, 594.752 453.424, 605.007 460.004 C 611.905 464.431, 612.126 463.353, 605.495 457.629 C 598.505 451.594, 596.004 447.490, 602.198 452.218 C 621.284 466.787, 647.568 465.125, 663.009 448.374 C 674.115 436.326, 677.121 417.147, 670.196 402.522 C 663.299 387.957, 652.468 378.025, 636.956 372.043 C 625.236 367.524, 603.121 364.378, 601.500 367 M 453.826 370.970 C 431.554 375.667, 416.451 385.887, 409.138 401.210 C 406.233 407.299, 402.951 421.285, 404.148 422.481 C 404.448 422.781, 407.204 421.915, 410.275 420.557 C 419.917 416.293, 447.697 407.424, 468.750 401.887 C 479.887 398.959, 489 396.164, 489 395.677 C 489 391.105, 479.335 377.885, 472.123 372.590 C 466.579 368.521, 465.777 368.450, 453.826 370.970 M 605.500 371.196 C 596.759 377.410, 589.049 386.854, 587.062 393.783 L 586.215 396.735 606.358 401.981 C 625.144 406.874, 658.704 417.553, 667.250 421.357 L 671 423.027 671 419.195 C 671 410.119, 665.347 397.362, 657.780 389.361 C 648.656 379.714, 637.718 374.411, 619.715 370.905 C 607.955 368.616, 609.165 368.591, 605.500 371.196 M 464.500 395.946 C 446.924 400.509, 412.254 412.587, 413.411 413.744 C 413.665 413.998, 416.713 413.288, 420.186 412.167 C 423.659 411.045, 437.863 406.470, 451.750 401.999 C 473.711 394.929, 479.386 392.855, 476.250 393.045 C 475.837 393.071, 470.550 394.376, 464.500 395.946 M 598.040 393.340 C 598.453 393.779, 653.605 412.184, 661.887 414.648 C 667.733 416.386, 655.091 410.791, 643.043 406.307 C 625.218 399.673, 596.105 391.285, 598.040 393.340 M 585.475 405.150 C 583.302 418.011, 590.132 435.539, 601.191 445.482 C 623.805 465.814, 656.404 459.551, 667.932 432.660 L 669.977 427.888 666.683 426.512 C 659.151 423.365, 658.501 423.470, 655.676 428.289 C 643.201 449.577, 610.799 450.417, 596.696 429.818 C 592.550 423.762, 589.653 413.830, 590.163 407.420 C 590.453 403.769, 590.169 402.942, 588.332 402.105 C 586.337 401.196, 586.100 401.448, 585.475 405.150 M 485.547 403.250 C 485.332 403.938, 484.952 407.488, 484.703 411.139 C 483.466 429.203, 468.883 443.627, 450.720 444.751 C 436.921 445.604, 425.483 438.967, 417.442 425.441 C 416.430 423.738, 416.159 423.742, 411.192 425.528 C 405.221 427.675, 405.201 427.742, 408.474 434.772 C 415.746 450.392, 434.034 460.206, 450.250 457.191 C 473.156 452.931, 490 432.421, 490 408.790 C 490 402.632, 489.811 402, 487.969 402 C 486.851 402, 485.762 402.563, 485.547 403.250 M 617 412.811 C 617 418.022, 624.968 420.903, 628.521 416.976 C 630.693 414.577, 629.990 413.760, 624.384 412.169 C 618.686 410.551, 617 410.698, 617 412.811 M 445.734 413.605 C 441.576 414.883, 441.093 415.306, 441.956 416.917 C 443.969 420.680, 448.138 420.953, 451.545 417.545 C 456.610 412.481, 454.356 410.954, 445.734 413.605 M 526.718 420.092 C 522.797 421.015, 516.555 423.888, 517.158 424.492 C 517.348 424.681, 519.977 424.185, 523.001 423.389 C 530.049 421.534, 545.912 421.537, 552.999 423.394 C 559.590 425.122, 560.664 424.722, 555.370 422.510 C 547.093 419.052, 535.345 418.060, 526.718 420.092 M 456.932 428.126 C 455.131 431.491, 457.208 435, 461 435 C 463.232 435, 464.331 434.368, 465.124 432.626 C 466.710 429.145, 464.753 426, 461 426 C 459.036 426, 457.695 426.701, 456.932 428.126 M 633.571 427.571 C 630.565 430.578, 632.606 435, 637 435 C 641.030 435, 642.757 431.804, 640.548 428.433 C 638.720 425.644, 635.853 425.290, 633.571 427.571 M 505.033 435.685 C 494.116 450.910, 489.780 465.751, 493.903 473.790 C 498.011 481.801, 516.066 492.738, 531.063 496.301 L 536 497.473 536 503.730 L 536 509.987 529.184 516.744 C 522.138 523.729, 513.256 536.822, 512.775 540.934 C 512.243 545.475, 514.775 544.004, 519.051 537.288 C 522.056 532.569, 523.492 531.033, 523.760 532.249 C 524.301 534.701, 528.041 535.502, 538.851 535.485 C 547.313 535.471, 548.373 535.257, 550.011 533.234 L 551.821 530.999 554.447 534.119 C 555.891 535.836, 557.715 538.481, 558.499 539.999 C 559.284 541.516, 560.603 543.018, 561.431 543.335 C 568.020 545.864, 556.517 526.243, 545.514 516.187 L 539.907 511.062 540.204 504.337 L 540.500 497.612 546.232 495.914 C 563.951 490.665, 581.817 478.119, 583.371 469.835 C 584.715 462.674, 579.287 447.929, 570.914 435.992 C 565.352 428.063, 564.968 428.987, 569.811 438.647 C 573.970 446.944, 578.302 458.356, 579.319 463.696 L 579.928 466.891 576.288 464.421 C 568.082 458.852, 560.477 457.498, 537.500 457.517 C 514.034 457.535, 507.469 458.704, 499.852 464.222 L 495.808 467.152 496.509 463.826 C 497.883 457.306, 501.172 448.617, 505.615 439.771 C 510.968 429.113, 510.765 427.692, 505.033 435.685 M 401.585 455.317 C 406.495 471.142, 434.222 480.647, 452.047 472.616 L 455.500 471.060 450.500 471.780 C 430.900 474.603, 419.306 471.486, 408.204 460.412 C 403.655 455.874, 401.163 453.956, 401.585 455.317 M 667.982 459.894 C 657.257 471.170, 642.037 475.443, 626.006 471.680 C 618.631 469.948, 617.465 470.155, 621.842 472.418 C 637.851 480.697, 664.638 472.915, 672.654 457.657 C 675.019 453.155, 673.868 453.706, 667.982 459.894 M 520.537 461.145 C 516.707 461.636, 511.757 462.581, 509.537 463.244 L 505.500 464.450 509.500 464.759 C 511.700 464.929, 517.862 465.953, 523.192 467.034 C 535.268 469.483, 538.915 469.486, 552.575 467.058 C 558.584 465.989, 565.075 464.962, 567 464.775 L 570.500 464.434 566.327 463.199 C 556.124 460.180, 535.341 459.248, 520.537 461.145 M 530.890 521.869 C 527.651 525.201, 525 528.555, 525 529.322 C 525 532.118, 548.771 532.186, 549.702 529.393 C 550.131 528.107, 541.686 518.438, 538.773 516.878 C 537.049 515.956, 535.989 516.627, 530.890 521.869 M 387 588.359 C 387 588.557, 388.571 590.694, 390.490 593.109 C 396.048 600.101, 395.291 601.340, 387.500 598 C 384.934 596.900, 382.681 596, 382.494 596 C 380.006 596, 367.847 625.535, 365.826 636.486 C 365.301 639.335, 387.984 650.610, 389.352 648.179 C 389.562 647.806, 390.531 645.025, 391.504 642 C 394.277 633.389, 401.294 618.928, 406.615 610.860 C 409.285 606.812, 411.476 603.189, 411.484 602.808 C 411.493 602.428, 408.800 600.678, 405.500 598.920 C 402.200 597.162, 396.937 593.986, 393.805 591.862 C 388.471 588.245, 387 587.488, 387 588.359 M 370.529 598.175 C 363.846 600.817, 353.497 607.838, 348.039 613.433 C 343.881 617.695, 343.691 618.119, 345.239 619.667 C 346.787 621.216, 347.284 620.994, 352.547 616.414 C 360.683 609.334, 365.063 606.232, 368.684 604.985 C 371.351 604.067, 376.862 597.470, 375.791 596.479 C 375.631 596.331, 373.263 597.094, 370.529 598.175 M 411.407 612.245 C 387.983 647.801, 382.452 697.133, 398.350 728.702 C 402.491 736.926, 408.327 742.442, 414.969 744.410 C 420.338 746.002, 420.761 745.811, 418.733 742.716 C 416.727 739.653, 414.896 733, 416.060 733 C 416.555 733, 417.849 734.743, 418.936 736.874 C 423.167 745.168, 430.066 747.898, 439.101 744.855 C 445.166 742.812, 445.340 742.193, 441.178 737.465 C 437.570 733.367, 434.251 726, 436.012 726 C 436.466 726, 437.742 727.462, 438.848 729.250 C 442.960 735.894, 448.436 739.647, 451.088 737.639 C 456.284 733.704, 457.281 727.324, 454 719 C 452.900 716.209, 452.002 712.930, 452.005 711.713 C 452.010 709.640, 452.161 709.689, 454.387 712.471 C 456.442 715.039, 456.982 715.260, 458.382 714.098 C 461.510 711.502, 460.412 706.358, 455.632 701.207 C 448.273 693.278, 447.530 691.118, 447.641 678 C 447.754 664.671, 449.969 654.923, 455.626 642.864 L 459.208 635.228 457.592 629.669 C 453.634 616.055, 453.278 615.638, 443.363 613.043 C 438.488 611.767, 430.824 609.435, 426.330 607.861 C 421.837 606.288, 417.715 605, 417.170 605 C 416.626 605, 414.033 608.260, 411.407 612.245 M 458.296 618.592 C 458.632 619.641, 459.827 623.069, 460.952 626.210 C 466.986 643.057, 464.706 663.372, 455.415 675.543 C 451.967 680.061, 451.487 682.183, 452.625 687.875 C 453.516 692.328, 454.561 691.888, 462.615 683.676 C 476.999 669.010, 482.920 649.352, 479.702 626.945 L 478.905 621.391 470.702 619.677 C 466.191 618.734, 461.416 617.675, 460.092 617.323 C 458.052 616.782, 457.778 616.976, 458.296 618.592 M 333.615 620.465 C 331.325 623.960, 331.469 624.362, 336.641 628.915 C 342.018 633.649, 342.885 633.816, 345.826 630.686 C 348.848 627.468, 348.653 626.864, 343.071 622.157 C 337.366 617.346, 335.838 617.073, 333.615 620.465 M 497 618.514 C 497 619.723, 499.995 624.833, 500.895 625.160 C 501.411 625.347, 502.132 627.115, 502.497 629.088 C 503.104 632.366, 502.965 632.669, 500.880 632.588 C 496.329 632.412, 484.310 657.639, 479.082 678.340 C 469.235 717.330, 474.130 747.476, 492.290 759.683 C 514.091 774.337, 548.433 770.604, 567.534 751.503 C 591.006 728.031, 598.380 675.556, 583.850 635.398 C 582.178 630.779, 580.330 627, 579.743 627 C 578.311 627, 570.615 631.486, 564.703 635.766 C 559.216 639.739, 558.214 639.467, 559.762 634.424 C 561.009 630.359, 561.844 630.011, 551.510 637.869 C 544.451 643.236, 532.857 650, 530.717 650 C 529.057 650, 528.582 648.915, 527.537 642.722 C 526.908 638.995, 525 638.404, 525 641.937 C 525 642.937, 524.375 644.273, 523.612 644.907 C 522.491 645.838, 521.607 644.965, 519.007 640.358 C 514.960 633.188, 497 615.361, 497 618.514 M 587.750 621.566 C 585.138 622.926, 583 624.243, 583 624.493 C 583 624.743, 584.378 628.417, 586.062 632.656 C 602.133 673.112, 594.811 728.416, 570.114 753.115 C 557.259 765.972, 543.846 771.327, 524.500 771.327 C 487.368 771.327, 469.287 750.012, 471.314 708.627 C 471.816 698.373, 473.781 685.779, 476.430 675.845 L 477.055 673.500 475.278 675.953 C 471.271 681.483, 465.160 688.094, 460.746 691.673 L 456.058 695.475 459.469 698.988 C 465.676 705.377, 466.489 712.897, 461.407 716.894 C 459.049 718.749, 458.960 719.138, 460.006 723.021 C 462.862 733.630, 453.514 745.179, 438.548 749.529 C 432.531 751.278, 416.897 750.173, 410.750 747.565 C 408.688 746.689, 407 746.115, 407 746.289 C 407 746.463, 408.589 752.206, 410.530 759.052 C 415.533 776.695, 418.557 792.675, 420.931 814.021 C 424.757 848.435, 427.266 853.195, 443.500 856.853 C 457.696 860.051, 484.936 861.464, 487.276 859.124 C 490.282 856.118, 487.706 844.706, 482.947 839.947 C 480.060 837.060, 483.107 837.443, 486.257 840.363 C 490.511 844.305, 492.208 848.642, 491.836 854.618 C 491.447 860.859, 491.432 860.854, 502.847 858.866 C 511.182 857.415, 514.009 854.857, 513.978 848.795 C 513.950 843.351, 510.952 836.693, 506.758 832.766 C 503.680 829.884, 503.638 829.755, 506 830.425 C 512.345 832.225, 519.114 844.392, 517.748 851.539 C 517.180 854.508, 518.080 854.674, 520.463 852.041 C 525.522 846.451, 522.181 834.960, 513.884 829.415 C 505.389 823.737, 487.674 822.383, 474.547 826.408 C 468.307 828.321, 467.601 827.755, 472.872 825.065 C 477.473 822.718, 487.949 820.037, 492.608 820.015 C 495.675 820, 495.723 819.922, 496.358 813.853 C 496.711 810.473, 497.045 800.685, 497.100 792.103 L 497.199 776.500 499.342 781.387 L 501.484 786.274 511.992 785.695 C 530.114 784.695, 549.943 778.309, 564.835 768.675 C 568.810 766.104, 572.304 764, 572.599 764 C 574.372 764, 567.615 770.919, 558.803 778.127 C 553.173 782.732, 546.752 788.158, 544.533 790.184 L 540.500 793.867 545.637 803.684 C 548.462 809.083, 553.380 820.025, 556.566 828 C 561.376 840.043, 563.093 843.220, 566.696 846.750 C 571.811 851.760, 572.489 851.890, 574.387 848.219 C 579.060 839.182, 599.705 825.845, 618.750 819.559 C 626.776 816.910, 627 816.750, 626.996 813.668 C 626.991 809.372, 623.964 804.717, 619.894 802.746 C 617.168 801.425, 616.857 800.992, 618.250 800.457 C 622.677 798.759, 630.375 806.682, 630.452 813.016 C 630.487 815.920, 630.865 816.876, 631.832 816.507 C 632.564 816.228, 635.827 816, 639.082 816 L 645 816 645 812.468 C 645 800.914, 636.100 794.827, 622.405 797.015 C 615.550 798.110, 600.493 803.393, 599.459 805.066 C 598.717 806.267, 597 806.279, 597 805.083 C 597 803.666, 608.614 796.244, 611.993 795.502 C 613.647 795.138, 615 794.431, 615 793.929 C 615 789.476, 603.547 763.179, 595.759 749.750 L 592.424 744 588.609 748.564 C 583.383 754.816, 583.160 753.627, 587.820 744.353 C 601.429 717.275, 605.389 679.472, 598.435 643.021 C 595.527 627.775, 594.349 625, 590.785 625 L 587.626 625 590.500 622 C 593.934 618.415, 593.833 618.399, 587.750 621.566 M 483.701 627.139 C 484.140 630.088, 484.448 637.008, 484.385 642.517 L 484.270 652.534 488.500 644.517 C 490.826 640.108, 493.578 635.017, 494.615 633.205 C 496.263 630.323, 496.312 629.792, 495 628.975 C 494.175 628.460, 491.115 626.631, 488.201 624.909 L 482.902 621.778 483.701 627.139 M 601.233 623.105 C 598.585 623.884, 598.132 624.392, 598.845 625.783 C 601.589 631.135, 605.940 657.733, 605.997 669.500 C 606.045 679.392, 607.279 680.529, 609.600 672.816 C 611.956 664.984, 612.109 637, 609.844 628 C 608.327 621.970, 607.225 621.343, 601.233 623.105 M 327.890 631.205 C 326.081 634.587, 333.373 640.877, 336.169 638.347 C 338.754 636.008, 338.478 634.881, 334.553 631.750 C 330.385 628.424, 329.421 628.346, 327.890 631.205 M 616.316 652.250 C 616.102 665.283, 613.751 675.756, 609.069 684.530 C 605.584 691.061, 604.760 698.413, 607.636 697.309 C 608.536 696.964, 609.075 697.091, 608.834 697.591 C 605.819 703.832, 604.819 707.129, 604.321 712.467 C 603.781 718.251, 603.915 718.884, 605.914 719.954 C 609.436 721.839, 614.594 719.571, 617.798 714.730 C 619.812 711.685, 620.586 711.090, 620.837 712.393 C 621.337 714.988, 616.560 721.584, 613.058 723.134 C 610.224 724.389, 610 724.862, 610 729.589 C 610 737.445, 612.399 739.128, 618.502 735.552 C 633.641 726.679, 635.933 706.562, 626.032 669.460 C 623.539 660.121, 617.239 640.999, 616.655 641 C 616.570 641.001, 616.417 646.063, 616.316 652.250 M 739.500 642.363 C 729.817 646.860, 724.878 660.221, 727.343 675.250 L 728.123 680 724.626 680 C 708.689 680, 704.304 695.110, 716.697 707.328 L 721.313 711.879 718.175 715.453 C 706.364 728.905, 710.631 744.895, 728.304 753.412 C 739.102 758.616, 741.574 758.882, 742.365 754.925 C 743.437 749.566, 743.082 746.375, 741.137 743.885 C 737.932 739.781, 734.943 733.153, 736.002 732.499 C 736.544 732.164, 738.539 733.072, 740.435 734.518 L 743.882 737.147 744.419 733.824 C 744.715 731.996, 745.451 726.900, 746.054 722.500 C 747.553 711.568, 747.999 710, 749.608 710 C 750.374 710, 751.009 710.337, 751.021 710.750 C 751.032 711.163, 751.693 716.900, 752.490 723.500 C 753.286 730.100, 753.952 735.658, 753.969 735.850 C 753.986 736.043, 756.511 733.906, 759.581 731.100 C 769.942 721.631, 770.611 724.680, 761.500 739.852 C 756.539 748.114, 755 751.576, 755 754.478 L 755 758.279 760.241 757.658 C 780.896 755.212, 791.913 737.342, 781.320 723.468 C 779.386 720.935, 777.960 718.747, 778.152 718.605 C 778.343 718.463, 780.621 716.854, 783.213 715.030 C 800.631 702.774, 795.880 678.647, 776.025 678.533 L 770.305 678.500 770.783 671.798 C 771.587 660.543, 767.165 650.614, 758.609 644.465 C 753.836 641.034, 744.559 640.014, 739.500 642.363 M 359.251 654.250 C 349.524 683.397, 350.764 692.594, 365.780 702.695 C 371.373 706.457, 385.341 712.055, 386.353 710.939 C 386.572 710.698, 386.150 707.125, 385.415 703 C 383.167 690.376, 383.810 676.304, 387.575 655.750 C 388.186 652.414, 388.036 652, 386.214 652 C 384.100 652, 383.232 653.773, 379.483 665.749 C 376.895 674.017, 370.967 676.457, 365.306 671.586 C 361.590 668.389, 361.720 663.163, 365.776 652.796 L 368.790 645.092 366.430 643.546 C 365.132 642.696, 363.906 642, 363.705 642 C 363.504 642, 361.500 647.513, 359.251 654.250 M 457.190 648.750 C 451.839 666.768, 451.570 677.178, 456.826 662.848 C 458.762 657.568, 460.935 642, 459.735 642 C 459.438 642, 458.293 645.038, 457.190 648.750 M 370.606 650.141 C 365.138 663.416, 365.056 670, 370.356 670 C 373.638 670, 374.596 668.571, 377.937 658.688 L 380.827 650.135 378.164 649.170 C 376.699 648.639, 374.710 647.884, 373.745 647.493 C 372.388 646.944, 371.675 647.545, 370.606 650.141 M 258.444 661.831 C 249.695 665.923, 245 674.492, 245 686.366 L 245 693 241.250 693.022 C 236.389 693.050, 229.912 696.025, 227.198 699.476 C 221.025 707.324, 224.337 717.763, 235.486 725.597 L 238.471 727.694 235.838 731.146 C 227.044 742.676, 232.655 755.850, 248.345 760.510 C 260.168 764.021, 261.158 760.681, 252.494 746.522 C 244.537 733.519, 245.146 730.315, 254 738.596 C 259.699 743.927, 259.431 744.258, 260.497 730.577 C 261.617 716.208, 264.355 715.449, 266.028 729.044 C 266.601 733.695, 267.300 738.969, 267.582 740.764 L 268.096 744.029 271.575 741.375 C 276.659 737.497, 276.968 739.216, 272.644 747.320 C 265.367 760.959, 268.499 764.465, 281.942 757.729 C 296.045 750.661, 300.233 736.474, 291.299 726.036 L 287.627 721.747 290.325 719.781 C 301.802 711.422, 299.325 695, 286.588 695 L 281.976 695 282.738 690.750 C 286.336 670.679, 273.132 654.961, 258.444 661.831 M 636.194 714.234 C 635.585 717.680, 634.790 721.513, 634.427 722.750 L 633.767 725 666.383 725 C 684.323 725, 699 724.860, 699 724.688 C 699 724.516, 697.085 720.804, 694.744 716.438 L 690.488 708.500 663.894 708.234 L 637.301 707.968 636.194 714.234 M 317.699 714.206 C 315.276 718.160, 310 727.946, 310 728.485 C 310 728.768, 328.618 729, 351.374 729 L 392.748 729 390.523 722.856 L 388.299 716.711 381.399 714.704 C 375.416 712.962, 370.821 712.644, 346.802 712.304 L 319.104 711.911 317.699 714.206 M 598.687 730.350 C 595.633 739.666, 595.792 739.962, 603.857 739.985 C 608.592 739.998, 609.123 739.797, 608.433 738.250 C 608.004 737.288, 607.393 733.903, 607.076 730.730 C 606.587 725.827, 606.111 724.758, 603.915 723.624 L 601.330 722.290 598.687 730.350 M 748.720 726 C 748.396 726.825, 747.657 732.900, 747.077 739.500 C 744.518 768.607, 742.759 786.547, 742.405 787.136 C 741.963 787.872, 752.934 789.399, 753.634 788.699 C 753.890 788.443, 753.542 779.693, 752.861 769.254 L 751.621 750.275 756.161 742.888 C 762.690 732.264, 762.746 732.062, 757.857 736.750 C 751.918 742.444, 751.275 742.225, 750.519 734.250 C 749.631 724.874, 749.464 724.107, 748.720 726 M 626.500 734.490 C 621.780 739.402, 617.193 741.867, 609.894 743.413 C 607.291 743.965, 607.289 743.974, 607.628 752.861 C 607.870 759.235, 608.579 763.137, 610.129 766.628 C 611.318 769.308, 613.300 774.200, 614.533 777.500 L 616.774 783.500 622.137 784.133 C 625.087 784.481, 641.279 785.038, 658.121 785.371 L 688.742 785.977 689.360 782.238 C 689.700 780.182, 689.983 767.362, 689.989 753.750 L 690 729 660.750 729.144 L 631.500 729.288 626.500 734.490 M 262.615 739.228 C 261.790 748.108, 261.160 748.820, 257.506 745.007 C 252.827 740.122, 252.680 741.543, 257.136 748.597 L 261.302 755.195 260.640 770.543 C 260.276 778.985, 259.685 786.658, 259.325 787.595 C 258.751 789.091, 259.242 789.233, 263.385 788.766 C 265.978 788.474, 268.318 788.015, 268.586 787.747 C 269.025 787.309, 268.276 778.376, 264.856 743.250 C 264.254 737.063, 263.655 732, 263.524 732 C 263.394 732, 262.985 735.253, 262.615 739.228 M 318.998 739.750 L 318.996 746.500 324.904 746.166 C 329.722 745.893, 330.903 745.479, 331.312 743.916 C 331.765 742.182, 332.807 742, 342.299 742 C 354.537 742, 354 741.491, 354 753.082 C 354 761.520, 354.042 761.579, 358.812 759.916 C 361.913 758.835, 361.923 758.808, 362.211 750.666 L 362.500 742.500 372.963 742.213 C 384.128 741.906, 385.050 741.539, 389.176 735.750 L 391.136 733 355.068 733 L 319 733 318.998 739.750 M 393.088 738.556 C 385.226 750.098, 368.863 761.641, 355.816 764.849 C 348.557 766.633, 348.507 766.668, 347.897 770.420 L 347.283 774.195 352.769 773.510 C 369.648 771.401, 384.131 764.532, 396.750 752.652 C 402.770 746.985, 403.068 745.400, 399.250 739.357 C 395.941 734.119, 396.095 734.139, 393.088 738.556 M 621.482 743.081 C 621.102 744.811, 621.099 749.101, 621.475 752.613 L 622.159 759 633.617 759 L 645.075 759 644.788 749.750 L 644.500 740.500 633.336 740.218 L 622.173 739.936 621.482 743.081 M 655.207 740.832 C 654.277 741.436, 653.996 744.036, 654.207 750.086 L 654.500 758.500 665.788 758.783 L 677.076 759.066 676.788 749.783 L 676.500 740.500 666.500 740.247 C 661 740.107, 655.918 740.371, 655.207 740.832 M 625 749.500 L 625 756 633.500 756 L 642 756 642 749.500 L 642 743 633.500 743 L 625 743 625 749.500 M 661.750 743.767 L 657 744.110 657 750.055 L 657 756 665.500 756 L 674 756 674 749.712 L 674 743.425 670.250 743.424 C 668.188 743.424, 664.362 743.578, 661.750 743.767 M 600.551 748.750 C 602.059 751.362, 603.452 753.688, 603.646 753.917 C 603.841 754.146, 604 752.008, 604 749.167 C 604 744.057, 603.966 744, 600.905 744 L 597.810 744 600.551 748.750 M 334.566 745.893 C 334.262 746.385, 335.205 747.086, 336.660 747.451 C 340.051 748.302, 347.581 753.465, 348.348 755.465 C 349.617 758.770, 351 756.770, 351 751.631 L 351 746.262 347.250 745.642 C 341.766 744.735, 335.201 744.866, 334.566 745.893 M 366 750.500 C 366 753.525, 366.391 756, 366.868 756 C 367.766 756, 381 746.055, 381 745.380 C 381 745.171, 377.625 745, 373.500 745 L 366 745 366 750.500 M 323.500 750.703 C 324.050 751.231, 326.525 752.278, 329 753.029 C 332.749 754.167, 333.083 754.452, 331 754.733 C 329.625 754.919, 324.081 756.001, 318.679 757.139 C 313.278 758.276, 307.541 759.013, 305.929 758.776 C 304.318 758.540, 303 758.669, 303 759.063 C 303 760.016, 311.503 763.981, 313.739 764.070 C 314.708 764.109, 316.400 764.565, 317.500 765.085 C 318.901 765.746, 317.582 765.899, 313.091 765.595 C 307.979 765.249, 305.803 764.542, 302.341 762.101 C 297.456 758.658, 297.421 758.678, 299.521 763.705 C 303.493 773.210, 315.248 781.813, 324.750 782.169 C 330.155 782.371, 330.188 783.603, 324.828 785.046 C 319.825 786.393, 321.256 787.964, 327.500 787.979 C 333.679 787.994, 338.244 786.339, 342.815 782.426 C 347.254 778.627, 348.024 777, 345.385 777 C 343.385 777, 344.266 766.897, 346.581 763.285 C 347.883 761.253, 347.740 760.773, 344.852 757.484 C 343.120 755.512, 340.407 753.228, 338.823 752.409 C 335.518 750.699, 321.919 749.185, 323.500 750.703 M 291.060 755.433 C 288.148 758.537, 278.170 763.690, 273.306 764.602 L 269.833 765.254 270.460 771.377 C 270.805 774.745, 271.350 779.909, 271.672 782.854 L 272.257 788.209 291.878 787.489 C 302.670 787.093, 311.687 786.597, 311.915 786.386 C 312.144 786.175, 309.320 782.884, 305.641 779.073 C 298.371 771.542, 295.439 766.126, 294.260 758.046 L 293.500 752.833 291.060 755.433 M 398.453 757.072 C 389.599 766.193, 374.592 773.865, 359.963 776.747 C 353.213 778.076, 352.183 778.590, 350.199 781.617 L 347.982 785 358.830 785 C 364.797 785, 377.852 784.704, 387.840 784.342 L 406 783.684 406 772.208 C 406 761.740, 404.655 753, 403.045 753 C 402.693 753, 400.627 754.833, 398.453 757.072 M 409.086 778.500 C 409.055 780.150, 409.467 782.175, 410 783 C 411.264 784.956, 411.264 780.441, 410 777.500 C 409.262 775.783, 409.133 775.924, 409.086 778.500 M 648.264 811.750 C 648.243 817.424, 649.384 820.499, 651.113 819.430 C 652.467 818.593, 652.171 813.344, 650.551 809.468 C 648.586 804.764, 648.289 805.060, 648.264 811.750 M 628.569 820.594 C 613.036 824.046, 592.306 834.788, 582.103 844.671 C 574.564 851.973, 575.726 853.449, 588.476 852.764 C 607.193 851.758, 639.561 837.447, 647.117 826.836 C 649.240 823.854, 649.242 823.798, 647.331 821.886 C 644.673 819.229, 637.067 818.705, 628.569 820.594 M 619.501 826.549 C 611.835 828.651, 598.466 835.657, 595.583 839.084 C 588.532 847.464, 596.484 850.569, 611.824 845.426 C 629.103 839.633, 636.749 832.658, 631.535 827.444 C 628.802 824.711, 626.760 824.559, 619.501 826.549 M 619.007 829.607 C 609.490 832.164, 596 840.413, 596 843.674 C 596 849.205, 627.540 838.175, 629.515 831.954 C 630.859 827.720, 628.224 827.131, 619.007 829.607" stroke="none" fill="#1a1a1a" fill-rule="evenodd"/>
</svg>