<svg xmlns="http://www.w3.org/2000/svg" width="1024" height="1024" viewBox="0 0 1024 1024" version="1.1">
	<path d="M 524.671 131.662 C 524.307 132.026, 525.058 133.713, 526.339 135.412 C 530.175 140.499, 534.515 148.434, 532.953 147.505 C 532.154 147.030, 529.722 145.534, 527.548 144.180 C 513.347 135.339, 487.921 130.571, 472.557 133.868 C 467.793 134.891, 469.041 136.213, 479.804 141.543 C 493.199 148.177, 494.403 149.446, 486.500 148.600 C 473.255 147.181, 453.569 153.492, 443.500 162.384 L 439.500 165.917 452.083 165.958 C 459.004 165.981, 464.958 166.291, 465.314 166.647 C 465.670 167.003, 460.457 168.725, 453.731 170.473 C 437.496 174.692, 427.567 179.158, 410.194 190.054 C 408.021 191.417, 407.683 191.271, 404.313 187.500 C 389.695 171.147, 378.163 161.380, 370.120 158.542 C 366.514 157.270, 366 157.270, 366 158.544 C 366 159.345, 365.887 159.995, 365.750 159.989 C 365.613 159.983, 363.291 159.308, 360.591 158.489 C 355.400 156.915, 347 156.471, 347 157.771 C 347 158.195, 344.291 159.057, 340.979 159.687 C 322.900 163.122, 303.066 181.378, 294.695 202.288 C 284.251 228.378, 288.531 253.499, 306.479 271.447 L 313.572 278.539 307.036 286.102 C 294.268 300.874, 292.197 305.397, 299.750 302.006 C 302.087 300.956, 304 300.272, 304 300.484 C 304 300.697, 297.182 309.788, 288.849 320.686 C 270.021 345.309, 260.860 359.527, 262.661 361.328 C 262.954 361.621, 266.124 360.066, 269.707 357.873 C 273.289 355.681, 276.353 354.025, 276.516 354.193 C 276.678 354.362, 274.827 357.755, 272.402 361.733 C 261.775 379.166, 257.756 396.830, 259.947 416.478 C 261.896 433.952, 262.239 434.242, 267.364 422.741 C 274.285 407.209, 274.494 407.198, 274.538 422.358 C 274.607 446.280, 282.232 466.480, 299.073 487.353 C 306.598 496.679, 309.448 498.251, 308.561 492.585 C 308.253 490.613, 307.760 487.313, 307.467 485.250 L 306.934 481.500 309.873 486.738 C 313.473 493.154, 318.968 500.705, 322.318 503.839 C 324.776 506.139, 324.792 506.253, 323.280 510.692 C 321.202 516.790, 322.098 524.571, 325.622 531.048 C 328.045 535.499, 328.228 536.405, 327.075 538.251 C 324.788 541.914, 324.072 545.908, 325.150 548.999 C 326.125 551.796, 325.869 552.226, 320.027 557.635 C 295.712 580.147, 285.574 606.512, 292.393 629.500 C 298.694 650.739, 318.268 665.466, 340.088 665.385 L 347.676 665.356 344.886 675.756 C 335.683 710.062, 336.491 743.171, 347.120 767.224 C 349.961 773.654, 350.485 776.303, 351.625 790 C 354.252 821.564, 359.664 843.139, 369.813 862.507 C 373.246 869.057, 373.577 870.211, 372.155 870.666 C 353.282 876.720, 341.517 893.066, 347.144 905.416 C 348.766 908.976, 361.717 915.439, 371.500 917.571 C 395.224 922.741, 441.188 916.891, 454.905 906.954 C 460.373 902.993, 462.470 898.419, 465 884.931 C 468.384 866.896, 473.535 853.446, 478.926 848.567 C 480.672 846.987, 481.831 846.942, 492.507 848.043 C 498.926 848.705, 510.713 849.050, 518.699 848.810 L 533.219 848.373 535.972 851.126 C 544.188 859.342, 551.667 874.939, 556.196 893.306 C 559.626 907.212, 560.742 909.764, 564.948 913.303 C 576.634 923.136, 625.201 929.082, 652.126 923.976 C 658.407 922.785, 670.877 916.824, 673.966 913.537 C 681.695 905.309, 672.560 885.894, 657.977 879.553 C 655.515 878.483, 653.342 877.500, 653.149 877.369 C 652.955 877.238, 654.609 872.489, 656.822 866.815 C 667.564 839.287, 673.453 809.810, 674.864 776.500 C 675.528 760.837, 674.712 738.886, 673.163 730.750 C 672.654 728.078, 672.639 726, 673.129 726 C 673.608 726, 674 726.367, 674 726.816 C 674 729.241, 682.201 732.175, 687.302 731.573 C 690.161 731.236, 695.101 730.996, 698.280 731.039 C 708.756 731.183, 717.155 725.723, 720.195 716.794 C 720.812 714.982, 722.548 712.076, 724.052 710.336 C 732.601 700.449, 729.820 682.291, 717.636 668.446 C 713.448 663.687, 712.974 662.521, 709.509 648.446 C 699.602 608.197, 677.110 566.205, 652.020 541.115 L 646.788 535.883 653.044 530.192 C 661.105 522.858, 661.471 522.789, 658.501 529.170 C 656.161 534.196, 655.320 538, 656.550 538 C 660.485 538, 679.517 523.347, 690.229 512.070 C 699.867 501.924, 705.646 493.263, 710.131 482.244 L 712.762 475.780 713.161 482.836 C 713.830 494.674, 715.475 493.606, 724.459 475.500 C 733.810 456.655, 736.718 444.425, 735.637 428.500 L 735.026 419.500 737.206 423 C 738.405 424.925, 740.948 428.975, 742.858 432 L 746.330 437.500 747.221 434.500 C 748.492 430.221, 747.240 411.198, 744.938 399.788 C 742.829 389.340, 739.094 378.401, 733.505 366.304 C 729.281 357.161, 729.197 356.347, 732.750 358.970 C 735.951 361.334, 742 363.291, 742 361.964 C 742 361.471, 740.158 358.240, 737.906 354.784 C 733.740 348.388, 721.956 325.067, 722.054 323.410 C 722.083 322.910, 724.727 321.220, 727.929 319.656 C 740.154 313.682, 752.154 299.669, 756.283 286.546 C 759.855 275.195, 759.481 250.696, 755.558 239 C 753.990 234.325, 752.660 229.365, 752.603 227.978 C 752.401 223.040, 743.950 210.792, 733.827 200.763 C 723.412 190.445, 719.927 188.361, 711.416 187.361 C 708.334 186.999, 705.893 186.165, 705.588 185.369 C 704.821 183.369, 696.738 183.637, 687.635 185.965 C 675.345 189.109, 660.451 197.329, 646.246 208.809 L 641.992 212.247 634.590 205.215 C 623.440 194.624, 614.572 188.902, 592.431 178.014 L 572.293 168.111 560.897 155.927 C 549.351 143.584, 542.149 137.840, 532.709 133.445 C 527.242 130.900, 525.762 130.571, 524.671 131.662 M 530 135.541 C 530 135.867, 531.110 137.589, 532.467 139.368 C 534.933 142.601, 540 153.160, 540 155.066 C 540 155.621, 537.273 154.223, 533.941 151.960 C 519.492 142.148, 505.036 137.320, 487.500 136.450 L 476.500 135.904 484.200 139.830 C 492.393 144.008, 500.264 149.398, 503.518 153.060 L 505.500 155.291 502.500 154.651 C 491.464 152.297, 482.829 151.713, 475.144 152.799 C 466.937 153.960, 453.791 158.467, 448.637 161.888 L 445.775 163.788 452.186 163.273 C 458.462 162.769, 473.973 164.315, 478.149 165.859 C 479.906 166.510, 479.198 167.020, 473.878 168.941 C 462.513 173.043, 447 186.527, 447 192.303 C 447 192.542, 450.813 190.825, 455.472 188.486 C 463.134 184.641, 479.585 179.252, 480.591 180.258 C 480.814 180.481, 479.085 182.037, 476.748 183.716 C 474.412 185.395, 470.986 188.878, 469.136 191.456 L 465.773 196.144 471.636 193.184 C 478.342 189.800, 487.167 186.986, 490.932 187.031 C 492.438 187.049, 489.309 188.658, 483.364 190.922 C 477.788 193.046, 471.131 196.011, 468.568 197.513 C 466.006 199.014, 463.635 199.968, 463.298 199.632 C 462.442 198.775, 466.026 191.124, 468.865 187.750 L 471.229 184.939 466.095 186.963 C 459.348 189.622, 452.417 193.186, 447.633 196.456 C 442.878 199.705, 442.263 199.205, 443.825 193.363 C 445.306 187.828, 449.406 181.673, 454.949 176.665 C 458.852 173.139, 458.921 172.980, 456.283 173.620 C 440.662 177.409, 422.893 185.742, 405.194 197.580 L 392.500 206.070 398.760 199.929 L 405.021 193.788 398.121 186.135 C 385.205 171.807, 371.704 160.460, 373.671 165.585 C 374.112 166.735, 372.529 166.283, 367.890 163.934 C 362.892 161.403, 360.285 160.708, 355.921 160.743 C 345.882 160.823, 328 165.691, 328 168.344 C 328 169.005, 326.377 170.419, 324.394 171.487 C 319.590 174.074, 310.714 183.058, 305.772 190.335 C 287.528 217.202, 289.031 248.713, 309.526 269.025 L 316.019 275.461 322.201 269.279 L 328.382 263.098 323.824 258.799 C 312.457 248.079, 308 231.466, 312.451 216.409 L 313.903 211.500 311.818 214 L 309.734 216.500 310.504 214 C 311.842 209.655, 316.957 203.081, 322.320 198.814 C 327.484 194.705, 327.162 194.345, 320.343 196.601 C 319.329 196.937, 319.837 196.280, 321.470 195.141 C 324.516 193.019, 331.615 191.102, 337.299 190.868 L 340.500 190.737 337 189.928 C 334.006 189.236, 334.296 189.155, 339 189.371 C 350.973 189.921, 364.611 200.153, 372.493 214.500 C 374.608 218.350, 376.497 221.697, 376.690 221.938 C 376.884 222.178, 379.141 220.378, 381.707 217.938 C 386.957 212.944, 386.490 213.743, 376.201 227.348 C 361.642 246.599, 352.255 264.537, 339.968 296.585 C 329.772 323.178, 325.253 330.783, 312.423 342.951 C 299.737 354.982, 299.270 355.653, 305.507 352.894 C 311.798 350.111, 311.915 350.753, 306.463 358.153 C 298.131 369.462, 292.548 382.977, 291.533 394.294 C 290.985 400.402, 290.998 400.444, 292.368 396.945 C 294.520 391.450, 297.858 385.206, 299.032 384.480 C 300.031 383.863, 299.966 385.507, 298.530 397.162 C 297.090 408.855, 302.405 425.767, 312.192 440.629 C 317.516 448.714, 331.263 465.500, 332.561 465.500 C 332.745 465.500, 334.253 463.451, 335.912 460.946 C 340.375 454.209, 353.351 445.060, 358.513 445.010 C 359.071 445.004, 360.087 442.637, 360.772 439.750 C 363.776 427.086, 378.021 414, 388.803 414 C 392.856 414, 393.085 414.145, 392.369 416.250 C 389.664 424.194, 394.872 429.892, 408.288 433.668 C 411.155 434.475, 414.339 435.395, 415.364 435.714 C 417.950 436.517, 416.809 428.135, 413.422 421.445 C 412.090 418.814, 411 415.940, 411 415.058 C 411 414.176, 409.395 412.591, 407.434 411.535 C 396.937 405.881, 390.782 389.594, 394.975 378.565 C 396.122 375.550, 395.426 375.377, 390.468 377.449 C 387.480 378.697, 387 378.701, 387 377.475 C 387 375.584, 392.146 373, 395.912 373 C 398.134 373, 400.152 371.806, 403.611 368.444 C 406.189 365.939, 410.144 363.001, 412.399 361.915 L 416.500 359.942 413 362.721 C 403.258 370.456, 400.501 373.691, 402.040 375.582 C 403.348 377.188, 403.320 377.307, 401.765 376.724 C 397.508 375.129, 396.076 388.966, 399.668 397 C 401.923 402.045, 408.503 408.477, 413.578 410.597 C 418.749 412.757, 431.274 412.290, 439 409.649 L 445.500 407.427 445.795 401.334 L 446.089 395.241 440.795 392.228 C 429.214 385.636, 418.975 374.015, 417.462 365.746 C 416.279 359.272, 421.260 352.280, 431.791 345.632 C 442.269 339.017, 446.161 303.762, 438.966 280.643 C 436.747 273.513, 436.995 272.080, 439.371 278.301 C 445.534 294.439, 445.335 323.413, 438.961 337.821 C 437.882 340.259, 437 342.415, 437 342.613 C 437 342.810, 439.363 342.027, 442.250 340.874 C 451.049 337.361, 469.561 339.208, 478.717 344.514 C 480.247 345.401, 480.600 345.804, 479.500 345.408 C 471.903 342.675, 462.371 340.813, 455.500 340.720 C 448.057 340.620, 446.994 340.879, 440.223 344.444 C 431.550 349.011, 423.355 355.891, 426.500 355.965 C 427.600 355.991, 432.550 358.079, 437.500 360.605 L 446.500 365.197 456 364.623 C 461.225 364.307, 468.699 363.757, 472.609 363.400 C 481.168 362.619, 485.938 363.949, 489.420 368.087 L 491.905 371.040 496.093 365.494 C 498.396 362.443, 500.459 360.126, 500.678 360.344 C 501.375 361.042, 491.025 377.372, 487.701 380.818 C 482.001 386.727, 459.486 396, 450.840 396 C 449.278 396, 449 396.825, 449 401.449 C 449 407.942, 450.826 409.740, 463.253 415.481 C 487.185 426.539, 511.777 422.812, 523.057 406.417 C 527.593 399.824, 528.416 396.293, 525.751 394.866 C 523.755 393.798, 523.737 393.666, 525.416 392.438 C 527.084 391.218, 527.008 390.872, 524.180 386.762 C 522.524 384.355, 520.439 381.779, 519.547 381.039 C 518.654 380.298, 516.479 377.849, 514.712 375.596 L 511.500 371.500 515.697 374.792 C 519.598 377.852, 529 389.265, 529 390.941 C 529 391.349, 530.767 392.213, 532.926 392.860 C 536.575 393.953, 542 398.896, 542 401.128 C 542 401.663, 540.538 401.020, 538.750 399.699 C 533.168 395.572, 532.184 395.604, 531.014 399.949 C 529.549 405.388, 524.240 412.905, 519.344 416.472 C 515.849 419.019, 514.678 420.851, 511.974 428 C 503.049 451.600, 491.272 467.802, 480.454 471.364 C 476.006 472.828, 474.896 473.803, 471.099 479.579 C 464.893 489.018, 456.357 494.610, 447.141 495.272 C 445.661 495.379, 444.441 496.340, 443.866 497.852 C 443.362 499.177, 442.123 501.440, 441.113 502.881 C 439.328 505.424, 439.329 505.556, 441.126 507.412 C 442.143 508.464, 443.531 510.579, 444.209 512.111 C 445.701 515.481, 453.566 519.678, 460 520.537 L 464.500 521.138 461.750 519.337 C 457.577 516.605, 458.414 516.125, 464.750 517.616 C 467.913 518.360, 474.325 519.004, 479 519.048 C 489.269 519.143, 487.211 520.585, 474.500 522.202 C 461.440 523.862, 454.914 523.661, 450.465 521.461 L 446.500 519.500 446.307 522.957 C 446.200 524.859, 445.380 528.336, 444.483 530.683 C 443.092 534.326, 443.043 535.477, 444.149 538.535 C 445.639 542.655, 444.083 546.774, 440.422 548.402 C 439.307 548.899, 437.926 550.799, 437.355 552.624 C 436.323 555.921, 436.358 555.973, 442.320 559.976 C 449.369 564.709, 449.623 564.665, 446.967 559.168 C 444.369 553.790, 443.383 549, 444.875 549 C 445.494 549, 446 549.395, 446 549.878 C 446 551.179, 458.897 564.875, 461.367 566.196 C 463.299 567.230, 463.257 567.024, 460.902 563.917 C 455.821 557.215, 455.683 555.390, 460.644 560.532 C 463.315 563.299, 467.902 567.741, 470.837 570.403 L 476.174 575.243 477.944 572.332 C 481.150 567.061, 489.345 560.863, 499.500 556.031 C 513.379 549.427, 514.217 549.279, 508.323 554.468 C 503.901 558.363, 499 564.549, 499 566.238 C 499 566.514, 502.328 564.996, 506.395 562.864 C 517.405 557.095, 525.456 554.316, 546.855 548.899 C 569.309 543.215, 570.175 543.107, 563.500 546.811 C 560.750 548.337, 556.025 551.305, 553 553.407 L 547.500 557.229 553 556.538 C 571.652 554.194, 595.387 546.427, 606.455 539.047 C 609.730 536.863, 612.591 535.258, 612.814 535.480 C 613.350 536.017, 609.683 541.269, 604.249 547.749 L 599.847 552.998 608.674 549.889 C 634.460 540.806, 659.684 523.588, 666.915 510.133 C 667.693 508.685, 668.508 508.032, 668.726 508.683 C 669.205 510.113, 665.700 521.746, 663.521 525.960 C 660.718 531.379, 659.766 534.427, 661.218 533.326 C 690.542 511.101, 706.867 488.897, 711.454 465 L 712.701 458.500 713.911 462.831 C 714.576 465.213, 715.431 471.513, 715.810 476.831 L 716.500 486.500 722.168 473 C 731.109 451.706, 731.509 449.917, 731.440 431.500 C 731.393 418.939, 731.015 414.553, 729.680 411.094 C 728.744 408.671, 728.172 406.495, 728.408 406.259 C 729.182 405.484, 737.926 417.359, 741.472 424 L 744.942 430.500 744.971 425.849 C 745.059 411.746, 740.062 392.552, 729.521 366.500 C 725.516 356.600, 721.960 347.583, 721.619 346.462 C 721.253 345.258, 723.839 347.202, 727.938 351.212 C 735.243 358.360, 738.808 360.244, 734.631 354.750 C 730.809 349.723, 725.077 339.223, 721.937 331.500 C 718.775 323.720, 719.986 324.249, 708 325.409 L 702.500 325.941 698.712 319.009 C 694.129 310.620, 681.616 291.498, 680.094 290.558 C 677.472 288.937, 679.326 288.238, 682.608 289.610 C 687.923 291.830, 687.800 290.650, 682.320 286.846 C 676.358 282.707, 677.864 282.225, 690.116 284.351 C 694.727 285.151, 698.632 285.680, 698.794 285.526 C 699.672 284.689, 688.710 278.700, 682.836 276.808 C 679.076 275.597, 676 274.306, 676 273.938 C 676 273.571, 680.952 271.983, 687.004 270.409 C 700.380 266.931, 699.247 265.692, 682.750 265.757 C 676.837 265.780, 672.024 265.506, 672.053 265.149 C 672.083 264.792, 676.020 261.676, 680.803 258.224 C 685.586 254.773, 690.625 251.024, 692 249.894 L 694.500 247.839 689.500 248.411 C 686.750 248.726, 679.032 250.880, 672.349 253.197 C 661.179 257.070, 659.967 257.300, 657.349 256.036 C 654.846 254.827, 654.743 254.616, 656.500 254.291 C 657.600 254.088, 659.523 253.703, 660.773 253.436 C 662.023 253.169, 668.323 247.631, 674.773 241.129 C 691.565 224.202, 703.746 217.815, 716.014 219.502 C 724.036 220.605, 725.271 222.546, 717.773 222.265 L 711.500 222.031 716.071 223.315 C 721.099 224.728, 728.929 229.004, 730.952 231.442 C 732.692 233.539, 731.709 233.403, 727.774 231.004 C 722.744 227.937, 722.526 228.574, 726.836 233.750 C 731.710 239.602, 736.644 249.305, 737.420 254.562 L 738.002 258.500 736.619 255.548 C 735.326 252.792, 735.209 253.320, 734.835 263.548 C 734.055 284.932, 722.405 298.802, 701.205 303.590 L 694.209 305.170 697.967 313.335 C 700.033 317.826, 701.990 322.269, 702.315 323.210 C 703.365 326.246, 719.276 320.629, 730.203 313.365 C 748.045 301.504, 754.528 287.770, 754.450 262 C 754.394 243.541, 752.402 234.752, 745.974 224.620 C 743.843 221.259, 743.380 219.932, 744.489 220.357 C 750.108 222.514, 732.989 203.219, 724.500 197.829 C 720.370 195.206, 719.123 193.991, 720.500 193.928 C 726.457 193.657, 714.292 190.602, 705 190.036 C 695.801 189.475, 694.810 189.245, 697 188.180 C 700.529 186.463, 693.439 187.481, 686.500 189.688 C 672.766 194.056, 642.726 213.537, 639.006 220.489 C 637.028 224.185, 636.638 222.802, 638.441 218.486 C 639.299 216.434, 640 214.600, 640 214.410 C 640 213.579, 620.861 198.828, 614.500 194.756 C 610.650 192.292, 600.525 186.557, 592 182.012 C 571.447 171.055, 569.270 169.496, 557 156.957 C 544.551 144.235, 530 132.693, 530 135.541 M 332.363 195.922 C 321.511 200.850, 314.957 211.557, 314.202 225.591 C 313.488 238.848, 316.959 247.820, 326.302 256.865 L 330.811 261.231 336.961 256.112 C 340.344 253.297, 344.436 250.309, 346.056 249.471 C 350.047 247.407, 349.978 247.379, 342 247.830 C 336.074 248.165, 335 247.979, 335 246.619 C 335 244.445, 342.435 239.197, 346.629 238.410 C 351.434 237.508, 351.527 236.541, 347.002 234.501 C 341.337 231.946, 339.235 229.469, 341.667 228.211 C 344.913 226.532, 350.479 225.963, 355.138 226.833 L 359.679 227.682 354.840 221.288 C 352.178 217.771, 350 214.505, 350 214.030 C 350 211.422, 359.220 212.834, 365.649 216.427 C 370.886 219.354, 370.987 218.940, 366.619 212.453 C 356.037 196.740, 343.687 190.780, 332.363 195.922 M 354 215.389 C 354 215.527, 356.246 218.533, 358.991 222.070 C 366.266 231.442, 366.113 231.655, 353.750 229.353 C 352.238 229.072, 349.580 229.153, 347.844 229.534 L 344.688 230.227 350.532 233.364 C 357.638 237.177, 358.264 238.537, 353.289 239.354 C 351.205 239.696, 346.800 241.320, 343.500 242.964 L 337.500 245.952 342.243 245.364 C 344.852 245.040, 348.582 245.074, 350.532 245.440 L 354.077 246.105 348.289 250.379 C 340.028 256.478, 323.067 272.938, 310.462 287.089 C 299.346 299.568, 299.322 300.221, 310.230 293.350 C 312.282 292.057, 314.165 291, 314.416 291 C 314.959 291, 290.176 325.760, 285.540 331.500 C 275.352 344.115, 266.973 355.306, 267.397 355.731 C 267.665 355.999, 269.148 355.327, 270.692 354.237 C 274.723 351.393, 284.111 346.778, 284.689 347.356 C 284.959 347.625, 283.424 350.468, 281.279 353.673 C 268.916 372.143, 264.021 386.536, 262.634 408.500 C 262.225 414.972, 263.402 430.583, 263.866 424.852 C 264.132 421.575, 272.940 405.430, 276.060 402.500 L 279.255 399.500 278.538 403.488 C 275.393 420.965, 279.988 447.015, 289.613 466.283 C 293.035 473.131, 305.076 492.258, 305.622 491.711 C 305.763 491.570, 305.394 486.663, 304.802 480.807 C 303.482 467.757, 304.386 463.999, 306.921 472 C 309.971 481.626, 318.018 495.003, 324.229 500.771 L 326.675 503.043 330.378 499.550 L 334.081 496.058 332.291 492.779 C 330.902 490.237, 330.498 487.201, 330.491 479.268 L 330.481 469.035 323.828 462.268 C 306.514 444.654, 296.763 425.779, 295.327 407.095 L 294.676 398.626 292.531 403.538 C 290.046 409.229, 289.328 408.432, 288.329 398.874 C 287.202 388.091, 291.046 374.776, 298.492 363.674 L 302.974 356.991 298.893 359.568 C 288.943 365.849, 293.956 357.058, 309.482 341 C 324.468 325.501, 326.828 321.614, 334.994 299 C 346.058 268.360, 358.668 243.535, 370.110 229.869 C 374.078 225.129, 374.178 224.847, 372.380 223.465 C 368.542 220.512, 354 214.123, 354 215.389 M 698.158 227.055 C 692.378 229.965, 672.224 247.558, 673.365 248.698 C 673.592 248.926, 676.481 248.412, 679.784 247.556 C 686.341 245.857, 697.551 245.464, 698.440 246.902 C 698.998 247.806, 690.567 255.492, 684 260.063 L 680.500 262.500 688.065 263.115 C 695.295 263.703, 703 266.267, 703 268.084 C 703 268.555, 698.851 270.230, 693.780 271.806 C 685.713 274.314, 684.910 274.761, 687.363 275.376 C 693.056 276.805, 703 284.535, 703 287.532 C 703 288.772, 702.347 289.029, 700.250 288.614 C 698.737 288.314, 695.700 287.789, 693.500 287.447 C 691.300 287.105, 688.601 286.574, 687.502 286.266 C 685.985 285.842, 686.407 286.708, 689.252 289.857 C 691.313 292.139, 693 294.454, 693 295.003 C 693 296.246, 691.311 296.312, 690.561 295.098 C 690.254 294.603, 688.569 293.697, 686.815 293.085 L 683.627 291.974 686.046 294.737 C 693.568 303.329, 692.694 302.799, 697.782 301.848 C 728.618 296.088, 743.043 259.879, 724.389 235.064 C 716.376 224.404, 708.314 221.943, 698.158 227.055 M 403.875 250.455 C 403.806 250.755, 403.694 251.553, 403.625 252.228 C 403.556 252.904, 401.250 253.917, 398.500 254.478 C 390.604 256.092, 378.260 266.075, 376.677 272.128 C 376.196 273.966, 376.331 274.015, 378.327 272.730 C 394.183 262.521, 405.714 260.329, 426.250 263.618 C 431.395 264.442, 431.245 262.206, 425.799 256.920 C 420.464 251.743, 416 249.251, 416 251.450 C 416 252.587, 415.455 252.748, 413.750 252.115 C 410.489 250.905, 404.021 249.817, 403.875 250.455 M 408.250 254.050 C 408.392 254.647, 406.346 255.230, 403.500 255.402 C 396.971 255.797, 389.655 259.614, 384 265.575 C 380.205 269.576, 379.998 269.978, 382.681 268.141 C 392.335 261.529, 408.508 258.832, 423.500 261.334 L 428.500 262.169 425 258.502 C 421.196 254.518, 416.261 251.171, 418.893 254.360 C 421.053 256.980, 419.574 257.320, 415.863 255.058 C 412.297 252.884, 407.831 252.292, 408.250 254.050 M 547.410 267.999 C 540.055 271.732, 536.529 274.428, 537.323 275.713 C 537.658 276.256, 542.335 277.009, 547.716 277.388 C 565.607 278.645, 576.810 283.088, 589.745 294.057 C 595.983 299.348, 597.160 300.935, 600.272 308.257 C 607.724 325.792, 609.625 344.473, 605.138 356.085 C 602.075 364.013, 599.884 365.684, 590.142 367.533 C 585.594 368.395, 576.165 370.888, 569.187 373.072 C 548.199 379.640, 534.315 379.891, 522.187 373.920 C 508.206 367.038, 504.075 359.737, 503.883 341.572 C 503.773 331.171, 503.708 330.833, 502.808 336 C 499.090 357.351, 510.933 374.286, 532.799 378.885 C 543.382 381.111, 551.732 379.912, 576 372.682 C 584.391 370.182, 590.769 368.843, 602.500 367.122 C 607.391 366.404, 607.794 366.219, 604.677 366.121 L 600.855 366 602.866 363.443 C 608.951 355.708, 610.627 334.291, 606.241 320.323 C 601.813 306.224, 591.536 286.668, 585.885 281.587 C 583.079 279.064, 580.356 277, 579.833 277 C 579.310 277, 579.158 276.554, 579.494 276.009 C 580.053 275.105, 576.491 273.097, 571.528 271.519 C 569.930 271.011, 569.826 270.726, 570.976 270.015 C 573.152 268.670, 568.254 267.752, 561.063 268.158 C 554.803 268.511, 554.152 268.248, 556.200 266.200 C 558.521 263.879, 553.507 264.905, 547.410 267.999 M 547.001 270.067 C 541.166 273.283, 538.945 274.987, 540.550 275.018 C 558.194 275.356, 570.273 278.387, 580.447 285.029 C 584.470 287.655, 588.064 290.295, 588.436 290.896 C 588.807 291.497, 590.020 292.476, 591.131 293.070 C 593.003 294.072, 593.062 293.985, 591.940 291.888 C 590.029 288.317, 581.855 279.977, 578.636 278.312 C 576.717 277.319, 576.115 276.547, 576.890 276.068 C 578.361 275.159, 571.497 273, 567.134 273 C 563.595 273, 562.767 271.047, 566.250 270.914 C 568.129 270.842, 568.005 270.672, 565.500 269.885 C 562.684 268.999, 555.588 269.453, 552.256 270.732 C 551.019 271.207, 550.962 270.940, 551.919 269.152 C 553.349 266.480, 553.591 266.435, 547.001 270.067 M 369.009 282.108 C 363.721 288.797, 358.476 299.832, 356.450 308.528 C 354.823 315.510, 354.817 328.571, 356.438 332.242 C 357.157 333.869, 356.969 333.885, 353.604 332.479 C 347.733 330.026, 349.478 331.395, 357.250 335.340 C 361.238 337.364, 368.775 342.453, 374 346.648 C 386.773 356.905, 392.242 359.396, 402.500 359.632 L 410.500 359.815 402.945 359.120 C 393.261 358.230, 386.705 355.053, 375.205 345.680 C 370.361 341.731, 364.748 337.619, 362.733 336.541 C 352.108 330.861, 354.906 305.663, 368.447 285.080 C 374.574 275.767, 374.748 274.847, 369.009 282.108 M 526.007 283.707 C 514.743 296.443, 503.860 318.340, 504.053 327.878 C 504.082 329.320, 505.228 326.675, 506.598 322 C 510.911 307.287, 518.009 294.370, 527.345 284.241 C 529.516 281.886, 531.057 279.724, 530.769 279.436 C 530.482 279.148, 528.339 281.070, 526.007 283.707 M 668.651 302.345 C 673.313 314.011, 677.846 332.205, 679.030 344 C 679.554 349.225, 680.481 358.450, 681.091 364.500 C 681.700 370.550, 682.157 376.918, 682.108 378.652 C 682.048 380.719, 684.718 387.198, 689.863 397.477 L 697.710 413.151 692.076 407.575 C 684.937 400.511, 684.484 400.585, 687.958 408.250 C 690.732 414.370, 692.179 419.065, 693.406 425.918 C 693.968 429.060, 693.695 428.837, 690.031 423.168 C 685.703 416.472, 684.404 415.487, 685.462 419.704 C 688.054 430.031, 684.685 453.119, 679.023 463.837 L 677.088 467.500 677.044 459.417 C 676.988 449.189, 676.404 448.696, 672.730 455.770 C 668.331 464.240, 662.506 471.420, 654.063 478.785 C 646.590 485.302, 631.085 496.018, 628.600 496.382 C 627.885 496.487, 626.220 497.279, 624.900 498.142 C 623.580 499.005, 620.529 500.715, 618.120 501.942 L 613.741 504.173 615.706 501.336 C 619.573 495.758, 619.281 495.568, 614.144 500.321 C 602.669 510.938, 581.133 515.750, 519.191 521.532 C 505.674 522.794, 512.547 523.049, 531.603 521.992 C 566.003 520.085, 586.281 517.001, 604.234 510.950 C 616.914 506.675, 636.148 497.217, 644 491.396 C 647.575 488.745, 651.056 486.560, 651.734 486.538 C 654.211 486.461, 667.039 470.464, 671.009 462.503 L 674.999 454.500 675 462.750 C 675 472.005, 675.602 472.633, 679.315 467.250 C 686.094 457.422, 690.394 442.002, 689.424 431 L 688.939 425.500 691.676 430.750 C 693.182 433.638, 694.771 436, 695.207 436 C 696.574 436, 696.071 422.551, 694.511 417.409 C 693.692 414.709, 693.017 412.334, 693.011 412.131 C 693.005 411.929, 694.605 412.986, 696.566 414.482 C 698.527 415.978, 700.343 416.990, 700.602 416.731 C 701.320 416.014, 697.797 407.610, 690.447 392.503 C 685.131 381.577, 683.729 377.703, 683.448 373.170 C 680.922 332.400, 678.863 320.840, 671.094 303.817 C 666.475 293.696, 664.789 292.680, 668.651 302.345 M 382.207 307.138 C 376.011 309.519, 366.919 317.880, 365.231 322.750 C 363.818 326.827, 364.096 326.810, 373.646 322.250 C 391.764 313.599, 408.104 319.271, 417.640 337.521 C 422.065 345.991, 424.486 342.352, 421.978 331 C 417.491 310.686, 400.110 300.259, 382.207 307.138 M 541.632 328.400 C 531.293 332.757, 519.904 344.665, 518.398 352.691 C 517.461 357.684, 518.082 357.616, 525.632 351.891 C 536.739 343.469, 541.779 341.560, 553 341.529 C 564.379 341.497, 570.274 343.937, 579.927 352.672 C 587.031 359.101, 587.440 359.167, 586.585 353.750 C 583.344 333.204, 560.628 320.394, 541.632 328.400 M 455.776 336.733 C 458.128 336.945, 461.728 336.942, 463.776 336.727 C 465.824 336.512, 463.900 336.339, 459.500 336.343 C 455.100 336.346, 453.424 336.522, 455.776 336.733 M 421.250 360.116 C 419.721 361.687, 419.670 363.755, 421.062 367.747 C 422.044 370.565, 422.407 370.755, 425.902 370.286 C 430.552 369.663, 433.061 372.344, 435.720 380.780 C 437.086 385.113, 438.347 386.965, 441.484 389.242 L 445.500 392.158 445.777 386.829 C 446.211 378.500, 447.384 377.788, 447.969 385.500 C 448.481 392.252, 448.589 392.490, 451 392.229 C 459.047 391.358, 459.826 390.973, 462.385 386.606 C 468.711 375.812, 476.878 373.018, 480.713 380.336 C 482.070 382.925, 489.327 376.283, 488.827 372.909 C 487.915 366.753, 481.968 365.668, 458.939 367.459 C 447.065 368.382, 443.707 367.705, 435.500 362.733 C 429.905 359.343, 423.200 358.112, 421.250 360.116 M 426.113 372.930 C 424.437 373.966, 425.668 376.396, 429.914 380.437 C 432.383 382.787, 433 383.027, 433 381.637 C 433 377.386, 428.371 371.534, 426.113 372.930 M 468.329 383.518 C 462.542 389.557, 462.873 390.472, 469.750 387.439 C 476.513 384.457, 478.497 382.738, 477.668 380.578 C 476.555 377.677, 472.789 378.862, 468.329 383.518 M 439.500 413.220 C 435.100 414.717, 430.501 415.954, 429.281 415.970 C 427.690 415.992, 426.031 417.610, 423.426 421.683 C 420.078 426.916, 419.844 427.765, 420.460 432.408 C 421.465 439.989, 422.473 440.607, 427.215 436.548 C 435.969 429.055, 446.644 426.567, 457.608 429.463 C 461.399 430.465, 466.075 431.130, 468 430.941 C 469.925 430.752, 474.542 430.576, 478.261 430.549 C 483.467 430.511, 484.905 430.194, 484.511 429.168 C 484.230 428.436, 484 427.455, 484 426.989 C 484 426.523, 481.413 425.613, 478.250 424.967 C 469.438 423.166, 458.045 418.428, 452.500 414.259 L 447.500 410.500 439.500 413.220 M 415.130 417.942 C 416.920 423.077, 418.641 423.637, 420.959 419.839 L 422.998 416.500 420.249 415.868 C 414.466 414.540, 414.008 414.725, 415.130 417.942 M 381.603 419.143 C 373.004 423.678, 365.642 433.138, 363.523 442.374 C 362.424 447.166, 362.297 447.292, 355.953 449.817 C 338.096 456.925, 329.169 477.164, 336.463 494 C 338.388 498.441, 338.572 499.562, 337.423 499.823 C 335.637 500.229, 335.503 506.357, 337.250 507.755 C 337.938 508.305, 341.188 508.968, 344.473 509.228 C 349.776 509.648, 350.730 510.068, 352.973 512.968 C 358.564 520.194, 359.649 521.138, 363.305 521.959 C 366.394 522.653, 368.661 522.273, 375.364 519.935 C 385.181 516.511, 388.658 516.988, 393.991 522.490 C 398.434 527.075, 400.466 526.968, 402.993 522.015 C 405.793 516.524, 409.020 514.581, 414.021 515.371 C 416.209 515.717, 419.773 516.281, 421.940 516.624 C 427.372 517.483, 430.807 516.418, 434.152 512.837 C 436.667 510.145, 437 510.024, 437 511.805 C 437 514.138, 431.964 518.720, 428.424 519.608 C 427.092 519.943, 422.947 519.467, 419.213 518.552 C 410.414 516.396, 407.643 517.334, 405.068 523.342 C 401.987 530.530, 398.301 530.851, 391.767 524.500 C 386.267 519.154, 385.251 519.070, 375.001 523.121 C 363.221 527.776, 360.155 526.725, 350.326 514.667 C 348.590 512.539, 347.278 511.993, 343.826 511.965 C 337.841 511.916, 334.818 509.981, 333.505 505.358 L 332.410 501.500 329.638 506.203 C 325.721 512.848, 325.178 519.829, 327.982 527.500 C 331.328 536.654, 331.341 536.761, 329.616 540.397 C 327.604 544.637, 327.595 545.976, 329.557 548.777 C 331.533 551.599, 334.710 551.601, 340.504 548.786 L 345.061 546.572 350.866 549.763 C 355.947 552.556, 357.097 552.832, 360.086 551.968 C 367.789 549.741, 371.652 554.402, 371.225 565.404 C 370.884 574.173, 371.616 577.724, 374.033 579.018 C 377.657 580.957, 380 576.733, 380 568.262 C 380 555.307, 384.798 550.858, 393.226 555.996 C 397.654 558.696, 398.336 558.570, 402.351 554.315 C 405.690 550.776, 406.160 550.606, 414.164 550.053 C 419.938 549.654, 423.956 548.763, 427.236 547.156 C 430.648 545.484, 432.827 545.023, 435.027 545.506 C 440.216 546.646, 442.758 542.154, 439.923 536.856 C 439.106 535.329, 439.250 533.835, 440.519 530.672 C 444.217 521.456, 440.211 504.090, 435.324 508.146 C 432.698 510.326, 433.161 508.439, 436.586 503.007 C 444.472 490.499, 443.898 477.462, 435.046 468.033 C 431.925 464.708, 431.734 464.644, 430.396 466.474 C 429.622 467.531, 429 470.717, 429 473.619 C 429 478.095, 428.615 479.158, 426.343 480.945 C 422.942 483.620, 420.490 482.878, 416.172 477.864 C 412.531 473.636, 409.414 472.976, 405 475.500 C 400.968 477.805, 398.410 477.249, 393.506 473.005 C 388.433 468.615, 387.557 468.317, 377.812 467.679 C 369.658 467.144, 364.962 464.534, 361.595 458.663 C 358.081 452.535, 357.060 448.405, 360.161 452.861 C 367.387 463.245, 369.547 464.807, 377.706 465.552 C 388.312 466.521, 389.936 467.050, 394.550 471.043 C 399.579 475.395, 400.339 475.593, 404 473.500 C 408.861 470.721, 413.587 471.573, 417.884 476 C 420.019 478.200, 422.478 480, 423.348 480 C 425.515 480, 427.297 476.336, 426.686 473.138 C 426.409 471.687, 426.816 468.983, 427.591 467.128 C 429.480 462.608, 429.374 454.590, 427.370 450.366 C 424.794 444.939, 419.460 441.313, 409.036 437.903 C 394.096 433.017, 388.013 427.911, 388.004 420.250 C 387.999 416.451, 387.027 416.283, 381.603 419.143 M 383.526 422.950 C 380.509 428.784, 382.796 437.733, 388.670 443.084 C 391.573 445.729, 391.088 444.556, 386.828 438.632 C 383.145 433.510, 382.348 428.887, 384.295 423.930 C 386.115 419.298, 385.693 418.760, 383.526 422.950 M 505.500 423.613 C 502.637 424.655, 500.766 426.279, 498.919 429.324 L 496.339 433.580 500.063 435.170 C 503.764 436.751, 503.796 436.744, 504.997 434.130 C 506.696 430.434, 510.018 421.984, 509.735 422.079 C 509.606 422.122, 507.700 422.813, 505.500 423.613 M 487 426.976 C 487 427.513, 487.868 429.379, 488.929 431.124 L 490.858 434.296 493.929 431.225 C 498.193 426.961, 497.839 426, 492 426 C 489.250 426, 487 426.439, 487 426.976 M 439.306 433.585 C 436.999 434.434, 433.250 436.788, 430.976 438.815 L 426.841 442.500 429.457 447.163 C 430.896 449.727, 432.340 454.077, 432.666 456.829 C 433.156 460.965, 433.938 462.477, 437.173 465.543 C 442.868 470.939, 445.233 476.229, 445.794 484.824 C 446.326 492.971, 446.648 493.140, 454.539 489.409 C 461.695 486.026, 474.089 471.112, 476.484 463 C 477.921 458.136, 480.245 454, 481.541 454 C 482.263 454, 484.177 455.604, 485.793 457.565 L 488.732 461.131 493.460 454.841 C 498.274 448.438, 502 441.957, 502 439.989 C 502 438.150, 495.402 435.970, 491.936 436.663 C 489.615 437.127, 488.514 436.882, 487.888 435.764 C 485.795 432.025, 471.915 432.983, 463.043 437.478 C 458.393 439.835, 450.344 447.619, 447.968 452.059 C 447.251 453.399, 446.489 453.967, 446.274 453.322 C 445.530 451.090, 449.817 444.464, 455.453 439.133 C 458.566 436.189, 460.857 433.523, 460.543 433.210 C 459.149 431.816, 443.351 432.095, 439.306 433.585 M 370.306 454.440 C 371.849 455.848, 373.649 456.986, 374.306 456.968 C 375.610 456.933, 372.689 454.440, 369.500 452.866 C 368.182 452.216, 368.457 452.753, 370.306 454.440 M 480.053 460.750 C 478.210 467.386, 478.509 468.305, 481.937 466.533 C 486.017 464.423, 486.377 463.446, 484.342 460.002 C 482.031 456.090, 481.312 456.215, 480.053 460.750 M 341.984 470.526 C 337.904 477.128, 339.320 485, 344.587 485 C 347.733 485, 349.029 482.214, 348.859 475.816 L 348.718 470.500 348.082 475.741 C 347.281 482.340, 344.641 485.530, 342.439 482.559 C 340.453 479.880, 340.639 476.132, 342.985 471.530 C 345.551 466.496, 344.886 465.830, 341.984 470.526 M 348.789 502.195 C 351.893 505.608, 360.850 510.015, 364.514 509.933 C 367.062 509.875, 366.832 509.685, 362.949 508.638 C 360.446 507.963, 356.396 506.062, 353.949 504.413 C 347.130 499.820, 346.308 499.467, 348.789 502.195 M 501.429 509.587 C 498.275 511.739, 493.644 513.684, 489.179 514.732 C 480.901 516.675, 479.910 518.004, 486.750 517.991 C 492.151 517.980, 499.547 514.263, 504.437 509.100 C 508.114 505.219, 507.740 505.280, 501.429 509.587 M 490 521 C 487.016 521.628, 487.385 521.741, 492.500 521.769 C 495.800 521.786, 499.625 521.440, 501 521 C 504.309 519.940, 495.034 519.940, 490 521 M 635.500 542.064 C 623.824 548.587, 603.245 555.621, 598.106 554.845 C 595.860 554.506, 595.883 554.417, 599.349 549.889 L 602.879 545.278 593.821 549.183 C 583.226 553.751, 568.893 557.414, 555.045 559.092 C 541.070 560.786, 539.002 559.549, 547.179 554.387 C 549.384 552.995, 551.002 551.668, 550.773 551.439 C 549.387 550.054, 514.050 561.935, 502.985 567.507 C 494.979 571.539, 494.078 570.688, 498.070 562.863 L 500.140 558.806 494.969 561.653 C 492.126 563.219, 486.852 567.215, 483.251 570.533 L 476.702 576.565 467.130 571.764 C 461.865 569.124, 456.082 565.533, 454.279 563.786 C 450.711 560.328, 450.061 560.637, 452.635 564.566 C 453.535 565.939, 454.041 567.292, 453.760 567.574 C 452.995 568.339, 442.672 563.558, 437.696 560.135 L 433.334 557.134 431.540 564.817 C 430.553 569.043, 428.903 574.170, 427.873 576.210 C 426.843 578.251, 426 580.813, 426 581.903 C 426 582.994, 425.178 584.475, 424.174 585.193 C 422.900 586.105, 421.374 590.731, 419.124 600.500 C 412.156 630.765, 396.474 684.992, 391.884 694.690 C 388.778 701.254, 386.886 702.573, 382.089 701.520 C 378.141 700.652, 373.074 688.758, 367.968 668.371 L 366.684 663.241 361.852 662.669 C 353.623 661.694, 351.545 663.042, 350.102 670.289 C 338.552 728.324, 341.468 752.844, 364.398 790.500 C 365.551 792.393, 364.154 791.361, 360.613 787.703 C 354.041 780.916, 354.237 780.371, 356.538 799.030 C 359.617 823.991, 364.412 841.956, 372.976 860.613 L 377.159 869.725 384.829 870.283 C 392.406 870.834, 405.406 874.229, 406.458 875.932 C 406.757 876.415, 404.413 876.089, 401.250 875.207 C 391.359 872.450, 374.755 872.911, 367.880 876.135 C 353.282 882.980, 344.476 899.100, 352 905.204 L 354.500 907.232 355.142 902.105 C 356.092 894.517, 360.467 888.360, 367.453 884.779 L 371.405 882.753 366.848 887.310 C 359.209 894.949, 356.048 904.385, 359.650 908.798 C 361.575 911.157, 370.160 913.968, 375.500 913.987 C 378.413 913.998, 378.502 913.858, 378.570 909.144 C 378.657 903.091, 382.544 896.061, 387.767 892.512 C 393.291 888.759, 393.927 889.471, 389.317 894.250 C 383.673 900.101, 381.832 904.124, 382.197 909.802 L 382.500 914.500 388.500 915.182 C 402.818 916.810, 435.057 911.832, 447.592 906.059 C 456.181 902.103, 457.621 899.621, 461.015 882.924 C 464.155 867.480, 467.622 857.353, 472.003 850.830 L 474.866 846.566 463.683 843.409 C 449.201 839.321, 440.451 835.941, 431.356 830.921 C 427.310 828.687, 424 826.706, 424 826.517 C 424 826.329, 427.488 827.524, 431.750 829.172 C 442.715 833.411, 461.658 838.470, 476.667 841.166 C 495.328 844.519, 534.585 844.549, 549.415 841.222 C 554.869 839.998, 559.498 839.164, 559.701 839.368 C 560.198 839.865, 550.797 843.612, 544.170 845.559 C 539.296 846.991, 538.953 847.280, 540.170 848.936 C 552.877 866.234, 557.777 877.523, 562.032 899.310 C 564.122 910.012, 569.681 913.769, 589.712 918.021 C 602.594 920.755, 637.696 922.090, 639.084 919.899 C 641.979 915.326, 638.303 905.127, 631.732 899.503 C 627.380 895.778, 627.402 895.113, 631.800 897.411 C 638.306 900.810, 643 908.644, 643 916.102 L 643 920.269 649.750 919.759 C 658.481 919.100, 661.657 917.569, 663.050 913.349 C 665.049 907.293, 661.202 897.669, 654.751 892.584 C 650.270 889.053, 652.765 889.323, 657.709 892.904 C 663.164 896.856, 666.161 902.056, 666.899 908.848 L 667.512 914.500 670.256 911.795 C 677.495 904.660, 669.237 889.030, 654.734 882.416 C 644.644 877.815, 624.463 877.863, 612.500 882.516 C 611.016 883.094, 610.773 882.996, 611.558 882.139 C 615.026 878.353, 635.001 874.488, 643.860 875.889 L 648.972 876.697 651.896 869.098 C 660.832 845.884, 666.343 821.780, 669.066 794 C 670.553 778.829, 670.390 742.939, 668.780 731.043 L 667.500 721.586 663.547 721.337 C 655 720.798, 650 713.248, 650 700.879 L 650 693.182 641.748 683.341 C 631.969 671.679, 619.137 653.764, 610.972 640.372 C 607.171 634.138, 603.934 630.041, 601.799 628.764 C 597.644 626.278, 594 622.955, 594 621.651 C 594 621.101, 595.013 621.574, 596.250 622.701 C 597.487 623.828, 599.580 625.308, 600.901 625.991 L 603.301 627.231 601.281 624.366 C 598.504 620.426, 594.763 612.904, 595.309 612.358 C 595.555 612.111, 596.904 613.866, 598.305 616.258 C 602.102 622.737, 636.262 670.382, 643.175 678.841 C 651.855 689.462, 652.793 691.417, 653.563 700.500 C 654.372 710.045, 655.982 713.967, 660.087 716.392 C 664.789 719.170, 669.063 717.890, 674.036 712.213 C 678.669 706.925, 678.929 709.436, 674.425 715.964 L 672.035 719.427 674.767 722.337 C 678.129 725.916, 682.802 728, 687.468 728 C 694.470 728, 697.269 721.545, 694.675 711.377 C 692.854 704.237, 693.200 703.512, 695.904 708.811 C 698.585 714.068, 699.495 720.141, 698.170 723.941 C 697.124 726.942, 697.165 727, 700.340 727 C 704.951 727, 712.098 723.081, 714.742 719.102 C 717.839 714.441, 717.762 706.468, 714.542 698.638 L 712.132 692.775 714.541 695.038 C 715.866 696.283, 717.710 699.371, 718.640 701.901 C 720.977 708.260, 721.596 708.683, 723.415 705.165 C 727.571 697.128, 724.537 684.419, 715.247 670.951 C 711.149 665.009, 709.565 661.474, 707.429 653.500 C 699.887 625.342, 689.694 601.780, 674.133 576.528 C 664.832 561.434, 646.123 537.894, 643.572 538.077 C 642.983 538.119, 639.350 539.913, 635.500 542.064 M 343.500 539.953 C 345.700 540.340, 349.138 541.648, 351.140 542.862 C 354.451 544.868, 355.353 544.978, 361.140 544.073 L 367.500 543.079 361.459 543.503 C 356.358 543.860, 354.800 543.547, 351.459 541.494 C 348.871 539.905, 346.114 539.095, 343.500 539.156 L 339.500 539.250 343.500 539.953 M 426.584 551.146 C 423.879 552.214, 418.205 553.355, 413.974 553.682 C 406.705 554.242, 406.130 554.464, 403.536 557.714 L 400.792 561.154 405.646 560.510 C 424.436 558.018, 435 554.360, 435 550.345 C 435 548.558, 432.544 548.792, 426.584 551.146 M 342.476 551.394 C 340.730 552.670, 341.155 552.951, 347.535 554.740 C 363.001 559.074, 368 559.885, 368 558.057 C 368 555.844, 363.859 554.180, 360.663 555.108 C 356.580 556.294, 353.061 555.496, 348.929 552.448 C 345.051 549.587, 344.967 549.573, 342.476 551.394 M 320.210 563.433 C 301.172 583.050, 294.892 595.301, 294.802 613 C 294.676 637.552, 309.105 655.585, 332.835 660.533 C 339.687 661.961, 350 661.701, 350 660.099 C 350 659.745, 348.422 658.605, 346.494 657.567 C 341.584 654.922, 342.885 654.460, 349.185 656.610 C 370.446 663.868, 395.270 649.721, 389.143 633.838 L 388.116 631.176 382.308 633.564 C 378.261 635.228, 374.681 635.929, 370.500 635.874 L 364.500 635.795 370.232 634.540 C 384.218 631.478, 390 627.189, 390 619.874 C 390 608.621, 381.951 604.802, 366.105 608.537 C 358.688 610.285, 357.106 609.818, 362.630 607.510 C 367.909 605.304, 373.694 604.054, 378.750 604.024 C 383.235 603.999, 383.485 603.646, 383.012 598 C 381.877 584.442, 354.913 578.394, 336.711 587.616 L 333.500 589.242 336.351 586.211 L 339.203 583.179 336.816 581.615 C 335.503 580.755, 331.745 579.402, 328.464 578.609 L 322.500 577.167 328.081 577.083 C 332.171 577.022, 334.975 577.667, 338.581 579.496 C 341.286 580.869, 343.613 581.994, 343.750 581.996 C 344.452 582.008, 343.865 576.615, 342.984 574.970 C 342.425 573.926, 340.919 569.118, 339.638 564.286 L 337.308 555.500 333.158 554.933 C 329.018 554.368, 328.989 554.387, 320.210 563.433 M 341 556.596 C 341 556.924, 341.721 559.674, 342.603 562.707 C 344.081 567.792, 344.333 568.096, 345.827 566.601 C 347.321 565.107, 347.256 564.630, 344.995 560.490 C 342.851 556.565, 341 554.761, 341 556.596 M 346.108 560.250 C 347.342 562.038, 348.429 563.619, 348.523 563.764 C 348.618 563.909, 349.947 563.043, 351.478 561.839 L 354.260 559.650 349.880 558.340 C 343.759 556.510, 343.586 556.597, 346.108 560.250 M 385.200 558.200 C 382.994 560.406, 383.959 561, 389.750 560.996 L 395.500 560.993 392.226 558.996 C 388.453 556.696, 386.882 556.518, 385.200 558.200 M 423 560.168 C 418.043 561.568, 417.643 562.316, 420.442 564.946 L 422.911 567.265 425.079 563.590 C 426.272 561.568, 427.435 560.102, 427.665 560.331 C 427.894 560.560, 427.155 562.318, 426.023 564.237 C 424.313 567.134, 424.194 567.916, 425.321 568.851 C 426.414 569.759, 426.973 568.913, 428.205 564.489 C 429.925 558.307, 429.841 558.237, 423 560.168 M 353.267 562.216 C 349.169 565.112, 349.181 565.254, 354.122 571.658 C 359.001 577.982, 358.384 577.895, 363.917 573.036 C 368.280 569.205, 368.313 569.127, 366.667 566.614 C 364.597 563.455, 364.527 562.362, 366.500 564 C 367.720 565.012, 368 564.965, 368 563.750 C 368 562.801, 366.631 562.027, 364.250 561.628 C 362.188 561.283, 359.600 560.760, 358.500 560.466 C 357.312 560.149, 355.188 560.859, 353.267 562.216 M 408.781 562.907 C 404.922 563.392, 403.612 564.114, 401.587 566.869 L 399.111 570.239 405.142 575.278 L 411.173 580.318 416.462 574.409 L 421.752 568.500 419.126 565.322 C 417.682 563.574, 415.825 562.183, 415 562.229 C 414.175 562.276, 411.377 562.581, 408.781 562.907 M 396.143 563.731 L 392.785 564.143 395.067 566.571 C 397.978 569.670, 398.417 569.628, 401 566 C 403.368 562.674, 403.660 562.810, 396.143 563.731 M 382.792 571.250 C 382.261 581.611, 383.212 582.136, 390.696 575.609 L 396.847 570.244 393.626 567.122 C 391.224 564.794, 389.484 564, 386.784 564 L 383.164 564 382.792 571.250 M 346.011 568.487 C 343.517 571.492, 345.629 574.718, 351.539 576.929 C 354.584 578.068, 357.309 579, 357.596 579 C 357.882 579, 356.039 576.300, 353.500 573 C 348.554 566.572, 347.918 566.189, 346.011 568.487 M 417.665 575.241 C 412.437 581.308, 412.445 581.496, 417.849 580.041 C 422.223 578.863, 426.608 574.027, 425.625 571.465 C 424.605 568.808, 422.241 569.930, 417.665 575.241 M 396 572.795 C 396 573.231, 393.741 575.312, 390.980 577.418 C 386.841 580.574, 386.171 581.501, 387.166 582.700 C 388.380 584.163, 390.443 584.123, 405.404 582.351 L 410.309 581.770 404.904 576.928 C 400.030 572.561, 396 570.691, 396 572.795 M 363.253 575.250 C 358.494 578.577, 358.866 579.072, 367.248 580.558 L 370.997 581.222 369.504 578.361 C 368.684 576.787, 368.010 574.938, 368.006 574.250 C 367.997 572.463, 366.914 572.691, 363.253 575.250 M 378 581.583 C 376.467 582.434, 376.080 583.002, 377 583.053 C 377.825 583.098, 380.036 583.334, 381.914 583.577 C 385.277 584.012, 385.300 583.989, 383.509 582.009 C 381.433 579.716, 381.374 579.711, 378 581.583 M 482.500 580.954 C 483.600 581.404, 487.783 582.276, 491.795 582.891 C 515.328 586.498, 540.386 601.659, 556.435 622 L 559.196 625.500 557.348 622.036 C 554.725 617.119, 540.601 603.058, 533.500 598.296 C 520.114 589.317, 504.341 583.127, 489.636 581.082 C 480.699 579.839, 479.734 579.822, 482.500 580.954 M 412 583.079 C 407.317 584.240, 399.931 585.043, 392.336 585.219 C 382.122 585.455, 380.356 585.721, 381.318 586.882 C 384.070 590.201, 417.772 586.657, 421.806 582.623 C 423.953 580.476, 422.166 580.559, 412 583.079 M 446 584.601 C 438.281 587.225, 428.584 592.246, 427.337 594.265 C 426.948 594.893, 428.745 594.168, 431.328 592.654 C 437.294 589.157, 447.777 585.179, 455.500 583.479 C 461.092 582.249, 461.228 582.155, 457.500 582.105 C 455.300 582.075, 450.125 583.198, 446 584.601 M 407.111 589.605 C 403.046 590.342, 399.453 591.214, 399.125 591.542 C 398.797 591.870, 400.772 594.121, 403.514 596.545 L 408.500 600.951 412.783 596.226 C 420.940 587.226, 420.844 587.113, 407.111 589.605 M 385.463 592.750 C 385.835 593.712, 386.395 595.763, 386.706 597.307 L 387.273 600.113 389.886 597.778 C 391.324 596.493, 393.578 594.555, 394.896 593.471 L 397.291 591.500 396.132 593.709 C 395.495 594.924, 393.383 597.132, 391.439 598.615 C 385.464 603.172, 385.380 604.264, 390.612 609.349 C 393.692 612.343, 394.963 614.274, 394.439 615.165 C 393.343 617.033, 397.545 613.331, 402.412 608.141 C 407.773 602.423, 407.806 603.124, 401.882 596.656 L 396.701 591 390.744 591 C 385.478 591, 384.865 591.203, 385.463 592.750 M 413.167 597.942 C 409.455 602.561, 409.366 603.116, 411.953 605.457 C 413.842 607.167, 413.926 607.132, 414.543 604.362 C 414.893 602.788, 415.634 600.007, 416.189 598.183 C 417.622 593.478, 416.806 593.413, 413.167 597.942 M 402.772 610.284 L 397.044 616.469 401.272 620.786 L 405.500 625.104 408.119 622.183 C 409.559 620.576, 411.303 616.907, 411.993 614.028 C 413.194 609.024, 413.145 608.691, 410.874 606.447 L 408.500 604.099 402.772 610.284 M 394.605 618.250 C 392.619 625.725, 392.090 629.713, 392.635 633.116 L 393.281 637.159 399.114 631.388 L 404.946 625.616 400.723 621.316 C 396.267 616.778, 395.146 616.216, 394.605 618.250 M 407.055 625.750 C 405.787 627.263, 402.364 630.975, 399.449 634 L 394.147 639.500 398.092 643.899 C 400.261 646.318, 402.243 648.091, 402.496 647.838 C 403.660 646.673, 407.901 629.907, 407.377 628.540 C 407.052 627.693, 407.232 627, 407.776 627 C 408.321 627, 409.002 626.100, 409.290 625 C 409.966 622.413, 409.808 622.466, 407.055 625.750 M 393 643.662 C 393 645.969, 388.331 653.715, 386.231 654.893 C 384.665 655.770, 384.781 656.157, 387.447 658.942 L 390.395 662.021 396.109 655.761 L 401.823 649.500 398.208 645.750 C 394.243 641.635, 393 641.137, 393 643.662 M 572.047 647.056 C 572.021 647.361, 573.592 651.560, 575.538 656.385 C 585.862 681.989, 589.988 714.137, 586.525 742 C 586.286 743.925, 586.753 742.575, 587.564 739 C 591.673 720.880, 588.232 687.792, 579.698 663.377 C 577.516 657.133, 572.160 645.708, 572.047 647.056 M 396.067 658.242 L 391.634 663.089 394.232 665.687 L 396.830 668.285 398.986 661.047 C 400.172 657.066, 400.997 653.715, 400.821 653.602 C 400.644 653.488, 398.505 655.576, 396.067 658.242 M 380 658.514 C 378.625 659.308, 375.840 660.427, 373.812 661.001 C 369.729 662.155, 369.757 661.938, 372.489 671.322 C 374.123 676.937, 374.251 677.083, 376.075 675.432 C 377.916 673.766, 377.870 673.587, 374.311 668.611 L 370.657 663.500 375.343 667.972 L 380.029 672.445 384.632 667.841 L 389.236 663.238 386.930 660.119 C 384.348 656.627, 383.577 656.449, 380 658.514 M 385.565 669.359 L 380.630 673.676 384.527 678.338 C 389.225 683.959, 389.336 683.972, 392.425 679.250 C 396.262 673.385, 396.656 670.327, 393.948 667.445 C 391.036 664.345, 391.387 664.265, 385.565 669.359 M 376.552 676.942 C 374.874 678.797, 374.881 679.144, 376.710 684.630 C 379.037 691.611, 379.537 691.830, 384.265 687.933 L 387.998 684.856 383.842 679.928 C 379.138 674.348, 378.964 674.277, 376.552 676.942 M 386.016 688.483 C 384.733 689.848, 382.855 691.229, 381.842 691.550 C 379.418 692.320, 379.507 694.507, 382.067 697.067 C 384.661 699.661, 386.463 698.444, 389.214 692.238 C 391.972 686.019, 390.241 683.986, 386.016 688.483 M 379.490 721.500 C 380.689 749.359, 400.096 782.531, 422.131 794.389 C 428.576 797.858, 427.735 796.910, 418.858 790.700 C 397.799 775.967, 383.444 749.984, 380.017 720.395 L 379.102 712.500 379.490 721.500 M 467.121 727.336 C 474.535 734.728, 475.457 744.032, 468.853 744.804 C 465.055 745.249, 463.017 742.639, 462.898 737.179 L 462.796 732.500 461.738 735.803 C 458.695 745.304, 471.552 751.569, 475.075 742.302 C 476.965 737.331, 471.254 727.273, 464.573 723.805 C 463.433 723.213, 464.580 724.802, 467.121 727.336 M 576.173 770.131 C 567.857 785.143, 551.048 798.145, 529.679 806.097 C 526.830 807.157, 525.843 807.759, 527.484 807.434 C 545.814 803.810, 569.104 786.641, 577.055 770.891 C 581.059 762.960, 580.440 762.427, 576.173 770.131 M 443 804.045 C 453.145 808.777, 473.731 812.092, 491.474 811.850 L 502.500 811.699 489.500 810.957 C 470.936 809.896, 457.535 807.594, 440.500 802.539 C 439.400 802.213, 440.525 802.891, 443 804.045" stroke="none" fill="#1a1a1a" fill-rule="evenodd"/>
</svg>