<svg xmlns="http://www.w3.org/2000/svg" width="1024" height="1024" viewBox="0 0 1024 1024" version="1.1">
	<path d="M 427 63.358 C 427 63.555, 429.600 65.320, 432.777 67.282 C 439.619 71.505, 452.376 81.646, 449.500 80.575 C 445.116 78.943, 427.943 76.146, 418.500 75.525 C 395.088 73.986, 364.530 80.024, 345 90.047 L 338.500 93.383 342.500 94.134 C 344.700 94.547, 348.750 94.937, 351.500 95 C 364.838 95.307, 365.272 96.423, 353 98.859 C 327.893 103.840, 305.019 113.609, 290.008 125.760 C 280.914 133.121, 278.973 135.726, 283.410 134.612 C 286.914 133.733, 307.155 131.821, 307.656 132.322 C 307.869 132.536, 305.039 134.463, 301.366 136.605 C 297.693 138.747, 291.434 143.534, 287.458 147.242 C 281.678 152.633, 279.003 154.366, 274.116 155.887 C 258.812 160.650, 242.817 175.463, 233.962 193.075 C 222.919 215.039, 222.138 239.254, 231.819 259.500 L 235.645 267.500 233.264 273.395 C 228.339 285.592, 223.481 308, 225.762 308 C 226.308 308, 227.324 307.315, 228.018 306.478 C 229.354 304.868, 243 294.722, 243 295.338 C 243 295.537, 240.362 301.279, 237.139 308.099 C 220.149 344.045, 213.011 368.156, 213.003 389.625 C 212.998 403.720, 214.397 408.237, 216.913 402.250 C 217.549 400.738, 219.536 397.136, 221.329 394.246 L 224.589 388.992 224.177 407.288 C 223.596 433.091, 227.071 453.284, 234.684 468.349 C 237.690 474.299, 237.701 474.288, 239.561 463.633 C 241.918 450.129, 242.475 449.449, 243.909 458.334 C 249.359 492.123, 264.292 517.266, 287.216 531.250 C 295.044 536.026, 295.346 535.973, 292.897 530.259 C 290.761 525.277, 288.040 514.856, 288.015 511.564 C 288.006 510.382, 289.806 512.329, 292.636 516.564 C 305.972 536.514, 326.021 552.430, 350 562.101 C 359.672 566.001, 361.438 565.871, 358.594 561.468 C 357.717 560.111, 356.228 557.806, 355.285 556.347 C 353.707 553.906, 353.986 553.993, 358.783 557.439 C 365.775 562.462, 365.732 562.201, 360.652 568.802 C 321.643 619.497, 308.920 670.389, 328.743 696.437 C 337.650 708.141, 361.020 715.103, 372.200 709.382 C 376.429 707.218, 376.769 707.577, 375.857 713.250 C 375.392 716.138, 374.778 724.575, 374.492 732 L 373.971 745.500 370.736 748.211 C 361.418 756.019, 346.885 760.447, 333 759.711 C 318.534 758.943, 317.515 758.355, 317.434 750.733 C 317.296 737.812, 306.652 726.089, 292.679 723.468 C 288.427 722.670, 288.111 723.408, 291.250 726.809 L 293.500 729.246 286.500 728.521 C 274.137 727.241, 265.261 722.965, 259.622 715.571 C 258.124 713.607, 256.474 712, 255.956 712 C 255.396 712, 255.138 717.781, 255.320 726.252 C 255.645 741.364, 256.706 745.286, 263.031 754.758 C 264.852 757.485, 264.929 757.910, 263.502 757.363 C 260.821 756.333, 263.953 761.661, 268.668 766.147 C 278.613 775.609, 293.066 778.359, 303.747 772.820 L 308.915 770.140 314.039 772.611 C 330.701 780.650, 354.042 780.616, 371.718 772.528 L 376.936 770.140 377.544 773.820 C 377.879 775.844, 379.024 781.098, 380.090 785.495 C 381.480 791.228, 381.703 793.599, 380.880 793.873 C 380.249 794.084, 376.755 795.855, 373.116 797.809 L 366.500 801.363 258.333 801.931 C 198.841 802.244, 149.828 802.837, 149.416 803.250 C 149.004 803.663, 159.879 804.062, 173.583 804.137 C 187.288 804.212, 216.681 804.550, 238.903 804.887 L 279.307 805.500 272.903 809.949 C 265.495 815.097, 193.823 865.702, 186.750 870.778 C 184.138 872.653, 182 874.395, 182 874.649 C 182 875.350, 270.678 815.257, 279.894 808.312 L 284.288 805 323.614 805 L 362.940 805 360.545 808.529 C 357.307 813.300, 356.003 819.878, 357.191 825.446 C 358.125 829.827, 361.671 833.997, 367.917 838.061 L 370.316 839.622 362.022 851.561 C 357.460 858.127, 353.398 863.868, 352.995 864.318 C 351.540 865.945, 340.701 866.778, 337.654 865.497 C 327.862 861.379, 319.509 871.084, 320.123 885.864 C 320.378 891.993, 319.982 894.684, 318.116 899.500 C 315.233 906.943, 315.512 919.749, 318.677 925.214 C 321.348 929.828, 331.345 934.549, 355.200 942.464 C 375.321 949.139, 380.965 950.114, 384.633 947.544 C 385.776 946.744, 394.539 943.099, 404.106 939.444 C 424.554 931.632, 425.401 931.036, 423.885 925.544 C 423.096 922.690, 423.106 920.590, 423.919 917.876 C 424.806 914.914, 424.736 913.345, 423.580 910.319 C 422.778 908.219, 421.601 903.861, 420.966 900.636 C 419.923 895.341, 419.020 893.900, 411.655 885.782 C 407.170 880.838, 400.842 873.647, 397.592 869.802 L 391.685 862.812 378.092 863.444 C 370.617 863.792, 362.287 864.337, 359.581 864.655 L 354.663 865.234 356.845 862.367 C 358.045 860.790, 362.058 855.324, 365.763 850.221 C 371.055 842.932, 372.929 841.033, 374.500 841.365 C 375.600 841.598, 380.100 842.812, 384.500 844.062 C 405.141 849.930, 446.639 845.451, 461.460 835.755 C 466.837 832.238, 469.123 827.200, 469.659 817.688 C 470.455 803.552, 468.243 805, 489.048 805 L 507.058 805 506.779 818.149 L 506.500 831.297 495.500 834.224 C 459.576 843.784, 447.419 848.203, 443.848 853 C 439.390 858.986, 439.142 873.393, 443.438 876.772 C 445.686 878.541, 445.856 879.534, 446.927 897.066 C 448.610 924.611, 448.439 923.864, 453.584 926.140 C 459.488 928.752, 478.973 933.787, 493.500 936.455 L 505.500 938.658 506.073 945.579 L 506.647 952.500 506.823 945.636 L 507 938.773 511.726 939.482 C 514.325 939.871, 521.783 940.777, 528.298 941.493 L 540.145 942.796 555.822 936.897 C 572.533 930.609, 577.384 928.544, 588.485 922.992 L 595.500 919.483 596.109 911.992 C 596.443 907.871, 596.488 895.724, 596.208 884.998 C 595.756 867.696, 595.885 865.340, 597.349 864.125 C 599.408 862.417, 599.465 856.034, 597.471 850.500 C 596.679 848.300, 596.023 846.500, 596.015 846.500 C 596.007 846.500, 603.988 846.459, 613.750 846.408 C 636.551 846.291, 653.631 841.890, 661.816 834.025 C 663.090 832.800, 664.233 831.957, 664.357 832.149 C 664.480 832.342, 665.800 834.157, 667.290 836.183 C 670.931 841.132, 671.074 841, 662.040 841 C 654.649 841, 653.900 841.196, 651.540 843.740 C 650.143 845.247, 649 846.749, 649 847.079 C 649 848.362, 643.741 849.971, 637.440 850.616 C 631.738 851.201, 630.558 851.679, 628.734 854.146 C 626.984 856.513, 625.892 857, 622.335 857 C 618.747 857, 617.760 857.449, 616.296 859.750 C 614.083 863.228, 613.038 863.966, 610.297 863.985 C 603.537 864.032, 600.306 869.290, 601.443 878.391 C 601.847 881.622, 601.644 884.740, 600.912 886.559 C 599.682 889.613, 598.055 910.558, 597.590 929.339 C 597.375 937.986, 597.630 940.487, 598.848 941.705 C 600.634 943.491, 608.481 947, 610.689 947 C 611.527 947, 613.917 948.350, 616 950 C 618.083 951.650, 620.853 953, 622.155 953 C 623.457 953, 628.117 954.789, 632.511 956.975 C 641.604 961.498, 644.814 961.822, 657.854 959.527 C 681.781 955.316, 711.555 944.434, 717.965 937.558 C 720.730 934.592, 721.828 927.444, 721.938 911.691 C 721.972 906.821, 722.398 903.128, 722.889 903.432 C 723.378 903.734, 726.735 908.148, 730.349 913.241 C 741.961 929.603, 743.410 930.006, 732.534 913.849 L 722 898.199 722 891.914 C 722 886.801, 722.413 885.189, 724.216 883.270 C 725.987 881.385, 726.421 879.767, 726.379 875.206 C 726.287 865.308, 724.365 852.487, 722.560 849.732 C 720.086 845.957, 713.010 842.890, 705.052 842.145 L 698.170 841.500 694.835 836.522 C 691.597 831.688, 685.242 827.050, 681.813 827.016 C 680.462 827.003, 680.232 827.655, 680.659 830.287 C 681.108 833.050, 680.668 834.087, 677.906 836.787 C 673.704 840.896, 673.870 840.938, 669.735 834.750 C 666.406 829.769, 666.252 829.162, 666.721 822.888 C 667.202 816.462, 666.669 814.436, 662.218 805.750 C 662.006 805.337, 684.081 805, 711.273 805 L 760.712 805 765.106 808.338 C 772.410 813.887, 861.457 875.194, 868.500 879.523 C 876.319 884.329, 865.589 876.492, 817.654 842.387 L 765.808 805.500 798.154 804.887 C 815.944 804.550, 844.225 804.135, 861 803.964 C 885.251 803.718, 889.144 803.512, 880 802.959 C 873.675 802.576, 821.339 802.204, 763.697 802.132 L 658.894 802 655.224 799.506 C 653.206 798.135, 649.405 796.299, 646.777 795.426 C 644.150 794.553, 642 793.679, 642 793.483 C 642 793.287, 642.897 789.386, 643.993 784.813 C 648.709 765.142, 650.569 737.822, 648.628 716.764 L 647.823 708.028 651.661 709.688 C 663.931 714.995, 687.429 707.674, 695.970 695.883 C 714.970 669.653, 702.204 619.947, 663.287 568.632 C 660.840 565.404, 659.211 562.456, 659.668 562.082 C 670.573 553.144, 671.571 552.994, 665.858 561.154 C 663.028 565.197, 663.437 565.991, 667.750 564.825 C 688.081 559.331, 720.596 534.990, 731.560 517.056 C 736.789 508.503, 737.435 511.921, 733.059 524.983 C 731.377 530.005, 730 534.340, 730 534.616 C 730 536.320, 743.429 527.476, 749.618 521.697 C 766.008 506.390, 777.778 481.765, 780.592 456.889 L 781.311 450.535 782.565 454.158 C 783.255 456.150, 784.383 461.276, 785.072 465.548 C 786.299 473.152, 786.362 473.271, 788.064 471.169 C 790.679 467.940, 795.687 453.300, 798.129 441.750 C 800.427 430.876, 801.366 402.338, 799.726 393.176 C 798.682 387.340, 799.983 388.411, 805.020 397.536 C 807.293 401.654, 809.569 404.767, 810.077 404.453 C 811.890 403.332, 811.121 378.408, 808.940 367.657 C 805.710 351.729, 794.148 321.039, 783.320 299.649 C 780.538 294.154, 780.685 294.202, 791.041 302.186 C 795.189 305.384, 798.833 308, 799.140 308 C 800.836 308, 795.982 286.682, 791.773 275.651 L 788.778 267.801 792.326 260.151 C 802.374 238.484, 802.067 215.994, 791.435 194.864 C 781.837 175.791, 766.634 161.369, 750.448 155.983 C 745.530 154.346, 742.660 152.539, 738.258 148.306 C 735.091 145.260, 729.012 140.496, 724.750 137.718 C 720.487 134.940, 717.146 132.521, 717.324 132.342 C 717.759 131.908, 739.026 133.911, 741.250 134.596 C 744.120 135.480, 743.260 133.667, 738.750 129.326 C 723.830 114.967, 688.586 100.121, 663 97.418 C 659.344 97.031, 652.935 95.266, 648.352 93.384 C 629.736 85.738, 602.602 81.905, 587.250 84.753 C 584.362 85.289, 582 85.413, 582 85.029 C 582 84.123, 600.209 68.051, 603.490 66.060 C 608.958 62.742, 604.411 62.183, 587.211 64.059 C 559.224 67.112, 535.663 75.535, 520.155 88.032 L 513.897 93.075 508.020 87.757 C 491.974 73.235, 462.342 63.015, 436.250 63.004 C 431.163 63.002, 427 63.161, 427 63.358 M 439 66.276 C 439 66.428, 441.886 68.732, 445.413 71.396 C 451.027 75.637, 462.064 87, 460.569 87 C 460.268 87, 456.755 86.105, 452.761 85.011 C 426.168 77.724, 392.394 78.339, 363.548 86.633 C 349.693 90.617, 349.555 90.692, 354.648 91.427 C 356.767 91.733, 362.100 92.694, 366.500 93.563 C 393.309 98.856, 394.746 99.485, 380.183 99.556 C 362.531 99.643, 330.779 107.540, 312.194 116.466 C 305.857 119.510, 291 128.457, 291 129.230 C 291 129.378, 300.112 129.449, 311.250 129.387 C 330.702 129.279, 331.244 129.328, 325 130.635 C 316.544 132.406, 306.035 137.620, 296.152 144.947 C 285.932 152.525, 285.904 152.606, 293.279 153.311 C 310.226 154.931, 332.707 169.544, 344 186.281 C 346.725 190.320, 348.080 190.814, 350.020 188.476 C 350.716 187.638, 351.508 187.174, 351.780 187.446 C 352.052 187.718, 348.261 192.342, 343.356 197.721 C 338.450 203.099, 331.418 210.921, 327.729 215.101 L 321.021 222.703 312.261 223.299 C 307.442 223.628, 301.025 224.651, 298 225.573 L 292.500 227.249 297.500 228.565 C 311.361 232.211, 313.293 233.836, 306.784 236.371 C 304.428 237.288, 300.250 239.709, 297.500 241.749 L 292.500 245.459 299 246.181 C 302.575 246.578, 306.966 247.171, 308.757 247.498 L 312.014 248.093 304.730 253.881 C 300.725 257.064, 296.707 260.798, 295.802 262.179 L 294.158 264.689 299.581 263.179 C 302.563 262.349, 305.259 261.925, 305.571 262.238 C 305.883 262.550, 304.023 265.662, 301.437 269.153 C 295.884 276.647, 290.341 287.712, 285.851 300.265 C 282.760 308.906, 280.778 311.086, 282.856 303.559 C 283.788 300.185, 283.699 299.967, 281.170 299.409 C 272.857 297.576, 261.580 292.470, 255.072 287.593 C 253.186 286.180, 251.565 285.131, 251.469 285.262 C 251.374 285.393, 245.999 297.875, 239.525 313 C 222.781 352.120, 218.363 366.725, 216.536 389 L 215.921 396.500 218.612 392 C 220.092 389.525, 222.735 385.700, 224.486 383.500 C 226.237 381.300, 229.348 376.289, 231.399 372.364 C 233.449 368.440, 236.248 364.177, 237.616 362.891 C 239.784 360.854, 239.581 361.585, 236.048 368.549 C 226.691 386.989, 225.336 420.285, 232.676 451.404 C 235.266 462.383, 236.021 463.103, 237.498 456 C 238.342 451.940, 244.537 435.669, 246.635 432 C 248.027 429.567, 248.044 429.594, 247.283 433 C 246.034 438.584, 246.598 451.782, 248.478 461 C 253.757 486.871, 263.666 506.096, 279.074 520.362 C 286.279 527.033, 288.806 528.496, 287.521 525.250 C 285.525 520.211, 284.118 509.632, 284.451 502.172 C 284.870 492.806, 285.447 491.140, 286.339 496.721 C 287.684 505.131, 302.243 524.726, 315.500 535.968 C 326.091 544.949, 349.811 560, 353.375 560 C 353.613 560, 352.541 557.638, 350.993 554.750 C 347.776 548.751, 344.677 539, 345.987 539 C 346.470 539, 347.133 539.844, 347.461 540.877 C 350.203 549.516, 377.954 567.219, 404.584 577.317 C 414.290 580.997, 446.469 591, 448.603 591 C 448.884 591, 446.379 588.468, 443.037 585.374 C 438.141 580.841, 426 564.628, 426 562.623 C 426 561.834, 446.589 574.636, 459.500 583.453 C 474.064 593.399, 483.940 599.393, 484.628 598.705 C 485.212 598.122, 481.660 590.809, 478.869 586.846 C 475.816 582.509, 476.526 582.623, 487.249 588.184 C 495.173 592.294, 499.222 595.202, 505.095 601 L 512.691 608.500 517.596 603.450 C 521.564 599.364, 540.434 585.779, 544.494 584.085 C 545.041 583.857, 544.319 585.207, 542.889 587.085 C 540.472 590.259, 536 598.272, 536 599.429 C 536 599.929, 547.945 592.807, 579.396 573.555 C 597.051 562.749, 599.432 561.529, 596.919 564.580 C 596.050 565.636, 594.060 568.750, 592.497 571.500 C 590.935 574.250, 586.735 579.538, 583.164 583.250 C 575.616 591.098, 575.467 591.037, 591.324 586.569 C 631.184 575.336, 667.172 556.531, 675.549 542.556 C 677.042 540.066, 677.985 539.188, 677.991 540.282 C 678.005 543.006, 674.310 553.360, 671.814 557.591 L 669.587 561.365 678.821 556.433 C 697.595 546.404, 715.520 531.747, 725.968 517.882 C 732.556 509.140, 738 499.278, 738 496.088 C 738 495.004, 738.455 493.837, 739.011 493.493 C 740.890 492.332, 739.471 515.824, 737.275 522.250 C 736.195 525.413, 735.661 528, 736.089 528 C 738.005 528, 754.131 511.407, 758.404 505.039 C 771.833 485.024, 781.956 446.268, 777.061 433.611 C 775.791 430.327, 776.341 428.882, 777.802 431.664 C 780.265 436.354, 785.345 450.182, 786.925 456.500 L 788.676 463.500 791.367 452.308 C 795.408 435.501, 796.317 425.676, 795.649 406 C 794.918 384.426, 794.211 380.805, 788.534 369.532 C 782.899 358.341, 786.280 361.031, 793.705 373.646 C 801.792 387.385, 807.462 395.325, 807.847 393.449 C 808.559 389.972, 805.847 372.116, 802.950 361.209 C 799.273 347.365, 792.968 331.516, 773.712 287.714 L 772.487 284.927 768.993 287.545 C 763.920 291.346, 753.250 296.581, 746.690 298.488 C 740.641 300.246, 740.557 300.385, 741.946 306.372 C 743.415 312.705, 741.340 309.144, 737.941 299.500 C 733.676 287.398, 728.136 276.607, 722.086 268.614 C 716.569 261.325, 716.863 260.851, 725.321 263.396 C 729.628 264.692, 729.894 264.670, 729.045 263.083 C 727.737 260.640, 720.172 253.863, 715.641 251.076 C 710.724 248.051, 711.899 247.305, 723.043 246.376 L 731.394 245.680 727.649 242.442 C 725.589 240.661, 721.458 238.146, 718.469 236.852 C 715.480 235.559, 713.026 234.195, 713.017 233.822 C 712.997 233.020, 722.826 229.240, 727.928 228.088 L 731.500 227.282 728.555 226.092 C 724.820 224.582, 711.515 222.865, 709.511 223.634 C 706.044 224.965, 702.856 222.501, 692.223 210.272 C 686.115 203.247, 678.953 195.028, 676.308 192.006 C 672.468 187.619, 672.081 186.886, 674.387 188.369 L 677.273 190.225 679.846 186.863 C 694.282 167.997, 712.033 156.304, 730.337 153.603 L 738.175 152.446 729.837 146.220 C 719.127 138.222, 707.797 132.327, 699.815 130.599 C 693.776 129.291, 694.389 129.237, 713.806 129.366 L 734.112 129.500 731.306 127.223 C 726.833 123.594, 703.337 112.312, 693.500 109.071 C 672.268 102.076, 648.651 97.962, 638.040 99.410 C 634.964 99.830, 633.902 99.698, 634.617 98.983 C 635.187 98.413, 638.028 97.666, 640.931 97.322 C 647.167 96.583, 646.373 95.911, 635.913 93.071 C 612.675 86.760, 584.420 86.112, 573.725 91.642 C 571.042 93.030, 570.926 93.009, 571.845 91.311 C 573.234 88.746, 586.577 75.075, 592.353 70.299 L 597.207 66.286 586.853 67.687 C 559.504 71.387, 535.651 80.449, 520.104 93.045 C 514.800 97.342, 513.559 97.963, 512.840 96.678 C 509.323 90.394, 486.801 77.531, 470 72.212 C 459.551 68.904, 439 64.969, 439 66.276 M 279.698 159.039 C 260.018 163.962, 241.001 184.033, 232.836 208.500 C 229.270 219.186, 229.459 240.424, 233.213 250.835 C 239.908 269.400, 254.956 285.042, 273.500 292.714 C 284.039 297.074, 284.143 297.042, 287.129 288.609 L 289.757 281.184 282.203 277.450 C 262.475 267.701, 250.904 246.999, 252.327 224 C 252.617 219.325, 253.142 214.600, 253.494 213.500 C 253.847 212.400, 252.923 213.431, 251.442 215.791 C 249.961 218.151, 248.554 219.887, 248.316 219.649 C 247.457 218.790, 251.153 211.479, 255.067 206.295 C 259.023 201.055, 258.919 199.925, 254.684 202.146 L 252.500 203.291 254.499 201.042 C 267.138 186.820, 292.501 192.039, 313.256 213.133 C 316.972 216.910, 320.171 220, 320.364 220 C 320.557 220, 323.415 216.709, 326.716 212.687 C 330.018 208.665, 335.525 202.374, 338.956 198.707 L 345.192 192.039 334.846 181.704 C 318.167 165.041, 306.886 158.901, 292 158.384 C 287.325 158.221, 281.789 158.516, 279.698 159.039 M 723.007 159.607 C 711.487 162.703, 696.209 173.260, 685.351 185.627 L 679.808 191.940 682.154 194.837 C 683.444 196.430, 687.651 201.281, 691.502 205.617 C 695.353 209.952, 699.720 215.065, 701.206 216.978 L 703.907 220.456 711.204 213.229 C 732.451 192.185, 751.802 187.381, 768.017 199.127 C 772.274 202.211, 772.920 204.098, 769 202 C 765.847 200.312, 765.574 201.334, 768.300 204.624 C 771.383 208.346, 775.613 215.813, 776.444 219 C 776.944 220.916, 776.538 220.622, 774.706 217.741 C 773.391 215.673, 772.125 213.792, 771.894 213.561 C 771.662 213.329, 771.639 217.976, 771.841 223.888 C 772.676 248.289, 761.877 267.527, 741.763 277.468 L 734.276 281.168 737.053 288.306 C 738.580 292.231, 740.254 295.585, 740.772 295.757 C 742.405 296.302, 754.750 291.395, 760.596 287.877 C 791.819 269.090, 803.276 231.925, 787.945 199.156 C 773.807 168.936, 747.628 152.992, 723.007 159.607 M 429 159.382 C 429 159.593, 433.257 161.261, 438.459 163.090 C 443.662 164.918, 447.817 166.517, 447.692 166.641 C 447.568 166.765, 442.889 167.800, 437.295 168.940 C 400.377 176.463, 373.711 194.919, 349.791 229.500 C 326.127 263.712, 311.115 308.573, 307.813 354.948 L 306.634 371.500 300.563 378.107 C 297.223 381.740, 292.490 387.590, 290.043 391.107 L 285.596 397.500 296.048 387.086 C 308.486 374.694, 310.031 375.504, 303.142 390.804 C 298.466 401.188, 296.465 407.775, 294.940 417.806 C 293.400 427.930, 294.140 429.306, 298.480 424.391 L 301.915 420.500 300.957 423.993 C 298.586 432.645, 300.136 449.055, 304.124 457.541 C 306.622 462.855, 307.398 463.062, 308.667 458.750 L 309.623 455.500 311.416 460.822 C 317.522 478.950, 337.736 497.424, 367.324 511.918 C 388.266 522.177, 407.680 528.087, 441.257 534.426 C 451.574 536.373, 461.699 538.824, 463.757 539.871 C 486.460 551.420, 530.240 552.132, 557.229 541.390 C 562.620 539.245, 572.753 536.578, 583.729 534.415 C 616.034 528.052, 635.773 521.989, 656.718 511.997 C 684.985 498.511, 705.123 480.519, 712.649 462.024 L 714.878 456.548 715.980 459.447 C 719.568 468.885, 726.460 442.286, 724.112 428.059 C 722.836 420.321, 723.100 419.807, 725.967 424.447 C 733.689 436.941, 730.123 411.341, 721.403 391.672 C 714.126 375.259, 715.371 374.374, 728 386.983 C 733.775 392.749, 737.644 396.124, 736.598 394.483 C 733.442 389.534, 725.426 379.749, 721.084 375.547 C 717.124 371.714, 717 371.395, 716.999 365.047 C 716.997 347.157, 712.970 321.046, 707.017 300.311 C 685.683 226.017, 641.590 178.150, 586 168.939 C 575.599 167.215, 575.616 166.720, 586.196 163.172 C 591.313 161.456, 594.375 160.041, 593 160.028 C 589.855 159.997, 569.648 165.380, 562.848 168.060 C 556.653 170.502, 556.125 170.147, 558.917 165.417 C 560.107 163.399, 560.928 161.594, 560.740 161.407 C 560.552 161.219, 556.980 163.256, 552.802 165.933 C 548.623 168.610, 540.096 173.623, 533.852 177.072 C 527.609 180.522, 520.152 184.876, 517.282 186.748 L 512.065 190.151 508.782 187.681 C 506.977 186.322, 500.775 182.619, 495 179.452 C 489.225 176.285, 479.929 170.838, 474.341 167.347 C 462.466 159.928, 462.297 159.876, 465.530 164.640 C 468.240 168.633, 468.682 170.449, 466.750 169.649 C 458.699 166.314, 429 158.237, 429 159.382 M 442.555 171.614 C 388.152 181.435, 348.130 222.025, 325.045 290.789 C 316.901 315.048, 312.850 338.548, 311.519 369.258 C 310.914 383.200, 310.693 384.423, 307.524 391.377 C 304.359 398.323, 299 413.887, 299 416.133 C 299 416.700, 300.516 416.226, 302.368 415.082 C 307.542 411.884, 307.977 412.408, 305.821 419.250 C 303.723 425.904, 303.079 437.966, 304.378 446.250 C 305.308 452.184, 306.195 452.247, 307.892 446.500 C 309.719 440.311, 310.574 440.825, 312.476 449.250 C 316.612 467.576, 327.784 482.315, 347.250 495.123 C 355.692 500.678, 370.617 508.763, 376.690 511.072 L 379.138 512.003 377.037 509.052 C 370.386 499.711, 368.176 489.348, 369.988 476 C 371.725 463.210, 372.500 464.538, 372.500 480.302 C 372.500 493.564, 372.673 494.863, 375.125 500 C 378.421 506.904, 384.121 513.513, 388.857 515.921 C 392.131 517.586, 412.199 524, 414.133 524 C 414.564 524, 413.120 520.669, 410.924 516.598 C 401.519 499.160, 397.552 482.986, 397.657 462.500 C 397.728 448.544, 400.232 432.587, 403.035 428.234 C 404.093 426.590, 404.123 426.590, 403.612 428.237 C 403.316 429.192, 402.324 435.042, 401.409 441.237 C 397.566 467.253, 402.693 497.263, 414.393 517.227 C 419.340 525.669, 421.777 526.651, 449.752 531.469 C 454.841 532.345, 462.328 534.393, 466.389 536.019 C 494.182 547.148, 532.734 547.132, 558.500 535.981 C 561.250 534.791, 570.700 532.324, 579.500 530.500 C 613.399 523.471, 613.387 523.475, 618.509 517.779 C 623.665 512.044, 628.992 501.603, 631.661 492 C 634.545 481.625, 634.279 447.691, 631.219 435.600 C 628.473 424.752, 628.887 423.232, 631.860 433.245 C 638.406 455.296, 638.889 479.993, 633.107 496.988 C 629.913 506.375, 625.717 514.392, 621.717 518.750 C 618.981 521.730, 619.055 521.716, 633.766 516.390 C 650.849 510.205, 651.198 509.988, 654.731 503.314 C 659.417 494.464, 660.990 487.844, 661.086 476.568 C 661.152 468.844, 661.386 467.198, 662.091 469.500 C 664.580 477.630, 662.947 494.264, 658.875 502.244 C 656.596 506.712, 656.627 506.720, 663.283 503.389 C 690.648 489.692, 709.682 467.456, 712.628 445.741 C 713.444 439.734, 715.264 440.780, 717.081 448.300 C 718.294 453.319, 718.365 453.398, 719.132 450.566 C 721.711 441.032, 721.069 427.750, 717.423 415.250 C 716.588 412.386, 718.239 412.322, 722.096 415.068 C 724.369 416.687, 725 416.818, 725 415.673 C 725 412.912, 720.767 400.494, 716.885 391.868 C 713.434 384.200, 713 382.357, 712.998 375.368 C 712.971 289.919, 671.680 208.070, 615.738 182.577 C 605.405 177.868, 591.180 173.534, 579.145 171.427 C 569.534 169.745, 568.949 169.748, 564.381 171.492 C 561.766 172.491, 557.638 173.907, 555.208 174.638 L 550.791 175.967 551.448 173.352 L 552.104 170.738 548.802 172.902 C 544.999 175.394, 536.738 180.280, 522.500 188.455 L 512.500 194.198 509.500 192.448 C 507.850 191.486, 501.325 187.781, 495 184.215 C 488.675 180.649, 481.129 176.217, 478.231 174.366 L 472.962 171.001 473.589 173.500 C 474.364 176.587, 474.797 176.612, 465 173 C 455.961 169.667, 454.006 169.547, 442.555 171.614 M 268 197.709 C 258.548 201.185, 252.980 224.985, 257.531 242.458 C 261.078 256.074, 271.424 269.259, 283.656 275.750 C 291.205 279.756, 290.056 279.996, 294.358 273.515 C 298.877 266.710, 298.874 266.666, 294.034 268.603 C 291.853 269.476, 289.623 270.034, 289.078 269.845 C 286.190 268.840, 295.808 255.614, 303 250.699 C 304.423 249.727, 304.854 249.044, 304 249.114 C 296.443 249.733, 288 248.862, 288 247.463 C 288 245.392, 296.134 237.601, 299.942 236.024 C 304.378 234.186, 303.823 233.594, 295.750 231.549 C 285.206 228.878, 285.011 228.683, 289.733 225.558 C 294.456 222.432, 302.698 220.029, 308.750 220.012 C 314.345 219.996, 314.138 219.173, 306.916 212.740 C 293.441 200.737, 277.018 194.394, 268 197.709 M 738.489 199.340 C 731.132 202.076, 724.752 206.382, 716.659 214.076 L 710.500 219.930 714.201 219.965 C 722.346 220.042, 738 225.369, 738 228.065 C 738 228.476, 734.175 229.822, 729.500 231.057 C 720.611 233.406, 719.307 234.358, 723.531 235.418 C 726.726 236.220, 736 245.070, 736 247.316 C 736 248.765, 734.792 249, 727.350 249 L 718.700 249 722.698 251.896 C 729.310 256.686, 737.407 267.926, 735.569 269.764 C 735.302 270.031, 733.208 269.500, 730.917 268.583 C 725.417 266.383, 725.321 266.727, 729.599 273.318 L 733.239 278.927 736.630 277.510 C 757.879 268.632, 771.595 244.008, 768.213 220.808 C 765.110 199.514, 755.902 192.864, 738.489 199.340 M 449 251.218 C 449 251.508, 449.950 253.894, 451.111 256.519 C 452.585 259.849, 453.212 263.289, 453.188 267.896 C 453.156 274.055, 453.247 274.331, 454.541 272 C 457.494 266.682, 455.653 256.711, 450.929 252.436 C 449.868 251.476, 449 250.928, 449 251.218 M 572.237 253.254 C 567.979 257.800, 566.785 265.650, 569.464 271.500 C 570.790 274.396, 570.841 274.258, 570.941 267.500 C 571.010 262.827, 571.707 259.038, 573.040 256.101 C 575.377 250.949, 575.150 250.144, 572.237 253.254 M 430.379 257.239 C 423.674 270.470, 411.302 278.227, 380.500 288.512 C 369.500 292.185, 359.825 295.567, 359 296.028 C 355.801 297.814, 361.799 298.500, 380.500 298.485 C 397.158 298.471, 400.542 298.186, 407.953 296.175 C 441.117 287.175, 455.205 269.969, 441.022 255.786 C 435.743 250.507, 433.645 250.794, 430.379 257.239 M 584.836 254.232 C 579.203 259.026, 576.955 267.348, 579.545 273.820 C 583.488 283.676, 601.480 293.336, 623.929 297.649 C 633.284 299.447, 658.255 299.819, 663.500 298.239 L 666.500 297.335 663.396 295.717 C 661.689 294.828, 652.239 291.340, 642.396 287.966 C 612.931 277.867, 600.174 269.849, 593.923 257.500 C 591.002 251.729, 588.734 250.914, 584.836 254.232 M 236.030 276.649 C 233.220 284.160, 228.880 299.152, 229.229 300.142 C 229.525 300.982, 246.638 288.359, 248.886 285.642 C 250.115 284.158, 249.608 283.256, 244.437 277.733 C 241.228 274.305, 238.511 271.356, 238.399 271.181 C 238.287 271.006, 237.221 273.466, 236.030 276.649 M 785 271.896 C 785 272.454, 782.595 275.374, 779.656 278.384 L 774.312 283.858 776.406 286.279 C 777.558 287.611, 782.392 291.682, 787.149 295.325 L 795.797 301.950 794.349 296.225 C 790.822 282.283, 785 267.132, 785 271.896 M 434.560 306.653 C 432.456 308.083, 426.631 311.178, 421.617 313.530 C 413.196 317.480, 406.521 320.071, 385.666 327.481 C 355.737 338.115, 343.241 366.681, 358.694 389.145 L 362.220 394.272 359.610 393.617 C 355.522 392.591, 356.437 393.507, 364.554 398.566 C 370.306 402.151, 371.946 403.660, 371.429 404.887 C 371.056 405.774, 369.906 409.128, 368.875 412.339 C 365.302 423.466, 367.192 424.040, 371.051 413 C 373.926 404.778, 374.310 404.365, 377.665 405.893 C 382.644 408.162, 402.167 411.160, 407.500 410.474 C 414.951 409.517, 423.427 407.231, 433.557 403.446 C 438.538 401.584, 444.050 399.952, 445.807 399.818 C 449.153 399.563, 449.640 399.040, 448.031 397.431 C 447.406 396.806, 447.958 393.277, 449.588 387.481 C 457.307 360.031, 448.121 332.212, 428.019 322.168 L 422.145 319.232 427.338 315.656 C 432.965 311.781, 439.662 305.329, 438.875 304.541 C 438.606 304.273, 436.665 305.223, 434.560 306.653 M 585.927 305.863 C 587.249 308.335, 592.428 312.822, 598.095 316.407 L 602.690 319.314 597.084 322.116 C 576.379 332.462, 567.538 358.353, 574.982 386.842 C 577.390 396.061, 577.397 396.199, 575.461 397.292 C 573.750 398.259, 574.202 398.555, 579 399.611 C 582.025 400.276, 589.493 402.628, 595.596 404.837 C 614.024 411.507, 628.910 411.844, 645.255 405.960 C 652.250 403.443, 652.329 403.486, 654.937 411.261 C 657.589 419.164, 658.976 421.493, 658.952 418 C 658.937 415.819, 656.829 408.993, 654.571 403.817 C 653.997 402.501, 655.273 401.227, 660.419 397.977 C 667.221 393.681, 668.485 392.378, 664.953 393.302 C 662.914 393.835, 662.915 393.825, 665.026 390.669 C 676.688 373.230, 674.832 356.019, 659.617 340.512 C 652.415 333.170, 646.447 329.952, 628.203 323.571 C 611.683 317.793, 598.548 312.052, 591.426 307.496 C 585.148 303.480, 584.557 303.304, 585.927 305.863 M 597.198 334.673 C 587.692 339.358, 588.747 353.404, 598.874 356.981 C 602.845 358.383, 603.300 358.338, 607.469 356.126 C 621.999 348.418, 611.940 327.408, 597.198 334.673 M 393.966 335.780 C 384.364 340.600, 383.614 353.216, 392.674 357.516 C 397.488 359.800, 402.464 358.736, 406.679 354.521 C 415.551 345.649, 405.073 330.204, 393.966 335.780 M 653.557 348.409 C 657.973 363.435, 652.006 383.675, 640.711 391.981 C 635.862 395.547, 637.397 395.856, 644.775 392.798 C 650.197 390.550, 650.248 390.553, 657.153 393.447 C 658.454 393.992, 659.518 392.693, 662.153 387.343 C 668.637 374.177, 666.370 359.195, 656.202 348 L 652.115 343.500 653.557 348.409 M 367.101 349.024 C 361.270 356.280, 358.503 363.602, 358.608 371.500 C 358.707 378.985, 361.430 387.734, 365.121 392.427 L 367.160 395.019 369.715 393.010 C 372.957 390.460, 377.014 390.457, 382 393 C 384.156 394.100, 386.076 395, 386.267 395 C 386.457 395, 384.298 392.610, 381.468 389.688 C 371.675 379.578, 367.463 365.618, 370.171 352.250 C 371.865 343.886, 371.521 343.524, 367.101 349.024 M 502.256 363.999 C 499.922 364.491, 497.222 365.398, 496.256 366.016 C 494.760 366.971, 494.870 367.049, 497 366.541 C 502.605 365.202, 516.836 364.834, 522.419 365.883 C 529.287 367.173, 530.925 366.670, 525.344 364.985 C 520.199 363.432, 507.514 362.890, 502.256 363.999 M 547.022 383.123 C 551.564 391.868, 556.486 404, 555.491 404 C 555.270 404, 553.449 402.887, 551.444 401.526 C 546.190 397.961, 541.954 397.478, 533.145 399.441 C 520.966 402.155, 508.956 402.501, 498 400.453 C 481.390 397.349, 479.516 397.380, 473.923 400.857 C 471.215 402.540, 469 403.721, 469 403.482 C 469 401.871, 474.778 388.221, 478.093 382 L 482.089 374.500 478.468 378.500 C 469.630 388.261, 463.074 406.935, 466.002 414.005 C 469.117 421.524, 488.869 434.185, 504.250 438.521 L 510 440.142 510 447.500 L 510 454.858 504.456 456.009 C 491.877 458.620, 475.438 469.690, 467.928 480.604 C 463.408 487.174, 464.439 487.714, 470.655 482.032 C 483.873 469.952, 501.313 461, 511.630 461 C 521.672 461, 541.311 470.682, 552.499 481.148 C 559.694 487.878, 560.700 488.200, 558.235 482.978 C 553.040 471.978, 533.957 459.369, 516.750 455.569 C 514.056 454.974, 514 454.813, 514 447.645 L 514 440.328 520.250 438.599 C 523.688 437.648, 530.582 434.848, 535.571 432.377 C 553.220 423.637, 560.962 415.027, 559.512 405.752 C 558.618 400.033, 549.939 382.465, 545.555 377.500 C 542.039 373.518, 542.045 373.543, 547.022 383.123 M 423.655 376.829 C 420.038 380.826, 422.832 387, 428.257 387 C 433.618 387, 435.901 380.901, 432 377 C 429.504 374.504, 425.827 374.429, 423.655 376.829 M 627 377 C 623.257 380.743, 626.027 387, 631.429 387 C 634.676 387, 637 384.497, 637 381 C 637 375.403, 630.998 373.002, 627 377 M 440.173 390.035 C 435.122 395.638, 434.343 398, 437.546 398 C 439.160 398, 443.102 392.143, 444.781 387.250 C 445.394 385.462, 445.807 384.029, 445.698 384.064 C 445.589 384.099, 443.103 386.786, 440.173 390.035 M 580.439 388.500 C 582.458 393.503, 585.284 397.424, 587.106 397.749 C 588.545 398.006, 591.826 396.345, 590.948 395.804 C 590.676 395.637, 587.837 393.025, 584.640 390 L 578.825 384.500 580.439 388.500 M 371.527 394.616 C 369.168 396.975, 369.997 398.182, 376.065 401.228 C 379.933 403.170, 383.230 404.008, 387.500 404.137 C 390.800 404.237, 394.948 404.922, 396.718 405.659 C 401.637 407.709, 407.357 407.221, 420.764 403.609 C 433.850 400.084, 435.280 399.421, 432.971 397.961 C 430.483 396.388, 424.122 396.897, 420 399 C 414.610 401.750, 409.794 401.554, 405.015 398.391 C 400.948 395.700, 400.599 395.681, 389.898 397.554 C 387.138 398.037, 385.103 397.579, 381.182 395.592 C 375.217 392.569, 373.724 392.419, 371.527 394.616 M 646 394.475 C 639.216 398.398, 639.185 398.404, 632.450 397.065 C 626.115 395.806, 625.845 395.840, 620.392 398.599 C 613.813 401.927, 611.685 401.900, 604.994 398.402 C 599.950 395.764, 595.727 395.620, 592.029 397.960 C 589.951 399.275, 590.503 399.575, 600.142 402.368 C 611.564 405.678, 621.876 407.055, 626.686 405.912 C 628.784 405.414, 633.141 404.781, 636.369 404.506 C 648.055 403.509, 657.721 397.062, 652.066 394.035 C 649.567 392.698, 649.003 392.739, 646 394.475 M 476 403.109 C 467.692 408.096, 467.180 409.608, 471.739 415.677 L 474.126 418.854 477.703 416.427 C 485.346 411.240, 492.797 415.236, 500.219 428.500 C 503.437 434.251, 503.783 434.535, 508.554 435.352 C 515.485 436.537, 521.710 434.779, 523.252 431.199 C 529.465 416.778, 541.150 409.983, 547.559 417.065 C 549.616 419.338, 551.954 417.924, 554.602 412.802 C 556.407 409.313, 556.443 409.491, 553.352 406.626 C 547.237 400.956, 544.319 400.468, 531.780 403.017 C 517.694 405.882, 505.798 405.901, 493.261 403.079 C 481.781 400.496, 480.348 400.498, 476 403.109 M 478.910 419.608 C 477.237 421.624, 478.443 422.615, 489.228 428.082 C 498.671 432.870, 498.483 432.868, 496.079 428.155 C 491.830 419.825, 482.560 415.211, 478.910 419.608 M 535.329 419.941 C 532.312 421.781, 526.217 430.550, 527.242 431.575 C 527.764 432.097, 542.265 424.839, 545.398 422.487 C 550.397 418.735, 541.144 416.395, 535.329 419.941 M 661 424.410 C 661 424.636, 662.350 427.673, 663.999 431.160 C 667.433 438.420, 667.594 439.708, 665.443 442.777 C 663.507 445.542, 662.560 445.560, 659.881 442.881 C 657.946 440.946, 657.822 440.081, 658.450 432.881 C 658.886 427.887, 658.775 425, 658.148 425 C 655.781 425, 654.453 439.041, 656.454 442.912 C 661.190 452.070, 671.772 446.295, 669.015 436.057 C 667.804 431.558, 661 421.672, 661 424.410 M 363.716 427.762 C 358.123 433.942, 356.458 444.549, 360.455 448.545 C 367.007 455.098, 373.361 448.127, 370.996 436.982 C 369.553 430.180, 366.370 424.767, 367.479 431 C 369.645 443.167, 368.987 448, 365.165 448 C 360.366 448, 359.600 440.550, 363.531 432.105 C 366.226 426.315, 366.286 424.922, 363.716 427.762 M 504.286 478.451 C 499.917 479.816, 490.562 484.895, 491.214 485.548 C 491.419 485.752, 494.492 484.963, 498.043 483.794 C 506.689 480.948, 519.133 480.985, 527.500 483.883 L 533.500 485.961 530.500 483.464 C 524.220 478.235, 512.281 475.952, 504.286 478.451 M 453 484.050 C 453 491.627, 463.586 497.050, 469.559 492.532 C 471.375 491.158, 471.252 491.062, 467.651 491.032 C 462.370 490.988, 457.340 488.389, 455.798 484.906 C 454.299 481.519, 453 481.122, 453 484.050 M 569.732 484.237 C 568.675 488.026, 564.593 490.402, 558.045 491.041 L 552.500 491.583 556.215 493.460 C 563.342 497.061, 571.530 492.216, 570.817 484.821 L 570.496 481.500 569.732 484.237 M 358.734 579.250 C 342.898 603.044, 334.616 618.812, 329.126 635.619 C 319.832 664.066, 323.711 689.114, 339.108 700.077 C 343.041 702.877, 343.388 702.291, 340.843 697.147 C 339.688 694.814, 338.571 690.788, 338.360 688.202 L 337.977 683.500 339.486 688.137 C 341.759 695.123, 347.011 702.075, 352.068 704.792 C 357.006 707.446, 367.233 707.551, 372.004 704.998 L 374.432 703.699 371.968 702.099 C 366.683 698.669, 362.915 693.048, 361.511 686.500 C 361.017 684.195, 361.481 684.659, 363.514 688.500 C 366.932 694.959, 369.207 697.339, 374.057 699.526 C 378.795 701.662, 380.969 700.360, 384.119 693.500 C 386.966 687.301, 386.611 683.367, 383.039 681.520 C 380.418 680.165, 375 672.726, 375 670.482 C 375 670.019, 376.641 671.557, 378.647 673.901 C 383.142 679.152, 386.319 680.525, 390.231 678.904 C 396.513 676.302, 397.570 668.686, 393.048 658.607 C 391.424 654.988, 389.819 650.552, 389.481 648.749 C 388.075 641.258, 396.051 612.417, 404.569 594.190 C 409.474 583.694, 409.472 583.635, 404.236 581.927 C 397.622 579.770, 382.854 573.003, 375.906 568.945 C 372.191 566.775, 368.941 565, 368.685 565 C 368.428 565, 363.950 571.413, 358.734 579.250 M 651.500 567.166 C 647.068 570.151, 627.299 579.490, 621.262 581.451 C 614.361 583.693, 614.347 583.753, 618.607 592.209 C 623.660 602.237, 631.727 627.161, 633.699 638.838 L 635.331 648.500 632.006 656 C 627.630 665.871, 627.051 671.547, 630.033 675.325 C 634.738 681.285, 639.857 680.624, 645.938 673.271 L 649.057 669.500 647.930 672.752 C 647.310 674.540, 644.822 677.747, 642.402 679.878 C 637.355 684.320, 636.886 686.949, 639.938 693.672 C 644.799 704.378, 652.447 702.581, 659.948 688.971 C 663.551 682.434, 664.011 684.383, 660.545 691.500 C 657.765 697.208, 656.639 698.668, 652.638 701.756 L 649.776 703.964 652.638 705.124 C 666.305 710.661, 679.356 703.646, 684.187 688.166 C 684.902 685.875, 685.787 684, 686.153 684 C 687.132 684, 684.636 694.018, 682.682 697.936 C 680.508 702.293, 680.514 702.306, 683.750 700.608 C 704.543 689.695, 705.388 652.712, 685.741 613.500 C 678.685 599.418, 656.756 564.884, 655 565.088 C 654.725 565.120, 653.150 566.055, 651.500 567.166 M 441.362 578.280 C 445.956 583.664, 448 584.652, 448 581.489 C 448 580.302, 443.481 576.675, 438 573.461 C 437.175 572.977, 438.688 575.146, 441.362 578.280 M 581.500 576.566 C 578.750 578.467, 576.364 580.426, 576.197 580.919 C 575.663 582.503, 578.037 583.214, 579.582 581.932 C 581.143 580.636, 587.415 572.959, 586.834 573.055 C 586.650 573.085, 584.250 574.665, 581.500 576.566 M 449.466 584.107 C 448.937 585.773, 449.813 587.146, 453.649 590.668 L 458.500 595.122 453 594.537 C 449.975 594.215, 446.674 593.850, 445.665 593.726 C 443.339 593.440, 437.331 607.964, 432.520 625.508 C 417.403 680.623, 426.916 718.239, 460.048 734.357 C 474.061 741.174, 483.557 743.077, 506.729 743.710 C 534.462 744.469, 547.279 742.363, 564 734.299 C 601.873 716.034, 609.135 668.282, 583.904 603.423 L 579.984 593.346 573.967 594.315 C 566.037 595.592, 565.642 594.812, 571.557 589.556 C 576.082 585.537, 576.366 585.028, 574.922 583.540 C 573.470 582.045, 572.581 582.395, 563.835 587.891 C 550.985 595.968, 532.049 606.382, 531.397 605.731 C 531.106 605.440, 531.378 603.311, 532 601 C 532.622 598.689, 532.937 596.603, 532.698 596.365 C 531.904 595.570, 522.297 603.789, 517.428 609.430 C 514.783 612.493, 512.367 614.999, 512.059 614.998 C 511.752 614.997, 510.189 612.922, 508.587 610.386 C 505.511 605.517, 495.881 597.062, 489.002 593.191 L 484.899 590.882 486.950 594.901 C 488.077 597.112, 489 600.283, 489 601.948 L 489 604.975 483.750 602.637 C 476.411 599.368, 463.980 591.871, 457.022 586.517 C 450.243 581.301, 450.346 581.334, 449.466 584.107 M 409.524 588.289 C 407.199 593.853, 398.989 620.944, 396.428 631.500 C 393.217 644.740, 393.320 648.616, 397.118 657.270 C 402.386 669.273, 401.242 676.361, 393.205 681.500 C 390.862 682.998, 390.067 684.254, 390.039 686.507 C 389.976 691.396, 388.231 696.130, 385.016 700.130 C 381.138 704.955, 381.132 704.899, 386.857 716.315 C 389.529 721.642, 391.506 726, 391.251 726 C 390.641 726, 387.158 721.628, 383.853 716.714 C 380.545 711.797, 380.348 712.325, 379.459 728.500 C 378.515 745.687, 381.681 777.959, 385.617 791.250 C 386.061 792.750, 387.445 793.002, 395.317 793.017 C 406.053 793.038, 415.991 794.933, 423.585 798.410 C 430.569 801.608, 430.528 802.418, 423.504 800.001 C 410.853 795.649, 392.907 795.006, 381.294 798.490 C 365.492 803.230, 355.973 820.205, 363.993 829.339 C 368.194 834.124, 368.566 833.992, 368.714 827.660 C 368.876 820.736, 371.992 814.184, 377.566 809.046 C 383.141 803.907, 384.863 803.767, 380.033 808.845 C 375.260 813.862, 372.748 819.270, 372.202 825.704 C 371.428 834.818, 371.961 835.585, 381.060 838.459 C 392.089 841.943, 391.665 842.105, 391.187 834.591 C 390.619 825.669, 392.981 819.051, 398.940 812.868 C 401.521 810.190, 404.256 808, 405.019 808 C 405.799 808, 404.806 809.642, 402.752 811.750 C 396.181 818.494, 392.178 832.309, 394.825 839.104 C 396.004 842.131, 402.600 843.203, 414.275 842.266 L 420.787 841.743 420.267 836.010 C 419.683 829.568, 421.872 821.331, 424.895 818.595 C 426.643 817.013, 426.642 817.144, 424.887 822.227 C 422.974 827.763, 422.580 832.651, 423.625 837.875 C 424.419 841.847, 426.967 841.958, 440.203 838.600 C 462.556 832.930, 463.842 831.627, 465.672 812.784 C 467.251 796.532, 469.814 785.925, 474.059 778.079 C 475.672 775.098, 476.882 772.572, 476.746 772.467 C 476.611 772.361, 472.225 771.062, 467 769.580 C 454.658 766.080, 440.689 759.414, 430.851 752.331 C 422.784 746.523, 420.749 743.923, 427.709 748.316 C 440.444 756.355, 459.480 763.617, 477.272 767.224 C 492.346 770.280, 530.181 770.551, 544.500 767.707 C 563.564 763.919, 585.178 755.727, 596.658 747.937 C 600.382 745.410, 601.038 745.181, 599.500 746.944 C 592.970 754.430, 572.794 765.151, 556.749 769.660 L 547.152 772.358 550.051 778.100 C 554.473 786.862, 556.967 797.224, 557.981 811.055 C 559.025 825.297, 559.749 827.871, 563.556 830.865 C 566.828 833.439, 577.728 836.808, 585.034 837.503 C 587.968 837.783, 591.394 838.684, 592.649 839.506 C 596.845 842.255, 599.820 841.474, 600.580 837.424 C 601.478 832.638, 600.455 825.817, 598.010 820.290 C 596.425 816.707, 596.334 816.033, 597.576 817.063 C 601.355 820.199, 603.453 826.311, 603.477 834.250 L 603.500 842 609 842.079 C 621.249 842.254, 627.509 841.796, 628.224 840.672 C 629.553 838.582, 629.043 826.482, 627.425 821.734 C 626.559 819.191, 624.045 815.061, 621.840 812.555 C 617.236 807.325, 617.867 806.617, 623.209 811.020 C 629.158 815.924, 632.505 823.959, 632.473 833.254 L 632.445 841.007 635.973 840.351 C 643.398 838.971, 649.501 836.320, 650.799 833.911 C 654.008 827.958, 650.139 814.737, 643.289 808.250 C 639.302 804.474, 639.936 804.030, 644.718 807.250 C 650.568 811.189, 654.398 818.356, 654.841 826.193 C 655.258 833.567, 655.442 833.812, 658.633 831.228 C 665.419 825.731, 664.425 814.492, 656.448 806.515 C 645.833 795.899, 620.898 792.978, 600.586 799.969 C 593.006 802.579, 592.067 801.743, 599.096 798.643 C 607.271 795.039, 617.842 793, 628.348 793 L 637.801 793 638.880 788.250 C 643.211 769.193, 644.982 750.089, 644.322 729.549 C 643.746 711.595, 643.526 711.284, 637.564 720.009 C 634.910 723.893, 632.568 726.901, 632.359 726.692 C 632.150 726.484, 633.956 722.305, 636.372 717.406 C 642.604 704.771, 642.620 704.673, 639.185 700.268 C 635.848 695.987, 634.003 691.131, 633.994 686.601 C 633.989 684.211, 633.305 683.112, 631.015 681.808 C 623.436 677.496, 621.881 667.630, 627 656.340 C 628.778 652.419, 629.999 648.048, 629.997 645.612 C 629.994 640.558, 625.708 623.436, 619.457 603.500 C 616.870 595.250, 614.531 587.712, 614.260 586.750 C 613.635 584.534, 612.647 584.556, 604.849 586.965 C 601.350 588.046, 594.890 589.796, 590.493 590.854 C 584.921 592.196, 582.596 593.191, 582.817 594.139 C 582.991 594.888, 584.649 599.325, 586.502 604 C 602.865 645.292, 605.309 686.710, 592.775 710.287 C 584.025 726.746, 567.121 738.429, 544.500 743.653 C 531.874 746.568, 489.926 746.317, 477.783 743.253 C 435.816 732.663, 417.902 702.359, 424.432 653 C 426.778 635.265, 433.772 609.486, 439.138 598.790 C 441.977 593.132, 441.651 592.556, 434.750 591.039 C 431.313 590.283, 425.125 588.622, 421 587.347 C 411.365 584.370, 411.154 584.388, 409.524 588.289 M 258.537 722.619 C 260.093 729.618, 262.426 735.431, 265.525 740.037 C 269.620 746.123, 268.469 746.443, 262.968 740.750 L 258.861 736.500 259.558 739.500 C 261.638 748.454, 269.823 758.933, 277.750 762.789 C 282.236 764.972, 281.816 765.881, 276.750 764.953 C 271.316 763.957, 270.965 764.394, 275.137 766.962 C 279.363 769.563, 287.349 772, 291.644 772 C 296.602 772, 305.999 768.190, 306.004 766.178 C 306.009 763.606, 309.873 757.846, 311.958 757.301 C 315.244 756.441, 315.204 747.987, 311.885 741.785 C 310.085 738.421, 303.782 731.938, 300.825 730.410 C 297.676 728.781, 297.398 729.323, 299.500 733 C 301.538 736.566, 301.329 737.262, 298.730 735.559 C 297.482 734.741, 292.314 733.602, 287.247 733.028 C 275.628 731.712, 268.473 729.049, 262.551 723.836 L 257.896 719.739 258.537 722.619 M 368.764 753.982 C 354.313 763.717, 336.669 766.265, 319.885 761.041 L 313.771 759.138 311.385 761.524 C 307.921 764.988, 308.414 766.503, 313.750 768.786 C 331.735 776.482, 351.085 776.646, 369.750 769.260 C 376.715 766.504, 376.594 766.816, 375.151 755.309 L 374.500 750.117 368.764 753.982 M 478.606 777.791 C 476.212 782.514, 472.357 794.397, 471.794 798.789 L 471.500 801.078 511.938 801.017 C 534.179 800.984, 552.470 800.854, 552.585 800.728 C 553.236 800.016, 548.529 784.590, 546.033 779.256 L 543.092 772.972 537.296 773.736 C 529.908 774.710, 495.464 774.731, 487.259 773.766 L 481.017 773.032 478.606 777.791 M 509.652 811.750 C 509.301 815.462, 509.024 821.425, 509.037 825 L 509.060 831.500 512.780 827.370 C 517.636 821.978, 519.768 821.259, 521.033 824.586 C 521.709 826.365, 522.530 826.974, 523.751 826.605 C 528.064 825.300, 538.433 824.137, 541.062 824.662 C 544.038 825.258, 545.651 826.676, 547.461 830.287 C 548.516 832.392, 550.485 833.193, 557.292 834.281 L 561.083 834.888 558.631 831.973 C 555.830 828.644, 554 821.357, 554 813.533 C 554 804.405, 555.565 805, 531.538 805 L 510.289 805 509.652 811.750 M 516.173 828.292 C 514.057 830.841, 510.019 840.552, 510.010 843.115 C 509.980 851.126, 522.365 854.966, 528.825 848.949 C 533.137 844.931, 531.890 840.606, 524.334 833.377 C 516.732 826.105, 517.560 826.621, 516.173 828.292 M 532.327 829.299 L 526.154 830.154 529.978 833.978 C 537.577 841.577, 536.128 850.355, 526.685 853.933 C 515.683 858.102, 506.157 851.461, 507.296 840.416 L 507.835 835.201 500.667 837.175 C 484.834 841.537, 452.393 851.260, 450.750 852.137 C 445.967 854.688, 442.546 868.132, 445.523 872.675 C 447.699 875.996, 449.961 875.283, 452.433 870.499 C 455.901 863.789, 465.140 860.952, 471.989 864.494 C 476.776 866.970, 478 869.664, 478 877.723 C 478 884.883, 479.805 889, 482.943 889 C 485.072 889, 487 884.357, 487 879.228 C 487 868.106, 492.588 863.979, 500.056 869.586 C 506.060 874.095, 507.631 874.320, 513.552 871.519 C 520.178 868.384, 520.892 868.391, 528.151 871.648 C 533.118 873.878, 534.452 874.115, 536.574 873.148 C 541.779 870.776, 544.991 872.935, 545.015 878.821 C 545.055 888.236, 549.090 886.413, 549.400 876.841 C 549.816 863.975, 556.817 858.663, 567.574 863.051 C 571.846 864.794, 575.105 863.655, 577.784 859.483 C 581.976 852.951, 588.954 852.701, 591.151 859.003 C 592.594 863.142, 595 862.926, 595 858.657 C 595 855.170, 591.615 844.215, 590.056 842.656 C 588.700 841.300, 571.014 838.907, 567.384 839.588 C 564.229 840.180, 550.167 837.603, 546.671 835.792 C 545.665 835.271, 544.400 833.577, 543.860 832.027 C 542.678 828.636, 540.622 828.150, 532.327 829.299 M 684 832.990 C 684 834.127, 681.286 837.967, 677.944 841.560 C 672.300 847.628, 671.909 848.353, 672.194 852.252 C 672.587 857.630, 677.019 861, 683.698 861 C 697.019 861, 700.207 849.316, 690.396 836.453 C 686.758 831.684, 684 830.190, 684 832.990 M 557.750 842.982 C 556.050 844.319, 552.921 845.179, 548.143 845.623 C 540.544 846.330, 539.645 847.351, 545.728 848.368 C 551.510 849.335, 552.958 850.568, 550.495 852.429 C 548.548 853.900, 548.562 853.937, 551.059 853.968 C 552.466 853.986, 554.491 854.661, 555.559 855.468 C 558.298 857.540, 559.628 857.352, 557.655 855.171 C 554.934 852.164, 555.636 851.833, 564.003 852.174 C 569.042 852.379, 571.875 852.130, 571.653 851.500 C 571.459 850.950, 574.046 849.523, 577.400 848.328 C 584.390 845.839, 582.186 845.303, 574 847.500 C 568.054 849.096, 554.739 849.392, 551.500 848 C 549.949 847.333, 550.447 847.125, 553.724 847.070 C 557.374 847.010, 558.160 846.592, 559.500 844 C 561.327 840.467, 561.109 840.340, 557.750 842.982 M 652.516 848.390 C 649.814 851.932, 644.448 853.985, 637.807 854.015 C 633.586 854.035, 631.703 855.241, 632.181 857.620 C 632.505 859.235, 633.333 859.455, 638.059 859.183 C 642.425 858.932, 644.103 859.293, 646.188 860.933 C 647.778 862.184, 650.333 863.014, 652.658 863.035 C 656.384 863.070, 656.428 863.111, 654.116 864.392 C 652.534 865.269, 649.506 865.561, 645.116 865.261 C 638.199 864.788, 634 866.781, 634 870.539 C 634 871.343, 633.550 872, 633 872 C 632.450 872, 632 871.550, 632 871 C 632 869.763, 622.328 869.661, 621.568 870.890 C 621.265 871.380, 622.664 872.090, 624.676 872.467 C 626.688 872.845, 629.764 874.244, 631.512 875.577 C 633.259 876.910, 635.849 878, 637.268 878 C 641.247 878, 645.897 882.505, 646.627 887.066 L 647.248 890.950 649.759 888.975 C 654.858 884.964, 659.646 887.726, 661.102 895.517 C 662.249 901.655, 664.817 904.514, 668.380 903.619 C 671.730 902.779, 673.056 900.112, 674.030 892.255 C 675.651 879.185, 684.998 876.521, 688.451 888.146 C 690.292 894.347, 691.558 896, 694.467 896 C 698.321 896, 700.197 892.697, 701 884.500 C 701.750 876.837, 703.327 873.671, 706.852 872.749 C 710.202 871.873, 712.863 873.777, 713.955 877.832 C 715.417 883.261, 717.134 884.522, 719.957 882.236 C 722.523 880.158, 722.804 876.940, 721.549 864 C 720.253 850.631, 717.229 847.375, 705.087 846.274 L 699.424 845.761 699.755 849.630 C 700.486 858.168, 693.665 864.305, 683.548 864.214 C 672.438 864.114, 664.744 854.953, 669.035 846.934 C 670.016 845.102, 669.676 845, 662.586 845 C 655.254 845, 655.049 845.069, 652.516 848.390 M 460.083 854.396 C 461.210 855.466, 495.358 861.166, 509 862.561 C 535.910 865.313, 536.304 865.328, 538.500 863.620 C 540.380 862.158, 540.298 862.120, 537.137 862.995 C 534.829 863.633, 531.693 863.499, 527.137 862.566 C 523.487 861.818, 516.675 860.710, 512 860.103 C 507.325 859.497, 495.306 857.875, 485.291 856.500 C 468.549 854.201, 459.043 853.408, 460.083 854.396 M 583.915 857.726 C 583.044 857.922, 581.577 859.664, 580.655 861.597 C 578.015 867.134, 573.148 868.717, 566.538 866.187 C 557.692 862.802, 553 866.589, 553 877.113 C 553 886.360, 548.653 890.653, 544 886 C 542.677 884.677, 542 882.667, 542 880.059 C 542 875.506, 541.398 874.896, 538.124 876.132 C 535.899 876.972, 535.794 877.362, 536.467 882.264 C 536.862 885.144, 537.481 890.959, 537.842 895.186 L 538.500 902.873 551.500 896.912 C 558.650 893.633, 570.688 888.428, 578.250 885.344 L 592 879.737 592 872.991 C 592 868.349, 591.552 865.873, 590.564 865.053 C 589.775 864.398, 588.847 862.580, 588.503 861.014 C 587.849 858.037, 586.578 857.126, 583.915 857.726 M 704.500 861.447 C 697.912 864.454, 685.523 868.577, 675.540 871.083 C 663.276 874.162, 650.734 878.068, 651.299 878.632 C 652.001 879.334, 680.211 873.256, 687.381 870.857 C 694.168 868.587, 708.548 861.541, 709.483 860.027 C 710.262 858.767, 710.546 858.686, 704.500 861.447 M 623.345 860.728 C 619.946 861.037, 619.081 861.543, 618.587 863.508 C 618.027 865.742, 613.376 867.976, 609.250 867.994 C 608.563 867.997, 608 868.450, 608 869 C 608 870.429, 616.487 870.171, 623.345 868.532 C 626.560 867.764, 629.756 867.353, 630.448 867.618 C 631.552 868.042, 635.681 863.265, 634.830 862.549 C 633.548 861.469, 629.903 860.030, 628.816 860.175 C 628.092 860.271, 625.630 860.520, 623.345 860.728 M 638.500 862 C 638.126 862.605, 639.509 863, 642 863 C 644.491 863, 645.874 862.605, 645.500 862 C 645.160 861.450, 643.585 861, 642 861 C 640.415 861, 638.840 861.450, 638.500 862 M 583.446 866.087 C 582.416 867.755, 584.733 869.667, 586.113 868.287 C 587.267 867.133, 586.545 865, 585 865 C 584.515 865, 583.816 865.489, 583.446 866.087 M 376.167 867.736 L 371.834 868.123 380.199 876.812 C 388.304 885.230, 401.954 902.417, 406.059 909.376 C 407.555 911.911, 408.229 915.384, 408.688 922.925 C 409.028 928.502, 409.587 932.938, 409.931 932.782 C 410.275 932.627, 412.851 931.643, 415.655 930.597 C 420.746 928.696, 420.753 928.688, 419.834 925.362 C 419.245 923.226, 419.292 920.629, 419.967 918.123 C 421.270 913.282, 420.459 910.720, 417.882 911.538 C 416.842 911.868, 416 911.657, 416 911.067 C 416 910.480, 416.502 910, 417.115 910 C 419.002 910, 417.119 898.909, 414.568 895 C 413.312 893.075, 409.183 888.303, 405.392 884.396 C 401.601 880.489, 396.563 874.977, 394.195 872.146 C 389.503 866.538, 389.526 866.544, 376.167 867.736 M 458 869 C 456.900 870.100, 456 871.434, 456 871.965 C 456 872.496, 454.726 874.409, 453.169 876.215 C 450.789 878.977, 450.408 880.175, 450.773 883.739 C 451.186 887.765, 451.418 888.031, 455.354 889.019 C 457.634 889.591, 464 891.671, 469.500 893.641 C 479.097 897.079, 480.265 897.257, 498.500 898.065 C 511.838 898.656, 519.977 899.516, 525.813 900.953 C 530.386 902.079, 534.369 903, 534.666 903 C 535.240 903, 534.449 889.513, 533.434 882 C 532.856 877.719, 532.576 877.390, 527.663 875.244 C 521.162 872.403, 519.640 872.430, 513.612 875.488 C 507.771 878.452, 505.268 878.096, 499.167 873.436 C 492.722 868.513, 491.578 869.511, 490.695 880.824 C 490.226 886.836, 487.518 891.320, 484.048 891.833 C 477.259 892.837, 474 888.219, 474 877.599 C 474 869.083, 472.231 867, 465 867 C 461.333 867, 459.467 867.533, 458 869 M 364.271 868.811 C 363.425 869.349, 365.401 871.914, 370.615 877.046 C 379.505 885.795, 397.378 908.267, 399.514 913.379 C 400.406 915.514, 401 920.115, 401 924.886 C 401 934.505, 401.450 935.957, 404.209 935.235 C 406.203 934.714, 406.263 934.249, 405.666 923.821 C 405.324 917.842, 404.515 911.949, 403.869 910.725 C 399.399 902.260, 369.519 867.977, 366.644 868.015 C 366.015 868.024, 364.947 868.382, 364.271 868.811 M 329.342 870.473 C 325.503 873.162, 323.751 879.544, 324.508 888.090 C 325.110 894.890, 324.932 896.198, 322.874 900.110 C 320.218 905.160, 319.772 914.907, 321.907 921.277 C 323.403 925.739, 326.312 927.411, 344.500 934.257 C 362.928 941.194, 377.413 945.364, 380.439 944.605 C 387.024 942.952, 387.426 933.270, 381.066 929.506 C 377.515 927.405, 375.967 925.888, 368.531 917.217 C 363.178 910.975, 363.067 910.133, 367 905.653 C 370.555 901.603, 370.841 897.862, 367.811 895.039 C 366.608 893.918, 365.370 892.997, 365.061 892.994 C 364.753 892.991, 361.842 892.553, 358.593 892.021 C 351.492 890.858, 349.134 888.881, 344.255 880 C 338.238 869.047, 334.650 866.755, 329.342 870.473 M 348.923 869.918 L 343.346 870.500 347.923 878.415 C 353.163 887.477, 353.434 887.680, 361.447 888.548 C 372.894 889.789, 377.653 898.770, 370.924 906.433 L 367.849 909.936 373.174 916.870 C 376.772 921.554, 379.702 924.290, 382.205 925.304 C 387.173 927.315, 390.270 932.310, 389.550 937.152 L 389.008 940.804 393.754 938.995 L 398.500 937.187 398.542 927.343 C 398.574 919.978, 398.147 916.593, 396.847 913.897 C 394.318 908.653, 380.419 891.115, 369.403 879.270 C 359.036 868.121, 360.359 868.725, 348.923 869.918 M 459 873.500 C 459 874.325, 459.675 875, 460.500 875 C 461.325 875, 462 874.325, 462 873.500 C 462 872.675, 461.325 872, 460.500 872 C 459.675 872, 459 872.675, 459 873.500 M 605.528 878.418 C 606.043 883.227, 605.796 886.099, 604.541 889.876 C 601.363 899.445, 602.073 900.652, 613 904.267 C 618.225 905.996, 627.143 909.787, 632.818 912.693 L 643.136 917.976 642.889 910.238 C 642.753 905.982, 643.164 900.925, 643.802 899 C 644.714 896.250, 644.663 894.224, 643.566 889.548 C 642.078 883.209, 640.152 881, 636.113 881 C 634.735 881, 632.008 879.902, 630.054 878.560 C 627.265 876.646, 609.744 872, 605.312 872 C 605.053 872, 605.150 874.888, 605.528 878.418 M 571.154 875.438 C 571.345 876.355, 571.950 877.082, 572.500 877.053 C 573.984 876.974, 573.712 874.737, 572.154 874.218 C 571.313 873.938, 570.939 874.395, 571.154 875.438 M 354.446 877.087 C 353.416 878.755, 355.733 880.667, 357.113 879.287 C 358.267 878.133, 357.545 876, 356 876 C 355.515 876, 354.816 876.489, 354.446 877.087 M 556.446 877.087 C 556.077 877.685, 556.166 878.566, 556.645 879.045 C 557.828 880.228, 560.431 878.507, 559.569 877.112 C 558.696 875.698, 557.311 875.687, 556.446 877.087 M 706.200 877.200 C 705.540 877.860, 705 880.136, 705 882.257 C 705 892.879, 700.986 899, 694.020 899 C 689.398 899, 687.108 896.652, 685.490 890.251 C 684.617 886.795, 683.749 885.419, 682.307 885.202 C 679.349 884.757, 678.145 886.911, 677.067 894.578 C 676.250 900.392, 675.604 901.940, 673.031 904.250 C 667.067 909.606, 659.741 906.484, 658.386 898.010 C 657.337 891.454, 655.130 889.365, 651.328 891.330 C 648.932 892.569, 648.102 893.832, 647.467 897.204 C 646.662 901.482, 646.739 919.073, 647.567 919.901 C 648.443 920.776, 667.230 915.878, 678.211 911.911 C 684.420 909.669, 693.550 906.524, 698.500 904.924 C 703.450 903.324, 709.862 900.652, 712.750 898.987 C 717.975 895.974, 718 895.936, 718 890.980 C 718 886.686, 717.728 886, 716.023 886 C 713.840 886, 711.582 882.981, 710.600 878.750 C 709.923 875.833, 708.180 875.220, 706.200 877.200 M 392.510 877.984 C 391.773 879.177, 392.709 881, 394.059 881 C 395.276 881, 395.284 878.293, 394.069 877.543 C 393.557 877.226, 392.856 877.425, 392.510 877.984 M 462.446 881.087 C 461.416 882.755, 463.733 884.667, 465.113 883.287 C 466.267 882.133, 465.545 880, 464 880 C 463.515 880, 462.816 880.489, 462.446 881.087 M 516.380 883.452 C 515.683 885.267, 516.695 887, 518.452 887 C 520.277 887, 521.096 884.496, 519.722 883.122 C 518.199 881.599, 517.048 881.712, 516.380 883.452 M 578 888.412 C 571.125 891.338, 561 895.754, 555.500 898.225 C 550 900.696, 543.845 903.256, 541.822 903.913 C 538.291 905.060, 538.166 905.256, 538.713 908.804 C 539.027 910.837, 539.450 912.693, 539.655 912.930 C 539.859 913.166, 544.858 911.195, 550.763 908.549 C 556.668 905.903, 568.353 900.759, 576.729 897.119 L 591.958 890.500 591.979 886.750 C 592.005 882.144, 593.013 882.024, 578 888.412 M 620.446 885.087 C 620.077 885.685, 620.236 886.636, 620.800 887.200 C 622.062 888.462, 624 887.396, 624 885.441 C 624 883.757, 621.426 883.501, 620.446 885.087 M 501.446 887.087 C 500.416 888.755, 502.733 890.667, 504.113 889.287 C 505.267 888.133, 504.545 886, 503 886 C 502.515 886, 501.816 886.489, 501.446 887.087 M 555.639 889.694 C 554.444 890.889, 554.994 893, 556.500 893 C 557.325 893, 558 892.352, 558 891.559 C 558 889.888, 556.573 888.761, 555.639 889.694 M 609.688 889.646 C 608.272 891.061, 609.073 893, 611.073 893 C 612.471 893, 613.041 892.457, 612.823 891.333 C 612.466 889.492, 610.759 888.574, 609.688 889.646 M 451.001 893.750 C 451.002 896.405, 451.540 896.683, 466.611 901.817 C 481.806 906.994, 482.647 907.161, 498.360 908.117 C 512.788 908.995, 527.428 910.853, 533.750 912.608 C 536.363 913.334, 536.994 909.658, 534.750 906.778 C 532.713 904.163, 518.780 901.920, 499 901.022 C 480.634 900.189, 480.401 900.149, 466.880 895.591 C 450.867 890.193, 451 890.208, 451.001 893.750 M 636.173 893.659 C 636.368 894.672, 637.196 895.500, 638.014 895.500 C 640.157 895.500, 639.848 892.594, 637.659 892.173 C 636.323 891.916, 635.916 892.323, 636.173 893.659 M 577.500 899.691 C 554.294 910.398, 544.642 914.625, 541.750 915.349 C 538.457 916.174, 538.080 919.553, 540.606 925.599 C 541.674 928.156, 542.015 930.873, 541.625 933.721 C 541.302 936.074, 541.142 937.998, 541.269 937.997 C 541.396 937.995, 544.875 936.598, 549 934.894 C 553.125 933.189, 559.425 930.749, 563 929.473 C 566.575 928.196, 574.450 924.909, 580.500 922.169 L 591.500 917.188 592.337 907.604 C 592.797 902.333, 592.797 896.943, 592.337 895.626 L 591.500 893.232 577.500 899.691 M 625.419 899.131 C 624.567 900.510, 626.524 902.412, 627.913 901.554 C 628.511 901.184, 629 900.507, 629 900.048 C 629 898.718, 626.129 897.982, 625.419 899.131 M 713.194 901.524 C 711.375 902.818, 707.550 904.636, 704.694 905.563 C 701.837 906.490, 693.735 909.459, 686.690 912.160 C 671.392 918.024, 657.091 921.994, 651.250 921.997 L 647 922 647 926.500 C 647 928.975, 647.337 930.999, 647.750 930.999 C 654.857 930.986, 671.283 926.511, 684.500 920.989 C 689.450 918.920, 698.788 915.545, 705.250 913.489 C 716.938 909.770, 717 909.734, 717.014 906.625 C 717.021 904.906, 717.299 902.487, 717.630 901.250 C 718.379 898.458, 717.419 898.517, 713.194 901.524 M 382 901.500 C 382 902.325, 382.675 903, 383.500 903 C 384.325 903, 385 902.325, 385 901.500 C 385 900.675, 384.325 900, 383.500 900 C 382.675 900, 382 900.675, 382 901.500 M 452.150 909.749 C 452.507 915.112, 452.845 920.026, 452.900 920.670 C 453.213 924.325, 519.717 938.047, 536.866 937.995 C 539.116 937.988, 539.548 929.961, 537.511 926.022 C 536.680 924.415, 536 921.511, 536 919.569 C 536 916.729, 535.560 915.936, 533.750 915.516 C 523.058 913.035, 514.881 911.933, 500.383 911.021 C 482.032 909.866, 478.401 909.134, 463.794 903.646 C 450.564 898.677, 451.383 898.247, 452.150 909.749 M 584.639 901.694 C 583.444 902.889, 583.994 905, 585.500 905 C 586.325 905, 587 904.352, 587 903.559 C 587 901.888, 585.573 900.761, 584.639 901.694 M 603.007 907.750 C 603.014 911.427, 603.126 911.537, 608.757 913.386 C 611.916 914.424, 620.350 917.944, 627.500 921.210 C 634.650 924.475, 641.063 927.387, 641.750 927.680 C 642.617 928.051, 643 927.112, 643 924.616 C 643 921.054, 642.897 920.966, 632.750 915.870 C 623.735 911.342, 605.835 904.018, 603.750 904.005 C 603.337 904.002, 603.003 905.688, 603.007 907.750 M 568.510 908.984 C 567.773 910.177, 568.709 912, 570.059 912 C 571.276 912, 571.284 909.293, 570.069 908.543 C 569.557 908.226, 568.856 908.425, 568.510 908.984 M 461.688 911.646 C 460.314 913.020, 461.026 915.142, 462.750 914.810 C 463.712 914.624, 464.500 913.841, 464.500 913.070 C 464.500 911.491, 462.736 910.598, 461.688 911.646 M 704 916.480 C 697.675 918.824, 689.350 922.182, 685.500 923.944 C 675.915 928.331, 663.586 931.773, 654.519 932.595 C 650.353 932.972, 646.736 933.617, 646.482 934.029 C 646.228 934.440, 645.965 938.530, 645.898 943.117 C 645.831 947.704, 645.364 952.542, 644.860 953.867 C 643.563 957.280, 644.094 957.441, 652.233 956.111 C 680.371 951.513, 712.652 939.471, 715.571 932.484 C 717.060 928.920, 717.627 911.908, 716.250 912.110 C 715.837 912.170, 710.325 914.137, 704 916.480 M 377.154 914.438 C 377.345 915.355, 377.950 916.082, 378.500 916.053 C 379.984 915.974, 379.712 913.737, 378.154 913.218 C 377.313 912.938, 376.939 913.395, 377.154 914.438 M 554.639 913.694 C 553.444 914.889, 553.994 917, 555.500 917 C 556.325 917, 557 916.352, 557 915.559 C 557 913.888, 555.573 912.761, 554.639 913.694 M 580.404 914.390 C 579.534 916.658, 581.069 918.193, 583.008 916.995 C 584.310 916.190, 584.282 915.854, 582.787 914.359 C 581.169 912.740, 581.036 912.742, 580.404 914.390 M 431.223 915.557 C 425.828 919.335, 430.474 926.928, 436.500 924.182 C 440.749 922.246, 438.724 914, 434 914 C 433.695 914, 432.445 914.701, 431.223 915.557 M 602.350 915.242 C 601.949 915.892, 601.557 921.530, 601.478 927.773 C 601.318 940.528, 601.498 940.827, 610.271 942.416 C 612.346 942.791, 615.556 944.427, 617.405 946.051 C 619.255 947.675, 622.283 949.265, 624.134 949.584 C 625.985 949.904, 630.137 951.300, 633.359 952.688 C 641.149 956.041, 641.644 955.452, 642.530 941.768 L 643.224 931.036 640.600 930.038 C 639.157 929.489, 632.276 926.518, 625.310 923.436 C 605.850 914.824, 603.194 913.876, 602.350 915.242 M 432.446 919.087 C 431.416 920.755, 433.733 922.667, 435.113 921.287 C 436.267 920.133, 435.545 918, 434 918 C 433.515 918, 432.816 918.489, 432.446 919.087 M 491.329 920.584 C 490.613 922.451, 492.390 924.495, 493.913 923.554 C 495.501 922.573, 495.241 920.306, 493.462 919.624 C 492.571 919.282, 491.674 919.686, 491.329 920.584 M 564.688 922.646 C 563.383 923.950, 564.006 925, 566.083 925 C 567.247 925, 567.992 924.476, 567.771 923.813 C 567.284 922.351, 565.614 921.719, 564.688 922.646 M 606.688 923.646 C 605.272 925.061, 606.073 927, 608.073 927 C 609.471 927, 610.041 926.457, 609.823 925.333 C 609.466 923.492, 607.759 922.574, 606.688 923.646 M 389.543 924.931 C 389.226 925.443, 389.425 926.144, 389.984 926.490 C 391.177 927.227, 393 926.291, 393 924.941 C 393 923.724, 390.293 923.716, 389.543 924.931 M 516 925.441 C 516 926.234, 516.359 927.104, 516.798 927.375 C 518.077 928.166, 520.323 926.332, 519.569 925.112 C 518.577 923.506, 516 923.744, 516 925.441 M 746.667 924.667 C 746.300 925.033, 746 929.043, 746 933.577 L 746 941.820 754.250 942.408 C 770.942 943.598, 820.990 945.124, 822.040 944.475 C 822.636 944.107, 823.551 942.682, 824.073 941.309 L 825.022 938.812 828.704 942.045 L 832.387 945.279 842.114 944.686 C 855.906 943.846, 864.094 940.070, 855.206 938.649 C 853.119 938.315, 849.181 936.456, 846.456 934.517 C 838.739 929.029, 835.864 928.403, 830.433 931.032 C 827.938 932.240, 825.785 933.065, 825.650 932.864 C 825.515 932.664, 824.902 931.326, 824.288 929.891 C 823.206 927.363, 822.824 927.262, 811.836 926.607 C 772.958 924.292, 747.791 923.542, 746.667 924.667 M 546 927.500 C 546 928.530, 546.655 929.020, 547.750 928.810 C 549.858 928.404, 549.725 926.629, 547.553 926.177 C 546.647 925.988, 546 926.539, 546 927.500 M 750 929.535 C 750 932.248, 750.991 932.081, 755.500 928.605 C 757.408 927.134, 757.328 927.062, 753.750 927.032 C 750.394 927.003, 750 927.267, 750 929.535 M 755.990 931.235 C 746.893 937.213, 746.841 939, 755.768 939 C 762.464 939, 762.949 938.826, 771.090 933.500 L 779.498 928 772.331 928 C 768.389 928, 764.560 927.768, 763.822 927.485 C 763.084 927.202, 759.560 928.890, 755.990 931.235 M 775.500 933.721 L 766.500 939.500 775.765 939.788 C 784.731 940.066, 785.177 939.974, 789.598 936.933 C 792.110 935.204, 796.041 932.718, 798.333 931.407 L 802.500 929.024 797 929.001 C 793.975 928.988, 789.925 928.745, 788 928.460 C 784.999 928.017, 783.217 928.766, 775.500 933.721 M 797.751 934.701 C 788.857 940.118, 789.119 940.962, 799.702 940.985 C 806.139 940.998, 807.681 940.591, 814.202 937.158 C 824.129 931.931, 823.848 930, 813.162 930 C 805.759 930, 805.181 930.176, 797.751 934.701 M 630.446 932.087 C 629.588 933.476, 631.490 935.433, 632.869 934.581 C 634.018 933.871, 633.282 931, 631.952 931 C 631.493 931, 630.816 931.489, 630.446 932.087 M 830.544 933.928 C 830.229 934.438, 830.877 935.144, 831.985 935.495 C 834.910 936.423, 834.454 937.995, 831.250 938.033 L 828.500 938.067 830.861 940.033 C 832.722 941.584, 834.627 941.979, 839.861 941.900 C 851.523 941.725, 852.134 941.079, 844.730 936.748 C 838.458 933.079, 831.878 931.771, 830.544 933.928 M 618 935.941 C 618 938.462, 619.715 939.482, 621.484 938.013 C 623.305 936.502, 622.313 934, 619.893 934 C 618.686 934, 618 934.703, 618 935.941 M 816.147 938.235 C 813.308 939.987, 813.044 940.445, 814.425 941.218 C 817.290 942.821, 820.311 941.703, 821.096 938.750 C 821.977 935.435, 820.870 935.320, 816.147 938.235 M 562.690 939.604 C 556.530 942.943, 562.026 949.465, 569.433 947.606 C 572.582 946.816, 573.009 942.223, 570.171 939.655 C 567.938 937.634, 566.343 937.623, 562.690 939.604 M 443 941.709 C 438.146 943.494, 436.314 949.027, 439.934 950.965 C 443.158 952.690, 448.802 952.198, 451 950 C 455.886 945.114, 450.087 939.104, 443 941.709 M 564.570 942.221 C 563.103 943.042, 563.020 943.398, 564.130 944.102 C 566.241 945.439, 569 945.158, 569 943.607 C 569 941.698, 566.758 940.997, 564.570 942.221 M 443.206 945.568 C 440.441 947.505, 441.196 949, 444.937 949 C 448.390 949, 450.499 946.899, 448.776 945.176 C 447.201 943.601, 445.882 943.694, 443.206 945.568 M 531.929 948.750 C 521.584 953.990, 524.895 958.980, 538.727 958.994 C 547.389 959.004, 549.781 952.277, 542.661 947.935 C 538.608 945.464, 538.384 945.481, 531.929 948.750 M 532.500 952.231 L 528.500 954.421 534.849 955.311 C 541.939 956.305, 544.321 955.328, 542.377 952.222 C 540.812 949.723, 537.076 949.727, 532.500 952.231 M 589.200 951.200 C 585.722 954.678, 590.714 961.142, 594.470 958.025 C 597.454 955.549, 595.745 950, 592 950 C 591.120 950, 589.860 950.540, 589.200 951.200 M 561.750 960.288 C 555.064 966.015, 557.315 970, 567.234 970 C 575.592 970, 577.544 965.958, 571.991 960.148 C 568.234 956.217, 566.474 956.241, 561.750 960.288 M 563.687 962.805 C 560.034 966.618, 560.240 967, 565.941 967 C 571.843 967, 572.656 966.104, 569.914 962.618 C 567.343 959.349, 566.988 959.359, 563.687 962.805" stroke="none" fill="#1a1a1a" fill-rule="evenodd"/>
</svg>