<svg xmlns="http://www.w3.org/2000/svg" width="1024" height="1024" viewBox="0 0 1024 1024" version="1.1">
	<path d="M 465.500 132.681 C 407.583 137.679, 373.867 152.485, 366.676 176.077 C 366.412 176.944, 364.014 178.473, 361.348 179.476 C 303.835 201.092, 264.129 249.072, 247.018 317.631 L 245.987 321.762 242.019 320.394 C 239.836 319.642, 234.176 318.587, 229.441 318.049 C 197.356 314.403, 170.430 332.982, 161.829 364.700 C 158.505 376.958, 158.738 399.060, 162.333 412.500 C 171.903 448.278, 198.172 476.037, 233.746 487.965 L 242.500 490.900 248.584 498.973 L 254.669 507.046 247.335 521.773 C 192.058 632.781, 216.131 668.265, 346.617 668.116 L 375.735 668.083 370.732 680.791 C 364.955 695.468, 355.355 723.593, 354.417 728.590 C 353.663 732.609, 354.331 732.514, 344.500 730 C 325.993 725.267, 309.904 729.328, 296.963 742 C 278.322 760.254, 274.316 793.993, 287.490 821.799 C 296.889 841.639, 316.975 862.743, 336.274 873.057 C 339.449 874.754, 344.228 878.323, 346.893 880.988 C 364.549 898.644, 396.096 895.863, 404.395 875.919 L 405.885 872.339 419.131 869.548 L 432.377 866.757 451.938 867.875 C 488.259 869.950, 533.699 870.382, 558.500 868.887 C 588.607 867.072, 593.626 867.186, 605.302 869.950 L 615.103 872.270 617.458 876.885 C 627.095 895.769, 656.380 897.803, 674.091 880.818 C 677.066 877.965, 681.945 874.345, 684.933 872.773 C 705.560 861.920, 727.145 838.630, 735.747 817.946 C 747.401 789.923, 742.325 757.345, 723.653 740.327 C 711.434 729.190, 695.118 725.447, 676.877 729.596 C 673.017 730.474, 669.738 731.037, 669.589 730.846 C 669.441 730.656, 667.452 723.973, 665.170 715.995 C 662.887 708.018, 658.540 694.083, 655.510 685.029 C 652.479 675.976, 650 668.328, 649.999 668.034 C 649.999 667.740, 659.561 667.641, 671.249 667.814 C 751.465 668.997, 794.733 653.046, 801.004 619.980 C 805.333 597.152, 794.196 558.582, 770.918 515.781 C 767.113 508.785, 764 502.743, 764 502.354 C 764 501.965, 765.613 499.304, 767.585 496.441 C 770.936 491.576, 771.509 491.191, 776.335 490.559 C 779.176 490.187, 785.420 488.573, 790.211 486.973 C 850.993 466.676, 882.628 399.677, 856.539 346.500 C 841.748 316.351, 812.756 303.593, 777.188 311.582 C 773.716 312.362, 770.458 313, 769.947 313 C 769.436 313, 766.816 308.613, 764.125 303.250 C 729.611 234.478, 699.717 197.291, 658.988 172.462 C 625.593 152.104, 576.580 137.350, 528 133.030 C 517.489 132.095, 475.037 131.858, 465.500 132.681 M 458.017 142.564 C 410.182 147.298, 371.168 165.521, 377.334 180.250 C 380.441 187.674, 393.436 195.729, 409.500 200.190 C 416.816 202.221, 419.766 202.415, 444 202.456 C 476.815 202.511, 479.292 201.773, 462.332 196.998 C 450.955 193.795, 436.498 188.169, 437.379 187.288 C 438.095 186.572, 460.210 190.821, 467.564 193.088 C 476.314 195.784, 482.242 198.774, 481.752 200.243 C 480.200 204.901, 470.215 207.609, 449.310 209.044 C 417.039 211.259, 392.173 205.019, 377.882 191.122 L 372.062 185.462 365.688 187.612 C 349.822 192.965, 327.529 206.182, 312.136 219.364 C 287.133 240.775, 267.046 276.641, 255.940 319.705 L 253.566 328.909 255.924 331.419 C 258.256 333.901, 258.269 334.045, 257.144 344.215 C 255.241 361.402, 254.691 374.128, 255.454 383.285 L 256.180 392 259.513 392 C 261.610 392, 263.949 392.927, 265.818 394.500 C 267.452 395.875, 269.624 397.002, 270.644 397.004 C 273.203 397.009, 278.643 400.465, 279.957 402.920 C 282.421 407.524, 282.949 414.722, 281.480 423.687 C 279.601 435.149, 279.624 443.164, 281.551 447.782 C 283.249 451.855, 288.860 458.205, 290.088 457.445 C 291.836 456.366, 292.023 445.656, 290.525 432.500 C 283.376 369.734, 289.423 319.692, 307.585 291.299 C 311.924 284.517, 311.597 284, 305.775 288.446 C 299.845 292.974, 292.605 302.634, 288.123 312 C 284.175 320.249, 282.773 319.441, 285.849 310.690 C 289.916 299.118, 299.446 288.402, 309.768 283.795 C 312.115 282.748, 316.078 279.906, 318.573 277.481 C 329.884 266.488, 345.858 263.264, 358.500 269.423 C 363.300 271.762, 367.901 275.804, 381.500 289.631 C 402.382 310.861, 409.148 314.604, 416.371 308.922 C 421.345 305.010, 421.462 303.647, 417.503 295.734 C 415.522 291.773, 414.325 288.392, 414.844 288.219 C 415.363 288.046, 420.448 292.551, 426.144 298.230 C 440.295 312.339, 453.146 318.953, 469 320.286 C 472.025 320.541, 473.775 320.559, 472.889 320.328 C 470.961 319.824, 469 315.854, 469 312.453 C 469 309.182, 469.387 309.315, 473.677 314.065 C 480.410 321.516, 484.092 322.006, 498.500 317.364 C 512.083 312.989, 527.059 301.685, 531.935 292.127 C 534.183 287.720, 539.687 281, 541.049 281 C 541.511 281, 540.790 283.488, 539.445 286.529 C 531.677 304.092, 543.429 312.404, 562.726 302.996 C 568.455 300.202, 572.303 296.879, 587.674 281.447 C 602.538 266.523, 607 262.638, 612.174 260.111 C 640.180 246.434, 675.485 264.729, 691.085 301 C 702.973 328.641, 707.988 365.053, 707.996 423.782 C 707.999 448.013, 708.291 454.760, 709.455 457.546 C 712.111 463.903, 716.161 463.447, 724.467 455.856 C 734.038 447.109, 735.075 442.933, 732.021 425.450 C 729.879 413.187, 730.014 407.890, 732.598 402.838 C 734.292 399.528, 738.672 396, 741.089 396 C 742.090 396, 743.968 394.941, 745.261 393.648 C 746.555 392.354, 748.190 391.103, 748.895 390.868 C 751.169 390.110, 747.088 355.658, 742.835 339.705 C 740.917 332.511, 740.964 328.706, 742.932 331.890 C 743.557 332.902, 745.113 332.116, 749.398 328.626 C 752.501 326.099, 756.494 323.291, 758.270 322.388 C 760.047 321.485, 761.647 320.618, 761.828 320.462 C 762.326 320.030, 748.131 292.433, 738.526 275.160 C 697.644 201.639, 654.241 168.414, 574.299 149.440 C 541.933 141.759, 494.500 138.954, 458.017 142.564 M 493.031 203.462 C 491.072 205.823, 482.386 208.563, 469 211.042 C 462.125 212.315, 456.072 213.727, 455.550 214.179 C 453.107 216.290, 473.944 214.134, 482.189 211.422 C 486.102 210.135, 496.868 202.171, 494.872 202.041 C 494.527 202.018, 493.699 202.658, 493.031 203.462 M 625.800 262.156 C 615.582 263.518, 610.929 266.743, 593.500 284.549 C 584.700 293.539, 574.870 302.695, 571.656 304.897 C 556.223 315.467, 538.492 315.510, 533.834 304.988 C 532.188 301.270, 531.716 301.270, 528.799 304.997 C 518.913 317.630, 498.001 326.012, 476.436 325.985 C 457.691 325.962, 446.029 322.240, 432.415 311.936 L 425.909 307.011 422.205 310.902 C 418.039 315.277, 411.716 317.529, 406.666 316.438 C 397.866 314.536, 392.013 309.752, 369.209 285.825 C 352.191 267.968, 337.566 267.228, 321.418 283.405 C 298.161 306.706, 288.878 356.774, 295.537 423 C 297.260 440.132, 297.400 453.018, 295.922 458.342 C 294.872 462.124, 294.923 462.241, 299.178 465.801 C 318.348 481.841, 322.637 498.746, 312.409 517.959 C 308.082 526.087, 308.889 530.978, 315.750 538.205 C 351.683 576.055, 392.117 597.221, 451 609.004 C 524.976 623.809, 616.190 604.056, 670.500 561.472 C 682.698 551.907, 702.677 531.202, 707.373 523.260 C 707.787 522.559, 706.234 518.240, 703.803 513.335 C 699.635 504.924, 699.500 504.350, 699.503 495.075 C 699.506 484.309, 700.926 480.457, 708.053 471.886 L 711.890 467.271 709.387 466.130 C 707.917 465.461, 705.993 463.030, 704.727 460.245 C 702.681 455.742, 702.537 453.515, 701.887 416.500 C 700.877 358.901, 697.476 334.273, 686.562 305.512 C 675.682 276.841, 650.491 258.866, 625.800 262.156 M 675 270.923 C 675 271.382, 676.462 272.362, 678.250 273.101 C 683.015 275.070, 697.445 289.318, 703.721 298.250 C 709.602 306.619, 710.524 307.509, 708.905 303.250 C 705.397 294.019, 695.579 281.559, 687.359 275.903 C 682.648 272.662, 675 269.580, 675 270.923 M 627 308.531 C 627 308.861, 627.527 310.114, 628.172 311.316 C 628.816 312.517, 629.664 317.359, 630.056 322.076 C 631.138 335.101, 634.807 340.060, 644.416 341.487 C 653.895 342.893, 658.375 344.390, 661.608 347.229 C 665.442 350.595, 665.897 349.984, 663.044 345.304 C 660.480 341.100, 657.346 339.150, 650.301 337.376 C 638.167 334.322, 636.850 333.008, 635.112 322.217 C 633.982 315.196, 631.809 310.503, 628.990 308.994 C 627.895 308.409, 627 308.200, 627 308.531 M 643.439 312.472 C 641.390 323.397, 646.948 329.682, 660.250 331.480 C 666.551 332.332, 666.324 330.790, 659.750 328.090 C 656.862 326.904, 653.825 325.569, 653 325.123 C 650.462 323.752, 647.001 317.859, 646.353 313.807 C 645.536 308.699, 644.257 308.113, 643.439 312.472 M 351.807 312.750 C 349.094 315.910, 348.681 317.249, 347.984 325.177 C 347.182 334.302, 345.917 336.200, 339.132 338.461 C 329.782 341.577, 324.007 347.128, 324.007 353 C 324.007 355.397, 324.091 355.364, 326.030 352.183 C 328.018 348.922, 330.941 347.281, 343.476 342.393 C 351.221 339.373, 353.038 335.908, 352.802 324.608 C 352.684 318.940, 353.076 314.650, 353.841 313.250 C 355.297 310.585, 353.951 310.254, 351.807 312.750 M 336.679 315 C 336.357 316.925, 335.841 320.116, 335.532 322.090 C 334.898 326.138, 332.375 328.834, 326.433 331.814 C 322.455 333.809, 319.302 336.636, 320.131 337.465 C 320.625 337.958, 330.921 334.648, 333.975 333.013 C 339.260 330.185, 341.514 321.137, 338.586 314.500 L 337.263 311.500 336.679 315 M 780.795 319.976 C 770.816 322.081, 763.663 325.117, 755.291 330.802 C 746.846 336.537, 746.920 336.377, 748.984 344.500 C 750.899 352.039, 753.501 369.739, 754.532 382.250 C 754.995 387.866, 755.551 390, 756.551 390 C 757.311 390, 759.410 390.705, 761.217 391.566 L 764.501 393.133 773.501 384.467 C 787.103 371.369, 802.178 361.955, 812.088 360.370 C 817.652 359.480, 817.089 360.117, 807.250 365.848 C 797.016 371.809, 789.384 377.448, 781.666 384.752 C 774.179 391.837, 774.196 391.431, 781.249 394.769 C 787.131 397.552, 794.014 403.326, 796.128 407.250 C 797.446 409.698, 796.805 409.490, 790.392 405.388 C 782.858 400.569, 772.306 395.693, 771.068 396.458 C 770.497 396.811, 771.514 398.966, 773.440 401.490 C 788.485 421.200, 790.554 452.213, 778.420 476.157 C 777.015 478.930, 776.013 481.346, 776.193 481.526 C 776.373 481.706, 781.017 480.394, 786.514 478.610 C 843.237 460.206, 872.468 398.361, 847.775 349 C 835.406 324.274, 810.859 313.637, 780.795 319.976 M 212.341 327.038 C 184.648 331.973, 168.651 354.325, 168.712 388 C 168.782 427.052, 194.076 463.202, 231.580 477.852 L 236.660 479.837 233.354 471.668 C 223.881 448.263, 225.263 424.280, 237.144 405.898 C 239.241 402.654, 240.618 400, 240.204 400 C 239.070 400, 224.624 408.364, 221.461 410.852 C 217.641 413.857, 217.183 412.760, 220.464 408.459 C 223.440 404.557, 229.592 399.712, 234.750 397.207 C 236.537 396.340, 238 395.315, 238 394.931 C 238 393.370, 219.611 379.126, 211.349 374.288 C 206.482 371.438, 201.600 368.380, 200.500 367.493 C 198.580 365.944, 198.633 365.901, 201.822 366.429 C 212.332 368.168, 225.295 375.724, 237.465 387.202 C 246.164 395.406, 246.812 395.820, 248.780 394.441 C 250.780 393.041, 250.844 392.375, 250.303 378.739 C 249.802 366.107, 250.425 355.506, 252.583 339.967 L 253.212 335.434 247.856 332.781 C 237.015 327.411, 222.984 325.142, 212.341 327.038 M 355 347.653 C 353.625 348.378, 350.798 348.977, 348.718 348.985 C 341.406 349.014, 335.769 352.780, 334.479 358.500 L 333.803 361.500 336.151 358.844 C 339.065 355.549, 341.295 354.458, 346.855 353.608 C 352.184 352.794, 356.540 350.640, 357.402 348.394 C 358.253 346.178, 357.966 346.090, 355 347.653 M 629.307 348.492 C 630.009 350.760, 636.645 352.997, 642.673 352.998 C 647.876 353, 649.337 353.413, 651.966 355.624 C 653.681 357.068, 655.274 358.060, 655.505 357.828 C 656.560 356.774, 651.626 350.743, 648.728 349.545 C 644.756 347.903, 628.858 347.041, 629.307 348.492 M 615 373.504 C 601.198 376.299, 584.257 383.948, 553.500 401.273 C 535.242 411.557, 526.270 415.998, 523.750 415.999 C 519.958 416.001, 518 412.406, 518 405.441 C 518 398.033, 517.312 397.905, 513.396 404.588 C 508.379 413.147, 510.716 423.971, 518.259 427.116 C 527.529 430.980, 536.360 427.125, 582 399.289 C 599.324 388.723, 618.888 378.498, 627.750 375.379 C 630.638 374.362, 633 373.186, 633 372.765 C 633 371.591, 622.272 372.032, 615 373.504 M 343.256 379.746 C 342.430 380.320, 344.411 381.383, 349.163 382.913 C 358.613 385.957, 371.578 392.855, 393.500 406.504 C 433.191 431.217, 442.446 435.214, 449.407 430.653 C 456.467 426.027, 458.055 416.632, 453.098 408.815 C 448.903 402.201, 447.978 402.016, 448.679 407.934 C 449.451 414.456, 447.675 419, 444.354 419 C 441.545 419, 431.993 414.294, 420 407.001 C 406.322 398.684, 383.346 387.690, 371.235 383.667 C 359.882 379.896, 345.867 377.932, 343.256 379.746 M 751.250 396.662 C 749.397 397.410, 749.663 398.299, 753.405 403.859 C 761.474 415.849, 764.930 437.610, 760.853 450.750 C 759.151 456.235, 758.506 454.420, 758.361 443.742 C 758.095 424.125, 749.892 402, 742.885 402 C 737.312 402, 735.644 411.228, 738.618 425.608 C 740.755 435.945, 740.124 446.427, 737.048 451.652 C 735.803 453.769, 729.545 460.496, 723.142 466.602 C 708.641 480.430, 706.487 484.178, 706.531 495.500 C 706.560 502.743, 706.916 504.186, 710.294 510.750 C 712.346 514.737, 714.197 518, 714.408 518 C 714.618 518, 717.875 516.699, 721.645 515.109 C 725.415 513.519, 734.350 510.124, 741.500 507.564 L 754.500 502.911 761.306 492.705 C 782.733 460.575, 785.748 434.277, 770.966 408.440 C 767.360 402.139, 766.252 401.344, 768.607 406.750 C 775.623 422.854, 777.480 442.004, 773.116 453.250 C 771.309 457.908, 770.868 456.348, 771.560 447.750 C 772.909 431.001, 764.684 403.094, 756.762 397.546 C 754.494 395.958, 753.422 395.786, 751.250 396.662 M 254.232 400.253 C 251.029 403.663, 247.212 412.733, 244.378 423.673 C 242.114 432.407, 241.885 434.885, 242.319 445.953 C 242.830 459.015, 242.123 459.896, 239.385 449.612 C 236.733 439.653, 238.345 422.810, 243.106 410.732 C 246.086 403.171, 244.721 404.015, 240.701 412.218 C 235.672 422.481, 233.686 430.824, 233.609 442 C 233.528 453.894, 234.969 459.880, 240.951 472.500 C 245.053 481.154, 248.759 486.712, 260.892 502.406 C 262.891 504.992, 265.152 506.055, 274.667 508.880 C 280.927 510.738, 290.186 513.757, 295.242 515.588 C 302.088 518.066, 304.633 518.608, 305.212 517.708 C 307.854 513.608, 310.296 504.790, 310.392 499 C 310.583 487.476, 306.614 481.220, 290.444 467.560 C 274.024 453.688, 271.305 446.936, 274.419 427.761 C 275.288 422.404, 275.998 416.104, 275.996 413.761 C 275.992 408.669, 272.879 403, 270.088 403 C 262.844 403, 254.351 428.298, 255.147 447.500 C 255.522 456.537, 254.922 458.026, 253.031 452.750 C 248.643 440.510, 252.113 416.032, 259.863 404.548 C 261.997 401.387, 262.498 399.898, 261.699 399.099 C 259.911 397.311, 256.501 397.838, 254.232 400.253 M 474.517 410.634 C 473.803 419.210, 473.846 419.470, 476.316 421.596 C 479.605 424.424, 478.011 427.067, 471.522 429.545 C 465.812 431.725, 466.648 433.507, 472.880 432.440 C 475.421 432.004, 481.550 431.714, 486.500 431.794 C 494.699 431.927, 495.278 431.815, 493 430.539 C 491.625 429.768, 488.363 428.840, 485.750 428.475 C 480.704 427.771, 480.093 427.050, 482.500 424.643 C 484.685 422.458, 484.366 421.329, 481 419.341 C 479.350 418.366, 477.985 417.328, 477.968 417.034 C 477.950 416.740, 477.805 413.678, 477.646 410.229 C 477.183 400.165, 475.370 400.400, 474.517 410.634 M 495.161 404.547 C 490.860 413.985, 498.283 425.267, 506.978 422.507 C 509.967 421.558, 509.468 420.591, 504.966 418.605 C 499.701 416.282, 497.505 412.809, 497.502 406.800 C 497.500 401.417, 496.865 400.806, 495.161 404.547 M 620.500 411.989 C 594.347 414.939, 547.630 434.370, 534.058 447.942 C 526.293 455.707, 544.084 465.856, 570.150 468.530 C 583.548 469.904, 580.801 467.606, 564.255 463.599 C 555.590 461.500, 547.916 459.464, 547.202 459.075 C 544.061 457.362, 574.671 455.500, 605.985 455.500 C 636.281 455.500, 638.493 455.381, 638.813 453.728 C 639.869 448.263, 616.486 443.655, 587.250 443.567 C 575.013 443.530, 565 443.430, 565 443.345 C 565 441.736, 606.044 426.542, 629.143 419.600 C 645.023 414.827, 639.382 409.859, 620.500 411.989 M 461.529 417.545 C 460.181 421.513, 459.960 423.360, 460.743 424.143 C 463.046 426.446, 466.210 416.453, 464.186 413.267 C 463.688 412.483, 462.720 414.041, 461.529 417.545 M 341.250 415.662 C 338.815 416.645, 340.050 419.123, 343.742 420.666 C 345.801 421.526, 353.435 423.986, 360.708 426.133 C 374.058 430.075, 396.325 438.579, 405.454 443.223 L 410.409 445.743 389.454 446.288 C 367.525 446.859, 356.249 448.585, 346.615 452.846 C 335.225 457.884, 338.785 458.498, 379.500 458.515 C 399.300 458.524, 418.365 458.931, 421.867 459.420 L 428.234 460.309 422.266 462.553 C 418.983 463.787, 411.956 466.029, 406.649 467.535 C 395.569 470.679, 394.086 472.395, 403.250 471.466 C 421.910 469.575, 441 460.525, 441 453.569 C 441 447.327, 411.045 429.790, 386.500 421.662 C 369.956 416.183, 347.378 413.190, 341.250 415.662 M 536.529 433.080 C 531.839 437.403, 529.007 443.407, 530.807 445.207 C 531.504 445.904, 532.339 445.244, 533.430 443.135 C 534.310 441.433, 537.054 437.556, 539.527 434.520 C 544.946 427.867, 543.130 426.995, 536.529 433.080 M 429.743 432.250 C 430.286 432.938, 432.848 436.313, 435.437 439.750 C 441.473 447.766, 443.776 448.187, 440.649 440.702 C 439.109 437.017, 432.718 431, 430.343 431 C 429.213 431, 429.040 431.360, 429.743 432.250 M 651.614 455.816 C 650.775 457.173, 651.299 457.444, 658.777 459.529 C 665.784 461.482, 667.422 460.977, 664.278 457.833 C 661.926 455.482, 652.726 454.016, 651.614 455.816 M 322 461.709 C 319.988 462.449, 317 465.106, 317 466.155 C 317 467.554, 320.242 467.073, 324.820 464.996 C 330.626 462.361, 328.132 459.455, 322 461.709 M 469.500 463.872 C 450.013 468.674, 441.036 481.236, 450.400 490.600 C 454.629 494.829, 456.839 495.054, 453.803 490.947 C 444.810 478.784, 460.374 467.492, 486 467.587 C 508.214 467.670, 520.774 477.285, 514.243 489.208 C 512.343 492.677, 512.325 492.896, 514.013 491.993 C 520.761 488.382, 522.186 478.559, 516.845 472.476 C 508.691 463.189, 487.729 459.380, 469.500 463.872 M 641.187 465.095 C 641.613 466.406, 656.859 472.474, 657.676 471.658 C 658.623 470.710, 656.473 467.779, 653.825 466.410 C 649.534 464.190, 640.590 463.260, 641.187 465.095 M 327.370 472.440 C 323.930 473.938, 322.572 475.498, 323.459 476.933 C 324.269 478.245, 332.402 475.318, 334.554 472.940 C 336.254 471.062, 336.217 471.001, 333.405 471.039 C 331.807 471.061, 329.092 471.691, 327.370 472.440 M 460.750 482.080 C 459.615 482.741, 459 484.320, 459 486.574 C 459 490.479, 462.136 492.506, 466.489 491.414 C 468.283 490.963, 469.238 491.433, 470.528 493.403 C 474.181 498.978, 489.075 498.947, 493.534 493.355 C 495.257 491.195, 496.512 490.703, 500.540 490.612 C 506.521 490.476, 508.939 486.800, 505.527 483.030 C 501.756 478.862, 492.952 482.647, 489.898 489.750 C 488.077 493.987, 488.055 494, 482.786 493.985 C 476.532 493.967, 475.511 493.432, 473.114 488.919 C 470.053 483.159, 464.332 479.994, 460.750 482.080 M 750 510.357 C 746.975 511.605, 738.052 514.847, 730.171 517.563 L 715.842 522.500 716.359 525.500 C 716.643 527.150, 717.902 534.125, 719.157 541 C 722.036 556.769, 722.566 590.723, 720 595 L 718.500 597.500 718.190 593.750 L 717.879 590 706.690 590.013 C 700.535 590.020, 683.931 589.267, 669.792 588.340 L 644.084 586.653 631.292 592.742 C 580.877 616.738, 511.639 626.734, 458.901 617.631 C 428.221 612.336, 399.449 603.377, 377.500 592.286 L 368.500 587.739 340.500 589.381 C 325.100 590.285, 310.137 591.019, 307.250 591.012 C 302.081 591, 302 591.046, 302 594 C 302 598.521, 300.389 597.603, 299.060 592.323 C 296.731 583.074, 298.019 553.695, 301.574 535 C 303.935 522.582, 305.507 524.165, 284.250 517.557 C 273.938 514.351, 264.696 511.677, 263.712 511.614 C 260.096 511.383, 238.668 559.856, 232.781 581.586 C 228.431 597.640, 228.008 618.201, 231.852 626.702 C 238.705 641.855, 259.548 651.692, 295 656.505 C 309.489 658.473, 354.499 659.646, 372.446 658.525 L 384.203 657.790 387.264 651.145 C 390.818 643.431, 390.797 643.464, 391.652 644.319 C 392.801 645.468, 388.939 657.850, 379.370 683.693 C 370.321 708.130, 363.889 727.743, 362.507 735.113 C 361.848 738.622, 361.980 738.811, 368.166 743.266 C 374.171 747.590, 387.214 760, 385.753 760 C 385.377 760, 381.341 757.579, 376.784 754.620 C 339.126 730.167, 309.925 731.682, 295.660 758.828 C 279.719 789.163, 292.773 829.208, 327.278 855.829 C 333.625 860.725, 334.550 860.970, 332.639 857.250 C 326.500 845.293, 323.188 821.025, 325.908 807.935 C 329.455 790.871, 338.171 781.904, 355.352 777.643 C 356.667 777.317, 344.694 769.212, 338.778 766.424 L 333.500 763.936 339.113 764.382 C 346.617 764.977, 354.181 768.923, 361.136 775.870 C 364.235 778.967, 368.670 783.028, 370.991 784.894 C 375.734 788.711, 381.174 796.679, 384.282 804.360 C 385.425 807.187, 386.475 809.658, 386.614 809.850 C 386.753 810.043, 388.467 808.599, 390.424 806.643 C 400.198 796.869, 412.674 801.207, 414.946 815.170 C 416.388 824.027, 414.285 831.830, 407.407 843.154 C 403.903 848.921, 403.824 849.271, 404.504 856.041 C 404.888 859.868, 405.495 862.988, 405.851 862.972 C 406.208 862.957, 412.593 861.706, 420.040 860.192 C 431.992 857.762, 434.806 857.523, 444.040 858.157 C 487.943 861.171, 535.919 861.434, 575 858.876 C 592.104 857.756, 592.763 857.787, 604.134 860.231 L 615.768 862.732 616.450 855.807 C 617.096 849.252, 616.972 848.632, 614.124 844.191 C 603.055 826.933, 602.317 809.046, 612.420 802.886 C 618.093 799.426, 628.935 802.273, 632.017 808.031 C 633.232 810.302, 635 810.648, 635 808.616 C 635 803.481, 645.214 788, 652.063 782.755 C 653.953 781.307, 657.986 777.710, 661.023 774.760 C 667.846 768.137, 674.627 764.742, 681.946 764.286 L 687.500 763.940 682.902 765.816 C 678.046 767.797, 667.948 774.153, 666.078 776.405 C 665.196 777.469, 665.803 777.873, 669.077 778.396 C 680.768 780.266, 690.646 790.865, 694.505 805.680 C 697.673 817.843, 695.558 840.654, 690.086 853.333 C 688.939 855.991, 688 858.609, 688 859.151 C 688 862.581, 711.925 839.641, 718.958 829.467 C 741.309 797.134, 736.072 753.897, 708.210 740.743 C 691.759 732.977, 670.336 737.574, 644.502 754.413 C 639.826 757.461, 636 759.518, 636 758.983 C 636 757.235, 648.353 745.905, 654.826 741.717 C 660.926 737.769, 661.130 737.504, 660.524 734.277 C 659.537 729.016, 650.601 699.667, 642.382 674.692 C 634.966 652.159, 633.234 643.686, 637.980 653.165 L 640.315 657.829 650.908 658.556 C 665.287 659.543, 704.533 658.417, 720.690 656.554 C 761.421 651.858, 784.665 641.018, 790.603 623.950 C 795.514 609.833, 792.116 586.789, 780.983 558.697 C 774.513 542.373, 758.154 508.714, 756.500 508.325 C 755.950 508.195, 753.025 509.110, 750 510.357 M 515.500 516.455 C 505.395 519.100, 493.259 524.009, 479.662 530.952 C 454.888 543.601, 437 553.366, 437 554.242 C 437 554.776, 437.788 554.910, 438.750 554.539 C 449.258 550.485, 455.852 549.500, 472.500 549.500 C 492.380 549.500, 496.218 550.225, 524 559.233 C 546.329 566.473, 553.469 567.404, 560.516 563.992 C 571.734 558.561, 574.027 543.145, 565.522 530.335 C 555.811 515.710, 537.623 510.663, 515.500 516.455 M 518.313 522.504 C 510.681 524.163, 498.393 529.035, 482 536.901 L 469.500 542.899 475.757 542.950 C 489.703 543.062, 508.579 546.934, 529.407 553.955 C 545.217 559.285, 551.583 560.411, 556.613 558.769 C 561.159 557.285, 563.996 552.668, 563.998 546.750 C 564 542.524, 563.133 542.090, 560.500 545 C 557.801 547.982, 555.215 547.453, 550.286 542.909 L 545.847 538.818 543.403 542.159 C 538.157 549.331, 534.846 549.743, 528.616 544 C 523.570 539.349, 523.369 539.305, 520.318 542.171 C 517.285 545.020, 516.082 543.706, 518.617 540.311 C 522.328 535.340, 523.379 535.240, 529.264 539.293 C 535.656 543.695, 536.265 543.771, 538.452 540.433 C 543.287 533.053, 545.868 532.483, 551.729 537.500 C 556.442 541.534, 556.685 541.582, 559.907 539.105 L 562.313 537.255 559.408 533.213 C 551.577 522.319, 536.836 518.478, 518.313 522.504 M 701.982 544.329 C 692.835 554.351, 680.703 565.402, 670.638 572.881 C 661.534 579.647, 661.022 579.329, 683.500 580.868 C 692.850 581.509, 703.602 582.302, 707.393 582.632 L 714.286 583.232 713.579 571.366 C 712.955 560.890, 710.298 536.964, 709.691 536.357 C 709.566 536.233, 706.097 539.820, 701.982 544.329 M 308.644 547.854 C 307.637 552.709, 305.694 582.028, 306.338 582.671 C 306.974 583.307, 340.702 581.358, 346.710 580.338 L 349.921 579.792 342.210 574.264 C 332.935 567.613, 317.706 554.630, 312.769 549.166 L 309.193 545.208 308.644 547.854 M 467 565.229 C 467 568.469, 469.554 569.068, 482.141 568.782 L 494.500 568.500 489 566.706 C 481.117 564.134, 467 563.187, 467 565.229 M 575.764 567.451 C 570.829 574.240, 554.707 577.801, 543.568 574.563 C 536.837 572.606, 535.841 572.943, 539.605 575.904 C 550.921 584.805, 573.265 580.049, 577.912 567.750 C 579.185 564.380, 578.105 564.230, 575.764 567.451 M 438.647 657.908 C 414.234 691.071, 403.653 754.761, 416.098 793.639 C 427.099 828.009, 458.314 844.988, 510.500 844.988 C 561.206 844.988, 592.113 828.733, 604.158 795.730 C 618.274 757.050, 607.846 693.862, 581.220 656.750 C 579.346 654.138, 577.655 652, 577.463 652 C 577.271 652, 579.756 657.513, 582.986 664.250 C 610.946 722.580, 612.549 786.376, 586.762 814.519 C 571.223 831.476, 550.674 838.726, 515.500 839.659 C 446.418 841.491, 416.008 815.309, 416.008 754 C 416.008 724.944, 426.786 682.990, 440.606 658.250 C 444.991 650.401, 444.266 650.274, 438.647 657.908 M 346.344 788.510 C 341.708 791.289, 336.615 798.279, 334.737 804.441 C 332.313 812.395, 333.247 834.273, 336.427 844 C 340.118 855.294, 346.252 866.952, 351.678 872.987 C 363.225 885.830, 382.727 887.406, 393.186 876.342 C 397.162 872.136, 398 868.929, 398 857.914 L 398 847.958 403.250 837.897 C 408.290 828.240, 408.500 827.521, 408.500 819.946 C 408.500 800.924, 394.450 804.377, 386.822 825.274 C 385.663 828.450, 384.560 830.893, 384.370 830.704 C 384.181 830.514, 382.942 826.085, 381.616 820.860 C 374.643 793.370, 360.253 780.173, 346.344 788.510 M 657.475 788.432 C 649.919 792.962, 643.623 804.267, 639.377 820.930 C 638.055 826.116, 636.819 830.514, 636.630 830.704 C 636.440 830.893, 635.337 828.450, 634.179 825.274 C 627.688 807.485, 616.210 801.357, 612.192 813.536 C 610.132 819.781, 611.565 826.176, 617.628 837.790 L 623.001 848.080 622.842 857.290 C 622.671 867.200, 624.107 872.343, 628.298 876.831 C 635.492 884.536, 650.828 885.393, 662.205 878.726 C 685.124 865.294, 696.130 813.903, 680.481 793.386 C 674.919 786.095, 664.954 783.948, 657.475 788.432" stroke="none" fill="#1a1a1a" fill-rule="evenodd"/>
</svg>