<svg xmlns="http://www.w3.org/2000/svg" width="1024" height="1024" viewBox="0 0 1024 1024" version="1.1">
	<path d="M 484.105 85.373 C 482.559 87.236, 483.409 89.200, 489.677 98.250 C 492.629 102.513, 494.697 105.992, 494.273 105.983 C 493.848 105.973, 490.125 105.075, 486 103.987 C 469.028 99.510, 450.114 100.596, 438.720 106.702 C 434.565 108.929, 433.500 110.010, 433.500 112 C 433.500 114.249, 434.394 114.809, 442.389 117.574 L 451.278 120.648 441.389 123.446 C 382.636 140.072, 336.433 176.820, 313.551 225.124 C 308.217 236.384, 301.594 255.835, 299.875 265.288 C 299.131 269.380, 298.215 271.885, 297.570 271.594 C 277.670 262.641, 264.071 262.097, 248.976 269.648 C 204.586 291.856, 209.006 373.087, 256.354 405.240 C 269.194 413.960, 289 421, 300.690 421 C 305.745 421, 306 421.125, 306 423.606 C 306 436.132, 315.865 453.926, 330.624 468.021 C 354.212 490.548, 386.969 505.454, 436.213 516.070 L 441.925 517.302 436.932 522.765 C 421.563 539.581, 400.763 575.758, 390.108 604.203 C 383.608 621.560, 378.461 641.215, 379.794 643.596 C 380.408 644.693, 380.402 646.583, 379.777 648.846 C 379.240 650.791, 378.977 657.583, 379.193 663.941 C 379.628 676.774, 382.197 684, 387.635 687.695 C 389.096 688.688, 392.218 691.396, 394.572 693.712 C 396.926 696.029, 399.898 698.139, 401.176 698.402 C 402.454 698.664, 404.850 699.167, 406.500 699.520 C 415.322 701.405, 416.800 701.291, 419.581 698.510 C 422.133 695.958, 422.238 695.472, 421.636 688.994 C 421.287 685.240, 420.708 681.403, 420.349 680.468 C 419.791 679.012, 419.997 678.928, 421.783 679.884 C 422.930 680.498, 425.140 681, 426.694 681 C 431.632 681, 432.267 683.442, 430.932 697.286 C 428.879 718.566, 431.010 731.089, 439.590 748.176 L 443.946 756.853 434.573 759.976 C 419.047 765.148, 409.026 772.454, 409.007 778.615 C 408.992 783.204, 417.893 790.643, 424.152 791.274 C 426.161 791.476, 429.073 792.473, 430.624 793.489 C 437.050 797.700, 445.963 796.442, 463.856 788.797 C 473.788 784.554, 476.317 784.190, 487.500 785.395 C 493.732 786.067, 494.993 785.895, 498.999 783.825 C 506.502 779.948, 506.869 775.010, 500.283 766.558 L 496.500 761.703 496.505 747.602 C 496.510 733.759, 497.816 727.242, 501.755 721.393 C 502.278 720.616, 508.704 720.433, 523.305 720.780 L 544.109 721.273 546.961 726.922 C 551.371 735.659, 554.245 746.332, 554.380 754.478 L 554.500 761.742 549.866 766.704 C 539.870 777.408, 544.505 786.713, 559.468 785.983 C 573.819 785.283, 573.996 785.316, 586 790.926 C 595.349 795.296, 598.772 796.393, 604.303 796.789 C 610.943 797.265, 611.099 797.339, 610.803 799.886 C 610.584 801.771, 609.479 802.975, 606.826 804.220 C 601.525 806.708, 601.015 808.410, 602.394 819 L 603.110 824.500 599.305 820.374 C 597.212 818.105, 594.291 814.196, 592.814 811.689 C 588.629 804.586, 585.937 803.250, 581.312 805.978 C 576.696 808.702, 573.176 808.162, 567.080 803.797 C 562.988 800.866, 558.940 799.589, 550 798.408 C 545.054 797.755, 542.534 800.152, 538.976 808.895 C 537.327 812.946, 534.658 817.765, 533.044 819.603 C 530.161 822.886, 528.017 828.430, 528.006 832.625 C 527.987 839.515, 526.933 841.076, 520.107 844.315 C 516.314 846.114, 511.505 849.484, 508.815 852.225 C 504.131 856.999, 504.129 857, 497.315 857.002 C 489.609 857.003, 483.725 859.287, 483.145 862.500 C 482.512 866.015, 481.151 866.700, 473.683 867.265 C 465.257 867.902, 459.643 869.931, 458.045 872.915 C 455.234 878.168, 461.563 881.298, 478.500 883.031 C 497.052 884.929, 499.662 886.169, 492.383 889.623 C 486.829 892.258, 485.195 895.445, 487.688 898.783 C 491.210 903.501, 499.108 904.098, 516.871 900.990 C 534.811 897.851, 537.469 898.255, 543.995 905.115 C 547.827 909.144, 548.085 909.246, 553.160 908.759 C 558.553 908.240, 564 904.082, 564 900.484 C 564 898.626, 565.366 898.625, 572.669 900.483 C 592.132 905.433, 641.722 908.663, 673.283 907.035 C 692.363 906.051, 718.233 903.204, 727.198 901.101 L 730.896 900.234 731.198 904.334 C 731.933 914.325, 743.821 915.864, 757.477 907.737 C 769.668 900.482, 772.927 900.471, 789 907.632 C 803.340 914.021, 817.860 912.621, 818.806 904.759 C 819.200 901.484, 815.807 899.043, 806.686 896.039 C 802.938 894.804, 800.165 893.503, 800.522 893.147 C 800.880 892.791, 811.146 892.500, 823.336 892.500 C 843.352 892.500, 845.867 892.311, 849.281 890.550 C 854.567 887.824, 855.248 884.504, 851.252 880.934 C 847.741 877.797, 842.963 876.598, 827.113 874.879 C 814.795 873.543, 814.707 873.083, 826.282 870.552 C 831.174 869.482, 835.073 867.971, 836.782 866.484 L 839.500 864.118 837.209 861.809 C 834.966 859.548, 834.554 859.506, 817.459 859.789 C 807.590 859.952, 800 859.688, 800 859.180 C 800 858.686, 798.171 856.203, 795.935 853.663 C 791.057 848.122, 781.145 842.947, 767.882 839.017 C 757.518 835.946, 755.064 833.498, 759.462 830.617 C 767.528 825.332, 765.219 810.305, 755.787 806.699 C 754.887 806.356, 755.154 805.724, 756.673 804.601 C 762.694 800.150, 761.680 788.809, 754.842 784.123 C 752.737 782.680, 750.746 780.375, 750.418 779 C 748.787 772.175, 747.423 769.263, 744.638 766.662 C 742.964 765.098, 740.898 761.732, 740.047 759.182 C 737.775 752.372, 733.391 749.685, 725.500 750.262 C 720.044 750.662, 719.207 750.448, 716.271 747.900 C 709.825 742.307, 701.046 742.792, 695.701 749.037 C 692.935 752.268, 691.655 753, 688.771 753 L 685.234 753 685.074 742.800 C 684.909 732.331, 684.145 730, 680.878 730 C 678.296 730, 678.525 728.541, 681.401 726.657 C 687.715 722.520, 687.996 713.116, 682.085 703.795 C 676.711 695.321, 673 692.784, 673 697.582 C 673 699.003, 671.650 703.241, 670 707 C 665.588 717.052, 666.397 723.734, 672.415 726.954 C 675.727 728.727, 675.668 729.310, 672.032 730.682 L 669.063 731.802 668.782 744.101 L 668.500 756.400 649.874 761.064 C 639.630 763.629, 630.794 766.009, 630.239 766.352 C 629.684 766.695, 625.812 765.397, 621.635 763.467 C 617.458 761.537, 612.681 759.686, 611.020 759.354 C 607.359 758.622, 607.367 759.591, 610.918 745.818 C 615.033 729.857, 616.197 719.766, 615.909 702.516 C 615.675 688.438, 615.801 687.266, 617.929 683.750 C 621.256 678.251, 622.051 679.095, 621.350 687.386 C 620.522 697.181, 621.249 699.674, 625.526 701.714 C 628.761 703.256, 629.240 703.256, 632.482 701.710 C 634.398 700.796, 636.570 700.282, 637.310 700.565 C 639.446 701.385, 644.025 699.214, 648.624 695.203 C 650.958 693.166, 654.313 690.399, 656.079 689.054 C 662.496 684.166, 664.495 677.486, 664.537 660.796 C 664.558 652.709, 664.874 645.793, 665.239 645.428 C 666.018 644.649, 665.496 641.422, 662.823 630.500 C 652.384 587.836, 629.859 542.804, 606.685 518.268 C 603.329 514.715, 602.186 512.892, 603.122 512.589 C 603.880 512.343, 610.392 510.569, 617.593 508.646 C 676.690 492.867, 720.210 459.328, 725.980 425.119 L 727.181 418 733.462 418 C 760.732 418, 792.075 397.322, 805.278 370.621 C 814.524 351.922, 817.778 325.464, 813.111 306.930 C 803.026 266.879, 769.339 249.218, 735.746 266.371 C 729.115 269.758, 728.985 269.781, 728.561 267.660 C 714.447 197.151, 668.854 146.182, 599.118 122.955 C 583.303 117.688, 563.861 113.372, 551.355 112.351 C 543.513 111.712, 543.483 111.698, 533.500 104.344 C 513.713 89.766, 488.497 80.082, 484.105 85.373 M 490.586 90.250 C 490.974 90.938, 494.375 96.079, 498.145 101.676 C 507.315 115.289, 507.275 115.477, 496 111.929 C 479.407 106.707, 460.464 105.326, 448.626 108.476 C 439.063 111.021, 438.898 111.473, 446.606 114.009 C 454.215 116.513, 461.395 119.910, 467.200 123.751 C 472.264 127.102, 472.056 128.579, 466.891 125.944 C 462.117 123.509, 457.050 124.280, 437 130.495 C 338.076 161.155, 286.539 245.192, 306.123 343.902 C 308.010 353.412, 312.137 366.742, 318.110 382.623 L 320.413 388.745 317.247 395.623 C 308.583 414.441, 309.293 429.198, 319.687 446.309 C 324.410 454.082, 336.209 466.488, 345.421 473.365 C 355.277 480.722, 355.984 481.019, 352 476.126 C 338.403 459.426, 334.494 448.783, 335.240 430.500 C 335.765 417.625, 338.002 411.068, 345.553 400.266 C 348.509 396.036, 349.909 393.165, 349.363 392.448 C 336.764 375.895, 332.937 369.105, 328.040 354.617 C 322.498 338.222, 321.536 331.421, 321.517 308.500 C 321.486 270.609, 329.611 248.389, 351.500 226.500 C 387.875 190.125, 443.415 188.629, 488.655 222.806 L 497.811 229.723 505.336 223.602 C 571.690 169.635, 665.541 192.694, 689.406 268.829 C 701.308 306.796, 694.277 356.390, 673.010 384.487 C 670.254 388.127, 668 391.356, 668 391.663 C 668 391.969, 670.219 394.647, 672.930 397.614 C 684.127 409.865, 689.270 422.220, 689.327 437 C 689.389 453.286, 684.447 464.407, 671.217 477.757 C 663.066 485.982, 663.002 486.084, 667.707 483.385 C 693.615 468.526, 713.563 447.868, 718.999 430.268 C 723.170 416.762, 721.365 405.594, 712.707 391.341 L 709.033 385.293 711.923 377.373 C 724.414 343.146, 728.546 296.711, 722.038 263.701 C 714.607 226.009, 693.251 189.313, 664.743 165.246 C 634.543 139.751, 595.238 123.174, 551.993 117.695 L 541.487 116.363 528.993 107.802 C 515.288 98.410, 505.406 93.089, 497.067 90.612 C 490.533 88.672, 489.670 88.624, 490.586 90.250 M 570 199.467 C 545.001 203.627, 517.980 216.506, 501.420 232.153 L 498.340 235.063 489.520 228.487 C 464.921 210.147, 444.230 202.588, 419 202.722 C 356.198 203.058, 315.734 258.945, 326.513 330.463 C 329.715 351.702, 337.671 371.074, 348.912 385 C 352.242 389.125, 354.974 392.820, 354.983 393.211 C 354.992 393.603, 352.582 397.473, 349.627 401.813 C 341.122 414.305, 339.565 419.223, 339.599 433.500 C 339.625 444.143, 339.936 446.292, 342.353 452.500 C 347.476 465.665, 356.283 476.107, 370.627 486.023 L 377.921 491.065 375.472 486.783 C 367.690 473.171, 366.124 455.446, 371.560 442.500 C 374.322 435.923, 374.500 434.684, 374.500 422 C 374.500 409.220, 374.650 408.194, 377.317 402.764 C 379.939 397.423, 380.025 396.874, 378.567 394.792 C 373.101 386.988, 381.327 379.015, 390.143 383.574 C 393.964 385.550, 394.976 384.685, 392.283 381.746 C 383.537 372.199, 382.280 355.834, 389.281 342.648 C 401.796 319.073, 437.924 321.202, 450.480 346.255 L 453.109 351.500 452.619 342.973 C 451.804 328.792, 445.583 315.401, 435.490 306.097 C 430.051 301.084, 430.099 301.085, 423.967 305.932 C 417.152 311.319, 406.589 316.936, 393.500 322.133 C 380.228 327.402, 374.528 332.301, 371.143 341.347 C 367.485 351.125, 368.527 367.389, 373.418 376.843 C 375.832 381.508, 374.850 381.732, 371.035 377.387 C 361.991 367.086, 359.361 347.629, 365.268 334.725 C 370.078 324.220, 376.087 319.862, 398.691 310.487 C 412.295 304.846, 425.720 296.180, 434.330 287.485 C 437.862 283.918, 441.013 281, 441.332 281 C 442.456 281, 438.929 289.404, 436.430 292.680 L 433.900 295.998 440.714 302.749 C 463.262 325.088, 464.352 362.957, 443.114 386.134 C 434.278 395.778, 425.567 399.931, 410.864 401.510 C 404.524 402.191, 403.884 403.124, 400.571 416.500 C 396.288 433.798, 396.495 474.739, 400.923 486.236 C 404.910 496.585, 410.386 503.641, 415.787 505.390 C 442.238 513.953, 503.482 520.745, 530.407 518.100 C 552.023 515.977, 601.278 508.220, 602.567 506.735 C 603.762 505.359, 614.161 483.184, 615.574 479 C 618.476 470.402, 618.074 458.307, 614.591 449.500 C 612.315 443.744, 611.673 440.101, 610.979 429 C 610.142 415.616, 609.105 411.047, 605.144 403.283 L 603.092 399.261 592.194 398.812 C 573.172 398.028, 560.225 389.631, 551.177 372.210 C 538.680 348.147, 542.031 319.665, 559.545 301.100 L 565.973 294.285 563.878 292.393 C 561.373 290.129, 556.999 281.791, 557.002 279.283 C 557.003 278.067, 558.673 279.310, 562.252 283.189 C 571.698 293.429, 585.474 301.701, 603.871 308.181 C 628.283 316.780, 637.301 324.637, 641.533 341 C 644.355 351.911, 641.903 365.194, 635.523 373.559 C 631.759 378.493, 630.882 377.806, 633.213 371.750 C 636.046 364.389, 636.731 351.025, 634.642 343.840 C 630.995 331.295, 623.479 324.847, 604.500 317.982 C 593.561 314.024, 582.191 308.386, 575.581 303.642 C 569.868 299.541, 569.486 299.635, 562.786 306.797 C 553.890 316.308, 549.012 329.699, 549.051 344.500 L 549.072 352.500 552.378 345.500 C 562.261 324.578, 585.816 317.843, 604.588 330.570 C 614.392 337.218, 619.306 346.515, 619.362 358.524 C 619.401 366.675, 619.236 367.197, 612.205 381.271 C 611.993 381.695, 614.133 381.130, 616.962 380.015 C 626.012 376.448, 631.502 380.611, 628.653 388.881 C 627.429 392.434, 627.479 393.129, 629.147 395.763 C 632.737 401.432, 635.114 410.423, 635.983 421.613 C 636.623 429.853, 637.648 434.997, 639.949 441.515 C 645.283 456.627, 644.804 472.079, 638.537 487.070 C 634.023 497.867, 633.958 497.559, 640.110 494.464 C 687.827 470.465, 699.339 431.433, 668.287 398.922 L 662.005 392.345 667.469 385.042 C 693.829 349.808, 698.757 293.178, 678.891 253.777 C 659.068 214.461, 614.243 192.104, 570 199.467 M 557.155 241.523 C 553.254 244.805, 551.676 250.082, 553.059 255.218 C 554.496 260.557, 555.491 259.910, 555.551 253.599 C 555.590 249.427, 556.233 247.247, 558.376 244.008 C 561.742 238.922, 561.304 238.032, 557.155 241.523 M 435 241.915 C 435 242.447, 435.453 243.162, 436.007 243.504 C 437.998 244.735, 440.326 250.603, 440.965 256 L 441.616 261.500 442.956 257.283 C 444.722 251.728, 442.347 244.748, 437.909 242.453 C 436.309 241.626, 435 241.384, 435 241.915 M 565.564 247.525 C 556.557 257.245, 567.902 270.112, 592.881 278.508 C 607.930 283.566, 623.881 285.235, 622.724 281.631 C 622.525 281.009, 616.093 277.345, 608.431 273.490 C 592.135 265.289, 585.372 260.514, 577.350 251.543 C 570.938 244.372, 569.075 243.737, 565.564 247.525 M 420.538 251.849 C 412.750 261.762, 398.807 271.984, 383.309 279.144 C 371.827 284.449, 371.808 286.540, 383.250 285.668 C 393.717 284.871, 401.410 282.809, 411.500 278.097 C 432.140 268.457, 439.140 257.940, 430.600 249.400 C 426.149 244.949, 425.914 245.006, 420.538 251.849 M 750.263 266.514 C 743.807 267.917, 733.180 272.990, 730.686 275.860 C 729.529 277.192, 729.439 279, 730.207 285.500 C 730.728 289.900, 730.951 299.455, 730.704 306.734 L 730.255 319.968 735.741 314.954 C 753.886 298.371, 771.673 294.264, 785.088 303.561 C 790.716 307.461, 790.762 309.300, 785.160 306.393 C 782.566 305.047, 778.715 303.666, 776.602 303.323 L 772.760 302.699 776.297 307.841 C 780.419 313.833, 782.838 320.659, 783.087 327 C 783.382 334.527, 782.909 334.814, 781.441 328 C 779.470 318.850, 775.316 311.224, 770.162 307.293 C 764.737 303.155, 762.916 303.176, 754.333 307.470 C 739.544 314.868, 721.545 336, 730.032 336 C 746.238 336, 755.855 361.473, 744.904 375.395 C 742.222 378.805, 741.524 378.260, 743.500 374.300 C 749.341 362.592, 745.529 346.855, 735.698 342.096 C 728.537 338.629, 727.324 339.086, 725.994 345.750 C 724.162 354.936, 723.156 358.708, 718.850 372.545 L 714.791 385.591 718.082 390.466 C 721.771 395.932, 726 406.736, 726 410.693 L 726 413.295 734.656 412.630 C 768.974 409.992, 798.560 384.227, 807.150 349.500 C 810.031 337.853, 810.299 316.924, 807.695 307 C 799.746 276.705, 777.038 260.697, 750.263 266.514 M 258.500 271.348 C 236.390 278.658, 223.676 299.561, 223.737 328.500 C 223.829 371.900, 250.860 405.846, 292.264 414.555 C 304.838 417.200, 305.461 417, 306.786 409.874 C 307.413 406.504, 309.549 400.288, 311.533 396.061 L 315.140 388.374 312.607 382.645 C 309.579 375.800, 303.386 356.897, 301.899 349.967 C 300.632 344.056, 299.970 343.525, 295.645 344.952 C 284.793 348.534, 280.350 364.188, 286.373 377.626 L 289.005 383.500 286.053 380.291 C 280.801 374.581, 278.665 363.229, 281.222 354.616 C 282.961 348.762, 290.672 341.236, 295.765 340.422 L 299.672 339.797 298.699 334.878 C 296.966 326.111, 275.057 308, 266.185 308 C 259.867 308, 251.651 319.931, 250.101 331.356 C 249.074 338.918, 248 339.634, 248 332.756 C 248 325.424, 251.102 315.701, 254.982 310.873 L 258.094 307 255.188 307 C 253.590 307, 249.743 308.280, 246.641 309.845 C 240.302 313.043, 239.411 312.518, 244.250 308.437 C 255.610 298.859, 274.661 301.858, 289.866 315.617 C 293.138 318.578, 296.030 321, 296.293 321 C 296.557 321, 296.752 313.688, 296.727 304.750 C 296.702 295.813, 297.020 286.136, 297.435 283.246 L 298.189 277.991 290.344 274.263 C 283.121 270.831, 281.708 270.516, 272.500 270.281 C 266.218 270.120, 261.013 270.517, 258.500 271.348 M 567 278.040 C 567 282.468, 584.257 293.751, 598.176 298.423 C 610.833 302.672, 611.781 301.351, 599.500 296.577 C 589.828 292.817, 580.640 287.669, 573.250 281.871 C 569.813 279.173, 567 277.449, 567 278.040 M 426 283.190 C 418.180 290.329, 404.330 298.529, 393.607 302.369 C 389.186 303.952, 393.342 304.051, 398.185 302.478 C 410.565 298.457, 427.664 287.234, 431.050 280.907 C 432.644 277.928, 430.901 278.716, 426 283.190 M 565.947 338.556 C 562.427 342.304, 562.605 348.403, 566.328 351.606 C 572.497 356.912, 581.455 353, 581.455 345 C 581.455 336.864, 571.445 332.704, 565.947 338.556 M 399.913 340.282 C 392.852 345.703, 396.771 357, 405.712 357 C 410.309 357, 415 352.455, 415 348 C 415 341.321, 405.134 336.274, 399.913 340.282 M 492.799 367.586 C 487.674 369.162, 484.794 371.648, 489.666 370.290 C 491.225 369.856, 496.663 369.500, 501.751 369.500 C 511.938 369.500, 513.312 368.820, 506.557 367.119 C 500.950 365.707, 498.652 365.785, 492.799 367.586 M 592.655 370.829 C 590.484 373.228, 590.555 376.287, 592.829 378.345 C 596.618 381.774, 601.250 379.563, 601.250 374.325 C 601.250 369.580, 595.794 367.360, 592.655 370.829 M 428.452 372.433 C 427.236 374.289, 427.112 375.340, 427.928 376.865 C 430.362 381.414, 437 380.170, 437 375.165 C 437 369.791, 431.364 367.989, 428.452 372.433 M 489.500 375.236 C 485.534 376.662, 478.671 381.005, 479.335 381.669 C 479.624 381.957, 482.781 381.025, 486.351 379.597 C 494.442 376.360, 504.742 376.113, 512.989 378.960 C 519.207 381.106, 520.370 380.944, 516.578 378.459 C 510.140 374.241, 496.715 372.643, 489.500 375.236 M 618 382.975 C 615.316 384.445, 613.320 384.762, 609.439 384.331 C 605.010 383.839, 603.663 384.173, 598.641 387.008 C 592.105 390.696, 588.163 390.676, 582.899 386.928 C 578.514 383.806, 572.136 383.260, 569.068 385.744 L 566.660 387.694 572.192 390.311 C 579.223 393.637, 584.821 394.919, 593 395.075 C 601.825 395.244, 604.108 396.036, 606.655 399.816 C 610.908 406.127, 613.149 414.841, 614.033 428.500 C 614.703 438.843, 615.444 443.033, 617.661 449 C 623.205 463.920, 621.067 478.943, 610.594 498.666 C 608.637 502.353, 607.223 505.557, 607.453 505.787 C 607.683 506.017, 612.266 504.921, 617.637 503.352 C 629.620 499.852, 631.973 497.302, 636.962 482.405 C 641.787 467.999, 641.825 455.535, 637.086 442.037 C 634.640 435.071, 633.540 429.794, 632.915 422.037 C 632.078 411.635, 629.756 402.782, 626.356 397.026 C 623.983 393.009, 620.250 392.353, 614.422 394.931 C 608.267 397.654, 607.143 397.541, 610.011 394.489 C 613.023 391.283, 619.470 389.438, 622.630 390.877 C 624.748 391.842, 624.976 391.644, 625.604 388.298 C 626.818 381.825, 623.869 379.760, 618 382.975 M 381.200 386.200 C 379.711 387.689, 379.661 390.498, 381.075 393.141 C 381.976 394.824, 382.779 395.044, 386.012 394.498 C 389.085 393.979, 390.474 394.291, 392.824 396.028 C 399.106 400.672, 418.820 398.234, 432.847 391.078 C 437.446 388.732, 437.953 387.580, 435.066 386.035 C 431.653 384.209, 426.481 384.863, 422.391 387.639 C 415.496 392.318, 413.640 392.548, 407.409 389.499 C 402.621 387.157, 401.125 386.879, 396.451 387.463 C 392.313 387.980, 390.509 387.769, 388.796 386.570 C 386.126 384.699, 382.859 384.541, 381.200 386.200 M 477.750 391.088 C 475.628 392.314, 475.420 397.274, 477.422 398.935 C 478.519 399.846, 479.318 399.819, 480.925 398.815 C 482.590 397.775, 483.356 397.763, 484.753 398.757 C 485.714 399.440, 488.877 401.401, 491.781 403.113 C 496.094 405.655, 496.946 406.595, 496.425 408.236 C 496.074 409.342, 495.813 416.230, 495.845 423.543 L 495.903 436.841 491.702 437.538 C 475.270 440.266, 443.646 465.964, 452.527 469.372 C 453.525 469.755, 456.948 467.280, 462.408 462.229 C 477.629 448.146, 488.042 443.482, 502.500 444.268 C 517.302 445.073, 529.928 450.929, 543.749 463.398 C 551.154 470.079, 554 470.956, 554 466.557 C 554 463.878, 542.953 452.981, 535.395 448.204 C 526.203 442.395, 511.119 437.036, 503.892 437.012 L 500.285 437 499.642 430.853 C 499.289 427.473, 499 420.486, 499 415.329 C 499 406.100, 499.042 405.934, 501.654 404.941 C 503.114 404.386, 506.943 402.306, 510.163 400.319 C 515.630 396.944, 516.136 396.813, 517.822 398.339 C 520.093 400.394, 522 398.834, 522 394.922 C 522 388.353, 517.163 388.711, 507.888 395.965 C 499.786 402.300, 496.766 402.535, 490.753 397.293 C 482.772 390.337, 480.734 389.364, 477.750 391.088 M 385 398.265 C 379.671 400.898, 377.505 408.002, 377.458 423 C 377.420 435.204, 377.162 437.133, 374.775 443.094 C 369.704 455.757, 370.446 469.294, 376.932 482.500 C 382.005 492.827, 385.503 496.040, 395.878 499.907 C 400.906 501.780, 405.248 503.085, 405.527 502.806 C 405.806 502.527, 404.435 499.644, 402.481 496.400 C 395.942 485.543, 395.060 480.768, 394.777 454.691 C 394.505 429.565, 395.412 420.868, 399.591 408.557 C 400.908 404.676, 401.989 401.387, 401.993 401.250 C 401.997 401.113, 400.632 401, 398.960 401 C 397.288 401, 394.156 400.100, 392 399 C 387.398 396.652, 388.112 396.727, 385 398.265 M 561 466.066 C 561 471.229, 559.730 473.571, 555.841 475.582 C 552.779 477.166, 547.386 477.152, 543.739 475.550 C 540.841 474.278, 542.644 477.359, 545.936 479.303 C 555.514 484.961, 567.467 474.197, 563.393 463.582 C 562.269 460.652, 561 461.969, 561 466.066 M 442.109 465.490 C 438.216 474.861, 449.212 484.404, 457.750 479.063 C 461.294 476.845, 462.434 474.162, 459.066 475.965 C 452.431 479.516, 445.016 475.298, 443.987 467.389 L 443.351 462.500 442.109 465.490 M 491.500 467.163 C 486.912 469.543, 484.204 471.750, 482.914 474.161 C 482.275 475.354, 483.980 474.819, 488.756 472.328 C 497.258 467.894, 506.105 467.818, 514.768 472.105 C 520.477 474.930, 521.721 474.362, 517.073 471.052 C 508.353 464.843, 498.780 463.387, 491.500 467.163 M 587.500 515.536 C 584.200 516.269, 574.525 517.854, 566 519.059 C 557.475 520.264, 550.364 521.367, 550.198 521.510 C 550.031 521.654, 552.797 527.785, 556.345 535.136 C 579.936 584.021, 587.410 641.025, 574.001 669.788 C 563.911 691.431, 536.803 702.095, 502.122 698.063 C 464.845 693.729, 447.052 675.664, 444.442 639.500 C 442.761 616.227, 455.320 563.154, 470.052 531.266 C 472.244 526.520, 473.692 522.336, 473.269 521.967 C 472.846 521.599, 467.100 520.536, 460.500 519.606 L 448.500 517.916 443.141 523.708 C 421.681 546.901, 397.958 591.804, 387.486 629.051 C 384.442 639.877, 384.414 640.384, 386.934 639.035 C 391.031 636.843, 393.839 637.764, 396.006 642.012 C 398.048 646.014, 398.061 646.020, 400.977 644.512 C 405.132 642.363, 406.715 642.618, 408.674 645.750 C 409.621 647.263, 410.502 648.658, 410.633 648.852 C 410.764 649.046, 411.900 648.483, 413.158 647.602 C 416.090 645.549, 418.864 645.567, 421.171 647.655 C 422.930 649.247, 423 648.964, 423 640.254 C 423 617.618, 434.217 574.975, 447.429 547.386 C 452.117 537.597, 455 533.147, 455 535.702 C 455 536.154, 452.519 543.422, 449.487 551.855 C 427.147 613.990, 423.085 647.023, 434.057 677.345 L 437.130 685.837 436.093 698.769 C 434.372 720.234, 436.009 729.118, 444.973 746.946 C 447.188 751.351, 449 755.671, 449 756.545 C 449 758.085, 450.009 758.036, 454.706 756.273 C 455.369 756.024, 457.029 756.938, 458.396 758.305 C 460.824 760.733, 460.919 760.747, 462.595 758.895 C 464.921 756.325, 467.194 756.514, 470.010 759.511 L 472.368 762.021 474.989 759.511 C 478.029 756.598, 479.693 756.396, 482.790 758.566 C 484.866 760.020, 485.220 759.970, 487.763 757.863 C 490.391 755.684, 490.506 755.195, 490.648 745.547 C 490.787 736.072, 492.139 730.074, 496.431 719.883 C 496.972 718.597, 496.127 718.023, 492.306 717.082 C 486.319 715.607, 472 709.016, 472 707.735 C 472 707.213, 472.584 707.010, 473.298 707.284 C 487.112 712.585, 510.313 716.118, 529.914 715.906 C 548.757 715.702, 547.001 714.882, 552.597 726.500 C 556.636 734.886, 560 747.476, 560 754.205 L 560 759.091 563.478 758.438 C 566.344 757.901, 567.513 758.254, 570.118 760.446 L 573.280 763.106 576.059 760.444 L 578.838 757.781 582.845 760.033 L 586.851 762.285 589.176 759.582 C 591.407 756.988, 591.696 756.923, 596.383 757.974 C 599.068 758.576, 601.386 758.940, 601.533 758.784 C 601.680 758.628, 602.947 754.675, 604.349 750 C 609.106 734.128, 610.265 725.700, 610.469 705.500 C 610.575 695.050, 610.980 685.526, 611.371 684.336 C 611.893 682.741, 611.411 681.502, 609.540 679.631 C 606.004 676.095, 606.248 671.279, 610.448 661.657 C 612.986 655.844, 613.649 653.256, 613.011 651.657 C 612.537 650.471, 611.637 645.900, 611.012 641.500 C 607.746 618.526, 600.047 594.190, 587.490 567.153 C 581.066 553.322, 580.896 550.697, 587.036 560.136 C 600.268 580.478, 612.371 614.065, 616.184 641.025 L 617.315 649.024 619.622 647.512 C 622.688 645.503, 623.949 645.603, 626.565 648.061 L 628.759 650.122 630.773 647.561 C 633.055 644.660, 634.643 644.415, 637.441 646.532 C 640.135 648.569, 640.584 648.418, 642 645 C 643.416 641.582, 643.999 641.431, 647.941 643.469 C 650.700 644.896, 650.819 644.852, 652.013 641.969 C 653.310 638.836, 654.885 638.333, 658.066 640.035 C 660.396 641.283, 660.393 641.334, 658.436 633.644 C 648.632 595.135, 631.270 557.969, 610.486 531 C 605.242 524.195, 595.464 513.964, 594.336 514.102 C 593.876 514.159, 590.800 514.804, 587.500 515.536 M 473.470 531.401 C 468.372 542.311, 461.210 562.615, 457.033 578 C 437.761 648.977, 448.551 684.140, 492.500 693.587 C 504.477 696.162, 528.962 695.960, 539.154 693.202 C 566.305 685.856, 577.559 668.267, 577.356 633.500 C 577.163 600.483, 567.365 563.172, 549.696 528.169 L 546.500 521.839 542.500 522.477 C 527.200 524.918, 487.790 524.864, 479.718 522.391 C 478.273 521.948, 477.091 523.653, 473.470 531.401 M 387.636 643.277 C 382.192 647.258, 382.802 677.271, 388.422 681.935 C 389.491 682.823, 389.643 681.749, 389.243 676.148 C 388.673 668.182, 390.385 665.473, 391.376 672.773 C 392.742 682.830, 398.634 694, 402.573 694 C 404.314 694, 404.312 694.136, 402.625 689.356 C 400.735 683.998, 399.777 675.782, 400.851 674.151 C 401.481 673.196, 401.938 673.926, 402.419 676.651 C 404.204 686.769, 409.765 697, 413.481 697 C 416.740 697, 417.292 694.283, 415.976 684.701 C 415.271 679.563, 415.026 673.675, 415.429 671.527 L 416.158 667.643 420.157 672.322 C 424.532 677.441, 428.763 678.825, 427.580 674.750 C 426.372 670.591, 424.084 660.531, 423.534 656.962 C 422.766 651.980, 418.045 649.085, 414.488 651.416 C 411.012 653.693, 409.416 653.393, 407.005 650.007 C 404.947 647.116, 404.775 647.065, 401.987 648.507 C 397.621 650.764, 396.334 650.366, 393.880 646 C 391.479 641.727, 390.399 641.257, 387.636 643.277 M 653.788 646.567 C 652.603 649.166, 652.605 649.166, 646.778 647.325 C 645.594 646.951, 644.685 647.596, 643.868 649.391 C 642.551 652.282, 641.326 652.561, 637.537 650.835 C 635.343 649.835, 634.653 649.977, 632.676 651.835 C 629.806 654.531, 628.949 654.534, 625.551 651.862 C 622.002 649.070, 620.507 650.493, 615.953 661 C 608.882 677.315, 613.052 683.976, 622.545 671.530 C 624.017 669.599, 625.622 668.267, 626.111 668.569 C 627.346 669.332, 627.226 682.850, 625.931 688.887 C 625.160 692.482, 625.170 694.449, 625.966 695.936 C 629.366 702.289, 636.816 693.394, 640.226 678.909 L 641.500 673.500 641.797 679.147 C 641.987 682.759, 641.412 686.813, 640.202 690.397 C 638.191 696.354, 638.571 696.982, 642.593 694.347 C 645.981 692.127, 648.670 686.580, 650.883 677.243 C 653.155 667.659, 654.830 669.669, 653.370 680.227 C 652.295 688.007, 653.236 687.717, 657.348 679 C 660.904 671.460, 660.186 644, 656.433 644 C 655.621 644, 654.431 645.155, 653.788 646.567 M 673.706 706.750 C 670.001 715.051, 669.653 717.233, 671.376 721.358 C 673.570 726.607, 675 725.897, 675 719.559 C 675 716.566, 675.451 713.839, 676.002 713.499 C 677.334 712.676, 678.992 717.223, 679.033 721.815 L 679.067 725.500 681.033 723.139 C 684.080 719.482, 683.651 712.668, 679.970 706.250 C 678.314 703.362, 676.805 701, 676.616 701 C 676.428 701, 675.118 703.587, 673.706 706.750 M 672.597 734.844 C 671.811 736.115, 673.135 743.035, 674.055 742.466 C 674.494 742.195, 676.275 740.178, 678.011 737.986 L 681.168 734 677.143 734 C 674.929 734, 672.883 734.380, 672.597 734.844 M 680 738.997 C 680 739.546, 678.400 741.765, 676.445 743.929 C 673.180 747.544, 672.916 748.296, 673.195 753.182 L 673.500 758.500 677.250 753.606 C 680.507 749.355, 681 748.009, 681 743.356 C 681 740.410, 680.775 738, 680.500 738 C 680.225 738, 680 738.449, 680 738.997 M 700.763 749.565 C 696.824 751.702, 696.036 755.801, 699.087 758.272 C 702.323 760.892, 712.267 760.351, 714.472 757.436 C 719.156 751.244, 708.715 745.250, 700.763 749.565 M 677.250 757.551 C 673.361 761.692, 673.002 762.519, 673.023 767.288 L 673.046 772.500 677.523 767.808 C 681.617 763.518, 682 762.684, 682 758.058 C 682 755.276, 681.888 753.006, 681.750 753.013 C 681.612 753.020, 679.587 755.062, 677.250 757.551 M 727.500 753.547 C 726.950 753.700, 725.251 754.101, 723.725 754.438 C 716.540 756.025, 714.387 764.436, 720.250 768.011 C 724.135 770.380, 729.017 770.560, 733.035 768.482 C 739.626 765.074, 737.220 756.099, 729 753.432 C 728.725 753.343, 728.050 753.395, 727.500 753.547 M 686.667 757.667 C 685.622 758.711, 685.887 776.812, 686.956 777.473 C 691.003 779.974, 680.334 784.706, 674.308 783.083 C 669.963 781.913, 665.581 778.029, 667.750 777.271 C 669.121 776.791, 669.607 760.992, 668.250 761.010 C 666.222 761.036, 631.759 770.059, 629.912 771.047 C 626.592 772.824, 629.104 774.331, 634.163 773.597 C 644.652 772.074, 651.816 771.831, 653.869 772.930 C 658.113 775.201, 655.974 778.997, 647.639 783.989 C 643.962 786.190, 643.803 786.495, 644.322 790.365 C 644.681 793.043, 644.213 796.290, 642.946 799.893 C 641.890 802.899, 641.225 805.559, 641.470 805.803 C 642.717 807.050, 645.230 804.488, 647.853 799.296 C 652.225 790.642, 654.037 789.328, 659.559 790.805 C 665.599 792.420, 669.503 792.308, 673.164 790.415 C 675.468 789.224, 677.753 788.986, 682.365 789.457 C 699.205 791.176, 701.203 792.652, 700.779 803.073 C 700.520 809.432, 700.692 810.040, 703.785 813.660 C 709.680 820.560, 710.469 823.263, 710.279 835.910 C 710.153 844.246, 710.630 849.501, 712.046 855.410 C 713.113 859.860, 713.989 865.413, 713.993 867.750 C 713.999 871.147, 714.355 872, 715.770 872 C 718.084 872, 730.789 868.468, 736.054 866.362 L 740.183 864.710 739.842 855.409 C 739.517 846.570, 739.345 845.944, 736.370 842.804 C 731.402 837.560, 730.679 835.437, 731.415 828.257 L 732.072 821.836 728.192 818.070 C 721.929 811.993, 721.915 806.483, 728.135 796.790 C 731.215 791.990, 731.299 791.597, 730.085 787.637 C 729.388 785.362, 728.521 781.250, 728.158 778.500 C 727.521 773.663, 727.386 773.489, 724 773.172 C 719.467 772.747, 714.336 768.806, 713.529 765.130 C 712.922 762.370, 712.722 762.275, 709.192 763.068 C 704.142 764.203, 697.961 762.639, 695.298 759.552 C 693.193 757.113, 688.291 756.042, 686.667 757.667 M 452.500 761.055 C 451.400 761.497, 448.817 761.891, 446.759 761.930 C 438.622 762.083, 416.862 772.015, 414.813 776.511 C 412.560 781.456, 414.670 782.330, 418.825 778.175 C 422.837 774.163, 433.406 770.257, 437.588 771.241 C 439.764 771.753, 439.851 771.704, 430.833 775.006 C 420.533 778.778, 416.161 784.998, 422.787 786.453 C 425.124 786.966, 426.308 786.362, 430.117 782.712 C 434.931 778.100, 443.155 774.943, 450.066 775.056 C 452.998 775.104, 452.348 775.528, 445.624 777.955 C 436.582 781.219, 432.632 783.814, 432.189 786.783 C 431.298 792.753, 442.004 792.134, 459.222 785.220 C 475.102 778.842, 475.766 778.709, 484.831 780.088 C 491.382 781.084, 493.047 781.024, 496.250 779.678 C 501.188 777.603, 501.061 775.715, 495.500 768.554 C 493.025 765.367, 491 762.294, 491 761.725 C 491 761.156, 490.177 761.435, 489.171 762.345 C 486.863 764.434, 485.527 764.425, 481.923 762.295 C 479.091 760.622, 478.982 760.643, 476.100 763.405 C 473.020 766.355, 472.257 766.284, 468.250 762.677 L 466 760.651 463.686 762.826 C 460.867 765.474, 459.516 765.557, 457.807 763.189 C 455.945 760.608, 454.778 760.139, 452.500 761.055 M 590.307 764.155 L 587.255 767.207 583.071 764.853 L 578.888 762.500 576.492 765.456 L 574.096 768.412 569.990 765.112 C 564.932 761.048, 562.696 761.396, 556.364 767.232 C 544.920 777.780, 547.025 781.130, 564.859 780.749 L 576.500 780.500 584 784.389 C 599.345 792.347, 609.999 794.291, 612.168 789.530 C 613.902 785.724, 609.102 781.891, 597.029 777.442 L 593.500 776.141 597.239 776.070 C 601.780 775.985, 610.466 779.150, 613.492 781.993 C 615.305 783.696, 616.453 783.951, 619.852 783.408 C 626.309 782.375, 624.739 780.137, 613.987 775.050 C 607.877 772.160, 607.733 772.015, 611.500 772.570 C 613.700 772.893, 617.413 773.997, 619.750 775.023 C 623.466 776.653, 625.825 776.246, 622.951 774.470 C 622.238 774.029, 622.289 773.357, 623.109 772.369 C 623.827 771.504, 623.948 770.565, 623.408 770.050 C 621.100 767.851, 609.189 763.848, 602.389 762.986 C 598.248 762.461, 594.522 761.823, 594.109 761.567 C 593.696 761.312, 591.985 762.477, 590.307 764.155 M 677.250 771.991 C 671.341 777.247, 671.810 780, 678.613 780 C 681.596 780, 682.212 778.598, 681.810 772.728 L 681.500 768.210 677.250 771.991 M 738 768.843 C 738 769.306, 736.502 770.492, 734.671 771.478 C 730.816 773.554, 730.390 778.029, 733.323 785.647 C 735.189 790.495, 734.472 794.177, 730.492 800.192 C 725.578 807.617, 726.044 810.890, 733.005 817.851 C 736.148 820.994, 736.165 821.064, 735.478 828.387 L 734.788 835.759 738.352 839.704 C 743.167 845.034, 744 847.679, 744 857.635 C 744 865.844, 744.077 866.128, 746.216 865.820 C 750.614 865.185, 752.981 859.669, 753.175 849.602 C 753.436 836.015, 753.071 832.650, 751.184 831.253 C 746.855 828.047, 745.116 825.649, 744.507 822.039 C 743.763 817.637, 746.021 811.628, 749.156 809.670 C 751.754 808.048, 751.481 807.322, 747.577 805.470 C 740.277 802.005, 739.022 791.889, 745.090 785.410 C 747.614 782.716, 746.071 773.980, 742.428 770.337 C 740.074 767.983, 738 767.283, 738 768.843 M 704.792 776.250 C 698.741 781.007, 705.449 788.876, 711.777 784.443 C 714.630 782.445, 714.800 777.498, 712.066 776.035 C 709.474 774.648, 706.726 774.729, 704.792 776.250 M 640 777 C 638.625 777.440, 635.362 777.845, 632.750 777.900 C 628.041 777.999, 628 778.029, 628 781.378 C 628 785.395, 626.670 786.687, 621.422 787.767 C 617.602 788.552, 617.465 788.729, 616.163 794.537 C 613.788 805.136, 613.643 805.425, 609.745 807.332 C 604.805 809.749, 605.021 810.634, 610.750 811.446 C 613.362 811.816, 617.975 812.732, 621 813.481 C 624.025 814.230, 629.043 815.351, 632.151 815.971 C 636.651 816.869, 638.953 818.106, 643.452 822.043 C 646.560 824.763, 650.092 827.181, 651.301 827.417 C 657.007 828.530, 666.045 831.028, 671.307 832.946 C 676.073 834.683, 677.776 834.879, 680.807 834.037 C 682.838 833.473, 686.368 833.009, 688.652 833.006 C 692.408 833.001, 692.909 832.700, 693.902 829.851 C 695.552 825.117, 695.255 822.840, 692.451 818.712 C 690.888 816.413, 689.681 812.936, 689.331 809.730 C 688.368 800.885, 686.999 799.617, 679.194 800.346 C 671.197 801.093, 669.903 802.250, 668.914 809.535 C 667.760 818.038, 663.531 821.454, 659.573 817.081 C 658.151 815.509, 657.963 814.143, 658.538 809.542 C 659.760 799.763, 654.478 796.702, 649.785 804.470 C 643.643 814.639, 635.025 809.893, 639.468 798.789 C 640.590 795.985, 640.882 793.397, 640.423 790.335 C 639.661 785.257, 640.917 783.299, 647.198 779.769 C 649.289 778.593, 651 777.265, 651 776.816 C 651 775.796, 643.359 775.924, 640 777 M 706.476 778.394 C 704.294 779.989, 705.139 783, 707.769 783 C 709.629 783, 712 781.227, 712 779.835 C 712 778.058, 708.267 777.084, 706.476 778.394 M 746.557 788.223 C 743.138 793.103, 745.689 803, 750.365 803 C 752.794 803, 757 798.928, 757 796.577 C 757 788.234, 750.302 782.876, 746.557 788.223 M 674.500 794.536 C 670.818 796.222, 663.404 796.385, 659.073 794.876 C 654.623 793.324, 652.744 795.237, 656.992 796.996 C 661.538 798.880, 663.348 803.062, 662.512 809.751 C 661.548 817.469, 664.114 816.369, 665.622 808.418 C 667.604 797.972, 668.717 797.049, 679.729 796.719 C 689.124 796.438, 691.807 798.655, 692.912 807.616 C 693.351 811.172, 694.792 815.537, 696.554 818.648 C 699.417 823.703, 699.443 823.882, 697.998 828.648 C 695.775 835.976, 696.284 843.591, 699.385 849.399 C 701.598 853.544, 702 855.567, 702 862.544 L 702 870.790 706 871.171 L 710 871.553 710 867.693 C 710 865.570, 709.054 860.158, 707.898 855.667 C 706.162 848.923, 705.910 845.899, 706.453 838.314 C 707.267 826.954, 706.200 822.670, 700.986 816.361 C 697.160 811.730, 697 811.250, 697 804.391 C 697 799.799, 696.542 796.865, 695.718 796.181 C 694.786 795.407, 677.714 792.498, 677.526 793.081 C 677.512 793.126, 676.150 793.781, 674.500 794.536 M 323 795.569 C 321.625 795.803, 316.450 796.479, 311.500 797.070 C 287.560 799.931, 264.850 808.182, 253.606 818.105 C 236.567 833.141, 243.012 850.063, 271 863.773 C 277.325 866.871, 284.750 870.867, 287.500 872.653 C 314.425 890.142, 380.446 893.240, 409.566 878.382 C 413.380 876.436, 419.875 873.710, 424 872.324 C 486.915 851.186, 464.127 809.559, 383 797.427 C 373.065 795.942, 328.853 794.572, 323 795.569 M 623.604 797.590 C 622.681 799.995, 623.848 801.152, 626.023 799.987 C 627.131 799.395, 627.688 798.349, 627.356 797.485 C 626.603 795.524, 624.372 795.587, 623.604 797.590 M 327 799.616 C 265.198 805.283, 232.559 828.235, 256.145 849.440 C 286.549 876.776, 377.277 885.193, 429.529 865.525 C 490.188 842.693, 439.980 801.303, 349.500 799.552 C 339.600 799.360, 329.475 799.389, 327 799.616 M 546.075 803.925 C 545.016 804.984, 543.361 808.352, 542.397 811.408 C 541.434 814.465, 538.925 819.047, 536.823 821.592 C 534.720 824.136, 532.997 826.731, 532.994 827.359 C 532.991 827.986, 532.316 832.961, 531.494 838.413 C 529.221 853.496, 529.439 857.413, 532.694 859.974 C 539.031 864.959, 555.034 871.335, 579.500 878.623 C 587.750 881.080, 595.332 883.360, 596.349 883.688 C 598.127 884.262, 598.132 884.156, 596.481 880.964 C 595.143 878.375, 594.932 876.524, 595.528 872.571 C 595.948 869.782, 596.339 865.475, 596.396 863 L 596.500 858.500 590.786 858.201 C 585.744 857.937, 584.802 857.543, 582.786 854.845 C 578.630 849.287, 575.110 846.272, 572.067 845.663 C 567.681 844.786, 565 841.654, 565 837.408 C 565 835.330, 564.157 832.744, 563 831.273 C 561.527 829.401, 561 827.216, 561 822.988 C 561 819.210, 560.507 816.836, 559.560 816.050 C 558.769 815.393, 556.767 811.963, 555.113 808.428 C 551.832 801.416, 549.664 800.336, 546.075 803.925 M 559.435 808.500 C 562.353 815.481, 565.766 818.736, 573.119 821.545 C 580.166 824.238, 582.306 826.230, 583.538 831.240 C 584.054 833.340, 585.091 834.217, 587.975 834.993 C 592.255 836.146, 597 839.524, 597 841.418 C 597 843.931, 601.124 846.352, 606.695 847.108 C 617.439 848.566, 620.390 853.039, 617.674 863.750 C 615.391 872.748, 616.888 878.622, 620.827 876.127 C 621.892 875.453, 621.927 874.441, 621.002 871.009 C 620.051 867.476, 620.153 865.615, 621.586 860.320 C 623.883 851.833, 622.431 849.596, 612.288 846 C 608.066 844.503, 604.015 842.257, 602.193 840.402 C 600.520 838.699, 596.771 836.449, 593.863 835.402 C 589.762 833.927, 587.932 832.542, 585.708 829.230 C 584.050 826.761, 581.081 824.078, 578.670 822.872 C 572.944 820.005, 568.279 815.394, 565.394 809.750 C 563.477 806, 562.441 805, 560.470 805 C 558.005 805, 557.992 805.044, 559.435 808.500 M 581.559 810.532 C 579.307 812.235, 573.733 812.462, 570.934 810.965 C 567.779 809.276, 568.645 811.559, 572.625 815.424 C 574.618 817.360, 577.206 819.241, 578.375 819.603 C 581.954 820.713, 585.995 824.032, 588.424 827.857 C 590.168 830.605, 592.052 831.959, 596.087 833.369 C 599.030 834.397, 602.929 836.729, 604.752 838.552 C 606.575 840.375, 609.739 842.376, 611.784 842.998 C 625.170 847.072, 628.202 851.508, 624.592 861.738 C 623.533 864.740, 623.426 866.860, 624.159 870.296 L 625.133 874.864 629.192 873.432 C 631.425 872.644, 634.095 872, 635.126 872 C 636.690 872, 637.006 871.215, 637.034 867.250 C 637.053 864.638, 637.915 860.708, 638.950 858.518 C 640.651 854.920, 640.694 854.204, 639.395 851.095 C 637.206 845.854, 636.111 845, 631.586 845 C 627.965 845, 626.835 844.408, 623 840.500 C 619.574 837.009, 617.860 836, 615.357 836 C 613.582 836, 610.900 835.532, 609.397 834.961 C 606.045 833.686, 594.851 822.084, 589.708 814.553 C 585.697 808.681, 584.673 808.176, 581.559 810.532 M 216.329 811.402 C 211.416 813.625, 210.480 816.284, 213.410 819.690 C 216.536 823.324, 228.246 823.897, 231.895 820.595 C 238.733 814.407, 226.133 806.966, 216.329 811.402 M 324.288 812.027 C 287.592 816.666, 269.788 832.705, 286.098 846.429 C 307.710 864.615, 381.523 868.924, 411.500 853.750 C 434.254 842.232, 425.139 824.562, 392 815.947 C 377.084 812.070, 340.639 809.960, 324.288 812.027 M 750.073 813.635 C 747.336 817.114, 747.299 823.299, 750 826 C 754.582 830.582, 760.500 826.918, 760.500 819.500 C 760.500 811.744, 754.302 808.258, 750.073 813.635 M 678.022 813.473 C 676.116 815.770, 677.197 818.500, 680.014 818.500 C 681.808 818.500, 682.587 817.892, 682.811 816.318 C 683.219 813.448, 679.753 811.388, 678.022 813.473 M 219.323 813.653 C 216.145 814.335, 214.355 816.755, 215.892 818.292 C 217.501 819.901, 228.538 819.862, 230.157 818.243 C 232.914 815.486, 225.473 812.334, 219.323 813.653 M 324.500 815.081 C 294.588 818.671, 276.481 831.100, 285.518 841.839 C 294.991 853.097, 321.102 859.479, 357.500 859.434 C 389.178 859.395, 406.375 855.704, 416.530 846.765 C 429.508 835.341, 413.260 822.231, 379 816.484 C 367.549 814.563, 335.656 813.742, 324.500 815.081 M 605.902 816.750 C 606.482 818.937, 607.437 819.670, 610.565 820.331 C 612.729 820.788, 616.750 822.081, 619.500 823.204 C 622.250 824.326, 626.608 825.555, 629.185 825.935 C 632.758 826.461, 634.946 827.618, 638.412 830.812 C 641.387 833.554, 643.879 835, 645.631 835 C 647.471 835, 649.461 836.250, 652.001 839.001 C 655.689 842.996, 655.702 843, 661.597 842.392 C 665.748 841.963, 669.219 842.285, 673.292 843.474 C 678.208 844.911, 680.105 844.994, 685.835 844.028 L 692.585 842.889 692.172 839.349 C 691.768 835.887, 691.680 835.823, 688.129 836.414 C 676.537 838.344, 674.498 838.263, 667.852 835.604 C 664.261 834.167, 658.664 832.500, 655.416 831.900 C 648.065 830.541, 646.537 829.765, 641.308 824.732 C 637.746 821.304, 635.715 820.336, 627.808 818.293 C 622.689 816.971, 616.925 815.475, 615 814.969 C 613.075 814.462, 610.076 814.037, 608.336 814.024 C 605.372 814.002, 605.219 814.173, 605.902 816.750 M 334.145 818.006 C 325.244 819.261, 316.755 821.089, 317.300 821.634 C 317.553 821.886, 321.514 821.622, 326.103 821.046 C 349.944 818.057, 382.534 821.526, 400.155 828.930 C 408.530 832.449, 410.069 832.297, 403.723 828.578 C 389.328 820.142, 355.479 814.999, 334.145 818.006 M 565 825.104 C 565 826.885, 565.688 829.102, 566.528 830.031 C 567.369 830.960, 568.386 833.649, 568.788 836.007 C 569.538 840.396, 570.072 840.933, 575.816 843.066 C 577.639 843.743, 580.972 846.480, 583.222 849.149 C 587.014 853.645, 587.649 854.001, 591.907 854.015 C 600.483 854.044, 602.656 858.674, 599.832 870.907 C 598.993 874.541, 598.965 876.627, 599.730 878.307 L 600.796 880.647 607.484 879.074 L 614.171 877.500 613.578 872.956 C 613.207 870.112, 613.560 866.476, 614.521 863.242 C 617.074 854.644, 614.070 850.068, 605.800 849.955 C 600.617 849.884, 596.966 847.798, 594.587 843.548 C 592.838 840.424, 591.410 839.313, 587.539 838.065 C 582.669 836.495, 582.208 836.044, 579.802 830.500 C 578.575 827.673, 573.541 824.487, 567.250 822.556 C 565.238 821.938, 565 822.207, 565 825.104 M 607.421 825.605 C 608.460 829.838, 610.027 830.979, 615.729 831.654 C 620.060 832.167, 621.491 832.925, 625.127 836.630 C 628.822 840.395, 629.989 841, 633.553 841 C 638.365 841, 639.967 842.411, 643.037 849.351 C 644.779 853.290, 644.962 854.671, 644.075 857.214 C 643.484 858.910, 643 860.401, 643 860.526 C 643 862.093, 654.266 864.855, 662.800 865.381 C 670.945 865.884, 674.128 866.538, 678.016 868.508 C 681.963 870.508, 684.420 871, 690.467 871 L 698 871 698 863.027 C 698 853.234, 694.969 845.481, 691.523 846.460 C 685.333 848.220, 677.026 848.210, 672.098 846.438 C 667.909 844.932, 666.126 844.784, 662.095 845.610 C 656.111 846.836, 653.903 846.098, 649.893 841.531 C 647.702 839.036, 645.954 838, 643.934 838 C 641.897 838, 639.949 836.829, 637.164 833.931 C 633.835 830.466, 632.421 829.749, 627.643 829.101 C 624.557 828.682, 621.237 827.650, 620.266 826.807 C 619.295 825.964, 617.090 825.010, 615.367 824.686 C 613.643 824.362, 610.991 823.785, 609.472 823.404 C 606.834 822.741, 606.742 822.840, 607.421 825.605 M 666 824.500 C 666 825.530, 666.655 826.020, 667.750 825.810 C 669.858 825.404, 669.725 823.629, 667.553 823.177 C 666.647 822.988, 666 823.539, 666 824.500 M 836.643 824.970 C 830.505 826.934, 828.326 831.175, 831.826 834.343 C 833.723 836.059, 841.914 838.014, 844.829 837.446 C 850.672 836.308, 852.024 835.833, 853.430 834.427 C 855.780 832.077, 855.375 828.292, 852.577 826.459 C 849.661 824.548, 840.604 823.702, 836.643 824.970 M 837.250 828.068 C 830.514 830.119, 834.435 834, 843.243 834 C 849.822 834, 853.346 831.982, 850.976 829.573 C 849.041 827.606, 841.488 826.777, 837.250 828.068 M 487.517 840.626 C 485.135 843.007, 485.997 847.157, 489.250 848.968 C 494.740 852.026, 500.564 845.491, 496.425 840.918 C 494.304 838.574, 489.719 838.424, 487.517 840.626 M 723 839.813 C 720.927 840.486, 720.033 842.054, 720.015 845.050 C 719.984 850.301, 725.707 851.903, 728.619 847.459 C 731.395 843.222, 727.755 838.268, 723 839.813 M 757.798 844.606 C 757.417 847.871, 757.730 848.436, 761.102 850.565 C 779.305 862.056, 759.354 875.379, 717 880.017 C 699.466 881.937, 700.417 881.667, 700.461 884.717 C 700.537 889.999, 689.933 890.482, 689.180 885.230 C 688.667 881.650, 673.228 881.863, 669.591 885.500 C 666.156 888.935, 654.895 889.190, 651.406 885.912 C 647.806 882.529, 605.610 882.390, 602.250 885.750 C 599.638 888.362, 599.691 888.355, 593.200 886.857 C 588.976 885.882, 587.902 885.955, 585.901 887.357 C 584.611 888.261, 582.643 889.041, 581.527 889.090 C 577.518 889.269, 585.450 890.859, 596 891.992 C 612.447 893.759, 673.783 894.435, 694 893.074 C 753.400 889.072, 796 876.303, 796 862.500 C 796 856.629, 785.789 849.571, 769.302 844.048 C 758.011 840.265, 758.306 840.250, 757.798 844.606 M 489.323 843.601 C 488.798 844.968, 490.389 846.969, 492 846.969 C 492.275 846.969, 493.128 846.572, 493.896 846.086 C 495.833 844.859, 494.506 842, 492 842 C 490.865 842, 489.661 842.720, 489.323 843.601 M 722.408 843.378 C 721.599 845.487, 722.735 847, 725.129 847 C 726.639 847, 727.060 846.443, 726.820 844.760 C 726.447 842.146, 723.264 841.149, 722.408 843.378 M 518.500 850.241 C 505.691 858.113, 505.014 864.950, 516.363 871.828 C 522.154 875.337, 524 875.743, 524 873.508 C 524 872.687, 522.313 871.223, 520.250 870.254 C 515.114 867.841, 514.819 864.951, 519.454 862.455 C 521.915 861.130, 523 859.850, 523 858.273 C 523 857.023, 523.430 856, 523.955 856 C 525.034 856, 526.365 850.055, 525.843 847.570 C 525.563 846.241, 524.206 846.735, 518.500 850.241 M 550.440 848.451 C 548.441 851.502, 549.334 854.739, 552.583 856.220 C 557.438 858.432, 561.240 851.337, 557.171 847.655 C 554.598 845.326, 552.311 845.596, 550.440 848.451 M 552 851.500 C 552 853.333, 552.533 854, 554 854 C 555.467 854, 556 853.333, 556 851.500 C 556 849.667, 555.467 849, 554 849 C 552.533 849, 552 849.667, 552 851.500 M 143.500 850.622 C 134.891 852.732, 132.157 856.611, 136.333 860.788 C 139.939 864.393, 155.232 864.910, 158.942 861.552 C 165.047 856.028, 153.832 848.089, 143.500 850.622 M 757.524 855.724 C 755.866 864.559, 749.957 870.526, 743.695 869.686 C 741.388 869.376, 738.096 869.787, 735.646 870.689 C 733.366 871.528, 727.900 873.293, 723.500 874.611 L 715.500 877.007 721.500 876.426 C 735.857 875.037, 754.576 869.870, 761.249 865.454 C 765.731 862.488, 766.317 858.534, 762.750 855.323 C 758.801 851.768, 758.258 851.809, 757.524 855.724 M 142.012 854.268 C 134.518 856.915, 138.219 861.200, 148 861.200 C 154.195 861.200, 158 859.792, 158 857.500 C 158 854.287, 147.796 852.224, 142.012 854.268 M 632 854.500 C 632 855.325, 632.675 856, 633.500 856 C 634.325 856, 635 855.325, 635 854.500 C 635 853.675, 634.325 853, 633.500 853 C 632.675 853, 632 853.675, 632 854.500 M 655.496 855.007 C 655.153 855.561, 655.596 856.292, 656.480 856.631 C 658.394 857.365, 659.461 856.556, 658.541 855.067 C 657.711 853.723, 656.306 853.696, 655.496 855.007 M 667.446 856.087 C 666.416 857.755, 668.733 859.667, 670.113 858.287 C 671.267 857.133, 670.545 855, 669 855 C 668.515 855, 667.816 855.489, 667.446 856.087 M 683.409 856.376 C 683.048 857.317, 683.041 858.374, 683.393 858.726 C 683.745 859.079, 684.566 858.834, 685.217 858.183 C 686.119 857.281, 686.122 856.722, 685.233 855.833 C 684.343 854.943, 683.909 855.072, 683.409 856.376 M 525 860.474 C 525 861.285, 523.650 862.647, 522 863.500 C 518.037 865.550, 518.212 866.387, 523 868.268 C 527.919 870.200, 528.473 874.096, 524.500 878.818 C 521.139 882.812, 521.343 883.301, 525.622 881.513 C 530.414 879.511, 532.197 879.599, 538.065 882.123 C 542.658 884.099, 545.299 887.821, 541.250 886.613 C 532.804 884.092, 529.715 883.796, 523.877 884.944 C 517.113 886.275, 515.889 885.885, 518.339 883.177 C 520.687 880.583, 520.644 880.512, 514.101 876.068 C 507.982 871.913, 504 866.814, 504 863.132 C 504 861.151, 503.484 861, 496.700 861 C 489.175 861, 487 861.937, 487 865.177 C 487 868.201, 482.422 870.206, 473.435 871.117 C 455.040 872.981, 457.041 876.867, 477.500 879.008 C 501.391 881.510, 506.885 885.424, 496 892.191 C 493.250 893.900, 491 895.898, 491 896.630 C 491 899.706, 502.583 899.651, 520.577 896.491 C 534.522 894.042, 539.047 894.809, 544.747 900.591 C 548.218 904.113, 549.788 905, 552.547 905 C 556.243 905, 560 902.178, 560 899.401 C 560 893.997, 565.161 888.909, 571.946 887.624 C 577.940 886.489, 583.220 884.887, 582.696 884.363 C 582.418 884.085, 574.370 881.243, 564.812 878.049 C 546.490 871.925, 533.363 865.949, 528.698 861.607 C 525.464 858.597, 525 858.455, 525 860.474 M 771.245 860.250 C 766.525 866.150, 772.607 872.765, 778.777 868.443 C 781.370 866.628, 781.684 862.827, 779.429 860.571 C 777.549 858.691, 772.646 858.499, 771.245 860.250 M 773.011 862.487 C 771.391 864.439, 772.433 867, 774.846 867 C 777.913 867, 779.385 864.528, 777.463 862.606 C 775.472 860.614, 774.585 860.591, 773.011 862.487 M 875.544 862.344 C 872.920 864.263, 874.185 868.757, 877.589 869.612 C 883.058 870.984, 887.401 865.801, 883.800 862.200 C 882.200 860.600, 877.825 860.676, 875.544 862.344 M 812.309 863.273 C 800.153 864.298, 800.114 864.310, 798.906 867.227 C 794.914 876.864, 777.567 884.959, 748 890.982 C 737.873 893.045, 734.595 894.078, 734.879 895.116 C 735.087 895.877, 735.214 898.879, 735.160 901.787 C 735.071 906.566, 735.305 907.165, 737.596 908.037 C 742.608 909.942, 747.373 909.149, 753.559 905.381 C 767.188 897.077, 774.040 896.570, 787.678 902.851 C 797.725 907.480, 805.763 908.893, 811.421 907.026 C 817.108 905.149, 815.708 903.077, 806.617 899.918 C 802.282 898.411, 797.794 896.239, 796.645 895.089 L 794.556 893 796.808 890.750 C 799.012 888.549, 799.479 888.507, 818.227 888.817 C 838.971 889.160, 845.832 888.619, 848.673 886.417 C 852.761 883.247, 846.001 880.834, 826.835 878.623 C 813.335 877.065, 809.685 875.873, 810.202 873.190 C 810.648 870.876, 814.503 869.225, 823.823 867.355 C 841.876 863.735, 835.139 861.346, 812.309 863.273 M 629.446 864.087 C 628.416 865.755, 630.733 867.667, 632.113 866.287 C 633.267 865.133, 632.545 863, 631 863 C 630.515 863, 629.816 863.489, 629.446 864.087 M 877.703 864.146 C 876.743 864.683, 876.219 865.545, 876.538 866.061 C 877.294 867.285, 881.711 867.276, 882.469 866.050 C 883.418 864.515, 879.699 863.029, 877.703 864.146 M 641 869.378 C 641 874.438, 640.003 875.541, 634.500 876.566 C 630.840 877.249, 623.822 879.796, 625 880.015 C 625.275 880.066, 630.990 880.366, 637.699 880.681 L 649.898 881.254 650.558 878.624 C 651.565 874.614, 656.750 870.700, 660.153 871.381 C 664.121 872.174, 671 876.738, 671 878.577 C 671 880.144, 675.249 880.175, 698 878.771 C 701.025 878.584, 705.750 878.316, 708.500 878.176 L 713.500 877.920 710.567 876.332 C 708.181 875.040, 705.322 874.833, 695.243 875.221 C 683.201 875.685, 682.689 875.619, 677.037 872.862 C 672.275 870.538, 669.347 869.904, 660.861 869.357 C 654.376 868.939, 648.879 867.999, 646.167 866.844 C 643.784 865.830, 641.646 865, 641.417 865 C 641.188 865, 641 866.970, 641 869.378 M 577.658 866.675 C 577.296 867.037, 577 867.933, 577 868.667 C 577 870.156, 579.578 870.492, 580.430 869.113 C 581.111 868.012, 578.562 865.771, 577.658 866.675 M 500.250 870.718 C 498.233 871.442, 498.817 874, 501 874 C 502.100 874, 503 873.352, 503 872.559 C 503 870.820, 501.942 870.111, 500.250 870.718 M 305 876.057 C 310.698 878.596, 329.478 882.050, 343.645 883.165 C 360.091 884.460, 376.633 883.472, 390.208 880.385 C 398.989 878.387, 398.572 877.740, 389.462 879.228 C 371.551 882.154, 327.703 880.201, 305 875.465 L 302.500 874.944 305 876.057 M 654.989 878.250 C 651.840 883.415, 652.678 884.381, 660.500 884.602 C 668.686 884.834, 670.601 881.213, 664.388 877.250 C 659.550 874.163, 657.337 874.399, 654.989 878.250 M 692.709 882.624 C 690.992 884.342, 692.153 886, 695.073 886 C 697.461 886, 698.072 885.609, 697.813 884.250 C 697.472 882.460, 693.984 881.349, 692.709 882.624 M 427.635 886.073 C 425.078 888.084, 424.266 891.354, 425.765 893.600 C 428.197 897.243, 437.558 898.251, 440.345 895.171 C 444.360 890.735, 440.234 884, 433.500 884 C 431.723 884, 429.084 884.933, 427.635 886.073 M 429.952 888.838 C 427.122 891.130, 428.019 892.725, 432.622 893.589 C 437.837 894.567, 440.572 891.750, 437.139 888.935 C 434.200 886.526, 432.830 886.507, 429.952 888.838 M 552 888.393 C 552 889.922, 554.101 891, 557.082 891 C 559.392 891, 559.644 888.461, 557.418 887.607 C 554.681 886.556, 552 886.945, 552 888.393 M 568 893.795 C 568 895.181, 578.704 897.536, 593.500 899.405 C 633.578 904.469, 673.003 904.310, 712.442 898.925 C 739.134 895.280, 733.687 894.119, 703.500 897.019 C 667.480 900.478, 596.669 898.544, 571.250 893.407 C 569.238 893, 568 893.148, 568 893.795 M 467.409 897.378 C 466.138 900.690, 467.412 902.500, 471.014 902.500 C 474.221 902.500, 474.500 902.260, 474.500 899.500 C 474.500 896.845, 474.125 896.464, 471.243 896.186 C 469.047 895.974, 467.798 896.363, 467.409 897.378 M 840.571 898.571 C 837.330 901.813, 839.335 906, 844.129 906 C 846.796 906, 850 903.778, 850 901.929 C 850 898.206, 843.316 895.827, 840.571 898.571 M 842 901.430 C 842 902.451, 842.903 903, 844.583 903 C 847.716 903, 847.373 900.652, 844.172 900.180 C 842.729 899.968, 842 900.388, 842 901.430 M 580.750 907.080 C 578.740 908.251, 578.401 913.001, 580.200 914.800 C 581.899 916.499, 586.569 916.288, 588.429 914.429 C 592.926 909.931, 586.468 903.750, 580.750 907.080 M 582.667 909.667 C 581.125 911.208, 582.083 913.127, 584.240 912.820 C 587.071 912.416, 587.965 909, 585.240 909 C 584.191 909, 583.033 909.300, 582.667 909.667 M 547.275 913.923 C 540.212 915.706, 535 921.263, 536.959 924.923 C 540.955 932.390, 559.169 932.771, 565.972 925.530 C 572.165 918.938, 559.230 910.907, 547.275 913.923 M 546.021 918.116 C 543.133 919.268, 540 921.917, 540 923.206 C 540 924.863, 546.890 927, 552.218 926.996 C 557.937 926.992, 564 924.185, 564 921.540 C 564 917.872, 552.243 915.633, 546.021 918.116 M 620.589 920.077 C 616.070 925.447, 618.423 931.097, 625.260 931.290 C 632.664 931.500, 636.454 924.364, 631.545 919.455 C 628.050 915.959, 623.854 916.197, 620.589 920.077 M 623.594 921.896 C 620.199 925.648, 622.444 928.858, 627.565 927.573 C 629.615 927.059, 630.064 926.410, 629.813 924.323 C 629.398 920.866, 625.798 919.461, 623.594 921.896 M 353.283 923.632 C 344.712 927.858, 350.128 935.002, 361.899 934.998 C 368.667 934.996, 373.500 932.289, 373.500 928.500 C 373.500 922.824, 361.017 919.818, 353.283 923.632 M 355.112 926.265 C 350.432 928.686, 354.203 931.959, 361.703 931.985 C 366.418 932.002, 371 930.284, 371 928.500 C 371 925.389, 359.841 923.819, 355.112 926.265" stroke="none" fill="#1a1a1a" fill-rule="evenodd"/>
</svg>