<svg xmlns="http://www.w3.org/2000/svg" width="1024" height="1024" viewBox="0 0 1024 1024" version="1.1">
	<path d="M 495.629 204.550 C 424.400 214.251, 370.115 257.177, 353.922 316.604 C 351.216 326.537, 351.783 325.875, 346.772 324.954 C 341.288 323.946, 332.942 325.489, 326.660 328.673 C 293.266 345.595, 296.589 409.277, 332.054 432.035 C 338.002 435.852, 348.869 440, 352.920 440 L 355.749 440 356.227 448.250 C 358.247 483.098, 397.097 512.104, 454.875 521.901 C 461.682 523.056, 468.769 524, 470.625 524 C 474.508 524, 474.748 524.568, 472.077 527.436 C 467.730 532.102, 458.927 547.667, 455.989 555.878 C 453.508 562.816, 452.231 565.023, 449.906 566.396 C 443.187 570.366, 438.006 585.885, 439.411 597.836 C 440.589 607.866, 446.986 618.081, 453.892 620.963 C 455.476 621.625, 457.874 624.473, 460 628.218 C 461.925 631.609, 466.250 637.335, 469.612 640.942 L 475.723 647.500 476.449 655.967 C 477.333 666.273, 480.929 680.863, 484.603 689.051 L 487.326 695.118 485.130 698.809 C 471.155 722.300, 468.552 733.253, 472.548 751.750 L 473.250 755 436.875 754.993 C 402.037 754.987, 400.373 754.901, 397.500 752.966 C 393.392 750.198, 387.250 747.505, 380.716 745.606 C 377.703 744.730, 374.188 743.163, 372.904 742.123 L 370.569 740.233 376.285 734.059 C 386.966 722.522, 383.415 718.732, 358.982 715.595 C 341.726 713.379, 341.536 713.211, 349.506 707.197 C 352.388 705.022, 354.637 702.479, 354.823 701.184 C 355.296 697.909, 350.219 693.655, 341.981 690.423 C 338.141 688.916, 335.001 687.643, 335.002 687.592 C 335.003 687.541, 365.041 687.344, 401.752 687.152 C 438.463 686.961, 468.658 686.654, 468.850 686.469 C 470.978 684.427, 465.022 684, 434.441 684 L 401 684 401 677.045 L 401 670.091 404.750 669.419 C 425.899 665.630, 436.840 643.808, 424.767 629.493 C 422.783 627.140, 422.231 625.385, 422.231 621.429 C 422.231 609.254, 412.090 599.956, 398.884 600.022 C 386.876 600.082, 377.023 610.698, 377.006 623.595 C 377.002 626.482, 376.380 628.252, 374.898 629.593 C 367.482 636.304, 367.750 649.675, 375.482 658.709 C 378.981 662.796, 389.588 669, 393.078 669 C 397.415 669, 398 669.963, 398 677.107 L 398 684 384.658 684 L 371.317 684 370.134 680.054 C 368.876 675.855, 364.930 672, 361.891 672 C 360.852 672, 359.366 670.674, 358.477 668.956 C 356.795 665.702, 351.628 662.010, 348.750 662.004 C 347.213 662, 347 660.903, 347 653 L 347 644 350.941 644 C 357.845 644, 357.934 644.280, 343.555 620.681 L 334.611 606 330.805 606 C 327.123 606, 327 605.887, 327 602.500 C 327 600.056, 327.452 599, 328.500 599 C 329.633 599, 330 597.778, 330 594 L 330 589 322.500 588.875 C 318.375 588.806, 314.438 588.664, 313.750 588.559 C 309.090 587.846, 306.468 597.525, 311 598.710 C 312.413 599.080, 313 600.074, 313 602.098 C 313 606.042, 310.803 606.428, 292.585 605.681 C 284.288 605.341, 277.016 605.386, 276.424 605.781 C 274.288 607.209, 254.863 641.200, 255.393 642.582 C 255.738 643.482, 257.412 644, 259.969 644 L 264 644 264 651.910 L 264 659.819 259.749 659.755 C 254.160 659.671, 249.846 662.013, 247.472 666.423 C 246.113 668.946, 244.861 670, 243.223 670 C 237.418 670, 232 675.177, 232 680.723 L 232 684 215.500 684 L 199 684 199 677.019 C 199 670.207, 199.067 670.024, 201.750 669.474 C 217.993 666.139, 226.989 657.538, 227.816 644.551 C 228.237 637.929, 226.838 633.765, 222.657 629.195 C 221.119 627.515, 220.521 625.484, 220.445 621.695 C 220.197 609.181, 210.240 599.979, 197 600.028 C 184.996 600.071, 174.134 611.729, 175.147 623.481 C 175.361 625.967, 174.670 627.612, 172.256 630.361 C 162.382 641.607, 167.750 658.709, 183.491 666.156 C 186.796 667.719, 190.251 668.999, 191.168 668.999 C 195.404 669.001, 196 669.998, 196 677.076 L 196 683.938 183.750 684.219 C 173.653 684.451, 171.500 684.764, 171.500 686 C 171.500 687.317, 179.254 687.507, 235.059 687.557 L 298.618 687.614 305.559 691.443 C 312.571 695.312, 317 698.681, 317 700.149 C 317 701.333, 312.249 703.584, 301.663 707.416 C 280.530 715.066, 278.257 719.423, 291.460 726.977 C 294.507 728.720, 297 730.587, 297 731.124 C 297 732.503, 291.692 734.558, 281.580 737.094 C 267.422 740.645, 262.844 745.256, 266.294 752.491 L 267.968 756 219.484 756 C 177.054 756, 171 756.187, 171 757.500 C 171 758.827, 188.503 759, 322.525 759 L 474.050 759 474.886 761.250 C 479.376 773.329, 478.787 778.472, 472.740 779.998 C 453.358 784.888, 445.470 789.026, 441.733 796.263 C 437.742 803.993, 441.463 807.711, 454.767 809.285 C 466.455 810.668, 473.339 810.485, 480.622 808.598 C 483.958 807.734, 493.170 806.612, 501.094 806.106 C 516.275 805.135, 519.645 804.355, 522.960 801.040 C 525.514 798.486, 525.679 792.185, 523.308 787.700 C 522.061 785.341, 521.504 781.149, 521.190 771.750 L 520.764 759 541.632 758.750 C 553.109 758.612, 570.142 758.655, 579.483 758.844 L 596.465 759.188 600.019 762.398 C 604.882 766.792, 612.713 771.073, 624 775.507 C 640.136 781.846, 640.249 782.459, 627.519 794.518 C 618.870 802.711, 618 803.870, 618 807.195 C 618 814.248, 626.640 817.566, 643.101 816.833 C 658.145 816.164, 666.044 810.662, 673.730 795.500 C 682.489 778.221, 683.429 765.750, 676.412 759.927 C 674.918 758.688, 685.400 758.434, 756.096 758 C 827.566 757.561, 837.500 757.317, 837.500 756 C 837.500 754.676, 827.728 754.546, 753.977 754.893 C 680.094 755.241, 670.111 755.108, 667.477 753.741 C 663.127 751.483, 651.234 738.779, 650.414 735.514 C 649.582 732.199, 650.583 708.718, 651.726 704.731 L 652.520 701.963 670.510 714.480 C 704.298 737.989, 722.954 745.322, 749 745.332 C 769.780 745.340, 784.030 740.745, 800.207 728.819 C 825.603 710.096, 837.387 678.815, 820.642 674.571 C 815.336 673.226, 810.856 675.642, 807.423 681.700 C 795.163 703.336, 787.161 712.381, 775 718.348 C 755.520 727.906, 734.693 726.836, 710.500 715.033 C 701.086 710.441, 658.195 682.150, 662.500 683.372 C 666.848 684.607, 688.869 685.711, 695 685.001 C 713.404 682.871, 743.691 670.979, 752.524 662.415 C 755.135 659.884, 757.495 656.271, 758.730 652.915 C 760.444 648.260, 761.409 647.122, 765.612 644.806 C 772.821 640.833, 775 637.093, 775 628.695 C 775 622.119, 772.783 611.304, 769.564 602.183 C 768.395 598.867, 768.312 597.473, 769.201 596.050 C 770.551 593.889, 768.842 588.717, 763.989 580.272 C 760.499 574.198, 756.834 571.942, 749.081 571.093 L 743.662 570.500 739.216 557.154 L 734.770 543.809 737.500 538.413 C 739.810 533.848, 740.124 532.285, 739.544 528.259 C 737.987 517.460, 728.313 494.129, 720.960 483.442 C 712.321 470.885, 700.489 465.555, 674.925 462.705 L 663.985 461.486 666.458 457.848 L 668.930 454.210 672.943 455.592 C 684.625 459.617, 701.284 459.734, 715.164 455.887 C 758.152 443.975, 781.594 395.542, 765.642 351.596 C 754.157 319.953, 722.416 303.737, 692.446 314.201 L 685.391 316.663 682.077 308.082 C 658.935 248.172, 611.030 211.411, 546.500 204.044 C 534.262 202.647, 507.661 202.912, 495.629 204.550 M 507.500 207.684 C 473.565 210.630, 442.763 220.971, 416.958 238.080 C 405.550 245.644, 384.946 265.913, 377.279 277.116 C 352.602 313.168, 347.405 357.398, 362.512 402.789 C 364.578 408.997, 366.738 413.921, 367.313 413.729 C 370.471 412.676, 370.227 410.118, 366.044 400.398 C 358.268 382.331, 356.635 374.191, 356.635 353.500 C 356.635 332.770, 358.588 323.014, 365.784 307.794 C 384.475 268.264, 425.659 258.570, 455.913 286.580 L 462.009 292.224 465.794 288.805 C 481.365 274.738, 507.315 264.681, 531.500 263.342 C 565.418 261.464, 594.116 274.086, 611.583 298.564 C 635.296 331.795, 632.249 382.852, 604.782 412.522 L 599.249 418.500 603.657 422.936 C 628.528 447.960, 617.415 485.979, 578.977 507.372 C 575.415 509.355, 572.782 510.982, 573.127 510.989 C 575.785 511.037, 602.227 500.900, 611.272 496.365 C 628.522 487.715, 638.287 480.788, 650.500 468.535 C 664.929 454.060, 665.239 453.439, 660.425 448.625 C 655.534 443.734, 657.037 441.401, 662.429 445.514 C 676.590 456.315, 704.774 456.967, 725.500 446.973 C 750.098 435.113, 764.322 412.446, 765.716 382.890 C 768.157 331.112, 722.511 298.805, 682.561 324.036 C 674.880 328.887, 667.263 336.793, 663.010 344.329 C 659.538 350.480, 658.476 351.579, 657.513 350.020 C 655.513 346.785, 669.581 327.474, 678.431 321.304 L 681.363 319.260 679.075 312.880 C 670.269 288.326, 651.565 260.253, 634.048 245.300 C 601.815 217.783, 554.196 203.629, 507.500 207.684 M 525.636 268.037 C 503.972 270.485, 483.668 279.183, 466.936 293.181 C 464.425 295.282, 462.005 297, 461.557 297 C 461.110 297, 457.682 294.112, 453.940 290.582 C 440.016 277.447, 424.730 272.141, 409 274.985 C 366.111 282.737, 346.770 344.908, 370.009 400.317 L 374.127 410.134 372.054 413.817 C 370.914 415.843, 368.073 421.325, 365.740 426 L 361.500 434.500 361.500 446 C 361.500 457.169, 361.605 457.720, 365.149 465.140 C 376.085 488.041, 408.067 507.733, 447.500 515.844 C 464.146 519.268, 472.436 520.066, 497.810 520.686 C 523.153 521.306, 526.965 522.260, 511.429 524.097 C 494.291 526.124, 496.442 524.757, 493.035 535.792 C 489.257 548.028, 485 567.722, 485 572.963 C 485 575.161, 484.344 578.656, 483.541 580.730 C 482.739 582.803, 482.112 586.300, 482.147 588.500 C 482.182 590.700, 481.670 600.825, 481.011 611 C 478.369 651.737, 481.860 676.761, 492.634 694.315 C 496.355 700.378, 496.404 702.358, 492.778 700.093 C 490.125 698.437, 489.537 699.134, 483.470 711.125 C 473.787 730.261, 473.134 737.172, 478.925 759.196 C 480.616 765.629, 482 772.267, 482 773.946 C 482 776.554, 482.373 777, 484.552 777 C 486.502 777, 487.357 777.725, 488.176 780.076 L 489.248 783.152 492.422 780.076 C 496.506 776.117, 497.150 776.189, 501.322 781.064 L 504.801 785.127 507.084 781.064 C 509.668 776.468, 510.679 776.173, 514.248 778.981 L 516.767 780.962 516.272 774.731 C 514.880 757.221, 519.072 744.202, 529.740 732.893 L 536.213 726.031 533.541 725.016 C 532.072 724.457, 530.646 724, 530.373 724 C 528.266 724, 519 718.550, 519 717.311 C 519 716.294, 519.598 715.957, 520.750 716.325 C 540.512 722.629, 548.608 724, 566.072 724 L 578 724 578 720.417 C 578 714.447, 580.242 716.912, 583.603 726.577 C 592.675 752.662, 600.398 760.906, 625.648 771.459 C 631.780 774.022, 637.598 777.004, 638.578 778.086 C 640.333 780.026, 640.376 780.011, 641.631 777.027 C 643.076 773.590, 643.722 773.439, 648.480 775.427 L 651.896 776.855 652.198 772.177 L 652.500 767.500 657.322 767.840 L 662.144 768.179 660.512 765.023 C 658.360 760.861, 658.912 758.630, 662.249 758.008 C 664.924 757.509, 664.869 757.417, 659.215 752.905 C 656.048 750.378, 651.667 745.706, 649.479 742.523 L 645.500 736.736 645.703 724.118 C 645.948 708.874, 647.891 695.939, 651.369 686.413 C 654.105 678.917, 655.913 665.682, 654.333 664.706 C 653.823 664.390, 647.682 662.974, 640.686 661.557 C 625.690 658.521, 612.013 654.282, 599.527 648.800 C 594.562 646.621, 589.938 644.601, 589.250 644.312 C 588.299 643.912, 587.997 646.147, 587.988 653.643 C 587.951 684.443, 569.364 702.970, 538.500 702.970 C 512.122 702.970, 494.970 689.517, 487.792 663.197 C 483.583 647.762, 484.281 589.802, 488.936 568.213 C 492.334 552.459, 497.817 543.199, 496.348 555.696 L 495.679 561.391 498.677 558.036 C 501.997 554.320, 503.960 554.601, 504.070 558.809 C 504.109 560.289, 504.492 562.400, 504.922 563.500 C 505.659 565.384, 505.749 565.354, 506.470 563 C 507.394 559.985, 509.979 556.869, 511.020 557.513 C 511.434 557.768, 512.072 559.570, 512.437 561.517 C 513.245 565.824, 514.115 565.396, 517.613 558.969 C 520.643 553.403, 522.902 552.675, 525.385 556.465 C 528.711 561.541, 530.556 561.534, 535.517 556.429 C 539.443 552.390, 540.471 551.836, 543.406 552.179 C 546.673 552.560, 546.883 552.366, 549.953 546.140 C 554.376 537.171, 558.699 530.635, 565.528 522.592 C 570.514 516.719, 571.026 515.773, 568.946 516.275 C 559.072 518.660, 544.673 520.018, 544.202 518.608 C 544.038 518.118, 548.763 516.058, 554.702 514.032 C 573.828 507.504, 585.882 500.159, 597.166 488.157 C 617.208 466.838, 618.065 444.168, 599.568 424.614 C 596.505 421.377, 594 418.509, 594 418.242 C 594 417.974, 596.661 414.910, 599.914 411.433 C 614.634 395.697, 621.613 378.717, 622.744 355.887 C 625.526 299.745, 583.275 261.522, 525.636 268.037 M 527.112 301.888 C 521.931 307.069, 525.508 310.353, 539.685 313.433 C 543.637 314.292, 550.045 316.171, 553.924 317.609 C 564.708 321.606, 566.697 319.882, 559.859 312.462 C 551.111 302.972, 532.151 296.849, 527.112 301.888 M 396.665 305.447 C 387.065 309.394, 380.734 314.571, 378.755 320.091 C 377.434 323.778, 379.534 324.085, 386.071 321.162 C 389.607 319.581, 396.325 317.311, 401 316.117 C 412.268 313.240, 416.326 308.443, 410.777 304.557 C 407.675 302.384, 403.470 302.649, 396.665 305.447 M 526.186 328.089 C 509.537 330.949, 495.721 344.582, 493.123 360.716 C 491.838 368.696, 493.210 387.066, 495.535 393 C 500.643 406.038, 517.078 418.891, 528.750 418.976 C 533.227 419.009, 532.844 417.391, 528.200 416.648 C 518.628 415.117, 505.065 404.973, 500.516 395.942 C 498.861 392.656, 499.026 392.735, 504.141 397.686 C 536.159 428.674, 585.806 396.773, 571.898 354.149 C 565.996 336.064, 546.030 324.681, 526.186 328.089 M 335 329.935 C 326.449 332.546, 318.289 339.365, 313.792 347.659 C 304.845 364.162, 306.272 390.615, 317.145 409.810 C 324.106 422.099, 340.276 434.050, 352.059 435.614 L 356.618 436.219 357.894 431.860 C 358.596 429.462, 360.032 426.012, 361.085 424.193 C 363.636 419.787, 363.738 419.898, 357.750 420.586 C 337.974 422.859, 318.729 396.998, 321.373 371.702 C 322.993 356.204, 334.841 348.331, 345.113 355.925 C 349.029 358.821, 348.990 358.877, 349.084 350.250 C 349.131 345.988, 349.512 339.800, 349.931 336.500 C 350.444 332.461, 350.335 330.260, 349.596 329.765 C 348.190 328.823, 338.264 328.939, 335 329.935 M 393.882 332.381 C 384.613 335.693, 377.552 342.505, 372.638 352.877 C 367.969 362.732, 367.952 379.234, 372.603 389.047 C 382.332 409.580, 403.787 414.969, 421.617 401.359 C 424.748 398.969, 425.792 398.520, 425.066 399.878 C 422.260 405.120, 409.801 413.161, 402.250 414.602 C 397.015 415.602, 398.322 417.364, 403.750 416.625 C 413.782 415.260, 426.238 406.491, 431.264 397.255 C 435.174 390.072, 438.318 373.525, 437.583 364 C 435.833 341.344, 413.672 325.309, 393.882 332.381 M 521.500 332.972 C 518.200 334.067, 513.288 336.659, 510.584 338.731 C 505.681 342.489, 498.659 351.476, 499.246 353.239 C 499.417 353.750, 512.596 358.309, 528.534 363.369 C 544.472 368.429, 560.113 373.625, 563.292 374.915 C 566.471 376.206, 569.393 376.938, 569.786 376.542 C 570.179 376.147, 570.491 371.897, 570.479 367.098 C 570.461 359.310, 570.112 357.669, 567.229 351.814 C 558.999 335.096, 539.418 327.028, 521.500 332.972 M 394.577 335.650 C 387.611 337.788, 378.112 347.392, 375.167 355.275 C 373.279 360.328, 371.011 375, 372.118 375 C 372.341 375, 380.618 372.372, 390.512 369.160 C 400.405 365.948, 413.788 361.807, 420.250 359.959 C 433.493 356.172, 433.644 355.983, 429.143 348.886 C 421.482 336.807, 407.835 331.581, 394.577 335.650 M 701.628 347.110 C 689.633 349.927, 675.118 361.881, 669.016 373.967 C 666.523 378.907, 662 392.613, 662 395.230 C 662 397.261, 664.743 395.633, 666.350 392.648 C 669.549 386.709, 678.644 384.213, 685.040 387.521 C 689.188 389.666, 692 395.702, 692 402.460 C 692 408.199, 693.483 409.906, 694.601 405.454 C 697.466 394.038, 689.866 382, 679.793 382 C 674.618 382, 675.624 380.566, 683.370 376.901 C 688.248 374.594, 690.879 374.001, 696.250 374.001 C 703.506 374, 704.915 372.863, 699.851 371.098 C 693.352 368.832, 684.386 370.857, 676.036 376.475 L 670.919 379.919 673.710 374.775 C 679.961 363.251, 690.923 354.498, 702.949 351.429 C 737.337 342.651, 752.264 388.208, 724.252 416.444 C 708.599 432.223, 682.102 435.198, 666.742 422.901 C 662.007 419.111, 659.743 420.068, 663.668 424.201 C 677.942 439.230, 709.851 436.607, 727.092 418.987 C 757.626 387.782, 740.023 338.094, 701.628 347.110 M 509 350.900 C 509 351.395, 511.353 352.365, 514.228 353.055 C 521.956 354.909, 542.108 361.255, 553.328 365.368 C 564.446 369.443, 566.136 368.150, 555.434 363.757 C 535.646 355.633, 509 348.256, 509 350.900 M 409 354.631 C 399.178 357.224, 380.341 364.299, 377.258 366.554 C 373.290 369.454, 377.237 368.705, 387.102 364.685 C 392.865 362.336, 403.075 358.886, 409.790 357.017 C 416.506 355.149, 422 353.255, 422 352.810 C 422 351.542, 419.234 351.929, 409 354.631 M 330.078 359.142 C 320.343 368.211, 323.542 393.868, 336.107 407.500 C 343.675 415.711, 353.608 419.677, 360.212 417.126 L 362.925 416.078 360.432 410.443 C 359.061 407.343, 356.605 400.052, 354.973 394.240 C 353.341 388.427, 351.798 383.465, 351.546 383.212 C 349.562 381.229, 344.071 389.693, 344.022 394.809 C 344.010 396.090, 343.555 396.843, 343 396.500 C 339.938 394.608, 342.886 384.808, 347.642 381.067 C 350.247 379.018, 350.269 378.914, 348.412 377.444 C 345.223 374.922, 341.803 373.884, 338.826 374.538 C 335.211 375.332, 335.052 373.389, 338.600 371.772 C 340.692 370.819, 342.060 370.897, 345.600 372.170 L 350 373.752 350 369.744 C 350 360.396, 336.465 353.192, 330.078 359.142 M 496.467 363.419 C 494.441 379.629, 503.328 396.045, 517.804 402.830 C 526.987 407.135, 542.102 406.800, 550.768 402.101 C 557.943 398.210, 562.842 393.219, 566.424 386.151 L 568.917 381.230 561.709 378.723 C 547.766 373.875, 546.633 373.600, 546.182 374.953 C 544.070 381.291, 534.376 386.945, 525.566 386.978 C 511.953 387.028, 503.022 377.880, 503.006 363.867 C 503 359.347, 501.892 358.096, 497.822 358.014 C 497.449 358.006, 496.839 360.438, 496.467 363.419 M 426.833 362.191 L 421.167 364.111 421.167 368.432 C 421.167 389.382, 392.294 396.705, 381.480 378.499 C 380.536 376.910, 380.178 376.899, 376.716 378.345 L 372.974 379.909 374.939 385.082 C 380.413 399.488, 390.016 406.002, 403.922 404.741 C 420.948 403.197, 434 386.755, 434 366.849 C 434 359.868, 433.892 359.798, 426.833 362.191 M 446.075 397.306 C 444.191 397.963, 442.451 399.110, 442.207 399.855 C 441.869 400.887, 442.327 401.006, 444.132 400.355 C 445.434 399.885, 449.763 399.500, 453.751 399.500 C 460.910 399.500, 462.881 398.262, 457.926 396.877 C 454.196 395.835, 449.846 395.992, 446.075 397.306 M 494.759 397.574 C 494.426 397.908, 494.808 400.038, 495.609 402.308 C 501.357 418.601, 516.734 429.944, 534.250 430.811 C 540.310 431.111, 543 430.900, 543 430.122 C 543 429.437, 540.958 428.995, 537.750 428.988 C 521.662 428.952, 507.356 419.753, 499.158 404.174 C 497.072 400.210, 495.093 397.241, 494.759 397.574 M 425.994 406.546 C 416.786 419.093, 407.250 424.976, 395.579 425.311 C 388.826 425.506, 387.088 426.482, 391.518 427.594 C 402.547 430.362, 421.098 420.220, 428.684 407.277 C 432.647 400.515, 430.791 400.011, 425.994 406.546 M 442.500 403.333 C 439.275 404.795, 435.096 408.881, 438 407.732 C 446.828 404.238, 450.199 403.646, 455.279 404.700 C 460.908 405.867, 462.049 405.649, 460.165 403.765 C 458.401 402.001, 446.100 401.700, 442.500 403.333 M 431.667 416.667 C 430.603 417.730, 430.954 421.362, 432.282 423.034 C 434.510 425.841, 441.239 429.231, 442.033 427.947 C 444.417 424.090, 434.756 413.577, 431.667 416.667 M 458.223 418.661 C 454.551 420.470, 450 425.406, 450 427.577 C 450 429.470, 450.363 429.418, 458.232 426.411 C 463.601 424.360, 465.138 423.300, 465.639 421.304 C 466.695 417.095, 463.622 415.999, 458.223 418.661 M 437.923 458.777 C 434.568 461.775, 433.441 467.841, 435.802 470.202 C 436.733 471.133, 437 470.669, 437 468.123 C 437 464.127, 441.649 459, 445.274 459 C 446.610 459, 449.851 460.143, 452.478 461.539 C 457.780 464.359, 459.315 464.111, 456.413 460.904 C 451.309 455.264, 442.934 454.300, 437.923 458.777 M 652.348 473.813 C 647.864 478.151, 639.633 484.788, 634.055 488.561 L 623.915 495.421 628.707 497.826 C 635.390 501.179, 636.909 502.751, 638.122 507.569 C 639.128 511.565, 639.415 511.817, 644.001 512.724 L 648.821 513.677 649.458 509.088 C 652.212 489.256, 677.925 469.385, 696.981 472.363 C 699.764 472.798, 700.118 472.694, 698.670 471.862 C 695.674 470.141, 679.394 467.144, 669.615 466.512 L 660.500 465.924 652.348 473.813 M 443.975 471.565 C 442.380 475.762, 442.836 477.990, 445.923 481.077 C 450.048 485.202, 456.389 484.284, 457.619 479.383 C 459.251 472.881, 446.297 465.458, 443.975 471.565 M 684 476.443 C 667.539 481.067, 653.967 495.041, 652.304 509.078 C 651.565 515.324, 654.344 516.354, 655.468 510.250 C 658.511 493.720, 675.807 480, 693.602 480 C 711.089 480, 715.963 486.057, 727.804 522.500 C 732.942 538.315, 732.779 537.963, 734.039 535.971 C 739.831 526.813, 719.502 481.450, 707.327 476.363 C 703.286 474.675, 690.134 474.720, 684 476.443 M 691.227 484.775 C 690.230 485.458, 690.473 486.822, 692.352 491.073 C 695.840 498.969, 700.519 514.057, 703.522 527.096 C 704.964 533.355, 706.331 538.665, 706.562 538.895 C 707.264 539.598, 725.222 532.575, 725.666 531.423 C 726.480 529.311, 714.076 495.662, 711.148 492.038 C 706.286 486.022, 695.273 482.007, 691.227 484.775 M 681.750 486.689 C 679.514 487.274, 679.522 487.328, 682.528 492.458 C 686.240 498.791, 690.489 511.073, 694.555 527.220 C 698.644 543.457, 698.212 542.492, 700.788 541.113 C 702.658 540.113, 702.682 539.779, 701.310 533.782 C 698.877 523.151, 693.282 503.884, 689.966 494.719 C 686.765 485.874, 686.365 485.483, 681.750 486.689 M 440.180 489.150 C 440.968 494.447, 451.276 497.583, 458.280 494.656 C 463.984 492.273, 463.340 489.833, 457.514 491.751 C 451.966 493.577, 447.146 492.792, 443.570 489.478 C 440.298 486.445, 439.771 486.394, 440.180 489.150 M 668.661 495.209 C 663.003 500.867, 659.026 509.108, 658.972 515.288 C 658.956 517.054, 660.644 525.137, 662.722 533.249 L 666.500 547.997 670 547.981 C 673.482 547.965, 682.778 546.214, 690.695 544.082 L 694.846 542.964 691.388 529.732 C 685.073 505.570, 679.249 490.864, 675.725 490.185 C 674.706 489.989, 671.849 492.021, 668.661 495.209 M 610.500 502.054 C 606.100 504.190, 597.618 507.579, 591.650 509.585 C 581.203 513.097, 580.532 513.500, 573.558 520.474 C 564.732 529.300, 556.135 541.979, 552.171 552.016 C 547.142 564.750, 546.806 563.661, 555.738 563.575 C 560.007 563.534, 565.549 563.852, 568.053 564.282 L 572.606 565.063 574.890 559.552 C 583.946 537.703, 606.887 517.941, 629.500 512.510 C 633.564 511.534, 634.435 510.953, 634.155 509.405 C 633.661 506.676, 633.758 506.690, 627.112 508.393 C 605.342 513.970, 583.960 532.206, 572.463 555 C 570.937 558.025, 569.484 559.900, 569.233 559.167 C 568.516 557.066, 575.619 543.614, 581.072 536.745 C 592.819 521.949, 617.835 506.163, 629.750 506.026 C 633.682 505.981, 632.196 504.195, 625.607 501.051 C 622.091 499.373, 619.053 498.038, 618.857 498.085 C 618.661 498.132, 614.900 499.918, 610.500 502.054 M 631.298 516.233 L 628.096 517.262 634.419 525.381 C 659.702 557.842, 670.536 588.594, 662.647 605.500 C 660.218 610.704, 653.821 617.287, 650.019 618.494 C 648.589 618.948, 647.984 619.772, 648.294 620.846 C 648.557 621.756, 649.822 626.176, 651.106 630.669 C 653.685 639.694, 654.089 640, 663.434 640 C 670.604 640, 671.500 641.374, 671.500 652.372 C 671.500 663.568, 670.930 664.485, 663.959 664.494 L 659.006 664.500 659.003 671.590 L 659 678.679 668.442 679.840 C 673.634 680.478, 679.266 681, 680.956 681 L 684.028 681 681.446 677.097 C 676.526 669.664, 676.009 666.367, 672.950 623 C 671.648 604.525, 668.676 580.614, 665.873 566.050 C 663.659 554.554, 655.281 519.948, 654.528 519.195 C 653.976 518.643, 636.951 514.996, 635.500 515.119 C 634.950 515.166, 633.059 515.667, 631.298 516.233 M 615.500 522.291 C 605.970 527.445, 600.898 531.305, 593.887 538.737 C 588.247 544.715, 580 556.402, 580 558.416 C 580 558.775, 582.965 562.654, 586.590 567.035 L 593.179 575 601.590 575 C 606.215 575, 609.997 574.663, 609.994 574.250 C 609.991 573.837, 607.052 568.811, 603.463 563.081 C 598.832 555.686, 597.248 552.352, 598.007 551.593 C 599.364 550.236, 602.637 554.192, 609.800 565.842 L 615.100 574.463 622.050 574.142 C 627.665 573.882, 629 574.105, 629 575.301 C 629 577.235, 625.239 577.771, 605.717 578.617 L 589.934 579.301 591.967 581.465 C 594.747 584.424, 594.529 585.538, 590.877 587.051 L 587.753 588.345 590.377 590.256 C 593.927 592.842, 593.694 593.787, 588.985 595.895 L 584.970 597.693 586.985 600.254 C 589.580 603.553, 589.536 603.846, 586.262 605.091 L 583.523 606.132 586.012 608.054 C 595.871 615.673, 628.871 620.652, 642.438 616.569 C 662.964 610.391, 666.306 591.182, 652.019 561.500 C 644.574 546.033, 625.846 518.959, 622.637 519.023 C 622.012 519.035, 618.800 520.506, 615.500 522.291 M 476.568 529.057 C 471.669 534.479, 466.420 542.810, 462.346 551.628 C 457.651 561.790, 457.711 562, 465.342 562 L 471.684 562 474.425 555.013 C 477.271 547.759, 483.772 537, 485.309 537 C 485.794 537, 484.765 539.526, 483.023 542.614 C 478.513 550.604, 473.957 562.343, 474.969 563.363 C 476.016 564.417, 477.998 563.326, 478.005 561.691 C 478.007 561.036, 480.030 556.225, 482.500 551 C 484.970 545.775, 486.993 540.926, 486.995 540.225 C 486.998 539.524, 487.900 536.389, 489 533.260 C 491.865 525.108, 491.821 525, 485.616 525 C 480.592 525, 479.988 525.271, 476.568 529.057 M 722.500 537.547 C 711.658 542.552, 677.152 552, 669.717 552 L 667.318 552 669.664 563.594 C 672.982 579.989, 675.626 602.651, 677.469 630.500 C 679.849 666.454, 681.414 673.430, 688.203 678.358 C 693.346 682.091, 706.618 679.601, 728.979 670.709 C 757.878 659.217, 761.878 648.971, 751.698 612.500 C 744.655 587.263, 727.791 535.988, 726.566 536.081 C 725.980 536.126, 724.150 536.786, 722.500 537.547 M 717.250 543.491 C 714.294 544.776, 712.773 547, 714.851 547 C 717.278 547, 722 544.623, 722 543.402 C 722 541.682, 721.385 541.694, 717.250 543.491 M 700.561 548.893 C 694.667 550.968, 692.874 553.618, 698.132 552.485 C 702.810 551.477, 707.182 549.104, 706.474 547.957 C 706.148 547.431, 705.796 547.035, 705.691 547.078 C 705.586 547.120, 703.278 547.937, 700.561 548.893 M 680 553.666 C 674.703 554.500, 673 555.073, 673 556.019 C 673 557.301, 676.675 557.263, 682.951 555.917 C 691.202 554.148, 688.762 552.286, 680 553.666 M 537.504 558.996 C 535.358 561.193, 532.814 563.242, 531.851 563.547 C 529.719 564.224, 524.465 561.654, 523.653 559.537 C 522.622 556.852, 521.106 557.858, 518.536 562.929 C 515.252 569.409, 514.165 569.945, 511.382 566.455 C 509.250 563.780, 509.048 563.719, 508.393 565.544 C 506.396 571.101, 503.547 570.744, 501.928 564.734 L 500.835 560.674 498.577 563.505 C 497.106 565.351, 495.760 566.122, 494.711 565.719 C 493.694 565.329, 492.910 565.727, 492.579 566.801 C 487.921 581.913, 486.680 647.913, 490.781 662.500 C 497.815 687.526, 513.557 700.033, 537.960 699.985 C 567.477 699.927, 585.352 682.296, 584.882 653.701 C 584.697 642.453, 584.304 641.619, 577 636.934 C 567.529 630.860, 557.985 622.826, 554.142 617.692 C 551.911 614.712, 549.781 613.006, 547.798 612.610 C 543.562 611.762, 538 605.922, 538 602.323 C 538 600.740, 537.283 598.422, 536.407 597.171 C 535.230 595.490, 534.959 593.539, 535.370 589.698 C 536.119 582.691, 536.118 582.936, 535.401 579.236 C 534.573 574.963, 536.536 570.387, 540.098 568.283 C 543.358 566.357, 543.593 565.899, 544.533 559.628 C 545.446 553.543, 543.040 553.327, 537.504 558.996 M 577.122 566.079 L 576.013 569.260 568.757 568.380 C 549.610 566.059, 538 569.955, 539.187 578.302 C 539.476 580.333, 539.956 580.474, 545.500 580.155 C 552.010 579.781, 552.161 580.909, 545.871 582.917 C 540.687 584.572, 538.804 587.031, 539.184 591.652 C 539.491 595.396, 539.595 595.491, 543 595.172 C 544.925 594.992, 547.400 594.767, 548.500 594.672 C 552.563 594.322, 551.348 596.476, 546.750 597.775 C 536.857 600.569, 542.600 608.998, 554.399 609.001 C 556.655 609.001, 561.867 609.704, 565.983 610.563 C 573.486 612.128, 583 611.761, 583 609.906 C 583 609.408, 582.598 609, 582.107 609 C 580.843 609, 579.955 606.280, 580.638 604.500 C 580.955 603.675, 581.889 603, 582.714 603 C 583.756 603, 583.989 602.466, 583.478 601.250 C 581.597 596.774, 581.848 595.513, 584.881 594.192 C 587.854 592.897, 587.864 592.864, 585.942 590.942 C 583.290 588.290, 583.505 586.162, 586.500 585.411 C 589.518 584.653, 589.536 584.497, 586.985 581.253 C 585.175 578.953, 585.124 578.520, 586.483 577.019 C 587.855 575.503, 587.565 574.788, 583.406 569.423 C 580.880 566.165, 578.683 563.365, 578.523 563.199 C 578.362 563.033, 577.732 564.329, 577.122 566.079 M 455.425 567.954 C 441.995 574.814, 439.578 603.245, 451.509 614 L 454.282 616.500 453.637 613.810 C 452.731 610.032, 455.921 608, 462.755 608 C 477.627 608, 480.221 597.641, 465.958 595.206 C 463.593 594.802, 461.472 593.915, 461.245 593.236 C 460.654 591.463, 467.216 591.646, 471.719 593.527 C 476.095 595.355, 478.250 593.992, 478.250 589.395 C 478.250 584.893, 470.737 580.028, 463.750 580.006 C 462.788 580.003, 462 579.325, 462 578.500 C 462 576.575, 465.268 576.571, 471.591 578.489 C 477.978 580.427, 478.724 580.384, 479.995 578.009 C 484.298 569.969, 466.077 562.513, 455.425 567.954 M 745.437 576.604 C 746.990 582.792, 747.942 584.152, 750.251 583.480 C 755.866 581.847, 759 580.537, 759 579.822 C 759 578.284, 753.736 575.643, 749.342 574.976 C 745.024 574.321, 744.879 574.381, 745.437 576.604 M 723.500 581.584 C 707.560 586.423, 687.400 593.347, 685.363 594.682 C 682.417 596.612, 682.395 598.095, 685.008 618.681 C 688.903 649.363, 690.991 655.940, 698.106 659.939 C 706.794 664.823, 724.080 663.121, 738.745 655.938 C 751.277 649.800, 753.534 641.802, 748.475 621.462 C 746.975 615.433, 745.802 608.475, 745.868 606 C 746.044 599.361, 742.357 589.295, 738.103 584.802 C 733.808 580.264, 730.353 579.503, 723.500 581.584 M 754.500 584.318 C 751.750 585.477, 749.332 586.535, 749.127 586.669 C 748.453 587.109, 752.278 600, 753.083 600 C 754.878 600, 759.701 597.703, 762.686 595.426 L 765.882 592.988 763.589 587.794 C 760.867 581.626, 760.878 581.630, 754.500 584.318 M 727.500 584.503 C 726.950 584.692, 718.415 587.401, 708.533 590.523 C 690.619 596.182, 690.576 596.202, 693.826 597.569 C 697.355 599.053, 699.873 603.565, 702.074 612.355 L 703.290 617.209 707.395 616.564 C 717.913 614.911, 719.135 614.236, 718.428 610.468 C 717.725 606.720, 719.330 605.522, 726.700 604.289 C 729.516 603.819, 729.979 604.069, 730.559 606.377 C 731.350 609.529, 732.812 609.647, 738.040 606.980 C 742.979 604.460, 743.173 601.982, 739.103 593.379 C 735.476 585.713, 731.907 582.983, 727.500 584.503 M 312.187 593.750 C 312.737 596.633, 327 596.915, 327 594.044 C 327 592.165, 326.387 592, 319.427 592 C 312.753 592, 311.893 592.208, 312.187 593.750 M 316 602.500 C 316 606.072, 316.050 606.117, 319.750 605.810 C 323.181 605.526, 323.500 605.245, 323.500 602.500 C 323.500 599.755, 323.181 599.474, 319.750 599.190 C 316.050 598.883, 316 598.928, 316 602.500 M 687.100 603.750 C 687.306 611.521, 689.817 614.707, 697.160 616.516 L 699.820 617.172 698.291 611.104 C 696.543 604.163, 693.265 600, 689.548 600 C 687.253 600, 687.010 600.372, 687.100 603.750 M 758.250 602.030 C 753.299 604.230, 753.440 603.566, 756.019 612.503 C 759.505 624.588, 761 631.956, 761 637.062 C 761 642.596, 760.980 642.579, 765.033 640.483 C 771.907 636.928, 772.724 626.544, 767.490 609.250 C 764.455 599.221, 764.497 599.254, 758.250 602.030 M 192.843 603.975 C 183.969 606.655, 179 613.315, 179 622.526 C 179 627.830, 178.652 628.976, 176.405 631.076 C 165.717 641.061, 171.844 659.011, 187.795 664.446 C 195.031 666.911, 196 666.632, 196 662.081 C 196 658.758, 195.216 657.303, 190.852 652.529 C 187.020 648.336, 185.994 646.606, 186.836 645.764 C 187.678 644.922, 188.995 645.745, 191.984 648.983 L 196 653.333 196 643.666 C 196 635.741, 196.270 634, 197.500 634 C 198.652 634, 199 635.278, 199 639.500 C 199 646.003, 199.323 646.129, 203.715 641.336 C 206.221 638.600, 207.359 637.959, 208.207 638.807 C 209.056 639.656, 208.033 641.329, 204.172 645.412 L 199 650.880 199 658.568 L 199 666.256 203.193 665.585 C 220.940 662.747, 230.810 643.543, 220.427 632.051 C 217.457 628.763, 217 627.569, 217 623.097 C 217 609.752, 205.045 600.288, 192.843 603.975 M 393.637 604.465 C 385.457 607.381, 381 613.911, 381 622.982 C 381 627.512, 380.611 629.212, 379.473 629.649 C 378.634 629.971, 376.834 632.134, 375.473 634.455 C 368.336 646.635, 377.924 662.456, 394.305 665.529 L 398 666.223 398 662.192 C 398 658.751, 397.268 657.360, 393 652.690 C 390.250 649.681, 388 646.720, 388 646.110 C 388 643.831, 390.881 645.126, 394.348 648.963 L 397.928 652.927 398.214 643.458 C 398.530 632.991, 400.203 630.643, 401 639.547 L 401.500 645.133 404.946 641.566 C 411.531 634.752, 411.978 637.969, 405.500 645.552 C 401.010 650.807, 401 650.837, 401 658.537 L 401 666.256 405.092 665.601 C 423.244 662.699, 432.489 643.444, 421.614 631.193 C 418.773 627.993, 418.393 626.941, 418.766 623.315 C 420.135 610.038, 406.562 599.857, 393.637 604.465 M 723.196 608.858 C 721.265 610.082, 723.621 619.006, 725.869 618.985 C 729.532 618.950, 730.157 617.617, 728.833 612.666 C 727.592 608.025, 726.099 607.016, 723.196 608.858 M 277 609.758 C 277 610.175, 273.168 616.993, 268.485 624.909 C 263.801 632.825, 260.131 639.464, 260.328 639.662 C 260.526 639.859, 281.012 639.903, 305.853 639.760 L 351.018 639.500 341.824 624.250 L 332.629 609 304.815 609 C 289.517 609, 277 609.341, 277 609.758 M 737.244 611.783 C 733.186 613.342, 733.017 613.571, 733.606 616.713 C 734.179 619.768, 733.963 620.118, 730.644 621.504 C 725.323 623.727, 722.119 623.443, 721.058 620.653 L 720.166 618.306 713.333 619.741 C 705.419 621.402, 696.690 620.925, 692.162 618.584 C 688.262 616.567, 688.314 615.915, 691.003 633.338 C 693.965 652.533, 696.265 656.415, 705.900 658.492 C 708.959 659.151, 709.222 659.038, 708.515 657.362 C 705.988 651.364, 704.945 647.255, 704.364 641.008 C 703.465 631.338, 705.387 631.886, 706.966 641.750 C 709.841 659.721, 713.077 661.387, 731.693 654.480 C 747.385 648.657, 749.659 642.762, 744.514 621.243 C 743.035 615.059, 741.752 610.033, 741.663 610.074 C 741.573 610.114, 739.585 610.883, 737.244 611.783 M 471.013 612.250 C 471.020 612.938, 472.109 615.750, 473.434 618.500 C 476.267 624.381, 477.029 621.611, 474.391 615.020 C 472.848 611.162, 470.986 609.635, 471.013 612.250 M 458 613.525 C 458 617.700, 472.489 641, 475.085 641 C 477.028 641, 476.142 625.438, 474.092 623.584 C 473.043 622.634, 471.231 619.639, 470.065 616.929 L 467.944 612 462.972 612 C 459.183 612, 458 612.363, 458 613.525 M 563.299 620.655 C 580.955 637.583, 609.482 650.883, 642.153 657.419 C 655.863 660.162, 665.497 660.903, 667.066 659.334 C 667.640 658.760, 667.965 655.243, 667.799 651.420 L 667.500 644.538 656 643.392 C 630.653 640.864, 607.937 633.168, 588.383 620.484 C 583.465 617.293, 579.779 615.519, 579.031 615.981 C 577.252 617.080, 588.225 625.683, 599.185 631.781 C 609.129 637.314, 609.831 639.572, 600.189 635.012 C 592.679 631.460, 583.356 625.210, 578.075 620.186 C 574.523 616.807, 573.202 616.274, 564.860 614.849 L 555.591 613.265 563.299 620.655 M 590.500 616.949 C 602.409 625.521, 644.502 640.832, 647.612 637.722 C 648.279 637.054, 645.515 625.899, 643.943 622.918 C 643.226 621.558, 642.153 621.474, 636.305 622.321 C 624.929 623.967, 606.782 621.309, 589.500 615.465 C 588.279 615.053, 588.669 615.630, 590.500 616.949 M 267 664 L 267 684 289.969 684 L 312.938 684 313.219 671.750 L 313.500 659.500 322.500 659.500 L 331.500 659.500 331.781 671.750 L 332.062 684 338.031 684 L 344 684 344 664 L 344 644 305.500 644 L 267 644 267 664 M 275.453 656.533 C 274.571 663.592, 275.372 670.988, 277.141 672.108 C 279.532 673.623, 299.593 673.195, 300.916 671.601 C 301.666 670.698, 301.975 666.886, 301.789 660.851 L 301.500 651.500 288.826 651.221 L 276.151 650.941 275.453 656.533 M 279 657 C 279 659.833, 279.222 660, 283 660 C 286.778 660, 287 659.833, 287 657 C 287 654.167, 286.778 654, 283 654 C 279.222 654, 279 654.167, 279 657 M 290 657.057 C 290 660.036, 290.110 660.107, 294.250 659.807 C 298.053 659.532, 298.533 659.211, 298.816 656.750 C 299.121 654.105, 298.958 654, 294.566 654 C 290.140 654, 290 654.094, 290 657.057 M 316.710 662.623 C 316.320 663.014, 316 667.983, 316 673.667 L 316 684 322.534 684 L 329.068 684 328.784 673.250 L 328.500 662.500 322.960 662.206 C 319.913 662.045, 317.101 662.232, 316.710 662.623 M 253.289 664.745 C 252.073 665.710, 250.391 668.160, 249.551 670.189 C 248.121 673.644, 247.804 673.843, 244.558 673.316 C 240.323 672.629, 235 677.144, 235 681.423 L 235 684 249.535 684 L 264.070 684 263.785 673.750 L 263.500 663.500 259.500 663.245 C 256.877 663.077, 254.739 663.594, 253.289 664.745 M 279 666.276 C 279 669.496, 279.070 669.546, 283 669.171 C 286.658 668.823, 287 668.542, 287 665.895 C 287 663.184, 286.746 663, 283 663 C 279.147 663, 279 663.121, 279 666.276 M 290 666 C 290 668.889, 290.167 669, 294.500 669 C 298.833 669, 299 668.889, 299 666 C 299 663.111, 298.833 663, 294.500 663 C 290.167 663, 290 663.111, 290 666 M 347.598 665.736 C 347.269 666.064, 347 670.308, 347 675.167 L 347 684 357 684 C 366.920 684, 367 683.981, 367 681.573 C 367 678.338, 362.380 674.688, 359.273 675.468 C 357.323 675.957, 356.867 675.585, 356.369 673.094 C 355.549 668.994, 349.453 663.880, 347.598 665.736 M 814.920 679.483 C 813.492 680.259, 810.859 683.704, 809.026 687.193 C 794.051 715.699, 774.853 728.918, 748.338 728.983 C 726.093 729.037, 709.624 721.999, 674.266 697.327 C 665.337 691.097, 657.647 686, 657.178 686 C 655.647 686, 652.335 697.269, 653.728 697.738 C 654.403 697.966, 659.128 701.107, 664.228 704.718 C 699.732 729.861, 716.689 738.154, 738.538 741.062 C 771.023 745.385, 806.205 727.175, 820.544 698.616 C 827.109 685.539, 823.894 674.603, 814.920 679.483 M 305 687.430 C 305 687.666, 307.096 688.904, 309.657 690.180 C 324.128 697.390, 323.333 703.241, 307.108 708.934 C 295.975 712.840, 287.563 717.106, 287.260 719 C 287.118 719.886, 289.574 722.138, 293.260 724.500 C 304.560 731.743, 302.197 735.349, 283.099 740.006 C 270.948 742.969, 266.949 746.048, 268.956 750.894 C 269.681 752.645, 271.132 754.536, 272.181 755.097 C 274.397 756.283, 392.074 756.190, 393.999 755.001 C 394.702 754.566, 391.545 752.978, 386.348 751.152 C 365.794 743.932, 364.312 741.718, 373.553 732.030 C 382.104 723.065, 380.807 721.883, 359.256 719.006 C 339.487 716.367, 336.908 713.650, 346.441 705.506 C 354.091 698.971, 353.289 698.007, 334.394 691.039 C 324.608 687.431, 322.559 687.021, 314.250 687.011 C 309.163 687.005, 305 687.193, 305 687.430 M 535.112 733.610 C 528.213 740.664, 523.661 747.370, 522.460 752.250 L 521.783 755 556.934 755 L 592.084 755 589.377 750.381 C 587.889 747.841, 585.052 742.006, 583.074 737.416 L 579.477 729.069 564.988 728.609 C 557.020 728.356, 548.554 727.827, 546.175 727.434 L 541.850 726.720 535.112 733.610 M 666.250 760.787 C 662.490 761.180, 662.505 761.141, 664.572 765.140 C 666.904 769.649, 665.885 771, 660.154 771 L 655.246 771 655.751 775.482 C 656.368 780.960, 654.573 782.120, 649.340 779.625 C 645.724 777.901, 644 778.169, 644 780.458 C 644 783.242, 636.230 792.964, 629.250 798.914 C 625.141 802.417, 622 805.887, 622 806.924 C 622 809.004, 625.134 812.060, 625.667 810.500 C 626.632 807.672, 630.205 802.912, 632.483 801.419 C 636.345 798.889, 636.677 800.465, 633.133 804.501 C 628.083 810.253, 629.158 813, 636.457 813 C 639.302 813, 639.830 812.599, 640.339 810.056 C 640.982 806.841, 646.426 800.092, 647.506 801.172 C 647.874 801.541, 646.951 803.933, 645.454 806.488 C 641.980 812.417, 642.945 813.755, 649.506 812.103 C 660.822 809.254, 668.752 799.661, 675.138 781.098 C 679.308 768.980, 675.308 759.839, 666.250 760.787 M 479 782.585 C 476.525 783.352, 470.806 784.928, 466.291 786.088 C 452.640 789.595, 442.070 797.729, 444.808 802.621 C 445.613 804.060, 446.023 803.755, 447.519 800.601 C 449.261 796.930, 454.606 792, 456.844 792 C 458.770 792, 458.183 793.057, 454 797.116 C 448.833 802.130, 448.651 805, 453.500 805 C 456.206 805, 457 804.591, 457 803.196 C 457 799.690, 467.203 791.803, 469.181 793.781 C 469.802 794.402, 468.853 795.546, 466.522 796.986 C 462.445 799.506, 459.501 803.384, 460.473 804.956 C 461.392 806.444, 470.380 806.210, 478 804.500 C 481.575 803.697, 491.223 802.573, 499.440 802.002 C 510.512 801.231, 515.172 800.501, 517.440 799.180 C 522.819 796.048, 521.790 789.577, 515.052 784.162 L 511.261 781.115 508.880 784.741 C 505.604 789.732, 504.551 789.777, 500.353 785.100 L 496.703 781.035 492.782 784.578 C 488.260 788.663, 486.886 788.585, 485.620 784.172 C 485.120 782.427, 484.438 781.043, 484.105 781.096 C 483.772 781.148, 481.475 781.818, 479 782.585" stroke="none" fill="#1a1a1a" fill-rule="evenodd"/>
</svg>