<svg xmlns="http://www.w3.org/2000/svg" width="1024" height="1024" viewBox="0 0 1024 1024" version="1.1">
	<path d="M 509.013 130.750 C 509.020 131.713, 511.496 135.569, 514.515 139.320 C 523.197 150.106, 523.234 150.375, 515.640 147.516 C 499.457 141.425, 477.327 140.311, 462.986 144.866 C 450.097 148.959, 450.101 151.487, 463 154.514 C 475.982 157.561, 475.982 158.040, 463 160.734 C 394.410 174.965, 342.530 221.411, 326.283 283.131 L 323.747 292.762 319.456 289.866 C 310.875 284.075, 297.904 281.179, 288.395 282.931 C 249.561 290.088, 234.598 348.578, 260.932 390.275 C 272.456 408.522, 296.962 422.901, 316.678 422.983 L 320.855 423 317.842 428.842 C 316.185 432.055, 314.755 436.217, 314.665 438.092 C 314.512 441.250, 314.708 441.485, 317.338 441.300 C 319.681 441.134, 320.039 441.396, 319.393 442.800 C 318.070 445.674, 317.769 456.700, 318.954 458.913 C 320.253 461.341, 322.808 461.664, 323.636 459.506 C 324.459 457.362, 326 458.686, 326 461.536 C 326 468.404, 334.016 483.571, 343.384 494.430 C 358.976 512.503, 392.726 533.976, 420.747 543.652 C 425.283 545.218, 428.991 546.725, 428.986 547 C 428.980 547.275, 426.296 548.972, 423.020 550.772 C 409.588 558.149, 376.991 584.468, 366.998 596.002 L 361.755 602.054 362.972 606.400 C 364.164 610.656, 364.106 610.868, 360.208 616.623 C 349.093 633.035, 345.179 647.437, 348.624 659.250 C 349.070 660.777, 348.380 661, 343.211 661 L 337.288 661 328.894 670.707 C 324.277 676.047, 311.613 690.514, 300.750 702.858 L 281 725.301 281 737.151 L 281 749 293.500 749 L 306 749 306 761 L 306 773 238 773 C 193.333 773, 170 773.343, 170 774 C 170 774.656, 192.592 775.005, 235.750 775.014 C 271.913 775.021, 302.512 775.299, 303.750 775.630 C 305.990 776.231, 306 776.324, 306 796.617 L 306 817 229.250 817.077 C 155.243 817.150, 149.424 817.242, 148.308 818.358 C 145.903 820.763, 153.004 821, 227.546 821 L 305.974 821 306.237 855.250 L 306.500 889.500 320.610 889.777 L 334.719 890.053 338.360 886.024 L 342 881.994 342 851.497 L 342 821 345.500 821 L 349 821 349 839 L 349 857 359.411 857 C 369.809 857, 369.825 856.996, 372.411 853.923 C 374.943 850.914, 375 850.519, 375 835.923 L 375 821 395.250 821.002 L 415.500 821.004 418.429 825.640 C 420.040 828.190, 423.071 832.555, 425.163 835.340 L 428.969 840.404 426.984 842.517 C 425.893 843.678, 425 845.156, 425 845.800 C 425 846.444, 422.287 848.341, 418.970 850.015 C 408.679 855.210, 402 862.496, 402 868.527 C 402 871.717, 406.962 877, 409.958 877 C 411.120 877, 413.181 877.727, 414.537 878.616 C 415.894 879.505, 418.242 880.330, 419.756 880.449 C 421.269 880.568, 423.581 881.240, 424.893 881.943 C 434.045 886.841, 446.214 883.721, 464.764 871.721 C 471.277 867.508, 471.778 867.356, 477.771 867.790 C 494.798 869.021, 500.087 854.703, 486.039 845.407 C 483.818 843.937, 482 842.222, 482 841.595 C 482 840.968, 480.629 838.793, 478.954 836.760 C 475.911 833.069, 475.910 833.059, 477.154 827.033 L 478.400 821 491.700 821 L 505 821 505.056 836.250 C 505.121 853.806, 505.994 857.411, 511 860.801 C 517.755 865.377, 526.110 861.752, 528.046 853.407 C 528.544 851.258, 528.963 843.087, 528.976 835.250 L 529 821 540.891 821 L 552.783 821 554.391 828.123 C 556.796 838.771, 556.573 841.230, 553.014 843.333 C 538.351 851.994, 543.774 868.244, 560.798 866.654 C 567.195 866.057, 567.223 866.066, 576.763 871.681 C 592.670 881.042, 605.670 884.266, 612.800 880.618 C 614.285 879.858, 617.387 878.923, 619.692 878.540 C 621.998 878.157, 624.416 877.204, 625.065 876.422 C 625.714 875.640, 627.349 875, 628.699 875 C 631.720 875, 637 869.935, 637 867.037 C 637 860.565, 630.667 853.798, 619.387 848.217 C 614.552 845.824, 612.366 844.210, 612.718 843.292 C 613.007 842.540, 612.473 841.076, 611.533 840.037 C 609.904 838.237, 610.010 837.896, 613.770 832.824 C 615.941 829.896, 618.553 826.038, 619.574 824.250 L 621.431 821 644.864 821 L 668.297 821 667.609 835.766 L 666.921 850.532 670.298 853.804 L 673.674 857.076 683.587 856.788 L 693.500 856.500 693.500 838.749 L 693.500 820.999 697.309 820.999 C 699.712 821, 700.879 821.387, 700.470 822.049 C 700.113 822.626, 700.151 836.634, 700.554 853.177 L 701.286 883.257 704.247 886.628 L 707.207 890 721.604 890 L 736 890 736 855.507 L 736 821.014 804.750 820.757 C 865.080 820.531, 873.500 820.316, 873.500 819 C 873.500 817.684, 865.080 817.469, 804.750 817.243 L 736 816.986 736 796.104 C 736 780.041, 736.288 775.233, 737.250 775.269 C 752.737 775.844, 850 774.749, 850 774 C 850 773.345, 830.333 773, 793 773 L 736 773 736 761 L 736 749 748.500 749 L 761 749 761 737.015 L 761 725.030 739.341 700.265 C 727.429 686.644, 716.619 674.340, 715.320 672.923 C 713.032 670.427, 713.007 670.227, 714.545 666.546 C 716.763 661.239, 715.654 655.685, 711.466 651.114 C 706.554 645.754, 703.059 646.159, 683.714 654.331 L 667.928 661 645.151 661 L 622.374 661 619.228 647.750 C 615.247 630.986, 614.017 623.224, 614.008 614.798 L 614 608.096 618.250 605.189 C 620.587 603.590, 634.540 596.386, 649.256 589.180 C 680.333 573.963, 681 573.458, 681 565.152 L 681 559.214 694.250 549.723 C 701.538 544.502, 711.550 537.640, 716.500 534.473 C 721.450 531.306, 727.188 527.391, 729.250 525.774 C 733.430 522.495, 734.282 519, 730.901 519 C 729.129 519, 729.526 518.266, 733.443 514.292 C 738.994 508.662, 739.358 505.359, 734.386 505.735 L 731.273 505.971 735.540 494.735 C 737.887 488.556, 741.520 476.750, 743.614 468.500 L 747.422 453.500 753.961 450.284 C 772.506 441.164, 787.969 421.371, 793.636 399.500 C 796.135 389.855, 796.139 369.064, 793.644 360 C 788.238 340.364, 776.011 324.893, 761.356 319.145 L 756.500 317.241 754.747 307.081 C 750.389 281.816, 737.026 261.042, 719.061 251.602 C 708.196 245.892, 700.075 245.542, 694.151 250.526 L 691.148 253.053 686.165 244.587 C 663.131 205.452, 623.791 175.552, 577.502 162 C 570.792 160.036, 566.972 158.206, 562.500 154.813 C 540.567 138.174, 508.964 123.957, 509.013 130.750 M 521.310 141.279 C 526.984 149.187, 529.709 154.624, 528.571 155.762 C 528.187 156.146, 525.089 155.400, 521.687 154.105 C 501.378 146.374, 483.110 144.278, 467.500 147.887 L 461.500 149.275 471.181 152.406 C 480.822 155.526, 486.694 159.147, 489.874 163.937 L 491.459 166.324 487.329 163.947 C 482.385 161.101, 474.484 161.849, 454.151 167.087 C 387.772 184.188, 341.521 231.170, 327.735 295.500 C 324.883 308.806, 324.730 310.714, 324.655 334 C 324.568 360.932, 325.687 370.372, 332.213 397.741 L 335.370 410.982 332.139 415.241 C 327.058 421.938, 320 432.751, 320 433.838 C 320 434.460, 321.099 434.411, 322.962 433.708 C 327.138 432.132, 327.585 433.214, 325.121 438.940 C 323.042 443.773, 321.168 453, 322.265 453 C 322.561 453, 323.732 451.425, 324.867 449.500 C 327.896 444.366, 329 445.119, 329 452.318 C 329 460.014, 331.050 467.313, 335.720 476.250 C 339.670 483.808, 341.750 485.250, 339.327 478.750 C 336.895 472.227, 336.371 453.004, 338.408 445.052 C 340.458 437.052, 344.859 428.312, 350.718 420.608 L 355.239 414.663 349.609 403.951 C 337.075 380.105, 332.477 359.494, 332.552 327.500 C 332.607 303.631, 333.350 298.981, 339.606 283.313 C 358.147 236.883, 405.407 218.253, 449.268 240.084 C 461.440 246.142, 467.075 250.249, 483.121 264.757 L 485.742 267.127 492.621 262.689 C 541.614 231.085, 603.327 231.530, 637.995 263.737 C 670.155 293.614, 678.233 342.686, 658.394 387.659 C 652.458 401.115, 635.993 423.759, 627.063 430.748 L 624.179 433.005 630.657 439.226 C 643.854 451.899, 649.008 463.323, 648.988 479.855 C 648.966 497.921, 644.351 508.390, 629.565 523.921 L 622.500 531.341 629.500 527.511 C 650.296 516.130, 665.941 502.953, 668.691 494.500 L 669.667 491.500 671.148 495.943 L 672.629 500.386 674.432 495.943 C 675.424 493.499, 676.520 488.161, 676.868 484.080 C 677.618 475.282, 678.884 474.357, 682.565 479.919 C 684.039 482.146, 685.639 483.723, 686.122 483.425 C 687.515 482.564, 687.142 472.786, 685.511 467.409 C 684.692 464.709, 684.017 462.387, 684.011 462.250 C 683.968 461.251, 687.709 462.369, 690.096 464.068 C 692.601 465.852, 693 465.912, 693 464.506 C 693 461.497, 687.983 452.234, 682.931 445.913 C 679.729 441.908, 678.144 439.079, 678.539 438.073 C 684.621 422.564, 692.667 377.536, 693.852 352.375 L 694.589 336.722 698.544 333.343 C 700.720 331.484, 704.442 328.734, 706.816 327.232 C 711.666 324.162, 711.766 323.118, 708.374 310.896 C 706.868 305.470, 706.645 305.221, 701.312 303.010 C 692.992 299.562, 689.337 291.246, 693.518 285.277 C 694.899 283.306, 694.854 282.810, 693.022 279.805 C 690.642 275.900, 690.501 273.481, 692.436 269.770 C 693.789 267.177, 693.583 266.529, 688.288 256.770 C 663.345 210.802, 626.286 180.973, 575 165.586 C 569.169 163.836, 564.353 161.199, 553.360 153.737 C 545.582 148.458, 535.007 142.134, 529.860 139.684 C 515.178 132.695, 515.154 132.699, 521.310 141.279 M 397.017 236.564 C 369.949 242.431, 347.552 265.749, 339.578 296.363 C 336.587 307.845, 335.722 318.009, 336.301 334.883 C 337.194 360.954, 342.358 381.278, 353.511 402.623 L 359.846 414.745 355.431 420.623 C 339.412 441.948, 336.341 464.960, 346.767 485.555 C 362.028 515.703, 416.762 544.345, 477 553.704 C 491.404 555.942, 534.742 556.236, 548 554.185 C 587.224 548.119, 610.952 537.634, 628.917 518.430 C 640.343 506.216, 645.014 494.935, 644.979 479.645 C 644.943 463.992, 640.064 453.701, 626.422 440.500 L 619.187 433.500 627.279 425 C 653.613 397.339, 664.549 371.120, 664.401 336 C 664.282 307.795, 655.861 286.855, 637.359 268.754 C 604.086 236.204, 544.817 234.983, 495.171 265.826 C 490.590 268.671, 486.181 271, 485.373 271 C 484.565 271, 479.596 267.164, 474.330 262.477 C 449.137 240.046, 422.359 231.071, 397.017 236.564 M 698.230 252.551 C 694.624 255.077, 693.648 257.737, 695.069 261.167 C 696.055 263.548, 696.731 264.023, 698.403 263.509 C 709.831 259.999, 719.385 261.863, 729.500 269.576 C 732.260 271.681, 736.818 278, 735.577 278 C 735.282 278, 732.669 276.196, 729.770 273.992 C 720.191 266.707, 707.093 263.832, 700.059 267.470 C 693.770 270.722, 694.402 281.047, 700.781 279.261 C 707.967 277.249, 717.378 278.389, 725.101 282.205 C 732.009 285.619, 737.991 290.342, 736.852 291.481 C 736.583 291.750, 732.794 290.163, 728.431 287.955 C 714.667 280.986, 704.531 280.315, 698.850 285.997 C 691.751 293.095, 697.741 299.571, 713.207 301.517 C 720.774 302.470, 722.518 304.549, 722.405 312.485 L 722.311 319.139 724.905 318.438 C 731.346 316.698, 736.048 316.084, 743.250 316.044 L 751 316 750.993 312.250 C 750.971 300.625, 742.751 279.729, 734.318 269.863 C 721.687 255.085, 705.618 247.377, 698.230 252.551 M 446.528 287.649 C 449.155 292.590, 449.619 297.355, 448.017 302.940 C 446.690 307.568, 447.459 307.936, 449.942 303.863 C 452.821 299.142, 452.745 291.240, 449.784 287.385 C 445.149 281.349, 443.260 281.502, 446.528 287.649 M 525.001 286.242 C 518.179 290.886, 515.207 299.257, 517.993 305.983 C 519.903 310.594, 520.916 309.587, 520.307 303.684 C 519.682 297.626, 521.254 293.576, 526.294 288.265 C 530.092 284.262, 529.430 283.228, 525.001 286.242 M 279.305 290.468 C 249.226 305.581, 242.563 357.007, 266.363 390.360 C 277.393 405.817, 293.704 415.744, 311.855 418.045 C 322.205 419.357, 324.908 418.688, 328.280 413.979 L 331.060 410.098 328.595 400.299 C 325.359 387.433, 322.313 371.250, 321.454 362.369 C 320.969 357.345, 320.135 354.452, 318.633 352.577 L 316.500 349.916 311.791 352.910 C 303.817 357.980, 298 368.428, 298 377.682 C 298 379.507, 297.550 381, 297 381 C 296.445 381, 296 378.346, 296 375.038 C 296 363.956, 301.652 353.633, 310.585 348.398 L 315.022 345.797 309.761 339.717 C 295.914 323.715, 283.715 319.641, 273.339 327.555 C 269.405 330.556, 268.973 329.375, 272.480 325.206 C 277.426 319.328, 286.963 318.383, 296.204 322.857 C 301.700 325.517, 312.433 335.129, 316.546 341.073 L 319.500 345.343 320.132 327.921 C 320.479 318.340, 321.305 307.587, 321.966 304.028 C 323.386 296.387, 322.989 295.853, 312 290.605 C 301.525 285.602, 289.094 285.550, 279.305 290.468 M 435.017 291.958 C 430.233 303.510, 405.328 312.975, 379.667 312.994 C 374.269 312.998, 371.951 313.353, 372.212 314.135 C 372.739 315.717, 380.565 318.647, 388.677 320.299 L 395.500 321.688 390.160 324.407 C 365.399 337.012, 360.313 370.187, 380.137 389.790 C 390.761 400.296, 405.033 402.569, 422.500 396.538 C 423.600 396.158, 422.700 397.015, 420.500 398.443 C 415.017 402.002, 407.704 403.998, 399.714 404.118 C 391.952 404.234, 390.864 405.557, 397.687 406.580 C 403.514 407.454, 412.624 405.828, 418.590 402.848 C 423.316 400.488, 430.520 394.187, 429.574 393.240 C 429.273 392.940, 430.860 390.706, 433.099 388.277 C 440.577 380.164, 443.500 372.218, 443.500 360 C 443.500 347.352, 441.161 341.223, 433.070 332.667 C 428.219 327.538, 419.026 322, 415.363 322 C 412.377 322, 415.140 320.368, 421.361 318.457 C 438.159 313.297, 446.815 302.217, 441.354 292.866 C 438.764 288.431, 436.606 288.122, 435.017 291.958 M 531.400 295.400 C 527.553 299.247, 526.734 305.651, 529.423 310.852 C 533.341 318.428, 547.378 327.035, 561.958 330.801 L 569.416 332.727 560.958 333.173 C 545.949 333.965, 533.439 342.268, 526.734 355.890 C 522.219 365.061, 521.916 382.164, 526.112 391 C 534.247 408.130, 550.621 417.181, 568.203 414.268 C 609.863 407.365, 614.624 349.864, 574.776 334.886 L 569.500 332.903 577 333.454 C 583.974 333.965, 598.791 332.836, 603.116 331.463 C 606.409 330.418, 605.159 329.279, 599.965 328.590 C 567.674 324.306, 537 307.847, 537 294.804 C 537 291.110, 535.534 291.266, 531.400 295.400 M 712.023 307.250 C 712.035 307.938, 712.855 311.650, 713.844 315.500 C 715.379 321.473, 715.796 322.206, 716.684 320.500 C 718.385 317.234, 719.124 310.099, 717.982 307.966 C 716.821 305.797, 711.986 305.215, 712.023 307.250 M 730 321.560 C 721.928 323.300, 711.257 328.532, 703.906 334.354 L 698.312 338.784 697.646 355.642 C 697.280 364.914, 696.373 376.100, 695.630 380.500 L 694.279 388.500 696.389 385.514 C 714.079 360.490, 745.864 346.795, 761.215 357.583 C 765.745 360.767, 770.002 366.253, 769.996 368.898 C 769.994 369.823, 769.166 369.144, 768.035 367.290 C 764.584 361.630, 758.701 358.574, 750.453 358.158 C 737.982 357.528, 727.926 361.569, 714.653 372.543 L 707.806 378.204 710.669 379.945 C 722.065 386.875, 729.066 403.570, 724.818 413.685 C 723.720 416.300, 723.587 415.966, 722.947 409 C 722.091 399.663, 720.325 395.393, 714.878 389.484 C 708.866 382.961, 705.310 381.220, 702.977 383.657 C 699.213 387.589, 692.161 399.006, 691.541 402.172 C 691.183 404.002, 689.045 413.053, 686.791 422.285 L 682.693 439.070 685.596 442.124 C 695.476 452.517, 718.367 456.894, 737.391 452.028 C 781.642 440.710, 804.989 387.543, 783.704 346.561 C 772.511 325.011, 753.990 316.389, 730 321.560 M 394.257 327.059 C 360.516 340.417, 367.188 393.206, 402.940 395.764 C 418.158 396.852, 429.761 390.059, 436.314 376.225 C 440.831 366.691, 441.010 352.370, 436.715 344.216 C 428.553 328.720, 409.504 321.023, 394.257 327.059 M 551.727 338.888 C 542.283 342.012, 535.290 348.079, 530.274 357.500 C 527.968 361.832, 527.570 363.904, 527.297 373 L 526.982 383.500 529.372 378.392 C 537.642 360.715, 562.413 363.570, 566.452 382.666 C 568.848 393.993, 555.975 406.589, 544.091 404.546 L 540.500 403.928 543.521 405.917 C 560.365 417.007, 586.358 408.610, 595.339 389.176 C 598.793 381.702, 598.482 365.500, 594.738 357.875 C 586.990 342.098, 567.728 333.595, 551.727 338.888 M 401.340 355.997 C 389.952 358.568, 383.921 370.696, 388.538 381.746 C 393.860 394.483, 410.543 397.118, 419.716 386.670 C 431.192 373.600, 418.346 352.158, 401.340 355.997 M 410.390 363.427 C 409.195 366.539, 410.445 369.494, 413.086 369.801 C 416.382 370.184, 418.417 367.797, 417.593 364.513 C 416.874 361.649, 411.389 360.823, 410.390 363.427 M 553 374 C 550.592 376.408, 550.465 378.322, 552.571 380.429 C 555.403 383.260, 560 381.138, 560 377 C 560 375.051, 557.516 372, 555.929 372 C 555.418 372, 554.100 372.900, 553 374 M 460.500 394.446 C 457.697 395.713, 458.058 395.799, 466 395.749 C 470.675 395.720, 475.512 396.020, 476.750 396.415 C 478.083 396.842, 479 396.719, 479 396.114 C 479 393.338, 465.621 392.132, 460.500 394.446 M 456.923 400.484 C 454.406 401.296, 451.481 402.934, 450.423 404.126 C 449.070 405.651, 448.944 406.119, 450 405.706 C 461.360 401.265, 473.246 400.971, 482.333 404.907 C 488.029 407.374, 488.629 407.462, 487.091 405.610 C 482.952 400.623, 465.627 397.679, 456.923 400.484 M 531.186 405.132 C 536.055 413.825, 548.517 420.989, 559.861 421.614 L 566.500 421.980 559.720 420.093 C 549.397 417.219, 542.896 413.594, 536.239 406.998 C 529.099 399.924, 528.053 399.538, 531.186 405.132 M 442.200 413.200 C 439.493 415.907, 441.032 421.448, 445.072 423.537 C 449.479 425.816, 450.465 425.262, 447.077 422.411 C 445.385 420.987, 444 419.412, 444 418.911 C 444 416.868, 446.822 418.235, 450.547 422.082 C 458.277 430.066, 466.828 431.435, 475 425.997 C 480.222 422.523, 485.492 420.568, 487.046 421.528 C 488.459 422.402, 485.296 425.994, 483.095 426.015 C 482.218 426.024, 480.825 426.510, 480 427.095 C 478.879 427.890, 479.594 428.034, 482.828 427.664 C 488.073 427.064, 491 424.643, 491 420.902 C 491 413.887, 484.089 414.302, 473.151 421.975 C 463.974 428.412, 460.362 427.747, 453.959 418.440 C 449.732 412.297, 445.147 410.253, 442.200 413.200 M 458.569 438.118 C 455.971 444.612, 454.028 454.009, 454.045 460 C 454.066 467.217, 455.324 464.986, 457.429 454 C 458.325 449.325, 459.679 442.913, 460.439 439.750 C 462.042 433.075, 460.964 432.134, 458.569 438.118 M 693.546 454.750 C 695.965 460.316, 698.066 467.529, 697.803 469.363 C 697.425 472.003, 694.408 472.679, 692.145 470.632 C 690.551 469.188, 690.464 469.528, 690.821 475.834 C 691.447 486.908, 686.473 494.489, 682.928 487.865 C 681.560 485.310, 680.046 486.934, 680.006 491 C 679.974 494.104, 675.894 503.024, 673.659 504.872 C 672.324 505.977, 671.705 506, 670.492 504.993 C 669.233 503.948, 668.201 504.467, 664.242 508.137 C 661.634 510.554, 658.191 513.545, 656.592 514.784 L 653.684 517.036 655.726 525.307 C 659.026 538.677, 668.460 560, 671.074 560 C 671.571 560, 676.819 556.641, 682.738 552.535 C 688.657 548.429, 700.587 540.302, 709.250 534.476 C 725.121 523.800, 726.863 522.358, 722.750 523.297 C 721.513 523.579, 719.649 523.487, 718.610 523.093 C 717.026 522.492, 717.789 521.613, 723.310 517.673 C 731.264 511.997, 732.423 510.529, 728.220 511.452 C 723.837 512.414, 723.620 510.970, 727.095 503.967 C 732.058 493.964, 743.189 457.855, 741.752 456.419 C 741.445 456.112, 738.437 456.404, 735.067 457.067 C 725.947 458.861, 706.952 457.809, 700 455.125 C 693.325 452.547, 692.570 452.504, 693.546 454.750 M 442.746 472.086 C 437.151 473.404, 430.082 477.279, 424.849 481.894 L 420.198 485.996 419.246 482.248 L 418.295 478.500 417.492 481.436 C 416.431 485.318, 418.751 491.802, 421.950 493.896 C 424.294 495.430, 424.365 495.413, 423.587 493.500 C 421.696 488.852, 421.879 488.504, 428.494 484.154 C 438.855 477.343, 444.665 475.682, 456 476.291 C 469.906 477.038, 486.808 483.665, 505.281 495.614 C 512.446 500.248, 514 500.800, 514 498.712 C 514 496.834, 505.857 490.329, 496.578 484.794 C 478.158 473.807, 456.818 468.769, 442.746 472.086 M 514.015 489.028 C 515.758 492.284, 514.785 501.476, 512.420 504.088 C 511.365 505.254, 508.927 507.041, 507.001 508.060 L 503.500 509.912 506.800 509.956 C 516.530 510.086, 522.382 499.476, 517.341 490.844 C 515.117 487.036, 512.054 485.364, 514.015 489.028 M 443 490.442 C 443 492.989, 447.230 494.924, 457.588 497.114 C 463.040 498.267, 468.258 499.613, 469.184 500.105 C 471.376 501.270, 472 501.234, 472 499.945 C 472 498.293, 462.223 494.230, 454.175 492.537 C 450.156 491.691, 445.998 490.534, 444.934 489.965 C 443.418 489.154, 443 489.257, 443 490.442 M 644.720 523.362 C 640.196 526.332, 639.972 526.687, 640.546 530 C 642.408 540.745, 652.592 564.005, 659.486 573.259 L 663.032 578.017 668.266 575.388 C 671.145 573.942, 673.607 572.669, 673.737 572.559 C 673.868 572.449, 671.096 567.992, 667.577 562.656 C 660.338 551.676, 654.587 538.817, 652.301 528.500 C 650.326 519.590, 650.394 519.636, 644.720 523.362 M 624.248 535.132 C 612.455 541.071, 588.661 549.768, 575.264 553.036 C 571.432 553.971, 570.764 554.616, 568.270 559.785 C 563.925 568.789, 551.480 580.679, 540.988 585.852 C 509.225 601.511, 470.030 589.252, 455.371 559.074 L 452.603 553.377 444.096 551.123 L 435.589 548.869 428.375 552.531 C 417.949 557.823, 377.946 588.280, 378.017 590.872 C 378.027 591.217, 381.228 593.193, 385.132 595.263 L 392.229 599.025 396.118 595.513 C 403.116 589.190, 404.842 589.924, 417.997 604.805 C 422.521 609.923, 426.427 613.906, 426.676 613.657 C 426.926 613.408, 427.787 610.345, 428.589 606.852 C 430.545 598.344, 435.006 584.742, 436.250 583.500 C 437.389 582.362, 437.556 581.339, 433.087 602.815 L 429.900 618.131 438.931 627.926 L 447.962 637.720 456.896 638.230 C 470.456 639.003, 476.659 642.617, 478.454 650.791 L 479.170 654.052 489.335 653.399 C 501.113 652.642, 509.146 653.934, 516.167 657.715 L 520.835 660.228 526.369 657.520 C 537.864 651.896, 558.126 651.905, 587.500 657.546 C 600.749 660.090, 618 661.834, 618 660.630 C 618 660.263, 617.140 656.709, 616.088 652.732 C 607.817 621.447, 608.094 602.738, 617.046 588.137 C 619.902 583.478, 620.349 584.663, 618.159 591.086 C 614.199 602.694, 612.606 602.720, 636.789 590.785 C 648.730 584.892, 658.922 579.913, 659.438 579.722 C 659.954 579.531, 657.844 575.568, 654.748 570.916 C 648.043 560.838, 642.610 548.650, 639.628 536.991 L 637.451 528.483 624.248 535.132 M 459.121 560.076 C 477.011 593.641, 526.879 599.838, 555.088 572.001 C 561.094 566.074, 567.866 556.533, 566.813 555.480 C 566.577 555.243, 563.485 555.586, 559.942 556.242 C 553.937 557.353, 553.059 557.877, 547 563.967 C 527.156 583.912, 495.382 583.866, 475.852 563.863 C 470.294 558.171, 468.407 556.879, 464.352 555.990 C 461.683 555.405, 458.661 554.672, 457.636 554.360 C 456.063 553.881, 456.295 554.773, 459.121 560.076 M 480.731 562.852 C 497.452 578.786, 527.467 578.486, 543.292 562.226 L 547.083 558.331 540.292 559.264 C 533.304 560.224, 483.858 559.606, 478.500 558.492 C 475.628 557.894, 475.723 558.080, 480.731 562.852 M 674.145 562.890 C 673.028 563.597, 673.092 564.211, 674.510 566.374 C 676.744 569.784, 677 569.694, 677 565.500 C 677 561.891, 676.476 561.412, 674.145 562.890 M 371.196 597.298 C 367.051 601.575, 367.015 601.474, 373.870 604.934 C 384.131 610.114, 400.676 621.819, 409.373 630.052 C 415.172 635.541, 418.288 637.827, 419.395 637.402 C 421.871 636.452, 421.856 636.431, 406.901 620.500 C 399.156 612.250, 392.427 604.501, 391.946 603.281 C 391.103 601.138, 378.625 594, 375.721 594 C 374.990 594, 372.954 595.484, 371.196 597.298 M 399.077 597.589 C 395.520 600.582, 395.112 603.886, 397.979 606.481 C 399.899 608.219, 400.083 608.157, 404.229 604.408 C 408.838 600.240, 409.010 599.426, 405.847 596.750 C 403.151 594.469, 402.721 594.522, 399.077 597.589 M 406.588 606.910 C 401.080 612.551, 402.948 614.449, 408.573 608.928 C 412.428 605.145, 413.358 603, 411.144 603 C 410.738 603, 408.688 604.759, 406.588 606.910 M 412.473 609.043 C 410.879 611.623, 438.035 639.754, 443 640.665 L 446.500 641.308 441.496 635.904 C 438.744 632.932, 431.806 625.438, 426.078 619.250 C 416.052 608.421, 413.870 606.784, 412.473 609.043 M 364.254 618.250 C 350.214 639.223, 347.919 652.407, 356.091 665.142 C 359.971 671.188, 361.865 672.836, 362.939 671.099 C 363.543 670.121, 364.933 670.439, 368.958 672.479 C 376.977 676.542, 388.152 678.983, 401.494 679.585 L 413.500 680.127 409.250 676.286 C 404.363 671.870, 403.994 670.333, 407.500 669 C 410.747 667.766, 410.652 666.507, 407 662.347 C 403.099 657.904, 403.193 657.441, 408.250 656.165 C 410.587 655.575, 413.400 654.419, 414.500 653.596 C 416.487 652.109, 416.486 652.089, 414.250 650.493 C 411.002 648.174, 411.389 647.421, 417.250 644.649 C 421.479 642.650, 422.014 642.147, 420 642.066 C 412.507 641.764, 381 632.614, 381 630.740 C 381 629.591, 387.894 630.461, 396.500 632.696 C 399.800 633.553, 404.017 634.612, 405.870 635.049 L 409.241 635.844 405.870 632.334 C 398.359 624.513, 375.851 609, 372.015 609 C 371.150 609, 367.670 613.148, 364.254 618.250 M 407.963 613.545 C 406.548 615.249, 406.870 615.653, 422.464 631.750 C 428.690 638.177, 431.068 640, 433.228 640 C 434.753 640, 436 639.739, 436 639.421 C 436 638.619, 410.648 612.021, 409.872 612.009 C 409.527 612.004, 408.668 612.695, 407.963 613.545 M 458.500 643.399 C 464.192 645.199, 469.068 647.824, 472.250 650.801 C 474.160 652.589, 475 652.927, 475 651.910 C 475 647.158, 466.618 642.013, 459 642.089 L 454.500 642.134 458.500 643.399 M 422.263 646.309 C 418.524 648.266, 418.231 648.660, 419.763 649.660 C 422.329 651.334, 420.399 653.981, 414.352 657.083 L 409.316 659.666 411.658 662.389 C 414.863 666.115, 414.740 669.587, 411.363 670.712 L 408.727 671.591 411.613 673.453 C 413.201 674.477, 414.884 675.962, 415.353 676.752 C 416.916 679.387, 424.271 681.955, 430.320 681.978 C 435.153 681.996, 436.892 682.518, 440.581 685.056 C 445.785 688.636, 451.109 691, 453.968 691 C 456.909 691, 459.966 687.586, 459.301 685.044 C 458.455 681.809, 450.298 673.259, 445.216 670.280 C 439.883 667.155, 441.242 666.057, 447.489 668.443 C 451.891 670.124, 458.805 676.085, 462.562 681.438 L 464.624 684.376 466.812 682.188 C 472.754 676.246, 467.184 666.656, 453.180 658.719 C 448.002 655.784, 447.736 655.473, 450.168 655.192 C 453.994 654.749, 462.472 659.380, 467.718 664.777 C 471.996 669.179, 472.294 669.318, 473.612 667.516 C 476.683 663.317, 473.991 656.588, 467.448 652.105 C 456.974 644.928, 431.212 641.623, 422.263 646.309 M 699.750 651.689 C 697.472 652.285, 697.531 652.654, 700.462 656.137 C 702.706 658.804, 704.981 664.632, 704.994 667.750 C 705.003 669.566, 706.361 669.290, 709.477 666.839 C 711.913 664.923, 712.168 664.181, 711.728 660.277 C 710.906 652.987, 706.600 649.899, 699.750 651.689 M 692.742 658.250 C 696.282 661.920, 698 665.770, 698 670.034 C 698 672.293, 698.358 672.800, 699.611 672.319 C 700.899 671.825, 701.133 670.622, 700.777 666.328 C 700.258 660.068, 696.384 655, 692.117 655 L 689.608 655 692.742 658.250 M 480.823 657.662 C 478.402 658.075, 478.197 658.441, 478.689 661.472 C 479.009 663.443, 478.644 666.006, 477.805 667.688 C 476.537 670.232, 476.576 670.993, 478.163 674.525 C 481.212 681.315, 480.612 682.943, 475.742 681.092 C 473.699 680.315, 472.960 680.677, 470.634 683.592 C 469.138 685.466, 467.119 687, 466.145 687 C 465.172 687, 463.408 688.310, 462.224 689.910 C 459.110 694.123, 454.344 695.453, 448.982 693.606 C 445.209 692.306, 444.547 692.310, 443.211 693.646 C 442.381 694.476, 440.869 694.938, 439.852 694.672 C 438.834 694.405, 437.750 694.596, 437.442 695.094 C 436.681 696.326, 433 696.248, 433 695 C 433 694.450, 431.902 694, 430.559 694 C 429.216 694, 427.840 694.450, 427.500 695 C 426.219 697.073, 423.854 696.141, 424.994 694.012 C 426.358 691.463, 430.727 690.348, 433.229 691.911 C 434.548 692.735, 435.543 692.794, 436.380 692.099 C 437.053 691.541, 438.593 691.342, 439.802 691.658 C 442.796 692.441, 442.515 690.923, 439.219 688.510 C 437.425 687.196, 434.119 686.304, 429.500 685.888 C 425.650 685.540, 421.825 684.979, 421 684.641 C 419.715 684.113, 407 700.297, 407 702.460 C 407 703.353, 424.896 703.053, 434.022 702.007 C 438.709 701.470, 450.558 699.449, 460.353 697.515 C 487.477 692.161, 500.833 692.764, 513.501 699.914 C 516.509 701.611, 519.202 703, 519.485 703 C 519.768 703, 520 694.528, 520 684.174 C 520 663.127, 520.182 663.692, 512 659.396 C 508.534 657.576, 488.015 656.435, 480.823 657.662 M 534.718 658.092 C 530.120 659.174, 525.797 661.334, 524.074 663.411 C 522.912 664.811, 522.297 701.630, 523.417 702.750 C 523.609 702.942, 525.427 701.971, 527.458 700.593 C 539.629 692.334, 556.131 691.240, 583.397 696.886 L 599.293 700.177 603.348 696.123 C 608.288 691.183, 607.838 690.600, 599.239 690.810 C 592.645 690.970, 588.777 689.889, 590.343 688.324 C 591.466 687.201, 605.247 687.983, 606.797 689.257 C 607.775 690.060, 609.141 689.297, 612.335 686.162 C 614.667 683.873, 617.320 682, 618.229 682 C 621.238 682, 620.914 680.473, 616.368 673.221 C 611.289 665.121, 612.143 665.538, 593.500 662.067 C 567.432 657.215, 544.910 655.692, 534.718 658.092 M 666 665.431 C 638.974 676.749, 623.016 683.651, 622.361 684.306 C 622.032 684.634, 622.860 685.178, 624.199 685.514 C 625.976 685.960, 634.176 682.915, 654.567 674.236 C 669.930 667.698, 683.957 661.768, 685.737 661.058 C 689.245 659.660, 689.219 657.969, 685.691 658.051 C 684.486 658.079, 675.625 661.400, 666 665.431 M 682 665.049 C 677.325 667.110, 663.600 672.972, 651.500 678.077 C 625.351 689.108, 626.607 688.340, 628.552 692.101 C 629.377 693.695, 630.198 695, 630.376 695 C 630.555 695, 644.381 689.108, 661.100 681.906 C 677.820 674.704, 692.076 668.576, 692.780 668.288 C 693.567 667.965, 693.814 666.943, 693.422 665.632 C 692.091 661.178, 690.916 661.118, 682 665.049 M 542 666.693 C 540.018 668.661, 538.812 669.065, 536.184 668.640 C 531.859 667.941, 532.394 670.108, 536.862 671.389 C 539.646 672.188, 540.433 671.959, 542.839 669.654 C 546.009 666.617, 547.245 666.385, 549 668.500 C 550.423 670.214, 552 670.477, 552 669 C 552 667.312, 548.102 663.994, 546.250 664.105 C 545.288 664.164, 543.375 665.328, 542 666.693 M 318.730 688.250 C 307.466 701.038, 295.955 714.200, 293.149 717.500 L 288.048 723.500 404.444 723.754 C 468.462 723.894, 573.446 723.894, 637.743 723.754 L 754.646 723.500 732.573 698.331 C 720.433 684.488, 710.208 672.872, 709.852 672.517 C 709.496 672.162, 704.771 673.889, 699.352 676.356 C 690.629 680.326, 659.705 693.846, 645.235 700.015 C 640.962 701.836, 640.187 702.521, 641.123 703.648 C 642.118 704.848, 643.562 710.035, 644.282 715 C 644.531 716.716, 642.223 716.712, 574.500 714.864 L 534.500 713.772 529.601 716.386 C 523.370 719.711, 518.623 719.709, 512.399 716.379 L 507.500 713.759 466 714.994 C 401.036 716.926, 398.446 716.907, 398.767 714.500 C 399.721 707.360, 401.046 704.471, 407.711 695 L 415.102 684.500 403.170 683.877 C 390.518 683.216, 378.424 680.968, 371.457 677.981 C 368.599 676.756, 366.902 676.498, 366.216 677.184 C 364.438 678.962, 361.214 677.051, 355.686 670.943 C 350.350 665.046, 350.266 665, 344.759 665 L 339.209 665 318.730 688.250 M 573.500 665.703 C 571.300 665.905, 568.825 666.309, 568 666.602 C 564.884 667.708, 570.067 669.217, 574.630 668.533 C 577.545 668.096, 580.703 668.383, 583.790 669.367 C 588.916 671.002, 604 672.030, 604 670.745 C 604 669.276, 598.914 668, 593.057 668 C 589.860 668, 585.629 667.325, 583.654 666.500 C 581.680 665.675, 579.487 665.076, 578.782 665.168 C 578.077 665.261, 575.700 665.501, 573.500 665.703 M 617.629 669.250 C 623.253 678.257, 624.066 679.114, 626.312 678.401 C 627.480 678.030, 634.974 674.874, 642.967 671.387 L 657.500 665.046 636.237 665.023 L 614.975 665 617.629 669.250 M 662.506 683.644 C 628.987 698.184, 629.673 697.820, 630.165 700.790 C 630.478 702.681, 631.211 702.492, 641.500 697.865 C 647.550 695.145, 661.837 688.829, 673.250 683.830 C 691.858 675.679, 694 674.496, 694 672.370 C 694 671.067, 693.888 670.045, 693.750 670.100 C 693.612 670.155, 679.552 676.250, 662.506 683.644 M 563.500 674.008 C 560.200 674.400, 554.775 674.502, 551.445 674.234 C 545.376 673.746, 539 675.689, 539 678.026 C 539 679.318, 539.703 679.248, 544.898 677.439 C 548.026 676.350, 550.072 676.178, 551.981 676.843 C 553.626 677.417, 558.148 677.430, 563.668 676.876 C 570.708 676.170, 573.546 676.281, 576.679 677.387 C 579.641 678.432, 581.955 678.563, 585.551 677.891 C 588.769 677.290, 591.529 677.350, 593.700 678.066 C 598.931 679.792, 601.210 678.776, 597.051 676.571 C 594.289 675.107, 592.247 674.857, 586.787 675.315 C 581.986 675.717, 578.950 675.459, 576.518 674.443 C 572.848 672.910, 572.758 672.907, 563.500 674.008 M 490.250 675.610 C 487.022 677.048, 489.712 678, 497 678 C 501.667 678, 505 677.583, 505 677 C 505 676.450, 503.938 676, 502.640 676 C 501.341 676, 498.304 675.787, 495.890 675.527 C 493.475 675.266, 490.938 675.304, 490.250 675.610 M 554.492 682.008 C 552.829 683.847, 552.479 683.889, 550.373 682.508 C 547.151 680.398, 545.444 680.620, 543.226 683.439 C 541.490 685.647, 541.159 685.731, 539.752 684.323 C 538.896 683.468, 537.603 682.966, 536.877 683.208 C 535.952 683.516, 536.359 684.450, 538.233 686.324 C 541.570 689.661, 543.356 689.709, 544.818 686.500 C 546.149 683.579, 547.626 683.352, 550.191 685.673 C 551.928 687.245, 552.227 687.208, 555.127 685.064 L 558.214 682.782 561.130 684.938 C 563.668 686.814, 564.830 687.005, 570.087 686.411 C 577.235 685.602, 576.735 683.446, 569.473 683.762 C 566.478 683.892, 563.898 683.299, 561.739 681.983 C 557.679 679.507, 556.753 679.510, 554.492 682.008 M 488.182 684.233 C 483.441 685.461, 484.142 687.321, 489.035 686.494 C 491.666 686.050, 493.579 686.236, 494.535 687.029 C 495.644 687.950, 496.337 687.965, 497.388 687.093 C 498.264 686.366, 500.386 686.182, 503.138 686.593 C 507.111 687.188, 507.365 687.103, 505.988 685.647 C 504.238 683.795, 493.240 682.922, 488.182 684.233 M 612.228 691.269 L 607.025 696.537 608.763 700.236 L 610.500 703.935 618.614 703.967 L 626.727 704 626.786 699.750 C 626.880 693.039, 622.262 686, 617.765 686 C 617.582 686, 615.090 688.371, 612.228 691.269 M 470.500 699.020 C 465 700.041, 455.775 701.824, 450 702.981 C 443.085 704.367, 433.601 705.288, 422.224 705.680 C 412.392 706.018, 404.681 706.708, 404.327 707.280 C 403.472 708.663, 439.273 707.295, 453.500 705.402 C 477.064 702.265, 482.828 701.803, 492 702.315 C 497.469 702.620, 504.392 703.752, 508.316 704.983 C 517.804 707.960, 519.855 707.192, 513.004 703.228 C 502.192 696.972, 488.717 695.638, 470.500 699.020 M 538.836 698.919 C 535.721 699.915, 531.446 701.803, 529.336 703.115 C 523.996 706.435, 527.189 706.760, 538.005 703.999 C 548.701 701.268, 562.895 701.266, 581.453 703.993 C 590.744 705.358, 595.695 705.705, 596.365 705.035 C 597.985 703.415, 597.001 703.084, 581.387 699.990 C 563.300 696.406, 547.905 696.019, 538.836 698.919 M 478.500 705 C 471.773 705.622, 471.919 705.654, 482.250 705.823 C 488.868 705.932, 493 705.616, 493 705 C 493 703.944, 489.925 703.944, 478.500 705 M 545.500 704.768 C 546.064 705.341, 553.918 705.973, 563.500 706.218 C 573.889 706.482, 579.333 706.316, 577.500 705.791 C 572.854 704.459, 544.298 703.547, 545.500 704.768 M 626.500 708 C 626.112 708.628, 628.323 709, 632.441 709 C 636.147 709, 639 708.565, 639 708 C 639 707.446, 636.353 707, 633.059 707 C 629.791 707, 626.840 707.450, 626.500 708 M 480 708.590 C 478.625 708.750, 460.722 709.427, 440.214 710.093 C 417.527 710.831, 402.684 711.702, 402.305 712.316 C 401.887 712.991, 407.621 713.111, 419.590 712.676 C 429.441 712.318, 452.350 711.533, 470.500 710.932 C 507.806 709.695, 523.099 708.213, 498 708.267 C 489.475 708.285, 481.375 708.430, 480 708.590 M 528.500 708.935 C 530.700 709.413, 550.500 710.295, 572.500 710.894 C 594.500 711.494, 619.025 712.233, 627 712.537 C 636.039 712.882, 640.935 712.743, 640 712.167 C 639.175 711.660, 627.276 710.922, 613.558 710.528 C 599.840 710.134, 587.862 709.666, 586.939 709.488 C 582.794 708.690, 524.849 708.141, 528.500 708.935 M 513.861 713.033 C 516.639 715.348, 524.182 715.660, 527.873 713.613 L 530.246 712.298 527.873 711.663 C 526.568 711.313, 522.350 711.036, 518.500 711.047 L 511.500 711.067 513.861 713.033 M 285 736 L 285 745 297.250 745.080 C 376.762 745.601, 582.375 745.717, 659.250 745.284 L 757 744.734 757 735.867 L 757 727 521 727 L 285 727 285 736 M 310.540 749.793 C 310.243 750.090, 310 780.858, 310 818.167 L 310 886 321.500 886 L 333 886 333 818.107 C 333 755.100, 332.878 750.167, 331.298 749.561 C 329.308 748.797, 311.335 748.998, 310.540 749.793 M 336 765.500 L 336 782.005 521.250 781.753 L 706.500 781.500 706.500 765.500 L 706.500 749.500 521.250 749.247 L 336 748.995 336 765.500 M 710 817.500 L 710 886 721 886 L 732 886 732 817.500 L 732 749 721 749 L 710 749 710 817.500 M 335.628 804.279 C 334.491 834.813, 334.909 883.197, 336.305 882.732 C 337.205 882.432, 337.564 870.428, 337.760 834.167 C 338.020 785.827, 336.900 770.119, 335.628 804.279 M 342 801.500 L 342 817 345.500 817 L 349 817 349 801.500 L 349 786 345.500 786 L 342 786 342 801.500 M 352.664 795.750 C 352.323 801.112, 352.028 816.188, 352.010 829.250 L 351.976 853 359.488 853 L 367 853 367 819.500 L 367 786 360.143 786 L 353.286 786 352.664 795.750 M 370 818 C 370 835.783, 370.335 849.999, 370.743 849.590 C 371.492 848.841, 371.164 786.859, 370.407 786.083 C 370.183 785.854, 370 800.217, 370 818 M 375 801.500 L 375 817 393.951 817 L 412.901 817 409.390 809.606 C 407.459 805.539, 405.160 798.564, 404.281 794.106 L 402.685 786 388.842 786 L 375 786 375 801.500 M 407.481 790.250 C 409.265 801.793, 415.181 814.131, 426.518 829.947 C 431.524 836.932, 433.674 840.726, 433.003 841.397 C 431.099 843.301, 432.012 843.836, 435.513 842.869 C 439.395 841.797, 441 842.323, 441 844.666 C 441 845.517, 441.563 845.990, 442.250 845.717 C 442.938 845.443, 445.418 844.444, 447.761 843.497 C 452.321 841.653, 455 842.505, 455 845.797 C 455 847.020, 455.490 846.888, 457.314 845.174 C 460.050 842.605, 462.271 842.414, 464.421 844.564 C 465.839 845.982, 466.093 845.889, 467.153 843.564 C 468.141 841.394, 468.978 841, 472.593 841 L 476.865 841 473.567 836.100 C 468.890 829.149, 464.013 816.891, 462.121 807.327 C 460.650 799.896, 460.331 799.231, 458.675 800.160 C 454.041 802.759, 456.192 799.143, 463 792.891 L 470.500 786.003 438.662 786.001 L 406.824 786 407.481 790.250 M 482.956 787.093 C 493.283 789.117, 516.027 789.987, 531.044 788.932 C 559.299 786.947, 555.396 786.219, 516.500 786.219 C 492.104 786.219, 480.095 786.532, 482.956 787.093 M 576 792.916 C 583.103 799.428, 585.136 803.101, 579.646 799.504 L 577.119 797.848 576.540 801.674 C 574.855 812.815, 566.901 834.178, 563.336 837.136 C 561.131 838.966, 561.805 839.621, 565.452 839.195 C 568.465 838.844, 569.153 839.202, 570.866 842.020 C 572.803 845.204, 572.846 845.219, 574.155 843.124 C 575.802 840.486, 576.520 840.477, 579.789 843.049 L 582.393 845.097 583.729 842.549 C 585.260 839.626, 586.060 839.471, 589.800 841.373 C 594.728 843.880, 597 844.275, 597 842.626 C 597 840.397, 598.188 840.028, 602.342 840.964 C 605.751 841.733, 606.020 841.639, 605.461 839.877 C 605.033 838.529, 606.335 835.923, 609.781 831.224 C 621.012 815.914, 626.304 806.040, 629.065 795.244 C 630.129 791.084, 631 787.302, 631 786.840 C 631 786.378, 616.938 786.009, 599.750 786.020 L 568.500 786.040 576 792.916 M 634.464 789.750 C 633.300 796.711, 630.845 804.365, 627.915 810.169 C 626.312 813.345, 625 816.181, 625 816.471 C 625 816.762, 634.675 817, 646.500 817 L 668 817 668 801.500 L 668 786 651.545 786 L 635.091 786 634.464 789.750 M 671.607 787.582 C 670.542 790.357, 670.913 849.828, 672 850.500 C 672.659 850.907, 673 840.010, 673 818.559 C 673 800.652, 672.823 786, 672.607 786 C 672.391 786, 671.941 786.712, 671.607 787.582 M 675 819.500 L 675 853 682.500 853 L 690 853 690 819.500 L 690 786 682.500 786 L 675 786 675 819.500 M 694 801.500 L 694 817 697 817 L 700 817 700 801.500 L 700 786 697 786 L 694 786 694 801.500 M 704 833.378 C 704 874.271, 704.205 880.925, 705.500 882 C 706.830 883.104, 707 877.729, 707 834.622 C 707 792.069, 706.813 786, 705.500 786 C 704.188 786, 704 791.931, 704 833.378 M 557.059 789.545 C 541.510 793.330, 502.402 793.877, 482 790.595 L 473.500 789.228 470.081 791.909 C 462.428 797.909, 463.414 799.731, 475.740 802.364 C 505.741 808.774, 561.155 806.235, 571.239 797.990 L 573.500 796.141 569.547 792.070 C 565.245 787.641, 565.048 787.601, 557.059 789.545 M 466 804.999 C 466 809.002, 471.580 826, 472.894 826 C 473.838 826, 477.320 808.327, 476.605 807.169 C 476.284 806.651, 474.410 805.924, 472.440 805.555 C 470.470 805.185, 468.215 804.636, 467.429 804.334 C 466.643 804.033, 466 804.332, 466 804.999 M 560 805.844 C 556.975 806.663, 554.367 807.429, 554.205 807.545 C 553.923 807.747, 558.463 828.423, 559.670 832.437 C 560.487 835.149, 561.997 832.962, 566.080 823.153 C 569.104 815.888, 569.175 815.398, 567.941 810.254 C 566.392 803.796, 566.776 804.010, 560 805.844 M 480.331 812.397 L 479.277 817 492.139 817 L 505 817 505 813.629 L 505 810.258 497.750 809.587 C 493.762 809.218, 488.449 808.663, 485.942 808.355 L 481.384 807.793 480.331 812.397 M 537.250 809.290 L 528 810.274 528 813.637 L 528 817 540.045 817 L 552.091 817 551.414 813.250 C 550.549 808.454, 550.241 807.967, 548.191 808.153 C 547.261 808.237, 542.337 808.749, 537.250 809.290 M 509.015 830.750 C 509.031 853.010, 509.454 855.275, 514.084 857.874 C 517.934 860.035, 521.832 858.646, 523.566 854.497 C 525.044 850.959, 525.687 817.165, 524.370 812.250 C 523.813 810.174, 523.195 810, 516.383 810 L 509 810 509.015 830.750 M 558.500 844.662 C 543.704 852.462, 546.087 864.380, 562.080 862.570 C 567.967 861.904, 568.337 862.007, 575.815 866.385 C 593.156 876.536, 605.074 880.171, 610.860 877.075 C 615.658 874.507, 611.856 866.704, 603.030 861 C 598.458 858.045, 597.961 857.449, 599.842 857.176 C 605.139 856.405, 615.308 865.291, 616.617 871.834 C 617.370 875.598, 619.954 876.046, 623.051 872.949 C 626.522 869.478, 622.732 862.542, 614.539 857.365 C 609.691 854.303, 608.560 852.421, 612.250 853.559 C 619.433 855.775, 626.600 862.350, 627.591 867.632 C 628.244 871.117, 629.722 871.878, 631.800 869.800 C 636.047 865.553, 628.988 857.149, 615.676 850.604 C 604.532 845.124, 601 844.110, 601 846.392 C 601 848.536, 598.170 848.436, 591.951 846.073 C 587.705 844.460, 586.809 844.379, 586.440 845.573 C 586.198 846.358, 585.803 847.640, 585.561 848.422 C 584.999 850.243, 581.695 849.426, 579.410 846.900 C 577.159 844.414, 576.549 844.500, 575.182 847.500 C 573.604 850.964, 571.651 850.624, 569.430 846.500 C 567.272 842.493, 563.740 841.899, 558.500 844.662 M 469.166 847.444 C 466.681 851.655, 465.605 851.853, 463.411 848.505 L 461.777 846.010 458.755 848.553 C 455.224 851.524, 452.631 851.401, 452.180 848.240 C 451.790 845.504, 451.352 845.486, 445.859 847.978 C 440.521 850.400, 437 850.581, 437 848.433 C 437 846.454, 435.215 846.961, 424.191 852.073 C 410.115 858.600, 404.244 864.850, 406.839 870.545 C 408.412 873.998, 409.501 873.608, 410.849 869.110 C 412.169 864.705, 418.327 858.597, 423.719 856.344 C 427.967 854.569, 429.296 855.408, 425.940 857.745 C 416.783 864.122, 412.010 871.533, 415.146 874.503 C 417.563 876.792, 421 877.350, 421 875.454 C 421 870.632, 433.387 858, 438.114 858 C 440.114 858, 438.741 859.847, 434.449 862.929 C 425.462 869.383, 422.399 878.058, 428.561 879.605 C 436.422 881.578, 447.586 877.827, 462.689 868.139 L 470.574 863.081 477.537 863.652 C 485.654 864.317, 490 862.082, 490 857.244 C 490 853.480, 481.055 845, 477.085 845 C 475.478 845, 473.511 844.750, 472.714 844.444 C 471.782 844.086, 470.515 845.157, 469.166 847.444" stroke="none" fill="#1a1a1a" fill-rule="evenodd"/>
</svg>