<svg xmlns="http://www.w3.org/2000/svg" width="1024" height="1024" viewBox="0 0 1024 1024" version="1.1">
	<path d="M 626.500 199.676 C 612.697 201.405, 591.861 207.514, 575.821 214.534 C 571.441 216.451, 561.129 219.450, 551.821 221.513 C 478.391 237.791, 434.627 274.744, 418.008 334.500 C 416.784 338.900, 415.697 342.597, 415.593 342.715 C 415.488 342.833, 412.519 341.765, 408.994 340.342 C 392.221 333.567, 370.511 337.883, 359.180 350.246 L 356.861 352.777 348.626 347.607 C 339.730 342.022, 328.165 337.086, 316.100 333.724 C 304.394 330.462, 273.190 330.531, 260.635 333.846 C 222.679 343.869, 193.252 371.157, 182.544 406.261 C 177.006 424.420, 177.012 424.246, 177.006 555.250 L 177 676 166 676.194 C 159.950 676.301, 153.585 676.414, 151.856 676.444 L 148.712 676.500 148.892 456.629 C 149.064 246.751, 148.874 225, 146.871 225 C 146.379 225, 146 323.348, 146 451 L 146 677 131 677 C 122.750 677, 116.007 677.337, 116.015 677.750 C 116.030 678.461, 136.695 689.056, 214.482 728.231 C 233.172 737.644, 248.022 745.468, 247.482 745.618 C 246.942 745.768, 228.500 746.373, 206.500 746.962 C 130.095 749.010, 123 749.295, 123 750.319 C 123 750.977, 131.299 751.095, 147.250 750.662 C 160.588 750.300, 189.814 749.504, 212.198 748.894 L 252.896 747.784 297.198 770.025 C 321.564 782.258, 367.902 805.706, 400.170 822.133 C 455.045 850.068, 463.762 854.219, 459.964 850.608 C 458.522 849.236, 395.772 817.239, 305.320 771.751 C 279.920 758.978, 259.267 748.400, 259.423 748.244 C 259.579 748.088, 275.635 747.537, 295.103 747.019 C 314.571 746.501, 337.888 745.802, 346.917 745.466 L 363.334 744.856 360.167 748.463 C 349.269 760.875, 366.690 766.068, 386.950 756.447 C 396.200 752.054, 398 750.490, 398 746.845 L 398 744 405.500 744 L 413 744 413 746.845 C 413 749.734, 415.615 753, 417.928 753 C 418.626 753, 420.490 754.383, 422.070 756.074 L 424.941 759.149 419.917 765.704 C 411.271 776.985, 414.407 782.557, 429.331 782.431 C 444.322 782.304, 451.174 777.512, 451.386 767.005 C 451.465 763.074, 452.032 760.824, 453.250 759.607 C 454.212 758.644, 455.016 757.327, 455.036 756.679 C 455.222 750.560, 455.758 743.919, 456.090 743.630 C 456.316 743.434, 460.618 743.020, 465.652 742.708 C 476.067 742.064, 475.959 741.976, 475.986 751.179 C 475.995 753.988, 476.599 756.456, 477.500 757.357 C 478.528 758.385, 479 760.918, 479 765.403 C 479 772.810, 479.843 773.673, 489.448 776.091 L 494.199 777.287 493.823 784.894 C 493.207 797.354, 491.007 799.740, 476.250 803.952 C 447.078 812.278, 436 818.695, 436 827.266 C 436 829.171, 439.803 833.995, 441.323 834.018 C 441.970 834.028, 444.521 835.406, 446.991 837.079 C 450.489 839.449, 452.396 840.065, 455.619 839.867 C 458.507 839.689, 460.292 840.149, 461.533 841.390 C 467.433 847.290, 479.419 846.210, 499.500 837.967 C 511.686 832.966, 517.304 832.226, 526.767 834.379 C 535.939 836.465, 540.527 836.398, 545.576 834.105 C 554.445 830.077, 553.568 821.897, 543.581 815.509 C 536.832 811.192, 537.016 811.510, 536.539 803.291 C 536.098 795.678, 538.538 786.826, 544.144 775.707 C 547.966 768.125, 557.985 752.909, 559.441 752.476 C 560.023 752.303, 569.158 751.935, 579.739 751.660 L 598.978 751.158 604.463 759.402 C 614.019 773.763, 615.470 777.816, 615.416 790 C 615.340 807.095, 614.556 809.598, 607.626 814.865 C 592.130 826.643, 600.690 838.513, 621.771 834.479 C 635.064 831.936, 641.528 832.700, 664.500 839.534 C 676.639 843.146, 687.204 843.424, 691.654 840.250 C 693.389 839.012, 695.722 838, 696.839 838 C 699.787 838, 704.198 836.169, 706.500 833.988 C 707.600 832.947, 709.513 831.173, 710.750 830.047 C 720.882 820.828, 698.731 806.860, 666.218 801.965 C 654.284 800.169, 654.390 800.471, 659.500 782.720 C 663.766 767.902, 663.992 760.616, 660.618 746.670 L 658.239 736.840 664.370 737.256 C 669.891 737.631, 747.711 761.567, 879 803.272 C 891.925 807.378, 903.513 811.052, 904.750 811.436 C 907.978 812.439, 907.536 810.449, 904.250 809.185 C 899.511 807.363, 784.136 771.060, 714.296 749.415 C 693.284 742.903, 676.198 737.469, 676.328 737.339 C 676.556 737.111, 806.728 733.642, 869 732.204 C 888.489 731.754, 899.409 731.139, 899.248 730.500 C 899.089 729.869, 890.244 729.499, 875.248 729.499 L 851.500 729.497 789.500 716.202 C 727.465 702.900, 665.637 690, 663.915 690 C 663.412 690, 663 686.469, 663 682.153 L 663 674.307 746.750 673.649 C 852.303 672.820, 894 671.994, 894 670.733 C 894 669.780, 788.176 670.268, 701.250 671.623 L 662 672.234 661.948 669.867 C 661.920 668.565, 660.896 663.613, 659.673 658.862 L 657.450 650.223 662.707 648.566 C 679.424 643.297, 686.426 627.091, 681.122 605.940 C 675.712 584.365, 655.673 554.944, 637.499 541.892 C 632.061 537.986, 632.117 537.922, 643.500 535.037 C 688.787 523.556, 723.827 495.628, 730.430 465.750 C 731.021 463.079, 731.234 463, 737.838 463 C 753.340 463, 770.707 453.879, 783.303 439.123 C 804.201 414.639, 805.744 373.285, 786.488 353.753 C 775.094 342.195, 757.102 340.624, 744.090 350.050 L 740.035 352.987 739.572 350.744 C 739.317 349.510, 738.827 346.250, 738.482 343.500 C 733.306 302.256, 707.877 265.008, 670.649 244.139 C 664.174 240.510, 662.312 239.047, 663.661 238.651 C 664.673 238.354, 669.449 237.191, 674.275 236.068 C 692.095 231.920, 694.043 227.027, 679.858 222.041 C 668.461 218.036, 640.549 216.646, 630 219.558 C 625.767 220.727, 633.284 215.503, 643.338 210.290 C 653.130 205.212, 654.452 203.594, 651.056 200.844 C 648.833 199.044, 636.300 198.447, 626.500 199.676 M 629.500 204.656 C 615.105 206.365, 596.659 211.497, 579.009 218.703 C 569.905 222.419, 561.022 225.173, 551.696 227.169 C 483.259 241.817, 441.540 276.961, 423.032 335.556 L 419.856 345.611 426.178 352.071 C 432.683 358.718, 439.394 369.714, 438.807 372.764 C 438.578 373.950, 437.598 372.990, 435.655 369.675 C 434.104 367.028, 429.957 361.812, 426.438 358.082 C 401.947 332.120, 364.023 338.934, 351.759 371.500 C 348.284 380.730, 348.520 402.475, 352.208 412.765 C 360.226 435.138, 380.684 453.807, 403 459.116 C 409.215 460.594, 429.319 460.930, 435.746 459.663 C 439.803 458.863, 439.983 458.930, 439.798 461.176 C 439.238 467.934, 456.283 490.019, 469 499.013 L 472.500 501.488 470.211 497.994 C 456.806 477.528, 456.055 455.547, 468.081 435.607 L 472.234 428.722 470.054 425.111 C 460.056 408.554, 456.232 387.773, 458.986 364.965 C 464.380 320.289, 489.949 292.699, 526 292.655 C 542.219 292.635, 546.633 294.010, 577 308.540 C 602.646 320.810, 606.254 322.090, 615.291 322.118 C 623.135 322.143, 630.445 319.051, 647.327 308.568 C 661.184 299.962, 665.532 298.562, 678.500 298.528 C 691.731 298.494, 696.927 300.647, 706.004 309.924 C 718.842 323.044, 724.259 339.878, 724.368 367 C 724.456 388.974, 722.308 400.243, 714.600 418.241 C 709.069 431.155, 709.122 429.718, 713.861 438.415 C 720.834 451.214, 723.372 464.885, 720.745 475.500 C 720.087 478.159, 720.243 478.054, 722.115 474.575 C 727.080 465.350, 727.475 451.428, 723.123 439.085 L 721.213 433.671 723.762 427.085 C 731.807 406.303, 734.371 391.997, 734.444 367.500 C 734.492 351.144, 734.178 347.061, 732.184 338.156 C 722.555 295.159, 702.880 268.624, 664.037 246.251 L 653.574 240.224 649.037 241.601 C 643.754 243.205, 642 243.337, 642 242.131 C 642 240.433, 654.699 235.785, 668.344 232.489 C 675.959 230.650, 682.416 228.918, 682.693 228.640 C 683.503 227.831, 673.147 225.027, 665 223.851 C 656.158 222.575, 633.941 223.405, 623 225.421 C 618.875 226.181, 615.351 226.660, 615.169 226.487 C 613.237 224.645, 625.001 215.039, 637.230 208.474 L 645.500 204.033 639 204.167 C 635.425 204.240, 631.150 204.460, 629.500 204.656 M 176 236.383 L 176 249 166.500 249 L 157 249 157 253.500 L 157 258 166.500 258 L 176 258 176 268.500 L 176 279 166.500 279 L 157 279 157 283.500 L 157 288 166.500 288 L 176 288 176 297.871 L 176 307.742 182.750 308.341 C 186.463 308.670, 233.262 309.244, 286.750 309.615 L 384 310.290 384 268.763 L 384 227.236 358.250 226.625 C 344.087 226.289, 307.975 225.783, 278 225.499 C 248.025 225.216, 212.813 224.710, 199.750 224.375 L 176 223.765 176 236.383 M 178 266.230 L 178 305.762 229.750 306.381 C 258.212 306.722, 303.887 307.275, 331.250 307.611 L 381 308.222 381 268.761 L 381 229.301 326.750 228.645 C 296.913 228.284, 251.238 227.698, 225.250 227.343 L 178 226.698 178 266.230 M 186.484 234.026 C 185.358 235.848, 186.262 296.974, 187.429 297.927 C 188.018 298.407, 229.900 298.958, 280.500 299.150 L 372.500 299.500 372.765 268.565 C 372.910 251.550, 372.665 237.265, 372.219 236.819 C 371.773 236.373, 341.953 235.572, 305.954 235.041 C 269.954 234.509, 228.488 233.834, 213.806 233.542 C 196.245 233.192, 186.897 233.358, 186.484 234.026 M 189 265.747 L 189 295.781 208.250 296.364 C 218.838 296.684, 259.563 297.191, 298.750 297.490 L 370 298.033 370 268.158 L 370 238.283 330.250 237.645 C 308.387 237.294, 267.663 236.715, 239.750 236.359 L 189 235.712 189 265.747 M 159 254 C 159 255.843, 159.667 256, 167.500 256 C 175.333 256, 176 255.843, 176 254 C 176 252.157, 175.333 252, 167.500 252 C 159.667 252, 159 252.157, 159 254 M 159 284 C 159 285.843, 159.667 286, 167.500 286 C 175.333 286, 176 285.843, 176 284 C 176 282.157, 175.333 282, 167.500 282 C 159.667 282, 159 282.157, 159 284 M 514.225 297.522 C 505.382 299.442, 494.479 304.989, 487.808 310.961 C 461.766 334.274, 454.164 387.735, 472.178 420.872 L 476.186 428.244 470.578 439.372 C 463.858 452.707, 462.200 460.837, 463.928 471.977 C 467.281 493.587, 480.571 509.257, 504.051 519.285 C 541.373 535.224, 579.777 540.289, 619.687 534.535 C 667.940 527.579, 709.731 502.534, 716.458 476.540 C 719.649 464.207, 718.275 455.294, 710.883 440.383 L 705.867 430.266 710.362 418.883 C 726.713 377.470, 724.283 335.780, 704.187 312.950 C 690.146 296.998, 672.616 297.546, 644.816 314.804 C 619.587 330.466, 611.189 330.129, 575 312 C 545.170 297.056, 531.434 293.784, 514.225 297.522 M 271.585 334.038 C 256.717 336.379, 233.576 345.608, 225.500 352.418 L 222.500 354.948 230.698 352.003 C 267.550 338.768, 308.735 344.624, 338.699 367.361 L 345.898 372.824 347.455 368.135 C 348.312 365.556, 350.200 361.699, 351.651 359.563 C 354.930 354.738, 354.434 353.789, 345.939 348.611 C 329.641 338.679, 312.999 334.009, 292 333.475 C 284.025 333.273, 274.838 333.526, 271.585 334.038 M 257.500 347.918 C 252.863 348.479, 253.189 348.580, 262 349.310 C 302.237 352.646, 333.627 373.207, 342.061 401.750 C 343.990 408.279, 344.708 406.818, 343.780 398.250 C 343.254 393.395, 343.338 387.919, 344.004 383.590 C 345.245 375.529, 344.572 374.438, 333.428 366.438 C 313.551 352.168, 283.331 344.797, 257.500 347.918 M 752.134 351.517 C 749.183 352.891, 745.021 355.400, 742.884 357.092 L 739 360.168 738.980 370.334 C 738.970 375.925, 738.298 385.450, 737.489 391.500 C 736.679 397.550, 736.017 402.725, 736.018 403 C 736.018 403.275, 737.209 401.475, 738.663 399 C 752.346 375.711, 772.647 365.748, 779.483 378.967 C 782.032 383.896, 781.191 384.284, 777.155 380.042 C 769.209 371.690, 757.719 377.515, 744.276 396.712 L 740.052 402.744 744.138 403.292 C 755.219 404.778, 759.110 418.501, 751.357 428.750 C 747.854 433.380, 746.715 432.771, 749.489 427.750 C 755.154 417.499, 751.547 406, 742.666 406 C 737.169 406, 734.470 409.743, 728.069 426.244 L 725.066 433.987 727.105 438.744 C 728.226 441.360, 729.663 446.762, 730.297 450.750 L 731.451 458 737.120 458 C 763.161 458, 790.250 430.675, 793.982 400.642 C 798.272 366.122, 776.263 340.285, 752.134 351.517 M 243.500 352.927 C 228.104 355.424, 213.928 361.375, 207.127 368.196 C 192.769 382.599, 181.502 408.737, 180.485 430 C 180.235 435.225, 179.810 492.712, 179.541 557.750 L 179.051 676 214.106 676 L 249.160 676 248.465 666.250 C 248.083 660.888, 247.260 651.369, 246.635 645.097 L 245.500 633.695 239.215 631.979 C 235.758 631.036, 232.640 629.974, 232.286 629.619 C 231.931 629.265, 232.661 620.543, 233.907 610.237 C 236.163 591.574, 236.164 591.482, 234.231 587 C 227.409 571.189, 226.645 552.087, 232.038 532.209 L 234.016 524.918 231.258 522.545 C 228.932 520.545, 228.527 519.462, 228.672 515.638 C 228.836 511.289, 228.700 511.056, 225.344 509.949 C 218.244 507.605, 216.168 499.743, 220.500 491.596 C 223.522 485.912, 223.595 484.086, 221 479 C 217.255 471.659, 218.781 463.584, 225.278 456.360 C 227.187 454.237, 229.086 450.925, 229.497 449 C 231.319 440.466, 237.324 432.986, 245.642 428.892 C 252.033 425.745, 272.235 425.349, 277.912 428.260 C 279.789 429.222, 281.399 429.894, 281.490 429.754 C 281.581 429.614, 282.195 428.138, 282.856 426.473 C 286.678 416.846, 300.902 407.844, 312.422 407.763 C 319.534 407.712, 332.019 408.631, 335 409.424 C 336.553 409.837, 338.245 409.544, 339.466 408.650 C 343.907 405.399, 334.967 388.055, 322.916 376.542 C 311.671 365.799, 299.875 359.520, 282.187 354.862 C 273.648 352.613, 252.087 351.535, 243.500 352.927 M 501 356.749 C 497.498 357.338, 496.008 359, 498.982 359 C 501.734 359, 515.878 362.688, 517.886 363.930 C 518.967 364.598, 518.561 366.146, 515.870 371.615 C 501.983 399.836, 529.767 429.009, 560.500 418.475 C 561.665 418.075, 561.247 418.666, 559.500 419.889 C 554.821 423.164, 547.179 425.302, 539.782 425.405 C 531.939 425.515, 530.926 426.566, 537.687 427.580 C 543.409 428.438, 552.657 426.829, 558.637 423.934 C 564.005 421.335, 576.347 407.731, 579.212 401.253 C 580.982 397.251, 581.468 396.844, 583.885 397.327 C 590.903 398.731, 598.273 391.762, 598.273 383.722 C 598.273 378.031, 596.408 376.919, 595.702 382.188 C 594.962 387.704, 591.395 391, 586.166 391 C 581.691 391, 573.473 387.175, 553.291 375.698 C 524.997 359.608, 512 354.898, 501 356.749 M 688.199 361.558 C 681.350 363.402, 668.408 369.917, 653.665 378.942 C 640.305 387.120, 632.498 390.976, 629.273 390.990 C 626.167 391.004, 623.681 386.856, 624.189 382.507 C 624.651 378.551, 623.637 377.941, 621.923 381.144 C 619.168 386.292, 624.264 397, 629.469 397 C 630.259 397, 631.337 398.563, 631.865 400.472 C 633.386 405.982, 641.603 418.269, 645.544 420.928 C 652.868 425.869, 664.739 428.330, 670.458 426.094 C 671.815 425.563, 670.415 425.141, 665.892 424.719 C 658.887 424.065, 648.905 420.796, 647.036 418.544 C 646.093 417.407, 646.741 417.427, 650.695 418.655 C 660.232 421.617, 673.611 418.235, 680.801 411.045 C 690.271 401.575, 692.700 385.146, 686.299 373.852 L 683.098 368.204 687.799 366.200 C 690.385 365.098, 694.413 363.631, 696.750 362.940 C 706.097 360.177, 698.121 358.888, 688.199 361.558 M 519.312 371.773 C 515.299 379.945, 515.257 392.079, 519.217 399.623 C 529.824 419.836, 559.652 422.465, 572.966 404.361 C 576.078 400.129, 577.246 395.984, 575.500 395.367 C 574.950 395.173, 573.721 396.382, 572.769 398.055 C 570.427 402.169, 563.065 405.406, 557.689 404.685 C 547.020 403.254, 541.397 392.150, 545.421 380.460 C 546.032 378.686, 544.918 377.773, 536.881 373.460 C 521.089 364.985, 522.576 365.128, 519.312 371.773 M 380.384 369.851 C 375.450 372.166, 371.319 377.291, 369.491 383.364 C 367.485 390.029, 368.960 389.820, 372.247 382.973 C 379.645 367.558, 394.804 367.767, 410.538 383.501 C 415.197 388.160, 424 400.456, 424 402.304 C 424 402.412, 421.783 402.500, 419.073 402.500 C 403.843 402.500, 398.313 423.165, 410.646 433.994 C 415.047 437.859, 417.216 437.938, 413.090 434.084 C 404.709 426.255, 405.072 411.701, 413.775 406.677 C 420.145 403, 425.809 405.868, 430.570 415.179 C 436.457 426.694, 435.902 420.438, 429.778 406.255 C 418.043 379.074, 395.748 362.643, 380.384 369.851 M 670.168 375.826 C 662.306 380.638, 661 381.804, 661.571 383.500 C 665.242 394.419, 660.568 403.419, 650.222 405.349 C 645.641 406.204, 639.241 403.442, 636.897 399.599 C 634.613 395.854, 634.203 398.578, 636.415 402.800 C 644.934 419.061, 670.027 420.057, 680.708 404.558 C 686.626 395.970, 687.619 384.055, 683.147 375.288 C 680.205 369.521, 680.490 369.509, 670.168 375.826 M 609.978 381.191 C 609.942 386.686, 606.625 392.624, 602.327 394.892 C 598.592 396.863, 598.567 396.913, 601.285 396.956 C 604.834 397.012, 608.696 394.489, 610.551 390.901 C 612.202 387.708, 612.502 379.428, 611 378.500 C 610.412 378.136, 609.991 379.244, 609.978 381.191 M 617.202 390.434 C 616.324 392.376, 616.233 393.633, 616.919 394.319 C 618.204 395.604, 619.290 393.064, 618.829 389.855 C 618.514 387.660, 618.445 387.685, 617.202 390.434 M 342.489 410.474 C 337.589 412.597, 331.333 418.686, 328.846 423.753 C 325.927 429.701, 325.319 449.317, 328 451.018 C 330.409 452.546, 330.714 452.233, 331.223 447.710 C 331.851 442.141, 334.081 437.566, 338.875 432.009 L 342.750 427.518 347.125 428.691 C 349.531 429.337, 352.375 430.202, 353.444 430.614 C 355.220 431.298, 355.178 431.025, 352.963 427.440 C 351.629 425.282, 349.400 420.291, 348.008 416.348 L 345.478 409.180 342.489 410.474 M 305 411.823 C 288.987 417.163, 282.100 427.529, 283.191 444.654 C 283.502 449.548, 284.090 451.435, 285.797 453.025 C 287.008 454.154, 288.053 455.623, 288.118 456.289 C 288.394 459.106, 289.773 451.043, 289.882 445.984 C 290.030 439.060, 292.592 434.034, 297.132 431.762 C 300.343 430.155, 301.243 430.136, 309.052 431.511 C 322.238 433.831, 322.723 433.742, 324.066 428.750 C 325.642 422.895, 327.691 419.062, 331.255 415.305 L 334.286 412.110 331.893 411.535 C 330.577 411.219, 327.700 411.027, 325.500 411.108 C 323.300 411.190, 319.025 410.971, 316 410.623 C 311.963 410.158, 309.037 410.477, 305 411.823 M 601.644 412.571 C 595.085 414.667, 596.365 415.384, 604.146 413.973 C 609.819 412.944, 620.283 413.291, 624.924 414.662 C 625.791 414.918, 625.150 414.350, 623.500 413.399 C 619.364 411.016, 607.874 410.581, 601.644 412.571 M 603.009 417.550 C 599.989 418.393, 597.064 419.575, 596.509 420.177 C 595.788 420.960, 596.213 421.065, 598 420.544 C 602.871 419.127, 617.936 418.746, 622.610 419.923 C 628.295 421.355, 629.568 420.553, 624.784 418.554 C 619.260 416.246, 609.321 415.788, 603.009 417.550 M 588.329 423.458 C 583.694 425.474, 581.715 430.488, 583.607 435.418 C 584.613 438.041, 586.780 437.302, 586.248 434.518 C 585.386 430.009, 586.828 427.129, 591.016 424.992 C 593.207 423.874, 595 422.743, 595 422.480 C 595 421.568, 591.489 422.083, 588.329 423.458 M 636.139 428.511 C 637.502 430.821, 637.997 432.875, 637.586 434.511 C 636.758 437.813, 638.759 437.764, 640.018 434.452 C 641.353 430.943, 638.880 425, 636.085 425 C 634.072 425, 634.072 425.008, 636.139 428.511 M 247.480 431.476 C 239.127 435.526, 234.748 440.562, 232.402 448.817 C 231.417 452.279, 229.506 455.868, 227.511 458 C 221.392 464.540, 220.215 471.581, 224 479 C 226.612 484.120, 226.517 486.645, 223.526 491.500 C 218.859 499.078, 220.670 505.686, 228.016 507.887 L 232.170 509.131 231.520 513.852 C 230.965 517.893, 231.180 518.853, 233.017 520.516 C 235.144 522.440, 235.174 522.440, 236.230 520.479 C 238.444 516.370, 246.066 510.059, 250.883 508.348 C 258.061 505.798, 258.449 502.768, 252.013 499.507 C 245.343 496.127, 241.705 492.805, 238.918 487.551 C 236.972 483.883, 235.984 483, 233.824 483 C 230.133 483, 227 478.806, 227 473.865 C 227 469.078, 229.926 465.692, 233.324 466.545 C 235.316 467.045, 235.741 466.620, 236.559 463.310 C 237.461 459.657, 237.705 459.475, 242.500 458.880 C 252.547 457.633, 260.150 452.468, 264.003 444.270 L 266.215 439.564 267.729 442.532 C 270.516 447.996, 277.645 453.955, 279.801 452.623 C 280.209 452.371, 280.474 447.740, 280.390 442.332 L 280.236 432.500 277.042 430.839 C 271.621 428.020, 253.817 428.404, 247.480 431.476 M 339.727 435.817 C 334.728 442.775, 334.114 444.179, 333.396 450.288 C 332.476 458.116, 331.676 459.022, 328.608 455.711 C 324.063 450.807, 320.288 453.655, 321.303 461.222 C 322.015 466.530, 324.634 469.323, 328.225 468.605 C 330.796 468.091, 331.222 468.502, 334.107 474.275 C 343.484 493.041, 365.969 499.662, 380.965 488.072 L 383.430 486.167 378.658 481.065 C 376.033 478.260, 373.041 474.077, 372.009 471.770 C 370.489 468.376, 369.409 467.374, 366.338 466.513 C 358.387 464.282, 355.078 452.626, 360.550 446.123 C 362.947 443.274, 363.011 442.922, 361.616 440.224 C 360.800 438.646, 359.509 436.838, 358.749 436.206 C 357.539 435.203, 345.615 431.048, 343.844 431.013 C 343.483 431.006, 341.630 433.168, 339.727 435.817 M 594.583 432.645 C 593.590 435.232, 596.833 437.996, 600.905 438.032 C 602.882 438.049, 605.374 438.724, 606.441 439.532 C 608.916 441.403, 619.093 441.474, 623.349 439.649 C 625.082 438.906, 627.850 437.884, 629.500 437.379 C 632.820 436.362, 634.243 432.414, 631.648 431.419 C 629.896 430.746, 626.901 432.191, 621.856 436.145 C 619.570 437.936, 617.015 439, 615 439 C 612.985 439, 610.430 437.936, 608.144 436.145 C 601.246 430.740, 595.848 429.347, 594.583 432.645 M 297.750 434.037 C 294.748 435.859, 293.091 440.467, 292.382 448.966 C 291.526 459.232, 289.989 461.322, 286.063 457.561 C 279.533 451.304, 275.172 459.508, 280.613 467.813 C 281.907 469.788, 282.790 470.133, 285.442 469.703 C 288.489 469.209, 288.825 469.460, 290.943 473.820 C 299.519 491.473, 322.166 498.670, 335.901 488.109 L 338.303 486.263 335.702 482.853 C 334.271 480.978, 332.287 477.656, 331.292 475.472 C 329.851 472.306, 328.903 471.458, 326.621 471.295 C 318.706 470.729, 314.921 456.440, 321.326 451.308 C 323.337 449.697, 323.543 448.787, 323.216 442.961 L 322.848 436.421 314.174 435.157 C 309.403 434.462, 304.150 433.687, 302.500 433.434 C 300.850 433.182, 298.712 433.453, 297.750 434.037 M 620.001 446.128 C 620.001 446.882, 620.856 449.751, 621.902 452.501 C 622.947 455.252, 624.131 459.691, 624.532 462.366 L 625.261 467.229 618.203 466.520 C 598.652 464.557, 571.157 473.133, 558.750 485.064 C 551.263 492.264, 552.644 493.706, 561.426 487.857 C 586.455 471.188, 617.066 467.109, 639.500 477.453 C 643.350 479.228, 648.525 482.235, 651 484.134 C 657.462 489.093, 658 489.354, 658 487.516 C 658 482.554, 643.205 471.942, 632.250 469.046 L 628 467.923 628 462.658 C 628 459.019, 627.213 455.813, 625.452 452.279 C 622.695 446.747, 620 443.706, 620.001 446.128 M 263.932 449.719 C 260.579 454.909, 253.170 459.629, 246.240 460.990 C 237.984 462.613, 238 462.602, 238 466.410 C 238 470.178, 236.485 471.885, 234.713 470.113 C 232.975 468.375, 230.197 468.804, 229.527 470.915 C 228.099 475.413, 232.115 481.726, 235.793 480.764 C 237.193 480.398, 238.230 481.370, 240.002 484.709 C 251.052 505.538, 281.649 505.713, 290.359 484.997 C 292.244 480.514, 289.027 473.073, 285.184 473.027 C 279.316 472.958, 275.708 467.714, 276.124 459.862 C 276.365 455.332, 276.129 454.726, 273.444 452.977 C 271.825 451.923, 269.572 449.908, 268.438 448.499 L 266.375 445.938 263.932 449.719 M 362.035 448.934 C 358.560 455.428, 362.787 464, 369.464 464 C 371.249 464, 372.345 465.185, 374.349 469.280 C 384.711 490.460, 407.521 495.214, 423.803 479.587 L 429.106 474.497 426.852 470.382 L 424.598 466.267 414.549 465.718 C 399.852 464.915, 389.166 461.274, 376.656 452.810 C 373.441 450.635, 370.569 449.097, 370.274 449.392 C 369.979 449.688, 368.796 449.270, 367.646 448.465 C 364.829 446.491, 363.273 446.621, 362.035 448.934 M 431.750 464.816 C 430.034 465.014, 429 465.731, 429 466.726 C 429 469.329, 436.639 478.656, 441.525 482.017 L 446.065 485.141 442.419 479.440 C 440.413 476.305, 437.811 471.660, 436.636 469.120 C 434.766 465.075, 434.158 464.539, 431.750 464.816 M 397.250 475.031 C 396.012 475.529, 395 476.400, 395 476.968 C 395 478.198, 395.400 478.208, 400.179 477.097 C 402.203 476.627, 405.690 476.578, 407.929 476.987 C 412.225 477.773, 413.317 476.775, 410.066 475.035 C 407.729 473.784, 400.358 473.782, 397.250 475.031 M 427.709 480.506 C 426.174 482.355, 422.897 485.135, 420.426 486.684 C 416.411 489.200, 415.963 489.852, 416.216 492.809 C 416.486 495.955, 416.855 496.240, 423.747 498.621 L 430.995 501.125 438.747 498.288 C 445.925 495.662, 446.522 495.225, 446.800 492.399 C 447.072 489.637, 446.536 488.998, 441.176 485.690 C 437.918 483.678, 434.509 480.900, 433.603 479.516 C 431.521 476.339, 431.112 476.407, 427.709 480.506 M 314.223 480.557 C 310.666 483.048, 311.651 483.976, 316.027 482.257 C 319.232 480.998, 320.972 480.886, 324.550 481.704 C 329.306 482.793, 331.395 481.817, 328.094 480.050 C 325.138 478.468, 316.768 478.774, 314.223 480.557 M 665.014 482.500 C 664.989 488.449, 662.225 493.032, 657.134 495.565 C 652.153 498.044, 653.114 499.777, 658.487 498.004 C 665.438 495.710, 669.642 485.636, 666 480 C 665.285 478.893, 665.026 479.549, 665.014 482.500 M 358.186 481.055 C 354.590 482.497, 356.485 483.905, 360.732 482.948 C 362.791 482.483, 366.506 482.337, 368.988 482.622 C 373.211 483.107, 373.376 483.040, 371.559 481.570 C 369.415 479.836, 361.943 479.548, 358.186 481.055 M 544.177 485.680 C 541.936 493.379, 547.848 502, 555.368 502 C 559.113 502, 558.609 500.764, 554.089 498.867 C 549.182 496.807, 546.674 493.011, 545.957 486.559 L 545.394 481.500 544.177 485.680 M 292.036 487.913 C 290.241 492.247, 284.300 497.980, 279.320 500.183 C 272.861 503.040, 273.292 505.949, 280.515 508.242 L 286.003 509.985 290.751 506.382 C 293.363 504.400, 295.673 502.618, 295.885 502.421 C 296.096 502.225, 295.697 500.683, 294.998 498.994 C 293.898 496.339, 293.979 495.454, 295.598 492.447 C 297.001 489.842, 297.206 488.550, 296.414 487.295 C 294.686 484.555, 293.349 484.743, 292.036 487.913 M 611.248 488.880 C 606.449 490.538, 602.597 492.969, 600.804 495.471 C 599.486 497.311, 600.739 497.049, 606.084 494.364 C 609.929 492.433, 613.504 491.539, 618.723 491.204 C 626.276 490.719, 627.838 489.649, 623.435 487.975 C 619.833 486.606, 617.281 486.795, 611.248 488.880 M 380.500 491.645 C 377.750 493.597, 375.545 495.600, 375.600 496.097 C 375.655 496.594, 375.767 497.647, 375.850 498.437 C 375.973 499.613, 377.137 499.467, 382.250 497.637 C 388.270 495.482, 388.500 495.273, 388.500 491.963 C 388.500 487.342, 386.665 487.269, 380.500 491.645 M 337.223 490.557 C 335.599 491.694, 335 493.122, 335 495.857 C 335 499.309, 335.355 499.774, 339.539 501.806 C 349.456 506.625, 354.978 496.953, 345.374 491.585 C 339.929 488.542, 340.072 488.561, 337.223 490.557 M 298.137 493.038 C 296.673 497.238, 298.472 501.283, 301.417 500.413 C 306.103 499.029, 307.415 494.105, 303.777 491.557 C 300.553 489.298, 299.328 489.620, 298.137 493.038 M 390.745 494.756 C 390.057 501.929, 396.699 506.053, 406.363 504.453 C 413.519 503.268, 416.954 500.812, 414.662 498.519 C 413.748 497.605, 413 495.652, 413 494.179 L 413 491.500 404.750 491.500 C 400.213 491.500, 395.308 491.165, 393.850 490.756 C 391.289 490.037, 391.185 490.172, 390.745 494.756 M 449.573 495.162 C 449.065 498.992, 449.295 500.801, 450.528 502.684 C 453.829 507.720, 467.550 511.838, 471.885 509.092 C 472.987 508.395, 472.816 507.972, 471.051 507.027 C 469.830 506.374, 464.649 502.302, 459.536 497.980 L 450.242 490.120 449.573 495.162 M 263 492 C 263 492.550, 264.998 493, 267.441 493 C 269.884 493, 272.160 492.550, 272.500 492 C 272.881 491.384, 271.177 491, 268.059 491 C 265.277 491, 263 491.450, 263 492 M 308.193 498.610 C 308.497 503.287, 308.561 503.366, 314.830 506.800 L 321.159 510.267 325.330 507.329 C 328.711 504.947, 329.476 503.834, 329.372 501.446 C 329.088 494.927, 329.508 495.284, 322.250 495.396 C 318.538 495.453, 313.787 495.137, 311.693 494.694 L 307.886 493.888 308.193 498.610 M 352.197 500.164 C 352.494 505.285, 352.596 505.441, 357.194 507.802 L 361.889 510.213 366.944 505.950 C 370.640 502.834, 372 500.984, 372 499.075 C 372 496.497, 371.904 496.463, 364.750 496.481 C 360.762 496.492, 356.238 496.148, 354.697 495.718 L 351.893 494.935 352.197 500.164 M 441.989 500.494 C 422.769 507.259, 412.204 519.141, 403.133 544.191 L 401.072 549.882 404.286 551.817 C 408.638 554.438, 419.638 557.949, 424.449 558.252 L 428.373 558.500 431.417 550.500 C 435.079 540.877, 436.058 542.979, 432.888 553.658 C 431.370 558.773, 430.055 561.434, 428.898 561.737 C 427.143 562.196, 425.876 567.367, 424.413 580.045 C 423.738 585.890, 425.866 599.013, 430.314 616.441 C 432.428 624.723, 432.814 625.442, 435.548 626.191 C 438.719 627.060, 452.848 627.485, 453.600 626.734 C 456.431 623.902, 457.219 552.962, 454.641 533 C 452.927 519.734, 450.038 507.874, 447.214 502.513 C 445.540 499.334, 445.418 499.287, 441.989 500.494 M 380.500 501.723 C 370.028 505.965, 362.835 512.431, 358.019 521.933 C 355.497 526.910, 350.766 539.120, 351.211 539.504 C 352.361 540.497, 360.439 544.033, 364.867 545.482 C 370.927 547.465, 371.447 547.161, 372.512 541.020 C 373.300 536.477, 375.924 531.487, 375.940 534.500 C 375.952 536.694, 374.575 543.525, 373.016 549 C 372.468 550.925, 371.324 561.265, 370.474 571.978 C 368.778 593.346, 369.600 605.208, 372.894 606.917 C 374.911 607.963, 385.224 609.686, 394.904 610.594 L 402.309 611.289 401.626 608.894 C 401.251 607.577, 400.173 603.800, 399.232 600.500 C 397.010 592.714, 396.989 570.443, 399.194 560.826 C 400.548 554.921, 400.553 553.981, 399.237 552.666 C 397.922 551.350, 397.995 550.376, 399.870 544.202 C 404.484 529.010, 413.764 513.954, 422.797 507.001 C 427.391 503.466, 427.284 502.516, 422.130 501.037 C 419.579 500.306, 418.774 500.424, 418.324 501.597 C 417.553 503.606, 411.086 506.803, 406.218 507.581 C 400.991 508.417, 392.106 505.807, 389.029 502.531 C 386.274 499.598, 385.846 499.558, 380.500 501.723 M 258.998 506.089 C 259 508.964, 259.507 509.910, 261.547 510.839 C 267.643 513.617, 273 511.609, 273 506.547 L 273 503.164 265.998 502.832 L 258.995 502.500 258.998 506.089 M 302 504.763 C 302 505.733, 303.624 508.938, 305.609 511.885 L 309.217 517.244 312.307 514.154 C 314.007 512.455, 315.196 510.928, 314.949 510.762 C 301.915 501.993, 302 502.033, 302 504.763 M 331.033 506.552 C 326.099 511.311, 329.177 512.423, 335.642 508.217 C 339.989 505.389, 340.140 505.146, 338.197 504.106 C 335.380 502.598, 334.997 502.729, 331.033 506.552 M 293.946 507.870 C 284.913 513.701, 279.704 521.654, 274.524 537.523 C 271.146 547.872, 271.075 547.638, 278.250 549.825 C 290.434 553.540, 291.731 553.536, 292.496 549.779 C 293.741 543.673, 296.361 536, 297.202 536 C 297.662 536, 297.804 537.013, 297.518 538.250 C 297.232 539.487, 296.289 543.645, 295.422 547.489 C 294.555 551.332, 293.401 554.752, 292.857 555.088 C 290.121 556.779, 290.206 567.404, 293.088 583.872 C 296.613 604.020, 295.937 603.323, 313.250 604.686 C 321.962 605.372, 322.154 605.183, 319.017 599.033 C 310.548 582.432, 310.415 553.462, 318.704 530.688 C 321.261 523.662, 321.723 518.130, 320.116 513.785 C 319.355 511.727, 319.077 511.848, 314.305 516.312 C 311.548 518.890, 309.008 521, 308.660 521 C 308.312 521, 305.935 517.400, 303.378 513 C 300.822 508.600, 298.654 505, 298.561 505 C 298.468 505, 296.391 506.292, 293.946 507.870 M 340.946 508.703 C 328.635 514.812, 322.104 525.239, 317.896 545.500 C 315.497 557.048, 315.362 575.770, 317.610 584.936 C 319.349 592.024, 326.354 608.028, 327.685 607.955 C 328.133 607.931, 330.638 605.993, 333.251 603.650 L 338.002 599.390 334.976 591.096 C 330.752 579.522, 330.368 573.795, 332.893 560 C 334.051 553.675, 335.770 546.025, 336.713 543 C 339.353 534.532, 339.462 539.998, 336.917 553.151 C 333.718 569.679, 333.839 579.382, 337.380 590.345 C 340.718 600.679, 340.537 601.372, 332.942 607.404 C 327.315 611.871, 327.359 611.268, 331.420 628.461 L 333.537 637.423 337.817 638.662 C 341.850 639.830, 361.070 642.354, 361.483 641.771 C 362.723 640.019, 359.019 622.698, 355.439 613.500 C 345.855 588.877, 343.615 567.832, 348.578 549.047 C 349.802 544.415, 349.960 542.487, 349.141 542.214 C 348.514 542.005, 348 541.009, 348 540.002 C 348 537.087, 353.785 522.731, 357.006 517.652 L 359.947 513.014 356.157 511.080 C 354.072 510.016, 351.779 508.438, 351.061 507.573 C 349.232 505.370, 347.206 505.596, 340.946 508.703 M 249.444 511.886 C 234.262 518.782, 226.307 554.022, 234.290 579.022 L 236.678 586.500 237.833 582.500 C 238.469 580.300, 238.991 577.523, 238.994 576.329 C 238.997 575.135, 239.874 570.410, 240.943 565.829 C 242.011 561.248, 243.381 553.675, 243.987 549 C 245.930 534.007, 246.072 533.377, 247.088 535.193 C 248.320 537.394, 246.576 553.617, 243.816 565.630 C 241.078 577.552, 241.532 577.898, 262.117 579.558 L 270.735 580.254 270.260 570.877 C 269.999 565.720, 270.217 559.167, 270.744 556.316 C 271.530 552.067, 271.424 550.853, 270.157 549.586 C 268.810 548.238, 268.780 547.365, 269.927 542.770 C 271.970 534.589, 276.670 522.912, 280.092 517.516 C 283.020 512.899, 283.095 512.543, 281.408 511.309 C 278.936 509.502, 277.240 509.666, 274.273 512 C 270.818 514.718, 262.686 514.716, 258.226 511.996 C 254.280 509.590, 254.493 509.593, 249.444 511.886 M 454.610 514.701 C 458.787 528.579, 461.190 575.042, 459.175 602.982 C 458.380 614.011, 458.414 617.661, 459.316 618.295 C 460.416 619.067, 481.519 618.415, 482.892 617.567 C 483.231 617.357, 483.282 614.331, 483.005 610.843 C 482.727 607.354, 482.946 600.675, 483.491 596 C 486.147 573.224, 482.604 515.406, 478.335 511.863 C 477.284 510.991, 476.321 510.988, 474.423 511.853 C 470.891 513.462, 462.607 513.280, 458.346 511.500 C 453.207 509.353, 453.043 509.493, 454.610 514.701 M 324.667 511.667 C 324.300 512.033, 324 513.894, 324 515.802 L 324 519.270 326.096 516.605 C 328.676 513.326, 327.404 508.930, 324.667 511.667 M 483.428 517.800 C 484.821 524.461, 486.019 535.883, 487.132 553.103 L 488.333 571.705 492.054 564.011 C 494.100 559.780, 497.001 554.374, 498.501 551.999 C 501.022 548.005, 501.176 547.166, 500.553 540.840 C 499.767 532.862, 501.439 531.282, 502.500 539 C 503.322 544.980, 503.462 544.992, 508.284 539.510 L 512.067 535.209 510.524 531.354 C 509.088 527.770, 508.067 527.066, 495.921 521.300 C 482.894 515.115, 482.864 515.106, 483.428 517.800 M 513.393 530.582 C 513.727 531.452, 514 532.352, 514 532.582 C 514 532.812, 514.648 533, 515.441 533 C 517.529 533, 518.492 530.925, 516.878 529.904 C 514.615 528.470, 512.724 528.838, 513.393 530.582 M 520.396 535.828 C 509.929 543.411, 498.294 559.782, 493.487 573.694 C 479.276 614.815, 492.798 645.062, 525.355 644.983 C 543.096 644.940, 558.463 639.120, 589.991 620.505 C 599.896 614.657, 610.256 608.889, 613.014 607.686 C 617.492 605.734, 617.965 605.233, 617.445 603 C 616.552 599.164, 612.559 592.873, 608.604 589.072 L 605.038 585.645 594.183 587.786 C 572.708 592.024, 537.921 605.586, 531.956 612.048 C 526.390 618.077, 519.885 619.740, 516.500 616 C 515.382 614.765, 513.420 614, 511.368 614 C 508.839 614, 507.624 613.343, 506.278 611.250 C 505.306 609.737, 503.445 607.640, 502.143 606.589 C 500.110 604.948, 499.840 604.017, 500.228 599.980 C 500.516 596.979, 500.195 594.620, 499.340 593.450 C 493.165 585.005, 509.395 571.956, 524.515 573.210 L 529.747 573.644 531.425 568.322 C 533.574 561.504, 534.283 561.584, 533.848 568.595 L 533.500 574.190 541.221 577.014 L 548.941 579.837 551.211 575.292 C 557.480 562.739, 572.666 556.081, 592.316 557.269 C 608.339 558.238, 619.710 564.707, 624.911 575.811 C 626.973 580.213, 627.894 581.073, 632.382 582.790 C 638.867 585.270, 639.068 584.669, 635.533 573.330 C 634.076 568.659, 633.039 564.086, 633.227 563.169 C 633.720 560.765, 638.496 571.207, 640.943 580.038 C 642.513 585.701, 643.890 588.348, 646.884 591.455 C 650.931 595.654, 653.271 599.627, 654.347 604.123 C 654.740 605.767, 656.087 607.208, 657.954 607.981 C 661.518 609.457, 663.997 612, 661.872 612 C 661.117 612, 657.349 611.325, 653.500 610.500 C 649.650 609.675, 641.036 608.709, 634.358 608.351 L 622.215 607.702 613.457 612.438 C 608.640 615.042, 600.619 619.697, 595.633 622.781 L 586.567 628.389 592.034 630.815 C 626.553 646.135, 657.624 649.293, 669.681 638.707 C 686.374 624.051, 674.842 585.871, 644.528 555.430 C 639.013 549.892, 632.352 543.900, 629.726 542.115 L 624.951 538.870 617.226 540.142 C 596.835 543.497, 562.258 541.481, 537.170 535.473 C 524.429 532.423, 525.117 532.408, 520.396 535.828 M 352.593 545.758 C 348.517 558.985, 348.267 579.492, 352.011 593.500 C 354.044 601.107, 361.421 621.755, 362.486 622.820 C 364.406 624.739, 371.513 613.826, 370.083 611.155 C 369.516 610.095, 367.883 603.440, 366.455 596.364 C 363.103 579.758, 363.068 570.255, 366.318 558.795 L 368.786 550.090 363.643 548.409 C 360.814 547.485, 357.292 546.119, 355.815 545.372 C 353.429 544.167, 353.070 544.210, 352.593 545.758 M 273.445 556.515 C 271.445 569.853, 274.495 585.380, 282.529 602.770 L 285.949 610.172 288.972 608.020 C 293.297 604.940, 293.424 603.110, 290.477 586.443 C 288.586 575.754, 287.946 569.199, 288.229 563.417 L 288.624 555.334 283.562 554.206 C 280.778 553.586, 277.522 552.792, 276.326 552.442 C 274.370 551.870, 274.081 552.279, 273.445 556.515 M 402.564 560.170 C 399.486 578.749, 400.107 592.440, 404.680 606.795 C 407.774 616.509, 418.818 639.116, 420.786 639.766 C 423.153 640.548, 431.334 631.338, 430.561 628.762 C 421.826 599.645, 419.514 581.423, 422.877 568.196 C 423.619 565.279, 424.034 562.701, 423.801 562.468 C 423.568 562.234, 419.580 560.890, 414.938 559.480 C 410.297 558.070, 405.776 556.675, 404.891 556.379 C 403.637 555.959, 403.122 556.798, 402.564 560.170 M 573.994 561.423 C 565.333 563.816, 559.107 568.186, 554.895 574.827 C 551.308 580.483, 551.290 581.577, 554.750 583.388 C 556.263 584.180, 558.950 586.258, 560.722 588.005 L 563.944 591.183 571.722 588.614 C 585.562 584.044, 599.178 581.504, 616.250 580.309 C 624.148 579.756, 624.464 579.075, 619.719 572.853 C 615.286 567.042, 609.696 563.356, 602.540 561.525 C 595.455 559.712, 580.383 559.659, 573.994 561.423 M 367.154 569 C 367.054 570.925, 366.741 573.625, 366.458 575 L 365.944 577.500 367.019 575.034 C 367.611 573.678, 367.924 570.978, 367.716 569.034 L 367.336 565.500 367.154 569 M 512.355 578.447 C 508.062 580.315, 501 586.847, 501 588.950 C 501 592.214, 502.293 591.922, 507.142 587.562 C 512.067 583.134, 520.686 579.286, 522.228 580.828 C 522.689 581.289, 521.139 582.526, 518.783 583.576 C 510.617 587.217, 503 595.815, 503 601.391 C 503 605.801, 504.733 605.136, 507.910 599.506 C 511.343 593.423, 518.581 587.424, 523.696 586.423 C 529.302 585.326, 529.670 586.623, 524.401 588.907 C 515.172 592.906, 506.539 604.402, 509.130 609.244 C 510.830 612.419, 513.582 611.339, 514.887 606.983 C 517.264 599.049, 526.707 591.498, 533.324 592.241 C 536.058 592.548, 536.222 592.712, 534.500 593.419 C 523.158 598.079, 519.084 602.078, 518.263 609.356 C 517.873 612.818, 518.120 613.832, 519.478 614.353 C 521.888 615.278, 527.661 612.285, 530.116 608.838 C 532.173 605.948, 546.097 598.328, 556.384 594.462 L 561.268 592.626 558.384 590.322 C 545.818 580.285, 522.159 574.181, 512.355 578.447 M 239.951 586.250 C 239.275 590.237, 237.741 601.264, 236.544 610.754 L 234.366 628.007 237.933 629.018 C 251.385 632.828, 283.192 634.208, 286.286 631.114 C 286.830 630.570, 286.354 626.884, 285.097 621.912 C 283.944 617.351, 283 612.868, 283 611.950 C 283 611.033, 281.469 606.956, 279.598 602.891 C 277.726 598.826, 275.177 592.575, 273.932 589 L 271.669 582.500 262.845 582.280 C 257.991 582.159, 251.363 581.372, 248.116 580.530 C 244.868 579.689, 241.979 579, 241.696 579 C 241.413 579, 240.627 582.263, 239.951 586.250 M 614.239 589.233 C 616.717 592.275, 619.538 596.842, 620.508 599.382 L 622.272 604 630.999 604 C 635.800 604, 642.111 604.452, 645.025 605.005 C 651.526 606.238, 651.625 606.146, 649.112 601.219 C 644.182 591.555, 632.548 585.184, 618.117 584.246 L 609.734 583.701 614.239 589.233 M 290.730 609.162 L 285.959 614.008 287.971 621.888 C 290.697 632.562, 291.829 644.760, 292.947 675.474 C 293.761 697.852, 294.123 701.617, 295.558 702.666 C 297.967 704.428, 307.475 705.395, 312.330 704.372 L 316.500 703.493 318.168 683.997 C 321.980 639.443, 323.691 625.732, 325.371 626.287 C 326.773 626.750, 327.410 632.803, 329.441 665 C 330.326 679.025, 331.295 693.268, 331.594 696.652 L 332.138 702.803 336.069 703.178 C 340.786 703.628, 340.560 706.151, 338.506 676 C 336.143 641.304, 336.136 641.251, 333.423 640.570 C 330.536 639.845, 329.232 635.428, 325.287 613 L 324.495 608.500 314.604 607.795 C 309.163 607.407, 302.672 606.395, 300.178 605.545 C 297.684 604.695, 295.611 604.071, 295.572 604.158 C 295.532 604.246, 293.353 606.497, 290.730 609.162 M 374 612.850 C 374 615.057, 368.752 622.656, 365.210 625.579 C 363.046 627.365, 362.776 628.211, 363.292 631.579 C 366.537 652.735, 369.068 674.587, 370 689.500 C 372.651 731.891, 372.694 732.303, 374.530 733.646 C 377.158 735.567, 386.742 737.266, 390.852 736.539 C 398.332 735.215, 397.998 735.698, 398.021 726.183 C 398.088 698.643, 403.511 640, 405.991 640 C 408.094 640, 411.944 679.518, 413.624 718.333 C 414.351 735.110, 414.932 737, 419.369 737 C 421.463 737, 421.578 736.629, 421.314 730.750 C 421.160 727.313, 420.554 712.575, 419.968 698 C 419.381 683.425, 418.435 666.100, 417.866 659.500 C 417.296 652.900, 416.735 645.925, 416.620 644 C 416.505 642.075, 413.505 634.563, 409.955 627.306 L 403.500 614.111 399 614.050 C 396.525 614.016, 390.039 613.316, 384.587 612.494 C 379.135 611.672, 374.523 611, 374.337 611 C 374.152 611, 374 611.832, 374 612.850 M 476.500 621.186 C 472.650 621.563, 466.961 621.622, 463.858 621.319 L 458.215 620.766 457.509 624.945 C 456.958 628.209, 456.222 629.352, 454.152 630.162 C 451.597 631.162, 438.955 630.687, 435.790 629.473 C 434.774 629.083, 433.879 629.878, 433.032 631.923 C 431.525 635.561, 423.709 643, 421.393 643 C 419.957 643, 419.826 643.879, 420.391 649.750 C 421.993 666.413, 422.983 683.703, 423.983 712.500 C 425.525 756.869, 425.378 755.713, 429.704 757.521 C 433.805 759.234, 444.339 759.475, 448.701 757.954 L 451.700 756.909 452.353 745.487 C 453.139 731.724, 456.495 699.308, 458.563 685.500 C 461.819 663.768, 463.269 655.433, 464.055 653.931 C 464.756 652.593, 474.905 649, 477.985 649 C 480.426 649, 478.675 650.949, 475.250 652.043 C 469.896 653.754, 469.937 653.629, 471.519 663.510 C 473.753 677.459, 476.785 709.359, 478.076 732.500 C 478.906 747.362, 479.642 753.919, 480.595 754.935 C 481.511 755.911, 484.254 756.390, 489.178 756.435 L 496.415 756.500 498.626 743.500 L 500.837 730.500 498.340 724.135 C 490.932 705.243, 491.607 683.599, 500.518 654.355 C 501.883 649.876, 503 646, 503 645.741 C 503 645.483, 501.187 644.015, 498.970 642.479 C 496.754 640.943, 493.281 637.395, 491.253 634.593 C 489.225 631.792, 487.209 629.246, 486.773 628.935 C 486.337 628.624, 485.422 626.599, 484.740 624.435 L 483.500 620.500 476.500 621.186 M 571 636.833 C 565.225 639.891, 556.225 643.818, 551 645.559 L 541.500 648.725 540.313 656.112 C 533.788 696.710, 552.084 720, 590.500 720 C 626.431 720, 643.742 701.026, 640.078 665.662 C 638.367 649.153, 638.926 649.998, 628.300 647.851 C 617.175 645.604, 604.578 641.274, 592.116 635.413 C 586.955 632.986, 582.455 631.061, 582.116 631.136 C 581.777 631.211, 576.775 633.775, 571 636.833 M 248.543 638.300 C 252.275 670.221, 252.758 687.767, 250 691.273 C 248.900 692.671, 248 694.082, 248 694.408 C 248 695.526, 253.100 694.999, 255.802 693.602 C 261.730 690.537, 261.699 690.685, 262.462 662.290 L 263.167 636.080 260.834 635.604 C 259.550 635.342, 256.149 634.897, 253.276 634.614 L 248.052 634.100 248.543 638.300 M 279.311 634.913 C 276.458 635.260, 273.865 635.802, 273.550 636.117 C 273.235 636.432, 273.320 648.334, 273.738 662.565 L 274.500 688.441 278.500 690.704 C 280.700 691.949, 283.928 692.975, 285.673 692.984 L 288.846 693 285.834 689.988 C 282.851 687.005, 282.828 686.898, 283.412 678.738 C 283.736 674.207, 284.468 663.525, 285.038 655 C 285.608 646.475, 286.318 638.263, 286.616 636.750 C 286.997 634.823, 286.761 634.042, 285.829 634.141 C 285.098 634.218, 282.165 634.566, 279.311 634.913 M 265.644 641.750 C 265.306 644.913, 264.975 653.800, 264.907 661.500 L 264.785 675.500 268.076 675.500 L 271.367 675.500 270.992 659 C 270.786 649.925, 270.591 641.038, 270.559 639.250 C 270.511 636.623, 270.093 636, 268.379 636 C 266.535 636, 266.178 636.751, 265.644 641.750 M 339.433 646.432 C 340.095 651.811, 340.728 660.655, 342.514 689.500 C 344.530 722.055, 344.254 720.722, 349.244 722.066 C 353.183 723.126, 358.305 722.752, 360.624 721.235 C 362.485 720.017, 365.281 667.269, 364.002 657.497 C 362.302 644.511, 362.549 645.006, 357.731 644.960 C 355.404 644.938, 350.222 644.345, 346.216 643.643 L 338.932 642.364 339.433 646.432 M 323.618 652.724 C 323.253 657.001, 322.678 663.763, 322.339 667.750 L 321.724 675 324.612 675.002 L 327.500 675.004 326.500 660.579 C 325.345 643.921, 324.552 641.760, 323.618 652.724 M 287.578 656.706 C 287.211 662.093, 286.655 668.413, 286.342 670.750 C 285.824 674.618, 285.968 675, 287.941 675 C 290.094 675, 290.105 674.901, 289.421 661.250 C 289.043 653.688, 288.623 647.368, 288.489 647.206 C 288.354 647.044, 287.944 651.319, 287.578 656.706 M 507.468 648.344 C 506.096 652.333, 500.963 674.771, 499.955 681.179 C 497.921 694.120, 499.126 710.839, 502.830 721.076 L 505.934 729.652 503.919 742.576 C 500.769 762.788, 499 777.876, 499 784.543 C 499 789.002, 498.355 791.935, 496.621 795.359 C 494.428 799.691, 494.389 800.016, 496.121 799.529 C 497.155 799.238, 498.815 798.772, 499.811 798.493 C 501.145 798.119, 502.076 798.936, 503.343 801.593 C 505.006 805.081, 505.138 805.148, 507.282 803.587 C 511.246 800.701, 512.075 800.698, 515.060 803.557 L 518 806.374 520.964 803.535 C 523.212 801.381, 524.246 800.960, 525.247 801.790 C 525.972 802.392, 527.808 803.357, 529.327 803.934 C 532.060 804.973, 532.081 804.951, 531.455 801.612 C 530.009 793.904, 537.124 775.532, 547.668 759.750 C 553.408 751.158, 554.475 749, 552.984 749 C 551.216 749, 548.982 747.027, 550.691 746.975 C 551.136 746.962, 561.400 746.783, 573.500 746.578 C 593.960 746.230, 603.042 745.306, 616.802 742.170 C 624.418 740.434, 621.041 743.265, 611.764 746.394 L 603.182 749.289 607.095 754.240 C 612.519 761.101, 617.530 770.416, 619.512 777.321 C 621.264 783.424, 621.270 800.485, 619.521 804.398 C 618.566 806.535, 620.570 806.394, 626.726 803.891 C 629.765 802.656, 630.129 802.750, 633.012 805.511 L 636.072 808.443 638.466 805.471 C 640.657 802.752, 641.051 802.616, 643.107 803.869 C 645.073 805.067, 645.513 805.019, 646.634 803.485 C 647.574 802.200, 648.718 801.894, 650.927 802.335 L 653.938 802.938 652.347 799.603 C 650.824 796.407, 650.912 795.666, 654.469 781.884 C 658.924 764.620, 658.885 760.715, 654.064 740.876 C 651.144 728.866, 650.531 727.310, 648.887 727.740 C 647.228 728.174, 647.349 727.507, 649.986 721.690 C 658.649 702.586, 659.924 683.808, 654.329 657.768 L 652.659 650 646.705 650 L 640.750 650 641.385 653.176 C 650.205 697.273, 631.628 723.056, 591.090 722.983 C 549.562 722.907, 530.395 697.831, 537.600 653 L 538.163 649.500 527.331 649.832 C 519.600 650.068, 515.264 649.737, 512.183 648.675 C 509.028 647.588, 507.758 647.499, 507.468 648.344 M 405.092 659 C 405.032 661.475, 404.699 665.862, 404.352 668.750 C 403.765 673.633, 403.870 674, 405.845 674 C 407.848 674, 407.935 673.644, 407.366 667.750 C 407.034 664.313, 406.411 659.925, 405.982 658 L 405.201 654.500 405.092 659 M 465.192 663.361 C 463.606 674.326, 463.548 674, 467.108 674 C 469.823 674, 470.149 673.715, 469.684 671.750 C 469.391 670.513, 468.839 666.456, 468.458 662.736 C 467.507 653.464, 466.598 653.639, 465.192 663.361 M 461.621 688.250 C 459.403 704.645, 455.780 740.114, 456.274 740.608 C 456.491 740.824, 460.850 740.705, 465.960 740.342 L 475.252 739.683 474.578 729.091 C 473.662 714.673, 471.160 685.459, 470.396 680.250 C 469.810 676.251, 469.581 676, 466.526 676 L 463.279 676 461.621 688.250 M 403.572 679.250 C 403.316 680.487, 402.570 691.122, 401.914 702.882 C 400.764 723.478, 400.790 724.303, 402.610 725.315 C 405.641 727.001, 410 731.718, 410 733.312 C 410 736.573, 406.386 739.392, 402.135 739.447 C 399.529 739.480, 398.005 739.961, 398.003 740.750 C 397.998 742.799, 412.884 742.466, 413.677 740.399 C 414.015 739.519, 413.689 738.426, 412.953 737.971 C 411.954 737.354, 411.302 731.087, 410.387 713.322 C 408.675 680.089, 408.297 677, 405.939 677 C 404.772 677, 403.858 677.869, 403.572 679.250 M 154.244 678.979 L 122.988 679.500 127.244 681.737 C 129.585 682.967, 159.138 697.944, 192.917 715.018 L 254.335 746.062 284.917 745.033 C 301.738 744.467, 318.978 744.003, 323.229 744.002 L 330.957 744 329.874 741.622 C 328.314 738.199, 331.083 732.954, 337.116 727.903 C 343.631 722.448, 343.550 720.288, 336.705 717 C 331.691 714.592, 331.488 714.335, 331.181 710.020 C 331.006 707.555, 330.471 705.067, 329.992 704.490 C 329.513 703.913, 328.803 697.717, 328.415 690.721 L 327.708 678 324.546 678 L 321.384 678 320.330 691.062 C 319.751 698.245, 318.765 704.635, 318.138 705.262 C 317.512 705.888, 317 708.131, 317 710.248 C 317 714.938, 314.393 717.648, 305.706 721.989 C 295.399 727.140, 284 725.649, 284 719.150 C 284 717.214, 288.478 710.479, 291.322 708.137 C 293.418 706.411, 292.589 705, 289.478 705 C 286.132 705, 276.711 701.347, 273.459 698.789 C 270.759 696.666, 270.753 696.630, 271.436 687.329 L 272.121 678 267.941 678 L 263.762 678 264.480 687.580 C 265.307 698.610, 264.518 700.182, 256 704.456 C 247.344 708.799, 241.614 708.746, 239.927 704.308 C 238.809 701.369, 239.686 699.512, 245.660 692.158 C 249.913 686.924, 250.582 684.775, 249.370 680.250 L 248.767 678 217.133 678.229 C 199.735 678.354, 171.435 678.692, 154.244 678.979 M 286 682.345 C 286 685.420, 286.585 687.219, 288 688.500 C 289.979 690.291, 290 690.247, 290 684.155 C 290 678.667, 289.783 678, 288 678 C 286.307 678, 286 678.667, 286 682.345 M 274 693.960 C 274 696.298, 274.727 697.121, 278.250 698.776 C 281.924 700.501, 289.424 702.977, 291.026 702.994 C 291.316 702.997, 291.391 701.304, 291.193 699.231 C 290.838 695.506, 290.790 695.467, 286.947 695.834 C 284.143 696.101, 281.797 695.499, 278.530 693.673 L 274 691.141 274 693.960 M 260.496 693.007 C 259.235 695.047, 253.539 697.228, 249.120 697.362 C 245.257 697.479, 244.343 697.917, 243.037 700.275 C 240.049 705.671, 245.325 706.501, 254.630 702.099 C 261.239 698.972, 262.046 698.182, 262.457 694.443 C 262.729 691.967, 261.634 691.165, 260.496 693.007 M 663 694.042 C 663 698.132, 659.779 711.530, 657.319 717.676 C 653.445 727.354, 654.608 730.842, 662.512 733.248 C 668.215 734.985, 670.916 734.997, 726.982 733.544 C 759.167 732.710, 798.905 731.724, 815.289 731.353 C 831.673 730.982, 844.723 730.380, 844.289 730.016 C 843.855 729.651, 830.675 726.735, 815 723.535 C 799.325 720.335, 777.275 715.741, 766 713.326 C 738.260 707.386, 664.402 692, 663.625 692 C 663.281 692, 663 692.919, 663 694.042 M 365.196 707.500 C 364.520 715.750, 363.789 725.106, 363.572 728.290 C 363.138 734.656, 362.360 735.982, 356.600 740.167 L 352.700 743 359.773 743 C 365.910 743, 367.251 742.660, 369.901 740.430 C 372.814 737.979, 372.883 737.750, 371.387 735.468 C 370.296 733.803, 369.528 728.735, 368.859 718.788 C 367.034 691.642, 366.605 690.318, 365.196 707.500 M 333.377 707.459 C 332.318 710.221, 333.544 712.519, 337.003 714.253 L 340.500 716.007 340.813 711.899 C 341.176 707.118, 341.412 707.461, 337.212 706.661 C 334.849 706.211, 333.770 706.435, 333.377 707.459 M 291.530 712.178 C 284.171 720.363, 286.309 723.419, 297.784 721.114 C 306.333 719.398, 314.001 714.395, 313.995 710.539 L 313.989 707.500 305.024 707.320 L 296.060 707.140 291.530 712.178 M 338.568 731.002 C 331.209 738.625, 330.962 739.274, 334.526 741.609 C 341.838 746.400, 361.584 736.769, 360.816 728.787 C 360.509 725.589, 360.388 725.509, 356.354 725.826 C 354.074 726.005, 350.617 725.712, 348.672 725.175 C 345.190 724.214, 345.036 724.302, 338.568 731.002 M 400.751 732.750 C 400.177 737.360, 400.229 737.424, 403.625 736.292 C 407.199 735.100, 407.609 733.609, 405.063 731.063 C 402.140 728.140, 401.284 728.475, 400.751 732.750 M 373.937 740.567 C 372.632 741.956, 369.180 744.932, 366.268 747.179 C 360.751 751.436, 358.659 755.486, 361.115 757.158 C 364.565 759.508, 377.492 757.493, 386.404 753.217 L 395 749.092 395 744.296 L 395 739.500 388.250 739.469 C 384.538 739.453, 380.332 739.124, 378.906 738.739 C 376.877 738.193, 375.793 738.591, 373.937 740.567 M 416.667 740.667 C 415.317 742.017, 416.042 747.726, 417.750 749.193 C 421.710 752.593, 422 752.379, 422 746.059 C 422 740.378, 421.854 740, 419.667 740 C 418.383 740, 417.033 740.300, 416.667 740.667 M 482 764.711 L 482 769.683 488.006 771.502 C 495.105 773.651, 494.636 773.961, 495.208 766.750 L 495.665 761 492.582 760.989 C 490.887 760.983, 487.813 760.699, 485.750 760.358 L 482 759.738 482 764.711 M 422.591 767.091 C 420.018 770.513, 418.046 774.002, 418.208 774.843 C 419.167 779.820, 443.835 778.006, 447.200 772.711 C 447.623 772.045, 447.976 769.421, 447.985 766.879 L 448 762.259 441.750 762.379 C 438.313 762.446, 433.648 762.133, 431.384 761.685 L 427.268 760.869 422.591 767.091 M 494 803.586 C 491.525 804.385, 482.525 807.074, 474 809.561 C 450.763 816.342, 441 821.414, 441 826.706 C 441 829.215, 444.097 831.209, 444.786 829.143 C 446.527 823.920, 455.196 818.300, 465.716 815.574 C 475.768 812.969, 477.287 814.449, 467.738 817.546 C 459.220 820.308, 451.016 825.068, 449.406 828.182 C 447.538 831.793, 448.879 834.613, 452.722 835.159 C 457.069 835.777, 458.505 835.149, 459.644 832.131 C 461.618 826.902, 472.334 821.091, 484.750 818.515 C 490.475 817.328, 488.305 819.735, 481.656 821.948 C 461.486 828.660, 456.263 840.019, 473.361 839.989 C 480.440 839.977, 484.489 838.860, 499 832.915 C 510.955 828.018, 517.591 827.395, 531.043 829.910 C 546.825 832.861, 552.450 826.500, 540.599 819.105 C 537.526 817.187, 534.370 814.245, 533.346 812.344 C 532.339 810.474, 529.872 808.156, 527.795 807.129 C 524.156 805.328, 524.013 805.328, 522.374 807.140 C 520.136 809.613, 516.495 809.495, 513.864 806.864 C 511.835 804.835, 511.591 804.810, 508.960 806.364 C 504.980 808.716, 503.259 808.401, 501.500 805 C 499.738 801.592, 500.016 801.645, 494 803.586 M 648.398 807.730 C 647.454 809.227, 646.933 809.291, 644.544 808.202 C 642.043 807.062, 641.560 807.182, 639.439 809.472 C 636.509 812.632, 635.893 812.622, 632.004 809.350 C 628.916 806.752, 628.786 806.732, 625.393 808.350 C 623.490 809.257, 621.288 810, 620.501 810 C 619.714 810, 618.591 810.896, 618.005 811.991 C 617.419 813.086, 614.492 815.790, 611.500 818 C 598.926 827.289, 604.236 832.835, 622.369 829.350 C 633.471 827.217, 641.490 828.029, 659.500 833.111 C 677.892 838.301, 687.027 838.913, 690.072 835.157 C 693.868 830.475, 689.078 826.663, 673.250 821.769 C 661.776 818.221, 660.817 816.415, 671.500 818.473 C 685.006 821.076, 693.311 825.530, 695.322 831.250 C 696.009 833.205, 699.130 833.536, 702.066 831.965 C 708.135 828.717, 698.824 820.912, 683.601 816.486 C 679.094 815.176, 675.208 813, 677.376 813 C 685.156 813, 700.148 818.817, 704.638 823.578 C 707.349 826.452, 708.125 826.839, 708.615 825.562 C 709.405 823.501, 707.558 821.332, 702 817.794 C 689.439 809.799, 651.577 802.691, 648.398 807.730" stroke="none" fill="#1a1a1a" fill-rule="evenodd"/>
</svg>