<svg xmlns="http://www.w3.org/2000/svg" width="1024" height="1024" viewBox="0 0 1024 1024" version="1.1">
	<path d="M 344.373 165.979 C 295.167 178.879, 263.764 246.682, 279.523 306 C 289.305 342.822, 318.152 371.245, 350.648 376.079 C 357.488 377.097, 358.947 377.619, 358.577 378.913 C 358.327 379.786, 357.842 383.650, 357.500 387.500 C 356.360 400.335, 356.770 399.683, 350.133 399.203 C 330.292 397.768, 316.483 422.343, 324.400 445 C 326.329 450.519, 327.136 455.142, 327.457 462.500 C 329.173 501.842, 360.471 540.043, 416 570.572 C 421.775 573.747, 426.590 576.395, 426.701 576.457 C 426.811 576.518, 425.329 581.503, 423.408 587.534 C 421.487 593.565, 418.891 603.675, 417.639 610 L 415.364 621.500 381.305 621.596 C 362.572 621.649, 346.471 621.989, 345.525 622.352 C 344.578 622.715, 336.157 622.272, 326.811 621.366 C 314.267 620.151, 308.921 619.996, 306.388 620.773 C 304.501 621.352, 271.804 637.805, 233.728 657.334 C 195.653 676.863, 160.616 694.751, 155.869 697.085 C 144.986 702.435, 144 703.959, 144 715.436 C 144 724.822, 145.568 730.163, 148.836 731.912 C 150.415 732.757, 161.725 734.880, 165.183 734.980 C 165.559 734.991, 166.009 763.390, 166.183 798.089 L 166.500 861.178 168.830 863.064 C 172.023 865.649, 177.093 866.997, 186.240 867.694 C 193.515 868.249, 194.369 868.093, 200.452 865.098 C 211.980 859.423, 211.310 862.534, 210.462 818.618 L 209.731 780.736 215.116 781.445 C 218.077 781.836, 237.600 784.498, 258.500 787.361 L 296.500 792.567 297 800.823 C 297.577 810.347, 297.492 810.252, 307.500 812.547 C 317.536 814.849, 322.258 814.617, 328.321 811.527 C 336.070 807.577, 337.310 806.372, 337.932 802.196 L 338.500 798.379 372.500 803.128 C 391.200 805.740, 407.288 807.904, 408.250 807.938 C 409.503 807.982, 410 808.829, 410 810.923 C 410 814.783, 414.213 819.675, 418.277 820.534 C 420.050 820.909, 422.537 822.169, 423.804 823.333 C 426.023 825.372, 428.117 825.653, 437 825.107 C 438.375 825.022, 441.442 825.238, 443.815 825.588 C 448.983 826.348, 454.755 824.390, 461.966 819.430 L 466.896 816.039 486.857 818.752 L 506.819 821.466 507.417 825.207 C 507.746 827.264, 509.337 830.454, 510.953 832.294 L 513.892 835.641 514.196 875.408 L 514.500 915.175 517.199 917.496 C 520.363 920.216, 531.527 923.004, 539.197 922.990 C 545.790 922.978, 553.085 919.741, 558.824 914.283 L 563 910.310 563.020 872.905 L 563.040 835.500 568.218 832.500 C 573.445 829.472, 594.634 809.317, 601.335 801 L 604.961 796.500 604.980 812.685 C 605.003 831.662, 605.482 833.519, 610.706 834.908 C 619.108 837.143, 625.834 837.699, 629.445 836.458 L 633 835.236 633 844.046 C 633 854.621, 633.489 855.300, 642.317 856.965 C 653.506 859.077, 657.221 858.716, 663.510 854.908 C 673.332 848.960, 672.470 854.035, 672.725 800.646 C 672.976 748.059, 673.384 739.450, 675.668 738.574 C 678.487 737.492, 678.712 738.918, 679.475 762.720 C 679.895 775.799, 680.522 791, 680.869 796.500 L 681.500 806.500 685.134 808.277 C 687.132 809.254, 691.632 810.316, 695.134 810.637 C 701.183 811.192, 701.749 811.051, 706.500 807.796 C 709.250 805.912, 711.983 804.085, 712.573 803.736 C 713.163 803.386, 712.379 808.141, 710.831 814.300 C 705.115 837.035, 704.522 842.477, 707.183 847.778 C 712.452 858.276, 729.079 859.496, 734.965 849.817 C 737.278 846.015, 738.340 839.911, 741.021 815.023 C 742.175 804.311, 743.307 795.360, 743.536 795.131 C 743.765 794.902, 746.513 795.229, 749.643 795.857 C 752.773 796.486, 756.496 797.007, 757.917 797.015 C 763.077 797.046, 763.225 797.570, 761.884 811.094 C 761.208 817.917, 760.984 824.809, 761.386 826.409 C 762.531 830.959, 768.046 835.824, 772.950 836.608 L 777.166 837.282 776.471 846.539 C 775.708 856.725, 776.742 861.841, 780.373 865.845 C 787.569 873.779, 800.706 872.725, 807.408 863.675 C 809.926 860.276, 809.950 851.289, 807.519 822.539 C 806.683 812.660, 806 803.179, 806 801.469 L 806 798.360 814.750 797.120 C 819.563 796.437, 824.962 795.630, 826.750 795.326 C 829.881 794.793, 830 794.896, 830.009 798.137 C 830.028 805.971, 834.962 841.026, 836.450 843.902 C 841.269 853.222, 858.969 853.288, 864.418 844.007 C 867.315 839.073, 866.701 833.935, 860.140 808.206 L 854.200 784.912 857.103 782.766 C 862.445 778.816, 864.234 773.327, 863.843 762.081 C 863.425 750.019, 861.353 746.734, 850.435 740.825 C 835.425 732.700, 817.653 729.589, 786 729.545 C 753.335 729.499, 734.083 732.842, 719.149 741.153 C 716.206 742.791, 713.680 743.989, 713.537 743.816 C 713.394 743.642, 713.011 737.350, 712.686 729.834 L 712.096 716.167 714.631 714.506 C 718.560 711.932, 720.209 706.786, 719.852 698.220 L 719.541 690.766 727.520 688.463 C 762.092 678.482, 786.584 654.494, 792.621 624.702 C 795.350 611.230, 793.846 602.204, 784.537 576.197 C 776.054 552.495, 782.559 539.934, 805.910 534.926 C 808.894 534.286, 811.393 533.141, 811.731 532.258 C 813.814 526.829, 796.036 526.432, 784.983 531.660 C 766.287 540.503, 760.358 558.191, 767.868 582.713 C 774.870 605.571, 773.940 618.901, 764.317 633.629 C 756.136 646.151, 738.018 658.081, 723.500 660.506 C 721.300 660.874, 718.712 661.391, 717.750 661.655 C 715.372 662.307, 715.411 661.014, 718.996 620.424 C 720.644 601.766, 721.994 586.023, 721.996 585.439 C 721.998 584.856, 724.186 583.818, 726.857 583.133 C 733.989 581.305, 735.712 579.673, 737.864 572.704 C 741.885 559.687, 747.140 518.517, 747.209 499.500 C 747.297 475.101, 743.242 471.816, 707.134 467.035 C 698.682 465.916, 691.595 465, 691.384 465 C 691.173 465, 691 464.030, 691 462.845 C 691 460.821, 691.111 460.790, 692.829 462.345 C 693.835 463.255, 695.626 464, 696.810 464 C 700.129 464, 700.489 460.057, 698.115 449.719 C 696.025 440.619, 693.751 426.188, 692.566 414.500 L 691.957 408.500 709.229 408.456 C 723.976 408.418, 727.803 408.073, 735.417 406.090 C 765.101 398.362, 787.581 380.876, 803.524 353.114 C 829.331 308.175, 820.251 243.589, 782.579 204.133 C 770.954 191.957, 757.282 183.094, 742 177.829 C 729.336 173.465, 706.798 172.964, 693.719 176.755 C 671.173 183.291, 649.636 199.445, 631.399 223.500 C 625.397 231.417, 612.633 250.942, 609.504 256.991 L 607.885 260.123 604.692 257.984 C 598.742 253.997, 581.550 246.205, 570.500 242.486 C 552.542 236.443, 544.557 231.824, 531.272 219.794 C 524.405 213.574, 521.643 213.536, 521.197 219.656 C 521.031 221.941, 521.593 225.484, 522.447 227.528 C 523.301 229.572, 524 231.433, 524 231.664 C 524 231.895, 522.087 230.967, 519.750 229.601 C 507.615 222.510, 479.828 217.346, 473.122 220.935 C 468.806 223.245, 470.750 226.133, 479.500 230.413 L 487.500 234.325 478.492 235.586 C 463.492 237.686, 452.887 242.798, 452.623 248.057 C 452.317 254.144, 449.194 249.888, 439 229.493 C 427.028 205.540, 422.534 198.508, 412.572 188.138 C 392.918 167.677, 368.346 159.693, 344.373 165.979 M 348.405 170.485 C 335.785 173.231, 325.310 179.164, 314 189.971 C 309.311 194.453, 308.475 195.580, 311 194.020 C 344.310 173.432, 375.810 182.248, 394.070 217.268 C 399.091 226.898, 401.092 232.577, 406.004 251.136 C 410.079 266.532, 412.368 273.024, 413.699 272.964 C 414.140 272.944, 417.374 270.739, 420.888 268.065 C 424.401 265.391, 431.151 261.055, 435.888 258.428 C 440.624 255.802, 444.631 253.563, 444.792 253.452 C 445.325 253.083, 425.801 214.594, 422.243 209 C 403.111 178.916, 375.603 164.568, 348.405 170.485 M 704.500 180.027 C 669.771 185.352, 643.545 209.467, 609.477 267.405 C 600.354 282.919, 597.276 284.651, 602.635 271.256 C 605.195 264.855, 605.216 264.630, 603.385 263.251 C 599.839 260.580, 579.510 251.267, 569 247.498 C 550.614 240.904, 541.522 235.640, 531.250 225.641 C 527.813 222.295, 525 220.098, 525 220.759 C 525 222.710, 528.174 230.202, 530.765 234.365 C 534.787 240.828, 532.541 240.898, 519.326 234.719 C 504.467 227.772, 495.669 225.065, 485.500 224.313 C 476.104 223.618, 476.119 223.674, 486.771 229.005 C 495.506 233.377, 502.974 239.458, 501.421 240.932 C 500.903 241.424, 498.313 241.438, 495.500 240.963 C 483.803 238.989, 472.321 240.272, 462.500 244.651 L 458.500 246.434 467.787 247.054 C 475.504 247.569, 480.805 249.081, 478.933 250.233 C 478.695 250.380, 475.018 252.229, 470.761 254.342 C 463.990 257.704, 457.103 263.436, 458.343 264.676 C 458.577 264.910, 462.308 264.223, 466.634 263.149 C 477.186 260.529, 483.194 259.808, 484.971 260.947 C 485.780 261.467, 486.230 262.080, 485.971 262.311 C 484.994 263.183, 460.692 269, 458.029 269 C 451.202 269, 452.037 262.778, 459.776 255.966 C 466.559 249.996, 462.691 250.848, 446.380 258.916 C 395.784 283.945, 368.547 327.263, 362.386 392.500 C 360.088 416.830, 357.799 423.931, 349.773 431.625 L 343.645 437.500 346.822 437.813 C 350.819 438.207, 350.776 439.201, 346.474 445.954 C 344.563 448.953, 343 452.519, 343 453.878 L 343 456.349 345.429 454.067 C 349.294 450.436, 350.049 451.655, 350.345 462.012 C 350.812 478.291, 356.534 489.482, 372.031 504.421 C 425.718 556.175, 542.838 567.163, 623.500 528.012 C 645.924 517.128, 663.023 502.804, 668.004 490.731 C 670.865 483.796, 672.135 483.874, 673.616 491.074 C 674.266 494.233, 674.990 495.873, 675.350 495 C 678.048 488.442, 679 483.713, 679 476.874 C 679 467.809, 680.573 466.467, 684.132 472.499 C 687.892 478.872, 688.482 474.725, 685.810 460.698 C 684.418 453.390, 685.582 451.591, 689.743 454.621 C 694.166 457.841, 695.019 458.229, 694.539 456.802 C 692.825 451.712, 688.809 430.289, 687.561 419.576 C 686.079 406.867, 685.397 405.078, 682 404.993 C 679.904 404.941, 671.892 401.212, 669.792 399.311 C 666.465 396.301, 669.032 396.237, 679.579 399.067 C 739.578 415.163, 793.400 383.331, 809.762 322.074 C 812.017 313.630, 812.324 310.493, 812.359 295.500 C 812.434 264.169, 806.755 247.936, 788.330 226.818 C 765.524 200.677, 732.885 192.054, 705.500 204.934 C 681.753 216.102, 666.394 236.741, 654.487 273.484 C 652.103 280.843, 648.585 290.044, 646.669 293.932 C 644.754 297.819, 643.388 301, 643.633 301 C 643.879 301, 645.953 300.045, 648.242 298.877 C 663.155 291.268, 677 291.028, 677 298.378 C 677 300.822, 674.276 305.801, 670.232 310.750 L 666.759 315 673.657 315 C 681.890 315, 685 316.656, 685 321.039 C 685 324.033, 679.354 330.797, 674.090 334.108 C 671.717 335.601, 671.791 335.661, 679.020 338.062 C 692.027 342.382, 693.598 348.828, 682.969 354.264 C 674.659 358.514, 658 359.421, 658 355.625 C 658 354.702, 660.099 354.092, 664.770 353.658 C 673.070 352.887, 681.032 350.604, 684.106 348.116 L 686.410 346.250 682.314 344.160 C 680.061 343.011, 674.231 341.333, 669.359 340.433 C 655.188 337.813, 655.173 337.788, 665.053 333.185 C 672.323 329.798, 680 323.771, 680 321.451 C 680 318.742, 676.628 318.760, 657.750 321.566 C 655.126 321.956, 653.002 321.875, 653.004 321.386 C 653.005 320.899, 656.783 316.770, 661.399 312.210 C 669.179 304.525, 673.128 298.795, 671.658 297.325 C 669.315 294.982, 650.202 302.393, 639.042 309.971 C 630.349 315.874, 628.641 314.277, 634.372 305.604 C 640.187 296.805, 643.914 288.412, 649.625 271.258 C 660.635 238.188, 673.117 219.368, 692.672 206.357 C 722.724 186.361, 760.673 192.319, 787.550 221.253 C 794.191 228.403, 794.240 228.433, 791.202 223.500 C 781.822 208.271, 761.920 191.353, 745.747 184.863 C 733.529 179.959, 717.329 178.060, 704.500 180.027 M 331.502 188.136 C 323.677 189.967, 313.065 196.129, 305.388 203.298 C 281.744 225.379, 273.923 277.641, 288.520 316.020 C 297.434 339.459, 318.073 360.637, 339.010 367.828 C 346.101 370.264, 358.072 372.340, 359.051 371.305 C 359.470 370.862, 360.578 366.675, 361.515 362 C 365.178 343.715, 374.310 321.272, 383.979 306.794 C 386.214 303.447, 387.920 300.628, 387.771 300.528 C 387.622 300.429, 385.820 299.337, 383.766 298.102 C 373.474 291.913, 373.540 283.267, 383.894 281.518 C 388.617 280.720, 388.630 280.694, 386.104 277.146 C 383.184 273.045, 382.995 268.148, 385.654 265.489 C 387.803 263.340, 392.401 264.164, 400.188 268.095 C 403.385 269.709, 406 270.823, 406 270.572 C 406 268.273, 395.280 232.132, 392.909 226.437 C 380.520 196.677, 357.190 182.126, 331.502 188.136 M 388 270.050 C 388 272.135, 391.293 277.576, 394.725 281.160 C 399.281 285.917, 398.496 286.826, 390.273 286.316 C 379.634 285.656, 378.223 288.251, 386.112 293.966 L 390.318 297.013 399.074 287.756 C 409.095 277.162, 409.167 278.102, 397.860 272.029 C 392.153 268.964, 388 268.130, 388 270.050 M 507.808 301.007 C 503.625 304.455, 500.699 311.108, 501.175 316.091 C 501.644 321.006, 503.395 319.889, 504.119 314.213 C 504.901 308.082, 505.921 306.207, 510.950 301.664 C 516.037 297.069, 513.284 296.493, 507.808 301.007 M 428 302.423 C 428 302.656, 429.340 304.186, 430.977 305.823 C 432.615 307.461, 434.508 310.870, 435.185 313.400 C 436.592 318.663, 438 319.438, 438 314.950 C 438 311.061, 435.773 306.753, 432.385 304.088 C 429.922 302.151, 428 301.421, 428 302.423 M 515.873 307.684 C 506.072 313.766, 508.036 326.435, 520.555 337.876 C 536.937 352.849, 569.186 363.612, 574.164 355.768 C 577.991 349.739, 571.738 340.407, 561.613 337.038 C 549.029 332.850, 537.293 323.925, 530.370 313.278 C 525.498 305.785, 521.449 304.223, 515.873 307.684 M 415.352 309.250 C 414.253 310.488, 411.948 313.750, 410.230 316.500 C 406.110 323.092, 399.611 328.386, 390.436 332.625 C 382.255 336.405, 377 342.008, 377 346.950 C 377 350.883, 378.779 352, 385.043 352 C 403.027 352, 432 331.941, 432 319.490 C 432 310.359, 420.594 303.343, 415.352 309.250 M 394.820 359.520 C 372.228 366.761, 361.896 407.546, 377.067 429.597 C 380.092 433.993, 380.543 435.086, 379.250 434.882 C 373.376 433.954, 374.617 436.127, 381 437.944 C 386.546 439.523, 394.381 443.431, 398.889 446.866 C 402.145 449.348, 402.250 449.364, 401.589 447.279 C 400.985 445.377, 401.368 445.024, 404.700 444.418 C 421.831 441.303, 432.970 423.800, 432.970 400 C 432.970 370.944, 415.850 352.778, 394.820 359.520 M 526.618 360.112 C 515.827 362.645, 504.543 371.928, 499.636 382.308 C 486.188 410.755, 497.382 444.015, 523.357 452.784 C 528.204 454.421, 528.828 454.898, 527.528 455.977 C 524.409 458.566, 526.168 458.792, 531.757 456.521 C 539.935 453.197, 551.564 451.005, 561.208 450.968 C 568.717 450.939, 569.317 450.798, 567.559 449.468 C 566.491 448.661, 564.792 448, 563.783 448 C 562.478 448, 563.690 446.297, 567.982 442.097 C 600.860 409.925, 570.527 349.804, 526.618 360.112 M 663 365.804 C 663 368.007, 667.840 375.697, 671.109 378.687 C 675.570 382.768, 693.002 389.567, 692.999 387.225 C 692.998 386.826, 689.659 384.999, 685.579 383.164 C 676.788 379.212, 670.949 374.475, 667.398 368.416 C 664.677 363.774, 663 362.778, 663 365.804 M 395.500 366.890 C 370.925 378.233, 368.270 425.248, 391.500 437.722 C 397.209 440.788, 403.295 441.949, 404.388 440.182 C 404.666 439.732, 403.388 438.819, 401.548 438.154 C 391.990 434.697, 385.938 421.676, 388.973 411.095 C 394.257 392.669, 418.269 389.978, 426.924 406.842 L 428.801 410.500 429.535 405.614 C 430.531 398.975, 428.755 387.328, 425.743 380.749 C 419.641 367.422, 406.949 361.606, 395.500 366.890 M 527.500 367.389 C 509.721 371.866, 498.936 385.672, 498.226 404.865 L 497.869 414.500 500.397 410.408 C 508.332 397.562, 526.937 395.664, 537.136 406.658 C 549.525 420.015, 543.970 442.349, 527 447.408 L 522.500 448.749 527 450.014 C 531.769 451.354, 551.068 448.413, 557.031 445.438 C 561.199 443.358, 568.955 434.328, 571.818 428.220 C 576.105 419.077, 575.840 400.225, 571.296 391 C 562.515 373.172, 544.055 363.221, 527.500 367.389 M 412.536 403.960 C 408.453 408.472, 414.482 414.880, 419.635 411.504 C 422.475 409.643, 422.726 405.967, 420.171 403.655 C 417.728 401.444, 414.704 401.565, 412.536 403.960 M 340.976 406.250 C 328.224 412.701, 324.058 428.759, 330.384 447.075 C 332.301 452.627, 333 456.657, 333 462.165 C 333 497.874, 369.726 541.108, 422.834 567.916 L 428.913 570.985 430.957 566.365 C 432.080 563.825, 433 561.408, 433 560.995 C 433 559.672, 435.798 557.863, 436.382 558.809 C 436.690 559.307, 436.488 561.242, 435.932 563.108 C 432.282 575.370, 423.908 607.097, 422.501 613.994 C 420.650 623.068, 420.967 623.954, 426.068 623.985 C 429.709 624.006, 438.649 626.792, 444.361 629.684 C 450.228 632.656, 461.446 634.075, 478.500 634.005 C 485.100 633.978, 494.315 634.622, 498.977 635.436 L 507.454 636.917 512.020 633.987 C 517.697 630.344, 522.944 628.462, 530.020 627.528 C 535.646 626.786, 539.324 624.474, 552.283 613.537 C 562.477 604.933, 572.713 589.211, 575.950 577.185 C 577.403 571.790, 579.636 572.081, 579.176 577.605 C 577.891 593.054, 566.066 610.234, 546.649 624.864 C 538.133 631.281, 537.061 631.800, 531.157 632.373 C 517.107 633.737, 506 642, 506 651.089 L 506 654.278 510.257 649.707 C 514.077 645.604, 519.589 642.256, 520.698 643.365 C 520.930 643.596, 518.912 645.993, 516.215 648.690 C 513.518 651.387, 511.120 654.698, 510.886 656.047 C 509.434 664.440, 514.605 665.852, 519.799 658.482 C 522.845 654.162, 527.334 651.001, 528.611 652.278 C 528.942 652.609, 527.821 654.370, 526.118 656.190 C 522.348 660.222, 521.001 663.770, 522.105 666.755 C 523.258 669.871, 525.700 669.569, 532.046 665.526 C 536.208 662.874, 538.590 662.045, 542.101 662.026 C 547.255 661.997, 552.656 660.445, 555.178 658.269 C 556.442 657.178, 560.268 656.773, 570.678 656.628 C 590.979 656.346, 605.241 651.035, 621.070 637.862 C 631.172 629.455, 640.626 613.736, 642.486 602.255 C 643.278 597.366, 644.558 596.032, 645.527 599.084 C 646.480 602.089, 645.198 609.429, 642.437 616.763 C 638.019 628.500, 629.081 639.606, 618.280 646.777 C 615.360 648.716, 613.134 650.467, 613.334 650.667 C 613.534 650.867, 622.203 651.912, 632.599 652.988 C 642.994 654.065, 653.413 655.211, 655.750 655.534 L 660 656.123 659.997 651.311 C 659.989 635.777, 651.632 597.999, 643.228 575.500 C 638.928 563.989, 628.458 540.874, 625.497 536.355 L 624.079 534.192 615.290 537.977 C 598.654 545.141, 576.162 551.029, 551.500 554.676 C 536.541 556.887, 492.455 557.199, 478.500 555.192 C 403.944 544.467, 349.614 508.727, 345.404 467.637 C 344.732 461.081, 344.678 460.981, 342.769 462.709 C 338.308 466.746, 336.385 457.156, 340.041 449.099 C 341.833 445.149, 341.882 444.527, 340.519 443.021 C 338.599 440.899, 338.579 437.939, 340.468 435.441 C 342.063 433.332, 342.482 431.584, 341.202 432.375 C 339.924 433.165, 337.677 431.332, 338.429 430.114 C 338.806 429.504, 340.999 428.704, 343.301 428.336 C 348.356 427.528, 353.339 423.116, 352.347 420.328 C 350.539 415.248, 345.678 413.166, 339.565 414.854 C 335.537 415.967, 334.903 414.882, 338.223 412.557 C 340.821 410.736, 346.376 410.538, 350.872 412.105 C 356.298 413.997, 359.001 410.001, 355 406 C 352.308 403.308, 346.590 403.410, 340.976 406.250 M 527 407.288 C 520.870 410.373, 524.833 420.263, 531.527 418.583 C 536.706 417.283, 537.363 409.398, 532.477 407.171 C 529.407 405.773, 530.036 405.759, 527 407.288 M 441.750 430.689 C 438.144 431.632, 440.055 433.204, 444.250 432.746 C 446.587 432.490, 450.907 432.699, 453.848 433.209 C 460.327 434.334, 461.606 433.569, 456.686 431.513 C 453.279 430.090, 445.653 429.669, 441.750 430.689 M 438.209 437.021 C 432.125 437.907, 427 439.813, 427 441.189 C 427 441.717, 427.994 441.816, 429.250 441.413 C 441.096 437.613, 451.961 438.350, 464.255 443.789 C 470.631 446.609, 470.328 444.707, 463.881 441.440 C 459.375 439.156, 447.263 435.845, 444.500 436.142 C 443.950 436.201, 441.119 436.596, 438.209 437.021 M 429.848 448.096 C 424.017 448.735, 417.651 451.861, 416.599 454.602 C 414.148 460.990, 418.998 470.075, 428.250 476.425 C 432.495 479.338, 434 480.985, 434 482.718 C 434 484.008, 434.681 486.694, 435.513 488.686 C 436.345 490.677, 436.908 492.406, 436.763 492.526 C 435.269 493.771, 429.647 496, 428 496 C 423.427 496, 415 488.916, 415 485.072 C 415 484.391, 414.438 484.032, 413.750 484.276 C 412.110 484.857, 412.500 489.589, 414.432 492.536 C 416.974 496.415, 422.688 500.148, 426.963 500.722 C 429.415 501.051, 431 501.793, 431 502.611 C 431 505.731, 434.281 511.807, 436.516 512.825 C 437.840 513.429, 442.878 514.195, 447.712 514.528 C 458.429 515.268, 462.632 513.626, 464.401 508.011 C 465.389 504.874, 465.955 504.455, 470 503.857 C 472.475 503.491, 475.767 502.699, 477.315 502.096 C 484.109 499.451, 493.115 502.436, 497.582 508.813 C 499.392 511.398, 501 510.848, 501 507.644 C 501 504.697, 494.864 498.888, 488.283 495.603 C 482.039 492.487, 479.991 492.362, 477.767 494.959 C 476.845 496.036, 473.555 497.655, 470.457 498.556 C 457.443 502.339, 440.740 494.366, 438.510 483.307 C 437.898 480.274, 438.058 480.061, 441.683 479.084 C 450.727 476.647, 461.005 468.091, 462.558 461.708 C 464.499 453.734, 446.554 446.266, 429.848 448.096 M 429.823 452.668 C 428.351 452.916, 426.634 453.736, 426.009 454.490 C 424.087 456.805, 428.664 458.452, 437.093 458.477 C 450.370 458.517, 451.099 453.883, 438 452.710 C 434.975 452.440, 431.295 452.421, 429.823 452.668 M 692 472.455 C 692 474.447, 692.613 475.011, 695.250 475.450 C 697.038 475.747, 702.775 476.693, 708 477.552 C 731.545 481.424, 732.214 483.845, 725.954 542.500 C 723.404 566.402, 722.174 573.891, 720.315 576.837 C 718.198 580.192, 719.241 580.522, 725.220 578.386 C 732.117 575.922, 733.318 573.409, 736.430 554.919 C 741.339 525.752, 743.463 494.146, 741.103 485.381 C 739.082 477.877, 735.451 476.318, 711 472.454 C 691.677 469.401, 692 469.401, 692 472.455 M 690.610 481.417 C 689.864 484.389, 687.506 484.768, 684.829 482.345 C 683.096 480.777, 683 480.846, 683 483.664 C 683 488.019, 680.316 496.329, 677.930 499.362 C 675.522 502.423, 673.284 502.725, 671.360 500.250 C 670.097 498.624, 669.842 498.712, 667.760 501.500 C 660.477 511.253, 650.215 519.996, 637.250 527.497 C 632.712 530.122, 629 532.443, 629 532.655 C 629 532.867, 630.206 534.943, 631.681 537.270 C 634.893 542.339, 645.241 564.007, 646.909 569.157 C 648.065 572.726, 648.245 572.831, 654.297 573.503 C 657.709 573.881, 671.667 575.723, 685.315 577.595 C 714.869 581.650, 711.196 581.547, 714.904 578.427 C 719.434 574.615, 720.842 566.926, 724.500 526 C 727.858 488.443, 726.658 484.524, 710.894 481.576 C 694.644 478.536, 691.340 478.510, 690.610 481.417 M 504.861 497.579 C 509.704 503.081, 512.395 510.377, 511.447 515.433 C 510.509 520.428, 512.635 520.068, 514 515 C 515.848 508.135, 512.018 499.289, 505.270 494.840 C 500.722 491.841, 500.590 492.727, 504.861 497.579 M 437.265 497.985 C 434.348 499.759, 434.182 500.147, 435.047 503.165 C 436.739 509.065, 438.575 510.018, 448.739 510.272 C 458.163 510.507, 459.285 510.122, 460.455 506.250 C 461.058 504.254, 460.784 504, 458.035 504 C 456.331 504, 453.320 503.325, 451.346 502.500 C 446.604 500.519, 445.740 500.606, 446.497 502.991 C 446.845 504.086, 446.819 505.484, 446.440 506.098 C 445.469 507.668, 444.035 505.188, 444.015 501.905 C 443.989 497.391, 441.049 495.684, 437.265 497.985 M 439.830 520.283 C 441.978 522.890, 447.259 524.100, 455.137 523.790 C 459.186 523.631, 463.738 523.846, 465.250 524.269 C 468.569 525.197, 468.847 524.010, 465.763 522.084 C 464.315 521.180, 460.173 520.631, 454.013 520.528 C 448.781 520.441, 443.150 519.987, 441.500 519.519 C 438.811 518.756, 438.638 518.836, 439.830 520.283 M 788.730 534.420 C 783.075 536.746, 776 541.409, 776 542.810 C 776 543.200, 776.814 544.027, 777.809 544.649 C 779.334 545.601, 780.240 545.144, 783.559 541.752 C 785.727 539.537, 790.200 536.458, 793.500 534.908 C 801.155 531.315, 797.253 530.915, 788.730 534.420 M 771.740 549.750 C 770.403 552.706, 769.439 557.238, 769.187 561.750 L 768.781 569 772.641 569 L 776.500 569 776.535 560.750 C 776.556 555.968, 777.111 551.527, 777.855 550.186 C 778.852 548.389, 778.873 547.551, 777.947 546.436 C 775.829 543.884, 773.935 544.896, 771.740 549.750 M 770.067 572.750 C 770.104 573.712, 771.364 578.540, 772.866 583.477 L 775.597 592.454 780.049 592.136 C 782.497 591.961, 784.652 591.670, 784.838 591.488 C 785.023 591.307, 783.561 587.076, 781.588 582.086 C 779.614 577.096, 778 572.560, 778 572.007 C 778 571.453, 776.200 571, 774 571 C 770.831 571, 770.014 571.364, 770.067 572.750 M 650.953 580.376 C 651.449 581.682, 652.423 584.720, 653.115 587.126 L 654.374 591.500 655.086 585.500 C 655.910 578.550, 655.718 578, 652.466 578 C 650.335 578, 650.156 578.281, 650.953 580.376 M 659.470 592.694 C 658.792 605.317, 658.958 607.714, 661.416 620.672 C 662.894 628.467, 664.333 638.142, 664.615 642.172 C 665.382 653.168, 665.555 653.605, 669.816 655.310 C 675.964 657.770, 680.994 658.465, 681.034 656.861 C 681.053 656.113, 682.355 639.300, 683.927 619.500 C 685.653 597.777, 686.418 583.269, 685.856 582.918 C 685.344 582.598, 680.555 581.792, 675.213 581.128 C 669.871 580.463, 664.310 579.688, 662.855 579.404 L 660.211 578.887 659.470 592.694 M 691.482 585.440 C 691.229 586.573, 689.890 602.350, 688.506 620.500 C 687.122 638.650, 685.757 654.910, 685.472 656.634 C 684.870 660.272, 685.547 660.694, 693.485 661.627 L 698.799 662.252 699.451 653.376 C 700.764 635.478, 704.013 595.356, 704.549 590.423 L 705.101 585.346 698.522 584.362 C 692.291 583.431, 691.919 583.488, 691.482 585.440 M 707.567 589.250 C 706.882 593.501, 701.990 654.531, 701.996 658.750 C 702 661.935, 702.091 662, 706.500 662 C 709.433 662, 711 661.565, 711.001 660.750 C 711.003 658.438, 715.939 596.556, 716.545 591.250 L 717.144 586 712.617 586 C 708.284 586, 708.068 586.139, 707.567 589.250 M 776.724 606.697 L 776.949 619.397 780.578 621.162 C 782.574 622.133, 784.846 623.458, 785.628 624.106 C 786.409 624.754, 787.375 624.958, 787.774 624.559 C 788.977 623.356, 788.504 602.811, 787.168 598.250 C 785.931 594.028, 785.892 594, 781.211 593.999 L 776.500 593.998 776.724 606.697 M 773.623 626.316 C 772.717 628.690, 770.443 633.062, 768.571 636.031 C 765.431 641.012, 765.301 641.523, 766.896 642.640 C 767.846 643.305, 769.919 645.718, 771.501 648.001 L 774.377 652.152 776.202 649.826 C 778.653 646.700, 787 630.151, 787 628.415 C 787 627.157, 778.293 622, 776.169 622 C 775.676 622, 774.530 623.942, 773.623 626.316 M 294.500 631.555 C 215.417 672.323, 179.032 691.001, 166.250 697.390 C 153.741 703.643, 148.558 707, 151.414 707 C 152.091 707, 255.724 720.563, 308 727.493 C 334.675 731.030, 375.850 736.429, 399.500 739.493 C 423.150 742.557, 450.600 746.165, 460.500 747.512 C 514.188 754.816, 539.709 758, 544.561 758 C 550.881 758, 548.837 759.305, 615 713.029 C 636.725 697.834, 660.936 680.994, 668.802 675.608 C 676.669 670.221, 682.932 665.293, 682.722 664.657 C 682.351 663.533, 673.024 662.324, 624.500 657.112 C 604.765 654.992, 604.435 654.988, 599.567 656.856 C 595.513 658.411, 594.998 658.865, 596.679 659.398 C 597.838 659.766, 599.118 661.419, 599.633 663.215 C 600.313 665.587, 601.322 666.586, 603.645 667.188 C 607.654 668.227, 609.224 670.194, 608.822 673.674 C 608.494 676.518, 603.444 680.091, 571 700.437 C 566.325 703.368, 551.700 712.644, 538.500 721.049 C 525.300 729.454, 511.209 738.368, 507.187 740.858 L 499.874 745.385 492.690 744.154 C 483.131 742.514, 438.748 732.999, 391.268 722.408 C 373.996 718.556, 370.485 718.049, 367.268 718.942 C 361.173 720.635, 357.641 720.187, 351.391 716.929 C 344.626 713.403, 345.914 713.586, 292 708.475 C 224.032 702.032, 226.621 702.507, 227.199 696.587 C 227.423 694.288, 228.454 692.888, 231.250 691.084 C 233.417 689.686, 235 687.863, 235 686.767 C 235 682.154, 237.300 680.671, 281.500 656.774 C 288.100 653.205, 302.950 645.170, 314.500 638.916 L 335.500 627.547 331.500 626.839 C 329.300 626.450, 323 625.844, 317.500 625.492 L 307.500 624.853 294.500 631.555 M 335 632.671 C 327.575 636.802, 312.950 644.796, 302.500 650.436 C 244.314 681.841, 243.378 682.393, 247.092 683.153 C 252.741 684.310, 268.224 684.455, 292.500 683.578 C 324.565 682.419, 338.070 684.947, 353.486 694.991 C 360.960 699.860, 359.608 699.906, 367.313 694.520 C 375.148 689.043, 376.624 687.453, 374.599 686.676 C 373.800 686.370, 372.608 686.767, 371.951 687.559 C 369.457 690.564, 365 688.545, 365 684.411 C 365 677.706, 372.657 674.960, 380.426 678.879 C 385.492 681.434, 385.997 681.511, 387.973 680.021 C 390.639 678.010, 389.585 676.776, 386.430 678.214 C 381.420 680.497, 378.993 674.234, 383.314 670.174 C 386.307 667.363, 392.149 667.311, 396.592 670.057 C 399.255 671.703, 400.333 671.892, 401.988 671.007 C 404.965 669.413, 403.540 668.038, 399.577 668.681 C 395.587 669.329, 394.516 667.210, 396.640 662.871 C 398.805 658.447, 404.299 657.666, 409.774 661.004 C 413.712 663.404, 414.080 663.429, 416.559 661.453 C 418.385 659.997, 418.300 659.944, 415.125 660.560 C 409.658 661.619, 408.080 656.830, 412.455 652.455 C 415.473 649.436, 420.229 649.233, 424.657 651.932 C 427.485 653.657, 428.005 653.701, 429.657 652.360 C 431.381 650.960, 431.325 650.901, 428.790 651.441 C 424.790 652.293, 423.047 648.754, 425.709 645.188 C 428.765 641.094, 432.247 640.457, 437.545 643.022 L 442.076 645.215 446.038 642.593 C 451.011 639.302, 450.996 639.164, 445.248 635.349 C 434.716 628.360, 425.720 627.078, 384.500 626.692 C 366.350 626.522, 350.825 626.108, 350 625.772 C 349.122 625.414, 342.902 628.275, 335 632.671 M 471.500 638.656 C 457.075 640.369, 443.088 646.427, 445.058 650.108 C 447.702 655.049, 443.332 660.384, 438.459 658.163 C 437.107 657.547, 436 656.358, 436 655.521 C 436 653.605, 435.516 653.616, 432.490 655.598 C 430.242 657.071, 430.157 657.405, 431.405 659.848 C 432.933 662.840, 432.004 666.677, 429.522 667.630 C 427.024 668.589, 423.180 667.141, 422.495 664.984 C 421.877 663.036, 421.763 663.027, 418.908 664.713 C 416.912 665.893, 416.174 666.946, 416.622 667.977 C 418.108 671.401, 418.118 674.657, 416.646 675.879 C 414.406 677.738, 409.728 676.867, 408.486 674.361 C 407.506 672.382, 407.221 672.329, 404.706 673.646 C 402.047 675.039, 402.021 675.140, 403.558 678.112 C 404.994 680.888, 404.989 681.368, 403.504 683.635 C 401.400 686.845, 396.110 686.639, 394.447 683.284 C 393.279 680.925, 393.652 680.851, 388.237 684.515 C 388.092 684.613, 388.632 686.269, 389.437 688.195 C 390.734 691.300, 390.725 691.947, 389.354 693.905 C 387.275 696.874, 381.929 696.478, 380.513 693.250 C 379.970 692.013, 379.135 691, 378.657 691 C 377.937 691, 372.070 695.156, 368.612 698.116 C 368.124 698.534, 372.718 698.612, 378.821 698.290 C 390.789 697.659, 404.008 699.020, 414.697 701.984 C 419.326 703.267, 421.241 703.436, 421.772 702.607 C 422.172 701.981, 425.645 698.777, 429.490 695.485 C 433.334 692.193, 440.088 686.326, 444.499 682.447 L 452.519 675.394 473.010 668.555 C 495.394 661.084, 504 658.026, 504 657.542 C 504 657.370, 503.328 655.940, 502.506 654.364 C 500.704 650.909, 500.692 649.609, 502.417 644.777 C 504.011 640.310, 504.349 640.488, 491.500 639.034 C 482.691 638.038, 477.527 637.940, 471.500 638.656 M 757.246 648.923 C 753.806 652.131, 747.816 656.425, 743.935 658.465 C 737.034 662.091, 736.894 662.242, 737.562 665.336 C 738.374 669.103, 741.546 675.602, 743.016 676.510 C 745.249 677.890, 761.288 666.752, 768.791 658.611 C 772.553 654.529, 772.923 653.731, 771.791 652.131 C 770.111 649.757, 764.143 642.987, 763.781 643.044 C 763.626 643.069, 760.686 645.714, 757.246 648.923 M 432 647.025 C 433.980 647.489, 436.617 649.182, 438.073 650.923 C 440.749 654.124, 442 654.761, 442 652.923 C 442 650.134, 436.137 646, 432.327 646.102 L 428.500 646.205 432 647.025 M 414.500 655 C 414.134 655.593, 415.288 656, 417.336 656 C 420.718 656, 422.788 657.472, 426.471 662.500 C 427.924 664.484, 427.937 664.483, 427.968 662.354 C 428.039 657.608, 416.711 651.423, 414.500 655 M 558.140 661.914 C 557.138 662.533, 557.653 670, 558.697 670 C 562.677 670, 564.808 662.706, 561.111 661.739 C 560.072 661.467, 558.735 661.546, 558.140 661.914 M 499.500 664.052 C 496.750 665.129, 487.075 668.524, 478 671.596 C 459.663 677.804, 458.444 678.458, 462.411 679.966 C 464.899 680.912, 483.510 675.417, 506.769 666.869 C 508.757 666.138, 508.883 665.785, 507.779 664.017 C 506.252 661.573, 505.826 661.574, 499.500 664.052 M 567 664.500 C 567 667.514, 567.548 667.573, 571.750 665.011 C 575.958 662.445, 575.847 662, 571 662 C 567.400 662, 567 662.250, 567 664.500 M 577.500 665.634 C 575.197 668.284, 572.294 669.862, 565 672.431 C 559.775 674.272, 541.325 680.755, 524 686.840 C 506.675 692.924, 487.325 699.837, 481 702.201 L 469.500 706.500 449.752 706.418 C 438.890 706.374, 430.143 706.476, 430.312 706.646 C 431.447 707.781, 466.356 718.168, 474.500 719.795 C 493.954 723.679, 489.340 724.970, 517.618 707.732 C 531.361 699.355, 553.458 685.986, 566.722 678.024 C 579.986 670.061, 590.623 663.199, 590.360 662.774 C 590.097 662.348, 587.771 662.041, 585.191 662.092 C 581.144 662.171, 580.088 662.657, 577.500 665.634 M 403.316 664.363 C 407.738 666.039, 410.699 668.476, 411.542 671.132 C 412.248 673.355, 414 673.629, 414 671.516 C 414 668.229, 408.661 663.894, 404 663.396 L 399.500 662.916 403.316 664.363 M 726.500 665.271 C 721.022 666.835, 716.238 667.295, 704.500 667.385 L 689.500 667.500 689.416 677.250 L 689.332 687 696.527 687 C 707.926 687, 713.240 686.033, 712.419 684.107 C 710.790 680.286, 709.771 674.050, 710.379 671.625 C 711.378 667.645, 712.486 668.491, 712.615 673.332 C 712.781 679.564, 714.785 685, 716.918 685 C 719.482 685, 733.037 681.429, 737.411 679.602 L 741.161 678.035 739.147 675.206 C 738.039 673.651, 736.836 671.055, 736.474 669.439 C 735.279 664.115, 734.873 662.998, 734.183 663.136 C 733.807 663.210, 730.350 664.171, 726.500 665.271 M 586.500 669.651 C 577.732 675.096, 543.542 695.999, 529.500 704.498 C 525.650 706.828, 516.097 712.656, 508.270 717.448 L 494.040 726.161 495.552 729.779 C 496.384 731.769, 497.245 733.578, 497.466 733.799 C 497.687 734.020, 507.235 728.226, 518.684 720.924 C 551.919 699.725, 563.418 692.428, 581.276 681.200 C 591.590 674.715, 597.695 670.295, 597.124 669.724 C 596.554 669.154, 578.344 679.951, 549.848 697.755 C 524.357 713.682, 502.449 727.264, 501.164 727.937 C 496.672 730.293, 497.954 728.217, 502.705 725.443 C 505.342 723.903, 519.650 715.018, 534.500 705.697 C 549.350 696.377, 569.150 684.006, 578.500 678.205 C 587.850 672.405, 595.652 667.546, 595.838 667.408 C 596.025 667.270, 596.025 666.460, 595.838 665.609 C 595.578 664.419, 593.425 665.351, 586.500 669.651 M 517.500 677.492 C 468.346 694.319, 471.807 692.880, 469.696 697.364 C 468.699 699.482, 468.022 701.314, 468.191 701.433 C 468.361 701.553, 482.225 696.776, 499 690.818 C 515.775 684.860, 534.900 678.076, 541.500 675.743 C 552.620 671.811, 553.523 671.298, 553.816 668.750 C 554.264 664.864, 554.679 664.764, 517.500 677.492 M 493.460 673.903 C 464.538 683.906, 467 682.783, 467 685.975 C 467 692.023, 468.041 691.894, 495.962 682.398 L 521.938 673.563 519.969 671.467 C 518.886 670.314, 518 668.838, 518 668.186 C 518 665.940, 513.362 667.020, 493.460 673.903 M 657.500 686.898 C 642.650 697.177, 613.625 717.312, 593 731.642 C 572.375 745.973, 554.487 758.231, 553.250 758.884 C 551.156 759.988, 551 760.734, 551 769.642 C 551 781.013, 549.846 780.969, 565.249 770.191 C 571.437 765.861, 590.450 752.703, 607.500 740.951 C 683.473 688.585, 683.890 688.286, 684.553 685.644 C 684.850 684.461, 684.960 680.054, 684.797 675.851 L 684.500 668.209 657.500 686.898 M 600 672.919 C 598.693 674.556, 580.404 686.295, 527 719.776 C 519.575 724.431, 509.938 730.542, 505.585 733.354 C 496.617 739.149, 498.299 739.055, 479.002 734.849 C 471.576 733.231, 456.950 730.102, 446.500 727.897 C 414.848 721.216, 376.727 712.952, 372.766 711.912 C 369.828 711.140, 368.358 711.281, 365.862 712.572 C 361.801 714.671, 356.550 713.881, 353.094 710.650 C 350.736 708.445, 348.723 708.032, 331 706.115 C 310.963 703.947, 255.837 698.386, 243.670 697.304 C 239.676 696.949, 236.220 696.077, 235.348 695.205 C 234.027 693.884, 233.675 693.897, 232.255 695.316 C 229.610 697.961, 232.610 698.437, 280.500 702.967 C 351.465 709.680, 347.115 709.115, 351.586 712.204 C 356.544 715.629, 362.460 716.634, 366.930 714.810 C 370.081 713.525, 373.401 714.107, 417.900 723.755 C 483.235 737.921, 493.400 740, 497.333 740 C 499.753 740, 503.031 738.504, 508.622 734.846 C 512.955 732.012, 533.825 718.695, 555 705.253 C 576.175 691.811, 596.083 679.168, 599.241 677.157 C 602.398 675.146, 604.836 673.050, 604.658 672.500 C 604.091 670.748, 601.551 670.976, 600 672.919 M 390.780 674.043 C 393.263 675.145, 395.783 677.213, 396.780 678.966 C 398.746 682.419, 400 682.862, 400 680.104 C 400 677.080, 393.480 671.988, 389.715 672.071 L 386.500 672.141 390.780 674.043 M 449.408 684.236 C 446.655 686.581, 442.978 689.695, 441.236 691.157 L 438.069 693.813 439.784 697.896 L 441.500 701.980 452.250 701.990 C 458.163 701.995, 463.270 702.112, 463.601 702.250 C 463.931 702.388, 464.865 700.539, 465.675 698.143 C 467.066 694.028, 467.032 693.663, 465.074 691.579 C 463.933 690.364, 463 688.169, 463 686.699 C 463 684.582, 462.221 683.671, 459.250 682.316 C 457.188 681.375, 455.256 680.463, 454.957 680.288 C 454.658 680.114, 452.162 681.890, 449.408 684.236 M 370.191 682.270 C 369.364 683.266, 369.944 683.463, 372.887 683.182 C 376.980 682.792, 382.303 686.229, 383.514 690.044 C 384.264 692.406, 386 692.643, 386 690.382 C 386 689.493, 384.253 687.018, 382.118 684.882 C 378.011 680.776, 372.443 679.556, 370.191 682.270 M 239 687.277 C 239 689.787, 244 690.163, 282.500 690.548 C 327.687 690.999, 333.441 691.841, 351.500 700.641 L 358.500 704.052 355 700.973 C 342.330 689.826, 322.159 685.502, 291 687.255 C 275.535 688.124, 251.218 687.675, 242.750 686.362 C 239.829 685.910, 239 686.112, 239 687.277 M 239 691.752 C 239 693.577, 270.705 696.319, 299.500 696.984 C 328.485 697.654, 340.470 699.164, 347.210 702.995 C 348.151 703.530, 349.688 703.673, 350.625 703.314 C 351.684 702.907, 352.084 703.055, 351.682 703.705 C 351.294 704.333, 352.111 704.750, 353.729 704.750 C 356.054 704.750, 355.746 704.407, 351.471 702.234 C 334.859 693.791, 321.953 691.825, 285.641 692.205 C 270.163 692.367, 253.338 692.129, 248.250 691.675 C 242.808 691.190, 239 691.221, 239 691.752 M 679.789 696.750 L 673.098 701.500 673.049 707.309 C 673.022 710.504, 673.337 712.916, 673.750 712.670 C 674.163 712.423, 682.144 707.672, 691.488 702.111 L 708.475 692 697.478 692 L 686.481 692 679.789 696.750 M 696 702.675 C 686.375 708.506, 677.265 714.002, 675.756 714.888 C 673.098 716.450, 673.012 716.771, 673.006 725.250 C 672.999 734.921, 673.060 734.999, 678.018 731.642 C 679.933 730.345, 688.700 724.890, 697.500 719.519 C 706.300 714.147, 713.831 709.246, 714.235 708.626 C 715.204 707.141, 715.218 691.989, 714.250 692.037 C 713.837 692.057, 705.625 696.844, 696 702.675 M 298.263 698.596 C 298.909 699.242, 338.097 703.131, 340.430 702.781 C 343.828 702.271, 319.316 699.117, 308.174 698.631 C 302.494 698.383, 298.034 698.367, 298.263 698.596 M 374.819 702.023 C 362.431 703.504, 359.562 705.816, 370.909 705.175 C 380.713 704.621, 401.650 707.515, 416.134 711.427 C 437.775 717.271, 448.252 720.416, 447.223 720.759 C 446.024 721.159, 438.917 719.472, 421.500 714.652 C 404.804 710.032, 393.527 708.120, 379.093 707.463 L 367.500 706.935 386.024 710.868 C 396.213 713.031, 406.338 715.278, 408.524 715.860 C 410.711 716.442, 426.450 719.835, 443.500 723.401 C 460.550 726.966, 478.455 730.809, 483.289 731.942 C 493.690 734.378, 494.093 734.405, 493.413 732.633 C 493.118 731.866, 490.781 731.016, 488.094 730.698 C 482.198 729.999, 464.717 725.949, 465.259 725.407 C 465.476 725.191, 471.442 726.125, 478.516 727.484 C 485.591 728.843, 491.529 729.804, 491.713 729.620 C 493.107 728.226, 490.157 726.001, 486.161 725.435 C 473.551 723.645, 457.292 719.496, 439.340 713.484 C 408.043 703.004, 391.378 700.044, 374.819 702.023 M 662.763 708.761 L 657.027 712.500 657.013 782.832 L 657 853.163 660.750 850.931 C 668.389 846.383, 667.689 853.294, 668.408 775.250 C 668.764 736.612, 668.930 705.005, 668.778 705.011 C 668.625 705.018, 665.919 706.705, 662.763 708.761 M 148.385 717.102 C 148.769 721.721, 149.637 726.057, 150.314 726.737 C 151.612 728.041, 167.725 730.410, 237 739.479 C 260.375 742.540, 289.400 746.374, 301.500 748 C 347.044 754.119, 400.959 761.309, 444 767.004 C 468.475 770.243, 500.260 774.491, 514.634 776.446 C 544.464 780.503, 549.519 780.796, 548.607 778.418 C 548.273 777.548, 548 773.273, 548 768.918 L 548 761 544.250 761.002 C 542.188 761.003, 518.675 758.092, 492 754.534 C 465.325 750.975, 431.125 746.458, 416 744.495 C 400.875 742.533, 371.400 738.679, 350.500 735.931 C 329.600 733.183, 298.775 729.138, 282 726.942 C 265.225 724.746, 242.950 721.816, 232.500 720.431 C 222.050 719.045, 199.775 716.110, 183 713.908 C 166.225 711.706, 151.417 709.635, 150.094 709.305 L 147.688 708.705 148.385 717.102 M 641.500 723.321 C 634.900 727.875, 622.750 736.280, 614.500 741.999 C 552.712 784.830, 552.452 785, 548.500 785 L 545 785 545 851 C 545 887.300, 545.377 917, 545.837 917 C 546.298 917, 549.218 915.178, 552.328 912.952 L 557.981 908.904 558.241 860.204 L 558.500 811.504 576.500 799.102 C 605.096 779.399, 625.439 765.532, 640.224 755.662 L 653.949 746.500 653.974 730.750 C 653.988 722.087, 653.888 715.009, 653.750 715.020 C 653.612 715.031, 648.100 718.766, 641.500 723.321 M 701.750 722.695 C 699.396 724.312, 698.005 726.058, 698.013 727.385 C 698.052 733.885, 702.032 804.366, 702.379 804.713 C 702.608 804.941, 704.623 803.861, 706.859 802.314 L 710.924 799.500 710.955 790 C 710.981 782.160, 710.640 779.976, 709 777.500 C 706.771 774.135, 706.041 754.660, 708.006 750.989 C 709.386 748.410, 708.089 719.978, 706.595 720.060 C 705.993 720.093, 703.813 721.279, 701.750 722.695 M 688.738 730.651 C 684.549 733.214, 683.010 734.746, 683.037 736.330 C 683.321 753.171, 685.995 803.379, 686.640 803.979 C 687.113 804.418, 690.142 805.219, 693.372 805.758 L 699.244 806.738 698.523 790.619 C 697.176 760.530, 695.298 727.965, 694.886 727.553 C 694.660 727.327, 691.893 728.721, 688.738 730.651 M 764 734.639 C 762.625 734.841, 758.125 735.485, 754 736.070 C 730.616 739.386, 712 747.860, 712 755.188 C 712 773.740, 787.456 783.749, 835.018 771.507 C 848.266 768.096, 859 761.137, 859 755.958 C 859 747.713, 837.174 738.189, 811.026 735.025 C 803.182 734.076, 769.709 733.801, 764 734.639 M 170.348 742.750 C 170.699 746.462, 170.989 774.160, 170.993 804.301 L 171 859.102 174.575 860.596 C 176.541 861.417, 181.041 862.359, 184.575 862.689 L 191 863.289 191 800.775 L 191 738.262 182.182 737.131 C 168.609 735.390, 169.608 734.916, 170.348 742.750 M 194 756.361 C 194 766.638, 194.390 774, 194.935 774 C 196.389 774, 264.916 783.409, 373.500 798.518 C 395.500 801.580, 426.775 805.862, 443 808.035 C 459.225 810.208, 481.725 813.282, 493 814.865 C 504.275 816.449, 513.837 817.551, 514.250 817.313 C 515.264 816.730, 515.212 782.249, 514.197 781.622 C 513.755 781.349, 489.342 777.927, 459.947 774.017 C 406.172 766.866, 372.437 762.356, 318 755.039 C 301.775 752.859, 281.075 750.137, 272 748.991 C 262.925 747.845, 243.800 745.329, 229.500 743.399 C 215.200 741.470, 201.363 739.628, 198.750 739.306 L 194 738.721 194 756.361 M 646 757.310 L 638.500 762.539 638.240 806.658 C 638.027 842.729, 638.223 850.872, 639.315 851.291 C 640.050 851.573, 643.647 852.124, 647.308 852.516 L 653.964 853.229 654.232 802.614 C 654.379 774.776, 654.275 752.018, 654 752.040 C 653.725 752.063, 650.125 754.434, 646 757.310 M 711.668 767.735 C 712.347 775.174, 714.194 777.644, 722.390 782.081 C 750.343 797.210, 817.106 797.961, 846.677 783.478 C 856.281 778.774, 859 775.468, 859 768.491 L 859 763.135 853.941 766.539 C 832.186 781.180, 768.517 784.292, 731.297 772.534 C 726.808 771.116, 720.784 768.374, 717.911 766.440 C 715.037 764.506, 712.339 762.709, 711.914 762.447 C 711.489 762.184, 711.378 764.564, 711.668 767.735 M 630.200 768.200 C 629.318 769.082, 629 777.697, 629 800.735 C 629 831.760, 629.020 832.060, 631 831 C 632.935 829.964, 633 828.906, 633 798.465 C 633 781.159, 632.640 767, 632.200 767 C 631.760 767, 630.860 767.540, 630.200 768.200 M 623.319 772.807 C 622.120 773.738, 618.632 778.015, 615.569 782.311 L 610 790.122 610 810.042 C 610 829.893, 610.008 829.964, 612.250 830.435 C 620.817 832.235, 625.343 832.991, 625.661 832.673 C 625.863 832.470, 625.910 818.536, 625.765 801.709 L 625.500 771.113 623.319 772.807 M 193.629 781.104 C 192.732 785.589, 192.846 863.001, 193.750 862.996 C 194.162 862.994, 196.975 861.503, 200 859.684 L 205.500 856.376 205.762 818.210 L 206.024 780.044 203.762 779.580 C 194.633 777.705, 194.299 777.756, 193.629 781.104 M 519 847.290 C 519 901.888, 519.230 912.946, 520.387 913.906 C 522.034 915.273, 534.129 917.958, 538.750 917.983 L 542 918 542 851.637 L 542 785.274 534.250 784.103 C 529.987 783.459, 524.813 782.683, 522.750 782.378 L 519 781.824 519 847.290 M 598 789.865 C 592.775 793.586, 582.763 800.559, 575.750 805.362 L 563 814.095 563 821.548 C 563 825.646, 563.274 829, 563.608 829 C 566.736 829, 591.008 805.284, 601.799 791.684 C 610.382 780.867, 610.535 780.940, 598 789.865 M 715 786.358 C 715 787.746, 715.450 789.160, 716 789.500 C 716.550 789.840, 717 789.191, 717 788.059 C 717 786.927, 717.034 785.674, 717.075 785.275 C 717.116 784.876, 716.666 784.389, 716.075 784.192 C 715.484 783.995, 715 784.969, 715 786.358 M 721.503 789.250 C 720.868 791.075, 712.044 830.564, 710.862 836.868 C 708.904 847.306, 715.433 853.652, 725.320 850.922 C 731.728 849.153, 732.504 846.610, 735.985 816 C 738.801 791.240, 739.330 793.732, 730.593 790.630 C 722.039 787.593, 722.077 787.599, 721.503 789.250 M 841.500 790.789 C 837.650 792.183, 834.350 793.439, 834.166 793.579 C 833.600 794.012, 839.052 836.299, 840.108 839.668 C 842.807 848.278, 857.885 848.694, 861.096 840.247 C 861.849 838.266, 861.582 835.189, 860.036 828.049 C 856.360 811.079, 850.329 788.606, 849.402 788.428 C 848.906 788.333, 845.350 789.395, 841.500 790.789 M 302.204 799.716 L 302.500 806.493 307.500 807.650 C 310.250 808.287, 313.983 808.851, 315.796 808.904 L 319.091 809 318.796 802.251 L 318.500 795.502 312.500 794.776 C 309.200 794.376, 305.467 793.800, 304.204 793.494 C 301.959 792.951, 301.914 793.092, 302.204 799.716 M 322 802.383 C 322 809.997, 321.725 809.819, 328.115 806.341 C 332.456 803.978, 333 803.310, 333 800.341 C 333 797.241, 332.765 796.999, 329.750 796.986 C 327.962 796.979, 325.488 796.701, 324.250 796.370 C 322.083 795.789, 322 796.010, 322 802.383 M 767.722 798.649 C 767.436 799.117, 766.875 805.441, 766.475 812.701 L 765.749 825.903 768.797 828.951 C 770.522 830.676, 772.901 832, 774.275 832 C 776.598 832, 776.731 831.642, 777.346 823.750 C 778.635 807.186, 778.231 799, 776.125 799 C 775.094 799, 772.898 798.730, 771.246 798.399 C 769.594 798.069, 768.008 798.181, 767.722 798.649 M 782.512 814.250 C 782.128 822.638, 781.743 836.394, 781.657 844.821 L 781.500 860.141 784.766 863.071 C 791.178 868.822, 802.767 865.890, 804.482 858.082 C 805.026 855.605, 803.299 826.580, 801.367 805.750 L 800.742 799 791.976 799 L 783.211 799 782.512 814.250 M 415 810.845 C 415 812.794, 417.930 816, 419.712 816 C 421.233 816, 422.046 810.650, 420.659 809.768 C 418.343 808.294, 415 808.931, 415 810.845 M 425.513 810.820 C 424.263 812.070, 425.151 817.827, 426.829 819.345 C 428.719 821.056, 432.747 821.523, 434.500 820.235 C 435.505 819.496, 438.198 812.865, 437.697 812.363 C 437.087 811.754, 425.986 810.348, 425.513 810.820 M 440.438 815.389 C 439.018 821.048, 444.530 822.641, 452.524 818.884 C 459.954 815.391, 459.358 814.769, 447.300 813.438 C 441.202 812.764, 441.089 812.796, 440.438 815.389 M 512.015 823.750 C 512.024 824.712, 512.467 826.175, 513 827 C 513.736 828.138, 513.973 827.716, 513.985 825.250 C 513.993 823.462, 513.550 822, 513 822 C 512.450 822, 512.007 822.788, 512.015 823.750" stroke="none" fill="#1a1a1a" fill-rule="evenodd"/>
</svg>