<svg xmlns="http://www.w3.org/2000/svg" width="1024" height="1024" viewBox="0 0 1024 1024" version="1.1">
	<path d="M 672.848 86.750 C 669.768 90.103, 645.458 122.210, 634.044 138 C 629.472 144.325, 625.413 149.856, 625.025 150.290 C 624.637 150.725, 622.171 146, 619.546 139.790 C 610.089 117.425, 609.638 118.455, 607.483 167.335 C 605.695 207.900, 605.805 209.824, 609.778 207.407 C 611.712 206.230, 629.375 183.367, 636.958 172.224 L 641.909 164.948 642.878 168.724 C 643.411 170.801, 644.363 175.200, 644.992 178.500 C 646.713 187.514, 646.986 188.148, 649 187.808 C 651.011 187.469, 673.976 160.278, 673.991 158.219 C 674.007 156.039, 671.316 155.757, 665.833 157.364 C 662.940 158.212, 660.394 158.727, 660.175 158.509 C 659.841 158.174, 670.219 118.492, 676.905 94.541 C 679.630 84.777, 677.832 81.324, 672.848 86.750 M 651.318 123.188 C 640.927 137.110, 630.958 150.637, 629.165 153.250 C 624.920 159.433, 622.809 159.433, 620.020 153.250 C 618.841 150.637, 617.069 146.700, 616.081 144.500 L 614.284 140.500 613.595 150 C 612.689 162.495, 611.255 196.399, 611.612 196.863 C 611.767 197.063, 618.554 188.186, 626.696 177.137 C 644.179 153.413, 644.365 153.310, 647.668 165.500 C 648.860 169.900, 649.892 174.850, 649.961 176.500 C 650.086 179.477, 650.134 179.449, 656.082 173 C 663.867 164.559, 664.998 162.670, 661.462 164.014 C 657.031 165.699, 654 165.266, 654 162.949 C 654 160.285, 659.617 138.120, 665.895 116.014 C 668.627 106.397, 670.715 98.381, 670.536 98.202 C 670.357 98.023, 661.709 109.267, 651.318 123.188 M 364.675 106.404 C 364.069 107.983, 368.556 126.224, 378.903 164.249 C 382.756 178.411, 386.188 191.486, 386.530 193.306 L 387.150 196.615 378.825 195.804 C 366.449 194.598, 364.699 196.466, 372.176 202.904 C 386.647 215.364, 406.661 231, 408.138 231 C 411.023 231, 411.141 229.720, 409.885 212.015 C 409.221 202.651, 408.928 194.739, 409.234 194.433 C 409.540 194.127, 414.329 196.154, 419.877 198.938 C 430.139 204.088, 432.408 204.768, 433.490 203.017 C 434.029 202.143, 427.705 159.157, 426.388 154.750 C 425.243 150.918, 422.203 152.837, 420.052 158.750 C 414.596 173.749, 414.836 173.270, 413.502 171.845 C 412.809 171.105, 402.651 156.100, 390.929 138.500 C 379.208 120.900, 369.141 106.169, 368.559 105.765 C 366.890 104.607, 365.262 104.875, 364.675 106.404 M 374.052 123.608 C 374.024 124.217, 378.293 140.417, 383.541 159.608 C 388.789 178.798, 393.176 196.075, 393.291 198 L 393.500 201.500 386.282 201.500 C 380.978 201.500, 379.387 201.790, 380.282 202.595 C 382.938 204.984, 404.955 223, 405.218 223.001 C 405.373 223.001, 405.208 218.614, 404.850 213.251 C 403.707 196.091, 403.859 187.991, 405.335 187.425 C 406.331 187.043, 421.137 193.379, 427.070 196.725 C 427.703 197.082, 423.431 168.098, 422.750 167.417 C 422.514 167.180, 421.217 169.802, 419.869 173.244 C 415.651 184.007, 415.377 183.786, 394.714 153 C 373.157 120.882, 374.117 122.247, 374.052 123.608 M 267.633 188.553 C 226.994 196.628, 195.166 229.947, 183.622 276.500 C 169.878 331.927, 186.171 383.627, 226.500 412.556 C 242.398 423.959, 264.091 431.950, 279.582 432.110 L 286.767 432.184 286.250 440.468 C 285.242 456.632, 288.884 471.435, 298.131 488.750 C 302.579 497.080, 303.345 499.945, 300.315 496.915 C 296.170 492.770, 290.376 499.864, 278.692 523.394 C 252.578 575.982, 251.929 604.387, 276.244 630.559 C 290.871 646.303, 317.762 659.039, 345.821 663.511 L 350.142 664.200 349.501 668.350 C 348.133 677.197, 344.708 687.772, 339.767 698.406 C 335.129 708.387, 334.571 710.336, 334.171 717.970 C 333.753 725.923, 333.490 726.761, 329.934 731.475 C 324.591 738.557, 318.260 752.252, 316.515 760.500 C 310.074 790.956, 322.088 828.397, 345.864 851.963 C 352.863 858.901, 353.375 859.694, 353.120 863.214 C 352.751 868.335, 356.700 872.344, 363.547 873.800 C 374.569 876.143, 393.699 877.265, 411.500 876.613 C 439.237 875.597, 449.866 872.978, 452.852 866.426 C 453.664 864.643, 454.555 863.999, 455.636 864.414 C 459.835 866.025, 487.292 866.134, 503.629 864.604 C 523.443 862.749, 544.739 862.558, 565.730 864.049 C 574.718 864.688, 584.165 864.765, 589.863 864.248 C 599.143 863.405, 599.256 863.422, 602.685 866.147 C 616.017 876.742, 688.716 877.376, 715.210 867.128 C 727.528 862.363, 723.022 848.672, 706.173 839.669 L 699.944 836.341 701.822 833.921 C 705.787 828.811, 713.056 815.074, 717.006 805.228 C 732.004 767.840, 729.307 738.299, 709.037 717.931 C 699.926 708.776, 693.288 705.625, 676.381 702.428 C 674.870 702.143, 673.110 699.656, 670.248 693.764 C 666.663 686.383, 660.508 669.129, 661.222 668.463 C 661.375 668.321, 663.750 667.534, 666.500 666.714 C 674.982 664.185, 699.072 654.488, 708.010 650.006 C 762.439 622.711, 771.059 582.601, 737.223 514.072 C 730.538 500.532, 725.281 494.244, 722.080 495.957 C 719.183 497.507, 719.416 495.979, 722.952 490.232 C 731.938 475.628, 735.432 462.641, 735.455 443.750 L 735.474 429 739.077 429 C 748.961 429, 767.846 421.948, 780.486 413.538 C 830.884 380.004, 843.780 299.653, 808.349 239.930 C 788.572 206.595, 758.857 188.435, 724.500 188.688 C 692.269 188.925, 673.590 201.566, 647.697 240.664 C 635.951 258.400, 622.532 274, 619.022 274 C 618.487 274, 613.876 271.773, 608.775 269.051 C 598.623 263.635, 583.671 257.579, 577.703 256.467 C 573.088 255.607, 573.566 254.963, 580.310 252.954 C 593.603 248.995, 580.797 242.791, 560.250 243.235 C 553.512 243.381, 548 243.419, 548 243.321 C 548 242.887, 562.865 233.987, 566.250 232.394 C 573.154 229.146, 570.363 226.894, 557.015 224.942 C 540.927 222.590, 517.629 228.007, 504.922 237.056 C 503.251 238.245, 501.646 238.979, 501.353 238.686 C 500.727 238.061, 507.890 225.565, 512.788 218.738 C 519.284 209.685, 515.868 209.032, 500.476 216.385 C 489.844 221.463, 483.086 226.741, 469.500 240.573 L 459.500 250.754 450.500 252.430 C 433.602 255.577, 415.254 262.745, 401.381 271.619 C 396.404 274.803, 395.500 275.070, 393.440 273.968 C 387.976 271.044, 379.046 260.466, 368.481 244.402 C 351.939 219.251, 343.552 209.733, 329.667 200.352 C 312.311 188.627, 289.293 184.248, 267.633 188.553 M 270.500 194.478 C 222.164 203.436, 188.150 249.683, 186.270 309 C 184.292 371.412, 223.430 419.510, 281.077 425.511 L 287.653 426.196 289.457 421.348 C 294.665 407.352, 308.262 393.355, 318.521 391.430 C 321.611 390.850, 321.901 390.425, 323.469 384.184 C 325.945 374.327, 331.625 359.576, 336.536 350.249 L 340.881 341.999 336.419 340.875 C 329.264 339.074, 324 334.704, 324 330.566 C 324 327.107, 326.822 323.826, 330.914 322.527 C 332.405 322.054, 332.118 321.399, 328.972 318.091 C 321.829 310.582, 318.530 298.484, 321.905 292.177 C 323.847 288.548, 325 289.713, 325 295.304 C 325 304.432, 329.670 311.393, 343.361 322.674 C 347.482 326.070, 346.777 327.295, 341.145 326.520 C 336.162 325.835, 329 327.814, 329 329.876 C 329 331.333, 332.988 334.194, 338.822 336.921 C 341.670 338.252, 344 339.680, 344 340.092 C 344 340.505, 341.689 347.291, 338.863 355.171 C 336.038 363.052, 332.226 374.593, 330.391 380.817 L 327.056 392.133 329.778 394.578 C 331.275 395.922, 333.850 398.103, 335.500 399.425 C 338.079 401.490, 338.504 402.506, 338.526 406.663 C 338.542 409.666, 339.252 412.548, 340.399 414.262 C 343.411 418.767, 342.252 426.043, 337.186 434.437 C 333.536 440.486, 333 442.124, 333 447.237 C 333 454.692, 334.403 457.337, 343.537 467.104 C 358.273 482.862, 362.617 498.030, 356.067 510.868 L 354.107 514.711 357.303 517.697 C 380.709 539.559, 423.510 557.662, 466.644 563.941 C 544.536 575.280, 616.400 558.273, 661.353 517.862 L 666.205 513.500 664.480 507.572 C 660.535 494.018, 664.708 481.672, 678.008 467.552 C 690.455 454.338, 692.377 447.580, 686.560 437.480 C 680.745 427.384, 680 425.502, 680 420.923 C 680 417.788, 680.651 415.442, 681.995 413.734 C 683.383 411.970, 683.817 410.331, 683.422 408.349 C 682.620 404.325, 684.473 400.207, 687.985 398.209 C 692.028 395.908, 691.904 394.593, 685.952 376.687 C 674.103 341.040, 657.491 315.071, 633.048 293.989 C 616.878 280.042, 590.872 266.156, 571.750 261.260 C 558.570 257.886, 558.004 256.609, 567.750 252.243 L 574.500 249.219 568.600 248.475 C 561.408 247.569, 549.890 248.455, 541.880 250.531 C 535.771 252.114, 534 251.890, 534 249.534 C 534 247.518, 542.842 239.976, 549.867 236 C 559.893 230.325, 560.138 230.066, 555.500 230.049 C 535.775 229.978, 517.574 235.293, 500.392 246.143 C 492.916 250.864, 492.998 250.862, 493.010 246.250 C 493.021 242.036, 496.057 234.942, 501.471 226.477 C 503.475 223.345, 504.946 220.612, 504.739 220.405 C 503.628 219.295, 487.964 231.279, 477.616 241.157 C 462.775 255.322, 462.562 255.455, 448.827 259.126 C 419.682 266.915, 397.459 279.067, 375.003 299.498 C 369.865 304.171, 365.480 307.813, 365.257 307.591 C 364.045 306.378, 369.527 299.270, 378.943 289.844 L 389.589 279.189 386.948 277.628 C 381.525 274.425, 371.238 262.057, 363.128 248.990 C 351.512 230.273, 346.244 223.395, 336.355 214.034 C 318.315 196.958, 294.798 189.975, 270.500 194.478 M 708 196.560 C 687.664 200.944, 673.419 213.512, 653.844 244.342 C 644.052 259.764, 633.025 272.819, 626.201 277.068 C 623.920 278.489, 623.948 278.533, 630.053 282.968 C 633.436 285.425, 640.648 291.796, 646.079 297.126 L 655.954 306.817 661.351 300.987 C 667.055 294.827, 674.815 280.754, 681.470 264.500 C 694.554 232.545, 708.552 216.652, 728.932 210.610 C 736.075 208.492, 750.932 208.494, 758.067 210.612 C 778.173 216.583, 798.558 234.646, 806.417 253.455 C 808.904 259.409, 807.823 258.659, 801.787 250.245 C 774.574 212.313, 736.696 203.638, 710.560 229.352 C 701.590 238.178, 696.199 247.395, 688.079 267.793 C 680.058 287.943, 672.072 301.359, 663.972 308.292 L 659.917 311.763 665.568 319.631 C 668.676 323.959, 672.182 329.184, 673.359 331.242 C 674.537 333.301, 676.067 334.988, 676.761 334.992 C 679.277 335.008, 687 330.743, 687 329.339 C 687 327.308, 680.900 325, 675.532 325 C 669.964 325, 669.499 323.091, 674.337 320.101 C 679.210 317.089, 687.620 307.846, 689.431 303.511 C 690.294 301.445, 691 297.336, 691 294.378 C 691 288.069, 692.440 287.416, 694.657 292.721 C 697.486 299.492, 694.673 308.928, 687.439 316.936 L 683.965 320.782 687.498 322.866 C 695.326 327.485, 693.871 333.366, 683.764 337.954 C 680.434 339.466, 678.182 340.995, 678.760 341.352 C 680.536 342.450, 689.952 365.810, 693.876 378.854 L 697.592 391.209 701.821 391.524 C 710.895 392.201, 723.425 403.012, 729.588 415.480 L 733.127 422.641 739.813 421.764 C 786.605 415.621, 820.976 370.050, 820.996 314.128 C 821.022 239.487, 767.449 183.746, 708 196.560 M 256.500 209.480 C 232.819 213.877, 209.790 232.255, 201.882 253.068 C 199.420 259.547, 200.731 259.340, 204.754 252.615 C 220.033 227.069, 252.030 210.353, 276 215.395 C 299.503 220.338, 311.406 232.497, 326.577 267.058 C 338.642 294.545, 346.179 306.239, 355.569 312.043 C 361.619 315.782, 364.838 311.366, 359.250 306.993 C 351.363 300.822, 343.358 287.461, 331.991 261.500 C 326.020 247.863, 323.255 242.768, 317.679 235.129 C 302.474 214.299, 280.396 205.043, 256.500 209.480 M 558.445 323.390 C 549.242 329.594, 540.444 341.236, 541.191 346.222 C 541.425 347.787, 542.760 346.352, 546.685 340.313 C 549.536 335.926, 554.650 329.762, 558.048 326.616 C 565.267 319.933, 565.420 318.688, 558.445 323.390 M 476 321.550 C 476 321.880, 479.078 325.154, 482.841 328.825 C 486.604 332.496, 491.216 338.150, 493.091 341.388 C 497.817 349.552, 500.142 348.517, 496.208 340 C 493.456 334.040, 476 318.103, 476 321.550 M 609.092 324.250 C 603.778 327.081, 596.760 332.985, 591.204 339.297 L 586.907 344.178 587.583 339.089 C 588.150 334.814, 588.002 334, 586.661 334 C 584.856 334, 578.524 342.001, 573.923 350.093 L 570.849 355.500 571.436 351.250 C 571.782 348.749, 571.621 347, 571.047 347 C 568.477 347, 562.603 353.963, 559.100 361.161 C 555.181 369.214, 554.056 369.436, 554.014 362.167 C 553.979 356.226, 548.270 364.565, 547.271 372.017 C 546.598 377.037, 545.523 376.337, 543.358 369.466 C 541.334 363.047, 540.575 362.727, 538.963 367.612 C 536.097 376.297, 540.289 388.011, 547.485 391.426 C 557.455 396.157, 564.849 392.868, 596.390 369.668 C 610.739 359.114, 630.359 349.119, 644.250 345.288 C 649.612 343.809, 654 342.232, 654 341.783 C 654 341.038, 651.834 339.935, 645 337.203 C 642.556 336.225, 642.606 336.155, 647.250 334.055 C 652.223 331.806, 653.065 330.623, 650.418 329.607 C 647.953 328.661, 637.859 328.893, 634.056 329.984 L 630.626 330.968 634.563 326.857 L 638.500 322.746 632.747 323.301 C 627.198 323.836, 619.062 327.056, 614.125 330.671 L 611.750 332.410 613.875 328.245 C 617.428 321.280, 616.353 320.381, 609.092 324.250 M 401 326.750 C 401 327.163, 402.687 328.999, 404.750 330.830 C 407.123 332.938, 407.765 333.921, 406.500 333.508 C 401.535 331.888, 391.348 331.754, 388.453 333.270 L 385.534 334.800 390.218 337.075 C 394.770 339.287, 395.628 340.996, 392.191 341.004 C 390.171 341.008, 383.551 344.884, 384.294 345.627 C 384.580 345.913, 388.118 346.828, 392.157 347.661 C 411.276 351.604, 427.844 360.146, 455 380.060 C 465.897 388.050, 476.066 393.498, 481.940 394.490 C 493.160 396.386, 503.872 382.233, 500.029 370.589 C 498.737 366.673, 497.198 365.145, 496.603 367.187 C 496.393 367.909, 495.404 370.750, 494.407 373.500 L 492.593 378.500 491.456 373.500 C 490.258 368.233, 487.682 362.539, 486.036 361.523 C 485.092 360.939, 484.445 362.743, 483.711 368 C 483.406 370.180, 483.074 369.861, 481.111 365.500 C 477.195 356.804, 468.257 346.410, 466.341 348.325 C 466.073 348.593, 466.325 350.517, 466.900 352.600 C 468.428 358.134, 467.649 357.811, 464.039 351.414 C 460.747 345.582, 452.488 336, 450.752 336 C 449.847 336, 450.261 340.384, 451.649 345.500 C 451.998 346.787, 451.028 346.122, 448.929 343.636 C 441.294 334.594, 431.933 327.453, 426.338 326.404 C 421.752 325.543, 421.487 326.073, 424.017 331.033 L 426.173 335.259 422.944 332.960 C 416.102 328.088, 401 323.814, 401 326.750 M 512.543 367 C 514.101 376.476, 512.637 383.832, 508.027 389.693 C 505.537 392.858, 505.440 394.136, 507.750 393.317 C 516.755 390.123, 520.317 371.206, 513.271 364 C 511.979 362.679, 511.892 363.036, 512.543 367 M 526.449 370.468 C 522.776 379.260, 526.885 393, 533.189 393 C 534.864 393, 534.808 392.665, 532.563 389.250 C 529.418 384.465, 527.980 377.967, 528.707 371.828 C 529.379 366.152, 528.479 365.610, 526.449 370.468 M 395 381.652 C 391.306 382.416, 390.342 383.812, 393.105 384.394 C 405.936 387.100, 422.469 391.693, 429.332 394.460 C 439.204 398.440, 458.633 408.340, 455 407.539 C 437.147 403.605, 414.894 403.114, 403.101 406.395 C 392.957 409.218, 394.611 410, 410.728 410 C 432.510 410, 444.204 411.897, 466.962 419.124 C 479.399 423.073, 481.449 422.420, 480.809 414.716 C 480.265 408.160, 476.347 399.496, 471.498 394.130 C 467 389.151, 465.050 388.726, 467.906 393.348 C 469.044 395.189, 471.568 400.192, 473.515 404.464 L 477.056 412.233 472.278 408.281 C 452.951 392.298, 428.725 382.100, 408.606 381.478 C 402.498 381.290, 396.375 381.368, 395 381.652 M 617.500 382.435 C 600.623 386.318, 581.528 395.771, 565.628 408.115 L 562.756 410.345 563.481 407.922 C 563.879 406.590, 566.157 401.788, 568.543 397.250 C 573.362 388.082, 573.078 386.957, 567.502 393.130 C 561.908 399.321, 558.561 407.291, 558.528 414.500 L 558.500 420.500 561.661 420.807 C 563.400 420.975, 569.250 419.745, 574.661 418.071 C 592.837 412.452, 602.943 410.830, 623.317 410.260 C 643.869 409.686, 645.299 408.993, 632.332 405.890 C 621.631 403.329, 603.696 403.367, 591.047 405.977 C 585.848 407.049, 581.461 407.795, 581.300 407.633 C 581.138 407.471, 587.192 404.370, 594.753 400.741 C 609.729 393.554, 622.062 389.153, 634.500 386.558 C 638.900 385.640, 643.578 384.664, 644.895 384.389 C 646.735 384.005, 647.016 383.616, 646.109 382.709 C 644.356 380.956, 624.745 380.768, 617.500 382.435 M 315.537 398.178 C 309.817 401.193, 300.922 410.619, 297.775 417 C 288.634 435.539, 290.211 458.070, 302.429 483.485 C 306.571 492.100, 308 496.193, 308 499.440 C 308 503.804, 308.006 503.811, 315.986 508.930 C 324.447 514.358, 341.456 523, 343.677 523 C 344.405 523, 345 522.398, 345 521.663 C 345 520.927, 346.858 516.624, 349.130 512.100 C 356.439 497.545, 354.012 487.997, 338.764 471.303 C 324.351 455.525, 322.889 447.666, 331.540 432.485 C 336.486 423.805, 337.598 419.986, 336.031 417.059 C 332.413 410.297, 318.895 419.594, 311.400 434 C 308.704 439.181, 308.518 439.336, 308.194 436.665 C 307.042 427.159, 321.882 410, 331.257 410 C 332.799 410, 333.067 409.353, 332.810 406.250 C 331.857 394.737, 311.267 407.254, 302.878 424.447 C 300.745 428.818, 299 432.981, 299 433.697 C 299 434.414, 298.550 435, 298 435 C 294.680 435, 299.447 419.268, 305.009 411.865 C 309.464 405.936, 317.720 399.440, 321.992 398.502 C 323.647 398.138, 325 397.427, 325 396.921 C 325 395.305, 319.634 396.018, 315.537 398.178 M 698 396.848 C 698 397.315, 699.854 398.532, 702.119 399.554 C 711.991 404.005, 719.763 413.116, 723.121 424.173 C 726.443 435.109, 725.119 436.959, 720.694 427.562 C 718.638 423.196, 715.207 417.306, 713.068 414.474 C 704.208 402.738, 687.774 397.662, 689.173 407.093 C 689.519 409.422, 689.985 409.757, 696.812 412.578 C 705.003 415.962, 712.509 425.918, 713.729 435.017 C 714.477 440.592, 712.988 439.891, 709.675 433.108 C 702.926 419.292, 689.123 410.461, 686.013 417.969 C 684.539 421.527, 685.345 424.331, 689.902 431.500 C 699.258 446.219, 697.714 455.454, 683.245 471.293 C 668.827 487.078, 665.564 498.225, 671.758 510.544 C 673.404 513.820, 675.068 517.962, 675.455 519.750 C 675.842 521.538, 676.723 523, 677.412 523 C 679.427 523, 698.858 512.911, 706.750 507.766 C 713.861 503.131, 714 502.959, 714 498.813 C 714 495.766, 715.382 491.783, 718.949 484.543 C 734.883 452.210, 733.829 424.141, 715.998 405.917 C 708.889 398.652, 698 393.165, 698 396.848 M 379 411.480 C 379 413.976, 392.316 419.915, 393.526 417.959 C 393.979 417.224, 381.270 410, 379.525 410 C 379.236 410, 379 410.666, 379 411.480 M 651.750 413.166 C 648.038 414.897, 645 416.918, 645 417.656 C 645 419.313, 644.851 419.317, 649.940 417.521 C 654.636 415.864, 660 412.351, 660 410.932 C 660 409.506, 659.041 409.766, 651.750 413.166 M 513.230 414.824 C 503.892 418.159, 504.535 419.415, 514.500 417.304 C 520.143 416.108, 523.034 416.032, 529.417 416.909 C 538.470 418.155, 539.558 417.857, 534.851 415.423 C 529.843 412.833, 519.601 412.550, 513.230 414.824 M 509.248 421.825 C 504.405 423.549, 499.474 426.808, 500.364 427.697 C 500.571 427.904, 503.161 427.106, 506.120 425.923 C 515.910 422.010, 531.368 422.296, 542.414 426.595 C 545.907 427.955, 543.104 425.097, 538.682 422.790 C 532.724 419.682, 516.742 419.158, 509.248 421.825 M 465 427.557 C 458.447 431.035, 445.891 435.299, 438.500 436.556 C 434.716 437.200, 434.626 437.295, 436.836 438.310 C 442.827 441.061, 461.767 435.655, 469.296 429.045 C 475.963 423.191, 474.307 422.617, 465 427.557 M 565 424.945 C 565 425.465, 567.571 427.731, 570.713 429.981 C 578.527 435.576, 587.462 438.173, 597.578 437.790 C 606.632 437.447, 605.958 436.846, 594.060 434.648 C 588.492 433.619, 582.423 431.543, 576.221 428.544 C 566.465 423.828, 565 423.358, 565 424.945 M 510.277 430.701 C 502.513 432.990, 497.542 437.638, 498.448 441.761 C 499.337 445.811, 505.929 451.711, 514.537 456.162 L 520.993 459.500 520.983 464.500 C 520.965 473.316, 520.827 473.474, 511.171 475.821 C 490.391 480.871, 467.906 496.862, 463.479 509.739 L 462.245 513.327 460.916 510.914 C 460.184 509.586, 459.607 505.913, 459.634 502.750 C 459.690 496.058, 459.413 495.768, 457.449 500.468 C 453.176 510.694, 458.845 523.050, 467.239 521.811 C 470.252 521.366, 470.579 519.170, 467.790 518.110 C 462.550 516.118, 462.573 514.628, 467.933 508.763 C 483.340 491.906, 511.136 480.033, 532.296 481.271 C 547.824 482.179, 557.092 486.614, 572.303 500.419 C 581.455 508.723, 582.182 509.121, 581.059 505.206 C 578.128 494.987, 567.471 484.391, 553.590 477.895 C 547.382 474.990, 531.621 472.164, 528.439 473.385 C 527.267 473.835, 527 472.565, 527 466.542 L 527 459.147 532.647 455.916 C 543.466 449.726, 549.965 441.380, 547.303 437.095 C 542.905 430.016, 523.795 426.716, 510.277 430.701 M 518.185 435.130 C 507.333 436.493, 510.647 439.500, 523 439.500 C 531.378 439.500, 535.585 438.252, 533.669 436.336 C 532.453 435.119, 523.699 434.438, 518.185 435.130 M 816.490 444.017 C 816.144 444.576, 819.915 449.403, 824.871 454.743 C 829.826 460.084, 833.795 464.526, 833.690 464.616 C 833.586 464.705, 824.538 464.173, 813.584 463.433 C 802.630 462.692, 793.268 462.334, 792.779 462.637 C 790.838 463.836, 793.087 466.131, 807.750 477.918 C 816.138 484.660, 823 490.271, 823 490.387 C 823 490.503, 818.467 490.100, 812.927 489.492 C 799.361 488.003, 799.267 488.088, 802.431 498.969 C 803.786 503.627, 804.719 507.615, 804.504 507.830 C 804.289 508.045, 798.209 506.146, 790.994 503.610 C 767.759 495.445, 768.542 497.418, 798.552 522.677 C 822.717 543.016, 824.563 544.302, 825.622 541.542 C 826.187 540.070, 824.550 523.449, 823.335 518.320 C 822.875 516.379, 826.195 517.486, 853.659 528.434 C 915.087 552.920, 916.044 553.239, 915.969 549.191 C 915.936 547.424, 901.282 529.596, 875.629 500.113 C 855.420 476.887, 855.578 477.089, 857.175 476.534 C 857.904 476.281, 868.400 473.334, 880.500 469.986 C 909.736 461.896, 911.216 460.327, 892.864 456.884 C 887.164 455.814, 868.716 452.252, 851.870 448.969 C 819.636 442.687, 817.496 442.388, 816.490 444.017 M 834.488 457.455 C 841.820 465.531, 843.359 468.541, 840.680 469.569 C 839.953 469.848, 831.178 469.493, 821.180 468.781 C 811.181 468.068, 803 467.545, 803 467.619 C 803 467.693, 809.478 472.994, 817.396 479.399 C 833.851 492.711, 834.200 493.058, 833.020 494.967 C 832.279 496.166, 830.279 496.159, 819.077 494.916 C 811.885 494.118, 806.006 493.698, 806.012 493.982 C 806.019 494.267, 807.097 498.375, 808.407 503.111 C 811.682 514.948, 811.386 515.222, 799.547 511.322 C 794.296 509.593, 790 508.312, 790 508.477 C 790 509.361, 819.189 533.144, 819.676 532.657 C 819.994 532.339, 819.747 528.667, 819.127 524.498 C 817.452 513.232, 817.600 511, 820.023 511 C 822.129 511, 844.037 519.097, 881.326 533.659 C 893.330 538.346, 903.297 542.028, 903.474 541.841 C 903.651 541.653, 891.874 527.550, 877.304 510.500 C 850.608 479.261, 847.877 475.674, 849.577 474.081 C 850.085 473.606, 858.825 470.857, 869 467.973 C 879.175 465.088, 887.896 462.502, 888.381 462.225 C 888.865 461.947, 876.040 459.090, 859.881 455.876 C 843.721 452.661, 829.707 449.840, 828.738 449.606 C 827.769 449.372, 830.357 452.904, 834.488 457.455 M 167.251 470.806 C 133.594 482.276, 130.002 483.709, 130.001 485.671 C 130 488.169, 129.337 487.987, 149.804 491.100 C 159.371 492.556, 163.963 493.653, 163.671 494.415 C 163.431 495.041, 153.602 510.166, 141.829 528.027 C 115.493 567.982, 115.838 567.415, 116.595 569.387 C 117.816 572.569, 118.176 572.378, 152.932 550.051 C 199.284 520.275, 207.463 515.130, 207.844 515.510 C 208.045 515.712, 207.686 521.305, 207.046 527.939 C 205.826 540.598, 206.009 542, 208.890 542 C 210.729 542, 250.237 499.997, 250.824 497.417 C 251.492 494.481, 247.674 494.896, 237.986 498.812 C 232.494 501.032, 228.013 502.770, 228.028 502.674 C 228.044 502.578, 229.583 497.325, 231.450 491 C 236.442 474.082, 236.744 474.156, 212.371 486.323 C 201.592 491.704, 192.570 495.904, 192.322 495.656 C 192.074 495.408, 193.420 492.121, 195.313 488.352 C 204.589 469.882, 208.194 460.939, 206.964 459.456 C 205.399 457.571, 209.638 456.360, 167.251 470.806 M 171.723 474.755 C 156.445 479.993, 144.127 484.460, 144.348 484.682 C 144.570 484.903, 150.166 485.914, 156.785 486.927 C 169.799 488.920, 171 489.321, 171 491.666 C 171 492.518, 161.326 508.060, 149.501 526.205 C 131.715 553.499, 128.564 558.857, 131.251 557.230 C 133.038 556.149, 147.100 547.176, 162.500 537.290 C 197.416 514.875, 209.085 507.889, 211 508.254 C 212.232 508.489, 212.500 510.643, 212.500 520.328 L 212.500 532.115 216.927 527.308 C 219.362 524.663, 224.544 519.125, 228.444 515 C 239.091 503.737, 239.287 503.428, 234.454 505.488 C 220.434 511.465, 219.952 510.932, 224.952 494.986 C 226.575 489.807, 227.743 485.409, 227.546 485.212 C 227.348 485.015, 218.281 489.178, 207.396 494.462 C 196.511 499.747, 186.907 503.925, 186.053 503.746 C 183.295 503.170, 184.641 498.558, 192.436 481.875 C 196.600 472.964, 199.892 465.573, 199.753 465.452 C 199.614 465.330, 187 469.517, 171.723 474.755 M 584 486.691 C 584 487.242, 584.766 489.224, 585.701 491.096 C 588.403 496.501, 588.606 504.891, 586.152 509.703 C 583.905 514.106, 578.740 519, 576.340 519 C 574.306 519, 575.217 521.413, 577.412 521.839 C 582.633 522.851, 589.926 517.378, 592.565 510.468 C 594.628 505.068, 593.942 499.283, 590.552 493.499 C 588.055 489.237, 584 485.024, 584 486.691 M 521.500 500.061 C 517.770 501.156, 511 506.650, 511 508.581 C 511 509.623, 512.544 509.145, 516.625 506.842 C 522.472 503.543, 533.904 502.229, 538.250 504.357 C 540.899 505.654, 540.502 502.465, 537.777 500.557 C 535.334 498.845, 526.553 498.578, 521.500 500.061 M 291.330 512.454 L 285.515 523.919 289.507 528.088 C 304.495 543.738, 336.336 559, 354.001 559 C 355.903 559, 359.760 550.387, 362.489 540.043 L 363.782 535.139 359.641 534.443 C 343.128 531.669, 318.219 519.147, 302.822 505.881 L 297.145 500.989 291.330 512.454 M 720 504.664 C 709.135 515.972, 672.847 534, 660.948 534 C 657.192 534, 657.217 534.706, 661.440 548 C 663.652 554.962, 665.313 558.608, 666.369 558.820 C 672.423 560.034, 698.556 551.415, 710.396 544.299 C 721.405 537.682, 735 526.769, 735 524.549 C 735 523.340, 724.345 500.989, 723.779 501.011 C 723.625 501.017, 721.925 502.661, 720 504.664 M 351 521.918 C 351 522.423, 350.747 523.496, 350.437 524.303 C 350.033 525.356, 351.221 526.228, 354.653 527.397 L 359.431 529.025 355.512 525.013 C 351.320 520.719, 351 520.500, 351 521.918 M 664.527 525.033 C 660.001 529.552, 660.006 529.558, 666.322 527.406 C 671.096 525.779, 671.456 525.352, 670.393 522.582 C 669.535 520.346, 668.995 520.571, 664.527 525.033 M 279.141 537.296 C 266.330 566.506, 262.637 587.298, 267.558 602.500 L 269.500 608.500 270.191 598.500 C 271.565 578.619, 278.485 558.925, 290.965 539.381 C 292.191 537.460, 291.956 536.828, 288.447 532.631 C 286.318 530.084, 284.271 528, 283.897 528 C 283.523 528, 281.383 532.183, 279.141 537.296 M 732.537 532.962 L 728.669 536.924 731.702 543.712 C 738.985 560.011, 742.895 577.119, 743.880 597 L 744.500 609.500 746.720 604.384 C 751.787 592.708, 752.073 576.196, 747.512 558.642 C 744.820 548.284, 737.986 529, 737.006 529 C 736.676 529, 734.665 530.783, 732.537 532.962 M 645.140 540.037 C 641.093 542.704, 637.602 545.065, 637.383 545.284 C 637.164 545.503, 640.605 546.674, 645.030 547.887 C 649.455 549.100, 653.786 550.364, 654.653 550.697 C 655.937 551.190, 656.082 550.855, 655.433 548.901 C 654.994 547.581, 654.155 543.955, 653.568 540.844 L 652.500 535.189 645.140 540.037 M 368.263 539.338 C 368.133 541.172, 367.348 544.598, 366.517 546.952 C 365.014 551.213, 365.017 551.229, 367.254 550.604 C 368.489 550.259, 372.425 549.245, 376 548.350 C 384.289 546.277, 384.997 545.563, 380.865 543.444 C 379.014 542.495, 375.619 540.432, 373.320 538.859 C 368.197 535.355, 368.548 535.322, 368.263 539.338 M 286.609 551.245 C 273.981 576.876, 268.032 605.688, 273.304 615.684 C 276.824 622.358, 297.445 641, 301.309 641 C 301.574 641, 300.899 638.188, 299.809 634.750 C 294.661 618.512, 298.363 589.148, 309.181 560.408 L 312.603 551.316 308.552 549.002 C 306.323 547.730, 301.944 544.732, 298.819 542.339 L 293.139 537.990 286.609 551.245 M 722.500 542.090 C 720.300 543.759, 716.169 546.462, 713.320 548.096 L 708.140 551.067 710.625 556.687 C 715.249 567.143, 720.032 592.973, 719.965 607.128 C 719.921 616.422, 717.821 628.356, 715.177 634.332 L 713.141 638.936 717.320 636.315 C 729.897 628.427, 740.290 618.300, 741.375 612.877 C 744.319 598.156, 738.721 564.803, 729.773 543.750 C 727.398 538.163, 727.612 538.212, 722.500 542.090 M 620.533 553.086 C 616.701 554.744, 613.420 556.247, 613.242 556.425 C 613.063 556.603, 614.463 561.868, 616.353 568.125 C 623.259 590.990, 627.512 615.304, 631.024 652 C 634.207 685.256, 636.319 693.983, 641.194 694.015 C 642.935 694.027, 643.155 694.249, 642.090 694.923 C 640.974 695.630, 640.909 696.406, 641.778 698.658 C 642.381 700.221, 643.144 702.870, 643.472 704.545 L 644.069 707.589 652.784 705.346 C 657.578 704.113, 662.737 703.080, 664.250 703.052 C 667.717 702.986, 667.767 703.303, 662.901 694.438 C 655.924 681.725, 651.012 658.483, 652.327 644.404 C 652.911 638.143, 652.871 638, 650.521 638 C 649.200 638, 647.840 637.550, 647.500 637 C 647.141 636.420, 648.121 636, 649.834 636 C 651.705 636, 653.028 635.369, 653.447 634.278 C 653.982 632.884, 654.269 632.817, 654.955 633.927 C 657.003 637.241, 674.342 631.839, 680.130 626.085 C 687.526 618.731, 688.014 595.566, 681.434 564.255 L 680.752 561.009 673.626 561.643 C 669.707 561.992, 666.349 562.404, 666.165 562.557 C 665.800 562.862, 670.419 578.770, 672.182 583.282 C 673.477 586.596, 672.816 587.673, 670.752 585.609 C 669.438 584.295, 669.205 584.801, 668.734 589.994 C 668.053 597.502, 667.691 598, 662.901 598 C 656.399 598, 646.877 592.319, 644.929 587.278 C 644.457 586.055, 642.882 579.757, 641.430 573.281 C 638.344 559.522, 636.126 554.657, 631.710 551.965 C 627.800 549.581, 628.887 549.471, 620.533 553.086 M 377.013 554.840 L 362.525 558.500 356.830 570.046 C 349.123 585.672, 341.295 593.610, 347.579 579.428 C 351.115 571.448, 354.274 562.935, 353.848 562.539 C 353.656 562.362, 350.416 562.055, 346.648 561.858 L 339.796 561.500 337.890 567.500 C 331.945 586.215, 328.448 605.688, 329.190 615.943 C 330.052 627.874, 335.733 630.970, 358.500 631.917 L 372.500 632.500 374.500 636.500 C 378.277 644.054, 377.365 670.778, 372.711 688.923 C 370.677 696.855, 369.148 703.482, 369.315 703.648 C 369.481 703.814, 372.516 703.469, 376.059 702.879 C 382.203 701.858, 393.882 702.185, 400.665 703.570 L 403.829 704.216 404.561 698.358 C 404.964 695.136, 405.281 692.275, 405.266 692 C 405.252 691.725, 405.615 690.512, 406.074 689.304 C 407.094 686.623, 410.667 652.619, 411.519 637.500 C 412.685 616.781, 416.757 589.023, 419.806 581 C 420.328 579.625, 420.923 574.494, 421.128 569.598 L 421.500 560.695 414.555 558.348 C 410.736 557.056, 406.971 556, 406.190 556 C 403.690 556, 389.051 571.199, 383.273 579.794 C 376.890 589.289, 370.986 594.895, 363.621 598.453 C 347.639 606.175, 341.320 603.739, 340.400 589.500 L 340.012 583.500 341.608 590 C 344.520 601.865, 348.604 603.310, 361.500 597.038 C 369.879 592.964, 374.921 588.325, 381.376 578.753 C 387.416 569.797, 396.281 560.128, 401.020 557.329 C 404.925 555.022, 404.802 554.578, 399.717 552.636 C 394.182 550.522, 394.061 550.534, 377.013 554.840 M 310.088 564.357 C 301.775 589.552, 299.482 602.752, 300.264 620.924 C 300.866 634.921, 302.825 641.307, 307.375 644.100 C 312.309 647.128, 324.386 651.523, 338.500 655.426 C 368.914 663.837, 375.890 666.868, 362.194 665.719 L 355.075 665.123 355.585 667.811 C 356.671 673.524, 353.328 686.505, 347.647 698.637 C 340.650 713.580, 338.308 723.153, 343.046 717.445 C 345.024 715.061, 356.871 708.391, 362.750 706.352 C 367.330 704.763, 368 704.187, 368 701.842 C 368 700.363, 369.461 693.381, 371.246 686.327 C 375.079 671.178, 376.064 643.607, 372.990 637.500 L 371.480 634.500 357.990 633.897 C 330.801 632.683, 326.185 628.733, 327.305 607.639 C 327.917 596.113, 331.916 577.361, 335.937 567.159 C 338.627 560.336, 338.627 560.337, 334.250 559.539 C 332.188 559.164, 326.809 557.362, 322.297 555.535 L 314.094 552.214 310.088 564.357 M 637.592 555.960 C 638.955 558.019, 641.152 564.299, 642.533 570.084 C 646.298 585.851, 647.079 587.862, 650.661 591.007 C 654.327 594.226, 660.278 596.378, 664.044 595.847 C 668.364 595.237, 668.560 584.779, 664.445 574.500 C 662.684 570.100, 660.705 564.819, 660.048 562.764 C 658.551 558.081, 658.869 558.256, 645.934 554.983 L 635.138 552.252 637.592 555.960 M 703 553.519 C 701.625 554.314, 696.900 556.109, 692.500 557.508 C 688.100 558.908, 683.989 560.232, 683.364 560.452 C 682.555 560.735, 682.747 562.725, 684.028 567.343 C 687.791 580.915, 689.324 608.858, 686.845 618.701 C 684.531 627.893, 673.638 635.325, 660.453 636.708 L 655.406 637.238 657.392 649.869 C 658.485 656.816, 659.477 662.646, 659.596 662.824 C 659.716 663.002, 661.165 662.449, 662.816 661.595 C 664.466 660.742, 673.513 656.889, 682.919 653.033 C 711.816 641.188, 711.673 641.305, 715.658 626.505 C 719.824 611.033, 717.021 579.480, 709.664 559.036 C 707.090 551.882, 706.573 551.455, 703 553.519 M 605.392 559.244 L 600.285 561.148 601.788 565.324 C 607.199 580.351, 601.872 604, 593.077 604 C 591.935 604, 591 604.153, 591 604.340 C 591 604.527, 591.879 608.117, 592.953 612.317 C 595.067 620.580, 597.843 643, 600.614 674.188 L 602.364 693.877 605.432 691.770 C 607.119 690.611, 611.559 686.985, 615.298 683.713 C 619.037 680.440, 622.336 678.002, 622.628 678.295 C 623.372 679.039, 609.714 693.256, 605.493 696.130 C 601.712 698.705, 601.140 701.235, 603.081 706.803 L 604.162 709.905 609.972 705.939 C 616.543 701.454, 626.784 696.601, 632 695.502 C 637.093 694.429, 637.178 694.269, 634.967 689.934 C 632.728 685.546, 630.934 674.061, 628.495 648.500 C 625.902 621.331, 622.227 598.936, 616.934 578.053 C 614.224 567.357, 611.667 558.321, 611.253 557.973 C 610.839 557.625, 608.202 558.197, 605.392 559.244 M 426.287 571.827 C 427.155 586.587, 431.524 597.151, 438.187 600.596 C 442.052 602.595, 443.707 602.158, 458.440 595.246 C 466.475 591.476, 471.707 589.621, 474.440 589.572 L 478.500 589.500 478.500 599.326 C 478.500 611.028, 478.621 611.179, 489.891 613.480 C 503.567 616.273, 512.414 619.042, 517.370 622.080 C 528.457 628.878, 516.558 613.593, 493.482 591.393 L 473.845 572.503 461.173 570.300 C 454.203 569.088, 443.374 566.760, 437.109 565.126 L 425.718 562.155 426.287 571.827 M 587 565.133 C 581.775 566.609, 573.355 568.582, 568.288 569.519 L 559.077 571.222 552.075 580.537 C 544.106 591.140, 525.673 613.466, 524.072 614.455 C 523.198 614.996, 524.782 619.771, 526.507 621.796 C 526.645 621.959, 529.401 620.756, 532.629 619.123 C 535.858 617.491, 542.775 614.941, 548 613.457 C 553.225 611.973, 558.063 610.308, 558.750 609.757 C 560.423 608.416, 560.326 604.046, 558.463 596.858 C 557.618 593.597, 557.221 590.451, 557.582 589.868 C 558.542 588.314, 565.405 589.595, 576.948 593.482 C 591.719 598.457, 593.500 598.435, 595.677 593.250 C 597.512 588.877, 598.657 570.018, 597.362 565.475 L 596.500 562.450 587 565.133 M 535 573.691 C 522.507 574.758, 514.129 574.878, 500.500 574.184 C 490.600 573.680, 482.400 573.344, 482.279 573.438 C 482.157 573.532, 485.307 576.368, 489.279 579.740 C 498.508 587.575, 509.089 597.857, 515.789 605.500 C 519.979 610.281, 521.228 611.195, 521.938 610 C 524.029 606.479, 533.941 593.689, 542.669 583.250 C 547.842 577.063, 551.945 572.064, 551.787 572.141 C 551.629 572.219, 544.075 572.916, 535 573.691 M 420.771 584.581 C 418.672 588.052, 415.440 611.615, 413.992 634 C 412.950 650.109, 409.424 684.403, 408.378 688.610 C 407.949 690.336, 408.416 690.833, 410.945 691.339 C 416.892 692.528, 428.995 698.202, 436.964 703.535 C 444.580 708.633, 445 708.790, 445 706.539 C 445 705.232, 445.271 703.458, 445.602 702.596 C 446.021 701.504, 445.338 700.704, 443.352 699.962 C 437.197 697.662, 431.666 694.594, 426.941 690.859 C 421.103 686.244, 420.356 683.937, 425.815 687.384 C 435.360 693.408, 446 698.085, 446.012 696.261 C 446.151 676.539, 450.202 619.570, 452.040 611.500 C 453.500 605.088, 453.419 604.927, 449.532 606.551 C 438.286 611.250, 427.242 603.501, 422.495 587.581 C 421.853 585.425, 421.077 584.075, 420.771 584.581 M 463 600.039 L 454.500 604.967 453.801 610.233 C 451.869 624.785, 450.895 637.114, 449.475 665 C 448.621 681.775, 447.741 696.030, 447.520 696.677 C 447.300 697.324, 447.767 698.392, 448.559 699.049 C 450.448 700.617, 450.410 702.094, 448.500 701.362 C 447.293 700.898, 447 701.741, 447 705.681 C 447 710.231, 447.352 710.922, 452 715.500 C 457.600 721.015, 458.626 723.351, 453.898 719.818 C 445.867 713.817, 446.594 713.254, 447.393 724.860 L 448.104 735.175 452.897 741.337 C 458.218 748.178, 466.248 759.991, 471.474 768.667 C 474.439 773.589, 475.654 774.652, 480.614 776.671 C 483.761 777.951, 486.433 778.886, 486.552 778.749 C 486.672 778.612, 486.334 775.575, 485.801 772 C 484.845 765.587, 485.088 752.143, 486.957 708 C 487.481 695.625, 487.998 677.175, 488.105 667 C 488.303 648.172, 489.393 628.041, 490.482 623.082 C 491.061 620.445, 490.867 620.288, 485.531 619.094 C 475.442 616.837, 471.167 610.745, 472.387 600.366 C 472.734 597.415, 472.676 595.025, 472.259 595.055 C 471.841 595.085, 467.675 597.328, 463 600.039 M 565.025 598.565 C 565.561 599.976, 566 603.557, 566 606.522 C 566 611.444, 565.707 612.149, 562.640 614.596 L 559.279 617.277 560.713 621.889 C 564.402 633.756, 565.030 641.466, 566.519 693.208 C 567.017 710.499, 569.376 733.795, 572.112 748.432 C 572.736 751.769, 573.303 758.437, 573.373 763.250 C 573.443 768.062, 573.644 771.999, 573.821 772 C 575.486 772.001, 585.757 761.521, 591.953 753.497 C 596.202 747.995, 601.604 741.268, 603.959 738.548 C 608.229 733.614, 608.239 733.584, 607.771 727.042 C 607.162 718.536, 604.746 713.531, 601.966 715.018 C 599.907 716.120, 599.291 715.109, 600.987 713.413 C 601.637 712.763, 601.601 710.304, 600.882 706.220 L 599.789 700.014 597.144 701.879 C 593.248 704.627, 583.975 709.161, 582.979 708.807 C 582.504 708.638, 586.200 705.633, 591.191 702.128 L 600.266 695.756 599.693 689.628 C 595.591 645.808, 593.473 626.530, 591.665 616.556 L 589.500 604.611 584 602.938 C 580.975 602.018, 575.409 600.080, 571.631 598.632 C 563.313 595.445, 563.840 595.450, 565.025 598.565 M 543.500 620.928 C 531.720 623.913, 528.989 624.842, 529.018 625.857 C 529.029 626.211, 529.724 630.325, 530.564 635 C 531.799 641.875, 532.034 650.861, 531.795 682 C 531.531 716.504, 531.702 721.642, 533.442 731.500 C 534.626 738.209, 535.427 747.571, 535.495 755.500 C 535.603 768.019, 535.731 768.768, 538.953 775.750 C 542.068 782.501, 542.514 783, 545.439 783 C 553.960 783, 570.364 776.539, 571.343 772.797 C 572.326 769.036, 571.292 756.063, 568.648 739 C 565.117 716.213, 564.071 702.943, 563.880 678.500 C 563.594 641.924, 560.746 618.702, 556.500 618.320 C 555.400 618.221, 549.550 619.394, 543.500 620.928 M 491.652 627.750 C 491.301 631.462, 491.011 641.867, 491.007 650.872 C 491 666.283, 490.574 677.922, 487.932 734.814 C 486.922 756.545, 487.361 776.348, 488.907 778.850 C 489.683 780.106, 503.951 782.583, 515.605 783.485 L 523.711 784.112 524.816 781.306 C 529.879 768.446, 530.933 753.441, 528.139 734 C 524.937 711.719, 524.637 704.053, 525.943 677.805 C 527.412 648.280, 526.554 634.283, 523.047 630.550 C 520.114 627.428, 512.867 624.365, 503.999 622.500 C 492.174 620.012, 492.391 619.920, 491.652 627.750 M 508.503 645.250 C 501.515 651.276, 504.397 668.250, 512.408 668.250 C 520.720 668.250, 523.533 652.442, 516.476 645.385 C 513.506 642.415, 511.822 642.387, 508.503 645.250 M 510.035 648.458 C 507.599 651.393, 509.148 665, 511.919 665 C 512.451 665, 513.587 664, 514.443 662.777 C 518.372 657.169, 514.160 643.488, 510.035 648.458 M 407.348 693.537 C 407.031 694.361, 406.711 697.291, 406.636 700.048 L 406.500 705.062 412.484 707.514 C 420.607 710.844, 430.498 717.766, 439.015 726.083 C 442.911 729.887, 446.230 733, 446.391 733 C 446.552 733, 446.331 730.862, 445.901 728.250 C 445.471 725.638, 445.092 721.194, 445.060 718.375 L 445 713.250 437.750 708.278 C 422.981 698.150, 408.308 691.035, 407.348 693.537 M 631.500 698.602 C 622.760 702.135, 611.896 707.710, 608.546 710.382 L 605.632 712.705 607.499 716.603 C 608.610 718.924, 609.392 722.823, 609.433 726.244 C 609.470 729.404, 609.556 731.991, 609.624 731.994 C 609.693 731.997, 611.493 730.390, 613.624 728.423 C 619.994 722.545, 631.141 714.459, 636.866 711.563 C 642.221 708.854, 642.230 708.842, 641.609 704.957 C 640.934 700.733, 639.034 695.947, 638.089 696.088 C 637.765 696.137, 634.800 697.268, 631.500 698.602 M 378 709.690 C 367.122 711.506, 365.137 712.734, 363.312 718.772 C 360.928 726.657, 360.953 751.778, 363.358 765 C 367.064 785.378, 374.273 807.538, 382.765 824.660 L 387.309 833.820 397.404 833.660 C 402.957 833.572, 409.574 833.855, 412.108 834.290 L 416.716 835.080 412.335 820.290 C 409.925 812.155, 406.821 801.676, 405.437 797.001 C 397.990 771.850, 396.952 728.378, 403.430 712.898 C 404.605 710.090, 388.087 708.006, 378 709.690 M 667.648 709.685 C 667.411 709.922, 668.487 712.677, 670.039 715.808 C 674.046 723.894, 675.281 732.138, 675.310 751 C 675.347 774.949, 670.609 798.302, 660.690 823.065 L 656.458 833.631 661.979 832.331 C 665.016 831.616, 671.404 831.024, 676.176 831.016 L 684.852 831 688.808 820.750 C 702.080 786.358, 706.500 767.933, 706.500 747 C 706.500 724.678, 704.818 720.844, 692.253 714.533 C 686.120 711.453, 669.212 708.121, 667.648 709.685 M 655.507 711.597 C 648.274 713.367, 635.274 719.635, 628.710 724.516 L 623.919 728.078 625.865 730.811 C 634.006 742.243, 632.422 780.642, 622.022 824 C 618.854 837.208, 617.962 849.645, 620.250 848.695 C 620.938 848.410, 626.900 845.719, 633.500 842.716 C 640.100 839.713, 647.251 836.636, 649.390 835.878 C 654.292 834.142, 655.094 832.875, 659.989 819.154 C 669.490 792.520, 672.994 773.880, 672.988 750 C 672.984 732.358, 671.370 722.201, 667.329 714.391 C 664.994 709.878, 663.741 709.582, 655.507 711.597 M 404.955 714.084 C 399.107 725.012, 400.219 770.511, 406.922 794.510 C 407.996 798.354, 410.988 809.210, 413.572 818.632 L 418.271 835.765 422.385 836.995 C 427.535 838.535, 435.185 842.368, 440.820 846.231 C 443.196 847.860, 445.417 848.916, 445.755 848.578 C 446.922 847.411, 444.021 823.426, 439.819 799.500 C 434.768 770.741, 433.866 748.737, 437.365 739.666 L 439.230 734.832 435.865 731.340 C 429.379 724.610, 416.711 716.122, 408.484 712.994 C 406.487 712.235, 405.837 712.435, 404.955 714.084 M 509.750 714.080 C 505.650 716.468, 503.601 726.191, 505.916 732.280 C 509.561 741.867, 519.720 738.971, 520.770 728.044 C 521.687 718.498, 515.539 710.708, 509.750 714.080 M 355.027 717.750 C 347.036 722.413, 336.537 732.502, 334.337 737.634 C 331.765 743.635, 332.063 764.545, 334.913 778 C 338.433 794.618, 344.460 811.665, 352.480 827.684 C 362.475 847.651, 361.879 846.947, 366.105 843.774 C 370.475 840.491, 378.640 836.432, 382.586 835.580 L 385.671 834.913 380.847 825.295 C 371.494 806.646, 365.331 788.160, 361.339 766.777 C 359.003 754.266, 358.934 725.634, 361.224 718.750 C 363.125 713.036, 363.111 713.033, 355.027 717.750 M 510.161 719.547 C 507.101 726.263, 510.412 737.445, 514.307 733.550 C 516.522 731.335, 516.608 722.313, 514.443 719.223 C 512.436 716.357, 511.585 716.421, 510.161 719.547 M 707.727 730.500 C 709.397 739.144, 708.564 762.987, 706.222 773.547 C 704.066 783.273, 693.443 815.405, 689.075 825.415 C 686.670 830.924, 686.949 831.559, 692.192 832.523 L 695.884 833.201 701.815 821.350 C 722.367 780.287, 724.943 747.555, 709.082 728.990 L 706.955 726.500 707.727 730.500 M 612.277 738.802 C 607.450 743.643, 600.800 751.124, 597.500 755.428 C 594.200 759.731, 589.203 766.029, 586.396 769.423 L 581.292 775.595 580.728 792.048 C 579.959 814.434, 575.516 837.992, 569.496 851.606 L 567.233 856.722 575.367 857.355 C 579.840 857.703, 585.688 857.991, 588.361 857.994 L 593.223 858 592.361 854.250 C 590.683 846.941, 591.636 833.077, 594.408 824.500 C 598.654 811.358, 600.454 811.162, 597.965 824.114 C 596.408 832.216, 596.577 848.051, 598.263 852.085 C 600.794 858.140, 601.803 858.361, 609.687 854.583 L 616.722 851.211 617.271 841.356 C 617.584 835.731, 619.149 825.857, 620.915 818.354 C 629.757 780.807, 631.491 743.914, 624.923 733.114 C 623.881 731.401, 622.585 730, 622.042 730 C 621.499 730, 617.104 733.961, 612.277 738.802 M 438.868 741.176 C 436.145 751.776, 437.214 771.674, 441.949 798.500 C 445.031 815.968, 446.329 826.358, 446.716 836.674 L 447.247 850.847 450.537 854.036 C 452.347 855.790, 454.304 856.930, 454.888 856.569 C 458.784 854.161, 460.258 832.749, 457.514 818.408 C 455.301 806.845, 457.111 806.893, 460.957 818.500 C 462.051 821.800, 463.496 827.875, 464.170 832 L 465.393 839.500 466.750 835 C 470.022 824.148, 471.200 815.116, 471.184 801 C 471.163 782.615, 469.569 774.360, 464.511 766.440 C 459.549 758.670, 446.953 742.264, 443.194 738.676 L 440.235 735.851 438.868 741.176 M 328.612 747.540 C 314.309 776.751, 322.807 814.992, 350.882 847.750 C 356.149 853.896, 355.995 853.851, 358.791 850.068 L 360.959 847.137 357.119 840.815 C 339.258 811.417, 327.932 772.053, 330.843 749.500 C 331.340 745.650, 331.652 742.386, 331.537 742.247 C 331.422 742.108, 330.105 744.490, 328.612 747.540 M 471.646 782 C 474.943 796.174, 472.315 827.099, 466.693 840.277 C 465.937 842.050, 464.639 846.200, 463.810 849.500 C 462.980 852.800, 461.960 856.288, 461.544 857.250 C 460.856 858.838, 461.567 859, 469.245 859 L 477.704 859 480.933 851.995 C 485.893 841.234, 488.233 828.189, 488.378 810.500 C 488.545 790.026, 487.832 786.245, 483.459 784.418 C 479.096 782.596, 479.100 782.595, 479.673 785.250 C 480.148 787.446, 480.104 787.439, 477.830 784.949 C 476.548 783.546, 474.293 780.846, 472.817 778.949 L 470.134 775.500 471.646 782 M 575.500 779.535 C 571.300 782.982, 564.809 785.885, 556.688 787.947 L 549.746 789.710 549.912 800.105 C 550.189 817.476, 545.479 840.373, 539.465 850.893 C 538.083 853.310, 537.081 855.415, 537.238 855.571 C 537.394 855.727, 543.817 855.964, 551.511 856.098 L 565.500 856.340 567.294 852.593 C 569.810 847.339, 573.585 832.646, 576.055 818.500 C 577.872 808.089, 580.006 776.935, 578.895 777.036 C 578.678 777.056, 577.150 778.180, 575.500 779.535 M 531.459 781.250 C 530.433 786.015, 528.160 790, 526.469 790 C 525.221 790, 525.089 791.525, 525.624 799.750 C 526.662 815.719, 521.256 842.378, 514.889 852.679 L 512.837 856 523.904 856 L 534.971 856 537.975 850.049 C 543.775 838.560, 547.989 817.617, 547.996 800.250 L 548 790 543.123 790 L 538.246 790 536.123 785.065 C 534.955 782.350, 534 779.650, 534 779.065 C 534 776.621, 532.105 778.251, 531.459 781.250 M 488.652 786.681 C 488.403 786.931, 488.708 788.792, 489.331 790.817 C 489.978 792.922, 490.442 801.141, 490.414 810 C 490.355 828.743, 487.996 841.451, 482.609 852.055 C 479.706 857.769, 479.375 859, 480.738 859 C 481.650 859, 488.627 858.478, 496.244 857.840 C 509.654 856.716, 510.155 856.592, 512.065 853.909 C 518.828 844.410, 525.220 813.215, 523.566 797.772 L 522.886 791.421 510.693 790.246 C 503.987 789.600, 496.386 788.431, 493.803 787.649 C 491.219 786.867, 488.902 786.432, 488.652 786.681 M 664 838.490 C 653.690 840.803, 643.729 844.622, 625.887 853.103 C 616.749 857.446, 608.762 861, 608.137 861 C 605.544 861, 607.277 862.767, 610.950 863.867 C 617.122 865.716, 644.035 867.994, 659.750 867.997 C 673.327 868, 674 867.906, 674 866.003 C 674 863.281, 667.663 856.473, 662.090 853.207 C 655.112 849.118, 659.726 849.078, 667.847 853.158 C 674.777 856.639, 679 861.318, 679 865.514 C 679 867.646, 679.283 867.714, 686.250 867.248 C 690.237 866.982, 693.883 866.411, 694.351 865.981 C 697.179 863.379, 690.453 853.365, 682.503 848.343 C 675.104 843.668, 677.027 842.395, 685.500 846.358 C 692.212 849.498, 698.573 856.515, 699.459 861.756 L 700.142 865.800 703.821 864.807 C 705.844 864.261, 707.894 863.440, 708.375 862.982 C 709.864 861.566, 705.078 853.239, 700.416 849.135 C 695.824 845.093, 695.136 843.983, 697.250 844.025 C 700.411 844.087, 707.892 851.081, 710.500 856.410 C 712.870 861.255, 713.453 861.828, 715.107 860.943 C 717.579 859.620, 717.495 858.031, 714.739 853.940 C 706.447 841.636, 682.493 834.342, 664 838.490 M 383 841.603 C 369.260 845.279, 354.979 858.979, 358.710 864.905 C 360.698 868.063, 362.529 867.209, 363.778 862.542 C 365.093 857.622, 370.626 850.762, 375.175 848.410 C 378.994 846.434, 378.729 847.485, 374.156 852.447 C 370.100 856.847, 366.380 864.943, 367.306 867.356 C 367.637 868.218, 369.638 868.929, 372.340 869.144 L 376.824 869.500 377.439 865.658 C 378.637 858.166, 388.045 846, 392.641 846 C 394.667 846, 394.309 846.870, 391.204 849.482 C 387.550 852.556, 383.259 860.526, 382.415 865.807 L 381.744 870 390.290 870 C 394.991 870, 399.487 870.250, 400.282 870.555 C 401.367 870.971, 401.850 870.027, 402.217 866.764 C 402.835 861.283, 406.347 855.870, 411.421 852.580 C 416.510 849.280, 417.002 849.947, 413.106 854.866 C 409.613 859.277, 407 864.883, 407 867.968 C 407 869.867, 407.617 870, 416.459 870 C 433.597 870, 447.709 866.806, 449.339 862.558 C 450.880 858.542, 428.461 844.881, 414.936 841.595 C 406.748 839.605, 390.451 839.610, 383 841.603" stroke="none" fill="#1a1a1a" fill-rule="evenodd"/>
</svg>