<svg xmlns="http://www.w3.org/2000/svg" width="1024" height="1024" viewBox="0 0 1024 1024" version="1.1">
	<path d="M 482.161 103.512 C 479.225 104.875, 475.512 106.923, 473.911 108.063 L 471 110.136 471 128.363 L 471 146.591 462.570 148.644 L 454.141 150.697 453.587 148.492 C 453.106 146.574, 451.635 146.009, 442.267 144.143 C 436.345 142.963, 430.938 141.999, 430.250 141.999 C 428.820 142, 428.363 211.488, 429.787 212.368 C 430.864 213.034, 452.171 216.162, 452.613 215.720 C 452.808 215.525, 453.032 212.425, 453.110 208.832 L 453.251 202.299 459.876 201.092 C 463.519 200.428, 467.512 199.637, 468.750 199.334 L 471 198.783 471 218.330 L 471 237.877 475.250 238.415 C 477.587 238.710, 496.375 240.998, 517 243.500 C 537.625 246.001, 564.270 249.234, 576.211 250.684 L 597.922 253.321 589.417 262.258 C 579.469 272.712, 568.930 286.052, 561.180 298 C 558.148 302.675, 555.537 306.668, 555.378 306.872 C 555.219 307.077, 547.531 302.522, 538.294 296.749 C 507.636 277.590, 491.200 269.416, 475.203 265.376 C 464.059 262.561, 464.038 264.195, 475.070 275.734 C 483.270 284.312, 485.249 287.033, 483.250 286.980 C 482.837 286.970, 478.900 286.310, 474.500 285.515 C 463.202 283.474, 446.420 283.637, 435.500 285.894 C 430.550 286.917, 426.338 287.610, 426.140 287.434 C 425.942 287.257, 425.356 283.150, 424.837 278.307 C 418.074 215.136, 382.440 164.066, 331.045 143.886 C 242.010 108.926, 149.815 162.097, 127.582 261.228 C 121.535 288.192, 121.804 277.987, 120.986 511 C 120.574 628.425, 120.183 730.398, 120.118 737.607 L 120 750.713 106.037 751.653 C 93.367 752.506, 89.834 753.167, 91.111 754.444 C 91.355 754.688, 96.042 754.479, 101.527 753.980 C 127.620 751.606, 125.551 751.310, 164 762.908 C 196.282 772.645, 245.624 787.083, 282.500 797.582 C 305.726 804.195, 331.387 812.082, 332.221 812.865 C 332.927 813.528, 278.999 820.395, 154.015 835.557 C 119.648 839.726, 91.336 843.331, 91.098 843.568 C 89.828 844.838, 92.586 845.025, 99.150 844.114 C 103.193 843.553, 124.050 841.036, 145.500 838.521 C 166.950 836.005, 205.875 831.273, 232 828.005 C 281.913 821.761, 337.621 815, 339.159 815 C 339.664 815, 339.940 819.965, 339.783 826.209 L 339.500 837.417 303.500 842.653 C 283.700 845.533, 253.100 849.923, 235.500 852.408 C 157.400 863.437, 91.614 873.053, 91.160 873.506 C 89.411 875.256, 96.016 874.598, 130.683 869.569 C 152.032 866.473, 187.309 861.393, 209.076 858.281 L 248.652 852.623 288.076 861.309 C 331.491 870.874, 488.220 905.271, 532.704 914.998 C 548.217 918.389, 561.717 920.980, 562.704 920.754 C 565.207 920.183, 562.064 919.411, 519 910.014 C 498.375 905.514, 460.350 897.173, 434.500 891.478 C 408.650 885.783, 380.649 879.659, 372.275 877.870 C 363.901 876.081, 357.279 874.387, 357.559 874.107 C 357.840 873.827, 361.960 872.810, 366.716 871.847 C 378.368 869.488, 399.906 862.599, 408.500 858.483 C 417.403 854.219, 418.470 852.579, 416.986 845.432 C 415.818 839.806, 416.041 838.030, 418.702 831.768 C 419.947 828.837, 420.953 827.934, 423.394 827.558 C 430.425 826.476, 469.119 820.947, 477.131 819.880 L 485.761 818.730 493.114 822.615 C 507.838 830.395, 523 848.313, 523 857.932 C 523 863.438, 526.504 867.155, 539.977 875.940 C 557.075 887.089, 565.129 890.065, 578.557 890.196 C 586.126 890.269, 593.071 887.974, 596.109 884.395 C 603.679 875.479, 591.996 862.401, 568.500 853.490 C 564.650 852.030, 560.476 850.427, 559.225 849.927 L 556.949 849.020 558.863 845.260 C 561.960 839.178, 565.923 825.157, 567.169 815.880 L 568.325 807.261 580.413 805.608 L 592.500 803.955 616 807.984 C 628.925 810.200, 650.975 813.827, 665 816.044 C 679.025 818.260, 708.050 822.965, 729.500 826.497 C 750.950 830.030, 778.838 834.538, 791.472 836.515 C 804.107 838.491, 830.610 842.793, 850.368 846.075 C 870.126 849.357, 886.526 851.807, 886.813 851.521 C 887.938 850.395, 885.687 849.835, 870.379 847.431 C 854.379 844.918, 805.867 837.038, 711 821.544 C 682.675 816.918, 646.127 810.988, 629.782 808.368 C 613.437 805.747, 600.232 803.435, 600.437 803.229 C 600.643 803.024, 609.066 801.752, 619.155 800.402 C 701.142 789.436, 815.310 773.989, 848.500 769.371 C 858.400 767.993, 881.060 764.899, 898.855 762.495 C 916.650 760.091, 931.462 757.871, 931.771 757.562 C 933.347 755.986, 929.929 756.072, 916.406 757.946 C 908.255 759.076, 901.455 760, 901.293 760 C 901.132 760, 901 756.890, 901 753.088 L 901 746.176 904.750 745.601 C 906.813 745.284, 912.550 744.555, 917.500 743.981 C 930.936 742.421, 933.348 741.943, 932.380 741.033 C 931.896 740.578, 924.525 741.079, 916 742.146 L 900.500 744.086 876.500 740.095 C 863.300 737.900, 850.412 735.812, 847.860 735.455 L 843.220 734.806 846.549 727.601 C 848.379 723.639, 850.427 717.411, 851.100 713.761 L 852.323 707.125 858.411 706.560 C 861.760 706.249, 879.800 705.058, 898.500 703.914 C 917.200 702.769, 932.687 701.646, 932.917 701.417 C 934.424 699.910, 927.853 700.028, 892.803 702.137 L 853.500 704.503 852.737 693.502 C 852.318 687.451, 851.283 678.675, 850.439 674 C 849.594 669.325, 848.641 664.038, 848.321 662.250 C 847.785 659.259, 847.948 659, 850.369 659 C 854.250 659, 857 655.733, 857 651.122 C 857 644.071, 851.514 634.156, 841.629 623.343 C 835.109 616.211, 835.032 616, 838.943 616 C 847.222 616, 863.011 607.078, 864.379 601.627 C 864.712 600.301, 866.596 597.604, 868.567 595.633 C 870.889 593.311, 871.868 591.602, 871.350 590.775 C 870.910 590.074, 870.678 588.722, 870.834 587.771 C 870.994 586.801, 869.584 584.695, 867.620 582.971 C 863.793 579.611, 862.726 576.968, 861.031 566.645 C 859.567 557.732, 857.473 551.566, 854.019 546 C 851.928 542.631, 851.054 539.647, 850.540 534.125 C 849.221 519.943, 841.729 498.261, 837.600 496.677 C 833.803 495.220, 827.944 503.210, 821.782 518.250 C 818.640 525.918, 818.568 526, 814.962 526 C 812.958 526, 809.109 526.670, 806.409 527.489 C 799.862 529.475, 799.818 529.467, 797.367 525.680 C 790.177 514.574, 773.378 499, 768.586 499 C 760.851 499, 757.840 532.456, 763.840 551.733 C 765.089 555.747, 765.401 558.387, 764.814 559.975 C 764.338 561.260, 763.098 566.179, 762.057 570.906 C 761.017 575.633, 758.855 582.553, 757.253 586.285 L 754.340 593.071 749.772 588.188 C 744.977 583.061, 744.953 582.990, 742.056 565.644 C 741.426 561.873, 740.075 556.587, 739.053 553.897 C 737.356 549.431, 737.321 548.592, 738.647 544.253 C 743.699 527.722, 739.467 497.438, 731.385 492.284 C 729.507 491.086, 728.531 491.320, 722.673 494.374 C 716.155 497.771, 716.067 497.787, 715.423 495.656 C 714.359 492.143, 710.916 489.075, 707.268 488.390 C 704.961 487.958, 703.569 486.998, 702.972 485.427 C 700.875 479.911, 691.052 477.789, 684.206 481.373 C 680.144 483.499, 677.009 488.440, 677.004 492.722 C 677 495.753, 676.688 496.032, 671.750 497.431 C 668.862 498.249, 663.739 499.214, 660.363 499.575 L 654.227 500.233 650.098 482.866 C 647.828 473.315, 645.565 463.773, 645.069 461.663 C 644.219 458.040, 644.290 457.855, 646.334 458.350 C 691.860 469.366, 737.866 442.767, 758.043 393.763 C 776.408 349.160, 764.134 289.798, 728.836 252.508 C 712.364 235.106, 699.939 228.233, 676.250 223.419 L 674 222.962 674 180.120 L 674 137.278 661.750 135.036 C 655.013 133.803, 633.750 129.681, 614.500 125.875 C 595.250 122.069, 567.575 116.703, 553 113.951 C 522.969 108.280, 491.237 102.084, 489 101.455 C 488.175 101.223, 485.098 102.148, 482.161 103.512 M 488.735 103.734 C 488.514 104.155, 488.232 132.426, 488.108 166.557 L 487.884 228.613 503.692 230.392 C 512.386 231.370, 539.943 234.822, 564.928 238.063 L 610.356 243.955 617.221 239.563 C 624.965 234.609, 624.947 234.517, 616 233.586 C 589.398 230.817, 501.442 219.391, 500.034 218.521 C 498.328 217.467, 498.626 117.081, 500.337 116.424 C 501.072 116.142, 515.135 118.420, 531.587 121.487 C 548.039 124.553, 572.525 129.091, 586 131.571 C 625.420 138.826, 658.364 145.057, 660.250 145.616 C 661.877 146.098, 662 148.829, 662 184.567 L 662 223 667 223 L 672 223 672 181.019 L 672 139.038 669.750 138.527 C 668.513 138.246, 654.450 135.505, 638.500 132.435 C 530.517 111.653, 490.572 103.853, 489.857 103.411 C 489.462 103.167, 488.957 103.312, 488.735 103.734 M 478.765 107.324 L 473.031 110.500 473.015 172.750 C 473.007 206.988, 473.238 235, 473.529 235 C 473.819 235, 476.744 233.644, 480.029 231.986 L 486 228.971 486 166.486 C 486 132.119, 485.663 104.033, 485.250 104.074 C 484.837 104.114, 481.919 105.577, 478.765 107.324 M 501 167.373 L 501 216.962 503.250 217.442 C 506.226 218.076, 532.179 221.514, 548.500 223.436 C 555.650 224.278, 576.508 226.816, 594.850 229.075 L 628.201 233.183 634.328 230.433 C 641.157 227.368, 653.036 224.043, 657.250 224.017 L 660 224 660 185.625 L 660 147.250 656.750 146.585 C 654.962 146.220, 642.475 143.941, 629 141.521 C 615.525 139.101, 590.100 134.422, 572.500 131.122 C 554.900 127.822, 532.625 123.714, 523 121.993 C 513.375 120.273, 504.488 118.622, 503.250 118.324 L 501 117.783 501 167.373 M 257.500 136.056 C 198.655 144.008, 147.954 191.335, 131.682 253.500 C 128.837 264.370, 126.626 276.424, 124.894 290.500 C 123.962 298.079, 121.830 748.353, 122.719 749.888 C 122.842 750.102, 132.069 749.652, 143.222 748.888 L 163.500 747.500 164.182 562 C 165.267 266.951, 164.791 285.318, 172.112 256.531 C 187.139 197.443, 235.605 157.654, 292.500 157.696 C 347.780 157.737, 390.781 197.141, 403.599 259.500 C 404.713 264.919, 407.134 271.275, 411.106 279.203 L 416.969 290.907 420.234 289.805 C 422.030 289.199, 423.619 288.614, 423.763 288.505 C 424.381 288.040, 420.749 263.749, 418.828 255.500 C 401.985 183.153, 348.626 137.359, 279 135.498 C 271.025 135.285, 261.350 135.536, 257.500 136.056 M 550.364 138.688 C 549.993 140.166, 549.647 146.578, 549.595 152.938 C 549.487 166.072, 550.495 169.236, 555.818 172.483 L 559.125 174.500 558.552 183.500 C 556.611 213.971, 556.616 212.765, 558.414 215.509 C 559.765 217.570, 560.790 218.053, 563.305 217.809 C 569.493 217.208, 569.907 212.313, 566.387 181.392 C 565.818 176.399, 565.883 176.235, 569.285 174.133 C 574.171 171.113, 575.105 168.016, 575.142 154.721 C 575.177 141.719, 574.608 138.736, 572.180 139.204 C 570.193 139.587, 569.139 144.693, 569.058 154.333 C 569.015 159.334, 568.665 161.056, 567.750 160.754 C 566.898 160.472, 566.341 156.954, 566 149.716 C 565.461 138.267, 564.278 135.293, 561.405 138.166 C 560.262 139.309, 559.670 142.557, 559.265 149.907 C 558.518 163.469, 556.672 162.911, 555.998 148.920 C 555.722 143.189, 555.133 137.938, 554.689 137.250 C 553.316 135.123, 551.071 135.869, 550.364 138.688 M 551.452 145.600 C 549.863 160.444, 552.082 168.738, 558.484 171.873 L 561.287 173.247 560.646 183.373 C 560.294 188.943, 559.714 197.875, 559.357 203.222 C 558.667 213.578, 559.385 216, 563.144 216 C 566.869 216, 567.268 212.410, 565.636 193.617 C 564.055 175.422, 564.174 173, 566.652 173 C 571.935 173, 574.930 162.199, 573.458 148.455 C 572.509 139.588, 571.603 141.198, 571 152.823 C 570.572 161.094, 570.242 162.529, 568.702 162.823 C 564.901 163.547, 564 161.268, 564 150.937 C 564 135.315, 561.314 137.344, 560.744 153.396 C 560.553 158.802, 560.109 160.530, 558.691 161.396 C 555.414 163.397, 554 159.771, 554 149.368 C 554 138.446, 552.462 136.171, 551.452 145.600 M 598.355 142.971 C 587.321 147.534, 585.226 174.501, 595.541 179.201 C 598.462 180.531, 598.478 180.810, 596.832 201 C 596.182 208.975, 595.966 216.753, 596.353 218.284 C 597.365 222.297, 601.153 223.785, 604.601 221.526 L 607.284 219.768 606.628 208.134 C 606.267 201.735, 605.714 193.125, 605.400 189 L 604.828 181.500 607.893 179.808 C 622.002 172.023, 612.920 136.947, 598.355 142.971 M 431 177.500 C 431 195.925, 431.337 211.003, 431.750 211.008 C 432.551 211.016, 443.738 212.681, 448.160 213.451 C 450.740 213.900, 450.830 213.751, 451.160 208.456 C 451.529 202.539, 451.557 202.562, 445.500 203.993 C 440.445 205.188, 438.602 204.616, 437.136 201.399 C 435.002 196.715, 437.453 193.747, 444.759 192.172 L 451 190.827 451 177.413 C 451 162.830, 451.189 163.225, 445.047 164.986 C 440.506 166.289, 437 164.174, 437 160.132 C 437 156.363, 439.504 154.310, 445.903 152.833 C 450.713 151.723, 453.160 149.827, 451.686 148.352 C 451.207 147.874, 433.925 144.130, 431.750 144.033 C 431.337 144.015, 431 159.075, 431 177.500 M 597.187 146.496 C 588.517 153.792, 588.471 172.682, 597.112 177.690 L 600.233 179.500 599.401 191 C 597.525 216.933, 598.553 224.105, 603.552 219.956 C 605.338 218.475, 605.294 209.923, 603.388 187.861 L 602.728 180.223 606.287 178.534 C 611.336 176.138, 613.312 171.484, 612.828 163.126 C 612.359 155.043, 609.029 147.584, 604.947 145.473 C 601.162 143.515, 600.650 143.583, 597.187 146.496 M 453.500 152.840 C 440.297 156.292, 439.483 156.647, 439.199 159.086 C 438.645 163.851, 440.432 164.005, 456 160.525 L 470.500 157.285 470.807 153.142 C 471.187 148.036, 471.836 148.047, 453.500 152.840 M 280.500 160.108 C 264.703 161.950, 251.622 166.204, 235.153 174.856 C 229.501 177.825, 229.984 178.021, 239 176.415 C 276.314 169.769, 321.560 189.019, 342.392 220.404 L 346.107 226 351.372 226 C 366.793 226, 384.567 237.433, 396.659 255.131 C 399.295 258.988, 401.615 261.654, 401.815 261.054 C 403.099 257.202, 390.962 224.584, 383.828 212.713 C 361.577 175.692, 321.565 155.322, 280.500 160.108 M 469.500 159.515 C 468.950 159.712, 464.996 160.625, 460.713 161.545 L 452.926 163.217 453.060 176.609 C 453.134 183.974, 453.488 190, 453.847 190.001 C 454.206 190.001, 458.212 189.265, 462.750 188.364 L 471 186.726 471 172.863 C 471 165.238, 470.887 159.036, 470.750 159.079 C 470.613 159.122, 470.050 159.319, 469.500 159.515 M 240.649 178.099 C 228.206 179.916, 223.402 181.916, 215.747 188.465 C 202.210 200.047, 188.745 218.630, 181.505 235.723 C 177.600 244.942, 170.673 270.547, 169.494 280.122 L 168.802 285.743 173.151 286.332 C 175.543 286.655, 179.975 287.174, 183 287.483 C 186.025 287.793, 205.555 289.836, 226.399 292.023 C 271.531 296.759, 270.997 296.739, 271.767 293.750 C 273.276 287.887, 284.689 267.304, 290.854 259.328 C 304.797 241.287, 322.382 229.244, 338.750 226.529 C 343.819 225.688, 343.877 225.392, 339.949 220.388 C 315.196 188.850, 277.359 172.736, 240.649 178.099 M 575.954 188.620 C 575.210 190.578, 575.238 192.160, 576.051 194.123 C 577.029 196.484, 576.892 197.199, 575.096 199.127 C 569.924 204.679, 574.551 211.468, 581.521 208.556 C 584.651 207.248, 585.157 207.245, 585.651 208.533 C 585.961 209.340, 587.096 210, 588.175 210 C 590.120 210, 590.120 209.978, 588.164 207.230 C 586.434 204.801, 586.364 204.223, 587.595 202.539 C 590.059 199.169, 589.189 197.181, 586.623 200.317 L 584.318 203.134 582.633 200.562 C 581.023 198.106, 581.047 197.855, 583.165 194.990 C 586.269 190.792, 584.885 186.638, 580.231 186.187 C 577.492 185.921, 576.839 186.292, 575.954 188.620 M 578.075 189.409 C 576.616 191.167, 577.555 195, 579.445 195 C 581.341 195, 583.221 192.387, 582.821 190.310 C 582.377 188.003, 579.669 187.489, 578.075 189.409 M 464.500 189.958 C 462.850 190.372, 456.775 191.694, 451 192.897 C 440.238 195.138, 437.810 196.556, 438.726 200.062 C 439.535 203.154, 439.936 203.152, 455.546 199.991 C 463.667 198.346, 470.467 197, 470.656 197 C 470.845 197, 471 195.200, 471 193 C 471 188.673, 470.518 188.447, 464.500 189.958 M 576.040 201.452 C 574.151 203.728, 575.202 206.463, 578.094 206.801 C 581.755 207.228, 583.373 204.978, 581.415 202.182 C 579.642 199.651, 577.748 199.394, 576.040 201.452 M 652.500 228.415 C 617.597 236.471, 581.519 268.637, 554.552 315.742 C 551.957 320.276, 549.452 324.220, 548.986 324.509 C 546.892 325.803, 547.322 322.827, 550.067 317.022 C 551.707 313.554, 552.926 310.599, 552.775 310.455 C 551.662 309.398, 525.471 293.178, 517 288.300 C 499.958 278.486, 484.597 271.337, 476.500 269.452 C 473.638 268.786, 473.759 269.025, 479.119 274.627 C 488.938 284.889, 493.037 292.976, 487.750 291.655 C 461.272 285.039, 433.851 287.218, 410.680 297.778 C 401.527 301.950, 401.914 302.479, 414.787 303.408 C 424.482 304.107, 429 305.241, 429 306.975 C 429 307.550, 426.598 308, 423.529 308 C 416.272 308, 404.785 312.253, 392.302 319.560 C 365.313 335.359, 346.374 355.813, 331.799 384.900 C 325.607 397.259, 324.875 399.708, 327.750 398.445 C 334.812 395.342, 336.310 396.050, 348.297 408.143 C 377.368 437.473, 397.978 459.615, 397.989 461.527 C 398.002 463.976, 395.349 467.990, 393.693 468.027 C 393.037 468.042, 391.162 471.079, 389.527 474.777 C 379.230 498.062, 351.748 503.513, 334.022 485.786 C 320.316 472.080, 317.916 446.069, 328.752 428.656 C 330.068 426.541, 330.952 424.618, 330.716 424.383 C 328.439 422.106, 320.411 417.202, 319.889 417.769 C 318.812 418.940, 315.163 436.372, 312.970 450.820 C 309.951 470.713, 309.271 473.155, 303.945 483.235 C 294.916 500.323, 290.719 509.053, 291.269 509.602 C 291.569 509.902, 293.184 509.439, 294.857 508.574 C 299.964 505.933, 300.574 506.382, 300.535 512.750 C 300.489 520.232, 304.591 526.586, 318.491 540.567 C 342.861 565.079, 378.467 581.577, 425.130 589.980 C 436.571 592.040, 438 592.493, 438 594.059 C 438 595.936, 425.858 594.274, 403.788 589.376 L 396.076 587.665 388.333 593.582 C 377.728 601.687, 364.557 615.209, 357.020 625.730 C 336.074 654.967, 337.486 676.141, 360.746 681.615 C 378.343 685.756, 396.905 681.544, 435.105 664.745 C 446.872 659.570, 457.985 654.746, 459.801 654.025 L 463.101 652.715 460.301 649.740 C 458.760 648.104, 453.069 642.931, 447.653 638.244 L 437.805 629.723 426.653 631.508 C 412.112 633.837, 397.520 637.707, 381.820 643.401 C 374.846 645.931, 367.808 648, 366.181 648 C 361.846 648, 358.630 645.004, 358.833 641.156 C 358.994 638.106, 358.997 637.102, 358.856 632.234 C 358.763 629.026, 361.554 625.185, 365.299 623.367 C 367.060 622.513, 369.409 620.393, 370.520 618.657 C 372.992 614.793, 378.716 612.676, 385.114 613.259 L 389.728 613.680 392.855 607.340 C 395.847 601.273, 398 599.261, 398 602.533 C 398 603.377, 396.875 606.287, 395.500 609 C 392.379 615.158, 392.278 614.591, 396.922 616.960 C 399.079 618.061, 403.528 621.446, 406.808 624.483 L 412.773 630.005 424.636 627.890 C 454.078 622.641, 476.240 625.912, 490.694 637.639 L 494.887 641.042 498.811 634.271 C 500.969 630.547, 504.753 623.922, 507.220 619.549 C 511.398 612.145, 514 609.246, 514 611.997 C 514 614.372, 502.852 634.828, 496.288 644.500 L 489.500 654.500 479 654.544 C 467.388 654.592, 463.776 655.719, 439.694 666.811 L 428.887 671.789 434.301 674.886 C 449.428 683.541, 470.178 691.610, 484.877 694.555 C 512.700 700.128, 531.649 689.611, 546.236 660.500 C 560.730 631.576, 561.730 603.249, 548.805 587.733 L 546.500 584.966 539.503 586.983 C 535.655 588.092, 531.455 589, 530.170 589 C 524.623 589, 529.679 586.391, 544.832 581.434 C 581.943 569.295, 616.895 546.921, 630.360 526.686 C 631.517 524.947, 631.677 524.958, 634.191 526.936 C 635.635 528.071, 637.255 529, 637.791 529 C 638.919 529, 640.465 516.561, 639.525 515.041 C 639.180 514.483, 638.713 511.657, 638.488 508.763 C 638.263 505.868, 637.948 502.600, 637.789 501.500 C 637.522 499.652, 637.974 499.527, 643.750 499.851 C 651.161 500.267, 650.907 501.677, 646.553 484.276 C 644.657 476.699, 642.544 467.404, 641.856 463.620 L 640.606 456.740 634.055 453.800 C 630.452 452.184, 626.726 450.157, 625.776 449.297 C 622.662 446.479, 624.934 446.081, 630.269 448.509 C 660.568 462.298, 694.651 458.270, 720.644 437.829 C 753.026 412.363, 769.043 366.768, 760.455 324.500 C 756.222 303.671, 750.763 290.797, 741.035 278.704 C 716.480 248.181, 679.458 239.627, 651.624 258.046 C 630.734 271.871, 611.330 302.308, 601.609 336.500 C 599.300 344.624, 596 361.169, 596 364.627 C 596 365.387, 598.769 363.755, 602.250 360.943 C 614.254 351.245, 629.128 345.528, 632.800 349.200 C 636.331 352.731, 630.976 365.491, 620.505 378.500 L 614.066 386.500 620.283 387.214 C 638.352 389.287, 645.794 394.087, 639.747 399.768 C 634.896 404.326, 618.090 410.230, 619.167 406.998 C 619.407 406.279, 621.380 405.158, 623.552 404.508 C 628.281 403.091, 637.616 398.430, 638.461 397.063 C 640.046 394.499, 630.148 391.217, 617.685 390.172 C 613.272 389.803, 609.507 389.033, 609.318 388.462 C 609.129 387.892, 612.277 383.289, 616.313 378.234 C 626.621 365.324, 632.799 352.628, 629.408 351.326 C 625.942 349.996, 611.017 357.743, 601.025 366.059 C 597.759 368.777, 594.667 371, 594.152 371 C 589.847 371, 594.708 342.474, 602.664 321.049 C 615.109 287.536, 633.797 262.693, 654.872 251.645 C 679.039 238.976, 709.679 244.399, 732.958 265.466 L 737.416 269.500 735.395 266.231 C 726.209 251.376, 704.459 234.873, 687 229.510 C 679.510 227.210, 660.356 226.601, 652.500 228.415 M 340.777 230.083 C 329.392 231.751, 313.180 240.977, 303 251.580 L 297.500 257.309 301.500 254.965 C 303.700 253.676, 306.400 252.065, 307.500 251.385 C 314.891 246.818, 330.541 244.633, 339.014 246.987 C 357.778 252.200, 372.766 276.935, 377.674 310.787 L 379.405 322.731 385.953 318.701 C 389.554 316.484, 396.550 312.742, 401.500 310.384 L 410.500 306.097 405.441 306.049 C 402.659 306.022, 399.509 305.361, 398.441 304.581 C 396.533 303.186, 396.539 303.120, 398.753 300.763 C 399.992 299.444, 403.704 297.075, 407.003 295.499 C 413.992 292.158, 413.855 292.636, 410.008 285.015 C 393.197 251.713, 375.435 233.582, 356.114 229.999 C 350.094 228.883, 348.921 228.889, 340.777 230.083 M 481.500 233.743 L 476.500 236.392 503.500 239.690 C 571.577 248.006, 596.648 251.136, 598.500 251.551 C 601.054 252.124, 608.295 246.404, 606 245.627 C 602.665 244.499, 493.682 230.945, 488.759 231.047 C 487.517 231.072, 484.250 232.285, 481.500 233.743 M 317 250.827 C 301.718 255.931, 289.487 266.099, 282.920 279.159 C 271.803 301.269, 268.561 314.447, 268.567 337.500 C 268.572 359.651, 271.047 369.805, 280.807 387.720 C 287.207 399.470, 311.230 421.830, 314.970 419.518 C 316.904 418.324, 316.004 414.579, 313.250 412.355 C 309.908 409.657, 310.629 407.894, 316.780 403.726 C 319.889 401.620, 321.366 399.638, 322.919 395.487 C 332.397 370.156, 354.536 340.346, 373.992 326.718 C 376.046 325.279, 376.084 324.911, 374.996 316.862 C 370.749 285.419, 359.641 262.186, 344.496 253.065 C 337.267 248.712, 326.065 247.800, 317 250.827 M 167.656 295.546 C 167.294 299.828, 167.111 303.404, 167.249 303.493 C 168.168 304.087, 264.216 313.131, 265.277 312.724 C 266.009 312.443, 267.135 310.028, 267.780 307.357 C 268.425 304.686, 269.223 301.556, 269.553 300.402 C 270.107 298.468, 269.657 298.256, 263.827 297.703 C 254.394 296.807, 179.293 289.044, 173.407 288.356 L 168.314 287.761 167.656 295.546 M 166.859 411.250 C 166.782 469.138, 166.444 568.363, 166.109 631.750 L 165.500 747.001 169.238 747 C 171.294 747, 182.319 746.330, 193.738 745.511 C 205.157 744.693, 228.450 743.122, 245.500 742.021 C 262.550 740.920, 279.538 739.744, 283.250 739.408 L 290 738.797 290 626.727 C 290 528.775, 289.812 514.450, 288.508 513.009 C 287.185 511.547, 287.185 510.710, 288.508 505.631 C 289.730 500.941, 289.995 491.439, 289.975 453.201 L 289.949 406.500 284.918 400.500 C 278.681 393.063, 269.725 375.146, 266.923 364.500 C 264.463 355.157, 263.249 330.986, 264.771 321.666 C 265.450 317.505, 265.405 315.725, 264.612 315.461 C 263.231 315, 172.348 305.973, 169.250 305.989 L 167 306 166.859 411.250 M 530.500 394.681 C 513.549 403.730, 468.997 430.035, 437.019 449.876 C 420.495 460.129, 415.280 459.830, 418.166 448.793 C 419.071 445.332, 419.659 442.342, 419.472 442.150 C 417.616 440.234, 413.349 452.271, 414.400 456.458 C 414.776 457.954, 417.346 461.442, 420.113 464.208 C 425.108 469.203, 425.178 469.234, 430.072 468.585 C 433.967 468.068, 435 468.228, 435 469.350 C 435 472.562, 443.217 486.825, 447.699 491.393 C 477.704 521.972, 531.598 508.432, 540.921 467.972 C 543.575 456.454, 541.317 439.736, 535.857 430.482 L 533.809 427.011 538.154 425.173 C 540.544 424.163, 548.013 421.156, 554.750 418.493 C 564.248 414.738, 567 413.235, 567 411.802 C 567 408.505, 540.859 392.936, 535.500 393.041 C 534.400 393.062, 532.150 393.801, 530.500 394.681 M 292.003 452.738 L 292.005 496.500 295.556 490.611 C 304.045 476.533, 306.267 470.206, 308.590 453.500 C 309.432 447.450, 310.993 438.471, 312.060 433.547 C 313.127 428.623, 314 424.503, 314 424.392 C 314 424.282, 311.567 422.818, 308.593 421.139 C 305.618 419.461, 300.668 416.038, 297.593 413.532 L 292 408.977 292.003 452.738 M 329.984 433.250 C 321.592 451.266, 325.147 472.622, 338.581 484.900 C 355.524 500.385, 379.486 492.790, 388.064 469.216 C 388.975 466.710, 388.798 466.784, 385.776 470.173 C 381.031 475.494, 376.771 477.312, 370.301 476.775 C 356.533 475.633, 347.925 460.001, 353.779 446.768 L 355.777 442.250 344.986 434.625 C 339.051 430.431, 333.903 427, 333.545 427 C 333.188 427, 331.585 429.813, 329.984 433.250 M 522 431.531 C 518.975 432.850, 509.308 436.900, 500.517 440.531 C 491.726 444.162, 484.357 447.309, 484.142 447.525 C 483.926 447.741, 484.481 449.745, 485.375 451.979 C 491.338 466.883, 479.951 483.925, 464 483.968 C 454.969 483.993, 444.697 476.672, 441.909 468.225 C 440.679 464.496, 438.357 464.412, 438.761 468.110 C 438.905 469.425, 440.361 473.241, 441.996 476.592 C 461.790 517.145, 523.928 511.894, 536.512 468.606 C 539.703 457.630, 538.459 443.786, 533.382 433.767 C 530.602 428.282, 529.807 428.126, 522 431.531 M 401.844 444.750 C 399.114 451.537, 401.430 465.077, 405.595 466.675 C 408.126 467.646, 408.276 466.292, 405.983 463.190 C 403.586 459.948, 402.788 451.290, 404.329 445.250 C 405.372 441.164, 403.443 440.776, 401.844 444.750 M 228.075 455.732 C 225.599 456.952, 224.087 458.754, 222.612 462.244 C 221.239 465.496, 219.832 467.255, 218.298 467.640 C 217.046 467.954, 214.667 469.754, 213.011 471.640 C 207.558 477.851, 209.451 486.596, 217.105 490.554 C 219.546 491.817, 219.864 492.385, 219.017 493.969 C 215.767 500.041, 219.347 509.896, 226.020 513.248 C 235.494 518.008, 248 511.921, 248 502.550 C 248 501.147, 247.550 500, 247 500 C 246.450 500, 246 501.289, 246 502.865 C 246 512.120, 231.279 516.474, 223.898 509.402 C 219.416 505.108, 218.621 499.691, 221.466 492.818 C 221.975 491.588, 221.356 490.718, 219.169 489.588 C 212.831 486.310, 210.494 480.398, 213.195 474.472 C 214.387 471.856, 218.629 469, 221.323 469 C 222.196 469, 222.979 467.532, 223.353 465.192 C 225.692 450.565, 249 455.310, 249 470.413 C 249 472.495, 250.158 473.458, 256.250 476.446 C 266.346 481.397, 285.376 486.036, 283.564 483.104 C 283.259 482.610, 280.148 481.709, 276.650 481.099 C 268.698 479.715, 259.911 476.724, 254.530 473.571 C 250.979 471.489, 250.387 470.656, 250.301 467.620 C 250.029 458.035, 237.264 451.207, 228.075 455.732 M 688.542 481.686 C 683.032 483.209, 679 488.345, 679 493.842 C 679 497.501, 674.517 499.563, 662.869 501.260 C 655.227 502.374, 655.092 502.444, 654.799 505.438 C 654.590 507.565, 653.897 508.591, 652.500 508.839 C 648.314 509.582, 648.674 511, 653.050 511.007 C 661.301 511.020, 676.173 513.752, 678.893 515.754 C 680.327 516.810, 683.750 517.949, 686.500 518.285 C 689.250 518.622, 692.928 519.195, 694.674 519.559 C 697.624 520.173, 697.994 519.932, 699.930 516.138 C 702.741 510.628, 707.934 504.854, 709.351 505.664 C 709.983 506.025, 710.177 505.963, 709.783 505.526 C 709.388 505.090, 709.951 503.607, 711.033 502.231 C 715.191 496.944, 711.690 490, 704.865 490 C 703.034 490, 702 489.479, 702 488.556 C 702 484.093, 694.213 480.118, 688.542 481.686 M 391.250 488.031 C 387.471 489.550, 388.578 489.754, 400.250 489.686 C 409.473 489.633, 412.566 490.016, 417.414 491.813 C 423.309 493.998, 424.776 494.065, 423.558 492.094 C 421.276 488.401, 397.704 485.437, 391.250 488.031 M 333.076 490.631 C 337.902 495.870, 354 501.539, 354 498 C 354 497.450, 353.117 497, 352.038 497 C 348.967 497, 339.744 493.262, 336.002 490.502 C 331.572 487.233, 330.008 487.302, 333.076 490.631 M 242.750 489.689 C 238.213 490.875, 242.011 491.488, 252.250 491.223 C 260.298 491.015, 265.990 491.455, 272.250 492.772 C 277.063 493.784, 281 494.266, 281 493.844 C 281 493.084, 277.671 492.036, 269 490.070 C 264.567 489.064, 246.163 488.798, 242.750 489.689 M 724.112 495.264 C 721.698 496.494, 718.670 498.625, 717.382 500 C 716.095 501.375, 713.466 504.149, 711.541 506.164 C 708.107 509.758, 708.074 509.870, 709.837 512.047 L 711.634 514.266 715.392 509.147 C 719.537 503.501, 726.635 497, 728.654 497 C 733.666 497, 735.918 528.192, 731.598 537.779 C 730.552 540.101, 729.482 542, 729.220 542 C 728.958 542, 725.687 539.117, 721.951 535.593 C 713.579 527.695, 711.631 526.928, 708.869 530.439 C 700.758 540.751, 677.760 536.204, 678.044 524.346 C 678.073 523.148, 678.782 523.813, 680.062 526.239 C 683.485 532.722, 691.655 535.869, 699.764 533.828 C 704.428 532.655, 709.488 527.714, 708.544 525.255 C 708.235 524.450, 708.509 522.032, 709.153 519.883 C 710.084 516.777, 710.051 515.464, 708.993 513.487 C 707.049 509.855, 705.421 510.411, 702.370 515.750 C 698.159 523.120, 698.596 522.868, 692.749 521.285 C 687.566 519.882, 668.219 520.066, 658.739 521.609 C 655.767 522.093, 655.090 521.929, 655.513 520.826 C 656.458 518.365, 650.197 513, 646.381 513 C 642.379 513, 642.156 514.157, 644.663 521.919 L 646.326 527.069 642.967 530.534 C 641.119 532.440, 638.829 534, 637.877 534 C 632.716 534, 624.004 551.077, 619.917 569.203 C 618.278 576.471, 615.826 584.406, 614.469 586.835 C 611.474 592.194, 611.482 591.997, 614.250 592.014 C 617.481 592.033, 621 593.097, 621 594.054 C 621 594.505, 619.538 594.663, 617.750 594.405 C 615.483 594.078, 613.744 594.536, 612 595.918 C 609.526 597.880, 609.521 597.916, 611.500 599.422 C 612.600 600.259, 614.175 600.700, 615 600.402 C 618.581 599.108, 622.287 598.727, 621.676 599.715 C 621.327 600.280, 619.603 601.029, 617.844 601.381 L 614.646 602.021 617.573 605.098 C 624.852 612.751, 645.069 622.151, 659.250 624.476 C 664.730 625.374, 663.841 627.005, 658.233 626.341 L 653.466 625.777 646.483 633.145 C 628.688 651.921, 626.927 669.644, 642.743 670.788 C 649.782 671.297, 653.034 670.377, 666 664.209 C 671.225 661.724, 678.875 658.502, 683 657.049 C 691.075 654.205, 691.574 653.517, 687.671 650.604 C 681.747 646.181, 665.019 647.589, 651.221 653.673 C 644.768 656.518, 642.391 656.599, 641.011 654.021 C 638.957 650.182, 644.053 642, 648.497 642 C 649.236 642, 650.136 640.655, 650.497 639.011 C 651.555 634.198, 653.332 634.077, 652.521 638.873 C 652.086 641.448, 652.205 643, 652.835 643 C 653.392 643, 655.243 644.175, 656.951 645.612 C 659.844 648.046, 660.355 648.148, 664.470 647.112 C 672.299 645.140, 682.054 645.693, 687.424 648.412 L 692.188 650.823 695.188 644.412 C 696.838 640.885, 698.573 638, 699.042 638 C 700.226 638, 698.581 642.255, 694.211 650.500 C 690.719 657.087, 690.264 657.533, 686.500 658.056 C 680.121 658.942, 669.754 663.999, 671.068 665.582 C 672.078 666.799, 683.980 671.045, 690.310 672.446 C 698.194 674.192, 705.607 669.082, 711.523 657.823 C 713.627 653.820, 715.520 651.060, 715.730 651.690 C 716.365 653.596, 710.279 664.623, 706.265 668.839 C 699.257 676.198, 688.516 676.261, 673.229 669.031 L 667.044 666.106 660.272 669.200 C 655.409 671.421, 651.470 672.429, 646.301 672.775 L 639.102 673.256 637.623 679.878 C 632.027 704.937, 634.084 731.338, 643.010 749.021 C 644.655 752.278, 646 755.109, 646 755.312 C 646 755.516, 643.585 756.222, 640.634 756.883 C 637.683 757.543, 634.420 758.741, 633.384 759.544 C 631.558 760.960, 631.562 760.985, 633.500 760.348 C 635.152 759.806, 635.007 760.222, 632.668 762.736 C 628.711 766.990, 631.143 768.223, 635.384 764.112 C 639.492 760.131, 641.307 760.026, 637.510 763.990 C 635.935 765.634, 634.917 767.250, 635.249 767.582 C 636.127 768.460, 645.638 765.415, 651.934 762.240 L 657.369 759.500 657.505 753.500 C 657.652 746.981, 660.279 740.572, 664.765 735.784 L 667.309 733.068 664.589 732.034 C 663.094 731.465, 661.449 731, 660.935 731 C 660.421 731, 660 730.502, 660 729.893 C 660 729.238, 660.714 729.073, 661.750 729.489 C 666.685 731.472, 679.985 733.051, 686.475 732.425 C 692.513 731.842, 693.289 731.947, 692.244 733.206 C 691.262 734.389, 691.617 735.206, 694.145 737.580 C 698.094 741.290, 701.978 749.447, 701.990 754.059 C 701.996 756.016, 702.563 758.348, 703.250 759.241 C 704.722 761.151, 719.437 769, 721.548 769 C 723.738 769, 723.290 766.317, 720.810 764.580 C 719.606 763.736, 718.911 762.756, 719.265 762.401 C 719.620 762.047, 721.315 763.161, 723.032 764.878 C 724.749 766.595, 726.569 768, 727.077 768 C 728.964 768, 727.914 764.990, 725.469 763.388 C 724.077 762.475, 723.163 761.504, 723.438 761.229 C 723.713 760.954, 725.189 761.530, 726.719 762.509 L 729.500 764.288 727.106 761.677 C 725.790 760.241, 722.504 758.332, 719.805 757.435 C 717.106 756.539, 715.055 755.512, 715.247 755.153 C 718.708 748.677, 721.352 741.833, 722.517 736.335 C 724.225 728.275, 724.458 704.013, 722.992 687 C 722.446 680.675, 721.748 672.575, 721.440 669 C 719.710 648.948, 716.522 633.546, 712.675 626.660 C 710.646 623.026, 710.327 622.852, 706.765 623.422 C 700.421 624.436, 702.574 622.591, 710.665 620.080 C 718.662 617.597, 740.129 607.099, 740.364 605.556 C 740.439 605.067, 737.913 603.804, 734.750 602.750 C 731.587 601.696, 729 600.445, 729 599.971 C 729 599.120, 737.998 601.416, 741.091 603.057 C 742.173 603.630, 743.838 603.115, 746.293 601.447 L 749.903 598.994 747.274 596.365 C 744.761 593.852, 744.314 593.765, 737.118 594.373 C 731.815 594.821, 729.904 594.696, 730.651 593.949 C 731.234 593.366, 735.845 592.621, 740.898 592.294 L 750.085 591.698 747.657 589.099 C 743.753 584.920, 742.336 581.134, 740.639 570.344 C 739.761 564.759, 738.123 557.731, 736.999 554.728 C 735.073 549.580, 735.043 548.933, 736.469 543.456 C 740.710 527.177, 738.291 501.983, 731.822 495.039 C 729.480 492.525, 729.486 492.525, 724.112 495.264 M 381.501 498 C 373.650 500.513, 376.638 508.742, 388.796 518.089 C 391.703 520.324, 394.678 527.607, 394.964 533.194 C 394.984 533.576, 392.295 535.102, 388.988 536.586 C 382.374 539.554, 376 545.750, 376 549.211 C 376 551.187, 376.442 550.990, 380.250 547.313 C 388.522 539.325, 397.828 536.478, 415 536.679 C 436.348 536.930, 461.756 546.353, 464.514 555.044 C 464.855 556.120, 465.779 557, 466.567 557 C 470.767 557, 464.954 547.803, 457.687 542.950 C 446.554 535.516, 429.602 531.594, 410.982 532.145 L 398.990 532.500 398.085 529.500 C 396.374 523.829, 395.964 521, 396.853 521 C 398.939 521, 412.968 510.909, 415.503 507.585 C 418.783 503.284, 417.763 501.249, 411.246 499.094 C 406.462 497.513, 385.441 496.740, 381.501 498 M 831.285 503.750 C 829.255 506.913, 826.120 512.875, 824.318 517 L 821.041 524.500 825.271 525.176 C 834.652 526.675, 834.462 526.792, 834.814 519.310 C 835.097 513.275, 836.501 508.168, 837.580 509.247 C 837.810 509.477, 837.471 513.392, 836.827 517.947 C 835.759 525.503, 835.809 526.313, 837.398 527.203 C 839.051 528.128, 839.050 528.243, 837.379 529.465 C 835.770 530.642, 835.914 530.901, 839.060 532.494 C 840.952 533.452, 843.962 535.331, 845.750 536.669 C 849.585 539.539, 849.562 539.674, 847.405 526.926 C 845.266 514.281, 838.827 498, 835.965 498 C 835.420 498, 833.315 500.587, 831.285 503.750 M 256.455 500.256 C 256.190 500.946, 256.092 517.259, 256.237 536.506 L 256.500 571.500 266.750 571.785 L 277 572.070 277 535.535 L 277 499 266.969 499 C 259.842 499, 256.798 499.364, 256.455 500.256 M 723.913 502.250 C 716.279 509.385, 713.304 514.152, 712.712 520.200 L 712.155 525.901 716.478 528.435 C 718.857 529.828, 722.580 532.988, 724.753 535.457 L 728.704 539.945 729.894 537.333 C 732 532.711, 733.022 520.369, 732.061 511.179 C 730.642 497.626, 729.822 496.727, 723.913 502.250 M 258 535.461 L 258 570 267.013 570 L 276.026 570 275.763 535.750 L 275.500 501.500 266.750 501.211 L 258 500.922 258 535.461 M 385 501.965 C 385 504.702, 394.201 506.015, 399.435 504.025 C 404.384 502.143, 402.141 501, 393.500 501 C 388.707 501, 385 501.421, 385 501.965 M 765.278 506.750 C 762.310 516.350, 762.864 543.037, 766.245 553.303 C 767.790 557.991, 768.353 560.950, 767.658 560.716 C 766.915 560.467, 765.728 563.989, 764.346 570.544 C 763.162 576.163, 761.101 583.041, 759.767 585.829 L 757.340 590.899 760.271 591.199 L 763.201 591.500 761.100 594.158 C 756.750 599.662, 761.022 599.519, 767.045 593.959 C 774.924 586.684, 782.824 583.570, 793.496 583.532 L 802.666 583.500 800.837 580.500 C 798.824 577.199, 798.359 569.514, 800.107 568.434 C 801.812 567.380, 799.067 566.044, 795 565.948 C 791.823 565.872, 791.700 565.768, 793.672 564.814 C 795.272 564.040, 797.826 564.205, 803.385 565.442 C 815.753 568.194, 824.553 574.759, 838.868 591.911 C 844.990 599.247, 848.810 600.956, 853.473 598.445 C 857.467 596.293, 857.670 595.799, 855.341 593.872 C 852.492 591.515, 849.020 582.783, 849.010 577.946 C 848.999 573.089, 853.429 564.540, 856.582 563.330 C 857.814 562.857, 858.020 561.910, 857.501 559.110 C 855.706 549.429, 844.371 535.500, 836.257 533.004 C 834.191 532.368, 831.868 531.645, 831.097 531.397 C 829.989 531.040, 830.074 530.666, 831.504 529.620 C 834.466 527.455, 829.860 526.908, 817.921 528.006 C 806.679 529.040, 803.223 529.722, 801.208 531.302 C 799.723 532.466, 799.986 532.714, 793.443 524 C 784.045 511.483, 772.722 501, 768.598 501 C 767.593 501, 766.436 503.005, 765.278 506.750 M 644 502.474 C 644 502.980, 649.525 506, 650.450 506 C 650.753 506, 651 505.100, 651 504 C 651 502.381, 650.333 502, 647.500 502 C 645.575 502, 644 502.213, 644 502.474 M 642 507.941 C 642 510.673, 642.320 511, 645 511 C 648.404 511, 648.797 509.995, 646.250 507.807 C 642.667 504.730, 642 504.751, 642 507.941 M 293.258 512.819 C 292.169 513.511, 291.157 737.490, 292.238 738.572 C 292.578 738.911, 351.102 735.001, 352.561 734.542 C 353.145 734.358, 354.190 730.449, 354.885 725.854 C 356.451 715.489, 360.234 699.372, 362.889 691.750 C 364.809 686.239, 364.816 686, 363.061 686 C 354.508 686, 342.325 677.337, 339.590 669.310 C 334.280 653.725, 345.237 630.114, 369.160 605.588 L 379.977 594.500 379.988 588.328 L 380 582.155 376.250 580.932 C 363.602 576.807, 342.432 565.633, 331.069 557.085 C 328.083 554.838, 325.383 552.999, 325.069 552.999 C 324.756 552.998, 324.500 557.160, 324.500 562.249 L 324.500 571.500 315.250 571.788 L 306 572.075 305.979 552.788 L 305.957 533.500 301.459 526.557 C 298.986 522.738, 296.688 517.900, 296.353 515.807 C 295.722 511.858, 295.345 511.494, 293.258 512.819 M 769.834 514.788 C 767.091 521.628, 769.093 548.315, 772.678 552.701 C 774.045 554.374, 774.107 554.325, 773.551 552 C 769.721 535.979, 768.842 517.758, 771.758 514.842 C 773.178 513.422, 780.157 519.868, 785.132 527.194 C 790.716 535.417, 790.761 535.718, 786.883 538.969 C 785.022 540.529, 783.816 542.127, 784.202 542.522 C 784.589 542.916, 785.623 542.520, 786.502 541.641 C 787.380 540.763, 789.089 539.351, 790.299 538.503 L 792.500 536.961 789.125 530.449 C 785.008 522.507, 778.045 514.560, 773.954 513.134 C 771.156 512.158, 770.837 512.287, 769.834 514.788 M 655.707 516.508 C 657.470 518.722, 659.053 519.804, 660 519.442 C 660.825 519.127, 665.257 518.604, 669.848 518.279 C 675.513 517.879, 677.684 517.402, 676.602 516.797 C 674.443 515.589, 660.649 513, 656.369 513 L 652.915 513 655.707 516.508 M 642.079 524.450 C 642.021 527.350, 642.296 528.104, 643.112 527.287 C 643.902 526.498, 643.925 525.351, 643.191 523.337 C 642.169 520.532, 642.157 520.544, 642.079 524.450 M 630.413 532.492 C 627.613 536.766, 629.457 538.894, 633.011 535.489 C 635.271 533.324, 635.704 532.349, 634.859 531.330 C 633.267 529.411, 632.259 529.675, 630.413 532.492 M 308 553.412 L 308 571 310.860 571 C 312.434 571, 315.830 570.711, 318.408 570.358 L 323.094 569.715 322.921 560.108 L 322.748 550.500 315.374 543.162 L 308 535.823 308 553.412 M 625.011 538.979 C 624.428 540.068, 624.240 542.108, 624.592 543.511 C 625.189 545.891, 625.324 545.943, 626.585 544.282 C 628.143 542.227, 628.467 537, 627.035 537 C 626.505 537, 625.594 537.891, 625.011 538.979 M 616.500 547.203 C 606.385 557.274, 577.925 573.875, 559.500 580.451 C 555.100 582.021, 551.362 583.413, 551.193 583.544 C 551.023 583.675, 552.432 586.200, 554.323 589.156 C 565.415 606.495, 563.898 634.373, 550.405 661.160 L 548.057 665.820 552.457 687.160 C 554.877 698.897, 557.494 711.200, 558.274 714.500 L 559.692 720.500 571.096 720.283 C 577.368 720.163, 585.340 719.787, 588.810 719.447 L 595.120 718.828 590.810 716.071 C 576.449 706.885, 565.995 685.548, 567.310 668.106 C 568.643 650.432, 580.180 639.195, 591.484 644.560 C 598.952 648.103, 603.648 658.088, 606.508 676.500 C 609.145 693.485, 615.695 703.507, 624.500 704.033 C 631.803 704.469, 631.747 704.512, 632.491 697.750 C 632.869 694.313, 634.064 687.332, 635.147 682.237 L 637.115 672.974 633.557 669.619 C 625.536 662.054, 630.472 646.809, 646.267 630.369 C 648.978 627.548, 650.814 625.020, 650.348 624.753 C 649.882 624.485, 647.025 623.475, 644 622.509 C 635.377 619.754, 623.664 613.309, 617.540 607.950 L 611.941 603.050 606.401 605.123 C 599.430 607.731, 598.012 606.758, 604.595 603.882 C 610.709 601.213, 610.380 601.590, 608.819 599.036 C 607.670 597.156, 607.750 596.693, 609.441 595.439 C 611.203 594.133, 610.810 594, 605.191 594 C 597.721 594, 596.886 592.228, 604.156 591.802 C 609.306 591.500, 609.315 591.494, 612.488 585.753 C 614.512 582.092, 616.494 576.102, 617.950 569.253 C 619.207 563.339, 621.101 556.176, 622.158 553.334 C 623.927 548.582, 623.918 543.655, 622.139 542.603 C 621.788 542.395, 619.250 544.465, 616.500 547.203 M 399 550.944 C 399 553.098, 417.505 559.610, 418.598 557.841 C 419.402 556.541, 419.620 556.651, 410.500 553.729 C 406.100 552.319, 401.712 550.855, 400.750 550.476 C 399.694 550.059, 399 550.245, 399 550.944 M 628 564.892 C 628 565.382, 629.112 566.062, 630.471 566.403 C 632.651 566.951, 632.828 567.323, 631.971 569.577 C 625.871 585.621, 646.991 595.671, 653.383 579.767 L 654.884 576.033 648.275 572.337 C 637.145 566.113, 628 562.755, 628 564.892 M 704.500 565.480 C 701.200 566.206, 696.025 567.777, 693 568.971 C 677.890 574.932, 672.793 578, 678 578 C 679.167 578, 680 578.667, 680 579.600 C 680 582.345, 686.346 587.787, 690.444 588.555 C 700.054 590.358, 707.431 583.243, 706.753 572.825 L 706.383 567.151 709.692 566.530 C 711.511 566.189, 713 565.480, 713 564.955 C 713 563.767, 712.001 563.829, 704.500 565.480 M 801.604 568.589 C 799.460 574.177, 802.310 582.057, 807.209 584.087 C 813.300 586.610, 822 583.282, 822 578.428 C 822 575.272, 819.868 574.898, 817.688 577.670 C 814.057 582.285, 809 579.559, 809 572.988 C 809 568.810, 808.832 568.594, 804.854 567.645 C 802.953 567.192, 802.038 567.457, 801.604 568.589 M 857.222 567.751 C 856.341 568.050, 856.143 569.247, 856.585 571.604 C 857.308 575.454, 855.832 578, 852.878 578 C 850.788 578, 850.290 580.588, 852.250 581.265 C 854.749 582.128, 857.962 579.717, 858.560 576.530 C 859.440 571.840, 858.738 567.236, 857.222 567.751 M 633.626 569.533 C 630.674 577.225, 635.825 586, 643.291 586 C 648.444 586, 654.353 578.105, 650.857 575.890 C 648.587 574.452, 647 574.894, 647 576.965 C 647 579.665, 643.600 581.392, 641.012 580.006 C 639.010 578.935, 638.279 577.016, 637.774 571.509 C 637.471 568.196, 634.654 566.854, 633.626 569.533 M 698.250 569.108 C 695.317 569.965, 695 570.429, 695 573.874 C 695 580.849, 688.008 583.616, 685.205 577.750 C 683.769 574.744, 682.242 574.207, 681.396 576.410 C 680.486 578.782, 683.719 583.639, 687.357 585.365 C 696.935 589.910, 705.496 583.944, 704.803 573.207 C 704.469 568.036, 703.657 567.528, 698.250 569.108 M 822.639 581.428 C 821.655 582.931, 819.502 584.726, 817.856 585.419 C 814.870 586.674, 814.886 586.685, 824.181 589.978 C 829.307 591.794, 834.768 593.919, 836.318 594.700 C 840.365 596.742, 838.826 594.193, 830.776 585.527 L 824.429 578.696 822.639 581.428 M 858.929 583.553 C 857.074 584.921, 855.230 586.625, 854.830 587.340 C 853.794 589.190, 857.386 594.631, 860.814 596.404 C 863.600 597.845, 863.831 597.786, 866.547 594.951 C 869.303 592.074, 869.327 591.959, 867.439 590.560 C 865.665 589.246, 865.638 589.012, 867.126 587.812 C 868.588 586.632, 868.427 586.227, 865.526 583.783 L 862.300 581.065 858.929 583.553 M 382.425 585.441 C 382.106 586.716, 381.991 588.944, 382.172 590.392 L 382.500 593.026 387.280 589.617 L 392.059 586.208 387.533 584.666 C 383.057 583.141, 383.001 583.150, 382.425 585.441 M 852 584.500 C 852 585.325, 852.395 586, 852.878 586 C 853.360 586, 854.315 585.325, 855 584.500 C 856.040 583.247, 855.896 583, 854.122 583 C 852.902 583, 852 583.638, 852 584.500 M 782.836 586.850 C 776.101 589.086, 771.521 591.793, 767.680 595.808 L 764.860 598.756 768.005 599.852 C 771.160 600.952, 771.314 603, 768.241 603 C 763.123 603, 778.947 609.370, 791.750 612.464 C 795.737 613.427, 799 614.667, 799 615.219 C 799 616.156, 793.828 615.639, 790.528 614.372 C 788.595 613.631, 783.819 626.794, 780.140 643 C 771.212 682.338, 771.576 695.801, 782.391 726.388 C 786.829 738.941, 787.153 740.996, 784.691 741.004 C 782.334 741.011, 776.615 745.144, 777.880 745.926 C 778.795 746.492, 778.713 746.993, 777.547 747.961 C 775.648 749.537, 775.544 751, 777.331 751 C 778.063 751, 779.251 749.899, 779.972 748.553 C 781.283 746.102, 784 744.319, 784 745.909 C 784 746.374, 783.325 747.315, 782.500 748 C 781.675 748.685, 781 749.833, 781 750.553 C 781 754.220, 794.634 746.222, 795.579 742 C 796.904 736.082, 799.357 730.859, 803.777 724.546 L 808.500 717.800 814.500 717.500 C 819.770 717.237, 824.040 716.160, 830.250 713.528 C 831.302 713.082, 832 713.222, 832 713.880 C 832 714.481, 830.385 715.648, 828.412 716.472 C 826.438 717.297, 824.999 718.315, 825.213 718.736 C 828.653 725.492, 830.124 729.891, 830.661 735.031 L 831.311 741.248 836.658 743.612 C 839.599 744.913, 843.917 746.239, 846.253 746.558 L 850.500 747.140 848.108 745.045 C 846.793 743.893, 845.991 742.675, 846.327 742.340 C 847.333 741.333, 852.122 744.993, 851.377 746.198 C 850.963 746.870, 851.146 747.028, 851.842 746.598 C 855.200 744.522, 847.620 738, 841.851 738 C 839.397 738, 839.516 736.690, 842.425 731.678 C 850.778 717.288, 852.409 695.762, 847.207 668.583 C 844.783 655.917, 843.496 656.669, 843.498 670.749 C 843.499 678.541, 843.025 683.679, 842.091 686 C 837.728 696.833, 825.029 701.921, 814.401 697.095 C 806.367 693.446, 803.544 686.358, 804.205 671.493 L 804.660 661.272 801.147 659.386 C 796.165 656.711, 785.283 641.651, 786.245 638.764 C 786.447 638.158, 787.899 639.876, 789.472 642.581 C 799.419 659.689, 807.438 663.356, 820.664 656.844 C 824.190 655.109, 827.284 653.350, 827.540 652.935 C 828.274 651.747, 819.704 648, 816.252 648 C 812.417 648, 808.020 642.072, 803.987 631.466 C 802.436 627.385, 804.451 628.691, 806.741 633.250 L 808.876 637.500 808.953 631 C 809.008 626.417, 809.316 624.942, 810 626 C 810.533 626.825, 810.976 630.313, 810.985 633.750 C 810.993 637.188, 811.239 640, 811.532 640 C 811.825 640, 813.680 639.325, 815.654 638.500 C 817.629 637.675, 822.063 637, 825.508 637 C 828.953 637, 832.910 636.410, 834.301 635.688 L 836.830 634.376 833.868 626.938 C 830.582 618.687, 829.126 617.062, 825.616 617.733 C 824.306 617.983, 822.944 617.719, 822.589 617.145 C 821.918 616.058, 824.129 615.552, 834.301 614.464 C 837.492 614.122, 841.992 613.248, 844.301 612.520 L 848.500 611.198 844 611.029 C 838.131 610.808, 841.431 609.180, 848 609.055 C 859.586 608.835, 855.089 604.010, 836.500 596.717 C 807.356 585.283, 794.615 582.940, 782.836 586.850 M 657.074 588.410 C 656.144 589.531, 656.530 590.534, 658.952 593.292 C 662.768 597.639, 662.771 599.054, 658.972 601.862 C 657.307 603.094, 656.229 604.562, 656.578 605.126 C 656.963 605.749, 658.077 605.337, 659.420 604.075 C 662.325 601.346, 664.216 601.456, 669.715 604.679 C 672.651 606.399, 674.118 606.854, 673.816 605.949 C 673.558 605.174, 671.244 603.458, 668.673 602.135 C 665.104 600.298, 664 599.171, 664 597.365 C 664 596.064, 664.470 595, 665.045 595 C 667.443 595, 671.223 589.973, 669.965 588.458 C 668.348 586.510, 658.681 586.474, 657.074 588.410 M 660.149 591.604 C 662.683 594.137, 662.824 594.161, 665.377 592.489 C 669.283 589.929, 668.590 589, 662.773 589 L 657.545 589 660.149 591.604 M 755.500 593.975 C 754.400 594.434, 752.375 594.560, 751 594.255 C 748.578 593.718, 748.555 593.762, 750.250 595.679 C 752.638 598.378, 752.460 599.484, 749.250 601.917 C 746.597 603.927, 746.567 604.052, 748.392 605.464 C 749.432 606.269, 750.782 607.107, 751.392 607.327 C 752.001 607.547, 752.218 608.032, 751.874 608.406 C 751.529 608.780, 749.676 608.336, 747.755 607.420 L 744.263 605.755 736.382 610.549 C 732.047 613.185, 725.074 616.728, 720.887 618.421 C 716.699 620.114, 713.233 621.828, 713.184 622.229 C 712.817 625.213, 720.293 637.805, 723.919 640.310 C 728.791 643.676, 732.913 649.457, 738.233 660.386 C 746.856 678.099, 754.498 682.160, 768.209 676.315 C 771.538 674.895, 771.982 674.262, 772.547 670.117 C 774.733 654.077, 780.193 631.355, 784.368 620.922 C 787.655 612.707, 787.815 613.443, 782.446 612.091 C 777.135 610.754, 764 605.039, 764 604.066 C 764 603.700, 764.540 602.860, 765.200 602.200 C 766.133 601.267, 765.825 601, 763.811 601 C 759.643 601, 756.200 597.623, 757.758 595.065 C 759.103 592.859, 758.673 592.651, 755.500 593.975 M 378.299 617.062 C 373.693 618.457, 373.231 620, 377.421 620 C 381.500 620, 389 622.737, 389 624.225 C 389 624.806, 388.045 624.945, 386.750 624.553 C 376.106 621.334, 362 625.610, 362 632.055 C 362 633.854, 362.147 633.846, 365.518 631.857 C 372.314 627.847, 384 627.558, 384 631.400 C 384 632.436, 383.189 632.509, 380.250 631.738 C 371.092 629.335, 357.548 638.406, 362.660 643.518 C 364.907 645.765, 367.062 645.384, 379.396 640.562 C 385.640 638.121, 394.630 635.105, 399.374 633.861 C 404.118 632.617, 408 631.281, 408 630.892 C 408 629.424, 397.332 620.623, 393.458 618.894 C 388.223 616.558, 382.320 615.845, 378.299 617.062 M 832.004 617.667 C 832.006 618.125, 833.122 620.695, 834.483 623.377 C 835.844 626.059, 837.242 629.772, 837.590 631.627 C 838.114 634.420, 840.148 636.695, 839.935 634.250 C 839.458 628.778, 831.981 613.145, 832.004 617.667 M 840.248 628.759 C 841.470 632.389, 843.434 635.653, 845.590 637.635 C 852.334 643.835, 849.263 646.437, 839.835 642.509 C 831.327 638.964, 822.422 638.185, 816.453 640.465 C 810.620 642.692, 811.105 643.805, 819.050 646.430 C 822.597 647.602, 826.850 649.315, 828.500 650.237 C 839.419 656.339, 850.121 658.805, 853.502 655.998 C 857.308 652.840, 853.977 642.387, 845.660 631.389 C 838.870 622.410, 837.963 621.969, 840.248 628.759 M 446.497 633.209 C 449.245 635.569, 454.870 640.668, 458.997 644.540 L 466.500 651.580 477.247 651.199 C 487.820 650.824, 488.027 650.771, 490.090 647.874 C 492.856 643.990, 492.203 642.734, 485.003 638.081 C 475.307 631.814, 468.426 629.879, 454 629.364 L 441.500 628.919 446.497 633.209 M 835.569 637.888 C 834.950 638.890, 845.756 643.577, 846.642 642.691 C 846.956 642.378, 846.060 640.969, 844.652 639.561 C 842.105 637.014, 836.722 636.023, 835.569 637.888 M 720.322 643.145 C 720.644 644.990, 721.434 650.325, 722.078 655 C 723.531 665.542, 724.442 667.597, 725.930 663.685 C 726.518 662.137, 727 660.251, 727 659.494 C 727 657.222, 728.795 656.820, 731.379 658.513 C 735.071 660.932, 735.578 658.661, 732.512 653.430 C 729.326 647.994, 724.457 642.315, 721.732 640.856 C 719.883 639.867, 719.781 640.034, 720.322 643.145 M 646.536 644.941 C 646.170 645.534, 646.678 646.016, 647.691 646.035 C 648.686 646.055, 650.593 646.677, 651.930 647.417 C 654.277 648.717, 654.184 648.787, 649.230 649.468 C 643.822 650.212, 640.500 652.487, 643.270 653.550 C 644.448 654.002, 656.367 649.850, 657.837 648.475 C 658.022 648.302, 657.122 647.493, 655.837 646.678 C 652.599 644.625, 647.339 643.643, 646.536 644.941 M 579.984 646.856 C 572.608 650.784, 567.869 663.968, 569.419 676.250 C 570.226 682.649, 571.283 683.496, 572.850 679 C 574.228 675.049, 574.369 675.110, 578.386 681.390 C 583.057 688.691, 583.742 688.909, 585.098 683.526 C 586.527 677.850, 587.521 677.201, 590.500 680 C 593.533 682.849, 594.531 682.124, 595.999 676.003 C 597.381 670.243, 597.238 670.322, 601.209 673.149 L 604.226 675.297 603.495 670.899 C 600.162 650.849, 590.684 641.157, 579.984 646.856 M 826 656.011 C 822.536 658.735, 813.597 662, 809.600 662 L 806.276 662 805.618 669.259 C 804.016 686.937, 810.208 697, 822.688 697 C 836.378 697, 842.013 689.298, 841.985 670.624 C 841.967 658.859, 842.005 658.945, 835.623 656.142 C 829.692 653.537, 829.155 653.530, 826 656.011 M 728.003 663.492 C 727.369 665.413, 726.149 667.377, 725.291 667.857 C 723.903 668.634, 723.861 670.520, 724.911 685.115 C 725.559 694.127, 726.181 705.309, 726.294 709.964 C 726.499 718.388, 726.516 718.439, 729.901 720.716 C 741.713 728.663, 762.496 726.442, 772.326 716.182 L 775.133 713.252 773.505 705.376 C 772.609 701.044, 771.820 692.872, 771.750 687.215 C 771.640 678.303, 771.415 677.020, 770.061 677.600 C 755.115 684.007, 744.551 679.637, 737.572 664.161 C 736.275 661.284, 735.350 660.295, 734.566 660.945 C 733.867 661.525, 732.871 661.530, 731.966 660.958 C 729.659 659.499, 729.230 659.773, 728.003 663.492 M 540.304 677.773 C 530.043 691.836, 515.394 700, 500.421 700 C 482.687 700, 453.347 690.323, 431.869 677.391 C 424.968 673.235, 425.678 673.228, 414.825 677.570 C 402.517 682.494, 388.238 685.959, 377.247 686.688 L 367.995 687.302 365.882 694.396 C 357.807 721.511, 354.145 756.762, 357.022 779.702 C 359.463 799.167, 366.427 816.156, 378.588 832.307 C 382.235 837.151, 385.057 841.277, 384.858 841.475 C 384.659 841.674, 380.672 842.332, 375.998 842.938 C 352.599 845.970, 338.531 851.224, 334.888 858.291 C 333.988 860.036, 334.458 859.841, 337.125 857.362 C 341.230 853.545, 346.540 850.758, 348.817 851.224 C 349.967 851.460, 349.008 852.452, 345.792 854.355 C 340.573 857.443, 335 863.243, 335 865.586 C 335 866.420, 336.561 867.754, 338.468 868.551 C 342.753 870.341, 344 870.374, 344 868.694 C 344 864.929, 352.157 857.468, 358.728 855.222 C 363.770 853.500, 363.526 855.567, 358.395 858.051 C 352.838 860.741, 346.769 866.564, 347.199 868.794 C 347.877 872.317, 366.877 868.967, 390.500 861.159 C 413.168 853.666, 414.717 852.602, 413.215 845.559 C 410.986 835.107, 417.647 821.224, 429.242 812.157 L 432.984 809.231 424.242 806.507 C 414.490 803.468, 408 800.460, 408 798.980 C 408 797.539, 409.056 797.734, 416.578 800.566 C 426.632 804.350, 437.720 806.697, 454 808.486 C 472.228 810.489, 482.141 812.923, 492.412 817.920 C 510.080 826.515, 526.907 845.553, 526.978 857.027 C 527.009 862.011, 528.815 864.080, 539.202 871.027 C 553.233 880.413, 563.316 884.949, 573.250 886.347 C 576.550 886.811, 577 886.625, 577 884.794 C 577 882.710, 569.739 874.860, 565 871.822 C 560.741 869.091, 563.655 868.607, 568.205 871.289 C 573.726 874.544, 577.495 878.545, 579.450 883.224 C 580.892 886.678, 581.242 886.906, 584.253 886.353 C 590.309 885.241, 592.245 883.373, 590.611 880.220 C 588.939 876.993, 585.515 873.311, 581.447 870.366 C 579.826 869.193, 578.796 867.922, 579.157 867.543 C 580.797 865.821, 591.249 874.057, 592.524 878.077 C 593.268 880.420, 595 880.624, 595 878.368 C 595 871.376, 578.446 860.056, 559.250 853.923 C 551.161 851.338, 551.226 851.427, 553.991 846.740 C 563.237 831.069, 567.361 796.290, 563.564 766 C 561.879 752.557, 559.515 739.957, 550.189 694.721 L 545.287 670.943 540.304 677.773 M 597.062 678.137 C 595.554 684.020, 593.784 685.085, 590.555 682.051 C 587.923 679.579, 587.479 679.929, 586.477 685.269 C 586.090 687.333, 585.338 689.291, 584.805 689.620 C 583.580 690.377, 578.293 685.404, 576.333 681.650 L 574.845 678.800 573.114 682.150 C 571.465 685.340, 571.469 685.730, 573.202 690.316 C 577.737 702.314, 588.644 714.168, 598.753 718.086 C 609.059 722.081, 632.753 721.461, 632.400 717.206 C 632.345 716.543, 632.232 713.862, 632.150 711.250 L 632 706.500 627.250 706.500 C 616.970 706.500, 609.720 699.130, 606.143 685.043 C 604.708 679.393, 603.640 677.269, 601.323 675.456 L 598.346 673.126 597.062 678.137 M 772.631 718.864 L 769.887 721.727 773.068 722.364 C 778.721 723.494, 778.926 723.369, 777.739 719.500 C 776.439 715.264, 776.117 715.224, 772.631 718.864 M 812.745 719.706 C 809.765 720.036, 808.470 720.884, 806.474 723.811 L 803.959 727.500 810.229 728.692 C 828.786 732.220, 829.699 731.943, 825.649 724 C 823.178 719.151, 821.828 718.702, 812.745 719.706 M 577.500 722.233 C 568.700 722.743, 561.210 723.462, 560.856 723.830 C 560.190 724.522, 564.065 744.398, 565.058 745.392 C 565.546 745.880, 600.105 751.431, 625.102 755.037 C 640.157 757.209, 644.275 755.453, 640.700 748.388 C 637.736 742.528, 634.528 732.320, 633.555 725.653 C 632.919 721.292, 632.631 720.866, 630.674 721.406 C 621.795 723.853, 615.098 724.201, 607.302 722.621 C 602.901 721.730, 597.995 721.069, 596.400 721.153 C 594.805 721.237, 586.300 721.723, 577.500 722.233 M 726 726.733 C 726 732.914, 722.659 746.218, 719.956 750.799 C 718.836 752.698, 718.050 754.317, 718.209 754.396 C 718.369 754.475, 720.662 755.549, 723.304 756.783 C 726.136 758.106, 728.804 760.249, 729.804 762.006 C 731.237 764.522, 731.966 764.907, 734.500 764.483 C 736.150 764.207, 746.950 762.853, 758.500 761.474 C 844.561 751.198, 888.532 745.662, 889.285 745.010 C 889.970 744.417, 864.263 739.527, 853.719 738.244 L 849.938 737.784 852.969 740.815 C 856.655 744.502, 856.728 745.477, 853.474 747.609 C 850.380 749.636, 844.610 749.048, 837.437 745.973 C 830.753 743.108, 829 741.319, 829 737.364 C 829 733.618, 829.787 733.962, 815.500 731.456 C 810.550 730.588, 805.734 729.657, 804.797 729.386 C 802.869 728.830, 799.747 734.101, 798.511 740 C 796.487 749.657, 780.054 757.054, 774.023 751.023 C 770.800 747.800, 772.762 744.272, 779.551 741.081 C 784.669 738.675, 784.729 738.375, 781.557 731.023 L 779.195 725.546 772.914 724.411 C 767.222 723.381, 766.205 723.473, 762.067 725.387 C 758.436 727.067, 755.655 727.486, 748.500 727.431 C 739.808 727.364, 738.603 727.078, 727.750 722.521 C 726.220 721.878, 726 722.408, 726 726.733 M 667.467 735.442 C 662.639 740.270, 659.697 746.961, 659.346 753.908 L 659.009 760.602 683.548 764.457 C 700.991 767.197, 708.398 768.002, 709.159 767.241 C 709.920 766.480, 709.314 765.696, 707.062 764.532 C 701.707 761.763, 700.002 759.409, 699.978 754.750 C 699.951 749.474, 697.388 743.821, 692.447 738.139 C 688.911 734.073, 688.378 733.810, 684.562 734.240 C 682.310 734.494, 678.023 734.388, 675.035 734.004 C 670.283 733.395, 669.334 733.575, 667.467 735.442 M 319 739.096 C 305.525 740.102, 273.800 742.298, 248.500 743.976 C 223.200 745.653, 189.368 747.920, 173.319 749.013 C 157.269 750.106, 141.830 751, 139.010 751 C 133.440 751, 133.019 752.422, 138.261 753.531 C 140.043 753.908, 153.425 757.815, 168 762.214 C 194.232 770.131, 210.997 775.031, 259.500 788.961 C 273.250 792.910, 297.100 799.904, 312.500 804.503 L 340.500 812.866 350.283 811.683 C 355.663 811.032, 360.035 810.050, 359.997 809.500 C 359.960 808.950, 358.792 804.900, 357.401 800.500 C 353.262 787.402, 351.684 772.925, 352.304 753.750 L 352.845 737 348.173 737.133 C 345.603 737.206, 332.475 738.090, 319 739.096 M 883.500 748.014 C 839.223 753.655, 777.214 761.371, 755.661 763.922 C 738.076 766.004, 730.482 767.283, 729.661 768.303 C 727.849 770.553, 723.961 771.089, 718.366 769.861 C 715.543 769.241, 711.718 769.017, 709.866 769.363 L 706.500 769.992 706.822 778.437 C 707.048 784.369, 707.494 786.762, 708.322 786.477 C 708.970 786.255, 733.350 782.887, 762.500 778.995 C 833.688 769.488, 898.996 760.368, 899.308 759.890 C 899.866 759.035, 898.785 746.008, 898.165 746.115 C 897.799 746.179, 891.200 747.033, 883.500 748.014 M 565.354 750.750 C 565.677 752.263, 566.719 760.539, 567.670 769.142 C 568.751 778.918, 569.793 784.656, 570.450 784.443 C 571.769 784.015, 626.886 777.162, 666.422 772.510 C 692.064 769.493, 701.712 768.016, 695.917 767.995 C 695.137 767.992, 686.128 766.663, 675.896 765.042 L 657.293 762.094 648.896 765.727 C 638.436 770.253, 631.815 770.721, 628.913 767.139 C 626.484 764.141, 626.500 762.500, 628.985 760.015 C 631.249 757.751, 631.345 757.799, 622 756.501 C 619.525 756.157, 606.380 754.103, 592.789 751.938 C 562.922 747.178, 564.607 747.251, 565.354 750.750 M 694 771.156 C 670.981 773.976, 594.496 783.257, 582.750 784.657 L 569 786.296 569 795.648 C 569 802.464, 569.339 804.999, 570.250 804.997 C 570.938 804.996, 581.175 803.634, 593 801.972 C 618.484 798.390, 703.141 787, 704.285 787 C 704.723 787, 704.950 783.292, 704.790 778.761 C 704.458 769.326, 705.122 769.794, 694 771.156 M 169.120 783.080 C 162.426 784.395, 159.305 786.734, 161.422 788.849 C 163.924 791.347, 182.484 791.226, 186.358 788.686 C 193.224 784.185, 182.030 780.543, 169.120 783.080 M 168.500 784.737 C 162.608 786.223, 161.378 787.073, 163.443 788.228 C 167.592 790.550, 187 788.831, 187 786.141 C 187 784.247, 174.270 783.281, 168.500 784.737 M 196.543 789.931 C 196.226 790.443, 196.429 791.147, 196.993 791.495 C 198.418 792.377, 202.157 791.063, 201.456 789.928 C 200.712 788.725, 197.287 788.727, 196.543 789.931 M 821.380 797.452 C 820.399 800.009, 821.994 801, 827.090 801 C 832.256 801, 834.857 798.789, 831.896 796.914 C 829.557 795.433, 822.006 795.820, 821.380 797.452 M 825 798.039 L 822.500 798.713 825.178 799.447 C 826.650 799.850, 828.614 799.756, 829.542 799.237 C 831.869 797.934, 828.591 797.070, 825 798.039 M 429.991 816.741 C 425.977 820.501, 422.874 824.040, 423.096 824.606 C 423.416 825.420, 462.798 820.548, 478.500 817.751 C 482.238 817.086, 472.976 814.969, 457.500 812.952 C 449.250 811.877, 441.328 810.751, 439.895 810.451 C 437.711 809.993, 436.107 811.012, 429.991 816.741 M 352 813.664 C 346.775 814.305, 342.387 814.867, 342.250 814.914 C 342.113 814.961, 342 820, 342 826.111 L 342 837.223 345.250 836.648 C 347.038 836.333, 354.219 835.324, 361.208 834.406 L 373.916 832.738 371.085 828.619 C 369.527 826.354, 366.734 821.800, 364.877 818.500 L 361.500 812.500 352 813.664 M 363.500 836.137 C 360.200 836.630, 350.975 837.936, 343 839.040 C 310.620 843.520, 259.405 851.143, 258 851.691 C 256.197 852.395, 254.345 851.939, 297.476 861.415 C 316.163 865.521, 331.658 868.675, 331.910 868.424 C 332.161 868.172, 331.834 867.434, 331.183 866.783 C 327.756 863.356, 331.202 855.040, 338.126 850.023 C 344.374 845.498, 367.856 839.075, 378.405 839.006 C 378.903 839.003, 378.495 838.100, 377.500 837 C 375.529 834.823, 373.247 834.682, 363.500 836.137 M 241.693 873.700 C 240.667 873.966, 240.022 874.888, 240.201 875.834 C 240.654 878.225, 247.774 878.752, 248.654 876.460 C 249.699 873.737, 246.478 872.460, 241.693 873.700 M 266.294 886.326 C 260.942 888.286, 260.088 889.805, 263 892.185 C 267.393 895.776, 285 893.266, 285 889.048 C 285 885.215, 273.786 883.583, 266.294 886.326 M 266.250 888.119 C 259.246 890.141, 264.201 892.515, 273.952 891.810 C 280.197 891.358, 284.166 889.356, 281.797 887.854 C 280.085 886.767, 270.356 886.933, 266.250 888.119 M 304 898 C 304 898.550, 304.873 899, 305.941 899 C 307.009 899, 308.160 898.550, 308.500 898 C 308.851 897.433, 308.010 897, 306.559 897 C 305.152 897, 304 897.450, 304 898" stroke="none" fill="#1a1a1a" fill-rule="evenodd"/>
</svg>