<svg xmlns="http://www.w3.org/2000/svg" width="1024" height="1024" viewBox="0 0 1024 1024" version="1.1">
	<path d="M 396.202 191.958 C 346.990 205.286, 313.377 274.905, 325.057 339.315 C 326.340 346.389, 326.384 346.328, 320.882 345.059 C 298.146 339.817, 276.743 354.800, 291.973 365.296 C 295.974 368.054, 303.720 367.464, 315.569 363.500 C 330.223 358.597, 329.977 358.546, 334.348 367.389 C 338.677 376.149, 338.604 375.632, 335.617 376.381 C 331.236 377.481, 327 382.407, 327 386.401 C 327 394.737, 335.302 396.567, 345.256 390.423 L 351.051 386.846 356.606 391.923 C 359.661 394.715, 362.514 397, 362.945 397 C 363.375 397, 362.664 399.101, 361.364 401.669 C 360.064 404.238, 359 406.896, 359 407.577 C 359 408.451, 356.991 408.785, 352.175 408.710 C 341.925 408.552, 333.653 414.205, 326.652 426.150 C 315.144 445.787, 322.293 483.479, 342.523 509.822 C 347.793 516.684, 348.078 517.337, 347.073 520.221 C 344.903 526.447, 346.340 533.803, 350.846 539.532 C 352.703 541.893, 352.705 542.097, 350.902 548.598 C 348.023 558.979, 346.674 574.430, 347.888 583.108 C 352.493 616.018, 375.023 629.814, 412 622.365 L 415.500 621.660 411.902 626.080 C 397.806 643.399, 393.505 649.351, 389.548 657.012 L 385.057 665.707 377.779 666.259 C 352.447 668.182, 331.635 680.892, 311.216 706.907 L 309.327 709.315 306.090 703.658 C 295.185 684.597, 273.573 674.229, 258.574 680.864 C 240.976 688.648, 231.785 708.676, 240.920 719.331 C 242.414 721.074, 244.246 724.075, 244.991 726 C 245.736 727.925, 248.585 734, 251.322 739.500 C 256.465 749.833, 267.079 774.254, 266.625 774.708 C 266.483 774.850, 264.825 774.523, 262.940 773.983 C 258.135 772.605, 250.212 772.834, 245.575 774.486 L 241.650 775.884 237.814 771.526 C 231.042 763.832, 223.411 761.315, 218.521 765.162 C 216.057 767.100, 215.834 767.773, 216.367 771.662 L 216.962 776 212.435 776 C 207.668 776, 203 779.184, 203 782.435 C 203 784.027, 202.078 784.326, 193 785.680 C 185.219 786.840, 186.170 788.394, 194.500 788.129 C 203.458 787.845, 204.672 787.445, 205.402 784.534 C 206.795 778.986, 212.882 777.381, 220.486 780.559 C 225.329 782.582, 225.447 782.299, 221.940 777.076 C 213.673 764.767, 224.394 762.081, 235.674 773.634 L 240.993 779.082 245.679 777.491 C 248.886 776.402, 253.096 775.986, 259.013 776.174 L 267.661 776.449 272.580 785.974 C 278.883 798.177, 289.836 809.803, 297.428 812.348 C 305.007 814.889, 314.028 814.526, 320.127 811.435 C 327.010 807.948, 354.398 798.619, 367.118 795.430 C 375.124 793.423, 380.932 792.712, 392.500 792.321 L 407.500 791.815 415.702 796.658 C 420.554 799.522, 423.923 802.171, 423.952 803.143 C 424.091 807.877, 430.263 828.714, 432.874 833.265 C 441.805 848.831, 456.815 854.242, 471.419 847.159 C 474.764 845.537, 480.111 843.468, 483.303 842.562 C 490.427 840.538, 505.053 833.121, 514.693 826.644 L 521.886 821.810 534.193 824.125 C 552.911 827.645, 581.499 827.446, 595.163 823.701 C 619.269 817.093, 639.013 802.936, 652.333 782.710 C 659.925 771.181, 666.394 768.241, 671.948 773.794 C 674.484 776.330, 675.400 776.588, 681.871 776.588 C 691.940 776.588, 691.468 773.889, 681.316 773.415 C 677.278 773.226, 675.242 772.540, 672.916 770.583 C 669.409 767.632, 666.200 767.328, 661.920 769.542 L 658.938 771.083 660.567 767.292 C 675.544 732.420, 676.948 678.989, 664.298 625.276 C 661.666 614.101, 661.652 613.850, 663.277 607.222 C 669.235 582.923, 661.617 554.682, 644.634 538.107 L 640.133 533.714 645.816 530.002 C 653.187 525.187, 660.320 518.802, 665.144 512.698 C 668.085 508.978, 669 508.302, 669 509.851 C 669 516.801, 676.379 509.747, 680.369 498.984 C 681.776 495.188, 683.453 489.064, 684.095 485.376 L 685.263 478.670 687.381 483.085 C 691.946 492.597, 695.500 487.410, 695.500 471.239 C 695.500 464.761, 695.869 461.145, 696.500 461.432 C 712.301 468.618, 721.422 470.381, 739.473 469.741 C 791.003 467.913, 833.966 427.924, 846.630 370 C 849.264 357.953, 849.301 324.217, 846.694 312.125 C 839.341 278.021, 822.690 250.962, 796.694 230.871 C 766.803 207.770, 727.744 202.777, 695.419 217.925 C 677.281 226.425, 665.640 236.173, 637.181 266.697 L 623.944 280.894 617.544 276.420 C 614.024 273.959, 609.649 271.451, 607.822 270.845 C 605.995 270.239, 601.924 267.239, 598.776 264.179 C 592.516 258.093, 591.082 257.993, 592.811 263.762 C 594.170 268.298, 600.739 275.016, 604.091 275.298 C 605.416 275.409, 608.075 276.673, 610 278.107 C 611.925 279.540, 614.945 281.540, 616.712 282.550 L 619.924 284.386 617.848 287.746 C 616.706 289.593, 616.017 291.350, 616.317 291.650 C 617.509 292.843, 634.119 278.918, 644.486 268.033 C 672.420 238.707, 681.287 231.422, 699.346 222.959 C 728.566 209.266, 763.176 213.375, 790.612 233.794 C 824.285 258.855, 842.996 296.974, 842.990 340.500 C 842.981 403.083, 806.101 452.221, 751.372 462.567 C 740.973 464.533, 724.130 464.060, 714.500 461.533 C 708.194 459.877, 691.746 452.380, 686.986 448.990 C 682.742 445.968, 681.424 446.605, 684.376 450.250 C 689.452 456.519, 690.128 458.695, 690.618 470.344 L 691.086 481.500 688.211 475.500 C 683.480 465.626, 682.626 465.655, 681.078 475.740 C 679.489 486.101, 675.594 501.053, 673.509 504.799 C 672.057 507.408, 672.027 507.323, 672.626 502.292 C 673.653 493.668, 672.404 492.620, 668.719 499.014 C 662.513 509.779, 646.842 523.435, 630 532.755 C 621.626 537.389, 620.363 537.571, 618.696 534.390 C 617.292 531.709, 617.351 531.622, 624.454 525.908 C 650.067 505.303, 659.622 486.422, 649.538 476.338 C 646.345 473.145, 646.218 472.707, 645.744 463.267 C 645.144 451.318, 643.239 445.029, 637.729 436.809 C 632.308 428.721, 625.539 424, 619.366 424 C 616.384 424, 613.750 423.213, 611.229 421.567 C 603.472 416.507, 594.165 417.425, 588.107 423.848 C 585.797 426.298, 584.519 427.057, 584.219 426.157 C 583.973 425.420, 581.757 421.821, 579.294 418.159 C 569.326 403.337, 569.297 396.943, 579.226 402.996 C 589.326 409.155, 596.865 400.240, 588.250 392.324 C 579.286 384.087, 563.502 379.837, 549.783 381.966 C 540.967 383.334, 540.275 382.789, 547.428 380.113 C 556.786 376.611, 561.575 375.769, 569.957 376.150 C 579.016 376.561, 579.785 375.951, 573.958 372.979 C 561.787 366.770, 540.311 371.722, 526.825 383.848 C 514.254 395.150, 516.823 399.074, 537 399.389 C 555.254 399.673, 562.858 407.826, 562.956 427.215 C 562.981 432.205, 563.640 437.814, 564.497 440.338 C 565.506 443.312, 566.076 449.683, 566.247 459.923 L 566.500 475.100 560.500 480.627 C 542.050 497.624, 541.001 498.753, 538.273 504.579 C 534.302 513.058, 534.227 527.037, 538.113 534.500 C 540.323 538.746, 540.645 540.421, 540.248 545.606 L 539.780 551.713 530.140 552.351 C 505.447 553.987, 483.384 552.758, 467.256 548.851 C 452.059 545.169, 438.613 539.332, 420 528.336 L 412.500 523.905 412.500 515.203 C 412.500 503.319, 409.655 497.235, 399.554 487.520 L 392.171 480.419 390.956 472.113 C 388.983 458.622, 390.065 446.335, 394.311 434 C 396.299 428.225, 398.654 419.927, 399.543 415.559 C 402.114 402.931, 409.899 389.855, 416.881 386.437 C 419.714 385.050, 421.172 384.955, 425.881 385.849 C 443.049 389.107, 445.069 387.461, 438.944 375.203 C 431.810 360.928, 415.284 351.500, 404.588 355.605 C 402.461 356.421, 403.590 357.998, 406.309 358.010 C 410.893 358.030, 427 367.451, 427 370.112 C 427 370.540, 424.413 369.703, 421.250 368.252 C 410.424 363.286, 396.523 365.223, 390.047 372.600 C 383.529 380.023, 388.606 385.167, 398.874 381.544 C 406.275 378.933, 403.353 384.557, 390.031 398.565 C 383.807 405.109, 379.585 410.491, 378.384 413.412 C 376.166 418.804, 376 418.866, 373.856 415.097 C 372.914 413.441, 370.671 411.649, 368.606 410.902 C 366.623 410.185, 365 409.221, 365 408.759 C 365 406.491, 369.360 399.838, 372.721 396.978 C 375.735 394.414, 376.045 393.869, 374.250 394.288 C 371.147 395.012, 371.379 394.629, 376.197 391.087 C 378.505 389.389, 379.917 388, 379.333 388 C 378.749 388, 379.329 385.913, 380.620 383.363 C 381.911 380.812, 383.264 376.489, 383.627 373.755 L 384.286 368.785 387.643 369.330 C 391.377 369.935, 391.561 369.606, 389.500 366 C 387.245 362.055, 387.674 359.989, 393.024 349.050 C 408.432 317.541, 428.475 297.259, 459.591 281.689 C 476.037 273.459, 498.116 266.893, 510.240 266.626 C 513.558 266.553, 515.849 266.078, 515.666 265.500 C 515.320 264.402, 504.111 259.756, 497 257.762 C 488.198 255.294, 517.270 255.520, 530.343 258.022 C 536.330 259.167, 541.414 259.920, 541.639 259.694 C 542.273 259.060, 531.624 250.241, 524.267 245.307 C 509.597 235.470, 541.299 247.979, 566.319 261.900 C 574.474 266.437, 574.606 265.913, 567.798 256.024 C 564.400 251.087, 561.833 246.834, 562.093 246.574 C 562.353 246.313, 568.326 250.578, 575.366 256.050 C 589.475 267.018, 589 266.735, 589 264.197 C 589 261.501, 581.603 254.538, 571.691 247.904 C 557.927 238.693, 553.744 238.718, 558.398 247.984 C 559.829 250.833, 561 253.356, 561 253.591 C 561 253.825, 558.605 252.666, 555.679 251.014 C 539.625 241.954, 512.811 234.261, 510.473 238.044 C 509.526 239.576, 511.488 241.527, 519.671 247.183 C 523.702 249.970, 527 252.338, 527 252.446 C 527 252.553, 524.638 252.305, 521.750 251.894 C 506.077 249.662, 483 252.748, 483 257.077 C 483 258.332, 488.171 260.568, 493.297 261.528 C 495.385 261.920, 496.919 262.415, 496.705 262.628 C 495.436 263.897, 479.839 267.009, 478.501 266.260 C 474.859 264.222, 467.325 252.333, 459.484 236.249 C 449.763 216.310, 445.431 209.560, 437.632 202.201 C 426.085 191.306, 411.722 187.754, 396.202 191.958 M 398.500 197.429 C 366.215 206.562, 341.468 238.339, 331.861 283 C 327.348 303.981, 329.236 343.527, 335.005 348.879 C 335.966 349.771, 339.515 352.220, 342.891 354.322 C 350.123 358.824, 349.975 360.250, 342.365 359.355 L 336.851 358.707 338.299 362.173 C 342.317 371.789, 344.323 373.670, 351.172 374.242 C 357.513 374.771, 366 377.509, 366 379.025 C 366 379.470, 364.116 380.461, 361.813 381.229 C 356.066 383.145, 356.087 384.232, 361.959 388.873 L 367.038 392.888 371.514 388.216 C 375.723 383.824, 377.063 380.920, 379.513 370.876 C 380.143 368.294, 380.055 368.244, 374.114 367.815 C 367.375 367.327, 364 365.169, 364 361.345 C 364 355.381, 371.937 353.144, 379.470 356.985 C 381.612 358.077, 383.469 358.864, 383.597 358.735 C 383.725 358.606, 385.010 355.366, 386.451 351.536 C 392.020 336.737, 402.840 319.899, 415.694 306.032 L 421.689 299.565 417.451 293.374 C 411.787 285.102, 409.440 278.507, 405.440 259.631 C 399.550 231.835, 392.906 222, 380.018 222 C 374.046 222, 369.532 223.711, 362.858 228.507 C 357.003 232.713, 356.467 231.618, 361.955 226.660 C 377.202 212.885, 394.571 216.145, 403.730 234.500 C 406.639 240.330, 408.582 246.821, 411.962 262 C 415.026 275.764, 420.717 289.624, 424.833 293.349 C 426.699 295.038, 427.155 294.839, 437.665 287.769 C 443.659 283.737, 453.949 278.022, 460.531 275.069 C 467.114 272.116, 472.696 269.534, 472.935 269.331 C 473.174 269.129, 471.776 267.284, 469.828 265.232 C 464.193 259.294, 460.235 252.792, 452.726 237.134 C 441.072 212.830, 435.248 205.223, 423.840 199.399 C 417.341 196.081, 406.299 195.223, 398.500 197.429 M 744.470 240.012 C 716.997 243.743, 696.208 261.411, 681.851 293.233 C 673.974 310.691, 664.832 322.416, 655.221 327.386 C 650.793 329.676, 651.070 331.260, 655.750 330.409 C 662.127 329.250, 668.541 325.335, 673.882 319.344 C 676.697 316.185, 679 313.241, 679 312.800 C 679 312.360, 679.470 312, 680.045 312 C 681.596 312, 680.134 318.687, 677.386 324.173 C 676.098 326.744, 672.557 330.994, 669.517 333.618 C 666.477 336.243, 664.330 338.701, 664.745 339.080 C 665.452 339.727, 673.202 338.546, 687.701 335.583 C 693.302 334.439, 693.817 334.470, 693.033 335.908 C 691.684 338.380, 685.960 343.472, 681 346.612 C 675.368 350.178, 676.632 350.496, 691.151 349.164 C 696.843 348.642, 701.676 348.380, 701.891 348.582 C 702.106 348.784, 700.616 350.983, 698.579 353.469 C 694.074 358.967, 687.637 362.882, 680.298 364.588 C 673.479 366.173, 672.845 366.798, 676 368.822 C 679.647 371.160, 688.405 379.929, 687.749 380.585 C 687.440 380.893, 685.458 380.665, 683.344 380.078 C 673.839 377.439, 649.888 379.597, 642.468 383.761 C 640.165 385.054, 640.256 385.100, 650 387.549 C 659.126 389.843, 662.293 391.303, 672.234 397.796 C 681.825 404.059, 681.146 402.786, 681.421 415.022 C 681.730 428.799, 713.200 452, 731.578 452 C 733.504 452, 736.932 452.945, 739.196 454.100 C 753.776 461.538, 760.526 447.593, 748.275 435.342 C 742.043 429.110, 723.959 422, 714.340 422 C 709.917 422, 710.065 422.493, 716.443 428.971 C 724.116 436.765, 734.145 450.423, 732.479 450.810 C 730.099 451.361, 717.076 446.273, 709.694 441.906 C 701.413 437.008, 690.492 426.548, 686.821 420 C 683.466 414.014, 683.810 405.420, 687.353 406.715 C 692.216 408.493, 700.707 407.626, 703.420 405.076 C 708.995 399.837, 705.172 389.639, 695.726 384.552 C 693.474 383.339, 691.611 381.229, 690.459 378.588 C 689.478 376.339, 687.142 373.038, 685.267 371.250 C 682.913 369.006, 682.356 368, 683.469 368 C 688.715 368, 700.533 358.660, 704.152 351.653 C 707.357 345.449, 706.358 344.599, 696.793 345.397 L 688.632 346.078 691.143 344.102 C 692.525 343.015, 694.737 340.087, 696.059 337.595 C 699.611 330.900, 698.448 330.233, 686.509 332.121 C 681.279 332.948, 677 333.454, 677 333.245 C 677 333.037, 678.063 331.434, 679.362 329.683 C 683.824 323.670, 685.206 315.934, 682.701 311 C 679.937 305.559, 695.973 275.625, 707.762 264.219 C 729.252 243.427, 759.143 238.356, 784.429 251.212 C 807.774 263.080, 826.883 287.157, 835.574 315.649 C 838.904 326.567, 839.830 325.795, 836.992 314.466 C 825.378 268.108, 783.822 234.667, 744.470 240.012 M 462.502 305.614 C 463.994 309.039, 464.216 314.815, 462.999 318.502 C 461.513 323.006, 462.278 324.031, 464.545 320.572 C 467.979 315.331, 467.108 305.519, 463.091 304.193 C 462.041 303.846, 461.891 304.208, 462.502 305.614 M 525.051 308.662 C 523.899 310.127, 522.704 312.489, 522.395 313.912 C 522.086 315.336, 521.687 316.991, 521.509 317.591 C 521.331 318.191, 521.544 319.263, 521.984 319.974 C 522.519 320.840, 523.016 320.151, 523.489 317.883 C 523.878 316.022, 525.296 312.587, 526.640 310.250 C 529.351 305.536, 528.320 304.507, 525.051 308.662 M 533.217 309.561 C 528.442 312.905, 526.403 322.401, 529.161 328.453 C 531.013 332.520, 531.660 331.442, 531.198 325.056 C 530.768 319.110, 533.727 310, 536.089 310 C 536.590 310, 537 309.550, 537 309 C 537 307.580, 535.789 307.759, 533.217 309.561 M 446.982 315.833 C 440.618 322.370, 431.922 326.990, 419.956 330.193 C 411.154 332.549, 410.213 333.448, 415.633 334.328 C 433.041 337.153, 458.298 323.294, 455.568 312.415 C 454.684 308.893, 453.143 309.506, 446.982 315.833 M 541.923 320.144 C 536.242 330.759, 552.714 345.812, 575.181 350.538 C 589.863 353.627, 589.631 352.520, 573.900 344.425 C 557.586 336.030, 549.451 329.619, 546.120 322.531 C 543.681 317.344, 543.482 317.231, 541.923 320.144 M 443.973 350.438 C 446.083 355.359, 448 364.551, 448 369.743 C 448 374.446, 449.744 372.893, 450.558 367.464 C 451.378 361.991, 449.793 355.217, 446.455 349.929 C 443.115 344.638, 441.619 344.944, 443.973 350.438 M 305.209 348.176 C 298.783 348.903, 292.680 351.785, 291.599 354.602 C 288.287 363.235, 298.455 365.439, 315.738 359.835 C 323.576 357.293, 327.157 356.673, 333.908 356.688 L 342.317 356.706 338.481 354.738 C 327.893 349.306, 315.982 346.957, 305.209 348.176 M 531.253 354.932 C 524.475 359.842, 518.650 369.081, 517.399 376.908 C 516.560 382.150, 518.396 382.386, 520.059 377.250 C 522.409 369.993, 526.289 363.549, 531.768 357.804 C 537.805 351.475, 537.601 350.334, 531.253 354.932 M 368.441 359.501 C 365.227 361.986, 369.669 365, 376.546 365 C 379.474 365, 383.024 365.439, 384.435 365.975 C 389.917 368.060, 385.016 363.097, 378.500 359.966 C 373.654 357.637, 371.010 357.515, 368.441 359.501 M 394.185 374.497 C 388.341 379.415, 390.170 381.203, 398.128 378.351 C 403.658 376.369, 406 377.011, 406 380.508 C 406 384.974, 402.493 390.222, 392.249 401.089 C 385.299 408.461, 381.749 413.091, 380.461 416.462 L 378.619 421.285 381.190 423.392 C 388.412 429.312, 389.095 439.927, 383 451.500 C 377.566 461.818, 377.885 466.979, 384.437 474.750 C 388.223 479.240, 388.883 478.842, 387.755 472.750 C 385.782 462.091, 387.365 444.622, 391.311 433.500 C 393.262 428, 395.567 419.900, 396.432 415.500 C 400.474 394.955, 413.563 379.685, 424.764 382.447 C 426.269 382.818, 428.850 383.344, 430.500 383.617 L 433.500 384.112 430.500 381.527 C 420.664 373.053, 400.534 369.156, 394.185 374.497 M 467.739 375.901 C 461.220 377.266, 462.380 377.999, 471.083 378.016 C 478.545 378.029, 486.462 379.301, 492.500 381.454 C 494.257 382.081, 494.217 381.917, 492.170 380.109 C 488.019 376.441, 475.479 374.281, 467.739 375.901 M 605.564 378.433 C 595.749 382.558, 593.140 387, 600.531 387 C 602.408 387, 607.350 387.749, 611.514 388.664 C 618.891 390.285, 619.154 390.276, 621.792 388.315 C 631.630 381.003, 618.489 373.002, 605.564 378.433 M 340.994 377.934 C 333.480 380.220, 329.295 384.202, 330.480 387.938 C 331.580 391.402, 335.810 391.399, 342.418 387.928 C 345.763 386.172, 351.329 383.281, 354.786 381.504 L 361.072 378.273 357.286 377.648 C 352.335 376.830, 344.152 376.973, 340.994 377.934 M 609.500 379.922 C 606.215 380.775, 598.995 383.718, 599.009 384.199 C 599.019 384.525, 608.751 385.207, 615.979 385.388 C 620.446 385.500, 622.684 383.235, 620.344 380.972 C 619.002 379.674, 612.777 379.072, 609.500 379.922 M 454.432 382.401 C 451.645 383.078, 448.270 384.441, 446.932 385.430 L 444.500 387.228 447 386.514 C 448.375 386.121, 455.125 385.574, 462 385.298 C 479.123 384.611, 491.143 387.886, 503.140 396.505 C 509.330 400.952, 509.440 399.438, 503.319 394.050 C 491.349 383.513, 470.404 378.522, 454.432 382.401 M 652.652 383.049 C 647.153 383.972, 645.376 385, 649.282 385 C 654.323 385, 667.566 390.017, 674.500 394.554 C 689.371 404.285, 696.666 406.334, 701 402 C 703.566 399.434, 703.518 398.066, 700.716 393.898 C 694.583 384.776, 672.314 379.749, 652.652 383.049 M 445.994 388.870 C 436.982 391.842, 433.251 396.702, 435.031 403.149 C 436.501 408.474, 441.493 415.620, 446.048 418.919 C 450.089 421.847, 450.195 422.074, 450.346 428.079 L 450.500 434.237 442.816 436.950 C 426.493 442.712, 424.245 446.705, 429.106 461.305 L 432.500 471.500 432.500 491 C 432.500 512.232, 432.721 513.241, 438.222 517.158 C 441.121 519.223, 443.019 519.527, 456.974 520.163 C 471.220 520.812, 473.613 521.209, 486 524.981 C 506.454 531.208, 512.927 531.457, 519.113 526.252 C 526.267 520.232, 528.063 506.925, 523.917 490.667 C 517.019 463.615, 497.662 445.534, 466.625 437.151 C 454.525 433.884, 453.868 433.352, 454.239 427.134 C 454.496 422.835, 454.584 422.736, 460 420.632 C 485.437 410.749, 490.313 398.193, 471.488 391.049 C 465.053 388.607, 450.550 387.368, 445.994 388.870 M 546 389.681 C 544.625 389.916, 539.900 391.321, 535.500 392.804 L 527.500 395.500 538 396.032 C 558.116 397.052, 564.717 404.177, 566.006 426.263 C 566.773 439.405, 567.162 440.522, 569.435 436.125 C 571.166 432.778, 575.885 428.009, 577.490 427.985 C 581.351 427.926, 580.999 426.076, 575.624 418.182 C 568.661 407.956, 567.039 403.116, 569.378 399.545 C 571.468 396.357, 572.956 396.361, 579.744 399.572 C 585.543 402.315, 588 402.206, 588 399.206 C 588 394.962, 581.326 391.592, 571 390.622 C 567.975 390.337, 566.288 390.339, 567.250 390.626 C 569.383 391.261, 569.589 394, 567.504 394 C 566.681 394, 563.419 393.133, 560.254 392.074 C 553.395 389.777, 549.383 389.104, 546 389.681 M 262.715 393.058 C 252.783 395.499, 241.696 400.695, 236.216 405.477 C 224.690 415.533, 225.306 430, 237.259 430 C 244.498 430, 249.596 425.927, 258.102 413.345 C 262.135 407.380, 268.087 399.913, 271.331 396.750 L 277.228 391 273.864 391.072 C 272.014 391.112, 266.997 392.006, 262.715 393.058 M 417 392.168 C 412.448 393.454, 410.832 395.002, 414.050 394.994 C 417.408 394.987, 423.797 393.137, 424.523 391.963 C 425.264 390.763, 421.625 390.863, 417 392.168 M 261.508 396.086 C 250.492 399.816, 242.865 404.083, 237.342 409.605 C 228.345 418.603, 230.294 429.368, 240.320 426.059 C 244.398 424.713, 249.874 419.019, 257.576 408.112 C 260.834 403.499, 265.477 398.212, 267.894 396.362 C 273.250 392.264, 272.847 392.246, 261.508 396.086 M 447.352 393.993 C 440.769 396.650, 447.382 399.292, 459.420 398.814 C 469.047 398.432, 470.386 396.786, 462.883 394.558 C 457.172 392.862, 450.736 392.628, 447.352 393.993 M 421.107 405.480 C 405.732 421.738, 405.688 443.071, 420.994 460 L 425.063 464.500 421.671 457.500 C 411.784 437.093, 412.193 423.422, 423.183 406.964 C 428.418 399.124, 427.643 398.570, 421.107 405.480 M 604 400.914 C 602.754 401.769, 603.178 402.491, 606.500 405.177 C 608.700 406.956, 612.750 410.802, 615.500 413.725 C 621.995 420.628, 625.689 422.985, 630.027 422.993 C 643.151 423.018, 639.602 407.549, 625.338 402.554 C 619.469 400.498, 606.103 399.471, 604 400.914 M 606 402.413 C 606 402.708, 607.274 403.607, 608.831 404.413 C 610.388 405.218, 614.700 408.630, 618.413 411.994 C 627.678 420.391, 632.918 421.985, 634.532 416.900 C 635.896 412.601, 629.673 407.127, 620.500 404.558 C 614.655 402.921, 606 401.640, 606 402.413 M 534.269 405.091 C 536.315 406.282, 546.878 410, 548.216 410 C 550.140 410, 547.559 407.703, 543.627 405.918 C 539.168 403.893, 530.967 403.169, 534.269 405.091 M 341.888 416.856 C 320.263 430.570, 321.738 469.756, 345.155 503.630 C 350.421 511.248, 362.835 524.724, 368.403 528.868 C 369.999 530.056, 371.056 531.277, 370.752 531.581 C 369.954 532.379, 361.164 527.731, 356.631 524.116 C 352.204 520.584, 351 520.826, 351 525.243 C 351 545.576, 389.990 557.009, 408.176 542.008 C 413.248 537.825, 414.970 532.526, 412.169 529.725 L 410.111 527.667 406.126 531.267 C 400.896 535.992, 392.674 538.347, 389.167 536.124 C 388.290 535.568, 389.441 535.098, 392.531 534.749 C 408.119 532.992, 412.202 512.640, 400.224 496.395 C 397.243 492.351, 383.948 480.886, 380.976 479.795 C 378.826 479.007, 374 466.733, 374 462.055 C 374 459.518, 375.426 455.231, 378.068 449.824 C 383.004 439.726, 383.237 432.782, 378.790 428.335 C 368.435 417.980, 347.072 441.115, 347.012 462.750 C 347.005 465.205, 346.528 467, 345.884 467 C 343.550 467, 345.301 448.113, 348.222 441.782 C 352.495 432.521, 363.758 422, 369.401 422 C 372.111 422, 372.144 420.038, 369.477 417.567 C 357.821 406.763, 337.551 424.169, 333.349 448.591 C 331.521 459.217, 331.350 459.515, 330.465 453.612 C 328.863 442.931, 334.290 427.942, 342.995 419.005 C 348.559 413.293, 348.300 412.790, 341.888 416.856 M 597.419 424.159 C 595.724 424.605, 593.541 425.850, 592.567 426.926 C 590.856 428.817, 590.911 428.983, 594.202 431.872 C 603.363 439.916, 608.170 458.785, 604.919 473.942 C 603.164 482.123, 602.124 480.719, 602.087 470.118 C 601.995 444.245, 590.818 426.678, 578.920 433.706 C 573.388 436.974, 572.505 440.568, 572.458 460 C 572.431 470.905, 571.946 479.102, 571.169 481.750 C 569.816 486.365, 568 487.439, 568 483.624 C 568 481.643, 566.030 483.179, 556.132 492.874 C 542.806 505.929, 541 509.252, 541 520.710 C 541 534.327, 547.025 541.813, 561.500 546.179 L 567.500 547.989 560.500 547.724 C 555.829 547.548, 552.081 546.758, 549.236 545.348 C 544.369 542.938, 543.576 543.528, 544.480 548.884 C 546.507 560.882, 563.539 567.338, 583.500 563.675 C 603.650 559.977, 615 551.284, 615 539.550 C 615 534.181, 614.338 534.018, 608.801 538.029 C 604.783 540.940, 591.444 545.777, 590.377 544.711 C 590.093 544.426, 592.822 542.736, 596.442 540.954 C 608.934 534.804, 624.038 518.101, 631.952 501.684 C 645.626 473.318, 643.066 442.722, 626.060 431.261 C 620.442 427.476, 618.419 428.165, 621.497 432.816 C 626.614 440.548, 630.401 456.605, 629.325 466.007 C 628.164 476.163, 627.798 478, 626.939 478 C 626.417 478, 626 473.625, 626 468.160 C 626 441.269, 612.336 420.233, 597.419 424.159 M 722.323 431.271 C 726.270 435.270, 731.697 441.156, 734.383 444.350 C 740.289 451.377, 744.780 453.877, 748.474 452.194 C 755.257 449.103, 747.853 437.006, 735.286 430.649 C 730.959 428.460, 718.001 424, 715.968 424 C 715.516 424, 718.376 427.272, 722.323 431.271 M 446.617 440.987 C 438.691 443.519, 438.638 443.616, 441.013 451.306 C 443.516 459.411, 444.042 459.728, 457.465 461.228 C 471.900 462.841, 472.891 462.409, 475.132 453.527 C 476.100 449.694, 476.803 446.527, 476.696 446.489 C 469.967 444.128, 453.882 439.015, 453.304 439.054 C 452.862 439.083, 449.853 439.953, 446.617 440.987 M 454.015 448.691 C 454.007 452.646, 454.450 456.160, 455 456.500 C 456.311 457.310, 456.311 445.029, 455 443 C 454.324 441.955, 454.026 443.679, 454.015 448.691 M 517.429 458.339 C 522.770 466.305, 527.650 477.943, 530.385 489.238 C 532.847 499.409, 534.516 500.766, 533.475 491.750 C 531.849 477.670, 527.085 465.992, 519.371 457.174 C 513.199 450.119, 512.284 450.668, 517.429 458.339 M 285.345 481.928 C 268.652 493.075, 255.990 511.201, 256.004 523.932 C 256.012 531.844, 262.527 536.847, 268.679 533.666 C 274.764 530.519, 277.983 524.334, 280.997 509.995 C 283.625 497.492, 285.251 492.458, 289.184 484.649 C 290.805 481.431, 291.942 478.609, 291.711 478.378 C 291.480 478.147, 288.615 479.745, 285.345 481.928 M 643.184 486.672 C 642.016 491.402, 639.697 498.187, 638.031 501.748 C 634.343 509.629, 634.269 510.372, 637.559 506.500 C 646.669 495.780, 650.233 487.391, 647.984 481.962 C 645.966 477.089, 645.417 477.628, 643.184 486.672 M 277.566 492.250 C 269.881 499.953, 266.523 504.168, 264.052 509.212 C 258.893 519.741, 258.609 529.362, 263.422 530.570 C 269.275 532.039, 273.573 525.614, 277.852 509 C 280.921 497.082, 283.345 490.816, 287.039 485.250 C 290.693 479.744, 288.211 481.578, 277.566 492.250 M 425.517 490.500 C 423.151 500.401, 423.114 508.405, 425.415 512.843 C 427.687 517.227, 428.213 516.462, 427.081 510.416 C 426.508 507.355, 426.531 502.177, 427.142 496.697 C 428.593 483.676, 427.836 480.792, 425.517 490.500 M 774 484.531 C 774 484.960, 775.164 486.838, 776.587 488.703 C 778.010 490.569, 780.953 496.011, 783.127 500.798 C 789.382 514.569, 790.188 515.958, 793.728 519.066 C 797.704 522.557, 801.651 522.849, 805.365 519.927 C 810.923 515.555, 807.805 504.662, 798.597 496.284 C 791.414 489.749, 774 481.428, 774 484.531 M 781.389 491.750 C 783.250 494.363, 786.837 500.628, 789.358 505.673 C 794.056 515.072, 796.747 518, 800.687 518 C 804.043 518, 805.303 514.839, 803.951 509.816 C 802.553 504.627, 793.016 494.815, 784.878 490.193 C 777.567 486.041, 777.379 486.125, 781.389 491.750 M 471.492 494.740 C 462.256 498.039, 455 505.991, 455 512.816 C 455 514.859, 455.467 515.001, 462.250 515.015 C 470.498 515.032, 477.866 516.583, 493.232 521.539 C 508.784 526.555, 513.940 526.048, 518.275 519.078 C 521.536 513.835, 521.495 500.629, 518.210 497.969 C 510.220 491.499, 493.010 494.672, 481.964 504.651 C 479.784 506.621, 478 507.896, 478 507.484 C 478 505.789, 482.355 499.867, 485.291 497.570 C 489.135 494.561, 488.847 494.212, 481.949 493.508 C 478.073 493.113, 475.054 493.469, 471.492 494.740 M 705 506.562 C 705 506.942, 706.598 511.246, 708.551 516.128 C 710.505 521.010, 713.405 531.072, 714.997 538.487 C 718.329 554.004, 719.896 557.824, 724.646 561.994 C 729.117 565.920, 733.179 565.975, 736.991 562.163 C 745.562 553.592, 738.645 534.255, 721.134 517.828 C 714.021 511.156, 705 504.857, 705 506.562 M 709.622 513.085 C 712.816 518.498, 715.676 526.780, 718.932 540.049 C 722.939 556.379, 726.689 562.048, 732.515 560.585 C 735.583 559.816, 737.401 554.364, 736.470 548.729 C 734.757 538.369, 721.741 519.794, 710.510 511.682 L 707.521 509.523 709.622 513.085 M 198.406 530.941 C 181.038 540.902, 170.509 559.535, 178.635 565.927 C 181.782 568.403, 182.273 568.439, 186.383 566.489 C 190.255 564.651, 194.032 559.038, 196.992 550.721 C 198.210 547.300, 200.512 541.125, 202.108 537 C 206.200 526.427, 206.220 526.459, 198.406 530.941 M 457.678 532.750 C 459.414 537.688, 470.889 545.511, 473.121 543.279 C 473.666 542.734, 472.044 541.472, 469.068 540.128 C 466.339 538.894, 462.746 536.336, 461.084 534.443 C 457.722 530.613, 456.759 530.135, 457.678 532.750 M 196.340 535.843 C 184.053 545.600, 177.148 556.671, 180.011 562.021 C 182.288 566.275, 188.212 562.221, 191.965 553.841 C 193.281 550.903, 196.048 544.788, 198.114 540.250 C 200.180 535.712, 201.715 532, 201.525 532 C 201.335 532, 199.002 533.729, 196.340 535.843 M 417.994 535.220 C 417.990 535.924, 417.307 537.804, 416.476 539.399 C 414.469 543.247, 415.029 543.536, 420.472 541.458 C 426.468 539.168, 426.552 538.862, 421.919 536.196 C 419.240 534.654, 417.998 534.345, 417.994 535.220 M 472 536.927 C 472 539.247, 482.064 545, 486.122 545 C 489.051 545, 488.327 543.231, 485.108 542.524 C 483.517 542.174, 480.127 540.564, 477.573 538.944 C 472.504 535.729, 472 535.547, 472 536.927 M 627.250 539.304 C 622.565 541.295, 620 542.949, 620 543.981 C 620 544.859, 619.121 547.302, 618.046 549.410 L 616.092 553.242 618.296 556.467 C 622.673 562.873, 629.479 570.561, 633.373 573.500 C 638.076 577.048, 639.963 580.516, 635.656 577.694 C 632.647 575.723, 632.420 576.326, 634.367 581.128 C 638.053 590.221, 637.051 593.129, 633.044 584.966 C 630.920 580.639, 627.409 575.827, 615 560.233 L 612.500 557.091 606.250 560.936 C 594.329 568.270, 573.535 571.804, 561.101 568.609 C 557.581 567.705, 554.459 567.208, 554.163 567.504 C 553.302 568.365, 555.997 585.638, 558.600 595.948 C 566.155 625.871, 584.597 643, 609.258 643 C 623.993 643, 633.609 639.377, 643.232 630.197 C 665.362 609.089, 664.147 567.297, 640.650 541.355 C 637.982 538.410, 635.507 536.050, 635.150 536.112 C 634.792 536.173, 631.237 537.610, 627.250 539.304 M 424 544.964 C 418.344 547.351, 417.537 548.019, 417.781 550.104 C 418.795 558.743, 419.115 576, 418.261 576 C 417.719 576, 416.973 573.427, 416.603 570.282 C 415.820 563.615, 412.209 548.865, 411.074 547.697 C 410.645 547.255, 408.765 547.780, 406.897 548.863 C 395.227 555.626, 379.097 555.632, 364.112 548.879 C 360.598 547.295, 357.605 546, 357.461 546 C 356.872 546, 354.956 556.055, 353.983 564.250 C 349.657 600.680, 369.918 622.859, 403.220 618.149 C 418.931 615.927, 418.396 616.329, 422.607 603.602 C 428.142 586.877, 434.796 574.517, 443.133 565.471 C 449.326 558.753, 449.533 560.037, 443.816 569.715 C 436.384 582.298, 431.694 592.852, 427.469 606.500 C 422.596 622.245, 420.898 625.402, 410.135 638.735 C 390.036 663.635, 381.808 685.380, 381.599 714.154 C 381.545 721.664, 381.185 727.299, 380.800 726.676 C 377.264 720.957, 377.332 692.067, 380.911 679 C 382.041 674.875, 382.973 671.388, 382.983 671.250 C 383.043 670.369, 375.152 671.299, 368.817 672.919 C 351.700 677.297, 338.129 685.876, 322.469 702.218 C 316.711 708.227, 312 713.733, 312 714.453 C 312 715.173, 313.182 718.853, 314.626 722.631 C 318.518 732.813, 321.850 745.404, 322.493 752.356 C 323.035 758.216, 322.807 757.786, 317.560 743.047 C 303.308 703.008, 289.064 684.766, 276 689.821 C 263.131 694.800, 267.415 716.977, 281.250 716.996 C 284.685 717.001, 284.854 718.748, 281.500 719.589 C 276.190 720.922, 269.059 716.996, 266.040 711.079 C 261.654 702.481, 264.158 693.365, 272.374 688.023 L 276.185 685.545 272.885 684.690 C 258.461 680.953, 247.273 695.043, 253.732 708.811 C 255.738 713.085, 261.514 717, 265.815 717 C 268.059 717, 269.024 717.413, 268.736 718.250 C 268.060 720.213, 258.987 719.736, 255.709 717.565 C 251.275 714.628, 247.769 707.745, 247.769 701.978 C 247.769 696.464, 246.596 696.329, 244.398 701.590 C 240.407 711.142, 245.763 722, 254.466 722 C 259.314 722, 258.722 724.383, 253.768 724.805 L 250.191 725.109 257.035 738.305 C 260.798 745.562, 266.091 756.675, 268.796 763 C 275.158 777.877, 279.362 786.156, 284.099 793.140 C 290.912 803.183, 300.964 809.935, 304.605 806.913 C 313.447 799.574, 310.745 775.969, 296.796 738.706 C 294.574 732.769, 292.963 727.704, 293.217 727.450 C 294.893 725.773, 308.134 761.227, 311.527 776.477 C 313.844 786.892, 313.189 797.111, 309.761 804.038 L 307.216 809.182 310.858 808.506 C 316.447 807.468, 321.553 804.151, 325.043 799.290 C 328.537 794.426, 329.798 794.272, 328.182 798.908 L 327.132 801.919 332.316 799.841 C 354.931 790.775, 375.483 785.951, 391.814 785.874 L 402.129 785.826 400.575 783.663 C 398.148 780.284, 392.585 770.790, 391.250 767.750 C 389.308 763.326, 391.166 764.632, 395.966 771.066 C 401.936 779.068, 420.045 794.365, 420.814 792.057 C 421.003 791.492, 419.148 786.186, 416.692 780.265 C 414.237 774.344, 410.310 764.775, 407.967 759 C 405.623 753.225, 402.647 745.969, 401.353 742.875 C 390.597 717.161, 424.747 699.934, 449.590 718.543 L 452.680 720.857 454.376 715.475 C 455.310 712.515, 457.564 707.876, 459.387 705.168 C 461.210 702.459, 462.984 698.829, 463.330 697.101 C 465.636 685.572, 478.694 670.449, 492.527 663.286 C 522.090 647.981, 563.592 652.374, 592 673.817 C 595.575 676.516, 600.300 679.290, 602.500 679.983 C 607.905 681.685, 612.748 684.599, 617.250 688.858 C 622.456 693.783, 621.943 694.707, 616.367 690.450 C 611.208 686.512, 606.046 683.621, 605.374 684.292 C 605.132 684.534, 606.586 686.705, 608.605 689.116 C 612.811 694.138, 617 700.519, 617 701.903 C 617 702.421, 612.388 698.223, 606.750 692.573 C 589.711 675.498, 574.369 666.796, 553.552 662.400 C 508.711 652.931, 469.711 673.722, 468.171 707.915 C 467.787 716.431, 467.619 717.099, 466.409 714.915 C 465.673 713.587, 465.055 711.432, 465.035 710.128 C 464.974 706.020, 462.420 709.404, 459.464 717.509 L 456.766 724.908 460.362 729.110 C 471.218 741.792, 483.214 776.553, 482.928 794.500 C 482.844 799.772, 481.887 797.478, 478.962 785 C 473.971 763.703, 465.904 744.479, 457.428 733.679 C 453.178 728.264, 452.760 728, 448.436 728 C 431.287 728, 430.390 751.322, 447.376 755.562 C 449.736 756.151, 449.963 756.441, 448.639 757.182 C 447.655 757.733, 445.561 757.672, 443.263 757.025 C 425.932 752.146, 427.484 726, 445.105 726 C 449.135 726, 449.240 725.923, 447.633 724.147 C 444.658 720.859, 436.185 716.877, 432.043 716.820 C 414.940 716.584, 411.857 740.778, 427.990 748.626 C 431.941 750.548, 432.148 750.818, 430.152 751.452 C 426.861 752.496, 419.329 748.455, 416.445 744.096 C 411.557 736.710, 412.267 727.182, 418.209 720.414 C 420.761 717.508, 420.931 717.002, 419.354 717.016 C 416.617 717.041, 409.976 721.112, 407.730 724.142 C 401.698 732.278, 405.857 745.821, 414.946 747.639 C 419.318 748.514, 418.158 750.500, 413.276 750.500 C 408.476 750.500, 408.307 749.654, 416.296 765.615 C 423.552 780.109, 426.506 788.573, 430.566 806.500 C 435.738 829.337, 442.784 841.151, 452.719 843.644 C 468.433 847.588, 470.344 807.968, 456.489 765.500 C 455.840 763.511, 455.846 763.511, 457.444 765.476 C 462.893 772.176, 469.419 804.341, 468.809 821.491 C 468.417 832.493, 468.382 832.626, 463.171 843.391 C 462.439 844.902, 468.293 843.014, 472.141 840.497 C 474.143 839.187, 477.281 835.802, 479.113 832.975 C 482.571 827.639, 483.984 827.738, 482.086 833.183 C 481.484 834.911, 481.117 836.450, 481.271 836.605 C 481.425 836.759, 485.636 834.944, 490.629 832.571 C 508.443 824.105, 535.041 805.830, 547.624 793.410 C 551.681 789.405, 554.996 786.662, 554.990 787.314 C 554.973 789.475, 545.186 801.582, 537.904 808.452 C 529.919 815.984, 529.938 816.137, 539.069 817.934 C 584.311 826.835, 624.673 812.396, 646.503 779.500 C 662.445 755.479, 669.297 712.336, 664.470 666.374 C 663 652.379, 658.440 623.107, 657.599 622.265 C 657.375 622.042, 655.825 623.848, 654.153 626.278 C 639.220 647.981, 609.769 655.288, 585.131 643.402 C 576.270 639.127, 564.426 626.548, 559.330 616 C 553.135 603.179, 549.391 587.563, 548.749 571.863 C 548.453 564.636, 548.235 564.003, 544.698 560.087 L 540.959 555.949 534.229 557.224 C 523.585 559.242, 485.703 558.874, 474.536 556.645 C 463.297 554.401, 448.922 549.825, 439.215 545.402 C 435.109 543.531, 431.469 542.050, 431.125 542.110 C 430.781 542.171, 427.575 543.455, 424 544.964 M 540.540 586 C 540.789 592.681, 542.442 606.020, 544.485 617.833 C 546.418 629.016, 548.045 640.266, 548.100 642.833 C 548.293 651.887, 549.795 652.959, 549.900 644.118 C 549.965 638.695, 548.615 627.224, 546.077 611.618 C 543.920 598.353, 541.695 584.575, 541.133 581 C 540.196 575.038, 540.147 575.452, 540.540 586 M 469.969 583.689 C 463.773 589.425, 458.027 597.919, 458.009 601.367 C 458 603.238, 458.981 603.264, 463.254 601.505 C 464.766 600.883, 464.664 601.524, 462.514 606.141 C 459.962 611.625, 459.212 617, 461 617 C 461.550 617, 462 616.425, 462 615.722 C 462 613.723, 468.678 600.289, 471.531 596.548 C 474.766 592.307, 473.363 591.271, 468.899 594.606 C 467.030 596.002, 464.685 597.593, 463.689 598.140 C 460.390 599.953, 464.233 594.072, 471.416 586.314 C 475.037 582.403, 478 578.932, 478 578.601 C 478 576.968, 475.557 578.515, 469.969 583.689 M 284.460 594.939 C 267.700 612.217, 261.132 637.736, 272.699 640.639 C 279.238 642.280, 284.321 634.791, 286.036 620.990 C 286.616 616.320, 287.775 607.617, 288.611 601.649 C 289.447 595.681, 289.942 590.609, 289.712 590.378 C 289.481 590.147, 287.118 592.200, 284.460 594.939 M 729.612 596.250 C 729.920 598.038, 730.395 600.175, 730.666 601 C 730.937 601.825, 731.554 610.375, 732.037 620 C 732.979 638.763, 733.741 642.834, 737.298 648.118 C 743.777 657.742, 753.747 654.094, 754.773 641.724 C 755.858 628.642, 748.358 611.318, 735.737 597.750 C 730.482 592.101, 728.825 591.695, 729.612 596.250 M 282.535 600.750 C 271.374 615.967, 266.385 637, 273.936 637 C 278.871 637, 281.153 631.365, 283.977 612.212 C 285.008 605.220, 286.158 598.712, 286.533 597.750 C 287.738 594.654, 286.111 595.875, 282.535 600.750 M 732.577 600.500 C 733.397 603.250, 734.519 611.575, 735.070 619 C 736.868 643.266, 742.089 654.768, 748.427 648.430 C 755.429 641.428, 747.962 615.875, 733.983 599 L 731.084 595.500 732.577 600.500 M 470.453 610.459 C 468.427 615.308, 467.488 623.262, 468.688 625.407 C 469.378 626.640, 470.074 624.536, 471.339 617.400 C 473.205 606.869, 472.912 604.574, 470.453 610.459 M 529 664.922 C 529 665.430, 530.595 666.371, 532.544 667.015 C 534.493 667.658, 538.137 669.749, 540.642 671.660 C 545.743 675.554, 547.034 675.584, 544.010 671.740 C 540.797 667.655, 529 662.297, 529 664.922 M 556.776 672.859 C 561.316 677.329, 563.411 680.408, 565.614 685.847 C 568.506 692.991, 570.589 695.407, 569.409 690.250 C 567.371 681.347, 560.833 671.576, 554.800 668.415 C 550.264 666.039, 550.588 666.766, 556.776 672.859 M 510 668.863 C 511.375 669.344, 515.097 670.497, 518.271 671.426 C 521.445 672.355, 527.004 675.143, 530.624 677.622 C 538.246 682.840, 539.806 682.864, 534.062 677.675 C 528.002 672.200, 520.587 668.839, 513.563 668.383 C 509.266 668.104, 508.228 668.244, 510 668.863 M 502.595 674.846 C 502.308 675.311, 504.793 676.449, 508.118 677.373 C 511.443 678.298, 516.814 680.392, 520.053 682.027 C 526.769 685.417, 527.132 685.509, 526.410 683.627 C 524.970 679.873, 504.217 672.221, 502.595 674.846 M 499 682.844 C 499 683.307, 502.488 685.068, 506.750 686.755 C 511.012 688.442, 516.280 690.582, 518.454 691.510 C 522.133 693.080, 522.312 693.081, 521.021 691.526 C 517.836 687.688, 499 680.261, 499 682.844 M 501 691.891 C 501 692.635, 507.977 696, 509.520 696 C 511.193 696, 509.450 694.108, 506.466 692.685 C 502.504 690.796, 501 690.578, 501 691.891 M 574.103 695 C 574.143 696.925, 574.506 700.750, 574.910 703.500 C 575.581 708.069, 575.713 708.262, 576.434 705.737 C 577.308 702.678, 576.473 695.334, 574.986 693 C 574.280 691.891, 574.049 692.412, 574.103 695 M 567.580 711.318 C 564.712 730.438, 551.835 745.082, 533 750.641 L 528.500 751.969 534.126 751.663 C 544.980 751.071, 557.977 741.808, 564.330 730.136 C 567.673 723.992, 570.356 712.136, 569.143 708.859 C 568.411 706.878, 568.194 707.218, 567.580 711.318 M 742.500 711.966 C 738.650 712.986, 726.772 716.131, 716.104 718.953 C 705.437 721.776, 695.874 724.532, 694.854 725.078 C 693.099 726.017, 693 728.074, 693 763.492 L 693 800.914 702.750 803.918 C 717.393 808.430, 751.964 817.971, 756.021 818.619 C 758.902 819.080, 764.651 817.324, 786.042 809.449 C 800.594 804.092, 813.063 799.269, 813.750 798.732 C 814.439 798.194, 815 795.613, 815 792.985 C 815 787.349, 815.551 787, 824.456 787 C 830.195 787, 831.069 786.706, 834.393 783.662 C 842.255 776.461, 850.534 777.040, 846.142 784.485 C 843.149 789.557, 843.381 790.047, 848.456 789.351 C 852.448 788.804, 858.532 789.732, 863.535 791.652 C 864.834 792.150, 865.111 791.989, 864.541 791.066 C 863.323 789.095, 855.872 786.046, 852.215 786.022 C 849.193 786.002, 849.019 785.832, 850.050 783.907 C 852.668 779.014, 848.004 774.278, 842.205 775.941 C 838.136 777.108, 834.929 778.856, 832 781.504 C 830.039 783.277, 827.937 783.869, 822.250 784.249 L 815 784.733 815 755.932 C 815 740.091, 814.593 726.059, 814.095 724.751 C 813.255 722.540, 811.505 722.040, 789.345 717.684 C 766.520 713.197, 749.500 709.938, 749.500 710.055 C 749.500 710.085, 746.350 710.945, 742.500 711.966 M 740.500 716.522 C 736.100 717.835, 726.084 720.576, 718.243 722.614 C 710.402 724.652, 704.162 726.495, 704.376 726.709 C 704.590 726.924, 715.078 729.506, 727.683 732.447 C 740.288 735.389, 752.358 738.281, 754.506 738.874 C 758.053 739.854, 759.924 739.460, 774.955 734.574 C 784.055 731.617, 794.132 728.432, 797.350 727.498 C 800.567 726.564, 802.817 725.439, 802.350 724.999 C 801.507 724.205, 752.076 713.937, 749.724 714.068 C 749.051 714.105, 744.900 715.210, 740.500 716.522 M 473.044 720.290 C 472.963 723.590, 476.856 729.685, 481.999 734.309 C 488.268 739.945, 496.256 743.111, 505.500 743.623 L 512.500 744.011 504.771 742.033 C 491.185 738.556, 479.576 730.767, 474.955 722.030 C 473.765 719.780, 473.072 719.149, 473.044 720.290 M 573.353 722.750 C 571.751 727.548, 566.809 737.384, 564.436 740.494 C 560.884 745.151, 562.914 745, 567.041 740.301 C 570.704 736.129, 573.510 730.304, 574.532 724.750 C 575.234 720.939, 574.419 719.557, 573.353 722.750 M 751 721.692 C 736.318 723.251, 724.494 725.106, 723.612 725.988 C 722.879 726.721, 723.458 726.878, 725.531 726.508 C 727.164 726.217, 736.570 725.076, 746.433 723.973 C 756.297 722.869, 764.584 721.749, 764.850 721.483 C 765.374 720.960, 756.660 721.091, 751 721.692 M 759.200 728.511 C 737.607 730.798, 731.837 732.007, 742.583 731.992 C 753.586 731.977, 781.643 728.387, 782.577 726.875 C 782.875 726.394, 782.529 726.058, 781.809 726.128 C 781.089 726.198, 770.915 727.271, 759.200 728.511 M 796.294 731.987 C 788.481 734.646, 777.200 738.282, 771.226 740.067 L 760.364 743.313 760.283 778.656 C 760.239 798.095, 760.494 814.001, 760.851 814.003 C 761.208 814.005, 772.638 809.883, 786.250 804.844 L 811 795.682 811 761.341 C 811 742.453, 810.888 727.035, 810.750 727.077 C 810.612 727.119, 804.107 729.329, 796.294 731.987 M 471.053 731.825 C 476.875 742.318, 491.008 751.056, 505.594 753.182 C 510.140 753.845, 514.475 753.992, 515.568 753.522 C 517.457 752.709, 517.455 752.682, 515.500 752.304 C 514.400 752.092, 509.900 751.231, 505.500 750.392 C 493.373 748.079, 484.029 743.144, 475.666 734.635 C 468.943 727.796, 468.752 727.679, 471.053 731.825 M 697 763.903 L 697 797.805 703.750 799.849 C 716.534 803.721, 753.915 814, 755.207 813.999 C 756.240 813.998, 756.500 806.918, 756.500 778.788 L 756.500 743.578 753.500 742.798 C 747.578 741.258, 698.580 730, 697.799 730 C 697.359 730, 697 745.256, 697 763.903 M 800 736.968 C 798.625 737.427, 790.888 739.878, 782.807 742.415 C 774.726 744.952, 767.414 747.729, 766.557 748.586 C 764.412 750.731, 764.211 800.539, 766.337 803.446 C 767.807 805.456, 774.636 803.613, 796.766 795.233 L 806.031 791.724 805.766 764.125 C 805.477 734.184, 805.668 735.079, 800 736.968 M 703.070 739.870 C 701.930 742, 701.542 786.689, 702.628 790.742 C 703.287 793.199, 705.557 794.011, 729.500 800.349 C 746.930 804.963, 747.320 805.039, 748.840 804.099 C 750.507 803.068, 751.630 773.135, 750.542 758.688 C 749.666 747.036, 751.963 748.604, 727.644 743.062 C 702.517 737.336, 704.301 737.568, 703.070 739.870 M 794.500 741.835 L 786.500 744.500 786.472 749.500 C 786.370 767.723, 785.699 780.185, 785.038 776.103 C 784.647 773.685, 784.522 765.717, 784.760 758.396 L 785.193 745.084 781.853 746.042 C 780.016 746.569, 778.398 747, 778.257 747 C 778.115 747, 777.993 757.462, 777.985 770.250 C 777.976 783.533, 777.554 794.143, 777 795 C 776.359 795.991, 776.025 788.252, 776.015 772.183 C 776 748.346, 775.960 747.876, 774 748.433 C 772.900 748.745, 771.100 749.255, 770 749.567 C 768.066 750.116, 768 750.991, 768 775.926 L 768 801.718 782.250 796.749 C 790.087 794.016, 797.962 791.304, 799.750 790.722 L 803 789.664 803 764.332 C 803 750.399, 802.888 739.038, 802.750 739.085 C 802.612 739.132, 798.900 740.370, 794.500 741.835 M 706.013 746.868 L 706.026 752.500 717.912 755.409 C 730.685 758.534, 737.030 760.777, 733.500 760.917 C 731.697 760.989, 711.595 755.933, 707.622 754.408 C 706.197 753.862, 706.001 754.923, 706.008 763.143 L 706.015 772.500 724.758 777.899 C 735.066 780.868, 744.288 783.508, 745.250 783.765 C 746.744 784.165, 747 783.509, 747 779.289 L 747 774.346 740.250 773.131 C 731.439 771.545, 714.311 766.730, 715.762 766.246 C 716.383 766.039, 723.029 767.249, 730.530 768.935 C 748.435 772.959, 747 773.288, 747 765.148 L 747 758.297 740.250 756.597 C 729.540 753.900, 713.480 748.673, 714.678 748.274 C 715.279 748.074, 722.602 749.730, 730.953 751.955 C 739.304 754.180, 746.330 756, 746.568 756 C 746.806 756, 747 754.755, 747 753.233 C 747 750.524, 746.778 750.420, 736.250 748.191 C 730.337 746.939, 721.112 744.862, 715.750 743.575 L 706 741.235 706.013 746.868 M 478.088 747.949 C 480.063 750.995, 490.632 756.981, 494 756.962 C 495.880 756.951, 494.763 756.017, 489.500 753.197 C 485.650 751.135, 481.150 748.559, 479.500 747.474 L 476.500 745.500 478.088 747.949 M 794.819 755.698 C 794.643 761.031, 794.751 771.269, 795.057 778.448 C 795.657 792.491, 795.903 790.073, 796.608 763.250 C 796.889 752.558, 796.695 746, 796.099 746 C 795.570 746, 794.994 750.364, 794.819 755.698 M 552 754.048 C 550.075 755.074, 546.362 756.645, 543.750 757.537 C 538.687 759.268, 537.140 761.476, 541.750 760.391 C 548.648 758.768, 557.322 753.969, 555.893 752.566 C 555.677 752.354, 553.925 753.021, 552 754.048 M 706.193 777.689 L 706.500 781.258 719.309 784.988 C 726.355 787.040, 732.655 789.283, 733.309 789.972 C 734.752 791.490, 734.706 791.479, 718.843 786.592 C 712.431 784.616, 706.918 783, 706.593 783 C 706.267 783, 706 784.800, 706 787 C 706 790.035, 706.394 791, 707.634 791 C 708.533 791, 717.473 793.250, 727.500 796 C 737.527 798.750, 746.017 801, 746.366 801 C 746.714 801, 747 797.708, 747 793.685 L 747 786.371 734.250 782.670 C 727.237 780.635, 717.987 777.878, 713.693 776.545 L 705.886 774.120 706.193 777.689 M 798 780.500 C 798 783.324, 798.388 784.878, 799 784.500 C 799.550 784.160, 800 782.360, 800 780.500 C 800 778.640, 799.550 776.840, 799 776.500 C 798.388 776.122, 798 777.676, 798 780.500 M 175 789 C 175 789.550, 175.873 790, 176.941 790 C 178.009 790, 179.160 789.550, 179.500 789 C 179.851 788.433, 179.010 788, 177.559 788 C 176.152 788, 175 788.450, 175 789 M 250.750 822.080 C 247.616 823.905, 248.890 824.499, 256.005 824.532 C 259.852 824.549, 263 824.228, 263 823.817 C 263 821.348, 254.159 820.094, 250.750 822.080 M 635.741 829.498 C 622.626 832.822, 613.512 840.214, 616.204 845.344 C 619.767 852.137, 651.019 855.076, 661.809 849.633 C 663.289 848.886, 666.447 848.027, 668.828 847.723 C 673.842 847.082, 677.215 844.485, 676.794 841.590 C 676.439 839.149, 670.571 835, 667.475 835 C 666.248 835, 664.660 834.295, 663.945 833.434 C 660.011 828.694, 646.406 826.795, 635.741 829.498 M 287.750 830.162 C 283.644 831.662, 284.348 833.216, 288.750 832.370 C 294.710 831.226, 298.365 831.635, 302.920 833.959 C 307.023 836.053, 307.375 836.073, 313.397 834.563 C 321.197 832.607, 326.321 832.587, 332.591 834.489 C 335.291 835.308, 339.750 835.937, 342.500 835.887 L 347.500 835.796 344 834.792 C 342.075 834.240, 337.825 832.936, 334.556 831.894 C 327.365 829.603, 320.757 829.490, 312.904 831.525 C 307.317 832.973, 306.817 832.947, 303.049 831.025 C 298.797 828.856, 292.326 828.491, 287.750 830.162 M 636.459 833.395 C 625.924 835.954, 617.525 841.518, 619.892 844.370 C 624.062 849.395, 655.399 850.601, 660.082 845.918 C 662.411 843.589, 662.628 837.771, 660.466 835.609 C 656.942 832.085, 646.003 831.076, 636.459 833.395 M 665.623 841.134 C 664.823 845.137, 665.105 845.390, 669.453 844.575 C 674.540 843.620, 673.944 840.298, 668.380 838.596 C 666.598 838.051, 666.159 838.455, 665.623 841.134 M 693.500 840.195 C 688.909 842.798, 688.897 845.641, 693.468 847.551 C 702.730 851.421, 714.427 846.003, 708.016 840.812 C 705.441 838.727, 696.741 838.357, 693.500 840.195 M 694.462 843.404 C 692.684 844.704, 692.874 844.858, 697.021 845.478 C 702.225 846.255, 708.420 844.510, 705.966 842.958 C 703.735 841.547, 696.625 841.823, 694.462 843.404 M 733.224 847.173 C 733.736 848.707, 737.985 848.996, 738.031 847.500 C 738.048 846.950, 736.874 846.353, 735.422 846.173 C 733.578 845.945, 732.915 846.246, 733.224 847.173 M 556 854.500 C 556 855.548, 557.056 856, 559.500 856 C 561.944 856, 563 855.548, 563 854.500 C 563 853.452, 561.944 853, 559.500 853 C 557.056 853, 556 853.452, 556 854.500 M 573 857.500 C 573 858.433, 573.944 859, 575.500 859 C 577.056 859, 578 858.433, 578 857.500 C 578 856.567, 577.056 856, 575.500 856 C 573.944 856, 573 856.567, 573 857.500" stroke="none" fill="#1a1a1a" fill-rule="evenodd"/>
</svg>