<svg xmlns="http://www.w3.org/2000/svg" width="1024" height="1024" viewBox="0 0 1024 1024" version="1.1">
	<path d="M 728.500 81.986 C 716.886 83.833, 706.466 94.261, 703.587 106.919 C 701.712 115.162, 702.295 119.476, 708.532 143.500 C 712.821 160.019, 717.756 183.304, 719.980 197.515 C 720.581 201.357, 721.305 205.266, 721.588 206.201 C 721.962 207.436, 720.133 209.336, 714.920 213.127 C 697.777 225.596, 690.608 241.794, 678.023 296.500 C 659.584 376.648, 636.782 430.485, 597.193 487.338 C 523.096 593.749, 421.257 659.436, 272.209 696.956 C 215.238 711.298, 180.370 727.162, 147.500 753.697 C 120.675 775.352, 115 784.743, 115 807.480 C 115 843.215, 140.822 873.402, 194.907 900.894 C 244.877 926.295, 315.043 941.103, 373.500 938.587 C 557.722 930.655, 736.814 815.508, 836.838 640.683 C 890.088 547.611, 911.019 448.037, 897.414 352.500 C 888.294 288.461, 867.164 246.999, 825.493 211.377 L 819.500 206.254 819.648 189.377 C 819.729 180.095, 820.757 163.349, 821.933 152.165 C 826.051 112.987, 824.404 110.868, 776.235 93.368 C 746.670 82.626, 737.790 80.509, 728.500 81.986 M 729.571 108.571 C 727.417 110.726, 727.587 113.350, 730.542 123.548 C 735.446 140.469, 740.108 161.899, 746.608 197.387 L 748.419 207.275 759.959 206.662 C 766.307 206.325, 776.563 205.746, 782.750 205.375 L 794 204.700 794.021 186.600 C 794.032 176.645, 794.694 162.200, 795.491 154.500 C 797.446 135.617, 797.408 131.664, 795.250 129.792 C 793.466 128.246, 780.241 123.409, 749.031 112.888 C 728.625 106.010, 731.496 106.647, 729.571 108.571 M 775.127 229.744 L 768.755 230.102 769.339 233.301 C 769.660 235.060, 770.827 240.771, 771.933 245.991 C 778.176 275.470, 779.751 332.301, 775.245 365.500 C 751.439 540.895, 647.942 683.865, 486 765.061 C 390.026 813.182, 269.389 836.431, 190.520 822.007 C 178.967 819.894, 179.451 819.779, 178.641 824.842 C 177.824 829.950, 170.867 843.654, 167.048 847.679 L 164.032 850.857 167.766 853.770 C 187.086 868.839, 219.353 885.195, 248.084 894.483 C 326.219 919.742, 410.685 918.168, 498 889.824 C 651.471 840.006, 779.126 720.644, 842.719 567.500 C 882.806 470.961, 885.380 358.004, 849.202 283 C 839.526 262.939, 822.815 242.513, 808.013 232.654 L 802.527 229 792.013 229.193 C 786.231 229.299, 778.632 229.547, 775.127 229.744 M 737.500 232.497 C 736.950 232.684, 734.764 233.128, 732.641 233.484 C 722.717 235.149, 718.021 246.465, 704.610 301.036 C 690.236 359.524, 677.624 395.654, 657.500 436 C 606.262 538.723, 521.828 622.325, 418.542 672.606 C 380.063 691.338, 347.247 702.841, 276.454 722.410 C 256.010 728.062, 231.955 735.909, 220.742 740.584 C 203.386 747.820, 176.590 763.211, 165.634 772.236 L 162.767 774.597 167.979 781.549 C 170.845 785.372, 174.041 790.157, 175.081 792.182 C 177.485 796.864, 176.429 796.381, 191.014 799.474 C 264.496 815.058, 373.727 795.645, 469.724 749.941 C 604.738 685.661, 695.802 581.577, 736.956 444.500 C 759.511 369.373, 763.862 300.749, 749.873 240.750 L 747.833 232 743.167 232.079 C 740.600 232.122, 738.050 232.311, 737.500 232.497 M 142.849 798.500 C 140.396 804.133, 141.147 816.704, 144.342 823.500 L 147.163 829.500 149.601 824.750 C 154.394 815.410, 153.271 806.520, 146.223 798 L 144.155 795.500 142.849 798.500" stroke="none" fill="#1a1a1a" fill-rule="evenodd"/>
</svg>