<svg xmlns="http://www.w3.org/2000/svg" width="1024" height="1024" viewBox="0 0 1024 1024" version="1.1">
	<path d="M 721.497 84.349 C 704.585 92.225, 699.493 108.428, 706.045 133.525 C 712.021 156.417, 713.961 164.993, 717.507 184.192 C 719.469 194.811, 721.286 204.492, 721.544 205.704 C 721.927 207.497, 720.694 208.891, 714.908 213.204 C 698.383 225.519, 690.088 243.313, 680.039 288 C 671.763 324.800, 667.494 340.527, 659.139 365 C 614.565 495.563, 518.936 599.859, 391.393 657.012 C 356.720 672.549, 325.643 683.003, 274 696.502 C 203.568 714.913, 166.231 733.680, 130.389 768.687 C 103.611 794.841, 111.484 839.725, 148.270 870.628 C 206.424 919.481, 304.919 945.524, 399 936.923 C 603.227 918.251, 800.888 761.144, 874.958 558.616 C 922.139 429.608, 904.851 281.803, 835.399 220.415 C 831.096 216.612, 825.576 211.576, 823.131 209.225 L 818.687 204.950 819.328 187.725 C 819.680 178.251, 820.858 162.108, 821.945 151.852 C 826.061 113.017, 824.406 110.936, 775.161 93.036 C 742.198 81.055, 732.087 79.418, 721.497 84.349" stroke="none" fill="#ffffff" fill-rule="evenodd"/>
</svg>