<svg xmlns="http://www.w3.org/2000/svg" width="1024" height="1024" viewBox="0 0 1024 1024" version="1.1">
	<path d="M 465.500 43.582 C 351.484 55.374, 255.339 99.354, 177.110 175.500 C 61.993 287.551, 10.347 443.819, 36.552 600.794 C 67.576 786.635, 219.275 942.035, 408.618 981.936 C 466.951 994.229, 531.780 995.459, 592 985.416 C 707.451 966.161, 819.064 899.097, 890.601 806 C 980.779 688.641, 1010.041 546.872, 973.883 402.500 C 949.079 303.465, 894.704 218.558, 810.500 147.377 C 750.479 96.639, 663.591 58.476, 581 46.576 C 548.247 41.856, 495.425 40.487, 465.500 43.582 M 484 61.629 C 471.753 62.349, 471.571 62.738, 481.527 66.909 C 565.739 102.189, 644.582 183.304, 704.689 296.500 C 725.421 335.545, 746.801 385.043, 760.473 425.650 C 760.738 426.435, 768.439 424.896, 784.680 420.815 C 797.781 417.523, 817.897 412.633, 829.383 409.948 C 840.869 407.264, 850.478 404.856, 850.736 404.597 C 850.995 404.338, 850.048 400.611, 848.632 396.313 C 835.702 357.079, 814.639 271.580, 806.022 223.347 C 803.532 209.413, 797 165.040, 797 162.063 C 797 159.932, 757.913 132.573, 740.560 122.558 C 684.003 89.917, 625.301 70.760, 559.341 63.418 C 546.076 61.942, 498.071 60.802, 484 61.629 M 412.500 71.200 C 410.300 71.746, 402.425 73.698, 395 75.537 C 278.937 104.283, 178.447 179.386, 115.137 284.700 C 110.112 293.060, 106 300.101, 106 300.348 C 106 300.595, 113.313 297.102, 122.250 292.585 C 290.042 207.793, 474.262 242.393, 575.628 377.738 C 593.282 401.310, 613.128 439.281, 620.061 462.750 C 620.752 465.087, 621.747 467, 622.274 467 C 622.801 467, 632.967 463.894, 644.866 460.099 C 656.765 456.303, 683.375 448.375, 704 442.481 C 724.625 436.587, 741.634 431.646, 741.798 431.501 C 741.963 431.355, 739.104 423.196, 735.447 413.368 C 675.813 253.135, 587.834 139.583, 484.949 90.058 C 455.319 75.795, 425.378 68.002, 412.500 71.200 M 820.441 188 C 822.878 211.994, 833.450 264.294, 845.609 312.500 C 851.390 335.420, 869.405 399.456, 870.427 400.719 C 870.524 400.839, 880.738 398.959, 893.124 396.541 C 905.511 394.123, 922.989 390.998, 931.965 389.597 C 940.940 388.196, 948.492 386.842, 948.746 386.588 C 950.444 384.889, 934.079 343.031, 922.516 319.500 C 898.867 271.373, 869.980 230.981, 833.477 195 L 819.781 181.500 820.441 188 M 279.500 267.170 C 222.025 271.412, 158.510 292.266, 105.955 324.152 C 88.222 334.911, 88.147 334.997, 81.195 353 C 41.093 456.834, 38.962 568.590, 75.139 670.532 C 77.377 676.840, 79.615 682, 80.113 682 C 80.610 682, 88.326 678.580, 97.259 674.400 C 250.862 602.525, 435.346 528.943, 591.229 477.380 C 601.701 473.916, 602.895 473.286, 602.366 471.500 C 597.767 455.953, 582.423 423.389, 571.637 406.287 C 511.419 310.804, 400.965 258.205, 279.500 267.170 M 948.500 406.702 C 928.960 409.325, 879.041 418.686, 877.662 419.986 C 875.521 422.004, 921.863 553.809, 944.997 611.500 C 948.967 621.400, 952.666 630.625, 953.218 632 C 954.213 634.481, 954.231 634.470, 955.597 630.637 C 956.354 628.512, 958.313 620.187, 959.950 612.137 C 973.603 544.983, 972.187 483.207, 955.275 408.250 C 954.766 405.998, 954.389 405.912, 948.500 406.702 M 835.500 428.434 C 815.135 433.052, 767.994 444.673, 767.461 445.205 C 767.284 445.383, 769.140 452.046, 771.586 460.014 C 785.275 504.606, 798.111 567.076, 804.460 620 C 817.236 726.495, 810.046 816.871, 783.902 878.382 C 782.293 882.167, 781.544 884.823, 782.238 884.283 C 782.932 883.743, 786.650 880.879, 790.500 877.920 C 859.362 824.979, 911.472 755.233, 941.103 676.347 L 945.063 665.806 941.628 656.653 C 939.739 651.619, 933.839 636.475, 928.517 623 C 906.978 568.467, 879.972 493.654, 864.354 445.261 C 859.406 429.928, 857.083 424.036, 856 424.073 C 855.175 424.101, 845.950 426.064, 835.500 428.434 M 718.500 458.467 C 691.410 466.188, 670.578 472.448, 639.708 482.144 C 628.875 485.547, 627.002 486.431, 627.474 487.917 C 637.563 519.706, 641.130 578.055, 635.549 620 C 621.826 723.120, 559.504 819.312, 466 881.691 C 430.685 905.250, 382.301 927.152, 345 936.462 C 341.425 937.355, 337.825 938.334, 337 938.639 C 334.195 939.676, 366.364 951.149, 391.115 957.940 C 408.315 962.659, 437.953 967.872, 466.500 971.199 C 483.627 973.195, 539.867 972.877, 558 970.682 C 618.365 963.372, 666.134 949.388, 716.487 924.284 C 742.178 911.475, 744.056 910.172, 749.858 901.126 C 762.825 880.912, 773.122 855.438, 780.024 826.500 C 799.152 746.296, 792.605 619.096, 763.409 503.661 C 759.598 488.596, 748.914 451.582, 748.165 450.851 C 747.799 450.494, 734.450 453.921, 718.500 458.467 M 563 507.437 C 454.765 544.572, 356.472 582.384, 241 631.308 C 180.169 657.081, 88 699.307, 88 701.403 C 88 705.815, 109.878 745.817, 123.330 766 C 166.643 830.988, 233.136 890.344, 298.222 922.120 L 304.943 925.401 320.722 922.236 C 403.610 905.609, 487.545 854.360, 540.573 788 C 608.501 702.994, 632.988 605.170, 611.408 505.017 C 610.047 498.701, 608.611 493.227, 608.217 492.852 C 607.823 492.477, 587.475 499.040, 563 507.437" stroke="none" fill="#1a1a1a" fill-rule="evenodd"/>
</svg>