<svg xmlns="http://www.w3.org/2000/svg" width="1024" height="1024" viewBox="0 0 1024 1024" version="1.1">
	<path d="M 365.362 87.494 C 347.595 91.358, 338.609 99.901, 322.757 128 C 319.189 134.325, 309.612 151.200, 301.475 165.500 C 293.338 179.800, 280.299 202.975, 272.501 217 C 264.702 231.025, 253.812 250.600, 248.301 260.500 C 221.436 308.758, 193.024 361.760, 161.727 422 C 157.584 429.975, 149.144 446.175, 142.971 458 C 73.383 591.309, 52.601 636.064, 45.804 667.251 C 42.744 681.291, 42.499 716.783, 45.371 730 C 55.267 775.543, 81.085 810.799, 115.540 825.819 C 124.731 829.826, 140.536 834.222, 161 838.463 C 181.007 842.610, 238.392 854.862, 257 858.961 C 434.647 898.085, 632.294 936.848, 663.500 938.684 C 696.181 940.606, 706.588 927.612, 756.950 822 C 780.234 773.170, 790.033 751.975, 811.500 704 C 822.596 679.204, 832.901 656.327, 879.975 552 C 907.561 490.862, 941.366 419.203, 963.003 376 C 975.092 351.863, 977.003 346.751, 976.990 338.593 C 976.965 322.803, 966.972 313.838, 944.003 309.001 C 927.649 305.556, 927.851 305.854, 924.952 281 C 921.790 253.885, 922.521 243.067, 928.309 231.297 C 929.607 228.658, 934.070 219.750, 938.228 211.500 C 942.386 203.250, 946.472 194.185, 947.309 191.355 C 953.108 171.737, 947.692 157.784, 931.379 150.316 C 923.547 146.730, 894.070 141.643, 860.455 138.076 C 855.530 137.553, 845.650 136.433, 838.500 135.586 C 831.350 134.739, 813.125 132.693, 798 131.040 C 782.875 129.387, 750.925 125.755, 727 122.969 C 703.075 120.183, 679.450 117.455, 674.500 116.907 C 648.293 114.006, 609.761 109.580, 580 106.054 C 538.603 101.148, 519.626 99.022, 477.500 94.572 C 392.712 85.616, 378.207 84.700, 365.362 87.494 M 372.932 109.009 C 355.373 111.982, 350.460 118.848, 293.519 220 C 244.070 307.843, 217.593 356.743, 169.525 449 C 162.505 462.475, 154.619 477.550, 152.003 482.500 C 108.389 564.999, 71.755 641.100, 76.750 638.825 C 77.163 638.637, 80.720 636.815, 84.656 634.777 C 88.592 632.738, 94.808 630.317, 98.471 629.397 L 105.130 627.724 116.679 604.612 C 162.691 512.531, 244.459 359.836, 317.013 230.500 C 323.183 219.500, 332.746 202.400, 338.262 192.500 C 343.779 182.600, 353.802 164.825, 360.536 153 C 371.825 133.177, 385 109.121, 385 108.332 C 385 107.781, 377.801 108.184, 372.932 109.009 M 400.471 111.122 C 397.846 112.398, 397.766 112.531, 367.248 166 C 321.530 246.100, 275.411 328.641, 252.985 370.500 C 246.798 382.050, 238.354 397.800, 234.222 405.500 C 219.010 433.848, 187.570 492.795, 182.486 502.500 C 144.612 574.802, 119 624.640, 119 626.037 C 119 627.102, 118.267 626.987, 157 631.989 C 174.325 634.226, 195.925 637.181, 205 638.556 C 258.032 646.590, 288.617 651.500, 360.500 663.519 C 454.001 679.152, 469.148 681.724, 560 697.401 C 648.921 712.745, 651.371 712.526, 668.126 687.759 C 676.215 675.803, 693.145 645.595, 708.908 614.995 C 732.517 569.165, 924.902 183.572, 925.568 180.750 C 926.644 176.189, 925.288 173.185, 921.234 171.148 C 912.757 166.888, 909.640 166.459, 756.500 148.460 C 721.300 144.323, 678.100 139.169, 660.500 137.007 C 642.900 134.845, 624.450 132.615, 619.500 132.052 C 614.550 131.489, 598.800 129.666, 584.500 128 C 458.812 113.359, 405.859 108.502, 400.471 111.122 M 428.920 180.479 C 417.555 186.401, 404.898 204.677, 370.851 264.328 C 338.804 320.475, 334.384 332.482, 342.584 341.114 C 348.547 347.391, 352.159 348.343, 384 352.029 C 424.828 356.755, 478.929 364.882, 593.500 383.500 C 721.879 404.363, 721.508 404.342, 731.707 391.331 C 744.228 375.357, 789.188 288.990, 798.693 262.650 C 803.784 248.544, 802.610 239.246, 794.906 232.652 C 787.361 226.193, 772.327 223.124, 671.500 207.462 C 646.689 203.608, 581.424 194.234, 543 189.006 C 457.226 177.336, 437.747 175.880, 428.920 180.479 M 434.001 192.123 C 425.813 195.388, 404.356 228.464, 371.515 288.443 C 353.851 320.704, 350.834 328.248, 353.991 332.261 C 356.164 335.024, 358.986 335.587, 385.500 338.546 C 398.198 339.963, 418.319 342.607, 457.500 348.009 C 480.838 351.227, 597.981 369.296, 626 374 C 635.625 375.616, 653.175 378.524, 665 380.464 C 676.825 382.403, 691.769 384.914, 698.208 386.044 C 712.745 388.596, 716.105 387.962, 721.683 381.617 C 729.112 373.165, 746.385 341.920, 767.077 299.502 C 791.120 250.217, 791.813 245.802, 776.265 241 C 755.070 234.454, 634.365 215.381, 517 200.034 C 448.925 191.132, 438.886 190.175, 434.001 192.123 M 892 294.269 C 871.932 333.226, 858.398 359.550, 843.815 388 C 828.425 418.021, 817.763 438.667, 810.505 452.500 C 807.619 458, 789.393 494, 770.003 532.500 C 693.013 685.370, 683.951 701.413, 660.988 725.500 C 652.633 734.264, 648.986 739.814, 646.150 748.080 C 642.500 758.717, 639.147 784.002, 640.990 786.984 C 643.296 790.716, 691.165 717.945, 716.957 671.500 C 739.713 630.520, 746.063 623.825, 731.960 655.681 C 713.884 696.513, 679.598 753.675, 646.598 798 L 641.759 804.500 642.355 813.063 C 643.550 830.218, 652.969 860.209, 658.772 865.338 C 663.418 869.444, 663.083 869.986, 688.075 818 C 718.696 754.306, 735.057 719.584, 770.769 642.500 C 804.226 570.282, 817.440 541.933, 837.028 500.348 C 848.646 475.681, 862.496 446.275, 867.807 435 C 873.117 423.725, 884.603 400.100, 893.332 382.500 C 911.295 346.280, 912.587 343.308, 913.870 335.281 C 915.112 327.511, 911.675 308, 909.064 308 C 908.247 308, 903.622 316.131, 881.193 357 C 857.674 399.855, 855.866 403, 854.759 403 C 850.692 403, 866.742 368.513, 891.293 324.500 C 907.850 294.819, 907.226 296.416, 907.073 284.064 C 906.837 264.975, 907.227 264.711, 892 294.269 M 912.584 374.631 C 876.828 446.352, 837.531 528.087, 809.519 589 C 803.070 603.025, 791.810 627.325, 784.498 643 C 777.187 658.675, 769.859 674.425, 768.215 678 C 739.975 739.409, 672.896 876.690, 668.047 883 C 660.484 892.842, 652.227 892.680, 587.500 881.421 C 528.584 871.172, 375.478 841.017, 276 820.071 C 180.815 800.028, 156.605 794.738, 144.500 791.335 C 126.043 786.146, 125.573 786.184, 121.671 793.213 C 118.004 799.820, 118.339 801.141, 124.596 804.756 C 133.946 810.159, 192.556 824.970, 268 840.994 C 278.725 843.272, 292.675 846.245, 299 847.601 C 418.320 873.187, 520.564 893.320, 593 905.494 C 615.490 909.273, 629.446 911.356, 653.500 914.520 C 684.552 918.605, 687.997 914.629, 734.086 821.500 C 769.433 750.076, 784.980 716.957, 830.790 615.500 C 838.488 598.450, 852.320 567.850, 861.527 547.500 C 870.735 527.150, 881.992 502.175, 886.543 492 C 891.094 481.825, 899.402 463.825, 905.005 452 C 910.608 440.175, 917.354 425.775, 919.997 420 C 922.640 414.225, 931.173 396.225, 938.959 380 C 946.746 363.775, 953.833 348.314, 954.708 345.643 C 957.988 335.637, 953.685 330.226, 941.680 329.262 L 935.452 328.762 912.584 374.631 M 110.986 649.750 C 106.555 653.751, 102.982 664.927, 101.679 678.861 C 98.103 717.089, 112.384 758.819, 133.756 772.595 C 142.928 778.507, 143.823 778.740, 212 792.977 C 235.925 797.974, 268.325 804.742, 284 808.017 C 379.099 827.890, 510.186 853.781, 573 865.096 C 582.075 866.731, 601.200 870.274, 615.500 872.969 C 646.429 878.799, 650.316 879.215, 650.803 876.743 C 650.994 875.776, 648.647 869.926, 645.587 863.743 C 639.060 850.549, 633.816 835.026, 631.721 822.696 C 630.898 817.854, 629.972 813.639, 629.664 813.330 C 629.355 813.021, 617.266 811.067, 602.801 808.987 C 532.572 798.889, 473.780 787.689, 471.481 783.970 C 469.797 781.245, 516.477 786.986, 586 798.054 C 615.926 802.818, 624.305 803.835, 626.565 802.975 C 628.978 802.058, 629 801.931, 629 788.584 C 629 780.740, 628.585 774.862, 628.006 774.504 C 626.891 773.815, 604.562 769.613, 561.500 761.989 C 545.550 759.166, 525.300 755.566, 516.500 753.991 C 507.700 752.416, 493.750 749.936, 485.500 748.481 C 394.043 732.346, 392 731.940, 392 729.902 C 392 728.524, 405.130 728.825, 419.030 730.522 C 477.275 737.630, 564.925 751.379, 622 762.359 C 626.125 763.153, 629.526 763.734, 629.559 763.651 C 629.950 762.642, 634.032 738.043, 634.018 736.773 C 633.977 732.913, 629.137 731.564, 595.500 726.040 C 585.600 724.414, 564.900 720.838, 549.500 718.094 C 512.064 711.424, 373.380 687.790, 287.500 673.446 C 220.442 662.246, 121.780 647.010, 116.266 647.003 C 115.037 647.001, 112.661 648.237, 110.986 649.750 M 80.111 659.692 C 75.573 663.268, 69.495 672.862, 67.351 679.832 C 65.153 686.983, 64.883 711.912, 66.884 723 C 71.469 748.398, 83.043 772.527, 96.572 784.892 C 104.252 791.911, 108.197 791.470, 111.054 783.275 C 112.281 779.755, 111.494 777.831, 103.591 765.029 C 88.036 739.832, 80.334 698.278, 85.423 667 C 87.245 655.801, 86.445 654.702, 80.111 659.692 M 134 694.364 C 134 698.066, 186.573 708.958, 259.609 720.387 C 298.214 726.429, 304.332 726.964, 302.591 724.146 C 300.453 720.688, 187.476 699.467, 139.250 693.466 C 134.892 692.923, 134 693.076, 134 694.364 M 153.189 750.091 C 153.721 751.715, 169.467 756.247, 194.500 761.982 C 244.429 773.420, 380.652 797.980, 394.250 797.995 C 399.147 798, 400.364 796.800, 397.187 795.100 C 390.759 791.660, 320.518 777.179, 219.500 758.468 C 175.318 750.285, 152.300 747.377, 153.189 750.091" stroke="none" fill="#1a1a1a" fill-rule="evenodd"/>
</svg>