<svg xmlns="http://www.w3.org/2000/svg" width="1024" height="1024" viewBox="0 0 1024 1024" version="1.1">
	<path d="M 655.113 26.545 C 611.093 36.095, 557.654 83.938, 537.605 131.750 L 533.726 141 517.613 141.004 C 492.306 141.010, 476.444 144.370, 458.500 153.523 C 422.591 171.840, 400 209.470, 400 250.967 L 400 259.581 392.250 264.142 C 384.015 268.989, 306.626 316.551, 296.500 322.989 C 289.990 327.128, 226.748 365.898, 210.500 375.710 C 186.099 390.447, 148.494 413.354, 137.500 420.178 C 130.900 424.275, 121.351 430.205, 116.280 433.356 C 86.872 451.627, 76.505 464.018, 73.896 484.013 C 73.127 489.911, 72.973 513.242, 73.391 560.500 C 73.722 597.900, 74.067 674.400, 74.157 730.500 C 74.416 891.620, 75.086 925.208, 78.284 937.224 C 85.317 963.653, 100.118 978.844, 123.500 983.632 C 133.521 985.684, 155.836 985.030, 176.500 982.077 C 218.973 976.009, 297.344 964.527, 323 960.613 C 386.966 950.855, 485.157 935.715, 505.500 932.474 C 522.028 929.841, 582.816 920.566, 629.500 913.555 C 646 911.077, 677.500 906.319, 699.500 902.983 C 762.187 893.478, 773.144 892.256, 820.500 889.493 C 860.835 887.140, 877.633 884.837, 893.838 879.438 C 913.789 872.790, 930.745 857.214, 938.127 838.754 C 945.818 819.520, 946.206 814.060, 947.995 700 C 948.516 666.725, 949.188 624.875, 949.486 607 C 952.598 420.907, 952.636 424.562, 947.389 407.729 C 938.981 380.757, 915.134 353.940, 868.555 319.075 C 800.409 268.066, 715.492 224.187, 655.551 209.010 L 640.500 205.199 636 197.012 C 624.011 175.198, 605.778 161.907, 576.662 153.757 C 570.263 151.966, 565.022 150.026, 565.014 149.446 C 564.988 147.476, 577.810 125.930, 583.611 118.198 C 605.987 88.369, 633.491 69.034, 667.733 59.060 C 683.288 54.529, 689.772 40.643, 680.999 30.651 C 676.106 25.079, 667.883 23.774, 655.113 26.545 M 498.330 174.481 C 456.040 182.154, 429.963 214.767, 432.346 257 C 435.238 308.236, 473.328 341.159, 526.866 338.697 C 579.095 336.295, 616.592 298.705, 616.342 249 C 616.170 214.762, 601.306 195.331, 567.052 184.563 C 562.405 183.102, 556.752 181.654, 554.490 181.344 L 550.376 180.780 548.188 188.057 C 546.985 192.059, 546.113 195.403, 546.250 195.487 C 546.388 195.571, 548.989 196.831, 552.030 198.286 C 559.611 201.913, 563.111 205.778, 563.703 211.174 C 565.477 227.363, 536.456 234.174, 512.914 223.093 C 495.735 215.007, 496.593 196.663, 514.393 191.488 L 519.776 189.923 521.376 183.712 C 522.256 180.295, 523.259 176.488, 523.605 175.250 C 524.226 173.028, 524.118 173.001, 514.867 173.090 C 509.715 173.140, 502.274 173.766, 498.330 174.481 M 646.707 254.250 C 645.736 279.624, 639.945 297.776, 626.292 318.250 C 589.767 373.019, 505.216 387.565, 447.866 348.945 C 430.933 337.542, 413.181 314.106, 407.920 296.209 C 407.178 293.683, 406.174 292.103, 405.482 292.369 C 404.018 292.930, 377.630 309.045, 339 332.967 C 299.592 357.371, 228.620 400.932, 168 437.922 C 140.775 454.535, 117.825 468.828, 117 469.686 C 113.209 473.626, 183.998 466.551, 309 450.496 C 327.701 448.094, 359.198 444.211, 495.500 427.506 C 736.754 397.937, 772.739 394.056, 806 394.019 C 840.178 393.982, 863.736 405.686, 875.201 428.399 C 882.537 442.931, 883.358 451.046, 882.599 501.500 C 882.260 524.050, 881.545 583.900, 881.011 634.500 C 879.243 802.096, 879.229 802.756, 877.096 813.695 C 873.675 831.235, 868.003 842.308, 857.719 851.520 L 852.500 856.195 858 855.485 C 889.198 851.458, 907.482 837.955, 913.495 814.500 C 916.363 803.311, 917.262 773.254, 920.072 594.500 C 922.691 427.899, 922.488 424.553, 908.365 400.716 C 881.671 355.661, 738.038 265.293, 656.804 242.446 C 652.021 241.101, 647.916 240, 647.680 240 C 647.445 240, 647.006 246.412, 646.707 254.250 M 764 427.984 C 745.191 430.002, 718.327 433.199, 592 448.449 C 551.124 453.384, 517.525 457.484, 460.500 464.496 C 440.150 466.998, 403.250 471.502, 378.500 474.503 C 353.750 477.505, 326.075 480.867, 317 481.975 C 278.036 486.730, 190.639 497.123, 169 499.573 C 151.267 501.581, 140.285 502.253, 124.250 502.313 L 103 502.391 103 545.534 C 103 569.263, 103.296 598.183, 103.658 609.801 L 104.316 630.924 109.908 632.212 C 113.631 633.070, 123.020 633.482, 138 633.446 C 164.111 633.382, 177.932 631.880, 303.500 615.454 C 318.350 613.512, 338.825 610.834, 349 609.503 C 380.474 605.387, 422.464 599.965, 446 596.976 C 458.375 595.405, 482.225 592.313, 499 590.104 C 515.775 587.896, 550.425 583.366, 576 580.037 C 601.575 576.709, 625.650 573.525, 629.500 572.962 C 633.350 572.399, 650.225 570.145, 667 567.954 C 683.775 565.762, 707.175 562.629, 719 560.991 C 730.825 559.353, 762.775 555.074, 790 551.482 C 817.225 547.889, 842.255 544.475, 845.622 543.895 L 851.745 542.839 852.470 502.670 C 853.354 453.724, 852.727 448.453, 844.965 439.613 C 834.303 427.469, 806.286 423.445, 764 427.984 M 846 577.684 C 839.418 578.368, 740.009 591.119, 703 596.026 C 686.775 598.177, 657.750 601.997, 638.500 604.515 C 619.250 607.033, 597.200 609.956, 589.500 611.010 C 572.419 613.349, 473.627 626.270, 421 633.047 C 399.825 635.774, 370.350 639.583, 355.500 641.512 C 148.949 668.338, 129.381 670.130, 106.231 664.341 L 103.961 663.774 104.608 695.137 C 104.964 712.387, 105.581 726.861, 105.979 727.302 C 107.406 728.880, 124.713 730.992, 136.253 730.996 C 148.761 731, 164.547 729.382, 215 722.924 C 232.325 720.706, 250.100 718.446, 254.500 717.902 C 258.900 717.358, 272.625 715.570, 285 713.928 C 297.375 712.286, 314.250 710.071, 322.500 709.005 C 330.750 707.939, 354.825 704.818, 376 702.068 C 397.175 699.318, 423.500 695.914, 434.500 694.504 C 445.500 693.093, 460.800 691.060, 468.500 689.984 C 476.200 688.908, 506.350 684.872, 535.500 681.013 C 564.650 677.155, 595.025 673.117, 603 672.041 C 610.975 670.964, 656.425 664.876, 704 658.512 C 847.714 639.289, 849.295 639.069, 850.207 638.177 C 851.361 637.049, 851.650 576.974, 850.500 577.159 C 849.950 577.248, 847.925 577.484, 846 577.684 M 848.853 671.481 C 848.588 671.745, 829.501 674.466, 806.436 677.526 C 783.371 680.587, 746.050 685.566, 723.500 688.591 C 677.385 694.777, 593.588 705.852, 542.500 712.512 C 523.800 714.950, 496.575 718.517, 482 720.439 C 458.593 723.526, 346.605 737.887, 282.500 746.023 C 269.850 747.628, 250.725 750.083, 240 751.478 C 208.427 755.585, 165.403 760.802, 152.692 762.066 C 141.298 763.199, 114.181 762.825, 107.352 761.441 L 104.203 760.803 104.663 833.151 C 105.241 924.232, 105.707 930.175, 113.152 941.416 C 121.280 953.686, 138.220 956.121, 176.500 950.520 C 208.932 945.775, 252.471 939.078, 316.500 928.986 C 351.150 923.525, 399.975 915.915, 425 912.075 C 469.857 905.192, 480.817 903.489, 551 892.494 C 570.525 889.436, 593.700 885.842, 602.500 884.507 C 619.511 881.928, 651.768 876.871, 713.500 867.108 C 734.400 863.803, 763.200 859.274, 777.500 857.045 C 806.854 852.470, 816.966 849.766, 825.547 844.201 C 842.352 833.300, 847.375 820.294, 848.408 785 C 849.265 755.714, 850.281 671, 849.775 671 C 849.532 671, 849.117 671.216, 848.853 671.481" stroke="none" fill="#1a1a1a" fill-rule="evenodd"/>
</svg>