<svg xmlns="http://www.w3.org/2000/svg" width="1024" height="1024" viewBox="0 0 1024 1024" version="1.1">
	<path d="M 655 26.553 C 610.992 35.990, 558.619 83.075, 537.434 132.250 L 533.665 141 517.463 141 C 449.297 141, 403.436 182.545, 400.319 247.120 L 399.710 259.740 396.605 261.546 C 393.861 263.141, 380.226 271.512, 311.500 313.799 C 254.426 348.916, 224.175 367.411, 179.500 394.500 C 88.631 449.601, 82.719 454.185, 75.768 474.928 L 73.566 481.500 73.900 635 C 74.084 719.425, 74.570 819.775, 74.981 858 L 75.727 927.500 78.299 937.224 C 85.353 963.892, 100.154 978.915, 124 983.612 C 142.025 987.163, 150.627 986.174, 320 961.072 C 327.425 959.972, 352.175 956.156, 375 952.592 C 397.825 949.028, 421.225 945.419, 427 944.573 C 432.775 943.727, 452.125 940.760, 470 937.980 C 535.608 927.776, 561.490 923.803, 607 916.950 C 632.575 913.099, 666.775 907.914, 683 905.427 C 756.206 894.210, 773.786 892.160, 819.500 889.510 C 895.689 885.094, 919.818 875.616, 935.366 844 C 945.629 823.131, 946.050 818.222, 947.934 697.500 C 948.492 661.750, 949.182 621.250, 949.467 607.500 C 952.058 482.737, 951.989 424.032, 949.240 414 C 943.284 392.262, 934.919 378.957, 914 357.944 C 854.586 298.265, 732.498 228.198, 653.596 208.497 L 640.500 205.227 636 197.054 C 623.995 175.252, 605.615 161.851, 576.596 153.740 C 562.960 149.928, 563.371 151.246, 571.418 137.144 C 592.107 100.885, 624.773 72.699, 658.500 62.004 C 677.353 56.025, 681.672 53.165, 684.103 45.051 C 688.452 30.534, 675.330 22.193, 655 26.553" stroke="none" fill="#ffffff" fill-rule="evenodd"/>
</svg>