<svg xmlns="http://www.w3.org/2000/svg" width="1024" height="1024" viewBox="0 0 1024 1024" version="1.1">
	<path d="M 437.500 37.664 C 360.837 40.643, 288.846 50.210, 227.903 65.515 C 133.622 89.192, 88.079 119.794, 88.012 159.513 C 87.994 170.161, 98.305 275.468, 100.146 283.428 C 101.412 288.905, 104.940 297.975, 108.662 305.320 C 111.405 310.733, 111.192 309.167, 117.007 366.500 C 119.238 388.500, 123.308 427.200, 126.051 452.500 C 128.794 477.800, 133.299 519.650, 136.061 545.500 C 138.824 571.350, 141.979 600.825, 143.072 611 C 149.130 667.400, 165.696 825.173, 166.591 835 C 170.593 878.928, 205.891 914.524, 270.500 939.785 C 347.606 969.933, 458.633 978.570, 555.500 961.957 C 650.068 945.737, 715.587 906.538, 728.421 858.500 C 729.897 852.974, 734.750 814.099, 741.607 752.867 L 744.366 728.234 753.433 727.018 C 783.073 723.042, 819.157 709.042, 846.161 691.039 C 892.917 659.869, 929.393 608.720, 949.969 545.474 C 969.433 485.648, 974.148 405.391, 961.337 352 C 945.680 286.751, 892.472 246.038, 822.813 246.006 L 810.126 246 810.581 242.750 C 810.831 240.963, 812.132 230.950, 813.470 220.500 C 814.809 210.050, 816.911 193.850, 818.141 184.500 C 823.577 143.172, 819.969 127.135, 800.922 107.969 C 765.566 72.393, 691.290 49.084, 586 40.523 C 548.818 37.499, 477.202 36.121, 437.500 37.664 M 424.500 66.081 C 327.249 70.815, 231.586 87.938, 170.238 111.591 C 113.975 133.283, 105.262 154.952, 144.640 175.251 C 243.134 226.026, 487.176 241.095, 657 206.889 C 732.431 191.695, 790 163.564, 790 141.898 C 790 117.742, 731.238 89.548, 652.811 76.074 C 598.388 66.725, 499.862 62.412, 424.500 66.081 M 787 189.603 C 766.472 204.292, 718.851 221.943, 671.500 232.414 C 575.525 253.636, 432.738 259.100, 317.243 245.969 C 229.939 236.044, 154.273 215.274, 121.652 192.280 C 118.986 190.400, 116.667 189.006, 116.498 189.181 C 116.038 189.662, 123.703 265.610, 124.897 272.402 C 126.965 284.162, 134.960 291.339, 159.500 303.466 C 255.110 350.714, 465.036 366.154, 628 337.924 C 710.543 323.625, 772.123 297.237, 778.984 273.225 C 780.832 266.758, 785.011 240.362, 788.043 216 C 789.652 203.075, 791.122 191.262, 791.311 189.750 C 791.725 186.425, 791.453 186.416, 787 189.603 M 805.737 272.617 C 805.431 273.111, 804.855 275.312, 804.455 277.508 C 803.441 283.077, 799.350 294.289, 795.519 302 C 793.743 305.575, 791.964 309.844, 791.566 311.486 C 790.533 315.752, 788.052 336.386, 788.516 336.850 C 788.730 337.064, 792.132 336.510, 796.075 335.619 C 830.569 327.830, 864.598 344.576, 879.052 376.454 C 896.490 414.914, 890.468 489.796, 865.386 546.365 C 844.166 594.226, 803.297 631.073, 761.497 640.031 C 758.199 640.738, 755.165 641.603, 754.756 641.953 C 754.346 642.303, 752.662 654.269, 751.012 668.544 C 749.362 682.820, 747.731 696.435, 747.385 698.799 C 746.783 702.926, 746.854 703.078, 749.129 702.589 C 750.433 702.308, 754.200 701.576, 757.500 700.961 C 846.524 684.377, 914.370 607.228, 935.988 498 C 944.131 456.853, 945.338 403.551, 938.875 370.500 C 928.440 317.141, 897.984 284.781, 848.500 274.477 C 839.542 272.612, 806.625 271.180, 805.737 272.617 M 139.017 325.667 C 139.027 327.225, 139.484 332.775, 140.034 338 C 140.583 343.225, 142.403 360.550, 144.078 376.500 C 145.753 392.450, 147.535 409.325, 148.039 414 C 152.916 459.255, 159.434 520.112, 161.053 535.500 C 162.152 545.950, 163.710 560.125, 164.516 567 C 165.321 573.875, 168.467 602.900, 171.506 631.500 C 174.545 660.100, 178.592 698.125, 180.499 716 C 182.405 733.875, 185.545 763.575, 187.475 782 C 193.589 840.358, 193.937 842.908, 196.680 849.457 C 213.958 890.716, 273.101 921.878, 361.731 936.424 C 412.524 944.759, 487.335 944.986, 542.196 936.971 C 624.999 924.874, 682.925 896.055, 700.921 858.003 C 705.761 847.769, 702.670 872.891, 735.492 577 C 744.552 495.325, 753.789 412.075, 756.019 392 C 758.250 371.925, 760.747 349.425, 761.569 342 C 762.391 334.575, 763.268 327.549, 763.517 326.386 C 763.919 324.511, 762.210 325.056, 748.397 331.203 C 694.222 355.313, 621.787 370.621, 534.077 376.498 C 503.566 378.542, 415.452 378.545, 382.500 376.504 C 272.067 369.661, 198.806 353.580, 139.750 323.219 C 139.338 323.007, 139.008 324.108, 139.017 325.667 M 794.709 362.422 C 789.874 363.702, 785.664 365.003, 785.354 365.313 C 785.044 365.623, 784.168 371.192, 783.407 377.688 C 781.984 389.851, 772.892 471.090, 771.062 488 C 770.496 493.225, 767.101 523.716, 763.517 555.758 C 759.933 587.800, 757 614.438, 757 614.954 C 757 615.470, 759.362 615.199, 762.250 614.351 C 816.652 598.384, 854.831 538.416, 862.975 456.144 C 869.941 385.771, 843.523 349.503, 794.709 362.422" stroke="none" fill="#1a1a1a" fill-rule="evenodd"/>
</svg>