<svg xmlns="http://www.w3.org/2000/svg" width="1024" height="1024" viewBox="0 0 1024 1024" version="1.1">
	<path d="M 572.500 61.054 C 482.073 75.251, 398.852 123.073, 334.759 197.669 C 327.514 206.101, 320.976 213, 320.231 213 C 319.486 213, 312.491 215.073, 304.688 217.607 C 217.369 245.960, 151.349 295.027, 102.334 368 C 70.829 414.904, 44.775 476.918, 39.880 516.654 C 36.969 540.287, 43.830 562.899, 59.527 581.401 C 63.352 585.910, 65.770 590.023, 67.620 595.166 C 70.963 604.464, 84.127 630.834, 91.550 643.104 C 136.329 717.121, 210.499 773.245, 298.967 800.055 L 314.434 804.743 316.061 811.121 C 331.564 871.881, 383.439 930.343, 434.500 944.599 C 467.535 953.823, 494.553 941.981, 501.441 915.260 C 506.632 895.125, 500.674 863.375, 485.100 828.176 C 480.500 817.780, 480.548 817.020, 485.809 816.953 C 487.839 816.928, 495.350 815.862, 502.500 814.585 L 515.500 812.264 524.500 820.905 C 580.452 874.624, 653.405 886.314, 681.116 846 C 696.790 823.197, 695.141 792.285, 676.331 756.302 C 673.399 750.693, 671 745.880, 671 745.607 C 671 745.333, 674.938 742.401, 679.750 739.090 C 713.933 715.571, 748.437 679.850, 766.338 649.448 L 769.175 644.628 773.338 651.458 C 804.166 702.045, 852.443 743.459, 898.500 758.828 C 913.994 763.998, 921.025 765.281, 934.500 765.397 C 968.804 765.691, 980.548 750.003, 974.474 712 C 968.528 674.802, 958.807 644.352, 926.386 561.378 L 909.928 519.257 916.064 505.878 C 951.341 428.964, 966.826 387.947, 978.876 339.500 C 991.742 287.772, 987.531 265.284, 963.310 256.373 C 953.129 252.628, 935.688 252.370, 921.932 255.763 C 870.777 268.379, 806.940 322.235, 774.118 380.466 L 768.736 390.015 762.240 380.257 C 743.885 352.685, 725.285 331.424, 692.818 300.901 L 688.136 296.500 691.048 289.378 C 699.439 268.849, 700.106 250.476, 693.114 232.468 C 689.411 222.932, 685.186 216.850, 671.681 201.615 C 649.272 176.336, 646.116 165.693, 650.903 131.543 C 656.832 89.250, 648.306 70.545, 619.437 62.507 C 612.355 60.536, 581.823 59.590, 572.500 61.054 M 579 81.019 C 515.094 87.605, 437.307 125.254, 381.088 176.810 C 370.681 186.354, 352.492 205.825, 353.264 206.597 C 353.567 206.901, 358.020 206.247, 363.158 205.144 C 382.146 201.069, 399.120 199.562, 426.407 199.530 L 452.314 199.500 458.407 193.132 C 479.472 171.117, 508.312 150.271, 539.826 134.283 C 556.977 125.582, 561.285 124.448, 564.345 127.829 C 568.645 132.580, 566.056 136.728, 555.816 141.492 C 536.996 150.248, 520.371 160.248, 502.438 173.599 C 492.187 181.231, 474.246 196.539, 471.177 200.272 C 469.657 202.121, 468.435 201.813, 490 205.025 C 497.425 206.131, 510.025 208.573, 518 210.452 L 532.500 213.869 538 209.922 C 551.018 200.580, 566.330 190.762, 577.477 184.610 C 591.579 176.827, 595.047 176.294, 597.732 181.500 C 599.983 185.864, 597.324 188.559, 583.500 195.919 C 574.309 200.813, 549.028 217.151, 549.011 218.208 C 549.005 218.597, 552.064 219.828, 555.810 220.943 C 586.893 230.200, 634.970 254.998, 663.173 276.320 C 668.134 280.071, 672.302 282.996, 672.434 282.820 C 673.627 281.234, 676.458 272.093, 677.597 266.147 C 681.026 248.248, 674.539 233.015, 654.453 211.810 C 642.666 199.366, 637.360 191.235, 633.533 179.751 C 628.493 164.626, 628.289 156.746, 632.167 127 C 635 105.268, 633.799 96.394, 627.058 89.261 C 620.565 82.389, 599.972 78.858, 579 81.019 M 405 220.583 C 381.611 222.587, 357.377 226.237, 355.579 228.026 C 355.018 228.584, 355.802 229.795, 357.579 231.119 C 363.311 235.388, 380.770 253.712, 388.926 264.019 C 468.906 365.085, 487.117 537.762, 431.794 670.500 C 414.030 713.121, 392.858 745.154, 361.860 776.307 C 353.210 785.001, 346.665 792.271, 347.316 792.463 C 348.639 792.854, 365.498 795.393, 377 796.934 C 433.043 804.443, 495.347 799.870, 547.132 784.447 C 585.680 772.966, 625.592 753.164, 666.500 725.223 C 723.944 685.988, 762.744 633.568, 779.444 572.632 C 800.615 495.385, 779.262 422.763, 713.394 348 C 650.433 276.536, 563.151 232.183, 465.500 222.031 C 454.975 220.937, 412.683 219.925, 405 220.583 M 305.500 238.392 C 279.406 247.391, 270.466 251.115, 251.500 260.883 C 181.077 297.154, 130.539 349.452, 91.460 426.500 C 60.845 486.858, 51.805 533.749, 66.204 557.500 C 73.528 569.583, 81.268 576.205, 97.500 584.281 C 132.536 601.711, 169.575 604.037, 198.395 590.618 C 205.853 587.146, 220.005 577.212, 219.933 575.500 C 219.910 574.950, 217.778 573.150, 215.196 571.500 C 209.281 567.721, 208.200 562.709, 212.395 558.514 C 216.025 554.884, 220.114 555.275, 229 560.102 C 242.320 567.338, 246.989 572.168, 246.996 578.717 C 247.003 584.557, 236.959 591.979, 234.479 587.966 C 234.115 587.377, 231.270 589.312, 227.857 592.472 C 199.186 619.016, 162.985 625.319, 116.500 611.861 C 112.650 610.746, 105.763 608.246, 101.196 606.304 C 96.629 604.363, 92.663 603.003, 92.384 603.283 C 92.104 603.563, 93.975 607.972, 96.541 613.081 C 136.011 691.672, 211.060 752.209, 305.178 781.375 C 313.055 783.816, 320.251 785.968, 321.169 786.157 C 325.032 786.952, 355.384 758.657, 369.330 741.260 C 424.469 672.476, 452.687 564.395, 442.500 461 C 434.231 377.071, 401.280 299.421, 354.859 254.469 C 346.021 245.911, 327.979 230.838, 326.856 231.075 C 326.660 231.116, 317.050 234.409, 305.500 238.392 M 499.455 275.455 C 494.520 280.389, 497.007 285.737, 505.759 289.011 C 543.611 303.173, 550.967 346.545, 520.753 377.423 C 510.169 388.240, 510.232 390.465, 521.318 397.637 C 552.132 417.570, 564.361 451.399, 549.895 476.683 C 546.799 482.095, 539.431 490.133, 530.750 497.569 C 523.812 503.512, 524.127 505.420, 533.616 514.895 C 550.711 531.966, 557.124 548.415, 554.191 567.669 C 551.892 582.760, 540.688 598.965, 527.269 606.611 C 513.612 614.391, 513.315 615.722, 522.401 628.420 C 546.766 662.468, 537.402 697.910, 499 716.994 C 488.018 722.452, 486.712 724.866, 491.923 730.077 C 495.763 733.917, 497.491 733.781, 507.272 728.865 C 549.600 707.593, 562.920 665.382, 539.510 626.700 C 536.019 620.931, 535.151 618, 536.934 618 C 538.989 618, 555.139 601.490, 558.758 595.690 C 575.935 568.155, 572.816 535.302, 550.660 510.414 L 545.820 504.977 552.813 496.938 C 571.334 475.644, 575.799 451.154, 565.695 426.289 C 561.041 414.835, 548.033 398.544, 537.118 390.500 C 531.966 386.703, 531.975 386.600, 538.167 378.914 C 554.726 358.357, 558.282 328.054, 546.816 305.208 C 540.388 292.399, 525.592 279.853, 511.282 275.076 C 503.385 272.440, 502.439 272.470, 499.455 275.455 M 928 274.425 C 887.229 283.470, 838.132 320.910, 803.626 369.270 C 797.219 378.250, 780 406.990, 780 408.705 C 780 409.448, 781.421 412.857, 783.157 416.279 C 784.894 419.700, 788.610 428.575, 791.416 436 C 794.221 443.425, 796.954 449.500, 797.489 449.500 C 798.024 449.500, 802.335 445, 807.067 439.500 C 829.372 413.581, 860.111 388.487, 884.710 376.117 C 892.162 372.370, 897.345 374.385, 896.805 380.819 C 896.518 384.237, 896.025 384.709, 888.294 388.974 C 858.705 405.294, 826.614 434.314, 805.495 463.849 L 801.670 469.198 803.372 478.349 C 805.515 489.872, 806.983 502.807, 806.992 510.250 C 806.997 513.413, 807.184 516, 807.410 516 C 808.888 516, 828.598 509.059, 839.159 504.819 C 853.235 499.169, 856.115 499.022, 857.805 503.869 C 859.459 508.615, 857.452 511.032, 848 515.675 C 843.325 517.972, 832.300 522.227, 823.500 525.132 C 814.700 528.036, 807.176 530.666, 806.781 530.976 C 806.385 531.285, 805.385 536.355, 804.559 542.241 C 803.733 548.127, 802.358 555.955, 801.505 559.636 L 799.952 566.330 802.628 570.415 C 816.897 592.202, 845.281 616.506, 873.940 631.479 C 889.096 639.396, 891.096 641.704, 887.269 646.854 C 884.138 651.066, 881.004 650.727, 869.683 644.948 C 846.638 633.184, 822.385 614.373, 804.642 594.500 C 800.223 589.550, 796.358 585.388, 796.054 585.251 C 795.749 585.114, 794.016 589.346, 792.202 594.655 C 790.387 599.963, 786.722 609.195, 784.056 615.169 L 779.209 626.031 785.644 636.795 C 823.334 699.842, 886.094 746.186, 934 746.345 C 952.302 746.405, 956.550 742.652, 956.417 726.539 C 956.181 698.035, 939.231 644.714, 896.016 536.538 L 888.840 518.576 892.843 509.538 C 895.044 504.567, 900.931 491.561, 905.923 480.635 C 932.816 421.785, 948.543 379.843, 958.866 339.440 C 972.625 285.587, 969.327 272.763, 941.807 273.102 C 937.238 273.159, 931.025 273.754, 928 274.425 M 622.229 343.669 C 621.530 343.951, 620.263 345.524, 619.414 347.167 C 617.264 351.324, 619.034 353.743, 628.217 359.198 C 647.177 370.462, 655.896 386.825, 654.754 408.996 C 653.937 424.851, 648.844 435.833, 636.752 447.814 C 628.507 455.983, 627.998 458.618, 633.746 463.390 C 653.766 480.010, 661.987 496.471, 660.728 517.415 C 659.624 535.769, 651.273 550.662, 635.375 562.626 C 625.232 570.261, 625.236 571.968, 635.430 582.396 C 660.575 608.119, 657.143 645.077, 627.413 668.714 C 618.166 676.066, 617.042 677.889, 619.469 681.594 C 623.548 687.819, 627.867 686.899, 639.361 677.360 C 669.858 652.046, 674.672 608.953, 650.535 577.342 L 647.008 572.723 653.890 565.479 C 679.627 538.384, 682.299 499.850, 660.541 469.542 C 658.155 466.219, 654.808 462.178, 653.102 460.563 C 649.188 456.857, 649.148 457.163, 654.504 449.887 C 671.093 427.352, 673.750 397.731, 661.337 373.700 C 653.132 357.814, 630.420 340.374, 622.229 343.669 M 249.037 372.125 C 235.926 374.087, 222.997 381.032, 213.564 391.180 C 182.734 424.347, 193.760 480.975, 234.336 497.867 C 277.416 515.802, 324.326 481.113, 321.740 433.235 C 319.682 395.129, 285.774 366.628, 249.037 372.125 M 249.196 389.610 C 235.750 392.353, 222.537 402.882, 216.320 415.807 C 213.099 422.503, 212.663 424.372, 212.322 432.912 L 211.939 442.500 214.450 436.181 C 220.250 421.583, 229.176 413.838, 240.967 413.172 C 250.436 412.637, 256.340 414.743, 262.255 420.765 C 281.714 440.575, 270.286 472.841, 241 480.779 L 237.500 481.727 241.482 483.474 C 247.525 486.125, 259.398 486.608, 267.811 484.546 C 293.691 478.204, 311.187 450.068, 304.610 425.368 C 298.025 400.640, 273.311 384.692, 249.196 389.610 M 640.500 763.705 C 633.350 768.322, 620.110 775.759, 611.077 780.231 L 594.655 788.364 599.550 792.796 C 605.137 797.854, 613.101 803.374, 620.774 807.505 C 626.521 810.599, 628.033 813.438, 626.142 817.588 C 623.998 822.293, 620.650 822.753, 613.693 819.298 C 605.574 815.267, 591.732 805.330, 585.691 799.196 L 580.883 794.312 566.691 799.117 C 558.886 801.760, 549.237 804.697, 545.250 805.644 C 541.263 806.591, 538 807.663, 538 808.027 C 538 810.110, 562.082 828.520, 573.656 835.284 C 608.391 855.584, 642.937 857.792, 661.427 840.893 C 677.405 826.290, 676.950 794.439, 660.347 765.280 C 653.934 754.017, 655.332 754.128, 640.500 763.705 M 337.614 817.128 C 350.981 854.185, 370.599 883.054, 396.021 903.078 C 432.914 932.138, 472.226 937.894, 481.527 915.597 C 488.514 898.845, 482.305 865.263, 465.608 829.500 L 460.939 819.500 429.461 819.435 C 398.108 819.371, 397.985 819.379, 398.596 821.435 C 404.629 841.739, 417.597 864.329, 433.207 881.728 C 437.351 886.346, 438.174 890.683, 435.429 893.429 C 433.232 895.625, 431.870 895.413, 427.400 892.175 C 414.178 882.596, 394.825 852.051, 386.422 827.500 C 384.917 823.100, 383.380 819.147, 383.008 818.716 C 382.636 818.284, 376.744 817.067, 369.916 816.010 C 363.087 814.953, 353.063 813.169, 347.640 812.044 C 333.910 809.198, 334.623 808.836, 337.614 817.128" stroke="none" fill="#1a1a1a" fill-rule="evenodd"/>
</svg>