<svg xmlns="http://www.w3.org/2000/svg" width="1024" height="1024" viewBox="0 0 1024 1024" version="1.1">
	<path d="M 569.260 61.536 C 483.564 74.567, 397.729 124.380, 334.834 197.581 C 327.548 206.061, 320.976 213, 320.231 213 C 317.825 213, 290.907 222.054, 276.500 227.709 C 178.997 265.982, 105.914 339.394, 61.677 443.500 C 32.773 511.522, 32.309 550.036, 60.008 582.009 C 63.391 585.915, 65.766 590.010, 67.594 595.097 C 100.359 686.223, 192.662 767.996, 298.967 800.075 L 314.434 804.743 316.124 811.440 C 317.054 815.123, 318.286 819.344, 318.862 820.819 C 319.439 822.293, 321.542 827.746, 323.536 832.936 C 349.480 900.453, 413.753 952.629, 464.034 946.990 C 507.306 942.138, 515.399 896.508, 485.108 828.176 C 480.500 817.781, 480.547 817.020, 485.809 816.953 C 487.839 816.928, 495.350 815.868, 502.500 814.598 L 515.500 812.290 525.589 821.895 C 540.418 836.013, 559.104 848.961, 576.228 856.986 C 663.090 897.690, 720.903 838.766, 675.921 755.376 C 673.215 750.358, 671 745.995, 671 745.681 C 671 745.367, 674.938 742.401, 679.750 739.090 C 713.653 715.764, 748.788 679.536, 765.467 650.707 C 768.970 644.653, 769.170 644.748, 776.126 655.783 C 819.999 725.379, 897.924 774.707, 947.975 764.565 C 990.620 755.924, 986.220 714.510, 926.384 561.374 L 909.924 519.248 917.847 501.874 C 981.045 363.279, 999.633 287.019, 975.860 263.864 C 936.813 225.831, 824.780 290.583, 774.118 380.466 L 768.736 390.015 762.240 380.257 C 745.749 355.485, 730.519 337.483, 705.685 313.404 L 688.199 296.451 690.743 290.476 C 704.856 257.314, 699.685 233.206, 671.681 201.615 C 649.294 176.361, 646.095 165.604, 650.905 131.758 C 656.914 89.471, 648.356 70.631, 619.437 62.488 C 611.229 60.178, 581.860 59.620, 569.260 61.536" stroke="none" fill="#ffffff" fill-rule="evenodd"/>
</svg>