<svg xmlns="http://www.w3.org/2000/svg" width="1024" height="1024" viewBox="0 0 1024 1024" version="1.1">
	<path d="M 631.531 99.043 C 613.561 101.872, 596.578 112.659, 592.994 123.519 L 591.928 126.747 576.714 127.419 C 501.158 130.755, 441.083 146.691, 389.360 177.119 C 325.856 214.475, 281.496 271.923, 249.985 357.612 C 233.341 402.874, 224.452 447.276, 218.470 515.038 L 217.805 522.577 211.678 526.538 C 187.869 541.934, 118.048 593.134, 87.153 617.854 C 45.638 651.071, 36.201 664.396, 37.208 688.380 C 37.787 702.176, 41.054 709.392, 51.252 719.392 C 65.485 733.350, 77.476 737.504, 103.500 737.491 C 131.602 737.478, 154.612 731.146, 180.348 716.344 L 185.196 713.556 196.327 717.343 C 216.713 724.279, 246.571 740.173, 279.500 761.619 C 288.850 767.708, 306.285 779.059, 318.245 786.843 C 367.493 818.898, 388.428 830.193, 420.500 842.018 C 448.805 852.453, 467.337 855.512, 502 855.468 C 543.682 855.415, 575.827 848.729, 614.500 832.070 C 682.889 802.610, 752.146 741.058, 802.584 664.909 L 810.924 652.317 829.278 651.654 C 866.534 650.308, 900.835 644.354, 933.561 633.553 C 950.020 628.120, 971.455 618.631, 973.832 615.725 C 975.361 613.856, 980.132 586.973, 982.996 564.090 C 1001.175 418.827, 954.810 284.289, 860.500 208.637 C 816.321 173.199, 758.101 147.122, 709.074 140.812 C 707.003 140.546, 706.487 139.696, 705.541 135 C 702.327 119.047, 688.858 106.902, 667.821 100.988 C 659.310 98.596, 640.705 97.599, 631.531 99.043 M 629.500 121.409 C 613.971 125.257, 609.760 132.776, 620.162 138.083 C 640.176 148.293, 674.854 150.120, 682.750 141.379 C 685.858 137.939, 685.577 135.644, 681.492 131.122 C 673.264 122.016, 646.917 117.093, 629.500 121.409 M 568 148.726 C 536.405 149.824, 494.322 157.165, 462.644 167.105 C 367.755 196.880, 304.864 261.251, 267.608 366.728 C 255.765 400.258, 247.436 435.080, 242.928 469.912 C 242.234 475.271, 238 514.431, 238 515.487 C 238 515.527, 250.713 515.568, 266.250 515.578 C 295.796 515.597, 307.788 516.411, 339.872 520.575 C 350.527 521.957, 359.355 522.956, 359.490 522.794 C 359.625 522.632, 360.939 515.975, 362.411 508 C 378.631 420.128, 400.154 348.802, 426.235 296.500 C 459.698 229.394, 509.346 181.004, 573 153.455 C 585.308 148.128, 585.304 148.125, 568 148.726 M 592.849 161.925 C 529.842 187.140, 482.464 227.558, 448.089 285.420 C 419.243 333.976, 393.569 412.510, 376.507 504.381 C 372.388 526.559, 372.426 526, 375.039 526 C 381.579 526, 430.761 537.610, 456 545.112 C 472.776 550.098, 515.838 564.455, 556 578.452 C 628.564 603.742, 681.065 617.406, 733.144 624.558 L 737.788 625.195 739.835 616.348 C 749.658 573.907, 756.873 529.215, 760.635 487.500 C 764.110 448.982, 763.013 377.975, 758.412 343.500 C 749.277 275.055, 722.936 215.258, 685.839 178.750 L 674.915 168 663.708 167.969 C 644.607 167.917, 628.339 164.894, 615.275 158.971 C 611.672 157.337, 608.448 156.014, 608.112 156.031 C 607.775 156.048, 600.907 158.700, 592.849 161.925 M 703.442 170.984 C 724.506 195.247, 738.919 218.506, 750.456 246.851 C 783.484 328, 788.625 448.298, 764.481 575 C 761.243 591.992, 754.501 622.530, 753.294 625.676 C 752.962 626.540, 753.604 627.009, 755.143 627.026 C 756.439 627.040, 762 627.512, 767.500 628.075 C 798.502 631.248, 857.126 628.067, 890.500 621.401 C 913.693 616.768, 950.907 605.788, 954.870 602.409 C 956.311 601.180, 961.890 565.711, 964.214 543 C 965.882 526.706, 965.867 473.080, 964.190 458.500 C 946.942 308.508, 864.643 203.561, 736 167.515 C 725.769 164.649, 707.665 161.177, 699.755 160.565 L 694.011 160.121 703.442 170.984 M 240.355 536.936 L 232.209 537.561 211.855 551.183 C 173.693 576.721, 102.616 629.760, 77.633 651.343 C 75.615 653.087, 75.608 653.149, 77.500 652.500 C 108.855 641.741, 154.848 642.896, 196.381 655.485 C 237.157 667.845, 264.380 682.649, 343.500 735.490 C 425.034 789.944, 452.338 804.940, 489 815.405 C 529.456 826.953, 559.079 826.436, 598.592 813.493 C 654.439 795.199, 721.115 741.102, 768.671 675.500 C 782.128 656.938, 785.553 651.063, 782.750 651.351 C 779.424 651.693, 755.871 649.680, 742.500 647.911 C 684.631 640.255, 642.910 629.653, 564 602.550 C 447.059 562.384, 415.354 553.214, 363.500 544.555 C 321.037 537.464, 272.533 534.463, 240.355 536.936 M 104.367 666.529 C 86.256 668.860, 66.770 675.049, 61.268 680.218 C 56.799 684.416, 57.125 692.112, 62.060 698.924 L 64.987 702.964 69.635 700.017 C 97.519 682.333, 147.122 679.595, 189.298 693.411 C 222.083 704.150, 252.920 720.734, 312.500 759.665 C 381.570 804.797, 422.085 824.232, 465.288 832.961 C 478.417 835.614, 480.945 835.198, 471.044 832.014 C 460.695 828.687, 425.459 810.934, 406.500 799.495 C 390.941 790.108, 369.552 775.965, 315 738.993 C 246.442 692.528, 202.963 672.423, 158.136 666.455 C 145.134 664.724, 118.102 664.761, 104.367 666.529 M 112.500 705.560 C 103.453 707.024, 84.252 712.453, 82.630 714.007 C 78.858 717.620, 107.962 719.027, 124.500 716.031 C 140.427 713.146, 158.950 707.111, 156.350 705.654 C 153.337 703.966, 122.762 703.901, 112.500 705.560" stroke="none" fill="#1a1a1a" fill-rule="evenodd"/>
</svg>