<svg xmlns="http://www.w3.org/2000/svg" width="1024" height="1024" viewBox="0 0 1024 1024" version="1.1">
	<path d="M 665 53.092 C 634.932 56.147, 596.696 67.843, 573.060 81.216 C 540.244 99.783, 509.161 127.529, 491.227 154.262 C 488.732 157.981, 486.562 160.896, 486.405 160.739 C 486.249 160.582, 484.121 154.614, 481.677 147.477 C 472.928 121.925, 458.331 87.469, 453.870 81.836 C 449.020 75.713, 443.988 73.621, 435.914 74.371 C 420.812 75.775, 401.782 84.396, 391.370 94.551 C 380.704 104.952, 381.114 109.219, 395.475 137.288 C 401.162 148.405, 408.997 165.036, 412.886 174.247 C 419.530 189.984, 432 224.699, 432 227.457 C 432 228.312, 427.478 227.305, 417.750 224.283 C 364.822 207.842, 312.785 211.873, 253.221 237.028 C 175.430 269.882, 112.673 345.229, 84.023 440.171 C 58.321 525.343, 63.080 622.102, 96.945 702.907 C 137.681 800.106, 212.554 877.832, 308 922.003 C 376.419 953.667, 473.450 977.790, 524 975.705 C 579.842 973.400, 649.984 946.622, 718.500 901.451 C 865.758 804.366, 944.473 642.737, 918.395 491 C 902.680 399.567, 848.974 314.901, 776.229 266.879 C 764.541 259.162, 763.999 260.170, 781 258.008 C 811.804 254.090, 851.025 241.909, 890.500 224 C 902.292 218.651, 930.966 206.478, 941 202.562 C 967.060 192.392, 969.593 190.519, 968.776 182.018 C 968.110 175.088, 965.354 172.443, 951.090 165.044 C 935.915 157.174, 914.988 143.657, 891.610 126.625 C 842.827 91.086, 813.772 75.857, 771.500 63.672 C 738.729 54.225, 695.809 49.962, 665 53.092 M 660 74.460 C 599.990 82.235, 548.817 112.172, 510.989 161.636 C 506.595 167.381, 503 172.267, 503 172.492 C 503 172.717, 506.712 170.595, 511.250 167.775 C 577.945 126.327, 671.468 114.035, 756 135.605 C 783.349 142.584, 822.807 158.197, 832.638 165.930 L 835.270 168 832.639 168 C 831.192 168, 814.369 164.863, 795.254 161.029 C 735.312 149.006, 714.197 146.168, 678.500 145.337 C 621.223 144.003, 569.634 156.732, 523.325 183.623 C 511.091 190.727, 509.568 192, 513.303 192 C 522.322 192, 566.421 202.983, 629.500 220.938 C 705.875 242.677, 752.051 245.712, 805.769 232.522 C 833.406 225.736, 848.837 220.063, 895.477 199.540 C 911.989 192.274, 928.083 185.305, 931.240 184.053 C 934.397 182.801, 936.771 181.439, 936.517 181.027 C 936.262 180.616, 931.655 177.674, 926.277 174.491 C 914.398 167.458, 898.867 156.886, 881.500 144.009 C 827.209 103.756, 783.019 83.577, 731.376 75.456 C 716.697 73.148, 674.658 72.562, 660 74.460 M 425.488 97.931 C 415.442 101.509, 406 107.580, 406 110.460 C 406 111.166, 408.272 115.862, 411.050 120.896 C 440.226 173.782, 459.381 236.585, 465.183 298.374 C 466.548 312.909, 467.123 314, 473.422 314 C 482.908 314, 483.726 313.133, 484.567 302.183 C 486.541 276.470, 481.927 228.271, 474.440 196.403 C 466.966 164.585, 443.954 101.452, 438.300 97.250 C 436.014 95.551, 431.495 95.792, 425.488 97.931 M 500.345 213.250 C 500.660 215.037, 501.486 220.897, 502.181 226.272 C 503.230 234.386, 503.704 235.931, 504.972 235.378 C 509.416 233.442, 535.628 224.780, 542.821 222.869 C 547.672 221.581, 550.592 220.364, 549.821 219.951 C 546.414 218.126, 506.784 210, 501.287 210 C 500.128 210, 499.907 210.762, 500.345 213.250 M 563.500 236.468 C 544.942 241.225, 528.488 246.683, 514.500 252.722 L 505.500 256.608 505 282.054 C 504.725 296.049, 504.588 307.663, 504.694 307.861 C 504.801 308.060, 508.836 307.662, 513.659 306.977 C 591.685 295.902, 676.987 353.368, 717.053 444 C 737.659 490.613, 745.890 533.454, 744.719 588 C 743.163 660.475, 721.616 727.509, 684.129 776.500 C 673.059 790.966, 653 808.997, 653 804.481 C 653 803.655, 659.021 792.522, 666.381 779.740 C 704.981 712.697, 721.182 665.645, 725.962 606.696 C 733.330 515.821, 697.150 416.952, 638.736 368.334 C 595.387 332.255, 553.035 321.020, 497.500 330.870 C 466.160 336.428, 448.063 334.270, 423.500 322.046 C 402.895 311.791, 393.298 300.565, 399.973 294.525 C 402.652 292.100, 405.475 292.788, 420.833 299.610 C 427.800 302.705, 436.356 306.321, 439.848 307.647 L 446.195 310.056 445.555 304.778 C 443.594 288.604, 440.660 269.294, 439.185 262.856 L 437.500 255.500 432 252.792 C 402.951 238.491, 363.411 232.089, 331.424 236.510 C 252.947 247.354, 190.186 288.059, 144.071 358.020 C 114.822 402.395, 97.987 450.138, 89.777 512 C 87.781 527.040, 88.142 583.335, 90.334 599 C 106.124 711.802, 166.434 807.949, 261.832 872.407 C 321.351 912.622, 413.080 944.655, 496.994 954.530 C 541.144 959.725, 591.208 947.788, 652.007 917.568 C 846.384 820.954, 945.652 619.596, 885.473 444 C 857.523 362.445, 795.016 291.265, 727 263.537 C 722.705 261.787, 714.903 260.059, 704 258.445 C 675.726 254.260, 648.301 248.092, 622 240.002 C 606.454 235.220, 591.862 231.999, 586 232.056 C 582.945 232.086, 572.942 234.047, 563.500 236.468" stroke="none" fill="#1a1a1a" fill-rule="evenodd"/>
</svg>