<svg xmlns="http://www.w3.org/2000/svg" width="1024" height="1024" viewBox="0 0 1024 1024" version="1.1">
	<path d="M 485.663 2.750 C 486.049 4.263, 486.395 9.325, 486.432 14 C 486.548 28.502, 482.083 38.087, 464.058 62.032 C 440.470 93.366, 439.796 110.777, 461.019 140.500 C 470.590 153.904, 471.217 155.262, 472.023 164.337 C 472.605 170.891, 473.139 172.593, 475.286 174.741 C 479.506 178.961, 486.569 177.697, 489.371 172.220 C 494.898 161.421, 491.036 147.560, 477.463 129.470 C 468.229 117.164, 466.631 113.359, 466.559 103.500 C 466.483 93.182, 469.893 86.067, 484.053 67 C 500.897 44.318, 506.717 29.492, 505.783 11.638 C 505.514 6.493, 504.976 1.770, 504.588 1.142 C 504.139 0.416, 500.434 0, 494.422 0 L 484.962 0 485.663 2.750 M 593.500 22.716 C 586.187 24.485, 585.291 30.738, 591.025 40 C 601.980 57.696, 600.708 67.963, 584.274 94.500 C 570.527 116.699, 569.434 132.095, 579.999 154.713 C 586.225 168.041, 591.231 171.042, 597.889 165.440 C 602.907 161.217, 602.906 157.639, 597.882 146.809 C 589.948 129.706, 590.937 121.621, 603.705 99.190 C 613.122 82.647, 615.778 76.137, 616.979 66.663 C 619.013 50.624, 612.122 30.990, 602.102 24.277 C 598.738 22.023, 597.382 21.777, 593.500 22.716 M 348.923 25.923 C 344.927 29.919, 345.212 32.167, 350.953 41.920 C 360.536 58.202, 360.379 73.140, 350.427 92 C 334.486 122.208, 332.075 134.136, 338.399 151.497 C 340.714 157.851, 353.835 179.293, 357.219 182.250 C 362.667 187.011, 373 181.854, 373 174.373 C 373 170.174, 371.167 166.416, 365.266 158.515 C 357.020 147.476, 355.541 143.678, 355.519 133.500 C 355.498 123.575, 356.292 121.286, 366.258 102.523 C 379.987 76.675, 381.570 56.295, 371.358 36.862 C 364.358 23.542, 355.583 19.263, 348.923 25.923 M 918.989 117.050 C 916.508 117.444, 892.208 125.048, 864.989 133.949 C 799.238 155.449, 795.186 156.736, 711 182.853 C 659.973 198.683, 585.992 220.394, 537.132 233.879 L 529.765 235.912 526.132 233.430 C 512.667 224.227, 491.183 225.089, 477.143 235.395 C 472.391 238.883, 471.840 239.049, 468.288 238.063 C 457.701 235.123, 442.592 238.015, 432.837 244.849 C 427.329 248.708, 427.199 248.741, 415.893 249.213 C 402.943 249.754, 395.162 252.269, 387.165 258.499 C 384.694 260.425, 382.408 262.028, 382.086 262.062 C 381.764 262.095, 376.550 262.208, 370.500 262.312 C 357.432 262.535, 350.980 265.106, 343.549 273.051 C 339.495 277.385, 335 287.667, 335 292.605 C 335 293.372, 334.866 294, 334.702 294 C 331.986 294, 309.626 299.536, 305.944 301.120 C 296.243 305.293, 290 314.901, 290 325.656 C 290 339.186, 296.111 350.357, 306.638 356.068 C 308.891 357.291, 309.831 358.835, 310.898 363.068 C 315.635 381.856, 329.911 390.215, 349.927 385.922 C 352.692 385.329, 355.751 385.023, 356.727 385.241 C 360.402 386.064, 351.391 388.681, 339 390.388 C 185.419 411.552, 89.575 458.297, 71.797 520.709 C 65.499 542.818, 73.184 628.766, 86.084 680.500 C 115.150 797.066, 175.764 880.132, 265.248 926.030 L 277.774 932.455 278.219 944.477 C 279.648 983.070, 300.910 1005.164, 351.308 1020.425 L 363.116 1024 506.697 1024 L 650.277 1024 660.607 1021.015 C 713.769 1005.654, 736 982.368, 736 942.042 L 736 932.999 741.058 930.250 C 796.857 899.917, 835.678 865.470, 868.297 817.347 C 909.232 756.954, 936.079 672.036, 940.487 589 C 940.823 582.675, 941.806 570.525, 942.672 562 C 944.716 541.893, 944.088 528.264, 940.623 517.500 C 921.605 458.422, 821.381 413.206, 665.882 393.551 C 634.873 389.631, 579.359 385.104, 561.215 385.016 C 558.415 385.002, 558.061 384.741, 558.821 383.250 C 559.312 382.287, 560.930 377, 562.417 371.500 C 566.521 356.318, 565.732 357.323, 574.179 356.531 C 578.206 356.154, 594.775 354.319, 611 352.453 C 627.225 350.587, 645 348.583, 650.500 347.999 C 656 347.416, 661.918 346.737, 663.652 346.490 C 665.385 346.244, 672.810 345.344, 680.152 344.491 C 695.007 342.764, 772.550 332.998, 815 327.506 C 840.395 324.221, 855.281 322.237, 917 313.912 C 964.395 307.519, 969.446 306.282, 976.358 299.369 C 983.835 291.892, 985.237 283.468, 982.076 265 C 979.306 248.813, 977.540 243.603, 973.193 238.791 C 965.062 229.792, 956.353 228.365, 934 232.370 C 885.105 241.130, 712.947 270.691, 647.500 281.565 C 626.050 285.129, 599.121 289.611, 587.658 291.524 C 566.246 295.099, 565 295.131, 565 292.119 C 565 290.636, 569.247 289.357, 591.750 284.061 C 606.462 280.599, 624.125 276.440, 631 274.818 C 685.157 262.041, 758.449 243.553, 824.500 226.006 C 847.050 220.016, 882.906 210.617, 904.179 205.119 C 925.453 199.622, 944.128 194.460, 945.679 193.648 C 952.099 190.286, 957.909 181.574, 959.500 172.922 C 960.289 168.629, 956.807 146.419, 953.828 136.747 C 949.228 121.816, 936.022 114.349, 918.989 117.050 M 915.500 140.935 C 865.204 157.107, 789.316 181.020, 772.500 185.996 C 769.200 186.972, 745.800 194.078, 720.500 201.787 C 676.417 215.218, 640.668 225.930, 603 236.994 C 578.313 244.245, 548.564 253.239, 548.154 253.575 C 547.963 253.732, 549.207 255.894, 550.918 258.382 C 552.630 260.869, 554.907 264.950, 555.979 267.452 C 557.052 269.953, 558.357 272, 558.880 272 C 560.613 272, 624.003 257.172, 654.861 249.548 C 695.630 239.475, 808.613 209.734, 861.500 195.152 C 877.450 190.755, 899.725 184.627, 911 181.535 C 942.235 172.968, 940.719 174.309, 937.890 157.751 C 934.517 138.015, 931.538 135.778, 915.500 140.935 M 491.248 247.257 C 489.012 248.563, 489.032 248.606, 494.088 253.536 C 515.519 274.432, 527.786 312.762, 524.075 347.235 C 522.633 360.622, 520.198 369.963, 513.902 386.252 C 507.033 404.026, 504.694 414.237, 504.682 426.500 C 504.664 444.028, 508.169 453.250, 523.204 475.235 C 535.333 492.971, 539.134 504.041, 539.188 521.790 C 539.220 532.312, 537.335 542.182, 533.895 549.500 C 532.712 552.017, 531.987 554.320, 532.284 554.617 C 533.055 555.388, 546.724 550.331, 551.666 547.446 C 573.352 534.786, 572.874 500.009, 550.586 468.970 C 531.231 442.016, 528.248 416.292, 540.079 378.371 C 546.498 357.796, 547.419 351.326, 547.462 326.500 C 547.496 306.831, 547.259 303.546, 545.223 295.500 C 539.999 274.855, 527.410 256.296, 514 249.472 C 507.530 246.179, 495.158 244.975, 491.248 247.257 M 937.500 252.650 C 870.139 265.054, 578.832 313, 570.833 313 C 568.451 313, 568.443 313.039, 568.472 324.396 L 568.500 335.793 571.500 335.364 C 573.150 335.128, 600.825 331.812, 633 327.996 C 769.093 311.853, 943.905 289.437, 953.679 286.875 C 962.257 284.627, 964.353 278.784, 961.549 264.944 C 959.537 255.014, 957.859 251.463, 954.790 250.641 C 952.004 249.894, 953.256 249.749, 937.500 252.650 M 447.164 256.619 L 443.829 258.076 450.164 264.798 C 467.705 283.409, 478.323 309.754, 479.685 338.045 C 480.661 358.308, 477.275 374.056, 467.010 397 C 457.757 417.683, 455.437 427.376, 456.286 441.811 C 457.143 456.392, 460.806 465.454, 472.510 481.957 C 486.275 501.366, 489.330 509.271, 489.339 525.500 C 489.352 546.566, 483.366 558.182, 459.967 582.500 C 440.074 603.175, 435.390 612.660, 437.500 628 C 438.300 633.818, 439.234 634.273, 441.094 629.750 C 446.534 616.520, 465.907 594.060, 484.500 579.429 C 511.186 558.429, 520 544.236, 520 522.265 C 520 508.719, 515.980 498.347, 503.339 479.277 C 482.328 447.581, 480.006 422.887, 494.522 385.500 C 508.007 350.770, 509.612 327.999, 500.512 300.500 C 493.823 280.289, 478.901 260.421, 467.572 256.643 C 461.591 254.649, 451.704 254.637, 447.164 256.619 M 405.046 268.577 C 403.146 269.401, 401.403 270.264, 401.172 270.494 C 400.942 270.725, 403.847 274.271, 407.628 278.374 C 423.505 295.605, 433.151 318.688, 434.675 343.099 C 435.846 361.849, 431.668 378.988, 420.512 401.200 C 401.573 438.910, 401.731 454.154, 421.357 482.346 C 435.325 502.412, 439.209 518.001, 434.654 535.725 C 431.167 549.293, 426.397 556.182, 405.301 578.117 C 390.142 593.878, 386.411 599.703, 385.051 609.724 C 382.935 625.314, 391.588 642.391, 404.496 648.101 C 408.202 649.740, 424.764 652.317, 425.849 651.423 C 426.041 651.265, 424.707 647.393, 422.884 642.818 C 419.789 635.046, 419.569 633.712, 419.543 622.500 C 419.498 602.856, 423.615 594.633, 444.067 573.511 C 462.660 554.310, 467.650 546.536, 470.070 532.999 C 472.427 519.809, 468.373 507.398, 456.084 490.187 C 433.279 458.244, 431.453 432.240, 449.174 391.755 C 459.172 368.913, 460.460 363.303, 460.482 342.500 C 460.504 321.963, 458.855 314.528, 450.450 297.257 C 444.185 284.385, 434.996 273.552, 426.832 269.415 C 421.187 266.554, 410.643 266.149, 405.046 268.577 M 365 281.073 C 361.786 281.698, 359.553 282.971, 357.187 285.528 C 352.051 291.079, 352.512 291.799, 364.211 296.497 C 380.471 303.026, 388.468 320.341, 388.461 349 C 388.457 366.394, 386.615 373.849, 378.156 390.703 C 367.525 411.885, 361.390 430.054, 360.371 443.375 C 359.301 457.349, 362.102 466.185, 372.900 482.910 C 390.774 510.593, 387.427 530.143, 359.918 558.754 C 340.279 579.179, 335.511 588.626, 335.562 607 C 335.602 621.472, 341.333 638.605, 347.445 642.529 C 349.451 643.816, 373.631 647.702, 374.463 646.870 C 374.694 646.640, 373.567 643.762, 371.960 640.475 C 364.083 624.369, 364.094 606.777, 371.991 590.859 C 376.446 581.880, 378.149 579.750, 393.062 564.500 C 408.169 549.051, 412.113 543.603, 415.036 534.145 C 419.557 519.515, 416.948 509.361, 403.558 489.473 C 387.013 464.901, 383.727 441.250, 393.334 415.885 C 394.664 412.373, 399.181 402.750, 403.371 394.500 C 413.645 374.276, 415.353 367.723, 415.366 348.500 C 415.374 334.962, 415.107 332.623, 412.622 324.500 C 403.636 295.129, 384.140 277.350, 365 281.073 M 334 314.578 C 313.485 318.510, 309.718 320.620, 309.821 328.121 C 309.938 336.574, 310.338 336.640, 336.080 332.490 C 368.380 327.283, 366.553 327.711, 366.178 325.447 C 365.568 321.760, 360.989 316.035, 357.039 314.020 C 352.133 311.517, 349.660 311.577, 334 314.578 M 347 349.850 L 330.500 352.500 330.189 355.720 C 329.771 360.043, 332.625 365.755, 336.101 367.552 C 338.628 368.859, 340.297 368.797, 351.653 366.975 C 367.720 364.398, 370 362.543, 370 352.050 L 370 347 366.750 347.100 C 364.962 347.156, 356.075 348.393, 347 349.850 M 554.290 409.436 C 546.402 415.222, 553.870 444.339, 567.364 460.412 L 570.508 464.156 582.504 460.519 C 635.994 444.302, 690.656 453.401, 729.746 485.030 L 735.644 489.803 744.072 487.188 C 755.605 483.610, 779.997 483.406, 792.263 486.786 C 835.071 498.581, 870.404 536.650, 879.007 580.250 C 879.631 583.413, 880.387 586, 880.686 586 C 882.030 586, 895.207 576.570, 902.175 570.621 C 927.272 549.196, 928.580 527.156, 906.287 501.320 C 876.812 467.162, 802.919 437.887, 703.526 420.989 C 650.727 412.012, 560.319 405.013, 554.290 409.436 M 337 411.604 C 331.775 412.360, 322.550 413.687, 316.500 414.553 C 217.390 428.747, 127.980 467.354, 101.082 507.570 C 85.229 531.272, 88.899 548.577, 114.114 569.017 C 123.832 576.895, 124.126 577.002, 126.073 573.364 C 128.665 568.519, 143.713 555.506, 160.090 543.945 C 170.655 536.487, 179.123 529.581, 184.401 524.120 C 213.624 493.884, 253.478 474.530, 296.051 469.898 C 306.310 468.782, 335.069 469.208, 340.385 470.554 L 343.270 471.285 342.385 466.392 C 341.898 463.702, 341.519 455.200, 341.541 447.500 C 341.583 433.438, 341.945 431.341, 347.718 411.750 C 348.001 410.788, 347.843 410.052, 347.367 410.116 C 346.890 410.179, 342.225 410.849, 337 411.604 M 619.500 472.618 C 605.811 474.718, 580.976 480.962, 581.004 482.297 C 581.007 482.409, 582.122 485.650, 583.483 489.500 C 584.844 493.350, 585.967 497.288, 585.979 498.250 C 586.005 500.396, 585.545 500.404, 594.833 498.088 C 614.740 493.124, 641.742 491.931, 656.838 495.348 C 680.347 500.670, 699.690 510.977, 716.557 527.170 L 724.742 535.028 734.621 533.895 C 748.210 532.337, 747.647 532.740, 743.816 527.316 C 726.406 502.664, 693.145 481.122, 663 474.976 C 652.812 472.899, 626.844 471.491, 619.500 472.618 M 301 489.056 C 237.949 495.368, 180.978 538.011, 166.398 589.806 C 164.958 594.925, 163.941 599.233, 164.139 599.380 C 165.113 600.102, 184.388 607, 185.432 607 C 186.094 607, 187.434 604.413, 188.412 601.250 C 207.924 538.112, 279.294 499.318, 353.266 511.642 C 358.653 512.539, 363.287 513.046, 363.564 512.769 C 364.361 511.972, 362.042 502.734, 360.420 500.248 C 354.938 491.843, 326.558 486.497, 301 489.056 M 756.250 502.801 C 750.764 503.118, 749.928 503.866, 752.590 506.075 C 755.241 508.274, 762.598 519.109, 765.997 525.820 C 767.758 529.295, 769.717 532.279, 770.350 532.450 C 770.982 532.620, 775.426 533.275, 780.224 533.905 C 804.531 537.095, 831.889 550.252, 851.410 568.139 C 859.072 575.159, 859.353 574.682, 854.126 563.529 C 835.948 524.738, 796.817 500.459, 756.250 502.801 M 619.552 513.036 C 606.730 514.495, 591.298 518.057, 588.338 520.241 C 587.699 520.713, 586.622 523.439, 585.945 526.300 C 585.269 529.160, 583.648 533.932, 582.344 536.904 C 581.041 539.876, 580.092 542.423, 580.237 542.564 C 580.382 542.705, 583.798 541.743, 587.828 540.427 C 605.914 534.522, 632.526 532.810, 650 536.428 C 658.985 538.288, 676.569 544.709, 681.333 547.869 C 684.149 549.737, 684.198 549.732, 689.833 547.019 C 692.950 545.519, 697.181 543.742, 699.236 543.072 C 704.462 541.368, 704.529 540.711, 699.901 536.529 C 680.461 518.967, 648.800 509.710, 619.552 513.036 M 314.500 528.616 C 266.730 533.660, 229.108 556.941, 211.263 592.500 C 208.148 598.707, 203.287 612.720, 204.061 613.262 C 204.930 613.872, 221.645 619, 222.762 619 C 223.391 619, 225.986 614.972, 228.529 610.048 C 242.314 583.359, 268.212 562.682, 298.194 554.430 C 309.119 551.423, 325.654 550.238, 334.229 551.849 L 339.958 552.924 344.886 547.712 C 351.047 541.195, 358.372 532.039, 357.846 531.513 C 356.080 529.746, 324.060 527.606, 314.500 528.616 M 739.265 551.961 C 717.510 554.461, 694.612 563.098, 677.164 575.385 L 670.941 579.767 677.760 584.822 C 681.510 587.602, 685.418 590.805, 686.444 591.939 C 689.012 594.775, 689.787 594.620, 698.379 589.540 C 741.339 564.141, 790.400 569.267, 827.322 603.011 L 833.005 608.205 842.488 604.530 C 847.704 602.509, 852.219 600.455, 852.522 599.965 C 854.165 597.307, 842.080 583.346, 830.964 575.062 C 806.703 556.981, 771.891 548.211, 739.265 551.961 M 610.828 552.903 C 603.072 553.735, 602.776 554.603, 609.972 555.417 C 618.108 556.338, 634.612 561.058, 644.970 565.427 C 655.312 569.790, 653.971 569.842, 660.611 564.828 C 666.927 560.060, 666.963 560.119, 655.938 557.021 C 640.576 552.704, 625.503 551.328, 610.828 552.903 M 548.097 570.048 C 508.611 578.619, 472.169 606.847, 454.421 642.607 C 451.840 647.807, 449.902 652.212, 450.114 652.396 C 450.326 652.580, 453.901 653.027, 458.059 653.390 L 465.617 654.049 473.494 644.475 C 506.255 604.658, 550.035 585.630, 593 592.535 C 621.821 597.166, 647.873 611.006, 670.487 633.699 L 680.651 643.897 686.575 643.030 C 705.857 640.208, 705.029 640.804, 699.890 633.448 C 687.120 615.168, 664.461 595.812, 643.413 585.204 C 616.172 571.474, 573.087 564.624, 548.097 570.048 M 313.679 570.056 C 286.429 573.223, 257.925 592.488, 245.499 616.135 C 241.088 624.528, 240.663 624.011, 254.382 626.947 L 264.500 629.112 266.937 625.806 C 276.515 612.815, 302.045 594.098, 314.702 590.788 C 315.901 590.475, 317.069 588.680, 317.885 585.896 C 318.594 583.478, 320.732 578.688, 322.636 575.250 L 326.098 569 323.299 569.131 C 321.760 569.204, 317.430 569.620, 313.679 570.056 M 145.740 579.164 C 141.483 583.024, 138 586.613, 138 587.140 C 138 588.154, 145.631 591.941, 147.750 591.978 C 148.438 591.990, 149 591.117, 149 590.038 C 149 588.959, 150.107 584.591, 151.460 580.331 C 152.812 576.071, 153.820 572.487, 153.699 572.366 C 153.578 572.245, 149.997 575.304, 145.740 579.164 M 92 582.371 C 92 590.482, 97.121 629.776, 100.554 648 C 126.213 784.239, 197.740 879.306, 307.500 923.055 C 401.025 960.333, 535.787 968.099, 645.331 942.524 C 736.540 921.229, 806.380 873.927, 853.549 801.500 C 885.932 751.777, 908.672 686.076, 916.887 618.500 C 920.614 587.841, 920.557 583.517, 916.484 588.018 C 910.395 594.746, 873.267 614.831, 850 623.982 C 786.483 648.965, 701.727 666.330, 603 674.587 C 577.399 676.728, 496.589 677.625, 467.712 676.088 C 297.189 667.013, 164.436 634.547, 99.704 586.087 C 92.241 580.501, 92 580.384, 92 582.371 M 737.831 593.964 C 728.737 595.613, 705.821 603.845, 703.297 606.369 C 703.015 606.652, 705.195 609.850, 708.142 613.476 C 712.718 619.108, 713.865 619.991, 716 619.533 C 736.656 615.102, 756.344 616.181, 770.636 622.529 C 775.182 624.548, 777.427 624.996, 780.625 624.524 C 787.029 623.578, 812.160 615.621, 812.281 614.500 C 812.636 611.221, 793.424 600.311, 780.463 596.432 C 770.713 593.513, 747.672 592.180, 737.831 593.964 M 557.334 611.481 C 543.043 614.074, 529.124 619.853, 515.538 628.834 C 508.757 633.316, 488 652.381, 488 654.127 C 488 654.607, 494.072 655, 501.494 655 L 514.989 655 523.133 648.962 C 553.901 626.148, 585.815 624.762, 620.878 644.715 L 630.500 650.191 643.250 648.406 C 650.263 647.424, 656 646.305, 656 645.918 C 656 644.725, 644.675 634.657, 637.915 629.840 C 615.368 613.776, 584.033 606.636, 557.334 611.481 M 305.260 616.250 C 295.761 621.654, 285 630.189, 285 632.320 C 285 633.524, 322.789 640.544, 323.804 639.529 C 324.069 639.265, 323.803 638.468, 323.214 637.758 C 321.533 635.732, 317.263 622.049, 316.501 616.250 C 316.122 613.362, 315.515 611, 315.151 611 C 314.787 611, 310.336 613.362, 305.260 616.250 M 728.513 633.743 C 722.037 634.403, 719.283 637.998, 725.250 638.002 C 730.298 638.005, 746 634.898, 746 633.896 C 746 633.019, 736.434 632.935, 728.513 633.743 M 568.500 650.068 C 564.100 650.454, 557.350 651.609, 553.500 652.635 L 546.500 654.500 555.500 654.751 C 560.450 654.889, 571.925 654.653, 581 654.226 L 597.500 653.449 592 651.834 C 584.745 649.702, 578.238 649.213, 568.500 650.068 M 707.500 945.047 C 660.485 965.146, 582.728 978.413, 512.500 978.317 C 437.502 978.216, 368.628 967.309, 308.235 945.970 C 303.140 944.169, 298.763 942.903, 298.510 943.157 C 297.686 943.980, 300.004 955.936, 302.045 961.392 C 306.656 973.715, 315.057 981.758, 331.500 989.591 C 393.007 1018.892, 543.629 1026.706, 635.871 1005.381 C 690.098 992.845, 713.108 976.853, 714.748 950.562 C 715.042 945.853, 715.106 942.012, 714.891 942.027 C 714.676 942.042, 711.350 943.401, 707.500 945.047" stroke="none" fill="#1a1a1a" fill-rule="evenodd"/>
</svg>