<svg xmlns="http://www.w3.org/2000/svg" width="1024" height="1024" viewBox="0 0 1024 1024" version="1.1">
	<path d="M 249.512 103.107 C 202.494 108.055, 151.780 150.908, 135.481 199.462 C 123.486 235.195, 131.618 265.939, 161.953 299.537 C 164.454 302.307, 167.638 305.907, 169.029 307.537 C 193.553 336.278, 220.547 367.475, 227.446 375.047 C 230.226 378.098, 236.324 384.848, 240.998 390.047 C 245.671 395.246, 254.453 404.900, 260.513 411.500 C 266.572 418.100, 278.473 431.150, 286.957 440.500 C 295.442 449.850, 305.335 460.650, 308.942 464.500 C 312.549 468.350, 318.945 475.325, 323.156 480 C 351.642 511.625, 367.426 522.887, 389.941 527.656 C 410.850 532.085, 420.712 536.565, 432.021 546.771 C 446.496 559.836, 458.844 580.951, 456.716 589 C 450.763 611.504, 478.600 635.661, 501.189 627.595 C 504.789 626.309, 504.956 626.360, 508.189 629.705 C 520.641 642.592, 529.397 641.254, 547.746 623.662 C 550.305 621.209, 552.327 619.971, 552.836 620.546 C 553.300 621.071, 566.004 635.900, 581.066 653.500 C 627.452 707.701, 655.328 739.241, 706 794.851 C 726.837 817.718, 725.022 814.891, 737.480 843.909 C 751.234 875.945, 751.451 876.348, 757.344 880.773 C 763.488 885.387, 789.183 903.606, 804.270 914.047 C 810.193 918.146, 819.368 924.538, 824.658 928.250 C 838.557 938.005, 838.556 938.005, 860.362 918.123 C 883.191 897.308, 883.862 903.010, 851.768 845 C 841.270 826.025, 831.515 809.306, 830.090 807.846 C 828.666 806.387, 814.675 797.996, 799 789.201 L 770.500 773.210 761.131 761.855 C 715.713 706.809, 636.535 614.797, 611.117 587.527 L 601.136 576.818 609.417 569.431 C 625.689 554.914, 627.438 548.282, 618.499 534.998 L 615.172 530.054 617.125 524.913 C 625.833 501.996, 606.038 476.278, 580.331 477.110 C 574.350 477.304, 573.953 477.154, 567.239 472.177 C 544.739 455.497, 533.031 430.073, 533.006 397.840 C 533.001 392.027, 532.268 387.940, 529.964 380.890 C 523.518 361.164, 521.720 358.613, 474.020 301.500 C 330.272 129.384, 317.793 116.440, 286.060 106.545 C 279.451 104.484, 260.773 101.564, 258 102.159 C 257.725 102.218, 253.906 102.644, 249.512 103.107" stroke="none" fill="#ffffff" fill-rule="evenodd"/>
</svg>