<svg xmlns="http://www.w3.org/2000/svg" width="1024" height="1024" viewBox="0 0 1024 1024" version="1.1">
	<path d="M 283.500 289.409 C 265.985 292.767, 248.221 305.338, 231.965 325.879 C 221.741 338.800, 217.896 342.786, 216.108 342.318 C 215.022 342.034, 214.029 342.483, 213.669 343.419 C 213.336 344.289, 213.525 345, 214.090 345 C 214.656 345, 214.852 345.430, 214.527 345.956 C 214.202 346.482, 213.359 346.691, 212.655 346.421 C 211.950 346.151, 210.502 346.911, 209.437 348.111 C 208.067 349.654, 207.861 350.419, 208.735 350.724 C 212.168 351.926, 207.132 356.832, 201.262 358.005 C 198.093 358.638, 190.671 360.696, 184.768 362.578 C 172.886 366.367, 172.620 366.424, 173.500 365 C 173.840 364.450, 173.694 364, 173.176 364 C 172.657 364, 172.012 364.846, 171.742 365.880 C 171.463 366.945, 168.221 369.351, 164.259 371.433 C 149.847 379.007, 140.600 388.688, 137.459 399.492 C 135.950 404.682, 134.857 421.206, 136.072 420.455 C 136.419 420.241, 137.263 421.963, 137.948 424.283 C 140.986 434.579, 149.820 445.414, 156.219 446.694 C 157.749 447, 159 447.555, 159 447.928 C 159 448.300, 161.588 448.308, 164.750 447.943 C 167.912 447.579, 170.567 447.331, 170.650 447.391 C 170.732 447.451, 169.970 449.300, 168.957 451.500 C 167.944 453.700, 165.277 459.968, 163.031 465.429 C 160.786 470.890, 157.450 477.190, 155.618 479.429 C 150.304 485.927, 146.233 494.032, 145.077 500.418 C 144.488 503.673, 143.232 507.273, 142.287 508.418 C 137.416 514.319, 132.558 518.845, 131.680 518.302 C 131.116 517.954, 131.007 518.202, 131.426 518.881 C 131.868 519.596, 129.300 523.693, 124.988 529.153 C 116.124 540.374, 114.939 543.242, 117.874 546.366 C 119.387 547.976, 119.679 548.921, 118.906 549.694 C 118.132 550.468, 118.178 550.992, 119.067 551.542 C 119.840 552.019, 120.055 551.899, 119.638 551.224 C 119.269 550.627, 119.455 549.837, 120.050 549.469 C 121.973 548.280, 122.187 549.737, 120.553 552.897 C 119.677 554.592, 118.876 556.321, 118.774 556.740 C 118.672 557.158, 116.656 560.994, 114.294 565.264 C 111.932 569.534, 110 573.471, 110 574.014 C 110 574.556, 109.520 575, 108.933 575 C 108.310 575, 108.122 574.062, 108.480 572.750 C 109.013 570.800, 108.948 570.735, 107.994 572.258 C 107.388 573.225, 107.184 574.489, 107.541 575.067 C 108.511 576.635, 103.697 583.017, 97.525 588.345 C 93.319 591.977, 91.091 595.052, 87.797 601.778 C 85.446 606.575, 83.293 610.725, 83.012 611 C 82.730 611.275, 82.460 612.625, 82.411 614 C 82.362 615.375, 81.292 623.250, 80.033 631.500 C 72.940 677.993, 80.380 704.123, 108.771 732.428 C 112.593 736.238, 115.622 740.063, 115.503 740.928 C 115.384 741.792, 115.473 741.978, 115.700 741.340 C 115.939 740.666, 121.012 743.600, 127.806 748.342 C 153.661 766.389, 172.610 773.998, 211.765 782.054 C 245.652 789.027, 314.900 789.429, 347.500 782.843 C 395.392 773.166, 431.780 748.695, 449.949 713.943 C 463.229 688.544, 464.192 623.289, 451.489 609.583 C 448.404 606.254, 446.647 603.020, 447.473 602.193 C 447.823 601.844, 448.422 602.047, 448.804 602.644 C 449.187 603.242, 450.400 604.028, 451.500 604.391 C 456.521 606.051, 459.274 609.873, 458.757 614.465 C 458.487 616.857, 458.650 619.418, 459.118 620.157 C 459.726 621.116, 459.974 620.824, 459.985 619.133 C 459.997 617.293, 460.428 616.879, 461.925 617.270 C 463.356 617.644, 463.698 617.375, 463.255 616.223 C 462.867 615.210, 463.062 614.920, 463.819 615.388 C 464.575 615.856, 464.771 615.566, 464.382 614.552 C 463.524 612.317, 464.248 612.560, 471.232 616.850 C 484.631 625.081, 505.928 640.765, 533.134 662.436 C 540.083 667.971, 549.550 675.232, 554.173 678.572 C 561.368 683.770, 562.759 685.253, 563.847 688.884 C 564.546 691.216, 566.666 694.838, 568.559 696.933 C 570.451 699.028, 572.052 701.813, 572.116 703.121 C 572.199 704.816, 572.363 704.997, 572.689 703.750 C 573.276 701.505, 573.185 701.489, 579.304 704.877 C 613.657 723.896, 619.019 726.280, 655 738.528 C 672.635 744.531, 678.601 746.082, 705 751.528 C 775.282 766.026, 853.003 758.798, 902.466 733.162 C 906.335 731.157, 909.837 729.363, 910.250 729.175 C 910.662 728.987, 911 729.797, 911 730.976 C 911 732.205, 911.443 732.844, 912.041 732.475 C 912.613 732.121, 912.846 731.082, 912.559 730.166 C 912.184 728.969, 913.649 727.455, 917.768 724.785 C 933.349 714.685, 943.704 701.951, 946.681 689.232 C 952.034 666.363, 945.507 604, 937.761 604 C 937.159 604, 936.964 603.703, 937.327 603.339 C 937.691 602.976, 936.989 602.180, 935.767 601.571 C 934.546 600.962, 930.978 597.046, 927.839 592.868 C 924.699 588.690, 920.277 583.803, 918.010 582.008 C 915.744 580.213, 911.501 575.515, 908.581 571.567 C 898.377 557.768, 866.677 534.692, 852.137 530.478 C 850.837 530.102, 846.112 527.292, 841.637 524.234 C 837.162 521.176, 826.638 515.392, 818.250 511.381 C 809.862 507.370, 803 503.592, 803 502.985 C 803 502.378, 802.569 502.148, 802.043 502.474 C 801.516 502.799, 800.424 501.786, 799.615 500.223 C 796.132 493.488, 785.080 485.086, 779.618 485.022 C 774.762 484.965, 760.600 474.117, 757.566 468.129 C 753.800 460.699, 746.607 455.065, 739 453.587 C 732.665 452.357, 718.972 438.298, 713.591 427.500 L 709.106 418.500 712.504 415 C 737.622 389.130, 689.558 342.059, 637.971 342.008 L 630.442 342 623.971 335.459 C 611.412 322.763, 602.881 318.934, 594.737 322.337 C 591.133 323.843, 590.835 323.794, 583.766 320.555 C 566.117 312.468, 546.559 313.154, 527.974 322.513 C 518.910 327.078, 518.373 326.975, 494 316.022 C 472.626 306.416, 467.134 304.560, 455.141 302.890 C 428.751 299.215, 401.532 312.508, 392.366 333.549 C 389.873 339.271, 387.100 342.795, 388.666 338.250 C 389.152 336.839, 388.966 336.887, 387.702 338.500 C 386.373 340.195, 386.353 340.549, 387.567 340.823 C 388.355 341.001, 389 341.451, 389.001 341.823 C 389.002 343.266, 384.472 356.985, 384 356.968 C 383.725 356.959, 380.350 350.357, 376.500 342.297 C 362.688 313.383, 349.262 299.048, 328.441 290.986 C 320.980 288.097, 295.085 287.189, 283.500 289.409" stroke="none" fill="#ffffff" fill-rule="evenodd"/>
</svg>