<svg xmlns="http://www.w3.org/2000/svg" width="1024" height="1024" viewBox="0 0 1024 1024" version="1.1">
	<path d="M 290 289.071 C 273.905 291.093, 261.441 296.981, 249.380 308.258 C 241.179 315.926, 210.166 351.795, 207.427 356.780 C 207.342 356.934, 202.824 358.139, 197.387 359.458 C 152.792 370.272, 130.307 393.230, 137.358 420.750 C 141.725 437.800, 151.262 446.931, 164.750 446.978 C 168.188 446.990, 171 447.240, 171 447.533 C 171 450.379, 159.110 475.410, 155.436 480.296 C 149.398 488.329, 147.569 492.082, 145.734 500.203 C 144.418 506.028, 143.386 507.871, 137.860 514.264 C 124.664 529.528, 117.014 540.161, 117.005 543.250 C 117 545.096, 119.853 548.451, 122.052 549.184 C 122.960 549.487, 121.341 553.411, 116.702 562.156 C 109.396 575.927, 103.676 583.893, 96.647 590.079 C 84.997 600.334, 78.625 625.127, 78.548 660.500 C 78.502 682.039, 79.448 686.477, 87.499 702.500 C 102.592 732.538, 135.718 758.886, 174.775 771.917 C 204.501 781.835, 232.048 785.962, 273.500 786.706 C 340.240 787.904, 375.463 780.243, 409.955 757.024 C 427.206 745.411, 441.524 729.527, 449.960 712.644 C 456.344 699.867, 457.658 693.538, 459.182 668.247 C 461.065 636.996, 458.584 619.288, 451 609.850 C 447.129 605.034, 445.270 600.506, 447.516 601.368 C 456.354 604.759, 495.213 631.989, 529 658.467 C 537.525 665.148, 548.559 673.586, 553.521 677.219 C 561.510 683.068, 562.748 684.399, 564.352 688.860 C 566.839 695.774, 571.942 700.140, 587.627 708.769 C 667.294 752.597, 762.801 768.506, 846.500 751.893 C 882.445 744.758, 916.698 728.578, 933.661 710.720 C 945.578 698.175, 947.907 690.074, 947.965 660.974 C 948.029 628.883, 943.884 610.629, 934.571 601.985 C 932.507 600.068, 929.055 595.932, 926.901 592.793 C 924.746 589.654, 920.936 585.379, 918.433 583.293 C 915.930 581.207, 911.429 576.244, 908.429 572.265 C 898.298 558.825, 876.450 542.313, 856.129 532.739 C 850.283 529.984, 842.754 525.774, 839.398 523.383 C 836.041 520.992, 825.916 515.464, 816.898 511.099 C 801.231 503.517, 800.344 502.929, 797 497.909 C 792.894 491.746, 785.373 486.243, 779.847 485.360 C 773.944 484.416, 759.981 474.395, 757.657 469.434 C 754.108 461.859, 744.519 454.012, 738.790 453.992 C 737.341 453.987, 733.065 450.922, 727.145 445.643 C 718.567 437.994, 717.404 436.503, 713.136 427.679 L 708.482 418.056 712.130 414.621 C 722.867 404.509, 720.289 385.506, 706.279 371.496 C 689.389 354.606, 664.288 343.455, 640.940 342.467 L 630.379 342.021 622.141 334.076 C 610.290 322.648, 603.899 320.152, 594.041 323.106 C 590.781 324.083, 589.750 323.907, 585.192 321.597 C 568.661 313.220, 545.457 313.807, 528.240 323.036 L 520.979 326.928 514.519 324.933 C 510.966 323.836, 500.733 319.623, 491.780 315.570 C 470.324 305.860, 463.958 303.946, 450.903 303.275 C 431.977 302.304, 415.735 307.703, 403.689 318.972 C 396.101 326.071, 393.418 330.857, 388.397 346.250 C 386.289 352.712, 384.325 358, 384.033 358 C 383.740 358, 380.651 351.980, 377.168 344.623 C 355.619 299.097, 331.669 283.834, 290 289.071 M 287.008 297.346 C 282.948 298.199, 281.422 298.994, 281.157 300.393 C 280.862 301.951, 281.214 302.169, 283.149 301.626 C 284.442 301.263, 288.988 300.454, 293.250 299.827 C 298.508 299.055, 301 298.256, 301 297.344 C 301 295.689, 294.896 295.690, 287.008 297.346 M 305.160 297.597 C 305.456 299.136, 306.748 299.635, 311.919 300.206 C 315.435 300.595, 319.658 301.382, 321.305 301.956 C 325.417 303.390, 326 303.286, 326 301.119 C 326 298.969, 321.012 297.389, 310.891 296.331 C 305.263 295.743, 304.822 295.840, 305.160 297.597 M 272.746 301.955 C 266.164 305.243, 256.716 312.609, 249.390 320.166 C 240.945 328.876, 228.603 343.937, 229.321 344.655 C 230.589 345.923, 234.462 342.252, 240.840 333.735 C 251.412 319.621, 264.789 307.875, 273.604 304.966 C 275.899 304.208, 277 303.222, 277 301.922 C 277 300.865, 276.887 300.018, 276.750 300.040 C 276.613 300.062, 274.811 300.924, 272.746 301.955 M 330.166 302.775 C 330.355 303.904, 333.327 306.699, 337 309.201 C 344.775 314.499, 351.501 322.547, 357.025 333.164 C 360.629 340.092, 364.248 344.085, 365.651 342.682 C 366.340 341.993, 360.380 330.464, 355.988 323.989 C 348.838 313.447, 329.261 297.364, 330.166 302.775 M 288.500 304.482 C 270.136 308.531, 256.716 317.899, 244.141 335.445 L 240.781 340.132 244.641 339.460 C 246.763 339.091, 251.085 337.009, 254.245 334.834 C 262.111 329.419, 271.002 325.560, 280.403 323.480 C 300.024 319.138, 330.653 324.473, 342.903 334.367 C 344.270 335.471, 355 338.026, 355 337.247 C 355 336.211, 349.155 326.894, 345.407 321.955 C 334.164 307.142, 310.036 299.733, 288.500 304.482 M 436.594 311.848 C 435.423 313.743, 438.722 314.540, 446.306 314.194 C 451.690 313.949, 453.993 313.475, 453.726 312.669 C 453.254 311.244, 437.436 310.485, 436.594 311.848 M 458.550 312.870 C 459.072 313.349, 462.875 314.743, 467 315.969 C 471.125 317.194, 480.350 320.899, 487.500 324.201 C 504.287 331.953, 513.298 335.395, 512.786 333.857 C 512.567 333.200, 510.780 332.106, 508.815 331.426 C 506.850 330.745, 498.873 327.213, 491.088 323.576 C 472.535 314.908, 454.184 308.870, 458.550 312.870 M 422.184 316.479 C 402.267 326.024, 395.063 342.710, 401.844 363.586 C 403.997 370.214, 404.437 370.814, 408.667 372.869 C 411.154 374.077, 413.012 374.713, 412.796 374.283 C 402.743 354.217, 402.961 339.707, 413.505 327.176 C 416.012 324.197, 428.833 317, 431.634 317 C 433.320 317, 433.392 315.792, 431.800 314.200 C 430.186 312.586, 430.424 312.530, 422.184 316.479 M 435.500 319.824 C 426.583 322.496, 421.974 324.985, 417.300 329.653 C 402.233 344.700, 412.409 377.621, 433.479 381.996 C 444.795 384.345, 457.113 379.226, 479.826 362.735 C 487.156 357.413, 495.578 351.672, 498.542 349.976 C 501.852 348.082, 505.096 345.167, 506.950 342.418 L 509.970 337.944 507.235 336.798 C 505.731 336.168, 498.650 332.997, 491.500 329.752 C 467.841 319.014, 466.900 318.732, 453.500 318.360 C 444.105 318.099, 440.197 318.416, 435.500 319.824 M 544.209 325.496 C 536.163 327.753, 528.621 331.644, 522.279 336.809 L 516.547 341.479 521.903 342.250 C 529.184 343.298, 534.998 346.035, 540.275 350.899 L 544.698 354.976 559.099 354.328 C 571.786 353.756, 573.917 353.406, 577 351.389 C 581.296 348.577, 588.088 346.978, 592.612 347.712 C 596.652 348.367, 596.596 348.692, 593.496 342.581 C 592.123 339.875, 591 337.065, 591 336.337 C 591 334.405, 583.657 329.399, 577.145 326.891 C 569.752 324.045, 552.056 323.295, 544.209 325.496 M 279.362 330.927 C 272.237 332.849, 264.283 336.431, 260.500 339.421 C 258.623 340.905, 258.607 341.066, 260.250 342.050 C 263.299 343.878, 265.282 349.097, 265.197 355.070 L 265.117 360.704 270.706 362.259 C 276.077 363.754, 276.454 363.731, 280.397 361.657 C 287.379 357.986, 297.617 358.554, 303.042 362.914 L 307.290 366.327 316.895 364.372 L 326.500 362.417 327.223 355.212 C 328.033 347.133, 329.712 343.158, 333.610 340.092 L 336.259 338.008 330.880 335.551 C 317.044 329.232, 293.479 327.117, 279.362 330.927 M 597.068 331.872 C 594.597 336.490, 602.067 349.845, 606.750 349.180 C 609.557 348.782, 609.589 349.065, 606 342.340 C 604.350 339.248, 603 335.207, 603 333.359 C 603 330.456, 602.666 330, 600.535 330 C 599.150 330, 597.632 330.820, 597.068 331.872 M 607.428 334.328 C 607.118 335.136, 608.054 338.146, 609.509 341.017 C 612.082 346.095, 612.250 346.221, 615.701 345.661 C 620.694 344.851, 620.795 344.419, 616.932 340.398 C 611.443 334.685, 608.108 332.555, 607.428 334.328 M 338.942 343.472 C 335.724 345.222, 334.186 348.565, 333.358 355.612 L 332.707 361.149 336.092 360.824 C 339.161 360.530, 339.534 360.144, 340.092 356.685 C 341.627 347.153, 347.669 344.418, 358.500 348.351 C 366.526 351.266, 364.944 349.442, 355.500 344.892 C 348.917 341.721, 343.081 341.220, 338.942 343.472 M 239.500 346.875 C 234.688 348.545, 227.868 351.877, 229.093 351.960 C 229.420 351.982, 232.303 351.100, 235.500 350 C 247.123 346.001, 254 348.584, 254 356.950 C 254 358.470, 254.646 359, 256.500 359 C 258.828 359, 259 358.662, 259 354.073 C 259 345.406, 251.602 342.676, 239.500 346.875 M 514 349.298 C 507.238 351.201, 493.870 358.945, 481.082 368.368 C 457.374 385.837, 444.193 390.784, 431.246 387.071 C 428.360 386.243, 428.113 386.325, 428.986 387.821 C 431.800 392.641, 433.833 394, 438.229 394 C 448.630 394, 457.360 389.910, 480.173 374.348 C 506.096 356.665, 516.531 352.640, 526.543 356.463 C 532.128 358.596, 538.977 357.882, 536.903 355.383 C 532.370 349.921, 521.784 347.108, 514 349.298 M 625.500 348.612 C 619.954 349.976, 610 353.111, 610 353.493 C 610 353.732, 611.845 355.649, 614.100 357.752 L 618.199 361.576 626.850 360.231 C 639.616 358.247, 655.374 359.170, 666 362.524 C 683.572 368.071, 699.051 378.112, 704.584 387.554 C 708.473 394.189, 706.525 395.066, 701.262 389.049 C 696.388 383.478, 695.333 383.116, 697.038 387.601 C 698.458 391.335, 697.454 396.499, 694.835 398.939 L 692.761 400.871 697.623 406.386 L 702.485 411.901 705.493 410.166 C 710.177 407.465, 712.230 402.599, 711.578 395.746 C 709.976 378.921, 689.032 360.587, 661 351.473 C 652.694 348.772, 631.720 347.082, 625.500 348.612 M 345.762 351.707 C 344.806 352.766, 343.737 355.064, 343.387 356.816 L 342.750 360 354.125 360.011 C 360.381 360.017, 367.300 360.305, 369.500 360.651 L 373.500 361.280 371 359.278 C 361.578 351.733, 349.116 347.995, 345.762 351.707 M 235.586 353.534 C 226.832 356.649, 226.538 357, 232.687 357 C 235.448 357, 240.473 357.289, 243.853 357.642 C 249.975 358.282, 250 358.274, 250 355.678 C 250 350.554, 245.743 349.921, 235.586 353.534 M 582.250 354.491 C 578.278 356.217, 578.146 357.506, 581.750 359.373 C 584.453 360.774, 592.568 368.575, 595.405 372.500 C 596.814 374.449, 596.879 374.426, 597.951 371.619 C 599.885 366.550, 601.125 359.633, 600.525 357.245 C 599.478 353.071, 589.111 351.509, 582.250 354.491 M 394.568 357.618 C 394.180 359.753, 393.634 362.456, 393.355 363.625 C 392.950 365.316, 393.495 365.977, 396.023 366.858 C 398.771 367.816, 399.119 367.754, 398.598 366.396 C 398.267 365.532, 397.711 362.952, 397.364 360.663 C 396.394 354.268, 395.377 353.160, 394.568 357.618 M 605.551 359.250 C 605.338 359.938, 604.957 362.325, 604.703 364.556 C 604.450 366.787, 602.838 371.813, 601.121 375.724 C 597.127 384.824, 597.151 385, 602.350 385 C 615.169 385, 620.345 370.499, 610.899 361.053 C 607.611 357.764, 606.161 357.276, 605.551 359.250 M 510.249 360.962 C 502.395 363.789, 483 375.816, 483 377.860 C 483 378.277, 483.590 379.424, 484.311 380.410 C 485.531 382.079, 486.203 381.823, 494.113 376.667 C 503.236 370.720, 522.306 361.010, 524.911 360.985 C 526.302 360.971, 526.313 360.849, 525 360 C 522.630 358.469, 515.970 358.903, 510.249 360.962 M 546.785 360.482 C 524.251 364.168, 502.170 375.102, 480.005 393.550 C 464.596 406.375, 459.142 415.570, 458.254 430.224 C 457.300 445.971, 461.344 453.205, 474.691 459.624 C 497.753 470.717, 512.311 462.225, 549.473 416 C 567.819 393.180, 578.031 381.762, 584.237 377.129 C 589.777 372.993, 589.890 372.539, 586.313 368.805 C 582.971 365.316, 582.285 365.321, 575.221 368.892 C 562.145 375.502, 551.917 384.520, 532.247 406.782 C 505.563 436.982, 490.554 445.093, 477.773 436.218 C 470.414 431.108, 466.026 422.020, 467.802 415.565 C 469.243 410.326, 471 411.301, 471 417.340 C 471 421.840, 471.485 423.423, 473.653 426 L 476.307 429.153 478.480 424.643 C 487.587 405.747, 519.686 383.277, 553 372.476 C 565.327 368.480, 578.594 361.912, 576.598 360.795 C 573.730 359.190, 555.835 359.002, 546.785 360.482 M 221.301 363.006 C 185.335 366.749, 155.348 380.370, 147.426 396.562 C 140.877 409.947, 144.642 429.616, 155.195 437.143 C 166.431 445.157, 197.766 434.375, 221.087 414.470 C 237.392 400.553, 257.070 388.044, 272.269 381.935 C 275.442 380.660, 277.868 379.140, 277.660 378.558 C 276.434 375.127, 255.228 381.501, 239.500 390.028 C 220.574 400.289, 193.245 413.732, 186.738 415.980 C 167.481 422.634, 152.533 417.607, 151.230 404.038 C 150.773 399.290, 152.937 393, 155.026 393 C 156.300 393, 156.255 394.417, 154.831 399.169 C 153.846 402.457, 153.935 403.641, 155.397 406.707 L 157.132 410.345 160.055 405.226 C 165.308 396.030, 179.670 386.238, 196.142 380.623 C 211.266 375.468, 217.006 374.672, 241.500 374.337 C 265.650 374.007, 275 372.909, 275 370.404 C 275 365.745, 240.567 361.002, 221.301 363.006 M 284.235 365.497 C 278.742 367.884, 278.690 372.844, 284.101 378.255 L 287.100 381.254 289.651 378.877 C 291.053 377.570, 294.043 374.308, 296.295 371.629 C 300.197 366.986, 300.301 366.693, 298.503 365.379 C 296.081 363.608, 288.437 363.671, 284.235 365.497 M 339.252 366.070 C 329.626 367.001, 314.873 369.834, 313.658 370.986 C 313.195 371.424, 316.345 373.675, 320.658 375.987 C 328.326 380.097, 328.702 380.186, 337.604 380.046 C 380.659 379.366, 415.815 396.261, 420.925 420.087 C 422.660 428.174, 418.821 438, 413.927 438 C 411.475 438, 411.496 437.831, 414.500 433.405 C 418.254 427.873, 417.887 426.776, 412.874 428.544 C 403.383 431.893, 391.223 428.569, 375.211 418.247 C 373.720 417.286, 376.100 420.552, 380.500 425.504 C 384.900 430.456, 390.075 436.424, 392 438.766 C 395.470 442.988, 395.569 443.030, 403.513 443.642 C 417.238 444.700, 425.076 439.650, 430.617 426.178 C 438.587 406.800, 428.782 389.405, 402.670 376.599 C 383.280 367.090, 363.195 363.755, 339.252 366.070 M 620 366.547 C 620 369.195, 621.274 371, 623.142 371 C 626.191 371, 640.255 375.921, 642.882 377.907 C 647.376 381.304, 644.644 381.820, 637.500 378.923 C 629.730 375.772, 622.295 374.285, 621.011 375.625 C 620.550 376.106, 620.022 377.573, 619.836 378.884 C 619.529 381.066, 620.223 381.502, 628 384.019 C 650.531 391.309, 671.253 401.213, 684.500 411.023 C 688.900 414.281, 695.149 418.818, 698.387 421.104 L 704.275 425.261 701.946 421.117 C 695.907 410.373, 685.125 399.859, 668.500 388.502 C 663 384.744, 657.825 380.859, 657 379.868 C 652.341 374.271, 620 362.627, 620 366.547 M 655 367.449 C 655 369.025, 665.986 379.575, 671.500 383.294 C 674.800 385.520, 680.104 389.369, 683.287 391.847 C 688.578 395.967, 689.211 396.217, 690.665 394.764 C 694.560 390.869, 688.244 379.601, 679.461 374.774 C 671.800 370.564, 655 365.533, 655 367.449 M 298.297 375.902 C 292.299 382.557, 287.788 392.617, 290.134 394.104 C 292.941 395.884, 298.141 396.218, 301.793 394.854 C 309.460 391.991, 312.591 378.451, 306.969 372.467 C 303.998 369.305, 304.377 369.154, 298.297 375.902 M 589.951 378.661 C 585.933 381.333, 577.117 390.117, 572.547 396 C 556.073 417.210, 530.584 499.616, 532.300 526.123 C 532.899 535.375, 533.973 537.622, 538.082 538.225 C 547.494 539.607, 553.046 526.747, 559.533 488.543 C 566.936 444.946, 574.389 418.862, 586.525 394.081 C 593.840 379.145, 594.640 375.541, 589.951 378.661 M 228 379.001 C 223.875 379.398, 216.812 380.520, 212.303 381.494 L 204.107 383.266 199.934 393.883 C 197.639 399.722, 195.539 405.071, 195.266 405.769 C 194.994 406.468, 198.535 405.230, 203.136 403.020 C 210.280 399.587, 211.834 398.381, 213.794 394.751 C 217.804 387.319, 223.270 384.407, 229.817 386.215 C 232.888 387.063, 234.334 386.711, 241.618 383.341 C 246.184 381.228, 249.938 379.163, 249.960 378.750 C 250.008 377.859, 238.513 377.990, 228 379.001 M 543.500 381.150 C 531.407 386.220, 522.469 390.951, 511.518 398.080 C 499.482 405.915, 499.861 404.406, 507.197 415.261 C 510.556 420.232, 511.351 420.883, 512.994 420.003 C 516.716 418.011, 517.827 415.185, 517.276 409.109 C 516.344 398.830, 521.623 393.011, 531.887 393.004 C 537.260 393, 537.293 392.981, 544.725 385.500 C 548.823 381.375, 551.799 378.048, 551.338 378.108 C 550.877 378.167, 547.350 379.536, 543.500 381.150 M 477.582 380.515 C 475.958 381.744, 475.840 382.352, 476.810 384.483 C 478.111 387.337, 478.876 387.542, 481.383 385.709 C 482.900 384.600, 482.975 384.038, 481.913 381.709 C 480.501 378.610, 480.207 378.529, 477.582 380.515 M 315 381.962 C 315 383.042, 314.054 386.454, 312.897 389.546 L 310.794 395.167 312.931 396.664 C 337.599 413.942, 364.977 442.034, 385.866 471.500 C 399.424 490.625, 407.327 499, 411.814 499 C 421.456 499, 417.392 484.791, 400.544 459.591 C 379.641 428.325, 349.888 399.179, 324.035 384.640 C 314.493 379.274, 315 379.424, 315 381.962 M 271.627 387.652 C 247.571 398.436, 228.067 413.237, 197.786 443.687 C 160.962 480.716, 144.906 504.930, 155.425 507.570 C 161.527 509.102, 175.086 497.092, 199.531 468.500 C 220.295 444.213, 252.463 414.252, 278.220 395.209 C 284.262 390.743, 286.508 387.767, 285.608 385.422 C 284.729 383.130, 280.052 383.876, 271.627 387.652 M 468.500 386.609 C 460.360 391.791, 450.698 395.871, 443.699 397.082 C 439.739 397.767, 436.382 398.409, 436.237 398.510 C 436.092 398.611, 436.709 400.450, 437.608 402.596 C 439.830 407.902, 439.025 421.402, 436.029 429.081 C 431.679 440.230, 422.259 449.619, 414.360 450.679 L 410.388 451.211 410.782 457.356 C 411.040 461.371, 412.022 465.059, 413.616 468 C 419.800 479.404, 421.274 483.554, 421.782 490.987 C 422.257 497.940, 422.670 499.057, 427.585 506.675 C 433.946 516.536, 441.766 522.109, 491.500 552.230 C 526.758 573.583, 526.905 573.642, 527.016 566.500 C 527.042 564.850, 527.902 558.654, 528.928 552.731 C 530.755 542.185, 530.754 541.859, 528.897 536.971 C 525.469 527.950, 527.174 505.031, 532.763 485 L 534.577 478.500 529.288 471.303 C 526.380 467.345, 524 463.633, 524 463.053 C 524 460.613, 526.196 462.375, 530.162 468 C 535.165 475.094, 535.456 475.184, 536.760 470.048 C 537.611 466.696, 537.489 465.847, 535.957 464.461 C 534.964 463.563, 532.378 460.186, 530.210 456.957 L 526.268 451.086 524.039 453.458 C 522.508 455.088, 522.018 456.482, 522.473 457.915 C 523.171 460.115, 520.735 460.998, 519.497 458.995 C 519.130 458.401, 517.162 459.163, 514.688 460.858 C 499.536 471.236, 488.047 472.249, 472.500 464.579 C 456.411 456.640, 449.973 443.948, 452.983 426.102 C 454.793 415.370, 459.771 406.262, 468.713 397.319 C 475.988 390.045, 476.150 389.775, 474.969 386.926 C 473.512 383.408, 473.527 383.409, 468.500 386.609 M 613 387.016 C 609.256 389.969, 603.802 391.190, 599.091 390.132 C 595.059 389.226, 595.039 389.236, 592.672 393.470 L 590.298 397.718 599.899 398.354 C 618.139 399.562, 618.637 399.490, 624.169 394.858 C 629.731 390.202, 629.717 390.157, 621.661 387.167 C 614.764 384.607, 616.026 384.629, 613 387.016 M 357.783 387.235 C 359.470 388.048, 360.369 388.031, 361.233 387.167 C 362.122 386.278, 361.580 386.016, 358.950 386.068 C 355.710 386.131, 355.639 386.202, 357.783 387.235 M 352.927 394.899 C 364.381 403.065, 366.732 403.766, 365.443 398.629 C 364.299 394.070, 355.756 389.302, 345.418 387.453 C 341.828 386.810, 342.456 387.433, 352.927 394.899 M 372.285 390.057 C 378.218 394.660, 380.335 403.321, 377.552 411.598 C 376.933 413.437, 377.856 414.223, 384.999 417.939 C 389.484 420.272, 393.394 421.939, 393.690 421.643 C 394.232 421.101, 390.926 403.669, 388.972 396.766 C 387.965 393.210, 387.571 392.931, 380.707 390.923 C 369.378 387.608, 369.090 387.578, 372.285 390.057 M 182.728 393.288 C 173.292 398.402, 167.127 403.491, 164.532 408.312 C 162.039 412.940, 162.744 413.514, 170.834 413.437 C 181.266 413.338, 182.725 412.194, 187.220 400.589 C 189.332 395.138, 190.933 390.317, 190.780 389.877 C 190.626 389.436, 187.003 390.971, 182.728 393.288 M 221.250 390.989 C 219.463 392.079, 218 393.460, 218 394.058 C 218 394.656, 219.186 394.212, 220.635 393.073 C 222.084 391.933, 223.857 391, 224.576 391 C 225.294 391, 226.160 390.550, 226.500 390 C 227.521 388.348, 224.715 388.876, 221.250 390.989 M 366.006 391.844 C 366.010 392.205, 367.330 393.250, 368.941 394.166 C 372.767 396.343, 374.949 402.858, 373.044 406.417 C 371.376 409.535, 372.728 412.093, 374.653 409.460 C 376.957 406.309, 376.295 400.707, 373.096 396.292 C 370.576 392.813, 365.988 389.934, 366.006 391.844 M 629.612 395.885 C 625.204 400.400, 625.122 400.312, 635.300 402.004 C 644.991 403.614, 646.587 402.687, 642.516 397.810 C 636.899 391.082, 634.632 390.744, 629.612 395.885 M 524.201 399.028 C 521.680 401.376, 520.689 404.563, 521.216 408.629 L 521.588 411.500 522.918 408.500 C 523.650 406.850, 524.703 404.517, 525.258 403.316 C 525.813 402.115, 527.567 400.594, 529.155 399.936 C 533.361 398.193, 533.602 397, 529.748 397 C 527.744 397, 525.494 397.822, 524.201 399.028 M 656.445 405.936 C 671.923 424.178, 678.385 430.446, 679.872 428.655 C 681.033 427.255, 680.130 425.920, 672.852 418.272 C 668.259 413.445, 662.700 407.472, 660.500 404.998 C 658.300 402.524, 654.772 399.700, 652.659 398.723 C 648.881 396.975, 648.942 397.092, 656.445 405.936 M 278.730 401.243 L 274.961 404.382 285.730 408.208 L 296.500 412.034 306.250 409.346 C 311.613 407.868, 315.985 406.397, 315.968 406.079 C 315.950 405.761, 313.856 404.075, 311.315 402.333 C 307.561 399.760, 306.241 399.338, 304.282 400.083 C 300.608 401.480, 292.362 401.178, 288.346 399.500 C 283.578 397.508, 283.117 397.592, 278.730 401.243 M 399.317 402.542 C 399.664 404.169, 400.742 409.663, 401.713 414.750 L 403.479 424 406.990 423.985 C 412.141 423.964, 415.559 421.896, 415.229 419.001 C 414.866 415.831, 408.178 407.101, 402.921 402.937 L 398.687 399.584 399.317 402.542 M 586.420 406.750 C 584.691 410.784, 582 418.014, 582 418.626 C 582 418.832, 587.638 419, 594.528 419 C 613.742 419, 637.419 421.861, 665.944 427.631 L 669.389 428.328 662.111 419.914 C 658.108 415.286, 654.308 411.216, 653.667 410.869 C 647.837 407.716, 614.480 403.026, 597.763 403.010 L 588.027 403 586.420 406.750 M 670.561 410.112 C 685.077 425.796, 684.525 425.325, 686.900 424.053 C 688.122 423.400, 688.948 422.333, 688.736 421.682 C 688.128 419.816, 677.505 411.587, 671.740 408.516 L 666.500 405.724 670.561 410.112 M 264.236 413.123 L 257.980 418.247 269.889 423.035 C 276.438 425.669, 287.581 430.568, 294.649 433.923 L 307.500 440.022 319 437.688 L 330.500 435.353 323 431.131 C 307.243 422.260, 275.364 408, 271.289 408 C 270.851 408, 267.676 410.306, 264.236 413.123 M 496.574 409.322 C 494.881 410.560, 494.869 410.845, 496.379 413.766 C 498.394 417.663, 496.740 419.135, 494.062 415.828 L 492.179 413.503 489.839 416.401 C 481.521 426.705, 479.892 432.082, 484.458 434.163 C 487.323 435.468, 493.827 434, 498.931 430.896 C 501.983 429.040, 502.018 428.935, 500.525 426.049 C 498.065 421.291, 498.845 420.223, 502.045 423.968 L 505.009 427.435 507.079 425.365 L 509.149 423.295 504.429 415.648 C 499.340 407.401, 499.274 407.348, 496.574 409.322 M 312.851 411.915 C 301.980 414.848, 302.015 414.544, 311.958 419.695 C 320.971 424.365, 321.083 424.393, 325.773 423.143 C 333.068 421.199, 333.182 420.434, 327 414.924 C 320.749 409.352, 321.642 409.542, 312.851 411.915 M 546.763 427.714 C 543.318 431.957, 537.664 438.715, 534.197 442.733 C 528.977 448.782, 528.121 450.264, 529.214 451.357 C 529.940 452.083, 532.262 455.185, 534.374 458.252 L 538.213 463.827 543.954 447.164 C 547.111 437.999, 550.656 428.137, 551.833 425.250 C 553.009 422.363, 553.758 420, 553.498 420 C 553.238 420, 550.207 423.471, 546.763 427.714 M 253.126 425.068 C 252.150 427.869, 252.217 428.127, 253.767 427.498 C 254.720 427.112, 256.793 426.328, 258.374 425.757 C 261.355 424.679, 260.909 423.978, 256.359 422.588 C 254.603 422.052, 254.022 422.498, 253.126 425.068 M 584.157 423.858 C 581.903 424.491, 582.073 424.845, 588.657 433.228 C 595.112 441.447, 595.717 441.942, 599.333 441.970 C 601.444 441.987, 603.017 441.553, 602.833 441.005 C 602.142 438.942, 588.524 423.004, 587.535 423.100 C 586.966 423.155, 585.446 423.496, 584.157 423.858 M 596.190 424.618 C 597.080 425.508, 598.309 425.927, 598.920 425.549 C 600.548 424.543, 599.220 423, 596.727 423 C 594.741 423, 594.699 423.127, 596.190 424.618 M 337.333 427.595 C 337.688 429.743, 337.983 432.288, 337.989 433.250 C 337.997 434.447, 338.790 435, 340.500 435 C 345.332 435, 343.658 427.692, 338.094 424.497 C 336.947 423.838, 336.807 424.409, 337.333 427.595 M 603.579 426.905 C 600.683 429.940, 600.675 429.985, 602.548 432.233 C 607.377 438.026, 610.506 441, 611.774 441 C 613.142 441, 627.947 428.088, 627.982 426.865 C 627.992 426.516, 625.525 425.954, 622.500 425.615 C 605.125 423.672, 606.771 423.559, 603.579 426.905 M 327.507 426.919 C 325.696 427.626, 325.819 427.855, 328.850 429.422 C 332.686 431.406, 333.139 431.249, 332.344 428.206 C 331.738 425.889, 330.790 425.637, 327.507 426.919 M 681.594 433.030 C 670.060 440.742, 668.746 441.997, 672.191 442.007 C 673.461 442.011, 678.207 442.903, 682.737 443.989 L 690.974 445.964 696.229 442.865 C 699.119 441.161, 702.500 439.380, 703.742 438.908 C 706.499 437.860, 706.522 437.368, 704.005 433.241 C 701.884 429.761, 696.596 426.010, 693.803 426.004 C 692.870 426.002, 687.376 429.163, 681.594 433.030 M 259.635 429.548 C 249.095 433.230, 246.794 436.360, 253.750 437.552 C 255.813 437.905, 259.827 438.774, 262.672 439.482 C 267.452 440.672, 268.494 440.571, 276.422 438.155 C 281.140 436.717, 284.994 435.307, 284.987 435.020 C 284.975 434.547, 271.578 428.701, 268 427.607 C 267.175 427.355, 263.411 428.228, 259.635 429.548 M 628.154 433.304 L 621.808 439.748 643.154 440.194 L 664.500 440.640 668.232 437.570 C 670.285 435.882, 671.972 434.271, 671.982 433.992 C 671.992 433.712, 665.138 432.226, 656.750 430.689 C 632.224 426.195, 635.445 425.901, 628.154 433.304 M 576.216 436.552 C 573.720 445.975, 573.963 447.459, 577.868 446.642 C 586.430 444.851, 591 443.504, 591 442.772 C 591 441.926, 580.146 428.710, 579.070 428.247 C 578.747 428.108, 577.463 431.845, 576.216 436.552 M 242.615 431.880 C 240.266 434.332, 240.110 434.828, 241.520 435.369 C 244.291 436.433, 244.816 436.112, 245.516 432.928 C 246.435 428.743, 245.830 428.524, 242.615 431.880 M 189.084 439.826 L 182.668 442.500 180.320 449.486 C 178.259 455.619, 178.195 456.230, 179.797 454.486 C 180.800 453.394, 184.933 449.012, 188.980 444.750 C 193.027 440.488, 196.149 437.034, 195.919 437.076 C 195.689 437.118, 192.613 438.356, 189.084 439.826 M 282.051 440.396 C 275.015 442.840, 275.044 443.064, 282.688 445.322 C 287.561 446.762, 288.196 446.733, 293.168 444.844 C 300.603 442.019, 300.684 441.911, 296.896 439.893 C 292.528 437.566, 289.948 437.653, 282.051 440.396 M 227.446 446.054 L 220.788 452.763 229.644 453.977 C 252.083 457.051, 275.331 463.844, 298.777 474.175 C 313.366 480.603, 317.930 481.320, 331.804 479.364 C 335.917 478.784, 336.095 478.618, 335.804 475.628 C 335.016 467.528, 273.414 444.665, 240.302 440.184 L 234.104 439.345 227.446 446.054 M 329.120 441.053 C 318.962 442.318, 298.759 447.316, 296.649 449.087 C 296.181 449.480, 296.856 450.119, 298.149 450.506 C 299.442 450.894, 305.090 453.190, 310.700 455.609 L 320.901 460.006 331.700 458.382 C 342.260 456.794, 362.942 456.889, 367.258 458.546 C 370.860 459.928, 368.849 456.301, 361.750 448.615 L 354.500 440.766 345.500 440.451 C 340.550 440.277, 333.179 440.548, 329.120 441.053 M 706.008 442.974 C 705.043 443.584, 704.867 444.233, 705.508 444.813 C 722.669 460.319, 724.994 462.073, 726.981 461.010 C 729.688 459.562, 730.232 460.282, 719.120 450.605 C 708.841 441.653, 708.454 441.427, 706.008 442.974 M 610.102 446.082 C 592.184 447.455, 577.546 451.196, 574.193 455.258 C 573.095 456.589, 573.309 457.676, 575.532 462.064 L 578.179 467.286 589.839 466.659 C 596.253 466.314, 608.925 465.360, 618 464.538 C 639.336 462.606, 673.454 462.595, 693.491 464.515 C 702.188 465.348, 709.384 465.910, 709.483 465.765 C 709.581 465.619, 706.362 462.405, 702.330 458.623 C 695.364 452.088, 694.592 451.650, 686.827 449.842 C 668.771 445.638, 636.515 444.057, 610.102 446.082 M 698.556 446.909 C 697.794 448.142, 716.064 464.957, 718.191 464.981 C 721.888 465.023, 720.483 463.014, 710.986 454.685 C 701.197 446.100, 699.653 445.134, 698.556 446.909 M 215.654 461.320 C 210.842 463.808, 196 478.192, 196 480.367 C 196 480.563, 197.688 480.349, 199.750 479.892 C 201.813 479.436, 208.093 478.550, 213.706 477.924 L 223.912 476.786 226.775 467.878 C 228.349 462.979, 229.419 458.753, 229.152 458.486 C 227.829 457.163, 220.865 458.625, 215.654 461.320 M 230.696 467.340 C 227.367 477.561, 227.351 477.192, 231.105 476.813 C 234.040 476.517, 234.345 476.071, 236.677 468.655 C 238.034 464.340, 238.999 460.691, 238.822 460.546 C 238.645 460.400, 237.351 460.007, 235.946 459.671 C 233.506 459.088, 233.272 459.430, 230.696 467.340 M 243.524 461.810 C 242.883 462.451, 242.823 466, 243.453 466 C 244.621 466, 249 463.597, 249 462.956 C 249 462.073, 244.254 461.079, 243.524 461.810 M 330.547 462.870 L 327.593 463.503 330.047 465.074 C 335.027 468.262, 335 468.262, 335 465.059 C 335 463.377, 334.663 462.053, 334.250 462.118 C 333.837 462.183, 332.171 462.522, 330.547 462.870 M 340 464.353 C 340 465.648, 340.289 469.473, 340.642 472.853 L 341.285 479 344.778 479 L 348.272 479 347.636 474.360 C 347.286 471.809, 347 467.984, 347 465.860 C 347 462.115, 346.896 462, 343.500 462 C 340.492 462, 340 462.330, 340 464.353 M 350.544 467.750 C 351.674 479.326, 351.879 479.942, 354.794 480.528 C 356.282 480.827, 359.790 481.731, 362.588 482.536 C 365.386 483.341, 368.761 484.010, 370.088 484.022 C 383.748 484.146, 393.477 503.822, 384.046 512.250 C 378.718 517.011, 372.218 516.036, 364.747 509.356 C 361.978 506.880, 360.061 506, 357.436 506 L 353.877 506 354.493 510.750 C 355.464 518.236, 355.962 520, 357.103 520 C 359.453 520, 384.689 532.407, 387.342 534.866 C 399.243 545.898, 393.818 563.721, 379.715 559.923 C 375.618 558.820, 368.084 552.296, 365.367 547.500 C 364.744 546.400, 363.855 545.864, 363.391 546.309 C 360.359 549.220, 376.122 567.985, 392.500 580.961 L 400.500 587.299 400.794 576.900 C 401.166 563.712, 397.722 534.278, 391.953 501.351 C 390.879 495.218, 390 489.125, 390 487.810 C 390 486.459, 387.358 481.819, 383.928 477.146 C 378.286 469.459, 377.654 468.917, 375.011 469.498 C 370.855 470.410, 364.312 468.316, 360.783 464.943 C 358.463 462.726, 356.751 462, 353.843 462 L 349.983 462 350.544 467.750 M 727.829 465.769 C 718.376 470.603, 706 478.235, 706 479.230 C 706 479.654, 708.138 479.999, 710.750 479.999 C 713.362 479.998, 719.143 480.507, 723.596 481.129 L 731.692 482.260 739.596 478 C 749.895 472.449, 749.719 472.673, 746.954 468.637 C 741.799 461.114, 738.034 460.550, 727.829 465.769 M 367 464.488 C 370.159 466.309, 375.327 466.484, 374.751 464.750 C 374.509 464.021, 372.287 463.405, 369.418 463.273 C 364.687 463.055, 364.595 463.101, 367 464.488 M 247.840 468.185 C 244.176 469.847, 240.965 471.948, 240.703 472.854 C 240.441 473.759, 239.926 475.227, 239.558 476.117 C 238.982 477.506, 240.196 477.851, 248.194 478.572 C 253.312 479.034, 257.950 479.350, 258.500 479.274 C 260.351 479.019, 277.967 471.506, 277.984 470.964 C 278.007 470.210, 258.905 464.982, 256.489 465.082 C 255.395 465.127, 251.503 466.523, 247.840 468.185 M 622.588 468.858 L 619.675 469.500 626.060 476.754 C 632.200 483.729, 632.580 483.983, 635.972 483.371 C 637.913 483.021, 639.654 482.603, 639.842 482.442 C 640.386 481.976, 627.655 468.516, 626.521 468.358 C 625.960 468.280, 624.189 468.505, 622.588 468.858 M 639.517 469.981 C 637.522 472.185, 637.693 472.570, 643.394 478.750 C 647.481 483.180, 648.400 482.924, 657 474.953 L 664.500 468.003 652.905 468.001 C 642.616 468, 641.108 468.223, 639.517 469.981 M 665.474 473.549 C 661.638 476.601, 658.385 479.421, 658.245 479.815 C 658.104 480.209, 661.704 480.223, 666.245 479.846 C 670.785 479.468, 679.736 479.123, 686.137 479.080 L 697.773 479 703.497 475.285 L 709.222 471.569 706.393 470.813 C 703.882 470.142, 679.713 468.015, 674.474 468.004 C 673.359 468.002, 669.309 470.497, 665.474 473.549 M 598.362 471.120 C 590.959 471.898, 589.916 472.284, 586.802 475.398 C 582.833 479.367, 576.330 481.491, 571.666 480.342 C 569.925 479.913, 568.062 479.548, 567.527 479.531 C 566.992 479.514, 565.835 483.851, 564.958 489.169 L 563.361 498.838 568.681 505.123 C 571.606 508.579, 574 511.766, 574 512.204 C 574 514.019, 572.012 512.721, 567.643 508.050 L 563.013 503.100 562.423 505.800 C 562.098 507.285, 561.647 509.095, 561.420 509.822 C 561.193 510.549, 562.131 512.616, 563.504 514.416 C 566.951 518.936, 566.698 521.043, 563.119 517.614 L 560.239 514.855 558.036 522.177 C 555.598 530.280, 551.227 537.854, 547.016 541.268 C 544.435 543.361, 544.127 544.494, 542.056 559.500 C 540.841 568.300, 539.623 576.455, 539.348 577.621 C 538.932 579.384, 539.945 580.356, 545.341 583.374 C 553.597 587.991, 587.676 605.063, 595.242 608.372 L 600.984 610.883 603.587 606.441 C 607.687 599.446, 609.699 600.749, 605.998 608.004 C 604.035 611.852, 604.033 611.947, 605.904 612.948 C 607.548 613.828, 608.273 613.250, 611.156 608.757 C 612.995 605.890, 616.171 601.510, 618.212 599.022 C 626.052 589.473, 627 588.194, 627 587.172 C 627 584.707, 624.588 584.996, 620.983 587.894 C 616.115 591.806, 615.117 590.526, 619.187 585.589 L 622.280 581.837 616.039 575.540 C 611.837 571.300, 610.191 569, 611 568.500 C 611.747 568.039, 614.557 570.092, 618.421 573.922 C 624.327 579.775, 624.789 580.033, 627.571 579.014 C 629.182 578.424, 631.060 577.744, 631.743 577.504 C 632.482 577.245, 630.960 575.172, 627.993 572.397 C 623.387 568.088, 621.685 565, 623.917 565 C 624.422 565, 627.086 567.567, 629.837 570.704 L 634.840 576.407 654.879 576.454 L 674.917 576.500 676.702 572 C 678.909 566.435, 679.173 551.095, 677.145 546.289 L 675.789 543.077 670.015 545.993 C 665.957 548.041, 664.056 549.642, 663.620 551.377 C 661.371 560.340, 649.056 565.619, 639.718 561.623 C 624.107 554.944, 626.397 532.430, 643 529.358 C 646.042 528.796, 659.036 520.373, 658.979 519 C 658.968 518.725, 657.056 516.338, 654.729 513.695 L 650.500 508.889 638.257 510.866 C 626.621 512.745, 625.848 513.019, 622.676 516.382 C 611.480 528.253, 592.705 520.120, 592.548 503.331 C 592.464 494.286, 598.665 488.741, 608.730 488.862 C 611.860 488.899, 617.509 487.992, 621.283 486.845 L 628.145 484.761 625.338 481.631 C 613.571 468.505, 615.628 469.307, 598.362 471.120 M 568.162 473.104 C 568.731 477.119, 578.982 477.447, 582.855 473.574 C 584.286 472.142, 583.890 471.999, 578.464 471.986 C 575.184 471.979, 571.448 471.691, 570.162 471.347 C 568.138 470.805, 567.870 471.040, 568.162 473.104 M 275.713 476.747 C 270.330 478.679, 266.126 480.459, 266.370 480.703 C 266.613 480.947, 271.365 482.198, 276.929 483.484 L 287.045 485.821 295.773 483.981 C 300.573 482.969, 304.725 482.083, 305 482.013 C 305.587 481.863, 296.462 477.616, 290 475.033 L 285.500 473.234 275.713 476.747 M 748.598 478.841 C 748.312 479.304, 749.523 480.733, 751.289 482.019 C 753.055 483.304, 755.850 485.348, 757.500 486.561 C 759.311 487.892, 761.189 488.511, 762.238 488.124 C 763.612 487.617, 762.636 486.490, 757.570 482.741 C 751.129 477.974, 749.557 477.290, 748.598 478.841 M 741.946 482.068 C 739.731 483.489, 747.556 489.925, 751.500 489.925 L 754.500 489.925 750.500 486.424 C 745.086 481.684, 743.668 480.962, 741.946 482.068 M 208.500 484.040 C 202.781 486.267, 201 488.202, 201 492.191 L 201 495 208.250 495.023 C 231.708 495.096, 261.955 499.844, 284.500 506.991 C 287.800 508.037, 296.575 509.405, 304 510.031 C 311.425 510.657, 322.140 511.943, 327.812 512.889 C 333.483 513.835, 338.331 514.274, 338.583 513.865 C 339.520 512.350, 317.055 500.824, 301.923 495.056 C 274.446 484.583, 222.759 478.489, 208.500 484.040 M 311 485.599 C 295.648 487.635, 295.153 488.086, 304.587 491.429 C 308.939 492.972, 315.200 495.629, 318.500 497.333 C 324.447 500.405, 324.676 500.439, 344.500 501.098 C 355.500 501.464, 366.413 502.099, 368.750 502.509 L 373 503.256 373 499.062 C 373 493.497, 371.740 491.418, 366.861 488.929 C 357.192 483.997, 333.655 482.593, 311 485.599 M 658 485.500 C 617.119 489.674, 602.847 496.082, 611.891 506.204 L 614.782 509.439 623.141 508.173 C 656.745 503.082, 666.600 501.887, 682.487 500.976 C 692.380 500.409, 701.661 500.206, 703.111 500.524 C 704.701 500.874, 711.646 499.525, 720.623 497.125 C 728.805 494.936, 737.300 492.754, 739.500 492.275 L 743.500 491.403 741 489.767 C 733.586 484.915, 687.124 482.526, 658 485.500 M 193.809 487.750 C 188.837 493.081, 187.571 498.428, 190.571 501.429 C 192.569 503.426, 198.032 503.457, 200.559 501.485 C 202.402 500.046, 202.361 500.001, 199.743 500.595 C 192.230 502.299, 189.413 494.387, 195.400 488.400 C 197.270 486.530, 198.254 485, 197.587 485 C 196.920 485, 195.220 486.238, 193.809 487.750 M 181.547 495.701 C 176.242 501.718, 172.161 510.633, 162.935 536.356 C 157.716 550.909, 150.709 574.042, 151.331 574.664 C 151.839 575.173, 169.190 564.712, 176.760 559.333 C 186.484 552.423, 197.305 540.972, 195.663 539.329 C 195.328 538.995, 192.943 540.863, 190.363 543.480 C 182.642 551.311, 174.253 553.344, 169.455 548.545 C 162.936 542.027, 171.809 525.424, 182.913 523.364 C 184.886 522.998, 187.400 522.137, 188.500 521.452 C 190.811 520.011, 200.589 516.549, 206.686 515.012 C 210.557 514.037, 211.028 513.542, 212.936 508.441 C 214.071 505.407, 215 502.492, 215 501.962 C 215 500.676, 207.289 500.723, 206.491 502.014 C 206.146 502.572, 204.017 503.971, 201.759 505.123 C 191.877 510.164, 182.316 503.191, 185.962 493.601 C 187.606 489.276, 186.926 489.600, 181.547 495.701 M 378.896 493.535 C 385.059 500.553, 382.162 508.322, 373.435 508.181 C 368.907 508.108, 368.660 508.221, 370.441 509.551 C 372.374 510.994, 374.696 511.418, 378.500 511.022 C 385.478 510.296, 386.177 499.361, 379.701 492.250 C 376.304 488.521, 375.551 489.724, 378.896 493.535 M 393.442 492 C 393.734 493.375, 394.166 496.975, 394.404 500 C 394.641 503.025, 395.088 506.175, 395.398 507 C 396.325 509.465, 402 550.543, 402 554.782 C 402 559.974, 403.762 564.802, 406.116 566.062 C 407.932 567.034, 407.991 566.752, 407.367 560.041 C 406.931 555.353, 407.066 553, 407.769 553 C 408.779 553, 409.156 554.639, 410.587 565.250 C 410.939 567.862, 411.594 570, 412.043 570 C 412.492 570, 416.491 573.705, 420.930 578.234 C 425.368 582.763, 429 586, 429 585.427 C 429 580.238, 414.572 513.256, 412.322 508 C 411.281 505.569, 409.476 503.825, 406.412 502.289 L 402 500.079 402 503.598 C 402 508.078, 400.282 507.146, 399.451 502.215 C 398.508 496.615, 398.151 495.754, 395.425 492.500 C 392.960 489.558, 392.921 489.549, 393.442 492 M 752.500 494.453 C 735.531 497.454, 728.330 499.184, 712 504.186 C 675.672 515.313, 651.934 526.899, 646.090 536.354 C 643.322 540.833, 643.444 542.093, 646.977 545.478 C 650.704 549.049, 652.383 548.642, 670.109 539.876 C 698.074 526.047, 748.018 510.215, 779.234 505.285 C 785.155 504.350, 790 503.322, 790 503 C 790 502.679, 788.087 500.582, 785.750 498.339 C 778.375 491.265, 773.653 490.713, 752.500 494.453 M 600.707 495.016 C 591.650 502.140, 598.532 517.974, 610.694 517.993 C 613.823 517.998, 615.602 517.342, 617.694 515.412 C 619.645 513.613, 619.940 513.004, 618.663 513.414 C 607.561 516.979, 600 513.139, 600 503.934 C 600 501.487, 600.963 499.888, 604.250 496.884 C 608.376 493.112, 608.423 493, 605.884 493 C 604.446 493, 602.117 493.907, 600.707 495.016 M 451.409 496.972 C 446.237 499.064, 445.644 510.577, 450.494 514.748 C 458.545 521.674, 466.902 510.912, 460.996 501.225 C 459.451 498.691, 455.061 495.592, 453.685 496.063 C 453.583 496.098, 452.559 496.507, 451.409 496.972 M 219.643 501.769 C 219.381 502.192, 218.281 504.871, 217.198 507.721 L 215.229 512.904 218.364 512.320 C 222.315 511.584, 222.411 511.478, 224.306 505.750 L 225.879 501 222.998 501 C 221.414 501, 219.904 501.346, 219.643 501.769 M 452.200 502.200 C 449.748 504.652, 451.270 511.122, 454.599 512.400 C 458.556 513.918, 460.513 507.605, 457.443 503.223 C 455.705 500.741, 453.993 500.407, 452.200 502.200 M 415.568 502.890 C 415.266 503.379, 418.958 509.798, 423.774 517.154 C 436.210 536.153, 437.090 537.310, 438.234 536.166 C 438.884 535.516, 437.246 531.818, 433.437 525.339 C 420.698 503.669, 417.539 499.701, 415.568 502.890 M 237 505.593 C 230.039 508.264, 225.197 511.783, 230.026 510.661 C 231.416 510.338, 240.528 509.763, 250.276 509.382 C 260.024 509.002, 268 508.372, 268 507.983 C 268 507.171, 249.047 502.975, 245.712 503.049 C 244.495 503.076, 240.575 504.220, 237 505.593 M 343.352 507.182 C 343.693 508.457, 343.979 510.928, 343.986 512.672 C 343.998 515.418, 344.480 516.003, 347.567 517.022 C 352.041 518.499, 351.930 518.668, 351.152 511.500 L 350.500 505.500 346.615 505.182 C 342.984 504.884, 342.771 505.014, 343.352 507.182 M 168.760 507.974 C 167.354 509.080, 165.758 511.828, 165.131 514.224 C 163.839 519.160, 160.059 524.704, 160.022 521.718 C 160.010 520.738, 160.681 518.306, 161.513 516.314 C 163.298 512.042, 163.290 512.025, 159.756 512.704 C 155.286 513.562, 145.266 528.673, 133.522 552.265 C 127.837 563.686, 122.700 574.422, 122.107 576.124 L 121.028 579.218 125.264 575.823 C 127.594 573.956, 130.625 571.655, 132 570.711 C 145.079 561.728, 145.135 561.669, 147.562 554.012 C 148.832 550.006, 150.343 546.257, 150.919 545.681 C 153.076 543.524, 153.155 546.084, 151.118 552.118 C 149.961 555.544, 149.156 558.489, 149.330 558.663 C 150.770 560.103, 153.883 554.237, 157.925 542.466 C 162.228 529.936, 165.620 521.061, 170.432 509.750 C 172.271 505.426, 172.155 505.303, 168.760 507.974 M 671.637 506.727 L 668.774 507.155 671.454 509.952 L 674.134 512.749 681.317 509.754 C 685.268 508.106, 688.688 506.587, 688.917 506.379 C 689.458 505.887, 675.364 506.171, 671.637 506.727 M 656 508.582 C 656 508.902, 657.626 511.147, 659.612 513.572 L 663.225 517.980 666.104 516.279 L 668.984 514.578 665.796 511.289 C 662.935 508.338, 656 506.421, 656 508.582 M 141.195 518.760 C 127.087 536.180, 122.856 542.256, 124.020 543.420 C 125.900 545.300, 153.518 512.329, 151.798 510.256 C 150.038 508.136, 149.353 508.685, 141.195 518.760 M 787.132 509.466 C 789.039 511.372, 815.729 524.609, 830 530.727 L 833.500 532.227 831.533 530.045 C 830.451 528.844, 821.902 524.047, 812.536 519.384 C 803.169 514.721, 795.077 510.477, 794.553 509.953 C 794.029 509.429, 792.040 509, 790.133 509 C 788.227 509, 786.876 509.210, 787.132 509.466 M 401.431 515.193 C 402.191 520.921, 402.621 522, 404.147 522 C 405.104 522, 404.674 516.405, 403.360 511.750 C 402.194 507.623, 400.765 510.174, 401.431 515.193 M 777.630 510.712 C 772.207 512.106, 810.997 531.192, 818.748 530.944 C 819.712 530.913, 814.200 527.834, 806.500 524.102 C 798.800 520.370, 789.800 515.671, 786.500 513.661 C 783.200 511.650, 780.275 510.056, 780 510.119 C 779.725 510.181, 778.658 510.448, 777.630 510.712 M 244.312 514 C 214.122 515.796, 189.588 522.040, 184.570 529.204 C 182.924 531.554, 182.392 538, 183.843 538 C 184.307 538, 187.345 537.085, 190.593 535.966 C 209.512 529.450, 226.075 527.509, 262.500 527.538 C 310.536 527.576, 342.093 532.160, 369.776 543.120 C 373.778 544.704, 377.265 546, 377.526 546 C 378.682 546, 377.853 537.235, 376.517 535.327 C 371.187 527.719, 341.931 518.360, 313 515.009 C 300.186 513.525, 261.785 512.961, 244.312 514 M 753.342 515.952 C 731.044 521.669, 689.806 536.065, 690.554 537.871 C 697.096 553.657, 697.059 564.167, 690.400 581.413 C 689.993 582.466, 693.450 580.035, 698.080 576.012 C 724.022 553.477, 755.604 539.283, 791.358 534.091 L 803.500 532.328 795.540 528.632 C 791.162 526.599, 783.210 522.251, 777.868 518.968 C 766.663 512.082, 767.861 512.229, 753.342 515.952 M 481.913 516.282 C 477.522 519.653, 476.759 526.873, 480.250 532.025 C 486.216 540.830, 496.119 535.756, 494.665 524.638 C 493.729 517.476, 486.515 512.749, 481.913 516.282 M 577 517.892 C 577 519.124, 585.973 529, 587.093 529 C 588.914 529, 587.902 527.107, 583.407 522.108 C 579.046 517.257, 577 515.911, 577 517.892 M 484.058 520.431 C 481.339 523.707, 483.330 532, 486.835 532 C 490.955 532, 492.505 525.594, 489.443 521.223 C 487.650 518.662, 485.756 518.384, 484.058 520.431 M 567 520.994 C 567 521.540, 570.263 525.648, 574.250 530.121 C 578.237 534.595, 583.110 540.081, 585.077 542.312 C 587.667 545.251, 588.873 546.015, 589.448 545.084 C 589.961 544.254, 588.982 542.509, 586.678 540.150 C 584.719 538.142, 579.898 532.788, 575.966 528.250 C 569.234 520.480, 567 518.673, 567 520.994 M 157.526 526.950 C 155.824 530.240, 155.535 533, 156.891 533 C 157.635 533, 161 526.023, 161 524.480 C 161 522.899, 158.818 524.451, 157.526 526.950 M 403.694 527.734 C 403.450 528.155, 403.616 530.975, 404.062 534 C 404.508 537.025, 405.189 541.862, 405.575 544.750 C 406.597 552.406, 408.156 551.180, 407.483 543.250 C 406.278 529.037, 405.288 524.982, 403.694 527.734 M 174.150 533.340 C 165.826 542.200, 174.586 552.493, 183.694 544.555 L 186.500 542.109 181.819 543.772 C 177.357 545.357, 177.041 545.347, 175.069 543.562 C 172.367 541.117, 172.459 539.077, 175.470 534.640 C 178.251 530.542, 177.486 529.789, 174.150 533.340 M 244.500 532.035 C 219.212 533.328, 218.481 533.499, 215.349 538.877 C 210.535 547.140, 205.339 553.519, 197.344 560.977 C 193.030 565.002, 190.400 567.970, 191.500 567.574 C 213.508 559.642, 247.849 555.873, 279.417 557.926 C 310.238 559.930, 331.468 564.502, 361.500 575.602 C 362.711 576.050, 361.503 574.204, 358.435 570.921 C 351.934 563.963, 348.169 557.498, 344.800 547.507 L 342.100 539.500 336.800 538.271 C 325.603 535.676, 302.765 532.878, 285.500 531.986 C 265.958 530.977, 265.178 530.978, 244.500 532.035 M 428.070 534.250 C 428.331 538.892, 424.110 535.971, 483 572.246 C 495.925 580.208, 515.950 592.718, 527.500 600.047 C 539.050 607.376, 554.543 616.874, 561.929 621.154 C 574.863 628.648, 575.408 628.862, 576.736 626.967 C 578.743 624.101, 579.138 624.220, 598.126 633.397 C 647.731 657.371, 704.656 669.366, 769 669.402 C 827.541 669.434, 874.295 658.774, 905.191 638.348 C 921.879 627.316, 929.913 611.819, 923.382 603.257 L 920.765 599.825 918.460 605.498 C 905.175 638.183, 847.590 658.413, 768 658.354 C 737.035 658.332, 726.432 657.453, 696.711 652.447 C 644.727 643.690, 615.179 632.736, 550.099 598.096 C 537.952 591.630, 536.542 591.105, 535.021 592.481 C 533.016 594.296, 527.881 594.481, 526.200 592.800 C 525.540 592.140, 525 589.931, 525 587.891 C 525 584.206, 524.930 584.143, 513.750 577.889 C 501.370 570.963, 478.731 557.283, 458.262 544.359 C 443.843 535.255, 444 535.331, 444 537.477 C 444 539.781, 439.389 542.314, 436.509 541.592 C 435.126 541.245, 432.823 539.179, 431.369 536.981 C 428.570 532.752, 427.958 532.245, 428.070 534.250 M 591.891 534.750 C 593.612 537.882, 603.744 547.222, 604.353 546.238 C 605.123 544.992, 594.278 533, 592.381 533 C 591.299 533, 591.174 533.446, 591.891 534.750 M 637.013 536.986 C 633.515 540.731, 632.663 544.033, 633.956 548.835 C 636.800 559.399, 649.946 562.347, 657.413 554.096 C 660.516 550.668, 658.261 550.338, 652.611 553.395 C 646.652 556.618, 644.228 556.393, 639.750 552.201 C 636.195 548.872, 636.125 544.169, 639.542 538.338 C 642.477 533.330, 641.111 532.599, 637.013 536.986 M 154.128 536.345 C 152.555 538.241, 151.521 544, 152.754 544 C 153.657 544, 154.746 541.819, 156.375 536.750 C 157.041 534.677, 155.711 534.438, 154.128 536.345 M 206.325 536.799 C 203.731 537.058, 202.289 538.287, 198.452 543.514 C 192.209 552.017, 183.600 559.120, 165.500 570.698 C 145.620 583.416, 137.007 590.088, 127.712 599.968 C 118.401 609.866, 118.528 612.856, 127.872 603.734 C 136.135 595.669, 141.724 591.629, 159.896 580.586 C 185.010 565.324, 198.060 554.494, 207.010 541.486 C 210.607 536.257, 210.624 536.371, 206.325 536.799 M 383 536.151 C 383 536.404, 384.125 538.136, 385.500 540 C 388.363 543.881, 388.687 547.575, 386.443 550.777 C 384.503 553.548, 381.180 553.617, 375.764 551 C 370.419 548.418, 370.161 548.475, 373.076 551.595 C 378.371 557.263, 386.583 558.516, 388.988 554.023 C 390.432 551.324, 390.238 545.361, 388.602 542.198 C 387.327 539.732, 383 535.061, 383 536.151 M 800 538.053 C 744.734 543.090, 690.836 577.302, 670.485 620.264 C 664.219 633.490, 664.177 633.334, 674.750 635.900 C 720.727 647.058, 786.512 649.231, 827.278 640.940 C 880.330 630.149, 909.196 613.059, 908.978 592.568 C 908.867 582.089, 886.443 560.054, 864.500 548.861 C 842.598 537.689, 829.002 535.410, 800 538.053 M 681.750 539.689 C 679.617 540.247, 679.617 540.246, 681.601 548.688 C 684.848 562.502, 682.222 572.700, 670.952 590.045 C 663.593 601.371, 651 625.159, 651 627.733 C 651 631.085, 653.945 629.424, 655.534 625.177 C 660.731 611.283, 674.523 587.123, 676.264 588.864 C 676.930 589.530, 675.253 593.307, 671.238 600.182 C 666.144 608.904, 657 628.293, 657 630.371 C 657 632.474, 660.874 630.635, 661.467 628.250 C 662.546 623.917, 669.417 609.749, 674.814 600.733 C 685.292 583.228, 689.329 571.607, 689.313 559 C 689.303 550.886, 686.175 538.774, 684.178 539.116 C 683.805 539.180, 682.712 539.438, 681.750 539.689 M 351.223 547.954 C 356.086 561.468, 369.525 575.825, 391.554 591.038 C 404.553 600.014, 412.646 607.361, 419.108 616.051 C 424.588 623.420, 427.555 624.539, 423.773 617.810 C 419.317 609.882, 408.833 599.061, 392.204 585.228 C 371.903 568.340, 366.102 562.065, 360.899 551.369 C 356.966 543.284, 355.461 542, 349.916 542 C 349.457 542, 350.045 544.679, 351.223 547.954 M 534.122 549.250 C 529.265 577.265, 528.178 589, 530.441 589 C 532.595 589, 532.630 588.872, 535.939 568.453 C 537.628 558.029, 539.253 548.038, 539.550 546.250 C 540.037 543.323, 539.848 543, 537.648 543 C 535.434 543, 535.104 543.585, 534.122 549.250 M 432.087 551.606 C 433.087 555.804, 434.039 559.352, 434.203 559.490 C 434.366 559.628, 441.025 563.678, 449 568.489 C 456.975 573.301, 480.494 588.772, 501.264 602.869 C 522.035 616.966, 545.863 632.861, 554.215 638.190 L 569.402 647.880 571.620 640.192 C 572.839 635.963, 573.761 632.456, 573.669 632.398 C 573.576 632.340, 571.250 631.023, 568.500 629.471 C 560.929 625.198, 532.360 607.641, 494.287 583.865 C 475.469 572.114, 454.769 559.235, 448.287 555.244 C 441.804 551.253, 435.098 547.084, 433.384 545.981 L 430.269 543.974 432.087 551.606 M 591.655 547.750 C 590.730 549.246, 599.264 558.412, 601.033 557.822 C 602.051 557.483, 600.990 555.792, 597.389 552.018 C 594.440 548.926, 592.034 547.136, 591.655 547.750 M 608 551.288 C 608 553.226, 617.607 562.298, 619.125 561.792 C 619.978 561.507, 618.546 559.343, 615.078 555.676 C 609.669 549.957, 608 548.922, 608 551.288 M 603 560.130 C 603 562.048, 607.483 566.339, 608.970 565.843 C 609.582 565.639, 608.489 563.928, 606.541 562.040 C 604.208 559.778, 603 559.127, 603 560.130 M 148.724 562.752 C 146.834 564.841, 146.448 567, 147.965 567 C 149.175 567, 151.246 563.238, 150.789 561.868 C 150.602 561.306, 149.673 561.704, 148.724 562.752 M 235.056 564.113 C 192.600 567.882, 145.586 588.799, 126.813 612.272 L 123.797 616.045 126.433 619.501 C 145.611 644.645, 187.610 661.404, 251 669.207 C 266.570 671.124, 314.049 670.786, 330.362 668.641 C 368.381 663.644, 394.219 653.299, 414 635.154 L 420.500 629.192 418 624.346 C 416.625 621.681, 411.675 615.665, 407 610.977 C 372.732 576.616, 304.306 557.966, 235.056 564.113 M 139.319 568.071 C 137.019 569.210, 134.421 571.234, 133.546 572.570 C 132.670 573.907, 131.402 575.009, 130.727 575.021 C 129.260 575.046, 117.615 585.949, 118.312 586.645 C 118.578 586.912, 122.555 584.120, 127.148 580.441 C 131.742 576.762, 137.412 572.437, 139.750 570.828 C 146.095 566.463, 145.841 564.843, 139.319 568.071 M 404 579.406 C 404 589.776, 404.194 591.033, 405.934 591.965 C 408.992 593.601, 409.298 593.260, 408.710 588.877 C 408.124 584.509, 408.634 582, 410.107 582 C 410.598 582, 411 585.174, 411 589.054 L 411 596.109 416.767 602.809 C 419.939 606.495, 423.577 611.198, 424.852 613.261 C 427.843 618.100, 428.567 617.497, 430.006 608.966 C 431.183 601.985, 431.173 601.915, 428.358 598.220 C 422.731 590.832, 412.679 580.488, 410.612 579.959 C 408.282 579.362, 407.185 575.415, 408.878 573.722 C 409.608 572.992, 410.208 573.417, 410.858 575.126 C 411.370 576.474, 414.365 579.777, 417.512 582.466 C 420.658 585.154, 424.981 589.565, 427.117 592.267 C 429.252 594.969, 430.996 596.577, 430.991 595.840 C 430.986 595.103, 428.749 591.623, 426.020 588.107 C 423.291 584.591, 421.297 581.329, 421.588 580.857 C 421.880 580.386, 421.579 580, 420.920 580 C 420.262 580, 416.748 577.596, 413.111 574.658 C 409.475 571.720, 405.938 568.993, 405.250 568.599 C 404.281 568.043, 404 570.471, 404 579.406 M 146.756 570.260 C 145.406 571.308, 143.024 577.675, 143.006 580.285 C 142.986 583.004, 146.947 578.269, 147.918 574.411 C 149.238 569.168, 149.047 568.483, 146.756 570.260 M 436.344 573.250 C 436.652 574.487, 437.213 577.443, 437.591 579.818 C 438.037 582.626, 439.016 584.592, 440.389 585.442 C 441.550 586.160, 449.250 590.910, 457.500 595.998 C 475.329 606.992, 496.486 621.540, 514.829 635.417 C 539.655 654.198, 566.497 673.979, 567.171 673.990 C 567.540 673.995, 567.990 670.634, 568.171 666.520 L 568.500 659.041 546 643.953 C 533.625 635.655, 514.725 622.793, 504 615.370 C 482.470 600.471, 437.640 571, 436.505 571 C 436.108 571, 436.035 572.013, 436.344 573.250 M 129.301 581.824 C 116.588 591.972, 116.763 591.731, 117.582 597.909 C 117.954 600.709, 118.537 603.002, 118.879 603.004 C 119.220 603.007, 121.975 600.393, 125 597.197 C 128.025 594.001, 132.603 589.612, 135.174 587.443 C 139.159 584.082, 139.951 582.799, 140.538 578.750 C 141.458 572.411, 140.903 572.563, 129.301 581.824 M 641.415 581.911 C 644.197 584.815, 644.234 584.822, 657.027 584.937 C 669.216 585.045, 669.928 584.941, 671.410 582.825 C 673.805 579.405, 672.156 579.032, 654.563 579.015 L 638.626 579 641.415 581.911 M 631.074 580.877 C 627.976 581.743, 627.464 583.321, 629.591 585.448 C 630.779 586.636, 631.583 586.817, 632.336 586.064 C 632.921 585.479, 634.660 585, 636.200 585 C 639.449 585, 639.744 583.983, 637.171 581.655 C 635.214 579.883, 634.813 579.832, 631.074 580.877 M 648.885 587.673 C 648.822 588.128, 648.850 589.288, 648.948 590.250 C 649.184 592.571, 647.732 592.466, 645.500 590 C 644.071 588.421, 642.420 588, 637.658 588 L 631.626 588 634.423 590.920 C 638.370 595.039, 637.234 596.642, 632.900 593.069 L 629.309 590.109 625.325 594.305 C 618.056 601.959, 610.181 614.376, 611.916 615.448 C 615.461 617.639, 647.037 628.563, 647.469 627.748 C 647.541 627.612, 648.810 624.374, 650.289 620.553 L 652.978 613.606 650.739 611.075 C 649.508 609.683, 647.752 607.974, 646.838 607.277 C 645.924 606.580, 643.775 604.241, 642.063 602.079 C 636.628 595.218, 640.628 596.597, 647.777 604.049 L 654.616 611.179 656.474 607.058 L 658.332 602.938 655.054 599.555 C 650.627 594.988, 651.549 593.180, 656.306 597.101 C 658.394 598.822, 660.239 600.066, 660.405 599.865 C 660.571 599.664, 662.343 596.913, 664.341 593.750 L 667.975 588 664.738 587.943 C 662.957 587.911, 658.688 587.651, 655.250 587.365 C 651.813 587.079, 648.948 587.218, 648.885 587.673 M 610.655 595.829 C 608.835 597.840, 608.467 600, 609.943 600 C 610.951 600, 614 596.075, 614 594.777 C 614 593.422, 612.369 593.935, 610.655 595.829 M 104.615 597.453 C 98.974 606.097, 105.431 628.861, 117.534 643 C 146.648 677.012, 203.255 695.838, 282 697.695 C 342.851 699.131, 385.358 688.331, 415.791 663.702 C 432.406 650.256, 446.461 623.891, 442.108 614.337 L 440.840 611.555 438.934 617.199 C 432.858 635.199, 414.747 653.537, 391.388 665.341 C 347.597 687.471, 258.047 690.037, 191.987 671.055 C 141.322 656.496, 112.154 632.028, 107.325 600.032 L 106.500 594.564 104.615 597.453 M 95.777 608 C 90.650 618.585, 85.369 659.725, 87.753 670.500 C 88.526 673.996, 88.731 673.076, 89.376 663.198 C 90.635 643.913, 94.295 625.684, 98.321 618.641 C 99.131 617.223, 99.358 614.135, 98.992 609.500 L 98.440 602.500 95.777 608 M 928.799 616.443 C 927.178 621.499, 927.185 621.983, 928.939 626.626 C 932.166 635.166, 934.117 649.787, 934.721 669.956 C 935.492 695.725, 937.187 692.241, 937.775 663.675 C 938.246 640.816, 937.143 627.635, 933.991 618.474 C 931.239 610.476, 930.770 610.292, 928.799 616.443 M 99.669 623 C 95.696 633.341, 93.128 650.336, 92.339 671.510 C 91.742 687.536, 91.827 688.750, 93.809 692.510 L 95.912 696.500 95.956 691.390 C 96.083 676.672, 100.463 644.608, 103.536 635.899 C 104.926 631.959, 104.875 631.440, 102.627 626.613 C 101.052 623.231, 100.050 622.008, 99.669 623 M 445.102 626.980 C 443.997 631.289, 444.054 632.647, 445.524 637.071 C 446.457 639.883, 447.806 645.404, 448.521 649.342 L 449.820 656.500 449.910 644.299 C 449.996 632.641, 448.658 622, 447.106 622 C 446.706 622, 445.804 624.241, 445.102 626.980 M 921.201 629.090 L 917.901 632.852 919.427 638.176 C 922.554 649.089, 924.155 662.941, 924.716 683.930 L 925.289 705.360 928.056 702.263 C 931.686 698.200, 932.504 690.709, 931.634 669.500 C 930.791 648.967, 927.518 626.872, 925.140 625.655 C 924.788 625.474, 923.015 627.020, 921.201 629.090 M 577.115 636.250 C 571.254 654.130, 570.500 684.538, 575.798 689.309 C 577.393 690.746, 577.509 689.858, 577.637 675.171 C 577.766 660.524, 579.660 642.924, 581.949 635.108 C 584.259 627.218, 579.724 628.289, 577.115 636.250 M 585.041 636.750 C 582.682 645.155, 580.952 664.041, 581.222 678.447 L 581.500 693.247 584.500 695.558 L 587.500 697.868 587.659 679.684 C 587.796 664.012, 589.447 646.410, 591.622 637.438 C 591.990 635.923, 591.431 635.062, 589.514 634.188 C 586.037 632.604, 586.237 632.490, 585.041 636.750 M 105.970 638.579 C 104.021 643.706, 101.153 663.263, 100.068 678.830 C 98.486 701.533, 98.567 702.931, 101.750 707.849 L 104.500 712.099 105.208 698.184 C 105.961 683.382, 109.132 659.254, 111.570 649.771 L 113.044 644.043 110.043 639.901 L 107.042 635.758 105.970 638.579 M 441.082 637.889 C 441.037 638.654, 439.637 641.493, 437.972 644.200 L 434.944 649.121 436.482 656.567 C 438.670 667.160, 441 688.137, 441 697.244 C 441 706.776, 442.129 707.049, 445.168 698.250 C 448.040 689.936, 448.251 668.557, 445.617 652.731 C 444.137 643.845, 441.281 634.496, 441.082 637.889 M 594.090 642.265 C 591.932 653.072, 591 664.967, 591 681.711 L 591 698.975 594.980 701.487 C 597.169 702.869, 599.082 704, 599.230 704 C 599.379 703.999, 599.531 693.987, 599.568 681.750 C 599.616 665.931, 600.109 656.765, 601.273 650.039 C 602.174 644.835, 602.796 640.462, 602.654 640.321 C 602.513 640.180, 600.763 639.381, 598.766 638.547 L 595.136 637.030 594.090 642.265 M 909.250 640.690 C 906.362 642.710, 904.001 644.843, 904.001 645.431 C 904.002 646.019, 904.644 650.142, 905.427 654.593 C 907.599 666.936, 909.327 693.913, 908.763 706.688 C 908.193 719.618, 907.907 719.348, 915.867 713.405 L 920.800 709.723 921.508 698.883 C 922.465 684.223, 920.328 658.008, 916.850 641.750 C 915.634 636.062, 915.828 636.089, 909.250 640.690 M 605.597 644.750 C 603.224 656.375, 601.809 697.407, 603.543 704.317 C 604.018 706.208, 611.109 711, 613.432 711 C 613.641 711, 613.573 705.712, 613.281 699.250 C 612.811 688.842, 613.825 668.523, 615.651 651.773 L 616.275 646.047 611.555 644.023 C 605.747 641.534, 606.267 641.470, 605.597 644.750 M 893.658 649.615 C 889.391 651.833, 888.890 652.427, 889.440 654.616 C 891.672 663.512, 893.219 680.603, 893.705 701.750 C 894.012 715.087, 894.417 726, 894.605 726 C 894.793 726, 896.980 725.012, 899.465 723.805 C 905.348 720.946, 905.445 720.346, 904.650 691.577 C 904.015 668.607, 901.611 647.976, 899.500 647.381 C 898.950 647.226, 896.321 648.231, 893.658 649.615 M 114.103 652.750 C 111.651 663.369, 109.925 677.533, 108.802 696.255 L 107.617 716.009 111.004 719.505 C 112.868 721.427, 114.754 723, 115.196 723 C 115.638 723, 116.015 716.362, 116.034 708.250 C 116.073 691.145, 117.224 676.513, 119.612 662.755 L 121.304 653.011 118.600 650.505 C 115.151 647.309, 115.386 647.192, 114.103 652.750 M 619.516 649.250 C 617.534 655.138, 616.037 704.802, 617.660 710.865 C 618.062 712.367, 619.790 713.900, 622.397 715.069 L 626.500 716.908 627.108 695.196 C 627.674 674.964, 628.271 665.556, 629.636 655.376 L 630.189 651.252 625.416 649.626 C 619.702 647.679, 620.038 647.701, 619.516 649.250 M 632.568 660.750 C 631.099 676.830, 630.135 702.531, 630.700 710.534 L 631.286 718.841 636.393 720.802 C 639.202 721.880, 641.566 722.703, 641.646 722.631 C 641.726 722.559, 641.348 718, 640.806 712.500 C 639.853 702.830, 640.366 669.246, 641.608 659.941 L 642.217 655.382 638.243 654.191 C 636.057 653.536, 634.045 653, 633.772 653 C 633.499 653, 632.957 656.487, 632.568 660.750 M 428.137 657.358 L 424.882 660.717 426.383 669.108 C 428.593 681.461, 429.157 686.657, 430.387 705.975 L 431.500 723.450 434.853 718.975 L 438.205 714.500 437.628 698 C 436.992 679.842, 433.725 654, 432.065 654 C 431.695 654, 429.928 655.511, 428.137 657.358 M 877.758 656.802 C 872.865 658.744, 871.148 659.892, 871.496 660.989 C 874 668.888, 877.593 712.864, 876.775 725.605 C 876.514 729.672, 876.570 733.005, 876.900 733.010 C 880.025 733.063, 889.938 728.354, 890.411 726.592 C 892.700 718.065, 888.020 653.774, 885.131 654.063 C 884.784 654.098, 881.466 655.330, 877.758 656.802 M 123.562 660.521 C 121.655 670.685, 119.909 690.672, 119.413 708 L 118.855 727.500 122.678 730.323 L 126.500 733.146 127.154 716.323 C 127.842 698.613, 130.329 674.236, 132.132 667.522 C 133.176 663.632, 133.115 663.473, 129.350 660.287 C 124.542 656.219, 124.368 656.226, 123.562 660.521 M 645.739 657.663 C 643.047 662.294, 643.347 717.831, 646.093 723.124 C 646.930 724.737, 656.777 728.557, 657.705 727.629 C 657.971 727.363, 657.632 719.575, 656.952 710.322 C 656.194 700.017, 655.963 686.868, 656.356 676.381 L 656.996 659.261 653.748 658.669 C 651.962 658.344, 649.538 657.796, 648.363 657.452 C 647.187 657.107, 646.007 657.202, 645.739 657.663 M 660.544 661.929 C 659.578 663.492, 659.928 709.918, 660.978 719.500 C 661.521 724.450, 661.972 728.816, 661.982 729.203 C 661.992 729.590, 663.462 730.328, 665.250 730.845 C 667.038 731.361, 669.175 732.062, 670 732.403 C 671.317 732.946, 671.500 728.747, 671.500 698.067 L 671.500 663.112 667.307 662.056 C 662.169 660.762, 661.276 660.745, 660.544 661.929 M 859.948 662.606 L 855.396 664.004 856.599 672.252 C 858.321 684.064, 860 710.176, 860 725.155 C 860 733.802, 860.358 738, 861.096 738 C 861.699 738, 864.688 737.274, 867.739 736.387 L 873.286 734.775 872.703 710.637 C 872.198 689.717, 870.882 675.298, 868.426 663.750 C 867.767 660.650, 866.759 660.514, 859.948 662.606 M 674.462 676.704 C 673.723 689.390, 674.435 721.597, 675.634 729.728 C 676.225 733.734, 676.501 734.028, 680.879 735.308 C 683.420 736.052, 685.592 736.608, 685.704 736.543 C 685.816 736.479, 685.424 729.139, 684.833 720.234 C 684.073 708.790, 684.067 698.538, 684.811 685.271 C 685.390 674.947, 685.557 666.215, 685.182 665.867 C 684.807 665.519, 682.409 664.936, 679.853 664.571 L 675.207 663.908 674.462 676.704 M 417.196 667.908 L 413.893 670.735 415.410 679.618 C 417.378 691.135, 418.898 707.059, 419.170 719 C 419.289 724.225, 419.637 729.992, 419.943 731.816 L 420.500 735.133 423.892 731.623 L 427.283 728.112 427.117 716.806 C 426.812 696.105, 423.229 664.916, 421.171 665.041 C 420.802 665.063, 419.013 666.353, 417.196 667.908 M 844.500 666.248 C 841.750 666.804, 839.374 667.365, 839.220 667.493 C 839.066 667.621, 839.666 673.300, 840.553 680.113 C 841.440 686.926, 842.416 703.638, 842.721 717.250 C 843.026 730.862, 843.588 742, 843.971 742 C 849.280 742, 856.099 739.453, 856.648 737.265 C 857.531 733.748, 855.231 689.531, 853.488 676.500 C 852.679 670.450, 852.013 665.388, 852.008 665.250 C 851.996 664.870, 849.998 665.136, 844.500 666.248 M 135.655 666.750 C 133.715 669.892, 130.060 707.803, 130.023 725.166 L 130 735.832 133.844 738.877 L 137.688 741.921 138.358 723.394 C 138.943 707.185, 141.875 678.518, 143.573 672.395 C 144.285 669.830, 136.972 664.616, 135.655 666.750 M 688.464 680.750 C 687.691 695.099, 688.370 733.358, 689.445 736.057 C 689.989 737.422, 701.597 740.737, 702.538 739.796 C 702.717 739.616, 702.390 736.326, 701.811 732.485 C 701.232 728.643, 700.655 712.675, 700.528 697.001 L 700.298 668.501 696.399 667.808 C 688.742 666.447, 689.282 665.566, 688.464 680.750 M 828 669.444 L 821.500 670.528 821.714 674.014 C 821.832 675.931, 822.233 692.703, 822.605 711.284 L 823.282 745.067 829.391 744.394 C 840.282 743.193, 840.001 743.515, 839.991 732.275 C 839.973 712.849, 836.719 670.324, 835.144 668.930 C 834.790 668.617, 831.575 668.848, 828 669.444 M 704.590 669.903 C 702.686 673.263, 703.346 716.690, 705.588 735.600 L 706.193 740.701 711.347 741.635 L 716.500 742.569 716.500 706.785 C 716.500 683.635, 716.147 670.979, 715.500 670.941 C 714.950 670.908, 712.346 670.527, 709.714 670.094 C 707.082 669.661, 704.777 669.575, 704.590 669.903 M 720.320 672.609 C 719.649 674.356, 720.410 741.746, 721.108 742.443 C 721.903 743.236, 733.973 745.360, 734.529 744.805 C 734.763 744.570, 734.487 740.580, 733.914 735.939 C 733.341 731.298, 732.656 715.125, 732.391 700 L 731.911 672.500 726.336 671.978 C 722.617 671.630, 720.615 671.840, 720.320 672.609 M 809 671.913 L 803.500 672.500 803.758 676 C 804.344 683.963, 806.939 724.351, 807.570 735.334 C 808.227 746.766, 808.323 747.148, 810.375 746.598 C 811.544 746.284, 814.252 746.021, 816.393 746.014 L 820.287 746 819.653 713.750 C 818.918 676.368, 818.468 670.927, 816.123 671.163 C 815.230 671.253, 812.025 671.590, 809 671.913 M 146.581 673.852 C 144.027 682.464, 140.179 732.040, 141.421 740.325 C 141.979 744.040, 142.634 744.988, 145.923 746.837 C 148.040 748.026, 149.977 749, 150.227 749 C 150.477 749, 150.978 738.987, 151.341 726.750 C 151.927 706.977, 152.699 696.074, 154.577 681 C 155.130 676.568, 155.077 676.467, 151.104 674.352 C 147.480 672.423, 147.020 672.372, 146.581 673.852 M 406.140 675.752 L 401.779 678.333 402.403 683.917 C 403.975 697.984, 404.956 715.844, 404.977 730.750 C 404.990 739.688, 405.237 747, 405.526 747 C 405.815 747, 408.339 745.313, 411.135 743.250 L 416.219 739.500 415.706 720 C 415.248 702.575, 413.293 683.249, 411.238 675.836 L 410.500 673.171 406.140 675.752 M 736.101 697.250 C 736.156 710.587, 736.718 726.896, 737.351 733.491 L 738.500 745.481 743.903 746.254 C 746.874 746.680, 749.539 746.794, 749.824 746.510 C 750.109 746.225, 749.810 739.356, 749.161 731.246 C 748.511 723.136, 747.985 706.712, 747.990 694.750 L 748 673 742 673 L 736 673 736.101 697.250 M 787.333 685.912 C 787.676 692.836, 788.438 709.075, 789.026 722 C 789.613 734.925, 790.303 746.113, 790.559 746.862 C 790.907 747.884, 792.331 748.077, 796.262 747.636 C 799.143 747.313, 802.117 747.038, 802.871 747.024 C 803.996 747.004, 804.123 744.544, 803.581 733.250 C 802.716 715.218, 801.175 689.361, 800.421 680.200 L 799.820 672.900 793.264 673.112 L 786.708 673.325 787.333 685.912 M 751.607 675.582 C 750.179 679.304, 751.572 726.656, 753.566 742.172 L 754.166 746.845 761.628 747.544 C 765.732 747.929, 769.234 748.076, 769.410 747.872 C 769.713 747.520, 768.665 716.167, 767.383 687.250 L 766.795 674 759.505 674 C 753.779 674, 752.084 674.340, 751.607 675.582 M 770.403 678.250 C 770.692 680.587, 771.179 692.175, 771.485 704 C 771.791 715.825, 772.318 730.563, 772.657 736.750 L 773.272 748 780.208 748 L 787.144 748 786.573 742.750 C 786.259 739.862, 785.554 726.925, 785.007 714 C 784.460 701.075, 783.744 686.788, 783.417 682.250 L 782.820 674 776.349 674 L 769.877 674 770.403 678.250 M 158 680.039 C 158 680.611, 157.551 685.224, 157.002 690.289 C 155.462 704.500, 154.149 735.631, 154.730 744.163 L 155.252 751.827 160.876 754.373 L 166.500 756.920 167.166 733.210 C 167.533 720.170, 168.524 703.667, 169.370 696.537 C 170.216 689.408, 170.816 683.541, 170.704 683.499 C 170.592 683.458, 168.016 682.429, 164.981 681.212 C 158.726 678.705, 158 678.583, 158 680.039 M 393.621 682.683 L 388.742 685.170 389.376 690.335 C 391.101 704.371, 392.180 728.044, 391.702 741.325 C 391.109 757.766, 390.733 757.087, 397.924 752.548 L 402 749.975 401.985 735.237 C 401.969 718.969, 400.330 688.282, 399.213 683.348 L 398.500 680.195 393.621 682.683 M 173.595 690.250 C 171.130 710.616, 169.308 746.898, 170.388 754.101 C 171.031 758.389, 171.244 758.617, 176.278 760.404 C 179.150 761.423, 181.994 762.446, 182.598 762.677 C 183.368 762.972, 183.898 755.238, 184.372 736.799 C 184.743 722.334, 185.651 706, 186.389 700.500 C 187.126 695, 187.453 690.198, 187.115 689.830 C 186.647 689.320, 175.274 685, 174.400 685 C 174.307 685, 173.945 687.362, 173.595 690.250 M 379 688.992 L 374.500 690.777 374.674 697.639 C 375.343 724.013, 375.355 756.109, 374.696 759.250 C 373.729 763.861, 374.648 764.015, 382.471 760.555 L 388 758.110 388 735.161 C 388 708.136, 386.327 686.806, 384.231 687.104 C 383.829 687.161, 381.475 688.011, 379 688.992 M 190.556 694.250 C 188.962 703.929, 187.900 719.040, 187.328 740.177 L 186.687 763.853 192.594 765.505 C 195.842 766.413, 199.237 767.361, 200.137 767.610 C 201.620 768.021, 201.780 765.733, 201.836 743.282 C 201.895 719.711, 202.577 701.076, 203.554 696.321 C 203.943 694.430, 203.290 693.936, 198.597 692.571 C 191.363 690.468, 191.172 690.508, 190.556 694.250 M 362 694.439 C 359.525 695.123, 357.572 696.091, 357.660 696.591 C 359.840 708.968, 360.291 751.348, 358.380 764.250 C 357.737 768.586, 357.950 768.652, 365.515 766.453 L 370.838 764.905 371.405 757.703 C 372.759 740.503, 372.846 733.414, 371.929 715.500 C 370.647 690.496, 371.296 691.872, 362 694.439 M 206.694 700.659 C 205.549 711.632, 204.711 751.484, 205.443 760.210 C 206.231 769.612, 205.977 769.270, 213.114 770.532 L 216.728 771.172 217.344 737.336 C 217.683 718.726, 218.236 702.102, 218.573 700.393 C 219.264 696.882, 218.792 696.541, 211.780 695.490 L 207.304 694.818 206.694 700.659 M 222.351 698.527 C 220.871 702.384, 219.423 758.167, 220.577 766.869 L 221.236 771.836 227.450 772.918 C 230.868 773.513, 233.898 774, 234.183 774 C 234.469 774, 234.998 758.587, 235.358 739.750 C 235.719 720.913, 236.274 704.126, 236.592 702.446 L 237.169 699.393 229.976 698.398 C 224.757 697.677, 222.664 697.712, 222.351 698.527 M 346 698.361 C 343.348 699.069, 341.609 700.081, 341.765 700.825 C 342.740 705.481, 343.028 744.145, 342.179 756.491 C 341.612 764.736, 341.343 771.676, 341.580 771.913 C 341.818 772.151, 344.822 771.697, 348.256 770.904 L 354.500 769.463 355.299 761.482 C 356.182 752.668, 355.505 704.111, 354.439 699.750 C 353.693 696.699, 352.788 696.550, 346 698.361 M 239.658 706.143 C 238.519 717.471, 237.641 773.661, 238.594 774.221 C 239.092 774.514, 242.425 775.057, 246 775.429 L 252.500 776.103 252.679 738.552 L 252.858 701 250.179 700.989 C 248.705 700.983, 245.879 700.710, 243.899 700.382 L 240.297 699.787 239.658 706.143 M 327.828 700.903 C 324.708 701.237, 321.957 701.734, 321.715 702.006 C 321.473 702.278, 321.660 705.875, 322.132 710 C 322.604 714.125, 323.105 730.471, 323.245 746.325 L 323.500 775.150 328 774.537 C 330.475 774.200, 333.692 773.691, 335.149 773.405 L 337.798 772.885 338.622 758.193 C 339.674 739.442, 339.682 717.676, 338.642 707.750 C 337.730 699.055, 338.791 699.726, 327.828 700.903 M 256.630 704.250 C 255.840 707.199, 255.818 773.363, 256.607 775.418 C 257.063 776.606, 258.642 777, 262.951 777 L 268.689 777 269.398 740.492 C 269.788 720.412, 269.832 703.537, 269.495 702.992 C 269.158 702.446, 266.261 702, 263.058 702 C 257.863 702, 257.168 702.243, 256.630 704.250 M 307.680 702.733 L 303.860 703.129 304.673 712.315 C 305.121 717.367, 305.433 733.781, 305.368 748.791 L 305.248 776.083 312.374 775.791 L 319.500 775.500 319.462 744.500 C 319.441 727.450, 319.071 710.913, 318.640 707.750 C 317.768 701.356, 318.355 701.625, 307.680 702.733 M 272.519 739.556 C 272.112 759.662, 271.944 776.278, 272.146 776.479 C 272.347 776.681, 275.252 777.155, 278.600 777.534 L 284.688 778.223 285.344 770.461 C 285.705 766.191, 286 749.266, 286 732.849 L 286 703 279.630 703 L 273.259 703 272.519 739.556 M 289 736.875 C 289 755.506, 288.719 772.156, 288.375 773.875 L 287.750 777 294.316 777 C 297.927 777, 301.157 776.555, 301.493 776.012 C 302.444 774.472, 302.546 727.863, 301.627 714.750 L 300.803 703 294.901 703 L 289 703 289 736.875" stroke="none" fill="#1a1a1a" fill-rule="evenodd"/>
</svg>