<svg xmlns="http://www.w3.org/2000/svg" width="1024" height="1024" viewBox="0 0 1024 1024" version="1.1">
	<path d="M 632.193 7.027 C 605.115 9.149, 579.227 15.872, 573.127 22.365 C 569.649 26.067, 568.204 31.076, 565.127 50.091 C 552.345 129.075, 548.848 151.056, 547.350 161.812 C 545.801 172.936, 545.388 174.297, 543.068 175.921 C 540.021 178.055, 501.120 200.186, 485.631 208.597 C 472.564 215.693, 465.732 221.479, 463.571 227.278 C 462.020 231.439, 459.963 245.290, 444.013 359 C 433.760 432.091, 426.651 482.007, 423.505 503 C 422.144 512.075, 416.745 549.200, 411.506 585.500 C 402.284 649.389, 399.559 667.976, 396.478 688 C 395.674 693.225, 392.540 714.150, 389.513 734.500 C 386.487 754.850, 383.562 774.425, 383.013 778 C 382.464 781.575, 379.070 804.075, 375.471 828 C 371.872 851.925, 366.244 888.950, 362.964 910.278 C 356.284 953.713, 355.913 959.742, 359.401 968.222 C 367.608 988.177, 384.865 993.910, 462.705 1002.541 C 524.816 1009.427, 650.416 1012.212, 711 1008.046 C 801.832 1001.801, 870.678 990.041, 882.844 978.692 C 889.331 972.642, 889.997 967.818, 887.030 948.396 C 874.474 866.225, 858.772 647.164, 849.526 425.184 C 846.819 360.206, 846.014 341.883, 844.994 322 C 844.443 311.275, 843.311 287.875, 842.478 270 C 840.142 219.872, 844.003 225.369, 784.189 187.022 C 762.935 173.395, 763.535 173.993, 762.566 165.500 C 761.773 158.548, 746.933 59.177, 744.086 41.751 C 741.875 28.222, 739.874 23.442, 735.087 20.253 C 721.543 11.231, 667.380 4.269, 632.193 7.027 M 360 84.025 C 354.225 85.050, 340.500 87.869, 329.500 90.289 C 318.500 92.709, 300.895 96.435, 290.378 98.568 L 271.256 102.447 266.729 97.789 C 260.996 91.890, 252.676 87.686, 242.643 85.619 C 210.729 79.043, 188.954 91.283, 182.367 119.500 C 179.652 131.135, 180.530 308.042, 183.490 345.500 C 183.751 348.800, 184.465 357.800, 185.077 365.500 C 187.093 390.883, 193.033 423.179, 203.015 463.026 C 218.425 524.543, 218.941 557.141, 205.636 628.500 C 189.521 714.926, 176.455 799.968, 169.069 866.500 C 160.034 947.882, 159.992 958.677, 168.642 975.139 C 184.959 1006.190, 235.300 1013.932, 261.068 989.354 C 277.366 973.808, 279.850 962.818, 288.490 868 C 289.367 858.375, 290.966 840.825, 292.043 829 C 293.121 817.175, 296.463 780.725, 299.472 748 C 318.518 540.818, 318.468 538.421, 293.535 461.227 C 277.789 412.473, 272.039 382.830, 272.009 350.250 L 272 341 274.750 341.010 C 276.262 341.015, 289.200 342.132, 303.500 343.493 C 317.800 344.853, 335.575 346.536, 343 347.233 C 367.043 349.490, 382.427 349.003, 389.336 345.766 C 410.041 336.066, 416.323 313.747, 404.827 290.721 L 401.942 284.942 404.555 281.516 C 411.658 272.204, 411.731 252.256, 404.708 239.709 C 402.660 236.050, 402.647 235.825, 404.348 233.209 C 411.777 221.782, 411.715 204.217, 404.197 190.817 C 401.771 186.493, 401.692 185.994, 403.164 184.317 C 411.302 175.046, 411.529 154.816, 403.638 142.104 L 400.265 136.670 403.540 132.380 C 411.960 121.348, 410.640 102.238, 400.707 91.370 C 392.069 81.918, 382.053 80.111, 360 84.025" stroke="none" fill="#ffffff" fill-rule="evenodd"/>
</svg>