<svg xmlns="http://www.w3.org/2000/svg" width="1024" height="1024" viewBox="0 0 1024 1024" version="1.1">
	<path d="M 479 96.642 C 403.536 103.531, 342.222 125.050, 280 166.485 C 160.097 246.331, 90.826 380.255, 95.337 523.500 C 100.070 673.752, 178.861 802.789, 311.108 876.870 C 419.519 937.599, 558.191 944.854, 673.810 895.845 C 858.484 817.565, 960.658 622.477, 919.865 426.032 C 883.664 251.703, 740.068 120.785, 560 97.943 C 551.589 96.876, 487.681 95.849, 479 96.642 M 494.500 113.668 C 435.259 117.310, 392.706 127.870, 341.543 151.626 L 324.586 159.500 346.043 160.132 C 464.164 163.611, 540.189 214.624, 556.989 301.679 C 558.125 307.569, 559.155 312.468, 559.278 312.564 C 559.400 312.660, 565.125 313.258, 572 313.891 C 602.977 316.747, 638.134 323.159, 666.024 331.041 C 673.858 333.255, 680.383 334.939, 680.525 334.783 C 681.471 333.745, 683 297.085, 683 275.423 C 683 228.412, 678.861 195.269, 669.495 167.278 C 665.569 155.547, 659.527 141.960, 657.718 140.793 C 655.241 139.197, 620.031 127.974, 608.462 125.093 C 572.653 116.175, 527.440 111.643, 494.500 113.668 M 684 152.563 C 684 152.965, 685.307 157.390, 686.905 162.397 C 693.050 181.658, 697.913 208.691, 699.954 234.950 C 701.850 259.334, 700.930 319.114, 698.388 336.738 C 697.874 340.299, 698.074 341.080, 699.638 341.619 C 728.029 351.408, 763.313 368.809, 790.132 386.248 L 795.765 389.911 798.013 383.705 C 807.647 357.119, 825.690 333.331, 847 319.120 C 852.225 315.635, 856.638 312.419, 856.806 311.973 C 856.975 311.526, 854.154 306.375, 850.538 300.524 C 820.075 251.241, 770.303 202.285, 719 171.142 C 705.384 162.877, 684 151.525, 684 152.563 M 312.499 178.956 C 298.321 180.236, 288.717 181.958, 286.002 183.706 C 252.123 205.523, 213.182 243.501, 186.855 280.404 C 144.248 340.124, 123.786 396.027, 114.490 478.113 L 113.967 482.727 134.734 462.015 C 216.692 380.271, 330.387 327.294, 450.194 315.024 C 472.753 312.713, 514.653 310.684, 529.752 311.170 C 541.550 311.550, 540.884 312.334, 538.479 300.900 C 524.588 234.866, 468.056 191.635, 381 180.473 C 366.676 178.637, 326.014 177.736, 312.499 178.956 M 857.454 333.219 C 842.217 343.216, 829.025 358.764, 820.308 377 C 816.706 384.535, 812 397.310, 812 399.553 C 812 400.215, 819.313 406.598, 828.250 413.739 C 861.854 440.587, 884.534 463.322, 907.820 493.500 L 910.135 496.500 909.529 484 C 907.341 438.834, 893.391 384.356, 872.977 341.250 C 869.525 333.962, 866.410 328, 866.054 328 C 865.699 328, 861.828 330.348, 857.454 333.219 M 491 329.682 C 476.243 330.395, 445.589 333.219, 432.500 335.071 C 309.929 352.409, 191.429 416.571, 119.583 504.500 L 113.046 512.500 113.023 522.089 C 112.902 572.207, 128.929 637.922, 153.418 687.717 C 164.048 709.331, 185.200 744.151, 189.202 746.625 C 189.755 746.967, 193.649 743.888, 197.854 739.783 C 222.127 716.091, 259.168 683.998, 320.524 633.500 C 424.113 548.243, 455.931 518.297, 489.007 474.929 C 525.333 427.300, 544.410 378.572, 542.811 337.500 L 542.500 329.500 520 329.434 C 507.625 329.397, 494.575 329.509, 491 329.682 M 561 338.326 C 561 407.992, 520.798 479.461, 438.689 555.762 C 410.747 581.727, 392.770 597.124, 334.500 644.999 C 298.729 674.388, 265.480 702.434, 248.007 717.955 C 232.360 731.856, 208.539 753.741, 204.596 757.841 L 200.691 761.900 206.577 769.200 C 215.252 779.960, 245.974 810.317, 257.625 819.642 C 305.189 857.709, 358.799 884.791, 413.733 898.502 L 424.965 901.306 436.223 890.903 C 476.777 853.425, 507.566 814.862, 539.445 761.615 C 611.012 642.080, 659.016 503.668, 677.293 364.149 C 678.895 351.918, 680.876 353.804, 660.441 348.106 C 633.840 340.689, 610.028 336.193, 578 332.542 C 559.136 330.391, 561 329.756, 561 338.326 M 695.546 363.280 C 680.097 478.224, 651.304 576.620, 602.282 682 C 560.719 771.347, 505.001 853.151, 455.624 897.320 C 451.431 901.072, 448 904.470, 448 904.871 C 448 905.273, 454.412 906.403, 462.250 907.381 C 552.418 918.642, 644.962 898.820, 720 852.174 C 731.297 845.151, 756.171 827.734, 757.773 825.725 C 759.704 823.303, 772.324 793.261, 776.140 782 C 796.162 722.927, 799.700 662.889, 789.486 555.500 C 782.244 479.352, 782.329 445.645, 789.848 412.179 L 790.757 408.137 782.628 402.715 C 759.041 386.979, 728.497 371.249, 702.604 361.503 L 696.114 359.060 695.546 363.280 M 805.643 424.250 C 805.297 426.587, 804.540 431.650, 803.961 435.500 C 799.861 462.758, 801.887 508.083, 811.069 594.500 C 814.124 623.248, 813.273 686.666, 809.419 717.500 C 806.616 739.928, 797.197 780.019, 791.564 793.500 C 790.690 795.594, 790.149 797.482, 790.364 797.697 C 791.065 798.398, 814.324 772.606, 826.614 757.500 C 873.174 700.270, 903.842 620.503, 909.806 541.122 L 910.586 530.744 905.021 521.622 C 886.027 490.488, 857.375 459.678, 819.019 429.140 C 812.705 424.113, 807.253 420, 806.905 420 C 806.557 420, 805.989 421.913, 805.643 424.250" stroke="none" fill="#1a1a1a" fill-rule="evenodd"/>
</svg>