<svg xmlns="http://www.w3.org/2000/svg" width="1024" height="1024" viewBox="0 0 1024 1024" version="1.1">
	<path d="M 478 60.608 C 476.075 60.835, 467.300 61.722, 458.500 62.580 C 278.821 80.079, 119.841 210.250, 68.089 382.242 C 9.555 576.775, 82.021 777.072, 252.201 891.132 C 412.402 998.502, 627.917 992.349, 783.500 875.963 C 870.175 811.124, 927.718 724.795, 953.962 620.224 C 967.174 567.579, 969.455 499.289, 959.898 442.500 C 939.846 323.353, 879.944 224.815, 783.500 152.328 C 718.109 103.181, 642.132 72.595, 561.500 62.956 C 544.379 60.910, 488.710 59.344, 478 60.608 M 479 83.596 C 477.075 83.815, 470.325 84.470, 464 85.051 C 327.446 97.600, 200.799 178.552, 129.670 298.753 C 74.674 391.691, 57.345 509.435, 83.018 615.739 C 119.350 766.184, 238.024 886.925, 391 929.087 C 558.153 975.156, 738.749 917.558, 847.477 783.500 C 923.936 689.231, 955.600 572.812, 937.912 451 C 920.464 330.837, 852.549 225.089, 747.968 155.246 C 691.812 117.743, 623.546 93.045, 555 85.430 C 541.421 83.922, 487.560 82.622, 479 83.596" stroke="none" fill="#1a1a1a" fill-rule="evenodd"/>
</svg>