<svg xmlns="http://www.w3.org/2000/svg" width="1024" height="1024" viewBox="0 0 1024 1024" version="1.1">
	<path d="M 590 162.599 C 579.325 164.045, 546.419 170.381, 494.500 180.987 C 475.250 184.920, 434.300 193.256, 403.500 199.512 C 372.700 205.769, 340.750 212.280, 332.500 213.981 C 324.250 215.682, 306.700 219.277, 293.500 221.969 C 280.300 224.662, 261.850 228.501, 252.500 230.501 C 243.150 232.500, 217.737 237.729, 196.026 242.120 C 174.315 246.512, 154.664 250.940, 152.356 251.961 C 124.719 264.186, 97.095 305.431, 87.798 348.352 C 86.003 356.641, 85.594 361.797, 85.565 376.500 C 85.519 400.301, 86.140 403.306, 97.989 436.614 C 100.940 444.911, 104.267 450.756, 146.164 521.235 C 198.954 610.039, 275.950 728.142, 325.685 796.599 C 358.517 841.790, 373.116 856.606, 391.737 863.631 C 399.009 866.375, 410.034 867.078, 415.170 865.125 C 416.637 864.568, 430.586 860.906, 446.168 856.989 C 505.069 842.181, 595.703 818.201, 681 794.858 C 707.125 787.709, 749.875 776.086, 776 769.029 C 825.065 755.777, 847.849 749.203, 880.500 738.878 C 924.691 724.904, 924.958 724.775, 929.870 714.945 C 937.637 699.401, 932.257 687.529, 912.653 676.954 C 903.924 672.246, 903.604 671.817, 901.356 661.816 C 896.997 642.422, 899.857 612.352, 908.567 586 C 912.139 575.192, 913.176 574.170, 922.850 571.918 C 933.084 569.535, 935.453 567.996, 938.740 561.594 C 940.811 557.562, 941.350 555.105, 941.323 549.806 C 941.274 540.101, 938.422 535.286, 921.227 515.882 C 913.127 506.742, 888.950 479.294, 867.500 454.887 C 815.316 395.510, 803.191 381.747, 772.004 346.500 C 746.049 317.165, 734.711 304.291, 687.123 250.114 C 674.265 235.476, 656.955 215.400, 648.654 205.500 C 633.448 187.363, 616.470 169.486, 610 164.800 C 605.411 161.475, 601.482 161.043, 590 162.599 M 551 186.488 C 525.975 191.573, 480.975 200.770, 451 206.925 C 367.219 224.129, 285.339 240.528, 255.500 246.079 C 240.650 248.841, 218.375 253.070, 206 255.477 C 193.625 257.884, 181.416 260.154, 178.869 260.522 L 174.238 261.191 184.251 275.846 C 200.344 299.401, 312.566 468.271, 337.531 506.500 C 350.102 525.750, 373.642 561.750, 389.842 586.500 C 406.042 611.250, 422.664 636.788, 426.780 643.250 C 431.307 650.360, 434.904 655, 435.888 655 C 436.781 655, 452.087 651.173, 469.901 646.495 C 504.144 637.504, 543.547 628.077, 599.500 615.492 C 689.426 595.266, 710.496 590.391, 775 574.886 C 795.625 569.928, 815.425 565.243, 819 564.474 C 822.575 563.706, 836.975 560.344, 851 557.005 C 865.025 553.665, 885.300 548.945, 896.055 546.516 C 906.811 544.086, 916.905 541.606, 918.488 541.005 L 921.365 539.911 913.844 532.205 C 904.918 523.060, 889.611 505.982, 854.503 466 C 840.256 449.775, 817.054 423.450, 802.944 407.500 C 735.950 331.772, 632.910 213.989, 611.139 188.250 C 603.364 179.058, 601.154 177.022, 599.061 177.121 C 597.653 177.187, 576.025 181.402, 551 186.488 M 157.500 265.408 C 148.715 269.436, 131 286.461, 131 290.877 C 131 291.511, 133.168 295.061, 135.817 298.765 C 138.467 302.469, 146.052 313.375, 152.674 323 C 165.284 341.332, 336.497 598.180, 369.836 648.780 L 389.127 678.061 395.546 672.179 C 402.660 665.660, 411.050 660.769, 418.202 658.970 L 422.904 657.787 412.466 642.643 C 395.802 618.467, 299.271 471.757, 250.510 396.500 C 234.117 371.200, 213.846 339.925, 205.463 327 C 190.100 303.314, 172.811 276.058, 167.775 267.585 C 164.668 262.359, 164.313 262.284, 157.500 265.408 M 117.668 313.049 C 103.565 342.011, 98.911 365.987, 101.934 394.106 C 104.826 421.008, 105.463 422.359, 148.537 493 C 172.303 531.976, 217.607 604.061, 242.181 642 C 287.435 711.866, 355.317 812.016, 356.570 810.763 C 356.765 810.568, 355.955 805.930, 354.771 800.455 C 352.196 788.543, 351.665 761.041, 353.788 749.500 C 357.309 730.356, 366.905 707.633, 377.957 692.272 L 383.877 684.044 369.688 663.799 C 347.581 632.255, 309.697 576.593, 205.115 422 C 182.483 388.545, 130.330 310.050, 127.359 304.969 L 124.218 299.597 117.668 313.049 M 916 552.071 C 905.153 555.084, 855.012 567.106, 766.500 587.915 C 700.737 603.376, 610.834 624.821, 482.500 655.661 C 465.450 659.758, 444.975 664.453, 437 666.093 C 418.675 669.863, 414.103 672.096, 402.913 682.745 C 375.659 708.681, 360.776 749.918, 364.902 788.063 C 368.555 821.838, 382.873 846.193, 401 849.464 C 406.910 850.530, 426.373 846.540, 458.684 837.637 C 534.906 816.636, 638.322 788.994, 680 778.483 C 726.914 766.651, 908.035 714.977, 915.123 711.403 C 917.943 709.981, 918.965 707.509, 918.986 702.057 C 918.998 699.181, 918.080 697.722, 913.426 693.214 C 907.102 687.089, 906.391 687.022, 908.410 692.744 C 910.901 699.805, 909.856 700.304, 868.286 711.927 C 854.654 715.739, 830 722.679, 813.500 727.350 C 778.353 737.301, 765.678 740.738, 672.500 765.587 C 634 775.854, 575.725 791.417, 543 800.172 C 510.275 808.928, 467.975 820.006, 449 824.792 C 408.701 834.956, 413.592 833.368, 414.922 835.854 C 418.423 842.396, 407.109 837.111, 399.262 828.538 C 383.974 811.836, 375.826 782.950, 378.816 756.055 C 381.672 730.374, 391.064 710.598, 408.609 693.326 C 419.280 682.822, 426.931 678.926, 443.500 675.563 C 450.100 674.223, 464.050 671.050, 474.500 668.511 C 484.950 665.972, 504.975 661.242, 519 658 C 533.025 654.758, 564.525 647.194, 589 641.191 C 613.475 635.189, 651.500 625.899, 673.500 620.547 C 695.500 615.194, 747.925 602.343, 790 591.987 C 832.075 581.632, 876.625 570.874, 889 568.082 C 926.250 559.677, 926.682 559.498, 928.421 551.750 C 929.180 548.369, 929.340 548.365, 916 552.071 M 838.500 591.571 C 787.971 604.094, 733.988 617.255, 650 637.524 C 637.625 640.511, 616.025 645.643, 602 648.929 C 508.518 670.832, 435.650 688.284, 430.645 689.969 C 425.815 691.595, 423.714 693.112, 418.645 698.637 C 411.023 706.944, 405.556 713.890, 406.163 714.496 C 406.415 714.749, 413.119 713.134, 421.061 710.909 C 429.002 708.683, 451.700 702.617, 471.500 697.428 C 491.300 692.238, 521.225 684.376, 538 679.956 C 581.479 668.499, 808.572 611.823, 852 601.590 C 872.075 596.860, 889.099 592.654, 889.831 592.243 C 891.275 591.432, 898.316 576.937, 897.188 577.098 C 896.809 577.151, 870.400 583.664, 838.500 591.571 M 884.500 597.603 C 874.262 600.520, 843.528 608.126, 812.500 615.423 C 722.489 636.590, 621.233 661.832, 537.500 683.977 C 533.650 684.995, 510.475 691.221, 486 697.812 C 461.525 704.403, 432.646 712.155, 421.823 715.039 L 402.147 720.281 399.676 725.891 C 397.491 730.849, 394 741.663, 394 743.471 C 394 743.836, 394.808 743.878, 395.795 743.565 C 400.959 741.926, 561.300 703.482, 604 693.645 C 644.916 684.219, 689.847 674.779, 691.352 675.293 C 692.584 675.713, 667.544 681.932, 566 706.425 C 469.171 729.780, 415.680 742.577, 404.139 745.146 C 395.861 746.989, 393.629 747.859, 393.036 749.476 C 391.793 752.862, 390.983 761, 391.889 761 C 392.356 761, 402.810 758.558, 415.119 755.572 C 446.237 748.026, 479.114 740.780, 479.678 741.345 C 480.251 741.918, 481.758 741.464, 453 749.382 C 430.889 755.470, 401.501 763.033, 394.250 764.501 C 391.113 765.136, 391 765.330, 391 770.079 C 391 772.786, 391.215 775, 391.477 775 C 391.740 775, 418.177 768.056, 450.227 759.568 C 504.837 745.106, 556.504 731.902, 577.750 726.977 C 600.475 721.710, 583.260 728.107, 551 736.917 C 514.520 746.879, 457.223 762.105, 407.644 775.011 C 399.474 777.138, 392.550 779.116, 392.258 779.408 C 391.619 780.048, 393.501 789.957, 395.611 797.063 C 396.795 801.048, 397.513 802.087, 398.818 801.704 C 420.376 795.371, 497.844 775.699, 528 768.899 C 550.223 763.889, 552.031 763.552, 550 764.802 C 547.626 766.263, 465.843 788.666, 423 799.591 C 410.625 802.747, 400.102 805.675, 399.616 806.098 C 398.711 806.886, 402.356 813.925, 406.686 819.750 C 409.954 824.147, 412.525 824.027, 432.920 818.534 C 442.039 816.078, 469.525 808.681, 494 802.096 C 518.475 795.511, 552 786.472, 568.500 782.010 C 585 777.548, 610.425 770.739, 625 766.880 C 639.575 763.021, 658.700 757.905, 667.500 755.511 C 676.300 753.117, 693.850 748.449, 706.500 745.138 C 776.557 726.797, 793.806 722.250, 817 716.009 C 831.025 712.235, 854.875 705.916, 870 701.967 C 885.125 698.018, 897.595 694.703, 897.711 694.600 C 897.826 694.497, 896.591 692.407, 894.965 689.956 C 893.339 687.505, 891.889 685.147, 891.743 684.715 C 891.597 684.283, 884.282 685.996, 875.488 688.521 C 859.612 693.079, 844.636 696.933, 738 723.900 C 707.475 731.619, 669.337 741.286, 653.250 745.383 C 637.163 749.480, 624 752.488, 624 752.068 C 624 750.296, 695.577 730.497, 778 709.469 C 852.305 690.512, 889.379 680.954, 889.647 680.686 C 890.344 679.990, 884.340 663, 883.397 663 C 882.768 663, 877.134 664.548, 870.877 666.439 C 834.754 677.360, 722.052 709.124, 647 729.537 C 582.962 746.954, 518.326 762.341, 521.177 759.489 C 521.744 758.923, 521.852 758.893, 582.500 742.725 C 638.749 727.730, 689.682 713.946, 709 708.492 C 717.525 706.084, 740.025 699.783, 759 694.488 C 777.975 689.193, 797.100 683.795, 801.500 682.491 C 854.581 666.762, 856.144 666.314, 879.734 660.055 L 883.969 658.931 883.345 651.216 C 883.002 646.972, 882.642 643.395, 882.545 643.268 C 882.448 643.140, 867.773 646.850, 849.934 651.512 C 832.095 656.173, 801.525 664.025, 782 668.961 C 762.475 673.896, 737.725 680.210, 727 682.991 C 694.006 691.549, 666.641 698.078, 665.051 697.771 C 659.693 696.739, 761.486 669.381, 850 648.064 C 864.025 644.686, 877.188 641.472, 879.250 640.923 L 883 639.923 883 634.345 C 883 629.051, 882.885 628.797, 880.750 629.360 C 879.513 629.686, 868.150 632.437, 855.500 635.473 C 769.385 656.144, 748.413 661.031, 747.046 660.748 C 744.448 660.209, 809.844 642.249, 857 630.550 C 885.982 623.360, 883.305 624.817, 884.891 615.369 C 885.618 611.041, 887.018 604.913, 888.002 601.750 C 888.985 598.587, 889.725 596.040, 889.645 596.089 C 889.565 596.139, 887.250 596.820, 884.500 597.603 M 799.500 631.093 C 792.350 632.670, 778.850 635.759, 769.500 637.956 C 760.150 640.154, 739.900 644.911, 724.500 648.527 C 631.120 670.452, 536.718 695, 545.782 695 C 552.117 695, 806.194 632.415, 813.500 629.055 C 816.801 627.537, 813.335 628.042, 799.500 631.093" stroke="none" fill="#1a1a1a" fill-rule="evenodd"/>
</svg>