<svg xmlns="http://www.w3.org/2000/svg" width="1024" height="1024" viewBox="0 0 1024 1024" version="1.1">
	<path d="M 592 161.687 C 589.200 162.152, 553.182 168.908, 534 172.566 C 527.125 173.877, 510.475 177.240, 497 180.039 C 483.525 182.838, 447.300 190.246, 416.500 196.500 C 385.700 202.754, 352.625 209.501, 343 211.493 C 333.375 213.485, 314.700 217.314, 301.500 220.001 C 288.300 222.689, 268.725 226.748, 258 229.020 C 247.275 231.292, 219.883 236.916, 197.129 241.517 C 152.422 250.558, 150.257 251.240, 138.897 259.854 C 125.693 269.866, 113.424 285.228, 103.514 304.155 C 100.674 309.579, 97.974 313.676, 97.515 313.259 C 97.055 312.841, 96.984 313.032, 97.356 313.682 C 97.729 314.332, 96.690 318.247, 95.047 322.382 C 79.388 361.800, 82.660 412.472, 103.219 448.969 C 154.450 539.911, 247.321 686.354, 311.885 778 C 368.568 858.459, 386.839 873.020, 420 864.154 C 426.325 862.463, 445.675 857.500, 463 853.126 C 480.325 848.752, 498.100 844.201, 502.500 843.013 C 506.900 841.826, 519.050 838.623, 529.500 835.897 C 567.484 825.989, 610.772 814.379, 671.500 797.812 C 705.600 788.509, 736.875 779.993, 741 778.888 C 824.617 756.481, 845.184 750.550, 901.427 732.626 C 905.786 731.237, 909.724 730.329, 910.177 730.609 C 910.629 730.889, 911 730.747, 911 730.294 C 911 729.840, 913.282 728.659, 916.070 727.669 C 934.161 721.244, 939.287 697.476, 925.299 684.878 C 923.087 682.886, 917.416 679.151, 912.696 676.578 L 904.114 671.900 902.307 664.200 C 898.017 645.920, 900.177 614.813, 907.384 591.088 C 912.319 574.843, 912.522 574.641, 927.500 571.068 C 938.808 568.371, 944.586 555.407, 940.597 541.685 C 938.771 535.405, 935.851 531.766, 901.908 493.474 C 891.683 481.938, 863.362 449.775, 838.972 422 C 814.583 394.225, 786.032 361.825, 775.526 350 C 765.020 338.175, 745.416 315.962, 731.962 300.638 C 718.508 285.314, 701.479 265.964, 694.121 257.638 C 679.459 241.049, 656.941 214.951, 641.801 197 C 614.167 164.236, 607.051 159.190, 592 161.687" stroke="none" fill="#ffffff" fill-rule="evenodd"/>
</svg>