<svg xmlns="http://www.w3.org/2000/svg" width="1024" height="1024" viewBox="0 0 1024 1024" version="1.1">
	<path d="M 485.192 193.352 C 479.472 195.763, 477.710 196.149, 477.081 195.131 C 476.495 194.184, 476.120 194.432, 475.698 196.045 C 475.308 197.539, 474.612 198.065, 473.560 197.661 C 472.702 197.332, 472 197.457, 472 197.938 C 472 198.419, 471.030 198.559, 469.844 198.249 C 468.457 197.886, 467.923 198.067, 468.348 198.754 C 468.996 199.802, 465.282 201.418, 447.500 207.826 C 443.100 209.412, 431.729 213.705, 422.231 217.367 C 412.733 221.029, 403.845 224.118, 402.481 224.231 C 401.116 224.344, 400 224.863, 400 225.385 C 400 225.906, 399.718 226.051, 399.373 225.707 C 399.028 225.362, 397.341 225.809, 395.623 226.700 C 390.082 229.574, 361.704 239.935, 360.838 239.400 C 360.377 239.115, 360 239.389, 360 240.008 C 360 240.680, 359.192 240.878, 358 240.500 C 356.900 240.151, 356 240.250, 356 240.720 C 356 241.190, 355.028 241.648, 353.840 241.737 C 352.652 241.827, 351.414 242.299, 351.090 242.788 C 350.115 244.255, 333.900 250.056, 332.754 249.348 C 332.079 248.931, 331.990 249.175, 332.510 250.015 C 333.104 250.977, 332.872 251.165, 331.664 250.701 C 330.749 250.350, 330 250.422, 330 250.860 C 330 251.701, 318.143 256.537, 299 263.503 C 292.675 265.805, 282.325 269.627, 276 271.997 C 269.675 274.367, 263.938 276.312, 263.250 276.320 C 262.563 276.327, 262 276.637, 262 277.008 C 262 277.380, 260.087 278.254, 257.750 278.950 C 255.412 279.647, 249.285 281.968, 244.134 284.109 C 238.982 286.249, 234.341 288, 233.820 288 C 233.298 288, 230.538 289.063, 227.686 290.362 C 224.834 291.661, 221.375 293.047, 220 293.442 C 218.625 293.836, 216.150 294.755, 214.500 295.484 C 204.975 299.692, 203.657 300.063, 202.838 298.773 C 202.245 297.838, 202.027 297.952, 202.015 299.203 C 202.006 300.248, 200.745 301.288, 198.750 301.895 C 194.471 303.198, 179.119 309.453, 171.247 313.102 C 167.808 314.696, 164.630 316, 164.184 316 C 163.739 316, 161.042 317.125, 158.192 318.500 C 155.342 319.875, 152.794 321, 152.530 321 C 152.266 321, 149.226 322.284, 145.775 323.853 C 142.324 325.422, 136.575 327.970, 133 329.514 C 129.425 331.059, 124.925 333.833, 123 335.677 L 119.500 339.031 119.401 360.766 C 119.200 404.654, 121.524 452.374, 124.098 457.182 C 125.331 459.487, 131.779 462.740, 144.500 467.477 C 150 469.524, 155.009 471.616, 155.631 472.124 C 157.182 473.390, 158.635 505.023, 162.013 611 C 162.582 628.875, 163.469 654.525, 163.983 668 C 164.497 681.475, 165.190 702.850, 165.523 715.500 C 166.374 747.806, 167.750 756.533, 172.360 758.860 C 176.550 760.974, 202.737 771.328, 217.291 776.625 C 225.425 779.585, 233.168 782.719, 234.497 783.590 C 235.825 784.460, 237.382 784.882, 237.956 784.527 C 238.530 784.172, 239 784.344, 239 784.910 C 239 785.475, 239.749 785.650, 240.664 785.299 C 241.721 784.893, 242.084 785.055, 241.659 785.742 C 241.261 786.387, 241.700 786.720, 242.744 786.567 C 243.708 786.426, 245.848 786.849, 247.499 787.507 C 249.149 788.166, 251.400 789.064, 252.500 789.503 C 253.600 789.941, 255.257 790.450, 256.182 790.634 C 257.107 790.817, 261.157 792.252, 265.182 793.824 C 269.207 795.395, 278.213 798.634, 285.196 801.023 C 292.270 803.442, 297.627 805.795, 297.292 806.337 C 296.960 806.874, 297.207 806.990, 297.844 806.597 C 298.478 806.205, 305.185 808.146, 312.748 810.909 C 320.312 813.673, 335.950 819.360, 347.500 823.547 C 383.594 836.632, 385 837.171, 385 837.928 C 385 838.334, 385.563 838.708, 386.250 838.759 C 389.692 839.013, 395.040 840.694, 412.480 847.006 C 456.937 863.097, 464.907 866.020, 472.500 869.024 C 476.900 870.764, 481.512 872.423, 482.750 872.711 C 483.988 872.998, 485 873.556, 485 873.950 C 485 874.344, 485.675 874.742, 486.500 874.833 C 487.325 874.925, 488.675 875.075, 489.500 875.167 C 490.325 875.258, 491 875.783, 491 876.333 C 491 876.883, 491.284 877.049, 491.631 876.702 C 491.979 876.355, 493.143 876.541, 494.219 877.117 C 495.295 877.693, 497.373 878.368, 498.838 878.617 C 502.968 879.318, 513.691 882.964, 522.470 886.652 C 526.853 888.493, 531.214 890, 532.161 890 C 533.107 890, 534.160 890.450, 534.500 891 C 536.364 894.016, 549.412 892.076, 558.308 887.459 C 563.121 884.961, 567.565 883.231, 568.184 883.613 C 568.870 884.038, 569.031 883.859, 568.595 883.155 C 568.203 882.520, 568.332 882, 568.882 882 C 569.432 882, 570.160 882.450, 570.500 883 C 570.840 883.550, 571.597 884, 572.181 884 C 572.906 884, 572.889 883.571, 572.128 882.654 C 571.231 881.574, 573.234 880.259, 582.255 876.002 C 588.440 873.084, 608.800 862.831, 627.500 853.219 C 646.200 843.606, 686.025 823.371, 716 808.251 C 802.758 764.491, 871.378 728.449, 874.495 725.006 C 876.193 723.129, 876.428 720.187, 877.109 692.222 C 878.166 648.782, 880.025 554.980, 880.947 498.500 C 881.378 472.100, 882.021 449.825, 882.376 449 C 882.732 448.175, 888.755 444.575, 895.761 441 C 912.816 432.298, 911.257 438.561, 910.573 381.500 C 909.732 311.402, 909.759 311.522, 893.692 305.099 C 879.896 299.583, 771.988 266.254, 750.750 260.949 C 748.138 260.297, 746 259.318, 746 258.774 C 746 258.231, 745.325 258.045, 744.500 258.362 C 743.675 258.678, 743 258.453, 743 257.862 C 743 257.270, 742.369 257.028, 741.598 257.324 C 740.827 257.620, 739.917 257.584, 739.577 257.244 C 739.237 256.904, 738.181 256.548, 737.230 256.453 C 736.278 256.359, 727.850 253.933, 718.500 251.063 C 709.150 248.193, 697.450 244.782, 692.500 243.483 C 687.550 242.185, 677.650 239.342, 670.500 237.165 C 663.350 234.989, 651.200 231.391, 643.500 229.170 C 635.800 226.949, 615.550 221.022, 598.500 216 C 581.450 210.978, 564.800 206.295, 561.500 205.593 C 555.928 204.409, 516.361 193.535, 513 192.265 C 505.178 189.308, 493.726 189.755, 485.192 193.352" stroke="none" fill="#ffffff" fill-rule="evenodd"/>
</svg>