<svg xmlns="http://www.w3.org/2000/svg" width="1024" height="1024" viewBox="0 0 1024 1024" version="1.1">
	<path d="M 487 193.417 C 481.775 195.273, 473.225 198.461, 468 200.501 C 456.434 205.018, 427.485 215.868, 392 228.984 C 238.682 285.658, 131.002 328.394, 123.317 335.618 L 120 338.736 120 366.191 C 120 397.758, 121.624 442.943, 123.048 450.987 C 124.339 458.280, 126.285 459.927, 139.500 464.915 C 157.791 471.819, 156.762 471.113, 157.393 477.196 C 157.696 480.113, 158.186 489.700, 158.482 498.500 C 159.767 536.684, 161.985 600.547, 162.441 612.500 C 162.714 619.650, 163.630 646.650, 164.476 672.500 C 166.503 734.382, 167.397 749.658, 169.250 754.073 C 170.661 757.435, 171.685 758.035, 186.625 764.247 C 195.356 767.878, 213.750 774.896, 227.500 779.842 C 241.250 784.789, 266.450 793.869, 283.500 800.021 C 300.550 806.172, 318.775 812.689, 324 814.503 C 329.225 816.316, 344.750 821.939, 358.500 826.999 C 372.250 832.058, 395.875 840.614, 411 846.012 C 426.125 851.410, 447.275 859.064, 458 863.021 C 468.725 866.978, 486.275 873.285, 497 877.036 C 507.725 880.787, 521.859 885.739, 528.409 888.040 C 537.740 891.318, 541.313 892.127, 544.909 891.776 C 551.037 891.179, 578.083 878.138, 658.500 837.007 C 670.050 831.099, 699.300 816.240, 723.500 803.986 C 747.700 791.732, 778.750 775.863, 792.500 768.721 C 877.005 724.827, 873.555 726.700, 875.047 723.913 C 875.597 722.884, 876.281 711.571, 876.567 698.771 C 877.480 657.885, 879.956 529.857, 880.624 489 C 881.059 462.379, 881.633 449.041, 882.385 448.093 C 882.998 447.319, 888.471 444.295, 894.548 441.373 C 900.624 438.451, 906.699 434.881, 908.048 433.440 L 910.500 430.820 910.258 392.660 C 909.899 336.060, 908.389 315.411, 904.267 310.774 C 900.934 307.023, 871.157 297.139, 793.500 274.005 C 774.800 268.435, 746.900 260.106, 731.500 255.498 C 686.931 242.162, 594.766 215.314, 586.500 213.259 C 585.400 212.986, 571.125 208.987, 554.778 204.373 C 522.861 195.365, 501.782 189.987, 498.525 190.022 C 497.411 190.034, 492.225 191.562, 487 193.417 M 491 209.902 C 487.975 210.888, 476.500 215.190, 465.500 219.462 C 454.500 223.733, 438.300 229.825, 429.500 232.998 C 404.048 242.177, 366.722 255.975, 337.500 267.006 C 322.650 272.612, 302.400 280.251, 292.500 283.982 C 242.447 302.844, 157.424 337.202, 155.077 339.516 C 153.243 341.322, 152.516 341.035, 188 352.499 C 265.489 377.535, 409.852 424.552, 470.688 444.567 C 508.192 456.905, 539.441 467, 540.130 467 C 540.820 467, 548.385 463.897, 556.942 460.104 C 565.499 456.311, 587.575 446.591, 606 438.504 C 624.425 430.417, 655.925 416.458, 676 407.484 C 696.075 398.511, 735.675 380.933, 764 368.422 C 874.200 319.749, 874.497 319.613, 873.519 318.031 C 872.514 316.405, 815.838 297.969, 773.500 285.496 C 768.550 284.038, 758.650 281.127, 751.500 279.027 C 744.350 276.927, 713.075 267.684, 682 258.486 C 650.925 249.288, 617.400 239.551, 607.500 236.846 C 597.600 234.142, 575.325 227.924, 558 223.029 C 497.405 205.908, 501.053 206.623, 491 209.902 M 865.500 337.921 C 853.400 343.330, 833.825 352.122, 822 357.459 C 794.795 369.738, 715.425 405.071, 695 413.995 C 686.475 417.720, 667.575 426.044, 653 432.493 C 638.425 438.942, 621.550 446.380, 615.500 449.022 C 582.566 463.404, 556.610 475.044, 553.745 476.716 L 550.500 478.611 550.237 501.055 C 549.865 532.773, 551.262 573.662, 552.768 575.168 C 554.650 577.050, 575.571 568.349, 650.500 534.520 C 664.800 528.064, 677.406 522.432, 678.514 522.005 C 683.861 519.944, 772.074 479.440, 818.500 457.729 C 827.300 453.613, 839.450 448.097, 845.500 445.471 C 862.510 438.087, 891.323 424.075, 892.287 422.718 C 893.230 421.393, 892.394 340.156, 891.361 332.616 C 890.902 329.268, 890.285 328.012, 889.114 328.043 C 888.226 328.066, 877.600 332.511, 865.500 337.921 M 137.417 398.196 C 137.814 423.604, 138.537 445.135, 139.023 446.043 C 139.938 447.753, 160.120 455.426, 193 466.565 C 203.175 470.013, 229.500 478.986, 251.500 486.506 C 331.422 513.826, 385.448 531.446, 480.034 561.041 C 505.073 568.875, 533.044 577, 534.977 577 C 537.100 577, 537.952 574.355, 537.481 569.229 C 537.292 567.178, 536.852 546.825, 536.503 524 C 536.045 494.067, 535.538 482.183, 534.684 481.361 C 532.906 479.651, 519.024 474.878, 457 454.648 C 401.195 436.446, 309.320 406.462, 213 375.016 C 156.587 356.599, 141.760 352, 138.789 352 L 136.694 352 137.417 398.196 M 851 461.625 C 846.875 463.578, 836.525 468.248, 828 472 C 819.475 475.753, 804.400 482.502, 794.500 486.997 C 784.600 491.493, 768.175 498.909, 758 503.478 C 747.825 508.046, 732.075 515.169, 723 519.305 C 713.925 523.442, 691.425 533.340, 673 541.300 C 654.575 549.260, 628.925 560.381, 616 566.012 C 603.075 571.644, 587.100 578.601, 580.500 581.473 C 573.900 584.345, 564.315 588.639, 559.201 591.015 L 549.901 595.336 550.501 728.918 C 550.831 802.388, 551.324 863.962, 551.596 865.750 C 551.879 867.613, 552.681 869, 553.474 869 C 556.624 869, 727.831 783.191, 784.500 753.210 C 794.400 747.972, 814.425 737.451, 829 729.829 C 843.575 722.208, 856.216 715.116, 857.092 714.070 C 858.885 711.928, 859.365 693.233, 862.606 499.250 L 863.295 458 860.898 458.036 C 859.579 458.056, 855.125 459.671, 851 461.625 M 176.380 500.750 C 178.141 559.272, 179.076 587.318, 179.990 609 C 180.535 621.925, 181.431 646.900, 181.981 664.500 C 183.755 721.327, 184.673 740.983, 185.671 743.585 C 186.535 745.837, 211.983 755.553, 312.500 792.010 C 451.779 842.526, 523.596 867.908, 534.413 870.439 L 537.327 871.120 536.708 734.757 C 536.367 659.757, 535.795 597.628, 535.436 596.693 C 535.051 595.691, 532.468 594.350, 529.142 593.426 C 520.885 591.132, 476.709 577.282, 444.500 566.889 C 421.188 559.366, 330.738 529.154, 203.522 486.395 C 189.784 481.778, 177.903 478, 177.120 478 C 175.910 478, 175.799 481.413, 176.380 500.750" stroke="none" fill="#1a1a1a" fill-rule="evenodd"/>
</svg>