<svg xmlns="http://www.w3.org/2000/svg" width="1024" height="1024" viewBox="0 0 1024 1024" version="1.1">
	<path d="M 854.411 292.847 C 814.134 312.545, 771.888 355.376, 743.853 404.937 C 741.048 409.897, 738.880 412.782, 738.595 411.937 C 738.327 411.147, 736.680 406.225, 734.934 401 C 722.849 364.832, 702.115 345.041, 670.539 339.535 C 646.529 335.348, 629.060 338.156, 561.500 357.067 C 503.059 373.425, 463.387 382.527, 398 394.581 C 331.561 406.829, 305.601 416.620, 282.596 438.104 C 270.558 449.346, 263.005 462.230, 259.439 477.608 C 257.895 484.265, 257.348 504.553, 258.580 509.462 C 259.193 511.906, 258.651 511.685, 250.368 506.116 C 213.919 481.610, 169.737 468.921, 125.605 470.283 C 94.497 471.244, 85.772 475.355, 86.949 488.500 C 87.047 489.600, 89.218 494.100, 91.773 498.500 C 105.262 521.733, 107.375 527.418, 106.845 539.046 C 106.482 547.028, 106.047 548.130, 95.457 567.880 C 87.789 582.181, 90.154 588.849, 106.262 598.342 C 116.785 604.544, 119.592 606.916, 123.632 613.019 C 128.236 619.977, 127.864 633.291, 122.612 649.500 C 114.372 674.928, 116.923 684.803, 133.296 690.862 C 146.238 695.651, 153.155 700.732, 157.308 708.500 C 159.209 712.057, 159.504 714.606, 159.973 731.500 C 160.565 752.861, 161.464 755.678, 168.416 757.972 C 179.222 761.539, 211.483 740.627, 241.565 710.559 C 262.433 689.700, 280.607 665.873, 291.043 645.692 C 292.945 642.015, 294.755 639.006, 295.066 639.004 C 295.377 639.002, 296.930 643.163, 298.518 648.250 C 313.291 695.601, 342.478 717.766, 387.312 715.681 C 403.626 714.923, 412.440 713.083, 446 703.436 C 524.739 680.800, 554.184 673.523, 605.500 664.016 C 680.857 650.054, 700.609 644.885, 723.825 633.049 C 744.586 622.464, 758.376 609.198, 767.015 591.500 C 772.927 579.390, 774.400 572.031, 774.342 554.909 L 774.293 540.319 783.679 546.595 C 818.814 570.085, 871.425 584.062, 913 580.950 C 947.584 578.362, 952.315 571.608, 936.606 547.249 C 919.524 520.761, 919.096 509.682, 934.174 484.206 C 940.054 474.271, 940.500 473.094, 940.500 467.509 C 940.500 459.455, 938.727 457.087, 927.032 449.517 C 906.193 436.028, 904.103 428.045, 913.444 397.618 C 922.430 368.351, 920.972 362.601, 902.354 353.886 C 882.226 344.463, 879.500 339.707, 879.499 314 C 879.498 295.344, 879.180 293.860, 874.371 290.078 C 870.156 286.762, 865.547 287.401, 854.411 292.847 M 846.634 321.992 C 807.969 347.945, 767.958 395.556, 753.029 433.377 C 749.338 442.727, 749.533 443.571, 753.956 437.412 C 768.534 417.112, 809.062 389.054, 810.779 398.072 C 810.960 399.022, 807.373 402.857, 801.715 407.762 C 778.610 427.794, 754 458.664, 754 467.615 C 754 475.872, 775.514 480.977, 817 482.562 C 834.891 483.246, 838.355 483.937, 837.810 486.718 C 836.638 492.699, 793.287 496.499, 770.541 492.614 C 765.614 491.773, 761.468 491.199, 761.328 491.339 C 761.187 491.479, 761.966 494.570, 763.057 498.208 C 764.944 504.499, 765.498 505.223, 774.376 512.995 C 800.910 536.228, 835.430 551.971, 872.381 557.691 C 883.278 559.377, 915.101 560.231, 916.460 558.873 C 916.805 558.528, 915.492 555.603, 913.541 552.373 C 898.127 526.850, 897.522 505.733, 911.482 480.545 C 914.517 475.070, 917 470.286, 917 469.913 C 917 469.540, 913.999 467.280, 910.332 464.891 C 896.735 456.032, 888.129 443.739, 885.906 430 C 884.283 419.974, 885.683 411.486, 892.568 389.585 C 894.456 383.582, 895.985 377.957, 895.966 377.085 C 895.945 376.109, 892.881 374.024, 887.987 371.657 C 867.952 361.966, 857 344.430, 857 322.042 C 857 318.719, 856.663 316.009, 856.250 316.021 C 855.837 316.032, 851.510 318.719, 846.634 321.992 M 638 361.526 C 637.175 361.688, 633.125 362.344, 629 362.986 C 620.401 364.323, 595.090 370.710, 567.500 378.506 C 513.705 393.707, 479.450 401.637, 409.860 415.002 C 335.966 429.193, 316.160 436.281, 296.597 455.534 C 284.706 467.237, 280.646 477.227, 280.560 495 C 280.487 510.092, 281.334 514.075, 292.141 549.500 C 306.635 597.012, 308.842 604.370, 313.989 622.359 C 320.028 643.464, 322.560 650.431, 327.957 660.790 C 344.597 692.730, 370.714 700.824, 417 688.386 C 422.225 686.982, 442.250 681.351, 461.500 675.873 C 519.335 659.415, 557.828 650.346, 618 639.002 C 664.158 630.299, 677.762 627.197, 693.500 621.784 C 740.202 605.721, 757.604 580.576, 750.425 539.533 C 749.563 534.601, 745.725 519.751, 741.897 506.533 C 738.069 493.315, 730.869 467.875, 725.897 450 C 711.259 397.375, 708.169 389.696, 696.675 377.370 C 685.165 365.026, 674.027 360.925, 652.540 361.116 C 645.368 361.180, 638.825 361.364, 638 361.526 M 322.500 449.035 C 308.748 454.873, 298.710 465.623, 293.837 479.734 C 289.660 491.828, 291.164 515.178, 296.330 518.437 C 300.169 520.858, 301.453 518.097, 302.165 505.895 C 303.486 483.247, 310.026 471.398, 328.989 457.296 C 335.646 452.346, 337.071 449.996, 334.960 447.452 C 333.204 445.336, 330.364 445.697, 322.500 449.035 M 115.172 491.873 C 114.128 492.534, 114.504 493.789, 116.920 497.715 C 125.047 510.924, 128.961 523.519, 128.985 536.540 C 129.005 547.399, 127.055 554.505, 120.563 567.232 L 115.089 577.964 122.287 582.232 C 142.305 594.101, 152.087 613.249, 149.087 634.691 C 148.449 639.254, 146.610 647.420, 145 652.838 C 140.885 666.690, 140.275 671, 142.432 671 C 143.360 671, 147.942 672.824, 152.614 675.054 C 171.484 684.061, 181.924 701.550, 181.983 724.250 C 181.992 727.962, 182.392 731, 182.871 731 C 184.328 731, 201.977 718.196, 210.952 710.627 C 239.770 686.325, 261.411 658.924, 278.026 625.703 C 285.323 611.113, 287.422 605, 285.133 605 C 284.656 605, 283.085 606.785, 281.641 608.966 C 271.313 624.573, 234.603 654.226, 227.341 652.827 C 223.004 651.992, 225.198 648.863, 240.943 633.432 C 261.875 612.918, 279 590.874, 279 584.444 C 279 579.144, 275.786 572.809, 272.375 571.383 C 261.779 566.956, 243.942 564.423, 216.500 563.448 C 197.802 562.784, 193 561.860, 193 558.926 C 193 553.070, 239.101 549.285, 260.363 553.394 C 265.238 554.336, 269.445 554.888, 269.713 554.620 C 271.215 553.119, 267.205 546.486, 261.666 541.311 C 227.950 509.807, 178.672 490.985, 130 491.021 C 122.575 491.026, 115.902 491.410, 115.172 491.873 M 730.258 535.250 C 729.714 535.938, 729.010 541.225, 728.693 547 C 727.466 569.327, 720.189 581.692, 700.008 595.740 C 688.768 603.564, 694.879 609.528, 707.917 603.459 C 727.383 594.397, 738.480 579.052, 739.705 559.500 C 740.665 544.185, 734.896 529.378, 730.258 535.250" stroke="none" fill="#1a1a1a" fill-rule="evenodd"/>
</svg>