<svg xmlns="http://www.w3.org/2000/svg" width="1024" height="1024" viewBox="0 0 1024 1024" version="1.1">
	<path d="M 855.286 291.864 C 840.577 298.873, 826.334 308.210, 813.500 319.260 C 804.688 326.847, 784.014 346.882, 783.975 347.874 C 783.962 348.218, 781.282 351.326, 778.020 354.780 C 768.375 364.993, 749.659 392.205, 741.969 407.197 C 739.052 412.883, 739.552 413.361, 735.366 400.884 C 722.848 363.575, 702.261 344.305, 668.780 338.559 C 651.506 335.595, 612.027 341.140, 580.500 350.959 C 564.143 356.053, 529.890 365.460, 512.500 369.634 C 509.200 370.427, 503.125 371.955, 499 373.031 C 478.444 378.394, 440.811 386.239, 396.500 394.399 C 333.486 406.002, 311.001 414.204, 284.439 435.278 C 276.936 441.230, 266.063 456.139, 262.898 464.815 C 257.996 478.250, 257.514 481.072, 257.534 496.203 C 257.551 509.296, 257.386 510.761, 256.026 509.585 C 227.502 484.916, 163.604 466.321, 119.584 469.879 C 93.735 471.967, 86.003 475.680, 86.010 486 C 86.013 489.861, 85.998 489.831, 95.224 505.555 C 102.488 517.935, 105.587 525.403, 106.586 532.938 C 107.356 538.745, 105.475 549.361, 103.366 551.111 C 102.615 551.735, 101.999 552.977, 101.997 553.872 C 101.996 554.768, 100.361 558.200, 98.365 561.500 C 87.512 579.440, 88.768 590.021, 102.584 597.041 C 105.335 598.439, 109.184 600.801, 111.137 602.291 C 113.091 603.781, 115.198 605, 115.821 605 C 116.444 605, 118.732 607.250, 120.906 610 C 128.418 619.504, 128.600 628.564, 121.719 650.500 C 117.500 663.949, 115.515 682.784, 118.434 681.664 C 119.045 681.429, 120.827 682.942, 122.393 685.025 C 124.625 687.991, 126.678 689.293, 131.871 691.034 C 155.429 698.933, 159.385 704.803, 159.573 732.135 C 159.795 764.265, 167.566 766.797, 200.500 745.471 C 234.766 723.282, 272.786 681.620, 291.501 645.752 C 295.167 638.726, 295.486 638.690, 297.031 645.131 C 310.916 703.010, 359.835 729, 421 710.993 C 424.575 709.940, 433.350 707.489, 440.500 705.545 C 447.650 703.601, 458 700.652, 463.500 698.991 C 482.475 693.261, 490.900 691, 493.279 691 C 494.592 691, 496.004 690.663, 496.417 690.250 C 496.829 689.837, 497.467 689.471, 497.833 689.436 C 498.200 689.401, 501.650 688.409, 505.500 687.232 C 519.164 683.053, 549.556 675.800, 553.250 675.837 C 555.313 675.858, 557 675.528, 557 675.104 C 557 674.680, 557.563 674.298, 558.250 674.254 C 558.938 674.210, 565.575 672.799, 573 671.118 C 587.251 667.891, 623.836 660.773, 635.276 659.002 C 662.821 654.738, 705.153 642.956, 720.424 635.304 C 758.382 616.283, 774.491 592.904, 774.497 556.822 C 774.500 542.603, 774.647 541.277, 776.079 542.572 C 776.947 543.358, 777.949 544, 778.305 544 C 778.661 544, 781.996 546.041, 785.716 548.536 C 797.248 556.270, 835.369 573.116, 844.500 574.513 C 851.648 575.607, 870.587 579.490, 871 579.947 C 871.275 580.251, 873.075 580.575, 875 580.667 C 876.925 580.759, 885.250 581.160, 893.500 581.557 C 941.731 583.881, 955.271 573.749, 937.933 548.307 C 920.435 522.631, 919.723 508.998, 934.589 484.342 C 945.721 465.880, 944.666 460.500, 927.750 449.455 C 906.261 435.424, 904.291 427.800, 914.207 397.040 C 923.071 369.542, 921.194 362.508, 902.556 353.384 C 882.323 343.479, 879.757 338.816, 879.602 311.674 L 879.500 293.849 875.765 290.424 C 870.663 285.748, 867.682 285.957, 855.286 291.864" stroke="none" fill="#ffffff" fill-rule="evenodd"/>
</svg>