<svg xmlns="http://www.w3.org/2000/svg" width="1024" height="1024" viewBox="0 0 1024 1024" version="1.1">
	<path d="M 775 320.560 C 723.025 333.412, 649.225 351.637, 611 361.059 C 550.488 375.974, 434.763 404.567, 289 440.618 C 265.625 446.399, 244.496 452.015, 242.046 453.099 C 227.047 459.731, 217.216 473.903, 215.247 491.732 L 214.500 498.500 169.500 532.245 C 144.750 550.805, 114.342 573.391, 101.927 582.436 C 74.228 602.616, 71.344 606.222, 70.260 622.032 C 69.367 635.061, 74.228 647.352, 83.696 656.005 C 90.582 662.299, 93.783 663.229, 121.500 666.993 C 154.341 671.453, 204.193 678.356, 234.848 682.687 L 261.197 686.410 266.701 693.723 C 273.301 702.493, 281.097 708.332, 289.793 711.018 C 300.457 714.312, 305.154 713.765, 333.717 705.907 C 347.898 702.005, 366.700 696.877, 375.500 694.512 C 384.300 692.146, 417.375 683.159, 449 674.540 C 480.625 665.922, 517.075 656.008, 530 652.509 C 591.329 635.906, 708.151 604.143, 731 597.857 C 745.025 593.999, 794.075 580.557, 840 567.986 C 940.712 540.419, 939.037 540.929, 942.586 536.729 C 950.580 527.269, 953.439 514.821, 953.432 489.500 C 953.422 450.101, 943.376 403.236, 926.529 364 C 911.551 329.117, 885.686 296.756, 873.054 297.095 C 871.099 297.148, 826.975 307.707, 775 320.560 M 816.500 335.557 C 789 342.396, 756.930 350.356, 745.234 353.246 L 723.968 358.500 729.086 365.500 C 759.059 406.497, 779.426 475.507, 779.480 536.250 C 779.491 548.763, 779.588 559, 779.696 559 C 782.149 558.998, 923.681 519.533, 924.218 518.701 C 925.787 516.270, 927.139 510.257, 928.256 500.741 C 931.719 471.241, 920.339 413.042, 903.293 373.082 C 893.114 349.220, 875.172 322.923, 869.163 323.061 C 867.699 323.094, 844 328.717, 816.500 335.557 M 679 369.443 C 669.498 371.894, 662.598 374.163, 662.731 374.792 C 662.858 375.394, 665.634 379.955, 668.899 384.928 C 694.610 424.083, 712.065 481.119, 716.050 539 C 716.702 548.466, 716.792 558.685, 716.282 565.250 C 715.643 573.468, 715.731 576, 716.659 576 C 718.463 576, 748.237 567.924, 750.131 566.921 C 753.026 565.388, 754.507 554.017, 754.419 534 C 754.195 482.582, 737.322 421.865, 713.202 385.681 C 707.272 376.785, 697.469 364.920, 696.191 365.094 C 695.811 365.145, 688.075 367.102, 679 369.443 M 613.500 385.486 C 604.150 387.853, 557.034 399.549, 508.799 411.477 L 421.097 433.164 425.898 439.832 C 457.963 484.366, 479.247 558.896, 477.809 621.612 L 477.363 641.079 480.432 640.411 C 482.119 640.043, 506.450 633.533, 534.500 625.944 C 634.363 598.925, 685.271 584.925, 686.980 584.011 C 692.260 581.185, 692.989 545.479, 688.419 513.500 C 681.276 463.514, 660.069 409.006, 638.458 385.085 C 633.972 380.120, 634.745 380.107, 613.500 385.486 M 376 444.443 C 366.651 446.854, 359.598 449.167, 359.727 449.779 C 359.851 450.373, 362.847 455.278, 366.384 460.680 C 396.271 506.322, 415.967 578.999, 414.851 639.522 L 414.500 658.544 431.204 654.022 C 440.391 651.535, 448.360 649.046, 448.912 648.492 C 451.604 645.789, 453.239 628.644, 452.678 609 C 451.125 554.634, 433.892 495.436, 408.757 458.127 C 403.817 450.794, 394.360 439.899, 393.105 440.094 C 392.772 440.145, 385.075 442.102, 376 444.443 M 306.310 461.642 L 284.120 467.151 290.090 475.203 C 312.895 505.959, 330.156 555.072, 338.696 613.500 C 340.748 627.541, 341.157 667.692, 339.319 674.750 C 338.711 677.087, 338.391 679, 338.609 679 C 339.672 679, 383.782 666.873, 385.636 666.071 C 388.981 664.624, 390.395 651.766, 389.711 629.031 C 388.342 583.537, 377.626 537.108, 359.958 500.123 C 348.938 477.053, 334.944 455.943, 330.754 456.067 C 329.514 456.104, 318.514 458.613, 306.310 461.642 M 246.143 479.353 C 242.952 482.644, 240 490.013, 240 494.684 C 240 496.251, 241.983 498.991, 245.875 502.798 C 265.595 522.095, 283.947 567.418, 289.685 611 C 292.083 629.210, 291.082 656.774, 287.603 668.367 L 284.941 677.234 287.586 680.702 C 292.567 687.232, 300.432 690.340, 305.649 687.840 C 325.974 678.098, 313.861 573.764, 285.669 515.755 C 269.897 483.301, 255.324 469.880, 246.143 479.353 M 192 545.728 C 172.475 560.405, 143 582.379, 126.500 594.558 C 99.479 614.505, 96.359 617.101, 95.080 620.709 C 93.301 625.728, 94.935 632.656, 98.893 636.871 C 101.824 639.992, 95.267 638.933, 205 654.002 C 232.775 657.816, 257.169 661.179, 259.210 661.474 L 262.919 662.011 264.471 656.787 C 273.479 626.454, 254.049 548.142, 231.341 523.252 L 227.500 519.042 192 545.728" stroke="none" fill="#1a1a1a" fill-rule="evenodd"/>
</svg>