<svg xmlns="http://www.w3.org/2000/svg" width="1024" height="1024" viewBox="0 0 1024 1024" version="1.1">
	<path d="M 828.500 306.997 C 807.050 312.373, 759.800 324.081, 723.500 333.014 C 328.226 430.288, 246.596 450.659, 240.465 453.560 C 226.084 460.363, 215.052 477.523, 215.012 493.150 L 215 497.801 177.250 526.106 C 156.488 541.674, 127.350 563.302, 112.500 574.167 C 97.650 585.033, 83.389 595.754, 80.809 597.991 C 64.590 612.056, 66.818 643.269, 85.090 657.952 C 92.137 663.615, 87.412 662.684, 159 672.519 C 273.083 688.192, 260.906 685.894, 265.544 692.628 C 273.385 704.013, 283.911 710.989, 296.216 712.955 C 304.340 714.252, 305.890 713.962, 338 705.138 C 362.919 698.290, 448.616 674.991, 601.500 633.498 C 643.300 622.153, 696.400 607.695, 719.500 601.368 C 742.600 595.041, 799.144 579.555, 845.153 566.954 C 934.460 542.496, 939.091 541.084, 942.668 537.224 C 961.129 517.304, 956.185 441.268, 932.281 377.500 C 919.466 343.314, 896.789 308.654, 881 299.121 C 875.420 295.752, 870.316 296.517, 828.500 306.997" stroke="none" fill="#ffffff" fill-rule="evenodd"/>
</svg>