<svg xmlns="http://www.w3.org/2000/svg" width="1024" height="1024" viewBox="0 0 1024 1024" version="1.1">
	<path d="M 385.500 322.809 C 378.600 327.212, 363.294 345.281, 352.635 361.609 C 337.491 384.806, 333.108 401.063, 337.642 417.220 C 339.607 424.222, 340.793 422.960, 323.238 432.540 C 294.009 448.489, 272.139 454.502, 252.182 452.076 C 229.422 449.308, 221.943 442.926, 207.718 414.134 C 197.521 393.494, 193.390 388.245, 183.359 383.181 C 169.435 376.152, 156.682 377.241, 148.407 386.165 C 141.110 394.033, 137.873 402.398, 130.570 432.261 C 112.590 505.783, 104.788 574.186, 109.441 617.500 L 110.838 630.500 107.529 634 C 99.447 642.549, 95.303 659.285, 92.941 692.917 C 91.335 715.773, 94.304 734.454, 100.761 742.128 C 115.008 759.060, 196.777 770.285, 362 777.992 C 579.983 788.159, 661.142 786.775, 744.500 771.469 C 830.021 755.766, 916.166 721.196, 928.109 697.787 C 934.688 684.890, 931.723 626.929, 923.543 608.527 C 921.263 603.399, 913.965 595.758, 910.207 594.566 C 908.995 594.181, 907.633 592.419, 906.951 590.353 C 904.873 584.056, 894.355 569.603, 886.280 561.949 C 865.838 542.571, 840.594 534.147, 784.500 527.987 C 744.963 523.645, 723.282 518.906, 701.158 509.769 C 694.563 507.045, 693.636 506.317, 692.048 502.611 C 687.378 491.717, 676.751 485.161, 663.269 484.857 C 660.576 484.797, 657.500 485.024, 656.434 485.362 C 654.916 485.844, 653.865 484.980, 651.586 481.377 C 644.432 470.071, 627.082 462.977, 616.458 467.016 C 612.243 468.619, 606.385 464.818, 602.317 457.841 C 595.186 445.612, 579.716 438.298, 568.680 441.941 C 563.325 443.708, 557.843 440.597, 554.425 433.851 C 547.731 420.643, 537.127 413.535, 524.363 413.702 L 516.227 413.809 496.863 396.787 C 455.067 360.046, 421.182 334.141, 403.461 325.383 C 394.459 320.934, 389.543 320.230, 385.500 322.809 M 385.035 349.168 C 375.634 360.030, 364.887 375.960, 359.778 386.607 C 356.177 394.112, 355.570 396.363, 355.189 403.628 C 354.655 413.794, 354.399 413.730, 366.285 406.378 C 377.903 399.191, 393.460 391.579, 399.910 389.927 L 404.935 388.638 400.468 383.862 C 393.461 376.371, 394.161 372.171, 404.746 358.210 C 410.025 351.248, 410.188 350.854, 408.387 349.456 C 404.194 346.202, 395.141 341, 393.672 341 C 392.810 341, 388.924 344.676, 385.035 349.168 M 414.281 358.716 C 402.858 373.411, 402.710 374.230, 410.212 381.216 C 416.006 386.611, 416.778 387.025, 420.042 386.483 C 425.977 385.497, 443.055 388.610, 452.673 392.431 C 461 395.739, 461.594 395.840, 463.155 394.219 C 464.708 392.606, 463.567 391.507, 444.655 376.410 C 433.570 367.560, 422.862 359.108, 420.861 357.626 L 417.222 354.932 414.281 358.716 M 162.670 400.239 C 158.344 404.565, 151.316 428.415, 144.033 463.484 C 140.448 480.743, 139.761 478.755, 151.350 484.645 C 185.528 502.014, 207.984 503.392, 223.260 489.058 C 231.914 480.936, 239.096 469, 235.329 469 C 232.082 469, 219.749 462.496, 213.849 457.672 C 205.318 450.697, 198.689 441.183, 190.037 423.500 C 180.369 403.739, 177.590 400.552, 168.278 398.547 C 165.660 397.983, 164.608 398.301, 162.670 400.239 M 469.459 399.067 C 468.669 400.345, 468.153 399.922, 475.500 404.020 L 481.500 407.367 476.500 402.723 C 471.152 397.756, 470.483 397.409, 469.459 399.067 M 414 406.690 C 403.883 408.382, 390.286 414.639, 372.500 425.789 C 357.709 435.062, 358.169 434.648, 360.554 436.520 C 415.244 479.431, 499.562 524.228, 583.500 554.967 C 615.737 566.772, 620.044 568.476, 631.500 573.953 C 638.100 577.109, 645.963 581.560, 648.973 583.845 C 651.983 586.130, 654.717 588, 655.049 588 C 655.381 588, 660.343 587.360, 666.076 586.578 C 671.809 585.796, 686.850 584.153, 699.500 582.927 C 712.150 581.702, 722.641 580.588, 722.814 580.452 C 723.343 580.036, 715.918 565.765, 712.838 561.276 C 706.298 551.744, 695.998 541.530, 684.767 533.438 L 680.033 530.027 677.981 534.264 C 676.355 537.619, 676.061 539.574, 676.569 543.667 C 679.488 567.209, 646.707 576.174, 636.872 554.523 C 633.333 546.734, 634.807 538.707, 641.088 531.553 C 643.092 529.270, 645.306 524.974, 646.630 520.797 L 648.835 513.842 642.168 510.826 C 638.500 509.166, 634.553 507.438, 633.395 506.984 C 630.336 505.786, 617.508 518.874, 616.589 524.132 C 615.083 532.744, 605.967 540, 596.652 540 C 575.018 540, 567.360 511.831, 586.087 501.135 C 588.834 499.566, 592.433 496.445, 594.085 494.200 C 597.537 489.505, 598.231 490.308, 586.177 485.055 L 578.853 481.863 574.177 486.212 C 571.605 488.604, 567.813 491.838, 565.750 493.399 C 563.688 494.960, 562 496.877, 562 497.659 C 562 506.087, 548.710 515.294, 539.137 513.498 C 518.800 509.683, 514.323 483.982, 532.330 474.414 C 536.887 471.993, 543.912 465.466, 542.880 464.613 C 542.671 464.440, 538.985 462.475, 534.688 460.247 L 526.876 456.195 516.641 463.091 C 508.541 468.548, 506.145 470.710, 505.150 473.460 C 501.181 484.437, 486.188 488.751, 475.290 482.051 C 461.049 473.297, 464.554 449.429, 480.719 445.076 C 482.888 444.492, 486.169 442.388, 488.278 440.227 L 492.005 436.411 476.752 427.759 C 443.258 408.761, 429.414 404.113, 414 406.690 M 424 416.594 C 416.409 419.882, 411 427.745, 411 435.492 C 411 453.486, 431.380 462.927, 445.019 451.252 C 462.439 436.341, 444.958 407.517, 424 416.594 M 424.500 423.782 C 411.094 432.244, 418.845 452.503, 434.374 449.590 C 445.659 447.473, 449.496 433.639, 441.044 425.543 C 437.098 421.761, 429.057 420.906, 424.500 423.782 M 426.465 425.952 C 421.492 427.967, 419.343 434.318, 421.668 440.128 C 425.368 449.375, 438.137 449.326, 441.979 440.051 C 445.825 430.766, 436.190 422.010, 426.465 425.952 M 517.500 429.803 C 508.545 432.914, 491.686 445.838, 488.471 452.056 C 486.413 456.035, 486.639 460.271, 489.073 463.365 C 492.967 468.316, 498.412 466.453, 516 454.150 C 521.225 450.495, 528.992 445.678, 533.260 443.444 L 541.020 439.383 537.409 435.165 C 531.125 427.823, 526.659 426.620, 517.500 429.803 M 427.408 433.500 C 425.891 435.816, 425.891 436.184, 427.408 438.500 C 430.290 442.899, 437 441.410, 437 436.371 C 437 431.101, 430.295 429.094, 427.408 433.500 M 344.500 443.099 C 334.387 449.742, 309.621 461.849, 298.778 465.450 C 282.859 470.737, 274.163 472.240, 258.702 472.378 L 244.904 472.500 241.847 478.500 C 225.349 510.883, 195.243 515.969, 151.032 493.842 C 144.725 490.685, 139.496 488.192, 139.413 488.301 C 138.995 488.850, 136.048 506.381, 136.327 506.660 C 136.505 506.839, 140.667 507.677, 145.576 508.523 C 187.388 515.729, 226.107 536.070, 249.728 563.239 C 266.300 582.300, 280.451 610.395, 288.006 639.232 C 290.194 647.584, 290.429 647.987, 293.397 648.486 C 298.106 649.277, 385.824 658.494, 417 661.474 C 510.868 670.446, 597.170 672.438, 657.441 667.024 C 664.009 666.434, 669.542 665.791, 669.738 665.595 C 670.408 664.926, 664.990 632.479, 662.472 622.083 C 655.739 594.274, 648.200 588.146, 596.500 568.458 C 558.560 554.009, 525.597 540.627, 505.989 531.712 C 462.970 512.153, 410.566 481.433, 367.500 450.528 C 359.250 444.608, 352.050 439.628, 351.500 439.461 C 350.950 439.294, 347.800 440.931, 344.500 443.099 M 476.853 454.673 C 466.498 466.526, 479.178 484.647, 492.872 477.566 C 498.696 474.554, 498.782 472.876, 493.024 474.585 C 481.324 478.060, 472.769 469.491, 477.489 459.024 C 479.554 454.444, 479.196 451.992, 476.853 454.673 M 566.307 458.483 C 552.749 465.266, 540 478.474, 540 485.739 C 540 488.423, 545.519 494, 548.176 494 C 551.847 494, 556.456 491.081, 569.553 480.460 C 576.674 474.686, 584.440 469.016, 586.812 467.861 L 591.124 465.761 588.812 463.240 C 585.505 459.633, 577.985 455, 575.439 455 C 574.245 455, 570.136 456.567, 566.307 458.483 M 226.989 473.250 C 224.783 476.870, 224.867 478.345, 227.306 478.818 C 229.590 479.261, 233.314 473.084, 231.836 471.303 C 230.175 469.301, 229.145 469.715, 226.989 473.250 M 147 477.974 C 147 479.979, 151.478 483, 154.450 483 C 156.859 483, 156.278 480.364, 153.365 478.073 C 149.972 475.404, 147 475.358, 147 477.974 M 617.815 482.532 C 612.087 486.286, 601.418 496.653, 598.048 501.741 C 593.790 508.169, 593.801 513.813, 598.077 517.411 C 603.580 522.041, 605.173 521.201, 623.449 504.026 C 630.571 497.333, 637.246 491.403, 638.282 490.849 C 640.686 489.563, 638.849 487.202, 632.054 482.849 C 626.662 479.394, 622.738 479.307, 617.815 482.532 M 216.044 485.823 C 212.753 488.570, 212.499 491, 215.503 491 C 217.957 491, 222.391 486.461, 221.699 484.658 C 220.824 482.379, 219.954 482.558, 216.044 485.823 M 529.557 485.223 C 525.653 490.795, 528.729 501.801, 535.098 505.050 C 541.142 508.134, 551.345 506.466, 552.780 502.160 C 553.302 500.595, 551.053 500.755, 548 502.500 C 539.092 507.592, 530.189 500.295, 531.503 488.977 C 532.258 482.472, 531.928 481.837, 529.557 485.223 M 163.500 485 C 162.549 486.538, 163.801 487.890, 167.675 489.509 C 171.432 491.078, 173 490.772, 173 488.467 C 173 485.747, 164.872 482.780, 163.500 485 M 181.734 490.599 C 180.057 492.276, 181.227 493.969, 184.731 494.936 C 188.718 496.037, 192.558 494.125, 190.457 492.085 C 189.140 490.806, 182.635 489.698, 181.734 490.599 M 199.538 492.348 C 197.216 494.046, 198.333 496, 201.625 496 C 205.187 496, 208.034 494.253, 207.356 492.485 C 206.645 490.632, 201.997 490.550, 199.538 492.348 M 661 500.250 C 661 500.938, 658.757 508.475, 656.015 517 C 650.197 535.092, 649.758 539.878, 653.635 542.927 C 661.785 549.338, 666.984 543.767, 674.898 520.146 C 678.451 509.540, 678.736 505.976, 676.213 503.693 C 671.965 499.848, 661 497.367, 661 500.250 M 584.474 511.028 C 581.561 514.247, 581.720 523.406, 584.763 527.672 C 589.799 534.733, 600.380 535.388, 606.485 529.016 C 609.866 525.486, 608.202 524.970, 603.226 528.004 C 593.707 533.807, 583.057 526.010, 586.025 515.409 C 587.577 509.868, 587 508.238, 584.474 511.028 M 134.548 514.922 C 133.822 516.097, 130.021 548.401, 129.009 562 C 127.713 579.419, 127.732 595.756, 129.066 611.371 C 130.602 629.338, 130.563 629.243, 137.070 630.699 C 148.286 633.209, 185.697 638.051, 220 641.433 C 272.543 646.614, 271.187 646.522, 270.959 644.895 C 270.288 640.113, 273.552 639.416, 275.150 644 C 275.979 646.379, 276.781 647, 279.021 647 L 281.846 647 279.800 639.750 C 262.069 576.906, 222.919 537.212, 161.762 520.071 C 151.763 517.269, 135.052 514.107, 134.548 514.922 M 139.734 518.599 C 137.415 520.918, 144.970 525.372, 148.023 523.486 C 149.180 522.770, 149.321 520.316, 148.242 519.650 C 146.651 518.666, 140.435 517.899, 139.734 518.599 M 158.376 524.463 C 157.589 526.513, 157.988 526.887, 162.676 528.502 C 166.388 529.782, 169 529.125, 169 526.913 C 169 524.397, 159.262 522.153, 158.376 524.463 M 178.421 531.346 C 177.563 533.582, 178.548 534.696, 182.555 536.018 C 188.351 537.931, 191.292 535.528, 186.750 532.591 C 182.969 530.145, 179.103 529.567, 178.421 531.346 M 718.931 536.872 C 719.459 537.858, 720.648 539.293, 721.573 540.061 C 724.738 542.688, 735.260 559.308, 739.937 569.067 L 744.609 578.817 746.377 570.069 C 747.349 565.257, 749.680 557.536, 751.556 552.910 C 753.432 548.285, 754.974 544.439, 754.983 544.364 C 754.992 544.288, 752.862 543.918, 750.250 543.541 C 744.415 542.697, 728.018 538.626, 722.236 536.584 C 718.197 535.158, 718.023 535.174, 718.931 536.872 M 197.380 540.452 C 196.586 542.521, 197.607 543.759, 201.922 545.960 C 204.606 547.330, 206.019 547.581, 206.776 546.824 C 208.449 545.151, 207.091 543.087, 202.917 540.957 C 198.324 538.615, 198.093 538.594, 197.380 540.452 M 642.543 540.930 C 641.070 543.314, 641.566 550.689, 643.388 553.469 C 648.945 561.950, 662.136 562.235, 668 554.001 C 671.266 549.413, 669.983 548.574, 665.627 552.449 C 656.442 560.622, 647.008 557.419, 644.581 545.303 C 643.771 541.261, 643.155 539.940, 642.543 540.930 M 760.720 552.250 C 755.993 564.101, 753.661 574.249, 752.046 589.989 C 751.097 599.234, 751.173 599.891, 754.995 615.489 C 757.152 624.295, 759.452 634.649, 760.105 638.499 C 761.338 645.768, 766.507 652.787, 769.719 651.554 C 770.422 651.285, 778.535 649.237, 787.749 647.004 C 832.574 636.141, 868.633 620.837, 885.904 605.348 L 890.309 601.399 886.064 593.239 C 874.523 571.057, 849.830 557.315, 811.097 551.520 C 800.157 549.884, 767.741 546, 765.020 546 C 763.736 546, 762.491 547.809, 760.720 552.250 M 215.026 552.468 C 213.709 554.056, 219.019 560, 221.754 560 C 224.759 560, 224.327 556.637, 220.961 553.827 C 217.060 550.570, 216.675 550.482, 215.026 552.468 M 231.327 567.589 C 230.501 569.742, 236.258 575.499, 238.411 574.673 C 240.620 573.825, 240.408 572.638, 237.411 569.077 C 234.566 565.696, 232.269 565.134, 231.327 567.589 M 245.371 584.475 C 244.661 586.326, 248.693 593, 250.523 593 C 253.145 593, 253.166 590.849, 250.581 586.942 C 247.821 582.773, 246.301 582.053, 245.371 584.475 M 690.500 590.272 C 674 591.928, 660.378 593.380, 660.229 593.497 C 660.080 593.613, 661.318 596.451, 662.981 599.803 C 666.992 607.887, 671.293 625.890, 674.036 646.072 C 676.750 666.048, 676.473 665, 679.045 665 C 680.842 665, 681.109 664.487, 680.854 661.523 C 680.538 657.864, 682.076 655.311, 683.913 656.446 C 684.511 656.816, 685.007 658.104, 685.015 659.309 C 685.054 664.882, 684.764 664.865, 715.006 660.998 C 741.577 657.601, 743.191 657.200, 742.607 654.138 C 736.756 623.460, 734.106 612.351, 728.797 596.250 C 725.950 587.615, 725.573 587.009, 723.124 587.130 C 721.681 587.201, 707 588.615, 690.500 590.272 M 715.750 592.716 C 713.842 593.005, 713 593.725, 713 595.066 C 713 596.722, 713.724 597, 718.031 597 C 723.254 597, 725.873 594.800, 722.896 592.914 C 721.470 592.011, 720.568 591.986, 715.750 592.716 M 695.750 593.689 C 694.788 593.941, 694 595.014, 694 596.073 C 694 597.716, 694.729 598, 698.941 598 C 704.381 598, 706.317 596.436, 703.462 594.348 C 701.638 593.015, 699.146 592.802, 695.750 593.689 M 674.131 596.342 C 673.519 597.080, 673.351 598.052, 673.759 598.502 C 674.166 598.952, 674.004 599.038, 673.397 598.692 C 672.791 598.347, 671.606 598.612, 670.763 599.282 C 668.440 601.130, 670.681 609.500, 673.500 609.500 C 675.625 609.500, 675.943 607.740, 674.698 602.879 C 674.058 600.381, 674.242 600.233, 678.600 599.742 C 683.476 599.192, 685.649 597.858, 684.554 596.087 C 683.596 594.537, 675.464 594.736, 674.131 596.342 M 256.004 603.750 C 256.009 606.367, 259.752 612, 261.485 612 C 263.576 612, 263.374 609.126, 261.011 605.250 C 258.881 601.756, 255.998 600.892, 256.004 603.750 M 724 605.935 C 724 610.547, 725.745 614.199, 727.753 613.787 C 729.717 613.385, 729.754 606.613, 727.805 604.265 C 725.918 601.991, 724 602.833, 724 605.935 M 895.500 622.946 C 852.989 655.032, 776.814 676.202, 666.689 686.533 C 659.974 687.163, 659.886 687.209, 660.375 689.836 C 661.862 697.820, 664.990 741.452, 664.996 754.311 L 665 761.121 672.250 760.479 C 741.886 754.306, 801.778 740.657, 859.500 717.804 C 876.580 711.042, 898.366 699.265, 905.148 693.128 L 911.237 687.618 910.678 663.059 C 910.128 638.838, 908.709 625.952, 905.863 619.326 L 904.500 616.153 895.500 622.946 M 674.359 618.508 C 673.530 620.667, 674.814 626.601, 676.394 627.912 C 678.504 629.663, 680.128 626.920, 679.363 622.893 C 678.348 617.551, 675.638 615.175, 674.359 618.508 M 728.323 622.077 C 727.123 623.277, 728.174 629.574, 729.855 631.255 C 731.809 633.209, 734.103 631.266, 733.378 628.272 C 731.677 621.245, 730.544 619.856, 728.323 622.077 M 265 624.032 C 265 627.382, 267.787 633, 269.449 633 C 271.295 633, 271.486 629.691, 269.902 625.149 C 268.626 621.488, 265 620.662, 265 624.032 M 678.133 637.340 C 677.491 638.114, 677.161 639.366, 677.399 640.123 C 677.638 640.880, 678.104 642.737, 678.436 644.250 C 678.846 646.122, 679.671 647, 681.019 647 C 682.538 647, 682.977 646.358, 682.900 644.250 C 682.663 637.693, 680.473 634.520, 678.133 637.340 M 732 643.566 C 732 647.819, 733.513 651, 735.535 651 C 737.085 651, 737.513 646.515, 736.370 642.250 C 735.325 638.351, 732 639.352, 732 643.566 M 120.574 651.250 C 117.768 655.538, 111.759 688.092, 113.459 689.792 C 115.222 691.555, 160.577 698.752, 199.500 703.444 C 341.375 720.549, 535.205 731.161, 619.500 726.440 C 635.434 725.547, 653.325 724.009, 653.847 723.486 C 654.112 723.222, 653.741 715.098, 653.023 705.434 L 651.719 687.862 630.609 688.681 C 550.857 691.775, 462.516 687.564, 363.500 675.948 C 346.934 674.004, 288.779 668.158, 244.500 663.985 C 199.481 659.742, 154.700 654.362, 136.557 651.018 C 122.886 648.497, 122.370 648.504, 120.574 651.250 M 112.453 701.262 C 111.468 703.829, 113.718 723.554, 115.357 726.723 C 118.832 733.443, 138.941 738.479, 188 744.915 C 244.677 752.350, 284.849 754.871, 469 762.550 C 540.257 765.522, 624.175 765.422, 650.750 762.335 L 656 761.725 656 755.013 C 656 751.322, 655.717 744.955, 655.371 740.865 L 654.743 733.428 646.621 734.164 C 590.002 739.292, 484.629 737.142, 366 728.437 C 251.099 720.006, 183.217 712.365, 116.268 700.325 C 113.910 699.901, 112.878 700.155, 112.453 701.262" stroke="none" fill="#1a1a1a" fill-rule="evenodd"/>
</svg>