<svg xmlns="http://www.w3.org/2000/svg" width="1024" height="1024" viewBox="0 0 1024 1024" version="1.1">
	<path d="M 316.112 160.251 C 308.283 162.279, 307.308 172.217, 312.517 196.888 C 324.421 253.269, 358.788 297.541, 403 313.449 C 431.801 323.811, 459.790 325.411, 489.297 318.381 C 493.036 317.490, 496.186 316.928, 496.297 317.131 C 496.409 317.334, 496.367 325.488, 496.205 335.250 C 495.923 352.248, 495.826 353, 493.907 353 C 492.804 353, 483.937 350.284, 474.201 346.964 C 443.833 336.609, 427.328 332.803, 404.941 330.995 C 334.911 325.339, 263.815 368.470, 229.222 437.597 C 200.512 494.966, 194.271 580.691, 213.387 655.098 C 242.079 766.778, 316.510 855.805, 395.075 872.414 C 422.385 878.188, 442.070 876.761, 477.840 866.412 C 510.365 857.003, 523.965 856.722, 555 864.821 C 587.974 873.425, 606.939 875.156, 629.129 871.585 C 712.219 858.214, 791.263 769.941, 817.913 660.757 C 837.703 579.679, 834.690 500.543, 809.541 440.878 C 788.880 391.858, 741.725 350.898, 688.404 335.654 C 671.700 330.878, 662.053 329.656, 641.500 329.710 C 616.152 329.778, 598.801 332.810, 568 342.553 C 546.422 349.379, 533.777 352.941, 530.137 353.221 L 526.500 353.500 526.803 346.500 C 528.616 304.699, 547.891 260.342, 574.126 237.599 C 582.335 230.483, 583.632 227.872, 581.962 221.825 C 579.947 214.527, 570.936 206.167, 559.500 200.985 C 543.963 193.944, 538.081 196.723, 526.655 216.500 C 521.901 224.730, 513.053 245.248, 509.045 257.339 C 506.516 264.966, 506.361 264.944, 503.041 256.500 C 481.829 202.540, 443.699 174.673, 377.922 165.060 C 351.864 161.251, 321.398 158.881, 316.112 160.251 M 335 185.501 C 335 186.401, 336.129 191.590, 337.508 197.031 C 350.333 247.626, 381.812 283.598, 422.325 293.954 C 440.813 298.681, 475.662 299.316, 480.325 295.011 C 480.779 294.592, 476.278 289.931, 470.323 284.652 C 448.970 265.722, 427.696 251.199, 393.500 232.204 C 370.067 219.188, 366.726 216.382, 369.153 211.750 C 373.954 202.589, 432.707 234.164, 475.250 268.768 C 483.928 275.827, 484.210 275.596, 480.057 264.812 C 473.027 246.556, 464.724 233.742, 452.305 221.987 C 432.527 203.265, 408.451 194.256, 361.500 188.006 C 348.850 186.323, 337.712 184.702, 336.750 184.405 C 335.576 184.043, 335 184.404, 335 185.501 M 622.500 360.100 C 609.678 361.436, 596.115 364.701, 573.061 371.999 C 518.820 389.169, 507.546 389.405, 461.634 374.331 C 430.052 363.962, 420.688 362.016, 398.991 361.312 C 359.676 360.035, 329.392 371.049, 297.074 398.376 C 206.516 474.949, 212.333 664.578, 308.781 780 C 344.721 823.010, 384.591 845.309, 425.500 845.278 C 439.881 845.268, 445.040 844.395, 468.500 838.008 C 509.262 826.909, 527.673 826.541, 563.901 836.099 C 611.939 848.774, 641.194 844.378, 680 818.656 C 756.894 767.688, 802.410 664.248, 799.703 546.623 C 798.215 481.963, 781.926 437.295, 747.866 404.475 C 712.309 370.212, 669.810 355.168, 622.500 360.100 M 330.828 416.203 C 321.469 420.821, 301.854 440.800, 291.743 456.015 C 279.953 473.756, 273 490.269, 273 500.528 C 273 516.012, 288.473 527.887, 299.716 521.031 C 303.233 518.887, 305.807 515.162, 317.530 495.251 C 325.701 481.374, 338.073 464.205, 347.925 453.073 C 360.514 438.847, 361.446 430.589, 351.638 420.165 C 344.914 413.018, 339.409 411.970, 330.828 416.203 M 333.875 429.156 C 312.524 444.383, 286 483.675, 286 500.080 C 286 503.924, 289.886 510.003, 292.339 509.997 C 292.978 509.995, 297.908 502.683, 303.295 493.747 C 315.047 474.255, 323.088 462.827, 335.617 447.807 C 345.735 435.678, 346.786 432.956, 342.750 429.323 C 338.988 425.936, 338.406 425.925, 333.875 429.156" stroke="none" fill="#1a1a1a" fill-rule="evenodd"/>
</svg>