<svg xmlns="http://www.w3.org/2000/svg" width="1024" height="1024" viewBox="0 0 1024 1024" version="1.1">
	<path d="M 622.500 71.893 C 615.383 75.985, 613.888 77.915, 613.074 84.062 C 613.033 84.370, 610.022 87.070, 606.382 90.062 C 598.341 96.669, 583.529 113.668, 575.856 125.095 C 556.634 153.721, 544.060 188.256, 540.068 223.395 C 539.513 228.279, 538.932 232.401, 538.778 232.555 C 538.624 232.710, 536.023 232.181, 532.999 231.381 C 526.278 229.603, 512.922 229.410, 506.927 231.005 C 484.509 236.970, 468.084 262.350, 468.016 291.129 L 468 297.758 460.839 298.821 C 446.395 300.965, 431.726 311.738, 423.990 325.882 C 420.716 331.869, 419.898 332.611, 410.757 337.882 C 405.398 340.972, 393.731 349.350, 384.829 356.500 C 375.928 363.650, 363.213 373.745, 356.573 378.932 C 349.933 384.120, 337.099 394.208, 328.054 401.350 C 319.009 408.493, 302.584 421.096, 291.554 429.359 C 280.524 437.621, 265.875 448.923, 259 454.474 C 252.125 460.025, 242.450 467.676, 237.500 471.475 C 215.174 488.610, 175.818 526.613, 168.174 538.418 C 162.001 547.952, 157.379 558.724, 155.323 568.370 C 153.389 577.442, 154.065 624.720, 156.461 648 C 161.996 701.781, 163.656 725.085, 164.548 761.500 C 165.130 785.279, 165.547 790.204, 168.909 813 C 170.004 820.425, 171.373 835.659, 171.952 846.853 C 173.060 868.276, 176.992 897.189, 179.839 904.857 C 181.161 908.419, 182.428 909.836, 186.002 911.751 C 192.288 915.120, 197.298 914.854, 266.500 907.475 C 309.637 902.875, 328.112 900.047, 411 885.361 C 427.106 882.508, 447.555 877.451, 459 873.493 C 480.138 866.181, 510.824 858.217, 569 844.946 C 588.525 840.492, 611.025 835.274, 619 833.351 C 638.637 828.616, 660.168 823.686, 680 819.385 C 689.075 817.417, 705.275 813.581, 716 810.860 C 734.139 806.258, 743.402 803.660, 774.500 794.452 C 781.100 792.497, 796.175 788.241, 808 784.993 C 850.807 773.235, 867.066 763.666, 871.909 747.383 C 875.817 734.242, 876.159 726.118, 876.871 629.500 C 877.252 577.800, 877.844 535.050, 878.186 534.500 C 878.528 533.950, 879.363 516.625, 880.042 496 C 882.265 428.423, 878.585 412.654, 853.916 384.063 C 838.040 365.662, 821.916 356.687, 791.791 349.482 C 767.509 343.674, 763.916 341.571, 751.231 325.739 C 745.872 319.050, 738.790 311.384, 735.493 308.703 C 717.426 294.011, 693.292 285.192, 665 282.941 C 652.317 281.932, 637.604 279.586, 628.373 277.101 C 624.495 276.056, 624.267 275.770, 623.077 270.455 C 619.884 256.187, 606.174 237.512, 595 232.211 C 581.470 225.792, 569.955 225.655, 550.750 231.684 C 545.832 233.228, 552.738 195.585, 561.817 171.363 C 574.765 136.815, 607.556 94.522, 624.574 90.421 C 636.742 87.489, 640.729 79.529, 633.600 72.400 C 629.480 68.280, 628.837 68.250, 622.500 71.893 M 565 240.371 C 561.975 241.080, 556.913 242.288, 553.750 243.057 L 548 244.455 548 250.295 C 548 257.337, 547.989 257.338, 561.686 249.921 C 566.147 247.506, 569.071 251.865, 565.250 255.233 C 557.294 262.247, 540.999 265.938, 534 262.313 C 527.744 259.073, 529.391 252.846, 535.903 255.116 C 539.818 256.481, 539.710 256.635, 539.223 250.379 L 538.824 245.257 531.363 243.500 C 511.554 238.835, 495.731 245.703, 487.158 262.688 C 475.299 286.179, 478.934 316.698, 496.303 339.471 C 503.006 348.260, 504.896 349.572, 514.296 351.961 C 537.122 357.761, 557.337 356.459, 585.221 347.394 C 590.130 345.798, 596.734 339.512, 601.638 331.769 C 609.234 319.776, 614.313 287.745, 610.939 273.112 C 605.804 250.836, 584.662 235.769, 565 240.371 M 575 263.706 C 568.505 266.080, 567.568 271.344, 572.325 278.728 C 574.153 281.566, 576.457 286.726, 577.443 290.194 C 578.429 293.662, 579.557 297.625, 579.948 299 C 581.162 303.259, 585.319 304.887, 588.704 302.428 C 592.966 299.333, 597.002 290.635, 596.990 284.571 C 596.965 271.437, 584.974 260.060, 575 263.706 M 576.751 270.079 C 575.150 271.012, 575.338 271.710, 578.960 278.310 C 581.137 282.277, 583.424 287.880, 584.042 290.761 C 585.404 297.111, 586.495 297.328, 589.027 291.750 C 591.500 286.302, 591.500 281.901, 589.028 277.055 C 585.656 270.445, 580.831 267.703, 576.751 270.079 M 622.995 302.377 L 621.500 311.755 630.500 312.241 C 640.372 312.774, 645.924 314.610, 650.342 318.803 C 653.849 322.132, 657 328.094, 657 331.402 C 657 333.416, 658.145 334.493, 663.084 337.125 C 674.817 343.379, 680.404 353.385, 679.764 367 C 678.984 383.615, 672.511 393.276, 655.277 403.550 C 649.900 406.756, 642.313 412.154, 638.418 415.547 C 620.452 431.196, 595.411 440.951, 567.844 443.039 C 550.670 444.341, 544.761 443.446, 532.147 437.632 L 522.500 433.186 512.500 434.536 C 485.887 438.128, 476.077 437.367, 454.474 430.033 C 432.026 422.413, 414.947 409.492, 410.062 396.435 C 405.139 383.278, 408.808 366.003, 418.459 356.900 C 420.407 355.063, 422 352.959, 422 352.225 C 422 349.395, 408.052 358.399, 392.173 371.481 C 383.192 378.878, 370.367 389.087, 363.673 394.166 C 356.978 399.245, 344.750 408.866, 336.500 415.546 C 328.250 422.225, 310.700 435.792, 297.500 445.694 C 284.300 455.597, 268.244 467.929, 261.821 473.099 C 255.397 478.270, 245.505 486.100, 239.838 490.500 C 228.455 499.339, 187.995 539.050, 183.555 545.741 C 180.169 550.843, 180.819 552.129, 187.769 554.077 C 201.260 557.858, 223.949 554.928, 270 543.458 C 294.799 537.281, 318.270 532.084, 344.500 526.960 C 351.918 525.511, 369.541 522.401, 386.500 519.547 C 418.867 514.101, 459.038 505.650, 486 498.614 C 500.154 494.920, 527.490 489.504, 549.500 486.033 C 611.885 476.195, 644.047 468.156, 694.500 449.792 C 722.661 439.542, 742.590 434.676, 777.609 429.503 C 817.271 423.643, 831.472 415.929, 837.060 397.211 L 838.340 392.922 833.920 388.336 C 823.509 377.535, 812.482 372.342, 785.324 365.451 C 758.336 358.603, 750.880 353.967, 736.863 335.318 C 720.495 313.540, 698.928 303.432, 660.459 299.509 C 652.186 298.665, 640.795 296.855, 635.145 295.487 C 629.495 294.119, 624.787 293, 624.681 293 C 624.576 293, 623.818 297.220, 622.995 302.377 M 455.115 316.060 C 449.532 318.559, 440.019 328.242, 436.998 334.500 C 434.626 339.411, 434.129 344.413, 435.047 354.114 C 435.360 357.430, 434.843 358.255, 428.775 364.114 C 422.088 370.572, 419 376.795, 419 383.815 C 419 398.687, 439.104 414.227, 467.878 421.598 C 478.714 424.373, 492.769 424.784, 507.500 422.755 C 522.998 420.620, 525.633 420.925, 535.494 426 C 544.218 430.489, 544.268 430.501, 556.126 430.834 C 583.568 431.605, 611.801 422.898, 627.890 408.703 C 630.976 405.981, 635.750 402.305, 638.500 400.535 C 641.250 398.764, 647.253 394.911, 651.841 391.972 C 663.969 384.202, 668.118 377.580, 668.174 365.906 C 668.218 356.566, 662.015 348.234, 653 345.522 C 648.531 344.178, 646 341.015, 646 336.776 C 646 328.912, 641.737 324.976, 631.667 323.541 C 623.978 322.446, 619.076 323.683, 617.143 327.207 C 616.239 328.854, 614.075 332.624, 612.332 335.585 L 609.165 340.968 613.832 340.734 C 617.925 340.529, 618.538 340.763, 618.804 342.635 C 619.814 349.713, 585.557 361.875, 547.500 367.948 C 540.350 369.089, 530.957 370.733, 526.627 371.602 C 517.350 373.464, 514.605 372.356, 516.762 367.622 C 517.842 365.252, 517.707 365.130, 512.690 363.949 C 505.561 362.272, 493.784 357.536, 486.212 353.302 C 474.146 346.554, 469.136 339.296, 476.786 339.647 C 480.627 339.824, 480.586 340.092, 477.616 334.217 C 476.305 331.623, 474.017 326.071, 472.533 321.881 L 469.834 314.262 464.588 314.214 C 461.502 314.187, 457.602 314.947, 455.115 316.060 M 840.177 404.209 C 832.023 422.022, 817.721 428.991, 776 435.486 C 735.487 441.793, 725.068 444.557, 680 460.958 C 645.211 473.617, 612.549 481.365, 553.500 490.965 C 523.120 495.904, 509.292 498.719, 479.500 506.033 C 454.473 512.176, 415.545 520.356, 392 524.419 C 340.533 533.299, 306.674 540.278, 268 549.978 C 217.448 562.656, 196.478 564.579, 182.552 557.813 C 178.544 555.866, 177.762 555.756, 176.938 557.025 C 174.850 560.238, 171.975 571.849, 171.744 578 L 171.500 584.500 182.547 584.348 C 197.112 584.149, 206.904 582.205, 231.921 574.547 C 258.891 566.292, 271.386 563.798, 310 558.962 C 334.469 555.897, 358.574 551.587, 379.175 546.592 C 446.939 530.163, 486.919 522.799, 542.500 516.509 C 561.755 514.330, 584.207 510.767, 605.537 506.505 C 622.905 503.035, 719.488 479.402, 736.771 474.393 C 778.776 462.221, 796.776 458.880, 809.623 460.874 C 830.655 464.137, 836.950 469.030, 843.173 486.952 C 850.356 507.637, 849.906 539.520, 842.112 562.173 C 840.175 567.805, 840.175 567.888, 842.138 574.172 C 844.940 583.144, 845.896 597.045, 844.944 615 C 843.978 633.244, 842.834 638.023, 838.366 642.491 C 836.836 644.021, 836.868 644.758, 838.817 652.819 C 841.334 663.233, 844.195 689.644, 844.306 703.500 C 844.411 716.613, 841.556 728.437, 832.376 752.904 C 831.055 756.426, 830.234 759.567, 830.551 759.885 C 831.514 760.848, 849.381 751.255, 852.301 748.208 C 857.918 742.345, 858.114 739.503, 859.060 650.500 C 859.534 605.950, 860.402 558.700, 860.989 545.500 C 864.101 475.538, 863.458 438.169, 858.888 423.374 C 857.146 417.732, 846.682 400.158, 844.125 398.577 C 843.493 398.186, 841.883 400.483, 840.177 404.209 M 783 469.553 C 778.875 470.308, 761.325 474.559, 744 478.999 C 625.667 509.326, 595.481 515.866, 541 522.976 C 482.060 530.669, 453.747 535.817, 400.500 548.520 C 352.570 559.955, 350.820 560.281, 298.500 567.503 C 267.019 571.849, 255.760 574.284, 231.306 582.035 C 209.107 589.071, 194.260 592, 180.785 592 L 171 592 171 601.760 C 171 612.287, 172.867 637.596, 175.998 669.500 C 177.077 680.500, 178.259 693.212, 178.624 697.750 C 179.370 707.024, 179.281 706.955, 187.295 704.524 C 194.265 702.409, 210.304 700.220, 227.735 699.005 C 244.170 697.859, 254.234 695.719, 274.500 689.063 C 316.035 675.420, 364.724 664.850, 420 657.477 C 441.724 654.580, 449.812 652.904, 484.381 644.137 C 512.490 637.009, 530.176 633.243, 557.500 628.571 C 568.500 626.690, 585.375 623.738, 595 622.010 C 604.625 620.283, 617.900 617.984, 624.500 616.902 C 673.060 608.940, 711.415 600.573, 743 591.054 C 748.225 589.479, 759.475 586.288, 768 583.963 C 776.525 581.637, 787.133 578.707, 791.573 577.451 C 796.014 576.195, 805.689 573.733, 813.073 571.980 C 820.458 570.228, 828.150 568.383, 830.167 567.881 L 833.833 566.968 836.491 555.854 C 843.393 526.988, 841.691 498.221, 831.939 478.915 C 827.400 469.931, 804.676 465.584, 783 469.553 M 832 579.965 C 830.625 580.409, 824.775 581.778, 819 583.007 C 809.065 585.120, 793.338 589.429, 746 603.006 C 706.559 614.318, 682.242 619.664, 630 628.508 C 536.465 644.342, 523.762 646.817, 480.562 657.620 C 442.121 667.233, 440.958 667.467, 419 669.988 C 376.520 674.865, 321.108 686.734, 283.368 699.040 C 256.850 707.686, 247.092 709.802, 228.272 710.983 C 209.636 712.152, 204.207 712.879, 189.634 716.153 L 179.768 718.369 180.359 723.434 C 180.684 726.221, 181.258 739.188, 181.633 752.250 C 182.009 765.313, 182.555 776, 182.847 776 C 183.138 776, 189.342 774.417, 196.631 772.483 C 204.223 770.469, 216.853 768.109, 226.193 766.960 C 247.806 764.300, 253.035 763.265, 283.548 755.598 C 298.949 751.728, 320.477 747.223, 336.500 744.516 C 371.564 738.593, 408.009 731.181, 435.500 724.383 C 476.343 714.283, 510.121 707.368, 549.500 701.046 C 585.080 695.334, 609.145 689.853, 664 674.970 C 678.025 671.165, 701.425 664.845, 716 660.926 C 730.575 657.007, 745.650 652.945, 749.500 651.899 C 769.158 646.561, 785.614 642.675, 805.809 638.605 C 830.701 633.587, 835.013 632.011, 836.192 627.500 C 838.212 619.770, 837.364 578.830, 835.189 579.079 C 834.810 579.122, 833.375 579.521, 832 579.965 M 827.796 646.538 C 827.481 646.852, 816.486 649.292, 803.362 651.959 C 774.909 657.743, 775.862 657.499, 681.500 683.193 C 621.096 699.641, 595.460 705.643, 556.500 712.458 C 499.504 722.429, 474.368 727.448, 448.195 734.085 C 412.779 743.066, 370.073 751.941, 337.788 757.029 C 316.869 760.326, 309.132 761.955, 281 768.984 C 258.194 774.681, 243.006 777.539, 224.759 779.564 C 217.007 780.424, 205.847 782.566, 197.662 784.763 L 183.745 788.500 184.367 796.500 C 184.709 800.900, 185.674 808.325, 186.510 813 C 187.347 817.675, 188.510 831.175, 189.096 843 C 190.025 861.742, 193.901 895.234, 195.304 896.637 C 195.786 897.119, 233.177 894.356, 238 893.483 C 239.375 893.234, 247.925 892.349, 257 891.517 C 282.112 889.215, 320.641 884.234, 338.500 880.982 C 347.300 879.379, 355.850 877.824, 357.500 877.527 C 359.150 877.230, 374.900 874.493, 392.500 871.445 C 423.917 866.004, 440.098 862.238, 461 855.504 C 490.806 845.900, 507.767 841.577, 577.500 825.810 C 587.400 823.571, 598.875 820.947, 603 819.977 C 640.288 811.212, 661.178 806.365, 682.500 801.530 C 711.040 795.059, 729.779 790.181, 755.500 782.528 C 765.400 779.583, 780.925 775.088, 790 772.541 C 821.848 763.600, 819.805 764.397, 821.571 760.222 C 826.098 749.522, 835.039 720.485, 836.088 713.079 C 838.386 696.847, 831.638 642.696, 827.796 646.538" stroke="none" fill="#1a1a1a" fill-rule="evenodd"/>
</svg>