<svg xmlns="http://www.w3.org/2000/svg" width="1024" height="1024" viewBox="0 0 1024 1024" version="1.1">
	<path d="M 557.500 188.549 C 550.900 189.235, 523.900 190.277, 497.500 190.864 C 403.751 192.950, 398.810 193.226, 377 197.589 C 347.694 203.452, 327.037 212.513, 290.500 235.532 C 267.781 249.845, 246.289 261.731, 218 275.626 C 163.605 302.345, 155.772 309.099, 124.779 356 C 118.419 365.625, 106.297 382.725, 97.842 394 C 68.134 433.617, 65.054 444.008, 60.558 519.785 C 55.933 597.733, 57.588 608.448, 81.998 658.585 C 104.069 703.919, 123.341 726.008, 167 756.015 C 177.725 763.386, 191.225 772.843, 197 777.030 C 244.016 811.120, 263.904 819.206, 322.500 828.054 C 337.350 830.297, 363.225 834.997, 380 838.500 C 438.644 850.746, 470.154 853.286, 516.500 849.504 C 627.839 840.420, 704.913 819.679, 783.500 777.655 C 828.381 753.654, 850.236 733.989, 888.136 683.500 C 895.568 673.600, 906.686 659.227, 912.844 651.561 C 940.002 617.750, 946.960 603.068, 949.130 575 C 949.703 567.575, 949.908 557.675, 949.585 553 C 949.262 548.325, 948.956 526.050, 948.906 503.500 C 948.743 430.518, 946.502 415.183, 931.515 384.500 C 919.656 360.221, 912.151 351.279, 873.009 314.785 C 821.253 266.532, 804.869 256.178, 753 238.944 C 737.875 233.918, 711.325 224.173, 694 217.288 C 652.683 200.868, 650.235 199.988, 630.950 194.615 C 604.515 187.250, 585.278 185.661, 557.500 188.549 M 557 207.451 C 548.475 208.183, 525.300 209.090, 505.500 209.466 C 453.664 210.450, 399.851 212.751, 390 214.405 C 359.470 219.529, 341.015 226.962, 306.320 248.107 C 274.435 267.538, 260.401 275.340, 229 291.085 C 174.174 318.578, 169.607 322.379, 142.602 363 C 134.741 374.825, 121.597 393.500, 113.394 404.500 C 105.191 415.500, 96.595 428.122, 94.293 432.549 C 72.785 473.910, 80.552 542.031, 111.782 585.948 C 115.477 591.144, 124.226 601.157, 131.224 608.199 C 138.222 615.241, 151.497 629.439, 160.724 639.750 C 200.748 684.477, 221.574 701.250, 262.606 721.803 C 321.369 751.238, 360.280 759.350, 424 755.450 C 454.925 753.557, 491.812 753.918, 529 756.478 C 610 762.052, 659.038 750.117, 722.824 709.301 C 752.827 690.103, 774.343 677.824, 803.885 663.043 C 855.075 637.429, 892.294 599.210, 911.120 552.926 C 922.715 524.421, 929.428 490.069, 929.377 459.500 C 929.300 412.433, 913.300 377.227, 876.806 343.819 C 871.207 338.693, 860.069 328.425, 852.054 321 C 811.454 283.384, 792.886 271.991, 748.500 257.459 C 728.195 250.810, 697.350 239.341, 680.500 232.173 C 669.843 227.640, 639.584 216.527, 629.798 213.553 C 607.635 206.817, 585.734 204.981, 557 207.451 M 410 238.013 C 391.062 241.285, 348.237 262.832, 335.431 275.531 C 309.189 301.555, 323.072 330.775, 360.511 328.320 C 365.452 327.996, 372.554 328.407, 379.128 329.398 C 419.259 335.447, 449.808 325.461, 460.994 302.636 C 475.937 272.144, 444.325 232.084, 410 238.013 M 408.500 249.005 C 404.491 249.861, 390.477 255.565, 375.500 262.438 C 337.314 279.961, 322.463 302.878, 342.089 314 C 346.176 316.316, 347.492 316.504, 360 316.550 C 367.425 316.578, 378.450 317.198, 384.500 317.928 C 425.692 322.900, 453.262 309.905, 453.167 285.564 C 453.075 262.134, 431.131 244.173, 408.500 249.005 M 637.314 260.795 C 626.036 264.828, 618.310 272.705, 610.708 287.925 C 601.224 306.912, 606.494 323.259, 626.225 336.055 C 643.413 347.201, 678.057 353.263, 703.500 349.578 C 723.704 346.651, 732.715 342.672, 737.994 334.348 C 746.059 321.631, 740.511 303.511, 724.020 288.702 C 701.808 268.756, 656.150 254.060, 637.314 260.795 M 643.872 270.007 C 637.577 271.085, 636.163 271.976, 629.723 278.933 C 619.931 289.509, 615.110 302.744, 617.934 311.299 C 620.575 319.301, 631 327.900, 644.261 333.014 C 671.173 343.392, 719.550 340.924, 728.415 328.720 C 733.432 321.815, 729.480 308.824, 719.290 298.728 C 702.025 281.621, 662.954 266.742, 643.872 270.007 M 792.842 367.316 C 774.370 375.104, 756.328 391.663, 750.938 405.775 C 746.156 418.298, 747.399 442.511, 753.484 455.376 C 760.703 470.634, 782.990 482.154, 813.710 486.506 C 850.011 491.649, 864.362 483.064, 865.766 455.367 C 866.943 432.130, 850.441 391.472, 833.738 376.454 C 821.601 365.542, 805.555 361.957, 792.842 367.316 M 219.500 376.747 C 217.300 377.651, 210.550 381.153, 204.500 384.528 C 198.450 387.903, 188.208 393.480, 181.739 396.921 C 149.848 413.887, 144.721 425.386, 157.099 452.192 C 161.171 461.012, 161.434 462.143, 162.120 473.755 C 163.004 488.737, 163.516 491.318, 166.699 496.851 C 171.906 505.900, 180.794 507.020, 195.930 500.534 C 215.996 491.936, 223.056 486.252, 248.779 457.991 C 267.505 437.416, 270.511 431.800, 269.847 418.636 C 269.310 408.010, 265.044 399.964, 254.040 388.823 C 241.083 375.704, 230.791 372.106, 219.500 376.747 M 794.075 379.545 C 783.302 384.559, 767.565 398.140, 763.566 405.871 C 761.956 408.986, 761.975 409.317, 764.014 413.530 C 766.826 419.338, 774.804 426.466, 784.581 431.906 C 811.535 446.904, 821.620 456.307, 826.496 470.987 L 828.161 476 833.431 476 C 848.847 476, 854.828 467.746, 853.738 447.975 C 852.819 431.288, 840.405 400.713, 829.518 388.320 C 819.973 377.455, 805.997 373.995, 794.075 379.545 M 223.500 387.233 C 219.477 388.675, 179.866 410.344, 173.248 414.722 C 161.427 422.544, 160.211 431.226, 168.457 448.955 C 173.299 459.363, 173.324 459.471, 174.121 473.320 C 175.238 492.720, 176.756 494.568, 188.277 490.543 C 207.588 483.795, 214.665 478.392, 239 451.820 C 261.524 427.226, 263.248 418.405, 249.022 400.528 C 239.625 388.718, 231.363 384.415, 223.500 387.233 M 517.712 396.081 C 511.524 397.345, 504.027 400.688, 491 407.992 C 485.225 411.230, 476.900 415.307, 472.500 417.051 C 426.525 435.276, 412.599 454.071, 422.530 484.494 C 427.118 498.551, 431.199 503.931, 440.500 508.184 C 448.148 511.681, 464.583 511.260, 484.500 507.055 C 494.617 504.919, 504.440 503.597, 514.674 502.994 C 541.503 501.414, 555.687 494.171, 567.061 476.245 C 576.261 461.746, 577.343 435.478, 569.389 419.780 C 561.239 403.698, 536.336 392.277, 517.712 396.081 M 517.187 407.510 C 514.264 408.325, 504.589 412.793, 495.687 417.440 C 486.784 422.087, 474.325 428.190, 468 431.002 C 441.794 442.653, 430 453.817, 430 466.972 C 430 475.720, 436.843 492.541, 441.696 495.720 C 445.543 498.241, 462.666 498.701, 474.500 496.602 C 479.450 495.724, 487.325 494.318, 492 493.478 C 496.675 492.638, 506.831 491.522, 514.568 490.999 C 536.628 489.507, 546.159 485.401, 555.243 473.476 C 565.429 460.103, 566.103 433.179, 556.564 420.673 C 548.671 410.324, 529.764 404.004, 517.187 407.510 M 759.194 433.500 C 760.307 455.231, 773.288 466.510, 804 472.434 C 808.675 473.335, 813.513 474.290, 814.750 474.555 C 818.166 475.288, 817.612 472.579, 812.854 465.277 C 807.060 456.382, 801.619 451.981, 787.630 444.871 C 773.413 437.646, 769.005 434.769, 763.089 428.855 L 758.733 424.500 759.194 433.500 M 926.568 546.333 C 919.618 565.962, 910.749 583.286, 899.658 598.898 L 893.692 607.296 895.846 619.516 C 897.031 626.237, 898 632.894, 898 634.309 C 898 638.827, 899.452 638.045, 905.662 630.183 C 918.589 613.816, 925.434 601.178, 928.506 588 C 930.289 580.349, 931.633 539.509, 930.131 538.581 C 929.762 538.353, 928.158 541.841, 926.568 546.333 M 77.473 555.500 C 76.543 567.873, 77.492 588.010, 79.530 599.128 C 80.888 606.535, 86.908 626.425, 87.587 625.746 C 87.729 625.604, 88.342 620.990, 88.948 615.494 C 89.555 609.997, 91.102 600.325, 92.387 594 L 94.724 582.500 90.189 573.500 C 87.695 568.550, 83.983 560.225, 81.939 555 L 78.224 545.500 77.473 555.500 M 670.500 561.361 C 659.202 564.269, 649.664 571.232, 628.657 591.907 C 603.435 616.732, 598.022 624.678, 597.219 638.060 C 596.512 649.841, 600.981 656.822, 613.240 663.086 C 642.969 678.276, 710.049 666.187, 734.913 641.157 C 745.829 630.169, 749.483 622.968, 749.493 612.426 C 749.505 598.339, 742.874 591.230, 721.180 582.076 C 714.390 579.211, 708.360 575.741, 703.228 571.745 C 690.219 561.616, 680.943 558.674, 670.500 561.361 M 326.539 569.044 C 301.424 572.991, 282.158 585.087, 270.982 603.922 C 252.934 634.339, 271.191 661.149, 319.500 675.171 C 347.678 683.350, 374.982 684.664, 387.682 678.454 C 398.486 673.170, 405.455 660.851, 405.477 647 C 405.493 636.743, 403.942 633.282, 394.833 623.244 C 386.021 613.535, 384.469 610.771, 380.941 598.500 C 375.515 579.629, 371.210 573.971, 359.586 570.431 C 353.398 568.547, 334.698 567.762, 326.539 569.044 M 671.994 572.934 C 664.241 575.293, 655.891 581.415, 641.003 595.657 C 611.893 623.504, 603.771 637.974, 611.993 647.339 C 628.932 666.631, 702.172 657.509, 727.029 633.011 C 736.655 623.524, 740.744 611.118, 736.419 604.517 C 734.139 601.036, 726.938 596.710, 715.510 591.954 C 705.109 587.625, 702.487 586.079, 695 579.858 C 686.888 573.118, 679.098 570.773, 671.994 572.934 M 328.661 580.132 C 301.567 583.613, 279.527 601.538, 275.579 623.304 C 273.755 633.359, 282.779 646.372, 297.093 654.331 C 318.194 666.063, 365.264 674.483, 380.184 669.194 C 390.224 665.635, 397.007 649.140, 392.412 639.456 C 391.539 637.616, 387.923 632.823, 384.376 628.805 C 375.576 618.837, 373.698 615.319, 369.494 600.929 C 367.497 594.093, 365.215 587.497, 364.422 586.271 C 360.565 580.303, 346.337 577.861, 328.661 580.132 M 97.578 588.874 C 95.641 592.007, 92.879 616.558, 93.175 627.993 L 93.500 640.500 100.822 655 C 111.197 675.548, 118.844 687.152, 131.402 701.410 L 137.489 708.319 138.679 696.910 C 140.231 682.031, 143.144 669.745, 147.904 658 C 150.663 651.192, 151.497 648.006, 150.846 646.758 C 150.347 645.800, 140.958 635.798, 129.982 624.531 C 119.006 613.264, 107.347 600.433, 104.074 596.019 C 100.801 591.604, 97.877 588.389, 97.578 588.874 M 888.111 613.750 C 884.480 620.372, 857.040 644.579, 841.864 654.547 C 836.164 658.292, 831.167 661.631, 830.760 661.968 C 830.352 662.305, 830.471 664.138, 831.023 666.040 C 831.574 667.943, 833.582 678.899, 835.483 690.387 C 837.385 701.875, 839.181 711.514, 839.474 711.808 C 840.854 713.188, 855.148 696.341, 871.977 673.500 C 877.650 665.800, 885.151 656.028, 888.646 651.785 C 895.919 642.954, 895.734 644.089, 892.880 625.750 C 890.774 612.211, 890.009 610.288, 888.111 613.750 M 153.978 654.042 C 148.602 664.086, 143.219 686.054, 142.343 701.521 L 141.719 712.542 147.609 717.938 C 154.447 724.201, 166.360 733.114, 184 745.165 C 190.875 749.862, 202.769 758.092, 210.431 763.453 C 227.971 775.727, 226.707 775.366, 227.462 768.326 C 229.472 749.571, 231.981 733.690, 234.482 723.883 C 235.106 721.440, 234.403 720.775, 223.825 713.814 C 203.335 700.330, 184.975 684.253, 163.206 660.731 C 155.619 652.534, 155.018 652.098, 153.978 654.042 M 822.500 666.828 C 820.850 667.829, 809.682 673.708, 797.682 679.892 C 764.167 697.165, 737 713.408, 737 716.175 C 737 717.100, 738.328 723.626, 739.951 730.678 C 741.575 737.730, 743.909 750.362, 745.138 758.750 C 746.368 767.138, 747.825 774, 748.376 774 C 750.318 774, 777.490 759.684, 790.072 752.031 C 814.578 737.126, 836.612 718.769, 835.625 714.079 C 835.326 712.660, 833.705 703.175, 832.023 693 C 828.544 671.962, 827.084 664.998, 826.150 665.004 C 825.793 665.006, 824.150 665.827, 822.500 666.828 M 718 726.547 C 703.119 735.787, 686.747 744.463, 677.500 748.010 C 669.509 751.075, 669.894 750.214, 671.479 761.511 C 672.249 767.005, 673.434 778.362, 674.111 786.750 C 674.904 796.574, 675.740 802, 676.459 802 C 682.003 802, 741.784 778.726, 742.758 776.188 C 744.461 771.750, 734.660 717.795, 732.203 718.082 C 731.816 718.128, 725.425 721.937, 718 726.547 M 238.518 725.250 C 236.208 732.137, 234.198 743.203, 232.480 758.500 C 230.163 779.117, 229.369 776.823, 241.250 783.837 C 263.789 797.143, 278.553 801.639, 324 809.032 C 334.175 810.687, 357.411 814.957, 375.635 818.521 C 393.859 822.084, 408.975 825, 409.227 825 C 409.479 825, 409.974 817.462, 410.326 808.250 C 410.910 793.020, 411.749 783.656, 413.531 772.500 L 414.170 768.500 393.335 768.400 C 344.665 768.165, 301.038 756.199, 250 729.085 C 239.630 723.576, 239.135 723.411, 238.518 725.250 M 656.500 755.598 C 633.875 763.587, 597.744 769.962, 574.917 769.991 C 571.296 769.996, 568.098 770.235, 567.811 770.522 C 567.524 770.810, 568.308 775.263, 569.555 780.418 C 572.306 791.797, 574.665 805.849, 575.557 816.169 L 576.220 823.839 579.860 823.327 C 612.296 818.765, 664.103 807.645, 670.053 803.967 C 671.542 803.047, 670.145 777.903, 667.694 761.509 C 666.295 752.147, 666.286 752.142, 656.500 755.598 M 432.582 767.093 C 425.477 767.557, 419.291 768.309, 418.836 768.764 C 415.804 771.796, 412.334 825.470, 415.107 826.440 C 416.697 826.997, 434.395 829.519, 443.804 830.531 L 450.108 831.209 449.804 807.354 C 449.637 794.235, 449.716 779.675, 449.981 775 C 450.548 764.978, 452.360 765.802, 432.582 767.093 M 454.448 768.104 C 453.440 771.205, 453.393 829.726, 454.398 830.734 C 455.697 832.036, 494.651 832.239, 511 831.030 C 534.275 829.307, 570.227 825.173, 571.306 824.094 C 573.170 822.230, 568.509 788.811, 564.502 775.318 L 563.010 770.294 545.755 769.591 C 536.265 769.204, 523.100 768.486, 516.500 767.996 C 509.900 767.506, 493.414 766.791, 479.864 766.407 L 455.227 765.709 454.448 768.104" stroke="none" fill="#1a1a1a" fill-rule="evenodd"/>
</svg>