<svg xmlns="http://www.w3.org/2000/svg" width="1024" height="1024" viewBox="0 0 1024 1024" version="1.1">
	<path d="M 365.500 263.613 C 336.531 271.063, 318.474 289.475, 313.975 316.151 C 311.924 328.307, 314.700 345.770, 320.087 354.600 L 321.978 357.700 312.548 358.319 C 262.495 361.607, 236.765 417.310, 267.123 456.660 C 275.607 467.657, 296.469 479, 308.210 479 C 310.534 479, 310.475 479.514, 307.582 484.450 C 292.860 509.572, 301.740 545.499, 326.662 561.645 C 329.873 563.725, 332.693 565.562, 332.929 565.726 C 333.165 565.890, 332.431 567.279, 331.298 568.811 C 315.429 590.274, 318.211 623.928, 337.462 643.405 C 347.917 653.982, 364.987 661, 380.258 661 L 387.196 661 385.027 664.250 C 359.150 703.026, 388.018 756, 435.025 756 C 439.435 756, 440.059 756.240, 439.584 757.750 C 425.787 801.609, 467.189 843.280, 510.856 829.486 C 541.112 819.928, 558.259 785.843, 547.593 756.460 C 545.027 749.390, 544.964 749.485, 552.498 749.084 C 559.950 748.688, 571.233 744.735, 578.588 739.943 C 604.977 722.750, 614.527 688.296, 600.724 660.088 C 598.951 656.465, 597.368 653.217, 597.207 652.871 C 597.046 652.526, 599.521 652.856, 602.707 653.606 C 652.997 665.439, 692.199 603.252, 659.944 562.809 C 656.222 558.142, 656.127 558.451, 661.855 556.548 C 676.687 551.622, 690.344 537.287, 696.182 520.517 C 700.644 507.701, 700.137 495.502, 694.415 478 C 694.070 476.947, 695.947 475.473, 700.712 473.054 C 719.286 463.624, 732.965 441.335, 732.965 420.500 C 732.965 401.187, 719.918 378.069, 703.632 368.525 C 687.766 359.226, 667.792 356.741, 652.250 362.133 C 648.263 363.516, 645 364.581, 645 364.500 C 645 364.418, 646.756 360.959, 648.901 356.813 C 666.897 322.037, 649.875 281.244, 612 268.378 C 604.569 265.854, 587.020 265.881, 578.500 268.431 C 565.333 272.370, 550.496 282.607, 544.953 291.575 C 542.286 295.892, 541.690 295.860, 538.863 291.250 C 522.270 264.192, 484.081 255.180, 456.101 271.718 C 447.074 277.054, 441.204 282.641, 436 290.850 C 430.755 299.124, 430.650 299.169, 428.084 294.250 C 421.580 281.785, 407.487 270.515, 392.500 265.793 C 386.629 263.943, 369.571 262.566, 365.500 263.613 M 365.317 275.503 C 338.136 281.412, 320.711 306.793, 324.974 334.268 C 327.874 352.960, 343.112 369.917, 360.646 373.962 L 365.791 375.149 372.146 370.469 C 383.351 362.217, 391.387 359.185, 404.761 358.166 L 413.500 357.500 417.184 352 C 424.658 340.844, 427.064 325.345, 423.467 311.535 C 416.912 286.370, 390.530 270.022, 365.317 275.503 M 475.782 275.553 C 457.282 280.038, 442.730 294.316, 438.540 312.093 C 433.242 334.568, 441.228 355.232, 460.195 368.128 C 466.995 372.751, 467.039 372.755, 472.889 369.193 C 486.458 360.931, 502.959 357.948, 517.075 361.207 L 522.303 362.414 525.781 358.457 C 533.699 349.448, 538.582 334.201, 537.679 321.307 C 535.522 290.506, 505.535 268.340, 475.782 275.553 M 586.951 278.061 C 571.137 280.389, 556.757 290.738, 549.516 305 C 547.573 308.827, 547.355 310.247, 548.056 314.500 C 549.338 322.271, 549.142 329.255, 547.400 337.902 L 545.799 345.844 548.972 351.796 C 550.717 355.070, 553.350 359.163, 554.822 360.891 L 557.500 364.032 564 361.346 C 579.104 355.104, 601.193 357.508, 615.863 366.990 L 622.132 371.042 624.999 369.001 C 629.477 365.812, 635.381 358.641, 638.753 352.294 C 658.573 314.993, 628.529 271.939, 586.951 278.061 M 475.558 283.482 C 461.686 287.436, 451.602 302.517, 459.055 308.163 C 462.312 310.631, 464.746 309.785, 471.870 303.704 C 475.519 300.589, 479.326 298.503, 484.254 296.918 C 494.653 293.575, 497.284 290.042, 493.166 284.957 C 490.856 282.103, 482.771 281.426, 475.558 283.482 M 350.500 289.567 C 338.851 295.604, 329.737 317.878, 337.861 320.456 C 341.227 321.524, 342.868 319.907, 345.040 313.380 C 347.480 306.049, 350.325 302.248, 356.615 297.921 C 365.430 291.856, 360.110 284.587, 350.500 289.567 M 476.667 290.222 C 472.845 291.235, 464.115 298.448, 465.289 299.622 C 465.629 299.963, 467.711 298.813, 469.915 297.067 C 472.119 295.322, 476.527 292.811, 479.711 291.489 C 485.777 288.970, 484.072 288.260, 476.667 290.222 M 574.500 290.136 C 564.049 296.025, 557.376 312.376, 563.092 318.092 C 564.478 319.478, 565.914 319.989, 567.342 319.606 C 568.529 319.288, 569.804 319.021, 570.177 319.014 C 571.255 318.992, 583.956 302.160, 585.780 298.336 C 588.969 291.648, 581.480 286.204, 574.500 290.136 M 575.625 298.081 C 572.927 300.202, 568.996 306.812, 569.005 309.210 C 569.010 310.556, 572.061 307.161, 576.623 300.732 C 579.788 296.272, 579.362 295.141, 575.625 298.081 M 574.263 369.469 C 538.952 377.396, 523.987 421.352, 546.944 449.708 C 573.572 482.597, 626.925 467.296, 633.207 424.969 C 638.042 392.396, 606.102 362.322, 574.263 369.469 M 303.191 371.025 C 265.397 380.926, 252.408 426.153, 279.500 453.515 C 293.594 467.749, 314.004 471.897, 328.098 463.391 C 331.727 461.201, 337.532 458.550, 340.998 457.501 C 345.339 456.186, 348.364 454.496, 350.723 452.068 C 354.467 448.213, 354.475 447.953, 351.133 438.860 C 346.552 426.398, 346.724 408.821, 351.531 398.111 C 355.061 390.245, 354.482 388.297, 346.740 381.993 C 332.313 370.244, 318.984 366.888, 303.191 371.025 M 392.843 371.560 C 344.604 387.093, 349.296 458.938, 399.147 468.088 C 405.738 469.297, 405.839 469.282, 411.312 466.193 C 419.091 461.803, 427.333 459.234, 436.227 458.428 C 442.807 457.832, 444.253 457.346, 446.540 454.958 C 449.838 451.516, 449.849 449.345, 446.613 440.500 C 442.251 428.578, 443.226 410.320, 448.911 397.468 C 451.042 392.651, 450.324 389.901, 445.415 384.076 C 434.301 370.889, 411.664 365.499, 392.843 371.560 M 661 371.563 C 653.455 373.192, 644.159 377.663, 638.625 382.324 L 634.750 385.587 637.774 391.044 C 641.853 398.404, 644.319 408.812, 644.280 418.500 C 644.252 425.463, 643.473 429.783, 640.449 439.750 C 639.833 441.781, 640.103 442, 643.223 442 C 655.433 442, 671.291 449.299, 681.820 459.766 L 689.140 467.043 695.320 463.805 C 731.006 445.108, 729.637 393.127, 693 375.760 C 681.486 370.303, 672.371 369.107, 661 371.563 M 492.105 372.583 C 465.041 379.860, 448.379 410.365, 456.879 437.072 C 463.478 457.809, 483.581 472.911, 504.683 472.985 C 510.788 473.007, 529.063 466.008, 534.468 461.580 L 538.915 457.936 534.990 451.864 C 522.420 432.415, 521.769 405.335, 533.431 387 C 537.416 380.735, 537.482 380.884, 528.767 376.412 C 518.400 371.093, 503.450 369.531, 492.105 372.583 M 570.189 380.189 C 557.335 386.421, 548.752 402.818, 553.518 412.035 C 557.083 418.930, 563.537 416.758, 569.301 406.724 C 572.016 401.998, 574.938 398.626, 579.080 395.439 C 587.705 388.802, 589.092 385.001, 584.545 380.455 C 581.455 377.364, 576.217 377.267, 570.189 380.189 M 666.532 380.377 C 664.353 382.556, 664.105 383.327, 665.027 385.050 C 666.224 387.286, 666.348 387.349, 672.983 389.052 C 676.216 389.882, 678.983 391.708, 682.908 395.601 C 688.403 401.053, 690.610 401.990, 692.800 399.800 C 698.238 394.362, 685.480 380.368, 673.321 378.432 C 669.674 377.852, 668.810 378.099, 666.532 380.377 M 394.744 380.428 C 385.500 383.727, 374.872 394.836, 373.387 402.753 C 372.163 409.273, 376.351 413.338, 382.057 411.169 C 385.120 410.004, 401.590 396.464, 405.286 392.072 C 412.207 383.847, 405.603 376.553, 394.744 380.428 M 292 385.598 C 280.501 390.538, 271.804 408.804, 278 415 C 280.143 417.143, 284.017 417.597, 286.918 416.044 C 289.115 414.868, 301.601 398.178, 302.962 394.599 C 305.482 387.972, 298.953 382.611, 292 385.598 M 494.746 385.064 C 478.396 389.013, 465.788 405.879, 473.455 413.545 C 477.386 417.477, 480.852 416.805, 488.352 410.658 C 492.148 407.546, 497.375 404.402, 500.872 403.127 C 507.204 400.818, 512 396.387, 512 392.846 C 512 390.350, 506.782 385.005, 504.327 384.986 C 503.322 384.979, 501.600 384.789, 500.500 384.565 C 499.400 384.341, 496.811 384.565, 494.746 385.064 M 571.500 387.573 C 566.939 389.945, 564.259 392.839, 561.505 398.366 C 557.491 406.420, 558.729 411.902, 562.946 404.750 C 566.844 398.137, 569.617 394.860, 574.250 391.389 C 576.862 389.431, 579 387.418, 579 386.915 C 579 385.484, 574.808 385.852, 571.500 387.573 M 393 389.106 C 386.521 392.990, 377.567 404, 380.888 404 C 382.782 404, 400 389.409, 400 387.804 C 400 386.337, 396.548 386.979, 393 389.106 M 492.969 392.536 C 487.508 394.219, 480.753 399.768, 478.994 404.015 C 476.755 409.421, 479.073 409.438, 486.011 404.069 C 489.527 401.347, 495.013 398.169, 498.202 397.007 C 508.832 393.131, 504.114 389.100, 492.969 392.536 M 290.315 394.860 C 286.478 398.364, 282.768 405.390, 283.203 408.327 C 283.464 410.089, 284.704 408.924, 289.762 402.163 C 293.193 397.578, 296 393.416, 296 392.913 C 296 391.145, 293.412 392.031, 290.315 394.860 M 638.023 452.830 C 635.261 453.093, 632.886 454.754, 626.472 460.911 C 618.985 468.099, 606.387 476, 602.413 476 C 599.013 476, 596.009 478.552, 594.052 483.100 C 590.434 491.512, 590.405 495.531, 593.892 505.686 C 595.604 510.672, 597.295 517.619, 597.651 521.125 C 598.358 528.101, 598.951 529.266, 605.053 535.669 C 608.873 539.677, 609.565 540.001, 614.340 540.015 C 621.086 540.034, 630.776 542.363, 637.656 545.617 C 645.203 549.187, 653.046 548.729, 662.292 544.177 C 690.263 530.407, 696.905 491.993, 675.309 468.897 C 664.810 457.670, 650.770 451.619, 638.023 452.830 M 639.877 463.899 C 636.223 466.857, 637.936 470.486, 643.927 472.476 C 651.113 474.863, 656.583 479.244, 659.458 484.917 C 664.604 495.072, 672.666 491.270, 668.594 480.607 C 664.088 468.807, 646.472 458.558, 639.877 463.899 M 348.402 466.459 C 329.658 470.618, 315.220 485.907, 311.998 505.010 C 308.778 524.105, 319.375 546.075, 335.826 554.412 L 340.985 557.026 347.029 552.900 C 355.405 547.183, 365.484 543.855, 376.329 543.226 C 384.753 542.737, 385.128 542.617, 384.488 540.607 C 378.607 522.138, 380.110 502.947, 388.555 488.678 C 393.120 480.965, 392.981 480.010, 386.750 476.280 C 369.460 465.930, 360.792 463.710, 348.402 466.459 M 425.977 471.276 C 412.463 475.884, 402.384 484.898, 396.098 498 C 392.513 505.473, 392.500 505.550, 392.500 519.052 L 392.500 532.604 396.425 540.552 C 409.984 568.008, 443.485 577.036, 468.500 559.974 C 472.719 557.096, 482.025 547.641, 481.964 546.293 C 481.945 545.857, 481.277 542.800, 480.480 539.500 C 477.684 527.920, 478.917 515.326, 484.123 502.284 L 486.205 497.068 483.884 493.284 C 471.526 473.132, 447.411 463.967, 425.977 471.276 M 531.182 477.085 C 491.334 483.967, 475.719 535.230, 505.165 562.493 C 535.491 590.569, 584.295 571.061, 586.749 529.881 C 588.687 497.362, 561.782 471.799, 531.182 477.085 M 338.346 479.930 C 326.802 485.172, 318.744 506.205, 326.262 511.471 C 332.029 515.510, 336.120 512.894, 342.637 501 C 351.241 485.297, 351.149 485.522, 350.079 482.709 C 348.244 477.883, 344.703 477.044, 338.346 479.930 M 426.699 480.426 C 414.196 483.788, 404.577 496.760, 407.197 506.727 C 409.030 513.699, 414.340 513.315, 419.723 505.822 C 422.532 501.913, 424.866 500.068, 430.408 497.380 C 441.994 491.759, 444.783 484.525, 436.928 480.463 C 433.592 478.738, 432.986 478.736, 426.699 480.426 M 338.935 487.837 C 334.207 491.555, 328.929 503.689, 331.469 505 C 332.563 505.565, 342.312 488.437, 341.790 486.869 C 341.604 486.312, 340.319 486.748, 338.935 487.837 M 426 487.594 C 421.843 489.395, 417.367 493.455, 415.411 497.200 C 412.966 501.879, 413.875 502.607, 417.170 498.610 C 419.167 496.187, 422.683 493.713, 426.670 491.924 C 430.478 490.215, 433 488.469, 433 487.542 C 433 485.613, 430.531 485.632, 426 487.594 M 517.825 490.378 C 502.180 496.059, 492.730 523, 506.382 523 C 510.081 523, 511.634 521.569, 517.781 512.500 C 520.017 509.200, 523.682 504.754, 525.924 502.621 C 533.951 494.981, 528.373 486.548, 517.825 490.378 M 514.259 500.511 C 510.239 503.951, 506.332 511.496, 507.208 514.124 C 507.443 514.829, 509.147 513.190, 511.031 510.448 C 512.901 507.726, 516.191 503.587, 518.343 501.250 C 523.399 495.756, 520.439 495.220, 514.259 500.511 M 605 552.604 C 592.757 555.881, 579.203 566.752, 574.026 577.446 C 559.029 608.427, 580.640 643.922, 614.540 643.988 C 648.834 644.056, 670.782 607.746, 655.453 576.306 C 646.653 558.256, 623.870 547.553, 605 552.604 M 367.105 555.583 C 335.674 564.035, 321.874 601.618, 340.152 628.989 C 365.837 667.453, 425.183 648.584, 425.035 602 C 424.983 585.581, 421.493 577.559, 412.137 572.351 C 408.486 570.319, 402.565 565.834, 398.978 562.384 C 390.194 553.937, 380.733 551.918, 367.105 555.583 M 481.142 563.355 C 472.039 572.630, 457.948 578.694, 443.670 579.480 C 433.531 580.038, 433.282 580.304, 435.027 588.736 C 436.809 597.343, 436.597 611.045, 434.582 617.500 C 432.420 624.427, 432.501 624.917, 436.912 631.742 C 440.455 637.225, 441.232 637.862, 445.162 638.517 C 452.124 639.676, 459.712 642.890, 466.566 647.582 L 472.947 651.951 481.099 650.928 C 506.565 647.735, 525.561 624.664, 523.594 599.316 C 522.662 587.304, 520.954 584.389, 512.605 580.554 C 504.408 576.790, 495.986 570.155, 491.060 563.580 C 486.843 557.952, 486.454 557.943, 481.142 563.355 M 591.934 567.266 C 582.350 573.724, 578.524 596.636, 586.830 597.827 C 590.142 598.301, 591.997 596.266, 592.024 592.128 C 592.063 586.102, 593.679 580.974, 596.992 576.361 C 600.472 571.516, 600.601 568.456, 597.416 566.353 C 595.577 565.138, 594.931 565.246, 591.934 567.266 M 352.143 572.378 C 344.321 576.715, 338.856 596.066, 343.557 602.777 C 347.038 607.748, 352 604.399, 352 597.078 C 352 590.802, 353.524 586.475, 357.634 581.086 C 361.413 576.130, 361.687 574.830, 359.429 572.571 C 357.538 570.681, 355.310 570.622, 352.143 572.378 M 446.655 582.113 C 439.726 586.217, 439.064 606.857, 445.830 607.827 C 449.620 608.370, 451 606.313, 450.995 600.128 C 450.992 597.032, 451.764 592.341, 452.710 589.702 C 455.149 582.898, 451.998 578.948, 446.655 582.113 M 554.313 584.182 C 551.460 585.150, 545.479 586.247, 541.023 586.618 L 532.922 587.294 533.711 591.897 C 535.104 600.023, 534.368 612.996, 532.116 620 C 529.457 628.270, 529.418 628.038, 533.250 626.870 C 540.249 624.738, 557.874 625.712, 565.544 628.655 C 566.471 629.011, 565.797 626.656, 563.594 621.850 C 558.140 609.950, 556.705 599.137, 559.098 587.980 C 560.422 581.803, 560.690 582.016, 554.313 584.182 M 531.656 638.921 C 506.487 647.192, 490.858 675.838, 497.533 701.465 C 507.277 738.875, 555.293 750.890, 581.802 722.552 C 606.462 696.191, 597.272 652.752, 564.324 639.933 C 556.063 636.719, 539.883 636.218, 531.656 638.921 M 532.809 646.921 C 526.689 651.768, 528.573 656.249, 538.922 661.461 C 542.704 663.366, 547.482 666.066, 549.539 667.462 C 558.555 673.581, 566.387 667.450, 561.536 658.069 C 556.679 648.677, 539.171 641.883, 532.809 646.921 M 421.465 649.473 C 398.314 656.791, 383.428 679.841, 386.793 703.160 C 389.191 719.773, 398.637 732.751, 413.794 740.259 L 422.356 744.500 433.928 744.480 C 445.167 744.461, 445.724 744.355, 453.286 740.779 C 463.422 735.986, 472.455 727.424, 477.668 717.670 L 481.500 710.500 481.500 697.500 C 481.500 684.618, 481.467 684.432, 477.889 677 C 467.382 655.180, 442.230 642.910, 421.465 649.473 M 538 652.831 C 538 653.288, 539.237 654.287, 540.750 655.051 C 542.263 655.815, 545.871 657.916, 548.769 659.720 C 556.265 664.386, 558.105 663.946, 553.829 658.509 C 550.383 654.129, 538 649.687, 538 652.831 M 404.575 668.068 C 400.030 672.059, 395.912 680.878, 395.266 688.006 C 394.618 695.153, 395.982 698, 400.057 698 C 403.470 698, 404.159 696.772, 405.847 687.669 C 406.564 683.801, 408.118 680.182, 410.464 676.917 C 414.421 671.409, 414.982 667.596, 412.066 666.035 C 409.189 664.496, 408.400 664.710, 404.575 668.068 M 478.003 735.750 C 473.027 740.628, 466.843 745.380, 461.317 748.572 L 452.536 753.645 450.319 760.572 C 443.153 782.954, 453.357 806.803, 474.500 817.093 C 481.281 820.393, 481.878 820.500, 493.552 820.500 C 505.448 820.500, 505.701 820.452, 513.141 816.775 C 537.269 804.850, 546.638 776.954, 534.537 753.073 C 532.329 748.716, 531.479 747.993, 526.779 746.477 C 519.130 744.009, 510.343 738.913, 503.692 733.087 C 498.094 728.184, 497.667 728, 491.896 728 L 485.909 728 478.003 735.750 M 467.114 751.633 C 462.068 755.167, 458.872 769.976, 462.250 774.169 C 466.117 778.968, 471 775.769, 471 768.438 C 471 765.929, 471.732 761.639, 472.626 758.906 C 474.155 754.229, 474.146 753.819, 472.471 751.968 C 470.314 749.584, 470.061 749.568, 467.114 751.633" stroke="none" fill="#1a1a1a" fill-rule="evenodd"/>
</svg>