<svg xmlns="http://www.w3.org/2000/svg" width="1024" height="1024" viewBox="0 0 1024 1024" version="1.1">
	<path d="M 482.775 74.532 C 316.599 97.190, 222.792 276.543, 299.257 425.406 C 328.447 482.232, 381.198 525.094, 444.609 543.509 C 451.564 545.529, 481.455 552, 483.830 552 C 484.099 552, 484.055 639.306, 483.734 746.012 L 483.150 940.025 485.552 942.879 C 492.636 951.298, 513.248 954.041, 531.259 948.961 C 540.447 946.370, 540.380 948.141, 539.601 730.250 L 538.974 555 543.737 554.996 C 574.429 554.970, 622.367 534.634, 658.101 506.480 C 736.796 444.479, 769.606 342.816, 741.844 247 C 717.994 164.690, 651.592 100.697, 568 79.465 C 544.855 73.587, 506.143 71.346, 482.775 74.532 M 496.500 88.030 C 434.617 92.381, 371.213 126.794, 334.401 176.010 C 272.666 258.548, 271.619 367.854, 331.784 449.404 C 339.239 459.508, 366.556 487.777, 367.731 486.603 C 368.074 486.260, 367.213 484.746, 365.817 483.240 C 353.107 469.513, 333.708 436.373, 323.442 410.849 C 301.935 357.372, 301.499 291.949, 322.328 243.426 C 334.458 215.166, 361.005 182.368, 386 164.761 C 442.224 125.155, 519.110 117.900, 584.639 146.018 C 616.661 159.758, 639 179.344, 655.374 208.037 C 688.413 265.933, 680.736 334.698, 636.199 379.780 C 579.604 437.068, 480.139 436.375, 442.368 378.429 C 412.852 333.148, 431.369 272.699, 478.500 260.474 C 495.087 256.171, 517.821 259.635, 527.233 267.900 C 537.480 276.897, 537.476 286.736, 527.219 298.838 C 521.232 305.902, 519 310.498, 519 315.761 C 519 325.879, 524.994 330.141, 540.153 330.803 C 553.771 331.398, 558.495 329.694, 567.079 321.093 C 578.096 310.053, 583 297.249, 583 279.520 C 583 235.831, 545.302 204.981, 491.852 204.931 C 465.692 204.907, 447.356 210.440, 425.839 224.854 C 342.804 280.474, 350.071 404.107, 439.907 464.180 C 487.428 495.956, 545.269 502.545, 604.250 482.902 C 649.129 467.955, 685.537 442.739, 712.398 408 C 722.577 394.836, 722.920 394.141, 727.512 377.384 C 741.902 324.881, 738.498 272.579, 717.505 223.602 C 680.428 137.100, 589.748 81.474, 496.500 88.030 M 483 142.620 C 381.518 155.284, 316.204 231.721, 320.325 333 C 322.350 382.799, 341.637 432.105, 375.672 474.500 C 390.440 492.895, 417.344 516.492, 430.500 522.589 C 441.441 527.659, 473.310 535.472, 494 538.156 C 509.595 540.179, 548.515 539.871, 560.500 537.630 C 598.949 530.442, 646.678 502.429, 675.886 469.909 C 686.813 457.743, 695.420 446.787, 691.919 449.500 C 660.906 473.533, 639.360 485.269, 605.500 496.571 C 515.884 526.483, 422.238 493.540, 375.941 415.814 C 351.457 374.709, 346.831 322.224, 363.925 279.500 C 385.511 225.550, 435.517 190.586, 491 190.649 C 555.151 190.722, 598.636 228.490, 596.752 282.500 C 595.174 327.776, 560.737 355.846, 523.749 342.007 C 511.335 337.363, 505.592 329.155, 505.550 316 C 505.518 306.061, 507.482 301.032, 514.426 293.269 C 522.079 284.715, 522.764 281.447, 517.711 277.593 C 508.067 270.238, 486.149 270.343, 471.378 277.816 C 439.163 294.113, 432.285 346.523, 458.278 377.636 C 486.348 411.235, 545.657 418.131, 594 393.415 C 650.822 364.364, 676.147 297.171, 653.313 236.043 C 636.011 189.726, 603.346 162.022, 550.129 148.533 C 530.642 143.593, 498.143 140.731, 483 142.620 M 497.242 744.285 L 496.985 934.691 502.107 936.346 C 507.898 938.216, 515.744 938.477, 521.139 936.978 L 524.777 935.968 525.536 912.234 C 525.953 899.180, 526.004 830.675, 525.648 760 C 525.293 689.325, 525.002 614.548, 525.001 593.830 L 525 556.159 518.750 555.605 C 515.313 555.301, 509.125 554.787, 505 554.465 L 497.500 553.878 497.242 744.285" stroke="none" fill="#1a1a1a" fill-rule="evenodd"/>
</svg>