<svg xmlns="http://www.w3.org/2000/svg" width="1024" height="1024" viewBox="0 0 1024 1024" version="1.1">
	<path d="M 535.091 132.067 C 527.311 135.252, 529.329 147.049, 540.558 164.030 C 543.275 168.138, 545.609 171.725, 545.744 172 C 545.879 172.275, 541.155 172.634, 535.245 172.798 C 482.025 174.274, 433.429 203.254, 405.534 250.150 C 394.585 268.555, 387.752 288.855, 383.130 316.706 C 380.565 332.161, 379.666 335.549, 376.660 341.078 C 363.404 365.464, 365.642 395.928, 382.417 419.436 C 396.222 438.781, 428.164 459.496, 455.784 467.015 C 460.028 468.170, 464.074 469.305, 464.776 469.536 C 465.691 469.838, 465.307 471.137, 463.423 474.122 C 461.020 477.929, 452.727 494.352, 451.735 497.270 C 451.487 498.001, 450.136 497.084, 448.408 495.010 C 433.076 476.614, 413.649 469.682, 398.261 477.119 C 389.977 481.123, 381.951 492.915, 380.453 503.286 C 379.901 507.108, 379.220 508.352, 377.070 509.464 C 367.963 514.173, 363.489 522.615, 363.537 535 C 363.582 546.541, 365.812 551.695, 374.189 559.617 L 379.595 564.730 374.674 569.115 C 371.968 571.527, 369.206 573.820, 368.536 574.210 C 367.615 574.748, 346.933 567.877, 345.177 566.449 C 344.847 566.181, 353.925 534.803, 369.610 482 C 381.903 440.613, 381.852 432.987, 369.243 426.871 C 352.265 418.636, 335.196 427.879, 319.055 454.050 C 305.979 475.250, 290.485 509.199, 279.942 539.750 C 276.833 548.757, 276.667 549, 273.625 549.008 C 257.099 549.050, 215.197 563.528, 191.872 577.255 C 143.829 605.530, 120.793 642.880, 117.401 698 L 116.693 709.500 112.406 713.282 C 106.087 718.858, 103.648 725.816, 103.565 738.500 C 103.433 758.981, 110.134 768.570, 132.109 779.346 C 142.421 784.402, 177.567 797, 181.363 797 C 182.164 797, 184.720 800.464, 187.044 804.697 C 191.775 813.318, 205.801 828.246, 214.767 834.204 L 220.034 837.704 208.267 838.378 C 166.597 840.764, 144 844.657, 144 849.450 C 144 851.640, 146.739 851.722, 157.171 849.845 C 165.572 848.334, 172.563 847.589, 197.500 845.546 C 220.761 843.641, 230.670 843.744, 242.034 846.007 C 260.652 849.714, 278.266 847.980, 293.872 840.904 C 297.416 839.297, 300.401 838.099, 300.505 838.241 C 300.609 838.384, 302 840.974, 303.597 843.998 C 307.541 851.468, 319.903 863.745, 328.694 868.924 C 352.657 883.039, 392.515 887.143, 417.994 878.117 C 447.006 867.840, 469.396 841.789, 475.525 811.179 C 476.039 808.612, 476.565 808.008, 477.845 808.515 C 484.830 811.284, 492.996 811.772, 525.163 811.345 L 558.500 810.902 562.260 815.944 C 570.109 826.470, 587.666 837.074, 603.983 841.144 C 615.896 844.116, 633.704 843.413, 645.963 839.488 C 650.991 837.878, 654.563 837.189, 654.763 837.789 C 656.497 842.991, 669.642 854.765, 678.985 859.486 C 695.443 867.801, 722.910 871.504, 745.220 868.415 C 765.534 865.603, 782.044 857.602, 797.167 843.239 L 800.835 839.756 811.667 840.386 C 839.856 842.026, 854.616 843.789, 867.858 847.096 C 876.670 849.297, 878.736 848.895, 877.566 845.208 C 876.082 840.534, 851.257 835.933, 819.250 834.401 C 805.963 833.765, 803.310 833.163, 806.129 831.420 C 809.939 829.066, 819.260 803.661, 820.573 792.054 L 821.227 786.280 831.846 785.593 C 858.791 783.851, 880.972 779.703, 887.487 775.186 C 894.800 770.118, 897.501 762.934, 897.495 748.571 C 897.487 732.178, 894.278 726.023, 884.725 724.082 C 881.595 723.445, 881.491 723.259, 881.201 717.747 C 880.905 712.127, 880.938 712.053, 884.319 710.640 C 897.222 705.249, 901.987 678.254, 893.218 660.228 C 888.683 650.905, 877.730 641.043, 871.873 641.009 C 870.793 641.003, 869.239 638.526, 867.248 633.639 C 848.730 588.172, 794.669 549.053, 740 541.562 L 735.500 540.945 735.442 526.223 C 735.256 478.569, 718.286 445.893, 691.906 442.393 L 687.059 441.750 691.375 436.625 C 740.435 378.371, 734.062 271.263, 678.364 217.927 C 661.506 201.784, 635.624 186.762, 615.769 181.598 L 610.500 180.228 610.798 174.927 C 611.504 162.374, 606.381 145.805, 600.321 141.038 C 597.243 138.616, 591.369 138.353, 588.306 140.498 C 585.397 142.536, 582.997 149.306, 582.725 156.242 C 582.601 159.399, 582.468 161.987, 582.429 161.992 C 582.391 161.996, 580.035 159.100, 577.194 155.555 C 564.837 140.134, 543.906 128.458, 535.091 132.067 M 540.497 145.991 C 544.250 155.569, 549.831 163.873, 558.717 173.102 C 569.469 184.269, 569.517 186.595, 558.919 182.936 C 550.175 179.917, 527.596 180.661, 508.233 184.607 C 467.111 192.987, 428.514 223.083, 408.997 261.987 C 399.670 280.579, 395.512 294.254, 391.056 321 C 388.705 335.113, 387.856 338.208, 385.188 342.391 C 375.742 357.204, 373.838 379.896, 380.544 397.714 C 391.675 427.286, 430.655 455.033, 472.450 463.135 C 483.225 465.224, 484.379 465.782, 483.835 468.644 C 483.566 470.061, 482.330 470.618, 478.613 471 L 473.744 471.500 467.122 483.586 C 463.480 490.233, 459.776 497.658, 458.891 500.086 L 457.281 504.500 466.891 504.537 C 474.626 504.567, 478.255 505.132, 485.500 507.433 C 505.600 513.817, 524.921 510.898, 555.273 496.894 C 569.476 490.340, 570 490.198, 570 492.915 C 570 497.711, 551.424 509.037, 535.546 513.922 C 516.272 519.851, 499.261 520.544, 484.500 516 C 468.782 511.162, 455.958 512.256, 447.626 519.146 C 441.324 524.358, 439.632 529.991, 443.059 534.348 L 445.118 536.966 452.165 533.417 C 463.995 527.459, 465.440 530.512, 455.151 539.724 C 447.829 546.280, 445.386 550.417, 446.415 554.516 C 447.555 559.058, 455.841 560.388, 464.558 557.429 C 471.853 554.952, 475.057 558.450, 469.499 562.823 L 466.997 564.790 470.731 568.069 C 479.022 575.348, 501.503 583.795, 518.666 586.079 C 554.070 590.790, 590.889 570.935, 600.521 541.937 C 602.388 536.315, 604.203 535.661, 605.986 539.967 C 610.548 550.980, 592.076 575.311, 571.048 585.986 C 548.964 597.198, 518.153 597.252, 489.507 586.129 C 485.161 584.441, 481.528 583.160, 481.432 583.280 C 481.337 583.401, 481.032 586.814, 480.755 590.864 L 480.251 598.228 519.875 597.576 C 556.669 596.970, 581.856 596.196, 624.500 594.363 C 633.850 593.961, 641.837 593.546, 642.250 593.441 C 642.663 593.336, 647.696 593.194, 653.436 593.125 L 663.873 593 661.881 585.813 C 656.178 565.232, 642.839 535.947, 624.756 504.303 C 611.252 480.671, 609.852 478.862, 605.784 479.768 C 603.978 480.171, 595.256 480.500, 586.403 480.500 C 570.013 480.500, 567 479.867, 567 476.423 C 567 474.835, 569.151 474.487, 587.500 473.112 C 662.461 467.495, 705.775 428.152, 714.489 357.766 C 723.459 285.312, 689.877 221.773, 628.804 195.645 C 619.773 191.781, 613.155 189.652, 606.758 188.555 C 602.085 187.753, 601.493 185.857, 602.405 174.625 C 603.182 165.048, 601.865 157.352, 598.427 151.367 C 592.385 140.849, 589.545 146.255, 589.867 167.666 C 590.141 185.915, 588.318 187.516, 581.851 174.706 C 576.198 163.505, 555.564 144.662, 545.101 141.143 C 538.247 138.838, 537.855 139.251, 540.497 145.991 M 436.500 257.662 C 432.450 259.797, 429.101 262.941, 427.405 266.200 C 423.988 272.767, 427.355 274.975, 432.821 269.752 C 437.243 265.527, 440.335 263.823, 444.989 263.050 C 448.764 262.422, 450.060 259.982, 447.960 257.452 C 446.383 255.552, 440.290 255.664, 436.500 257.662 M 591.441 270.441 C 588.556 272.584, 590.701 275.308, 595.982 276.210 C 600.971 277.062, 602.661 278.074, 609.761 284.468 C 615.640 289.762, 618.446 290.040, 617.055 285.192 C 613.880 274.120, 598.452 265.236, 591.441 270.441 M 430.869 319.007 C 417.064 326.301, 414.674 356.347, 427.417 362.394 C 435.339 366.153, 445.900 361.886, 449.425 353.500 C 452.526 346.123, 453.152 330.128, 450.537 325.071 C 446.680 317.612, 438.362 315.048, 430.869 319.007 M 575.625 335.416 C 556.609 342.453, 554.288 376.901, 572.486 381.996 C 584.670 385.407, 595.408 376.055, 597.910 359.854 C 600.661 342.039, 589.828 330.160, 575.625 335.416 M 474.388 346.852 C 455.065 354.040, 440.756 370.754, 445.050 381.120 C 446.343 384.243, 456.756 392, 459.655 392 C 460.395 392, 461 392.615, 461 393.366 C 461 394.117, 462.596 397.922, 464.548 401.823 C 474.223 421.162, 493.191 426.420, 511.249 414.767 C 518.398 410.153, 533.458 395.896, 535.674 391.642 C 538.464 386.287, 538.249 385.985, 511.855 358.326 C 500.277 346.193, 487.049 342.142, 474.388 346.852 M 479 353.873 C 469.117 357.116, 453.143 368.823, 451.489 374.036 C 449.876 379.117, 461.177 385.679, 476.500 388.560 C 489.755 391.052, 519.894 389.274, 525.751 385.654 C 527.055 384.848, 500.181 357.506, 496.088 355.475 C 492.196 353.543, 482.715 352.654, 479 353.873 M 469 395.595 C 469 396.934, 475.214 404.981, 478.428 407.803 C 485.178 413.729, 496.210 414.486, 505.613 409.669 C 510.311 407.262, 524.521 396.188, 523.816 395.483 C 523.628 395.295, 518.980 395.828, 513.487 396.667 C 502.413 398.360, 476.619 398.023, 471.750 396.123 C 470.238 395.533, 469 395.295, 469 395.595 M 347.500 433.864 C 332.657 440.616, 308.026 484.699, 288.694 539.111 L 285.280 548.721 290.390 549.890 C 294.528 550.837, 331.370 562.079, 335.646 563.700 C 337.120 564.259, 338.911 558.714, 355.567 502 C 374.449 437.707, 373.170 443.163, 370.544 438.085 C 367.534 432.264, 355.757 430.107, 347.500 433.864 M 672.785 453.394 L 667.070 457.786 669.997 458.999 C 674.013 460.662, 681.677 469.077, 683.880 474.241 C 691.106 491.183, 689.724 533.394, 680.435 579.430 C 679.111 585.992, 678.168 591.501, 678.339 591.672 C 679.238 592.572, 704.593 588.750, 709.225 587.017 C 721.154 582.554, 725.122 573.418, 727.096 545.865 C 731.319 486.947, 715.787 451.735, 684.566 449.446 C 678.657 449.012, 678.352 449.115, 672.785 453.394 M 651.500 466.097 C 648.200 467.717, 639.613 470.889, 632.417 473.147 L 619.333 477.253 624.576 485.949 C 645.004 519.834, 670 574.350, 670 585.017 C 670 596.270, 676.680 559.996, 679.119 535.500 C 683.412 492.386, 679.262 472.146, 664.682 465.088 C 659.281 462.474, 658.812 462.509, 651.500 466.097 M 402.500 483.393 C 398.697 485.059, 391.286 493.070, 389.424 497.528 C 387.446 502.262, 387.649 505.912, 390.116 509.959 L 392.225 513.418 393.729 510.459 C 394.556 508.832, 396.643 505.999, 398.367 504.165 C 407.605 494.331, 417.911 495.969, 431.613 509.451 L 438.791 516.513 443.091 512.697 L 447.391 508.881 445.448 505.274 C 436.823 489.257, 414.764 478.019, 402.500 483.393 M 404.146 508.750 C 399.172 513.486, 397.694 518.586, 397.698 531 C 397.702 544.288, 398.492 546.419, 401.332 540.810 C 402.524 538.455, 405.525 535.023, 408 533.182 C 413.154 529.349, 414.940 525.455, 415.728 516.335 C 416.216 510.679, 416.047 509.956, 413.676 507.585 C 410.230 504.139, 408.805 504.314, 404.146 508.750 M 423.988 515.576 C 423.982 517.184, 423.312 520.975, 422.500 524 C 421.688 527.025, 421.018 529.612, 421.012 529.750 C 421.005 529.888, 421.607 530, 422.350 530 C 423.092 530, 425.609 531.383, 427.943 533.074 C 433.011 536.745, 432.822 536.863, 433.105 529.863 C 433.349 523.831, 431.538 519.733, 426.562 515.059 L 424 512.651 423.988 515.576 M 376.382 519.557 C 373.090 523.047, 369.816 531.287, 370.744 533.750 C 371.510 535.786, 380.988 535.304, 384.701 533.040 C 389.353 530.204, 391.500 525.621, 389.941 521.857 C 387.185 515.203, 381.411 514.224, 376.382 519.557 M 412.888 538.500 C 409.891 540.129, 406.885 546.128, 408.754 546.751 C 415.609 549.036, 420.373 555.536, 421 563.457 L 421.500 569.774 424.993 568.637 C 432.439 566.213, 434.508 552.288, 428.577 544.513 C 423.403 537.729, 418.068 535.684, 412.888 538.500 M 385.500 541.536 C 383.850 542.292, 380.137 542.930, 377.250 542.955 C 371.365 543.005, 370.934 543.740, 373.919 548.634 C 378.606 556.321, 385.505 559.170, 389.453 555.049 C 392.284 552.094, 392.288 552.070, 391.009 546.043 C 390.304 542.719, 389.451 540.037, 389.113 540.081 C 388.776 540.126, 387.150 540.781, 385.500 541.536 M 734.501 549.832 C 734.225 550.108, 734 552.077, 734 554.209 C 734 560.381, 731.073 572.883, 728.090 579.454 C 722.242 592.338, 711.678 596.953, 684.250 598.606 C 678.063 598.979, 673.004 599.558, 673.008 599.892 C 673.012 600.227, 673.687 605.883, 674.508 612.462 C 675.530 620.656, 676 633.822, 676 654.263 L 676 684.101 682.250 679.653 C 734.709 642.322, 802.971 660.813, 832.119 720.250 L 835.429 727 840.465 726.990 C 843.234 726.985, 851.350 726.318, 858.500 725.510 C 865.650 724.701, 871.905 724.030, 872.399 724.020 C 874.759 723.968, 871.181 679.685, 867.389 662 C 857.317 615.032, 825.200 579.263, 775.500 559.661 C 761.764 554.244, 736.215 548.119, 734.501 549.832 M 400.458 555.547 C 397.372 557.070, 376.225 577.627, 377.051 578.301 C 377.298 578.503, 381.672 580.151, 386.770 581.964 L 396.040 585.260 403.770 578.281 C 414.440 568.648, 416.136 562.085, 409.462 556.250 C 406.462 553.627, 404.637 553.484, 400.458 555.547 M 265.500 558.184 C 175.316 577.495, 125.147 629.595, 125.018 704.076 C 124.995 717.325, 124.319 716.625, 146 725.777 C 189.540 744.155, 214.419 749.113, 270.500 750.591 L 294.500 751.224 297 745.980 C 300.766 738.081, 309.623 725.173, 317.824 715.629 C 343.509 685.739, 381.143 671.554, 416.500 678.436 C 420.350 679.185, 423.677 679.630, 423.893 679.423 C 424.109 679.217, 423.757 666.999, 423.110 652.274 C 421.003 604.316, 420.718 601.316, 418.196 600.657 C 417.263 600.413, 414.250 599.641, 411.500 598.942 C 408.750 598.242, 394.125 593.194, 379 587.723 C 343.021 574.711, 332.701 571.217, 307.500 563.517 C 278.402 554.626, 280.734 554.922, 265.500 558.184 M 439 562.331 C 439 563.062, 437.945 565.745, 436.655 568.293 C 434.467 572.615, 434.417 573.080, 435.905 575.257 C 437.814 578.048, 449.223 589.110, 449.701 588.633 C 450.022 588.312, 450.301 575.209, 450.098 569.994 C 450.030 568.260, 449.134 567.105, 447.188 566.243 C 445.641 565.559, 443.410 564.099, 442.230 562.999 C 439.715 560.657, 439 560.509, 439 562.331 M 458.987 568.195 C 458.385 582.352, 457.899 588.495, 457.101 592.047 C 456.557 594.466, 456.200 596.512, 456.306 596.593 C 456.413 596.674, 459.763 597.051, 463.752 597.431 L 471.003 598.121 472.130 595.311 C 472.750 593.765, 473.312 589.648, 473.379 586.162 C 473.487 580.515, 473.228 579.612, 471 577.872 C 469.625 576.798, 466.363 574.113, 463.750 571.904 C 461.137 569.696, 458.994 568.027, 458.987 568.195 M 414.847 577.684 C 413.488 579.321, 414.582 582.467, 418.656 588.640 C 421.651 593.178, 422.543 593.848, 426.274 594.363 C 436.221 595.734, 443 596.208, 443 595.533 C 443 595.134, 439.362 590.913, 434.915 586.154 C 426.966 577.647, 426.736 577.491, 421.344 576.982 C 417.680 576.637, 415.523 576.870, 414.847 577.684 M 405.610 586.879 C 403.973 588.687, 404.038 588.818, 407.112 589.889 C 411.059 591.265, 411.142 591.172, 409.024 587.744 C 407.365 585.061, 407.275 585.038, 405.610 586.879 M 338.891 597.927 C 272.539 611.593, 231.208 637.564, 210.666 678.500 C 200.280 699.198, 195.506 725.506, 201.118 731.118 C 203.991 733.991, 204.965 732.277, 204.985 724.315 C 205.044 700.219, 221.094 666.678, 240.866 649.331 C 265.690 627.551, 295.324 614.595, 344.921 603.837 C 359.833 600.603, 362.731 599.347, 361.668 596.578 C 360.789 594.287, 354.861 594.638, 338.891 597.927 M 655.964 600.346 C 655.709 600.589, 649.200 601.086, 641.500 601.451 C 633.800 601.817, 625.475 602.284, 623 602.490 C 620.525 602.696, 609.500 603.138, 598.500 603.472 C 587.500 603.807, 574.225 604.285, 569 604.535 C 548.834 605.501, 463.691 605.191, 446.615 604.090 C 436.778 603.456, 428.569 603.098, 428.372 603.294 C 428.176 603.491, 428.678 614.867, 429.488 628.576 C 430.299 642.284, 431.084 659.925, 431.234 667.778 L 431.507 682.056 439.003 685.327 C 470.756 699.183, 493.810 729.810, 498.975 765 C 499.661 769.675, 500.409 774.130, 500.637 774.900 C 500.987 776.081, 505.986 776.191, 532.565 775.604 C 549.896 775.221, 564.622 774.737, 565.288 774.528 C 565.955 774.319, 573.925 773.853, 583 773.492 C 592.075 773.131, 606.653 772.311, 615.395 771.668 L 631.291 770.500 633.557 760.500 C 639.319 735.079, 650.691 711.253, 664.025 696.664 L 668.879 691.352 668.959 666.926 C 669.042 641.620, 667.769 618.252, 665.693 607 L 664.494 600.500 660.461 600.203 C 658.243 600.040, 656.219 600.104, 655.964 600.346 M 618.742 627.946 C 607.813 628.518, 606.800 628.745, 604.378 631.167 C 599.097 636.448, 599.734 646.792, 605.549 650.175 C 611.819 653.823, 638.490 653.384, 645.983 649.509 C 652.226 646.280, 654.386 639.723, 651.328 633.278 C 648.346 626.994, 645.571 626.540, 618.742 627.946 M 619 634.922 C 609.105 635.595, 608 636.108, 608 640.036 C 608 645.525, 611.022 646.395, 627.298 645.593 C 642.733 644.833, 646 643.777, 646 639.548 C 646 633.921, 642.517 633.325, 619 634.922 M 873 650.199 C 873 650.416, 873.868 654.623, 874.930 659.547 C 876.870 668.550, 879.747 690.409, 880.155 699.250 C 880.403 704.627, 880.814 704.916, 883.709 701.750 C 892.505 692.130, 892.208 670.270, 883.121 658.504 C 880.129 654.630, 873 648.780, 873 650.199 M 149.311 656.946 C 136.892 662.584, 132.131 689.354, 141.046 703.412 C 146.253 711.623, 156.519 717, 166.986 717 C 181.657 717, 196.512 693.578, 192.989 676 C 192.493 673.525, 192.068 671.178, 192.044 670.785 C 192.020 670.391, 190.580 668.452, 188.845 666.476 C 181.021 657.565, 159.417 652.357, 149.311 656.946 M 247.184 660.066 C 229.508 668.899, 215.960 697.917, 221.016 716.118 C 228.649 743.596, 267.630 729.126, 275.460 695.907 C 282.118 667.660, 267.943 649.692, 247.184 660.066 M 150.222 665.264 C 142.917 673.040, 142.124 692.240, 148.781 700.151 C 154.994 707.535, 166.189 711.022, 172.764 707.622 C 182.243 702.720, 189.043 682.733, 184.204 674 C 179.614 665.719, 155.595 659.544, 150.222 665.264 M 251.500 666.356 C 232.526 675.223, 219.743 716.095, 234.087 722.036 C 243.310 725.856, 257.282 718.271, 263.453 706.093 C 272.141 688.948, 271.612 669.243, 262.360 665.377 C 258.009 663.559, 257.360 663.618, 251.500 666.356 M 728.500 668.641 C 695.058 675.472, 673.392 690.805, 656.636 719.500 C 648.630 733.212, 641.177 754.377, 639.080 769.356 C 638.553 773.127, 637.906 776.427, 637.644 776.689 C 636.752 777.581, 623.548 778.872, 604.500 779.929 C 594.050 780.510, 581.688 781.215, 577.030 781.497 C 556.849 782.719, 516.783 783.926, 508.692 783.556 C 495.220 782.940, 494.106 781.808, 491.505 766.099 C 483.456 717.486, 446.121 684.947, 398 684.606 C 360.187 684.337, 324.611 708.157, 304.007 747.538 C 297.776 759.448, 300.388 758.507, 273.712 758.453 C 236.693 758.378, 206.720 754.824, 181.245 747.490 C 159.305 741.173, 130.702 729.280, 122.428 723.033 L 117.139 719.040 115.145 722.270 C 107.604 734.486, 110.749 756.459, 121.111 763.966 C 141.184 778.507, 196.498 795.471, 235.237 798.966 C 249.514 800.255, 289.177 800.330, 297.647 799.085 C 308.298 797.519, 309.991 795.567, 315.536 778.459 C 328.833 737.435, 357.188 713.975, 395.500 712.301 C 440.901 710.318, 476.962 745.413, 476.996 791.615 C 477.001 798.699, 479.379 801.522, 486.603 803.021 C 491.744 804.089, 574.053 802.867, 593.500 801.435 C 596.800 801.192, 606.250 800.525, 614.500 799.952 C 652.495 797.316, 654.943 795.696, 660.902 769.269 C 665.812 747.493, 673.657 732.157, 686.411 719.404 C 724.654 681.161, 788.986 690.715, 811.795 738.025 C 817.572 750.008, 821 762.545, 821 771.690 L 821 778 826.250 777.985 C 834.434 777.961, 834.510 777.834, 834.433 764.286 C 834.210 724.752, 808.527 686.906, 773.164 674.001 C 759.839 669.137, 738.566 666.584, 728.500 668.641 M 730.500 705.034 C 694.755 710.517, 668.744 744.117, 668.596 785 C 668.513 808.053, 674.698 823.669, 690 839.037 C 739.872 889.124, 820.236 844.132, 812.879 770.243 C 808.608 727.346, 772.318 698.620, 730.500 705.034 M 383.174 721.056 C 353.928 726.268, 327.151 755.939, 321.006 789.943 C 318.184 805.559, 323.729 828.876, 333.787 843.686 C 363.712 887.753, 429.906 883.318, 458.022 835.362 C 465.757 822.168, 468.352 811.851, 468.427 794 C 468.499 776.995, 467.518 772.071, 461.753 760.500 C 452.562 742.051, 438.122 729.030, 420.578 723.374 C 411.508 720.450, 393.011 719.304, 383.174 721.056 M 872.500 732.015 C 870.300 732.447, 861.624 733.386, 853.221 734.102 C 840.145 735.217, 838.030 735.628, 838.556 736.952 C 840.547 741.964, 841.968 753.072, 841.983 763.750 L 842 776 846.622 776 C 859.968 776, 881.438 771.291, 884.901 767.605 C 889.426 762.789, 892.262 747.319, 890.089 739.304 C 888.067 731.842, 883.346 729.886, 872.500 732.015 M 732.300 744.862 C 700.363 755.897, 697.010 802.248, 727 818.106 C 733.873 821.741, 747.326 821.568, 755.109 817.745 C 769.784 810.539, 779.397 792.637, 777.636 775.795 C 775.252 752.982, 752.912 737.740, 732.300 744.862 M 734.500 752.164 C 722.060 756.841, 714.622 768.360, 714.590 783 C 714.551 801.013, 724.835 812.500, 741 812.500 C 770.726 812.500, 781.077 767.464, 754.500 753.763 C 749.806 751.342, 738.986 750.477, 734.500 752.164 M 389.734 760.029 C 369.339 765.154, 355.856 788.842, 361.425 809.764 C 370.048 842.154, 412.351 844.359, 427.734 813.220 C 431.402 805.796, 431.500 805.309, 431.499 794.548 C 431.497 783.877, 431.381 783.286, 428.091 777.215 C 420.644 763.477, 404.607 756.292, 389.734 760.029 M 389.698 768.383 C 363.955 777.980, 360.312 814.388, 384 825.330 C 405.943 835.466, 430.786 809.272, 422.446 784.795 C 417.954 771.611, 402.206 763.719, 389.698 768.383 M 657.594 797.073 C 656.004 798.663, 653.385 800.535, 651.774 801.232 C 649.121 802.381, 648.899 802.840, 649.412 806.111 C 653.008 829.023, 668.617 847.647, 691.500 856.329 C 703.212 860.773, 708.249 861.939, 702.607 858.902 C 688.666 851.396, 676.444 838.478, 669.585 824 C 665.916 816.255, 662 802.781, 662 797.899 C 662 793.960, 660.911 793.756, 657.594 797.073 M 310.566 801.927 C 309.526 803.077, 306.904 804.548, 304.741 805.196 L 300.807 806.374 301.487 812.937 C 303.866 835.882, 318.749 856.045, 341.399 867.008 C 351.897 872.090, 352.616 872.030, 345.360 866.677 C 327.785 853.711, 316.662 833.696, 313.678 809.668 C 312.468 799.923, 312.441 799.855, 310.566 801.927 M 197.966 806.950 C 212.162 827.854, 235.327 840, 261 840 C 277.323 840, 297.936 833.484, 296.597 828.748 C 295.080 823.384, 293 812.651, 293 810.185 L 292.999 807.500 261.250 807.455 C 229.633 807.409, 214.899 806.029, 196.342 801.371 C 193.791 800.731, 193.828 800.856, 197.966 806.950 M 633.500 806.047 C 629.659 806.832, 588.192 809.744, 575.250 810.138 C 571.813 810.243, 569 810.636, 569 811.012 C 569 812.307, 580.510 822.559, 585.500 825.709 C 595.862 832.248, 604.771 834.438, 621 834.435 C 634.542 834.432, 639.855 833.713, 647.059 830.911 L 649.618 829.916 646.841 824.208 C 645.314 821.069, 643.276 815.462, 642.311 811.750 C 640.428 804.505, 640.577 804.601, 633.500 806.047" stroke="none" fill="#1a1a1a" fill-rule="evenodd"/>
</svg>