<svg xmlns="http://www.w3.org/2000/svg" width="1024" height="1024" viewBox="0 0 1024 1024" version="1.1">
	<path d="M 571.838 89.526 C 562.967 94.344, 565.852 112.608, 577.877 127.750 L 582.047 133 578.930 133 C 568.493 133, 544.840 140.054, 529.500 147.743 C 482.119 171.490, 453.261 214.468, 445.948 272.179 C 443.819 288.981, 442.982 292.130, 438.046 301.909 C 420.949 335.777, 434.223 373.236, 473.790 402.776 C 487.051 412.677, 513.892 425, 522.196 425 C 524.656 425, 524.488 426.090, 520.949 433.101 C 517.421 440.090, 515.603 441.138, 503.704 443.042 C 487.519 445.632, 471.981 442.388, 460.422 434.007 C 446.440 423.869, 446.075 423.671, 440.555 423.213 C 437.627 422.970, 434.437 423.215, 433.468 423.758 C 431.963 424.600, 431.197 423.775, 428.239 418.122 C 421.760 405.741, 396.125 363.584, 380.285 339.261 C 325.995 255.896, 280.361 198.314, 223.531 141.459 C 181.820 99.730, 178.518 97.329, 171.923 103.923 C 167.473 108.373, 167.792 113.783, 172.822 119.175 L 176.644 123.272 173.760 132.886 C 163.172 168.181, 158.566 203.254, 158.577 248.500 C 158.586 291.717, 161.217 308.990, 176.012 363 C 206.036 472.594, 209.402 506.788, 197.082 577 C 191.443 609.138, 190.831 613.805, 190.129 630 C 188.915 658.001, 191.483 681.837, 199.034 712.637 C 203.740 731.838, 203.600 730, 200.363 730 C 191.985 730, 152.586 738.084, 139.246 742.541 C 99.497 755.820, 91.316 779.128, 121.166 794.053 C 130.708 798.824, 134 801.606, 134 804.896 C 134 808.537, 132.637 809.614, 119.395 816.434 C 106.416 823.119, 99.537 828.759, 95.648 835.905 C 68.434 885.907, 199.463 924.474, 396.500 924.456 C 454.152 924.450, 460.689 924.088, 505 918.445 C 568.655 910.339, 615.380 897.649, 635.071 883.121 C 650.439 871.783, 655.288 859.990, 649.422 848.219 C 642.467 834.263, 622.612 824.441, 585.355 816.529 C 551.203 809.275, 546.018 806.535, 549.052 797.344 C 553.597 783.572, 545.694 772.607, 523.500 761.892 C 490.270 745.849, 431.262 732.203, 369.500 726.279 C 343.160 723.753, 258.163 723.778, 232.500 726.319 C 222.600 727.300, 213.385 728.192, 212.022 728.301 C 209.719 728.486, 209.382 727.897, 207.274 720 C 194.638 672.657, 193.004 638.278, 201.143 591 C 209.613 541.799, 210.479 533.112, 209.670 505.500 C 208.573 468.075, 200.952 427.954, 182.558 362.759 C 168.508 312.961, 164.711 288.686, 164.607 248 C 164.523 215.363, 166.637 192.957, 172.578 163.500 C 175.548 148.774, 181.002 128.813, 181.947 129.208 C 184.049 130.088, 216.792 166.271, 236.507 189.500 C 296.053 259.659, 362.782 358.612, 403.838 437.635 C 404.820 439.524, 404.505 440.062, 401.096 442.318 C 389.340 450.097, 388.773 472.306, 400.174 478.454 C 403.703 480.356, 403.807 480.581, 404.173 487.064 C 404.616 494.896, 407.805 500.077, 413.438 502.114 C 415.661 502.918, 417.083 504.196, 417.470 505.738 C 419.093 512.202, 431.264 520, 439.729 520 C 442.683 520, 443.295 520.466, 444.659 523.750 C 445.515 525.813, 453.302 543.925, 461.962 564 C 470.622 584.075, 481.923 611.075, 487.075 624 C 496.975 648.836, 498.375 651.133, 504.778 653.052 C 516.797 656.652, 528.852 648.141, 527.632 636.917 C 527.119 632.202, 518.515 610.476, 509.884 592.103 C 507.198 586.384, 505 581.602, 505 581.476 C 505 581.351, 507.813 581.851, 511.250 582.589 C 514.688 583.326, 518.906 583.946, 520.625 583.965 C 523.316 583.995, 523.837 584.435, 524.377 587.134 C 524.727 588.885, 526.645 591.816, 528.727 593.779 C 530.775 595.710, 533.257 599.091, 534.242 601.292 C 539.371 612.747, 554.829 628.981, 570.277 639.134 C 579.041 644.894, 596.580 654, 598.911 654 C 599.510 654, 600 654.272, 600 654.605 C 600 655.520, 592.976 684.754, 591.323 690.716 C 589.665 696.702, 590.950 696.218, 572 697.993 C 538.846 701.100, 525 706.119, 525 715.030 C 525 722.028, 529.487 726, 537.391 726 L 541.881 726 540.447 728.750 C 538.149 733.155, 538.637 737.562, 541.816 741.120 C 546.223 746.052, 551.010 745.460, 579.535 736.451 C 592.716 732.289, 609.425 727.590, 616.667 726.010 C 632.070 722.649, 635.506 721.104, 637.673 716.560 C 640.960 709.667, 637.587 705.359, 625.844 701.448 C 621.530 700.011, 618 698.624, 618 698.364 C 618 698.105, 619.293 692.854, 620.874 686.696 C 622.455 680.538, 624.341 672.446, 625.065 668.712 C 626.327 662.210, 626.489 661.946, 628.941 662.433 C 641.454 664.917, 663.940 666.198, 677 665.171 C 682.775 664.716, 687.650 664.454, 687.833 664.589 C 688.258 664.900, 684.926 712.372, 684.444 712.874 C 684.247 713.080, 678.103 714.577, 670.792 716.200 C 638.195 723.439, 626.016 730.136, 626.004 740.827 C 625.998 745.656, 630.581 750, 635.680 750 C 638.937 750, 649.834 747.436, 659 744.513 C 661.213 743.807, 661.025 744.232, 657.361 748.215 C 651.133 754.985, 650.347 763.215, 655.599 766.657 C 661.829 770.739, 674.076 766.258, 696.160 751.815 C 710.616 742.361, 716.806 739.169, 727.591 735.611 C 740.225 731.443, 744.534 725.066, 739.638 717.784 C 736.953 713.789, 733.149 712.414, 722.169 711.468 L 713.838 710.750 714.455 700.625 C 714.795 695.056, 715.500 683.343, 716.023 674.597 C 716.546 665.850, 717.092 658.612, 717.237 658.513 C 717.382 658.414, 721.775 656.869, 727 655.080 C 752.554 646.331, 778.581 627.665, 798.445 603.839 C 804.661 596.384, 808.616 592.757, 815.768 587.955 C 848.974 565.660, 886.575 525.750, 899.238 499.359 C 912.847 470.998, 895.632 454.708, 870.860 472.505 C 867.180 475.149, 865.926 475.677, 866.474 474.354 C 867.970 470.744, 868.250 463.019, 866.996 459.991 C 863.568 451.714, 854.347 449.765, 843.500 455.024 C 836.428 458.452, 820.667 474.524, 806.748 492.500 C 793.914 509.075, 788.456 514.907, 787.143 513.448 C 786.674 512.927, 782.077 506.875, 776.927 500 C 760.150 477.602, 743.036 457.868, 723.035 437.860 L 703.402 418.220 708.951 415.504 C 751.581 394.638, 774.010 355.034, 773.995 300.651 C 773.973 216.252, 728.149 152.878, 654.975 136.048 L 645.450 133.857 643.686 126.011 C 640.058 109.870, 632.498 99.500, 624.358 99.500 C 618.630 99.500, 615.685 102.578, 613.936 110.395 L 612.712 115.865 608.763 109.755 C 597.972 93.058, 581.724 84.157, 571.838 89.526 M 574.996 96.505 C 573.086 98.806, 574.295 107.033, 577.519 113.675 C 581.018 120.882, 592.281 132.373, 600.303 136.919 C 610.201 142.528, 604.921 146.603, 593.898 141.861 L 588.656 139.606 577.030 141.291 C 529.694 148.153, 489.955 177.058, 467.640 220.854 C 458.852 238.103, 454.448 254.120, 451.598 279.189 C 450.429 289.478, 449.460 293.544, 446.477 300.689 C 432.630 333.856, 437.395 357.763, 463.002 383.600 C 480.967 401.726, 509.774 416.742, 534.022 420.619 C 540.931 421.724, 542.313 427, 535.693 427 C 532.374 427, 532.239 427.178, 526.745 438.750 C 518.838 455.406, 512.832 476.425, 511.814 491 L 511.500 495.500 527.500 495.653 C 569.231 496.052, 600.390 484.670, 629.485 458.397 C 640.396 448.546, 641.052 448.153, 642.901 450.381 C 645.181 453.128, 631.105 467.839, 616.613 477.856 C 585.709 499.217, 549.746 507.109, 504.759 502.404 C 482.485 500.074, 470.140 500.689, 462.492 504.508 C 456.154 507.673, 452 512.478, 452 516.645 C 452 525.311, 475.565 537.389, 499.500 540.992 C 512.512 542.950, 512.164 542.829, 511.815 545.285 C 511.203 549.588, 494.308 548.510, 478.267 543.144 C 472.853 541.334, 470 540.784, 470 541.551 C 470 543.962, 475.652 553.091, 479.879 557.506 C 494.742 573.035, 514.351 578.373, 547 575.778 C 550.141 575.529, 550.500 575.757, 550.500 578 C 550.500 581.204, 543.309 583.892, 534.563 583.956 L 528.626 584 531.563 587.094 C 546.102 602.413, 591.160 606.338, 626.374 595.354 C 646.688 589.018, 670.405 574.301, 682.729 560.385 C 697.530 543.671, 703.831 531.669, 711.797 505.010 C 712.719 501.925, 715.522 501.239, 716.876 503.767 C 718.355 506.533, 715.612 518.638, 710.989 529.738 C 692.824 573.356, 647.362 604.524, 595.500 608.915 C 579.085 610.304, 558.925 608.243, 547.878 604.046 L 543.049 602.211 546.203 606.855 C 556.144 621.492, 579.048 638.142, 601.392 646.973 C 623.653 655.771, 655.182 659.745, 682 657.133 C 688.470 656.503, 688.502 656.484, 689 653.104 C 690.034 646.081, 695.999 646.179, 696.002 653.219 C 696.010 668.961, 691.701 716.619, 690.123 718.258 C 689.036 719.386, 683.246 721.116, 673.964 723.085 C 645.239 729.181, 631.106 735.623, 633.392 741.578 C 634.201 743.689, 635.181 743.516, 659.338 737 C 671.572 733.700, 682.576 731, 683.791 731 C 688.829 731, 686.019 734.741, 674.456 743.427 C 659.774 754.454, 655.502 760.699, 662.880 760.350 C 667.663 760.124, 679.440 754.118, 693.880 744.542 C 707.324 735.626, 714.806 731.812, 726.174 728.079 C 738.916 723.895, 737.670 720.729, 722.657 719.140 C 715.265 718.358, 712.344 718.393, 710.924 719.280 C 705.990 722.361, 705.838 716.633, 709.399 661.596 C 709.716 656.699, 710.120 652.546, 710.298 652.368 C 710.476 652.190, 714.622 650.885, 719.512 649.469 C 746.582 641.624, 776.974 619.755, 796.291 594.220 C 798.868 590.814, 803.248 587.009, 808.630 583.500 C 858.821 550.784, 907.009 489.994, 894.927 474.635 C 888.802 466.848, 875.558 474.330, 848.894 500.641 C 831.867 517.442, 827 521.239, 827 517.722 C 827 517.019, 830.263 512.854, 834.250 508.465 C 854.155 486.558, 859.439 479.178, 861.188 470.840 C 863.480 459.914, 857.691 456.082, 847.045 461.477 C 839.275 465.415, 828.300 476.552, 812.441 496.592 C 804.538 506.577, 796.460 516.042, 794.488 517.624 L 790.903 520.500 792.519 523.737 C 793.407 525.518, 793.852 527.430, 793.508 527.987 C 791.755 530.823, 788.724 527.961, 776.831 512.243 C 751.248 478.435, 724.832 448.320, 706.333 431.877 C 700.531 426.720, 695.441 422.370, 695.022 422.210 C 694.604 422.051, 690.955 422.837, 686.913 423.957 C 680.567 425.715, 679.371 425.800, 678.146 424.574 C 675.699 422.128, 677.602 420.316, 684.967 418.079 C 701.659 413.009, 724.599 398.681, 736.355 385.983 C 766.330 353.607, 774.795 300.610, 758.875 245 C 746.424 201.510, 715.155 166.133, 675.194 150.326 C 663.641 145.756, 646.771 141.765, 642.443 142.577 C 638.660 143.286, 639.068 144.163, 637.064 131.005 C 635.245 119.063, 628.628 107, 623.896 107 C 621.292 107, 619.814 115.494, 620.602 125.933 C 621.167 133.409, 621.022 134.737, 619.505 135.995 C 617.303 137.823, 616.165 136.486, 608.021 122.500 C 596.636 102.948, 580.312 90.099, 574.996 96.505 M 176.425 109.336 C 176.107 110.162, 176.648 112.059, 177.626 113.551 L 179.403 116.264 180.392 114.047 C 181.050 112.573, 181.042 111.291, 180.370 110.224 C 178.950 107.974, 177.106 107.559, 176.425 109.336 M 184.665 118.172 C 184.208 119.919, 186.398 122.808, 195.843 132.922 C 276.009 218.765, 352.576 325.671, 405.840 426.130 L 412.006 437.760 418.014 438.195 C 429.907 439.055, 437.248 451.292, 432.577 462.470 C 431.164 465.852, 431.174 465.879, 434.080 466.518 C 443.662 468.622, 447.403 480.894, 441.925 492.246 L 439.872 496.500 442.984 503.334 L 446.096 510.168 449.006 506.151 C 450.606 503.941, 453.884 500.980, 456.290 499.570 L 460.664 497.007 442.027 460.254 C 380.371 338.660, 288.139 211.597, 203.670 131.882 C 194.414 123.147, 186.479 116, 186.037 116 C 185.595 116, 184.978 116.978, 184.665 118.172 M 494.195 217.132 C 490.045 219.187, 483 226.983, 483 229.521 C 483 230.200, 483.668 231.309, 484.483 231.986 C 485.718 233.011, 486.870 232.262, 491.350 227.525 C 496.410 222.174, 496.995 221.843, 501.116 222.009 C 507.761 222.277, 508 222.189, 508 219.475 C 508 214.835, 501.176 213.677, 494.195 217.132 M 632.797 220.680 C 630.871 221.187, 629.525 224.422, 630.550 226.081 C 630.946 226.722, 632.536 226.935, 634.365 226.591 C 639.223 225.680, 649.162 230.777, 652.571 235.928 C 656.663 242.112, 661.381 241.236, 658.685 234.794 C 655.225 226.529, 640.688 218.603, 632.797 220.680 M 490.898 273.289 C 480.952 279.988, 478.623 301.457, 486.789 311.161 C 497.599 324.008, 512.147 311.527, 510.779 290.579 C 509.773 275.183, 500.308 266.951, 490.898 273.289 M 624.830 283.027 C 617.918 286.678, 613.915 294.738, 613.882 305.069 C 613.794 332.979, 645.981 332.558, 647.774 304.626 C 648.899 287.082, 637.489 276.340, 624.830 283.027 M 534.487 301.738 C 519.562 307.080, 499.051 327.231, 499.009 336.595 C 498.993 340.164, 505.149 344.084, 516.208 347.550 C 521.209 349.117, 521.998 349.720, 522.580 352.419 C 525.801 367.360, 540.817 375.848, 555.748 371.169 C 570.340 366.596, 587 350.139, 587 340.298 C 587 338.767, 584.882 333.248, 582.294 328.033 C 571.447 306.177, 551.988 295.474, 534.487 301.738 M 536.254 309.400 C 527.545 312.244, 518.831 319.375, 510.513 330.465 L 506.788 335.430 511.144 337.286 C 531.634 346.017, 548.914 346.612, 571.250 339.354 C 575.513 337.969, 578.996 336.535, 578.991 336.168 C 578.961 334.077, 572.002 323.872, 567.616 319.488 C 557.479 309.355, 546.854 305.938, 536.254 309.400 M 566.500 348.803 C 559.522 351.038, 556.679 351.374, 544.251 351.433 C 536.413 351.470, 530.008 351.725, 530.017 352 C 530.026 352.275, 531.038 354.260, 532.266 356.412 C 539.666 369.370, 561.313 366.019, 574.044 349.944 C 577.651 345.390, 577.316 345.339, 566.500 348.803 M 436.832 430.820 C 435.417 431.397, 436.633 434.258, 444.832 449.639 C 450.149 459.615, 457.356 473.565, 460.847 480.639 L 467.195 493.500 486.097 493.562 L 505 493.624 505 489.188 C 505 483.597, 509.265 462.404, 511.964 454.586 C 513.087 451.333, 513.888 448.554, 513.744 448.411 C 513.601 448.268, 510.787 448.784, 507.492 449.559 C 488.331 454.066, 468.475 449.998, 453.439 438.484 C 443.062 430.539, 440.465 429.340, 436.832 430.820 M 408.004 447.185 C 400.084 451.263, 396.919 460.341, 400.752 467.989 C 403.486 473.446, 406.590 473.954, 414.705 470.273 C 425.981 465.158, 430.081 453.908, 423.003 447.503 C 419.848 444.648, 413.206 444.507, 408.004 447.185 M 419.010 476.473 C 410.844 480.219, 409.409 482.038, 410.410 487.374 C 412.437 498.179, 428.704 499.095, 435.005 488.759 C 438.471 483.075, 437.569 476.863, 432.928 474.463 C 428.922 472.391, 427.442 472.605, 419.010 476.473 M 429.258 502.660 C 425.629 503.944, 425.157 504.425, 425.991 505.983 C 427.613 509.014, 440.109 514.134, 438.833 511.245 C 438.650 510.830, 437.651 508.355, 436.614 505.745 C 435.577 503.135, 434.452 501.036, 434.114 501.079 C 433.776 501.122, 431.591 501.834, 429.258 502.660 M 457.287 535.217 C 457.577 535.923, 461.509 544.825, 466.026 555 C 476.325 578.200, 489.230 609.278, 496.090 627.399 C 503.331 646.527, 506.158 649.077, 515.724 645.114 C 523.031 642.088, 521.280 635.274, 501.987 591.645 L 496.174 578.500 489.879 575 C 476.167 567.376, 463.938 552.126, 462.372 540.696 C 461.893 537.202, 461.205 535.959, 459.259 535.072 C 457.280 534.171, 456.870 534.201, 457.287 535.217 M 262.045 549.446 C 261.083 550.605, 261.679 552.738, 265.047 560.196 C 277.748 588.323, 290.324 626.637, 293.539 647 L 294.250 651.500 289.252 644.162 C 274.672 622.753, 256.518 607.666, 250.157 611.671 C 247.245 613.505, 247.776 615.584, 253.377 624.266 C 262.347 638.170, 273.553 662.608, 278.291 678.599 L 279.802 683.697 265.151 684.360 C 241.086 685.449, 232.739 687.882, 235.907 692.884 C 236.630 694.025, 237.895 694.067, 243.142 693.121 C 253.492 691.254, 266.866 690.017, 276.781 690.008 C 284.154 690.002, 286.183 689.688, 286.645 688.482 C 288.675 683.192, 271.456 640.425, 260.977 624.730 C 256.637 618.228, 257.104 618.289, 265.272 625.289 C 276.778 635.150, 289.975 655.354, 295.600 671.719 C 303.671 695.200, 305.780 680.348, 299.465 644.500 C 295.430 621.595, 286.040 592.200, 273.590 563.500 L 270.987 557.500 276.748 563.707 C 287.832 575.650, 300.842 599.476, 308.085 621.095 C 312.605 634.585, 314.862 646.894, 316.043 664.500 C 317.126 680.634, 317.650 682.732, 320.341 681.699 C 321.895 681.103, 321.915 680.933, 324.017 651.144 C 325.666 627.782, 329.760 607.193, 335.737 592.207 C 338.472 585.350, 339.732 584.524, 338.114 590.649 C 336.552 596.562, 334.154 620.855, 333.539 637 C 333.235 644.975, 332.736 657.609, 332.431 665.077 C 331.960 676.621, 332.111 678.847, 333.439 679.949 C 335.441 681.611, 338 679.748, 338.001 676.628 C 338.002 672.426, 343.215 655.361, 346.629 648.378 C 349.852 641.788, 361.002 627.997, 359.467 632.500 C 359.092 633.600, 357.055 639.299, 354.939 645.165 C 350.588 657.231, 346.272 677.672, 347.761 679.161 C 348.362 679.762, 351.986 679.571, 357.606 678.644 C 373.131 676.081, 390.860 674.485, 414.500 673.522 C 448.800 672.124, 452.916 671.806, 454.026 670.469 C 454.879 669.441, 454.529 668.737, 452.505 667.411 C 448.281 664.644, 397.351 666.534, 367.134 670.580 C 360.883 671.417, 355.534 671.867, 355.248 671.581 C 354.183 670.516, 357.267 658.047, 362.131 643.754 C 367.309 628.535, 367.617 626.418, 364.905 624.710 C 360.466 621.915, 347.227 632.961, 341.786 644 C 339.320 649.003, 339.073 649.229, 339.058 646.500 C 339.019 639.533, 342.122 605.344, 344.075 591.217 C 346.312 575.045, 346.207 573, 343.148 573 C 336.226 573, 325.694 595.613, 321.490 619.500 C 319.166 632.705, 318.215 636.474, 318.090 632.972 C 317.786 624.441, 303.850 591.142, 294.247 576 C 282.229 557.051, 266.499 544.079, 262.045 549.446 M 601.880 678.705 C 598.881 690.906, 595.829 701.171, 594.937 702.063 C 593.741 703.259, 589.505 703.952, 577.922 704.845 C 554.460 706.654, 532 711.743, 532 715.249 C 532 719.912, 535.549 719.951, 557.372 715.530 C 579.193 711.109, 582.500 710.836, 582.500 713.452 C 582.500 715.034, 579.822 716.454, 568.353 720.952 C 552.241 727.270, 546.643 730.504, 546.180 733.759 C 545.470 738.748, 548.680 738.238, 582 728.064 C 603.371 721.539, 609.935 719.765, 623.288 716.905 C 635.459 714.297, 634.671 711.711, 620.424 707.503 C 615.135 705.942, 610.571 704.045, 610.280 703.288 C 609.990 702.531, 611.597 694.394, 613.853 685.206 C 616.108 676.018, 618.357 666.627, 618.851 664.337 L 619.748 660.174 615.124 659.042 C 612.581 658.419, 609.765 657.691, 608.866 657.424 C 607.494 657.017, 606.373 660.430, 601.880 678.705 M 262 731.681 C 250.464 732.334, 217.848 735.080, 215.100 735.630 L 212.225 736.205 214.690 744.353 C 222.630 770.590, 237.662 800.696, 252.274 819.625 C 259.299 828.725, 259.366 828.854, 257.964 830.544 C 255.510 833.500, 253.207 832.008, 246.700 823.250 C 230.452 801.383, 218.043 776.098, 207.882 744.158 L 205.547 736.816 199.023 737.499 C 165.245 741.040, 128.508 751.882, 117.047 761.692 C 105.746 771.365, 108.255 779.287, 125.412 788.100 C 135.159 793.107, 139.704 797.185, 141.032 802.117 C 143.132 809.916, 139.718 813.913, 123.898 822.177 C 102.370 833.422, 95.357 843.345, 100.403 855.422 C 119.423 900.943, 338.824 931.992, 499.500 911.901 C 584.303 901.298, 634.882 884.281, 643.597 863.422 C 650.777 846.238, 629.092 832.837, 575.905 821.587 C 544.790 815.005, 539.204 810.819, 541.971 796.156 C 543.684 787.073, 542.903 784.520, 536.503 778.304 C 518.886 761.191, 448.234 741.627, 378.500 734.553 C 347.873 731.446, 290.947 730.043, 262 731.681 M 288.823 768.691 C 287.351 768.926, 285.593 769.786, 284.916 770.602 C 282.493 773.520, 285.392 774.203, 299.650 774.074 C 364.350 773.485, 438.312 788.059, 455.995 804.880 C 462.855 811.406, 460.425 817.204, 448.335 823.156 C 441.284 826.627, 439.892 828.321, 442.197 830.626 C 445.935 834.364, 463.833 822.888, 465.891 815.433 C 471.149 796.388, 432.767 779.668, 365 771.480 C 341.517 768.643, 298.892 767.083, 288.823 768.691 M 333.436 808.307 C 332.448 810.880, 333.686 811.797, 339.767 812.997 C 359.876 816.966, 368.709 823.509, 365.742 832.241 C 363.721 838.188, 351.916 844.859, 338.433 847.672 C 330.515 849.324, 327.685 851.015, 328.646 853.520 C 330.642 858.722, 356.366 851.085, 365.920 842.454 C 379.017 830.621, 373.320 815.604, 353.416 809.495 C 345.388 807.031, 334.181 806.365, 333.436 808.307 M 274.500 814 C 273.370 815.829, 274.980 816.855, 280.767 817.992 C 301.637 822.093, 306.255 829.576, 291.850 835.948 C 270.965 845.187, 228.516 844.402, 215.440 834.535 C 213.555 833.112, 213.583 833.003, 216.418 830.695 C 220.346 827.498, 219.465 824.773, 214.788 825.655 C 206.855 827.150, 205.524 833.530, 211.937 839.324 C 226.401 852.392, 279.141 852.235, 299.500 839.064 C 314.676 829.246, 303.380 813, 281.378 813 C 277.935 813, 274.840 813.450, 274.500 814 M 721.221 819.750 C 718.410 823.786, 717.076 828.138, 714.611 841.311 L 712.401 853.122 708.451 845.322 C 704.081 836.693, 693.602 825, 690.241 825 C 685.098 825, 685.122 826.946, 690.473 844 C 691.940 848.675, 694.197 857.391, 695.489 863.368 C 697.982 874.910, 698.850 876.655, 701.576 875.609 C 704.101 874.640, 702.949 864.339, 698.657 849.500 C 696.748 842.900, 695.343 837.338, 695.535 837.141 C 696.861 835.779, 708.672 858.492, 711.063 867 C 714.061 877.669, 717.524 875.897, 718.492 863.198 C 719.895 844.810, 723.904 824, 726.045 824 C 727.812 824, 728.890 837.892, 728.513 855.802 C 728.170 872.063, 728.336 875.192, 729.566 875.664 C 731.682 876.476, 733.701 874.406, 734.395 870.714 C 736.108 861.606, 747.611 843.353, 757.277 834.404 C 762.511 829.558, 770.063 824, 771.414 824 C 771.663 824, 768.094 831.402, 763.482 840.448 C 755.390 856.321, 749.454 871.964, 750.160 875.555 C 750.846 879.043, 753.490 879.491, 757.111 876.731 C 765.263 870.518, 782.377 864.977, 785.077 867.677 C 785.645 868.245, 784.813 870.221, 782.925 872.787 C 779.710 877.160, 779.400 880.261, 782.128 880.786 C 784.608 881.264, 790.090 876.052, 792.254 871.158 C 794.187 866.789, 794.187 866.728, 792.255 864.140 C 788.373 858.941, 776.110 859.056, 764.433 864.402 L 758.883 866.943 759.485 864.721 C 759.816 863.500, 764.567 853.480, 770.043 842.455 C 780.273 821.861, 780.853 820.253, 778.800 818.200 C 773.137 812.537, 750.993 827.614, 739.871 844.706 L 735.500 851.424 734.864 839.801 C 734.052 824.946, 731.006 817, 726.123 817 C 723.996 817, 722.585 817.791, 721.221 819.750 M 172.275 829.525 C 165.836 835.964, 168.725 845.304, 179.336 852.347 C 189.816 859.304, 206.201 864.533, 226.989 867.556 C 242.714 869.843, 275.335 869.321, 279.306 866.719 C 285.082 862.934, 282.308 862.390, 257.218 862.386 C 225.020 862.381, 204.567 858.573, 186.723 849.260 C 175.345 843.323, 172.554 838.060, 177.601 832.062 C 182.721 825.978, 178.048 823.752, 172.275 829.525" stroke="none" fill="#1a1a1a" fill-rule="evenodd"/>
</svg>