<svg xmlns="http://www.w3.org/2000/svg" width="1024" height="1024" viewBox="0 0 1024 1024" version="1.1">
	<path d="M 481.012 21.117 C 399.145 28.378, 315.424 67.932, 255.589 127.618 C 167.611 215.376, 127.391 333.288, 145.423 450.584 L 147.589 464.668 143.168 468.514 C 140.737 470.628, 138.130 473.839, 137.374 475.647 C 135.812 479.385, 135.537 486.596, 136.924 487.453 C 137.431 487.767, 138.617 490.381, 139.558 493.262 C 140.500 496.143, 144.421 506.375, 148.272 516 C 158.159 540.709, 157.861 538.744, 152.557 544.279 C 144.535 552.651, 144.150 563.574, 151.495 574.398 C 153.550 577.426, 154.001 579.293, 154.006 584.794 C 154.018 599.765, 161.665 609.958, 174.124 611.611 C 176.806 611.967, 178.999 612.762, 178.997 613.379 C 178.982 618.666, 183.815 629.850, 187.962 634.123 C 198.892 645.388, 217.042 642.322, 223.441 628.130 L 225.108 624.433 232.804 625.335 L 240.500 626.237 240.642 629.979 C 241.485 652.262, 275.810 666.801, 299.991 655.118 L 304 653.181 304.001 659.841 C 304.002 669.075, 305.814 687.339, 307.421 694.311 C 308.642 699.606, 308.616 700.061, 307.130 699.435 C 301.037 696.866, 288.762 693.611, 271.500 689.989 C 238.811 683.129, 229.999 684.071, 230.001 694.424 C 230.003 703.429, 240.041 718.169, 249.332 722.809 L 253.773 725.027 250.387 728.413 C 241.085 737.715, 254.070 752.162, 275.768 756.651 C 289.697 759.534, 317.092 756.915, 325.876 751.861 C 327.733 750.793, 329.378 750.050, 329.532 750.209 C 329.685 750.369, 331.834 753.253, 334.306 756.618 C 341.187 765.983, 354.454 778.464, 365.095 785.581 C 370.372 789.112, 375.097 792.022, 375.595 792.048 C 376.093 792.074, 378.075 794.602, 380 797.664 C 384.584 804.957, 394.528 814.019, 402.461 818.132 L 408.805 821.421 406.826 826.460 C 402.858 836.565, 397.077 848.046, 393.308 853.309 L 389.450 858.697 387.707 856.386 C 385.099 852.930, 371.133 848.709, 367.033 850.138 C 363.028 851.535, 362.349 852.996, 361.508 862.028 C 360.832 869.280, 360.921 869.739, 363.917 874.560 C 368.154 881.376, 379.810 908.747, 384.971 924 C 391.161 942.297, 393.399 945.388, 401.562 946.913 C 408.523 948.213, 412.329 946.435, 415.190 940.546 L 417.409 935.978 421.955 940.432 C 427.267 945.637, 430.391 947.012, 436.815 946.968 C 442.501 946.930, 444.357 945.637, 446.958 939.905 C 452.120 928.526, 446.793 914.823, 429.262 894.384 C 419.006 882.426, 417 879.918, 417 879.051 C 417 878.613, 420.432 873.585, 424.626 867.877 C 436.021 852.370, 440.672 840.426, 439.299 830.192 C 438.741 826.034, 438.763 826, 441.900 826 C 448.949 826, 461.483 820.177, 470.406 812.756 C 473.258 810.384, 473.424 810.366, 479.406 811.779 C 491.274 814.583, 523.494 811.634, 547.403 805.555 C 558.762 802.667, 556.810 801.780, 564.888 813.500 C 574.513 827.463, 576.670 834.731, 575.527 849.340 C 574.867 857.786, 574.656 858.415, 571.664 860.869 C 554.138 875.245, 549.348 883.863, 553.802 893 C 556.434 898.398, 562.488 898.399, 575.867 893.005 C 596.767 884.579, 611.666 882.871, 632.894 886.467 C 645.921 888.674, 651.138 888.182, 655.199 884.364 C 661.001 878.911, 662.479 871.939, 659.033 866.286 C 656.890 862.772, 656.883 862.784, 662.129 861.094 C 669.686 858.660, 671.388 853.006, 666.919 845.182 C 659.304 831.849, 646.264 830.791, 614.043 840.895 C 610.492 842.008, 607.466 842.800, 607.320 842.653 C 607.174 842.507, 607.560 840.613, 608.177 838.444 C 611.322 827.401, 608.416 807.778, 601.464 793.104 C 599.536 789.036, 598.081 785.642, 598.230 785.563 C 624.457 771.570, 650.232 746.104, 663.810 720.770 C 672.815 703.967, 680.801 680.052, 682.645 664.365 C 682.992 661.414, 683.551 659.006, 683.888 659.013 C 684.224 659.020, 688.100 660.225, 692.500 661.690 C 702.815 665.126, 725.222 665.618, 735.913 662.645 C 750.256 658.655, 761.726 650.892, 767.086 641.547 C 770.401 635.767, 770.760 632.542, 768.250 631.080 C 766.727 630.193, 766.827 630.057, 769.023 630.030 C 770.411 630.014, 775.981 628.875, 781.401 627.500 C 794.152 624.266, 794.611 624.291, 795.938 628.312 C 799.560 639.287, 816.511 646.130, 827.599 641.095 C 833.205 638.549, 835.084 635.507, 840.015 621 C 844.922 606.563, 845.016 606.407, 849.304 605.603 C 863.715 602.899, 876.182 585.566, 872.112 573.890 C 871.067 570.894, 871.213 570.370, 873.874 567.562 C 881.112 559.925, 881.685 553.954, 876.251 542.805 C 873.434 537.027, 871.815 534.860, 869.750 534.107 C 866.265 532.836, 866.064 534.214, 872.540 514.966 C 878.754 496.500, 880.923 487.590, 880.367 482.815 C 879.934 479.099, 873.856 472.253, 870.168 471.327 C 867.988 470.780, 867.866 470.383, 868.415 465.620 C 869.742 454.108, 870.207 395.509, 869.067 383.384 C 857.292 258.149, 790.330 141.726, 692.386 76.201 C 653.026 49.869, 609.011 31.127, 570.908 24.474 C 546.331 20.183, 507.776 18.743, 481.012 21.117 M 497.917 27.374 C 497.688 27.579, 493.900 28.048, 489.500 28.416 C 442.703 32.330, 394.145 46.080, 353 67.066 C 215.208 137.349, 133.053 289.391, 152.029 439 C 152.622 443.675, 153.595 450.762, 154.191 454.750 L 155.274 462 159.687 462 C 171.483 462, 175.274 467.521, 185.433 499.500 C 189.102 511.050, 192.557 521.669, 193.110 523.098 C 194.072 525.580, 194.615 525.744, 205.308 526.768 C 211.464 527.358, 221.900 529.014, 228.500 530.448 C 262.318 537.798, 309.882 531.612, 354.411 514.073 L 357.323 512.927 349.677 508.569 C 303.854 482.456, 282.839 434.256, 296.021 385.500 C 297.805 378.900, 299.647 371.250, 300.114 368.500 C 300.580 365.750, 301.916 357.650, 303.082 350.500 C 311.093 301.386, 330.311 262.722, 362.992 229.966 C 392.754 200.136, 427.596 181.398, 468.270 173.346 C 475.834 171.848, 481.680 170.294, 481.262 169.891 C 480.843 169.488, 476.450 166.837, 471.500 163.999 C 458.850 156.748, 453.616 151.121, 450.983 141.942 C 450.122 138.940, 450.352 138.447, 454.279 134.844 C 456.601 132.714, 459.968 130.563, 461.762 130.063 C 468.185 128.274, 486.256 132.619, 496.720 138.467 C 500.448 140.551, 501.088 140.680, 500.518 139.237 C 493.913 122.513, 491.647 109.153, 494.328 102.750 L 495.898 99 502.199 99.010 C 525.349 99.046, 546.939 133.569, 544.231 166.222 C 543.699 172.642, 542.589 171.842, 555 173.988 C 632.220 187.342, 691.142 245.936, 706.354 324.500 C 709.321 339.822, 712 357.515, 712 361.789 C 712 363.457, 714.012 369.024, 716.471 374.161 C 724.368 390.657, 726.312 399.034, 726.413 417 C 726.488 430.282, 726.168 433.716, 724.180 441 C 716.825 467.940, 697.169 493.791, 670.368 511.770 L 663.685 516.254 666.092 518.153 C 670.340 521.503, 684.479 527.858, 693.510 530.475 C 724.923 539.578, 760.517 537.016, 802.510 522.630 C 824.945 514.944, 830.600 511.961, 831.445 507.368 C 833.068 498.556, 838.341 481.216, 840.574 477.346 C 843.431 472.396, 849.633 469, 855.816 469 C 859.851 469, 860.003 468.884, 860.093 465.750 C 860.145 463.962, 860.360 460.700, 860.572 458.500 C 863.716 425.847, 862.656 391.588, 857.367 355 C 856.174 346.749, 849.610 317.804, 846.398 306.631 C 814.782 196.673, 744.198 108.219, 650.341 60.937 C 610.851 41.043, 581.438 31.958, 545.313 28.498 C 531.410 27.166, 499.006 26.397, 497.917 27.374 M 501.141 106.835 C 500.143 107.509, 499.973 108.914, 500.502 112.126 C 501.660 119.169, 509.998 143.717, 512.468 147.358 C 517.420 154.655, 521.776 172.784, 518.991 174.506 C 517.083 175.685, 514.004 173.863, 513.375 171.183 C 509.726 155.637, 492.322 141.575, 473.295 138.802 C 463.045 137.308, 459.394 138.439, 460.476 142.775 C 461.546 147.062, 465.307 151.235, 471.133 154.599 C 474.085 156.303, 481 160.353, 486.500 163.599 C 492 166.844, 497.625 169.727, 499 170.005 C 500.858 170.380, 501.584 171.246, 501.828 173.377 C 502.311 177.598, 501.073 178.202, 491.335 178.499 C 475.840 178.972, 448.755 185.813, 429.764 194.049 C 362.161 223.370, 316.635 288.088, 308.453 366.500 C 308.051 370.350, 306.495 377.325, 304.996 382 C 293.039 419.279, 303.312 459.461, 331.597 486.048 C 348.380 501.823, 377.503 516.448, 403.906 522.359 C 416.318 525.138, 418.100 526.057, 416.342 528.778 C 413.903 532.553, 397.991 529.814, 377.489 522.088 L 366.703 518.023 361.602 519.662 C 358.796 520.564, 348.925 523.946, 339.666 527.178 C 298.345 541.601, 258.105 544.696, 220.166 536.371 C 210.317 534.210, 205.086 534.900, 193.154 539.935 C 183.112 544.172, 183.078 544.198, 182.238 548.343 C 180.478 557.017, 183.935 564.794, 191.250 568.615 C 192.762 569.405, 194 570.715, 194 571.526 C 194 573.404, 204.954 573.553, 216.286 571.828 C 223.191 570.777, 224.258 570.829, 225.719 572.290 C 227.828 574.399, 225.541 577.313, 220.288 579.213 C 216.300 580.655, 216.253 579.488, 221.142 600.195 L 224.140 612.891 229.266 615.445 C 235.749 618.676, 244.540 618.850, 255.068 615.958 C 266.139 612.916, 269.199 612.619, 271.500 614.365 C 274.643 616.750, 272.303 619.178, 264.403 621.729 C 248.970 626.714, 247.960 627.911, 251.893 636.571 C 259.498 653.315, 289.050 655.728, 307.388 641.101 C 314.760 635.220, 318.199 637.769, 314 646 C 309.354 655.108, 311.930 658.932, 321.596 657.276 C 343.723 653.486, 367.504 631.835, 380.547 603.605 C 383.813 596.536, 385.996 594.262, 388.206 595.627 C 391.374 597.585, 384.907 613.876, 375.244 628.279 C 361.445 648.845, 334.498 666.940, 317.601 666.987 L 312.703 667 313.287 675.277 C 315.962 713.175, 333.778 749.523, 360.585 771.774 C 368.547 778.383, 378.943 785, 381.364 785 C 382.270 785, 384.014 787.063, 385.379 789.750 C 395.747 810.161, 425.756 822.825, 447.853 816.113 C 456.900 813.365, 466.043 806.567, 471.542 798.501 C 476.036 791.909, 477.853 790.913, 479.768 793.992 C 480.813 795.671, 480.763 796.558, 479.486 799.028 C 477.968 801.962, 477.994 802.049, 480.718 803.175 C 487.630 806.032, 509.597 805.042, 529.981 800.956 C 599.849 786.949, 649.414 747.072, 667.894 690 C 685.221 636.487, 676.519 575.636, 645.277 531.854 L 641.961 527.207 637.322 528.604 C 631.223 530.439, 627.551 530.369, 625.905 528.385 C 624.054 526.156, 628.398 522.446, 633.961 521.507 C 639.638 520.547, 655.099 512.474, 666.556 504.487 C 711.806 472.938, 728.865 429.310, 712.976 385.771 C 711.373 381.380, 708.965 376.770, 707.625 375.528 C 705.675 373.721, 705.057 371.894, 704.533 366.385 C 697.384 291.204, 672.247 242.888, 623.102 209.861 C 601.424 195.294, 580.402 186.969, 552.747 182.002 C 543.250 180.296, 542.889 180.300, 540.572 182.122 C 537.518 184.524, 535.757 184.494, 533.500 182 C 531.752 180.068, 531.755 179.928, 533.595 177.895 C 536.371 174.828, 536.357 150.520, 533.574 141 C 529.457 126.918, 522.373 115.417, 514.465 109.976 C 509.677 106.682, 503.519 105.230, 501.141 106.835 M 615.898 279.284 C 612.147 281.806, 610.951 285.383, 613.528 286.373 C 614.427 286.717, 616.126 286.325, 617.304 285.500 C 622.708 281.714, 630.597 284.614, 640.787 294.129 C 647.014 299.945, 650.536 301.373, 651.629 298.525 C 653.065 294.782, 643.983 285.514, 633.445 279.971 C 626.405 276.268, 620.716 276.045, 615.898 279.284 M 434.909 281.497 C 426.984 284.036, 415 296.881, 415 302.838 C 415 305.803, 417.513 305.570, 419.703 302.401 C 424.572 295.359, 428.381 292, 433.828 289.948 C 439.108 287.959, 446.724 287.064, 449.843 288.068 C 450.582 288.306, 451.700 287.719, 452.329 286.764 C 455.431 282.052, 443.983 278.591, 434.909 281.497 M 613.104 345.718 C 603.197 350.598, 599.058 368.865, 605.168 380.738 C 615.413 400.645, 638.956 392.388, 638.990 368.876 C 639.017 350.642, 626.266 339.235, 613.104 345.718 M 447.500 351.164 C 438.990 355.859, 435.500 362.800, 435.500 375.027 C 435.500 390.732, 441.363 399, 452.500 399 C 466.421 399, 474.836 382.063, 469.584 364.614 C 466.187 353.327, 455.442 346.783, 447.500 351.164 M 543.656 370.914 C 532.275 374.668, 518.733 385.985, 510.211 398.864 C 505.484 406.008, 504.837 409.994, 508.158 411.513 C 509.667 412.203, 510.728 414.156, 511.684 418 C 517.839 442.759, 539.290 455.987, 558.214 446.694 C 565.037 443.344, 570.727 437.197, 576.166 427.303 C 580.021 420.291, 580.268 420.064, 585.798 418.456 C 595.043 415.769, 603 410.662, 603 407.416 C 603 406.751, 596.362 399.500, 588.250 391.303 C 567.268 370.104, 558.403 366.051, 543.656 370.914 M 543.665 378.482 C 541.556 379.292, 537.669 381.541, 535.027 383.480 C 528.007 388.633, 513.591 404.416, 515.115 405.281 C 515.327 405.402, 516.400 406.074, 517.500 406.775 C 525.425 411.827, 536.853 413.997, 555.500 413.991 C 567.842 413.987, 583.652 411.690, 589.677 409.025 L 594.201 407.024 587.350 399.353 C 579.429 390.482, 570.591 382.852, 564.840 379.918 C 559.561 377.225, 548.836 376.498, 543.665 378.482 M 667 401.633 C 667 402.124, 669.362 403.083, 672.250 403.764 C 682.968 406.289, 689.360 413.608, 689.146 423.109 C 689.078 426.148, 689.418 427.860, 690.017 427.490 C 690.558 427.155, 691 424.522, 691 421.637 C 691 414.157, 687.038 408.144, 679.766 404.586 C 673.994 401.762, 667 400.144, 667 401.633 M 402.395 406.135 C 386.759 411.384, 378.959 423.859, 385.058 433.863 C 387.648 438.112, 388.803 437.211, 386.631 432.635 C 383.317 425.651, 385.553 418.814, 392.917 413.419 C 397.653 409.950, 407.648 406, 411.694 406 C 412.962 406, 414 405.550, 414 405 C 414 403.420, 409.037 403.906, 402.395 406.135 M 519 418.533 C 519 420.291, 524.643 429.707, 527.785 433.193 C 540.026 446.771, 558.083 443.600, 567.806 426.163 L 570.113 422.027 567.306 422.583 C 562.670 423.501, 530.874 421.195, 525.500 419.551 C 520.061 417.887, 519 417.721, 519 418.533 M 154.500 471.169 C 150.141 472.767, 148.943 473.967, 146.863 478.819 C 144.712 483.837, 144.563 485.946, 146.117 489.357 L 147.233 491.808 154.366 489.831 C 161.823 487.765, 166.419 485.405, 169.400 482.111 C 171.067 480.269, 171.072 479.954, 169.492 476.624 C 168.570 474.682, 167.272 472.641, 166.608 472.090 C 164.686 470.494, 157.774 469.968, 154.500 471.169 M 851 480.732 C 849.625 480.985, 847.995 481.606, 847.377 482.113 C 846.018 483.228, 842.613 494.946, 843.415 495.748 C 843.974 496.307, 865.360 500.904, 867.699 500.967 C 869.543 501.018, 872.641 490.252, 871.378 488.184 C 867.867 482.436, 859.123 479.239, 851 480.732 M 165.183 493.103 C 161.158 495.245, 156.095 497.281, 153.933 497.627 C 151.770 497.973, 150 498.583, 150 498.983 C 150 499.383, 152.660 506.452, 155.912 514.694 C 159.163 522.935, 162.384 531.550, 163.070 533.839 C 164.225 537.694, 164.581 538.005, 167.908 538.070 C 169.884 538.109, 172.400 538.492, 173.499 538.921 C 174.776 539.419, 175.860 539.232, 176.499 538.403 C 177.050 537.690, 179.750 536.226, 182.500 535.152 C 186.273 533.677, 187.429 532.744, 187.211 531.349 C 186.686 527.985, 173.621 488.998, 173.055 489.104 C 172.750 489.162, 169.207 490.961, 165.183 493.103 M 840.390 503.918 C 840.079 505.338, 839.169 508.890, 838.367 511.810 L 836.909 517.120 841.917 522.599 C 846.205 527.291, 848.973 533.116, 848.286 536 C 848.220 536.275, 850.604 536.500, 853.583 536.500 C 857.911 536.500, 859 536.174, 859 534.879 C 859 533.568, 862.499 521.466, 866.368 509.395 C 866.988 507.460, 866.575 507.240, 861.271 506.685 C 858.097 506.352, 852.227 505.013, 848.227 503.708 L 840.954 501.336 840.390 503.918 M 652.750 522.572 C 649.315 524.436, 649.066 523.481, 655.378 532.670 C 674.631 560.701, 685 596.476, 685 634.866 L 685 649.630 691.250 651.801 C 706.498 657.098, 716.993 658.120, 730.162 655.590 C 747.937 652.176, 758.910 644.773, 761.960 634.138 L 762.801 631.206 757.151 630.505 C 749.648 629.575, 745.351 627.681, 744.474 624.917 C 743.587 622.124, 746.509 619.585, 749.500 620.549 C 758.976 623.606, 780.456 621.146, 792.498 615.627 C 797.217 613.464, 797.623 612.970, 799.664 606.917 C 800.853 603.388, 803.427 596.133, 805.383 590.795 L 808.939 581.090 802.219 580.795 C 796.171 580.529, 795.469 580.281, 795.188 578.305 C 794.926 576.468, 795.577 575.931, 799.188 575.009 C 806.238 573.207, 808.904 571.899, 813.826 567.831 C 818.462 563.998, 818.497 563.923, 818.163 558.564 C 817.753 552.004, 820.784 548.111, 830.479 542.746 C 838.509 538.303, 840.199 535.299, 837.500 530.264 C 834.415 524.507, 828.307 521.532, 823.339 523.366 C 788.013 536.407, 772.513 540.526, 750 542.855 C 716.444 546.326, 688.378 540.700, 663.304 525.477 C 659.248 523.015, 655.833 521.018, 655.715 521.040 C 655.597 521.062, 654.263 521.751, 652.750 522.572 M 854 543.713 C 846.911 544.961, 831.895 550.368, 829.594 552.501 C 821.194 560.285, 831.956 568.513, 850.500 568.484 C 863.061 568.465, 867.276 566.655, 871 559.682 L 873.500 555.001 871.500 551.281 C 867.891 544.570, 862.463 542.222, 854 543.713 M 160 547.752 C 151.150 552.173, 151.451 568.784, 160.450 572.544 C 165.313 574.575, 180.608 573.330, 178.562 571.069 C 175.760 567.973, 172.929 560.049, 172.329 553.624 C 171.754 547.465, 171.604 547.171, 168.740 546.598 C 164.443 545.739, 163.881 545.813, 160 547.752 M 820.981 570.036 C 819.894 572.067, 814.948 586.105, 808.310 606 C 801.540 626.291, 804.807 636, 818.403 636 C 826.652 636, 829.263 633.002, 834.081 618 C 835.758 612.775, 837.339 608.012, 837.593 607.417 C 837.848 606.821, 836.263 605.796, 834.073 605.140 C 825.985 602.717, 820.051 594.835, 820.038 586.500 C 820.029 581.226, 822.551 570.650, 823.927 570.191 C 825.149 569.784, 824.375 568, 822.976 568 C 822.478 568, 821.580 568.916, 820.981 570.036 M 828.169 578.932 C 825.699 592.952, 832.829 600.151, 846.971 597.916 C 858.506 596.092, 867.020 585.511, 862.999 577.998 C 861.824 575.803, 861.425 575.741, 851.883 576.267 C 843.886 576.707, 840.786 576.447, 835.742 574.914 C 832.309 573.870, 829.436 573.012, 829.357 573.008 C 829.278 573.003, 828.743 575.670, 828.169 578.932 M 175.352 580.617 C 174.720 580.882, 171.345 581.414, 167.852 581.799 L 161.500 582.500 161.180 586.405 C 160.499 594.734, 164.945 601.015, 173.276 603.489 C 183.821 606.621, 192.081 604.611, 195.451 598.094 C 196.765 595.554, 199.939 584.114, 199.985 581.751 C 199.993 581.339, 196.738 581.114, 192.750 581.251 C 188.762 581.388, 183.475 581.193, 181 580.817 C 178.525 580.442, 175.983 580.352, 175.352 580.617 M 208.086 582.066 C 205.319 600.295, 198.008 612, 189.389 612 C 185.203 612, 185.208 613.273, 189.434 622.591 C 196.483 638.131, 216.983 635.306, 216.996 618.793 C 217 614.024, 208.533 579.123, 208.086 582.066 M 238.575 694.878 C 237.402 696.777, 244.515 708.507, 248.785 711.716 C 254.350 715.896, 265.945 719.505, 280.142 721.476 C 300.368 724.283, 299.516 723.953, 296.250 727.704 C 294.692 729.493, 292.905 729.771, 280 730.232 C 259.480 730.964, 253.026 733.928, 259.250 739.760 C 262.384 742.696, 271.464 746.744, 277.931 748.088 C 288.875 750.363, 320.391 747.611, 324.293 744.040 C 324.729 743.640, 323.061 739.153, 320.586 734.068 C 318.111 728.982, 314.829 721.265, 313.293 716.919 L 310.500 709.017 304.433 706.586 C 289.205 700.484, 240.466 691.819, 238.575 694.878 M 579.507 794.549 C 574.011 796.938, 568.703 799.106, 567.711 799.365 C 566.145 799.775, 566.441 800.541, 569.949 805.168 C 578.443 816.372, 582.362 825.949, 582.829 836.646 C 583.498 851.940, 581.581 860.652, 576.592 864.986 C 561.381 878.203, 557.457 883.136, 558.168 888.155 C 558.698 891.900, 562.093 891.530, 573.175 886.518 C 592.356 877.843, 609.766 875.179, 629.027 877.973 C 645.943 880.426, 647.563 880.437, 649.886 878.114 C 653.034 874.966, 652.480 872.217, 647.742 867.479 C 643.415 863.152, 635.889 860, 629.884 860 C 626.549 860, 622 858.376, 622 857.185 C 622 853.810, 638.132 852.970, 646.487 855.910 C 651.057 857.517, 651.874 857.537, 656.237 856.141 C 661.532 854.448, 662.171 852.791, 659.364 848.040 C 654.128 839.176, 645.627 839.513, 611.500 849.939 C 596.817 854.425, 594.323 854.143, 597.326 848.337 C 599.468 844.194, 602 831.121, 602 824.202 C 602 813.718, 593.965 789.774, 590.558 790.102 C 589.976 790.158, 585.003 792.159, 579.507 794.549 M 414.840 825.877 C 414.283 827.320, 412.758 831.320, 411.452 834.766 C 405.827 849.610, 392.788 869.741, 386.532 873.242 C 382.680 875.398, 380.678 870.948, 383.536 866.585 C 385.013 864.332, 384.933 864.158, 381.485 862.124 C 379.512 860.960, 376.180 859.733, 374.080 859.397 C 370.336 858.798, 370.250 858.856, 369.588 862.381 C 368.847 866.334, 368.944 866.593, 382.240 896 C 386.343 905.075, 391.369 917.225, 393.410 923 C 397.629 934.941, 399.205 937.763, 402.308 938.936 C 405.431 940.115, 407.518 938.661, 409.380 934.009 C 412.270 926.785, 410.866 919.540, 405.319 913.059 C 401.954 909.129, 398.633 901.701, 399.743 900.590 C 403.806 896.527, 417.911 912.618, 417.978 921.392 C 417.993 923.370, 419.481 926.018, 422.687 929.771 C 432.849 941.666, 440.001 942.041, 439.999 930.679 C 439.998 921.030, 433.016 909.702, 415.662 891.195 C 410.348 885.527, 406 880.539, 406 880.111 C 406 879.054, 412.909 869.263, 420.664 859.329 C 424.172 854.835, 427.969 849.064, 429.101 846.504 C 433.015 837.655, 432.527 826, 428.243 826 C 427.249 826, 424.055 825.382, 421.145 824.627 L 415.854 823.255 414.840 825.877 M 455.500 961.086 C 443.400 961.511, 425.850 962.341, 416.500 962.930 C 407.150 963.520, 395 964.237, 389.500 964.523 C 302.425 969.060, 282 971.067, 282 975.087 C 282 977.906, 286.552 978.071, 309.788 976.097 C 322.830 974.989, 342.050 973.613, 352.500 973.038 C 362.950 972.464, 376.450 971.710, 382.500 971.363 C 401.569 970.270, 403.534 970.186, 450 968.467 C 491.651 966.926, 584.031 966.889, 593 968.410 C 594.375 968.643, 601.800 969.115, 609.500 969.459 C 626.861 970.234, 640.733 971.461, 661.960 974.100 C 677.708 976.057, 678.476 976.069, 679.720 974.368 C 682.009 971.237, 679.205 970.179, 663 968.060 C 611.090 961.272, 528.859 958.508, 455.500 961.086" stroke="none" fill="#1a1a1a" fill-rule="evenodd"/>
</svg>