<svg xmlns="http://www.w3.org/2000/svg" width="1024" height="1024" viewBox="0 0 1024 1024" version="1.1">
	<path d="M 296.429 2.518 C 248.706 14.955, 215.254 48.386, 204.390 94.500 C 201.324 107.517, 201.777 136.284, 205.252 149.206 C 208.123 159.881, 213.867 172.907, 219.953 182.543 L 223.894 188.783 218.255 189.487 C 210.782 190.421, 197.282 195.207, 188 200.214 C 155.704 217.633, 132 247.808, 132 271.500 C 132 281.640, 134.249 279.968, 138.789 266.451 C 143.703 251.821, 149.403 242.703, 161.479 230.156 C 176.806 214.231, 196.386 202.261, 214 198.047 C 227.604 194.793, 228.114 194.907, 236.218 203.011 C 240.074 206.867, 244.528 210.789, 246.115 211.727 C 248.206 212.962, 249 214.204, 249 216.241 C 249 224.103, 257.904 241.137, 268.339 253.238 L 275.179 261.169 273.616 268.091 C 271.596 277.033, 267.902 284.765, 263.465 289.333 C 259.135 293.791, 249.150 300.673, 245.787 301.517 L 243.310 302.139 244.653 295.819 C 246.499 287.129, 246.890 267.497, 245.250 265.853 C 243.289 263.887, 242.058 265.943, 240.924 273.078 C 239.349 282.988, 233.387 305.804, 230.587 312.642 C 225.681 324.621, 215.103 341.436, 213.489 339.822 C 213.178 339.511, 211.446 333.659, 209.642 326.819 C 205.881 312.564, 202.558 305.656, 199.235 305.180 C 196.272 304.757, 196.320 306.964, 199.526 318.500 C 207.558 347.408, 209.234 383.378, 203.456 402.837 L 202.022 407.664 195.261 406.248 C 174.072 401.812, 157.598 413.967, 155.279 435.750 C 154.972 438.638, 154.519 441, 154.274 441 C 154.028 441, 150.603 438.771, 146.663 436.047 C 124.491 420.715, 113.029 404.412, 105.336 377.265 C 101.919 365.209, 101.713 363.639, 101.621 349 C 101.477 326.234, 105.480 314.073, 118.043 299.112 C 124.303 291.656, 124.822 289.075, 119.808 290.333 C 112.670 292.125, 101.969 306.429, 97.241 320.500 C 93.504 331.620, 93.301 359.436, 96.859 373 C 102.720 395.347, 106.714 404.524, 115.846 416.621 C 127.119 431.554, 133.327 436.943, 148.299 444.789 C 155.552 448.590, 156.307 449.295, 159.094 454.872 C 164.599 465.890, 178.758 476.355, 189.952 477.681 C 192.628 477.998, 198.384 477.735, 202.744 477.098 C 210.567 475.954, 210.749 475.977, 216.586 478.862 C 225.210 483.126, 229.299 483.988, 240.922 483.994 C 249.488 483.999, 252.425 484.421, 257.422 486.364 C 260.765 487.664, 264.345 489.022, 265.378 489.382 C 267.021 489.954, 266.620 490.708, 262.182 495.402 C 241.598 517.165, 239.106 539.020, 253.678 569.973 C 262.522 588.759, 262.254 587.524, 260.488 601.341 C 257.823 622.183, 254.210 641.005, 250.379 654 C 245.194 671.588, 245.115 672.922, 248.996 677.342 L 252.175 680.964 250.126 687.232 C 248.999 690.679, 246.677 698.675, 244.966 705 C 238.875 727.514, 233.081 744.484, 229.603 750 C 219.998 765.228, 220.733 763.424, 222.458 767.553 C 224.332 772.038, 228.514 777.284, 236.400 785.043 L 242.299 790.847 238.900 792.927 C 237.030 794.070, 233.475 795.747, 231 796.653 C 228.525 797.559, 223.598 799.425, 220.052 800.798 C 213.875 803.191, 213.278 803.243, 205.886 802.043 C 200.033 801.092, 197.337 801.064, 194.728 801.925 C 192.040 802.812, 189.368 802.726, 182.513 801.530 C 150.435 795.936, 137.065 804.538, 125.046 838.500 C 114.875 867.240, 113.787 891.451, 121.692 913.140 C 125.119 922.544, 126.056 924.086, 131.840 929.846 C 137.068 935.052, 138.669 936.105, 140.751 935.707 C 142.146 935.441, 144.911 935.921, 146.894 936.776 C 152.711 939.281, 167.496 939.038, 172.507 936.354 C 182.621 930.936, 190.401 919.275, 194.613 903.221 C 197.601 891.830, 207.781 870.658, 213 864.979 L 216.500 861.171 238 860.134 C 272.586 858.466, 284.416 854.387, 300.954 838.426 C 305.654 833.890, 311.075 827.738, 313 824.757 L 316.500 819.336 325.227 819.418 C 337.045 819.529, 337.013 819.563, 344.614 798.590 C 346.617 793.064, 346.069 792.344, 350.029 805.700 C 351.993 812.320, 352.442 812.991, 355.621 814.040 C 358.101 814.859, 358.946 815.649, 358.610 816.840 C 358.354 817.753, 357.834 821.875, 357.456 826 C 356.390 837.624, 353.644 846.749, 347.566 858.868 L 341.983 870 338.015 870 C 334.975 870, 333.693 870.539, 332.537 872.304 C 330.569 875.307, 327.056 885.845, 327.025 888.840 C 327.010 890.234, 325.703 892.256, 323.793 893.840 C 302.903 911.167, 294.455 924.568, 296.985 936.366 C 299.870 949.819, 314.912 973.884, 330.326 989.709 C 349.892 1009.798, 365.639 1018.510, 384.533 1019.699 C 397.701 1020.528, 403.885 1018.561, 410.587 1011.412 L 415.674 1005.986 415.816 996.808 C 416.007 984.510, 414.355 978.727, 405.018 959 C 397.588 943.303, 397.078 941.770, 394.546 927.500 C 390.781 906.278, 391.320 903.690, 402.048 891.500 C 419.830 871.292, 429.512 850.173, 433.633 822.609 L 435.341 811.180 441.070 808.708 C 450.096 804.814, 450.506 803.717, 450.469 783.545 C 450.436 765.331, 446.467 719.704, 442.898 696.500 L 440.898 683.500 443.393 681.500 C 447.634 678.099, 448.253 672.282, 446.459 652.693 C 442.693 611.588, 435.582 577.834, 421.139 532.505 L 419.228 526.509 422.020 522.505 C 426.304 516.361, 448.566 479.786, 454.219 469.606 C 456.983 464.627, 461.215 457.676, 463.623 454.160 C 468.827 446.559, 469.652 438.236, 465.998 430.185 C 464.288 426.418, 464.215 425.592, 465.422 423.685 C 467.398 420.563, 479.366 385.097, 481.850 375 C 491.284 336.656, 482.800 306.167, 444.768 241.736 L 437.824 229.971 440.564 222.236 C 444.860 210.105, 445.285 192.614, 441.489 184.155 L 438.746 178.042 441.434 172.365 C 454.563 144.635, 456.165 111.015, 445.812 80.500 C 433.953 45.550, 404.969 17.564, 367.558 4.942 L 360.616 2.600 363.558 1.345 C 366.002 0.302, 361.342 0.096, 336 0.122 C 307.218 0.153, 304.989 0.288, 296.429 2.518 M 312 6.935 C 304.801 7.977, 293.849 10.755, 287.125 13.246 L 281.750 15.237 287.779 18.459 C 300.493 25.252, 320.935 44.121, 332.711 59.934 C 332.958 60.266, 348.210 52.691, 349.828 51.432 C 350.009 51.291, 348.956 47.874, 347.489 43.838 C 344.020 34.298, 342.967 19.480, 345.276 12.704 C 346.705 8.510, 346.696 8.092, 345.164 7.447 C 342.674 6.399, 318.309 6.023, 312 6.935 M 903.928 8.354 C 903.244 8.956, 799.250 9.949, 671.500 10.574 C 591.760 10.963, 552.593 11.496, 550.703 12.216 C 544.532 14.567, 544.879 5.745, 544.966 158.270 C 545.052 310.284, 544.636 299.748, 550.718 303.736 C 553.001 305.233, 556.588 305.576, 574.452 306 L 595.496 306.500 596.821 310.500 C 599.253 317.837, 603.217 333.355, 606.146 347 C 613.572 381.601, 615.701 394.539, 616.653 410.846 C 617.335 422.537, 618.094 425, 621.016 425 C 623.376 425, 623.909 423.021, 624.247 413 L 624.500 405.500 630.780 413.500 C 646.355 433.341, 644.863 433.055, 658.524 418.822 L 668.293 408.644 670.896 411.729 C 672.328 413.426, 676.810 418.906, 680.856 423.907 C 691.033 436.485, 692.009 436.284, 706.500 418.622 C 710.350 413.929, 713.761 410.070, 714.080 410.045 C 714.400 410.020, 716.045 411.913, 717.737 414.250 C 724.592 423.718, 731.607 430.255, 734.135 429.527 C 736.567 428.826, 741.485 424.145, 746.217 418.024 L 748.904 414.548 749.577 418.755 C 750.297 423.258, 752.130 425.548, 754.336 424.701 C 755.330 424.320, 755.856 420.983, 756.284 412.339 C 757.432 389.130, 762.882 354.730, 770.279 324 L 772.565 314.500 778.533 314.523 C 781.815 314.536, 798.900 315.104, 816.500 315.785 C 915.903 319.632, 914.963 319.651, 917.802 313.726 C 919.517 310.149, 919.634 19.118, 917.923 14.209 C 917.295 12.407, 915.787 10.778, 914.185 10.170 C 911.002 8.962, 904.537 7.817, 903.928 8.354 M 351.871 12.250 C 348.951 19.171, 352.629 48, 356.432 48 C 357.100 48, 360.537 46.600, 364.070 44.888 C 374.110 40.025, 379.657 38.033, 391.404 35.076 L 402.308 32.331 396.503 28.173 C 388.036 22.111, 370.509 13.425, 361.960 11.056 C 352.717 8.495, 353.495 8.403, 351.871 12.250 M 746.904 17.376 C 746.682 17.569, 703.310 17.991, 650.522 18.315 C 560.888 18.865, 554.460 19.018, 553.272 20.643 C 551.331 23.297, 551.408 295.264, 553.350 296.876 C 554.593 297.907, 590.548 300.176, 592.177 299.326 C 592.549 299.132, 591.730 295.491, 590.358 291.236 C 585.271 275.463, 585.271 275.463, 579.586 271.688 C 565.218 262.149, 566.958 243.713, 583 235.524 C 591.453 231.209, 620.875 224, 630.033 224 L 633.963 224 633.832 174.495 C 633.708 128.068, 633.812 124.865, 635.505 122.995 C 637.282 121.031, 638.660 121, 725.455 121 C 792.679 121, 813.885 121.285, 814.800 122.200 C 816.577 123.977, 816.495 244.464, 814.714 247.983 C 813.236 250.904, 810.878 251.736, 801.750 252.554 C 795.410 253.122, 795 253.309, 795 255.619 C 795 259.562, 791.218 266.179, 786.495 270.500 C 782.131 274.492, 782.116 274.529, 778.994 289.345 C 777.273 297.509, 775.622 304.822, 775.325 305.595 C 774.982 306.490, 775.459 307.001, 776.643 307.003 C 777.664 307.005, 797.850 307.654, 821.500 308.446 C 845.150 309.237, 874.940 310.192, 887.699 310.568 L 910.899 311.251 911.473 308.876 C 911.789 307.569, 911.925 241.475, 911.774 162 L 911.500 17.500 829.404 17.263 C 784.251 17.132, 747.126 17.183, 746.904 17.376 M 264 24.058 C 248.002 34.424, 237.498 44.295, 228.086 57.808 C 225.081 62.121, 225.402 62.256, 232.509 59.683 C 240.455 56.807, 263.097 56.640, 272.500 59.389 C 280.192 61.637, 290.313 67.606, 297.368 74.053 L 302.917 79.125 310.726 73.812 C 315.021 70.891, 320.439 67.644, 322.767 66.598 C 325.095 65.552, 327 64.383, 327 64.001 C 327 63.618, 324.148 59.974, 320.662 55.903 C 304.057 36.508, 285.328 22.175, 274.333 20.448 C 270.999 19.925, 269.654 20.395, 264 24.058 M 392.500 41.455 C 374.807 46.336, 360 52.032, 360 53.958 C 360 58.035, 374.049 66.632, 389.517 72.022 C 411.179 79.569, 429.807 90.463, 439.631 101.328 L 444.308 106.500 443.724 101.500 C 441.716 84.312, 428.791 58.328, 415.081 43.921 C 408.415 36.916, 408.805 36.958, 392.500 41.455 M 343.750 60.563 C 336.688 64.188, 336.049 64.966, 338.476 66.980 C 339.288 67.654, 342.462 71.977, 345.529 76.587 C 368.961 111.803, 385.680 148.042, 391.854 177 C 394.380 188.843, 396.381 207.120, 395.705 212.162 C 395.011 217.337, 396.348 216.526, 409.681 203.688 C 424.521 189.398, 432.506 176.712, 438.940 157.203 C 445.954 135.933, 446.299 120.594, 439.987 110.641 C 433.615 100.592, 411.043 86.908, 387.115 78.585 C 373.228 73.756, 365.786 69.651, 358.399 62.750 C 351.196 56.020, 352.284 56.183, 343.750 60.563 M 241.121 64.069 C 227.638 65.718, 220.515 70.334, 217.014 79.692 C 207.104 106.180, 207.777 140.927, 218.672 165.203 C 221.712 171.978, 222.665 172.376, 223.575 167.250 C 224.612 161.400, 233.444 144.514, 241.006 133.923 C 249.378 122.197, 268.915 103.185, 284.918 91.191 L 296.336 82.633 291.048 77.770 C 278.848 66.552, 260.958 61.643, 241.121 64.069 M 319 75.111 C 304.882 83.340, 305.288 82.830, 309.057 87.570 C 313.071 92.617, 319.399 105.800, 321.505 113.500 C 325.789 129.163, 324.260 164.706, 318.607 180.886 L 316.232 187.685 319.584 190.359 C 325.960 195.447, 330.950 207.094, 330.998 217 C 331.018 221.297, 331.338 221.788, 338.089 227.888 L 345.159 234.277 351.829 233.693 C 364.279 232.604, 387.262 222.989, 389.202 218.058 C 391.767 211.539, 387.204 181.357, 380.425 160.009 C 376.121 146.455, 365.964 123.968, 356.940 108.016 C 348.098 92.384, 332.824 69.555, 331 69.246 C 330.175 69.106, 324.775 71.746, 319 75.111 M 287.108 96.953 C 262.750 116.595, 250.134 130.401, 238.399 150.261 C 231.296 162.281, 229 168.612, 229 176.176 C 229 182.085, 229.171 182.486, 234.434 188.889 C 237.423 192.525, 242.337 197.924, 245.354 200.886 L 250.839 206.272 253.593 204.105 C 255.108 202.913, 257.098 200.265, 258.016 198.219 C 260.246 193.244, 262.378 191.661, 267.157 191.429 C 270.521 191.266, 271.541 190.669, 273.583 187.663 C 278.006 181.153, 287.866 181.013, 296.291 187.340 L 300.500 190.501 302.737 188.228 C 303.967 186.978, 306.278 185.694, 307.872 185.376 C 310.924 184.765, 312.687 180.462, 316.219 165 C 318.367 155.596, 317.759 125.077, 315.243 116 C 312.014 104.355, 303.786 88.363, 300.483 87.312 C 299.923 87.134, 293.905 91.473, 287.108 96.953 M 666.371 128.768 L 642.243 129.035 641.621 132.143 C 641.280 133.852, 641 155.045, 641 179.239 L 641 223.227 645.750 222.482 C 648.362 222.071, 662.887 221.794, 678.026 221.865 C 739.516 222.153, 777.132 228.502, 789.920 240.750 C 794.165 244.816, 794.627 245, 800.556 245 C 809.792 245, 809.407 246.484, 808.664 213.714 C 808.312 198.196, 808.018 172.502, 808.012 156.615 L 808 127.730 749.250 128.115 C 716.938 128.327, 679.642 128.620, 666.371 128.768 M 432.477 189.722 C 429.795 194.770, 412.349 212.774, 403.881 219.232 C 395.910 225.310, 396.128 224.790, 400 228.500 C 403.074 231.446, 403.745 233.422, 402.029 234.482 C 400.792 235.247, 395.638 232.601, 393.138 229.917 L 391.217 227.856 386.359 230.300 C 383.686 231.644, 378.666 233.769, 375.202 235.023 C 371.489 236.367, 369.271 237.671, 369.799 238.199 C 371.181 239.581, 384.636 243.921, 391.685 245.258 C 396.326 246.138, 398 246.883, 398 248.065 C 398 248.950, 399.740 252.110, 401.867 255.087 C 410.578 267.281, 423.455 299.310, 428.567 321.500 C 431.685 335.033, 429.943 357.537, 424.751 370.799 C 422.757 375.894, 422.553 377.945, 422.839 390.098 C 423.014 397.577, 422.679 406.285, 422.094 409.450 L 421.030 415.204 427.204 422.151 C 433.010 428.684, 443.589 436.753, 449.090 438.844 C 451.499 439.760, 451.650 439.506, 456.893 425.639 C 482.805 357.115, 483.582 344.632, 464.858 297.666 C 456.721 277.257, 441.142 247.889, 432.320 236.332 L 428.938 231.902 432.489 223.027 C 437.962 209.349, 439.107 199.242, 436.404 188.475 C 435.560 185.111, 434.798 185.353, 432.477 189.722 M 280.313 189.786 C 274.954 193.193, 278.535 206.292, 289.522 223.467 C 292.904 228.755, 294.014 233, 292.013 233 C 288.700 233, 277.530 215.294, 275.451 206.747 C 274.603 203.259, 269.384 198.803, 266.612 199.199 C 264.880 199.446, 264.441 200.309, 264.174 204 C 263.586 212.102, 268.106 221.297, 278.341 232.821 C 283.427 238.547, 283.988 240, 281.115 240 C 277.922 240, 267.680 227.982, 262.905 218.634 C 258.149 209.321, 257.386 208.616, 256.384 212.607 C 255.262 217.076, 257.891 225.452, 263.222 234.394 C 274.445 253.221, 283.247 259.911, 309.384 269.480 C 317.415 272.420, 318 273.470, 318 284.941 C 318 299.884, 315.250 300.116, 311.646 285.477 L 309.500 276.761 299 273.057 C 293.225 271.020, 287.068 268.603, 285.319 267.686 L 282.138 266.020 280.989 271.554 C 279.202 280.159, 272.794 291.983, 266.959 297.441 C 261.944 302.133, 250.045 308.441, 243.889 309.672 C 241.175 310.215, 240.324 311.214, 237.760 316.870 C 233.770 325.668, 229.627 331.955, 221.655 341.305 C 217.995 345.598, 214.970 349.423, 214.933 349.805 C 214.897 350.187, 214.747 359.950, 214.600 371.500 C 214.307 394.534, 212.572 404.389, 207.426 412.250 C 204.624 416.531, 202.847 416.849, 195.576 414.371 C 181.245 409.488, 167.732 416.795, 163.375 431.783 C 158.378 448.970, 174.385 469.160, 194.245 470.721 C 203.853 471.476, 211.190 468.618, 225.559 458.519 C 226.593 457.793, 228.060 458.585, 231.227 461.580 C 241.582 471.374, 267.299 483.849, 284.500 487.422 L 290.500 488.669 291.043 493.310 C 293.149 511.303, 323.169 519.943, 340.231 507.467 C 346.170 503.125, 352 491.301, 352 483.599 C 352 483.433, 347.163 484.524, 341.250 486.022 C 325.758 489.950, 322.089 490.395, 321.338 488.438 C 320.330 485.811, 322.712 484.548, 341 478.009 C 375.987 465.501, 394.307 453.758, 403.833 437.736 C 419.310 411.702, 419.959 386.066, 405.864 357.548 C 403.158 352.075, 400.272 346.853, 399.449 345.944 C 398.626 345.035, 397.088 341.170, 396.032 337.357 C 394.975 333.543, 393.147 328.190, 391.970 325.461 C 390.793 322.733, 387.447 314.200, 384.534 306.500 C 373.553 277.472, 371.987 275.130, 362.201 273.099 C 351.369 270.852, 351.436 270.813, 349.183 280.750 C 348.093 285.563, 346.947 292.533, 346.639 296.241 L 346.077 302.982 349.194 299.432 C 355.141 292.658, 364.110 289.667, 369.603 292.625 C 375.206 295.643, 374.074 297.474, 366.494 297.656 C 361.255 297.782, 358.930 298.413, 354.512 300.906 C 351.497 302.608, 348.405 304, 347.640 304 C 346.876 304, 345.986 305.238, 345.664 306.750 C 344.721 311.174, 341.161 316.178, 339.223 315.804 C 338.275 315.622, 337.520 315.029, 337.544 314.486 C 337.927 305.985, 339.709 291.924, 342.294 277 C 345.738 257.126, 346.042 250.415, 343.748 244.965 C 341.449 239.505, 333.456 231.370, 327.552 228.482 L 322.199 225.862 322.741 217.947 C 323.546 206.209, 319.441 197.082, 311.965 193.985 C 307.923 192.311, 307.121 193.236, 305.779 201.117 C 304.649 207.747, 305.024 209.873, 309.430 221.786 C 310.877 225.700, 310.877 226.338, 309.422 229.150 C 307.421 233.021, 306.557 232.218, 303.419 223.574 C 301.828 219.190, 301 214.767, 301 210.650 C 301 201.040, 295.372 193.298, 286.101 190.153 C 282.129 188.806, 281.879 188.790, 280.313 189.786 M 635.500 230.463 C 611.890 232.955, 590 238.483, 583.186 243.674 C 579.721 246.315, 576.132 252.466, 577.348 253.682 C 578.520 254.853, 590.147 251.998, 594.464 249.478 C 607.571 241.828, 667.113 237.546, 712.577 240.983 C 750.720 243.866, 759.406 245.158, 773.992 250.114 C 787.229 254.612, 790.102 253.959, 786.081 247.365 C 782.110 240.852, 765.706 235.807, 736 231.961 C 714.540 229.183, 655.912 228.309, 635.500 230.463 M 120.500 239.945 C 111.059 243.809, 108.916 264.070, 117.083 272.237 C 121.181 276.335, 121.850 275.154, 120.159 266.803 C 118.108 256.671, 119.111 250.689, 123.617 246.183 C 128.694 241.106, 126.822 237.358, 120.500 239.945 M 358.750 240.689 C 356.359 241.314, 356.271 241.130, 362.848 249.266 C 377.656 267.586, 388.337 291.488, 398.097 328.151 C 399.804 334.563, 401.131 337.359, 403.814 340.200 C 405.736 342.235, 409.882 349.146, 413.028 355.558 C 416.175 361.970, 418.999 366.811, 419.304 366.317 C 420.484 364.408, 422.994 347.183, 422.993 341 C 422.991 325.671, 418.503 308.423, 407.773 282.500 C 399.625 262.817, 394.211 253, 391.504 253 C 386.852 253, 376.194 248.913, 369.445 244.541 C 362.473 240.026, 361.976 239.846, 358.750 240.689 M 349.393 247 C 349.766 248.375, 350.600 253.178, 351.247 257.674 L 352.422 265.848 358.725 266.174 C 363.830 266.438, 364.924 266.232, 364.483 265.088 C 363.287 261.985, 354.966 250.320, 351.937 247.500 C 348.727 244.511, 348.717 244.509, 349.393 247 M 642 248.105 C 630.751 248.841, 622.974 249.738, 623.015 250.295 C 623.024 250.408, 623.633 252.516, 624.370 254.980 C 625.952 260.274, 626.736 260.547, 643 261.473 C 648.775 261.802, 655.862 262.312, 658.750 262.607 L 664 263.144 664 255.072 L 664 247 659.250 247.144 C 656.638 247.223, 648.875 247.655, 642 248.105 M 669.476 252.343 C 668.493 260.211, 669.283 262.607, 673.112 263.372 C 677.199 264.190, 691.631 264.175, 701.472 263.343 L 709.246 262.686 708.754 255.807 C 708.483 252.024, 707.993 248.659, 707.664 248.330 C 707.335 248.001, 698.766 247.505, 688.622 247.227 L 670.179 246.721 669.476 252.343 M 714 255.855 L 714 263.276 721.750 262.626 C 735.691 261.457, 748.466 259.758, 750.250 258.835 C 752.807 257.512, 752.491 253.173, 749.750 251.969 C 748.513 251.426, 739.962 250.408, 730.750 249.707 L 714 248.433 714 255.855 M 607.500 251.652 C 603.650 252.471, 600.103 253.529, 599.617 254.004 C 598.632 254.966, 606.850 257.526, 614.250 258.562 L 619 259.227 619 254.614 C 619 249.243, 618.920 249.223, 607.500 251.652 M 758.710 255 C 758.111 257.293, 758.758 257.438, 762.685 255.890 C 765.301 254.858, 765.358 254.722, 763.500 253.960 C 760.295 252.647, 759.267 252.870, 758.710 255 M 577.537 257.250 C 580.326 266.595, 591.990 271.898, 618.788 276.005 C 668.405 283.609, 727.934 282.352, 764.808 272.921 C 776.944 269.817, 787.650 262.616, 786.788 258.137 C 786.336 255.791, 778.731 256.598, 772.984 259.603 C 759.306 266.756, 730.651 270.324, 687 270.310 C 635.965 270.294, 600.145 265.487, 583.846 256.469 C 579.645 254.144, 576.718 254.507, 577.537 257.250 M 103.500 275.018 C 96.705 276.484, 91.050 281.135, 87.340 288.310 C 85.824 291.242, 85.853 291.462, 87.987 293.190 C 91.002 295.632, 91.204 295.543, 93.500 290.766 C 97.207 283.052, 103.532 281.164, 118.899 283.185 C 123.027 283.727, 122.313 281.268, 117.529 278.464 C 112.032 275.242, 107.556 274.143, 103.500 275.018 M 764.087 280.051 C 760.010 281.119, 756.609 282.107, 756.530 282.246 C 756.451 282.386, 755.108 285.875, 753.546 290 C 751.985 294.125, 748.509 302.227, 745.822 308.005 L 740.936 318.511 748.293 329.750 L 755.649 340.989 757.924 338.373 C 759.549 336.503, 761.144 331.583, 763.512 321.128 C 766.527 307.818, 772.324 284.071, 773.613 279.750 C 774.262 277.573, 773.453 277.599, 764.087 280.051 M 594.203 279.594 C 594.485 280.092, 598.005 290.547, 602.025 302.827 C 607.255 318.804, 609.585 324.706, 610.217 323.577 C 611.781 320.781, 614.185 321.669, 613.845 324.916 C 613.675 326.537, 614.240 328.648, 615.116 329.666 C 615.984 330.675, 618.394 334.301, 620.473 337.724 C 624.885 344.990, 623.920 345.540, 632.865 330.670 L 638.177 321.840 632.558 312.554 C 627.166 303.641, 619.048 286.739, 619.015 284.358 C 618.997 283.021, 616.778 282.389, 607.391 281.049 C 603.601 280.507, 598.968 279.755, 597.095 279.376 C 595.138 278.981, 593.908 279.073, 594.203 279.594 M 739.500 284.574 C 735.100 285.287, 729.925 285.906, 728 285.950 C 722.171 286.084, 721.259 287.213, 723.360 291.691 C 725.994 297.309, 735.341 312, 736.281 312 C 737.122 312, 743.533 298.771, 747.548 288.750 C 749.012 285.095, 749.423 283.051, 748.676 283.139 C 748.029 283.216, 743.900 283.861, 739.500 284.574 M 628.532 291.122 C 632.337 298.739, 641.964 315, 642.669 315 C 643.331 315, 656.365 288.031, 655.916 287.590 C 655.687 287.365, 649.723 286.689, 642.663 286.088 C 635.603 285.486, 628.706 284.713, 627.336 284.370 L 624.846 283.745 628.532 291.122 M 681.147 287.718 C 675.356 288.067, 674.840 288.279, 675.320 290.114 C 675.965 292.582, 690.168 317.007, 690.943 316.983 C 691.843 316.954, 698.642 305.048, 701.814 297.945 C 706.879 286.603, 707.318 287.512, 696.737 287.418 C 691.657 287.372, 684.641 287.508, 681.147 287.718 M 711.459 290.250 C 710.475 294.824, 705.709 305.116, 700.308 314.328 C 695.801 322.016, 695.741 322.232, 697.244 325.335 C 699.539 330.070, 711.882 346.455, 713.413 346.799 C 714.627 347.071, 728.496 327.405, 731.044 321.797 C 731.934 319.837, 730.979 317.323, 724.544 304.679 C 720.395 296.527, 717 289.214, 717 288.429 C 717 285.252, 712.195 286.831, 711.459 290.250 M 660.947 292.197 C 660.325 294.506, 656.913 302.189, 653.364 309.272 L 646.911 322.150 653.947 331.325 C 657.817 336.371, 662.368 342.004, 664.060 343.843 C 667.847 347.956, 667.848 347.956, 678.556 333.666 L 685.974 323.766 683.418 319.633 C 679.558 313.392, 671.108 296.094, 669.821 291.795 C 668.802 288.397, 668.338 288, 665.380 288 C 662.347 288, 661.985 288.343, 660.947 292.197 M 259.435 321.890 C 248.291 326.952, 241.222 339.598, 244.607 348.418 C 245.887 351.753, 248.715 350.186, 249.424 345.750 C 251.314 333.927, 260.592 326, 272.541 326 C 277.310 326, 278.097 325.743, 277.814 324.275 C 276.991 319.999, 266.574 318.648, 259.435 321.890 M 727.382 339.079 L 718.265 352.991 722.882 358.277 C 725.422 361.184, 729 365.460, 730.834 367.781 C 732.668 370.101, 734.537 372, 734.988 372 C 736.128 372, 745.690 356.918, 748.651 350.452 L 751.092 345.119 745.432 336.810 C 736.205 323.262, 737.886 323.051, 727.382 339.079 M 365.223 326.671 C 362.399 327.807, 359.765 335.154, 360.219 340.630 C 361.073 350.929, 370.100 360.774, 376.575 358.469 C 389.358 353.917, 383.060 325.698, 369.346 326.079 C 367.781 326.122, 365.925 326.389, 365.223 326.671 M 685.383 334.750 C 682.747 338.462, 678.452 344.235, 675.839 347.578 L 671.088 353.656 679.631 363.078 C 684.329 368.260, 688.751 373.100, 689.456 373.834 C 690.513 374.932, 692.290 373.190, 699.545 363.942 C 707.880 353.319, 708.275 352.596, 706.926 350.451 C 704.729 346.959, 690.852 328, 690.493 328 C 690.319 328, 688.019 331.038, 685.383 334.750 M 640.566 331.150 C 639.643 332.442, 636.635 336.991, 633.882 341.258 L 628.875 349.016 631.132 352.258 C 635.061 357.901, 645.237 370, 646.054 370 C 646.485 370, 650.206 366.340, 654.322 361.867 L 661.805 353.735 653.755 343.117 C 642.247 327.939, 642.618 328.276, 640.566 331.150 M 610.388 332.500 C 610.681 333.600, 611.630 337.875, 612.497 342 C 613.364 346.125, 614.338 350.738, 614.662 352.250 C 615.416 355.778, 616.353 355.717, 619.025 351.965 C 620.571 349.794, 620.892 348.574, 620.152 347.683 C 619.584 346.998, 617.034 342.852, 614.487 338.469 C 611.940 334.086, 610.095 331.400, 610.388 332.500 M 372.250 338.718 C 370.233 339.442, 370.817 342, 373 342 C 374.100 342, 375 341.352, 375 340.559 C 375 338.820, 373.942 338.111, 372.250 338.718 M 747.675 364.417 L 739.996 377.881 745.232 385.981 L 750.468 394.082 751.636 384.791 C 752.279 379.681, 753.732 370.331, 754.865 364.013 C 755.998 357.695, 756.572 352.172, 756.140 351.740 C 755.708 351.308, 751.898 357.013, 747.675 364.417 M 621.761 358.107 C 617.984 363.981, 617.525 367.653, 619.371 377.240 C 620.245 381.783, 621.266 387.962, 621.639 390.972 L 622.317 396.444 631.638 386.472 C 636.765 380.987, 640.969 376.172, 640.980 375.771 C 640.991 375.370, 638.188 371.499, 634.750 367.169 C 631.313 362.839, 627.600 358.070, 626.500 356.572 L 624.500 353.847 621.761 358.107 M 277 358.229 C 269.742 361.999, 269.114 374.898, 275.754 383.835 C 283.940 394.854, 294.845 392.285, 295.798 379.114 C 296.804 365.208, 286.215 353.443, 277 358.229 M 704.635 368.092 C 700.309 373.567, 696.709 378.624, 696.635 379.330 C 696.561 380.036, 700.475 384.848, 705.332 390.024 C 714.025 399.285, 714.191 399.401, 715.832 397.355 C 727.313 383.047, 730.180 378.720, 729.363 376.928 C 728.442 374.909, 713.841 358.144, 713 358.141 C 712.725 358.139, 708.961 362.618, 704.635 368.092 M 658.633 367.513 C 654.348 372.195, 650.990 376.449, 651.171 376.966 C 651.698 378.471, 667.343 398, 668.022 398 C 668.361 398, 672.591 393.960, 677.423 389.022 L 686.208 380.045 676.450 369.522 C 671.084 363.735, 666.632 359, 666.559 359 C 666.485 359, 662.918 362.831, 658.633 367.513 M 345.932 365.750 C 340.856 368.322, 336.712 373.045, 338.213 374.546 C 339.251 375.585, 351.442 371.169, 353.926 368.854 C 357.013 365.979, 357.984 367.365, 358.647 375.595 C 359.155 381.907, 358.981 382.801, 356.623 386 C 350.640 394.116, 350.713 396.861, 356.821 393.373 C 363.713 389.436, 368.028 377.823, 364.880 371.684 C 360.422 362.990, 354.833 361.239, 345.932 365.750 M 283.754 369.250 C 283.010 371.275, 284.032 373, 285.976 373 C 288.193 373, 289.251 370.651, 287.722 369.122 C 286.235 367.635, 284.325 367.697, 283.754 369.250 M 636.750 390.504 C 627.478 400.309, 626.906 401.344, 629.876 402.934 C 630.908 403.486, 634.779 408.002, 638.477 412.969 C 642.175 417.936, 645.543 422, 645.960 422 C 647.015 422, 663 404.405, 663 403.245 C 663 402.390, 649.430 385.058, 646.661 382.375 C 645.791 381.533, 643.304 383.573, 636.750 390.504 M 726.201 394.542 L 718.020 405.084 723.263 411.292 C 726.147 414.706, 729.566 418.850, 730.861 420.500 L 733.216 423.500 738.728 417.500 C 748.257 407.127, 749.467 404.815, 747.447 400.841 C 745.297 396.614, 736.047 384, 735.097 384 C 734.704 384, 730.701 388.744, 726.201 394.542 M 681.520 394.507 L 672.698 404.117 676.748 408.308 C 678.975 410.614, 682.372 414.995, 684.297 418.043 C 686.222 421.092, 688.573 424.231, 689.522 425.018 C 691.417 426.591, 691.134 426.857, 703.625 411.768 L 709.197 405.037 706.175 401.268 C 704.512 399.196, 700.270 394.664, 696.747 391.198 L 690.342 384.896 681.520 394.507 M 369.008 417.493 C 361.181 424.444, 356.349 426.312, 345 426.776 C 332.649 427.281, 320.727 424.011, 320.149 419.961 C 319.828 417.710, 318.453 416.054, 316.873 416.015 C 315.809 415.989, 312 425.720, 312 428.467 C 312 431.706, 314.634 432.883, 316.419 430.441 C 317.688 428.706, 318.065 428.730, 325.621 431.012 C 336.936 434.430, 352.567 434.502, 359 431.166 C 366.648 427.199, 375.850 417.051, 374.761 413.784 C 374.563 413.189, 371.974 414.859, 369.008 417.493 M 418.523 425.893 C 418.148 427.602, 417.236 429, 416.495 429 C 415.755 429, 412.979 433.348, 410.325 438.661 C 403.210 452.908, 393.009 462.978, 376.500 472.053 C 373.200 473.867, 370.406 475.404, 370.290 475.469 C 370.175 475.533, 370.963 478.419, 372.040 481.882 C 377.574 499.660, 371.605 519.196, 357.167 530.562 C 335.853 547.343, 295.865 540.799, 284.213 518.623 C 281.802 514.034, 281.520 512.431, 281.511 503.251 L 281.500 493.002 278.890 493.001 C 272.828 492.999, 261.927 502.933, 257.494 512.500 C 248.785 531.295, 249.711 541.599, 263.030 574.063 L 269.005 588.625 266.529 608.563 C 263.188 635.475, 258.052 661.298, 254.850 667.280 C 250.382 675.629, 272.829 685.899, 312.500 693.655 C 325.510 696.198, 366.010 696.201, 381.500 693.660 C 410.960 688.827, 435.227 680.255, 438.404 673.561 C 442.245 665.467, 434.146 608.450, 423.476 568.464 C 417.136 544.706, 401.928 495.825, 400.262 493.849 C 399.261 492.663, 399.187 492.002, 399.998 491.501 C 401.628 490.494, 404.446 493.415, 406.538 498.280 C 407.537 500.601, 409.237 504.525, 410.316 507 C 411.395 509.475, 412.805 513.023, 413.449 514.883 L 414.621 518.267 417.642 514.383 C 419.304 512.248, 423.577 505.775, 427.137 500 C 430.697 494.225, 436.887 484.198, 440.893 477.718 C 444.899 471.238, 450.770 462.437, 453.940 458.161 L 459.705 450.387 453.222 448.687 C 443.912 446.245, 436.197 441.115, 427.136 431.341 L 419.206 422.787 418.523 425.893 M 180.186 427.968 C 172.431 435.723, 174.397 441.072, 182.627 434.611 C 185.857 432.076, 189.535 430.001, 190.800 430.001 C 195.762 429.999, 201.839 435.080, 198.437 436.386 C 197.473 436.756, 197 438.467, 197 441.585 L 197 446.233 201.003 442.616 C 203.204 440.627, 205.679 439, 206.503 439 C 208.861 439, 208.281 437.317, 204.471 433.099 C 197.053 424.889, 185.670 422.484, 180.186 427.968 M 457.742 438.860 C 455.843 442.075, 456.273 443, 459.667 443 C 462.078 443, 462.401 442.099, 461.370 438.250 C 460.573 435.278, 459.779 435.412, 457.742 438.860 M 223.311 468.331 C 221.007 470.074, 219.095 471.805, 219.061 472.178 C 218.847 474.553, 238.315 479.203, 243 477.897 C 244.375 477.513, 244.959 477.155, 244.298 477.100 C 242.498 476.950, 229.913 467.937, 229.310 466.364 C 228.602 464.521, 228.151 464.669, 223.311 468.331 M 359.811 480.237 C 358.651 481.148, 358.080 483.731, 357.765 489.500 C 357.038 502.802, 350.521 512.226, 338.320 517.622 C 320.339 525.574, 299.170 520.449, 288.254 505.500 L 286.063 502.500 286.032 506.554 C 285.824 533.164, 336.640 545.397, 355.964 523.389 C 366.204 511.726, 369.142 499.660, 365.170 485.579 C 363.386 479.253, 362.362 478.232, 359.811 480.237 M 304.412 583.250 C 301.245 589.591, 296.759 594.526, 291.873 597.045 C 285.074 600.551, 286.311 604.074, 293.645 602.091 C 301.879 599.866, 309 590.553, 309 582.011 C 309 576.577, 307.549 576.969, 304.412 583.250 M 258 687.284 C 258 689.764, 249.427 718.607, 244.183 733.772 C 240.070 745.663, 235.341 755.329, 229.836 763.095 C 223.665 771.802, 260.144 797.402, 291.500 806.369 C 304.253 810.016, 319.587 812.376, 326.988 811.831 L 331.477 811.500 334.056 805 C 335.475 801.425, 339.974 788.600, 344.053 776.500 C 351.081 755.656, 352.430 752.925, 356 752.328 C 356.825 752.190, 365.512 748.460, 375.305 744.039 C 394.272 735.476, 395 735.231, 395 737.406 C 395 740.393, 375.699 752.140, 363.705 756.453 L 357.500 758.685 354.682 768.592 C 353.133 774.042, 351.817 780.075, 351.758 782 C 351.663 785.126, 355.779 806.857, 356.670 807.930 C 357.604 809.055, 377.939 810.935, 390 811.011 C 416.203 811.175, 441.061 805.590, 442.670 799.179 C 444.463 792.036, 436.091 690.758, 433.494 688.160 C 433.289 687.956, 429.157 689.145, 424.311 690.804 C 372.961 708.384, 312.854 708.213, 270.009 690.365 C 258.658 685.637, 258 685.468, 258 687.284 M 245.466 796.386 C 244.377 797.149, 238.098 800.282, 231.511 803.348 C 220.918 808.280, 219.398 809.303, 218.344 812.212 C 215.496 820.070, 217.608 836.202, 222.950 847.395 C 226.002 853.791, 226.012 853.800, 230.753 854.214 C 235.918 854.665, 260.245 851.818, 267.189 849.950 C 273.969 848.126, 283.294 843.585, 289.167 839.246 C 295.349 834.679, 309.230 820.181, 308.520 819.033 C 308.259 818.610, 305.858 817.973, 303.185 817.619 C 290.416 815.925, 268.961 807.588, 254.034 798.521 C 247.324 794.444, 247.998 794.612, 245.466 796.386 M 161.884 808.250 C 157.981 811.505, 149.687 827.369, 145.121 840.312 C 133.564 873.070, 135.370 915.216, 148.910 928.756 C 158.575 938.421, 179.623 927.673, 184.977 910.339 C 186.090 906.737, 187 903.669, 187 903.522 C 187 903.376, 185.088 902.950, 182.750 902.576 C 174.093 901.192, 162.744 891.484, 161.399 884.312 C 160.845 881.359, 162.201 877.580, 163.282 879.067 C 169.904 888.179, 176.922 894.175, 183.698 896.510 C 190.997 899.026, 192.527 893.837, 185.573 890.148 C 183.138 888.856, 178.200 885.369, 174.598 882.398 C 165.383 874.798, 162.853 869.253, 166.919 865.573 C 168.506 864.137, 168.745 862.928, 168.298 858.602 C 167.910 854.838, 168.221 852.474, 169.405 850.184 C 171.805 845.543, 173 846.272, 173 852.378 C 173 858.571, 173.464 859.096, 181 861.423 C 184.070 862.371, 189.372 865.295, 193 868.040 L 199.500 872.958 201.250 870.868 C 203.930 867.667, 203.405 866.690, 197.668 864.208 C 179.391 856.302, 173.607 839.637, 181.280 817 C 182.678 812.875, 183.698 809.374, 183.547 809.220 C 181.707 807.340, 163.929 806.544, 161.884 808.250 M 151.662 809.478 C 142.272 813.429, 131.386 835.783, 125.893 862.396 C 121.144 885.403, 126.819 918.287, 137.153 927.639 C 140.116 930.320, 140.069 929.004, 136.876 919.983 C 129.296 898.563, 129.192 872.919, 136.582 847.339 C 139.785 836.251, 147.602 818.675, 151.741 813.252 C 155.608 808.186, 155.600 807.821, 151.662 809.478 M 191.207 811.432 C 181.580 820.130, 180.631 841.368, 189.412 851.626 C 193.833 856.791, 206.813 863.903, 208.103 861.867 C 209.436 859.763, 209.400 859.708, 202.738 853.824 C 193.466 845.632, 190.550 839.703, 190.531 829 C 190.518 821.338, 190.837 819.884, 193.773 814.250 C 197.447 807.197, 196.746 806.428, 191.207 811.432 M 203.984 810.868 C 196.429 814.919, 193.299 829.106, 197.744 839.155 C 201.683 848.060, 207.928 853.300, 216.514 854.904 C 221.612 855.856, 221.685 855.780, 219.128 852.154 C 212.145 842.252, 208.203 827.299, 209.810 816.810 C 211.137 808.153, 210.417 807.419, 203.984 810.868 M 414 816.669 C 408.170 817.629, 399.337 817.972, 385.876 817.760 L 366.253 817.451 365.574 826.476 C 364.493 840.851, 358.708 855.967, 348.365 871.440 L 345.063 876.379 351.782 881.316 C 365.637 891.496, 379.530 896.314, 389 894.223 C 395.024 892.893, 411.731 868.737, 418.457 851.632 C 421.742 843.279, 425.979 825.068, 425.991 819.250 C 426.001 814.384, 426.816 814.559, 414 816.669 M 170.544 865.344 C 167.203 867.787, 169.318 871.364, 177.752 877.533 C 182.013 880.650, 187.126 884.032, 189.112 885.050 L 192.724 886.900 193.862 884.403 C 195.842 880.059, 195.157 878.468, 188.601 872.172 C 180.252 864.155, 174.925 862.141, 170.544 865.344 M 335.621 880.988 C 330.222 894.483, 333.388 905.414, 344.405 911.309 C 348.134 913.304, 350.131 913.520, 366.750 913.727 L 385 913.955 385 910.945 C 385 909.290, 385.652 906.375, 386.449 904.468 L 387.898 901 381.124 901 C 367.124 901, 349.645 892.617, 340.994 881.754 L 337.214 877.008 335.621 880.988 M 316.639 910.064 C 308.174 917.969, 308.206 917.838, 312.199 928.707 C 318.525 945.927, 351.795 985.099, 368.494 994.989 C 382.631 1003.361, 399.429 1005.724, 405.026 1000.128 C 409.038 996.116, 409.644 992.684, 407.670 985.159 C 406.125 979.267, 398.685 962, 397.692 962 C 397.451 962, 395.060 962.977, 392.377 964.172 C 384.750 967.569, 369.384 966.578, 365.974 962.469 C 363.891 959.958, 365.610 959.548, 376.915 959.856 C 382.861 960.018, 389.587 959.650, 391.863 959.037 L 396.001 957.923 393.974 953.949 C 392.141 950.356, 391.686 950.048, 389.223 950.738 C 387.726 951.157, 381.444 951.445, 375.265 951.378 C 358.669 951.197, 355.351 949.182, 357.219 940.421 C 358.031 936.615, 357.871 935.962, 355.559 933.650 C 352.815 930.906, 352.104 925.542, 354.013 921.976 C 354.904 920.311, 354.514 919.952, 350.763 918.986 C 342.527 916.864, 340.121 915.871, 336.014 912.895 C 333.734 911.244, 330.954 908.342, 329.836 906.446 C 326.965 901.581, 325.206 902.062, 316.639 910.064 M 358.046 922.669 C 355.594 925.786, 355.746 926.721, 359.117 929.238 C 361.246 930.827, 362.255 930.949, 366.054 930.073 C 368.499 929.510, 374.233 929.038, 378.795 929.024 L 387.091 929 386.414 925.250 C 386.042 923.188, 385.545 921.163, 385.310 920.750 C 385.074 920.337, 379.316 920, 372.514 920 C 360.303 920, 360.118 920.034, 358.046 922.669 M 304.566 926.312 C 301.759 939.496, 314.314 962.543, 336.841 985.557 C 354.897 1004.003, 368.682 1011.752, 385.215 1012.748 C 394.598 1013.314, 407.251 1010.393, 408.401 1007.396 C 409.122 1005.520, 408.023 1005.635, 402.859 1007.978 C 394.411 1011.812, 383.622 1010.005, 368.500 1002.226 C 362.726 999.255, 358.434 995.550, 343.992 981.062 C 319.031 956.024, 307.298 939.527, 305.950 927.574 L 305.378 922.500 304.566 926.312 M 362.811 936.250 C 360.636 937.981, 359.784 942.362, 361.272 944.168 C 362.295 945.410, 364.754 945.562, 376 945.079 L 389.500 944.500 389.148 940.500 C 388.954 938.300, 388.590 936.163, 388.339 935.750 C 387.530 934.423, 364.542 934.873, 362.811 936.250" stroke="none" fill="#1a1a1a" fill-rule="evenodd"/>
</svg>