<svg xmlns="http://www.w3.org/2000/svg" width="1024" height="1024" viewBox="0 0 1024 1024" version="1.1">
	<path d="M 588.500 70.170 C 550.496 72.292, 513.576 84.670, 476.801 107.619 C 448.094 125.534, 433.603 128.865, 419.089 120.886 C 412.151 117.072, 410.722 117.346, 407.683 123.075 C 402.390 133.052, 409.853 152.313, 421.267 158.136 C 425.094 160.089, 425.157 160.202, 423.185 161.583 C 422.064 162.368, 419.130 166.046, 416.666 169.755 C 402.733 190.727, 404.120 220.652, 419.509 231.132 C 422.627 233.255, 422.987 233.974, 422.993 238.090 C 423.012 251.075, 431.978 271.664, 442.550 283 C 445.692 286.369, 445.860 286.977, 447.038 299.214 C 447.716 306.257, 447.970 315.623, 447.607 320.214 C 444.473 359.925, 446.158 373.044, 457.094 394.064 C 473.653 425.893, 524.133 450.466, 574 450.974 L 578.500 451.020 573.500 453.363 C 564.729 457.474, 551.617 469.369, 541.596 482.308 C 534.907 490.943, 513.896 523.739, 513.076 526.824 C 512.209 530.088, 508 531.271, 508 528.251 C 508 527.213, 507.306 524.025, 506.457 521.167 C 503.362 510.744, 495.177 505.253, 484.217 506.247 L 478.446 506.770 470.539 493.135 C 383.155 342.451, 316.322 252.955, 217.624 154.454 C 169.543 106.469, 152.482 91, 147.641 91 C 139.441 91, 136.565 98.138, 142 105 L 145 108.788 145 454.777 C 145 796.955, 144.979 800.772, 143.050 801.277 C 138.587 802.444, 135.694 811.436, 137.908 817.259 C 138.625 819.143, 138.235 820.585, 136.069 824.074 C 130.690 832.735, 128.724 839.657, 128.705 850 C 128.680 863.308, 132.804 870.992, 141.696 874.207 C 144.985 875.397, 145 875.431, 145 882.078 C 145 889.100, 146.306 891.587, 149.373 890.410 C 150.669 889.913, 151 888.308, 151 882.518 C 151 875.321, 151.028 875.244, 153.860 874.678 C 169.220 871.606, 171.933 844.283, 158.905 823.876 C 156.405 819.959, 156.110 818.841, 156.977 816.561 C 159.210 810.687, 157.620 804.205, 153.390 801.941 L 151 800.662 150.987 729.081 C 150.980 689.711, 150.706 534.875, 150.380 385 L 149.786 112.500 164.463 127 C 206.170 168.202, 240.116 207.887, 285.501 268.500 C 347.344 351.093, 391.675 421.203, 435.992 506.500 C 440.564 515.300, 444.719 523.035, 445.224 523.688 C 445.850 524.499, 444.886 526.012, 442.191 528.447 C 435.395 534.586, 434.809 543.963, 440.844 549.998 C 443.086 552.240, 443.500 553.526, 443.500 558.254 C 443.500 564.716, 445.721 568.600, 450.789 571 C 453.447 572.258, 453.961 573.064, 453.982 576 C 454.052 585.678, 465.705 592.085, 476.820 588.557 C 478.592 587.995, 478.659 588.237, 477.712 591.785 C 476.364 596.836, 477.328 600.244, 481.389 604.775 C 484 607.688, 484.831 609.615, 485.204 613.618 L 485.681 618.735 480.411 620.396 C 459.659 626.938, 444.716 648.087, 442.510 674.041 L 441.869 681.582 431.184 683.361 C 421.768 684.929, 401.500 689.192, 396.818 690.589 C 395.651 690.938, 396.578 688.693, 399.852 683.247 C 404.796 675.020, 408 666.669, 408 662.008 C 408 650.446, 388.952 660.451, 373.745 680 C 370.318 684.405, 370.318 684.400, 374.378 672.446 C 382.741 647.826, 390.805 630.747, 403.393 611 C 410.737 599.478, 411.840 596.717, 409.989 594.487 C 404.624 588.022, 382.472 604.330, 367.183 626 C 361.911 633.473, 350.764 655.022, 349.466 660.250 C 348.202 665.342, 347.381 663.054, 348.210 656.750 C 349.044 650.406, 356.005 579.469, 356.002 577.339 C 356.001 576.701, 357.913 575.242, 360.250 574.098 C 367.697 570.453, 371.230 561.895, 374.536 539.500 C 378.303 513.974, 376.738 500.529, 369.413 495.500 C 366.603 493.570, 366.518 493.278, 367.003 487.184 C 367.551 480.291, 366.840 478, 364.150 478 C 361.355 478, 360.001 480.097, 359.986 484.450 C 359.965 490.775, 359.151 492.364, 354.921 494.336 C 345.650 498.659, 339.687 519.069, 338.366 551 C 337.766 565.492, 338.802 568.761, 345.331 572.970 C 348.963 575.312, 349.131 575.648, 348.579 579.470 C 346.133 596.389, 340.079 661.228, 337.932 693.500 C 337.274 703.400, 336.344 711.928, 335.867 712.450 C 335.324 713.045, 335 713.014, 335 712.368 C 335 711.800, 333.887 702.367, 332.526 691.405 C 331.165 680.444, 328.233 654.381, 326.009 633.488 C 320.233 579.208, 318.169 560.071, 316.686 547.029 L 315.381 535.557 319.082 532.029 C 326.146 525.293, 327.739 510.237, 324.476 481.033 C 321.290 452.513, 317.002 442.011, 306.351 436.641 C 303.475 435.191, 303.141 434.511, 302.487 428.777 C 301.593 420.937, 300.515 418.786, 297.682 419.189 C 295.646 419.479, 295.500 420.038, 295.500 427.520 L 295.500 435.539 291.310 439.332 C 282.318 447.471, 281.133 464.906, 287.117 500.976 C 290.555 521.694, 295.142 531.206, 303.329 534.592 L 307.730 536.413 308.905 547.956 C 310.536 563.992, 314.825 604.976, 316.444 620 C 317.185 626.875, 317.678 632.622, 317.540 632.772 C 317.402 632.922, 315.876 629.097, 314.148 624.272 C 303.573 594.748, 283.955 564.171, 266.663 550.260 C 258.174 543.431, 253.544 541.171, 251.132 542.681 C 247.888 544.710, 248.802 548.283, 255.560 560 C 269.241 583.721, 280.760 608.725, 287.920 630.247 C 291.503 641.016, 299.011 668.322, 298.524 668.809 C 298.354 668.979, 296.769 666.593, 295.003 663.505 C 280.412 638.004, 246.511 608.300, 238.157 613.698 C 234.231 616.235, 236.172 621.079, 246.954 635.654 C 259.206 652.215, 269.498 669.279, 276.008 683.825 C 280.797 694.525, 294 729.907, 294 732.041 C 294 732.666, 291.013 730.440, 287.362 727.095 C 279.047 719.475, 270.962 715.278, 267.160 716.607 C 262.678 718.174, 263.383 726.994, 268.709 736 C 268.872 736.275, 266.126 736.351, 262.609 736.169 C 251.196 735.579, 246.385 740.415, 252.174 746.657 C 253.667 748.267, 263.502 753.798, 269.733 756.531 C 269.862 756.587, 265.107 761.553, 259.166 767.567 C 253.226 773.580, 245.921 781.287, 242.933 784.693 L 237.500 790.886 225 792 C 202.699 793.987, 190 796.495, 190 798.913 C 190 801.262, 192.836 801.979, 198.105 800.960 C 204.043 799.812, 230.611 796, 232.674 796 C 233.595 796, 233.397 796.941, 231.989 799.250 C 227.421 806.742, 231.656 815.406, 242.500 820.752 C 255.605 827.214, 288.013 833.783, 322.500 836.968 C 329.100 837.577, 336.300 838.261, 338.500 838.487 C 340.700 838.713, 343.947 838.921, 345.716 838.949 L 348.933 839 347.063 842.250 C 340.767 853.196, 345.530 862.217, 361.503 869.597 C 386.846 881.306, 451.915 891.740, 543 898.699 C 572.381 900.944, 667.090 901.052, 687.750 898.864 C 700.409 897.523, 701 897.542, 701 899.280 C 701 912.315, 726.916 921.036, 774.418 923.987 C 803.457 925.790, 855.087 922.235, 863.243 917.870 C 865.810 916.496, 865.226 912.430, 862.500 912.691 C 861.400 912.797, 853.525 913.670, 845 914.633 C 825.230 916.866, 772.408 917.189, 758 915.166 C 721.880 910.093, 708 905.170, 708 897.434 C 708 889.550, 738.099 844.749, 748.717 836.830 C 749.697 836.099, 751.118 834.712, 751.872 833.750 C 753.104 832.180, 752.977 832, 750.648 832 C 748.724 832, 745.414 834.529, 737.885 841.750 C 724.112 854.961, 719.347 861.341, 704.405 886.584 C 700.416 893.322, 603.641 894.621, 527 888.964 C 445.286 882.933, 376.301 870.744, 358.220 859.141 C 351.863 855.062, 350.193 851.503, 352.428 846.794 C 354.845 841.699, 368.669 826.430, 378.379 818.131 C 386.899 810.848, 387.637 809.970, 386.335 808.668 C 384.827 807.160, 369.366 817.727, 359.793 826.808 L 354.086 832.222 336.793 830.554 C 271.466 824.252, 238 815.762, 238 805.489 C 238 802.460, 242.731 796.182, 256.466 780.990 C 301.053 731.668, 366.999 698.676, 440.947 688.695 C 441.985 688.555, 442.485 689.772, 442.717 693 C 443.372 702.108, 446.227 721.926, 449.111 737.380 C 451.897 752.308, 451.974 753.372, 450.392 755.120 C 447.556 758.253, 447.572 772.074, 450.423 781.500 C 450.940 783.210, 449.829 784.065, 442.768 787.392 C 428.456 794.137, 416.588 808.384, 414.302 821.565 C 410.520 843.379, 423.798 852.547, 459 852.428 C 479.160 852.360, 503.053 848.253, 519.362 842.052 L 521.917 841.081 521.339 847.290 C 520.064 860.983, 529.148 868.443, 551.415 871.990 C 580.689 876.652, 634.603 863.482, 647.851 848.432 C 655.735 839.475, 656.522 816.076, 649.309 805.067 C 647.959 803.007, 647.924 802.526, 649.097 802.140 C 653.152 800.806, 656.813 795.345, 657.608 789.447 C 659.051 778.740, 658.640 772.320, 656.348 769.781 C 654.350 767.567, 654.330 767.190, 655.660 757 C 656.414 751.225, 657.288 743.004, 657.602 738.731 L 658.174 730.962 664.837 731.731 C 678.724 733.334, 699.642 732.476, 715 729.674 C 722.975 728.219, 732.200 726.574, 735.500 726.017 C 743.067 724.741, 770.026 722, 775.007 722 C 779.507 722, 781.816 719.922, 779.475 717.979 C 777.894 716.667, 756.903 717.067, 745.686 718.622 L 740.872 719.289 747.493 712.931 C 755.196 705.534, 761.025 694.879, 763.731 683.249 C 765.036 677.638, 765.766 676.101, 766.959 676.453 C 767.806 676.703, 773.675 677.875, 780 679.058 C 786.325 680.240, 792.210 681.836, 793.079 682.604 C 796.822 685.914, 797.878 684.463, 797.339 676.750 C 796.259 661.319, 808.443 631.069, 821.078 617.810 L 826.138 612.500 825.539 617 C 825.209 619.475, 822.904 630.142, 820.417 640.705 C 814.815 664.491, 811.048 683.960, 811.712 685.691 C 812.750 688.397, 814.972 686.806, 818.612 680.750 C 826.019 668.428, 834.002 657.112, 839.403 651.278 C 844.994 645.239, 852.616 639.283, 853.553 640.220 C 854.458 641.125, 849.979 651.955, 840.874 670.872 C 829.835 693.809, 830.098 695.495, 843.079 684.999 C 855.583 674.887, 869 669.152, 869 673.919 C 869 676.784, 859.368 686.775, 853.309 690.195 C 845.471 694.618, 846.318 699.700, 854.446 697.018 C 857.583 695.983, 859.208 696.251, 869.056 699.430 C 881.092 703.315, 904.133 712.525, 912.970 716.983 C 923.969 722.532, 931.143 723.142, 929.312 718.372 C 928.070 715.133, 897.861 701.608, 875.801 694.414 L 864.102 690.599 868.611 685.778 C 883.328 670.044, 874.614 659.893, 854.830 669.725 C 850.524 671.865, 847 673.541, 847 673.448 C 847 673.355, 849.182 668.603, 851.849 662.889 C 858.225 649.230, 860.188 643.048, 859.810 637.810 C 859.520 633.776, 859.296 633.480, 856.324 633.192 C 849.701 632.550, 838.276 641.439, 828.025 655.208 C 824.711 659.660, 822 663.098, 822 662.849 C 822 662.599, 823.980 654.056, 826.401 643.863 C 834.348 610.394, 834.565 605, 827.962 605 C 815.925 605, 792 648.721, 792 670.716 C 792 674.276, 791.691 675.096, 790.521 674.646 C 789.707 674.334, 783.857 673.068, 777.521 671.833 L 766 669.588 766 664.361 C 766 659.965, 766.327 659.031, 768.057 658.482 C 772.847 656.962, 772.830 651.220, 767.915 611.500 C 760.915 554.929, 743.828 498.570, 725.245 470.752 C 714.744 455.033, 692.240 438.572, 675.966 434.706 C 669.301 433.123, 669.817 431.665, 678.709 426.952 C 693.519 419.101, 708.016 407.254, 716.625 395.965 L 720.326 391.111 722.794 393.052 C 730.428 399.058, 748.116 398.504, 761.304 391.846 C 782.838 380.976, 796.660 349.491, 789.772 327 L 788.394 322.500 793.572 314.500 C 814.148 282.707, 819.971 236.996, 808.950 193.798 C 798.191 151.629, 769.334 119.885, 741.773 119.901 C 734.230 119.905, 731 121.139, 731 124.016 C 731 126.212, 732.413 126.648, 741.792 127.348 C 765.900 129.148, 790.604 157.671, 800.422 195.042 C 810.815 234.608, 806.759 274.485, 789.214 305.201 L 783.673 314.902 778.263 309.958 C 771.856 304.102, 764.348 301.406, 757.179 302.389 C 752.439 303.039, 742.663 307.090, 739.982 309.516 C 738.561 310.802, 738.450 310.031, 738.824 301.469 C 739.361 289.200, 738.009 289.289, 734.579 301.750 C 732.282 310.096, 726.359 322, 724.504 322 C 724.243 322, 722.729 319.413, 721.140 316.250 C 716.367 306.752, 715.810 301.974, 716.566 277 C 717.211 255.681, 717.127 254.014, 714.966 245.250 C 713.711 240.163, 712.365 236, 711.974 236 C 710.674 236, 710.129 244.273, 710.628 256.456 L 711.121 268.500 704.745 261.834 C 689.111 245.491, 682.155 217.546, 687.551 192.751 C 691.545 174.396, 690.885 174.077, 677.236 187.760 C 666.118 198.905, 656.531 205.796, 646.477 209.869 C 634.042 214.906, 639.571 219.751, 652.314 214.984 C 658.625 212.622, 667.341 207.091, 674.056 201.185 L 678.500 197.277 678.556 209.888 C 678.598 219.461, 679.138 224.548, 680.798 231 C 685.147 247.900, 696.872 267.042, 706.055 272.233 C 709.151 273.983, 709.945 274.956, 709.540 276.500 C 706.472 288.200, 708.406 307.008, 713.866 318.552 C 716.475 324.068, 722.717 331, 725.077 331 C 725.631 331, 729.927 327.640, 734.625 323.533 C 749.528 310.504, 759.491 307.582, 769.338 313.352 C 793.035 327.240, 784.478 371.325, 755.401 385.148 C 742.574 391.246, 730.499 390.042, 722.945 381.913 C 718.353 376.972, 716 376.683, 716 381.060 C 716 385.916, 698.730 404.312, 686.500 412.483 C 675.527 419.814, 654.264 430.298, 644 433.438 C 598.175 447.455, 546.031 445.174, 508.336 427.504 C 466.133 407.721, 449.465 376.878, 455.320 329.404 C 456.794 317.453, 456.729 314.376, 454.475 289.500 C 452.626 269.096, 451.990 235.486, 453.307 227.780 L 454.114 223.060 457.160 226.530 C 462.222 232.295, 464.461 231.623, 478.913 220.003 C 491.177 210.143, 508.914 197.581, 509.602 198.269 C 509.797 198.464, 509.534 201.217, 509.018 204.387 C 507.443 214.068, 510.081 223.367, 515.177 226.095 C 520.279 228.825, 540.319 225.373, 557.236 218.849 L 565.049 215.836 568.433 218.807 C 576.708 226.073, 590.865 226.871, 608.182 221.048 C 630.116 213.673, 652 195.833, 652 185.329 C 652 180.871, 651.806 180.954, 643.618 188.949 C 621.822 210.230, 592.860 221.729, 577.020 215.391 C 572.035 213.397, 572.045 212.965, 577.131 210.617 C 582.713 208.041, 593.525 197.749, 598.173 190.588 C 602.916 183.278, 602.463 182.593, 596.290 187.744 C 576.522 204.240, 541.682 219, 522.512 219 C 518.394 219, 518.090 218.802, 516.963 215.389 C 514.853 208.995, 518.380 194.919, 524.114 186.846 C 526.205 183.902, 526.537 181.450, 524.974 180.484 C 523.042 179.290, 488.531 202.275, 471.215 216.290 C 463.076 222.877, 461.933 222.846, 459.876 215.981 C 457.490 208.015, 462.453 194.826, 472.785 181.679 C 477.415 175.787, 479.976 171, 478.498 171 C 476.808 171, 468.763 177.489, 463.782 182.869 C 458.128 188.976, 452.018 199.608, 451.978 203.410 C 451.966 204.559, 451.105 207.374, 450.065 209.664 C 445.644 219.402, 444.495 228.224, 444.583 251.770 C 444.677 276.971, 445 276.507, 437.517 261.913 C 430.173 247.591, 428.143 226.052, 432.814 212 C 435.507 203.898, 435.515 203.224, 432.894 205.595 C 430.028 208.187, 426.970 214.306, 424.991 221.410 L 423.345 227.319 420.692 223.841 C 412.187 212.690, 412.409 191.632, 421.195 176.190 C 424.678 170.067, 432.635 161.751, 437.295 159.362 C 442.303 156.794, 449.197 151.864, 448.606 151.273 C 448.312 150.979, 444.007 151.527, 439.040 152.492 C 431.588 153.940, 429.486 154.030, 427.015 153.006 C 422.465 151.122, 417.302 144.756, 415.556 138.878 C 413.918 133.362, 413.480 127.566, 414.750 128.219 C 433.750 138, 450.995 134.395, 482.500 114.058 C 520.778 89.348, 565.998 76.644, 609.500 78.378 C 652.301 80.083, 673.634 87.496, 701.231 110.253 C 710.454 117.859, 712.969 112.964, 704.435 104.017 C 680.585 79.013, 640.375 67.274, 588.500 70.170 M 695.643 74.488 C 695.238 75.544, 696.635 76.715, 700.465 78.527 C 704.683 80.522, 706.681 82.318, 709.640 86.777 C 713.579 92.712, 719.976 109.592, 719.991 114.095 C 719.999 116.483, 722.631 120, 724.410 120 C 724.825 120, 727.065 118.442, 729.389 116.537 C 737.805 109.641, 747.693 107.254, 755.937 110.128 C 760.946 111.874, 763.273 109.182, 759.777 105.686 C 753.437 99.346, 735.250 100.969, 729.061 108.427 C 727.090 110.801, 726 110.327, 726 107.096 C 726 97.731, 716.788 80.724, 709.061 75.824 C 704.008 72.619, 696.642 71.886, 695.643 74.488 M 146.173 99.659 C 146.368 100.672, 147.196 101.500, 148.014 101.500 C 150.157 101.500, 149.848 98.594, 147.659 98.173 C 146.323 97.916, 145.916 98.323, 146.173 99.659 M 153.444 106.091 C 153.058 106.715, 163.453 117.974, 177.678 132.341 C 191.377 146.179, 207.260 162.584, 212.974 168.797 L 223.361 180.094 225.930 177.476 L 228.500 174.857 207.953 154.679 C 181.785 128.980, 156.247 105, 155.048 105 C 154.536 105, 153.815 105.491, 153.444 106.091 M 229.752 181.890 C 228.241 182.776, 227.116 183.811, 227.252 184.190 C 227.388 184.570, 233.709 192.346, 241.298 201.471 C 255.314 218.323, 274.286 242.183, 288.433 260.750 C 292.728 266.387, 296.545 271, 296.913 271 C 297.282 271, 299.445 269.087, 301.721 266.750 L 305.857 262.500 290.679 244.406 C 274.017 224.545, 244.985 192.143, 237.351 184.890 C 232.557 180.335, 232.468 180.300, 229.752 181.890 M 480.500 246.866 C 473.654 249.984, 465.820 260.482, 467.355 264.482 C 468.370 267.127, 470.561 266.139, 473.858 261.549 C 478.676 254.839, 482.254 252.726, 489.911 252.067 C 495.777 251.562, 496.535 251.253, 496.819 249.252 C 497.430 244.954, 487.791 243.545, 480.500 246.866 M 622.096 248.306 C 618.202 249.672, 616.394 251.977, 617.321 254.394 C 617.862 255.803, 618.927 255.961, 624.230 255.421 C 634.547 254.369, 638.270 255.937, 647.204 265.099 C 651.441 269.445, 655.330 273, 655.847 273 C 660.019 273, 654.962 261.949, 647.873 255.576 C 639.794 248.312, 629.976 245.543, 622.096 248.306 M 305.628 272.870 L 300.948 277.621 308.875 288.150 C 326.530 311.600, 365.554 368.463, 379.459 391 C 387.741 404.424, 386.787 403.837, 393.423 399.592 C 396.529 397.605, 399.321 395.327, 399.627 394.530 C 400.866 391.301, 348.833 317.160, 315.956 275.309 L 310.308 268.119 305.628 272.870 M 487.751 302.981 C 481.799 307.663, 479.687 322.547, 483.825 330.657 C 493.258 349.147, 510.890 333.153, 504.891 311.547 C 502.439 302.712, 493.666 298.328, 487.751 302.981 M 622.050 305.813 C 612.694 310.886, 611.236 329.806, 619.525 338.595 C 627.749 347.315, 638.956 338.609, 638.956 323.500 C 638.956 310.209, 630.418 301.276, 622.050 305.813 M 751.259 330.101 C 746.227 332.591, 737.525 341.772, 736.563 345.604 C 735.587 349.493, 737.641 351.250, 741.778 350.064 C 747.267 348.489, 749.817 354.090, 746.993 361.519 C 745.017 366.716, 748.881 367.064, 751.537 361.928 C 755.076 355.084, 751.991 344, 746.545 344 C 743.808 344, 744.884 342.255, 749.887 338.583 C 756.185 333.959, 760.397 333.005, 761.923 335.856 C 763.442 338.694, 766 337.498, 766 333.950 C 766 328.179, 758.892 326.323, 751.259 330.101 M 535.216 335.988 C 524.211 340.983, 524.656 360.799, 535.872 365.128 C 539.614 366.572, 541.662 364.335, 539.100 361.600 C 534.563 356.756, 533.534 347.466, 537.135 343.865 C 539.063 341.937, 539.986 341.790, 546.635 342.352 C 554.750 343.038, 555.928 342.104, 551.750 338.299 C 546.475 333.495, 542.067 332.879, 535.216 335.988 M 600.053 379.436 C 599.130 380.549, 599.135 381.384, 600.076 383.143 C 602.481 387.635, 587.062 398.213, 574.201 400.895 C 561.375 403.570, 551.056 400.776, 541.740 392.106 C 535.315 386.125, 533 385.437, 533 389.507 C 533 393.965, 539.618 400.545, 548.688 405.103 C 564.338 412.969, 589.638 407.795, 602.208 394.158 C 604.551 391.617, 607.099 389.529, 607.872 389.519 C 611.661 389.468, 611.506 386.102, 607.525 382.026 C 603.284 377.683, 601.905 377.205, 600.053 379.436 M 403.450 401.934 C 402.928 402.447, 399.954 404.395, 396.843 406.262 L 391.186 409.657 400.004 424.730 C 408.490 439.237, 419.858 459.378, 427.247 473 C 437.455 491.817, 445.185 506.398, 448.985 514 C 451.321 518.675, 453.293 522.572, 453.366 522.659 C 453.440 522.747, 456.388 522.297, 459.918 521.659 C 465.753 520.605, 466.423 520.228, 467.298 517.500 C 467.828 515.850, 468.913 513.750, 469.710 512.833 C 470.886 511.481, 470.930 510.726, 469.945 508.833 C 466.763 502.720, 432.447 444.662, 423.644 430.500 C 418.175 421.700, 411.855 411.478, 409.600 407.785 C 405.295 400.735, 404.977 400.433, 403.450 401.934 M 648.500 440.634 C 637.825 444.286, 618.893 448.422, 607.632 449.563 L 600.764 450.258 601.386 454.798 C 603.293 468.715, 613.881 474.094, 629.685 469.175 C 644.395 464.597, 661.614 448.873, 660.808 440.755 C 660.401 436.661, 660.122 436.658, 648.500 440.634 M 668.587 441.746 C 668.264 442.069, 668 443.231, 668 444.329 C 668 447.588, 662.218 455.623, 655.332 461.933 C 639.912 476.063, 618.592 482.011, 606.249 475.629 C 599.909 472.350, 594 461.800, 594 453.760 C 594 450.922, 593.821 450.786, 590.875 451.375 C 589.156 451.719, 587.301 452, 586.753 452 C 586.132 452, 585.923 455.301, 586.201 460.750 C 587.221 480.813, 599.834 491.068, 621.864 489.747 C 638.028 488.777, 649.978 482.467, 665.133 466.897 C 675.460 456.287, 676.112 455.794, 675.254 459.250 C 672.508 470.305, 652.497 487.969, 636.950 493.060 C 624.875 497.014, 608.786 496.648, 599.780 492.213 C 587.679 486.255, 581.649 476.478, 581.608 462.750 C 581.597 459.038, 581.424 456, 581.224 456 C 579.810 456, 570.190 463.628, 563.652 469.932 C 553.430 479.790, 548.746 485.762, 534.195 507.488 L 522.148 525.477 528.462 527.523 C 539.708 531.167, 550.140 539.475, 559.735 552.430 L 564.230 558.500 563.534 554 C 560.841 536.593, 563.061 497.047, 567.198 488.750 C 569.230 484.675, 571.102 486.765, 570.333 492.250 C 568.425 505.866, 569.836 553.827, 572.608 569.541 L 573.144 572.583 581.822 571.803 C 594.747 570.641, 615.716 568.058, 622.273 566.820 C 630.724 565.225, 634.144 560.801, 632.918 553.047 L 632.058 547.604 647.634 520.217 C 656.201 505.154, 664.559 491.294, 666.209 489.415 C 669.395 485.786, 672 484.964, 672 487.588 C 672 489.499, 661.796 509.076, 650.407 529.018 C 639.525 548.070, 639.888 546.590, 645.923 547.304 C 662.741 549.296, 690.704 568.769, 699.722 584.769 L 702.692 590.038 706.833 581.125 C 713.674 566.401, 721.685 545.158, 724.603 534 C 728.546 518.922, 731 516.810, 731 528.494 C 731 540.499, 727.449 552.491, 715.497 580.848 C 707.328 600.232, 705.288 602.257, 692.811 603.381 C 689.538 603.676, 687.693 604.916, 681.210 611.174 C 672.213 619.858, 668.283 622.918, 660.895 626.990 C 657.354 628.942, 656.209 629.970, 657.562 629.982 C 663.923 630.038, 686.380 637.330, 701.072 644.111 C 718.761 652.275, 737.170 655.500, 755.119 653.578 C 764.992 652.520, 764.549 653.603, 762.578 635.352 C 757.045 584.125, 750.129 551.075, 737.500 515.500 C 724.050 477.616, 710.524 459.863, 685.500 447.249 C 678.812 443.878, 669.489 440.845, 668.587 441.746 M 296.750 444.080 C 290.896 447.490, 289.465 464.522, 292.891 490 C 297.021 520.717, 302.274 531.409, 311.690 528.270 C 317.319 526.394, 318.507 522.299, 318.440 505 C 318.274 461.987, 309.296 436.773, 296.750 444.080 M 356.751 501.981 C 351.878 505.815, 348.258 520.054, 345.892 544.703 C 344.307 561.207, 344.972 564.684, 350.248 567.500 C 354.718 569.886, 358.148 568.622, 361.149 563.485 C 368.088 551.604, 371.747 506.446, 366.139 501.910 C 363.112 499.461, 359.925 499.485, 356.751 501.981 M 479.326 515.553 C 473.210 518.233, 472.893 531.496, 478.783 538.250 C 482.563 542.582, 485 539.927, 485 531.477 C 485 525.929, 485.755 524.585, 488.318 525.569 C 490.157 526.274, 491.694 529.910, 492.938 536.500 C 493.457 539.250, 496.384 546.276, 499.442 552.113 L 505.002 562.727 509.671 560.363 C 515.708 557.307, 522.452 557.319, 531.187 560.403 C 537.452 562.614, 550.352 570.310, 552.861 573.332 C 553.944 574.637, 562.135 574.198, 563.575 572.758 C 564.667 571.666, 557.977 560.090, 551.859 552.485 C 542.844 541.279, 533.536 535.142, 523 533.460 L 518.500 532.742 523.776 537.487 C 529.697 542.813, 534.513 550.220, 533.601 552.598 C 533.137 553.806, 531.586 552.738, 526.927 548.007 C 521.245 542.236, 511.710 536.443, 509.818 537.612 C 509.368 537.890, 509 539.014, 509 540.109 C 509 543.279, 506.113 548, 504.174 548 C 501.131 548, 500.233 546.192, 501.052 541.716 C 501.977 536.659, 500.547 527.026, 498.027 521.327 C 495.027 514.547, 487.166 512.119, 479.326 515.553 M 454.021 530.957 C 445.290 533.970, 441.900 540.923, 447.404 544.529 C 449.616 545.979, 450.651 545.927, 460.406 543.880 C 470.841 541.691, 470.983 541.623, 469.596 539.506 C 468.821 538.323, 467.624 535.475, 466.935 533.178 C 465.451 528.223, 463.108 527.820, 454.021 530.957 M 474 547.891 C 473.175 548.351, 468.225 549.743, 463 550.985 C 452.948 553.375, 451 554.698, 451 559.134 C 451 564.557, 456.771 566.236, 466.500 563.644 C 477.111 560.816, 481.741 556.651, 480.509 551.041 C 480.142 549.368, 479.464 548, 479.002 548 C 478.541 548, 477.564 547.787, 476.832 547.527 C 476.099 547.267, 474.825 547.430, 474 547.891 M 488.542 553.750 C 488.565 556.362, 489.386 560.006, 490.367 561.846 C 492.300 565.472, 492.987 573.163, 491.695 576.711 L 490.890 578.922 495.921 576.711 C 498.689 575.495, 500.963 574.156, 500.976 573.735 C 501.001 572.933, 489.164 549, 488.742 549 C 488.609 549, 488.519 551.138, 488.542 553.750 M 262.602 559.619 C 286.480 600.007, 304.639 652.934, 315.996 715.250 C 316.673 718.962, 317.391 722, 317.591 722 C 317.792 722, 320.441 720.781, 323.478 719.292 C 329.927 716.129, 329.707 717.396, 327.001 699 C 318.944 644.238, 300.949 598.236, 275.737 567.948 C 270.742 561.948, 260.110 552, 258.691 552 C 258.365 552, 260.125 555.429, 262.602 559.619 M 640.065 562.451 C 637.626 566.616, 634.905 570.681, 634.018 571.483 C 630.290 574.857, 599.987 579.069, 561.920 581.505 L 553.339 582.054 545.420 576.869 C 528.943 566.083, 516.990 563.153, 511.570 568.573 C 509.334 570.809, 509.627 571.794, 512.372 571.269 C 515.108 570.746, 521.656 573.777, 520.365 574.968 C 519.889 575.408, 515.259 577.427, 510.075 579.455 C 487.534 588.277, 481.471 593.471, 487.120 599.120 C 489.544 601.544, 493.624 601.353, 502.786 598.385 C 508.635 596.491, 510.686 597.262, 509.525 600.920 C 508.694 603.540, 500.170 607.990, 494.318 608.859 L 489.999 609.500 491.749 612.989 C 494.109 617.693, 497.489 618.759, 504.774 617.096 C 514.912 614.781, 516.181 614.674, 517.041 616.066 C 519.086 619.375, 511.215 625, 504.540 625 C 500.431 625, 500.316 625.365, 503.026 629.810 C 505.961 634.625, 510.910 636.379, 519.500 635.650 C 529.589 634.793, 548.907 627.920, 554.147 623.322 C 555.584 622.061, 556.731 622.069, 563.147 623.385 C 582.306 627.317, 618.662 629.255, 632.668 627.091 C 656.466 623.414, 672.934 612.462, 688.553 589.924 L 691.190 586.119 687.845 581.940 C 680.122 572.293, 657.173 557.213, 647.500 555.430 C 644.648 554.905, 644.280 555.252, 640.065 562.451 M 479.500 566.103 C 475.156 569.085, 467.189 572, 463.385 572 C 459.497 572, 461.220 579.287, 465.372 580.402 C 474.607 582.880, 485.104 577.043, 484.930 569.527 C 484.792 563.590, 483.942 563.054, 479.500 566.103 M 399 602.059 C 397.625 603.154, 394.122 605.952, 391.217 608.275 C 376.035 620.415, 360.950 644.663, 352.379 670.705 C 348.643 682.056, 342.508 707.841, 343.344 708.677 C 343.497 708.830, 347.195 707.411, 351.561 705.523 L 359.500 702.091 361.320 694.296 C 367.894 666.127, 380.193 636.490, 395.575 611.750 C 402.997 599.813, 403.459 598.505, 399 602.059 M 250.470 629.750 C 266.860 651.705, 279.262 674.001, 289.265 699.500 C 294.409 712.613, 299.473 727.315, 300.187 731.210 C 300.450 732.647, 301.501 732.283, 306.750 728.936 C 310.188 726.745, 313 724.780, 313 724.571 C 313 722.543, 302.751 693.191, 299.256 685.209 C 288.140 659.825, 270.461 637.514, 251.825 625.355 C 248.154 622.960, 244.877 621, 244.544 621 C 244.211 621, 246.877 624.938, 250.470 629.750 M 484.781 626.399 C 476.281 629.895, 469.542 634.572, 463.923 640.874 C 448.621 658.034, 446.964 679.064, 456.624 733.500 C 457.990 741.200, 459.368 748.963, 459.685 750.750 C 460.329 754.379, 463.774 755.857, 476.932 758.149 C 485.522 759.644, 510.002 758.577, 520.500 756.249 L 528.500 754.474 528.414 740.987 C 528.260 717.048, 525.932 704.729, 518.884 690.568 C 513.071 678.887, 520.411 680.671, 527.127 692.572 L 530.096 697.832 539.798 699.510 C 545.134 700.433, 551.050 701.584, 552.944 702.067 C 554.838 702.550, 556.469 702.845, 556.568 702.723 C 556.667 702.600, 557.059 697.624, 557.439 691.664 C 557.818 685.704, 558.287 680.304, 558.481 679.664 C 558.675 679.024, 559.124 677.185, 559.479 675.577 L 560.125 672.655 555.952 676.424 C 551.024 680.877, 546.383 683, 541.579 683 C 534.507 683, 533.556 681.893, 523.505 661.958 L 514.082 643.269 509.427 642.745 C 502.280 641.939, 495 635.111, 495 629.212 C 495 627.094, 492.664 624.082, 491 624.056 C 490.725 624.051, 487.927 625.106, 484.781 626.399 M 681 624.525 C 681 625.937, 714.764 635, 720.028 635 C 722.852 635, 724.210 632.866, 722.183 631.613 C 717.169 628.514, 681 622.289, 681 624.525 M 553.500 633.526 C 551.300 634.881, 549.183 636.104, 548.795 636.245 C 548.407 636.385, 551.246 642.705, 555.103 650.290 L 562.116 664.079 566.880 656.781 C 572.508 648.160, 579.025 642.143, 587.111 638.102 L 592.981 635.169 585.241 634.518 C 580.983 634.160, 573.562 633.222, 568.750 632.434 C 557.743 630.630, 558.262 630.593, 553.500 633.526 M 628.037 635.263 C 592.903 637.602, 572.906 651.593, 566.954 678 C 564.668 688.145, 565.042 746.311, 567.505 763.661 C 568.172 768.361, 569.476 769.139, 582.500 772.609 C 597.238 776.536, 642.006 773.845, 645.095 768.846 C 649.404 761.874, 651.104 714.469, 647.563 700 C 644.806 688.731, 644.488 685.672, 646.126 686.159 C 649.421 687.139, 654.550 700.806, 656.575 714 C 657.603 720.702, 659.023 716.093, 659.731 703.750 C 660.288 694.045, 661.048 692.448, 663.800 695.200 C 665.355 696.755, 665.257 706.476, 663.592 715.780 C 662.875 719.784, 662.604 723.255, 662.989 723.493 C 664.984 724.726, 688.654 725.126, 698.204 724.088 C 736.808 719.895, 755.550 702.858, 757.707 670 L 758.265 661.500 748.530 661.850 C 738.136 662.224, 725.441 660.773, 718.893 658.462 L 714.887 657.049 719.307 662.274 C 730.104 675.038, 727.762 680.487, 716.679 668.391 C 695.363 645.128, 662.778 632.950, 628.037 635.263 M 538 639.902 C 537.175 640.364, 534.025 641.286, 531 641.949 C 527.975 642.613, 525.022 643.299, 524.437 643.475 C 523.852 643.650, 526.778 650.703, 530.939 659.147 C 538.431 674.351, 538.538 674.503, 542.036 674.798 C 545.965 675.128, 554 670.229, 554 667.503 C 554 665.826, 540.818 638.983, 540.017 639.030 C 539.733 639.047, 538.825 639.439, 538 639.902 M 396 666.675 C 386.052 674.216, 363.854 700.751, 369.126 698.801 C 369.882 698.521, 373.622 697.262, 377.438 696.002 C 386.842 692.898, 394.452 683.842, 400.060 669.084 C 402.315 663.151, 401.381 662.597, 396 666.675 M 533.435 707.903 C 535.252 716.863, 536.133 725.180, 536.568 737.490 C 537.015 750.110, 537.251 751.549, 538.979 752.188 C 541.627 753.167, 542.832 758.656, 542.956 770.297 C 543.058 779.805, 542.977 780.177, 540.199 782.954 L 537.338 785.816 539.585 789.539 C 541.938 793.437, 544.304 804.045, 543.366 806.489 C 543.036 807.348, 545.724 806.413, 550.160 804.126 C 554.197 802.044, 558.543 800.074, 559.818 799.746 C 562.079 799.166, 562.043 799.066, 558.358 795.689 L 554.580 792.227 554.180 782.276 C 553.753 771.639, 555.303 766, 558.655 766 C 560.015 766, 560.161 765.127, 559.616 760.250 C 558.264 748.155, 557.044 729.109, 557.023 719.750 C 557.010 714.388, 556.888 709.989, 556.750 709.975 C 556.612 709.961, 551.192 708.905, 544.704 707.628 L 532.908 705.306 533.435 707.903 M 270.561 725.250 C 272.473 731.433, 279.387 741, 281.944 741 C 283.251 741, 283.348 744.667, 282.062 745.462 C 281.546 745.781, 277.843 745.132, 273.832 744.021 C 266.309 741.936, 257 741.315, 257 742.899 C 257 743.393, 260.938 745.820, 265.750 748.291 L 274.500 752.785 282.719 746.143 C 287.239 742.489, 291.064 739.211, 291.219 738.857 C 291.595 737.997, 277.721 726.424, 274.022 724.511 C 270.145 722.507, 269.739 722.593, 270.561 725.250 M 367.351 736.529 C 366.681 738.273, 369.621 758.316, 371.059 761.806 C 373.583 767.936, 375.457 758.479, 373.928 747.323 C 372.562 737.350, 369.171 731.785, 367.351 736.529 M 387.125 749.216 C 382.122 754.354, 378.741 760.915, 379.180 764.634 C 379.696 769.008, 381.383 768.390, 384.282 762.762 C 385.773 759.868, 388.584 755.293, 390.528 752.595 C 396.142 744.805, 393.741 742.421, 387.125 749.216 M 345.476 753.039 C 345.122 753.611, 347.608 756.873, 351 760.289 C 354.391 763.705, 357.815 767.737, 358.609 769.250 C 360.480 772.817, 363 772.871, 363 769.344 C 363 762.870, 348.016 748.929, 345.476 753.039 M 846.594 762.332 C 838.947 770.440, 832.466 793.153, 836.303 798.399 C 838.264 801.082, 839.610 798.803, 841.517 789.573 C 843.646 779.265, 849.124 765.791, 850.589 767.256 C 850.765 767.431, 850.030 774.308, 848.958 782.537 C 846.593 800.683, 846.511 804, 848.427 804 C 849.213 804, 854.915 798.945, 861.100 792.767 C 873.971 779.909, 876.832 780.479, 868.326 794.207 C 865.841 798.217, 866.133 801, 869.039 801 C 871.319 801, 874.643 796.407, 877.646 789.108 C 880.515 782.132, 880.589 778.843, 877.929 776.435 C 874.871 773.668, 867 778.059, 858.291 787.393 C 854.643 791.302, 851.991 793.600, 852.398 792.500 C 855.831 783.213, 857.766 765.749, 855.777 762 C 853.731 758.146, 850.429 758.265, 846.594 762.332 M 456.100 765.846 C 456.256 774.716, 456.928 775.983, 463.361 779.545 C 471.742 784.186, 479.148 785.516, 496 785.404 C 511.831 785.299, 521.533 783.691, 529.616 779.832 L 534.500 777.500 534.789 768.750 C 534.948 763.938, 534.906 760, 534.695 760 C 534.485 760, 531.738 760.886, 528.591 761.969 C 509.779 768.441, 477.777 768.467, 460.819 762.023 L 456 760.192 456.100 765.846 M 562 780.935 C 562 787.797, 562.300 789.202, 564.130 790.907 C 567.740 794.270, 578.991 798.218, 587.500 799.108 C 616.216 802.110, 629.105 801.135, 644.085 794.827 L 648.670 792.896 649.902 784.848 C 650.579 780.422, 650.908 776.575, 650.632 776.298 C 650.356 776.022, 647.963 776.496, 645.315 777.352 C 620.166 785.480, 583.638 784.128, 564.750 774.369 L 562 772.949 562 780.935 M 294.661 783.299 C 290.100 787.547, 285.344 796.129, 286.507 798.012 C 287.844 800.174, 289.879 798.736, 293.280 793.225 C 295.240 790.050, 297.779 786.605, 298.922 785.571 C 301.058 783.637, 301.678 780.537, 300.122 779.575 C 299.638 779.277, 297.181 780.952, 294.661 783.299 M 313.413 784.457 C 307.883 789.986, 302.002 800.444, 302.001 804.750 C 301.999 809.294, 304.977 806.743, 309.448 798.370 C 310.955 795.549, 314.628 790.036, 317.612 786.120 C 324.546 777.018, 321.900 775.970, 313.413 784.457 M 814.004 780.495 C 812.493 782.315, 813.361 783.684, 821.927 792.998 C 826.702 798.189, 828.155 799.245, 829.152 798.248 C 830.863 796.537, 827.366 789.437, 821.877 783.483 C 817.461 778.692, 815.970 778.126, 814.004 780.495 M 454.501 789.683 C 448.818 791.651, 447.868 793, 452.166 793 C 459.979 793, 476 803.739, 476 808.976 C 476 812.600, 473.790 812.219, 469.154 807.794 C 461.483 800.472, 453.470 797, 444.244 797 C 437.082 797, 424.999 809.700, 422.186 820.184 C 420.650 825.908, 425.675 828.820, 440.940 831.052 C 472.035 835.598, 518.573 826.477, 532.989 813.010 C 536.575 809.660, 537.155 801.747, 534.406 793.679 C 532.371 787.706, 532.654 787.810, 524.533 790.062 C 515.893 792.458, 498.110 794.367, 489.529 793.821 L 483.015 793.406 485.507 796.008 C 488.034 798.645, 488.798 802.389, 487.033 803.480 C 486.500 803.809, 484.427 802.265, 482.425 800.049 C 475.563 792.453, 461.538 787.247, 454.501 789.683 M 695.298 801.799 C 690.180 806.918, 683.585 818.614, 684.156 821.558 C 684.812 824.944, 686.861 824.092, 689.567 819.308 C 691.062 816.664, 694.472 811.099, 697.143 806.942 C 704.308 795.792, 703.514 793.580, 695.298 801.799 M 560 806.841 L 553.500 809.474 560.228 810.152 C 574.432 811.584, 589 819.641, 589 826.065 C 589 829.813, 586.047 829.462, 581.676 825.194 C 574.501 818.190, 560.897 814.033, 549.718 815.430 C 544.562 816.074, 543.667 816.576, 539.577 821.126 C 534.249 827.052, 530.412 834.717, 529.532 841.194 L 528.894 845.887 535.697 848 C 566.877 857.683, 624.104 848.224, 642.874 830.285 L 647.284 826.071 646.609 820.285 C 645.568 811.365, 642.948 803.885, 641.065 804.462 C 629.455 808.015, 609.765 809.778, 599.085 808.221 C 593.535 807.412, 592.929 807.471, 594.585 808.662 C 599.044 811.866, 601.874 815.164, 601.346 816.540 C 600.507 818.727, 599.542 818.406, 592.235 813.504 C 579.839 805.188, 569.406 803.032, 560 806.841 M 706.424 810.534 C 700.923 816.168, 699.245 819.610, 700.467 822.748 C 701.041 824.224, 701.648 823.869, 704.312 820.500 C 706.052 818.300, 709.912 813.913, 712.890 810.750 L 718.304 805 715.066 805 C 712.455 805, 710.779 806.073, 706.424 810.534 M 145.046 808.445 C 142.966 810.950, 144.163 814.461, 147.215 814.813 C 149.417 815.067, 150.052 814.642, 150.573 812.565 C 151.805 807.656, 148.034 804.845, 145.046 808.445 M 142.186 827.750 C 137.285 835.453, 135.748 841.633, 136.149 852.035 C 136.499 861.119, 136.515 861.169, 140.235 864.578 C 146.699 870.500, 156.410 868.348, 159.029 860.413 C 161.622 852.554, 158.415 836.432, 152.331 826.750 C 148.949 821.368, 146.066 821.652, 142.186 827.750 M 524 826.016 C 520.593 828.255, 499.978 834.224, 488.650 836.251 C 466.468 840.222, 437.542 839.162, 425.340 833.931 C 420.089 831.681, 419.262 833.485, 423.671 837.571 C 429.290 842.779, 438.432 844.514, 459.500 844.372 C 481.171 844.226, 492.077 842.584, 511.342 836.570 C 522.623 833.049, 523.058 832.807, 525.017 828.967 C 527.051 824.980, 526.779 824.190, 524 826.016 M 213.390 834.177 C 211.482 837.265, 225.284 844.356, 242.166 848.960 C 264.497 855.051, 311 859.135, 311 855.006 C 311 853.870, 308.826 853.304, 301.500 852.531 C 263.656 848.540, 227.968 840.796, 218.336 834.484 C 215.601 832.693, 214.356 832.615, 213.390 834.177 M 644 837.876 C 644 839.263, 631.342 845.509, 621.612 848.923 C 592.540 859.123, 551.174 861.004, 532.448 852.978 L 527.869 851.015 528.184 853.731 C 528.877 859.696, 546.480 865, 565.580 865 C 598.621 865, 642.051 851.209, 645.096 839.750 C 645.502 838.224, 645.421 837, 644.914 837 C 644.411 837, 644 837.394, 644 837.876 M 764.956 867.703 C 760.779 872.461, 755.873 882.950, 755.253 888.450 C 754.497 895.159, 756.627 895.097, 759.609 888.323 C 761.019 885.120, 763.934 878.884, 766.086 874.465 C 771.574 863.198, 771.148 860.650, 764.956 867.703 M 781.456 875.250 C 774.930 882.495, 771.136 891.730, 773.968 893.480 C 775.004 894.121, 787.380 876.012, 788.478 872.250 C 789.627 868.314, 786.501 869.649, 781.456 875.250 M 76 876.886 C 61.678 881.516, 54.264 888.700, 55.756 896.504 C 57.568 905.984, 81.775 919, 97.594 919 C 103.873 919, 102.506 917.898, 92 914.494 C 56.992 903.148, 51.955 890.905, 78.034 880.545 C 90.552 875.572, 88.954 872.698, 76 876.886 M 319.667 875.667 C 319.300 876.033, 319 877.362, 319 878.619 C 319 886.523, 344.485 898.649, 377.659 906.528 C 395.089 910.668, 400.611 911.655, 433.500 916.505 C 467.997 921.592, 527 923.826, 527 920.045 C 527 918.525, 522.511 917.970, 502 916.955 C 455.848 914.673, 405.415 907.883, 371.770 899.422 C 347.737 893.379, 327.364 884.427, 323.767 878.329 C 321.800 874.995, 320.913 874.420, 319.667 875.667 M 204 877.792 C 204 878.377, 206.588 879.798, 209.750 880.948 C 212.912 882.098, 217.399 883.738, 219.721 884.591 C 228.174 887.699, 232.435 894.122, 229.978 900.054 C 223.995 914.498, 188.259 925.982, 149.250 925.998 C 142.762 926, 140.975 927.396, 145.750 928.731 C 151.108 930.229, 179.997 929.477, 188.796 927.610 C 227.606 919.374, 247.213 898.584, 229.229 884.734 C 223.673 880.456, 204 875.043, 204 877.792 M 109.368 882.078 C 102.287 884.801, 99 888.044, 99 892.306 C 99 909.725, 160.707 918.012, 188.817 904.368 C 199.431 899.216, 199.431 890.793, 188.817 885.622 C 179.183 880.928, 171.635 881.222, 180.866 885.932 C 185.897 888.498, 191 892.821, 191 894.516 C 191 898.781, 178.069 903.520, 161.744 905.240 C 141.576 907.364, 116.271 903.247, 107.250 896.374 C 101.484 891.981, 103.139 889.078, 114.296 884.020 C 117.983 882.348, 121 880.760, 121 880.490 C 121 879.321, 114.079 880.266, 109.368 882.078 M 132 891.515 C 132 898.037, 156.094 901.015, 167.354 895.885 C 172.135 893.706, 170.176 893.272, 155.750 893.314 C 144.741 893.346, 140.505 892.974, 137.124 891.678 C 131.818 889.643, 132 889.649, 132 891.515 M 658 926.260 C 652.362 927.170, 606.613 927.450, 581.587 926.728 C 575.998 926.567, 573.551 926.865, 573.256 927.744 C 571.371 933.346, 628.901 935.898, 658.867 931.542 C 670.189 929.896, 670.240 929.898, 671.702 931.985 C 677.659 940.490, 693.802 946.680, 720.231 950.594 C 734.643 952.728, 758.042 953.015, 763.399 951.123 C 769.229 949.065, 766.454 948.348, 750 947.664 C 708.845 945.952, 673.348 936.042, 675.236 926.791 C 675.581 925.104, 666.830 924.835, 658 926.260" stroke="none" fill="#1a1a1a" fill-rule="evenodd"/>
</svg>