<svg xmlns="http://www.w3.org/2000/svg" width="1024" height="1024" viewBox="0 0 1024 1024" version="1.1">
	<path d="M 807.390 62.128 C 783.300 64.806, 765.424 78.543, 758.507 99.690 L 756.837 104.794 745.169 105.152 C 730.780 105.592, 721.573 109.292, 712.661 118.215 C 704.231 126.657, 701.500 133.332, 701.500 145.500 C 701.500 161.551, 707.349 169.618, 725.529 178.644 C 738.426 185.046, 739.446 185.108, 825.500 184.783 L 900.500 184.500 905.664 181.777 C 913.467 177.662, 922.348 168.942, 924.989 162.804 C 931.444 147.798, 921.701 125.402, 905.190 117.294 C 899.497 114.498, 890.206 113.851, 875.012 115.192 L 871.525 115.500 870.725 109.107 C 866.807 77.804, 840.684 58.427, 807.390 62.128 M 801.645 70.584 C 782.533 75.211, 767.273 89.963, 763.976 107 C 763.390 110.025, 762.517 113.455, 762.036 114.622 L 761.160 116.744 755.330 114.765 C 741.572 110.096, 728.810 113.035, 718.693 123.203 C 701.562 140.421, 705.977 161.950, 728.963 173.278 L 735.500 176.500 819 176.500 C 912.512 176.500, 905.071 177.091, 912.302 169.087 C 922.126 158.214, 921.249 142.195, 910.198 130.630 C 900.209 120.178, 883.312 119.065, 870 127.983 L 865.500 130.998 864.756 123.249 C 862.585 100.646, 859.602 92.468, 850.025 82.875 C 838.346 71.175, 819.246 66.323, 801.645 70.584 M 444 76.092 C 422.585 78.853, 396.149 86.633, 381 94.632 C 374.217 98.214, 360.740 106.844, 348.469 115.465 C 346.293 116.993, 345.606 115.398, 345.399 108.340 C 344.872 90.316, 329.216 90.874, 320.036 109.243 C 318.366 112.585, 316.993 116.260, 316.985 117.410 C 316.950 122.089, 315.670 122.597, 308.639 120.723 C 281.304 113.439, 270.527 136.516, 293.901 152.280 L 296.302 153.900 288.679 162.003 C 263.310 188.971, 252.094 220.771, 253.270 262.397 C 253.987 287.748, 256.825 299.374, 267.604 321.102 L 271.872 329.704 268.054 335.913 C 262.167 345.486, 260.710 351.297, 261.159 363.424 C 261.627 376.077, 265.792 385.610, 276.435 398.394 L 283.007 406.289 274.523 415.090 C 255.775 434.538, 242.574 459.598, 219.785 519 C 205.345 556.639, 205.223 556.830, 190.876 564.049 C 156.821 581.185, 126.235 611.021, 111.477 641.500 C 101.969 661.135, 97.856 677.597, 95.911 703.793 C 94.649 720.801, 95.179 719.373, 87.692 725.921 L 81.884 731 56.164 731 C 29.482 731, 26 731.513, 26 735.440 C 26 737.656, 29.542 737.972, 54.550 737.986 C 81.668 738.002, 80.990 737.811, 81.020 745.450 C 81.076 759.759, 84.706 771.348, 91.482 778.848 C 96.765 784.696, 100.347 786.609, 111.586 789.586 C 123.865 792.838, 123.621 792.626, 124.488 800.778 C 126.838 822.880, 136.311 844.710, 152.185 864.605 C 162.076 877.001, 176.424 886.550, 189.924 889.720 C 198.827 891.810, 226.915 892.080, 238.500 890.187 C 268.440 885.294, 288.908 870.055, 302.887 842.250 C 306.532 834.998, 305.325 835.285, 318.319 838.588 C 323.918 840.012, 345.375 844.939, 366 849.538 C 386.625 854.136, 411.375 859.674, 421 861.844 C 430.625 864.014, 440.075 866.068, 442 866.409 C 447.497 867.383, 447.973 868.088, 450.066 878.332 C 457.710 915.751, 481.700 947.473, 510.124 957.748 C 556.912 974.660, 618.650 954.388, 637.271 916 C 644.015 902.097, 641.896 903.042, 664.860 903.703 C 675.662 904.014, 693.637 903.742, 704.805 903.098 L 725.109 901.929 732.581 906.926 C 764.803 928.477, 801.172 930.651, 831.464 912.836 C 841.667 906.835, 854.408 893.575, 859.726 883.422 C 864.821 873.694, 865.592 872.966, 874.500 869.467 C 889.361 863.630, 902.380 855.959, 911.796 847.494 L 916.766 843.025 926.633 846.573 C 956.192 857.200, 962.654 859.748, 974.952 865.628 C 988.892 872.293, 991 872.695, 991 868.686 C 991 863.909, 983.180 859.889, 948.001 846.579 C 933.978 841.274, 921.924 836.353, 921.215 835.644 C 920.184 834.612, 920.158 832.874, 921.087 826.928 C 923.406 812.086, 920.713 794.308, 915.276 788.571 C 909.271 782.235, 909.014 781.404, 909.007 768.349 C 908.985 729.069, 893.107 695.609, 858.708 662.359 C 830.523 635.115, 802.756 618.905, 759.536 604.466 C 750.468 601.437, 743.015 598.373, 742.285 597.375 C 740.439 594.850, 740.570 586, 742.455 586 C 743.255 586, 753.042 587.148, 764.205 588.552 C 838.651 597.911, 926.566 618.196, 976.849 637.617 C 988.812 642.237, 990.925 642.646, 994.094 640.950 C 996.751 639.528, 995.849 638.455, 989.177 635.102 C 949.698 615.260, 837.833 589.449, 757 581.531 C 738.363 579.706, 739.472 580.600, 735.040 563.821 C 733.251 557.044, 729.360 543.807, 726.393 534.404 C 719.783 513.452, 719.766 513.080, 725.242 509.053 C 733.315 503.116, 745 501.497, 757.876 504.533 C 765.610 506.356, 765.779 506.248, 770.434 496.569 C 784.562 467.196, 824.444 461.130, 852.766 484.047 C 864.290 493.371, 869.732 504.707, 872.430 525 C 874.146 537.909, 875.587 544, 876.928 544 C 877.352 544, 879.958 541.404, 882.718 538.231 C 895.702 523.303, 915.002 521.907, 928.048 534.952 C 933.992 540.897, 936.593 547.753, 937.961 561.089 C 938.540 566.731, 939.222 571.555, 939.477 571.810 C 939.731 572.064, 942.264 571.272, 945.106 570.050 C 964.275 561.804, 985.607 572.655, 989.883 592.827 C 991.964 602.644, 995.225 605.250, 996.381 598.020 C 998.326 585.856, 988.809 570.537, 974.883 563.416 C 970.266 561.055, 967.863 560.576, 958 560.053 C 944.237 559.323, 944.437 559.425, 943.704 552.779 C 941.229 530.348, 926.518 517.960, 903.821 519.194 C 895.616 519.641, 890.450 521.305, 883.790 525.647 C 880.204 527.986, 880.044 527.715, 878.365 516.433 C 875.797 499.171, 872.250 492.140, 860.626 481.266 C 853.475 474.577, 844.580 469.160, 835.400 465.902 C 827.857 463.225, 808.765 462.161, 800.884 463.977 C 785.451 467.535, 770.497 478.745, 765.350 490.614 L 762.500 497.186 758.500 496.568 C 741.238 493.897, 733.374 494.980, 722.530 501.519 C 716.975 504.869, 716.471 504.997, 715.280 503.368 C 714.576 502.406, 714 501.272, 714 500.850 C 714 499.002, 696.374 462.702, 688.952 449.267 C 677.832 429.134, 667.319 414.341, 655.955 402.837 L 646.411 393.175 647.676 383.837 C 648.372 378.702, 649.215 359.875, 649.549 342 C 650.222 306.029, 649.582 309.543, 657.963 295.812 C 672.381 272.192, 676.152 239.125, 667.740 210.074 L 665.590 202.649 668.511 200.574 C 675.840 195.370, 682.418 188.221, 685.142 182.500 C 689.741 172.840, 688.694 169.963, 679.205 166.183 C 666.557 161.144, 651.924 151.063, 639 138.484 C 621.756 121.701, 598.966 105.339, 580.462 96.457 C 560.306 86.781, 530.135 78.820, 503 76.016 C 491.724 74.851, 453.240 74.900, 444 76.092 M 448.107 85.143 C 413.835 88.726, 382.729 101.100, 353.064 122.953 C 342.100 131.029, 337.445 133.813, 336.526 132.841 C 336.349 132.654, 336.698 128.539, 337.303 123.699 C 338.983 110.256, 335.472 102.548, 329.947 107.548 C 327.271 109.970, 324.060 119.096, 323.328 126.359 C 322.987 129.737, 322.326 133.537, 321.858 134.805 L 321.008 137.109 312.524 132.484 C 298.267 124.713, 290 125.214, 290 133.849 C 290 139.301, 292.250 141.678, 301.854 146.370 C 312.192 151.420, 312.669 152.614, 306.203 157.259 C 297.490 163.518, 284.322 179.674, 276.256 194 C 257.615 227.111, 256.179 274.281, 272.652 312.405 C 277.589 323.831, 278.080 324.116, 286.012 320.152 C 300.876 312.724, 319.313 318.857, 330.455 334.935 C 335.519 342.243, 337.018 340.919, 340.002 326.500 C 341.026 321.550, 344.368 309.635, 347.429 300.022 C 354.841 276.745, 355.397 273.459, 355.429 252.721 C 355.459 233.501, 356.183 231.406, 360.152 239.058 C 363.248 245.029, 364.054 252.427, 363.087 266 C 362.597 272.875, 362.395 278.705, 362.637 278.956 C 363.648 280, 370.501 275.237, 374.686 270.581 C 390.048 253.495, 395.657 219.407, 388.012 189.591 C 386.897 185.242, 386.144 181.523, 386.339 181.327 C 387.196 180.471, 392.377 185.665, 396.024 191.036 C 410.528 212.393, 443.465 231.878, 465.508 232.141 C 473.112 232.232, 473.738 231.281, 469.597 225.934 C 462.402 216.644, 454.863 202.170, 455.192 198.281 C 455.688 192.437, 457.350 193.365, 464.024 203.212 C 478.526 224.608, 487.130 231.395, 507.693 237.658 C 515.428 240.014, 518.264 240.350, 531 240.420 C 547.994 240.514, 554 239.259, 554 235.616 C 554 232.550, 552.218 231.146, 541.125 225.467 C 530.779 220.171, 522.572 213.002, 519.129 206.252 C 515.084 198.325, 516.250 198.526, 529.500 208.040 C 542.821 217.605, 550.558 220.758, 567.500 223.529 C 600.384 228.907, 639.118 224.112, 638.965 214.682 C 638.907 211.131, 637.318 209.134, 619.250 189.915 C 604.614 174.346, 600.302 169, 602.378 169 C 604.647 169, 611.733 173.485, 620.641 180.559 C 634.447 191.523, 638.414 193.826, 645.872 195.213 C 657.095 197.300, 668.245 192.798, 675.553 183.227 C 680.008 177.392, 679.901 176.315, 674.641 174.060 C 657.768 166.828, 650.062 161.403, 630.859 143.241 C 602.447 116.368, 576.968 101.689, 542.722 92.462 C 515.605 85.155, 476.747 82.149, 448.107 85.143 M 645.811 204.523 C 645.523 204.810, 645.743 207.034, 646.299 209.464 C 647.195 213.379, 646.951 214.868, 644.155 222.543 C 640.277 233.188, 640.134 238.886, 643.405 252.500 C 646.419 265.049, 648.679 276.810, 649.507 284.264 C 650.301 291.414, 651.217 290.976, 655.683 281.310 C 664.748 261.690, 666.626 232.111, 660.002 213.266 C 657.338 205.686, 655.611 204, 650.512 204 C 648.214 204, 646.098 204.235, 645.811 204.523 M 399.064 220.750 C 399.103 248.793, 386.784 274.235, 367.641 285.649 C 358.766 290.941, 357.251 292.598, 356.018 298.371 C 353.975 307.928, 344.921 337.219, 342.056 343.536 C 339.183 349.873, 335.452 353.516, 332.891 352.486 C 332.126 352.178, 329.475 348.735, 327 344.835 C 319.160 332.479, 309.744 326.655, 297.500 326.587 C 286.278 326.525, 280.161 330.781, 274.057 342.899 C 264.143 362.580, 270.723 387.745, 288.849 399.471 C 305.316 410.123, 320.956 410.906, 332.261 401.643 C 337.355 397.468, 337.770 397.657, 340.322 405.323 C 344.066 416.567, 360.148 433.636, 378.662 446.015 C 411.464 467.950, 444.815 476.896, 494.589 477.113 C 564.017 477.416, 621.982 446.089, 635.864 400.762 C 640.697 384.981, 641.461 374.719, 641.467 325.500 C 641.473 276.551, 641.006 269.702, 636.454 252.089 C 635.117 246.913, 633.726 239.784, 633.364 236.247 C 632.609 228.882, 633.803 229.210, 620 232.582 C 612.679 234.370, 604.501 234.536, 568.164 233.633 L 562.827 233.500 561.461 237.500 C 556.065 253.300, 517.974 254.626, 489.040 240.020 L 482.590 236.764 477.457 238.382 C 458.943 244.218, 427.140 233.628, 406.485 214.750 C 403.024 211.588, 399.936 209, 399.621 209 C 399.306 209, 399.056 214.287, 399.064 220.750 M 590 258.969 C 584.138 259.780, 581.167 261.486, 580.418 264.472 C 579.388 268.575, 580.460 269.017, 589.839 268.351 C 599.817 267.643, 600.935 268.026, 610.466 275.429 C 616.967 280.480, 619.718 280.971, 619.146 276.981 C 617.480 265.367, 603.994 257.033, 590 258.969 M 440.994 267.934 C 432.191 270.612, 418.016 284.371, 418.004 290.250 C 417.997 293.236, 420.447 292.224, 428.618 285.869 C 439.599 277.328, 442.810 276.017, 451.051 276.707 C 458.348 277.319, 459.619 276.602, 458.580 272.461 C 457.444 267.936, 448.531 265.642, 440.994 267.934 M 582.201 314.049 C 578.821 315.406, 574.810 324.912, 574.244 332.906 C 573.614 341.810, 575.320 347.555, 579.978 352.214 C 587.096 359.331, 595.084 356.524, 600.915 344.854 C 609.357 327.959, 597.241 308.014, 582.201 314.049 M 439.510 321.171 C 430.005 328.647, 429.179 350.848, 438.058 360.181 C 450.720 373.492, 468.735 345.176, 458.378 328.243 C 453.490 320.253, 444.812 317, 439.510 321.171 M 292.306 347.502 C 289.569 349.943, 289.548 350.041, 291.441 351.502 C 292.509 352.326, 295.221 353, 297.469 353 C 306.038 353, 310.020 360.236, 305.944 368.398 C 303.723 372.844, 303.699 373.146, 305.302 376.508 C 307.407 380.922, 309.184 380.934, 311.275 376.549 C 313.388 372.118, 317.196 369.581, 320.493 370.409 C 324.672 371.458, 323.606 367.526, 318.129 361.690 C 315.451 358.836, 312.542 355.091, 311.665 353.369 C 307.482 345.150, 298.124 342.314, 292.306 347.502 M 525.251 352.973 C 521.287 354.772, 517.852 359.185, 519.293 360.626 C 519.632 360.966, 522.782 360.702, 526.292 360.039 C 538.059 357.819, 546 362.389, 546 371.381 C 546 376.683, 541.722 383.773, 536.621 386.925 C 531.689 389.973, 531.938 391.423, 537.250 390.584 C 547.229 389.007, 554 380.060, 554 368.452 C 554 354.559, 539.251 346.618, 525.251 352.973 M 477.655 402.829 C 474.238 406.604, 475.491 409.986, 482.970 417.174 C 496.789 430.456, 514.325 436.027, 528.215 431.549 C 539.270 427.985, 551.567 417.873, 554.070 410.288 C 555.784 405.096, 554.911 405.321, 545.659 412.463 C 532.728 422.444, 527.925 424.325, 516.658 423.820 C 504.442 423.272, 497.833 419.863, 487.570 408.815 C 479.431 400.055, 479.906 400.342, 477.655 402.829 M 642.245 407.250 C 641.695 407.938, 640.906 409.625, 640.491 411 C 640.077 412.375, 638.222 416.526, 636.369 420.225 C 632.127 428.692, 632.150 429.139, 636.994 432.496 C 646.127 438.825, 654.093 449.986, 665.546 472.500 C 679.911 500.739, 698.263 554.206, 704.068 584.732 C 705.829 593.990, 705.865 594.015, 720.523 596.118 C 727.590 597.131, 733.478 597.855, 733.607 597.726 C 734.757 596.576, 724.070 554.175, 717.797 535 C 698.018 474.544, 651.430 395.769, 642.245 407.250 M 288.217 413.014 C 270.859 423.571, 249.268 462.356, 227.452 522.175 C 215.848 553.992, 211.215 561.990, 201.084 567.690 C 177.077 581.197, 163.660 590.709, 149.185 604.486 C 120.162 632.108, 104.808 668.228, 104.545 709.500 C 104.492 717.750, 104.131 725.007, 103.742 725.627 C 103.353 726.247, 100.591 727.745, 97.605 728.957 C 90.609 731.797, 89.486 734.310, 89.541 747 C 89.630 767.309, 96.549 777.332, 113 780.984 C 123.400 783.293, 123.306 783.391, 124.676 768.872 C 132.426 686.716, 196.905 657.064, 241.311 715.235 C 254.931 733.077, 261.661 750.961, 265.495 779.500 C 268.952 805.232, 274.578 816.602, 286.262 821.470 C 295.963 825.511, 443.847 858.831, 446.047 857.471 C 446.401 857.252, 446.963 851.769, 447.295 845.286 C 447.980 831.921, 450.857 815.765, 454.594 804.292 C 461.892 781.890, 478.700 760.256, 495.356 751.827 C 527.793 735.413, 562.762 750.488, 587.484 791.544 C 593.597 801.695, 602.777 831.643, 605.524 850.397 C 608.103 868.005, 608.718 870.566, 611.819 876.645 C 619.224 891.160, 626.694 893.694, 665 894.681 C 716.118 895.999, 779.571 888.339, 828.500 874.944 C 877.991 861.396, 903.168 849.391, 909.943 836.112 C 914.324 827.525, 915.233 807.280, 911.625 798.646 C 909.770 794.205, 908.407 794.118, 902.556 798.067 C 863.325 824.544, 732.719 850.558, 661.691 846.043 C 631.224 844.107, 621.889 842.081, 626.500 838.406 C 628.222 837.034, 630.169 836.930, 640.500 837.656 C 661.453 839.130, 711.732 838.516, 728 836.589 C 763.097 832.430, 792.822 827.007, 827.942 818.357 C 852.360 812.342, 869.405 806.389, 886.870 797.775 L 901.239 790.688 900.746 769.594 C 900.118 742.746, 897.496 731.864, 886.274 709.538 C 871.787 680.716, 837.518 649.151, 800 630.073 C 770.186 614.911, 729.714 603.109, 707.262 603.029 C 691.591 602.974, 655.375 608.383, 631.359 614.366 C 625.937 615.717, 619.475 617.128, 617 617.502 C 614.525 617.876, 604.850 619.686, 595.500 621.523 C 561.068 628.291, 543.363 631.119, 529.600 632.051 C 486.321 634.979, 487.436 634.763, 483.511 640.985 C 480.089 646.410, 468.069 685.146, 465.972 697.509 C 463.652 711.180, 445.959 782.009, 442.509 791.437 C 437.231 805.860, 428.294 816.742, 417.712 821.631 C 411.879 824.325, 410.738 824.495, 399 824.421 C 385.793 824.338, 352.658 819.318, 333.452 814.492 C 290.611 803.725, 277.722 772.542, 277.864 680 C 277.890 662.675, 278.422 638.663, 279.045 626.639 C 279.693 614.141, 279.803 604.403, 279.303 603.903 C 278.821 603.421, 269.934 599.159, 259.553 594.432 C 249.172 589.704, 239.514 585.117, 238.090 584.238 C 234.153 581.809, 229.016 576.782, 229.564 575.896 C 230.342 574.638, 248.079 581.860, 269.997 592.358 C 275.220 594.859, 279.789 596.590, 280.150 596.203 C 280.511 595.816, 281.772 585.375, 282.951 573 C 287.554 524.693, 293.118 480.930, 299.087 446.070 C 303.861 418.190, 303.855 416.141, 299 413.845 C 293.064 411.038, 291.646 410.929, 288.217 413.014 M 320.464 414.989 C 313.304 416.042, 311.173 416.865, 310.596 418.801 C 309.470 422.583, 305.784 447.714, 303.457 467.487 C 302.096 479.044, 299.655 498.625, 298.031 511 C 288.510 583.571, 282.885 678.794, 285.921 716 C 291.482 784.153, 303.301 801.531, 349.500 809.484 C 354.450 810.336, 365.475 812.411, 374 814.095 C 412.751 821.751, 427.085 814.929, 437.414 783.914 C 441.575 771.421, 447.759 747.055, 451.986 726.500 C 455.470 709.555, 460.384 691.986, 469.187 665 C 480.174 631.317, 480.151 634, 469.464 634 C 448.271 634, 318.867 615.568, 310.810 611.402 C 302.771 607.245, 302.863 601.284, 312.103 527.059 C 317.146 486.549, 320.706 468.460, 325.496 459.008 C 329.452 451.202, 341.345 440.962, 348.206 439.455 C 352.659 438.477, 352.434 437.395, 346.287 430.253 C 343.085 426.534, 339.404 421.772, 338.106 419.672 C 334.646 414.074, 331.814 413.322, 320.464 414.989 M 620 442.230 C 600.784 461.074, 566.281 477.539, 534.357 483.098 C 530.861 483.707, 528 484.659, 528 485.212 C 528 485.766, 530.178 488.603, 532.840 491.516 C 538.603 497.821, 543.336 504.815, 551.047 518.423 C 554.188 523.965, 557.470 528.642, 558.340 528.816 C 559.211 528.990, 563.985 527.506, 568.951 525.520 C 585.930 518.726, 601.729 517.368, 621.500 521 C 627.487 522.100, 636.461 523.003, 641.443 523.007 C 651.158 523.014, 652.403 523.485, 658.605 529.500 C 660.306 531.150, 663.618 534.031, 665.964 535.903 C 670.858 539.807, 673 544.136, 673 550.123 C 673 553.154, 673.760 555.305, 675.750 557.906 C 678.020 560.873, 678.459 562.373, 678.267 566.500 C 676.930 595.213, 677.472 596.780, 688.500 596.104 C 697.154 595.574, 697.669 593.273, 693.425 574.120 C 682.342 524.116, 654.781 462.237, 633.247 439.014 L 628.500 433.894 620 442.230 M 353.300 445.862 C 332.287 453.123, 327.838 464.723, 319.116 535 C 311.635 595.279, 311.459 601.035, 317.010 604.006 C 319.394 605.281, 339.872 608.983, 344.601 608.993 L 347.702 609 348.389 594.750 C 349.390 573.997, 354.041 535.219, 356.634 526 C 358.897 517.957, 365.259 506.376, 371.255 499.386 C 380.545 488.555, 385.729 484.605, 406.902 472.225 C 407.877 471.655, 405.897 470.409, 400.402 468.137 C 389.280 463.537, 377.718 456.759, 369.266 449.884 C 361.294 443.401, 360.791 443.274, 353.300 445.862 M 415.992 477.510 C 415.302 478.341, 412.224 479.751, 409.151 480.644 C 405.391 481.738, 400.610 484.488, 394.532 489.055 C 358.901 515.829, 352.229 548.450, 372.990 594.383 C 380.209 610.355, 382.994 614.513, 387.463 615.988 C 394.281 618.238, 395.353 617.286, 402.400 602.732 C 413.042 580.757, 422.133 568.789, 432.750 562.780 C 435.637 561.146, 438 559.471, 438 559.058 C 438 558.645, 435.307 552.951, 432.016 546.404 C 425.905 534.249, 425.084 531.316, 427.200 529.200 C 430.726 525.674, 433.546 528.478, 438.444 540.379 C 446.606 560.216, 448.332 562.073, 460.411 564.011 C 464.310 564.637, 471.703 566.241, 476.839 567.575 C 489.856 570.955, 489.016 571.217, 499.868 560.392 C 513.371 546.924, 517.335 544.752, 527 545.528 L 534.500 546.130 541.750 540.997 C 546.520 537.619, 549 535.196, 549 533.912 C 549 531.102, 540.532 514.575, 535.354 507.277 C 528.764 497.991, 521 492.887, 521 497.840 C 521 501.930, 514.778 512.038, 509.181 517.040 C 482.927 540.504, 435.373 531.007, 411.483 497.528 C 405.794 489.556, 404.815 486, 408.308 486 C 410.326 486, 411.933 487.569, 416.302 493.804 C 435.200 520.773, 470.811 531.477, 497.894 518.330 C 506.913 513.952, 515.558 502.462, 517.631 492.096 C 518.412 488.190, 514.301 485, 508.488 485 C 503.551 485, 502.953 485.618, 500.703 493.052 C 493.081 518.233, 445.987 512.442, 429.912 484.346 C 425.407 476.473, 419.330 473.488, 415.992 477.510 M 439.143 481.890 C 435.527 484.182, 444.781 493.747, 455.979 499.292 C 467.704 505.098, 481.512 503.475, 490.201 495.270 C 492.698 492.912, 494.832 487.498, 493.707 486.374 C 493.441 486.108, 485.411 485.482, 475.862 484.984 C 466.313 484.485, 454.900 483.385, 450.500 482.539 C 441.258 480.762, 440.952 480.744, 439.143 481.890 M 593.500 528.100 C 579.582 530.087, 560.211 538.089, 548.545 546.671 L 543.591 550.316 546.045 551.899 C 547.395 552.770, 550.897 555.722, 553.827 558.459 L 559.154 563.436 563.827 560.656 C 585.803 547.580, 603.068 544.374, 622.261 549.804 C 632.620 552.735, 632.452 552.777, 634.960 546.598 C 637.342 540.730, 636.742 537.791, 632.351 533.817 C 626.678 528.684, 608.329 525.984, 593.500 528.100 M 645.353 533.765 C 644.723 534.169, 643.695 536.404, 643.070 538.731 C 642.445 541.058, 640.599 545.783, 638.967 549.231 C 635.713 556.110, 635.230 560.116, 637.436 561.947 C 641.729 565.510, 654 548.852, 654 539.462 C 654 535.050, 648.748 531.590, 645.353 533.765 M 658.065 550.028 C 656.420 553.343, 653.036 558.704, 650.545 561.941 C 645.876 568.009, 643.676 572.343, 644.731 573.397 C 649.604 578.271, 667 561.093, 667 551.407 C 667 548.005, 664.551 544, 662.471 544 C 661.693 544, 659.710 546.712, 658.065 550.028 M 517.252 556.171 C 507.201 561.682, 485.970 584.455, 481.227 594.814 C 478.582 600.593, 477.143 613.617, 478.406 620.349 C 479.584 626.627, 480.576 627.012, 495.321 626.900 C 514.555 626.755, 514.565 626.749, 508.189 619.709 C 502.028 612.905, 501.512 610.767, 506.250 611.668 C 510.843 612.541, 514.692 614.647, 520.842 619.652 C 528.741 626.082, 534.003 625.307, 533.996 617.715 C 533.991 611.892, 531.557 608.400, 521.841 600.283 C 511.036 591.255, 509.972 590, 513.128 590.001 C 516.672 590.002, 526.727 595.159, 533.370 600.384 C 536.599 602.923, 539.836 605, 540.564 605 C 544.439 605, 546.397 595.154, 543.546 590 C 542.786 588.625, 537.998 584.115, 532.908 579.978 C 515.872 566.134, 521.323 566.347, 546.567 580.511 C 552.209 583.677, 554.606 583.418, 555.580 579.536 C 557.714 571.037, 551.255 563.186, 537.848 557.979 C 526.555 553.594, 522.589 553.246, 517.252 556.171 M 592.250 557.646 C 585.510 559.713, 585.527 559.979, 593.373 575.165 C 596.878 581.949, 600.791 590.763, 602.069 594.750 C 605.171 604.425, 606.657 604.330, 611.308 594.155 C 616.778 582.187, 623 565.057, 623 561.962 C 623 559.754, 622.344 558.953, 619.750 557.995 C 614.348 555.998, 598.286 555.794, 592.250 557.646 M 658.220 572.883 C 649.394 581.418, 648 583.208, 648 586.008 C 648 589.083, 648.156 589.219, 651.026 588.645 C 658.538 587.142, 671.398 575.727, 672.561 569.529 C 674.335 560.072, 670.555 560.956, 658.220 572.883 M 569.500 568.144 C 564.066 570.937, 563.175 572.330, 562.392 579.255 C 561.866 583.905, 560.951 586.221, 558.236 589.778 C 556.321 592.287, 553.870 596.959, 552.788 600.161 C 551.707 603.363, 549.742 607.574, 548.422 609.519 C 539.415 622.792, 539.268 622.768, 584.407 615.439 C 592.606 614.108, 599.462 612.871, 599.643 612.690 C 601.007 611.326, 592.256 587.729, 586.832 578.146 C 579.551 565.281, 577.441 564.063, 569.500 568.144 M 630.662 568.750 C 630.411 569.163, 628.740 573.325, 626.950 578 C 625.159 582.675, 621.513 591.175, 618.847 596.889 C 616.181 602.603, 614 607.717, 614 608.253 C 614 609.933, 641.027 604.445, 642.978 602.369 C 644.587 600.657, 639.234 578.984, 635.805 573.325 C 632.667 568.147, 631.604 567.202, 630.662 568.750 M 433.500 571.499 C 426.917 575.084, 417.626 587.811, 408.905 605.190 C 403.362 616.235, 403.084 617.675, 406.250 618.948 C 408.822 619.982, 438.294 623.618, 451 624.469 C 455.675 624.782, 462.230 625.298, 465.567 625.616 L 471.634 626.194 470.698 618.583 C 469.283 607.071, 470.895 598.470, 476.578 587.217 C 479.157 582.111, 480.960 577.627, 480.585 577.252 C 479.042 575.709, 454.823 570.918, 446 570.411 C 438.349 569.972, 435.916 570.183, 433.500 571.499 M 355.630 579.250 C 354.413 587.903, 354.578 607.787, 355.880 609.355 C 357.628 611.462, 373 614.417, 373 612.646 C 373 612.451, 371.016 608.047, 368.592 602.858 C 366.167 597.670, 362.735 589.279, 360.966 584.212 C 357.366 573.904, 356.495 573.093, 355.630 579.250 M 661.259 590.897 C 652.402 595.598, 651 596.722, 651 599.122 C 651 602.928, 663.755 600.247, 669.232 595.290 C 671.282 593.434, 671.687 586.986, 669.750 587.026 C 669.063 587.041, 665.241 588.782, 661.259 590.897 M 310 643.695 C 302.839 647.388, 305.556 657.259, 315.175 662.497 C 320.856 665.591, 333.718 669, 339.710 669 C 346.618 669, 352.557 664.956, 354.960 658.615 C 357.289 652.468, 352.155 649.186, 334.171 645.326 C 317.625 641.776, 314.172 641.543, 310 643.695 M 537 648.015 C 537 650.554, 547.328 654.607, 576.500 663.517 C 604.496 672.067, 647.512 697.066, 668.216 716.818 C 686.981 734.720, 699.461 751.864, 708.148 771.673 C 718.197 794.589, 726.265 803.221, 743.171 809.142 C 762.677 815.975, 815.098 806.938, 822.628 795.445 C 825.787 790.624, 823 790.333, 813.355 794.477 C 786.767 805.899, 756.608 808.152, 739.222 800.017 C 728.850 795.163, 723.795 789.068, 714.275 769.939 C 709.775 760.897, 703.985 750.350, 701.409 746.500 C 683.881 720.312, 655.805 695.988, 621.500 677.272 C 593.532 662.014, 537 642.440, 537 648.015 M 313.441 651.096 C 312.410 652.764, 314.827 654.496, 322.259 657.415 C 334.929 662.393, 343.965 663.140, 345.426 659.331 C 346.516 656.491, 343.928 655.149, 332.297 652.523 C 320.227 649.799, 314.510 649.366, 313.441 651.096 M 182 696.094 C 161.535 700.073, 142.653 723.356, 134.921 754.147 C 131.873 766.287, 131.154 791.207, 133.450 805.150 C 139.712 843.168, 160.738 871.101, 188.987 878.929 C 210.909 885.004, 230.479 878.083, 242.497 860.004 C 263.282 828.739, 264.569 776.770, 245.494 738.965 C 229.064 706.400, 206.689 691.293, 182 696.094 M 849.759 704.362 C 843.448 706.717, 840.909 708.957, 838.453 714.335 C 831.454 729.661, 831.281 748.406, 837.973 766.221 C 844.985 784.886, 868.149 791.253, 879.636 777.672 C 892.142 762.888, 891.615 729.643, 878.623 713.705 C 871.452 704.909, 859.051 700.894, 849.759 704.362 M 851.020 713.752 C 843.587 717.486, 840.400 727.057, 841.283 742.996 C 842.186 759.296, 847.314 770.389, 855.962 774.750 C 870.873 782.269, 881.219 770.167, 881.412 744.979 C 881.497 733.885, 881.378 733.210, 878.205 726.765 C 872.031 714.224, 860.790 708.843, 851.020 713.752 M 644.255 741.512 C 637.810 744.783, 628.924 754.368, 625.318 761.939 C 614.335 784.999, 633.074 818.308, 658.359 820.669 C 674.419 822.169, 691.770 810.609, 695.969 795.612 C 704.369 765.609, 669.222 728.840, 644.255 741.512 M 179.271 746.030 C 157.264 757.260, 154.446 807.484, 174.567 829.864 C 194.783 852.348, 224 832.303, 224 795.950 C 224 780.974, 218.080 763.381, 210.142 754.770 C 201.367 745.250, 188.139 741.505, 179.271 746.030 M 649.173 747.216 C 636.944 751.324, 627.327 769.500, 629.931 783.584 C 634.374 807.618, 654.336 819.920, 673.600 810.495 C 694.110 800.460, 695.743 776.140, 677.178 757.191 C 667.547 747.360, 658.421 744.109, 649.173 747.216 M 187.500 752.532 C 186.950 752.693, 185.297 753.089, 183.827 753.412 C 165.304 757.481, 162.246 805.662, 179.358 823.838 C 189.963 835.103, 203.760 833.197, 210.750 819.500 C 223.347 794.814, 212.229 756.259, 191.500 752.747 C 189.850 752.467, 188.050 752.371, 187.500 752.532 M 513.217 756.390 C 488.785 762.578, 469.408 783.856, 460.635 814.130 C 451.345 846.190, 454.044 876.674, 468.904 907.500 C 475.822 921.850, 480.510 927.993, 490.787 936.175 C 505.800 948.127, 518.584 952.491, 536.636 951.830 C 568.469 950.662, 593.025 920.032, 598.131 875.122 C 601.879 842.167, 586.259 796.477, 563.449 773.666 C 548.666 758.884, 529.457 752.277, 513.217 756.390 M 510.275 807.594 C 478.192 819.413, 478.258 887.415, 510.368 903.686 C 542.215 919.824, 569.729 869.940, 550.870 830.254 C 542.533 812.710, 524.185 802.469, 510.275 807.594 M 265.580 815.159 C 265.345 815.896, 264.411 820.100, 263.505 824.500 C 258.161 850.442, 252.788 861.985, 239.649 875.750 C 236.368 879.188, 233.936 882, 234.245 882 C 234.554 882, 239.043 881.148, 244.222 880.106 C 264.320 876.063, 283.499 862.189, 292.207 845.394 C 294.891 840.217, 295.276 838.693, 294.470 836.432 C 293.408 833.449, 293.177 833.288, 284.616 829.554 C 280.514 827.765, 276.805 824.993, 272.369 820.403 C 268.384 816.277, 265.848 814.318, 265.580 815.159 M 509.907 817.323 C 481.806 832.132, 491.704 897.967, 522.097 898.397 C 550.884 898.805, 559.014 838.242, 532.610 820.076 C 524.707 814.638, 516.817 813.681, 509.907 817.323 M 847.500 879.102 C 825.926 885.788, 796.156 891.728, 744.750 899.601 C 736.949 900.796, 741.743 904.942, 756.732 909.964 C 782.797 918.696, 801.496 917.728, 824.500 906.454 C 839.226 899.238, 852 887.025, 852 880.162 C 852 877.788, 851.851 877.753, 847.500 879.102 M 604 886.409 C 604 889.280, 596.789 912.509, 593.963 918.742 C 588.362 931.095, 578.284 942.924, 567.013 950.373 C 563.996 952.368, 561.975 954, 562.523 954 C 564.699 954, 588.795 947.022, 593.309 945.084 C 611.902 937.105, 630.513 917.940, 632.688 904.533 L 633.219 901.261 625.921 899.045 C 619.594 897.123, 617.854 896.042, 612.837 890.914 C 607.215 885.169, 604 883.529, 604 886.409" stroke="none" fill="#1a1a1a" fill-rule="evenodd"/>
</svg>