<svg xmlns="http://www.w3.org/2000/svg" width="1024" height="1024" viewBox="0 0 1024 1024" version="1.1">
	<path d="M 741 35.563 C 704.566 46.502, 653.767 74.984, 620.293 103.240 L 611.086 111.012 605.599 108.502 C 595.294 103.789, 565.764 97.793, 541.589 95.506 C 499.401 91.514, 449.080 96.005, 414.135 106.881 L 407.996 108.792 400.953 102.892 C 376.397 82.326, 351.590 66.260, 327.500 55.322 C 285.587 36.292, 269.733 32.296, 260.865 38.528 C 250.232 46, 241.375 69.712, 238.091 99.500 C 231.395 160.238, 235.636 206.603, 251.514 246.259 C 254.066 252.635, 254.133 253.201, 252.690 256.259 C 244.348 273.941, 234.078 308.948, 232.083 326.500 C 230.808 337.721, 229.456 362.435, 229.662 370.750 C 229.747 374.188, 229.706 377, 229.571 377 C 229.436 377, 224.865 376.313, 219.413 375.473 C 208.055 373.723, 180.252 373.435, 172.091 374.983 C 169.141 375.542, 166.581 376, 166.402 376 C 166.224 376, 165.160 376.985, 164.039 378.189 C 159.857 382.677, 160.726 382.897, 180.250 382.297 C 198.280 381.743, 217.164 383.241, 227.122 386.015 C 230.644 386.995, 230.763 387.187, 231.410 392.907 C 231.966 397.823, 235.782 415.343, 237.553 421.115 C 237.949 422.404, 236.783 422.978, 231.775 423.961 C 217.295 426.801, 189.178 437.605, 184.271 442.215 C 181.506 444.813, 181.265 448, 183.835 448 C 184.844 448, 190.111 446.193, 195.540 443.984 C 214.374 436.320, 236.840 429.957, 240.331 431.297 C 241.108 431.595, 242.062 433.112, 242.452 434.669 C 243.553 439.066, 250.565 452.445, 255.948 460.423 C 273.897 487.022, 316.003 518.102, 352.353 531.584 L 365.206 536.351 361.353 538.296 C 347.081 545.502, 321.284 562.480, 302.602 576.963 C 296.485 581.705, 290.947 585.915, 290.294 586.318 C 289.642 586.722, 285.427 585.802, 280.928 584.276 C 270.948 580.889, 272.704 583.474, 246.120 533.045 C 233.436 508.985, 223.231 500.541, 206.806 500.514 C 198.226 500.500, 198.062 500.546, 194.445 504 C 188.935 509.259, 186.744 515.019, 186.683 524.405 L 186.632 532.310 199.826 558.405 C 207.083 572.757, 213.016 585.041, 213.010 585.702 C 213.005 586.362, 209.738 589.005, 205.750 591.575 C 181.302 607.329, 167.348 635.412, 173.464 656.552 C 175.672 664.186, 180.096 674.608, 183.247 679.599 C 185.696 683.479, 185.704 683.568, 184.286 691.504 C 182.562 701.147, 183.123 717.779, 185.465 726.500 C 197.284 770.497, 250.446 789.461, 304.675 769.026 C 310.536 766.817, 316.080 764.333, 316.994 763.505 C 317.909 762.677, 318.911 762, 319.220 762 C 319.866 762, 323.239 770.095, 322.783 770.550 C 322.618 770.715, 315.793 772.488, 307.617 774.488 C 299.440 776.489, 287.744 779.933, 281.625 782.141 C 275.506 784.350, 268.925 786.572, 267 787.079 C 265.029 787.598, 206.913 788.349, 134 788.797 C -5.811 789.658, 0 789.390, -0 794.956 C -0 797.770, 0.160 797.858, 6.539 798.541 C 10.135 798.926, 65.485 798.969, 129.539 798.637 C 193.592 798.305, 246 798.192, 246 798.386 C 246 798.581, 241.838 801.370, 236.750 804.584 C 216.994 817.066, 203.504 834.173, 200.753 850.232 C 195.736 879.519, 226.364 910.436, 282.577 932.832 C 288.068 935.019, 295.744 937.776, 299.633 938.957 C 303.523 940.139, 309.134 942.708, 312.103 944.667 C 341.218 963.877, 389.635 978.035, 449 984.697 C 479.512 988.121, 547.113 987.002, 586 982.428 C 636.051 976.541, 691.499 959.543, 715 942.881 C 716.375 941.906, 723.350 939.029, 730.500 936.488 C 745.882 931.021, 772.446 918.207, 783 911.163 C 834.748 876.625, 836.058 836.622, 786.502 804.249 C 782.651 801.734, 779.185 799.411, 778.801 799.088 C 778.416 798.765, 831.966 798.500, 897.801 798.500 C 1014.207 798.500, 1017.578 798.447, 1020.335 796.579 C 1022.732 794.956, 1023.317 794.878, 1024.117 796.079 C 1024.785 797.081, 1024.981 796.469, 1024.782 794 L 1024.500 790.500 1016.500 789.876 C 1012.100 789.533, 951.852 788.983, 882.617 788.654 C 742.170 787.986, 753.711 788.675, 750.186 780.752 C 749.145 778.414, 748.360 776.405, 748.441 776.289 C 748.522 776.173, 753.483 776.960, 759.464 778.039 C 784.533 782.560, 801.130 778.144, 816.132 762.964 C 839.524 739.294, 843.886 703.637, 827.566 669.500 C 820.408 654.528, 812.433 644.126, 794.969 626.983 L 780.180 612.466 783.425 607.983 C 798.498 587.156, 806.016 575.777, 807.386 571.715 C 814.768 549.828, 795.298 531.716, 774.712 541.319 C 766.722 545.047, 762.120 549.714, 752.159 564.194 C 747.125 571.512, 741.992 578.711, 740.753 580.190 L 738.500 582.881 728.500 574.889 C 713.046 562.538, 672.965 536.677, 664.636 533.682 C 662.847 533.039, 663.691 532.653, 678 527.579 C 693.158 522.204, 710.169 512.791, 722.167 503.139 C 737.995 490.405, 759.294 466.104, 769.398 449.250 C 771.459 445.813, 773.450 443.001, 773.822 443.003 C 779.010 443.022, 804.574 451.941, 820.051 459.132 C 829.500 463.522, 830.942 463.481, 830.985 458.818 C 831.027 454.207, 805.724 442.906, 785.500 438.503 C 781.100 437.545, 777.161 436.454, 776.748 436.078 C 776.334 435.703, 777.346 431.693, 778.998 427.169 C 780.649 422.644, 783.158 413.222, 784.574 406.230 C 785.990 399.239, 787.344 393.323, 787.584 393.083 C 788.489 392.178, 825.958 391.891, 836.331 392.711 C 846.525 393.516, 847.223 393.451, 848.207 391.612 C 849.024 390.087, 848.872 389.380, 847.517 388.388 C 843.274 385.286, 821.532 382.894, 801 383.271 L 788.500 383.500 788.463 359 C 788.409 323.811, 785.278 305.886, 773.355 272.508 C 767.074 254.924, 767.184 256.039, 770.968 248.227 C 791.917 204.981, 798.603 131.617, 787.028 72 C 783.806 55.405, 777.428 42.625, 769.243 36.363 C 763.872 32.255, 753.040 31.948, 741 35.563 M 744 45.514 C 712.553 53.216, 654.575 86.360, 624.052 114.084 C 609.193 127.579, 607.290 128.425, 606.807 121.750 L 606.500 117.500 600.978 116.906 C 597.941 116.579, 593.216 115.577, 590.478 114.680 C 559.961 104.672, 497.505 101.860, 455.500 108.602 C 437.527 111.487, 410.944 118.459, 409.700 120.614 C 408.365 122.928, 407.313 122.328, 396.664 113.187 C 376.928 96.245, 366.580 88.900, 344.885 76.434 C 326.641 65.951, 316.384 60.940, 301.442 55.209 C 282.375 47.897, 281.214 47.592, 272.596 47.621 C 265.071 47.647, 264.580 47.789, 262.357 50.574 C 255.753 58.852, 249.705 84.792, 246.926 116.759 C 245.145 137.255, 246.283 182.429, 248.948 197 C 250.104 203.325, 251.511 211.160, 252.073 214.411 C 252.636 217.663, 255.580 227.828, 258.616 237.002 L 264.137 253.681 260.222 263.091 C 248.190 292.014, 241.244 325.007, 240.305 357.702 L 239.697 378.905 242.098 379.840 C 243.419 380.354, 246.975 381.307, 250 381.958 C 257.502 383.572, 276.646 389.818, 281.299 392.170 C 287.790 395.451, 287.438 400.167, 280.849 398.203 C 276.342 396.860, 243.720 388.999, 242.656 388.999 C 241.405 389, 242.711 398.083, 245.711 410.250 L 248.363 421 266.681 421 L 285 421 285 423.455 C 285 425.442, 284.381 426.017, 281.750 426.474 C 276.060 427.461, 253.540 428.834, 252.596 428.250 C 249.226 426.168, 255.731 441.268, 263.002 452.406 C 274.802 470.481, 310.263 500.519, 333.892 512.454 C 374.817 533.126, 447.021 546.391, 519 546.461 C 576.628 546.518, 612.997 540.142, 664 521.043 C 695.786 509.140, 705.722 503.764, 722.245 489.531 C 738.548 475.487, 763.735 442.808, 760.024 440.515 C 758.277 439.435, 737.348 437.110, 725.694 436.702 C 713.251 436.266, 710.639 435.369, 712.641 432.222 C 714.201 429.770, 747.069 429.889, 757.425 432.384 C 762.977 433.722, 764.512 433.799, 765.170 432.776 C 768.218 428.036, 773.685 409.083, 774.663 399.864 C 775.248 394.354, 775.208 394.236, 772.881 394.609 C 762.332 396.297, 726.499 401.007, 722.535 401.226 C 716.199 401.576, 714.879 398.913, 720.271 396.660 C 725.867 394.322, 754.168 388.493, 770.929 386.227 C 777.622 385.322, 777.701 385.108, 778.594 365.509 C 780.137 331.620, 771.163 285.877, 758.540 263.293 C 755.676 258.168, 755.317 254.811, 757.446 253.045 C 758.242 252.385, 760.930 246.592, 763.420 240.172 C 775.652 208.635, 780.613 183.126, 781.636 146.500 C 782.988 98.077, 776.543 58.158, 765.529 46.750 C 762.433 43.543, 754.019 43.060, 744 45.514 M 728 81.624 C 703.821 96.825, 682.547 115.297, 670.557 131.500 C 653.503 154.548, 649.254 163.460, 654.086 166.046 C 656.497 167.336, 656.229 167.521, 658.517 163 C 663.753 152.656, 680.116 131.838, 693.493 118.500 C 701.828 110.190, 712.191 101.813, 734 85.758 C 739.600 81.635, 742.609 78.732, 742.820 77.250 C 743.374 73.347, 739.212 74.575, 728 81.624 M 284.117 77.782 C 283.307 79.295, 284.998 80.914, 295.331 88.516 C 319.936 106.617, 339.210 128.905, 353.691 156 C 355.723 159.802, 357.328 161.602, 358.888 161.829 C 362.471 162.351, 364.185 161.326, 363.161 159.273 C 362.675 158.298, 360.866 154.457, 359.142 150.738 C 346.962 124.467, 325.354 99.397, 301.500 83.859 C 288.867 75.630, 285.836 74.570, 284.117 77.782 M 310.427 155.714 C 307.316 157.994, 308.186 159.786, 313.325 161.681 C 318.952 163.756, 329 169.942, 329 171.331 C 329 171.806, 326.637 174.278, 323.750 176.825 C 307.574 191.093, 298.956 200.623, 300.675 202.342 C 301.002 202.669, 301.322 203.963, 301.385 205.218 C 301.448 206.473, 301.998 207.500, 302.606 207.500 C 304.851 207.500, 338 174.377, 338 172.133 C 338 165.582, 315.359 152.100, 310.427 155.714 M 701.490 155.966 C 694.877 156.965, 687.076 161.011, 683.160 165.471 C 677.587 171.818, 678.248 172.917, 697.845 189.870 C 705.355 196.367, 712.118 202.429, 712.872 203.341 C 714.403 205.191, 717.544 205.547, 718.512 203.980 C 720.776 200.317, 714.054 192.335, 697.500 179.029 C 692.550 175.050, 688.500 171.083, 688.500 170.214 C 688.500 168.140, 701.509 161.150, 707.166 160.185 C 710.563 159.605, 711.500 159.018, 711.500 157.472 C 711.500 155.170, 709.120 154.812, 701.490 155.966 M 385 247.581 C 373.696 250.651, 360.775 261.354, 359.377 268.805 C 358.287 274.613, 360.286 274.660, 366.343 268.971 C 376.776 259.172, 383.439 256, 393.588 256 C 400.995 256, 404.335 252.373, 400.250 248.764 C 397.581 246.406, 391.161 245.908, 385 247.581 M 607.286 247.643 C 604.961 248.154, 599 253.196, 599 254.651 C 599 255.118, 603.186 255.500, 608.302 255.500 C 619.189 255.500, 628.077 259.093, 637.832 267.439 C 643.768 272.518, 645 272.949, 645 269.950 C 645 258.780, 621.058 244.619, 607.286 247.643 M 376.222 339.047 C 363.140 345.584, 356.004 360.817, 357.742 378.500 C 359.407 395.450, 372.782 409.400, 387.172 409.196 C 405.386 408.937, 418.515 395.329, 419.757 375.421 C 421.491 347.624, 398.126 328.101, 376.222 339.047 M 600.222 341.047 C 574.908 353.697, 574.519 396.322, 599.606 408.596 C 622.373 419.734, 647.380 395.737, 643.820 366.168 C 641.256 344.873, 618.641 331.843, 600.222 341.047 M 390.975 357.250 C 385.832 365.627, 394.823 375.860, 402.216 370.045 C 406.630 366.573, 406.855 357.607, 402.600 354.765 C 401.995 354.361, 399.581 354.024, 397.235 354.015 C 393.492 354.002, 392.726 354.398, 390.975 357.250 M 616.174 358.314 C 610.759 364.079, 618.136 376.674, 624.829 373.092 C 629.860 370.399, 631.810 363.251, 628.965 357.934 C 627.376 354.965, 619.089 355.212, 616.174 358.314 M 487.772 402.047 C 460.076 405.273, 456.435 418.500, 477.428 439.620 C 482.639 444.862, 486.574 447.975, 488.531 448.401 L 491.562 449.063 491.174 455.929 C 490.960 459.705, 491.248 463.621, 491.813 464.630 C 493.172 467.058, 485.867 472.401, 478.104 474.658 C 462.075 479.318, 445.975 472.817, 438.918 458.837 C 436.178 453.410, 435.728 453, 432.505 453 C 421.294 453, 435.019 475.541, 450.563 482.658 C 462.480 488.113, 479.415 486.587, 491.386 478.977 L 496.272 475.871 499.386 478.824 C 514.111 492.784, 541.155 490.687, 557.528 474.314 C 566.385 465.457, 568.794 455.819, 562.307 455.191 C 559.323 454.902, 558.944 455.241, 556.506 460.395 C 553.338 467.093, 549.772 470.236, 540.133 474.825 C 527.186 480.990, 513.427 479.142, 504.543 470.044 L 500.800 466.211 501.240 457.473 L 501.680 448.735 507.837 444.118 C 514.330 439.248, 524.021 428.794, 526.518 423.965 C 527.333 422.389, 528 419.086, 528 416.626 C 528 408.132, 521.907 403.928, 506.860 402.042 C 497.791 400.904, 497.576 400.905, 487.772 402.047 M 484.110 413.022 C 473.113 415.330, 473.556 423.397, 485.243 433.644 C 492.895 440.354, 496.962 440.149, 506.131 432.592 C 516.817 423.785, 519.064 418.054, 513.310 414.283 C 510.322 412.326, 491.338 411.506, 484.110 413.022 M 199.710 511.134 C 193.256 521.400, 194.324 526.088, 210.156 556.968 L 223.387 582.775 226.944 581.520 C 233.586 579.176, 245.247 577.736, 252.281 578.390 L 259.156 579.028 255.221 571.764 C 253.056 567.769, 246.388 555.297, 240.403 544.049 C 225.902 516.799, 219.579 510.330, 206.349 509.206 C 201.772 508.818, 201.032 509.033, 199.710 511.134 M 646.148 539.145 C 643.312 539.962, 642.898 540.448, 643.460 542.305 C 646.391 551.986, 658.998 618.010, 658.999 623.687 L 659 626.875 665.250 624.048 C 678.910 617.870, 692.579 614.873, 707.143 614.863 C 714.756 614.858, 716.017 614.598, 717.728 612.679 C 719.574 610.609, 730.883 594.859, 732.371 592.287 C 733.877 589.682, 697.498 563.386, 674.927 550.764 C 664.724 545.058, 650.404 537.851, 649.747 538.090 C 649.611 538.140, 647.991 538.615, 646.148 539.145 M 372.750 543.993 C 356.265 551.130, 328.338 569.331, 302.705 589.644 C 299.155 592.457, 298.902 591.902, 307.529 600.231 C 314.798 607.249, 315.185 607.863, 318.715 618 C 325.209 636.643, 324.684 645.763, 315.851 667.788 C 314.156 672.017, 315.709 675.036, 322.124 679.977 C 324.639 681.915, 331.740 687.487, 337.905 692.360 C 344.070 697.233, 349.263 701.058, 349.446 700.860 C 349.628 700.662, 350.296 693.525, 350.931 685 C 354.204 641.008, 363.896 603.268, 385.343 551 L 388.831 542.500 386.165 541.868 C 381.407 540.741, 379.605 541.026, 372.750 543.993 M 629.500 544.172 C 626.200 545.164, 617.969 547.195, 611.210 548.685 C 599.780 551.205, 598.784 551.613, 596.990 554.516 C 589.120 567.250, 566.704 581.132, 545.134 586.629 C 499.755 598.196, 450.305 585.287, 431.473 556.959 C 428.179 552.004, 426.202 549.998, 424.222 549.601 C 422.725 549.301, 417.450 548.340, 412.500 547.466 C 407.550 546.593, 402.730 545.655, 401.789 545.384 C 396.863 543.962, 376.191 597.714, 368.034 633.155 C 361.791 660.276, 357.360 704.493, 360.418 709.146 C 361.013 710.051, 366.249 716.421, 372.052 723.302 C 377.856 730.182, 385.281 739.696, 388.552 744.445 L 394.500 753.077 400.500 752.567 C 403.800 752.286, 414.825 751.179, 425 750.107 C 454.317 747.017, 531.341 745.361, 544.256 747.543 C 547.965 748.170, 548.509 747.928, 552.858 743.723 C 566.603 730.432, 580.101 723.887, 604 718.924 C 618.689 715.874, 622.536 713.496, 627.162 704.606 L 629.188 700.712 626.966 693.672 C 621.447 676.186, 627.605 656.358, 644.030 638.723 L 650.559 631.713 648.773 618.116 C 647.790 610.638, 644.708 593.040, 641.923 579.010 C 639.138 564.979, 636.554 550.995, 636.180 547.934 L 635.500 542.369 629.500 544.172 M 778.248 551.106 C 772.230 554.085, 767.284 559.992, 749.200 585.797 C 731.119 611.599, 727.543 616.937, 728.104 617.290 C 728.322 617.428, 731.760 618.613, 735.745 619.924 C 739.730 621.236, 745.725 624.096, 749.068 626.281 C 752.412 628.465, 755.495 629.858, 755.921 629.376 C 756.346 628.894, 762.759 619.950, 770.171 609.500 C 800.398 566.886, 800.744 566.279, 799.055 558.733 C 797.030 549.683, 787.890 546.333, 778.248 551.106 M 439 554.501 C 443.958 560.014, 456.647 569.388, 463.698 572.745 C 493.828 587.092, 541.743 584.161, 570.798 566.193 C 577.222 562.220, 585.627 555.293, 584.902 554.569 C 584.658 554.325, 578.393 554.774, 570.979 555.568 C 534.201 559.503, 478.110 558.143, 441 552.416 L 436.500 551.721 439 554.501 M 235.667 589.570 C 208.350 595.666, 187.923 615.498, 182.970 640.731 C 180.889 651.337, 187.403 669.567, 196.710 679.183 C 201.728 684.367, 213.678 690.226, 220.366 690.780 L 225.741 691.226 226.459 685.483 C 227.529 676.921, 227.327 666.479, 226.045 664.084 C 224.485 661.169, 227.136 660.204, 230.552 662.442 C 234.282 664.886, 235.232 668.316, 235.397 679.939 L 235.545 690.378 239.434 693.198 C 259.633 707.845, 285.034 693.062, 282.607 668.072 C 280.686 648.296, 280.654 645.070, 282.373 644.410 C 284.860 643.456, 286.763 645.630, 287.537 650.308 C 287.919 652.613, 289.079 656.750, 290.115 659.500 C 291.151 662.250, 291.999 665.737, 291.999 667.250 C 292 670.878, 294.272 670.847, 300.117 667.141 C 307.547 662.429, 314 650.450, 314 641.368 C 314 630.278, 306.152 612.222, 298.028 604.623 C 284.335 591.815, 256.122 585.005, 235.667 589.570 M 770.023 627.090 C 767.810 629.889, 766 632.510, 766 632.915 C 766 633.319, 774.100 638.733, 784 644.945 C 798.905 654.298, 802 656.638, 802 658.557 C 802 661.759, 797.749 660.986, 785.163 655.494 C 779.848 653.175, 775.409 651.344, 775.298 651.424 C 775.187 651.505, 776.431 655.826, 778.061 661.028 C 784.241 680.738, 784.866 689.060, 781.413 705.601 C 775.653 733.188, 761.838 748.365, 739.067 752.126 C 735.180 752.768, 732 753.629, 732 754.040 C 732 755.775, 746.128 764.245, 753.019 766.641 C 762.173 769.825, 777.802 770.946, 786.099 769.015 C 805.917 764.402, 822.120 745.467, 826.673 721.600 C 830.576 701.146, 823.817 677.383, 808.121 656.376 C 801.614 647.667, 777.003 622, 775.159 622 C 774.547 622, 772.236 624.290, 770.023 627.090 M 693 625.629 C 669.584 629.970, 653.018 640.611, 642.691 657.947 C 632.976 674.256, 633.479 687.725, 644.196 698.250 C 647.416 701.413, 650.453 704, 650.945 704 C 651.437 704, 652.613 701.638, 653.559 698.750 C 657.725 686.030, 665.160 675, 669.568 675 C 674.014 675, 674.846 681.003, 671.024 685.500 C 661.613 696.570, 658.440 714.116, 663.912 724.832 C 669.431 735.639, 695.150 740.003, 699.703 730.905 C 700.365 729.582, 702.965 724, 705.482 718.500 C 710.286 708, 711.917 706, 715.672 706 C 717.298 706, 718.149 706.746, 718.608 708.574 C 719.304 711.349, 718.798 712.588, 713.526 721 C 702.736 738.219, 705.392 742.454, 727 742.483 C 739.074 742.499, 739.737 742.388, 746.443 739.212 C 757.200 734.118, 761.405 730.121, 765.941 720.678 C 778.732 694.045, 775.029 662.229, 757.241 645.921 C 737.530 627.851, 716.629 621.249, 693 625.629 M 299.272 679.139 C 292.040 682.446, 291.932 680.643, 300.379 697.590 C 303.420 703.689, 308.007 713.814, 310.574 720.090 C 315.003 730.917, 325.466 754.257, 330.259 764 C 338.360 780.466, 357.683 803.544, 371 812.658 C 384.924 822.188, 403.580 828.777, 419 829.612 C 429.188 830.164, 431.599 829.462, 430.576 826.241 C 428.800 820.644, 389.434 760.067, 375.496 741.483 C 362.395 724.014, 338.471 701.865, 320.500 690.566 C 313.742 686.318, 307 680.220, 307 678.356 C 307 676.113, 305.573 676.258, 299.272 679.139 M 193.952 694.626 C 192.481 698.494, 192.826 714.898, 194.518 721.540 C 199.791 742.244, 217.346 759.195, 239.646 765.113 C 260.230 770.576, 289.275 766.536, 310.696 755.229 L 314.892 753.014 312.083 746.257 C 310.538 742.541, 306.359 733.425, 302.796 726 C 299.234 718.575, 294.163 707.926, 291.528 702.335 L 286.736 692.171 281.357 697.981 C 274.865 704.993, 270.263 707.043, 259.448 707.739 C 250.209 708.334, 241.960 706.460, 235.619 702.328 C 232.369 700.210, 231.345 699.977, 229.322 700.899 C 223.565 703.522, 210.857 700.975, 200.202 695.062 L 194.904 692.122 193.952 694.626 M 634.086 712.545 C 629.670 720.868, 623.032 724.769, 608.752 727.432 C 578.550 733.065, 564.018 743.275, 544.394 772.649 C 533.951 788.280, 517.860 822.624, 521.830 820.807 C 524.429 819.617, 540.791 800.774, 545.975 793 C 558.613 774.048, 568.886 762.108, 574.315 760.061 C 578.182 758.603, 578.436 758.654, 581.923 761.589 C 586.845 765.730, 586.170 768.291, 577.030 780.154 C 564.205 796.802, 553.646 813.199, 548.482 824.487 C 543.411 835.572, 543.302 836.257, 546.742 835.357 C 548.849 834.806, 574.912 805.037, 588.164 788.045 C 598.004 775.429, 598.471 775, 602.375 775 C 607.596 775, 611.386 779.884, 610.724 785.758 C 610.164 790.724, 601.718 804.144, 590.400 818.048 C 580.022 830.799, 571.090 844.629, 571.708 846.993 C 572.401 849.643, 572.063 849.774, 580.303 843.665 C 591.793 835.148, 597.563 829.100, 622.231 799.711 C 635.355 784.074, 639.806 773.406, 640.519 755.877 C 640.860 747.468, 641.372 744.793, 643.353 741.058 C 651.451 725.789, 651.851 724.695, 651.162 719.737 C 650.507 715.023, 650.429 714.938, 643.557 711.487 C 639.739 709.569, 636.588 708, 636.556 708 C 636.523 708, 635.412 710.045, 634.086 712.545 M 653.577 741.719 C 650.571 746.525, 650 748.339, 650 753.088 L 650 758.739 660.750 760.935 C 690.382 766.988, 711.818 772.377, 734.250 779.414 C 736.862 780.234, 739 780.682, 739 780.410 C 739 777.852, 732.192 766.631, 728.567 763.216 C 726.067 760.859, 723.749 757.850, 723.418 756.529 C 722.933 754.596, 721.817 753.912, 717.713 753.032 C 714.907 752.430, 709.661 750.453, 706.055 748.639 C 700.266 745.726, 699.032 745.447, 695.500 746.251 C 686.327 748.340, 669.293 744.512, 661.580 738.629 C 657.184 735.276, 657.741 735.061, 653.577 741.719 M 504 756.271 C 503.725 756.536, 491.800 757.052, 477.500 757.418 C 443.022 758.301, 404.285 761.381, 402.267 763.400 C 402.042 763.624, 404.459 767.714, 407.636 772.489 C 413.346 781.069, 413.455 781.164, 416.957 780.649 C 457.374 774.695, 473.608 776.267, 506.229 789.291 L 519.958 794.772 524.482 786.267 C 526.971 781.589, 531.901 773.345, 535.438 767.946 L 541.869 758.130 539.185 757.609 C 535.348 756.863, 504.599 755.694, 504 756.271 M 570.334 773.314 C 564.715 779.044, 555.956 791.981, 556.034 794.437 C 556.052 795.022, 557.514 793.708, 559.284 791.518 C 561.053 789.327, 565.200 784.555, 568.500 780.912 C 579.542 768.724, 581.078 762.358, 570.334 773.314 M 648.027 774.370 C 645.561 786.248, 638.681 797.082, 623.675 812.717 L 615.788 820.934 618.882 825.962 C 633.268 849.343, 627.660 873.659, 602.908 895.223 C 591.776 904.922, 571.420 911.969, 554.474 911.991 C 540.524 912.009, 532.065 913.717, 519.427 919.067 L 507.500 924.115 533 923.597 C 569.411 922.857, 601.410 919.956, 627.893 914.994 C 639.711 912.780, 640.436 912.460, 635.822 911.497 C 630.192 910.322, 624.398 906.359, 622.518 902.396 C 617.145 891.075, 627.277 874.738, 640.602 873.236 C 643.021 872.963, 645 872.625, 645 872.484 C 645 872.344, 644.328 870.940, 643.506 869.364 C 641.712 865.924, 641.575 860.518, 643.166 855.954 C 644.083 853.323, 644.063 852.521, 643.069 852.190 C 640.425 851.308, 634.799 845.526, 632.830 841.667 C 621.004 818.486, 650.023 794.656, 668.713 812.201 L 670.925 814.278 676.213 811.955 C 683.416 808.790, 694.575 808.645, 701.077 811.632 C 706.639 814.187, 711.106 821.047, 711.781 828.072 L 712.227 832.717 718.864 832.276 C 741.014 830.806, 747.479 859.675, 729.341 879.066 C 712.520 897.050, 673.072 913.595, 626 922.410 C 558.147 935.116, 450.448 934.013, 382.319 919.914 C 304.623 903.836, 266.677 880.563, 275.389 854.334 C 278.577 844.737, 292.096 834.617, 307.161 830.549 L 313.823 828.751 316.032 822.626 C 318.955 814.520, 325.594 804.620, 332.462 798.124 C 335.790 794.977, 337.749 792.384, 337.330 791.679 C 336.945 791.031, 334.866 788.093, 332.711 785.152 L 328.792 779.804 324.146 780.487 C 306.085 783.142, 279.015 791.910, 260.650 801.053 C 191.268 835.594, 190.333 875.809, 258.085 911.347 C 369.003 969.526, 628.403 972.772, 752 917.527 C 791.887 899.699, 815.132 877.250, 815.191 856.500 C 815.274 826.999, 774.271 798.512, 706.500 780.984 C 694.854 777.972, 652.288 769, 649.644 769 C 649.368 769, 648.640 771.416, 648.027 774.370 M 598.670 788.768 C 596.745 791.390, 594.243 794.375, 593.109 795.402 C 591.012 797.299, 591.123 799, 593.343 799 C 595.142 799, 604 788.104, 604 785.891 C 604 782.825, 602.398 783.690, 598.670 788.768 M 439.500 787.001 C 436.750 787.482, 431.466 788.471, 427.758 789.199 L 421.015 790.523 426.155 798.511 C 436.713 814.922, 443.201 832.643, 440.044 836.447 C 438.470 838.344, 430.318 840.005, 422.701 839.980 C 396.097 839.895, 367.219 826.609, 348.581 805.879 L 343.746 800.502 337.995 806.755 C 310.989 836.117, 322.280 871.107, 364.692 889.486 C 372.644 892.932, 379.894 894.452, 402.744 897.466 C 417.841 899.457, 431.490 903.285, 444.201 909.092 C 458.518 915.632, 464.663 916.967, 480.540 916.985 C 495.417 917.002, 500.512 915.954, 514.517 909.993 C 526.806 904.762, 533.595 903.270, 550.522 902.077 C 576.290 900.262, 588.076 895.812, 601.045 883 C 616.316 867.915, 620.097 852.157, 612.442 835.500 C 608.457 826.829, 609.199 826.713, 598.354 837.706 C 581.835 854.450, 570.877 859.652, 563.837 854.094 C 558.478 849.864, 558.965 845.349, 565.864 835.289 C 569.179 830.455, 574.230 823.881, 577.089 820.679 C 581.655 815.565, 582.108 814.680, 580.821 813.392 C 578.477 811.049, 576.803 812.471, 569.991 822.591 C 559.962 837.490, 550.438 845, 541.572 845 C 533.420 845, 532.749 838.554, 539.388 823.998 C 546.288 808.868, 546.210 808.669, 536.988 817.891 C 525.948 828.931, 519.498 831.355, 514.490 826.347 C 512.473 824.330, 512.545 814.693, 514.621 808.599 C 516.609 802.765, 517.180 803.296, 502.169 797.009 C 479.874 787.670, 456.770 783.981, 439.500 787.001 M 647.379 814.437 C 635.624 819.553, 634.738 839.676, 646.012 845.506 C 648.943 847.022, 649.150 846.974, 652.993 843.885 C 655.171 842.135, 659.101 840.161, 661.727 839.500 C 667.954 837.930, 669.175 835.628, 668.356 827 C 667.657 819.642, 666.296 817.542, 660.500 814.881 C 655.771 812.709, 651.668 812.570, 647.379 814.437 M 678.824 818.629 L 675.147 820.155 674.782 827.828 C 674.580 832.047, 674.089 836.183, 673.690 837.018 C 673.131 838.187, 673.947 838.786, 677.232 839.620 C 679.579 840.215, 684.270 841.744, 687.656 843.017 L 693.813 845.331 698.941 840.916 L 704.070 836.500 703.616 830.597 C 703.129 824.262, 701.014 820.377, 696.904 818.265 C 693.603 816.569, 683.286 816.777, 678.824 818.629 M 304.351 838.978 C 285.514 845.679, 278.224 857.030, 284.574 869.773 C 293.870 888.428, 359.765 911.635, 424.499 919.052 C 445.465 921.455, 445.515 921.453, 440 918.502 C 428.692 912.453, 414.664 908.833, 391.378 905.955 C 372.250 903.592, 366.725 901.978, 352 894.450 C 328.533 882.454, 316.715 867.276, 313.690 845.250 C 312.415 835.970, 312.551 836.061, 304.351 838.978 M 710.030 841.583 C 705.380 843.600, 703.013 845.871, 703.699 847.658 C 704.023 848.501, 703.352 849.766, 702.125 850.625 C 700.385 851.844, 700.035 852.983, 700.243 856.745 C 700.977 869.965, 727.533 873.385, 731.912 860.824 C 736.829 846.719, 724.065 835.496, 710.030 841.583 M 658.029 850.406 C 648.789 853.742, 647.710 867.262, 656.357 871.365 C 660.682 873.417, 672.764 873.543, 677.452 871.585 C 684.023 868.839, 684.557 861.982, 678.716 855.330 C 673.399 849.274, 666.025 847.518, 658.029 850.406 M 688.132 854.985 C 694.492 866.850, 686.658 878.742, 671.771 879.822 L 666.042 880.237 668.021 882.754 C 672.191 888.055, 670.551 893.478, 662.103 902.317 C 656.614 908.061, 657.116 908.061, 673 902.307 C 689.464 896.344, 721.009 879.242, 720.997 876.287 C 720.995 875.854, 718.140 875.432, 714.652 875.350 C 702.066 875.051, 691.127 865.010, 692.187 854.728 C 692.474 851.947, 692.239 851.685, 689.382 851.597 L 686.264 851.500 688.132 854.985 M 389.250 872.672 C 385.533 872.978, 384 873.527, 384 874.552 C 384 875.349, 384.337 876.003, 384.750 876.008 C 385.163 876.012, 388.200 876.421, 391.500 876.918 C 394.800 877.414, 402.450 878.085, 408.500 878.408 C 430.572 879.589, 448.919 884.502, 469.342 894.701 C 477.473 898.761, 478.380 898.674, 492 892.516 C 511.007 883.922, 527.615 880.651, 557.853 879.543 C 570.258 879.089, 571.224 878.792, 568.648 876.226 C 567.128 874.712, 564.682 874.509, 548.708 874.577 C 522.567 874.687, 507.872 878.019, 486.752 888.625 L 478.003 893.018 467.252 887.637 C 442.372 875.183, 417.256 870.364, 389.250 872.672 M 639.293 880.648 C 627.875 884.692, 623.437 899.132, 632.318 903.347 C 643.885 908.836, 660.627 899.811, 659.797 888.535 C 659.518 884.751, 659.163 884.329, 654.071 881.750 C 647.999 878.675, 645.409 878.482, 639.293 880.648 M 340.167 950.501 C 343.606 953.939, 389.467 966.248, 414.500 970.452 C 486.261 982.501, 573.379 979.783, 639.500 963.431 C 653.935 959.861, 683.270 950.937, 682.640 950.307 C 682.445 950.112, 678.295 950.882, 673.418 952.019 C 644.472 958.769, 588.305 964.944, 536.920 967.026 C 480.174 969.326, 402.313 963.044, 350.267 951.965 C 340.410 949.867, 339.385 949.718, 340.167 950.501" stroke="none" fill="#1a1a1a" fill-rule="evenodd"/>
</svg>