<svg xmlns="http://www.w3.org/2000/svg" width="1024" height="1024" viewBox="0 0 1024 1024" version="1.1">
	<path d="M 271.673 46.235 C 258.108 48.588, 249.281 61.493, 243.644 87.207 C 234.396 129.398, 238.360 183.251, 254.041 228.466 C 257.561 238.613, 257.620 237.856, 252.189 252 C 242.308 277.731, 235.360 308.318, 231.402 343.500 L 230.953 347.500 214.226 347.500 C 196.701 347.500, 193.727 348.112, 192.731 351.922 C 191.740 355.711, 194.192 357.385, 200.114 356.965 C 206.989 356.477, 225.847 356.807, 228.606 357.464 C 230.517 357.919, 230.777 358.915, 231.418 368.219 C 231.806 373.859, 232.771 381.854, 233.562 385.986 C 234.353 390.119, 235 393.965, 235 394.533 C 235 395.101, 231.738 396.163, 227.750 396.893 C 218.558 398.575, 207.076 402.246, 200 405.765 C 194.902 408.300, 194.500 408.756, 194.500 412 C 194.500 417.056, 198.515 417.205, 210.077 412.577 C 217.387 409.651, 232.550 406, 237.390 406 C 238.010 406, 239.593 409.038, 240.908 412.750 C 250.127 438.790, 266.095 458.774, 290.562 474.894 C 297.746 479.627, 306.358 484.796, 309.699 486.380 L 315.775 489.260 312.642 493.706 C 309.877 497.628, 309.465 499.103, 309.141 506.228 C 308.678 516.425, 310.060 521.025, 315.291 526.699 C 319.309 531.059, 319.379 531.249, 317.471 532.629 C 265.792 570.009, 241.116 603.885, 240.717 638 C 240.267 676.503, 267.604 703.415, 305.577 701.852 C 313.711 701.518, 314.115 701.600, 313.675 703.500 C 313.420 704.600, 312.253 709.100, 311.081 713.500 C 305.941 732.802, 306.080 752.944, 311.609 790 C 316.629 823.647, 328.187 872.679, 335.854 892.859 L 337.759 897.870 330.103 902.318 C 297.363 921.342, 294.683 957.885, 325 971.899 C 354.042 985.324, 423.705 982.643, 447.587 967.182 C 462.127 957.769, 465.968 949.223, 470.577 916.033 C 473.404 895.679, 476.750 876.785, 480.082 862.369 L 482.243 853.015 485.872 853.578 C 487.867 853.887, 495.788 854.446, 503.473 854.820 L 517.447 855.500 519.202 864 C 522.245 878.737, 527 905.785, 527 908.359 C 527 910.165, 525.667 911.808, 522.047 914.465 C 496.198 933.441, 493.820 964.299, 517.295 976.149 C 532.351 983.749, 569.857 987.788, 598.576 984.902 C 620.951 982.654, 636.624 976.946, 647.130 967.219 C 660.340 954.989, 662.716 947.852, 665.012 913.500 C 665.601 904.700, 666.738 891.875, 667.539 885 C 669.589 867.410, 672.228 847.564, 672.572 847.152 C 672.731 846.961, 675.357 847.738, 678.406 848.879 C 694.822 855.021, 731.456 853.619, 755.500 845.927 C 791.511 834.408, 824.136 802.252, 836.909 765.688 C 843.726 746.175, 845.052 734.372, 845.415 690 C 845.807 642.038, 849.684 627.986, 867.908 608.494 C 879.985 595.576, 884.162 584.718, 881.870 572.197 C 878.537 553.991, 861.946 542.714, 843.276 545.966 C 821.452 549.766, 796.158 571.664, 784.959 596.452 C 774.910 618.696, 773.643 628.152, 773.565 681.500 L 773.500 726.500 769.899 736.705 C 763.709 754.251, 753.797 767.117, 741.414 773.681 C 736.025 776.539, 733.206 777.506, 724.596 779.458 L 721.691 780.116 724.993 776.355 C 734.733 765.262, 739 746.491, 739 714.733 C 739 650.663, 720.645 593.399, 686.358 550.500 C 677.545 539.473, 656.089 517.196, 646.248 508.855 L 640.995 504.403 651.748 500.062 C 687.344 485.689, 711.290 469.117, 731.577 444.816 C 735.564 440.040, 739.263 435.352, 739.798 434.397 C 741.076 432.112, 744.928 433.637, 753.128 439.673 C 761.113 445.551, 768.471 445.210, 766.516 439.051 C 765.847 436.942, 756.175 429.591, 750 426.498 C 748.075 425.534, 746.366 424.632, 746.203 424.493 C 746.040 424.353, 747.514 421.314, 749.480 417.738 C 754.351 408.876, 758.543 397.034, 760.909 385.453 C 761.996 380.134, 763.082 375.584, 763.324 375.343 C 763.565 375.102, 768.592 376.470, 774.495 378.384 C 787.667 382.655, 792.314 381.742, 789.938 375.349 C 789.116 373.139, 778.433 368.397, 768.825 365.977 L 764.248 364.825 763.707 344.663 C 762.982 317.641, 758.486 290.994, 750.426 265.953 L 747.031 255.407 750.480 246.622 C 771.914 192.023, 776.424 101.271, 759.480 65.497 C 750.457 46.449, 737.349 42.032, 710.263 48.914 C 675 57.873, 639.530 75.300, 609.500 98.421 C 605.100 101.809, 601.022 104.874, 600.438 105.233 C 599.854 105.592, 593.111 103.865, 585.453 101.395 C 558.544 92.718, 541.351 90.045, 507.602 89.291 C 480.407 88.683, 467.366 89.581, 445.418 93.571 C 433.394 95.757, 410.605 101.663, 405.259 103.978 C 403.312 104.821, 401.330 103.675, 390.123 95.224 C 349.245 64.402, 295.377 42.122, 271.673 46.235 M 271.140 57.655 C 259.907 60.097, 252.517 83.075, 249.855 123.826 C 247.745 156.152, 251.347 187.276, 260.595 216.625 L 263.156 224.751 267.649 216.125 C 281.198 190.111, 304.103 161.921, 327.963 141.890 L 333.427 137.303 326.614 128.153 C 315.958 113.841, 304.803 104.608, 285.104 93.797 C 281.814 91.991, 280.932 88.468, 283.200 86.200 C 290.508 78.892, 328.891 108.780, 342.369 132.276 C 346.939 140.243, 346.945 140.223, 338.323 146.599 C 308.854 168.392, 280.127 207.068, 264.490 246 C 253.960 272.220, 245.168 310.480, 242.418 342.052 L 241.760 349.604 249.243 350.768 C 265.047 353.224, 284 362.116, 284 367.073 C 284 373.060, 279.848 373.525, 270.784 368.553 C 263.867 364.759, 247.446 359.657, 243.810 360.173 C 241.586 360.488, 241.512 360.798, 241.810 368.500 C 242.086 375.650, 243.018 383.219, 244.603 391.209 L 245.141 393.919 257.898 393.897 C 275.052 393.868, 279 394.901, 279 399.422 C 279 403.535, 277.343 404, 262.692 404 L 248.783 404 249.433 406.750 C 252.546 419.933, 270.027 446.084, 283.072 457.072 C 293.869 466.165, 318.741 482, 322.227 482 C 322.652 482, 323 478.541, 323 474.314 C 323 446.507, 342.501 420.129, 371 409.384 C 381.446 405.446, 404.831 405.159, 417.500 408.813 C 425.513 411.125, 440.733 417.988, 446.653 421.959 L 449.806 424.074 448.927 420.287 C 448.443 418.204, 448.037 412.674, 448.024 407.998 L 448 399.497 443.593 397.159 C 432.558 391.305, 420.012 374.689, 421.397 367.764 C 423.348 358.011, 430.819 353.300, 446.300 352.061 C 465.661 350.511, 480.280 353.045, 486.214 358.978 C 496.419 369.184, 486.746 384.832, 462.968 396.584 C 455.289 400.379, 455.513 399.860, 457.027 410.332 C 459.640 428.404, 467.812 435.949, 483.415 434.694 C 497.014 433.600, 506.386 428.220, 513.014 417.702 C 519.535 407.353, 519.866 407, 523.068 407 C 530.704 407, 527.861 418.052, 517.405 429.014 C 510.857 435.880, 504.705 440.036, 497.235 442.643 C 493.305 444.014, 492.127 444.863, 492.587 445.990 C 494.389 450.398, 494.157 459.870, 492.060 467.535 C 489.201 477.988, 486.749 481.914, 477.170 491.380 L 469.195 499.259 473.512 505.124 C 475.887 508.349, 477.988 511.465, 478.182 512.047 C 480.138 517.913, 556.822 514.547, 593.594 506.981 C 654.266 494.497, 698.667 470.477, 725.110 435.835 L 730.960 428.170 723.730 425.185 C 707.885 418.644, 684.238 412.194, 669.724 410.455 C 661.737 409.498, 658.463 403.963, 664.100 400.947 C 668.677 398.497, 699.566 405.405, 722.549 414.018 C 730.057 416.832, 736.327 418.991, 736.483 418.817 C 741.124 413.620, 753.834 375.501, 751.653 373.320 C 750.818 372.485, 733.267 371.035, 723.784 371.018 C 713.190 370.998, 697.767 372.842, 680.326 376.211 C 671.051 378.003, 668.883 378.148, 667.576 377.063 C 664.357 374.392, 666.953 368, 671.257 368 C 672.136 368, 677.051 366.876, 682.178 365.503 C 697.873 361.299, 717.911 359.508, 735 360.783 C 742.975 361.377, 750.243 362.150, 751.150 362.501 C 758.421 365.307, 748.452 286.669, 738.299 261.129 L 735.766 254.758 737.813 250.629 C 756.184 213.572, 764.191 130.922, 753.980 83.739 C 750.750 68.816, 747.220 62.712, 739.538 58.774 C 721.838 49.700, 638.336 84.097, 607.403 113.204 C 604.600 115.842, 601.547 118, 600.618 118 C 599.690 118, 591.604 115.554, 582.649 112.565 C 552.779 102.593, 529.493 99.484, 490.606 100.276 C 455.541 100.991, 433.428 105.047, 404.341 116.100 L 398.183 118.440 390.121 110.738 C 358.790 80.805, 295.182 52.426, 271.140 57.655 M 713 88.338 C 704.382 92.145, 692.852 98.864, 684.367 105.022 C 677.395 110.084, 656.614 130.846, 652.850 136.511 C 647.793 144.123, 647.665 143.838, 660.512 153.487 C 680.948 168.837, 695.705 184.266, 707.632 202.750 C 713.077 211.189, 715.734 212.866, 718.800 209.800 C 724.899 203.701, 695.560 165.869, 669.763 146.567 L 662.026 140.777 667.763 134.243 C 680.420 119.826, 697.116 107.072, 712.707 99.910 C 727.990 92.890, 728.486 92.595, 728.807 90.347 C 729.155 87.901, 725.732 84.993, 722.527 85.012 C 721.412 85.019, 717.125 86.515, 713 88.338 M 361 215.762 C 346.630 219.634, 333.862 231.771, 337.705 237.905 C 339.770 241.201, 342.846 240.347, 347.938 235.065 C 354.954 227.785, 361.443 225.022, 371.550 225.010 C 380.061 224.999, 382 224.154, 382 220.455 C 382 214.745, 372.583 212.640, 361 215.762 M 565 215.689 C 561.212 217.649, 559.966 221.050, 562.097 223.617 C 563.114 224.843, 564.942 225.003, 571.923 224.480 C 583.502 223.612, 591.331 227.240, 597.325 236.250 C 600.512 241.041, 601.632 242, 604.040 242 C 607.371 242, 609.482 239.056, 608.618 235.614 C 607.605 231.576, 597.458 221.523, 590.831 217.991 C 582.824 213.722, 570.862 212.657, 565 215.689 M 358.173 294.209 C 353.443 295.808, 345.302 303.471, 342.538 308.926 C 337.487 318.893, 336.541 339.583, 340.642 350.403 C 342.982 356.578, 350.224 364.742, 355.479 367.129 C 364.723 371.329, 377.426 368.913, 384.252 361.658 C 397.178 347.920, 397.670 314.145, 385.140 300.658 C 379.313 294.386, 366.624 291.352, 358.173 294.209 M 561.594 296.697 C 547.258 300.946, 536.972 321.963, 539.824 341.179 C 541.745 354.125, 549.387 366.514, 557.726 370.203 C 572.190 376.601, 588.346 369.041, 596.362 352.123 C 600.810 342.736, 601.065 323.837, 596.865 314.880 C 589.900 300.027, 575.467 292.586, 561.594 296.697 M 372.099 307.380 C 368.139 312.153, 372.244 320.318, 378.850 320.807 C 382.945 321.111, 383 321.071, 382.984 317.807 C 382.946 310.187, 375.606 303.155, 372.099 307.380 M 576.061 310.939 C 573.633 313.367, 573.386 317.912, 575.463 321.928 C 577.221 325.329, 578.746 326, 584.713 326 L 589.263 326 588.705 321.834 C 588.030 316.806, 583.236 309.619, 580.270 309.189 C 579.089 309.017, 577.195 309.805, 576.061 310.939 M 443.768 361.906 C 434.174 362.977, 430.280 367.434, 433.066 374.160 C 434.285 377.103, 445.255 386.386, 449.357 387.946 C 455.328 390.216, 470.564 382.542, 476.306 374.372 C 479.848 369.332, 478.774 365.927, 472.901 363.577 C 468.306 361.739, 453.089 360.866, 443.768 361.906 M 384 416.622 C 360.718 421.081, 343.811 435.316, 335.141 457.758 C 332.756 463.933, 332.536 465.759, 332.519 479.470 C 332.498 496.149, 332.132 496.948, 324.491 496.985 C 320.686 497.004, 319.003 499.569, 318.295 506.427 C 317.257 516.490, 323.418 523.065, 336.675 526.041 C 342.970 527.455, 346.414 526.725, 353.453 522.486 C 361.358 517.726, 363.832 517.903, 369.180 523.608 C 371.556 526.143, 375.196 530.029, 377.268 532.244 L 381.036 536.271 387.313 535.767 C 395.052 535.146, 398.485 533.426, 404.805 527.006 C 410.485 521.236, 413.294 520.694, 417.813 524.496 C 422.487 528.429, 424.083 533.892, 424.967 548.990 C 425.832 563.744, 427.171 568.416, 431.514 571.832 C 434.781 574.402, 436.124 574.504, 440.040 572.479 C 444.658 570.091, 447.037 564.219, 447.900 553.081 C 448.790 541.592, 448.670 541.839, 454.737 539.016 C 471.277 531.318, 473.931 520.520, 462.357 508.019 C 456.131 501.294, 455.912 499.935, 459.516 490.361 C 471.633 458.169, 455.229 431.584, 415.495 419.020 C 408.624 416.847, 390.163 415.442, 384 416.622 M 470.221 450.654 C 473.110 459.037, 473.230 460.027, 472.779 471.757 L 472.304 484.065 475.532 479.526 C 487.058 463.315, 486.787 446.206, 474.969 443.983 C 472.511 443.520, 469.755 442.853, 468.845 442.500 C 467.472 441.968, 467.706 443.357, 470.221 450.654 M 623.500 509.612 C 604.230 516.699, 569.783 522.068, 531.500 523.952 C 513.516 524.837, 506.294 524.759, 487.467 523.478 L 479.433 522.931 478.158 527.697 C 476.521 533.821, 473.275 538.013, 466.189 543.158 C 463.060 545.429, 460.174 547.571, 459.777 547.917 C 459.379 548.264, 458.406 551.911, 457.615 556.023 C 455.020 569.508, 452.628 574.318, 445.320 580.748 C 440.967 584.578, 438.019 588.171, 436.498 591.500 C 435.241 594.250, 430.078 605.275, 425.024 616 C 411.988 643.663, 406.035 657.351, 395.886 683 C 390.989 695.375, 386.199 707.061, 385.241 708.969 C 383.247 712.943, 377.778 717, 374.417 717 C 366.662 717, 364.374 712.914, 360.976 693 C 359.709 685.575, 358.606 679.398, 358.526 679.273 C 358.445 679.148, 354.694 680.177, 350.190 681.560 C 342.919 683.793, 340.954 684.971, 332.665 692.065 L 323.330 700.054 321.660 708.777 C 316.630 735.052, 316.356 753.840, 320.558 784.500 C 324.490 813.202, 333.887 853.610, 343.082 881.359 C 350.809 904.678, 350.709 906.396, 341.500 908.574 C 320.761 913.480, 307.646 939.197, 318.207 954.250 C 320.893 958.078, 321.646 957.717, 322.382 952.250 C 323.578 943.363, 331.699 930, 335.904 930 C 340.155 930, 341.185 934.527, 337.963 939.052 C 331.494 948.137, 329.818 958.726, 334.246 962.535 C 336.959 964.869, 346.778 967.450, 356.250 968.319 L 361 968.754 361 961.099 C 361 948.506, 368.585 935.092, 374.436 937.337 C 376.822 938.253, 376.315 942.199, 373 948.500 C 370.728 952.818, 370 955.530, 370 959.667 C 370 969.110, 369.798 969, 387.042 969 C 428.064 969, 448.760 959.849, 456.021 938.500 C 457.144 935.200, 459.622 922.600, 461.528 910.500 C 463.435 898.400, 466.375 881.075, 468.062 872 C 469.749 862.925, 471.213 854.912, 471.315 854.193 C 471.440 853.309, 466.653 851.629, 456.500 848.996 C 439.212 844.512, 434.601 842.825, 421.084 836.042 C 409.720 830.339, 408 828.895, 408 825.051 C 408 819.428, 410.161 819.278, 420.276 824.203 C 440.702 834.148, 454.927 838.681, 474.500 841.483 C 491.995 843.987, 513.469 844.977, 519.063 843.537 C 524.354 842.175, 525.784 844.872, 530.455 865.030 C 534.917 884.288, 538 902.760, 538 910.236 C 538 914.977, 536.068 917.407, 527.395 923.579 C 509.938 936, 507.030 958.703, 521.929 966.250 C 530.922 970.805, 531.500 970.471, 531.500 960.724 C 531.500 945.401, 542.251 930.092, 547.338 938.171 C 548.150 939.461, 547.513 941.709, 544.538 948.050 C 539.153 959.524, 539.241 968.529, 544.764 971.371 C 548.087 973.082, 559.940 975, 567.192 975.001 L 572.500 975.002 572.154 965.515 C 571.857 957.373, 572.116 955.392, 573.982 951.537 C 575.931 947.512, 581.073 941.975, 582.827 942.015 C 587.056 942.111, 587.367 947.978, 583.456 953.887 C 580.072 959, 579.628 968.257, 582.552 972.719 C 584.172 975.191, 584.316 975.215, 593.846 974.549 C 615.421 973.042, 638.018 965.029, 644.148 956.711 C 651.643 946.541, 652.658 942.278, 654.444 913.500 C 655.321 899.366, 657.424 879.661, 659.898 862.382 C 664.101 833.026, 667.640 798.110, 666.669 795.579 C 666.357 794.768, 664.175 793.586, 661.818 792.951 C 654.804 791.062, 648.468 787.355, 644.362 782.736 C 641.214 779.195, 639.160 777.976, 633.254 776.140 C 609.473 768.747, 604.732 746.490, 621.675 721.782 L 626.282 715.065 625.607 707.618 C 623.513 684.510, 611.681 652.810, 593.992 622.918 C 582.721 603.870, 579.280 594.672, 582.445 592.046 C 587.300 588.017, 593.048 595.567, 607.914 625.500 C 626.137 662.192, 634.859 689.098, 635.314 710.028 C 635.494 718.266, 635.389 718.696, 632.243 722.681 C 621.001 736.919, 619.287 752.435, 627.887 762.121 C 634.251 769.289, 643.051 768.740, 647.037 760.927 C 649.445 756.208, 653.138 754.040, 655.470 755.975 C 657.648 757.783, 657.374 761.045, 654.424 768.413 C 651.197 776.474, 651.878 778.081, 660.183 782.009 C 675.261 789.140, 685.693 785.468, 690.035 771.500 C 692.654 763.076, 693.274 761.969, 695.711 761.358 C 700.600 760.131, 701.553 762.705, 699.817 772.455 C 698.980 777.155, 698.599 781, 698.969 781 C 705.557 781, 717.115 772.105, 721.254 763.850 C 730.269 745.871, 731.471 709.675, 724.494 666.305 C 717.719 624.186, 703.434 588.605, 681.741 559.817 C 669.934 544.148, 632.879 507.868, 628.889 508.070 C 628.125 508.109, 625.700 508.803, 623.500 509.612 M 355.774 533.212 C 352.687 535.124, 349.132 536.337, 345.524 536.710 C 342.486 537.023, 340 537.504, 340 537.779 C 340 538.054, 341.355 542.668, 343.010 548.033 L 346.020 557.788 353.614 561.394 C 357.790 563.377, 361.665 565, 362.225 565 C 362.784 565, 370.602 561.818, 379.598 557.928 C 390.723 553.117, 398.083 550.554, 402.614 549.913 C 414.371 548.247, 413.840 548.626, 412.762 542.679 C 412.246 539.831, 411.730 537.405, 411.617 537.288 C 411.503 537.172, 407.297 539.127, 402.270 541.633 C 386.906 549.293, 376.327 547.663, 365.705 536 L 360.500 530.285 355.774 533.212 M 323 541.146 C 304.784 553.625, 275.879 580.317, 268.064 591.877 C 249.537 619.283, 246.469 647.943, 259.847 668.642 C 269.033 682.855, 286.581 690.859, 308.790 690.965 C 317.013 691.004, 322.324 688.946, 325.974 684.306 L 328.137 681.556 324.978 680.493 C 315.624 677.343, 320.376 669.951, 330.093 672.537 C 348.778 677.510, 366.897 665.339, 365.813 648.542 C 365.422 642.491, 362.730 640.198, 354.743 639.114 C 348.666 638.289, 346 636.740, 346 634.033 C 346 631.396, 349.265 628.970, 352.056 629.532 C 362.122 631.558, 366.442 629.570, 370.216 621.174 C 372.652 615.756, 372.803 605.875, 370.505 602.367 C 368.657 599.547, 365.632 599.742, 356 603.300 C 346.809 606.696, 339 605.639, 339 601 C 339 598.605, 340.697 597.402, 346 596.037 C 361.257 592.110, 365.371 585.947, 358.849 576.788 C 354.071 570.078, 338.420 567.095, 327.705 570.854 C 316.384 574.825, 307.975 590.259, 305.299 611.981 C 304.569 617.901, 304.253 618.548, 301.653 619.458 C 296.825 621.147, 295.692 618.427, 296.359 606.750 C 296.666 601.388, 296.653 597, 296.332 597 C 296.010 597, 293.091 598.350, 289.844 600 C 280.611 604.692, 276.028 603.722, 277.611 597.414 C 278.083 595.533, 280.549 593.846, 288.569 589.920 C 297.996 585.304, 299.650 584.051, 307.132 575.856 C 315.618 566.560, 320.620 563.196, 330.615 560.066 L 335.730 558.464 332.733 548.232 C 331.084 542.604, 329.233 538.014, 328.618 538.032 C 328.003 538.049, 325.475 539.450, 323 541.146 M 841.645 557.584 C 823.437 561.992, 804.089 579.539, 794.462 600.376 C 785.676 619.392, 783.952 633.034, 784.049 682.773 C 784.142 730.743, 782.346 740.575, 770.091 759.209 C 755.313 781.677, 735.971 791.109, 704.769 791.061 C 692.708 791.042, 690.847 791.289, 684.329 793.770 C 676.249 796.846, 676 797.280, 676 808.322 C 676 811.662, 675.501 819.506, 674.891 825.754 C 674.281 832.003, 673.961 837.295, 674.181 837.514 C 674.401 837.734, 680.495 838.833, 687.724 839.957 C 762.415 851.567, 823.898 806.725, 833.002 734 C 833.587 729.325, 834.301 713.125, 834.588 698 C 835.678 640.595, 839.831 625.450, 861.366 600.340 C 871.692 588.301, 874.367 577.093, 869.241 567.345 C 864.296 557.941, 854.493 554.474, 841.645 557.584 M 398.826 561.022 C 393.510 563.091, 388.686 565.076, 388.108 565.433 C 387.210 565.988, 392.858 573.025, 416.157 600.381 L 418.814 603.500 424.072 592.710 L 429.330 581.919 426.915 580.290 C 422.488 577.304, 416.543 570.530, 412.496 563.860 L 408.492 557.261 398.826 561.022 M 373.134 571.540 C 370.325 572.759, 369.879 573.374, 370.440 575.251 C 370.810 576.488, 371.655 580.425, 372.319 584 C 373.158 588.526, 374.322 591.343, 376.150 593.275 C 378.763 596.037, 381 602.571, 381 607.443 C 381 608.849, 381.563 609.985, 382.250 609.967 C 384.273 609.913, 403.053 602.571, 403.286 601.743 C 403.538 600.852, 378.077 569.982, 377.139 570.039 C 376.787 570.061, 374.985 570.736, 373.134 571.540 M 396 615.887 C 388.575 618.494, 382.395 621.049, 382.267 621.564 C 382.054 622.417, 398.870 644, 399.748 644 C 400.136 644, 402.624 638.655, 410.412 621.089 L 414.886 611 412.193 611.073 C 410.712 611.114, 403.425 613.280, 396 615.887 M 374.541 637.750 C 376.296 652.254, 375.286 658.593, 369.560 669 C 367.624 672.520, 369.241 688.495, 372.615 699.176 L 375.213 707.399 376.712 703.949 C 379.487 697.562, 395 656.709, 395 655.788 C 395 654.284, 376.075 631, 374.853 631 C 374.045 631, 373.956 632.919, 374.541 637.750" stroke="none" fill="#1a1a1a" fill-rule="evenodd"/>
</svg>