<svg xmlns="http://www.w3.org/2000/svg" width="1024" height="1024" viewBox="0 0 1024 1024" version="1.1">
	<path d="M 255.552 28.284 C 234.155 50.616, 224.795 121.255, 236.644 171 C 241.057 189.531, 249.282 211.119, 255.425 220.297 L 258.635 225.093 253.330 238.343 C 250.411 245.630, 246.034 258.097, 243.602 266.046 C 239.516 279.402, 234.037 293.214, 226.020 310.366 L 222.811 317.233 217.655 316.541 C 214.820 316.161, 207.775 315.218, 202 314.445 C 187.460 312.498, 162.658 312.503, 161.040 314.452 C 157.468 318.756, 161.366 320.750, 173.644 320.900 C 189.821 321.098, 219.010 324.646, 218.984 326.411 C 218.976 327.010, 218.292 330.200, 217.466 333.500 C 216.639 336.800, 215.685 344.687, 215.345 351.027 L 214.726 362.555 203.613 365.238 C 191.225 368.228, 167.987 375.456, 163.750 377.636 C 160.718 379.197, 160.085 382.435, 162.621 383.408 C 163.513 383.750, 170.826 382.271, 178.871 380.121 C 193.688 376.161, 204.226 373.599, 211.500 372.186 L 215.500 371.409 218.641 384.138 C 224.118 406.332, 234.904 425.924, 249.600 440.371 L 257.700 448.334 253.309 454.615 C 244.585 467.095, 238.023 485.610, 238.007 497.792 C 237.998 504.261, 240.454 516.540, 243.096 523.243 L 245.053 528.210 241.220 535.337 C 237.543 542.173, 237.205 542.495, 232.943 543.217 C 217.893 545.766, 197.941 564.094, 190.140 582.535 C 179.360 608.023, 184.346 636.140, 201.334 645.647 C 202.763 646.447, 202.509 647.874, 199.049 658.523 C 192.419 678.928, 190.632 690.907, 193.458 696 C 194.717 698.268, 194.617 698.802, 192.377 701.744 C 184.992 711.446, 184.281 719.833, 190.267 726.645 C 191.885 728.486, 192 729.337, 191.081 732.645 C 190.358 735.252, 190.009 765.700, 190.006 826.705 L 190 916.909 186.750 917.410 C 184.963 917.686, 179.675 918.420, 175 919.042 C 147.551 922.695, 122.965 933.431, 117.398 944.197 C 115.363 948.132, 115.412 954.959, 117.507 959.373 C 133.002 992.026, 279.734 995.108, 311.397 963.445 C 331.290 943.552, 306.137 925.023, 248.242 916.923 L 239.984 915.768 240.031 817.634 C 240.056 763.660, 239.781 718.048, 239.419 716.274 C 238.835 713.418, 239.327 712.388, 243.720 707.274 C 246.449 704.098, 251.971 695.425, 255.991 688 C 260.011 680.575, 263.783 673.726, 264.372 672.780 C 265.358 671.198, 265.876 671.304, 270.809 674.088 C 287.591 683.559, 307.342 688.933, 328.250 689.718 L 343 690.272 343.028 693.386 C 343.272 720.902, 349.913 750.557, 360.809 772.788 C 363.546 778.373, 363.578 778.633, 362.236 784.500 C 360.269 793.103, 359.480 817.628, 360.926 825.268 C 364.078 841.924, 372.386 860.029, 382.671 872.656 C 385.141 875.689, 387.013 878.292, 386.831 878.439 C 386.649 878.586, 382.225 880.786, 377 883.328 C 340.147 901.254, 336.047 931.242, 368.252 947.313 C 402.668 964.486, 451.962 963.040, 479.945 944.038 C 497.407 932.179, 500.947 922.606, 501.036 887 C 501.099 861.957, 502.311 856.463, 507.750 856.556 C 509.538 856.586, 515.457 856.699, 520.905 856.806 L 530.809 857 534.043 862.730 C 540.486 874.147, 554.772 889.968, 564.319 896.261 L 568.137 898.778 562.199 903.347 C 535.431 923.944, 532.104 953.557, 555.274 964.964 C 558.729 966.664, 563.118 968.208, 565.028 968.394 C 566.937 968.580, 571.875 969.805, 576 971.116 C 582.536 973.194, 585.363 973.491, 598 973.429 C 633.550 973.255, 662.050 959.371, 679.919 933.523 C 695.371 911.171, 697.397 895.702, 688.957 864.500 C 682.518 840.698, 682.671 836.002, 690.650 812.500 C 694.011 802.600, 697.301 792.175, 697.960 789.333 L 699.160 784.166 704.330 783.472 C 745.792 777.907, 784.011 755.619, 803.456 725.665 C 819.506 700.943, 825.080 680.651, 826.992 640 C 828.587 606.076, 834.943 590.537, 856.137 568.750 C 868.109 556.442, 872 548.928, 871.999 538.116 C 871.995 496.021, 807.835 496.069, 774.530 538.189 C 759.210 557.563, 754.302 574.690, 751.969 616.917 C 749.201 667.017, 737.666 689.940, 709.085 702.136 C 700.246 705.908, 700.612 706.083, 698.160 696.919 C 692.134 674.406, 672.171 634.289, 658.080 616.375 C 656.605 614.499, 656.413 613.244, 657.071 609.779 C 659.888 594.952, 659.084 576.516, 654.953 561.215 C 650.030 542.975, 632.078 516.929, 619.152 509.271 L 614.804 506.695 629.152 502.007 C 675.863 486.746, 713.230 461.405, 737.858 428.285 C 742.321 422.282, 743.915 420.959, 750.165 418.063 C 754.850 415.892, 759.418 412.720, 763.313 408.933 C 769.097 403.308, 769.263 403, 768.721 398.953 C 768.404 396.594, 767.125 393.629, 765.780 392.138 C 760.437 386.216, 760.432 386.350, 766.092 384.469 C 771.652 382.623, 778.662 377.018, 780.082 373.285 C 781.452 369.681, 779.519 366.937, 771.779 361.500 C 763.118 355.416, 757.177 347.675, 753.146 337.222 C 750.430 330.180, 749.147 324.646, 743.005 293.500 C 741.921 288, 738.799 276.836, 736.068 268.691 L 731.103 253.882 734.704 249.191 C 747.651 232.326, 763.322 187.868, 767.551 156 C 768.953 145.437, 769.640 112.335, 768.588 106 C 768.360 104.625, 767.880 100.800, 767.522 97.500 C 764.873 73.100, 755.472 44.118, 747.473 35.688 C 742.254 30.189, 735.197 29.655, 716.941 33.379 C 678.428 41.235, 639.902 59.928, 593.794 93.132 L 588.088 97.241 574.794 93.137 C 518.235 75.677, 451.803 74.348, 407.036 89.783 L 401.571 91.667 391.036 83.022 C 350.557 49.807, 296.160 24.123, 266.079 24.022 C 259.811 24.001, 259.559 24.102, 255.552 28.284 M 261.619 35.255 C 242.493 60.330, 235.812 125.295, 247.547 172.086 C 251.006 185.877, 255.324 198.633, 259.544 207.525 L 263.217 215.266 270.493 201.214 C 282.104 178.789, 291.739 164.800, 306.775 148.538 L 315.062 139.575 311.781 137.900 C 309.976 136.979, 303.100 134.560, 296.500 132.525 C 282.785 128.295, 281.586 127.789, 282.115 126.464 C 283.424 123.187, 307.857 126.657, 317.205 131.447 L 321.911 133.858 324.455 131.856 C 329.323 128.028, 327.355 119.766, 318.356 106.240 C 309.102 92.333, 285.908 70.534, 273.878 64.438 C 265.748 60.319, 267.879 56.884, 276.500 60.210 C 288.777 64.947, 308.565 80.526, 320.711 95.016 C 327.391 102.986, 335 116.598, 335 120.578 C 335 123.319, 337.096 123.794, 339.011 121.486 C 342.328 117.490, 367.270 104.335, 383.500 98.022 C 391.634 94.858, 391.690 94.747, 387.115 90.830 C 361.644 69.028, 318.068 46.488, 282.500 36.715 C 263.130 31.394, 264.492 31.489, 261.619 35.255 M 726.142 41.569 C 683.853 50.545, 634.419 73.925, 596.607 102.832 C 591.030 107.096, 590.521 107.281, 587.107 106.302 C 539.492 92.637, 520.176 89.660, 479 89.644 C 450.383 89.632, 441.177 90.809, 417.324 97.530 C 374.113 109.706, 340.484 128.263, 316.386 153.229 C 298.874 171.372, 291.612 182.363, 276.274 213.942 C 262.575 242.146, 259.757 248.879, 253.234 269 C 250.470 277.525, 244.749 292.299, 240.520 301.832 C 236.291 311.365, 232.982 319.301, 233.166 319.467 C 233.349 319.634, 237.287 320.744, 241.916 321.935 C 253.730 324.974, 279.876 333.689, 282.669 335.519 C 285.301 337.243, 285.653 339.213, 283.629 340.893 C 282.580 341.764, 279.595 341.193, 270.879 338.456 C 255.370 333.586, 234.056 328.007, 230.944 328.003 C 228.523 328, 228.298 328.466, 226.694 336.836 C 225.762 341.696, 225 349.142, 225 353.382 L 225 361.091 228.250 360.545 C 230.038 360.246, 236.900 359.555, 243.500 359.010 C 271.402 356.709, 281.828 358.518, 277.367 364.887 C 275.996 366.844, 275.271 366.957, 267.692 366.388 C 260.270 365.831, 227.298 368.406, 226.035 369.642 C 225.025 370.630, 229.323 387.997, 232.682 396.500 C 238.385 410.940, 244.452 420.369, 255.079 431.310 L 264.658 441.172 271.242 436.569 C 298.584 417.456, 331.543 418.609, 353.830 439.458 C 368.368 453.057, 376.008 470.306, 376.286 490.153 L 376.410 499.033 379.955 499.974 C 393.098 503.461, 432.242 510, 439.973 510 C 445.106 510, 447 510.827, 447 513.068 C 447 517.989, 421.152 519.176, 401.628 515.151 C 395.649 513.918, 390.677 513.043, 390.580 513.205 C 389.121 515.646, 373.743 566.473, 370.069 581 C 346.171 675.490, 347.538 732.089, 374.755 775 C 399.315 813.723, 453.362 840.681, 518.754 846.825 C 525.967 847.503, 526.952 847.405, 526.561 846.050 C 523.394 835.066, 523.342 811.326, 526.463 801 C 531.136 785.539, 536.283 775.821, 538.930 777.457 C 540.504 778.430, 540.051 781.576, 536.474 794.500 C 532.360 809.362, 532.340 830.609, 536.427 843 C 544.312 866.904, 558.628 883.196, 584.250 897.424 C 591.471 901.434, 592.511 903.354, 588.461 905.200 C 586.443 906.119, 584.875 906.022, 580.823 904.726 L 575.724 903.096 569.943 907.544 C 546.824 925.334, 541.576 951.840, 560.246 956.526 C 562.846 957.178, 562.860 957.153, 561.772 953.608 C 559.271 945.458, 564.207 934.642, 573.005 928.997 C 577.545 926.084, 578.305 925.876, 579.622 927.193 C 580.938 928.510, 580.692 929.179, 577.483 933.021 C 571.051 940.719, 569.988 943.748, 570.858 951.894 C 571.292 955.951, 572.246 959.623, 573.062 960.369 C 574.903 962.056, 585.979 964, 593.747 964 L 599.764 964 598.426 960.250 C 594.706 949.826, 600.676 935.839, 611.159 930.418 C 616.927 927.435, 617.474 930.280, 612.161 935.632 C 606.145 941.694, 604.397 947.415, 606.427 954.398 C 608.664 962.092, 610.994 963.539, 618.699 962.017 C 637.284 958.345, 652.465 949.856, 665.366 935.921 C 684.186 915.594, 688.174 896.777, 679.701 868.274 C 672.130 842.803, 672.202 836.244, 680.324 811.973 C 690.710 780.932, 693.181 767.573, 693.359 741.500 C 693.608 705.111, 681.377 668.686, 656.496 631.721 L 653.280 626.942 650.538 634.721 C 641.725 659.727, 627.404 676.167, 604.500 687.573 C 569.376 705.064, 525.939 703.496, 477.500 682.988 C 472.550 680.892, 465.774 678.472, 462.441 677.611 C 443.553 672.727, 423.926 661.122, 409 646.011 C 397.010 633.873, 393.751 624.075, 397.390 611.106 C 398.857 605.880, 398.870 604.979, 397.519 602.389 C 395.222 597.984, 396.437 588.858, 400.320 581.348 C 401.801 578.484, 412.503 569.498, 415.995 568.188 C 417.002 567.809, 419.328 565.254, 421.163 562.508 C 429.651 549.810, 449.798 546.451, 466 555.034 C 468.075 556.133, 472.211 557.029, 476.159 557.235 C 488.041 557.856, 507.100 569.369, 511.461 578.560 C 513.612 583.091, 519.079 585.693, 530.184 587.471 L 538.128 588.743 543.891 584.501 C 552.770 577.965, 562.037 564.787, 567.616 550.764 C 569.554 545.892, 571.580 544.180, 573.334 545.934 C 576.086 548.686, 567.001 570.708, 557.630 584 C 555.109 587.575, 553.374 590.607, 553.773 590.738 C 554.173 590.869, 557.650 591.319, 561.500 591.738 C 567.579 592.400, 568.500 592.763, 568.500 594.500 C 568.500 600.090, 550.804 601.240, 530.002 597 C 513.244 593.585, 503.848 588.829, 499.625 581.624 C 496.323 575.988, 490.016 570.381, 483.640 567.413 C 475.662 563.698, 474.677 564.015, 477.108 569.512 C 480.807 577.874, 475.694 578.650, 469.443 570.676 C 460.396 559.133, 444.819 555.902, 433.542 563.228 C 428.300 566.633, 428.499 567.548, 435.310 571.357 C 442.011 575.104, 449 581.273, 449 583.441 C 449 585.585, 445.909 586.186, 443.609 584.489 C 436.042 578.907, 434.159 577.828, 429.657 576.491 C 420.438 573.753, 415.840 575.400, 409.493 583.713 C 402.623 592.711, 403.960 598.257, 413.310 599.543 C 426.144 601.308, 440.907 610.493, 437.073 614.327 C 436.256 615.144, 434.401 614.583, 430.098 612.217 C 422.151 607.848, 416.216 607.086, 411.732 609.857 C 407.386 612.543, 404.519 618.622, 405.395 623.293 C 407.975 637.044, 437.771 660.117, 462.500 667.515 C 467.450 668.995, 477.575 672.599, 485 675.524 C 514.222 687.032, 526.371 689.532, 552.500 689.414 C 569.734 689.336, 572.423 689.081, 581.429 686.676 C 624.988 675.043, 649.099 641.795, 648.980 593.526 C 648.896 559.397, 632.995 527.721, 608.618 513.121 L 602.976 509.741 589.760 512.436 C 563.214 517.850, 530.905 518.341, 530.193 513.342 C 529.823 510.751, 529.092 510.932, 554 507.439 C 632.547 496.423, 686.357 472.096, 722.225 431.386 L 728.951 423.753 726.997 421.270 C 724.095 417.580, 725.747 415.636, 733.585 413.514 C 747.926 409.632, 759.669 401.221, 756.689 396.966 C 754.762 394.216, 748.515 390.173, 742.593 387.844 C 736.609 385.492, 734 383.380, 734 380.890 C 734 378.859, 735.873 378.426, 748.500 377.545 C 758.221 376.866, 763.091 375.597, 766.170 372.939 C 768.471 370.953, 768.475 370.913, 766.500 369.715 C 765.400 369.048, 761.704 365.682, 758.286 362.236 C 747.392 351.251, 740.699 334.671, 735.437 305.636 C 732.168 287.591, 728.591 273.849, 724.355 263.059 C 720.192 252.455, 720.111 253.590, 725.602 245.403 C 753.707 203.490, 766.014 132.773, 754.436 79.726 C 750.912 63.581, 741.631 40.185, 738.434 39.390 C 737.920 39.263, 732.389 40.243, 726.142 41.569 M 715 72.404 C 682.970 85.647, 652.422 112.121, 639.550 137.793 C 634.755 147.356, 634.034 150.953, 636.500 153 C 637.325 153.685, 638 155.013, 638 155.952 C 638 157.044, 639.890 158.508, 643.250 160.019 C 663.051 168.924, 682.187 188.534, 688.815 206.714 C 691.248 213.386, 693.119 215.552, 695.620 214.592 C 701.921 212.174, 688.505 185.880, 672.337 168.957 L 664.931 161.206 668.288 159.131 C 670.134 157.990, 676.337 155.208, 682.072 152.949 C 694.491 148.056, 697 146.566, 697 144.084 C 697 141.095, 694.770 140.981, 684.837 143.460 C 674.587 146.019, 666.924 148.842, 659.958 152.625 L 655.416 155.092 650.717 152.466 C 644.690 149.097, 644.641 148.988, 646.888 143.840 C 656.410 122.028, 693.819 89.094, 722.332 77.423 C 728.268 74.993, 730.500 73.590, 730.500 72.290 C 730.500 69.490, 721.896 69.553, 715 72.404 M 344.500 181.399 C 337.750 183.534, 333.769 186.055, 327.214 192.350 C 319.210 200.036, 316.327 204.484, 318.023 206.528 C 320.301 209.273, 323.578 208.221, 327.443 203.505 C 334.809 194.515, 344.061 189.944, 355.490 189.647 C 363.731 189.434, 364.998 187.695, 360.405 182.901 C 357.252 179.610, 351.789 179.094, 344.500 181.399 M 531.500 189.681 C 527.357 190.366, 526 191.740, 526 195.250 C 526 198.176, 526.102 198.239, 529.842 197.641 C 539.745 196.058, 554.040 202.936, 565.608 214.851 C 573.337 222.811, 576.635 224.600, 577.698 221.407 C 578.201 219.895, 567.016 203.213, 562.881 199.307 C 555.598 192.430, 541.337 188.055, 531.500 189.681 M 297.859 270.221 C 290.909 275.766, 294.305 292.622, 304.166 301.531 C 322.399 318.003, 350.010 311.644, 364.376 287.665 C 370.870 276.825, 366.835 276.053, 356.248 286.109 C 346.399 295.465, 340.223 298.353, 331.173 297.835 C 319.653 297.175, 308.253 287.443, 304.195 274.803 C 302.437 269.329, 300.622 268.016, 297.859 270.221 M 495.979 284.013 C 495.188 284.502, 494.458 287.346, 494.197 290.951 C 493.391 302.091, 502.486 315.666, 514.788 321.685 C 525.652 327, 545.804 326.129, 558.375 319.802 C 569.564 314.170, 579.283 301.505, 577.008 295.521 C 575.823 292.405, 576.293 292.202, 566.880 299.900 C 563.921 302.320, 558.125 305.920, 554 307.900 C 534.694 317.166, 512.026 309.413, 502.974 290.446 C 499.919 284.044, 498.315 282.569, 495.979 284.013 M 388.667 297.434 C 376.669 300.659, 372.308 309.830, 377.735 320.426 C 378.559 322.035, 383.231 327.547, 388.116 332.676 C 397.961 343.010, 397.952 342.985, 395.452 353.803 C 392.324 367.337, 384.935 373.530, 372 373.459 C 354.059 373.360, 344 364.662, 344 349.248 C 344 344.127, 341.861 341.040, 339.608 342.910 C 338.356 343.949, 338 346.172, 338 352.951 C 338 361.055, 338.219 361.988, 341.169 366.442 C 347.230 375.592, 359.738 382, 371.538 382 C 377.836 382, 377.007 380.210, 380.504 401.355 C 388.134 447.498, 401.698 466.034, 427.893 466.117 C 455.563 466.205, 474.729 433.924, 474.966 386.832 C 474.999 380.329, 475.085 380.110, 478.430 378.043 C 483.404 374.969, 487.758 369.613, 488.984 365.058 C 490.818 358.248, 487.923 344.952, 484.304 343.563 C 482.405 342.834, 481.749 344.681, 481.515 351.412 C 481.026 365.504, 475.690 373.471, 464.405 376.957 C 440.765 384.258, 407.387 369.275, 407.644 351.478 C 407.779 342.165, 411.756 337.860, 425.169 332.512 C 444.057 324.980, 445.919 311.166, 429.364 301.386 C 421.056 296.479, 399.874 294.422, 388.667 297.434 M 398.500 305.428 C 397.950 305.653, 395.787 306.123, 393.694 306.474 C 383.904 308.114, 383.712 313.390, 393.055 323.994 C 401.667 333.767, 401.864 333.790, 415.981 326.737 C 431.898 318.783, 433.672 313.922, 422.629 308.519 C 417.584 306.051, 401.897 304.041, 398.500 305.428 M 586.651 350.027 C 569.809 351.631, 559.794 353.373, 559.249 354.793 C 558.294 357.282, 560.502 357.515, 577.154 356.682 C 610.465 355.014, 636.406 357.114, 661.777 363.532 C 672.722 366.301, 676.322 366.413, 676.739 364 C 677.186 361.409, 675.553 360.043, 669.434 357.888 C 650.003 351.043, 612.941 347.524, 586.651 350.027 M 553.598 381.842 C 552.446 383.706, 557.043 385.650, 573.907 390.428 C 602.621 398.565, 626.004 408.882, 647.350 422.833 C 655.763 428.331, 659.512 428.609, 658.811 423.682 C 658.044 418.299, 625.013 399.703, 602.500 391.982 C 581.494 384.777, 555.159 379.316, 553.598 381.842 M 438 413.614 C 418.273 416.558, 401 429.488, 401 441.309 C 401 444.685, 408.710 452.518, 414.780 455.310 C 421.516 458.408, 434.770 458.396, 440.613 455.288 C 449.265 450.684, 458.805 436.261, 462.417 422.320 C 465.151 411.771, 465.290 411.985, 455.750 412.098 C 451.212 412.152, 443.225 412.834, 438 413.614 M 305 434.938 C 302.164 435.776, 302.193 436.533, 305.287 442.461 L 307.500 446.703 316.645 444.075 L 325.790 441.446 324.376 438.748 C 323.599 437.264, 322.100 435.589, 321.047 435.025 C 318.887 433.869, 308.802 433.815, 305 434.938 M 326 435.440 C 326 437.463, 328.597 440.985, 329.760 440.539 C 330.532 440.242, 332.117 440, 333.282 440 C 334.618 440, 335.049 439.650, 334.450 439.052 C 333.298 437.903, 326 434.783, 326 435.440 M 288.140 440.565 C 283.543 442.418, 277.819 445.412, 275.421 447.217 C 270.981 450.561, 269.586 452.795, 272.750 451.495 C 280.415 448.345, 289 447.229, 289 449.382 C 289 450.341, 286.095 451.287, 279.515 452.472 C 270.501 454.095, 264.183 456.887, 263.278 459.649 C 263.035 460.387, 266.358 461.420, 272.581 462.540 C 281.690 464.180, 282.318 464.183, 283.214 462.582 C 285.654 458.221, 290.338 454.213, 296.150 451.512 C 299.643 449.889, 302.648 448.474, 302.829 448.368 C 303.010 448.262, 302.365 445.661, 301.396 442.588 C 299.320 436.002, 299.421 436.017, 288.140 440.565 M 334.323 442.247 L 330.146 443.253 332.781 448.627 L 335.417 454 340.458 453.882 C 343.231 453.817, 346.850 453.458, 348.500 453.085 L 351.500 452.407 345.683 446.703 C 342.483 443.567, 339.558 441.054, 339.183 441.120 C 338.807 441.186, 336.620 441.693, 334.323 442.247 M 315.829 447.892 L 308.158 450.500 309.544 453.122 C 310.835 455.565, 311.223 455.688, 315.215 454.916 C 317.572 454.460, 322.087 454.068, 325.250 454.044 C 331.520 453.996, 331.812 453.627, 329.902 448.149 C 328.545 444.255, 326.630 444.220, 315.829 447.892 M 299 454.084 C 293.799 456.442, 290.399 459.369, 288.403 463.204 C 287.021 465.859, 287.058 465.920, 290.433 466.553 C 294.073 467.236, 296.415 466.480, 295.457 464.931 C 295.141 464.419, 295.584 464, 296.441 464 C 297.298 464, 298 463.587, 298 463.081 C 298 462.576, 300.191 461.173, 302.868 459.963 C 307.608 457.821, 307.708 457.686, 306.649 454.881 C 305.362 451.472, 304.874 451.421, 299 454.084 M 317.500 458.232 C 314.750 458.797, 312.392 459.346, 312.261 459.452 C 311.260 460.259, 315.573 467.994, 316.769 467.535 C 317.556 467.233, 321.261 466.480, 325.002 465.863 C 334.129 464.355, 334.917 463.802, 332.962 460.275 C 331.186 457.071, 326.296 456.425, 317.500 458.232 M 337.370 459.250 C 337.701 460.488, 337.979 461.835, 337.986 462.244 C 338.001 463.026, 357 463.165, 357 462.382 C 357 462.133, 356.273 460.820, 355.385 459.465 C 352.979 455.793, 336.390 455.595, 337.370 459.250 M 303.584 462.508 C 301.574 463.871, 298.970 465.881, 297.797 466.974 L 295.664 468.962 299.534 470.579 C 302.686 471.895, 304.101 471.987, 307.160 471.070 C 311.960 469.632, 312.305 468.973, 310.509 464.675 C 308.497 459.861, 307.804 459.644, 303.584 462.508 M 358 470.844 C 358.476 477.185, 358.628 477.515, 361.198 477.811 C 364.191 478.157, 364.127 476.932, 360.732 468.872 C 358.297 463.090, 357.463 463.692, 358 470.844 M 341.651 465.658 C 340.356 466.027, 339.951 466.831, 340.299 468.342 C 340.573 469.529, 341.354 473.087, 342.036 476.250 C 343.416 482.651, 344.362 483.129, 350.532 480.551 C 353.874 479.155, 353.999 478.910, 353.985 473.801 C 353.976 470.885, 353.582 467.888, 353.108 467.141 C 352.204 465.714, 344.811 464.757, 341.651 465.658 M 326.714 468.924 C 318.434 471.056, 318.092 471.414, 319.225 476.778 C 320.629 483.425, 326.105 486.536, 333.274 484.760 C 337.936 483.605, 338.476 483.197, 338.275 480.982 C 337.731 474.971, 335.632 467.007, 334.613 467.088 C 334.001 467.136, 330.447 467.962, 326.714 468.924 M 256.027 469.949 C 254.210 473.344, 254.812 473.776, 266.675 477.577 C 291.345 485.483, 321.745 504.167, 342.596 524.240 C 351.278 532.597, 351.768 532.913, 353.346 531.170 C 357.546 526.529, 355.034 521.202, 343.346 509.966 C 317.191 484.823, 289.877 470.441, 264.777 468.597 C 257.856 468.089, 256.948 468.229, 256.027 469.949 M 309 474.815 C 309 475.263, 310.631 476.407, 312.623 477.357 C 315.896 478.918, 316.186 478.928, 315.623 477.461 C 315.281 476.567, 315 475.423, 315 474.918 C 315 474.413, 313.650 474, 312 474 C 310.350 474, 309 474.367, 309 474.815 M 250.025 483.954 C 248.628 486.563, 247.474 498.001, 248.608 497.996 C 249.098 497.994, 250.963 497.101, 252.750 496.011 C 256.477 493.738, 257.066 489.962, 254.474 484.950 C 252.695 481.510, 251.479 481.237, 250.025 483.954 M 358 486.500 C 358 490.961, 358.029 491, 361.441 491 C 365.735 491, 366.449 489.891, 364.994 485.480 C 364.031 482.563, 363.373 482, 360.922 482 C 358.125 482, 358 482.193, 358 486.500 M 259.418 487.212 C 260.251 492.420, 259.246 492.019, 267.771 490.547 C 275.704 489.178, 277.299 488.412, 274.393 487.365 C 273.352 486.990, 270.346 485.855, 267.713 484.842 C 259.884 481.830, 258.615 482.192, 259.418 487.212 M 347.500 484.830 C 342.656 486.448, 342.470 486.653, 341.557 491.385 C 340.698 495.836, 340.812 496.430, 342.847 498.077 C 347.484 501.832, 354.398 493.651, 354.958 483.750 C 355.019 482.669, 353.169 482.937, 347.500 484.830 M 333.104 488.914 C 332.028 489.596, 332.429 490.171, 334.854 491.425 C 337.981 493.042, 338 493.036, 338 490.526 C 338 487.878, 335.856 487.172, 333.104 488.914 M 276 493.107 C 274.075 493.538, 270.025 494.158, 267 494.486 L 261.500 495.081 261.500 501.541 C 261.500 505.093, 261.528 508, 261.563 508 C 261.597 508, 263.958 506.875, 266.808 505.500 C 269.658 504.125, 272.442 503, 272.995 503 C 274.985 503, 273.937 504.605, 270.750 506.441 C 263.305 510.729, 258.499 519, 263.452 519 C 264.186 519, 265.008 518.421, 265.280 517.712 C 265.552 517.004, 269.392 515.165, 273.813 513.626 C 282.587 510.572, 283.358 509.736, 281.947 504.814 C 281.426 502.999, 281 499.624, 281 497.316 C 281 492.386, 280.626 492.072, 276 493.107 M 286.514 500.250 C 286.905 503.688, 287.377 506.666, 287.564 506.868 C 288.105 507.456, 301.402 504.744, 302.446 503.833 C 303.663 502.772, 301.177 500.936, 293.271 497.057 C 285.301 493.146, 285.686 492.964, 286.514 500.250 M 358.770 494.686 C 357.102 495.123, 356.200 497.473, 354.167 506.681 C 353.267 510.755, 353.342 510.940, 357.097 513.958 L 360.950 517.054 362.524 513.289 C 364.628 508.253, 365.946 502.320, 365.976 497.750 C 366.001 493.843, 364.469 493.192, 358.770 494.686 M 252.250 500.780 C 247.397 502.645, 247.074 503.926, 249.594 511.322 C 251.007 515.469, 251.521 516, 254.125 516 C 257.620 516, 257.789 515.596, 258.222 506.250 C 258.592 498.271, 258.648 498.322, 252.250 500.780 M 348.817 502.016 C 347.393 503.581, 347.348 504.044, 348.523 505.019 C 350.408 506.584, 352 505.403, 352 502.441 C 352 499.579, 351.139 499.464, 348.817 502.016 M 296.750 508.793 L 289 511.406 289 516.833 L 289 522.260 293.250 521.675 C 308.814 519.532, 309 519.410, 309 511.309 C 309 504.919, 308.525 504.822, 296.750 508.793 M 374 511.323 C 374 512.600, 371.985 517.784, 369.523 522.843 C 356.809 548.966, 339.611 563, 320.314 563 C 316.602 563, 316.293 563.252, 313.820 568.294 L 311.224 573.587 316.878 579.622 C 326.967 590.389, 338.193 591.895, 353.497 584.534 C 360.496 581.167, 360.997 580.707, 361.985 576.728 C 364.413 566.958, 367.728 556.197, 375.051 534.315 L 382.810 511.129 379.756 510.065 C 375.214 508.481, 374 508.747, 374 511.323 M 314.619 514.154 C 313.523 519.634, 313.707 520.090, 316.500 518.818 C 319.517 517.443, 319.875 513.539, 317.119 512.064 C 315.504 511.200, 315.151 511.495, 314.619 514.154 M 280 515.454 C 278.075 516.194, 274.385 517.347, 271.800 518.016 C 262.355 520.460, 262.759 522.072, 274.005 526.806 C 279.485 529.113, 284.313 531, 284.734 531 C 285.836 531, 285.533 514.667, 284.425 514.363 C 283.916 514.223, 281.925 514.714, 280 515.454 M 820.161 518.032 C 792.375 525.311, 771.408 549.008, 764.891 580.500 C 763.106 589.128, 762.676 594.572, 761.496 623.500 C 759.664 668.410, 746.859 691.410, 712.807 710.951 L 703.308 716.403 703.732 735.451 C 704.022 748.520, 703.718 757.561, 702.763 764.250 C 701.127 775.704, 700.270 775.113, 714.089 772.057 C 742.342 765.808, 764.515 753.920, 783 735.110 C 806.426 711.271, 815.638 685.382, 817.553 638 C 818.858 605.736, 826.482 586.954, 847.833 563.408 C 858.550 551.589, 861.449 546.296, 861.474 538.500 C 861.530 520.601, 843.831 511.832, 820.161 518.032 M 317.750 522.130 C 313.576 524.860, 313 525.662, 313 528.746 C 313 532.241, 313.016 532.253, 316.750 531.661 C 318.813 531.334, 323.087 530.764, 326.250 530.395 L 332 529.725 332 525.977 C 332 518.798, 325.520 517.049, 317.750 522.130 M 308.500 524.055 C 307.400 524.498, 303.125 524.898, 299 524.945 C 290.119 525.046, 289.309 525.443, 288.850 529.915 C 288.530 533.033, 288.895 533.572, 293.057 536.130 C 300.539 540.730, 307.538 537.346, 309.809 528.032 C 311.067 522.870, 311.112 523.005, 308.500 524.055 M 250.186 533.250 L 247.094 540.500 249.713 542.670 C 251.153 543.863, 253.269 545.283, 254.416 545.825 C 255.562 546.366, 266.442 551.578, 278.592 557.405 C 290.743 563.232, 301.146 568, 301.709 568 C 302.681 568, 306.318 563.061, 308.834 558.326 C 310.741 554.736, 288.887 540.648, 266.533 531.056 C 260.052 528.275, 254.419 526, 254.014 526 C 253.610 526, 251.887 529.263, 250.186 533.250 M 335.971 532.083 C 335.234 533.963, 334.451 535.837, 334.232 536.250 C 333.383 537.848, 337.780 536.900, 339.371 535.143 C 340.948 533.400, 340.937 533.143, 339.182 530.976 L 337.312 528.667 335.971 532.083 M 315.739 535.041 C 311.256 535.813, 311.679 535.371, 309.804 541.226 C 307.503 548.409, 310.937 550.477, 321.206 548.091 C 326.773 546.798, 330 542.253, 330 535.705 C 330 533.784, 324.521 533.528, 315.739 535.041 M 341.025 539.678 C 339.106 541.672, 337.927 542.088, 335.367 541.672 C 332.736 541.245, 331.842 541.593, 330.567 543.539 C 328.777 546.270, 328.510 549, 330.032 549 C 333.809 549, 345 541.853, 345 539.440 C 345 537.034, 343.482 537.125, 341.025 539.678 M 233.063 553.027 C 211.250 560.872, 197.109 580.951, 195.345 606.583 C 194.068 625.143, 200.603 637.518, 213.766 641.465 C 219.147 643.079, 227.306 637.319, 230.506 629.646 C 233.529 622.399, 231.216 619.336, 217.537 612.470 C 209.905 608.638, 209.528 606.453, 216.529 606.621 C 221.408 606.739, 226.151 608.694, 234.769 614.140 C 238.742 616.651, 241.176 615.500, 246.013 608.823 C 250.906 602.069, 252.808 594.656, 250.669 590.683 C 248.733 587.089, 242.996 583.123, 235.500 580.198 C 231.966 578.819, 230.406 577.624, 230.180 576.124 C 229.683 572.815, 235.449 573.861, 247.228 579.217 L 253.956 582.276 255.946 579.888 C 263.078 571.327, 260.603 560.160, 250.429 555 C 247.718 553.625, 245.350 552.163, 245.167 551.750 C 244.568 550.403, 238.614 551.031, 233.063 553.027 M 267.500 567.777 C 267.500 573.821, 267.095 575.233, 263.750 580.848 C 260.942 585.562, 260 588.246, 260 591.534 C 260 600.186, 252.276 615.907, 244.706 622.662 C 242.091 624.994, 239.713 628.338, 238.644 631.186 C 234.879 641.208, 227.091 647.929, 218.117 648.900 L 212.569 649.500 209.763 657 C 206.523 665.661, 203.237 677.933, 202.801 683 L 202.500 686.499 207.565 687.118 C 210.350 687.458, 218 689.629, 224.565 691.943 C 240.602 697.595, 239.999 697.441, 240.004 695.867 C 240.007 695.115, 243.430 688.200, 247.612 680.500 C 259.669 658.300, 277 624.450, 277 623.102 C 277 622.425, 275.650 620.735, 274 619.347 C 272.350 617.958, 271.006 615.850, 271.014 614.661 C 271.031 612.043, 284.727 591.093, 292.526 581.756 C 298.105 575.077, 298.137 575.003, 295.777 574.105 C 294.466 573.607, 287.612 570.454, 280.546 567.100 C 273.480 563.745, 267.654 561, 267.599 561 C 267.545 561, 267.500 564.049, 267.500 567.777 M 300.250 585.968 C 299.012 587.534, 298 589.318, 298 589.931 C 298 590.545, 294.393 596.293, 289.985 602.705 C 281.222 615.453, 281.187 615.958, 289.054 615.985 C 299.271 616.019, 308.546 605.816, 308.395 594.708 C 308.269 585.403, 304.170 581.005, 300.250 585.968 M 352.096 594.200 C 344.120 597.010, 335.812 597.459, 326.140 595.604 C 321.541 594.722, 317.604 594, 317.390 594 C 317.175 594, 316.996 595.913, 316.990 598.250 C 316.964 609.654, 302.617 624.890, 291.821 624.978 C 290.348 624.990, 288.548 625.604, 287.821 626.342 C 285.436 628.765, 270.720 659.828, 271.274 661.271 C 272.134 663.514, 286.963 670.743, 298.358 674.476 C 312.683 679.169, 324.006 681.139, 334.643 680.790 L 343.500 680.500 344.695 667.217 C 346.112 651.458, 349.748 629.385, 354.448 608.010 C 356.321 599.491, 357.774 592.470, 357.677 592.408 C 357.580 592.346, 355.068 593.153, 352.096 594.200 M 203.984 701.750 C 192.961 714.259, 193.060 718.532, 204.500 724.033 C 210.441 726.890, 214.289 726.564, 218.524 722.845 C 223.253 718.692, 226 713.114, 226 707.662 C 226 702.539, 225.468 701.991, 217.712 699.133 C 209.693 696.177, 208.734 696.360, 203.984 701.750 M 228.660 724.651 C 222.610 736.510, 214.912 739.318, 204.339 733.521 L 200.178 731.240 199.629 734.370 C 198.179 742.641, 198.072 755.837, 198.760 841 L 199.500 932.500 203.500 934.475 C 209.750 937.560, 220.342 937.719, 226 934.812 L 230.500 932.500 231.028 826.500 C 231.318 768.200, 231.461 720.343, 231.345 720.151 C 231.229 719.958, 230.021 721.983, 228.660 724.651 M 370.343 794 C 366.249 824.649, 375.326 851.085, 399.300 878.333 C 403.590 883.210, 406.930 887.717, 406.722 888.350 C 406.014 890.500, 401.942 890.156, 397.536 887.574 C 395.121 886.158, 392.279 885, 391.222 885 C 388.937 885, 372.950 894.907, 366.510 900.313 C 354.866 910.089, 352.918 923.204, 361.811 931.953 L 365.416 935.500 366.090 931 C 367.938 918.655, 378.502 906, 386.960 906 C 390.217 906, 389.367 907.864, 383.848 912.827 C 372.164 923.331, 370.927 937.281, 381.206 942.611 C 384.899 944.527, 397.334 947.957, 400.680 947.983 C 402.651 947.998, 402.774 947.698, 401.958 944.855 C 400.050 938.199, 404.093 928.762, 411.861 921.744 C 418.444 915.797, 422.318 917.263, 417.207 923.768 C 411.214 931.394, 409.161 937.929, 411.005 943.514 C 412.851 949.107, 416.432 950.386, 427.939 949.561 C 450.602 947.935, 470.002 940.611, 481.647 929.285 C 490.550 920.626, 491.142 918.205, 491.976 887 C 492.408 870.824, 493.101 860.431, 493.870 858.578 C 495.396 854.897, 494.698 853, 491.818 853 C 487.552 853, 457.438 845.057, 446.986 841.176 C 421.978 831.888, 402.573 819.563, 383.789 801.036 L 371.078 788.500 370.343 794 M 240 929.884 C 240 934.284, 239.617 935.113, 236.136 938.258 C 221.797 951.213, 190 945.351, 190 929.752 L 190 926.405 182.750 927.131 C 165.912 928.815, 146.216 933.811, 135.981 938.993 C 121.683 946.231, 119.672 952.835, 129.595 959.961 C 166.096 986.174, 299.905 979.590, 308.486 951.159 C 309.602 947.460, 301.410 940.252, 291.975 936.631 C 279.628 931.893, 250.338 925.253, 240.750 925.018 C 240.338 925.008, 240 927.198, 240 929.884" stroke="none" fill="#1a1a1a" fill-rule="evenodd"/>
</svg>