<svg xmlns="http://www.w3.org/2000/svg" width="1024" height="1024" viewBox="0 0 1024 1024" version="1.1">
	<path d="M 816 49.721 C 812.975 49.842, 793.850 50.403, 773.500 50.967 C 680.584 53.542, 665.541 54.043, 651 55.053 C 610.479 57.866, 596.597 61.430, 592.221 70.142 C 589.973 74.618, 589.943 75.170, 589.962 111.090 C 589.972 131.115, 590.278 153.912, 590.642 161.750 C 591.062 170.806, 590.947 176, 590.327 176 C 589.790 176, 586.009 174.846, 581.925 173.435 C 569.482 169.137, 544.589 163.088, 534.400 161.887 C 525.493 160.836, 498.055 161.195, 487.500 162.501 C 483.515 162.993, 483.474 162.964, 476.500 154.430 C 464.838 140.159, 427.391 103.010, 419.288 97.674 C 398.799 84.180, 379.786 83.237, 370.614 95.261 C 363.061 105.164, 354.595 131.949, 351.496 155.749 C 350.574 162.830, 349.632 162.985, 346.995 156.488 C 339.012 136.818, 313.669 110.373, 292 99.100 C 272.621 89.018, 256.578 85.540, 233 86.309 C 156.466 88.804, 101 145.547, 101 221.349 C 101 235.947, 102.522 246.161, 106.632 259.140 C 119.176 298.755, 145.343 326.752, 180.750 338.441 C 185.287 339.939, 189 341.485, 189 341.876 C 189 342.268, 187.435 345.044, 185.523 348.044 C 178.884 358.462, 176.703 363.955, 176.221 371.465 C 175.039 389.882, 183.960 403.912, 202.750 413.189 C 206.335 414.959, 209 416.925, 209 417.799 C 209 421.410, 216.680 441.591, 222.967 454.500 C 234.087 477.332, 256.889 509.281, 268.861 518.803 C 272.328 521.560, 272.848 522.416, 272.007 523.987 C 269.822 528.069, 270.805 537.300, 273.952 542.263 C 281.635 554.378, 315.450 570.318, 343.750 575.165 C 347.737 575.848, 351 576.903, 351 577.509 C 351 578.792, 330.573 639.794, 323.095 660.842 C 317.173 677.512, 316.886 680.852, 320.841 687.049 L 323.681 691.500 320.313 704.349 C 314.969 724.733, 316.221 723.151, 302.362 727.034 C 262.445 738.219, 232.433 724.346, 225.495 691.500 C 224.682 687.650, 223.571 677.295, 223.025 668.488 C 222.480 659.682, 221.362 650.214, 220.540 647.447 C 214.734 627.895, 192.050 617.285, 174.514 625.919 C 166.726 629.752, 163.502 633.471, 156.991 646.127 C 150.903 657.962, 149 664.988, 149 675.638 C 149 732.045, 191.734 782.755, 250 795.486 C 264.730 798.705, 293.897 798.663, 302.371 795.411 C 303.802 794.862, 304 795.885, 304 803.842 C 304 830.624, 314.416 857.754, 331.750 876.118 L 337.053 881.736 332.776 882.402 C 308.337 886.211, 294.177 896.514, 287.975 915 C 280.517 937.227, 293.039 958.087, 317.693 964.508 C 327.034 966.941, 358.409 966.587, 368.020 963.940 C 392.582 957.176, 424.863 930.235, 435.668 907.484 C 440.791 896.696, 441.159 889.207, 437.485 870.516 C 432.969 847.542, 435.501 825.335, 444.726 807 C 448.981 798.544, 449.707 798.175, 458.487 799.997 C 463.605 801.060, 464.091 801.418, 465.870 805.438 C 471.219 817.531, 489.431 841.479, 499.694 849.917 C 508.978 857.549, 527.595 866.949, 539.500 870.016 C 548.460 872.325, 567.970 874.456, 572.269 873.596 C 576.147 872.821, 576.314 873.819, 574.555 887.239 C 571.193 912.888, 579.181 930.317, 598.483 939.449 C 608.383 944.132, 625.141 944.481, 633.703 940.182 C 635.791 939.134, 640.525 937.281, 644.222 936.065 C 664.549 929.383, 675.845 904.604, 672.942 873.067 C 669.981 840.910, 659.587 810.687, 646.968 797.546 C 640.131 790.425, 628.846 784.681, 618.876 783.246 L 613.580 782.484 611.375 775.492 C 610.162 771.646, 605.326 757.300, 600.628 743.610 L 592.088 718.720 595.170 715.841 C 598.685 712.557, 598.695 713.385, 594.867 690 C 592.620 676.271, 591.062 669.364, 585.551 648.694 C 583.527 641.101, 582.013 634.462, 582.187 633.939 C 582.361 633.417, 585.344 635.467, 588.815 638.495 C 595.634 644.441, 596.799 644.822, 600.853 642.428 C 603.437 640.902, 603.978 641.078, 619.507 648.505 C 628.303 652.713, 641.969 658.894, 649.875 662.243 C 663.531 668.026, 668.235 670.772, 686.223 683.459 C 701.046 693.915, 718.366 695.227, 731.510 686.892 C 734.227 685.168, 738.654 683.104, 741.348 682.304 C 753.612 678.662, 764.063 659.915, 761.232 646.638 C 760.591 643.636, 760.581 640.411, 761.203 637.496 C 763.039 628.890, 758.619 616.862, 751.674 611.565 C 746.885 607.912, 741.832 606.052, 730.986 603.950 C 709.757 599.834, 688.596 589.902, 665.308 573.123 L 656.117 566.500 656.058 561.945 L 656 557.390 642.980 548.445 C 620.076 532.710, 610.836 527.062, 595.758 519.584 L 581.015 512.272 588.447 511.073 C 624.884 505.195, 658.013 488.673, 681.125 464.854 L 689.750 455.966 694.057 463.233 C 699.383 472.218, 700.859 474, 702.975 474 C 704.474 474, 722.502 458.784, 725.871 454.675 C 727.096 453.181, 728.168 454.365, 735.898 465.751 C 741.433 473.904, 745.265 478.601, 746.527 478.780 C 748.387 479.044, 750.763 476.614, 769.202 455.582 L 771.905 452.500 773.616 455 C 776.624 459.394, 784.768 466.841, 788.834 468.915 C 792.096 470.579, 792.879 471.575, 793.393 474.712 C 794.334 480.447, 795.189 857.095, 794.286 867.934 L 793.500 877.369 785.500 878.709 C 753.374 884.092, 735.872 896.183, 741.322 909.229 C 747.436 923.862, 774.276 931.001, 823.172 930.999 C 885.872 930.997, 918.906 918.464, 909.341 898.306 C 905.091 889.351, 880.591 880.285, 856.500 878.754 L 852.500 878.500 852.270 773 C 852.143 714.975, 852.368 599.609, 852.770 516.631 L 853.500 365.763 857.500 365.394 C 859.700 365.191, 880.400 364.649, 903.500 364.190 C 951.704 363.232, 953.053 363.005, 960.856 354.540 C 969.003 345.702, 968.500 355.344, 968.500 208 C 968.500 64.413, 968.603 67.034, 962.704 60.316 C 959.283 56.419, 953.081 53.002, 945 50.562 C 940.090 49.080, 933.167 48.933, 880.500 49.201 C 848.050 49.365, 819.025 49.599, 816 49.721 M 769.500 58.521 C 752.450 59.218, 727.925 60.075, 715 60.425 C 622.687 62.927, 602.637 65.333, 598.822 74.369 C 597.464 77.586, 597.068 134.913, 598.190 166 L 598.677 179.500 605.085 182.632 L 611.493 185.763 614.264 183.431 C 627.282 172.478, 682.497 144.283, 701 139.142 C 728.538 131.490, 754 137.197, 754 151.022 L 754 153.144 802.250 152.873 C 854.250 152.581, 854.029 152.561, 856.216 157.811 C 857.267 160.336, 858.656 214.424, 858.906 262.586 L 859 280.672 865.250 282.409 C 883.816 287.569, 887.659 304.737, 873.012 317.087 C 870.136 319.512, 866.772 323.523, 865.537 325.999 C 862.438 332.216, 854.517 355.851, 855.279 356.612 C 855.999 357.332, 933.489 355.208, 936.649 354.381 C 938.759 353.830, 938.764 353.720, 939.489 296.664 C 940.350 228.818, 939.550 67.203, 938.326 61.500 L 937.467 57.500 868.983 57.377 C 828.388 57.304, 787.876 57.770, 769.500 58.521 M 946.500 206.546 L 946.500 353.092 949 352.501 C 952.601 351.650, 956.290 348.749, 957.867 345.529 C 960.631 339.888, 961.064 317.629, 960.708 199.481 C 960.334 75.366, 960.233 72.338, 956.276 66.298 C 955.044 64.419, 948.386 59.998, 946.790 60 C 946.630 60.001, 946.500 125.946, 946.500 206.546 M 215.500 96.407 C 206.582 98.106, 195.997 101.079, 196.009 101.882 C 196.013 102.222, 199.051 104.385, 202.759 106.690 C 206.466 108.994, 214.900 115.692, 221.500 121.573 C 247.821 145.027, 274.570 162.758, 286.570 164.705 C 290.785 165.389, 290.789 165.340, 288.019 148.364 C 284.691 127.964, 276.111 105.301, 270.140 101.140 C 262.268 95.653, 232.837 93.103, 215.500 96.407 M 379.602 100.099 C 372.340 105.811, 363.465 135.368, 359.514 167 C 358.655 173.875, 357.541 180.473, 357.038 181.662 C 356.417 183.130, 356.770 186.979, 358.139 193.662 C 359.787 201.708, 360.094 206.451, 359.827 219.702 C 359.647 228.613, 359.761 235.588, 360.081 235.202 C 360.400 234.816, 363.389 231.108, 366.722 226.962 C 379.962 210.493, 413.119 184.127, 425.981 179.840 C 427.103 179.466, 423.916 170.754, 419.271 161.502 C 414.116 151.233, 404.824 140.369, 394.393 132.415 C 389.267 128.506, 393.736 124.326, 399.642 127.506 C 409.139 132.621, 422.200 149.348, 432.981 170.202 C 440.589 184.918, 440.772 184.090, 428.556 190.206 C 397.184 205.912, 361.812 241.267, 355.503 263.223 C 354.195 267.775, 351.556 275.550, 349.640 280.500 C 346.507 288.595, 343.571 299.794, 336.926 329 C 334.775 338.456, 332.085 344.892, 327.198 352.277 C 324.528 356.311, 325.066 357.946, 329.075 357.985 C 335.979 358.052, 363.155 368.552, 364.909 371.830 C 366.882 375.517, 364.779 376.176, 359.623 373.487 C 354.033 370.572, 329.296 364, 323.912 364 C 322.898 364, 322.654 383.020, 323.607 387.787 L 324.215 390.823 337.857 390.749 C 353.265 390.664, 368.989 391.757, 371.093 393.058 C 372.292 393.799, 372.276 394.152, 370.988 395.440 C 369.779 396.649, 365.523 397.058, 349.821 397.476 C 339.011 397.764, 329.406 398.291, 328.476 398.647 C 326.228 399.510, 326.905 403.508, 330.939 413.198 C 344.654 446.144, 377.546 469.741, 433.038 486.446 C 450.831 491.803, 451.570 492.152, 452.440 495.618 C 453.901 501.439, 447.452 501.938, 433.500 497.084 C 428.550 495.362, 423.736 493.692, 422.802 493.373 C 421.285 492.856, 421.217 493.205, 422.164 496.647 C 425.705 509.518, 437.613 522.347, 452.782 529.630 C 465.016 535.504, 490.083 533.851, 506.263 526.103 C 516.548 521.178, 527.289 513.889, 526.066 512.666 C 524.613 511.213, 524.721 507.465, 526.250 506.257 C 526.938 505.714, 536.050 505.003, 546.500 504.677 C 584.633 503.487, 611.744 497.682, 635.956 485.522 C 674.621 466.103, 695.626 437.847, 702.132 396.500 C 703.653 386.836, 703.596 355.251, 702.041 345.658 C 700.803 338.019, 700.478 338.919, 710.037 323.500 C 723.229 302.222, 737.173 261.365, 744.167 223.500 C 746.887 208.773, 747.308 163.169, 744.799 155.013 C 741.462 144.159, 726.126 141.475, 705.181 148.079 C 675.725 157.365, 634.741 179.176, 621.283 192.727 C 612.042 202.032, 609.684 202.880, 607.511 197.680 C 603.875 188.979, 553.486 172.503, 524 170.375 C 513.017 169.582, 492.812 171.449, 477 174.719 C 459.356 178.367, 457.153 178.562, 456.377 176.540 C 454.959 172.845, 457.569 170.353, 465.445 167.885 L 473.056 165.500 454.163 145 C 420.857 108.861, 405.688 98, 388.520 98 C 383.686 98, 381.665 98.476, 379.602 100.099 M 281.231 104.750 C 287.894 112.317, 297 145.549, 297 162.299 C 297 165.438, 297.348 165.918, 300.066 166.514 C 306.976 168.032, 335.382 161.773, 336.657 158.452 C 336.958 157.667, 335.969 154.882, 334.459 152.262 C 324.407 134.825, 303.157 114.156, 286.785 105.892 C 280.156 102.545, 279.098 102.328, 281.231 104.750 M 177.846 108.886 C 148.770 123.756, 127.322 148.145, 117.444 177.573 C 116.033 181.775, 115.073 185.406, 115.310 185.643 C 115.547 185.880, 122.211 185.045, 130.120 183.787 C 150.668 180.519, 186.607 180.545, 205 183.840 C 227.115 187.803, 258.307 196.307, 277.249 203.538 C 282.337 205.480, 286.899 207.166, 287.387 207.285 C 289.112 207.704, 290.026 201.330, 290.262 187.245 L 290.500 172.990 280.953 169.695 C 261.576 163.006, 245.165 152.056, 216.405 126.626 C 206.276 117.670, 188.963 105, 186.854 105 C 186.079 105, 182.025 106.749, 177.846 108.886 M 767 161.710 C 764.525 161.874, 761.150 162.231, 759.500 162.505 L 756.500 163.002 756.484 183.751 C 756.462 211.089, 753.786 230.402, 745.937 259.871 C 744.271 266.125, 743.042 271.361, 743.204 271.506 C 743.367 271.651, 759.025 272.502, 778 273.398 C 809.146 274.869, 832.850 276.676, 846.406 278.613 L 851.311 279.315 850.585 220.948 C 850.186 188.846, 849.631 162.212, 849.353 161.762 C 848.899 161.027, 778.009 160.982, 767 161.710 M 330.979 168.645 C 321.511 171.922, 303.856 174.724, 300.129 173.541 C 298.446 173.007, 298.267 174.163, 297.626 189.733 C 297.247 198.955, 296.694 207.627, 296.398 209.006 C 295.899 211.332, 296.590 211.867, 306.102 216.506 C 325.159 225.799, 334.991 233.135, 343.220 244.203 L 348.433 251.212 349.321 248.356 C 349.809 246.785, 350.254 234.925, 350.311 222 C 350.402 200.973, 350.175 197.448, 348.150 188.500 C 345.645 177.434, 342.211 166.205, 341.172 165.686 C 340.802 165.501, 336.216 166.833, 330.979 168.645 M 711 170.897 C 699.193 174.738, 673.487 192.484, 661.385 205.148 C 648.802 218.315, 642.993 228.137, 642.262 237.481 C 641.803 243.346, 641.869 243.546, 644.862 245.287 C 649.041 247.718, 662.352 262.417, 668.578 271.477 C 671.637 275.927, 676 284.606, 679.498 293.195 C 686.159 309.548, 685.811 308.913, 687.039 306.971 C 689.596 302.927, 685.935 284.106, 680.820 275.003 C 679.119 271.976, 674.831 265.737, 671.289 261.137 C 667.748 256.538, 664.632 252.204, 664.364 251.506 C 663.921 250.351, 677.061 244, 679.895 244 C 681.204 244, 683.142 240.476, 682.298 239.631 C 679.814 237.148, 664.676 240.478, 662.509 243.986 C 661.400 245.780, 659.602 245.075, 654.805 240.963 L 650.110 236.939 651.515 232.958 C 657.206 216.828, 692.245 185.290, 713.573 177.100 C 716.833 175.848, 720.513 174.423, 721.750 173.934 C 723.048 173.420, 724 172.187, 724 171.021 C 724 168.399, 718.830 168.349, 711 170.897 M 140 189.992 C 132.575 191.037, 123.466 192.206, 119.758 192.589 C 111.474 193.445, 111.207 194.036, 110.323 213.500 C 109.173 238.843, 116.136 267.743, 127.103 283.144 L 129.323 286.262 137.411 285.709 C 150.089 284.844, 161.143 280.398, 185.855 266.225 C 218.901 247.272, 252.945 238.137, 270.591 243.489 C 274.983 244.821, 275.621 244.815, 276.651 243.433 C 277.968 241.665, 286 217.955, 286 215.834 C 286 212.114, 232.681 195.976, 204 191.016 C 185.920 187.889, 158.094 187.443, 140 189.992 M 293.529 220.250 C 290.298 230.157, 286.525 240.925, 285.159 244.142 L 283.442 248.185 289.972 254.842 C 302.233 267.343, 307.422 281.241, 306.831 300 C 306.562 308.533, 306.078 311.303, 304.247 314.787 L 301.994 319.074 304.247 317.895 C 308.457 315.694, 326.664 296.533, 331.705 289 C 342.538 272.809, 346.058 263.468, 343.569 257.511 C 338.723 245.912, 326.024 234.973, 303.673 223.143 C 295.192 218.654, 294.147 218.356, 293.529 220.250 M 404.746 241.086 C 391.450 244.219, 379.586 257.091, 385.483 261.986 C 386.709 263.004, 387.876 262.394, 392.233 258.461 C 401.551 250.047, 406.100 248.781, 415.336 252.027 C 423.535 254.909, 425.691 252.351, 420.381 246.041 C 415.690 240.466, 412.143 239.342, 404.746 241.086 M 250.864 249.089 C 233.467 251.389, 213.928 259.322, 181 277.454 C 162.811 287.470, 151.382 291.873, 141.120 292.819 L 133.724 293.500 139.371 300.582 C 148.239 311.706, 162.849 322.582, 176.623 328.313 C 186.836 332.563, 187 332.575, 187 329.067 C 187 326.192, 187.234 325.999, 190.750 325.988 C 197.917 325.964, 217.508 315.975, 232 304.954 C 247.290 293.327, 259.431 278.608, 269.495 259.500 L 273.181 252.500 269.340 250.853 C 264.026 248.573, 258.647 248.060, 250.864 249.089 M 273.889 267.529 C 258.820 292.825, 237.338 313.571, 213.395 325.946 C 209.053 328.190, 203.813 330.303, 201.750 330.641 C 196.724 331.465, 197.019 332.327, 203.250 335.034 C 226.041 344.932, 266.879 342.034, 284.468 329.269 C 303.118 315.735, 304.236 279.945, 286.573 261.875 C 280.780 255.948, 280.790 255.944, 273.889 267.529 M 563.021 261.116 C 559.195 262.642, 557 265.068, 557 267.769 C 557 270.148, 557.153 270.201, 561.750 269.422 C 573.374 267.452, 579.051 269.663, 586.576 279.096 C 592.308 286.279, 595.315 287.728, 596.342 283.801 C 596.658 282.591, 596.101 279.755, 595.103 277.500 C 589.623 265.111, 573.563 256.910, 563.021 261.116 M 739.871 281.500 C 735.174 292.510, 731.414 303.138, 732.071 303.544 C 733.617 304.500, 782.560 304.089, 794 303.025 C 827.503 299.906, 856.428 294.923, 861.890 291.329 C 864.480 289.624, 864.397 289.594, 851 287.374 C 827.362 283.458, 791.154 280.713, 750.112 279.726 C 741.559 279.520, 740.648 279.678, 739.871 281.500 M 868.597 296.445 C 858.284 304.877, 822.957 309.652, 763.500 310.651 C 744.250 310.974, 728.245 311.522, 727.934 311.869 C 725.856 314.186, 723.767 321.167, 724.833 322.233 C 726.494 323.894, 802.755 323.786, 822 322.095 C 848.994 319.725, 862.877 315.969, 869.637 309.209 C 873.145 305.701, 874.540 300.552, 873.047 296.623 C 871.858 293.496, 872.189 293.509, 868.597 296.445 M 389.375 300.621 C 371.742 306.873, 363.967 342.359, 377.254 355.948 C 390.229 369.219, 407.530 355.648, 405.759 333.589 C 404.852 322.292, 396.828 312, 388.927 312 C 387.159 312, 386.975 311.735, 387.940 310.573 C 389.612 308.558, 397.631 306, 402.277 306 C 415.763 306, 419.585 334.910, 408.477 352.906 C 404.972 358.585, 403.898 364, 406.277 364 C 412.703 364, 421 344.991, 421 330.269 C 421 321.704, 417.451 309.887, 413.488 305.257 C 408.300 299.196, 398.634 297.338, 389.375 300.621 M 324.941 311.614 C 316.161 320.592, 299.428 332.601, 287.206 338.696 C 278.463 343.057, 276.050 344.687, 276.522 345.914 C 276.857 346.786, 278.688 352.751, 280.589 359.169 C 284.674 372.956, 292.547 392.327, 296.545 398.429 L 298.073 400.760 305.786 397.407 C 313.004 394.269, 313.496 393.859, 313.444 391.027 C 313.414 389.362, 313.301 382.323, 313.194 375.384 L 313 362.767 306.250 363.402 C 302.538 363.752, 296.913 364.298, 293.750 364.617 C 288.606 365.135, 288 365.001, 288 363.339 C 288 360.280, 291.574 358.949, 303.071 357.727 L 313.988 356.567 315.029 353.412 C 315.602 351.677, 317.882 347.254, 320.095 343.583 C 322.309 339.913, 324.778 335.046, 325.582 332.769 C 327.066 328.561, 331.252 306.919, 330.690 306.357 C 330.521 306.188, 327.934 308.553, 324.941 311.614 M 554.444 319.006 C 545.992 320.208, 534.121 330.168, 529.679 339.783 C 526.454 346.765, 526.569 362.589, 529.893 369 C 534.388 377.671, 538.995 381, 546.500 381 C 557.371 381, 564.932 371.559, 564.978 357.928 C 565.023 344.360, 559.658 335.976, 549.086 333.092 L 542.672 331.343 548.032 328.671 C 559.921 322.747, 570.926 326.389, 577.730 338.500 C 580.962 344.252, 581.084 344.851, 580.696 353 C 580.160 364.257, 575.741 375.313, 567.804 385.253 C 566.264 387.181, 565.921 388.321, 566.659 389.059 C 569.240 391.640, 581.993 375.347, 585.631 364.822 C 593.970 340.697, 577.019 315.795, 554.444 319.006 M 856.447 325.597 C 855.867 325.838, 851.168 326.602, 846.004 327.293 L 836.614 328.551 835.223 337.026 C 833.967 344.681, 829.112 360.302, 822.944 376.535 L 820.651 382.569 826.459 391.535 C 829.653 396.466, 832.432 400.688, 832.633 400.917 C 833.527 401.933, 834.500 399.087, 838.655 383.300 C 844.497 361.101, 853.432 333.667, 856.978 327.041 C 857.579 325.918, 857.942 325.036, 857.785 325.079 C 857.628 325.122, 857.026 325.355, 856.447 325.597 M 814.593 329.951 C 800.751 330.589, 802.044 329.065, 801.757 345.083 C 801.571 355.487, 801.619 355.733, 804.620 359.583 C 806.299 361.737, 809.201 366.087, 811.070 369.250 C 812.938 372.413, 814.764 375, 815.127 375 C 816.484 375, 821.341 360.972, 825.428 345.250 C 828.933 331.765, 829.384 329.034, 828.076 329.201 C 827.209 329.312, 821.142 329.649, 814.593 329.951 M 716.334 332.624 C 708.974 343.303, 708.948 344.058, 715.706 351.132 C 717.614 353.129, 722.893 360.492, 727.438 367.494 L 735.702 380.225 739.235 373.862 C 748.942 356.380, 750.876 350.098, 750.969 335.750 L 751 331 740.647 331 C 734.952 331, 727.598 330.718, 724.304 330.374 C 718.529 329.770, 718.245 329.851, 716.334 332.624 M 759 337.257 C 759 340.148, 759.424 343.991, 759.942 345.797 C 760.937 349.267, 776.085 375.933, 777.085 375.975 C 777.407 375.989, 781.368 368.913, 785.888 360.250 C 792.828 346.947, 794.197 343.529, 794.697 338.250 L 795.289 332 777.145 332 L 759 332 759 337.257 M 199.223 347.557 C 197.536 348.738, 197 350.109, 197 353.241 C 197 360.425, 201.683 367.478, 213.096 377.485 L 216.500 380.469 213.832 380.793 C 207.573 381.553, 196.569 372.569, 191.118 362.250 C 186.332 353.189, 184.184 376.898, 188.844 387.345 C 191.968 394.348, 199.186 401.379, 207.627 405.644 C 216.372 410.062, 217.243 411.114, 219.514 420 C 229.876 460.554, 267.960 513.274, 297.865 528.461 L 301.229 530.170 304.690 526.835 C 320.611 511.494, 334.186 480.305, 333.938 459.640 L 333.877 454.500 326.878 449.500 C 308.211 436.164, 292.864 414.452, 279.416 382.354 C 273.854 369.079, 268 351.791, 268 348.642 L 268 346.313 261.250 347.620 C 257.538 348.339, 251.724 348.943, 248.332 348.963 C 239.028 349.019, 238.639 349.364, 242.100 354.492 C 247.422 362.378, 249.679 372.387, 247.583 378.805 C 246.376 382.501, 244.656 380.830, 242.348 373.717 C 236.528 355.784, 230.680 350.434, 213.612 347.430 C 203.385 345.630, 201.955 345.643, 199.223 347.557 M 753.534 360.250 C 752.608 362.587, 749.185 369.078, 745.926 374.672 C 742.667 380.267, 740 385.119, 740 385.453 C 740 385.788, 743.537 391.669, 747.859 398.523 L 755.718 410.984 762.270 401.242 C 765.874 395.884, 769.645 389.762, 770.650 387.638 L 772.477 383.776 768.610 376.638 C 761.569 363.643, 756.923 356, 756.064 356 C 755.598 356, 754.460 357.913, 753.534 360.250 M 441.867 359.128 C 425.909 361.446, 425.848 376.117, 441.750 387.148 L 446 390.096 446 398.013 C 446 407.292, 443.540 411.172, 434.873 415.564 C 423.151 421.504, 415.006 416.143, 409.026 398.551 C 407.116 392.932, 403.496 391.428, 401.948 395.611 C 400.988 398.207, 404.768 409.539, 408.449 415.102 C 410.870 418.761, 419.033 424, 422.312 424 C 424.433 424, 426.580 427.004, 428.388 432.500 C 433.685 448.607, 444.523 455.034, 460.216 451.373 C 470.317 449.016, 480 440.986, 480 434.965 C 480 432.738, 480.464 432, 481.866 432 C 489.489 432, 507 417.991, 507 411.892 C 507 407.270, 503.546 408.174, 496.869 414.544 C 484.452 426.387, 469.923 428.018, 459.371 418.752 C 454.391 414.380, 453.723 412.586, 453.079 401.838 L 452.500 392.175 456 391.615 C 461.441 390.744, 470.013 385.031, 473.779 379.765 C 477.586 374.442, 477.274 370.485, 472.709 366.196 C 467.194 361.016, 452.327 357.608, 441.867 359.128 M 712.408 376.750 C 712.343 389.892, 711.828 397.852, 710.684 403.365 C 709.137 410.824, 709.536 415.035, 711.785 414.984 C 713.086 414.954, 722.711 400.626, 726.442 393.166 L 730.110 385.832 723.711 375.666 C 720.191 370.075, 716.305 363.813, 715.074 361.750 C 713.844 359.688, 712.761 358, 712.668 358 C 712.576 358, 712.459 366.438, 712.408 376.750 M 788.704 371.046 C 785.017 378.169, 782 384.585, 782 385.302 C 782 386.680, 793.396 406.597, 795.430 408.775 C 796.372 409.783, 797.937 407.841, 802.909 399.496 C 812.578 383.263, 812.466 385.216, 804.517 371.639 C 800.768 365.236, 797.185 359.569, 796.555 359.045 C 795.741 358.370, 793.464 361.849, 788.704 371.046 M 442 368.225 C 433.504 372.727, 445.003 385.535, 455.733 383.522 C 461.026 382.529, 467.331 376.078, 466.154 372.859 C 464.562 368.506, 447.608 365.253, 442 368.225 M 814.666 393.179 C 809.451 401.396, 800.724 416.689, 800.698 417.658 C 800.681 418.295, 803.280 423.135, 806.474 428.414 L 812.281 438.012 815.252 433.972 C 821.185 425.905, 827.999 413.453, 827.999 410.678 C 828 408.854, 825.903 404.850, 822.070 399.357 C 816.205 390.952, 816.123 390.883, 814.666 393.179 M 772.753 398.250 C 770.739 401.688, 767.091 407.336, 764.646 410.802 L 760.202 417.104 766.232 427.802 C 769.548 433.686, 772.440 438.700, 772.659 438.944 C 773.397 439.771, 791.058 417.845, 790.738 416.500 C 790.312 414.711, 777.556 392, 776.978 392 C 776.668 392, 774.768 394.813, 772.753 398.250 M 725.612 407.461 C 719.553 416.422, 716.111 422.412, 716.564 423.211 C 719.059 427.618, 728.486 441, 729.094 441 C 729.498 441, 732.079 438.188, 734.830 434.750 C 737.581 431.313, 741.705 426.700, 743.995 424.500 C 750.967 417.802, 750.994 418.299, 742.922 404.939 C 738.955 398.373, 735.637 393, 735.550 393 C 735.462 393, 730.990 399.507, 725.612 407.461 M 843.605 395.250 C 838.814 412.403, 834.616 431.916, 832.989 444.589 C 830.811 461.549, 829.631 465.335, 826.379 465.801 C 823.613 466.198, 818.616 461.907, 815.347 456.328 C 813.909 453.875, 812.439 452.235, 812.081 452.684 C 811.722 453.133, 809.222 456.779, 806.526 460.787 L 801.623 468.073 801.878 679.287 C 802.116 876.074, 802.249 890.618, 803.825 892.230 C 807.261 895.746, 824.833 897.133, 837.655 894.900 L 843.974 893.799 843.983 775.150 C 843.988 709.892, 844.288 597.212, 844.649 524.750 C 845.011 452.288, 845.065 393, 844.770 393 C 844.475 393, 843.950 394.012, 843.605 395.250 M 576.861 399.929 C 572.607 403.405, 575.435 404.259, 594.216 405.167 C 604.373 405.659, 615.830 406.868, 622 408.100 C 631.898 410.077, 649.365 415.981, 651.450 418.055 C 652.943 419.540, 654 419.167, 654 417.155 C 654 411.277, 631.573 402.433, 609.199 399.488 C 592.619 397.305, 579.859 397.479, 576.861 399.929 M 306.821 403.806 C 304.247 404.738, 301.870 405.777, 301.537 406.117 C 300.496 407.180, 311.165 422.168, 318.339 429.720 C 329.652 441.630, 340.491 447.626, 333.760 438.250 C 328.294 430.637, 324.890 424.213, 320.382 413 C 315.620 401.153, 315.107 400.806, 306.821 403.806 M 443.609 419.620 C 441.563 421.010, 438.100 422.948, 435.914 423.927 L 431.939 425.707 435.229 432.063 C 440.994 443.200, 450.988 447.568, 461.511 443.549 C 468.706 440.801, 474.916 432, 469.660 432 C 465.626 432, 455.249 426.090, 451.193 421.482 L 447.329 417.092 443.609 419.620 M 743.613 435.586 C 737.776 441.958, 733 447.540, 733 447.990 C 733 448.441, 736.174 453.625, 740.053 459.511 C 747.066 470.152, 747.119 470.203, 749.186 468.357 C 753.662 464.360, 767.472 446.432, 767.173 445.008 C 766.654 442.544, 755.959 424, 755.056 424 C 754.600 424, 749.450 429.214, 743.613 435.586 M 787.930 431.789 C 778.945 442.335, 777.651 444.475, 778.418 447.528 C 779.167 450.514, 792.076 464, 794.185 464 C 794.981 464, 798.210 459.693, 801.363 454.428 L 807.093 444.856 801.747 434.745 C 798.807 429.184, 795.973 424.509, 795.451 424.356 C 794.928 424.203, 791.544 427.548, 787.930 431.789 M 566.980 426.524 C 565.375 428.458, 565.143 428.310, 573.957 430.950 C 578.058 432.178, 584.583 434.777, 588.457 436.724 C 599.206 442.127, 624.555 458.729, 627.935 462.579 C 631.793 466.973, 633.444 467.033, 632.638 462.750 C 630.066 449.091, 573.948 418.128, 566.980 426.524 M 705.340 433.258 C 699.638 439.146, 695 445.727, 695 447.929 C 695 450.088, 703.176 464.004, 704.428 463.976 C 706.410 463.933, 723 448.957, 723 447.212 C 723 445.842, 714.107 432.059, 711.093 428.758 C 710.721 428.350, 708.132 430.375, 705.340 433.258 M 821.090 437.868 C 818.840 441.180, 817 444.369, 817 444.954 C 817 446.952, 822.815 454.108, 823.517 452.973 C 824.247 451.791, 826.080 432.747, 825.517 432.184 C 825.331 431.998, 823.339 434.556, 821.090 437.868 M 343.983 452.554 C 343.654 489.503, 320.986 532.281, 294.780 545.410 L 290.059 547.775 301.780 552.998 C 318.369 560.391, 331.911 564.699, 344.391 566.553 C 350.324 567.434, 355.294 568.008, 355.435 567.828 C 355.576 567.647, 357.591 561.875, 359.913 555 C 364.494 541.435, 370.901 528.201, 372.500 529 C 373.050 529.275, 373.379 530.175, 373.232 531 C 373.085 531.825, 372.483 535.425, 371.895 539 C 370.626 546.714, 362.784 572.555, 353.080 601 C 349.234 612.275, 341.792 634.085, 336.543 649.466 C 331.295 664.848, 327 678.406, 327 679.595 C 327 683.351, 342.566 694.119, 359.481 702.062 C 410.534 726.039, 476.767 734.466, 535.694 724.484 C 561.737 720.072, 590.826 710.481, 589.488 706.746 C 589.243 706.061, 587.653 697.850, 585.955 688.500 C 583.059 672.544, 577.578 649.216, 573.073 633.667 C 571.406 627.911, 570.351 626.181, 566.375 622.681 C 557.913 615.232, 553.071 605, 558.009 605 C 559.113 605, 562.601 607.368, 565.759 610.263 C 574.259 618.054, 581.993 623.806, 596.692 633.267 C 598.257 634.275, 613.350 621.702, 622.501 611.766 C 634.087 599.188, 644.864 578.570, 646.645 565.576 L 647.252 561.147 626.376 547.277 C 606.128 533.824, 589.801 524.718, 572.758 517.371 L 564.500 513.812 550.632 514.505 L 536.764 515.198 530.973 519.849 C 504.351 541.232, 468.771 547.376, 444.581 534.768 C 431.786 528.098, 419.979 513.185, 414.934 497.318 L 412.650 490.136 402.075 485.951 C 381.019 477.619, 358.397 464.312, 347.250 453.701 C 344.416 451.004, 343.998 450.857, 343.983 452.554 M 279 530.561 C 279 534.901, 281.452 540.998, 283.199 541.005 C 285.021 541.012, 294.001 537.724, 293.995 537.052 C 293.992 536.749, 290.617 534.376, 286.495 531.779 L 279 527.058 279 530.561 M 650.574 583.640 C 645.051 598.013, 634.545 612.776, 619.571 627.204 C 615.173 631.442, 611.808 635.141, 612.092 635.425 C 612.900 636.234, 632.222 644.650, 646 650.195 C 661.978 656.626, 664.552 657.959, 675.755 665.602 C 696.576 679.808, 706.306 683.909, 715.887 682.515 C 724.700 681.233, 726.788 677.671, 723.869 668.899 C 722.359 664.365, 720.874 662.925, 716.861 662.109 C 712.762 661.276, 711.561 657.592, 715.029 656.491 C 722.753 654.039, 729.577 660.753, 733.575 674.739 C 734.606 678.346, 745.855 669.476, 749.097 662.500 C 752.552 655.066, 751.727 649.353, 746.470 644.317 C 743.569 641.537, 740.333 639.546, 737.470 638.781 C 732.731 637.513, 732.158 636.534, 734.379 633.497 C 736.058 631.200, 741.988 632.528, 748.271 636.607 C 752.942 639.641, 753.774 638.394, 752.003 631.011 C 749.384 620.097, 744.488 616.458, 727.005 612.433 C 705.179 607.409, 668.489 589.776, 656.698 578.645 C 655.158 577.190, 653.808 576.006, 653.698 576.012 C 653.589 576.019, 652.183 579.452, 650.574 583.640 M 178.452 634.343 C 167.395 639.387, 158.506 658.901, 158.790 677.511 C 159.572 728.875, 199.355 774.726, 253 786.091 C 267.352 789.131, 300.444 788.889, 303.612 785.721 C 303.804 785.530, 304.896 778.877, 306.041 770.937 C 307.185 762.997, 309.020 751.838, 310.118 746.141 C 311.216 740.443, 311.976 735.642, 311.806 735.473 C 311.636 735.303, 306.323 736.244, 299.999 737.563 C 261.522 745.591, 231.348 733.196, 219.212 704.379 C 216.321 697.515, 214.134 684.476, 213.025 667.500 C 211.737 647.791, 208.537 640.375, 199.413 635.958 C 193.648 633.167, 182.853 632.336, 178.452 634.343 M 327.220 714.268 C 305.131 803.196, 308.576 835.178, 344.750 877.030 C 352.389 885.868, 351.643 887.940, 340.135 889.841 C 322.926 892.683, 308.231 899.692, 302.702 907.695 C 295.720 917.803, 293.667 931.115, 297.703 940.121 C 300.701 946.813, 301.684 946.779, 301.194 940.002 C 300.275 927.295, 306.183 916.075, 315.395 913.035 C 321.534 911.008, 323.549 915.295, 317.728 918 C 306.886 923.038, 305.776 950.344, 316.212 955.296 C 320.258 957.216, 328.996 958.469, 332.395 957.616 L 334.897 956.988 332.970 952.744 C 327.927 941.633, 333.751 924.979, 344 921.207 C 349.638 919.132, 350.768 922.964, 345.874 927.563 C 339.491 933.560, 337.238 943.484, 340.635 950.643 C 350.448 971.323, 410.006 938.458, 426.859 903.063 C 431.716 892.861, 431.897 887.976, 428.075 870.215 C 426.360 862.247, 425.001 852.960, 425.003 849.215 C 425.010 834.864, 429.675 816.877, 436.682 804.188 C 438.598 800.717, 439.961 797.341, 439.710 796.687 C 439.459 796.033, 435.484 793.956, 430.877 792.073 C 419.480 787.415, 414.539 782.288, 418.377 779.102 C 419.441 778.219, 422.559 779.009, 432.119 782.585 C 438.920 785.129, 449.213 788.097, 454.992 789.180 C 468.834 791.775, 469.642 792.257, 473.965 800.500 C 501.040 852.134, 542.232 872.558, 589.663 857.867 C 600.628 854.471, 603 854.569, 603 858.418 C 603 861.482, 598.946 864.726, 589.724 869.042 L 583 872.189 583 885.911 C 583 912.425, 586.971 921.475, 602.374 930.057 C 608.208 933.309, 609.392 932.058, 604.400 927.918 C 598.326 922.881, 598.900 902.265, 605.208 898.889 C 608.329 897.218, 609.451 899.103, 607.984 903.549 C 606.297 908.661, 607.206 919.945, 609.645 924.169 C 613.650 931.106, 624.733 932.832, 637.250 928.468 C 642.842 926.518, 642.853 926.484, 639.077 922.548 C 632.336 915.519, 629.493 894.299, 635.147 893.210 C 636.371 892.974, 636.845 894.243, 637.355 899.119 C 638.103 906.283, 641.901 915.341, 644.808 916.897 C 649.965 919.657, 653.242 918.783, 656.649 913.738 C 662.280 905.400, 663.506 899.568, 663.426 881.500 C 663.283 848.964, 651.056 812.091, 636.836 801.312 C 631.580 797.327, 623.842 794.020, 619.750 794.010 L 616 794 615.972 801.250 C 615.938 809.908, 612.874 817.278, 609.077 817.833 C 606.808 818.164, 606.803 818.136, 607.471 808.833 C 608.379 796.168, 607.139 790.906, 594.313 753 C 588.451 735.675, 583.586 721.391, 583.502 721.258 C 583.417 721.124, 578.705 722.579, 573.030 724.490 C 560.745 728.627, 543.166 732.358, 526.030 734.466 C 511.209 736.289, 466.067 736.561, 449.424 734.928 C 411.755 731.231, 364.638 716.681, 338.068 700.541 C 334.862 698.593, 332.072 697.008, 331.869 697.018 C 331.666 697.028, 329.574 704.791, 327.220 714.268 M 776.500 888.005 C 765.142 890.323, 760.105 892.143, 754.631 895.910 C 744.091 903.162, 747.429 910.429, 763.976 916.255 C 794.131 926.872, 869.417 925.521, 892.086 913.956 C 904.460 907.644, 905.213 900.720, 894.140 895.072 C 884.964 890.390, 866.737 886.013, 856.377 886.004 L 852.254 886 851.771 891.033 C 850.775 901.400, 845.556 903.446, 821.791 902.782 C 799.197 902.151, 794 899.676, 794 889.550 C 794 886.027, 793.968 886.001, 789.750 886.084 C 787.413 886.131, 781.450 886.995, 776.500 888.005" stroke="none" fill="#1a1a1a" fill-rule="evenodd"/>
</svg>