<svg xmlns="http://www.w3.org/2000/svg" width="1024" height="1024" viewBox="0 0 1024 1024" version="1.1">
	<path d="M 327.419 5.579 C 256.833 49.894, 212.293 117.078, 197.863 201 C 194.523 220.423, 194.468 267.674, 197.762 287.674 C 205.866 336.875, 225.869 382.293, 256.042 420 L 264.444 430.500 269.708 448.500 C 272.604 458.400, 276.826 473.025, 279.091 481 L 283.210 495.500 279.638 500.802 C 269.975 515.143, 272.150 527.325, 287.037 542.234 C 290.735 545.937, 293.986 549.987, 294.260 551.234 C 294.535 552.480, 297.933 565.875, 301.811 581 C 305.688 596.125, 311.625 621.775, 315.002 638 C 324.514 683.688, 344.196 772.326, 346.560 780.117 C 346.948 781.395, 346.104 781.841, 342.540 782.243 C 332.926 783.326, 329.953 788.043, 329.865 802.350 C 329.765 818.766, 333.139 825.193, 343.028 827.418 L 348.500 828.649 349.678 836.327 C 350.326 840.549, 352.482 856.041, 354.469 870.752 C 369.046 978.672, 371.518 988.185, 387.018 996.009 C 399.302 1002.210, 430.067 1004.372, 506 1004.371 C 573.432 1004.370, 613.098 1002.101, 627.171 997.439 C 637.479 994.024, 645.684 982.595, 649.379 966.500 C 651.696 956.409, 658.602 910.592, 665.508 859.500 C 669.941 826.697, 669.659 828.001, 672.329 827.996 C 675.654 827.991, 680.707 824.460, 682.639 820.794 C 685.317 815.712, 685.776 794.739, 683.311 790.071 C 680.794 785.305, 677.329 783.063, 671.394 782.360 L 666.316 781.759 668.575 773.629 C 669.818 769.158, 674.516 749.975, 679.015 731 C 708.208 607.880, 726.231 538.674, 731.257 530.401 C 736.780 521.307, 739.552 511.938, 738.315 506.534 C 737.411 502.583, 737.763 500.808, 742.028 487.834 C 744.619 479.950, 750.029 462.250, 754.050 448.500 C 758.072 434.750, 762.068 422.563, 762.931 421.417 C 763.794 420.272, 769.053 413.297, 774.618 405.917 C 811.843 356.552, 830.990 295.146, 828.692 232.500 C 826.950 185.036, 809.122 129.373, 783.315 90.827 C 760.301 56.453, 729.535 26.580, 696.584 6.614 C 686.321 0.396, 685.306 0, 679.626 0 L 673.584 0 682.542 5.101 C 719.050 25.892, 749.039 53.032, 773.592 87.500 C 805.784 132.693, 824.265 193.665, 822.833 249.952 C 822.376 267.919, 822.611 267.329, 813.578 273.183 C 802.617 280.288, 793.965 282.379, 775.500 282.386 C 754.486 282.393, 744.908 279.149, 732.569 267.842 L 726.277 262.077 726.202 238.289 C 725.915 147.849, 696.525 68.765, 642.808 13.894 C 630.421 1.242, 628.261 -0.174, 621.892 0.195 L 616.618 0.500 620.769 3.238 C 628.515 8.347, 639.048 18.126, 647.858 28.388 C 695.358 83.721, 719.936 154.023, 720.363 235.778 L 720.500 262.055 717.125 264.778 C 701.516 277.371, 686.217 282.115, 661 282.184 C 636.125 282.251, 619.345 276.848, 604.483 263.985 L 599.623 259.779 599.401 224.639 C 598.834 135.039, 585.630 61.165, 560.811 8.750 C 556.730 0.129, 556.615 0, 553.056 0 L 549.444 0 554.620 10.514 C 580.437 62.952, 595.194 148.776, 593.821 238.500 L 593.500 259.500 587.710 263.351 C 566.553 277.424, 528.494 285.178, 495.201 282.198 C 474.834 280.375, 454.713 274.014, 439.685 264.648 L 432.320 260.058 431.705 238.279 C 431.070 215.798, 431.314 204.640, 433.075 175.500 C 436.946 111.458, 449.888 54.687, 470.518 11.250 L 475.861 -0 472.361 -0 C 468.901 -0, 468.805 0.119, 464.050 10.250 C 438.912 63.802, 427.449 126.661, 426.301 217.238 L 425.747 260.977 419.624 266.037 C 412.576 271.862, 402.280 277.145, 392.968 279.715 C 382.420 282.626, 347.444 282.300, 336.030 279.184 C 325.993 276.444, 313.689 270.273, 307.757 265.002 L 303.500 261.219 303.641 239.860 C 304.114 168.212, 324.232 101.733, 362.096 46.696 C 373.695 29.836, 392.860 9.216, 402.775 2.928 L 407.392 -0 401.631 -0 C 394.488 0, 390.627 2.970, 376.286 19.500 C 325.747 77.754, 298.079 155.622, 297.954 239.960 L 297.924 259.818 290.358 267.005 C 274.070 282.477, 254.882 287.069, 230.113 281.421 C 222.078 279.589, 211.914 274.217, 205.746 268.542 L 200.992 264.168 200.366 252.334 C 198.353 214.257, 210.001 160.897, 228.524 123.338 C 252.888 73.935, 292.776 31.822, 340.622 4.984 L 349.500 0.005 342.903 0.002 C 336.621 0, 335.879 0.267, 327.419 5.579 M 432.476 278.672 C 435.128 328.446, 440.277 370.867, 449.145 416 C 451.360 427.275, 453.302 436.630, 453.460 436.790 C 453.617 436.949, 459.991 435.528, 467.623 433.631 C 489.765 428.129, 494.321 427.494, 511 427.581 C 530.947 427.686, 552.176 431.452, 562.358 436.692 C 567.924 439.557, 569.508 438.069, 571.869 427.763 C 582.135 382.945, 588.957 333.294, 592.569 277.097 L 593.238 266.695 590.369 268.721 C 574.135 280.185, 539.916 289, 511.645 289 C 484.223 289, 453.235 281.276, 437.173 270.438 L 431.846 266.843 432.476 278.672 M 296.254 269.965 C 294.326 273.052, 283.401 280.917, 276.660 284.072 C 255.729 293.867, 224.165 290.932, 206.651 277.563 C 204.093 275.611, 202 274.238, 202 274.513 C 202 274.788, 202.686 279.623, 203.525 285.257 C 210.271 330.580, 231.352 379.677, 258.746 413.866 C 273.681 432.506, 297.440 455.529, 313.571 466.994 C 326.608 476.258, 325.775 476.024, 335.833 473.271 C 342.111 471.553, 347.463 470.854, 355.250 470.732 C 361.163 470.640, 366 470.456, 366 470.324 C 366 470.192, 362.941 465.228, 359.202 459.292 C 335.659 421.918, 322.134 389.404, 310.049 341.128 C 303.839 316.317, 299 287.144, 299 274.508 C 299 268.652, 298.053 267.085, 296.254 269.965 M 598.593 272.305 C 598.310 274.612, 597.816 281.450, 597.493 287.500 C 596.093 313.797, 592.063 349.259, 586.982 380 C 583.865 398.861, 578.258 426.752, 577.241 428.454 C 576.897 429.029, 577.449 428.825, 578.467 428 C 581.157 425.820, 584.726 417.577, 586.582 409.255 C 588.605 400.190, 591.739 397, 598.626 397 C 609.641 397, 615.391 404.326, 621.065 425.586 C 626.219 444.898, 623.927 459.242, 614.106 469.143 L 609.500 473.786 613.592 478.436 C 617.353 482.710, 617.798 482.947, 619.092 481.368 C 619.866 480.424, 624.603 477.729, 629.617 475.380 C 642.497 469.346, 645.868 465.107, 668.093 427 C 689.410 390.449, 706.255 345.147, 714.946 301 C 717.348 288.798, 719.896 271, 719.240 271 C 718.992 271, 717.374 272.194, 715.644 273.652 C 710.825 277.717, 697.656 283.707, 689.146 285.705 C 677.253 288.497, 642.501 288.184, 631.622 285.187 C 621.909 282.511, 611.174 277.367, 604.303 272.097 L 599.106 268.111 598.593 272.305 M 422 272.094 C 409.203 283.107, 391.707 288.004, 365.178 287.996 C 339.556 287.988, 317.149 281.804, 306.250 271.731 C 305.012 270.587, 304.004 270.067, 304.010 270.576 C 304.183 287.218, 313.123 333.711, 321.589 362 C 331.407 394.804, 349.163 434.042, 364.911 457.734 C 373.870 471.212, 375.626 472.983, 386.254 479.268 C 393.470 483.535, 394.078 483.724, 395.004 481.992 C 396.678 478.864, 396.172 476.709, 391.521 467.152 C 385.340 454.453, 383.641 447.443, 384.332 437.500 C 385.592 419.378, 394.025 402.089, 404.115 396.941 C 413.440 392.184, 419.423 395.724, 422.975 408.098 C 425.449 416.719, 430.077 426.923, 433.618 431.566 C 437.464 436.608, 448.907 440.435, 447.574 436.232 C 440.432 413.731, 429.048 329.044, 427.346 285.763 C 426.984 276.543, 426.420 269.018, 426.094 269.041 C 425.767 269.063, 423.925 270.437, 422 272.094 M 724.590 276.259 C 722.267 298.002, 714.555 331.759, 706.373 356 C 693.146 395.185, 677.866 425.064, 648.842 468.500 C 648.409 469.149, 651.292 469.388, 657.065 469.180 C 666.252 468.848, 677.485 470.960, 688.376 475.065 L 693.252 476.904 698.998 473.001 C 737.870 446.604, 777.294 400.171, 795.956 358.806 C 808.990 329.913, 815.278 310.409, 819.401 286.082 C 821.118 275.952, 820.972 274.824, 818.256 277.244 C 815.249 279.924, 804.639 284.872, 797.923 286.726 C 792.920 288.106, 787.742 288.493, 774.500 288.477 C 758.235 288.456, 757.176 288.332, 750 285.594 C 741.961 282.528, 734.527 278.157, 728.808 273.137 L 725.256 270.018 724.590 276.259 M 403.557 405.279 C 386.908 422.655, 385.998 455.255, 401.775 469.107 L 405.234 472.144 406.951 469.322 C 410.890 462.850, 434.993 445, 439.794 445 C 440.457 445, 441 444.550, 441 444 C 441 443.450, 440.462 443, 439.804 443 C 434.308 443, 425.729 431.743, 419.231 416.006 C 412.175 398.916, 410.652 397.874, 403.557 405.279 M 596.352 403.003 C 593.440 404.165, 593.007 405.054, 591.321 413.332 C 588.843 425.502, 583.501 434.900, 576.717 439.026 L 573.848 440.770 587.520 452.635 C 595.040 459.161, 602.448 465.530, 603.982 466.790 L 606.771 469.080 610.358 464.193 C 616.298 456.102, 618.385 443.801, 616.009 430.886 C 612.699 412.891, 603.669 400.082, 596.352 403.003 M 739.484 446.513 C 727.185 458.809, 715.950 468.305, 704.398 476.169 L 699.296 479.642 709.388 485.071 C 714.939 488.057, 722.366 492.419, 725.893 494.764 C 729.420 497.109, 732.401 498.909, 732.516 498.764 C 733.713 497.263, 753.398 433.677, 752.708 433.541 C 752.593 433.518, 746.643 439.356, 739.484 446.513 M 497.485 434.992 C 493.077 435.453, 485.303 436.809, 480.210 438.004 L 470.950 440.178 473.933 443.576 C 479.960 450.441, 480.112 461.511, 474.326 472.143 C 465.103 489.088, 439.649 493.604, 411.705 483.252 L 404.911 480.735 402.576 482.929 C 399.195 486.105, 389.611 505.165, 386.677 514.549 C 383.653 524.217, 382.395 532.183, 380.443 554 C 378.946 570.733, 378.480 575.516, 375.480 605 C 373.219 627.224, 373.588 631.576, 378.620 642.063 C 384.189 653.667, 391.268 661.900, 400.123 667.072 C 414.315 675.361, 434.003 681.928, 449.615 683.580 L 455.730 684.228 450.947 674.694 C 443.547 659.943, 443.270 650.516, 449.830 636.589 C 457.416 620.483, 477.460 604.869, 499.128 598.185 C 536.087 586.785, 589.019 600.096, 604.854 624.772 C 614.491 639.790, 612.264 664.630, 600.144 677.313 L 596.500 681.126 601.425 679.024 C 623.745 669.495, 643 645.644, 643 627.525 C 643 620.252, 640.246 603.607, 636.543 588.500 C 631.589 568.291, 630.117 558.543, 629.057 538.923 C 627.675 513.378, 625.047 505.392, 611.967 487 C 597.296 466.370, 573.531 447.420, 555 441.574 C 535.485 435.417, 515.401 433.119, 497.485 434.992 M 273 440.745 C 273 445.800, 287.982 493.059, 289.500 492.795 C 293.405 492.113, 320.116 478.258, 318.626 477.687 C 315.084 476.328, 293.169 458.867, 283.250 449.502 C 277.613 444.179, 273 440.238, 273 440.745 M 143.591 444.054 C 130.539 447.329, 117.713 460.211, 114.083 473.693 L 112.963 477.852 107.598 477.298 C 92.399 475.729, 76.776 484.713, 70.160 498.825 C 66.425 506.794, 66.295 521.793, 69.893 529.779 C 75.423 542.053, 88.847 549.324, 105.168 548.886 L 114.945 548.624 117.857 552.644 C 125.191 562.768, 135.024 567.101, 151 567.248 C 167.921 567.404, 179.099 562.544, 187.203 551.506 L 190.136 547.513 199.818 547.841 C 212.927 548.285, 219.291 546.010, 227 538.126 C 240.235 524.589, 239.790 502.790, 225.998 488.998 C 219.619 482.619, 214.276 480.631, 203.326 480.560 L 194.153 480.500 193.542 476.432 C 190.408 455.537, 164.571 438.790, 143.591 444.054 M 454.500 446.824 C 442.137 451.452, 430.817 457.606, 420.981 465.049 C 408.749 474.304, 408.718 474.473, 418.532 478.402 C 438.008 486.199, 459.106 483.195, 467.172 471.478 C 472.713 463.428, 473.282 450.554, 468.316 445.588 C 465.172 442.445, 466.523 442.324, 454.500 446.824 M 143.217 449.925 C 130.707 453.111, 119 468.219, 119 481.178 C 119 486.558, 118.643 486.742, 112.500 484.529 C 98.838 479.607, 81.723 487.312, 75.496 501.188 C 64.914 524.768, 85.141 549.134, 110.140 542.920 C 117.832 541.008, 117.842 541.012, 120.804 546.461 C 126.284 556.542, 136.827 561.496, 152.500 561.352 C 167.703 561.212, 176.671 556.792, 184.177 545.739 C 186.657 542.088, 188.687 540.050, 189.525 540.371 C 211.187 548.684, 232.233 534.562, 230.825 512.659 C 229.614 493.817, 213.214 482.119, 195.488 487.454 C 189.378 489.292, 189.371 489.286, 188.550 481.624 C 186.640 463.786, 171.957 450.084, 154 449.382 C 149.875 449.221, 145.023 449.465, 143.217 449.925 M 643 476.815 C 639.975 477.821, 633.571 480.567, 628.768 482.918 L 620.036 487.192 623.048 491.570 C 627.393 497.885, 631.832 507.695, 632.569 512.612 L 633.206 516.861 643.269 513.358 C 648.803 511.432, 656.846 508.089, 661.142 505.929 C 671.905 500.517, 679.810 499.261, 692.610 500.930 C 707.233 502.837, 715.416 505.101, 715.839 507.356 C 716.523 511.001, 714.572 511.243, 703.364 508.906 C 696.532 507.481, 688.971 506.636, 682.992 506.630 C 673.639 506.620, 673.302 506.704, 662.418 511.761 C 656.333 514.589, 647.674 517.934, 643.177 519.194 L 635 521.486 635 528.654 C 635 536.661, 636.387 538.606, 645.364 543.186 C 661.758 551.550, 676.282 552.932, 691.839 547.609 C 717.538 538.818, 730.526 526.252, 729.801 510.885 L 729.500 504.500 722.500 499.765 C 712.804 493.207, 689.218 481.654, 679 478.458 C 667.536 474.873, 651.097 474.123, 643 476.815 M 347.596 477.161 C 329.499 480.619, 300.544 492.565, 288.389 501.587 C 277.783 509.459, 276.545 514.536, 282.480 525.831 C 289.377 538.954, 301.658 548.198, 320.717 554.611 C 334.821 559.356, 354.254 556.578, 369.125 547.691 L 374.500 544.480 374.500 538.072 L 374.500 531.664 366 527.017 C 361.325 524.461, 354.857 520.662, 351.627 518.575 C 339.573 510.788, 335.773 509.589, 323 509.542 C 314.246 509.510, 309.258 510.052, 302.112 511.812 C 296.143 513.282, 292.376 513.776, 291.768 513.168 C 287.178 508.578, 302.219 503.832, 322 503.629 C 336.996 503.474, 341.272 504.776, 354.708 513.581 C 366.594 521.371, 378 527.228, 378 525.541 C 378 522.707, 383.314 506.088, 386.647 498.500 C 388.580 494.100, 390.365 490.023, 390.615 489.439 C 391.210 488.049, 373.179 479.483, 365.540 477.526 C 358.955 475.840, 354.937 475.758, 347.596 477.161 M 588.325 509.612 C 583.775 511.855, 581.694 514.459, 582.477 516.928 C 583.293 519.500, 584.083 519.508, 589 517 C 594.484 514.202, 598.049 514.463, 602.482 517.985 C 606.476 521.160, 608 521.129, 608 517.875 C 608 510.509, 596.392 505.633, 588.325 509.612 M 435.286 513.109 C 431.625 514.168, 427 519.619, 427 522.876 C 427 526.240, 429.756 526.608, 432.838 523.655 C 437.085 519.586, 441.056 518.579, 445.512 520.441 C 453.098 523.610, 455.569 521.203, 450.036 516.033 C 445.959 512.225, 441.442 511.330, 435.286 513.109 M 840.870 525.060 C 820.401 529.904, 805.555 546.143, 804.255 565.111 L 803.716 572.967 801.108 572.240 C 799.674 571.840, 794.900 571.520, 790.500 571.529 C 768.431 571.575, 753 587.231, 753 609.576 C 753 633.070, 770.247 647.775, 796.713 646.846 L 806.567 646.500 810.189 652.153 C 819.408 666.539, 845.744 670.896, 859.743 660.352 L 862.986 657.909 865.189 659.962 C 872.004 666.310, 890.515 665.183, 901.651 657.741 C 906.750 654.333, 912.769 646.406, 913.667 641.915 C 914.146 639.518, 914.736 639.204, 919.716 638.690 C 931.164 637.508, 941.978 629.854, 947.208 619.229 C 960.980 591.253, 931.454 559.862, 899.173 568.159 C 898.326 568.377, 897.218 566.512, 896.108 562.998 C 887.238 534.920, 864.679 519.426, 840.870 525.060 M 840.447 531.403 C 819.045 538.107, 809.027 551.956, 809.006 574.867 C 808.999 581.952, 809.640 581.664, 801 578.468 C 790.476 574.575, 774.119 578.545, 766.924 586.739 C 760.148 594.457, 756.972 609.691, 759.935 620.264 C 764.114 635.176, 783.323 644.586, 802.763 641.243 C 806.468 640.606, 809.622 640.433, 809.772 640.859 C 809.922 641.285, 811.947 644.528, 814.272 648.066 C 820.387 657.372, 824.990 659.500, 839 659.500 C 850.177 659.500, 854.985 657.993, 859.405 653.106 C 861.897 650.351, 862.197 650.400, 867.487 654.438 C 880.859 664.646, 903.868 655.522, 909.142 637.921 C 910.195 634.406, 910.476 634.219, 915.639 633.613 C 927.216 632.252, 936.815 626.572, 941.763 618.155 C 945.530 611.748, 945.730 598.862, 942.167 592.151 C 938.694 585.610, 932.425 579.355, 926.373 576.394 C 919.386 572.976, 905.878 571.961, 899.067 574.342 C 893.581 576.260, 893.476 576.192, 891.983 569.753 C 888.865 556.305, 879.257 541.378, 869.903 535.449 C 861.963 530.415, 849.200 528.662, 840.447 531.403 M 717.529 541.968 C 714.680 545.116, 698.205 552.792, 689.590 554.986 C 671.493 559.594, 650.145 555.566, 637.855 545.225 L 634.699 542.569 635.389 549.575 C 635.769 553.428, 637.894 564.438, 640.111 574.040 C 644.321 592.275, 648.297 613.923, 649.502 625.176 C 650.176 631.464, 650.017 632.199, 646.104 640.888 C 643.847 645.901, 642 650.247, 642 650.547 C 642 651.876, 631.881 665.806, 628.854 668.645 C 622.968 674.165, 602.993 685.406, 591.786 689.507 L 589.072 690.500 595.680 699 C 619.964 730.239, 631.823 755.541, 630.646 773.603 L 630.118 781.706 639.626 782.331 C 644.856 782.674, 651.724 782.685, 654.889 782.354 L 660.644 781.752 670.812 739.626 C 676.404 716.457, 684.814 681.525, 689.501 662 C 696.666 632.152, 712.081 571.959, 719.016 546.750 C 720.939 539.759, 720.578 538.599, 717.529 541.968 M 368.500 554.577 C 363.520 557.551, 351.510 561.555, 343.238 562.999 C 332.551 564.865, 316.265 561.673, 305.353 555.574 C 300.488 552.855, 300.311 553.165, 302.543 560.500 C 306.798 574.482, 314.785 607.888, 320.582 635.943 C 328.034 672.011, 338.167 717.941, 346.936 755.407 C 350.271 769.657, 353 781.469, 353 781.657 C 353 781.846, 362.502 782, 374.115 782 L 395.230 782 393.777 779.750 C 388.972 772.308, 387.493 755.798, 390.541 743.644 C 394.324 728.565, 406.814 708.190, 421.054 693.868 L 428.643 686.236 420.071 683.466 C 396.013 675.690, 383.575 665.492, 372.972 644.850 L 368 635.171 368 624.215 C 368 618.189, 368.923 604.988, 370.050 594.879 C 373.716 562.020, 373.964 559.549, 373.982 555.750 C 374.003 551.421, 373.842 551.387, 368.500 554.577 M 584.500 564.954 C 573.192 569.631, 571.151 593.537, 581.266 602.832 C 587.680 608.726, 598.336 605.443, 603.236 596.063 C 612.066 579.160, 599.719 558.659, 584.500 564.954 M 444.396 569.429 C 433.029 574.377, 430.349 598.254, 440.111 607.606 C 444.129 611.455, 452.723 611.767, 457.664 608.243 C 465.325 602.778, 468.675 585.231, 463.798 576.105 C 459.933 568.871, 451.972 566.132, 444.396 569.429 M 590.746 572.625 C 587.396 574.380, 586.804 579, 589.929 579 C 592.382 579, 595 576.412, 595 573.988 C 595 571.330, 593.894 570.976, 590.746 572.625 M 454 574.755 C 449.341 576.326, 446.867 582.456, 451.150 581.820 C 453.790 581.427, 457.795 576.363, 456.447 575.122 C 455.926 574.643, 454.825 574.477, 454 574.755 M 511 601.422 C 470.460 609.986, 443.268 640.448, 453.024 666.370 C 457.804 679.071, 475.045 692.791, 491.517 697.004 C 517.625 703.682, 560.250 697.835, 581.171 684.706 C 598.889 673.588, 605.643 662.287, 604.819 645.140 C 603.830 624.590, 586.831 610.165, 555 602.867 C 543.760 600.290, 520.047 599.511, 511 601.422 M 569.106 623.523 C 562.423 629.561, 559.708 638.703, 563.928 640.961 C 566.956 642.582, 568.431 641.393, 572.605 633.972 C 577.114 625.954, 576.819 626.094, 581 630 C 584.191 632.980, 588 634.011, 588 631.894 C 588 630.002, 581.928 623.014, 578.942 621.470 C 574.796 619.326, 573.438 619.609, 569.106 623.523 M 482.411 624.835 C 476.292 628.678, 473.275 634.401, 476.680 635.707 C 477.858 636.159, 479.467 635.104, 482.066 632.176 C 486.312 627.391, 486.996 627.125, 487.010 630.250 C 487.022 632.995, 491.148 642.073, 493.091 643.628 C 500.325 649.416, 505.076 641.922, 500.201 632.413 C 495.899 624.023, 488.633 620.927, 482.411 624.835 M 491 666.976 C 491 669.328, 503.240 678.891, 510.177 681.960 C 522.698 687.499, 550.200 685.942, 564.280 678.899 C 569.114 676.481, 576 670.233, 576 668.266 C 576 665.490, 572.847 665.756, 569.684 668.798 C 563.107 675.125, 553.593 678.549, 538.783 679.917 C 522.322 681.439, 512.045 678.736, 500.197 669.770 C 493.378 664.609, 491 663.887, 491 666.976 M 425.325 698.750 C 407.768 715.692, 396.834 736.616, 394.439 757.856 C 392.645 773.760, 403.598 785.694, 429.738 796.315 L 435.875 798.809 436.959 793.754 C 440.509 777.202, 456.874 762.054, 471.288 761.978 L 475.500 761.956 473 760.022 C 471.625 758.958, 466.397 756.060, 461.381 753.581 C 452.292 749.088, 449 745.658, 449 740.681 C 449 734.457, 453.530 734.247, 455.079 740.400 C 456.084 744.390, 456.621 744.960, 460.843 746.522 C 463.405 747.470, 468.425 749.877, 472 751.873 C 475.575 753.868, 479.790 756.167, 481.366 756.981 C 485.277 759.002, 501.409 774.307, 503.933 778.392 C 505.934 781.630, 506.167 781.715, 514.689 782.316 C 519.479 782.654, 530.455 782.653, 539.078 782.313 L 554.758 781.696 557.075 776.098 C 558.734 772.087, 561.562 768.328, 567.046 762.839 C 574.039 755.841, 574.750 754.756, 575.280 750.285 C 576.075 743.569, 578.784 737.203, 581.169 736.446 C 584.313 735.448, 584.504 736.550, 582.694 745.282 C 581.757 749.802, 580.993 753.776, 580.995 754.113 C 580.998 754.450, 583.820 754.953, 587.267 755.229 C 603.204 756.508, 616.616 766.050, 621.101 779.300 C 622.845 784.449, 622.848 784.452, 623.674 781.478 C 628.436 764.314, 616.659 735.580, 592.310 704.959 L 582.120 692.144 574.943 695.159 C 554.352 703.811, 519.658 708.276, 499 704.933 C 495.425 704.355, 485.738 701.665, 477.473 698.956 C 463.094 694.244, 442.074 689, 437.563 689 C 436.220 689, 431.679 692.618, 425.325 698.750 M 198 725.614 C 177.409 729.347, 161.626 743.880, 157.921 762.521 C 156.715 768.589, 156.578 768.790, 154.269 767.912 C 150.577 766.509, 138.935 766.830, 133.345 768.490 C 109.313 775.627, 100.667 812.818, 119.156 829.522 C 126.654 836.296, 135.105 839.496, 145.500 839.498 C 150.450 839.499, 156.076 839.163, 158.003 838.751 C 161.339 838.038, 161.672 838.228, 165.003 842.751 C 175.981 857.659, 206.677 858.323, 221.036 843.964 L 224.795 840.205 230.148 842.852 C 235.166 845.335, 236.373 845.500, 249.500 845.500 L 263.500 845.500 271.206 841.820 C 296.773 829.611, 302.687 798.856, 282.970 780.645 C 275.348 773.605, 269.312 771.500, 256.750 771.500 L 247 771.500 247 768.932 C 247 755.470, 233.259 735.273, 219.858 729.037 C 213.570 726.112, 203.744 724.573, 198 725.614 M 192.500 732.882 C 172.433 740.148, 165.159 749.440, 162.464 771.250 C 161.815 776.502, 161.176 776.807, 155.654 774.500 C 145.926 770.435, 129.760 773.762, 123.549 781.107 C 116.512 789.429, 112.837 805.917, 115.931 815.291 C 120.417 828.885, 142.157 837.762, 158.040 832.487 C 164.087 830.478, 162.737 829.704, 169.112 838.837 C 173.850 845.626, 180.955 848.500, 193 848.500 C 204.879 848.500, 211.264 845.774, 218.866 837.456 C 224.252 831.563, 225.071 831.175, 227.061 833.573 C 233.436 841.255, 256.413 842.837, 269.500 836.495 C 280.947 830.947, 287.738 821.131, 288.737 808.691 C 290.424 787.675, 269.409 772.038, 247.612 778.091 C 243.104 779.342, 242.040 778.442, 242.015 773.355 C 241.967 763.487, 235.131 749.223, 226.645 741.285 C 216.155 731.472, 204.391 728.577, 192.500 732.882 M 575.913 762.403 C 563.419 770.831, 555.185 791.765, 560.406 801.829 C 562.699 806.249, 567.725 808.370, 573.297 807.268 C 577.828 806.372, 577.798 806.437, 579.499 793.690 C 580.061 789.473, 580.410 788.918, 582.320 789.190 C 583.959 789.423, 584.454 790.121, 584.315 792 C 584.213 793.375, 583.817 798.109, 583.435 802.520 C 582.554 812.686, 583.293 813.500, 593.403 813.500 C 602.537 813.500, 605.128 812.718, 609.075 808.771 C 619.920 797.926, 619.577 778.425, 608.379 769.143 C 598.031 760.567, 583.200 757.488, 575.913 762.403 M 466 767.545 C 456.672 770.458, 445.401 782.083, 442.900 791.370 C 439.254 804.912, 452.343 820.646, 469.243 823.034 C 485.809 825.376, 491.873 819.038, 487.419 804.040 C 486.115 799.649, 486.071 798.570, 487.169 797.874 C 490.142 795.990, 491.242 797.655, 493.031 806.750 C 494.396 813.689, 496.045 814.579, 501.915 811.544 C 508.564 808.105, 509.307 800.869, 504.130 789.957 C 498.130 777.312, 489.091 769.647, 477.201 767.124 C 470.960 765.800, 471.671 765.774, 466 767.545 M 340.285 788.440 C 336.254 790.238, 335.461 792.921, 335.633 804.177 C 335.728 810.402, 336.293 813.934, 337.633 816.677 C 340.675 822.907, 342.018 823.051, 402.500 823.659 C 453.107 824.168, 455.387 824.113, 453 822.448 C 448.495 819.306, 441.802 812.578, 439.126 808.500 C 437.465 805.970, 435.589 804.371, 434.019 804.148 C 427.690 803.250, 411.610 795.681, 404.080 790.055 L 400.660 787.500 372.080 787.253 C 349.015 787.054, 342.880 787.283, 340.285 788.440 M 528.411 787.748 L 510.322 788.044 512.128 793.272 C 515.073 801.795, 514.322 807.822, 509.683 812.882 C 506.996 815.814, 500.405 818.949, 496.865 818.978 C 495.164 818.992, 493.641 819.898, 492.569 821.535 L 490.907 824.071 580.704 823.785 C 681.114 823.466, 675.333 823.901, 677.858 816.487 C 678.604 814.294, 679.279 808.433, 679.358 803.463 C 679.605 787.767, 678.185 787.014, 648.348 787.006 L 628.196 787 627.129 790.059 C 625.032 796.075, 615.851 809.961, 611.353 813.921 C 605.938 818.687, 603.292 819.312, 590.479 818.849 C 581.389 818.520, 580.686 818.339, 578.460 815.750 C 576.458 813.421, 575.318 813, 571.016 813 C 564.760 813, 560.419 811.223, 556.500 807.058 C 553.739 804.123, 553.472 803.199, 553.147 795.435 L 552.795 787 549.647 787.226 C 547.916 787.350, 538.360 787.585, 528.411 787.748 M 354.054 830.735 C 354.083 831.706, 355.100 837.662, 356.312 843.972 L 358.516 855.444 367.508 856.639 C 377.891 858.020, 411.914 860.500, 412.264 859.902 C 412.394 859.681, 412.275 852.750, 412 844.500 L 411.500 829.500 382.750 829.235 C 355.823 828.986, 354.003 829.081, 354.054 830.735 M 417.555 844.250 C 417.941 852.638, 418.455 859.718, 418.696 859.984 C 419.260 860.606, 480.163 862.171, 480.755 861.578 C 481 861.333, 480.873 853.903, 480.472 845.066 L 479.744 829 448.298 829 L 416.851 829 417.555 844.250 M 486 845.500 L 486 862 518 862 L 550 862 550 845.500 L 550 829 518 829 L 486 829 486 845.500 M 556 845.653 L 556 862.306 567.250 861.657 C 573.438 861.301, 586.938 861.007, 597.250 861.005 L 616 861 616 845 L 616 829 586 829 L 556 829 556 845.653 M 635.300 829.747 L 622.100 830.057 621.800 845.030 L 621.500 860.003 625 860.001 C 630.643 859.997, 650.065 858.062, 655.561 856.955 L 660.622 855.937 662.333 843.218 C 663.275 836.223, 664.035 830.163, 664.023 829.750 C 664.010 829.337, 660.513 829.098, 656.250 829.218 C 651.987 829.338, 642.560 829.576, 635.300 829.747 M 359 860.717 C 359 862.039, 365.221 904.540, 365.448 904.774 C 366.930 906.299, 384.951 908.500, 411.250 910.369 C 416.861 910.768, 416.489 913.274, 414.493 888.500 C 413.695 878.600, 413.033 869.567, 413.021 868.427 C 413.001 866.455, 411.990 866.267, 392.250 864.573 C 380.837 863.594, 368.688 862.219, 365.250 861.518 C 361.813 860.818, 359 860.457, 359 860.717 M 653.500 863.023 C 651.300 863.459, 644.550 864.101, 638.500 864.450 C 632.450 864.798, 626.140 865.291, 624.478 865.544 L 621.456 866.005 619.276 887.717 C 618.077 899.659, 617.283 909.616, 617.512 909.845 C 618.470 910.804, 652.639 906.788, 653.063 905.667 C 654.146 902.804, 659.264 862.033, 658.530 862.115 C 657.963 862.178, 655.700 862.587, 653.500 863.023 M 419.351 874.978 C 419.683 879.665, 420.254 889.202, 420.619 896.170 C 420.984 903.139, 421.565 909.297, 421.910 909.855 C 422.294 910.476, 434.001 911.146, 452.151 911.584 L 481.764 912.299 481.253 889.900 C 480.972 877.580, 480.688 867.436, 480.621 867.357 C 480.555 867.278, 466.606 867.043, 449.624 866.835 L 418.748 866.457 419.351 874.978 M 582.712 866.749 C 562.547 866.963, 555.831 867.338, 555.546 868.266 C 555.338 868.945, 554.909 879.021, 554.592 890.658 L 554.016 911.815 582.143 911.439 C 597.613 911.233, 610.470 910.863, 610.715 910.618 C 611.139 910.195, 614.364 882.352, 615.275 871.250 L 615.706 866 612.603 866.233 C 610.896 866.361, 597.446 866.593, 582.712 866.749 M 487.015 888.476 C 487.024 900.039, 487.415 910.106, 487.884 910.847 C 488.577 911.940, 494.320 912.133, 518.239 911.867 L 547.739 911.538 548.364 903.519 C 548.707 899.109, 548.991 889.200, 548.994 881.500 L 549 867.500 518 867.476 L 487 867.451 487.015 888.476 M 366.018 911.683 C 366.075 914.256, 372.004 952.197, 372.466 952.945 C 373.706 954.951, 389.332 957.455, 413.338 959.493 L 420.175 960.074 419.620 957.287 C 419.314 955.754, 418.599 948.200, 418.030 940.500 C 417.462 932.800, 416.746 924.189, 416.441 921.366 L 415.885 916.231 405.192 915.558 C 393.583 914.828, 370.568 912.275, 367.750 911.405 C 366.788 911.108, 366.008 911.233, 366.018 911.683 M 644.500 913.054 C 641.750 913.505, 634.432 914.283, 628.238 914.783 C 622.044 915.282, 616.812 915.873, 616.611 916.096 C 616.411 916.318, 615.267 925.050, 614.069 935.500 C 612.872 945.950, 611.633 955.549, 611.317 956.831 C 610.664 959.479, 608.736 959.524, 631.500 956.368 C 638.100 955.453, 644.063 954.696, 644.750 954.686 C 645.438 954.675, 646 954.380, 646 954.029 C 646 953.678, 647.350 944.739, 649 934.165 C 650.650 923.590, 652 914.277, 652 913.469 C 652 911.865, 651.812 911.855, 644.500 913.054 M 422.602 926 C 422.980 931.225, 423.786 941.125, 424.394 948 L 425.500 960.500 453.884 961.283 C 469.495 961.713, 482.436 961.897, 482.641 961.692 C 482.847 961.487, 482.715 951.360, 482.349 939.188 L 481.683 917.056 451.799 916.778 L 421.915 916.500 422.602 926 M 578.828 916.749 L 554.155 917.035 553.603 923.267 C 553.299 926.695, 552.775 936.717, 552.438 945.538 L 551.825 961.575 558.662 961.304 C 562.423 961.155, 574.356 960.752, 585.180 960.410 L 604.860 959.787 605.459 956.143 C 606.312 950.953, 609.986 919.844, 609.994 917.750 C 609.999 916.394, 609.269 916.052, 606.750 916.232 C 604.962 916.359, 592.397 916.592, 578.828 916.749 M 487.746 935.249 C 487.881 945.287, 488.246 955.413, 488.557 957.750 L 489.123 962 517.453 962 L 545.784 962 546.379 952.250 C 546.707 946.888, 547.260 936.763, 547.608 929.750 L 548.241 917 517.870 916.999 L 487.500 916.997 487.746 935.249 M 642.178 960.111 C 640.900 960.594, 634.150 961.699, 627.178 962.567 C 620.205 963.435, 613.533 964.334, 612.352 964.566 C 610.564 964.916, 609.923 966.290, 608.530 972.743 C 607.610 977.010, 605.989 983.679, 604.928 987.564 C 603.868 991.449, 603 994.851, 603 995.123 C 603 995.978, 618.261 994.046, 623.500 992.528 C 632.815 989.829, 640.488 979.941, 643.482 966.781 C 645.294 958.811, 645.317 958.924, 642.178 960.111 M 373.443 962.129 C 373.741 963.433, 374.449 966.676, 375.016 969.336 C 378.859 987.360, 389.820 994.273, 418.024 996.459 L 425.548 997.042 422.934 981.271 L 420.320 965.500 409.910 964.761 C 400.101 964.065, 380.265 961.521, 375.201 960.309 C 373.199 959.830, 372.971 960.066, 373.443 962.129 M 589.500 966.047 C 584 966.442, 573.149 966.818, 565.386 966.883 L 551.272 967 550.603 978.750 C 550.236 985.212, 549.690 992.300, 549.391 994.500 L 548.847 998.500 558.174 998.200 C 575.305 997.649, 596.047 996.286, 596.663 995.671 C 597.350 994.983, 602.531 974.736, 603.526 968.848 C 604.131 965.267, 604.013 965.011, 601.838 965.165 C 600.552 965.256, 595 965.653, 589.500 966.047 M 426.570 968.962 C 426.809 970.358, 427.912 977.096, 429.020 983.935 C 430.129 990.773, 431.216 996.549, 431.436 996.769 C 431.913 997.246, 466.339 998.906, 476.894 998.961 L 484.288 999 483.568 983.257 C 483.172 974.599, 482.770 967.449, 482.674 967.369 C 482.578 967.289, 469.818 967.043, 454.317 966.823 L 426.135 966.423 426.570 968.962 M 489.005 972 C 489.007 974.475, 489.301 981.563, 489.657 987.750 L 490.306 999 516.528 999 L 542.750 999 543.340 996.048 C 543.665 994.425, 544.199 988.238, 544.527 982.298 C 544.855 976.359, 545.301 970.600, 545.518 969.500 C 545.905 967.538, 545.377 967.500, 517.457 967.500 L 489.001 967.500 489.005 972" stroke="none" fill="#1a1a1a" fill-rule="evenodd"/>
</svg>