<svg xmlns="http://www.w3.org/2000/svg" width="1024" height="1024" viewBox="0 0 1024 1024" version="1.1">
	<path d="M 637.325 36.426 C 632.772 38.454, 631.151 41.560, 629.398 51.615 C 625.926 71.532, 619.619 83.350, 608.313 91.129 L 603.935 94.140 594.218 88.173 C 558.326 66.131, 527.746 60.241, 495.079 69.080 C 484.554 71.927, 469.499 79.952, 462.074 86.672 C 458.641 89.778, 453.283 93.531, 450.166 95.012 C 447.050 96.493, 442.152 99.825, 439.282 102.416 L 434.064 107.127 424.782 102.380 C 407.943 93.769, 394.625 78.322, 391.048 63.256 C 389.630 57.282, 386.166 53.696, 380.219 52.044 C 373.034 50.049, 369.606 51.762, 362.752 60.773 C 356.593 68.873, 356.360 69.386, 353.502 81.183 C 347.319 106.704, 352.047 130.216, 366.502 145.829 C 371.836 151.590, 372 151.938, 372 157.500 C 372 164.307, 374.474 164.417, 350 156.520 C 329.937 150.046, 322.197 148.249, 310.691 147.393 C 290.067 145.858, 268.125 153.168, 238.700 171.375 C 204.075 192.800, 204.483 192.493, 202.913 198.324 C 200.230 208.288, 204.429 217.495, 217.642 230.616 C 255.144 267.858, 299.281 278.125, 337.849 258.577 C 344.225 255.345, 344.362 255.421, 343.019 261.417 C 338.269 282.611, 335.020 324.059, 336.938 338.975 C 338.990 354.924, 345.041 370.067, 354.480 382.873 C 366.792 399.578, 388.976 416.992, 404.250 421.940 C 408.952 423.464, 408.935 423.666, 403.655 428.848 L 399.311 433.112 391.905 432.446 C 370.887 430.557, 344.611 438.753, 326.973 452.700 C 309.182 466.768, 295.809 490.853, 287.517 523.763 C 285.648 531.179, 281.007 560.201, 281.002 564.500 L 280.998 567.500 269.749 567.573 C 234.970 567.799, 194.769 588.834, 172.422 618.500 C 157.451 638.373, 146 673.974, 146 700.646 C 146 705.648, 145.874 705.886, 142.678 706.941 C 128.793 711.524, 123.272 738.381, 132.340 757.234 C 137.641 768.256, 148.922 777.434, 159.855 779.621 C 162.659 780.182, 162.761 780.418, 163.410 787.849 C 165.796 815.179, 173.197 837.934, 185.415 855.505 L 189.590 861.509 180.545 859.214 C 150.710 851.645, 104.560 845.666, 102.441 849.096 C 100.946 851.515, 105.165 853.127, 119.052 855.444 C 153.476 861.188, 189.668 870.095, 204.736 876.532 C 219.708 882.927, 228.086 884.446, 248.500 884.466 C 271.931 884.489, 284.635 880.665, 298.410 869.443 C 310.018 859.988, 322 837.288, 322 824.753 C 322 821.330, 319.256 820.909, 345.995 828.435 C 365.800 834.009, 387.253 839.233, 426.034 847.928 L 435.569 850.066 436.766 860.082 C 438.746 876.638, 446.251 895.542, 459.014 916.120 C 463.480 923.320, 463.795 924.174, 461.778 923.604 C 424.211 912.985, 378.925 905.045, 369.466 907.419 C 363.886 908.820, 369.283 911.077, 386.621 914.596 C 428.011 922.994, 462.841 932.533, 488 942.362 C 501.902 947.793, 501.065 947.593, 539 954.524 C 555.775 957.590, 582.717 963.036, 598.870 966.628 C 628.095 973.127, 632.356 973.544, 629.066 969.580 C 626.220 966.150, 595.773 956.906, 569.500 951.495 C 557.933 949.113, 557.930 949.110, 565.183 946.575 C 583.119 940.308, 599.014 926.319, 607.320 909.493 C 611.366 901.298, 617.623 883.367, 618.598 877.178 L 619.279 872.855 626.889 873.678 C 647.973 875.956, 700.907 873.545, 742.045 868.433 L 746.591 867.869 750.512 875.023 C 757.303 887.410, 771.267 898.181, 786 902.393 C 789.025 903.258, 799.872 905.095, 810.105 906.474 C 832.615 909.508, 863.331 915.425, 891.076 922.071 C 914.218 927.615, 917 927.937, 917 925.073 C 917 921.040, 893.698 913.295, 861.957 906.777 C 848.005 903.912, 842.290 902, 847.677 902 C 852.607 902, 866.695 893.522, 874.083 886.108 C 885.110 875.044, 895 856.356, 895 846.584 C 895 843.423, 896.114 842.730, 906.135 839.656 C 924.369 834.063, 936.170 820.934, 940.973 800.898 C 945.632 781.463, 942.457 770.867, 930.487 765.906 L 925 763.632 925 755.040 C 925 750.314, 924.531 742.707, 923.958 738.135 C 923.032 730.756, 923.159 728.848, 925.086 721.161 C 932.414 691.927, 916.932 656.069, 888.948 637.466 C 879.451 631.152, 860.949 622.448, 852.756 620.440 C 846.649 618.944, 844.916 617.946, 838.647 612.316 C 812.172 588.540, 763.680 566.865, 724.849 561.451 C 720.199 560.803, 720.197 560.801, 719.536 556.151 C 719.173 553.593, 717.767 545.943, 716.412 539.151 L 713.948 526.803 717.223 520.151 C 722.269 509.904, 722.085 498.545, 716.750 490.798 C 714.688 487.804, 713 484.246, 713 482.893 C 713 480.355, 704.721 471.363, 700.316 469.115 C 694.572 466.184, 676.383 468.709, 672.524 472.974 C 670.898 474.770, 670.712 474.738, 666.566 471.940 C 658.852 466.734, 641.773 460.637, 631.725 459.502 L 625.951 458.850 620.142 450.175 C 613.479 440.224, 608.587 432.012, 609.129 431.685 C 612.823 429.449, 621.214 426.524, 631.125 424.017 C 659.154 416.925, 676.291 406.229, 690.436 387 C 701.552 371.888, 705.941 359.684, 706.716 341.727 C 707.402 325.828, 706.112 317.270, 700.654 301.500 L 696.500 289.500 696.704 263.629 C 696.816 249.400, 697.088 237.579, 697.308 237.358 C 697.528 237.138, 702.612 238.649, 708.604 240.716 C 719.300 244.405, 719.775 244.475, 734.500 244.487 C 751.714 244.502, 757.605 243.291, 770.706 237.046 C 790.836 227.450, 807.851 210.365, 817.225 190.334 C 824.044 175.761, 817.192 167.645, 784 150.979 C 762.527 140.198, 746.561 135.179, 731 134.319 C 717.944 133.597, 710.927 134.925, 686.626 142.715 L 668.751 148.445 665.462 144.528 L 662.173 140.611 665.968 133.055 C 680.685 103.751, 678.883 68.469, 661.505 45.710 C 655.743 38.164, 643.755 33.561, 637.325 36.426 M 641.683 47.858 C 640.896 48.761, 639.564 53.665, 638.723 58.755 C 636.472 72.374, 630.085 85.020, 620.542 94.750 L 613.314 102.120 617.407 104.887 C 619.658 106.409, 625.529 110.068, 630.453 113.017 C 635.378 115.967, 642.863 121.193, 647.086 124.631 L 654.765 130.881 658.789 122.191 C 664.547 109.755, 665.382 106.008, 665.409 92.500 C 665.446 74.165, 660.266 58.925, 651.320 51.050 C 646.122 46.475, 643.613 45.644, 641.683 47.858 M 370.141 66.764 C 365.645 71.259, 365.077 72.384, 363.157 80.579 C 358.585 100.097, 359.340 110.683, 366.353 125.410 C 374.149 141.780, 384.286 152, 392.726 152 C 403.868 152, 426.064 132.920, 427.042 122.500 C 427.699 115.506, 427.540 115.307, 417.261 110.307 C 400.687 102.244, 389.778 89.432, 383.170 70.269 C 379.657 60.079, 377.426 59.479, 370.141 66.764 M 509.500 76.448 C 494.659 78.768, 481.696 83.871, 473.831 90.489 L 471.141 92.752 476.638 93.856 C 482.563 95.046, 488 98.258, 488 100.568 C 488 102.306, 486.333 102.354, 478.951 100.829 C 470.074 98.995, 461.639 100.794, 449 107.217 L 438.500 112.553 437.906 118.739 C 435.594 142.794, 403.332 167.433, 384.468 159.551 L 381 158.102 381 161.502 C 381 163.372, 381.497 167.217, 382.104 170.047 C 382.851 173.530, 382.879 175.521, 382.192 176.208 C 381.504 176.896, 374.282 174.942, 359.838 170.160 C 322.115 157.672, 316.606 156.453, 301.367 157.215 C 283.125 158.128, 261.408 167.451, 232.860 186.624 C 215.310 198.411, 212.680 201.164, 213.247 207.153 C 214.043 215.555, 227.951 230.136, 247.663 243.234 C 282.725 266.531, 329.113 262.060, 356.120 232.780 C 362.516 225.846, 365 225.493, 365 231.518 C 365 235.809, 363.051 239.830, 358.556 244.810 C 355.466 248.234, 355.040 249.582, 352.648 263.500 C 346.992 296.416, 345.717 308.579, 346.391 323.183 C 347.883 355.513, 353.057 368.147, 372.955 388.045 C 386.875 401.965, 404.771 412.780, 427.500 421.009 C 441.715 426.155, 449.822 430.861, 448.410 433.145 C 447.415 434.756, 439.221 433.999, 430.597 431.500 C 419.129 428.177, 418.359 428.258, 413.579 433.307 C 395.696 452.193, 367.821 525.631, 361.534 570.423 C 360.725 576.187, 359.789 581.991, 359.456 583.321 C 358.849 585.738, 358.857 585.741, 382.674 590.335 C 395.778 592.862, 411.900 595.858, 418.500 596.992 C 425.100 598.126, 437.700 600.437, 446.500 602.129 C 455.300 603.821, 468.351 606.195, 475.502 607.406 L 488.504 609.608 503.859 602.278 L 519.213 594.949 518.490 591.225 C 518.093 589.176, 517.482 585.256, 517.134 582.513 C 516.303 575.977, 514.904 575.787, 505.117 580.878 C 478.855 594.542, 453.853 595.214, 433.500 582.806 C 416.780 572.612, 403.971 554.952, 395.965 531.055 C 389.303 511.170, 394.418 506.272, 402.529 524.770 C 425.168 576.399, 452.003 591.135, 493.936 574.964 C 502.634 571.610, 502.759 571.496, 500.475 568.972 C 491.792 559.377, 494.103 534.481, 505.128 518.846 C 506.158 517.386, 507 516.011, 507 515.790 C 507 514.732, 489.472 517.429, 479.296 520.053 C 461.259 524.703, 459.385 523.623, 472.266 516 C 476.447 513.525, 480.129 511.231, 480.448 510.903 C 480.767 510.575, 479.077 507.397, 476.693 503.842 C 468.395 491.467, 459.674 465.926, 462.710 462.890 C 464.996 460.604, 467.009 463.111, 473.424 476.233 C 479.923 489.528, 483.635 495.482, 489.703 502.342 L 492.907 505.963 505.703 505.329 C 517.142 504.763, 519.031 504.403, 523.500 501.936 C 531.009 497.792, 537.449 495.967, 545.064 495.827 L 551.921 495.700 557.984 489.360 C 572.041 474.660, 597.983 461, 611.845 461 L 615.230 461 613.406 458.250 C 609.534 452.414, 598.997 435.455, 598.700 434.582 C 598.518 434.047, 595.698 434.195, 591.944 434.937 C 578.764 437.542, 573.444 437.846, 555.687 437.004 C 509.955 434.836, 486.373 417.749, 478.837 381.319 C 469.240 334.920, 514.867 295.980, 578.801 296.006 C 605.075 296.016, 621.144 299.746, 636.895 309.489 C 655.201 320.813, 664.920 337.088, 664.969 356.500 C 665.006 371.344, 657.362 391.945, 647.089 404.695 L 642.131 410.847 647.816 408.895 C 666.578 402.451, 687.754 378.268, 694.618 355.448 C 697.882 344.594, 697.092 327.376, 692.554 310.500 C 685.583 284.579, 685.792 286.561, 686.541 253.500 C 687.312 219.488, 686.605 212.541, 680.522 194.361 C 669.235 160.626, 649.617 135.681, 621.131 118.843 C 613.079 114.083, 612.710 113.969, 611.408 115.828 C 607.079 122.008, 597.556 121.889, 581.649 115.457 C 579.909 114.753, 579.888 114.882, 581.295 117.604 C 592.565 139.407, 585.685 163.824, 565.541 173.512 C 554.827 178.666, 553.207 178.283, 551.013 170.079 C 547.863 158.300, 543 148.226, 543 153.480 C 543 155.305, 537.363 158.257, 529.530 160.534 C 521.407 162.896, 507.558 162.178, 500.240 159.017 C 488.740 154.050, 479.320 138.945, 480.187 126.863 C 480.704 119.658, 482.829 121.537, 486.562 132.500 C 488.937 139.473, 497.738 148.069, 505.069 150.576 C 513.919 153.602, 532.175 152.313, 533.615 148.560 C 535.336 144.077, 528.621 124.097, 523.016 117.020 C 517.472 110.020, 520.052 108.806, 527.660 114.834 C 540.191 124.762, 551.619 142.359, 557.807 161.253 L 559.692 167.006 563.596 164.177 C 570.759 158.986, 576.418 149.559, 577.604 140.841 C 578.805 132.004, 572.684 116.037, 565.097 108.219 C 559.542 102.495, 559.702 101, 565.871 101 C 569.470 101, 573.379 102.169, 580.843 105.479 C 594.218 111.409, 599.093 112.618, 603.037 110.985 C 606.823 109.416, 606.219 108.626, 595.223 100.754 C 567.293 80.761, 536.950 72.158, 509.500 76.448 M 715 145.063 C 712.525 145.527, 702.325 148.484, 692.332 151.633 L 674.165 157.359 677.166 162.429 C 681.287 169.392, 687.540 182.732, 689.060 187.804 C 689.751 190.112, 690.367 192, 690.428 192 C 693.304 192, 708.804 186.251, 719.845 181.088 C 744.143 169.728, 759.727 168.305, 775.573 176.001 C 787.243 181.670, 788.213 186.421, 776.982 182.907 C 767.774 180.026, 752.261 179.288, 744.251 181.350 C 740.815 182.234, 731.467 186.319, 723.479 190.427 C 713.290 195.666, 706.576 198.430, 700.986 199.687 C 694.561 201.131, 693.116 201.790, 693.528 203.087 C 694.562 206.346, 697 220.261, 697 222.906 C 697 225.378, 697.761 225.950, 705.058 228.963 C 727.478 238.219, 749.756 236.786, 773.940 224.530 C 788.955 216.922, 809.927 190.879, 808.814 181.223 C 807.938 173.621, 762.184 149.513, 740.201 145.071 C 734.096 143.837, 721.556 143.833, 715 145.063 M 273 186.690 C 263.386 188.298, 245.307 197.489, 246.277 200.276 C 246.837 201.888, 249.261 201.588, 256.326 199.032 C 265.673 195.651, 280.754 193.763, 288.512 195.002 C 296.660 196.304, 301.479 198.208, 316.091 205.899 C 337.769 217.310, 354.441 218.959, 369.624 211.196 C 374.699 208.602, 379 203.660, 379 200.423 C 379 197.308, 378.248 197.372, 373.447 200.900 C 366.932 205.686, 360.181 207.373, 350.166 206.718 C 342.338 206.205, 328.734 202.497, 325.500 199.994 C 322.065 197.336, 303.423 188.963, 297.936 187.614 C 291.917 186.134, 279.154 185.661, 273 186.690 M 628.354 194.692 C 627.174 194.923, 625.378 196.030, 624.363 197.151 C 621.380 200.448, 625.346 203, 633.454 203 C 640.526 203, 650.248 205.945, 653.613 209.106 C 659.147 214.305, 662.005 208.353, 656.814 202.441 C 650.681 195.456, 639.714 192.470, 628.354 194.692 M 466.900 201.908 C 459.318 204.354, 446.745 215.184, 445.437 220.396 C 443.740 227.156, 447.902 230.162, 451.836 225.017 C 458.575 216.205, 466.560 211.004, 474.722 210.110 C 481.499 209.368, 483.595 207.150, 480.471 204.027 C 478.203 201.759, 470.899 200.618, 466.900 201.908 M 631.422 256.418 C 616.149 263.069, 612.552 280.718, 623.115 297.179 C 631.499 310.245, 648.561 309.784, 655.094 296.316 C 664.722 276.465, 648.434 249.011, 631.422 256.418 M 628.200 263.200 C 625.009 266.391, 629.997 275.908, 633.385 273.095 C 635.573 271.279, 635.447 265.715, 633.171 263.655 C 630.999 261.689, 629.819 261.581, 628.200 263.200 M 465.024 270.187 C 451.326 279.488, 450.281 306.628, 463.201 317.521 C 470.330 323.533, 480.820 324.943, 487.071 320.731 C 501.189 311.217, 500.633 282.141, 486.133 271.637 C 480.190 267.332, 470.236 266.648, 465.024 270.187 M 465.975 276.565 C 463.760 282.391, 466.716 289, 471.537 289 C 476.382 289, 477.493 281.928, 473.411 277.077 C 470.228 273.294, 467.296 273.092, 465.975 276.565 M 581 303.701 C 542.542 306.703, 517.719 316.545, 499.809 335.889 C 479.983 357.303, 480.720 389.567, 501.518 410.627 C 513.892 423.157, 529.213 428.225, 555 428.316 C 594.671 428.457, 624.169 418.215, 639.528 398.965 C 657.481 376.464, 659.582 358.742, 647.217 334.099 C 637.596 314.923, 628.298 309.028, 600.500 304.480 C 591.698 303.040, 590.216 302.981, 581 303.701 M 619.704 336.596 C 616.656 338.249, 615 341.544, 615 345.958 C 615 349.623, 616.555 350.120, 624.206 348.898 C 631.500 347.734, 633.333 346.327, 633.333 341.892 C 633.333 335.877, 626.166 333.092, 619.704 336.596 M 535.051 342.752 C 530.797 344.908, 529.378 349.011, 531.837 352.046 C 533.212 353.744, 535.059 354.199, 542.517 354.682 C 553.462 355.391, 555.045 354.438, 552.610 348.609 C 549.791 341.861, 541.960 339.249, 535.051 342.752 M 531.576 389.517 C 527.958 392.870, 528.516 395.405, 532.966 395.829 C 534.942 396.017, 537.758 397.337, 539.559 398.918 C 554.413 411.960, 594.133 411.005, 608.750 397.255 C 615.832 390.593, 611.599 388.220, 601.605 393.250 C 592.336 397.914, 588.464 398.921, 576.956 399.662 C 560.841 400.700, 548.454 397.351, 541.563 390.093 C 538.001 386.342, 535.178 386.179, 531.576 389.517 M 466.473 437.043 C 465.313 438.920, 467.332 440.004, 473.981 441.074 C 481.031 442.210, 483.322 441.326, 481.373 438.222 C 480.067 436.143, 467.637 435.160, 466.473 437.043 M 367.463 444.425 C 335.529 451.061, 313.711 472.303, 302.161 508 C 295.605 528.265, 292.185 545.974, 291.112 565.215 C 290.722 572.208, 290.188 578.145, 289.925 578.409 C 289.661 578.672, 287.433 578.418, 284.973 577.844 C 273.405 575.147, 246.616 579.076, 231.758 585.649 C 182.470 607.455, 157.174 645.702, 155.466 701 L 155.049 714.500 150.385 715.061 C 141.927 716.080, 137.345 725.443, 138.222 739.915 C 139.011 752.939, 144.941 762.358, 155.861 767.929 C 162.542 771.338, 162.648 771.221, 163.258 759.750 C 163.753 750.451, 166.524 734.946, 170.682 718.207 C 171.650 714.310, 174.266 708.697, 177.552 703.461 C 195.747 674.481, 215.386 665.233, 237.846 675.069 C 248.377 679.681, 265.993 701.618, 273.007 718.853 C 276.845 728.284, 284.547 756.164, 286.478 767.615 C 290.977 794.297, 298.869 804.330, 320.500 810.862 C 342.846 817.610, 397.245 831.747, 421 836.979 C 426.225 838.130, 431.229 839.292, 432.119 839.561 C 433.565 839.999, 433.795 837.729, 434.275 818.276 C 435.435 771.308, 442.861 749.282, 464.202 729.517 C 476.773 717.875, 484.027 714.922, 500.360 714.802 C 516.824 714.680, 526.600 718.575, 538.857 730.139 C 551.951 742.493, 556.971 750.382, 564.402 770.278 C 569.450 783.795, 572.501 795.701, 575.040 811.788 C 580.035 843.448, 587.423 854.657, 606.725 859.865 C 626.400 865.174, 652.933 866.604, 684.500 864.056 C 734.631 860.009, 817.250 849.742, 834 845.476 C 837.025 844.706, 850.591 841.806, 864.147 839.032 C 906.358 830.392, 912.556 828.321, 920.206 820.291 C 928.287 811.810, 933.927 796.042, 932.561 785.747 C 931.648 778.867, 930.558 777.157, 925.669 774.937 C 919.833 772.287, 918 772.434, 918 775.551 C 918 779.790, 911.715 781.654, 868 790.383 C 852.875 793.403, 834.343 797.257, 826.819 798.949 C 806.096 803.606, 742.953 812.309, 710.500 814.980 C 650.986 819.878, 600.920 815.124, 590.038 803.540 C 585.950 799.189, 589.036 797.749, 595.624 800.933 C 606.377 806.128, 643.351 808.881, 678.172 807.080 C 742.273 803.763, 790.036 796.935, 875.500 778.873 C 893.650 775.037, 909.704 771.647, 911.175 771.339 C 913.700 770.811, 913.889 770.366, 914.542 763.395 C 915.594 752.164, 914.367 742.733, 912.017 743.991 C 911.012 744.529, 907.018 745.263, 903.140 745.624 C 896.772 746.215, 895.556 746.018, 890.571 743.578 C 876.779 736.831, 867.744 716.488, 868.121 693.027 C 868.280 683.083, 868.081 681.946, 864.519 672.500 C 848.178 629.157, 826.401 607.527, 778.394 586.958 C 741.016 570.943, 720.515 568.534, 664 573.515 C 586.036 580.387, 555.201 587.910, 505.977 612.072 C 493.661 618.117, 489.304 619.811, 487.165 619.383 C 484.487 618.847, 484.263 619.129, 481.284 626.739 C 475.993 640.254, 470.245 662.009, 464.485 690.308 C 461.442 705.264, 458.707 718.288, 458.408 719.250 C 457.679 721.601, 456.315 721.457, 454.938 718.884 C 451.334 712.151, 466.213 643.806, 475.484 624.505 C 477.332 620.658, 478.766 617.476, 478.672 617.435 C 478.577 617.393, 467.025 615.442, 453 613.100 C 438.975 610.757, 416.250 606.650, 402.500 603.971 C 332.777 590.391, 325.436 589.095, 321.400 589.655 C 316.292 590.363, 316.088 589.874, 317.166 579.500 C 317.624 575.100, 318.675 564.185, 319.503 555.245 C 321.090 538.110, 324.547 519.703, 328.568 506.974 C 335.701 484.393, 355.251 469, 376.797 469 C 381.956 469, 382.221 468.868, 383.337 465.755 C 383.977 463.971, 386.637 458.093, 389.250 452.692 C 391.863 447.292, 394 442.677, 394 442.437 C 394 441.163, 377.045 442.433, 367.463 444.425 M 606.321 472.471 C 591.702 476.250, 584.200 480.250, 570.061 491.809 C 562.989 497.590, 561.899 499, 564.503 499 C 565.422 499, 569.066 501.778, 572.601 505.173 L 579.030 511.346 581.765 508.820 C 590.579 500.681, 605.441 493.451, 616.595 491.876 C 629.759 490.016, 647.967 494.332, 657.683 501.614 C 661.113 504.185, 662.530 504.666, 661.431 502.888 C 660.251 500.979, 660.887 492.403, 662.578 487.422 C 664.178 482.711, 664.169 482.636, 661.848 480.876 C 648.401 470.678, 626.238 467.323, 606.321 472.471 M 684.007 478.538 C 674.392 482.858, 668.849 494.751, 672.465 503.306 C 674.318 507.691, 675.026 507.660, 683.793 502.817 C 689.059 499.907, 693 499.727, 693 502.396 C 693 504.008, 687.666 512.088, 685.021 514.481 C 677.017 521.725, 691.595 528.398, 702.783 522.612 C 709.937 518.913, 713.497 501.719, 708.521 494.898 C 707.158 493.029, 705.544 490.375, 704.933 489 C 702.256 482.967, 701.348 481.582, 698.864 479.737 C 695.338 477.119, 688.412 476.560, 684.007 478.538 M 368 480.892 C 350.808 485.580, 341.487 496.510, 335.503 519 C 332.686 529.587, 328.329 559.107, 327.730 571.659 L 327.341 579.818 336.421 581.504 C 341.414 582.431, 346.175 583.366, 347 583.582 C 348.194 583.894, 348.871 581.680, 350.320 572.737 C 353.878 550.765, 366.203 508.033, 375.843 484.250 C 378.347 478.071, 378.347 478.071, 368 480.892 M 616 502.935 C 616 503.449, 616.517 505.137, 617.148 506.685 C 617.779 508.233, 620.182 515.575, 622.488 523 L 626.680 536.500 632.090 537.102 C 635.065 537.433, 639.894 538.740, 642.820 540.005 L 648.139 542.306 652.539 537.277 C 654.958 534.511, 659.195 530.800, 661.954 529.029 L 666.971 525.810 662.565 520.085 C 655.301 510.645, 647.837 505.990, 635.957 503.491 C 628.054 501.828, 616 501.493, 616 502.935 M 599.416 509.131 C 585.227 519.039, 584 520.480, 584 527.235 C 584 531.893, 583.208 535.150, 580.557 541.392 C 578.663 545.852, 576.976 550.735, 576.807 552.245 C 576.510 554.905, 576.415 554.946, 573.750 553.555 L 571 552.119 570.996 556.309 C 570.994 558.731, 570.150 561.882, 568.996 563.774 C 567.701 565.899, 567 568.812, 567 572.069 L 567 577.091 570.750 576.390 C 578.958 574.855, 579.259 574.646, 581.098 569.236 C 584.997 557.768, 597.326 545.010, 608.900 540.469 C 616.944 537.314, 616.757 537.826, 613.934 526.667 C 610.255 512.127, 607.832 505, 606.568 505 C 605.888 505, 602.669 506.859, 599.416 509.131 M 535.391 507.420 C 513.962 514.126, 498.161 545.580, 508.051 561.843 C 512.607 569.334, 520.292 569.550, 531.735 562.508 C 531.864 562.429, 531.063 560.594, 529.956 558.432 C 525.961 550.634, 530.981 546.571, 536.773 552.913 C 543.634 560.424, 550.215 562.657, 558.750 560.370 C 563.429 559.116, 561.580 550.570, 554.148 539.095 C 549.330 531.655, 549.093 530.266, 552.495 529.412 C 554.557 528.894, 556.182 529.842, 561.846 534.864 L 568.702 540.942 571.351 535.707 C 575.948 526.621, 574.531 520.360, 566.177 512.849 C 558.785 506.203, 546.309 504.003, 535.391 507.420 M 684.497 540.566 C 686.345 544.815, 688.623 551.419, 689.559 555.242 L 691.262 562.192 700.381 561.484 C 705.397 561.095, 709.690 560.599, 709.923 560.382 C 710.405 559.933, 707.351 541.855, 705.915 536.654 L 704.967 533.220 700.733 534.191 C 696.334 535.201, 685.743 534.831, 682.819 533.566 C 681.500 532.996, 681.862 534.503, 684.497 540.566 M 666.500 538.136 C 664.300 539.786, 661.294 542.926, 659.820 545.114 C 657.242 548.940, 657.198 549.230, 658.655 552.716 C 660.012 555.965, 660.008 556.751, 658.615 560.297 L 657.061 564.253 669.281 563.530 C 676.001 563.133, 681.623 562.691, 681.773 562.548 C 682.625 561.736, 671.787 534.759, 670.733 535.068 C 670.605 535.106, 668.700 536.487, 666.500 538.136 M 616.286 548.451 C 609.874 550.455, 603.918 554.311, 598.823 559.759 C 594.602 564.271, 590.392 570.737, 591.176 571.501 C 591.354 571.675, 597.575 570.995, 605 569.990 C 628.918 566.754, 644.490 565, 649.302 565 C 655.453 565, 655.504 563.099, 649.509 557.354 C 639.281 547.554, 628.446 544.651, 616.286 548.451 M 534 573.494 C 529.475 575.449, 526.567 577.283, 526.669 578.117 C 526.762 578.878, 527.128 582.059, 527.483 585.187 L 528.128 590.874 532.619 588.949 C 535.088 587.891, 541.584 585.634, 547.054 583.935 L 557 580.845 557 575.950 L 557 571.056 551.750 571.278 C 548.862 571.400, 545.375 571.219, 544 570.877 C 542.312 570.456, 539.063 571.306, 534 573.494 M 666 587.604 C 619.581 591.508, 578.925 599.202, 547.580 610.013 C 532.671 615.156, 529.774 616.624, 530.226 618.808 C 530.662 620.912, 530.612 620.920, 547 616.043 C 596.338 601.361, 646.340 593.745, 694 593.655 C 725.415 593.595, 736.867 594.787, 750.238 599.508 C 761.885 603.620, 761.244 603.506, 760.837 601.394 C 760.067 597.394, 745.779 592.131, 727 588.929 C 720.649 587.846, 674.929 586.852, 666 587.604 M 309.676 591.806 C 307.091 594.662, 303.026 605.470, 300.973 614.943 C 292.928 652.061, 298.648 746.360, 310.876 778.202 C 312.245 781.765, 314.839 782.999, 334.718 789.543 C 376.221 803.206, 421.029 813.849, 419.788 809.750 C 419.050 807.310, 410.248 804.017, 391 798.981 C 368.133 792.998, 328.739 781.613, 321.320 778.843 L 316.139 776.908 314.495 769.704 C 307.014 736.937, 304.493 711.191, 304.538 668 C 304.578 628.286, 305.343 619.943, 310.661 601.204 C 313.400 591.554, 313.037 588.092, 309.676 591.806 M 324.353 624.584 C 323.272 626.235, 322.497 629.975, 322.210 634.934 C 321.558 646.203, 324.106 648.002, 346.425 652.029 C 366.950 655.732, 369.496 654.688, 371.902 641.579 C 372.824 636.559, 372.675 635.279, 370.692 631.159 C 368.210 626.003, 352.357 622.019, 334.273 622.006 C 326.527 622, 325.947 622.151, 324.353 624.584 M 533 627.333 C 533 628.229, 534.013 629.184, 535.250 629.455 C 587.041 640.808, 636.651 664.333, 668.339 692.564 C 684.659 707.104, 684.504 701.407, 668.137 685.087 C 649.334 666.340, 616.242 648.044, 576.866 634.625 C 555.539 627.357, 533 623.610, 533 627.333 M 331.660 631.750 C 329.872 638.347, 329.922 639.020, 332.263 639.910 C 336.965 641.698, 356.106 645.112, 359.741 644.811 C 363.412 644.507, 363.507 644.397, 363.814 640.114 C 364.230 634.306, 364.362 634.383, 349.988 632.038 C 334.549 629.519, 332.275 629.483, 331.660 631.750 M 855.349 632.750 C 855.605 633.163, 858.294 637.446, 861.324 642.270 C 864.354 647.093, 868.506 655.265, 870.550 660.429 L 874.266 669.820 878.206 666.966 C 883.408 663.198, 891.454 661.507, 897.033 663.009 C 899.326 663.626, 901.468 663.865, 901.794 663.540 C 902.847 662.487, 890.711 650.957, 883.086 645.765 C 872.774 638.745, 853.431 629.668, 855.349 632.750 M 888 671.161 C 879.638 673.554, 876.500 680.467, 876.500 696.500 C 876.500 709.582, 878.781 717.517, 885.353 727.300 C 898.269 746.528, 916.402 737.768, 917.768 711.640 C 918.388 699.783, 916.684 693.712, 910.104 684.343 C 901.965 672.752, 895.634 668.977, 888 671.161 M 765.564 678.625 C 727.335 683.521, 706.023 693.342, 698.976 709.311 C 693.969 720.656, 693.996 751.904, 699.025 765.500 C 703.611 777.898, 715.045 786.106, 730.384 788.008 C 737.554 788.898, 793.389 784.862, 807.296 782.449 C 844.385 776.014, 858.920 759.713, 855.965 727.870 C 853.216 698.245, 842.443 682.957, 821.131 678.440 C 812.520 676.615, 780.423 676.722, 765.564 678.625 M 214.890 686.409 C 201.980 691.378, 187.845 707.247, 180.916 724.550 C 162.096 771.552, 174.380 838.841, 206.264 863.396 C 222.009 875.522, 235.511 876.313, 248.087 865.848 C 272.551 845.489, 283.568 792.706, 272.476 749 C 264.226 716.492, 251.307 694.014, 237.306 687.806 C 231.306 685.146, 220.001 684.442, 214.890 686.409 M 620.746 686.086 C 610.275 688.553, 598.433 697.894, 593.246 707.777 C 575.294 741.981, 600.811 787.374, 634.463 781.101 C 662.533 775.868, 677.545 749.423, 669.570 719.256 C 663.462 696.148, 641.464 681.203, 620.746 686.086 M 771.715 688.039 C 745.877 690.934, 725.476 696.603, 716.125 703.487 C 710.951 707.296, 707 712.107, 707 714.598 C 707 715.503, 722.136 714.528, 755 711.503 C 769.575 710.162, 789.375 708.360, 799 707.500 C 824.056 705.261, 838 702.496, 838 699.765 C 838 697.429, 829.810 691.016, 824.748 689.389 C 818.623 687.420, 784.905 686.562, 771.715 688.039 M 617 698.075 C 598.005 706.649, 591.535 733.527, 603.039 756.076 C 614.305 778.159, 646.964 775.593, 659.171 751.665 C 663.425 743.326, 662.681 726.370, 657.577 715.360 C 650.182 699.409, 631.591 691.489, 617 698.075 M 837.500 712.033 C 829.484 714.310, 758.354 721.588, 725.500 723.493 C 720 723.812, 713.138 724.314, 710.250 724.608 L 705 725.144 705 735.072 L 705 745 714.831 745 C 730.338 745, 806.910 740.194, 818.773 738.476 C 827.943 737.148, 845.884 733.331, 846.790 732.515 C 847.197 732.148, 845.113 719.261, 843.917 714.750 C 842.879 710.834, 842.413 710.637, 837.500 712.033 M 213.450 730.407 C 203.125 734.904, 196.567 752.701, 196.651 776 C 196.728 797.077, 199.928 808.610, 208.201 817.621 C 222.881 833.610, 240.189 828.384, 247.632 805.715 C 251.145 795.016, 251.688 769.929, 248.643 759 C 242.618 737.378, 226.853 724.569, 213.450 730.407 M 497.487 731.751 C 476.518 739.201, 457.498 762.094, 450.925 787.794 C 439.656 831.856, 445.653 877.702, 466.954 910.332 C 482.938 934.817, 507.556 942.535, 530.339 930.204 C 544.386 922.601, 558.680 898.411, 564.139 873 C 567.507 857.323, 567.534 821.607, 564.191 805.100 C 556.871 768.960, 541.669 741.400, 524.363 732.899 C 517.851 729.700, 504.826 729.144, 497.487 731.751 M 213.977 743.190 C 208.423 750.858, 206.497 759.458, 206.519 776.500 C 206.541 793.446, 207.993 800.333, 213.160 808 C 217.056 813.781, 220.197 816.083, 225.085 816.738 C 242.366 819.056, 247.161 763.467, 231.204 745.804 C 223.916 737.737, 218.521 736.918, 213.977 743.190 M 832 746.555 C 816.129 749.088, 794.589 750.959, 758 752.980 C 737.925 754.089, 718.186 755.266, 714.135 755.594 L 706.770 756.192 707.360 759.830 C 708.320 765.746, 712.825 771.085, 720.041 774.858 L 726.500 778.236 745.500 777.659 C 813.579 775.593, 839.074 767.836, 845.439 747.250 C 846.275 744.545, 845.003 744.479, 832 746.555 M 493.219 784.578 C 478.434 791.946, 471.488 807.460, 471.538 833 C 471.601 865.005, 483.935 885.571, 503 885.463 C 522.178 885.354, 533.430 866.124, 533.405 833.500 C 533.378 797.298, 514.300 774.073, 493.219 784.578 M 497.500 793.569 C 484.508 800.313, 478.363 820.982, 481.958 845.849 C 486.988 880.641, 512.948 886.766, 521.806 855.250 C 524.193 846.757, 524.096 822.550, 521.643 814.530 C 516.191 796.711, 506.934 788.673, 497.500 793.569 M 285.585 804.092 C 282.807 829.185, 272.585 854.270, 259.030 869.255 L 253.559 875.302 260.913 874.577 C 288.021 871.906, 308.297 851.873, 312.542 823.566 L 313.210 819.115 306.722 816.173 C 300.389 813.302, 292.613 806.714, 288.329 800.592 L 286.294 797.684 285.585 804.092 M 867.429 848.416 C 850.164 852.133, 850.008 852.199, 849.976 855.809 C 849.916 862.682, 839.999 880.720, 830.983 890.359 L 825.092 896.656 831.137 895.830 C 857.536 892.219, 874.133 878.271, 883.123 852.142 C 886.057 843.615, 887.804 844.030, 867.429 848.416 M 575.994 854.169 C 575.975 868.343, 570.902 889.279, 563.953 903.862 C 556.349 919.821, 549.585 928.419, 537.606 937.351 C 533.303 940.559, 533.002 941.010, 535.106 941.085 C 564.127 942.119, 587.645 927.787, 600.083 901.490 C 603.826 893.576, 610.473 872.140, 609.489 871.156 C 609.209 870.876, 605.856 869.657, 602.036 868.446 C 592.597 865.453, 587.212 862.106, 581.133 855.455 L 576 849.839 575.994 854.169 M 837.892 854.441 C 837.345 854.989, 794.037 862.088, 772.784 865.115 L 757.068 867.353 761.380 873.427 C 773.326 890.249, 795.237 898.419, 811.381 892.071 C 822.956 887.519, 834.283 873.061, 839.444 856.250 C 840.051 854.272, 839.132 853.201, 837.892 854.441" stroke="none" fill="#1a1a1a" fill-rule="evenodd"/>
</svg>