<svg xmlns="http://www.w3.org/2000/svg" width="1024" height="1024" viewBox="0 0 1024 1024" version="1.1">
	<path d="M 482.500 2.690 C 400.865 8.075, 330.491 40.132, 275.819 96.839 C 210.708 164.373, 174.679 257.092, 174.725 357 C 174.746 402.581, 179.923 434.462, 194.526 478.937 L 199.923 495.374 195.852 498.859 C 191.907 502.235, 191.795 502.501, 192.240 507.422 C 192.500 510.304, 195.406 519.498, 198.957 528.680 L 205.215 544.861 202.472 550.468 C 197.756 560.107, 200.412 572.114, 209.148 580.645 C 211.438 582.881, 213 585.350, 213 586.735 C 213 593.150, 218.307 599.362, 227.394 603.584 C 232.179 605.808, 232.390 606.097, 236.894 616.645 C 243.720 632.631, 247.552 634.507, 262.189 629.030 C 273.826 624.676, 278.991 617.624, 277.315 608.378 C 276.440 603.549, 276.510 602.982, 277.912 603.523 C 301.666 612.694, 345.761 613.230, 366.415 604.600 L 370.133 603.046 369.317 611.273 C 367.945 625.086, 368.509 663.511, 370.205 671.764 L 371.697 679.027 368.239 686.264 C 360.281 702.921, 353.714 722.823, 349.803 742.137 C 346.539 758.257, 346.504 788.254, 349.735 801.117 C 356.353 827.468, 374.517 853.613, 405.500 881.386 L 414.500 889.453 415.109 904.977 C 416.132 931.081, 418.096 934.671, 430.780 933.622 C 435.582 933.225, 438.695 933.417, 439.926 934.186 C 445.597 937.727, 468.650 921.552, 480.613 905.638 C 488.765 894.793, 495 880.368, 495 872.352 C 495 868.393, 494.244 867.085, 486.282 857.260 C 466.648 833.032, 452.172 809.897, 450.517 800.101 C 450.037 797.257, 450.369 794.234, 451.590 790.354 L 453.359 784.730 454.994 790.615 C 460.212 809.386, 472.432 824.234, 495 839.222 C 504.884 845.787, 532.141 860, 534.845 860 C 535.526 860, 537.442 863.038, 539.103 866.750 C 547.116 884.660, 558.773 900, 564.372 900 C 567.593 900, 570.117 898.794, 575.144 894.855 C 577.148 893.285, 579.908 892, 581.278 892 C 584.309 892, 589.191 886.833, 595.969 876.449 C 605.391 862.016, 611.044 844.512, 611.161 829.406 C 611.285 813.373, 609.649 811.326, 585.623 797.459 C 578.405 793.293, 570.104 788.163, 567.175 786.058 L 561.851 782.232 567.480 779.012 C 586.492 768.134, 612.512 741.564, 616.520 728.936 C 617.089 727.146, 617.610 727.360, 622.322 731.323 C 640.888 746.937, 658.441 753.446, 682 753.452 C 706.793 753.459, 727.629 745.549, 741.798 730.751 C 745.032 727.373, 745.190 727.325, 750.038 728.284 C 756.895 729.640, 769.332 727.910, 776.575 724.594 C 803.552 712.244, 818.332 670.188, 807.419 636.827 C 804.869 629.032, 800.532 627.874, 797.888 634.283 C 793.998 643.717, 783.976 650.120, 765.367 655.062 C 744.345 660.645, 734.739 667.290, 729.994 679.531 C 727.311 686.452, 726.708 704.153, 728.893 711.843 C 730.350 716.971, 730.324 717.001, 719.500 722.367 C 708.199 727.969, 701.518 729.267, 686.500 728.777 C 665.994 728.108, 648.159 720.959, 635.104 708.177 C 626.890 700.135, 625.603 697.252, 625.871 687.500 C 626.384 668.841, 619.504 638.016, 605.532 596.366 C 605.323 595.742, 609.280 597.401, 614.326 600.054 C 637.366 612.165, 677.781 616.879, 710.630 611.286 L 721.759 609.391 720.781 612.198 C 720.243 613.741, 719.397 615.254, 718.902 615.561 C 717.269 616.570, 717.920 625.358, 719.842 628.274 C 724.070 634.686, 736.616 641, 745.130 641 C 750.933 641, 755.137 636.306, 761.500 622.721 C 766.130 612.836, 766.773 611.960, 770.194 610.882 C 775.266 609.283, 780.646 604.622, 783.156 599.653 C 784.311 597.369, 787.254 593.348, 789.698 590.717 C 799.972 579.658, 801.505 564.200, 793.260 554.789 C 791.907 553.245, 792.454 551.445, 798.881 536.282 C 807.474 516.007, 807.537 515.252, 801.176 508.890 L 796.352 504.067 802.281 493.783 C 842.142 424.638, 855.126 358.229, 842.900 286.024 C 821.935 162.210, 748.750 66.970, 642.500 25.230 C 596.622 7.206, 538.394 -0.996, 482.500 2.690 M 481 10.052 C 374.395 18.579, 289.876 70.841, 234.735 162.329 C 182.017 249.796, 167.614 358.465, 195.545 458 C 202.358 482.277, 206.192 492.198, 208.480 491.473 C 213.827 489.780, 221.006 489.774, 223.582 491.462 C 226.341 493.270, 226.873 494.329, 234.920 514.031 L 240.038 526.562 248.434 527.707 C 253.126 528.347, 259.625 530.076, 263.165 531.628 C 277.641 537.971, 322.441 534.882, 339.243 526.381 C 348.132 521.884, 355.700 515.407, 377.019 494.053 C 388.305 482.749, 400.324 471.475, 403.729 469 C 407.134 466.525, 409.938 464.258, 409.960 463.963 C 409.982 463.667, 405.387 461.922, 399.750 460.084 C 369.685 450.282, 348.107 435.188, 338.828 417.469 C 332.745 405.851, 331.521 400.336, 331.622 385 C 331.720 370.128, 331.925 369.250, 341.653 342 L 346.472 328.500 346.486 304.250 C 346.494 290.913, 346.465 280, 346.422 280 C 346.380 280, 343.680 281.076, 340.422 282.391 C 308.267 295.370, 272.020 284.766, 249.248 255.720 C 236.501 239.461, 233.315 226.750, 240.334 220.156 C 241.821 218.759, 246.897 216.818, 254.095 214.894 C 260.368 213.217, 272.025 209.111, 280 205.770 C 299.505 197.599, 305.917 195.970, 321.239 195.296 C 340.412 194.452, 353.035 197.751, 368.216 207.571 C 374.402 211.573, 375.466 211.962, 376.740 210.689 C 378.013 209.416, 377.753 208.593, 374.663 204.100 C 354.751 175.153, 370.761 119.119, 399.067 118.692 C 407.183 118.570, 408.287 120.374, 408.556 134.196 C 408.867 150.239, 411.800 157.742, 421.328 166.872 L 424.846 170.243 434.535 166.087 C 474.738 148.843, 523.882 148.494, 565.884 165.157 L 573.268 168.086 577.200 165.362 C 582.489 161.696, 590.273 153.052, 592.488 148.383 C 593.480 146.293, 595.257 139.672, 596.437 133.670 C 599.374 118.727, 603.536 115.272, 613.558 119.460 C 621.914 122.951, 632.718 138.874, 635.957 152.474 C 639.892 168.993, 635.618 190.340, 625.537 204.519 L 622.010 209.480 625.980 213.451 L 629.951 217.421 645.725 209.744 C 667.536 199.128, 670.013 198.494, 689.500 198.530 C 704.371 198.557, 706.064 198.756, 713.500 201.340 C 723.223 204.720, 738.443 211.920, 750.298 218.749 C 755.137 221.536, 763.766 225.480, 769.473 227.514 C 782.509 232.158, 784.513 234.072, 784.465 241.833 C 784.339 262.396, 752.794 291.348, 722.063 299.107 C 714.716 300.962, 711.746 301.169, 699.063 300.710 C 682.308 300.103, 676.638 298.796, 663.116 292.423 C 657.955 289.990, 653.665 288, 653.584 288 C 653.502 288, 654.417 293.962, 655.617 301.250 C 663.599 349.723, 664.038 374.505, 657.250 393.500 C 646.408 423.840, 628.832 441.436, 596.311 454.508 L 586.002 458.652 593.257 463.248 C 603.183 469.536, 613.401 478.379, 634 498.510 C 643.625 507.916, 653.525 516.989, 656 518.673 C 678.368 533.889, 721.395 543.768, 739.958 537.950 C 743.510 536.837, 748.946 535.661, 752.038 535.338 L 757.659 534.751 764.136 519.127 C 771.682 500.925, 773.912 498.449, 782 499.290 C 784.475 499.547, 787.175 500.032, 788 500.367 C 789.098 500.814, 791.012 498.369, 795.145 491.239 C 836.593 419.735, 848.624 354.963, 834.441 279.688 C 808.186 140.339, 714.877 41.704, 585 16.011 C 556.096 10.293, 510.585 7.686, 481 10.052 M 605.584 126.750 C 605.281 127.713, 604.397 132.100, 603.620 136.500 C 600.700 153.026, 594.228 163.089, 580.395 172.617 C 574.806 176.466, 574.795 176.484, 575.377 180.731 C 577.231 194.263, 593.214 208, 607.103 208 C 612.768 208, 614.325 206.888, 620.031 198.762 C 632.689 180.737, 633.076 155.805, 620.987 137.101 C 615.255 128.232, 606.887 122.609, 605.584 126.750 M 391.366 129.344 C 379.806 137.311, 373.498 152.197, 373.503 171.500 C 373.507 184.888, 374.883 190.461, 380.145 198.405 L 383.196 203.011 392.598 194.112 C 397.770 189.217, 405.586 182.760, 409.968 179.762 L 417.935 174.312 414.868 171.406 C 405.535 162.565, 401.052 151.181, 401.021 136.250 C 400.996 124.144, 399.973 123.412, 391.366 129.344 M 478.954 161.510 C 468.550 162.930, 464.953 163.749, 451.736 167.702 C 443.331 170.216, 442.853 170.518, 440.052 175.069 C 431.465 189.025, 432.121 202.180, 441.711 208.363 C 448.544 212.768, 449.454 212.656, 450.843 207.236 C 452.794 199.623, 457.582 192, 460.413 192 C 464.094 192, 464.186 194.379, 460.784 201.649 C 454.678 214.696, 456.089 231.324, 463.970 239.205 C 469.025 244.261, 470.784 244.021, 478.065 237.279 C 485.822 230.098, 490.202 223.630, 493.577 214.377 C 496.518 206.313, 498.521 204.690, 501.298 208.120 C 503.308 210.602, 502.973 215.592, 500.375 221.904 C 498.599 226.217, 499.048 226.602, 504.088 225.092 C 512.026 222.714, 520 211.653, 520 203.022 C 520 199.977, 521.646 198, 524.181 198 C 526.300 198, 527.391 201.527, 526.810 206.503 C 526.322 210.686, 525.854 210.623, 532.658 207.291 C 544.568 201.460, 551.562 189.389, 550.738 176.089 C 550.184 167.136, 549.872 166.839, 538.136 164.091 C 520.329 159.921, 497.789 158.938, 478.954 161.510 M 557.631 171.316 C 558.030 172.517, 558.330 176.425, 558.298 180 C 558.155 196.233, 546.937 210.457, 529.713 216.244 C 525.049 217.810, 522.552 219.403, 519.697 222.629 C 514.241 228.795, 504.681 233.309, 498.044 232.851 L 492.942 232.500 484.660 240.653 C 474.550 250.606, 470.334 252.399, 464.324 249.302 C 457.085 245.571, 451.489 235.599, 449.532 222.944 C 449.039 219.757, 448.477 219.207, 444.099 217.633 C 437.948 215.421, 431.548 209.994, 428.848 204.702 C 424.984 197.127, 427.204 182.907, 433.291 176.250 C 436.351 172.904, 434.348 173.489, 425.515 178.523 C 398.338 194.010, 374.226 220.510, 362.712 247.544 C 355.181 265.226, 352.679 281.566, 353.683 306.500 C 354.408 324.481, 353.142 332.150, 346.504 349.989 C 335.948 378.361, 335.461 394.305, 344.588 412.845 C 361.878 447.971, 435.089 471.687, 507 465.457 C 600.541 457.353, 644.240 431.442, 653.451 378.619 C 656.117 363.331, 654.975 346.842, 648.384 305.500 L 644.717 282.500 639.289 276.751 C 635.426 272.660, 633.953 270.353, 634.180 268.751 C 634.614 265.694, 639.418 265.043, 640.914 267.839 C 642.443 270.696, 653.490 279.215, 661 283.328 C 683.198 295.486, 710.133 297.290, 732.091 288.090 C 752.624 279.486, 774.763 257.439, 777.496 242.874 C 778.331 238.421, 777.789 237.991, 766.254 233.973 C 761.169 232.202, 752.169 228.059, 746.254 224.767 C 716.497 208.204, 708.951 205.651, 689.500 205.563 C 672.792 205.488, 666.263 207.138, 650.500 215.420 C 635.269 223.422, 623.857 228, 619.142 228 C 613.593 228, 613.516 225.422, 619 223.268 C 623.844 221.365, 623.859 221.225, 619.649 217.144 C 616.382 213.978, 616.183 213.925, 611.753 215.041 C 593.605 219.610, 569.567 200.282, 567.380 179.362 L 566.745 173.289 561.826 171.211 L 556.907 169.133 557.631 171.316 M 318 202.081 C 307.923 202.954, 297.263 206.005, 284.822 211.578 C 272.512 217.092, 264.129 220.057, 254 222.480 C 244.879 224.661, 244 225.298, 244 229.726 C 244 238.777, 260.392 259.789, 275.060 269.540 C 286.896 277.409, 303.218 281.794, 316.420 280.653 C 331.364 279.360, 347.575 273.019, 348.565 268.078 C 348.849 266.660, 350.536 260.908, 352.314 255.294 L 355.548 245.089 345.722 240.467 C 322.816 229.693, 312.329 228.232, 281.760 231.555 C 268.973 232.946, 264.702 233.102, 263.813 232.213 C 262.308 230.708, 266.886 228.739, 278.780 225.775 C 286.009 223.973, 290.492 223.592, 305 223.550 C 324.898 223.493, 328.450 224.338, 348.578 233.917 L 358.656 238.713 361.078 234.134 C 362.410 231.616, 365.164 226.977, 367.197 223.825 L 370.895 218.095 365.016 214.169 C 350.616 204.553, 335.207 200.592, 318 202.081 M 690.633 230.486 C 680.945 232.505, 675.279 234.481, 661 240.818 C 654.125 243.869, 644.257 247.988, 639.071 249.970 C 629.638 253.575, 627.306 255.413, 630.575 256.667 C 633.589 257.824, 643.136 255.200, 658.299 249.048 C 694.952 234.177, 702.828 233.446, 732.994 242.120 C 755.154 248.492, 760.398 246.732, 741.695 239.200 C 718.510 229.862, 704.828 227.527, 690.633 230.486 M 391.994 249.891 C 381.173 253.371, 371.487 265.523, 378.471 266.856 C 379.730 267.096, 381.358 266.159, 382.971 264.266 C 387.090 259.435, 390.706 257.686, 397.846 257.072 C 403.610 256.577, 404.540 256.221, 404.798 254.412 C 405.340 250.618, 397.901 247.991, 391.994 249.891 M 541.250 251.031 C 539.784 251.621, 539 252.780, 539 254.361 C 539 257.294, 540.720 258.082, 545.452 257.314 C 550.624 256.475, 557.516 259.460, 562.560 264.724 C 566.284 268.610, 567.080 269.027, 568.909 268.049 C 571.492 266.666, 571.526 265.374, 569.081 261.366 C 563.930 252.917, 549.702 247.634, 541.250 251.031 M 388.366 303.919 C 371.501 314.203, 376.128 346, 394.490 346 C 404.995 346, 412 337.011, 412 323.530 C 412 307.903, 399.221 297.299, 388.366 303.919 M 538.500 305.665 C 533.580 308.265, 531.865 310.193, 528.860 316.500 C 520.554 333.936, 531.761 354.684, 547.017 350.113 C 565.063 344.706, 568.129 312.549, 551.282 305.371 C 547.080 303.581, 542.234 303.692, 538.500 305.665 M 393.333 312.615 C 390.792 316.492, 393.165 320.500, 398 320.500 C 400.657 320.500, 401.754 319.910, 402.902 317.865 C 404.964 314.192, 402.351 310, 398 310 C 395.918 310, 394.540 310.772, 393.333 312.615 M 544 314 C 541.597 316.403, 541.462 318.786, 543.557 321.777 C 546.658 326.206, 554 323.394, 554 317.777 C 554 315.391, 550.479 312, 548 312 C 546.900 312, 545.100 312.900, 544 314 M 434 338.108 C 391.411 342.928, 371 360.192, 371 391.395 C 371 414.602, 379.711 428.579, 404.229 444.709 C 426.272 459.213, 437.691 463.346, 455.500 463.269 C 478.283 463.169, 503.876 451.392, 521.531 432.882 C 542.405 410.998, 540.987 373.581, 518.608 355.752 C 501.054 341.768, 466.089 334.477, 434 338.108 M 432.961 345.462 C 403.093 349.810, 389.543 357.027, 381.830 372.694 C 375.796 384.951, 376.884 404.513, 384.287 416.857 C 391.552 428.971, 417.414 447.125, 436.562 453.553 C 448.044 457.407, 466.425 456.845, 478.651 452.265 C 492.446 447.098, 509.109 436.217, 517.101 427.159 C 533.216 408.891, 533.129 380.224, 516.909 364.004 C 502.118 349.213, 464.409 340.884, 432.961 345.462 M 397.937 371.250 C 394.100 377.384, 397.071 384.817, 404.711 388.196 C 410.581 390.793, 413.416 389.683, 415.077 384.137 C 418.502 372.706, 403.896 361.725, 397.937 371.250 M 481.310 374.077 C 477.838 376.301, 474 383.152, 474 387.127 C 474 396.174, 488.682 396.156, 494.730 387.102 C 501.317 377.243, 491.397 367.616, 481.310 374.077 M 403.468 376.051 C 402.620 377.424, 407.591 382.742, 408.693 381.640 C 409.590 380.744, 406.999 375.825, 405.342 375.277 C 404.705 375.067, 403.862 375.415, 403.468 376.051 M 485.229 379.658 C 483.605 380.326, 480.649 385.982, 481.486 386.819 C 482.716 388.050, 489.500 383.557, 489.500 381.512 C 489.500 379.516, 487.589 378.687, 485.229 379.658 M 484.040 418.452 C 483.377 419.251, 483.121 420.807, 483.472 421.910 C 484.005 423.591, 483.122 424.414, 478.029 426.985 C 460.054 436.059, 439.992 434.847, 427.521 423.933 C 421.416 418.591, 420.997 418.403, 419.200 420.200 C 416.949 422.451, 417.997 424.797, 423.503 429.829 C 431.890 437.494, 437.723 439.397, 453 439.454 C 467.169 439.506, 474.034 437.760, 484.546 431.430 C 488.520 429.037, 490.664 428.264, 491.370 428.970 C 493.158 430.758, 496.817 430.151, 497.516 427.951 C 499.256 422.468, 487.553 414.219, 484.040 418.452 M 562.500 464.620 C 534.251 471.312, 493.247 474.857, 464.567 473.088 C 449.285 472.145, 426.698 468.740, 420.856 466.498 C 418.385 465.550, 398.556 482.491, 379.601 501.746 C 355.726 525.998, 346.550 532.696, 331.177 537.092 C 321.807 539.772, 305.129 541.917, 291.251 542.226 C 279.856 542.481, 277.500 542.955, 279.987 544.492 C 280.529 544.827, 281.935 548.269, 283.111 552.141 C 286.108 562.008, 285.455 577.371, 281.608 587.500 C 280.145 591.350, 278.848 594.912, 278.724 595.416 C 278.034 598.233, 309.378 604.006, 325.301 603.994 C 339.087 603.984, 364.966 598.990, 370.695 595.234 C 371.352 594.803, 372.621 590.861, 373.515 586.475 C 379.643 556.414, 392.833 516.309, 398.435 510.707 C 399.739 509.404, 400.593 509.247, 402.069 510.037 C 404.657 511.422, 404.525 512.645, 400.923 520.657 C 390.544 543.744, 380.016 583.833, 376.541 613.500 C 368.469 682.416, 391.638 729.892, 443.364 750.429 C 454.614 754.896, 454.560 754.917, 458.005 744.746 C 465.285 723.254, 481.608 700.401, 497.493 689.461 C 507.328 682.687, 509.856 688.448, 500.367 696.011 C 479.735 712.454, 464.554 738.281, 460.923 763.117 C 455.749 798.499, 477.452 826.070, 528.956 849.544 C 540.270 854.700, 540.463 854.748, 544.424 853.351 C 559.942 847.875, 572.711 831.890, 578.197 811.070 C 580.010 804.191, 580.167 802.556, 579.050 802.183 C 575.510 801.003, 554.057 785.755, 553.509 784.030 C 552.497 780.841, 554.631 778.303, 561.889 774.065 C 583.733 761.307, 602.456 742.118, 611.053 723.678 C 616.571 711.840, 617.501 706.323, 617.488 685.500 C 617.474 663.752, 616.580 658.251, 609.284 635.037 C 606.771 627.042, 602.601 613.300, 600.018 604.500 L 595.321 588.500 584.685 577.879 C 573.709 566.919, 571.031 562.873, 573.101 560.378 C 575.290 557.740, 577.473 559.059, 587.057 568.812 C 609.057 591.200, 625.267 599.838, 654 604.484 C 666.501 606.506, 690.302 606.786, 704 605.074 C 716.988 603.450, 716.338 603.981, 713.341 597.434 C 708.508 586.877, 711.697 562.773, 719.504 550.853 L 721.893 547.205 719.696 546.616 C 718.488 546.292, 716.221 546.021, 714.657 546.014 C 704.992 545.967, 679.799 538.814, 665.189 531.967 C 652.825 526.173, 645.820 520.708, 625.152 500.729 C 604.430 480.699, 591.891 470.481, 581.790 465.394 C 574.044 461.494, 575.456 461.550, 562.500 464.620 M 210.813 498.926 C 203.949 501.610, 199 504.927, 199 506.844 C 199 508.272, 210.140 537.799, 211.523 540.037 C 211.784 540.460, 214.095 540.174, 216.658 539.403 C 219.221 538.631, 222.431 538, 223.792 538 C 225.285 538, 227.755 536.556, 230.017 534.360 L 233.768 530.720 227.994 516.610 C 219.925 496.890, 219.980 496.993, 217.589 497.047 C 216.440 497.073, 213.391 497.918, 210.813 498.926 M 778.825 506.675 C 777.232 507.096, 774.267 513.403, 767.506 530.756 L 764.679 538.012 768.330 541.663 C 770.899 544.232, 773.243 545.522, 776.240 546.017 C 778.583 546.403, 781.653 547.035, 783.063 547.421 C 785.558 548.104, 785.804 547.705, 792.336 532.401 L 799.047 516.679 796.833 514.322 C 794.520 511.860, 783.478 505.915, 781.590 506.116 C 780.991 506.180, 779.746 506.431, 778.825 506.675 M 237.935 537.265 C 233.804 540.049, 229.222 546.455, 228.420 550.568 C 227.064 557.533, 235.427 562.505, 246.596 561.373 C 252.332 560.792, 252.842 560.917, 255.234 563.496 C 258.183 566.677, 265.887 580.346, 268.620 587.246 C 270.960 593.154, 271.262 593.144, 273.870 587.080 C 279.226 574.631, 279.262 560.044, 273.964 549.278 C 271.149 543.558, 270.401 542.819, 264.701 540.133 C 253.252 534.737, 243.273 533.667, 237.935 537.265 M 743 544.907 C 729.757 548.548, 727.692 550.062, 723.512 559.192 C 716.515 574.476, 716.386 594.117, 723.244 599.792 C 724.607 600.919, 725.445 599.774, 729.831 590.792 C 732.594 585.131, 736.605 577.575, 738.744 574 C 743.020 566.851, 743.384 566.719, 753.758 568.524 C 756.844 569.061, 759.259 568.791, 762.529 567.542 C 771.605 564.076, 771.981 555.928, 763.458 547.405 C 758.307 542.255, 754.388 541.776, 743 544.907 M 214.962 548.250 C 206.706 552.413, 204.964 561.144, 210.503 570.596 C 215.412 578.972, 223.024 581.417, 230.953 577.165 C 235.637 574.653, 240.065 569.010, 237.378 568.977 C 229.483 568.878, 220.432 558.337, 221.299 550.250 C 221.833 545.264, 221.249 545.079, 214.962 548.250 M 776.629 555.897 C 778.407 564.784, 769.423 576, 760.526 576 L 757.973 576 759.496 579.750 C 762.433 586.982, 770.800 591.722, 777.407 589.898 C 782.260 588.558, 785.192 585.901, 788.479 579.862 C 794.512 568.777, 790.405 557.252, 779.291 554.079 C 776.172 553.189, 776.098 553.239, 776.629 555.897 M 242.654 573.495 C 240.986 577.552, 237.383 581.567, 233.420 583.785 C 231.868 584.653, 242.370 613.216, 247.056 620.874 C 249.565 624.973, 253.650 624.874, 262.599 620.495 C 271.162 616.306, 271.889 614.487, 268.504 605.709 C 264.585 595.543, 254.635 575.024, 252.037 571.750 C 248.512 567.307, 244.925 567.974, 242.654 573.495 M 741.358 584.242 C 735.135 595.447, 724.540 621.358, 725.334 623.429 C 726.909 627.533, 742.495 635.175, 746.307 633.712 C 748.522 632.862, 754.739 621.274, 760.330 607.572 L 765.198 595.644 761.061 592.207 C 756.508 588.425, 753 582.478, 753 578.540 C 753 576.703, 752.469 576, 751.082 576 C 750.027 576, 748.564 575.771, 747.832 575.492 C 746.961 575.159, 744.722 578.185, 741.358 584.242 M 220 587.952 C 220 589.339, 227.398 596.305, 227.750 595.250 C 228.577 592.768, 224.898 587, 222.487 587 C 221.119 587, 220 587.428, 220 587.952 M 771.168 600.531 C 770.120 602.831, 770.181 602.973, 771.839 602.086 C 775.167 600.305, 776.545 598, 774.283 598 C 773.154 598, 771.831 599.075, 771.168 600.531 M 799.237 645.116 C 794.859 652.200, 785.592 657.204, 768.804 661.550 C 742.004 668.487, 734.783 676.214, 734.783 697.955 C 734.783 713.011, 734.708 712.932, 743.383 707.079 C 747.374 704.386, 754.143 699.329, 758.425 695.841 C 762.707 692.353, 767.289 688.624, 768.608 687.553 C 772.760 684.181, 773.459 686.964, 769.834 692.436 C 763.749 701.623, 735.906 722.455, 719.540 730.065 C 691.832 742.950, 653.261 735.778, 630.236 713.459 L 623.973 707.387 622.927 711.444 C 622.352 713.675, 621.637 716.336, 621.339 717.358 C 620.212 721.218, 634.811 733.319, 647.574 739.106 C 659.522 744.523, 668.282 746.394, 681.500 746.349 C 705.148 746.269, 724.521 738.662, 738.393 724.010 C 742.414 719.763, 743.662 718.985, 745.393 719.644 C 746.552 720.085, 752.225 720.458, 758 720.473 C 771.023 720.506, 777.194 718.052, 785.516 709.528 C 791.649 703.246, 798.949 689.484, 801.709 679 C 803.608 671.788, 804.010 649.750, 802.338 644.566 L 801.391 641.631 799.237 645.116 M 371.582 695.731 C 349.403 749.568, 348.239 794.118, 368.146 827.244 C 377.759 843.241, 399.517 867.804, 415.278 880.452 L 420.056 884.286 426.778 883.177 C 440.772 880.868, 458.202 869.064, 467.454 855.631 L 471.264 850.100 466.230 843.300 C 453.725 826.403, 444.460 808.766, 443.414 799.862 C 442.716 793.923, 445.976 782.198, 450.472 774.481 C 451.760 772.270, 452.960 768.445, 453.138 765.981 L 453.463 761.500 446.981 759.395 C 414.605 748.879, 389.342 725.512, 376.529 694.231 L 374.371 688.961 371.582 695.731 M 586 807.906 C 586 811.901, 580.010 828.566, 576.274 834.965 C 570.662 844.579, 561.988 852.807, 552.490 857.528 C 548.096 859.713, 544.337 861.588, 544.139 861.695 C 542.542 862.554, 562.074 893, 564.222 893 C 565.471 893, 573 888.059, 573 887.240 C 573 886.972, 571.181 883.117, 568.957 878.674 C 564.652 870.074, 564.211 866.500, 567.455 866.500 C 568.829 866.500, 570.910 868.950, 574.455 874.739 C 577.230 879.270, 579.949 883.072, 580.497 883.188 C 582.188 883.545, 590.493 872.382, 594.221 864.741 C 599.686 853.539, 603.137 841.626, 603.733 831.908 C 604.575 818.171, 603.553 816.431, 589.750 808.100 C 586.020 805.849, 586 805.848, 586 807.906 M 471.536 861.513 C 460.797 877.104, 443.224 888.454, 426.605 890.530 L 420.744 891.262 421.424 902.881 C 421.797 909.272, 422.585 917.366, 423.175 920.869 L 424.247 927.238 428.763 926.619 C 431.247 926.279, 434.055 926, 435.003 926 C 436.527 926, 436.621 925.418, 435.814 920.978 C 434.392 913.152, 435.118 904.592, 437.239 904.189 C 439.581 903.743, 440.647 906.647, 442.061 917.330 C 443.455 927.863, 443.960 927.978, 455.274 920.332 C 470.610 909.968, 488 884.422, 488 872.256 C 488 870.914, 477.942 857.700, 476.013 856.508 C 475.616 856.262, 473.601 858.514, 471.536 861.513 M 470.500 968.674 C 418.119 970.788, 376.069 977.646, 367.650 985.448 C 363.595 989.206, 363.896 995.056, 368.319 998.429 C 394.421 1018.339, 587.656 1020.201, 626.254 1000.915 C 636.258 995.916, 636.703 987.500, 627.221 982.621 C 608.349 972.912, 532.583 966.169, 470.500 968.674 M 473 976.151 C 429.328 977.319, 391.272 982.363, 376.363 988.958 C 371.027 991.318, 370.921 992.239, 375.750 994.284 C 409.772 1008.685, 543.803 1012.009, 602.958 999.919 C 614.584 997.543, 624.451 994.366, 625.998 992.502 C 631.060 986.403, 579.472 977.646, 531.500 976.462 C 519.400 976.163, 506.800 975.823, 503.500 975.707 C 500.200 975.590, 486.475 975.790, 473 976.151" stroke="none" fill="#1a1a1a" fill-rule="evenodd"/>
</svg>