<svg xmlns="http://www.w3.org/2000/svg" width="1024" height="1024" viewBox="0 0 1024 1024" version="1.1">
	<path d="M 447 52.887 C 439.384 57.034, 427.687 71.675, 422.353 83.737 C 412.701 105.560, 416.045 138.978, 429.941 159.568 C 432.795 163.797, 432.829 163.989, 431.107 166.117 L 429.332 168.309 416.987 162.575 C 386.484 148.408, 368.129 146.100, 341.444 153.073 C 330.165 156.020, 318.171 161.880, 314.250 166.358 C 305.188 176.707, 317.339 204.883, 338.785 223.251 C 358.006 239.713, 382.238 245.357, 407.750 239.316 C 409.915 238.803, 410 239.040, 410 245.596 C 410 249.342, 410.536 257.232, 411.192 263.129 C 412.682 276.528, 411.588 285.736, 406.447 303.053 C 393.297 347.355, 410.444 380.896, 457.618 403.148 C 471.530 409.710, 492.016 416.442, 506.507 419.214 L 517.892 421.392 512.696 424.883 C 506.798 428.845, 489.741 445.661, 476.569 460.500 C 463.579 475.133, 462.434 477.474, 465.445 483.247 C 467.391 486.976, 465.936 487.662, 452.249 489.467 C 446.306 490.251, 440.759 491.155, 439.921 491.477 C 438.851 491.887, 433.947 486.930, 423.449 474.826 C 332.355 369.800, 249.824 301.042, 162.396 257.337 C 143.201 247.742, 137.706 246.294, 134.117 249.883 C 129.582 254.418, 131.918 260.450, 139.741 264.404 L 142.982 266.042 142.981 384.771 C 142.980 450.072, 143.283 562.290, 143.653 634.145 L 144.326 764.791 138.413 765.965 C 114.081 770.798, 93.500 777.697, 93.500 781.020 C 93.500 782.950, 93.296 782.985, 116 777.182 C 126.725 774.440, 137.412 771.888, 139.750 771.511 L 144 770.824 144 791.912 C 144 809.622, 143.769 813, 142.557 813 C 138.201 813, 136.739 820.863, 140.538 823.851 L 143.076 825.847 142.937 843.174 C 142.721 869.977, 141.161 875, 133.048 875 C 125.875 875, 123.017 871.118, 122.115 860.144 C 121.777 856.028, 120.997 852.494, 120.383 852.291 C 116.856 851.125, 114.517 867.261, 117.411 872.800 C 123.849 885.124, 141.231 885.279, 147.250 873.066 C 149.338 868.828, 149.519 866.974, 149.762 847.284 C 150.022 826.172, 150.036 826.055, 152.512 823.579 C 153.880 822.211, 155 820.170, 155 819.045 C 155 816.879, 151.739 813, 149.919 813 C 149.160 813, 149.001 806.510, 149.384 791.250 L 149.931 769.500 157.215 768.263 C 202.790 760.520, 296.157 756.920, 336 761.369 C 370.983 765.275, 396.723 771.186, 406.422 777.541 C 410.725 780.360, 409.666 782.371, 400.750 788.317 C 389.255 795.983, 386.785 800.855, 390.941 807.671 C 396.188 816.276, 418.193 823.081, 468 831.502 C 512.212 838.977, 537.828 845.915, 557.835 855.834 C 617.201 885.265, 567.461 928.519, 450 949.607 C 382.391 961.745, 286.807 964.160, 220.047 955.418 C 197.871 952.514, 166.512 945.575, 150.586 940.047 C 143.486 937.583, 142.321 938.207, 146.882 942.031 C 158.282 951.588, 209.094 961.764, 263.975 965.481 C 278.132 966.440, 347.125 966.112, 365.885 964.997 C 479.781 958.226, 568.810 930.461, 585.986 896.355 C 594.821 878.811, 585.638 862.721, 559.500 849.944 C 540.197 840.508, 516.329 834.089, 468.791 825.548 C 418.410 816.497, 400.938 811.413, 396.400 804.487 C 394.106 800.987, 395.661 798.982, 406.019 792.085 C 419.397 783.178, 419.338 777.197, 405.805 770.605 C 367.666 752.025, 261.893 747.805, 166.527 761.058 C 158.842 762.126, 151.867 763, 151.027 763 C 149.691 762.999, 149.500 759.212, 149.500 732.750 C 149.500 716.112, 149.110 605.188, 148.634 486.250 C 148.158 367.313, 148.111 270, 148.530 270 C 151.199 270, 196.467 297.899, 213 309.734 C 270.624 350.983, 333.334 409.660, 387.852 473.339 L 403.980 492.178 399.558 496.599 C 389.037 507.121, 386.095 523.733, 392.500 536.463 C 396.243 543.902, 404.924 552.857, 411.500 556.063 C 416.170 558.339, 417.424 558.483, 430.500 558.250 C 439.182 558.095, 446.586 558.483, 449.991 559.271 L 455.481 560.543 456.149 565.209 C 457.572 575.161, 467.847 588.988, 478.101 594.752 L 482.785 597.385 482.252 605.160 C 481.723 612.871, 481.744 612.959, 484.863 615.872 L 488.007 618.808 486.795 626.654 C 485.321 636.195, 485.228 679.334, 486.582 725.500 L 487.550 758.500 483.847 768 C 478.515 781.678, 475.593 792.241, 476.329 795.175 C 477.330 799.165, 481.627 802.683, 488.886 805.456 C 513.911 815.019, 543.430 813.290, 564.024 801.055 C 573.451 795.455, 574.077 794.025, 574.724 776.607 C 575.155 765.012, 575.565 762.144, 577.024 760.500 C 578.486 758.853, 579.098 754.525, 580.492 736 C 582.778 705.617, 584.299 692.464, 585.500 692.681 C 586.050 692.781, 590.169 693.168, 594.654 693.541 L 602.807 694.221 607.785 711.860 C 610.522 721.562, 615.760 739.747, 619.424 752.271 L 626.087 775.042 622.452 786.271 C 620.340 792.795, 618.586 800.524, 618.267 804.716 C 617.727 811.790, 617.777 811.990, 620.802 814.815 C 629.534 822.972, 658.028 826.537, 679.365 822.144 C 694.903 818.945, 708.780 811.428, 714.999 802.842 C 719.659 796.410, 720.249 792.748, 718.947 778.346 C 718.073 768.673, 718.084 765.212, 718.994 763.511 C 719.930 761.763, 719.794 757.923, 718.354 745.396 C 715.636 721.751, 715.831 682.953, 718.754 666 C 719.939 659.125, 721.191 650.350, 721.536 646.500 C 722.422 636.617, 722.372 636.697, 726.291 639.009 C 731.801 642.260, 744.396 644.982, 754.391 645.081 C 766.011 645.196, 775.207 643.047, 784.876 637.957 C 808.924 625.297, 822.739 605.254, 833.508 567.403 C 833.680 566.799, 836.448 565.257, 839.660 563.975 C 852.829 558.720, 863.894 548.751, 869.742 536.873 C 880.040 515.954, 878.865 485.624, 867.104 468.753 C 861.555 460.794, 858.970 460.941, 854.953 469.443 C 851.286 477.205, 849.345 478.796, 834.093 486.540 C 812.544 497.481, 802.281 510.654, 801.254 528.689 C 800.627 539.703, 802.104 547.052, 806.763 556.110 L 810.360 563.103 808.082 570.302 C 798.128 601.741, 780.973 617.055, 755.512 617.226 C 745.776 617.291, 738.671 615.784, 730.383 611.895 C 722.708 608.294, 722.144 607.585, 720.924 600.011 L 719.928 593.822 723.464 589.908 C 725.409 587.756, 727 585.043, 727 583.880 C 727 582.716, 723.656 571.355, 719.569 558.632 C 715.481 545.910, 709.157 525.375, 705.515 513 C 686.881 449.690, 680.560 436.432, 659.082 415.611 C 654.606 411.272, 651.069 407.628, 651.222 407.513 C 651.375 407.398, 654.875 405.615, 659 403.550 C 687.091 389.488, 708.687 366.597, 718.955 340 C 725.958 321.860, 728.823 292.080, 726.117 265.583 C 725.503 259.578, 725.167 254.499, 725.371 254.296 C 725.574 254.093, 727.936 254.790, 730.620 255.845 C 745.472 261.682, 768.945 262.635, 785 258.052 C 815.606 249.316, 843.276 223.764, 853.123 195.142 C 857.343 182.878, 853.922 177.487, 838.933 172.779 C 834.295 171.323, 822.080 167.234, 811.789 163.693 C 786.991 155.161, 772.015 153.180, 754 156.051 C 745.018 157.482, 725.390 164.274, 714 169.893 L 704.500 174.579 701.321 169.782 L 698.141 164.986 700.449 162.243 C 715.265 144.635, 720.305 112.455, 712.077 88 C 703.573 62.726, 688.286 47.664, 677.041 53.479 C 672.812 55.666, 671.195 61.369, 670.657 76 C 669.977 94.500, 664.218 108.877, 652.988 120.107 L 648.336 124.759 637.166 121.590 C 627.205 118.764, 625.482 117.929, 621.248 113.880 C 606.678 99.947, 589.324 91.809, 567.004 88.445 C 547.348 85.481, 515.184 87.313, 506.180 91.909 C 496.003 97.103, 496.403 104.164, 507.218 110.243 L 510.952 112.341 495.726 117.506 C 487.352 120.347, 479.782 122.991, 478.905 123.383 C 476.957 124.253, 473.182 119.600, 469.060 111.250 C 462.788 98.542, 462.526 97.123, 462.513 75.780 C 462.501 57.080, 462.391 55.951, 460.397 53.954 C 457.442 50.997, 451.360 50.512, 447 52.887 M 448.518 60.862 C 439.817 67.350, 430.084 82.141, 426.383 94.500 C 424.457 100.931, 423.754 122.822, 425.296 128.357 C 426.066 131.121, 426.243 131.191, 430.758 130.514 C 439.331 129.228, 453.099 121.994, 458.791 115.784 L 461.081 113.284 458.617 105.892 C 457.262 101.827, 455.840 96.793, 455.457 94.706 C 455.074 92.620, 454.477 91.069, 454.131 91.259 C 447.864 94.695, 438.965 98.135, 434.549 98.827 C 428.756 99.736, 426.104 98.685, 430.190 97.100 C 431.460 96.607, 434.975 95.255, 438 94.095 C 441.025 92.935, 445.773 90.796, 448.550 89.341 L 453.601 86.695 454.814 73.966 C 456.444 56.874, 455.764 55.459, 448.518 60.862 M 680.061 60.426 C 679.477 61.130, 678.763 65.935, 678.474 71.103 C 678.184 76.271, 677.742 83.082, 677.491 86.238 L 677.033 91.976 680.798 93.897 C 687.385 97.257, 705.003 99.422, 706.469 97.051 C 707.340 95.641, 703.352 84.418, 699.343 77 C 693.348 65.906, 682.939 56.959, 680.061 60.426 M 526.517 93.999 C 514.253 95.546, 506 98.342, 506 100.950 C 506 103.072, 516.940 107.019, 526.947 108.507 C 541.601 110.687, 541.729 111.289, 528.129 114.078 C 518.592 116.034, 509.426 119.388, 502.460 123.471 C 486.683 132.717, 477.682 159.777, 487.361 168.869 L 489.744 171.108 495.317 162.732 C 503.432 150.536, 513.581 142.106, 520.250 142.022 C 522.577 141.993, 522.485 142.490, 519.163 147.889 C 508.612 165.039, 511.619 186.281, 525.555 193.026 C 531.013 195.669, 531.324 195.431, 533.430 187 C 535.515 178.653, 541.064 166.922, 546.057 160.309 C 550.125 154.920, 561.545 146, 564.377 146 C 566.455 146, 566.435 146.149, 563.750 150.693 C 558.723 159.198, 561.605 174.546, 569.335 180.442 C 573.726 183.791, 573.525 183.888, 576.005 177.250 C 579.337 168.329, 586.521 160.671, 601.565 150 C 611.745 142.780, 610.272 145.902, 597.146 159.366 C 585.867 170.935, 583.989 173.602, 582.052 180.803 C 577.329 198.359, 555.176 185.421, 554.995 165 L 554.946 159.500 551.951 163 C 547.666 168.006, 541.435 181.355, 539.682 189.288 C 537.543 198.959, 535.973 201, 530.673 201 C 521.076 201, 511.066 192.737, 507.441 181.821 C 505.748 176.725, 505.750 162.190, 507.445 157.500 C 508.737 153.923, 504.216 159.773, 499.748 167.459 C 494.859 175.870, 493.626 177, 489.344 177 C 482.328 177, 476 167.517, 476 157.003 C 476 149.452, 481.204 134.934, 485.769 129.750 C 487.871 127.363, 486.833 127.545, 480.717 130.636 C 467.732 137.199, 446.747 155.951, 438.345 168.500 C 422.469 192.211, 417.377 210.375, 417.880 241.500 C 418.673 290.566, 419.286 283.870, 411.430 312 C 397.515 361.825, 441.605 402.516, 523.203 415.156 C 540.399 417.819, 579.054 418.382, 595 416.200 C 651.991 408.404, 696.249 378.687, 712.106 337.568 C 718.264 321.601, 719.397 313.978, 719.399 288.500 C 719.401 256.114, 718.578 251.738, 711.072 244.232 C 705.639 238.799, 701.277 232.389, 702.310 231.356 C 702.562 231.105, 705.291 233.107, 708.375 235.805 C 733.953 258.188, 777.084 260.091, 808 240.201 C 826.892 228.046, 845.658 203.425, 847.714 188.095 C 848.253 184.080, 848.195 183.989, 843.880 182.031 C 841.471 180.938, 838.955 180.034, 838.288 180.022 C 837.621 180.010, 829.071 177.030, 819.288 173.399 C 774.768 156.878, 755.101 157.791, 711.322 178.409 C 694.631 186.271, 686 188.739, 686 185.650 C 686 184.671, 688.383 182.826, 692.014 180.993 L 698.029 177.957 696.580 175.155 C 693.989 170.145, 692.568 169.554, 687.761 171.489 C 682.443 173.630, 672.974 173.648, 667.033 171.529 C 649.017 165.103, 635.176 145.187, 639.968 132.584 C 640.897 130.141, 640.724 129.979, 635.718 128.597 C 627.919 126.445, 621.883 125.862, 618.263 126.913 C 613.876 128.187, 612.868 126.315, 616.417 123.484 L 619.157 121.300 613.580 116.329 C 594.313 99.156, 558.485 89.967, 526.517 93.999 M 675 97.568 C 675 98.303, 672.665 103.486, 669.811 109.085 L 664.621 119.266 669.061 123.134 C 679.455 132.190, 699.483 138.023, 705.380 133.711 C 707.534 132.136, 709.701 114.115, 708.609 106.862 L 707.911 102.224 697.705 101.803 C 689.695 101.472, 686.156 100.828, 681.250 98.807 C 676.654 96.914, 675 96.586, 675 97.568 M 458.874 121.398 C 452.816 126.901, 441.082 132.763, 433.239 134.206 C 425.889 135.557, 425.924 134.801, 432.559 148.645 L 436.942 157.790 446.221 148.294 C 451.324 143.071, 458.950 136.317, 463.166 133.284 L 470.832 127.770 467.224 122.635 C 465.240 119.811, 463.591 117.432, 463.559 117.348 C 463.526 117.265, 461.418 119.087, 458.874 121.398 M 653.699 129.350 C 648.690 133.964, 645.949 137.241, 645.969 138.590 C 646.028 142.592, 652.073 152.894, 656.814 157.074 C 674.081 172.297, 690.452 168.822, 701.043 147.683 L 705.142 139.500 695.821 138.862 C 682.950 137.981, 677.226 135.606, 666.980 126.894 L 661.459 122.200 653.699 129.350 M 353.328 157.482 C 343.274 159.306, 328.161 164.512, 322.503 168.100 L 317.728 171.128 318.338 176.961 C 320.596 198.563, 344.038 224.628, 367.865 232.029 C 377.556 235.039, 389.040 235.589, 400.209 233.578 L 409.647 231.879 410.848 222.189 C 411.509 216.860, 412.301 211.342, 412.607 209.928 C 413.135 207.495, 412.849 207.285, 407.333 206.058 C 399.468 204.309, 394.410 201.602, 382 192.501 C 365.911 180.703, 357.318 177.283, 341.250 176.282 C 330.615 175.620, 329.627 174.753, 337.667 173.138 C 354.263 169.805, 368.595 173.972, 386.050 187.206 C 390.914 190.895, 397.056 194.991, 399.697 196.308 C 404.117 198.512, 413.917 201.485, 414.487 200.795 C 414.621 200.633, 415.467 198.250, 416.366 195.500 C 417.266 192.750, 419.930 186.567, 422.286 181.759 L 426.570 173.018 421.535 171.357 C 418.766 170.444, 413.252 168.222, 409.281 166.419 C 387.798 156.667, 371.856 154.120, 353.328 157.482 M 777.763 182.964 C 766.121 185.093, 756.178 189.561, 747.686 196.478 C 729.461 211.324, 721.284 214.824, 702.717 215.725 C 696.237 216.040, 690.702 216.673, 690.418 217.133 C 689.052 219.343, 696.560 221.993, 704.201 221.996 C 721.091 222.004, 732.401 217.276, 751 202.429 C 764.391 191.739, 774.019 188.682, 794.500 188.616 C 802.200 188.591, 812.462 189.167, 817.306 189.896 C 827.428 191.421, 829.194 190.851, 822.905 188.091 C 812.982 183.736, 788.653 180.973, 777.763 182.964 M 603.140 210.081 C 600.243 213.190, 602.200 215.256, 608.390 215.620 C 613.908 215.945, 619.430 218.711, 623.946 223.412 C 628.287 227.931, 632 228.298, 632 224.208 C 632 215.287, 608.848 203.953, 603.140 210.081 M 448.635 212.009 C 442.485 215.079, 438.413 218.610, 436.589 222.455 C 433.415 229.143, 437.566 230.077, 443.492 224.008 C 447.406 220, 452.361 217.636, 459.153 216.537 C 466.254 215.388, 464.189 209.968, 456.679 210.040 C 454.380 210.062, 450.761 210.948, 448.635 212.009 M 139.045 255.642 C 139.070 256.114, 141.820 258.205, 145.156 260.289 C 150.850 263.846, 151.303 263.969, 152.540 262.289 C 153.730 260.675, 153.357 260.277, 148.732 258.220 C 142.453 255.426, 138.985 254.504, 139.045 255.642 M 449.957 264.250 C 438.023 272.293, 438.787 296.536, 451.234 304.773 C 462.950 312.527, 475.926 295.970, 471.543 278.860 C 468.073 265.318, 458.244 258.665, 449.957 264.250 M 159 266.756 C 159 267.963, 163.295 270.972, 172.750 276.388 C 257.858 325.141, 356.399 418.123, 450.144 538.135 L 457.669 547.769 459.535 544.305 C 460.561 542.399, 462.626 539.809, 464.124 538.549 L 466.847 536.258 457.674 525.307 C 363.481 412.871, 301.414 353.176, 225.708 302.209 C 200.685 285.363, 165.181 265, 160.831 265 C 159.752 265, 159 265.721, 159 266.756 M 596.790 267.256 C 586.524 273.472, 583.169 288.296, 589.188 300.848 C 598.806 320.902, 624.898 299.274, 617.599 277.298 C 614.081 266.708, 604.964 262.308, 596.790 267.256 M 501.487 294.942 C 463.755 298.480, 440.981 317.904, 441.038 346.500 C 441.123 389.174, 506.918 425.209, 552 407.273 C 566.444 401.526, 580.488 389.456, 586.360 377.742 C 593.213 364.072, 593.420 343.474, 586.840 330 C 583.028 322.194, 572.092 310.831, 564 306.268 C 549.221 297.934, 522.061 293.013, 501.487 294.942 M 502.500 301.172 C 443.956 305.106, 427.805 357.794, 475.429 389.481 C 508.440 411.446, 546.031 410.973, 570.077 388.289 C 580.802 378.171, 585 367.834, 585 351.545 C 585 318.754, 550.880 297.921, 502.500 301.172 M 467.580 330.116 C 465.503 331.750, 464.960 332.944, 465.195 335.366 C 465.574 339.266, 469.388 340.447, 470.304 336.947 C 471.149 333.713, 473.293 335.104, 475.134 340.083 C 477.180 345.615, 480.328 346.279, 480.811 341.280 C 481.257 336.670, 478.445 331.439, 474.522 329.577 C 470.394 327.619, 470.794 327.587, 467.580 330.116 M 537.218 330.623 C 531.014 333.757, 527.208 342.066, 530.479 345.336 C 532.987 347.845, 533.745 347.436, 536.437 342.125 C 538.519 338.015, 540.541 336, 542.582 336 C 542.812 336, 543 337.575, 543 339.500 C 543 343.700, 545.917 344.384, 548.443 340.777 C 553.336 333.793, 545.312 326.534, 537.218 330.623 M 540.105 367.373 C 539.478 368.129, 539.224 369.419, 539.539 370.242 C 539.926 371.249, 538.552 372.771, 535.326 374.907 C 521.860 383.827, 502.417 382.641, 491.751 372.249 C 488.842 369.415, 487.735 368.865, 486.807 369.793 C 483.149 373.451, 491.990 381.724, 503.189 385.126 C 516.958 389.308, 534.082 385.495, 542.736 376.318 C 545.365 373.531, 546.375 372.988, 547.013 374.020 C 548.012 375.638, 551 373.687, 551 371.417 C 551 367.408, 542.648 364.309, 540.105 367.373 M 642.911 411.423 C 642.678 411.655, 637.163 413.459, 630.654 415.432 C 620.406 418.539, 618.061 419.668, 613.160 423.859 C 587.249 446.016, 553.146 453.689, 537.626 440.854 C 533.121 437.128, 531 432.703, 531 427.032 C 531 423.611, 530.684 423, 528.913 423 C 523.124 423, 503.019 440.605, 482.168 463.932 L 471.950 475.364 477.714 478.432 C 480.884 480.119, 486.745 484.595, 490.739 488.377 C 495.749 493.122, 498 494.707, 498 493.489 C 498 485.926, 509.932 455.580, 515.034 450.167 C 518.496 446.494, 519.415 448.886, 516.928 455.096 C 513.343 464.049, 508.066 480.005, 505.898 488.445 C 504 495.837, 498 524.401, 498 526.047 C 498 528.238, 514.057 527.589, 528.419 524.816 C 552.006 520.263, 568.349 513.727, 578.509 504.783 C 582.705 501.090, 582.958 500.611, 581.543 499.048 C 579.171 496.426, 579.017 496.723, 595.857 471.372 C 615.371 441.995, 624.289 433, 633.901 433 C 638.631 433, 638.413 434.654, 633.350 437.174 C 626.118 440.773, 619.552 447.323, 612.616 457.860 C 601.377 474.931, 589 494.094, 589 494.423 C 589 494.598, 591.138 495.031, 593.750 495.384 C 611.322 497.759, 641.094 519.992, 649.066 536.694 C 650.955 540.650, 652.725 543.905, 653 543.926 C 653.860 543.993, 660.728 531.882, 664.867 523 C 669.305 513.478, 670.873 508.318, 674.060 492.750 C 677.122 477.794, 679.274 478.044, 679.170 493.342 C 679.066 508.620, 673.199 524.853, 660.772 544.251 C 654.263 554.411, 651.846 556.124, 645.141 555.330 C 640.121 554.736, 639.897 554.823, 635.252 559.160 C 613.495 579.477, 577.787 590.704, 537.484 589.899 C 519.924 589.548, 520.029 589.058, 533.714 607.425 L 545.233 622.885 550.866 623.693 C 561.539 625.222, 603.487 624.566, 616.500 622.666 C 655.604 616.957, 701.863 601.097, 715.547 588.708 L 720.446 584.273 712.757 560.386 C 708.528 547.249, 702.553 527.950, 699.479 517.500 C 680.451 452.810, 673.775 438.481, 653.813 419.485 C 645.409 411.487, 643.936 410.398, 642.911 411.423 M 587 424.116 C 583.425 424.580, 570.857 424.873, 559.071 424.767 C 535.625 424.557, 536.005 424.454, 537.992 430.474 C 541.813 442.054, 564.865 443.494, 586.766 433.521 C 593.978 430.237, 603 424.828, 603 423.789 C 603 422.829, 595.788 422.977, 587 424.116 M 857.953 478.242 C 854.822 482.995, 853.316 484.101, 841.827 490.076 C 814.839 504.113, 808.500 512.277, 808.500 533 L 808.500 544.500 812.845 552.967 C 817.057 561.175, 817.158 561.589, 816.160 566.558 C 814.777 573.446, 808.607 588.850, 804.216 596.381 C 789.612 621.422, 755.717 631.332, 728.580 618.494 C 725.680 617.122, 723.125 615.999, 722.904 615.998 C 722.682 615.997, 722.652 618.957, 722.839 622.576 L 723.178 629.157 727.697 632.023 C 740.285 640.006, 764.629 640.135, 780.722 632.304 C 800.791 622.538, 814.297 604.747, 823.462 576 C 825.479 569.675, 827.468 563.855, 827.881 563.067 C 828.773 561.368, 829.007 561.234, 840.223 556.022 C 862.876 545.496, 874.408 519.087, 868.538 491.179 C 867.259 485.102, 862.746 473, 861.758 473 C 861.564 473, 859.852 475.359, 857.953 478.242 M 473.154 488.079 C 469.790 492.337, 466.045 493.943, 456.718 495.130 C 440.755 497.162, 440.662 494.971, 457.562 515.021 L 472.330 532.541 478.915 530.296 C 482.537 529.062, 486.486 528.040, 487.691 528.026 C 490.623 527.991, 490.685 527.846, 493.374 514.611 L 495.716 503.081 490.846 497.617 C 486.713 492.980, 477.050 484.876, 475.866 485.055 C 475.665 485.086, 474.444 486.447, 473.154 488.079 M 403.642 502.105 C 397.829 508.897, 396.497 512.528, 396.527 521.500 C 396.567 533.136, 402.468 542.786, 413.369 549.038 C 425.514 556.004, 435.908 550.052, 435.978 536.092 C 436.005 530.701, 429.046 520.533, 425.993 521.502 C 422.889 522.487, 416.951 522.351, 415.870 521.270 C 413.701 519.101, 415.377 516.519, 419.290 516 L 423.062 515.500 415.930 506.750 C 412.008 501.938, 408.430 498, 407.978 498 C 407.526 498, 405.575 499.847, 403.642 502.105 M 583.991 508.297 C 568.427 523.192, 538.971 532.535, 503 533.985 C 484.046 534.749, 478.546 536.058, 471.402 541.507 C 462.409 548.366, 459.930 559.538, 464.913 570.750 C 467.694 577.006, 467.973 577.082, 470.523 572.260 C 474.478 564.779, 483.394 556.890, 486.043 558.526 C 486.584 558.861, 484.963 561.762, 482.440 564.973 C 476.016 573.150, 472.536 581.830, 474.716 584.239 C 483.619 594.076, 507.643 594.162, 522.138 584.407 C 527.096 581.071, 531 580.010, 531 582 C 531 583.319, 551.775 583.293, 563.500 581.960 C 594.328 578.455, 615.882 568.775, 635.932 549.431 L 644.363 541.296 641.734 536.809 C 636.048 527.107, 620.325 513.889, 605.648 506.473 C 593.649 500.409, 592.095 500.540, 583.991 508.297 M 835.199 527.237 C 828.288 535.162, 823.137 544.557, 822.306 550.753 C 821.299 558.264, 825.814 557.309, 827.986 549.551 C 828.665 547.126, 832.094 540.047, 835.606 533.820 C 841.037 524.194, 842.910 519.981, 841.750 520.005 C 841.612 520.008, 838.664 523.263, 835.199 527.237 M 442.058 543.680 C 441.476 545.781, 440.564 548.175, 440.032 549 C 439.224 550.250, 440.183 550.690, 445.781 551.639 C 449.477 552.266, 452.558 552.716, 452.629 552.639 C 452.701 552.563, 450.589 549.656, 447.937 546.180 L 443.115 539.861 442.058 543.680 M 514.238 595.666 C 513.544 595.946, 509.181 596.943, 504.542 597.882 L 496.108 599.590 502.760 608.545 C 506.418 613.470, 516.319 626.947, 524.761 638.494 C 533.203 650.041, 541.098 660.038, 542.305 660.709 C 548.636 664.229, 556.001 658.924, 555.999 650.846 C 555.999 648.105, 553.899 644.788, 544.388 632.506 C 538.003 624.259, 529.116 612.458, 524.639 606.283 C 520.163 600.107, 516.275 595.078, 516 595.106 C 515.725 595.135, 514.932 595.387, 514.238 595.666 M 704 603.518 C 666.980 622.631, 601.943 635.226, 560.750 631.260 C 555.938 630.797, 552 630.615, 552 630.856 C 552 631.097, 553.514 633.142, 555.364 635.400 C 561.091 642.389, 562.992 646.220, 562.996 650.782 C 563.007 662.566, 552.486 671.260, 542.013 668.122 C 537.251 666.695, 534.885 663.988, 517.685 640.289 L 503.870 621.254 499.272 620.624 C 496.743 620.277, 494.559 620.108, 494.419 620.248 C 494.279 620.387, 493.615 626.126, 492.943 633.001 C 491.754 645.160, 491.948 665.486, 493.884 731.500 L 494.500 752.500 499.155 754.810 C 504.698 757.561, 519.555 760.691, 530 761.309 C 547.174 762.324, 572 758.659, 572 755.108 C 572 750.110, 575.248 713.817, 576.564 704.111 C 578.403 690.545, 578.434 690.661, 572.510 689.003 C 567.380 687.567, 556 680.665, 556 678.990 C 556 676.874, 558.731 676.991, 564.054 679.334 C 572.777 683.175, 593.205 687.931, 601.250 687.994 C 601.663 687.997, 602.006 686.763, 602.014 685.250 C 602.035 681.004, 603.097 678, 604.576 678 C 605.984 678, 606.406 679.264, 610.428 695.500 C 612.581 704.193, 618.423 724.419, 628.769 759 L 631.611 768.500 636.555 769.901 C 644.477 772.146, 682.440 772.006, 691.500 769.698 C 699.434 767.677, 707.465 764.198, 710.664 761.396 L 712.828 759.500 710.841 741 C 708.114 715.597, 708.725 685.682, 712.456 662 C 715.843 640.495, 716.643 624.266, 715.013 610.114 C 714.309 604.001, 713.456 599.029, 713.116 599.065 C 712.777 599.101, 708.675 601.105, 704 603.518 M 489.195 606.711 C 489.493 611.315, 489.596 611.450, 493.750 612.648 C 498.934 614.142, 498.930 614.326, 493.856 607.541 C 488.837 600.829, 488.814 600.825, 489.195 606.711 M 284.254 636.561 C 272.162 642.587, 260.819 659.929, 255.379 680.711 L 252.706 690.921 248.236 679.779 C 239.898 658.992, 229.330 645.319, 216.737 639.027 C 209.339 635.330, 206.566 635.206, 204.423 638.477 C 202.859 640.864, 202.998 641.376, 208.307 652.727 C 213.447 663.718, 223 688.630, 223 691.043 C 223 691.635, 220.863 690.340, 218.250 688.165 C 207.934 679.578, 192.642 675.063, 190.081 679.848 C 188.493 682.816, 190.313 686.489, 199.168 698.180 C 203.201 703.504, 208.750 711.927, 211.500 716.898 C 216.702 726.301, 217.316 726.834, 220.314 724.561 C 222.047 723.248, 222.007 722.947, 219.435 717.843 C 215.576 710.188, 208.612 699.554, 202.383 691.803 C 195.912 683.753, 195.902 683.701, 201.207 685.573 C 212.103 689.417, 222.226 699.097, 229.032 712.179 C 232.869 719.553, 233.901 720.766, 235.218 719.449 C 236.282 718.385, 229.981 691.677, 225.477 678.160 C 222.973 670.647, 218.572 659.663, 215.696 653.750 C 212.821 647.837, 210.661 643, 210.897 643 C 212.692 643, 222.004 650.318, 226.986 655.645 C 236.846 666.185, 248.945 694.114, 250.679 710.340 C 251.706 719.941, 257 719.178, 257 709.428 C 257 696.792, 264.226 670.123, 270.603 659.228 C 273.886 653.618, 281.656 645.193, 285.773 642.780 L 288.707 641.060 286.304 648.280 C 281.107 663.897, 272.084 708.170, 273.399 711.598 C 274.836 715.342, 277.912 712.927, 281.928 704.905 C 288.734 691.305, 298.917 680.208, 308.250 676.218 C 311.801 674.700, 311.842 674.542, 306.055 684.807 C 298.701 697.852, 293.018 710.116, 292.313 714.462 L 291.688 718.312 299.094 717.685 C 325.723 715.430, 330.432 714.339, 326.500 711.340 C 324.347 709.697, 308.617 710.102, 302.110 711.968 C 300.400 712.459, 299 712.654, 299 712.402 C 299 711.609, 304.996 699.961, 311.625 687.878 C 320.528 671.646, 320.114 666.223, 310.173 668.871 C 301.576 671.161, 292.065 678.284, 284.822 687.856 L 282.283 691.212 285.136 677.856 C 286.705 670.510, 289.567 659.086, 291.495 652.469 C 295.548 638.557, 295.616 637.868, 293.171 635.655 C 290.782 633.493, 290.315 633.540, 284.254 636.561 M 348.250 713.467 C 340.522 716.883, 346.181 719.221, 356 716.670 C 358.814 715.938, 360.500 714.938, 360.500 714 C 360.500 711.934, 352.506 711.586, 348.250 713.467 M 374.104 715.914 C 371.505 717.560, 373.680 720, 377.746 720 C 381.745 720, 386.441 717.522, 385.458 715.932 C 384.728 714.751, 375.962 714.738, 374.104 715.914 M 400.152 718.317 C 399.238 719.418, 399.294 719.999, 400.401 720.918 C 402.256 722.457, 408.500 720.929, 408.500 718.936 C 408.500 716.947, 401.708 716.442, 400.152 718.317 M 194.538 723.348 C 191.672 725.444, 193.626 727, 199.125 727 C 204.692 727, 208 725.682, 208 723.465 C 208 721.517, 197.171 721.423, 194.538 723.348 M 494 761.300 C 494 762.132, 492.671 765.775, 491.048 769.394 C 487.923 776.359, 483 791.126, 483 793.535 C 483 794.679, 491.556 800, 493.396 800 C 493.650 800, 494.349 797.635, 494.949 794.744 C 496.232 788.564, 501.889 776.841, 503.903 776.187 C 505.452 775.684, 505.480 775.418, 502.209 792.204 C 499.978 803.651, 498.959 802.597, 513.840 804.222 C 531.640 806.166, 547.818 803.016, 560.677 795.104 C 563.498 793.368, 566.102 791.176, 566.465 790.232 C 567.202 788.309, 568.533 764.989, 567.903 765.020 C 567.681 765.030, 563.900 765.690, 559.500 766.485 C 539.588 770.082, 511.724 767.487, 495.750 760.546 C 494.519 760.012, 494 760.235, 494 761.300 M 704 772.530 C 691.300 777.849, 666.571 780.246, 646.711 778.083 C 640.777 777.436, 635.368 776.695, 634.691 776.435 C 633.192 775.860, 626.217 796.936, 625.323 804.742 L 624.723 809.984 630.426 812.595 C 637.112 815.656, 636.745 815.854, 638.526 808.218 C 640.229 800.920, 644.503 791, 645.945 791 C 647.243 791, 647.271 793.044, 646.072 800.066 C 645.561 803.055, 644.859 808.047, 644.511 811.159 L 643.879 816.818 651.467 817.529 C 673.491 819.593, 699.544 811.105, 709.438 798.644 C 712.397 794.917, 712.493 794.480, 712.292 785.644 C 712.064 775.632, 711.298 769.937, 710.205 770.113 C 709.817 770.176, 707.025 771.263, 704 772.530 M 791.452 775.433 C 790.338 777.134, 790.020 779.167, 790.398 782.183 C 790.696 784.557, 791.167 792.350, 791.446 799.500 C 791.724 806.650, 792.250 819.362, 792.613 827.750 C 792.977 836.138, 793.047 843, 792.770 843 C 792.493 843, 791.002 841.087, 789.458 838.750 C 778.403 822.013, 754.187 806.619, 745.896 811.056 C 741.813 813.241, 743.803 818.578, 753.650 831.850 C 758.517 838.412, 765.650 849.791, 769.500 857.138 C 776.288 870.092, 778.649 872.751, 781.142 870.258 C 783.575 867.825, 771.192 844.543, 758.777 828.207 C 754.427 822.483, 751.118 817.549, 751.424 817.243 C 751.730 816.937, 755.397 818.375, 759.572 820.438 C 772.808 826.980, 786.905 842.765, 794.388 859.425 C 798.685 868.990, 799.545 866.294, 799.252 844.190 C 798.986 824.117, 797.373 790.037, 796.380 783.500 L 795.772 779.500 798.322 781.864 C 808.464 791.267, 815.206 817.746, 815.395 848.917 C 815.499 866.216, 816.076 869.023, 818.841 865.692 C 819.468 864.936, 820.688 860.592, 821.552 856.039 C 825.762 833.848, 839.260 806.990, 851.723 796.008 C 856.237 792.031, 861.846 788.465, 862.470 789.176 C 862.627 789.354, 860.808 794.329, 858.428 800.230 C 851.792 816.684, 838.005 858.217, 837.738 862.558 C 837.343 868.975, 840.303 868.349, 843.632 861.312 C 848.731 850.531, 864.452 837.056, 877.885 831.952 C 884.716 829.356, 884.531 830.741, 876.873 839.500 C 863.673 854.598, 854.005 869.212, 855.583 871.683 C 856.872 873.703, 887 874.351, 887 872.359 C 887 869.524, 880.791 867.538, 871.863 867.519 L 863.227 867.500 867.111 861.960 C 869.247 858.913, 874.954 851.692, 879.792 845.913 C 889.119 834.773, 891.590 830.435, 890.524 827.076 C 888.451 820.544, 870.672 825.723, 856.525 836.980 L 850.279 841.950 855.190 827.725 C 857.891 819.901, 862.104 808.227, 864.551 801.783 C 869.119 789.753, 869.898 785.298, 867.800 783.200 C 862.514 777.914, 845.710 789.677, 834.568 806.464 C 831.400 811.236, 825.485 822.993, 822.474 830.500 C 821.905 831.918, 821.283 829.735, 820.337 823 C 817.279 801.228, 810.938 784.885, 802.549 777.152 C 797.304 772.318, 793.844 771.782, 791.452 775.433 M 234 788.141 C 224.295 790.830, 220.627 791.350, 210.500 791.474 C 197.832 791.629, 195.385 792.545, 201.677 794.777 C 209.458 797.538, 218.609 797.456, 230.500 794.520 C 248.032 790.191, 257.388 790.075, 269 794.042 C 282.742 798.738, 292.386 799.106, 307.388 795.505 L 318.798 792.767 328.683 794.884 C 340.352 797.382, 351.571 797.624, 356.686 795.487 C 361.974 793.277, 360.051 792.508, 349.169 792.482 C 341.933 792.465, 337.775 791.898, 332.645 790.230 C 324.010 787.421, 314.976 787.374, 305 790.085 C 293.786 793.133, 284.464 792.814, 272.916 788.986 C 258.602 784.241, 248.841 784.029, 234 788.141 M 327 859.469 C 315.318 862.843, 303.513 864.159, 296.277 862.893 C 283.626 860.680, 282.707 860.622, 283.189 862.068 C 284.026 864.579, 295.054 868.200, 303.500 868.737 C 310.198 869.163, 313.587 868.737, 324.327 866.123 C 340.520 862.180, 346.324 862.153, 358.238 865.960 C 380.230 872.988, 385.830 873.351, 403.308 868.884 C 419.548 864.733, 427.688 864.759, 442 869.004 C 454.425 872.690, 466.411 873.772, 472.924 871.797 C 480.606 869.468, 478.993 868.305, 467.290 867.733 C 458.959 867.327, 453.651 866.379, 444 863.575 C 427.458 858.769, 420.261 858.677, 402.500 863.047 C 386.482 866.988, 380.552 866.751, 364 861.508 C 348.447 856.581, 338.831 856.051, 327 859.469 M 737.691 858.664 C 732.237 859.596, 734.793 862.409, 741.890 863.286 C 747.668 863.999, 752.541 865.433, 761.736 869.128 C 766.094 870.879, 768.285 869.078, 765.518 866.020 C 760.588 860.573, 747.210 857.036, 737.691 858.664 M 202 872.497 C 202 872.770, 204.250 875.162, 207 877.813 C 210.069 880.771, 212 883.495, 212 884.866 C 212 891.081, 205.349 897.552, 193.232 903.123 C 180.685 908.893, 182.930 911.343, 196.681 906.886 C 216.908 900.331, 223.953 881.233, 208.998 873.499 C 206.219 872.062, 202 871.458, 202 872.497 M 169.556 874.909 C 169.236 875.427, 169.487 876.976, 170.114 878.351 C 175.763 890.749, 149.493 901.301, 124.500 896.674 C 120.100 895.859, 115.713 894.876, 114.750 894.489 C 110.441 892.758, 113.406 896.928, 117.840 898.836 C 141.866 909.171, 176 899.117, 176 881.705 C 176 877.715, 171.049 872.493, 169.556 874.909 M 668.667 887.667 C 667.282 889.051, 668.105 891.172, 671.250 894.331 C 673.038 896.126, 675.625 899.824, 677 902.548 C 679.793 908.080, 682.325 909.021, 682.820 904.711 C 683.626 897.688, 672.293 884.040, 668.667 887.667 M 690.701 889.632 C 689.654 890.679, 689.855 900.489, 690.985 903.461 C 693.381 909.763, 696.969 907.388, 696.970 899.500 C 696.971 892.301, 693.498 886.835, 690.701 889.632 M 707.466 893.765 C 705.063 895.471, 702 900.443, 702 902.635 C 702 907.350, 707.264 905.106, 711.551 898.562 C 713.936 894.923, 710.882 891.339, 707.466 893.765 M 282 924.099 C 265.186 926.474, 263.524 930.224, 279.670 929.356 C 291.231 928.734, 291.815 928.806, 304.953 932.487 C 320.977 936.976, 329.604 936.988, 344 932.541 C 354.391 929.332, 360.924 929.183, 372 931.900 C 383.424 934.704, 393.701 934.397, 394.759 931.222 C 395.041 930.376, 393.739 930, 390.530 930 C 387.979 930, 380.693 928.650, 374.338 927 C 360.083 923.299, 354.874 923.252, 343.457 926.723 C 330.889 930.544, 316.959 930.598, 305.500 926.870 C 296.072 923.802, 289.547 923.033, 282 924.099" stroke="none" fill="#1a1a1a" fill-rule="evenodd"/>
</svg>