<svg xmlns="http://www.w3.org/2000/svg" width="1024" height="1024" viewBox="0 0 1024 1024" version="1.1">
	<path d="M 491 37.257 C 490.725 37.523, 486.675 38.034, 482 38.394 C 437.576 41.814, 384.028 60.476, 343.876 86.532 C 305.186 111.639, 268.475 150.685, 242.836 194 C 196.482 272.311, 174.657 388.004, 190.017 474 C 191.146 480.325, 192.305 486.271, 192.591 487.213 C 192.967 488.451, 192.170 489.320, 189.724 490.342 C 180.147 494.344, 179.753 500.828, 187.880 520.721 L 193.690 534.942 191.396 537.098 C 183.382 544.627, 182.039 559.701, 188.436 570.324 C 190.677 574.045, 191.419 576.237, 190.894 577.578 C 187.445 586.380, 193.234 598.960, 202.723 603.284 C 204.349 604.024, 205 605.171, 205 607.292 C 205 617.122, 219.348 625.860, 229.285 622.082 C 231.527 621.229, 231.856 621.542, 233.888 626.443 C 237.234 634.516, 239.886 636.500, 247.331 636.500 C 262.098 636.500, 273.953 626.298, 271.030 616.105 C 270.199 613.209, 270.290 612.902, 271.794 613.515 C 288.946 620.505, 300.106 622.449, 323 622.436 C 341.538 622.425, 342.919 622.289, 351 619.671 C 355.675 618.156, 360.358 616.640, 361.406 616.301 C 363.130 615.744, 363.249 616.060, 362.646 619.592 C 358.353 644.769, 358.088 676.740, 362.016 695.394 L 364.100 705.289 361.084 714.069 C 337.445 782.881, 346.781 833.842, 386.635 853.534 L 393.779 857.064 390.917 863.876 C 381.368 886.604, 382.293 908.337, 393.200 917.515 C 412.088 933.408, 443.187 929.887, 459.493 910.008 C 471.054 895.915, 481.323 865.017, 481.432 844 C 481.506 829.518, 479.864 825.960, 467.564 813.946 C 457.506 804.123, 455.450 799.999, 456.245 791.237 C 456.946 783.499, 461.236 773.414, 463.684 773.747 C 464.683 773.883, 470.715 774.285, 477.089 774.642 L 488.679 775.289 487.883 779.395 C 480.711 816.395, 512.013 851.897, 553 853.252 L 560.500 853.500 561.120 865 C 562.050 882.235, 566.556 892.158, 576.587 899.060 C 602.709 917.032, 639.577 903.213, 649.528 871.721 C 654.112 857.212, 653.897 836.398, 648.929 813.797 C 644.105 791.848, 634.341 781.500, 611.722 774.360 C 604.735 772.155, 603.080 771.274, 603.613 770.045 C 603.981 769.195, 605.781 764.236, 607.614 759.024 L 610.946 749.548 622.223 749.852 C 648.971 750.571, 672.210 739.106, 686.311 718.233 C 702.395 694.424, 698.870 654.124, 680.380 650.426 C 676.170 649.584, 672.235 653.146, 666.280 663.190 C 655.912 680.681, 641.365 690, 624.432 690 L 619.283 690 618.719 679.250 C 618.043 666.375, 611.795 630.049, 608.013 617.007 C 607.456 615.085, 607 613.202, 607 612.821 C 607 612.441, 610.712 613.844, 615.250 615.939 C 625.077 620.477, 639.345 625.157, 651.024 627.674 C 662.363 630.117, 694.315 630.205, 703.825 627.820 C 708.630 626.614, 710.961 626.482, 713.527 627.270 L 716.905 628.306 714.452 632.491 C 709.521 640.906, 712.071 648.486, 721.809 654.359 C 737.548 663.852, 743.251 662.611, 752.065 647.774 C 755.653 641.734, 756.404 641.004, 758.321 641.693 C 759.520 642.123, 763.683 642.481, 767.573 642.488 C 776.428 642.503, 781.238 639.688, 786.161 631.610 C 788.098 628.431, 790.437 625.887, 791.732 625.551 C 798.549 623.780, 805 612.857, 805 603.085 C 805 599.789, 805.531 597.807, 806.663 596.872 C 813.044 591.604, 813.896 574.957, 808.230 566.245 C 807.169 564.613, 807.059 563.633, 807.835 562.699 C 808.424 561.989, 812.131 555.353, 816.071 547.954 C 825.351 530.528, 825.592 527.587, 818.265 521.197 L 813.331 516.893 815.706 508.697 C 821.318 489.332, 825.918 464.955, 827.536 446 C 827.888 441.875, 828.356 436.925, 828.577 435 C 829.393 427.885, 828.983 385.143, 827.996 374.500 C 819.085 278.354, 779.292 186.356, 720.566 126.125 C 673.182 77.527, 616.674 48.820, 550 39.473 C 539.243 37.965, 492.101 36.195, 491 37.257 M 486 47.050 C 387.915 55.399, 303.021 110.637, 249.803 200.737 C 204.527 277.391, 183.751 391.944, 199.805 476.418 L 201.500 485.337 207.228 485.418 C 215.147 485.531, 216.728 487.417, 223.233 504.500 C 228.232 517.627, 228.719 518.481, 231.032 518.190 C 246.919 516.192, 256.849 518.519, 268 526.853 C 274.252 531.526, 274.862 531.751, 284 532.761 C 295.922 534.079, 317.859 533.468, 324.650 531.629 C 332.288 529.560, 338.271 525.930, 350.500 515.945 C 367.283 502.241, 381.417 491.671, 387.997 487.904 C 395.037 483.872, 395.072 483.783, 390.250 482.068 C 352.816 468.752, 326.577 441.836, 321.003 411.033 C 317.950 394.160, 319.905 380.533, 328.472 358.983 C 334.002 345.070, 335.612 338.118, 336.326 325.056 L 336.733 317.612 333.624 321.556 C 318.294 341.001, 304.988 348.446, 285.500 348.482 C 276.303 348.499, 274.957 348.243, 268.741 345.299 C 252.107 337.419, 243 322.928, 243 304.339 C 243 279.545, 255.943 260.953, 286.230 242.242 C 304.317 231.069, 312.221 225.161, 326.903 211.843 C 344.440 195.937, 347.954 193.186, 355.500 189.456 C 367.877 183.339, 381.294 183.213, 394.053 189.094 L 400.708 192.162 406.104 188.715 C 457.032 156.183, 542.997 153.925, 590.416 183.873 C 593.778 185.996, 599.326 189.145, 602.745 190.871 L 608.962 194.010 618.500 192.475 C 646.304 188.001, 672.240 200.720, 702.682 233.758 C 708.632 240.215, 721.434 253.598, 731.132 263.499 C 751.076 283.860, 756.459 291.333, 761.139 305.156 C 765.126 316.931, 766.209 335.601, 763.626 348 C 758.226 373.917, 734.643 397.927, 708 404.634 C 693.312 408.331, 672.951 406.272, 658.593 399.638 C 652.144 396.659, 650.988 396.384, 650.918 397.815 C 650.527 405.814, 645.429 422.343, 640.271 432.335 C 632.760 446.883, 613.526 464.992, 593.401 476.462 L 586.112 480.617 593.543 484.294 C 610.107 492.490, 621.895 500.905, 641.459 518.500 C 664.395 539.127, 674.563 543.395, 711.811 548.027 C 720.902 549.158, 721.208 549.129, 724.811 546.788 C 737.470 538.560, 754.953 535.597, 767.523 539.551 C 770.560 540.506, 773.201 541.111, 773.391 540.894 C 773.581 540.677, 776.436 534.853, 779.736 527.950 C 787.057 512.635, 790.077 509.535, 796.955 510.271 C 799.455 510.539, 802.241 511.068, 803.147 511.446 C 804.989 512.216, 806.337 508.831, 809.899 494.500 C 843.535 359.144, 789.771 189.984, 687 107.818 C 656.607 83.519, 614.284 62.529, 578.500 54.008 C 549.315 47.059, 515.649 44.527, 486 47.050 M 481.500 173.022 C 401.241 182.109, 349.970 237.070, 345.937 318.340 C 344.846 340.312, 343.704 345.999, 336.900 363.319 C 330.264 380.208, 328.664 387.952, 329.316 400 C 330.990 430.905, 351.155 455.288, 387.715 470.616 C 399.735 475.655, 430.043 486, 432.787 486 C 435.155 486, 439 488.776, 439 490.485 C 439 495.877, 432.441 496.071, 417.084 491.133 L 407.704 488.116 402.642 490.681 C 392.733 495.703, 380.357 503.957, 370.608 512.046 C 335.507 541.174, 328.738 543.950, 296 542.642 C 273.373 541.737, 270.422 541.099, 263.718 535.659 C 252.746 526.756, 239.857 524.013, 229.554 528.387 C 214.498 534.778, 209.111 551.649, 219.514 559.832 C 224.744 563.946, 233.890 560.981, 237.500 554.001 C 241.116 547.008, 247.471 548.513, 245.068 555.793 C 244.337 558.009, 244.022 560.953, 244.369 562.334 C 245.709 567.672, 253.814 574.601, 260.263 575.920 C 266.031 577.100, 265.867 583.177, 260.039 584.194 C 258.481 584.466, 258.678 585.405, 261.820 592.664 L 265.354 600.827 276.427 604.937 C 304.327 615.290, 333.952 616.622, 354.367 608.440 C 364.636 604.324, 365.327 603.363, 369.059 588 C 377.454 553.436, 390.003 522.431, 395.292 523.187 C 398.573 523.656, 398.494 526.265, 394.938 534.783 C 384.838 558.977, 375.286 596.413, 371.069 628.337 C 365.932 667.217, 368.147 692.598, 378.644 715.123 C 382.690 723.805, 382.722 726.356, 378.793 726.811 C 376.585 727.067, 375.645 726.398, 373.551 723.081 C 372.148 720.858, 371 718.581, 371 718.020 C 371 716.061, 369.229 717.019, 368.726 719.250 C 368.447 720.487, 366.815 726.675, 365.099 733 C 351.567 782.882, 355.668 815.664, 378.030 836.367 C 387.884 845.490, 396.686 849.440, 411.500 851.389 L 420.500 852.572 420.500 855.519 C 420.500 859.008, 416.017 860.362, 407.731 859.375 L 402.962 858.807 399.989 865.365 C 392.183 882.581, 390.852 898.668, 396.527 907.196 L 399.392 911.500 400.608 903.708 C 401.882 895.548, 404.010 891, 406.554 891 C 408.874 891, 409.321 893.492, 407.994 899.024 C 406.300 906.084, 407.446 912.600, 411.009 916.163 C 413.626 918.780, 414.434 919, 421.423 919 C 425.590 919, 429 918.844, 429 918.654 C 429 918.463, 428.212 916.776, 427.250 914.904 C 424.819 910.176, 424.768 895.802, 427.172 893.398 C 430.079 890.493, 432 892.334, 432 898.026 C 432 910.807, 435.898 916.566, 442.446 913.458 C 454.528 907.725, 466.901 882.918, 471.529 855.149 C 474.495 837.352, 472.433 831.023, 460.110 820.098 C 451.716 812.655, 448.256 807.077, 447.187 799.258 C 446.267 792.534, 447.845 781.135, 450.371 776.250 C 452.663 771.818, 452.411 770.316, 449.250 769.554 C 444.335 768.369, 428.136 760.058, 424.471 756.840 C 420.433 753.295, 420.058 749.705, 423.673 749.190 C 424.869 749.020, 430.044 750.911, 435.173 753.392 C 450.681 760.893, 464.288 764.494, 479.500 765.122 C 490.715 765.585, 490.184 765.884, 494.319 756.750 C 497.907 748.824, 506.534 736.868, 510.309 734.591 C 511.739 733.728, 512.404 733.886, 513.490 735.347 C 515.052 737.449, 514.600 739.223, 511.410 743.500 C 501.494 756.797, 494.044 786.245, 497.108 800.034 C 500.827 816.771, 515.002 832.839, 531.887 839.456 C 544.336 844.334, 566.793 845.354, 580.757 841.675 C 584.973 840.564, 586.351 840.536, 587.717 841.535 C 591.985 844.656, 583.881 850.340, 572.515 852.197 C 569.900 852.624, 569.184 857.171, 570.082 867.628 C 571.087 879.313, 574.759 886.797, 582.055 892.027 L 584.609 893.858 584.194 885.176 C 583.833 877.615, 584.037 876.176, 585.775 874.030 C 589.029 870.010, 590.718 872.495, 590.801 881.424 C 590.874 889.290, 593.342 896.150, 596.539 897.377 C 600.644 898.952, 612.158 897.566, 617.652 894.836 C 619.758 893.790, 619.728 893.700, 616.244 890.641 C 609.707 884.902, 605.720 872.137, 609.487 869.011 C 611.792 867.098, 613.679 868.473, 614.459 872.636 C 616.798 885.102, 626.051 889.831, 633.368 882.298 C 644.318 871.024, 646.848 845.868, 639.989 816.453 C 635.450 796.988, 627.825 789.190, 607.392 783.114 C 598.405 780.441, 598.476 780.436, 597.041 783.901 C 595.146 788.477, 591.271 791.663, 589.205 790.345 C 586.422 788.569, 587.332 783.313, 592.367 772.077 C 613.112 725.790, 614.894 689.163, 599.597 623.531 C 595.191 604.629, 595.162 604.552, 591.338 601.607 C 582.402 594.727, 567.844 579.126, 568.176 576.787 C 568.865 571.924, 573.236 573.250, 581.044 580.689 C 615.534 613.547, 660.362 626.968, 705.056 617.817 C 709.717 616.863, 711.397 616.947, 715.484 618.340 C 722.011 620.564, 721.312 620.913, 726.558 612.804 C 732.639 603.404, 732.685 603.246, 729.175 603.761 C 725.344 604.323, 720 601.536, 720 598.974 C 720 597.888, 720.337 596.964, 720.750 596.920 C 721.163 596.875, 723.750 596.722, 726.500 596.579 C 738.045 595.979, 747.923 585.536, 747.978 573.872 C 747.992 570.892, 748.564 568.777, 749.584 567.930 C 752.393 565.599, 754.387 568.089, 755.591 575.429 C 756.969 583.828, 760.041 587.455, 765.776 587.455 C 773.543 587.455, 780 579.534, 780 570.008 C 780 547.561, 751.870 539.638, 727.200 555.136 C 721.541 558.692, 720.576 558.990, 717.700 558.077 C 715.940 557.518, 708.209 556.327, 700.521 555.431 C 669.320 551.793, 659.918 547.347, 632.255 523.148 C 615.148 508.183, 603.883 500.185, 590.500 493.503 C 575.749 486.138, 575.434 486.104, 562.693 490.457 C 549.091 495.105, 538.287 495.859, 536.920 492.257 C 535.735 489.133, 538.914 486.390, 544.731 485.518 C 566.388 482.270, 597.917 465.066, 617.109 446.025 C 632.016 431.235, 638.263 418.880, 641.104 398.568 L 642.278 390.180 636.688 383.590 C 621.353 365.515, 616.405 344.370, 617.278 300.647 C 617.920 268.509, 616.095 254.602, 609.927 244.609 C 606.369 238.846, 606.465 236.621, 610.292 236.180 C 615.611 235.568, 621.423 244.037, 624.579 257 C 626.143 263.421, 626.431 269.391, 626.581 298.500 C 626.801 341.156, 628.223 351.054, 636.351 366.473 C 658.157 407.840, 722.534 406.504, 747.316 364.171 C 760.917 340.938, 758.646 311.401, 741.535 289 C 732.111 276.662, 680.355 224.544, 670.033 216.997 C 646.416 199.730, 626.091 196.346, 604.185 206.036 C 595.261 209.984, 589.428 206.431, 595.035 200.463 L 597.070 198.297 586.226 192.172 C 566.707 181.148, 556.707 177.639, 535.659 174.427 C 524.089 172.662, 492.029 171.830, 481.500 173.022 M 365.929 195.305 C 357.445 197.708, 353.254 200.779, 330.505 221.267 C 317.983 232.546, 308.758 239.368, 290.976 250.500 C 272.692 261.946, 262.654 271.385, 257.643 281.842 C 246.642 304.797, 252.759 327.785, 272.187 336.504 C 297.849 348.020, 331.833 323.027, 340.474 286.283 C 347.913 254.651, 360.846 230.319, 381.250 209.566 C 387.163 203.553, 392 198.533, 392 198.410 C 392 198.288, 389.863 197.451, 387.250 196.550 C 380.705 194.294, 371.417 193.751, 365.929 195.305 M 385.730 258.583 C 377.517 261.147, 369.483 270.604, 371.361 275.498 C 372.365 278.114, 376.436 277.177, 379.988 273.512 C 384.225 269.141, 390.731 266.539, 395.289 267.394 C 398.795 268.052, 400.939 266.636, 402.316 262.752 C 403.753 258.698, 393.565 256.138, 385.730 258.583 M 539.250 267.480 C 535.187 270.430, 537.590 275, 543.205 275 C 549.543 275, 554.389 277.333, 560.281 283.222 C 566.580 289.518, 567.100 289.757, 569.429 287.429 C 577.642 279.215, 549.086 260.338, 539.250 267.480 M 388.033 323.626 C 378.425 331.711, 376.774 350.942, 385.054 358.340 C 393.042 365.477, 405.215 356.073, 406.696 341.622 C 408.242 326.527, 397.218 315.897, 388.033 323.626 M 534.286 329.089 C 521.954 332.731, 518.731 360.684, 529.883 367.272 C 540.990 373.833, 553.153 361.858, 551.709 345.782 C 550.587 333.289, 543.396 326.399, 534.286 329.089 M 432.500 352.523 C 429.750 353.287, 427.164 353.932, 426.753 353.956 C 424.225 354.105, 417.868 361.705, 416.545 366.160 C 413.068 377.868, 421.837 391.721, 434.500 394.522 C 436.150 394.887, 438.181 395.366, 439.014 395.586 C 440.260 395.914, 440.510 397.961, 440.426 407.130 L 440.324 418.274 437.412 419.871 C 435.479 420.931, 431.953 421.473, 426.922 421.484 C 414.777 421.510, 406.858 415.213, 405.050 404.094 C 404.008 397.679, 398 399.138, 398 405.807 C 398 413.366, 405.392 422.998, 415.151 428.157 C 421.454 431.489, 434.545 431.484, 441.679 428.147 L 446.709 425.794 451.605 429.242 C 468.894 441.417, 492.858 437.462, 505.475 420.351 C 508.179 416.683, 508.920 416.261, 512.463 416.374 C 518.205 416.557, 518.286 414.022, 512.714 408.451 C 506.557 402.293, 497.583 401.959, 499.487 407.958 C 499.825 409.025, 501.024 410.190, 502.151 410.548 C 504.085 411.162, 504.013 411.392, 500.850 414.655 C 480.658 435.490, 449.675 429.681, 447.297 404.614 C 446.700 398.324, 448.098 395, 451.341 395 C 464.234 395, 482.085 379.123, 480.710 368.878 C 479.987 363.483, 475.840 357.469, 471.217 355.111 C 463.236 351.039, 442.771 349.671, 432.500 352.523 M 438.056 445.433 C 434.681 449.500, 445.575 456.016, 455.685 455.978 C 464.356 455.945, 473.740 451.093, 472.315 447.378 C 471.670 445.697, 470.459 445.758, 459.497 448.021 C 453.828 449.192, 453.128 449.115, 446.918 446.631 C 439.218 443.550, 439.578 443.599, 438.056 445.433 M 198.565 496.829 C 194.200 498.360, 190.494 500.037, 190.328 500.556 C 189.657 502.664, 201.692 530.501, 203.098 530.090 C 203.869 529.865, 206.753 529.190, 209.506 528.590 C 212.259 527.991, 215.968 526.459, 217.749 525.187 C 220.894 522.939, 220.944 522.792, 219.493 519.987 C 218.672 518.399, 216.452 512.823, 214.560 507.596 C 208.892 491.939, 210.131 492.772, 198.565 496.829 M 793.482 521.029 C 793.132 521.595, 790.014 527.801, 786.551 534.821 L 780.256 547.583 782.416 550.292 C 783.603 551.781, 785.458 553.011, 786.538 553.024 C 787.617 553.037, 791.177 554.148, 794.448 555.493 C 797.719 556.837, 800.483 557.839, 800.589 557.719 C 800.695 557.598, 803.994 551.475, 807.920 544.111 C 816.194 528.593, 816.324 529.520, 805.022 523.581 C 798.098 519.942, 794.628 519.175, 793.482 521.029 M 203.027 540.873 C 196.519 543.294, 194 547.495, 194 555.925 C 194 566.604, 196.196 568.304, 206.821 565.852 L 211.795 564.704 209.383 560.383 C 206.336 554.927, 205.398 548.354, 206.981 543.558 C 208.513 538.915, 208.434 538.861, 203.027 540.873 M 787.827 569.761 C 788.013 573.039, 787.536 577.318, 786.722 579.681 L 785.290 583.837 791.895 586.272 C 795.528 587.611, 799.242 589.029, 800.150 589.422 C 802.413 590.403, 804.399 584.236, 803.731 578.305 C 803.139 573.053, 799.546 568.695, 793.500 565.896 C 787.678 563.200, 787.463 563.347, 787.827 569.761 M 233.791 568.814 L 231.229 570.500 234.106 575.500 C 238.275 582.743, 237.678 590.703, 232.654 594.872 C 231.374 595.935, 231.700 597.216, 235.088 604.447 C 237.240 609.038, 239 613.286, 239 613.887 C 239 614.488, 240.173 617.909, 241.606 621.489 C 244.048 627.587, 244.412 627.998, 247.356 627.968 C 250.995 627.931, 260.954 623.244, 262.337 620.918 C 263.864 618.351, 247.816 581.611, 242.935 576.500 C 240.834 574.300, 238.493 571.291, 237.734 569.814 C 236.387 567.194, 236.291 567.169, 233.791 568.814 M 207.544 574.589 C 193.136 579.865, 197.997 595, 214.100 595 C 226.623 595, 232.413 585.096, 224.896 576.535 C 221.348 572.493, 215.163 571.800, 207.544 574.589 M 749.624 593.734 C 748.290 595.805, 741.259 606.950, 734 618.500 C 718.754 642.756, 718.845 642.277, 728.500 647.642 C 738.141 652.999, 738.764 652.744, 745.891 640.527 C 749.251 634.767, 752.004 629.480, 752.010 628.777 C 752.027 626.517, 756.651 617.558, 758.774 615.671 C 760.716 613.945, 760.746 613.637, 759.310 610.200 C 757.865 606.742, 757.959 600.875, 759.525 596.795 C 759.931 595.737, 759.491 594.973, 758.249 594.579 C 757.206 594.248, 755.384 593.075, 754.201 591.973 L 752.049 589.968 749.624 593.734 M 774 594.500 C 772.625 595.286, 770.765 595.945, 769.867 595.965 C 766.635 596.035, 766 604.849, 768.886 609.580 C 772.626 615.714, 784.491 618.525, 790.375 614.672 C 795.972 611.008, 797.450 601.527, 793.047 597.542 C 788.514 593.441, 778.618 591.860, 774 594.500 M 221.500 603.588 C 219.850 604.315, 217.262 604.930, 215.750 604.955 C 212.138 605.014, 212.088 607.815, 215.636 611.364 C 217.829 613.557, 219.175 614, 223.636 614 C 229.766 614, 229.907 613.672, 226.689 606.883 C 224.510 602.287, 224.487 602.273, 221.500 603.588 M 763.082 623.368 C 758.951 630.052, 760.976 634, 768.534 634 C 771.370 634, 772.970 633.230, 775.600 630.600 C 779.406 626.794, 779.902 625, 777.149 625 C 776.131 625, 773.182 623.875, 770.596 622.500 C 764.834 619.436, 765.564 619.352, 763.082 623.368 M 674.123 668.582 C 661.208 689.159, 644.105 700, 624.557 700 L 619.434 700 618.213 711.501 C 617.541 717.827, 616.262 726.621, 615.371 731.043 C 614.480 735.466, 613.926 739.259, 614.139 739.472 C 615.257 740.590, 629.737 740.603, 636.606 739.493 C 661.352 735.495, 681.441 717.458, 686.091 695.065 C 687.719 687.222, 686.793 672.578, 684.314 666.987 C 680.762 658.974, 680.087 659.080, 674.123 668.582 M 197.429 952.300 C 195.690 953.273, 195.553 957.153, 197.200 958.800 C 198.948 960.548, 826.052 960.548, 827.800 958.800 C 829.234 957.366, 829.322 955.058, 828.021 953 C 827.181 951.672, 791.084 951.500, 512.966 951.500 C 340.207 951.500, 198.216 951.860, 197.429 952.300" stroke="none" fill="#1a1a1a" fill-rule="evenodd"/>
</svg>