<svg xmlns="http://www.w3.org/2000/svg" width="1024" height="1024" viewBox="0 0 1024 1024" version="1.1">
	<path d="M 531.500 94.460 C 507.815 99.143, 504.455 101.674, 509.952 110.690 L 511.897 113.880 506.199 115.049 C 490.754 118.219, 476.279 124.151, 460.324 133.849 C 451.341 139.309, 448.820 140.327, 438.824 142.529 C 405.463 149.879, 388.939 160.414, 369.069 187 C 336.572 230.481, 327.170 289.592, 347.578 322.104 C 354.836 333.666, 370.551 339.109, 381.859 333.978 C 387.922 331.227, 388.006 331.300, 386.197 337.750 C 383.539 347.224, 383.943 369.857, 386.904 377.345 C 392.308 391.014, 410.884 413.713, 426 425.119 C 439.090 434.996, 462.242 444.072, 485.935 448.612 C 494.940 450.338, 495.039 450.417, 490.843 452.559 C 487.469 454.281, 476.552 463.142, 463.561 474.702 C 459.677 478.157, 456.050 480.955, 455.500 480.918 C 454.239 480.835, 447.498 472.288, 439.002 460 C 419.553 431.872, 382.612 385.319, 354.049 352.944 C 349.897 348.238, 340.875 337.692, 334 329.509 C 313.425 305.017, 300.984 291.342, 268.515 257.523 C 233.943 221.513, 170.294 158.855, 164.125 154.757 C 157.608 150.428, 148.506 153.896, 147.352 161.148 C 146.830 164.428, 147.213 165.275, 151.134 169.529 L 155.497 174.262 155.231 419.881 C 155.085 554.972, 154.973 679.949, 154.982 697.610 L 155 729.719 125.750 730.415 C 93.185 731.190, 92.751 731.243, 93.192 734.336 C 93.499 736.494, 93.578 736.501, 124.250 736.764 L 155 737.029 154.993 763.264 L 154.986 789.500 151.504 791.871 C 136.844 801.855, 130.121 841.636, 139.867 860.739 C 149.220 879.072, 173.664 876.118, 180.684 855.805 C 188.242 833.937, 180.479 798.403, 166.139 789.227 L 160.779 785.797 161.358 764.148 C 161.676 752.242, 161.951 741.263, 161.969 739.750 L 162 737 205.031 737 C 253.332 737, 250.634 737.482, 247.097 729.486 C 242.681 719.503, 220.218 687.709, 210.544 677.750 C 204.980 672.021, 206.589 671.451, 215.590 675.962 C 228.488 682.425, 239.939 694.259, 253.697 715.341 C 260.725 726.112, 262.312 727.986, 263.538 726.968 C 265.565 725.286, 265.506 724.749, 260.944 703.444 C 255.502 678.026, 244.860 646.662, 236.449 631.250 C 232.490 623.996, 232.735 623.794, 239.760 628.524 C 255.830 639.346, 267.727 662.579, 272.988 693.407 C 277.697 721.002, 278.818 722.458, 282.939 706.325 C 288.626 684.057, 295.260 668.509, 304.084 656.765 C 308.471 650.927, 316.081 642.748, 316.622 643.289 C 316.824 643.491, 315.619 647.671, 313.944 652.578 C 305.164 678.301, 296.534 711.934, 295.618 724 L 295.124 730.500 297.054 728.149 C 298.115 726.856, 301.125 722.197, 303.742 717.796 C 310.756 705.998, 325.578 690.876, 334.871 686.035 C 337.590 684.619, 337.542 684.735, 332.448 692 C 327.648 698.846, 313.086 725.292, 311.051 730.860 L 309.251 735.786 331.375 736.499 C 343.544 736.892, 385.593 737.009, 424.818 736.759 L 496.136 736.305 501.530 747.061 L 506.925 757.816 496.251 763.658 C 477.445 773.951, 469.935 783.302, 470.044 796.288 C 470.163 810.419, 479.011 819.389, 497.019 823.635 C 509.166 826.499, 546.485 826.269, 558.301 823.257 C 570.940 820.035, 580.953 815.103, 587.579 808.837 C 599.612 797.457, 602.006 788.985, 602.075 757.538 C 602.141 727.745, 602.567 724.591, 606.585 724.199 C 610.606 723.807, 611.055 724.440, 616.977 738.846 C 623.857 755.584, 626.980 761.513, 633.443 770.103 C 636.499 774.166, 639 777.991, 639 778.603 C 639 779.215, 636.188 781.448, 632.750 783.564 C 603.077 801.835, 602.104 832.216, 630.875 842.133 C 647.649 847.915, 675.863 847.569, 697 841.322 C 734.432 830.259, 746.068 805.918, 737.042 757.557 C 733.747 739.900, 734.205 730.282, 739.419 707.667 C 741.850 697.125, 744.153 686.925, 744.538 685 C 745.935 678.001, 745.906 678.011, 755.694 681.313 C 773.697 687.386, 799.538 683.637, 806.310 673.968 C 807.126 672.804, 810.145 671.332, 813.525 670.452 C 834.969 664.866, 859.428 637.916, 855.061 624.684 C 853.946 621.306, 854.126 620.687, 858.380 613.306 C 869.270 594.408, 874.024 566.167, 867.427 559.570 C 866.564 558.706, 864.773 558, 863.448 558 C 860.732 558, 860.944 558.659, 858.540 542.786 C 855.518 522.833, 848.901 508.894, 836.523 496.405 C 827.353 487.152, 819.931 483, 812.562 483 C 804.863 483, 802.696 486.874, 805.009 496.500 C 808.752 512.074, 808.046 537.714, 803.438 553.618 C 797.035 575.714, 780.974 597.406, 765.036 605.482 C 760.479 607.791, 749.084 611.509, 748.606 610.843 C 748.471 610.654, 747.540 606, 746.538 600.500 C 736.683 546.438, 702.664 467.196, 675.183 434.294 C 672.333 430.880, 670 427.719, 670 427.268 C 670 426.817, 672.981 424.210, 676.624 421.474 C 686.503 414.055, 699.393 399.732, 703.717 391.368 L 707.404 384.236 712.958 387.058 C 737.653 399.607, 762.959 389.385, 788.612 356.500 C 831.887 301.023, 839.825 250.585, 811.017 214.141 C 794.258 192.939, 762.808 166.949, 740.159 155.584 C 725.959 148.458, 706.054 143, 694.266 143 C 689.077 143, 687.641 142.497, 680.974 138.339 C 662.889 127.060, 645.804 120.101, 624.773 115.450 C 618.016 113.955, 611.332 111.757, 608.016 109.940 C 585.807 97.767, 573.343 94.135, 551.500 93.471 C 542.928 93.210, 536.115 93.547, 531.500 94.460 M 526.250 103.771 C 521.163 104.627, 517 105.693, 517 106.140 C 517 106.587, 519.282 108.757, 522.070 110.961 C 526.655 114.585, 527.637 114.949, 532.320 114.759 C 537.794 114.537, 547.291 116.719, 546.491 118.015 C 546.230 118.436, 547.589 119.075, 549.509 119.436 C 555.302 120.523, 553.535 121.628, 542.250 123.976 C 523.971 127.780, 503.370 136.829, 496.381 144.124 L 493.691 146.932 496.595 148.216 C 498.499 149.058, 503.290 149.428, 510.500 149.291 L 521.500 149.081 518.158 151.940 C 513.518 155.910, 503.720 159.358, 499.389 158.545 C 490.998 156.971, 485.901 147.959, 489.484 141.030 C 491.679 136.785, 505.916 126.298, 513 123.707 C 516.225 122.527, 507.751 123.080, 501.073 124.485 C 481.429 128.617, 465.731 138.012, 446.936 156.884 C 406.244 197.742, 397.624 223.846, 402.019 292.900 L 403.139 310.500 397.395 327.500 C 391.749 344.210, 391.653 344.684, 391.755 355.252 C 391.940 374.373, 395.220 381.697, 411.499 399.350 C 432.613 422.246, 448.173 431.051, 481.560 438.999 C 486.477 440.169, 493.200 442.434, 496.500 444.030 C 509.443 450.294, 545.121 453.452, 570.006 450.536 C 627.838 443.761, 668.448 425.051, 690.960 394.811 C 698.022 385.325, 699.265 381.081, 696.129 377.160 C 672.996 348.240, 667.924 321.900, 673.375 259 C 676.300 225.253, 675.724 217.478, 669.363 204.783 C 665.036 196.147, 666.832 190.933, 672.131 196.750 C 682.059 207.650, 684.970 227.945, 680.916 258 C 678.537 275.640, 679.033 312.062, 681.826 324.874 C 691.029 367.077, 720.685 393.009, 746.933 381.806 C 771.989 371.112, 807.495 321.877, 817.104 284.500 C 820.069 272.966, 820.305 254.894, 817.620 245 C 812.722 226.954, 797.265 207.795, 769.959 185.923 C 737.341 159.796, 714.030 150.999, 681.670 152.603 L 667.839 153.289 668.170 150.394 C 668.410 148.291, 669.396 147.053, 671.779 145.862 L 675.058 144.224 670.394 141.491 C 655.340 132.669, 639.236 126.444, 622.625 123.026 C 615.444 121.548, 610.390 119.678, 602.285 115.499 C 578.215 103.088, 553.227 99.234, 526.250 103.771 M 430.643 152.105 C 401.388 159.177, 379.833 179.212, 361.515 216.358 C 349.645 240.428, 345 257.911, 345 278.521 C 345 298.695, 350.790 316.938, 359.104 322.960 C 369.874 330.762, 384.976 328.253, 391.495 317.578 L 394.500 312.657 394.364 295.078 C 394.290 285.410, 394.118 269.175, 393.983 259 C 393.450 218.912, 404.854 190.156, 433.534 159.267 C 442.981 149.092, 442.992 149.120, 430.643 152.105 M 155.035 161.934 C 152.686 166.323, 153.586 167.312, 159.250 166.567 C 165.938 165.688, 166.799 164.774, 163.436 162.129 C 160.065 159.477, 156.396 159.392, 155.035 161.934 M 162.649 171.758 C 162.210 172.469, 166.911 177.850, 189.505 202.500 C 194.546 208, 202.457 216.766, 207.085 221.981 C 211.713 227.195, 219.100 235.300, 223.500 239.991 C 227.900 244.683, 238.925 256.805, 248 266.930 C 257.075 277.056, 267.701 288.817, 271.614 293.067 C 275.527 297.317, 282.052 304.694, 286.114 309.461 C 290.176 314.227, 297.220 322.486, 301.766 327.814 C 306.313 333.141, 313.040 341.325, 316.715 346 C 333.423 367.251, 338.445 373.300, 349.108 385.013 C 373.869 412.212, 393.092 436.149, 408.369 458.805 L 419.212 474.887 424.356 472.782 C 427.185 471.624, 430.962 470.475, 432.750 470.229 C 434.538 469.983, 436 469.557, 436 469.284 C 436 467.746, 410.715 433.292, 397.630 417 C 373.034 386.375, 306.806 309.445, 285.285 286.500 C 262.257 261.949, 198.439 197.451, 185.170 185.318 C 172.108 173.376, 164.486 168.787, 162.649 171.758 M 162 456.522 L 162 730 200.928 730 L 239.856 730 232.378 718.884 C 223.109 705.107, 210.159 687.874, 201.699 678.061 C 194.852 670.119, 194.266 667.745, 198.784 666.239 C 209.798 662.567, 232.515 675.604, 247.595 694.250 C 252.899 700.809, 253.266 701.036, 252.434 697.250 C 246.665 671.003, 236.097 641.485, 226.819 625.706 C 220.923 615.679, 225.239 613.040, 237.809 618.986 C 254.939 627.090, 269.777 649.510, 276.647 677.669 L 279.372 688.837 284.569 677.024 C 293.463 656.810, 308.001 638.353, 319.845 632.241 C 328.369 627.843, 328.123 631.881, 318.040 661.845 C 313.662 674.855, 309.224 689.193, 308.178 693.707 L 306.275 701.913 315.560 693.207 C 326.948 682.527, 333.917 678.153, 340.846 677.332 C 345.786 676.747, 345.999 676.821, 345.988 679.111 C 345.981 680.425, 344.807 683.525, 343.378 686 C 341.949 688.475, 336.290 698.600, 330.801 708.500 C 325.313 718.400, 320.412 726.928, 319.911 727.450 C 316.624 730.878, 317.274 730.904, 406.617 730.957 L 494.235 731.009 493.746 728.754 C 493.477 727.514, 491.999 722.450, 490.462 717.500 C 487.930 709.349, 487.665 707.086, 487.652 693.500 C 487.637 677.678, 488.505 672.931, 494.080 658.355 L 496.430 652.210 493.760 639.855 C 492.292 633.060, 490.293 623.187, 489.317 617.915 L 487.543 608.331 482.740 605.019 C 476.670 600.834, 472.332 595.378, 469.821 588.771 C 468.740 585.927, 466.594 582.163, 465.051 580.405 C 463.508 578.648, 461.439 575.097, 460.452 572.514 C 458.741 568.032, 458.518 567.849, 455.579 568.487 C 448.211 570.086, 445.121 570.092, 439.071 568.522 C 419.986 563.567, 405.611 548.347, 401.930 529.195 C 399.251 515.257, 402.411 495.043, 408.858 484.882 L 411.788 480.265 409.114 475.382 C 400.556 459.755, 385.248 439.410, 356.535 405.500 C 347.687 395.050, 335.509 380.488, 329.474 373.140 C 303.798 341.880, 258.422 289.362, 236.904 266 C 223.385 251.323, 181.721 205.240, 173.593 195.974 C 171.892 194.034, 168.588 190.332, 166.250 187.746 L 162 183.045 162 456.522 M 436.909 221.554 C 429.149 223.944, 420 233.357, 420 238.950 C 420 242.580, 424.225 241.333, 431.457 235.570 C 436.772 231.335, 439.837 229.720, 445.386 228.231 C 452.731 226.260, 454.466 224.471, 451.960 221.452 C 450.427 219.605, 443.073 219.655, 436.909 221.554 M 588.875 222.506 C 586.387 223.858, 584.434 227.613, 585.844 228.333 C 586.205 228.518, 588.750 228.766, 591.500 228.884 C 601.078 229.298, 609.537 233.649, 616 241.486 C 619.882 246.194, 622 245.962, 622 240.828 C 622 228.752, 599.888 216.522, 588.875 222.506 M 441.643 286.038 C 435.107 287.974, 431.987 294.750, 432.022 306.928 C 432.068 322.655, 440.344 331.045, 450.117 325.272 C 457.153 321.115, 459.516 306.448, 455.039 294.718 C 452.147 287.140, 447.685 284.249, 441.643 286.038 M 585.457 293.804 C 571.039 302.874, 574.967 337, 590.429 337 C 605.789 337, 612.398 307.023, 599.660 295.134 C 596.173 291.880, 589.508 291.256, 585.457 293.804 M 483.085 318.985 C 472.653 321.811, 465.592 325.948, 465.172 329.480 C 464.771 332.855, 466.659 332.752, 480.362 328.652 C 494.876 324.309, 510.249 325.442, 520.817 331.633 C 526.136 334.750, 528 334.208, 528 329.544 C 528 320.174, 501.602 313.968, 483.085 318.985 M 473.130 333.868 C 465.800 334.837, 463 338.026, 463 345.406 C 463 353.772, 469.852 361.280, 482.194 366.437 C 486.969 368.432, 487.175 368.855, 488.048 378.433 C 488.663 385.170, 490.019 389.992, 492.765 395.202 C 493.515 396.627, 481.750 399.238, 477.319 398.630 C 465.553 397.018, 453.135 386.559, 446.690 372.833 C 442.970 364.911, 441.473 364.136, 442.357 370.591 C 444.408 385.555, 461.082 403.038, 474.858 404.670 C 479.598 405.231, 479.949 405.497, 483.975 411.577 C 489.457 419.854, 494.540 422.558, 502.831 421.605 C 511.315 420.630, 523.768 414, 517.114 414 C 516.077 414, 513.940 414.672, 512.364 415.494 C 505.572 419.036, 496.047 417.036, 489.583 410.710 L 484.500 405.737 488 404.367 C 489.925 403.613, 492.625 402.415, 494 401.704 C 496.266 400.531, 496.895 400.711, 500.724 403.627 C 511.348 411.717, 530.861 412.418, 543 405.146 C 547.634 402.370, 555.102 394.539, 558.635 388.750 C 560.566 385.587, 562.761 383, 563.513 383 C 567.539 383, 565.387 377.886, 560.358 375.500 C 554.298 372.624, 549.431 374.087, 554.123 377.374 L 556.246 378.861 554.118 383.256 C 544.147 403.853, 516.882 409.977, 501.891 394.987 C 496.883 389.978, 495.395 386.408, 494.359 376.918 C 493.563 369.620, 494.636 367.839, 502.255 363.809 C 510.484 359.458, 520 350.324, 520 346.778 C 520 342.793, 515.608 338.377, 509.208 335.927 C 502.987 333.546, 483.833 332.452, 473.130 333.868 M 647.500 439.154 C 625.184 449.586, 608.879 454.017, 580 457.497 C 546.998 461.474, 543.249 461.501, 524.642 457.905 C 511.594 455.384, 509.594 455.445, 507.638 458.429 C 502.179 466.761, 492.708 498.704, 491.488 512.897 L 490.766 521.295 493.133 520.627 C 499.792 518.748, 511.842 518.887, 524 520.983 C 542.119 524.106, 561.618 524.799, 567.556 522.532 C 577.599 518.696, 587.040 509.253, 601.270 488.811 C 614.825 469.337, 616.856 469.580, 607.030 489.500 C 601.850 500.001, 593.961 511.266, 586.195 519.250 C 582.935 522.602, 582.079 524, 583.288 524 C 586.245 524, 585.155 526.037, 581.347 527.629 C 567.884 533.254, 548.992 533.302, 518.654 527.789 C 501.511 524.673, 492.600 527.566, 479.496 540.500 C 468.822 551.035, 465.723 559.891, 469.136 570.101 C 470.888 575.341, 471.675 575.553, 473.832 571.369 C 476.817 565.576, 482.716 559.185, 487.183 556.907 C 494.051 553.403, 494.528 554.934, 488.661 561.648 C 475.282 576.960, 474.295 584.294, 484.110 595.472 C 488.069 599.982, 488.337 599.929, 489.830 594.345 C 491.251 589.032, 497.072 582.522, 501.364 581.445 C 505.559 580.392, 505.619 581.573, 501.596 586.026 C 493.295 595.214, 493.804 604.290, 502.883 608.982 C 506.061 610.624, 510.394 609.830, 524.618 605.002 C 538.253 600.373, 543.009 600.060, 554.590 603.026 C 586.747 611.262, 625.615 601.452, 647.582 579.554 C 660.718 566.460, 672.511 547.739, 677.168 532.590 C 679.091 526.335, 679.421 525.855, 680.646 527.531 C 686.168 535.083, 671.860 565.562, 653.931 584.436 C 632.195 607.318, 597.211 617.821, 558.825 612.990 C 553.517 612.322, 548.737 611.938, 548.202 612.138 C 547.230 612.499, 553.440 622.494, 568.451 644.725 C 581.195 663.599, 582.534 670.082, 575.336 678.050 C 568.849 685.230, 560.058 685.502, 552.381 678.761 C 547.601 674.564, 539.844 664.148, 525.748 643 C 513.069 623.975, 508.151 618, 505.176 618 C 504.117 618, 501.913 617.733, 500.279 617.406 L 497.308 616.812 498.221 622.156 C 505.500 664.763, 527.910 693.351, 565.424 707.889 C 578.447 712.936, 596.979 717.212, 604.080 716.808 L 609.500 716.500 610.120 703 C 610.796 688.267, 612.658 680.905, 618.145 671.271 C 623.990 661.007, 624.364 664.923, 619.551 686 C 614.883 706.441, 617.545 722.608, 630.040 749.695 C 634.626 759.638, 639.680 767.395, 646.272 774.607 C 652.242 781.139, 652.519 780.594, 638.425 790.050 C 622.426 800.784, 615.848 810.219, 617.508 820.050 C 618.405 825.357, 625.305 833, 629.200 833 C 629.365 833, 629.500 829.664, 629.500 825.586 C 629.500 817.396, 632.573 811.219, 638.227 808.046 C 642.201 805.816, 642.363 807.052, 639.025 814.108 C 633.656 825.457, 635.085 834.553, 642.627 837.042 C 648.326 838.923, 664.596 838.891, 664.131 837 C 661.997 828.318, 664.710 818.117, 670.770 812.040 C 673.965 808.836, 674.315 808.710, 675.508 810.343 C 676.607 811.845, 676.282 813.092, 673.300 818.802 C 669.665 825.764, 669.025 833.425, 671.843 836.243 C 673.414 837.814, 689.603 834.854, 699.813 831.128 C 729.244 820.387, 736.156 802.520, 728.488 757 C 725.178 737.349, 725.691 729.035, 731.632 706.063 C 742.351 664.619, 744.017 643.730, 739.506 607.349 C 733.493 558.867, 693.623 464.607, 668.402 439.250 C 664.983 435.813, 661.806 433.017, 661.343 433.039 C 660.879 433.060, 654.650 435.812, 647.500 439.154 M 486 466.681 C 478.575 472.991, 469.901 480.225, 466.725 482.757 L 460.950 487.360 463.923 488.609 C 467.333 490.044, 470.447 495.593, 474.114 506.772 C 476.221 513.193, 476.851 514.138, 479.500 514.842 L 482.500 515.639 483.256 509.070 C 484.361 499.472, 490.168 479.120, 495.388 466.551 C 497.889 460.529, 499.837 455.514, 499.718 455.406 C 499.598 455.298, 493.425 460.372, 486 466.681 M 425.230 480.058 C 416.089 484.705, 409.556 496.618, 408.434 510.689 C 406.311 537.299, 423.355 559.437, 446 559.484 C 453.279 559.500, 460 557.739, 460 555.817 C 460 553.288, 465.591 543.559, 469.618 539.080 L 474.146 534.044 472.473 526.522 L 470.799 519 467.039 519 C 462.881 519, 458.636 521.489, 452.850 527.321 C 446.517 533.704, 445.153 531.754, 450.017 523.272 C 453.100 517.897, 456.145 515.680, 463.500 513.453 C 468.087 512.064, 468.156 511.385, 464.529 503.352 C 461.289 496.177, 458.853 494, 454.065 494 C 448.601 494, 446.138 495.130, 441.239 499.884 C 437.436 503.575, 435 504.971, 435 503.460 C 435 500.495, 443.896 489, 446.190 489 C 448.024 489, 446.790 485.742, 443.665 482.331 C 439.288 477.556, 431.936 476.649, 425.230 480.058 M 811.013 490.750 C 811.020 491.712, 811.973 495.425, 813.131 499 C 816.202 508.477, 816.846 528.598, 814.499 541.692 C 807.792 579.107, 782.867 610.757, 755.054 617.177 L 750.011 618.341 750.080 634.421 C 750.118 643.264, 749.665 654.929, 749.073 660.342 C 748.480 665.755, 748.211 670.533, 748.475 670.959 C 750.077 673.551, 763.928 676.500, 774.500 676.500 C 784.242 676.500, 800.367 673.535, 796.500 672.454 C 778.409 667.400, 776.871 666, 789.412 666 C 815.275 666, 834.794 655.287, 845.251 635.354 C 849.950 626.396, 849.930 625.927, 845.036 630.349 C 839.482 635.366, 831.886 639, 826.950 639 C 821.444 639, 822.136 637.408, 829.556 633.006 C 848.792 621.592, 863.185 595.003, 862.953 571.308 L 862.906 566.500 860.203 571.674 C 857.301 577.230, 852.609 583, 850.992 583 C 849.745 583, 849.738 576.912, 850.971 566.184 C 854.120 538.801, 839.857 504.507, 820.054 491.843 C 814.936 488.570, 810.993 488.093, 811.013 490.750 M 475.667 523.667 C 474.717 524.617, 474.838 532, 475.804 532 C 477.375 532, 483.214 525.155, 482.553 524.086 C 481.821 522.902, 476.741 522.592, 475.667 523.667 M 526.500 613.062 C 522.650 614.632, 519.062 616.081, 518.527 616.283 C 517.992 616.484, 518.943 618.415, 520.641 620.574 C 522.339 622.733, 528.705 631.925, 534.786 641 C 546.756 658.861, 557.982 673.385, 561.112 675.060 C 565.023 677.153, 570.986 671.965, 570.996 666.460 C 570.998 665.338, 565.107 655.438, 557.905 644.460 C 550.703 633.482, 543.013 621.237, 540.815 617.250 C 536.262 608.988, 536.396 609.027, 526.500 613.062 M 499.095 668.250 C 491.392 691.534, 495.334 717.367, 511.301 748.217 C 515.205 755.761, 518.197 762.089, 517.950 762.279 C 517.702 762.469, 511.857 765.368, 504.960 768.721 C 489.551 776.212, 483.007 781.693, 480.056 789.580 C 477.578 796.204, 477.464 800.041, 479.621 804.300 C 483.524 812.009, 486 812.439, 486 805.409 C 486 799.200, 488.010 795.003, 493.050 790.689 C 500.164 784.600, 502.123 786.962, 496.608 794.979 C 492.536 800.899, 491.416 805.370, 492.673 810.686 C 493.729 815.153, 496.687 816.322, 509.893 817.491 C 518.045 818.212, 518.172 818.189, 517.095 816.178 C 512.502 807.596, 521.714 788.643, 529.728 790.186 C 532.118 790.646, 532.536 793.694, 530.307 794.407 C 525.580 795.920, 521.078 807.678, 522.999 813.497 L 524.155 817 534.704 817 C 557.758 817, 578.686 808.738, 586.849 796.414 C 592.482 787.910, 593.170 783.961, 593.537 758 C 593.719 745.075, 594.132 732.425, 594.455 729.889 C 595.170 724.261, 594.377 723.474, 587 722.490 C 552.889 717.940, 518.470 694.865, 504.603 667.250 C 503.153 664.362, 501.786 662, 501.565 662 C 501.344 662, 500.233 664.813, 499.095 668.250 M 872 727.013 C 864.258 731.204, 859.073 737.291, 853.103 749.199 C 848.137 759.103, 840.044 783.681, 840.014 788.950 C 839.993 792.684, 838.626 790.527, 834.293 779.920 C 832.141 774.651, 828.175 767.001, 825.480 762.920 C 820.508 755.390, 806.329 740, 804.364 740 C 799.105 740, 812.883 801.388, 821.366 815.750 C 827.154 825.549, 827.837 821.816, 823.362 804.832 C 821.431 797.499, 818.525 786.325, 816.906 780 C 815.286 773.675, 813.033 765.686, 811.898 762.247 C 808.998 753.459, 809.869 752.790, 815.343 759.600 C 821.949 767.816, 828.019 780.867, 838.360 809.087 C 841.340 817.218, 842.874 818.386, 842.843 812.500 C 842.792 802.823, 849.766 772.413, 855.079 759.143 C 858.917 749.558, 866.177 738.632, 870.790 735.497 C 875.347 732.400, 875.434 732.537, 873.537 739.858 C 870.573 751.295, 864.076 787.946, 862.077 804.500 C 861.546 808.900, 860.794 814.472, 860.407 816.883 C 859.284 823.867, 861.581 821.691, 867.706 809.969 C 876.422 793.291, 882.247 785.937, 893.327 777.622 C 899.870 772.711, 901.935 772.758, 898.972 777.750 C 890.860 791.416, 877.207 817.163, 875.487 822.037 C 874.113 825.932, 874.130 826, 876.455 826 C 879.287 826, 881.935 822.003, 896.985 795 C 902.656 784.825, 907.937 775.517, 908.721 774.315 C 911.258 770.423, 910.036 766.551, 906.155 766.180 C 897.475 765.348, 884.367 774.864, 874.152 789.413 C 871.674 792.942, 870 794.599, 870 793.524 C 870 787.329, 878.502 745.454, 881.451 737.124 C 884.148 729.505, 883.135 723.970, 879.050 724.018 C 878.197 724.028, 875.025 725.376, 872 727.013 M 400 775.966 C 372.425 781.720, 350.089 792.246, 343.893 802.407 C 339.288 809.960, 342.947 821.268, 352.202 828.083 C 362.033 835.324, 380.772 842.124, 401.500 845.974 C 426.821 850.678, 435.988 852.051, 472 856.539 C 490.746 858.875, 504.339 862.257, 516.963 867.727 L 521.427 869.661 517.307 873.699 C 493.830 896.711, 533.099 913.402, 622.500 918.411 C 628 918.719, 637.225 919.246, 643 919.581 C 661.193 920.639, 713.984 917.884, 722.750 915.420 C 729.854 913.423, 729.574 911.744, 722.250 912.415 C 711.194 913.429, 637.347 913.177, 620 912.067 C 568.683 908.783, 532.609 900.956, 520.037 890.378 C 515.721 886.746, 516.205 884.655, 523 877.579 C 526.300 874.142, 529 870.876, 529 870.320 C 529 864.845, 501.876 854.989, 476 851.063 C 471.875 850.437, 464.900 849.305, 460.500 848.548 C 456.100 847.790, 448.450 846.644, 443.500 846.001 C 407.458 841.317, 375.004 833.375, 363.373 826.392 C 348.140 817.246, 345.239 809.646, 353.750 801.179 C 362.913 792.062, 379.522 785.288, 405.816 779.946 C 420.955 776.869, 422.374 776.414, 421.457 774.931 C 420.557 773.474, 409.350 774.015, 400 775.966 M 157.366 794.919 C 153.006 797.577, 146 807.438, 146 810.915 C 146 815.151, 170.363 817.037, 174.294 813.106 C 175.593 811.807, 170.121 800.455, 166.168 796.250 C 162.623 792.479, 161.617 792.326, 157.366 794.919 M 783.140 818.147 C 778.390 819.514, 779.416 819.937, 791.265 821.492 C 797.031 822.249, 803.449 823.578, 805.527 824.447 C 810.260 826.425, 811.039 825.748, 807.921 822.367 C 803.257 817.310, 792.446 815.469, 783.140 818.147 M 143.511 818.982 C 142.121 821.231, 141.278 837.501, 142.148 845.279 C 143.855 860.531, 149.737 867.510, 160.263 866.774 C 172.782 865.898, 178 856.071, 178 833.372 C 178 818.537, 178.436 819.236, 169.911 820.414 C 163.270 821.332, 150.556 820.321, 145.851 818.501 C 144.944 818.151, 143.891 818.367, 143.511 818.982 M 897.313 824.169 C 894.483 824.929, 889.373 829.706, 890.347 830.681 C 890.554 830.887, 892.023 830.548, 893.611 829.926 C 895.200 829.305, 900.775 828.474, 906 828.080 L 915.500 827.364 912 825.813 C 907.427 823.786, 901.296 823.100, 897.313 824.169 M 237 828.933 C 237 830.264, 238.432 830.594, 258.731 833.947 C 303.622 841.361, 327.375 849.436, 334.041 859.548 C 341.065 870.204, 327.441 885.949, 300.380 898.451 C 285.458 905.345, 284.421 906.545, 296.075 903.433 C 326.142 895.405, 346.762 873.946, 339.374 858.375 C 333.401 845.789, 302.547 834.419, 263.500 830.416 C 260.750 830.134, 254.912 829.475, 250.526 828.952 C 240.493 827.754, 237 827.749, 237 828.933 M 85.022 850.144 C 77.846 851.330, 63.914 858.126, 60.609 862.053 C 56.959 866.391, 56.471 869.328, 58.515 874.677 C 63.757 888.403, 82.893 897.675, 118 903.497 C 130.038 905.494, 180.494 904.839, 182.675 902.658 C 184 901.333, 182.178 901.092, 169.700 900.941 C 125.529 900.405, 98.603 896.480, 80.529 887.940 C 66.084 881.115, 59.249 870.660, 65.286 864.623 C 69.463 860.446, 80.627 854.999, 89.408 852.853 C 94.172 851.689, 97.941 850.630, 97.785 850.501 C 96.683 849.589, 89.582 849.391, 85.022 850.144 M 222.250 849.703 C 219.478 850.732, 221.343 851.833, 227.750 852.950 C 241.134 855.283, 255.819 862.022, 259.388 867.469 C 264.687 875.556, 257.978 882.543, 237.250 890.524 C 228.632 893.843, 227.789 895.548, 235.250 894.568 C 263.493 890.861, 275.962 870.810, 257.361 859.014 C 249.705 854.159, 226.689 848.055, 222.250 849.703 M 106 864.175 C 95.911 867.043, 96.863 873.991, 108.012 878.863 C 129.782 888.377, 193.185 889.584, 210.816 880.821 C 221.597 875.462, 215.920 862.882, 202.800 863.058 L 198.500 863.115 203.500 865.422 C 208.980 867.949, 213.580 872.253, 212.563 873.899 C 212.207 874.475, 209.122 875.808, 205.708 876.862 C 182.946 883.886, 123.288 881.472, 108.054 872.910 L 103.946 870.601 108.223 866.843 C 112.605 862.993, 112.137 862.431, 106 864.175 M 425 882.460 C 425 882.713, 427.289 885.061, 430.087 887.678 C 441.428 898.287, 440.494 907.310, 427.221 915.361 C 400.588 931.515, 335.044 942.520, 258.500 943.690 C 238.150 944.001, 221.349 944.386, 221.164 944.546 C 218.253 947.076, 256.563 949.547, 283.715 948.581 C 331.297 946.889, 390.056 936.959, 417.898 925.905 C 437.933 917.950, 446.639 905.823, 440.630 894.241 C 438.149 889.459, 425 879.548, 425 882.460" stroke="none" fill="#1a1a1a" fill-rule="evenodd"/>
</svg>