<svg xmlns="http://www.w3.org/2000/svg" width="1024" height="1024" viewBox="0 0 1024 1024" version="1.1">
	<path d="M 541 100.699 C 505.691 104.519, 469.084 118.412, 443.790 137.593 L 438.079 141.923 433.290 139.711 C 429.069 137.763, 426.895 137.507, 415 137.559 C 390.768 137.665, 380.432 143.678, 343.346 179.240 C 322.782 198.959, 321.421 199.984, 298.500 213.041 C 275.721 226.017, 270.303 229.861, 260.874 239.733 C 247.776 253.448, 241.807 269.114, 241.720 290 C 241.560 328.439, 268.631 359.088, 314 371.832 C 322.662 374.265, 325.044 374.498, 341 374.480 C 360.515 374.457, 371.429 372.316, 384.120 366.019 C 391.414 362.400, 391 362.439, 391 365.372 C 391 369.664, 395.704 386.391, 398.882 393.401 C 406.926 411.141, 422.961 429.662, 439.926 440.807 L 449.351 447 438.384 447 C 419.619 447, 394.281 451.074, 375.210 457.156 C 338.327 468.921, 310.530 495.039, 298.467 529.264 C 296.059 536.096, 295.153 537.451, 290.912 540.565 C 284.146 545.531, 274.165 556.601, 269.848 563.927 L 266.196 570.123 263.617 566.743 C 254.119 554.290, 249.932 537.009, 249.129 506.955 C 248.330 477.053, 247.597 475.434, 236.770 479.671 C 226.242 483.792, 218.574 491.967, 210.856 507.297 C 191.503 545.738, 195.233 587.645, 221.060 621.919 C 246.759 656.024, 301.871 680.468, 355.444 681.523 L 371.388 681.837 373 687.728 C 373.887 690.968, 375.659 696.196, 376.937 699.345 C 378.216 702.495, 379.090 705.177, 378.881 705.305 C 378.671 705.433, 374.877 707.264, 370.450 709.372 L 362.399 713.206 348.471 709.510 C 331.499 705.007, 330.303 704.414, 321.439 696.113 C 300.474 676.478, 279.413 673.571, 258.948 687.487 C 249.522 693.897, 244.012 701.355, 227.911 729.500 C 197.398 782.836, 193.608 793.044, 197.499 811.412 C 202.177 833.494, 214.080 844.964, 233.189 845.803 C 253.471 846.693, 269.813 839.944, 286.869 823.634 C 292.032 818.697, 303.408 805.200, 304.144 803.139 C 304.340 802.591, 308.080 803.893, 312.457 806.032 C 349.200 823.995, 389.930 822.953, 430.500 803.010 C 443.299 796.719, 466.689 781.974, 467.589 779.629 C 468.017 778.513, 470.441 779.147, 479.214 782.673 C 498.844 790.564, 503.124 794.453, 514.499 814.737 C 523.785 831.296, 536.882 861.466, 543.482 881.500 C 546.925 891.950, 550.752 902.642, 551.986 905.261 C 560.981 924.342, 588.571 928.624, 620.519 915.899 C 659.003 900.571, 703.791 868.293, 714.226 848.366 C 725.068 827.662, 718.467 807.504, 697.583 797.533 C 677.840 788.107, 658.482 790.707, 633.250 806.171 L 630 808.163 630 804.252 C 630 799.395, 624.414 778.826, 619.476 765.500 C 611.685 744.477, 600.987 725.245, 591.351 714.945 L 586.754 710.030 594.867 701.459 C 608.475 687.084, 621.946 664.708, 630.799 641.775 C 635.208 630.355, 641 611.647, 641 608.825 C 641 606.448, 641.183 606.477, 648.377 609.990 C 676.820 623.882, 729.207 612.686, 757.226 586.727 C 760.784 583.430, 761.367 583.250, 770.226 582.727 C 781.014 582.089, 788.700 579.965, 792.847 576.475 C 794.465 575.114, 796.849 573.996, 798.144 573.990 C 802.050 573.974, 811.225 569.152, 815.833 564.693 C 825.727 555.118, 828.553 540.845, 822.127 532.909 C 820.312 530.668, 820.329 530.551, 823.065 526.236 C 830.128 515.100, 825.353 499.302, 813.024 493.012 C 809.568 491.249, 809.224 490.686, 808.779 486.052 C 806.995 467.488, 781.910 458.696, 764 470.356 C 761.029 472.290, 759.895 472.500, 756.500 471.745 C 740.065 468.087, 725.443 478.476, 715.263 501.046 C 712.840 506.418, 711.430 508.157, 707.402 510.742 C 700.364 515.259, 691.481 518.997, 684.121 520.541 L 677.742 521.878 669.621 513.651 C 665.154 509.125, 656.212 500.569, 649.750 494.635 C 637.708 483.580, 636.494 482, 640.042 482 C 648.442 482, 676.542 473.284, 695.019 464.948 C 736.443 446.257, 763.581 418.178, 772.096 385.198 C 775.514 371.959, 774.381 345.024, 769.913 333.271 C 768.637 329.915, 768.584 329.931, 775.508 331.559 C 794.105 335.934, 814.246 328.858, 831.045 312.050 C 850.017 293.069, 859.152 273.592, 857.569 255.500 C 855.518 232.056, 845.873 219.297, 820.249 206.128 C 799.322 195.373, 796.302 192.820, 768 161.952 C 746.539 138.546, 733.973 129.178, 716.243 123.366 C 705.532 119.855, 683.037 119.235, 675.315 122.238 L 671.130 123.866 662.844 119.804 C 643.580 110.362, 615.042 103.213, 588.050 101.069 C 575.420 100.065, 548.792 99.856, 541 100.699 M 539.571 112.099 C 518.397 114.693, 494.661 121.620, 477.524 130.206 C 467.367 135.295, 447.974 147.520, 448.032 148.797 C 448.049 149.184, 449.593 151.022, 451.463 152.882 C 456.441 157.835, 459.786 164.530, 458.390 166.747 C 456.181 170.253, 454.022 169.289, 446.813 161.576 C 437.470 151.580, 429.873 147.652, 418.910 147.150 C 398.486 146.215, 386.615 153.185, 352.092 186.383 C 332.465 205.257, 324.576 211.150, 304.964 221.589 C 280.706 234.502, 276.814 237.021, 268.914 244.917 C 242.283 271.537, 245.862 318.515, 276.388 343.029 C 295.531 358.402, 322.406 367.098, 346.426 365.692 C 385.785 363.388, 407.335 344.619, 424.721 297.500 C 430.159 282.763, 432.789 271.739, 437.486 244 C 440.713 224.943, 444.102 207.697, 445.574 202.842 C 446.976 198.215, 454 200.875, 454 206.034 C 454 207.677, 453.127 212.954, 452.060 217.761 C 450.994 222.567, 448.275 237.075, 446.019 250 C 437.314 299.875, 425.412 329.411, 405.918 349.517 L 399.115 356.533 401.499 367.791 C 410.111 408.456, 437.765 436.042, 485.951 452.037 C 492.303 454.145, 500.425 456.434, 504 457.123 C 507.575 457.812, 511.085 458.816, 511.801 459.352 C 513.542 460.660, 512.918 465.036, 510.802 466.362 C 508.560 467.765, 497.926 465.953, 487.963 462.471 C 478.117 459.030, 462.064 457.095, 443 457.051 C 384.601 456.919, 342.025 475.348, 318.022 511.148 C 312.907 518.778, 310.463 524.042, 304.886 539.447 C 303.852 542.303, 301.987 544.414, 298.138 547.082 C 271.165 565.785, 264.152 595.247, 281.936 615.148 L 285.825 619.500 285.296 613.497 C 284.707 606.814, 286.786 600, 289.414 600 C 291.729 600, 292.677 602.763, 293.291 611.294 C 294.555 628.848, 305.589 641.012, 314.041 634.168 C 315.946 632.626, 316.320 631.311, 316.402 625.872 C 316.544 616.534, 320.767 611.167, 324.800 615.200 C 326.278 616.678, 326.446 634.298, 325.008 636.986 C 323.541 639.726, 331.162 642.496, 337.953 641.692 C 350.626 640.191, 355.514 632.889, 356.824 613.500 L 357.500 603.500 360.490 603.500 C 364.032 603.500, 364.695 605.459, 364.882 616.482 L 365 623.464 367.618 619.611 C 375.288 608.325, 375.843 591.889, 368.949 580.193 C 366.265 575.638, 366.431 574.779, 371.026 569.470 C 373.240 566.911, 375.911 563.135, 376.960 561.078 C 379.870 555.374, 390.494 546.139, 398.476 542.373 C 411.577 536.193, 432.158 534.460, 456.538 537.483 C 470.744 539.245, 473.288 540.952, 469.211 545.988 C 467.474 548.133, 467.145 548.167, 457.961 547.137 C 437.652 544.861, 438.559 544.831, 437.276 547.822 C 436.645 549.295, 434.349 554.665, 432.174 559.756 C 427.417 570.894, 422.738 578.892, 412.435 593.500 C 392.315 622.026, 385.624 634.178, 381.882 648.988 C 376.635 669.753, 382.999 694.710, 398.902 715.739 C 414.802 736.765, 447.368 759.261, 481 772.453 C 507.739 782.942, 514.444 789.791, 530.975 823.500 C 541.117 844.181, 546.443 857.183, 554.011 879.738 C 561.565 902.249, 563.121 905.491, 567.936 908.736 C 572.722 911.961, 577.341 912.988, 587.090 912.994 C 603.200 913.005, 618.419 907.173, 651.685 888.244 C 666.098 880.042, 666.843 879.467, 666.338 876.940 C 666.038 875.441, 666.504 872.927, 667.403 871.188 C 672.260 861.796, 665.511 845.023, 653.909 837.652 C 648.242 834.051, 651.292 828.621, 657.363 831.502 C 661.885 833.648, 671.131 843.376, 674.008 849.015 C 677.028 854.936, 677.757 864.251, 675.604 869.406 C 674.707 871.551, 674.092 873.424, 674.237 873.566 C 675.199 874.515, 692.524 859.257, 692.211 857.737 C 692.012 856.767, 692.614 853.668, 693.550 850.849 C 698.327 836.468, 692.553 824.370, 676.940 816.049 C 670.893 812.826, 669.228 810.635, 671.105 808.373 C 675.781 802.740, 697.476 817.144, 701.324 828.437 C 702.246 831.142, 703.038 836.539, 703.083 840.428 L 703.167 847.500 705.685 842.171 C 715.305 821.817, 701.897 803.798, 676 802.278 C 669.023 801.869, 666.364 802.165, 661.158 803.931 C 651.172 807.320, 631.367 817.254, 621.318 823.914 C 611.305 830.551, 610.844 830.721, 608.975 828.470 C 606.885 825.952, 609.273 822.500, 617.005 816.858 C 623.281 812.279, 623.897 811.540, 622.633 810.108 C 621.852 809.224, 620.212 804.467, 618.989 799.538 C 610.084 763.664, 594.790 732.617, 577.570 715.459 C 563.787 701.725, 537.640 684.222, 520.069 676.967 C 511.722 673.521, 510.328 672.125, 512.039 668.928 C 514.085 665.104, 523.060 667.322, 539.132 675.622 C 549.451 680.952, 567.600 692.805, 575.254 699.212 L 580.297 703.435 587.603 695.690 C 607.635 674.455, 625.518 637.070, 632.899 601 C 640.195 565.344, 637.966 532.330, 625.833 496.368 L 621.741 484.236 606.620 483.825 C 590.026 483.375, 583.810 481.673, 583.202 477.412 C 582.689 473.827, 584.817 473.095, 593 474.043 C 630.926 478.437, 670.132 469.249, 707.113 447.300 C 735.753 430.301, 754.212 408.227, 760.879 383 C 766.659 361.135, 763.862 344.205, 749.480 314 C 740.502 295.145, 740.977 297.896, 740.586 262.500 C 740.172 225.006, 738.344 214.293, 728.918 194.111 C 709.466 152.464, 664.137 122.848, 605.500 113.477 C 593.444 111.550, 551.248 110.668, 539.571 112.099 M 683.145 130.479 C 683.409 130.742, 686.521 132.829, 690.060 135.117 C 711.245 148.810, 728.943 168.733, 738.912 190.113 C 748.720 211.145, 750.966 224.194, 751.892 265.500 L 752.587 296.500 758.039 307.286 L 763.491 318.071 769.735 320 C 793.964 327.483, 818.162 316.480, 835.493 290.099 C 843.998 277.151, 845.500 272.401, 845.500 258.447 C 845.500 246.528, 845.458 246.308, 841.741 238.789 C 836.522 228.231, 830.652 223.162, 813.920 214.765 C 794.320 204.929, 786.113 198.281, 765.821 175.802 C 739.982 147.178, 725.280 136.190, 706.540 131.494 C 701.165 130.147, 681.981 129.315, 683.145 130.479 M 682.400 190.428 C 678.787 192.001, 677.938 193.627, 679.099 196.750 C 679.879 198.847, 680.535 199.001, 688.718 199.022 C 698.828 199.047, 703.407 200.662, 709.837 206.472 C 714.971 211.110, 719.308 211.180, 719.828 206.632 C 720.296 202.538, 711.419 194.049, 703.618 191.130 C 697.053 188.674, 687.180 188.347, 682.400 190.428 M 535.024 195.541 C 524.105 198.599, 513.594 207.335, 506.750 219.041 C 502.901 225.624, 502.089 229.689, 504.200 231.800 C 506.461 234.061, 508.951 233.039, 511.633 228.750 C 516.413 221.109, 521.675 215.551, 528.740 210.679 C 535.509 206.012, 535.920 205.875, 544.925 205.292 C 554.423 204.677, 557 203.565, 557 200.084 C 557 195.013, 545.441 192.624, 535.024 195.541 M 691.900 264.991 C 680.961 270.773, 677.100 285.212, 682.930 298.533 C 689.040 312.493, 709.755 312.770, 717.145 298.991 C 721.793 290.324, 717.863 276.282, 707.563 264.750 C 705.405 262.334, 696.673 262.468, 691.900 264.991 M 543.444 275.886 C 528.913 282.486, 524.193 305.076, 534.517 318.611 C 540.664 326.671, 554.623 330.148, 563.014 325.711 C 571.249 321.356, 573.500 317.254, 573.500 306.600 C 573.500 297.935, 573.271 296.923, 569.619 289.446 C 562.350 274.566, 554.876 270.694, 543.444 275.886 M 653.978 312.975 C 640.585 314.704, 618 325.339, 618 329.917 C 618 330.474, 618.922 331.423, 620.049 332.026 C 621.753 332.938, 623.816 332.273, 632.299 328.081 C 645.950 321.335, 653.580 319.630, 667 320.329 C 689.088 321.479, 713.804 332.230, 718.797 342.858 C 722.087 349.862, 727.379 347.709, 724.952 340.354 C 721.078 328.615, 696.005 315.458, 672.863 313.021 C 662.599 311.940, 662.009 311.938, 653.978 312.975 M 652.803 329.399 C 646.442 331.112, 640.577 335.171, 637.291 340.136 C 628.582 353.297, 642.184 377.942, 658.187 377.994 C 660.276 378.001, 660.782 382.026, 659.789 390.749 C 657.674 409.330, 650.918 416.444, 632.306 419.688 C 616.895 422.374, 605.942 418.908, 594.179 407.621 C 586.679 400.425, 584.584 396.933, 584.536 391.544 C 584.496 387.149, 580.038 383, 575.355 383 C 570.075 383, 561.284 394.227, 564.001 397.501 C 565.897 399.786, 571 399.473, 571 397.071 C 571 395.064, 573.460 392, 575.071 392 C 575.582 392, 576 392.918, 576 394.040 C 576 397.130, 579.421 403.201, 584.816 409.683 C 587.482 412.887, 589.464 416.107, 589.220 416.839 C 588.256 419.733, 599.336 439.292, 605.500 445.575 C 613.997 454.237, 619.884 456.443, 634.500 456.443 C 648.228 456.443, 654.953 454.143, 662.091 447.004 C 666.885 442.210, 675 427.318, 675 423.314 C 675 421.451, 675.835 421.213, 684.654 420.565 C 701.685 419.315, 710.411 413.744, 717.250 399.752 C 720.570 392.959, 720.691 390.597, 717.818 388.585 C 715.344 386.852, 713 388.011, 713 390.967 C 713 393.077, 706.179 403.681, 702.880 406.701 C 695.834 413.151, 681.828 415.066, 670.592 411.117 C 663.524 408.632, 663.570 408.672, 664.898 406.191 C 666.603 403.005, 669.018 385.968, 668.354 381.812 C 667.747 378.015, 667.758 378, 671.191 378 C 680.571 378, 690.782 372.935, 694.627 366.373 C 701.747 354.224, 697.765 337.913, 686.358 332.500 C 678.694 328.863, 660.903 327.219, 652.803 329.399 M 648 424.089 C 637.024 429.730, 616.359 430.526, 605.750 425.717 C 602.587 424.283, 600 423.288, 600 423.505 C 600 424.525, 606.054 434.694, 608.445 437.691 C 618.190 449.904, 641.264 452.753, 653.818 443.294 C 660.050 438.599, 660.027 432.152, 653.752 424.895 L 651.500 422.291 648 424.089 M 779.500 475.660 C 778.400 475.919, 776.033 476.587, 774.241 477.146 L 770.982 478.161 774.437 482.197 C 778.110 486.488, 781 493.525, 781 498.178 C 781 501.735, 781.025 501.732, 786.741 497.366 C 789.359 495.367, 793.005 493.014, 794.844 492.136 C 797.878 490.688, 798.136 490.228, 797.639 487.164 C 796.305 478.943, 787.983 473.665, 779.500 475.660 M 743.173 482.269 C 735.461 484.737, 730.189 491.465, 721.965 509.335 C 718.006 517.936, 704.471 525.429, 686.121 529.178 C 674.282 531.596, 672.381 531.156, 666.803 524.704 C 664.329 521.842, 656.431 513.979, 649.252 507.230 L 636.200 494.961 638.498 502.230 C 646.234 526.704, 648.764 556.433, 645.491 584.414 C 644.661 591.509, 644.098 597.403, 644.241 597.511 C 668.251 615.684, 727.531 605.262, 751.692 578.622 L 755.883 574 763.610 574 C 767.859 574, 774.208 573.500, 777.718 572.889 L 784.100 571.777 780.043 568.305 C 772.455 561.810, 767.494 549.093, 769.988 542.531 C 770.894 540.149, 770.651 539.366, 768.102 536.464 C 766.493 534.631, 764.881 532.202, 764.521 531.066 C 763.426 527.616, 758.001 528.185, 757.996 531.750 C 757.986 539.168, 742.662 551.116, 739.571 546.115 C 738.540 544.446, 741.163 539.083, 743.334 538.423 C 746.620 537.423, 748.805 535.121, 750.050 531.348 C 751.110 528.136, 750.964 527.702, 747.543 523.916 C 743.057 518.950, 741.514 515.290, 743.101 513.378 C 744.905 511.204, 747.163 511.752, 751.891 515.510 C 758.876 521.063, 764.651 519.525, 769.028 510.945 C 777.567 494.207, 761.512 476.400, 743.173 482.269 M 230.896 496.013 C 218.709 508.993, 209.521 535.812, 209.659 558 C 210.032 617.900, 268.911 665.190, 350.388 671.031 C 370.584 672.479, 369.936 672.765, 369.851 662.429 L 369.781 654 362.140 653.956 C 357.938 653.932, 352.743 653.286, 350.595 652.521 C 347.520 651.425, 345.545 651.359, 341.295 652.213 C 333.766 653.725, 326.014 651.911, 321.124 647.493 C 317.601 644.310, 317.267 644.216, 312.975 645.196 C 304.596 647.108, 294.231 641.800, 290.969 633.925 C 290.106 631.841, 288.243 630.190, 285.102 628.724 C 271.417 622.340, 260.423 601.949, 262.445 586.704 C 263.053 582.120, 262.893 581.686, 258.944 577.200 C 244.508 560.806, 238 538.456, 238 505.276 C 238 488.819, 237.842 488.613, 230.896 496.013 M 792.744 504.277 C 789.579 506.600, 786.291 509.512, 785.438 510.750 C 784.564 512.017, 782.848 513, 781.511 513 C 780.044 513, 778.901 513.737, 778.524 514.924 C 778.188 515.983, 776.805 518.482, 775.451 520.477 C 765.371 535.331, 801.416 538.121, 812.675 523.359 C 819.415 514.523, 812.435 499.929, 801.516 500.027 C 799.576 500.044, 796.447 501.561, 792.744 504.277 M 807 539.428 C 802.546 541.829, 792.965 543.255, 785.935 542.562 C 778.573 541.837, 778 542.239, 778 548.122 C 778 555.071, 784.263 562.193, 791.591 563.579 C 803.156 565.765, 818.011 550.684, 813.950 540.879 C 812.647 537.734, 810.841 537.357, 807 539.428 M 414 547.126 C 401.613 549.135, 389.105 558.211, 383.589 569.195 C 382.016 572.327, 380.078 575.140, 379.283 575.445 C 378.076 575.908, 378.164 576.538, 379.814 579.250 C 385.425 588.471, 385.436 606.357, 379.839 618.088 C 375.926 626.290, 369.655 633.410, 364.419 635.598 C 362.538 636.384, 361 637.436, 361 637.937 C 361 638.437, 359.835 640.231, 358.411 641.923 L 355.822 645 359.661 645.198 C 372.498 645.861, 371.733 646.117, 373.539 640.542 C 377.969 626.869, 386.082 612.796, 402.964 589.500 C 414.516 573.559, 419.191 566.031, 423.996 555.629 C 426.198 550.863, 428 546.747, 428 546.482 C 428 545.758, 420.228 546.116, 414 547.126 M 873.113 694.518 C 857.445 711.012, 843.595 748.829, 840.026 784.856 C 839.462 790.552, 838.963 795.502, 838.918 795.856 C 838.873 796.210, 837.745 790.737, 836.410 783.693 C 831.191 756.152, 821.272 736.250, 803.046 716.750 C 795.651 708.838, 792.606 707.360, 790.047 710.444 C 789.090 711.597, 789.766 714.368, 793.404 724.194 C 798.295 737.406, 801.684 748.291, 804.411 759.553 C 806.909 769.869, 811.850 802.726, 810.582 800.597 C 800.250 783.237, 789.320 774.532, 768.895 767.396 C 760.413 764.432, 757.414 764.357, 755.961 767.072 C 754.634 769.552, 754.601 769.500, 765.359 781.630 C 775.724 793.316, 784.963 807.393, 789.557 818.500 C 792.588 825.828, 801 849.515, 801 850.722 C 801 850.896, 799.987 850.803, 798.750 850.516 C 794.425 849.512, 746.436 848.294, 739.176 849.003 C 730.977 849.805, 727.732 851.764, 729.623 854.769 C 730.589 856.303, 733.488 856.573, 755.107 857.140 C 801.588 858.361, 842.863 863.416, 906.500 875.685 C 941.071 882.350, 945.362 882.692, 945.810 878.817 C 946.017 877.021, 945.522 875.823, 944.310 875.192 C 941.776 873.873, 919.781 868.541, 905.772 865.850 L 894.044 863.597 898.093 856.048 C 902.146 848.492, 908.893 838.283, 926.543 813 C 935.807 799.729, 937.187 796.587, 934.800 794.200 C 930.818 790.218, 911.227 801.398, 899.212 814.510 L 893.180 821.093 897.061 809.796 C 899.196 803.583, 905.687 789.050, 911.486 777.500 C 923.392 753.788, 924.435 749, 917.695 749 C 906.284 749, 884.521 773.110, 875.270 796 C 872.936 801.775, 871.020 805.813, 871.013 804.973 C 871.006 804.132, 872.566 788.157, 874.480 769.473 C 878.035 734.766, 880.192 720.480, 884.654 702.094 C 888.921 684.507, 885.042 681.960, 873.113 694.518 M 278.618 689.112 C 271.916 690.686, 263.125 696.096, 257.708 701.982 C 251.036 709.230, 217.663 767.444, 211.424 782.716 C 205.197 797.958, 205.398 810.299, 211.950 814.964 C 220.539 821.081, 240.730 817.196, 248.115 808.006 C 253.153 801.738, 257.430 803.137, 255.072 810.281 C 253.556 814.874, 248.668 819.346, 241.500 822.696 C 236.062 825.237, 234.493 825.495, 224.753 825.449 L 214.006 825.397 216.753 828.290 C 222.343 834.177, 226.375 835.505, 238.500 835.450 C 258.159 835.362, 272.215 827.472, 289.575 806.782 L 297.160 797.741 291.042 791.642 C 284.980 785.599, 283.239 782.426, 284.369 779.480 C 285.714 775.976, 288.077 776.830, 294.933 783.298 C 322.535 809.336, 372.487 816.895, 412.339 801.064 C 424.354 796.291, 433.466 791.444, 446.848 782.706 L 459.196 774.644 455.348 772.701 C 428.413 759.103, 399.517 735.923, 387.658 718.401 L 382.854 711.303 374.863 716.651 C 364.954 723.284, 362.659 723.419, 344.509 718.445 C 326.940 713.629, 324.033 712.179, 315.082 703.764 C 301.915 691.385, 289.753 686.498, 278.618 689.112 M 872.756 707.208 C 865.393 718.361, 859.310 733.084, 854.450 751.517 C 848.986 772.235, 846.963 790.218, 845.396 832 C 844.734 849.624, 844.212 852, 841 852 C 837.705 852, 836.892 849.158, 834.947 830.833 C 830.021 784.436, 824.917 763.589, 813.637 743.795 C 809.039 735.728, 802.199 726.089, 803.492 729.500 C 810.303 747.468, 813.407 760.762, 818.531 793.891 C 825.501 838.952, 825.888 847, 821.087 847 C 818.366 847, 817.514 845.397, 815.160 835.839 C 807.941 806.534, 796.284 788.703, 778.500 779.762 C 770.760 775.870, 770.318 776.496, 776.265 782.919 C 783.436 790.665, 788.560 798.171, 793.816 808.630 C 798.181 817.315, 807.991 845.039, 807.997 848.705 C 808 851.233, 807.405 851.093, 828.500 853.508 C 836.200 854.390, 849.675 856.211, 858.445 857.556 C 867.214 858.900, 874.495 860, 874.624 860 C 874.753 860, 875.371 857.413, 875.997 854.250 C 880.469 831.672, 891.168 800.462, 901.795 779 C 906.560 769.375, 910.636 761.050, 910.851 760.500 C 911.799 758.078, 900.290 770.223, 894.916 777.316 C 885.199 790.140, 879.989 802.465, 872.042 831.430 C 867.602 847.614, 866.924 849, 863.445 849 C 860.066 849, 859.783 846.847, 860.986 830.316 C 864.982 775.435, 870.996 724.627, 875.459 708.047 C 877.369 700.949, 876.970 700.825, 872.756 707.208 M 915.360 810.318 C 902.513 819.786, 890.119 837.723, 883.861 855.907 C 881.582 862.528, 881.543 862, 884.307 862 C 886.185 862, 887.253 860.658, 890.057 854.780 C 893.320 847.938, 907.595 825.851, 917.545 812.250 C 922.979 804.823, 922.906 804.758, 915.360 810.318 M 134.500 832.598 C 91.099 836.481, 81.170 838.790, 83.358 844.490 C 83.916 845.946, 84.854 846.156, 88.767 845.701 C 130.383 840.859, 172.800 837.381, 178.655 838.332 C 180.558 838.640, 182.764 838.644, 183.558 838.339 C 185.521 837.586, 185.413 832.373, 183.418 831.607 C 180.718 830.571, 150.258 831.188, 134.500 832.598 M 417.500 847.671 C 293.580 850.276, 127.437 867.245, 114.916 878.576 C 110.203 882.841, 114 885.885, 121.263 883.665 C 143.806 876.775, 211.199 868.717, 306.500 861.516 C 346.241 858.514, 407.410 856.032, 458.763 855.338 C 511.175 854.630, 510.521 854.701, 509.827 849.805 L 509.500 847.500 469.500 847.459 C 447.500 847.437, 424.100 847.532, 417.500 847.671 M 328.500 897.171 C 310.848 899.178, 304 901.384, 304 905.063 C 304 908.075, 305.326 908.146, 320.202 905.927 C 328.066 904.754, 341.245 903.504, 349.489 903.148 C 362.827 902.571, 364.515 902.302, 364.821 900.702 C 365.599 896.633, 363.471 895.993, 349.628 896.131 C 342.407 896.203, 332.900 896.671, 328.500 897.171 M 371.004 909.742 C 366.629 910.269, 364.818 911.727, 365.202 914.412 C 365.493 916.453, 365.976 916.500, 386.500 916.519 C 398.050 916.530, 413.901 916.934, 421.725 917.417 C 434.917 918.232, 435.999 918.166, 436.634 916.512 C 438.159 912.536, 435.900 911.556, 422.393 910.332 C 410.076 909.216, 378.378 908.852, 371.004 909.742 M 827.583 911.645 C 826.316 914.947, 829.125 916.048, 838.942 916.094 C 848.594 916.140, 850.436 915.508, 849.832 912.356 C 849.310 909.632, 828.609 908.970, 827.583 911.645 M 758.240 918.418 C 750.610 919.681, 748.368 920.910, 749.293 923.321 C 749.749 924.510, 753.859 924.880, 771.676 925.336 C 783.679 925.643, 794.625 926.030, 796 926.197 C 798.641 926.517, 800.214 922.814, 798.266 920.866 C 795.179 917.779, 771.020 916.301, 758.240 918.418" stroke="none" fill="#1a1a1a" fill-rule="evenodd"/>
</svg>