<svg xmlns="http://www.w3.org/2000/svg" width="1024" height="1024" viewBox="0 0 1024 1024" version="1.1">
	<path d="M 474 40.564 C 449.507 44.033, 432.731 49.200, 412.177 59.607 L 399.854 65.846 396.285 63.741 C 388.449 59.117, 369.233 62.359, 355.236 70.667 C 335.441 82.415, 314.993 107.375, 298.521 139.894 C 289.057 158.578, 283.574 166.979, 272.287 180.087 C 245.644 211.028, 236.427 231.820, 239.990 252.942 C 244.307 278.538, 267.741 296.909, 296.168 296.983 C 306.090 297.008, 306 296.925, 306 306.149 C 306 339.683, 327.006 368.710, 364.873 387.500 C 382.924 396.458, 408.165 404.650, 428.187 408.048 C 434.652 409.146, 434.839 409.259, 433.830 411.473 C 431.524 416.534, 394.553 443.568, 380.500 450.468 C 364.070 458.536, 342.822 463.055, 310.500 465.355 C 288.766 466.901, 282.744 468.726, 270.469 477.485 C 256.446 487.491, 253.045 498.797, 258.978 515.676 C 262.968 527.029, 267.480 530.394, 279 530.607 C 290.549 530.822, 300 532.949, 300 535.335 C 300 542.882, 313.333 552.291, 328.432 555.399 C 332.795 556.297, 336.494 557.160, 336.652 557.319 C 337.107 557.774, 333.095 589.038, 332.447 590.086 C 332.126 590.604, 330.077 591.940, 327.892 593.055 C 322.964 595.569, 322.923 595.668, 318.104 617 C 307.941 661.987, 307.560 669.024, 315.133 671.862 C 316.644 672.428, 316.686 672.856, 315.503 675.663 C 314.205 678.743, 314.062 678.801, 310.052 677.900 C 295.515 674.634, 265.868 674.956, 248.663 678.568 C 204.335 687.872, 164.041 719.626, 144.999 760.260 C 123.354 806.450, 124.279 859.108, 147.519 903.802 C 184.477 974.875, 273.946 1002.689, 346.500 965.662 C 386.079 945.463, 413.833 907.326, 424.123 859 C 427.389 843.657, 427.443 816.149, 424.236 800.335 C 415.706 758.266, 390.701 720.945, 355.792 698.179 C 349.257 693.918, 347.073 691.948, 347.042 690.288 C 346.980 686.990, 350.863 677.267, 352.492 676.641 C 353.272 676.342, 354.845 674.265, 355.988 672.024 L 358.066 667.951 362.771 672.226 C 365.359 674.577, 379.864 688.650, 395.006 703.500 C 410.147 718.350, 430.965 738.577, 441.268 748.450 C 451.570 758.322, 460 766.731, 460 767.136 C 460 767.541, 455.925 772.514, 450.945 778.186 C 440.079 790.564, 434.409 798.769, 432.932 804.253 C 430.272 814.129, 436.401 825.065, 448 831.142 C 452.579 833.541, 467.227 834.415, 474.073 832.697 C 476.542 832.077, 476.631 832.250, 478.234 840.740 C 483.137 866.710, 505.162 885.866, 530.250 885.983 C 532.313 885.992, 534 886.395, 534 886.878 C 534 888.766, 530.929 890.088, 522.885 891.662 C 507.317 894.708, 501.883 903.890, 506.064 920.087 C 507.650 926.235, 517.858 928.619, 547.087 929.668 C 567.368 930.395, 568.682 930.186, 574.016 925.367 C 582.286 917.895, 581.546 908.972, 571.906 899.955 L 565.978 894.410 587.739 891.179 C 599.708 889.401, 609.773 887.959, 610.108 887.974 C 610.442 887.988, 612.386 892.031, 614.428 896.958 C 647.802 977.475, 754.981 1007.622, 829.500 957.453 C 886.606 919.007, 909.815 846.104, 886.890 777.185 C 874.857 741.010, 849.658 711.615, 814.111 692.288 C 767.146 666.754, 706.714 670.899, 664.857 702.525 L 660.215 706.033 655.552 700.846 C 652.987 697.994, 648.202 692.320, 644.917 688.237 C 630.833 670.729, 631.434 669.175, 653.237 666.736 C 678.890 663.866, 695.307 658.626, 700.422 651.677 C 703.592 647.369, 703.286 639.541, 699.736 634.177 L 696.972 630 705.107 630 C 738.930 630, 768.433 616.545, 777.843 596.830 C 781.195 589.806, 781.642 587.068, 779.952 583.911 C 779.084 582.288, 779.834 580.546, 784.341 573.726 C 796.189 555.798, 799.986 544.222, 800.747 523.703 C 801.070 515.007, 800.800 507.059, 800.017 502.203 C 794.554 468.317, 769.097 442.736, 755.294 457.260 L 752.215 460.500 751.717 476.500 C 750.767 507.011, 742.842 526.334, 723.791 544.591 C 713.905 554.065, 702.983 561.528, 694.501 564.607 C 688.527 566.776, 674.330 569.322, 672.955 568.472 C 671.288 567.442, 670.996 556.909, 672.551 553.902 C 675.584 548.036, 667.472 523.530, 650.118 486.132 C 639.725 463.734, 608.259 407.986, 597.479 392.872 L 594.178 388.244 605.811 380.398 C 627.146 366.007, 638.646 352.215, 644.898 333.516 C 648.282 323.396, 648.387 323.299, 653.590 325.473 C 691.524 341.323, 733.720 325.647, 759.837 286.003 C 770.684 269.538, 775 255.506, 775 236.702 C 775 214.353, 766.434 196.196, 743.531 170 C 736.623 162.098, 718.660 138.874, 702.657 117.154 C 674.922 79.509, 643.183 63.479, 610.569 70.645 L 603.081 72.291 597.026 66.685 C 583.497 54.159, 564.842 46.572, 535 41.460 C 521.428 39.134, 487.600 38.638, 474 40.564 M 486.500 48.652 C 426.300 53.413, 389.925 74.201, 359.032 121.500 C 341.520 148.311, 333.858 175.203, 331.109 219.500 C 330.009 237.214, 327.850 249.002, 322.682 265.500 C 307.352 314.442, 316.974 345.185, 356 371.957 C 377.556 386.745, 418.757 399.200, 455.348 401.992 C 541.281 408.547, 619.020 378.663, 635.493 332.742 C 640.096 319.910, 640.166 320.215, 630.840 312.385 C 603.790 289.676, 596.429 264.359, 601.631 211.937 C 605.180 176.180, 603.614 156.275, 596.317 144.374 C 591.132 135.917, 590.169 133.863, 589.816 130.500 C 589.512 127.615, 589.653 127.500, 593.490 127.500 C 597.249 127.500, 597.665 127.810, 600.689 132.870 C 610.934 150.016, 613.021 164.504, 610.645 202 C 609.722 216.575, 608.974 233.513, 608.983 239.640 C 609.042 278.477, 626.751 305.193, 661.057 318.200 C 669.056 321.233, 670.210 321.400, 683 321.379 C 708.082 321.338, 724.136 314.164, 739.657 296.061 C 766.058 265.269, 773.139 235.018, 760.025 209.052 C 756.610 202.290, 740.827 180.736, 724.473 160.500 C 717.805 152.250, 710.389 142.575, 707.993 139 C 680.681 98.259, 653.951 78.601, 626 78.699 C 615.851 78.735, 614.115 79.087, 604.286 83.099 C 599.304 85.133, 595.968 83.479, 593.152 77.580 C 590.408 71.833, 588.721 70.246, 580.128 65.334 C 558.870 53.182, 519.017 46.081, 486.500 48.652 M 374.870 72.060 C 351.922 77.490, 329.804 100.352, 308.654 140.500 C 298.106 160.522, 287.289 177.027, 276.538 189.500 C 255.657 213.726, 248.162 229.396, 249.272 246.500 C 250.887 271.387, 269.037 287.406, 297.132 288.742 L 307.763 289.247 308.833 285.874 C 319.499 252.236, 320.763 246.056, 323.018 216.500 C 327.645 155.865, 342.089 122.172, 380.699 81.945 C 387.847 74.499, 389.656 72.082, 388.433 71.613 C 386.268 70.782, 379.301 71.011, 374.870 72.060 M 373.879 145.309 C 361.733 149.449, 357.150 154.175, 360.041 159.577 C 361.704 162.683, 363.225 162.634, 366.698 159.359 C 371.060 155.248, 378.774 152.200, 386.750 151.436 C 394.664 150.678, 395.318 149.945, 391.927 145.635 C 389.250 142.231, 383.226 142.122, 373.879 145.309 M 524.400 146.700 C 522.575 148.027, 520.810 152.062, 521.392 153.578 C 521.748 154.506, 523.449 155, 526.287 155 C 536.730 155, 546.841 160.455, 551.028 168.347 C 553.819 173.608, 554.216 173.784, 557 171 C 562.248 165.752, 556.282 156.995, 542.791 150.148 C 536.375 146.891, 526.644 145.067, 524.400 146.700 M 369.309 213.533 C 349.336 223.486, 351.885 263, 372.500 262.991 C 382.908 262.986, 386.962 259.638, 391.258 247.500 C 397.786 229.054, 394.396 215.424, 382.453 212.109 C 376.728 210.519, 374.977 210.709, 369.309 213.533 M 513.500 221.164 C 504.751 225.991, 501.500 232.720, 501.500 246 C 501.500 263.274, 508.324 272.007, 521.815 271.996 C 532.977 271.987, 537.512 265.038, 537.475 248 C 537.445 234.721, 535.346 228.267, 529.339 222.993 C 525.638 219.744, 517.730 218.831, 513.500 221.164 M 405.263 258.514 C 397.396 260.223, 387.851 265.267, 383.842 269.833 C 375.760 279.038, 385.886 298.892, 401.766 304.978 C 404.920 306.187, 408.442 307.544, 409.593 307.995 C 411.456 308.724, 411.755 309.900, 412.305 318.657 C 412.645 324.071, 413.803 331.875, 414.878 336 C 417.271 345.183, 416.530 346.415, 407.626 348.061 C 391.584 351.027, 373.136 339.239, 373.022 325.950 C 372.995 322.846, 371.309 321, 368.500 321 C 363.235 321, 362.704 325.757, 366.963 334.760 C 375.257 352.292, 394.893 361.111, 412.442 355.187 L 418.375 353.184 421.446 355.527 C 423.136 356.815, 428.114 359.586, 432.509 361.685 C 444.498 367.409, 454.059 367.280, 466.269 361.229 C 476.399 356.210, 484.585 349.094, 489.627 340.926 C 491.619 337.697, 494.132 334.776, 495.210 334.433 C 498.748 333.310, 495.944 326.690, 491.159 324.870 C 486.711 323.179, 484.980 324.567, 485.621 329.309 C 486.941 339.077, 468.224 354.465, 451.807 357.108 C 432.850 360.161, 420.088 345.391, 420.017 320.315 C 419.991 311.019, 420.897 309.460, 427.181 307.978 C 449.388 302.743, 463.242 282.022, 452.492 270.122 C 442.830 259.429, 423.229 254.611, 405.263 258.514 M 411.951 266.947 C 405.450 267.620, 393.897 271.339, 395.095 272.373 C 395.318 272.565, 405.850 272.447, 418.500 272.111 L 441.500 271.500 436.288 269.239 C 430.179 266.588, 422.449 265.860, 411.951 266.947 M 580.628 393.636 C 575.241 396.554, 551.117 403.961, 538.979 406.424 L 526.869 408.881 520.115 415.191 C 507.624 426.858, 494.990 432, 478.815 432 C 465.288 432, 452.739 425.852, 448.262 417.033 C 445.874 412.329, 444.316 410.351, 443.579 411.088 C 441.542 413.125, 428 485.808, 428 494.707 C 428 495.767, 440.955 494.672, 447.090 493.093 C 458.560 490.140, 465.081 487.385, 474.298 481.599 C 478.965 478.669, 483.958 475.976, 485.392 475.616 C 486.826 475.256, 488 474.335, 488 473.570 C 488 471.266, 531.161 431.230, 554.576 411.814 C 563.429 404.473, 566.466 403.154, 569.460 405.346 C 572.289 407.416, 570.418 410.879, 563.804 415.817 C 560.887 417.994, 550.456 427.030, 540.625 435.895 C 530.794 444.761, 517.474 456.610, 511.026 462.227 L 499.302 472.440 503.838 475.317 C 523.609 487.855, 538.819 513.957, 537.830 533.654 L 537.471 540.808 541.985 538.234 C 561.945 526.851, 584.501 504.910, 591.591 489.981 C 594.491 483.876, 598.110 481.677, 602.492 483.359 C 607.434 485.255, 596.456 502.717, 579.196 520.417 C 560.233 539.863, 529.755 557.746, 526.250 551.482 C 525.566 550.260, 524.813 550.169, 522.390 551.014 C 520.734 551.591, 510.407 553.969, 499.440 556.299 L 479.500 560.535 478.227 566.953 C 476.120 577.577, 468.891 584, 459.041 584 C 455.199 584, 454.170 583.456, 449.857 579.143 C 447.186 576.471, 445 573.364, 445 572.238 C 445 570.334, 444.558 570.228, 438.750 570.730 C 435.313 571.027, 432.426 571.322, 432.336 571.385 C 431.920 571.675, 437.374 589.635, 438.193 590.673 C 440.858 594.055, 472.391 599.644, 493.500 600.478 C 552.825 602.820, 611.191 585.185, 664.314 548.867 C 665.410 548.117, 662.901 540.115, 655.266 520 C 645.424 494.075, 633.739 471.315, 610.058 431.948 C 604.251 422.294, 596.803 409.357, 593.507 403.198 C 587.055 391.144, 586.285 390.571, 580.628 393.636 M 455.217 413.364 C 455.391 414.512, 458.381 416.816, 463 419.364 C 469.862 423.148, 471.095 423.493, 477.500 423.418 C 485.854 423.321, 495.041 421.052, 504.251 416.811 C 515.948 411.426, 515.784 411.383, 483.928 411.444 C 456.222 411.498, 454.946 411.583, 455.217 413.364 M 414.474 439.123 C 398.099 451.161, 392.136 454.847, 382.117 459.123 C 378.478 460.676, 375.601 462.374, 375.724 462.896 C 375.847 463.417, 378.500 468.041, 381.619 473.172 C 384.737 478.302, 389.745 487.337, 392.746 493.250 C 395.748 499.163, 398.500 504, 398.862 504 C 399.224 504, 403.116 502.430, 407.510 500.512 C 411.905 498.594, 416.288 497.019, 417.250 497.012 C 418.212 497.005, 419 496.424, 419 495.720 C 419 488.403, 424.485 452.180, 427.574 439.098 C 428.925 433.377, 429.899 428.566, 429.739 428.406 C 429.580 428.246, 422.710 433.069, 414.474 439.123 M 762.550 462.783 C 762.248 463.086, 761.998 466.521, 761.996 470.417 C 761.991 479.241, 759.732 493.568, 756.386 506 C 746.901 541.243, 724.017 563.955, 686.874 574.989 C 681.168 576.684, 676.010 578.618, 675.410 579.286 C 674.811 579.954, 673.072 587.700, 671.546 596.500 C 670.020 605.300, 668.557 613.665, 668.296 615.089 C 667.835 617.599, 668.043 617.714, 675.160 618.906 C 712.812 625.207, 757.368 614.921, 766.038 597.926 C 768.729 592.651, 768.735 592.658, 762.194 593.399 C 759.001 593.760, 756.137 593.804, 755.829 593.496 C 755.522 593.188, 758.274 589.914, 761.946 586.218 C 775.782 572.294, 784.830 557.386, 789.120 541.446 C 792.512 528.842, 792.267 506.622, 788.603 494.537 C 783.429 477.471, 774.635 464.835, 766.686 463.042 C 764.714 462.597, 762.853 462.481, 762.550 462.783 M 353.972 468.484 C 340.539 471.633, 320.450 474.007, 307.261 474.003 C 294.090 473.999, 289.893 475.259, 279.052 482.465 C 270.913 487.876, 267.660 491.713, 266.035 497.818 C 264.495 503.605, 266.171 511.555, 270.062 516.927 C 274.538 523.105, 275.624 522.376, 276.281 512.750 C 277.193 499.380, 281.571 489.670, 285.400 492.524 C 287.263 493.912, 287.257 494.073, 285.150 500.491 C 280.609 514.324, 283.465 522.622, 293.142 523.713 L 297.719 524.228 298.404 517.282 C 299.526 505.889, 302.963 501.252, 312.039 498.883 C 323.681 495.844, 330.302 501.132, 332.500 515.222 C 333.308 520.402, 337.169 521.362, 357.500 521.439 C 375.677 521.508, 377.395 520.994, 386.487 512.762 C 392.477 507.339, 392.632 508.104, 381.453 488 C 367.783 463.415, 369.722 464.792, 353.972 468.484 M 485.924 484.583 C 482.342 488.400, 470.399 495.565, 462.988 498.342 C 454.150 501.655, 447.615 502.873, 433.500 503.841 C 417.252 504.956, 404.846 510.115, 393.114 520.638 L 388.500 524.776 388.523 534.138 C 388.548 544.575, 389.489 547.167, 394.123 549.563 C 397.830 551.481, 397.407 552.039, 398.933 543.216 C 400.256 535.574, 405.325 523.984, 407.328 524.022 C 407.973 524.034, 409.497 524.822, 410.716 525.772 L 412.932 527.500 409.901 533.589 C 405.701 542.028, 405.289 551.359, 409 554.016 C 410.375 555.001, 413.400 556.031, 415.723 556.305 C 419.924 556.800, 419.950 556.783, 420.555 553.151 C 422.636 540.666, 426.726 532.713, 431.343 532.178 C 436.580 531.570, 437.279 533.618, 433.516 538.547 C 429.822 543.386, 427.319 552.151, 428.400 556.459 C 429.366 560.306, 435.045 562.520, 440.996 561.369 C 445.486 560.501, 445.494 560.493, 446.316 555.293 C 448.180 543.501, 464.876 538.785, 473.660 547.569 C 476.760 550.669, 476.790 550.668, 498.896 546.452 C 529.387 540.638, 528.683 541.096, 527.760 527.677 C 525.992 501.951, 497.331 472.429, 485.924 484.583 M 310.589 510.077 C 308.225 512.885, 308 513.933, 308 522.109 C 308 540.189, 310.840 542.322, 345.151 550.008 C 368.086 555.146, 374.494 555.830, 378.805 553.601 C 382.723 551.575, 382.748 550.865, 379.114 545.088 C 377.527 542.564, 375.714 538.879, 375.086 536.898 L 373.942 533.295 365.221 532.662 C 354.777 531.904, 333.074 527.607, 328.968 525.484 C 325.626 523.755, 323.590 520.281, 322.545 514.518 C 321.425 508.347, 320.352 507, 316.554 507 C 314.012 507, 312.538 507.760, 310.589 510.077 M 457.582 557.977 C 452.755 567.162, 452.808 571.283, 457.788 573.906 C 462.601 576.441, 467.341 571.087, 468.634 561.653 C 469.361 556.353, 468.020 553.551, 464.103 552.186 C 461.201 551.174, 461.117 551.249, 457.582 557.977 M 383.234 560.998 C 381.438 562.649, 379.331 564, 378.552 564 C 377.038 564, 376.558 565.186, 375.513 571.500 C 374.574 577.172, 370.133 595.519, 368.940 598.659 C 368.200 600.603, 368.349 602.534, 369.504 606.012 C 370.718 609.668, 370.848 611.716, 370.078 615.115 C 369.243 618.804, 369.356 619.754, 370.792 621.102 C 371.732 621.983, 381.500 630.970, 392.500 641.073 C 403.500 651.175, 412.778 659.836, 413.119 660.317 C 413.757 661.220, 427.035 638.927, 433.281 626.468 L 436.806 619.436 432.313 608.543 C 428.927 600.334, 427.972 596.892, 428.435 594.575 C 428.868 592.415, 427.952 588.225, 425.361 580.500 C 423.331 574.450, 421.543 568.961, 421.387 568.302 C 421.231 567.644, 419.167 566.638, 416.801 566.068 C 414.436 565.498, 409.575 564.171, 406 563.121 C 402.425 562.070, 397.250 560.663, 394.500 559.994 C 391.750 559.325, 388.825 558.602, 388 558.387 C 387.175 558.173, 385.030 559.348, 383.234 560.998 M 349.500 560.655 C 346.231 561.536, 346.055 562.046, 343.993 576.564 C 342.904 584.229, 341.791 591.455, 341.519 592.623 C 341.068 594.562, 341.825 594.933, 350.257 596.899 C 361.502 599.522, 360.871 600.065, 364.519 584.637 C 368.733 566.821, 368.885 563.287, 365.492 561.997 C 362.154 560.728, 352.297 559.901, 349.500 560.655 M 651.995 568.107 C 617.312 588.288, 584.888 599.907, 545.619 606.226 C 523.515 609.783, 479.529 609.546, 458.936 605.758 C 450.925 604.285, 443.613 602.789, 442.686 602.433 C 439.863 601.350, 440.672 604.259, 446.238 615.202 C 451.190 624.939, 452.401 626.433, 468.488 642.639 C 485.710 659.991, 490.905 664.073, 492.770 661.724 C 493.305 661.051, 495.679 656.900, 498.048 652.500 C 505.279 639.065, 507.809 636, 511.670 636 C 516.799 636, 516.239 640.199, 509.544 651.935 C 488.513 688.804, 488.392 704.617, 508.797 749.501 C 514.298 761.601, 519.551 774.088, 520.471 777.251 C 522.214 783.247, 522.957 783.962, 524.951 781.559 C 526.686 779.468, 528.775 780.698, 529.560 784.274 C 530.214 787.251, 529.571 788.034, 514.215 802.941 C 496.850 819.798, 494.036 824.048, 495.405 831.345 C 496.700 838.249, 504.422 845.681, 512.250 847.558 C 514.887 848.190, 515.001 848.058, 515.015 844.358 C 515.031 840.530, 516.760 836.577, 517.578 838.500 C 521.342 847.347, 524.234 849.183, 530.366 846.620 L 534.199 845.019 533.501 839.010 C 532.662 831.783, 533.865 831.209, 537.188 837.250 C 540.207 842.737, 542.457 842.988, 552.595 838.968 C 573.629 830.628, 582.871 823.166, 589.985 808.781 C 595.662 797.300, 595.877 792.973, 592.513 758 C 591.058 742.875, 589.609 726.155, 589.293 720.845 L 588.720 711.191 593.346 704.232 C 598.154 697, 606.920 686.571, 622.540 669.500 C 652.392 636.877, 661.984 617.784, 664.560 585.865 C 665.267 577.096, 664.382 562, 663.160 562 C 662.791 562, 657.767 564.748, 651.995 568.107 M 331.129 606.610 C 328.813 615.412, 320 657.983, 320 660.368 C 320 662.621, 320.659 663.130, 325.250 664.426 C 329.910 665.741, 343.948 668, 347.461 668 C 348.249 668, 349.472 665.290, 350.506 661.250 C 351.457 657.538, 352.818 653.150, 353.531 651.500 C 355.830 646.179, 360.219 622.725, 360.362 615 L 360.500 607.500 353.500 605.734 C 349.650 604.762, 343.272 603.687, 339.326 603.344 L 332.153 602.719 331.129 606.610 M 663.273 627.832 C 661.014 634.102, 657.337 640.759, 651.620 648.928 C 647.991 654.113, 645.130 658.454, 645.261 658.574 C 646.012 659.262, 665.284 656.757, 672.728 655.004 C 690.289 650.869, 696.243 645.927, 692.676 638.447 C 690.677 634.255, 686.992 632.408, 673.187 628.680 C 664.690 626.385, 663.821 626.311, 663.273 627.832 M 362.614 643.747 L 359.886 657.494 365.193 662.477 C 370.790 667.732, 400.804 696.566, 447.461 741.510 C 487.946 780.510, 494.166 786.241, 495.017 785.322 C 496.334 783.901, 498.828 773.829, 499.979 765.284 C 501.447 754.390, 501.124 753.838, 483.105 736.422 C 458.898 713.025, 367.357 630, 365.767 630 C 365.534 630, 364.115 636.186, 362.614 643.747 M 438.790 636.826 C 433.544 643.805, 423.381 661.444, 422.485 665.125 C 421.901 667.523, 423.524 669.298, 441.229 685.625 C 467.952 710.269, 489 729.168, 489 728.518 C 489 728.219, 488.068 724.718, 486.929 720.737 C 483.027 707.102, 483.303 687.075, 487.561 674.868 L 488.828 671.236 481.664 666.440 C 477.624 663.736, 467.866 654.962, 459.288 646.322 C 450.921 637.895, 443.871 631, 443.622 631 C 443.373 631, 441.199 633.622, 438.790 636.826 M 323.560 675.111 C 323.259 676.425, 321.873 682.900, 320.480 689.500 C 309.577 741.157, 292.937 791.829, 278.814 816.385 C 272.384 827.566, 271.989 831.336, 276.898 834.683 C 284.428 839.818, 289.267 836.836, 295.705 823.095 C 302.397 808.811, 312.198 784.288, 317.389 768.836 C 325.392 745.018, 342.698 676.298, 341.097 674.697 C 340.618 674.218, 336.600 673.578, 332.167 673.274 C 324.291 672.734, 324.096 672.776, 323.560 675.111 M 620.266 686.334 L 614.182 693.747 621.276 702.624 C 639.990 726.038, 707.997 806.861, 717.862 817.412 C 723.988 823.963, 729 829.865, 729 830.527 C 729 832.978, 733.226 836.987, 737.002 838.119 C 744.784 840.450, 748.872 836.540, 747.710 827.875 C 747.126 823.519, 747.275 823.711, 720.489 792.814 C 704.823 774.744, 670.284 733.020, 644.072 700.500 C 635.649 690.050, 628.216 680.920, 627.554 680.211 C 626.591 679.179, 625.134 680.404, 620.266 686.334 M 266.251 685.071 C 232.650 688.835, 204.502 702.414, 180.457 726.458 C 132.052 774.860, 124.939 853.303, 163.564 912.759 C 187.845 950.135, 236.824 974.843, 282.411 972.712 C 335.585 970.227, 380.883 941.044, 402.014 895.658 C 430.128 835.274, 419.483 770.295, 374.052 724.977 C 364.698 715.648, 347.322 702, 344.797 702 C 344.122 702, 342.440 707.935, 340.025 718.839 L 337.956 728.177 340.716 730.339 C 406.457 781.825, 407.853 879.211, 343.537 927.175 C 324.596 941.300, 305.138 947, 275.864 947 C 222.613 947, 177.284 907.457, 166.964 852 C 164.172 837, 166.522 806.343, 171.640 791 C 182.104 759.626, 212.690 728.683, 243.978 717.818 C 258.069 712.925, 282.848 710.240, 296.793 712.096 C 301.378 712.706, 305.273 713.046, 305.449 712.852 C 306.014 712.231, 311.856 688.523, 311.526 688.192 C 309.203 685.870, 278.199 683.732, 266.251 685.071 M 738.500 684.649 C 722.613 686.294, 703.491 691.747, 689.694 698.567 C 679.122 703.794, 667 711.691, 667 713.352 C 667 714.744, 680.834 732, 681.950 732 C 682.363 732, 684.670 730.573, 687.078 728.829 C 706.653 714.649, 737.413 708.009, 763 712.440 C 822.724 722.784, 860.005 768.342, 859.999 830.974 C 859.995 868.838, 842.475 904.858, 814.306 924.916 C 768.644 957.433, 705.151 951.660, 667.223 911.544 C 660.716 904.662, 647.914 887.242, 646.711 883.632 C 646.464 882.892, 642.884 882.952, 634.856 883.833 C 617.157 885.774, 618.258 884.557, 623.949 895.897 C 648.582 944.985, 692.674 972.396, 747 972.395 C 801.020 972.395, 847.393 943.925, 870.568 896.531 C 891.390 853.950, 891.680 807.367, 871.392 764.100 C 856.215 731.732, 825.601 704.085, 791.688 692.121 C 775.955 686.571, 752.187 683.232, 738.500 684.649 M 610.033 709.729 C 609.282 713.522, 606.792 720.194, 604.374 724.899 L 600.057 733.297 601.641 751.399 C 602.511 761.354, 603.511 769.801, 603.862 770.170 C 604.213 770.538, 606.901 770.988, 609.835 771.170 L 615.171 771.500 617.932 764 C 621.458 754.423, 624.664 748.149, 630.407 739.585 C 632.933 735.818, 635 732.426, 635 732.048 C 635 731.173, 613.093 703.592, 612.109 703.229 C 611.705 703.080, 610.771 706.005, 610.033 709.729 M 601.708 710.323 C 599.896 713.088, 598.190 721.073, 599.747 719.500 C 601.106 718.127, 604.409 709.075, 603.780 708.446 C 603.500 708.167, 602.568 709.011, 601.708 710.323 M 283.776 752.750 C 283.508 770.763, 283.403 785.643, 283.544 785.817 C 284.906 787.502, 303 729.543, 303 723.496 C 303 721.058, 298.760 720, 288.993 720 L 284.265 720 283.776 752.750 M 725.330 721.989 C 710.512 725.874, 688.982 736.686, 689.010 740.230 C 689.023 741.858, 699.228 754.101, 718.199 775.250 C 734.264 793.159, 736.250 794.463, 741.559 790.581 C 743.542 789.130, 744.586 770.632, 744.908 731.250 L 745 720 738.750 720.055 C 735.313 720.085, 729.274 720.956, 725.330 721.989 M 752 754.820 C 752 774.079, 751.745 790.501, 751.433 791.314 C 751.031 792.361, 752.418 793.503, 756.187 795.228 C 759.534 796.760, 763.303 799.675, 766.345 803.082 L 771.181 808.500 783.341 796.602 C 796.046 784.169, 813.088 768.383, 821.326 761.415 L 826.151 757.333 823.532 754.220 C 820.502 750.619, 805.534 738.557, 799.125 734.552 C 788.765 728.076, 771.049 721.996, 758.250 720.523 L 752 719.804 752 754.820 M 267.349 722.045 C 244.591 725.049, 230.506 731.996, 207.148 751.738 L 204.500 753.977 224 773.556 C 234.725 784.324, 246.079 795.391, 249.230 798.149 L 254.961 803.164 258.172 800.832 C 259.939 799.549, 264.335 796.925, 267.942 795 L 274.500 791.500 275.120 778.708 C 275.460 771.672, 275.910 755.929, 276.120 743.724 C 276.550 718.597, 277.408 720.718, 267.349 722.045 M 335 739.411 C 335 740.279, 331.151 752.742, 326.446 767.107 C 321.741 781.472, 318.060 793.394, 318.266 793.600 C 318.472 793.806, 323.559 789.428, 329.570 783.871 C 335.582 778.314, 344.211 770.558, 348.747 766.634 C 353.284 762.710, 356.996 758.972, 356.997 758.326 C 357 757.192, 337.827 738.844, 335.933 738.167 C 335.420 737.983, 335 738.543, 335 739.411 M 636.603 744.965 C 632.533 751.558, 623.037 770.869, 623.014 772.598 C 623.006 773.250, 628.036 774.368, 635.387 775.348 C 650.596 777.376, 650 777.381, 650 775.222 C 650 774.244, 651.587 770.132, 653.527 766.084 L 657.054 758.725 653.777 754.567 C 644.340 742.592, 641.444 739.107, 640.892 739.056 C 640.558 739.025, 638.628 741.684, 636.603 744.965 M 195.560 765.180 C 183.467 781.378, 175 805.286, 175 823.234 L 175 830.292 198.250 829.538 C 211.037 829.123, 226.894 828.495, 233.486 828.142 L 245.472 827.500 246.111 824 C 246.462 822.075, 247.571 818.381, 248.575 815.791 L 250.401 811.083 225.450 785.791 C 211.728 771.881, 200.262 760.383, 199.971 760.240 C 199.680 760.097, 197.695 762.320, 195.560 765.180 M 807.888 783.711 C 780.600 809.305, 774.615 815.553, 775.408 817.620 C 775.733 818.469, 776 821.672, 776 824.737 L 776 830.311 803.250 829.637 C 818.237 829.266, 835.176 828.676, 840.892 828.325 L 851.283 827.687 850.690 817.949 C 850.364 812.593, 849.156 804.451, 848.006 799.856 C 845.980 791.763, 836.076 770.024, 832.175 765.107 L 830.276 762.714 807.888 783.711 M 337.400 787.423 C 308.811 814.164, 305.279 818.123, 306.879 821.633 C 307.495 822.987, 308 825.270, 308 826.707 L 308 829.321 335.250 828.565 C 350.238 828.150, 366.775 827.515, 372 827.155 L 381.500 826.500 381.231 820.500 C 380.837 811.685, 378.386 801.377, 374.020 790.174 C 369.846 779.463, 363.586 766.480, 362.175 765.608 C 361.694 765.311, 350.546 775.128, 337.400 787.423 M 662.106 771.975 C 660.871 774.845, 660.053 777.386, 660.288 777.621 C 660.523 777.856, 663.787 778.335, 667.541 778.686 L 674.366 779.323 672.207 776.412 C 671.019 774.810, 668.766 771.982, 667.199 770.128 L 664.352 766.755 662.106 771.975 M 506.110 773 C 503.444 783.195, 500.456 789.909, 495.341 797.195 C 488.104 807.506, 485.248 814.072, 483.953 823.382 C 480.882 845.460, 490.801 865.076, 509.563 874.030 C 515.688 876.953, 530.320 880.013, 531.679 878.655 C 532.064 878.270, 531.375 874.838, 530.148 871.029 C 527.444 862.632, 523.191 858.669, 515.700 857.568 C 496.320 854.719, 486.478 844.733, 486.566 828.006 C 486.617 818.178, 488.723 814.177, 499.986 802.514 C 512.912 789.128, 514.408 784.391, 509.303 773 L 507.286 768.500 506.110 773 M 456.112 786.228 C 439.777 803.644, 437.880 809.434, 445.680 818.068 C 450.560 823.469, 457.294 825.417, 467.787 824.462 C 476.907 823.632, 477.631 823.176, 478.534 817.692 C 479.373 812.601, 483.202 803.225, 486.713 797.662 L 489.300 793.564 479.071 783.782 C 473.445 778.402, 468.540 774.019, 468.171 774.043 C 467.802 774.067, 462.375 779.550, 456.112 786.228 M 607.797 782.615 C 605.882 783.193, 605.448 784.365, 604.512 791.500 C 604.152 794.250, 603.634 797.437, 603.362 798.582 C 602.901 800.524, 603.522 800.744, 612.684 801.878 C 645.896 805.990, 692.040 811, 696.702 811 L 702.181 811 692.717 800.250 C 681.779 787.827, 686.924 789.635, 651 785.586 C 627.197 782.903, 610.618 781.763, 607.797 782.615 M 272.621 801.579 C 259.736 804.959, 251.173 820.873, 254.876 834.559 C 257.362 843.747, 266.162 852.620, 275.202 855.055 C 283.645 857.328, 297.811 847.205, 300.044 837.303 L 300.844 833.759 297.672 836.768 C 289.144 844.856, 277.076 845.218, 270.045 837.597 C 268.107 835.496, 267.505 833.590, 267.184 828.545 C 266.749 821.713, 266.572 822.231, 273.967 808.698 C 276.311 804.407, 278.065 800.762, 277.865 800.598 C 277.664 800.433, 275.305 800.875, 272.621 801.579 M 741.104 801.750 C 741.846 802.712, 744.624 806.154, 747.278 809.399 C 757.123 821.436, 758.873 832.243, 752.252 840.113 C 746.306 847.179, 738.354 848.550, 729.427 844.047 C 722.797 840.702, 722.252 840.779, 723.927 844.824 C 725.499 848.618, 740.108 857.010, 745.086 856.978 C 759.792 856.883, 771.514 836.598, 766.610 819.730 C 763.412 808.730, 753.274 800, 743.698 800 C 740.096 800, 739.872 800.151, 741.104 801.750 M 610.462 820.710 C 609.817 830.177, 610.485 851.818, 611.452 852.785 C 611.804 853.138, 632.233 850.444, 636.791 849.444 C 638.222 849.130, 638.810 848.502, 638.357 847.769 C 637.959 847.124, 637.603 838.925, 637.566 829.548 L 637.500 812.500 626 811.316 C 619.675 810.665, 613.756 810.102, 612.846 810.066 C 611.450 810.010, 611.079 811.668, 610.462 820.710 M 598.513 814.980 C 597.131 817.169, 593.266 821.977, 589.924 825.665 C 584.613 831.525, 583.915 832.757, 584.383 835.435 C 584.678 837.121, 585.189 841.425, 585.518 845 C 586.614 856.896, 586.219 856.347, 593.118 855.566 C 596.427 855.192, 599.667 854.680, 600.318 854.430 C 601.342 854.035, 602.313 811, 601.297 811 C 601.148 811, 599.894 812.791, 598.513 814.980 M 646.577 820.912 C 645.448 832.370, 646.892 848, 649.079 848 C 651.204 848, 691.228 841.793, 705.399 839.265 L 715.298 837.500 716.725 832.591 L 718.153 827.683 714.327 823.890 L 710.500 820.097 679.992 817.049 C 663.212 815.372, 648.983 814, 648.371 814 C 647.727 814, 646.971 816.912, 646.577 820.912 M 319.320 836.746 L 308.139 837.064 306.478 842.066 L 304.817 847.068 319.658 862.579 C 327.821 871.110, 339.450 883.446, 345.500 889.993 L 356.500 901.896 360.021 898.078 C 370.501 886.711, 379.088 864.404, 381.513 842.250 L 382.196 836 356.348 836.214 C 342.132 836.331, 325.469 836.571, 319.320 836.746 M 795.750 836.749 C 780.174 836.968, 774.994 837.347, 774.976 838.270 C 774.963 838.947, 773.861 842.156, 772.526 845.401 L 770.100 851.302 796.150 877.901 C 810.477 892.531, 822.548 904.631, 822.974 904.792 C 824.161 905.238, 833.315 892.429, 837.942 883.848 C 845.319 870.167, 851 851.043, 851 839.890 L 851 836 833.750 836.229 C 824.263 836.354, 807.163 836.588, 795.750 836.749 M 178.250 837.723 C 175.141 838.109, 175 838.316, 175 842.498 C 175 856.397, 183.635 879.162, 194.494 893.894 L 199.208 900.288 225.235 874.261 L 251.261 848.234 248.513 842.617 L 245.765 837 213.633 837.160 C 195.960 837.248, 180.037 837.502, 178.250 837.723 M 565.750 843.564 C 560.938 846.016, 557 848.412, 557 848.890 C 557 849.368, 558.176 852.327, 559.613 855.466 C 561.844 860.339, 562.539 861.089, 564.363 860.590 C 565.538 860.269, 569.318 859.476, 572.762 858.828 L 579.025 857.650 578.354 854.075 C 577.985 852.109, 577.417 848.061, 577.092 845.081 C 576.766 842.100, 576.050 839.537, 575.500 839.384 C 574.950 839.232, 570.563 841.113, 565.750 843.564 M 702.500 847.549 C 689.601 850.547, 661.084 855.446, 644.500 857.514 C 637.350 858.405, 618.032 860.904, 601.571 863.067 C 585.110 865.230, 570.194 867, 568.423 867 L 565.205 867 565.352 876.491 C 565.527 887.719, 564.057 887.079, 582.500 883.960 C 597.364 881.446, 601.238 880.890, 638.500 875.933 C 683.266 869.977, 713.198 864.287, 724.421 859.597 C 728.960 857.701, 728.942 857.622, 723.250 854.373 C 716.845 850.717, 715 849.033, 715 846.845 C 715 844.631, 715.078 844.626, 702.500 847.549 M 540.575 853.579 C 538.416 854.369, 536.468 855.199, 536.245 855.422 C 535.132 856.535, 540.432 878.164, 543.174 883.696 C 546.142 889.686, 546.379 892.421, 544.215 895.725 C 543.774 896.399, 539.888 897.475, 535.581 898.116 C 523.656 899.889, 528.272 901.428, 546.750 901.840 C 563.214 902.207, 564.135 901.883, 559.327 897.428 C 556.845 895.127, 556.639 894.296, 556.424 885.725 C 556.184 876.164, 554.795 870.849, 549.246 858.277 C 546.248 851.482, 546.268 851.493, 540.575 853.579 M 296.612 856.977 C 294.474 858.606, 290.761 860.690, 288.362 861.606 L 284 863.272 284 900.783 L 284 938.293 291.280 937.678 C 310.711 936.036, 332.259 926.424, 346.235 913.165 L 351.970 907.724 333.735 888.647 C 323.706 878.155, 312.125 866.070, 308 861.792 L 300.500 854.014 296.612 856.977 M 246.491 864.774 C 241.537 869.573, 229.837 880.857, 220.491 889.848 L 203.500 906.196 209.564 911.898 C 225.106 926.513, 246.641 936.252, 266.597 937.691 L 274.694 938.275 275.336 934.388 C 275.689 932.249, 275.983 915.595, 275.989 897.378 L 276 864.256 272.234 863.653 C 270.162 863.322, 265.833 861.465, 262.612 859.526 C 259.392 857.586, 256.475 856.011, 256.129 856.024 C 255.783 856.037, 251.446 859.974, 246.491 864.774 M 758.330 860.797 C 752.592 864.194, 752.114 864.755, 751.505 868.812 C 750.668 874.397, 752.054 935.915, 753.031 936.519 C 753.435 936.769, 757.415 936.516, 761.875 935.956 C 778.978 933.812, 796.642 926.849, 810.286 916.873 L 817.073 911.911 815.080 909.205 C 813.983 907.717, 802.154 895.395, 788.793 881.822 L 764.500 857.145 758.330 860.797 M 728.846 868.300 C 722.440 870.418, 721.412 871.264, 701.381 890.909 L 680.571 911.318 685.702 915.909 C 692.536 922.024, 702.478 927.258, 715.115 931.394 C 725.764 934.879, 740.183 937.623, 741.988 936.508 C 742.639 936.105, 743 923.438, 743 900.941 L 743 866 739.250 866.050 C 737.188 866.078, 732.506 867.091, 728.846 868.300 M 702 874.103 C 699.525 874.589, 688.541 876.336, 677.591 877.985 C 666.641 879.635, 657.522 881.145, 657.326 881.341 C 656.721 881.946, 666.474 896.248, 670.722 900.985 L 674.744 905.469 681.122 899.790 C 694.680 887.717, 709.432 873.101, 708 873.159 C 707.175 873.192, 704.475 873.617, 702 874.103 M 514.197 911.222 L 514.500 916.500 519.559 918.180 C 526.593 920.515, 564.297 921.768, 568 919.789 C 570.660 918.368, 571.640 914.687, 570.533 910.276 C 569.982 908.079, 569.529 907.866, 566.588 908.418 C 563.673 908.964, 546.618 908.232, 521.697 906.490 L 513.894 905.944 514.197 911.222" stroke="none" fill="#1a1a1a" fill-rule="evenodd"/>
</svg>