<svg xmlns="http://www.w3.org/2000/svg" width="1024" height="1024" viewBox="0 0 1024 1024" version="1.1">
	<path d="M 504 96.595 C 473.398 100.187, 453.624 105.660, 432 116.521 C 423.035 121.024, 405.732 132.007, 404.525 133.960 C 404.059 134.714, 402.030 133.430, 398.656 130.245 C 385.861 118.165, 369.003 111.867, 349.619 111.927 C 329.711 111.988, 314.175 118.719, 298.887 133.907 C 275.094 157.543, 263.814 186.815, 263.942 224.588 C 264.047 255.309, 268.520 269.184, 287.757 298.448 C 292.467 305.613, 297.398 313.913, 298.715 316.891 C 301.104 322.292, 305.484 338.850, 304.724 339.609 C 304.504 339.829, 301.499 338.183, 298.047 335.952 C 285.462 327.818, 274.603 313.753, 262.523 289.938 C 251.552 268.313, 244.818 259.627, 234.855 254.250 C 223.030 247.869, 209.893 254.562, 207.013 268.437 L 205.910 273.750 201.516 274.245 C 179.615 276.714, 179.927 301.858, 201.997 312.998 C 213.071 318.589, 214.678 320.771, 224.468 343.500 C 240.227 380.086, 261.635 401.945, 293.708 414.198 L 297.916 415.806 293.396 423.653 C 282.039 443.370, 263.921 482.274, 248.993 519 C 244.410 530.275, 240.109 540.111, 239.436 540.859 C 238.762 541.606, 231.526 544.440, 223.356 547.157 C 180.315 561.470, 143.845 587.601, 125.247 617.453 C 123.861 619.679, 120.584 623.787, 117.965 626.583 C 105.362 640.036, 100.042 659.762, 101.201 688.750 C 101.239 689.712, 100.917 696.935, 100.484 704.800 L 99.697 719.100 96.599 720.427 C 88.509 723.891, 84.866 731.428, 84.240 746 C 83.224 769.644, 90.448 781.097, 115.143 795 L 126.689 801.500 128.425 808 C 136.474 838.152, 157.152 859.089, 186.128 866.427 C 222.794 875.712, 260.194 870.884, 277.872 854.585 L 282.500 850.317 306.155 850.783 L 329.810 851.248 330.493 855.805 C 334.144 880.147, 351.069 903.989, 372 914.277 C 399.365 927.726, 441.659 931.161, 466.500 921.952 C 498.780 909.985, 524.531 873.315, 528.610 833.506 C 529.203 827.713, 529.448 827.169, 531.069 828.037 C 533.755 829.475, 545.680 829.216, 562.338 827.358 L 577.175 825.703 584.833 828.101 C 591.355 830.144, 594.493 830.496, 605.995 830.476 C 621.292 830.448, 625.674 829.242, 636.946 821.956 C 641.629 818.930, 644.703 817.748, 649.800 817.015 C 653.485 816.486, 661 815.368, 666.500 814.532 C 672 813.696, 676.780 813.009, 677.121 813.006 C 677.463 813.003, 678.032 815.137, 678.385 817.750 C 681.259 838.976, 698.279 863.707, 716.500 873.132 C 740.061 885.318, 777.570 888.497, 802 880.377 C 833.122 870.033, 856.284 838.130, 861.487 798.438 C 862.319 792.091, 863 786.336, 863 785.650 C 863 784.808, 864.161 784.537, 866.566 784.818 C 871.132 785.351, 880.062 783.595, 891.716 779.872 C 901.647 776.699, 906.018 773.785, 907.992 769.020 C 908.930 766.755, 909.900 765.995, 911.871 765.978 C 926.950 765.852, 937.428 745.112, 933.962 722.249 C 931.869 708.444, 923.989 699, 914.564 699 C 912.433 699, 912.205 698.450, 911.555 691.750 C 905.185 626.126, 879.309 575.309, 835.625 542.635 C 810.218 523.632, 783.865 515.588, 737.672 512.736 L 733.845 512.500 729.943 497.179 C 720.991 462.027, 710.765 440.167, 697.835 428.542 C 684.889 416.902, 653.605 404.862, 629.500 402.242 L 622.500 401.481 627.054 398.327 C 632.268 394.717, 642.826 383.732, 646.680 377.908 L 649.291 373.962 653.166 379.892 C 672.434 409.381, 716.596 418.360, 739.052 397.354 C 745.431 391.387, 748.228 386.658, 752.031 375.409 C 756.698 361.600, 759.942 357.079, 773.500 345.488 C 803.696 319.672, 815.059 301.362, 821.900 267.500 C 839.986 177.980, 789.033 103.744, 715.151 111.970 C 691.811 114.569, 666.972 125.183, 649.983 139.818 L 644.971 144.136 637.736 137.494 C 615.800 117.360, 586.285 103.857, 552.463 98.483 C 542.921 96.967, 511.318 95.735, 504 96.595 M 507 105.134 C 437.686 109.035, 379.268 150.339, 357.299 210.977 C 350.880 228.694, 348.288 242.167, 347.385 262.500 C 346.715 277.589, 345.323 283.456, 339.825 294.346 C 331.817 310.211, 330.071 328.918, 335.526 340.414 C 337.519 344.613, 339.882 344.963, 349.436 342.475 C 365.053 338.407, 380.037 327.014, 389.592 311.941 C 392.718 307.010, 395.777 303.091, 396.391 303.232 C 397.004 303.373, 398.855 302.537, 400.503 301.375 C 419.669 287.860, 444.842 288.950, 461.318 304.008 C 469.909 311.859, 470.709 316.832, 462.348 310.416 C 443.703 296.106, 419.388 294.524, 403.584 306.592 C 395.487 312.774, 395.778 313.500, 406.349 313.500 C 420.642 313.500, 433.173 320.577, 438.959 331.919 C 442.547 338.953, 440.495 340.500, 435.643 334.419 C 427.457 324.160, 413.831 318.166, 401.344 319.332 L 394.668 319.956 388.458 326.728 L 382.249 333.500 386.921 335.043 C 396.441 338.186, 405.360 346.038, 409.153 354.614 C 412.853 362.977, 410.269 366.642, 406.061 359 C 397.615 343.664, 380.483 336.001, 369.315 342.563 C 366.667 344.119, 361.350 346.638, 357.500 348.162 C 353.650 349.685, 351.061 350.947, 351.747 350.966 C 354.094 351.030, 361.153 358.369, 363.743 363.437 C 365.625 367.118, 366.355 370.138, 366.416 374.500 C 366.522 382.099, 365.128 382.630, 362.998 375.804 C 360.024 366.275, 355.641 359.356, 349.807 354.980 C 346.685 352.639, 345.717 352.491, 332.500 352.334 C 295.658 351.898, 278.219 338.380, 254.299 291.716 C 241.965 267.654, 230.088 256.800, 221.151 261.422 C 217.299 263.414, 216.491 264.916, 214.906 273.024 C 213.463 280.411, 212.076 281.998, 207.059 282.006 C 188.394 282.035, 189.129 296.622, 208.304 306.721 C 218.447 312.063, 222.049 316.807, 230.091 335.415 C 246.145 372.565, 261.962 390.764, 289.171 403.392 C 359.955 436.246, 461.761 420.695, 494.620 372.011 C 499.548 364.710, 499.834 363.517, 497.023 362.012 C 494.054 360.423, 492.595 357.193, 494.053 355.436 C 495.920 353.186, 497.961 353.709, 505.863 358.462 C 509.913 360.898, 514.525 363.176, 516.113 363.525 C 519.173 364.197, 519.956 366.644, 517.800 368.800 C 516.265 370.335, 511.837 370.339, 508.475 368.807 C 505.136 367.286, 504.303 368.485, 503.480 375.991 C 500.162 406.250, 489.214 422.385, 472 422.385 C 465.859 422.385, 458.665 419.579, 455.665 416.014 L 453.274 413.172 444.387 416.553 C 439.499 418.412, 434.825 419.970, 434 420.015 C 431.824 420.133, 443.320 425.875, 451.500 428.757 C 471.033 435.636, 489.309 435.451, 506.068 428.203 C 509.085 426.898, 514.179 425.995, 521.068 425.545 C 558.791 423.078, 582.097 416.987, 606.500 403.216 C 644.133 381.980, 659.385 351.755, 659.467 298.250 C 659.485 286.562, 659.601 277, 659.724 277 C 660.645 277, 663.270 284.154, 664.506 290.026 C 668.477 308.906, 664.120 345.084, 655.944 361.109 L 653.922 365.073 657.211 371.260 C 671.449 398.040, 707.787 409.837, 730.236 394.967 C 736.968 390.508, 740.450 385.153, 744.476 373.071 C 748.883 359.848, 752.554 354.344, 763.626 344.368 C 789.120 321.396, 796.936 312.330, 803.929 297.615 C 821.815 259.977, 821.844 206.652, 803.998 170.500 C 782.716 127.386, 738.156 109.341, 691.861 125.090 C 673.980 131.173, 651.887 145.709, 638.831 159.982 C 631.533 167.960, 628.333 170.030, 627.331 167.420 C 626.286 164.696, 627.967 161.377, 633.479 155.286 L 639.024 149.159 631.299 142.421 C 600.139 115.245, 557.042 102.317, 507 105.134 M 337.500 121.039 C 298.873 128.957, 268.070 179.877, 271.377 230.344 C 272.977 254.753, 279.518 272.820, 294.697 294.752 C 303.002 306.751, 307.206 315.829, 311.021 330 C 312.724 336.325, 314.505 341.892, 314.980 342.371 C 315.454 342.850, 318.817 343.550, 322.453 343.926 C 328.210 344.522, 328.979 344.409, 328.403 343.055 C 322.666 329.576, 324.222 309.782, 332.406 292.114 C 338.120 279.780, 338.675 277.304, 339.424 260.797 C 340.802 230.431, 350.397 198.646, 364.386 178.105 L 368.060 172.710 363.261 167.214 C 353.347 155.860, 340.637 152.296, 326.654 156.949 C 318.795 159.564, 310.147 165.700, 306.307 171.386 C 303.863 175.006, 303.490 175.238, 303.204 173.318 C 302.083 165.802, 314.992 152.660, 327.240 148.848 C 343.143 143.898, 357.600 148.122, 368.513 160.906 L 372.809 165.940 374.469 163.407 C 375.382 162.013, 380.837 156, 386.591 150.045 L 397.053 139.216 392.526 135.232 C 379.035 123.357, 355.636 117.321, 337.500 121.039 M 725.500 151.648 C 706.828 155.529, 695.685 161.569, 680.593 175.989 C 665.017 190.873, 650 213.321, 650 221.722 C 650 227.016, 652.133 225.545, 657.272 216.707 C 677.798 181.406, 707.874 159.102, 735.066 159.017 C 755.156 158.955, 774.498 169.887, 786.483 188.078 C 791.653 195.926, 793.582 196.939, 792.527 191.250 C 789.534 175.119, 768.433 156.046, 749.201 152.090 C 744.125 151.046, 729.691 150.777, 725.500 151.648 M 380.500 194.569 C 374.363 197.754, 369 204.461, 369 208.950 C 369 211.774, 370.126 211.523, 373.563 207.930 C 378.141 203.145, 382.317 201.013, 388.658 200.226 C 393.996 199.563, 394.526 199.274, 394.804 196.881 C 395.038 194.858, 394.583 194.121, 392.804 193.644 C 388.790 192.569, 383.602 192.960, 380.500 194.569 M 546.178 200.521 C 543.607 201.638, 542.929 202.476, 543.178 204.232 C 543.461 206.227, 544.262 206.584, 549.826 207.198 C 558.186 208.120, 563.969 211.059, 569.477 217.186 C 572.395 220.431, 574.531 222.010, 575.499 221.639 C 577.850 220.737, 577.307 218.684, 573.049 212.364 C 565.807 201.617, 554.812 196.771, 546.178 200.521 M 376.418 258.969 C 367.743 262.478, 363.740 284.371, 369.939 294.402 C 376.004 304.215, 389.714 301.633, 393.033 290.052 C 398.785 269.989, 389.965 253.489, 376.418 258.969 M 538.333 265.181 C 529.580 267.484, 523.607 287.943, 528.364 299.329 C 533.225 310.963, 546.935 310.783, 553.339 299 C 563.025 281.182, 554.086 261.037, 538.333 265.181 M 220.020 284.479 C 216.211 288.410, 211.082 290.488, 207.447 289.576 C 204.117 288.740, 204.372 290.294, 208.077 293.411 C 213.940 298.345, 221.824 295.083, 224.054 286.800 C 225.571 281.165, 224.069 280.301, 220.020 284.479 M 490.440 389.095 C 484.087 395.589, 478.007 400.055, 467.486 405.952 L 459.024 410.695 463.898 413.348 C 473.978 418.834, 483.955 414.978, 490.006 403.255 C 491.986 399.418, 496.290 384.957, 495.644 384.311 C 495.499 384.165, 493.157 386.318, 490.440 389.095 M 619.884 412.331 C 621.539 414.737, 624.936 420.780, 627.433 425.759 L 631.973 434.813 639.236 436.013 C 655.987 438.778, 665.453 443.571, 672.989 453.105 C 682.247 464.818, 685.653 476.817, 690.414 514.500 C 692.608 531.869, 692.824 534.583, 693.607 554.750 L 694.316 573 697.408 572.982 C 701.030 572.960, 718.974 570.485, 727.250 568.865 L 733 567.740 733 563.578 C 733 553.162, 727.573 519.247, 722.907 500.500 C 714.677 467.437, 704.952 446.770, 691.774 434.336 C 679.507 422.760, 652.326 412.831, 621.187 408.549 L 616.874 407.956 619.884 412.331 M 606.558 411.907 C 604.890 414.605, 567.291 428, 561.385 428 C 554.877 428, 516.121 463.108, 505.102 478.985 L 500.704 485.322 511.508 484.661 C 517.450 484.297, 524.223 484, 526.561 484 C 530.552 484, 530.973 483.722, 533.502 479.406 C 544.691 460.314, 569.691 439.058, 583.068 437.264 C 588.727 436.505, 587.899 437.968, 580.227 442.283 C 568.533 448.860, 555.535 461.184, 542.439 478.110 L 538.098 483.721 544.607 484.799 C 554.640 486.462, 566 494.878, 566 500.650 C 566 502.483, 563.541 502.357, 561.952 500.442 C 560.072 498.177, 553.250 494.432, 547.541 492.532 C 540.834 490.300, 520.906 490.325, 495.305 492.598 L 489.109 493.147 492.661 498.091 C 505.042 515.325, 506.424 549.967, 495.251 563.019 C 490.923 568.076, 491.461 569.990, 497.219 570.028 C 499.573 570.043, 504.691 570.321, 508.592 570.646 C 518.229 571.449, 544.651 569.352, 554.717 566.985 C 587.146 559.361, 610.935 535.122, 622.668 497.750 C 625.924 487.377, 627 486.766, 627 495.290 C 627 513.093, 614.627 536.927, 596.770 553.520 C 576.534 572.323, 553.749 578.731, 510.349 577.826 C 489.922 577.400, 487.305 576.785, 486.391 572.196 C 485.866 569.558, 485.716 569.507, 479.410 569.836 C 474.899 570.071, 471.219 569.582, 467.143 568.206 L 461.320 566.239 459.633 575.759 C 458.705 580.996, 458.109 585.442, 458.307 585.640 C 460.351 587.685, 550.064 588.542, 561 586.622 C 562.375 586.380, 568 585.899, 573.500 585.552 C 586.492 584.732, 644.782 579.160, 647.903 578.440 L 650.306 577.885 649.671 560.693 C 647.478 501.272, 633.311 445.211, 613.457 417.388 C 608.988 411.125, 607.682 410.088, 606.558 411.907 M 296.549 432.375 C 278.974 465.772, 249 534.190, 249 540.908 C 249 543.685, 254.231 545.507, 289.500 555.021 C 332.284 566.562, 409.021 584, 417.024 584 C 418.490 584, 420.377 583.212, 421.217 582.250 C 422.970 580.240, 426.465 570.132, 425.679 569.346 C 425.391 569.058, 418.907 566.929, 411.270 564.616 C 403.634 562.303, 395.990 559.417, 394.284 558.202 L 391.183 555.994 388.535 559.141 C 385.350 562.926, 385.274 562.851, 396.299 566.931 C 418.371 575.100, 423.717 578.226, 421.070 581.416 C 418.744 584.218, 412.974 583.302, 403.301 578.593 C 381.908 568.181, 329.772 553.303, 290.705 546.463 C 285.056 545.474, 279.981 543.995, 278.716 542.971 L 276.521 541.194 283.300 520.847 C 295.003 485.718, 308.013 452.850, 318.370 432.250 C 320.927 427.163, 322.675 423, 322.253 423 C 321.831 423, 317.554 421.918, 312.749 420.596 L 304.012 418.193 296.549 432.375 M 418.999 423.501 C 405.686 428.075, 360.440 429.846, 340.558 426.572 C 331.099 425.014, 330.566 425.021, 329.582 426.717 C 321.553 440.564, 305.924 479.537, 289.716 526.131 L 285.322 538.762 290.608 539.384 C 299.170 540.390, 322.576 544.881, 334.728 547.848 C 340.928 549.362, 346 550.503, 346 550.384 C 346 550.264, 343.055 547.338, 339.455 543.881 C 333.474 538.138, 327 527.817, 327 524.025 C 327 523.370, 325.602 519.650, 323.894 515.758 C 320.016 506.922, 320.110 499.418, 324.205 490.950 C 325.655 487.953, 327.326 483.657, 327.918 481.404 C 330.160 472.872, 336.810 466.238, 344.100 465.260 C 347.312 464.829, 349.098 463.790, 351.831 460.765 C 365.097 446.081, 386.541 443.187, 406.716 453.358 L 413.416 456.736 424.439 448.725 C 442.876 435.328, 443.921 434.526, 443.961 433.750 C 443.982 433.337, 443.504 433, 442.897 433 C 441.052 433, 424.569 425.029, 423.499 423.618 C 422.694 422.557, 421.814 422.534, 418.999 423.501 M 536.500 432.116 C 533.200 432.483, 526.975 432.832, 522.667 432.891 C 516.569 432.976, 513.245 433.632, 507.667 435.854 C 494.131 441.245, 482.443 442.693, 469.920 440.530 C 465.839 439.825, 462.490 439.305, 462.479 439.374 C 462.467 439.443, 461.452 441.366, 460.223 443.647 C 455.912 451.646, 449.203 472.971, 449.022 479.250 C 449.010 479.663, 452.488 480.012, 456.750 480.026 C 462.586 480.045, 466.229 480.693, 471.500 482.650 C 475.350 484.080, 481.476 485.453, 485.113 485.701 L 491.726 486.153 497.534 477.864 C 505.641 466.295, 526.571 444.992, 540.403 434.230 C 544.035 431.404, 543.842 431.299, 536.500 432.116 M 444.919 441.957 C 441.850 445.006, 434.875 450.603, 429.419 454.395 L 419.500 461.291 428.837 470.895 L 438.174 480.500 440.074 478.156 C 441.118 476.866, 443.832 469.891, 446.104 462.656 C 448.376 455.420, 451.511 446.816, 453.070 443.536 C 454.630 440.256, 455.815 437.507, 455.703 437.427 C 453.137 435.586, 450.013 436.899, 444.919 441.957 M 640.158 457.288 C 650.346 488.080, 656.985 530.373, 656.996 564.545 L 657 577.589 668.750 576.344 C 688.195 574.284, 687 574.784, 687 568.705 C 686.999 555.720, 683.811 520.652, 680.889 501.500 C 676.848 475.008, 673.536 465.619, 665.079 456.677 C 657.732 448.909, 652.784 446.543, 637.478 443.481 C 635.610 443.107, 635.814 444.160, 640.158 457.288 M 376.500 454.996 C 357.898 457.768, 345.507 474.478, 352.973 486.723 C 356.612 492.692, 364.213 492.007, 365.415 485.602 C 367.574 474.094, 382.010 469.072, 395.253 475.221 C 401.341 478.048, 409.806 485.376, 416.070 493.242 L 419.846 497.985 421.998 494.504 C 423.181 492.589, 425.757 489.697, 427.723 488.077 L 431.296 485.131 427.258 480.316 C 410.967 460.887, 393.945 452.396, 376.500 454.996 M 340.254 474.762 C 336.727 478.058, 334.412 482.287, 333.513 487.081 C 331.559 497.496, 345.251 510.190, 350.443 502.777 C 352.630 499.655, 352.379 495.646, 349.855 493.405 C 345.901 489.894, 343.788 483.543, 344.549 477.456 C 345.332 471.183, 344.587 470.715, 340.254 474.762 M 380.209 480.077 C 372.856 481.613, 371.164 485.484, 374.320 493.550 C 375.601 496.823, 377.439 502.425, 378.405 506 L 380.161 512.500 384.947 512.500 C 389.275 512.500, 389.857 512.220, 391.027 509.577 C 391.739 507.969, 395.144 503.157, 398.594 498.883 L 404.868 491.113 400.993 487.613 C 394.050 481.340, 386.780 478.704, 380.209 480.077 M 441.713 488.367 C 433.184 490.759, 425 499.195, 425 505.597 L 425 508.898 428.250 507.572 C 432.726 505.746, 440.501 504.732, 444.049 505.511 C 447.065 506.173, 447.994 507.769, 445.750 508.432 C 429.196 513.320, 423 516.866, 423 521.450 C 423 528.025, 428.986 532, 438.885 532 C 453.073 532, 454.555 535.322, 441.389 537.612 C 431.463 539.338, 429.781 541.849, 433.960 548.701 C 436.737 553.256, 441.282 555.253, 450 555.749 C 455.606 556.068, 459.547 557.037, 465.608 559.588 C 482.728 566.793, 491.869 562.511, 495.038 545.799 C 498.363 528.266, 492.284 505.611, 481.928 496.940 C 471.434 488.153, 454.985 484.647, 441.713 488.367 M 362.250 496.442 C 359.113 497.137, 358 497.871, 358 499.242 C 358 500.263, 357.277 502.498, 356.392 504.208 C 354.562 507.748, 354.930 512.681, 357.777 522.755 L 359.544 529.010 366.281 522.221 L 373.018 515.432 371.153 508.466 C 367.868 496.194, 367.233 495.337, 362.250 496.442 M 405.111 501.495 C 402.822 503.978, 399.611 508.121, 397.975 510.700 L 395 515.391 397.378 517.945 C 400.552 521.356, 402 524.328, 402 527.434 C 402 529.788, 402.351 529.999, 406.250 529.989 C 415.293 529.966, 417.968 529.045, 416.930 526.315 C 415.505 522.569, 415.813 518.790, 417.870 514.755 L 419.740 511.086 415.874 505.169 C 410.075 496.293, 409.946 496.250, 405.111 501.495 M 328.022 502.691 C 328.080 515.293, 339.756 524.210, 345.927 516.365 C 348.638 512.919, 348.542 512, 345.468 512 C 339.829 512, 330 504.585, 330 500.331 C 330 499.664, 329.550 498.840, 329 498.500 C 328.385 498.120, 328.008 499.735, 328.022 502.691 M 379.378 520.916 C 373.396 523.632, 365.077 532.454, 358.556 542.997 C 355.426 548.057, 353.044 552.377, 353.263 552.597 C 353.483 552.816, 359.209 554.662, 365.987 556.699 L 378.312 560.403 381.746 556.452 C 386.685 550.768, 392.697 540.263, 394.149 534.780 C 395.699 528.927, 393.800 524.068, 388.763 520.997 C 384.792 518.576, 384.536 518.574, 379.378 520.916 M 735.426 522.750 C 737.084 530.544, 739.141 546.720, 739.685 556.232 C 740.270 566.481, 740.392 566.942, 742.399 566.479 C 743.554 566.213, 750.575 565.312, 758 564.477 C 786.388 561.284, 822.800 554.009, 829.687 550.155 C 833.170 548.206, 805.056 533.008, 789.847 528.618 C 774.872 524.297, 749.457 520, 738.869 520 C 735 520, 734.864 520.108, 735.426 522.750 M 347.383 524.586 C 346.218 525.401, 343.181 526.110, 340.633 526.161 C 338.085 526.212, 336 526.451, 336 526.693 C 336 528.834, 341.934 536.462, 346.660 540.396 L 349.820 543.027 351.915 539.637 C 353.975 536.304, 353.981 536.139, 352.273 529.624 C 350.374 522.385, 350.437 522.449, 347.383 524.586 M 409.017 536.930 L 401.533 537.500 398.830 543 C 395.287 550.208, 395.330 550.617, 399.859 552.928 C 403.029 554.545, 426.556 562, 428.490 562 C 430.651 562, 430.788 556.658, 428.729 552.740 C 427.272 549.968, 426.472 546.621, 426.419 543.072 C 426.308 535.705, 426.094 535.630, 409.017 536.930 M 230 553.393 C 191.320 565.428, 159.347 586.414, 137.214 614.292 L 131.027 622.085 134.410 625.055 C 139.323 629.369, 140.877 633.868, 142.455 648.356 C 143.130 654.547, 141.076 669.513, 138.445 677.572 C 132.313 696.358, 118.840 707.885, 110.441 701.532 C 107.201 699.081, 107 699.616, 107 710.699 L 107 721.398 111.866 725.949 C 116.201 730.003, 132.803 740.759, 133.331 739.855 C 133.444 739.660, 134.744 734.651, 136.219 728.724 C 143.200 700.670, 151.788 693.662, 172.562 699.065 C 221.351 711.754, 231.137 722.510, 233.580 766.126 L 234.176 776.753 248.410 779.845 C 278.151 786.307, 286.882 787.399, 309.603 787.503 C 330.085 787.597, 330.858 787.675, 335.833 790.137 L 340.959 792.674 342.650 788.087 C 365.473 726.188, 401.151 694.829, 450.072 693.671 L 457.274 693.500 456.617 674.923 C 456.042 658.679, 454.736 644.888, 449.888 603.899 C 448.830 594.959, 448.933 593.398, 451.376 581.243 C 455.157 562.432, 455.369 563.384, 447.250 562.699 C 443.538 562.385, 439.596 561.851, 438.492 561.511 C 436.683 560.955, 436.090 562.120, 432.545 573.197 C 427.304 589.569, 424.630 592.583, 416.216 591.599 C 390.032 588.536, 259.915 556.377, 248.080 550.043 C 245.413 548.616, 245.261 548.644, 230 553.393 M 829.500 558.539 C 814.765 564.205, 794.480 568.079, 756.416 572.494 C 744.362 573.893, 725.725 576.298, 715 577.839 L 695.500 580.641 695.540 587.070 C 695.562 590.607, 696.188 601.150, 696.931 610.500 C 699.968 648.710, 695.960 705.225, 687.929 737.430 C 678.407 775.614, 670.658 785.855, 646.668 791.965 C 637.769 794.232, 597.690 799.368, 576 801.021 C 554.938 802.627, 555.257 802.553, 554.498 806.010 C 553.535 810.393, 554.955 820, 556.565 820 C 571.493 820, 634.046 812.338, 679.609 804.928 L 693.718 802.634 694.344 792.403 C 696.560 756.185, 714.595 710.080, 734.936 688.633 C 761.983 660.113, 805.549 653.724, 839 673.370 C 864.193 688.166, 883.339 725.017, 885.649 763.158 L 886.295 773.816 890.696 772.491 C 897.714 770.379, 899.764 768.529, 901.490 762.753 C 908.403 739.620, 906.049 687.506, 896.409 650.216 C 887.680 616.455, 871.101 587.042, 848.233 564.750 C 838.376 555.141, 838.355 555.134, 829.500 558.539 M 240.310 574.917 C 199.002 596.846, 167.802 629.736, 156.572 663.190 C 154.095 670.569, 152.983 681.461, 154.911 679.450 C 155.412 678.928, 157.381 674.438, 159.286 669.473 C 173.509 632.409, 201.073 601.527, 238 581.284 C 253.112 573, 253.196 572.940, 251.936 571.423 C 250.345 569.506, 250.711 569.395, 240.310 574.917 M 662.500 584.500 C 637.030 587.364, 635.873 587.479, 603 590.445 C 550.869 595.149, 520.307 596.247, 479.564 594.876 C 465.850 594.415, 454.410 594.257, 454.142 594.525 C 453.874 594.792, 455.084 604.796, 456.831 616.756 C 460.419 641.324, 462.950 670.864, 462.989 688.627 L 463 693.754 471.288 695.833 C 502.816 703.741, 527.609 724.153, 542.944 754.829 C 547.743 764.428, 552.869 780.743, 553.618 788.800 L 554.287 796 558.938 796 C 575.398 796, 638.416 788.679, 649.371 785.494 C 669.550 779.628, 679.508 761.596, 686.921 717.500 C 693.085 680.830, 694.374 610.118, 689.336 584.930 C 688.629 581.395, 689.929 581.416, 662.500 584.500 M 399.500 603.033 C 362.771 610.757, 322.548 630.955, 303.333 651.324 C 294.744 660.429, 296.422 661.570, 306.500 653.477 C 330.587 634.135, 361.603 618.464, 393.555 609.492 C 410.365 604.772, 413.255 603.734, 413.754 602.239 C 414.324 600.528, 410.363 600.749, 399.500 603.033 M 658.500 607.656 C 629.544 609.464, 621.933 612.886, 621.846 624.136 C 621.802 629.732, 623.902 632.888, 629.099 635.041 C 634.163 637.139, 661.230 635.791, 668.208 633.094 C 679.972 628.547, 683.520 617.534, 675.613 610.106 C 673.149 607.792, 668.040 607.060, 658.500 607.656 M 644.539 615.600 C 633.114 616.980, 629.454 618.540, 627.921 622.683 C 625.810 628.392, 632.464 630.253, 650.407 628.971 C 665.403 627.899, 671.780 625.598, 673.480 620.645 C 675.750 614.032, 668.287 612.731, 644.539 615.600 M 120.722 633.886 C 112.835 642.616, 107.694 658.595, 107.655 674.500 C 107.560 712.526, 133.239 694.943, 134.762 655.939 C 135.663 632.849, 129.874 623.756, 120.722 633.886 M 275 668.213 C 258.565 674.515, 246.020 698.410, 247.285 721 C 249.884 767.395, 297.743 767.921, 311.882 721.709 C 322.710 686.322, 302.860 657.530, 275 668.213 M 784.238 670.042 C 749.489 676.284, 725.665 701.252, 710.509 747.309 C 704.477 765.640, 698.174 798.507, 700.286 800.619 C 701.683 802.017, 714.449 799.133, 716.163 797.032 C 718.431 794.251, 722.121 784.204, 727.008 767.500 C 737.950 730.100, 756.819 704.769, 778.793 697.982 C 819.985 685.259, 855.479 715.105, 861.953 767.908 C 862.520 772.533, 863.195 776.528, 863.452 776.786 C 864.211 777.545, 871.185 777.448, 875.399 776.620 L 879.298 775.853 878.698 764.677 C 877.121 735.329, 863.117 702.979, 844.900 686.600 C 830.127 673.318, 804.674 666.370, 784.238 670.042 M 279.939 674.321 C 248.085 683.217, 244.621 748, 275.999 748 C 290.283 748, 302.322 735.138, 306.501 715.412 C 312.072 689.114, 299.059 668.981, 279.939 674.321 M 441.500 701.110 C 399.466 706.705, 368.088 736.172, 349.915 787.116 L 346.050 797.951 348.238 802.725 C 351.677 810.227, 351.423 825.407, 347.726 833.374 C 344.406 840.529, 344.404 840.210, 347.750 838.792 C 356.471 835.096, 361.565 827.069, 366.060 809.939 C 381.729 750.214, 423.923 717.730, 470.432 729.586 C 492.427 735.193, 512.798 755.384, 521.934 780.632 C 525.251 789.799, 529 806.698, 529 812.484 C 529 819.982, 537.054 823.965, 546.891 821.333 L 549.282 820.693 548.650 809.097 C 546.991 778.628, 539.297 757.348, 522.131 735.746 C 502.832 711.459, 469.929 697.325, 441.500 701.110 M 787.500 704.039 C 761.598 709.349, 744.128 732.249, 731.838 777 C 729.647 784.975, 727.086 793.300, 726.147 795.500 C 724.108 800.272, 724.797 810.541, 728.024 823.464 C 738.517 865.495, 776.188 886.154, 810 868.421 C 829.426 858.232, 844.660 837.435, 851.710 811.477 C 855.395 797.908, 855.656 768.386, 852.203 755.758 C 841.904 718.094, 816.805 698.032, 787.500 704.039 M 153.183 706.500 C 151.384 708.013, 149.040 710.961, 147.975 713.049 C 145.358 718.178, 138.652 740.650, 139.263 742.242 C 140.557 745.615, 217.971 774, 225.875 774 C 227.066 774, 227.190 772.067, 226.628 762.250 C 224.761 729.597, 217.625 720.883, 183.386 709.444 C 165.278 703.394, 157.746 702.660, 153.183 706.500 M 912.956 706.750 C 912.931 707.163, 912.948 714.700, 912.992 723.500 C 913.063 737.755, 912.122 749.683, 910.375 756.641 C 909.636 759.587, 910.991 759.667, 916.500 757 C 930.737 750.108, 931.393 713.241, 917.383 707.387 C 913.572 705.794, 913.017 705.715, 912.956 706.750 M 97.306 728.498 C 89.306 734.102, 89.725 760.418, 97.995 771.835 C 110.399 788.957, 179.582 819.192, 237 832.584 C 267.927 839.797, 282.725 842.026, 304.099 842.693 C 327.091 843.409, 330.931 842.915, 335.149 838.698 C 346.371 827.476, 346.130 807.900, 334.655 798.607 L 330.820 795.500 307.160 794.888 C 283.137 794.266, 275.528 793.329, 250 787.847 C 191.810 775.350, 122.263 747.706, 106.054 730.630 C 102.279 726.654, 100.543 726.231, 97.306 728.498 M 441.205 736.092 C 409.380 740.942, 382.577 770.898, 373.500 811.759 C 360.918 868.403, 392.280 918.117, 440.631 918.174 C 508.266 918.255, 546.560 823.189, 503.401 762.346 C 489.367 742.561, 465.330 732.415, 441.205 736.092 M 789.500 740.881 C 770.521 745.844, 757.727 766.730, 757.573 793 C 757.478 809.277, 760.310 817.980, 768.623 826.959 C 790.359 850.437, 822.206 830.869, 827.046 791.059 C 830.687 761.114, 811.285 735.184, 789.500 740.881 M 789.358 748.040 C 755.522 758.395, 755.392 830.118, 789.210 829.978 C 815.738 829.868, 831.264 782.371, 813.010 757.172 C 807.617 749.727, 797.106 745.669, 789.358 748.040 M 442.842 775.332 C 422.163 781.156, 407.915 803.166, 407.852 829.384 C 407.749 872.095, 446.126 892.069, 473.032 863.307 C 501.682 832.680, 489.800 777.544, 453.904 774.554 C 450.009 774.229, 445.675 774.534, 442.842 775.332 M 787.607 780.888 C 781.367 787.402, 783.873 801, 791.313 801 C 798.204 801, 802.878 786.899, 798.025 780.750 C 795.114 777.061, 791.224 777.112, 787.607 780.888 M 442.300 782.862 C 425.319 788.729, 414 807.057, 414 828.684 C 414 879.334, 468.632 884.379, 481.148 834.885 C 489.189 803.088, 467.566 774.132, 442.300 782.862 M 136.017 807.332 C 136.059 810.254, 142.998 825.228, 147.330 831.744 C 155.658 844.271, 167.245 852.853, 182.597 857.866 C 190.536 860.458, 209.018 864.315, 209.792 863.542 C 209.956 863.377, 207.933 861.982, 205.295 860.442 C 194.927 854.384, 183.377 840.810, 177.140 827.352 C 174.832 822.372, 174.590 822.188, 166.140 819.001 C 161.388 817.208, 152.662 813.586, 146.750 810.952 C 140.660 808.240, 136.007 806.670, 136.017 807.332 M 700.168 808.863 L 684.836 811.418 685.498 815.959 C 689.379 842.580, 708.925 865.292, 734.500 872.898 C 740.711 874.745, 759 878.148, 759 877.457 C 759 877.310, 757.018 876.029, 754.596 874.609 C 736.116 863.779, 720.983 837.811, 718.387 812.476 C 717.993 808.629, 717.272 806.062, 716.612 806.153 C 716 806.238, 708.601 807.457, 700.168 808.863 M 445.004 814.379 C 437.089 816.963, 434.077 829.231, 439.923 835.077 C 449.430 844.584, 463.163 829.055, 455.539 817.419 C 453.463 814.251, 449.181 813.015, 445.004 814.379 M 613.500 822.046 C 610.750 822.474, 606.362 822.864, 603.750 822.912 C 600.892 822.965, 599 823.457, 599 824.148 C 599 825.702, 613.132 824.589, 618.500 822.613 C 622.854 821.011, 621.288 820.833, 613.500 822.046 M 187.692 831.108 C 200.252 853.958, 228.187 867.067, 250.457 860.563 C 259.081 858.045, 274.150 849.816, 272.733 848.399 C 272.556 848.222, 266.356 846.903, 258.955 845.467 C 238.061 841.414, 205.010 832.809, 190.124 827.547 C 187.718 826.696, 185.554 826, 185.317 826 C 185.079 826, 186.148 828.299, 187.692 831.108 M 360.148 840.342 C 357.328 843.344, 350.580 846.332, 342.714 848.062 L 336.928 849.334 337.571 853.917 C 340.606 875.543, 356.269 898.337, 374.500 907.660 C 383.144 912.081, 388.851 914.107, 399 916.361 C 405.107 917.717, 405.350 917.704, 403.014 916.152 C 381.558 901.895, 367.074 876.846, 363.706 848.171 L 362.494 837.846 360.148 840.342" stroke="none" fill="#1a1a1a" fill-rule="evenodd"/>
</svg>