<svg xmlns="http://www.w3.org/2000/svg" width="1024" height="1024" viewBox="0 0 1024 1024" version="1.1">
	<path d="M 491.216 15.669 C 409.996 22.119, 347.389 49.363, 296.455 100.421 C 251.417 145.568, 227.875 197.305, 224.067 259.500 C 219.925 327.157, 244.956 391.927, 294.395 441.478 C 308.921 456.037, 307.701 453.486, 310.419 475 C 311.288 481.875, 314.054 502.575, 316.566 521 L 321.134 554.500 313.256 562.500 C 294.833 581.208, 285.647 601.525, 282.902 629.637 C 280.286 656.428, 287.902 669.856, 312.582 681.962 C 322.688 686.919, 325.270 688.633, 326.608 691.269 C 327.509 693.046, 329.852 696.750, 331.814 699.500 C 335.256 704.326, 335.458 705.109, 337.615 722 C 345.576 784.364, 347.066 795.773, 347.553 798.107 C 348.051 800.496, 347.709 800.822, 343.453 802.013 C 335.434 804.258, 331.999 808.490, 332.006 816.118 C 332.009 819.628, 332.504 824.300, 333.105 826.500 C 334.422 831.313, 342.159 839.237, 347.150 840.885 L 350.556 842.008 354.389 873.254 C 362.354 938.180, 365.073 952.642, 371.932 966.554 C 378.922 980.732, 386.512 987.054, 402.370 991.907 C 420.560 997.473, 479.244 1000.758, 531.500 999.135 C 596.844 997.106, 612.063 994.073, 624.576 980.585 C 635.890 968.389, 639.640 954.217, 652.580 874.750 C 655.656 855.859, 657.843 845, 658.571 845 C 660.838 845, 668.624 837.107, 671.414 831.980 C 677.269 821.223, 674.799 812.786, 664.751 809.219 C 660.360 807.660, 659.968 807.267, 660.538 805 C 661.974 799.288, 667.127 769.401, 672.003 738.500 L 677.211 705.500 682.823 697.197 C 689.283 687.639, 691.051 686.383, 704.049 682.109 C 727.791 674.302, 743.227 658.381, 743.421 641.500 C 743.509 633.805, 741.557 628.812, 732.530 613.631 C 728.562 606.959, 722.481 596.100, 719.016 589.500 C 712.315 576.737, 705.139 565.711, 698.972 558.706 L 695.202 554.422 707.591 505.483 L 719.980 456.545 729.986 447.022 C 766.406 412.362, 795.117 360.417, 804.339 312.500 C 818.453 239.173, 802.490 170.707, 758.660 116.580 C 702.161 46.806, 597.308 7.243, 491.216 15.669 M 477.230 23.545 C 393.522 34.307, 329 67.963, 283.718 124.487 C 247.157 170.125, 230.625 216.602, 230.537 274 C 230.440 336.534, 253.937 391.551, 300.363 437.500 C 336.723 473.486, 370.937 492.463, 424.552 506.382 L 440.843 510.611 437.372 506.555 C 370.549 428.482, 341.317 300.889, 366.553 197.445 C 386.532 115.554, 435.991 48.906, 494.986 24.377 L 500.500 22.085 494 22.155 C 490.425 22.193, 482.878 22.819, 477.230 23.545 M 510.500 25.843 C 470.679 39.507, 441.985 62.865, 414.493 104 C 360.949 184.115, 349.292 291.457, 383.163 392.500 C 398.219 437.416, 421.687 480.112, 444.289 503.707 L 450.235 509.915 455.130 507.434 C 466.655 501.594, 482.018 497.762, 499.250 496.429 L 507 495.829 507.116 484.165 C 507.179 477.749, 507.357 468.900, 507.511 464.500 C 507.665 460.100, 508.093 438.950, 508.463 417.500 C 508.832 396.050, 509.297 375.125, 509.494 371 C 509.692 366.875, 510.130 352.025, 510.467 338 C 510.804 323.975, 511.514 303.050, 512.046 291.500 C 512.577 279.950, 513.688 250.925, 514.514 227 C 516.485 169.929, 517.628 142.020, 519.999 93 C 521.077 70.725, 522.219 46.875, 522.536 40 C 522.854 33.125, 523.349 26.262, 523.636 24.750 C 524.311 21.202, 523.939 21.232, 510.500 25.843 M 530.177 30.250 C 530.050 34.788, 529.747 39.625, 529.504 41 C 529.261 42.375, 528.588 54.075, 528.007 67 C 527.045 88.442, 524.823 136.100, 523.509 163.500 C 523.219 169.550, 522.541 189.575, 522.003 208 C 521.465 226.425, 520.789 246.450, 520.501 252.500 C 519.131 281.287, 517.927 314.825, 517.019 349.500 C 516.472 370.400, 515.799 394.025, 515.524 402 C 515.249 409.975, 514.738 434.357, 514.390 456.182 L 513.757 495.864 517.628 496.471 C 529.894 498.394, 534.894 499.707, 548.958 504.703 C 557.506 507.739, 565.742 510.862, 567.259 511.642 C 570.846 513.487, 572.077 512.782, 580.082 504.295 C 639.778 441.015, 676.270 343.597, 673.652 254.500 C 671.562 183.354, 650.389 122.928, 611.028 75.777 C 591.049 51.843, 567.444 34.750, 540.811 24.930 C 529.938 20.921, 530.447 20.667, 530.177 30.250 M 559.526 25.290 C 606.188 47.666, 649.189 104.490, 666.966 167.269 C 684.759 230.103, 685.224 287.977, 668.470 354.301 C 654.782 408.489, 622.946 468.675, 589.150 504.257 C 586.142 507.424, 583.866 510.185, 584.091 510.392 C 585.077 511.302, 614.671 504.421, 626.500 500.530 C 695.539 477.826, 746.010 433.675, 778.573 367.500 C 803.781 316.274, 809.630 255.552, 794.617 200.954 C 778.199 141.251, 738.818 93.262, 679.500 60.677 C 645.218 41.845, 601.316 28.188, 560 23.504 L 554.500 22.880 559.526 25.290 M 852.286 418.398 C 839.522 422.548, 828.901 433.534, 824.987 446.639 L 823.750 450.777 819.125 448.639 C 815.460 446.944, 812.631 446.506, 805.500 446.531 C 766.246 446.665, 754.284 499.589, 789.581 516.965 C 797.347 520.789, 809.302 523.112, 817.111 522.316 L 822.723 521.744 827.111 526.522 C 842.783 543.582, 872.796 543.770, 890.281 526.916 L 895.212 522.163 899.356 523.716 C 909.944 527.682, 927.735 524.802, 938.720 517.342 C 957.048 504.897, 960.381 474.043, 945.009 459.125 C 935.298 449.701, 920.167 446.430, 908.355 451.201 L 902.325 453.636 901.111 447.568 C 898.704 435.536, 891.199 424.755, 881.821 419.856 C 876.410 417.029, 859.121 416.175, 852.286 418.398 M 857.932 424.030 C 843.949 426.332, 833.187 437.792, 829.853 453.931 C 828.252 461.683, 827.405 462.059, 821.576 457.610 C 807.653 446.982, 786.239 453.410, 778.342 470.586 C 770.589 487.448, 777.681 505.570, 794.531 511.954 C 803.676 515.419, 813.041 516.615, 819.829 515.186 C 825.457 514.001, 825.515 514.012, 827.436 516.746 C 842.546 538.238, 875.380 538.140, 890.671 516.558 L 892.755 513.617 898.752 516.308 C 916.455 524.253, 939.265 515.020, 946.090 497.147 C 956.893 468.855, 928.306 444.144, 903.828 460.616 C 897.486 464.884, 896 464.497, 896 458.581 C 896 434.638, 880.262 420.354, 857.932 424.030 M 315.593 464.250 C 315.849 466.038, 317.823 480.775, 319.978 497 C 323.886 526.418, 327.154 549.244, 327.537 549.786 C 327.648 549.943, 331.735 548.041, 336.619 545.558 C 358.397 534.489, 379.484 534.658, 398.354 546.053 C 402.124 548.329, 405.514 549.811, 405.888 549.346 C 406.262 548.881, 408.280 545.934, 410.373 542.798 C 414.874 536.052, 428.084 523.155, 433.886 519.841 C 439.235 516.786, 439.110 516.479, 431.953 515.071 C 393.954 507.595, 347.662 486.848, 321.764 465.687 C 314.941 460.111, 315 460.125, 315.593 464.250 M 703.500 469.214 C 672.904 490.964, 635.135 507.195, 597.695 514.684 L 578.891 518.445 581.695 520.372 C 587.127 524.104, 603.643 541.590, 606.935 547.095 L 610.267 552.665 614.210 548.388 C 630.468 530.750, 659.300 528.910, 682.260 544.044 C 688.945 548.451, 689.556 548.668, 690.231 546.873 C 691.410 543.736, 711.121 464.784, 710.796 464.498 C 710.633 464.355, 707.350 466.477, 703.500 469.214 M 486.835 504.543 C 455.971 509.351, 420.430 532.983, 409.386 556.040 C 407.264 560.470, 406.098 560.871, 403.543 558.047 C 401.311 555.581, 389.918 548.879, 384 546.550 C 365.210 539.157, 338.381 547.466, 318.648 566.790 C 299.321 585.717, 289.750 608.673, 289.580 636.514 C 289.502 649.278, 289.563 649.657, 292.787 656.212 C 297.082 664.945, 302.469 669.576, 315.804 675.998 C 328.098 681.919, 329.887 683.366, 334.060 690.760 C 338.197 698.090, 344.572 704.229, 352.168 708.194 C 358.120 711.301, 359.101 711.498, 368.500 711.473 C 383.362 711.432, 392.468 706.168, 398.928 693.882 C 401.329 689.316, 401.338 689.203, 399.682 683.882 C 394.704 667.879, 394.600 627.972, 399.523 623.048 C 403.154 619.418, 403.815 624.894, 402.598 648.500 C 400.796 683.451, 411.315 700.263, 444.608 715.645 C 459.474 722.514, 492.528 728.145, 502.011 725.426 L 505.329 724.474 497.594 717.552 C 493.340 713.744, 489.216 709.385, 488.430 707.864 C 485.721 702.625, 487.131 691, 490.475 691 C 491.583 691, 492 692.075, 492 694.935 C 492 701.373, 493.614 704.007, 503.990 714.500 C 509.429 720, 517.965 729.675, 522.959 736 C 541.112 758.989, 556.169 767.106, 578 765.670 C 590.942 764.820, 605.152 759.322, 607.957 754.080 C 610.531 749.272, 607.882 741.193, 604.620 743.900 C 603.269 745.021, 602.920 744.955, 602.349 743.468 C 601.697 741.767, 604.147 739, 606.306 739 C 607.920 739, 614 746.314, 614 748.254 C 614 750.919, 615.703 749.503, 618.064 744.875 C 621.778 737.594, 619.700 735.640, 606.499 734 C 589.684 731.910, 574.369 723.605, 568.331 713.301 C 565.722 708.850, 565.493 707.538, 564.870 693.517 C 564.093 676.033, 562.777 671.677, 556.698 666.473 C 550.028 660.765, 543.639 659.826, 529.662 662.500 C 519.859 664.376, 520 664.382, 520 662.123 C 520 660.832, 521.481 659.622, 524.750 658.245 C 541.909 651.016, 555.848 653.912, 565.629 666.736 C 569.709 672.085, 571 678.274, 571 692.484 C 571 698.746, 571.479 705.137, 572.064 706.685 C 573.540 710.592, 578.074 715.172, 579.420 714.115 C 580.014 713.648, 583.200 712.271, 586.500 711.055 C 597.414 707.033, 605.838 701.958, 611.027 696.280 C 619.614 686.885, 625.862 670.751, 624.711 660.943 C 623.840 653.521, 622.108 635.474, 620.461 616.656 C 617.389 581.570, 609.095 558.645, 592.682 539.871 C 580.045 525.416, 570.832 519.575, 547.445 511.190 C 524.663 503.022, 508.195 501.216, 486.835 504.543 M 637.949 541.826 C 629.980 543.906, 622.137 548.776, 617.354 554.613 L 613.785 558.968 616.492 566.389 L 619.199 573.810 626.349 569.967 C 646.633 559.064, 675.642 559.659, 682.410 571.117 C 685.472 576.300, 682.397 577.566, 676.486 573.555 C 666.356 566.681, 647.395 567.041, 632.523 574.391 C 621.896 579.643, 621.551 580.200, 623.376 589.147 C 626.021 602.122, 628.402 625.315, 630.703 660.531 C 631.334 670.181, 629.620 677.833, 624.592 687.817 L 621.126 694.699 625.813 699.303 C 633.061 706.422, 638.493 708.440, 650.500 708.473 C 665.039 708.512, 667.071 707.235, 679.754 690.080 C 685.950 681.699, 687.648 680.556, 699.987 676.457 C 722.065 669.123, 734.987 657.352, 736.683 643.030 C 737.474 636.353, 735.596 631.464, 726.202 615.747 C 721.848 608.461, 715.702 597.485, 712.545 591.356 C 692.771 552.964, 665.258 534.696, 637.949 541.826 M 349.440 563.873 C 333.647 567.983, 313.271 591.102, 312.183 606.149 C 311.713 612.648, 313.175 615.929, 315.633 613.890 C 316.385 613.266, 317.011 611.798, 317.024 610.628 C 317.099 603.913, 326.308 588.782, 335.836 579.720 C 343.771 572.174, 348.531 570.050, 357.568 570.022 C 369.846 569.984, 377.328 573.118, 388.593 583.018 C 396.475 589.946, 401 591.776, 401 588.035 C 401 583.288, 384.197 569.373, 374.213 565.852 C 368.018 563.666, 354.412 562.580, 349.440 563.873 M 163 584.603 C 148.798 588.403, 138.460 599.076, 134.901 613.616 C 134.243 616.302, 133.605 618.629, 133.482 618.787 C 133.360 618.944, 130.935 618.157, 128.093 617.037 C 112.471 610.879, 91.918 619.890, 85.980 635.500 C 83.067 643.158, 82.770 656.426, 85.376 662.500 C 93.033 680.346, 112.136 688.137, 133.468 682.115 L 140.436 680.148 144.604 683.989 C 160.536 698.675, 190.430 699.447, 205.791 685.570 C 208.711 682.932, 210.642 682, 213.188 682 C 228.393 682, 242.547 674.297, 249.767 662.092 C 254.754 653.663, 253.972 636.004, 248.243 627.663 C 241.142 617.326, 221.795 610.706, 210.848 614.868 C 208.425 615.789, 208.237 615.594, 206.627 610.487 C 204.663 604.255, 198.139 594.987, 192.044 589.770 C 184.393 583.221, 174.647 581.487, 163 584.603 M 583.200 587.200 C 581.184 589.216, 581.841 591, 584.599 591 C 588.873 591, 593.872 593.989, 598.217 599.143 C 602.779 604.552, 604 605.091, 604 601.696 C 604 593.059, 588.289 582.111, 583.200 587.200 M 164.929 591.367 C 151.132 595.087, 142.084 606.055, 140.285 621.238 C 139.338 629.240, 138.552 629.621, 130.644 625.921 C 122.184 621.961, 116.886 621.310, 109.833 623.360 C 101.807 625.694, 96.300 630.103, 93.341 636.566 C 81.868 661.626, 103.482 683.712, 131.500 675.560 C 142.434 672.379, 142.311 672.366, 147.129 677.154 C 161.503 691.439, 186.017 692.568, 202.252 679.693 C 207.163 675.798, 208.022 675.490, 215.639 674.890 C 229.112 673.828, 238.838 668.201, 243.666 658.672 C 246.906 652.278, 246.694 641.117, 243.196 633.929 C 237.779 622.797, 219.639 617.617, 207.471 623.728 C 202.004 626.474, 201 625.830, 201 619.576 C 201 612.461, 196.603 603.806, 189.644 597.225 C 182.195 590.180, 175.351 588.557, 164.929 591.367 M 458.500 592.400 C 454.876 593.997, 450 598.740, 450 600.668 C 450 602.832, 452.880 603.418, 454.833 601.651 C 455.800 600.776, 459.646 598.675, 463.379 596.982 C 469.056 594.408, 469.969 593.667, 468.961 592.452 C 467.474 590.661, 462.503 590.636, 458.500 592.400 M 577.989 640.250 C 573.857 647.027, 577.014 656, 583.531 656 C 588.128 656, 592 652.341, 592 647.996 C 592 638.470, 582.333 633.126, 577.989 640.250 M 463.725 645.752 C 459.677 650.225, 458.770 658.770, 462 662 C 466.194 666.194, 476.168 663.064, 477.468 657.146 C 479.146 649.507, 468.393 640.593, 463.725 645.752 M 584.538 660.348 C 581.860 662.307, 583.515 664, 588.109 664 C 590.304 664, 593.401 664.673, 594.993 665.496 C 598.268 667.190, 599.665 666.112, 598.067 663.126 C 596.151 659.546, 587.941 657.860, 584.538 660.348 M 460.345 670.693 C 457.382 671.272, 451 677.661, 451 680.048 C 451 682.700, 451.549 682.542, 456.208 678.554 C 458.423 676.658, 461.532 674.822, 463.117 674.474 C 466.234 673.790, 466.975 671.588, 464.418 670.607 C 463.548 670.273, 462.761 670.061, 462.668 670.136 C 462.576 670.211, 461.530 670.462, 460.345 670.693 M 538.190 685.298 C 535.713 687.934, 534.517 692.855, 535.861 694.878 C 537.030 696.638, 539 695.458, 539 692.998 C 539 688.472, 546.024 686.658, 550.355 690.065 C 553.842 692.807, 555.435 691.742, 553.486 687.973 C 550.638 682.465, 542.232 680.995, 538.190 685.298 M 403.033 699.645 C 393.631 717.367, 368.135 724.108, 349.079 713.909 C 346.098 712.313, 343.479 711.187, 343.259 711.407 C 343.040 711.627, 344.481 724.113, 346.461 739.153 C 348.442 754.194, 350.973 773.700, 352.085 782.500 C 354.621 802.568, 353.929 800.990, 360.219 801.051 C 363.123 801.080, 368.495 801.436, 372.156 801.844 L 378.813 802.584 378.281 797.429 C 376.203 777.295, 406.309 738.242, 434.750 724.179 C 441.065 721.057, 441.072 721.019, 435.762 718.500 C 427.857 714.749, 416.523 706.733, 410.956 700.954 L 405.398 695.186 403.033 699.645 M 614.613 702.882 C 610.824 706.837, 600.198 712.923, 590.715 716.569 L 582.733 719.639 588.062 721.931 C 595.004 724.918, 601.305 726.716, 607.500 727.480 C 620.949 729.138, 626 732.588, 626 740.117 C 626 746.991, 622.017 752.757, 612.500 759.663 L 609.520 761.825 614.496 766.163 C 617.233 768.548, 627.381 777.526, 637.048 786.113 L 654.624 801.726 656.354 792.113 C 658.137 782.203, 668.338 721.321, 669.295 714.878 L 669.833 711.256 664.666 713.292 C 650.467 718.887, 626.372 712.935, 618.663 701.929 C 617.392 700.114, 617.228 700.153, 614.613 702.882 M 555.040 713.452 C 553.314 715.531, 554.165 718.449, 556.598 718.798 C 559.591 719.228, 561.437 716.685, 560.034 714.064 C 558.742 711.649, 556.740 711.404, 555.040 713.452 M 440.500 728.793 C 416.131 741.813, 396.073 762.615, 387.889 783.353 C 383.115 795.452, 384.428 801.848, 393.789 812.083 C 398.942 817.717, 405.352 821.671, 416.383 826.021 C 421.153 827.901, 423.114 829.431, 426.743 834.106 C 431.642 840.413, 432.270 840.806, 439.271 841.937 C 443.835 842.675, 444.009 842.617, 443.277 840.604 C 441.704 836.276, 442.498 831.047, 445.129 828.416 C 448.874 824.671, 457.321 825.785, 459.673 830.334 L 461.258 833.400 463.129 831.089 C 465.353 828.343, 465.476 826.061, 463.638 821.718 C 461.740 817.234, 458.627 814.666, 456.072 815.477 C 454.447 815.993, 454 815.703, 454 814.135 C 454 807.663, 463.987 812.109, 468.298 820.500 L 469.840 823.500 470.920 820.685 C 477.203 804.308, 458.839 785.653, 431.901 781.049 C 421.865 779.333, 421 779.053, 421 777.526 C 421 774.835, 432.497 774.329, 443 776.559 C 445.034 776.990, 445.943 776.429, 447.879 773.545 C 452.100 767.255, 457.086 769.889, 453.116 776.312 L 451.037 779.676 456.244 782.088 C 463.831 785.603, 473.205 795.180, 475.733 802 L 477.771 807.500 495.136 808.128 C 529.062 809.355, 586.001 809.118, 585.991 807.750 C 585.984 806.700, 581.402 783.888, 579.364 774.750 C 578.764 772.063, 578.586 772, 571.585 772 C 551.847 772, 536.187 763.083, 519.740 742.479 L 510.979 731.505 497.740 731.841 C 482.967 732.215, 472.280 731.042, 457.601 727.433 C 452.157 726.095, 447.657 725.012, 447.601 725.026 C 447.545 725.041, 444.350 726.736, 440.500 728.793 M 822.456 766.460 C 798.694 770.777, 783.357 787.646, 781.323 811.702 C 780.984 815.716, 780.660 818.995, 780.603 818.989 C 780.546 818.983, 778.291 818.308, 775.591 817.489 C 756.952 811.835, 736.715 821.688, 727.672 840.820 C 718.905 859.368, 727.443 883.914, 745.658 892.531 C 758.718 898.710, 776.399 900.615, 786.740 896.957 C 789.806 895.873, 790.233 896.036, 794.740 900.011 C 814.090 917.081, 849.612 919.292, 871.500 904.788 L 877.500 900.812 883.603 902.964 C 909.872 912.227, 939.255 908.393, 953.969 893.783 C 966.224 881.615, 969.681 863.944, 962.346 850.961 C 957.089 841.656, 945.856 835.855, 932.858 835.733 C 927.356 835.681, 926.915 835.502, 926.335 833.089 C 922.393 816.672, 904.293 806.324, 889 811.744 C 885.975 812.816, 882.712 814.035, 881.750 814.454 C 880.240 815.110, 880 814.636, 880 811.001 C 880 799.813, 873.716 785.683, 865.332 778.021 C 853.686 767.377, 839.083 763.440, 822.456 766.460 M 598.506 768.021 C 596.310 769.043, 592.335 770.179, 589.674 770.545 C 585.046 771.181, 584.865 771.325, 585.502 773.855 C 587.326 781.104, 591.985 804.793, 591.992 806.859 L 592 809.218 617.750 808.700 C 631.913 808.416, 644.990 807.803, 646.812 807.339 L 650.123 806.495 638.930 796.498 C 614.091 774.312, 604.452 766.043, 603.500 766.101 C 602.950 766.134, 600.703 766.998, 598.506 768.021 M 820.105 773.515 C 798.380 779.630, 787.041 795.994, 787.008 821.281 C 786.998 828.555, 785.894 829.074, 778.319 825.367 C 750.847 811.927, 720.472 843.556, 734.005 871.510 C 742.022 888.071, 763.426 895.811, 786.085 890.342 L 792.955 888.683 797.965 893.773 C 813.775 909.833, 848.796 912.729, 867.500 899.523 C 870.250 897.581, 873.496 895.278, 874.714 894.405 C 876.777 892.925, 877.288 892.994, 882.237 895.415 C 898.054 903.154, 925.012 903.588, 939.324 896.336 C 960.347 885.683, 966.510 860.082, 951 847.837 C 946.442 844.239, 936.081 841.571, 930.054 842.444 C 921.110 843.739, 921.625 843.946, 920.860 838.732 C 917.951 818.896, 897.379 810.431, 881.515 822.541 C 876.520 826.353, 874.004 826.925, 873.993 824.250 C 873.894 800.566, 869.472 788.425, 857.884 780.031 C 848.430 773.182, 831.599 770.279, 820.105 773.515 M 345.833 808.183 C 340.316 809.652, 338.477 812.261, 338.623 818.414 C 338.851 827.977, 345.361 834.723, 356.500 836.936 C 361.887 838.007, 420.859 840.474, 421.670 839.663 C 423.176 838.157, 418.238 834.017, 412.031 831.582 C 402.509 827.846, 394.533 822.463, 387.944 815.324 L 382.388 809.306 368.944 808.150 C 353.563 806.828, 350.909 806.831, 345.833 808.183 M 624 815.116 C 612.725 815.600, 575.263 815.723, 540.750 815.389 L 478 814.781 478 817.575 C 478 821.989, 474.195 828.718, 467.884 835.465 L 462.064 841.686 481.990 842.303 C 511.375 843.213, 607.001 842.055, 633.449 840.469 C 659.264 838.921, 659.250 838.925, 664.385 830.669 C 668.319 824.343, 668.421 819.469, 664.678 816.636 C 661.258 814.047, 654.645 813.800, 624 815.116 M 448.003 830.995 C 445.620 835.447, 448.045 843, 451.857 843 C 457.735 843, 457.582 833.571, 451.653 830.495 C 449.279 829.263, 448.902 829.315, 448.003 830.995 M 357.848 844.486 C 357.394 844.939, 360.806 872.140, 361.390 872.723 C 361.537 872.870, 372.422 873.369, 385.579 873.831 C 398.735 874.293, 410.268 875.011, 411.206 875.426 C 412.721 876.096, 412.946 875.302, 413.206 868.340 C 413.473 861.221, 413.695 860.472, 415.623 860.197 C 418.566 859.777, 418.711 860.683, 418.209 876.304 C 417.778 889.707, 417.703 890.099, 415.633 889.804 C 413.861 889.552, 413.449 888.719, 413.201 884.887 L 412.902 880.273 387.701 879.765 C 373.840 879.486, 362.350 879.387, 362.168 879.545 C 361.985 879.702, 363.086 889.736, 364.615 901.841 L 367.395 923.852 370.448 924.393 C 372.126 924.691, 379.237 925.240, 386.249 925.614 C 399.762 926.333, 403.503 927.696, 399.664 930.504 C 397.928 931.773, 391.650 931.776, 374.912 930.513 L 368.324 930.016 369.759 937.758 C 370.549 942.016, 371.938 947.750, 372.847 950.500 C 374.780 956.349, 375.932 956.798, 396 959.542 C 402.325 960.407, 409.750 961.429, 412.500 961.813 C 417.588 962.524, 420.210 965.938, 416.703 967.284 C 415.057 967.915, 385.575 964.529, 380.485 963.123 C 376.038 961.896, 376.102 962.478, 381.250 970.159 C 392.829 987.435, 418.756 992.212, 502 992.407 C 596.708 992.630, 615.667 988.732, 626.381 966.833 C 630.725 957.955, 633.299 948.671, 631.194 949.479 C 626.164 951.409, 587.257 955.696, 584.471 954.627 C 583.490 954.251, 582.985 953.127, 583.180 951.754 C 583.474 949.685, 584.198 949.441, 592 948.777 C 602.877 947.851, 623.001 945.193, 629.204 943.863 C 632.829 943.085, 634.136 942.303, 634.544 940.667 C 635.490 936.876, 644.833 881.511, 644.572 881.245 C 644.435 881.104, 639.187 881.861, 632.911 882.927 C 614.854 885.993, 604.168 886.601, 603.402 884.604 C 602.267 881.647, 604.779 880.312, 612.748 879.638 C 622.138 878.845, 644.185 875.038, 645.310 874.016 C 646.092 873.305, 649.999 851.372, 650 847.689 C 650 846.068, 649.295 845.935, 643.250 846.415 C 639.538 846.709, 631.775 847.191, 626 847.486 C 606.405 848.484, 596.504 849.146, 595.250 849.542 C 594.460 849.792, 593.996 851.879, 593.989 855.219 C 593.965 867.153, 591.075 888.456, 589.303 889.760 C 585.973 892.210, 584.879 889.367, 585.918 880.962 C 586.426 876.858, 587.159 867.987, 587.549 861.250 L 588.257 849 530.378 848.769 C 498.545 848.643, 466.425 848.502, 459 848.456 C 451.575 848.411, 435.150 847.820, 422.500 847.144 C 354.617 843.514, 358.654 843.680, 357.848 844.486 M 469.296 882.671 C 467.502 887.345, 477.203 888.340, 519.392 887.812 C 541.653 887.533, 544.398 887.318, 545.369 885.778 C 546.075 884.658, 546.113 883.733, 545.478 883.136 C 543.782 881.541, 469.903 881.090, 469.296 882.671 M 402.667 906.667 C 401.223 908.110, 402.117 911.090, 404.250 911.944 C 407.588 913.281, 436.075 915.863, 455.590 916.598 C 472.995 917.254, 477 916.688, 477 913.572 C 477 911.554, 474.670 911, 466.168 910.996 C 454.327 910.991, 428.568 909.173, 416.962 907.524 C 405.035 905.828, 403.591 905.742, 402.667 906.667 M 594.500 914.528 C 582.063 915.953, 570.928 916.669, 546.773 917.598 C 529.184 918.274, 526.780 918.950, 529.370 922.492 C 530.646 924.236, 531.936 924.264, 557.603 923.118 C 572.396 922.458, 589.675 921.280, 596 920.502 C 602.325 919.723, 608.257 919.067, 609.183 919.043 C 611.388 918.987, 612.671 915.040, 610.857 913.890 C 609.254 912.875, 608.759 912.894, 594.500 914.528 M 466.112 948.792 C 465.577 949.790, 465.474 951.149, 465.883 951.811 C 467.026 953.661, 533.323 955.915, 537.750 954.255 C 538.438 953.997, 539 952.709, 539 951.393 L 539 949 526.250 948.958 C 519.237 948.935, 509.450 948.730, 504.500 948.501 C 469.099 946.866, 467.134 946.881, 466.112 948.792" stroke="none" fill="#1a1a1a" fill-rule="evenodd"/>
</svg>