<svg xmlns="http://www.w3.org/2000/svg" width="1024" height="1024" viewBox="0 0 1024 1024" version="1.1">
	<path d="M 477.970 31.998 C 466.343 33.050, 445.968 37.095, 435.268 40.475 C 421.058 44.964, 394.917 58.861, 380.658 69.506 C 369.531 77.813, 367.596 78.920, 366.158 77.796 C 365.246 77.083, 361.503 73.957, 357.839 70.849 C 339.480 55.273, 304.160 42.309, 275 40.445 C 227.559 37.412, 186.303 67.449, 169.165 117.500 C 158.063 149.920, 160.974 184.101, 178.233 224 C 190.423 252.180, 191.529 256.799, 192.958 285.500 C 194.597 318.399, 201.223 333.263, 221.942 350.523 C 226.227 354.092, 229.299 357.473, 229.629 358.984 C 230.931 364.935, 232.362 368.302, 235.578 372.977 C 239.445 378.599, 239.576 379, 237.538 379 C 234.699 379, 224.931 383.187, 221.984 385.667 L 219 388.178 219 401.961 L 219 415.744 215.200 416.352 C 208.970 417.348, 199.584 422.669, 194.536 428.065 C 180.071 443.529, 175.367 476.594, 184.616 497.788 C 192.260 515.305, 207.720 531.782, 220.454 535.985 C 224.366 537.276, 225 539.365, 225 550.968 C 225 557.111, 225.474 559.585, 227.323 563.093 C 234.829 577.337, 273.778 589.969, 310.262 589.992 L 322.024 590 321.401 594.250 C 321.058 596.587, 318.288 611.100, 315.244 626.500 C 308.420 661.035, 307.924 669.589, 312.405 675.464 C 314.003 677.560, 318.139 681.325, 321.597 683.833 L 327.883 688.391 328.453 694.946 C 328.964 700.818, 330.225 707.901, 334.519 729 C 336.189 737.206, 336.339 745.759, 335.317 774.500 C 334.143 807.544, 336.752 869.873, 340.034 887.177 C 340.848 891.471, 340.714 892.596, 339.116 894.854 C 336.149 899.049, 326.427 918.958, 324.395 925 C 321.278 934.268, 321.726 950.183, 325.273 956.218 C 332.389 968.322, 349.184 973.753, 382.500 974.722 C 434.077 976.222, 462.538 967.799, 473.157 947.892 L 475.500 943.500 475.603 901.500 C 475.712 857.177, 475.498 860.293, 481.603 814.207 L 483.365 800.915 490.432 801.599 C 494.320 801.975, 497.824 802.781, 498.220 803.391 C 499.820 805.857, 505.031 823.948, 506.028 830.500 C 507.873 842.630, 516.896 877.825, 522.662 895.385 C 528.973 914.603, 528.987 915.788, 523.081 931.125 C 515.916 949.733, 514.250 969.341, 519.096 978.018 C 523.797 986.433, 532.559 991.005, 547.604 992.891 C 597.111 999.099, 648.214 988.904, 667.446 968.983 C 679.420 956.580, 680.885 949.150, 676.116 925 C 668.412 885.987, 664.851 853.851, 664.646 821.500 C 664.566 808.850, 664.865 795.951, 665.311 792.836 L 666.122 787.173 672.462 791.971 C 686.500 802.597, 716.766 808.095, 735.421 803.409 C 741.691 801.834, 741.791 801.842, 745.626 804.230 C 763.921 815.615, 788.187 812.643, 805.351 796.915 C 818.504 784.863, 830.582 763.580, 827.235 758.353 C 826.831 757.721, 818.175 755.768, 808 754.012 C 785.768 750.174, 773.418 750.156, 763.655 753.946 C 755.717 757.027, 745.325 766.860, 740.841 775.532 L 737.500 781.993 732.500 781.982 C 715.586 781.944, 695.738 771.009, 684.913 755.763 C 677.779 745.714, 675.639 740.687, 676.332 735.600 C 679.858 709.729, 680.106 691.867, 677.055 683.619 C 676.490 682.091, 677.479 680.188, 681.244 675.560 C 685.991 669.723, 686.154 669.313, 685.676 664.420 C 684.521 652.597, 671.544 599.829, 664.053 576.500 C 656.237 552.154, 655.605 547.183, 658.469 532.584 C 665.424 497.139, 660.709 472.435, 642.321 447.973 C 636.607 440.373, 621.350 427.462, 610.764 421.271 L 603.028 416.747 608.900 413.970 C 621.895 407.824, 641.139 392.939, 647.963 383.755 L 651.426 379.095 653.463 383.870 C 664.418 409.557, 686.525 428.125, 717.500 437.658 C 725.997 440.273, 727.534 440.425, 745 440.372 C 770.819 440.293, 779.426 437.754, 799.810 424.203 C 816.045 413.409, 820.299 407.633, 836.873 373.874 C 847.028 353.188, 850.221 347.684, 857.974 337.500 C 880.563 307.827, 885.585 300.848, 891.481 290.936 C 906.135 266.299, 913.010 239.911, 912.992 208.372 C 912.964 161.378, 901.374 130.713, 871.854 99.527 C 843.980 70.080, 793.816 51.347, 752.340 54.897 C 715.416 58.057, 692.375 67.659, 665 91.295 L 657.500 97.771 648.882 89.479 C 608.474 50.601, 537.220 26.637, 477.970 31.998 M 484.469 41.058 C 447.170 43.939, 417.393 55.257, 386.248 78.392 C 334.163 117.082, 312.632 161.159, 309.502 235.500 C 308.537 258.420, 307.155 269.593, 304.559 275.462 L 302.222 280.748 306.861 281.307 C 312.667 282.007, 329.004 288.765, 337.785 294.100 L 344.432 298.138 349.966 296.319 C 359.339 293.238, 371.981 293.776, 380 297.597 C 391.188 302.929, 401.401 313.999, 398.140 317.260 C 397.276 318.124, 395.942 317.399, 392.746 314.326 C 379.933 302.007, 365.427 297.064, 353.568 300.978 C 349.257 302.400, 349.279 302.091, 353.105 307.652 C 356.766 312.974, 360.230 322.238, 359.383 324.445 C 358.181 327.577, 356.373 326.154, 351.714 318.410 C 344.670 306.703, 337.074 301.308, 317.033 293.779 C 296.554 286.086, 281.060 288.622, 262.306 302.738 C 248.169 313.378, 236.674 336.840, 238.253 351.834 C 239.763 366.183, 252.332 383, 261.545 383 C 266.433 383, 277.933 379.142, 282.584 375.942 C 286.622 373.164, 286.716 372.965, 287.370 365.804 C 288.076 358.081, 291.361 349.794, 295.033 346.470 C 296.922 344.761, 297.651 344.718, 304.787 345.903 C 317.384 347.994, 328.138 352.652, 342.698 362.324 C 371.177 381.240, 397.752 390.473, 416.836 388.080 C 440.485 385.114, 454.475 376.340, 469.576 355 C 473.540 349.399, 476.345 346.391, 477.800 346.180 C 486.020 344.989, 475.314 366.121, 461.099 379.147 C 454.079 385.579, 454.343 385.836, 464.376 382.348 C 469.361 380.614, 471 380.646, 471 382.477 C 471 385.654, 461.689 389.300, 450.500 390.505 C 447.200 390.860, 440.675 392.206, 436 393.495 C 431.325 394.784, 425.703 396.141, 423.508 396.510 C 418.558 397.343, 417.951 397.708, 418.620 399.452 C 419.773 402.456, 460.511 418.906, 474.471 422.004 C 522.490 432.663, 584.814 421.005, 620.724 394.648 C 642.110 378.951, 655.642 359.939, 664.462 333.194 C 666.856 325.937, 667.473 324.926, 669.351 325.194 C 674.198 325.885, 671.420 340.396, 662.918 358.799 C 658.592 368.162, 658.236 370.900, 660.595 376.628 C 670.226 400.004, 681.401 411.304, 707.546 424.104 C 721.538 430.954, 728.940 432.367, 746.393 431.520 C 769.217 430.411, 779.868 426.754, 796.344 414.371 C 808.844 404.976, 812.499 399.845, 825.759 373.084 C 838.282 347.811, 844.240 338.047, 856.623 322.500 C 882.690 289.773, 888.884 279.557, 895.856 257.790 C 908.490 218.346, 905.622 173.401, 888.243 138.500 C 880.187 122.319, 860.565 99.694, 846.318 90.157 C 825.550 76.253, 786.293 63, 765.880 63 C 723.033 63, 691.176 77.651, 655.556 113.739 C 643.172 126.286, 639.889 128.246, 639.220 123.490 C 638.921 121.361, 641.041 118.039, 647.619 110.329 L 651.738 105.500 642.644 97.501 C 637.642 93.101, 631.513 87.896, 629.025 85.934 C 590.308 55.403, 532.218 37.370, 484.469 41.058 M 251 51.917 C 231.114 56.363, 217.633 64.257, 201.939 80.648 C 176.442 107.275, 165.835 151.189, 175.645 189.500 C 177.484 196.683, 181.822 207.958, 191.034 229.500 C 199.549 249.411, 200.843 255.460, 201.980 280.642 C 203.342 310.820, 207.630 323.008, 222.949 340.250 C 228.140 346.092, 228.576 346.113, 229.337 340.559 C 233.039 313.550, 257.572 287.331, 285.606 280.424 C 289.398 279.490, 292.998 278.601, 293.607 278.449 C 296.076 277.832, 298.019 264.598, 299.496 238.317 C 302.270 188.985, 305.582 172.537, 318.566 143.613 L 323.372 132.908 320.646 127.351 C 315.324 116.499, 305.138 107.151, 291.047 100.184 C 283.659 96.532, 283.493 96.502, 272.047 96.678 C 265.696 96.775, 259.150 97, 257.500 97.178 C 255.062 97.440, 254.500 97.127, 254.500 95.505 C 254.500 89.906, 276.418 86.758, 288.699 90.594 C 294.051 92.266, 310.328 102.305, 315.861 107.348 C 318.644 109.884, 325.704 120.025, 326.857 123.143 C 327.592 125.129, 328.022 124.803, 331.792 119.409 C 339.982 107.690, 342.640 104.406, 351.447 95.123 L 360.394 85.693 356.947 82.764 C 346.317 73.732, 328.847 63.481, 315.588 58.495 C 295.803 51.054, 267.673 48.189, 251 51.917 M 752.483 110.523 C 720.029 117.655, 692.272 143.838, 677.982 180.798 C 673.568 192.212, 672.955 196.340, 675.750 195.823 C 676.869 195.617, 679.844 190.777, 684 182.401 C 708.844 132.337, 751.313 106.752, 790.265 118.383 C 801.315 121.682, 803.244 121.739, 802.820 118.752 C 801.854 111.962, 769.789 106.720, 752.483 110.523 M 352.746 175.086 C 344.630 176.999, 331 186.882, 331 190.855 C 331 194.095, 334.204 194.230, 338.294 191.162 C 344.606 186.425, 353.559 182.248, 359.003 181.500 C 364.386 180.759, 365.585 179.280, 363.368 176.115 C 361.775 173.841, 359.119 173.584, 352.746 175.086 M 526.465 191.890 C 519.179 195.063, 520.970 198.604, 530.166 199.207 C 539.620 199.827, 546.279 203.151, 555.071 211.639 C 561.844 218.177, 563.858 219.081, 565.977 216.528 C 568.696 213.252, 556.815 200.460, 545.967 194.983 C 539.306 191.621, 530.347 190.200, 526.465 191.890 M 334.302 255.009 C 328.220 259.482, 325.232 268.200, 328.329 272.435 C 330.073 274.820, 333.005 273.345, 335.931 268.612 C 339.670 262.562, 344.102 263.361, 347.881 270.765 C 348.929 272.819, 350.735 275.357, 351.894 276.405 C 353.052 277.453, 354 279.140, 354 280.155 C 354 281.461, 354.737 282, 356.525 282 C 362.177 282, 362.767 266.986, 357.376 260.326 C 350.651 252.017, 341.301 249.862, 334.302 255.009 M 379.687 269.044 C 374.112 269.980, 370 272.355, 370 274.640 C 370 276.012, 370.935 276.132, 376.750 275.502 C 395.470 273.473, 407.276 276.492, 424.134 287.621 C 430.854 292.056, 434 293.045, 434 290.723 C 434 288.365, 430.960 285.072, 424.578 280.518 C 410.521 270.487, 394.885 266.491, 379.687 269.044 M 504.542 285.932 C 502.407 289.387, 508.202 305.583, 512.726 308.805 C 522.327 315.641, 540.720 312.229, 549.106 302.056 C 555.764 293.978, 549.527 288.087, 541.644 295.008 C 529.970 305.258, 518.673 303.722, 512.162 291 C 509.419 285.640, 506.091 283.426, 504.542 285.932 M 297.609 359.020 C 296.724 361.231, 296 365.669, 296 368.883 L 296 374.725 304.750 375.414 C 313.094 376.071, 318.058 376.674, 335 379.088 C 341.308 379.987, 347.950 381.424, 360.500 384.605 C 361.600 384.884, 358 382.705, 352.500 379.763 C 347 376.821, 338.900 371.923, 334.500 368.878 C 319.932 358.796, 311.297 355, 302.927 355 C 299.529 355, 299.082 355.338, 297.609 359.020 M 286.568 385.869 C 283.179 388.192, 271.025 391.546, 262.927 392.393 C 257.926 392.916, 256.869 392.669, 252.642 389.988 C 247.039 386.435, 246.224 386.387, 237.355 389.088 C 224.395 393.037, 225.288 394.511, 244.500 400.880 C 279.312 412.421, 334.565 414.166, 369.383 404.824 L 377.266 402.709 374.883 400.903 C 364.720 393.202, 333.307 386.218, 301 384.478 C 290.531 383.914, 289.237 384.039, 286.568 385.869 M 383.114 394.324 C 387.466 397.411, 388 399.532, 388 413.740 L 388 424.230 390.485 422.602 C 392.715 421.141, 407.825 414.209, 413.872 411.873 C 416.133 410.999, 415.971 410.778, 410.372 407.107 C 407.142 404.990, 403.572 402.361, 402.437 401.264 C 399.566 398.490, 397.041 397.256, 389.394 394.895 C 385.748 393.768, 382.030 392.603, 381.133 392.305 C 380.235 392.006, 381.126 392.915, 383.114 394.324 M 227.847 406.128 C 227.544 410.809, 230.602 486.530, 231.981 508.500 C 232.499 516.750, 233.232 531.111, 233.612 540.414 L 234.301 557.327 237.592 560.970 C 247.344 571.765, 278.869 580.365, 308.500 580.315 C 345.422 580.253, 371.344 572.945, 358.250 566.290 C 350.234 562.216, 347.413 548.771, 352.990 541.228 C 355.383 537.990, 363.913 533, 367.053 533 C 368.450 533, 368.819 531.371, 369.373 522.750 C 369.736 517.112, 370.747 505.344, 371.619 496.597 C 373.134 481.410, 373.124 480.649, 371.408 479.689 C 367.086 477.270, 360.973 470.497, 359.404 466.388 C 356.154 457.878, 360.777 450.494, 372.572 445.355 L 378.862 442.615 378.883 427.219 C 378.902 413.121, 378.761 411.879, 377.202 412.493 C 358.089 420.013, 310.762 422.363, 277.737 417.432 C 254.507 413.964, 233.934 408.680, 229.575 405.063 C 228.220 403.938, 227.979 404.086, 227.847 406.128 M 422 416.964 C 415.775 418.935, 402.822 424.514, 395.750 428.269 L 388 432.385 388 437.553 L 388 442.721 392.750 443.302 C 395.363 443.621, 401.325 445.052, 406 446.481 C 410.675 447.911, 418.251 449.510, 422.836 450.035 C 444.271 452.489, 465.680 464.328, 484.500 484.133 L 491.500 491.500 510.500 497.172 C 520.950 500.291, 530.180 503.110, 531.011 503.437 C 532.086 503.859, 533.753 502.034, 536.798 497.100 C 545.842 482.442, 561.931 462.713, 567.091 459.952 C 568.280 459.315, 569.182 459.514, 570.097 460.616 C 571.757 462.617, 571.097 463.691, 560.460 476.304 C 552.481 485.764, 537.560 505.951, 538.178 506.449 C 538.355 506.591, 541.821 508.435, 545.879 510.546 C 554.127 514.835, 564 523.252, 564 525.993 C 564 529.515, 560.822 529.070, 552.126 524.332 C 536.697 515.924, 532.643 514.059, 523 510.929 C 512.921 507.658, 497.024 503.642, 496.445 504.221 C 496.255 504.412, 496.579 507.800, 497.166 511.751 C 499.839 529.762, 489.762 561.246, 476.257 577.077 C 468.889 585.713, 463.924 589.253, 455.893 591.593 L 448.709 593.687 455.105 600.184 C 474.965 620.360, 514.180 633.996, 552.356 633.999 C 575.200 634, 580.913 632.476, 596.136 622.316 C 620.392 606.127, 642.890 565.942, 650.619 525 C 654.515 504.363, 651.312 481.341, 642.271 465 C 633.351 448.877, 614.657 432.079, 598.387 425.565 C 590.521 422.416, 589.291 422.406, 580.431 425.413 C 571.295 428.514, 557.525 431.464, 542.616 433.514 C 533.289 434.797, 528.406 436.101, 519.922 439.576 C 499.310 448.018, 485.432 449.810, 470.438 445.964 C 453.992 441.746, 445.677 435.949, 444.121 427.616 C 443 421.616, 442.932 421.553, 434.233 418.514 C 426.545 415.828, 425.860 415.741, 422 416.964 M 208.491 427.844 C 205.186 429.408, 201.070 432.296, 199.343 434.262 C 190.930 443.845, 185.641 471.335, 189.400 485.946 C 191.507 494.132, 203.428 514.296, 209.435 519.833 C 213.759 523.819, 224.009 529.758, 223.990 528.267 C 223.985 527.845, 223.093 511.075, 222.007 491 C 220.921 470.925, 220.021 450.225, 220.008 445 C 219.951 423.609, 219.347 422.709, 208.491 427.844 M 453 427.564 C 453 430.047, 460.652 434.650, 469.726 437.624 C 480.698 441.220, 496.424 441.622, 506.777 438.571 C 516.024 435.846, 515.323 435.001, 503.809 434.993 C 492.442 434.986, 476.337 432.535, 462.197 428.660 C 454.754 426.621, 453 426.412, 453 427.564 M 377.997 453.951 C 373.831 454.604, 370.783 456.623, 369.057 459.875 C 366.315 465.039, 375.565 471.956, 385.250 471.984 C 388.413 471.993, 391 471.603, 391 471.119 C 391 469.838, 396.827 464.275, 401.750 460.856 C 404.087 459.232, 406 457.547, 406 457.110 C 406 454.634, 387.187 452.512, 377.997 453.951 M 415.264 462.804 C 409.309 465.188, 401.522 470.922, 402.674 472.074 C 403.187 472.587, 406.283 473.695, 409.554 474.536 C 420.300 477.300, 432.049 487.380, 428.574 490.854 C 427.391 492.038, 426.254 491.485, 420.843 487.095 C 415.068 482.409, 407.566 479, 403.029 479 C 401.537 479, 394 494.590, 394 497.674 C 394 498.307, 395.913 499.129, 398.250 499.501 C 407.990 501.053, 419 508.050, 419 512.687 C 419 515.946, 416.809 515.604, 411.444 511.509 C 406.500 507.736, 397.697 504.672, 393.262 505.182 C 390.702 505.477, 390.417 505.975, 389.358 512 C 386.554 527.960, 387.705 530.307, 401.291 536.326 C 413.463 541.718, 407.877 544.857, 395.213 539.742 C 391.796 538.362, 389 537.521, 389 537.873 C 389 540.509, 399.759 559.516, 403.804 564.026 C 413.992 575.385, 442.355 585.405, 454.820 582.049 C 467.587 578.611, 482.688 553.407, 486.728 528.792 C 489.309 513.072, 487.361 501.154, 480.929 493.300 C 462.808 471.173, 431.121 456.457, 415.264 462.804 M 385.250 484.536 C 383.462 485.288, 381.996 486.038, 381.992 486.202 C 381.988 486.366, 381.315 491.865, 380.497 498.422 C 379.089 509.706, 379.012 514.691, 380.348 508.011 C 380.684 506.329, 382.814 500.209, 385.081 494.411 C 387.348 488.613, 389.045 483.712, 388.851 483.519 C 388.658 483.327, 387.038 483.784, 385.250 484.536 M 377.641 523.210 C 377.303 524.470, 377.076 527.300, 377.136 529.500 C 377.229 532.945, 377.364 532.678, 378.108 527.570 C 378.994 521.498, 378.738 519.114, 377.641 523.210 M 363.315 544.473 C 360.435 545.717, 357 550.315, 357 552.925 C 357 558.328, 378.645 557.895, 385.894 552.346 C 386.111 552.180, 385.554 550.122, 384.656 547.772 L 383.023 543.500 374.762 543.299 C 369.537 543.172, 365.329 543.603, 363.315 544.473 M 647.049 568.723 C 634.666 599.277, 616.990 621.518, 594.894 634.347 C 576.768 644.871, 548.816 646.254, 512.500 638.424 C 480.885 631.607, 452.376 614.804, 439.466 595.376 C 436.539 590.973, 435.389 590.084, 431.280 589.054 C 417.724 585.655, 404.860 578.764, 395.440 569.855 L 390.354 565.044 381.718 566.771 L 373.082 568.497 371.523 572.578 C 368.303 581.012, 359.212 585.663, 341.293 588.047 L 332.085 589.272 331.081 594.386 C 329.950 600.146, 322.554 639.520, 320.447 651 C 317.567 666.685, 318.551 670.201, 327.402 675.866 C 353.442 692.529, 381.657 703.482, 420.500 712.004 C 496.122 728.596, 600.484 716.459, 653.513 684.905 C 664.695 678.252, 676 668.490, 676 665.487 C 676 659.478, 659.320 591.332, 653.504 573.580 C 649.765 562.166, 649.720 562.133, 647.049 568.723 M 657.887 693.982 C 630.216 710.042, 583.347 722.699, 535.500 727.032 C 520.083 728.428, 473.890 728.420, 459 727.019 C 418.979 723.253, 381.101 713.019, 342.632 695.581 L 336.763 692.921 337.313 695.210 C 337.616 696.470, 338.148 699.300, 338.497 701.500 C 338.845 703.700, 340.496 711.327, 342.166 718.448 C 345.713 733.573, 345.953 740.152, 344.614 785.500 C 343.639 818.551, 347.051 885.535, 349.985 890.904 C 350.871 892.527, 348.435 898.449, 343.408 906.887 C 340.078 912.477, 333 928.214, 333 930.028 C 333 930.507, 334.561 930.246, 336.468 929.449 C 345.678 925.601, 353.907 930.281, 357.189 941.236 C 358.567 945.837, 358.233 945.845, 363.652 941.075 C 380.161 926.543, 401.706 937.250, 399.733 959.006 L 399.190 965 403.044 965 C 417.915 965, 444.429 959.713, 451.826 955.272 C 466.817 946.273, 466.570 947.164, 466.172 903.477 C 465.885 871.992, 466.113 865, 467.976 847.977 C 470.023 829.270, 473.594 803.228, 474.566 799.913 C 474.926 798.684, 473.730 798.034, 469.266 797.036 C 449.260 792.560, 428.159 782.887, 418.314 773.677 C 412.013 767.783, 410.590 764.755, 413.582 763.607 C 416.578 762.457, 418.160 763.013, 424.321 767.378 C 440.668 778.960, 470.640 789.365, 494 791.568 C 505.195 792.624, 505.582 792.878, 507.907 800.704 C 509.769 806.974, 511.108 812.443, 518.409 843.603 C 522.523 861.160, 528.747 883.337, 533.676 898 C 537.631 909.767, 538.072 911.894, 537.107 914.571 C 536.498 916.260, 536 918.613, 536 919.799 C 536 920.986, 534.248 927.254, 532.106 933.728 C 529.965 940.203, 527.927 947.147, 527.578 949.161 L 526.943 952.821 531.630 951.411 C 539.314 949.098, 545.090 949.556, 549.600 952.836 C 554.727 956.565, 560.863 963.445, 562.471 967.268 L 563.756 970.325 565.010 967.912 C 574.514 949.634, 595.794 947.605, 606.200 963.985 C 608.811 968.094, 609.645 970.374, 611.419 978.250 C 612.252 981.951, 613.796 981.846, 630.599 976.949 C 651.924 970.733, 663.556 962.622, 667.425 951.266 C 669.583 944.932, 669.442 942.224, 666.043 924.723 C 652.681 855.924, 651.309 803.429, 661.632 756 C 669.475 719.968, 669.313 721.013, 669.408 706 C 669.530 686.784, 669.801 687.067, 657.887 693.982 M 670.147 759.943 C 667.827 773.990, 669.099 778.111, 677.713 784.449 C 693.469 796.042, 731.301 800.060, 739.491 791.010 C 740.491 789.904, 740.817 789, 740.214 789 C 739.611 789, 738.801 789.513, 738.414 790.139 C 737.345 791.869, 721.703 790.451, 714.022 787.929 C 697.457 782.490, 682.749 771, 674.110 756.750 C 672.860 754.688, 671.715 753, 671.565 753 C 671.415 753, 670.777 756.124, 670.147 759.943 M 768.782 761.938 C 761.631 764.734, 754.363 770.575, 749.949 777.075 C 746.179 782.626, 746.078 782.971, 747.924 783.960 C 751.646 785.951, 758.497 784.509, 764.426 780.486 C 768.916 777.439, 771.648 777.316, 772.538 780.120 C 774.260 785.544, 764.372 792, 754.343 792 C 745.804 792, 746.265 794.134, 755.842 798.951 C 770.268 806.206, 788.641 801.558, 802.120 787.244 C 807.749 781.266, 815 769.999, 815 767.231 C 815 765.638, 810.261 764.179, 798.075 762.022 C 783.941 759.521, 775.031 759.495, 768.782 761.938 M 361.190 902.750 C 362.241 908.205, 413.500 915.309, 413.500 910 C 413.500 908.843, 411.097 908.207, 403 907.219 C 397.225 906.514, 386.361 904.827, 378.857 903.469 C 362.330 900.478, 360.740 900.413, 361.190 902.750 M 553.159 919.308 C 552.237 920.419, 552.284 920.991, 553.373 921.894 C 555.420 923.593, 575.473 925.141, 591 924.798 C 603.734 924.517, 604.500 924.387, 604.500 922.500 C 604.500 920.583, 603.632 920.475, 583.500 919.895 C 571.950 919.563, 560.665 918.974, 558.421 918.586 C 555.430 918.070, 554.027 918.262, 553.159 919.308 M 338.976 933.839 C 332.195 937.410, 329.831 947.268, 334.442 952.748 C 336.630 955.349, 350.562 962.771, 351.498 961.835 C 352.674 960.660, 353.474 944.696, 352.546 940.932 C 350.839 934.006, 344.727 930.811, 338.976 933.839 M 376.460 940.064 C 370.034 941.933, 359 955.503, 359 961.538 C 359 963.139, 371.595 965, 382.434 965 C 392.132 965, 392.002 965.134, 391.996 955.168 C 391.992 947.158, 389.674 942.597, 384.510 940.440 C 380.664 938.833, 380.691 938.834, 376.460 940.064 M 536.415 956.374 C 529.875 959.322, 525.145 970.520, 528.364 975.433 C 530.376 978.503, 539.020 981.745, 548.837 983.110 C 553.034 983.694, 556.782 984.365, 557.165 984.602 C 559.958 986.328, 558.259 973.904, 554.558 965.536 C 550.844 957.138, 543.239 953.297, 536.415 956.374 M 578.186 960.980 C 572.684 964.966, 568.286 974.831, 568.035 983.750 C 567.996 985.143, 586.697 985.524, 597.853 984.358 C 604.950 983.616, 605.304 982.754, 602.457 973.167 C 598.577 960.102, 587.250 954.414, 578.186 960.980" stroke="none" fill="#1a1a1a" fill-rule="evenodd"/>
</svg>