<svg xmlns="http://www.w3.org/2000/svg" width="1024" height="1024" viewBox="0 0 1024 1024" version="1.1">
	<path d="M 474.500 55.444 C 421.115 61.885, 376.120 77.617, 337.500 103.346 C 271.277 147.463, 235.699 200.279, 235.681 254.500 C 235.671 285.136, 246.242 315.903, 259.056 322.529 C 260.844 323.453, 261.911 324.941, 262.200 326.910 C 263.577 336.294, 259.626 448.322, 257.409 462.750 C 256.912 465.984, 256.880 466, 251.138 466 C 237.303 466, 226.616 469.971, 220.559 477.363 C 218.567 479.794, 215.629 482.325, 214.032 482.987 C 212.435 483.648, 210.087 485.728, 208.814 487.608 C 207.541 489.488, 204.847 492.130, 202.826 493.478 C 196.085 497.973, 192 502.130, 192 504.493 C 192 505.750, 187.647 513.241, 182.326 521.139 C 165.366 546.318, 160.342 560.503, 161.302 580.500 C 161.950 593.994, 164.531 604.167, 170.506 616.781 L 175.040 626.353 172.130 633.974 C 165.099 652.387, 157.277 684.214, 152.340 714.500 C 150.112 728.168, 149.801 761.307, 151.814 770.500 C 159.009 803.355, 175.938 823.206, 202.568 830.017 C 223.446 835.357, 259.051 829.813, 287.196 816.840 C 293.874 813.762, 294.179 813.715, 297.439 815.269 C 306.473 819.578, 325.341 816.857, 335.250 809.818 C 337.198 808.434, 337.996 808.248, 337.985 809.182 C 337.905 816.024, 333.855 862.682, 332.997 866.637 C 332.001 871.229, 331.558 871.838, 328.816 872.387 C 327.130 872.724, 258.502 873, 176.309 873 C 75.208 873, 26.243 873.335, 24.934 874.035 C 22.602 875.283, 22.366 879.543, 24.582 880.393 C 25.452 880.727, 98.914 881.006, 187.832 881.014 C 276.749 881.021, 350.459 881.285, 351.631 881.599 C 353.570 882.120, 353.645 882.410, 352.466 884.835 C 343.111 904.085, 342.593 915.518, 350.923 918.968 C 353.673 920.107, 354 920.692, 354 924.473 C 354 931.757, 360.590 939.101, 367.503 939.521 C 370.501 939.703, 371.416 940.314, 372.813 943.066 C 375.503 948.368, 382.025 951.285, 389.862 950.693 C 395.452 950.271, 396.666 950.515, 399.862 952.706 C 405.520 956.583, 411.377 955.596, 430.575 947.530 C 448.665 939.929, 454.815 938.865, 468.833 940.915 C 488.737 943.826, 503.792 942.240, 521.212 935.399 L 530.500 931.751 542 932.391 C 548.325 932.743, 560.025 933.452, 568 933.965 C 584.605 935.035, 615.859 933.878, 634.929 931.488 C 680.603 925.763, 704.009 913.872, 715.800 890.403 L 719.868 882.307 728.184 881.659 C 732.758 881.303, 744.666 881.009, 754.647 881.006 L 772.793 881 773.901 889.250 C 774.509 893.788, 775.910 904.856, 777.014 913.847 C 779.845 936.913, 780.337 938.527, 785.457 941.528 C 811.252 956.645, 880.702 956.313, 901.880 940.972 C 907.435 936.948, 907.683 936.249, 909.515 919.417 C 910.407 911.213, 911.782 899.579, 912.569 893.564 C 913.356 887.549, 914 882.486, 914 882.314 C 914 882.141, 930.763 881.996, 951.250 881.991 C 994.451 881.981, 998.360 881.700, 999.820 878.496 C 1001.830 874.085, 1001.018 874, 956.739 874 L 914.877 874 915.463 869.750 C 916.062 865.408, 921.904 811.750, 924.038 791 C 926.205 769.926, 925.912 759.625, 923.059 756.575 C 914.322 747.232, 873.570 739.250, 840 740.305 C 815.119 741.087, 784.285 745.671, 773.925 750.127 C 760.963 755.704, 760.073 761.064, 764.890 804.500 C 769.121 842.642, 772.045 871.289, 771.739 871.594 C 771.599 871.734, 760.063 872.176, 746.103 872.576 L 720.720 873.304 721.329 869.902 C 722.374 864.065, 723.846 846.127, 724.539 830.789 L 725.204 816.077 728.454 814.159 C 736.045 809.681, 736.971 803.662, 734.459 775.122 C 729.922 723.574, 718.120 685.223, 697.135 653.840 C 673.770 618.898, 635.328 596.924, 586.585 590.648 C 572.754 588.868, 571.535 588.092, 570.020 580.106 C 568.160 570.299, 567.857 570.787, 579.750 564.439 C 606.896 549.951, 623.974 535.645, 640.999 513.133 C 645.251 507.510, 646.951 505.965, 648.499 506.315 C 649.599 506.564, 653.425 507.552, 657 508.511 C 677.880 514.108, 709.704 501.681, 726.364 481.425 C 735.635 470.154, 744 452.590, 744 444.395 C 744 442.998, 747.044 437.147, 750.868 431.193 C 774.291 394.726, 783.312 359.080, 783.436 302.500 L 783.500 273.500 788.095 271.250 C 793.892 268.411, 793.359 268.341, 798.597 272.633 C 805.078 277.944, 811.535 287.075, 813.871 294.233 C 821.193 316.665, 820.583 331.495, 810.471 377.025 C 803.090 410.259, 802.075 431.059, 806.937 449.500 C 815.637 482.502, 846.810 510.039, 875.873 510.397 C 886.165 510.524, 887.519 509.376, 884.152 503.378 C 875.901 488.677, 873 478.278, 873 463.408 L 873 454.731 876.494 461.714 C 886.487 481.690, 910.283 490.724, 926.752 480.795 C 932.596 477.272, 932.190 474.648, 924.765 467.947 C 921.191 464.721, 917.532 460.533, 916.633 458.640 C 913.090 451.172, 915.314 421.332, 921.014 399.850 C 935.729 344.397, 939.506 319.195, 937.159 292.100 C 932.208 234.956, 905.183 196.661, 860.500 183.476 C 838.315 176.929, 805.468 180.341, 788.779 190.925 C 786.108 192.619, 783.805 193.493, 783.465 192.943 C 781.600 189.926, 774.609 187.840, 767.376 188.142 L 759.999 188.450 755.630 180.784 C 718.283 115.248, 647.849 70.083, 562.500 56.943 C 544.638 54.193, 492.262 53.301, 474.500 55.444 M 483 62.999 C 433.446 67.800, 383.482 84.031, 346.212 107.437 C 291.404 141.857, 260.154 179.297, 248.307 224.735 C 244.385 239.777, 244.096 272.655, 247.775 285.352 C 250.264 293.944, 256.666 307.527, 260.775 312.936 L 263.386 316.372 264.717 308.491 C 267.222 293.662, 274.330 275.403, 283.789 259.500 C 295.223 240.279, 339.676 186.959, 362.783 164.750 C 370.024 157.790, 371.865 156.928, 373.998 159.498 C 375.576 161.398, 373.989 163.533, 359.507 178.996 C 344.504 195.016, 337.029 206.691, 332.139 221.747 C 327.893 234.822, 326.929 253.099, 330.031 261.750 C 331.586 266.088, 334.790 266.057, 352.429 261.536 C 381.164 254.171, 412.798 238.077, 442.363 215.782 C 465.042 198.679, 491.408 172.619, 497.019 161.763 C 503.673 148.886, 504.690 150.579, 505.270 175.500 C 505.676 192.984, 506.066 196.756, 508.369 205.482 C 520.750 252.406, 551.014 287.829, 586 296.347 C 596.160 298.821, 606.515 299.649, 605.456 297.904 C 604.988 297.132, 602.611 293.407, 600.174 289.627 C 581.590 260.795, 566.449 208.828, 572.449 194.468 C 573.826 191.173, 576.227 189.941, 577.442 191.907 C 577.750 192.405, 578.477 197.468, 579.058 203.157 C 582.448 236.381, 594.268 265.942, 619.771 304.975 C 629.958 320.567, 642.955 334.683, 658 346.494 C 662.125 349.733, 666.962 353.734, 668.750 355.387 C 672.333 358.700, 673.180 363, 670.250 363 C 667.692 363, 654.626 354.357, 646.137 347.050 C 641.628 343.169, 638.991 341.446, 639.334 342.606 C 639.641 343.648, 640.208 346.300, 640.593 348.500 C 642.325 358.405, 655.640 394, 657.613 394 C 657.932 394, 660.287 392.134, 662.847 389.854 C 672.959 380.843, 690.083 375.580, 702.414 377.693 C 721.333 380.933, 738.881 398.061, 743.323 417.622 L 744.648 423.455 748.489 416.587 C 756.757 401.802, 765.964 377.040, 769.529 360 C 774.362 336.903, 776.409 298.723, 774.064 275.426 C 766.063 195.952, 720.686 129.481, 649.843 93.458 C 621.384 78.987, 594.896 70.905, 554.500 64.368 C 543.055 62.516, 497.072 61.636, 483 62.999 M 480.500 193.538 C 441.426 232.711, 394.462 261.163, 351.822 271.494 C 339.704 274.430, 324.594 275.771, 323.504 274.007 C 323.086 273.330, 323.234 272.473, 323.834 272.103 C 324.581 271.641, 324.112 268.923, 322.344 263.465 C 319.496 254.672, 318.750 237.032, 320.846 228.027 C 321.419 225.567, 321.744 223.411, 321.569 223.236 C 320.018 221.684, 290.414 264.926, 284.419 277.500 C 273.420 300.567, 271.812 310.674, 271.451 359 C 271.184 394.833, 269.886 428.566, 267.989 448.971 C 267.505 454.180, 267.255 458.589, 267.434 458.767 C 267.613 458.946, 269.174 457.159, 270.903 454.796 C 275.375 448.685, 294.675 429.345, 299.906 425.732 C 313.813 416.128, 333.720 416.525, 358.796 426.904 C 365.391 429.634, 366.148 429.760, 366.681 428.212 C 370.673 416.606, 374.632 411.535, 382.620 407.797 C 388.712 404.946, 395 404.540, 395 406.998 C 395 409.502, 393.226 411.355, 388.625 413.657 C 381.353 417.295, 379.154 419.664, 377.378 425.773 C 375.195 433.280, 375.843 434.662, 385.345 442.752 C 402.284 457.176, 414.673 474.103, 420.589 490.906 L 422.845 497.312 430.172 497.104 C 442.459 496.755, 445.082 501.242, 434.356 504.262 C 428.623 505.876, 427.841 506.571, 397.185 537.277 L 365.869 568.643 376.185 571.792 C 424.434 586.524, 464.181 589.637, 504.848 581.867 C 561.304 571.081, 616.817 537.138, 638.490 500.153 C 642.686 492.993, 642.390 493.051, 652.500 497.382 C 663.481 502.086, 682.089 500.481, 696.315 493.603 C 727.857 478.352, 744.945 438.507, 731.559 411.422 C 720.936 389.929, 698.841 380.584, 680 389.616 C 676.425 391.330, 670.028 395.718, 665.785 399.366 C 657.049 406.877, 655.098 407.346, 651.695 402.750 C 646.248 395.396, 635.188 362.385, 630.530 339.580 C 629.123 332.692, 628.079 330.478, 622.516 322.580 C 611.463 306.891, 612.802 307.900, 602.482 307.474 C 548.472 305.245, 504.316 254.336, 496.256 185 L 495.500 178.500 480.500 193.538 M 814.720 190.567 C 809.077 191.934, 794.287 197.591, 792.707 198.986 C 792.271 199.371, 793.700 203.019, 795.884 207.093 C 802.815 220.024, 804.278 225.846, 803.776 238.500 C 803.429 247.244, 802.827 250.754, 800.841 255.615 L 798.342 261.729 801.785 263.584 C 807.003 266.394, 815.716 276.639, 819.566 284.492 C 825.466 296.527, 827.210 305.282, 827.239 323 C 827.269 341.448, 826.184 349.468, 820.908 369.792 C 804.059 434.700, 815.285 475.489, 855.500 495.485 C 860.450 497.946, 866.161 500.239, 868.192 500.580 L 871.884 501.201 869.978 496.185 C 863.999 480.449, 862.602 459.721, 866.022 437.500 C 869.460 415.170, 872.342 406.828, 876.844 406.175 L 879.087 405.849 878.433 421.175 C 877.901 433.643, 878.087 437.805, 879.432 443.500 C 883.692 461.540, 894.776 474.120, 907.765 475.659 C 915.130 476.531, 916.673 475.301, 913.539 471.053 C 908.293 463.942, 906.492 455.909, 906.579 440 C 906.674 422.645, 907.749 416.239, 916.980 378 C 927.048 336.291, 927.440 333.602, 927.472 306 C 927.503 280.315, 926.771 274.853, 920.779 256 C 911.563 227.008, 893.191 205.737, 868.232 195.161 C 854.852 189.492, 828.498 187.229, 814.720 190.567 M 766.750 197.641 C 764.372 198.328, 764.514 199.555, 768.089 209.182 C 774.803 227.263, 782 255.960, 782 264.650 C 782 265.071, 784.045 263.410, 786.544 260.958 C 805.099 242.754, 788.987 191.214, 766.750 197.641 M 328.270 295.054 C 315.308 297.612, 303.913 306.843, 300.945 317.192 C 298.794 324.690, 304.024 326.861, 307.848 320.057 C 313.882 309.321, 323.969 304.464, 338.639 305.232 C 348.766 305.761, 350.120 305.216, 349.054 301.034 C 347.815 296.169, 337.566 293.220, 328.270 295.054 M 503.500 301.929 C 496.976 303.503, 492 308.193, 492 312.766 C 492 315.568, 493.001 315.547, 503.968 312.513 C 516.968 308.916, 530.210 313.681, 541.177 325.903 C 544.994 330.157, 547.648 331.080, 548.639 328.498 C 549.835 325.382, 547.672 321.466, 541.190 315.011 C 529.994 303.861, 515.844 298.950, 503.500 301.929 M 305.474 386.395 C 304.061 387.428, 303.610 388.881, 303.734 391.996 C 304.306 406.319, 323.868 413.684, 339.583 405.493 C 351.956 399.043, 358.031 392.603, 354.794 389.365 C 353.578 388.150, 352.487 388.533, 346.941 392.125 C 337.981 397.928, 334.991 399.001, 327.782 398.996 C 319.653 398.991, 316.256 396.951, 313.078 390.166 C 310.546 384.760, 308.856 383.922, 305.474 386.395 M 478.750 397.080 C 472.568 400.681, 483.519 415.687, 495.147 419.549 C 504.060 422.509, 515.088 421.275, 525.408 416.161 C 537.032 410.401, 540.895 405.276, 535.475 402.807 C 533.265 401.800, 531.920 402.181, 524.725 405.854 C 506.696 415.055, 494.355 413.377, 485.081 400.463 C 481.633 395.662, 481.399 395.537, 478.750 397.080 M 691.754 414.474 C 689.779 415.153, 685.291 417.758, 681.780 420.263 C 667.332 430.573, 662.281 441, 671.734 441 C 684.257 441, 688.303 452.380, 679.903 463.975 C 677.456 467.354, 677.085 468.439, 678.150 469.114 C 683.391 472.435, 693 460.636, 693 450.878 C 693 445.418, 688.584 437.949, 683.239 434.369 L 679.979 432.185 683.739 429.256 C 691.540 423.180, 693.505 422.453, 698.505 423.790 C 705.310 425.610, 707 425.391, 707 422.687 C 707 417.181, 697.993 412.329, 691.754 414.474 M 313.263 429.859 C 303.462 432.768, 295.524 439.541, 277.920 460.012 C 268.694 470.741, 268.035 472.885, 271.012 482.500 C 272.500 487.308, 270.763 496.583, 267.776 499.774 C 266.373 501.273, 264.902 503.625, 264.509 505 C 263.483 508.579, 259.353 515.528, 255.944 519.411 L 253.018 522.743 260.759 523.370 C 292.457 525.936, 381.812 526.589, 394.715 524.349 C 396.913 523.967, 400.574 521.317, 406.289 515.970 C 414.536 508.254, 414.644 508.091, 414.312 503.824 C 413.008 487.035, 392.673 457.880, 372.667 444.115 C 355.092 432.023, 327.931 425.505, 313.263 429.859 M 233.331 478.875 C 229.486 480.678, 227 483.422, 227 485.863 C 227 486.411, 229.588 487.368, 232.750 487.991 C 238.962 489.214, 245.177 490.984, 251.488 493.326 C 256.243 495.091, 260.308 493.612, 262.217 489.423 C 266.060 480.989, 245.124 473.345, 233.331 478.875 M 215.500 500.399 C 209.513 502.292, 205.740 504.487, 202.125 508.178 L 198.871 511.500 211.685 512.055 C 222.780 512.535, 225.288 512.971, 230.371 515.305 C 237.627 518.636, 237.387 518.640, 245.407 515.042 C 250.952 512.554, 252 511.691, 252 509.614 C 252 502.095, 228.722 496.217, 215.500 500.399 M 194.165 520.447 C 190.620 521.732, 189.040 523.476, 189.015 526.132 C 189.002 527.536, 190.790 527.819, 201.867 528.164 C 214.062 528.544, 215.073 528.738, 221.246 531.871 C 227.526 535.058, 227.867 535.120, 230.816 533.595 C 234.979 531.442, 235.287 530.634, 233.033 527.769 C 228.692 522.251, 202.700 517.354, 194.165 520.447 M 246.172 531.292 C 245.591 531.993, 244.660 533.765, 244.102 535.230 C 243.545 536.696, 241.832 538.670, 240.295 539.617 C 238.758 540.563, 233.062 544.270, 227.638 547.855 L 217.777 554.371 223.638 556.009 C 249.756 563.305, 279.940 592.317, 290.422 620.199 L 292.586 625.957 304.543 615.816 C 319.354 603.255, 379.028 543.126, 381.757 538.014 L 383.756 534.268 331.628 533.691 C 285.629 533.181, 256.048 532.037, 249.364 530.508 C 248.190 530.239, 246.753 530.592, 246.172 531.292 M 187.619 535.970 C 178.446 538.922, 170 558.854, 170 577.551 C 170 589.540, 175.998 613.407, 181.076 621.622 C 183.551 625.628, 183.582 625.429, 177.983 641.500 C 160.313 692.223, 154.352 753.009, 164.157 782.500 C 170.429 801.364, 186.736 816.892, 205.275 821.653 C 232.490 828.642, 301.359 808.244, 313.112 789.714 C 317.476 782.834, 313.329 756.553, 305.391 740.779 C 294.543 719.221, 273.036 698.722, 262.791 700.175 L 260.500 700.500 260.894 729.683 L 261.289 758.865 258.147 762.007 C 253.411 766.743, 248.061 763.905, 252.493 759.008 C 253.985 757.360, 254.047 755.965, 253.082 745.832 C 251.428 728.473, 248.831 673.935, 248.738 654.612 L 248.655 637.360 244.337 635.807 L 240.020 634.255 234.760 638.218 C 228.701 642.784, 225.642 644.184, 223.509 643.365 C 220.952 642.384, 221.832 639.230, 225.426 636.489 C 230.669 632.490, 232.718 628.982, 230.528 627.756 C 216.816 620.082, 196.452 600.722, 191.469 590.622 C 183.034 573.526, 186.507 562.348, 203.006 553.490 C 214.622 547.254, 220.005 542.572, 217.928 540.510 C 214.545 537.153, 193.664 534.025, 187.619 535.970 M 201.817 563.718 C 198.056 566.050, 196.499 569.475, 196.505 575.401 C 196.511 583.017, 200.040 589.027, 211 600.087 C 233.891 623.188, 266.618 638.546, 279.712 632.332 C 283.146 630.703, 283.212 630.561, 282.601 626.105 C 280.662 611.958, 262.443 587.561, 245.589 576.544 C 227.540 564.745, 208.945 559.296, 201.817 563.718 M 553.971 576.137 C 533.018 585.577, 497.987 593.609, 469.252 595.561 L 459.004 596.257 456.879 599.695 C 455.022 602.701, 454.841 604.013, 455.444 610.133 C 456.177 617.571, 455.326 620, 451.986 620 C 450.039 620, 449.500 618.434, 448.459 609.750 C 447.434 601.204, 443.172 602.807, 437.581 613.840 C 430.813 627.196, 436.418 645.581, 449.253 652.129 C 459.636 657.426, 482.362 659.667, 498.809 657.016 C 528.114 652.292, 558.723 633.271, 568.513 613.702 C 574.316 602.103, 574.225 599.803, 567.799 595.601 C 564.139 593.207, 561 586.377, 561 580.807 C 561 574.582, 559.554 573.622, 553.971 576.137 M 341.500 593.016 C 318.438 617.885, 302.537 631.319, 286.209 639.730 C 277.375 644.280, 273.341 644.877, 264 643.017 C 256.940 641.611, 256.671 642.383, 257.420 661.843 C 257.767 670.831, 258.326 680.826, 258.663 684.054 C 259.410 691.193, 258.505 691.514, 275.256 678.169 C 345.174 622.467, 386.477 600.963, 426.749 599.296 C 437.144 598.866, 441.312 598.329, 442.157 597.311 C 444.168 594.888, 441.693 593.848, 430.340 592.340 C 413.127 590.054, 390.556 585.422, 377 581.395 C 370.125 579.352, 362.700 577.491, 360.500 577.260 L 356.500 576.840 341.500 593.016 M 581.983 603.250 C 578.306 617.541, 574.109 624.705, 563.303 635.137 C 542.687 655.040, 512.830 667.130, 484 667.247 C 455.581 667.364, 437.152 660.185, 430.390 646.366 C 426.803 639.033, 425.562 618.682, 428.371 613.249 L 429.972 610.153 426.736 609.420 C 411.242 605.910, 374.323 619.519, 340.500 641.209 C 310.548 660.415, 267.561 694, 272.928 694 C 275.297 694, 287.395 702.750, 293.912 709.177 C 313.489 728.484, 323 751.063, 323 778.233 C 323 790.631, 322.574 791.830, 315.050 800.621 C 312.282 803.854, 310.014 806.762, 310.009 807.083 C 309.994 808.046, 320.243 806.346, 324 804.762 C 329.328 802.516, 337.302 795.758, 339.149 791.924 C 340.056 790.041, 341.500 782.425, 342.359 775 C 345.038 751.832, 352.759 713.209, 360.052 686.487 C 364.345 670.757, 365.480 668.479, 368.455 669.621 C 371.201 670.675, 369.979 681.001, 364.562 702.500 C 357.595 730.150, 350.054 777.813, 346.999 813.500 C 344.631 841.173, 342.843 859.317, 341.946 864.793 C 341.432 867.932, 341.009 870.837, 341.006 871.250 C 340.997 872.377, 357.846 872.153, 360.005 870.997 C 361.277 870.316, 362.087 870.332, 362.528 871.045 C 362.900 871.648, 366.535 868.888, 371.050 864.574 C 394.362 842.302, 413.424 834.894, 443.782 836.307 C 458.623 836.998, 471.621 839.553, 488.929 845.181 C 507.230 851.132, 508.346 851.117, 536.500 844.535 C 549.700 841.449, 570.625 836.657, 583 833.887 C 595.375 831.116, 606.045 828.321, 606.711 827.675 C 607.621 826.793, 607.680 824.753, 606.950 819.500 C 605.682 810.379, 605.645 810.300, 602.137 809.530 C 598.122 808.648, 597.378 807.540, 596.072 800.500 C 592.150 779.359, 592.656 737.054, 597.145 710.619 C 601.876 682.763, 610.953 661, 617.840 661 C 621.006 661, 620.895 662.981, 617.283 670.906 C 612.985 680.337, 608.767 695.351, 605.824 711.690 C 603.686 723.563, 603.521 727.133, 603.570 760.500 C 603.603 782.581, 604.025 797.660, 604.660 799.500 L 605.695 802.500 608.681 795.979 C 612.134 788.438, 615.817 784.960, 623.327 782.151 C 648.956 772.562, 694.260 774.026, 715.067 785.117 C 722.656 789.161, 724.991 792.036, 725.030 797.385 C 725.056 800.901, 725.223 801.220, 726.176 799.578 C 727.884 796.636, 726.480 772.082, 723.541 753.500 C 712.585 684.222, 685.521 638.338, 643.042 617.021 C 628.122 609.534, 595.030 599, 586.429 599 C 583.324 599, 582.997 599.313, 581.983 603.250 M 826 749.688 C 806.488 751.157, 779.280 756.532, 775.907 759.585 C 774.069 761.248, 774.061 761.410, 775.742 763.269 C 788.704 777.602, 881.125 780.519, 909.750 767.499 C 917.771 763.850, 916.392 760.782, 905.075 757.089 C 885.626 750.744, 852.794 747.671, 826 749.688 M 772.361 785.103 C 772.998 794.813, 784.724 905.130, 787.157 924.300 C 788.451 934.487, 789.087 935.071, 803.148 938.980 C 830.010 946.449, 868.707 945.190, 893.125 936.054 L 898.730 933.957 899.275 927.729 C 899.574 924.303, 902.773 896.525, 906.383 866 C 913.440 806.322, 916.875 775.648, 916.544 775.252 C 916.431 775.116, 913.003 776.138, 908.928 777.525 C 894.500 782.432, 880.796 784.181, 852.500 784.727 C 818.653 785.379, 798.287 782.960, 773.592 775.353 C 771.771 774.792, 771.715 775.235, 772.361 785.103 M 650.630 784.989 C 640.159 786.313, 634.236 787.927, 625.751 791.769 C 616.574 795.924, 616.443 796.204, 615.371 813.906 L 614.680 825.313 620.090 824.634 C 623.066 824.260, 628.650 823.542, 632.500 823.037 C 648.302 820.965, 660.406 825.703, 654.038 831.466 C 652.374 832.971, 650.963 833.142, 644.788 832.586 C 636.011 831.797, 627.269 832.852, 603.500 837.572 C 581.540 841.932, 535.562 852.846, 521.766 856.974 C 508.989 860.796, 507.880 860.769, 497.262 856.371 C 479.069 848.834, 451.534 844.001, 434.765 845.399 C 403.799 847.982, 382.665 860.701, 364.069 887.946 C 355.188 900.958, 352.746 909.440, 356.466 914.351 C 357.762 916.062, 358.111 915.721, 361.062 909.851 C 371.762 888.569, 384.035 876.503, 405.737 865.931 C 417.421 860.239, 423.752 858.791, 425.859 861.330 C 427.732 863.587, 425.756 866.599, 421.894 867.371 C 411.465 869.457, 390.892 881.961, 382.147 891.530 C 370.230 904.569, 360.117 928.296, 365.582 930.393 C 370.019 932.096, 371.546 931.071, 376.973 922.750 C 386.543 908.076, 396.104 899.367, 410.532 892.181 C 425.753 884.600, 438.357 882.591, 439.601 887.547 C 440.434 890.864, 440.722 890.683, 430.038 893.543 C 403.573 900.625, 382.429 918.850, 381.693 935.215 L 381.500 939.500 385.965 939.289 C 388.421 939.173, 390.736 939.573, 391.109 940.177 C 391.508 940.821, 393.785 938.635, 396.620 934.888 C 404.310 924.721, 410.576 919.260, 419.422 915.012 C 434.391 907.824, 444.310 905.490, 449.066 908.035 C 452.276 909.753, 451.265 911.738, 446.250 913.561 C 421.142 922.687, 411.088 928.033, 406.591 934.652 C 402.358 940.881, 403.817 946.963, 409.244 945.718 C 410.485 945.433, 418.025 942.437, 426 939.059 C 449.443 929.131, 447.742 929.387, 472.161 932.113 C 497.510 934.942, 502.877 934.265, 519.618 926.127 C 528.900 921.615, 530.098 921.276, 534.118 922.025 C 560.899 927.015, 625.928 925.356, 655.606 918.926 C 704.418 908.351, 714.028 892.989, 715.817 822.677 C 716.596 792.062, 717.198 794.337, 707.431 790.976 C 692.146 785.717, 666.366 783, 650.630 784.989" stroke="none" fill="#1a1a1a" fill-rule="evenodd"/>
</svg>