<svg xmlns="http://www.w3.org/2000/svg" width="1024" height="1024" viewBox="0 0 1024 1024" version="1.1">
	<path d="M 488.500 42.625 C 415.993 49.923, 353.745 77.423, 308.883 121.977 C 295.118 135.647, 286.370 146.346, 281.145 155.901 L 278.285 161.131 273.223 150.815 C 260.296 124.477, 243.960 117.878, 230.249 133.455 C 218.268 147.066, 204 179.292, 204 192.742 C 204 209.101, 219.043 217.142, 243.181 213.687 C 250.905 212.581, 251.945 214.294, 248.980 223.237 C 245.528 233.654, 240.269 254.495, 236.426 273 C 229.784 304.973, 225.624 316.349, 204.965 359.026 C 181.998 406.474, 175.785 425.988, 175.681 451 C 175.532 486.959, 196.801 519.326, 226.707 528.650 C 238.121 532.209, 241.121 529.037, 235.941 518.885 C 232.012 511.183, 234.444 511.783, 240.443 519.995 C 250.918 534.337, 262.064 543.379, 279.302 551.520 C 288.520 555.874, 302.029 560, 307.063 560 C 308.541 560, 311.121 560.274, 312.796 560.609 L 315.842 561.218 309.671 566.350 C 292.619 580.530, 258.768 616.750, 238.618 642.377 C 225.189 659.455, 223.628 662.070, 224.291 666.382 C 224.936 670.585, 223.481 673.743, 215.483 685.500 C 203.954 702.448, 199.229 715.960, 198.289 734.669 C 197.773 744.954, 197.561 745.883, 195.614 746.405 C 194.451 746.717, 170.507 746.979, 142.405 746.986 C 94.185 746.999, 91.217 747.103, 89.655 748.829 C 87.550 751.155, 87.549 753.381, 89.654 755.128 C 91.023 756.264, 100.671 756.438, 145.660 756.142 L 200.012 755.785 201.557 759.642 C 204.683 767.448, 206.630 770.320, 212.500 775.781 C 223.623 786.128, 231.344 789.901, 253.734 795.930 C 256.062 796.557, 258.377 797.842, 258.878 798.785 C 259.742 800.411, 266.505 840.592, 269.434 861.500 C 269.742 863.700, 271.111 872.475, 272.475 881 C 273.840 889.525, 276.537 908.552, 278.469 923.281 C 280.473 938.567, 282.633 951.324, 283.501 953.002 C 286.057 957.944, 287.584 958.249, 303.783 957.046 C 311.848 956.447, 330.834 955.078, 345.973 954.002 C 375.145 951.931, 407.704 949.605, 430 948.001 C 492.180 943.528, 518.930 941.908, 534.064 941.700 C 550.396 941.476, 547.635 940.554, 561.834 950.967 L 567.169 954.879 578.834 954.679 C 591.915 954.455, 596.507 953.006, 603.450 946.910 L 607.298 943.531 621.399 942.840 C 629.155 942.460, 686.708 942.116, 749.295 942.075 L 863.091 942 865.545 939.545 C 868.629 936.462, 868.660 933.006, 865.647 928.230 C 859.626 918.687, 858.748 916.058, 859.967 911.216 C 861.034 906.978, 860.924 906.399, 858.234 902.095 C 854.292 895.790, 839.663 877.154, 828.077 863.678 C 822.791 857.530, 812.652 845.525, 805.547 837 C 786.769 814.469, 771.642 797.647, 753.700 779.346 L 737.862 763.191 739.090 759.096 C 739.764 756.843, 740.808 754.986, 741.408 754.970 C 742.009 754.953, 783.792 754.967, 834.261 754.999 C 929.131 755.061, 930 755.024, 930 750.988 C 930 746.052, 928.184 745.861, 885.343 746.299 C 863.429 746.523, 821.875 746.435, 793 746.103 L 740.500 745.500 739.741 738.500 C 737.938 721.871, 731.169 707.792, 712.712 682.275 C 704.130 670.410, 703.888 669.925, 704.493 665.775 C 705.255 660.553, 705.810 661.469, 681.013 627 C 661.234 599.506, 651.027 586.462, 639.907 574.469 C 636.015 570.271, 632.991 566.675, 633.188 566.478 C 633.385 566.281, 637.586 564.681, 642.523 562.922 C 652.408 559.401, 655.750 559.179, 664.519 561.463 C 678.023 564.980, 693.274 562.490, 710.907 553.888 C 726.901 546.086, 740.579 531.737, 752.006 510.775 C 756.546 502.447, 757.196 503.847, 754.432 515.997 C 753.570 519.787, 753.008 524.376, 753.182 526.194 C 753.494 529.442, 753.578 529.495, 757.940 529.211 C 765.584 528.712, 774.630 523.572, 782.801 515.084 C 801.909 495.234, 810.302 475.578, 810.378 450.500 C 810.434 432.466, 807.543 421.250, 793.243 384 C 787.753 369.701, 782.573 354.210, 777.860 338 C 775.655 330.417, 773.101 314.563, 769.513 286.199 C 758.556 199.555, 739.199 153.292, 695.536 109.393 C 660.579 74.247, 617.691 53.108, 564.500 44.806 C 552.009 42.857, 500.800 41.387, 488.500 42.625 M 498.034 53.121 C 470.066 54.720, 447.675 58.856, 423 66.981 C 380.472 80.984, 353.756 95.602, 326.007 120.054 C 311.450 132.882, 287 162.169, 287 166.779 C 287 167.556, 286.051 169.524, 284.891 171.153 C 283.731 172.782, 282.943 174.275, 283.141 174.471 C 283.338 174.667, 285.219 176.191, 287.319 177.859 L 291.138 180.891 302.319 176.798 C 320.620 170.099, 330.045 170.814, 336.438 179.389 C 339.118 182.982, 339.237 196.452, 336.674 206 C 330.212 230.069, 300.733 268, 288.490 268 C 277.737 268, 266 248.207, 266 230.073 C 266 224.617, 264.415 222.600, 260.846 223.515 C 258.713 224.061, 258.106 225.766, 254.157 242.308 C 243.138 288.460, 240.547 298.338, 235.464 313.562 C 229.158 332.451, 223.776 345.413, 213.275 367 C 204.652 384.725, 195.660 404.956, 192.828 413 C 179.716 450.253, 188.669 494.809, 212.440 510.591 C 216.862 513.527, 225.104 517.321, 225.627 516.660 C 225.697 516.572, 224.938 512.515, 223.941 507.645 C 219.032 483.674, 218.726 450.604, 223.324 441.010 C 224.131 439.325, 225.345 438.500, 227.013 438.500 L 229.500 438.500 230.189 451.573 C 233.313 510.894, 263.939 546.530, 316 551.420 C 322.532 552.033, 329.044 550.352, 322.953 549.625 C 320.840 549.373, 306.930 530.393, 304.905 525 C 301.457 515.814, 300.594 509.268, 302.458 506.423 C 305.602 501.625, 307.815 503.387, 310.983 513.208 C 313.834 522.049, 319.098 529.866, 328.238 538.832 L 335.711 546.163 346.106 540.942 C 361.987 532.964, 370.899 529.383, 383.488 525.918 C 389.820 524.176, 395 522.395, 395 521.961 C 395 521.527, 391.963 519.477, 388.250 517.405 C 355.873 499.338, 327.820 468.790, 315.357 438.030 L 313.117 432.500 304.308 431.372 C 274.327 427.534, 253.694 408.443, 247.451 378.765 C 242.450 354.993, 255.324 324.508, 272.304 319.912 C 281.570 317.405, 294.920 320.809, 303.988 327.990 C 308.566 331.616, 309.557 331.340, 314.957 324.935 C 325.575 312.344, 333.433 295.240, 339.528 271.461 C 343.374 256.453, 343.515 254.798, 341.867 243.972 C 338.530 222.042, 353.651 193.590, 386.362 160.250 C 394.654 151.798, 397.152 150.546, 398.965 153.934 C 400.429 156.670, 400.749 156.083, 392.248 166.239 C 379.618 181.328, 377.504 184.115, 370.006 195.570 C 352.353 222.541, 347.567 238.358, 354.369 247.250 C 359.597 254.084, 363.651 252.762, 389.065 235.933 C 423.771 212.952, 452.687 187.038, 463.754 169 C 470.875 157.394, 472.944 155.817, 476.083 159.601 C 480.391 164.791, 451.839 199.606, 427 219.451 C 406.612 235.740, 385.521 250.118, 375.577 254.506 L 370.587 256.709 374.503 258.001 C 380.697 260.045, 406.857 258.668, 420 255.605 C 441.151 250.677, 456.770 244.368, 479 231.775 C 493.283 223.684, 497.518 220.250, 516.873 201.069 C 536.246 181.871, 544.576 169.430, 548.960 153.150 C 550.111 148.873, 553.800 147.249, 555.631 150.212 C 560.425 157.970, 539.068 207.982, 517.121 240.389 C 511.181 249.160, 512.165 250.112, 524.056 247.105 C 539.140 243.291, 563.990 227.001, 580.113 210.358 C 595.326 194.655, 608.715 169.685, 611.486 151.850 C 613.036 141.876, 619.963 146.474, 619.998 157.500 C 620.067 178.922, 636.969 222.775, 656.036 251 C 662.313 260.291, 676.116 274.159, 682.911 278 C 696.286 285.560, 696.441 285.869, 698.137 308.337 C 698.830 317.520, 699.646 324.890, 699.949 324.714 C 723.483 311.059, 743.679 329.330, 739.857 360.818 C 739.277 365.593, 737.507 374.675, 735.923 381 C 728.658 410.008, 715.310 424.016, 688.315 430.965 C 684.231 432.016, 684.052 432.242, 680.970 440.271 C 666.926 476.848, 642.118 501.775, 595.757 525.892 C 589.299 529.251, 584.506 532, 585.107 532 C 587.156 532, 604.481 542.798, 613.837 549.906 C 624.397 557.929, 624.500 557.949, 636.422 554.495 C 660.174 547.612, 667.123 541.351, 672.489 522 C 675.674 510.515, 676.838 508, 678.969 508 C 686.941 508, 682.480 533.113, 671.825 548.219 L 669.907 550.939 672.694 551.638 C 677.037 552.728, 689.967 550.423, 698.954 546.958 C 720.334 538.713, 734.685 523.490, 746.149 496.899 C 752.537 482.084, 754.372 472.393, 754.441 453.109 C 754.492 438.941, 754.726 436.576, 756.166 435.667 C 764.499 430.410, 769.439 468.682, 764.970 503.870 C 764.386 508.474, 764.143 512.477, 764.431 512.765 C 764.720 513.053, 767.064 512.483, 769.641 511.499 C 780.833 507.225, 793.150 489.518, 796.421 473 C 802.147 444.083, 800.910 432.753, 788.650 401.815 C 773.433 363.419, 769.482 348.218, 759.972 291.500 C 752.132 244.737, 749.132 229.393, 744.842 214.107 C 720.993 129.125, 654.751 71.067, 564.498 56.045 C 542.256 52.342, 524.960 51.582, 498.034 53.121 M 242.500 137.167 C 235.620 140.972, 230.342 149.161, 221.156 170.279 C 212.295 190.650, 212.024 195.031, 219.207 201.738 C 225.439 207.558, 245.541 206.171, 247.569 199.782 C 248.814 195.859, 255.594 187.525, 262.407 181.544 C 272.932 172.304, 273.057 167.220, 263.174 150.298 C 256.071 138.136, 248.938 133.606, 242.500 137.167 M 607.769 189.260 C 595.072 214.777, 579.432 230.332, 550.330 246.386 C 519.550 263.366, 500.316 263.298, 504.854 246.227 C 506.047 241.742, 511.258 232.670, 517.047 225 C 520.949 219.831, 527.592 207.518, 525.932 208.531 C 525.144 209.012, 519.100 213.716, 512.500 218.985 C 483.016 242.523, 469.485 250.186, 440.035 260.021 C 408.321 270.612, 387.681 272.166, 367.485 265.483 C 363.093 264.029, 357.814 262.487, 355.752 262.055 L 352.005 261.269 350.967 265.385 C 340.228 307.960, 324.945 337.804, 311.028 343.372 C 307.148 344.924, 304 344.700, 304 342.871 C 304 341.140, 295.917 333.189, 292.518 331.576 C 259.222 315.776, 242.030 372.410, 270.315 404.717 C 275.236 410.337, 284.406 415.716, 294.675 419.005 C 307.003 422.954, 308.755 422.888, 312.582 418.329 C 316.830 413.269, 318.113 414.199, 322.011 425.159 C 344.506 488.418, 405.990 529.681, 487.347 536.119 C 524.651 539.071, 576.442 527.276, 606.413 509.003 C 654.172 479.884, 676.546 442.827, 686.528 376.313 C 688.269 364.714, 689.854 302.367, 688.581 295.580 C 687.970 292.325, 687.252 291.660, 681.202 288.752 C 658.590 277.882, 626.368 229.783, 617.394 193.500 C 616.034 188, 614.600 182.206, 614.209 180.625 C 613.549 177.963, 613.072 178.603, 607.769 189.260 M 308.049 183.968 C 298.642 187.242, 295.376 189.282, 292.655 193.584 C 291.640 195.188, 287.477 201.672, 283.405 207.993 C 275.312 220.553, 274.447 223.171, 275.315 232.470 C 276.633 246.584, 284.983 258.727, 291.869 256.542 C 292.977 256.190, 297.363 252.211, 301.615 247.701 C 321.605 226.497, 334.477 196.558, 328.540 185.077 C 325.955 180.079, 320.129 179.764, 308.049 183.968 M 273.327 184.987 C 264.765 190.315, 257.205 203.777, 259.922 208.855 C 263.250 215.073, 269.809 213.033, 275.921 203.881 C 284.448 191.111, 282.798 179.093, 273.327 184.987 M 591.024 270.957 C 586.051 272.220, 583.482 275.601, 585.373 278.394 C 586.639 280.262, 587.627 280.469, 594.129 280.229 C 611.556 279.584, 619.420 282.206, 630.657 292.409 C 637.281 298.423, 641.096 299.557, 642.965 296.065 C 645.998 290.397, 630.494 276.611, 616.516 272.548 C 610.068 270.673, 595.679 269.775, 591.024 270.957 M 422 280.360 C 406.693 284.527, 392.713 298.100, 399.813 301.900 C 401.949 303.043, 403.449 302.302, 411.193 296.272 C 420.103 289.335, 431.386 287.177, 443.790 290.038 C 449.633 291.386, 452.226 289.986, 451.808 285.706 C 451.543 282.982, 450.878 282.307, 447 280.827 C 441.644 278.782, 428.685 278.540, 422 280.360 M 704.842 333.167 C 700.039 335.952, 699.269 337.810, 698.567 348.319 L 697.978 357.138 702.739 353.189 C 709.913 347.238, 711.652 346.542, 714.567 348.452 C 718.554 351.064, 717.645 353.622, 710.993 358.505 C 702.399 364.813, 697.399 373.696, 695.517 386 C 693.761 397.471, 690.482 412.348, 688.407 418.250 C 686.768 422.913, 686.478 422.939, 697.869 417.398 C 709.075 411.946, 715.131 406.261, 719.704 396.900 C 729.143 377.580, 733.454 349.162, 728.413 339.500 C 724.068 331.173, 713.280 328.274, 704.842 333.167 M 274.163 349.878 C 271.436 351.607, 273.421 355.292, 279.305 359.424 C 285.696 363.911, 290.161 369.998, 294.399 380 C 297.565 387.472, 299.534 390, 302.187 390 C 306.752 390, 306.117 382.130, 300.615 370.500 C 293.979 356.474, 280.426 345.908, 274.163 349.878 M 424.500 352.162 C 412.266 358.899, 407.782 379.969, 416.236 391 C 425.596 403.214, 440.114 398.526, 444.551 381.856 C 448.990 365.177, 442.818 350.955, 431.173 351.030 C 428.603 351.047, 425.600 351.556, 424.500 352.162 M 594.356 353.214 C 584.338 360.330, 581.318 376.564, 587.796 388.468 C 594.266 400.356, 606.270 401.143, 613.668 390.165 C 618.374 383.181, 619.302 367.322, 615.461 359.513 C 611.476 351.412, 601.207 348.347, 594.356 353.214 M 519.250 394.484 C 514.487 397.934, 516.715 402.314, 523.831 403.488 C 532.293 404.885, 538.380 413.287, 536.049 420.353 C 534.631 424.649, 531.708 427.349, 525.686 429.925 C 521.203 431.842, 520.894 432.207, 521.186 435.224 C 522.112 444.784, 539.580 437.429, 544.625 425.355 C 548.643 415.739, 544.465 402.037, 535.899 396.741 C 530.190 393.211, 522.454 392.163, 519.250 394.484 M 462.200 454.200 C 460.446 455.954, 460.722 458.396, 463.160 462.693 C 476.497 486.200, 517.238 494.545, 540.508 478.536 C 548.036 473.356, 551.306 466.159, 547.548 463.040 C 545.419 461.273, 542.711 462.532, 539.172 466.936 C 533.413 474.102, 526.601 476.500, 512 476.500 C 493.018 476.500, 478.242 470.320, 471.564 459.589 C 467.726 453.420, 464.713 451.687, 462.200 454.200 M 403.551 530.126 C 380.923 535.428, 349.957 549.689, 332.322 562.929 C 304.732 583.645, 269.978 618.428, 247.173 648.151 C 242.678 654.010, 239 659.297, 239 659.901 C 239 660.549, 240.998 661, 243.869 661 C 257.129 661, 275.521 666.111, 287.173 673.034 C 299.241 680.203, 316.287 698.178, 324.354 712.240 C 327.701 718.075, 331.370 719.496, 334.169 716.040 C 335.176 714.796, 336 713.236, 336 712.572 C 336 711.043, 351.671 654.190, 352.834 651.500 C 353.310 650.400, 354.742 646.125, 356.018 642 C 357.294 637.875, 358.989 633.962, 359.785 633.304 C 360.952 632.341, 361.016 631.486, 360.117 628.905 C 357.650 621.829, 360.221 615.446, 366.984 611.852 C 375.871 607.129, 380.506 610.434, 394.361 631.372 C 412.650 659.010, 417.298 666.750, 443.988 714 C 454.208 732.093, 460.850 742.081, 464.243 744.457 C 466.169 745.806, 474.056 746, 527.076 746 C 560.423 746, 590.448 745.713, 593.798 745.363 L 599.890 744.727 600.695 739.113 C 601.138 736.026, 601.500 707.062, 601.500 674.750 L 601.500 616 603.775 616 C 606.847 616, 607.376 617.791, 609.534 635.500 C 610.913 646.813, 611.379 657.935, 611.431 680.747 C 611.469 697.382, 611.593 710.995, 611.708 710.997 C 611.822 710.999, 615.872 706.899, 620.708 701.887 C 631.093 691.123, 642.839 682.061, 655.403 675.118 C 665.830 669.356, 682.937 662.353, 688.924 661.396 C 693.686 660.635, 693.647 660.733, 690.794 656.654 C 673.582 632.048, 637.114 586.014, 626.052 574.932 C 606.929 555.773, 572.789 535.184, 565.102 538.174 C 563.671 538.731, 559.828 539.741, 556.562 540.418 C 553.295 541.096, 550.296 542.291, 549.896 543.075 C 549.497 543.859, 548.180 546.975, 546.970 550 C 541.800 562.928, 529.675 577.241, 519.175 582.812 C 493.151 596.618, 453.303 590.857, 431.627 570.155 C 421.707 560.681, 413 543.981, 413 534.430 C 413 532.132, 412.389 530.743, 411.066 530.035 C 408.880 528.866, 408.934 528.865, 403.551 530.126 M 423.001 537.250 C 429.271 563.048, 454.158 579.972, 485.856 579.993 C 508.889 580.009, 525.611 570.340, 535.883 551.068 C 539.613 544.071, 540.404 544.410, 525.424 546.590 C 509.642 548.886, 482.319 548.909, 468.613 546.638 C 456.828 544.685, 430.318 537.733, 425.856 535.425 C 422.141 533.505, 422.097 533.533, 423.001 537.250 M 368.250 621.639 C 365.822 622.664, 367.062 627.172, 372.553 637.279 C 375.607 642.900, 378.489 647.884, 378.957 648.354 C 379.930 649.330, 388.902 643.081, 388.961 641.386 C 388.982 640.773, 386.185 636.048, 382.744 630.886 C 376.956 622.202, 376.226 621.485, 372.994 621.305 C 371.072 621.198, 368.938 621.348, 368.250 621.639 M 363 644.740 C 363 645.697, 358.500 662.980, 353 683.147 C 347.500 703.314, 343.001 720.419, 343.003 721.157 C 343.005 722.506, 356.940 728, 360.359 728 C 361.339 728, 364.021 726.709, 366.320 725.132 C 373.113 720.471, 383.868 715.488, 393.656 712.469 C 402.417 709.766, 402.757 709.554, 401.526 707.572 C 396.809 699.974, 368.651 651.442, 366.790 647.701 C 364.394 642.885, 363 641.796, 363 644.740 M 391 653 C 389.625 654.076, 387.698 654.966, 386.719 654.978 C 383.229 655.021, 383.737 658.045, 388.413 665.078 C 390.974 668.929, 392.759 672.581, 392.380 673.194 C 391.930 673.922, 392.151 674.025, 393.015 673.490 C 393.962 672.905, 394.167 673.121, 393.735 674.248 C 393.375 675.186, 395.267 679.439, 398.414 684.765 C 401.321 689.684, 405.613 697.176, 407.954 701.416 C 410.294 705.656, 412.440 708.894, 412.722 708.612 C 413.004 708.329, 411.329 704.589, 408.999 700.299 C 406.669 696.010, 405.232 692.950, 405.805 693.500 C 406.378 694.050, 408.699 697.946, 410.961 702.159 C 413.224 706.371, 415.783 710.405, 416.648 711.123 C 418.352 712.537, 433.158 719.175, 433.607 718.727 C 433.757 718.576, 432.630 716.439, 431.103 713.977 C 429.575 711.514, 424.579 702.525, 420 694 C 410.806 676.885, 395.249 650.987, 394.181 651.022 C 393.807 651.034, 392.375 651.924, 391 653 M 237.881 674.261 C 228.731 681.239, 212.164 709.416, 208.598 724.064 C 203.395 745.435, 213.186 768.763, 231.284 778.119 C 248.795 787.172, 286.441 795.165, 318.717 796.684 L 331.933 797.305 332.942 794.653 C 334.709 790.004, 337.817 791.197, 349.420 800.979 C 362.133 811.696, 366.661 814.470, 376.580 817.619 C 385.923 820.587, 389.796 820.616, 394.025 817.750 C 398.718 814.570, 398.667 814.191, 392.481 806.450 C 388.105 800.972, 386.989 798.866, 387.214 796.508 C 387.708 791.340, 390.192 792.588, 401.075 803.470 C 411.103 813.499, 411.805 814, 415.802 814 C 428.746 814, 425.766 802.522, 408.343 785.267 C 398.957 775.973, 397.986 774.414, 400.200 772.200 C 402.387 770.013, 404.796 770.942, 412.184 776.822 C 420.970 783.813, 424.638 787.877, 428.920 795.360 C 434.713 805.485, 440.927 800.774, 440.978 786.218 C 441.010 777.113, 439.632 774.848, 425.642 761 C 412.492 747.984, 411.523 746.500, 415.250 745.076 C 422.491 742.310, 448.083 768.246, 452.953 783.285 C 456.936 795.586, 468.909 789.976, 467.778 776.339 C 466.909 765.858, 452.780 743.994, 440.707 734.447 C 426.589 723.284, 420.534 720.696, 407.334 720.186 C 392.168 719.600, 382.881 723.318, 364.891 737.179 C 361.807 739.555, 356.744 743.467, 353.640 745.871 C 348.963 749.494, 347.741 750.030, 346.499 748.999 C 344.320 747.191, 344.642 744.968, 347.810 739.956 L 350.620 735.510 337.084 730.286 C 329.639 727.413, 318.137 722.360, 311.524 719.058 C 293.171 709.894, 285.702 707.017, 276.308 705.497 C 267.259 704.032, 265.362 703.106, 266.316 700.620 C 268.073 696.040, 281.404 696.653, 296.275 701.997 C 307.079 705.879, 308.112 705.612, 303.855 700.036 C 295.292 688.820, 276.337 676.786, 261.243 672.982 C 249.213 669.950, 243.092 670.285, 237.881 674.261 M 679.667 674.499 C 661.228 681.006, 633.499 700.065, 624.900 712.141 L 622.740 715.174 627.950 720.450 L 633.161 725.726 642.830 719.886 C 657.807 710.841, 672.601 708.319, 677.219 714.023 C 680.112 717.594, 678.946 718.441, 669.919 719.323 C 658.454 720.444, 649.242 725.767, 629.432 742.721 C 617.448 752.977, 612.970 757.573, 606.749 766 C 602.485 771.775, 596.729 779.196, 593.957 782.491 C 586.226 791.678, 584.304 800.250, 589.017 804.515 C 592.959 808.082, 596.673 805.611, 602.933 795.256 C 607.918 787.011, 619.648 772.437, 626.421 766.074 C 628.513 764.109, 629.201 763.922, 630.471 764.976 C 633.014 767.086, 632.316 768.762, 624.279 779.849 C 609.548 800.170, 602 812.144, 602 815.194 C 602 820.065, 604.591 823.797, 608.862 825.077 C 616.567 827.385, 622.990 821.735, 631.626 805.050 C 637.297 794.093, 645.193 784.741, 648.386 785.200 C 651.675 785.671, 651.405 788.328, 647.439 794.527 C 642.046 802.959, 629 828.683, 629 830.886 C 629 833.109, 630.865 834, 635.517 834 C 643.569 834, 647.878 830.379, 655.747 817 C 664.914 801.415, 673.339 791.280, 676.304 792.268 C 679.754 793.418, 679.221 795.859, 673.714 804.135 C 661.778 822.074, 658.298 833.134, 664.371 833.828 C 671.252 834.614, 675.841 831.166, 686.103 817.500 C 689.821 812.550, 695.627 805.125, 699.007 801 C 702.386 796.875, 706.554 791.475, 708.268 789 C 709.983 786.525, 714.561 780.987, 718.443 776.694 C 728.516 765.552, 730.283 761.710, 730.804 749.811 C 731.621 731.134, 725.584 715.453, 709.178 693.641 C 692.938 672.048, 690.709 670.602, 679.667 674.499 M 395.202 677.250 C 395.989 678.487, 398.323 682.313, 400.389 685.750 C 402.455 689.188, 404.389 692, 404.687 692 C 404.986 692, 404.586 690.987, 403.798 689.750 C 403.011 688.513, 400.677 684.688, 398.611 681.250 C 396.545 677.813, 394.611 675, 394.313 675 C 394.014 675, 394.414 676.013, 395.202 677.250 M 611.667 721.667 C 611.300 722.033, 611 727.464, 611 733.735 L 611 745.136 614.250 742.909 C 624.156 736.122, 625.700 732.712, 621.480 726.944 C 617.569 721.600, 613.774 719.559, 611.667 721.667 M 472.208 756.250 C 470.863 757.870, 473.124 763.464, 475.669 764.814 C 476.676 765.349, 482.675 766.567, 489 767.521 C 504.194 769.812, 514.585 773.139, 520.387 777.569 L 525.070 781.145 528.572 778.071 C 539.095 768.831, 558.660 762.882, 584.624 761.027 C 598.319 760.049, 601 759.194, 601 755.809 C 601 754.369, 473.406 754.806, 472.208 756.250 M 579.500 771.666 C 558.901 774.184, 536.189 781.730, 532.565 787.260 C 530.778 789.988, 529.658 786.940, 551.759 839.500 C 563.923 868.427, 574.481 894.559, 577.820 904 C 579.473 908.675, 581.456 913.968, 582.227 915.762 L 583.629 919.024 585.929 916.576 C 591.516 910.628, 611.984 902.397, 631 898.451 C 652.861 893.913, 670.150 892.677, 712.500 892.623 C 759.963 892.562, 781.950 894.360, 828.755 902.128 C 839.345 903.885, 848.313 905.020, 848.684 904.649 C 850.162 903.171, 811.673 857.358, 778.054 820.578 C 770.049 811.821, 758.738 799.446, 752.918 793.078 C 747.099 786.710, 740.409 779.767, 738.053 777.648 L 733.769 773.796 728.305 779.148 C 722.874 784.468, 711 799.403, 711 800.914 C 711 801.349, 714.712 801.995, 719.250 802.350 C 736.320 803.684, 748.376 806.958, 745.780 809.554 C 745.449 809.885, 740.525 809.465, 734.839 808.621 C 729.153 807.777, 720.869 806.784, 716.432 806.414 L 708.364 805.743 700.432 815.892 C 690.632 828.431, 690.759 828, 696.867 828 C 710.929 828, 761.479 833.683, 768.744 836.081 C 771.722 837.063, 773.392 840, 770.973 840 C 770.409 840, 760.596 838.650, 749.168 837.001 C 720.008 832.792, 688.549 831.362, 685 834.084 C 673.557 842.861, 663.156 844.710, 656.768 839.102 C 653.492 836.225, 653.450 836.217, 651.134 838.092 C 647.970 840.655, 639.685 843, 633.796 843 C 629.599 843, 628.393 842.495, 624.728 839.199 C 620.639 835.523, 620.327 835.420, 615.239 836.091 C 609.090 836.901, 603.641 835.890, 600.928 833.435 C 599.090 831.771, 598.396 831.836, 585.751 834.856 C 570.246 838.559, 570 838.578, 570 836.108 C 570 834.867, 570.945 833.996, 572.750 833.575 C 592.803 828.897, 595.943 827.762, 594.785 825.610 C 594.161 824.449, 593.126 821.731, 592.486 819.570 C 591.518 816.305, 590.663 815.412, 587.440 814.296 C 581.809 812.346, 578.160 808.358, 576.369 802.197 L 574.811 796.838 569.656 797.582 C 561.749 798.723, 560.589 798.632, 560.226 796.842 C 559.993 795.698, 560.760 795.015, 562.694 794.641 C 564.237 794.343, 568.064 793.599, 571.198 792.989 L 576.897 791.880 583.855 781.440 L 590.813 771 586.657 771.150 C 584.370 771.232, 581.150 771.465, 579.500 771.666 M 478 779.008 C 478 780.186, 480.023 784.277, 482.495 788.099 C 493.996 805.877, 505.379 834.872, 501.759 837.170 C 495.382 841.218, 475.565 830.588, 459.107 814.292 C 448.153 803.445, 445.848 802.301, 442.471 806.032 C 441.459 807.150, 439.252 808.919, 437.566 809.963 C 435.880 811.007, 433.715 813.196, 432.755 814.826 C 430.458 818.729, 431.220 819, 444.500 819 C 455.624 819, 458 819.453, 458 821.575 C 458 822.691, 453.248 822.926, 431.689 822.876 C 405.620 822.816, 405.323 822.839, 399.274 825.385 C 394.485 827.400, 390.725 828.096, 381.834 828.613 C 375.601 828.976, 369.816 829.622, 368.979 830.049 C 368.142 830.476, 362.230 831.548, 355.840 832.432 C 349.451 833.315, 340.235 834.920, 335.361 835.998 C 325.253 838.232, 321.408 838.468, 320.446 836.913 C 319.227 834.940, 321.349 834.230, 336.500 831.543 C 344.750 830.080, 354.992 828.157, 359.261 827.269 L 367.021 825.655 361.777 822.787 C 358.893 821.210, 354.501 818.227, 352.017 816.159 C 340.168 806.294, 339.748 806.121, 326 805.438 C 319.125 805.096, 308.414 804.183, 302.199 803.408 C 288.200 801.664, 288.344 801.662, 287.614 803.563 C 287.284 804.423, 288.578 814.660, 290.490 826.313 C 295.199 855.018, 303.705 910.996, 304.574 919 C 305.661 929.011, 306.395 930.374, 310.271 929.581 C 328.514 925.852, 426.733 910.207, 449 907.485 C 496.390 901.691, 542.322 905.758, 573.230 918.486 C 574.839 919.149, 574.828 918.822, 573.074 913.849 C 570.566 906.737, 558.350 878.246, 547.198 853.500 C 542.241 842.500, 534.119 823.438, 529.149 811.141 C 524.179 798.844, 519.300 787.883, 518.306 786.785 C 514.444 782.514, 508.905 780.744, 495.099 779.372 C 487.729 778.639, 480.866 777.775, 479.849 777.452 C 478.443 777.006, 478 777.379, 478 779.008 M 467 798 C 465.075 799.054, 462.693 799.935, 461.707 799.958 C 456.671 800.076, 486.039 826, 491.208 826 C 493.003 826, 478.390 799.726, 475.219 797.250 C 473.051 795.558, 471.143 795.732, 467 798 M 271 802.084 C 271 804.152, 275.025 831.995, 286.537 909.569 C 288.992 926.107, 291 940.519, 291 941.597 C 291 942.674, 291.960 944.377, 293.133 945.382 C 295.562 947.462, 292.525 947.592, 371 942.050 C 394.375 940.400, 424.750 938.357, 438.500 937.511 C 452.250 936.664, 465.300 935.756, 467.500 935.493 C 469.700 935.229, 485.450 934.344, 502.500 933.527 C 519.550 932.709, 537.932 931.822, 543.348 931.556 L 553.196 931.072 558.348 935.906 C 566.337 943.403, 568.887 944.369, 578.960 943.712 C 591.485 942.895, 605.536 937.555, 603.049 934.558 C 602.307 933.665, 602.641 933.012, 604.262 932.188 C 609.821 929.364, 654.354 923.779, 689.500 921.498 C 695 921.141, 706.925 920.117, 716 919.223 C 729.072 917.935, 744.739 917.587, 791.416 917.548 C 850.890 917.500, 853.524 917.340, 849.530 914.025 C 841.827 907.632, 744.923 899.719, 701.500 901.937 C 636.393 905.263, 603.146 912.862, 589.760 927.477 C 584.179 933.570, 580.727 934.566, 577.509 931.010 C 575.388 928.666, 556.649 922.606, 543 919.849 C 498.179 910.798, 446.343 914.053, 349.711 931.987 C 307.553 939.811, 302.866 940.252, 300.486 936.620 C 298.962 934.293, 293.735 902.575, 283.409 833 C 280.919 816.225, 278.571 802.210, 278.191 801.855 C 277.811 801.501, 276.038 800.903, 274.250 800.526 C 271.346 799.914, 271 800.080, 271 802.084 M 449 846.156 C 431.061 847.027, 413.525 848.693, 402.500 850.574 C 387.321 853.163, 353.160 860.007, 340.500 862.994 C 333.900 864.552, 326.340 866.145, 323.700 866.534 C 320.018 867.077, 318.972 867.621, 319.210 868.871 C 319.691 871.398, 322.872 871.324, 335.147 868.500 C 396.895 854.296, 446.076 847.758, 474.723 849.945 C 487.740 850.939, 513.287 854.303, 520.472 855.969 C 525.211 857.067, 525.903 856.656, 523.599 854.109 C 518.891 848.907, 479.289 844.685, 449 846.156 M 637 857.140 C 615.235 859.698, 587.112 865.488, 584.692 867.908 C 584.165 868.435, 583.995 869.546, 584.315 870.377 C 584.818 871.689, 586.062 871.570, 593.697 869.487 C 620.099 862.282, 653.655 859.186, 692.500 860.372 C 714.692 861.049, 769.683 867.018, 781.224 870.003 C 790.462 872.392, 791 872.421, 791 870.526 C 791 866.054, 767.507 861.929, 717 857.534 C 697.892 855.871, 649.806 855.634, 637 857.140 M 462.500 876.119 C 431.524 878.003, 323.708 897.747, 323.906 901.500 C 324.017 903.612, 331.660 902.993, 347.278 899.606 C 443.479 878.747, 483.201 875.809, 530.451 886.057 C 539.969 888.122, 543.198 887.486, 538.575 884.457 C 530.502 879.167, 488.345 874.547, 462.500 876.119 M 750 926.142 C 718.617 926.965, 667.079 930.518, 659 932.416 C 658.175 932.609, 702.388 932.820, 757.250 932.884 C 852.863 932.995, 857 932.925, 857 931.191 C 857 925.990, 857.558 926.061, 814.500 925.770 C 792.500 925.622, 763.475 925.789, 750 926.142" stroke="none" fill="#1a1a1a" fill-rule="evenodd"/>
</svg>