<svg xmlns="http://www.w3.org/2000/svg" width="1024" height="1024" viewBox="0 0 1024 1024" version="1.1">
	<path d="M 456.500 23.622 C 422.184 27.111, 398.929 31.920, 372.845 40.920 C 295.271 67.687, 243.036 116.668, 221.068 183.241 L 218.843 189.981 214.879 184.966 C 205.060 172.544, 192.095 167.850, 181.928 173.037 C 163.377 182.501, 145.042 241.014, 153.258 264.532 C 158.297 278.956, 173.890 286.287, 190.590 282.082 C 193.149 281.437, 195.442 281.109, 195.685 281.351 C 195.927 281.594, 194.527 288.499, 192.573 296.695 C 190.618 304.891, 186.064 326.426, 182.452 344.549 C 172.537 394.298, 170.591 401.132, 157.951 430.614 C 137.753 477.727, 131.473 500.429, 131.563 526 C 131.680 559.313, 144.735 584.581, 170.405 601.181 C 176.632 605.208, 178.836 605.764, 180.800 603.800 C 183.005 601.595, 182.053 600.284, 173.002 593.056 C 149.447 574.247, 140.030 554.646, 140.008 524.381 C 139.991 502.442, 146.238 480.502, 166.024 433.004 C 177.979 404.306, 181.259 392.612, 189.025 351 C 194.560 321.346, 199.346 299.015, 203.064 285.496 C 206.029 274.720, 206.205 274.392, 211.607 269.630 L 217.123 264.767 219.311 266.766 C 224.339 271.360, 228.077 272.500, 238.110 272.500 L 247.719 272.500 248.910 277 C 251.024 284.992, 257.796 297.615, 263.056 303.371 C 282.003 324.102, 305.313 316.700, 319.564 285.429 C 322.201 279.643, 323.417 277.946, 324.602 278.401 C 325.461 278.730, 331.370 279, 337.733 279 L 349.302 279 348.707 288.773 C 347.012 316.590, 334.384 347.999, 316.594 368.647 L 313.021 372.794 302.029 368.380 C 289.009 363.152, 284.393 362.363, 276.439 364.007 C 259.601 367.486, 245.490 381.687, 241.956 398.712 C 239.936 408.443, 241.175 430.157, 244.213 438.242 C 252.296 459.758, 266.676 473.076, 287.113 477.975 C 299.770 481.010, 306.667 480.710, 321.500 476.479 C 323.051 476.037, 323.817 476.631, 324.912 479.131 C 330.289 491.402, 351.090 515.627, 366.021 527.008 C 379.989 537.656, 403.370 550.206, 420.250 556.118 C 428.077 558.859, 427.894 558.429, 423.941 564.788 C 420.994 569.529, 420.592 569.787, 412.975 571.826 C 378.296 581.107, 337.442 605.488, 313.644 631.104 L 306.122 639.201 301.292 637.597 C 283.943 631.835, 269.400 613.845, 264.432 592.001 C 262.408 583.100, 260.298 580.235, 257.048 581.974 C 254.073 583.566, 254.625 592.245, 258.390 603.073 C 263.853 618.781, 278.803 636.270, 292.708 643.221 C 298.606 646.169, 299.658 647.039, 298.490 648.008 C 292.560 652.929, 269.451 691.980, 259.733 713.500 C 247.206 741.241, 246.702 750.928, 257.271 760.799 L 259.733 763.098 256.329 773.799 C 241.283 821.092, 239.589 857.756, 251.308 882.434 C 257.087 894.601, 270.522 907.265, 285.750 914.896 C 289.188 916.619, 291.994 918.360, 291.987 918.764 C 291.980 919.169, 291.050 922.425, 289.920 926 C 282.373 949.887, 273.803 993.853, 276.146 996.675 C 277.577 998.400, 280.450 998.368, 281.907 996.612 C 282.541 995.848, 284.788 986.736, 286.901 976.362 C 289.015 965.988, 292.692 949.347, 295.073 939.382 L 299.403 921.263 307.461 923.987 C 329.522 931.444, 351.431 934.856, 382.500 935.673 C 405.645 936.281, 428.528 934.679, 443.500 931.402 C 457.010 928.445, 456.664 928.416, 469.040 933.517 C 487.944 941.309, 496.586 943.129, 517.500 943.720 C 559.415 944.904, 583 936.277, 583 919.759 C 583 916.480, 583.523 915.800, 588.721 912.325 C 598.640 905.694, 603.032 896.267, 600.109 887.882 C 599.064 884.885, 599.211 884.378, 601.936 881.562 C 609.542 873.702, 609.937 864.554, 603.012 856.667 C 599.985 853.219, 599.938 853.021, 601.445 850.106 C 604.435 844.325, 602.824 835.862, 597.865 831.298 C 592.272 826.149, 577.847 823.010, 559.750 823.004 C 553.837 823.002, 549 822.821, 549 822.602 C 549 822.383, 550.120 820.246, 551.488 817.852 C 556.939 808.317, 553.259 797.765, 543.565 795.129 C 530.962 791.702, 487.316 809.388, 465.536 826.746 L 458.959 831.988 434.730 830.472 C 414.015 829.175, 372.285 824.619, 371.202 823.535 C 371.010 823.343, 371.505 821.907, 372.303 820.343 C 373.100 818.779, 375.650 812.266, 377.969 805.869 L 382.185 794.237 388.009 793.579 C 395.775 792.700, 398.178 790.590, 401.451 781.776 C 409.222 760.853, 413.301 736.700, 413.419 710.909 C 413.504 692.475, 412.979 690, 408.985 690 C 406.540 690, 406.001 691.954, 405.996 700.832 C 405.983 725.746, 402.207 752.149, 395.897 771.456 C 390.968 786.538, 392.876 785.534, 369.500 785.349 C 331.533 785.049, 288.453 773.348, 266.713 757.432 C 256.219 749.749, 255.824 744.662, 264.111 723.910 C 273.284 700.944, 293.059 667.594, 308.440 649.156 C 331.282 621.774, 364.975 597.921, 398 585.752 C 412.796 580.300, 412.188 580.299, 414.445 585.792 C 418.389 595.389, 440.103 613.932, 458 622.988 C 493.815 641.111, 536.433 638.386, 558.270 616.578 C 570.303 604.561, 574.941 593.364, 570.965 585.934 C 569.723 583.614, 569.672 583.620, 574.955 585.484 C 594.524 592.389, 622.957 611.677, 639.810 629.480 C 649.146 639.344, 654.667 647.964, 668.962 675 C 674.633 685.725, 683.308 701.841, 688.239 710.814 C 693.171 719.786, 697.047 727.275, 696.853 727.455 C 696.659 727.636, 693.496 729.139, 689.824 730.796 C 680.457 735.022, 669.421 742.292, 663.275 748.287 C 660.401 751.090, 657.905 753.184, 657.727 752.941 C 657.550 752.699, 656.579 748.225, 655.568 743 C 651.755 723.283, 640.189 681.137, 637.802 678.261 C 636.372 676.539, 633.514 676.675, 631.967 678.540 C 630.909 679.815, 631.491 682.956, 635.348 696.790 C 650.865 752.446, 660.375 806.618, 670.494 897 C 675.470 941.435, 681.982 990.047, 683.356 993 C 686.281 999.288, 691.305 995.286, 690.402 987.387 C 687.696 963.726, 682.172 919.990, 679.049 897.500 C 673.787 859.604, 673.715 859, 674.502 859 C 674.881 859, 676.463 859.905, 678.016 861.012 C 693.974 872.374, 724.034 877.797, 743 872.733 C 787.783 860.777, 810.736 815.947, 808.656 744.500 L 808.044 723.500 811.623 719 C 829.613 696.379, 830.632 661.813, 814.301 628.214 C 808.394 616.063, 802.050 609.114, 792.658 604.508 C 785.016 600.761, 771.832 597, 766.340 597 C 764.503 597, 763.005 596.663, 763.010 596.250 C 763.016 595.837, 763.916 590.383, 765.010 584.129 C 766.105 577.875, 767 570.155, 767 566.974 C 767 561.203, 767.010 561.184, 771.363 558.633 C 788.115 548.816, 789.926 524.538, 774.499 516.567 L 770.500 514.500 770.476 500 C 770.453 486.535, 770.254 485.001, 767.681 478.512 C 764.093 469.463, 757.100 458.288, 749.523 449.500 L 743.489 442.500 744.744 434.500 C 745.434 430.100, 746.052 419.525, 746.116 411 C 746.237 394.901, 745.811 391.752, 739.563 362.500 C 736.603 348.640, 734.540 328.781, 735.298 321.423 C 735.704 317.476, 737.038 314.470, 741.289 307.923 C 758.339 281.668, 763.384 262.225, 763.456 222.500 C 763.505 195.900, 762.790 190.704, 756.383 171.100 C 741.164 124.526, 709.489 92.077, 664.851 77.334 C 655.911 74.381, 651.155 72.047, 642.458 66.345 C 609.454 44.705, 573.181 31.398, 531 25.453 C 519.989 23.901, 466.646 22.590, 456.500 23.622 M 462 31.654 C 441.250 33.636, 435.551 34.297, 428.123 35.583 C 354.966 48.249, 290.289 84.156, 257.765 130.162 C 246.082 146.688, 234.406 169.580, 227.754 189 L 224.843 197.500 228.137 207.715 C 231.168 217.112, 231.609 217.885, 233.647 217.374 C 237.371 216.439, 246.577 219.735, 250.454 223.392 C 252.420 225.246, 254.298 226.327, 254.628 225.793 C 256.109 223.396, 272.253 212.391, 279.976 208.513 C 299.734 198.592, 314.460 197.191, 321.310 204.578 C 328.288 212.104, 330.743 240.167, 326.420 263 C 325.639 267.125, 325 270.674, 325 270.886 C 325 272.159, 360.447 269.902, 368 268.149 C 429.870 253.783, 488.820 212.241, 514.244 165.093 C 515.546 162.679, 516.560 161.940, 518.244 162.180 C 527.539 163.500, 511.829 189.379, 487.335 213.097 C 455.563 243.862, 404.831 270.353, 364.809 277.078 L 357.279 278.343 356.670 287.615 C 354.518 320.374, 340.875 353.153, 318.140 380.185 L 312.500 386.891 311.500 384.017 C 310.140 380.109, 310.748 380.459, 297.398 375.896 C 287.678 372.574, 284.616 371.930, 280.673 372.377 C 269.609 373.631, 257.779 382.152, 252.426 392.722 C 248.436 400.601, 248.102 423.467, 251.830 433.490 C 261.153 458.558, 278.031 470.618, 303.500 470.410 C 312.120 470.340, 315.778 469.853, 320.407 468.160 C 328.503 465.199, 328.422 465.167, 331.911 472.623 C 349.622 510.472, 394.252 542.384, 448.500 555.989 C 501.164 569.196, 558.961 566.987, 592.677 550.479 L 601.855 545.985 598.858 537.743 C 597.209 533.209, 595.555 529.205, 595.180 528.845 C 594.806 528.485, 591.350 528.862, 587.500 529.683 C 572.447 532.891, 559.068 529.802, 549.580 520.925 C 534.628 506.939, 531.547 490.254, 540.692 472.790 C 547.154 460.449, 561.811 449.600, 577 445.914 C 585.290 443.903, 603.181 444.160, 610.718 446.399 L 616.936 448.246 620.718 445.082 C 645.084 424.700, 659.193 418.709, 683 418.634 C 701.056 418.577, 714.588 422.422, 730.251 432.060 C 732.983 433.740, 735.373 434.960, 735.563 434.771 C 735.752 434.581, 736.427 430.168, 737.062 424.963 C 739.041 408.746, 737.029 391.503, 729.422 359.500 C 728.095 353.916, 727.601 344.205, 726.982 311.500 C 726.251 272.908, 725.623 263.116, 722.833 246.762 C 721.454 238.678, 722.180 239.364, 703.500 228.464 C 664.852 205.912, 637.351 182.833, 618.082 156.780 L 611.665 148.103 608 156.302 C 598.197 178.230, 579.875 202.104, 561.139 217.361 C 536.426 237.486, 489.263 259.062, 486.385 251.561 C 485.243 248.585, 488.051 246.676, 501.183 241.500 C 548.423 222.880, 580.255 194.926, 599.111 155.500 C 603.427 146.475, 604.832 142.342, 606.503 133.750 C 607.240 129.965, 610.111 130.206, 612.444 134.250 C 616.841 141.870, 631.813 160.705, 641.550 170.867 C 660.403 190.541, 677.549 203.631, 706.160 220.190 C 715.007 225.311, 723.502 230.734, 725.037 232.242 C 729.726 236.845, 733.532 256.697, 734.675 282.500 C 735.508 301.332, 735.777 301.858, 740.234 293.366 C 750.687 273.448, 755.406 250.395, 755.457 219 C 755.490 198.490, 753.662 188.433, 746.280 168.500 C 730.306 125.370, 697.627 94.019, 658.094 83.898 C 650.242 81.888, 649.813 81.664, 636.833 72.824 C 596.620 45.436, 542.044 30.657, 483 31.169 C 473.375 31.252, 463.925 31.470, 462 31.654 M 185.500 180.871 C 169.905 190.557, 155.778 235.742, 161.074 259 C 165.512 278.494, 186.386 280.450, 206.139 263.223 L 212.292 257.856 212.076 249.694 C 211.840 240.762, 211.613 240.409, 205.520 239.496 C 196.697 238.173, 196.011 237.892, 195.369 235.336 C 194.108 230.308, 196.785 229.319, 206.248 231.318 L 214.500 233.061 216.262 230.781 C 217.231 229.526, 219.369 226.842, 221.014 224.815 L 224.004 221.130 221.394 213.815 C 215.793 198.115, 206.560 185.386, 197.639 181.067 C 192.364 178.514, 189.373 178.465, 185.500 180.871 M 298 209.932 C 286.576 213.722, 276.912 219.052, 264.750 228.274 C 257.651 233.656, 256.990 235.186, 258.865 241.873 C 259.648 244.666, 266.135 247.551, 273.968 248.590 C 278.494 249.191, 281 250.892, 281 253.363 C 281 255.302, 277.588 256.818, 274.243 256.364 C 268.658 255.606, 261.725 254.215, 259.748 253.457 C 258.474 252.968, 257.993 253.290, 257.974 254.643 C 257.959 255.664, 257.135 258.300, 256.142 260.500 C 254.015 265.212, 255.024 270.685, 260.068 281.810 C 268.561 300.542, 280.346 309.681, 291.332 306.056 C 307.251 300.802, 322.978 260.797, 320.582 231.652 C 318.737 209.213, 313.976 204.633, 298 209.932 M 228.086 229.750 C 222.363 235.291, 219.424 243.197, 220.276 250.761 C 221.888 265.055, 243.260 270.341, 248.448 257.728 C 253.818 244.675, 248.714 228.959, 238.152 226.025 C 233.112 224.626, 233.546 224.465, 228.086 229.750 M 648.869 257.510 C 642.082 261.197, 645.371 267.353, 652.816 264.896 C 661.118 262.156, 676.245 265.828, 686.292 273.023 C 692.179 277.238, 693.868 277.732, 695.800 275.800 C 700.455 271.145, 686.153 260.284, 671.201 257.121 C 663.823 255.560, 652.080 255.765, 648.869 257.510 M 442.977 272.345 C 430.384 276.791, 418.002 287.167, 413.029 297.440 C 410.315 303.047, 410.652 305.400, 414.230 305.814 C 416.570 306.084, 417.448 305.338, 420.616 300.386 C 429.441 286.591, 442.359 278.739, 457.200 278.150 C 465.693 277.813, 466.035 277.708, 466.653 275.245 C 467.620 271.395, 464.916 269.996, 456.559 270.021 C 451.791 270.035, 447.383 270.790, 442.977 272.345 M 652.047 330.950 C 642.794 340.855, 644.824 367.425, 655.453 375.532 C 663.381 381.579, 673.159 378.755, 678.324 368.927 C 684.139 357.865, 680.676 336.178, 672.123 330.088 C 667.186 326.572, 655.675 327.066, 652.047 330.950 M 458.390 346.036 C 446.183 352.078, 444.779 375.575, 455.934 387.110 C 471.620 403.330, 493.361 382.060, 485.397 358.285 C 481.110 345.486, 469.833 340.372, 458.390 346.036 M 585.182 378.520 C 582.410 379.723, 581.916 380.418, 582.182 382.730 C 582.494 385.451, 582.624 385.502, 589.544 385.618 C 598.474 385.767, 602.144 387.600, 604.898 393.288 C 609.788 403.390, 606.094 413.158, 595.098 419.203 C 588.977 422.569, 592.667 428.255, 599.507 425.998 C 607.460 423.373, 615 411.534, 615 401.671 C 615 384.267, 599.556 372.276, 585.182 378.520 M 269.596 398.306 C 268.498 399.109, 267.943 400.554, 268.155 402.056 C 268.487 404.409, 268.860 404.521, 278.176 405.068 C 293.048 405.942, 298.139 410.463, 302.067 426.283 C 304.361 435.523, 310.676 434.841, 309.708 425.458 C 308.496 413.712, 300.185 401.614, 291.235 398.564 C 285.561 396.631, 272.106 396.471, 269.596 398.306 M 666.145 428.953 C 641.106 435.101, 617.033 456.011, 607.327 480.043 C 599.509 499.396, 600.482 527.294, 609.453 541.056 L 611.771 544.612 608.215 550.341 C 604.548 556.248, 603.012 563.926, 604.394 569.435 C 606.074 576.129, 615.624 582.811, 626.811 585.122 C 643.738 588.618, 666.518 578.123, 669.946 565.247 L 671.079 560.995 676.289 564.881 C 695.366 579.109, 712.409 573.687, 725.846 549.116 L 728.619 544.044 733.498 548.998 C 742.322 557.957, 749.648 559.294, 760.857 553.991 C 772.467 548.499, 777 543.359, 777 535.688 C 777 528.567, 766.732 519.910, 763.511 524.315 C 761.290 527.354, 760.758 526.099, 761.366 519.250 C 763.748 492.430, 763.079 486.695, 755.984 473.124 C 737.974 438.674, 700.864 420.428, 666.145 428.953 M 583 453.143 C 577.416 454.679, 569 458.296, 569 459.160 C 569 461.286, 593.832 478, 596.990 478 C 597.914 478, 599.126 476.539, 599.840 474.565 C 600.523 472.676, 603.338 467.675, 606.095 463.452 C 608.852 459.229, 610.969 455.635, 610.799 455.466 C 608.308 452.975, 589.366 451.392, 583 453.143 M 553.693 468.965 C 540.521 483.193, 540.422 499.991, 553.433 513.377 C 560.500 520.649, 562.857 521.510, 575.500 521.435 C 589.877 521.351, 594.404 519.676, 593.487 514.780 C 592.935 511.832, 593.748 502.593, 595.539 491.460 L 596.188 487.420 590.880 484.531 C 582.963 480.222, 565.844 468.566, 563.076 465.598 C 559.872 462.165, 560.046 462.103, 553.693 468.965 M 187.551 519.917 C 185.638 523.014, 183.859 537.830, 183.879 550.500 C 183.927 579.908, 190.995 601.332, 207 620.582 C 219.118 635.157, 246.942 651.486, 251.646 646.783 C 254.539 643.889, 252.334 641.664, 241.248 636.291 C 222.789 627.345, 211.818 616.517, 202.935 598.477 C 193.224 578.753, 191.235 563.571, 193.243 524.500 C 193.487 519.756, 193.364 519.484, 190.844 519.193 C 189.384 519.024, 187.902 519.350, 187.551 519.917 M 727.922 561.237 C 726.694 563.032, 723.922 566.355, 721.761 568.623 L 717.834 572.745 721.167 575.104 C 723 576.401, 727.679 580.227, 731.565 583.607 C 743.368 593.871, 749.291 597.991, 752.250 597.996 C 753.763 597.998, 755 597.862, 755 597.693 C 755 597.524, 755.900 592.487, 757 586.500 C 758.100 580.513, 759 573.012, 759 569.832 L 759 564.050 756.435 565.025 C 750.109 567.430, 740.561 565.384, 733.005 560.003 L 730.155 557.974 727.922 561.237 M 585.500 562.553 C 581.100 564.373, 572.325 566.942, 566 568.263 C 554.521 570.661, 554.506 570.668, 557.500 572.187 C 559.150 573.025, 563.425 574.263, 567 574.940 C 585.328 578.407, 608.043 590.744, 632.784 610.664 L 636.068 613.309 634.941 610.404 C 634.321 608.807, 633.259 604.828, 632.582 601.562 L 631.350 595.624 625.707 594.342 C 608.293 590.388, 596.539 579.032, 595.260 564.929 C 594.964 561.668, 594.447 559.055, 594.111 559.123 C 593.775 559.191, 589.900 560.734, 585.500 562.553 M 431.785 567.858 C 429.428 571.490, 426.218 575.930, 424.652 577.725 L 421.803 580.988 424.380 585.386 C 425.798 587.805, 430.005 592.578, 433.729 595.992 C 474.627 633.489, 533.981 637.199, 558.571 603.796 C 564.154 596.213, 564.735 593.957, 562.427 588.839 C 560.849 585.338, 554.483 579.005, 553.654 580.111 C 553.493 580.325, 552.519 583.361, 551.490 586.858 C 549.356 594.105, 546.719 598, 543.946 598 C 540.517 598, 540.608 593.777, 544.281 582.539 L 547.745 571.940 529.623 572.609 C 500.900 573.670, 465.746 569.988, 444.285 563.671 L 436.070 561.253 431.785 567.858 M 675 574.095 C 675 575.513, 666.912 584.055, 663.714 586.014 L 660.929 587.721 673.632 597.754 L 686.334 607.786 688.785 604.143 C 691.839 599.603, 698.763 591.325, 705.982 583.583 C 709.049 580.293, 710.612 578.022, 709.500 578.469 C 697.971 583.101, 690.723 582.614, 680.615 576.527 C 677.527 574.667, 675 573.573, 675 574.095 M 708.347 593.724 C 694.604 610.201, 692.145 613.942, 694.276 615.135 C 695.230 615.668, 698.820 618.468, 702.255 621.356 C 710.644 628.409, 721.887 637.256, 725.189 639.402 C 727.789 641.092, 727.977 641.077, 730.876 638.933 L 733.875 636.716 730.789 634.608 C 724.699 630.447, 722.352 621.871, 725.347 614.718 C 726.873 611.074, 733.843 604.390, 737.612 602.957 C 740.860 601.723, 740.441 601.171, 730.691 593.847 C 726.186 590.463, 721.338 586.627, 719.918 585.321 L 717.336 582.947 708.347 593.724 M 645 593.476 C 640.548 594.677, 640.504 594.731, 640.841 598.595 C 641.366 604.605, 644.654 613.580, 650.055 623.744 C 657.358 637.487, 659.628 640.735, 663.756 643.350 L 667.500 645.722 669.578 639.611 C 672.038 632.378, 674.042 628.362, 678.773 621.188 C 680.746 618.198, 681.888 615.522, 681.388 615.064 C 676.855 610.920, 651.537 592.030, 650.651 592.131 C 650.018 592.202, 647.475 592.808, 645 593.476 M 750.734 607.088 C 736.176 610.518, 728.592 620.510, 735.570 627.066 C 738.021 629.368, 738.965 629.512, 755.820 630.157 C 779.642 631.068, 790 634.259, 790 640.686 C 790 644.205, 787.872 644.446, 779.784 641.846 C 760.547 635.660, 732.982 641.599, 734.185 651.670 C 734.852 657.249, 738.505 658.439, 750.678 657.041 C 768.266 655.021, 785 659.788, 785 666.818 C 785 668.837, 780.172 668.854, 772.010 666.862 C 749.685 661.415, 725.711 670.474, 732.133 681.931 C 734.433 686.034, 738.367 687.213, 752.925 688.161 C 770.930 689.332, 772.760 689.682, 774.114 692.214 C 775.992 695.722, 772.983 697, 762.848 697 L 754.077 697 752.614 701.929 C 751.809 704.640, 750.406 713.977, 749.496 722.679 C 745.931 756.766, 742.471 770.680, 736.601 774.526 C 731.398 777.935, 726.428 774.551, 717.473 761.502 L 711.514 752.820 708.790 756.082 C 704.938 760.696, 699.515 771.444, 697.479 778.500 C 694.274 789.604, 693.975 790.136, 691.107 789.803 C 683.740 788.947, 689.455 768.545, 701.787 751.675 L 706.776 744.851 704.219 740.175 C 702.813 737.604, 701.584 735.384, 701.489 735.241 C 701.113 734.680, 687.364 741.365, 681.229 745.092 C 672.754 750.240, 666.001 755.948, 662.632 760.809 L 659.924 764.717 661.975 779.608 C 663.680 791.997, 666.212 807.111, 672.820 844.345 C 673.449 847.890, 674.238 848.653, 682.914 854.103 C 697.628 863.347, 705.170 865.449, 723.500 865.414 C 746.839 865.369, 758.804 860.461, 773.532 844.889 C 792.085 825.271, 803.789 780.570, 800.547 741.709 L 799.814 732.917 795.429 736.959 C 790.899 741.134, 790.252 741.418, 787.582 740.393 C 784.467 739.198, 786.017 735.475, 792.750 727.980 C 802.735 716.865, 806.419 712.115, 809.794 706 C 823.159 681.790, 819.491 647.870, 800.760 622.454 C 791.509 609.900, 768.628 602.872, 750.734 607.088 M 681.794 632.708 C 675.897 645.248, 673.338 651.730, 674.058 652.298 C 674.301 652.490, 680.325 656.618, 687.445 661.472 L 700.391 670.297 701.945 667.904 C 703.384 665.690, 714.507 651.516, 717.619 647.932 C 718.813 646.557, 717.199 644.865, 704.466 634.142 C 696.483 627.419, 689.364 621.693, 688.646 621.417 C 687.773 621.083, 685.499 624.830, 681.794 632.708 M 716.641 663.310 L 707.785 675.500 711.568 678.500 C 713.649 680.150, 718.975 684.501, 723.404 688.168 C 727.833 691.835, 731.854 694.590, 732.340 694.290 C 732.826 693.990, 731.862 692.882, 730.198 691.829 C 721.568 686.364, 720.699 671.804, 728.682 666.432 C 731.543 664.507, 731.709 664.137, 730.326 662.755 C 729.481 661.910, 728.049 658.946, 727.143 656.169 L 725.497 651.120 716.641 663.310 M 674.447 667.750 C 676.812 672.013, 680.868 679.468, 683.462 684.318 L 688.179 693.136 691.756 685.568 C 693.724 681.406, 695.146 677.837, 694.917 677.637 C 693.172 676.119, 670.944 660, 670.595 660 C 670.349 660, 672.083 663.487, 674.447 667.750 M 698.730 691.251 C 693.245 704.155, 693.224 702.957, 699.125 713.444 L 704.404 722.827 706.952 720.843 C 711.671 717.168, 727 702.863, 727 702.134 C 727 701.737, 723.094 698.506, 718.320 694.956 C 713.546 691.405, 707.975 687.263, 705.939 685.751 L 702.237 683.001 698.730 691.251 M 740.485 699.048 C 739.688 701.557, 741.950 704.872, 743.054 702.813 C 745.110 698.978, 745.138 697, 743.135 697 C 741.997 697, 740.854 697.883, 740.485 699.048 M 728 713.116 C 707.937 731.620, 708.652 730.379, 713.038 739.098 C 716.838 746.651, 726.910 761.627, 730.386 764.893 C 732.724 767.089, 732.872 767.108, 733.828 765.321 C 736.084 761.106, 738 750.497, 739.625 733.225 L 741.344 714.950 737.976 711.475 C 733.816 707.183, 734.566 707.060, 728 713.116 M 261.664 785.481 C 253.538 814.424, 251.468 828.600, 252.256 849.903 C 252.865 866.366, 254.854 873.456, 261.881 884.221 C 284.701 919.177, 359.639 935.944, 439.396 923.941 C 458.029 921.136, 462.089 921.325, 471.574 925.433 C 496.109 936.061, 524.118 938.682, 552.135 932.972 C 564.978 930.355, 570.922 927.546, 573.220 923.006 C 575.372 918.755, 575.619 918.882, 568.492 920.565 C 557.049 923.268, 543.881 923.566, 541 921.189 C 536.465 917.446, 539.094 915.617, 550.154 914.819 C 568.360 913.505, 582.672 908.427, 589.514 900.853 C 595.535 894.188, 593.992 888.905, 586.743 891.366 C 574.484 895.528, 548.747 897.058, 546.630 893.750 C 544.846 890.963, 547.033 888.543, 551.601 888.250 C 563.358 887.497, 576.216 885.601, 581.500 883.842 C 597.273 878.591, 604.330 868.953, 597.250 862.333 L 594.500 859.762 574.500 860.476 C 563.500 860.869, 551.800 861.260, 548.500 861.345 L 542.500 861.500 542.500 858.504 C 542.500 854.215, 546.359 853.248, 568.753 851.932 C 579.032 851.328, 588.355 850.363, 589.471 849.788 C 595.638 846.611, 596.840 841.610, 592.421 837.514 C 586.881 832.380, 561.577 829.627, 542 832.029 C 525.088 834.104, 523.558 834.003, 523.188 830.794 C 522.906 828.351, 523.549 827.749, 529.784 824.609 C 543.440 817.732, 549.434 809.418, 544.171 804.655 C 537.205 798.351, 496.520 814.240, 470.471 833.437 L 461.566 840 453.033 839.991 C 433.262 839.971, 410.111 837.595, 369.784 831.446 C 357.290 829.542, 342.962 827.692, 337.943 827.335 C 328.238 826.646, 326.936 825.856, 329.038 821.929 C 330.217 819.726, 330.414 819.708, 346.629 820.283 L 363.029 820.864 364.902 817.182 C 366.782 813.487, 373 796.511, 373 795.073 C 373 794.651, 367.712 794.033, 361.250 793.700 C 331.592 792.172, 298.167 783.911, 273.971 772.129 L 266.442 768.463 261.664 785.481" stroke="none" fill="#1a1a1a" fill-rule="evenodd"/>
</svg>