<svg xmlns="http://www.w3.org/2000/svg" width="1024" height="1024" viewBox="0 0 1024 1024" version="1.1">
	<path d="M 524.500 52.474 C 498.799 56.572, 483.026 64.042, 458 83.968 C 441.349 97.226, 437.978 99.350, 428.592 102.501 C 415.897 106.763, 409.001 105.490, 401.312 97.466 C 396.010 91.932, 393.128 91.672, 388.490 96.310 C 380.392 104.408, 380.496 127.205, 388.704 143.403 C 393.982 153.819, 407.887 165.265, 422.331 171.086 C 428.345 173.509, 430.619 175.945, 429.526 178.794 C 428.947 180.301, 425.935 195.743, 424.608 204 C 424.299 205.925, 423.572 214.700, 422.992 223.500 C 420.632 259.319, 418.876 265.620, 409.070 273.444 C 395.794 284.037, 391.932 291.093, 391.211 306.075 C 389.901 333.274, 402.533 350.184, 432.621 361.509 C 436.279 362.886, 440.945 365.524, 442.990 367.372 C 445.035 369.219, 449.800 372.254, 453.580 374.115 C 466.023 380.244, 491.164 379.299, 511.314 371.945 C 519.418 368.987, 522.581 368.513, 526.750 369.630 C 529.780 370.442, 529.755 370.576, 523.655 386 C 520.719 393.425, 516.873 403.845, 515.107 409.156 C 511.078 421.279, 507.258 427.077, 499.563 432.748 C 481.554 446.023, 460.453 451.327, 440.246 447.659 C 425.520 444.986, 424.496 444.094, 418.826 429 C 413.419 414.608, 370.214 329.964, 358.339 310.500 C 309.533 230.503, 263.693 176.122, 200 122.658 C 191.475 115.502, 180.450 105.512, 175.500 100.458 C 163.196 87.894, 160.032 86.578, 154.111 91.560 C 147.970 96.728, 148.773 104.921, 156.107 111.916 C 161.697 117.248, 161.819 117.947, 159.050 128.833 C 150.027 164.314, 142.607 217.380, 140.010 265 C 138.208 298.035, 139.294 375.163, 142.022 408 C 143.145 421.515, 144.809 440.079, 145.474 446.500 C 145.701 448.700, 146.165 453.650, 146.505 457.500 C 146.845 461.350, 147.292 465.850, 147.500 467.500 C 147.707 469.150, 148.372 475.225, 148.977 481 C 149.582 486.775, 150.739 496.900, 151.547 503.500 C 152.356 510.100, 153.225 517.300, 153.478 519.500 C 155.737 539.139, 157.299 552.199, 158.500 561.500 C 160.516 577.109, 162.871 598.296, 163.503 606.500 C 163.800 610.350, 164.279 615.525, 164.568 618 C 167.180 640.395, 170.893 726.736, 170.963 766.706 C 171 787.705, 170.976 787.947, 168.500 791.595 C 165.761 795.632, 165.328 800.127, 167.306 804 C 168.471 806.280, 168.046 807.557, 162.489 818.500 C 143.517 855.855, 147.982 875.358, 175.144 873.786 C 182.020 873.388, 183.502 872.949, 186.763 870.350 C 198.237 861.205, 197.339 841.771, 184.230 815.514 L 179.743 806.529 181.335 802.234 C 183.058 797.585, 182.618 795.213, 179.111 790.236 C 177.302 787.668, 177.144 784.736, 176.537 742.500 C 175.875 696.410, 175.445 679.918, 174.519 665 C 174.228 660.325, 173.762 652.675, 173.483 648 C 172.659 634.185, 168.887 598.872, 162.057 541 C 153.917 472.040, 149.692 431.841, 148.445 411.500 C 148.142 406.550, 147.448 396.425, 146.904 389 C 145.190 365.628, 144.628 299.537, 145.921 273.500 C 147.611 239.476, 147.847 236.090, 149.578 221 C 150.429 213.575, 151.564 203.684, 152.100 199.020 C 154.513 178.010, 165.113 125.553, 167.410 123.257 C 171.045 119.622, 245.684 195.640, 278.112 236.004 C 295.810 258.034, 324.012 302.221, 343.212 338 C 358.495 366.482, 381.349 415.010, 387.334 431.691 L 389.915 438.883 384.524 440.450 C 368.445 445.124, 359.531 464.043, 364.477 483 C 368.315 497.713, 378.768 512.783, 388.406 517.498 C 398.081 522.231, 404.653 521.925, 415.148 516.252 C 415.505 516.059, 416.586 517.968, 417.551 520.495 C 419.202 524.818, 419.208 525.494, 417.653 531.938 C 413.425 549.454, 417.163 567.713, 427.208 578.610 C 431.848 583.644, 431.813 583.536, 441.577 622.500 C 450.535 658.246, 454.448 670.592, 457.438 672.551 C 459.620 673.981, 460.588 673.900, 469.654 671.524 C 486.839 667.022, 487.180 664.991, 476.523 630.716 C 470.384 610.971, 465 591.188, 465 588.375 C 465 586.562, 465.670 585.993, 468.250 585.616 C 470.038 585.355, 476.450 584.357, 482.500 583.398 C 499.855 580.648, 498.733 580.354, 501.554 588.382 C 507.030 603.966, 517.968 624.279, 527.480 636.529 C 531.985 642.330, 532 642.376, 532.003 650.425 C 532.012 671.140, 535.464 694.013, 540.595 707.350 C 543.929 716.017, 544.881 723.061, 543.098 725.876 C 542.366 727.031, 537.298 727.096, 511.672 726.280 C 454.215 724.449, 382.152 725, 361 727.430 C 359.075 727.651, 354.390 728.115, 350.588 728.461 L 343.676 729.089 347.943 724.821 C 359.518 713.247, 363.200 701.448, 356.738 696.645 C 353.344 694.122, 348.499 695.082, 337.517 700.452 C 333.676 702.330, 330.404 703.737, 330.247 703.580 C 330.089 703.422, 330.883 699.515, 332.010 694.897 C 335.619 680.111, 336.034 677.168, 334.865 674.603 C 333.732 672.116, 330.174 670, 327.124 670 C 321.861 670, 308.893 683.124, 305.855 691.525 C 305.164 693.436, 304.351 694.993, 304.049 694.984 C 303.747 694.976, 302.316 690.094, 300.869 684.136 C 292.232 648.575, 275.683 639.066, 275.396 669.500 C 275.296 680.191, 277.035 699.364, 278.538 704.138 C 279.076 705.846, 277.217 704.560, 271.830 699.500 C 261.352 689.657, 254.322 685.679, 246.528 685.183 C 236.342 684.534, 235.094 687.615, 240.585 699.858 C 241.907 702.805, 244.636 707.461, 246.650 710.204 L 250.312 715.193 243.658 714.480 C 228.577 712.865, 227.726 722.787, 242.263 730.731 L 245.500 732.500 241.500 732.759 C 221.337 734.065, 186.849 737.296, 184.250 738.122 C 182.463 738.690, 181 739.640, 181 740.232 C 181 741.441, 193.213 740.986, 230 738.409 C 242.375 737.542, 254.185 736.723, 256.245 736.589 C 263.361 736.124, 262.394 734.390, 252 728.971 C 248.975 727.394, 245.150 725.142, 243.500 723.967 L 240.500 721.829 247 722.479 C 250.724 722.852, 257.254 724.625, 262.289 726.631 C 267.122 728.556, 271.842 729.984, 272.777 729.804 C 276.124 729.160, 275.195 726.304, 270.799 723.725 C 263.158 719.241, 253.762 709.679, 248.651 701.186 C 243.295 692.283, 243.265 690.819, 248.466 691.992 C 256.397 693.781, 266.965 702.435, 279.350 717.284 C 284.395 723.333, 288.609 726.724, 289.711 725.622 C 290.068 725.265, 289.378 722.167, 288.178 718.737 C 284.108 707.105, 279.257 668.474, 281.036 661.867 C 282.362 656.942, 283.229 657.006, 286.294 662.250 C 290.639 669.684, 294.859 683.519, 298.041 700.762 C 299.740 709.968, 301.469 717.847, 301.885 718.270 C 302.824 719.228, 303.929 716.809, 307.491 706 C 311.555 693.669, 314.781 687.219, 318.993 683.007 C 322.225 679.775, 327.503 677.170, 328.600 678.266 C 329.910 679.577, 321.276 709.111, 316.838 718.500 C 311.384 730.036, 314.472 730.065, 325.451 718.581 C 335.745 707.813, 353 698.894, 353 704.340 C 353 708.239, 346.421 718.393, 340.416 723.764 C 330.041 733.042, 331.963 734.763, 350.892 733.144 C 383.902 730.321, 428.995 729.538, 477.126 730.952 C 499.470 731.609, 519.495 732.309, 521.626 732.507 C 523.757 732.706, 529.440 732.945, 534.256 733.040 C 539.072 733.134, 543.188 733.501, 543.402 733.855 C 543.617 734.210, 543.178 737.650, 542.427 741.500 C 541.676 745.350, 540.357 752.447, 539.496 757.272 C 538.260 764.202, 536.239 769.660, 529.872 783.272 C 510.279 825.161, 509.359 833.619, 523.727 839.781 C 537.274 845.590, 556.366 846.578, 577.944 842.587 C 598.194 838.841, 598.604 838.367, 603.957 812.493 C 608.906 788.573, 615.996 749.081, 616.014 745.337 C 616.048 738.246, 615.722 738.397, 630.310 738.748 C 653.406 739.303, 652.871 738.854, 651.094 756.178 C 649.434 772.370, 644.821 790.402, 636.173 814.500 C 628.654 835.453, 628.637 835.523, 628.568 846 C 628.464 861.954, 631.777 865.257, 649.796 867.166 C 665.691 868.850, 687.952 866.479, 704.179 861.374 C 715.678 857.756, 717.119 855.502, 718.476 839 C 718.725 835.975, 719.615 828.100, 720.454 821.500 C 721.796 810.954, 725.192 777.303, 726.742 759.210 C 727.484 750.544, 727.562 750.519, 747.299 752.519 C 764.398 754.252, 771.110 754.217, 771.709 752.391 C 772.116 751.151, 769.857 750.758, 746.537 748.015 C 727.963 745.830, 728.008 745.859, 727.984 736.059 C 727.967 728.746, 726.900 723.791, 721.725 706.988 C 715.025 685.234, 715.915 675.604, 726.923 650.756 C 737.396 627.114, 740.989 613.063, 741.015 595.653 C 741.032 584.094, 741.937 581.546, 746.984 578.857 C 751.007 576.713, 759.476 576.384, 763.703 578.206 C 780.527 585.461, 783.046 600.795, 773.115 635.500 C 766.731 657.808, 765.822 663.242, 765.805 679.170 C 765.765 718.289, 779.863 739.525, 811.513 748.020 C 815.906 749.199, 823.775 751.564, 829 753.275 C 842.455 757.682, 861.473 757.885, 876.203 753.778 C 910.643 744.175, 931.486 721.192, 932.764 691.408 C 933.482 674.669, 931.929 672.917, 923.668 681.150 C 910.698 694.075, 896.281 690.993, 887.882 673.500 C 882.873 663.067, 884.141 654.280, 892.837 639.154 C 921.614 589.100, 917.229 538.452, 880.869 500.927 C 854.879 474.103, 810.131 466.276, 777.357 482.820 C 763.329 489.901, 754.909 498.323, 740.184 520 C 728.495 537.208, 727.924 537.916, 727.236 536.051 C 725.865 532.337, 719.444 521.095, 716.641 517.500 C 714.925 515.300, 709.412 508.478, 704.388 502.340 C 699.365 496.203, 693.183 487.857, 690.651 483.794 C 684.600 474.087, 675.290 451.997, 677.250 452.001 C 677.388 452.001, 679.975 452.988, 683 454.194 C 691.820 457.711, 715.143 457.416, 727.478 453.631 C 746.699 447.734, 754.120 440.401, 758.611 422.871 C 760.646 414.931, 759.850 414.052, 752.675 416.313 C 743.960 419.061, 739.409 418.609, 735.400 414.600 C 730.379 409.579, 730.528 401.889, 735.922 387.706 C 744.294 365.690, 745.541 352.434, 740.647 337.500 C 737.340 327.407, 737.236 328, 742.318 328 C 747.691 328, 755.773 325.647, 763.099 321.949 C 768.744 319.101, 782 306.130, 782 303.456 C 782 301.839, 776.856 300.259, 771.319 300.175 C 763.296 300.053, 755.229 293.770, 752.966 285.882 C 752.442 284.055, 751.323 272.720, 750.479 260.694 C 748.895 238.126, 745.650 217.337, 741.943 206 C 732.916 178.392, 717.609 154.840, 700.500 142.234 C 692.661 136.458, 691.982 135.093, 692.670 126.500 C 694.383 105.101, 686.239 76.796, 674.848 64.558 C 669.462 58.772, 669.227 58.644, 663.181 58.207 C 651.419 57.356, 638.735 66.806, 623.310 87.913 C 623.144 88.139, 620.194 85.641, 616.754 82.360 C 592.492 59.219, 556.111 47.433, 524.500 52.474 M 522.655 59.597 C 505.034 62.780, 487.653 70.702, 472.338 82.529 C 445.305 103.407, 440.493 106.482, 428.715 110.406 C 422.536 112.464, 410.108 112.488, 405.218 110.451 C 403.173 109.599, 399.855 107.300, 397.845 105.341 L 394.190 101.780 392.355 104.581 C 390.043 108.109, 389.344 119.524, 390.963 127.321 C 394.804 145.822, 411.150 161.276, 431.916 166.037 C 440.753 168.063, 458.413 166.718, 470.979 163.061 C 487.704 158.193, 490.612 156.387, 496.860 146.991 C 501.739 139.654, 511.599 130, 514.214 130 C 515.359 130, 515.610 129.627, 508.505 138.467 C 496.470 153.442, 493.791 169.886, 502.462 175.567 C 507.250 178.704, 516.098 174.718, 536.026 160.446 C 564.096 140.342, 584.871 131.927, 602.100 133.683 C 608.298 134.315, 608.955 133.613, 608.986 126.327 C 609.034 115.218, 577.020 102.154, 549.199 101.930 C 543.362 101.883, 541.158 101.574, 542.500 100.992 C 546.236 99.372, 568.867 100.683, 578 103.049 C 588.031 105.648, 598.549 110.106, 605.487 114.699 C 611.971 118.991, 612.158 118.933, 611.802 112.755 C 611.503 107.561, 611.446 107.477, 606.013 104.236 C 582.954 90.480, 548.215 86.435, 519.344 94.144 C 507.744 97.241, 506.957 97.279, 512.924 94.454 C 537.424 82.855, 576.561 85.167, 605.121 99.901 L 614.741 104.864 615.871 102.385 C 619.335 94.781, 616.954 90.129, 604.979 81.105 C 580.379 62.569, 550.056 54.646, 522.655 59.597 M 655.227 67.116 C 649.061 70.169, 636.811 82.012, 631.397 90.154 C 621.146 105.574, 616.030 123.377, 616.012 143.691 C 616.004 151.942, 615.601 157.129, 614.933 157.541 C 613.072 158.691, 611.141 154.732, 609.914 147.250 L 608.726 140 603.113 140.022 C 586.962 140.084, 567.829 147.676, 545 163.080 C 520.494 179.617, 508.984 184.719, 500.813 182.668 C 496.596 181.610, 492.036 176.098, 490.345 170.016 L 488.769 164.347 479.134 167.645 C 467.324 171.687, 456.577 173.968, 445.236 174.839 C 435.142 175.614, 436.505 173.345, 432.538 195.975 C 430.958 204.985, 429.998 214.234, 429.995 220.475 C 429.989 230.059, 427.044 254.222, 424.889 262.351 C 424.328 264.469, 424.028 266.361, 424.223 266.557 C 424.418 266.752, 428.835 266.213, 434.039 265.359 C 455.498 261.838, 475.409 267.669, 490.250 281.821 C 498.521 289.708, 498.036 292.778, 489.644 285.659 C 461.645 261.907, 414.064 266.293, 401.166 293.814 C 397.856 300.877, 397.429 314.080, 400.222 323 C 410.872 357.012, 457.191 368.655, 492.450 346.182 C 504.654 338.404, 510.525 331.343, 507.536 328.040 C 505.949 326.287, 505.958 326.152, 507.675 325.778 C 510.890 325.076, 513.742 327.109, 516.405 332.002 C 520.412 339.364, 519.474 343.003, 515.053 337.250 L 512.940 334.500 510.736 337.500 C 498.844 353.691, 479.522 363.948, 460.792 364.015 C 454.352 364.038, 453.128 365.303, 457.161 367.767 C 466.715 373.601, 481.043 373.247, 506.500 366.545 C 513.948 364.584, 518.862 364.084, 535 363.642 C 578.963 362.438, 608.265 352.111, 631.807 329.524 C 670.046 292.838, 681.318 251.475, 666.830 201 C 662.025 184.260, 662.019 184.393, 667.821 176.396 C 681.297 157.820, 685.670 142.412, 684.731 116.809 C 683.935 95.104, 678.892 79.464, 669.545 69.709 C 664.350 64.286, 661.857 63.835, 655.227 67.116 M 158.655 97.829 C 156.488 100.223, 156.558 103.232, 158.844 106.056 L 160.689 108.334 164.344 105.417 C 168.809 101.855, 168.815 101.723, 164.656 98.551 C 160.666 95.508, 160.746 95.518, 158.655 97.829 M 659.026 101.438 C 657.902 104.061, 655.828 110.773, 654.416 116.353 C 648.793 138.590, 635.704 162, 628.894 162 C 626.460 162, 626.488 163.226, 628.973 165.475 C 633.569 169.635, 641.795 164.625, 648.103 153.823 C 656.150 140.045, 660.468 126.054, 661.968 108.894 C 663.023 96.831, 662.054 94.376, 659.026 101.438 M 170.200 111.200 C 168.754 112.646, 168.640 114, 169.965 114 C 170.495 114, 171.411 113.100, 172 112 C 173.179 109.797, 172.088 109.312, 170.200 111.200 M 176.958 117.550 C 175.904 118.821, 175.927 119.336, 177.086 120.409 C 177.864 121.128, 185.475 127.941, 194 135.549 C 227.032 165.027, 273.108 212.913, 282.627 227.658 C 289.027 237.572, 289.532 237.923, 292.766 234.689 L 295.324 232.131 287.433 222.315 C 260.393 188.678, 226.777 154.477, 190.359 123.552 C 181.239 115.807, 179.173 114.882, 176.958 117.550 M 403 135.345 C 403 138.525, 413.208 144.077, 423.400 146.441 C 434.533 149.022, 448.970 146.373, 455.799 140.495 C 459.922 136.946, 458.242 136.894, 450 140.317 C 436.618 145.874, 420.611 144.578, 408.610 136.968 C 403.276 133.585, 403 133.505, 403 135.345 M 687.986 152.750 C 686.788 156.463, 684.034 163.152, 681.866 167.615 L 677.923 175.729 683.452 183.755 C 699.658 207.281, 705.923 230.803, 704.694 263.500 C 704.081 279.792, 702.922 286.339, 695.318 316.500 C 690.629 335.094, 690.528 335.820, 690.577 350.500 C 690.619 363.150, 690.968 366.518, 692.801 372 C 695.482 380.020, 695.510 380.772, 693.041 378.537 C 688.875 374.767, 685.593 358.094, 686.509 345.351 C 687.144 336.514, 688.275 330.982, 694.936 304.128 C 704.370 266.091, 704.806 246.988, 696.866 219.500 C 692.659 204.938, 677.237 178.088, 673.747 179.251 C 673.128 179.457, 671.812 180.723, 670.822 182.063 C 669.063 184.445, 669.121 184.894, 673.425 202 C 679.266 225.216, 680.426 233.746, 679.672 247.941 C 678.265 274.448, 665.207 304.902, 646.827 324.537 C 640.207 331.610, 639.813 333.123, 639.242 353.678 C 638.033 397.233, 652.854 430.586, 679.324 443.877 C 703.849 456.192, 739.511 448.477, 749.647 428.663 L 752.122 423.827 749.811 424.663 C 748.540 425.123, 744.720 425.500, 741.321 425.500 C 724.370 425.500, 719.405 408.178, 729.426 384 C 734.711 371.249, 736.380 362.509, 735.712 351.088 C 734.995 338.833, 731.030 324.829, 726.910 320 C 718.665 310.337, 717.565 298.165, 722.684 273.223 C 727.152 251.445, 728.808 257.684, 724.855 281.404 C 722.346 296.459, 723.014 303.254, 727.760 310.931 C 733.908 320.874, 743.699 322.434, 758.126 315.768 C 762.291 313.844, 766.444 311.204, 767.357 309.900 C 769.016 307.532, 769.014 307.530, 763.959 306.123 C 757.696 304.381, 749.864 297.616, 747.622 292.012 C 745.899 287.708, 744.716 278.213, 742.946 254.500 C 740.879 226.794, 736.862 209.560, 728.002 190.383 C 720.947 175.112, 708.950 158.497, 699.159 150.436 C 691.712 144.306, 690.638 144.529, 687.986 152.750 M 449.500 184.355 C 440.533 188.542, 435.533 194.357, 439.038 196.524 C 441.052 197.768, 456.500 187.567, 456.500 184.993 C 456.500 181.772, 455.273 181.660, 449.500 184.355 M 564 184.500 C 562.165 186.711, 563.953 188.340, 571.795 191.604 C 579.717 194.901, 586.554 199.298, 588.020 202.038 C 590.271 206.243, 595.826 203.302, 594.118 198.810 C 592.239 193.868, 584.431 188.417, 574.181 184.890 C 567.547 182.608, 565.631 182.534, 564 184.500 M 440.503 223.297 C 430.917 232.883, 434.481 258.010, 445.424 257.996 C 453.796 257.986, 459.263 250.032, 459.263 237.863 C 459.263 222.754, 449.008 214.792, 440.503 223.297 M 445.389 227.048 C 442.199 228.234, 441.580 231.024, 443.975 233.419 C 446.621 236.066, 449.371 234.584, 449.804 230.277 C 450.143 226.907, 448.668 225.829, 445.389 227.048 M 558 236.752 C 546.754 242.369, 543.113 271.438, 552.709 278.986 C 565.672 289.183, 579.097 277.038, 579.235 254.988 C 579.325 240.668, 568.599 231.457, 558 236.752 M 297.182 240.585 C 293.933 242.861, 294.223 243.567, 304.166 257.581 C 327.516 290.491, 357.839 343.956, 372.061 377.292 L 374.532 383.083 378.516 380.069 C 380.707 378.412, 383.063 377.043, 383.750 377.028 C 384.438 377.013, 385 376.765, 385 376.478 C 385 373.106, 344.954 303.452, 329.245 279.500 C 320.459 266.104, 303.049 242.116, 300.694 240.161 C 299.706 239.341, 298.802 239.450, 297.182 240.585 M 562.543 243.345 C 560.451 244.875, 560.806 248.861, 563.166 250.340 C 564.370 251.095, 565.271 251.020, 566.416 250.070 C 570.206 246.924, 566.484 240.463, 562.543 243.345 M 413.095 287.912 C 409.942 290.857, 406.785 296.843, 407.648 298.240 C 409.308 300.925, 422 290.700, 422 286.679 C 422 283.845, 416.656 284.585, 413.095 287.912 M 469.207 298.470 C 463.297 301.107, 459.699 313.100, 464.608 313.801 C 466.142 314.020, 467.048 313.299, 467.938 311.150 C 469.540 307.283, 473.199 303.887, 474.738 304.838 C 475.402 305.248, 476.314 307.363, 476.766 309.537 C 478.286 316.854, 482.956 315.178, 482.985 307.306 C 483.013 299.597, 476.311 295.299, 469.207 298.470 M 625 344.194 C 602.458 360.054, 571.430 370, 544.489 370 C 538.909 370, 537.849 370.301, 536.577 372.250 C 533.020 377.699, 519.418 416.529, 515.122 433.500 C 508.693 458.895, 501.988 498.388, 503.797 500.197 C 505.360 501.760, 520.754 496.595, 532.811 490.461 C 550.896 481.261, 569.980 463.893, 582.756 445.009 C 588.529 436.476, 592 433.832, 592 437.967 C 592 443.303, 581.195 459.540, 569.383 471.952 C 548.197 494.214, 529.037 503.424, 490.286 509.971 C 483.568 511.106, 477.381 512.300, 476.536 512.625 C 473.009 513.978, 476.101 534.448, 483.367 557.841 C 487.744 571.933, 489.011 574, 493.275 574 C 501.184 574, 533.642 566.294, 547.944 561.021 C 585.876 547.035, 618.355 518.615, 633.582 486.086 C 638.136 476.356, 639.369 475.924, 638.822 484.250 C 637.787 500, 618.765 526.060, 595.965 542.966 C 573.572 559.570, 550.552 569.754, 520 576.574 C 513.125 578.109, 506.985 579.748, 506.356 580.217 C 505.204 581.075, 510.407 593.966, 517.973 609 C 535.183 643.199, 567.494 667.803, 603.409 674.058 C 611.267 675.426, 612.334 674.855, 611.044 669.970 C 607.963 658.297, 607.464 640.170, 610.039 633.398 C 611.789 628.795, 612.681 631.885, 613.877 646.689 C 615.409 665.656, 619.390 681.277, 626.188 695 C 630.964 704.639, 632.366 706.471, 643.283 717.339 C 660.786 734.763, 660.783 734.749, 655.848 770 C 655.271 774.125, 653.241 783.720, 651.337 791.323 C 647.327 807.335, 647.186 806.854, 656.759 809.807 C 671.891 814.475, 695.962 816.272, 707.378 813.586 C 714.360 811.943, 714.538 811.712, 715.403 803.160 C 715.773 799.497, 717.142 787.275, 718.445 776 C 720.056 762.055, 720.757 750.864, 720.637 741 C 720.460 726.507, 720.459 726.495, 716.377 716.500 C 705.602 690.111, 706.338 679.005, 721.019 646.500 C 731.917 622.370, 733.968 613.956, 734.067 592.983 C 734.137 578.279, 732.558 570.212, 725.950 551.500 C 720.197 535.211, 715.656 527.649, 702.530 512.500 C 686.925 494.490, 680.581 483.545, 673.558 462.518 C 668.976 448.798, 668.763 448.406, 662.156 441.518 C 648.275 427.049, 640.228 411.992, 635.980 392.538 C 633.619 381.728, 632.136 360.607, 633.150 352.226 C 633.691 347.751, 633.991 342.767, 633.817 341.151 L 633.500 338.213 625 344.194 M 674.678 338.712 C 673.771 340.180, 670.225 355.201, 668.982 362.843 C 667.501 371.949, 668.426 387.405, 671.080 397.893 C 675.959 417.180, 687.164 429.877, 703.855 435.036 C 712.739 437.781, 715.955 437.387, 707.781 434.554 C 678.327 424.348, 665.574 392.519, 673.982 350.197 C 675.986 340.106, 676.222 336.213, 674.678 338.712 M 382.625 386.450 C 380.493 387.220, 378.294 388.306, 377.737 388.863 C 376.432 390.168, 394.550 433.921, 400.976 444.984 C 402.089 446.901, 403 449.459, 403 450.670 C 403 452.011, 405.112 454.950, 408.401 458.187 C 413.117 462.828, 413.883 464.138, 414.430 468.502 C 414.774 471.251, 415.746 475.587, 416.588 478.138 C 417.957 482.281, 417.959 483.162, 416.611 486.388 C 415.781 488.375, 415.462 490, 415.901 490 C 417.102 490, 424.164 484.637, 426.950 481.608 L 429.400 478.946 425.111 468.723 C 422.752 463.100, 419.119 453.550, 417.037 447.500 C 411.410 431.147, 402.688 409.984, 396.225 397 C 389.970 384.435, 389.408 383.999, 382.625 386.450 M 502.500 439.538 C 487.113 452.857, 458.690 459.148, 437.187 453.993 C 432.614 452.897, 428.487 452, 428.015 452 C 427.543 452, 428.652 455.712, 430.480 460.250 C 432.308 464.788, 435.442 473.213, 437.445 478.972 C 441.685 491.164, 445.980 501.163, 447.461 502.293 C 448.032 502.729, 450.473 502.842, 452.885 502.544 C 455.296 502.245, 461.753 502.714, 467.233 503.585 C 475.267 504.863, 478.743 504.961, 485.176 504.096 C 494.729 502.810, 494.780 502.784, 495.461 498.715 C 495.757 496.947, 496.229 494.150, 496.510 492.500 C 496.791 490.850, 497.711 484.775, 498.554 479 C 500.177 467.887, 504.164 448.687, 506.496 440.750 C 508.153 435.113, 507.752 434.992, 502.500 439.538 M 381.405 449.250 C 378.160 451.437, 375.753 454.128, 374.042 457.479 C 366.499 472.253, 375.430 501.189, 390.386 510.435 C 396.923 514.477, 405.486 514.765, 409.417 511.076 C 413.502 507.242, 411.888 503.384, 407.240 505.872 C 404.495 507.340, 400.586 506.204, 402.101 504.378 C 402.730 503.620, 403.885 503, 404.668 503 C 405.451 503, 407.219 501.872, 408.598 500.493 C 410.935 498.156, 411 497.837, 409.552 495.771 C 407.794 493.261, 407.503 489.425, 409 488.500 C 410.650 487.480, 410.120 482.701, 408.001 479.500 C 406.607 477.394, 406.188 475.568, 406.596 473.371 C 407.827 466.742, 402.223 460.899, 393.780 460.010 C 388.015 459.402, 387.484 458.116, 392.035 455.782 C 396.596 453.443, 397.541 451.474, 395.557 448.446 C 393.155 444.781, 387.564 445.098, 381.405 449.250 M 809.500 481.610 C 792.863 484.042, 778.238 490.052, 766.445 499.303 C 758.129 505.826, 756.284 508.072, 741.928 529.151 L 730.805 545.482 732.562 548.746 L 734.320 552.010 740.410 546.202 C 772.069 516.011, 809.054 511.350, 833.789 534.433 C 838.958 539.257, 845.307 548, 843.642 548 C 843.422 548, 839.700 544.474, 835.371 540.164 C 812.553 517.448, 783.589 517.359, 753.345 539.913 C 744.396 546.587, 735.992 555.288, 736.014 557.858 C 736.036 560.527, 737.172 564, 738.023 564 C 738.457 564, 740.370 561.832, 742.274 559.182 C 757.209 538.393, 793.308 539.242, 812.024 560.822 C 827.327 578.465, 829.542 601.196, 820.022 642.897 C 813.029 673.528, 813.658 688.328, 822.742 706.863 C 828.984 719.601, 838.534 727.159, 852.644 730.530 C 859.643 732.202, 878.340 732.424, 886.414 730.931 C 893.709 729.583, 894.533 730.265, 888.304 732.495 C 881.010 735.105, 859.412 735.733, 851 733.580 C 840.745 730.954, 834.346 727.532, 828.507 721.551 C 812.077 704.722, 808.148 677.733, 816.709 640.500 C 823.369 611.534, 824.140 599.679, 820.345 584.580 C 811.061 547.644, 768.341 534.620, 744.420 561.434 C 736.635 570.162, 736.833 579.812, 744.681 574.115 C 754.052 567.313, 768.693 570.303, 778.292 580.980 C 789.043 592.937, 789.425 606.299, 779.902 637.285 C 769.467 671.241, 769.416 692.967, 779.720 714.917 C 783.138 722.197, 794.613 733.649, 802 737.151 C 812.350 742.058, 812.814 741.890, 807.279 735.239 C 799.119 725.435, 795.403 715.498, 794.475 701 L 793.994 693.500 796.405 703.500 C 799.319 715.591, 801.341 720.915, 805.516 727.500 C 822.618 754.472, 868.905 757.606, 901.005 733.965 C 914.318 724.160, 927 703.672, 927 691.968 L 927 688.898 923.545 691.533 C 909.159 702.506, 885.820 694.205, 880.253 676.136 C 875.995 662.312, 878.407 649.178, 889.142 627.738 C 905.521 595.029, 908.189 574.804, 899.859 546.500 C 893.931 526.358, 877.158 503.933, 860.699 494.145 C 845.852 485.316, 822.783 479.668, 809.500 481.610 M 425.500 489.524 C 417.538 494.827, 416.454 495.751, 417.244 496.559 C 419.546 498.917, 432 491.355, 432 487.599 C 432 485.446, 431.322 485.646, 425.500 489.524 M 429.030 496.974 C 426.571 498.605, 423.308 500.458, 421.780 501.091 C 418.431 502.478, 418.358 503.595, 421.171 510.315 C 424.587 518.476, 424.703 518.529, 429.466 514.139 C 431.779 512.006, 434.871 509.475, 436.336 508.515 C 439.553 506.407, 439.594 505.695, 436.867 499.133 C 434.360 493.102, 434.718 493.201, 429.030 496.974 M 449.718 510.092 C 440.306 512.308, 431.326 520.141, 426.355 530.472 C 420.114 543.441, 421.877 546.772, 435.500 547.753 C 448.284 548.674, 448.013 550.434, 435 551 C 421.333 551.594, 421.109 551.874, 425.880 562.396 C 432.613 577.245, 443.357 580.896, 471.204 577.800 C 482.967 576.492, 482.951 576.504, 480.545 570.270 C 475.405 556.953, 468.021 525.706, 467.985 517.119 C 467.964 512.259, 466.997 511.019, 462.396 509.952 C 457.732 508.869, 454.768 508.902, 449.718 510.092 M 869 557.411 C 869 557.638, 870.565 561.478, 872.477 565.945 C 879.892 583.270, 879.525 591.700, 869.971 623.500 C 858.118 662.956, 858.572 676.910, 872.161 690.832 C 876.321 695.093, 885.656 700.677, 886.766 699.567 C 887.078 699.255, 886.834 699, 886.224 699 C 884.305 699, 873.250 688.105, 870.706 683.707 C 862.366 669.286, 863.076 657.210, 874.372 621.355 C 880.813 600.909, 882.232 589.149, 879.514 578.716 C 877.631 571.486, 869 553.997, 869 557.411 M 440 586.115 C 440 586.826, 441.343 592.154, 442.984 597.954 C 444.625 603.754, 447.310 614.839, 448.950 622.587 C 453.047 641.935, 458.766 664.166, 459.952 665.352 C 460.970 666.370, 470.842 664.643, 474.250 662.850 C 477.404 661.191, 476.197 653.842, 468.524 628 C 464.394 614.091, 459.006 592.801, 458.985 590.308 C 458.956 586.933, 457.512 586.260, 448.750 585.540 C 441.887 584.976, 440 585.100, 440 586.115 M 540.166 661.750 C 541.149 679.012, 543.413 691.879, 548.040 706.500 C 552.772 721.452, 552.776 722.016, 548.369 749 C 546.361 761.291, 544.928 766.722, 541.444 775.235 C 537.017 786.053, 536.765 788.279, 539.827 789.528 C 554.503 795.515, 570.495 798.452, 584.500 797.731 C 596.738 797.100, 599.687 795.909, 600.950 791.087 C 605.241 774.707, 611.634 729.016, 613.108 704.193 C 614.523 680.368, 615.063 681.745, 603.666 680.111 C 581.432 676.922, 561.418 668.180, 545.829 654.850 C 542.710 652.182, 540.009 650, 539.827 650 C 539.646 650, 539.798 655.288, 540.166 661.750 M 619.594 699.848 C 618.626 701.415, 618.800 731.200, 619.784 732.184 C 621.328 733.728, 648 734.578, 648 733.082 C 648 732.413, 644.358 728.408, 639.907 724.183 C 635.456 719.957, 629.180 712.568, 625.959 707.762 C 622.738 702.956, 619.874 699.395, 619.594 699.848 M 155.500 742.682 C 128.387 746.135, 85.042 754.746, 77.520 758.173 C 70.926 761.177, 78.602 763.443, 87.007 760.973 C 96.604 758.153, 135.278 750.636, 148.579 749.005 C 161.426 747.430, 165 746.332, 165 743.961 C 165 741.933, 163.241 741.696, 155.500 742.682 M 867 774.441 C 867 776.529, 867.957 776.914, 879.724 779.573 C 891.945 782.335, 916.596 790.488, 935.500 798.021 C 957.624 806.838, 959.093 807.227, 955.952 803.443 C 948.370 794.307, 867 767.777, 867 774.441 M 529.252 802.713 C 518.060 826.616, 518.858 831.912, 534.199 835.546 C 551.844 839.727, 585.206 837.187, 591.214 831.206 C 592.552 829.874, 599 805.561, 599 801.846 C 599 801.469, 597.313 801.630, 595.250 802.203 C 590.127 803.626, 564.330 802.605, 555.275 800.621 C 549.082 799.264, 540.620 796.731, 534.933 794.532 C 533.735 794.069, 532.399 795.992, 529.252 802.713 M 171.407 797.513 C 170.307 801.897, 175.149 805.257, 176.488 801.038 C 177.253 798.628, 175.448 795, 173.484 795 C 172.689 795, 171.754 796.131, 171.407 797.513 M 223.066 797.001 C 183.010 799.164, 184.040 799.057, 182.900 801.187 C 182.316 802.279, 182.052 803.385, 182.313 803.646 C 182.574 803.908, 196.898 803.584, 214.144 802.927 C 242.455 801.848, 302.550 802.115, 309 803.348 C 310.375 803.610, 316.450 804.106, 322.500 804.449 C 379.785 807.697, 439.762 819.345, 448.412 828.903 C 450.736 831.470, 449.349 832.300, 437.500 835.432 C 418.061 840.571, 411.415 846.232, 415.163 854.459 C 417.816 860.282, 429.537 863.504, 459 866.511 C 499.348 870.629, 526.740 881.145, 533.750 895.206 C 536.583 900.889, 536.563 903.249, 533.626 909.556 C 525.276 927.489, 476.128 945.713, 416.500 952.987 C 407.150 954.128, 396.025 955.483, 391.778 955.999 C 361.813 959.639, 262.763 958.721, 233.500 954.533 C 231.850 954.297, 224.875 953.385, 218 952.508 C 176.286 947.182, 129.996 936.055, 111.721 926.960 C 92.102 917.196, 89.161 910.110, 97.677 893.125 C 103.238 882.034, 103.746 882.963, 89.069 877.365 C 53.767 863.898, 44.752 851.280, 59.165 835.510 C 73.326 820.015, 98.838 811.316, 140 807.946 C 153.891 806.808, 158.500 805.573, 158.500 802.987 C 158.500 801.763, 156.994 801.555, 150 801.810 C 104.621 803.464, 69.117 814.962, 52.188 833.485 C 36.514 850.635, 47.447 867.877, 82.443 881.201 C 87.912 883.283, 92.783 885.383, 93.268 885.868 C 93.778 886.378, 92.693 889.653, 90.698 893.625 C 84.297 906.370, 84.771 912.468, 92.761 920.158 C 102.494 929.526, 111.174 934.005, 134.137 941.510 C 182.907 957.449, 243.737 965.125, 321 965.090 C 359.308 965.072, 362.361 964.954, 391 962.388 C 462.700 955.964, 525.414 935.482, 539.741 913.812 C 543.139 908.671, 543.580 898.686, 540.651 893.190 C 530.992 875.065, 508.816 866.310, 456.500 859.967 C 432.537 857.061, 423.958 854.661, 422.325 850.404 C 421.309 847.758, 424.969 845.243, 433.818 842.510 C 438.593 841.035, 444.612 839.164, 447.193 838.352 C 453.808 836.273, 457 833.515, 457 829.880 C 457 816.280, 405.349 803.056, 332 797.877 C 312.736 796.517, 242.492 795.952, 223.066 797.001 M 172.168 814.244 C 160.077 833.899, 154.355 854.503, 158.958 861.810 C 162.878 868.031, 176.606 870.109, 183.583 865.537 C 191.874 860.105, 190.071 841.744, 178.985 818.723 C 174.975 810.396, 174.662 810.190, 172.168 814.244 M 643.702 815.648 C 641.206 820.542, 636.957 834.207, 635.820 841 C 634.346 849.807, 635.819 855.316, 640.287 857.704 C 645.134 860.296, 670.270 860.754, 684.569 858.512 C 705.956 855.159, 711 852.477, 711 844.461 C 711 842.210, 711.434 837.922, 711.966 834.934 C 712.497 831.945, 713.191 827.077, 713.509 824.115 L 714.086 818.731 708.793 819.615 C 696.093 821.738, 674.382 820.555, 661.500 817.040 C 644.102 812.291, 645.364 812.390, 643.702 815.648 M 259.750 824.540 C 257.767 826.638, 260.278 827, 276.839 827 C 318.919 827, 366.540 834.762, 376.307 843.212 L 379.500 845.975 376.874 848.237 C 375.429 849.482, 371.999 851.706, 369.250 853.179 C 365.759 855.051, 364.050 856.666, 363.581 858.535 C 361.731 865.903, 370.804 870.466, 404 878.863 C 422.945 883.656, 429.381 886.036, 434.250 890.053 C 439.937 894.743, 439.257 899.286, 432.332 902.863 C 425.486 906.399, 397.061 909.971, 375.500 910.006 C 363.519 910.025, 356.576 910.934, 359.543 912.094 C 365.040 914.244, 410.287 912.312, 423.328 909.371 C 439.693 905.680, 445.594 898.673, 439.728 889.898 C 435.982 884.294, 425.276 879.735, 401.456 873.598 C 362.836 863.649, 360.872 861.968, 377 852.665 C 383.744 848.776, 384.741 845.426, 380.479 840.978 C 374.476 834.713, 360.966 830.972, 330 827.002 C 312.724 824.788, 261.222 822.982, 259.750 824.540 M 801.957 827.834 C 798.413 830.703, 798.327 847.076, 801.724 871.979 L 802.335 876.458 795.917 870.713 C 782.192 858.427, 768 856.109, 768 866.153 C 768 868.219, 778.192 885.733, 784.709 894.864 C 786.343 897.155, 786.211 897.135, 780.423 894.213 C 760.446 884.129, 746.091 889.162, 755.962 902.789 C 762.580 911.924, 784 924.070, 784 918.687 C 784 916.858, 779.689 913.124, 771.698 908.032 C 764.166 903.232, 758.441 897.159, 759.990 895.610 C 762.325 893.275, 780.077 899.831, 791.418 907.218 C 797.066 910.896, 798.920 911.018, 798.985 907.717 C 799.036 905.097, 785.572 883.597, 776.464 871.754 C 773.393 867.760, 773.073 866.909, 774.445 866.383 C 779.946 864.272, 791.969 874.247, 803.124 890.178 C 806.329 894.755, 809.688 899.552, 810.588 900.837 C 813.784 905.400, 814.193 901.625, 811.611 891.396 C 808.561 879.312, 806.496 866.537, 804.906 849.912 C 803.241 832.506, 804.330 829.026, 809.652 834.750 C 817.264 842.937, 822.881 862.054, 824.963 886.861 C 825.580 894.210, 826.661 901.633, 827.365 903.358 L 828.644 906.494 830.500 899.497 C 832.929 890.343, 839.143 875.043, 843.241 868.128 C 848.576 859.127, 860.481 848.148, 862.604 850.271 C 862.853 850.520, 861.499 855.174, 859.594 860.612 C 853.803 877.148, 844.756 910.704, 845.673 912.250 C 846.869 914.267, 849.393 912.363, 854.289 905.750 C 863.012 893.967, 876.882 882.794, 881.058 884.186 C 882.528 884.676, 875.269 896.312, 868.155 904.868 C 860.660 913.882, 859.879 915.186, 860.945 916.911 C 865.165 923.738, 890.780 887.686, 887.599 879.397 C 886.072 875.417, 870.586 880.094, 862.056 887.111 C 860.161 888.670, 858.445 889.779, 858.242 889.576 C 858.039 889.373, 860.377 880.784, 863.437 870.491 C 869.816 849.030, 869.947 847.890, 866.365 845.073 C 862.897 842.345, 861.476 842.459, 855.386 845.952 C 848.060 850.154, 839.842 859.728, 834.673 870.081 L 830.265 878.913 829.598 873.238 C 826.212 844.429, 811.437 820.158, 801.957 827.834 M 222.500 889.168 C 198.324 890.073, 196.446 890.295, 197.571 892.116 C 198.269 893.245, 235.595 892.655, 244.250 891.378 C 247.626 890.879, 250.054 887.748, 246.750 888.153 C 246.063 888.238, 235.150 888.694, 222.500 889.168 M 137.223 890.557 C 134.830 892.232, 134.322 895.865, 136.033 899.062 C 138.317 903.329, 152.434 908.010, 170.578 910.517 C 185.776 912.618, 222.447 913.703, 223.449 912.083 C 224.848 909.819, 222.878 909.512, 202.672 908.849 C 180.177 908.111, 168.580 906.890, 156 903.935 C 142.339 900.727, 135.911 895.809, 140.452 892.040 C 143.936 889.148, 141.096 887.844, 137.223 890.557 M 646.113 926.583 C 641.897 931.943, 637.124 948.788, 640.101 947.803 C 640.870 947.548, 642.031 946.251, 642.679 944.920 C 645.237 939.670, 652 924.785, 652 924.404 C 652 922.903, 647.779 924.465, 646.113 926.583 M 622.313 929.662 C 622.639 930.673, 623.812 933.975, 624.920 937 C 626.028 940.025, 626.949 943.737, 626.967 945.250 C 626.992 947.322, 627.493 948, 629 948 C 634.233 948, 629.532 928.929, 624.110 928.162 C 622.177 927.889, 621.834 928.176, 622.313 929.662 M 243 930.279 C 243 932.037, 252.508 933.478, 277.500 935.509 C 307.544 937.950, 368.765 936.392, 396.810 932.473 C 408.984 930.771, 414.243 928.552, 404 929.439 C 350.456 934.072, 276.352 934.060, 246.750 929.413 C 243.866 928.960, 243 929.160, 243 930.279 M 665 932.728 C 660.463 934.453, 654.016 942.382, 654.005 946.250 C 653.997 948.928, 655.217 948.385, 659.627 943.750 C 668.307 934.628, 670.196 930.752, 665 932.728 M 601.976 936.955 C 603.802 940.367, 614.169 951.014, 615.103 950.436 C 617.760 948.794, 613.921 941.869, 607.888 937.418 C 603.733 934.352, 600.445 934.095, 601.976 936.955" stroke="none" fill="#1a1a1a" fill-rule="evenodd"/>
</svg>