<svg xmlns="http://www.w3.org/2000/svg" width="1024" height="1024" viewBox="0 0 1024 1024" version="1.1">
	<path d="M 509 71.457 C 484.687 75.469, 467.104 84.326, 448.874 101.742 L 441.177 109.097 433.219 99.298 C 411.162 72.138, 397.037 66.923, 386.169 81.925 C 379.295 91.414, 376.231 115.330, 379.279 135.708 L 380.058 140.916 377.126 139.894 C 373.324 138.569, 371.382 136.330, 370.277 132 C 369.491 128.917, 368.962 128.464, 365.838 128.198 C 362.460 127.911, 362.194 128.125, 360.255 132.698 C 357.349 139.553, 355.996 146.941, 356.024 155.799 C 356.106 181.410, 370.560 197.815, 400.772 206.585 C 401.669 206.845, 401.168 208.505, 399.069 212.227 C 390.001 228.305, 387.070 242.033, 386.093 273 C 385.203 301.210, 384.902 302.458, 375.357 317.503 C 367.460 329.951, 363.206 339.358, 361.342 348.496 C 355.007 379.563, 379.866 412.514, 418 423.595 C 432.200 427.721, 457.087 426.018, 473 419.830 C 487.554 414.171, 507.439 398.959, 510.175 391.391 C 511.385 388.046, 511.599 387.925, 515.219 388.537 C 519.871 389.323, 520.030 388.243, 515.950 383.596 C 511.778 378.844, 507.327 377.482, 500.961 379.009 C 498.232 379.664, 496 380.680, 496 381.266 C 496 381.853, 496.279 382.055, 496.619 381.714 C 496.960 381.374, 497.892 381.749, 498.690 382.548 C 499.489 383.346, 500.974 384, 501.990 384 C 508.009 384, 508.187 385.757, 502.764 391.640 C 483.096 412.977, 444.642 423.511, 417.500 414.996 C 393.010 407.314, 373.233 387.869, 368.949 367.263 C 366.389 354.944, 369.603 339.449, 375.802 334.228 C 386.149 325.514, 400.136 321.732, 422.500 321.600 C 443.845 321.474, 460.427 325.118, 477.250 333.630 C 483.647 336.867, 483.298 335.206, 476.750 331.255 C 449.893 315.049, 404.247 312.569, 381.193 326.064 C 379.374 327.129, 377.717 328, 377.511 328 C 377.304 328, 379.495 324.242, 382.378 319.650 C 390.968 305.967, 392.182 301.067, 393.068 276.500 C 394.273 243.064, 398.047 227.485, 408.746 211.783 L 410.597 209.065 429.049 208.624 C 456.127 207.977, 470.776 204.032, 485.598 193.398 C 489.669 190.477, 493.001 188.405, 493.003 188.794 C 493.005 189.182, 492.032 192.786, 490.842 196.803 C 487.791 207.096, 488.302 207.516, 503.787 207.450 C 520.047 207.380, 525.031 205.132, 549.806 186.693 C 559.918 179.167, 566.811 174.866, 580.217 167.717 L 586.935 164.135 587.534 167.817 C 587.864 169.843, 588.220 172.175, 588.325 173 C 588.431 173.825, 589.682 174.636, 591.107 174.802 L 593.696 175.104 594.281 161.802 C 596.181 118.607, 615.583 77.898, 634.210 78.022 C 647.350 78.110, 666.356 101.420, 673.838 126.625 C 685.878 167.179, 681.521 195.682, 659.587 219.865 C 655.414 224.466, 652 228.618, 652 229.091 C 652 230.223, 656.542 228.462, 660.035 225.975 C 661.561 224.889, 663.034 224, 663.310 224 C 664.144 224, 670.007 240.938, 672.310 250 C 675.570 262.831, 675.486 301.684, 672.164 317 C 664.890 350.541, 652.183 373.520, 629.768 393.670 C 606.651 414.451, 577.435 424.068, 523.914 428.515 C 511.202 429.571, 501.393 430.952, 495.500 432.516 C 476.524 437.551, 466.314 437.860, 449.171 433.916 C 444.590 432.862, 439.978 432, 438.921 432 C 437.864 432, 437 431.460, 437 430.800 C 437 429.891, 436.719 429.881, 435.842 430.758 C 433.203 433.397, 440.514 437.881, 452.831 441.174 C 462.753 443.827, 479.778 443.850, 492.250 441.228 C 502.867 438.996, 502.430 437.499, 497.327 458.623 L 493.654 473.827 489.077 470.317 C 486.560 468.387, 479.550 464.404, 473.500 461.466 C 432.765 441.684, 378.594 434.024, 343.288 443.054 C 309.873 451.600, 280.671 492.849, 258.372 563 C 254.788 574.275, 251.550 583.769, 251.178 584.098 C 250.805 584.427, 247.125 585.263, 243 585.957 C 238.875 586.651, 228.975 589.708, 221 592.750 C 186.900 605.757, 165.444 619.615, 141.394 644.164 C 111.047 675.140, 100.384 701.248, 94.902 758 L 93.694 770.500 89.097 775.567 C 82.750 782.562, 80.490 789.144, 80.537 800.500 C 80.618 819.995, 92.686 832.109, 126.385 846.522 L 136.308 850.766 138.018 856.294 C 144.049 875.786, 163.793 895.698, 184.965 903.642 C 198.932 908.882, 208.224 910.329, 223.910 909.706 C 244.299 908.897, 259.458 903.562, 271.155 893.078 L 276.809 888.010 290.655 889.624 C 302.851 891.045, 324.844 891.173, 329.820 889.851 C 330.688 889.620, 332.274 892.640, 334.450 898.668 C 343.924 924.913, 360.480 940.355, 390.500 950.947 C 415.528 959.777, 449.969 957.600, 470.548 945.886 C 497.487 930.553, 519.952 902.235, 526.908 874.842 L 528.749 867.595 545.624 867.410 C 571.642 867.126, 658.786 857.386, 683.291 852.024 C 687.789 851.040, 688.144 851.449, 692.986 863.220 C 710.138 904.914, 764.474 925.311, 808.319 906.513 C 829.640 897.372, 848.153 879.788, 859.394 858 C 865.635 845.905, 870.801 831.402, 871.581 823.789 L 872.250 817.252 880.375 817.368 C 892.097 817.536, 899.561 812.937, 904.913 802.250 C 906.963 798.156, 907.214 797.999, 911.770 797.978 C 927.196 797.906, 937.778 781.700, 934.069 763.830 C 931.629 752.078, 924.731 745.694, 914.332 745.564 L 909.164 745.500 908.064 739.915 C 907.054 734.786, 907.172 733.860, 909.508 728.578 C 923.210 697.596, 907.886 657.954, 883.788 662.043 C 880.098 662.669, 880.048 662.631, 875.345 655.586 C 872.743 651.689, 868.447 644.257, 865.798 639.072 C 847.877 603.990, 812.725 567.571, 781.572 551.810 C 764.951 543.401, 744.181 536.908, 694.414 524.567 L 671.328 518.841 666.302 507.671 C 663.538 501.527, 661.410 496.342, 661.573 496.149 C 661.735 495.956, 663.361 496.917, 665.184 498.285 C 682.776 511.478, 709.868 511.076, 725.864 497.384 C 730.491 493.424, 730.165 492.045, 724.595 492.015 C 720.886 491.996, 714.933 485.947, 713.261 480.499 C 712.603 478.356, 712.163 476.523, 712.282 476.428 C 712.402 476.332, 715.650 476.660, 719.500 477.157 C 746.967 480.703, 776.519 461.680, 781.497 437.250 C 782.280 433.408, 779.921 432.882, 773.654 435.500 C 762.687 440.083, 752.129 433.371, 746.911 418.500 C 744.810 412.514, 743.986 406.551, 742.014 383.082 C 741.060 371.731, 738.464 361.270, 733.516 348.840 C 732.927 347.361, 733.327 347.289, 737.178 348.177 C 753.704 351.991, 774.011 341.277, 779.853 325.664 C 783.032 317.165, 782.816 316, 778.059 316 C 775.891 316, 773.877 316.389, 773.583 316.865 C 772.702 318.292, 766.314 318.925, 762.746 317.940 C 751.070 314.716, 745.315 298.611, 744.007 265.500 C 743.061 241.539, 741.566 231.642, 736.862 218.186 C 728.423 194.048, 710.543 174.132, 691.904 168.109 L 688.308 166.947 687.145 153.067 C 684.588 122.539, 675.989 101.911, 658.543 84.450 C 638.174 64.064, 621.335 66.742, 606.124 92.787 L 601.881 100.053 596.514 95.270 C 574.779 75.898, 539.786 66.376, 509 71.457 M 507.622 79.496 C 491.301 82.877, 472.346 90.784, 462.289 98.405 C 458.872 100.994, 450.322 109.271, 443.289 116.800 C 422.303 139.262, 414.696 145.021, 401.458 148.469 C 390.469 151.331, 377.761 149.722, 369.976 144.484 L 365.093 141.198 364.410 145.752 C 364.034 148.256, 364.005 153.949, 364.344 158.403 C 366.408 185.480, 389.351 200.156, 430 200.401 C 459.987 200.581, 478.706 193.372, 494.703 175.484 C 497.891 171.918, 500.950 169, 501.500 168.998 C 502.050 168.997, 503.736 166.634, 505.246 163.748 C 515.643 143.877, 532.551 131.088, 554.500 126.494 C 562.749 124.767, 582.072 124.121, 587.609 125.386 C 590.379 126.019, 590.835 125.792, 591.801 123.298 C 592.397 121.759, 594.081 117.427, 595.543 113.671 L 598.200 106.842 595.850 104.335 C 588.503 96.496, 569.182 86.032, 553.500 81.400 C 542.295 78.090, 519.063 77.126, 507.622 79.496 M 394.375 83.772 C 391.418 86.176, 389.291 89.781, 387.417 95.560 C 385.173 102.482, 384.456 126.319, 386.215 135.500 L 387.557 142.500 395.119 142.388 C 405.710 142.232, 413.717 137.935, 427.060 125.248 L 436.977 115.818 428.751 106.659 C 407.577 83.082, 400.785 78.561, 394.375 83.772 M 518.720 105.567 C 501.573 109.721, 489.880 117.769, 466.500 141.507 C 440.977 167.421, 435.226 170.934, 416.965 171.762 C 400.632 172.502, 385.575 167.539, 374.456 157.752 C 367.795 151.889, 368.121 156.556, 374.824 163.017 C 384.649 172.488, 406.288 178.531, 422.113 176.225 C 437.908 173.923, 447.792 167.507, 466.574 147.364 C 491.365 120.776, 500.535 114.206, 523 106.937 C 532.523 103.856, 529.619 102.926, 518.720 105.567 M 638.948 113.179 C 640.567 117.054, 642.997 130.999, 643.935 141.796 C 645.025 154.347, 643.860 168.894, 640.485 184.881 C 637.336 199.796, 636.927 210.406, 639.605 207.728 C 640.911 206.422, 646.856 184.987, 648.384 176.074 C 652.478 152.196, 647.410 112.251, 640.152 111.179 C 638.234 110.896, 638.093 111.132, 638.948 113.179 M 557.075 130.051 C 527.274 136.141, 509.267 154.661, 500.872 187.857 C 497.302 201.974, 497.197 201, 502.290 201 C 513.723 201, 523.751 196.352, 544.335 181.511 C 560.443 169.898, 572.344 162.357, 581.066 158.238 L 586.633 155.609 588.332 143.153 C 589.266 136.303, 589.763 130.428, 589.435 130.099 C 588.455 129.114, 561.853 129.075, 557.075 130.051 M 686.585 182.750 C 686.215 185.912, 685.060 190.975, 684.018 194 C 682.976 197.025, 682.517 199.640, 682.997 199.812 C 686.199 200.955, 692.576 206.873, 695.354 211.278 C 702.967 223.352, 706.858 240.080, 708.995 269.919 C 710.255 287.523, 712.179 297.943, 715.074 302.850 C 717.508 306.976, 717.138 307.709, 714.067 304.848 C 709.568 300.656, 707.804 292.774, 705.996 268.770 C 703.442 234.878, 696.319 214.132, 684.427 205.950 C 680.008 202.910, 678.091 202.966, 678.015 206.140 C 678.007 206.492, 676.017 209.474, 673.593 212.767 L 669.186 218.753 672.710 228.127 C 677.344 240.451, 680.758 254.107, 682.146 265.873 C 683.578 278.014, 682.659 310.074, 680.616 319.223 C 677.024 335.315, 681.805 353.168, 696.222 377.500 C 705.257 392.750, 706.261 394.893, 710.950 408.972 C 715.927 423.913, 719.018 429.842, 725.082 436.077 C 733.003 444.222, 743.342 448, 757.710 448 C 762.463 448, 766 448.419, 766 448.981 C 766 452.509, 742.959 451.526, 734.395 447.633 C 722.489 442.220, 713.615 430.387, 707.394 411.629 C 703.032 398.475, 700.494 393.025, 691.594 377.698 C 684.036 364.683, 678.767 352.335, 676.886 343.229 C 676.179 339.803, 675.333 337, 675.006 337 C 674.679 337, 673.161 340.843, 671.631 345.539 C 668.351 355.611, 662.951 367.352, 659.766 371.334 C 654.116 378.399, 658.981 411.060, 668.505 430 C 690.074 472.895, 742.847 483.382, 767.642 449.700 C 773.088 442.302, 773.078 442.190, 766.982 442.776 C 760.670 443.382, 754.129 441.015, 748.791 436.192 C 740.482 428.685, 737.336 419.687, 735.962 399.500 C 734.482 377.767, 731.128 362.306, 725.415 350.890 C 722.781 345.626, 714.432 336.104, 710.700 334.107 C 709.318 333.367, 707.993 331.743, 707.755 330.498 C 707.352 328.392, 708.101 328.612, 718.411 333.631 C 740.365 344.319, 761.716 342.419, 770.807 328.969 L 773.151 325.500 766.826 324.971 C 755.772 324.048, 747.648 317.778, 741.982 305.798 C 738.443 298.315, 737.277 290.775, 736.542 270.633 C 735 228.336, 727.219 206.290, 707.434 188.160 C 700.956 182.224, 692.295 177, 688.933 177 C 687.639 177, 687.105 178.307, 686.585 182.750 M 548.445 210.004 C 546.765 210.528, 544.376 212.035, 543.138 213.353 L 540.886 215.750 551.193 215.625 C 564.131 215.468, 570.170 217.972, 577.477 226.524 C 583.995 234.154, 588.092 233.632, 585.024 225.563 C 583.536 221.649, 576.083 214.726, 570.567 212.135 C 565.045 209.541, 553.499 208.429, 548.445 210.004 M 424.267 223.033 C 415.392 224.830, 409.126 229.559, 410.584 233.359 C 411.428 235.559, 412.346 235.438, 416.972 232.517 C 419.135 231.152, 423.654 229.270, 427.014 228.336 C 432.576 226.790, 437.342 223.024, 433.785 222.986 C 433.078 222.979, 431.600 222.793, 430.500 222.574 C 429.400 222.355, 426.595 222.562, 424.267 223.033 M 553.949 263.313 C 531.284 269.672, 521.438 303.623, 537.090 321.450 C 549.890 336.028, 569.567 323.606, 567.632 302.169 C 565.625 279.940, 543.156 275.652, 535.896 296.113 L 533.985 301.500 534.586 296.537 C 537.009 276.517, 554.344 263.521, 568.790 270.894 C 580.971 277.110, 585.262 297.682, 577.552 312.897 C 574.641 318.642, 575.639 319.672, 579.346 314.750 C 584.865 307.423, 586.738 292.216, 583.474 281.226 C 579.429 267.603, 566.536 259.781, 553.949 263.313 M 409.984 270.854 C 405.152 273.426, 402.020 279.231, 402.084 285.500 C 402.137 290.680, 403.120 289.909, 404.480 283.622 C 406.782 272.980, 419.663 272.540, 424.960 282.921 C 427.924 288.731, 427.469 289.639, 423.632 285.571 C 414.081 275.444, 402.912 290.168, 409.868 303.717 C 416.888 317.393, 431.294 310.173, 431.294 292.978 C 431.294 282.594, 426.414 273.410, 419.282 270.371 C 415.096 268.587, 414.152 268.637, 409.984 270.854 M 387 346.140 C 387 347.317, 386.350 348.779, 385.555 349.390 C 381.469 352.528, 384.370 362.030, 388.621 359.433 C 392.129 357.289, 392.478 355.449, 390.484 349.585 C 388.538 343.859, 387 342.339, 387 346.140 M 463.793 347.726 C 461.139 350.745, 456 360.558, 456 362.608 C 456 365.665, 458.870 369, 461.500 369 C 466.147 369, 468.476 362.553, 465.410 358.175 C 463.955 356.098, 463.959 355.559, 465.462 351.804 C 467.275 347.272, 466.296 344.880, 463.793 347.726 M 645.685 388.635 L 638.871 395.770 637.759 405.997 C 634.559 435.443, 643.825 468.599, 659.774 484.771 C 673.265 498.450, 693.455 504.201, 710 499.077 C 716.140 497.175, 716.765 496.390, 713.920 494.152 C 709.573 490.733, 703.051 476.598, 703.007 470.500 C 702.997 469.044, 701.159 467.565, 696.246 465.059 C 687.536 460.617, 673.922 447.212, 668.108 437.351 C 660.784 424.931, 655.958 408.727, 653.262 387.500 L 652.500 381.500 645.685 388.635 M 618 412.505 C 591.790 427.314, 574.381 431.710, 532.643 434.057 C 510.457 435.305, 506.316 435.944, 506.811 438.047 C 507.429 440.667, 504.732 457.740, 501.955 468.788 L 499.118 480.075 502.033 484.394 C 507.779 492.908, 511.439 504.114, 512.618 516.804 L 513.289 524.021 524.300 527.507 C 554.821 537.172, 565.888 536.077, 576.283 522.365 C 586.043 509.492, 597.124 496, 597.938 496 C 600.601 496, 591.107 515.841, 583.901 525.335 C 572.206 540.743, 562.007 543.354, 537.146 537.304 C 535.126 536.812, 535.524 537.638, 539.947 543.115 C 554.922 561.657, 557.268 586.015, 545.557 601.357 L 542.167 605.799 544.833 606.383 C 558.292 609.331, 583.901 607.679, 597.553 602.982 C 619.426 595.456, 640.244 573.626, 642.630 555.714 C 643.076 552.360, 643.872 550.603, 645.289 549.846 C 647.250 548.796, 647.293 548.971, 646.728 555.700 C 644.290 584.789, 617.094 610.264, 583.489 614.938 C 562.984 617.790, 530.727 613.525, 520.936 606.668 C 518.987 605.303, 518.424 605.307, 515.490 606.706 C 512.223 608.264, 512.217 608.281, 511.507 617.744 C 511.116 622.957, 510.435 628.483, 509.993 630.025 L 509.189 632.828 518.698 633.540 C 523.927 633.932, 542.222 634.010, 559.353 633.713 C 591.553 633.155, 602.958 632.212, 652.500 626.012 C 665.700 624.360, 679.108 623.006, 682.295 623.004 L 688.091 623 687.562 619.750 C 687.272 617.962, 686.090 610.650, 684.937 603.500 C 677.374 556.601, 669.588 531.943, 647.545 485.092 C 633.417 455.061, 629.907 442.148, 629.649 419.252 C 629.567 411.966, 629.500 406.005, 629.500 406.006 C 629.500 406.007, 624.325 408.932, 618 412.505 M 358.693 447.081 C 344.576 448.995, 329.131 456.544, 317.402 467.263 C 306.478 477.248, 290.317 502.466, 280.417 524.978 C 274.174 539.172, 260.282 581.605, 261.482 582.813 C 261.653 582.985, 265.534 582.760, 270.107 582.313 L 278.422 581.500 280.680 575.500 C 281.921 572.200, 285.245 563.273, 288.065 555.662 C 300.479 522.160, 317.902 489.386, 330.222 476.359 C 336.840 469.361, 339.813 467.604, 349.503 464.962 C 377.019 457.462, 453.125 474.415, 475.500 493.028 C 483.593 499.760, 484.986 502.834, 485.009 514 C 485.036 527.728, 485.227 528.184, 490.222 526.422 C 492.438 525.640, 496.397 525, 499.019 525 C 504.825 525, 505.244 524.209, 503.891 515.794 C 501.298 499.672, 493.514 484.614, 483.804 476.940 C 460.364 458.411, 393.253 442.395, 358.693 447.081 M 353 472.020 C 345.162 473.083, 342.787 474.260, 337.516 479.690 C 324.857 492.734, 305.912 529.144, 288.174 574.517 L 286.212 579.535 316.981 579.517 L 347.749 579.500 347.652 570.500 C 347.468 553.547, 352.898 539.898, 364.400 528.405 C 372.995 519.816, 378.247 517.558, 393.165 516.039 C 398.849 515.460, 406.124 514.474, 409.331 513.847 C 417.349 512.281, 433.434 513.377, 444.766 516.262 L 454.032 518.621 456.556 514.315 C 457.944 511.946, 461.294 507.347, 464.001 504.094 L 468.923 498.180 466.477 496.577 C 445.182 482.624, 379.547 468.420, 353 472.020 M 470 506.275 C 467.525 508.979, 464.085 513.273, 462.355 515.818 L 459.210 520.446 465.355 523.845 C 468.735 525.715, 473.082 528.494, 475.016 530.021 C 478.390 532.685, 478.618 532.728, 480.656 531.078 C 482.279 529.763, 482.549 528.945, 481.799 527.606 C 481.260 526.643, 479.790 520.677, 478.532 514.350 C 477.274 508.022, 475.852 502.511, 475.373 502.103 C 474.893 501.694, 472.475 503.572, 470 506.275 M 401.454 522.576 C 394.034 526.521, 391.868 531.189, 393.957 538.735 C 395.779 545.317, 396.515 545.837, 399.703 542.796 C 403.772 538.914, 407.067 538, 417 538 C 433.704 538, 451.522 544.073, 461.647 553.216 L 463.794 555.155 464.984 551.548 C 465.639 549.565, 467.710 545.660, 469.587 542.871 C 471.464 540.081, 473 537.609, 473 537.378 C 473 537.146, 470.291 535.206, 466.980 533.066 C 449.375 521.687, 413.828 515.996, 401.454 522.576 M 385.089 524.085 C 380.271 525.031, 371.167 530.129, 367.694 533.826 C 365.902 535.733, 365.513 537.296, 365.570 542.347 C 365.721 555.772, 376.031 568.712, 388.767 571.461 C 394.338 572.664, 399 567.064, 399 559.170 C 399 553.677, 398.799 553.111, 396.750 552.820 C 395.292 552.612, 394.463 551.774, 394.395 550.437 C 394.338 549.302, 393.550 547.242, 392.643 545.859 C 389.744 541.433, 388.643 532.495, 390.373 527.418 C 392.033 522.548, 392.244 522.681, 385.089 524.085 M 675.065 528.905 C 675.101 529.232, 676.563 533.550, 678.315 538.500 L 681.500 547.500 688.946 548.242 C 714.550 550.795, 729.128 561.703, 734.063 582 C 736.017 590.033, 735.627 601.371, 733.157 608.340 C 731.531 612.931, 731.394 614.063, 732.519 613.631 C 736.548 612.085, 756.983 608.809, 768.215 607.908 C 797.940 605.525, 824.435 612.256, 844.750 627.352 C 848.188 629.906, 851 631.776, 851 631.508 C 851 628.395, 831.778 602.815, 821.027 591.622 C 798.280 567.939, 775.384 555.570, 730 542.447 C 710.537 536.820, 674.972 528.052, 675.065 528.905 M 491.302 534.036 C 484.158 536.874, 476.691 543.845, 473.444 550.709 C 470.643 556.632, 469.058 569.109, 470.419 574.532 C 471.079 577.164, 471.227 577.032, 473.935 571.389 C 478.593 561.687, 485.632 556.208, 495.500 554.603 C 499.355 553.975, 499.279 554.061, 493.385 556.968 C 483.617 561.785, 476.312 571.095, 474.527 581 C 473.264 588.011, 482.942 598.292, 493.477 601.128 C 499.711 602.807, 506.708 601.718, 515.626 597.680 C 520.095 595.656, 524.033 594, 524.376 594 C 525.464 594, 525.049 597.551, 523.817 598.783 C 522.273 600.327, 522.450 600.455, 529.500 602.882 L 535.500 604.947 538.619 601.631 C 547.207 592.501, 548.575 574.060, 541.734 559.656 C 531.904 538.956, 508.651 527.143, 491.302 534.036 M 359.101 548.466 C 355.852 557.139, 354.866 563.387, 355.202 573.175 L 355.500 581.850 364.787 583.524 C 376.032 585.551, 377.332 585.277, 382.773 579.732 L 387.046 575.377 382.203 573.188 C 371.997 568.576, 364.750 559.334, 362.452 548 L 361.337 542.500 359.101 548.466 M 411.016 546.024 C 409.100 546.475, 406.532 548.005, 405.311 549.425 C 403.182 551.900, 403.154 552.180, 404.624 556.253 C 405.583 558.909, 405.962 562.241, 405.638 565.149 C 404.917 571.602, 407.725 574.547, 411.350 571.141 C 414.230 568.435, 419.028 567, 425.194 567 C 428.277 567, 430.182 566.497, 430.716 565.543 C 431.165 564.741, 434.141 561.388, 437.329 558.092 L 443.127 552.098 438.036 549.518 C 430.932 545.918, 418.373 544.294, 411.016 546.024 M 443.664 561.903 C 436.271 569.560, 435.696 571.274, 439.802 573.398 C 443.275 575.193, 450.535 582.960, 451.457 585.865 C 452.718 589.836, 459.631 592.009, 465.771 590.364 C 467.309 589.952, 467.742 589.392, 467.112 588.628 C 464.728 585.737, 461.999 574.666, 461.973 567.782 L 461.947 560.500 456.506 557.750 C 453.514 556.237, 450.900 555, 450.697 555 C 450.494 555, 447.329 558.106, 443.664 561.903 M 684 556.420 C 684 556.651, 685.095 561.938, 686.434 568.170 C 688.949 579.875, 692.421 602.427, 693.527 614.250 C 693.875 617.962, 694.236 620.993, 694.330 620.984 C 694.423 620.976, 700.575 619.722, 708 618.198 L 721.500 615.427 724.184 610.168 C 732.713 593.456, 725.452 569.443, 709.510 561.636 C 702.657 558.281, 684 554.466, 684 556.420 M 393.699 580.800 C 385.827 588.732, 385.626 589.571, 391.250 591.011 C 393.587 591.609, 396.037 592.278, 396.694 592.497 C 397.416 592.737, 398.532 590.682, 399.513 587.307 C 400.406 584.234, 401.785 580.731, 402.577 579.523 C 403.860 577.565, 403.819 577.146, 402.207 575.687 C 400.503 574.145, 400.007 574.443, 393.699 580.800 M 416.502 576.575 C 411.827 579.013, 409.902 581.104, 407.368 586.500 C 403.727 594.252, 403.781 594.330, 414.250 596.404 C 419.337 597.411, 428.666 599.945, 434.981 602.034 C 441.295 604.123, 446.864 605.584, 447.356 605.280 C 450.310 603.455, 445.186 587.702, 439.731 581.835 C 433.895 575.558, 423.128 573.121, 416.502 576.575 M 285.500 588.691 C 227.167 592.541, 184.224 610.921, 147.306 647.840 C 132.690 662.455, 117.252 685.208, 114.628 696 C 114.293 697.375, 115.180 696.025, 116.598 693 C 127.761 669.182, 149.895 665.286, 159.199 685.500 C 162.850 693.434, 162.551 716.257, 158.647 727.500 C 151.039 749.413, 139.091 759.903, 125.635 756.486 C 116.810 754.245, 111.346 746.820, 108.524 733.232 L 107.334 727.500 106.562 737 C 106.138 742.225, 104.940 752.350, 103.900 759.500 C 102.860 766.650, 102.007 773.316, 102.005 774.313 C 101.994 778.462, 150.301 796.368, 192.677 807.924 C 241.271 821.175, 300.698 828.417, 331.555 824.848 C 343.754 823.437, 346.363 824.005, 351.238 829.130 C 355.456 833.564, 355.338 833.677, 356.973 823.659 C 360.529 801.879, 373.435 775.715, 388.990 758.748 C 408.104 737.901, 426.675 729, 451.059 729 C 475.013 729, 487.445 733.316, 500.668 746.222 C 522.101 767.142, 533.899 793.281, 535.656 823.737 L 536.305 834.975 539.902 834.512 C 541.881 834.257, 548.225 833.558, 554 832.958 C 582.824 829.967, 667.300 818.151, 678.500 815.543 C 695.981 811.474, 700.274 801.727, 705.390 754.500 C 711.939 694.039, 709.396 644.284, 699.130 631.986 L 696.292 628.587 663.396 632.855 C 594.201 641.833, 559.516 643.562, 513.630 640.321 L 504.761 639.695 505.214 643.597 C 505.463 645.744, 507.272 652.675, 509.233 659 C 518.237 688.031, 523.751 725.524, 521.291 741 C 520.441 746.354, 520.369 746.088, 518.609 731 C 515.435 703.793, 511.218 682.247, 503.402 653.291 L 499.837 640.081 501.450 632.291 C 502.338 628.006, 503.340 621.237, 503.679 617.250 L 504.293 610 500.397 609.988 C 496.805 609.977, 488.938 608.226, 484.750 606.505 C 483.164 605.854, 482.992 606.618, 482.912 614.643 C 482.697 636.450, 481.804 637.217, 467.994 627.442 C 455.077 618.300, 444.581 612.851, 430.736 608.102 C 418.881 604.036, 392.187 597.689, 382 596.515 C 378.975 596.167, 370.425 594.797, 363 593.472 C 335.968 588.647, 310.223 587.059, 285.500 588.691 M 467.003 597.685 C 464.800 598.644, 461.749 599.038, 458.753 598.750 C 454.008 598.294, 454 598.299, 453.986 601.397 C 453.979 603.104, 453.722 605.433, 453.416 606.572 C 452.946 608.324, 454.587 609.758, 464.012 615.830 C 470.146 619.782, 475.513 622.801, 475.938 622.539 C 476.362 622.276, 477.025 617.488, 477.410 611.899 L 478.110 601.737 474.805 598.909 C 470.986 595.641, 471.510 595.723, 467.003 597.685 M 340.905 600.105 C 337.277 600.574, 328.727 602.552, 321.905 604.501 C 263.050 621.313, 225.797 651.637, 209.495 696 C 206.992 702.813, 205.344 716, 206.996 716 C 207.309 716, 209.277 710.712, 211.369 704.250 C 225.519 660.536, 256.529 631.443, 309.500 612.187 C 320.402 608.223, 345.641 601, 348.587 601 C 349.429 601, 349.840 600.550, 349.500 600 C 349.160 599.450, 348.571 599.057, 348.191 599.126 C 347.811 599.196, 344.532 599.636, 340.905 600.105 M 767 614.697 C 758.381 615.624, 724.231 622.156, 705.416 626.476 C 703.359 626.949, 703.368 627.029, 706.099 632.727 C 712.276 645.614, 713.447 655.576, 713.475 695.500 C 713.500 730.835, 712.966 740.320, 709.394 768 C 705.986 794.410, 702.816 804.852, 695.912 812.406 C 689.907 818.977, 686.896 820.237, 670.980 822.844 C 644.121 827.243, 569.134 836.473, 546.919 838.115 C 538.438 838.741, 531.275 839.457, 531 839.707 C 530.725 839.956, 530.275 844.389, 530 849.558 L 529.500 858.956 533.600 859.569 C 544.068 861.134, 582.291 857.887, 629.422 851.428 C 697.811 842.057, 692.383 843.472, 703.272 832.175 C 712.679 822.416, 713.855 819.482, 724.099 780.224 C 731.889 750.373, 743.008 730.545, 759.898 716.388 C 776.327 702.618, 787.051 698.438, 805.500 698.615 C 826.062 698.811, 834.279 702.035, 847.020 714.904 C 866.102 734.179, 872.814 752.874, 873.714 789.250 L 874.227 810 879.645 810 C 889.655 810, 896.962 804.283, 900.420 793.746 C 906.973 773.781, 900.087 722.725, 886.592 691.210 C 864.503 639.628, 817.110 609.307, 767 614.697 M 468 639.991 C 466.075 640.425, 462.250 641.123, 459.500 641.541 C 455.323 642.177, 454.911 642.413, 457 642.975 C 458.963 643.503, 457.539 644.106, 450.373 645.778 C 431.986 650.070, 404.851 660.008, 393 666.791 C 374.991 677.098, 354.472 694.138, 350.554 702.038 L 348.837 705.500 351.382 702.500 C 352.844 700.778, 353.943 700.096, 353.964 700.900 C 353.984 701.670, 355.285 700.545, 356.856 698.400 C 373.057 676.272, 413.874 657.372, 469 646.471 C 478.229 644.646, 480 643.746, 480 640.878 C 480 638.803, 474.925 638.428, 468 639.991 M 664 656.613 C 638.560 660.957, 629.429 666.815, 631.435 677.505 C 633.191 686.863, 649.291 690.642, 669.564 686.455 C 686.293 683, 690.500 679.381, 690.500 668.444 C 690.500 657.722, 689.118 656.551, 676.224 656.343 C 670.876 656.257, 665.375 656.378, 664 656.613 M 665.500 662.707 C 658.717 663.627, 645.733 667.095, 642.067 668.966 C 632.259 673.970, 638.524 682, 652.235 682 C 665.106 682, 683.305 676.719, 684.391 672.668 C 686.881 663.386, 681.480 660.538, 665.500 662.707 M 888.039 676.130 C 889.637 680.184, 893.670 691.375, 897.001 701 C 905.265 724.876, 904.512 723.608, 905.853 715.918 C 909.876 692.837, 902.037 671.503, 888.741 669.345 L 885.135 668.760 888.039 676.130 M 135.271 682.095 C 116.228 691.521, 108.467 738.167, 124.290 748.092 C 142.282 759.378, 163.218 711.391, 151.290 686.206 C 148.400 680.102, 142.405 678.564, 135.271 682.095 M 310.718 696.092 C 301.903 698.167, 294.628 703.783, 288.091 713.556 C 274.745 733.510, 273.504 762.706, 285.343 778.228 C 297.820 794.586, 322.677 788.430, 333.896 766.205 C 351.558 731.217, 337.835 689.706, 310.718 696.092 M 308.363 704.922 C 284.429 715.791, 275.649 762.189, 294.767 776.771 C 303.102 783.129, 316.471 779.160, 324.256 768.017 C 335.201 752.351, 337.315 722.070, 328.295 710.165 C 322.952 703.113, 316.238 701.347, 308.363 704.922 M 789 710.028 C 776.026 712.742, 761.017 723.797, 751.702 737.500 C 738.148 757.439, 731.258 775.274, 727.942 799 C 727.251 803.942, 725.654 809.802, 724.127 813 C 716.861 828.212, 725.173 861.148, 741.287 881 C 766.678 912.281, 804.613 910.703, 836.271 877.050 C 855.806 856.284, 865.336 830.911, 865.398 799.500 C 865.491 752.777, 849.366 722.795, 818.275 711.883 C 811.625 709.549, 796.017 708.560, 789 710.028 M 172.500 740.204 C 162.473 743.699, 155.017 762.431, 158.932 774.293 C 163.108 786.947, 199.566 800.045, 230.425 799.978 C 245.674 799.945, 251.819 796.613, 257.131 785.500 C 265.229 768.557, 256.785 753.412, 235.500 746.700 C 217.740 741.099, 180.844 737.295, 172.500 740.204 M 433.071 741.616 C 426.930 742.645, 422.859 744.042, 418.071 746.764 C 414.457 748.819, 410.825 750.800, 410 751.168 C 407.104 752.456, 393.825 764.899, 390.248 769.674 C 388.261 772.328, 385.451 776.075, 384.004 778 C 380.054 783.256, 370.519 803.421, 367.677 812.529 C 353.965 856.480, 361.823 899.113, 388.818 927.222 C 416.790 956.347, 457.824 953.964, 490.852 921.297 C 514.625 897.783, 527.273 859.328, 523.084 823.299 C 516.104 763.278, 483.013 733.248, 433.071 741.616 M 172.112 746.286 C 167.200 747.855, 164.570 754.066, 164.530 764.192 C 164.501 771.614, 164.620 772.008, 167.927 775.422 C 179.368 787.236, 234.455 797.990, 244.677 790.406 C 250.685 785.949, 254.093 775.897, 251.894 769.116 C 248.099 757.407, 237.246 752.855, 199.075 746.962 C 185.266 744.831, 177.295 744.631, 172.112 746.286 M 496.718 753.055 C 498.488 754.893, 500.188 756.146, 500.495 755.838 C 500.803 755.531, 499.355 754.027, 497.277 752.496 L 493.500 749.713 496.718 753.055 M 909.500 753.765 C 908.897 754.209, 908.500 761.740, 908.500 772.751 L 908.500 791.002 910.782 791.001 C 923.637 790.996, 931.795 771.112, 924.070 758.614 C 921.272 754.086, 912.870 751.290, 909.500 753.765 M 791.134 761.701 C 784.489 764.050, 775.087 773.855, 770.686 783.028 C 755.295 815.105, 767.975 851.545, 794.500 851.465 C 823.145 851.379, 841.744 809.090, 826.966 777.650 C 820.084 763.010, 805.631 756.577, 791.134 761.701 M 792.207 769.584 C 768.030 781.632, 762.361 827.631, 783.330 841.623 C 803.020 854.761, 826.760 829.967, 824.662 798.457 C 823.065 774.463, 808.471 761.480, 792.207 769.584 M 93.193 782.294 C 83.573 792.534, 86.283 812.699, 98.575 822.346 C 131.708 848.351, 252.442 882.268, 312.500 882.441 C 331.514 882.496, 334.855 881.637, 343.649 874.431 C 353.124 866.667, 356.471 851.240, 350.994 840.583 C 347.017 832.846, 344.355 831.402, 335.172 832 C 287.053 835.136, 228.539 827.293, 172 810.130 C 130.691 797.590, 110.510 790.152, 101.813 784.261 C 99.441 782.655, 97.003 781.053, 96.395 780.701 C 95.788 780.349, 94.347 781.066, 93.193 782.294 M 440.079 795.582 C 408.386 807.112, 396.159 856.671, 418.751 882.034 C 428.723 893.229, 443.949 896.052, 456.792 889.088 C 485.450 873.549, 493.234 827.339, 471.168 803.748 C 462.873 794.880, 450.757 791.698, 440.079 795.582 M 441.698 801.444 C 415.494 810.791, 404.351 852.576, 421.920 875.609 C 442.080 902.039, 479.973 875.484, 477.727 836.500 C 476.253 810.932, 459.848 794.970, 441.698 801.444 M 713.208 833.163 C 711.158 836.480, 704.646 842.821, 698.434 847.550 L 695.742 849.599 697.460 855.550 C 703.922 877.933, 725.942 896.578, 754.173 903.569 C 757.653 904.431, 761.400 905.375, 762.500 905.668 C 763.600 905.960, 761.703 904.467, 758.284 902.350 C 738.471 890.078, 723.978 868.655, 718.472 843.500 C 717.509 839.100, 716.424 834.175, 716.062 832.557 L 715.402 829.613 713.208 833.163 M 147.099 860.034 C 154.463 873.851, 167.695 886.353, 182.500 893.481 C 194.689 899.350, 202.115 901.091, 217.500 901.686 C 235.974 902.400, 248.494 899.400, 262.529 890.893 C 268.361 887.358, 269.294 886, 265.889 886 C 252.753 886, 178.235 866.973, 152.380 857.017 C 148.071 855.358, 144.396 854, 144.214 854 C 144.032 854, 145.330 856.715, 147.099 860.034 M 356 871.693 C 356 873.760, 348.012 881.716, 343.570 884.072 C 338.163 886.941, 337.975 888.085, 341.373 897.446 C 349.396 919.549, 367.703 935.395, 395.824 944.574 C 405.999 947.896, 406.481 947.652, 399.176 942.879 C 380.274 930.528, 365.178 907.529, 359.510 882.444 C 357.354 872.904, 356 868.755, 356 871.693" stroke="none" fill="#1a1a1a" fill-rule="evenodd"/>
</svg>