<svg xmlns="http://www.w3.org/2000/svg" width="1024" height="1024" viewBox="0 0 1024 1024" version="1.1">
	<path d="M 447 6.584 C 412.206 12.155, 385.757 28.839, 349.941 67.810 C 332.096 87.226, 324.098 92.048, 307.116 93.626 C 296.122 94.648, 287.548 89.821, 282.923 80.008 C 280.653 75.189, 280.311 74.901, 277.500 75.435 C 266.098 77.604, 265.857 100.706, 276.997 123.500 C 287.430 144.847, 311.460 164.922, 334 171.123 C 336.475 171.804, 338.620 172.437, 338.767 172.531 C 338.914 172.625, 337.692 175.581, 336.051 179.101 C 331.721 188.388, 330.230 195.573, 329.019 213 C 326.269 252.553, 322.825 269.127, 314.489 282.916 C 310.361 289.745, 309.363 290.751, 305.628 291.854 C 280.229 299.354, 267.959 330.423, 276.805 364.841 L 278.692 372.182 275.596 371.581 C 266.983 369.910, 249.465 369.769, 245.714 371.341 C 241.127 373.264, 240.440 374.751, 234.380 395.862 C 231.925 404.418, 229.778 411.555, 229.609 411.724 C 229.441 411.893, 226.673 412.716, 223.459 413.553 C 209.567 417.171, 197.357 431.381, 192.464 449.624 C 188.261 465.295, 192.724 492.139, 200.609 498.609 L 203.178 500.717 201.879 508.448 C 200.585 516.147, 200.592 516.202, 203.424 521.612 C 210.383 534.902, 229.832 548.167, 253.366 555.672 C 262.201 558.490, 262.250 558.524, 267.444 565.500 C 287.697 592.700, 319.818 602.306, 352.821 591.032 C 359.794 588.650, 361.036 588.458, 360.490 589.845 C 343.257 633.649, 342.774 687.047, 359.322 718.874 C 368.498 736.522, 367.757 733.745, 368.957 754.983 C 370.199 776.973, 372.258 788.685, 378.103 807 C 383.950 825.323, 384.674 831.289, 382.574 843.850 C 380.334 857.246, 375.421 872.577, 367.002 892.440 C 363.258 901.273, 358.759 911.988, 357.004 916.250 L 353.813 924 253.514 924 C 161.808 924, 153.160 924.139, 152.590 925.627 C 150.872 930.103, 148.525 930, 252.472 930 L 350.700 930 348.350 938.113 C 344.921 949.952, 345.165 953.664, 349.721 958.987 C 359.232 970.099, 386.389 975.993, 421.944 974.660 C 440.700 973.958, 445.729 973.131, 454.096 969.376 C 465.045 964.463, 471.652 954.601, 474.745 938.556 L 476.394 930 487.138 930 L 497.881 930 495.394 937.250 C 494.026 941.238, 491.333 950.447, 489.410 957.715 C 485.272 973.351, 485.413 973.977, 494.723 981.402 C 507.597 991.670, 534.231 996.233, 568.041 993.964 C 603.146 991.609, 613.501 983.610, 618.386 955.074 C 619.274 949.889, 620.005 943.814, 620.011 941.574 C 620.017 939.333, 620.301 935.813, 620.642 933.750 L 621.262 930 725.572 930 C 794.650 930, 830.093 929.659, 830.506 928.991 C 830.848 928.436, 830.845 927.086, 830.497 925.991 C 829.872 924.020, 828.831 924, 725.803 924 L 621.742 924 622.447 916.842 C 622.835 912.906, 624.430 902.668, 625.993 894.092 C 632.256 859.713, 632.533 844.518, 627.200 828 C 623.044 815.130, 621.999 808.601, 622.007 795.566 C 622.018 778.218, 624.542 769.361, 636.988 743 C 646.742 722.342, 647.932 718.100, 651.220 692.300 C 651.491 690.168, 651.642 690.204, 656.120 693.465 C 667.792 701.968, 670.244 717.822, 664.476 747.500 C 659.174 774.782, 658 784.153, 658 799.199 C 658 848.455, 680.190 884.895, 718.757 898.971 C 741.862 907.403, 775.930 907.402, 801.211 898.970 C 845.919 884.057, 878.837 840.751, 869.461 809.182 C 867.968 804.152, 866.787 802.917, 865.486 805.022 C 864.305 806.934, 854.164 813.947, 848.197 816.979 C 832.920 824.743, 818.046 816.588, 813.793 798.117 C 811.695 789.002, 812.471 768.196, 815.943 740.500 C 824.399 673.051, 818.822 643.467, 791.987 613.415 C 773.780 593.026, 752.786 583.270, 725 582.287 C 696.080 581.264, 676.668 589.339, 655.390 611.242 C 650.444 616.334, 645.465 621.821, 644.325 623.436 L 642.253 626.373 641.504 623.936 C 641.092 622.596, 636.966 611.931, 632.336 600.236 C 622.655 575.787, 617.363 556.487, 612.943 529.518 C 611.319 519.608, 609.767 510.200, 609.492 508.610 C 608.995 505.727, 609.004 505.730, 613.747 510.154 C 631.457 526.674, 649.316 534, 671.875 534 C 702.643 534, 731.032 516.774, 741.450 491.782 C 745.042 483.166, 743.474 481.468, 731.304 480.792 C 715.683 479.925, 707.123 469.407, 705.313 448.855 L 704.728 442.210 712.614 444.172 C 728.389 448.098, 743.686 446.736, 756.457 440.271 C 763.436 436.738, 774.851 424.925, 778.461 417.500 C 782.189 409.834, 783.154 399.933, 780.464 396.960 C 777.922 394.152, 776.549 394.494, 772.412 398.965 C 762.944 409.198, 741.909 406.285, 733.241 393.540 C 723.010 378.495, 724.949 361.163, 741.549 319.291 C 760.201 272.239, 761.623 243.726, 747.424 201.500 C 740.169 179.925, 733.390 169.190, 715.779 151.391 L 702.809 138.282 704.047 130.608 C 708.064 105.709, 701.220 67.992, 687.511 39.476 C 676.608 16.795, 665.192 10.034, 651.275 18.015 C 645.113 21.549, 623.511 43.051, 611.236 57.868 L 602.647 68.235 600.610 65.368 C 584.336 42.454, 537.951 16.433, 498.288 7.967 C 485.060 5.144, 460.184 4.473, 447 6.584 M 453.635 14.064 C 417.085 19.132, 392.126 34.118, 360.190 70.171 C 338.137 95.067, 326.993 101.447, 305.500 101.482 C 292.723 101.503, 288.470 99.749, 281.158 91.442 L 277.118 86.853 276.392 90.676 C 275.369 96.060, 278.166 108.668, 282.186 116.799 C 285.894 124.297, 289.256 126.570, 301.150 129.617 C 327.545 136.379, 355.705 125.380, 383.500 97.452 C 412.423 68.391, 429.037 56.913, 454.349 48.507 C 468.662 43.754, 478.118 42.623, 497.883 43.302 C 528.198 44.344, 552.843 52.102, 584.827 70.670 C 599.795 79.360, 601.242 78.300, 590.524 66.494 C 559.784 32.635, 495.971 8.194, 453.635 14.064 M 651.228 28.193 C 640.656 37.568, 622.426 55.940, 616.966 62.720 C 597.895 86.402, 585.038 118.957, 585.008 143.639 C 585 149.454, 582.337 155.659, 580.593 153.924 C 578.016 151.359, 577.391 134.538, 579.503 124.569 C 580.311 120.757, 580.759 117.426, 580.499 117.166 C 580.240 116.906, 574.495 116.481, 567.733 116.220 C 544.277 115.317, 529.672 121.148, 510.146 139.213 C 484.629 162.820, 477.080 167.974, 459 174.138 C 446.071 178.545, 423.412 179.029, 413.607 175.106 C 407.067 172.491, 405.110 172.517, 384 175.511 C 375.530 176.713, 369.192 176.971, 359.945 176.491 L 347.390 175.840 343.728 183.670 C 339.324 193.087, 338.397 197.406, 337.009 215 C 334.471 247.161, 329.220 273.005, 322.636 285.736 L 321.081 288.744 329.924 288.240 C 375.267 285.655, 414.116 318.580, 422.509 366.710 C 425.674 384.863, 422.478 405.498, 414.839 416.226 C 413.708 417.815, 412.943 419.252, 413.141 419.420 C 414.508 420.579, 435.041 422.248, 453.691 422.716 C 505.252 424.009, 540.186 415.304, 581.819 390.790 C 601.808 379.019, 625.441 352.994, 636.972 330.053 C 649.554 305.023, 657 266.905, 657 227.528 C 657 217.888, 656.796 210, 656.547 210 C 655.079 210, 650.119 212.723, 647.864 214.766 C 645.128 217.246, 640.017 217.605, 639.283 215.369 C 639.079 214.747, 641.745 212.204, 645.206 209.717 C 652.424 204.533, 670.720 186.128, 676.737 178 C 696.517 151.278, 701.977 114.232, 691.900 75.121 C 686.687 54.888, 677.851 35.405, 670.149 27.159 C 665.396 22.071, 657.653 22.494, 651.228 28.193 M 478.099 48.118 C 447.004 51.724, 422.457 65.664, 389.600 98.376 C 364.568 123.298, 345.078 134.180, 321.500 136.398 C 314.321 137.074, 298.807 135.038, 294.803 132.894 C 291.419 131.083, 291.816 132.504, 296.199 137.893 C 309.847 154.670, 336.226 166.699, 361.649 167.738 C 394.025 169.061, 417.856 161.674, 444.370 142.096 C 447.079 140.096, 455.113 131.177, 462.473 122 C 483.941 95.232, 494.190 87.861, 519.825 80.751 C 532.242 77.307, 564.138 77.594, 580.330 81.296 C 594.180 84.462, 593 84.332, 593 82.693 C 593 80.955, 571.051 68.214, 558.500 62.667 C 530.718 50.388, 502.522 45.286, 478.099 48.118 M 653.818 72.250 C 643.862 81.942, 628.815 108.408, 622.481 127.366 C 615.963 146.878, 612.194 179.605, 616.174 182.129 C 625.307 187.919, 648.916 166.943, 658.239 144.754 C 665.513 127.439, 666.123 104.068, 659.863 82.435 C 657.970 75.894, 657.933 75.097, 659.358 71.685 C 661.501 66.557, 659.452 66.766, 653.818 72.250 M 649.812 84.708 C 630.716 111.341, 622 135.774, 622 162.673 L 622 178.128 626.151 175.814 C 635.509 170.598, 645.620 159.039, 651.862 146.420 C 660.306 129.348, 661.669 110.290, 656.030 88.163 C 653.669 78.901, 653.888 79.023, 649.812 84.708 M 535.456 83.016 C 519.580 84.692, 505.850 89.471, 493.306 97.686 C 483.547 104.077, 476.726 111.341, 461.351 131.717 C 446.346 151.601, 439 158.023, 423.277 165.003 C 416.895 167.836, 419.189 169.235, 431.169 169.816 C 455.256 170.985, 475.678 161.018, 502.500 135.003 C 525.022 113.158, 538.696 107.526, 567.671 108.164 L 582.935 108.500 584.556 103.543 C 585.447 100.817, 587.257 96.453, 588.578 93.846 C 591.412 88.253, 591.949 88.733, 580 86.160 C 563.085 82.516, 549.358 81.547, 535.456 83.016 M 699.057 151.250 C 698.365 153.588, 696.279 158.802, 694.423 162.839 L 691.048 170.178 697.033 180.300 C 718.090 215.915, 719.479 252.887, 701.985 312.050 C 677.935 393.384, 684.869 434.966, 722.975 437.929 C 740.348 439.280, 751.546 435.828, 762.648 425.700 C 772.356 416.843, 778.367 405.097, 770.437 410.478 C 756.974 419.614, 731.751 411.083, 723.718 394.676 C 714.941 376.753, 717.541 356.231, 733.572 316.872 C 744.694 289.568, 747.989 274.720, 747.996 251.881 C 748.004 224.735, 740.064 197.372, 725.791 175.360 C 721.367 168.537, 702.624 147, 701.110 147 C 700.673 147, 699.750 148.912, 699.057 151.250 M 683.935 180.750 C 682.062 183.363, 677.036 189.468, 672.765 194.318 C 668.494 199.168, 664.963 203.668, 664.917 204.318 C 664.872 204.968, 664.897 215.625, 664.975 228 C 665.256 273.048, 659.783 300.310, 643.998 332.500 C 636.613 347.558, 634.876 355.194, 630.918 390 C 627.092 423.640, 635.914 459.260, 651.996 475.111 C 661.855 484.827, 670.852 487.071, 685.381 483.437 C 687.600 482.882, 688.155 483.034, 687.800 484.099 C 686.889 486.832, 680.904 489.274, 673.888 489.776 C 650.436 491.454, 630.918 463.428, 625.990 421 C 624.614 409.155, 625.524 391.466, 628.535 371.500 C 629.779 363.250, 630.693 356.388, 630.567 356.252 C 630.440 356.115, 628.823 358.140, 626.972 360.752 C 625.122 363.363, 618.131 370.900, 611.437 377.500 C 604.742 384.100, 598.767 390.462, 598.158 391.637 C 596.229 395.359, 593.760 417.926, 594.452 425.500 C 596.145 444.022, 604.247 482.679, 608.123 490.730 C 612.360 499.533, 631.099 514.300, 645.176 519.931 C 669.384 529.613, 700.551 524.959, 719.322 508.858 C 723.634 505.158, 734 491.812, 734 489.958 C 734 489.558, 731.413 488.920, 728.250 488.540 C 717.255 487.221, 707.109 480.931, 702.944 472.852 C 697.908 463.083, 695.076 441.463, 698.095 435.823 C 699.026 434.084, 698.660 433.234, 695.647 430.139 C 684.152 418.331, 680.582 392.693, 685.810 359.500 C 687.967 345.807, 691.133 332.873, 700.269 300.434 C 707.380 275.185, 708.484 267.628, 708.439 244.500 C 708.395 222.054, 707.056 214.234, 700.501 198.157 C 696.885 189.287, 689.463 176, 688.125 176 C 687.693 176, 685.807 178.137, 683.935 180.750 M 501.250 189.706 C 499.719 190.001, 499 190.852, 499 192.370 C 499 195.643, 500.890 197, 505.450 197.001 C 514.769 197.003, 527.576 205.925, 532.970 216.174 C 534.801 219.653, 536.392 222.623, 536.506 222.774 C 536.620 222.924, 537.453 222.763, 538.357 222.417 C 542.980 220.642, 537.200 206.063, 528.923 198.621 C 519.756 190.379, 511.524 187.727, 501.250 189.706 M 349 193.497 C 345.568 196.031, 343.823 198.761, 344.684 200.250 C 345.322 201.352, 349.436 201.164, 350.622 199.978 C 351.184 199.416, 353.636 198.616, 356.072 198.201 C 360.147 197.505, 360.500 197.207, 360.500 194.472 C 360.500 190.210, 354.178 189.674, 349 193.497 M 366 257.642 C 365.175 257.867, 363.708 259.968, 362.740 262.310 C 361.773 264.652, 359.602 268.240, 357.917 270.285 C 354.214 274.777, 352.627 274.629, 342.940 268.888 C 336.642 265.155, 333.245 263.969, 334.453 265.924 C 334.767 266.433, 334.370 266.995, 333.569 267.174 C 331.613 267.612, 342.324 280.792, 345.670 282.065 C 356.513 286.187, 366.424 277.301, 367.503 262.490 C 367.722 259.470, 367.812 257.052, 367.701 257.116 C 367.591 257.180, 366.825 257.416, 366 257.642 M 460.432 271.463 C 458.202 274.866, 458.918 284.977, 461.782 290.529 C 469.703 305.885, 493.430 313.329, 509.530 305.511 C 515.390 302.665, 518.019 300.029, 524.363 290.634 C 529.165 283.523, 529.911 280.628, 527.714 277.624 C 526.232 275.596, 523.757 277.738, 515.727 288 C 508.508 297.224, 502.920 300.338, 494.782 299.672 C 483.593 298.756, 474.134 293.498, 469.524 285.632 C 466.978 281.287, 463.881 272.453, 464.638 271.695 C 464.864 271.470, 464.393 270.741, 463.591 270.076 C 462.404 269.090, 461.818 269.348, 460.432 271.463 M 325.500 293.631 C 306.530 296.569, 289.586 308.052, 285.097 321.013 C 281.117 332.502, 281.297 350.143, 285.563 366.613 C 287.560 374.325, 288.457 375.075, 302 380.357 C 318.745 386.887, 335.084 394.009, 346.632 399.810 C 367.289 410.187, 380.845 407.326, 397.313 389.111 C 400.904 385.140, 402.102 385.157, 400.953 389.163 C 397.841 400.013, 383.059 409.816, 369.500 410.022 L 366.500 410.067 370.500 413.220 C 372.700 414.954, 376.841 418.823, 379.702 421.817 L 384.904 427.262 389.621 426.074 C 399.906 423.484, 408.069 416.352, 413.133 405.529 C 431.994 365.224, 401.932 308.225, 355.383 296.033 C 347.700 294.020, 331.429 292.712, 325.500 293.631 M 290.836 322.112 C 286.956 323.565, 286.561 325.662, 290.037 326.357 C 292.115 326.773, 293.491 328.042, 294.935 330.873 C 297.958 336.798, 301.361 339.119, 305.110 337.812 L 308.124 336.761 305.857 334.348 C 304.611 333.021, 302.445 329.587, 301.045 326.718 C 298.300 321.091, 296.152 320.121, 290.836 322.112 M 354.323 333.486 C 353.156 334.304, 350.918 337.012, 349.350 339.504 C 347.783 341.997, 345.262 344.588, 343.750 345.262 C 341.122 346.434, 340.059 349.300, 341.844 350.403 C 344.232 351.880, 350.735 348.649, 355.132 343.803 L 359.765 338.697 363.948 339.759 C 369.641 341.204, 370.679 338.889, 366.151 334.844 C 362.557 331.632, 357.756 331.082, 354.323 333.486 M 252 377.826 C 252 378.990, 263.789 388.222, 273.361 394.554 C 277.753 397.459, 280.057 398.359, 282.552 398.144 C 296.297 396.960, 327.941 408.341, 343.440 420.042 C 348.791 424.082, 349.687 424.397, 358.572 425.360 C 371.748 426.789, 372.336 425.732, 362.351 418.561 C 353.880 412.477, 331.764 401.204, 312.500 393.151 C 289.668 383.607, 252 374.065, 252 377.826 M 243.725 391.353 C 242.794 394.848, 235.087 421.060, 226.598 449.603 C 218.110 478.147, 210.422 504.083, 209.514 507.240 L 207.864 512.980 210.682 518.187 C 217.726 531.204, 229.279 538.520, 257.758 548 C 273.304 553.175, 281.904 554.980, 291.066 554.992 C 313.642 555.023, 329.780 542.209, 315.625 535.492 C 309.105 532.398, 308.527 527.533, 313.750 519.712 C 317.916 513.473, 320.590 511.768, 324.862 512.622 C 328.232 513.296, 331.008 509.322, 339.949 491.017 L 345.070 480.534 341.923 479.474 C 335.169 477.200, 333.930 469.655, 339 461.661 C 340.650 459.059, 342 456.512, 342 456 C 342 454.513, 345.028 453.288, 352 451.956 C 359.994 450.428, 360.461 450.070, 362.835 443.659 C 366.652 433.350, 367.254 434.356, 356.776 433.537 C 327.689 431.264, 283.994 413.179, 254.179 391.073 C 249.674 387.733, 245.860 385, 245.704 385 C 245.547 385, 244.656 387.859, 243.725 391.353 M 583 400.278 C 550.240 420.506, 515.549 429.758, 468.875 430.715 L 444.251 431.220 443.098 435.067 C 440.718 443.010, 424.923 463.562, 418.597 466.948 C 417.168 467.713, 416 468.692, 416 469.126 C 416 469.559, 423.087 475.291, 431.750 481.864 C 440.413 488.437, 453.469 499.274, 460.765 505.947 L 474.030 518.079 480.298 513.607 C 483.940 511.008, 491.706 503.274, 498.841 495.141 C 505.593 487.444, 513.228 479.289, 515.808 477.019 C 518.389 474.748, 521.275 472.174, 522.222 471.299 C 523.570 470.055, 524.254 469.966, 525.369 470.891 C 527.683 472.812, 526.162 476.165, 520.558 481.500 C 517.669 484.250, 510.231 492.257, 504.029 499.293 C 497.827 506.328, 489.770 514.615, 486.126 517.706 C 482.482 520.798, 479.563 523.521, 479.641 523.758 C 479.718 523.995, 481.792 526.517, 484.248 529.363 C 488.937 534.794, 489.391 539.020, 485.282 538.985 C 482.497 538.961, 481.676 538.242, 461 517.736 C 442.170 499.060, 432.416 491.087, 419.355 483.697 L 413.500 480.384 413.829 487.110 C 414.445 499.712, 409.688 512.487, 398.288 528.846 C 389.813 541.007, 379.991 550.904, 373.257 554.068 C 370.411 555.406, 368.064 556.828, 368.041 557.228 C 367.872 560.237, 418.234 594.784, 440.500 606.933 C 461.820 618.566, 471.437 621.492, 485.999 620.776 C 512.804 619.458, 544.488 599.575, 570.908 567.495 C 581.644 554.460, 584.832 551.400, 585.599 553.397 C 589.721 564.140, 548.243 606.604, 520.500 620.042 C 507.969 626.112, 501.175 627.940, 488.377 628.685 C 463.257 630.147, 443.501 621.640, 396.634 589.177 C 390.108 584.656, 382.931 579.385, 380.685 577.462 C 375.553 573.070, 375.473 573.106, 371.903 581.523 C 364.563 598.827, 358.276 622.403, 355.936 641.396 C 354.038 656.799, 356.354 686.089, 360.633 700.811 C 369.525 731.398, 399.504 761.467, 434.462 774.862 C 450.644 781.062, 481.651 788.939, 490.099 788.996 C 490.429 788.998, 490.971 784.388, 491.303 778.750 C 492.181 763.852, 495.930 753.172, 502.422 747.073 L 504.877 744.767 504.597 749.634 C 504.442 752.310, 503.327 758.100, 502.118 762.500 C 498.105 777.101, 498.340 798.942, 502.649 811.873 C 504.784 818.281, 509.348 827.150, 514.143 834.211 C 526.653 852.632, 526.789 862.800, 515.065 903.110 L 509.305 922.917 512.706 924.531 C 521.170 928.547, 537.469 933.089, 558 937.151 C 569.351 939.397, 609.646 940.683, 611.474 938.858 C 611.828 938.505, 612.799 931.305, 613.633 922.858 C 614.466 914.411, 616.475 900.300, 618.097 891.500 C 624.406 857.267, 624.341 848.363, 617.598 823.778 C 609.920 795.782, 612.318 776.068, 627.182 745 C 639.541 719.168, 641.693 711.100, 642.656 687 C 643.662 661.842, 639.266 639.789, 627.462 610.781 C 614.013 577.729, 610.244 563.946, 604.006 525 C 598.975 493.586, 598.041 488.563, 593.508 468.564 C 586.904 439.431, 585.253 417.981, 588.461 403.010 C 589.226 399.440, 589.773 396.462, 589.676 396.392 C 589.579 396.322, 586.575 398.071, 583 400.278 M 289 404.054 C 292.713 406.587, 298.303 409.078, 307.535 412.314 C 313.016 414.235, 322 417.444, 327.500 419.446 C 342.350 424.852, 332.967 417.913, 315 410.204 C 305.339 406.059, 284.826 401.206, 289 404.054 M 219.441 423.570 C 211.982 428.053, 209.459 430.397, 206.289 435.786 C 203.213 441.015, 200 451.032, 200 455.393 C 200 459.676, 204.409 468.325, 208.234 471.543 L 211.312 474.134 213.573 466.817 C 218.583 450.605, 227 421.856, 227 420.957 C 227 419.370, 225.658 419.834, 219.441 423.570 M 400.952 429.964 C 395.796 432.691, 386.043 435, 379.683 435 C 374.173 435, 374.151 435.012, 372.967 438.750 C 372.313 440.813, 370.680 444.419, 369.339 446.764 C 366.653 451.459, 366.926 453, 370.447 453 C 373.647 453, 388.119 457.273, 397.389 460.956 C 401.604 462.630, 405.904 464, 406.945 464 C 410.953 464, 429.175 444.457, 434.017 434.966 L 435.962 431.155 429.231 430.524 C 425.529 430.178, 419.489 429.468, 415.808 428.947 C 406.763 427.667, 405.079 427.782, 400.952 429.964 M 347.712 462.440 C 341.412 469.977, 344.212 476.535, 352.058 472.621 C 355.439 470.935, 356.828 471.361, 359.627 474.942 C 360.580 476.162, 361.275 475.945, 364.127 473.538 C 368.255 470.054, 378.684 465.002, 381.750 465.001 C 385.512 464.999, 384.268 463.305, 379.651 462.142 C 374.902 460.947, 356.100 458, 353.218 458 C 352.231 458, 349.753 459.998, 347.712 462.440 M 199.507 474.464 C 200.285 481.185, 203.684 493, 204.839 493 C 205.256 493, 206.531 489.832, 207.671 485.960 L 209.745 478.919 206.901 477.449 C 205.337 476.640, 202.878 474.296, 201.437 472.239 L 198.817 468.500 199.507 474.464 M 382.184 470.901 C 369.218 475.380, 357.332 486.567, 350.204 501 C 346.615 508.267, 346.503 508.826, 346.588 519 C 346.703 532.645, 348.931 538.746, 356.897 547.221 L 362.588 553.276 367.528 551.091 C 376.315 547.204, 395.741 525.422, 402.642 511.718 C 416.931 483.344, 406.487 462.508, 382.184 470.901 M 352.144 482.327 C 350.724 484.037, 347.507 491.823, 348.766 490.500 C 355.512 483.414, 357.157 481, 355.239 481 C 354.142 481, 352.749 481.597, 352.144 482.327 M 337.615 509.574 C 334.478 515.186, 334.476 515.215, 337 517.500 C 338.963 519.276, 339 519.247, 339 515.898 C 339 514.022, 339.442 510.945, 339.983 509.060 C 341.414 504.071, 340.590 504.250, 337.615 509.574 M 319.585 522.082 C 316.604 525.624, 316.963 526.831, 322.002 530.211 C 324.385 531.809, 326.137 534.193, 327.500 537.692 C 329.948 543.977, 330.916 544.618, 339.330 545.519 C 347.716 546.417, 347.799 545.668, 340.148 538.207 C 335.358 533.536, 334.046 531.520, 332.922 527.104 C 331.755 522.526, 331.056 521.504, 328.306 520.354 C 323.640 518.405, 322.486 518.634, 319.585 522.082 M 323.477 553.027 C 318.181 558.883, 305.591 562.222, 288.331 562.346 C 274.113 562.449, 274.157 562.354, 284.203 571.446 C 302.048 587.595, 333.771 591.779, 356.777 581.019 C 370.265 574.710, 371.265 571.044, 361.904 562.236 C 354.138 554.929, 355.411 555.487, 342.071 553.544 C 335.786 552.628, 329.475 551.645, 328.048 551.360 C 326.200 550.990, 324.885 551.470, 323.477 553.027 M 705 591.603 C 692.067 593.731, 672.707 604.198, 662.121 614.784 C 656.137 620.768, 647 633.718, 647 636.216 C 647 637.390, 646.562 637.847, 645.855 637.410 C 645.045 636.910, 644.901 637.552, 645.362 639.601 C 645.720 641.196, 646.290 643.934, 646.627 645.686 L 647.241 648.872 653.137 643.966 C 665.721 633.493, 682.864 627.641, 701 627.625 C 721.048 627.608, 733.466 632.676, 748.300 646.927 C 773.317 670.962, 780.272 697.464, 775.403 750.202 C 771.235 795.346, 776.157 822.295, 791.341 837.468 C 802.824 848.942, 819.104 852.004, 833.178 845.336 C 847.828 838.395, 862.416 826.378, 861.842 821.721 L 861.500 818.942 855.686 822.588 C 834.186 836.072, 812.770 827.859, 805.908 803.500 C 803.429 794.698, 804.153 764.880, 807.365 743.500 C 811.143 718.349, 812.700 692.094, 811.232 678.282 C 804.925 618.954, 760.258 582.507, 705 591.603 M 685.349 633.915 C 666.998 638.905, 649 650.428, 649 657.184 C 649 659.696, 649.299 660.082, 650.750 659.444 C 667.112 652.248, 682.188 652.244, 698.442 659.432 C 709.225 664.201, 719.194 677.868, 723.656 694 C 726.612 704.686, 726.190 732.758, 722.739 755 C 717.266 790.271, 716.398 812.084, 719.848 827.672 C 727.983 864.437, 752.597 885, 788.470 885 C 821.672 885, 849.137 866.373, 859.580 836.772 L 860.933 832.938 853.725 838.578 C 826.214 860.104, 799.566 858.646, 782.641 834.688 C 770.298 817.216, 766.982 794.528, 770.502 751.617 C 774.598 701.681, 769.642 678.045, 750.297 655.247 C 734.431 636.548, 707.812 627.805, 685.349 633.915 M 661.945 660.450 C 659.990 661.171, 656.503 662.723, 654.195 663.900 L 650 666.041 650.100 671.770 C 650.249 680.350, 651.043 682.254, 654.885 683.250 C 659.553 684.460, 667.086 692.391, 670.825 700.033 C 676.917 712.483, 677.465 724.185, 672.991 746.258 C 666.340 779.070, 664.672 799.727, 667.358 816.012 C 673.328 852.209, 689.570 876.800, 715.231 888.494 C 737.463 898.627, 779.947 899.711, 801.322 890.691 C 803.658 889.705, 801.941 889.557, 791.322 889.830 C 767.541 890.442, 751.218 884.428, 736.412 869.600 C 720.908 854.073, 714.424 837.341, 713.316 810 C 712.683 794.363, 713.237 787.793, 718.163 752.500 C 726.079 695.793, 716.770 668.411, 686.869 660.453 C 680.249 658.691, 666.725 658.689, 661.945 660.450 M 376 749.118 C 376 763.392, 380.227 786.138, 386.017 803.019 C 395.201 829.794, 392.671 853.220, 376.517 890.960 C 372.463 900.432, 372.406 900.809, 374.750 902.665 C 384.328 910.248, 410.412 918.915, 431.447 921.503 C 443.097 922.937, 469 924.570, 469 923.871 C 469 923.646, 471.219 912.670, 473.932 899.480 C 481.040 864.921, 483.180 837.527, 480.142 820 C 479.522 816.425, 479.012 809.675, 479.007 805 L 478.999 796.500 465.798 793.568 C 431.585 785.968, 403.916 772.411, 384.251 753.612 L 376 745.724 376 749.118 M 487.018 805.250 C 487.028 809.237, 487.695 816.775, 488.500 822 C 491.505 841.499, 489.894 862.007, 482.648 896.500 C 480.222 908.050, 477.970 918.962, 477.644 920.750 L 477.050 924 488.335 924 L 499.620 924 503.464 910.750 C 513.625 875.733, 514.141 873.558, 514.709 863.388 C 515.371 851.521, 514.184 848.052, 504.737 834.258 C 498.376 824.970, 495.433 817.867, 493.133 806.253 C 491.668 798.854, 491.269 798.006, 489.250 798.003 C 487.122 798, 487.001 798.392, 487.018 805.250 M 362.547 924.356 C 352.563 948.093, 352.330 949.742, 358.168 955.337 C 365.562 962.421, 386.888 967, 412.488 967 C 441.646 967, 456.267 962.238, 462.077 950.849 C 463.691 947.685, 467.920 933.408, 467.985 930.905 C 467.993 930.578, 460.688 929.755, 451.750 929.076 C 419.329 926.613, 385.896 917.804, 373.368 908.423 L 370.235 906.078 362.547 924.356 M 507.679 928.754 C 506.241 931.220, 495 967.250, 495 969.390 C 495 981.278, 546.412 989.732, 581.978 983.693 C 601.156 980.436, 606.080 975.438, 609.755 955.500 L 611.598 945.500 595.049 945.453 C 577.179 945.402, 565.989 944.201, 548 940.404 C 535.982 937.867, 515.432 931.786, 510.807 929.398 C 509.325 928.633, 507.918 928.343, 507.679 928.754" stroke="none" fill="#1a1a1a" fill-rule="evenodd"/>
</svg>