<svg xmlns="http://www.w3.org/2000/svg" width="1024" height="1024" viewBox="0 0 1024 1024" version="1.1">
	<path d="M 612 6.690 C 601.767 10.321, 588.700 29.968, 582.861 50.500 C 581.610 54.900, 580.466 58.676, 580.320 58.890 C 580.173 59.105, 578.196 57.603, 575.927 55.553 C 565.634 46.254, 544.550 34.769, 528.471 29.702 C 482.606 15.249, 438.446 24.359, 410.781 53.979 C 399.130 66.453, 400.049 66.539, 384.787 51.542 C 355.089 22.361, 339.730 18.278, 330.225 37.036 C 321.855 53.553, 322.256 89.904, 330.970 104.673 L 332.933 108 328.216 110.362 C 313.672 117.644, 299.176 118.702, 287.779 113.311 C 281.172 110.186, 281.020 110.164, 278.779 111.980 C 275.282 114.815, 275.532 126.321, 279.266 134.358 C 283.003 142.401, 288.323 149.390, 293.584 153.167 C 296.664 155.380, 298 157.054, 298 158.702 C 298 170.340, 318.614 186.296, 337.750 189.471 C 340.087 189.859, 342 190.282, 342 190.413 C 342 190.543, 340.933 193.786, 339.629 197.620 C 335.324 210.278, 333.521 223.045, 333.574 240.500 C 333.624 256.664, 334.179 261.699, 338.574 285.817 C 341.785 303.440, 341.740 314.755, 338.387 332.595 C 332.497 363.935, 337.583 380.855, 359.410 402.536 C 375.260 418.279, 395.128 428.882, 417.325 433.441 C 423.352 434.679, 426.339 435.934, 430.325 438.905 C 433.171 441.026, 437.637 443.690, 440.250 444.825 C 442.863 445.959, 445.009 447.475, 445.019 448.194 C 445.046 450.036, 406.426 487.870, 394.690 497.500 C 381.758 508.110, 374.405 512.459, 363.530 515.927 C 352.541 519.431, 336.149 523.051, 335.563 522.102 C 335.328 521.722, 332.198 513.781, 328.607 504.455 C 306.853 447.954, 306.299 447, 295.312 447 C 282.740 447, 273.053 457.270, 275.830 467.654 C 276.779 471.203, 292.947 512.415, 298.399 525.185 L 299.972 528.869 294.236 532.119 C 276.980 541.897, 264 563.185, 264 581.710 L 264 588 255.468 588 C 249.613 588, 245.094 588.621, 241.063 589.979 C 235.870 591.728, 149.465 633.357, 94.500 660.591 C 69.114 673.169, 69.735 672.314, 70.194 694 C 70.546 710.679, 71.378 712.870, 78.331 715.434 C 81.648 716.657, 96.091 719, 100.316 719 C 100.805 719, 101.056 771.852, 100.890 839.750 C 100.617 951.218, 100.723 960.742, 102.273 963.653 C 107.068 972.661, 127.029 976.193, 140.747 970.461 C 149.526 966.793, 150.835 963.509, 152.027 942.167 C 153.083 923.278, 157.406 828.946, 159.047 789.016 C 159.645 774.450, 160.233 762.434, 160.353 762.314 C 160.473 762.194, 170.230 763.212, 182.036 764.577 C 193.841 765.942, 220.507 768.958, 241.294 771.279 L 279.087 775.500 279.479 787.500 C 279.695 794.100, 280.160 817.500, 280.512 839.500 C 281.203 882.662, 281.524 885.580, 285.993 889.341 C 292.922 895.171, 310.303 896.533, 319.518 891.968 C 328.849 887.346, 328.554 889.428, 328.159 831.107 L 327.817 780.713 330.756 781.301 C 332.372 781.624, 337.093 782.197, 341.247 782.573 C 351.467 783.499, 351.261 783.260, 349.392 792.051 C 346.897 803.786, 347.910 820.919, 351.807 832.862 L 354.861 842.224 347.535 857.362 C 326.421 900.990, 318.559 927.640, 323.752 937.983 C 334.300 958.993, 403.148 962.491, 425.192 943.136 C 429.614 939.254, 431.242 935.304, 434.608 920.299 C 436.052 913.863, 440.329 897.775, 444.112 884.548 C 452.861 853.955, 453.781 847.790, 451.623 834.166 C 449.572 821.217, 449.562 810.822, 451.591 801.900 L 453.182 794.905 457.341 795.461 C 459.628 795.766, 465.538 796.488, 470.472 797.064 C 475.407 797.640, 479.513 798.199, 479.597 798.306 C 479.680 798.413, 479.388 800.975, 478.947 804 C 476.506 820.754, 478.351 842.040, 483.603 857.738 L 487.031 867.984 483.155 875.742 C 470.326 901.426, 459.004 936.047, 459.001 949.602 C 459 957.008, 461.295 960.982, 468.289 965.683 C 491.577 981.334, 548.861 978.806, 566.310 961.356 C 571.300 956.367, 573.411 948.995, 576.005 927.500 C 577.133 918.150, 579.195 905.100, 580.587 898.500 C 586.660 869.698, 586.532 871.153, 584.170 857.649 C 580.629 837.411, 580.584 827.575, 583.980 816 C 585.802 809.791, 585.461 809.910, 597.800 811.200 L 609 812.371 609.125 890.186 C 609.194 932.983, 609.362 968.450, 609.500 969 C 609.638 969.550, 609.806 977.133, 609.875 985.852 C 609.991 1000.523, 610.168 1001.953, 612.250 1005.043 C 618.350 1014.095, 637.513 1016.947, 647.727 1010.324 C 655.906 1005.020, 655.463 1008.621, 655.796 944.800 L 656.092 888.100 662.952 892.537 C 683.209 905.642, 715.678 908.006, 736.988 897.928 C 748.416 892.524, 768 875.903, 768 871.609 C 768 869.709, 764.972 868, 761.603 868 C 757.414 868, 748.595 864.201, 744.350 860.568 C 734.566 852.193, 731.009 839.869, 727.511 802.228 C 726.679 793.278, 725.531 783.869, 724.959 781.318 C 724.388 778.767, 724.275 776.358, 724.710 775.965 C 725.340 775.395, 750.053 760.342, 767.750 749.748 L 771 747.802 771.074 752.151 C 771.115 754.543, 771.293 757.400, 771.469 758.500 C 771.646 759.600, 772.070 771.300, 772.412 784.500 C 774.411 861.669, 778.350 933.122, 780.874 937.988 C 786.275 948.400, 813.800 950.414, 825.856 941.279 C 831.695 936.856, 832.329 933.840, 831.591 914 C 830.594 887.204, 826.142 738.141, 825.375 705.897 L 824.695 677.294 831.597 672.799 C 842.923 665.423, 842.500 666.419, 842.500 647.142 C 842.500 621.901, 840.871 620.423, 811 618.567 C 805.775 618.242, 788.675 617.108, 773 616.046 C 757.325 614.985, 736.175 613.577, 726 612.918 C 715.825 612.259, 707.356 611.601, 707.180 611.457 C 707.004 611.312, 707.825 609.302, 709.005 606.991 C 721.049 583.381, 711.483 536.026, 685.301 489.654 C 683.485 486.439, 682 483.696, 682 483.559 C 682 483.422, 684.587 484.194, 687.750 485.274 C 704.849 491.115, 726.969 487.031, 738.003 475.997 C 746.801 467.199, 746.493 462.355, 737.130 462.267 C 732.535 462.224, 729.936 461.552, 725.864 459.356 C 710.302 450.960, 706.872 431.622, 716 403.750 C 718.296 396.737, 720.284 391, 720.417 391 C 721.061 391, 719.717 407.469, 718.469 414.870 C 716.306 427.704, 718.172 429.463, 727.984 423.837 C 757.859 406.707, 767.015 361.540, 749.056 319.883 C 746.104 313.036, 745.565 311.028, 746.830 311.595 C 750.673 313.314, 764.807 313.225, 770.158 311.447 C 776.807 309.239, 785.326 301.100, 786.880 295.471 C 788.336 290.197, 787.236 289.245, 779.732 289.282 C 765.338 289.353, 753.671 278.186, 747.051 258 C 745.879 254.425, 743.793 242.500, 742.416 231.500 C 737.287 190.537, 730.756 170.779, 714.175 146.073 C 708.896 138.207, 696.707 124.880, 689.250 118.821 C 686.191 116.336, 686 115.800, 686 109.721 C 686 94.635, 679.966 73.278, 670.823 56 C 654.277 24.734, 626.581 1.517, 612 6.690 M 612.500 14.478 C 602.324 19.689, 591.561 40.119, 586.388 64.040 C 583.574 77.054, 583.808 103.948, 586.861 118.336 C 588.126 124.296, 588.861 129.471, 588.495 129.836 C 587.453 130.876, 582.970 125.099, 582.328 121.889 C 581.511 117.803, 580.655 118.277, 578.615 123.949 C 571.913 142.588, 548.307 165.833, 529.724 172.093 C 521.320 174.924, 520.072 173.709, 522.851 165.402 C 524.685 159.922, 527.316 141.079, 526.014 142.752 C 525.694 143.164, 523.647 146.187, 521.466 149.472 C 512.492 162.985, 500.619 173.557, 482.712 183.982 C 464.634 194.507, 458.414 201.742, 455.509 215.627 C 453.486 225.294, 451.626 226.064, 444.803 220.058 C 433.782 210.357, 429.827 186.489, 435.986 166.842 C 437.080 163.354, 437.980 160.403, 437.987 160.284 C 437.994 160.165, 434.203 163.114, 429.563 166.837 C 409.923 182.595, 383.552 192, 359.011 192 C 348.111 192, 348.723 191.578, 345.958 201 C 339.105 224.351, 338.867 245.058, 345.037 281.202 C 349.009 304.478, 349.092 313.815, 345.493 333 C 339.949 362.552, 344.170 377.174, 363.982 397.037 C 378.541 411.633, 397.621 421.966, 418.302 426.456 C 423.708 427.630, 419.625 423.538, 413.935 422.080 C 392.359 416.550, 372.021 396.534, 366.520 375.416 C 362.095 358.425, 366.183 343.385, 378.662 330.752 C 382.301 327.068, 383.755 325, 382.705 325 C 379.878 325, 374.281 318.365, 372.001 312.312 C 369.133 304.696, 369.472 290.031, 372.680 282.907 C 377.694 271.773, 389.053 268.118, 396.738 275.166 L 399.282 277.500 398.595 274.500 C 395.162 259.518, 382.485 247.681, 373.771 251.322 C 355.748 258.853, 354.023 297.380, 370.623 321.627 C 375.019 328.048, 375.231 329.135, 371.919 328.269 C 366.482 326.847, 357.395 312.018, 354.541 299.912 C 345.597 261.968, 370.270 228.459, 391.806 249.301 C 405.645 262.694, 411.895 297.766, 403.377 314.237 C 401.775 317.335, 401.841 317.391, 405.460 316.015 C 419.117 310.823, 450.052 312.287, 466.816 318.920 C 477.077 322.979, 488 331.341, 488 335.136 C 488 337.706, 486.557 337.477, 481.680 334.135 C 467.139 324.167, 454.493 320.681, 432.500 320.579 C 413.532 320.491, 407.704 321.559, 396.171 327.236 C 349.904 350.014, 374.754 412.546, 432.249 418.024 C 461.021 420.765, 488.252 406.788, 497.565 384.499 C 498.981 381.111, 498.960 381.027, 496.762 381.260 C 493.351 381.623, 493.142 377.608, 496.460 375.434 C 499.853 373.211, 505.900 374.006, 510.935 377.338 C 517.438 381.642, 516.551 387.529, 509.984 383.650 C 506.157 381.389, 506 381.475, 506 385.840 C 506 402.665, 492.178 427.902, 477.390 438.076 C 471.995 441.788, 461.038 446, 456.777 446 C 451.060 446, 455.223 447.756, 463.500 448.835 C 478.806 450.832, 486.041 449.127, 539 431.033 C 591.674 413.038, 611.776 401.759, 635.375 376.960 C 655.459 355.855, 667.905 330.320, 673.129 299.500 C 678.032 270.575, 675.112 224.271, 666.521 194.719 L 664.947 189.307 660.224 191.591 C 654.045 194.579, 654 193.795, 659.840 184.926 C 681.710 151.712, 685.497 111.791, 670.396 73.643 C 656.322 38.089, 626.301 7.410, 612.500 14.478 M 466.640 32.532 C 448.392 35.985, 426.680 46.235, 418 55.496 L 415.500 58.163 418.500 57.435 C 420.150 57.035, 422.609 56.298, 423.964 55.797 C 436.932 51.007, 472.796 51.291, 478.774 56.232 C 480.949 58.029, 479.596 58.195, 463.821 58.062 C 424.646 57.733, 398.458 67.310, 363.238 94.847 C 339.544 113.373, 329.285 119.315, 315.319 122.602 C 306.419 124.696, 294.150 124.045, 287.556 121.128 L 282.775 119.013 283.481 123.720 C 285.859 139.576, 300.286 153.237, 317.598 156.024 C 340.111 159.649, 362.861 149.770, 389.597 124.761 C 396.208 118.576, 398.413 117.878, 395.943 122.752 C 393.605 127.365, 375.945 144.339, 368.167 149.447 C 350.206 161.245, 328.530 165.798, 310.508 161.559 C 307.213 160.784, 304.345 160.322, 304.135 160.532 C 303.925 160.742, 306.396 163.533, 309.627 166.735 C 330.286 187.211, 369.862 190.562, 403.400 174.674 C 421.270 166.209, 432.645 156.616, 443.923 140.500 C 450.059 131.732, 458.628 122, 460.212 122 C 461.508 122, 461.105 125.406, 459.546 127.631 C 453.709 135.964, 444.213 160.315, 441.415 174.122 C 438.564 188.191, 441.031 205.917, 446.718 212.232 C 448.162 213.836, 448.441 213.495, 450.492 207.625 C 454.941 194.892, 461.522 188.102, 479.173 178.036 C 504.161 163.785, 518.135 148.090, 528.426 122.719 C 533.770 109.545, 535.488 108.822, 534.597 120.124 C 534.234 124.731, 533.497 135.025, 532.959 143 C 532.421 150.975, 531.583 159.188, 531.096 161.250 C 529.965 166.041, 530.210 166.001, 539.612 159.864 C 554.865 149.906, 567.542 134.418, 574.116 117.709 C 577.297 109.623, 577.348 109.230, 577.522 91.500 C 577.619 81.600, 578.018 72.353, 578.408 70.950 C 580.192 64.531, 553.278 46.187, 530.500 38.298 C 511.562 31.740, 483.989 29.250, 466.640 32.532 M 340.353 34.772 C 329.929 43.162, 328.049 84.946, 337.301 102.604 L 338.544 104.977 347.022 98.479 C 371.420 79.779, 376.381 76.142, 382.131 72.741 C 385.577 70.702, 388.869 68.853, 389.448 68.632 C 390.027 68.410, 386.225 63.876, 381 58.556 C 360.108 37.283, 346.863 29.533, 340.353 34.772 M 622 65.878 C 622 66.910, 622.752 68.373, 623.672 69.128 C 626.507 71.455, 633.579 83.161, 636.281 90 C 642.974 106.937, 643.900 133.423, 638.550 154.897 C 637.126 160.615, 636.174 165.508, 636.437 165.770 C 639.110 168.444, 644.171 158.299, 646.549 145.500 C 650.536 124.037, 647.133 97.580, 638.194 80.537 C 632.297 69.294, 622 59.972, 622 65.878 M 686.534 133.530 C 684.905 148.740, 678.473 169.072, 672.339 178.398 L 669.776 182.296 672.360 190.898 C 678.681 211.936, 681.935 233.693, 682.698 260.026 C 683.667 293.499, 679.956 314.723, 668.452 341.500 C 657.529 366.924, 658.030 392.294, 670.001 419.891 C 672.737 426.198, 674.811 431.522, 674.611 431.723 C 673.645 432.689, 665.477 421.756, 662.425 415.412 C 656.733 403.577, 654.784 394.448, 654.686 379.164 L 654.600 365.829 652.553 368.664 C 651.428 370.224, 646.793 375.623, 642.253 380.663 L 634 389.826 634.011 397.163 C 634.031 410.669, 637.506 418.112, 655.658 443.526 C 662.740 453.441, 669.834 463.608, 671.423 466.120 C 682.117 483.024, 719.934 485.991, 733.508 470.991 C 735.268 469.046, 735.242 469, 732.405 468.990 C 730.807 468.985, 727.221 467.919, 724.435 466.622 C 703.421 456.837, 698.366 432.732, 710.147 398.500 C 718.778 373.424, 717.269 347.350, 705.409 316.614 C 704.880 315.241, 705.065 314.850, 706.091 315.177 C 709.682 316.325, 717.884 336.920, 720.435 351.197 C 726.423 384.703, 727.958 405.041, 725.208 414.444 C 724.573 416.613, 724.240 418.574, 724.468 418.801 C 724.696 419.029, 728.173 415.904, 732.196 411.858 C 744.743 399.237, 749.908 386.716, 750.730 366.927 C 751.567 346.800, 748.851 336.085, 736.052 309 C 722.591 280.517, 720.204 273.307, 713.377 240.500 C 710.859 228.400, 708.593 218.162, 708.341 217.750 C 708.088 217.338, 708.384 217, 708.997 217 C 710.686 217, 713.608 224.379, 717.567 238.641 C 728.353 277.495, 735.491 296.009, 741.406 300.470 C 751.695 308.230, 766.848 307.995, 775.377 299.943 L 779.500 296.050 775.500 296.015 C 766.972 295.941, 754.686 287.419, 747.930 276.891 C 741.097 266.243, 737.381 253.094, 734.537 229.500 C 729.333 186.326, 715.745 154.705, 692.710 132.159 L 687.253 126.818 686.534 133.530 M 541.533 188.119 C 536.952 189.204, 533 192.503, 533 195.242 C 533 196.780, 533.421 196.982, 535.250 196.317 C 536.487 195.868, 541.325 195.508, 546 195.517 C 556.027 195.538, 562.501 198.053, 570.233 204.930 C 575.070 209.233, 577.597 209.533, 576.425 205.666 C 573.115 194.752, 554.036 185.157, 541.533 188.119 M 364.500 204.153 C 355.010 209.051, 345.173 223, 351.209 223 C 351.809 223, 354.479 220.726, 357.144 217.947 C 363.808 210.997, 371.456 207.561, 378.619 208.300 C 384.706 208.928, 385.545 207.800, 381.686 204.174 C 378.575 201.252, 370.141 201.241, 364.500 204.153 M 542.045 232.092 C 516.181 237.162, 500.457 272.096, 509.001 305.504 C 515.319 330.206, 534.813 339.609, 550.087 325.322 C 557.632 318.265, 559.459 312.949, 559.481 298 C 559.502 284.099, 557.689 278.563, 550.681 271.124 C 544.349 264.403, 532.446 261.649, 525.425 265.280 C 521.980 267.061, 514 275.349, 514 277.144 C 514 277.798, 513.793 278.127, 513.541 277.874 C 512.662 276.995, 516.180 265.586, 519.137 259.729 C 535.262 227.785, 574.847 234.685, 584.547 271.131 C 586.474 278.371, 586.395 292.308, 584.388 299.068 C 579.975 313.931, 572.262 323.332, 559.015 329.993 C 549.452 334.801, 549.278 336.034, 558.515 333.533 C 575.300 328.990, 587.315 315.457, 591.578 296.292 C 599.489 260.735, 572.747 226.074, 542.045 232.092 M 539 273.716 C 533.858 275.562, 530.711 282.634, 533.026 287.145 C 537.102 295.090, 546.272 294.767, 548.973 286.583 C 551.229 279.745, 544.912 271.595, 539 273.716 M 387.711 280.767 C 381.610 287.508, 387.990 299.019, 395.577 294.959 C 401.899 291.576, 399.933 279.789, 392.949 279.201 C 390.475 278.994, 388.886 279.469, 387.711 280.767 M 382.923 352.144 C 381.228 355.310, 382.453 362.139, 385.100 364.282 C 387.622 366.325, 390.713 366.113, 390.081 363.941 C 389.850 363.148, 389.493 360.700, 389.287 358.500 C 388.627 351.458, 388.066 350, 386.016 350 C 384.946 350, 383.554 350.965, 382.923 352.144 M 453.500 351.167 C 449.427 353.420, 447.023 356.416, 445.422 361.233 C 443.334 367.520, 444.741 369.685, 448.196 365.500 C 454.161 358.273, 455.824 357, 459.301 357 C 461.201 357, 463.311 357.670, 463.991 358.489 C 465.673 360.516, 467 359.461, 467 356.096 C 467 350.823, 459.243 347.991, 453.500 351.167 M 623.907 397.612 C 621.275 400.784, 598.296 415.285, 587.480 420.600 C 577.346 425.581, 528.658 442.922, 500.500 451.580 C 481.603 457.390, 466.919 458.352, 455.989 454.496 L 451.690 452.979 430.595 473.762 C 389.651 514.098, 380.975 519.674, 347.711 527.020 C 339.617 528.808, 338.006 529.469, 338.405 530.841 C 338.670 531.753, 339.619 535.087, 340.514 538.250 C 342.352 544.741, 342.165 544.593, 345.653 542.308 C 351.502 538.475, 364.017 541.679, 369.759 548.479 C 379.310 559.791, 377.929 576.731, 366.646 586.662 L 362.004 590.749 363.009 596.048 C 363.562 598.963, 364.244 601.577, 364.525 601.858 C 366.256 603.589, 397.551 592.996, 413 585.450 C 432.026 576.156, 433 575.314, 433 568.169 C 433 543.918, 445.614 488.321, 451.375 487.176 C 454.437 486.568, 454.212 489.998, 450.156 505.748 C 443.471 531.713, 440.603 551.478, 439.375 580.057 L 438.706 595.614 456.103 597.448 C 465.671 598.456, 478.474 599.489, 484.553 599.742 L 495.607 600.203 501.222 593.352 C 507.480 585.715, 514.539 579.341, 524.103 572.690 C 541.652 560.486, 557.012 555.853, 594.500 551.454 C 602.750 550.486, 609.622 549.603, 609.772 549.492 C 610.056 549.281, 604.416 533.257, 598.383 517.130 C 594.838 507.655, 594.648 505, 597.514 505 C 599.628 505, 607.269 521.729, 615.441 544.249 L 617.165 548.998 622.332 548.403 C 633.178 547.155, 652.416 550.899, 650.563 553.898 C 650.288 554.344, 642.286 554.963, 632.781 555.275 C 609.848 556.026, 572.646 561.072, 556 565.688 C 533.093 572.042, 507.428 592.241, 497.943 611.382 C 490.772 625.855, 491.383 632.709, 500.384 638.750 C 506.729 643.009, 507 642.924, 507 636.682 C 507 624.266, 514.721 609.624, 525.037 602.474 C 532.146 597.548, 531.891 601.190, 524.574 609.094 C 515.676 618.705, 510.153 632.556, 511.853 641 C 512.653 644.974, 517.036 646.989, 529.167 648.957 C 552.308 652.712, 586.428 644.307, 606.469 629.915 L 610.932 626.710 621.002 627.855 C 653.467 631.547, 685.413 625.141, 696.668 612.682 C 713.841 593.674, 709.568 554.631, 684.902 505.168 C 673.443 482.188, 667.988 473.267, 649.637 447.502 C 631.558 422.118, 627.538 413.863, 626.869 400.750 C 626.610 395.672, 626.028 395.056, 623.907 397.612 M 493.741 402.987 C 484.208 416.315, 463.167 425.314, 441.254 425.433 C 434.519 425.470, 429.006 425.757, 429.004 426.070 C 428.992 427.696, 436.757 435.357, 440.357 437.272 C 447.140 440.880, 459.624 440.446, 467.540 436.326 C 478.836 430.448, 488.869 419.328, 494.630 406.301 C 497.706 399.347, 497.335 397.963, 493.741 402.987 M 289.009 455.228 C 282.728 458.406, 281.187 461.510, 282.833 467.665 C 284.469 473.784, 284.355 473.720, 288.078 470.587 C 292.295 467.040, 297.403 465, 302.071 465 L 305.898 465 304.364 461.250 C 301.202 453.516, 296.239 451.570, 289.009 455.228 M 298.239 472.335 C 294.120 473.829, 288 478.662, 288 480.421 C 288 481.155, 288.686 483.398, 289.525 485.405 L 291.050 489.054 294.775 486.136 C 298.845 482.948, 304.229 480.917, 308.965 480.782 C 310.634 480.734, 312 480.576, 312 480.431 C 312 480.285, 311.116 478.104, 310.036 475.583 C 307.863 470.515, 305.245 469.794, 298.239 472.335 M 305.877 487.820 C 304.497 488.398, 306.444 494.003, 318.877 525.235 C 326.920 545.440, 333.837 561.977, 334.250 561.985 C 334.663 561.993, 335 560.857, 335 559.460 C 335 558.063, 335.870 555.215, 336.933 553.131 L 338.866 549.342 334.578 538.421 C 332.219 532.414, 326.737 518.389, 322.395 507.254 L 314.500 487.008 311 487.074 C 309.075 487.111, 306.770 487.446, 305.877 487.820 M 297.707 491.682 C 295.668 493.132, 294 494.805, 294 495.398 C 294 495.991, 300.606 513.132, 308.681 533.488 L 323.362 570.500 329.789 577 C 333.324 580.575, 335.906 582.600, 335.527 581.500 C 335.148 580.400, 334.216 576.350, 333.455 572.500 C 332.660 568.474, 325.560 549.256, 316.744 527.272 L 301.415 489.044 297.707 491.682 M 297.643 537.466 C 266.814 556.149, 260.696 598.925, 286.177 617.630 C 303.125 630.071, 327.531 632.707, 332.139 622.594 C 333.665 619.246, 331.531 613.572, 329.107 614.533 C 317.714 619.050, 295.742 608.004, 288.582 594.159 C 285.236 587.689, 289.308 587.116, 293.835 593.419 C 304.916 608.849, 327.627 614.356, 333.483 603.033 C 336.631 596.945, 335.380 594.049, 323.913 580.885 C 313.541 568.980, 307.811 557.777, 311.390 556.404 C 312.448 555.998, 311.577 553.556, 307.743 546.185 C 301.435 534.056, 302.192 534.709, 297.643 537.466 M 346.027 548.971 C 338.465 557.066, 339.629 578.171, 347.872 582.434 C 363.561 590.547, 377.546 566.498, 365.479 552.158 C 359.648 545.228, 350.868 543.789, 346.027 548.971 M 421.500 589.096 L 412.500 593.927 417.610 593.964 C 420.421 593.984, 424.809 594.286, 427.360 594.636 L 432 595.272 432 589.636 C 432 586.536, 431.663 584.059, 431.250 584.132 C 430.837 584.205, 426.450 586.438, 421.500 589.096 M 339.149 589.528 C 342.404 595.044, 341.695 603.363, 337.319 611 C 337.161 611.275, 337.409 612.095, 337.869 612.821 C 338.524 613.855, 339.725 613.496, 343.388 611.173 C 345.963 609.540, 350.447 607.239, 353.352 606.060 L 358.634 603.916 357.179 597.958 C 355.776 592.215, 355.607 592, 352.502 592 C 350.731 592, 346.631 590.656, 343.391 589.013 C 340.151 587.370, 337.403 586.020, 337.284 586.013 C 337.165 586.006, 338.004 587.588, 339.149 589.528 M 249 594.987 C 246.525 595.424, 242.025 596.898, 239 598.263 C 233.607 600.696, 115.065 658.064, 91.543 669.624 L 79.586 675.500 86.543 676.217 C 107.050 678.329, 230.944 689.527, 311.500 696.548 C 339.248 698.966, 415.746 705.961, 426 707.017 C 447.963 709.279, 560.484 719.572, 623 725.038 C 642.550 726.747, 660.429 727.854, 662.794 727.503 C 666.039 727.020, 681.198 718.369, 724.794 692.119 C 795.497 649.549, 831.117 627.784, 830.726 627.393 C 830.448 627.114, 781.642 623.739, 731 620.495 C 718.625 619.702, 706.965 618.833, 705.090 618.564 C 702.307 618.164, 701.029 618.645, 698.137 621.184 C 690.476 627.911, 675.361 632.970, 656.628 635.078 L 646.207 636.251 647.653 639.711 C 650.543 646.630, 647.560 650.773, 632.500 660.754 C 612.758 673.839, 557.921 705.187, 552.217 706.649 C 550.961 706.970, 544.211 706.282, 537.217 705.119 C 507.980 700.259, 464.915 695.102, 419.733 691.052 L 397.966 689.101 391.733 692.091 C 386.561 694.572, 384.734 694.975, 381 694.458 C 375.753 693.731, 368.389 690.692, 365.512 688.065 C 363.286 686.032, 315.485 681.589, 262.500 678.489 C 225.653 676.334, 219.307 675.619, 216.147 673.266 C 209.521 668.334, 211.140 661.818, 219.713 658.913 C 222.580 657.942, 226.855 655.828, 229.213 654.216 C 231.571 652.605, 242.275 645.990, 253 639.518 C 263.725 633.045, 274.190 626.416, 276.256 624.786 L 280.013 621.822 275.873 617.161 C 271.999 612.798, 265 600.044, 265 597.346 C 265 595.121, 255.867 593.775, 249 594.987 M 381 604.724 C 372.475 607.207, 365.453 609.298, 365.394 609.370 C 365.336 609.441, 365.909 614.225, 366.668 620 C 368.564 634.438, 368.116 647.912, 365.690 649.394 C 363.746 650.582, 355.773 643.095, 344.412 629.413 L 339.357 623.325 337.228 627.025 C 331.482 637.009, 310.280 637.813, 291.948 628.742 L 285.396 625.500 279.421 630.038 C 276.135 632.534, 266.129 639.005, 257.186 644.418 C 248.244 649.831, 241.056 654.337, 241.213 654.432 C 241.371 654.526, 247.350 654.281, 254.500 653.887 C 292.901 651.769, 338.845 657.657, 373.626 669.154 L 382.751 672.170 396.126 662.214 C 416.163 647.299, 448.718 626.433, 471 614.223 C 483.806 607.206, 483.775 607.485, 471.895 606.125 C 453.824 604.054, 419.936 601.166, 408 600.678 C 396.686 600.216, 396.249 600.281, 381 604.724 M 484.175 613.032 C 480.696 615.239, 470.571 621.235, 461.675 626.357 C 438.830 639.509, 395.246 667.634, 396.255 668.571 C 396.390 668.696, 398.975 668.353, 402 667.809 C 410.813 666.223, 439.090 666.521, 453.131 668.348 C 466.757 670.122, 488.792 674.236, 523.274 681.447 C 535.250 683.951, 546.455 686, 548.174 686 C 553.555 686, 593.034 664.322, 619.837 646.649 C 633.842 637.415, 633.836 637.564, 620.269 634.971 L 614.038 633.781 608.769 637.263 C 577.485 657.939, 533.936 662.907, 504.578 649.150 C 486.705 640.774, 482.739 632.074, 488.858 614.664 C 489.953 611.549, 490.770 609.004, 490.674 609.010 C 490.578 609.015, 487.654 610.825, 484.175 613.032 M 356 611.937 C 351.672 613.262, 342.853 618.065, 343.184 618.917 C 343.358 619.366, 346.671 623.116, 350.548 627.251 C 356.946 634.076, 357.767 634.644, 359.458 633.407 C 361.017 632.267, 361.289 630.856, 361.122 624.772 C 360.896 616.553, 360.085 610.959, 359.139 611.086 C 358.787 611.133, 357.375 611.516, 356 611.937 M 824.500 637.730 C 819.550 640.800, 799.525 652.988, 780 664.814 C 659.530 737.785, 668.306 732.887, 657.895 732.956 C 652.427 732.992, 551.899 724.483, 516.500 720.988 C 495.887 718.952, 352.613 705.788, 304 701.464 C 206.329 692.774, 163.106 688.853, 122 684.953 C 99.175 682.787, 79.713 681.012, 78.750 681.008 C 77.177 681.001, 77.002 682.241, 77.015 693.250 C 77.024 699.987, 77.370 706.034, 77.786 706.687 C 79.699 709.697, 83.437 710.234, 142.500 715.979 C 165.050 718.173, 187.775 720.438, 193 721.013 C 198.225 721.589, 240.075 725.880, 286 730.550 C 331.925 735.220, 387.275 740.853, 409 743.069 C 430.725 745.285, 468.300 749.108, 492.500 751.566 C 516.700 754.024, 557.425 758.255, 583 760.969 C 656.027 768.717, 659.560 768.856, 668.383 764.307 C 671.915 762.486, 708.317 740.273, 758.500 709.316 C 777.200 697.781, 801.950 682.575, 813.500 675.526 C 825.050 668.478, 834.831 662.213, 835.235 661.605 C 836.908 659.088, 835.885 631.865, 834.125 632.074 C 833.781 632.115, 829.450 634.660, 824.500 637.730 M 631 645.649 C 621.856 652.350, 597.250 667.110, 570.734 681.800 C 551.479 692.468, 550.859 692.729, 546.734 691.895 C 544.405 691.424, 528.550 688.131, 511.500 684.576 C 461.419 674.135, 446.551 672, 423.919 672 C 407.769 672, 394.416 673.854, 387.646 677.036 L 383.362 679.050 377.659 676.528 C 364.943 670.904, 338.904 664.648, 315 661.473 C 299.288 659.386, 256.129 658.422, 244.261 659.893 C 234.165 661.144, 220.870 664.889, 220.285 666.646 C 219.650 668.551, 222.430 668.937, 247.803 670.470 C 281.086 672.480, 309.850 674.567, 337.500 676.980 C 350.150 678.084, 361.695 678.990, 363.155 678.993 C 364.708 678.997, 367.516 680.425, 369.917 682.431 C 372.532 684.616, 375.978 686.299, 379.404 687.066 C 384.643 688.238, 384.933 688.185, 390.444 685.032 L 396.103 681.795 420.301 683.928 C 469.821 688.295, 527.629 695.321, 545.578 699.156 L 550.657 700.241 567.578 690.958 C 602.216 671.955, 635.759 651.324, 640.330 646.213 C 641.799 644.569, 641.940 643.757, 641.045 642.083 C 639.574 639.335, 639.658 639.305, 631 645.649 M 804.822 689.190 L 793.144 696.326 793.716 710.457 C 794.601 732.294, 794.350 733.178, 785.679 738.724 C 781.730 741.249, 778.361 743.421, 778.191 743.550 C 777.716 743.911, 780.831 835.610, 782.520 871 C 784.996 922.845, 785.873 934.203, 787.545 936.050 C 792.736 941.786, 815.429 941.163, 822.215 935.099 L 825.228 932.407 823.598 879.453 C 822.701 850.329, 821.315 804.225, 820.518 777 C 819.721 749.775, 818.833 722.550, 818.544 716.500 C 818.255 710.450, 818.014 700.212, 818.009 693.750 C 818.004 687.288, 817.663 682.012, 817.250 682.027 C 816.837 682.042, 811.245 685.265, 804.822 689.190 M 756 719.197 C 672.288 770.897, 669.761 772.356, 660.945 774.091 L 654.908 775.278 655.575 791.889 C 655.941 801.025, 656.343 808.618, 656.467 808.763 C 656.591 808.908, 669.474 801.230, 685.096 791.701 C 700.718 782.173, 730.011 764.357, 750.192 752.110 C 770.373 739.864, 787.373 729.256, 787.970 728.536 C 788.669 727.694, 788.957 722.218, 788.778 713.176 L 788.500 699.125 756 719.197 M 107.994 734.108 C 107.990 742.023, 107.705 795.750, 107.359 853.500 L 106.731 958.500 108.798 961.071 C 113.886 967.403, 133.671 967.980, 141.250 962.018 C 144.287 959.629, 144.399 958.620, 146.521 914.500 C 148.083 882.024, 153 767.451, 153 763.530 C 153 761.458, 152.407 761.200, 146.250 760.593 C 142.537 760.227, 138.961 759.594, 138.302 759.187 C 137.486 758.683, 136.880 752.662, 136.404 740.354 L 135.706 722.263 127.603 721.589 C 123.146 721.218, 116.912 720.644, 113.750 720.315 L 108 719.715 107.994 734.108 M 141 737.441 C 141 745.847, 141.412 752.136, 141.985 752.491 C 142.527 752.826, 148.715 753.752, 155.735 754.549 C 283.910 769.104, 605.145 804.994, 607.274 804.997 C 608.914 805, 609.027 803.703, 608.774 787.750 L 608.500 770.500 595.500 769.257 C 588.350 768.573, 567.425 766.435, 549 764.505 C 530.575 762.576, 488.950 758.316, 456.500 755.039 C 424.050 751.762, 368.925 746.150, 334 742.567 C 232.845 732.191, 142.335 723, 141.312 723 C 141.140 723, 141 729.498, 141 737.441 M 662.014 747.177 C 662.030 759.247, 662.613 762.220, 664.879 761.787 C 668.393 761.116, 667.285 737.871, 663.706 737.182 C 662.186 736.889, 662.001 737.980, 662.014 747.177 M 615.639 866.261 C 616.170 992.408, 616.292 999.442, 617.993 1001.492 C 624.554 1009.397, 643.634 1009.046, 647.733 1000.945 C 648.694 999.046, 648.974 973.544, 648.985 886.769 L 649 775.038 646.750 774.564 C 645.513 774.303, 638.875 773.599, 632 773 C 625.125 772.401, 618.541 771.711, 617.369 771.466 L 615.238 771.022 615.639 866.261 M 286.344 789.106 C 286.689 796.473, 287.260 820.275, 287.612 842 C 287.963 863.725, 288.641 882.251, 289.118 883.170 C 291.858 888.448, 313.132 889.371, 318.841 884.460 L 321.500 882.173 321.500 831.245 L 321.500 780.318 306 778.584 C 297.475 777.631, 289.423 776.595, 288.107 776.281 L 285.715 775.712 286.344 789.106 M 700.614 790.321 L 683.728 800.500 684.373 817 C 685.548 847.076, 689.196 860.328, 699.435 871.716 C 711.751 885.415, 732.485 889.292, 749 880.985 C 752.025 879.464, 755.292 877.342, 756.259 876.270 C 757.968 874.378, 757.897 874.286, 753.759 873.072 C 735.228 867.631, 726.255 851.317, 722.541 816.310 C 719.870 791.131, 718.990 784.146, 718.231 782.108 C 717.566 780.321, 715.972 781.064, 700.614 790.321 M 356.575 790.059 C 352.797 802.780, 353.596 816.841, 359.080 834.130 L 362.134 843.760 355.229 857.630 C 343.984 880.217, 338.409 893.839, 339.621 895.761 C 341.369 898.532, 352.062 903.756, 360.456 905.940 C 381.985 911.540, 410.323 910.901, 427.732 904.423 C 431.414 903.053, 432.106 902.306, 433.059 898.674 C 433.662 896.378, 436.356 886.625, 439.047 877 C 445.893 852.507, 446.723 846.993, 445.101 836.750 C 442.369 819.490, 442.847 804.996, 446.446 795.945 C 446.983 794.594, 441.380 793.768, 403.782 789.656 C 379.977 787.053, 359.955 784.940, 359.289 784.961 C 358.623 784.983, 357.401 787.277, 356.575 790.059 M 486.544 799.930 C 486.228 800.441, 485.690 807.078, 485.349 814.680 C 484.575 831.919, 485.964 843.004, 490.682 857.250 L 494.243 867.999 487.703 882.250 C 476.560 906.531, 473.449 915.733, 475.584 918.093 C 478.427 921.234, 488.786 925.794, 498.500 928.179 C 511.655 931.409, 543.686 931.410, 555.406 928.181 C 568.235 924.645, 569.289 923.732, 570.680 914.949 C 571.328 910.852, 573.552 898.902, 575.622 888.393 L 579.385 869.285 577.059 856.605 C 574.401 842.114, 574.536 823.520, 577.365 814.547 C 578.224 811.822, 578.831 809.497, 578.713 809.380 C 578.514 809.181, 489.308 798.992, 487.809 798.997 C 487.429 798.999, 486.860 799.418, 486.544 799.930 M 666.250 811.324 L 656 817.491 656 847.609 L 656 877.726 660.874 882.285 C 675.655 896.112, 705.442 901.700, 726.750 894.645 C 731.288 893.142, 735 891.747, 735 891.543 C 735 891.340, 732.021 891.151, 728.380 891.123 C 696.906 890.882, 678.514 864.624, 677.882 819.026 C 677.817 814.337, 677.479 809.298, 677.132 807.828 L 676.500 805.157 666.250 811.324 M 334.576 905.888 C 328.865 923.533, 327.849 932.267, 331.038 936.321 C 341.350 949.431, 389.455 952.986, 413.079 942.384 C 422.053 938.357, 423.614 936.116, 426.971 922.447 C 428.577 915.908, 429.758 910.425, 429.596 910.262 C 429.433 910.099, 425.295 910.980, 420.400 912.219 C 412.597 914.193, 408.973 914.470, 391 914.467 C 367.007 914.462, 359.422 913.016, 344.785 905.657 L 336.069 901.276 334.576 905.888 M 468.659 933.720 C 464.739 949.595, 464.972 953.964, 469.963 958.236 C 485.153 971.238, 530.667 972.658, 554.825 960.883 C 563.627 956.593, 565.668 952.728, 567.850 936.204 C 568.583 930.651, 568.494 929.983, 567.091 930.540 C 555.288 935.224, 531.938 937.674, 514.832 936.024 C 497.106 934.315, 486.217 931.077, 471.911 923.262 C 471.586 923.085, 470.123 927.791, 468.659 933.720" stroke="none" fill="#1a1a1a" fill-rule="evenodd"/>
</svg>