<svg xmlns="http://www.w3.org/2000/svg" width="1024" height="1024" viewBox="0 0 1024 1024" version="1.1">
	<path d="M 306 44.693 C 239.774 55.825, 212.657 137.190, 258.592 186.944 C 264.337 193.167, 275.447 201.286, 281.843 203.935 C 285.985 205.650, 285.968 205.745, 279.071 220.133 C 261.402 256.986, 251.672 298.019, 251.595 336 C 251.534 366.516, 254.970 383.992, 265.102 404.683 C 270.563 415.838, 283.084 433.437, 288.493 437.562 L 291.922 440.178 291.984 449.339 C 292.019 454.377, 292.149 459.579, 292.274 460.899 C 292.450 462.772, 291.843 463.511, 289.500 464.270 C 281.820 466.759, 275 477.884, 275 487.923 C 275 499.541, 282.112 510.513, 292.101 514.305 C 297.529 516.366, 298.396 517.920, 299.994 528.460 C 301.370 537.540, 302.017 536.613, 290.201 542.516 C 247.014 564.092, 236.380 628.293, 270.027 664.322 C 278.998 673.928, 289.125 680.747, 300.024 684.520 C 307.781 687.205, 309.711 687.462, 322.770 687.547 C 330.618 687.598, 337.455 688.058, 337.962 688.570 C 338.469 689.081, 339.379 700.075, 339.983 713 C 341.368 742.642, 344.720 792.991, 346.008 803.500 C 348.390 822.948, 350.962 851.743, 351.597 866.080 L 352.287 881.660 347.394 885.571 C 325.030 903.442, 314.762 921.004, 316.353 938.664 C 318.661 964.274, 344.659 976, 399.134 976 C 433.470 976, 455.090 972.266, 467.612 964.172 C 484.844 953.035, 490.218 938.621, 494.518 892 C 496.528 870.202, 499.692 844.308, 500.505 842.991 C 500.864 842.410, 507.088 842, 515.540 842 C 532.190 842, 530.088 840.216, 532.039 856 C 532.685 861.225, 534.508 872.700, 536.091 881.500 C 539.602 901.021, 539.610 901.486, 536.510 905.171 C 527.563 915.803, 519.811 935.390, 519.868 947.220 C 520 974.829, 543.931 986.089, 599.500 984.691 C 641.720 983.628, 668.324 971.627, 678.991 948.834 C 683.718 938.732, 684.753 929.998, 686.972 881.500 C 688.104 856.750, 689.474 831.809, 690.015 826.076 C 690.557 820.343, 691 812.545, 691 808.747 L 691 801.841 694.250 802.565 C 700.708 804.004, 722.723 803.094, 733.285 800.952 C 770.412 793.422, 805.391 772.207, 823.891 746 C 844.922 716.207, 850.196 686.456, 844.985 627 C 843.570 610.852, 844.291 586.695, 846.417 579 C 847.253 575.975, 851.784 565.850, 856.486 556.500 C 865.887 537.805, 867.579 531.867, 866.669 520.756 C 863.878 486.655, 824.116 478.083, 794.520 505.203 C 770.266 527.427, 762.901 562.028, 770.405 618.500 C 774.023 645.729, 773.861 675.637, 770.032 687.500 C 766.529 698.350, 763.230 703.997, 756.745 710.246 C 750.398 716.361, 747.248 717.692, 748.456 713.750 C 748.836 712.513, 749.390 702.500, 749.688 691.500 C 751.116 638.807, 737.183 585.260, 710.342 540.278 C 703.166 528.253, 696.935 519.833, 680.674 500.190 C 673.703 491.770, 668 484.540, 668 484.124 C 668 483.708, 670.785 482.047, 674.188 480.434 C 718.929 459.223, 752.056 421.101, 762.897 378.348 C 767.672 359.521, 770.219 318.672, 767.782 300 C 764.299 273.301, 758.238 250.391, 749.300 230.130 C 742.623 214.995, 742.673 214.657, 752.291 209.743 C 795.802 187.515, 810.603 126.880, 782.882 84.417 C 748.817 32.235, 677.247 35.376, 638.593 90.750 C 635.425 95.287, 632.619 99, 632.356 99 C 632.093 99, 628.082 97.213, 623.443 95.030 C 594.199 81.265, 557.733 73.527, 516.458 72.328 C 477.514 71.196, 443.390 77.045, 410.178 90.544 C 402.655 93.602, 396.050 96.279, 395.500 96.493 C 394.950 96.707, 392.834 93.403, 390.798 89.151 C 376.425 59.140, 338.461 39.236, 306 44.693 M 316.500 53.722 C 281.412 55.955, 252.180 83.647, 247.847 118.757 C 243.482 154.124, 261.900 184.412, 296.264 198.380 C 300.976 200.295, 301.728 202.163, 299.217 205.715 C 291.324 216.875, 273 261.509, 273 269.575 C 273 272.561, 300.851 288.282, 312.015 291.597 C 318.018 293.380, 318.254 294.859, 313.106 298.427 C 304.543 304.361, 285.374 305.355, 272.623 300.526 C 268.840 299.093, 265.640 298.052, 265.511 298.211 C 263.136 301.138, 259.487 343.942, 261.603 344.043 C 289.187 345.358, 308.459 345.657, 312.888 344.841 C 317.257 344.035, 318.553 344.125, 319.741 345.312 C 325.843 351.414, 303.136 363.790, 273.500 370.515 C 269.100 371.513, 265.355 372.438, 265.178 372.571 C 264.437 373.123, 271.189 392.822, 273.380 396.500 C 274.691 398.700, 277.277 403.425, 279.126 407 C 282.810 414.120, 294.013 426.487, 296.155 425.797 C 296.895 425.558, 299.666 422.469, 302.313 418.932 C 324.653 389.079, 363.208 378.612, 394.225 393.979 L 399.950 396.815 398.323 393.158 C 393.592 382.518, 390.544 362.349, 393.196 359.233 C 394.007 358.280, 395.245 356.049, 395.946 354.275 C 397.190 351.131, 405.695 342.362, 406.612 343.279 C 406.865 343.532, 405.931 348.028, 404.536 353.270 C 399.513 372.149, 402.407 384.771, 414.260 395.679 C 427.129 407.522, 446.387 408.296, 455.993 397.355 C 460.030 392.757, 460.523 390.028, 459.019 380.576 C 457.355 370.113, 456.907 369.376, 450.473 366.531 C 440.304 362.033, 422.067 346.831, 418.406 339.800 C 411.758 327.032, 427.103 320.541, 464 320.515 C 499.152 320.489, 513.252 326.196, 508.538 338.539 C 505.285 347.059, 489.343 361.823, 476.362 368.341 C 469.908 371.581, 468.618 374.565, 470.131 382.752 C 472.908 397.773, 483.763 405.796, 502.644 406.783 C 522.129 407.802, 532.060 401.103, 539.122 382.174 C 542.354 373.509, 543.073 372.571, 545.816 373.442 C 552.921 375.697, 547.839 394.553, 537.020 406.077 C 531.655 411.791, 525.380 414.834, 514.500 416.999 L 506.500 418.590 505.804 424.852 C 504.861 433.348, 502.572 440.906, 497.935 450.844 C 486.348 475.677, 467.249 490.152, 445.808 490.353 C 440.086 490.406, 438.975 490.712, 438.149 492.458 C 437.618 493.581, 435.768 497.650, 434.039 501.500 C 432.181 505.637, 429.014 510.417, 426.297 513.187 C 421.086 518.499, 419.141 523.666, 388.528 613.500 C 367.737 674.512, 366.211 678.782, 363.223 684.304 C 360.905 688.587, 356.160 693.659, 351.811 696.500 C 350.451 697.388, 350.410 700.573, 351.438 725 L 352.595 752.500 359.047 764.957 C 364.826 776.115, 366.669 778.642, 376.727 789.196 C 387.594 800.598, 389.908 804.192, 388.590 807.626 C 387.422 810.671, 381.799 808.418, 368.851 799.716 L 356.221 791.229 356.602 794.864 C 356.811 796.864, 357.462 803.450, 358.048 809.500 C 359.167 821.039, 361.268 829.946, 363.774 833.776 C 367.033 838.754, 388.745 846.764, 401.989 847.873 C 408.064 848.382, 409.542 848.834, 409.816 850.272 C 410.333 852.977, 404.014 858.648, 398.940 860.032 C 393.243 861.586, 375.433 860.691, 368.151 858.485 C 365.210 857.593, 362.715 857.007, 362.608 857.182 C 362.118 857.983, 363.711 884.723, 364.306 885.686 C 365.185 887.108, 363.560 888.380, 356.104 892.106 C 340.776 899.766, 324.678 923.956, 326.393 936.753 C 327.462 944.736, 332.298 951.485, 340 955.748 L 343.500 957.685 343.500 948.040 C 343.500 936.960, 347.126 927.731, 353.772 921.895 C 360.904 915.633, 363.017 920.234, 357.173 929.302 C 351.928 937.443, 350 943.543, 350 952 C 350 957.606, 350.338 959.111, 351.770 959.877 C 354.722 961.457, 367.949 963.861, 377.708 964.591 L 386.916 965.281 385.842 961.390 C 383.232 951.938, 387.202 936.025, 393.938 928.945 C 400.466 922.082, 401.924 924.921, 397.483 935.848 C 393.916 944.627, 392.313 955.763, 393.868 960.954 L 395.080 965 401.790 964.995 C 411.370 964.988, 441.089 962.254, 446.732 960.861 C 471.215 954.816, 479.183 939.912, 483.012 893 C 483.619 885.575, 485.057 871.625, 486.209 862 C 487.361 852.375, 488.348 843.405, 488.402 842.068 C 488.495 839.762, 487.806 839.465, 475.162 836.370 C 446.146 829.268, 436.206 824.394, 441.604 819.914 C 444.009 817.918, 449.568 818.523, 464.237 822.379 C 484.240 827.637, 496.069 829.897, 511.390 831.388 C 527.336 832.940, 528.425 832.802, 529.986 829.035 C 530.618 827.508, 532.227 825.762, 533.561 825.154 C 537.300 823.451, 538.779 826.811, 541.030 842.123 C 542.111 849.480, 544.818 866.459, 547.045 879.854 C 551.599 907.253, 551.902 904.282, 543.562 914.015 C 530.656 929.075, 526.589 948.966, 534.312 959.253 C 538.643 965.021, 554.332 972.852, 552.570 968.365 C 549.141 959.635, 552.095 941.258, 557.976 934.725 C 560.641 931.765, 561.013 931.631, 562.502 933.098 C 563.997 934.571, 563.955 935.195, 561.958 941.098 C 559.194 949.269, 558.408 961.004, 560.223 967 L 561.585 971.500 570.377 972.662 C 575.213 973.301, 583.069 973.976, 587.835 974.162 L 596.500 974.500 597.083 961 C 597.832 943.639, 600.792 936, 606.768 936 C 609.703 936, 609.568 937.945, 605.975 947.500 C 603.289 954.642, 602.494 972.449, 604.798 973.874 C 606.561 974.965, 623.777 972.500, 633 969.837 C 654.395 963.658, 666.697 954.405, 670.544 941.598 C 672.769 934.188, 675.869 894.970, 674.224 895.024 C 673.826 895.037, 671.700 895.484, 669.500 896.018 C 663.028 897.588, 640.476 897.276, 631 895.486 C 609.956 891.511, 603.088 887.915, 605.164 881.959 L 606.275 878.773 612.022 879.423 C 617.652 880.060, 622.797 879.411, 655.324 873.957 C 661.827 872.867, 668.442 871.306, 670.024 870.487 C 671.606 869.669, 673.556 869, 674.357 869 C 675.489 869, 675.954 866.830, 676.446 859.250 C 676.795 853.887, 677.329 847.362, 677.634 844.750 C 678.300 839.041, 679.543 839.205, 661.405 842.611 C 646.044 845.494, 620.756 845.656, 612.698 842.922 C 600.298 838.716, 601.693 829.210, 614.967 827.459 C 641.212 823.998, 673.406 813.752, 678.750 807.160 C 679.535 806.191, 680 802.396, 680 796.952 L 680 788.287 670.750 787.591 C 648.494 785.916, 625.941 774.433, 616.890 760.168 C 608.478 746.909, 608.058 732.638, 615.447 711.094 C 623.224 688.418, 622.829 654.095, 614.496 628.500 C 613.063 624.100, 608.316 613.356, 603.946 604.625 C 596.144 589.037, 594.807 584.593, 597.200 582.200 C 600.046 579.354, 602.812 580.844, 606.574 587.250 C 626.727 621.569, 632.328 639.831, 632.419 671.500 C 632.473 690.744, 631.825 695.403, 626.991 710.500 C 619.590 733.612, 619.980 745.240, 628.532 756.453 C 631.866 760.824, 639.063 766, 641.806 766 C 644.424 766, 650.192 754.813, 652.457 745.345 C 653.710 740.108, 654.665 738.059, 656.020 737.705 C 661.909 736.165, 658.834 755.202, 651.464 765.917 L 648.139 770.750 655.819 773.036 C 664.639 775.661, 674.923 776.562, 684.429 775.545 C 690.371 774.908, 691.182 774.549, 692.522 771.958 C 694.659 767.825, 697.059 756.778, 697.833 747.512 C 698.343 741.399, 698.869 739.453, 700.072 739.223 C 704.012 738.469, 706.084 752.193, 703.700 763.250 C 702.005 771.110, 702.252 771.270, 709.597 767.058 C 720.652 760.717, 730.479 745.113, 734.880 726.912 C 740.758 702.600, 739.973 660.739, 733.053 629.500 C 731.990 624.702, 727.880 609.818, 727.448 609.203 C 727.333 609.040, 725.173 610.301, 722.647 612.006 C 706.170 623.126, 680.756 629.074, 660.524 626.546 L 654.889 625.842 655.194 622.202 C 655.490 618.677, 655.723 618.478, 662.500 615.978 C 678.683 610.006, 712.219 588.064, 716.021 580.960 C 716.795 579.515, 715.422 575.973, 709.570 564.312 C 699.264 543.776, 700.667 544.940, 693.518 550.985 C 685.490 557.773, 673.248 563.925, 656.987 569.343 C 640.648 574.788, 636.901 575.552, 634.045 574.024 C 629.084 571.369, 631.363 568.484, 651.500 551.936 C 669.707 536.973, 682.036 524.493, 681.968 521.097 C 681.894 517.453, 663.747 495.846, 657.023 491.397 L 653.331 488.953 637.415 493.025 C 611.543 499.644, 599 499.487, 599 492.544 C 599 489.735, 599.422 489.564, 611.500 487.479 C 644.921 481.711, 679.996 467.777, 697.803 453.196 L 702.106 449.673 694.803 447.859 C 671.094 441.971, 633.742 414.829, 640.311 408.261 C 642.433 406.139, 647.527 406.441, 654.124 409.081 C 679.010 419.041, 709.668 425.879, 722.614 424.358 L 728.148 423.707 733.526 416.104 C 739.652 407.442, 747.122 392.920, 749.310 385.419 L 750.792 380.337 740.480 380.796 C 713.061 382.016, 677.883 371.030, 664.579 357.094 C 661.680 354.057, 661.673 354.019, 663.579 351.889 C 665.436 349.815, 665.919 349.773, 678 350.622 C 709.852 352.860, 732.293 351.505, 748.750 346.349 L 757 343.765 756.992 325.632 C 756.986 309.663, 756.354 301.355, 754.423 291.849 L 753.884 289.197 747.192 293.116 C 725.023 306.097, 684.810 311.987, 679.979 302.961 C 675.971 295.471, 680.295 291.659, 704 281.783 C 728.266 271.673, 746 260.372, 746 255.017 C 746 251.714, 739.060 234.045, 733.139 222.272 C 727.621 211.303, 727.943 208.574, 735 206.503 C 751.577 201.637, 770.389 183.735, 778.993 164.637 C 792.883 133.803, 783.507 93.750, 757.476 72.721 C 730.637 51.040, 695.803 52.171, 666.709 75.668 C 653.630 86.231, 641.803 103.118, 642.260 110.578 C 642.585 115.883, 639.263 116.374, 632.249 112.058 C 622.604 106.124, 590.666 93, 585.869 93 C 582.078 93, 562.465 132.394, 555.499 154 C 548.957 174.291, 540.627 173.860, 539.306 153.163 C 538.081 133.979, 544.842 104.941, 554.742 86.869 C 555.207 86.020, 550.686 85.269, 537.151 83.946 C 525.986 82.854, 525.764 82.873, 523.382 85.111 C 514.883 93.095, 504.902 117.308, 495.998 151.545 C 486.842 186.748, 484.655 191.655, 480.138 187.138 C 474.456 181.456, 471.536 165.348, 472.318 144 C 472.982 125.870, 475.069 114.887, 481.311 96.659 L 485.646 84 483.073 84.008 C 474.841 84.034, 456.429 87.134, 454.908 88.751 C 448.010 96.083, 434.939 134.024, 433.037 152.234 C 431.911 163.012, 430.355 166.598, 426.954 166.246 C 419.136 165.436, 412.789 145.379, 415.030 128.564 C 416.119 120.392, 420.533 101.916, 422.141 98.799 C 423.436 96.288, 419.485 97.855, 400.750 107.286 C 383.805 115.816, 381.306 116.287, 382.436 110.738 C 384.318 101.491, 384.279 101.008, 381.137 94.704 C 368.355 69.055, 341.646 52.121, 316.500 53.722 M 314.344 98.131 C 304.419 99.881, 294.746 107.648, 289.733 117.893 C 285.513 126.517, 285.078 139.389, 288.736 147.335 C 293.152 156.924, 312.936 173.107, 318.201 171.436 C 319.203 171.118, 320.686 169.575, 321.497 168.006 C 324.719 161.775, 335.822 149.384, 344.180 142.692 C 354.658 134.302, 354.627 134.454, 348.430 122.075 C 339.534 104.303, 327.456 95.819, 314.344 98.131 M 703.778 104.939 C 693.947 108.783, 685.071 117.631, 678.493 130.146 C 673.770 139.133, 673.912 140.115, 680.681 145.218 C 687.724 150.526, 698.968 163.587, 702.986 171.126 C 706.671 178.039, 707.358 178.337, 713.569 175.719 C 735.161 166.616, 747.354 147.536, 743.499 128.882 C 739.344 108.774, 721.493 98.014, 703.778 104.939 M 310 106.760 C 296.356 113.444, 290.023 130.351, 296.332 143.245 C 299.134 148.974, 308.334 158.570, 313.666 161.327 L 316.774 162.934 321.880 156.068 C 324.688 152.291, 331.062 145.364, 336.044 140.674 L 345.103 132.147 342.137 126.271 C 333.519 109.200, 320.792 101.473, 310 106.760 M 704.197 112.589 C 698.333 115.511, 690.637 123.576, 686.555 131.076 L 683.852 136.042 690.583 143.271 C 696.635 149.770, 707.600 163.676, 709.867 167.727 C 711.091 169.914, 720.714 164.371, 727.596 157.515 C 748.692 136.499, 729.636 99.912, 704.197 112.589 M 582.643 211.969 C 572.550 215.203, 573.938 222.956, 584.222 220.799 C 594.781 218.584, 605.203 222.758, 612.188 232 C 618.453 240.289, 622.993 237.392, 618.348 228.070 C 612.129 215.590, 595.185 207.949, 582.643 211.969 M 366.296 214.423 C 357.377 217.312, 351.665 220.632, 346.576 225.888 C 343.020 229.560, 342.760 230.178, 343.805 232.470 C 345.363 235.891, 345.768 235.786, 354.829 229.617 C 361.225 225.261, 364.240 223.910, 370.618 222.543 C 383.251 219.834, 383.500 219.727, 383.500 217.005 C 383.500 211.804, 377.269 210.869, 366.296 214.423 M 366.898 290.251 C 361.455 293.858, 358.566 300.846, 358.144 311.424 C 357.523 326.999, 361.940 334, 372.387 334 C 388.403 334, 398.352 310.631, 388.868 295.287 C 384.320 287.928, 373.981 285.558, 366.898 290.251 M 582.500 291.206 C 573.501 294.351, 568.619 305.879, 570.981 318.400 C 573.250 330.423, 578.631 336.500, 587.008 336.500 C 596.765 336.500, 602.481 326.403, 601.804 310.365 C 601.149 294.876, 593.558 287.342, 582.500 291.206 M 348.500 398.952 C 326.184 403.760, 308.616 420.624, 302.941 442.686 C 300.805 450.989, 300.944 454.754, 303.704 463.415 C 305.430 468.830, 304.268 470.964, 299.559 471.028 C 295.906 471.078, 288.564 475.506, 287.083 478.553 C 283.419 486.092, 286.107 496.955, 292.761 501.493 C 301.827 507.677, 309.446 507.187, 317.409 499.909 C 320.363 497.209, 323.124 495, 323.544 495 C 323.965 495, 326.727 497.672, 329.683 500.939 C 340.915 513.351, 357.578 514.520, 367.946 503.622 C 372.189 499.162, 372.330 499.162, 377.256 503.613 C 395.096 519.729, 427 510.875, 427 489.808 C 427 483.386, 424.636 477.879, 420.986 475.797 L 418 474.093 418 459.757 C 418 444.188, 416.772 437.285, 412.398 428.253 C 406.660 416.409, 394.897 406.039, 381.500 401.013 C 374.847 398.518, 355.986 397.340, 348.500 398.952 M 461 406.608 C 454.621 411.695, 449.821 413.936, 441.671 415.636 C 433.486 417.342, 432.788 417.800, 429.311 423.733 C 426.969 427.728, 426.801 428.731, 427.451 434.813 C 427.844 438.491, 428.466 447.199, 428.833 454.164 C 429.464 466.145, 429.664 467.062, 432.542 471.156 C 441.930 484.513, 459.342 482.627, 475.524 466.500 C 486.209 455.852, 495 437.392, 495 425.604 C 495 420.553, 494.731 419.924, 491.400 417.178 C 485.929 412.669, 477.982 410.441, 474.250 412.371 C 471.050 414.026, 463.900 422.777, 461.890 427.500 C 458.784 434.799, 455 435.259, 455 428.338 C 455 424.005, 457.608 418.893, 463.520 411.635 C 466.225 408.314, 467.946 405.302, 467.622 404.457 C 466.813 402.350, 466.013 402.610, 461 406.608 M 417.105 414.500 C 420.511 419.548, 421.004 419.759, 423.345 417.171 C 425.650 414.625, 425.495 414.313, 421.250 412.957 C 419.188 412.298, 417.072 411.363, 416.550 410.879 C 414.083 408.596, 414.366 410.441, 417.105 414.500 M 501.500 498.213 C 488.132 501.922, 469.606 501.610, 449.663 497.341 C 447.120 496.797, 446.861 496.978, 447.163 499.090 C 447.603 502.164, 453.162 505.256, 463.486 508.170 C 481.996 513.393, 515 508.135, 515 499.963 C 515 495.837, 511.636 495.401, 501.500 498.213 M 820.656 500.975 C 806.080 505.631, 791.617 520.192, 785.082 536.787 C 781.452 546.005, 782.211 546.960, 793.188 546.986 C 805.566 547.016, 825.238 554.376, 834.789 562.551 L 838.909 566.078 840.576 562.789 C 841.493 560.980, 844.210 556.318, 846.614 552.428 C 860.725 529.597, 858.493 507.444, 841.438 501.063 C 834.697 498.541, 828.359 498.514, 820.656 500.975 M 316 513.064 C 310.270 516.900, 309 518.624, 309 522.569 C 309 524.321, 309.563 526.209, 310.250 526.764 C 313.014 528.995, 336.931 530.477, 370.338 530.488 L 404.177 530.500 406.088 528.139 C 407.140 526.841, 407.997 524.816, 407.993 523.639 C 407.987 521.599, 407.513 521.496, 397.743 521.414 C 388.944 521.340, 386.584 520.942, 381 518.589 C 371.299 514.500, 371.341 514.502, 366.732 517.629 C 358.647 523.114, 338.118 521.215, 328.253 514.068 C 322.352 509.793, 321.046 509.686, 316 513.064 M 311.883 538.214 C 312.523 539.943, 314.865 541.105, 322.601 543.529 C 328.045 545.235, 333.551 547.201, 334.836 547.897 C 338.505 549.884, 338.428 548.614, 334.526 542.737 L 330.906 537.286 323.302 536.643 C 311.162 535.617, 310.934 535.648, 311.883 538.214 M 340.397 539.580 C 345.024 546.885, 353.356 557, 354.745 557 C 356.792 557, 369.252 546.732, 373.101 541.873 L 376.168 538 360.709 538 C 352.207 538, 343.742 537.698, 341.898 537.330 L 338.547 536.659 340.397 539.580 M 380.862 542.250 L 377.286 546.500 383.018 553.500 C 390.944 563.180, 392.865 564.827, 394.045 562.960 C 395.227 561.091, 402 540.901, 402 539.248 C 402 538.345, 399.570 538, 393.219 538 L 384.437 538 380.862 542.250 M 292.940 550.971 C 274.283 560.835, 261 586.781, 261 613.358 C 261 649.333, 290.199 679.918, 322.365 677.635 C 333.142 676.870, 334.381 676.069, 333.729 670.290 C 333.046 664.228, 331.786 663.028, 327.220 664.088 C 318.685 666.071, 308 664.562, 308 661.375 C 308 659.450, 310.769 658.354, 317.500 657.616 C 334.451 655.756, 345.025 646.204, 347.540 630.478 C 348.527 624.301, 342.714 621.710, 327.093 621.364 C 315.934 621.117, 313.442 620.366, 314.342 617.522 C 315.568 613.651, 334.918 613.220, 345.167 616.836 L 350.834 618.835 351.501 610.668 C 352.190 602.217, 350.358 590.639, 347.419 584.879 C 344.939 580.016, 328.297 578.327, 315.209 581.610 C 309.362 583.076, 308.650 583.079, 307.212 581.641 C 302.771 577.200, 314.905 572.606, 331.248 572.542 C 339.068 572.511, 341.996 572.165, 341.998 571.269 C 342.002 568.727, 328.822 556.061, 323.655 553.642 C 313.262 548.777, 299.373 547.569, 292.940 550.971 M 364.500 558.059 C 355.837 565.391, 354.560 565.853, 351.251 562.844 C 348.689 560.516, 348.692 560.538, 351.705 566 C 353.374 569.025, 355.968 574.778, 357.470 578.785 C 360.511 586.895, 359.571 586.574, 369.500 582.890 C 375.974 580.488, 390.218 572.141, 389.813 570.986 C 389.077 568.889, 373.819 552.006, 372.714 552.067 C 372.046 552.103, 368.350 554.800, 364.500 558.059 M 778.862 577.250 C 778.581 583.844, 779.144 595.657, 779.995 601 C 780.476 604.025, 781.162 609.251, 781.518 612.614 L 782.165 618.728 789.282 619.390 C 800.539 620.436, 814.137 625.408, 834 635.742 C 834.275 635.885, 834.203 630.714, 833.840 624.251 C 833.476 617.788, 833.139 607.454, 833.090 601.288 L 833 590.075 825.750 586.609 C 817.629 582.726, 805.347 579.020, 790.640 576.015 C 778.271 573.487, 779.025 573.408, 778.862 577.250 M 380 584.721 C 375.875 587.112, 372.633 589.564, 372.796 590.171 C 373.196 591.664, 380.072 600, 380.902 600 C 381.510 600, 388.236 580.770, 387.725 580.495 C 387.601 580.429, 384.125 582.330, 380 584.721 M 362.870 591.750 C 362.799 592.163, 362.830 597.675, 362.940 604 C 363.111 613.826, 362.761 616.793, 360.536 624.383 C 359.104 629.268, 358.060 633.373, 358.216 633.505 C 359.597 634.673, 365.281 637, 366.754 637 C 369.019 637, 373.270 624.929, 372.388 621 C 371.941 619.011, 372.051 618.807, 372.926 620 C 373.792 621.182, 373.982 620.750, 373.823 617.966 C 373.687 615.589, 374.388 613.394, 375.967 611.258 C 377.583 609.073, 378.017 607.681, 377.361 606.792 C 366.085 591.504, 363.396 588.713, 362.870 591.750 M 354.341 643.361 C 353.329 645.612, 350.587 650.368, 348.250 653.930 C 343.305 661.465, 342.946 664.741, 345.896 675.382 C 348.971 686.471, 349.986 686.635, 354.802 676.823 C 358.445 669.403, 367.438 645.067, 366.764 644.455 C 366.619 644.324, 364.179 643.103, 361.341 641.742 L 356.183 639.269 354.341 643.361 M 784.956 658.775 C 784.914 669.044, 783.946 679.961, 782.487 686.617 C 781.881 689.381, 782.093 689.806, 784.359 690.375 C 787.458 691.153, 804.011 706.702, 808.161 712.734 C 809.803 715.121, 813.070 720.672, 815.419 725.070 L 819.692 733.066 823.337 725.091 C 830.740 708.897, 835 690.226, 835 673.980 L 835 667.020 829.710 663.508 C 820.622 657.474, 803.672 651.392, 788.250 648.632 L 785 648.050 784.956 658.775 M 762.646 719.750 C 758.613 723.462, 753.115 727.641, 750.429 729.036 C 745.935 731.370, 745.339 732.127, 742.948 738.536 C 734.507 761.156, 721.126 775.452, 700.868 783.491 C 686.953 789.013, 688.933 793, 705.592 793 C 736.934 793, 774.843 779.557, 793.644 761.775 C 796.590 758.989, 799 755.975, 799 755.077 C 799 748.156, 775.726 713, 771.145 713 C 770.504 713, 766.680 716.038, 762.646 719.750" stroke="none" fill="#1a1a1a" fill-rule="evenodd"/>
</svg>