<svg xmlns="http://www.w3.org/2000/svg" width="1024" height="1024" viewBox="0 0 1024 1024" version="1.1">
	<path d="M 667.376 79.432 C 642.704 85.037, 621.810 103.352, 614.547 125.738 C 613.612 128.619, 612.446 131.224, 611.956 131.527 C 611.466 131.830, 606.438 130.076, 600.783 127.629 C 578.020 117.782, 550.921 112.348, 519.387 111.308 C 478.463 109.958, 431.662 120.361, 406.636 136.370 C 399.976 140.630, 399.869 140.606, 397.518 134.283 C 393.472 123.403, 388.800 116.064, 381.594 109.269 C 332.975 63.423, 254.664 94.224, 247.087 162.173 C 243.335 195.818, 260.102 227.950, 288.599 241.727 C 298.972 246.742, 298.801 246.525, 296.054 251.193 C 290.442 260.727, 280.986 290.909, 273.555 323 C 271.072 333.725, 267.883 346.325, 266.468 351 C 260.831 369.631, 259.877 386.661, 263.497 404.073 C 272.552 447.627, 302.135 480.867, 354.576 506.411 C 372.622 515.201, 376.414 517.522, 375.402 519.158 C 375.099 519.648, 365.772 527.859, 354.676 537.404 C 343.579 546.949, 329.550 559.131, 323.500 564.476 C 317.450 569.821, 310.801 575.343, 308.724 576.747 L 304.948 579.300 302.325 576.900 C 300.883 575.580, 297.020 568.875, 293.741 562 C 277.369 527.667, 273.975 521.104, 270.115 516.317 C 262.749 507.181, 254.418 506.584, 243.156 514.387 C 235.150 519.933, 232.882 522.867, 232.247 528.500 C 231.567 534.531, 232.661 537.355, 246.963 566.500 C 261.119 595.348, 261.810 597, 259.724 597 C 257.156 597, 244.614 606.639, 237.253 614.269 C 225.389 626.566, 220.111 640.989, 221.731 656.684 L 222.298 662.181 194.899 661.340 C 179.830 660.878, 163.675 660.500, 159 660.500 L 150.500 660.500 141.624 666.485 C 136.742 669.777, 127.178 677.094, 120.369 682.745 C 113.561 688.396, 102.705 696.917, 96.245 701.682 C 89.785 706.447, 80.289 713.755, 75.143 717.923 C 69.997 722.090, 57.172 732.029, 46.643 740.009 C 29.286 753.164, 27.500 754.797, 27.500 757.509 C 27.500 760.359, 27.720 760.514, 32.155 760.801 C 36.637 761.091, 37.141 760.826, 45.655 753.726 C 50.520 749.670, 57.200 744.377, 60.500 741.965 C 67.018 737.201, 81.440 726.008, 118.265 697.134 C 131.335 686.885, 144.835 676.774, 148.265 674.665 L 154.500 670.830 183.531 671.524 C 199.498 671.906, 215.207 672.507, 218.441 672.859 L 224.320 673.500 226.511 680 C 230.179 690.883, 237.525 703.481, 243.360 708.898 L 245.943 711.295 207.785 741.736 C 186.798 758.479, 163.299 776.889, 155.564 782.648 C 147.829 788.406, 140.186 794.123, 138.580 795.352 C 135.890 797.411, 135.747 797.835, 136.760 800.740 C 137.829 803.809, 137.741 803.962, 133.435 806.485 C 125.870 810.918, 124.007 817.145, 128.990 821.338 C 132.525 824.313, 135.545 824.717, 159.500 825.421 C 180.638 826.042, 264.790 832.608, 302 836.539 C 323.748 838.837, 327.576 839.987, 333 845.853 C 338.748 852.071, 339.935 852.644, 350.089 854.112 C 358.189 855.283, 358.805 855.229, 366.503 852.671 C 377.284 849.089, 389.222 847.632, 402.482 848.281 C 422.758 849.272, 494.287 854.914, 513 856.997 C 542.262 860.255, 572.878 863.881, 580.500 864.992 C 592.968 866.809, 590.979 868.572, 626.771 824 C 637.591 810.525, 650.771 794.325, 656.058 788 C 671.548 769.469, 687.809 749.132, 689.714 745.906 C 691.061 743.626, 692.789 742.553, 696.990 741.389 C 723.860 733.939, 737.797 726.027, 749.779 711.422 C 754.944 705.124, 760.099 694.303, 760.770 688.346 C 761.217 684.382, 761.526 683.913, 763.388 684.366 C 765.931 684.984, 784.482 685.696, 832.500 687.020 C 912.678 689.229, 938.654 690.074, 941.760 690.572 C 945.956 691.244, 945.751 691.630, 933.156 706.785 C 917.081 726.127, 881.103 770.486, 868.502 786.500 C 862.010 794.750, 853.259 805.550, 849.054 810.500 C 844.849 815.450, 834.697 828.020, 826.495 838.434 C 790.533 884.093, 777.961 898.029, 769.575 901.533 C 763.556 904.048, 745.148 904.390, 713.500 902.574 C 697.550 901.659, 638.375 898.230, 582 894.954 C 525.625 891.677, 463.975 888.096, 445 886.995 C 426.025 885.894, 395.875 884.098, 378 883.004 C 360.125 881.911, 327.050 879.895, 304.500 878.524 C 281.950 877.154, 241.450 874.685, 214.500 873.037 C 187.550 871.390, 156.050 869.565, 144.500 868.981 C 132.950 868.398, 113.600 867.251, 101.500 866.432 C 50.213 862.964, 43 863.222, 43 868.532 C 43 872.063, 46.867 873.691, 56.779 874.333 C 70.605 875.228, 179.358 881.637, 211.500 883.451 C 226.350 884.289, 264.600 886.549, 296.500 888.474 C 328.400 890.398, 381.950 893.563, 415.500 895.507 C 449.050 897.451, 505.525 900.825, 541 903.005 C 576.475 905.185, 625.300 908.116, 649.500 909.518 C 673.700 910.920, 703.175 912.743, 715 913.570 C 726.825 914.396, 743.391 914.994, 751.814 914.900 C 761.132 914.795, 767.527 915.127, 768.148 915.748 C 769.259 916.859, 768.983 951.356, 767.855 952.481 C 767.500 952.835, 754 952.406, 737.855 951.527 C 621.928 945.221, 570.934 942.358, 505.500 938.481 C 482.400 937.113, 447.975 935.094, 429 933.995 C 410.025 932.896, 380.550 931.113, 363.500 930.034 C 346.450 928.954, 323.500 927.588, 312.500 926.998 C 301.500 926.408, 283.050 925.274, 271.500 924.477 C 259.950 923.680, 235.875 922.128, 218 921.027 C 200.125 919.927, 159.175 917.394, 127 915.399 C 50.364 910.648, 49.353 910.660, 50.202 916.312 C 50.906 921.004, 54.140 921.806, 77 922.960 C 106.468 924.447, 142.690 926.582, 273 934.513 C 295.275 935.868, 330.375 937.887, 351 938.999 C 402.139 941.755, 465.863 945.533, 511.500 948.513 C 577.838 952.845, 680.918 959.021, 697.500 959.658 C 706.300 959.996, 714.022 960.683, 714.661 961.185 C 715.512 961.853, 715.677 968.306, 715.278 985.299 C 714.652 1011.977, 715.369 1016, 720.749 1016 C 725.926 1016, 726 1015.599, 726 987.647 L 726 961.694 737.250 962.343 C 743.438 962.699, 751.607 962.993, 755.403 962.995 L 762.307 963 761.604 986.951 C 760.916 1010.421, 760.944 1010.944, 763.002 1013.002 C 765.098 1015.098, 768.157 1015.032, 770.500 1012.839 C 771.100 1012.278, 771.619 1001.726, 771.798 986.452 L 772.096 961 776.900 961 C 783.790 961, 787.140 958.290, 796.716 944.970 C 801.252 938.662, 809.428 928.100, 814.886 921.500 C 820.344 914.900, 833.089 898.925, 843.209 886 C 853.328 873.075, 867.208 855.361, 874.054 846.636 L 886.500 830.771 886.756 908.564 C 887.032 992.403, 886.877 990, 892 990 C 897.003 990, 896.841 992.773, 897.114 902.210 C 897.346 825.240, 897.514 817.689, 899.050 815.212 C 899.976 813.720, 907.363 804.175, 915.466 794 L 930.200 775.500 929.850 875.096 C 929.557 958.421, 929.724 974.962, 930.872 976.346 C 932.805 978.675, 937.673 978.479, 938.990 976.018 C 939.720 974.654, 940.027 941.096, 939.973 868.414 C 939.909 783.088, 940.144 762.457, 941.197 761.049 C 941.914 760.091, 945.373 755.525, 948.883 750.903 C 958.988 737.601, 959 737.554, 959 711.482 C 959 685.801, 958.748 684.661, 952.453 681.876 C 947.394 679.638, 919.543 678.087, 883.389 678.029 L 865.278 678 867.536 668.658 C 873.636 643.429, 873.621 605.724, 867.501 574 C 859.606 533.075, 862.258 522.575, 886.570 498.500 C 906.608 478.658, 912.242 469.132, 912.301 455 C 912.411 428.345, 887.816 413.136, 857.438 421.074 C 833.008 427.459, 815.972 442.229, 803.892 467.500 C 793.991 488.212, 790.534 505.522, 790.612 534 C 790.673 556.495, 791.576 563.459, 797.471 586.911 C 806.279 621.949, 804.917 646.623, 792.871 670.250 L 790.959 674 780.545 674 C 774.817 674, 768.940 673.547, 767.485 672.994 L 764.841 671.989 765.530 662.244 C 767.355 636.435, 760.537 608.179, 745.521 579.317 C 730.650 550.736, 714.027 530.198, 686.699 506.643 C 682.962 503.422, 680.065 500.304, 680.262 499.714 C 680.459 499.124, 684.070 496.500, 688.286 493.883 C 748.868 456.290, 772.727 400.557, 753.636 341.236 C 751.736 335.331, 748.348 322.365, 746.108 312.423 C 740.609 288.016, 738.074 279.607, 729.853 258.500 C 720.421 234.286, 720.585 236.742, 728.146 232.934 C 746.779 223.550, 758.170 211.067, 764.781 192.787 C 779.594 151.823, 762.003 105.509, 724.500 86.736 C 709.097 79.026, 683.543 75.758, 667.376 79.432 M 672.500 91.482 C 645.710 97.389, 625.908 116.368, 623.086 138.839 C 621.556 151.029, 617.465 153.018, 609.138 145.623 C 606.427 143.215, 602.025 140.438, 599.355 139.452 C 596.685 138.465, 591.350 136.440, 587.500 134.952 C 583.650 133.463, 579.101 131.943, 577.392 131.574 L 574.284 130.904 569.185 142.202 C 561.895 158.354, 553.492 179.599, 551.011 188.154 C 545.545 206.998, 545.030 208.140, 542.150 207.807 C 536.737 207.180, 535.498 202.081, 535.516 180.500 C 535.532 160.227, 536.556 152.557, 541.689 134.227 C 543.118 129.126, 544.043 124.710, 543.746 124.412 C 543.448 124.115, 538.285 123.612, 532.271 123.295 L 521.337 122.718 519.109 125.847 C 509.934 138.732, 497.860 178.247, 491.101 217.514 C 487.812 236.620, 486.731 239.778, 483.174 240.671 C 477.776 242.026, 473.464 234.683, 469.273 217 C 466.724 206.248, 466.548 204.037, 466.557 183 C 466.568 158.689, 467.837 149.512, 473.492 132.850 C 474.864 128.808, 475.989 125.396, 475.993 125.269 C 476.047 123.474, 457.002 128.424, 453.621 131.084 C 446.432 136.739, 438.858 160.344, 435.031 189.026 C 432.913 204.895, 431.613 208.500, 428.006 208.500 C 420.538 208.500, 415.379 179.446, 419.450 160.315 C 420.248 156.567, 421.823 150.842, 422.950 147.593 C 424.078 144.345, 425 141.565, 425 141.416 C 425 141.079, 407.612 148.987, 403.367 151.256 C 401.622 152.188, 399.954 154.046, 399.602 155.450 C 398.810 158.604, 394.526 159.955, 392.318 157.746 C 391.486 156.914, 390.174 153.143, 389.404 149.367 C 384.833 126.966, 377.864 117.747, 357.812 107.572 C 323.077 89.947, 282.822 103.922, 265.029 139.782 C 257.784 154.384, 256.208 176.205, 261.293 191.500 C 267.980 211.614, 280.420 225.961, 298.914 234.891 C 310.713 240.587, 310.943 241.415, 304.877 256.349 C 301.137 265.557, 291.663 292.469, 290.361 297.583 C 289.477 301.055, 298.436 311.533, 309.579 320.060 C 320.591 328.488, 321.388 330.148, 316.118 333.700 C 309.456 338.189, 301.231 339.042, 288.500 336.564 C 284.650 335.815, 281.378 335.315, 281.230 335.454 C 280.217 336.402, 278 352.572, 278 359.015 C 278 369.212, 278.367 369.489, 299.185 375.019 C 316.824 379.704, 319 380.817, 319 385.155 C 319 392.434, 300.862 400, 283.412 400 C 277.041 400, 277.180 399.417, 280.548 412 C 289.634 445.949, 316.077 475.164, 355.500 494.809 C 397.098 515.538, 449.245 528.794, 491.500 529.380 C 507.620 529.604, 512 530.476, 512 533.464 C 512 538.243, 503.780 539.515, 478.114 538.709 C 452.678 537.909, 433.873 534.604, 403.382 525.573 C 396.748 523.608, 390.761 522, 390.077 522 C 389.394 522, 385.384 525.126, 381.167 528.947 C 370.589 538.532, 324.400 577.859, 319.500 581.453 C 314.145 585.380, 310 589.191, 310 590.187 C 310 590.634, 311.913 591.002, 314.250 591.004 C 338.346 591.027, 358.234 601.578, 366.782 618.873 C 370.362 626.118, 370.500 626.787, 370.500 636.948 C 370.500 648.565, 369.768 650.775, 363.264 658.805 C 361.346 661.172, 359.983 663.317, 360.236 663.570 C 361.689 665.022, 382.589 665.200, 383.776 663.770 C 384.492 662.907, 386.107 652.681, 387.549 639.880 C 393.190 589.797, 404.437 552.892, 410.203 565.547 C 411.129 567.578, 411.003 569.554, 409.582 575.297 C 401.342 608.592, 392.868 660.015, 394.972 663.948 C 395.791 665.478, 398.365 665.757, 416.701 666.301 C 428.140 666.640, 453.723 667.457, 473.550 668.117 C 493.378 668.777, 510.852 669.003, 512.382 668.619 C 513.912 668.235, 518.164 665.108, 521.832 661.671 C 532.249 651.907, 544.374 644.564, 556.500 640.677 C 564.678 638.055, 598.418 632.043, 614 630.430 C 629.283 628.848, 634.115 627.771, 635.973 625.532 C 636.832 624.497, 636.349 620.467, 633.979 608.895 C 630.528 592.051, 630.755 589, 635.456 589 C 639.332 589, 640.653 592.266, 643.060 607.804 C 644.959 620.060, 645.507 622.016, 646.888 621.469 C 661.438 615.696, 684 617.863, 684 625.033 C 684 628.355, 681.067 629.344, 668.757 630.175 C 659.584 630.793, 655.560 631.519, 652.150 633.169 C 646.923 635.700, 645.831 634.401, 662.039 644.941 C 679.144 656.064, 690.971 670.397, 690.991 680.027 C 691.003 686.135, 688.786 689.207, 684.654 688.806 C 681.758 688.525, 681.131 687.750, 676.991 679.345 C 674.510 674.309, 671.585 669.177, 670.491 667.940 C 667.259 664.288, 653.309 654.249, 643.044 648.187 L 633.500 642.552 624 642.805 C 603.706 643.347, 570.799 648.320, 558.650 652.682 C 529.023 663.320, 516.783 676.361, 516.585 697.500 C 516.482 708.396, 517.121 710.929, 521.118 715.482 C 525.145 720.068, 525.465 719.968, 526.869 713.694 C 529.324 702.725, 536.115 691.512, 543.177 686.770 C 552.057 680.806, 553.566 683.598, 546.620 693.138 C 538.158 704.761, 535.737 710.278, 535.274 719 C 534.660 730.568, 538.430 734.793, 552.680 738.505 C 562.882 741.162, 563 741.099, 563 732.975 C 563 720.521, 569.796 706.548, 578.267 701.583 C 588.508 695.582, 591.028 699.144, 582.712 707.863 C 575.485 715.439, 572.803 720.877, 572.287 729 C 571.455 742.106, 576.915 746.500, 594.035 746.500 L 604.570 746.500 615.535 741.137 C 631.472 733.341, 629.718 733.645, 659.500 733.524 C 688.792 733.405, 694.322 732.706, 707.635 727.440 C 730.492 718.399, 745.358 703.098, 751.782 682 C 754.582 672.805, 756.585 654.961, 755.124 652.231 C 753.316 648.854, 737.905 639.140, 720.648 630.500 C 704.114 622.223, 701.680 620.330, 703.603 617.250 C 705.812 613.711, 711.679 612.676, 730.051 612.586 L 747.602 612.500 745.302 603.640 C 742.935 594.530, 738.201 584.397, 734.926 581.433 C 733.178 579.851, 732.018 580.058, 714.786 585.019 C 688.269 592.652, 673 593.077, 673 586.180 C 673 580.957, 696.257 565.968, 712.750 560.561 C 715.638 559.614, 718 558.626, 718 558.365 C 718 556.687, 708.351 544.234, 701.568 537.156 C 691.910 527.077, 675.308 513.030, 668.995 509.594 L 664.445 507.117 644.473 513.835 C 619.797 522.135, 595.202 527.869, 591.502 526.183 C 585.205 523.314, 590.319 517.998, 601.760 515.519 C 639.977 507.239, 682.198 487.589, 705.191 467.381 C 727.341 447.912, 741.653 421.649, 744.587 395.086 C 745.253 389.055, 745.182 388.717, 743.398 389.407 C 736.971 391.895, 723.249 395.226, 715.287 396.232 C 694.823 398.816, 665.151 391.004, 664.189 382.778 C 663.724 378.797, 667.049 376, 672.250 375.999 C 694.095 375.992, 724.389 364.066, 736.820 350.579 C 742.970 343.907, 743.025 342.259, 737.740 322.907 L 736.485 318.314 731.993 320.263 C 707.322 330.965, 678.114 333.079, 671.138 324.668 C 668.216 321.145, 670.458 318.746, 681.735 313.330 C 695.740 306.604, 706.753 299.238, 715.185 290.955 C 725.729 280.597, 725.775 280.326, 719.881 263.530 C 717.174 255.813, 713.393 246.191, 711.479 242.146 C 709.566 238.102, 708 234.203, 708 233.483 C 708 232.763, 711.487 230.293, 715.750 227.995 C 733.365 218.496, 743.435 208.899, 750.413 194.960 C 761.438 172.937, 760.457 145.711, 747.865 124.239 C 733.602 99.915, 700.164 85.382, 672.500 91.482 M 687.801 132.006 C 675.917 134.063, 664.507 144.457, 656.750 160.292 C 650.350 173.357, 650.402 173.784, 659.126 179.583 C 669.040 186.175, 676.391 193.446, 680.271 200.500 C 684.526 208.234, 686.020 208.421, 696.863 202.575 C 707.560 196.807, 711.496 193.770, 715.372 188.292 C 733.668 162.438, 716.342 127.067, 687.801 132.006 M 310.500 143.353 C 301.724 147.449, 295.912 155.561, 292.574 168.377 C 290.681 175.644, 291.192 178.366, 296.558 189.606 C 303.209 203.540, 314.506 212.925, 324.691 212.978 C 328.784 212.999, 328.956 212.863, 331.980 207.188 C 336.548 198.618, 343.039 191.766, 352.644 185.376 C 364.846 177.256, 364.819 177.456, 355.663 163.649 C 347.376 151.153, 341.911 145.914, 334.045 142.925 C 326.792 140.169, 316.939 140.348, 310.500 143.353 M 685.492 145.797 C 682.738 146.749, 678.794 148.818, 676.728 150.394 C 673.277 153.026, 663 166.994, 663 169.052 C 663 169.539, 665.362 171.695, 668.250 173.843 C 673.696 177.895, 685.030 189.329, 688.651 194.424 L 690.729 197.349 695.615 194.520 C 724.967 177.526, 716.171 135.188, 685.492 145.797 M 313.500 155.421 C 309.735 157.107, 304.456 162.616, 303.061 166.315 C 299.179 176.613, 306.939 196.797, 316.440 201.112 C 322.211 203.733, 322.133 203.770, 328.473 195.492 C 333.611 188.785, 344.608 178.316, 349.551 175.426 C 353.088 173.359, 340.200 159.071, 331.532 155.449 C 327.220 153.647, 317.496 153.633, 313.500 155.421 M 370.748 252.427 C 359.544 256.425, 350.573 269.430, 355.571 274.429 C 357.915 276.772, 358.498 276.513, 365.424 270.070 C 373.835 262.246, 378.319 260.785, 384.579 263.826 C 392.160 267.509, 396 266.382, 396 260.474 C 396 252.651, 382.329 248.294, 370.748 252.427 M 577.249 253.418 C 571.260 256.259, 569.104 259.573, 570.571 263.681 C 572.011 267.711, 574.789 268.121, 581.494 265.293 C 589.426 261.949, 593.121 263.030, 601.605 271.176 C 608.872 278.154, 612.276 278.807, 612.808 273.324 C 614.142 259.561, 591.281 246.764, 577.249 253.418 M 377.500 343.382 C 366.829 348.298, 360.719 364.668, 364.433 378.389 C 368.768 394.407, 383.037 400.183, 392.701 389.833 C 400.992 380.953, 402.590 357.608, 395.485 349.165 C 390.924 343.744, 382.555 341.054, 377.500 343.382 M 575 345.123 C 565.370 348.944, 558.455 365.660, 561.050 378.846 C 565.967 403.840, 589.577 407.179, 595.657 383.741 C 601.285 362.044, 589.217 339.482, 575 345.123 M 452 382.141 C 423.559 385.519, 413.153 398.770, 422.782 419.347 C 428.210 430.947, 441.347 441.130, 457.760 446.459 C 464.557 448.666, 465.342 450.267, 464.789 460.791 C 464.283 470.432, 463.809 471.088, 455.586 473.530 C 439.751 478.233, 422.817 472.437, 413.589 459.157 C 407.346 450.172, 407.608 450.371, 404.629 452.323 C 399.701 455.553, 401.456 462.254, 409.170 469.655 C 424.471 484.337, 447.639 488.806, 465.665 480.553 L 471.211 478.014 474.197 480.140 C 481.801 485.555, 498.386 487.604, 509.869 484.547 C 525.769 480.315, 541 467.849, 541 459.066 C 541 450.540, 535.830 449.473, 530.998 457.002 C 523.462 468.747, 509.576 477.372, 498.132 477.416 C 489.886 477.449, 482.064 474.869, 477.579 470.639 C 473.958 467.224, 472.464 461.076, 473.170 452.500 L 473.500 448.500 486.231 442.234 C 527.582 421.880, 529.466 391.925, 489.928 383.456 C 480.518 381.441, 463.006 380.834, 452 382.141 M 455.500 393.648 C 438.468 396.372, 432 399.859, 432 406.318 C 432 412.298, 436.269 420.443, 441.385 424.225 C 448.906 429.785, 465.974 437.228, 469.629 436.542 C 474.383 435.650, 485.548 429.734, 493.216 424.044 C 515.641 407.403, 506.544 394.302, 472 393.487 C 464.575 393.312, 457.150 393.384, 455.500 393.648 M 862.333 432.466 C 847.773 436.553, 835.904 443.680, 827.875 453.157 C 817.122 465.851, 809 480.820, 809 487.946 C 809 495.263, 821.894 502.984, 844.397 509.143 C 852.080 511.246, 858.416 512.861, 858.475 512.733 C 860.354 508.681, 866.545 501.756, 877.535 491.415 C 896.161 473.888, 901.245 465.802, 901.152 453.855 C 901.026 437.536, 881.871 426.983, 862.333 432.466 M 249.367 521.918 C 242.589 526.051, 241.546 530.457, 245.441 538.500 C 249.474 546.829, 249.050 546.650, 255.632 542.820 C 258.859 540.942, 263.075 538.787, 265 538.030 C 266.925 537.274, 268.643 536.552, 268.817 536.427 C 269.518 535.923, 263.617 525.321, 261.205 522.750 C 258.105 519.444, 253.907 519.149, 249.367 521.918 M 801.008 533.315 C 801.015 543.846, 802.291 559.192, 803.469 562.903 C 804.302 565.528, 816.039 571.734, 827.259 575.484 C 836.628 578.614, 855.285 582.048, 856.473 580.861 C 856.745 580.588, 855.859 573.870, 854.503 565.932 C 853.147 557.995, 852.023 548.800, 852.004 545.500 C 851.956 537.199, 851.640 536.918, 840.635 535.395 C 830.132 533.941, 819.577 530.713, 808.316 525.510 L 801 522.130 801.008 533.315 M 268 546.120 C 263.648 547.848, 254.018 554.450, 254.009 555.711 C 254.004 556.377, 261.154 571.227, 269.897 588.711 C 278.641 606.195, 286.124 621.625, 286.526 623 C 289.035 631.585, 300.637 644.984, 312.500 652.998 C 332.679 666.632, 337.689 682.920, 326.296 697.856 L 323.654 701.321 326.389 706.544 C 327.893 709.417, 330.108 712.675, 331.312 713.784 L 333.500 715.800 341.750 711.965 C 348.610 708.777, 349.999 707.740, 349.994 705.815 C 349.978 698.915, 342.240 679.453, 335.947 670.484 C 328.528 659.910, 321.914 647.851, 315.936 634 C 312.970 627.125, 307.546 615.650, 303.884 608.500 C 300.222 601.350, 295.341 591.057, 293.039 585.627 C 286.742 570.779, 276.165 548.840, 274.320 546.801 C 272.495 544.785, 271.603 544.689, 268 546.120 M 812.361 605.134 C 815.974 639.437, 815.649 642.607, 806.106 666.167 C 804.397 670.383, 803 674.329, 803 674.934 C 803 675.713, 810.243 675.957, 827.750 675.767 L 852.500 675.500 855.281 667.206 C 859.204 655.506, 860.987 641.985, 860.994 623.889 L 861 608.277 852.250 607.720 C 845.157 607.268, 825.079 602.925, 813.595 599.359 C 811.815 598.806, 811.734 599.181, 812.361 605.134 M 314.552 603.164 C 316.914 610.606, 339.194 654.081, 341.380 655.513 C 344.765 657.731, 349.237 656.283, 354.353 651.314 C 359.690 646.131, 361.165 642.745, 361.132 635.760 C 361.051 618.810, 345.364 606.085, 319.730 602.176 C 314.349 601.356, 313.999 601.422, 314.552 603.164 M 259.433 609.925 C 253.166 613.519, 240.298 627.050, 237.186 633.317 C 226.207 655.423, 237.629 691.276, 260.483 706.445 C 273.884 715.340, 292.926 718.407, 302.682 713.243 C 310.675 709.011, 309.520 707.372, 296.215 704.056 C 281.441 700.375, 271.444 694.666, 262.239 684.655 C 256.077 677.953, 254.087 673.485, 256.285 671.287 C 257.850 669.722, 258.463 670.101, 265.729 677.125 C 286.403 697.109, 308.897 702.237, 317.819 689 C 323.384 680.743, 319.084 671.127, 305.185 660.747 C 287.185 647.306, 276.974 633.268, 268.088 609.750 C 266.784 606.298, 265.719 606.319, 259.433 609.925 M 352.627 675.530 C 351.814 677.649, 354.814 684.756, 357.238 686.454 C 358.744 687.509, 361.369 687.719, 367.869 687.304 C 390.963 685.830, 440.408 696.120, 455 705.437 C 461.678 709.701, 461.991 709.715, 470.613 706.160 C 478.340 702.973, 484.664 701.382, 493.500 700.399 C 502.554 699.393, 503.997 698.620, 504.016 694.775 C 504.024 692.974, 504.665 688.804, 505.441 685.508 C 506.216 682.213, 506.771 679.474, 506.675 679.421 C 506.579 679.369, 488.500 678.774, 466.500 678.100 C 444.500 677.425, 412.325 676.234, 395 675.454 C 354.431 673.627, 353.356 673.629, 352.627 675.530 M 360.006 697.106 C 360.009 697.873, 360.447 700.075, 360.979 702 C 364.884 716.120, 369.155 755.904, 367.039 758.453 C 364.886 761.047, 361.475 760.209, 355.349 755.583 C 349.414 751.100, 331.239 732.975, 322.748 723.070 L 318.093 717.641 310.297 721.278 C 294.256 728.761, 281.005 728.842, 264.536 721.558 C 259.381 719.279, 258.540 719.167, 255.670 720.383 C 251.092 722.322, 153.271 797.636, 154.194 798.511 C 154.362 798.671, 158.536 797.923, 163.468 796.849 C 237.206 780.792, 284.451 784.139, 335.878 809.063 C 344.885 813.428, 352.945 817, 353.788 817 C 355.981 817, 455 718.406, 455 716.222 C 455 713.786, 425.521 704.142, 405.205 699.931 C 387.750 696.314, 359.995 694.579, 360.006 697.106 M 938.914 715.750 C 930.589 725.422, 914.954 744.838, 873.893 796.500 C 866.462 805.850, 856.133 818.496, 850.941 824.603 C 845.748 830.710, 834.924 843.985, 826.887 854.103 C 818.850 864.221, 806.025 879.617, 798.387 888.315 C 790.749 897.013, 783.193 905.664, 781.595 907.540 L 778.690 910.951 778.233 931.226 L 777.776 951.500 781.949 947.500 C 785.903 943.710, 811.724 910.466, 833.601 881 C 839.113 873.575, 852.170 856.925, 862.616 844 C 896.512 802.059, 942.948 741.905, 946.252 735.658 C 948.089 732.184, 948.537 729.320, 948.976 718.248 C 949.264 710.960, 949.200 704.997, 948.833 704.998 C 948.467 704.999, 944.003 709.837, 938.914 715.750 M 487.210 711.534 C 468.901 717.771, 466.523 719.554, 438.950 747.709 C 425.058 761.894, 403.749 783.314, 391.596 795.310 C 377.707 809.020, 370.543 816.727, 372.308 816.063 C 391.534 808.824, 435.504 803.887, 462 805.993 C 498.682 808.908, 530.451 815.466, 561.857 826.607 C 568.667 829.023, 575.038 831, 576.013 831 C 579.079 831, 643 749.274, 643 745.354 C 643 742.072, 635.167 743.894, 623.732 749.837 C 608.716 757.640, 603.263 759.373, 593.500 759.443 C 582.943 759.518, 579.091 758.599, 573.113 754.576 C 568.373 751.386, 567.618 751.206, 557.317 750.817 C 544.201 750.321, 539.839 748.626, 531.170 740.657 C 527.853 737.607, 523.389 734.219, 521.251 733.128 C 515.914 730.405, 510.718 724.375, 506.513 716.025 L 502.975 709 498.737 709.026 C 496.407 709.040, 491.220 710.169, 487.210 711.534 M 346.738 719.522 C 338.826 722.427, 338.456 723.160, 342.477 727.972 C 346.479 732.762, 355.886 741.452, 356.447 740.878 C 356.863 740.452, 354.296 722.509, 353.428 719.772 C 352.769 717.696, 351.809 717.660, 346.738 719.522 M 654.318 748.250 C 652.627 750.038, 641.828 763.650, 630.318 778.500 C 602.003 815.035, 586.299 834.953, 583.217 838.238 C 578.820 842.926, 576.196 842.709, 558 836.155 C 488.062 810.962, 414.428 808.148, 368.325 828.908 C 355.628 834.625, 355.743 834.641, 343.669 825.313 C 334.964 818.587, 318.099 810.216, 304 805.624 C 285.446 799.581, 250.074 795.098, 232 796.500 C 202.369 798.797, 162.706 805.364, 145.827 810.767 L 140.500 812.473 144.500 812.723 C 146.700 812.861, 164.250 813.654, 183.500 814.485 C 202.750 815.317, 225.244 816.678, 233.487 817.510 C 241.730 818.341, 261.080 820.333, 276.487 821.935 C 291.894 823.538, 309.493 825.313, 315.595 825.880 C 331.059 827.318, 336.628 829.580, 343.141 837.068 C 349.561 844.450, 353.979 845.058, 364.093 839.953 C 376.585 833.647, 373.159 833.586, 481.950 842.062 C 520.932 845.099, 567.812 850.675, 579.899 853.711 L 586.368 855.336 591.358 849.918 C 594.102 846.938, 606.926 831.225, 619.856 815 C 632.785 798.775, 649.020 778.750, 655.932 770.500 C 668.426 755.589, 674.001 748.640, 675.391 746.250 C 675.951 745.287, 673.966 745, 666.755 745 C 657.489 745, 657.361 745.034, 654.318 748.250" stroke="none" fill="#1a1a1a" fill-rule="evenodd"/>
</svg>