<svg xmlns="http://www.w3.org/2000/svg" width="1024" height="1024" viewBox="0 0 1024 1024" version="1.1">
	<path d="M 369.500 73.872 C 342.420 81.680, 321.024 109.545, 321.028 137 C 321.031 156.807, 326.441 169.650, 340.889 184.148 L 350.503 193.796 347.171 201.143 C 333.211 231.922, 323.010 278.375, 322.664 312.743 L 322.500 328.985 316.291 328.993 C 300.354 329.012, 290 332.274, 291.444 336.822 C 292.134 338.999, 292.288 339.014, 307.455 338.360 C 324.715 337.615, 323.186 336.931, 324.512 346 C 325.091 349.967, 327.236 359.522, 328.576 364.110 C 328.951 365.395, 327.983 365.848, 323.773 366.358 C 317.480 367.121, 300.328 371.418, 295.461 373.452 C 292.860 374.539, 292 375.501, 292 377.327 C 292 381.187, 293.849 381.942, 299.500 380.390 C 308.822 377.829, 329.120 373, 330.564 373 C 331.354 373, 332 373.462, 332 374.028 C 332 376.077, 339.242 389.641, 344.785 397.972 C 355.396 413.922, 367.579 425.206, 387.500 437.536 C 408.514 450.543, 420.587 455.183, 459.280 465.122 C 464.225 466.393, 464.106 466.519, 449.237 475.815 C 425.950 490.374, 426.055 490.346, 411.068 486.104 C 403.024 483.827, 395.674 483.413, 391.496 485.002 C 389.365 485.812, 388.063 485.554, 384.681 483.652 C 356.150 467.609, 353.393 466.547, 342.010 467.206 C 328.398 467.994, 323.193 472.783, 310.177 496.500 C 299.723 515.547, 285 549.718, 278.400 570.250 L 275.588 579 271.044 579.018 C 263.334 579.049, 246.061 581.872, 234.178 585.044 C 151.734 607.046, 102.436 669.491, 97.361 758.349 C 96.770 768.692, 96.500 769.907, 94.603 770.774 C 89.430 773.139, 81.945 781.332, 78.394 788.518 C 67.701 810.154, 77.558 840.320, 98.536 850.157 C 116.384 858.528, 156.792 863.249, 191.820 861.056 C 202.467 860.389, 211.373 860.040, 211.613 860.280 C 211.853 860.519, 212.967 864.042, 214.089 868.108 C 225.869 910.795, 266.670 944.714, 311.312 948.934 C 334.221 951.100, 362.133 945.042, 380.480 933.923 C 400.983 921.497, 414.876 906.356, 424.210 886.266 L 428.500 877.032 537.163 877.016 L 645.825 877 648.436 883.831 C 656.347 904.536, 681.197 929.507, 704.327 939.994 C 730.175 951.714, 765.210 952.490, 792.193 941.941 C 824.072 929.477, 851.441 900.036, 861.029 867.893 L 862.999 861.287 880.750 860.692 C 913.321 859.601, 926.582 854.088, 934.420 838.380 C 943.900 819.381, 940.953 797.946, 926.667 781.995 C 925.109 780.255, 923.984 778.703, 924.167 778.546 C 924.350 778.388, 926.623 777.333, 929.217 776.200 C 936.139 773.179, 943.240 766.052, 946.620 758.734 C 950.860 749.555, 950.898 732.499, 946.698 723.500 C 941.779 712.958, 934.179 706.571, 924.082 704.491 L 918.663 703.375 916.420 694.937 C 913.278 683.116, 910.002 674.798, 903.422 661.935 C 884.951 625.823, 847.364 595.033, 809.500 584.998 C 805.100 583.831, 800.988 582.713, 800.361 582.513 C 799.610 582.272, 800.366 579.105, 802.581 573.207 C 807.640 559.738, 811.004 539.924, 812.038 517.500 C 813.841 478.403, 822.439 461.359, 846.454 449.274 C 862.279 441.311, 869.392 434.893, 872.989 425.332 C 878.401 410.946, 871.865 397.093, 856.159 389.657 C 835.346 379.804, 804.335 391.099, 781.901 416.703 C 762.933 438.351, 756.793 458.211, 755.066 503.500 C 754.520 517.800, 753.364 533.775, 752.496 539 C 749.229 558.667, 741.119 575.002, 730.656 582.988 L 725.500 586.922 724.879 565.711 C 724.388 548.920, 723.832 542.918, 722.210 536.907 C 714.296 507.569, 696.252 493.961, 667 495.271 C 661.225 495.530, 655.825 496.022, 655 496.365 C 653.815 496.858, 652.805 494.631, 650.193 485.774 C 647.656 477.170, 640.670 457.997, 638.231 452.942 C 638.083 452.635, 640.470 451.344, 643.535 450.074 C 664.619 441.335, 693.218 418.343, 709.422 397.105 C 742.151 354.209, 744.005 289.199, 714.487 219.500 C 711.925 213.450, 709.627 208.023, 709.380 207.440 C 709.134 206.857, 711.342 204.720, 714.287 202.691 C 729.025 192.541, 740.248 177.151, 744.715 160.968 C 747.639 150.372, 747.182 129.509, 743.834 120.758 C 736.538 101.691, 721.350 85.767, 701.446 76.314 C 680.846 66.531, 654.168 72.805, 634.916 91.959 C 629.299 97.547, 624.509 103.548, 621.059 109.316 C 617.005 116.094, 615.406 117.985, 614.143 117.497 C 601.319 112.545, 567.724 105.065, 544.375 101.962 C 532.051 100.325, 495.597 101.220, 483.500 103.457 C 471.268 105.718, 460.304 108.495, 449.187 112.147 C 444.065 113.830, 439.743 115.048, 439.583 114.854 C 439.424 114.659, 437.174 110.137, 434.584 104.805 C 426.432 88.019, 414.585 77.471, 399.458 73.531 C 391.657 71.499, 377.159 71.664, 369.500 73.872 M 372.348 83.420 C 352.420 88.254, 335.782 107.741, 331.810 130.900 C 328.857 148.121, 337.189 167.477, 352.915 179.933 L 356.711 182.939 362.355 175.476 C 365.460 171.372, 368 167.859, 368 167.669 C 368 167.480, 366.210 165.444, 364.023 163.144 C 346.990 145.240, 361.797 105.529, 383.123 111.919 C 387.748 113.304, 396.799 122.041, 400.733 128.916 C 402.176 131.437, 403.437 133.623, 403.536 133.774 C 403.635 133.925, 406.698 132.237, 410.343 130.022 C 413.989 127.807, 419.889 124.557, 423.455 122.798 C 430.946 119.104, 430.993 118.799, 425.623 108.527 C 415.394 88.962, 393.003 78.410, 372.348 83.420 M 668.618 83.049 C 652.317 87.142, 634.375 103.956, 625.478 123.478 C 622.695 129.585, 621.586 131.107, 620.225 130.683 C 619.276 130.387, 613.376 128.299, 607.113 126.043 C 600.850 123.787, 595.647 122.067, 595.551 122.221 C 595.455 122.374, 593.658 125.875, 591.557 130 C 580.777 151.167, 560.795 180.511, 556.412 181.611 C 548.245 183.661, 548.901 172.345, 559.134 134.705 C 561.944 124.368, 564.054 115.721, 563.823 115.490 C 563.369 115.035, 548.088 112.448, 541.385 111.691 L 537.269 111.226 533.274 118.363 C 527.724 128.275, 523.161 139.384, 514.892 163.109 C 504.139 193.961, 500.509 201, 495.351 201 C 491.889 201, 490.244 196.715, 488.977 184.394 C 486.892 164.111, 490.687 129.008, 496.644 113.485 C 497.284 111.818, 496.815 111.731, 490.418 112.340 C 475.569 113.754, 474.096 114.533, 470.853 122.680 C 469.281 126.629, 465.353 139.581, 462.124 151.462 C 455.996 174.011, 454.429 177.311, 450.101 176.797 C 446.224 176.337, 444.029 171.450, 442.923 160.815 C 442.030 152.241, 443.056 130.963, 444.612 125.750 C 445.343 123.302, 445.199 123.351, 433.225 129.574 C 411.516 140.857, 392.989 155.669, 377.517 174.109 C 367.787 185.705, 364.111 191.432, 357.409 205.429 C 348.539 223.953, 335.977 265.826, 338.989 266.830 C 339.712 267.071, 343.786 269.011, 348.042 271.141 C 369.074 281.668, 366.849 293.459, 343.826 293.489 L 335.151 293.500 334.585 296.326 C 333.599 301.253, 332.674 329.563, 333.404 332.474 L 334.105 335.266 344.619 334.562 C 356.347 333.776, 360 334.913, 360 339.349 C 360 343.403, 354.190 347.367, 342.349 351.391 L 336.143 353.500 339.914 364.760 C 341.989 370.952, 343.914 376.247, 344.193 376.526 C 344.472 376.806, 347.011 376.501, 349.834 375.849 C 360.919 373.290, 363.680 380.147, 355.218 389.222 L 352.680 391.944 358.446 399.472 C 382.915 431.419, 424.342 451.020, 483.500 458.641 C 500.299 460.805, 546.525 461.068, 568 459.121 C 606.715 455.612, 653.608 438.563, 671.717 421.414 L 677.500 415.937 669.273 412.615 C 660.055 408.893, 636.619 393.609, 631.915 388.251 C 627.862 383.634, 628.145 379.633, 632.555 379.201 C 634.236 379.037, 647.329 381.849, 661.653 385.451 C 675.976 389.052, 690.399 392.281, 693.704 392.627 L 699.714 393.255 703.450 388.377 C 706.603 384.263, 716 366.449, 716 364.589 C 716 364.265, 714.484 364, 712.631 364 C 703.450 364, 679.728 358.424, 664.667 352.725 C 652.432 348.096, 646.195 340.948, 650.571 336.571 C 651.921 335.222, 655.978 334.995, 679.321 334.965 C 706.428 334.930, 720.767 333.641, 723.391 331.003 C 724.582 329.806, 725.024 296.690, 723.865 295.532 C 723.516 295.183, 718.173 295.639, 711.992 296.545 C 697.146 298.722, 668.848 298.182, 661.821 295.588 C 655.844 293.381, 651.763 289.662, 652.182 286.802 C 652.453 284.957, 654.656 283.941, 667 279.966 C 688.307 273.105, 717 260.919, 717 258.730 C 717 256.597, 710.504 236.038, 707.376 228.271 C 703.384 218.357, 700.810 213.206, 696.376 206.255 L 693.031 201.010 699.877 197.562 C 714.239 190.329, 723.996 180.416, 730.616 166.332 C 745.368 134.944, 733.193 104.167, 699.357 87.315 C 690.919 83.112, 689.531 82.735, 681.357 82.418 C 676.486 82.229, 670.753 82.513, 668.618 83.049 M 672.610 118.474 C 664.261 121.450, 650.494 133.085, 644.838 141.946 C 640.115 149.345, 641.253 155.014, 648.457 159.970 C 650.972 161.701, 657.688 166.836, 663.380 171.381 C 678.751 183.655, 683.053 184.561, 691.168 177.230 C 702.485 167.005, 707.860 153.418, 705.796 140.250 C 703.192 123.630, 687.336 113.226, 672.610 118.474 M 376.500 119.952 C 371.303 122.048, 364.622 132.349, 363.358 140.215 C 362.243 147.153, 368.933 159, 373.966 159 C 374.900 159, 380.684 154.473, 386.821 148.940 L 397.980 138.880 393.020 131.529 C 386.453 121.798, 381.145 118.079, 376.500 119.952 M 671.972 127.701 C 665.518 130.917, 652.430 143.437, 651.454 147.329 C 650.953 149.323, 651.277 150.650, 652.631 152.148 C 655.829 155.685, 676.387 171.702, 678.618 172.394 C 688.547 175.474, 701.308 154.789, 697.996 140.981 C 694.674 127.137, 684.017 121.699, 671.972 127.701 M 387.222 217.410 C 375.991 221.074, 368.979 231.702, 376.539 233.599 C 378.372 234.059, 379.951 233.342, 383.169 230.587 C 388.525 226.002, 393.983 224.437, 399.900 225.787 C 403.897 226.699, 404.515 226.576, 406.650 224.441 C 409.749 221.342, 409.619 220.371, 405.838 218.416 C 401.538 216.193, 392.457 215.702, 387.222 217.410 M 584 223.671 C 576.052 225.071, 572.247 227.875, 573.581 231.350 C 574.464 233.652, 576.686 234.079, 581.808 232.931 C 589.968 231.102, 596.392 234.066, 603.295 242.845 C 606.976 247.527, 612.377 243.739, 610.046 238.111 C 606.169 228.750, 593.871 221.933, 584 223.671 M 392.163 290.717 C 387.745 291.558, 380.333 299.945, 378.657 306 C 375.162 318.631, 375.788 323, 381.093 323 C 383.171 323, 383.814 321.781, 386.374 313 C 389.495 302.294, 394.314 297.455, 399.502 299.819 C 403.609 301.690, 405.990 306.695, 406.012 313.500 C 406.038 321.773, 408.464 324.465, 413.018 321.275 C 415.073 319.835, 415.218 319.138, 414.708 313.100 C 413.747 301.710, 409.614 294.826, 401.768 291.548 C 398.074 290.004, 396.586 289.875, 392.163 290.717 M 561.960 306.644 C 552.546 315.125, 549.835 332.054, 558.088 330.827 C 559.868 330.562, 560.781 328.981, 562.893 322.500 C 565.181 315.480, 565.936 314.267, 569.060 312.594 C 575.945 308.907, 581.636 313.369, 582.607 323.215 C 583.578 333.058, 583.629 333.153, 587.784 332.808 L 591.500 332.500 591.426 325.856 C 591.367 320.597, 590.742 317.999, 588.426 313.400 C 584.480 305.563, 581.620 303.657, 573.088 303.175 C 566.333 302.793, 566.183 302.840, 561.960 306.644 M 458.500 320.946 C 449.559 321.978, 440.164 324.614, 437.048 326.963 L 434.616 328.798 436.338 334.991 C 439.832 347.559, 447.064 358.155, 456.863 365.066 L 462.743 369.213 463.399 376.448 C 464.532 388.946, 463.333 394.963, 459.381 396.614 C 452.113 399.651, 446.851 397.752, 437.066 388.562 C 429.521 381.476, 428.942 381.201, 426.571 383.571 C 423.910 386.233, 424.789 388.896, 430.250 394.702 C 439.711 404.762, 453.420 408.776, 463.678 404.490 C 467.107 403.057, 467.631 403.119, 473.896 405.702 C 490.184 412.416, 512.219 406.760, 522.566 393.209 C 526.536 388.010, 527.079 383.648, 523.962 381.980 C 521.069 380.431, 518.939 381.508, 515.490 386.264 C 507.502 397.277, 494.035 402.187, 481.673 398.593 C 474.788 396.592, 473.013 394.239, 472.279 386.141 C 471.154 373.737, 472.053 371.693, 481.312 365.593 C 497.264 355.083, 509.720 341.351, 508.561 335.554 C 507.795 331.727, 505.605 328.442, 502.432 326.364 C 495.875 322.067, 473.108 319.260, 458.500 320.946 M 455 330.692 C 444.547 332.446, 443.080 335.211, 448.138 343.628 C 454.639 354.448, 464.478 361.072, 471.101 359.088 C 479.433 356.591, 494.321 344.779, 497.257 338.335 C 498.919 334.687, 495.919 332.329, 488 331.058 C 481.765 330.058, 460.205 329.818, 455 330.692 M 830 396.020 C 823.059 397.448, 808.179 405.323, 801.314 411.202 C 797.911 414.116, 795.107 416.725, 795.083 417 C 795.058 417.275, 797.948 419.202, 801.505 421.281 C 810.716 426.667, 819.433 434.221, 824.664 441.349 C 830.250 448.960, 830.058 448.899, 835.236 444.694 C 837.581 442.789, 842.875 439.559, 847 437.516 C 865.161 428.522, 870.500 415.201, 860.417 404.040 C 853.903 396.830, 841.703 393.613, 830 396.020 M 773.605 446.793 C 770.534 452.854, 768.339 460.768, 767.543 468.655 L 766.922 474.809 776.711 478.044 C 789.281 482.198, 795.142 485.168, 800.479 490.087 L 804.778 494.050 805.830 488.073 C 806.409 484.786, 808.240 478.866, 809.899 474.917 L 812.916 467.738 810.017 463.524 C 804.612 455.669, 793.402 447.398, 783.593 444.029 C 775.919 441.393, 776.410 441.257, 773.605 446.793 M 619 458.593 C 585.092 469.421, 520.438 473.802, 479.465 468.048 C 476.184 467.588, 473.245 467.501, 472.934 467.855 C 472.027 468.887, 465.727 505.060, 466.345 505.679 C 467.542 506.875, 484.901 508.062, 492.500 507.467 C 512.068 505.934, 528.781 501.107, 549 491.149 C 556.425 487.492, 562.837 484.350, 563.250 484.167 C 565.427 483.199, 563.756 490.326, 561.250 492.693 C 557.095 496.618, 547.637 502.545, 541.405 505.128 C 536.808 507.033, 535.932 507.782, 536.327 509.465 C 536.590 510.584, 538.028 516, 539.523 521.500 C 543.307 535.424, 543.692 553.741, 540.272 557.168 C 535.546 561.904, 533.657 559.774, 521.648 536.170 L 510.795 514.840 505.648 515.493 C 496.662 516.631, 496.849 516.469, 497.726 522.325 C 498.898 530.156, 498.333 552.786, 496.812 558.971 C 495.102 565.924, 491.290 568.787, 488.129 565.493 C 486.541 563.838, 486.031 560.957, 485.123 548.500 C 484.117 534.689, 482.710 526.591, 480.155 519.897 C 479.307 517.676, 478.377 517.202, 473.813 516.666 C 464.381 515.557, 453.508 512.273, 435.792 505.181 C 402.425 491.824, 394.531 491.312, 383.665 501.799 C 371.701 513.347, 374.193 522.210, 388.024 517.298 C 397.782 513.832, 401.422 519.525, 393.220 525.422 C 387.613 529.454, 385.918 532.108, 385.689 537.216 C 385.434 542.894, 388.391 544.538, 395.944 542.919 C 404.980 540.981, 406.625 544.811, 399.580 551.379 C 388.302 561.892, 394.170 568.559, 410.193 563.438 C 421.048 559.969, 423.187 560.357, 437.671 568.425 C 460.320 581.039, 504.357 586.999, 531.734 581.154 C 557.103 575.737, 586.797 560.205, 598.805 546.068 C 603.175 540.924, 606.311 539.711, 608.800 542.200 C 613.835 547.235, 600.293 561.507, 579.142 573.457 C 544.115 593.247, 509.454 597.824, 466.196 588.371 C 462.178 587.493, 458.637 587.029, 458.327 587.340 C 457.029 588.637, 455.785 605.217, 456.452 612.330 L 457.172 620.014 527.336 619.482 C 565.926 619.190, 612.061 618.684, 629.858 618.357 L 662.217 617.764 661.557 609.132 C 657.930 561.668, 650.715 519.406, 640.392 485.152 C 637.154 474.408, 629.040 455.971, 627.606 456.099 C 626.998 456.154, 623.125 457.276, 619 458.593 M 337.500 477.839 C 327.874 482.387, 322.449 490.953, 305.930 527.693 C 297.855 545.652, 295.359 551.912, 290.008 567.629 L 286.218 578.758 296.359 579.417 C 301.937 579.779, 307.639 580.298, 309.032 580.569 L 311.563 581.063 316.365 558.998 C 319.006 546.862, 322.291 533.460, 323.665 529.216 C 332.135 503.043, 347.892 492.810, 363.496 503.349 L 368.353 506.630 372.687 500.167 C 376.711 494.166, 376.895 493.610, 375.261 492.401 C 357.194 479.035, 354.986 477.857, 345.500 476.515 C 342.698 476.119, 340.302 476.516, 337.500 477.839 M 447.249 488.662 C 441.062 492.326, 436.003 495.589, 436.007 495.912 C 436.011 496.235, 440.666 498.129, 446.351 500.121 L 456.688 503.742 457.934 494.218 C 458.619 488.980, 459.413 484.088, 459.697 483.347 C 460.578 481.051, 458.865 481.783, 447.249 488.662 M 764.648 516.118 C 764.280 522.928, 763.717 530.525, 763.396 533 L 762.813 537.500 769.657 537.789 C 778.325 538.155, 787.753 540.325, 794.311 543.464 C 797.122 544.809, 799.574 545.759, 799.759 545.574 C 799.945 545.389, 800.829 539.602, 801.725 532.714 C 803.263 520.900, 803.256 520.040, 801.613 517.533 C 797.622 511.441, 783.759 505.150, 772.408 504.279 L 765.316 503.735 764.648 516.118 M 656.400 507.250 C 661.994 527.137, 669.622 581.341, 670.209 605.388 L 670.500 617.275 683.690 616.648 C 690.944 616.303, 700.666 615.730, 705.294 615.374 L 713.710 614.727 714.605 600.114 C 716.819 563.970, 715.023 540.582, 709.110 528.573 C 700.809 511.713, 688.876 505, 667.202 505 C 655.822 505, 655.770 505.011, 656.400 507.250 M 346.763 510.531 C 340.950 513.758, 341.253 514.720, 356.779 542.336 L 362.309 552.173 368.863 545.618 L 375.417 539.064 371.959 531.826 C 362.882 512.831, 354.848 506.041, 346.763 510.531 M 334.933 528.583 C 330.470 539.961, 327.243 552.790, 324.514 570 C 322.432 583.133, 322.140 582.246, 329.240 584.333 L 335.478 586.166 336.989 583.864 C 337.820 582.597, 340.937 578.172, 343.916 574.031 C 346.896 569.889, 350.653 564.647, 352.266 562.382 L 355.199 558.265 346.955 543.882 C 335.631 524.125, 336.332 525.017, 334.933 528.583 M 375.973 550.340 C 372.933 552.727, 368.059 557.339, 365.142 560.590 C 360.015 566.303, 346 586.293, 346 587.893 C 346 589.459, 361.450 595.458, 363.006 594.496 C 363.574 594.145, 365.166 591.633, 366.544 588.913 C 367.922 586.194, 371.599 580.964, 374.714 577.292 C 386.281 563.656, 388.821 557.090, 385.248 550.060 C 382.860 545.360, 382.295 545.378, 375.973 550.340 M 756 562.366 C 756 570.829, 735.692 594.312, 725.023 598.185 C 724.546 598.358, 723.830 601.834, 723.433 605.909 L 722.710 613.317 731.225 612.663 C 754.385 610.883, 768.664 605.667, 778.875 595.257 C 785.159 588.850, 793 576.298, 793 572.646 C 793 570.695, 785.755 566.389, 777.324 563.329 C 769.774 560.588, 756 559.966, 756 562.366 M 388.679 574.048 C 386.950 576.516, 386.932 576.444, 392.202 587.971 C 399.686 604.340, 403.917 609, 411.295 609 C 415.493 609, 418.489 606.075, 417.656 602.790 C 417.336 601.531, 414.324 595.207, 410.962 588.737 C 404.673 576.634, 403.068 574.967, 396.500 573.713 C 394.850 573.398, 392.759 572.853, 391.854 572.503 C 390.793 572.092, 389.664 572.642, 388.679 574.048 M 418.022 574.477 L 415.695 576.953 418.385 580.834 C 426.068 591.921, 430.090 609.104, 426.627 616.046 C 425.732 617.840, 425 619.463, 425 619.654 C 425 619.844, 430.017 620, 436.149 620 L 447.297 620 446.719 608.750 C 445.710 589.093, 442.477 582.009, 431.559 575.527 C 424.520 571.348, 421.203 571.091, 418.022 574.477 M 376.632 591 C 375.254 594.025, 373.985 597.081, 373.813 597.791 C 373.506 599.058, 387.881 605.452, 388.853 604.481 C 389.380 603.953, 382.870 590.514, 380.626 587.500 C 379.204 585.590, 379.024 585.749, 376.632 591 M 260.748 590.518 C 227.673 594.521, 195.541 606.682, 172.725 623.831 C 134.192 652.793, 109.804 702.198, 107.144 756.688 L 106.500 769.876 112.500 770.977 C 115.800 771.583, 129.075 773.868, 142 776.056 C 170.831 780.936, 173.929 781.948, 180.799 788.734 C 191.624 799.426, 192.988 808.375, 187.745 834.305 L 184.347 851.111 194.924 850.499 C 211.102 849.563, 209.496 851.071, 209.524 836.792 C 209.608 794.249, 233.869 755.664, 272.849 736.074 C 317.540 713.614, 364.930 720.117, 399.848 753.500 L 410.308 763.500 409.654 721.086 C 409.294 697.758, 408.989 666.258, 408.975 651.086 L 408.950 623.500 392.725 617.096 C 372.237 609.008, 328.871 594.620, 319 592.635 C 300.401 588.894, 280.225 588.161, 260.748 590.518 M 790.620 596.815 C 782.012 610.115, 763.382 618.767, 736.500 621.947 C 724.198 623.402, 690.708 626, 684.249 626 L 678.978 626 679.006 674.750 C 679.021 701.977, 678.616 725.266, 678.088 727.500 C 677.344 730.649, 675.693 732.768, 670.322 737.464 C 641.749 762.446, 625.393 792.703, 618.543 833.250 L 617.909 837 627.807 837 L 637.704 837 638.272 828.229 C 639.852 803.844, 654.649 772.946, 673.025 755.659 C 714.020 717.093, 771.581 711.975, 815.204 743.016 C 840.757 761.198, 858.690 788.718, 863.974 817.858 C 865.202 824.627, 865.531 846.452, 864.449 849.273 C 862.995 853.061, 903.044 850.282, 912.946 845.909 C 928.653 838.972, 935.278 817.562, 927.052 800.328 C 922.686 791.181, 919.787 788.616, 914.684 789.383 C 912.383 789.729, 905.100 790.295, 898.500 790.640 L 886.500 791.267 885.258 787.925 C 883.678 783.672, 883.911 783.507, 893.500 782.071 C 897.900 781.412, 904.251 780.416, 907.613 779.858 L 913.725 778.843 914.388 768.171 C 915.151 755.884, 913.646 727.681, 911.524 714.495 C 902.682 659.546, 863.415 612.700, 811.840 595.571 C 794.641 589.858, 795.141 589.829, 790.620 596.815 M 500.094 627.750 L 416.688 628.012 417.400 700.756 L 418.112 773.500 424.067 785.774 C 431.989 802.101, 435.029 812.652, 435.729 826.250 L 436.283 837 523.123 837 L 609.962 837 610.375 834.750 C 610.602 833.513, 611.725 827.052, 612.871 820.394 C 618.666 786.714, 635.387 757.029, 660.240 736.300 C 671.880 726.591, 671 731.562, 671 675.550 L 671 627 627.250 627.244 C 603.188 627.378, 545.967 627.606, 500.094 627.750 M 177.500 649.338 C 170.359 651.705, 167.580 653.683, 159.339 662.267 C 140.639 681.746, 132.797 711.184, 140.500 732.995 C 145.529 747.235, 152.686 751.941, 167.505 750.752 C 179.401 749.797, 190.380 742.366, 200.819 728.207 C 221.803 699.743, 220.709 662.084, 198.568 650.778 C 193.533 648.207, 183.073 647.492, 177.500 649.338 M 179.337 658.169 C 165.004 663.020, 149.144 689.924, 146.419 714.009 C 145.016 726.412, 152.002 739.972, 160.630 741.590 C 176.611 744.588, 198.060 724.725, 204.025 701.404 C 210.080 677.726, 202.698 658.388, 187.225 657.400 C 184.626 657.234, 181.077 657.580, 179.337 658.169 M 597.448 661.918 C 585.791 662.532, 582.534 663.689, 579.588 668.264 C 576.855 672.508, 576.726 677.138, 579.206 681.941 C 583.833 690.900, 589.860 692.496, 616.133 691.718 C 637.267 691.092, 638.822 690.526, 642.517 682.128 C 645.797 674.671, 643.214 667.177, 636.131 663.599 C 632.920 661.977, 612.877 661.107, 597.448 661.918 M 592.049 669.970 C 585.623 671.571, 584.223 676.376, 588.837 680.991 C 592.493 684.647, 596.863 685.286, 615.181 684.846 C 632.401 684.433, 635 683.421, 635 677.132 C 635 670.088, 633.439 669.529, 613.146 669.305 C 603.441 669.198, 593.947 669.497, 592.049 669.970 M 921.008 715.237 C 921.012 716.481, 921.687 722.883, 922.508 729.462 C 923.329 736.041, 924 747.404, 924 754.712 C 924 762.157, 924.406 768, 924.922 768 C 927.278 768, 934.604 760.954, 937.398 756 C 945.355 741.893, 938.795 720.387, 924.750 714.535 C 921.061 712.998, 921 713.010, 921.008 715.237 M 304 733.893 C 255.341 744.681, 219 788.764, 219 837 C 219 898.052, 276.605 948.758, 335.475 939.527 C 371.296 933.910, 399.141 914.919, 412.843 886.759 C 425.129 861.511, 428.688 839.678, 424.466 815.467 C 418.155 779.278, 385.679 744.858, 348.500 734.956 C 336.846 731.852, 315.506 731.343, 304 733.893 M 733.500 733.593 C 676.577 746.297, 637.289 803.831, 649.494 856.612 C 660.142 902.661, 695.061 934.080, 742.183 940.011 C 810.197 948.572, 869.994 878.896, 852.900 811 C 844.308 776.873, 813.496 745.996, 777.500 735.440 C 765.885 732.035, 744.506 731.137, 733.500 733.593 M 96.457 781.863 C 87.503 787.323, 83.577 796.023, 84.245 808.927 C 85.030 824.106, 90.035 834.544, 98.792 839.266 C 110.437 845.546, 124.207 848.016, 167.119 851.523 L 174.738 852.146 178.070 835.323 C 182.362 813.655, 182.473 807.156, 178.662 800.672 C 173.073 791.163, 168.151 789.477, 128.500 783.491 C 101.810 779.461, 100.505 779.394, 96.457 781.863 M 310.428 783.500 C 285.427 790.244, 270.641 808.048, 269.274 833.056 C 268.322 850.457, 273.319 863.615, 285.391 875.500 C 300.525 890.400, 320.094 894.944, 339.714 888.114 C 357.729 881.843, 368.474 870.603, 374.924 851.282 C 383.884 824.443, 364.781 790.913, 336.356 783.584 C 328.938 781.672, 317.345 781.634, 310.428 783.500 M 738.202 784.022 C 727.564 786.809, 719.451 791.474, 712.189 798.978 C 683.428 828.699, 697.714 878.792, 738.008 889.515 C 755.525 894.176, 778.893 887.950, 789.344 875.836 C 800.224 863.224, 805.226 851.409, 805.363 838 C 805.541 820.622, 800.600 808.604, 788.616 797.269 C 773.712 783.171, 757.605 778.939, 738.202 784.022 M 312.510 792.175 C 284.895 797.441, 270.200 830.045, 283.085 857.457 C 289.283 870.643, 307.291 882, 322 882 C 332.734 882, 349.450 874.618, 356.570 866.734 C 385.302 834.916, 355.230 784.029, 312.510 792.175 M 741.112 792.581 C 722.747 797.519, 711.200 810.174, 707.423 829.500 C 703.163 851.298, 715.224 871.288, 737.288 879 C 764.814 888.620, 794.435 868.840, 795.818 839.918 C 796.565 824.304, 793.162 814.998, 783.050 805 C 770.719 792.808, 756.226 788.516, 741.112 792.581 M 435.571 847.250 C 435.370 847.938, 434.651 851.875, 433.975 856 C 433.298 860.125, 432.363 864.513, 431.897 865.750 L 431.050 868 536.641 868 L 642.233 868 641.615 865.750 C 641.276 864.513, 640.449 859.563, 639.778 854.750 L 638.558 846 537.248 846 C 457.061 846, 435.861 846.261, 435.571 847.250" stroke="none" fill="#1a1a1a" fill-rule="evenodd"/>
</svg>