<svg xmlns="http://www.w3.org/2000/svg" width="1024" height="1024" viewBox="0 0 1024 1024" version="1.1">
	<path d="M 297.763 48.973 C 255.163 56.682, 226.545 92.954, 230.042 134.807 C 231.543 152.769, 235.860 163.975, 245.898 175.960 C 256.786 188.959, 262.683 193.257, 277.500 198.990 C 280.800 200.267, 283.837 201.601, 284.249 201.955 C 284.661 202.309, 282.318 206.950, 279.041 212.269 C 272.117 223.511, 267.441 232.494, 263.044 243 C 261.318 247.125, 259.050 252.525, 258.004 255 C 250.188 273.491, 244.001 291.786, 240.926 305.500 C 239.816 310.450, 238.690 315.400, 238.423 316.500 C 238.157 317.600, 237.318 322.550, 236.560 327.500 C 230.699 365.756, 232.558 386.558, 243.992 410.678 C 261.069 446.701, 294.496 477.396, 340.884 499.652 L 352.267 505.114 346.384 507.905 C 338.587 511.604, 315.066 527.440, 307.393 534.155 C 289.518 549.800, 259.479 584.477, 251.114 599.123 C 247.607 605.264, 248.068 605.855, 241.620 586.960 C 236.028 570.571, 235.896 567.720, 240.378 560.074 C 249.639 544.271, 249.040 530.907, 237.414 494 C 225.368 455.761, 219.173 439.855, 215.709 438.277 C 212.839 436.970, 209 438.394, 209 440.767 C 209 442.548, 224.990 490.883, 232.565 512 C 238.045 527.277, 238.645 540.888, 234.252 550.275 C 232.519 553.978, 229.985 557.587, 228.248 558.823 C 224.566 561.445, 223.785 564.032, 225.611 567.552 C 226.376 569.026, 228.585 575.753, 230.520 582.501 C 232.455 589.249, 235.776 599.659, 237.901 605.635 C 240.025 611.611, 242.076 618.384, 242.459 620.687 C 243.154 624.871, 243.152 624.874, 239.283 626.033 C 232.170 628.165, 231.214 627.485, 227.291 617.500 C 225.347 612.550, 221.596 600.039, 218.957 589.697 C 216.317 579.356, 213.654 570.288, 213.040 569.548 C 212.425 568.807, 208.902 567.406, 205.211 566.434 C 187.030 561.649, 182.255 555.143, 176.636 527.500 C 175.294 520.900, 172.605 507.850, 170.659 498.500 C 168.714 489.150, 166.162 476.106, 164.988 469.514 C 163.814 462.922, 162.382 456.960, 161.804 456.264 C 160.306 454.459, 155.337 454.678, 154.607 456.582 C 153.341 459.880, 154.089 474.816, 155.904 482.500 C 156.944 486.900, 158.089 492.525, 158.449 495 C 159.313 500.932, 160.947 508.436, 162.587 514 C 163.317 516.475, 164.663 522.325, 165.580 527 C 167.874 538.709, 172.584 552.558, 176.220 558.289 C 180.876 565.627, 191.429 573.266, 200.759 576.051 C 204.603 577.198, 205.152 577.769, 206.395 581.911 C 210.021 593.992, 219.104 623.796, 219.876 626.143 C 220.722 628.715, 220.528 628.872, 212.768 631.909 C 198.938 637.323, 191.857 643.104, 180.419 658.320 C 169.698 672.582, 166.998 682.082, 166.267 708.125 C 165.650 730.080, 166.692 736.425, 173.478 752.059 L 177.793 762 110.096 762 C 38.474 762, 40 761.899, 40 766.629 C 40 772.514, 36.711 772.280, 113.945 771.894 C 152.750 771.700, 185.400 771.879, 186.500 772.292 C 187.600 772.704, 189.625 774.616, 191 776.540 C 195.187 782.400, 206.104 791.148, 213.527 794.593 C 229.055 801.800, 253.704 803.914, 266.162 799.107 C 276.986 794.930, 291.385 784.967, 299.182 776.257 L 302.865 772.144 379.495 771.676 C 421.641 771.419, 455.980 771.353, 455.803 771.530 C 455.626 771.707, 448.511 772.567, 439.991 773.440 C 382.967 779.287, 331.109 792.539, 302.050 808.692 C 278.568 821.745, 264.356 835.036, 257.880 850 C 254.760 857.210, 254.429 874.885, 257.284 881.855 C 264.519 899.518, 282.306 914.281, 314.463 929.314 C 324.933 934.208, 338 941.031, 343.500 944.474 C 372.448 962.600, 397.114 971.304, 441 978.883 C 464.186 982.887, 529.256 984.041, 562.500 981.037 C 603.359 977.345, 655.539 960.350, 673.754 944.803 C 677.610 941.511, 680.975 939.799, 687.723 937.696 C 708.142 931.330, 732.933 917.024, 746.096 904.010 C 779.830 870.656, 764.945 832.260, 707.718 805.015 C 673.416 788.684, 626.762 777.276, 576.500 772.929 C 570.450 772.405, 564.600 771.835, 563.500 771.661 C 562.400 771.487, 598.203 771.254, 643.062 771.142 L 724.624 770.939 727.746 775.757 C 738.031 791.630, 761.888 803.024, 784.803 803.007 C 806.238 802.991, 818.607 797.636, 834.803 781.359 L 846.106 770 910.853 770 C 979.442 770, 978 770.100, 978 765.323 C 978 759.675, 978.666 759.723, 912.095 760.531 L 851.157 761.272 854.590 752.625 C 865.353 725.517, 865.794 703.913, 856.141 676.725 C 849.319 657.511, 834.183 641.193, 818.750 636.415 C 814.947 635.237, 813.002 634.104, 813.005 633.067 C 813.012 630.978, 822.624 592.771, 828.494 571.500 C 835.821 544.950, 838.068 536.192, 847.488 497.500 C 851.103 482.650, 854.691 468.025, 855.461 465 C 856.232 461.975, 857.289 457.025, 857.810 454 C 858.331 450.975, 861.104 439.275, 863.972 428 C 873.184 391.778, 871.743 380.686, 858.037 382.309 C 834.668 385.077, 805.480 429.127, 789.331 486 C 787.379 492.875, 784.697 502.325, 783.371 507 C 774.515 538.219, 773.959 560.790, 781.665 576.255 L 785.030 583.010 782.425 591.755 C 779.666 601.018, 777.406 609.546, 776.398 614.500 L 775.787 617.500 773.644 614.621 C 766.411 604.906, 740.665 572.295, 735.259 566 C 719.680 547.861, 687.895 519.347, 671.772 509.048 L 665.045 504.750 676.534 499.464 C 702.008 487.741, 729.433 468.042, 742.612 452 C 744.193 450.075, 746.135 447.825, 746.926 447 C 749.911 443.889, 758.946 429.153, 763.356 420.206 C 779.300 387.853, 781.258 350.370, 769.400 304.500 C 764.631 286.055, 747.469 239.783, 739.628 224.229 C 736.514 218.052, 731 204.206, 731 202.563 C 731 201.856, 733.587 200.289, 736.750 199.081 C 759.939 190.222, 775.540 173.414, 782.306 150 C 793.331 111.850, 772.585 69.154, 735.779 54.248 C 714.103 45.469, 695.841 46.127, 674.500 56.454 C 656.300 65.261, 645.973 74.982, 636.557 92.171 L 632.903 98.842 625.702 95.570 C 609.634 88.268, 582.907 79.829, 562 75.455 C 556.967 74.402, 544.192 72.924, 532 71.983 C 525.125 71.453, 515.793 70.733, 511.262 70.382 C 481.490 68.078, 420.349 79.860, 386.876 94.352 L 383.253 95.921 376.659 86.018 C 358.716 59.069, 326.241 43.820, 297.763 48.973 M 699 59.074 C 688.110 60.846, 669.018 69.768, 660.880 76.886 C 654.884 82.131, 642.857 99.796, 640.266 107.163 C 637.570 114.826, 636.245 115.025, 626.663 109.207 C 617.877 103.873, 603.242 97, 600.668 97 C 599.041 97, 595.580 106.518, 593.032 118 C 589.855 132.322, 569.446 176.931, 564.174 181.078 C 556.092 187.435, 555.132 171.695, 561.058 130 C 562.860 117.317, 565.468 105.443, 568.315 96.955 L 570.622 90.074 563.561 88.455 C 550.678 85.500, 541.876 84, 537.412 84 L 533 84 533.003 90.250 C 533.008 101.639, 530.029 129.514, 527.366 143 C 524.495 157.536, 515.918 184.354, 512.415 189.750 C 510.757 192.303, 505.498 192.846, 502.734 190.750 C 499.244 188.103, 491.820 157.642, 489.513 136.500 C 488.612 128.250, 486.972 114.118, 485.868 105.096 C 484.764 96.074, 484.125 87.637, 484.449 86.346 C 484.940 84.392, 484.652 84, 482.731 84 C 478.798 84, 449 88.013, 449 88.543 C 449 88.696, 450.089 93.024, 451.421 98.161 C 457.643 122.169, 461.705 177.353, 457.585 181.907 C 453.102 186.860, 451.227 184.889, 441.974 165.490 C 430.575 141.593, 426.424 130.642, 424.351 119 C 424.106 117.625, 423.507 114.925, 423.020 113 C 422.533 111.075, 421.826 106.907, 421.450 103.737 C 421.074 100.567, 420.410 97.753, 419.975 97.484 C 418.837 96.781, 402.576 103.150, 390.742 108.934 C 379.193 114.578, 378.540 114.502, 376.073 107.215 C 373.222 98.794, 364.956 86.095, 357.314 78.398 C 342.504 63.481, 318.020 56.032, 296.886 60.015 C 276.243 63.906, 250.868 86.951, 243.575 108.429 C 232.172 142.017, 251.069 180.674, 283.884 190.887 L 290.047 192.805 292.356 189.652 C 298.108 181.797, 305.997 169.992, 305.968 169.282 C 305.951 168.852, 302.822 166.352, 299.016 163.727 C 287.785 155.981, 281.465 146.836, 278.678 134.300 C 276.293 123.568, 277.895 119.008, 287.388 109.516 C 295.303 101.600, 299.830 99.370, 305.733 100.478 C 320.091 103.171, 328.280 110.629, 337.885 129.760 C 343.135 140.216, 342.961 140.933, 332.444 152.175 C 319.632 165.870, 310.146 179.764, 285.058 221.582 C 281.401 227.678, 276.459 237.559, 274.077 243.542 L 269.744 254.418 272.082 255.959 C 273.368 256.807, 279.388 261.127, 285.460 265.560 C 291.532 269.993, 301.530 276.640, 307.679 280.331 C 320.907 288.272, 324.237 291.692, 323.802 296.889 C 323.553 299.863, 322.883 300.822, 320 302.328 C 314.018 305.451, 283.357 303.084, 256.871 297.453 C 254.478 296.944, 254.178 297.234, 253.519 300.697 C 252.649 305.276, 252.542 305.827, 250.064 318.500 C 248.988 324, 248.422 328.800, 248.804 329.167 C 250.478 330.771, 271.360 337.315, 280.300 339.037 C 285.689 340.075, 295.364 341.202, 301.800 341.541 C 317.432 342.365, 321 343.906, 321 349.835 C 321 352.947, 312.488 360.522, 304.662 364.375 C 293.550 369.846, 252.366 380.121, 248.103 378.486 C 246.961 378.048, 246.816 379.096, 247.309 384.225 C 249.557 407.622, 270.570 438.876, 299.438 461.760 C 315.554 474.536, 350.190 493.207, 369.500 499.529 C 375 501.330, 382.748 503.970, 386.718 505.397 C 404.065 511.631, 433.402 518.047, 465 522.517 C 480.383 524.693, 482.835 524.986, 490 525.505 C 493.575 525.764, 498.750 526.223, 501.500 526.524 C 504.250 526.826, 513.925 526.586, 523 525.992 C 576.842 522.463, 634.670 507.701, 677.500 486.550 C 717.615 466.741, 740.044 445.643, 754.489 414.130 C 759.028 404.229, 764.595 384.992, 763.641 382.506 C 763.360 381.775, 760.304 380.952, 756.329 380.537 C 715.231 376.249, 678.985 356.216, 692.312 345.156 C 693.212 344.410, 699.564 343.800, 709.617 343.496 C 718.352 343.232, 726.625 342.802, 728 342.542 C 729.375 342.282, 736.125 341.162, 743 340.054 C 756.513 337.877, 761.502 336.658, 763.423 335.064 C 764.445 334.215, 758.183 300.776, 756.750 299.432 C 756.612 299.303, 753.125 299.811, 749 300.560 C 734 303.285, 706.961 306.013, 701.214 305.381 C 692.824 304.458, 689.184 302.499, 688.435 298.504 C 687.513 293.589, 689.174 291.564, 698.771 285.910 C 711.008 278.700, 726.804 266.940, 740.345 254.958 C 740.809 254.547, 738.393 247.751, 734.976 239.855 C 718.464 201.711, 700.422 172.397, 682.310 154.284 C 677.189 149.164, 673 144.158, 673 143.160 C 673 137.473, 682.970 117.977, 689.346 111.196 C 704.004 95.608, 719.864 97.150, 732.257 115.368 C 735.881 120.694, 736.433 122.222, 736.464 127 C 736.548 139.900, 728.648 153.958, 716.503 162.525 C 705.775 170.091, 706.422 168.615, 710.683 175.794 C 712.738 179.255, 716.509 184.421, 719.064 187.272 L 723.707 192.457 729.604 190.607 C 750.634 184.008, 766.861 166.732, 772.712 144.711 C 775.289 135.012, 775.010 117.421, 772.130 108 C 767.805 93.855, 757.117 80.167, 743.688 71.577 C 730.533 63.162, 709.699 57.333, 699 59.074 M 300.500 111.365 C 286.960 117.387, 284.038 130.722, 293.179 144.769 C 298.322 152.671, 307.535 160, 312.324 160 C 313.973 160, 331.343 142.596, 331.819 140.467 C 332.555 137.181, 320.573 118.264, 315 113.914 C 310.751 110.597, 304.641 109.523, 300.500 111.365 M 703.500 112.383 C 695.741 116.051, 690.546 122.997, 685.465 136.496 L 683.030 142.967 691.265 150.954 C 695.794 155.347, 700.302 158.955, 701.282 158.971 C 709.761 159.109, 723.653 144.641, 726.950 132.239 C 728.481 126.480, 725.385 120.157, 718.142 114.253 C 712.139 109.359, 710.373 109.134, 703.500 112.383 M 384.892 205.354 C 370.513 211.269, 357.535 225.027, 359.384 232.394 C 360.616 237.303, 364.264 235.851, 372.844 227.037 C 382.731 216.881, 388.922 213.808, 400.750 213.184 L 409 212.749 409 208.910 C 409 203.935, 407.210 202.993, 397.816 203.024 C 392.505 203.041, 388.963 203.680, 384.892 205.354 M 602.643 204.499 C 601.538 205.605, 601.004 207.403, 601.196 209.375 L 601.500 212.500 610 213.008 C 622.976 213.783, 632.570 219.119, 640.792 230.132 C 644.768 235.457, 647.516 236.298, 650.427 233.080 C 654.592 228.479, 643.319 213.974, 630.537 207.486 C 621.428 202.862, 605.939 201.204, 602.643 204.499 M 392.602 296.413 C 386.014 298.262, 384.500 301.422, 384.500 313.326 C 384.500 325.142, 386.402 331.478, 391.149 335.472 C 399.804 342.755, 409.446 334.677, 409.923 319.742 C 410.502 301.581, 404.241 293.147, 392.602 296.413 M 459.546 295.925 C 458.353 297.856, 454.940 308.465, 453.410 315 C 449.185 333.045, 448.588 337.799, 448.561 353.628 L 448.534 369.756 453.213 379.128 C 461.073 394.868, 478.214 410.286, 494.113 415.915 C 505.397 419.910, 505.279 419.839, 504.600 422.278 C 504.260 423.500, 503.690 430.265, 503.333 437.312 L 502.685 450.124 498.593 453.395 C 482.620 466.161, 457.172 460.617, 448.034 442.381 C 444.691 435.708, 439.071 432.794, 436.210 436.250 C 432.956 440.179, 440.641 453.905, 449.512 460.009 C 466.786 471.893, 481.897 473.048, 500.767 463.924 L 509.033 459.927 513.673 463.119 C 533.593 476.824, 560.479 470.058, 576.054 447.421 C 580.838 440.468, 579.948 435, 574.033 435 C 570.933 435, 569.022 436.850, 566.490 442.300 C 564.006 447.648, 556.787 454.748, 551.220 457.320 C 544.582 460.386, 528.164 460.448, 522.990 457.426 C 515.221 452.889, 513.500 448.520, 513.500 433.333 C 513.500 417.725, 513.133 418.369, 523.891 415.102 C 535 411.727, 548.948 401.814, 556.627 391.835 C 564.629 381.435, 568.110 372.599, 568.661 361.290 C 569.504 343.943, 564.269 309.500, 559.192 299 C 556.003 292.404, 548.351 294.512, 550.785 301.316 C 553.045 307.632, 558.972 344.069, 558.989 351.750 C 559.001 357.348, 558.692 357.621, 554.315 355.880 C 536.081 348.623, 483.723 348.360, 461.650 355.415 C 457.655 356.691, 456.893 356.721, 457.329 355.585 C 457.620 354.826, 458.155 350.896, 458.516 346.852 C 459.492 335.944, 462.807 316.503, 465.105 308.212 C 467.830 298.385, 467.452 295.592, 463.344 295.194 C 461.608 295.025, 459.899 295.354, 459.546 295.925 M 615.169 296.044 C 605.644 298.150, 602.076 308.478, 605.501 324.028 C 607.740 334.189, 611.548 339, 617.354 339 C 627.951 339, 635.254 310.422, 627.247 300.289 C 624.730 297.104, 619.186 295.155, 615.169 296.044 M 485.797 360.603 C 474.580 361.891, 463.610 364.759, 459.864 367.383 C 454.310 371.273, 475.576 396.131, 491.335 404.171 C 505.729 411.514, 522.634 408.553, 538.613 395.890 C 549.062 387.609, 553.884 381.248, 557.517 370.953 L 558.837 367.211 550.836 364.567 C 535.904 359.632, 508.702 357.974, 485.797 360.603 M 636 389.062 C 633.525 389.517, 630.600 390.102, 629.500 390.362 C 618.298 393.006, 617.530 393.086, 615.218 391.849 C 610.341 389.239, 609.514 391.255, 609.370 406.110 C 609.298 413.474, 609.165 420.625, 609.074 422 C 608.771 426.579, 609.855 434.255, 610.962 435.362 C 612.711 437.111, 615.316 434.835, 616.990 430.096 L 618.480 425.878 623.490 426.546 C 637.931 428.469, 665.390 443.100, 683.680 458.616 C 690.083 464.048, 692.604 464.996, 694.800 462.800 C 699.038 458.562, 693.083 451.520, 675.500 439.980 C 656.468 427.489, 640.174 420.588, 626.770 419.342 L 620 418.713 620 408.987 L 620 399.262 623.750 398.642 C 629.937 397.619, 660.074 397.921, 669.091 399.096 C 680.477 400.579, 689.661 403.933, 707.897 413.264 C 723.933 421.471, 726.794 422.122, 728.968 418.061 C 731.100 414.076, 727.515 410.778, 713.183 403.539 C 689.269 391.459, 656.449 385.304, 636 389.062 M 347 389.962 C 331.571 392.333, 314.300 398.086, 300.073 405.593 C 285.130 413.477, 282.492 416.421, 286.842 420.357 C 289.109 422.409, 291.989 421.537, 305.711 414.645 C 331.320 401.783, 343.142 398.739, 365.993 399.118 C 380.145 399.353, 387.675 399.996, 393.750 401.486 C 395.863 402.004, 396 402.555, 396 410.500 C 396 420.122, 396.762 419.411, 385.368 420.408 C 367.040 422.012, 341.805 432.503, 324.500 445.714 C 311.305 455.787, 309.061 463, 319.123 463 C 323.078 463, 323.409 462.779, 336.785 451.224 C 350.805 439.112, 359.101 434.976, 378.236 430.560 C 393.250 427.095, 397.316 426.874, 397.763 429.500 C 399.320 438.653, 405.295 438.276, 405.693 429 C 405.901 424.162, 405.900 423.921, 405.660 412.250 C 405.572 407.988, 405.888 401.921, 406.363 398.768 C 407.217 393.096, 407.197 393.025, 404.434 391.975 C 402.107 391.090, 401.318 391.238, 399.696 392.860 C 397.788 394.768, 397.645 394.770, 392.408 392.968 C 389.470 391.958, 385.589 390.878, 383.783 390.569 C 377.687 389.525, 352.541 389.111, 347 389.962 M 853.500 393.562 C 840.946 400.048, 821.530 428.549, 810.284 457 C 802.941 475.577, 790.392 517.582, 789.027 528.155 C 788.505 532.195, 787.611 537.924, 787.039 540.886 C 785.693 547.865, 785.722 555.704, 787.123 563.918 C 788.119 569.754, 788.743 570.967, 792.623 574.621 C 797.305 579.029, 797.912 581.336, 795.577 585.850 C 792.430 591.936, 782.957 627.290, 784.153 628.486 C 784.421 628.754, 788.064 629.340, 792.250 629.789 C 799.776 630.595, 799.872 630.576, 801.037 628.052 C 803.056 623.678, 806.009 614.012, 809.454 600.500 C 811.277 593.350, 815.276 578.500, 818.340 567.500 C 821.404 556.500, 825.721 540.075, 827.934 531 C 830.147 521.925, 834.376 505.050, 837.333 493.500 C 840.289 481.950, 844.616 464.625, 846.949 455 C 849.281 445.375, 852.994 430.750, 855.198 422.500 C 857.403 414.250, 859.403 406.375, 859.643 405 C 859.882 403.625, 860.310 401.732, 860.593 400.794 C 860.876 399.855, 860.808 397.493, 860.442 395.544 C 859.693 391.552, 858.211 391.128, 853.500 393.562 M 181.294 446.675 C 180.664 448.317, 182.818 457.900, 191.707 493 C 201.498 531.660, 202.120 533.364, 206.592 533.801 C 213.718 534.498, 213.542 532.250, 203.445 493.500 C 201.439 485.800, 199.700 479.050, 199.580 478.500 C 199.461 477.950, 199.024 475.925, 198.608 474 C 196.839 465.801, 190.586 449.326, 188.266 446.750 C 186.264 444.527, 182.136 444.483, 181.294 446.675 M 639 513.507 C 632.125 515.862, 622.830 518.807, 618.345 520.053 L 610.190 522.318 607.710 528.067 C 602.542 540.043, 591.227 554.079, 581.931 560.044 C 549.073 581.129, 489.682 584.692, 449.602 567.983 C 430.175 559.884, 411.447 543.030, 405.434 528.236 C 402.681 521.461, 403.683 522.152, 391.239 518.448 C 385.333 516.689, 376.675 514.030, 372 512.539 L 363.500 509.828 355.500 514.598 C 324.340 533.179, 311.548 542.177, 304.762 550.287 C 302.418 553.089, 294.032 562.383, 286.126 570.941 C 278.220 579.498, 267.313 592.458, 261.887 599.739 L 252.021 612.979 254.094 618.239 C 255.234 621.133, 256.287 623.619, 256.432 623.765 C 257.530 624.865, 270.691 627.380, 281.232 628.505 C 292.082 629.663, 294.838 630.329, 299.874 633.014 C 313.336 640.188, 320.951 650.243, 324.859 666 L 326.719 673.500 327.437 666.500 C 328.174 659.313, 334.836 621.167, 337.603 608.288 C 339.359 600.113, 342.157 595.735, 345.328 596.196 C 348.525 596.660, 349.213 602.052, 347.016 609.433 C 344.901 616.539, 343.965 620.367, 343.330 624.500 C 343.077 626.150, 342.470 629.075, 341.980 631 C 341.222 633.979, 338.167 656.894, 336.514 672 C 332.534 708.361, 330.148 727.702, 327.074 748.500 C 326.505 752.350, 326.031 757.244, 326.020 759.376 L 326 763.252 364.250 762.510 C 385.288 762.102, 466.336 761.551, 544.358 761.285 L 686.216 760.802 685.502 753.151 C 685.109 748.943, 683.916 740.100, 682.850 733.500 C 681.057 722.387, 677.594 698.565, 675.002 679.500 C 671.130 651.031, 666.442 625.661, 662.060 609.465 C 659.661 600.598, 660.262 596, 663.820 596 C 667.015 596, 668.981 599.396, 670.536 607.600 C 671.360 611.945, 672.681 617.750, 673.472 620.500 C 676.138 629.765, 682.794 661.413, 684.410 672.500 C 685.291 678.550, 686.461 686.425, 687.009 690 C 688.577 700.230, 689.891 710.411, 691.525 725 C 693.915 746.347, 694.045 747.306, 695.043 751 C 695.563 752.925, 695.991 755.962, 695.994 757.750 L 696 761 708.495 761 L 720.991 761 720.886 755.750 C 720.709 746.877, 722.883 739.159, 727.612 731.869 C 729.272 729.310, 729.234 729.101, 726.200 724.171 C 724.485 721.384, 722.498 716.212, 721.783 712.677 C 720.612 706.883, 720.051 705.919, 716.074 702.875 C 701.250 691.530, 700.258 666.553, 713.895 647.998 C 720.212 639.403, 725.253 636.713, 741.145 633.460 C 751.832 631.273, 765.643 627.475, 766.905 626.376 C 767.424 625.924, 759.822 614.404, 750.159 601 C 728.435 570.865, 696.813 540.197, 666.827 520.183 C 660.957 516.265, 655.870 512.598, 655.522 512.035 C 653.702 509.091, 651.259 509.309, 639 513.507 M 417.693 528.087 C 436.317 559.910, 488.112 576.992, 535.500 566.939 C 563.496 561, 588.902 545.611, 597.862 529.164 L 600.225 524.828 594.362 525.493 C 591.138 525.859, 585.350 526.989, 581.500 528.005 C 553.130 535.487, 515.652 538.961, 488.137 536.659 C 475.513 535.603, 450.597 531.677, 429.511 527.420 C 414.722 524.435, 415.529 524.389, 417.693 528.087 M 234.500 637.028 C 232.850 637.481, 228.579 638.580, 225.008 639.471 C 202.683 645.038, 182.713 666.953, 178.042 691.011 C 173.136 716.285, 177.804 743.471, 189.839 759.701 C 205.459 780.767, 224.717 790.946, 249 790.971 C 260.508 790.982, 276.539 784.919, 284.825 777.421 C 296.869 766.521, 300.098 754.653, 294.445 742.056 C 290.887 734.129, 290.384 734.073, 270.742 739.442 C 264.755 741.078, 259.151 741.991, 256.242 741.804 L 251.500 741.500 251.500 737.564 C 251.500 733.112, 251.172 733.271, 265 731.032 C 290.282 726.939, 301.776 715.983, 298.087 699.497 C 294.660 684.187, 280.340 678.332, 256.294 682.409 C 241.773 684.870, 241.786 684.869, 239.301 683.924 C 236.015 682.675, 235.979 676.334, 239.250 675.105 C 243.990 673.324, 259.986 671.570, 271.240 671.597 L 282.980 671.625 283.587 668.390 C 285.184 659.876, 279.136 648.630, 269.332 641.884 C 262.631 637.274, 243.381 634.590, 234.500 637.028 M 283.420 642.002 C 289.751 648.638, 291.763 654.047, 292.708 666.968 C 293.308 675.160, 293.463 675.584, 297.483 679.968 C 299.769 682.461, 302.855 687.122, 304.342 690.326 C 307.572 697.286, 308.394 697.200, 313 689.424 C 324.129 670.636, 306.981 640.268, 283.439 637.073 L 278.017 636.337 283.420 642.002 M 770.081 639.536 C 755.356 642.914, 745 654.225, 745 666.931 C 745 674.299, 746.362 675.407, 754.596 674.736 C 764.888 673.897, 786.094 675.784, 788.250 677.730 C 790.586 679.839, 790.464 683.270, 787.974 685.524 C 786.009 687.301, 785.654 687.301, 776.224 685.524 C 747.833 680.170, 731 688.062, 731 706.725 C 731 721.066, 742.342 730.812, 761.687 733.097 C 775.227 734.695, 777.608 736.558, 773.148 742.066 L 771.296 744.353 762.898 742.601 C 758.279 741.638, 750.564 739.913, 745.752 738.768 C 735.254 736.269, 733.958 736.898, 731.385 745.746 C 728.990 753.988, 729.277 758.999, 732.528 765.669 C 742.546 786.223, 773.677 798.237, 797.793 790.856 C 818.404 784.547, 836.340 767.985, 844.326 747.886 C 854.542 722.178, 853.376 692.904, 841.264 671 C 836.975 663.243, 824.809 650.852, 816.982 646.268 C 805.715 639.670, 783.435 636.472, 770.081 639.536 M 734.057 645.059 C 726.240 648.606, 721.389 653.433, 717.286 661.749 C 710.633 675.233, 712.331 687.985, 721.587 694.057 L 724.329 695.856 726.297 692.185 C 727.379 690.166, 729.885 686.536, 731.866 684.119 C 735.429 679.771, 735.468 679.622, 735.544 670.112 C 735.621 660.455, 735.907 659.315, 741.390 646.750 C 743.010 643.038, 743.004 643, 740.763 643.022 C 739.519 643.034, 736.501 643.951, 734.057 645.059 M 323.039 690.775 C 322.300 692.824, 318.886 697.425, 315.453 701 C 311.253 705.373, 307.527 710.719, 304.066 717.339 C 298.469 728.045, 298.478 727.906, 302.756 736.827 C 304.607 740.688, 305.420 744.266, 305.709 749.827 C 306.360 762.370, 306.146 762, 312.769 762 L 318.500 762 318.506 753.750 C 318.512 745.858, 319.864 727.047, 320.500 726 C 320.667 725.725, 321.111 721.450, 321.486 716.500 C 321.861 711.550, 322.776 703.008, 323.518 697.517 C 325.031 686.325, 324.968 685.431, 323.039 690.775 M 488 779.682 C 438.156 781.297, 383.183 789.679, 348.411 800.968 C 297.611 817.460, 269.980 837.343, 264.892 861.066 C 256.566 899.892, 336.323 940.073, 446.500 952.557 C 505.156 959.204, 579.718 955.008, 636.500 941.866 C 765.507 912.008, 792.245 853.294, 696.082 811.031 C 667.562 798.496, 640.834 791.515, 598 785.413 C 577.819 782.538, 572.319 782.010, 547 780.522 C 523.501 779.141, 510.453 778.955, 488 779.682 M 484 811.284 C 483.725 811.532, 476.525 812.007, 468 812.339 C 411.570 814.542, 356.833 829.617, 339.803 847.645 C 329.843 858.188, 332.043 874.587, 344.974 886.204 C 354.498 894.759, 385.151 908.023, 404.500 911.961 C 417.076 914.521, 437.308 918.010, 445.500 919.032 C 450.450 919.650, 457.184 920.513, 460.464 920.949 C 473.049 922.624, 539.079 923.186, 556.500 921.767 C 608.170 917.558, 648.875 905.878, 671.470 888.775 C 681.463 881.211, 684.507 875.900, 684.477 866.078 C 684.437 852.925, 677.125 844.173, 658.516 835.003 C 633.785 822.818, 604.186 816.582, 550.066 812.157 C 539.573 811.299, 484.786 810.575, 484 811.284 M 494 819.235 C 493.725 819.506, 486.975 820.019, 479 820.376 C 446.711 821.821, 428.321 824.238, 401.256 830.597 C 362.680 839.660, 339.241 853.491, 341.479 865.871 C 345.157 886.225, 392.020 904.904, 458.500 912.515 C 492.342 916.389, 547.602 915.716, 577.500 911.066 C 624.432 903.765, 653.810 893.249, 670.699 877.704 C 684.937 864.599, 673.251 848.670, 641 837.225 C 617.482 828.878, 587.706 823.629, 546.500 820.565 C 535.232 819.727, 494.547 818.696, 494 819.235 M 640 950.668 C 638.625 950.885, 633.225 951.921, 628 952.969 C 622.775 954.018, 613.775 955.782, 608 956.889 C 579.267 962.397, 545.280 965.142, 506 965.125 C 470.136 965.111, 453.455 963.605, 411.500 956.594 C 370.364 949.720, 367.418 949.752, 390.500 956.824 C 431.459 969.372, 469.929 974.235, 523 973.575 C 559.411 973.122, 592.342 967.827, 631.657 956.105 C 636.914 954.537, 646.728 949.402, 643 950.169 C 642.725 950.226, 641.375 950.450, 640 950.668" stroke="none" fill="#1a1a1a" fill-rule="evenodd"/>
</svg>