<svg xmlns="http://www.w3.org/2000/svg" width="1024" height="1024" viewBox="0 0 1024 1024" version="1.1">
	<path d="M 492 17.594 C 442.177 20.338, 392.165 33.286, 356.070 52.785 C 261.879 103.668, 212.541 204.884, 228.546 314.401 C 232.821 343.661, 242.229 368.968, 259.235 396.956 C 270.371 415.284, 276.063 433.635, 307.017 551 C 313.182 574.375, 320.576 602.387, 323.448 613.250 L 328.669 633 322.982 633 C 307.909 633, 301.849 647.395, 309.784 664.352 L 312.807 670.811 309.926 673.571 C 300.753 682.359, 305.441 700.055, 320.518 713.549 C 327.784 720.052, 328 720.379, 328.001 724.873 C 328.003 736.372, 336.423 746.547, 352.569 754.560 L 361.985 759.233 364.071 766.238 C 366.467 774.283, 366.018 775.254, 360.499 773.975 C 353.103 772.260, 350.414 772.719, 347.487 776.198 C 344.860 779.320, 344.806 779.654, 345.176 790.448 C 345.594 802.620, 348.173 810.331, 353.888 816.500 C 359.009 822.028, 364.795 848.158, 372.487 900.500 C 378.182 939.251, 383.324 960.803, 388.490 967.576 C 394.025 974.832, 408.664 983.090, 420 985.351 C 453.558 992.041, 593.982 989.698, 613.940 982.115 C 629.242 976.300, 638.059 966.578, 641.459 951.771 C 642.796 945.948, 648.370 911.900, 650.999 893.500 C 652.827 880.703, 662.880 823.476, 663.654 821.459 C 664.042 820.449, 666.257 817.795, 668.577 815.561 C 679.419 805.122, 678.305 775.019, 667.076 774.994 C 665.659 774.991, 662.853 774.532, 660.841 773.973 L 657.182 772.956 663.623 747.728 C 681.015 679.607, 694.439 628.327, 715.647 549 C 744.461 441.220, 752.341 414.140, 757.039 406.748 C 772.147 382.975, 781.971 362.606, 787.394 343.808 C 799.160 303.025, 800.827 261.950, 792.418 220 C 777.596 146.056, 729.970 83.602, 662.833 50.066 C 617.645 27.495, 549.028 14.452, 492 17.594 M 493.500 26.660 C 460.985 33.612, 433.810 59.446, 410.914 105.172 C 390.395 146.149, 380.303 191.857, 379.285 248.420 C 378.015 318.983, 387.388 371.087, 413.120 436.500 C 419.815 453.518, 438.726 491.093, 443.433 496.728 C 443.538 496.854, 447.187 495.167, 451.543 492.978 C 455.899 490.790, 459.964 489, 460.578 489 C 461.219 489, 460.646 486.881, 459.231 484.024 C 456.227 477.952, 456.739 473.443, 460.972 468.706 C 463.709 465.642, 464.165 465.500, 471.277 465.500 L 478.719 465.500 479.826 461.360 C 482.363 451.877, 493.029 446.512, 502.309 450.053 C 510.539 453.192, 520.971 464.093, 525.876 474.681 L 528.253 479.809 537.876 481.516 C 549.692 483.612, 563.209 487.872, 572.490 492.425 C 576.334 494.311, 579.592 495.742, 579.729 495.604 C 583.576 491.757, 601.053 457.718, 609.048 438.500 C 644.524 353.225, 653.789 264.478, 636.385 176.650 C 622.869 108.443, 586.694 49.715, 547.137 31.760 C 533.220 25.442, 509.667 23.203, 493.500 26.660 M 561.799 30.910 C 603.595 59.811, 635.315 119.993, 646.439 191.500 C 654.849 245.560, 653.843 299.082, 643.453 350.335 C 632.488 404.429, 607.398 470.675, 588.496 495.437 L 585.149 499.822 591.325 504.658 C 594.721 507.318, 600.987 512.817, 605.250 516.879 L 612.999 524.265 627.750 515.478 C 695.354 475.205, 741.015 428.688, 768.097 372.500 C 802.151 301.845, 796.890 211.531, 754.759 143.500 C 729.746 103.112, 690.713 69.032, 649 51.164 C 627.607 42, 594.981 32.759, 569 28.503 C 563.775 27.647, 558.375 26.703, 557 26.405 C 555.457 26.071, 557.293 27.795, 561.799 30.910 M 448.500 29.445 C 391.634 39.463, 348.607 59.775, 308.653 95.463 C 279.011 121.940, 251.560 167.797, 240.862 208.707 C 236.546 225.211, 235.321 233.294, 233.428 257.764 C 231.755 279.397, 231.762 279.989, 233.875 298.608 C 238.283 337.453, 246.368 361.823, 265.231 393.126 C 294.216 441.224, 333.020 477.479, 397.174 516.401 L 409.848 524.090 417.674 516.241 C 421.978 511.925, 428.106 506.693, 431.291 504.616 L 437.081 500.839 434.427 496.170 C 416.592 464.787, 410.062 450.275, 397.096 413.204 C 379.401 362.611, 371.467 313.534, 371.682 256 C 371.918 192.862, 384.326 138.539, 409.125 92.083 C 422.346 67.317, 441.856 44.598, 460.765 31.951 C 469.691 25.981, 468.983 25.836, 448.500 29.445 M 111.929 281.367 C 97.328 285.304, 83.798 301.226, 80.855 317.935 C 79.839 323.702, 79.735 323.850, 77.339 322.939 C 61.416 316.885, 39.695 334.234, 39.616 353.069 C 39.531 373.133, 59.753 387.999, 83.279 385.167 C 89.825 384.379, 90.032 384.425, 92.736 387.270 C 105.609 400.816, 136.429 401.448, 151.839 388.482 C 155.055 385.776, 155.560 385.680, 167.332 385.546 C 180.759 385.393, 186.325 383.869, 195.386 377.868 C 216.153 364.112, 212.088 333.160, 187.911 320.955 C 181.590 317.764, 172.429 317.154, 165.433 319.457 C 163.603 320.059, 163.180 319.470, 161.747 314.319 C 155.591 292.202, 131.310 276.142, 111.929 281.367 M 111.453 289.275 C 98.390 294.526, 88.635 309.040, 87.276 325.247 C 86.524 334.214, 85.415 335.043, 78.705 331.648 C 69.658 327.071, 62.020 328.864, 54.174 337.409 C 46.389 345.887, 44.995 353.584, 49.578 362.780 C 55.652 374.969, 69.746 380.449, 86.095 376.980 L 92.174 375.690 97.442 381.216 C 104.036 388.133, 110.001 390.416, 121.500 390.422 C 133.757 390.429, 142.912 387.251, 149.184 380.811 L 154.105 375.759 159.679 377.512 C 173.771 381.945, 192.910 374.749, 199.232 362.643 C 205.248 351.121, 198.307 334.319, 184.739 327.557 C 177.964 324.181, 173.536 324.299, 166.414 328.045 C 157.869 332.540, 156.669 332.030, 155.727 323.500 C 154.230 309.940, 145.096 296.639, 133.343 290.906 C 127.711 288.158, 116.339 287.311, 111.453 289.275 M 282.598 433.500 C 282.976 435.150, 286.851 449.550, 291.210 465.500 C 300.462 499.358, 311.977 542.031, 325.479 592.500 C 337.752 638.376, 337.457 637.490, 341.326 640.174 C 343.072 641.386, 349.461 646.058, 355.525 650.557 C 369.596 660.997, 386.847 672.379, 394.349 676.171 C 400.506 679.285, 400.607 678.943, 395.424 672.500 C 382.601 656.556, 378.131 636.482, 382.399 614 C 383.287 609.325, 385.798 595.367, 387.981 582.981 C 392.461 557.552, 393.982 552.443, 400.953 539.396 L 405.887 530.162 392.194 521.852 C 346.203 493.942, 312.221 466.270, 286.149 435.500 C 282.189 430.827, 281.957 430.696, 282.598 433.500 M 734.479 437.302 C 712.733 464.487, 672.265 497.443, 629.319 522.943 L 617.137 530.175 620.379 535.338 C 640.473 567.333, 643.583 618.897, 627.516 653.672 C 619.816 670.337, 606.239 687.258, 594.752 694.505 C 592.140 696.152, 590.016 697.725, 590.030 698 C 590.045 698.275, 593.494 700.525, 597.695 703 C 608.515 709.375, 621.467 722.017, 629.774 734.311 C 639.725 749.038, 647.098 761.636, 648.539 766.374 C 650.113 771.550, 647.456 780.552, 671.520 688.500 C 682.879 645.050, 696.209 594.425, 701.142 576 C 706.076 557.575, 715.283 523.150, 721.602 499.500 C 727.922 475.850, 734.681 450.947, 736.624 444.161 C 738.566 437.374, 739.993 431.660, 739.796 431.463 C 739.599 431.265, 737.206 433.893, 734.479 437.302 M 490.763 457.565 C 485.329 460.514, 485.861 467.486, 492.158 475.826 C 496.069 481.006, 496.196 481.383, 494.458 482.654 C 491.608 484.738, 490.550 484.354, 484.831 479.152 C 473.539 468.883, 466 469.171, 466 479.871 C 466 483.417, 469.952 488.721, 475.241 492.273 C 483.770 498.001, 479.851 502.384, 470.141 497.978 C 464.203 495.284, 463.033 495.420, 453.420 499.925 C 422.694 514.323, 402.021 541.108, 397.021 573 C 396.374 577.125, 394.210 588.825, 392.212 599 C 385.529 633.040, 387.326 649.211, 399.683 666.226 C 413.102 684.703, 438.278 701, 453.400 701 C 455.863 701, 458.248 701.594, 458.890 702.367 C 460.394 704.180, 454.917 705.124, 447.694 704.299 L 442.500 703.705 444.918 705.698 L 447.336 707.691 442.937 708.394 C 433.955 709.830, 426.070 722.023, 421.357 741.763 C 419.434 749.816, 419.126 767.802, 420.812 773.616 L 422.005 777.731 436.252 778.397 C 469.476 779.950, 563.509 778.618, 562.609 776.608 C 556.285 762.480, 553.663 746.111, 557.489 744.642 C 559.802 743.755, 561.927 746.566, 561.968 750.568 C 562.048 758.282, 569.556 775.463, 576.914 784.772 C 585.782 795.991, 604.107 802.968, 608.443 796.777 C 610.591 793.712, 610.407 792.064, 607.432 787.685 C 603.300 781.604, 601.362 773.940, 603.551 772.339 C 605.921 770.606, 606.331 770.982, 612.489 780.527 C 619.403 791.245, 625.387 795.013, 629.292 791.108 C 631.320 789.080, 630.262 780.985, 627.434 776.905 C 622.056 769.145, 627.277 765.399, 633.500 772.552 C 637.311 776.932, 643 777.572, 643 773.620 C 643 770.713, 638.483 761.897, 629.938 748.123 C 617.217 727.619, 605.827 715.687, 590.218 706.511 L 582.935 702.230 572.346 705.664 C 560.302 709.570, 548.426 711.233, 549.192 708.907 C 549.448 708.133, 553.221 706.335, 557.578 704.910 C 575.078 699.190, 593.273 687.804, 605.235 675.088 C 636.302 642.064, 639.514 578.257, 612.212 536.500 C 595.630 511.139, 565.533 492.976, 533.714 489.127 C 524.465 488.008, 523.985 487.667, 519.429 478.997 C 510.119 461.280, 499.100 453.042, 490.763 457.565 M 854 492.433 C 837.800 496.948, 821.706 513.715, 819.291 528.593 C 818.741 531.985, 818.537 532.152, 815.604 531.603 C 795.270 527.799, 781.906 531.553, 771.468 544 C 753.382 565.565, 760.459 595.268, 786.764 608.200 L 793.477 611.500 809.704 611.503 L 825.931 611.507 830.715 616.127 C 849.769 634.528, 885.741 634.904, 903.020 616.882 L 907.757 611.941 914.981 613.134 C 934.835 616.413, 955.861 606.189, 964.226 589.189 C 969.074 579.336, 969.062 565.823, 964.195 555.500 C 955.624 537.320, 937.105 528.117, 920.704 533.885 C 916.459 535.379, 914.815 535.600, 914.560 534.712 C 914.369 534.045, 913.441 530.468, 912.499 526.762 C 909.437 514.728, 900.686 502.868, 890.962 497.576 C 880.525 491.895, 864.120 489.613, 854 492.433 M 856.618 499.050 C 840.829 503.011, 828.340 517.129, 825.735 533.957 C 824.432 542.375, 823.038 543.231, 815.831 540.043 C 787.724 527.610, 758.962 555.965, 771.511 583.736 C 779.043 600.407, 798.166 608.239, 820 603.596 L 827.500 602.001 833.500 608.489 C 840.596 616.162, 846.261 619.190, 857.940 621.552 C 876.229 625.249, 893.282 620.114, 900.321 608.790 C 903.815 603.170, 902.150 603.433, 918.319 605.950 C 944.341 610.001, 966.391 587.256, 959.541 563.428 C 953.790 543.419, 935.549 534.115, 918.461 542.475 C 912.835 545.228, 909.132 545.706, 908.593 543.750 C 908.404 543.063, 907.749 539.264, 907.138 535.308 C 904.388 517.512, 894.213 504.820, 879.199 500.455 C 872.271 498.442, 861.671 497.782, 856.618 499.050 M 440.500 543.929 C 434.831 545.297, 426 553.168, 426 556.853 C 426 559.103, 430.675 557.949, 433.497 555.003 C 436.512 551.857, 445.345 548, 449.538 548 C 453.382 548, 452.840 544.418, 448.875 543.625 C 445.300 542.910, 444.619 542.935, 440.500 543.929 M 549.200 547.200 C 547.204 549.196, 547.776 549.925, 553.250 552.366 C 556.138 553.653, 561.200 556.768, 564.500 559.289 C 570.099 563.567, 570.561 563.742, 571.411 561.919 C 574.266 555.794, 554.022 542.378, 549.200 547.200 M 435.637 589.443 C 424.979 593.303, 419.201 606.364, 423.548 616.768 C 428.195 627.891, 437.800 629.692, 447.195 621.204 C 452.441 616.466, 454 613.156, 454 606.762 C 454 594.286, 445.195 585.981, 435.637 589.443 M 539.440 597.453 C 527.663 604.513, 526.833 624.344, 538 631.830 C 547.260 638.038, 560.868 628.978, 561.808 615.979 C 562.967 599.948, 551.341 590.319, 539.440 597.453 M 434.667 596.667 C 433.036 598.298, 434.172 600, 436.893 600 C 439.590 600, 441.619 597.952, 440.264 596.598 C 439.456 595.789, 435.495 595.838, 434.667 596.667 M 542.667 603.667 C 540.409 605.924, 544.136 608.962, 546.627 606.895 C 548.775 605.112, 548.254 603, 545.667 603 C 544.383 603, 543.033 603.300, 542.667 603.667 M 473.746 610.086 C 458.896 613.586, 448.315 626.637, 452.400 636.415 C 453.413 638.838, 454.594 639.869, 456.887 640.327 L 460 640.950 460 648.574 C 460 657.649, 461.555 661.451, 466.771 665.130 C 485.716 678.490, 506.201 667.130, 507.789 642.384 C 509.200 620.404, 493.434 605.446, 473.746 610.086 M 472.120 617.153 C 465.187 619.146, 458.426 626.990, 459.176 632.170 C 459.516 634.524, 470.451 636.479, 494.819 638.543 L 503.137 639.248 502.435 635.374 C 499.837 621.040, 486.492 613.019, 472.120 617.153 M 321 640.677 C 307.867 644.786, 312.465 664.872, 328.984 675.558 C 336.880 680.666, 336.911 680.725, 333.589 684.310 C 330.112 688.061, 324.443 686.231, 318.827 679.544 C 316.265 676.494, 313 679.780, 313.001 685.405 C 313.003 699.219, 329.358 715.046, 345.333 716.695 C 351.639 717.346, 352.594 718.912, 349.021 722.747 C 347 724.916, 339.062 726.774, 337.071 725.544 C 334.885 724.193, 336.055 730.685, 338.750 734.857 C 347.856 748.954, 383.313 759.632, 409.500 756.162 L 414.500 755.500 415.115 750.500 C 416.810 736.732, 424.757 716.596, 431.396 709.247 L 435.067 705.184 427.783 700.661 C 423.778 698.174, 418.250 695.257, 415.500 694.178 C 412.750 693.099, 403.706 688.865, 395.403 684.769 C 381.077 677.701, 375.356 673.977, 345 651.958 C 332.938 643.208, 324.934 639.446, 321 640.677 M 466.386 644.436 C 464.234 650.043, 468.179 657.491, 475.210 661.097 C 484.386 665.803, 494.191 662.427, 499.059 652.885 C 502.822 645.509, 502.623 645.356, 488.250 644.601 C 481.238 644.233, 473.593 643.672, 471.262 643.354 C 467.884 642.894, 466.894 643.114, 466.386 644.436 M 457.030 746.463 C 456.362 747.268, 455.580 751.431, 455.292 755.713 C 454.774 763.411, 454.805 763.538, 457.970 766.831 C 459.731 768.663, 461.290 770.013, 461.434 769.831 C 461.578 769.649, 461.484 763.987, 461.225 757.250 C 460.747 744.828, 459.994 742.892, 457.030 746.463 M 370.573 764.424 C 371.840 770.373, 373.827 773.920, 376.184 774.438 C 379.445 775.156, 403.112 777, 409.054 777 L 414 777 414 770.615 L 414 764.231 397.250 763.659 C 388.038 763.344, 378.119 762.696, 375.209 762.218 L 369.918 761.348 370.573 764.424 M 186.272 769.373 C 169.774 773.572, 158.839 784.123, 154.012 800.500 L 152.833 804.500 142.167 804.500 C 129.678 804.500, 126.397 805.793, 118.904 813.669 C 107.191 825.981, 102.949 841.689, 107.628 855.422 C 109.992 862.358, 119.467 872.120, 127.834 876.238 C 134.337 879.439, 134.722 879.501, 148.600 879.570 L 162.741 879.641 166.620 882.854 C 182.495 896.005, 209.996 896.600, 224.231 884.102 L 227.871 880.906 233.427 882.522 C 252.628 888.104, 274.817 880.026, 282.755 864.563 C 286.491 857.286, 287.066 844.817, 284.035 836.779 C 278.392 821.812, 259.733 812.815, 243.635 817.298 C 240.795 818.089, 240.774 818.063, 241.251 814.298 C 243.311 798.032, 230.489 777.362, 214.466 771.118 C 207.100 768.248, 193.904 767.431, 186.272 769.373 M 189 776.369 C 172.804 779.908, 162.357 791.606, 160.381 808.414 C 160.034 811.369, 159.449 814.274, 159.081 814.869 C 158.142 816.389, 153.445 816.787, 153.726 815.323 C 153.850 814.676, 151.933 813.376, 149.467 812.434 C 129.647 804.865, 107.935 829.066, 114.448 851.468 C 119.164 867.691, 140.866 877.358, 158.500 871.091 L 164.500 868.959 168.884 874.031 C 181.769 888.937, 206.379 890.080, 220.950 876.450 C 224.302 873.315, 226.552 871.935, 227.733 872.292 C 228.705 872.585, 232.076 873.764, 235.225 874.913 C 254.176 881.823, 275.865 870.777, 278.508 852.869 C 281.399 833.278, 260.978 817.625, 242.628 825.366 C 238.018 827.311, 234.044 827.486, 233.887 825.750 C 233.825 825.063, 233.713 819.550, 233.637 813.500 C 233.517 803.874, 233.171 801.798, 230.865 796.880 C 222.950 780, 207.354 772.359, 189 776.369 M 352.667 781.667 C 350.412 783.921, 353.252 803.403, 356.574 808.473 C 359.581 813.061, 362.117 813.402, 420 816.983 C 479.186 820.645, 564.527 819.482, 638 814.011 C 663.827 812.088, 666.143 811.225, 667.938 802.852 C 670.142 792.575, 668.633 784.479, 664.055 782.030 C 661.015 780.402, 649.794 780.756, 647.217 782.560 C 645.992 783.418, 643.794 784.213, 642.332 784.325 C 640.166 784.491, 639.382 785.345, 638.088 788.943 C 634.610 798.613, 625.799 803.050, 619.223 798.443 C 617.309 797.103, 617 797.091, 617 798.354 C 617 800.402, 611.763 804.593, 607.409 806.030 C 598.358 809.017, 583.272 802.549, 572.950 791.255 L 567.843 785.667 500.171 785.893 C 433.128 786.117, 416.016 785.602, 386.621 782.476 C 372.221 780.945, 353.827 780.506, 352.667 781.667 M 633.500 821.414 L 615.500 822.500 615.242 825.500 C 615.099 827.150, 614.276 834.727, 613.412 842.337 C 612.548 849.948, 612.029 856.362, 612.258 856.591 C 613.096 857.430, 648.082 854.204, 649.739 853.135 C 650.281 852.786, 652.060 845.188, 653.693 836.250 L 656.663 820 654.082 820.164 C 652.662 820.254, 643.400 820.816, 633.500 821.414 M 367.140 826.126 C 368.211 828.946, 369.773 836.475, 370.610 842.859 C 371.447 849.242, 372.280 854.613, 372.460 854.794 C 373.198 855.531, 386.023 856.924, 398.138 857.583 L 411.040 858.284 410.361 850.892 C 409.988 846.826, 409.191 839, 408.591 833.500 L 407.500 823.500 388.500 822.340 C 378.050 821.702, 368.531 821.140, 367.346 821.090 L 365.192 821 367.140 826.126 M 579.500 824.154 C 570.700 824.620, 560.296 825.260, 556.381 825.574 L 549.261 826.146 548.639 831.323 C 548.297 834.170, 548.013 841.788, 548.009 848.250 L 548 860 551.250 860.002 C 555.978 860.006, 606.464 857.842, 606.695 857.626 C 606.940 857.396, 610.995 825.944, 610.998 824.250 C 611 822.822, 604.962 822.804, 579.500 824.154 M 412.497 828.129 C 412.862 830.565, 413.687 838.395, 414.330 845.529 L 415.500 858.500 421.500 859.122 C 424.800 859.465, 438.413 860.025, 451.750 860.368 L 476 860.991 476 843.651 L 476 826.311 454.250 825.652 C 442.288 825.290, 427.850 824.703, 422.166 824.347 L 411.832 823.700 412.497 828.129 M 480.226 843.250 L 480.500 860.500 506.500 860.800 C 520.800 860.966, 534.824 860.826, 537.665 860.489 L 542.831 859.877 543.407 851.689 C 543.725 847.185, 544.100 839.562, 544.242 834.750 L 544.500 826 512.226 826 L 479.953 826 480.226 843.250 M 641.500 859.023 C 638.750 859.439, 631.252 860.115, 624.838 860.526 C 618.424 860.937, 612.686 861.576, 612.086 861.947 C 611.054 862.585, 608.923 876.778, 607.461 892.750 L 606.797 900 609.649 899.992 C 613.457 899.981, 628.919 898.264, 637 896.956 L 643.500 895.903 646.291 878.201 C 647.825 868.466, 649.063 859.938, 649.041 859.250 C 648.997 857.900, 648.940 857.898, 641.500 859.023 M 373.378 862.606 C 373.708 864.198, 375.101 872.221, 376.474 880.435 C 377.846 888.649, 379.314 895.711, 379.735 896.129 C 380.416 896.805, 396.189 898.974, 410.850 900.407 C 415.976 900.908, 416.177 900.837, 415.664 898.715 C 415.370 897.497, 414.352 888.962, 413.402 879.750 C 411.971 865.870, 411.403 862.995, 410.088 862.971 C 406.125 862.898, 382.589 861.014, 377.946 860.398 L 372.778 859.713 373.378 862.606 M 582 863.131 C 569.625 863.585, 556.754 864.219, 553.397 864.542 L 547.294 865.128 546.587 883.670 C 546.198 893.869, 546.113 902.446, 546.398 902.731 C 546.947 903.280, 601.168 901.165, 601.762 900.572 C 601.953 900.381, 602.721 894.436, 603.469 887.362 C 604.217 880.288, 605.151 871.688, 605.544 868.250 C 605.943 864.761, 605.870 862.068, 605.379 862.153 C 604.896 862.238, 594.375 862.678, 582 863.131 M 416.592 866.169 C 416.782 867.451, 417.682 875.700, 418.593 884.500 C 419.504 893.300, 420.305 900.575, 420.374 900.666 C 420.443 900.758, 429.500 901.318, 440.500 901.912 C 451.500 902.506, 464.212 903.243, 468.750 903.548 L 477 904.104 476.985 885.802 C 476.976 875.736, 476.639 866.999, 476.235 866.388 C 475.741 865.641, 465.767 865.039, 445.873 864.556 L 416.246 863.837 416.592 866.169 M 481.341 879.250 C 481.699 887.087, 481.994 895.862, 481.996 898.750 L 482 904 511.455 904 L 540.909 904 541.403 900.750 C 541.674 898.962, 542.159 890.188, 542.479 881.250 L 543.061 865 511.875 865 L 480.689 865 481.341 879.250 M 380.551 906.914 C 381.885 918.295, 386.129 939.461, 387.212 940.131 C 388.963 941.213, 420.039 945.294, 420.793 944.541 C 420.974 944.359, 420.062 935.501, 418.766 924.856 L 416.410 905.500 404.955 904.341 C 398.655 903.703, 390.439 902.764, 386.699 902.255 L 379.897 901.328 380.551 906.914 M 628 902.608 C 622.225 903.344, 614.984 904.206, 611.909 904.525 L 606.318 905.104 604.135 922.302 C 601.071 946.435, 600.633 944.414, 608.750 943.597 C 612.462 943.223, 620.147 942.199, 625.827 941.321 C 638.109 939.423, 636.942 941.189, 639.916 920 C 641.113 911.475, 642.254 903.712, 642.452 902.750 C 642.872 900.711, 642.893 900.712, 628 902.608 M 582 906.124 C 573.475 906.579, 561.940 907.227, 556.367 907.564 L 546.233 908.177 545.628 911.838 C 545.294 913.852, 545.017 922.587, 545.011 931.250 L 545 947 552.889 947 C 560.278 947, 596.263 945.097, 596.624 944.687 C 596.954 944.312, 601 909.929, 601 907.500 C 601 905.729, 600.489 905.043, 599.250 905.148 C 598.288 905.229, 590.525 905.668, 582 906.124 M 421.005 906.116 C 421.034 908.273, 425.905 944.238, 426.210 944.543 C 426.783 945.116, 459.797 946.968, 469.750 946.985 L 478 947 478 930.625 C 478 921.619, 477.730 912.902, 477.401 911.255 L 476.802 908.260 464.651 907.648 C 440.142 906.413, 421 905.742, 421.005 906.116 M 482 927.383 C 482 946.639, 482.015 946.771, 484.250 947.370 C 485.488 947.701, 498.468 947.979, 513.096 947.986 L 539.691 948 540.342 935.250 C 540.699 928.237, 540.994 919.237, 540.996 915.250 L 541 908 511.500 908 L 482 908 482 927.383 M 634.917 944.394 C 634.561 944.730, 619.399 946.881, 605.363 948.586 L 601.227 949.089 600.577 956.794 C 600.220 961.032, 599.657 967.574, 599.326 971.332 L 598.725 978.164 603.613 977.453 C 614.976 975.799, 626.561 968.174, 630.896 959.493 C 634.011 953.257, 636.859 942.559, 634.917 944.394 M 388.485 948.862 C 389.574 954.812, 394.077 963.861, 397.400 966.777 C 401.498 970.372, 416.563 977.928, 421.046 978.636 L 424.591 979.195 423.362 966.348 C 422.687 959.281, 422.104 952.565, 422.067 951.422 C 422.005 949.500, 421.047 949.249, 409.250 948.074 C 402.238 947.375, 394.547 946.448, 392.160 946.014 L 387.820 945.224 388.485 948.862 M 584.500 950.213 C 578.450 950.606, 566.862 951.215, 558.750 951.567 L 544 952.208 544 967.258 L 544 982.308 557.940 981.643 C 571.857 980.978, 593.200 979.102, 593.836 978.487 C 594.433 977.909, 596.112 955.788, 595.801 952.595 L 595.500 949.500 584.500 950.213 M 427.881 964.937 L 429.312 979.895 434.406 980.464 C 437.208 980.778, 448.163 981.364, 458.751 981.767 L 478.001 982.500 478.001 967.330 L 478 952.159 471.750 951.618 C 468.313 951.321, 456.714 950.830, 445.975 950.528 L 426.450 949.979 427.881 964.937 M 482 967.586 L 482 983 511 983 L 540 983 540 967.659 L 540 952.319 511 952.246 L 482 952.172 482 967.586" stroke="none" fill="#1a1a1a" fill-rule="evenodd"/>
</svg>