<svg xmlns="http://www.w3.org/2000/svg" width="1024" height="1024" viewBox="0 0 1024 1024" version="1.1">
	<path d="M 529.814 61.659 C 526.516 65.146, 525.471 67.847, 524.567 75.212 L 523.866 80.924 518.077 76.973 C 507.337 69.641, 501.536 67.522, 492.176 67.510 C 483.867 67.500, 483.844 67.507, 480.499 71.156 C 477.018 74.950, 475.015 80.235, 475.006 85.645 C 474.998 90.002, 478.588 101.206, 480.956 104.217 L 482.918 106.711 472.396 107.391 C 442.634 109.315, 402.826 123.235, 376.733 140.842 C 316.405 181.551, 277.578 256.384, 277.549 332 C 277.541 354.633, 279.218 364.917, 286.152 384.736 C 299.073 421.670, 320.070 448.235, 350.824 466.555 C 354.221 468.578, 357 470.366, 357 470.527 C 357 470.689, 351.361 475.196, 344.470 480.543 C 299.446 515.477, 265.144 561.868, 245.143 614.874 L 241.402 624.786 238.483 619.211 C 227.661 598.542, 211.669 580.943, 197.871 574.520 C 177.856 565.203, 162.624 580.704, 167.163 605.770 C 168.621 613.820, 168.386 615.375, 166.123 612.648 C 162.032 607.719, 142.967 602.124, 136.342 603.908 C 112.584 610.305, 118.893 652.515, 148.720 686.716 L 155.073 694 152.005 694 C 141.939 694, 133.912 704.043, 135.385 714.794 C 138.359 736.492, 170.011 762.346, 205 771.659 C 212.583 773.677, 217.782 774.298, 230.768 774.734 L 247.036 775.281 258.768 786.953 C 279.793 807.869, 306.424 825.423, 326.500 831.598 C 329.800 832.613, 332.921 834.131, 333.436 834.972 C 339.873 845.487, 358.321 856, 370.333 856 C 373.312 856, 373.582 857.299, 374.484 876 C 374.789 882.325, 375.304 890.723, 375.629 894.663 L 376.219 901.825 354.859 902.172 C 335.556 902.484, 333.051 902.724, 328.834 904.665 C 321.201 908.179, 317.693 915.685, 320.763 921.936 C 323.994 928.517, 329.914 931.063, 352.365 935.531 C 372.013 939.441, 374.105 940.330, 401.330 956.329 C 431.387 973.993, 448.449 975.226, 455.195 960.223 C 456.252 957.870, 456.874 955.170, 456.577 954.223 C 456.098 952.697, 456.944 952.489, 463.982 952.400 C 479.194 952.207, 487.602 946.269, 486.775 936.300 C 486.393 931.695, 485.766 930.340, 482.414 926.881 C 475.283 919.519, 455.645 911.373, 429.660 904.997 C 423.103 903.388, 417.535 901.869, 417.287 901.620 C 416.575 900.909, 414.099 878.620, 413.371 866.380 L 412.710 855.260 419.111 853.130 C 424.117 851.464, 426.236 851.207, 428.836 851.953 C 430.665 852.477, 441.687 853.198, 453.330 853.553 C 476.255 854.254, 492.119 852.983, 509.907 849.021 C 521.433 846.453, 522 846.469, 522 849.344 C 522 850.633, 523.350 858.353, 525 866.500 C 526.650 874.647, 528 881.819, 528 882.439 C 528 883.126, 523.818 884.063, 517.293 884.838 C 494.802 887.509, 491 889.586, 491 899.201 C 491 908.997, 495.500 911.911, 519.816 917.864 C 534.138 921.370, 537.846 922.765, 555.646 931.346 C 590.523 948.160, 611.159 950.844, 618.571 939.531 C 620.758 936.194, 620.081 928.327, 617.267 924.375 L 615.216 921.495 622.858 921.835 C 636.948 922.462, 648 915.908, 648 906.925 C 648 892.756, 631.126 882.885, 602 880.017 C 568.796 876.747, 569.168 876.808, 568.612 874.588 C 567.764 871.202, 563 837.159, 563 834.481 C 563 832.435, 564.209 831.417, 570.250 828.376 C 593.929 816.458, 618.261 798.201, 633.854 780.651 C 652.685 759.456, 669.440 724.414, 677.022 690.364 L 679.280 680.229 683.390 679.757 C 696.026 678.307, 711.880 668.508, 723.905 654.717 L 733.044 644.235 742.772 643.531 C 764.378 641.969, 796.763 634.698, 809.924 628.455 C 836.097 616.039, 841.701 608.327, 843.178 582.685 L 844.046 567.633 849.344 562.067 C 855.194 555.921, 860.147 546.672, 862.478 537.540 C 864.048 531.390, 864.410 514.584, 863.070 510 C 862.628 508.485, 862.929 505.924, 863.834 503.500 C 869.501 488.333, 860.192 462, 849.163 462 L 846.064 462 846.236 441.250 C 846.418 419.257, 845.825 415.004, 841.733 408.932 C 835.795 400.121, 824.748 397.042, 799 397.020 C 779.230 397.004, 735.145 400.962, 727.019 403.483 C 724.693 404.205, 723.344 402.931, 719.233 396.133 L 715.447 389.872 719.316 382.086 C 722.978 374.719, 723.229 373.607, 723.988 361.400 C 724.429 354.305, 725.490 345.800, 726.346 342.500 C 731.420 322.932, 733.344 284.329, 730.158 266 C 723.502 227.711, 708.581 198.076, 682.303 170.953 C 655.721 143.517, 617.521 120.290, 589.852 114.740 L 583.669 113.500 580.901 105.244 C 572.230 79.377, 554.586 60.598, 537.676 59.235 C 533.018 58.860, 532.231 59.102, 529.814 61.659 M 537.039 71.454 C 535.263 73.592, 533 81.764, 533 86.034 C 533 89.198, 533.966 90.828, 539.496 96.995 C 547.441 105.856, 549.447 110.997, 546.219 114.226 L 544.092 116.353 528.296 100.356 C 514.677 86.563, 511.466 83.843, 505 80.618 C 496.906 76.581, 491.953 76.330, 489.135 79.813 C 488.143 81.039, 487.643 81.159, 487.302 80.250 C 486.240 77.417, 485.001 79.310, 485.010 83.750 C 485.032 94.366, 493.031 104.134, 508.394 112.303 C 527.231 122.319, 521.590 129.711, 502.146 120.488 C 495.112 117.152, 494.308 117, 483.646 117.003 C 438.109 117.014, 392.183 137.118, 353.834 173.826 C 330.924 195.756, 315.248 220.312, 301.009 256.575 C 281.994 305.004, 282.784 359.658, 303.085 400.203 C 320.298 434.582, 345.162 456.587, 386.438 473.974 C 391.010 475.900, 391.254 476.175, 389.738 477.690 C 387.167 480.262, 378.488 480.485, 371.830 478.151 L 366.160 476.163 359.926 480.552 C 323.763 506.016, 288.332 547.588, 268.396 587.944 C 260.249 604.436, 248.811 634.508, 246.932 644.380 C 245.674 650.984, 242.477 656, 239.525 656 C 236.700 656, 235.731 653.837, 237.028 650.426 C 238.729 645.953, 238.138 643.788, 231.507 630.165 C 216.165 598.649, 199.142 580.612, 186.389 582.360 C 175.922 583.795, 173.916 590.001, 178.253 607.529 C 181.782 621.790, 187.181 632.672, 196.349 644 C 204.003 653.457, 208.203 662.197, 206.103 664.297 C 202.578 667.822, 192.251 659.597, 185.233 647.673 C 174.606 629.619, 155.222 613.959, 143.572 614.015 C 134.227 614.060, 129.850 625.182, 133.526 639.540 C 139.165 661.566, 154.885 681.599, 183.104 702.720 C 198.150 713.981, 200.334 716.067, 199.807 718.676 C 199.037 722.486, 192.436 720.868, 179.474 713.690 C 160.494 703.181, 154.014 701.895, 148.388 707.521 C 143.267 712.642, 147.768 722.817, 160.987 736 C 180.128 755.090, 204.087 764.287, 235.247 764.507 L 250.994 764.618 258.147 772.382 C 277.418 793.295, 295.979 807.564, 317.782 818.225 C 325.722 822.108, 329.081 823.232, 332.533 823.163 C 336.884 823.075, 337.067 823.199, 339.403 827.786 C 344.688 838.170, 358.678 844.764, 380.084 846.961 C 408.114 849.837, 424.812 844.990, 439.200 829.800 C 445.796 822.836, 447.121 821.856, 448.450 822.958 C 451.980 825.888, 449.406 834.434, 443.168 840.494 L 439.558 844 453.640 844 C 481.211 844, 506.008 839.874, 534.471 830.550 C 614.586 804.305, 664.839 742.307, 671.059 662.040 C 672.911 638.133, 671.853 618.671, 668.457 614.197 C 668.330 614.030, 665.082 615.928, 661.238 618.414 C 657.395 620.901, 652.056 623.797, 649.375 624.850 L 644.500 626.764 644.333 634.493 C 643.540 671.114, 586.564 694.038, 540.383 676.317 C 539.567 676.004, 539 676.431, 539 677.358 C 539 680.134, 533.171 685.679, 527.757 688.052 C 520.504 691.232, 506.977 691.858, 496.321 689.507 C 482.001 686.348, 471.135 680.732, 456.744 669.051 L 447.988 661.944 445.008 665.338 C 438.878 672.320, 430.154 672.464, 416.848 665.804 C 396.565 655.652, 377.074 636.076, 366.764 615.500 C 356.979 595.973, 350.065 561.856, 355.236 558.616 C 358.524 556.555, 360.529 560.541, 363.981 575.994 C 370.507 605.208, 378.109 620.336, 394.410 636.544 C 403.960 646.040, 412.685 652.190, 423 656.698 C 432.663 660.921, 435.289 660.911, 439.562 656.638 L 442.925 653.275 440.983 649.466 C 439.535 646.626, 439.321 645.318, 440.143 644.328 C 442.489 641.501, 445.378 643.126, 454.876 652.616 C 475.684 673.406, 490.760 681.030, 510.960 680.978 C 527.120 680.936, 532.120 676.474, 527.512 666.206 C 524.756 660.065, 524.763 656, 527.529 656 C 528.295 656, 532.473 658.418, 536.813 661.373 C 549.391 669.937, 553.772 671.229, 572 671.751 C 590.334 672.275, 597.093 671.051, 609.805 664.905 C 623.868 658.106, 633.284 646.844, 634.666 635.171 L 635.265 630.111 630.102 631.473 C 627.262 632.222, 621.637 633.145, 617.600 633.523 C 608.716 634.355, 605.724 633.218, 606.190 629.186 C 606.526 626.285, 605.386 626.724, 624.500 622.138 C 654.852 614.855, 677.471 597.402, 684.015 576.217 C 685.814 570.392, 686.941 553, 685.519 553 C 685.255 553, 681.653 555.275, 677.514 558.055 C 667.216 564.973, 641.986 577.135, 636.694 577.731 C 633.480 578.093, 632.074 577.794, 631.019 576.522 C 628.670 573.692, 630.845 571.944, 646.664 563.945 C 671.469 551.404, 690.001 536.840, 691.531 528.687 C 694.788 511.328, 659.194 508.695, 602 522.064 C 597.325 523.157, 583.375 527.480, 571 531.672 C 550.704 538.547, 547.564 539.340, 538.945 539.771 C 526.848 540.376, 524.974 539.509, 495.982 519.893 C 471.080 503.045, 466.777 499.567, 467.197 496.626 C 468.134 490.053, 478.211 495.041, 512.636 519.119 C 534.217 534.214, 534.835 534.336, 554.500 527.369 C 585.508 516.384, 605.313 510.436, 617.362 508.491 L 621.223 507.868 617.362 505.801 C 611.453 502.639, 602.752 497.011, 600.306 494.768 C 597.847 492.514, 596.918 492.580, 584.561 495.889 C 575.196 498.397, 573 498.029, 573 493.956 C 573 490.197, 575.454 488.680, 584.880 486.614 C 596.598 484.046, 612.372 477.222, 622.712 470.247 C 623.640 469.620, 623.472 467.979, 621.994 463.229 C 620.933 459.819, 619.955 455.397, 619.820 453.402 C 619.670 451.169, 618.985 449.593, 618.038 449.302 C 603.840 444.945, 597.446 434.542, 597.570 416 C 597.653 403.554, 600.725 393.922, 608.683 381.154 C 621.159 361.138, 637.682 350.849, 655.023 352.300 C 669.228 353.488, 688.065 362.488, 700.201 373.884 C 704.526 377.946, 708.220 381.096, 708.409 380.884 C 711.178 377.798, 713.045 370.857, 713.932 360.358 C 714.482 353.836, 716.344 341.975, 718.070 334 C 735.366 254.062, 697.355 176.409, 622.500 138.760 C 609.743 132.344, 592.430 125.648, 582.810 123.410 L 575.306 121.664 572.615 112.082 C 568.733 98.263, 563.897 89.163, 555.867 80.565 C 546.952 71.019, 540.137 67.721, 537.039 71.454 M 523.500 238.402 C 511.188 242.306, 500 253.279, 500 261.450 C 500 266.200, 504.041 264.690, 511.721 257.071 C 520.331 248.528, 525.796 246.500, 538.252 247.221 C 547.813 247.774, 551.231 246.156, 548.543 242.348 C 545.272 237.714, 532.176 235.651, 523.500 238.402 M 681.831 322.035 C 678.974 323.702, 676.697 331.331, 677.210 337.516 C 678.243 349.977, 689.386 356.380, 700.595 350.954 C 708.715 347.023, 707.555 344, 697.926 344 C 688.757 344, 686.528 341.248, 687.540 331.176 C 688.347 323.141, 686.100 319.543, 681.831 322.035 M 569.232 337.432 C 568.180 338.770, 566.539 343.473, 565.586 347.884 C 563.729 356.478, 561.011 361.160, 554.634 366.752 C 546.837 373.589, 534.583 375.913, 526.630 372.063 C 517.968 367.870, 508 353.869, 508 345.897 C 508 342.844, 506.150 340, 504.165 340 C 501.019 340, 500 342.197, 500 348.978 C 500 361.252, 509.451 376.244, 520.273 381.136 C 528.443 384.830, 545.241 384.610, 553.192 380.705 C 566.794 374.025, 575.855 360.945, 576.771 346.665 C 577.468 335.811, 573.922 331.469, 569.232 337.432 M 641.727 362.922 C 625.830 368.087, 613.762 385.255, 618.384 396.130 C 624.358 410.188, 659.404 420.418, 690.392 417.150 C 700.755 416.057, 713.752 413.388, 715.272 412.040 C 718.125 409.512, 700.378 385.250, 689.337 376.584 C 674.995 365.328, 653.399 359.131, 641.727 362.922 M 608.138 404.799 C 604.843 420.138, 607.665 431.028, 616.323 436.391 C 620.803 439.166, 621.439 439.275, 632.193 439.110 C 638.355 439.015, 643.566 438.767, 643.775 438.558 C 643.984 438.350, 642.444 434.126, 640.354 429.172 L 636.554 420.165 629.027 416.859 C 621.760 413.667, 613.256 406.659, 610.388 401.500 C 609.410 399.739, 609.141 400.134, 608.138 404.799 M 786.500 406.678 C 765.840 408.442, 731.387 412.433, 730.950 413.114 C 730.648 413.585, 728.779 414.089, 726.798 414.235 C 724.816 414.381, 723.349 414.751, 723.538 415.058 C 724.663 416.889, 718.781 421.301, 712.161 423.592 C 704.543 426.228, 682.408 428.732, 676.741 427.598 C 674.129 427.076, 674.334 427.506, 680.233 434.930 C 684.069 439.757, 687.082 442.675, 688 442.450 C 688.825 442.249, 694.450 441.587, 700.500 440.981 C 706.550 440.374, 718.475 439.017, 727 437.966 C 749.503 435.190, 766.781 433.946, 781.047 434.074 C 793.106 434.182, 793.944 434.051, 802.592 430.711 C 815.401 425.764, 823.005 421.697, 826.757 417.786 L 830.013 414.391 828.003 412.233 C 823.897 407.827, 804.092 405.176, 786.500 406.678 M 832.500 426.581 C 820.783 436.378, 779.535 452.104, 752.976 456.900 C 738.267 459.556, 711.305 463, 705.212 463.001 C 702.620 463.001, 697.125 463.724, 693 464.608 C 684.589 466.409, 642.583 466.027, 636.152 464.091 C 632.849 463.097, 632.813 463.120, 633.503 465.792 C 634.988 471.547, 637.952 487.066, 639.155 495.388 L 640.415 504.100 654.458 503.430 C 682.947 502.072, 697.598 507.366, 701.074 520.276 C 702.697 526.301, 701.678 531.362, 697.472 538.176 L 693.780 544.158 695.026 552.165 C 698.115 572.027, 693.623 587.274, 680.238 602.354 C 676.286 606.806, 676.345 609.801, 680.547 618.094 C 685.674 628.210, 694.008 632.187, 713.947 634.033 C 731.088 635.619, 741.427 634.871, 762.268 630.536 C 804.702 621.709, 827.957 610.698, 832.037 597.500 C 832.861 594.833, 833.483 581.670, 833.903 558 C 834.250 538.475, 834.859 521.988, 835.256 521.363 C 835.653 520.738, 835.278 519.646, 834.423 518.936 C 825.473 511.509, 824.718 488.302, 832.944 473.500 L 835.722 468.500 835.926 446.250 C 836.037 434.012, 835.987 424.016, 835.814 424.036 C 835.641 424.056, 834.150 425.201, 832.500 426.581 M 650.367 426.406 C 650.604 427.008, 652.727 433.281, 655.087 440.346 C 660.065 455.255, 659.762 455, 672.565 455 C 681.294 455, 681.933 454.736, 679.634 452.079 C 678.653 450.945, 663.335 428.730, 662.582 427.349 C 662.099 426.463, 650.023 425.531, 650.367 426.406 M 767 442.633 C 765.625 442.832, 760.450 443.479, 755.500 444.070 C 750.550 444.661, 738.850 446.237, 729.500 447.572 C 720.150 448.907, 708.675 450.418, 704 450.930 C 696.906 451.706, 698.642 451.805, 714.500 451.525 C 729.111 451.267, 736.965 450.598, 748.500 448.631 C 766.608 445.542, 782.475 440.398, 767 442.633 M 634.140 448.862 C 631.872 449.498, 631.919 449.591, 635.337 451.221 C 639.427 453.171, 649.007 454.686, 648.986 453.379 C 648.916 448.850, 647.812 447.999, 642.133 448.100 C 639.035 448.155, 635.438 448.497, 634.140 448.862 M 844.684 474.417 C 838.250 480.380, 835.399 493.981, 838.412 504.344 C 841.599 515.308, 841.574 515.272, 844.811 513.598 C 855.643 507.996, 858.769 485.335, 850.137 474.995 L 847.486 471.820 844.684 474.417 M 617.151 484.418 L 609.801 488.747 613.151 491.263 C 616.714 493.940, 628.985 500.348, 629.522 499.812 C 630.045 499.289, 625.708 479.996, 625.079 480.045 C 624.760 480.070, 621.193 482.038, 617.151 484.418 M 851 522.537 C 849.625 523.302, 847.487 523.945, 846.250 523.965 C 844.019 524, 844 524.124, 844.022 538.750 L 844.044 553.500 847.043 548.356 C 850.395 542.607, 854.299 528.624, 853.815 524.096 C 853.512 521.261, 853.401 521.199, 851 522.537 M 681.817 645.500 C 681.992 650.450, 681.712 657.875, 681.196 662 C 680.679 666.125, 680.332 669.596, 680.425 669.713 C 680.810 670.201, 690.034 667.023, 693.775 665.115 C 701.657 661.094, 717.574 647.051, 715.885 645.608 C 715.673 645.427, 710.325 644.547, 704 643.653 C 695.846 642.500, 690.900 641.223, 687 639.264 L 681.500 636.500 681.817 645.500 M 551.861 837.056 C 550.960 837.561, 545.641 839.512, 540.041 841.391 C 529.826 844.818, 527.312 846, 530.239 846 C 531.384 846, 531.998 847.431, 532.494 851.250 C 532.869 854.138, 534.711 862.785, 536.588 870.467 C 540.028 884.546, 540.845 892.360, 538.996 893.502 C 538.444 893.843, 531.092 894.486, 522.657 894.930 C 507.138 895.747, 501.500 897.091, 501.500 899.974 C 501.500 902.713, 507.840 905.681, 519.651 908.472 C 536.585 912.473, 541.604 914.261, 559 922.489 C 588.420 936.404, 608 940.495, 608 932.728 C 608 927.466, 593.006 917.117, 576.562 911.030 C 566.481 907.298, 564.179 905.581, 565.309 902.636 C 566.606 899.257, 578.549 900.791, 603 907.476 C 626.233 913.828, 636.099 913.521, 636.799 906.424 C 637.637 897.919, 624.893 891.775, 602.500 889.888 C 595.900 889.331, 583.767 887.892, 575.538 886.688 L 560.576 884.500 559.341 878.500 C 557.522 869.660, 555.920 858.870, 554.637 846.818 C 553.633 837.389, 553.308 836.244, 551.861 837.056 M 383.564 858 C 383.414 858.275, 383.697 864.800, 384.193 872.500 C 385.623 894.699, 385.633 905.233, 384.229 907.706 C 382.267 911.162, 376.929 911.988, 356.500 911.998 C 339.188 912.007, 337.205 912.187, 334.177 914.034 C 327.359 918.190, 332.272 921.136, 353.457 925.594 C 374.901 930.107, 375.914 930.510, 398.517 943.523 C 429.326 961.261, 439.127 964.468, 443.916 958.379 C 449.257 951.590, 438.027 939.713, 422.523 935.756 C 412.088 933.092, 410.481 930.368, 417.591 927.398 C 423.791 924.807, 432.515 926.908, 442.904 933.493 C 456.805 942.306, 468.454 944.637, 473.481 939.610 C 481.019 932.071, 466.404 924.398, 420 911.532 C 414.775 910.084, 409.903 908.309, 409.174 907.588 C 407.531 905.963, 405.060 886.802, 404.304 869.824 L 403.740 857.148 393.788 857.324 C 388.315 857.421, 383.714 857.725, 383.564 858" stroke="none" fill="#1a1a1a" fill-rule="evenodd"/>
</svg>