<svg xmlns="http://www.w3.org/2000/svg" width="1024" height="1024" viewBox="0 0 1024 1024" version="1.1">
	<path d="M 457.200 88.042 C 439.543 89.899, 416.762 108.404, 398.775 135.500 C 394.029 142.650, 389.393 150.106, 388.474 152.069 C 387.109 154.983, 385.968 155.861, 382.255 156.854 C 376.533 158.385, 357.314 166.880, 348.033 171.982 C 295.854 200.664, 259.407 254.221, 248.401 318.387 C 246.176 331.359, 245.434 364.642, 247.038 379.500 C 247.750 386.100, 248.146 393.975, 247.917 397 C 244.780 438.394, 251.917 463.738, 273.739 488.702 C 288.479 505.565, 314.466 521.418, 341.898 530.283 L 355.025 534.525 344.262 546.057 C 338.343 552.399, 324.113 566.794, 312.640 578.044 C 288.003 602.202, 282.663 608.657, 263.294 637.685 C 260.657 641.637, 258.245 644.899, 257.934 644.935 C 257.622 644.971, 256.047 642.187, 254.434 638.750 C 245.343 619.384, 223.672 593.564, 209.500 585.214 C 194.224 576.213, 179.065 575.606, 171.948 583.712 L 168.732 587.375 169.262 597.754 C 169.708 606.500, 169.566 608.047, 168.359 607.584 C 152.570 601.525, 136.229 602.400, 129.871 609.644 C 123.950 616.389, 123.294 630.546, 128.332 642.836 C 134.538 657.973, 156.943 684.222, 172.733 694.854 C 184.076 702.492, 209.443 714, 214.937 714 C 216.232 714, 216.903 715.018, 217.326 717.624 C 217.650 719.617, 218.611 722.018, 219.463 722.959 C 220.862 724.505, 220.856 724.981, 219.409 727.882 C 217.204 732.303, 218.143 734.917, 223.968 740.568 C 231.260 747.641, 235.884 749.172, 251.755 749.765 L 265.011 750.261 269.678 756.801 C 275.123 764.433, 284.907 774.183, 293.189 780.233 C 301.561 786.349, 325.988 799.585, 333.242 801.937 C 335.301 802.604, 337.326 803.715, 337.742 804.405 C 338.402 805.497, 351.675 815.616, 360.480 821.738 C 363.456 823.808, 363.464 823.842, 367.138 849.149 C 369.161 863.085, 370.606 874.828, 370.349 875.244 C 370.092 875.660, 364.396 876.016, 357.691 876.035 C 329.753 876.115, 316.993 881.786, 317.004 894.118 C 317.012 903.440, 323.452 908.480, 337.315 910.011 C 341.817 910.508, 349.775 911.382, 355 911.955 C 360.225 912.527, 366.075 913.565, 368 914.261 C 373.659 916.308, 390.264 925.640, 401.795 933.253 C 425.482 948.890, 438.498 950.288, 446.726 938.078 C 448.003 936.184, 449 933.187, 449 931.245 C 449 928.351, 449.286 927.900, 450.750 928.486 C 451.713 928.871, 455.049 929.428, 458.164 929.724 C 469.417 930.793, 477 924.032, 477 912.930 C 477 893.939, 452.454 879.579, 411.250 874.464 C 408.363 874.106, 406 873.565, 406 873.263 C 406 872.961, 403.975 861.994, 401.500 848.891 C 399.025 835.789, 397 824.622, 397 824.077 C 397 823.531, 400.262 822.152, 404.250 821.011 C 408.238 819.871, 412.994 818.269, 414.821 817.452 C 417.305 816.339, 420.076 816.124, 425.821 816.594 C 437.820 817.578, 472.081 814.456, 487.703 810.954 C 490.212 810.392, 492.460 810.127, 492.698 810.364 C 493.056 810.722, 506 855.827, 506 856.716 C 506 856.872, 504.856 857, 503.457 857 C 500.072 857, 476.320 864.716, 472.422 867.082 C 466.871 870.452, 465.741 875.628, 468.992 882.791 C 471.639 888.624, 477.306 891.086, 497 894.958 C 517.190 898.929, 529.674 902.684, 550.676 911.102 C 575.089 920.888, 581.608 922.347, 590.219 919.956 C 597.277 917.996, 603 911.089, 603 904.532 C 603 902.576, 603.512 901.998, 605.250 901.990 C 612.952 901.957, 624.004 892.656, 623.994 886.215 C 623.964 866.154, 601.135 854.407, 558.335 852.429 L 543.169 851.729 542.109 847.614 C 541.526 845.351, 537.890 833.411, 534.027 821.081 C 530.165 808.750, 527.117 798.550, 527.253 798.414 C 527.389 798.279, 532.455 795.688, 538.511 792.656 C 572.653 775.566, 603.105 746.381, 618.504 715.992 C 620.542 711.970, 621.492 710.986, 622.809 711.530 C 639.236 718.320, 655.932 719.387, 667.876 714.412 C 673.470 712.082, 678.945 706.198, 679.656 701.752 C 680.258 697.985, 680.288 697.964, 683.881 698.729 C 690.149 700.064, 715.036 699.631, 720.500 698.092 C 739.456 692.752, 746.590 681.686, 738.021 670.913 L 735.168 667.326 740.262 665.174 C 743.063 663.990, 745.471 663.137, 745.612 663.279 C 745.753 663.420, 748.407 669.564, 751.509 676.932 C 759.739 696.480, 765.946 704.982, 772 704.996 C 773.322 704.999, 773.469 713.940, 773.238 780.500 L 772.975 856 767.211 856 C 743.710 856, 713.510 864.916, 703.235 874.888 C 697.632 880.326, 695.784 884.290, 695.227 892.067 C 693.579 915.107, 712.140 928.441, 754.500 934.645 C 770.738 937.024, 808.497 937.054, 825.507 934.702 C 865.937 929.113, 885.697 915.078, 883.672 893.391 C 882.377 879.519, 873.830 871.116, 854 864.216 C 842.998 860.389, 828.926 857.118, 817 855.616 L 807.500 854.420 806.876 838.460 C 806.533 829.682, 805.969 801.575, 805.624 776 C 805.279 750.425, 804.706 722.685, 804.350 714.357 L 803.703 699.213 807.106 696.982 C 817.106 690.427, 817.208 683.332, 807.678 657.160 C 804.005 647.073, 801 638.462, 801 638.024 C 801 637.586, 802.988 636.929, 805.417 636.565 C 821.763 634.113, 828.467 608.592, 817.192 591.738 C 815.591 589.345, 815.480 588.232, 816.357 583.390 C 818.648 570.751, 813.274 553.932, 804.466 546.179 C 799.938 542.193, 792.049 539.137, 781.647 537.339 L 776.794 536.500 773.285 527.304 L 769.777 518.108 773.819 509.640 C 780.301 496.064, 781.243 492.538, 781.740 480 C 782.466 461.665, 776.668 444.930, 764.240 429.485 C 749.056 410.616, 719.480 400.187, 697.500 405.951 C 693.650 406.961, 690.421 407.719, 690.325 407.635 C 690.229 407.552, 690.794 404.787, 691.581 401.492 C 697.770 375.572, 688.070 345.145, 664.921 317.859 C 660.097 312.173, 659.187 310.448, 658.596 305.859 C 648.453 227.192, 594.018 163.609, 524.573 149.314 C 517.085 147.773, 513.247 146, 517.398 146 C 519.798 146, 530.343 140.021, 533.776 136.713 C 542.546 128.265, 538.256 117.596, 524.596 113.880 C 517.136 111.850, 478.713 113.206, 474.778 115.637 C 473.690 116.310, 473.719 116.205, 476.481 109.500 C 483.062 93.525, 476.328 86.031, 457.200 88.042 M 456.502 99.088 C 446.455 101.561, 437.831 107.074, 426.989 117.953 C 412.848 132.143, 399.258 151.639, 397.525 160.222 C 396.855 163.545, 393.417 166.908, 390.020 167.565 C 376.769 170.128, 356.093 179.470, 340.172 190.087 C 284.051 227.514, 250.659 300.909, 257.010 372.877 C 257.768 381.469, 258.342 389.850, 258.286 391.500 C 258.229 393.150, 257.872 400.575, 257.491 408 C 255.187 452.966, 276.571 487.378, 320.757 509.810 C 339.785 519.470, 356.100 524.471, 378.500 527.508 C 396.381 529.933, 398.193 530.343, 399.379 532.231 C 400.212 533.558, 400.087 534.342, 398.843 535.586 C 396.890 537.539, 378.378 537.923, 371 536.164 C 367.840 535.410, 366.390 535.406, 366.132 536.149 C 364.998 539.412, 347.757 558.317, 327.928 578.041 C 315.465 590.439, 304.506 602.055, 303.575 603.855 C 302.644 605.655, 301.370 606.957, 300.743 606.748 C 299.274 606.258, 291.354 616.268, 273.797 640.804 C 266.045 651.637, 257.780 663.007, 255.430 666.071 C 248.702 674.846, 231.806 702.008, 229.810 707.261 C 228.814 709.879, 228 713.544, 228 715.404 L 228 718.787 232.250 717.844 C 238.872 716.375, 250.784 710.179, 272.187 697.071 C 291.018 685.539, 295 683.888, 295 687.611 C 295 689.227, 279.590 702.137, 266.500 711.488 C 254.772 719.866, 239.487 727.834, 233.593 728.642 C 227.832 729.432, 227.253 730.268, 230.628 732.922 C 237.510 738.336, 255.665 740.369, 271.630 737.515 C 294.746 733.381, 309.304 725.592, 328.088 707.307 C 341.603 694.150, 344.204 693.706, 337.933 705.627 C 332.944 715.112, 324.045 725.191, 315.750 730.752 C 308.983 735.288, 310.948 737, 322.922 737 C 348.601 737, 377.247 719.303, 399 690 C 422.192 658.759, 428.841 609.043, 413.899 578.590 C 412.305 575.340, 411 571.388, 411 569.809 C 411 562.283, 418.739 567.724, 423.851 578.845 C 439.063 611.938, 432.026 662.577, 407.605 695.751 C 401.137 704.537, 383.864 722.173, 376.126 727.892 C 352.101 745.647, 322.154 752.143, 304.350 743.462 L 299.200 740.951 294.350 742.838 C 291.682 743.876, 287.137 745.282, 284.250 745.962 C 278.072 747.418, 277.647 748.838, 281.750 754.316 C 290.317 765.755, 316.461 783.797, 334.421 790.664 C 338.314 792.153, 342.664 794.585, 344.087 796.069 C 345.510 797.553, 350.373 801.509, 354.894 804.862 C 367.348 814.095, 374.129 815.497, 391.619 812.455 C 410.103 809.240, 414.858 807.564, 420.074 802.427 C 425.626 796.959, 428.361 796.895, 427.826 802.248 L 427.500 805.500 440 805.241 C 532.558 803.319, 608.788 745.840, 625.436 665.417 C 634.824 620.067, 625.141 568.357, 599.875 528.912 C 592.208 516.941, 592.686 517.168, 581.988 520.449 C 572.318 523.416, 568 523.309, 568 520.103 C 568 517.426, 569.368 516.577, 581.590 511.665 C 600.226 504.175, 614.029 495.915, 627.298 484.312 C 635.323 477.295, 636.477 475.342, 637.396 467.216 C 639.500 448.621, 653.122 427.837, 670.055 417.385 C 676.636 413.323, 678.692 409.456, 681.691 395.500 C 686.386 373.648, 675.470 343.542, 654.864 321.514 C 650.316 316.652, 649 314.548, 649 312.138 C 649 310.430, 647.843 303.554, 646.430 296.859 C 631.037 223.955, 582.877 172.008, 518 158.333 C 511.642 156.993, 504.898 156.536, 491.238 156.521 C 474.356 156.502, 472.932 156.360, 472.389 154.649 C 471.551 152.010, 472.178 151.669, 485.416 147.547 C 505.468 141.304, 527 131.018, 527 127.683 C 527 121.179, 488.466 121.789, 468.079 128.616 C 462.236 130.572, 459.394 132.271, 454.710 136.608 C 447.125 143.631, 435.235 152, 432.843 152 C 428.583 152, 431.280 147.564, 443.635 134.256 C 461.422 115.097, 471.042 101.709, 468.703 99.369 C 467.628 98.294, 460.402 98.128, 456.502 99.088 M 790 134.701 C 789.175 134.999, 779.209 138.769, 767.853 143.079 C 756.497 147.389, 743.222 151.958, 738.353 153.233 L 729.500 155.551 729.200 161.879 C 728.985 166.400, 730.061 173.675, 732.968 187.354 C 735.206 197.884, 737.848 211, 738.840 216.500 L 740.643 226.500 734.571 226.551 C 717.747 226.692, 706.079 235.869, 706.026 249 C 705.973 262.104, 721.240 268.218, 735.821 260.932 C 745.668 256.011, 751 248.004, 751 238.137 C 751 231.696, 740.758 178.595, 737.451 167.889 C 737.062 166.629, 737.921 166.146, 741.400 165.669 C 743.846 165.334, 756.055 161.398, 768.531 156.923 C 788.464 149.774, 791.393 148.965, 792.682 150.253 C 794.240 151.811, 798.680 168.316, 802.433 186.500 L 804.704 197.500 797.102 198.076 C 783.966 199.072, 774.657 203.961, 770.466 212.065 C 766.729 219.293, 769.597 230.102, 776.206 233.693 C 781.694 236.675, 795.121 236.195, 801.620 232.785 C 818.205 224.081, 818.768 211.971, 805.074 158.500 C 798.835 134.142, 797.476 131.996, 790 134.701 M 880.443 148.700 C 878.882 150.261, 878.796 153.268, 879.396 185.450 C 879.755 204.727, 880.311 223.711, 880.631 227.636 L 881.214 234.771 876.579 233.711 C 866.286 231.356, 849.892 236.139, 843.135 243.469 C 828.030 259.856, 851.528 280.688, 873.678 270.547 C 889.223 263.431, 889.974 261.574, 889.894 230.500 C 889.860 217.300, 889.503 201.325, 889.101 195 C 888.698 188.675, 888.624 183.228, 888.935 182.896 C 890.007 181.750, 901.730 187.077, 905.799 190.560 C 914.131 197.691, 918.145 212.363, 914.202 221.275 C 910.554 229.523, 915.702 227.985, 919.573 219.670 C 926.595 204.590, 919.520 186.316, 901.479 172.933 C 892.029 165.923, 891.399 165.054, 888.566 155.121 C 886.237 146.957, 883.974 145.169, 880.443 148.700 M 570.881 222.895 C 568.867 224.526, 568.680 225.189, 569.543 227.645 C 570.520 230.427, 570.743 230.504, 578.227 230.673 C 587.074 230.873, 595.895 234.194, 600.588 239.092 C 604.799 243.487, 609 242.500, 609 237.116 C 609 227.027, 579.411 215.988, 570.881 222.895 M 406.890 241.470 C 395.675 245.597, 382.125 260.168, 382.022 268.211 C 381.997 270.129, 385.723 274, 387.593 274 C 388.262 274, 390.188 271.557, 391.874 268.570 C 398.125 257.492, 407.197 250.815, 418.120 249.250 C 422.713 248.592, 423.548 248.140, 423.830 246.157 C 424.632 240.525, 415.968 238.128, 406.890 241.470 M 801.240 284.831 C 800.353 285.394, 790 343.075, 790 347.456 C 790 347.544, 786.063 347.429, 781.250 347.200 C 767.118 346.528, 759.830 349.762, 755.880 358.459 C 750.758 369.735, 755.587 377.302, 769.573 379.915 C 779.204 381.714, 791.904 376.029, 795.944 368.111 C 797.760 364.550, 805 320.140, 805 312.558 C 805 309.429, 805.127 309.424, 809.775 312.358 C 821.965 320.053, 826.260 331.841, 821.114 343.475 C 817.849 350.855, 820.261 354.739, 825.102 349.898 C 835.339 339.661, 833.518 321.041, 820.969 307.626 C 817.758 304.194, 813.486 300.512, 811.475 299.443 C 807.953 297.571, 807.836 297.337, 808.309 293.051 C 809.144 285.471, 805.997 281.811, 801.240 284.831 M 590 293.529 C 580.470 297.821, 575.254 308.793, 576.302 322.343 C 576.607 326.279, 577.144 330.428, 577.496 331.562 C 578.130 333.607, 578.061 333.613, 569.318 332.256 C 559.619 330.750, 542.410 331.144, 537.500 332.983 C 527.843 336.602, 505.190 366.354, 497.558 385.444 C 493.346 395.977, 493.521 396.702, 506.867 424.036 C 516.857 444.495, 533.825 458.312, 556.030 464.068 C 572.711 468.392, 590.736 465.540, 596.448 457.674 C 599.520 453.443, 598.990 443.677, 594.702 425.500 C 590.524 407.788, 587.411 388.978, 588.283 386.706 C 588.623 385.819, 595.786 381.734, 604.201 377.629 C 620.821 369.521, 623.767 367.214, 624.679 361.589 C 625.505 356.503, 623.713 353.642, 616.824 349.041 L 611.036 345.176 614.370 343.209 C 624.187 337.417, 626.690 315.787, 618.955 303.590 C 617.330 301.027, 616 298.586, 616 298.165 C 616 297.743, 613.862 296.349, 611.250 295.067 C 605.106 292.051, 594.918 291.314, 590 293.529 M 601.223 301.557 C 598.002 303.813, 598.487 305.888, 602.642 307.624 C 607.449 309.632, 611 308.746, 611 305.538 C 611 303.015, 607.734 300, 605 300 C 604.145 300, 602.445 300.701, 601.223 301.557 M 426.173 311.905 C 419.600 314.175, 413.815 319.643, 410.201 327 C 405.959 335.637, 406.187 351.728, 410.686 361.225 C 425.284 392.042, 464.244 386.909, 466.681 353.847 C 468.806 325.021, 448.644 304.145, 426.173 311.905 M 441.388 326.980 C 438.516 328.140, 434.993 332.799, 435.032 335.385 C 435.134 342.158, 449.647 347.197, 453.443 341.777 C 458.623 334.382, 449.818 323.574, 441.388 326.980 M 542.234 342.123 C 537.816 343.398, 526.312 354.442, 520.720 362.776 C 512.729 374.686, 504.309 393.338, 505.853 395.708 C 509.846 401.835, 528.845 399.758, 547.789 391.123 C 553.680 388.438, 569.918 380.994, 583.874 374.582 C 597.830 368.170, 610.880 362.235, 612.874 361.394 L 616.500 359.864 614 357.780 C 601.189 347.101, 557.792 337.633, 542.234 342.123 M 573.692 392.724 C 569.871 394.851, 568.986 395.821, 569.380 397.450 C 569.654 398.578, 571.268 407.150, 572.967 416.500 C 574.667 425.850, 576.719 434.978, 577.529 436.784 C 580.361 443.105, 578.459 445.885, 573.236 443.061 C 572.281 442.545, 568.872 440.976, 565.659 439.575 C 558.036 436.250, 548.948 428.939, 539.490 418.520 L 531.865 410.122 520.931 409.811 C 514.917 409.640, 509.997 409.887, 509.998 410.360 C 509.999 410.833, 511.357 413.758, 513.014 416.860 C 526.158 441.451, 547.556 455.168, 573.142 455.402 C 589.998 455.557, 590.974 452.830, 584.020 425 C 581.923 416.605, 580.701 408.805, 580.300 401.250 C 579.971 395.063, 579.432 390.011, 579.101 390.024 C 578.771 390.038, 576.336 391.253, 573.692 392.724 M 558.500 401.266 C 557.400 401.903, 552.833 403.812, 548.352 405.509 L 540.203 408.593 549.455 416.855 C 559.224 425.578, 565.828 430.505, 566.649 429.684 C 567.139 429.195, 562.371 405.071, 561.139 401.804 C 560.615 400.411, 560.142 400.315, 558.500 401.266 M 703 416.085 C 694.667 417.938, 681 422.309, 681 423.120 C 681 423.563, 678.188 425.803, 674.750 428.097 C 665.588 434.213, 659.943 439.882, 661.021 441.884 C 661.499 442.773, 662.160 445.184, 662.489 447.242 L 663.088 450.985 668.794 448.159 C 671.932 446.605, 677.538 444.066, 681.250 442.517 L 688 439.700 688 431.472 C 688 425.557, 688.402 422.911, 689.430 422.058 C 691.626 420.236, 693 423.759, 693 431.209 L 693 437.550 708.250 432.638 C 716.638 429.936, 724.063 427.577, 724.750 427.394 C 726.792 426.853, 726.394 417.365, 724.296 416.560 C 721.196 415.371, 707.578 415.067, 703 416.085 M 731.014 419.688 C 731.053 424.956, 731.927 425.804, 736.305 424.820 C 741.750 423.597, 741.760 423.731, 736.005 420.599 C 731.512 418.154, 731.001 418.061, 731.014 419.688 M 742.486 427.637 C 741.394 428.438, 738.587 429.575, 736.250 430.165 L 732 431.237 732 442.369 L 732 453.500 745.750 453.500 C 759.899 453.500, 765.244 454.588, 766.443 457.713 C 766.939 459.006, 766.126 459.177, 761.189 458.820 L 755.347 458.397 757.185 466.289 C 760.543 480.711, 764.068 486, 770.321 486 C 771.712 486, 770.988 467.322, 769.388 461.932 C 766.201 451.197, 760.427 441.651, 751.085 431.671 C 746.270 426.528, 744.886 425.878, 742.486 427.637 M 708.687 438.778 L 693.874 444.489 694.519 454.494 C 695.433 468.664, 695.309 468.393, 699.819 466.092 C 705.330 463.281, 720.543 457.259, 724.121 456.474 C 727.243 455.788, 727.251 455.769, 726.635 450.643 C 726.295 447.814, 726.013 442.688, 726.009 439.250 C 726.003 434.903, 725.619 433.010, 724.750 433.034 C 724.063 433.052, 716.834 435.637, 708.687 438.778 M 656.579 443.913 C 654.817 445.859, 649.837 457.171, 650.466 457.799 C 650.655 457.988, 652.393 457.105, 654.328 455.837 C 657.588 453.700, 657.870 453.107, 658.173 447.764 C 658.353 444.592, 658.457 441.997, 658.405 441.998 C 658.353 441.999, 657.531 442.861, 656.579 443.913 M 686 448.092 C 685.175 448.540, 679.645 451.247, 673.712 454.108 L 662.924 459.311 663.557 463.905 C 664.457 470.429, 666.866 482.199, 667.414 482.747 C 667.668 483.001, 673.082 480.350, 679.445 476.855 C 690.854 470.588, 691.005 470.458, 690.353 467.500 C 689.989 465.850, 689.198 460.625, 688.596 455.889 C 687.685 448.728, 687.247 447.415, 686 448.092 M 736.703 458.731 C 733.722 459.041, 733.004 459.489, 733.365 460.813 C 733.618 461.741, 734.105 464.300, 734.447 466.500 C 734.789 468.700, 736.258 474.466, 737.712 479.314 C 740.065 487.162, 740.582 488.072, 742.427 487.622 C 743.567 487.344, 747.566 486.589, 751.313 485.945 C 757.031 484.961, 758.010 484.509, 757.401 483.136 C 754.979 477.678, 752.001 467.756, 751.432 463.250 L 750.770 458 745.635 458.168 C 742.811 458.261, 738.791 458.514, 736.703 458.731 M 652.626 465.293 L 647.752 468.321 648.291 478.411 C 648.587 483.960, 649.335 490.172, 649.952 492.216 L 651.075 495.931 656.599 491.716 C 661.847 487.711, 662.092 487.325, 661.502 484 C 661.161 482.075, 660.304 476.558, 659.597 471.739 C 658.890 466.920, 658.129 462.817, 657.906 462.621 C 657.683 462.425, 655.307 463.627, 652.626 465.293 M 720.500 463.587 C 718.300 464.382, 712.080 467.144, 706.678 469.724 L 696.855 474.415 697.502 477.957 C 698.039 480.895, 705.891 502, 706.448 502 C 706.543 502, 709.749 500.459, 713.573 498.575 C 719.331 495.738, 728.218 492.160, 733.656 490.490 C 734.451 490.246, 733.909 487.256, 731.919 480.910 C 730.329 475.836, 728.738 469.506, 728.385 466.843 C 727.667 461.435, 727.101 461.201, 720.500 463.587 M 687.500 479.398 C 686.400 480.109, 682.013 482.641, 677.750 485.024 C 673.487 487.407, 670 489.839, 670.001 490.428 C 670.002 492.502, 676.049 504.253, 680.052 509.958 L 684.099 515.729 692.114 510.364 C 696.522 507.414, 700.619 505, 701.219 505 C 701.819 505, 701.591 504.205, 700.712 503.234 C 697.816 500.035, 692.949 488.363, 692.330 483.135 C 691.700 477.820, 690.899 477.200, 687.500 479.398 M 631 496.243 C 622.448 502.933, 605.986 513, 603.599 513 C 601.379 513, 601.500 513.368, 605.836 519.805 C 607.946 522.937, 611.608 528.780, 613.974 532.790 C 622.759 547.678, 637.214 555.900, 661 559.536 C 670.865 561.044, 687.731 561.435, 696.653 560.363 L 701.807 559.744 700.579 556.197 C 699.462 552.971, 698.544 552.324, 690.425 549.044 C 665.656 539.035, 648.122 520.705, 640.582 496.938 L 638.500 490.376 631 496.243 M 759.618 491.555 C 743.859 494.686, 716.927 505.290, 697.750 515.913 C 687.766 521.444, 678.646 527.888, 678.556 529.475 C 678.485 530.708, 689.116 537.280, 694.784 539.508 L 699.069 541.192 703.495 537.111 C 708.272 532.708, 722.509 525.505, 748 514.594 L 763.500 507.959 766.232 500.729 C 767.735 496.753, 769.246 492.712, 769.589 491.750 C 770.339 489.649, 769.312 489.629, 759.618 491.555 M 658.750 497.535 C 656.138 499.451, 654 501.490, 654 502.065 C 654 503.845, 661.772 514.662, 667.381 520.688 L 672.721 526.425 676.301 523.049 L 679.881 519.672 675.938 515.192 C 672.037 510.760, 665 498.005, 665 495.366 C 665 493.339, 663.990 493.690, 658.750 497.535 M 740.500 528.929 C 722.170 536.850, 708.115 544.357, 708.033 546.268 C 708.015 546.691, 713.439 559.966, 720.086 575.768 C 726.733 591.571, 735.564 612.600, 739.709 622.500 C 772.064 699.770, 770.157 696.576, 783.826 696.402 C 796.463 696.242, 806 690.852, 806 683.870 C 806 681.670, 796.552 655.015, 786.488 628.827 C 785.801 627.040, 780.326 625.950, 763.500 624.248 C 752.142 623.099, 747.588 620.979, 743.792 615.072 C 738.855 607.389, 740.993 594.994, 748.658 586.874 L 751.136 584.248 747.318 583.540 C 735.252 581.302, 729.349 566.382, 735.394 553.401 C 738.928 545.812, 749.132 539.650, 760.250 538.392 C 766.699 537.663, 766.852 537.341, 763.765 531 C 762.560 528.525, 761.333 525.102, 761.037 523.393 L 760.500 520.285 740.500 528.929 M 760 549.315 C 747.004 552.336, 740.992 559.385, 743.899 568.193 C 745.686 573.609, 747.809 574.294, 762.174 574.092 C 774.985 573.912, 789.642 575.925, 801.250 579.458 L 806 580.904 806 574.040 C 806 563.700, 801.606 555.642, 793.787 551.643 C 787.027 548.186, 769.928 547.008, 760 549.315 M 628.440 562.704 C 631.882 571.673, 637.269 595.390, 638.951 608.974 C 641.916 632.927, 638.376 664.721, 629.976 689.571 C 628.339 694.413, 627 698.954, 627 699.662 C 627 704.911, 656.131 709.532, 665.172 705.717 C 673.450 702.223, 673.692 697.388, 666.028 688.629 C 657.480 678.861, 660.572 674.308, 671.146 681.094 C 681.765 687.908, 697.451 691.087, 710.500 689.070 C 718.471 687.837, 732.292 681.484, 732.800 678.819 C 733.298 676.205, 726.512 669.459, 719.365 665.462 C 711.163 660.875, 711.490 659.391, 720.604 659.840 C 724.397 660.028, 730.805 659.619, 734.844 658.933 C 743.752 657.419, 743.734 658.440, 735.207 638.364 C 731.969 630.739, 723.960 611.755, 717.410 596.177 L 705.500 567.855 702 568.450 C 676.656 572.760, 651.696 571.104, 634.667 563.982 C 629.329 561.750, 627.966 561.470, 628.440 562.704 M 761.358 586.692 C 759.883 586.980, 759.361 587.665, 759.682 588.892 C 759.983 590.044, 759.206 591.290, 757.480 592.421 C 753.808 594.827, 750.638 602.255, 751.445 606.559 C 752.369 611.484, 755.891 613.740, 763.789 614.466 C 786.699 616.573, 794.010 617.850, 794.762 619.876 C 799.428 632.449, 813 626.747, 813 612.214 C 813 594.613, 799.702 585.789, 773.701 586.136 C 768.090 586.211, 762.536 586.461, 761.358 586.692 M 179.980 591.037 C 175.602 599.219, 194.196 634.154, 211.752 650.728 C 220.203 658.706, 214.032 660.882, 204.109 653.423 C 196.760 647.899, 190.781 641.251, 183.288 630.275 C 177.917 622.407, 177.360 621.920, 170.428 619.034 C 160.726 614.996, 154.180 613.708, 145.769 614.183 C 136.251 614.721, 134.656 616.571, 135.165 626.481 C 136.224 647.095, 161.491 677.098, 191 692.781 C 198.444 696.738, 216.284 704, 218.559 704 C 218.779 704, 219.925 702.087, 221.106 699.750 C 222.851 696.294, 239.860 669.926, 248.291 657.607 L 250.271 654.714 245.886 645.667 C 234.317 621.803, 216.432 600.562, 201.558 593.024 C 192.474 588.421, 181.902 587.447, 179.980 591.037 M 788.250 705.337 L 783 706.365 783 788.560 C 783 881.409, 782.251 873.723, 791.191 872.664 C 797.889 871.871, 797.934 871.795, 797.030 863 C 796.606 858.875, 796.173 839.750, 796.067 820.500 C 795.961 801.250, 795.735 782.575, 795.565 779 C 795.394 775.425, 795.197 757.087, 795.127 738.250 C 795.057 719.413, 794.663 704.070, 794.250 704.155 C 793.837 704.240, 791.138 704.772, 788.250 705.337 M 509 804.716 C 504.875 806.123, 501.422 807.328, 501.327 807.393 C 501.232 807.459, 504.944 819.862, 509.577 834.955 C 514.210 850.048, 518 863.153, 518 864.076 C 518 866.958, 515.305 868.460, 512.460 867.164 C 508.504 865.361, 478.556 873.387, 477.332 876.578 C 475.992 880.070, 480.147 881.410, 509.935 887.085 C 521.379 889.266, 539.468 894.911, 554.500 900.993 C 568.006 906.457, 581.879 911, 585.062 911 C 589.593 911, 593.402 906.808, 592.619 902.684 C 591.544 897.025, 581.804 891.068, 555.500 879.981 C 546.311 876.108, 544.487 874.780, 545.332 872.578 C 547.447 867.064, 584.455 879.093, 595.175 888.777 C 598.634 891.902, 599.475 892.207, 603.422 891.762 C 609.987 891.022, 614.360 887.552, 613.589 883.696 C 611.066 871.078, 587.273 863.084, 552 863.003 C 535.588 862.965, 535.551 862.953, 534.567 857.500 C 534.170 855.300, 530.905 844.050, 527.312 832.500 C 523.718 820.950, 520.135 809.362, 519.350 806.750 C 518.565 804.138, 517.602 802.036, 517.211 802.079 C 516.820 802.122, 513.125 803.309, 509 804.716 M 377.650 825.739 L 372.800 826.118 373.391 829.309 C 375.793 842.274, 380.949 881.959, 380.480 883.874 C 379.951 886.038, 379.500 886.204, 375.408 885.743 C 372.937 885.464, 363.296 885.580, 353.981 886.001 C 333.820 886.911, 327.500 888.936, 327.500 894.487 C 327.500 898.734, 330.422 899.794, 345.623 901.061 C 360.812 902.327, 371.306 904.316, 374.769 906.584 C 376.141 907.483, 381.367 910.373, 386.382 913.005 C 391.397 915.638, 401.517 921.632, 408.871 926.325 C 427.150 937.991, 435.544 939.687, 438.870 932.385 C 442.778 923.808, 437.247 916.787, 418.495 906.521 C 406.279 899.832, 404.958 898.613, 407.345 896.226 C 410.644 892.927, 431.722 902.393, 443.519 912.472 C 455.518 922.723, 469.065 922.396, 467.697 911.888 C 466.011 898.927, 442.241 887.709, 410.009 884.662 L 397.500 883.479 396.834 877.490 C 396.468 874.195, 394.320 861.461, 392.061 849.192 C 389.802 836.922, 388.216 826.460, 388.536 825.942 C 389.110 825.013, 387.368 824.980, 377.650 825.739 M 764.500 865.656 C 736.652 868.968, 719.450 874.199, 711.119 881.890 C 706.210 886.422, 706.007 888.270, 710.011 892.010 C 725.890 906.844, 787.724 913.929, 831.893 905.976 C 853.709 902.047, 872 894.054, 872 888.448 C 872 881.528, 849.185 871.220, 824.549 867.008 C 807.583 864.108, 807.380 864.131, 806.716 869.078 C 805.696 876.686, 800.063 880.385, 789.500 880.385 C 778.813 880.385, 773.987 877.089, 772.463 868.750 C 771.738 864.783, 771.763 864.793, 764.500 865.656 M 706.937 901.221 C 708.560 908.416, 712.010 911.770, 723.157 916.986 C 755.546 932.143, 828.294 931.665, 858.814 916.095 C 864.915 912.982, 870.702 907.432, 872.025 903.425 C 873.766 898.150, 872.952 897.822, 867.176 901.472 C 843.548 916.403, 778.576 920.668, 736.525 910.048 C 727.540 907.779, 716.155 903.253, 706.844 898.248 C 706.483 898.054, 706.525 899.392, 706.937 901.221" stroke="none" fill="#1a1a1a" fill-rule="evenodd"/>
</svg>