<svg xmlns="http://www.w3.org/2000/svg" width="1024" height="1024" viewBox="0 0 1024 1024" version="1.1">
	<path d="M 450 43.978 C 424.256 49.472, 424.700 67.957, 451.304 98.250 C 457.391 105.181, 457.858 106, 455.726 106 C 447.603 106, 410.132 118.315, 393.500 126.451 C 345.248 150.054, 309.317 186.479, 285.934 235.500 C 271.111 266.573, 264.320 293.298, 263.284 324.640 C 262.405 351.191, 265.901 373.909, 274.946 400.422 C 276.620 405.329, 277.879 409.411, 277.745 409.494 C 277.610 409.577, 275.424 410.832, 272.887 412.284 C 259.415 419.993, 255.947 435.036, 265.210 445.586 C 268.417 449.239, 274.686 453, 277.567 453 C 278.753 453, 279.005 453.490, 278.469 454.750 C 274.391 464.338, 275.388 469.774, 282.493 476.685 C 289.385 483.389, 295.611 485.507, 302.883 483.620 L 307.776 482.351 309.553 485.359 C 314.801 494.244, 331.848 509.215, 346.542 517.845 C 355.687 523.216, 383.226 535.925, 393.653 539.587 L 401.807 542.450 386.653 545.702 C 378.319 547.491, 361.600 551.728, 349.500 555.118 C 311.792 565.682, 308.866 566.236, 278.930 568.468 C 267.616 569.311, 256.062 570.683, 253.255 571.517 C 241.298 575.068, 239.575 585.672, 248.584 600.267 C 252.124 606.002, 252.156 606.151, 250.591 609.449 C 248.133 614.630, 248.642 619.016, 252.627 626.982 C 259.743 641.206, 274.056 652.949, 286.326 654.631 C 290.290 655.175, 290.978 655.625, 291.505 658.021 C 294.548 671.875, 311.812 679.500, 340.138 679.500 L 354.777 679.500 351.874 685.250 C 348.643 691.650, 349.020 691.511, 336 691.082 C 319.704 690.544, 300.339 685.732, 282.868 677.880 C 267.729 671.075, 264 672.932, 264 687.274 C 264 702.860, 269.958 717.593, 281.954 731.671 C 300.908 753.915, 322.638 763.615, 344.103 759.415 C 346.525 758.941, 346.996 759.511, 350.892 767.631 C 356.190 778.673, 362.463 787.482, 369.214 793.362 L 374.500 797.966 371.230 800.571 C 367.439 803.591, 365 807.833, 365 811.405 C 365 813.464, 364.392 814.023, 361.583 814.550 C 356.163 815.567, 331.273 812.050, 318.355 808.442 L 313.209 807.005 314.081 803.253 C 317.794 787.263, 309.945 774.388, 295.299 772.445 C 282.781 770.785, 276.752 776.768, 254.934 812.500 C 244.653 829.337, 231.436 842.476, 208.121 859.038 C 180.279 878.815, 177.022 882.572, 178.441 893.267 C 179.947 904.616, 188.494 912, 200.126 912 C 203.680 912, 204.002 912.227, 204.022 914.750 C 204.034 916.263, 204.870 919.319, 205.880 921.541 C 212.890 936.974, 235.020 936.778, 253.689 921.120 C 257.711 917.746, 261.738 915.376, 265.189 914.353 C 286.695 907.972, 302.325 887.992, 307.767 859.925 C 309.149 852.798, 309.804 851.104, 311 851.568 C 319.170 854.737, 336.686 856.963, 353.500 856.970 C 367.989 856.975, 381.033 854.292, 391.500 849.154 C 395.900 846.994, 402.425 844.201, 406 842.947 C 413.624 840.272, 423.815 835.344, 433.199 829.794 L 439.898 825.833 447.556 827.416 C 456.296 829.224, 469.724 829.482, 475.245 827.949 C 478.699 826.989, 479.712 827.267, 488.260 831.510 C 494.266 834.491, 500.025 836.532, 504.618 837.306 L 511.707 838.500 530.438 858 C 553.909 882.434, 564.724 895.275, 569.596 904.492 L 573.408 911.705 569.259 918.603 C 559.321 935.122, 560.624 943.975, 574 950.832 C 580.172 953.996, 580.939 954.145, 589.207 953.776 C 603.152 953.155, 613.173 947.650, 638.035 926.957 C 644.341 921.708, 656.700 911.813, 665.500 904.969 C 706.729 872.901, 732.571 845.846, 740.018 826.953 C 749.694 802.405, 734.134 784.229, 710 791.888 C 705.740 793.240, 703.374 793.582, 703.134 792.879 C 702.205 790.152, 696.550 785.006, 693.305 783.936 C 687.506 782.022, 678.400 783.267, 670.987 786.987 C 649.309 797.867, 618.183 831.461, 603.855 859.443 L 599.619 867.715 581.016 849.108 C 570.784 838.873, 557.597 826.450, 551.710 821.500 C 545.823 816.550, 541.005 811.993, 541.003 811.374 C 541.002 810.755, 544.938 807.976, 549.750 805.198 C 591.513 781.094, 625.828 737.058, 635.036 695.750 C 635.741 692.588, 636.718 690, 637.207 690 C 637.695 690, 643.518 691.576, 650.147 693.502 C 677.555 701.467, 694.233 699.975, 705.304 688.568 C 709.200 684.553, 709.228 684.543, 716.014 684.857 C 728.430 685.430, 742.432 680.418, 751.124 672.287 C 755.444 668.247, 762 657.547, 762 654.538 C 762 653.909, 764.362 652.562, 767.250 651.544 C 783.355 645.864, 797.061 636.453, 808.725 623.066 C 829.236 599.524, 833.380 580.072, 820.692 566.891 C 818.213 564.316, 818.201 564.222, 819.744 559.536 C 823.919 546.855, 812.907 526.513, 802.891 528.402 C 800.842 528.788, 799.987 528.344, 798.910 526.333 C 796.538 521.901, 788.391 515.370, 783.540 514.011 C 773.719 511.261, 763.835 513.426, 754.831 520.299 C 752.391 522.162, 747.269 524.637, 743.448 525.801 C 727.726 530.589, 717.931 541.589, 716.334 556.251 C 715.528 563.651, 714.055 565.456, 706.798 567.938 C 683.660 575.851, 642.930 566.523, 627.185 549.705 L 624.870 547.233 640.606 542.060 C 712.777 518.336, 760.180 468.989, 762.716 414.942 C 763.895 389.826, 757.325 374.154, 735.072 348.994 L 731.086 344.487 732.147 325.494 C 733.946 293.279, 731.958 268.217, 726.016 248.216 C 713.367 205.636, 685.680 168.254, 648.214 143.169 C 618.635 123.364, 598.649 115.201, 562.640 108.218 L 553.781 106.500 551.438 97.202 C 541.310 56.994, 514.653 36.611, 500.201 58.024 C 498.911 59.936, 497.603 62.756, 497.295 64.290 L 496.734 67.080 489.609 60.172 C 475.959 46.936, 462.302 41.352, 450 43.978 M 449.500 54.503 C 437.760 58.657, 438.660 67.590, 452.731 86.548 C 461.544 98.422, 466.986 102.948, 490.247 117.752 C 491.758 118.713, 492.996 119.900, 492.997 120.389 C 493.002 121.812, 482.058 120.402, 475.282 118.107 C 467.920 115.613, 464.305 115.509, 453.146 117.473 C 394.327 127.824, 338.117 166.758, 306.568 219 C 271.121 277.697, 263.469 344.233, 285.592 401.391 C 290.295 413.541, 290.414 412.823, 283 417.026 C 265.097 427.174, 269.307 443, 289.909 443 C 293.744 443, 297.136 443.411, 297.446 443.913 C 297.757 444.416, 295.827 447.228, 293.158 450.163 C 285.410 458.683, 283.934 464.104, 287.966 469.230 C 291.783 474.082, 297.343 474.871, 310.500 472.425 C 313.284 471.908, 313.742 472.275, 316.857 477.519 C 324.223 489.920, 341.282 503.534, 366 516.738 C 391.754 530.496, 430.746 540.957, 474.863 545.945 C 498.821 548.654, 500.416 549.690, 484.314 552.085 C 476.084 553.309, 474.214 554.298, 477.908 555.471 C 480.741 556.370, 488 564.647, 488 566.978 C 488 569.638, 486.868 569.529, 482.304 566.431 C 476.019 562.167, 464.654 557.182, 456.345 555.046 C 428.769 547.959, 407.334 549.931, 354.774 564.393 C 314.262 575.540, 306.674 576.897, 279.047 577.937 C 257.573 578.746, 256.516 578.880, 254.797 581.002 C 251.021 585.665, 253.934 593.858, 262.072 601.471 C 271.604 610.387, 286.452 614.770, 310.259 615.698 C 326.616 616.335, 328.060 617.395, 317.119 620.736 C 304.913 624.464, 280.993 622.212, 266.414 615.963 C 261.252 613.750, 260.046 614.282, 260.015 618.782 C 259.949 628.635, 279.404 644.174, 295.500 647.125 C 302.467 648.403, 316.173 647.620, 322.003 645.611 C 325.246 644.494, 326 644.479, 326 645.535 C 326 648.128, 315.246 652.889, 303.500 655.498 L 300.500 656.164 303.599 658.933 C 306.897 661.879, 321.274 667.532, 329.386 669.072 C 343.747 671.798, 367.697 667.334, 388.298 658.091 C 397.767 653.842, 431.165 635.577, 441.556 628.964 C 451.388 622.708, 454.619 621.427, 457.928 622.477 C 466.104 625.072, 449.195 637.465, 412.500 655.774 C 393.624 665.192, 385.449 668.994, 373.241 674.033 C 368.396 676.033, 356.308 698.238, 353.519 710.260 C 351.285 719.893, 351.234 742.951, 353.429 750.448 C 359.379 770.764, 377.510 790.983, 399.500 801.821 C 418.973 811.420, 460.302 822.290, 469.970 820.356 L 473.029 819.744 469.466 813.372 C 467.506 809.867, 466.422 807, 467.057 807 C 467.692 807, 473.002 810.421, 478.856 814.602 C 491.171 823.397, 497.254 826.697, 502.775 827.580 L 506.716 828.210 507.236 823.595 C 508.212 814.936, 515.670 807.783, 525.070 806.490 L 530 805.812 530 801.511 C 530 789.600, 523.607 778.348, 507.711 762.283 C 502.150 756.663, 497.806 751.861, 498.056 751.611 C 498.305 751.361, 500.802 751.964, 503.603 752.950 C 520.186 758.790, 535.572 775.995, 540.038 793.690 L 541.348 798.881 545.924 796.262 C 582.471 775.351, 616.110 730.639, 626.470 689.204 C 632.627 664.576, 632.224 633.919, 625.446 611.355 C 621.593 598.528, 622.503 594.084, 627.395 601.833 C 629.703 605.489, 635.400 611.017, 636.827 610.985 C 643.156 610.841, 639.683 590.846, 630.142 572.500 C 627.965 568.313, 623.842 562.788, 619.881 558.750 L 613.261 552 604.380 551.920 C 595.153 551.836, 586.891 550.229, 586.801 548.500 C 586.773 547.950, 590.518 546.478, 595.125 545.229 C 635.901 534.174, 646.640 530.301, 671 517.871 C 711.738 497.084, 739.502 467.091, 749.198 433.395 C 751.089 426.826, 751.473 423.065, 751.485 411 C 751.507 390.060, 749.194 384.032, 733.456 364.003 C 721.787 349.153, 722.460 351.951, 722.752 319.500 C 723.011 290.682, 722.246 279.428, 718.918 263.160 C 706.330 201.605, 655.997 147.743, 590.554 125.794 C 577.324 121.357, 555.107 117.031, 552.213 118.329 C 548.859 119.833, 547.600 117.872, 545.578 108 C 540.196 81.713, 526.524 59, 516.082 59 C 512.619 59, 508.166 61.778, 506.517 64.967 C 503.427 70.942, 504.918 76.965, 513.950 95 C 523.668 114.405, 523.053 116.226, 511.797 101.366 C 497.886 82.999, 479.849 61.992, 475.307 58.867 C 467.115 53.231, 457.630 51.627, 449.500 54.503 M 648.051 202.365 C 645.343 203.934, 644.073 206.562, 644.757 209.180 C 645.133 210.618, 646.431 210.879, 652.853 210.808 C 666.865 210.654, 678.340 215.783, 681.638 223.675 C 683.285 227.617, 685.708 228.011, 686.594 224.481 C 687.926 219.174, 679.835 208.030, 671.525 203.726 C 666.348 201.045, 651.788 200.201, 648.051 202.365 M 469.214 212.891 C 449.119 219.832, 433.720 242.587, 442.338 252.606 L 444.675 255.324 446.411 248.412 C 448.580 239.778, 450.704 236.315, 457.609 230.161 C 466.969 221.819, 472.510 219.612, 482.017 220.441 C 490.688 221.197, 491.537 220.639, 488.439 216.217 C 484.746 210.944, 478.153 209.803, 469.214 212.891 M 665.854 283.263 C 663.298 284.493, 658.285 288.208, 654.712 291.518 L 648.217 297.537 646.191 307.518 C 644.067 317.987, 640.461 359.876, 641.232 365.127 C 641.734 368.546, 642.654 368.471, 630.500 366.007 C 609.456 361.741, 596.598 367.985, 581.867 389.627 C 576.416 397.635, 573.193 401.167, 566.491 406.479 C 556.515 414.384, 553.513 417.736, 550.355 424.500 C 548.017 429.505, 547.200 437.387, 548.909 438.444 C 549.859 439.031, 555 433.528, 555 431.923 C 555 431.415, 555.395 431, 555.877 431 C 556.360 431, 557.741 434.938, 558.948 439.750 C 565.247 464.879, 580.550 482.104, 603.631 490.045 C 615.184 494.020, 625.148 491.619, 634.880 482.516 C 642.644 475.254, 645.037 467.746, 646.582 445.812 L 647.265 436.125 652.882 433.845 C 669.236 427.209, 686.826 418.930, 689.250 416.728 C 692.593 413.691, 692.764 410.436, 689.879 404.710 C 687.535 400.057, 672.290 384.544, 669.052 383.516 C 666.023 382.555, 666.537 380.979, 671.413 376.271 C 683.273 364.819, 684.627 328.229, 673.621 316.560 C 669.467 312.155, 665.407 311.878, 658.538 315.531 C 652.406 318.792, 651 317.812, 651 310.279 C 651 300.580, 655.916 294.640, 666.607 291.419 C 695.493 282.717, 714.695 347.938, 692.023 377.750 C 687.132 384.182, 689.022 384.865, 695.412 378.974 C 711.362 364.272, 714.961 329.091, 703.055 304.263 C 693.895 285.163, 679.171 276.851, 665.854 283.263 M 480.487 296.739 C 464.234 302.553, 450.821 318.671, 447.070 336.894 C 442.461 359.280, 449.019 387.946, 461.679 400.750 C 469.503 408.664, 472.553 408.034, 466.626 399.729 C 456.231 385.161, 450.780 359.991, 454.371 343.135 C 457.687 327.569, 468.181 312.465, 479.500 306.968 C 486.855 303.396, 500.580 303.412, 506.911 307 C 512.800 310.338, 517.025 315.769, 517.711 320.882 L 518.263 325 514.092 325 C 499.011 325, 488.034 342.687, 488.027 367 C 488.020 388.823, 496.747 402.246, 513.364 405.970 C 535.372 410.902, 546.470 386.140, 538.395 350.120 C 535.597 337.639, 534.387 334.565, 531.102 331.593 C 529.485 330.129, 529 328.503, 529 324.551 C 529 306.131, 500.271 289.661, 480.487 296.739 M 520.314 340.950 C 515.551 343.854, 514.640 346.202, 516.525 350.714 C 518.849 356.275, 521.817 359, 525.552 359 C 532.396 359, 533.749 349.036, 527.912 341.616 C 525.454 338.490, 524.488 338.405, 520.314 340.950 M 613.500 373.874 C 604.881 376.148, 596.852 383.149, 586.917 397.055 C 580.475 406.071, 572.029 414.965, 565.568 419.538 L 562.688 421.575 565.945 425.285 C 576.171 436.931, 600.561 440.166, 625 433.117 C 636.369 429.838, 672.965 415.564, 677.322 412.709 C 681.773 409.792, 680.816 407.268, 672.122 399 C 654.107 381.869, 627.089 370.289, 613.500 373.874 M 569.434 443.668 C 573.331 459.623, 588.118 474.867, 604.649 479.973 C 612.830 482.500, 616.083 482.519, 620.790 480.068 C 630.996 474.752, 635.976 465.258, 637.480 448.250 C 638.200 440.105, 638.301 440.197, 631 442.370 C 627.447 443.428, 626.444 444.214, 626.235 446.105 C 625.812 449.923, 622.895 467.327, 622.356 469.250 C 621.520 472.233, 619.690 471.247, 612.473 463.927 C 603.955 455.287, 594.785 449.670, 585.500 447.406 C 581.650 446.468, 576.304 444.605, 573.621 443.268 L 568.742 440.836 569.434 443.668 M 769.833 521.977 C 767.258 522.755, 760 527.955, 760 529.023 C 760 529.310, 761.579 530.395, 763.508 531.434 C 765.437 532.473, 769.245 535.680, 771.969 538.561 C 776.105 542.934, 777.118 543.562, 778.110 542.367 C 778.763 541.580, 782.156 539.088, 785.649 536.829 C 793.115 532.001, 793.062 532.197, 788.250 527.153 C 783.200 521.859, 776.480 519.970, 769.833 521.977 M 739.926 536.832 C 729.040 543.736, 725.551 551.279, 725.345 568.355 C 725.182 581.844, 724.435 584.386, 721.222 582.379 C 719.909 581.558, 716.787 576.915, 716.458 575.291 C 716.434 575.176, 714.184 576.169, 711.458 577.499 C 698.298 583.914, 673.382 583.394, 650.454 576.227 L 644.407 574.336 647.780 587.418 C 653.242 608.600, 651.442 616.990, 640.750 620.193 C 638.427 620.889, 637.103 621.826, 637.389 622.572 C 639.191 627.267, 640.189 642.349, 639.835 659.539 L 639.434 679.036 651.967 683.143 C 672.249 689.790, 688.474 689.521, 696.941 682.396 L 700.015 679.810 695.507 674.797 C 688.203 666.673, 689.758 664.879, 699.720 669.932 C 715.818 678.097, 735.409 675.125, 746.452 662.842 C 752.511 656.103, 752.340 655.542, 744.157 655.289 C 731.498 654.896, 728.621 652.047, 738.767 649.950 C 761.256 645.304, 781.715 634.751, 797.621 619.592 C 805.051 612.511, 805.301 612.138, 802.007 613.042 C 793.056 615.497, 782.325 613.415, 777.862 608.356 C 772.227 601.969, 768.911 590.995, 770.975 585.565 C 771.948 583.006, 771.938 583, 766.500 583 C 761.062 583, 761.052 583.006, 762.025 585.565 C 764.546 592.196, 762.067 602.264, 757.483 604.006 C 750.668 606.598, 742.923 603.652, 748.679 600.657 C 753.177 598.318, 755.652 594.926, 757.446 588.643 C 758.366 585.421, 758.979 582.687, 758.809 582.566 C 758.639 582.446, 756.867 581.366, 754.871 580.167 C 747.011 575.444, 739.193 564.215, 737.350 554.999 C 736.711 551.806, 737.158 552.115, 745.587 560.693 C 757.650 572.970, 763.540 575.840, 769.909 572.547 C 776.010 569.392, 775.866 562.776, 769.417 549.892 C 765.122 541.311, 754.730 534, 746.830 534 C 745.489 534, 742.382 535.274, 739.926 536.832 M 791.727 541.889 C 779.189 548.933, 779.147 549.022, 782.016 562.500 C 783.001 567.124, 782.737 571.915, 781.291 575.683 C 779.696 579.840, 801.944 569.748, 807.883 563.621 C 813.439 557.888, 813.423 547.829, 807.847 541.479 C 803.822 536.894, 800.467 536.980, 791.727 541.889 M 800 576.367 C 794.775 578.746, 788.797 581.252, 786.715 581.936 C 772.545 586.588, 782.171 607.987, 797.342 605.561 C 815.537 602.652, 824.243 587.654, 814.407 576.163 C 810.112 571.145, 811.511 571.125, 800 576.367 M 605.731 654 C 605.016 655.842, 604.079 684.255, 604.756 683.578 C 606.032 682.302, 607.958 670.797, 607.866 665 C 607.747 657.484, 606.625 651.700, 605.731 654 M 273 686.935 C 273 711.025, 295.814 740.785, 320.606 749.035 C 331.043 752.508, 344.984 752.005, 343.526 748.208 C 341.685 743.414, 341.848 719.404, 343.785 710.250 L 345.741 701 337.063 701 C 321.150 701, 298.573 695.742, 283.116 688.436 C 271.982 683.173, 273 683.324, 273 686.935 M 287.443 784.872 C 282.305 788.005, 275.765 796.379, 266.526 811.655 C 251.746 836.092, 242.026 846.708, 222.099 860.175 C 197.899 876.530, 186.321 887.114, 187.478 891.825 C 193 914.295, 239.220 896.750, 257.486 865.250 C 265.427 851.556, 266.083 854.733, 258.571 870.500 C 249.491 889.559, 233.223 904.706, 215.750 910.370 C 212.860 911.307, 213.507 916.661, 216.923 920.077 C 228.923 932.076, 263.744 908.339, 280.115 877 C 282.394 872.638, 282.476 872.585, 282.803 875.285 C 283.207 878.623, 279.919 888.852, 276.546 894.750 C 273.151 900.687, 275.185 900.046, 282.072 893.007 C 291.793 883.073, 298.961 865.464, 298.968 851.500 C 298.970 846.540, 298.587 845.516, 294.254 838.920 C 291.971 835.445, 291.232 831, 292.937 831 C 293.452 831, 298.290 833.218, 303.687 835.929 C 320.488 844.369, 337.086 847.532, 360.359 846.729 C 368.137 846.460, 376.204 845.711, 378.286 845.063 L 382.072 843.886 375.725 837.693 C 372.234 834.287, 368.816 830.105, 368.130 828.400 L 366.881 825.299 355.139 824.709 C 341.569 824.027, 326.439 821.174, 313.274 816.817 C 302.360 813.205, 301.289 812.275, 303.382 808.228 C 311.088 793.326, 300.066 777.174, 287.443 784.872 M 675.380 794.860 C 649.021 809.395, 609.603 857.746, 600.058 887.250 C 598.321 892.621, 597 891.876, 597 885.526 C 597 880.286, 596.749 879.761, 591.135 873.276 C 580.641 861.152, 546.114 828.276, 534.278 819.136 C 526.274 812.956, 519.377 813.459, 516.463 820.435 C 513.841 826.709, 514.315 827.622, 526.831 840.411 C 556.197 870.416, 574.013 891.361, 579.545 902.384 C 583.966 911.194, 583.937 913.696, 579.348 919.155 C 570.007 930.270, 570.511 939.280, 580.718 943.629 C 594.867 949.658, 618.443 934.879, 678.995 882.025 C 705.301 859.064, 715.689 848.333, 725.350 834.138 C 731.172 825.585, 729.662 825.988, 719.750 835.631 C 710.326 844.800, 698.376 854.756, 694.164 856.947 C 690.456 858.876, 690.433 857.341, 694.124 854.317 C 709.976 841.331, 731.307 815.592, 733.518 806.783 C 734.486 802.926, 731.056 801, 723.220 801 C 712.405 801, 708.194 802.579, 705.136 807.779 C 692.136 829.893, 672.754 850.464, 657.653 858.175 C 651.695 861.218, 652.053 859.481, 658.568 853.749 C 685.269 830.252, 700.409 802.570, 690.923 794.589 C 686.822 791.138, 681.976 791.222, 675.380 794.860 M 377.522 807.250 C 372.408 811.693, 372.916 821.205, 378.622 827.872 C 388.570 839.494, 401.974 838.999, 421.912 826.272 L 427.324 822.818 415.912 819.049 C 409.635 816.977, 399.815 812.967, 394.089 810.140 C 382.307 804.323, 381.127 804.118, 377.522 807.250 M 481.511 923.966 C 481.121 925.195, 481.194 926.594, 481.674 927.074 C 484.442 929.842, 532 934.664, 532 932.176 C 532 928.950, 511.644 924.174, 490.360 922.407 C 482.532 921.757, 482.193 921.816, 481.511 923.966 M 380.613 946.054 C 375.147 946.970, 372.710 948.585, 374.823 949.891 C 375.542 950.335, 382.288 950.999, 389.815 951.367 C 397.342 951.735, 416.100 952.697, 431.500 953.506 C 459.969 955, 516.921 955.521, 525.360 954.364 C 528.859 953.885, 530 953.300, 530 951.988 C 530 950.541, 528.438 950.055, 520.750 949.109 C 495.698 946.027, 394.002 943.810, 380.613 946.054" stroke="none" fill="#1a1a1a" fill-rule="evenodd"/>
</svg>