<svg xmlns="http://www.w3.org/2000/svg" width="1024" height="1024" viewBox="0 0 1024 1024" version="1.1">
	<path d="M 932 33.616 C 930.625 33.878, 916.225 35.868, 900 38.037 C 797.984 51.675, 745.390 58.881, 674 69.004 C 662.725 70.602, 643.150 73.282, 630.500 74.959 C 617.850 76.636, 605.829 78.469, 603.786 79.033 C 596.448 81.059, 596.890 74.102, 597.647 175.697 C 598.161 244.814, 598.042 267.245, 597.153 268.315 C 596.378 269.249, 592.684 269.966, 586.241 270.432 C 550.123 273.047, 516.699 283.653, 509.380 294.823 C 507.192 298.163, 507.423 307.968, 509.800 312.601 C 513.236 319.300, 521.298 328.012, 523.713 327.636 C 526.550 327.194, 529.277 330.201, 531.299 336 C 532.162 338.475, 536.226 349.320, 540.331 360.101 C 559.488 410.417, 568.687 453.692, 571.555 507 C 572.597 526.362, 573.341 526.731, 585.964 514.143 L 594.846 505.287 606.558 517.709 C 620.451 532.444, 621.744 533.428, 625.387 532.043 C 626.849 531.487, 633.223 526.026, 639.552 519.907 L 651.059 508.781 659.280 516.672 C 672.667 529.522, 679.443 533.409, 684.157 530.945 C 685.446 530.271, 691.505 524.803, 697.621 518.792 L 708.743 507.865 714.121 512.813 C 735.186 532.195, 741.364 533.458, 749.916 520.130 C 754.900 512.363, 756.682 503.838, 757.361 484.500 C 758.451 453.443, 763.165 420.473, 770.048 395.758 C 771.265 391.387, 771.958 391.139, 784 390.765 L 792.500 390.500 793 661 C 793.532 948.676, 793.326 937.501, 798.042 934.978 C 799.970 933.946, 800 932.009, 799.991 807.715 C 799.973 558.967, 800.873 392.701, 802.244 391.802 C 802.935 391.349, 805.300 391.096, 807.500 391.239 L 811.500 391.500 811.520 660 C 811.531 807.675, 811.910 929.988, 812.362 931.807 C 813.375 935.884, 817.005 936.009, 817.963 932 C 818.292 930.625, 818.267 905.650, 817.908 876.500 C 817.549 847.350, 817.407 807.750, 817.591 788.500 C 817.776 769.250, 818.243 672.120, 818.630 572.655 C 819.128 444.231, 819.646 391.702, 820.416 391.437 C 821.012 391.232, 850.750 390.643, 886.500 390.128 C 938.902 389.373, 952.275 388.911, 955.500 387.745 L 959.500 386.299 959.753 214.222 C 959.911 106.283, 959.649 41.206, 959.047 39.625 C 957.411 35.322, 954.121 34.002, 943.900 33.552 C 938.730 33.324, 933.375 33.353, 932 33.616 M 943.250 41.141 C 942.260 42.138, 942 77.709, 942 212.252 L 942 382.105 947.250 381.802 L 952.500 381.500 952.631 211.735 C 952.703 118.365, 952.474 41.793, 952.123 41.576 C 950.052 40.296, 944.365 40.017, 943.250 41.141 M 913 43.550 C 903.925 44.849, 869.500 49.553, 836.500 54.004 C 803.500 58.454, 757.825 64.745, 735 67.983 C 712.175 71.221, 683.375 75.271, 671 76.983 C 658.625 78.695, 638.968 81.424, 627.318 83.048 C 615.667 84.672, 605.880 86, 605.568 86 C 604.279 86, 604.961 267.997, 606.250 268.107 C 606.938 268.166, 610.875 268.105, 615 267.971 C 619.125 267.837, 631.275 267.451, 642 267.114 L 661.500 266.500 661.500 206.291 C 661.500 153.862, 661.696 145.886, 663.014 144.563 C 664.140 143.433, 674.648 141.888, 704.014 138.535 C 725.731 136.055, 751.600 133.091, 761.500 131.948 C 771.400 130.805, 785.125 129.250, 792 128.494 C 798.875 127.737, 814.400 125.949, 826.500 124.519 C 838.600 123.090, 851.425 122.051, 855 122.210 L 861.500 122.500 862.103 141.500 C 863.272 178.329, 863.555 316.845, 862.463 317.936 C 861.864 318.536, 851.120 319.394, 836.963 319.973 C 823.509 320.523, 810.146 321.235, 807.270 321.556 L 802.039 322.139 801.770 343.319 L 801.500 364.500 790.515 365.323 C 784.473 365.775, 779.004 366.582, 778.362 367.114 C 776.882 368.343, 773.523 381.857, 774.465 382.797 C 775.442 383.773, 928.797 383.156, 932.500 382.162 L 935.500 381.356 935.753 211.178 L 936.006 41 932.753 41.094 C 930.964 41.146, 922.075 42.251, 913 43.550 M 291 56.012 C 249.211 65.171, 215.544 97.603, 204.332 139.500 C 200.360 154.341, 200.360 181.659, 204.332 196.500 C 211.361 222.766, 229.324 248.439, 250.561 262.569 C 286.687 286.606, 327.670 289.233, 366.076 269.973 C 415.476 245.199, 440.539 188.602, 425.361 136.095 C 413.215 94.077, 379.170 63.682, 335.140 55.545 C 323.436 53.382, 301.962 53.609, 291 56.012 M 303.500 62 C 303.023 62.773, 303.386 63.637, 304.435 64.224 C 313.925 69.534, 341.679 97.397, 350.826 110.796 C 361.009 125.711, 372.404 152.166, 374.623 166.042 C 375.429 171.084, 376.170 170.994, 383.750 164.941 C 390.744 159.356, 390.781 159.224, 388.006 149.522 C 386.910 145.688, 384.626 133.314, 382.930 122.025 C 379.103 96.535, 376.410 83.274, 374.455 80.291 C 371.363 75.573, 358.528 69.225, 342.390 64.432 C 331.867 61.308, 304.967 59.626, 303.500 62 M 285 64.697 C 259.953 73.707, 242.151 86.624, 228.943 105.372 C 223.161 113.578, 223.299 113.812, 234 113.933 C 261.986 114.249, 296.573 129.123, 318.893 150.440 C 330.507 161.532, 336.285 171.460, 340.600 187.739 C 341.014 189.300, 342.782 188.647, 356.238 181.957 C 370.834 174.701, 370.638 174.964, 368.531 165.493 C 362.183 136.961, 348.139 113.165, 323.352 88.939 C 301.071 67.164, 292.756 61.908, 285 64.697 M 383 85.509 C 383 85.881, 383.883 90.532, 384.962 95.843 C 386.042 101.154, 387.632 111.125, 388.496 118 C 390.378 132.969, 393.682 150.082, 394.932 151.332 C 396.143 152.543, 404.314 141.361, 408.760 132.408 C 412.976 123.920, 412.795 121.498, 407.246 112.091 C 401.358 102.110, 383 81.983, 383 85.509 M 225 119.652 C 218.748 121.712, 216.509 125.652, 212.348 141.919 C 208.352 157.543, 208.232 185.831, 212.126 194.378 C 214.773 200.187, 237.978 206, 258.521 206 C 278.966 206, 331.618 195.663, 334.442 191.095 C 334.726 190.635, 334.280 187.655, 333.451 184.472 C 327.107 160.115, 300.415 137.218, 264.807 125.587 C 249.489 120.584, 230.683 117.780, 225 119.652 M 823.500 131.592 C 808.100 133.443, 781.550 136.535, 764.500 138.463 C 747.450 140.391, 719.550 143.549, 702.500 145.480 C 685.450 147.411, 670.559 149.209, 669.408 149.475 L 667.316 149.959 667.778 207.729 C 668.098 247.639, 668.581 265.923, 669.342 266.869 C 670.418 268.208, 680.750 267.891, 683.085 266.447 C 683.619 266.118, 684 244.886, 684 215.500 C 684 178.668, 684.309 164.927, 685.148 164.409 C 685.779 164.019, 710.866 161.089, 740.898 157.898 C 770.929 154.707, 805.058 151.080, 816.740 149.838 C 830.693 148.354, 838.318 147.918, 838.965 148.565 C 839.582 149.182, 840.208 176.775, 840.638 222.244 C 841.264 288.412, 841.182 294.993, 839.723 295.553 C 838.841 295.891, 830.598 296.468, 821.405 296.834 L 804.690 297.500 804.439 305.749 C 804.301 310.286, 804.531 314.210, 804.951 314.470 C 805.839 315.019, 851.327 313.112, 854.914 312.375 L 857.327 311.880 856.666 235.690 C 856.302 193.785, 856.004 152.412, 856.002 143.750 C 856 128.051, 855.993 128, 853.750 128.113 C 852.513 128.175, 838.900 129.741, 823.500 131.592 M 411.644 139.250 C 409.703 142.688, 405.840 148.638, 403.058 152.473 C 400.276 156.307, 398 160.434, 398 161.643 C 398 165.820, 408.571 192.692, 413.636 201.390 C 415.438 204.485, 416.709 202.495, 419.157 192.741 C 422.547 179.237, 422.527 153.291, 419.117 141.250 C 417.832 136.713, 416.419 133, 415.977 133 C 415.534 133, 413.584 135.813, 411.644 139.250 M 800.500 158.114 C 785.650 159.710, 755.219 163.037, 732.875 165.508 C 710.531 167.978, 691.743 170, 691.124 170 C 689.632 170, 689.744 264.895, 691.238 266.750 C 691.925 267.602, 695.487 268, 702.435 268 C 740.439 268, 779.283 275.622, 799 286.948 L 805.500 290.682 820 290.091 L 834.500 289.500 834.487 271.250 C 834.480 261.212, 834.368 230.950, 834.237 204 L 834 155 830.750 155.106 C 828.962 155.165, 815.350 156.518, 800.500 158.114 M 384.969 171.170 C 376.846 177.471, 376.676 177.798, 377.950 184.685 C 381.104 201.746, 377.040 232.579, 368.988 252.689 C 365.471 261.472, 365.530 261.109, 367.750 260.299 C 379.388 256.053, 399.219 236.018, 408.124 219.509 L 412.244 211.869 406.251 199.185 C 402.954 192.208, 398.576 182.110, 396.523 176.744 C 394.469 171.378, 392.484 166.799, 392.113 166.570 C 391.741 166.340, 388.526 168.410, 384.969 171.170 M 355.750 188.684 L 341 196.137 341 201.611 C 341 217.591, 334.026 234.922, 323.146 245.979 C 313.236 256.050, 297.550 265.401, 285.500 268.420 L 282.500 269.172 285.219 270.602 C 297.950 277.296, 331.412 276.221, 350.713 268.498 C 358.088 265.547, 365.368 250.126, 370.067 227.500 C 372.557 215.513, 373.550 184.096, 371.500 182.170 C 370.863 181.572, 365.142 183.938, 355.750 188.684 M 329.500 199.616 C 322.752 202.091, 303.184 206.735, 289.500 209.108 C 266.230 213.145, 232.330 211.439, 217.750 205.499 C 211.570 202.981, 225.974 228.485, 237.981 241.321 C 248.097 252.134, 262.682 262.229, 270.885 264.093 C 276.244 265.311, 285.842 262.749, 297.890 256.885 C 320.547 245.857, 333.438 227.265, 335.182 203.101 C 335.550 198.005, 334.930 197.624, 329.500 199.616 M 620 275.010 C 550.737 278.869, 514 289.350, 514 305.251 C 514 310.765, 525.291 320.628, 535.365 323.915 C 564.496 333.419, 653.874 337.083, 707 330.952 C 747.599 326.267, 781.324 319.731, 790.206 314.828 C 794.810 312.286, 799 306.929, 799 303.584 C 799 295.213, 784.010 285.551, 764.938 281.629 C 736.856 275.854, 664.310 272.541, 620 275.010 M 625.500 286.602 C 573.864 290.586, 573.514 290.627, 553.286 295.079 C 538.025 298.438, 532.349 300.480, 530.936 303.120 C 528.400 307.859, 533.536 310.431, 551.500 313.419 C 609.671 323.096, 696.901 321.627, 755 309.992 C 775.168 305.953, 777.423 305.084, 777.810 301.201 C 778.106 298.230, 777.882 298.022, 772.810 296.562 C 751.611 290.459, 715.111 287.075, 665 286.567 C 646.025 286.374, 628.250 286.390, 625.500 286.602 M 627 294.030 C 618.475 294.418, 610.244 294.795, 608.710 294.868 L 605.919 295 606.210 303.250 L 606.500 311.500 634.288 311.766 L 662.075 312.032 661.788 302.766 L 661.500 293.500 652 293.412 C 646.775 293.364, 635.525 293.642, 627 294.030 M 668.657 294.452 C 667.232 298.166, 667.919 310.755, 669.582 311.393 C 671.998 312.320, 678.564 312.116, 681.435 311.025 C 683.872 310.098, 684 309.678, 684 302.584 C 684 293.983, 684.126 294.123, 675.698 293.336 C 670.252 292.828, 669.217 292.992, 668.657 294.452 M 690.667 294.667 C 689.309 296.024, 689.931 310.036, 691.374 310.590 C 694.051 311.617, 744.398 305.550, 759.349 302.398 C 764.672 301.276, 760.534 300.158, 743.500 298.115 C 718.528 295.121, 691.947 293.386, 690.667 294.667 M 582.500 297.122 C 553.481 301.379, 544.856 303.265, 546.587 304.977 C 548.652 307.017, 596.386 312.086, 597.885 310.424 C 598.343 309.916, 598.504 306.462, 598.243 302.750 L 597.767 296 593.134 296.121 C 590.585 296.187, 585.800 296.638, 582.500 297.122 M 233.984 312.863 C 226.119 317.069, 224.505 325.822, 229.750 335.828 C 231.537 339.239, 233 342.271, 233 342.567 C 233 342.862, 229.287 342.806, 224.750 342.440 C 214.090 341.583, 208.779 342.986, 203.786 347.978 C 196.891 354.874, 199.760 363.421, 210.950 369.318 L 214.400 371.136 210.950 373.804 C 171.139 404.585, 148.697 453.148, 150.322 505 C 151.881 554.745, 173.419 591.295, 212.072 609.787 C 217.491 612.379, 221.941 614.730, 221.962 615.011 C 221.983 615.292, 216.713 620.007, 210.250 625.489 C 203.787 630.971, 186.541 647.279, 171.924 661.728 C 157.307 676.178, 145.079 688, 144.752 688 C 144.424 688, 140.183 685.001, 135.328 681.335 C 111.316 663.208, 95.235 663.629, 93.294 682.437 C 92.566 689.491, 94.825 696.819, 102.176 711.252 L 108.161 723.004 106.080 726.370 C 102.038 732.911, 104.252 739.047, 112.101 743.051 C 114.252 744.149, 116.572 746.024, 117.256 747.217 C 137.042 781.741, 171.338 816.554, 199.632 830.835 C 202.679 832.373, 204.620 834.436, 207.022 838.692 C 211.200 846.097, 220.922 855.810, 228.348 860.001 C 233.235 862.759, 234.060 863.617, 233.533 865.391 C 230.204 876.602, 227.982 887.532, 226.999 897.532 C 226.352 904.114, 225.682 909.643, 225.509 909.819 C 225.337 909.994, 222.594 909.657, 219.414 909.069 C 201.035 905.671, 189.056 909.090, 183.894 919.207 C 180.395 926.067, 184.662 929.929, 201.500 935.142 C 217.287 940.029, 221.973 943.480, 230.506 956.500 C 240.238 971.349, 246.982 975.970, 260.097 976.774 C 274.626 977.664, 280.718 970.963, 277.039 958.137 C 275.955 954.357, 275.188 954.365, 285.500 958.053 C 298.115 962.564, 310 956.982, 310 946.546 C 310 936.033, 300.595 929.146, 270.981 917.972 C 254.024 911.574, 255.040 913.836, 257.070 887 C 258.611 866.611, 257.573 868.677, 267.505 866.225 C 277.756 863.695, 285.036 859.713, 293.154 852.197 L 299.192 846.607 312.515 846.479 L 325.838 846.351 328.484 849.155 C 329.940 850.697, 333.014 852.470, 335.315 853.094 C 337.617 853.718, 340.024 854.373, 340.663 854.550 C 341.317 854.730, 342.106 857.856, 342.465 861.685 C 343.011 867.525, 343.905 874.351, 346.712 894.104 C 347.335 898.488, 346.182 898.966, 334.929 898.986 C 328.658 898.998, 326.436 899.472, 321.980 901.750 C 304.694 910.589, 312.420 927, 333.868 927 C 342.740 927, 356.597 933.254, 371.344 943.915 C 381.676 951.383, 385.680 953.038, 395.050 953.714 C 403.830 954.347, 408.117 952.760, 410.837 947.869 C 412.436 944.993, 412.698 944.902, 417.678 945.502 C 426.988 946.624, 433.433 940.896, 433.578 931.374 C 433.649 926.702, 434.026 925.895, 437.828 922.278 C 447.695 912.892, 439.490 900, 421.178 896.118 C 418.251 895.498, 409.476 894.547, 401.678 894.006 C 382.689 892.688, 377.342 891.995, 375.702 890.640 C 374.467 889.619, 371.358 875.992, 367.931 856.577 C 366.731 849.782, 366.752 849.621, 369.104 847.815 C 379.441 839.880, 383.849 834.377, 387.391 824.983 C 388.714 821.473, 392.084 817.619, 402.511 807.692 C 419.655 791.369, 427.127 781.435, 436.497 762.500 C 455 725.113, 460.589 687.942, 453.037 652.500 C 451.865 647, 450.666 641.362, 450.372 639.972 C 449.910 637.780, 450.615 636.915, 455.669 633.472 C 473.814 621.112, 503.547 584.819, 519.491 555.569 C 536.792 523.831, 545.040 484.340, 537.676 468.500 C 536.142 465.200, 533.713 461.273, 532.279 459.773 L 529.671 457.047 530.907 447.273 C 533.663 425.484, 527.378 407.626, 516.163 405.383 C 513.599 404.870, 513.402 404.357, 511.342 392.867 C 507.840 373.330, 502.230 365, 492.575 365 C 485.248 365, 483.820 366.996, 478.148 385.168 C 472.957 401.800, 449.739 454.920, 447.306 455.731 C 445.571 456.310, 441.237 446.689, 438.458 436.088 C 432.008 411.484, 421.973 393.490, 405.376 376.764 C 373.749 344.890, 326.407 330.684, 279.731 339.060 C 273.613 340.158, 272 339.807, 272 337.379 C 272 333.930, 266.629 324.926, 261.973 320.572 C 252.591 311.796, 241.628 308.776, 233.984 312.863 M 236 322 C 230.430 327.570, 237.485 339.688, 251.852 349.225 C 254.754 351.152, 255.775 352.424, 255.336 353.568 C 254.653 355.348, 254.728 355.356, 241 352.077 C 225.477 348.370, 207 350.157, 207 355.364 C 207 361.681, 221.321 367.281, 231.588 364.980 C 241.324 362.798, 241.978 367.595, 232.464 371.404 C 200.545 384.182, 170.835 425.547, 160.929 471 C 156.327 492.117, 157.849 522.027, 164.572 542.625 C 177.532 582.325, 211.521 608.980, 256.250 614.518 C 261.757 615.200, 262 615.353, 262 618.115 C 262 620.892, 261.823 620.999, 257.250 620.983 C 254.637 620.973, 249.350 620.298, 245.500 619.483 C 232.228 616.671, 232.341 616.614, 205.500 639.880 C 193.460 650.317, 113 730.333, 113 731.870 C 113 732.394, 114.442 734.036, 116.205 735.519 C 123.454 741.619, 140.698 734.081, 163.924 714.660 C 174.550 705.775, 176.339 704.836, 177.395 707.588 C 178.156 709.570, 173.245 715.450, 164.204 723.380 C 157.322 729.416, 142.008 740, 140.156 740 C 137.971 740, 137.880 742.244, 139.975 744.473 C 144.537 749.330, 153.696 752.494, 162.580 752.282 C 178.050 751.914, 189.786 745.891, 206.640 729.667 C 213.778 722.796, 218.524 718.955, 219.614 719.167 C 221.872 719.604, 222.413 721.426, 220.795 723.134 C 220.083 723.885, 217.475 727.163, 215 730.418 C 210.923 735.779, 202.382 743.833, 194.499 749.751 L 191.500 752.002 193.861 754.001 C 198.446 757.884, 213.548 756.122, 227.373 750.091 C 241.333 744.002, 260.188 728.173, 268.869 715.257 C 280.163 698.452, 289 671.694, 289 654.298 C 289 649.556, 290.823 646.655, 292.970 647.981 C 295.367 649.463, 293.742 674.795, 290.562 685.500 C 283.121 710.547, 268.703 731.155, 248.635 745.426 C 224.804 762.374, 202.488 767.208, 188.771 758.395 C 184.383 755.576, 181.913 755.446, 173.644 757.602 C 159.249 761.354, 144.700 757.931, 133.944 748.260 C 129.137 743.937, 127.584 743.344, 125.138 744.894 C 123.483 745.942, 129.922 755.868, 141.926 770.777 C 159.220 792.255, 172.482 804.503, 191.180 816.263 L 200.343 822.027 202.486 820.013 C 205.953 816.756, 206.682 817.441, 212.388 829.312 C 218.756 842.558, 225.454 849.674, 236.754 855.201 C 243.244 858.375, 243.955 858.500, 255.500 858.500 C 266.967 858.500, 267.790 858.358, 274.027 855.305 C 282.979 850.924, 290.819 843.415, 299.319 831.080 C 309.227 816.703, 313.433 816.473, 307 830.660 C 305.350 834.299, 304 837.439, 304 837.638 C 304 838.809, 320.739 837.684, 329.343 835.935 C 357.844 830.142, 379.787 818.324, 400.590 797.566 C 418.559 779.636, 427.609 765.683, 436.955 741.500 C 453.449 698.822, 451.111 649.671, 430.680 609.557 C 425.910 600.192, 414.763 584, 413.085 584 C 412.664 584, 409.627 585.345, 406.337 586.990 C 398.336 590.988, 394.495 591.732, 393.620 589.453 C 393.253 588.496, 393.076 587.614, 393.226 587.493 C 393.377 587.372, 396.650 585.333, 400.500 582.961 C 433.100 562.883, 455.781 527.132, 453.702 499.104 C 452.622 484.553, 446.797 468.016, 437.984 454.480 C 435.512 450.684, 432.443 443.482, 429.672 434.980 C 416.258 393.819, 391.329 367.447, 351.767 352.566 C 332.249 345.224, 298.937 343.051, 279.514 347.853 C 269.948 350.218, 268.020 349.750, 267.990 345.059 C 267.971 341.991, 263.070 333.031, 258.990 328.605 C 251.603 320.591, 240.577 317.423, 236 322 M 790.750 323.080 C 787.872 324.756, 786.123 329.262, 782.471 344.411 C 780.562 352.330, 779 359.096, 779 359.447 C 779 360.333, 794.300 358.936, 795.375 357.952 C 796.717 356.722, 795.043 321.993, 793.643 322.030 C 793.014 322.047, 791.712 322.519, 790.750 323.080 M 769.697 327.748 L 762.894 329.301 744.197 348.730 C 733.914 359.415, 725.364 368.747, 725.198 369.466 C 725.033 370.185, 727.762 375.212, 731.263 380.637 C 734.765 386.062, 738.969 392.626, 740.606 395.223 L 743.583 399.947 755.754 387.723 L 767.925 375.500 773.963 351.858 C 777.283 338.855, 780 327.718, 780 327.108 C 780 325.704, 778.152 325.818, 769.697 327.748 M 538.837 337.750 C 540.413 340.913, 544.986 351.817, 549 361.983 C 555.795 379.195, 563.169 393.018, 565.500 392.913 C 566.531 392.867, 581.267 370.837, 581.798 368.548 C 582.171 366.941, 558.762 337.506, 556.385 336.594 C 554.722 335.956, 537.596 332, 536.496 332 C 536.207 332, 537.261 334.587, 538.837 337.750 M 746 333.069 C 742.678 333.889, 718.826 337.085, 705.143 338.543 L 698.787 339.221 703.746 344.361 C 706.473 347.187, 711.321 352.792, 714.519 356.816 L 720.333 364.133 730.737 353.816 C 742.125 342.526, 751.684 331.941, 750.349 332.102 C 749.882 332.159, 747.925 332.593, 746 333.069 M 569.051 340.689 C 581.636 356.173, 585.324 360.543, 586.029 360.808 C 587.566 361.385, 600.486 342.596, 599.571 341.115 C 599.296 340.669, 595.085 340.022, 590.214 339.676 C 585.343 339.330, 578.037 338.739, 573.979 338.361 L 566.601 337.676 569.051 340.689 M 684.337 340.096 C 681.240 340.993, 656.011 370.804, 656.003 373.576 C 656 374.698, 682.877 404, 683.909 404 C 685.069 403.999, 714.506 371.679, 714.788 370.097 C 715.055 368.599, 700.685 349.635, 693.687 342.250 C 690.452 338.836, 689.471 338.610, 684.337 340.096 M 599.938 353.154 C 595.472 359.839, 591.609 365.854, 591.353 366.521 C 590.873 367.772, 594.652 372.986, 610.770 393.315 C 618.949 403.632, 620.339 404.964, 621.725 403.815 C 623.849 402.056, 642.186 380.216, 644.411 376.796 L 646.170 374.092 633.481 359.296 C 617.724 340.922, 617.814 341, 612.417 341 L 608.056 341 599.938 353.154 M 627 341.862 C 627 342.619, 631.635 347.902, 646.203 363.750 C 648.352 366.087, 650.501 368, 650.978 368 C 651.456 368, 655.093 363.837, 659.060 358.750 C 663.028 353.663, 668.106 347.587, 670.345 345.250 L 674.416 341 650.708 341 C 637.669 341, 627 341.388, 627 341.862 M 488.901 375.750 C 488.324 377.262, 486.117 383.675, 483.996 390 C 479.235 404.204, 466.866 434.223, 458.748 451.278 L 452.667 464.056 456.368 475.778 C 467.548 511.180, 459.768 538.624, 429.768 569.603 L 419.015 580.706 423.970 586.369 C 432.690 596.333, 439.340 607.671, 444.142 620.761 C 447.014 628.591, 447.170 628.667, 452.629 624.911 C 473.246 610.727, 503.898 570.766, 516.994 541 C 531.371 508.321, 536.225 475.943, 527.878 468.390 C 526.838 467.449, 525.836 466.864, 525.650 467.089 C 525.465 467.315, 523.352 471.220, 520.955 475.766 C 515.762 485.617, 511.538 491, 509.001 491 C 505.584 491, 506.438 487.612, 513.154 474.516 C 521.937 457.391, 523.350 452.371, 523.433 438 C 523.522 422.691, 521.179 416.646, 514.358 414.582 C 512.386 413.985, 512.123 414.470, 511.036 420.712 C 508.869 433.157, 501.218 452, 498.331 452 C 495.761 452, 495.757 449.024, 498.318 440.734 C 506.500 414.247, 507.481 400.807, 502.453 384.085 C 499.543 374.410, 491.338 369.363, 488.901 375.750 M 578.994 384.508 C 569.228 399.065, 569.267 398.913, 573.776 404.981 C 575.821 407.732, 580.886 415.500, 585.031 422.242 C 589.176 428.984, 593.201 434.500, 593.975 434.500 C 595.798 434.500, 614.915 413.003, 614.963 410.898 C 614.995 409.497, 587.585 374, 586.472 374 C 586.237 374, 582.872 378.729, 578.994 384.508 M 717.333 377.384 C 716.325 378.695, 709.538 386.164, 702.250 393.981 C 694.962 401.799, 689.011 408.713, 689.025 409.347 C 689.059 410.858, 709.770 434.500, 711.061 434.500 C 712.337 434.500, 738 406.095, 738 404.682 C 738 402.739, 720.760 375, 719.553 375 C 719.341 375, 718.342 376.073, 717.333 377.384 M 650 379.851 C 650 380.319, 644.380 387.346, 637.512 395.466 C 630.423 403.847, 625.316 410.721, 625.698 411.365 C 627.030 413.606, 650.239 439, 650.956 439 C 652.345 439, 678 410.878, 678 409.357 C 678 408.519, 672.783 402.286, 666.408 395.507 C 660.032 388.728, 654.157 382.241, 653.351 381.091 C 651.871 378.977, 650 378.285, 650 379.851 M 369.500 389.863 C 363.873 392.423, 362.186 394.615, 364.252 396.680 C 365.691 398.120, 366.260 398.050, 370.666 395.887 C 377.039 392.759, 383.758 392.705, 387.876 395.750 C 393.069 399.589, 397.156 397.374, 392.664 393.154 C 387.181 388.003, 376.825 386.532, 369.500 389.863 M 754.673 396.885 C 750.453 401.222, 747 405.518, 747 406.432 C 747 407.346, 748.841 411.448, 751.090 415.547 C 754.923 422.530, 756.963 424.661, 757.028 421.750 C 757.043 421.063, 758.548 413.413, 760.372 404.750 C 762.196 396.087, 763.386 389, 763.017 389 C 762.649 389, 758.894 392.548, 754.673 396.885 M 565.348 409.116 C 568.031 418.930, 574.849 455.830, 574.982 461.250 C 574.992 461.663, 575.406 462, 575.903 462 C 576.799 462, 589 442.830, 589 441.422 C 589 440.696, 585.225 434.699, 573.500 416.799 C 567.465 407.584, 564.050 404.366, 565.348 409.116 M 728.868 424.742 C 722.003 432.309, 716.073 439.022, 715.690 439.659 C 714.893 440.987, 724.012 453.562, 732.254 462.500 L 737.787 468.500 744.289 462 C 751.410 454.881, 752.985 451.294, 752.994 442.175 C 753 436.696, 747.133 419.699, 743.180 413.742 L 741.349 410.983 728.868 424.742 M 668.794 429.746 L 655.089 444.500 667.200 456.671 C 681.570 471.110, 678.848 471.397, 694.902 453.750 C 705.599 441.992, 705.849 441.611, 704.511 439.089 C 702.732 435.739, 685.057 415.579, 683.607 415.246 C 682.998 415.107, 676.332 421.632, 668.794 429.746 M 615.375 421.244 C 612.588 424.135, 607.515 429.801, 604.103 433.835 L 597.898 441.170 601.637 445.835 C 611.814 458.531, 619.372 467.206, 620.705 467.717 C 622.247 468.309, 645 446.532, 645 444.464 C 645 443.556, 629.410 425.293, 622.617 418.244 L 620.443 415.988 615.375 421.244 M 257 426.079 C 247.864 430.209, 242 438.324, 242 446.838 C 242 455.766, 247.279 456.732, 248.314 447.992 C 249.439 438.502, 256.248 431.344, 265.084 430.365 C 272.662 429.526, 273.838 429.105, 273.577 427.324 C 273.036 423.641, 263.908 422.955, 257 426.079 M 388.034 430.752 C 374.733 437.461, 379.010 466.003, 394.922 476.726 C 401.974 481.479, 411.872 477.775, 415.351 469.082 C 417.448 463.839, 417.524 451.129, 415.499 444.308 C 412.073 432.774, 397.897 425.776, 388.034 430.752 M 396 438.389 C 396 442.360, 399.096 445.220, 403.555 445.369 C 408.573 445.536, 409.509 442.418, 405.612 438.521 C 402.082 434.991, 396 434.907, 396 438.389 M 698 458.704 C 691.675 465.669, 686.110 472.014, 685.634 472.803 C 684.838 474.120, 707.111 498, 709.135 498 C 710.804 498, 732.119 473.751, 731.611 472.430 C 730.986 470.799, 710.767 446.150, 710 446.083 C 709.725 446.059, 704.325 451.738, 698 458.704 M 589.805 451.250 C 585.347 457.205, 578 469.647, 578 471.239 C 578 472.104, 579.477 474.579, 581.282 476.740 C 583.088 478.900, 586.982 483.929, 589.936 487.913 L 595.307 495.158 605.658 484.843 C 611.351 479.169, 615.894 474.209, 615.754 473.820 C 614.968 471.635, 594.638 448, 593.546 448 C 592.826 448, 591.143 449.462, 589.805 451.250 M 638.072 461.427 L 625.676 473.854 630.805 479.775 C 636.864 486.769, 649.660 499, 650.918 499 C 651.403 499, 657.013 493.558, 663.385 486.907 C 672.611 477.277, 674.784 474.477, 674.052 473.157 C 673.546 472.246, 668.034 466.438, 661.801 460.250 L 650.469 449.001 638.072 461.427 M 273.001 466.071 C 259.837 471.596, 259.454 499.387, 272.363 512.296 C 284.815 524.748, 302.039 514.732, 301.984 495.072 C 301.953 483.805, 297.499 471.895, 291.718 467.619 C 288.513 465.249, 277.191 464.312, 273.001 466.071 M 744.616 469.003 C 740.251 473.835, 740.255 473.541, 744.493 478.495 C 748.826 483.559, 749.701 482.674, 750.172 472.750 C 750.602 463.666, 749.879 463.178, 744.616 469.003 M 280.667 471.667 C 277.846 474.487, 284.095 482.352, 288.732 481.817 C 293.312 481.289, 293.127 474.290, 288.477 472.171 C 285.646 470.881, 281.706 470.627, 280.667 471.667 M 347.251 479.047 C 337.185 485.703, 317.748 521.023, 319.574 529.339 C 320.695 534.440, 335.054 547.867, 344 552.179 C 358.183 559.014, 367.386 559.527, 376.054 553.965 C 385.360 547.993, 389.250 539.018, 388.786 524.585 C 388.616 519.285, 388.906 515.519, 389.500 515.298 C 394.437 513.467, 406.775 505.952, 408.318 503.837 C 416.031 493.263, 389.898 478.471, 361.500 477.337 C 351.503 476.938, 350.204 477.094, 347.251 479.047 M 724.722 490.074 C 718.825 496.678, 714 502.473, 714 502.952 C 714 504.039, 725.322 514.462, 732.613 520.087 L 738.076 524.302 740.919 521.578 C 746.324 516.400, 749.328 509.429, 748.653 503.634 C 747.975 497.815, 741.392 483.657, 737.793 480.275 L 735.443 478.068 724.722 490.074 M 610.038 489.462 L 599.607 499.928 603.002 504.214 C 609.249 512.101, 622.267 526, 623.408 526 C 624.797 526, 645 505.853, 645 504.468 C 645 503.919, 639.480 497.963, 632.734 491.233 L 620.468 478.997 610.038 489.462 M 667.608 491.532 C 653.794 506.185, 653.462 502.926, 670.271 517.726 C 679.265 525.644, 681.288 527.006, 682.532 525.974 C 683.351 525.294, 688.491 519.928, 693.955 514.049 L 703.889 503.359 691.668 491.168 L 679.447 478.976 667.608 491.532 M 348.981 486.636 C 342.485 492.504, 329.215 515.512, 330.458 518.751 C 332.738 524.692, 404 506.650, 404 500.132 C 404 494.627, 378.453 485.016, 360.194 483.653 C 352.929 483.110, 352.865 483.127, 348.981 486.636 M 578.709 497.250 C 579.018 504.538, 579.327 510.579, 579.394 510.675 C 579.462 510.771, 582.204 508.465, 585.489 505.551 L 591.461 500.252 587.776 496.174 C 585.750 493.931, 582.886 490.274, 581.413 488.048 C 579.940 485.822, 578.602 484, 578.440 484 C 578.278 484, 578.399 489.962, 578.709 497.250 M 378.503 518.374 C 376.880 519.561, 376.647 520.900, 376.853 527.856 C 377.198 539.486, 374.958 542.919, 367 542.958 C 361.320 542.986, 354.117 539.683, 344.432 532.610 C 335.379 525.999, 325 522.959, 325 526.918 C 325 528.481, 333.295 537.110, 339.063 541.549 C 362.267 559.403, 382.042 552.766, 382.393 527.006 C 382.510 518.346, 381.527 516.163, 378.503 518.374 M 363.964 521.444 C 362.019 522.161, 357.182 523.295, 353.214 523.964 C 349.246 524.633, 346 525.351, 346 525.559 C 346 525.767, 348.363 527.682, 351.250 529.814 C 365.871 540.613, 371 539.769, 371 526.566 C 371 519.241, 370.644 518.982, 363.964 521.444 M 101.674 677.123 C 99.261 680.851, 98.806 684.160, 99.970 689.531 C 101.049 694.517, 111.806 718, 113.010 718 C 113.786 718, 139.401 694.251, 139.734 693.223 C 140.118 692.039, 129.069 684.319, 120.759 679.964 C 110.742 674.716, 103.892 673.696, 101.674 677.123 M 371.846 829.544 C 364.159 833.933, 347.784 840.511, 340.641 842.080 C 335.284 843.257, 334.941 843.488, 336.641 844.776 C 339.125 846.660, 351.081 845.721, 357.974 843.102 C 365.542 840.226, 372.864 835.163, 375.742 830.814 C 379.054 825.809, 378.630 825.671, 371.846 829.544 M 354 852.872 C 350.597 853.483, 350.492 853.640, 350.204 858.555 C 350.040 861.367, 351.259 870.466, 352.950 879.055 C 358.322 906.334, 358.265 906.452, 339.238 907.334 C 325.319 907.979, 321.654 909.182, 321.184 913.257 C 320.795 916.627, 323.685 918, 331.171 918 C 342.552 918, 357.351 924.265, 372.585 935.531 C 384.142 944.077, 389.143 946.386, 397.070 946.834 C 403.053 947.172, 403.938 946.985, 404.907 945.173 C 407.690 939.973, 398.985 932.808, 379.066 923.902 C 370.048 919.870, 368.585 918.882, 368.282 916.619 C 367.811 913.097, 369.481 913.200, 380.007 917.343 C 391.408 921.830, 395.587 924.048, 407.166 931.757 C 414.271 936.488, 417.859 938.280, 420.100 938.216 C 423.938 938.107, 427 935.473, 427 932.279 C 427 926.456, 423.973 924.429, 405.895 918.149 C 390.573 912.826, 391 913.032, 391 910.952 C 391 907.056, 395.639 907.644, 416.235 914.152 C 430.178 918.558, 434.177 918.545, 434.830 914.089 C 435.948 906.460, 417.319 901.023, 390 901.006 C 366.915 900.991, 365.702 899.365, 361.659 863.013 C 360.393 851.632, 360.454 851.713, 354 852.872 M 240.588 867.750 C 238.496 874.447, 235.762 891.619, 234.990 902.914 C 234.485 910.291, 233.638 916.762, 233.107 917.293 C 232.201 918.199, 227.968 918.044, 208.460 916.394 C 200.610 915.730, 194.951 917.355, 193.105 920.804 C 191.912 923.033, 192.169 923.173, 204.500 927.047 C 220.213 931.983, 228.584 938.475, 238.611 953.500 C 247.327 966.561, 256.572 971.614, 266.658 968.829 C 275.944 966.265, 265.883 948.958, 246.750 934.581 C 242.955 931.729, 241.850 928.379, 244.384 927.406 C 245.875 926.834, 251.328 929.963, 265.500 939.523 C 282.136 950.745, 302 954.809, 302 946.989 C 302 941.006, 288.788 932.798, 266.823 925.135 C 253.428 920.462, 248.281 917.554, 247.555 914.250 C 246.872 911.142, 249.479 879.725, 250.926 873.629 C 252.112 868.627, 251.550 867.360, 247.811 866.612 C 242.866 865.623, 241.169 865.891, 240.588 867.750" stroke="none" fill="#1a1a1a" fill-rule="evenodd"/>
</svg>