<svg xmlns="http://www.w3.org/2000/svg" width="1024" height="1024" viewBox="0 0 1024 1024" version="1.1">
	<path d="M 384 5.858 C 307.653 38.878, 249.708 94.675, 210.425 173 C 163.828 265.907, 152.437 383.152, 179.528 491 C 181.502 498.859, 188.936 522.777, 190.571 526.529 C 190.818 527.095, 188.982 528.159, 186.491 528.895 C 176.954 531.711, 176.215 535.924, 182.086 554 C 184.319 560.875, 186.763 568.400, 187.517 570.723 C 188.873 574.898, 188.850 574.991, 185.463 579.044 C 179.957 585.634, 179.152 591.810, 182.889 598.792 C 183.700 600.308, 183.698 602.157, 182.880 605.701 C 181.108 613.375, 183.188 621.531, 188.068 626.051 C 190.857 628.634, 192.196 630.912, 192.978 634.403 C 195.291 644.724, 198.977 648, 208.274 648 L 213.648 648 215.934 655.750 C 222.774 678.936, 226.300 681.347, 244.815 675.498 C 257.988 671.337, 260.795 667.466, 259.584 655.129 L 258.933 648.500 262.717 644.591 C 267.878 639.259, 274.473 636.459, 288.692 633.563 C 329.088 625.335, 351.138 615.568, 374.361 595.614 C 382.740 588.413, 383.482 588, 388.029 588 C 390.673 588, 393.470 587.757, 394.244 587.460 C 395.416 587.010, 395.346 588.725, 393.828 597.710 C 386.558 640.744, 384.235 651.288, 379.446 662.987 C 374.644 674.721, 377.191 683.479, 386.190 686.175 C 390.759 687.544, 390.793 687.862, 388.401 706.514 C 386.936 717.937, 386.936 721.052, 388.400 743.740 C 389.664 763.312, 389.778 771.329, 388.945 782 C 387.073 805.994, 388.696 809.090, 405.453 813.501 C 410.761 814.899, 411.943 815.512, 410.453 816.096 C 409.379 816.516, 409.063 816.891, 409.750 816.930 C 410.438 816.968, 411 817.343, 411 817.762 C 411 818.439, 404.070 818.810, 384.500 819.177 C 381.200 819.240, 374.846 818.940, 370.380 818.511 C 358.265 817.349, 352.484 819.408, 343.909 827.941 C 333.290 838.507, 330.150 849.329, 329.292 878.318 C 328.496 905.198, 330.479 917.593, 338.173 933.822 C 346.550 951.489, 367.782 964.457, 385.328 962.624 C 404.809 960.587, 413.929 945.131, 414.020 914 C 414.052 903.173, 415.183 897.071, 417.467 895.400 C 418.449 894.682, 425.733 894.059, 436.772 893.749 C 452.225 893.316, 455.652 892.907, 463.473 890.566 C 485.939 883.840, 498.431 871.526, 503.604 851.004 C 505.201 844.668, 505.158 839.690, 503.386 825.971 L 502.801 821.441 508.771 820.208 C 521.622 817.554, 522.574 815.634, 520.023 797.500 C 518.796 788.776, 519.167 769.456, 520.587 768.117 C 520.947 767.778, 526.475 773.124, 532.871 779.998 C 559.287 808.390, 564.240 813, 568.325 813 C 571.300 813, 572.950 812.165, 576.572 808.827 L 581.099 804.654 583.277 806.832 C 587.060 810.616, 586.176 815.285, 579.837 825 C 576.786 829.675, 572.624 836.706, 570.588 840.624 C 567.559 846.450, 566.171 848.070, 562.972 849.513 C 557.735 851.874, 556.281 853.606, 551 863.772 C 546.532 872.372, 546.439 872.469, 538 877.269 C 515.019 890.340, 509.616 907.601, 521.023 931.500 C 533.568 957.780, 558.255 985.257, 578.601 995.584 C 596.378 1004.607, 617.731 1000.244, 625.500 986 C 628.299 980.868, 628.499 979.798, 628.479 970 C 628.456 958.588, 629.120 960.746, 616.510 931.075 C 612.928 922.646, 613.334 916.716, 617.908 910.699 C 619.663 908.390, 622.022 904.475, 623.149 902 C 624.277 899.525, 626.270 895.250, 627.578 892.500 C 628.887 889.750, 634.293 882.775, 639.591 877 C 656.201 858.897, 671.900 832.868, 676.081 816.500 C 680.178 800.461, 678.642 780.912, 671.911 763.433 C 669.521 757.227, 669.080 754.875, 669.588 751.047 C 670.177 746.609, 669.897 745.809, 664.980 737.911 C 656.434 724.180, 645.171 711.383, 626.079 693.706 C 613.983 682.508, 614.061 682.628, 616.932 679.572 C 620.476 675.800, 620.369 671.731, 616.092 647.500 C 609.534 610.346, 607.821 594.579, 610.250 593.729 C 610.938 593.489, 614.697 596.313, 618.605 600.005 C 631.339 612.038, 647.406 620.419, 667.500 625.511 C 676.184 627.712, 682.094 628.487, 712.688 631.438 C 728.085 632.924, 733.698 634.944, 739.630 641.136 C 742.357 643.982, 742.382 644.116, 741.024 648.767 C 736.798 663.236, 738.593 666.982, 752.376 672.468 C 769.001 679.084, 773.558 677.049, 781.419 659.500 L 785.899 649.500 792.199 648.978 C 803.207 648.067, 811.326 642.064, 812.637 633.867 C 813.063 631.205, 814.614 628.257, 817.100 625.384 C 821.100 620.763, 822.981 615.859, 823.001 610 C 823.008 608.075, 823.907 605.150, 825 603.500 C 827.676 599.460, 827.676 591.245, 825 586 C 822.155 580.424, 822.250 580.011, 830 564.142 C 833.960 556.033, 837 548.496, 837 546.786 C 837 543.164, 830.436 536, 827.118 536 C 824.404 536, 824.211 537.065, 829.928 520.515 C 845.325 475.939, 852.357 435.347, 853.681 383.398 C 856.247 282.635, 824.288 185.778, 763.139 109 C 752.131 95.179, 721.538 64.948, 706.500 53.032 C 683.361 34.698, 659.850 20.264, 632 7.294 L 617.500 0.542 603.500 0.294 L 589.500 0.046 602 4.351 C 664.614 25.916, 722.755 68.867, 764.640 124.500 C 835.411 218.502, 861.475 342.270, 836.473 465.602 C 831.138 491.915, 818.847 532.105, 816.176 531.965 C 815.804 531.945, 814.375 531.286, 813 530.500 C 806.387 526.719, 799.471 530.410, 795.261 539.965 C 793.920 543.009, 790.950 548.540, 788.662 552.255 L 784.500 559.009 779.500 558.255 C 767.803 556.489, 762.575 557.361, 751.454 562.929 C 739.083 569.124, 737.256 569.481, 725 568.110 C 704.313 565.794, 691.614 561.116, 666.237 546.459 C 666.092 546.375, 666.655 544.677, 667.487 542.686 C 670.432 535.636, 669.958 534.672, 657.108 521.599 C 643.585 507.840, 643.068 507.241, 629.235 489.351 C 603.531 456.110, 584.840 444.501, 555.973 443.851 C 549.193 443.698, 550.060 443.237, 561.535 440.893 C 612.795 430.421, 648.070 401.583, 658.652 361.500 C 661.707 349.928, 661.111 328.897, 657.093 306.500 C 652.993 283.647, 653.175 280.933, 659.800 266 C 670.200 242.560, 673.488 221.448, 669.613 203 C 667.931 194.992, 661.613 181.070, 657.374 176.032 L 654.798 172.971 660.660 166.704 C 677.181 149.043, 681.446 127.344, 673.403 101.882 C 668.901 87.631, 661.945 84.439, 653.950 92.955 L 649.298 97.910 648.121 92.649 C 644.649 77.135, 634.814 65.727, 624.911 65.727 C 619.716 65.727, 619.397 66.115, 617.485 74.746 C 614.578 87.868, 610.114 93.881, 600.577 97.524 C 591.889 100.842, 582.867 99.332, 553.320 89.619 C 518.773 78.262, 509.805 76.524, 486 76.574 C 445.328 76.659, 413.031 87.797, 390.227 109.602 L 381.754 117.703 379.278 112.297 C 377.513 108.440, 376.671 104.543, 376.342 98.695 C 375.643 86.297, 375.531 86, 371.532 86 C 367.370 86, 364.862 88.931, 359.577 99.972 C 356.631 106.125, 356 108.567, 356 113.810 L 356 120.176 351.750 119.420 C 333.097 116.104, 308.676 125.896, 312.267 135.253 C 312.944 137.018, 329.308 144.934, 335.149 146.321 C 337.817 146.955, 340 147.718, 340 148.017 C 340 148.317, 336.738 151.430, 332.750 154.936 C 302.439 181.587, 292.767 222.475, 305.577 269.813 C 308.473 280.516, 319.125 308.929, 321.863 313.252 C 323.677 316.118, 323.669 316.264, 321.378 321.834 C 317.221 331.942, 318.952 345.911, 326.208 360.790 C 337.865 384.695, 365.209 395.902, 387.716 385.998 L 391.933 384.142 396.140 389.321 C 408.997 405.150, 425.004 418.943, 439.316 426.527 C 446.461 430.313, 450.314 432.029, 460.820 436.104 C 465.338 437.856, 460.840 439.596, 447.098 441.412 C 406.140 446.823, 386.098 458.612, 338.165 505.483 C 322.004 521.286, 322.243 520.721, 327.386 530.960 L 329.908 535.980 324.873 540.936 C 312.895 552.726, 293.870 563.372, 277.241 567.591 C 263.862 570.985, 260.837 570.792, 251.671 565.963 C 246.011 562.981, 241.914 561.621, 235.988 560.757 L 227.966 559.588 226.896 555.544 C 223.775 543.748, 217.750 527.084, 216.051 525.546 C 214.463 524.109, 212.685 523.853, 206.304 524.144 L 198.500 524.500 194.832 514 C 171.056 445.933, 166.519 349.346, 183.559 274 C 213.482 141.690, 293.387 45.815, 407 5.902 L 423.500 0.105 410.500 0.062 L 397.500 0.019 384 5.858 M 625.583 76.250 C 625.388 76.938, 624.684 79.525, 624.018 82 C 619.734 97.928, 607.947 107, 591.538 107 C 581.307 107, 576.852 105.954, 550.899 97.462 C 536.898 92.880, 523.011 89.067, 514.399 87.441 C 466.160 78.328, 415.083 92.406, 390.795 121.510 C 383.642 130.081, 381.631 130.719, 377.431 125.750 C 373.343 120.913, 370.802 114.397, 370.231 107.284 C 369.569 99.044, 368.699 98.737, 366.509 105.969 C 364.935 111.168, 364.859 112.944, 365.875 120.859 C 367.541 133.855, 364.684 139.085, 359.153 133.164 C 355.595 129.355, 347.900 127.546, 338.600 128.332 C 330.863 128.986, 324.707 130.716, 325.507 132.012 C 325.785 132.461, 325.448 133.017, 324.759 133.247 C 322.792 133.903, 326.806 135.668, 336.624 138.464 C 347.194 141.474, 355 144.894, 355 146.513 C 355 147.157, 350.263 151.693, 344.473 156.592 C 320.323 177.028, 310.352 197.004, 309.264 227.133 C 308.449 249.720, 312.238 268.547, 323.100 295.870 L 328.339 309.050 330.919 306.632 C 343.730 294.632, 363.313 296.380, 379.251 310.946 C 382.292 313.726, 385.171 316, 385.649 316 C 386.825 316, 390.482 305.481, 393.124 294.500 C 395.865 283.106, 396.009 266.058, 393.526 246.786 C 392.554 239.243, 392.043 232.330, 392.391 231.423 C 394.158 226.820, 398.919 237.394, 401.501 251.653 C 403.799 264.346, 403.430 263.970, 408.621 258.924 C 413.910 253.782, 417.526 247.093, 421.858 234.441 C 427.565 217.769, 426.955 202.049, 420.026 187.241 C 416.376 179.441, 416.737 178.586, 423.387 179.288 C 434.201 180.429, 452.600 188.810, 476.500 203.481 C 495.986 215.442, 502.168 218.342, 506.264 217.442 C 509.247 216.787, 509.249 216.779, 508.596 211.224 C 507.327 200.422, 497.917 182.314, 488.250 172.071 C 485.363 169.011, 483 165.991, 483 165.359 C 483 162.812, 490.697 166.136, 501.385 173.301 C 532.218 193.968, 553.438 202, 577.213 202 C 590.891 202, 606.963 198.096, 605.814 195.052 C 605.367 193.868, 595.261 185.800, 590.386 182.734 C 585.245 179.500, 583.909 175.983, 587.844 176.036 C 589.305 176.055, 593.200 176.723, 596.500 177.520 C 635.345 186.900, 674.587 155.208, 669.176 118.827 C 667.620 108.361, 665.056 101.082, 662.286 99.268 C 660.994 98.421, 659.803 97.903, 659.638 98.115 C 659.473 98.327, 656.974 101.962, 654.083 106.193 C 642.163 123.645, 629.592 129.623, 638.005 113.839 C 641.864 106.598, 641.862 98.773, 637.997 88.619 C 634.643 79.808, 626.792 71.985, 625.583 76.250 M 642.500 180.072 C 640.850 181.126, 639.052 182.141, 638.503 182.327 C 637.955 182.512, 638.676 184.202, 640.105 186.082 C 647.065 195.236, 650.565 212.916, 652.559 248.982 L 653.249 261.464 655.210 256.482 C 664.050 234.031, 665.033 206.369, 657.501 192.044 C 656.081 189.345, 647.188 178.619, 646.127 178.328 C 645.782 178.233, 644.150 179.018, 642.500 180.072 M 625 185.542 C 621.975 186.238, 618.193 186.851, 616.595 186.904 C 613.925 186.992, 613.812 187.141, 615.193 188.750 C 618.857 193.016, 617.649 198.985, 612.363 202.733 C 604.428 208.360, 584.889 211.616, 568.185 210.094 C 552.156 208.633, 542.846 205.796, 525.299 197.024 C 516.884 192.818, 510 189.466, 510 189.576 C 510 189.686, 511.422 192.813, 513.159 196.526 C 519.037 209.086, 517.891 222.239, 510.608 225.824 C 504.697 228.734, 491.223 223.043, 464.809 206.478 C 449.026 196.580, 441.219 193, 435.417 193 L 431.909 193 432.705 196.750 C 433.142 198.813, 433.470 206.575, 433.433 214 C 433.372 226.512, 433.129 228.195, 430.124 237 C 424.830 252.507, 416.140 266.160, 407.968 271.810 C 404.445 274.245, 404.070 274.926, 404.016 279 C 403.818 294.007, 392.109 324.953, 386.307 325.804 C 384.883 326.013, 381.823 323.871, 376.519 318.954 C 360.465 304.068, 348.356 302.456, 336.055 313.569 C 329.214 319.750, 327.494 323.975, 327.536 334.500 C 327.666 367.283, 355.159 388.837, 383.500 378.373 C 395.055 374.108, 394.753 374.044, 400.914 382.042 C 429.976 419.764, 465.905 436.134, 519.500 436.072 C 568.527 436.016, 605.211 422.837, 629.886 396.415 C 651 373.806, 656.296 349.818, 648.962 310 C 645.979 293.807, 645.682 290.221, 644.975 262 C 644.190 230.668, 643.392 222.998, 638.631 201 C 634.598 182.369, 635.305 183.171, 625 185.542 M 594.315 227.976 C 591.587 229.114, 590 231.991, 590 235.798 L 590 238.727 598.750 238.614 C 608.452 238.488, 611.622 239.549, 624.204 247.133 C 634.335 253.240, 634.928 250.258, 625.591 240.155 C 617.312 231.194, 601.429 225.010, 594.315 227.976 M 469.844 237.417 C 460.328 240.755, 454.339 245.828, 448.567 255.441 C 441.771 266.761, 444.389 267.337, 455.529 256.973 C 463.853 249.229, 466.817 247.817, 474.617 247.877 L 481 247.926 481 243.585 C 481 237.299, 476.801 234.978, 469.844 237.417 M 595.509 282.171 C 587.362 288.580, 586.820 305.020, 594.503 312.703 C 603.258 321.458, 612.685 312.230, 611.851 295.721 C 611.163 282.098, 603.588 275.817, 595.509 282.171 M 467.514 292.168 C 456.954 300.474, 462.757 327, 475.135 327 C 479.732 327, 484.447 321.805, 485.869 315.173 C 489.350 298.946, 477.607 284.229, 467.514 292.168 M 551.415 319.421 C 548.101 320.865, 544 325.407, 544 327.635 C 544 329.569, 546.946 329.328, 551.764 327 C 557.159 324.393, 560.922 324.473, 565.089 327.281 C 571.572 331.650, 571.215 336.872, 563.804 346.094 C 560.163 350.625, 560.597 351.808, 565.218 349.948 C 570.617 347.774, 572.743 346.061, 574.414 342.540 C 581.092 328.468, 565.843 313.139, 551.415 319.421 M 352 331.108 C 348.965 332.299, 346.052 335.830, 346.022 338.357 C 346.006 339.720, 346.465 340.034, 347.750 339.536 C 359.577 334.954, 369 340.882, 369 352.904 C 369 359.400, 369.638 360.162, 372.463 357.041 C 377.920 351.011, 372.401 336.793, 362.800 332.145 C 357.978 329.811, 355.830 329.605, 352 331.108 M 504.755 365.905 C 498.393 368.044, 498.571 370.020, 505.750 376.961 C 516.792 387.637, 530.989 392.448, 549.500 391.788 C 558.237 391.477, 561.578 390.919, 565.742 389.078 C 577.326 383.957, 584.947 369.718, 578.073 366.039 C 576.424 365.157, 575.877 365.622, 573.996 369.507 C 571.214 375.256, 565.198 380.391, 559.208 382.132 C 549.242 385.028, 531.642 382.928, 521.265 377.604 C 514.022 373.888, 512.793 372.665, 512.116 368.500 C 511.380 363.970, 510.954 363.820, 504.755 365.905 M 470.647 443.558 C 467.645 465.460, 501.227 484.045, 525.257 473.780 C 532.959 470.490, 535.611 466.645, 536.465 457.530 C 536.861 453.300, 537.530 448.638, 537.950 447.170 L 538.714 444.500 519.107 444.459 C 500.564 444.420, 495.415 443.939, 478.367 440.652 L 471.234 439.277 470.647 443.558 M 456.818 449.250 C 447.756 461.955, 469.530 485.754, 495.503 491.533 C 522.717 497.587, 545.925 486.744, 551.491 465.373 C 553.902 456.117, 553.546 450.206, 550.496 448.816 C 547.113 447.275, 546.767 447.858, 546.080 456.246 C 544.666 473.501, 531.416 484.245, 511.500 484.287 C 486.941 484.338, 468.726 471.812, 462.005 450.250 C 460.413 445.145, 459.827 445.032, 456.818 449.250 M 438 450.965 C 415.962 455.695, 400.029 463.797, 378.157 481.397 C 366.076 491.118, 333 520.623, 333 521.678 C 333 525.198, 349.163 546.044, 359.420 555.753 C 367.929 563.807, 387.364 579, 389.158 579 C 389.656 579, 393.578 575.513, 397.873 571.250 C 410.434 558.784, 420.693 541.814, 427.940 521.513 C 432.447 508.888, 435 507.347, 435 517.252 C 435 531.074, 424.661 552.078, 408.048 572.007 C 404.425 576.353, 404.249 576.924, 403.105 588.007 C 400.382 614.391, 394.845 642.295, 388.861 659.783 C 386.738 665.990, 385 671.963, 385 673.056 C 385 679.758, 421.419 691.990, 456.500 697.073 C 474.601 699.695, 519.169 699.421, 537.980 696.572 C 560.966 693.091, 608.520 677.979, 611.315 673.269 C 611.566 672.846, 610.696 666.425, 609.382 659 C 607.155 646.412, 601.917 608.138, 596.996 568.500 C 595.836 559.150, 593.562 542.858, 591.943 532.296 C 588.626 510.653, 588.302 505, 590.378 505 C 592.471 505, 593.604 506.888, 595.777 514 C 599.077 524.798, 602.800 544.374, 605.570 565.500 C 607.012 576.500, 608.342 585.655, 608.524 585.845 C 610.067 587.447, 637.899 565.482, 644.859 557.168 C 650.674 550.223, 659 538.752, 659 537.687 C 659 537.216, 654.558 532.031, 649.129 526.165 C 637.366 513.455, 629.337 504.143, 617.989 490.048 C 600.316 468.096, 587.032 458.088, 569.540 453.547 C 559.551 450.954, 559.733 450.852, 557.677 460.250 C 553.150 480.948, 539.539 493.924, 519.056 497.071 C 505.742 499.116, 495.235 497.083, 479.186 489.355 C 461.318 480.753, 450.381 467.947, 449.203 454.250 C 448.944 451.229, 448.274 449.030, 447.626 449.070 C 447.007 449.109, 442.675 449.962, 438 450.965 M 200.982 533.037 C 195.558 534.325, 188.015 537.798, 187.451 539.267 C 186.437 541.911, 195.893 570.905, 198.413 572.876 C 199.011 573.343, 202.270 573.511, 205.656 573.249 C 211.137 572.825, 212.331 572.317, 216.537 568.616 L 221.261 564.459 218.538 555.479 C 217.041 550.541, 214.465 543.237, 212.814 539.250 C 209.533 531.324, 209.116 531.104, 200.982 533.037 M 807.619 539.869 C 805.394 542.327, 795.414 559.083, 794.560 561.792 C 794.163 563.053, 794.139 565.865, 794.507 568.042 C 795.174 571.987, 795.191 572, 799.838 572.022 C 802.402 572.034, 806.458 572.932, 808.851 574.018 C 811.244 575.104, 813.671 575.703, 814.244 575.349 C 815.385 574.644, 828 548.700, 828 547.058 C 828 545.813, 821.407 542.377, 814.379 539.958 C 809.465 538.268, 809.072 538.263, 807.619 539.869 M 330.500 547.558 C 314.516 562.177, 292.322 573.348, 268.969 578.526 L 261.437 580.196 252.469 576.158 C 241.019 571.004, 236.149 569.918, 229.407 571.015 C 219.147 572.685, 217.628 575.262, 218.541 589.457 C 219.384 602.572, 219.451 602.755, 223.877 604.081 C 229.341 605.718, 232.777 603.846, 234.885 598.083 C 235.773 595.653, 237.060 593.479, 237.744 593.251 C 239.691 592.604, 241.238 598.013, 240.628 603.333 C 240.081 608.114, 242.731 613, 245.872 613 C 248.396 613, 255.925 608.910, 257.808 606.517 C 260.201 603.475, 262 603.933, 262 607.585 C 262 610.835, 254.290 618.558, 250.136 619.470 C 246.904 620.180, 246.369 620.906, 247.863 622.550 C 248.338 623.073, 249.993 626.785, 251.541 630.801 C 254.923 639.574, 255.220 639.809, 258.738 636.525 C 261.338 634.098, 270.051 629.402, 276.305 627.059 C 277.848 626.481, 285.417 624.626, 293.124 622.938 C 318.753 617.324, 340.387 608.878, 356.224 598.303 C 363.066 593.734, 376 582.499, 376 581.125 C 376 580.770, 372.962 578.157, 369.250 575.319 C 362.631 570.259, 346.860 554.615, 339.981 546.285 L 336.500 542.070 330.500 547.558 M 653.311 559.712 C 643.223 571.706, 636.217 578.384, 628.147 583.701 L 619.794 589.205 623.647 593.198 C 625.766 595.394, 632.123 600.259, 637.774 604.010 C 653.314 614.323, 668.560 619.129, 690.119 620.509 C 726.789 622.857, 735.105 624.759, 743.121 632.632 L 747.742 637.171 749.924 634.106 C 752.102 631.047, 757.128 620.510, 758.441 616.250 C 759.076 614.190, 758.812 613.999, 755.317 613.985 C 750.256 613.966, 746.578 611.997, 746.162 609.084 C 745.908 607.307, 746.202 606.863, 747.341 607.301 C 754.049 609.875, 761.448 608.365, 764.328 603.834 C 765.143 602.550, 766.113 598.771, 766.482 595.435 C 767.273 588.287, 768.078 586.677, 770.620 587.160 C 771.902 587.404, 772.836 588.910, 773.557 591.894 C 775.224 598.791, 781.612 602.227, 786.305 598.750 C 788.371 597.220, 792 587.177, 792 582.992 C 792 579.526, 788.151 571.331, 785.358 568.849 C 779.729 563.846, 770.338 564.125, 758.887 569.636 C 741.013 578.238, 738.181 579.001, 728.014 577.949 C 711.092 576.198, 695.149 571.083, 674.500 560.781 C 658.596 552.846, 659.066 552.870, 653.311 559.712 M 197.459 580.367 C 184.413 586.442, 185.221 594.315, 199.319 598.502 C 213.564 602.732, 218.267 594.835, 205.562 588.020 C 202.846 586.563, 200.451 584.854, 200.241 584.222 C 199.677 582.531, 204.152 581.727, 207.354 582.945 C 211.231 584.418, 212 584.278, 212 582.098 C 212 580.863, 210.895 579.810, 208.851 579.098 C 204.444 577.562, 203.182 577.702, 197.459 580.367 M 799 580.352 C 799 583.994, 801.264 586.219, 804.446 585.703 C 806.986 585.290, 807.998 585.553, 808.455 586.743 C 809.224 588.747, 808.594 589.267, 802.829 591.387 C 797.344 593.404, 795.725 595.050, 796.173 598.154 C 796.599 601.104, 799.790 601.943, 808 601.264 C 815.596 600.635, 819.579 598.903, 820.564 595.799 C 821.552 592.684, 812.010 583.787, 805.861 582.090 C 803.462 581.428, 800.938 580.650, 800.250 580.360 C 799.563 580.070, 799 580.067, 799 580.352 M 191.321 606.633 C 189.355 609.633, 190.188 613.060, 193.889 617.202 C 198.880 622.788, 215.687 621.978, 220.200 615.934 C 224.642 609.984, 217.008 606.081, 198.181 604.677 C 193.471 604.326, 192.686 604.550, 191.321 606.633 M 768.600 615.751 C 766.455 621.113, 761.825 630.526, 758.312 636.670 C 750.277 650.723, 746.517 659.713, 747.952 661.443 C 748.526 662.134, 752.778 663.984, 757.400 665.554 C 764.784 668.061, 766.014 668.233, 767.528 666.977 C 769.067 665.700, 779.396 644.999, 778.759 644.469 C 778.616 644.351, 777.078 643.531, 775.340 642.648 L 772.180 641.042 772.346 627.096 C 772.497 614.462, 772.718 612.872, 774.703 610.189 C 776.970 607.122, 776.804 605.999, 774.083 606.001 C 773.014 606.002, 771.233 609.169, 768.600 615.751 M 803.500 608 C 801.850 608.420, 797.298 608.817, 793.385 608.882 C 781.855 609.073, 777.143 615.063, 784.323 620.401 C 789.012 623.887, 808.920 623.535, 812.552 619.903 C 815.662 616.793, 817.122 609.324, 814.895 607.914 C 813.257 606.877, 807.752 606.918, 803.500 608 M 231 612.509 C 231 613.338, 232.338 615.864, 233.973 618.121 C 236.736 621.935, 236.902 622.659, 236.327 628.363 C 235.430 637.261, 234.678 638.596, 228.276 642.642 C 225.099 644.650, 222.370 646.394, 222.211 646.518 C 221.518 647.060, 229.038 667.408, 230.205 668.148 C 233.249 670.079, 240.582 668.665, 249.521 664.423 C 253.825 662.381, 253.842 662.910, 248.974 647.907 C 242.735 628.682, 231 605.570, 231 612.509 M 221.500 625 C 220.400 625.473, 217.025 625.925, 214 626.006 C 202.212 626.319, 198.071 630.333, 203.591 636.095 C 208.698 641.426, 220.086 640.851, 227.307 634.899 C 234.303 629.132, 229.790 621.438, 221.500 625 M 779.673 628.470 C 775.064 633.079, 778.661 637.320, 789.047 639.523 C 798.434 641.514, 803 640.864, 803 637.536 C 803 636.231, 803.262 634.480, 803.583 633.644 C 805.157 629.544, 783.324 624.819, 779.673 628.470 M 596 689.536 C 540.205 710.407, 488.824 713.773, 429 700.476 C 420.475 698.581, 410.228 695.957, 406.229 694.645 C 402.230 693.333, 398.783 692.543, 398.569 692.889 C 395.817 697.341, 395.555 722.289, 397.948 752 C 398.714 761.516, 398.730 770.341, 398.002 781.902 C 397.124 795.852, 397.188 798.638, 398.434 800.539 C 399.979 802.898, 406.515 805.228, 422 808.942 C 426.675 810.064, 435.675 812.372, 442 814.072 C 462.885 819.686, 489.967 818.416, 506.637 811.042 L 511 809.112 511.027 790.806 C 511.057 770.505, 512.178 755.871, 514.010 751.867 C 514.931 749.854, 518.185 747.855, 527.848 743.367 C 534.797 740.140, 542.443 736.006, 544.840 734.181 C 547.237 732.356, 549.828 731.104, 550.599 731.400 C 552.884 732.276, 552.331 738.347, 549.750 740.721 C 546.821 743.414, 530.614 752.642, 526.329 754.057 C 524.498 754.661, 523 755.562, 523 756.058 C 523 757.384, 564.951 801, 566.226 801 C 566.821 801, 574.551 793.878, 583.404 785.172 C 604.938 763.997, 619.504 755.511, 648.252 747.391 C 657.367 744.816, 657.834 744.554, 656.823 742.584 C 650.521 730.302, 609.513 686.906, 604.346 687.052 C 603.331 687.081, 599.575 688.198, 596 689.536 M 640.889 758.946 C 614.690 768.707, 599.918 777.365, 591.250 788.037 C 586.058 794.429, 586.059 794.380, 591 803.382 C 596.153 812.771, 596.102 815.158, 590.579 823.225 C 588.147 826.776, 583.156 835.895, 579.487 843.489 C 573.322 856.251, 572.867 857.644, 573.477 861.898 C 574.613 869.824, 577.555 874.507, 584.829 879.967 C 590.985 884.587, 606.870 892, 610.614 892 C 614.985 892, 631.247 875.589, 644.731 857.570 C 667.681 826.900, 674.103 804.566, 667.500 778.381 C 664.293 765.665, 659.644 753.552, 657.878 753.315 C 657.120 753.213, 649.475 755.747, 640.889 758.946 M 425.035 821.118 C 425.055 821.878, 425.714 823.625, 426.500 825 C 428.865 829.137, 428.227 836, 425.478 836 C 424.759 836, 422.351 833.934, 420.128 831.408 C 416.168 826.909, 416.016 826.840, 412.593 827.969 C 401.082 831.768, 396.463 852.348, 403.785 867.216 C 410.249 880.344, 418.620 884.507, 438.500 884.483 C 469.628 884.444, 489.701 871.943, 495.599 848.921 C 497.200 842.672, 496.022 823, 494.047 823 C 493.647 823, 489.760 823.934, 485.410 825.076 C 475.510 827.675, 462.064 827.129, 444.382 823.410 C 426.774 819.707, 424.994 819.497, 425.035 821.118 M 391.712 825.212 C 386.112 826.697, 377.270 835.249, 373.842 842.495 C 369.857 850.919, 369.923 858.210, 374.063 867 C 380.336 880.318, 388.495 885.631, 405.431 887.430 L 411.362 888.060 405.867 882.280 C 401.988 878.200, 399.363 874.148, 396.941 868.500 C 390.809 854.200, 392.205 837.077, 400.218 828.324 C 403.880 824.323, 400.173 822.967, 391.712 825.212 M 359.123 827.002 C 336.476 832.349, 329.090 892.615, 346.437 930.500 C 350.124 938.551, 356.346 944.779, 365.635 949.716 C 384.914 959.962, 399.153 954.042, 404.641 933.500 C 406.212 927.617, 406.473 912, 405 912 C 404.450 912, 403.993 913.237, 403.985 914.750 C 403.956 919.873, 403.235 920.159, 393.212 919.024 C 374.651 916.921, 364.644 913.701, 363.587 909.490 C 362.560 905.400, 365.549 902.282, 368.198 904.679 C 369.228 905.611, 369.860 906.922, 369.603 907.593 C 368.858 909.533, 377.778 912.784, 387.030 913.945 C 398.468 915.379, 398.040 915.451, 397.389 912.194 C 396.594 908.219, 399.125 906.231, 403.080 907.724 L 406 908.826 406 903.495 C 406 900.563, 406.273 897.452, 406.607 896.582 C 407.093 895.314, 406.475 895, 403.496 895 C 399.785 895, 399.779 895.007, 400.436 898.513 C 401.352 903.393, 399.940 903.672, 387.189 901.131 C 370.048 897.715, 363.381 895.334, 362.064 892.155 C 360.499 888.376, 362.826 881.628, 365.850 881.180 C 368.679 880.760, 369.602 883.303, 367.637 886.108 C 364.384 890.753, 368.021 892.711, 385 895.456 C 396.641 897.338, 397.069 897.344, 396.401 895.602 C 396.105 894.832, 393.948 893.721, 391.606 893.131 C 383.426 891.071, 372.504 877.728, 366.877 862.920 C 363.523 854.092, 365.303 841.280, 371.008 833.187 C 374.034 828.894, 374.115 828.557, 372.418 827.316 C 370.458 825.883, 364.463 825.741, 359.123 827.002 M 558.344 867.631 C 549.678 886.388, 553.679 898.475, 571.510 907.407 C 589.122 916.229, 607.461 914.519, 613.718 903.470 C 616.687 898.228, 616.627 898.002, 612.250 897.985 C 593.045 897.910, 569.766 881.653, 565.627 865.428 C 563.825 858.366, 562.430 858.789, 558.344 867.631 M 537.500 887.897 C 528.621 892.005, 523.501 902.123, 524.183 914.216 C 525.241 932.996, 558.588 975.768, 580.686 986.689 C 595.776 994.147, 612.659 991.979, 618.059 981.890 C 621.622 975.232, 620.890 961.081, 616.504 951.829 C 615.115 948.898, 614.157 947.479, 614.376 948.676 C 614.845 951.243, 613.214 952.052, 601.692 954.970 C 589.594 958.034, 580.275 958.058, 577.823 955.030 C 574.575 951.018, 576.739 946.049, 581.750 946.015 C 584.198 945.999, 584.548 947.107, 583.007 949.988 C 581.328 953.123, 586.372 953.297, 597.866 950.498 C 610.309 947.469, 610.597 947.317, 608.429 944.921 C 606.816 943.140, 606.852 942.939, 609.114 941.092 C 612.785 938.092, 610.627 937.047, 603 938.133 C 599.425 938.641, 591.550 939.157, 585.500 939.279 L 574.500 939.500 574.200 935.414 C 573.874 930.952, 575.137 929.210, 579.019 928.768 C 581.017 928.541, 581.386 928.954, 581.438 931.482 C 581.519 935.356, 582.745 935.562, 596.628 934.022 L 607.756 932.788 606.226 928.894 C 604.997 925.764, 604.187 924.999, 602.098 924.993 C 596.208 924.977, 581.854 920.627, 572.218 915.937 C 559.199 909.601, 548.147 899.699, 545.162 891.698 C 542.899 885.631, 542.657 885.511, 537.500 887.897 M 450.500 1016.624 C 437.541 1017.463, 411.903 1020.186, 400.500 1021.935 L 388.500 1023.775 480 1023.767 L 571.500 1023.760 559 1021.910 C 529.292 1017.515, 476.475 1014.941, 450.500 1016.624" stroke="none" fill="#1a1a1a" fill-rule="evenodd"/>
</svg>