<svg xmlns="http://www.w3.org/2000/svg" width="1024" height="1024" viewBox="0 0 1024 1024" version="1.1">
	<path d="M 476.448 24.064 C 433.514 26.808, 394.400 37.019, 356.500 55.378 C 333.584 66.478, 317.044 77.060, 291.396 97.030 C 265.279 117.366, 251.867 122.246, 231.014 119.002 C 217.685 116.929, 214.498 121.405, 218.926 135.981 C 223.185 150.004, 233.488 159.658, 250.273 165.353 C 251.863 165.893, 251.628 166.785, 247.988 174.024 C 239.260 191.383, 237.508 198.488, 237.511 216.500 C 237.513 230.361, 237.835 233.636, 239.916 241 C 245.462 260.627, 254.213 275.982, 268.363 290.912 C 274.834 297.740, 276.927 300.674, 277.772 304.097 C 282.093 321.599, 282.011 353.791, 277.598 372.335 C 267.756 413.701, 274.995 456.679, 295.543 478.873 C 302.676 486.578, 302.609 487.885, 294.663 496.069 C 280.534 510.621, 281.898 528.715, 297.500 533.704 C 300.337 534.611, 300.542 535.039, 301.265 541.582 C 301.685 545.387, 302.706 551.155, 303.532 554.399 C 304.359 557.644, 304.915 560.376, 304.768 560.470 C 304.620 560.565, 302.025 561.190, 299 561.860 C 262.398 569.963, 235.956 618.160, 243.045 663.850 L 244.089 670.584 234.605 684.791 C 198.647 738.654, 193.199 788.288, 219.962 818.192 C 249.245 850.910, 301.239 846.189, 342.340 807.081 L 348.180 801.524 347.578 805.012 C 346.322 812.284, 338.915 870.139, 334.072 910.500 C 331.300 933.600, 328.779 954.369, 328.469 956.654 C 327.870 961.073, 327.958 961.186, 337.897 968.816 L 340.294 970.656 339.134 989.578 C 338.496 999.985, 337.697 1011.987, 337.358 1016.250 L 336.742 1024 340.871 1024 C 343.142 1024, 345 1023.539, 345 1022.976 C 345 1021.142, 349.164 973.503, 349.334 973.390 C 349.426 973.329, 354 974.595, 359.500 976.204 C 443.985 1000.911, 593.781 1001.360, 663.250 977.115 L 669 975.108 669 977.319 C 669 980.358, 671.865 1014.509, 672.559 1019.750 L 673.123 1024 677.561 1024 C 680.003 1024, 681.997 1023.888, 681.994 1023.750 C 681.991 1023.612, 680.866 1013.600, 679.494 1001.500 C 676.251 972.893, 676.228 973.597, 680.552 968.811 C 683.750 965.271, 684.048 964.460, 683.541 960.689 C 682.593 953.649, 679.130 917.571, 677.524 898 C 676.689 887.825, 675.719 876.800, 675.370 873.500 C 673.724 857.954, 675.807 867.845, 693.579 960 L 695.218 968.500 691.033 983.500 C 687.473 996.255, 686.762 1000.408, 686.280 1011.250 L 685.713 1024 690.106 1023.991 L 694.500 1023.982 694.669 1012.741 C 694.856 1000.320, 699.043 981.254, 703.213 973.835 C 705.362 970.010, 705.366 969.915, 703.631 962.739 C 702.668 958.757, 699.415 943.575, 696.401 929 C 686.370 880.484, 671.030 814.665, 666.113 799.043 C 664.995 795.492, 664.192 792.475, 664.327 792.339 C 664.463 792.204, 668.832 791.585, 674.037 790.963 C 696.513 788.281, 722.377 781.578, 745.662 772.400 C 758.754 767.239, 757.641 767.429, 758.261 770.250 C 758.533 771.487, 760.125 778.575, 761.798 786 C 771.792 830.339, 778.945 893.024, 778.985 936.604 L 779 953.708 783.579 963.506 C 791.956 981.433, 796.348 997.368, 798.528 1017.750 L 799.196 1024 803.607 1024 L 808.017 1024 807.412 1018.250 C 805.528 1000.379, 799.255 976.054, 792.861 961.830 L 788.667 952.500 787.921 927 C 786.425 875.821, 779.198 821.312, 767.592 773.672 L 765.198 763.844 771.092 759.267 C 776.712 754.903, 781 749.407, 781 746.567 C 781 745.842, 779.875 742.704, 778.499 739.594 C 777.124 736.485, 773.029 725.291, 769.399 714.720 C 745.593 645.390, 719.305 602.494, 688.198 582.218 C 666.018 567.760, 640.530 557.105, 610.823 549.870 C 589.657 544.716, 589 544.241, 589 534.111 C 589 524.272, 589.873 522.683, 598.227 517.320 C 619.166 503.879, 638.396 485.974, 649.587 469.500 C 655.533 460.746, 655.939 460.360, 657.550 461.921 C 660.312 464.600, 671.496 467.075, 680.830 467.074 C 730.786 467.068, 771.441 414.301, 758.147 366.722 L 756.253 359.944 759.952 355.222 C 774.853 336.204, 787.772 302.850, 792.475 271.257 C 801.469 210.840, 774.471 142.736, 731.953 118.585 L 727.901 116.284 731.160 114.934 C 733.176 114.099, 736.721 113.746, 740.459 114.009 C 752.971 114.890, 766.221 114.207, 767.829 112.599 C 770.833 109.595, 763.105 98.239, 753.852 92.060 C 740.663 83.253, 718.314 81.151, 704 87.371 C 702.719 87.927, 702.551 86.789, 702.850 79.570 C 704.043 50.769, 688.649 29.168, 666.718 28.872 C 657.707 28.750, 657.245 30.844, 663.503 43.453 C 668.224 52.967, 670.953 63.159, 670.983 71.387 L 671 76.274 666.250 71.850 C 630.094 38.178, 554.274 19.089, 476.448 24.064 M 481.500 33.107 C 412.178 36.534, 355.299 58.574, 297.500 104.406 C 272.602 124.149, 260.921 129.368, 242 129.203 C 236.775 129.157, 230.982 128.658, 229.128 128.094 L 225.755 127.069 226.420 131.228 C 228.519 144.352, 243.396 156.060, 261.143 158.554 C 268.484 159.586, 268.494 159.616, 263.514 165.249 C 260.960 168.137, 256.869 174.582, 254.423 179.571 C 241.485 205.959, 241.903 232.887, 255.656 259 C 259.766 266.804, 272.578 285, 273.963 285 C 274.289 285, 274.197 280.387, 273.759 274.750 C 272.005 252.139, 276.037 224.860, 283.265 210.430 C 286.440 204.090, 286.674 203.031, 286.004 198 C 283.450 178.807, 295.087 154.249, 310.694 145.896 C 314.848 143.673, 314.140 145.564, 306.589 156.867 C 296.094 172.576, 294.564 176.842, 294.528 190.500 C 294.499 201.798, 295.431 205.288, 299.583 209.440 C 301.089 210.946, 302.095 210.215, 312.856 199.785 C 338.615 174.820, 365.903 156.951, 384.967 152.564 C 388.891 151.661, 392.037 150.298, 392.967 149.096 C 395.716 145.546, 402.222 141, 404.554 141 C 408.350 141, 407.915 143.225, 402.991 149 C 390.219 163.978, 382.417 181.610, 383.195 193.740 L 383.500 198.500 390.799 198.795 C 417.485 199.873, 460.722 182.198, 488.136 159.004 C 496.879 151.606, 500.214 150.488, 500.820 154.750 C 501.040 156.305, 499.300 159.236, 495.178 164.250 C 483.409 178.566, 476.495 191.482, 478.991 194.489 C 482.371 198.562, 511.627 195.421, 531.160 188.888 C 555.921 180.606, 566.963 174.015, 582.606 158.182 C 594.084 146.564, 596.622 145.729, 593.396 154.630 C 590.846 161.665, 590.278 184.128, 592.416 193.319 C 596.606 211.322, 610.329 231.310, 624.033 239.369 C 627.136 241.193, 627.196 241.193, 626.627 239.369 C 622.463 226.023, 623.526 196.178, 628.648 182.583 C 632.012 173.655, 632.500 175.827, 632.500 199.750 C 632.500 229.664, 634.559 240.070, 647.460 275.352 C 661.308 313.225, 664 324.361, 664 343.774 L 664 355.285 672.750 346.855 C 686.240 333.859, 696.526 328.989, 710.432 329.012 C 724.095 329.035, 736.248 334.332, 746.585 344.772 L 752.842 351.090 756.006 346.492 C 765.312 332.965, 778.231 298.895, 781.963 278.037 C 793.287 214.738, 767.725 148.356, 722.500 123.621 C 715.604 119.849, 709.104 114.234, 711.020 113.704 C 711.834 113.479, 717.900 111.546, 724.500 109.410 C 735.193 105.949, 737.606 105.525, 746.650 105.513 C 758.051 105.498, 758.630 104.779, 751.310 99.724 C 737.152 89.948, 718.243 88.706, 701.344 96.443 C 692.136 100.658, 691.577 100.357, 692.621 91.750 C 695.393 68.894, 691.562 51.700, 681.886 43.558 C 678.839 40.993, 671 36.536, 671 37.367 C 671 37.592, 672.358 40.678, 674.018 44.225 C 679.822 56.627, 681.500 72.267, 678.387 84.936 C 677.500 88.546, 676.431 91.872, 676.011 92.326 C 675.591 92.781, 671.704 89.848, 667.374 85.810 C 637.792 58.222, 598.595 41.460, 549.834 35.546 C 535.559 33.815, 505.574 31.850, 499 32.215 C 496.525 32.352, 488.650 32.754, 481.500 33.107 M 375.237 164.997 C 354.627 174.685, 337.311 187.120, 310.096 211.775 C 300.031 220.893, 299.895 220.921, 293.769 215.209 L 291.037 212.662 288.986 217.299 C 283.815 228.989, 282.645 236.321, 282.651 257 C 282.656 276.351, 282.847 278.243, 287.723 307.250 C 288.985 314.757, 289.444 323.254, 289.438 339 C 289.430 359.880, 289.333 360.904, 286.099 374.500 C 280.719 397.115, 280.702 420.990, 286.050 441.500 C 288.479 450.817, 295.454 466.070, 299.428 470.758 L 302.190 474.015 307.168 464.050 C 326.766 424.821, 375.052 409.385, 414.463 429.751 C 419.800 432.509, 424.100 436.018, 432.259 444.273 C 441.377 453.498, 443.894 455.471, 448.759 457.211 C 456.869 460.112, 471.567 460.745, 481.127 458.605 C 491.366 456.313, 491.198 456.507, 488.875 449.624 C 484.642 437.086, 488.643 428.476, 493.348 440 C 496.911 448.725, 502.328 456.337, 507.874 460.407 C 510.693 462.477, 513 464.596, 513 465.117 C 513 467.544, 507.190 467.283, 500.858 464.572 C 499.573 464.022, 498.820 464.904, 497.398 468.627 C 492.107 482.481, 474.889 501.645, 456.763 513.852 C 443.483 522.796, 441.984 525.200, 445.476 531.953 C 453.065 546.630, 499.601 545.478, 548 529.416 C 569.052 522.429, 599.309 506.439, 614 494.537 C 631.775 480.136, 647.035 460.738, 650.057 448.701 L 651.262 443.902 653.032 446.812 C 656.597 452.674, 666.667 457.473, 677.858 458.643 C 689.960 459.908, 709.676 453.493, 721.630 444.402 C 753.724 419.990, 761.747 370.704, 737.334 347.919 C 717.727 329.619, 688.061 336.109, 670.521 362.535 C 665.936 369.442, 666.267 369.321, 660.190 366.314 L 655 363.745 655 347.780 C 655 328.823, 653.290 319.024, 646.576 299.500 C 644.117 292.350, 639.380 278.625, 636.049 269 L 629.993 251.500 626.528 250.913 C 624.622 250.589, 620.461 248.599, 617.282 246.490 C 597.370 233.282, 582.463 205.817, 581.858 181.224 C 581.747 176.701, 581.530 173, 581.376 173 C 581.222 173, 578.167 175.047, 574.587 177.550 C 558.065 189.100, 527.391 200.786, 505.009 204.059 C 488.790 206.431, 470.865 203.303, 468.726 197.728 C 467.973 195.765, 469.384 189.035, 471.331 185.300 C 472.249 183.539, 473 181.881, 473 181.614 C 473 181.346, 466.137 184.441, 457.750 188.490 C 420.394 206.525, 385.297 212.721, 376.371 202.857 C 372.054 198.086, 374.923 179.370, 381.983 166.250 C 383.536 163.363, 384.513 161.025, 384.154 161.057 C 383.794 161.088, 379.782 162.861, 375.237 164.997 M 343.500 239.977 C 331.896 242.536, 322.091 248.341, 316.640 255.878 C 307.161 268.983, 311.436 274.033, 321.543 261.669 C 331.724 249.214, 338.555 246.444, 356.750 247.393 C 370.635 248.117, 372.241 247.173, 365.129 242.467 C 360.768 239.580, 350.603 238.410, 343.500 239.977 M 527.500 240.118 C 519.026 242.033, 513.960 250.221, 522.262 248.586 C 524.043 248.235, 530.345 247.676, 536.267 247.345 C 546.872 246.751, 547.129 246.789, 553.418 249.885 C 559.720 252.987, 565.980 258.357, 573.197 266.851 C 579.119 273.820, 582.182 270.139, 577.871 261.234 C 570.440 245.883, 546.465 235.833, 527.500 240.118 M 345 315.086 C 331.061 323.211, 329.038 350.090, 341.432 362.485 C 353.162 374.215, 368.561 365.170, 371.051 345.087 C 373.731 323.478, 359.237 306.787, 345 315.086 M 524.838 321.293 C 512.623 330.610, 510.061 356.027, 520.175 367.547 C 533.530 382.757, 553.242 369.960, 553.365 346 C 553.476 324.551, 538.065 311.204, 524.838 321.293 M 712.132 367.078 C 699.161 369.627, 686.540 381.199, 683.896 392.969 C 682.764 398.006, 683.972 401.943, 685.927 399.588 C 687.404 397.808, 693.137 397.468, 695.984 398.992 C 700.796 401.567, 699.249 408.589, 691.465 419.497 C 686.032 427.110, 687.047 428.920, 694.351 424.640 C 705.350 418.195, 710.799 406.313, 706.536 398.069 C 704.701 394.521, 699.634 390.197, 696.341 389.371 L 693.837 388.742 698.168 384.254 C 706.310 375.818, 715.833 373.091, 723.500 377 C 728.221 379.407, 731.317 379.541, 733.429 377.429 C 735.555 375.302, 735.438 374.715, 732.250 371.496 C 727.122 366.319, 721.865 365.165, 712.132 367.078 M 410.759 368.423 C 386.726 377, 390.026 414.066, 414.815 413.985 C 423.429 413.957, 424.638 410.153, 416.670 408.147 C 407.668 405.881, 402.090 397.652, 403.346 388.492 C 404.638 379.063, 410.095 375.350, 421.150 376.377 C 427.771 376.993, 427.976 376.942, 428.574 374.562 C 430.098 368.490, 420.163 365.067, 410.759 368.423 M 365.763 429.965 C 338.011 435.037, 314.167 457.297, 309.996 482.025 C 309.326 485.996, 309.015 490.703, 309.304 492.486 C 309.777 495.403, 309.461 495.934, 306.149 497.796 C 297.159 502.849, 290.822 513.458, 292.589 520.499 C 294.198 526.909, 305.637 528.978, 316.660 524.854 L 322.395 522.709 323.900 525.104 C 326.686 529.539, 334.253 535.996, 337.969 537.109 C 342.831 538.565, 350.694 536.934, 357.910 532.971 C 364.573 529.311, 364.690 529.311, 365.494 532.974 C 366.348 536.859, 373.972 545.284, 378.639 547.499 C 385.289 550.654, 396.384 547.692, 403.609 540.832 L 406.719 537.880 407.312 541.533 C 408.615 549.567, 418.723 558, 427.048 558 C 432.898 558, 437.381 555.130, 441.107 549 C 444.569 543.305, 444.600 542.259, 441.374 539.723 C 438.279 537.288, 435.053 530.666, 435.022 526.684 C 434.994 523.149, 436.396 520.392, 440.334 516.232 C 443.405 512.988, 443.430 512.869, 443.825 500.192 C 444.122 490.662, 443.813 485.781, 442.607 480.960 C 436.841 457.923, 418.944 438.936, 396.500 432.047 C 388.638 429.633, 373.271 428.592, 365.763 429.965 M 449.759 473.194 C 451.800 480.001, 452.272 483.800, 452.375 494.246 C 452.444 501.256, 452.742 506.994, 453.038 506.996 C 454.707 507.008, 470.888 492.832, 474.594 488.110 C 478.997 482.499, 484.165 473.504, 485.484 469.156 L 486.195 466.811 478.847 467.482 C 472.211 468.089, 451.993 466.702, 448.625 465.409 C 447.625 465.026, 447.923 467.073, 449.759 473.194 M 568 531.104 C 536.813 543.019, 497.041 551.034, 474.984 549.850 L 468.469 549.500 468.663 557.735 C 468.888 567.240, 468.358 568.027, 464.466 563.964 C 459.988 559.290, 457.452 560.218, 453.434 568 C 450.753 573.193, 450.897 584.269, 453.715 589.595 C 459.953 601.381, 474.479 607.035, 494.848 605.603 C 531.993 602.992, 565.422 585.462, 584.498 558.590 L 589.404 551.680 586.952 550.090 C 580.387 545.833, 577.637 538.480, 579.477 530.104 C 580.317 526.278, 580.727 526.243, 568 531.104 M 311.750 535.080 C 309.859 536.181, 309.418 542.474, 310.618 551.229 C 311.229 555.688, 311.267 555.726, 314.043 554.678 C 317.699 553.298, 324.200 554.327, 359.567 561.888 C 404.684 571.532, 405.828 571.594, 410.091 564.601 L 411.859 561.703 407.322 556.447 L 402.784 551.192 397.642 553.586 C 386.225 558.902, 374.041 556.202, 365.048 546.363 L 360.098 540.946 354.080 542.973 C 342.651 546.823, 334.295 545.401, 324.293 537.903 C 319 533.936, 315.188 533.078, 311.750 535.080 M 450 553.733 C 448.625 553.986, 444.981 556.592, 441.902 559.523 C 435.721 565.407, 432.440 566.533, 423.611 565.801 L 418.315 565.362 414.235 573.931 C 411.991 578.644, 408.689 585.039, 406.898 588.142 L 403.641 593.785 406.223 596.853 C 410.727 602.206, 412.306 607.956, 411.817 617.226 C 410.866 635.251, 400.717 647.020, 380.088 654.018 L 372.513 656.588 362.682 675.544 C 357.276 685.970, 349.887 699.450, 346.263 705.500 C 342.639 711.550, 339.711 717.175, 339.756 718 C 339.802 718.825, 339.154 721.813, 338.317 724.640 L 336.796 729.780 345.560 743.394 C 350.380 750.882, 354.449 756.884, 354.602 756.731 C 355.043 756.290, 360.843 718.861, 362.967 702.752 C 364.032 694.669, 365.657 686.617, 366.589 684.798 C 369.546 679.027, 372 678.862, 372 684.435 C 372 687.777, 359.318 784.206, 358.511 787 C 357.107 791.861, 338 950.759, 338 957.573 C 338 963.522, 390.505 976.379, 435.500 981.448 C 465.300 984.806, 479.310 985.474, 518.500 985.411 C 568.683 985.330, 597.755 982.867, 630.334 975.935 C 654.379 970.820, 676 963.850, 676 961.215 C 676 960.722, 675.127 951.585, 674.061 940.909 C 671.125 911.524, 669.182 886.750, 667.991 863.500 C 666.276 830.028, 664.512 818.260, 658.462 799.948 L 655.968 792.396 646.234 791.285 C 634.077 789.896, 630.376 788.149, 629.081 783.188 C 626.530 773.409, 623.623 749.794, 619.517 705.500 C 616.117 668.826, 616.195 667, 621.161 667 C 623.635 667, 624.527 671.150, 626.968 694 C 629.088 713.846, 634.155 756.945, 636.088 771.566 C 637.555 782.667, 637.209 782.357, 648.690 782.818 C 666.734 783.543, 696.810 778.811, 721.500 771.362 C 742.349 765.071, 770 752.109, 770 748.626 C 770 746.391, 763.270 722.961, 759.193 711 C 743.775 665.771, 718.526 620.945, 697.061 600.696 C 679.406 584.042, 650.328 569.093, 616.836 559.453 C 596.939 553.726, 598.172 553.612, 593.002 561.654 C 580.588 580.966, 553.514 600.223, 528.649 607.429 C 488.089 619.183, 455.296 613.613, 445.348 593.280 C 439.792 581.922, 443.303 564.447, 452.560 557.386 C 457.764 553.417, 457.072 552.430, 450 553.733 M 331.500 565.086 C 344.664 571.977, 349.699 581.654, 346.515 593.942 C 344.593 601.358, 344.592 601.336, 347.119 602.513 C 350.130 603.915, 353.911 613.410, 353.960 619.689 L 354 624.879 358.506 623.343 C 368.616 619.898, 393.267 599.653, 394.546 593.744 C 394.932 591.960, 396.554 587.903, 398.149 584.728 C 400.255 580.539, 400.701 578.842, 399.775 578.537 C 399.074 578.307, 387.475 575.808, 374 572.985 C 360.525 570.161, 345 566.739, 339.500 565.379 C 334 564.019, 328.600 562.690, 327.500 562.426 C 326.400 562.161, 328.200 563.358, 331.500 565.086 M 297.798 570.931 C 278.350 577.149, 262.192 596.019, 254.323 621.703 C 250.140 635.358, 250.316 660.543, 254.710 677 C 256.399 683.325, 257.486 688.822, 257.125 689.215 C 256.765 689.608, 254.677 688.168, 252.485 686.014 C 250.293 683.860, 248.208 682.076, 247.851 682.049 C 246.549 681.951, 231.992 704.773, 227.084 714.607 C 216.744 735.327, 211.189 758.250, 212.324 775.519 C 215.935 830.495, 274.301 849.973, 323.042 812.468 C 339.737 799.621, 349.018 787.822, 349.795 778.458 C 350.616 768.559, 343.132 750.529, 332.319 736.351 L 329.635 732.833 327.840 735.166 C 326.450 736.973, 326.039 739.373, 326.022 745.787 C 325.995 756.091, 321.903 775.163, 317.901 783.641 C 314.486 790.875, 307.289 799.221, 301.054 803.178 C 294.894 807.088, 288.839 806.837, 293.673 802.872 C 294.594 802.118, 298.044 798.125, 301.340 794 C 311.813 780.895, 317.943 764.748, 317.983 750.161 L 318 743.822 314.923 746.411 C 308.422 751.881, 305.488 749.678, 303.210 737.615 L 301.616 729.169 297.081 728.490 C 291.808 727.699, 286.299 725.096, 283.614 722.127 C 280.896 719.122, 283.124 718.558, 292.681 719.835 C 302.109 721.095, 302 721.158, 302 714.408 C 302 707.754, 297.981 698.753, 295.215 699.214 C 294.004 699.416, 293.408 698.706, 293.189 696.802 C 292.688 692.463, 299.529 689.642, 323 684.509 C 338.354 681.151, 340 680.427, 340 677.034 C 340 668.598, 316.568 662.635, 297.342 666.177 C 289.303 667.658, 287.310 666.454, 291.063 662.384 C 298.112 654.742, 322.519 653.728, 333.268 660.632 C 337.695 663.476, 339.930 662.803, 343.050 657.686 C 348.473 648.792, 342.611 641.144, 326.493 636.087 C 313.139 631.898, 304.780 631.320, 294.500 633.875 C 285.745 636.051, 283.774 635.520, 286.300 631.666 C 289.376 626.971, 296.365 624.584, 308.278 624.160 C 320.638 623.721, 325.980 624.775, 332.875 629.018 C 335.540 630.658, 338.006 632, 338.354 632 C 340.276 632, 345 623.388, 345 619.885 C 345 606.329, 315.704 596.934, 292.747 603.129 C 282.679 605.845, 280.551 604.665, 286.181 599.486 C 295.117 591.265, 312.659 589.798, 327.374 596.041 C 334.977 599.266, 335.295 599.317, 336.624 597.500 C 338.222 595.314, 338.446 587.303, 337.014 583.538 C 334.944 578.091, 327.212 571.211, 321.877 570.067 C 314.536 568.493, 304.272 568.861, 297.798 570.931 M 362 582.253 C 362 584.592, 361.100 589.654, 360 593.500 C 357.337 602.811, 357.400 602.992, 361.792 598.703 C 366.122 594.475, 367.755 594.252, 373.922 597.050 C 376.411 598.179, 378.722 598.678, 379.209 598.191 C 380.500 596.900, 378.415 592.293, 375.941 590.969 C 374.264 590.071, 373.911 589.197, 374.345 587.026 C 375.060 583.452, 374.521 582.990, 370.861 584.040 C 368.135 584.822, 367.693 584.594, 365.837 581.449 C 363.131 576.863, 362 577.100, 362 582.253 M 388.239 624.506 C 382.607 635.785, 378 645.243, 378 645.525 C 378 646.530, 383.567 644.725, 387.651 642.398 C 400.145 635.276, 406.236 619.727, 401.027 608.250 C 399.966 605.913, 398.958 604, 398.788 604 C 398.617 604, 393.870 613.228, 388.239 624.506 M 379.010 621.191 C 375.311 624.189, 368.585 627.391, 358.552 630.928 C 346.524 635.169, 346.486 635.213, 350.153 640.415 C 355.352 647.791, 354.796 655.184, 348.412 663.547 C 345.138 667.837, 345.053 668.168, 346.161 672.312 C 348.239 680.080, 344.453 686.134, 335.342 689.613 C 331.671 691.016, 331.058 691.695, 330.503 694.982 C 329.339 701.872, 333.902 708.986, 337.545 705.963 C 338.381 705.269, 345.153 692.281, 352.594 677.101 C 360.035 661.920, 369.744 642.837, 374.171 634.693 C 378.597 626.548, 382.057 619.725, 381.859 619.529 C 381.662 619.333, 380.379 620.081, 379.010 621.191 M 315.762 701.034 L 311.182 704.068 310.475 713.488 C 309.722 723.539, 310.125 736.458, 311.227 737.560 C 313.099 739.433, 327.067 726.638, 330.591 719.823 C 332.050 717.002, 331.991 716.753, 329.061 713.416 C 325.374 709.217, 322 702.825, 322 700.040 C 322 697.321, 321.167 697.454, 315.762 701.034 M 720.064 1011.332 C 719.576 1012.614, 718.487 1015.989, 717.643 1018.832 L 716.108 1024 723.554 1024 C 728.041 1024, 731 1023.587, 731 1022.960 C 731 1021.252, 726.928 1013.668, 724.713 1011.250 C 722.104 1008.402, 721.172 1008.419, 720.064 1011.332" stroke="none" fill="#1a1a1a" fill-rule="evenodd"/>
</svg>