<svg xmlns="http://www.w3.org/2000/svg" width="1024" height="1024" viewBox="0 0 1024 1024" version="1.1">
	<path d="M 465.500 43.078 C 414.053 46.452, 365.154 68.730, 324.097 107.500 C 287.799 141.777, 265.045 189.015, 277.629 203.971 C 279.666 206.392, 280.962 207, 284.089 207 C 286.240 207, 288 207.147, 288 207.328 C 288 207.508, 286.921 210.320, 285.601 213.578 C 272.093 246.932, 278.148 289.830, 299.350 310.981 L 303.842 315.462 299.210 317.981 C 274.483 331.429, 283.194 383.340, 313.561 403.497 C 320.113 407.846, 328.065 410.825, 335.728 411.801 L 341.216 412.500 344.450 421.561 C 355.593 452.788, 384.073 480.015, 421.752 495.462 L 427.005 497.616 418.893 500.354 C 388.461 510.626, 367.505 524.868, 338 555.329 C 328.375 565.266, 314.159 579.884, 306.409 587.815 L 292.319 602.233 289.050 594.124 C 284.955 583.966, 280.926 580, 274.700 580 C 266.098 580, 259 586.567, 259 594.525 C 259 598.197, 265.177 618.308, 269.435 628.498 C 270.791 631.744, 270.762 631.810, 265.827 636.635 C 239.701 662.184, 224 691.472, 224 714.660 L 224 723 155.200 723 C 83.473 723, 84 722.969, 84 727.165 C 84 730.873, 86.407 731, 156.905 731 L 225.941 731 228.516 736.442 C 229.932 739.435, 233.107 744.128, 235.572 746.869 L 240.054 751.854 233.178 761.677 C 226.175 771.682, 175.057 848.328, 169.212 857.588 C 167.445 860.386, 166 863.436, 166 864.366 C 166 865.296, 164.650 868.731, 163 872 C 156.835 884.213, 159.859 885.521, 188.500 883.024 C 264.898 876.364, 319.753 877.425, 378 886.691 C 393.370 889.136, 394.879 889.571, 400.041 893.053 C 409.846 899.667, 415.322 900.038, 426.868 894.869 C 432.962 892.141, 434.249 891.971, 456.868 890.894 C 502.359 888.728, 551.988 892.819, 622.431 904.539 C 637.242 907.004, 650.169 908.764, 651.156 908.451 C 652.369 908.065, 653.609 905.550, 654.982 900.690 C 659.550 884.524, 660.022 883.355, 663.143 880.448 C 665.105 878.620, 666.081 878.141, 665.710 879.187 C 660.663 893.409, 661.876 911.269, 668.166 915.363 C 669.450 916.198, 684.675 919.809, 702 923.386 C 731.681 929.515, 804.629 945.011, 830.035 950.584 C 839.307 952.618, 842.136 952.899, 844.456 952.017 C 846.072 951.402, 861.904 936.080, 880.422 917.210 C 944.044 852.376, 939.991 857.096, 938.565 849.493 C 937.984 846.395, 937.559 846, 934.812 846 L 931.715 846 932.278 832.972 C 932.830 820.197, 932.901 819.877, 935.921 816.438 C 940.603 811.104, 939.533 808.095, 932.216 806.023 C 917.606 801.886, 838.072 788.527, 795.500 783.059 C 776.175 780.577, 770.689 780.465, 768.985 782.518 C 768.292 783.353, 758.674 791.316, 747.613 800.213 C 736.551 809.111, 714.273 827.440, 698.108 840.945 C 681.942 854.450, 667.454 866.525, 665.913 867.779 L 663.111 870.058 664.984 863.279 C 668.527 850.449, 686.324 782.491, 687.885 775.832 L 689.448 769.165 697.474 768.025 C 739.233 762.093, 764.098 751.089, 771.854 735.109 L 773.500 731.718 797.500 732.342 C 866.741 734.144, 946.471 734.343, 947.819 732.718 C 948.796 731.541, 948.863 730.612, 948.077 729.143 C 946.737 726.640, 944.775 726.541, 890 726.237 C 867.175 726.111, 832.300 725.718, 812.500 725.364 L 776.500 724.720 776.497 710.110 C 776.493 693.639, 775.031 684.978, 769.387 668.017 C 767.207 661.465, 766.301 657.400, 766.971 657.176 C 768.788 656.571, 771 651.283, 771 647.545 C 771 643.219, 764.598 630.682, 749.606 605.648 C 704.582 530.468, 672.603 502.793, 614.750 488.941 C 604.886 486.579, 603.318 485.669, 607.067 484.479 C 611.925 482.937, 628.106 470.908, 637.522 461.839 C 653.641 446.313, 664.452 429.638, 670.987 410.220 L 673.922 401.500 682.211 401.830 C 714.778 403.125, 741.238 375.672, 742.770 339 C 743.687 317.036, 736.911 301.348, 724.243 296.101 C 720.294 294.465, 720.271 295.551, 724.531 282.946 C 739.010 240.111, 736.623 191.006, 718.049 149.608 C 702.924 115.899, 664.930 89.597, 631.253 89.523 C 625.618 89.510, 621.005 89.314, 621.003 89.088 C 620.975 85.572, 632.268 73.470, 639.500 69.266 C 644.700 66.244, 645.882 63.590, 642.875 61.693 C 639.218 59.386, 625.909 68.978, 619.930 78.229 L 616.137 84.098 615.490 79.299 C 613.361 63.515, 605.576 49.857, 595.666 44.519 C 587.926 40.351, 586.851 45.367, 594.020 52.205 C 603.532 61.277, 608.111 71.336, 609.506 86.220 C 610.588 97.770, 610.149 97.497, 627.669 97.499 C 642.128 97.500, 642.755 97.590, 652.658 101.085 C 684.221 112.222, 705.871 135.146, 717.142 169.362 C 729.397 206.563, 728.839 251.635, 715.697 286 C 713.363 292.104, 712.987 292.537, 709.527 293.105 C 706.134 293.663, 705.891 293.544, 706.456 291.605 C 710.441 277.933, 712.102 243.769, 709.239 234.353 C 707.069 227.216, 701.393 227.248, 702.391 234.392 C 704.935 252.604, 704.074 270.943, 699.870 288.086 C 697.949 295.921, 697.470 296.831, 694.387 298.491 C 690.997 300.317, 681.939 309.323, 678.789 314 L 677.105 316.500 677.052 311.743 C 676.987 305.826, 674.862 291.460, 670.878 270 C 668.243 255.808, 667.967 252.825, 668.907 248.674 C 670.310 242.479, 670.301 233.530, 668.885 226.799 C 666.901 217.365, 660.589 206.304, 657.732 207.256 C 654.726 208.258, 654.739 210.790, 657.784 216.883 C 661.660 224.640, 663.327 232.528, 662.809 240.665 C 662.255 249.361, 661.305 250.056, 654.524 246.731 C 637.875 238.566, 616.048 207.717, 607.553 180.345 C 601.887 162.088, 602.072 163.071, 603.599 159.417 C 605.546 154.758, 605.426 149.101, 603.364 148.309 C 600.642 147.265, 598.983 149.160, 596.078 156.628 C 584.109 187.398, 559.169 214.081, 531.285 225.946 C 522.485 229.691, 517.125 230.606, 514.676 228.779 C 512.210 226.940, 513.219 224.767, 523.864 209 C 538.518 187.293, 543.389 174.500, 537 174.500 C 534.842 174.500, 533.748 175.935, 528.995 185 C 525.967 190.775, 521.934 197.750, 520.033 200.500 C 510.267 214.622, 491.121 227.866, 469.500 235.455 C 460.153 238.736, 457.939 241.044, 461.392 243.911 C 464.677 246.637, 484.366 239.385, 498 230.428 C 502.675 227.357, 506.743 224.686, 507.041 224.492 C 507.339 224.299, 507.397 225.725, 507.171 227.662 C 505.977 237.892, 514.792 240.357, 531 234.324 C 555.001 225.391, 578.481 205.158, 593.126 180.790 C 595.807 176.330, 598 173.483, 598 174.464 C 598 182.518, 611.964 213.070, 622.263 227.549 C 633.010 242.658, 650.700 257, 658.589 257 C 660.528 257, 661.009 257.764, 661.896 262.250 C 664.889 277.393, 667.105 290.791, 668.471 302 C 670.778 320.938, 670.798 321.042, 672.477 323.606 C 675.303 327.919, 678.249 326.758, 683.931 319.093 C 694.075 305.410, 700.003 301.573, 711.069 301.530 C 726.862 301.468, 735.019 312.860, 734.985 334.932 C 734.947 359.776, 723.437 379.819, 703.612 389.563 C 696.374 393.121, 694.903 393.473, 685.750 393.841 L 675.776 394.242 676.464 388.307 C 677.734 377.372, 671.598 376.771, 669.181 387.593 C 659.452 431.165, 633.261 463.463, 591.923 482.869 C 513.537 519.665, 412.093 503.115, 366.781 446.138 C 351.499 426.922, 345.753 406.678, 338.074 345 C 328.998 272.093, 331.481 249.676, 351.669 222.260 C 357.154 214.811, 358.169 211.663, 355.428 210.611 C 352.904 209.642, 350.465 211.552, 344.521 219.149 C 332.831 234.088, 326.873 251.682, 325.563 275.129 C 324.988 285.428, 326.382 315.688, 327.668 320.811 C 328.298 323.323, 328.279 323.319, 324.250 320.080 C 316.027 313.472, 311.074 298.267, 310.087 276.605 C 309.599 265.874, 309.209 263.527, 307.769 262.622 C 306.428 261.779, 305.638 261.933, 304.269 263.303 C 300.608 266.963, 303.201 297.209, 308.041 307.305 C 308.619 308.512, 306.572 306.812, 303.491 303.527 C 286.233 285.126, 281.540 252.071, 291.703 220.500 C 297.024 203.971, 304.318 192.593, 319.601 176.981 C 331.188 165.144, 333.091 161.798, 328.978 160.493 C 324.869 159.189, 304.798 179.246, 295.440 194.008 C 292.271 199.007, 289.404 202.654, 289.069 202.111 C 288.734 201.569, 287.244 200.663, 285.758 200.098 C 280.638 198.151, 281.107 187.334, 286.951 172.625 C 305.652 125.547, 362.974 76.498, 419.619 59.106 C 478.062 41.161, 546.831 50.579, 583.012 81.484 C 590.198 87.621, 594.213 88.529, 594.832 84.157 C 595.461 79.716, 580.594 67.749, 564.334 59.607 C 538.049 46.447, 503.145 40.610, 465.500 43.078 M 442.574 140.433 C 404.148 163.511, 374.911 203.151, 379.894 225.415 C 384.550 246.222, 402.374 249.440, 431.500 234.731 C 449.455 225.663, 463.323 214.036, 475.559 197.792 C 482.828 188.143, 484.841 184.170, 483.535 182.057 C 481.814 179.271, 478.710 181.550, 470.012 191.986 C 450.922 214.889, 429.814 229.711, 409.268 234.642 C 390.193 239.220, 382.033 226.748, 390.527 206 C 398.489 186.549, 418.336 165.108, 443.732 148.521 C 456.883 139.932, 459.482 137.698, 458.699 135.658 C 457.557 132.681, 453.462 133.894, 442.574 140.433 M 574 254.640 C 565.975 257.866, 563.401 260.275, 564.611 263.428 C 565.368 265.401, 567.743 265.423, 572.346 263.500 C 580.529 260.081, 591.721 262.526, 599.919 269.524 C 605.734 274.487, 609.268 275.129, 609.810 271.320 C 610.280 268.023, 603.766 261.503, 596.362 257.858 C 589.998 254.724, 578.062 253.007, 574 254.640 M 407.871 266.041 C 394.771 268.187, 381.012 280.019, 382.168 288.145 C 382.585 291.076, 385.385 291.697, 387.428 289.311 C 400.418 274.142, 402.162 273.408, 423 274.343 C 426.109 274.482, 426.500 274.220, 426.500 272 C 426.500 267.507, 417.162 264.520, 407.871 266.041 M 580.021 322.116 C 568.072 326.883, 565.437 348.370, 575.559 358.492 C 582.284 365.217, 590.423 362.417, 594.986 351.811 C 601.330 337.063, 591.491 317.539, 580.021 322.116 M 305.500 323.733 C 301.513 324.731, 297.694 328.427, 295.343 333.562 C 283.769 358.843, 306.539 399.823, 334.273 403.624 C 339.860 404.390, 339.687 405.128, 337.109 391.498 C 336.068 385.999, 334.664 377.410, 333.989 372.412 C 332.802 363.634, 332.679 363.339, 330.378 363.779 C 328.430 364.151, 327.739 363.620, 326.589 360.867 C 323.334 353.077, 319.248 349.872, 311.510 349.038 C 303.572 348.182, 304.138 342, 312.155 342 C 319.117 342, 325.464 345.550, 329.139 351.500 C 331.435 355.216, 331.544 353.864, 329.880 342.291 C 328.943 335.772, 328.249 333.955, 325.630 331.161 C 319.853 324.997, 312.009 322.103, 305.500 323.733 M 701.941 327.816 C 691.181 334.655, 682.882 350.842, 689.642 351.805 C 691.216 352.030, 692.142 351.301, 693.136 349.055 C 694.574 345.807, 694.871 345.610, 696.600 346.765 C 699.209 348.507, 700.151 352.014, 698.970 355.590 C 696.790 362.197, 701.444 364.909, 704.574 358.856 C 707.784 352.649, 706.048 344.493, 700.810 341.177 L 697.839 339.296 701.848 336.120 C 704.054 334.373, 707.577 332.349, 709.679 331.622 C 712.678 330.583, 713.500 329.782, 713.500 327.899 C 713.500 324.138, 707.792 324.097, 701.941 327.816 M 416 329.702 C 410.704 331.622, 405 341.438, 405 348.632 C 405 360.083, 412.029 370, 420.146 370 C 425.847 370, 428.650 367.948, 431.597 361.618 C 438.757 346.243, 428.465 325.183, 416 329.702 M 490.030 364.113 C 476.242 369.615, 471.466 389.172, 481.298 399.869 C 487.288 406.386, 502.856 409.399, 508.139 405.063 C 512.218 401.716, 509.721 399.607, 500.896 398.946 C 496.828 398.641, 492.536 397.863, 491.358 397.218 C 478.409 390.128, 483.579 372.056, 499.099 370.158 C 504.780 369.463, 506.471 367.477, 503.960 364.452 C 502.567 362.773, 493.914 362.563, 490.030 364.113 M 552 424.685 C 544.612 438.738, 524.640 449.938, 506.886 449.985 C 492.390 450.023, 477.644 443.841, 468.727 433.988 C 463.004 427.663, 460.747 426.736, 459.005 429.991 C 457.483 432.835, 459.701 436.612, 466.595 442.913 C 489.121 463.500, 527.736 462.408, 549.612 440.564 C 559.475 430.716, 563.037 420.904, 557 420.215 C 554.919 419.977, 554.081 420.727, 552 424.685 M 588.876 493.234 L 584.253 495.265 583.737 501.686 C 583.079 509.887, 578.699 518.980, 571.740 526.594 C 549.726 550.681, 504.099 553.284, 481.333 531.753 C 476.018 526.727, 469 514.822, 469 510.834 C 469 508.780, 468.424 508.476, 462.750 507.533 L 459 506.909 459.017 511.205 C 459.111 534.416, 473.615 551.763, 499.500 559.622 C 509.082 562.531, 534.823 562.249, 545.500 559.118 C 574.388 550.646, 595.325 530.235, 600.501 505.500 C 602.902 494.025, 603.047 494.390, 595 491.704 C 594.175 491.428, 591.419 492.117, 588.876 493.234 M 608 500.159 C 608 523.327, 586.299 550.743, 559.073 561.970 C 546.975 566.959, 527.548 570.590, 518.333 569.584 C 505.087 568.139, 501.911 567.600, 496.036 565.803 C 469.293 557.619, 453 537.635, 453 513.018 L 453 505.457 446.758 503.831 C 439.775 502.012, 434.163 503.127, 415 510.145 C 385.506 520.947, 371.173 531.883, 326.291 577.826 L 296.083 608.749 306.678 613.901 C 334.323 627.341, 352.215 644.082, 362.372 666.010 L 365.609 672.999 368.646 669.749 C 370.316 667.962, 373.734 663.800, 376.242 660.500 C 378.749 657.200, 382.420 652.949, 384.400 651.054 L 388 647.608 388.015 637.054 C 388.061 605.896, 393.650 560.116, 397.592 558.603 C 402.432 556.746, 402.768 559.183, 400.026 576.228 C 396.682 597.006, 394.718 634.459, 393.624 698.250 L 393.200 723 462.672 723 L 532.144 723 536.458 720.472 C 550.542 712.218, 568.856 708.770, 597 709.074 L 616.500 709.284 634 701.109 C 643.625 696.613, 653.181 692.191, 655.236 691.281 C 658.524 689.826, 658.804 689.439, 657.570 688.064 C 655.619 685.888, 653.630 680.585, 649.095 665.473 C 641.531 640.262, 637 611.971, 637 589.947 C 637 577.624, 637.975 574.466, 641.566 575.152 C 643.274 575.479, 643.527 576.513, 643.733 584.011 C 644.599 615.575, 647.821 634.737, 658.665 672.811 L 660.177 678.122 665.339 673.264 C 684.432 655.290, 726.108 639.184, 751.019 640.151 C 755.959 640.343, 760.001 640.350, 760.001 640.166 C 760 639.560, 742.757 609.660, 737.702 601.500 C 704.500 547.896, 680.367 523.359, 645.500 507.754 C 637.436 504.145, 617.827 497.621, 611.446 496.424 L 608 495.777 608 500.159 M 572 499.640 C 548.426 507.197, 527.777 510.246, 499.261 510.382 C 476.494 510.490, 476.034 510.533, 476.637 512.496 C 477.993 516.907, 480.485 520.615, 485.373 525.497 C 509.303 549.394, 561.811 540.023, 574.529 509.585 C 576.326 505.284, 577.991 497.969, 577.144 498.099 C 576.790 498.153, 574.475 498.847, 572 499.640 M 269.216 587.985 C 267.410 589.100, 265.659 590.725, 265.325 591.596 C 264.877 592.764, 269.167 607.854, 270.485 609.744 C 270.578 609.878, 273.885 608.553, 277.833 606.799 C 286 603.170, 285.869 603.811, 280.642 593 C 277.049 585.567, 274.762 584.563, 269.216 587.985 M 279.500 613.647 C 276.200 615.058, 273.363 616.339, 273.195 616.495 C 272.747 616.909, 293.346 668.426, 299.781 682.987 C 304.816 694.379, 306.186 696.482, 315.400 706.966 C 326.273 719.337, 331.572 725, 332.276 725 C 332.520 725, 328.105 712.513, 322.466 697.250 C 310.425 664.663, 288.062 610.982, 286.551 611.041 C 285.973 611.064, 282.800 612.236, 279.500 613.647 M 299.282 620.250 C 299.555 620.938, 301.598 625.775, 303.821 631 C 306.044 636.225, 310.788 647.450, 314.364 655.943 C 320.833 671.314, 320.883 671.392, 324.809 672.551 C 326.978 673.192, 331.269 675.079, 334.345 676.745 L 339.936 679.773 342.535 676.366 C 345.666 672.260, 349.019 669.950, 353.052 669.119 L 356.054 668.500 350.993 660.279 C 342.020 645.701, 329.116 634.338, 309.917 624.107 C 299.799 618.715, 298.484 618.238, 299.282 620.250 M 266.508 646.212 C 233.248 682.123, 223.035 715.567, 238.064 739.352 C 241.736 745.162, 241.956 745.069, 241.033 738.091 C 239.817 728.898, 242.115 721.669, 249.007 713 C 250.100 711.625, 251.693 707.804, 252.547 704.510 C 255.297 693.899, 262.309 685.446, 270.910 682.371 C 275.284 680.808, 283.897 680.630, 287.574 682.028 C 291.384 683.477, 291.450 683.005, 288.429 675.858 C 286.950 672.361, 283.060 662.750, 279.783 654.500 C 276.506 646.250, 273.697 639.370, 273.541 639.212 C 273.385 639.054, 270.220 642.204, 266.508 646.212 M 735.500 649.057 C 720.744 651.604, 697.619 660.619, 682.891 669.566 C 676.900 673.205, 676.833 673.297, 677.501 676.876 C 677.874 678.869, 678.270 680.594, 678.382 680.710 C 678.494 680.825, 681.492 680.004, 685.043 678.886 C 705.499 672.444, 723.900 672.377, 724.815 678.740 C 725.201 681.423, 722.330 682.358, 715.955 681.626 C 705.266 680.398, 683.658 686.550, 659.516 697.695 C 651.807 701.253, 639.014 707.118, 631.086 710.727 L 616.672 717.288 604.086 716.687 C 587.337 715.887, 567.950 717.500, 557.329 720.578 C 531.938 727.936, 504.878 750.171, 505.092 763.500 C 505.204 770.437, 506.319 770.394, 510.950 763.275 C 522.536 745.464, 549.464 728.211, 550.817 737.733 C 551.081 739.588, 550.199 740.380, 545.596 742.415 C 524.761 751.629, 503.235 778.589, 512.132 784.326 C 516.232 786.971, 519.401 785.431, 524.855 778.145 C 538.166 760.362, 565.505 743.054, 568.393 750.582 C 569.468 753.383, 569.119 753.722, 561.339 757.416 C 548.029 763.737, 531.635 777.572, 527.039 786.363 C 524.547 791.129, 527.172 794.419, 533.772 794.802 C 540.962 795.219, 545.032 793.025, 553.384 784.233 C 566.011 770.939, 584.236 760.867, 587.525 765.365 C 589.534 768.112, 588.343 769.725, 582.993 771.502 C 572.175 775.095, 553.564 791.305, 554.170 796.605 C 554.974 803.627, 562.328 803.148, 574.793 795.261 C 579.032 792.578, 585.371 789.121, 588.879 787.578 C 595.043 784.866, 598.262 784.244, 617.398 782.064 C 628.525 780.796, 636.885 777.061, 643.839 770.251 L 648.904 765.293 659.202 764.605 C 711.465 761.115, 748.483 751.465, 760.022 738.322 C 773.249 723.257, 771.890 693.592, 756.228 655.500 L 753.350 648.500 746.925 648.347 C 743.391 648.262, 738.250 648.582, 735.500 649.057 M 385.414 660.394 C 384.817 661.038, 382.893 663.575, 381.139 666.032 C 379.386 668.489, 374.712 673.763, 370.754 677.750 C 361.957 686.611, 358.317 687.403, 353.195 681.570 C 350.425 678.414, 350.068 678.274, 348.744 679.820 C 345.627 683.458, 345.803 684.034, 352.073 690.737 C 359.161 698.314, 363.292 706.428, 365.124 716.371 L 366.346 723 376.060 723 L 385.774 723 386.470 697.750 C 387.283 668.270, 387.012 658.673, 385.414 660.394 M 666.873 681.822 C 662.821 685.442, 663.283 687.363, 667.750 685.472 C 670.207 684.432, 671 683.474, 671 681.548 C 671 678.350, 670.740 678.367, 666.873 681.822 M 326.644 686.750 C 335.899 711.202, 341.202 727.210, 341.635 732 C 342.095 737.091, 345.590 747.006, 346.921 746.995 C 348.557 746.982, 354.531 740.077, 356.369 736.074 C 359.344 729.597, 359.234 717.629, 356.128 709.757 C 351.774 698.724, 343.933 690.306, 330.912 682.685 C 324.184 678.748, 323.766 679.146, 326.644 686.750 M 272.384 688.858 C 266.135 691.779, 260.639 699.942, 259.399 708.145 C 258.976 710.937, 257.362 714.313, 254.902 717.550 C 248.128 726.465, 247.822 727.919, 248.843 746.304 C 249.864 764.710, 251.650 770.730, 257.654 776.001 C 262.373 780.144, 272.762 785.362, 269.200 781.800 C 267.545 780.145, 267.694 777.055, 269.462 776.376 C 270.266 776.068, 273.433 777.043, 276.500 778.544 C 283.853 782.141, 294.098 782.998, 300.503 780.552 C 305.404 778.680, 306.396 777, 302.602 777 C 298.754 777, 283.069 768.588, 275.969 762.718 C 268.537 756.573, 265.738 752.847, 266.188 749.701 C 266.725 745.944, 269.398 746.738, 275.551 752.485 C 291.180 767.079, 308.856 774.211, 318.042 769.629 C 319.838 768.733, 321.913 768, 322.654 768 C 324.081 768, 324.472 764.242, 323.235 762.415 C 322.831 761.818, 319.949 760.172, 316.832 758.757 C 307.846 754.680, 299.280 748.365, 288.406 737.800 C 277.045 726.763, 273.849 722.092, 275.936 719.577 C 278.108 716.960, 279.151 717.625, 288.249 727.425 C 312.370 753.407, 337 763.246, 337 746.900 C 337 740.489, 334.265 736.298, 321.235 722.747 C 314.231 715.462, 304.675 705.532, 300 700.679 C 287.179 687.371, 281.117 684.776, 272.384 688.858 M 371.905 730.792 C 365.390 731.081, 365.297 731.125, 364.286 734.420 L 363.262 737.756 386.881 738.274 C 422.389 739.053, 457.089 746.150, 471.473 755.574 C 473.630 756.988, 474.139 756.979, 477.037 755.481 C 482.174 752.824, 487.808 751.069, 494.764 749.958 C 500.813 748.992, 501.590 748.560, 505.882 743.787 C 508.420 740.964, 512.675 736.932, 515.338 734.827 L 520.180 731 470.340 730.940 C 442.928 730.907, 411.050 730.795, 399.500 730.690 C 387.950 730.586, 375.532 730.631, 371.905 730.792 M 354.797 749.329 L 350.093 753.740 352.011 758.788 C 356.308 770.096, 360.747 794.791, 360.980 808.679 C 361.020 811.075, 357.983 813.061, 355.945 811.971 C 350.462 809.036, 336.035 791.025, 330.824 780.610 C 325.910 770.785, 326.400 771.328, 324.220 773.301 C 323.234 774.194, 320.312 775.859, 317.727 777.003 C 315.142 778.146, 312.562 779.949, 311.995 781.010 C 307.334 789.718, 278.856 793.923, 263.853 788.118 C 253.759 784.213, 243 771.399, 243 763.281 C 243 761.887, 242.568 761.149, 241.968 761.520 C 240.517 762.416, 174.845 861.179, 175.359 861.692 C 175.590 861.923, 178.416 861.437, 181.639 860.612 C 219.891 850.822, 293.348 848.023, 340 854.578 C 361.400 857.585, 389.354 865.657, 404.914 873.322 L 411.845 876.737 414.370 871.118 C 417.130 864.978, 430.306 837.760, 452.626 792.091 C 460.532 775.916, 467 762.359, 467 761.964 C 467 760.279, 448.191 753.647, 434.587 750.535 C 418.903 746.947, 408.010 745.837, 384 745.382 L 359.500 744.917 354.797 749.329 M 341.510 755.968 C 340.689 758.554, 335.409 761.991, 332.250 761.996 C 329.331 762.001, 329.157 761.351, 335.457 773.914 L 340.914 784.796 345.207 783.328 C 347.568 782.520, 349.822 781.547, 350.216 781.164 C 351.310 780.100, 344.951 756.812, 342.976 754.649 C 342.548 754.181, 341.889 754.775, 341.510 755.968 M 490.066 758.593 C 483.407 760.382, 473 764.968, 473 766.112 C 473 766.574, 467.473 778.100, 460.718 791.726 C 453.962 805.351, 442.644 828.650, 435.567 843.500 C 428.490 858.350, 422.317 870.928, 421.850 871.450 C 419.859 873.676, 421.447 873.645, 428.750 871.317 C 461.883 860.756, 509.376 859.401, 560.688 867.553 C 586.027 871.579, 618.283 879.460, 630.764 884.675 C 632.663 885.468, 634.373 885.960, 634.566 885.768 C 634.758 885.575, 640.354 865.637, 647.001 841.459 C 653.647 817.282, 660.020 794.350, 661.161 790.500 C 663.491 782.641, 666 773.209, 666 772.308 C 666 771.980, 662.794 772.011, 658.876 772.375 C 652.254 772.990, 651.406 773.349, 646.819 777.473 C 637.861 785.527, 627.261 789.298, 610.053 790.554 C 598.493 791.398, 592.277 793.456, 581.246 800.096 C 569.691 807.050, 565.226 808.952, 560.398 808.978 C 555.732 809.003, 550.082 805.773, 548.500 802.177 C 547.775 800.529, 546.950 800.065, 545.500 800.491 C 538.910 802.427, 533.012 803.225, 529.778 802.618 C 525.684 801.850, 520 796.881, 520 794.070 C 520 792.554, 519.303 792.360, 515.250 792.745 C 508.020 793.432, 502 787.455, 502 779.589 C 502 778.228, 501.044 775.494, 499.875 773.513 C 498.300 770.843, 497.750 768.241, 497.750 763.456 C 497.750 756.273, 498.032 756.451, 490.066 758.593 M 677.500 770.797 L 673.500 771.094 662.583 811.297 C 638.244 900.929, 640.612 894.152, 634.256 892.354 C 576.260 875.946, 539.294 869.985, 495.696 870.010 C 463.552 870.028, 422.961 876.896, 416.435 883.422 C 414.246 885.611, 411.595 885.396, 407.230 882.674 C 389.438 871.577, 349.208 861.743, 310.015 858.909 C 261.075 855.371, 174.061 863.985, 170.061 872.765 C 168.071 877.134, 166.144 877.076, 210.076 873.968 C 274.399 869.418, 320.078 870.575, 371.080 878.046 C 396.886 881.825, 397.873 882.082, 405.061 886.882 C 412.531 891.870, 415.304 892.037, 423.808 888.014 C 439.018 880.819, 504.145 881.083, 566.500 888.593 C 586.913 891.052, 634.047 898.153, 642.883 900.102 C 645.293 900.633, 647.366 900.940, 647.489 900.784 C 648.082 900.032, 682.167 770.815, 681.816 770.649 C 681.642 770.567, 679.700 770.634, 677.500 770.797 M 348.349 789.403 L 345.199 790.500 348.599 794.417 C 352.574 798.995, 352.686 798.945, 352.012 792.903 L 351.500 788.306 348.349 789.403 M 746.100 810.892 C 703.460 845.316, 671.143 872.432, 671.853 873.189 C 672.209 873.568, 678.090 874.830, 684.923 875.992 C 709.269 880.135, 795.879 898.027, 832.915 906.564 C 836.241 907.331, 930.166 813.966, 927.267 812.774 C 925.168 811.912, 890.646 805.326, 866 801.086 C 841.768 796.917, 792.260 789.982, 782 789.319 L 773.500 788.770 746.100 810.892 M 881.443 871.500 C 857.762 895.150, 837.658 915.048, 836.769 915.719 C 834.756 917.235, 833.522 926.324, 834.470 932.647 L 835.168 937.306 878.875 893.903 C 902.914 870.031, 923.145 849.595, 923.832 848.490 C 924.655 847.166, 924.982 843.411, 924.791 837.490 L 924.500 828.500 881.443 871.500 M 882.848 899.750 C 845.503 936.840, 838.176 944.558, 840.044 944.839 C 841.816 945.106, 845.597 941.897, 857.718 929.839 C 892.709 895.030, 931.144 855, 929.574 855 C 928.657 855, 907.631 875.138, 882.848 899.750 M 671.375 883.201 C 670.967 883.862, 670.438 889.150, 670.200 894.951 C 669.610 909.336, 669.231 908.972, 689 912.974 C 710.024 917.229, 779.418 931.864, 806.723 937.801 L 828.946 942.633 828.223 940.066 C 827.403 937.154, 827.241 919.769, 828 916.048 C 828.435 913.914, 828.046 913.495, 825 912.819 C 744.540 894.950, 681.019 882, 673.834 882 C 672.890 882, 671.784 882.541, 671.375 883.201" stroke="none" fill="#1a1a1a" fill-rule="evenodd"/>
</svg>