<svg xmlns="http://www.w3.org/2000/svg" width="1024" height="1024" viewBox="0 0 1024 1024" version="1.1">
	<path d="M 486 21.424 C 443.943 26.808, 406.339 41.520, 363.643 69.294 C 357.672 73.178, 350.697 78.106, 348.143 80.245 C 341.726 85.618, 325.188 93.547, 315.055 96.107 C 300.497 99.786, 290.640 97.973, 283.753 90.352 C 276.822 82.683, 276.029 82, 274.048 82 C 270.722 82, 264.256 88.734, 260.760 95.840 C 251.826 113.996, 259.975 135.801, 280.705 149.207 L 286.976 153.263 282.428 156.148 C 258.211 171.506, 244.191 206.645, 250.467 236.257 C 254.016 253.009, 268.475 270.027, 275.819 266.097 C 277.699 265.091, 277.899 265.474, 279.033 272.262 C 282.359 292.162, 291.154 309.646, 305.474 324.826 L 311.774 331.503 307.916 336.865 C 302.267 344.717, 299.998 351.585, 300.012 360.788 C 300.037 377.289, 305.307 388.502, 320.262 403.883 C 324.934 408.687, 328 412.672, 328 413.941 C 328 418.258, 333.401 437.812, 337.085 446.830 C 344.230 464.325, 355.509 479.235, 369.786 490.062 L 376.071 494.828 370.286 499.256 C 367.104 501.692, 362.647 504.900, 360.383 506.387 L 356.266 509.090 352.883 507.102 C 351.022 506.008, 345.675 504.363, 341 503.445 L 332.500 501.777 332.453 493.139 C 332.382 479.900, 327.226 471.319, 315.687 465.235 C 310.806 462.661, 309.734 462.500, 297.500 462.500 C 290.350 462.500, 283.089 462.816, 281.363 463.202 C 278.433 463.859, 277.580 463.295, 268.363 454.608 C 243.212 430.901, 227.580 418.625, 220.406 416.945 C 204.798 413.288, 191.557 428.390, 196.038 444.736 C 197.401 449.709, 209.350 462.702, 226.407 477.760 L 233.314 483.857 228.504 489.179 C 219.271 499.394, 210.713 515.316, 206.831 529.500 C 203.898 540.214, 203.597 570.752, 206.261 587.276 L 207.999 598.051 204.553 609.776 C 184.823 676.920, 183.873 729.605, 201.848 759.861 C 213.083 778.773, 227.043 789.589, 246.624 794.557 C 272.512 801.123, 301.751 793.776, 338.496 771.471 L 346.164 766.816 352.633 768.101 C 363.032 770.168, 371.162 766.853, 384 755.310 L 389 750.815 389 771.907 C 389 791.357, 388.863 793, 387.244 793 C 370.718 793, 318.139 802.539, 290.259 810.596 L 275.017 815 138.631 815 C -8.928 815, -0.619 814.692, 0.173 820.136 C 0.401 821.700, 1.467 822.631, 3.684 823.202 C 5.435 823.654, 63.110 823.905, 131.851 823.762 C 200.591 823.618, 256.734 823.599, 256.613 823.720 C 256.492 823.842, 253.717 825.356, 250.446 827.085 C 220.944 842.686, 204.681 866.302, 208.163 888.490 C 212.203 914.231, 242.032 939.095, 286.188 953.527 C 296.736 956.974, 301.970 959.329, 308.404 963.523 C 351.004 991.291, 434.837 1003.060, 511.513 992.036 C 550.038 986.496, 584.954 974.449, 602.094 960.781 C 604.234 959.075, 611.115 956.072, 619.094 953.362 C 644.232 944.824, 665.898 932.191, 680.530 917.541 C 700.274 897.772, 702.975 876.032, 688.390 854.282 C 685.975 850.681, 684 847.345, 684 846.868 C 684 845.291, 687.827 845.965, 691.639 848.214 C 696.113 850.854, 704.048 851.159, 708.361 848.856 C 711.170 847.356, 711.470 847.470, 724.685 855.071 C 755.088 872.557, 776.341 878.065, 791.986 872.514 C 806.430 867.389, 810.576 849.158, 799.598 839.044 L 796.932 836.587 803.093 835.331 C 808.622 834.203, 822.146 828.654, 827.576 825.286 C 829.223 824.264, 849.338 823.947, 925.076 823.749 C 1028.498 823.479, 1025 823.673, 1025 818.200 C 1025 816.925, 1024.581 816.141, 1024.069 816.457 C 1023.557 816.774, 1022.856 816.575, 1022.510 816.016 C 1022.092 815.340, 990.944 815, 929.334 815 C 846.488 815, 836.848 814.839, 837.376 813.463 C 840.637 804.965, 841.458 799.699, 841.423 787.500 C 841.375 770.443, 838.171 758.525, 826.580 732.280 L 822.949 724.060 825.654 718.887 C 827.186 715.958, 828.544 711.489, 828.785 708.585 C 829.277 702.648, 825.505 695.012, 809.478 669.500 C 755.287 583.242, 725.163 556.325, 658.381 534.489 C 647.789 531.025, 629.492 526.471, 618.609 524.589 C 608.163 522.782, 609.158 523.433, 608.402 517.913 C 607.803 513.543, 607.850 513.453, 611.957 511.144 C 634.955 498.219, 661.432 470.841, 678.165 442.686 C 682.639 435.157, 683.702 433.968, 685.452 434.528 C 695.311 437.683, 697.967 438.102, 704.798 437.577 C 735.856 435.194, 761.271 410.510, 768.414 375.792 C 772.364 356.595, 767.953 338.348, 756.370 325.965 L 751.897 321.183 755.024 314.341 C 781.048 257.397, 784.238 194.725, 763.261 152.500 C 742.367 110.443, 701.900 87.561, 673.227 101.590 C 665.670 105.287, 667.287 106.026, 685.133 107.036 C 702.410 108.013, 705.717 108.743, 715.116 113.651 C 746.224 129.898, 767.970 172.109, 767.994 216.289 C 768.009 244.200, 762.212 271.855, 749.744 303.341 L 744.660 316.182 741.580 315.362 C 733.752 313.277, 721.788 314.332, 714.974 317.708 C 707.705 321.310, 699.590 328.038, 694.548 334.641 L 691.176 339.057 690.507 331.279 C 688.891 312.468, 680.200 272.298, 674.785 258.612 L 673.643 255.723 671.821 257.972 C 669.497 260.843, 669.531 264.046, 672.036 277.956 C 673.155 284.174, 673.901 289.432, 673.694 289.640 C 672.813 290.520, 660.458 283.232, 654.501 278.318 C 638.749 265.325, 628.984 247.167, 623.245 220.195 C 622.005 214.368, 621.574 206.412, 621.468 187.420 C 621.295 156.475, 621.155 156.129, 612.309 164.791 C 599.345 177.486, 554.236 194.985, 524 199.049 C 514.596 200.313, 482.998 201.801, 482.999 200.980 C 483 200.694, 487.322 196.194, 492.605 190.980 C 504.889 178.857, 510 172.487, 510 169.303 C 510 166.333, 509.224 166.506, 501.021 171.299 C 493.885 175.467, 473.216 196.039, 464.647 207.500 C 457.436 217.145, 449.232 232.417, 446.349 241.563 L 444.576 247.188 440.538 246.555 C 419.115 243.200, 402.917 219.625, 406.732 197.353 C 409.432 181.592, 424.229 162.581, 439.442 155.326 C 443.596 153.345, 443.787 152.665, 440.777 150.557 C 433.741 145.628, 418.159 156.132, 407.063 173.285 C 404.852 176.703, 398.950 183.273, 393.949 187.884 C 379.112 201.564, 366.759 219.048, 362.956 231.750 C 361.421 236.878, 358.773 237.282, 348.718 233.922 C 324.872 225.954, 316.482 206.182, 326.822 182.320 C 332.293 169.693, 331.971 168.321, 325.013 174.608 C 314.786 183.846, 311.150 201.656, 316.335 217.104 C 318.779 224.384, 318.825 224.942, 317.428 230.292 C 311.273 253.864, 311.649 280.935, 318.603 314.849 C 319.996 321.641, 320.909 327.424, 320.633 327.700 C 319.547 328.786, 309.567 318.158, 304.447 310.463 C 294.671 295.771, 287.824 277.345, 286.352 261.766 C 285.563 253.419, 286.349 251.214, 297.705 229.904 C 308.311 210, 308.560 206.720, 298.771 215.888 C 292.880 221.405, 291.149 223.952, 284.868 236.345 C 280.921 244.130, 276.610 252.221, 275.287 254.324 C 272.402 258.910, 271.613 258.521, 265.889 249.690 C 254.935 232.792, 254.580 211.977, 264.878 190.500 C 272.719 174.148, 281.990 164.927, 297.501 158.055 C 309.139 152.899, 309.193 152.793, 301.794 149.576 C 284.490 142.052, 277.263 137.021, 271.953 128.806 C 265.538 118.881, 264.404 108.008, 268.872 99.251 C 272.338 92.458, 272.989 92.408, 279.236 98.458 C 285.925 104.937, 291.681 107, 303.070 107 C 318.673 107, 333.380 100.932, 360.087 83.474 C 420.757 43.815, 461.812 29.448, 514 29.616 C 561.039 29.767, 604.830 45.330, 631.346 71.321 C 637.950 77.793, 652 97.255, 652 99.929 C 652 102.925, 653.806 100.432, 654.312 96.738 C 658.154 68.708, 607.934 33.438, 549.219 22.931 C 534.107 20.227, 501.439 19.448, 486 21.424 M 649.607 25.582 C 648.236 29.155, 649.055 30.987, 652.899 32.949 C 661.820 37.500, 664.479 47.325, 663.737 73 C 663.122 94.259, 663.509 96.711, 666.816 92.507 C 676.238 80.529, 675.827 44.724, 666.113 31.314 C 661.823 25.393, 651.108 21.672, 649.607 25.582 M 705.500 65.990 C 694.697 68.309, 685.333 74.415, 675.727 85.402 C 661.737 101.405, 665.829 103.459, 683.500 89.304 C 694.841 80.219, 704.366 75.680, 712.636 75.418 C 717.623 75.260, 719.450 74.783, 720.530 73.356 C 722.490 70.769, 722.389 70.413, 719.010 68.007 C 715.461 65.480, 710.987 64.812, 705.500 65.990 M 606.622 178.100 C 577.840 199.873, 525.044 213.743, 490.705 208.552 C 482.567 207.322, 478.657 207.113, 477.305 207.837 C 472.149 210.596, 457.102 237.176, 454.583 247.975 C 452.414 257.272, 451.865 257.612, 441.278 256.205 C 416.068 252.854, 399.098 233.564, 397.112 206 L 396.500 197.500 388.342 207.311 C 379.778 217.610, 374.903 225.869, 370.546 237.463 C 367.515 245.528, 367.020 245.969, 361 245.970 C 351.073 245.971, 337.746 241.254, 329.792 234.924 L 326.084 231.973 325.092 235.737 C 319.918 255.367, 321.281 282.733, 329.538 325 C 334.857 352.229, 335.232 355.860, 335.476 382.500 C 335.671 403.878, 336.025 409.021, 337.916 418 C 344.451 449.022, 358.061 471.213, 379.340 485.543 L 384.288 488.875 392.965 484.518 C 413.618 474.145, 429 474.754, 429 485.944 C 429 488.413, 429.470 488.866, 432.650 489.462 C 436.822 490.245, 442 494.885, 442 497.841 C 442 501.189, 443.111 503.006, 446.104 504.554 C 450.264 506.705, 452.237 511.194, 451.836 517.600 C 451.447 523.813, 450.748 523.306, 465.487 527.509 C 497.088 536.522, 528.785 535.536, 560.983 524.540 C 606.039 509.151, 644.200 479.454, 667.687 441.500 C 671.675 435.057, 676 426.777, 676 425.587 C 676 425.076, 676.711 423.872, 677.579 422.913 C 679.075 421.260, 679.345 421.295, 682.698 423.570 C 696.809 433.146, 724.415 426.963, 740.514 410.621 C 761.989 388.821, 767.481 356.396, 753.178 335.853 C 738.491 314.760, 717.058 318.867, 696.315 346.750 C 688.029 357.888, 684.880 356.996, 683.055 342.995 C 682.446 338.323, 680.760 326.547, 679.308 316.827 L 676.669 299.154 672.085 298.054 C 660.976 295.389, 651.753 289.615, 641.435 278.862 C 621.386 257.969, 613.266 234.744, 612.102 194.955 L 611.500 174.409 606.622 178.100 M 554.017 256.286 C 550.936 257.845, 549.134 262.406, 550.651 264.803 C 551.537 266.202, 553.373 266.500, 561.113 266.500 C 572.962 266.500, 577.725 268.602, 585.062 277.071 C 591.912 284.978, 596 284.861, 596 276.757 C 596 269.974, 584.934 259.840, 573.972 256.584 C 567.596 254.691, 557.468 254.539, 554.017 256.286 M 367.500 266.884 C 358.240 271.334, 348.954 281.914, 349.070 287.885 C 349.236 296.394, 349.974 296.282, 359.614 286.290 C 369.828 275.704, 373.069 273.988, 384.500 273.113 L 392.500 272.500 392.802 268.885 C 393.082 265.536, 392.871 265.224, 389.927 264.635 C 382.127 263.075, 373.661 263.924, 367.500 266.884 M 561.021 331.116 C 557.305 332.598, 555.067 334.964, 552.142 340.500 C 548.474 347.442, 548.232 364.130, 551.706 370.624 C 560.355 386.793, 577.452 382.959, 582.043 363.821 C 586.251 346.279, 573.344 326.199, 561.021 331.116 M 386.099 337.666 C 374.474 349.291, 377.955 377.765, 391.718 383.629 C 399.591 386.984, 406.271 383.237, 409.951 373.402 C 416.188 356.732, 407.878 335.755, 394.437 334.240 C 390.347 333.779, 389.733 334.031, 386.099 337.666 M 314.172 343.250 C 306.086 359.411, 308.719 376.652, 322.069 394.965 C 326.479 401.014, 326.844 399.739, 326.924 378 C 327.005 356.068, 325.057 341.333, 321.739 338.772 C 318.278 336.101, 317.527 336.546, 314.172 343.250 M 724.158 351.608 C 714.303 356.520, 702 369.590, 702 375.150 C 702 378.721, 705.239 379.063, 708.656 375.853 C 711.317 373.354, 713.010 374.196, 715.003 379.008 C 716.054 381.546, 715.841 383.191, 713.449 390.988 C 711.019 398.911, 710.841 400.334, 712.007 402.513 C 714.510 407.190, 720 404.843, 720 399.097 C 720 397.977, 720.960 395.220, 722.133 392.969 C 725.114 387.251, 724.329 379.017, 720.088 371.502 L 716.986 366.006 723.058 361.536 C 729.617 356.708, 733.928 355.389, 739.646 356.461 C 745.732 357.603, 747.229 352.829, 741.532 350.449 C 736.233 348.235, 730.107 348.644, 724.158 351.608 M 450.457 377.863 C 446.676 380.169, 442.543 385.014, 439.841 390.311 C 431.049 407.546, 445.146 428.547, 464.009 426.313 C 469.175 425.701, 470.314 424.942, 471.400 421.392 C 471.988 419.468, 471.569 419.235, 466.597 418.722 C 449.933 417.002, 442.414 405.747, 449.062 392.473 C 453.022 384.566, 458.858 381.918, 467.182 384.252 C 470.656 385.226, 471.943 382.088, 469.560 378.451 C 467.435 375.208, 455.417 374.838, 450.457 377.863 M 211.270 426.471 C 205.565 428.972, 202.614 436.230, 204.881 442.185 C 206.357 446.060, 212.860 453.115, 226.700 465.856 L 239.901 478.009 248.700 473.641 C 253.540 471.239, 259.704 468.451, 262.398 467.445 L 267.297 465.615 260.752 459.414 C 248.149 447.474, 227.468 429.819, 224 428.040 C 218.766 425.354, 214.902 424.878, 211.270 426.471 M 530.080 430.415 C 527.063 433.627, 527.837 435.615, 534.269 441.167 C 542.081 447.912, 545.351 449.369, 549.556 447.982 C 553.938 446.535, 553.342 445.247, 543.674 435.250 C 536.002 427.317, 533.744 426.514, 530.080 430.415 M 434.895 446.332 C 433.273 449.891, 435.391 456.308, 439.269 459.585 C 441.046 461.086, 446.239 464.113, 450.808 466.310 C 456.743 469.164, 460.125 471.536, 462.647 474.615 C 469.480 482.953, 484.133 490.048, 494.355 489.967 C 505.243 489.882, 516.283 483.141, 525.421 471 C 528.940 466.325, 534.110 460.267, 536.909 457.538 C 542.560 452.029, 543.077 450.448, 539.729 448.922 C 537.881 448.080, 535.319 448.724, 525.979 452.376 C 505.688 460.309, 498.117 462.128, 483 462.701 C 462.657 463.471, 449.643 459.770, 443.917 451.587 C 438.297 443.555, 436.608 442.571, 434.895 446.332 M 507.500 468.701 C 502.020 470.631, 497.568 471.311, 487 471.833 L 473.500 472.500 478.166 475.296 C 490.318 482.577, 501.084 481.494, 511.440 471.948 C 518.538 465.406, 518.033 464.991, 507.500 468.701 M 284.679 471.009 C 270.203 472.790, 252.479 480.260, 240.684 489.552 C 231.352 496.902, 219.323 516.416, 215.440 530.500 C 212.153 542.424, 212.450 569.530, 216.118 592.500 C 217.193 599.231, 217.098 599.962, 213.655 611.500 C 197.632 665.186, 193.724 712.391, 202.999 740.198 C 216.746 781.408, 253.190 797.558, 296.816 781.772 C 313.296 775.809, 348.807 755.686, 360.525 745.670 L 365.245 741.635 364.736 736.020 C 362.330 709.486, 322.749 664, 302.065 664 C 296.244 664, 294.181 666.047, 295.846 670.169 C 308.945 702.592, 311.415 715.395, 306.033 722.953 C 302.814 727.475, 302.433 726.949, 300.671 715.562 C 298.165 699.359, 279.804 652.475, 270.332 638.092 L 266.770 632.685 272.430 627.720 C 279.003 621.954, 282.708 615.336, 283.597 607.771 C 284.699 598.395, 280.299 582.688, 274.824 576.452 C 270.143 571.120, 271.120 568.578, 278 568.187 C 288.935 567.566, 295 570.693, 295 576.955 C 295 580.561, 295.014 580.558, 290 578 C 284.726 575.310, 284.754 575.274, 287.537 581.250 C 288.882 584.138, 290.268 587.998, 290.617 589.830 C 291.399 593.927, 292.997 594.617, 298.137 593.077 C 303.521 591.464, 309.517 585.832, 311.568 580.460 C 313.971 574.169, 313.167 561.269, 309.953 554.542 C 302.812 539.596, 284.349 532.031, 270.495 538.374 C 264.490 541.123, 262 541.623, 262 540.082 C 262 533.115, 277.645 528.989, 290.904 532.459 C 300.466 534.961, 305.899 537.869, 311.944 543.720 C 318.052 549.632, 318.299 549.549, 320.115 541 C 322.167 531.342, 318.782 517.600, 312.528 510.201 C 304.302 500.468, 284.353 497.484, 264 502.942 C 254.908 505.380, 252.125 505.489, 251.337 503.436 C 248.532 496.127, 267.838 489.753, 285.812 492.054 C 301.846 494.107, 310.222 496.951, 316.976 502.633 L 320.219 505.362 322.145 502.931 C 325.368 498.863, 324.423 486.485, 320.458 480.843 C 314.480 472.339, 301.923 468.887, 284.679 471.009 M 405.500 488.851 C 393.302 493.699, 376.684 503.848, 363.158 514.710 C 356.954 519.693, 355.102 519.942, 350.478 516.416 C 346.253 513.192, 339.145 511, 332.923 511 C 325.166 511, 324.975 511.220, 327.012 517.809 L 328.772 523.500 335.136 523.737 C 344.122 524.073, 351.897 528.140, 362.249 537.918 C 371.988 547.117, 375.008 548.838, 382.725 549.584 C 400.034 551.257, 432.815 534.411, 441.677 519.288 C 446.143 511.668, 441.288 509.405, 433.845 515.638 C 424.083 523.813, 415.888 527.492, 409.750 526.457 C 404.617 525.591, 405.025 524.521, 411.790 521.106 C 420.713 516.602, 433.845 506.465, 434.587 503.509 C 436.075 497.581, 430.398 496.353, 422.882 500.978 C 415.599 505.459, 411.157 507.053, 404.112 507.715 C 395.241 508.548, 396.669 506.428, 409.585 499.583 C 420.266 493.924, 423.517 490.533, 421.079 487.595 C 419.116 485.230, 413.464 485.686, 405.500 488.851 M 591.500 522.217 C 567.468 534.584, 542.679 540.759, 512.500 541.897 L 496.500 542.500 496.208 550.849 C 495.394 574.120, 507.992 585.470, 534.500 585.348 C 567.118 585.199, 594.639 569.035, 600.644 546.500 C 602.663 538.925, 602.279 517.878, 600.125 518.050 C 599.781 518.077, 595.900 519.953, 591.500 522.217 M 442.443 533.096 C 435.497 540.431, 421.162 548.875, 406 554.562 C 399.507 556.998, 397.023 557.384, 387.500 557.438 C 373.282 557.518, 368.242 555.320, 359.124 545.061 C 354.341 539.679, 351.795 537.695, 347.732 536.183 C 341.757 533.959, 331.204 531.463, 330.548 532.118 C 330.306 532.360, 329.375 536.145, 328.479 540.529 C 327.583 544.913, 325.719 551.038, 324.338 554.139 C 322.210 558.918, 321.800 561.437, 321.655 570.639 C 321.511 579.772, 321.126 582.172, 319.236 585.722 C 314.294 595.003, 306.009 601.085, 296.250 602.597 L 292 603.256 291.994 608.378 C 291.986 616.061, 290.411 620.351, 284.949 627.567 C 282.227 631.164, 280 634.405, 280 634.771 C 280 635.137, 282.073 640.207, 284.606 646.039 L 289.213 656.641 299.856 645.684 C 333.005 611.559, 379.550 575.498, 412 558.800 C 420.788 554.278, 439.616 548.053, 453.617 545.040 C 461.033 543.444, 463.923 542.362, 465.196 540.706 C 467.278 537.998, 467.326 538.039, 457.500 534.284 C 445.170 529.573, 445.737 529.617, 442.443 533.096 M 611 536.676 C 611 547.814, 605.704 560.671, 597.283 569.976 C 581.811 587.074, 549.129 597.803, 524.689 593.809 C 498.432 589.518, 487.063 576.071, 487.015 549.250 L 487 541 482.635 541 C 471.259 541, 465.164 556.418, 469.115 575.201 C 472.909 593.239, 488.304 606.847, 512 613.108 C 522.053 615.764, 546.920 616.311, 557.956 614.119 C 600.118 605.746, 627.883 578.803, 632.509 541.773 L 633.194 536.292 626.847 534.722 C 623.356 533.858, 618.362 532.841, 615.750 532.462 L 611 531.773 611 536.676 M 641.448 542.750 C 633.780 587.466, 603.160 616.328, 555.757 623.521 C 500.768 631.866, 455.799 602.398, 459.353 560.349 C 460.106 551.446, 460.863 551.644, 444.330 556.410 C 421.584 562.965, 416.963 565.158, 393.198 580.667 C 364.322 599.512, 333.618 623.775, 311.516 645.215 L 301.500 654.931 305 654.989 C 317.074 655.190, 337.192 670.099, 352.045 689.851 C 374.742 720.035, 379.465 745.018, 364.616 756.344 C 360.616 759.395, 359.826 759.618, 360.653 757.462 C 361.095 756.309, 360.274 756.497, 357.372 758.212 L 353.500 760.500 356.796 760.817 C 361.469 761.266, 367.323 758.114, 377.006 749.935 C 381.598 746.056, 386.579 742.012, 388.073 740.948 C 390.534 739.196, 390.853 738.233, 391.455 730.756 C 396.308 670.435, 405.078 621, 410.926 621 C 413.260 621, 412.983 626.837, 409.638 648.125 C 400.923 703.577, 396.064 763.182, 398.448 785.380 L 399.187 792.260 404.844 791.625 C 425.340 789.325, 495.632 790.074, 507 792.715 C 508.741 793.119, 507.644 791.890, 503.383 788.663 C 484.422 774.304, 479.048 753.714, 492.576 747.262 C 497.044 745.132, 503.798 746.713, 542.812 759.026 C 556.940 763.485, 571.082 767.936, 574.239 768.917 L 579.977 770.702 583.121 765.101 C 602.978 729.723, 625.704 717.023, 667.122 718.161 C 674.755 718.370, 681 718.449, 681 718.336 C 681 718.223, 680.359 715.064, 679.576 711.315 C 672.611 677.974, 669.800 637.763, 673.801 628.716 C 677.896 619.459, 678.194 620.439, 679.967 649 C 681.170 668.371, 682.536 678.622, 687.138 702.798 C 690.292 719.369, 691.408 721.989, 695.321 722.013 C 696.520 722.021, 701.253 723.333, 705.840 724.930 L 714.181 727.833 719.340 723.859 C 731.142 714.771, 765.375 700.698, 782.339 697.961 C 793.682 696.132, 806.381 697.112, 813.490 700.367 C 816.654 701.815, 819.386 703, 819.562 703 C 820.512 703, 788.192 652.804, 776.554 636.203 C 749.663 597.846, 723.663 572.411, 698.293 559.645 C 686.235 553.577, 647.491 539, 643.422 539 C 642.664 539, 641.813 540.616, 641.448 542.750 M 789.955 706.099 C 773.990 708.164, 737.525 721.873, 725.619 730.287 L 722.738 732.322 726.119 734.022 C 728.218 735.077, 733.158 735.951, 739.145 736.327 C 769.860 738.256, 810 754.544, 810 765.078 C 810 769.271, 808.432 768.929, 794.043 761.597 C 774.299 751.538, 751.258 744.410, 741.006 745.191 L 736.945 745.500 740.125 749.347 C 745.506 755.856, 741.947 755.643, 732.509 748.892 C 698.300 724.423, 646.342 719.507, 618.531 738.108 C 593.626 754.765, 576.297 791.394, 586.342 806.147 C 590.304 811.966, 593.344 813.455, 602.068 813.852 L 610 814.212 610 806.549 C 610 794.490, 614.773 780.457, 622.885 768.667 C 625.909 764.272, 632.525 759.192, 633.698 760.365 C 634.024 760.691, 631.091 767.604, 627.180 775.729 C 618.956 792.815, 617.627 797.398, 618.161 806.840 C 618.826 818.606, 626.486 825.884, 638.650 826.304 L 644.331 826.500 644.467 816.500 C 644.622 805.116, 646.772 798.459, 655.411 782.611 C 659.482 775.143, 660.382 774.072, 661.680 775.149 C 663.781 776.893, 662.989 780.698, 658.164 792.028 C 648.844 813.914, 649.859 826.689, 661.633 835.669 C 664.833 838.110, 666.423 838.549, 673.172 838.856 L 681 839.212 681 832.766 C 681 821, 687.614 801.652, 694.422 793.500 L 696.928 790.500 696.964 794.235 C 696.984 796.289, 695.383 802.805, 693.406 808.713 C 689.438 820.574, 687.954 832.177, 689.933 835.875 C 691.570 838.934, 696.875 841.996, 700.500 841.974 C 708.070 841.928, 714.468 836.626, 724 822.500 C 730.779 812.454, 735.757 807, 738.148 807 C 740.933 807, 741.299 809.050, 739.472 814.430 C 737.615 819.900, 737.451 819.485, 742 820.809 C 743.925 821.369, 749.268 822.984, 753.874 824.398 C 782.724 833.254, 819.778 826.371, 828.679 810.501 C 833.719 801.517, 834.061 784.362, 829.554 766.636 C 822.524 738.985, 805.151 704.679, 798.405 705.126 C 797.357 705.196, 793.555 705.634, 789.955 706.099 M 816.182 710.500 C 817.397 713.168, 819 713.850, 819 711.700 C 819 710.270, 817.050 708, 815.821 708 C 815.393 708, 815.555 709.125, 816.182 710.500 M 494.921 757.147 C 492.678 761.339, 497.476 771.420, 505.155 778.650 C 514.908 787.833, 531.862 795.344, 558.853 802.439 C 568.397 804.947, 576.335 807, 576.493 807 C 576.652 807, 576.091 804.646, 575.247 801.768 C 573.766 796.715, 574.266 788.573, 576.556 780.431 C 577.086 778.550, 576.112 778.062, 565.819 775.048 C 559.594 773.226, 542.454 767.969, 527.732 763.367 C 498.675 754.285, 496.658 753.902, 494.921 757.147 M 414.500 799.658 C 302.171 806.336, 227.108 834.822, 217.320 874.485 C 211.056 899.869, 238.496 927.890, 285.319 943.924 C 354.169 967.500, 451.729 974.906, 535.500 962.914 C 599.364 953.772, 640.719 939.612, 668.051 917.528 C 692.014 898.167, 695.163 876.955, 677.485 853.980 C 673.683 849.039, 672.365 848, 669.902 848 C 665.839 848, 660.192 844.956, 655.442 840.207 L 651.487 836.252 641.494 835.815 C 630.459 835.332, 624.666 833.158, 617.389 826.769 C 613.843 823.655, 613.363 823.529, 604.602 823.416 C 596.647 823.312, 594.429 822.857, 587 819.805 C 565.193 810.844, 525.994 802.687, 492.050 800.046 C 480.167 799.122, 427.917 798.860, 414.500 799.658 M 365.597 813.607 C 344.828 817.357, 322.695 828.073, 308 841.492 C 305.525 843.752, 299.769 847.587, 295.209 850.015 C 274.191 861.204, 265.944 876.281, 272.027 892.394 C 278.842 910.448, 309.834 926.129, 357 935.389 C 412.859 946.356, 469.266 947.530, 529.079 938.972 C 583.780 931.145, 625.461 912.024, 631.397 892.034 C 634.019 883.206, 633.570 880.586, 627.291 868.074 C 619.781 853.105, 613.492 848.256, 601.358 848.076 C 596.747 848.008, 596.153 847.744, 595.594 845.518 C 592.999 835.179, 579.863 831.190, 568.238 837.211 C 565.632 838.560, 561.700 840.600, 559.500 841.742 C 557.300 842.885, 553.862 844.505, 551.859 845.342 L 548.218 846.864 547.818 839.782 C 547.437 833.034, 547.240 832.546, 543.638 829.433 C 536.888 823.598, 524.535 822.458, 514.786 826.771 L 510.421 828.701 506.101 824.867 C 494.318 814.411, 473.046 819.577, 470.428 833.529 C 469.817 836.791, 469.541 837, 465.849 837 C 463.688 837, 460.095 837.931, 457.863 839.070 C 455.632 840.208, 453.680 840.996, 453.526 840.820 C 453.372 840.644, 452.306 838.636, 451.157 836.357 C 446.446 827.012, 430.933 817.977, 412 813.549 C 403.604 811.586, 376.601 811.619, 365.597 813.607 M 373 821.648 C 352.284 824.759, 338.238 830.186, 322.198 841.274 C 305.786 852.619, 297.228 868.072, 301.010 879.532 C 303.898 888.280, 323.461 902.756, 342.500 910.232 C 370.826 921.355, 387.924 921.057, 414.687 908.976 C 420.401 906.396, 420.963 905.851, 422.041 901.847 C 424.442 892.931, 430.403 885.339, 439.034 880.206 C 442.110 878.376, 442.871 877.091, 444.893 870.302 C 449.731 854.061, 448.302 843.984, 440.144 836.822 C 435.464 832.712, 418.316 824.638, 409.936 822.598 C 403.843 821.115, 380.541 820.515, 373 821.648 M 487.500 828.530 C 485.300 829.322, 483.399 829.977, 483.276 829.985 C 481.926 830.076, 480.242 836.382, 480.685 839.685 C 481.392 844.960, 480.442 845.500, 470.463 845.500 C 459.738 845.500, 457 847.147, 457 853.600 C 457 858.587, 459.470 861.846, 465.792 865.203 C 468.328 866.550, 469 867.545, 469 869.953 C 469 873.562, 466.871 873.924, 459.970 871.489 C 457.615 870.658, 455.590 870.096, 455.471 870.239 C 454.214 871.751, 452.223 876.889, 452.707 877.373 C 453.051 877.718, 454.561 878, 456.062 878 C 457.562 878, 462.204 879.716, 466.377 881.813 L 473.963 885.626 476.882 883.777 C 482.553 880.187, 495.716 880.546, 503.334 884.498 C 505.902 885.831, 506.317 885.780, 508.318 883.889 C 509.518 882.754, 512.075 881.010, 514 880.012 C 516.749 878.588, 517.900 877.060, 519.365 872.892 C 521.817 865.913, 531.532 855.978, 538 853.836 C 543.704 851.947, 544.349 848.626, 540.602 840.441 C 537.190 832.990, 531.466 830.130, 523.520 831.908 C 517.895 833.167, 511.655 836.908, 509.990 840.019 C 508.612 842.594, 507 842.557, 507 839.950 C 507 831.541, 496.394 825.330, 487.500 828.530 M 726.077 834.486 L 719.885 841.971 724.693 845.059 C 732.093 849.813, 750.637 858.632, 759.175 861.458 C 776.982 867.354, 790.785 866.681, 795.035 859.711 C 798.638 853.802, 797.594 850.406, 789.670 842.250 L 784.568 837 776.242 837 C 766.212 837, 756.887 835.177, 743.001 830.500 C 737.284 828.575, 732.531 827, 732.438 827 C 732.345 827, 729.483 830.369, 726.077 834.486 M 570.209 845.053 C 561.336 850.141, 559.092 855.809, 563.606 861.727 C 565.039 863.606, 566.552 866.349, 566.969 867.822 C 567.428 869.444, 568.273 870.334, 569.113 870.079 C 569.876 869.847, 573.538 869.202, 577.250 868.644 C 583.973 867.635, 584 867.618, 584 864.417 C 584 862.649, 585.350 858.637, 587 855.500 C 590.634 848.592, 590.683 847.592, 587.545 844.455 C 583.925 840.834, 577.158 841.068, 570.209 845.053 M 601.500 856.738 C 596.571 857.862, 591 865.597, 591 871.315 C 591 882.707, 609.772 885.982, 616.050 875.686 C 621.575 866.625, 612.123 854.316, 601.500 856.738 M 289.835 861.510 C 277.993 870.105, 274.266 881.121, 279.588 891.801 C 282.929 898.505, 288.089 902.839, 299.929 908.888 C 355.539 937.297, 465.806 945.182, 552 926.912 C 599.016 916.946, 628.847 897.988, 625.509 880.196 L 624.855 876.710 623.060 879.605 C 619.068 886.047, 612.212 890, 605.032 890 C 601.384 890, 601 890.241, 601 892.532 C 601 911.454, 568.082 917.242, 558.247 900.050 C 556.815 897.548, 555.552 895.366, 555.440 895.201 C 555.328 895.037, 554.038 895.203, 552.575 895.571 C 550.092 896.194, 549.954 896.516, 550.525 900.369 C 551.975 910.162, 546.979 920.337, 538.694 924.465 C 532.160 927.721, 521.721 927.964, 515.215 925.011 L 510.930 923.067 506.442 926.493 C 497.085 933.635, 482.517 933.914, 473.206 927.131 C 470.621 925.248, 470.615 925.249, 464.060 928.874 C 455.042 933.859, 441.463 934.242, 433.784 929.728 C 428.616 926.690, 424.522 921.966, 423.497 917.861 L 422.839 915.222 414.360 918.641 C 396.899 925.682, 389.088 927.329, 376.119 926.705 C 343.275 925.124, 302.605 904.186, 293.825 884.337 C 291.312 878.656, 291.133 868.010, 293.457 862.448 C 295.496 857.569, 295.327 857.525, 289.835 861.510 M 424.701 861.443 C 420.537 862.928, 411.637 869.505, 397 881.911 C 391.775 886.339, 386.666 889.971, 385.647 889.981 C 384.628 889.992, 379.903 888.153, 375.147 885.897 C 362.534 879.912, 349.426 874.505, 341.954 872.205 C 334.140 869.801, 307.406 864.693, 305.700 865.278 C 303.079 866.178, 317.204 873.823, 327.191 876.909 C 342.411 881.613, 349.887 884.537, 366.149 892.146 C 386.284 901.567, 387.557 901.550, 399.011 891.702 C 409.467 882.712, 429.292 867.218, 434.300 864.123 C 436.342 862.862, 437.758 861.418, 437.447 860.915 C 436.616 859.570, 429.077 859.882, 424.701 861.443 M 540.500 862.659 C 534.663 865.731, 530.420 870.712, 528.596 876.634 C 528.059 878.379, 528.446 878.892, 530.719 879.446 C 532.249 879.819, 536.500 881.925, 540.167 884.127 C 546.638 888.012, 546.958 888.093, 550.995 886.883 C 554.626 885.796, 555.526 884.901, 558.077 879.847 C 561.501 873.065, 561.685 870.559, 559.054 866.567 C 555.401 861.026, 546.976 859.251, 540.500 862.659 M 573.502 875.575 C 561.767 881.694, 560.563 895.175, 571.316 900.057 C 586.046 906.744, 598.449 893.984, 590.067 880.767 C 585.656 873.811, 580.179 872.094, 573.502 875.575 M 443.500 888.603 C 427.021 897.583, 426.828 918.645, 443.185 923.050 C 448.673 924.528, 455.053 923.319, 461.229 919.632 L 466.500 916.485 467.317 907.492 C 468.774 891.457, 469.095 892.960, 463.600 890.114 C 457.408 886.906, 447.922 886.193, 443.500 888.603 M 520.403 887.686 C 519.250 887.913, 516.885 889.314, 515.149 890.800 C 512.006 893.488, 511.999 893.518, 513.452 897.500 C 514.255 899.700, 514.932 904.261, 514.956 907.635 C 515.014 915.661, 517.292 917.500, 527.177 917.500 C 541.290 917.500, 546.886 904.521, 537.332 893.946 C 534.260 890.545, 525.766 886.490, 523.068 887.136 C 522.756 887.211, 521.556 887.458, 520.403 887.686 M 483.212 889.990 C 477.911 892.396, 476.307 895.823, 475.422 906.640 C 474.833 913.840, 474.970 914.741, 477.057 917.371 C 484.091 926.234, 500.512 924.309, 505.815 914 C 513.812 898.454, 499.070 882.793, 483.212 889.990 M 572 965.576 C 523.905 977.422, 438.778 980.618, 376 972.936 C 362.029 971.226, 337.534 967.173, 330.500 965.407 C 325.002 964.026, 332.661 967.209, 343.782 970.927 C 411.277 993.490, 509.658 992.193, 570.880 967.932 C 580.936 963.947, 581.245 963.299, 572 965.576" stroke="none" fill="#1a1a1a" fill-rule="evenodd"/>
</svg>