<svg xmlns="http://www.w3.org/2000/svg" width="1024" height="1024" viewBox="0 0 1024 1024" version="1.1">
	<path d="M 502 37.052 C 454.717 40.559, 407.663 65.603, 383.460 100.143 C 376.127 110.609, 375.880 110.790, 363.237 114.965 C 331.512 125.440, 310.981 148.146, 312.158 171.455 C 312.828 184.728, 319.851 190.029, 337.999 190.961 L 348.498 191.500 349.196 197.500 C 351.487 217.197, 356.302 226.394, 368.062 233.538 C 375.106 237.817, 375.338 238.191, 378.025 249.629 C 379.580 256.248, 380.337 264.229, 381.005 281.063 C 382.359 315.125, 384.348 324.372, 393.153 337.537 C 403.328 352.750, 421.396 363.795, 447.500 370.757 C 461.286 374.435, 461.784 374.492, 480.155 374.496 C 490.415 374.498, 498.622 374.803, 498.393 375.174 C 498.163 375.545, 498.702 375.995, 499.589 376.174 C 500.521 376.363, 497.889 378.369, 493.351 380.929 C 472.098 392.920, 425.351 427.460, 424.434 431.851 C 423.347 437.059, 422.910 437.250, 402.143 441.615 C 391.019 443.953, 379.799 446.539, 377.209 447.361 C 357.849 453.503, 343.961 454.587, 331.500 450.927 C 320.765 447.774, 300.824 447.531, 291.106 450.434 C 278.311 454.257, 269.001 462.872, 264.954 474.634 C 259.357 490.901, 265.633 502.505, 285.269 512.196 C 288.696 513.887, 293.148 516.566, 295.162 518.150 C 302.903 524.235, 313.242 525.958, 318.273 522 C 321.340 519.588, 323.349 519.522, 331.356 521.576 C 335.071 522.529, 338.686 524.251, 340.500 525.931 C 342.150 527.460, 344.265 528.978, 345.200 529.305 C 347.468 530.097, 344.218 542.442, 340.108 548.649 C 337.515 552.565, 330.478 574.221, 319.359 612.500 C 314.623 628.807, 314.190 632.398, 316.552 635.770 C 318.063 637.929, 317.030 649.025, 315.115 651.197 C 314.777 651.581, 308.425 650.973, 301 649.847 C 249.545 642.041, 197.481 664.595, 166.757 708 C 146.836 736.141, 137.651 765.311, 137.628 800.500 C 137.608 829.720, 140.794 843.377, 153.956 870.500 C 162.229 887.548, 170.001 898.287, 183.772 911.700 C 193.333 921.013, 194.038 921.948, 191.872 922.444 C 184.018 924.242, 168.933 927.265, 159 929.032 C 138.205 932.729, 126 936.565, 126 939.403 C 126 943.539, 128.652 943.511, 145.833 939.198 C 166.422 934.028, 189.848 929, 196.500 928.324 C 201.155 927.850, 202.500 928.312, 215.988 935.016 C 244.236 949.056, 253.525 951.425, 280.500 951.469 C 318.269 951.531, 347.509 940.768, 377.251 915.857 C 382.444 911.508, 385.050 909.991, 387.372 909.964 C 389.093 909.945, 395 909.477, 400.500 908.924 C 416.085 907.359, 506.297 906.180, 538.500 907.122 C 590.784 908.650, 624.239 909.988, 640.396 911.199 L 656.292 912.389 661.896 916.170 C 664.978 918.249, 670.875 922.408, 675 925.413 C 684.226 932.132, 701.799 940.980, 712.500 944.294 C 725.899 948.443, 734.248 949.504, 753 949.442 C 779.292 949.355, 791.305 946.523, 817.189 934.306 L 830.878 927.845 838.689 929.009 C 842.985 929.649, 858.605 932.632, 873.400 935.638 C 901.575 941.363, 906.240 941.783, 906.836 938.644 C 907.397 935.685, 906.346 935.274, 890 932.068 C 867.616 927.678, 842 921.747, 842 920.954 C 842 920.579, 845.487 917.182, 849.750 913.406 C 874.915 891.111, 893.416 860.504, 900.560 829.345 C 902.718 819.936, 903.630 786.042, 902.061 773.576 C 894.048 709.915, 843.570 656.631, 781.151 645.943 C 745.231 639.793, 705.711 648.738, 677.374 669.431 C 667.545 676.610, 666.965 676.558, 658.711 667.763 C 650.605 659.127, 650.254 658.068, 653.035 650.635 C 655.358 644.427, 657.314 643, 663.500 643 C 676.505 643, 696.619 634.480, 704.834 625.491 C 716.892 612.298, 715.331 592.773, 701.816 587.754 C 701.440 587.614, 701.771 584.800, 702.551 581.500 C 704.431 573.544, 704.379 555.219, 702.447 545.035 C 700.929 537.034, 700.944 536.747, 703.094 532.306 L 705.293 527.763 703.151 517.554 C 696.253 484.680, 669.532 426.172, 644.871 389.943 C 630.947 369.488, 610.325 353.895, 593.211 350.880 C 581.562 348.828, 580.814 345.995, 589.375 336.362 C 592.864 332.436, 597.883 325.686, 600.528 321.362 C 606.843 311.039, 606.684 311.145, 614.220 312.210 C 628.088 314.168, 640.384 309.110, 652.015 296.666 C 660.825 287.239, 663.873 272.200, 660.424 255.170 C 659.834 252.260, 660.199 251.379, 663.323 248.170 C 667.566 243.811, 671.182 236.250, 674.208 225.410 C 677.140 214.905, 677.386 183.936, 674.656 169 C 668.549 135.589, 648.393 100.123, 623.521 79.023 C 586.969 48.015, 545.816 33.802, 502 37.052 M 490.658 46.501 C 464.906 50.705, 441.538 60.183, 421.384 74.598 C 404.598 86.603, 392.783 99.083, 391.804 105.841 L 391.320 109.181 394.910 108.562 C 402.799 107.202, 443.929 106.780, 454.158 107.955 C 497.019 112.877, 548.471 132.884, 588.985 160.383 C 621.776 182.639, 657.485 216.277, 662.358 229.500 C 663.065 231.420, 664.175 229.116, 666.292 221.337 C 668.811 212.077, 669.333 187.047, 667.240 175.925 C 660.496 140.093, 647.431 114.378, 624.047 90.912 C 602.557 69.347, 574.922 54.290, 545.199 47.952 C 532.250 45.191, 503.388 44.423, 490.658 46.501 M 406.193 115.027 C 364.646 118.284, 334.612 132.796, 323.745 154.865 C 319.707 163.065, 319.037 175.166, 322.414 178.902 C 326.080 182.959, 340.137 185.419, 346.287 183.081 C 348.340 182.300, 348.792 181.300, 349.295 176.428 C 349.722 172.293, 351.367 167.747, 355.194 160.127 C 358.112 154.316, 360.660 149.180, 360.855 148.715 C 361.802 146.460, 352.526 149.797, 344.476 154.607 C 339.513 157.573, 334.935 160, 334.304 160 C 333.672 160, 331.095 162.355, 328.578 165.233 C 323.652 170.863, 322.456 169.947, 325.905 163.186 C 330.324 154.524, 340.092 147.631, 355.978 141.964 C 389.252 130.094, 429.902 133.540, 481.131 152.573 C 515 165.156, 524.985 167.431, 546.500 167.467 C 563.942 167.496, 579 165.871, 579 163.961 C 579 162.441, 562.920 153.034, 547.500 145.534 C 497.319 121.127, 452.315 111.411, 406.193 115.027 M 378.787 144.322 C 371.729 145.930, 369.662 147.747, 365.505 156 C 357.924 171.051, 356.086 182.241, 358.442 199 C 360.524 213.805, 361.489 217.240, 364.615 220.955 C 368.299 225.332, 369.471 224.816, 373.033 217.250 C 374.780 213.537, 378.141 207.800, 380.500 204.500 C 390.308 190.782, 418.854 167, 425.512 167 C 429.921 167, 430.238 167.753, 427.963 172.834 C 424.538 180.483, 423.251 188.979, 425.291 190.470 C 427.520 192.101, 433.344 191.055, 442.545 187.371 C 449.840 184.451, 457.929 178.192, 455.971 176.982 C 455.262 176.544, 457.467 173.458, 461.922 168.653 C 468.554 161.501, 470.338 157.945, 468.016 156.510 C 465.682 155.067, 434.712 146.799, 426.500 145.426 C 413.843 143.310, 386.054 142.667, 378.787 144.322 M 476.912 164.718 C 475.524 166.248, 471.866 170.652, 468.782 174.504 C 456.614 189.704, 439.503 200, 426.407 200 C 420.499 200, 417.527 196.378, 416.582 188.026 L 415.887 181.875 412.924 183.751 C 403.456 189.746, 385.719 208.951, 382.471 216.725 C 380.161 222.252, 380.701 229.017, 384.921 247.410 C 388.623 263.545, 388.896 265.869, 389.806 289 C 391.148 323.147, 394.788 332.953, 410.500 344.760 C 432.669 361.419, 457.072 367.442, 498.500 366.483 C 529.839 365.757, 557.423 354.306, 582.806 331.484 C 589.014 325.903, 595.666 316.092, 600.085 306 C 601.892 301.875, 603.516 298.308, 603.695 298.073 C 603.874 297.838, 605.254 298.825, 606.760 300.265 C 618.176 311.181, 644.989 300.041, 651.926 281.500 C 657.027 267.865, 652.467 248.441, 642.903 243.066 C 633.810 237.955, 623.061 240.824, 611.247 251.514 L 605.106 257.071 597.303 247.899 C 579.846 227.377, 574.407 215.258, 571.993 191.500 C 570.222 174.073, 572.197 175.983, 556.234 176.261 C 532.059 176.682, 518.675 174.619, 497 167.132 C 480.560 161.453, 479.941 161.379, 476.912 164.718 M 581.364 170.169 C 575.739 172.893, 578.666 197.455, 587.173 218.919 C 590.988 228.544, 593.829 233.164, 600.430 240.478 L 605.825 246.455 611.188 241.384 C 622.999 230.213, 637.365 228.921, 649.741 237.917 C 655.286 241.947, 657.610 241.886, 659.626 237.658 L 661.220 234.316 642.360 215.758 C 623.656 197.353, 610.754 186.044, 595.663 174.826 C 587.843 169.012, 585.398 168.216, 581.364 170.169 M 517.169 191.420 C 509.859 193.811, 506.922 198.031, 510.501 201 C 511.717 202.010, 512.934 201.844, 516.936 200.123 C 523.809 197.166, 531.986 197.318, 538.500 200.522 C 544.459 203.454, 547 203.663, 547 201.223 C 547 193.324, 529.216 187.480, 517.169 191.420 M 409 208.935 C 401.274 211.294, 392.257 218.443, 391.871 222.517 C 391.227 229.311, 392.565 229.475, 399.290 223.429 C 406.378 217.056, 409.400 215.704, 417.990 215.061 C 426.011 214.460, 427.810 212.953, 424.479 209.621 C 422.742 207.885, 413.747 207.486, 409 208.935 M 521.190 238.026 C 514.955 241.827, 512.582 256.521, 517.026 263.810 C 523.114 273.796, 536.292 270.613, 539.005 258.500 C 542.310 243.740, 531.741 231.593, 521.190 238.026 M 413.655 245.133 C 412.640 245.723, 410.963 248.072, 409.927 250.353 C 402.950 265.717, 416.205 285.706, 427.486 276.832 C 433.363 272.210, 435.149 258.529, 430.742 251.898 C 426.921 246.149, 417.991 242.613, 413.655 245.133 M 629.500 257.388 C 621.128 261.042, 612.567 276.635, 615.987 282 C 617.591 284.516, 620.156 281.996, 624.500 273.635 C 626.700 269.402, 630.188 264.400, 632.250 262.520 C 638.213 257.085, 636.693 254.248, 629.500 257.388 M 455.871 275.006 C 447.442 279.460, 443.867 287.591, 446.443 296.452 C 449.059 305.452, 456.954 310.257, 464.418 307.393 C 467.200 306.325, 466.375 302.120, 463.250 301.438 C 455.018 299.641, 453 297.069, 453 288.376 C 453 282.793, 456.026 281, 465.450 281 C 472.545 281, 473.197 280.439, 469.750 277.299 C 464.575 272.585, 461.434 272.067, 455.871 275.006 M 513.254 314.250 C 512.709 314.938, 511.454 317.238, 510.465 319.361 C 506.697 327.452, 493.713 334.047, 481.428 334.111 C 472.265 334.159, 466.617 331.829, 462.114 326.144 C 457.814 320.714, 454 320.327, 454 325.320 C 454 332.256, 465.387 341.147, 476.143 342.611 C 494.928 345.167, 522.688 327.844, 519.589 315.500 C 518.899 312.749, 515.046 311.989, 513.254 314.250 M 563 355.587 C 551.446 363.253, 541.447 367.607, 531.776 369.184 C 522.295 370.730, 522 371.010, 522 378.473 C 522 389.898, 524.235 393, 532.468 393 C 541.608 393, 549.969 386.884, 558.879 373.679 C 563.788 366.405, 573.272 349.886, 572.766 349.492 C 572.620 349.378, 568.225 352.121, 563 355.587 M 575.481 361.640 C 566.595 377.937, 556.690 389.701, 545.634 397.088 C 539.609 401.113, 539.365 401.180, 531.922 400.843 C 520.456 400.324, 514 393.853, 514 382.881 C 514 376.747, 510.950 378.224, 476.446 401.075 C 441.762 424.044, 434.485 430.076, 438.536 432.500 C 454.517 442.060, 470.975 462.936, 472.706 475.842 C 473.012 478.129, 473.446 480, 473.669 480 C 477.931 480, 502 468.288, 502 466.214 C 502 465.406, 499.716 455.690, 496.925 444.623 C 491.362 422.563, 490.441 414.130, 493.285 411.286 C 496.751 407.820, 498.251 410.591, 501.574 426.603 C 507.872 456.942, 509.482 464, 510.102 464 C 510.452 464, 514.059 462.264, 518.119 460.142 L 525.500 456.283 526.044 451.392 C 526.706 445.452, 528.280 442.450, 535.182 433.961 C 538.107 430.364, 546.623 419.789, 554.107 410.461 C 572.544 387.478, 585.123 375.723, 588.098 378.698 C 588.822 379.422, 586.642 382.608, 580.964 389.121 C 576.467 394.279, 570.498 401.875, 567.700 406 C 564.902 410.125, 560.184 416.367, 557.216 419.870 C 550.973 427.239, 543 437.910, 543 438.897 C 543 439.270, 543.934 439.645, 545.075 439.731 C 549.056 440.031, 559.753 444.091, 564.511 447.109 C 581.403 457.821, 601.271 487.187, 593.250 489.586 C 586.151 491.710, 583.671 495.307, 589.644 494.817 C 593.309 494.516, 593.897 493.944, 601.500 483.280 C 605.900 477.108, 614.642 463.023, 620.926 451.980 C 633.036 430.699, 634 429.340, 634 433.543 C 634 442.044, 620.847 470.772, 610.928 483.935 C 600.095 498.312, 593.786 502.876, 586.402 501.678 C 583.268 501.169, 581.668 501.958, 570.706 509.415 C 556.168 519.305, 551.041 522.028, 536.500 527.577 L 525.500 531.776 525.593 537.824 C 525.758 548.560, 526.484 549.033, 550 553.721 C 574.072 558.520, 614.726 557.245, 642.500 550.819 C 661.388 546.449, 688.867 534.884, 692.422 529.807 C 703.371 514.176, 652.828 403.806, 621.689 375.347 C 612.533 366.978, 593.368 357.042, 583.269 355.427 L 579.221 354.780 575.481 361.640 M 425.984 443.449 C 424.601 444.202, 415.826 446.606, 406.484 448.791 C 364.044 458.716, 356.882 460.187, 354.222 459.525 L 351.500 458.847 354.250 461.728 C 359.399 467.123, 358.003 467.224, 343.450 462.507 C 328.163 457.552, 319.446 455.966, 306.133 455.717 C 295.228 455.514, 294.148 455.673, 288.879 458.261 C 273.801 465.665, 266.349 479.481, 270.971 491.465 L 272.114 494.430 274.458 487.722 C 280.129 471.493, 292.987 459.177, 303.205 460.189 C 308.188 460.682, 307.453 462.278, 300.823 465.365 C 281.414 474.399, 273.588 494.107, 285.182 504.753 L 287.635 507.006 288.763 498.578 C 290.525 485.405, 296.624 475.297, 305.360 471.068 C 313.701 467.030, 319.403 470.174, 311.479 474.441 C 302.485 479.285, 295.060 490.726, 295.022 499.800 C 294.988 507.929, 297.953 512.411, 305.432 515.536 L 309.291 517.149 308.714 510.824 C 307.616 498.801, 312.124 488.018, 319.909 484.047 C 325.251 481.321, 327.898 481.454, 338.837 485 C 350.676 488.838, 350.791 488.829, 355.290 483.765 L 359.081 479.500 358.790 484.500 L 358.500 489.500 365.500 490.620 C 382.666 493.366, 382.088 493.428, 390.452 487.968 C 406.409 477.551, 411.660 476.233, 427.838 478.586 C 433.702 479.438, 441.474 481.005, 445.108 482.068 C 459.020 486.136, 464.005 484.590, 463.990 476.215 C 463.977 468.675, 460.885 462.150, 453.592 454.273 C 442.987 442.818, 433.778 439.208, 425.984 443.449 M 535.230 446.551 C 534.012 447.404, 532.523 449.022, 531.922 450.146 C 530.939 451.983, 531.055 452.117, 533.077 451.476 C 540.070 449.256, 542.174 447.915, 540.960 446.452 C 539.418 444.594, 537.990 444.618, 535.230 446.551 M 538.471 456.027 C 531.332 462.640, 527.698 465.106, 518.616 469.497 C 505.591 475.795, 478.943 486.544, 471.861 488.356 C 467.059 489.585, 466.976 489.668, 468.862 491.375 C 470.936 493.252, 472.248 496.729, 471.140 497.414 C 470.770 497.642, 463.785 495.874, 455.619 493.485 C 423.323 484.036, 409.719 484.044, 396.774 493.524 C 391.062 497.706, 388.749 501.996, 386.617 512.357 C 383.787 526.108, 384.976 529.100, 394.566 532.368 L 398.991 533.876 398.906 527.188 C 398.804 519.199, 402.688 507.616, 407.028 502.970 C 412.536 497.074, 414.498 500.376, 410.109 508.154 C 403.612 519.666, 404.022 528.752, 411.361 535.866 L 414.698 539.100 415.329 531.638 C 416.265 520.563, 421.162 509, 424.916 509 C 428.003 509, 427.961 511.289, 424.742 518.574 C 419.860 529.624, 421.474 538.608, 429.047 542.524 C 433.089 544.615, 433 544.748, 433 536.614 C 433 527.177, 436.483 519.737, 442.550 516.213 C 447.474 513.353, 451.652 513.722, 461.993 517.930 C 470.199 521.270, 470.833 521.104, 471.601 515.414 C 472.548 508.404, 473.017 507, 474.414 507 C 476.244 507, 476.839 513.651, 475.742 521.840 C 475.272 525.349, 475.178 528.508, 475.534 528.860 C 478.561 531.854, 513.136 527.341, 528.637 521.929 C 552.738 513.513, 584.974 490.382, 584.980 481.500 C 584.984 474.834, 570.262 458.984, 558.278 452.753 C 547.341 447.066, 548.317 446.905, 538.471 456.027 M 321.703 492.392 C 318.088 495.752, 315.050 502.500, 315.022 507.231 C 314.997 511.388, 313.986 510.849, 327.590 513.925 C 331.940 514.909, 336.288 516.051, 337.250 516.464 C 338.652 517.065, 339 516.713, 339 514.696 C 339 513.311, 339.894 509.326, 340.987 505.839 C 344.010 496.194, 343.759 494.521, 339.002 492.618 C 331.255 489.518, 324.884 489.434, 321.703 492.392 M 353.648 496.095 C 350.801 497.815, 346.822 507.800, 346.253 514.653 L 345.742 520.806 353.621 522.503 C 357.954 523.436, 364.950 525.055, 369.167 526.100 C 373.383 527.145, 377.096 528, 377.417 528 C 377.737 528, 378 525.554, 378 522.565 C 378 517.973, 378.575 514.267, 381.213 501.874 C 381.756 499.318, 356.928 494.113, 353.648 496.095 M 446.785 523.554 C 441.852 526.231, 439.290 539.290, 442.975 542.975 C 451.444 551.444, 466.961 539.791, 462.864 528.039 C 460.993 522.673, 452.680 520.354, 446.785 523.554 M 352.278 536.703 C 348.801 544.298, 348.071 551.437, 350.632 552.790 C 354.774 554.977, 364.160 556.269, 365.560 554.846 C 367.297 553.077, 374.099 534.179, 373.197 533.623 C 372.033 532.904, 360.824 531, 357.761 531 C 355.240 531, 354.571 531.696, 352.278 536.703 M 511 535.109 C 509.075 535.606, 500.750 536.258, 492.500 536.557 C 470.922 537.339, 471.438 537.202, 468.526 542.948 C 463.809 552.257, 456.041 555.478, 445.080 552.669 C 441.461 551.742, 436.475 550.977, 434 550.970 C 431.525 550.962, 427.653 550.117, 425.395 549.092 C 423.137 548.066, 418.862 546.899, 415.895 546.497 C 412.928 546.094, 409.249 545.125, 407.720 544.342 C 402.565 541.701, 387.665 537.901, 383.647 538.201 L 379.659 538.500 376.862 548.500 C 372.519 564.024, 371.486 561.640, 391.767 582.887 C 401.539 593.124, 415.779 608.138, 423.412 616.250 C 431.044 624.362, 437.567 631, 437.908 631 C 438.248 631, 439.521 626.837, 440.736 621.750 C 445.309 602.598, 455.659 588.622, 473.556 577.431 C 485.680 569.850, 512.171 552.426, 515.250 550.008 C 517.383 548.333, 518 547.001, 518 544.073 C 518 540.071, 516.246 533.931, 515.152 534.102 C 514.793 534.159, 512.925 534.612, 511 535.109 M 682.642 545.167 C 669.761 551.649, 656.086 556.151, 637 560.192 L 621.500 563.473 590.500 563.464 C 556.082 563.454, 548.078 562.560, 533.137 557.050 C 528.621 555.385, 524.236 554.342, 523.258 554.700 C 520.431 555.735, 489.404 575.584, 478.500 583.333 C 454.992 600.041, 446.040 614.501, 447.250 633.816 C 447.797 642.547, 445.718 639.717, 472.128 667.669 C 483.473 679.676, 496.298 693.624, 500.628 698.664 C 508.106 707.369, 510.678 709.655, 511.769 708.564 C 512.035 708.299, 511.241 700.091, 510.006 690.325 C 507.633 671.564, 507.729 665.972, 510.621 654.458 L 512.278 647.859 508.139 643.642 C 502.911 638.314, 502.952 638, 508.878 638 C 514.397 638, 515.188 637.345, 518.617 629.946 C 526.689 612.522, 543.466 593.038, 563.273 578.084 C 568.342 574.256, 576.752 570.419, 577.792 571.459 C 578.057 571.723, 571.655 578.330, 563.566 586.140 C 536.182 612.581, 523.838 632.132, 517.881 658.500 C 514.699 672.583, 517.642 696.857, 526.973 733.500 C 535.181 765.730, 534.178 764.129, 547.684 766.537 C 568.345 770.220, 595.941 765.561, 600.179 757.675 C 602.634 753.105, 600.282 705.774, 596.455 682.750 C 593.973 667.823, 593.729 668.572, 604.250 658.872 C 617.424 646.725, 626.813 639.358, 649 623.758 C 685.900 597.813, 689.847 593.739, 694.065 577.244 C 696.828 566.443, 696.084 543.601, 692.871 540.557 C 692.667 540.364, 688.064 542.438, 682.642 545.167 M 342.739 564.750 C 341.927 566.813, 337.300 581.278, 332.458 596.896 C 324.271 623.303, 323.754 625.475, 325.080 627.896 C 328.088 633.387, 343.145 637.614, 347.329 634.142 C 349.242 632.555, 351.033 626.661, 354.155 611.678 C 356.420 600.804, 358.885 594.999, 361.235 595.001 C 363.250 595.004, 405.070 637.872, 445.081 680.947 C 498.214 738.150, 507.927 748.216, 509.427 747.627 C 510.017 747.395, 513.114 746.371, 516.310 745.352 C 521.811 743.598, 522.091 743.353, 521.581 740.734 C 520.233 733.797, 515.430 726.636, 502.233 711.887 C 468.735 674.448, 376.130 576.896, 373.429 576.203 C 372.792 576.039, 370.188 578.222, 367.642 581.053 C 362.013 587.314, 360.371 585.792, 363.958 577.637 C 368.726 566.793, 367.959 564.833, 358.061 562.582 C 346.701 559.998, 344.489 560.311, 342.739 564.750 M 692.761 600.759 C 685.023 607.759, 675.110 615.548, 660.750 625.909 C 653.737 630.969, 648 635.535, 648 636.055 C 648 639.381, 675.360 634.848, 685.677 629.812 C 701.132 622.269, 710.019 605.162, 702.427 597.570 C 699.982 595.125, 698.418 595.641, 692.761 600.759 M 362.872 609.833 C 359.603 618.416, 357.871 625.093, 355.437 638.500 C 351.023 662.814, 350.687 660.103, 358.658 664.496 C 411.394 693.560, 439.103 754.775, 429.413 820.811 C 425.429 847.963, 413.759 875.161, 398.142 893.695 L 392.079 900.889 396.449 901.545 C 398.853 901.905, 410.705 901.705, 422.788 901.100 C 467.639 898.854, 600.145 900.642, 636.500 903.984 C 642 904.489, 647.833 904.925, 649.462 904.951 L 652.424 905 649.308 902.250 C 641.086 894.996, 628.229 874.792, 621.663 858.809 L 617.428 848.500 613.559 848.180 C 605.590 847.522, 605 848.098, 605 856.541 L 605 864.044 598.937 867.962 C 588.841 874.488, 575.364 877.956, 560 877.981 C 547.989 878.001, 544.476 876.467, 541.144 869.750 L 538.788 865 530.054 865 C 514.164 865, 500.961 860.411, 497.680 853.747 C 495.686 849.698, 494.749 829.876, 496.317 824.916 L 497.133 822.332 482.156 821.175 C 465.549 819.893, 463.610 819.388, 458.025 814.900 C 452.287 810.289, 451.811 808.369, 452.789 793.803 C 453.809 778.621, 455.053 776.394, 466.123 769.928 C 474.334 765.133, 475.998 762.285, 476.578 752.033 C 476.782 748.440, 477.456 741.787, 478.077 737.250 L 479.207 728.999 475.920 725.250 C 467.113 715.202, 411.251 656.225, 373.694 617.323 C 363.901 607.180, 363.886 607.169, 362.872 609.833 M 324.478 641.250 C 323.383 644.232, 315.668 681.751, 313.454 694.861 C 308.874 721.979, 302.876 742.408, 289.485 776.500 C 285.812 785.850, 282.087 795.356, 281.207 797.625 C 279.200 802.796, 280.930 806.162, 286.550 808.017 C 291.308 809.587, 298.797 807.682, 300.003 804.594 C 306.888 786.968, 335.911 692.306, 338.510 679 C 339.282 675.042, 345.815 647.434, 346.614 644.750 C 347.054 643.271, 346.459 643, 342.777 643 C 340.381 643, 335.829 642.325, 332.661 641.500 C 325.673 639.680, 325.062 639.661, 324.478 641.250 M 633.488 644.533 C 623.501 651.210, 620.293 656.449, 610.453 682.157 L 605.728 694.500 606.869 707 C 607.497 713.875, 608.034 722.650, 608.063 726.500 C 608.092 730.350, 608.439 735.300, 608.834 737.500 L 609.553 741.500 612.745 733.500 C 614.500 729.100, 618.826 717.625, 622.357 708 C 625.888 698.375, 632.652 680.776, 637.389 668.890 C 645.805 647.771, 646.789 644.606, 645.242 643.650 C 642.013 641.654, 637.259 642.011, 633.488 644.533 M 735.500 653.475 C 717.166 656.866, 700.955 663.638, 682.971 675.422 C 672.258 682.441, 671.817 683.046, 675.250 686.023 C 676.487 687.097, 680.577 690.790, 684.338 694.230 L 691.176 700.486 695.838 697.717 C 720.854 682.862, 742.343 677.424, 766.394 679.862 C 824.336 685.736, 865.173 730.980, 867.680 792.078 C 869.700 841.291, 844.774 883.380, 801.712 903.470 C 745.398 929.743, 687.192 908.596, 657.314 851.007 C 655.824 848.135, 653.999 845.553, 653.258 845.269 C 651.628 844.643, 627.264 846.403, 626.462 847.204 C 625.582 848.084, 632.235 863.841, 636.746 871.561 C 657.620 907.283, 686.854 929.910, 724 939.096 C 732.164 941.115, 736.031 941.449, 751.500 941.473 C 771.250 941.503, 779.936 940.125, 799.053 933.931 C 842.246 919.936, 880.255 876.371, 891.800 827.628 C 895.218 813.201, 895.670 782.231, 892.671 768 C 888.038 746.013, 881.963 730.999, 871.223 715 C 848.226 680.738, 818.343 660.575, 780.140 653.540 C 769.938 651.661, 745.500 651.626, 735.500 653.475 M 266.500 656.623 C 233.804 661.577, 211.175 672.677, 189.430 694.428 C 161.119 722.744, 146.629 756.604, 145.318 797.500 C 144.020 838.024, 158.841 875.155, 187.868 904.098 C 214.809 930.961, 244.864 943.512, 282 943.407 C 335.695 943.256, 382.319 913.175, 407.915 862.169 C 419.558 838.969, 423.445 820.055, 422.747 790.010 C 422.271 769.523, 419.700 756.312, 412.869 739.250 C 410.174 732.517, 396.700 710.058, 390.603 702.134 C 378.239 686.066, 351.769 665.652, 348.951 670.011 C 347.318 672.538, 342.952 687.252, 342.427 692 L 341.929 696.500 347.693 700 C 355.521 704.753, 371.575 720.857, 377.506 729.905 C 400.807 765.453, 403.003 819.468, 382.602 855.267 C 353.973 905.503, 300.656 927.040, 248.369 909.488 C 171.528 883.693, 148.563 778.304, 206.447 717.100 C 213.882 709.239, 229.294 697.605, 238.010 693.276 C 255.552 684.562, 282.335 680.988, 303.102 684.589 C 307.482 685.349, 307.520 685.275, 309.926 671.301 C 311.912 659.760, 311.773 659.229, 306.396 657.872 C 302.241 656.824, 271.522 655.862, 266.500 656.623 M 605.687 666.805 C 602.965 669.646, 602.331 673.430, 603.903 677.449 C 604.724 679.548, 605.370 678.250, 608.482 668.250 C 610.028 663.281, 609.383 662.947, 605.687 666.805 M 642.656 675.644 L 638.874 683.287 652.700 697.394 C 685.449 730.807, 712.967 761.487, 723.309 776.118 C 729.426 784.772, 732.713 785.873, 750.473 785.220 L 756.446 785 749.897 778.250 C 746.294 774.538, 738.881 766.337, 733.423 760.027 C 701.606 723.241, 649.955 668, 647.376 668 C 646.861 668, 644.737 671.440, 642.656 675.644 M 733.500 689.425 C 722.234 692.244, 710.070 697.305, 704.652 701.427 C 698.943 705.769, 698.743 708.658, 703.764 714.205 C 705.902 716.567, 708.413 719.625, 709.345 721 C 711.936 724.826, 739.340 755.740, 740.678 756.347 C 741.326 756.642, 744.701 756.116, 748.178 755.179 L 754.500 753.477 754.853 746.488 C 755.189 739.860, 753.465 706.392, 752.124 693.500 L 751.500 687.500 747 687.337 C 744.525 687.247, 738.450 688.187, 733.500 689.425 M 759.560 690.617 C 758.148 696.244, 760.591 745.523, 762.616 752.271 C 762.909 753.244, 765.470 755.218, 768.307 756.656 C 771.145 758.094, 775.878 761.234, 778.825 763.635 C 781.772 766.036, 784.771 768, 785.489 768 C 787.267 768, 832.044 723.851, 832.019 722.121 C 831.984 719.627, 815.653 704.418, 808.500 700.218 C 794.292 691.874, 781.160 688.024, 766.858 688.008 C 760.526 688, 760.186 688.122, 759.560 690.617 M 265.500 692.477 C 252.856 694.820, 237.905 701.462, 227.256 709.467 C 219.397 715.375, 219.446 715.273, 222.743 718.688 C 224.259 720.259, 233.483 730.592, 243.240 741.651 C 265.233 766.577, 264.418 765.983, 271.978 762.590 C 275.153 761.166, 278.224 760, 278.804 760 C 280.879 760, 282.769 757.026, 283.378 752.800 C 284.084 747.902, 288.997 695.418, 288.999 692.750 C 289 690.565, 276.598 690.421, 265.500 692.477 M 634.545 695.250 C 633.801 697.038, 631.625 703, 629.710 708.500 C 627.794 714, 623.475 725.321, 620.113 733.657 C 613.279 750.603, 613.149 751.080, 616.105 748.405 C 617.263 747.357, 618.477 746.725, 618.803 747 C 619.130 747.275, 621.700 742.325, 624.515 736 C 627.330 729.675, 632.866 719.506, 636.817 713.403 C 644.768 701.119, 645.165 699.538, 641.411 695.077 C 638.098 691.139, 636.237 691.186, 634.545 695.250 M 296.514 693.977 C 296.182 694.514, 295.243 702.277, 294.426 711.227 C 292.793 729.135, 291.736 750.646, 292.644 747.500 C 292.961 746.400, 294.792 740.100, 296.712 733.500 C 299.575 723.660, 303.496 708.366, 306.519 695.250 C 307.004 693.149, 306.709 693, 302.078 693 C 299.350 693, 296.846 693.440, 296.514 693.977 M 337.051 712.750 C 331.245 732.836, 323.734 757.480, 320.533 766.946 C 318.590 772.692, 317 777.538, 317 777.716 C 317 778.510, 323.092 776.455, 329.500 773.498 C 333.350 771.722, 343.925 767.695, 353 764.550 C 362.075 761.405, 372.052 757.700, 375.170 756.315 L 380.840 753.799 379.528 750.078 C 374.424 735.613, 359.533 716.840, 346.109 707.949 C 339.915 703.846, 339.572 704.028, 337.051 712.750 M 643.796 718.347 C 636.967 728.871, 629.916 742.152, 627.458 749.119 C 625.860 753.649, 625.600 753.518, 638 754.414 C 642.125 754.712, 648.286 755.252, 651.692 755.614 C 657.544 756.237, 657.855 756.163, 657.361 754.274 C 657.032 753.013, 659.084 747.954, 662.919 740.574 C 666.264 734.139, 669 727.992, 669 726.914 C 669 724.834, 653.513 707.995, 651.612 708.007 C 651 708.011, 647.483 712.664, 643.796 718.347 M 213.572 723.378 C 201.985 726.757, 184.658 762.572, 182.469 787.667 L 181.762 795.770 204.131 796.458 C 216.434 796.836, 232.340 797.001, 239.477 796.823 C 252.351 796.503, 252.461 796.480, 253.152 794 C 253.535 792.625, 255.062 787.900, 256.544 783.500 C 260.836 770.755, 261.922 773.067, 239.581 747.392 C 228.625 734.801, 219.175 723.990, 218.581 723.366 C 217.775 722.521, 216.499 722.524, 213.572 723.378 M 812.231 752.750 L 788.988 775.500 791.059 783 C 792.399 787.854, 792.953 792.124, 792.629 795.103 L 792.129 799.707 799.814 800.782 C 818.612 803.412, 857.727 807.319, 859.285 806.721 C 862.530 805.476, 861.011 784.427, 856.418 767 C 852.254 751.197, 840.919 730, 836.634 730 C 835.996 730, 825.015 740.237, 812.231 752.750 M 673.788 737.750 C 669.520 742.289, 665 750.209, 665 753.150 C 665 755.487, 665.498 755.991, 668.250 756.444 C 672.517 757.146, 697 758.625, 697 758.181 C 697 757.991, 695.478 755.961, 693.619 753.668 C 691.759 751.376, 688.642 746.986, 686.692 743.913 C 683.466 738.829, 679.398 735, 677.222 735 C 676.756 735, 675.210 736.237, 673.788 737.750 M 484.505 745.978 C 483.563 750.265, 484.724 752.913, 487.817 753.534 C 489.292 753.830, 492.790 754.731, 495.588 755.536 C 502.188 757.435, 502 757.479, 502 754.055 C 502 751.619, 501.021 750.409, 496.337 747.055 C 489.278 742, 485.455 741.652, 484.505 745.978 M 520.018 751.391 C 509.981 754.588, 499 775.890, 499 792.161 C 499 798.179, 500.403 806.615, 502.169 811.212 L 503.211 813.923 507.504 810.335 L 511.797 806.746 511.258 796.960 C 510.413 781.623, 514.910 770.056, 523.521 765.419 C 525.435 764.388, 527 762.929, 527 762.177 C 527 760.766, 523.999 749.889, 523.679 750.141 C 523.581 750.218, 521.933 750.780, 520.018 751.391 M 609.073 762.635 C 604.313 768.686, 607.720 774.996, 615.750 775.005 C 620.009 775.010, 689.963 779.962, 709.165 781.618 C 720.987 782.638, 721.452 782.040, 714.431 774.852 C 711.169 771.512, 707.027 768.144, 705.227 767.367 C 701.501 765.758, 662.097 763.503, 660.777 764.823 C 660.337 765.263, 658.970 767.620, 657.738 770.062 C 653.829 777.814, 648.409 776.455, 651.452 768.486 C 652.420 765.952, 653.039 763.706, 652.828 763.495 C 652.223 762.890, 622.076 760.007, 616.323 760.003 C 611.918 760, 610.836 760.393, 609.073 762.635 M 750.500 761.216 C 748.850 761.798, 747.364 762.386, 747.197 762.523 C 747.030 762.661, 748.507 764.511, 750.479 766.636 C 752.450 768.761, 755.225 772.300, 756.645 774.500 C 758.065 776.700, 761.149 779.937, 763.497 781.694 C 773.532 789.200, 774.524 801.177, 765.814 809.682 L 761.904 813.500 751.202 813.833 C 745.316 814.016, 737.962 814.241, 734.860 814.333 L 729.220 814.500 731.069 817.096 C 740.182 829.895, 754.091 833.676, 767.598 827.026 C 781.459 820.202, 786.553 810.738, 785.826 793.157 C 785.207 778.184, 779.749 770.028, 765.627 762.971 C 759.432 759.876, 755.571 759.428, 750.500 761.216 M 482.577 761.875 C 482.259 762.390, 484.249 764.428, 486.999 766.404 C 494.706 771.941, 493.476 773.908, 483.541 771.933 C 471.953 769.630, 462 777.015, 462 787.915 C 462 793.314, 463.769 794.103, 476.314 794.295 C 490.492 794.512, 490.598 794.453, 491.437 785.946 C 492.028 779.943, 493.659 773.757, 496.485 766.800 C 497.007 765.514, 496.363 764.761, 493.838 763.707 C 489.086 761.724, 483.257 760.775, 482.577 761.875 M 375 762.675 C 371.625 763.837, 351.453 771.539, 335.633 777.706 L 318.767 784.281 319.421 788.890 C 321.076 800.540, 321.216 806.270, 319.986 812.068 L 318.687 818.188 329.593 828.296 C 335.592 833.856, 346.427 844.219, 353.671 851.327 L 366.842 864.249 369.493 861.598 C 370.951 860.140, 374.559 853.897, 377.512 847.724 C 386.324 829.300, 389.631 812.260, 388.694 790.114 C 387.667 765.850, 384.457 759.417, 375 762.675 M 280.195 766.551 C 271.181 769.385, 266.559 773.907, 261.922 784.427 C 259.101 790.826, 259.505 805.875, 262.689 813 C 266.745 822.079, 278.538 830, 288 830 C 302.077 830, 314.774 816.577, 315.118 801.329 C 315.403 788.758, 313.048 788.056, 308.887 799.469 C 305.634 808.391, 303.251 811.456, 297.500 814.110 C 277.760 823.221, 263.088 797.910, 278.585 781.478 C 280.699 779.237, 282.595 775.734, 283.612 772.190 C 284.510 769.060, 285.441 766.163, 285.681 765.750 C 286.243 764.785, 285.439 764.902, 280.195 766.551 M 525.247 772.250 C 519.380 778.313, 515.478 791.799, 517.388 799.411 C 519.060 806.071, 525.402 800.090, 526.355 790.955 C 526.725 787.405, 527.937 781.600, 529.047 778.056 C 532.010 768.595, 530.709 766.606, 525.247 772.250 M 586 773.769 C 581.913 774.919, 575.025 775.353, 559.182 775.459 C 535.396 775.619, 536.042 775.418, 536.015 782.689 L 536 786.877 540.750 787.464 C 554.608 789.177, 563.738 793.136, 566.178 798.492 C 567.909 802.291, 566.858 802.419, 558.329 799.451 C 547.776 795.778, 534.668 795.323, 534.198 798.613 C 533.950 800.350, 534.928 801.138, 539.698 803.046 C 547.475 806.156, 549.597 807.611, 551.982 811.472 C 556.297 818.453, 554.077 819.628, 545.209 815.058 C 537.687 811.181, 529.426 808, 526.881 808 C 524.417 808, 514.101 813.898, 508.319 818.612 C 504.841 821.447, 503.949 822.930, 503.017 827.419 C 500.165 841.155, 509.819 845.284, 537.026 841.967 C 556.586 839.582, 606.953 818.858, 610.673 811.665 C 612.728 807.691, 611.896 796.285, 609.175 791.137 C 598.772 771.452, 599.168 771.991, 595.190 772.111 C 593.160 772.171, 589.025 772.918, 586 773.769 M 618.209 788.239 C 616.949 788.846, 616.135 789.910, 616.401 790.604 C 616.668 791.297, 617.189 794.552, 617.561 797.836 L 618.237 803.808 631.368 804.359 C 638.591 804.662, 665.843 805.397, 691.928 805.991 C 745.161 807.205, 741.838 807.615, 742.728 799.720 C 743.611 791.887, 742.468 791.403, 721.398 790.688 C 711.554 790.354, 691.800 789.398, 677.500 788.563 C 647.100 786.787, 621.513 786.648, 618.209 788.239 M 749.760 797.750 C 750.304 806.911, 751.385 808.525, 756.353 807.594 C 760.271 806.859, 765 802.080, 765 798.858 C 765 793.805, 759.931 790, 753.200 790 L 749.300 790 749.760 797.750 M 459 802.511 C 459 805.078, 465.480 810.760, 469.780 811.964 C 475.265 813.500, 486.245 814.364, 490.389 813.587 C 494.001 812.909, 494.007 812.898, 493.381 808.704 C 492.438 802.380, 492.109 802.252, 474.750 801.469 C 460.136 800.809, 459 800.884, 459 802.511 M 181.485 809.750 C 183.780 831.332, 196.147 861.068, 207.302 871.825 L 210.751 875.151 229.125 854.996 C 253.515 828.244, 259.295 821.170, 258.434 819.125 C 258.058 818.231, 256.892 814.800, 255.844 811.500 C 254.795 808.200, 253.191 804.938, 252.278 804.250 C 251.023 803.306, 242.081 803, 215.692 803 L 180.767 803 181.485 809.750 M 790.106 811.965 C 789.406 814.696, 787.553 818.698, 785.988 820.858 L 783.142 824.786 787.747 830.143 C 790.280 833.089, 798.741 844.050, 806.549 854.500 C 826.512 881.216, 825.106 880.537, 834.955 868.217 C 847.309 852.761, 856.743 833.449, 858.617 819.778 C 859.216 815.409, 859.210 815.400, 855.358 814.186 C 852.309 813.225, 798.006 807, 792.672 807 C 791.958 807, 790.808 809.226, 790.106 811.965 M 622.199 811.727 L 618.898 812.134 619.546 816.817 C 620.537 823.966, 623.004 835.880, 624.080 838.711 C 624.911 840.896, 625.468 841.156, 628.165 840.617 C 629.883 840.273, 636.397 839.701, 642.640 839.344 C 651.570 838.834, 653.770 838.428, 652.953 837.443 C 652.381 836.754, 650.849 831.164, 649.547 825.019 C 648.246 818.875, 646.900 813.566, 646.556 813.222 C 645.082 811.749, 629.686 810.804, 622.199 811.727 M 656.025 814.470 C 654.440 816.379, 655.670 824.358, 658.863 832.881 L 660.593 837.500 670.047 837.339 C 681.802 837.139, 734.163 834.170, 734.657 833.676 C 734.857 833.477, 733.506 831.330, 731.657 828.907 C 729.807 826.483, 727.338 822.626, 726.170 820.335 C 723.187 814.485, 721.813 814.242, 687.460 813.467 C 660.041 812.849, 657.298 812.936, 656.025 814.470 M 602.500 825.030 C 571.400 842.533, 547.104 849.604, 518.754 849.402 C 506.982 849.318, 505.177 849.508, 506.187 850.725 C 510.598 856.041, 526.416 859.147, 538.723 857.115 C 548.162 855.557, 554.202 853.474, 577.500 843.744 C 609.980 830.180, 612.355 828.829, 611.807 824.233 C 611.367 820.535, 610.327 820.624, 602.500 825.030 M 313.279 826.244 C 310.941 826.722, 305.587 829.454, 301.279 832.367 L 293.500 837.627 292.696 849.064 C 291.788 861.973, 292.407 902.512, 293.555 905.370 C 294.210 907.001, 295.020 907.157, 299.903 906.592 C 319.076 904.376, 334.855 896.664, 353.513 880.392 C 364.910 870.452, 365.132 870.923, 335.722 842.804 L 317.500 825.382 313.279 826.244 M 239.750 853.153 C 227.238 867.527, 217 879.950, 217 880.759 C 217 884.677, 233.450 895.700, 247.257 901.034 C 257.282 904.906, 266.906 906.897, 277.228 907.232 L 285.500 907.500 285.762 871.912 L 286.025 836.324 280.707 835.134 C 277.783 834.479, 273.070 832.381, 270.234 830.472 C 267.399 828.562, 264.499 827.004, 263.789 827.009 C 263.080 827.014, 252.262 838.778, 239.750 853.153 M 769.712 833.440 C 760.477 838.558, 761.134 836.267, 760.377 866.010 C 760.007 880.580, 760.031 895.538, 760.431 899.250 L 761.159 906 764.992 906 C 779.551 906, 803.422 896.495, 815.221 886 L 819.156 882.500 813.881 875.006 C 798.293 852.863, 779.512 829.941, 777.100 830.116 C 776.220 830.180, 772.895 831.676, 769.712 833.440 M 604.532 839.277 L 598.565 842.500 602.032 842.833 C 608.446 843.449, 616.220 842.016, 615.576 840.337 C 615.259 839.512, 615 838.198, 615 837.418 C 615 835.101, 610.923 835.825, 604.532 839.277 M 739.349 839.158 C 735.952 842.762, 718.648 868.955, 710.067 883.482 L 704.792 892.413 706.887 894.109 C 713.053 899.102, 737.371 906, 748.806 906 L 753.799 906 754.505 893.750 C 755.493 876.609, 754.770 839.369, 753.423 838.023 C 752.831 837.431, 750.131 836.692, 747.423 836.382 C 742.812 835.852, 742.300 836.028, 739.349 839.158 M 712.500 841.053 C 706.450 841.473, 692.837 842.378, 682.250 843.064 C 671.663 843.749, 663 844.706, 663 845.188 C 663 846.922, 668.321 856.615, 672.503 862.500 C 676.926 868.725, 696.126 888, 697.904 888 C 699.176 888, 722.630 852.565, 726.907 844.183 L 729.041 840 726.270 840.145 C 724.747 840.224, 718.550 840.633, 712.500 841.053 M 576 853.799 C 562.315 857.714, 547.845 863.964, 548.207 865.804 C 549.306 871.377, 561.893 872.913, 578.417 869.490 C 588.968 867.305, 593.503 865.380, 596.504 861.813 C 604.300 852.548, 594.187 848.596, 576 853.799" stroke="none" fill="#1a1a1a" fill-rule="evenodd"/>
</svg>