<svg xmlns="http://www.w3.org/2000/svg" width="1024" height="1024" viewBox="0 0 1024 1024" version="1.1">
	<path d="M 326.500 6.808 C 263.030 39.781, 212.772 103.047, 192.094 176 C 179.642 219.931, 179.759 275.927, 192.394 319.673 C 206.999 370.240, 227.940 404.576, 280.966 464.896 C 306.513 493.958, 333.214 525.504, 336.070 530 C 337.643 532.475, 339.395 535.044, 339.965 535.708 C 340.534 536.372, 340.994 537.722, 340.986 538.708 C 340.955 542.577, 346.395 566.590, 347.633 568.049 C 349.219 569.919, 350.607 582.239, 352.012 606.901 C 353.139 626.688, 353.883 634.970, 359.556 690.794 C 361.585 710.756, 363.023 727.311, 362.751 727.582 C 362.480 727.853, 361.108 727.551, 359.703 726.911 C 356.021 725.233, 352.296 726.526, 350.434 730.128 L 348.831 733.228 347.349 730.364 C 340.588 717.297, 329.129 716.867, 325.445 729.542 C 324.306 733.459, 323.406 734.916, 322.186 734.818 C 315.260 734.263, 312.495 737.894, 313.217 746.599 C 313.616 751.411, 313.457 751.919, 311.397 752.437 C 306.343 753.705, 304.574 758.776, 307.185 764.508 C 308.873 768.212, 318.868 775.405, 329.546 780.599 C 338.226 784.822, 338.764 785.270, 339.959 789.276 C 343.283 800.418, 353.479 818.009, 363.037 829.090 L 367.859 834.680 369.481 849.590 C 370.945 863.051, 372.436 872.107, 374.556 880.414 C 375.217 883.005, 375.088 883.245, 373.400 882.575 C 372.355 882.160, 368.095 881.577, 363.933 881.280 C 356.448 880.745, 356.325 880.775, 352.526 884.111 C 341.225 894.034, 343.119 912.753, 356.111 919.543 C 359.053 921.081, 358.954 920.550, 363.490 959 C 367.049 989.163, 370.637 1006.141, 376.222 1019.250 C 378.241 1023.987, 378.260 1024, 383.103 1024 L 387.959 1024 384.928 1019.700 C 381.570 1014.935, 374.748 995.706, 376.216 995.142 C 376.728 994.945, 383.976 995.357, 392.323 996.058 C 413.476 997.832, 412.562 997.858, 412.155 995.500 C 411.965 994.400, 411.716 993.401, 411.602 993.281 C 411.157 992.810, 377.972 989.912, 376.289 990.197 C 374.416 990.514, 372.124 980.213, 370.457 964 L 369.789 957.500 380.145 958.144 C 396.041 959.133, 408.820 959.100, 409.457 958.069 C 410.606 956.210, 411.026 956.270, 376.377 953.334 L 369.253 952.730 368.574 944.615 C 368.200 940.152, 367.288 933.350, 366.548 929.500 C 365.807 925.650, 365.269 922.427, 365.351 922.338 C 365.433 922.249, 370.225 922.799, 376 923.560 C 381.775 924.321, 393.382 925.479, 401.794 926.134 L 417.088 927.324 416.566 929.912 C 415.912 933.152, 417.464 959.797, 418.358 960.692 C 419.450 961.783, 443.839 963.251, 448.721 962.519 C 457.021 961.274, 452.099 959.070, 439.954 958.592 C 434.190 958.365, 427.860 957.877, 425.886 957.506 L 422.297 956.833 421.709 945.141 C 421.386 938.710, 420.629 932.155, 420.028 930.573 L 418.934 927.697 431.717 928.360 C 481.630 930.946, 563.378 930.946, 583.250 928.358 C 588.974 927.613, 588.863 927.012, 585.901 942.750 L 583.783 954 580.142 954.006 C 578.139 954.009, 572 954.707, 566.500 955.556 C 561 956.405, 551.987 957.665, 546.470 958.355 C 534.880 959.805, 532.776 960.632, 535.540 962.653 C 538.225 964.617, 542.775 964.346, 563.714 960.979 C 574.046 959.317, 584.136 957.711, 586.135 957.410 L 589.770 956.863 590.907 947.182 C 591.533 941.857, 592.292 935.432, 592.595 932.905 L 593.145 928.310 609.323 926.592 C 618.220 925.647, 627.546 924.629, 630.046 924.330 L 634.592 923.786 633.370 936.480 C 632.697 943.463, 631.923 949.757, 631.651 950.468 C 631.306 951.366, 628.112 951.883, 621.194 952.161 C 615.716 952.381, 610.618 953.050, 609.867 953.646 C 609.115 954.243, 607.150 955.231, 605.500 955.841 C 602.458 956.965, 625.126 956.499, 629.250 955.352 C 630.457 955.016, 630.993 955.429, 630.979 956.683 C 630.940 960.100, 627.279 987.054, 626.787 987.546 C 626.518 987.816, 622.293 988.504, 617.399 989.076 C 598.293 991.309, 596.199 994.683, 614.236 994.175 L 625.772 993.849 624.499 999.326 C 622.217 1009.146, 619.866 1015.022, 616.409 1019.551 L 613.013 1024 617.521 1024 C 622.968 1024, 624.659 1021.811, 628.480 1009.813 C 632.676 996.635, 640 944.915, 640 928.455 C 640 924.085, 640.343 923.026, 641.922 922.525 C 648.545 920.423, 654.003 908.691, 653.996 896.568 C 653.989 883.244, 649.335 879.476, 633.809 880.223 C 628.414 880.483, 624 880.414, 624 880.071 C 624 879.727, 624.883 873.158, 625.963 865.473 C 628.587 846.785, 630.387 824.812, 633.985 767.500 C 635.642 741.100, 638.099 708.475, 639.445 695 C 642.623 663.165, 644.668 633.282, 646.074 598.146 C 647.032 574.175, 647.462 569.537, 648.854 568.139 C 649.816 567.172, 651.871 560.256, 653.801 551.493 C 655.616 543.247, 658.161 534.250, 659.457 531.500 C 660.861 528.519, 675.647 509.941, 696.069 485.500 C 760.553 408.321, 771.248 393.715, 785.961 362.738 C 817.370 296.609, 820.569 216.902, 794.519 149.500 C 770.266 86.745, 724.208 35.467, 666.602 7.084 L 652.224 0 640.862 0.017 L 629.500 0.034 640 3.530 C 671.303 13.950, 706.817 37.422, 734 65.657 C 758.850 91.468, 780.940 128.615, 793.076 165 C 813.172 225.245, 807.965 302.987, 780.050 359.500 C 764.329 391.325, 751.431 409.121, 699.603 470.500 C 683.813 489.200, 666.785 509.788, 661.764 516.250 L 652.636 528 630.211 528 C 610.966 528, 607.865 527.793, 608.346 526.541 C 608.654 525.738, 612.457 519.776, 616.796 513.291 C 654.039 457.638, 688.535 397.142, 702.710 362.625 C 740.270 271.158, 738.521 173.859, 697.857 92.726 C 680.614 58.323, 656.919 29.441, 628.519 8.209 L 617.538 0 610.528 0 L 603.517 0 612.290 5.250 C 669.722 39.618, 710.495 109.105, 721.576 191.500 C 723.962 209.237, 723.998 247.408, 721.647 265.500 C 714.848 317.815, 700.228 360.199, 669.993 415.245 C 652.896 446.370, 643.543 461.638, 620 496.844 L 599.500 527.500 574.244 527.500 C 553.195 527.500, 549.076 527.270, 549.512 526.121 C 549.800 525.363, 550.543 522.663, 551.163 520.121 C 551.783 517.580, 554.979 508.750, 558.264 500.500 C 597.045 403.124, 619.216 293.129, 616.516 211.500 C 613.783 128.867, 601.065 70.384, 574.900 20.139 C 563.858 -1.066, 564.704 -0, 558.903 -0 L 554.037 0 559.885 8.906 C 592.277 58.237, 612.954 146.872, 610.645 226.500 C 607.926 320.264, 591.035 396.730, 547.580 512 L 542.114 526.500 529.307 527.137 C 522.263 527.487, 503.655 527.529, 487.955 527.231 L 459.410 526.688 455.546 513.094 C 433.316 434.879, 423.867 385.976, 416.303 310 C 414.087 287.741, 413.767 211.105, 415.802 190 C 420.891 137.210, 427.054 104.983, 438.943 69 C 446.595 45.841, 460.658 16.707, 470.681 3.250 L 473.102 0 468.725 0 L 464.349 0 458.282 10.250 C 424.456 67.398, 407.499 146.303, 407.726 245.500 C 407.917 329.073, 420.081 410.969, 446.165 504.289 C 449.515 516.273, 452.075 526.258, 451.855 526.479 C 451.634 526.699, 440.214 527.154, 426.477 527.490 L 401.500 528.102 390.096 510.440 C 343.558 438.360, 329.720 413.475, 314.508 374.500 C 291.678 316.009, 285.982 285.895, 287.304 230.682 C 288.110 197.036, 291.745 172.547, 299.977 145.305 C 319.167 81.801, 353.455 30.965, 395.405 3.821 L 401.310 0 395.188 0 L 389.067 0 379.283 7.874 C 329.792 47.709, 294.088 116.843, 283.419 193.500 C 281.205 209.411, 280.337 257.636, 281.955 274.888 C 286.862 327.214, 306.990 384.107, 341.963 444.500 C 359.840 475.372, 372.223 495.456, 384.567 513.601 L 394.841 528.703 370.206 529.418 L 345.572 530.133 343.536 527.328 C 341.386 524.366, 325.522 505.886, 287.058 461.538 C 239.547 406.760, 223.820 383.888, 209.595 348.884 C 186.897 293.029, 182.846 230.745, 198.497 178.216 C 223.098 95.643, 281.057 29.430, 351.500 3.423 L 360.500 0.100 350 0.077 L 339.500 0.054 326.500 6.808 M 853.362 418.432 C 834.794 422.658, 820.631 437.138, 815.638 457 C 814.102 463.109, 813.745 463.233, 805.773 460.420 C 790.779 455.130, 772.101 468.760, 772.022 485.050 L 772 489.599 764.613 491.773 C 749.937 496.090, 742.485 505.442, 742.519 519.500 C 742.551 532.732, 748.531 541.148, 762.570 547.723 C 774.034 553.092, 797.875 551.210, 807.785 544.153 L 810.612 542.140 813.430 545.672 C 824.521 559.573, 857.924 567.864, 881 562.444 C 893.789 559.440, 912.349 548.068, 914.164 542.124 C 914.497 541.032, 915.476 541.202, 918.898 542.948 C 948.265 557.930, 989.349 539.501, 989.187 511.419 C 989.095 495.446, 974.920 480.157, 961.134 481.160 L 956.463 481.500 956.465 475.986 C 956.471 457.337, 931.883 444.871, 915.925 455.431 L 912.283 457.841 911.038 452.171 C 905.750 428.091, 879.189 412.553, 853.362 418.432 M 851.300 425.862 C 834.735 431.586, 822.900 448.070, 819.509 470.145 L 818.949 473.790 811.968 470.208 C 802.062 465.126, 795.239 464.735, 788.791 468.878 C 779.955 474.556, 775.018 484.327, 778.388 489.469 C 781.431 494.113, 780.605 495.494, 774.749 495.555 C 768.725 495.617, 759.197 499.524, 754.624 503.807 C 746.289 511.612, 745.813 524.749, 753.538 533.773 C 765.039 547.210, 789.740 548.404, 807.844 536.399 C 810.783 534.449, 813.315 533, 813.471 533.177 C 813.627 533.355, 814.668 535.300, 815.785 537.500 C 820.873 547.519, 834.546 554.342, 854.814 556.976 C 878.266 560.024, 904.054 550.371, 910.093 536.284 C 912.254 531.241, 911.925 531.331, 916.602 534.505 C 931.705 544.754, 962.915 541.816, 975.830 528.929 C 986.175 518.606, 986.158 502.214, 975.794 493.474 C 970.266 488.813, 966.381 487.682, 958.250 488.365 L 951 488.974 950.994 482.737 C 950.986 473.731, 949.392 469.129, 944.632 464.368 C 936.666 456.403, 925.777 456.183, 911.836 463.707 C 905.837 466.945, 905.407 466.566, 904.716 457.434 C 903.487 441.171, 893.536 429.979, 876.320 425.495 C 868.590 423.482, 857.728 423.641, 851.300 425.862 M 415 534.034 C 374.721 534.899, 348.542 536.125, 347.473 537.194 C 346.206 538.461, 351.633 562.511, 353.083 562.054 C 353.863 561.809, 419.953 561.528, 499.952 561.430 L 645.403 561.252 647.730 550.376 C 649.009 544.394, 650.302 538.375, 650.603 537 L 651.150 534.500 637.325 534.456 C 629.721 534.432, 585.700 534.131, 539.500 533.787 C 493.300 533.444, 437.275 533.555, 415 534.034 M 147.348 564.420 C 134.796 567.464, 121.920 577.227, 115.588 588.500 C 112.467 594.057, 108 606.291, 108 609.282 C 108 610.743, 107.573 611.030, 106.250 610.459 C 97.761 606.795, 86.776 608.001, 79.736 613.371 C 74.823 617.118, 69 627.466, 69 632.448 L 69 635.722 62.894 636.276 C 33.621 638.930, 21.481 674.113, 42.564 695.195 C 57.734 710.366, 81.999 713.558, 106.121 703.557 C 107.321 703.060, 108.440 704.075, 110.424 707.461 C 115.327 715.827, 128.568 724.291, 140.799 726.879 C 158.398 730.602, 179.605 724.511, 193.557 711.726 L 200.093 705.738 203.796 707.364 C 221.282 715.043, 250.584 713.998, 269.788 705.012 C 277.442 701.430, 287.237 692.356, 290.848 685.500 C 294.713 678.162, 294.693 664.804, 290.805 657.410 C 286.494 649.212, 275.071 641.037, 267.889 641.010 C 265.491 641.001, 265.229 640.578, 264.664 635.811 C 263.787 628.409, 259.842 621.086, 253.498 615.086 C 241.205 603.461, 228.118 601.385, 213.750 608.781 C 213.338 608.993, 213 607.850, 213 606.240 C 213 598.062, 205.669 583.656, 198.026 576.813 C 184.981 565.133, 164.777 560.192, 147.348 564.420 M 451 566.685 C 444.675 566.893, 420.750 567.386, 397.832 567.782 C 374.915 568.177, 355.948 568.725, 355.682 569 C 355.417 569.275, 355.841 574.900, 356.624 581.500 C 357.407 588.100, 358.462 603.175, 358.969 615 C 359.475 626.825, 360.824 644.150, 361.967 653.500 C 364.836 676.965, 369 720.844, 369 727.606 C 369 731.467, 369.581 734.011, 370.882 735.846 C 374.971 741.614, 376.188 747.778, 375.849 761 L 375.528 773.500 378.865 778.328 C 382.206 783.160, 395.144 794.147, 401.565 797.605 C 404.836 799.367, 405.104 799.370, 407.964 797.681 C 410.846 795.978, 411.383 796.001, 423.724 798.375 C 434.955 800.535, 442.352 801.588, 460 803.539 C 464.047 803.987, 463.631 803.701, 455.858 800.697 C 431.704 791.361, 416.884 776.571, 411.989 756.920 C 410.904 752.564, 410.614 752.279, 406.095 751.121 C 400.232 749.618, 394.755 744.544, 392.433 738.463 C 388.598 728.422, 392.474 711.687, 399.999 705.798 C 402.998 703.451, 403.033 703.323, 401.624 699.949 C 399.380 694.575, 395.696 665.636, 396.219 657.489 C 396.733 649.480, 399.785 641.785, 405.579 633.892 C 408.112 630.442, 408.725 629, 407.658 629 C 404.932 629, 402 624.046, 402 619.442 C 402 611.174, 408.418 606.819, 416.423 609.655 C 420.345 611.044, 420.557 611.012, 421.986 608.800 C 433.376 591.177, 459.296 577.439, 487.500 574.078 C 519.176 570.303, 543.145 575.961, 563.653 592.053 L 569.806 596.882 571.040 593.903 C 572.478 590.432, 574.728 589, 578.746 589 C 584.699 589, 589 596.105, 589 605.941 L 589 611.946 598.315 611.335 C 611.380 610.476, 615 611.736, 615 617.143 C 615 621.890, 613.715 624.737, 610.257 627.656 L 607.702 629.813 611.708 636.156 C 621.140 651.092, 623.961 659.793, 623.985 674.025 C 624.010 688.254, 615.464 718.556, 610.042 723.462 C 608.231 725.101, 608.270 725.301, 611.338 730.239 C 619.043 742.639, 612.944 765.528, 600.343 771.508 C 595.539 773.787, 585.095 773.947, 581.805 771.792 C 579.487 770.273, 579.346 770.322, 578.132 773.063 C 576.166 777.505, 562.124 790.046, 553.828 794.769 C 549.704 797.116, 541.216 800.941, 534.967 803.269 L 523.604 807.500 532.552 808.140 C 555.339 809.770, 575.712 823.496, 592.062 848.233 C 598.964 858.675, 600.735 863.259, 599.069 866.371 C 598.098 868.184, 598.474 869.745, 601.414 876.107 L 604.914 883.683 611.638 882.580 L 618.361 881.477 620.109 871.489 C 621.808 861.784, 623.268 842.751, 626.514 788 C 629.137 743.750, 631.880 708.046, 635.118 676 C 637.921 648.259, 639.644 612.630, 639.935 576.380 L 640 568.260 583.750 567.625 C 475.264 566.401, 462.408 566.310, 451 566.685 M 470.250 567.728 C 472.313 567.944, 475.688 567.944, 477.750 567.728 C 479.813 567.513, 478.125 567.336, 474 567.336 C 469.875 567.336, 468.188 567.513, 470.250 567.728 M 148.251 570.545 C 129.172 575.683, 114 595.898, 114 616.182 C 114 619.382, 113.839 622, 113.642 622 C 113.445 622, 110.263 620.425, 106.569 618.500 C 101.972 616.104, 98.537 615.007, 95.677 615.022 C 84.452 615.081, 74 625.839, 74 637.334 L 74 641.731 67.234 642.215 C 40.963 644.095, 29.035 670.747, 46.105 689.425 C 58.848 703.367, 82.941 707.192, 102.772 698.422 C 109.991 695.230, 109.952 695.218, 114 701.698 C 126.183 721.199, 155.069 726.729, 179.853 714.307 C 188.689 709.878, 196 703.191, 196 699.537 C 196 696.284, 196.432 696.327, 204.970 700.418 C 223.726 709.407, 255.079 707.687, 272.208 696.730 C 289.549 685.637, 293.195 667.128, 280.534 654.466 C 274.620 648.553, 269.185 646.512, 261.985 647.502 C 255.968 648.330, 255.732 647.895, 257.171 638.639 C 258.339 631.123, 258.332 631.071, 255.401 626.330 C 245.947 611.039, 224.126 606.438, 212.301 617.243 C 208.535 620.685, 207.311 619.045, 206.769 609.831 C 206.108 598.598, 203.244 591.457, 196.457 584.127 C 184.885 571.627, 165.018 566.030, 148.251 570.545 M 486.097 580.543 C 468.935 583.560, 446.134 592.977, 435.712 601.352 C 429.934 605.995, 425.763 612.010, 427.157 613.690 C 428.002 614.708, 427.860 615.497, 426.577 616.915 C 424.821 618.855, 419.899 618.900, 413.924 617.031 C 411.024 616.124, 408 617.381, 408 619.493 C 408 621.716, 412.125 624, 416.141 624 C 423.192 624, 425.591 626.901, 420.117 628.809 C 416.587 630.040, 409.035 640.308, 405.985 648.021 C 402.073 657.918, 402.284 672.177, 406.667 693.960 C 407.996 700.565, 411.840 710.320, 411.956 707.381 C 412.322 698.113, 416.645 683.428, 423.291 668.874 L 426.773 661.249 423.005 660.120 C 419.239 658.991, 416.201 656.466, 417.295 655.372 C 417.613 655.053, 422.074 655.549, 427.206 656.473 C 436.397 658.128, 436.620 658.121, 441.977 656.009 C 450.319 652.721, 459.180 647.463, 466.519 641.448 C 473.188 635.982, 475 635.464, 475 639.024 C 475 643.696, 461.209 654.179, 451.250 657.079 C 439.476 660.507, 454.209 660.770, 469.244 657.400 C 482.271 654.481, 490.215 650.108, 495.183 643.122 C 499.697 636.776, 501.466 635.741, 502.458 638.868 C 503.567 642.362, 500.919 646.487, 492.203 654.846 L 483.500 663.192 491.120 662.620 C 505.715 661.524, 523.125 654.636, 534.290 645.541 C 540.568 640.428, 542 640.004, 542 643.260 C 542 645.845, 535.488 652.980, 529.555 656.896 L 525.610 659.500 528.711 659.806 C 536.105 660.537, 552.566 652.904, 562.025 644.359 C 567.667 639.262, 569.155 640.209, 567.223 647.668 C 564.447 658.391, 569.689 679.745, 580.808 703 L 585.828 713.500 585.921 706.500 C 585.973 702.572, 585.076 695.429, 583.877 690.222 C 581.812 681.253, 581.801 680.877, 583.553 678.941 C 585.059 677.277, 585.591 677.162, 586.693 678.264 C 590.806 682.377, 592.313 709.023, 589.124 721.250 C 588.156 724.962, 587.491 728, 587.647 728 C 587.803 728, 590.051 726.655, 592.642 725.012 C 595.233 723.369, 598.860 721.742, 600.702 721.396 C 604.876 720.613, 608.018 715.608, 612.881 702 C 620.803 679.834, 617.381 655.360, 603.458 634.600 C 598.184 626.736, 598.120 626.352, 601.953 625.510 C 605.675 624.693, 610 621.346, 610 619.283 C 610 617.923, 608.956 617.815, 602.250 618.482 C 586.084 620.090, 586.295 620.188, 584.926 610.395 C 583.110 597.402, 579.934 592.400, 576.559 597.219 C 574.437 600.249, 574.601 603.329, 577 605.500 C 579.526 607.786, 579.553 609.690, 577.070 610.478 C 575.588 610.948, 573.130 609.099, 566.494 602.522 C 557.094 593.207, 542.577 584.942, 529.500 581.461 C 520.891 579.169, 496.810 578.660, 486.097 580.543 M 554.659 658.588 C 546.282 664.441, 528.666 668.728, 522.582 666.393 C 521.712 666.059, 521 664.700, 521 663.373 L 521 660.959 517.250 662.843 C 507.575 667.701, 497.931 669.481, 486.455 668.525 C 477.368 667.768, 476.282 666.938, 478.579 662.510 C 479.361 661.004, 480 659.645, 480 659.491 C 480 659.336, 477.188 660.143, 473.750 661.285 C 467.523 663.352, 444.395 664.380, 435.150 663 L 431.801 662.500 427.521 672 C 420.315 687.992, 418.049 697.256, 416.449 717.250 C 415.784 725.564, 413.731 727.916, 412.521 721.750 C 411.521 716.652, 409.965 714.228, 406.872 712.947 C 402.519 711.144, 399.450 713.644, 397.413 720.652 C 394.354 731.173, 397.488 740.139, 405.857 744.814 L 410 747.128 410 743.564 C 410 741.087, 410.451 740, 411.477 740 C 413.806 740, 415.624 743.747, 418.384 754.236 C 422.633 770.388, 428.615 778.788, 441.794 787.111 C 472.246 806.344, 506.526 808.549, 542 793.558 C 559.358 786.223, 569.296 777.184, 574.758 763.762 C 577.872 756.111, 578.272 755.828, 580.014 760.034 C 583.553 768.577, 596.603 769.578, 603.716 761.850 C 610.558 754.418, 610.842 733.662, 604.150 730.080 C 599.221 727.442, 591.632 730.568, 586.199 737.474 C 584.959 739.050, 583.343 740.016, 582.292 739.808 C 580.672 739.487, 580.529 738.349, 580.804 727.976 L 581.108 716.500 576.461 706.500 C 564.781 681.365, 561 670.141, 561 660.606 C 561 654.122, 561.035 654.133, 554.659 658.588 M 777.500 667.388 C 760.892 671.432, 748.762 683.844, 743.768 701.904 L 741.500 710.104 738.399 709.535 C 722.769 706.665, 700.687 719.162, 692.500 735.510 C 688.202 744.092, 688.123 757.623, 692.320 766.215 C 697.942 777.722, 708.879 786.285, 722.093 789.523 C 730.857 791.671, 748.775 791.256, 753.715 788.792 L 756.876 787.215 759.372 790.987 C 773.825 812.826, 817.643 815.637, 838.349 796.054 L 843.693 791 846.920 792.610 C 864.484 801.372, 897.686 796.548, 912.256 783.118 C 925.841 770.596, 927.358 751.589, 915.821 738.449 C 909.652 731.423, 897.288 727.446, 888.855 729.774 L 885.220 730.778 884.565 726.681 C 882.445 713.422, 871.313 701.762, 858.061 698.920 C 852.039 697.628, 843.416 699.098, 839.653 702.058 C 836.588 704.470, 836 704.486, 836 702.160 C 836 698.464, 829.590 687.633, 824.117 682.079 C 811.660 669.439, 793.098 663.589, 777.500 667.388 M 775.500 675.059 C 759.952 680.103, 749.493 694.322, 748.330 712 C 747.630 722.640, 747.725 722.509, 742.762 719.601 C 736.707 716.053, 731.429 715.443, 724.419 717.481 C 698.196 725.104, 687.188 749.873, 701.450 769.167 C 712.313 783.864, 738.111 790.106, 754.156 781.921 C 759.069 779.414, 759.268 779.450, 760.906 783.150 C 765.517 793.567, 784.533 802.965, 801 802.965 C 816.303 802.965, 840 792.038, 840 784.982 C 840 781.795, 841.585 781.896, 847.504 785.460 C 855.078 790.021, 862.150 791.401, 874.225 790.673 C 899.957 789.122, 917.018 776.001, 916.991 757.782 C 916.966 741.419, 902.277 731.346, 886.535 736.897 C 878.198 739.836, 878.412 739.973, 878.459 731.750 C 878.506 723.458, 875.908 717.761, 869.525 712.156 C 858.853 702.786, 847.539 702.674, 837.738 711.842 C 832.106 717.110, 831.579 716.815, 830.644 707.868 C 828.136 683.873, 799.976 667.119, 775.500 675.059 M 457.308 679.963 C 454.665 682.369, 452.905 682.987, 447.058 683.563 C 440.537 684.206, 440 684.435, 440 686.584 C 440 692.976, 462.863 689.776, 463.813 683.251 C 464.139 681.012, 462.454 676.978, 461.215 677.029 C 460.822 677.045, 459.064 678.366, 457.308 679.963 M 536.677 680.805 C 535.064 682.587, 535.025 683.123, 536.289 686.143 C 538.991 692.598, 550.058 700.704, 554.608 699.562 C 558.167 698.669, 557.452 696.749, 552.721 694.500 C 550.241 693.321, 547.193 690.653, 545.293 688 C 538.273 678.194, 538.709 678.559, 536.677 680.805 M 453.335 715.574 C 449.987 718.922, 448 724.071, 448 729.396 C 448 743.055, 461.603 736.131, 462.210 722.163 C 462.550 714.364, 457.956 710.953, 453.335 715.574 M 533.567 719.946 C 529.508 722.622, 528.077 725.641, 528.035 731.615 C 527.951 743.848, 538.772 745.524, 543.386 733.993 C 548.012 722.432, 542.266 714.212, 533.567 719.946 M 403.465 721.057 C 401.888 723.609, 406.672 733, 409.549 733 C 411.892 733, 412.429 728.305, 410.435 725.243 C 407.481 720.703, 404.711 719.040, 403.465 721.057 M 331.174 730.314 C 328.106 733.581, 328.366 734.526, 334.048 740.743 C 339.221 746.403, 339.803 748.465, 336.768 750.376 C 335.330 751.282, 334.142 750.597, 329.768 746.339 C 323.678 740.411, 320.919 739.224, 318.605 741.537 C 315.440 744.703, 318.798 750.532, 324.902 752.469 C 327.464 753.282, 328.221 755.572, 326.422 757.065 C 325.470 757.855, 323.084 758.082, 319.562 757.719 C 311.375 756.874, 309.414 758.735, 313.754 763.232 C 317.576 767.192, 328.472 773.892, 335.324 776.495 C 340.019 778.279, 340.295 778.621, 345.646 789.292 C 353.022 803.998, 360.649 816.127, 367.470 824 C 378.326 836.528, 394.701 849.096, 398.346 847.698 C 399.655 847.195, 401.067 839.703, 403.534 820.184 C 404.320 813.960, 405.197 808.490, 405.482 808.029 C 405.767 807.568, 403.638 805.854, 400.750 804.219 C 392.315 799.445, 383.926 792.692, 375.584 783.960 L 367.801 775.814 368.650 771.157 C 371.486 755.613, 368.504 739.007, 362.076 734.553 C 355.382 729.914, 353.017 731.435, 355.580 738.732 C 357.210 743.374, 357.185 743.786, 354.627 754.330 C 353.182 760.287, 352 767.123, 352 769.521 C 352 775.652, 349.823 776.391, 347.083 771.191 C 345.611 768.398, 346.258 764.997, 350.115 755.243 C 352.961 748.046, 352.969 747.969, 351.034 746.034 C 349.961 744.961, 348.165 742.284, 347.044 740.086 C 344.315 734.737, 337.785 728, 335.329 728 C 334.240 728, 332.370 729.042, 331.174 730.314 M 483.500 734.502 C 475.320 737.394, 471.024 746.876, 475.750 751.610 C 477.417 753.280, 477.526 753.170, 478.056 749.268 C 478.769 744.012, 480.100 742.492, 485.829 740.395 C 491.951 738.155, 495.115 735.325, 493 733.982 C 490.948 732.681, 488.231 732.829, 483.500 734.502 M 590.898 742.282 C 588.763 743.716, 587.387 745.528, 587.196 747.155 C 586.772 750.764, 589.328 751.432, 592.723 748.599 C 594.250 747.324, 596.947 745.540, 598.716 744.633 C 600.844 743.542, 601.738 742.480, 601.359 741.492 C 600.493 739.237, 594.790 739.668, 590.898 742.282 M 487 754.839 C 487 756.046, 491.667 758, 494.547 758 C 497.484 758, 497.751 756.472, 495.066 755.035 C 492.747 753.794, 487 753.655, 487 754.839 M 466.667 762.667 C 464.959 764.374, 466.134 769.323, 468.849 771.859 C 477.765 780.188, 490.755 782.618, 502.258 778.108 C 509.601 775.229, 515.804 769.673, 514.043 767.552 C 512.996 766.290, 511.714 766.668, 504.858 770.257 C 498.446 773.614, 495.876 774.424, 491.695 774.408 C 485.109 774.381, 475.077 769.990, 471.004 765.351 C 467.845 761.754, 467.681 761.652, 466.667 762.667 M 411.639 811.774 C 410.938 820.179, 408.532 834.172, 405.079 849.923 C 403.943 855.106, 403.123 859.439, 403.257 859.552 C 403.390 859.665, 410.295 860.077, 418.599 860.467 L 433.698 861.176 434.805 851.432 C 436.003 840.889, 436.928 838.866, 439.556 841.046 C 441.477 842.641, 440.961 858.832, 438.430 876.418 C 437.645 881.873, 437.142 886.475, 437.313 886.646 C 438.410 887.743, 479.678 891, 492.477 891 L 508 891 508 888.035 C 508 883.865, 513.119 878.329, 518.341 876.851 C 520.629 876.204, 527.337 875.703, 533.250 875.737 L 544 875.799 544 865.765 C 544 855.476, 545.514 847.671, 547.389 848.296 C 548.930 848.810, 549.787 852.673, 549.900 859.614 C 549.997 865.539, 551.543 875.876, 552.471 876.804 C 553.397 877.731, 587.816 865.116, 591.850 862.371 C 592.043 862.240, 589.343 857.958, 585.850 852.855 C 571.571 831.993, 552.416 818.058, 533.883 815.051 C 524.564 813.539, 524.239 813.613, 522.118 817.750 C 515.159 831.327, 499.018 837.331, 485.750 831.279 L 481 829.112 481 835.997 C 481 843.585, 479.606 846.083, 478.639 840.230 C 477.720 834.671, 477.872 830.197, 479.005 829.497 C 479.563 829.152, 478.452 827.406, 476.512 825.576 C 472.947 822.214, 470 816.593, 470 813.157 C 470 810.851, 468.104 810.403, 452.140 808.938 C 441.062 807.921, 423.662 805.746, 415.903 804.408 L 412.305 803.788 411.639 811.774 M 476.360 810.300 C 478.367 818.294, 481.845 822.123, 489.369 824.623 C 499.820 828.094, 511.081 823.889, 514.860 815.105 C 517.919 807.993, 517.829 807.807, 511.750 808.716 C 505.011 809.723, 494.719 809.665, 484.102 808.561 L 475.705 807.688 476.360 810.300 M 374.400 843.146 C 374.670 844.441, 375.151 847.750, 375.468 850.500 C 375.785 853.250, 377.017 861.639, 378.206 869.143 L 380.366 882.786 384.433 883.358 C 386.670 883.672, 395.475 884.430, 404 885.042 C 412.525 885.653, 421.900 886.507, 424.834 886.939 C 431.042 887.854, 430.628 888.481, 431.460 876.914 L 432.078 868.328 417.239 867.182 C 409.078 866.551, 400.936 865.525, 399.146 864.901 C 395.684 863.694, 395.713 863.884, 397.668 855.369 C 398.096 853.504, 397.490 853.078, 392.829 851.967 C 386.992 850.576, 384.657 849.337, 378.205 844.207 C 374.130 840.967, 373.935 840.913, 374.400 843.146 M 574.047 877.091 L 559.594 883 542.547 883.022 C 524.021 883.046, 519.107 884.153, 515.656 889.081 C 513.560 892.073, 514.193 892.575, 517.406 890.470 C 518.824 889.541, 520.604 889.018, 521.360 889.308 C 523.211 890.018, 524.151 895, 522.434 895 C 520.889 895, 517 899.723, 517 901.600 C 517 903.434, 520.712 905.260, 522.457 904.284 C 523.243 903.844, 525.737 900.900, 527.998 897.742 C 532.401 891.593, 533.359 891.032, 534.861 893.716 C 535.544 894.936, 535.270 896.511, 533.910 899.176 C 531.509 903.884, 531.482 907.221, 533.829 909.345 C 537.733 912.878, 540.812 910.481, 545.104 900.568 C 547.820 894.295, 548.164 894.070, 549.943 897.394 C 550.974 899.320, 550.981 900.527, 549.980 903.561 C 548.865 906.939, 548.932 907.479, 550.617 908.731 C 552.339 910.010, 553.031 909.547, 558.715 903.314 C 562.133 899.567, 565.909 894.678, 567.106 892.452 L 569.283 888.404 583.218 886.577 L 597.154 884.751 596.535 882.126 C 595.827 879.125, 590.999 871.777, 589.500 871.420 C 588.950 871.289, 581.996 873.841, 574.047 877.091 M 613.500 889.074 C 601.950 890.654, 588.818 892.451, 584.318 893.067 L 576.136 894.187 571.125 900.926 C 564.960 909.217, 558.729 914.964, 555.747 915.111 C 551.862 915.302, 548.566 914.831, 546.656 913.813 C 545.250 913.063, 544.283 913.324, 542.591 914.914 C 538.164 919.073, 528.926 916.277, 526.887 910.160 C 526.533 909.099, 525.926 909.077, 523.797 910.047 C 517.795 912.781, 511 907.563, 511 900.220 L 511 895.713 500.253 896.261 C 483.310 897.126, 419.511 893.748, 380.781 889.936 C 364.338 888.318, 359.599 888.144, 357.822 889.095 C 348.842 893.901, 349.142 907.509, 358.340 912.613 C 364.756 916.174, 391.504 920.162, 421.500 922.030 C 448.815 923.732, 556.158 924.484, 574.683 923.103 C 616.385 919.995, 637.589 917.098, 642.136 913.887 C 647.629 910.009, 649.741 898.367, 646.050 892.314 C 642.108 885.850, 639.191 885.559, 613.500 889.074 M 499.526 967.750 C 498.056 971.486, 497.792 984.138, 498.980 993.839 C 500.436 1005.724, 498.417 1004.799, 517.881 1002.494 C 529.482 1001.120, 533 1000.038, 533 997.842 C 533 997.002, 524.730 997.234, 508.500 998.529 L 502.500 999.008 503.068 983.754 C 503.595 969.585, 503.174 966, 500.985 966 C 500.561 966, 499.904 966.788, 499.526 967.750 M 580.193 997.250 C 579.574 1000.138, 578.594 1006.325, 578.014 1011 C 577.435 1015.675, 576.736 1020.513, 576.461 1021.750 C 576.047 1023.617, 576.388 1024, 578.462 1024 C 581.327 1024, 581.307 1024.059, 583.472 1009.500 C 584.289 1004, 585.252 997.813, 585.610 995.750 C 586.218 992.252, 586.095 992, 583.790 992 C 581.618 992, 581.182 992.636, 580.193 997.250 M 424.529 1004.250 C 424.887 1008.237, 425.587 1013.075, 426.084 1015 C 426.582 1016.925, 426.991 1019.737, 426.994 1021.250 C 426.999 1023.293, 427.493 1024, 428.921 1024 C 431.410 1024, 432.541 1019.176, 431.090 1014.753 C 430.502 1012.964, 429.625 1009.362, 429.140 1006.750 L 428.258 1002 443.702 1002 C 457.847 1002, 459.118 1001.853, 458.811 1000.258 C 458.341 997.815, 454.657 997.254, 438.189 997.118 L 423.879 997 424.529 1004.250" stroke="none" fill="#1a1a1a" fill-rule="evenodd"/>
</svg>