<svg xmlns="http://www.w3.org/2000/svg" width="1024" height="1024" viewBox="0 0 1024 1024" version="1.1">
	<path d="M 491.500 26.589 C 454.619 30.232, 432.618 36.791, 416.603 48.919 C 409.108 54.595, 407.641 54.444, 409.104 48.148 C 410.496 42.159, 410.186 34.399, 408.498 32.998 C 406.386 31.246, 401.735 32.398, 396.568 35.953 C 388.495 41.508, 383.845 48.861, 382.469 58.250 C 381.649 63.846, 382.229 63.669, 375.717 60.306 C 365.780 55.176, 353.667 57.298, 346.113 65.493 C 337.315 75.038, 339.041 78.494, 352.614 78.517 C 358.051 78.526, 364.642 79.148, 367.260 79.899 L 372.020 81.266 367.051 83.568 C 322.225 104.336, 296.749 174.491, 313.198 231.869 C 317.174 245.740, 324.685 261.618, 329.994 267.378 L 334.211 271.952 332.976 277.099 C 326.679 303.349, 341.969 336.883, 365.264 347.913 C 376.325 353.150, 395.567 355.424, 407.087 352.854 C 408.115 352.624, 410.869 355.404, 414.915 360.756 C 427.305 377.142, 436.714 385.813, 452.210 395.126 L 460.319 400 455.910 400.057 C 416.998 400.558, 398.858 403.510, 351.500 417.047 C 320.849 425.808, 320.150 426.063, 318.681 429.031 C 317.921 430.565, 314.077 433.295, 308.533 436.239 C 277.097 452.929, 258.617 475.392, 237.500 522.583 L 229.500 540.461 219.500 550.984 C 207.587 563.520, 203.702 569.324, 199.886 580.286 C 192.942 600.234, 199.378 621.533, 214.133 627.436 C 216.477 628.375, 220.236 631.271, 222.778 634.098 C 228.939 640.950, 233.824 643.309, 242.540 643.641 C 246.965 643.810, 251.236 644.661, 254.040 645.933 C 263.456 650.204, 273.501 647.118, 280.250 637.880 C 282.312 635.057, 284 632.215, 284 631.564 C 284 630.914, 286.408 628.302, 289.352 625.761 C 299.925 616.633, 307.478 596.176, 305.151 582.967 C 303.779 575.176, 301.800 571.187, 296.967 566.468 C 294.785 564.337, 293 561.828, 293 560.892 C 293 556.948, 314.580 527.105, 327.452 513.250 C 333.985 506.218, 336 504.776, 336 507.136 C 336 508.942, 346.290 522.798, 348.528 524.006 C 350.161 524.887, 352.010 524.480, 358.028 521.913 C 366.578 518.265, 379 513.908, 379 514.556 C 379 517.563, 364.399 549.958, 352.339 573.709 C 343.903 590.324, 337 604.884, 337 606.065 C 337 607.245, 338.085 609.500, 339.410 611.076 L 341.820 613.940 338.898 621.720 C 325.163 658.289, 325.833 675.561, 342.114 704.604 L 346.965 713.258 342.046 718.640 C 336.831 724.346, 330.492 735.858, 329.421 741.570 C 328.666 745.593, 328.931 745.515, 324.210 743.109 C 322.170 742.069, 316.450 739.982, 311.500 738.472 C 303.133 735.919, 302.130 735.318, 297.234 729.934 C 294.338 726.749, 290.288 723.126, 288.234 721.883 C 286.180 720.641, 281.954 717.295, 278.842 714.450 C 268.256 704.769, 251.516 695.090, 245.246 695.024 C 244.007 695.011, 241.314 694.100, 239.261 693 C 223.923 684.779, 205.679 701.841, 176.557 751.641 C 155.739 787.242, 148.762 820.993, 158.251 840.194 C 163.249 850.305, 170.615 857.712, 180.566 862.630 C 190.862 867.719, 196.126 867.725, 206.376 862.659 C 218.018 856.905, 234.396 838.066, 242.157 821.500 C 244.866 815.719, 245.267 815.341, 250.119 813.996 C 252.110 813.445, 254.909 812.073, 256.339 810.948 C 258.328 809.383, 260.839 808.803, 267.017 808.478 L 275.095 808.054 280.400 812.375 C 292.537 822.261, 315.986 835.054, 331.361 840.177 C 352.741 847.301, 372.451 844.164, 391.346 830.631 C 397.916 825.925, 411 812.921, 411 811.097 C 411 810.494, 412.600 810, 414.556 810 C 418.770 810, 421.505 807.383, 429.193 796 C 431.978 791.875, 434.762 788.643, 435.379 788.817 C 438.519 789.706, 456.984 800.682, 460.190 803.567 C 466.349 809.108, 474.894 808.804, 482.564 802.771 C 483.893 801.725, 485.481 801.179, 486.092 801.557 C 488.261 802.897, 495.288 819.767, 501.689 839 C 508.898 860.658, 514.846 875.760, 520.945 887.890 C 523.551 893.074, 524.998 897.303, 524.995 899.728 C 524.987 906.022, 528.102 913.098, 533.109 918.156 L 537.718 922.813 538.227 932.156 C 538.865 943.881, 542.863 954.805, 550.335 965.242 C 553.193 969.234, 556.559 973.951, 557.815 975.725 L 560.100 978.949 529.800 978.891 C 499.226 978.832, 492.744 979.375, 492.231 982.040 C 491.889 983.819, 579.528 983.988, 593.966 982.235 C 600.974 981.385, 602.610 981.452, 603.466 982.623 C 604.346 983.827, 607.477 983.868, 624.500 982.902 C 642.851 981.860, 660.056 982.108, 678.750 983.683 C 684.926 984.203, 686 984.061, 686 982.726 C 686 981.028, 684.408 980.557, 673.500 979.024 C 665.673 977.923, 623.885 977.793, 611.449 978.831 C 598.039 979.949, 596.039 978.934, 606.040 976.083 C 643.150 965.508, 682.426 941.615, 696.161 921.261 C 715.400 892.750, 712.165 868.754, 687.500 857.015 C 670.061 848.715, 646.011 851.746, 632.651 863.926 C 629.027 867.229, 627.675 867.794, 622 868.369 C 618.425 868.731, 614.347 869.283, 612.938 869.595 C 610.695 870.091, 610.145 869.648, 608.514 866.031 C 607.490 863.760, 605.193 860.621, 603.411 859.056 C 599.840 855.921, 598.324 851.181, 584.519 800 C 573.319 758.479, 570.083 751.439, 554.905 735.562 C 549.862 730.288, 546.378 725.884, 546.961 725.524 C 549.116 724.193, 547.742 722.011, 538.630 712.293 L 529.259 702.300 532.127 689.900 C 533.705 683.080, 535.401 673.971, 535.897 669.657 C 536.707 662.613, 537.119 661.543, 539.945 659.157 C 542.777 656.766, 543.282 655.449, 544.990 646 C 546.034 640.225, 548.450 628.975, 550.358 621 C 552.267 613.025, 556.389 594.800, 559.518 580.500 C 562.647 566.200, 565.500 553.965, 565.859 553.311 C 566.292 552.521, 568.862 553.968, 573.506 557.616 C 596.838 575.944, 602.061 578.344, 607.911 573.421 L 610.975 570.843 619.738 574.829 C 638.726 583.466, 657.337 583.237, 679.084 574.100 C 693.192 568.172, 721.028 547.662, 730.768 536.018 L 736.398 529.286 741.449 530.631 C 751.818 533.392, 762.034 531.337, 773.418 524.199 C 776.925 522.001, 782.313 519.470, 785.392 518.575 C 799.137 514.579, 809 500.737, 809 485.445 C 809 480.816, 809.527 475.056, 810.172 472.646 C 811.438 467.915, 809.110 462.124, 804.132 457.620 C 802.328 455.987, 802.136 454.989, 802.661 449.967 C 802.993 446.790, 802.980 443.058, 802.633 441.673 C 801.208 435.998, 792.366 429, 786.619 429 C 784.688 429, 784.014 428.342, 783.487 425.941 C 781.826 418.377, 772.523 412.571, 762 412.530 C 753.152 412.495, 749.668 413.937, 741.642 420.961 C 737.353 424.714, 735.129 425.903, 731.336 426.469 C 721.520 427.933, 714.623 432.906, 708.595 442.863 C 702.282 453.292, 700.865 462.543, 703.568 475.681 C 704.208 478.794, 704.073 478.938, 697.327 482.335 C 684.257 488.918, 654.210 501, 650.912 501 C 650.401 501, 650.529 500.125, 651.197 499.056 C 652.856 496.399, 651.410 494.942, 635.516 483.252 C 628.357 477.988, 614.625 467.740, 605 460.480 C 585.417 445.710, 574.053 438.096, 563.052 432.374 L 555.603 428.500 569.552 427.873 C 613.119 425.916, 649.966 407.145, 674.325 374.500 C 691.257 351.808, 694.917 331.508, 687.665 300.500 C 682.369 277.854, 682.280 275.606, 685.866 254.933 C 687.543 245.270, 689.477 232.298, 690.166 226.106 C 691.156 217.205, 691.788 214.649, 693.184 213.902 C 695.873 212.462, 705.501 199.976, 709.420 192.845 C 719.882 173.810, 717.910 150.273, 704.020 128.370 L 701.032 123.659 703.782 121.986 C 717.053 113.916, 724.918 94.365, 722.252 76.073 C 719.993 60.576, 718.140 58.896, 708.386 63.511 C 698.720 68.084, 691.529 69.483, 678 69.423 C 659.073 69.339, 645.417 65.062, 613.500 49.224 C 596.313 40.696, 570.136 32.516, 548.868 29.028 C 537.664 27.191, 501.133 25.638, 491.500 26.589 M 479 37.440 C 446.154 41.584, 419.618 52.373, 406.595 66.878 C 401.858 72.155, 400.429 67.158, 402.047 50.975 C 402.659 44.844, 402.894 39.561, 402.569 39.235 C 402.243 38.910, 399.816 40.884, 397.175 43.624 C 391.604 49.405, 388.613 57.850, 389.168 66.236 C 389.686 74.059, 388.121 74.371, 376.832 68.693 C 364.039 62.259, 357.628 62.560, 350.570 69.927 L 347.854 72.762 357.677 73.205 C 367.850 73.665, 383.185 78.433, 384.362 81.502 C 385.213 83.718, 382.281 86.599, 377.819 87.934 C 330.592 102.057, 303.116 182.149, 325.293 241.044 C 327.497 246.896, 334.600 261.562, 336.804 264.811 C 337.468 265.790, 339.311 264.505, 344.097 259.723 C 352.628 251.199, 358.808 248.735, 372 248.598 C 385.767 248.456, 395.211 253.653, 405.187 266.862 L 407.726 270.223 413.319 255.862 C 426.207 222.766, 427.351 217.925, 428.966 189.618 C 429.885 173.531, 430.405 169.990, 431.395 173.107 C 433.079 178.407, 433.397 182.863, 433.445 201.806 L 433.500 223.113 435.774 220.306 C 448.476 204.633, 454.609 171.989, 449.453 147.500 C 446.563 133.774, 446.547 133.313, 448.911 132.048 C 450.850 131.010, 451.909 131.717, 459.825 139.332 C 476.813 155.675, 491.163 159.271, 511.886 152.379 C 524.035 148.339, 523.934 148.591, 516.892 139.930 C 502.640 122.400, 500.150 118, 504.482 118 C 507.468 118, 555.037 141.452, 572.559 151.563 C 591.913 162.730, 597.877 165.321, 604.438 165.414 L 610.500 165.500 610.468 157 C 610.428 146.264, 608.943 143.376, 593.372 123.767 C 583.980 111.940, 582.379 109.446, 584.009 109.182 C 586.275 108.816, 592.824 113.665, 608 126.947 C 619.213 136.760, 632.363 144.060, 654 152.484 C 683.463 163.954, 687.352 168.300, 690.085 192.809 C 690.679 198.138, 691.314 202.648, 691.496 202.829 C 692.285 203.618, 700.557 191.959, 703.219 186.306 C 708.577 174.929, 708.951 162.472, 704.371 148 C 701.549 139.084, 694.887 127.357, 692.910 127.828 C 692.153 128.008, 688.525 128.408, 684.848 128.716 L 678.163 129.276 681.748 134.676 C 684.350 138.595, 685.356 141.221, 685.416 144.257 C 685.536 150.243, 683.186 150.248, 679.795 144.269 C 675.357 136.444, 668.568 128.552, 659.613 120.804 C 651.264 113.582, 651.190 113.478, 653.080 111.532 C 655.354 109.191, 657.250 110.032, 667.249 117.817 L 672.998 122.294 680.249 121.659 C 696.779 120.211, 705.558 113.817, 711.006 99.253 C 715.065 88.406, 714.524 70.721, 710.189 72.543 C 698.288 77.545, 693.557 78.400, 677.500 78.450 C 657.203 78.513, 653.127 77.402, 624.364 63.960 C 592.214 48.934, 579.222 44.210, 556.781 39.389 C 541.726 36.154, 497.897 35.056, 479 37.440 M 527.431 140.476 C 532.395 145.246, 533.090 146.374, 532.815 149.226 C 532.524 152.246, 531.839 152.830, 524 156.744 C 502.728 167.365, 481.602 167.334, 465.681 156.658 L 459.232 152.333 459.759 162.658 C 460.661 180.314, 456.940 199.204, 449.746 213.500 C 443.851 225.214, 433 239.274, 428.519 241.005 C 427.172 241.525, 425.720 244.066, 424.154 248.642 C 419.403 262.531, 411.825 280.556, 409.926 282.486 C 407.415 285.039, 405.373 283.880, 402.117 278.053 C 398.754 272.036, 388.378 261.234, 383.639 258.816 C 364.378 248.990, 341.434 264.548, 340.218 288.261 C 338.369 324.301, 374.472 355.839, 404.596 344.500 C 408.249 343.125, 411.386 342, 411.568 342 C 411.749 342, 414.231 345.488, 417.084 349.750 C 434.032 375.076, 446.113 385.238, 477.869 400.881 C 506.786 415.126, 527.483 420.099, 558 420.136 C 585.332 420.169, 600.582 416.962, 622.554 406.559 C 655.949 390.748, 677.968 364.572, 682.139 335.728 C 683.611 325.542, 682.550 315.810, 677.883 296.689 C 674.367 282.287, 674.136 270.652, 677.043 254.500 C 682.004 226.939, 683.082 214.225, 681.835 198 C 680.600 181.920, 679.702 178.713, 675.022 173.659 C 670.455 168.728, 670.034 168.501, 645 157.463 C 634.275 152.734, 623.531 147.770, 621.124 146.432 C 618.717 145.095, 616.654 144, 616.539 144 C 616.425 144, 616.998 146.588, 617.813 149.750 C 619.066 154.609, 619.099 156.649, 618.030 162.913 C 616.386 172.545, 614.155 175, 607.052 175 C 602.479 175, 598.373 173.149, 562.673 155 C 541.036 144, 522.973 135, 522.532 135 C 522.092 135, 524.296 137.464, 527.431 140.476 M 508 185.938 C 501.998 187.779, 492.454 193.485, 488.399 197.657 C 483.782 202.407, 483.225 203.825, 485.200 205.800 C 487.177 207.777, 489.049 207.205, 494.592 202.929 C 504.421 195.346, 523.173 191.452, 530.818 195.406 C 536.539 198.364, 537.807 195.538, 532.809 190.972 C 527.234 185.880, 515.773 183.555, 508 185.938 M 636.585 190.755 C 630.906 192.771, 628.928 195.100, 630.644 197.750 C 631.267 198.713, 632.615 199.360, 633.638 199.189 C 649.063 196.614, 655.963 200.451, 663.111 215.578 C 667.485 224.837, 669.815 223.824, 669.043 213 C 667.918 197.225, 651.006 185.634, 636.585 190.755 M 508.500 238.383 C 497.341 243.658, 492.631 252.997, 492.553 270 C 492.492 283.237, 494.050 287.841, 499.909 291.744 C 504.364 294.712, 504.594 294.242, 501.820 287.847 C 497.931 278.883, 498.432 265.569, 503 256.515 C 510.321 242.004, 523.586 238.409, 532.924 248.405 L 535.349 251 531.386 251 C 525.860 251, 519.071 254.716, 515.683 259.595 C 508.537 269.885, 512.889 288.398, 523.655 293.507 C 527.329 295.250, 527.483 295.240, 531.679 293.014 C 540.883 288.132, 544.416 280.391, 543.780 266.500 C 542.722 243.398, 526.031 230.096, 508.500 238.383 M 632.290 238.086 C 622.360 243.001, 615.978 256.228, 616.022 271.802 C 616.054 283.029, 621.324 292.710, 626.925 291.832 C 629.032 291.502, 629.030 291.479, 626.546 287.838 C 622.891 282.480, 621.809 276.397, 623.009 267.938 C 625.530 250.159, 635.243 240.510, 646.692 244.411 C 654.469 247.061, 657.546 251, 651.838 251 C 647.148 251, 640.444 255.387, 637.527 260.364 C 630.974 271.545, 637.221 292, 647.188 292 C 659.942 292, 667.280 259.284, 657.751 244.901 C 652.728 237.319, 640.468 234.038, 632.290 238.086 M 356.500 278.713 C 348.879 280.546, 353.350 283.996, 363.372 284.016 C 373.369 284.037, 377.966 286.259, 382.750 293.385 C 386.733 299.318, 386.763 300.118, 383.087 302.290 C 377.738 305.449, 374.332 316.015, 377.035 321.066 C 378.326 323.478, 380.998 323.602, 381.006 321.250 C 381.032 312.981, 385.280 307.500, 391.663 307.500 C 396.341 307.500, 396.494 307.408, 396.305 304.698 C 395.658 295.424, 385.175 281.253, 377.355 279.081 C 373.534 278.021, 360.347 277.788, 356.500 278.713 M 595.020 296.752 C 591.572 298.484, 587.963 303.296, 589.191 304.524 C 589.542 304.875, 590.738 304.676, 591.849 304.081 C 592.960 303.486, 597.008 303, 600.845 303 C 607.469 303, 607.959 303.162, 610.519 306.205 C 615.325 311.917, 612.932 321.975, 605.523 327.197 C 597.855 332.602, 600.476 336.349, 608.914 332.044 C 613.356 329.778, 617.680 324.987, 619.756 320.032 C 623.033 312.211, 619.020 299.152, 612.415 296.143 C 608.599 294.405, 599.025 294.740, 595.020 296.752 M 531 338.999 C 529.075 340.052, 525.397 341.633, 522.827 342.512 C 516.917 344.533, 515.365 346.223, 517.480 348.337 C 518.728 349.585, 519.630 349.676, 522.120 348.808 C 526.258 347.366, 528.377 350.004, 534.642 364.401 C 543.396 384.520, 552.669 391.561, 569.443 390.824 C 584.670 390.155, 594.265 384.155, 605.256 368.426 C 607.590 365.085, 610.998 360.360, 612.828 357.926 C 616.968 352.420, 615.900 352.003, 605.813 355.184 C 599.185 357.275, 596.628 357.490, 578.500 357.478 C 556.694 357.463, 553.894 356.916, 539.940 349.942 C 531.648 345.798, 531.179 344.809, 535.992 341.624 C 538.196 340.165, 540 338.528, 540 337.986 C 540 336.359, 534.742 336.951, 531 338.999 M 541 359.503 C 541 361.672, 548.088 373.092, 551.674 376.700 C 562.583 387.678, 581.173 385.344, 593.922 371.395 C 599.980 364.767, 600.492 362.513, 595.750 363.352 C 574.096 367.183, 558.254 366.038, 542.750 359.522 C 541.788 359.117, 541 359.109, 541 359.503 M 437.831 408.724 L 434.162 409.111 436.002 413.306 C 438.406 418.784, 441 431.584, 441 437.964 C 441 451.293, 436.545 471.193, 433.281 472.446 C 430.919 473.352, 429.944 471.015, 431.451 468.059 C 433.691 463.669, 435.106 454.979, 435.695 442 C 436.364 427.269, 435.195 420.275, 430.940 413.566 L 427.969 408.882 423.235 409.494 C 398.793 412.652, 367.672 420.118, 339 429.703 L 324.500 434.550 324.602 440.525 C 324.730 448.054, 329.025 467.220, 333 477.999 C 339.226 494.885, 351.125 515.619, 353.887 514.393 C 368.194 508.046, 402.180 500.015, 414.785 500.004 C 418.576 500, 418.961 500.204, 418.123 501.771 C 417.457 503.015, 413.149 504.549, 403.643 506.927 C 396.200 508.790, 389.711 510.580, 389.222 510.907 C 388.734 511.233, 385.954 517.800, 383.045 525.500 C 380.136 533.200, 375.111 545.248, 371.878 552.273 C 368.645 559.298, 366 565.378, 366 565.784 C 366 566.190, 362.846 571.917, 358.991 578.511 C 350.913 592.329, 345.642 604.297, 346.477 606.926 C 348.265 612.561, 373.726 628.055, 397.361 637.892 C 435.149 653.619, 487.762 661.455, 521.872 656.436 C 527.717 655.576, 533.058 654.327, 533.740 653.661 C 534.421 652.995, 537.658 640.536, 540.932 625.975 C 552.237 575.703, 554.132 567.422, 559.026 546.930 C 561.727 535.616, 565.503 518.516, 567.417 508.930 C 572.208 484.922, 573.664 481.356, 576.079 487.708 C 577.411 491.212, 574.943 512.087, 571.316 528 C 569.874 534.325, 568.651 540.355, 568.597 541.401 C 568.530 542.724, 572.789 546.561, 582.610 554.024 L 596.720 564.746 599.359 557.261 C 605.068 541.065, 618.723 518.959, 632.624 503.407 L 638.964 496.314 636.732 494.336 C 635.504 493.247, 629.775 489.040, 624 484.987 C 618.225 480.933, 608.325 473.744, 602 469.011 C 579.355 452.065, 560.565 440.203, 549.230 435.697 C 543.666 433.486, 543.704 433.467, 546.011 437.250 C 549.756 443.392, 547.620 450.497, 539.942 457.433 C 519.020 476.335, 485.160 464.916, 467.116 432.873 C 463.230 425.970, 459 415.359, 459 412.510 C 459 408.833, 457.067 407.990, 449.050 408.168 C 444.897 408.261, 439.849 408.511, 437.831 408.724 M 474 410.309 C 474 411.579, 473.323 413.491, 472.496 414.559 C 471.032 416.448, 470.922 416.420, 468.394 413.500 L 465.796 410.500 466.399 414 C 467.293 419.195, 473.245 430.575, 479.154 438.385 C 489.070 451.494, 500.885 457.914, 516.500 458.676 C 525.248 459.103, 525.668 459.021, 531.500 455.730 C 535.392 453.533, 538.166 451.127, 539.396 448.881 L 541.292 445.418 538.733 442.657 L 536.174 439.896 534.372 442.948 C 533.380 444.627, 532.202 446, 531.753 446 C 528.465 446, 531.279 436.030, 536.125 430.510 L 539.005 427.231 530.752 426.066 C 514.741 423.806, 480.914 413.101, 476.550 408.912 C 474.946 407.372, 474 407.890, 474 410.309 M 753 422.109 C 751.075 423.264, 748.502 425.128, 747.282 426.249 L 745.064 428.289 749.282 431.010 C 751.602 432.507, 754.806 435.125, 756.401 436.828 L 759.302 439.925 767.172 435.712 C 775.431 431.291, 777.138 428.994, 775.055 425.103 C 772.232 419.827, 759.646 418.119, 753 422.109 M 728.910 435.371 C 722.302 437.733, 718.154 441.836, 714.325 449.798 C 708.595 461.709, 708.830 469.758, 715.517 490.750 C 716.581 494.093, 713.717 493.659, 710.253 489.953 L 707.405 486.905 698.453 491.060 C 673.259 502.751, 649.342 511.038, 639.580 511.460 C 634.925 511.661, 634.427 511.963, 630.290 517.086 C 622.404 526.852, 606.960 554.501, 607.029 558.730 C 607.050 560.015, 609.995 561.772, 617.779 565.144 C 646.386 577.536, 666.982 575.301, 693.494 556.927 C 704.278 549.453, 723.829 532.243, 727.776 526.749 C 731.018 522.236, 731.578 521.872, 734.409 522.445 C 748.109 525.218, 758.592 524.115, 766.753 519.042 L 771.006 516.398 767.503 513.003 C 763.411 509.036, 762.896 504.864, 765.891 499.939 L 767.782 496.830 762.520 491.665 C 759.626 488.824, 757.053 485.835, 756.803 485.021 C 756.210 483.096, 753.399 484.899, 743.416 493.606 C 739.383 497.123, 735.840 500, 735.542 500 C 732.846 500, 741.763 488.013, 749.107 481.765 C 756.827 475.197, 760.366 469.488, 759.053 465.722 C 758.474 464.061, 758 461.436, 758 459.888 C 758 455.327, 754.023 446.031, 750.316 441.928 C 744.007 434.944, 736.520 432.651, 728.910 435.371 M 777.081 438.094 C 775.750 438.626, 772.102 440.616, 768.974 442.516 L 763.286 445.971 764.643 451.204 C 765.389 454.081, 766 458.138, 766 460.218 C 766 462.298, 766.138 464, 766.307 464 C 767.096 464, 787.331 455.880, 790.065 454.467 C 795.984 451.405, 797.456 444.302, 793.077 439.923 C 789.933 436.779, 782.497 435.929, 777.081 438.094 M 305.433 447.783 C 286.144 460.478, 277.133 469.353, 265.234 487.375 C 258.294 497.887, 244.005 526.622, 241 536.111 C 238.806 543.038, 237.988 544.197, 227.931 554.640 C 215.291 567.763, 210.631 574.310, 208.074 582.536 C 203.842 596.147, 204.521 606.915, 210.146 615.406 C 214.305 621.686, 214.999 621.235, 215.006 612.250 C 215.018 595.235, 218.924 591.679, 220.758 607.013 C 222.696 623.217, 227.130 630.555, 237.730 635.099 C 240.170 636.144, 242.287 637, 242.435 637 C 242.584 637, 241.789 634.387, 240.670 631.193 C 238.919 626.195, 238.766 624.418, 239.568 618.443 C 240.841 608.956, 242.767 609.116, 245.174 618.909 C 250.026 638.645, 263.007 644.867, 273.766 632.614 C 276.997 628.934, 277.375 627.579, 277.007 621 C 276.690 615.353, 275.492 614.147, 273.680 617.651 C 269.326 626.073, 267.562 622.757, 270.613 611.884 C 272.372 605.614, 274.946 602.534, 279.338 601.444 C 282.063 600.767, 282.166 600.873, 281.934 604.120 C 281.801 605.979, 282.485 610.146, 283.455 613.380 L 285.218 619.260 287.602 616.380 C 299.066 602.535, 299.791 582.492, 289.362 567.748 C 285.120 561.752, 285.146 561.181, 290.090 551.500 C 297.488 537.013, 310.616 518.427, 321.244 507.392 L 331.277 496.975 326.649 485.067 C 322.131 473.445, 317.756 458.041, 316.405 449 C 315.262 441.354, 315.210 441.348, 305.433 447.783 M 731.512 458.928 C 729.212 472.543, 743.907 482.093, 753.065 472.935 C 756.038 469.962, 755.618 467.792, 752.250 468.717 C 744.454 470.858, 737.693 466.895, 735.380 458.829 C 734.051 454.197, 732.304 454.242, 731.512 458.928 M 785 464.069 C 765.936 472.048, 762.894 474.458, 764.387 480.405 C 766.906 490.443, 776.927 491.125, 791.859 482.273 C 802.778 475.800, 805.481 468.500, 799.077 462.777 C 795.284 459.388, 796.440 459.282, 785 464.069 M 794.500 489.043 C 791.750 490.662, 787.250 492.698, 784.500 493.568 C 774.888 496.610, 774.331 496.967, 773.027 500.919 C 771.359 505.972, 772.803 508.601, 778.017 510.005 C 782.673 511.258, 788.364 510.075, 792.204 507.054 C 794.912 504.924, 800.406 494.377, 801.479 489.250 C 802.337 485.147, 801.179 485.113, 794.500 489.043 M 347.481 621.233 C 336.877 649.825, 335.022 669.181, 341.401 684.668 C 355.054 717.810, 387.622 749.365, 442.500 782.622 L 455.500 790.500 458.330 784.903 C 471.348 759.158, 503.565 729.661, 527.939 721.170 L 531.379 719.972 527.439 715.893 C 513.215 701.164, 487.839 685.701, 458.510 673.890 C 445.964 668.838, 444.159 667.500, 448.440 666.426 C 459.819 663.570, 498.071 679.008, 517.249 694.197 C 519.363 695.871, 521.242 697.074, 521.425 696.871 C 522.381 695.805, 528 671.130, 528 667.996 C 528 663.027, 527.996 663.026, 519.226 665.211 C 512.613 666.858, 509.195 667.056, 495.500 666.585 C 440.105 664.677, 392.612 650.869, 357.225 626.383 C 351.094 622.140, 347.791 620.395, 347.481 621.233 M 223.946 701.856 C 218.354 705.449, 207.786 716.505, 201.825 725 C 197.111 731.717, 178.671 763.670, 173.066 774.835 C 162.017 796.842, 158.925 823.301, 165.779 837.185 C 168.239 842.169, 180.571 856.650, 178.821 852.500 C 178.589 851.950, 177.206 848.949, 175.748 845.831 C 165.082 823.023, 168.574 804.768, 191.782 762 C 205.926 735.935, 216.244 720.198, 226.250 709.426 C 231.063 704.245, 235 699.780, 235 699.503 C 235 697.858, 227.775 699.396, 223.946 701.856 M 237.962 705.250 C 229.420 709.557, 211.043 736.217, 194.396 768.451 C 172.290 811.255, 170.519 830.926, 186.829 852.539 C 191.193 858.323, 192.973 858.813, 200.803 856.389 C 209.407 853.726, 224.157 837.651, 232.493 821.854 C 236.916 813.471, 236.963 813.793, 230.909 810.958 C 213.333 802.725, 216.288 783.426, 235.888 778.450 L 240.397 777.305 241.712 769.521 C 244.887 750.725, 256.687 732.176, 269.977 725.093 L 276.122 721.818 272.311 718.442 C 263.183 710.356, 250.026 703, 244.692 703 C 243.444 703, 240.416 704.013, 237.962 705.250 M 346.634 724.271 C 341.718 730.270, 337 739.623, 337 743.367 C 337 754.928, 362.111 778.026, 389.742 791.881 C 399.183 796.616, 412.362 802, 414.509 802 C 416.008 802, 427 786.452, 427 784.331 C 427 783.679, 424.188 781.461, 420.750 779.404 C 399.511 766.692, 374.382 745.999, 359.844 729.250 C 355.429 724.163, 351.437 720, 350.975 720 C 350.512 720, 348.559 721.922, 346.634 724.271 M 525.003 730.100 C 513.918 734.601, 501.772 743.173, 490.466 754.472 C 481.883 763.050, 470.881 777.378, 472.113 778.372 C 472.326 778.543, 474.975 780.487, 478 782.692 C 493.335 793.869, 497.127 800.483, 510.571 839.500 C 518.967 863.870, 520.213 867.087, 526.419 880.413 L 531.036 890.327 539.768 881.840 C 554.705 867.322, 569.009 859.468, 583.099 858.048 C 587.495 857.605, 591.277 857.056, 591.505 856.829 C 591.732 856.601, 586.281 836.859, 579.390 812.957 C 563.600 758.184, 562.662 756.082, 546.461 739.173 C 540.047 732.478, 534.282 727.013, 533.650 727.028 C 533.017 727.043, 529.126 728.426, 525.003 730.100 M 275 729.722 C 269.736 732.243, 258.927 743.705, 255.225 750.692 C 250.201 760.175, 247.728 770.917, 248.479 780 C 249.597 793.514, 254.248 799.113, 265.655 800.676 C 270.207 801.300, 270.301 801.259, 269.665 798.908 C 266.655 787.759, 266.553 785.155, 268.749 775.481 C 271.997 761.168, 275.867 753.909, 285.151 744.712 L 293.012 736.925 291.512 734.023 C 288.411 728.026, 282.017 726.361, 275 729.722 M 805.500 741.866 C 797.137 745.675, 792.018 754.107, 792.006 764.095 L 792 768.691 786.359 765.845 C 774.696 759.962, 764.467 763.909, 758.929 776.427 C 753.788 788.050, 759.493 799.023, 772.844 803.190 L 776.797 804.424 772.945 808.799 C 765.677 817.057, 763.546 824.350, 766.136 832.101 C 769.733 842.862, 781.173 846.926, 792.726 841.547 C 798.270 838.966, 798.363 838.990, 799.376 843.232 C 800.801 849.194, 809.427 856, 815.559 856 C 817.594 856, 817.821 856.394, 817.438 859.250 C 816.519 866.099, 814.999 892.310, 814.977 901.687 L 814.955 911.500 811.709 905.500 C 803.177 889.725, 790.538 876.836, 778.221 871.351 C 763.963 865.001, 758.583 871.964, 765.811 887.411 C 768.810 893.817, 780.094 911.322, 781.976 912.485 C 784.583 914.096, 782.532 914.586, 778.047 913.422 C 768.967 911.067, 747.592 909, 732.315 909 L 717.212 909 717.356 911.499 C 717.512 914.213, 718.411 914.368, 732 914.025 C 748.069 913.620, 777.671 918.734, 789.195 923.905 C 804.942 930.971, 808.172 928.331, 796.648 917.816 C 788.113 910.029, 778.113 895.838, 773.170 884.500 C 769.574 876.253, 770.175 875.687, 777.791 880.153 C 790.243 887.454, 810.311 911.388, 814.464 923.892 C 816.205 929.132, 818.224 930.379, 820.390 927.550 C 821 926.753, 826 923.845, 831.500 921.089 C 851.633 911, 873 887.832, 873 876.091 C 873 862.580, 862.612 861.123, 846 872.302 C 837.686 877.897, 829.236 885.145, 824.967 890.342 L 820.730 895.500 821.411 882.500 C 822.520 861.338, 823.610 855.998, 827.474 852.785 C 832.215 848.842, 834.169 843.969, 834.347 835.644 L 834.500 828.500 838.919 830.750 C 846.819 834.772, 852.992 833.224, 859.771 825.523 C 868.083 816.079, 865.878 802.612, 855.149 797.304 L 851.135 795.318 856.243 791.909 C 862.882 787.479, 865.246 783.140, 864.735 776.322 C 863.782 763.593, 848.540 755.862, 836.500 762 C 834.342 763.100, 832.447 764, 832.289 764 C 832.130 764, 831.990 761.862, 831.978 759.250 C 831.910 744.575, 818.657 735.873, 805.500 741.866 M 294.500 746.737 C 278.026 758.761, 270.756 783.841, 279.039 800.077 C 283.035 807.909, 309.636 824.542, 331 832.566 C 347.391 838.722, 368.017 836.044, 383.861 825.701 C 390.768 821.192, 405 808.614, 405 807.019 C 405 806.659, 402.552 805.594, 399.560 804.650 C 385.235 800.135, 364.436 787.682, 351.750 776.025 C 348.038 772.614, 345 770.340, 345 770.972 C 345 771.687, 343.595 772.003, 341.282 771.810 C 336.407 771.403, 332.830 766.510, 333.172 760.715 C 333.467 755.704, 331.797 754.405, 318 748.910 C 303.946 743.314, 299.725 742.924, 294.500 746.737 M 808.271 748.964 C 802.174 751.731, 800.008 755.821, 800.004 764.572 C 800.002 768.461, 800.700 773.700, 801.557 776.212 L 803.113 780.781 809.807 781.285 C 813.488 781.562, 817.440 782.095, 818.589 782.469 C 823.166 783.959, 826.806 765.043, 823.933 754.698 C 822.017 747.800, 815.827 745.533, 808.271 748.964 M 841.256 768.117 C 837.759 769.127, 832.590 773.823, 827.999 780.160 L 825.128 784.123 828.257 788.562 C 831.898 793.728, 833.322 793.970, 841.712 790.844 C 855.838 785.581, 861.095 778.864, 856.369 772.117 C 853.358 767.818, 847.584 766.290, 841.256 768.117 M 772.396 771.429 C 766.287 774.089, 762.527 783.029, 765.003 789.008 C 767.091 794.047, 776.616 798.298, 788.130 799.327 L 793.759 799.831 794.288 795.889 C 794.579 793.722, 795.689 790.184, 796.756 788.028 L 798.695 784.108 795.098 780.617 C 790.533 776.187, 780.255 769.988, 777.559 770.039 C 776.426 770.061, 774.103 770.686, 772.396 771.429 M 235.738 785.719 C 230.688 788.129, 227.010 792.816, 227.004 796.849 C 226.993 803.492, 243.511 810.003, 249.418 805.684 C 251.115 804.443, 251.038 804.112, 248.053 799.878 C 246.313 797.409, 243.901 792.701, 242.694 789.417 L 240.500 783.445 235.738 785.719 M 465.528 788.938 C 461.423 798.041, 468.388 803.202, 476.338 796.949 C 479.946 794.111, 479.795 793.665, 473.659 789.032 C 467.173 784.135, 467.691 784.141, 465.528 788.938 M 805.235 790.996 C 800.337 795.559, 801.528 803.069, 807.548 805.585 C 816.888 809.487, 827.587 802.973, 824.167 795.467 C 821.635 789.911, 809.480 787.040, 805.235 790.996 M 832.482 802.696 C 831.633 804.729, 829.794 807.893, 828.395 809.726 L 825.852 813.060 828.176 815.088 C 839.330 824.822, 847.515 827.263, 852.191 822.250 C 860.896 812.916, 858.319 805.032, 845.241 800.993 C 835.840 798.089, 834.323 798.292, 832.482 802.696 M 205.333 803.574 C 203.506 808.335, 211.201 820.528, 217.370 822.648 C 225.272 825.364, 230.119 820.632, 223.102 817.052 C 221.053 816.007, 216.780 812.193, 213.604 808.576 C 207.577 801.711, 206.336 800.960, 205.333 803.574 M 787.692 807.972 C 777.617 811.909, 773 817.417, 773 825.500 C 773 839.578, 784.717 841.493, 796.140 829.282 C 798.657 826.590, 801.289 822.614, 801.989 820.444 C 802.688 818.275, 803.684 815.966, 804.201 815.312 C 804.857 814.484, 804.214 813.645, 802.080 812.541 C 800.396 811.671, 798.288 809.843, 797.394 808.479 C 795.472 805.545, 794.088 805.473, 787.692 807.972 M 814.571 814.934 C 808.500 817.009, 805.997 821.760, 805.317 832.500 C 804.796 840.738, 806.769 844.969, 812.382 847.645 C 822.455 852.449, 829.312 842.976, 825.988 828.846 C 824.362 821.933, 821.048 812.965, 820.178 813.125 C 819.805 813.194, 817.282 814.008, 814.571 814.934 M 653.500 860.342 C 630.931 866.236, 620.212 886.956, 626.130 913.250 C 626.718 915.862, 627.437 918, 627.727 918 C 628.018 918, 632.602 913.837, 637.914 908.750 C 656.975 890.496, 674.105 881.030, 689.534 880.223 C 699.816 879.685, 700.159 879.413, 697.033 874.286 C 690.361 863.344, 668.645 856.388, 653.500 860.342 M 582.320 865.099 C 568.017 867.486, 544.502 883.690, 534.733 897.888 L 531.667 902.345 534.440 907.642 C 535.965 910.555, 538.628 913.837, 540.356 914.934 L 543.500 916.931 549.500 911.086 C 558.005 902.800, 574.072 890.582, 579.310 888.415 C 582.668 887.027, 584.041 885.777, 584.940 883.289 C 587.344 876.642, 593.978 871, 599.391 871 C 603.159 871, 603.345 869.468, 599.926 866.591 C 596.571 863.768, 592.406 863.415, 582.320 865.099 M 860.892 872.962 C 848.270 876.783, 833.694 888.105, 825.186 900.695 C 821.419 906.270, 821 907.494, 821 912.920 L 821 918.950 823.523 917.991 C 832.789 914.468, 849.099 901.272, 859.077 889.223 C 867.052 879.594, 868.572 875.972, 865.800 873.200 C 864.461 871.861, 864.517 871.864, 860.892 872.962 M 616.401 876.428 C 609.903 879.256, 606.185 889.734, 608.621 898.353 C 610.750 905.886, 610.732 906.466, 608.358 906.805 C 601.826 907.738, 598.800 889.725, 603.871 880.106 L 606.188 875.711 602.056 876.266 C 599.783 876.571, 596.858 877.518, 595.555 878.372 C 591.481 881.041, 587.485 896.781, 589.082 903.864 C 590.037 908.096, 589.024 909.619, 586.245 908.131 C 583.982 906.920, 582.200 902.962, 581.786 898.231 L 581.500 894.962 571.780 902.255 C 566.435 906.266, 558.447 913.085, 554.030 917.408 L 546 925.269 546 931.740 C 546 944.185, 551.387 958.306, 556.637 959.624 C 564.421 961.577, 602.384 941.849, 618.811 927.314 L 623.121 923.500 621.516 919 C 615.572 902.334, 615.792 892.673, 622.479 876.750 C 623.389 874.584, 620.934 874.454, 616.401 876.428 M 371 883.063 C 351.285 884.086, 312.283 890.113, 271.127 898.496 C 259.064 900.954, 240.262 904.549, 229.347 906.486 C 218.431 908.423, 206.701 911.009, 203.280 912.234 C 197.698 914.232, 196.722 914.320, 193.780 913.090 C 176.679 905.939, 143.291 896.165, 127 893.539 C 101.976 889.506, 60.010 895.410, 66.631 902.031 C 67.414 902.814, 70.070 902.613, 76.109 901.316 C 89.377 898.467, 121.250 898.774, 134 901.874 C 152.769 906.438, 178.644 914.297, 186.177 917.721 L 193.854 921.212 200.177 919.127 C 208.374 916.424, 217.186 914.618, 237.756 911.428 C 246.965 910, 261.700 907.321, 270.500 905.475 C 326.971 893.632, 374.888 888.222, 407.545 890.002 C 426.736 891.049, 432.191 891.682, 473.332 897.640 C 490.299 900.097, 498.488 900.912, 499.189 900.211 C 500.745 898.655, 497.886 897.538, 485 894.668 C 459.706 889.036, 431.125 884.758, 407 882.993 C 392.523 881.933, 392.807 881.933, 371 883.063 M 684.400 888.372 C 670.776 893.436, 656.405 903.212, 629 926.055 C 601.641 948.860, 591.852 954.785, 569.562 962.031 L 559.974 965.148 561.737 968.141 C 565.173 973.974, 565.979 974.281, 573.376 972.565 C 583.069 970.317, 591.839 965.468, 607 953.974 C 619.371 944.595, 645.099 923.792, 657.442 913.187 C 668.985 903.270, 683.958 894.756, 694.635 892.038 C 697.855 891.218, 698.875 890.433, 699.246 888.492 C 699.699 886.122, 699.497 886.003, 695.111 886.052 C 692.575 886.081, 687.755 887.125, 684.400 888.372 M 686.929 901.324 C 676.695 906.393, 667.991 912.469, 658.500 921.170 C 637.116 940.773, 602.878 967.412, 594 971.354 C 590.319 972.988, 600.428 970.672, 609.500 967.802 C 629.835 961.371, 664.416 941.641, 679.287 927.987 C 692.221 916.111, 703.371 896.902, 697.250 897.039 C 696.288 897.061, 691.643 898.989, 686.929 901.324 M 850.500 916.875 C 848.400 917.321, 847.404 918.186, 847.180 919.756 C 846.861 921.999, 846.865 922, 862.680 922.020 C 885.366 922.048, 919.603 927.068, 938.866 933.191 C 948.435 936.233, 950.547 936.081, 949.839 932.404 C 949.016 928.130, 927.423 923.414, 879 916.935 C 871.637 915.950, 855.013 915.915, 850.500 916.875 M 175.327 944.017 C 159.962 945.104, 141.877 948.157, 141.259 949.768 C 140.084 952.828, 142.685 953.266, 151.939 951.565 C 163.510 949.439, 196.411 946, 205.186 946 C 211.933 946, 214.885 944.739, 210.739 943.627 C 207.897 942.866, 188.589 943.078, 175.327 944.017 M 245 948.694 C 221.378 949.818, 190 954.296, 190 956.545 C 190 958.902, 191.385 958.940, 206.578 956.992 C 229.260 954.085, 242.512 952.969, 265.314 952.047 C 285.895 951.215, 288.839 950.775, 285.971 948.961 C 284.623 948.108, 260.611 947.952, 245 948.694 M 308.500 952.656 C 294.675 954.030, 258.922 958.256, 256.005 958.862 C 253.891 959.301, 252.381 960.262, 252.182 961.294 C 251.735 963.613, 253.049 963.552, 281.500 959.940 C 298.910 957.730, 311.765 956.731, 328.320 956.302 C 349.269 955.759, 351.008 955.579, 349.536 954.105 C 347.949 952.516, 319.886 951.525, 308.500 952.656 M 356.500 961.012 C 345.121 962.217, 338 963.971, 338 965.571 C 338 967.304, 336.941 967.315, 351.500 965.432 C 358.100 964.578, 369.900 963.769, 377.723 963.634 C 391.939 963.387, 393.779 963.069, 392.541 961.067 C 391.791 959.854, 367.791 959.817, 356.500 961.012 M 462.500 968.048 C 443.057 970.318, 434.523 972.337, 434.180 974.750 C 433.787 977.519, 434.802 977.569, 449.716 975.515 C 468.001 972.996, 481.865 972.321, 499.521 973.088 C 508.846 973.493, 516.778 973.637, 517.148 973.408 C 519.185 972.149, 516.990 969.445, 513.405 968.798 C 506.730 967.594, 470.915 967.066, 462.500 968.048" stroke="none" fill="#1a1a1a" fill-rule="evenodd"/>
</svg>