<svg xmlns="http://www.w3.org/2000/svg" width="1024" height="1024" viewBox="0 0 1024 1024" version="1.1">
	<path d="M 328.604 34.522 C 320.456 36.591, 318.352 39.719, 312.534 58.421 C 299.427 100.545, 300.190 150.644, 314.575 192.500 C 321.343 212.195, 321.161 210.298, 317.427 222.227 C 311.482 241.218, 309.696 253.021, 308.030 284.322 C 307.480 294.674, 306.812 303.496, 306.546 303.925 C 306.281 304.355, 302.650 304.965, 298.478 305.280 C 293.696 305.642, 289.417 306.623, 286.898 307.936 C 281.888 310.548, 280.865 310.051, 273.587 301.472 C 243.985 266.579, 215.195 235.450, 184.348 204.982 C 143.932 165.062, 134.430 156.146, 131.533 155.419 C 124.926 153.761, 117.730 157.398, 116.495 163.022 C 115.323 168.357, 118.002 172.257, 129.403 181.815 C 131.257 183.369, 131.951 184.683, 131.515 185.815 C 126.422 199.042, 124.818 343.187, 128.013 500.500 C 129.686 582.846, 129.780 717.558, 128.165 717.222 C 127.431 717.069, 120.231 718.088, 112.165 719.487 C 87.997 723.679, 78.703 727.177, 80.347 731.463 C 81.013 733.197, 84.643 733.466, 88.351 732.056 C 89.716 731.538, 96.833 729.925, 104.167 728.474 C 111.500 727.022, 119.719 725.197, 122.432 724.417 C 125.144 723.638, 127.956 723, 128.682 723 C 130.501 723, 130.633 777.491, 128.816 778.614 C 128.165 779.016, 118.061 779.652, 106.363 780.027 C 85.237 780.704, 80 781.672, 80 784.901 C 80 787.730, 83.030 788.069, 99.153 787.046 C 108.144 786.476, 118.763 786.007, 122.750 786.005 L 130 786 130 811.379 L 130 836.758 124.989 842.012 C 115.578 851.879, 108.421 871.450, 109.188 885.218 C 109.837 896.869, 114.860 900.794, 130.304 901.715 C 153.784 903.116, 159.676 895.607, 154.479 870.902 C 152.172 859.932, 145.176 843.051, 141.446 839.453 C 135.752 833.960, 136.031 839.035, 135.865 737.834 C 135.779 685.950, 135.378 634.275, 134.974 623 C 133.934 594.053, 132.483 409.726, 132.592 320.500 C 132.680 248.362, 133.438 222.945, 136.128 201.873 C 137.612 190.254, 138.234 189.505, 142.271 194.480 C 144.047 196.669, 149.325 202.598, 154 207.655 C 189.135 245.660, 198.238 255.433, 212.079 270 C 220.701 279.075, 231.476 291, 236.024 296.500 C 240.571 302, 248.186 310.550, 252.944 315.500 C 263.467 326.445, 276.381 340.998, 275.872 341.338 C 275.667 341.475, 271.941 342.603, 267.591 343.846 C 255.603 347.272, 253 348.559, 253 351.066 C 253 353.658, 253.113 353.642, 268.342 348.911 L 279.184 345.543 282.842 349.641 C 284.854 351.895, 290.212 357.813, 294.750 362.791 C 299.288 367.770, 303 372.296, 303 372.849 C 303 373.401, 300.413 375.320, 297.250 377.114 C 285.189 383.953, 277.318 390.780, 278.361 393.498 C 279.107 395.443, 282.272 393.994, 291.500 387.479 C 299.018 382.172, 305.808 378.712, 307.461 379.347 C 308.158 379.614, 313.627 386.019, 319.614 393.579 C 325.601 401.139, 335.707 413.889, 342.070 421.912 C 356.613 440.247, 372 460.850, 372 461.987 C 372 462.464, 369.550 464.255, 366.555 465.969 C 350.957 474.893, 341.649 495.090, 343.401 516.209 C 345.829 545.490, 362.100 560.205, 405.710 572.560 C 422.913 577.434, 422.594 577.264, 425.526 583.052 C 426.956 585.872, 429.949 590.160, 432.179 592.579 L 436.233 596.977 435.065 604.971 C 433.226 617.542, 435.786 636.349, 441.170 649.832 L 443.299 655.165 439.643 666.832 C 436.866 675.695, 433 694.652, 433 699.407 C 433 699.638, 413.988 699.681, 390.750 699.501 C 363.800 699.292, 336.603 699.709, 315.646 700.650 C 297.577 701.462, 282.560 701.893, 282.275 701.609 C 281.640 700.974, 287.945 684.527, 293.241 673 C 309.320 638.010, 314.095 622.869, 309.266 622.183 C 302.186 621.176, 275.880 643.781, 267.841 657.778 C 263.360 665.581, 263 664.858, 263 648.063 C 263 616.196, 258.213 585.655, 249.276 560.500 C 246.384 552.359, 245.920 551.710, 243.621 552.592 C 239.205 554.286, 231.001 580.826, 228.851 600.371 C 227.733 610.535, 228.296 651.467, 229.635 657.399 C 230.706 662.140, 228.679 659.740, 224.060 650.798 C 210.719 624.971, 194.070 606.473, 176.223 597.648 C 166.784 592.981, 162.845 597.486, 168.485 606.500 C 172.564 613.021, 185.264 639.383, 192.090 655.500 C 195.585 663.750, 202.348 678.375, 207.120 688 C 211.892 697.625, 215.683 705.622, 215.544 705.771 C 215.406 705.919, 206.114 706.940, 194.896 708.038 C 151.048 712.331, 140.237 714.208, 139.366 717.678 C 138.327 721.816, 139.823 721.978, 156.500 719.533 C 179.772 716.120, 213.711 712.718, 219.208 713.246 C 222.871 713.598, 224.322 713.301, 225.545 711.950 C 227.010 710.332, 226.735 709.495, 221.946 700.999 C 214.847 688.407, 205.594 668.836, 195.020 644.047 C 190.133 632.591, 184.501 619.973, 182.503 616.006 C 180.506 612.040, 179.064 608.603, 179.298 608.369 C 180.312 607.355, 191.966 617.401, 197.040 623.663 C 213.334 643.773, 223.789 664.302, 233.501 695.256 C 237.274 707.283, 239.771 711.878, 241.838 710.600 C 243.390 709.641, 243.274 702.827, 241.480 689.500 C 235.803 647.342, 234.479 628.097, 235.970 609.426 C 237.509 590.154, 241.587 570, 243.949 570 C 244.988 570, 249.666 586.911, 252.110 599.500 C 254.947 614.118, 256.130 638.249, 255.795 674.703 C 255.536 703.025, 255.691 707.099, 257.086 708.503 C 259.722 711.158, 260.955 708.337, 264.113 692.435 C 267.247 676.651, 270.995 666.375, 276.938 657.280 C 282.484 648.791, 299.883 632.550, 301.596 634.263 C 302.236 634.902, 296.141 649.390, 287.516 667.734 C 280.095 683.515, 272.324 705.797, 273.329 708.414 C 273.872 709.831, 274.717 710.091, 277.261 709.626 C 279.042 709.300, 294.522 708.337, 311.661 707.486 C 366.937 704.741, 428.126 705.269, 431.377 708.520 C 432.261 709.404, 432.884 714.315, 433.299 723.664 C 433.656 731.732, 434.584 739.730, 435.525 742.850 C 437.299 748.737, 436.966 751, 434.328 751 C 430.719 751, 414.110 760.047, 408.788 764.911 C 391.509 780.703, 392.577 804.623, 411.045 815.447 C 444.624 835.127, 507.769 830.673, 532.550 806.877 C 542.573 797.252, 545.104 790.269, 547.003 767 C 548.107 753.485, 550.945 737.840, 552.985 734.029 C 554.244 731.675, 554.310 731.672, 570.328 733.039 C 585.412 734.327, 586.547 734.766, 587.461 739.671 C 588.639 745.993, 594.775 760.987, 599.606 769.347 C 602.099 773.663, 603.996 777.291, 603.820 777.410 C 603.644 777.529, 599.993 779.601, 595.707 782.016 C 566.412 798.518, 560.771 829.276, 584.808 841.438 C 594.433 846.307, 622.310 851, 641.619 851 C 665.198 851, 680.242 847.244, 694.847 837.710 C 720.100 821.224, 729.922 796.624, 724.619 763.141 C 723.692 757.292, 723 746.949, 723 738.960 C 723 722.625, 721.074 724.047, 739.289 726.938 C 746.005 728.004, 757.800 729.627, 765.500 730.546 C 786.103 733.003, 820.754 739.984, 821.950 741.918 C 822.333 742.538, 823.181 747.067, 823.836 751.983 C 825.583 765.105, 826.866 768.427, 830.341 768.825 C 832.691 769.094, 833.090 768.835, 832.647 767.325 C 830.050 758.474, 827.905 720.790, 829.422 710.674 C 830.331 704.610, 831.633 705, 835.300 712.436 C 838.724 719.380, 840.326 726.673, 843.001 747.510 C 846.240 772.737, 846.294 772.774, 853.566 754.930 C 859.481 740.414, 860.821 737.747, 866.636 728.908 C 870.958 722.338, 880.927 712, 882.940 712 C 884.315 712, 884.583 710.886, 879.917 724.547 C 873.822 742.394, 867.971 766.077, 869.125 768.233 C 870.678 771.136, 872.654 770.287, 877.195 764.762 C 887.490 752.237, 896.557 745.093, 902.250 745.022 C 904.999 744.987, 904.378 747.570, 898.931 758.834 C 895.415 766.104, 894.042 770.033, 894.450 771.658 C 895.454 775.658, 898.485 774.483, 902.407 768.573 L 906.009 763.147 914.755 765.497 C 919.565 766.789, 926.991 768.959, 931.257 770.319 L 939.014 772.792 939.655 770.240 C 940.629 766.356, 940.126 766.137, 910.141 757.376 C 909.109 757.075, 908.982 756.078, 909.614 753.239 C 911.802 743.412, 909.622 736.999, 904.095 737.001 C 900.415 737.002, 890.424 741.974, 884.250 746.877 C 881.362 749.170, 879 750.567, 879 749.982 C 879 749.396, 881.452 741.623, 884.448 732.708 C 892.720 708.098, 893.487 703.169, 889.300 701.562 C 883.143 699.199, 864.227 717.028, 856.125 732.831 C 853.212 738.513, 850.601 742.934, 850.322 742.656 C 850.044 742.377, 848.773 736.603, 847.498 729.825 C 844.105 711.782, 840.766 703.636, 834.512 698.145 C 826.680 691.269, 821.755 700.636, 821.891 722.149 C 821.932 728.614, 821.593 734.134, 821.137 734.415 C 820.681 734.697, 814.951 733.792, 808.404 732.403 C 787.574 727.985, 776.089 726.160, 752.051 723.446 C 739.154 721.990, 727.566 720.405, 726.301 719.924 C 722.609 718.521, 722.880 714.861, 728.959 684 C 730.747 674.925, 732.516 666.878, 732.890 666.117 C 733.410 665.059, 735.910 664.777, 743.535 664.915 C 756.197 665.145, 762.255 663.855, 773.678 658.499 C 792.828 649.519, 815.542 630.363, 828.220 612.500 C 841.780 593.393, 849.581 560.142, 851.963 511.287 C 853.750 474.634, 859.330 461.922, 885.447 435 C 903.618 416.269, 906.429 411.188, 906.471 397 C 906.497 388.447, 906.208 386.924, 903.571 381.719 C 897.167 369.081, 885.348 361.742, 870.500 361.184 C 830.506 359.682, 795.122 391.463, 783.143 439.645 C 779.330 454.984, 778.838 460.957, 778.875 491.500 C 778.924 532.613, 776.632 548.866, 768.441 565.500 C 761.903 578.775, 751.033 589.973, 737.875 596.986 C 731.972 600.132, 731.620 600.201, 730.341 598.452 C 729.604 597.443, 729 595.981, 729 595.203 C 729 585.648, 708.252 537.848, 687.458 499.500 C 682.686 490.700, 675.628 477.650, 671.773 470.500 C 667.918 463.350, 662.102 453.559, 658.848 448.742 C 650.814 436.850, 650.828 437.737, 658.612 434.095 C 665.155 431.033, 676.814 424.317, 687.986 417.174 C 694.785 412.827, 694.500 412.815, 701.072 417.707 C 706.323 421.616, 711.541 423.552, 712.527 421.957 C 712.790 421.531, 710.079 418.501, 706.503 415.224 C 702.926 411.946, 700 409.001, 700 408.678 C 700 408.354, 704.269 403.682, 709.488 398.295 C 714.706 392.908, 721.568 385.015, 724.738 380.756 C 731.558 371.590, 731.410 371.619, 744 377 C 754.928 381.671, 754 381.468, 754 379.187 C 754 376.399, 749.187 372.413, 741.746 369.039 C 734.031 365.541, 734.225 366.001, 737.424 358.767 C 741.634 349.247, 748 324.894, 748 318.308 C 748 318.071, 749.972 318.173, 752.382 318.535 C 759.517 319.605, 759.535 315.377, 752.408 312.398 L 749.316 311.105 748.692 296.660 C 747.706 273.837, 742.970 247.430, 737.095 232 C 734.180 224.344, 734.437 221.200, 738.882 210.151 C 756.240 166.996, 759.609 117.009, 748.330 70 C 740.444 37.135, 730.346 29.464, 703.500 35.945 C 674.363 42.980, 633.490 63.646, 603.583 86.465 C 591.867 95.405, 591.985 95.359, 586.304 93.120 C 561.903 83.503, 510.720 82.601, 468.928 91.053 C 449.970 94.887, 450.300 94.909, 444.958 89.415 C 415.824 59.449, 350.956 28.846, 328.604 34.522 M 329.923 42.133 C 326.570 43.328, 325.012 46.773, 320.129 63.792 C 312.704 89.671, 310.597 111.595, 312.950 138.500 C 315.402 166.546, 324.089 202.315, 327.153 196.988 C 348.338 160.166, 361.692 143.008, 378.418 131.118 C 382.774 128.023, 386.500 125.001, 386.699 124.404 C 388.061 120.318, 365.153 95.311, 351.977 86.500 C 343.175 80.614, 342.606 79.966, 344.537 78.035 C 350.562 72.008, 383.873 98.827, 392.889 116.961 C 398.841 128.934, 398.536 130.329, 388.899 135.182 C 365.970 146.729, 335.643 191.154, 324.512 229.500 C 319.588 246.463, 316.395 274.578, 316.022 304.250 C 316.007 305.436, 316.772 306, 318.395 306 C 322.540 306, 334.159 310.026, 333.720 311.310 C 333.272 312.622, 329.331 312.672, 321.095 311.472 L 315.690 310.685 316.406 323.570 C 316.800 330.657, 317.207 336.526, 317.311 336.612 C 317.415 336.698, 322.984 337.464, 329.687 338.315 C 342.162 339.899, 346.429 341.230, 345.720 343.318 C 345.251 344.698, 340.133 344.784, 327.620 343.623 L 318.740 342.799 319.453 346.649 C 320.362 351.562, 322.327 355.621, 325.852 359.872 L 328.648 363.244 337.574 360.696 C 351.007 356.860, 353.390 356.560, 355 358.500 C 356.846 360.724, 355.952 361.211, 343.796 364.606 C 338.408 366.111, 334 367.615, 334 367.949 C 334 368.283, 336.743 371.918, 340.095 376.028 C 343.447 380.138, 349.402 387.716, 353.328 392.868 C 377.966 425.201, 422.980 441.227, 509.750 448.561 C 518.375 449.290, 520.274 450.713, 515.811 453.101 C 510.205 456.102, 480.323 455.009, 456.688 450.940 C 450.534 449.880, 444.992 449.010, 444.371 449.007 C 443.083 448.999, 441.416 452.871, 440.499 458 C 440.155 459.925, 438.368 466.900, 436.528 473.500 C 434.688 480.100, 432.898 486.776, 432.551 488.335 C 431.978 490.907, 432.840 492.081, 441.837 500.985 L 451.755 510.799 458.606 508.900 C 466.867 506.609, 471.591 506.535, 484.587 508.494 C 520.309 513.878, 545.296 506.884, 572.089 484 C 584.839 473.110, 585.301 472.795, 587.337 473.576 C 591.090 475.016, 589.929 477.342, 580.823 486.627 C 555.042 512.916, 526.329 522.389, 486.825 517.639 C 463.645 514.851, 463.938 514.827, 452.510 520.404 C 432.641 530.099, 417.127 551.679, 420.630 564.750 C 421.511 568.036, 422.089 567.636, 426.427 560.741 C 431.480 552.709, 435.578 548.300, 440.210 545.912 C 448.462 541.659, 448.760 544.862, 441.062 555.079 C 429.629 570.250, 428.962 573.584, 435.411 583.300 C 441.293 592.162, 442.714 592.361, 449.658 585.292 C 455.901 578.937, 462.419 576.084, 466.142 578.076 C 468.562 579.371, 467.713 580.899, 462.386 584.829 C 451.538 592.833, 451.455 601.058, 462.169 606.397 C 472.202 611.397, 484.687 609.317, 494 601.095 L 497.500 598.005 520.500 597.985 C 558.422 597.953, 570.587 595.870, 590.500 585.999 C 611.772 575.455, 623.686 566.295, 638.198 549.328 C 646.444 539.688, 648.264 538.659, 648.816 543.321 C 650.424 556.902, 605.011 593.381, 577.129 600.905 C 563.280 604.642, 547.050 606.351, 526.750 606.211 C 516.438 606.140, 508 606.336, 508 606.647 C 508 606.957, 511.088 610.518, 514.861 614.559 C 521.376 621.534, 561.288 673.830, 563.957 678.887 C 568.020 686.585, 556.565 701, 546.385 701 C 540.659 701, 537.142 697.854, 528.166 684.704 C 519.156 671.504, 486.854 626.500, 483.265 622.146 C 480.752 619.099, 479.697 618.664, 471.703 617.389 C 461.307 615.731, 453.964 612.318, 448.777 606.734 L 445.055 602.726 443.922 605.613 C 442.221 609.949, 443.502 625.953, 446.457 637.278 C 454.321 667.420, 480.468 697.381, 510 710.090 C 528.725 718.148, 554.919 724.073, 572.975 724.334 L 584.449 724.500 585.705 711 C 587.060 696.426, 588.952 687.306, 592.175 679.814 C 596.376 670.050, 599.952 670.895, 597.529 681.078 C 594.967 691.847, 593.517 716.687, 594.831 727.312 C 597.121 745.838, 606.671 767.790, 616.414 776.924 C 619.837 780.133, 619.771 782.788, 616.250 783.581 C 608.205 785.393, 605.023 786.464, 599.691 789.156 C 577.619 800.298, 571.591 826.324, 588.872 835.869 C 594.122 838.769, 595.221 837.920, 593.881 832 C 592.523 825.998, 593.482 820.356, 597.090 813.137 C 600.350 806.612, 606.850 800, 610.003 800 C 612.849 800, 612.560 800.694, 607.429 806.179 C 601.290 812.742, 598.614 818.919, 598.551 826.673 C 598.463 837.387, 603.661 841.074, 621.209 842.748 C 632.478 843.822, 633.121 843.646, 631.797 839.848 C 628.745 831.092, 636.456 812.683, 644.002 810.710 C 646.533 810.048, 646.678 809.477, 642 818.623 C 637.275 827.862, 636.496 835.929, 639.921 840.139 C 644.095 845.269, 667.547 841.917, 684 833.838 C 695.892 827.999, 709.373 814.638, 713.278 804.820 C 717.904 793.192, 718.564 783.190, 716.009 763.465 C 712.960 739.937, 713.721 718.965, 718.528 694 C 720.381 684.375, 722.403 672.675, 723.022 668 C 723.640 663.325, 724.631 657.823, 725.225 655.774 C 726.586 651.075, 725.516 624.828, 723.433 611.820 C 719.189 585.316, 707.650 556.206, 683.075 510 C 677.663 499.825, 671.467 488.125, 669.305 484 C 661.365 468.844, 650.792 450.369, 647.348 445.632 C 643.224 439.959, 644.317 440.015, 621.500 444.319 C 601.966 448.003, 599.040 448.267, 598.326 446.408 C 597.264 443.641, 600.243 442.234, 613 439.478 C 639.464 433.761, 652.647 428.500, 674.266 415.026 C 688.040 406.442, 688.041 406.985, 674.260 399.794 C 662.870 393.851, 649.765 388.818, 638.356 386.004 C 627.745 383.387, 626.490 382.772, 627.323 380.601 C 628.175 378.380, 631.492 378.583, 643.319 381.580 C 658.471 385.421, 680.014 394.775, 686.740 400.435 C 688.417 401.846, 690.458 403, 691.276 403 C 694.366 403, 720.961 372.862, 720.990 369.328 C 721.025 365.131, 674.436 356.486, 642.235 354.715 C 638.789 354.525, 635.476 353.876, 634.872 353.272 C 628.295 346.695, 670.529 349.696, 708.429 358.499 C 716.718 360.425, 724.041 362, 724.703 362 C 727.882 362, 739 327.858, 739 318.095 C 739 310.803, 701.555 311.976, 658.129 320.629 C 648.574 322.533, 640.531 323.864, 640.255 323.588 C 632.886 316.219, 718.283 303.745, 736.654 309.507 C 739.891 310.523, 740.160 308.277, 738.999 289.906 C 737.449 265.388, 732.557 242.884, 725.916 229.720 C 722.308 222.569, 722.310 222.242, 726.010 216.292 C 732.334 206.118, 740.677 178.012, 743.568 157.138 C 745.514 143.093, 745.796 111.397, 744.103 97 C 741.224 72.509, 733.109 45.734, 727.687 42.832 C 722.643 40.133, 700.534 44.579, 683 51.818 C 656.563 62.734, 619.054 83.905, 611.076 92.414 C 609.742 93.836, 608.210 95, 607.670 95 C 605.806 95, 599.913 100.175, 597.328 104.081 C 594.170 108.852, 591.255 109.188, 588.252 105.127 C 582.558 97.426, 537.901 91.915, 505.408 94.904 C 484.206 96.854, 456.830 101.975, 440.887 106.972 C 437.374 108.073, 433.248 108.980, 431.719 108.987 C 425.356 109.017, 428.493 102.478, 436.035 99.989 C 441.031 98.340, 441.004 98.086, 435.250 92.645 C 408.557 67.403, 344.808 36.830, 329.923 42.133 M 697 83.089 C 676.399 94.380, 648.883 118.095, 638.869 133.189 C 635.135 138.817, 635.251 139.788, 639.750 140.519 C 654.341 142.889, 677.820 162.736, 692.663 185.247 C 699.604 195.773, 701 196.843, 701 191.634 C 701 179.820, 680.489 154.029, 660.076 140.176 C 655.444 137.031, 651.446 133.839, 651.194 133.082 C 649.910 129.231, 686.761 98.078, 708.661 84.500 C 714.676 80.771, 714.753 79.573, 709 79.239 C 705.324 79.026, 703.126 79.731, 697 83.089 M 552.732 104.250 C 534.995 123.298, 523.291 157.795, 529.513 172.686 C 531.589 177.653, 531.851 176.948, 532.389 164.957 C 533.257 145.610, 539.906 128.101, 552.844 111.092 C 556.780 105.918, 560 101.080, 560 100.342 C 560 97.747, 557.573 99.052, 552.732 104.250 M 505.509 110.450 C 489.676 133.159, 480.116 164.804, 485.328 177.250 C 488.054 183.761, 490 182.182, 490 173.458 C 490 156.256, 497.476 133.368, 509.643 113.320 C 513.702 106.631, 515.259 101, 513.049 101 C 512.526 101, 509.133 105.253, 505.509 110.450 M 467.224 104.262 C 464.034 107.657, 456.427 124.429, 453.962 133.500 C 451.530 142.452, 450.133 166.021, 451.685 171.918 C 452.564 175.258, 455.299 178.034, 456.514 176.819 C 456.850 176.484, 456.628 172.588, 456.022 168.162 C 453.691 151.139, 457.875 130.740, 467.533 112.042 C 469.990 107.284, 472 103.079, 472 102.696 C 472 101.207, 469.245 102.110, 467.224 104.262 M 125.053 164.436 C 122.742 167.221, 128.516 173.257, 138 177.970 C 143.088 180.499, 145.945 183.555, 145.978 186.504 C 145.999 188.429, 160.884 204.850, 199.907 245.995 C 226.195 273.713, 230.836 278.758, 242.238 292.015 C 248.143 298.882, 258.199 310.350, 264.583 317.500 C 299.601 356.716, 311.959 371.151, 323.227 386 C 328.026 392.325, 336.897 403.800, 342.939 411.500 C 348.982 419.200, 359.821 433.261, 367.027 442.747 C 380.880 460.982, 381.328 461.347, 389.282 460.812 L 393.932 460.500 384.817 448 C 379.804 441.125, 372.367 431.540, 368.289 426.700 C 364.212 421.860, 356.774 412.410, 351.759 405.700 C 337.615 386.773, 325.365 371.625, 323.091 370.249 C 321.954 369.561, 319.827 367.086, 318.365 364.749 C 313.173 356.454, 293.633 333.514, 273.911 312.563 C 264.651 302.726, 250.363 286.767, 242.976 278.009 C 220.360 251.200, 166.401 195.177, 152 183.553 C 149.525 181.556, 143.869 176.114, 139.431 171.461 C 131.123 162.749, 127.800 161.126, 125.053 164.436 M 389.286 214.392 C 379.602 217.554, 371.651 223.951, 372.652 227.777 C 373.472 230.913, 375.400 230.566, 382.134 226.070 C 389.658 221.045, 397.029 219.266, 403.537 220.905 C 408.884 222.251, 409.473 222.009, 408.657 218.797 C 407.439 213.999, 397.449 211.727, 389.286 214.392 M 563.250 218.989 C 560.970 220.379, 560 221.721, 560 223.485 C 560 226.336, 561.319 226.594, 567.342 224.922 C 575.229 222.732, 585.149 227.094, 590.430 235.074 C 593.623 239.899, 596.348 240.041, 596.801 235.407 C 597.207 231.254, 589.524 222.619, 582.520 219.357 C 576.052 216.345, 567.843 216.189, 563.250 218.989 M 393.500 281.903 C 384.499 285.856, 380.582 305.853, 386.342 318.437 C 389.308 324.915, 391.674 326.382, 398.156 325.759 C 406.681 324.940, 410.026 319.942, 410.769 306.914 C 411.651 291.450, 407.601 282.296, 399.500 281.445 C 397.300 281.214, 394.600 281.420, 393.500 281.903 M 562.021 290.141 C 555.159 292.810, 551.647 299.647, 551.562 310.500 C 551.428 327.771, 561.436 337.480, 573.137 331.429 C 582.914 326.373, 583.260 297.987, 573.622 291.672 C 570.578 289.677, 565.078 288.951, 562.021 290.141 M 290.011 310.882 C 284.905 311.787, 285.256 313.784, 291.723 320.625 C 294.901 323.986, 299.453 328.820, 301.840 331.368 C 307.892 337.827, 308.413 337.503, 307.654 327.750 C 307.301 323.212, 307.009 317.363, 307.006 314.750 L 307 310 300.250 310.132 C 296.538 310.204, 291.930 310.542, 290.011 310.882 M 453.584 320.582 C 438.408 325.446, 438.583 337.643, 454 349.671 C 463.977 357.455, 463.330 356.290, 462.730 365.383 C 462.081 375.225, 461.557 376.660, 457.928 378.537 C 449.231 383.035, 438.302 378.394, 429.371 366.411 C 427.529 363.939, 427.023 363.736, 425.621 364.900 C 422.570 367.431, 423.591 372.601, 428.108 377.502 C 436.625 386.741, 451.572 390.582, 461.834 386.167 L 466.713 384.068 474.619 388.107 C 487.166 394.518, 499.184 394.337, 509.869 387.578 C 514.735 384.500, 521.779 376.727, 522.575 373.559 C 524.584 365.554, 518.488 362.847, 515.199 370.283 C 510.264 381.439, 492.902 388.147, 481.741 383.210 C 473.842 379.715, 470.217 373.871, 470.076 364.398 C 469.981 358.001, 472.293 354.363, 480.500 348 C 493.840 337.657, 495.735 325.954, 484.788 321.505 C 478.656 319.012, 460.186 318.465, 453.584 320.582 M 459.500 327.672 C 455.052 328.651, 452.035 330.315, 451.467 332.104 C 450.076 336.487, 459.815 347, 465.266 347 C 471.326 347, 484.264 334.737, 482.648 330.526 C 481.769 328.234, 465.859 326.273, 459.500 327.672 M 853.500 371.951 C 820.303 380.684, 797.028 409.548, 789.509 451.310 C 787.269 463.750, 787.381 463.999, 795.219 464.003 C 809.488 464.010, 826.864 468.496, 838.146 475.085 C 846.428 479.922, 846.675 479.920, 847.995 475.018 C 851.875 460.610, 860.579 447.532, 878.818 428.707 C 894.393 412.631, 897.404 407.921, 898.597 397.775 C 899.181 392.804, 898.919 391.355, 896.570 386.554 C 889.601 372.309, 873.235 366.760, 853.500 371.951 M 383.159 433.750 C 399.065 455.411, 412.055 472.095, 417.438 477.777 C 423.571 484.251, 423.742 484.350, 424.923 482.144 C 426.519 479.162, 432.297 454.440, 432.411 450.108 L 432.500 446.716 423.761 444.386 C 410.234 440.781, 400.352 437.270, 390.116 432.434 C 378.228 426.817, 378.088 426.844, 383.159 433.750 M 787.680 468.653 C 786.399 469.934, 786.989 508.748, 788.306 509.815 C 788.963 510.347, 794.385 512.409, 800.356 514.399 C 812.930 518.588, 826.881 525.531, 834.889 531.585 C 837.968 533.913, 840.769 535.643, 841.115 535.429 C 841.460 535.216, 842.051 527.269, 842.428 517.771 C 842.804 508.272, 843.571 497.834, 844.132 494.576 C 845.377 487.340, 844.639 485.692, 838.194 481.304 C 830.753 476.238, 822.672 472.972, 812.724 471.012 C 801.982 468.894, 788.691 467.642, 787.680 468.653 M 375.214 471.135 C 353.023 479.662, 344.359 518.064, 359.967 538.715 C 366.666 547.578, 379.742 555.707, 397 561.740 C 411.440 566.787, 410.492 566.929, 410.546 559.706 C 410.601 552.293, 413.909 544.645, 420.629 536.394 C 425.791 530.057, 425.903 529.240, 422.109 525.605 C 419.309 522.922, 419.123 522.885, 416.159 524.418 C 412.189 526.471, 406 526.540, 406 524.532 C 406 523.725, 408.498 521.179, 411.551 518.874 C 418.723 513.459, 422 507.946, 422 501.297 C 422 488.672, 409.171 484.098, 394.726 491.573 C 386.663 495.745, 384.111 495.621, 386.414 491.166 C 388.816 486.521, 394.354 482.354, 399.892 481.026 C 406.030 479.554, 406.092 479.219, 401.071 474.683 C 394.472 468.721, 384.911 467.409, 375.214 471.135 M 429.607 504.233 C 425.777 510.176, 426.293 523, 430.362 523 C 431.807 523, 441.243 516.034, 442.456 514.071 C 443.128 512.984, 435.831 504.515, 432.847 502.918 C 431.471 502.182, 430.737 502.480, 429.607 504.233 M 788.644 519.147 C 784.293 542.112, 781.981 554.626, 781.989 555.156 C 781.995 555.516, 784.915 557.175, 788.477 558.843 C 803.448 565.848, 815.756 575.606, 823.760 586.815 C 826.240 590.289, 828.603 592.764, 829.011 592.315 C 833.010 587.919, 841.361 546.897, 839.108 542.718 C 835.511 536.047, 805.934 519.954, 792.712 517.474 C 789.453 516.862, 789.045 517.030, 788.644 519.147 M 776.141 569.250 C 773.925 573.788, 770.061 579.972, 767.556 582.993 C 765.050 586.014, 763 588.714, 763 588.993 C 763.001 589.272, 766.360 592.981, 770.466 597.236 C 778.237 605.288, 784.466 616.299, 788.436 629 C 789.382 632.025, 790.347 635.103, 790.581 635.840 C 792.007 640.331, 824 606.357, 824 600.351 C 824 594.603, 816.397 584.090, 806.455 576.093 C 799.525 570.517, 783.620 561, 781.234 561 C 780.650 561, 778.358 564.712, 776.141 569.250 M 751.500 598.615 C 748.200 601.124, 742.408 604.745, 738.628 606.662 L 731.756 610.148 732.466 614.324 C 732.856 616.621, 733.348 626.597, 733.561 636.494 C 734.016 657.673, 733.647 657, 744.797 657 C 757.316 657, 772.847 651.464, 781.404 643.950 C 786.289 639.661, 786.391 638.625, 782.968 628.066 C 779.135 616.238, 774.221 607.433, 767.255 599.909 C 760.614 592.735, 759.368 592.633, 751.500 598.615 M 493.776 611.787 C 491.727 613.279, 490.040 615.215, 490.026 616.089 C 489.991 618.244, 521.970 664.078, 538.280 685.250 C 544.995 693.967, 546.299 694.432, 551.417 689.938 C 555.781 686.107, 556.456 684.027, 554.699 679.823 C 551.292 671.667, 501.583 608.938, 498.607 609.037 C 497.998 609.057, 495.824 610.295, 493.776 611.787 M 448.647 667.762 C 448.377 668.199, 447.257 672.144, 446.158 676.529 C 440.119 700.621, 440.473 730.156, 446.995 746.413 C 450.512 755.180, 450.059 755.852, 438.535 758.962 C 414.198 765.530, 401.033 781.435, 406.755 797.357 C 408.894 803.309, 410.274 803.501, 411.217 797.977 C 412.538 790.235, 421.127 779.610, 429.240 775.680 C 435.381 772.707, 435.146 775.041, 428.670 781.353 C 415.254 794.427, 413.319 807.551, 424.001 813.001 C 428.420 815.255, 442.947 818.982, 447.357 818.993 C 449.736 818.999, 450.072 818.707, 449.364 817.250 C 445.947 810.215, 450.276 798.508, 459.320 790.323 C 463.364 786.664, 463.511 786.616, 463.830 788.850 C 464.037 790.296, 462.629 793.441, 460.068 797.254 C 454.656 805.314, 453.480 809.356, 454.955 814.833 C 456.330 819.940, 458.460 821.002, 467.315 820.996 C 487.482 820.983, 514.402 812.123, 525.579 801.820 C 534.111 793.956, 535.961 788.014, 538.913 759 C 539.444 753.775, 541.089 745.320, 542.568 740.212 C 544.047 735.104, 545.020 730.687, 544.730 730.397 C 544.441 730.107, 541.447 729.227, 538.077 728.441 C 518.061 723.772, 496.300 714.666, 484.407 705.982 C 474.458 698.719, 458.722 682.251, 454.572 674.759 C 450.737 667.835, 449.503 666.378, 448.647 667.762 M 141.005 778.823 C 138.383 779.627, 137.152 782.552, 138.760 784.160 C 139.297 784.697, 153.078 785.279, 170.626 785.504 C 232.174 786.295, 300.158 792.655, 327 800.133 C 339.858 803.716, 340.491 804.908, 333.940 813.195 C 322.860 827.213, 323.926 838.471, 337.142 847.013 C 348.306 854.229, 366.288 858.476, 419.647 866.501 C 504.465 879.256, 552.972 893.678, 575.665 912.889 C 592.252 926.930, 592.663 943.078, 576.797 957.452 C 554.644 977.524, 512.605 991.476, 460.500 996.049 C 446.709 997.259, 442 998.621, 442 1001.401 C 442 1005.457, 447.668 1005.463, 479.500 1001.442 C 536.034 994.301, 582.042 973.230, 593.210 949.365 C 604.417 925.417, 586.920 903.774, 542.500 886.639 C 523.086 879.151, 470.112 867.168, 431.500 861.531 C 383.894 854.581, 356.446 848.781, 345.893 843.442 C 331.391 836.105, 329.939 828.913, 340.470 816.587 C 353.793 800.992, 342.167 794.524, 286.500 786.565 C 248.291 781.102, 150.540 775.900, 141.005 778.823 M 267.455 844.455 C 264.523 847.386, 264.399 850.079, 266.936 855.668 C 274.726 872.823, 311.707 888.111, 365.526 896.425 C 385.075 899.445, 413.170 902.256, 415.370 901.412 C 418.201 900.325, 416.148 899.160, 410.234 898.498 C 349.203 891.666, 310.659 882.115, 286.700 867.889 C 271.986 859.152, 266.368 850.597, 272 845.500 C 273.100 844.505, 274 843.310, 274 842.845 C 274 841.074, 269.804 842.106, 267.455 844.455 M 770.122 847.509 C 757.615 858.808, 746 887.517, 746 907.131 C 746 912.179, 745.135 912.009, 741.523 906.248 C 737.490 899.816, 722.358 884.751, 717.849 882.678 C 712.884 880.396, 708.371 880.472, 707.750 882.848 C 707.161 885.099, 714.451 902.242, 722.911 918.500 C 730.346 932.789, 735.944 938.914, 737.608 934.580 C 737.907 933.799, 733.791 924.618, 728.460 914.178 C 723.130 903.737, 718.990 894.589, 719.260 893.847 C 720.617 890.133, 737.577 911.641, 744.595 925.976 C 751.510 940.101, 751.662 939.867, 752.387 914 C 752.885 896.247, 754.772 884.280, 758.473 875.401 C 761.933 867.103, 771.616 854.333, 769.577 860.758 C 766.696 869.835, 763.765 918.281, 765.427 929.361 C 766.139 934.109, 768.168 936.232, 770.124 934.276 C 770.669 933.731, 772.466 928.609, 774.118 922.893 C 777.994 909.480, 782.607 899.965, 789.929 890.282 C 795.936 882.338, 802 875.921, 802 877.509 C 802 879.353, 791.645 910.948, 787.799 920.839 C 783.712 931.348, 783.681 933.593, 787.631 932.833 C 789.976 932.381, 792.715 925.633, 803.565 893.584 C 812.558 867.019, 812.816 865.922, 810.501 864.001 C 805.597 859.931, 785.043 882.278, 774.703 902.920 L 770.906 910.500 771.511 899.500 C 771.844 893.450, 773.215 881.618, 774.558 873.206 C 778.784 846.741, 777.730 840.635, 770.122 847.509 M 129.286 849.222 C 120.209 858.501, 114.559 878.039, 117.684 889.341 C 118.522 892.373, 124.163 894, 133.833 894 C 148.535 894, 150.715 890.528, 147.159 872.769 C 144.960 861.786, 137.881 845.771, 134.986 845.228 C 134.153 845.072, 131.588 846.869, 129.286 849.222 M 74.634 871.107 C 39.828 879.520, 34.652 905.242, 64.725 920.354 C 78.064 927.057, 98.618 932.444, 108.449 931.814 C 116.053 931.326, 115.201 929.373, 106.800 928.032 C 73.582 922.730, 52.681 911.134, 50.340 896.708 C 48.730 886.788, 60.698 877.897, 81.435 873.609 C 89.992 871.839, 91.306 871.304, 90.457 869.931 C 89.589 868.526, 83.410 868.985, 74.634 871.107 M 180.543 870.931 C 179.674 872.336, 180.813 872.733, 190.611 874.432 C 216.926 878.998, 231 887.841, 231 899.811 C 231 912.728, 212.518 923.020, 184 925.982 C 172.025 927.226, 170.333 927.820, 171.336 930.433 C 172.079 932.369, 172.767 932.369, 187.459 930.443 C 217.970 926.441, 236 915.063, 236 899.811 C 236 889.945, 228.215 881.587, 213.833 876.011 C 202.249 871.521, 182.081 868.443, 180.543 870.931 M 90.781 885.052 C 84.586 888.323, 83.104 894.529, 87.158 900.222 C 99.308 917.284, 185.597 918.174, 192.644 901.310 C 193.674 898.844, 193.765 897.430, 192.988 895.977 C 191.454 893.112, 190.175 893.543, 189.216 897.250 C 188.122 901.480, 183.313 904.190, 172.652 906.582 C 161.002 909.197, 125.417 909.241, 112.500 906.657 C 92.298 902.615, 84.855 895.303, 93 887.500 C 97.892 882.814, 96.962 881.788, 90.781 885.052 M 467.441 937.449 C 449.559 955.589, 366.921 965.439, 298 957.644 C 285.075 956.182, 273.733 954.812, 272.796 954.599 C 271.860 954.386, 270.316 954.780, 269.366 955.474 C 267.755 956.652, 267.778 956.811, 269.721 957.851 C 280.630 963.689, 361.668 966.819, 395.869 962.723 C 425.372 959.190, 450.215 952.631, 463.180 944.951 C 469.833 941.010, 474.360 936.580, 473.714 934.643 C 473.054 932.663, 471.454 933.378, 467.441 937.449" stroke="none" fill="#1a1a1a" fill-rule="evenodd"/>
</svg>