<svg xmlns="http://www.w3.org/2000/svg" width="1024" height="1024" viewBox="0 0 1024 1024" version="1.1">
	<path d="M 230.771 11.750 C 225.342 29.688, 220.487 51.381, 219.526 62 C 213.818 125.026, 223.545 179.669, 245.619 208.588 L 249.192 213.269 245.588 227.384 C 243.607 235.148, 241.988 242.689, 241.992 244.143 C 241.997 245.597, 241.350 247.036, 240.555 247.340 C 239.761 247.645, 238.840 249.606, 238.509 251.697 C 235.527 270.554, 230.849 292.280, 227.462 303 C 223.352 316.010, 224.536 315.181, 213.923 312.480 C 208.910 311.205, 202.490 309.847, 199.655 309.464 C 196.820 309.080, 193.600 308.588, 192.500 308.371 C 186.691 307.223, 171.135 306.037, 168.742 306.560 C 164.860 307.408, 163.421 310.421, 165.773 312.773 C 167.107 314.107, 170.518 314.932, 178.546 315.864 C 190.941 317.303, 203.067 319.287, 213.845 321.640 L 221.191 323.243 220.531 327.641 C 219.736 332.945, 219.745 353.109, 220.544 357.417 L 221.117 360.500 210.308 362.833 C 184.553 368.391, 168.230 375.957, 172.053 380.564 C 173.807 382.677, 174.984 382.465, 191.451 377.068 C 199.728 374.355, 210.015 371.244, 214.311 370.155 L 222.122 368.173 223.016 370.337 C 223.509 371.526, 225.120 375.650, 226.598 379.500 C 230.535 389.759, 235.117 398.552, 241.475 408.051 C 247.684 417.329, 247.665 416.779, 242.071 424.491 L 239.175 428.482 239.738 453.084 L 240.300 477.686 235.114 478.300 C 225.940 479.387, 214.165 487.980, 209.507 496.986 C 204.410 506.842, 201.709 525.067, 201.721 549.521 C 201.732 572.664, 218.192 596.517, 238 602.094 C 240.475 602.791, 242.641 603.458, 242.814 603.578 C 242.987 603.697, 243.492 608.714, 243.937 614.727 C 245.149 631.103, 249.075 635.751, 268.213 643.468 C 277.067 647.039, 304.207 654.019, 317.048 656.028 L 324.596 657.209 314.372 687.355 C 295.877 741.885, 289.544 763.485, 291.011 767.027 C 293.081 772.024, 299.959 777.125, 313.860 783.973 L 327 790.446 327 797.617 C 327 813.868, 330.886 840.994, 336.473 863.749 C 340.068 878.388, 349.525 905.835, 353.011 911.743 C 354.849 914.859, 354.864 915.113, 353.238 915.705 C 352.282 916.053, 345.918 918.729, 339.096 921.651 C 317.011 931.113, 307.763 938.614, 300.768 952.742 C 295.221 963.947, 294.722 975.486, 299.366 985.190 C 308.751 1004.802, 342.759 1017, 388.051 1017 C 426.580 1017, 472.106 998.299, 481.372 978.666 C 486.351 968.117, 487.373 949.788, 483.653 937.726 L 482.181 932.951 485.375 931.617 C 488.873 930.155, 490.669 926.828, 493.670 916.250 C 494.645 912.813, 495.720 910, 496.058 910 C 496.396 910, 497.454 912.813, 498.409 916.250 C 501.175 926.204, 509.906 946.563, 512.422 948.927 C 513.687 950.115, 516.922 951.931, 519.611 952.962 C 523.701 954.529, 524.173 954.957, 522.500 955.581 C 513.816 958.818, 501.210 971.741, 495.824 982.927 C 490.378 994.236, 490.700 1010.812, 496.545 1020.071 L 499.025 1024 506.240 1024 L 513.456 1024 509.818 1021.002 C 500.716 1013.499, 498.297 996.562, 504.820 986.010 C 513.411 972.113, 533.782 956.485, 540.203 958.865 C 549.068 962.152, 602.822 964.062, 622.660 961.796 C 631.419 960.796, 653.328 956.179, 657.410 954.473 L 660.856 953.033 662.178 956.767 C 664.704 963.901, 663.904 983.529, 660.816 990.175 C 656.156 1000.206, 642.963 1012.062, 627.638 1019.992 L 619.892 1024 630.522 1024 L 641.152 1024 646.826 1019.632 C 656.906 1011.872, 666.519 1000.903, 668.963 994.370 C 673.685 981.751, 674.081 968.114, 670.070 956.208 L 668.065 950.257 671.862 946.265 C 678.144 939.662, 679.703 931.700, 685.522 876.500 C 686.276 869.350, 686.917 860.913, 686.946 857.750 C 687.001 851.921, 687.526 851.318, 692.095 851.830 C 696.448 852.318, 715.534 848.410, 724.500 845.195 C 753.125 834.932, 769.838 824.081, 788.103 803.901 C 811.582 777.961, 822.874 754.373, 834.014 708 C 843.603 668.083, 846.874 661.516, 869.833 636.102 C 884.992 619.322, 889.159 611.973, 889.800 600.886 C 890.450 589.671, 888.489 584.618, 880.653 577.307 C 861.727 559.650, 830.258 565.124, 803.467 590.733 C 779.693 613.459, 768.292 637.040, 753.543 694 C 741.635 739.986, 732.850 754.880, 708.416 770.511 C 701.759 774.769, 701.337 774.816, 704.171 770.983 C 706.282 768.127, 706.338 767.606, 705.213 761.233 C 703.186 749.741, 703.023 748.932, 699.356 732 C 697.390 722.925, 695.419 713.475, 694.975 711 C 694.532 708.525, 693.207 702, 692.031 696.500 C 688.605 680.477, 684.874 661.907, 683.995 656.500 C 683.547 653.750, 682.485 648.125, 681.635 644 C 677.681 624.817, 677.122 619.491, 678.110 610.383 C 683.038 564.950, 675.938 530.201, 656.889 506.522 C 651.284 499.554, 643.040 491.430, 639.611 489.495 C 638.151 488.671, 639.602 487.789, 647.665 484.596 C 663.566 478.300, 686.895 464.938, 697.250 456.195 C 704.220 450.310, 702.972 450.051, 712.880 459.441 C 723.159 469.182, 725.364 469.962, 727.363 464.564 C 727.935 463.019, 726.245 460.821, 718.977 453.655 L 709.874 444.681 715.780 438.591 C 727.279 426.734, 736.982 412.137, 744.578 395.272 C 746.913 390.086, 749.030 385.637, 749.281 385.386 C 749.532 385.135, 753.924 386.745, 759.041 388.965 C 769.081 393.319, 772.068 393.828, 773.989 391.513 C 776.658 388.297, 772.646 384.967, 760.500 380.318 C 756.650 378.844, 753.172 377.370, 752.772 377.041 C 752.371 376.712, 753.378 371.652, 755.009 365.797 C 760.187 347.207, 761.283 338.489, 761.396 315 C 761.501 293.379, 760.870 281.597, 759.015 270.500 C 757.364 260.625, 757.706 257.291, 760.847 252.680 C 773.746 233.740, 790.197 194.395, 795.951 168.721 C 802.446 139.738, 803.582 92.181, 798.490 62.440 C 795.088 42.570, 788.541 23.876, 783.194 18.767 C 776.237 12.118, 771.844 11.592, 752.172 15.054 C 709.959 22.482, 662.446 42.314, 623.270 68.858 C 615.443 74.161, 607.553 79.351, 605.737 80.392 L 602.434 82.283 585.967 76.663 C 533.120 58.625, 475.680 55.086, 422.222 66.574 L 414.097 68.320 407.764 62.410 C 390.306 46.119, 358.894 22.941, 330.171 5.157 L 321.842 0 310.171 0.006 L 298.500 0.013 309 5.795 C 335.603 20.444, 370.311 44.664, 393.647 64.864 C 397.691 68.365, 401 71.522, 401 71.880 C 401 72.238, 398.723 73.339, 395.940 74.328 C 391.393 75.943, 390.911 76.398, 391.190 78.813 C 391.779 83.917, 396.757 84.002, 413.766 79.201 C 440.020 71.790, 461.654 69.299, 490.500 70.366 C 524.055 71.608, 534.685 73.089, 563.500 80.538 C 586.569 86.503, 595.586 90.195, 595.537 93.660 C 595.440 100.480, 599.348 99.039, 617.500 85.565 C 659.067 54.708, 726.831 26.761, 766.090 24.283 L 774.679 23.741 776.923 26.891 C 780.745 32.259, 786.359 52.134, 788.393 67.500 C 788.685 69.700, 789.441 75.100, 790.075 79.500 C 793.541 103.566, 790.888 146.496, 784.419 171.033 C 776.897 199.559, 758.988 239.841, 746.419 256.500 C 742.307 261.950, 742.388 266.797, 746.600 267.409 C 750.652 267.998, 753.245 312.646, 750.525 335 C 749.183 346.032, 744.065 369.391, 742.379 372.181 C 742.152 372.556, 738.044 371.536, 733.249 369.915 C 728.454 368.294, 721.823 366.509, 718.515 365.948 C 675.040 358.573, 643.777 358.492, 609.500 365.665 C 596.014 368.487, 594.513 369.222, 596.119 372.223 C 597.392 374.602, 599.668 374.464, 618.500 370.863 C 628.920 368.870, 633.594 368.571, 654 368.588 C 686.670 368.615, 705.915 371.386, 738.154 380.705 C 739.968 381.229, 738.731 384.688, 731.612 399 C 725.352 411.585, 706.982 435.918, 702.420 437.669 C 701.657 437.962, 696.863 435.388, 691.767 431.949 C 667.482 415.564, 638.367 404.412, 604.539 398.538 C 595.267 396.928, 593 397.608, 593 401.997 C 593 405.411, 594.231 405.873, 610.500 408.555 C 640.241 413.459, 667.575 424.485, 690.087 440.658 L 694.963 444.161 692.231 446.441 C 668.311 466.410, 616.642 487.625, 581.256 492.008 C 576.440 492.604, 570.228 493.571, 567.452 494.157 C 560.393 495.647, 523.184 496.644, 507.058 495.776 C 490.103 494.864, 457.047 490.380, 455.442 488.775 C 455.205 488.538, 455.915 480.346, 457.020 470.571 C 459.733 446.569, 459.267 443.499, 451.660 435.247 C 443.912 426.841, 435.697 422.739, 414.285 416.584 L 403.070 413.360 408.285 409.930 L 413.500 406.500 419 412.016 C 439.917 432.997, 480.066 427.137, 486.016 402.235 C 487.161 397.441, 484.490 394.240, 481.250 396.526 C 480.012 397.399, 479 398.718, 479 399.456 C 479 401.965, 468.155 410.798, 462.459 412.929 C 451.631 416.981, 440.371 415.497, 429.587 408.599 C 422.252 403.907, 420.005 399.505, 419.985 389.790 L 419.971 382.500 429.977 372.956 C 442.474 361.036, 445 357.679, 445 352.993 C 445 345.296, 437.897 341.817, 418.386 339.954 C 403.449 338.528, 399.039 339.271, 393.487 344.146 C 385.394 351.251, 392.049 367.406, 407.028 377.018 C 411.309 379.765, 412 380.658, 412 383.445 C 412 391.102, 402.374 404.444, 395.101 406.867 C 385.078 410.207, 377.892 406.071, 366 390.117 C 361.124 383.576, 358.424 382.461, 357.395 386.562 C 356.613 389.676, 359.163 395.726, 363.855 401.886 L 367.209 406.291 362.855 405.661 C 342.783 402.753, 311.605 401.137, 295.224 402.155 C 283.683 402.871, 264.514 407.049, 258.846 410.083 C 256.018 411.596, 253.717 409.814, 248.735 402.252 C 241.181 390.785, 231.725 368.941, 233.534 367.133 C 233.812 366.855, 240.132 366.550, 247.577 366.456 C 262.190 366.272, 263.596 365.827, 261.680 361.989 C 260.446 359.516, 260.345 359.499, 245.469 359.331 L 230.500 359.162 229.838 354.331 C 228.974 348.035, 228.858 334.491, 229.627 329.839 L 230.233 326.177 236.366 328.542 C 239.740 329.842, 245.200 332.042, 248.500 333.429 C 251.800 334.817, 255.668 335.963, 257.095 335.976 C 260.180 336.004, 263.296 332.936, 262.442 330.710 C 261.839 329.138, 250.685 324.115, 239.750 320.491 C 236.588 319.443, 234.006 318.117, 234.013 317.543 C 234.020 316.969, 235.822 310.875, 238.017 304 C 240.212 297.125, 243.589 282.950, 245.522 272.500 C 258.828 200.555, 279.453 160.058, 320.396 125.486 C 325.995 120.758, 334.157 114.819, 349.250 104.492 C 358.206 98.364, 358.219 97.026, 349.470 82.409 C 338.133 63.469, 325.795 48.990, 305.570 30.888 C 294.119 20.639, 290.103 19.296, 290.953 26 C 291.058 26.825, 295.777 32.225, 301.440 38 C 320.630 57.569, 333.751 74.549, 341.301 89.585 L 344.859 96.670 333.246 104.305 L 321.634 111.941 317.567 108.679 C 301.549 95.834, 290.634 91.121, 287.011 95.487 C 285.105 97.784, 286.324 99.342, 291.526 101.257 C 296.146 102.959, 311.820 112.873, 313.954 115.444 C 314.745 116.398, 313.008 118.514, 306.930 124.002 C 287.074 141.931, 263.812 175.654, 254.852 199.500 L 253.349 203.500 249.146 195.216 C 226.221 150.026, 222.008 85.747, 237.858 23 C 239.344 17.120, 243.195 5.659, 244.663 2.750 L 246.051 0 240.189 0 L 234.327 -0 230.771 11.750 M 748 51.690 C 713.133 57.517, 654.364 102.043, 644.449 130.146 C 642.486 135.708, 642.405 135.571, 652.676 144.132 C 681.704 168.331, 705.820 196.944, 719.155 223.008 C 722.346 229.244, 724.075 231.582, 725.664 231.808 C 736.876 233.406, 710.807 187.481, 685.612 161.251 C 679.745 155.143, 679.512 155.678, 691.023 148.809 C 700.451 143.182, 708.979 139.758, 720.500 136.973 C 736.737 133.048, 734.744 128.968, 717.512 130.855 C 703.422 132.397, 684.693 140.822, 677.649 148.788 L 675.798 150.881 665.444 141.905 C 657.617 135.119, 655.248 132.510, 655.736 131.214 C 658.207 124.663, 664.664 116.141, 674.901 105.922 C 697.382 83.482, 715.236 71.889, 743.902 61.116 C 753.794 57.399, 754.320 57.055, 754.643 54.104 C 755.005 50.801, 754.474 50.608, 748 51.690 M 428.035 93.294 C 422.846 98.706, 414.713 114.993, 411.453 126.500 C 408.077 138.414, 407.002 153.927, 409.413 155.928 C 412.533 158.517, 414.072 155.221, 416.042 141.732 C 418.643 123.927, 423.690 109.968, 431.957 97.719 C 437.458 89.568, 434.647 86.396, 428.035 93.294 M 483.346 103.250 C 476.545 110.350, 470.964 118.773, 466.026 129.392 C 454.462 154.260, 451.134 171.873, 458.202 170.811 C 459.941 170.549, 460.707 168.756, 463.032 159.500 C 467.304 142.491, 474.878 125.743, 484.164 112.771 C 490.394 104.067, 491.806 101.471, 490.900 100.380 C 489.080 98.187, 487.689 98.716, 483.346 103.250 M 520.594 142.312 C 510.058 153.172, 504.165 166.454, 508.483 169.611 C 511.345 171.704, 513.715 169.599, 515.655 163.241 C 517.444 157.380, 521.658 149.952, 527.646 142.106 C 535.073 132.376, 530.094 132.522, 520.594 142.312 M 334.873 181.880 C 325.614 183.833, 314 192.197, 314 196.912 C 314 201.005, 316.264 200.990, 325.018 196.839 C 339.487 189.978, 351.709 187.873, 356.545 191.409 C 359.328 193.444, 362.214 191.676, 361.810 188.183 C 361.199 182.892, 346.442 179.440, 334.873 181.880 M 553 192.630 C 552.175 192.763, 549.460 193.139, 546.967 193.465 C 541.493 194.180, 535.824 197.378, 536.572 199.328 C 536.987 200.409, 539.768 200.688, 549.301 200.605 C 564.283 200.476, 566.404 201.346, 576.419 211.731 C 586.044 221.711, 591.150 221.026, 585.874 210.462 C 580.157 199.016, 564.843 190.709, 553 192.630 M 322.388 264.951 C 319.577 266.563, 316.116 269.261, 314.698 270.947 C 301.570 286.549, 300.549 318.477, 313.091 321.194 C 318.649 322.397, 319.477 321.491, 316.448 317.521 C 314.201 314.574, 313.698 312.712, 313.261 305.710 C 311.827 282.716, 325.546 266.528, 342.331 271.408 C 348.393 273.170, 351.680 276.291, 355.481 283.891 C 357.805 288.538, 357.923 289.166, 356.338 288.446 C 351.783 286.375, 342.620 286.775, 339.024 289.202 C 321.717 300.881, 328.221 337.873, 347.914 339.766 C 360.002 340.927, 370 329.206, 370 313.873 C 370 306.864, 366.095 287.362, 363.379 280.808 C 356.594 264.435, 336.703 256.740, 322.388 264.951 M 535.081 278.529 C 520.040 282.738, 509.725 296.222, 506.319 316.127 C 500.805 348.349, 522.217 368.124, 543.987 350.916 C 552.330 344.321, 554.837 329.471, 549.604 317.639 C 544.843 306.873, 530.022 300.610, 520.750 305.447 C 517.124 307.338, 517.281 306.028, 521.463 299.491 C 533.741 280.297, 559.541 283.394, 569.526 305.260 C 574.231 315.564, 573.730 331.443, 568.440 339.686 C 565.094 344.901, 562.944 349.277, 563.470 349.803 C 564.584 350.917, 571.554 346.122, 574.710 342.071 C 580.854 334.183, 583.142 319.722, 580.038 308.406 C 573.977 286.312, 554.211 273.177, 535.081 278.529 M 291 411.510 C 269.406 414.472, 254.881 419.885, 255.055 424.905 C 255.131 427.100, 259.366 430.251, 269.447 435.614 C 277.935 440.129, 278.044 440.156, 283.251 439.026 C 291.549 437.225, 332.661 436.511, 347.571 437.909 C 381.941 441.131, 400.031 444.370, 419.255 450.746 C 431.436 454.786, 433.315 454.644, 442.252 448.997 C 446.999 445.997, 447.002 445.991, 445.701 442.747 C 441.321 431.826, 402.278 418.724, 360 413.987 C 324.650 410.027, 306.546 409.376, 291 411.510 M 248.496 445.764 C 248.758 452.219, 249.198 475.050, 249.472 496.500 C 250.183 552.044, 251.906 608.641, 253.067 614.561 C 255.161 625.246, 262.438 630.698, 283.500 637.367 C 324.303 650.285, 389.665 649.953, 403.753 636.757 L 406.005 634.647 402.753 631.528 C 400.964 629.813, 398.303 626.968, 396.840 625.205 C 395.185 623.211, 393.264 622, 391.755 622 C 390.422 622, 386.443 621.063, 382.915 619.919 C 361.780 613.062, 351.091 596.416, 358.018 581.149 C 359.942 576.909, 359.946 576.731, 358.149 574.149 C 353.202 567.039, 352.554 556.295, 356.584 548.207 C 358.960 543.440, 367.027 535, 369.208 535 C 369.718 535, 369.827 534.031, 369.452 532.848 C 365.151 519.296, 377.071 506.058, 399.560 499.411 C 408.343 496.815, 427.215 496.999, 436.486 499.772 C 440.328 500.922, 443.585 501.748, 443.725 501.609 C 443.864 501.469, 444.889 493.063, 446.002 482.928 C 447.116 472.792, 448.311 462.475, 448.659 460 C 449.271 455.653, 449.228 455.555, 447.396 457.129 C 442.325 461.487, 433.733 463.887, 412.202 466.960 C 395.267 469.376, 386.777 469.484, 366 467.546 C 313.172 462.618, 270.634 451.394, 252.759 437.668 L 248.018 434.027 248.496 445.764 M 298.500 443.913 L 290.500 444.522 296 446.241 C 299.025 447.187, 306.675 449.054, 313 450.389 C 323.456 452.597, 329.914 453.689, 351.722 456.935 C 368.511 459.434, 414 459.437, 414 456.939 C 414 454.686, 386.849 448.343, 364.563 445.389 C 352.725 443.821, 311.739 442.904, 298.500 443.913 M 233.500 485.375 C 222.493 490.559, 215.511 499.492, 212.508 512.231 C 210.371 521.292, 210.546 521.643, 215.130 517.502 C 217.401 515.449, 221.707 512.650, 224.697 511.281 C 237.553 505.396, 243.404 508.371, 231.916 514.951 C 212.682 525.967, 206.120 543.452, 213.165 564.910 L 215.269 571.319 217.012 566.727 C 220.258 558.178, 230.485 548.402, 238 546.666 L 240.500 546.088 240.222 514.544 C 240.070 497.195, 239.620 483.004, 239.222 483.010 C 238.825 483.015, 236.250 484.079, 233.500 485.375 M 619.875 494.459 C 618.181 496.153, 586.428 502.806, 571.679 504.557 C 567.867 505.010, 564.934 506.024, 563.179 507.498 C 558.170 511.704, 544.405 520.766, 539.944 522.794 C 527.860 528.289, 494.008 536.439, 488.656 535.142 C 487.282 534.809, 488.505 537.335, 489.952 537.817 C 490.743 538.081, 490.996 537.803, 490.580 537.130 C 490.196 536.508, 490.073 536, 490.307 536 C 490.541 536, 493.155 539.779, 496.116 544.398 C 499.971 550.411, 502.210 552.947, 504 553.325 C 505.375 553.615, 511.517 555.439, 517.650 557.379 C 535.206 562.930, 537.960 563.052, 541.484 558.432 C 543.068 556.356, 543.719 555.049, 542.931 555.528 C 542.144 556.006, 543.975 553.526, 547 550.017 C 557.843 537.436, 581.166 518.766, 583.332 520.932 C 586.562 524.162, 584.519 527.396, 570.172 541.757 C 562.384 549.554, 556.758 555.646, 557.670 555.296 C 558.702 554.900, 559.081 555.059, 558.675 555.717 C 557.835 557.076, 559.426 558.266, 564.968 560.421 C 577.258 565.200, 595.493 580.814, 607.573 596.904 C 620.121 613.616, 629.933 639.820, 629.982 656.750 C 629.992 660.188, 630.410 663, 630.912 663 C 632.418 663, 649.095 644.400, 655.063 636.065 C 663.138 624.786, 665.579 618.969, 667.412 606.628 C 673.497 565.673, 663.650 528.734, 640.225 504.640 C 634.385 498.633, 621.931 492.403, 619.875 494.459 M 453.417 501.702 C 453.028 504.301, 453.114 506.538, 453.611 506.704 C 456.414 507.638, 473.143 519.468, 476.741 523.060 L 480.982 527.294 496.167 524.030 C 514.201 520.153, 540.482 511.855, 544 508.927 L 546.500 506.847 537.500 507.408 C 514.656 508.832, 467.917 503.536, 457.800 498.377 C 454.109 496.495, 454.210 496.418, 453.417 501.702 M 401 508.882 C 393.767 511.216, 389.424 513.501, 384.249 517.692 C 378.348 522.472, 377.479 524.381, 379.379 528.387 L 380.913 531.618 386.988 530.613 C 397.859 528.816, 418.823 533.099, 415.971 536.535 C 415.314 537.327, 415.025 538.622, 415.329 539.414 C 416.532 542.549, 413.583 542.847, 406 540.354 C 398.334 537.834, 380.688 537.428, 379.103 539.735 C 378.771 540.218, 377.097 541.181, 375.381 541.874 C 369.121 544.403, 363 553.192, 363 559.652 C 363 563.100, 366.607 570.635, 368.629 571.411 C 369.474 571.735, 374.066 571.568, 378.833 571.038 C 393.197 569.443, 404.728 569.333, 406.175 570.778 C 408.644 573.242, 405.756 575.422, 398.394 576.649 C 394.602 577.282, 386.775 578.573, 381 579.520 C 369.923 581.335, 367.932 582.337, 365.965 587.085 C 361.981 596.703, 374.159 608.700, 391.102 611.846 C 398.907 613.296, 401.583 614.530, 403.658 617.639 C 412.089 630.265, 431.386 638.983, 450.935 638.997 C 455.059 639, 455.762 639.418, 460.935 644.942 C 473.856 658.739, 507.075 676.612, 532 683.176 C 549.130 687.687, 571.819 685.620, 588.500 678.028 C 598.852 673.316, 613.447 660.956, 617.421 653.537 C 619.888 648.929, 618.078 639.411, 612.201 626.093 C 600.165 598.818, 582.307 578.941, 560.385 568.419 C 551.125 563.975, 550.959 563.937, 548.528 565.706 C 545.285 568.066, 545.308 568.133, 550.250 570.778 C 558.001 574.927, 567.500 583.335, 567.500 586.047 C 567.500 589.040, 563.817 589.960, 561.423 587.566 C 555.673 581.816, 542.323 574.985, 529.897 571.435 C 524.729 569.959, 517.233 567.711, 513.239 566.440 C 506.711 564.363, 505.701 564.274, 503.239 565.559 C 501.733 566.345, 500.022 566.990, 499.437 566.994 C 497.811 567.003, 493.575 562.107, 489.925 556 C 477.652 535.463, 462.270 521.633, 442 512.910 C 427.471 506.658, 412.462 505.184, 401 508.882 M 237 555.011 C 225.255 561.128, 219.321 577.935, 226.295 585.333 C 228.698 587.882, 236.164 592.394, 239.750 593.464 C 241.998 594.134, 242 594.125, 241.894 582.317 C 241.836 575.818, 241.498 566.605, 241.144 561.844 L 240.500 553.189 237 555.011 M 842.206 578.497 C 828.785 582.260, 818.409 589.297, 806.160 602.942 C 786.809 624.500, 777.925 643.439, 765.553 689.500 C 757.687 718.783, 756.929 721.266, 752.910 730.923 C 742.285 756.448, 728.532 771.814, 706.500 782.774 C 702.100 784.963, 696.250 787.277, 693.500 787.916 L 688.500 789.079 688.747 814.289 C 688.883 828.155, 688.996 839.837, 688.997 840.250 C 689.007 842.740, 708.038 840.081, 720.352 835.868 C 754.529 824.176, 776.361 806.747, 798.979 773.097 C 807.615 760.248, 816.487 736.231, 824.134 705 C 834.503 662.652, 839.037 653.680, 863.217 627.678 C 882.872 606.541, 885.673 595.515, 874.130 584.718 C 866.791 577.853, 853.642 575.291, 842.206 578.497 M 664 640.839 C 652.880 657.299, 634.530 676.376, 623.454 682.990 C 616.943 686.879, 605.521 688.420, 601.029 686.016 C 599.136 685.003, 597.963 685.270, 593.153 687.812 C 578.248 695.687, 555.785 698.942, 537 695.949 C 513.443 692.195, 469.091 669.785, 455.324 654.679 C 450.506 649.394, 449.838 649, 445.681 649 C 438.840 649, 426.141 646.111, 419.829 643.118 L 414.157 640.430 411.434 643.843 C 404.357 652.712, 372.752 659.742, 344.047 658.831 L 333.594 658.500 329.742 671 C 324.383 688.395, 321.751 696.492, 316.579 711.500 C 311.087 727.439, 303.118 753.974, 302.072 759.806 L 301.300 764.113 307.530 768.559 C 329.240 784.051, 389.422 802.874, 436.500 808.897 C 462.476 812.220, 528.409 813.931, 548 811.790 C 572.071 809.159, 590.119 806.211, 607.978 801.991 C 619.626 799.239, 625.592 797.625, 645 791.974 C 659.513 787.748, 687.946 773.914, 692.811 768.712 L 695.123 766.240 692.440 751.870 C 690.965 743.967, 687.095 724.675, 683.842 709 C 680.589 693.325, 675.877 670.150, 673.372 657.500 C 670.867 644.850, 668.746 634.428, 668.659 634.339 C 668.572 634.250, 666.475 637.175, 664 640.839 M 614.762 671.116 C 609.924 676.721, 609.846 677.770, 614.397 676.039 C 616.052 675.410, 617.678 673.620, 618.601 671.413 C 621.069 665.506, 619.697 665.400, 614.762 671.116 M 669.500 792.788 C 640.804 805.046, 601.458 815.104, 562.314 820.187 C 536.765 823.504, 479.158 823.502, 450.439 820.183 C 408.419 815.325, 373.236 807.660, 344.105 797.016 L 335.709 793.948 336.404 803.224 C 337.268 814.748, 340.346 835.958, 343.042 848.970 C 346.844 867.319, 357.668 900.287, 361.752 905.960 C 365.850 911.653, 389.710 920.171, 411.029 923.551 C 432.475 926.952, 471.483 926.387, 478.867 922.569 C 484.373 919.721, 493.438 890.104, 490.235 885.427 C 489.831 884.838, 486.575 883.572, 483 882.615 C 468.594 878.759, 456.890 874.467, 445.151 868.735 C 428.305 860.508, 425.542 857.964, 427.607 852.582 C 428.434 850.427, 430.624 850.596, 434.120 853.085 C 440.510 857.636, 475.541 871.209, 484.275 872.519 C 488.467 873.147, 489.003 873.017, 489.022 871.364 C 489.034 870.339, 489.941 868.375, 491.036 867 L 493.027 864.500 495.014 866.861 C 496.106 868.159, 497 870.111, 497 871.197 C 497 872.284, 497.866 876.396, 498.924 880.336 C 499.983 884.276, 502.036 892.225, 503.488 898 C 506.553 910.194, 511.827 925.449, 516.514 935.676 L 519.802 942.853 529.651 945.798 C 566.220 956.732, 621.520 956.390, 654.447 945.025 C 667.886 940.386, 669.595 936.368, 672.954 901.500 C 673.537 895.450, 674.470 885.775, 675.028 880 C 678.131 847.883, 678.998 833.305, 678.985 813.486 C 678.976 801.394, 678.639 791.021, 678.235 790.435 C 677.747 789.729, 674.806 790.521, 669.500 792.788 M 344.148 929.972 C 333.045 935.736, 323.295 941.576, 319.464 944.756 C 303.750 957.800, 301.586 977.200, 314.529 989 L 317.271 991.500 316.015 989.089 C 313.980 985.187, 315.202 973.443, 318.261 967.500 C 322.404 959.453, 334.350 949, 339.404 949 C 343.474 949, 342.535 951.061, 335.250 958.119 C 326.447 966.647, 322.665 973.509, 322.671 980.942 C 322.676 987.468, 325.692 995.102, 329.156 997.356 C 333.810 1000.383, 359 1006.539, 359 1004.649 C 359 1004.314, 358.263 1002.199, 357.362 999.947 C 352.461 987.698, 363.369 963.553, 375.755 959.235 C 380.649 957.529, 380.429 959.139, 374.816 966.116 C 365.017 978.295, 362.115 988.821, 365.487 999.956 L 367.236 1005.733 373.868 1006.359 C 402.403 1009.055, 435.276 1002.067, 457.842 988.508 C 467.551 982.674, 472.985 976.585, 475.162 969.099 C 476.807 963.446, 476.852 944.991, 475.235 939.500 L 474.057 935.500 448.278 935.445 C 415.505 935.376, 402.974 933.516, 375.500 924.642 L 362.500 920.443 344.148 929.972 M 528.476 987.268 C 519.294 993.596, 514.077 1007.935, 516.417 1020.411 C 517.073 1023.907, 517.209 1024, 521.652 1024 C 525.607 1024, 526.117 1023.767, 525.486 1022.250 C 522.080 1014.064, 524.406 1003.274, 531.634 993.735 C 539.053 983.942, 537.605 980.977, 528.476 987.268 M 568.109 986.562 C 562.210 991.526, 557 1005.591, 557 1016.555 C 557 1023.151, 557.628 1024, 562.502 1024 L 566.789 1024 566.062 1020.750 C 564.408 1013.365, 568.614 996.135, 573.567 990 C 574.877 988.378, 573.813 984, 572.109 984 C 571.583 984, 569.783 985.153, 568.109 986.562" stroke="none" fill="#1a1a1a" fill-rule="evenodd"/>
</svg>