<svg xmlns="http://www.w3.org/2000/svg" width="1024" height="1024" viewBox="0 0 1024 1024" version="1.1">
	<path d="M 284.900 9.991 C 268.800 18.501, 256.992 59.852, 255.345 113.500 C 253.850 162.169, 265.206 215.320, 280.912 233.163 C 285.970 238.909, 285.982 238.443, 280.381 253.820 C 274.768 269.230, 269.618 289.197, 267.955 302 L 266.720 311.500 249.110 311.509 C 224.772 311.522, 220.632 313.004, 224.697 320.250 C 224.929 320.663, 230.349 321, 236.741 321 C 243.134 321, 252.240 321.497, 256.976 322.104 L 265.588 323.209 266.763 335.354 C 267.409 342.034, 268.756 350.697, 269.755 354.605 L 271.572 361.710 262.036 363.970 C 247.401 367.439, 231.657 372.739, 229.206 375.022 C 224.330 379.565, 227.406 383.181, 234.403 381.132 C 249.069 376.837, 266.262 372.912, 271.244 372.722 L 277.087 372.500 280.823 381.500 C 286.098 394.206, 290.712 400.674, 304.992 415.387 C 322.636 433.564, 336.417 443.684, 358.804 454.904 L 371.108 461.070 365.735 467.285 C 338.157 499.183, 313.909 535.817, 300.471 565.886 C 289.345 590.778, 286 604.308, 286 624.407 C 286 638.560, 286.470 637.921, 277.932 635.390 C 254.167 628.344, 245.623 610.305, 238.434 552 C 234.364 518.985, 226.339 498.785, 210.794 482.420 C 196.672 467.553, 182.827 460.678, 167 460.674 C 145.967 460.668, 133.361 472.051, 132.200 492.099 C 131.441 505.215, 134.656 510.831, 149.137 521.692 C 169.621 537.056, 176.566 549.769, 180.444 579 C 185.853 619.774, 188.160 629.513, 196.441 646.524 C 210.615 675.641, 244.711 695.891, 279.711 695.979 C 289.589 696.004, 291.405 697.327, 292.335 705.177 C 292.756 708.736, 294.139 712.109, 296.940 716.409 C 306.610 731.251, 314.462 734.758, 347.522 739.003 C 356.239 740.122, 363.602 741.269, 363.885 741.552 C 364.579 742.246, 343.827 763, 342.439 763 C 341.835 763, 337.777 760.966, 333.421 758.481 C 312.380 746.476, 289.754 741.855, 262.967 744.091 C 229.238 746.907, 202.017 764.015, 180.369 796 C 164.892 818.867, 158.729 837.857, 157.327 867 C 155.723 900.346, 168.154 935.368, 190.159 959.495 C 194.698 964.472, 195.124 965.252, 193 964.683 C 185.134 962.580, 120.800 961.697, 109.250 963.534 C 104.354 964.313, 104.031 965.092, 107.479 967.805 C 110.189 969.936, 113.689 970.153, 174.072 971.936 C 203.488 972.804, 205.890 973.225, 213.884 978.917 C 218.410 982.140, 232.866 989.073, 240.461 991.664 C 267.366 1000.840, 302.772 998.190, 325.968 985.263 L 332.435 981.659 355.968 982.837 C 379.595 984.021, 440.705 986.642, 511.500 989.509 C 532.400 990.355, 559.175 991.480, 571 992.009 C 582.825 992.538, 608.426 993.486, 627.891 994.116 L 663.283 995.261 675.253 1000.696 C 701.605 1012.660, 714.259 1015.491, 737.985 1014.729 C 753.955 1014.216, 767.274 1011.668, 783.500 1006.021 C 789.485 1003.938, 789.595 1003.937, 828.500 1005.443 C 849.950 1006.273, 871.835 1007.233, 877.133 1007.576 C 887.158 1008.224, 892 1006.871, 892 1003.420 C 892 1000.008, 883.102 998.992, 835 996.916 C 820.425 996.287, 808.323 995.609, 808.107 995.410 C 807.308 994.673, 810.458 991.846, 817.878 986.640 C 838.373 972.262, 857.984 945.248, 866.492 919.671 C 872.551 901.457, 873.504 894.874, 873.466 871.500 C 873.421 843.226, 870.187 828.950, 858.025 803.327 C 844.735 775.328, 822.031 752.818, 792.092 737.958 C 772.327 728.147, 740.277 723.472, 716.250 726.894 C 711.973 727.503, 711 727.371, 711 726.182 C 711 725.379, 709.670 720.397, 708.044 715.111 C 706.418 709.825, 701.719 691.886, 697.601 675.247 C 689.369 641.982, 689.797 643.253, 686.403 641.963 C 682.660 640.540, 683.529 638.420, 689.471 634.476 C 699.610 627.745, 709.490 614.721, 713.595 602.676 C 714.640 599.610, 715.593 598.290, 716.509 598.642 C 718.673 599.472, 738.035 587.240, 744.712 580.823 C 751.593 574.211, 753.501 569.574, 753.487 559.500 C 753.451 533.429, 731.799 517.062, 697.281 517.013 C 681.652 516.991, 649.618 508.884, 633.993 500.997 C 629.422 498.689, 605.344 483.463, 603.237 481.547 C 603.093 481.416, 607.818 480.052, 613.737 478.516 C 649.083 469.344, 680.147 455.021, 703.500 437.128 C 723.694 421.654, 734.143 409.634, 741.636 393.253 C 747.072 381.371, 745.505 382.012, 762.872 384.558 C 775.863 386.462, 787.612 389.292, 793.692 391.982 C 799.048 394.351, 801.783 394.479, 804.419 392.484 C 806.312 391.052, 806.312 391.002, 804.419 388.907 C 800.040 384.057, 784.713 378.225, 765 373.906 C 759.225 372.640, 754.391 371.547, 754.257 371.476 C 754.123 371.405, 754.879 369.556, 755.936 367.368 C 756.994 365.179, 759.418 357.350, 761.323 349.971 C 765.476 333.879, 762.338 335.526, 792.476 333.626 C 813.845 332.279, 816.840 331.633, 815.684 328.620 C 814.558 325.686, 807.078 324.728, 785.897 324.806 L 765.295 324.882 764.712 314.691 C 764.027 302.692, 758.202 272.376, 754.074 259.323 L 751.172 250.147 755.177 245.823 C 769.233 230.652, 781.712 195.401, 786.444 157.500 C 793.935 97.483, 791.245 55.584, 778.025 26.401 C 770.988 10.866, 760.415 10.420, 720.668 23.981 C 675.465 39.404, 639.034 59.762, 614.186 83.486 C 606.586 90.742, 603.119 93.411, 601.599 93.178 C 600.444 93, 592.300 91.108, 583.500 88.973 C 561.167 83.553, 549.425 81.945, 527.441 81.296 C 499.329 80.465, 471.148 83.789, 452.693 90.112 L 443.886 93.129 431.641 81.294 C 404.768 55.318, 382.190 40.037, 349.500 25.700 C 314.743 10.457, 293.700 5.340, 284.900 9.991 M 287.631 23.076 C 284.501 25.013, 278.096 40.246, 274.396 54.555 C 260.659 107.675, 264.086 172.515, 282.927 215.955 C 289.675 231.513, 288.557 231.775, 298.271 212.357 C 319.109 170.700, 333.852 151.172, 358 133.243 C 364.325 128.547, 369.897 124.351, 370.383 123.919 C 372.043 122.443, 361.261 105.551, 350.667 93.030 C 342.267 83.104, 325.960 67.363, 316.282 59.840 C 300.935 47.910, 298.648 44.062, 308.938 47.479 C 328.005 53.813, 358.501 81.290, 375.634 107.575 C 380.548 115.114, 386 127.631, 386 131.374 C 386 132.946, 383.316 134.313, 381.921 133.451 C 380.577 132.621, 373.210 136.153, 364.104 141.994 C 351.571 150.034, 334.261 169.647, 321.736 190 C 304.642 217.776, 283.784 274.524, 279.687 304.401 C 278.386 313.882, 278.400 314.060, 280.431 314.436 C 293.157 316.794, 300.667 318.672, 310.474 321.950 C 323.821 326.410, 325.408 327.369, 323.950 330.093 C 322.373 333.041, 318.803 333.328, 311.558 331.091 C 305.400 329.188, 283.449 325, 279.639 325 C 276.595 325, 277.696 340.015, 281.879 355.549 L 282.957 359.555 302.730 359.165 C 321.382 358.798, 322.643 358.891, 324.992 360.793 C 327.449 362.782, 327.457 362.838, 325.586 364.905 C 324.257 366.374, 322.481 367, 319.647 367 C 311.001 367, 288 369.362, 288 370.250 C 288 372.234, 296.381 387.762, 300.280 393 C 328.480 430.894, 377.974 457.562, 445 470.978 C 514.459 484.881, 582.222 479.546, 647.500 455.037 C 685.324 440.835, 720.660 412.163, 735.819 383.373 C 737.111 380.919, 735.865 380.580, 721.500 379.480 C 708.299 378.468, 701.024 374.667, 705.696 371.222 C 707.073 370.206, 711.569 369.963, 724.711 370.196 L 741.922 370.500 745.388 363 C 748.774 355.673, 751.457 343.355, 750.315 340.379 C 749.438 338.094, 730.200 340.929, 721.274 344.659 C 717.915 346.062, 714 345.706, 714 343.998 C 714 342.236, 716.162 337.516, 717.313 336.768 C 719.136 335.583, 730.406 332.414, 741.500 329.968 C 747 328.756, 751.967 327.391, 752.537 326.936 C 753.971 325.792, 752.739 311.708, 749.505 292.276 C 746.868 276.432, 743.710 265.895, 732.689 236.165 C 716.765 193.206, 689.448 155.946, 664.140 142.661 C 655.975 138.375, 654.998 137.575, 655.590 135.661 C 663.736 109.335, 720.175 60.900, 746.750 57.428 C 755.849 56.240, 753.071 60.095, 739.232 67.861 C 724.002 76.407, 712.871 85.114, 696.880 100.991 C 683.678 114.099, 670 130.031, 670 132.300 C 670 132.642, 673.352 135.400, 677.448 138.430 C 693.865 150.570, 705.373 163.344, 718.354 183.833 C 729.012 200.657, 741.780 224.941, 746.011 236.435 L 747.091 239.369 750.699 233.435 C 762.622 213.827, 772.133 181.105, 776.696 144 C 778.876 126.275, 779.211 80.804, 777.250 69 C 773.381 45.720, 768.242 31.014, 763 28.222 C 754.212 23.542, 718.778 34.610, 680.500 53.992 C 654.129 67.345, 633.835 80.804, 618.647 95.011 L 611.887 101.335 614.664 103.549 C 617.061 105.461, 617.257 105.985, 616.098 107.382 C 613.938 109.984, 608.611 109.308, 594.081 104.587 C 554.684 91.787, 511.932 89.516, 470.369 98.014 C 453.681 101.427, 447.612 103.824, 448.671 106.586 C 449.470 108.668, 447.253 110.879, 444.967 110.281 C 443.889 109.999, 436.143 102.931, 427.753 94.575 C 395.469 62.418, 354.906 37.704, 313.500 24.965 C 305.281 22.436, 290.419 21.351, 287.631 23.076 M 418.734 204.104 C 404.615 207.372, 389.912 222.378, 392.964 230.405 C 393.908 232.887, 394.156 232.982, 396.499 231.755 C 397.885 231.029, 399.846 228.874, 400.858 226.967 C 403.087 222.765, 411.202 216.350, 416 214.998 C 417.925 214.455, 424.113 214.009, 429.750 214.006 C 439.044 214.001, 440 213.828, 440 212.155 C 440 206.876, 427.388 202.100, 418.734 204.104 M 624.500 209.386 C 616.541 212.854, 617.637 216.640, 626.830 217.434 C 640.675 218.631, 649.101 222.380, 653.879 229.470 C 656.582 233.481, 658.435 233.924, 660.031 230.941 C 662.861 225.653, 655.631 215.633, 645.540 210.859 C 638.781 207.662, 629.885 207.039, 624.500 209.386 M 417.852 281.959 C 395.855 293.923, 400.092 339.096, 423.200 338.978 C 443.668 338.873, 456.324 307.959, 443.585 289.185 C 438.063 281.048, 425.839 277.615, 417.852 281.959 M 618.429 286.319 C 608.698 290.969, 604 299.886, 604 313.706 C 604 331.052, 612.049 342.036, 624.718 341.978 C 644.970 341.885, 656.366 314.436, 644.740 293.752 C 639.976 285.275, 627.806 281.837, 618.429 286.319 M 511.500 333.532 C 501.369 337.270, 500.769 343.199, 509.161 356.654 C 514.970 365.967, 517.254 368.022, 522.836 368.956 C 526.976 369.648, 526.942 369.472, 525.082 380.426 C 523.688 388.631, 521.786 392.185, 517.021 395.482 C 509.431 400.735, 496.650 400.913, 486.317 395.912 C 479.832 392.772, 470.266 379.239, 471.713 375.251 C 472.480 373.135, 468.852 372.481, 467.396 374.473 C 463.052 380.414, 464.853 389.191, 472.079 397.299 C 479.585 405.720, 487.557 409.275, 500.145 409.812 C 511.817 410.311, 515.170 409.341, 522.542 403.336 L 528.072 398.832 532.163 402.529 C 543.950 413.178, 563.176 413.926, 576.991 404.274 C 586.356 397.732, 591.416 386.336, 587.566 380.460 C 585.098 376.694, 583.098 377.774, 581.005 384 C 576.230 398.207, 557.481 404.838, 542.933 397.466 C 536.504 394.208, 535 390.903, 535 380.031 L 535 371.997 541.452 368.949 C 548.973 365.395, 555.085 359.138, 559.438 350.535 L 562.373 344.734 560.437 341.164 C 556.687 334.252, 551.200 332.535, 532.032 332.278 C 519.486 332.110, 514.536 332.412, 511.500 333.532 M 522 341.602 C 515.476 342.797, 515 343.050, 515 345.323 C 515 346.580, 516.324 349.697, 517.943 352.249 C 525.321 363.882, 540.146 363.132, 546.589 350.800 C 549.014 346.158, 548.427 344.213, 544.250 343.046 C 539.953 341.844, 525.719 340.921, 522 341.602 M 369.387 479.284 C 328.419 531.691, 310.387 563.578, 301.234 599.798 C 298.782 609.501, 298.528 612.227, 298.515 629 C 298.498 650.003, 299.706 655.936, 307.269 672 C 316.035 690.620, 340.778 707.403, 365.238 711.320 C 379.215 713.558, 382.987 716.870, 391.520 734.393 C 399.733 751.259, 401.468 758.511, 401.480 776 C 401.488 789.291, 401.200 791.626, 398.027 804 C 390.568 833.093, 393.921 845.730, 413 860.430 C 421.819 867.225, 432.088 872.854, 442.370 876.529 L 451.943 879.950 455.434 876.725 C 460.299 872.231, 462.268 866.947, 462.518 857.719 C 462.758 848.839, 463.408 847.558, 466.031 850.793 C 470.024 855.718, 469.878 867.720, 465.723 876.116 L 463.203 881.208 470.400 880.845 C 477.136 880.505, 477.806 880.257, 480.830 876.991 C 488.084 869.156, 491.589 859.106, 489.723 851.492 C 487.126 840.893, 488.981 836.992, 493.426 843.709 C 498.699 851.677, 498.700 862.457, 493.428 871.902 C 490.350 877.416, 490.816 877.888, 496.205 874.711 C 507.096 868.289, 510.458 861.463, 510.482 845.718 C 510.494 838.161, 510.102 833.679, 509.390 833.218 C 508.779 832.823, 507.566 831.107, 506.694 829.405 C 504.464 825.051, 490.040 811.742, 483.487 807.993 C 476.901 804.224, 476.440 801.852, 480.921 794.785 C 488.572 782.721, 495.595 752.073, 494.620 735 C 493.144 709.139, 482.871 685.450, 464.953 666.587 C 458.911 660.227, 457.952 658.763, 458.998 657.503 C 460.706 655.444, 462.656 655.623, 468.500 658.371 C 479.855 663.711, 499.232 690.063, 505.004 708.013 C 507.588 716.048, 507.397 715.972, 514.889 711.978 C 540.609 698.270, 563.756 669.634, 574.889 637.748 L 577.945 628.996 574.542 630.418 C 567.138 633.512, 555.504 634.987, 536.500 635.244 C 518.505 635.486, 517.280 635.382, 513.334 633.273 C 509.018 630.965, 505 626.328, 505 623.655 C 505 621.340, 504.506 621.226, 489.356 620.028 C 448.408 616.791, 417.665 601.937, 398.057 575.915 C 387.537 561.955, 384.582 553.915, 389.702 553.187 C 391.399 552.945, 393.004 554.321, 396.702 559.187 C 421.053 591.227, 455.750 611, 487.624 611 L 493.987 611 490.493 606.423 C 486.052 600.605, 486.011 599, 490.304 599 C 496.587 599, 510.105 610.405, 514.854 619.713 C 517.016 623.951, 520.652 626, 526.013 626 C 530.129 626, 533.700 621.764, 535.045 615.285 C 536.418 608.669, 535.990 606.092, 532.016 597.036 C 527.727 587.264, 528.208 586, 534.710 589.965 C 542.129 594.488, 545.209 612.126, 540.523 623.250 C 538.953 626.977, 553.533 623.674, 558.232 619.239 C 565.968 611.937, 566.573 593.336, 559.355 584.673 C 553.089 577.153, 560.737 575.947, 567.277 583.424 C 574.136 591.266, 575.288 604.767, 570.008 615.445 C 568.935 617.615, 568.234 619.567, 568.449 619.782 C 569.287 620.620, 578.427 615.309, 580.173 612.970 C 583.438 608.597, 586.958 596.938, 586.957 590.500 C 586.955 579.814, 577.545 564.938, 567.518 559.774 C 559.504 555.646, 532.782 553.582, 520.886 556.173 C 514.133 557.644, 505.783 557.820, 505.356 556.500 C 504.716 554.524, 506.861 552.706, 510.646 552.018 L 514.500 551.316 509.702 549.173 C 494.111 542.209, 452.651 505.680, 454.593 500.618 C 456.481 495.699, 464.012 499.878, 477.448 513.301 C 484.226 520.073, 489.426 524.144, 497.156 528.730 C 515.791 539.787, 523.753 542.237, 548.500 544.532 C 567.393 546.284, 572.851 547.410, 577.398 550.495 L 580.773 552.786 581.376 549.143 C 582.426 542.790, 582.033 527.935, 580.461 514.580 C 578.800 500.475, 579.417 497.389, 583.014 501.791 C 588.741 508.797, 591.961 524.152, 591.983 544.559 C 592.002 562.433, 591.839 561.935, 599.325 566.961 C 617.575 579.211, 643.746 584.601, 661.439 579.754 C 666.235 578.440, 666.385 578.285, 666.589 574.450 C 666.992 566.880, 673.753 556, 678.054 556 C 679.432 556, 678.099 560.940, 675.854 564.154 C 674.834 565.614, 674 566.981, 674 567.192 C 674 567.403, 677.351 567.150, 681.446 566.631 C 693.720 565.075, 698.513 567.811, 707.965 581.765 C 713.123 589.380, 714.988 590.157, 719.999 586.779 C 729.375 580.461, 727.410 558.479, 717 553.231 C 712.345 550.884, 711.278 548.489, 714.095 546.712 C 720.101 542.923, 731.514 555.868, 734.488 569.842 L 735.199 573.183 738.116 570.389 C 745.687 563.136, 743.107 546.777, 732.952 537.647 C 724.452 530.004, 717.664 528.240, 690.469 526.602 C 663.891 525.002, 658.846 523.737, 636.863 513.172 C 621.324 505.703, 610.391 498.428, 601.761 489.817 L 595.023 483.092 587.261 484.598 C 558.113 490.254, 498.590 490.449, 460 485.015 C 439.051 482.065, 406.989 474.057, 381.504 465.408 C 380.952 465.220, 375.499 471.464, 369.387 479.284 M 156.500 472.442 C 146.232 476.230, 140.466 489.132, 144.138 500.101 C 146.039 505.779, 149.715 509.746, 158.001 515.061 C 178.126 527.971, 186.051 542.803, 190.480 575.846 C 194.786 607.970, 198.997 624.974, 206.243 639.500 C 216.966 660.997, 234.838 675.503, 258.744 682.114 C 268.022 684.680, 292.330 685.964, 295.861 684.074 C 298.783 682.510, 298.688 681.874, 293 665 C 290.250 656.842, 288 649.454, 288 648.583 C 288 647.423, 286.997 646.995, 284.250 646.983 C 282.188 646.973, 277.473 646.324, 273.773 645.540 C 245.572 639.563, 237.261 623.025, 227.524 553.500 C 221.225 508.519, 207.616 485.764, 180 474.032 C 173.077 471.091, 162.163 470.353, 156.500 472.442 M 595.617 579.250 C 596.458 581.587, 597.482 588, 597.893 593.500 C 598.789 605.474, 599.050 606.015, 607.853 614.129 C 629.652 634.221, 656.156 638.471, 681.685 625.968 C 692.056 620.888, 701.560 608.087, 702.741 597.603 C 703.176 593.747, 702.765 592.544, 699.243 587.358 C 692.111 576.856, 689.534 574.650, 685.230 575.361 C 683.178 575.701, 680.482 575.983, 679.237 575.989 L 676.975 576 679.334 579.750 C 687.108 592.108, 684.615 603.720, 672.893 609.752 C 666.895 612.838, 648.773 616.304, 643.023 615.464 C 633.099 614.013, 627.689 609.144, 620.389 595.087 C 615.714 586.085, 615.260 585.564, 610 583.156 C 606.975 581.771, 602.343 579.370, 599.706 577.819 C 593.655 574.261, 593.804 574.209, 595.617 579.250 M 664 589.214 C 657.469 591.636, 641.684 592.690, 635.027 591.148 C 629.296 589.821, 629.269 589.879, 632.651 596.141 C 637.553 605.219, 647.238 607.854, 660.622 603.753 C 672.660 600.065, 676.145 596.469, 673.354 590.616 C 671.381 586.479, 671.374 586.478, 664 589.214 M 590.608 619.022 C 589.724 621.232, 589 623.755, 589 624.629 C 589 625.503, 587.591 631.135, 585.870 637.145 C 584.148 643.155, 582.911 648.208, 583.120 648.373 C 583.329 648.539, 588 652.072, 593.500 656.226 C 608.597 667.628, 615.403 676.173, 617.995 686.981 L 619.170 691.877 623.835 689.021 C 629.890 685.315, 639.867 682, 644.968 682 C 647.186 682, 648.997 681.888, 648.993 681.750 C 648.989 681.612, 647.910 675.892, 646.594 669.037 C 644.457 657.911, 644.366 656.453, 645.738 655.449 C 646.988 654.536, 647.109 653.406, 646.382 649.413 L 645.488 644.500 637.423 642.930 C 623.070 640.136, 613.345 634.736, 599.674 621.969 L 592.216 615.004 590.608 619.022 M 659.500 641.892 L 655.500 642.500 655.830 647 C 656.303 653.440, 656.914 653.658, 665.702 650.511 C 675.084 647.151, 675.287 646.991, 674.447 643.645 C 673.734 640.803, 669.743 640.335, 659.500 641.892 M 667.957 658.872 C 652.909 663.766, 653.853 662.856, 656.154 670.245 C 657.225 673.685, 660.106 684.375, 662.556 694 C 665.006 703.625, 667.464 713.146, 668.018 715.158 L 669.025 718.817 675.134 717.392 C 681.182 715.981, 693.791 711.389, 695.264 710.061 C 695.925 709.465, 692.076 693.610, 683.900 663.250 C 682.678 658.712, 681.188 655.026, 680.589 655.059 C 679.990 655.091, 674.306 656.807, 667.957 658.872 M 575.702 662.380 C 567.023 683.488, 540.873 710.523, 517.250 722.810 C 512.712 725.170, 509 727.347, 509 727.648 C 509 727.949, 510.793 731.864, 512.984 736.348 C 516.862 744.283, 518.976 753.056, 518.992 761.279 L 519 765.059 523.914 761.779 C 529.526 758.035, 554.319 740.138, 573.500 725.987 C 580.650 720.711, 589.201 714.566, 592.501 712.329 C 602.732 705.398, 607 699.999, 607 693.989 C 607 684.686, 599.797 674.418, 585.689 663.612 C 581.659 660.525, 578.168 658.002, 577.931 658.004 C 577.694 658.006, 576.691 659.975, 575.702 662.380 M 304.670 692.906 C 302.077 694.367, 301.887 694.858, 302.405 698.780 C 303.829 709.569, 311.296 719.096, 321.246 722.819 C 339.584 729.680, 373.753 732.238, 374.795 726.828 C 375.401 723.681, 372.324 722.263, 363.301 721.530 C 347.630 720.255, 330.697 712.307, 317.592 700.074 C 307.763 690.899, 308.001 691.030, 304.670 692.906 M 643.251 692.545 C 635.242 694.702, 631.988 696.686, 611.925 711.648 C 601.708 719.267, 584.231 732.025, 573.087 740 C 538.563 764.706, 500.969 792.498, 495.202 797.578 L 491.707 800.657 499.104 806.908 C 509.807 815.954, 508.324 815.926, 519.066 807.291 C 524.255 803.120, 539.075 791.827, 552 782.195 C 564.925 772.564, 582.700 759.134, 591.500 752.351 C 606.060 741.128, 619.863 730.856, 646.246 711.611 L 655.689 704.723 653.688 697.861 C 651.469 690.257, 651.566 690.306, 643.251 692.545 M 635.629 732.279 L 614.757 748.500 612.523 755 C 607.513 769.574, 600.994 780.165, 590.323 791.063 L 582.918 798.626 585.037 801.320 C 588.962 806.310, 591 814.187, 591 824.370 C 591 850.556, 577.826 864.823, 548.934 869.924 C 535.855 872.234, 536.223 871.988, 535.046 879.220 C 530.996 904.098, 502.926 920.328, 472.049 915.643 C 465.841 914.702, 448.333 913.622, 429.500 913.021 C 411.900 912.459, 394.901 911.886, 391.723 911.749 L 385.947 911.500 380.921 924 C 373.245 943.090, 368.623 950.310, 355.216 964.148 L 346.837 972.797 350.669 973.381 C 355.241 974.079, 405.045 976.497, 445.500 977.987 C 461.450 978.574, 484.625 979.502, 497 980.049 C 536.598 981.799, 642.341 985.992, 646.988 985.996 L 651.476 986 641.672 976.339 C 624.737 959.649, 616.103 946.340, 606.707 922.441 C 599.942 905.233, 595.914 872.763, 598.102 853.072 C 600.945 827.488, 613.801 796.841, 629.578 778.036 C 636.738 769.502, 655.473 751, 656.955 751 C 657.355 751, 657.331 748.862, 656.901 746.250 C 655.290 736.460, 655.812 724.480, 657.935 722.559 C 659.755 720.912, 659.110 715.930, 657.089 716.029 C 656.765 716.045, 647.108 723.357, 635.629 732.279 M 696.500 720.579 C 695.950 720.747, 688.803 722.978, 680.617 725.537 L 665.735 730.189 666.327 735.851 C 667.909 750.990, 686.887 818.529, 699.889 855.296 C 708.871 880.694, 714.215 889.543, 720.500 889.425 C 725.502 889.330, 731.647 886.468, 733.756 883.250 C 736.002 879.822, 734.414 874.451, 727.205 861.098 C 712.396 833.664, 701.589 802.800, 694.557 767.852 C 688.578 738.139, 688.842 731.127, 696.233 723.254 C 698.323 721.027, 698.426 719.991, 696.500 720.579 M 715 737.051 C 711.975 737.567, 707.310 738.499, 704.633 739.122 L 699.767 740.255 700.434 746.878 C 700.801 750.520, 701.875 757.100, 702.821 761.500 C 704.770 770.562, 703.625 769.998, 716.322 768.143 C 753.940 762.647, 786.178 775.205, 809.655 804.500 C 837.385 839.100, 840.717 894.192, 817.274 930.451 C 795.836 963.610, 751.869 981.587, 712.208 973.411 C 687.687 968.356, 659.174 945.577, 647.188 921.468 C 626.405 879.660, 632.414 833.021, 663.204 797.167 L 668.642 790.834 665.071 776.920 C 663.107 769.267, 661.071 763.004, 660.548 763.003 C 658.459 762.997, 638.112 785.023, 632.838 793 C 616.213 818.141, 609.494 841.039, 609.509 872.500 C 609.533 924.169, 634.176 965.324, 680 990.223 C 706.903 1004.840, 742.648 1007.390, 774.223 996.943 C 812.189 984.380, 845.536 949.752, 856.435 911.573 C 877.898 836.380, 836.300 758.720, 764.191 739.361 C 753.407 736.466, 725.981 735.178, 715 737.051 M 376.946 743.750 C 366.827 755.387, 324.401 798.747, 303.278 819.040 C 289.802 831.987, 278.137 843.800, 277.356 845.290 C 276.290 847.324, 275.184 848, 272.918 848 C 268.884 848, 265.311 849.998, 260.547 854.918 C 256.170 859.438, 256.213 859.738, 260.901 857.400 C 264.125 855.791, 277.616 855.802, 282.500 857.416 C 285.369 858.365, 325.035 822.429, 373.396 775.067 L 389.292 759.500 388.175 754.138 C 387.052 748.745, 382.652 740, 381.061 740 C 380.592 740, 378.740 741.688, 376.946 743.750 M 505.590 754.778 C 505.209 760.125, 504.291 767.650, 503.549 771.500 C 502.808 775.350, 502.269 778.575, 502.352 778.668 C 502.434 778.760, 504.527 777.108, 507.001 774.997 C 512.229 770.536, 512.608 767.325, 509.535 753.512 C 507.240 743.196, 506.395 743.467, 505.590 754.778 M 258.500 754.429 C 229.912 759.345, 207.016 775.716, 187.212 805.400 C 156.998 850.687, 163.125 917.108, 200.920 954 C 250.276 1002.176, 323.756 995.002, 360.647 938.405 C 365.760 930.561, 374 914.421, 374 912.249 C 374 911.300, 362.451 909.976, 354.599 910.026 C 350.806 910.050, 350.364 910.348, 348.671 914.018 C 328.941 956.814, 274.821 975.893, 236.031 953.728 C 220.371 944.779, 202.964 921.992, 196.119 901.479 C 183.633 864.060, 196.746 817.464, 225.820 795.942 C 233.453 790.291, 247.691 783.067, 256.500 780.375 C 271.072 775.921, 298.072 778.442, 312.138 785.570 C 317.920 788.500, 317.216 788.788, 326.750 779.588 C 334.399 772.208, 334.498 770.927, 327.750 766.638 C 310.868 755.909, 280.763 750.601, 258.500 754.429 M 592.883 765.312 C 589.922 767.720, 578.725 776.135, 568 784.012 C 557.275 791.888, 544.674 801.569, 539.999 805.523 C 535.323 809.478, 528.921 814.518, 525.773 816.724 L 520.048 820.734 522.134 822.617 C 531.657 831.216, 538 843.350, 538 852.965 L 538 858.909 541.435 859.554 C 546.168 860.442, 551.413 858.486, 555.919 854.153 C 561.323 848.957, 562.357 838.843, 558.525 828.662 C 555.862 821.587, 555.288 817, 557.066 817 C 563.665 817, 569.358 834.162, 567.183 847.500 C 565.988 854.830, 566.077 854.941, 570.474 851.588 C 574.962 848.165, 576.536 845.063, 578.999 834.788 C 583.079 817.768, 580.927 809.624, 570.333 802 C 566.850 799.493, 568.923 794.517, 574.553 791.870 C 580.377 789.132, 589.334 779.286, 594.854 769.552 C 597.249 765.329, 598.996 761.663, 598.737 761.404 C 598.478 761.145, 595.844 762.903, 592.883 765.312 M 379.760 782.435 L 369.021 793.785 371.358 798.143 C 372.643 800.539, 375.451 806.656, 377.598 811.735 C 379.744 816.814, 381.725 820.975, 382 820.982 C 382.746 821, 391.029 783.122, 391.699 776.623 C 392.019 773.530, 391.879 771.019, 391.390 771.042 C 390.900 771.065, 385.667 776.192, 379.760 782.435 M 720.500 776.687 C 718.850 776.899, 715.087 777.549, 712.137 778.131 L 706.775 779.189 707.427 783.344 C 708.436 789.773, 720.678 825.789, 724.315 833.032 C 727.473 839.320, 727.667 839.497, 731.315 839.383 C 733.379 839.319, 735.238 839.094, 735.445 838.883 C 736.415 837.901, 733.835 807.722, 731.551 793.323 C 730.148 784.477, 729 776.960, 729 776.620 C 729 775.982, 725.767 776.007, 720.500 776.687 M 739.023 779.813 C 739.036 781.841, 739.941 789.350, 741.035 796.500 C 742.128 803.650, 743.312 816.587, 743.666 825.250 C 744.262 839.866, 744.446 841, 746.220 841 C 749.038 841, 752.007 842.759, 756.530 847.109 L 760.559 850.984 764.030 848.653 C 768.349 845.751, 804.928 826, 805.983 826 C 810.640 826, 806.874 817.400, 797.935 807.619 C 782.731 790.984, 762.714 779.769, 742.750 776.702 L 739 776.126 739.023 779.813 M 260.176 790.070 C 242.022 793.643, 219.325 813.916, 209.512 835.325 C 203.788 847.813, 203.834 848.229, 211.214 850.762 C 219.483 853.600, 235.328 857.723, 241.066 858.530 L 245.632 859.172 246.784 855.325 C 248.376 850.012, 255.399 843.426, 262.582 840.512 L 268.500 838.110 269.117 826.305 C 269.456 819.812, 270.087 808.763, 270.519 801.750 L 271.305 789 267.902 789.110 C 266.031 789.170, 262.554 789.602, 260.176 790.070 M 280.619 790.157 C 280.404 790.896, 279.685 797.575, 279.021 805 C 278.356 812.425, 277.569 820.920, 277.272 823.878 C 276.974 826.840, 277.128 829.086, 277.616 828.878 C 278.102 828.670, 285.250 821.601, 293.500 813.169 L 308.500 797.838 306.151 795.929 C 301.292 791.979, 281.396 787.481, 280.619 790.157 M 353.275 809.250 C 344.388 817.075, 344.530 816.676, 348.048 823.937 L 350.985 830 363.060 830 C 377.209 830, 376.617 831.316, 369.354 816 C 365.096 807.019, 362.523 803, 361.031 803 C 360.669 803, 357.179 805.813, 353.275 809.250 M 667.341 806.250 C 654.767 819.644, 645.110 846.496, 645.020 868.317 C 645.003 872.454, 645.247 873.057, 646.750 872.582 C 651.151 871.193, 667.784 870.305, 680.859 870.762 L 695.218 871.263 694.491 868.882 C 694.090 867.572, 692.193 862.450, 690.275 857.500 C 688.357 852.550, 683.443 838.263, 679.354 825.750 C 675.266 813.237, 671.577 803, 671.157 803 C 670.736 803, 669.019 804.462, 667.341 806.250 M 334.951 826.553 C 332.203 829.477, 333.305 830.957, 338.250 830.985 C 341.224 831.001, 341.788 829.340, 339.965 825.934 C 338.606 823.395, 337.826 823.492, 334.951 826.553 M 810 831.914 C 808.625 832.918, 798.514 838.996, 787.532 845.421 C 776.550 851.846, 767.410 857.257, 767.221 857.445 C 767.032 857.634, 767.431 860.468, 768.108 863.742 C 769.143 868.753, 769.082 870.944, 767.725 877.597 C 766.490 883.650, 766.392 885.685, 767.306 886.290 C 767.963 886.725, 777.275 892.278, 788 898.631 C 798.725 904.984, 808.946 911.067, 810.712 912.149 L 813.925 914.116 815.488 910.375 C 824.160 889.620, 823.632 854.741, 814.335 834.153 L 812.500 830.090 810 831.914 M 519.500 846.247 C 519.500 858.148, 519.393 858.764, 516.191 865.267 C 509.135 879.594, 490.812 889.235, 467.807 890.725 C 462.963 891.039, 459 891.528, 459 891.810 C 459 894.146, 465.943 902.496, 468.919 903.740 C 482.653 909.478, 504.792 904.344, 515.450 892.950 C 528.881 878.591, 532.343 849.658, 522.126 837.159 L 519.500 833.947 519.500 846.247 M 319.878 842.329 C 318.436 843.523, 314.386 846.592, 310.878 849.150 C 301.631 855.891, 291.742 865.142, 292.728 866.128 C 294.214 867.614, 391.765 861.061, 393.921 859.330 C 394.152 859.144, 393.395 857.981, 392.238 856.746 C 390.054 854.414, 386.818 847.543, 385.630 842.714 L 384.944 839.928 367.722 840.714 C 347.812 841.623, 329.814 841.646, 325.500 840.769 C 323.271 840.315, 321.826 840.716, 319.878 842.329 M 738.314 860.750 C 744.667 872.962, 746.169 880.651, 743.585 887.750 C 741.781 892.708, 749.960 887.679, 754.363 881.123 C 763.236 867.912, 752.502 849, 736.133 849 L 732.201 849 738.314 860.750 M 202.414 861.605 C 201.121 868.501, 202.637 889.026, 204.993 896.500 C 208.224 906.748, 214.254 917.743, 221.118 925.898 L 227.159 933.074 232.229 926.287 C 235.018 922.554, 240.396 915.675, 244.180 911 C 247.965 906.325, 252.398 900.843, 254.031 898.817 C 257.799 894.144, 257.947 894.790, 251.517 887.845 C 245.564 881.415, 242.277 873.363, 243.372 867.890 C 243.690 866.300, 243.759 865, 243.526 865 C 240.133 865, 217.553 861.432, 211.613 859.958 C 207.275 858.881, 203.582 858, 203.408 858 C 203.233 858, 202.786 859.622, 202.414 861.605 M 261.500 865.164 C 253.323 869.676, 251.717 875.917, 257.297 881.497 C 263.303 887.503, 270.160 888.323, 277.791 883.947 C 284.462 880.121, 285.960 877.236, 283.717 872.532 C 281.479 867.840, 278 865.945, 278 869.418 C 278 875.523, 273.169 880.231, 269.125 878.067 C 265.975 876.381, 266.506 872.871, 270.497 869.003 C 273.016 866.562, 273.645 865.393, 272.747 864.822 C 270.927 863.667, 263.823 863.883, 261.500 865.164 M 392.567 868.250 C 392.363 868.938, 391.664 876.025, 391.013 884 C 390.362 891.975, 389.612 899.444, 389.345 900.597 C 388.871 902.648, 389.252 902.709, 406.680 903.354 C 416.481 903.717, 430.977 904.304, 438.893 904.658 L 453.286 905.303 449.393 900.277 C 447.252 897.512, 444.783 893.957, 443.907 892.375 C 442.669 890.143, 440.325 888.733, 433.421 886.069 C 428.366 884.119, 420.580 879.943, 415.380 876.392 C 404.482 868.952, 393.518 865.039, 392.567 868.250 M 370.223 871.610 C 364.021 872.221, 358.720 872.946, 358.445 873.222 C 358.169 873.497, 357.528 877.370, 357.020 881.828 C 356.210 888.923, 355.245 893.799, 353.373 900.250 C 352.909 901.850, 353.929 902, 365.274 902 L 377.683 902 378.774 898.250 C 380.955 890.748, 382.128 882.368, 381.817 876.500 L 381.500 870.500 370.223 871.610 M 719.750 876.839 C 715.665 883.180, 715.148 885.459, 717.582 886.393 C 726.933 889.981, 736.005 878.022, 727.750 872.989 C 723.522 870.411, 724.056 870.155, 719.750 876.839 M 328 875.056 C 323.325 875.466, 315.160 875.846, 309.855 875.901 L 300.210 876 294.084 883.224 C 287.419 891.083, 287.436 890.959, 292.219 897.462 C 295.440 901.841, 298.194 903.113, 299.584 900.863 C 300.086 900.052, 306.444 899.837, 321.822 900.113 L 343.357 900.500 345.314 895 C 346.390 891.975, 347.492 886.013, 347.764 881.750 L 348.257 874 342.378 874.155 C 339.145 874.240, 332.675 874.645, 328 875.056 M 648.373 878.850 L 646.247 879.500 648.570 890.971 C 651.353 904.713, 654.213 912.935, 658.317 919 C 663.615 926.828, 672.852 937.562, 678.088 941.978 C 682.881 946.018, 683.214 946.143, 684.498 944.370 C 685.243 943.342, 691.553 934.400, 698.520 924.500 C 705.487 914.600, 712.383 905.216, 713.844 903.647 L 716.500 900.795 714.009 899.147 C 708.721 895.650, 704.292 890.921, 700.964 885.219 L 697.500 879.285 685 878.647 C 669.733 877.867, 651.253 877.969, 648.373 878.850 M 756.839 894.616 C 755.400 896.055, 751.810 898.059, 748.861 899.069 L 743.500 900.906 743.728 906.822 C 743.853 910.076, 746.441 922.756, 749.478 935.001 C 752.515 947.246, 755 958.339, 755 959.652 C 755 961.741, 755.342 961.960, 757.750 961.408 C 767.510 959.170, 786.809 948.464, 796.277 940.035 C 802.177 934.782, 810.598 923.194, 809.385 921.997 C 808.898 921.518, 801.886 917.311, 793.803 912.650 C 785.719 907.988, 775.180 901.435, 770.382 898.087 C 760.396 891.120, 760.347 891.108, 756.839 894.616 M 278.500 896.536 C 276.850 897.292, 273.025 897.936, 270 897.967 C 264.928 898.020, 264.336 898.277, 262.388 901.262 C 261.226 903.043, 255.231 910.998, 249.066 918.939 C 239.089 931.789, 235 937.749, 235 939.440 C 235 940.883, 246.336 947.234, 252.891 949.463 C 266.970 954.251, 280.926 953.877, 297.335 948.271 C 306.870 945.014, 306.857 945.501, 297.905 927 C 294.579 920.125, 289.780 910.112, 287.242 904.750 C 284.703 899.388, 282.373 895.037, 282.063 895.081 C 281.753 895.126, 280.150 895.781, 278.500 896.536 M 718 912.260 C 714.425 917.879, 706.606 929.197, 700.625 937.411 C 690.339 951.536, 689.852 952.422, 691.625 953.785 C 695.196 956.528, 707.529 961.954, 714 963.628 C 720.944 965.425, 739.417 966.080, 744.353 964.705 C 747.831 963.736, 747.836 963.780, 741.462 940 C 739.029 930.925, 736.364 919.256, 735.539 914.069 C 733.830 903.324, 733.880 903.407, 728.500 902.624 L 724.500 902.042 718 912.260 M 304.871 920.112 C 308.094 926.925, 311.332 934.188, 312.066 936.250 C 313.712 940.871, 313.718 940.871, 319.698 936.144 C 326.335 930.898, 332.442 923.783, 336.525 916.542 L 339.931 910.500 337.452 909.833 C 336.088 909.466, 326.881 908.841, 316.992 908.445 L 299.012 907.724 304.871 920.112" stroke="none" fill="#1a1a1a" fill-rule="evenodd"/>
</svg>