<svg xmlns="http://www.w3.org/2000/svg" width="1024" height="1024" viewBox="0 0 1024 1024" version="1.1">
	<path d="M 725.500 40.684 C 715.069 42.217, 687.386 52.837, 664.972 63.905 C 636.253 78.086, 610.681 95.156, 594.500 110.947 L 586.500 118.754 573.342 114.969 C 528.791 102.154, 474.941 103.515, 427.756 118.650 L 417.012 122.096 410.256 116.666 C 388.149 98.899, 338.573 77.194, 293 65.330 C 258.654 56.388, 249.364 62.598, 242.631 99 C 233.443 148.673, 241.091 207.274, 263.044 255.416 L 268.934 268.332 265.947 275.792 C 254.932 303.301, 251.391 340.411, 256.387 376 C 257.121 381.225, 257.446 385.813, 257.110 386.196 C 256.775 386.578, 246.198 387.253, 233.606 387.696 C 213.571 388.400, 210.577 388.715, 209.629 390.222 C 207.211 394.065, 209.803 394.500, 235.150 394.500 L 259.180 394.500 263.034 406.233 C 265.154 412.686, 268.681 421.792, 270.872 426.468 C 273.064 431.145, 274.510 435.185, 274.086 435.447 C 273.662 435.709, 268.309 437.285, 262.191 438.948 C 238.877 445.287, 227 450.695, 227 454.972 C 227 458.588, 230.728 458.286, 243.790 453.612 C 256.838 448.942, 276.627 443, 279.128 443 C 279.901 443, 282.057 445.588, 283.920 448.750 C 297.809 472.331, 327.300 494.806, 366.239 511.485 C 371.045 513.543, 374.704 515.670, 374.370 516.210 C 373.674 517.336, 356.121 529, 355.122 529 C 354.760 529, 351.996 525.300, 348.982 520.777 C 335.260 500.193, 330.638 498.909, 314.265 511.134 C 303.912 518.864, 303.295 524.941, 311.681 536.601 C 316.464 543.250, 324 558.345, 324 561.275 C 324 561.742, 319.577 566.484, 314.170 571.812 C 294.814 590.888, 280.974 612.832, 275.893 632.500 C 273.643 641.207, 273.144 655.829, 274.808 664.269 L 275.749 669.038 253.790 668.769 L 231.831 668.500 231.380 661.771 C 228.732 622.288, 197.443 591.180, 157.500 588.320 C 125.615 586.037, 103.500 614.592, 121.864 634.334 C 123.314 635.892, 128.308 639.267, 132.962 641.834 C 149.375 650.885, 169.664 676.016, 173.507 692.055 C 174.193 694.919, 175.548 692.806, 152.539 724.738 C 114.919 776.947, 107.705 786.898, 103.255 792.714 C 88.698 811.739, 86.545 818.309, 87.590 840.500 C 88.287 855.305, 88.971 857.750, 93.661 862.186 C 97.996 866.288, 100.692 866.875, 115.493 866.934 C 123.018 866.965, 129.653 867.285, 130.238 867.647 C 130.980 868.106, 131.133 886.834, 130.744 929.712 L 130.186 991.120 132.659 992.060 C 136.247 993.425, 138.617 991.735, 139.352 987.288 C 139.696 985.205, 139.983 957.088, 139.989 924.806 L 140 866.112 162.045 866.306 L 184.090 866.500 184.023 927.275 C 183.978 968.196, 184.301 988.694, 185.013 990.025 C 186.246 992.328, 191.155 992.723, 192.870 990.657 C 193.656 989.709, 194.060 971.238, 194.242 927.907 L 194.500 866.500 251.250 866.227 L 308 865.954 308 869.310 C 308 871.156, 306.868 886.129, 305.484 902.583 C 300.822 958.017, 300.892 959.676, 308.247 967.707 C 311.429 971.182, 330.876 974.130, 336.536 971.995 C 345.046 968.785, 348.652 962.322, 350.003 947.855 C 350.587 941.610, 351.928 929.300, 352.985 920.500 C 354.042 911.700, 355.627 896.400, 356.509 886.500 C 358.517 863.942, 357.708 865.843, 365.143 866.202 L 371.312 866.500 374.011 875 C 377.501 885.991, 382.501 898.395, 385.572 903.678 C 389.051 909.665, 388.877 910.113, 379.609 919.011 C 362.067 935.851, 361.895 951.497, 379.068 968.134 C 391.310 979.994, 404.466 984.597, 423.500 983.679 C 457.942 982.020, 487.182 959.722, 492.635 930.957 C 494.863 919.202, 494.048 902.712, 490.597 889.737 C 489.087 884.061, 488 877.293, 488 873.567 L 488 867.159 494.250 866.523 C 497.688 866.173, 508.600 866.025, 518.500 866.193 L 536.500 866.500 536.342 871.500 C 536.254 874.250, 534.514 882.125, 532.475 889 C 526.166 910.263, 527.826 925.556, 538.685 946.219 C 552.813 973.106, 596.075 986.937, 628 974.775 C 634.970 972.119, 646.073 964.888, 649.596 960.710 C 659.673 948.759, 657.995 926.145, 645.898 910.871 L 642.764 906.914 645.071 900.707 C 646.341 897.293, 648.983 888.200, 650.944 880.500 L 654.510 866.500 659.755 866.198 C 664.327 865.934, 665 866.136, 665 867.774 C 665 871.084, 670.891 936.568, 672.010 945.696 C 673.611 958.761, 674.458 961.052, 679.521 966.018 L 684.089 970.500 695.840 970.500 C 709.292 970.500, 711.249 969.735, 715.660 962.746 C 720.262 955.457, 720.338 958.493, 713.445 874.750 L 712.725 866 774.862 866 L 837 866 837 926.277 C 837 991.634, 836.948 991, 842.357 991 C 847.085 991, 847 992.167, 847 927.300 L 847 866 868.500 865.850 C 880.325 865.768, 890.502 865.655, 891.115 865.600 C 891.926 865.527, 892.184 882.435, 892.062 927.583 C 891.877 995.519, 891.616 992.524, 897.650 991.822 C 901.989 991.318, 902.184 988.187, 901.612 928.375 C 901.322 898.057, 901.345 871.651, 901.662 869.696 L 902.239 866.140 916.953 865.820 C 931.316 865.508, 931.783 865.428, 936.535 862.487 C 944.886 857.319, 945.500 855.403, 945.500 834.500 C 945.500 812.760, 947.874 818.187, 920.572 777.512 C 909.492 761.005, 894.951 739.175, 888.258 729 C 868.586 699.092, 852.015 674.634, 850.117 672.702 C 846.292 668.813, 833.989 668.008, 778.298 668.004 L 726.097 668 726.149 654.250 C 726.227 633.524, 722.532 617.550, 712.955 597.222 C 700.376 570.522, 672.515 536.119, 649.239 518.545 C 646.357 516.369, 644 514.314, 644 513.978 C 644 513.643, 646.813 512.085, 650.250 510.516 C 681.556 496.234, 691.376 490.665, 706.003 478.900 C 723.326 464.966, 741.057 444.458, 751.994 425.705 C 756.100 418.665, 756.761 418, 759.656 418 C 763.210 418, 791.620 424.945, 800.341 427.945 L 806 429.892 806 426.883 C 806 424.145, 805.408 423.606, 799.421 420.892 C 793.042 417.999, 773.295 411.896, 765.711 410.474 C 760.708 409.535, 760.579 409.096, 763.011 401.270 C 765.820 392.231, 770.292 363.370, 769.521 359.258 C 768.767 355.239, 770.119 354.574, 781 353.614 C 785.125 353.250, 795.813 351.768, 804.750 350.322 C 820.302 347.804, 821 347.592, 821 345.381 C 821 341.451, 818.152 340.831, 807.300 342.400 C 801.910 343.179, 794.800 344.121, 791.500 344.493 C 785.718 345.145, 773.367 347.474, 769.750 348.593 C 768.187 349.077, 767.998 348.298, 767.983 341.317 C 767.926 315.706, 761.159 283.049, 751.030 259.500 C 745.193 245.931, 745.202 247.279, 750.833 231 C 770.891 173.009, 768.434 80.107, 745.979 47.470 C 741.957 41.623, 734.938 39.297, 725.500 40.684 M 717 52.114 C 706.775 54.831, 684.413 63.822, 667.500 72.016 C 639.637 85.515, 619.783 99.215, 601 117.902 C 587.679 131.156, 589.422 130.675, 571.500 126.049 C 514.519 111.344, 470.364 113.256, 421.784 132.535 L 417.068 134.406 412.784 131.185 C 383.069 108.843, 329.840 84.839, 285.055 73.583 C 269.076 69.567, 266.413 69.322, 263.204 71.570 C 253.103 78.645, 246.239 120.490, 248.844 159.119 C 251.386 196.816, 259.674 228.653, 273.415 253.500 C 280.761 266.784, 280.903 268.656, 275.569 282 C 270.768 294.013, 267.686 306.163, 265.479 321.785 C 262.592 342.216, 264.635 382.035, 268.783 386.183 C 269.328 386.728, 274.438 387.975, 280.137 388.954 C 301.581 392.636, 328.500 402.683, 328.500 407.004 C 328.500 409.207, 324.188 408.603, 315.206 405.141 C 306.478 401.777, 282.640 395.419, 274.911 394.394 L 269.778 393.713 270.504 397.106 C 273.122 409.340, 281.203 429.063, 285.006 432.506 C 286.684 434.024, 287.647 434.033, 297.164 432.622 C 310.248 430.682, 327.957 429.521, 331.377 430.380 C 334.006 431.040, 334.894 433.330, 332.979 434.513 C 331.672 435.321, 300.845 438.989, 295.309 438.995 C 289.421 439.002, 289.405 439.851, 295.162 447.095 C 311.254 467.345, 339.519 488.539, 365.210 499.616 C 440.364 532.022, 531.633 536.896, 614.390 512.922 C 663.620 498.660, 695.876 479.593, 723.292 448.545 C 731.880 438.821, 746.497 417.614, 745.607 416.173 C 744.679 414.672, 735.566 413.887, 719.378 413.912 C 703.084 413.937, 701.178 413.376, 704.909 409.649 C 706.978 407.583, 707.897 407.500, 728.630 407.500 L 750.199 407.500 752.079 403.837 C 757.220 393.818, 762.876 359, 759.361 359 C 759.128 359, 747.689 362.825, 733.942 367.500 C 706.006 377, 706.740 376.827, 707.180 373.807 C 707.660 370.516, 719.565 364.899, 739.731 358.449 C 750.906 354.876, 757.278 352.334, 757.859 351.219 C 759.031 348.970, 757.514 321.898, 755.506 309.248 C 752.444 289.952, 745.911 268.800, 738.374 253.775 C 734.182 245.420, 734.176 245.650, 738.949 233.361 C 749.961 205.011, 755.816 165.267, 754.618 127 C 753.357 86.710, 748.536 66.296, 737.479 54.423 C 732.598 49.182, 729.395 48.820, 717 52.114 M 708.722 84.423 C 684.173 94.518, 655.673 120.829, 640.395 147.500 C 630.142 165.400, 629.769 166.369, 632.200 168.800 C 634.516 171.116, 636.802 170.014, 639.564 165.250 C 659.083 131.582, 682.041 107.557, 708.806 92.789 C 722.552 85.204, 722.488 78.763, 708.722 84.423 M 286.374 104.468 C 285.485 106.785, 286.811 107.858, 300 115.486 C 324.777 129.816, 340.877 144.719, 355.935 167.263 C 360.770 174.502, 369.906 183, 372.853 183 C 374.662 183, 373.194 175.303, 370.279 169.500 C 363.012 155.034, 347.549 137.084, 332.749 125.932 C 313.093 111.120, 288.236 99.616, 286.374 104.468 M 677.929 150.367 C 670.997 152.236, 664.960 156.219, 658.357 163.277 C 649.627 172.610, 647.965 177.942, 653.184 179.872 C 655.148 180.599, 655.805 180.032, 658.718 175.098 C 664.326 165.602, 672.236 159.654, 684.673 155.583 C 697.375 151.426, 691.333 146.753, 677.929 150.367 M 311.205 166.253 C 309.470 168.344, 311.350 169.670, 318.068 171.095 C 328.078 173.217, 337.400 179.361, 343.033 187.548 C 346.900 193.168, 349.650 194.779, 351.765 192.663 C 354.087 190.341, 351.807 185.893, 344.116 177.740 C 334.942 168.015, 330.646 165.728, 320.559 165.198 C 314.215 164.865, 312.165 165.097, 311.205 166.253 M 681.500 174.695 C 674.016 175.655, 664.027 178.305, 661.037 180.124 L 657.761 182.116 659.972 184.470 C 662.165 186.805, 662.210 186.809, 665.342 184.990 C 667.079 183.981, 671.200 182.421, 674.500 181.523 C 683.470 179.084, 689 176.946, 689 175.917 C 689 175.413, 688.587 175, 688.082 175 C 687.577 175, 686.564 174.845, 685.832 174.655 C 685.099 174.465, 683.150 174.483, 681.500 174.695 M 665.141 188.330 C 663.798 189.948, 665.599 191.725, 678.848 201.854 C 688.797 209.459, 689.720 209.894, 690.669 207.421 C 691.814 204.435, 672.915 187, 668.533 187 C 667.274 187, 665.748 187.599, 665.141 188.330 M 317.500 192.665 C 310.764 194.187, 312.128 195.351, 322.578 196.997 C 330.787 198.291, 340 201.033, 340 202.183 C 340 202.632, 340.450 203, 341 203 C 341.550 203, 342 202.311, 342 201.469 C 342 200.626, 342.686 199.674, 343.526 199.352 C 350.281 196.760, 326.464 190.641, 317.500 192.665 M 320 214.614 C 308.208 226.111, 304.902 230.235, 306.330 231.663 C 307.084 232.417, 312.024 228.737, 325.698 217.234 C 339.685 205.468, 339.944 205.163, 337.462 203.348 C 334.285 201.025, 333.257 201.688, 320 214.614 M 605.220 254.760 C 601.931 256.396, 599.955 260.375, 601.623 262.002 C 602.109 262.476, 604.728 262.417, 607.500 261.869 C 617.428 259.907, 625.430 262.581, 634.209 270.793 C 638.177 274.504, 639.313 275.118, 640.052 273.950 C 643.075 269.172, 636.343 260.368, 626 255.570 C 619.467 252.540, 610.393 252.186, 605.220 254.760 M 403.148 266.019 C 390.838 271.604, 381.158 285.758, 386.200 290.800 C 388.037 292.637, 388.805 292.280, 390.615 288.750 C 392.970 284.157, 396.633 279.983, 401.362 276.504 C 404.979 273.843, 406.435 273.451, 414.364 273.004 C 425.174 272.394, 427.466 270.588, 422.694 266.439 C 419.032 263.256, 409.681 263.054, 403.148 266.019 M 608.871 345.006 C 586.090 357.044, 594.076 399, 619.148 399 C 640.819 399, 646.338 355.376, 625.982 344.991 C 621.016 342.457, 613.682 342.464, 608.871 345.006 M 411.252 354.047 C 401.904 358.800, 398.615 365.608, 399.209 378.975 C 399.870 393.851, 405.653 403.902, 415.325 406.985 C 429.503 411.505, 441 399.027, 441 379.120 C 441 359.765, 425.576 346.765, 411.252 354.047 M 524 392.618 C 506.075 394.780, 498.136 399.525, 497.265 408.599 C 496.388 417.717, 504.527 429.054, 515.561 434.085 L 521.621 436.848 522.737 444.054 C 524.061 452.610, 523.456 454.654, 518.358 458.856 C 507.015 468.207, 490.640 465.624, 481.226 453 C 475.687 445.572, 475.101 445, 473.033 445 C 471.940 445, 470.327 446.097, 469.449 447.438 C 464.613 454.818, 481.538 471.613, 496.161 473.943 C 505.402 475.416, 520.198 471.754, 524.584 466.908 C 526.852 464.401, 527.827 464.487, 534.116 467.750 C 538.814 470.188, 540.501 470.500, 548.958 470.500 C 562.400 470.500, 569.509 467.210, 576.974 457.534 C 582.712 450.096, 584.757 443.805, 582.538 440.418 C 580.719 437.642, 577.203 437.417, 576.013 440 C 569.606 453.913, 567.107 456.722, 558.533 459.643 C 550.591 462.350, 539.652 460.399, 533.750 455.224 C 532.338 453.986, 532 452.029, 532 445.079 L 532 436.467 537.439 433.214 C 550.422 425.449, 558.064 409.838, 553.201 401.017 C 549.644 394.565, 537.298 391.014, 524 392.618 M 518.500 403.649 C 514.650 404.466, 510.495 405.785, 509.266 406.580 C 498.798 413.352, 518.904 431.010, 531.256 425.894 C 538.579 422.860, 546.872 412.322, 545.453 407.851 C 543.789 402.610, 532.030 400.777, 518.500 403.649 M 323.862 517.620 C 315.323 523.386, 314.319 524.573, 316.166 526.715 C 317.012 527.697, 319.952 532.193, 322.698 536.707 L 327.691 544.914 331.095 541.355 C 332.968 539.397, 336.882 536.437, 339.793 534.778 C 344.521 532.082, 344.948 531.571, 343.793 529.978 C 343.082 528.997, 340.328 525.001, 337.673 521.097 C 332.054 512.836, 331.249 512.633, 323.862 517.620 M 612.550 523.612 C 604.328 526.026, 591.728 529.158, 584.550 530.572 C 577.373 531.986, 570.781 533.344, 569.903 533.590 C 569.024 533.836, 567.761 535.855, 567.096 538.075 C 564.714 546.024, 552.013 554.488, 533.962 560.157 C 518.525 565.004, 493.215 562.315, 476.402 554.040 C 467.907 549.858, 460 542.678, 460 539.145 C 460 536.189, 458.180 535.388, 448.500 534.085 C 436.268 532.438, 415.051 527.712, 400.340 523.356 L 388.180 519.756 376.472 527.455 C 370.033 531.689, 364.142 535.392, 363.382 535.684 C 362.622 535.975, 362 537.028, 362 538.022 C 362 539.960, 372.992 556.884, 385.367 574 C 389.542 579.775, 394.621 587.640, 396.653 591.478 C 400.052 597.897, 400.409 598.257, 401.105 595.978 C 401.521 594.615, 403.017 589.614, 404.428 584.864 C 407.120 575.806, 409.869 571.183, 411.838 572.400 C 413.611 573.496, 413.271 577.307, 409.922 593.903 L 406.844 609.154 410.672 615.744 L 414.500 622.334 423.229 624.636 C 442.077 629.606, 448.908 635.857, 452.523 651.441 C 453.487 655.598, 453.797 659.875, 453.388 663.358 L 452.749 668.790 463.125 669.497 C 468.831 669.885, 496.402 670.045, 524.392 669.852 L 575.285 669.500 577.392 666.583 C 588.485 651.233, 595.681 645.361, 615.186 635.742 C 626.218 630.302, 629.730 628.127, 629.300 627 C 626.104 618.626, 622.086 595.927, 620.404 576.750 C 619.803 569.900, 619.918 569, 621.398 569 C 624.480 569, 629.071 584.003, 633.639 609 C 635.744 620.517, 635.224 619.829, 639.409 616.637 C 645.100 612.297, 658.608 606.018, 666.721 603.943 C 679.684 600.628, 695.171 601.813, 696.572 606.228 C 697.441 608.966, 697.580 608.925, 683.704 609.984 C 662.570 611.598, 654.556 614.513, 641.797 625.230 L 639.094 627.500 649.297 627.500 C 660.379 627.500, 669.109 630.384, 669.830 634.283 C 670.136 635.942, 669.334 636.019, 658.258 635.393 C 622.403 633.366, 583.361 658.174, 581.263 684.317 C 580.636 692.119, 582.780 700.137, 586.764 704.896 L 589.607 708.292 591.889 700.439 C 595.757 687.126, 602.552 677, 607.616 677 C 610.846 677, 610.653 678.027, 605.964 685.801 C 601.576 693.076, 598 703.277, 598 708.516 C 598 715.499, 613.823 723.532, 617.900 718.620 C 618.530 717.861, 620.387 713.272, 622.026 708.423 C 624.827 700.135, 631.778 686.873, 634.059 685.464 C 635.359 684.660, 638 686.791, 638 688.642 C 638 689.411, 636.911 691.765, 635.580 693.873 C 633.176 697.682, 627 713.954, 627 716.480 C 627 718.304, 636.124 720.349, 643.768 720.239 C 651.768 720.124, 658.679 717.818, 663.609 713.619 C 665.749 711.797, 669.975 709.499, 673 708.514 C 702.100 699.033, 716 681.556, 716 654.449 C 716 638.523, 711.679 617.123, 705.817 604.022 C 693.829 577.227, 641.597 518.626, 630.136 519.112 C 628.686 519.173, 620.773 521.198, 612.550 523.612 M 546.500 536.248 C 537.813 537.470, 487.855 537.784, 475.026 536.697 L 465.552 535.894 467.968 538.466 C 480.043 551.319, 509.703 557.262, 532.457 551.387 C 539.939 549.456, 552.532 543.005, 557.655 538.479 L 561.500 535.083 557.500 535.173 C 555.300 535.222, 550.350 535.706, 546.500 536.248 M 343 538.117 C 332.133 544.668, 329.491 548.595, 332.101 554.321 L 333.201 556.737 337.228 552.368 C 339.445 549.964, 344.136 546.581, 347.665 544.844 L 354.076 541.688 351.351 538.844 C 348.093 535.444, 347.518 535.394, 343 538.117 M 348 550.658 C 335.562 557.952, 335.570 560.607, 348.093 580.217 C 362.948 603.479, 374.090 621.273, 375.467 623.936 C 376.593 626.114, 378.763 627.357, 385.883 629.904 C 402.481 635.841, 413.256 644.937, 419.617 658.380 C 425.615 671.057, 425.511 685.674, 419.370 692.972 C 417.407 695.305, 416.951 696.670, 417.459 698.694 C 419.025 704.932, 432.893 722, 436.395 722 C 437.215 722, 440.413 718.771, 443.501 714.824 C 451.662 704.393, 451.683 704.472, 431.516 669 C 406.587 625.152, 367.930 562.558, 359.412 552.250 C 355.312 547.288, 354.048 547.111, 348 550.658 M 320.945 578.503 C 282.336 617.735, 273.642 664.681, 300.080 691.167 C 307.294 698.394, 321.400 704.398, 323.433 701.108 C 324.583 699.248, 325.534 699.823, 328.780 704.344 C 337.054 715.865, 358.739 724.026, 373.023 720.995 C 376.310 720.298, 379 719.574, 379 719.388 C 379 719.202, 375.175 714.475, 370.500 708.884 C 362.456 699.264, 359.912 694.035, 363.250 693.979 C 363.938 693.967, 369.002 698.692, 374.505 704.479 C 384.169 714.641, 384.657 715, 388.788 715 C 396.571 715, 404.931 709.106, 406.605 702.438 C 408.016 696.817, 401.005 686.334, 389.750 677.236 C 386.627 674.712, 386.388 673.753, 388.452 672.040 C 390.817 670.077, 393.717 671.741, 402.137 679.894 C 410.662 688.148, 410.779 688.167, 413.493 681.672 C 415.392 677.126, 414.335 671.842, 409.456 661.500 C 402.371 646.481, 386.127 635.868, 365.794 632.974 C 359.527 632.082, 358.547 632.222, 350.794 635.114 C 340.687 638.885, 335 639.843, 335 637.775 C 335 635.335, 343.869 629.817, 352.277 627.024 C 360.140 624.412, 360.235 624.341, 357.395 623.213 C 350.442 620.453, 344.514 619.727, 333.409 620.274 C 321.729 620.849, 319.673 620.305, 322.164 617.301 C 326.798 611.714, 346.822 611.333, 360.351 616.574 C 362.127 617.263, 362.134 617.154, 360.520 613.896 C 358.333 609.480, 331.685 569.150, 330.898 569.065 C 330.568 569.029, 326.089 573.276, 320.945 578.503 M 144 599.871 C 136.405 602.306, 130.335 606.572, 127.442 611.509 C 122.497 619.948, 125.500 625.772, 139.753 635.383 C 160.723 649.522, 179 671.797, 179 683.214 C 179 684.975, 180.241 684.051, 185.301 678.523 L 191.603 671.639 206.051 670.570 L 220.500 669.500 220.839 665.500 C 222.401 647.059, 201.922 613.483, 183.620 604.477 C 170.888 598.213, 154.952 596.360, 144 599.871 M 428.825 646.282 C 434.766 655.237, 440.694 664.462, 441.997 666.782 C 445.568 673.134, 446.332 672.118, 445.781 661.750 C 445.228 651.350, 442.672 643.976, 438.104 639.599 C 435.969 637.554, 420.489 630, 418.433 630 C 418.208 630, 422.885 637.327, 428.825 646.282 M 719.190 686.307 L 714.879 694.590 726.471 716.545 C 750.407 761.882, 760.075 782.082, 760.670 788 C 761.647 797.722, 772.817 796.808, 648.500 797.177 C 549.602 797.470, 539.222 797.652, 536.500 799.145 C 524.169 805.907, 508.658 806.890, 495 801.773 L 486.500 798.590 377.569 798.286 C 252.999 797.939, 264.477 798.905, 265.206 788.831 C 265.684 782.218, 270.669 771.455, 288.285 739 C 306.633 705.197, 305.955 707.063, 300.843 704.419 C 295.212 701.507, 287.890 693.705, 283.808 686.268 L 279.819 679 254.660 679.060 C 211.136 679.164, 195.006 680.217, 192.793 683.099 C 189.507 687.375, 162.604 724.143, 153.352 737 C 148.405 743.875, 138.501 757.600, 131.343 767.500 C 106.759 801.502, 96.815 817.149, 98.950 818.469 C 99.430 818.766, 268.050 818.901, 473.661 818.770 C 679.273 818.639, 867.413 818.524, 891.750 818.516 C 916.088 818.507, 936 818.373, 936 818.218 C 935.999 816.008, 928.110 803.705, 901.777 764.843 C 884.505 739.354, 864.442 709.681, 857.192 698.901 L 844.010 679.302 834.255 678.656 C 828.890 678.301, 801.775 678.013, 774 678.017 L 723.500 678.024 719.190 686.307 M 552.572 680.101 C 543.963 681.009, 524.964 685.454, 521.095 687.467 L 518.691 688.718 518.904 727.109 C 519.021 748.224, 519.352 767.014, 519.639 768.864 C 520.503 774.442, 519.391 777, 516.103 777 C 514.531 777, 512.838 776.438, 512.340 775.750 C 511.811 775.019, 511.692 756.658, 512.054 731.500 C 512.583 694.720, 512.464 688.328, 511.229 687.312 C 507.122 683.929, 487.733 680.650, 469.250 680.213 C 458.258 679.953, 451 680.153, 451 680.718 C 451 681.233, 452.842 685.895, 455.093 691.078 C 473.520 733.500, 476.488 754, 464.205 754 C 455.938 754, 433.067 735.685, 422.995 721 C 420.920 717.975, 418.098 714.457, 416.724 713.181 L 414.225 710.862 411.346 715.148 C 407.263 721.228, 400.857 724.891, 392.412 725.973 C 388.611 726.461, 382.125 728.071, 378 729.551 C 361.723 735.393, 343.987 731.987, 331.305 720.584 C 326.295 716.080, 317.085 711.029, 313.848 711.010 C 311.221 710.994, 296.836 737.499, 281.360 770.868 L 277.943 778.236 282.722 777.546 C 285.350 777.166, 292.900 775.784, 299.500 774.473 C 328.741 768.666, 369.228 764.025, 397.010 763.297 C 437.778 762.228, 464.337 766.231, 494.458 777.984 C 513.882 785.563, 515.176 785.602, 530.174 779.060 C 557.866 766.981, 589.728 762.034, 631.500 763.328 C 657.576 764.136, 701.147 769.218, 726.521 774.411 C 746.081 778.414, 748.454 778.636, 747.615 776.388 C 747.227 775.349, 738.885 758.975, 729.077 740 C 719.269 721.025, 710.934 704.487, 710.555 703.250 C 709.646 700.283, 707.891 700.408, 704.924 703.649 C 702.611 706.177, 679.246 718.011, 674 719.312 C 672.625 719.653, 669.143 721.709, 666.262 723.882 C 656.320 731.378, 642.164 733.637, 629.985 729.671 C 624.936 728.026, 624.219 728.006, 621.485 729.431 C 613.611 733.537, 602.925 730.476, 592.924 721.250 C 589.794 718.362, 586.908 716, 586.510 716 C 584.239 716, 577.738 709.163, 575.330 704.241 C 573.011 699.502, 572.489 696.955, 572.160 688.783 L 571.767 679 566.134 679.133 C 563.035 679.206, 556.932 679.642, 552.572 680.101 M 447.022 716.470 C 444.800 719.478, 442.040 722.443, 440.889 723.059 C 438.818 724.168, 438.826 724.209, 441.649 727.191 C 445.375 731.128, 460.161 743, 461.337 743 C 462.616 743, 461.584 738.470, 456.951 723.750 C 454.745 716.737, 452.517 711, 452.001 711 C 451.485 711, 449.245 713.461, 447.022 716.470 M 378 772.125 C 345.908 774.281, 275 785.121, 275 787.871 C 275 788.217, 322.072 788.381, 379.604 788.236 L 484.208 787.973 493.354 790.902 C 508.398 795.720, 514.356 795.837, 527.832 791.580 L 539.163 788 577.417 788 C 641.440 788, 747.943 786.717, 747.470 785.952 C 746.837 784.927, 738.382 783.497, 706.500 779.020 C 661.283 772.671, 659.077 772.498, 623.500 772.523 C 579.767 772.553, 557.477 775.646, 532.364 785.169 C 515.605 791.523, 511.025 791.517, 493.778 785.116 C 464.183 774.132, 420.723 769.255, 378 772.125 M 98.698 826.636 C 98.314 827.019, 98 833.108, 98 840.167 C 98 851.986, 98.171 853.171, 100.161 855.161 L 102.323 857.323 517.389 856.610 C 896.247 855.960, 932.610 855.758, 934.228 854.294 C 935.750 852.917, 936 850.867, 936 839.792 L 936 826.895 519.250 827.189 C 290.038 827.351, 101.801 827.136, 100.948 826.711 C 100.094 826.286, 99.082 826.252, 98.698 826.636 M 318.492 867.250 C 317.768 869.281, 312 943.237, 312 950.485 C 312 961.086, 314.451 962.983, 328.161 962.994 C 336.972 963.002, 339.418 960.476, 340.434 950.321 C 340.810 946.569, 342.890 927.484, 345.058 907.909 C 347.226 888.333, 349 870.896, 349 869.159 L 349 866 333.969 866 C 322.848 866, 318.821 866.325, 318.492 867.250 M 384 868.813 C 384 874.218, 387.186 883.680, 393.490 897 C 397.004 904.425, 400.019 911.255, 400.190 912.178 C 400.389 913.258, 397.650 916.225, 392.500 920.507 C 381.816 929.389, 377.027 936.823, 377.006 944.554 C 376.996 948.205, 382.052 956.873, 386.028 960.022 L 389.899 963.088 390.852 959.294 C 391.377 957.207, 392.103 953.036, 392.467 950.025 C 393.309 943.058, 394.584 941.314, 397.143 943.630 C 399.368 945.643, 399.471 949.017, 397.608 958.788 C 396.407 965.085, 396.413 966.270, 397.654 967.511 C 400.963 970.820, 419.762 974.870, 425.728 973.560 L 428.664 972.915 426.865 967.707 C 424.321 960.347, 424.469 954.083, 427.285 949.905 C 431.790 943.221, 434.573 946.029, 432.075 954.737 C 430.352 960.747, 434.780 970, 439.378 970 C 446.394 970, 461.918 962.015, 469.349 954.584 C 481.049 942.885, 485.507 920.215, 480.682 896.964 C 479.259 890.109, 477.787 880.563, 477.410 875.750 L 476.725 867 467.112 866.896 C 461.826 866.838, 440.962 866.624, 420.750 866.419 L 384 866.046 384 868.813 M 547.550 867.250 C 547.338 867.938, 546.888 871.650, 546.551 875.500 C 546.214 879.350, 544.573 888.189, 542.904 895.142 C 537.422 917.989, 541.131 935.387, 554.584 949.918 C 563.432 959.474, 579.870 968.013, 583.545 964.962 C 586.185 962.772, 589.002 954.825, 589.635 947.782 C 589.995 943.777, 590.694 939.407, 591.188 938.071 L 592.087 935.642 594.293 937.850 C 597.121 940.679, 597.286 952.963, 594.591 960 C 591.487 968.105, 591.454 967.807, 595.537 968.573 C 606.098 970.554, 626.224 966.171, 627.999 961.504 C 628.898 959.137, 628.143 952.193, 625.848 941.744 C 624.712 936.570, 624.761 935.811, 626.328 934.244 C 627.855 932.717, 628.193 932.687, 629.041 934 C 630.507 936.272, 634.022 947.947, 634.685 952.750 C 635.029 955.243, 635.804 957, 636.558 957 C 638.717 957, 644.929 948.893, 645.629 945.163 C 647.609 934.611, 636.984 910, 630.449 910 C 627.449 910, 627.383 909.285, 630.114 906.379 C 632.018 904.352, 644 870.670, 644 867.344 C 644 865.431, 548.142 865.337, 547.550 867.250 M 674.317 869.223 C 674.621 871.025, 675.579 880.825, 676.446 891 C 682.832 965.956, 681.845 962.400, 696.120 961.844 C 710.942 961.266, 711.290 959.811, 707.431 914.631 C 706.544 904.253, 705.522 889.178, 705.160 881.131 L 704.500 866.500 689.133 866.223 L 673.765 865.947 674.317 869.223" stroke="none" fill="#1a1a1a" fill-rule="evenodd"/>
</svg>