<svg xmlns="http://www.w3.org/2000/svg" width="1024" height="1024" viewBox="0 0 1024 1024" version="1.1">
	<path d="M 313.358 43.954 C 302.156 46.625, 292.927 59.231, 288.066 78.500 C 275.533 128.182, 280.215 198.694, 298.452 234.905 C 302.494 242.930, 302.476 242.383, 299.111 255.500 C 297.982 259.900, 295.272 272.725, 293.090 284 C 290.603 296.847, 287.743 308.233, 285.430 314.500 C 283.399 320, 281.586 325.063, 281.400 325.750 C 281.145 326.694, 276.403 327, 261.999 327 C 243.148 327, 242.926 327.025, 242.086 329.250 C 240.189 334.275, 241.929 335, 255.888 335 C 275.526 335, 281 335.766, 281 338.514 C 281 340.718, 285.158 357.867, 286.513 361.250 C 287.106 362.729, 286.637 363, 283.483 363 C 278.689 363, 255.793 367.542, 250.250 369.593 C 246.941 370.817, 246 371.674, 246 373.460 C 246 377.708, 247.782 377.983, 259 375.465 C 264.775 374.169, 273.913 372.247, 279.306 371.195 L 289.113 369.281 292.163 375.322 C 306.909 404.535, 336.522 431.599, 372.222 448.490 C 381.896 453.068, 398.451 458.989, 401.648 459.015 C 406.900 459.059, 406.116 460.772, 397.178 468.787 C 389.181 475.957, 387.648 476.915, 383.342 477.438 C 365.938 479.551, 352.665 483.129, 341.648 488.677 L 334.746 492.153 328.465 490.453 C 319.430 488.008, 305.276 488.724, 298.500 491.970 C 290.877 495.621, 280.144 506.982, 275.798 516 C 266.867 534.534, 265.875 557.169, 273.502 568.407 C 274.876 570.432, 276 572.243, 276 572.431 C 276 572.619, 272.962 573.339, 269.250 574.031 C 248.800 577.840, 210.124 594.320, 188.399 608.480 C 131.887 645.317, 100.810 695.873, 97.412 756.500 L 96.740 768.500 89.066 776.012 C 79.621 785.260, 78.442 788.479, 78.628 804.500 C 78.924 829.953, 88.389 843.781, 113.951 856.107 C 120.853 859.435, 128.071 862.910, 129.991 863.829 C 132.273 864.921, 134.525 867.300, 136.491 870.694 C 138.146 873.551, 141.737 879.782, 144.472 884.542 C 152.949 899.295, 165.005 910.461, 179.920 917.371 C 182.794 918.703, 184.775 919.997, 184.323 920.247 C 182.376 921.323, 169.746 923.305, 144.596 926.482 C 116.956 929.973, 113.944 930.807, 115.388 934.569 C 116.221 936.740, 120.696 936.442, 160.101 931.586 C 199.175 926.772, 213.351 925.879, 229.942 927.187 C 243.353 928.245, 243.652 928.223, 257.478 925.131 C 279.234 920.267, 291.694 913.217, 297.128 902.701 C 298.207 900.612, 299.633 898.695, 300.295 898.441 C 300.958 898.187, 318.375 897.809, 339 897.602 C 359.625 897.394, 378.101 896.904, 380.058 896.513 C 384.090 895.706, 382.831 893.888, 392.870 915 C 404.093 938.600, 423.270 955.058, 447.500 961.886 C 451.350 962.970, 453.375 963.885, 452 963.917 C 444.738 964.090, 382.333 974.393, 381.017 975.637 C 378.623 977.898, 380.979 980.446, 385.797 980.805 C 388.048 980.972, 399.927 979.522, 412.195 977.581 C 424.463 975.640, 451.375 971.534, 472 968.455 C 501.480 964.056, 510.997 962.268, 516.500 960.097 C 525.763 956.442, 533.024 954.546, 547.500 952.001 C 554.100 950.841, 568.050 948.360, 578.500 946.488 C 588.950 944.616, 611.675 940.572, 629 937.502 C 667.735 930.637, 745.524 916.250, 772.500 910.961 C 783.500 908.805, 805.325 904.989, 821 902.481 C 876.308 893.633, 921.558 885.768, 926.500 884.143 C 930.286 882.899, 931.500 882.014, 931.500 880.500 C 931.500 877.220, 927.667 877.534, 889.361 883.953 C 869.516 887.279, 852.962 890, 852.574 890 C 852.186 890, 855.161 887.377, 859.184 884.172 C 879.857 867.703, 899.882 831.303, 902.793 804.907 L 903.500 798.500 914 797.895 C 926.342 797.185, 928.467 796.454, 934.586 790.814 C 945.650 780.616, 951.776 757.710, 947.389 742.939 C 945.872 737.829, 942.867 734.123, 935.097 727.781 C 933.730 726.665, 933.135 723.384, 932.188 711.733 C 927.843 658.288, 908.039 617.834, 872.246 589.286 C 861.296 580.552, 861.236 580.447, 853.030 555.500 C 833.080 494.846, 813.581 460.222, 781.547 428.566 C 761.357 408.615, 741.300 395.363, 723.250 390.049 C 719.263 388.876, 716 387.705, 716 387.448 C 716 387.191, 717.995 383.273, 720.434 378.740 C 725.275 369.743, 729.309 359.624, 730.396 353.750 L 731.091 350 741.474 350 C 754.021 350, 756.880 348.382, 753.965 342.934 C 753.050 341.225, 751.796 341, 743.194 341 L 733.458 341 732.260 335.250 C 731.602 332.087, 729.925 325.740, 728.534 321.144 C 727.142 316.547, 725.107 306.197, 724.011 298.144 C 720.911 275.358, 720.068 269.656, 719.481 267.500 C 719.100 266.104, 720.567 263.343, 724.341 258.352 C 731.162 249.334, 735.741 239.701, 740.971 223.371 C 755.601 177.691, 757.706 129.377, 747.022 84.500 C 739.104 51.241, 732.343 46.287, 702.682 52.011 C 666.651 58.964, 622.096 80, 590.500 104.974 C 586.100 108.452, 582.047 111.645, 581.493 112.069 C 580.940 112.494, 576.665 111.734, 571.993 110.380 C 540.945 101.386, 493.370 98.411, 462.904 103.558 L 452.307 105.349 443.904 98.794 C 418.802 79.215, 387.398 62.971, 350.709 50.589 C 332.588 44.473, 320.320 42.294, 313.358 43.954 M 310.330 54.868 C 306.108 57.539, 299.788 70.525, 296.573 83.137 C 291.930 101.347, 290.679 112.792, 290.688 137 C 290.701 174.919, 295.737 205.148, 305.321 224.842 L 308.408 231.184 309.626 227.667 C 315.438 210.877, 332.519 186.570, 351.888 167.523 C 362.541 157.048, 362.516 156.828, 350.500 155.501 C 341.490 154.506, 337.618 151.222, 341.580 147.934 C 342.889 146.847, 344.559 146.913, 351.330 148.316 C 364.195 150.982, 367.823 150.439, 375.618 144.680 L 378.737 142.377 376.725 138.438 C 368.865 123.049, 348.103 102.866, 329.334 92.370 C 322.215 88.389, 321.293 87.190, 322.958 84.078 C 324.505 81.189, 326.991 81.467, 334.808 85.403 C 354.691 95.416, 379.118 120.548, 389.126 141.291 C 391.924 147.089, 391.356 148.409, 384.478 152.081 C 372.761 158.338, 354.149 176.346, 340.817 194.328 C 320.857 221.248, 306.844 256.393, 301.498 292.944 C 299.846 304.240, 298.733 308.410, 293.509 322.873 C 292.044 326.928, 291.218 330.610, 291.673 331.055 C 292.128 331.500, 300.825 333.290, 311 335.034 C 330.936 338.450, 333 339.095, 333 341.913 C 333 345.869, 330.675 346.349, 320.256 344.544 C 295.693 340.287, 291.947 339.720, 291.481 340.185 C 290.846 340.821, 295.729 360.168, 296.741 361.025 C 297.158 361.378, 303.547 361.280, 310.937 360.806 C 322.504 360.065, 324.589 360.160, 325.920 361.491 C 327.078 362.649, 327.200 363.459, 326.407 364.717 C 324.987 366.968, 321.796 367.712, 309.968 368.551 L 300.001 369.258 303.175 374.879 C 321.642 407.576, 354.762 432.717, 399.428 447.942 C 432.884 459.346, 446.843 461.624, 492.856 463.189 C 530.591 464.472, 531.766 464.679, 527.219 469.225 C 521.897 474.548, 473.853 473.311, 439.298 466.963 C 421.478 463.689, 416.951 464.450, 408.542 472.136 C 405.494 474.921, 403 477.534, 403 477.941 C 403 478.349, 405.587 479.257, 408.750 479.961 C 418.491 482.128, 427.878 485.925, 443.500 494.017 C 463.572 504.415, 464.135 504.570, 475.955 503.006 C 487.839 501.433, 492.261 502.250, 506.918 508.728 C 525.774 517.062, 535.065 515.323, 549.082 500.836 C 556.698 492.965, 558.531 491.939, 560.859 494.250 C 561.870 495.253, 561.971 495.105, 561.372 493.500 C 560.713 491.735, 560.821 491.659, 562.285 492.849 C 565.348 495.340, 560.419 503.658, 550.236 513.182 C 544.547 518.504, 539.340 521.397, 532.384 523.099 C 526.264 524.598, 526.549 524.226, 528.551 528.099 C 532.647 536.020, 532.243 541, 527.504 541 C 524.623 541, 523.802 540.160, 519.890 533.208 C 516.247 526.734, 502.190 515.787, 494.568 513.488 C 475.009 507.587, 448 523.559, 448 541.026 C 448 549.493, 451.980 551.509, 456.340 545.250 C 460.100 539.853, 465.599 535.738, 468.022 536.507 C 471.326 537.556, 470.444 541.808, 465.652 547.938 C 459.706 555.543, 459 557.120, 459 562.786 C 459 567.865, 461.606 573.134, 465.235 575.392 C 467.827 577.004, 473.387 573.603, 477.648 567.798 C 482.026 561.834, 484.074 560.602, 486.572 562.429 C 488.880 564.116, 488.052 566.207, 481.617 574.949 C 473.460 586.029, 474.079 587.259, 487.558 586.760 C 494.698 586.495, 497.409 585.956, 500.365 584.212 C 505.136 581.397, 505.552 581.417, 515.881 584.938 C 541.253 593.588, 561.291 592.925, 582 582.750 C 589.274 579.176, 592.209 576.874, 602.351 566.787 C 608.870 560.304, 614.412 555, 614.667 555 C 614.923 555, 616.002 555.466, 617.066 556.035 C 625.202 560.390, 604.679 582.577, 582.936 592.931 C 562.835 602.503, 539.155 603.678, 516.197 596.242 C 506.974 593.255, 506.960 593.260, 504.978 600 C 503.663 604.469, 501.538 625.871, 502.330 626.663 C 502.659 626.993, 506.882 626.527, 511.714 625.629 C 525.209 623.121, 546.559 620.467, 593 615.521 C 616.375 613.032, 637.447 610.479, 639.826 609.847 C 646.987 607.944, 647.249 606.958, 646.054 586.357 C 643.837 548.141, 634.478 506.007, 621.984 477.994 C 614.299 460.764, 612.839 459.845, 597.990 462.897 C 571.688 468.303, 563 468.599, 563 464.087 C 563 461.135, 565.223 460.049, 573.386 459.015 C 595.995 456.148, 633.355 443.347, 654.194 431.328 C 670.012 422.203, 686.190 408.799, 694.645 397.812 L 699.120 391.996 696.544 391.017 C 685.326 386.752, 653.518 379, 647.235 379 C 644.575 379, 641 376.915, 641 375.363 C 641 371.812, 643.364 370.761, 649.851 371.426 C 659.429 372.407, 677.602 376.390, 691.772 380.613 C 703.439 384.091, 704.137 384.186, 705.945 382.550 C 708.396 380.332, 714.047 368.798, 717.926 358.099 L 720.971 349.697 701.735 350.317 C 691.156 350.659, 674.231 351.843, 664.125 352.950 C 654.018 354.057, 645.356 354.720, 644.875 354.423 C 642.612 353.024, 644.048 348.878, 647.250 347.567 C 651.711 345.739, 678.870 343.115, 701.453 342.329 C 725.340 341.498, 724.512 342.250, 720.027 325.445 C 718.313 319.019, 715.787 306.052, 714.415 296.630 C 708.645 257.009, 699.184 232.448, 679.594 206.231 C 666.058 188.116, 649.243 172.067, 639.339 167.811 C 632.832 165.015, 631.907 162.768, 635.179 157.710 C 636.456 155.737, 639.009 151.445, 640.854 148.172 C 649.349 133.102, 665.948 114.283, 680 103.790 C 696.742 91.290, 715.500 84.246, 715.500 90.460 C 715.500 92.605, 713.219 94.262, 701.311 100.765 C 681.053 111.828, 658.819 133.656, 649.121 152 C 643.451 162.727, 647.463 164.768, 664.760 159.957 C 679.267 155.923, 689.894 154.963, 691.998 157.497 C 694.007 159.918, 690.162 163, 685.132 163 C 679.601 163, 659 169, 659 170.611 C 659 170.974, 663.615 176.047, 669.256 181.886 C 687.863 201.146, 702.403 222.518, 710.151 242 C 715.187 254.662, 714.695 254.026, 717.109 250.985 C 726.395 239.282, 736.711 206.274, 740.414 176.414 C 745.917 132.045, 740.508 75.100, 729.677 63.370 C 724.961 58.264, 721.900 58.163, 702.856 62.484 C 659.521 72.316, 626.462 88.366, 593.202 115.722 L 582.739 124.327 574.620 121.717 C 539.394 110.390, 488.649 107.560, 457.840 115.205 L 449.179 117.353 442.204 110.895 C 408.533 79.721, 326.283 44.777, 310.330 54.868 M 384.994 216.881 C 375.068 220.110, 360.091 234.183, 361.721 238.750 C 362.622 241.276, 365.912 239.870, 371.140 234.727 C 379.939 226.070, 388.497 223.137, 395.059 226.530 C 400.747 229.472, 404.788 224.191, 400.586 219.306 C 398.146 216.468, 390.106 215.218, 384.994 216.881 M 558 222.752 C 551.144 226.176, 554.178 232.678, 561.805 230.906 C 572.429 228.438, 579.542 230.961, 584.860 239.083 C 587.491 243.103, 588.608 244, 590.980 244 C 600.679 244, 590.663 226.799, 578.563 222.676 C 572.078 220.466, 562.504 220.501, 558 222.752 M 384.460 282.064 C 370.824 286.030, 361.743 310.666, 367.513 328.040 C 375.058 350.754, 401.093 347.054, 408.986 322.145 C 416.460 298.559, 403.057 276.657, 384.460 282.064 M 376.400 291.400 C 372.507 295.293, 372.079 298.241, 375.099 300.357 C 380.463 304.114, 389.417 293.817, 384.800 289.200 C 382.737 287.137, 379.927 287.873, 376.400 291.400 M 558.748 289.382 C 541.470 295.756, 533.893 325.824, 545.319 342.670 C 555.302 357.389, 574.037 353.288, 582.644 334.500 C 593.405 311.013, 578.156 282.221, 558.748 289.382 M 552.039 300.189 C 548.262 304.243, 550.151 312, 554.916 312 C 557.594 312, 560 308.737, 560 305.106 C 560 298.320, 556.052 295.881, 552.039 300.189 M 444.500 333.259 C 436.855 336.421, 434 340.178, 434 347.078 C 434 352.386, 439.715 361.537, 447.673 368.968 C 457.354 378.009, 457.171 382.811, 446.945 388.028 C 436.258 393.480, 423.222 388.207, 419.471 376.913 C 416.872 369.087, 410.981 369.346, 411.022 377.285 C 411.124 396.855, 439.569 407.322, 454.931 393.444 C 459.699 389.136, 459.762 389.140, 464.547 394.085 C 471.431 401.199, 474.953 402.509, 487 402.439 C 503.401 402.344, 516.204 395.474, 521.898 383.711 C 526.227 374.768, 520.240 370.427, 514.042 378.016 C 502.856 391.713, 498.417 394.297, 485.840 394.430 C 479.984 394.492, 478.656 394.134, 474.840 391.468 C 468.179 386.815, 463.835 379.713, 464.203 374.078 C 464.494 369.617, 464.638 369.440, 471.216 365.490 C 491.788 353.138, 493.710 340.019, 475.764 334.453 C 468.899 332.324, 448.632 331.550, 444.500 333.259 M 447.252 342.605 C 443.388 344.024, 443.061 344.407, 443.642 346.833 C 444.641 351.006, 446.811 354.785, 450.644 359.027 L 454.174 362.935 461.837 358.991 C 470.191 354.692, 473.824 351.917, 476.398 347.872 L 478.070 345.245 473.785 343.465 C 467.853 341, 452.936 340.517, 447.252 342.605 M 706.558 400.092 C 705.133 402.246, 699.646 408.328, 694.366 413.608 L 684.766 423.209 685.874 428.354 C 686.484 431.184, 688.089 437.625, 689.441 442.667 C 690.799 447.731, 692.806 460.262, 693.924 470.667 C 695.038 481.025, 697.053 499.175, 698.403 511 C 702.125 543.618, 703.335 562.191, 703.422 588 L 703.500 611.500 700 611.374 C 698.075 611.305, 688.400 612.519, 678.500 614.072 C 656.925 617.457, 648.180 618.582, 597.500 624.496 C 507.139 635.041, 508.351 634.853, 484 642.166 C 448.553 652.812, 423.199 665.579, 401.216 683.854 C 390.021 693.159, 387.689 694.139, 387.183 689.748 C 386.926 687.510, 387.930 685.984, 392.569 681.562 C 411.573 663.447, 442.897 646.937, 477.976 636.548 C 484.751 634.541, 491.639 632.204, 493.282 631.354 L 496.270 629.809 493.385 627.005 C 489.535 623.264, 461.963 609.097, 449.689 604.553 C 394.064 583.962, 304.286 575.243, 259.074 586.041 C 250.428 588.106, 230.191 595.946, 218.500 601.760 C 185.959 617.941, 158.432 640.071, 139.403 665.349 C 133.885 672.680, 133.872 672.592, 140.574 673.380 C 156.168 675.213, 162 684.091, 162 705.999 C 162 736.948, 144.265 767, 126 767 C 120.371 767, 113.794 763.787, 109.999 759.182 L 107 755.544 107 766.269 L 107 776.994 110.589 780.967 C 125.578 797.558, 222.387 819.013, 314.500 826.157 C 323.736 826.874, 344.389 827.313, 363.351 827.197 C 393.342 827.014, 396.565 827.156, 400.363 828.836 C 405.855 831.266, 410.341 835.880, 412.635 841.459 C 413.661 843.952, 414.761 845.994, 415.080 845.996 C 415.399 845.998, 416.439 841.837, 417.392 836.750 C 429.337 772.960, 456.339 736.424, 499.657 725.435 C 523.470 719.394, 542.612 725.257, 561.502 744.377 C 580.472 763.577, 590.892 788.188, 593.520 820 C 594.393 830.575, 594.737 831.002, 602.372 830.992 C 614.406 830.976, 701.766 818.652, 703.732 816.693 C 709.505 810.939, 713.066 703.081, 709.763 634 C 709.524 629.012, 709.703 628.471, 711.682 628.189 C 713.083 627.990, 714.263 628.623, 714.976 629.955 C 719.922 639.198, 718.570 747.211, 712.678 813.500 C 712.292 817.837, 730.231 814.370, 736.455 808.905 C 741.652 804.342, 744.575 797.106, 747.940 780.476 C 757.489 733.284, 778.338 701.435, 809.107 687.037 C 834.341 675.230, 856.278 678.617, 875.766 697.331 C 893.445 714.307, 903.122 738.684, 904.958 770.873 C 905.893 787.253, 905.455 786.541, 915.193 787.519 C 921.600 788.163, 922.264 788.036, 925.536 785.541 C 934.682 778.564, 941.722 754.450, 937.536 744.432 C 936 740.756, 931.336 738, 926.650 738 C 924.332 738, 924.211 737.653, 923.584 729.250 C 921.144 696.555, 919.150 684.280, 913.404 666.584 C 903.574 636.310, 888.121 613.881, 865.351 596.839 C 854.507 588.722, 851.388 584.287, 847.179 571 C 845.524 565.775, 842.386 555.875, 840.205 549 C 825.633 503.059, 805.959 468.409, 778.221 439.836 C 754.376 415.273, 738.008 404.115, 717.573 398.492 L 709.150 396.175 706.558 400.092 M 671 432.921 C 659.795 440.702, 637.272 451.849, 626.222 455.082 C 623.869 455.770, 622.069 456.605, 622.222 456.937 C 622.375 457.269, 625.098 462.711, 628.273 469.030 C 631.448 475.349, 635.773 485.426, 637.883 491.424 L 641.720 502.328 646.908 503.656 C 677.067 511.374, 686.649 529.346, 687.746 580.250 C 688.191 600.947, 688.391 603, 689.963 603 C 693.630 603, 695.510 599.213, 695.355 592.137 C 694.652 560.057, 689.569 501.588, 683.128 451.500 C 682.241 444.603, 677.974 428.980, 677 429.060 C 676.725 429.083, 674.025 430.820, 671 432.921 M 720.598 439.545 C 717.024 443.119, 716.657 447.909, 718.404 468.162 C 719.322 478.798, 720.721 496.275, 721.513 507 C 722.306 517.725, 723.856 538.425, 724.957 553 C 726.059 567.575, 727.236 583.883, 727.573 589.239 C 728.154 598.486, 728.336 599.105, 731.169 601.489 C 735.087 604.785, 736.205 604.735, 764.012 600.005 C 776.931 597.807, 793.350 595.064, 800.500 593.910 C 821.493 590.519, 828 586.522, 828 577.020 C 828 572.170, 827.653 571.170, 813.266 534.500 C 794.966 487.860, 772.323 457.380, 746.048 444.017 C 734.840 438.317, 723.771 436.372, 720.598 439.545 M 725 448.729 C 725 450.920, 726.320 465.715, 727.933 481.607 C 731.420 515.953, 731.512 517.125, 734.046 559.963 C 735.135 578.368, 736.419 593.819, 736.900 594.300 C 738.282 595.682, 794.530 587.265, 808.843 583.534 C 819.063 580.870, 819.993 577.646, 814.866 562.660 C 804.216 531.529, 791.407 503.364, 780.230 486.500 C 766.449 465.707, 744.222 447.796, 729.250 445.419 L 725 444.744 725 448.729 M 380.500 487.634 C 359.946 490.476, 344.656 496.844, 333.305 507.292 C 327.855 512.309, 324.465 512.195, 324.573 507 C 324.613 505.075, 324.988 502.740, 325.406 501.811 C 326.421 499.559, 319.497 497.628, 312.492 498.209 C 297.680 499.437, 282.714 516.464, 278.395 537 C 273.452 560.500, 285.774 574.906, 303.685 566.566 C 308.084 564.518, 313.369 558.685, 311.824 557.583 C 311.646 557.456, 309.985 556.305, 308.134 555.026 C 301.881 550.703, 297.679 537.171, 301.584 533.930 C 304.041 531.891, 306.135 533.905, 308.296 540.388 C 311.694 550.583, 319.951 551.385, 325.403 542.049 C 329.371 535.255, 326.789 524.140, 320.100 519.220 C 313.963 514.707, 317.914 509.930, 324.445 513.966 C 327.817 516.050, 332.459 520.903, 334.601 524.582 C 335.648 526.381, 336.136 526.270, 344.601 522.302 C 366.916 511.843, 387.356 509.548, 409 515.071 C 418.123 517.399, 428.178 521.566, 433.063 525.045 C 437.228 528.011, 439.471 527.184, 447.611 519.684 C 451.400 516.193, 455.355 512.868, 456.399 512.295 C 458.088 511.369, 457.866 511.113, 454.399 509.987 C 452.255 509.290, 445.201 506.074, 438.725 502.839 C 413.746 490.366, 395.397 485.574, 380.500 487.634 M 645 513.757 C 645 514.616, 646.784 523.036, 648.965 532.469 C 654.378 555.882, 656.282 571.111, 656.358 591.578 L 656.421 608.656 663.961 607.425 C 679.094 604.954, 678.500 606.176, 678.500 577.500 C 678.500 536.750, 670.898 519.990, 649.495 513.548 C 645.510 512.349, 645 512.373, 645 513.757 M 380.750 521.690 C 379.788 521.941, 379.014 522.901, 379.030 523.823 C 379.130 529.382, 382.782 552.182, 383.723 553.123 C 384.345 553.745, 388.374 554.850, 392.677 555.579 C 396.980 556.308, 401.400 557.143, 402.500 557.434 C 404.104 557.858, 406.633 555.400, 415.259 545.033 L 426.019 532.102 421.259 529.995 C 408.659 524.416, 387.177 520.012, 380.750 521.690 M 361.487 525.799 C 354.527 528.205, 348.192 532.121, 343.624 536.839 L 339.748 540.842 343.704 545.671 C 345.880 548.327, 350.719 554.479, 354.456 559.342 L 361.252 568.183 366.853 562.842 C 369.933 559.904, 372.599 557.440, 372.777 557.367 C 373.144 557.215, 370.204 529.701, 369.452 526.250 C 368.869 523.574, 368.054 523.528, 361.487 525.799 M 433 538.848 C 433 539.314, 427.825 545.409, 421.500 552.393 C 415.175 559.376, 410.004 565.857, 410.009 566.795 C 410.021 568.982, 415.851 579.196, 416.790 578.675 C 427.210 572.904, 446.112 561.629, 446.546 560.925 C 446.868 560.404, 445.820 558.666, 444.217 557.064 C 442.615 555.461, 439.803 550.516, 437.969 546.075 C 435.074 539.061, 433 536.045, 433 538.848 M 329.268 554.250 C 327.549 556.038, 323.641 560.650, 320.582 564.500 L 315.020 571.500 327.260 572.264 C 333.992 572.685, 341.912 572.910, 344.860 572.764 L 350.220 572.500 344.511 564.500 C 338.723 556.390, 334.131 551, 333.009 551 C 332.670 551, 330.986 552.462, 329.268 554.250 M 374.151 569.048 C 368.292 576.406, 367.677 575.813, 383.500 578.045 C 387.900 578.665, 394.605 579.817, 398.399 580.604 C 402.194 581.391, 405.443 581.890, 405.620 581.713 C 405.798 581.536, 403.675 578.040, 400.903 573.945 C 395.918 566.581, 395.807 566.493, 390.682 565.876 C 387.832 565.532, 383.880 564.932, 381.901 564.543 C 378.457 563.865, 378.123 564.059, 374.151 569.048 M 439.489 577.106 C 422.866 586.277, 422.923 586.138, 434.431 589.404 C 439.692 590.896, 447.226 593.216, 451.173 594.559 C 460.198 597.629, 459.491 597.726, 462.636 592.974 L 465.300 588.948 459.654 583.436 C 456.549 580.404, 453.215 576.376, 452.244 574.484 L 450.479 571.044 439.489 577.106 M 471.282 598.432 L 469.063 601.875 474.782 604.741 C 477.927 606.317, 483.538 609.308, 487.250 611.389 L 494 615.172 494 608.151 C 494 604.290, 494.437 599.981, 494.971 598.576 L 495.942 596.022 487.721 596.216 C 483.199 596.323, 478.150 596.090, 476.500 595.699 C 473.835 595.068, 473.252 595.373, 471.282 598.432 M 659.500 652.644 C 639.004 656.518, 633.369 660.689, 634.296 671.297 C 635.077 680.236, 642.495 684.781, 654.500 683.675 C 662.840 682.906, 681.203 678.447, 685.903 676.049 C 694.390 671.720, 696.852 662.542, 691.297 655.941 C 685.739 649.336, 680.095 648.751, 659.500 652.644 M 659.694 660.526 C 643.154 664.131, 638.759 667.850, 644.388 673.479 C 647.826 676.917, 653.270 676.801, 669.019 672.955 C 683.566 669.403, 686 668.124, 686 664.034 C 686 657.507, 678.276 656.477, 659.694 660.526 M 133.204 684.128 C 113.948 693.660, 105.433 747.994, 121.734 757.316 C 134.699 764.730, 153.350 733.974, 153.460 705 C 153.534 685.633, 145.950 677.819, 133.204 684.128 M 821.227 692.447 C 790.414 699.909, 765.810 736.129, 753.942 791.500 C 751.278 803.928, 747.858 811.075, 742.185 816.068 C 738.027 819.728, 728.942 823.982, 725.212 824.015 C 721.375 824.050, 720.666 825.520, 721.286 832.162 C 722.725 847.569, 732.623 867.301, 743.778 876.996 C 765.264 895.673, 808.592 900.653, 836.301 887.630 C 887.622 863.511, 910.751 783.805, 882.768 727.500 C 869.853 701.513, 844.178 686.889, 821.227 692.447 M 347.176 707.023 C 323.649 711.909, 304.091 739.155, 304.017 767.145 C 303.945 794.854, 329.317 811.275, 353.352 799.075 C 383.743 783.649, 396.633 733.163, 375.137 713.743 C 368.965 708.166, 356.312 705.125, 347.176 707.023 M 343.005 716.668 C 317.229 725.686, 301.765 768.163, 317.474 786.794 C 326.881 797.950, 344.955 797.022, 358.612 784.682 C 377.105 767.972, 383.812 736.106, 371.732 722.347 C 365.537 715.292, 353.654 712.942, 343.005 716.668 M 491.730 737.985 C 456.578 751.050, 434.033 789.291, 423.922 853 C 421.277 869.671, 419.155 875.499, 413.405 881.894 C 409.251 886.515, 398.702 893, 395.340 893 C 393.624 893, 393.328 891.975, 398.451 903.777 C 408.899 927.846, 426.431 945.130, 446.500 951.146 C 496.810 966.225, 541.544 946.920, 567.332 899 C 597.523 842.896, 582.093 763.520, 536.646 741.146 C 522.319 734.093, 505.404 732.903, 491.730 737.985 M 824.332 743.912 C 813.382 746.684, 804.096 757.420, 799.173 773 C 786.340 813.612, 804.900 848.729, 833.493 837.937 C 861.039 827.539, 870.664 775.558, 849.401 752.023 C 843.375 745.352, 832.518 741.839, 824.332 743.912 M 820.895 755.851 C 801.715 768.015, 797.905 817.435, 815.329 828.059 C 827.054 835.208, 842.414 824.832, 849.182 805.190 C 852.439 795.737, 852.447 778.115, 849.197 769.921 C 843.213 754.833, 831.602 749.061, 820.895 755.851 M 170.301 773.658 C 169.026 776.981, 174.088 779.504, 189.606 783.283 C 225.701 792.072, 268.481 796.470, 271.396 791.691 C 273.187 788.756, 269.976 787.333, 258.705 786.069 C 222.545 782.014, 202.894 778.869, 186.161 774.461 C 175.111 771.549, 171.186 771.350, 170.301 773.658 M 94.606 785.095 C 83.662 793.704, 86.787 823.677, 99.915 836.010 C 128.350 862.723, 263.119 890.257, 352.500 887.615 C 391.025 886.476, 398.530 883.791, 404.062 869.167 C 406.803 861.922, 406.256 852.423, 402.643 844.531 C 398.521 835.528, 398.770 835.581, 362.500 835.878 C 320.982 836.218, 285.245 833.337, 233 825.437 C 177.086 816.982, 114.813 798.432, 100.678 786.022 L 97.252 783.014 94.606 785.095 M 500 794.660 C 482.258 800.828, 470.876 822.265, 470.617 850 C 470.327 880.981, 483.157 898.216, 505.446 896.785 C 532.311 895.061, 550.897 857.288, 541.999 822.496 C 536.193 799.793, 518.660 788.173, 500 794.660 M 500.140 804.618 C 487.267 811.032, 479.676 828.407, 479.655 851.500 C 479.639 869.734, 484.268 880.463, 494.309 885.467 C 512.877 894.719, 532.997 874.554, 534.686 845 C 536.420 814.657, 519.555 794.943, 500.140 804.618 M 691.500 829.595 C 661.699 834.269, 604.177 842, 599.204 842 C 593.046 842, 593.289 841.641, 592.036 852.614 C 588.282 885.484, 566.364 926.403, 543.500 943.225 L 539.500 946.168 543 945.567 C 544.925 945.236, 559.775 942.523, 576 939.538 C 592.225 936.553, 623.275 930.935, 645 927.054 C 666.725 923.174, 706.199 916.049, 732.720 911.222 L 780.939 902.445 774.608 901.244 C 767.064 899.813, 754.192 894.463, 746.591 889.601 C 729.164 878.453, 719.347 862.334, 711.056 831.250 C 710.256 828.249, 709.420 827.036, 708.211 827.121 C 707.270 827.188, 699.750 828.301, 691.500 829.595 M 151.822 877.645 C 156.735 887.417, 162.689 894.157, 172.198 900.711 C 188.399 911.878, 203.430 917.108, 214.536 915.442 L 219.238 914.737 216.174 912.339 C 211.648 908.797, 198.822 893.180, 195.108 886.689 C 193.331 883.583, 191.539 880.833, 191.125 880.577 C 190.333 880.088, 171.417 875.298, 159.500 872.569 C 155.650 871.688, 151.451 870.687, 150.170 870.346 C 147.932 869.750, 147.999 870.041, 151.822 877.645 M 203 883.845 C 203 885.863, 211.407 897.435, 216.231 902.058 C 222.611 908.172, 233.368 913.690, 241.500 915.020 C 252.146 916.762, 270.856 912.110, 280 905.448 C 284.817 901.938, 290.864 896, 289.622 896 C 283.641 896, 234.107 888.750, 214.199 884.961 C 202.251 882.686, 203 882.761, 203 883.845" stroke="none" fill="#1a1a1a" fill-rule="evenodd"/>
</svg>