<svg xmlns="http://www.w3.org/2000/svg" width="1024" height="1024" viewBox="0 0 1024 1024" version="1.1">
	<path d="M 309.500 9.735 C 276.002 34.226, 271.037 97.418, 299.304 139.500 C 306.355 149.997, 326.286 167.595, 334.059 170.186 C 334.655 170.385, 334.804 171.348, 334.400 172.400 C 333.760 174.067, 332.829 174.209, 325.512 173.752 C 317.245 173.237, 316.464 173.005, 283 161.140 C 257.163 151.979, 236.811 151.923, 210.085 160.938 C 197.491 165.185, 151.588 185.314, 147.658 188.312 C 134.493 198.353, 141.496 219.657, 165.648 243.038 C 209.514 285.505, 270.142 290.916, 316.850 256.531 L 323 252.004 322.997 263.252 C 322.989 287.986, 321.640 295.525, 311.157 329.439 C 306.698 343.863, 305.656 351.921, 306.272 367.215 C 307.967 409.307, 335.224 441.248, 382.158 456.144 C 391.428 459.086, 391.841 459.341, 392.428 462.471 C 393.325 467.251, 392.599 468.474, 382.015 480 C 374.369 488.326, 367.325 496.818, 366.481 498.726 C 366.426 498.851, 363.933 498.011, 360.940 496.859 C 349.420 492.427, 332.250 493.320, 318.732 499.055 C 288.156 512.026, 252.446 556.197, 239.143 597.500 C 225.868 638.717, 236.601 677.666, 265.177 691.969 L 273.142 695.955 211.675 696.228 C 151.833 696.493, 150.149 696.553, 147.941 698.500 C 145.356 700.780, 139.562 709.523, 93.310 780.924 L 60 832.347 60 855.639 L 60 878.930 63.082 882.441 C 67.186 887.115, 70.946 887.988, 87 887.994 L 100.500 888 100.235 949.654 C 99.992 1006.076, 100.111 1011.466, 101.640 1013.154 C 103.848 1015.594, 105.548 1015.484, 107.443 1012.777 C 108.811 1010.825, 109 1003.124, 109 949.321 L 109 888.087 127.086 887.794 C 137.033 887.632, 145.358 887.687, 145.586 887.917 C 145.814 888.146, 146 916.126, 146 950.095 C 146 1004.909, 146.177 1012.034, 147.571 1013.429 C 149.431 1015.288, 149.564 1015.304, 152.066 1013.965 C 153.946 1012.958, 154 1011.198, 154 950.465 L 154 888 510.971 888 L 867.941 888 868.221 949.847 C 868.515 1015.018, 868.514 1015, 872.922 1015 C 877.001 1015, 877 1015.008, 877 950.300 L 877 888 896 888 L 915 888 915 950.300 C 915 1014.928, 915.004 1015, 919.045 1015 C 924.036 1015, 923.966 1015.883, 924.242 949.707 L 924.500 888.054 939.814 887.600 C 963.906 886.885, 964.169 886.538, 963.776 856 L 963.500 834.500 938.856 795 C 925.302 773.275, 906.601 743.154, 897.299 728.065 C 887.996 712.976, 879.141 699.701, 877.620 698.565 C 874.929 696.555, 873.575 696.493, 826.928 696.222 C 800.567 696.069, 779 695.787, 779 695.594 C 779 695.402, 779.682 693.612, 780.516 691.617 C 785.147 680.531, 786.492 660.857, 783.634 646 C 775.740 604.970, 728.327 540.230, 675.496 498.346 L 671.517 495.191 676.061 495.703 C 681.737 496.343, 693.542 494.593, 701.743 491.895 C 718.455 486.398, 735.917 469.143, 743.823 450.315 C 747.622 441.266, 746.290 439.571, 734.653 438.638 C 729.813 438.250, 723.491 436.825, 718.153 434.918 C 696.856 427.310, 683.903 426.900, 668.658 433.349 C 664.903 434.938, 664.983 434.797, 672.158 427.135 C 696.488 401.153, 703.980 367.459, 695.646 321.500 C 691.576 299.054, 686.884 252.783, 688.512 251.154 C 688.703 250.963, 690.804 252.129, 693.180 253.745 C 732.604 280.554, 777.215 284.027, 818.061 263.468 C 854.345 245.205, 887.493 203.174, 881.038 183.616 C 878.528 176.009, 871.383 171.589, 840 158.224 C 794.323 138.773, 772.300 139.023, 724.500 159.535 C 715.150 163.547, 704.638 167.790, 701.139 168.963 C 695.163 170.967, 682 172.902, 682 171.776 C 682 171.494, 685.004 169.517, 688.677 167.382 C 714.277 152.497, 732.777 120.958, 736.027 86.657 C 739.497 50.038, 723.682 13.722, 701.705 7.844 C 692.530 5.390, 689.614 10.151, 688.086 30.080 C 687.520 37.461, 686.403 45.982, 685.603 49.015 C 678.280 76.777, 659.747 98.027, 633.601 108.640 L 625.701 111.846 617.090 107.438 C 612.353 105.013, 605.377 101.984, 601.587 100.705 L 594.696 98.381 594.598 91.940 C 594.366 76.697, 578.934 71.258, 561.074 80.123 L 554.259 83.506 552.580 78.052 C 547.071 60.162, 528.946 43.982, 515.826 45.243 C 506.397 46.149, 504.054 52.145, 507.520 66.500 C 508.317 69.800, 508.976 72.819, 508.984 73.210 C 508.993 73.600, 505.962 72.398, 502.250 70.540 C 474.156 56.475, 444.307 57.916, 426.479 74.197 C 420.976 79.222, 415.599 88.180, 414.487 94.174 C 413.848 97.622, 413.490 97.921, 408.653 99.057 C 405.819 99.722, 400.800 101.475, 397.500 102.953 C 390.422 106.121, 387.063 105.647, 374.716 99.734 C 347.875 86.881, 334.235 64.613, 332.076 30.125 C 330.931 11.824, 328.988 8.597, 318.376 7.373 C 314.087 6.878, 313.018 7.163, 309.500 9.735 M 312.306 19.275 C 303.416 26.110, 296.743 37.877, 292.785 53.699 C 289.464 66.973, 289.679 90.697, 293.243 104.070 C 299.318 126.865, 314.505 147.704, 332.579 158.045 C 339.061 161.754, 338.250 161.994, 342.046 155.250 C 348.913 143.052, 367.822 121.749, 377.287 115.548 C 380.994 113.119, 380.787 112.694, 374.658 110.154 C 366.719 106.863, 355.325 99.026, 348.174 91.937 C 332.309 76.209, 324.586 57.822, 323.146 32.345 C 322.160 14.897, 320.540 12.944, 312.306 19.275 M 698 21.539 C 698 63.081, 676.673 98.430, 641.336 115.459 L 635.195 118.419 644.347 128.062 C 654.217 138.461, 663.196 150.335, 667.583 158.793 C 670.714 164.829, 671.765 164.962, 681.500 160.554 C 718.179 143.948, 738.111 83.902, 720.794 42.182 C 716.540 31.932, 710.765 23.695, 705.293 20.071 C 698.936 15.860, 698 16.048, 698 21.539 M 515.001 55.750 C 515.002 56.712, 515.665 61.263, 516.474 65.862 C 518.126 75.246, 518.650 85.140, 517.586 86.860 C 516.267 88.994, 512.597 88.007, 506.842 83.970 C 488.261 70.936, 462.078 66.283, 444.753 72.935 C 431.585 77.991, 419.386 94.848, 424.250 101.267 C 425.386 102.766, 426.232 102.552, 433.500 98.931 C 445.940 92.733, 458 92.275, 458 98 C 458 100.732, 455.730 101.995, 448.850 103.088 C 440.422 104.427, 434.526 107.390, 428.693 113.216 C 416.005 125.892, 413.252 147.493, 422.859 159 L 425.685 162.385 434.178 150.907 C 446.890 133.726, 458.731 125.356, 463.016 130.520 C 464.055 131.771, 463.738 133.228, 461.221 138.770 C 452.712 157.507, 452.056 171.518, 459.111 183.870 C 463.173 190.983, 474 197.978, 474 193.489 C 474 186.804, 484.003 175.022, 499.500 163.455 C 505.550 158.939, 513.186 152.489, 516.469 149.122 C 523.039 142.383, 526.516 141.222, 527.568 145.415 C 528.530 149.248, 525.331 154.532, 517.254 162.454 C 508.745 170.799, 508.311 172.759, 514.514 174.832 C 522.105 177.369, 536.927 173.186, 546.107 165.915 C 551.648 161.526, 556.056 154.733, 559.030 146 C 561.101 139.917, 562.011 138.438, 563.847 138.173 C 568.088 137.561, 569.302 139.752, 568.587 146.730 C 567.757 154.828, 568.977 157.455, 573.176 156.615 C 581.886 154.873, 587.545 145.316, 586.782 133.639 C 586.196 124.662, 583.585 119.381, 576.303 112.439 C 569.534 105.987, 569.660 104.510, 577.319 100.521 C 584.876 96.584, 587.957 92.110, 585.594 88.503 C 581.424 82.139, 567.488 84.576, 556.332 93.621 C 549.564 99.107, 547.880 98.178, 546.142 88 C 544.488 78.309, 539.120 68.252, 532.166 61.814 C 524.852 55.042, 514.998 51.561, 515.001 55.750 M 584.641 106.693 C 584.313 107.020, 585.328 108.748, 586.895 110.533 C 595.874 120.759, 598.668 139.518, 592.849 150.500 C 585.980 163.462, 571.290 170.097, 564.023 163.520 C 562.304 161.965, 561.926 162.167, 557.350 167.094 C 539.390 186.434, 507.338 190.791, 501.646 174.666 C 501.088 173.085, 500.096 173.625, 494.439 178.591 C 487.090 185.043, 483.966 189.816, 481.578 198.237 C 479.621 205.140, 477.635 206.036, 469.945 203.482 C 461.790 200.773, 455.151 194.688, 450.576 185.728 C 446.879 178.490, 446.626 177.417, 446.209 167.272 C 445.954 161.089, 446.230 154.820, 446.856 152.556 C 447.455 150.387, 447.782 148.449, 447.582 148.249 C 447.382 148.049, 443.507 153.104, 438.970 159.482 C 429.640 172.598, 428.734 173.348, 424.408 171.530 C 407.206 164.296, 402.848 135.470, 415.903 115.271 C 421.033 107.334, 420.050 106.118, 410.903 109.084 C 382.332 118.346, 355.972 142.978, 344.525 171.109 C 335.735 192.711, 333.166 209.704, 331.990 254 C 330.934 293.774, 330.164 299.548, 322.992 321.451 C 316.397 341.590, 314.997 348.850, 315.015 362.815 C 315.045 387.094, 323.804 407.362, 341.253 423.536 C 353.973 435.326, 359.953 438.784, 380.295 446.111 C 392.639 450.558, 393 450.619, 393.001 448.250 C 393.002 445.155, 398.544 434.693, 403.827 427.811 C 408.533 421.681, 408.794 421.069, 406.952 420.485 C 403.958 419.534, 391.840 407.163, 388.809 401.962 C 375.737 379.532, 380.891 350.047, 401.477 329.487 C 413.561 317.419, 427.768 310.140, 448 305.652 C 461.673 302.619, 494.090 302.627, 508.013 305.667 C 535.617 311.693, 556.404 325.903, 566.028 345.324 C 571.236 355.834, 572.289 366.012, 568.438 368.606 C 565.249 370.753, 563.191 368.509, 561.920 361.500 C 558.039 340.095, 538.973 322.973, 510.500 315.323 C 496.372 311.527, 461.696 311.217, 447.693 314.761 C 408.820 324.599, 386.693 350.600, 391.046 381.326 C 392.726 393.184, 400.949 406.097, 410.630 412.081 L 414.142 414.251 419.667 408.637 C 427.624 400.552, 430.854 399.797, 439.667 403.964 C 472.306 419.398, 515.281 418.456, 541.399 401.736 C 546.275 398.615, 546.286 398.595, 543.695 397.732 C 540.597 396.699, 539.322 393.522, 541.131 391.342 C 542.189 390.067, 544.089 389.867, 551.464 390.251 C 563.214 390.863, 568.396 392.607, 568.801 396.086 C 569.293 400.325, 566.804 401.584, 560.913 400.074 L 555.948 398.802 552.224 402.825 C 550.176 405.037, 546.086 408.457, 543.136 410.425 C 540.186 412.392, 535.630 416.832, 533.011 420.292 C 515.621 443.263, 493.314 452.711, 472.075 446.100 L 465.971 444.201 461.838 451.350 C 459.565 455.283, 456.606 460.408, 455.263 462.741 L 452.821 466.981 455.660 468.065 C 473.564 474.896, 515.642 476.830, 545.500 472.192 C 601.819 463.446, 648.529 442.167, 669.653 415.636 C 689.668 390.498, 693.499 366.456, 685.610 315.500 C 682.891 297.934, 681.374 283.324, 679.951 261 C 678.882 244.225, 677.720 227.061, 677.368 222.858 C 676.586 213.521, 677.765 212.267, 685.663 214.037 C 703.302 217.990, 720.350 213.750, 743.924 199.546 C 767.210 185.515, 776.382 182.707, 799 182.678 C 821.517 182.650, 833.924 185.826, 834.819 191.849 C 835.246 194.717, 830.779 196.558, 827.066 195.044 C 823.331 193.521, 805.479 191.010, 798.500 191.026 C 781.910 191.064, 768.584 195.104, 751.124 205.389 C 725.514 220.475, 714.663 224.189, 697.014 223.909 L 686.528 223.743 686.791 227.621 C 687.512 238.253, 687.783 238.804, 694.847 243.995 C 743.479 279.734, 807.184 273.210, 850.305 228.077 C 862.909 214.884, 873 198.016, 873 190.140 C 873 182.970, 868.589 180.192, 833.234 165.091 C 793.915 148.298, 771.425 148.904, 727.510 167.943 C 717.587 172.244, 705.876 176.799, 701.484 178.065 C 685.130 182.778, 666.774 180.457, 663.869 173.309 C 655.071 151.660, 642.969 136.356, 623.873 122.729 C 611.362 113.801, 587.348 103.985, 584.641 106.693 M 236.684 164.067 C 220.831 166.250, 159.528 189.622, 152.302 196.238 C 145.316 202.635, 152.756 217.868, 171.844 236.249 C 213.398 276.266, 267.261 280.779, 313.434 248.113 C 317.797 245.026, 321.703 242.268, 322.112 241.985 C 322.522 241.702, 323.168 237.652, 323.547 232.985 L 324.237 224.500 311.812 224.827 C 295.688 225.252, 290.907 224.016, 270 214.013 C 260.925 209.672, 250.770 205.427, 247.432 204.580 C 233.498 201.043, 216.510 201.576, 198.622 206.111 C 186.316 209.231, 182.010 207.531, 187.199 201.601 C 191.373 196.830, 206.199 193.792, 226 193.648 C 246.207 193.502, 249.916 194.389, 269.602 204.078 C 293.040 215.614, 306.128 218.776, 319.198 216.063 L 324.895 214.880 325.540 210.190 C 326.353 204.271, 329.831 186.605, 330.554 184.721 C 330.983 183.602, 329.459 183.177, 323.299 182.700 C 314.309 182.003, 306.398 179.728, 289.353 172.936 C 268.324 164.556, 252.494 161.891, 236.684 164.067 M 379.500 206.217 C 374.918 207.834, 367.347 213.703, 365.053 217.414 C 359.617 226.210, 366.616 230.712, 372.322 222.089 C 375.905 216.675, 382.622 213.558, 389.061 214.321 C 396.417 215.192, 399.477 210.392, 394.208 206.250 C 392.305 204.755, 383.697 204.735, 379.500 206.217 M 591.223 206.557 C 588.803 208.251, 588.237 212.399, 590.250 213.673 C 590.938 214.109, 594.906 214.473, 599.069 214.482 C 608.184 214.504, 613.351 217.278, 617.159 224.194 C 621.938 232.874, 628.322 228.429, 623.975 219.448 C 618.918 209.003, 598.951 201.143, 591.223 206.557 M 384.020 274.752 C 372.655 280.462, 370.040 304.397, 379.622 315.004 C 390.393 326.926, 404.993 314.313, 403.787 294.127 C 402.839 278.254, 394.099 269.688, 384.020 274.752 M 583.916 278.278 C 574.985 284.297, 571.181 304.759, 576.852 316.277 C 581.652 326.023, 592.553 326.737, 599.359 317.751 C 607.933 306.428, 606.414 282.368, 596.810 277.402 C 592.828 275.342, 587.761 275.686, 583.916 278.278 M 414.707 350.016 C 408.846 354.626, 409.093 362.858, 415.269 368.702 C 421.605 374.699, 426.061 375.502, 430.811 371.506 C 441.782 362.274, 425.962 341.163, 414.707 350.016 M 518.500 352.890 C 503.996 359.584, 505.783 377.009, 520.973 376.996 C 529.686 376.989, 535.989 370.560, 535.996 361.673 C 536.003 352.353, 528.177 348.424, 518.500 352.890 M 417.200 357.200 C 414.125 360.275, 417.534 365, 422.829 365 C 426.984 365, 427.282 361.153, 423.365 358.073 C 420.351 355.702, 418.903 355.497, 417.200 357.200 M 520.869 361.510 C 517.486 363.348, 516.676 365.534, 518.648 367.505 C 521.458 370.315, 528 366.387, 528 361.889 C 528 359.590, 524.723 359.415, 520.869 361.510 M 426.875 413.750 C 416.592 424.485, 405.464 439.144, 402.013 446.500 C 401.095 448.457, 400.567 453.360, 400.495 460.601 C 400.367 473.320, 401.361 471.318, 387.500 486.785 C 374.268 501.552, 374.224 501.657, 379.407 506.154 L 383.620 509.809 396.560 493.654 L 409.500 477.500 417.594 476.898 C 434.167 475.664, 441.683 469.015, 457.016 442.024 L 468.079 422.548 462.870 420.777 C 460.005 419.803, 457.569 419.117, 457.457 419.253 C 457.346 419.389, 456.455 421.075, 455.479 423 C 451.193 431.448, 438.499 450.251, 436.593 450.975 C 434.080 451.929, 432 450.504, 432 447.828 C 432 445.337, 434.172 441.173, 439.993 432.500 C 442.577 428.650, 445.901 423.572, 447.379 421.216 L 450.068 416.932 446.784 415.548 C 443.861 414.316, 443.398 414.348, 442.574 415.832 C 442.065 416.749, 439.321 420.425, 436.476 424 C 433.631 427.575, 429.419 433.313, 427.115 436.750 C 422.751 443.261, 419.676 444.725, 417.040 441.548 C 415.167 439.292, 416.469 436.812, 426.593 423.350 C 431.773 416.463, 435.757 410.416, 435.447 409.914 C 434.199 407.895, 431.196 409.239, 426.875 413.750 M 516.500 420.228 C 508.245 422.357, 490.620 423.966, 482.798 423.305 L 477.273 422.838 473.578 429.560 C 469.347 437.256, 469.432 437.461, 477.434 438.919 C 490.011 441.210, 498.461 439.483, 509 432.467 C 515.126 428.389, 524.893 419.408, 523.938 418.732 C 523.697 418.562, 520.350 419.235, 516.500 420.228 M 679.361 438.899 C 671.880 441.041, 663.926 444.861, 658.265 449.031 L 654.030 452.151 656.515 455.807 C 657.882 457.819, 659 460.220, 659 461.145 C 659 462.612, 659.950 462.459, 666.477 459.946 C 676.476 456.096, 685.522 453.822, 689.358 454.195 C 692.086 454.460, 692.500 454.881, 692.500 457.391 C 692.500 460.904, 691.958 461.213, 680 464.502 C 665.216 468.569, 660.055 471.310, 656.335 477.071 L 653.169 481.973 658.335 483.527 C 682.783 490.883, 708.273 484.277, 723.288 466.694 C 727.712 461.514, 736 449.318, 736 447.990 C 736 447.604, 733.149 447.023, 729.665 446.698 C 726.181 446.372, 719.093 444.527, 713.915 442.597 C 697.568 436.505, 690.405 435.739, 679.361 438.899 M 633.318 456.226 L 629.137 458.328 631.931 463.914 C 633.468 466.986, 635.302 471.300, 636.007 473.500 C 636.713 475.700, 637.704 477.770, 638.210 478.099 C 642.030 480.587, 650.002 473.225, 649.996 467.215 C 649.992 462.591, 647.029 457.584, 643.094 455.549 C 639.311 453.592, 638.438 453.653, 633.318 456.226 M 615.496 464.176 L 612.492 465.148 612.845 472.932 C 613.621 490.005, 608.277 512.739, 598.644 533.355 C 594.104 543.070, 592.091 545.172, 589.114 543.307 C 586.317 541.555, 586.761 538.432, 591.003 529.993 C 596.680 518.703, 601.738 503.066, 603.505 491.341 C 604.965 481.655, 605.521 468, 604.456 468 C 604.156 468, 601.048 468.719, 597.548 469.598 C 591.416 471.139, 591.161 471.329, 590.515 474.848 C 588.665 484.921, 578.004 500.068, 566.876 508.434 C 531.471 535.052, 476.431 534.243, 448.573 506.695 C 441.535 499.736, 435 489.050, 435 484.500 C 435 483.371, 434.477 482.987, 433.467 483.374 C 432.624 483.698, 429.058 484.492, 425.544 485.140 L 419.153 486.317 418.443 494.841 C 415.879 525.623, 427.292 554.366, 449 571.799 C 460.737 581.224, 461.208 581.743, 460.020 583.963 C 455.285 592.810, 429.532 569.107, 418.439 545.691 C 412.254 532.637, 410.667 524.619, 410.579 505.976 L 410.500 489.452 400.122 502.976 C 394.414 510.414, 389.349 516.999, 388.867 517.609 C 388.344 518.270, 388.637 520.491, 389.593 523.109 C 393.406 533.550, 391.153 544.780, 383.094 555.500 L 380.087 559.500 381.529 567.650 C 387.248 599.972, 410.968 631.969, 440 646.526 C 481.839 667.505, 539.358 663.083, 575.174 636.135 C 583.802 629.643, 583.833 629.542, 579.504 622.275 C 570.072 606.441, 565.560 590.698, 565.526 573.500 C 565.489 555.100, 568.931 547, 576.785 547 C 583.522 547, 587.206 550.823, 601.771 572.930 C 617.244 596.414, 615.402 595.831, 621.975 579.328 C 636.634 542.527, 637.673 498.805, 624.564 470.432 C 621.038 462.800, 620.627 462.516, 615.496 464.176 M 569.006 477.100 C 533.487 486.023, 491.530 486.384, 458.534 478.050 C 447.639 475.299, 446.626 475.199, 444.399 476.658 C 441.202 478.753, 441.360 480.452, 445.528 488.784 C 451.794 501.309, 465.063 511.135, 482.545 516.197 C 493.769 519.447, 519.432 519.422, 531.500 516.149 C 554.788 509.834, 574.405 494.760, 581.469 477.750 C 583.334 473.261, 584.126 473.302, 569.006 477.100 M 640.331 489.089 C 646.547 523.624, 639.521 569.781, 624.073 595.895 L 620.881 601.290 624.050 606.395 C 629.879 615.786, 655.133 651, 656.038 651 C 656.530 651, 658.538 650.234, 660.501 649.298 C 663.524 647.857, 663.989 647.206, 663.543 645.048 C 661.764 636.454, 652.835 584.548, 652.349 579.971 C 651.715 574.011, 653.112 571.490, 656.668 572.174 C 659.648 572.748, 660.665 576.545, 665.459 605 C 668.008 620.125, 670.635 634.838, 671.297 637.696 L 672.500 642.893 678.500 638.320 C 690.121 629.462, 714.592 619.991, 718.876 622.693 C 722.729 625.124, 720.851 628.394, 714.500 630.312 C 703.088 633.758, 697.095 636.214, 691.382 639.788 L 685.645 643.376 693.572 645.112 C 718.382 650.543, 735.321 664.942, 743.743 687.758 C 746.598 695.494, 747.869 710.228, 746.200 716.250 C 744.921 720.868, 744.910 720.868, 751.293 716.151 C 774.886 698.712, 782.639 669.316, 772.293 636.524 C 758.527 592.891, 695.632 518.398, 648.832 490.299 C 640.262 485.153, 639.606 485.060, 640.331 489.089 M 336.247 503.109 C 324.656 505.041, 311.747 511.234, 302 519.539 C 281.986 536.593, 279.393 569.733, 296.869 585.116 L 301.305 589.021 304.674 584.018 C 307.189 580.284, 307.882 578.378, 307.409 576.495 C 305.769 569.961, 311.435 569.407, 318.151 575.446 C 333.713 589.438, 351.409 586.262, 364.480 567.132 C 369.129 560.328, 369.195 560.122, 367.955 556.362 C 366.270 551.259, 357.380 542.625, 348 536.983 C 341.348 532.982, 340.500 532.134, 340.500 529.486 C 340.500 526.886, 340.896 526.461, 343.565 526.200 C 349.383 525.632, 369.225 540.485, 373.255 548.425 L 374.740 551.351 377.331 547.425 C 385.535 534.998, 384.837 524.623, 375.155 515.070 C 364.097 504.161, 352.089 500.469, 336.247 503.109 M 270 555.187 C 261.136 568.407, 251.484 587.248, 247.719 598.677 C 236.009 634.225, 243.085 666.945, 265.727 681.943 C 283.405 693.652, 315.787 690.383, 333.103 675.141 L 337.638 671.149 338.904 659.824 C 340.451 645.993, 343.962 626.463, 348.486 606.525 C 350.355 598.289, 351.798 591.466, 351.692 591.361 C 351.586 591.257, 349.146 591.702, 346.269 592.351 C 341.209 593.491, 340.888 593.774, 336.426 601.015 C 320.363 627.085, 307.080 634.610, 295.627 624.129 C 289.310 618.349, 289.057 612.766, 294.608 601.633 L 297.035 596.767 290.533 590.809 C 279.780 580.956, 274.855 567.144, 276.913 552.612 C 277.422 549.013, 278.127 545.603, 278.479 545.034 C 278.830 544.465, 278.754 544, 278.309 544 C 277.864 544.001, 274.125 549.035, 270 555.187 M 575.567 557.871 C 570.306 568.044, 574.190 592.493, 584.244 612.500 C 594.217 632.346, 613.056 654.306, 627.919 663.412 L 635.338 667.957 640.419 663.320 C 643.214 660.769, 646.107 658.131, 646.849 657.457 C 647.957 656.450, 645.669 652.634, 634.031 636.079 C 626.239 624.995, 611.518 603.230, 601.317 587.713 C 578.092 552.384, 578.287 552.610, 575.567 557.871 M 367.222 578.504 L 362.022 585.028 357.588 605.764 C 349.956 641.455, 346.767 661.881, 345.412 683.750 L 344.715 695 365.163 695 C 384.040 695, 386.643 694.775, 399.055 692.073 C 429.215 685.507, 452.890 683.089, 494.500 682.323 C 547.754 681.344, 595.529 687.045, 623.522 697.720 L 628.545 699.635 628.166 692.925 C 627.932 688.795, 628.365 684.241, 629.292 681.081 L 630.797 675.946 627.648 674.347 C 618.094 669.494, 600.170 653.026, 591.884 641.488 C 588.671 637.014, 588.633 636.996, 586.574 638.884 C 582.856 642.292, 568.745 651.030, 561.036 654.697 C 522.020 673.254, 472.290 673.247, 435.907 654.680 C 405.962 639.399, 384.389 612.875, 374.546 579.240 L 372.422 571.980 367.222 578.504 M 310.987 590.283 C 304.119 600.905, 298.707 612.502, 299.481 614.939 C 300.693 618.759, 306.308 620.701, 310.442 618.729 C 314.551 616.769, 331 595.952, 331 592.711 C 331 592.469, 328.993 591.505, 326.540 590.569 C 324.088 589.632, 320.489 587.785, 318.544 586.465 L 315.007 584.065 310.987 590.283 M 669.533 654.610 C 663.306 656.587, 647.927 667.033, 644.131 671.863 C 634.744 683.811, 634.981 698.716, 644.646 704.258 L 647.791 706.062 649.902 701.702 C 652.182 696.993, 667.845 681, 670.178 681 C 672.185 681, 674 683.057, 674 685.334 C 674 686.397, 670.871 690.562, 667.046 694.588 C 654.782 707.499, 651.718 715.318, 656.274 722.078 C 665.339 735.530, 686.661 735.402, 700.619 721.811 C 706.789 715.804, 710.459 715.380, 710.561 720.663 C 710.608 723.071, 711.958 725.268, 716.222 729.873 L 721.821 735.921 725.161 733.684 C 739.722 723.928, 742.115 697.163, 730.046 679.042 C 723.044 668.529, 712.202 659.743, 701.348 655.785 C 693.565 652.947, 676.731 652.325, 669.533 654.610 M 333.056 685.923 C 330.803 687.654, 320.655 692.621, 315.186 694.670 C 313.740 695.211, 317.113 695.395, 324.186 695.161 C 330.409 694.954, 335.555 694.721, 335.622 694.643 C 336.120 694.058, 336.576 684.005, 336.103 684.022 C 335.771 684.034, 334.400 684.890, 333.056 685.923 M 460.585 692.113 C 382.270 697.103, 320.414 722.185, 327.060 746.256 C 331.850 763.604, 366.733 781.041, 414.500 789.965 C 463.484 799.116, 528.144 799.114, 575 789.959 C 624.012 780.383, 660.340 761.001, 661.778 743.660 C 662.213 738.421, 662.144 738.252, 658.681 736.112 C 653.753 733.066, 649.123 727.528, 646.448 721.478 C 644.326 716.680, 643.704 716.135, 636.840 713.061 C 596.639 695.057, 533.030 687.497, 460.585 692.113 M 491.481 699.464 C 485.420 700.749, 473.495 702.284, 464.981 702.875 C 447.625 704.079, 436.158 706.595, 428.573 710.864 C 425.783 712.434, 418.370 714.943, 412.100 716.438 C 381.635 723.705, 368.648 730.750, 367.309 740.733 C 364.961 758.242, 396.762 773.478, 450.666 780.670 C 467.091 782.861, 523.916 783.195, 540 781.194 C 597.820 774.001, 632.736 753.263, 619.592 733.920 C 613.774 725.359, 578.599 713.455, 553 711.384 C 544.596 710.704, 544.440 710.642, 539.195 705.871 C 529.178 696.761, 513.899 694.709, 491.481 699.464 M 222.233 704.750 L 152.966 705.014 149.315 710.757 C 141.877 722.458, 75.559 824.703, 71.811 830.250 L 67.925 836 510.893 836 L 953.860 836 933.152 802.750 C 921.762 784.462, 903.485 754.987, 892.536 737.250 L 872.628 705 823.064 705.020 L 773.500 705.039 769 710.729 C 763.227 718.029, 754.342 725.175, 745.575 729.569 C 741.767 731.478, 736.251 735.310, 733.319 738.083 L 727.987 743.126 731.926 747.813 C 739.251 756.529, 743 763.828, 743 769.375 C 743 783.222, 731.317 791.448, 718.566 786.579 C 712.692 784.335, 702.388 773.423, 688.997 755.264 C 678.747 741.364, 678.412 741.029, 674.750 741.014 C 671.170 741.001, 671 741.150, 671 744.304 C 671 756.348, 653.412 772.508, 628.215 783.614 C 623.422 785.727, 616.350 789.837, 612.500 792.749 C 591.453 808.665, 560.320 817.261, 513.409 820.107 C 457.384 823.505, 401.610 812.194, 380.289 793.109 C 378.060 791.114, 373.618 788.746, 369.500 787.358 C 347.518 779.948, 326.886 765.920, 320.990 754.375 C 317.361 747.269, 317.452 737.283, 321.204 730.900 C 326.636 721.661, 341.469 710.764, 355.760 705.515 C 359.044 704.309, 355.352 704.162, 325.500 704.314 C 306.800 704.408, 260.330 704.605, 222.233 704.750 M 504.500 705.653 C 502.850 705.920, 497.450 707.014, 492.500 708.085 C 487.550 709.157, 476.750 710.502, 468.500 711.075 C 438.526 713.156, 421.533 719.915, 423.356 729.031 C 425.514 739.818, 435.133 743.733, 454.753 741.810 L 466.006 740.706 472.753 743.765 C 499.910 756.074, 547.268 743.142, 542.635 724.683 C 541.510 720.199, 532.821 710.136, 528.198 707.963 C 523.726 705.861, 510.938 704.614, 504.500 705.653 M 550.809 725.039 C 551.586 735.772, 545.282 744.157, 531.629 750.553 C 513.797 758.908, 486.171 759.357, 468.582 751.579 C 463.420 749.296, 462.440 749.173, 457.216 750.150 C 434.617 754.381, 415.617 744.889, 414.727 728.924 L 414.500 724.859 410.070 725.518 C 398.283 727.270, 378.240 735.814, 375.971 740.054 C 373.397 744.864, 379.452 751.611, 391.069 756.875 C 441.898 779.908, 549.660 780.530, 597.209 758.064 C 608.862 752.558, 615.606 744.820, 613.252 739.654 C 610.358 733.303, 580.145 723.117, 553.943 719.658 L 550.386 719.188 550.809 725.039 M 700.548 733.615 C 697.899 735.405, 694.330 737.426, 692.616 738.107 C 690.902 738.788, 689.347 739.458, 689.160 739.596 C 688.609 740.002, 696.882 751.911, 703.336 760 C 716.985 777.107, 722.960 781.502, 729.106 778.956 C 732.355 777.610, 735 773.477, 735 769.745 C 735 765.762, 725.142 752.087, 711.345 736.931 L 705.364 730.362 700.548 733.615 M 399.500 795.770 C 402.745 799.222, 432.511 807.033, 454.500 810.203 C 468.595 812.234, 523.131 811.876, 539 809.647 C 555.186 807.373, 570.243 803.945, 581.500 799.970 C 590.710 796.717, 595.818 794.298, 591 795.471 C 547.663 806.019, 487.385 808.571, 436 802.033 C 420.764 800.095, 401.945 796.638, 399.662 795.358 C 398.874 794.916, 398.822 795.049, 399.500 795.770 M 68.801 860.708 C 68.978 869.952, 69.543 876.949, 70.173 877.709 C 71.569 879.391, 949.925 879.645, 953.066 877.965 C 954.854 877.008, 955 875.725, 955 860.965 L 955 845 511.750 844.999 L 68.500 844.997 68.801 860.708" stroke="none" fill="#1a1a1a" fill-rule="evenodd"/>
</svg>