<svg xmlns="http://www.w3.org/2000/svg" width="1024" height="1024" viewBox="0 0 1024 1024" version="1.1">
	<path d="M 605.500 18.386 C 599.221 21.122, 599.064 22.264, 602.446 40.500 C 607.931 70.066, 598.293 96.507, 578.589 105.952 C 568.181 110.941, 565.544 110.896, 554.081 105.538 C 548.624 102.987, 542.549 100.639, 540.581 100.319 C 537.949 99.892, 536.466 98.872, 534.979 96.466 C 527.915 85.037, 514.943 79.851, 509.102 86.121 L 507.213 88.149 502.356 84.436 C 495.581 79.256, 489.452 76.798, 482.909 76.637 C 475.246 76.449, 473.741 77.838, 474.168 84.703 C 474.443 89.108, 474.241 89.925, 473 89.444 C 466.850 87.061, 457.457 85.852, 447.500 86.162 C 436.971 86.489, 436.136 86.681, 428 90.630 C 423.325 92.899, 417.618 96.395, 415.318 98.397 C 411.211 101.974, 405 112.617, 405 116.079 C 405 119.617, 392.218 114.371, 385.665 108.144 C 377.767 100.638, 374.362 90.602, 372.557 69.500 C 371.068 52.095, 370.301 49.025, 366.841 46.601 C 361.409 42.797, 352.777 46.009, 343.638 55.237 C 318.840 80.273, 318.006 129.385, 341.883 158.621 C 344.632 161.987, 349.548 166.746, 352.807 169.196 L 358.732 173.650 357.116 176.734 L 355.500 179.817 347 174.729 C 323.003 160.364, 304.424 156.274, 282.352 160.497 C 268.149 163.214, 264.375 164.742, 220.382 185.577 C 209.383 190.786, 208.055 198.160, 215.348 213.517 C 228.113 240.397, 254.618 261.530, 283.073 267.515 C 301.729 271.440, 330.409 267.274, 339.142 259.372 C 340.727 257.937, 340.895 258.176, 341.453 262.662 C 341.784 265.323, 343.223 273.799, 344.652 281.497 C 347.923 299.123, 347.574 308.426, 343.161 321.208 C 330.025 359.261, 338.376 389.562, 367.436 409.296 C 374.369 414.004, 380.504 416.503, 390.083 418.517 C 393.863 419.313, 404.278 423.056, 413.228 426.836 C 422.177 430.616, 431.869 434.488, 434.764 435.440 L 440.028 437.170 427.764 446.143 C 402.225 464.829, 383.657 473.165, 347.934 481.981 C 332.760 485.726, 332.217 485.788, 326.434 484.427 C 304.839 479.347, 273.530 487.994, 265.227 501.331 C 263.678 503.818, 260.553 506.759, 257.587 508.520 C 238.194 520.035, 241.608 548.462, 262.055 545.719 C 265.037 545.320, 266.276 545.647, 267.689 547.210 C 270.950 550.816, 276.972 553.207, 282.624 553.140 C 285.542 553.105, 288.201 553.516, 288.532 554.052 C 291.069 558.156, 301.547 560.368, 310 558.584 C 313.575 557.830, 316.528 557.277, 316.562 557.356 C 320.266 565.967, 340.348 583.333, 346.600 583.333 C 347.304 583.333, 348.163 585.004, 348.508 587.045 C 348.860 589.129, 350.194 591.677, 351.551 592.857 C 353.612 594.650, 353.818 595.349, 352.953 597.623 C 352.396 599.088, 347.682 617.435, 342.477 638.394 C 329.305 691.429, 329.449 690.995, 324.490 692.478 C 318.046 694.404, 312.298 697.748, 307.456 702.388 C 302.967 706.689, 302.851 706.731, 294.214 707.274 C 257.968 709.548, 217.663 734.506, 194.486 769.028 C 147.838 838.510, 162.670 933.863, 226.798 976.757 L 235.603 982.647 208.551 983.869 C 170.001 985.610, 161.510 986.779, 163.540 990.065 C 164.355 991.384, 198.823 990.851, 230.858 989.023 L 246.216 988.147 253.358 990.997 C 279.838 1001.565, 313.941 1002.751, 340 994.011 C 388.520 977.738, 424.604 933.803, 435.691 877.500 C 438.229 864.611, 438.227 831.909, 435.688 820 C 428.640 786.948, 410.952 755.817, 388.180 736.387 C 380.915 730.188, 380.567 729.689, 378.886 723.070 C 376.754 714.676, 373.996 709.109, 369.511 704.144 L 366.108 700.378 367.482 695.439 C 368.237 692.722, 370.277 684.310, 372.015 676.745 C 374.211 667.185, 375.529 663.199, 376.337 663.676 C 383.707 668.028, 418.394 692.253, 424.806 697.528 C 424.975 697.666, 426.395 703.342, 427.963 710.140 C 431.544 725.670, 434.873 734.523, 440.565 743.656 C 450.574 759.715, 451.299 766.110, 444.742 780.523 C 437.655 796.105, 436.234 808.776, 439.948 823.295 C 442.827 834.555, 444.041 836, 450.615 836 L 456 836 456 842.865 C 456 854.784, 459.900 857.013, 480.693 856.983 C 491.116 856.967, 495.596 856.379, 508.602 853.318 C 510.449 852.884, 510.782 853.392, 511.346 857.506 C 513.425 872.672, 527.331 888.275, 542.500 892.460 C 545.800 893.371, 551.200 894.985, 554.500 896.047 C 569.724 900.947, 579.428 900.288, 591.504 893.535 C 596.624 890.671, 598.934 889.984, 603.662 889.916 C 606.873 889.869, 612.053 889.512, 615.173 889.121 L 620.846 888.412 623.444 895.035 C 631.473 915.498, 650.629 940.562, 667.290 952.403 L 672.081 955.807 662.790 956.386 C 657.681 956.705, 638.220 957.645, 619.543 958.475 C 592.153 959.693, 585.297 960.275, 584.086 961.485 C 580.410 965.162, 583.208 965.322, 630.189 964.115 C 655.110 963.475, 677.191 962.732, 679.258 962.463 C 682.038 962.101, 684.379 962.665, 688.258 964.631 C 716.866 979.131, 756.961 978.644, 787.280 963.428 C 791.061 961.530, 794.505 960.194, 794.934 960.459 C 796.224 961.256, 864.532 961.407, 865.813 960.615 C 867.273 959.713, 867.374 956.349, 865.969 955.481 C 865.401 955.130, 850.704 954.895, 833.308 954.959 L 801.680 955.074 807.590 950.662 C 838.754 927.399, 858.620 888.766, 861.874 845.095 C 865.557 795.649, 844.174 747.702, 805.500 718.691 C 765.320 688.550, 707.725 691.957, 670.967 726.647 L 667.435 729.981 659.528 722.028 L 651.622 714.075 659.562 706.251 L 667.503 698.426 680.002 696.608 C 719.255 690.897, 722.004 689.814, 721.994 680.076 C 721.982 667.650, 718.923 662.561, 711.876 663.238 L 707.249 663.683 711.124 657.686 C 713.256 654.388, 715 651.398, 715 651.040 C 715 650.683, 720.323 650.581, 726.830 650.813 C 740.692 651.307, 755.511 649.296, 765.378 645.582 C 782.265 639.226, 800.098 623.140, 803.227 611.441 C 804.334 607.301, 804.421 607.236, 809.559 606.706 C 831.673 604.424, 848.602 580.293, 848.288 551.500 C 847.970 522.365, 833.095 500.076, 825 516.604 C 821.331 524.094, 820.841 524.500, 806.850 531.614 C 791.990 539.170, 786.159 544.299, 781.774 553.669 C 775.738 566.567, 775.824 581.957, 782.001 594.318 C 784.885 600.089, 784.924 600.358, 783.356 603.663 C 780.080 610.566, 769.397 617.403, 756.873 620.611 C 750.966 622.124, 728.064 622.399, 726.639 620.973 C 726.350 620.683, 726.595 618.433, 727.185 615.973 C 728.890 608.867, 728.491 576.973, 726.568 566.715 C 722.274 543.794, 710.384 519.778, 689.130 491.087 C 674.794 471.736, 672.287 467.683, 661.420 446.286 C 647.683 419.237, 637.704 406.315, 623.740 397.493 C 618.064 393.906, 618.098 394.122, 622.693 391 C 637.594 380.876, 654.206 358.246, 660.500 339.500 C 667.950 317.309, 665.894 284.028, 655.150 252.914 L 653.221 247.328 659.644 249.660 C 673.038 254.521, 679.469 255.504, 697.500 255.441 C 713.030 255.386, 715.260 255.148, 723.288 252.684 C 754.583 243.079, 780.973 218.914, 796.506 185.640 C 810.857 154.900, 807.977 139.965, 787.293 137.869 C 776.363 136.761, 769.401 135.104, 749.702 128.922 C 716.271 118.430, 697.986 118.223, 677.288 128.101 C 671.419 130.902, 652.172 143.399, 644.774 149.212 C 642.148 151.276, 641.977 151.289, 640.071 149.564 C 638.117 147.796, 638.155 147.696, 643.046 141.652 C 663.896 115.883, 666.426 78.358, 649.325 48.500 C 635.868 25.005, 618.188 12.856, 605.500 18.386 M 607.024 26.134 C 607.038 26.885, 607.462 29.300, 607.967 31.500 C 611.249 45.791, 611.070 68.292, 607.580 80.042 C 602.143 98.351, 586.803 113.741, 572.013 115.725 L 567.791 116.291 568.439 120.344 C 570.299 131.978, 579.585 144.019, 590.775 149.306 C 596.995 152.245, 598.289 152.485, 608 152.492 C 618.325 152.500, 618.583 152.443, 623.500 149.071 C 648.492 131.932, 659.674 100.075, 651.079 70.500 C 646.338 54.191, 634.608 35.955, 624.293 28.858 C 618.917 25.159, 606.973 23.274, 607.024 26.134 M 353.594 55.146 C 337.233 65.983, 327.394 97.090, 332.443 122.018 C 335.299 136.116, 341.223 147.806, 350.701 158.043 C 356.658 164.478, 362.123 168.131, 362.791 166.126 C 365.541 157.878, 390.565 131.877, 401 126.427 L 404.500 124.598 399.801 123.889 C 379.460 120.820, 367.686 101.446, 365.076 66.749 C 364.548 59.736, 363.839 53.548, 363.499 52.999 C 362.343 51.129, 358.353 51.993, 353.594 55.146 M 480 85.018 C 480 86.339, 481.914 89.339, 484.566 92.174 C 489.343 97.281, 490.025 100.340, 486.832 102.341 C 485.535 103.154, 483.089 102.348, 475.832 98.715 C 463.725 92.654, 455.349 91.107, 443.750 92.789 C 428.199 95.045, 414.972 104.621, 411.566 116.090 C 408.819 125.341, 410.668 125.921, 422.448 119.500 C 436.541 111.818, 441.224 113.799, 432.079 123.574 C 415.819 140.957, 415.998 160.640, 432.580 178.500 L 436.294 182.500 437.804 178 C 439.603 172.641, 442.283 168.251, 447.865 161.521 C 450.137 158.783, 452.261 155.123, 452.587 153.389 C 453.496 148.543, 456.655 144, 459.117 144 C 461.083 144, 461.206 144.357, 460.577 148.250 C 458.564 160.705, 458.608 161.697, 461.247 163.426 C 463.070 164.621, 464.364 164.806, 466.115 164.123 C 471.165 162.152, 473.345 159, 478.821 145.750 C 480.166 142.494, 483.563 142.049, 484.502 145.006 C 485.476 148.074, 482.398 156.962, 478.568 162.143 C 471.512 171.689, 458.471 174.595, 454.731 167.456 L 453.436 164.985 449.866 169.256 C 444.888 175.211, 443 179.242, 443 183.915 C 443 199.093, 420.149 180.407, 414.457 160.575 C 411.472 150.173, 412.623 143.313, 419.813 128.667 C 420.038 128.209, 418.767 128.586, 416.990 129.505 C 414.911 130.581, 412.625 130.965, 410.585 130.582 C 406.365 129.790, 400.024 133.820, 389.651 143.884 C 356.381 176.167, 340.823 229.146, 350.414 277.500 C 354.362 297.406, 354.065 307.550, 349.072 323.273 C 337.341 360.217, 344.700 386.351, 371.934 404.456 C 381.951 411.115, 383.133 411.059, 376.838 404.224 C 366.068 392.530, 360.222 376.181, 361.282 360.719 C 363.019 335.370, 388.081 315.436, 426.411 308.914 C 436.571 307.186, 460.426 308.266, 470.500 310.910 C 492.355 316.648, 509.929 329.898, 511.186 341.585 C 511.650 345.893, 509.692 345.194, 505.345 339.500 C 484.232 311.844, 433.847 305.607, 394.585 325.790 C 373.111 336.829, 364.017 353.925, 368.422 374.976 C 372.234 393.192, 381.592 403.922, 402.495 414.045 C 448.657 436.399, 466.928 439.314, 496.713 429.079 C 509.191 424.791, 512.222 425.006, 509.705 430 C 506.569 436.223, 484.231 441.417, 463.454 440.754 C 446.798 440.222, 447.222 440.093, 435.061 449.366 C 415.764 464.080, 403.593 471.122, 384.757 478.472 C 373.199 482.982, 348.137 490, 343.589 490 C 341.457 490, 341.619 490.355, 345.521 494.258 C 352.407 501.144, 356.166 517.588, 352.362 524.187 C 350.930 526.671, 350.542 528.919, 350.814 533.173 L 351.176 538.846 358.838 539.565 C 378.508 541.409, 406.774 538.253, 423.234 532.373 C 431.427 529.447, 443.608 522.509, 449.301 517.527 L 453.101 514.200 451.301 505.850 C 447.157 486.634, 449.690 452.819, 455.644 447.882 C 457.189 446.600, 457.244 447.224, 456.405 456.500 C 454.172 481.173, 455.966 501.775, 461.857 519.104 L 463.671 524.441 475.585 524.603 C 499.191 524.924, 515.282 533.447, 520.967 548.640 C 523.383 555.098, 523.620 564.288, 521.476 568.399 C 520.645 569.993, 520.085 571.367, 520.232 571.451 C 524.064 573.653, 525.972 575.335, 526.492 576.973 C 527.061 578.767, 527.981 579, 534.479 579 C 557.069 579, 582.469 568.012, 605.018 548.485 C 618.947 536.422, 625.633 526.197, 631.492 508 C 633.528 501.675, 635.655 495.938, 636.219 495.250 C 641.727 488.537, 639.308 508.740, 632.914 522.846 C 618.841 553.898, 572.576 584.192, 538.862 584.431 L 529.224 584.500 528.173 590.808 C 526.924 598.309, 523.055 605.360, 518.671 608.126 C 514.215 610.938, 506.087 610.173, 493.072 605.716 C 484.628 602.825, 482.354 602.383, 480.810 603.334 C 478.401 604.816, 478.798 606.279, 484.173 615.744 C 494.190 633.384, 516.253 651.321, 540.244 661.331 L 543.989 662.893 547.491 655.313 C 554.842 639.403, 567.631 623.209, 577.316 617.548 C 585.415 612.814, 585.238 615.595, 576.841 625.023 C 558.218 645.932, 552.219 656.265, 546.373 677.500 C 539.390 702.868, 542.896 722.873, 557.940 743.500 C 575.419 767.465, 579.454 775.239, 579.482 785 C 579.495 789.827, 578.896 792.727, 577.153 796.267 C 573.916 802.840, 573.303 808.288, 575.436 811.542 C 582.725 822.667, 631.500 824.776, 651.888 814.849 L 658.276 811.739 657.725 793.619 C 656.962 768.584, 654.939 755.676, 648.943 737.591 C 646.212 729.353, 644 720.827, 644 718.537 C 644 710.519, 652.890 700.592, 672.500 686.712 C 709.109 660.801, 724.499 627.582, 721.034 581.953 C 718.728 551.586, 709.962 531.809, 681.253 492.205 C 669.850 476.473, 662.632 464.537, 655.891 450.261 C 644.056 425.199, 629.711 407.802, 615.273 401.002 L 611.045 399.011 603.773 403.721 C 589.734 412.814, 568.416 420.283, 561.907 418.390 C 555.469 416.517, 557.971 414.831, 575.084 409.512 C 587.802 405.559, 599.492 399.431, 614.157 389.030 C 648.589 364.611, 663.583 328.664, 656.507 287.500 C 653.896 272.312, 645.888 244.978, 643.286 242.377 C 640.493 239.584, 640.403 237.850, 642.933 235.561 C 644.787 233.883, 645.054 233.941, 649.500 237 C 663.672 246.750, 694.300 251.634, 714.792 247.412 C 748.840 240.396, 780.701 210.941, 794.001 174.183 C 802.393 150.991, 800.501 146.103, 782.500 144.480 C 774.394 143.749, 759.941 139.937, 741.190 133.585 C 728.011 129.120, 717.273 127.555, 705.076 128.320 C 688.523 129.359, 678.903 133.405, 659.500 147.490 C 645.167 157.894, 630.093 167.897, 624.290 170.854 C 620.156 172.961, 613 173.798, 613 172.174 C 613 170.887, 617.142 167.415, 621 165.467 C 630.182 160.833, 638.173 154.744, 636.825 153.409 C 635.731 152.326, 634.439 152.608, 629.406 155.031 C 601.573 168.426, 565.177 150.009, 561.469 120.653 L 560.818 115.500 553.659 112.358 C 542.436 107.432, 542.002 107.370, 541.986 110.683 C 541.968 114.457, 540.964 118, 539.912 118 C 539.442 118, 537.268 114.251, 535.081 109.670 C 529.529 98.038, 522.835 91, 517.321 91 C 512.339 91, 510.156 92.992, 513.113 94.838 C 515.206 96.145, 515.484 101.039, 513.500 101.658 C 512.950 101.830, 508.900 98.766, 504.500 94.851 C 496.030 87.312, 491.062 84.513, 484.208 83.417 C 480.300 82.792, 480 82.907, 480 85.018 M 728.763 153.995 C 712.457 156.871, 699.732 164.167, 680 181.955 C 661.161 198.938, 655.287 201.803, 635.663 203.582 C 627.312 204.338, 625.326 205.755, 628.363 208.791 C 632.010 212.439, 651.508 208.996, 663.800 202.534 C 667.711 200.478, 675.496 194.567, 682.500 188.336 C 702.545 170.503, 710.594 165.307, 724.901 160.962 C 732.385 158.688, 740.126 158.599, 761.500 160.537 C 767.231 161.057, 767.382 161.013, 764.866 159.569 C 757.591 155.394, 737.990 152.368, 728.763 153.995 M 278.500 168.447 C 266.143 171.672, 261.038 173.713, 242.163 182.980 C 233.177 187.391, 224.965 191, 223.913 191 C 217.205 191, 216.713 199.206, 222.655 212 C 242.134 253.943, 294.558 274.492, 333 255.253 L 340.500 251.500 341.165 238.500 C 341.531 231.350, 342.296 223.475, 342.865 221 C 344.045 215.870, 343.934 215.692, 338.500 213.984 C 336.300 213.293, 327.525 209.671, 319 205.937 C 289.925 193.200, 281.502 191.820, 258.530 196.034 C 245.505 198.423, 242.801 198.175, 247.015 194.978 C 252.845 190.554, 265.702 187.500, 278.500 187.500 C 292.245 187.500, 294.772 188.189, 324.500 200.037 C 333.850 203.763, 342.400 207.061, 343.500 207.365 C 345.269 207.854, 345.897 206.716, 348.936 197.522 C 353.135 184.817, 353.268 186.097, 347.393 182.612 C 320.224 166.497, 301.066 162.558, 278.500 168.447 M 535.500 182.164 C 532.321 183.918, 528 188.253, 528 189.687 C 528 191.271, 527.628 191.284, 532.500 189.529 C 541.993 186.109, 550.524 187.981, 560.250 195.618 C 565.627 199.840, 566 199.983, 565.996 197.816 C 565.980 187.631, 545.056 176.892, 535.500 182.164 M 371.919 199.276 C 368.784 201.388, 362.323 209.656, 363.156 210.489 C 363.359 210.692, 366.089 209.289, 369.223 207.372 C 376.774 202.754, 381.220 202.047, 385.023 204.859 C 388.770 207.629, 390 207.562, 390 204.589 C 390 197.998, 378.729 194.686, 371.919 199.276 M 638.537 212.940 C 637.324 214.904, 644.444 221.122, 652.358 225.011 C 666.904 232.158, 686.235 235.107, 697.134 231.842 C 702.855 230.128, 701.838 229, 694.572 229 C 677.799 229, 661.089 224.502, 649.318 216.818 C 641.943 212.003, 639.630 211.171, 638.537 212.940 M 534.388 245.326 C 515.499 252.451, 508.415 280.432, 519.788 302.992 C 523.912 311.174, 526.730 311.142, 523.402 302.952 C 514.450 280.920, 520.804 256.527, 536.899 251.138 C 550.845 246.469, 560.621 254.532, 565.513 274.741 C 567.618 283.438, 569.918 287.351, 569.968 282.322 C 570.098 269.337, 565.289 254.217, 559.379 249.028 C 553.906 244.223, 541.991 242.458, 534.388 245.326 M 373.500 252.655 C 369.049 254.992, 363.113 260.962, 360.730 265.500 C 357.051 272.507, 357.692 298.014, 361.517 296.810 C 362.058 296.639, 362.352 296.056, 362.171 295.514 C 361.274 292.822, 362.140 277.892, 363.448 273.486 C 365.929 265.131, 373.725 257.021, 379.290 257.005 C 386.438 256.985, 394.983 266.150, 397.442 276.473 C 398.132 279.369, 398.100 279.400, 396.199 277.680 C 393.810 275.518, 388.309 274.532, 383.585 275.418 C 366.689 278.588, 364.757 308.927, 380.826 318.745 C 385.728 321.740, 388.268 321.582, 392.317 318.027 C 402.633 308.969, 406.385 280.968, 399.309 265.846 C 393.879 254.243, 382.021 248.182, 373.500 252.655 M 538.384 270.913 C 530.581 274.457, 528.500 278.669, 528.500 290.922 C 528.500 300.046, 528.828 302.166, 530.883 306.340 C 539.140 323.112, 560.264 320.660, 565.598 302.311 C 567.669 295.186, 567.111 283.945, 564.411 278.414 C 560.460 270.320, 547.753 266.658, 538.384 270.913 M 467.401 343.198 C 461.586 348.558, 459.557 352.304, 461.005 355.009 C 462.521 357.843, 463.389 357.522, 466.365 353.024 C 469.298 348.593, 473.365 345.489, 474.953 346.471 C 475.526 346.825, 476.278 348.889, 476.625 351.057 C 477.775 358.249, 483 355.350, 483 347.520 C 483 338.681, 474.774 336.402, 467.401 343.198 M 388.306 349.568 C 386.630 351.102, 385.959 352.329, 386.639 352.614 C 387.266 352.878, 389.940 354.630, 392.583 356.508 C 396.282 359.139, 397.697 359.666, 398.738 358.803 C 400.676 357.194, 399.385 351.984, 396.370 349.250 C 393.183 346.360, 391.749 346.417, 388.306 349.568 M 504.114 374.776 C 498.258 386.255, 486.089 397.909, 473.610 403.989 C 455.972 412.583, 440.194 411.624, 424.615 401.010 C 416.120 395.222, 413.343 396.010, 418.345 402.790 C 427.301 414.929, 449.374 419.849, 466.809 413.593 C 479.768 408.943, 495.074 397.867, 504.282 386.475 C 509.041 380.588, 509.187 380.500, 514.211 380.500 C 521.170 380.500, 521.287 378.798, 514.620 374.534 C 507.668 370.087, 506.493 370.114, 504.114 374.776 M 564.787 456.250 C 563.910 456.938, 560.458 463.125, 557.117 470 C 545.066 494.798, 531.001 506.354, 500.521 516.500 C 492.260 519.250, 485.605 521.950, 485.732 522.500 C 486.165 524.362, 494.007 524.127, 502.774 521.989 C 532.707 514.689, 558.269 491.414, 566.388 464.068 C 568.898 455.613, 568.442 453.386, 564.787 456.250 M 298 490.560 C 276.002 495.300, 265.443 505.074, 264.246 521.802 C 263.476 532.569, 266.416 539.391, 274.281 545.089 C 280.932 549.907, 282.612 549.131, 279.346 542.750 C 273.483 531.297, 275.861 514.695, 284.234 508.618 C 288.089 505.820, 288.300 506.775, 285.211 513.018 C 281.688 520.135, 280.951 530.965, 283.529 537.715 C 286.799 546.279, 295.997 554, 302.926 554 L 305.933 554 303.718 550.250 C 299.032 542.316, 302.019 528.135, 310.072 520.082 C 314.135 516.019, 321.288 512.639, 324.001 513.500 C 326.708 514.360, 330 518.806, 330 521.603 C 330 523.257, 330.433 523.771, 331.486 523.367 C 332.478 522.986, 333.331 523.745, 334.053 525.648 C 335.267 528.853, 338.191 532.258, 342.191 535.124 L 344.883 537.053 344.311 533.276 C 343.997 531.199, 342.605 528.279, 341.218 526.786 C 338.049 523.377, 339.495 521, 344.736 521 L 348.227 521 347.549 516.250 C 346.468 508.681, 345.168 504.545, 342.733 500.932 C 336.171 491.194, 316.366 486.602, 298 490.560 M 255.058 519.079 C 248.672 527.895, 249.185 535.213, 256.432 538.669 C 260.861 540.781, 261.533 540.137, 259.930 535.317 C 259.232 533.218, 258.707 527.788, 258.764 523.250 C 258.822 518.712, 258.676 515, 258.441 515 C 258.205 515, 256.683 516.836, 255.058 519.079 M 319.429 520.885 C 317.818 521.865, 315.056 524.312, 313.290 526.322 C 310.095 529.962, 310.087 529.996, 311.553 534.239 C 316.963 549.895, 331.753 568.738, 343.761 575.274 L 348.731 577.978 349.359 573.399 C 349.704 570.880, 350.854 566.858, 351.914 564.461 L 353.842 560.103 350.628 559.042 C 342.821 556.466, 329.335 538.225, 325.373 524.885 C 323.622 518.988, 323.113 518.645, 319.429 520.885 M 830.020 522.441 C 828.359 527.471, 823.159 531.501, 810.511 537.558 C 797.347 543.863, 792.090 548.553, 787.600 558 C 782.256 569.241, 783.561 584.967, 790.693 595.272 C 794.395 600.623, 792.940 605.016, 784.696 613.377 C 773.476 624.756, 758.926 629.521, 737.543 628.819 L 724.500 628.391 721.875 636.195 L 719.250 644 731.167 644 C 765.939 644, 791.917 628.125, 797.584 603.413 C 800.358 591.318, 804.648 584, 808.965 584 C 810.595 584, 810.138 588.098, 807.978 592.859 C 805.085 599.235, 805.300 601.383, 808.750 600.562 C 823.146 597.135, 836.575 582.741, 839.875 567.201 C 842.591 554.411, 840.375 534.536, 835.076 524.149 C 832.296 518.700, 831.359 518.383, 830.020 522.441 M 448 527.185 C 431.286 540.061, 409.194 546.007, 378.119 545.992 C 360.672 545.985, 351.116 544.964, 344.577 542.410 C 340.825 540.945, 340.713 540.957, 342.023 542.689 C 349.686 552.825, 358.047 557.553, 361.753 553.847 C 365.194 550.406, 393 554.225, 393 558.139 C 393 560.224, 412.709 558.665, 420.703 555.948 C 427.545 553.623, 427.989 553.282, 429.573 549.151 C 432.048 542.699, 440.527 534.788, 449.811 530.270 C 457.112 526.718, 457.606 526.283, 456.686 524.221 C 455.416 521.376, 455.640 521.300, 448 527.185 M 461.773 532.555 C 443.402 537.008, 432 550.034, 432 566.570 C 432 576.529, 436.237 584.600, 444.060 589.538 C 449.652 593.068, 450.090 592.685, 447.817 586.250 C 444.060 575.616, 446.827 562.625, 454.706 553.904 C 457.638 550.658, 461 548.789, 461 550.404 C 461 550.626, 459.202 554.564, 457.004 559.154 C 446.829 580.404, 454.664 598.574, 474.440 599.590 C 477.223 599.733, 478.309 599.634, 476.854 599.369 C 475.399 599.104, 473.380 597.972, 472.367 596.853 C 470.578 594.876, 470.580 594.780, 472.446 593.416 C 474.007 592.275, 474.317 590.968, 474.106 586.423 C 473.771 579.186, 477.388 571.455, 483.421 566.511 C 488.854 562.059, 492.515 561.969, 501.636 566.061 C 505.719 567.893, 508.601 568.696, 508.813 568.061 C 509.007 567.478, 510.643 567, 512.447 567 C 515.550 567, 515.760 566.769, 516.312 562.741 C 519.327 540.744, 491.508 525.347, 461.773 532.555 M 310.041 548.058 C 311.238 549.739, 312.411 550.922, 312.647 550.687 C 313.505 549.828, 310.639 545, 309.271 545 C 308.229 545, 308.429 545.793, 310.041 548.058 M 364.243 559.814 C 360.367 560.187, 358.727 562.815, 356.515 572.200 C 354.782 579.549, 354.591 585.368, 355.997 587.994 C 357.999 591.735, 385.108 596.815, 388.416 594.069 C 391.079 591.859, 390.322 590.002, 386.750 589.985 C 382.632 589.965, 381.390 589.155, 380.043 585.614 C 378.159 580.658, 380.955 566.918, 384.687 562.794 C 385.586 561.800, 386.136 560.811, 385.911 560.594 C 385.340 560.047, 368.219 559.431, 364.243 559.814 M 420.622 562.810 C 416.341 565.027, 414.154 565.393, 402.764 565.805 L 389.784 566.273 388.524 569.387 C 386.134 575.291, 385.753 580.877, 387.775 580.349 C 388.766 580.090, 391.478 581.288, 393.944 583.074 C 398.198 586.156, 398.596 586.244, 405.922 585.711 C 417.205 584.891, 428.214 581.999, 427.466 580.052 C 425.902 575.975, 424.821 568.277, 425.263 564.356 C 425.533 561.960, 425.697 560.064, 425.627 560.142 C 425.557 560.220, 423.305 561.421, 420.622 562.810 M 486.553 571.120 C 482.275 576.203, 480.625 580.194, 480.598 585.525 C 480.562 592.418, 482.586 594.945, 490.243 597.565 C 493.684 598.742, 499.158 600.672, 502.407 601.853 C 512.559 605.543, 516.158 604.449, 519.876 596.541 C 523.445 588.948, 522.167 577.467, 517.650 576.553 C 516.468 576.313, 513.451 575.931, 510.947 575.704 C 508.443 575.476, 502.761 573.650, 498.321 571.645 C 488.631 567.270, 489.750 567.320, 486.553 571.120 M 426.168 588.525 C 420.686 590.906, 407.100 593.264, 401.800 592.755 C 397.183 592.311, 396.777 592.457, 395.856 594.889 C 395.312 596.325, 394.053 598.400, 393.058 599.500 C 390.198 602.663, 385.346 626.054, 387.321 627.160 C 390.373 628.868, 412.324 645.171, 421.749 652.730 C 436.352 664.441, 435.089 663.756, 436.925 660.966 C 443.708 650.661, 459.651 634.152, 471.355 625.316 C 474.735 622.764, 477.873 620.354, 478.328 619.960 C 478.784 619.566, 477.997 616.953, 476.578 614.155 C 475.160 611.356, 474 608.448, 474 607.692 C 474 606.849, 471.950 605.860, 468.689 605.130 C 465.768 604.476, 461.830 602.890, 459.939 601.606 C 457.527 599.968, 455.563 599.409, 453.363 599.732 C 449.004 600.374, 442.069 597.080, 436.179 591.571 C 430.738 586.481, 430.818 586.506, 426.168 588.525 M 359.703 599.691 C 359.436 600.136, 355.547 615.125, 351.062 633 C 346.578 650.875, 341.016 671.182, 338.704 678.126 L 334.500 690.752 343.018 691.237 C 349.095 691.583, 352.776 692.355, 355.865 693.931 C 358.246 695.146, 360.369 695.964, 360.584 695.750 C 360.798 695.535, 361.658 691.750, 362.495 687.339 C 363.332 682.928, 365.986 672.384, 368.393 663.909 C 374.391 642.787, 378.404 627.355, 380.980 615.500 C 382.176 610, 383.347 604.799, 383.583 603.942 C 383.933 602.672, 382.301 602.155, 374.756 601.145 C 369.665 600.463, 364.305 599.675, 362.845 599.394 C 361.385 599.113, 359.971 599.247, 359.703 599.691 M 471.885 633.750 C 458.462 646.491, 442.233 666.412, 443.191 668.972 C 443.361 669.426, 447.775 673.076, 453 677.084 C 463.634 685.239, 494.189 710.590, 503.458 718.948 C 506.781 721.945, 510.662 725.444, 512.082 726.724 L 514.664 729.052 516.873 720.776 C 519.380 711.386, 524.678 701.799, 531.635 694.061 C 535.788 689.442, 536.676 687.628, 538.693 679.650 C 539.962 674.630, 541 670.391, 541 670.229 C 541 670.067, 536.648 667.915, 531.330 665.446 C 513.394 657.122, 494.020 642.032, 485.900 630.063 C 484.030 627.307, 482.186 625.040, 481.801 625.026 C 481.417 625.012, 476.955 628.938, 471.885 633.750 M 383.623 634.091 C 383.384 634.866, 381.722 640.114, 379.930 645.753 C 378.139 651.393, 376.859 656.123, 377.087 656.266 C 395.277 667.676, 441.904 701.434, 458 714.846 C 497.215 747.524, 537 789.283, 537 797.766 C 537 798.891, 538.529 797.927, 541.750 794.772 C 544.362 792.213, 549.079 788.574, 552.231 786.686 L 557.963 783.253 553.876 776.929 C 545.160 763.444, 506.660 728.490, 456.500 688.522 C 421.752 660.834, 413.755 654.676, 400 645.019 C 394.225 640.965, 388.276 636.530, 386.780 635.165 C 384.713 633.279, 383.954 633.021, 383.623 634.091 M 703.500 671.727 C 702.400 671.999, 699.250 674.324, 696.500 676.895 C 693.750 679.465, 689.588 683.090, 687.250 684.951 C 684.913 686.812, 683.137 688.471, 683.304 688.637 C 683.471 688.804, 690.333 687.810, 698.554 686.429 C 714.795 683.700, 716.570 682.781, 715.562 677.625 C 715.253 676.044, 715 673.906, 715 672.875 C 715 670.974, 708.974 670.372, 703.500 671.727 M 329 698.301 C 323.070 699.655, 314.804 703.326, 313.123 705.352 C 312.310 706.331, 314.332 706.856, 322.377 707.755 C 333.259 708.971, 342.060 711.686, 346.538 715.209 C 358.689 724.766, 350.281 765.741, 325.960 815.500 C 321.659 824.300, 317.189 833.927, 316.028 836.894 C 311.317 848.926, 306.101 855.025, 307.384 847 C 308.191 841.956, 307.579 841.946, 305.020 846.960 C 301.286 854.280, 303.375 863.772, 309.934 869.291 C 317.007 875.242, 329.191 870.402, 333.183 860.056 C 334.976 855.409, 336.916 843.514, 335.938 843.167 C 334.309 842.588, 334.794 841.356, 344.394 821.718 C 364.144 781.317, 375.219 746.797, 373.661 730.500 C 371.407 706.930, 352.116 693.022, 329 698.301 M 532.208 703.523 C 525.294 711.874, 520.822 724.631, 521.810 733.181 C 522.029 735.075, 524.378 737.842, 529.810 742.605 C 534.039 746.314, 541.100 752.829, 545.500 757.083 C 553.410 764.731, 553.573 764.825, 559.976 765.533 C 565.388 766.131, 566.278 766.023, 565.396 764.874 C 543.171 735.917, 536.837 722.913, 535.756 704.023 L 535.500 699.546 532.208 703.523 M 725 706.554 C 706.701 710.480, 690.705 718.680, 677.450 730.928 L 672.659 735.356 682.852 745.193 L 693.046 755.030 698.273 751.148 C 732.553 725.691, 772.743 729.429, 803.841 760.965 C 814.914 772.194, 823.621 788.560, 829.221 808.670 C 832.650 820.983, 832.403 850.632, 828.759 864.170 C 819.148 899.873, 795.670 926.123, 764 936.574 C 751.536 940.688, 730.429 940.764, 718.500 936.738 C 693.993 928.468, 673.868 909.655, 661.162 883.140 L 656.422 873.247 654.599 877.656 C 652.299 883.215, 649.612 884.625, 638.049 886.336 C 633.066 887.074, 628.748 887.919, 628.452 888.214 C 626.675 889.992, 640.696 914.484, 650.480 926.690 C 679.115 962.415, 725.834 977.431, 767.476 964.293 C 809.952 950.892, 842.701 912.448, 853.176 863.688 C 856.132 849.929, 856.390 821.794, 853.677 809 C 843.769 762.267, 812.830 722.664, 776.775 710.560 C 759.977 704.922, 739.861 703.365, 725 706.554 M 436.124 712.750 C 437.050 721.168, 438.807 726.122, 444.714 736.959 C 455.601 756.934, 456 757.894, 456 764.153 C 456 767.404, 455.325 771.680, 454.500 773.654 C 450.308 783.688, 455.779 787.251, 477.581 788.683 C 490.035 789.501, 513.550 785.595, 517.265 782.091 C 519.247 780.222, 439.997 706, 436.019 706 C 435.669 706, 435.716 709.038, 436.124 712.750 M 287.785 714.551 C 247.994 720.747, 209.437 750.662, 189.482 790.821 C 149.169 871.950, 188.479 968.413, 270.687 990.092 C 280.714 992.736, 305.654 993.766, 318.444 992.064 C 381.941 983.614, 431.923 919.682, 431.992 846.822 C 432.026 810.119, 413.398 768.153, 386.644 744.664 L 380.105 738.923 379.467 742.712 C 378.373 749.213, 374.032 767.120, 373.183 768.637 C 372.615 769.652, 373.960 771.785, 377.694 775.792 C 389.685 788.656, 397.160 801.981, 401.517 818.259 C 416.067 872.631, 392.051 929.481, 344.500 953.224 C 294.143 978.367, 238.698 954.107, 215.681 896.857 C 204.616 869.334, 206.071 839.370, 219.876 810.470 C 232.636 783.758, 254.091 763.001, 278.204 754.038 C 295.634 747.559, 321.775 747.283, 336.469 753.422 C 342.462 755.927, 342.556 755.827, 344.347 745.045 C 346.344 733.019, 346.390 730.271, 344.648 726.933 C 343.912 725.522, 343.018 723.210, 342.664 721.796 C 340.900 714.768, 311.402 710.873, 287.785 714.551 M 654.413 731.745 C 655.728 735.610, 657.803 743.099, 659.025 748.386 C 660.247 753.674, 661.588 758, 662.005 758 C 662.822 758, 697.458 793.913, 715.611 813.584 C 728.018 827.028, 728.270 827.119, 732.899 819.820 C 734.531 817.247, 736.908 814.599, 738.183 813.936 C 739.457 813.272, 740.601 812.652, 740.724 812.558 C 741.017 812.333, 666.352 738.057, 658.262 730.525 L 652.023 724.718 654.413 731.745 M 730.980 744.566 C 720.257 746.872, 700.544 755.693, 698.415 759.137 C 698.033 759.755, 706.544 769.040, 718.121 780.636 C 737.930 800.477, 738.521 800.970, 739.234 798.274 C 739.637 796.748, 741.129 785.375, 742.548 773 C 743.968 760.625, 745.502 748.813, 745.958 746.750 L 746.787 743 742.144 743.082 C 739.590 743.126, 734.566 743.794, 730.980 744.566 M 750.559 747.250 C 750.145 749.784, 745.567 786.965, 743.658 803.307 C 743.140 807.741, 746.699 809.915, 753.779 809.490 L 759.500 809.146 770.264 793.836 C 776.184 785.416, 783.066 776.165, 785.557 773.279 C 790.786 767.224, 790.674 766.429, 783.802 760.806 C 776.829 755.101, 768.512 750.145, 760.585 746.971 C 751.364 743.278, 751.208 743.283, 750.559 747.250 M 292 758.575 C 284.819 760.459, 275 764.081, 275 764.846 C 275 766.471, 287.543 804.816, 287.815 804.024 C 289.017 800.532, 298.517 757.013, 298.067 757.066 C 297.755 757.102, 295.025 757.781, 292 758.575 M 304.020 762.605 C 301.488 775.225, 295.866 800.691, 293.981 808.075 C 290.839 820.379, 290.832 820.359, 298.750 821.761 C 308.042 823.407, 312.398 822.386, 312.816 818.464 C 313.958 807.731, 324.248 765.796, 326.632 762.158 C 328.945 758.628, 327.472 757.971, 315.754 757.308 L 305.202 756.710 304.020 762.605 M 793.061 759.607 C 793.852 760.766, 796.670 764.591, 799.323 768.107 C 809.838 782.044, 816.745 801.123, 819.060 822.632 C 824.062 869.091, 796.559 916.620, 756.029 931.558 C 750.996 933.414, 754.611 933.302, 761.068 931.402 C 778.665 926.227, 795.952 912.406, 808.950 893.122 C 832.896 857.593, 830.774 805.215, 803.981 770.500 C 799.990 765.328, 790.511 755.874, 793.061 759.607 M 329.983 765.708 C 329.335 768.894, 326.813 780.676, 324.377 791.891 C 321.941 803.106, 320.122 812.455, 320.334 812.667 C 321.431 813.765, 340 767.958, 340 764.153 C 340 762.866, 339.077 761.997, 337.250 761.561 C 335.738 761.200, 333.748 760.682, 332.830 760.410 C 331.487 760.013, 330.929 761.051, 329.983 765.708 M 262.492 770.921 C 255.281 775.639, 245.710 784.181, 240.026 790.969 L 235.863 795.941 239.639 799.220 C 241.716 801.024, 250.343 808.688, 258.810 816.250 C 267.277 823.813, 274.721 829.974, 275.352 829.942 C 279.052 829.757, 283.419 825.190, 284.504 820.371 C 285.592 815.541, 285.404 814.709, 278.313 792.968 C 274.291 780.637, 271 769.749, 271 768.773 C 271 766.115, 269.105 766.593, 262.492 770.921 M 662.740 772.500 C 663.461 777.288, 663.810 808.252, 663.214 814.500 C 663.056 816.150, 663.472 820.105, 664.138 823.288 L 665.348 829.076 673.424 828.428 C 677.866 828.071, 689.730 827.491, 699.789 827.140 L 718.079 826.500 710.289 818.376 L 702.500 810.253 687.500 806.947 C 666.971 802.422, 665.694 801.945, 665.554 798.748 C 665.420 795.673, 664.880 795.622, 683.674 800.462 L 695.849 803.597 693.997 801.048 C 692.978 799.647, 688.346 794.744, 683.704 790.153 L 675.263 781.806 672.004 786.345 C 668.620 791.057, 666.477 792.581, 665.487 790.979 C 664.700 789.705, 666.621 782.886, 668.448 780.469 C 670.567 777.666, 670.378 777.026, 665.951 772 L 661.986 767.500 662.740 772.500 M 560.769 771.686 C 559.194 772.098, 559.264 772.587, 561.535 777.070 C 563.966 781.866, 564.155 782, 568.492 782 C 572.838 782, 572.926 781.937, 571.997 779.493 C 568.841 771.191, 567.148 770.014, 560.769 771.686 M 787.713 777.750 C 785.291 780.913, 778.966 789.743, 773.659 797.374 L 764.010 811.247 766.755 814.397 C 768.265 816.130, 770.175 818.468, 771 819.594 C 772.444 821.565, 773.249 821.625, 792.641 821.218 L 812.782 820.795 812.255 816.648 C 811.387 809.815, 807.188 796.319, 803.873 789.703 C 799.687 781.352, 793.900 772, 792.916 772 C 792.477 772, 790.135 774.587, 787.713 777.750 M 370 778.029 C 370 778.596, 371.806 781.344, 374.014 784.137 C 390.594 805.112, 398.282 847.585, 390.691 876.270 C 381.711 910.200, 363.280 934.317, 334.500 949.794 C 325.036 954.883, 328.033 954.388, 339.844 948.911 C 391.654 924.885, 415.157 854.044, 388.750 801.500 C 382.242 788.552, 370 773.227, 370 778.029 M 366.089 790.075 C 364.937 791.959, 363.245 795.525, 362.328 798 C 359.774 804.900, 348.423 828.592, 345.026 834.113 C 342.553 838.131, 342 840.112, 342 844.948 C 342 852.181, 340.731 851.704, 362 852.466 C 371.075 852.791, 380.930 853.310, 383.899 853.619 L 389.298 854.181 388.597 844 C 387.387 826.422, 381.032 807.206, 371.262 791.575 L 368.184 786.649 366.089 790.075 M 514.500 790.071 C 494.258 797.109, 477.508 797.744, 459.741 792.145 C 454.373 790.454, 449.345 789.314, 448.568 789.612 C 443.142 791.695, 442.153 814.752, 446.950 827.369 C 447.726 829.410, 448.629 830, 450.975 830 L 454 830 454.006 823.250 C 454.013 814.832, 455.372 809.796, 458.595 806.252 L 461.097 803.500 460.360 810 C 459.547 817.176, 459.660 826.920, 460.609 831.394 L 461.222 834.288 474.861 833.683 C 487.283 833.132, 506.219 830.096, 509.827 828.077 C 510.615 827.636, 512.255 824.135, 513.471 820.298 C 515.811 812.919, 519.778 806.416, 524.900 801.563 C 526.605 799.948, 528 797.962, 528 797.151 C 528 795.830, 523.218 786.789, 522.708 787.145 C 522.594 787.225, 518.900 788.542, 514.500 790.071 M 560.852 789.911 C 534.960 800.038, 521.639 840.364, 535.223 867.500 C 540.984 879.010, 551.727 888.411, 562.794 891.628 C 568.575 893.309, 577.845 892.577, 584.679 889.899 C 587.350 888.853, 587.389 888.751, 585.418 887.992 C 580.789 886.207, 577.804 881.053, 578.227 875.575 C 578.442 872.784, 578.816 869.835, 579.059 869.023 C 579.401 867.879, 578.151 867.410, 573.500 866.939 C 559.984 865.572, 552 857.507, 552 845.221 C 552 834.470, 556.964 822.160, 564.584 814.014 C 568.763 809.546, 569.001 808.976, 569.022 803.396 C 569.036 799.699, 569.782 795.874, 571.022 793.141 C 572.110 790.743, 573 788.606, 573 788.391 C 573 787.307, 564.927 788.318, 560.852 789.911 M 230.069 805.160 C 224.167 815.411, 218.216 833.244, 216.523 845.746 L 215.813 850.993 241.907 850.857 L 268 850.721 268 848.466 C 268 847.225, 268.935 843.183, 270.078 839.483 C 271.221 835.783, 271.783 832.441, 271.328 832.057 C 270.873 831.673, 267.800 829.147, 264.500 826.445 C 261.200 823.743, 253.550 817.287, 247.500 812.098 C 241.450 806.909, 235.745 802.024, 234.822 801.242 C 233.312 799.962, 232.835 800.355, 230.069 805.160 M 528.109 808.562 C 523.832 812.161, 519.200 822.155, 517.271 831.949 C 513.427 851.457, 521.586 874.522, 535.131 882.439 L 538.447 884.377 534.718 879.297 C 524.683 865.626, 520.677 845.624, 524.429 827.923 C 526.142 819.840, 531.120 808.606, 533.636 807.144 C 535.388 806.126, 535.369 806.059, 533.327 806.030 C 532.131 806.014, 529.783 807.153, 528.109 808.562 M 747.934 818.709 C 743.841 822.153, 741.050 828.273, 741.022 833.868 C 741.003 837.650, 741.541 838.776, 745.033 842.268 C 749.294 846.529, 749.644 848.307, 746.319 848.800 C 743.580 849.207, 738.391 843.164, 736.980 837.925 C 735.942 834.072, 736.352 829.897, 738.394 823.500 C 738.746 822.400, 738.114 823.300, 736.991 825.500 C 733.829 831.696, 734.497 843.341, 738.302 848.329 C 742.036 853.225, 745.781 855, 752.374 855 C 761.909 855, 768.008 847.498, 767.990 835.790 C 767.966 820.328, 757.054 811.035, 747.934 818.709 M 567.590 820.471 C 559.442 831.153, 555.903 845.913, 559.795 852.975 C 561.906 856.805, 568.763 861.001, 572.907 860.999 C 575.458 860.997, 575.500 860.880, 575.512 853.749 C 575.524 846.002, 578.469 837.802, 581.680 836.569 C 583.023 836.054, 583.166 836.542, 582.605 839.730 C 579.968 854.728, 581.102 862.055, 586.622 865.672 C 590.653 868.314, 614.093 868.282, 625.687 865.619 C 646.256 860.894, 658 847.450, 658 828.629 C 658 819.958, 657.823 819.699, 653.137 821.520 C 642.582 825.621, 634.175 827.186, 619.834 827.720 C 597.978 828.534, 588.174 826.437, 570.895 817.252 C 570.563 817.075, 569.075 818.523, 567.590 820.471 M 785.161 826.730 L 773.822 827.067 774.495 831.967 C 775.395 838.510, 773.518 846.988, 770.137 851.650 L 767.387 855.443 770.145 856.972 C 771.663 857.812, 779.561 863.542, 787.698 869.704 C 795.835 875.866, 802.780 880.591, 803.132 880.204 C 803.485 879.817, 805.382 875.437, 807.348 870.471 C 811.732 859.401, 814.179 845.863, 813.792 834.818 L 813.500 826.500 805 826.446 C 800.325 826.417, 791.397 826.544, 785.161 826.730 M 288.365 828.919 C 281.239 833.264, 276.532 850.653, 280.966 856.250 C 283.466 859.405, 285.462 859.874, 284.746 857.138 C 283.187 851.174, 288.001 837.485, 294.102 830.537 L 297.207 827 294.354 827.004 C 292.784 827.006, 290.089 827.868, 288.365 828.919 M 306.500 828.903 C 290.748 836.223, 285.655 858.073, 296.270 872.796 C 301.312 879.791, 311.173 883.173, 318.418 880.393 C 321.344 879.270, 320.033 878, 315.950 878 C 310.809 878, 307.288 876.168, 302.729 871.121 C 292.754 860.081, 296.343 842.296, 310.321 833.500 C 311.195 832.950, 312.204 831.263, 312.564 829.750 C 313.354 826.423, 312.187 826.260, 306.500 828.903 M 749.786 828.750 C 745.019 834.222, 748.928 847.500, 753.855 842.574 C 755.074 841.355, 755.134 840.590, 754.177 838.490 C 753.530 837.069, 753 833.902, 753 831.453 C 753 826.664, 752.194 825.986, 749.786 828.750 M 508.422 834.023 C 505.760 836.685, 489.460 839.706, 473.847 840.431 L 462.500 840.958 462.500 845.166 C 462.500 849.131, 462.701 849.426, 466 850.299 C 471.576 851.775, 495.494 850.439, 503 848.232 L 509.500 846.321 510.233 839.911 C 511.142 831.952, 510.989 831.455, 508.422 834.023 M 722.500 832.521 C 721.950 832.720, 712.050 833.368, 700.500 833.960 C 688.950 834.552, 676.012 835.318, 671.750 835.662 L 664 836.288 662.917 840.394 C 662.322 842.652, 660.784 846.402, 659.501 848.727 C 657.607 852.156, 657.371 853.387, 658.248 855.247 L 659.330 857.539 678.915 856.317 C 698.956 855.067, 719.866 853.382, 728.143 852.350 L 732.786 851.771 730.922 847.556 C 729.897 845.238, 728.758 840.790, 728.391 837.671 C 727.719 831.954, 726.646 831.016, 722.500 832.521 M 273.079 853.316 C 273.036 856.514, 273.466 860.002, 274.035 861.066 C 275.335 863.494, 277.474 863.653, 276.517 861.250 C 276.133 860.288, 275.221 856.800, 274.489 853.500 L 273.159 847.500 273.079 853.316 M 216.212 866.250 C 216.864 882.057, 225.030 905.323, 233.870 916.561 L 235.686 918.871 241.683 912.685 C 244.982 909.283, 253.980 899.525, 261.680 891 L 275.679 875.500 272.172 870.034 C 269.826 866.377, 268.513 862.983, 268.205 859.784 L 267.746 855 241.747 855 L 215.748 855 216.212 866.250 M 340.029 859.423 C 339.463 860.912, 338.990 862.663, 338.978 863.315 C 338.965 863.967, 337.633 867.200, 336.016 870.500 L 333.077 876.500 341.788 885.344 C 346.580 890.207, 354.858 897.743, 360.185 902.090 L 369.869 909.992 371.989 907.016 C 378.389 898.027, 388 871.552, 388 862.910 C 388 859.342, 387.794 859.295, 369 858.560 C 361.025 858.249, 351.476 857.706, 347.779 857.355 C 341.152 856.725, 341.044 856.754, 340.029 859.423 M 729.917 857.401 C 729.688 857.622, 725.636 858.272, 720.914 858.845 C 712.371 859.882, 712.273 859.926, 701.154 867.846 C 695.008 872.224, 685.752 878.638, 680.586 882.099 L 671.192 888.393 675.294 894.446 C 681.932 904.242, 702.715 923, 706.930 923 C 707.317 923, 711.993 912.087, 717.321 898.750 C 734.772 855.073, 734.090 857, 732.099 857 C 731.128 857, 730.146 857.181, 729.917 857.401 M 737.993 858.248 C 737.989 858.937, 732.139 874.056, 724.993 891.847 C 717.847 909.637, 712 924.564, 712 925.016 C 712 927.173, 722.779 929.428, 733 929.409 C 742.374 929.392, 755.920 926.413, 758.540 923.793 C 758.725 923.608, 757.144 913.792, 755.026 901.978 C 752.909 890.165, 750.420 876.112, 749.496 870.750 C 748.490 864.916, 747.344 861, 746.643 861 C 745.998 861, 743.790 860.099, 741.735 858.998 C 739.140 857.607, 737.998 857.378, 737.993 858.248 M 762.980 859.049 C 762.166 859.572, 759.813 860.468, 757.750 861.039 C 753.193 862.300, 753.165 859.911, 758.066 887.562 C 760.303 900.178, 762.487 912.647, 762.920 915.271 C 763.944 921.469, 763.637 921.387, 770 917.157 C 780.057 910.470, 801.976 887.318, 799.871 885.607 C 799.667 885.441, 792.975 880.276, 785 874.129 C 777.025 867.982, 769.141 861.860, 767.480 860.525 C 765.314 858.785, 764.041 858.367, 762.980 859.049 M 660 861.727 C 660 864.518, 667.780 884, 668.895 884 C 669.405 884, 685.196 873.809, 702.608 862.243 C 704.153 861.217, 702.482 861.125, 693.500 861.743 C 679.998 862.672, 666.426 862.585, 662.750 861.545 C 661.119 861.084, 660 861.158, 660 861.727 M 639.500 867.444 C 628.770 872.336, 621.764 873.475, 602.005 873.536 C 581.161 873.600, 579.947 874.101, 585.989 880.143 L 589.126 883.280 607.313 882.709 C 629.983 881.996, 647.018 879.142, 649.214 875.687 C 650.305 873.972, 650.169 869.184, 648.965 866.934 C 647.656 864.489, 645.755 864.592, 639.500 867.444 M 278 867.566 C 278 870.298, 283.569 874.883, 288.822 876.476 C 291.130 877.176, 291.135 877.161, 289.519 874.037 C 287.048 869.259, 284.314 867, 281 867 C 279.350 867, 278 867.255, 278 867.566 M 277.833 878.902 C 277.650 879.399, 268.950 889.313, 258.500 900.935 C 248.050 912.557, 239.360 922.470, 239.190 922.963 C 237.839 926.873, 259.647 943.142, 272.153 947.554 L 275.948 948.893 279.881 936.196 C 282.044 929.213, 286.711 914.163, 290.252 902.750 C 294.017 890.616, 296.236 881.961, 295.595 881.907 C 294.993 881.856, 292.700 881.875, 290.500 881.949 C 288.190 882.027, 284.826 881.221, 282.539 880.042 C 277.936 877.670, 278.260 877.748, 277.833 878.902 M 324.906 882.597 C 323.049 884.513, 320.484 886.342, 319.206 886.663 C 317.762 887.025, 317.081 887.770, 317.410 888.626 C 317.701 889.385, 318.656 894.167, 319.533 899.253 C 321.988 913.508, 328.133 943.351, 328.902 944.759 C 329.685 946.194, 337.935 941.599, 346.687 934.852 C 352.231 930.579, 367.037 915.528, 366.944 914.261 C 366.913 913.842, 364.551 911.652, 361.694 909.393 C 358.837 907.134, 350.151 899.398, 342.391 892.200 L 328.281 879.114 324.906 882.597 M 295.704 901.196 C 293.105 909.613, 288.733 923.673, 285.989 932.440 C 283.245 941.206, 281 948.914, 281 949.567 C 281 951.406, 296.070 953.370, 304.862 952.678 C 311.872 952.126, 321.388 949.728, 323.281 948.036 C 323.711 947.652, 322.056 937.924, 319.605 926.419 C 317.154 914.914, 314.655 902.575, 314.051 899 C 312.187 887.955, 312.356 888.287, 308.259 887.545 C 306.192 887.170, 303.584 886.645, 302.465 886.377 C 300.627 885.938, 299.972 887.373, 295.704 901.196 M 418 966.882 C 412.395 967.872, 413.495 970.317, 420 971.325 C 425.579 972.189, 456.380 971.503, 463.250 970.361 C 467.402 969.672, 468.248 967.568, 464.750 966.630 C 461.859 965.855, 422.614 966.066, 418 966.882 M 369.250 984.031 C 368.012 984.529, 367 985.348, 367 985.851 C 367 987.596, 371.579 988.214, 388.249 988.721 C 402.823 989.165, 405.332 989.012, 407.566 987.548 C 409.636 986.193, 409.903 985.588, 408.944 984.433 C 407.563 982.769, 373.255 982.421, 369.250 984.031" stroke="none" fill="#1a1a1a" fill-rule="evenodd"/>
</svg>