<svg xmlns="http://www.w3.org/2000/svg" width="1024" height="1024" viewBox="0 0 1024 1024" version="1.1">
	<path d="M 324.898 35.992 C 313.927 41.790, 298.792 65.810, 292.590 87.263 C 279.840 131.372, 296.747 178.329, 334.259 202.992 C 344.245 209.558, 343.503 211.747, 332.092 209.385 C 322.072 207.311, 310.283 203.017, 293.753 195.421 C 269.194 184.135, 253.328 180.008, 234.500 180.008 C 204.121 180.007, 170.578 193.610, 149.266 214.572 C 132.975 230.597, 133.102 243.173, 149.770 264.120 C 192.211 317.459, 272.317 331.379, 314.574 292.758 L 320.306 287.520 319.644 294.510 C 319.280 298.354, 318.532 308.025, 317.981 316 C 316.792 333.235, 316.045 337.800, 311.197 357.500 C 307.549 372.324, 307.505 372.741, 307.507 393 C 307.509 414.974, 308.085 418.679, 313.718 433 C 323.574 458.054, 348.535 481.187, 384.250 498.365 C 391.262 501.738, 396.976 504.723, 396.948 504.999 C 396.795 506.459, 345.637 537.618, 333 543.948 C 315.578 552.675, 292.945 560.438, 281.506 561.610 L 275.265 562.249 259.882 554.602 C 234.240 541.855, 223.107 540.366, 215.303 548.640 C 211.183 553.009, 210.387 557.443, 211.971 567.200 C 212.980 573.413, 212.986 575.312, 212 576.500 C 210.272 578.582, 198.689 582, 193.363 582 C 169.766 582, 169.667 611.342, 193.189 633.489 C 209.256 648.617, 222.162 652.581, 261 654.316 C 316.986 656.817, 337.237 655.059, 362.030 645.542 C 362.969 645.182, 360.981 650.167, 356.882 658.450 C 343.729 685.030, 338 709.028, 338 737.542 L 338 753.885 333.250 760.158 C 318.230 779.996, 291.040 790.203, 268.644 784.411 C 258.274 781.729, 247.632 776.357, 248.541 774.263 C 249.946 771.029, 250.222 759.387, 249.030 753.646 C 244.314 730.930, 220.278 712.132, 195.799 712.017 C 183.099 711.958, 173.429 707.055, 167.659 697.750 C 164.706 692.988, 160.593 693.895, 157.505 699.991 C 148.660 717.444, 150.851 745.884, 162.377 763.248 C 175.344 782.784, 204.623 795.398, 224.311 789.931 C 228.114 788.875, 228.136 788.886, 235.051 795.409 C 260.765 819.667, 306.071 821.478, 335.539 799.427 L 341.500 794.966 342.296 798.233 C 342.733 800.030, 343.145 810.950, 343.211 822.500 C 343.336 844.484, 342.622 851.397, 337.458 878.237 C 329.846 917.800, 328.651 941.670, 333.479 957.693 C 338.031 972.802, 360.923 984.973, 384.826 984.993 C 392.318 984.999, 393.362 984.764, 395.252 982.641 C 397.312 980.329, 397.463 980.311, 402.925 981.737 C 415.137 984.926, 431.808 978.954, 436.722 969.631 C 438.022 967.164, 438.525 962.045, 439.093 945.500 C 440.100 916.166, 441.577 911.174, 460.687 872.500 C 466.122 861.500, 472.106 848.543, 473.983 843.708 C 475.861 838.872, 477.903 834.495, 478.521 833.982 C 479.219 833.403, 484.087 833.485, 491.366 834.198 C 501.674 835.208, 523.730 834.503, 536.378 832.759 C 538.594 832.453, 538.345 831.658, 559.132 905.500 C 566.874 933, 573.860 957.075, 574.657 959 C 577.983 967.033, 583.559 970.174, 603.180 975.069 C 623.032 980.020, 639.003 980.176, 649.500 975.520 C 651.150 974.788, 654.827 973.947, 657.672 973.651 C 668.365 972.538, 678.860 964.505, 679.145 957.215 C 679.429 949.959, 678.849 946.356, 675.465 934.368 C 671.355 919.805, 669.482 908.364, 668.036 889 C 667.440 881.025, 665.377 862.125, 663.450 847 C 660.093 820.654, 654.389 774.534, 653.299 764.927 C 652.912 761.525, 653.452 758.489, 655.404 753.077 C 663.568 730.444, 667.043 691.539, 663.047 667.500 C 662.590 664.750, 662.286 662.419, 662.371 662.320 C 662.457 662.221, 664.983 663.688, 667.984 665.581 C 675.881 670.560, 682.806 672.858, 694.237 674.295 L 704.326 675.563 711.941 690.755 C 723.275 713.366, 727.195 716.608, 742.161 715.755 L 750.976 715.252 751.980 718.876 C 755.954 733.212, 755.777 759.742, 751.595 776.635 C 746.929 795.487, 741.844 806.055, 721.188 839.832 C 711.021 856.457, 708 865.204, 708 878.014 C 708 906.685, 735.027 930.710, 769.500 932.682 C 779.538 933.256, 784.358 932.099, 783.810 929.247 C 783.550 927.898, 782.030 927.340, 777.127 926.799 C 749.013 923.692, 727.708 912.316, 719.768 896.174 C 716.754 890.048, 716.504 888.789, 716.549 880.015 C 716.612 867.638, 718.058 864.049, 732.030 841.587 C 744.457 821.608, 748.698 813.572, 753.668 800.585 C 764.789 771.527, 767.537 741.972, 761.392 717.509 L 759.747 710.961 764.666 705.730 C 771.889 698.050, 772.618 695.671, 770.475 686.771 C 768.973 680.535, 762.869 662.325, 758.986 652.500 C 757.853 649.632, 758.023 649.272, 762.861 644.294 C 781.005 625.629, 780.936 592.874, 762.702 568.326 C 754.116 556.767, 741.824 550, 729.411 550 C 726.196 550, 724 549.561, 724 548.918 C 724 548.322, 722.612 544.673, 720.916 540.809 L 717.832 533.783 720.855 527.641 C 729.812 509.445, 727.259 489.912, 713.362 470.298 L 708.967 464.096 714.234 457.521 C 737.617 428.328, 742.719 396.073, 730.757 353.070 C 724.735 331.422, 724.054 327.207, 723.340 307.171 L 722.687 288.841 729.094 292.986 C 773.740 321.868, 831.679 315.702, 869.035 278.093 C 900.468 246.447, 901.084 220.584, 870.825 202.901 C 851.323 191.503, 823.336 184.920, 800.500 186.359 C 787.385 187.185, 778.319 189.448, 750 198.963 C 707.313 213.305, 695.255 213.539, 708.597 199.765 C 730.606 177.041, 742.993 153.216, 746.149 127.533 C 751.033 87.791, 723.243 35, 697.439 35 C 685.902 35, 683.914 39.971, 684.242 68 C 684.477 88.046, 684.421 88.681, 681.725 96.662 C 676.720 111.480, 664.770 125.020, 650.462 132.085 L 644.424 135.066 624.962 125.224 C 614.258 119.811, 602.414 113.028, 598.641 110.149 C 583.401 98.520, 572.042 94.633, 553 94.529 C 541.711 94.468, 539.057 94.159, 536.798 92.645 C 529.582 87.807, 512.680 85.540, 495.099 87.053 C 469.844 89.227, 451.181 97.125, 435.271 112.373 C 428.685 118.685, 423.381 122.794, 419 124.978 C 415.425 126.761, 408.712 130.724, 404.081 133.786 L 395.662 139.352 388.581 135.706 C 369.816 126.046, 355.775 113.600, 350.006 101.512 C 345.011 91.046, 343.800 83.617, 343.810 63.500 C 343.818 47.420, 343.600 45.035, 341.766 41.139 C 338.552 34.308, 331.916 32.283, 324.898 35.992 M 696.750 44.754 C 694.492 45.260, 694.595 44.179, 694.542 68 C 694.504 84.557, 694.152 89.709, 692.711 94.786 C 691.730 98.243, 691.176 101.476, 691.482 101.971 C 691.787 102.465, 695.741 104.297, 700.269 106.043 C 710.283 109.904, 718.111 113.890, 715.804 113.953 C 714.400 113.992, 696.717 108.045, 690.840 105.558 C 689.687 105.070, 688.990 105.457, 688.555 106.828 C 688.210 107.913, 686.185 111.498, 684.054 114.796 L 680.179 120.791 685.838 124.645 C 697.691 132.719, 717.213 155.121, 714.639 157.695 C 714.331 158.003, 708.999 153.078, 702.789 146.752 C 696.580 140.426, 688.197 132.965, 684.161 130.172 L 676.821 125.095 671.780 129.079 C 669.008 131.271, 663.652 134.867, 659.878 137.071 L 653.016 141.079 664.344 152.290 C 676.679 164.497, 682.316 171.661, 692.106 187.574 C 695.622 193.291, 698.753 197.975, 699.062 197.984 C 700.099 198.013, 710.448 184.951, 716.208 176.341 C 740.436 140.126, 743.032 106.399, 724.333 70.814 C 716.148 55.237, 703.459 43.250, 696.750 44.754 M 322.519 51.320 C 306.981 67.634, 297.093 96.291, 298.303 121.500 C 299.580 148.124, 309.845 168.617, 333.788 192.342 L 343.721 202.185 348.402 194.397 C 356.589 180.775, 364.178 170.974, 376.195 158.501 L 387.890 146.362 382.195 143.575 C 379.063 142.042, 372.841 138.405, 368.369 135.494 L 360.239 130.201 354.369 136.177 C 344.133 146.599, 330.889 156.222, 329.160 154.494 C 328.436 153.769, 330.512 151.827, 346.745 138.044 L 357.882 128.587 352.615 122.544 C 349.718 119.220, 346.213 114.809, 344.826 112.742 L 342.304 108.983 331.402 117.114 C 325.406 121.586, 319.426 126.202, 318.114 127.372 L 315.729 129.500 316.829 127.382 C 318.402 124.354, 332.653 111.255, 337.181 108.676 C 339.807 107.180, 340.804 106.031, 340.374 105 C 335.305 92.861, 334.635 88.777, 334.303 68 C 334.123 56.725, 333.770 46.938, 333.519 46.250 C 332.436 43.282, 328.403 45.141, 322.519 51.320 M 492.500 96.622 C 464.793 99.470, 441.781 113.532, 431.767 133.735 L 427.500 142.344 427.500 154.422 C 427.500 165.422, 427.738 167.009, 430.170 172.196 C 435.068 182.645, 446.517 191.141, 459.250 193.775 C 464.708 194.904, 464.605 195.134, 462.520 186.500 C 459.788 175.184, 460.910 164.542, 465.383 159.341 C 468.831 155.332, 470 156.994, 470 165.909 C 470 172.888, 470.296 174.106, 472.842 177.600 C 484.370 193.417, 506.268 204.172, 531.860 206.586 L 539.220 207.280 538.042 205.079 C 537.395 203.869, 534.446 199.327, 531.491 194.986 C 524.807 185.171, 521.160 174.252, 520.326 161.563 C 519.834 154.058, 520 152.245, 521.281 151.182 C 523.126 149.651, 523.056 149.477, 525.920 162.761 C 528.368 174.117, 530.282 178.548, 537.102 188.639 C 542.623 196.810, 546.935 205.969, 546.976 209.614 C 547.038 215.073, 526.222 216.718, 510.500 212.497 C 501.552 210.095, 485.333 201.811, 478.269 196.035 L 472.038 190.940 472.637 193.933 C 474.272 202.109, 468.935 205.388, 457.667 203.130 C 438.441 199.278, 423.535 186.137, 418.464 168.565 C 416.401 161.420, 416.853 146.030, 419.331 139.039 C 420.200 136.586, 420.782 134.448, 420.623 134.290 C 419.615 133.282, 400.092 147.979, 391.251 156.402 C 374.460 172.400, 362.209 188.799, 349.914 211.736 L 345.500 219.972 340.838 219.986 C 329.201 220.021, 315.532 215.898, 292 205.255 C 264.468 192.803, 253.045 189.722, 234.500 189.748 C 206.819 189.787, 172.598 203.717, 155.548 221.886 L 152.596 225.031 158.329 223.059 C 176.459 216.821, 203.440 213.180, 218.259 214.972 C 236.922 217.227, 246.854 221.184, 269 235.187 C 284.829 245.196, 290.535 248.194, 297.932 250.388 C 307.979 253.370, 325.482 251.905, 334.299 247.346 C 335.887 246.524, 337.329 245.998, 337.503 246.176 C 337.677 246.354, 336.736 252.125, 335.411 259 C 330.873 282.541, 330.064 288.531, 328.520 310 C 327.022 330.832, 326.279 335.465, 319.426 366.750 C 313.901 391.971, 316.360 416.114, 326.545 436.640 C 340.414 464.593, 379.759 491.128, 432.108 507.835 C 443.095 511.341, 462.643 516, 466.369 516 C 469.896 516, 470.622 517.806, 467.417 518.610 C 459.575 520.578, 436.871 517.050, 420.500 511.320 C 404.944 505.875, 405.117 505.868, 397.246 512.247 C 361.835 540.942, 326.527 560.702, 294.686 569.643 C 286.984 571.806, 284.977 572.733, 285.361 573.950 C 285.630 574.802, 287.089 578.875, 288.603 583 C 290.942 589.371, 291.420 592.457, 291.779 603.500 C 292.352 621.135, 289.276 632.577, 281.466 641.857 L 278.822 645 296.533 645 C 345.515 645, 379.655 632.333, 398.151 607.296 C 402.685 601.158, 404 600.710, 404 605.304 C 404 612.682, 397.852 620.759, 382.766 633.197 C 375.984 638.789, 359.957 671.955, 353.867 693 C 348.198 712.592, 347.105 738.629, 350.509 773 C 354.508 813.373, 353.737 836.312, 346.982 878 C 344.799 891.475, 342.897 905.425, 342.756 909 L 342.500 915.500 351.544 920.045 C 365.956 927.288, 377.302 929.501, 400 929.497 C 427.327 929.492, 428.838 928.816, 432.419 915 C 435.885 901.626, 440.321 891.008, 453.937 863.500 C 460.803 849.628, 467.991 833.364, 470.969 824.960 C 476.804 808.496, 477.310 807.456, 478.978 808.487 C 479.786 808.986, 480.069 811.541, 479.840 816.279 L 479.500 823.329 482.500 824.308 C 484.150 824.846, 493.825 825.321, 504 825.363 C 533.217 825.484, 557.657 820.438, 578.719 809.936 C 590.981 803.821, 593.251 803.325, 592.299 806.964 C 590.576 813.552, 573.058 823.951, 556.121 828.439 C 550.962 829.806, 546.541 831.126, 546.295 831.372 C 546.049 831.618, 549.407 842.547, 553.758 855.660 C 558.109 868.772, 564.555 888.883, 568.081 900.352 C 575.464 924.362, 574.350 923.015, 588.500 925.044 C 612.786 928.527, 650.474 923.954, 657.791 916.637 C 659.726 914.702, 657.615 886.045, 652.033 838.500 C 650.419 824.750, 648.393 805.400, 647.531 795.500 C 646.669 785.600, 645.688 775.538, 645.352 773.140 L 644.740 768.779 639.560 774.390 C 630.311 784.408, 629.450 780.962, 637.417 765.805 C 658.965 724.808, 660.169 684.135, 642.364 598.676 C 640.395 589.229, 637.774 576.577, 636.538 570.561 L 634.291 559.622 629.384 556.473 C 622.773 552.231, 616.081 544.585, 611.730 536.305 C 608.121 529.438, 604 516.579, 604 512.187 C 604 510.892, 603.663 509.987, 603.250 510.174 C 602.837 510.361, 599.800 511.918, 596.500 513.633 C 587.385 518.371, 571.384 524.079, 563 525.584 C 542.446 529.273, 515.885 525.259, 511.928 517.866 C 510.849 515.849, 510.965 515.771, 514.145 516.366 C 544.063 521.968, 570.115 518.897, 594.056 506.945 C 602.950 502.505, 603.556 501.864, 604.286 496.132 C 606.001 482.649, 622.076 463.524, 638.500 455.426 C 655.341 447.121, 677.548 446.920, 694.637 454.917 L 700.948 457.871 706.999 450.685 C 720.560 434.579, 726.238 417.831, 726.384 393.500 C 726.489 376.173, 725.968 372.730, 720.331 353.500 C 714.213 332.627, 713.931 330.497, 713.030 298.500 C 711.781 254.110, 707.095 234.893, 689.907 203.670 C 671.247 169.772, 652.760 150.881, 621.771 134.042 L 614.043 129.843 616.269 134.671 C 618.821 140.210, 619.585 159.809, 617.336 162.062 C 615.524 163.877, 606.618 163.635, 603.649 161.689 C 600.141 159.391, 600.185 159.326, 601.181 165.250 C 602.865 175.268, 599.380 190.058, 592.988 200.019 C 586.756 209.731, 574.894 218.410, 568.676 217.808 C 564.890 217.441, 564.650 215.228, 567.343 205.540 C 569.414 198.092, 569.433 188.586, 567.396 179.500 C 566.533 175.650, 565.579 170.250, 565.276 167.500 L 564.726 162.500 566.842 164.386 C 571.080 168.164, 575.969 186.772, 576.030 199.360 L 576.060 205.500 580.031 201 C 591.501 188.003, 595.133 171.754, 590.886 152.442 C 589.267 145.080, 589.047 142.556, 589.947 141.664 C 591.144 140.479, 592.071 141.336, 602.078 152.874 C 604.334 155.476, 606.506 157, 607.956 157 C 610.198 157, 610.245 156.802, 609.808 149.237 C 608.665 129.492, 588.354 109.022, 565.817 104.901 C 560.197 103.873, 556.699 103.960, 543.817 105.446 C 524.637 107.659, 517.963 106.034, 526.046 101.118 L 529.091 99.266 524.796 98.070 C 520.352 96.832, 499.535 95.899, 492.500 96.622 M 789.692 197.591 C 785.398 198.367, 770.548 202.814, 756.692 207.472 C 731.097 216.079, 720.009 219, 712.935 219 C 710.771 219, 709 219.180, 709 219.400 C 709 219.619, 710.526 223.782, 712.391 228.650 C 714.255 233.517, 716.101 239.008, 716.492 240.851 C 717.428 245.263, 723.651 248.140, 733.657 248.788 C 742.899 249.386, 751.020 246.942, 764.500 239.504 C 792.522 224.043, 806.114 218.572, 823.926 215.582 C 842.906 212.396, 867.322 215.069, 874.131 221.077 C 876.180 222.885, 876.230 223.070, 874.500 222.447 C 850.244 213.712, 810.849 222.125, 773.332 244.052 C 751.772 256.653, 734.350 260.483, 721.600 255.425 C 719.975 254.780, 719.786 255.020, 720.292 257.086 C 720.617 258.414, 721.434 263.486, 722.108 268.359 L 723.333 277.217 728.327 281.164 C 738.821 289.459, 759.742 297.821, 776.991 300.614 C 805.172 305.177, 840.871 293.234, 861.592 272.310 C 875.280 258.488, 882.432 245.535, 882.469 234.500 C 882.499 225.750, 880.711 222.487, 872.500 216.297 C 851.791 200.685, 816.581 192.731, 789.692 197.591 M 191.500 221.622 C 171.619 223.222, 149.611 227.989, 147.973 231.051 C 140.610 244.807, 169.226 277.532, 202.056 292.901 C 246.057 313.499, 287.131 307.942, 317.226 277.317 C 321.908 272.553, 323.413 270.136, 325.476 264.070 C 326.864 259.989, 328 256.525, 328 256.373 C 328 256.220, 325.863 256.752, 323.250 257.555 C 304.813 263.217, 292.128 259.931, 265.463 242.584 C 239.998 226.019, 229.697 222.221, 208.500 221.581 C 201.900 221.382, 194.250 221.400, 191.500 221.622 M 635.500 229.661 C 626.796 232.036, 629.067 237.990, 638.684 238.010 C 645.731 238.024, 653.102 241.855, 660.010 249.093 C 664.645 253.948, 666.254 255.054, 667.915 254.527 C 674.454 252.451, 664.928 238.085, 652.964 231.982 C 648.693 229.803, 639.471 228.577, 635.500 229.661 M 412.263 233.405 C 402.238 238.173, 394 247.870, 394 254.901 C 394 260.122, 397.371 258.923, 404.579 251.138 C 412.191 242.916, 418.361 239.815, 427.278 239.731 C 432.504 239.682, 433.316 239.400, 434.273 237.301 C 437.059 231.186, 422.387 228.589, 412.263 233.405 M 260.323 264.286 C 259.158 266.171, 263.126 267.841, 270.335 268.501 C 281.946 269.562, 301.474 266.929, 298.933 264.644 C 297.857 263.675, 260.912 263.333, 260.323 264.286 M 740 265.933 C 740 267.455, 742.733 267.901, 758.482 268.943 C 771.985 269.838, 777.073 269.399, 774.151 267.594 C 770.811 265.529, 740 264.030, 740 265.933 M 664.302 316.067 C 662.825 316.625, 661.738 318.306, 660.985 321.198 C 660.369 323.564, 659.455 327.087, 658.954 329.026 C 657.176 335.908, 650.059 343.056, 643.041 345.005 C 626.823 349.511, 611.486 340.660, 607.066 324.244 C 605.745 319.339, 604.028 318.878, 601.073 322.635 C 594.794 330.617, 603.410 345.453, 618.500 352.645 C 642.246 363.962, 669.158 350.244, 671.710 325.522 C 672.457 318.287, 669.252 314.197, 664.302 316.067 M 459.035 320.934 C 458.466 321.998, 457.990 324.361, 457.978 326.184 C 457.895 338.749, 444.181 348.788, 428.477 347.780 C 415.779 346.965, 410.145 342.114, 405 327.568 C 402.131 319.456, 399.451 317.855, 396.438 322.454 C 391.307 330.285, 402.759 350.301, 415.824 356.339 C 423.019 359.664, 438.431 359.439, 446.019 355.898 C 452.921 352.677, 463.728 342.793, 466.136 337.500 C 469.068 331.056, 468.304 322.238, 464.600 319.765 C 462.611 318.437, 460.088 318.967, 459.035 320.934 M 532 341.616 C 484.517 345.696, 449.197 368.411, 437.331 402.500 C 429.804 424.122, 436.287 454.656, 450.764 465.772 L 454.028 468.278 449.601 459.889 C 433.034 428.495, 440.169 394.627, 467.640 374.269 C 512.171 341.266, 582.506 343.536, 621.569 379.237 C 634.592 391.139, 643 411.228, 643 430.442 C 643 435.496, 644.157 436.216, 646.509 432.626 C 651.741 424.641, 647.544 401.049, 638.214 386 C 620.763 357.853, 573.396 338.060, 532 341.616 M 832.035 356.934 C 831.406 358.110, 831 368.057, 831 382.288 C 831 412.695, 830.449 418.394, 827.599 417.486 C 811.267 412.283, 794.059 422.545, 794.038 437.500 C 794.014 455.492, 820.639 460.261, 833.498 444.568 C 840.194 436.396, 840.500 434.640, 840.500 404.334 C 840.500 389.392, 840.779 376.888, 841.121 376.546 C 842.132 375.535, 860.539 381.833, 862.318 383.799 C 863.225 384.802, 864.463 389.033, 865.098 393.303 C 867.182 407.311, 872.500 399.791, 872.500 382.838 L 872.500 373.111 869 369.470 C 864.520 364.809, 862.021 363.542, 848.062 358.853 C 834.948 354.447, 833.462 354.269, 832.035 356.934 M 595.219 385.256 C 587.699 387.665, 581.970 398.805, 585.689 403.785 C 588.442 407.473, 589.073 407.242, 590.914 401.875 C 592.933 395.988, 594.634 394, 597.654 394 C 600.104 394, 600.363 394.362, 601.446 399.293 C 602.284 403.108, 604.852 403.901, 607.156 401.056 C 611.020 396.284, 608.554 387.086, 602.881 385.108 C 599.280 383.853, 599.615 383.847, 595.219 385.256 M 492.111 387.560 C 488.490 390.607, 487.321 395.412, 488.978 400.435 C 489.626 402.396, 490.308 404, 490.496 404 C 492.642 404, 494.010 402.119, 494.567 398.399 C 494.932 395.966, 495.672 393.703, 496.211 393.370 C 498.239 392.116, 502.472 395.727, 506.699 402.316 C 511.491 409.786, 514.229 410.860, 514.839 405.510 C 516.332 392.407, 500.866 380.193, 492.111 387.560 M 496.975 440.565 C 493.008 450.999, 499.163 472.291, 509.454 483.738 C 522.967 498.767, 537.527 502.325, 553.313 494.456 C 563.768 489.244, 568.462 483.054, 572.967 468.533 C 574.156 464.700, 577.120 458.371, 579.552 454.468 C 587.649 441.478, 586.380 436.809, 576.531 443.348 C 559.872 454.409, 542.363 454.161, 513.793 442.459 C 501.036 437.234, 498.356 436.933, 496.975 440.565 M 660 460.353 C 660 462.242, 666.620 473.976, 667.496 473.640 C 668.072 473.419, 672.021 472.464, 676.272 471.519 C 684.510 469.686, 684.805 469.447, 682.532 466.441 C 680.846 464.212, 680.616 463, 681.879 463 C 682.362 463, 683.317 464.350, 684 466 C 685.176 468.838, 685.546 468.998, 690.871 468.964 L 696.500 468.928 693.500 466.475 C 688.713 462.560, 682.350 460.822, 670.750 460.262 C 664.837 459.977, 660 460.017, 660 460.353 M 652 461.647 C 651.175 461.916, 648.859 462.827, 646.854 463.673 L 643.208 465.210 645.746 472.855 C 647.142 477.060, 648.363 480.606, 648.460 480.735 C 648.648 480.984, 662.212 475.931, 662.911 475.352 C 663.137 475.164, 662.053 471.858, 660.502 468.005 C 657.631 460.872, 656.643 460.134, 652 461.647 M 518 463.647 C 513.518 465.108, 509 467.423, 509 468.258 C 509 470.272, 523.216 483.754, 527.744 486.036 C 534.468 489.424, 541.796 489.313, 549.160 485.710 C 556.723 482.010, 557.531 480.927, 555.564 477.124 C 551.135 468.558, 528.188 460.326, 518 463.647 M 634.340 470.866 C 624.138 479.016, 624.073 479.259, 628.911 491.405 L 630.068 494.309 632.784 491.802 C 634.278 490.423, 637.638 487.857, 640.250 486.099 C 642.862 484.342, 645 482.433, 645 481.857 C 645 479.590, 640.757 467, 639.992 467 C 639.545 467, 637.002 468.740, 634.340 470.866 M 689.351 472.629 C 688.606 472.934, 689.464 475.371, 691.787 479.550 L 695.372 486 702.686 486 C 706.709 486, 710 485.601, 710 485.114 C 710 484.627, 708.163 481.477, 705.917 478.114 L 701.835 472 696.167 472.079 C 693.050 472.122, 689.983 472.370, 689.351 472.629 M 676.250 475.188 C 667.920 477.515, 668.109 477.078, 671.858 485.346 L 674.715 491.648 683.335 489.574 C 693.082 487.229, 692.942 487.549, 688.139 478.565 C 684.947 472.595, 685.237 472.678, 676.250 475.188 M 658.165 481.741 C 654.681 483.137, 651.594 484.895, 651.305 485.647 C 650.851 486.832, 655.736 500, 656.631 500 C 656.928 500, 669.913 493.879, 670.905 493.271 C 671.413 492.961, 665.991 480.111, 665.131 479.587 C 664.784 479.375, 661.649 480.344, 658.165 481.741 M 617.436 490.217 C 614.343 496.998, 612.592 512, 614.894 512 C 615.502 512, 616 511.638, 616 511.195 C 616 510.752, 618.474 507.390, 621.498 503.724 L 626.995 497.059 624.668 490.836 C 621.645 482.752, 620.872 482.686, 617.436 490.217 M 644.500 488.198 C 640.732 490.222, 632 497.243, 632 498.249 C 632 499.392, 638.083 512, 638.634 512 C 638.832 512, 641.693 510.013, 644.991 507.585 C 648.290 505.157, 651.527 502.991, 652.186 502.771 C 653.021 502.493, 652.516 500.277, 650.512 495.436 C 646.980 486.905, 646.958 486.878, 644.500 488.198 M 699.563 490.897 C 699.258 491.391, 700.345 494.653, 701.977 498.147 C 703.735 501.910, 705.404 507.762, 706.071 512.500 C 708.019 526.340, 713.056 527.558, 715.255 514.720 C 716.440 507.800, 714.536 494.556, 711.900 491.379 C 710.612 489.828, 700.469 489.432, 699.563 490.897 M 684.215 493.918 C 680.758 494.918, 677.730 495.937, 677.485 496.182 C 677.240 496.426, 679.137 501.886, 681.701 508.313 L 686.362 520 693.181 520.150 C 696.931 520.232, 700.563 520.345, 701.250 520.400 C 704.737 520.679, 702.571 506.516, 697.672 497 C 694.922 491.657, 693.307 491.287, 684.215 493.918 M 665.500 501.168 C 662.200 502.857, 659.334 504.389, 659.132 504.571 C 658.610 505.042, 665.711 517.858, 668.653 521.756 C 670.677 524.437, 671.443 524.833, 672.995 524.002 C 674.032 523.448, 676.498 522.658, 678.475 522.247 C 680.452 521.836, 682.073 521.050, 682.077 520.500 C 682.098 518.040, 673.690 498.005, 672.656 498.048 C 672.020 498.075, 668.800 499.478, 665.500 501.168 M 624.710 504.899 C 620.291 509.790, 620.317 508.984, 624.324 516.772 L 627.551 523.044 631.300 519.205 L 635.048 515.366 631.734 508.079 L 628.421 500.792 624.710 504.899 M 648.416 511.104 C 645.162 513.361, 642.104 515.579, 641.621 516.033 C 640.631 516.963, 645.421 525.266, 650.700 531.769 L 654.165 536.038 658.974 532.269 C 661.618 530.196, 664.585 528.022, 665.568 527.437 C 667.228 526.449, 667.140 526.062, 664.311 521.937 C 662.638 519.497, 660.076 515.138, 658.618 512.250 C 655.436 505.950, 655.788 505.989, 648.416 511.104 M 617.721 512.756 C 615.305 515.426, 615.574 518.582, 618.803 525.436 L 621.599 531.372 623.956 528.061 L 626.314 524.751 622.878 517.802 C 619.561 511.094, 619.383 510.920, 617.721 512.756 M 633.687 522.805 C 632.209 524.347, 631 526.043, 631 526.572 C 631 528.313, 640.086 537.963, 644.741 541.166 C 649.091 544.159, 649.367 544.219, 650.652 542.461 C 652.479 539.962, 652.526 540.100, 647.989 534.609 C 645.783 531.940, 642.745 527.561, 641.239 524.879 C 638.060 519.219, 637.318 519.015, 633.687 522.805 M 626.072 531.636 C 623.237 535.240, 623.299 535.429, 629.261 541.391 C 636.578 548.709, 647 552.410, 647 547.692 C 647 546.938, 645.975 545.854, 644.723 545.284 C 641.244 543.698, 636.128 539.103, 631.931 533.794 L 628.144 529.002 626.072 531.636 M 683.286 532.402 C 672.322 535.955, 661 545.761, 661 551.704 C 661 554.792, 665.075 565.998, 667.040 568.316 C 667.421 568.765, 668.893 567.152, 670.311 564.733 C 677.415 552.610, 691.214 546.541, 706.191 548.953 C 709.597 549.502, 712.525 549.808, 712.700 549.634 C 713.453 548.881, 705.799 533.963, 704.231 533.130 C 700.988 531.404, 687.781 530.946, 683.286 532.402 M 224.511 555.368 C 219.856 558.772, 223.906 574.292, 232.505 586.007 C 238.921 594.748, 236.378 596.435, 226.493 589.996 L 220.347 585.991 215.424 587.504 C 212.716 588.336, 206.093 589.481, 200.706 590.050 C 184.466 591.763, 182.552 593.471, 185.481 603.630 C 190.520 621.108, 205.816 634.851, 227.179 641.093 C 232.732 642.715, 238.243 643.352, 250 643.728 L 265.500 644.225 270.804 638.615 C 283.720 624.955, 286.513 602.179, 277.778 581.738 C 274.389 573.806, 257.235 562.757, 238.592 556.499 C 230.123 553.656, 227.176 553.419, 224.511 555.368 M 692.994 558.934 C 685.476 561.221, 679.938 566.510, 676.019 575.148 C 673.088 581.607, 673.074 581.557, 685.600 608.526 C 691.980 622.262, 702.383 645.200, 708.717 659.500 C 715.052 673.800, 721.516 688.043, 723.082 691.151 L 725.929 696.803 729.573 693.367 C 735.657 687.628, 747.327 683, 755.710 683 C 759.867 683, 759.919 683.470, 754.078 668.291 C 751.370 661.256, 747.912 651.900, 746.392 647.500 C 742.061 634.960, 740.455 633.829, 728.127 634.637 C 718.601 635.261, 717.852 635.162, 712.580 632.583 C 701.271 627.050, 696.928 616.602, 701.456 605.818 C 701.975 604.581, 701.354 603.717, 699.110 602.557 C 694.741 600.298, 692.118 597.154, 690.934 592.756 C 688.732 584.577, 695.112 570.022, 704.048 562.841 C 708.049 559.626, 708.108 559.494, 705.843 558.858 C 702.664 557.964, 696.052 558.004, 692.994 558.934 M 640.664 573.473 C 643.070 580.638, 648.162 598.911, 651.979 614.079 C 660.379 647.458, 659.735 645.716, 665.594 650.874 C 672.869 657.278, 683.067 661.864, 691.757 662.640 L 699.014 663.288 694.602 653.394 C 678.145 616.486, 672.543 605.693, 669.263 604.583 C 667.504 603.987, 665.262 602.685, 664.282 601.689 C 662.572 599.951, 662.577 599.821, 664.392 598.475 C 665.432 597.703, 666.775 596.908, 667.376 596.708 C 668.394 596.369, 655.074 566.796, 652.869 564.500 C 652.341 563.950, 648.394 562.813, 644.099 561.973 L 636.290 560.447 640.664 573.473 M 720.099 564.750 C 711.778 569.660, 706.959 574.436, 703.674 581.026 C 698.016 592.381, 700.895 596.713, 713.324 595.549 C 719.325 594.986, 720.875 595.144, 721.939 596.426 C 723.468 598.269, 721.014 603, 718.528 603 C 716.745 603, 712.368 608.649, 711.521 612.043 C 709.990 618.183, 718.909 623.839, 731.940 624.992 C 744.067 626.065, 748.670 628.594, 752.708 636.402 L 754.230 639.346 756.145 636.923 C 771.145 617.941, 768.905 589.218, 750.999 570.918 C 740.349 560.034, 731.190 558.206, 720.099 564.750 M 745.517 693.559 C 728.930 699.459, 725.803 707.229, 740.632 705.698 C 749.781 704.754, 763.728 695.605, 761.504 692.007 C 760.416 690.246, 752.734 690.991, 745.517 693.559 M 163.088 714.023 C 157.631 739.471, 169.418 765.174, 191.315 775.573 C 205.656 782.383, 230.894 784.016, 230.237 778.091 C 229.790 774.060, 221.438 763.538, 213.277 756.724 C 209 753.152, 204.600 749.209, 203.500 747.962 L 201.500 745.695 204.989 746.370 C 210.896 747.514, 218.767 753.085, 228.128 762.750 C 233.055 767.837, 237.257 772, 237.466 772 C 238.708 772, 240.169 763.944, 239.714 759.606 C 238.315 746.267, 229.919 734.345, 217.264 727.724 C 208.785 723.288, 204.745 722.214, 191.949 720.995 C 180.613 719.915, 173.830 717.424, 167.793 712.123 L 164.177 708.948 163.088 714.023 M 336.744 767.857 C 333.272 773.733, 321.333 783.739, 312.819 787.908 C 290.008 799.075, 266.690 797.622, 248.293 783.887 C 242.160 779.309, 237 778.537, 237 782.199 C 237 788.182, 256.171 800.211, 271.980 804.147 C 292.637 809.290, 321.028 803.004, 336.264 789.914 L 341.028 785.821 340.387 776.160 C 339.657 765.149, 339.097 763.873, 336.744 767.857 M 341.008 932.152 C 341.016 944.003, 342.334 953.900, 344.593 959.086 C 347.350 965.412, 363.017 972.736, 378.477 974.925 C 386.151 976.012, 387.837 975.627, 388.472 972.640 C 389.760 966.581, 391.989 953.906, 392.542 949.500 C 393.394 942.694, 393.977 940.868, 395.079 941.549 C 397.269 942.902, 399.083 948.543, 400.431 958.188 C 402.532 973.215, 405.519 975.246, 419.275 970.997 C 428.553 968.131, 428.410 968.469, 428.847 948.436 L 429.224 931.142 423.248 933.556 C 401.619 942.292, 365.468 937.892, 344.250 923.941 L 341 921.804 341.008 932.152 M 656 924.612 C 643.484 933.300, 610.210 937.131, 586.637 932.598 C 581.762 931.660, 577.618 931.048, 577.428 931.238 C 576.302 932.365, 584.354 958.707, 586.389 960.552 C 590.463 964.247, 615.572 968.908, 631.727 968.969 C 639.369 968.998, 640.068 968.826, 641.558 966.552 C 643.675 963.322, 643.607 953.796, 641.413 945.974 C 640.482 942.658, 640.006 939.661, 640.354 939.312 C 642.222 937.445, 651.905 951.018, 653.972 958.400 C 655.790 964.892, 657.076 965.647, 661.798 962.993 C 666.144 960.551, 669 956.457, 669 952.670 C 669 949.970, 661.298 923.942, 660.173 922.841 C 659.803 922.479, 657.925 923.275, 656 924.612" stroke="none" fill="#1a1a1a" fill-rule="evenodd"/>
</svg>