<svg xmlns="http://www.w3.org/2000/svg" width="1024" height="1024" viewBox="0 0 1024 1024" version="1.1">
	<path d="M 659.836 17.255 C 655.946 20.533, 654.325 24.559, 653.498 33 C 652.022 48.063, 646.664 59.305, 635.908 69.910 C 624.295 81.360, 606.850 91.269, 598.162 91.349 C 593.149 91.395, 570.689 82.406, 550.500 72.273 C 527.718 60.839, 513.128 57.482, 486.500 57.546 C 466.534 57.594, 461.033 58.397, 448.475 63.095 C 442.458 65.347, 432.645 73.391, 431.495 77.017 C 431.183 77.998, 429.707 79.105, 428.214 79.476 C 423.966 80.531, 403.853 88.534, 398.025 91.488 C 392.794 94.138, 392.735 94.144, 387.675 92.489 C 370.755 86.954, 356.957 75.100, 348.931 59.202 C 345.785 52.971, 345.289 50.312, 344.558 35.767 C 343.858 21.834, 340.103 16, 331.833 16 C 317.127 16, 300.549 36.862, 294.883 62.500 C 292.784 71.994, 293.311 92.840, 295.893 102.500 C 301.330 122.839, 314.389 141.489, 329.857 151.007 C 335.275 154.341, 335.785 155.104, 333.734 156.806 C 331.309 158.819, 323.282 156.001, 312.262 149.269 C 281.414 130.424, 265.234 125.905, 239.039 128.818 C 216.873 131.283, 179.183 144.085, 169.090 152.578 C 158.191 161.749, 160.083 172.420, 176.785 195.968 C 210.112 242.959, 260.563 260.062, 303.816 239.032 C 309.508 236.265, 314.241 233.999, 314.333 233.999 C 314.425 233.998, 314.390 242.436, 314.255 252.749 C 313.854 283.396, 312.906 288.919, 303.832 313.500 C 300.657 322.101, 300.509 323.121, 300.505 336.500 C 300.500 351.465, 301.580 356.648, 306.636 365.917 L 309.045 370.333 306.689 373.917 C 305.393 375.887, 303.561 379.525, 302.618 382 C 300.983 386.294, 300.529 386.653, 292.702 389.830 C 270.945 398.662, 255.824 413.937, 243.534 439.500 C 228.030 471.747, 226.226 505.615, 238.661 530.966 C 251.959 558.077, 288.213 574.006, 322.078 567.618 C 326.796 566.728, 330.903 566, 331.206 566 C 331.508 566, 329.116 574.212, 325.890 584.250 C 301.414 660.412, 303.482 697.391, 338.543 810.500 C 349.240 845.007, 350.383 850.543, 350.411 868 C 350.438 885.071, 347.942 897.044, 340.833 913.930 L 336.595 924 272.020 924 C 202.647 924, 203 923.974, 203 928.985 C 203 934.129, 201.301 934, 268.955 934 L 331.768 934 329.227 940.250 C 325.953 948.303, 325.294 954.735, 327.338 958.686 C 331.141 966.042, 341.798 971.641, 353.934 972.662 C 357.545 972.965, 362.451 974.124, 364.836 975.237 C 368.854 977.113, 370.504 977.219, 387.336 976.686 C 428.864 975.371, 446.859 965.364, 451.058 941.250 L 452.320 934 480.469 934 C 510.826 934, 512.524 933.728, 511.845 928.969 C 511.190 924.377, 508.537 923.975, 480.749 924.247 C 458.038 924.470, 454.999 924.317, 454.999 922.949 C 455 922.095, 457.482 909.045, 460.516 893.949 C 464.598 873.639, 466.295 862.599, 467.042 851.500 C 468.583 828.611, 469.832 818.549, 471.783 813.292 L 473.562 808.500 491.589 808.292 L 509.615 808.085 512.369 816.539 C 513.883 821.189, 518.030 830.890, 521.585 838.097 C 528.875 852.877, 531.789 862.072, 532.645 873 C 533.808 887.838, 529.585 911.283, 521.296 936 C 514.813 955.330, 513.799 964.526, 517.582 969.669 C 521.769 975.363, 536.158 981, 546.505 981 C 549.032 981, 552.539 981.787, 554.300 982.750 C 559.335 985.503, 587.376 985.182, 599.187 982.235 C 626.847 975.334, 637.806 965.358, 641.667 943.567 L 643.362 934 706.526 934 C 766.448 934, 769.775 933.906, 771.345 932.171 C 773.613 929.665, 773.420 927.407, 770.777 925.557 C 768.825 924.189, 761.120 924, 707.277 924 C 662.944 924, 646 923.692, 646 922.887 C 646 922.275, 648.671 909.787, 651.936 895.137 C 658.934 863.740, 660.032 854.716, 659.864 830 C 659.773 816.730, 660.208 808.814, 661.401 802 C 663.849 788.020, 668.145 766.561, 668.589 766.096 C 668.801 765.874, 672.018 767.091, 675.737 768.801 C 710.952 784.989, 753.445 769.176, 767.911 734.500 C 774.812 717.960, 775.863 694.896, 770.488 677.961 C 770.075 676.660, 771.257 675.480, 775.219 673.239 C 787.117 666.508, 795.507 657.586, 802.124 644.630 C 816.212 617.042, 811.532 579.311, 791.654 560.223 C 782.759 551.682, 778.967 551.722, 777.027 560.377 C 775.311 568.038, 773.764 570.133, 761.328 581.642 C 738.723 602.561, 733.657 608.753, 729.496 620.545 C 723.603 637.249, 727.901 656.503, 740.804 671.198 C 746.603 677.802, 747.305 680.442, 747.272 695.500 C 747.214 721.632, 735.476 738.243, 714.282 742.185 C 704.116 744.075, 690.899 740.241, 682.666 733.012 C 676.973 728.013, 676.763 727.227, 678.044 715.727 C 680.221 696.180, 679.182 675.650, 674.971 655 C 671.894 639.915, 669.417 632.260, 657.979 602.500 C 652.923 589.343, 650.231 577.113, 649.351 563.298 L 648.702 553.096 652.240 546.298 C 666.963 518.007, 668.092 479.282, 654.931 453.985 C 649.014 442.611, 635.039 427.694, 622.503 419.370 C 619.476 417.361, 617.006 415.443, 617.014 415.108 C 617.022 414.774, 619.185 413.312, 621.819 411.859 C 643.612 399.846, 667.262 370.132, 676.911 342.643 C 684.940 319.767, 687.457 304.551, 687.481 278.752 C 687.491 267.340, 687.626 258.002, 687.780 258.002 C 687.934 258.001, 690.762 259.137, 694.063 260.527 C 718.431 270.783, 751.596 269.402, 777.482 257.054 C 809.022 242.009, 843.096 204.195, 843.332 183.978 C 843.476 171.575, 829.920 161.207, 795.699 147.547 C 753.387 130.658, 725.967 131.986, 684.100 152.950 L 667.936 161.044 666.135 156.801 L 664.333 152.559 672.750 144.591 C 702.393 116.532, 711.557 73.198, 695.002 39.371 C 685.721 20.409, 668.755 9.739, 659.836 17.255 M 664.584 26.641 C 664.238 27.544, 663.539 32.156, 663.032 36.891 C 661.315 52.899, 655.595 64.547, 643.692 76.271 C 632.139 87.651, 611.534 99.969, 600.985 101.804 L 596.500 102.584 596.597 110.542 C 596.815 128.343, 609.477 142.390, 629.998 147.595 C 671.844 158.208, 708.828 90.103, 686.224 44.055 C 679.641 30.645, 666.963 20.442, 664.584 26.641 M 327.500 27.138 C 320.212 31.214, 311.941 42.664, 307.733 54.500 C 297.966 81.977, 304.072 112.155, 323.599 132.912 C 329.989 139.704, 339.161 146.336, 340.277 144.970 C 340.489 144.711, 343.100 140.927, 346.081 136.559 C 353.168 126.174, 365.296 113.433, 375.195 105.974 C 379.555 102.688, 382.609 100, 381.981 100 C 379.728 100, 366.662 92.857, 361.135 88.603 C 343.853 75.304, 335.092 59.426, 334.900 41.056 C 334.752 26.830, 333.216 23.942, 327.500 27.138 M 467.500 68.497 C 454.012 71.035, 445.625 75.210, 439.079 82.647 C 430.041 92.916, 430.114 108.314, 439.247 117.750 C 443.310 121.948, 443.539 121.888, 444.957 116.250 C 448.630 101.648, 463.021 87, 473.693 87 C 481.011 87, 480.358 91.698, 472.397 96.331 C 454.092 106.985, 449.868 129.662, 463.843 142.250 C 469.739 147.561, 472.544 147.342, 473.344 141.506 C 475.040 129.134, 487.897 113.200, 503 104.753 C 509.235 101.266, 512.500 100.643, 514.428 102.571 C 517.141 105.284, 516.210 106.797, 508.712 111.857 C 493.584 122.065, 483.680 136.470, 483.309 148.803 C 483.055 157.269, 482.025 158.371, 474.966 157.731 C 464.594 156.790, 452.560 147.936, 448.093 137.959 C 446.710 134.871, 445.121 133.366, 441.152 131.389 C 430.337 125.999, 423.559 114.294, 423.523 100.942 L 423.500 92.385 418.709 94.204 C 380.096 108.865, 354.875 132.787, 339.362 169.468 C 328.655 194.785, 324.457 218.660, 323.621 259 C 323.099 284.192, 322.093 291.445, 317.441 303.552 C 309.534 324.128, 309.604 323.840, 309.550 336 C 309.499 347.735, 311.333 357, 314.590 361.454 C 315.995 363.376, 316.140 363.373, 327.256 361.188 C 333.440 359.972, 339.460 358.983, 340.633 358.989 C 342.554 358.999, 342.833 358.276, 343.451 351.683 C 347.610 307.299, 398.285 282.022, 458.052 294.519 C 492.475 301.717, 512.357 324.382, 513.736 358 C 514.985 388.436, 499.649 409.261, 469.824 417.629 L 463.704 419.347 466.671 421.997 C 473.852 428.414, 514.669 431.468, 545.500 427.897 C 631.721 417.908, 680.158 359.961, 677.787 269.633 L 677.316 251.675 673.408 248.588 C 663.260 240.570, 661.475 238.395, 662.545 235.354 C 664.077 230.995, 666.204 231.406, 674.162 237.594 C 682.548 244.116, 700.422 253.025, 710 255.457 C 736.679 262.232, 766.783 255.284, 793.266 236.240 C 812.430 222.459, 833.996 194.566, 833.999 183.557 C 834.001 176.683, 815.220 164.545, 789 154.475 C 771.501 147.755, 764.422 146.498, 744.500 146.570 C 721.116 146.655, 716.615 147.943, 685.500 163.459 C 660.120 176.115, 657.672 176.986, 647.450 176.994 C 639.919 177, 638 176.058, 638 172.357 C 638 169.218, 641.641 167.014, 646.973 166.924 C 651.838 166.842, 658.186 164.949, 658.686 163.431 C 659.360 161.381, 654.954 155.803, 653.209 156.498 C 649.668 157.909, 635.917 158.245, 629.798 157.069 C 613.516 153.942, 597.162 141.981, 590.915 128.631 C 588.116 122.651, 585.632 111.467, 586.481 108.665 C 586.675 108.024, 587.104 105.567, 587.436 103.203 L 588.039 98.907 582.269 96.346 C 579.096 94.937, 572.900 92.464, 568.500 90.851 C 564.100 89.238, 554.425 85.038, 547 81.518 C 520.070 68.750, 491.248 64.029, 467.500 68.497 M 231.500 139.621 C 216.684 142.291, 180.796 155.366, 174.548 160.370 C 169.197 164.655, 170.887 170.631, 182.077 187 C 215.956 236.557, 263.568 251.541, 307.365 226.432 L 315.760 221.619 316.318 216.560 C 316.625 213.777, 317.172 210.101, 317.535 208.390 L 318.194 205.280 311.847 204.582 C 296.603 202.905, 286.217 198.561, 270.776 187.406 C 260.500 179.982, 250.838 175.104, 241 172.374 C 234.662 170.615, 229.207 170.468, 202 171.327 C 196.517 171.499, 196.500 171.491, 196.500 168.500 C 196.500 163.333, 201.619 161.672, 219 161.198 C 239.479 160.640, 255.070 164.770, 269.062 174.459 C 288.459 187.891, 292.374 190.246, 299.112 192.538 C 303.135 193.906, 309.449 195.307, 313.145 195.650 L 319.864 196.275 321.486 190.387 C 322.379 187.149, 324.434 180.585, 326.054 175.800 C 329.583 165.376, 329.543 166, 326.697 166 C 323.638 166, 311.227 159.874, 296.660 151.175 C 275.627 138.612, 256.206 135.169, 231.500 139.621 M 751 170.365 C 736.030 173.853, 722.196 180.481, 707 191.448 C 689.852 203.823, 680.237 207.948, 668.450 207.984 C 662.991 208.001, 661 209.208, 661 212.500 C 661 216.054, 662.994 217, 670.490 217 C 684.282 217, 691.944 213.849, 713.070 199.488 C 738.023 182.525, 749.887 178.447, 771.950 179.249 C 783.035 179.652, 787.014 180.232, 793.824 182.438 C 801.595 184.955, 802.308 185.028, 804.574 183.544 C 809.743 180.156, 806.136 176.813, 792.500 172.351 C 782.876 169.202, 760.574 168.135, 751 170.365 M 537.903 196.109 C 531.319 197.085, 527 199.548, 527 202.326 C 527 206.318, 528.606 206.896, 538.020 206.286 C 548.491 205.607, 554.025 207.659, 559.246 214.157 C 563.399 219.325, 568.310 219.448, 568.802 214.396 C 569.749 204.683, 551.782 194.050, 537.903 196.109 M 353.484 199.884 C 343.639 204.856, 338.140 211.997, 341.537 215.395 C 344.048 217.906, 346.508 217.320, 351.461 213.034 C 357.702 207.633, 362.913 206.111, 367.569 208.331 C 376.327 212.508, 381.006 206.157, 373.428 200.377 C 367.920 196.176, 361.156 196.009, 353.484 199.884 M 338.586 277.229 C 334.004 284.222, 345.177 301.086, 356.394 304.106 C 369.982 307.765, 390 294.713, 390 282.195 C 390 277.112, 384.022 274.006, 381.928 278 C 381.495 278.825, 380.155 281.667, 378.950 284.316 C 376.212 290.331, 370.817 294.138, 364.225 294.705 C 356.571 295.363, 353.247 292.994, 348.500 283.500 C 344.061 274.622, 341.398 272.937, 338.586 277.229 M 511.243 278.157 C 508.081 281.319, 511.822 292.668, 518.092 298.938 C 532.348 313.194, 561.416 309.826, 570.042 292.918 C 576.086 281.071, 568.230 276.205, 561.189 287.434 C 556.385 295.096, 552.997 297.131, 544.008 297.750 C 531.407 298.618, 523.442 293.702, 519.298 282.500 C 517.350 277.231, 513.984 275.416, 511.243 278.157 M 414 301.118 C 378.585 305.170, 353.162 326.872, 353.024 353.170 L 353 357.841 359.750 358.443 C 390.633 361.198, 409.384 366.163, 426.078 376.006 C 440.411 384.458, 446.820 392.894, 447.755 404.542 L 448.263 410.869 452.070 411.512 C 460.446 412.927, 481.293 404.822, 490.757 396.471 C 510.829 378.761, 509.850 340.626, 488.790 319.876 C 474.199 305.500, 443.340 297.761, 414 301.118 M 377.115 330.632 C 373.800 332.954, 374.579 336.106, 380.312 343.577 C 385.852 350.797, 389.112 352.354, 391.330 348.838 C 393.569 345.290, 386.446 331.771, 381.365 329.925 C 379.988 329.425, 378.481 329.675, 377.115 330.632 M 456.500 334.389 C 447.942 338.127, 441.428 347.951, 444.449 352.562 C 446.515 355.715, 448.620 355.648, 451.326 352.345 C 457.168 345.211, 459.019 344, 464.083 344 C 468.139 344, 469.220 343.593, 470.548 341.567 C 474.566 335.435, 465.136 330.616, 456.500 334.389 M 336.547 368.111 C 324.310 369.894, 318.180 373.069, 313.879 379.852 C 309.657 386.510, 309.972 389.376, 315.098 390.911 C 324.175 393.631, 331.937 404.089, 331.978 413.653 C 332.026 424.824, 318.318 456.759, 308.977 467.237 C 304.494 472.266, 303.560 474.106, 301.411 482.134 C 300.063 487.172, 299.084 491.418, 299.236 491.569 C 299.388 491.721, 302.434 491.110, 306.006 490.212 C 314.801 488, 338.676 488.085, 348.838 490.364 C 366.053 494.225, 383.585 501.981, 395.529 511.022 C 403.248 516.864, 402.950 516.988, 406.075 506.645 L 408.147 499.790 406.089 494.645 C 401.311 482.698, 401.016 472.514, 405.093 460.234 C 408.989 448.499, 420.883 433.709, 429.482 429.905 C 432.932 428.379, 434 427.368, 434 425.628 C 434 424.375, 435.125 420.043, 436.500 416 C 439.512 407.146, 439.632 403.159, 437.042 398.082 C 427.059 378.513, 373.920 362.666, 336.547 368.111 M 294.470 399.267 C 276.923 407.056, 266.165 416.824, 263.929 427 C 261.927 436.108, 262.134 450.165, 264.373 457.103 C 268.135 468.762, 278.614 478.327, 287.750 478.442 L 292.345 478.500 293.703 473.197 C 294.765 469.055, 296.213 466.744, 300.322 462.634 C 306.707 456.249, 319 433.012, 319 427.328 C 319 424.929, 300.875 426.371, 292.085 429.469 C 287.059 431.240, 283.762 429.910, 284.183 426.282 C 284.833 420.680, 297.327 416.704, 314.307 416.695 L 323.225 416.691 322.727 412.269 C 321.947 405.350, 316.082 400.071, 307.500 398.565 C 305.300 398.179, 302.600 397.677, 301.500 397.449 C 300.400 397.221, 297.237 398.040, 294.470 399.267 M 445.274 421.169 C 444.662 421.907, 443.862 423.701, 443.497 425.155 C 442.868 427.661, 443.094 427.854, 447.828 428.870 C 450.576 429.459, 455.113 430.811, 457.912 431.874 C 464.318 434.309, 464.292 433.462, 457.750 426.533 C 452.220 420.677, 447.402 418.605, 445.274 421.169 M 601.964 422.515 C 590.481 428.352, 562.262 435.936, 544.500 437.959 C 527.720 439.870, 494.710 438.670, 479.250 435.587 C 475.813 434.901, 473 434.511, 473 434.720 C 473 436.804, 476.475 440.901, 478.715 441.459 C 480.247 441.840, 484.757 444.599, 488.737 447.590 C 509.162 462.938, 550.651 489, 554.659 489 C 555.163 489, 557.446 486.156, 559.731 482.680 C 565.821 473.417, 572.243 467.798, 576.293 468.190 C 581.389 468.683, 581.188 472.198, 575.738 477.878 C 572.019 481.755, 565 491.274, 565 492.442 C 565 492.630, 566.237 493.092, 567.750 493.470 C 573.353 494.868, 586 504.663, 586 507.604 C 586 509.554, 581.580 512.160, 579.577 511.391 C 578.640 511.032, 574.948 508.776, 571.372 506.378 C 567.796 503.980, 562.312 501.340, 559.185 500.510 C 545.934 496.994, 513.085 477.975, 489.500 460.162 L 481.500 454.120 480.772 459.810 C 477.600 484.588, 464.818 504.634, 444.624 516.500 C 442.289 517.872, 452.145 530.390, 467.888 546.050 C 522.635 600.504, 582.997 609.256, 624.115 568.701 C 656.428 536.831, 664.699 484.961, 642.735 451.929 C 635.947 441.721, 622.321 429.199, 611 422.767 L 606.500 420.210 601.964 422.515 M 433.507 438.506 C 428.573 441.189, 424.601 444.594, 422.826 447.659 L 421.152 450.551 429.705 454.931 C 440.594 460.506, 451.245 470.090, 450.801 473.912 C 450.336 477.914, 444.786 478.106, 440.623 474.264 C 434.639 468.742, 419.040 459, 416.182 459 C 415.563 459, 414.316 461.546, 413.411 464.659 C 411.008 472.925, 411.812 484.739, 415.296 492.340 C 418.053 498.357, 428.010 509.234, 431.888 510.464 C 437.461 512.233, 454.299 499.518, 460.899 488.555 C 465.487 480.936, 470.733 465.095, 471.560 456.361 L 472.236 449.223 467.606 446.509 C 454.072 438.578, 439.613 435.184, 433.507 438.506 M 251.745 443.663 C 249.424 447.236, 243.832 464.009, 242.056 472.723 C 232.690 518.685, 253.731 552.682, 295.450 558.995 C 306.576 560.678, 325.086 558.652, 333.468 554.833 C 336.098 553.634, 341.730 539.345, 340.666 536.571 C 340.379 535.823, 337.074 534.203, 333.322 532.972 C 318.292 528.038, 302.843 518.956, 295.399 510.676 C 289.501 504.117, 288.692 501.887, 289.486 494.373 L 290.133 488.247 285.619 487.570 C 267.988 484.926, 254.772 468.181, 252.810 446 C 252.631 443.977, 252.181 442.991, 251.745 443.663 M 311 498.384 C 307.975 499.052, 304.253 500.270, 302.729 501.089 L 299.958 502.578 302.009 504.779 C 320.863 525.016, 378.949 538.479, 395.426 526.431 C 397.878 524.638, 396.289 522.656, 387.720 516.821 C 365.621 501.772, 332.106 493.718, 311 498.384 M 412.038 517.702 C 410.154 522.662, 407.385 527.782, 405.395 529.984 C 398.171 537.981, 383.701 541.153, 363.803 539.102 C 357.202 538.422, 351.568 538.098, 351.283 538.383 C 350.475 539.192, 333.347 590.964, 328.951 605.887 C 312.271 662.514, 315.503 703.252, 344.073 796.500 C 358.701 844.245, 360.564 853.405, 359.717 873.403 C 359.360 881.840, 358.422 889.314, 357.081 894.410 C 354.452 904.402, 354.350 903.701, 358.704 905.521 C 368.604 909.657, 388.721 913.505, 406 914.568 C 419.468 915.397, 442.371 912.878, 446.890 910.072 C 450.076 908.094, 457.370 864.624, 458.984 838 C 459.867 823.435, 461.388 813.333, 463.540 807.750 C 464.071 806.370, 463.685 806, 461.714 806 C 460.339 806, 454.025 804.690, 447.684 803.088 C 415.721 795.016, 381.788 773.612, 389.200 766.200 C 391.250 764.150, 392.814 764.796, 402.299 771.612 C 427.654 789.833, 454.272 798.182, 487.659 798.388 C 497.646 798.450, 506.044 798.275, 506.321 798 C 506.598 797.725, 505.877 791.726, 504.719 784.668 C 502.418 770.647, 502.722 768.737, 507.342 768.184 C 510.807 767.770, 511.306 769.073, 514.469 786.802 C 517.728 805.063, 522.308 819.096, 530.460 835.800 C 542.698 860.878, 544.520 875.294, 539.363 906.248 C 538.747 909.949, 538.800 910.024, 543.569 912.134 C 546.226 913.309, 553.822 915.432, 560.450 916.852 C 583.678 921.829, 630.858 920.142, 636.881 914.119 C 638.835 912.165, 647.281 876.434, 648.964 863 C 649.550 858.325, 650.204 843.700, 650.418 830.500 C 650.839 804.522, 651.617 798.412, 658.519 766.892 C 669.050 718.804, 670.697 707.128, 669.651 688 C 668.422 665.542, 663.820 644.111, 655.446 621.853 C 645.328 594.957, 643.837 590.248, 641.954 579.231 C 640.879 572.945, 640 567.350, 640 566.798 C 640 566.247, 636.288 569.599, 631.750 574.248 C 586.357 620.755, 516.955 610.602, 457.368 548.737 C 451.826 542.983, 444.441 534.596, 440.955 530.100 C 436.442 524.278, 433.446 521.406, 430.545 520.123 C 428.305 519.132, 423.952 516.268, 420.871 513.759 L 415.269 509.196 412.038 517.702 M 782 573.582 C 779.659 577.309, 773.610 583.447, 763.737 592.113 C 755.617 599.240, 746.949 607.642, 744.475 610.785 C 731.146 627.716, 732.462 649.309, 747.850 666.145 C 754.499 673.420, 755.441 677.077, 755.418 695.500 C 755.400 709.077, 755.144 711.266, 752.713 718.567 C 742.327 749.772, 707.708 760.974, 680.519 741.929 C 677.356 739.712, 674.645 738.034, 674.494 738.200 C 674.084 738.650, 671 754.003, 671 755.593 C 671 757.255, 680.440 762.164, 687.893 764.376 C 719.947 773.892, 754.681 754.025, 763.025 721.404 C 766.745 706.857, 765.407 684.339, 760.382 676.913 C 753.962 667.428, 754.236 645.393, 760.959 630.470 C 765.771 619.787, 772.130 614.530, 775.800 618.200 C 777.797 620.197, 777.171 622.997, 773.637 627.866 C 768.113 635.477, 765.844 642.985, 765.253 655.609 C 764.922 662.699, 765.105 666.947, 765.762 667.353 C 767.402 668.366, 778.510 660.370, 783.966 654.248 C 804.013 631.757, 806.126 595.285, 788.805 570.750 C 786.214 567.080, 786.039 567.152, 782 573.582 M 343.532 930.118 C 334.556 950.997, 333.942 953.542, 337.077 956.875 C 340.129 960.120, 346.570 962.814, 353.113 963.584 C 359.527 964.337, 359.525 964.339, 363.342 954.500 C 366.967 945.157, 373.084 933.896, 375.250 932.576 C 377.330 931.309, 380.320 932.801, 380.823 935.357 C 381.001 936.260, 379.315 940.976, 377.076 945.836 C 370.947 959.140, 368.701 966.175, 370.240 967.246 C 370.933 967.729, 378.700 967.894, 387.500 967.615 C 416.079 966.708, 433.511 960.759, 438.975 950.049 C 441.959 944.201, 446.162 919.828, 444.083 920.430 C 423.140 926.498, 384.388 924.125, 359.336 915.242 L 351.171 912.347 343.532 930.118 M 531.257 935.258 C 521.717 964.815, 521.907 965.992, 536.932 970.405 C 546.456 973.202, 547.185 972.927, 549.834 965.542 C 552.997 956.721, 559.339 943.790, 561.296 942.167 C 563.280 940.523, 565.944 940.957, 567.325 943.151 C 568.117 944.408, 567.274 947.625, 563.789 956.651 C 561.272 963.168, 558.914 969.922, 558.547 971.659 L 557.881 974.818 565.555 975.537 C 592.522 978.064, 622.971 967.939, 629.586 954.244 C 630.953 951.414, 636.263 926.006, 635.617 925.388 C 635.553 925.326, 630.775 926.141, 625 927.199 C 600.961 931.601, 557.990 928.397, 541.149 920.948 C 538.727 919.877, 536.690 919.004, 536.623 919.008 C 536.555 919.013, 534.141 926.326, 531.257 935.258" stroke="none" fill="#1a1a1a" fill-rule="evenodd"/>
</svg>