<svg xmlns="http://www.w3.org/2000/svg" width="1024" height="1024" viewBox="0 0 1024 1024" version="1.1">
	<path d="M 643.565 47.578 C 641.331 49.812, 640.633 51.288, 636.083 63.401 C 631.453 75.728, 625.002 86.068, 618.214 92.043 L 613.525 96.170 612.013 93.870 C 596.645 70.503, 575.429 57.818, 547 55.003 C 520.301 52.359, 495.990 61.266, 467.074 84.285 C 459.001 90.712, 448.764 97.549, 442.203 100.897 L 438.195 102.941 435.347 100.806 C 424.432 92.622, 418.295 84.168, 410.064 65.976 C 401.777 47.662, 401.749 47.625, 396.668 48.437 C 374.964 51.908, 361.422 73.340, 361.561 104 C 361.644 122.170, 365.258 134.794, 374.023 147.533 L 377.228 152.192 372.864 156.827 C 370.464 159.377, 368.430 161.616, 368.344 161.804 C 368.258 161.992, 359.933 158.253, 349.844 153.495 C 328.401 143.383, 323.589 141.568, 312.790 139.520 C 278.133 132.945, 221.702 148.296, 210.546 167.332 C 205.420 176.078, 206.365 185.561, 213.928 201.285 C 240.568 256.672, 298.502 281.693, 347.592 259.014 L 356.305 254.988 355.686 271.744 C 355.345 280.960, 353.934 297.050, 352.550 307.500 C 349.624 329.589, 349.430 337.472, 351.520 349.452 C 356.920 380.423, 376.296 403.366, 413.225 422.519 L 424.950 428.600 413.225 431.453 C 384.756 438.380, 349.969 449.817, 332.286 458.063 C 301.568 472.389, 281.896 493.023, 259.469 534.444 C 255.973 540.901, 252.774 545.135, 247.964 549.673 C 237.339 559.696, 231.770 572.460, 231.694 586.965 C 231.619 601.037, 239.232 616, 246.465 616 C 247.309 616, 248 616.693, 248 617.540 C 248 620.175, 251.964 627.006, 256.094 631.486 C 264.695 640.817, 277.812 642.552, 291.464 636.164 C 295.172 634.429, 298.631 633.272, 299.150 633.593 C 300.447 634.395, 309.733 632.118, 314 629.952 C 324.947 624.395, 331.664 608.818, 330.766 591.073 L 330.340 582.646 341.194 568.424 C 352.577 553.508, 358.047 548.194, 365.335 544.970 C 371.146 542.399, 384.723 539.276, 393.812 538.419 L 401.124 537.729 395.900 546.615 C 393.028 551.502, 384.827 564.710, 377.677 575.966 C 359.510 604.568, 348.819 627.686, 346.448 643.498 C 345.511 649.746, 343.259 651.810, 330.527 658.085 C 295.354 675.420, 253.115 669.475, 227.500 643.586 C 207.664 623.537, 202.946 601.943, 210.548 566 C 217.206 534.516, 207.855 514.149, 176.631 492.130 C 160.335 480.638, 155.281 474.541, 153.548 464.282 C 152.490 458.022, 148.671 456.433, 145.065 460.754 C 137.489 469.827, 127.971 503.425, 128.017 520.926 C 128.091 548.946, 148.205 575.484, 175.839 584.020 L 181.500 585.769 182.128 601.135 C 183.506 634.832, 191.569 654.111, 212.511 673.777 C 247.225 706.376, 299.181 714.089, 341.221 692.886 C 344.368 691.299, 347.121 690, 347.337 690 C 347.554 690, 348.750 692.812, 349.994 696.250 C 353.052 704.699, 356.028 710.455, 361.383 718.275 L 365.882 724.847 363.229 726.586 C 361.770 727.542, 357.539 731.176, 353.827 734.662 L 347.079 741 339.790 740.997 C 335.132 740.996, 329.070 740.074, 323 738.444 C 317.775 737.041, 310.565 735.522, 306.977 735.069 C 302.406 734.491, 298.997 733.320, 295.582 731.154 C 287.597 726.090, 281.935 724.666, 272.100 725.250 C 241.375 727.075, 215.950 757.965, 205.892 805.686 C 200.553 831.015, 204.715 842.801, 222 851.303 C 228.187 854.346, 229.053 854.498, 240 854.466 C 257.045 854.415, 268.440 849.842, 284.066 836.782 L 290.908 831.064 294.505 832.567 C 299.858 834.803, 328.053 841.697, 339.500 843.569 C 351.119 845.468, 369.154 845.003, 378 842.576 C 408.158 834.302, 444.305 805.288, 461.532 775.527 C 462.500 773.854, 463.514 774.001, 477.991 777.900 C 496.102 782.778, 500.213 784.946, 507.176 793.291 C 520.073 808.746, 542.587 840.909, 555.972 863 C 560.471 870.425, 566.087 878.525, 568.452 881 C 571.793 884.495, 573.249 887.169, 574.973 892.975 C 580.516 911.632, 596.748 932.931, 606.584 934.453 C 608.738 934.787, 611.882 935.496, 613.571 936.030 C 636.077 943.140, 675.635 916.544, 709.581 871.478 C 733.501 839.724, 733.115 820.029, 708.342 808.265 C 695.967 802.388, 688.233 802.553, 665.264 809.183 C 661.668 810.221, 660.310 810.148, 656.264 808.698 C 653.644 807.759, 649.671 806.992, 647.435 806.995 C 642.702 807.001, 644.254 809.554, 630.936 779.858 C 614.848 743.986, 606.336 728.422, 595.398 714.874 L 589.206 707.204 593.151 703.353 C 613.778 683.211, 631.492 636.171, 635.540 590.790 L 636.227 583.080 641.864 586.878 C 660.358 599.340, 671.609 603.394, 687.500 603.324 C 713.244 603.210, 737.231 591.771, 760.010 568.746 C 767.326 561.352, 770.291 557.799, 778.252 546.891 C 780.720 543.510, 781.305 543.249, 787.532 542.749 C 810.370 540.916, 837 511.197, 837 487.542 C 837 477.283, 831.127 464.375, 823.877 458.701 C 821.567 456.893, 820.659 455.282, 820.415 452.556 C 819.957 447.457, 815.912 439.158, 811.949 435.189 C 803.979 427.206, 792.340 426.357, 779.932 432.853 C 772.888 436.540, 771.252 437, 765.165 437 C 746.439 437, 733.074 453.316, 733.015 476.250 C 732.996 483.614, 732.511 484.080, 716.401 492.206 C 701.027 499.961, 694.147 502.513, 690.896 501.666 C 689.578 501.322, 683.038 496.869, 676.363 491.771 C 669.687 486.672, 655.371 475.773, 644.550 467.551 C 625.876 453.362, 624.974 452.524, 626.809 451.051 C 640.809 439.818, 648.828 434.628, 663.870 427.066 C 688.460 414.702, 705.683 397.616, 716.486 374.866 C 727.564 351.540, 724.310 326.377, 706.416 297 C 704 293.032, 702.661 289.132, 701.613 283 C 699.635 271.428, 695.741 237.926, 696.308 237.359 C 696.560 237.107, 699.825 237.433, 703.565 238.085 C 736.213 243.770, 772.002 225.222, 795.146 190.621 C 810.566 167.567, 816.139 149.117, 810.932 138.360 C 803.583 123.179, 774.445 114.784, 739.511 117.782 C 722.989 119.200, 714.355 121.892, 700.500 129.946 C 692.593 134.543, 679.655 141.525, 674.837 143.796 C 674.472 143.968, 675.691 140.597, 677.545 136.304 C 689.062 109.651, 684.793 70.663, 668.584 54.454 C 661.093 46.963, 647.826 43.317, 643.565 47.578 M 646.016 60.730 C 638.461 80.899, 632.390 91.002, 622.763 99.429 L 617.500 104.035 621.250 111.327 C 625.388 119.374, 625.728 121.151, 623.483 123.014 C 621.548 124.620, 609.969 123.668, 599.771 121.063 C 595.772 120.042, 592.391 119.307, 592.257 119.430 C 592.123 119.552, 592.866 121.418, 593.908 123.576 C 598.879 133.872, 599.317 152.274, 594.824 162.079 C 592.256 167.682, 581.540 183.013, 580.211 182.985 C 577.880 182.934, 576.576 180.520, 575.933 175.061 C 575.165 168.548, 571.563 160.276, 567.508 155.713 C 565.227 153.145, 564.203 152.852, 554.524 152.002 C 528.294 149.698, 509.936 141.445, 502.582 128.651 C 499.643 123.538, 498.467 118.448, 500.004 117.497 C 501.280 116.709, 505 119.694, 505 121.505 C 505 127.041, 518.449 137.371, 530.120 140.799 C 536.939 142.803, 558.025 145.250, 557.981 144.033 C 557.970 143.740, 554.823 140.842, 550.988 137.593 C 545.587 133.017, 544.262 131.389, 545.108 130.369 C 548.879 125.826, 573.631 147.696, 580.029 161.225 L 582.747 166.973 585.526 162.962 C 604.535 135.532, 573.327 92.204, 531.780 88.343 C 524.139 87.633, 524.674 86.778, 533.517 85.565 C 544.935 83.998, 566.348 91.994, 577.178 101.868 C 582.645 106.852, 587.661 109.811, 594.268 111.948 C 598.594 113.348, 614 115.946, 614 115.276 C 614 115.030, 612.519 111.823, 610.709 108.149 C 599.600 85.599, 585.792 73.120, 563.667 65.633 C 549.826 60.950, 527.164 61.020, 513 65.791 C 497.252 71.095, 483.432 79.601, 459.475 98.732 L 448.451 107.536 450.322 112.518 C 454.473 123.565, 450.812 136.104, 440.182 147.248 C 424.342 163.855, 404.588 169.277, 388.658 161.392 L 382.815 158.500 380.413 161.500 C 377.227 165.477, 377.304 165.840, 382.250 170.144 C 386.258 173.631, 386.404 173.941, 384.805 175.580 C 382.771 177.667, 370.695 173.136, 344 160.272 C 309.426 143.610, 294.684 142.238, 256.177 152.102 C 233.948 157.796, 221.225 164.894, 216.596 174.182 C 213.115 181.168, 213.227 182.098, 218.968 193.837 C 238.048 232.853, 265.645 253.858, 303.331 258.048 C 321.762 260.097, 330.259 257.989, 357.945 244.500 C 367.540 239.825, 375.951 236, 376.636 236 C 381.151 236, 377.886 240.937, 369.691 246.497 L 364.883 249.760 364.585 267.130 C 364.389 278.545, 363.386 291.357, 361.657 304.500 C 356.681 342.337, 359.001 358.736, 372.079 378.175 C 388.249 402.210, 427.680 424.659, 474.589 436.536 C 493.361 441.289, 494.346 441.631, 493.457 443.069 C 491.678 445.949, 472.179 442.838, 452.047 436.462 L 443.594 433.785 434.547 435.527 C 409.495 440.352, 370.058 451.653, 348.500 460.185 C 311.906 474.666, 290.676 495.021, 267.260 538.076 L 263.139 545.652 266.320 551.352 C 276.256 569.160, 289.820 577.306, 309.604 577.345 C 322.508 577.371, 323.294 576.888, 337.021 560.474 C 350.817 543.979, 353.366 541.636, 361.500 537.966 C 373.331 532.629, 396.493 528.973, 428.137 527.448 C 443.983 526.684, 446.160 527.061, 443.415 530.094 C 441.076 532.678, 436.724 533.767, 421.532 535.567 C 414.399 536.412, 408.549 537.192, 408.532 537.302 C 408.126 539.834, 394.761 563.754, 384.394 580.500 C 358.702 622.002, 352.173 640.247, 353.216 667.622 C 354.412 699.004, 371.138 724.840, 401.588 742.340 C 417.187 751.305, 433.104 756.893, 475 768.115 C 499.556 774.692, 502.966 776.228, 510.654 784.173 C 520.828 794.689, 547.406 832.204, 564.020 859.500 C 575.387 878.176, 573.867 877.464, 579.347 866.682 C 586.832 851.953, 597.594 838.635, 611.307 827.131 C 618.804 820.843, 631.798 811.567, 634.262 810.746 C 635.813 810.229, 612.453 757.907, 603.854 742.634 C 579.239 698.919, 546.016 675.642, 484.715 659.163 C 472.487 655.875, 471.982 655.590, 474.299 653.273 C 475.872 651.700, 476.788 651.741, 488.720 653.922 C 523.589 660.295, 556.830 676.225, 578.327 696.865 L 583.154 701.500 587.740 696.500 C 600.332 682.771, 614.008 654.634, 620.451 629.201 C 629.355 594.052, 630.958 546.121, 624.488 508.526 C 622.021 494.195, 621.902 491, 623.832 491 C 625.431 491, 630.018 502.677, 632.017 511.837 C 634.012 520.977, 637 552.790, 637 564.892 C 637 572.584, 637.656 573.487, 648.500 580.724 C 664.952 591.704, 676.585 595.533, 691 594.713 C 717.327 593.216, 745.284 576.098, 765.587 549.045 L 771.943 540.577 768.471 537.716 C 766.169 535.818, 765 533.998, 765 532.311 C 765 529.496, 764.443 529.452, 774.500 533.059 C 786.243 537.271, 798.812 533.155, 810.962 521.118 C 819.090 513.066, 823.549 506.665, 826.254 499.168 C 835.174 474.447, 814.737 452.238, 795.176 465.394 C 785.342 472.008, 780.621 486.960, 786.287 493.547 C 790.020 497.887, 801.291 498.387, 809.604 494.581 C 816.389 491.475, 818.845 492.397, 814.937 496.584 C 808.504 503.476, 794.233 506.200, 786.154 502.079 C 781.578 499.744, 778.367 495.409, 777.392 490.250 C 776.783 487.029, 776.725 487, 771.003 487 C 764.294 487, 756.047 483.290, 752.659 478.747 C 749.334 474.289, 751.692 473.303, 758.016 476.508 C 767.974 481.554, 777.200 480.920, 778.478 475.102 C 778.830 473.498, 780.656 469.632, 782.537 466.509 L 785.955 460.832 784.075 457.166 C 778.724 446.732, 765.135 442.471, 755 448.049 C 746.948 452.481, 742.583 461.346, 739.515 479.500 C 738.679 484.450, 737.494 489.732, 736.881 491.237 C 735.670 494.214, 734 494.046, 734 490.948 C 734 489.244, 733.489 489.404, 729.707 492.290 C 727.345 494.093, 721.608 497.751, 716.957 500.419 C 712.305 503.087, 702.803 508.809, 695.841 513.135 C 688.878 517.461, 682.916 521, 682.591 521 C 681.062 521, 682.349 518.577, 685.957 514.663 L 689.913 510.370 686.453 509.119 C 684.550 508.431, 675.814 502.289, 667.040 495.470 C 652.241 483.968, 622.190 461.447, 619.193 459.612 C 618.390 459.120, 615.308 460.159, 611.193 462.308 C 584.514 476.243, 563.492 476.893, 539.111 464.534 C 525.545 457.657, 506.164 441.960, 508.947 440.104 C 510.921 438.787, 515.035 440.608, 529.050 449.002 C 549.413 461.197, 562.408 465.619, 575 464.638 C 591.794 463.329, 605.223 457.373, 622.263 443.674 C 636.052 432.589, 641.630 428.934, 660.500 418.616 C 677.722 409.200, 684.802 404.005, 692.322 395.266 C 707.097 378.097, 713.088 365.563, 713.786 350.365 C 714.480 335.263, 712.523 327.893, 702.851 309.171 C 693.689 291.440, 693.364 290.036, 688.017 245.115 C 683.301 205.490, 679.842 190.674, 671.313 173.555 C 663.172 157.215, 654.822 145.934, 641.919 133.842 C 630.987 123.597, 628.529 120, 632.458 120 C 634.693 120, 649.336 131.049, 656.782 138.355 C 665.033 146.451, 664.238 146.649, 668.997 135.302 C 677.937 113.979, 678.089 86.949, 669.364 69.731 C 666.515 64.109, 659.805 56.457, 656.052 54.550 C 649.547 51.245, 649.576 51.227, 646.016 60.730 M 390.970 57.958 C 377.902 64.859, 369.564 82.419, 369.584 103 C 369.607 126.217, 379.681 147.599, 394.137 155.111 C 415.726 166.330, 450.459 137.653, 442.694 115.021 C 441.827 112.496, 440.678 111.302, 438.500 110.664 C 431.986 108.757, 428.196 106.240, 420.966 99.022 C 413.074 91.142, 410.428 86.861, 401.536 67.581 C 395.910 55.383, 395.887 55.361, 390.970 57.958 M 730.069 127.031 C 721.229 128.880, 713.091 132.182, 703.889 137.654 C 695.786 142.473, 675.382 153.039, 672.008 154.164 C 671.329 154.390, 673.276 159.221, 676.901 166.306 C 680.211 172.777, 683.697 180.534, 684.646 183.544 C 686.614 189.789, 686.885 189.824, 695.500 184.945 C 702.804 180.808, 705.470 178.665, 718.345 166.581 C 739.142 147.061, 752.733 140.367, 769.980 141.151 C 783.688 141.773, 783.612 145.547, 769.858 147.170 C 752.569 149.212, 742.435 154.353, 725.845 169.500 C 710.152 183.828, 705.449 187.555, 697 192.358 C 691.502 195.484, 689.534 197.139, 689.626 198.561 C 689.695 199.627, 690.820 206.516, 692.126 213.869 C 694.954 229.793, 693.927 228.955, 711.500 229.696 C 731.744 230.549, 745.015 226.119, 763.280 212.411 C 781.169 198.985, 797.346 176.368, 804.862 154.275 C 809.029 142.026, 801.920 134.493, 781 128.991 C 771.507 126.495, 738.675 125.231, 730.069 127.031 M 250 169.270 C 246.690 170.175, 245.500 170.999, 245.500 172.388 C 245.500 174.140, 246.549 174.296, 260 174.548 C 284.081 175, 294.329 178.813, 315 195.011 C 338.773 213.641, 363.958 222.328, 381.792 218.050 C 393.076 215.343, 389.983 212, 376.194 212 C 355.316 212, 339.905 205.570, 316.500 187.092 C 306.949 179.552, 297.676 174.212, 288.254 170.828 C 281.106 168.261, 257.246 167.289, 250 169.270 M 632.250 173.100 C 630.718 174.693, 630.621 177.648, 632.070 178.543 C 632.659 178.907, 636.286 179.600, 640.131 180.083 C 648.567 181.142, 653.534 183.241, 663.586 189.994 C 667.782 192.812, 671.446 194.888, 671.728 194.606 C 674.472 191.861, 664.435 180.324, 655.456 175.904 C 648.215 172.339, 634.566 170.690, 632.250 173.100 M 477.079 181.643 C 464.767 185.953, 451.927 201.259, 452.032 211.500 L 452.063 214.500 454.280 211.500 C 464.431 197.764, 474.600 190.319, 487.750 186.997 C 492.147 185.886, 493.298 183.698, 490.800 181.200 C 489.156 179.556, 482.419 179.774, 477.079 181.643 M 641.347 239.057 C 627.435 245.944, 621.982 273.377, 630.929 291.475 C 632.553 294.762, 633.796 297.510, 633.691 297.583 C 633.586 297.656, 630.350 297.352, 626.500 296.909 C 587.641 292.433, 545.739 304.109, 525.130 325.156 C 516.109 334.368, 519.198 336.366, 529.321 327.867 C 546.422 313.508, 578.349 303.020, 605 303.007 C 638.559 302.991, 660.601 309.998, 676.822 325.839 C 692.025 340.686, 690.792 365.793, 674.101 381.246 C 657.743 396.391, 624.488 406.151, 594.500 404.608 C 567.321 403.210, 546.116 395.282, 526.686 379.253 C 521.634 375.084, 517.302 371.512, 517.060 371.313 C 515.928 370.386, 520.324 367.609, 524.670 366.505 C 529.487 365.282, 531.220 362.859, 527.755 362.191 C 520.513 360.797, 508.221 368.937, 506.115 376.523 C 503.638 385.446, 506.733 388.665, 510.411 380.989 C 511.462 378.795, 512.465 377, 512.640 377 C 512.814 377, 516.007 380.038, 519.735 383.750 C 525.961 389.951, 526.740 391.211, 529.313 399.234 C 532.203 408.246, 535.593 414.046, 544.106 424.538 C 566.280 451.868, 596.648 449.568, 617.247 419 C 620.026 414.875, 622.424 411.347, 622.574 411.159 C 622.725 410.972, 627.808 409.768, 633.871 408.484 C 653.231 404.384, 671.872 395.361, 681.684 385.340 C 697.185 369.510, 699.550 344.720, 687.318 326.292 C 683.300 320.238, 678.253 315.627, 669.238 309.772 C 663.033 305.743, 662.996 305.692, 665.238 304.199 C 674.567 297.988, 677.977 291.107, 677.990 278.460 C 678.021 249.664, 659.706 229.969, 641.347 239.057 M 643.686 245.868 C 640.133 248.211, 636.615 253.360, 634.169 259.798 L 632.264 264.810 635.382 262.909 C 643.615 257.888, 655.829 261.928, 660.742 271.296 C 664.460 278.383, 664.732 291.416, 661.284 297.250 C 658.754 301.530, 659.460 301.987, 663.615 298.759 C 673.493 291.084, 675.378 278.360, 669.084 261.847 C 663.641 247.569, 652.110 240.314, 643.686 245.868 M 480.500 247.484 C 466.710 253.085, 459.575 265.356, 459.528 283.552 C 459.501 294.320, 459.596 294.797, 463.225 302.141 C 470.869 317.606, 479.892 323.610, 494.226 322.766 C 515.041 321.541, 523.418 313.357, 524.710 292.986 C 525.686 277.610, 520.243 263.144, 509.868 253.539 C 500.477 244.844, 491.538 243.001, 480.500 247.484 M 480.743 255.948 C 461.533 268.131, 461.316 301.021, 480.363 313.750 C 484.289 316.374, 486.215 316.997, 490.363 316.984 L 495.500 316.967 491.503 314.703 C 480.148 308.272, 478.361 284.887, 488.427 274.438 C 493.956 268.697, 507.197 265.597, 510.800 269.200 C 513.404 271.804, 511.784 268.229, 508.241 263.550 C 500.638 253.512, 489.458 250.421, 480.743 255.948 M 563.911 337.281 C 556.961 341.964, 557.485 348.891, 565.095 352.921 C 571.666 356.401, 573.952 355.295, 570.546 350.282 C 569.145 348.221, 568 346.131, 568 345.637 C 568 343.848, 575.051 345.939, 579.621 349.083 C 587.101 354.229, 591.044 349.537, 585.013 342.667 C 578.687 335.463, 569.927 333.227, 563.911 337.281 M 657.386 338.234 C 652.785 342.274, 650.522 347.238, 652.012 350.023 C 653.699 353.174, 656.478 352.343, 660.446 347.500 C 664.667 342.349, 665.054 342.241, 668.945 345.118 C 674.398 349.149, 676.205 343.051, 671.077 337.923 C 666.974 333.820, 662.292 333.927, 657.386 338.234 M 542.145 411.711 C 549.937 423.036, 561.911 433.046, 570.736 435.612 C 580.850 438.552, 593.510 435.042, 602.531 426.797 C 605.577 424.014, 607.831 421.498, 607.541 421.207 C 607.250 420.917, 603.072 418.918, 598.256 416.766 C 590.082 413.112, 588.271 412.722, 571 410.894 C 560.825 409.817, 549.800 408.503, 546.500 407.975 C 543.200 407.447, 540.141 407.012, 539.702 407.008 C 539.263 407.003, 540.362 409.120, 542.145 411.711 M 786.121 439.031 L 781.743 441.017 786.392 445.988 C 788.949 448.722, 791.314 452.318, 791.646 453.980 C 791.978 455.641, 792.350 457, 792.471 457 C 792.593 457, 794.224 456.212, 796.096 455.250 C 798.402 454.064, 801.803 453.500, 806.643 453.500 L 813.786 453.500 811.783 449.500 C 806.041 438.033, 796.710 434.226, 786.121 439.031 M 147.674 480.553 C 145.387 494.399, 147.333 505.679, 153.830 516.250 C 158.056 523.127, 157.754 524.473, 152.726 521.158 C 148.457 518.343, 144.139 511.799, 141.603 504.302 L 139.303 497.500 138.157 504.050 C 135.011 522.029, 135.842 532.072, 141.436 543.699 C 148.691 558.780, 163.912 571.796, 179.764 576.475 L 182.027 577.143 180.014 572.035 C 176.738 563.725, 178.430 562.309, 184.022 568.677 C 189.568 574.994, 190.189 577.715, 191.053 599.500 C 192.435 634.350, 197.868 648.153, 217.629 667.026 C 235.065 683.678, 259.866 694.449, 285.500 696.501 C 303.845 697.969, 330.721 691.637, 343.060 682.939 C 345.477 681.235, 345.580 680.810, 344.894 675.317 C 344.495 672.118, 344.131 667.157, 344.084 664.293 L 344 659.085 338.204 662.538 C 309.345 679.729, 265.344 678.904, 237.115 660.643 C 208.393 642.063, 195.463 612.342, 201.462 578.690 C 202.945 570.369, 202.519 567.587, 198.827 561.500 C 195.080 555.322, 196.877 553.214, 201.894 557.901 L 205 560.802 204.974 551.651 C 204.915 530.613, 195.308 515.562, 170.983 498.397 C 160.189 490.779, 153.587 484.719, 149.913 479.053 L 148.326 476.605 147.674 480.553 M 252.583 557.607 C 243.353 567.243, 239.341 578.226, 240.186 591.550 C 240.741 600.301, 248 614.481, 248 606.813 C 248 603.264, 253.774 609.446, 255.116 614.432 C 259.830 631.935, 278.118 636.344, 295.070 624.064 C 299.566 620.807, 300.845 621.034, 302.281 625.344 C 302.787 626.862, 311.263 621.664, 314.442 617.886 C 320.011 611.268, 321.318 607.270, 321.795 595.383 L 322.241 584.266 312.871 584.741 C 291.693 585.815, 271.540 575.014, 261.308 557.107 L 258.227 551.715 252.583 557.607 M 361.457 738.267 C 356.617 742.795, 351.128 748.890, 349.259 751.810 C 345.494 757.695, 343.500 758.075, 343.500 752.907 L 343.500 749.500 335.500 749.355 C 330.049 749.255, 324.816 748.379, 319.074 746.605 C 314.439 745.172, 308.273 744, 305.372 744 C 300.246 744, 300.008 744.128, 297.006 748.491 C 284.032 767.349, 279.722 789.308, 285.558 806.824 C 290.809 822.585, 292.718 823.935, 319.219 830.621 C 350.662 838.553, 370.185 837.982, 390.641 828.530 C 411.141 819.058, 437.027 797.398, 447.896 780.622 C 450.703 776.289, 452.999 772.464, 452.997 772.122 C 452.996 771.780, 444.984 768.911, 435.192 765.746 C 409.023 757.287, 388.455 746.667, 375.742 735.047 L 370.257 730.034 361.457 738.267 M 267.362 734.465 C 242.978 739.884, 224.150 764.542, 215.032 803 C 211.196 819.181, 211.349 830.995, 215.465 836.371 C 217.750 839.356, 228.454 833.533, 237.862 824.186 C 244.751 817.343, 248 815.768, 248 819.273 C 248 823.607, 235.320 837.439, 228.250 840.817 C 226.463 841.672, 225 842.693, 225 843.087 C 225 844.235, 231.037 846.028, 237.015 846.656 C 249.086 847.925, 268.144 839.996, 281.049 828.337 L 284.675 825.061 281.934 819.280 C 272.233 798.827, 274.837 771.841, 288.737 748.784 C 294.715 738.868, 294.762 739.346, 287.500 736.026 C 281.852 733.444, 274.515 732.875, 267.362 734.465 M 679.500 813.693 C 669.054 816.103, 655.909 821.689, 650.271 826.113 C 640.041 834.140, 638.580 831.821, 647.997 822.503 C 653.895 816.667, 653.957 816.547, 651.747 815.319 C 647.289 812.843, 640.888 815.336, 625.368 825.595 C 605.778 838.543, 581 869.626, 581 881.250 C 581 890.551, 589.724 908.360, 599.306 918.621 C 611.120 931.270, 614.103 931.823, 618.769 922.225 C 620.567 918.526, 625.020 911.450, 628.663 906.500 C 636.052 896.462, 670.212 861.892, 682.188 852.332 L 689.876 846.195 687.057 841.751 C 685.506 839.306, 682.834 836.306, 681.119 835.085 C 677.655 832.618, 677.001 830, 679.850 830 C 682.283 830, 689.121 835.006, 692.538 839.288 L 695.255 842.693 700.228 839.347 C 702.963 837.506, 705.831 836, 706.600 836 C 708.763 836, 708.278 834.641, 704.993 831.494 C 701.002 827.669, 702.614 825.980, 707.421 828.951 C 709.382 830.163, 711.328 831.726, 711.744 832.423 C 712.160 833.121, 714.022 833.986, 715.882 834.347 L 719.264 835.003 718.722 830.963 C 717.270 820.141, 705.187 812.869, 689.068 813.116 C 684.906 813.180, 680.600 813.440, 679.500 813.693 M 711.335 839.423 C 691.883 849.545, 649.345 889.458, 628.457 917.186 C 620.074 928.315, 619.813 929, 623.955 929 C 636.895 929, 665.079 909.727, 686.227 886.416 C 702.511 868.466, 716.428 847.869, 718.433 838.750 C 719.169 835.405, 719.034 835.417, 711.335 839.423 M 421 887.626 C 416.875 887.795, 401.125 888.424, 386 889.023 C 279.603 893.236, 180.242 905.133, 116 921.350 C 104.941 924.142, 103.463 924.765, 103.180 926.753 C 102.741 929.840, 103.090 929.807, 131.792 924.008 C 222.159 905.752, 340.098 894.923, 467.701 893.164 C 517.078 892.484, 520.571 892.172, 517.151 888.750 C 515.965 887.564, 443.195 886.713, 421 887.626 M 721.750 892.615 C 718.690 893.544, 719.858 894.859, 724.250 895.430 C 726.587 895.734, 742.450 897.128, 759.500 898.529 C 807.909 902.505, 833.564 906.128, 883 915.967 C 913.058 921.949, 915 922.167, 915 919.559 C 915 917.528, 915.649 917.757, 892.494 911.608 C 847.059 899.542, 800.338 893.297, 749.500 892.494 C 735.200 892.268, 722.712 892.323, 721.750 892.615 M 284.437 937.974 C 271.962 941.236, 265 943.791, 265 945.109 C 265 946.934, 273.983 945.523, 297.500 940.002 C 310.845 936.869, 311.026 936.799, 308 935.923 C 302.988 934.472, 295.259 935.145, 284.437 937.974 M 322.500 939.474 C 314.397 941.250, 304.898 944.673, 303.109 946.463 C 300.365 949.206, 304.319 949.248, 314.135 946.578 C 321.175 944.664, 347.082 940, 350.678 940 C 350.920 940, 350.840 939.550, 350.500 939 C 349.613 937.565, 329.668 937.903, 322.500 939.474 M 377.500 940.670 C 369.613 941.644, 336.131 949.404, 336.593 950.151 C 337.544 951.690, 347.291 951.020, 361 948.473 C 368.424 947.093, 380.768 945.517, 388.429 944.969 C 396.091 944.422, 402.535 943.798, 402.750 943.583 C 402.965 943.368, 399.983 942.474, 396.123 941.596 C 389.482 940.086, 384.314 939.829, 377.500 940.670 M 410.095 952.067 C 393.904 954.712, 389.640 955.973, 391.296 957.629 C 392.478 958.812, 404.613 957.983, 416.695 955.895 C 423.272 954.758, 435.808 953.588, 445 953.253 L 461.500 952.652 456 950.887 C 447.596 948.190, 431.263 948.610, 410.095 952.067 M 492 953.982 C 471.680 954.806, 452.566 956.652, 450.014 958.037 C 446.517 959.935, 455.694 960.296, 478.500 959.157 C 491.700 958.497, 510.911 957.967, 521.191 957.979 C 539.423 957.999, 544.255 957.188, 538.633 955.051 C 534.801 953.594, 513.573 953.107, 492 953.982" stroke="none" fill="#1a1a1a" fill-rule="evenodd"/>
</svg>