<svg xmlns="http://www.w3.org/2000/svg" width="1024" height="1024" viewBox="0 0 1024 1024" version="1.1">
	<path d="M 647 14.306 C 641.097 16.320, 639.744 20.600, 638.885 39.978 C 637.556 70, 632.506 82.140, 616.661 93.407 C 603.864 102.507, 599.595 102.990, 593.352 96.047 C 579.773 80.944, 561.353 72.019, 550.852 75.454 L 545.900 77.073 537.959 71.090 C 519.003 56.806, 505.547 51.507, 488.500 51.612 C 464.935 51.757, 443.441 58.504, 431.048 69.647 C 428.403 72.025, 423.425 78.079, 419.985 83.101 C 412.889 93.462, 408.920 96.029, 398.806 96.799 C 381.934 98.083, 369.612 74.608, 371.757 45.269 C 374.074 13.581, 339.744 23.094, 326.021 57.941 C 314.560 87.046, 320.367 121.595, 340.250 142.601 C 343.963 146.523, 347 150.018, 347 150.366 C 347 152.227, 340.374 150.349, 327.694 144.893 C 291.790 129.445, 274.892 126.342, 249.926 130.613 C 230.626 133.914, 189.319 151.425, 179.094 160.640 C 174.609 164.682, 174.501 164.920, 174.532 170.693 C 174.591 181.846, 186.655 201.760, 205.433 221.702 C 220.535 237.741, 235.057 246.593, 254.255 251.463 C 278.098 257.511, 295.917 255.096, 321.230 242.384 C 326.032 239.973, 330.126 238, 330.328 238 C 330.530 238, 330.984 242.612, 331.335 248.250 C 331.687 253.887, 332.685 264.350, 333.553 271.500 C 336.397 294.923, 334.552 307.631, 325.506 326.918 C 318.497 341.860, 316.598 349.253, 317.266 359 C 318.568 378.025, 335.803 405.513, 353.500 416.793 C 357.350 419.247, 362.868 423.478, 365.762 426.195 C 373.672 433.622, 390.325 440, 401.808 440 C 403.444 440, 406.525 441.322, 408.902 443.044 L 413.104 446.088 400.802 454.358 C 394.036 458.907, 379.695 468.932, 368.934 476.636 C 346.608 492.619, 340.281 496.470, 333.973 497.919 C 328.449 499.187, 313.079 503.528, 310.880 504.442 C 308.669 505.360, 302.900 489.437, 294.969 460.526 C 288.557 437.150, 285.524 429.246, 281.193 424.627 C 274.063 417.020, 262.246 417.166, 255.703 424.941 C 250.300 431.362, 251.444 437.860, 265.922 482.992 C 277.147 517.984, 277.793 520.686, 275.382 522.511 C 274.347 523.295, 271.798 523.951, 269.718 523.968 C 258.344 524.064, 244.540 540.083, 241.837 556.325 C 240.757 562.812, 241.330 576.233, 242.922 581.750 C 243.559 583.957, 243.522 585, 242.804 585 C 242.224 585, 235.618 587.420, 228.124 590.378 C 220.631 593.335, 209.550 597.191, 203.500 598.947 C 191.999 602.284, 162.811 611.345, 118 625.488 C 103.425 630.088, 86.906 635.249, 81.291 636.956 C 75.395 638.749, 69.796 641.142, 68.041 642.619 C 64.380 645.700, 64.208 648.621, 66.530 668.340 C 68.900 688.469, 70.436 690.277, 87.041 692.470 C 93.344 693.303, 99.197 693.987, 100.049 693.992 C 101.438 693.999, 101.592 706.043, 101.549 811.250 C 101.497 934.663, 101.568 936.776, 105.958 942.941 C 110.036 948.668, 120.117 951.152, 130.540 948.997 C 139.252 947.196, 145.548 940.834, 146.374 932.995 C 146.693 929.973, 147.189 878, 147.476 817.500 C 147.764 757, 148.274 705.561, 148.610 703.192 L 149.221 698.884 154.861 699.550 C 157.962 699.916, 173.325 701.914, 189 703.990 C 204.675 706.065, 244.126 711.061, 276.668 715.092 L 335.837 722.421 333.860 725.197 C 330.093 730.486, 323.850 745.133, 321.244 754.794 C 318.813 763.805, 318.603 766.254, 318.316 788.984 C 317.982 815.345, 317.612 818.268, 308.457 866.845 C 303.137 895.073, 303.654 898.548, 314.091 904.713 C 317.208 906.554, 317.498 907.272, 318.449 915.500 C 319.674 926.104, 328.227 934.085, 339.829 935.451 C 342.398 935.753, 348.100 936.678, 352.500 937.505 C 377.416 942.190, 414.901 933.128, 426.836 919.534 C 433.252 912.227, 433.934 905.200, 436.002 825.048 C 436.590 802.249, 437.242 783.424, 437.451 783.215 C 437.660 783.006, 441.263 783.210, 445.456 783.668 L 453.082 784.500 453.419 831 C 453.798 883.323, 453.295 889.180, 446.350 913.282 C 438.883 939.195, 441.385 948.865, 457.638 956.907 C 469.865 962.957, 477.436 964.306, 495.974 963.736 C 515.673 963.130, 527.140 960.572, 541.429 953.595 C 559.258 944.889, 562.075 940.570, 565.620 916.500 C 566.916 907.700, 569.318 893.525, 570.957 885 C 573.800 870.215, 582 824.549, 582 823.499 C 582 822.799, 594.182 822.890, 602.228 823.650 L 608.957 824.285 609.228 909.393 C 609.531 1004.284, 609.055 997.977, 616.323 1003.395 C 620.847 1006.768, 640.726 1007.039, 646.992 1003.813 C 656.801 998.762, 657.987 994.191, 657.994 961.415 C 657.997 947.068, 658.299 910.906, 658.665 881.055 L 659.330 826.780 663.915 823.448 C 668.524 820.098, 714.250 796.184, 716.899 795.739 C 718.901 795.401, 719.249 796.991, 726.487 839.500 C 737.799 905.942, 737.149 903.428, 744 907.201 C 752.792 912.044, 772.907 907.748, 777.391 900.070 C 779.602 896.285, 779.920 900.468, 773.431 848 C 769.043 812.516, 765 776.648, 765 773.204 C 765.001 770.719, 766.600 769.631, 784.750 759.769 C 795.613 753.866, 806.862 747.670, 809.750 745.998 L 815 742.960 815.079 783.230 C 815.253 872.259, 816.372 916.240, 818.558 919.983 C 824.409 930, 848.147 931.174, 856.702 921.868 C 862.313 915.765, 862.243 916.740, 861.598 853.053 C 859.818 677.195, 859.800 672.242, 860.938 670.116 C 861.561 668.952, 862.617 668, 863.285 667.999 C 865.705 667.998, 876.727 662.179, 880.371 658.979 C 887.115 653.058, 887.536 651.491, 887.211 633.516 C 886.831 612.464, 885.112 610, 870.805 610 C 864.179 610, 787.702 605, 787.214 604.534 C 787.057 604.384, 787.592 595.090, 788.403 583.881 C 793.289 516.348, 790.649 498.651, 774.364 489.798 C 767.567 486.102, 748.690 482.997, 717.458 480.437 L 709.417 479.778 707.186 475.903 C 694.070 453.112, 669.420 429.509, 642.863 414.311 L 634.226 409.368 641.247 403.934 C 661.782 388.040, 678.371 361.771, 684.464 335.501 C 689.993 311.657, 690.470 267.813, 685.345 254.457 C 684.822 253.093, 685.707 253.388, 689.080 255.703 C 701.618 264.307, 715.111 269.331, 731.430 271.470 C 759.501 275.150, 773.711 272.323, 801.758 257.479 C 833.291 240.790, 855.608 219.708, 861.966 200.601 C 867.739 183.255, 864.854 175.915, 850 170.159 C 841.375 166.816, 828.603 161.661, 815 156.031 C 781.334 142.097, 765.573 138.476, 739 138.567 C 715.336 138.648, 707.311 140.416, 687.068 150.006 C 674.740 155.846, 673.979 156.071, 670.122 155.033 C 664.539 153.530, 664.470 152.867, 669.459 148.696 C 692.236 129.657, 700.120 80.495, 685.390 49.358 C 678.394 34.571, 662.923 15.907, 656.088 14.008 C 651.727 12.796, 651.396 12.807, 647 14.306 M 649.257 24.250 C 648.713 24.938, 648.006 32.700, 647.685 41.500 C 646.716 68.040, 641.504 83.599, 629.647 95.350 C 623.552 101.390, 611.806 108, 607.165 108 C 600.019 108, 609.452 135.251, 620.500 146.522 C 626.974 153.126, 632.177 154.764, 641.684 153.188 C 666.017 149.156, 684.236 121.704, 684.283 89 C 684.318 64.108, 677.905 47.906, 660.040 27.750 C 655.696 22.849, 651.453 21.472, 649.257 24.250 M 355.500 35.472 C 346.466 38.653, 334.434 57.006, 329.913 74.500 C 324.729 94.560, 332.616 122.168, 348.225 138.600 C 352.091 142.670, 355.571 146, 355.958 146 C 356.344 146, 358.425 142.971, 360.580 139.270 C 365.591 130.665, 373.871 120.360, 382.819 111.592 L 389.869 104.684 385.943 102.742 C 377.787 98.706, 366.886 83.097, 364.476 72 C 364.057 70.075, 363.442 60.855, 363.108 51.511 C 362.431 32.594, 362.609 32.969, 355.500 35.472 M 472.500 61.062 C 455.355 63.367, 443.915 68.921, 433.980 79.763 C 418.604 96.544, 412.258 111.837, 416.100 122.857 C 419.151 131.610, 431.240 125.007, 444.975 107.084 C 452.697 97.008, 457.211 92.760, 459.332 93.574 C 461.561 94.429, 461.457 95.055, 458.329 99.610 C 456.860 101.750, 454.386 105.364, 452.831 107.642 C 451.276 109.920, 448.315 115.320, 446.252 119.642 C 442.594 127.303, 442.502 127.776, 442.580 138.500 C 442.714 156.915, 446.620 167.749, 454.981 172.893 C 460.922 176.549, 461 176.564, 461 174.091 C 461 167.200, 476.703 143.121, 488.286 132.250 C 497.592 123.517, 500.324 125.134, 499.353 138.804 C 498.539 150.276, 499.827 153, 506.063 153 C 511.744 153, 517.524 149.708, 524.730 142.370 C 530.829 136.157, 534.834 129.076, 544.025 108.250 C 548.660 97.747, 552.390 103.460, 549.608 116.803 C 544.233 142.582, 512.874 169.298, 499.092 159.839 C 493.379 155.918, 491.471 152.540, 491.717 146.783 L 491.934 141.713 489.356 144.107 C 482.508 150.464, 473.016 165.063, 469.285 174.976 C 466.226 183.104, 465.480 184, 461.779 184 C 448.033 184, 435.517 162.745, 434.752 138.102 C 434.613 133.646, 434.346 130, 434.158 130 C 433.969 130, 432.673 130.898, 431.277 131.997 C 417.465 142.861, 403.141 128.289, 407.344 107.650 L 408.128 103.800 404.164 106.028 C 391.199 113.315, 376.159 129.674, 364.640 149.020 C 338.925 192.209, 335.395 208.432, 340.060 262 C 343.477 301.236, 342.979 306.582, 334.100 326 C 326.467 342.694, 325.491 346.242, 325.570 357 C 325.653 368.268, 327.572 374.061, 334.917 385.207 C 340.153 393.152, 350.844 405.727, 349.619 402.500 C 340.710 379.026, 344.903 354.696, 360.494 339.400 C 366.161 333.840, 366.548 333.199, 364.870 332.151 C 363.858 331.519, 361.939 329.314, 360.607 327.251 C 357.171 321.929, 355.902 300.445, 358.704 295.025 C 362.271 288.124, 371.434 283.921, 379.579 285.449 C 384.511 286.374, 393.348 294.725, 395.580 300.570 C 397.221 304.867, 397.227 314.296, 395.590 318.098 C 394.970 319.541, 395.807 319.522, 404.201 317.907 C 440.446 310.936, 483.001 313.895, 504.806 324.902 C 522.650 333.910, 534.986 347.805, 538.971 363.386 C 541.399 372.880, 541.244 372.636, 545.343 373.405 C 549.972 374.273, 556.947 380.372, 555.276 382.090 C 553.889 383.516, 548.784 383.843, 544.878 382.756 C 542.346 382.051, 542.216 382.225, 541.126 387.763 C 539.038 398.372, 535.188 404.582, 523.641 415.961 C 502.929 436.372, 498.275 437.961, 456 439.064 C 439.225 439.501, 423.925 439.916, 422 439.984 C 418.876 440.096, 419.871 440.790, 431.259 446.447 C 449.057 455.289, 457.125 457.377, 473.500 457.381 C 492.439 457.385, 504.932 452.951, 526.251 438.659 C 533.324 433.917, 537.168 431.989, 540.251 431.638 C 542.588 431.372, 549.225 430.634, 555 429.998 C 591.818 425.947, 631.099 406.730, 649.910 383.566 C 667.259 362.202, 674.329 346.614, 678.060 321.500 C 682.196 293.654, 679.114 251.819, 672.285 243.122 C 665.986 235.099, 664.844 232.177, 667.250 230.238 C 669.118 228.732, 672.681 230.482, 674.360 233.730 C 675.955 236.814, 691.709 247.855, 701.500 252.750 C 717.303 260.651, 733.392 264.363, 752 264.401 C 763.807 264.426, 765.090 264.224, 775.144 260.777 C 818.098 246.046, 855.176 212.891, 856.250 188.253 C 856.499 182.522, 856.253 182.343, 835.485 173.145 C 785.973 151.216, 769.724 146.671, 740.500 146.578 C 716.354 146.501, 697.174 150.964, 684.402 159.631 C 677.053 164.618, 665.472 171, 663.771 171 C 660.466 171, 661.772 167.336, 665.750 165.448 C 667.813 164.469, 669.050 163.557, 668.500 163.421 C 667.950 163.286, 666.297 162.911, 664.827 162.588 C 663.357 162.265, 660.844 160.898, 659.242 159.550 L 656.329 157.099 649.915 159.725 C 633.193 166.568, 619.674 161.842, 608.734 145.329 C 601.280 134.077, 595.915 118.457, 597.431 112.418 C 597.917 110.482, 597.651 110, 596.096 110 C 593.471 110, 588 105.264, 588 102.992 C 588 100.757, 574.870 89.989, 567.646 86.301 C 562.224 83.532, 556.271 82.958, 548.413 84.446 C 543.339 85.406, 540.813 84.187, 532 76.520 C 517.417 63.836, 495.065 58.029, 472.500 61.062 M 254.921 138.482 C 243.173 140.461, 237.111 142.513, 214.500 152.161 C 194.267 160.795, 183.475 166.598, 182.389 169.428 C 181.475 171.809, 187.582 185.651, 193.316 194.197 C 214.752 226.140, 241.572 243.921, 270.978 245.682 C 287.381 246.664, 298.577 244.034, 318.750 234.458 L 330 229.118 330.017 221.309 C 330.027 217.014, 330.695 210.381, 331.503 206.569 C 333.196 198.577, 333.129 198.335, 329.903 200.831 C 326.509 203.457, 322.504 204.002, 314.229 202.963 C 304.385 201.727, 295.648 196.987, 279.959 184.372 C 266.264 173.360, 252.976 169.351, 233.617 170.391 C 218.665 171.195, 208.896 172.282, 207.250 173.325 C 206.524 173.786, 206 173.652, 206 173.006 C 206 170.990, 218.343 166.101, 227.381 164.537 C 237.767 162.740, 249.722 162.556, 257.201 164.079 C 265.394 165.748, 281.620 174.148, 289 180.541 C 300.593 190.585, 314.404 196.889, 321.807 195.517 C 330.350 193.933, 334.659 190.378, 338.060 182.110 C 339.782 177.925, 342.836 171.575, 344.846 168 C 346.856 164.425, 348.650 161.162, 348.833 160.750 C 349.017 160.338, 347.509 160, 345.483 160 C 343.071 160, 336.054 157.447, 325.150 152.602 C 294.301 138.896, 275.228 135.061, 254.921 138.482 M 655.241 173.986 C 651.754 179.570, 654.562 182.079, 659.080 177.417 C 661.899 174.509, 662.224 173.753, 660.988 172.972 C 658.627 171.479, 656.581 171.840, 655.241 173.986 M 756.500 174.400 C 740.745 178.655, 735.475 181.096, 709.047 196.383 C 691.460 206.557, 688.868 207.363, 673.500 207.437 C 666.350 207.472, 658.250 207.139, 655.500 206.697 L 650.500 205.895 653.650 207.697 C 655.382 208.689, 658.533 210.724, 660.652 212.219 C 663.954 214.550, 665.708 214.990, 672.928 215.301 C 685.887 215.860, 694.255 212.637, 729.500 193.509 C 746.589 184.235, 757.481 180.837, 772.026 180.241 C 786.689 179.641, 792.524 181.037, 808.781 189.037 C 821.386 195.239, 823 195.531, 823 191.615 C 823 188.695, 820.070 186.043, 812 181.657 C 794.629 172.217, 774.384 169.570, 756.500 174.400 M 373.951 177.362 C 366.014 179.502, 358.698 185.260, 354.448 192.709 C 352.672 195.823, 352.672 195.980, 354.463 197.959 C 357.196 200.979, 358.143 200.600, 365.125 193.695 C 372.963 185.944, 378.196 184.009, 386.277 185.875 C 390.915 186.945, 391.570 186.874, 393.334 185.111 C 399.286 179.159, 386.395 174.006, 373.951 177.362 M 548.500 180.156 C 541.669 182.658, 538.650 188.372, 543.513 189.593 C 546.061 190.232, 547.484 190.046, 556.593 187.880 C 563.548 186.227, 569.109 188.951, 578.509 198.617 C 584.965 205.255, 585.671 205.713, 587.451 204.413 C 588.513 203.636, 588.830 203, 588.156 203 C 587.294 203, 587.210 202.476, 587.874 201.236 C 590.184 196.920, 581.908 187.550, 571.121 182.269 C 564.847 179.197, 553.906 178.175, 548.500 180.156 M 544.186 259.520 C 535.356 263.966, 530.511 269.789, 529.700 276.936 C 529.017 282.955, 529.349 283.039, 532.685 277.688 C 543.438 260.440, 563.101 259.511, 573.167 275.775 C 578.314 284.090, 579.436 299.317, 575.882 312.590 C 571.612 328.532, 572.519 330.686, 578.266 318.250 C 587.397 298.492, 586.784 280.758, 576.487 266.765 C 568.154 255.441, 557.180 252.980, 544.186 259.520 M 369.558 259.431 C 367.390 260.237, 364.499 261.730, 363.135 262.749 C 360.490 264.724, 353.719 279.304, 354.226 281.935 C 354.833 285.089, 357.566 283.365, 360.058 278.255 C 365.006 268.110, 371.554 263.934, 379.199 266.045 C 386.278 267.999, 391.291 276.122, 394.964 291.586 C 397.666 302.961, 398.608 304.608, 399.548 299.597 C 402.023 286.403, 396.170 266.882, 387.903 260.761 C 384.425 258.185, 374.789 257.487, 369.558 259.431 M 534.147 286.530 C 527.514 292.111, 525.860 310.901, 530.963 322.714 C 537.301 337.386, 554.537 343.663, 563.600 334.600 C 572.219 325.981, 569.238 304.504, 557.584 291.265 C 550.779 283.534, 540.238 281.404, 534.147 286.530 M 426 321.992 C 388.495 325.810, 367.030 336.776, 357.038 357.223 C 346.112 379.578, 357.682 414.751, 379.589 425.786 C 392.226 432.151, 402.743 433.010, 451 431.616 C 493.016 430.403, 497.833 428.995, 516.201 412.560 C 528.788 401.297, 532.862 394.587, 533.738 383.674 C 536.151 353.615, 512.496 330.363, 472.500 323.478 C 461.508 321.586, 437.523 320.820, 426 321.992 M 375.557 361.223 C 373.711 363.857, 373.501 370.101, 375.200 371.800 C 377.033 373.633, 380.480 373.233, 382.549 370.945 C 384.402 368.898, 384.418 368.908, 386.838 373.695 C 389.564 379.089, 390.524 379.963, 393.750 379.985 C 396.432 380.003, 396.524 378.894, 394.363 372.553 C 390.713 361.839, 379.751 355.234, 375.557 361.223 M 485.400 363.826 C 480.964 367.040, 476 373.135, 476 375.366 C 476 378.548, 480.266 378.444, 482.978 375.196 C 484.388 373.507, 486.770 371.658, 488.271 371.087 C 490.774 370.135, 491 370.249, 491 372.453 C 491 375.087, 493.363 378, 495.499 378 C 499.618 378, 502.616 367.888, 499.965 362.934 C 498.276 359.778, 490.313 360.266, 485.400 363.826 M 621.500 417.163 C 606.067 427.539, 567.340 439.934, 550.074 440.024 C 542.313 440.064, 538.314 441.566, 529.018 447.933 C 496.475 470.222, 461.962 472.649, 427.182 455.092 C 423.813 453.391, 420.608 452, 420.060 452 C 419.035 452, 416.418 453.847, 383 478.158 C 350.700 501.656, 346.400 504.075, 330 507.972 C 324.775 509.213, 318.653 510.740, 316.396 511.364 L 312.291 512.500 313.778 517.765 C 315.199 522.798, 315.558 523.184, 321.929 526.532 C 329.977 530.761, 339.634 539.918, 342.226 545.778 C 346.650 555.778, 346.429 568.606, 341.669 578.226 L 339.306 583 341.450 583 C 351.893 583, 402.654 567.339, 409.082 562.135 C 410.856 560.699, 411.384 558.801, 412.064 551.429 C 413.351 537.486, 420.162 507.613, 424.987 494.750 C 426.937 489.550, 427.424 489, 430.072 489 C 433.916 489, 433.879 490.105, 429.499 505.886 C 420.550 538.136, 416.988 572.153, 421.774 579.669 C 422.183 580.313, 428.705 582.254, 436.266 583.983 C 443.827 585.712, 454.532 588.696, 460.054 590.615 L 470.095 594.104 481.297 592.518 C 495.862 590.456, 513.816 589.672, 522 590.741 C 528.411 591.578, 528.576 591.540, 534 587.932 C 545.442 580.322, 560.083 574.037, 578 569.044 C 583.775 567.435, 595.700 563.117, 604.500 559.449 C 613.300 555.781, 621.737 552.280, 623.250 551.670 C 626.856 550.216, 626.882 550.454, 620.459 526.319 C 614.615 504.363, 614.354 501, 618.493 501 C 622.030 501, 623.271 504.035, 628.937 526.546 C 631.660 537.368, 634.152 546.485, 634.474 546.807 C 634.796 547.129, 638.969 546.120, 643.746 544.564 C 654.063 541.204, 663.661 540.190, 666.295 542.182 C 669.749 544.793, 664.049 548.456, 650.431 552.376 C 643.799 554.285, 631.877 558.296, 623.937 561.290 C 615.996 564.284, 607.808 567.280, 605.741 567.947 C 601.079 569.453, 601.094 569.475, 611.397 576.402 C 630.472 589.226, 642 608.736, 642 628.196 L 642 633.072 651.250 632.456 C 691.508 629.774, 719.998 616.096, 727.181 596 C 733.257 579.003, 733.983 566.873, 730.057 548 C 718.945 494.597, 679.749 442.002, 633.874 418.937 C 624.907 414.428, 625.452 414.506, 621.500 417.163 M 265 428.752 C 261.833 430.334, 261.471 430.949, 261.197 435.216 C 260.840 440.757, 262.274 444, 265.080 444 C 268.536 444, 280 440.803, 280 439.839 C 280 437.757, 275.873 431.045, 273.393 429.095 C 270.162 426.553, 269.459 426.524, 265 428.752 M 274.500 449.540 C 266.855 451.629, 266.513 451.845, 266.797 454.422 C 267.538 461.143, 268.317 461.804, 274.374 460.855 C 280.687 459.865, 285.009 458.406, 284.981 457.275 C 284.970 456.849, 284.408 454.442, 283.731 451.927 L 282.500 447.353 274.500 449.540 M 282.500 467.288 C 279.750 467.762, 276.066 468.356, 274.314 468.608 L 271.128 469.067 272.627 474.283 C 278.744 495.568, 291.364 536.581, 293.310 541.500 C 294.615 544.800, 297.810 550.777, 300.411 554.782 C 311.923 572.514, 315.077 588.135, 308.527 594.972 L 305.825 597.792 309.555 601.146 C 311.606 602.991, 315.020 606.678, 317.142 609.340 L 321 614.180 321 608.800 C 321 605.841, 321.686 600.786, 322.525 597.566 C 323.912 592.239, 323.904 591.552, 322.436 589.929 C 321.358 588.738, 320.329 584.054, 319.338 575.823 C 318.208 566.445, 316.573 559.557, 312.494 547 C 306.889 529.744, 301.051 510.659, 292.969 483.167 C 290.328 474.184, 288.017 466.742, 287.834 466.630 C 287.650 466.518, 285.250 466.814, 282.500 467.288 M 717.464 492.142 C 726.040 505.951, 736.550 534.865, 739.539 552.868 C 741.785 566.396, 741.129 578.406, 737.485 590.500 C 735.993 595.450, 734.565 600.215, 734.312 601.089 C 733.905 602.492, 736.437 602.755, 756.085 603.346 C 768.314 603.714, 778.422 603.899, 778.548 603.757 C 779.317 602.894, 782.243 559.078, 782.705 541.500 C 783.311 518.425, 782.399 511.769, 777.477 503.371 C 773.333 496.299, 766.356 494.163, 735.500 490.519 C 728.350 489.675, 720.758 488.714, 718.629 488.384 L 714.757 487.783 717.464 492.142 M 371.569 513.680 C 371.119 514.854, 372.429 516.888, 375.917 520.430 C 381.591 526.193, 384.289 531.639, 386.104 541 C 386.798 544.575, 387.691 547.886, 388.090 548.357 C 389.710 550.274, 391.193 544.496, 390.846 537.617 C 390.316 527.130, 386.342 519.597, 379.044 515.250 C 372.742 511.495, 372.432 511.431, 371.569 513.680 M 261.468 537.312 C 246.048 553.233, 245.859 581.563, 261.041 601.670 C 266.589 609.018, 273.149 610.397, 291.384 608.048 C 303.790 606.449, 302.755 603.446, 286.439 593.704 C 270.670 584.288, 261.769 571.801, 266.355 565.529 C 268.298 562.873, 270.352 564.084, 274.264 570.193 C 280.734 580.298, 299.891 594.341, 302.216 590.684 C 305.835 584.993, 298.146 562.230, 289.442 552.864 C 286.514 549.714, 284.930 546.990, 284.499 544.364 C 282.532 532.374, 282.191 532, 273.235 532 L 266.613 532 261.468 537.312 M 316 533.821 C 316 535.995, 318.576 541.975, 321.787 547.251 C 324.960 552.467, 325.354 553.955, 326.020 563.251 C 326.423 568.888, 327.436 575.300, 328.271 577.500 L 329.788 581.500 332.446 575.796 C 338.990 561.755, 337.847 550.314, 329.070 542 C 324.190 537.377, 316 532.252, 316 533.821 M 408.500 571.413 C 407.400 572.242, 403.125 574.175, 399 575.710 C 390.836 578.747, 390.792 578.720, 404.764 579.220 C 411.820 579.473, 412.933 579.296, 412.379 578.008 C 412.022 577.179, 411.453 575.016, 411.115 573.203 C 410.535 570.095, 410.386 569.992, 408.500 571.413 M 583 576.632 C 555.862 583.788, 544.974 589.035, 533.516 600.480 C 522.912 611.071, 519.283 617.664, 520.966 623.281 C 522.232 627.507, 526.882 633.008, 529.173 632.989 C 529.903 632.983, 531.721 629.719, 533.213 625.736 C 536.790 616.190, 541.085 610.548, 548.350 605.852 C 555.149 601.458, 555.660 601.366, 558.793 603.978 C 561.841 606.519, 560.577 608.520, 552.887 613.327 C 548.635 615.985, 546.234 618.396, 544.019 622.236 C 537.028 634.350, 536.964 641.791, 543.830 644.169 C 549.708 646.204, 569.528 645.732, 588 643.117 C 605.478 640.643, 609.037 639.499, 621 632.515 C 625.125 630.107, 629.777 627.822, 631.337 627.438 C 633.974 626.789, 634.126 626.487, 633.500 623.150 C 630.324 606.221, 616.993 587.996, 601.023 578.750 C 593.944 574.652, 591.569 574.373, 583 576.632 M 365.816 587.004 C 359.211 588.059, 340.631 592.540, 335.506 594.314 L 331.987 595.533 331.491 606.394 C 331.170 613.426, 331.525 620.798, 332.498 627.304 C 334.391 639.965, 334.390 642.913, 332.492 643.641 C 329.638 644.737, 326.258 641.108, 321.479 631.815 C 316.845 622.805, 309.444 611, 308.429 611 C 308.157 611, 305.637 612.164, 302.831 613.586 C 298.838 615.609, 294.985 616.448, 285.114 617.445 C 273.629 618.605, 270.845 619.324, 254 625.482 C 231.278 633.787, 221.860 637.494, 217.133 639.992 L 213.500 641.912 231 641.960 C 254.137 642.025, 292.818 644.490, 309.931 646.990 C 329.228 649.809, 338.017 652.256, 349.367 657.968 L 359.233 662.935 365.367 658.560 C 370.636 654.802, 395.804 639.104, 428.500 619.183 C 433.450 616.167, 443.314 610.774, 450.420 607.198 L 463.340 600.697 455.420 597.782 C 443.717 593.475, 430.260 590.196, 417.140 588.455 C 403.044 586.585, 373.644 585.754, 365.816 587.004 M 223.237 601.023 C 211.542 604.847, 191.742 610.928, 179.237 614.537 C 166.732 618.146, 140.525 626.445, 121 632.979 C 101.475 639.513, 83.475 645.406, 81 646.075 L 76.500 647.291 81.500 648.611 C 89.966 650.846, 103.754 652.898, 121 654.488 C 130.075 655.325, 142.675 656.487, 149 657.070 C 164.785 658.525, 209.353 663.417, 239.500 667.002 C 253.250 668.638, 280.025 671.788, 299 674.002 C 317.975 676.217, 338.217 678.668, 343.983 679.448 C 349.748 680.229, 354.628 680.705, 354.826 680.507 C 355.539 679.794, 339.229 675.142, 325.500 672.142 C 296.710 665.851, 244.065 658.596, 216.251 657.086 C 199.583 656.181, 197.441 655.201, 198.292 648.863 C 199.245 641.751, 202.126 639.410, 221.500 630.001 C 231.400 625.193, 244.311 619.321, 250.190 616.953 L 260.881 612.647 256.585 608.866 C 254.223 606.786, 250.987 602.592, 249.395 599.545 C 247.803 596.498, 246.050 594.020, 245.500 594.038 C 244.950 594.056, 234.932 597.200, 223.237 601.023 M 499.500 598.647 C 489.615 599.793, 481.014 601.431, 475.639 603.192 C 463.471 607.177, 366.322 664.655, 368.341 666.675 C 368.604 666.937, 373.472 666.010, 379.159 664.616 C 395.993 660.488, 404.408 659.696, 425.335 660.274 C 457.703 661.168, 503.486 670.277, 535.025 682.098 L 545.752 686.119 564.671 671.809 C 575.076 663.939, 585.144 656.222, 587.045 654.659 L 590.500 651.819 584.500 652.403 C 552.192 655.550, 537.056 653.433, 530.774 644.892 C 529.523 643.191, 526.925 640.984, 525 639.988 C 517.469 636.088, 511.999 627.796, 512.001 620.282 C 512.002 616.195, 516.869 604.859, 520.111 601.392 L 522.083 599.283 517.402 598.642 C 512.700 597.997, 505.088 598, 499.500 598.647 M 723.560 616.496 C 705.827 630.965, 679.791 639.984, 655.718 639.996 C 651.438 639.998, 646.488 640.605, 644.718 641.345 C 642.948 642.084, 622.752 655.815, 599.839 671.858 C 576.925 687.902, 556.450 701.773, 554.339 702.684 L 550.500 704.340 579.500 707.596 C 595.450 709.386, 616.376 711.803, 626.001 712.967 C 648.174 715.648, 663.580 715.901, 671.026 713.704 C 674.065 712.808, 714.571 693.268, 761.039 670.281 C 807.507 647.295, 850.696 626.326, 857.013 623.684 C 863.331 621.041, 869.400 618.487, 870.500 618.007 C 871.791 617.445, 868.246 617.110, 860.500 617.065 C 853.900 617.027, 839.050 616.332, 827.500 615.522 C 794.852 613.232, 775.964 612.153, 757.500 611.522 C 748.150 611.202, 738.475 610.733, 736 610.479 C 731.687 610.037, 731.169 610.288, 723.560 616.496 M 859 631.616 C 849.375 636.332, 833.850 643.918, 824.500 648.473 C 804.721 658.109, 737.402 691.263, 702 708.803 C 688.525 715.479, 674.818 721.629, 671.540 722.470 C 663.943 724.420, 649.582 724.425, 634.936 722.484 C 623.515 720.970, 593.542 717.475, 527.500 709.955 C 508.250 707.763, 485.525 705.093, 477 704.021 C 468.475 702.949, 451.150 700.923, 438.500 699.520 C 425.850 698.116, 409.200 696.096, 401.500 695.031 C 393.800 693.966, 369.950 691.031, 348.500 688.509 C 327.050 685.986, 295.775 682.150, 279 679.983 C 262.225 677.817, 240.175 675.138, 230 674.031 C 173.398 667.872, 145.107 664.932, 133.500 664.002 C 110.242 662.138, 89.645 659.876, 82.685 658.423 C 78.936 657.640, 75.403 657, 74.833 657 C 73.676 657, 74.512 668.971, 76.103 675.196 C 77.929 682.340, 82.917 683.864, 116.500 687.538 C 124.750 688.441, 147.700 691.154, 167.500 693.568 C 187.300 695.981, 211.600 698.885, 221.500 700.022 C 231.400 701.158, 246.250 702.954, 254.500 704.011 C 262.750 705.069, 284.125 707.771, 302 710.015 C 319.875 712.259, 355.200 716.797, 380.500 720.100 C 451.267 729.338, 493.334 734.402, 533.500 738.519 C 547.250 739.929, 575.825 743.075, 597 745.510 C 671.112 754.035, 669.667 753.967, 681.500 749.506 C 691.312 745.806, 810.375 686.940, 846.500 667.927 C 871.323 654.863, 875.267 652.343, 877.374 648.198 C 880.309 642.423, 880.511 622.968, 877.635 623.021 C 877.011 623.032, 868.625 626.900, 859 631.616 M 627.700 639.460 C 615.155 644.559, 594.359 658.650, 563.975 682.641 C 552.215 691.927, 549.512 693.700, 545.058 695.052 C 542.895 695.708, 543.164 695.841, 546.800 695.914 C 549.164 695.961, 552.539 695.258, 554.300 694.350 C 557.138 692.888, 632.235 640.957, 634.337 639.004 C 636.388 637.098, 632.927 637.336, 627.700 639.460 M 214 650.153 C 287.868 656.273, 328.731 662.992, 353.033 673.013 C 357.039 674.665, 360.479 675.854, 360.679 675.655 C 361.752 674.581, 351.509 666.960, 346.447 665.066 C 321.592 655.766, 265.545 648.735, 219.517 649.142 L 203.500 649.283 214 650.153 M 399 668.633 C 397.625 668.831, 392.554 669.511, 387.731 670.144 C 382.908 670.778, 379.146 671.479, 379.370 671.703 C 379.594 671.928, 388.265 672.534, 398.639 673.050 C 433.119 674.767, 449.764 676.830, 487.325 684.046 C 509.261 688.260, 531.114 692.731, 534.375 693.673 C 537.423 694.553, 535.295 692.191, 531.120 690.061 C 507.025 677.769, 426.364 664.686, 399 668.633 M 836.600 682.135 L 822.700 689.164 823.233 800.929 C 823.778 915.132, 823.802 915.833, 827.400 918.235 C 829.461 919.611, 845.936 919.084, 848.909 917.547 C 854.409 914.703, 854.330 916.050, 853.632 837.711 C 852.693 732.176, 851.807 674.993, 851.112 675.052 C 850.775 675.081, 844.245 678.268, 836.600 682.135 M 366.543 680.931 C 365.618 682.427, 366.983 682.789, 378.035 683.982 C 389.328 685.201, 399.622 686.424, 483.368 696.497 C 513.546 700.127, 538.436 702.897, 538.681 702.652 C 540.991 700.343, 442.352 684.761, 402 681.061 C 387.762 679.756, 367.315 679.681, 366.543 680.931 M 746 727.833 L 678.500 761.401 669.382 761.451 L 660.264 761.500 659.632 770.404 C 658.726 783.170, 658.851 816.228, 659.805 815.833 C 665.651 813.412, 790.571 747.715, 806.750 738.553 L 815 733.881 814.930 715.690 C 814.891 705.686, 814.554 696.772, 814.180 695.882 C 813.617 694.543, 801.867 700.050, 746 727.833 M 109.488 762.697 C 108.404 860.239, 109.172 930.498, 111.368 934.745 C 114.093 940.014, 116.717 941.128, 125.613 940.794 L 133.444 940.500 135.680 936.506 C 138.941 930.684, 138.894 932.285, 139.348 810.386 L 139.766 698.272 127.633 697.080 C 120.960 696.425, 114.317 695.665, 112.871 695.391 L 110.242 694.894 109.488 762.697 M 342.252 728.566 C 336.650 735.121, 331.294 745.576, 328.891 754.646 C 324.496 771.242, 325.535 817.305, 330.942 845.500 C 331.997 851, 333.138 857.600, 333.479 860.167 C 333.931 863.574, 334.746 865.259, 336.499 866.407 C 341.012 869.364, 353.861 873.005, 363.970 874.191 C 381.488 876.246, 419.334 872.665, 423.803 868.529 C 426.474 866.057, 427.789 851.508, 428.460 817 C 428.829 798.025, 429.586 780.751, 430.141 778.612 L 431.151 774.724 440.326 775.391 C 445.372 775.757, 450.958 776.318, 452.739 776.638 C 455.315 777.100, 456.112 776.838, 456.629 775.359 C 459.649 766.725, 463.951 757.972, 469.047 750.092 C 472.368 744.956, 474.954 740.627, 474.793 740.473 C 474.632 740.319, 461.225 738.544, 445 736.527 C 428.775 734.511, 400.041 730.867, 381.148 728.430 C 362.254 725.994, 346.651 724, 346.476 724 C 346.300 724, 344.399 726.055, 342.252 728.566 M 478.569 749.989 C 463.150 771.404, 461.486 778.690, 461.546 824.500 C 461.572 843.750, 461.948 864.279, 462.384 870.119 L 463.175 880.738 472.929 885.417 C 487.328 892.323, 498.368 894.383, 517 893.641 C 540.694 892.697, 560.513 888.488, 562.651 883.946 C 563.285 882.601, 565.886 869.575, 568.433 855 C 574.539 820.052, 579.525 797.182, 581.520 794.978 C 582.406 793.999, 584.773 792.890, 586.781 792.513 C 591.613 791.607, 595.217 789.721, 602.784 784.137 L 609.067 779.500 608.784 768.331 C 608.628 762.187, 608.162 756.824, 607.749 756.413 C 606.483 755.151, 584.324 752.227, 544 748 C 522.825 745.780, 501.912 743.522, 497.526 742.982 C 484.189 741.340, 485.017 741.034, 478.569 749.989 M 615.628 757.750 C 616.091 758.712, 616.701 811.250, 616.985 874.500 C 617.488 986.757, 617.547 989.578, 619.474 992.765 C 623.819 999.949, 641.078 1000.093, 647.502 992.999 C 649.408 990.894, 649.525 988.970, 650.037 951.147 C 650.929 885.342, 651.076 760.001, 650.262 759.990 C 649.843 759.985, 642.300 759.089, 633.500 758 C 613.778 755.559, 614.579 755.570, 615.628 757.750 M 749.500 778.419 C 746.200 780.160, 739.769 783.538, 735.209 785.925 L 726.917 790.266 727.536 794.883 C 727.876 797.422, 730.592 814.350, 733.572 832.500 C 743.766 894.592, 744.919 899.189, 750.662 900.630 C 756.166 902.011, 768.570 899.123, 770.492 896.013 C 770.832 895.463, 770.187 888.597, 769.058 880.756 C 767.120 867.297, 764.468 843.930, 759.949 800.500 C 757.758 779.442, 757.082 774.940, 756.139 775.127 C 755.787 775.197, 752.800 776.678, 749.500 778.419 M 606.615 790.872 C 605.683 791.902, 601.132 794.871, 596.502 797.470 C 591.871 800.069, 587.638 802.731, 587.094 803.387 C 585.882 804.847, 583.426 813.759, 584.060 814.394 C 584.312 814.645, 590.026 815.174, 596.759 815.567 L 609 816.283 609 802.642 C 609 795.139, 608.845 789, 608.655 789 C 608.465 789, 607.547 789.843, 606.615 790.872 M 319.242 852.625 C 318 859.706, 316.095 869.550, 315.009 874.500 C 312.205 887.281, 312.343 892.434, 315.577 895.668 C 319.024 899.114, 319.658 898.232, 322.233 886.413 C 324.763 874.799, 325.074 853.984, 322.850 845.125 L 321.500 839.749 319.242 852.625 M 332.651 878.204 C 326.854 898.426, 324.979 909.566, 326.506 914.708 C 329.173 923.690, 332.707 926.189, 346.045 928.525 L 349.590 929.146 351.926 918.622 C 355.075 904.436, 357.522 900.406, 361.262 903.250 C 362.765 904.393, 362.779 905.186, 361.434 912.500 C 358.372 929.145, 358.375 929.805, 361.504 930.590 C 368.407 932.323, 384.509 930.242, 397.419 925.949 C 422.438 917.629, 425.261 914.173, 425.857 891.142 C 426.213 877.376, 426.143 876.732, 424.365 877.420 C 413.819 881.507, 405.427 882.475, 380.500 882.477 C 353.259 882.480, 349.387 881.827, 338.372 875.372 L 334.168 872.909 332.651 878.204 M 457.162 904.312 C 454.888 912.665, 452.053 922.686, 450.863 926.580 C 448.217 935.234, 448.647 937.279, 454.478 943.764 C 458.057 947.745, 465.982 953, 468.407 953 C 468.643 953, 469.831 948.612, 471.046 943.250 C 475.405 924.023, 479.004 916, 483.268 916 C 485.592 916, 485.636 915.634, 480.941 935.500 C 479.121 943.200, 477.602 950.850, 477.566 952.500 L 477.500 955.500 486.500 955.817 C 502.975 956.398, 527.373 952.025, 540.259 946.182 C 552.243 940.748, 557.268 931.202, 558.948 910.679 C 559.451 904.531, 560.194 898.640, 560.600 897.589 C 561.237 895.940, 561.007 895.774, 558.919 896.375 C 546.408 899.977, 538.190 901.166, 522.111 901.702 C 497.235 902.530, 483.160 900.127, 467.898 892.446 L 461.295 889.124 457.162 904.312" stroke="none" fill="#1a1a1a" fill-rule="evenodd"/>
</svg>