<svg xmlns="http://www.w3.org/2000/svg" width="1024" height="1024" viewBox="0 0 1024 1024" version="1.1">
	<path d="M 465 63.947 C 423.809 68.324, 388.011 79.525, 362.597 95.989 L 353.137 102.117 342.542 100.391 C 330.355 98.405, 325.068 98.989, 310.550 103.927 C 280.816 114.040, 257.944 139.561, 221.312 203.500 C 216.900 211.200, 209.825 223.518, 205.589 230.874 C 187.864 261.654, 184.669 279.415, 192.528 303.489 C 195.839 313.631, 197.753 317.202, 204.511 325.839 C 219.344 344.796, 242.453 358.137, 263.429 359.852 L 271.358 360.500 271.133 367.500 C 270.929 373.826, 270.348 375.607, 265.099 386 C 261.905 392.325, 258.251 400.068, 256.980 403.206 L 254.669 408.912 247 408.320 C 231.692 407.140, 219.185 415.329, 217.068 427.918 C 216.631 430.514, 215.413 432.097, 212.008 434.494 C 205.314 439.208, 203.504 442.968, 203.481 452.204 C 203.464 459.307, 203.239 460.141, 200.600 462.896 C 197.134 466.513, 194.859 474.439, 195.926 479.173 C 197.418 485.786, 199.683 488.409, 207.159 492.185 L 211.818 494.538 207.447 505.019 C 202.211 517.574, 202.026 520.732, 206.054 528.792 C 210.711 538.111, 216.300 543.505, 233.625 555.400 C 246.444 564.201, 252.484 569.233, 265 581.534 C 273.525 589.914, 282.975 598.336, 286 600.251 C 301.229 609.890, 316.306 615.528, 330.898 617.041 C 336.100 617.581, 340.538 618.204, 340.760 618.427 C 340.983 618.650, 340.678 623.673, 340.083 629.590 C 336.816 662.048, 340.091 699.907, 347.839 719.257 C 350.742 726.506, 350.867 727.346, 349.859 732.744 C 348.045 742.448, 349.399 795.696, 351.882 812.273 C 354.889 832.353, 356.719 841.520, 360.041 853.143 C 363.591 865.565, 363.550 864.645, 360.589 865.388 C 359.262 865.721, 354.758 868.280, 350.580 871.075 C 326.195 887.384, 317.675 921.092, 334.857 933.280 C 363.163 953.360, 428.072 953.383, 468.651 933.328 C 485.693 924.905, 488.088 920.552, 488.774 896.750 L 489.256 880 511.687 880 C 526.459 880, 533.906 880.343, 533.497 881.005 C 533.155 881.558, 530.316 883.750, 527.188 885.877 C 503.688 901.855, 495.746 935.588, 512.201 949.536 C 529.878 964.519, 576.561 968.175, 613.512 957.469 C 641.855 949.257, 664.920 933.570, 669.390 919.463 C 671.441 912.994, 672.041 896.470, 670.617 885.733 L 669.852 879.965 675.176 880.455 C 678.104 880.724, 723.060 881.205, 775.077 881.523 C 866.870 882.083, 869.723 882.045, 871.994 880.206 C 874.849 877.894, 874.179 875.399, 870.307 873.927 C 868.506 873.242, 833.333 872.684, 768.031 872.306 C 713.289 871.988, 668.429 871.677, 668.342 871.614 C 668.255 871.551, 667.355 866.325, 666.342 860 C 662.379 835.255, 664.026 794.753, 670.036 769.195 C 672.858 757.192, 672.639 757.429, 682.221 756.029 C 695.251 754.124, 712.695 749.367, 720.852 745.493 C 744.544 734.242, 765.781 709.982, 773.807 685 C 782.532 657.843, 776.867 624.006, 762.417 616.971 C 753.831 612.791, 750.355 615.571, 740.844 634.225 C 729.677 656.129, 710.091 672.723, 691.990 675.618 L 688 676.256 687.999 668.878 C 687.998 662.037, 686.485 642.760, 685.497 637 C 685.261 635.625, 684.364 629.775, 683.504 624 C 681.570 611.018, 679.177 600.803, 674.072 583.724 C 671.898 576.451, 666.731 557.596, 662.589 541.824 C 651.988 501.456, 644.987 483.396, 633.597 467.029 C 628.516 459.727, 618.039 448.805, 613.317 445.887 C 611.493 444.759, 610 443.681, 610 443.491 C 610 443.301, 612.813 441.465, 616.250 439.411 C 638.181 426.308, 660.550 402.510, 666.908 385.516 C 668.059 382.441, 669 379.267, 669 378.462 C 669 376.438, 670.677 376.634, 674.076 379.054 C 679.498 382.915, 695.490 389.870, 704 392.068 C 714.690 394.829, 725.586 394.303, 738 390.426 C 792.903 373.278, 828.534 319.055, 819.436 266.500 C 815.063 241.243, 808.566 228.569, 783.590 196.576 C 739.322 139.871, 728.132 128.772, 701.500 115.158 C 677.302 102.789, 654.760 99.270, 633.662 104.570 L 627.157 106.204 622.828 103.222 C 620.448 101.583, 616.259 98.387, 613.519 96.121 C 604.142 88.365, 578.385 76.703, 559.284 71.564 C 533.360 64.590, 491.086 61.175, 465 63.947 M 482 73.661 C 401.135 76.611, 337.947 110.882, 312.340 165.680 C 298.583 195.120, 295.407 217.632, 298.824 261.500 C 301.737 298.893, 300.567 307.422, 289.253 331.253 C 286.184 337.718, 283.954 343.288, 284.298 343.631 C 284.641 343.974, 289.019 344.864, 294.027 345.608 C 316.063 348.884, 339.577 359.491, 364.455 377.378 L 369.409 380.940 371.696 376.220 C 374.736 369.943, 374.627 369.340, 370.305 368.529 C 351.127 364.932, 342.886 345.839, 354.603 332.150 C 361.069 324.597, 364.382 323.495, 380.500 323.535 C 395.706 323.572, 401.345 324.997, 408.835 330.695 C 423.550 341.888, 414.420 362.963, 392.271 368.927 C 387.246 370.280, 383.780 374.355, 381.408 381.699 C 379.340 388.104, 379.107 387.725, 393.138 400.776 C 399.478 406.674, 406.842 413.975, 409.501 417 C 415.952 424.339, 419.103 425.163, 426.632 421.479 C 429.702 419.977, 434.711 416.330, 437.763 413.374 C 443.040 408.262, 448.022 406.355, 450.258 408.591 C 451.422 409.755, 448.061 418.327, 445.307 421.218 C 441.992 424.698, 427.448 432, 423.831 432 L 421.308 432 422.747 437.649 C 424.684 445.253, 423.798 446.832, 414.006 453.235 C 403.807 459.905, 403.913 460.966, 415.007 463.243 C 461.005 472.682, 522.859 468.322, 566.366 452.574 C 613.001 435.692, 646.649 409.243, 658.688 380 C 662.012 371.926, 661.742 370.569, 655.459 363.783 C 645.266 352.773, 635.871 330.156, 630.833 304.500 C 630.293 301.750, 629.487 281.500, 629.042 259.500 C 628.145 215.143, 627.706 211.586, 620.589 191.045 C 616.996 180.675, 616.982 180.573, 618.918 178.637 C 624.764 172.792, 633.549 191.241, 636.947 216.500 C 637.539 220.900, 638.182 240.475, 638.376 260 C 638.569 279.525, 639.052 297.075, 639.447 299 C 639.843 300.925, 640.813 305.612, 641.604 309.415 C 646.082 330.952, 655.703 350.723, 666.703 360.996 C 682.383 375.640, 708.756 385.539, 725.084 382.909 C 774.985 374.873, 817.561 320.404, 810.685 273.398 C 806.773 246.652, 800.061 232.926, 776.593 203.675 C 772.103 198.079, 765.542 189.675, 762.014 185 C 733.124 146.720, 709.416 126.784, 681.910 117.638 C 658.191 109.752, 638.796 110.525, 619.779 120.115 C 616.632 121.702, 613.594 123, 613.029 123 C 611.109 123, 611.988 117.704, 614.441 114.489 L 616.882 111.289 614.191 109.313 C 595.936 95.914, 577.589 87.384, 554.286 81.464 C 531.145 75.584, 505.417 72.807, 482 73.661 M 320.640 111.501 C 303.702 114.991, 285.353 127.711, 269.802 146.743 C 261.613 156.763, 240.465 189.627, 227.486 212.500 C 221.556 222.950, 215.713 233.075, 214.502 235 C 199.768 258.421, 195.697 277.020, 200.930 297 C 208.006 324.015, 236.652 347.247, 266.725 350.359 L 271.950 350.900 273.012 346.700 C 275.116 338.385, 277.240 332.447, 279.518 328.509 C 282.877 322.705, 288.588 307.468, 290.016 300.500 C 291.136 295.034, 290.704 266.164, 289.403 259.538 C 287.876 251.762, 287.863 219.634, 289.383 209.378 C 294.665 173.736, 309.267 143.355, 331.740 121.250 C 341.549 111.602, 341.988 111, 339.220 111 C 337.603 111, 334.304 110.795, 331.890 110.544 C 329.475 110.293, 324.413 110.723, 320.640 111.501 M 335.995 189.302 C 327.271 191.750, 320.839 197.407, 316.071 206.827 C 310.994 216.857, 315.244 218.363, 324.075 209.662 C 332.899 200.967, 337.439 198.768, 347.731 198.203 C 356.628 197.715, 359.335 196.314, 356.945 193.434 C 353.393 189.153, 343.488 187.200, 335.995 189.302 M 510.021 191.088 C 499.335 195.471, 502.823 202.539, 515.136 201.457 C 528.029 200.324, 536.320 204.495, 541.870 214.907 C 546.593 223.769, 551.812 222.893, 550.744 213.417 C 549.887 205.819, 541.271 197.097, 530.782 193.210 C 524.334 190.821, 513.398 189.703, 510.021 191.088 M 340.367 270.690 C 336.570 271.434, 330.377 277.695, 328.022 283.170 C 321.378 298.616, 333.402 317.555, 346.643 312.499 C 354.823 309.375, 361 299.174, 361 288.790 C 361 279.900, 356.222 273.267, 348.219 271.044 C 344.411 269.986, 344.044 269.970, 340.367 270.690 M 496.935 282.265 C 489.825 287.056, 487.500 292.044, 487.500 302.505 C 487.500 314.209, 490.066 318.783, 499.194 323.347 C 509.285 328.394, 517.068 325.196, 523 313.564 C 531.702 296.500, 523.314 280, 505.936 280 C 501.732 280, 499.440 280.577, 496.935 282.265 M 380.699 307.950 C 372.093 309.652, 375.506 310.543, 390.553 310.522 C 403.782 310.503, 406.008 310.280, 405.763 309 C 405.438 307.300, 387.734 306.559, 380.699 307.950 M 283.263 356.250 C 282.723 356.938, 282.015 358.910, 281.689 360.633 C 281.363 362.357, 280.815 364.888, 280.471 366.258 C 279.885 368.594, 280.148 368.794, 284.673 369.464 C 296.154 371.161, 324.917 383.985, 342.767 395.365 C 362.719 408.085, 382.663 425.033, 397.336 441.738 C 403.090 448.288, 409.129 448.200, 412.173 441.520 C 414.612 436.166, 398.904 416.090, 381.014 401.698 C 376.881 398.373, 371.025 393.075, 368 389.926 C 362.809 384.521, 347.931 374.529, 336.479 368.756 C 317.886 359.385, 286.580 352.027, 283.263 356.250 M 275.630 385.778 C 270.299 394.871, 263.682 408.756, 255.032 429 C 251.624 436.975, 246.110 448.900, 242.778 455.500 C 225.917 488.899, 214.720 510.597, 213.906 511.450 C 212.366 513.064, 212.879 513.726, 216.181 514.386 C 221.659 515.482, 242.142 524.062, 250.500 528.762 C 261.283 534.826, 275.934 545.574, 290.824 558.343 C 301.948 567.883, 306.401 570.932, 307.543 569.790 C 307.759 569.574, 309.638 567.100, 311.718 564.292 C 313.798 561.484, 319.858 554.170, 325.186 548.038 C 338.393 532.836, 344.996 520.279, 345.010 510.335 C 345.026 499.073, 350.561 489.970, 359.250 486.916 C 362.898 485.634, 363 485.464, 363 480.667 C 363 474.381, 365.575 470.123, 371.788 466.136 C 376.809 462.914, 386.262 460, 391.691 460 C 394.346 460, 395.080 459.529, 395.589 457.500 C 396.776 452.774, 394.897 449.827, 383.213 438.085 C 355.811 410.548, 327.158 391.805, 298.034 382.367 C 280.154 376.573, 281.112 376.427, 275.630 385.778 M 238.261 417.237 C 231.202 418.696, 224.514 426.686, 226.350 431.468 C 226.660 432.279, 229.746 435.028, 233.207 437.578 L 239.500 442.215 243.147 434.357 C 247.420 425.151, 249.535 419.202, 248.798 418.464 C 247.406 417.072, 242.068 416.451, 238.261 417.237 M 217.743 442.084 C 215.324 443.493, 212 450.300, 212 453.845 C 212 457.432, 214.588 459.308, 222.326 461.329 C 228.784 463.015, 228.364 463.299, 232.949 454.149 C 236.647 446.768, 236.992 447.479, 227.943 443.844 C 219.998 440.652, 220.156 440.679, 217.743 442.084 M 590.500 452.567 C 546.575 473.950, 479.176 483.088, 429 474.463 C 425.854 473.922, 426.106 474.196, 431.500 477.180 C 435.395 479.335, 442.822 485.681, 452.671 495.270 C 469.462 511.617, 470.566 512.298, 490.154 518.413 C 504.280 522.823, 504.651 522.824, 512.854 518.481 C 519.114 515.167, 521.918 513.022, 538.704 498.704 C 545.138 493.216, 555.737 487, 558.660 487 C 562.281 487, 558.711 491.698, 545.499 504.313 C 533.356 515.908, 524.383 522.948, 518.632 525.393 C 516.833 526.158, 521.038 529, 523.969 529 C 529.536 529, 532.896 533.840, 529.250 536.608 C 525.427 539.510, 518.825 538.225, 494.838 529.912 C 464.363 519.352, 462.764 518.446, 446.198 502.386 C 429.618 486.313, 407.439 471.881, 396.738 470.203 C 382.141 467.914, 370.155 474.512, 372.432 483.584 C 373.128 486.356, 377.044 488.600, 384.644 490.579 C 394.851 493.238, 401.587 497.576, 400.555 500.826 C 399.587 503.875, 397.274 503.628, 383.500 499 C 366.719 493.362, 361.102 493.757, 356.280 500.912 C 350.636 509.288, 354.503 515.909, 368.616 522.035 C 379.393 526.714, 389 532.131, 389 533.531 C 389 534.995, 385.734 538, 384.143 538 C 383.483 538, 380.326 536.679, 377.127 535.064 C 370.438 531.687, 353.836 525, 352.142 525 C 349.799 525, 350.490 540.096, 353.058 545 C 359.213 556.757, 387.553 576.301, 411.624 585.389 C 418.912 588.141, 420.402 588.979, 441.975 602.467 C 474.414 622.749, 495.022 630.673, 518 631.699 C 556.800 633.433, 591.875 616.520, 613.500 585.650 C 625.317 568.782, 625.982 568, 628.511 568 C 637.316 568, 622.095 594.394, 603.882 610.710 C 587.824 625.094, 571.094 633.987, 551.742 638.425 C 545.003 639.971, 519.374 642.349, 518.079 641.549 C 517.704 641.317, 513.370 640.599, 508.448 639.953 C 485.814 636.984, 453.209 622.403, 428 603.976 C 420.982 598.846, 416.410 596.339, 410.500 594.382 C 399.372 590.696, 386.436 584.259, 373.511 575.976 C 360.844 567.860, 361.348 567.757, 357.954 579.153 C 352.136 598.690, 347.510 640.161, 348.324 665.500 C 349.608 705.514, 356.531 725.797, 377.267 750.297 C 381.102 754.828, 381.462 757.992, 378.143 758.008 C 377.239 758.012, 372.372 753.751, 367.326 748.539 L 358.152 739.063 357.500 745.281 C 356.366 756.093, 359.179 797.871, 362.592 820.898 C 364.053 830.758, 368.496 850.487, 371.048 858.448 C 374.438 869.027, 374.755 868.395, 363.218 874.074 C 347.068 882.023, 336.628 896.078, 335.332 911.615 C 334.498 921.610, 336.183 925.054, 343.783 928.891 L 349.712 931.883 350.304 923.192 C 351.276 908.923, 356.235 896.817, 363.114 891.919 C 369.531 887.349, 371.077 892.992, 365.432 900.385 C 358.743 909.146, 356.701 915.302, 357.288 924.941 C 357.961 935.982, 359.112 936.744, 377.866 938.566 L 385.231 939.281 384.535 932.345 C 383.029 917.349, 390.869 897, 398.152 897 C 402.196 897, 402.080 900.394, 397.813 906.925 C 393.142 914.073, 390.869 925.974, 392.601 934.210 L 393.503 938.500 401.502 938.812 C 424.825 939.722, 461.130 929.760, 474.422 918.803 C 480.074 914.145, 480.318 911.940, 479.544 872.500 C 478.829 836.059, 479.309 828.516, 483.467 810.878 C 485.770 801.110, 485.904 801.389, 478.250 800.009 C 448.320 794.612, 423 783.569, 423 775.912 C 423 772.015, 423.740 772.148, 440 778.979 C 461.276 787.917, 475.258 791.207, 497.645 792.541 C 512.412 793.421, 514.403 792.937, 515.847 788.115 C 517.103 783.923, 520.289 780.442, 521.937 781.461 C 522.587 781.862, 523 786.527, 523 793.453 C 523 824.809, 528.406 848.983, 540.470 871.575 C 547.715 885.142, 547.763 884.826, 537.611 890.525 C 520.029 900.393, 513.037 911.475, 513.016 929.500 C 513.005 938.288, 514.964 941.792, 522.209 945.947 C 529.239 949.978, 529.362 949.924, 528.741 943.076 C 527.621 930.726, 532.771 915.150, 540.192 908.446 C 544.264 904.767, 545.887 904.287, 547.800 906.200 C 549.597 907.997, 549.344 908.644, 545.153 912.962 C 537.873 920.464, 533.591 936.642, 536.363 946.177 C 538.228 952.592, 538.154 952.547, 549.252 954.024 C 561.210 955.615, 567.553 955.080, 567.316 952.500 C 567.215 951.400, 566.849 947.572, 566.502 943.993 C 565.730 936.021, 567.770 925.361, 571.461 918.077 C 574.399 912.279, 576.020 911.233, 579.564 912.847 C 582.755 914.301, 582.637 916.271, 579.059 921.337 C 575.046 927.016, 573.173 939.389, 575.013 948.060 L 576.273 954 580.887 953.999 C 590.855 953.996, 612.962 948.939, 625.450 943.806 C 639.233 938.139, 655.220 927.172, 659.731 920.287 C 662.520 916.032, 662.201 887.689, 659.177 871 C 655.313 849.678, 653.744 804.268, 656.412 791 C 656.689 789.625, 657.403 785.400, 657.999 781.612 C 659.503 772.048, 662.554 759.228, 665.996 748 C 681.382 697.817, 682.069 645.127, 667.957 597.500 C 662.800 580.095, 657.449 560.448, 652.026 539.007 C 642.301 500.554, 634.211 482.465, 618.231 463.438 C 611.901 455.901, 602.876 448.953, 599.579 449.080 C 598.436 449.123, 594.350 450.693, 590.500 452.567 M 208.025 468.975 C 203.335 473.665, 204.225 480.054, 209.976 482.988 C 215.395 485.752, 215.588 485.686, 219.373 479.750 C 225.001 470.927, 224.960 470.595, 218.029 468.668 C 210.520 466.580, 210.417 466.583, 208.025 468.975 M 213 523.804 C 213 525.802, 219.106 533.923, 223.546 537.832 C 230.726 544.151, 262.920 565.492, 267.534 566.990 C 269.715 567.698, 275.944 570.264, 281.376 572.692 C 290.681 576.852, 300 579.549, 300 578.081 C 300 574.300, 270.964 549.950, 254 539.506 C 236.664 528.833, 213 519.770, 213 523.804 M 331.044 556.450 C 325.504 562.747, 320.514 568.182, 319.956 568.527 C 319.397 568.872, 316.879 572.284, 314.359 576.109 C 309.322 583.756, 306.332 585.818, 299.035 586.682 C 293.724 587.311, 292.333 586.929, 280.500 581.589 C 271.025 577.313, 272.435 578.875, 287.290 589.109 C 303.866 600.529, 319.224 606.541, 334.750 607.688 C 342.955 608.294, 343 608.284, 343.023 605.899 C 343.061 602.014, 347.763 579.259, 350.588 569.289 L 353.198 560.079 349.724 555.789 C 347.813 553.430, 345.506 550.038, 344.599 548.250 C 343.691 546.462, 342.537 545, 342.033 545 C 341.529 545, 336.584 550.152, 331.044 556.450 M 755.827 627.738 C 754.999 628.707, 752.606 632.650, 750.509 636.500 C 735.019 664.932, 717.910 679.999, 695.902 684.588 C 686.625 686.522, 687.350 685.737, 686.531 694.736 C 685.610 704.865, 682.504 722.854, 679.425 735.902 C 678.075 741.623, 677.187 746.520, 677.452 746.785 C 679.076 748.410, 709.823 740.646, 717.807 736.595 C 733.659 728.552, 752.065 709.718, 760.586 692.821 C 770.186 673.784, 771.705 649.127, 764.207 634.061 C 760.848 627.312, 758.016 625.175, 755.827 627.738 M 495.562 802.900 C 494.326 804.900, 489.980 825.356, 489.031 833.646 C 487.884 843.654, 487.708 858.921, 488.648 866.750 L 489.279 872 507.889 871.985 C 530.002 871.966, 530.309 871.860, 527.097 865.302 C 521.627 854.134, 516.410 832.820, 514.541 814 C 513.255 801.064, 514.040 802, 504.480 802 C 499.881 802, 495.868 802.405, 495.562 802.900 M 136.944 873.844 C 133.800 876.390, 134.979 878.645, 140.199 880.067 C 146.415 881.759, 328.525 880.881, 331.750 879.142 C 334.207 877.818, 334.689 875.089, 332.800 873.200 C 331.883 872.283, 308.891 872, 235.411 872 C 143.419 872, 139.122 872.080, 136.944 873.844" stroke="none" fill="#1a1a1a" fill-rule="evenodd"/>
</svg>