<svg xmlns="http://www.w3.org/2000/svg" width="1024" height="1024" viewBox="0 0 1024 1024" version="1.1">
	<path d="M 483 68.569 C 451.542 72.595, 422.548 82.020, 396.741 96.607 L 386.982 102.123 384.055 100.039 C 372.021 91.470, 358.133 89.054, 342.963 92.890 C 326.557 97.039, 318.017 102.224, 292.400 123.591 C 276.013 137.260, 264.820 145.882, 238.076 165.439 C 215.656 181.834, 204.722 196.646, 200.438 216.424 C 196.504 234.587, 201.382 262.500, 213.066 288.684 C 229.496 325.503, 244.433 339.925, 267.079 340.834 C 281.865 341.428, 291.376 337.010, 299.953 325.563 C 301.824 323.065, 303.545 321.212, 303.778 321.445 C 304.010 321.677, 302.355 329.060, 300.099 337.851 C 292.788 366.348, 292.424 381.429, 298.573 401.151 C 309.093 434.892, 342.325 464.589, 386.250 479.502 L 394.743 482.386 383.122 489.837 C 357.252 506.423, 342.246 517.898, 326.500 533.134 L 316.500 542.810 308.581 543.137 L 300.662 543.464 290.830 519.982 C 285.422 507.067, 277.801 488.625, 273.894 479 C 258.336 440.676, 257.247 439.250, 244.910 441.033 C 241.384 441.543, 238.018 441.969, 237.430 441.980 C 235.228 442.021, 227.661 449.536, 225.886 453.444 C 222.205 461.548, 222.619 463.046, 239.970 504.500 C 249.830 528.055, 257.010 546.575, 256.984 548.386 C 256.976 548.999, 253.639 553.274, 249.569 557.887 C 237.723 571.312, 233 582.794, 233 598.164 L 233 605.869 209.250 606.185 C 189.261 606.450, 185.013 606.767, 182.422 608.187 C 180.729 609.115, 169.461 617.665, 157.382 627.187 C 145.304 636.709, 126.485 651.475, 115.562 660 C 69.707 695.790, 33.248 724.760, 29.357 728.500 C 22.965 734.644, 22.487 737.590, 23.869 762.322 C 24.573 774.915, 25.566 784.418, 26.381 786.369 C 29.478 793.782, 38.003 797.630, 53.649 798.676 L 62.797 799.288 63.381 816.394 C 63.702 825.802, 64.225 865.225, 64.542 904 C 65.115 973.926, 65.137 974.537, 67.310 978.999 C 71.143 986.871, 78.050 989.985, 91.701 989.994 C 108.059 990.006, 116.261 985.927, 118.885 976.477 C 119.651 973.719, 119.991 946.228, 119.994 886.750 L 120 801 131.750 801.032 C 147.571 801.074, 215.003 803.670, 215.592 804.258 C 216.875 805.541, 217.936 828.677, 217.966 856.007 C 217.985 872.830, 218.440 888.046, 218.980 889.931 C 221.381 898.304, 227.988 901.393, 243.162 901.240 C 253.411 901.137, 256.760 900.102, 260.633 895.845 C 266.040 889.901, 266 890.271, 266 845.951 L 266 804.802 288.750 805.420 C 301.262 805.760, 316.113 806.298, 321.750 806.615 L 332 807.192 332.018 814.846 C 332.038 823.269, 334.094 839.283, 336.471 849.532 C 338.696 859.127, 338.750 858.995, 330.436 864.405 C 295.628 887.052, 298.963 932.519, 336.286 944.172 C 352.201 949.141, 367.792 949.974, 388.367 946.953 C 424.702 941.619, 453.046 925.343, 461.230 905.112 C 463.364 899.836, 463.500 898.109, 463.499 876.250 L 463.498 853 470.499 853.028 C 487.956 853.099, 514.397 854.972, 515.518 856.217 C 516.504 857.310, 519 866.456, 519 868.973 C 519 869.424, 515.719 871.838, 511.708 874.338 C 477.869 895.429, 475.778 935.745, 507.642 952.729 C 517.647 958.061, 526.798 960.148, 542.736 960.730 C 576.789 961.976, 609.739 952.201, 627.774 935.503 L 635 928.813 635.006 939.656 C 635.012 952.957, 636.048 956.957, 640.497 960.863 C 648.863 968.209, 672.271 967.904, 680.159 960.347 C 685.727 955.014, 686 952.232, 686 900.928 L 686 854.220 695.852 850.062 C 707.732 845.050, 719.832 837.367, 734.230 825.697 C 743.175 818.447, 745.546 817, 748.480 817 L 752 817 752.123 840.250 C 752.694 948.484, 753.502 987.503, 755.235 990.671 C 758.701 997.006, 762.190 998.456, 774.950 998.863 C 789.911 999.341, 796.007 997.993, 800.866 993.134 C 807.169 986.831, 807 989.445, 807 898.147 L 807 815.027 810.578 813.532 C 815.538 811.459, 825.403 801.707, 844.750 779.750 C 853.837 769.438, 861.398 761, 861.552 761 C 861.705 761, 861.898 789.013, 861.979 823.250 C 862.139 890.987, 862.277 893.071, 866.853 897.160 C 874.272 903.788, 898.919 903.904, 906.173 897.345 C 912.318 891.787, 912 897.455, 912 793.529 L 912 698.978 920.492 688.739 C 925.163 683.108, 929.740 676.925, 930.662 675 C 933.163 669.783, 933.834 633.500, 931.621 623.105 C 928.650 609.148, 929.941 609.468, 877.820 609.752 L 836.140 609.978 836.246 600.239 C 836.545 572.878, 821.418 540.507, 804.164 531.585 C 796.139 527.435, 793.968 529.840, 793.372 543.542 C 792.486 563.894, 787.733 583.588, 779.945 599.171 C 774.635 609.799, 774.308 610, 762.407 610 C 749.431 610, 749.001 609.828, 748.997 604.643 C 748.977 579.041, 729.255 535.641, 702.355 502 C 689.495 485.918, 664.293 462.829, 651.599 455.500 C 650.107 454.639, 650.855 453.678, 656.981 448.580 C 670.142 437.629, 683.760 420.382, 691.673 404.644 C 696.213 395.616, 703 376.828, 703 373.290 C 703 370.068, 704 369.967, 709.301 372.652 C 736.714 386.544, 756.718 379.943, 782.491 348.500 C 832.582 287.391, 850.071 235.757, 832.248 201.603 C 827.411 192.334, 813.107 177.466, 798.500 166.525 C 782.656 154.658, 730.827 118.229, 721.988 112.748 C 693.821 95.282, 669.083 92.353, 648.089 104 L 642.677 107.002 633.589 101.580 C 586.654 73.579, 534.014 62.040, 483 68.569 M 479.315 79.962 C 413.583 90.236, 366.508 121.163, 341.870 170.260 C 327.424 199.046, 319.874 233.256, 317.980 278.500 C 316.610 311.243, 315.954 316.439, 310.450 338.173 C 302.393 369.985, 302.985 389.877, 312.555 408.812 C 327.938 439.251, 357.648 460.440, 403.439 473.629 C 491.128 498.885, 590.400 486.914, 645.513 444.437 C 667.207 427.717, 685.313 401.015, 691.496 376.622 C 694.879 363.275, 694.761 360.854, 690.408 354.296 C 676.261 332.982, 669.140 299.140, 665.508 235.955 C 663.016 192.599, 661.407 185.668, 652.108 178.203 C 647.818 174.760, 646.968 172.101, 649.489 170.009 C 653.840 166.398, 663.749 173.737, 668.381 184 C 672.186 192.432, 673.797 202.565, 674.976 225.500 C 679.241 308.446, 688.473 343.457, 710.454 360.053 C 729.148 374.167, 748.028 371.443, 766.327 351.991 C 800.365 315.808, 828.965 261.700, 828.993 233.434 C 829.022 204.514, 820.518 194.674, 755 147.812 C 713.012 117.781, 706.375 113.820, 690.969 109.597 C 669.732 103.776, 655.974 107.495, 644.154 122.250 C 640.466 126.855, 638.056 129, 636.574 129 C 631.756 129, 630.578 124.037, 634.058 118.406 L 636.116 115.076 631.308 112.001 C 611.969 99.634, 580.901 87.477, 554.500 81.946 C 534.503 77.756, 499.362 76.829, 479.315 79.962 M 345.241 102.952 C 329.769 107.134, 325.007 110.113, 298.005 132.504 C 286.727 141.856, 267.375 156.918, 255 165.974 C 224.064 188.614, 216.744 196.475, 211.715 212.458 C 205.689 231.613, 212.053 264.702, 227.618 295.141 C 238.234 315.900, 243.609 322.220, 255.725 328.185 C 272.859 336.621, 288.796 328.500, 302.492 304.354 C 307.107 296.217, 307.504 294.985, 307.752 288.027 C 309.706 233.288, 313.410 211.249, 325.740 181 C 337.050 153.255, 351.213 132.484, 370 116.093 C 374.125 112.494, 377.500 109.103, 377.500 108.557 C 377.500 108.011, 374.938 106.254, 371.806 104.653 C 364.258 100.792, 355.345 100.222, 345.241 102.952 M 377.811 206.470 C 366.917 209.471, 349.406 225.403, 351.371 230.525 C 352.674 233.920, 357.219 232.117, 364.098 225.476 C 372.819 217.056, 378.155 214.617, 388 214.551 C 394.977 214.504, 395.522 214.345, 395.817 212.271 C 396.685 206.163, 388.500 203.526, 377.811 206.470 M 564.833 209.183 C 560.028 210.462, 557.195 213.497, 558.646 215.809 C 559.491 217.153, 561.839 217.615, 570.104 218.064 C 583.968 218.815, 589.751 222.081, 598.626 234.171 C 601.589 238.207, 602.729 239.053, 604.875 238.804 C 612.144 237.961, 604.512 223.844, 592.431 215.784 C 582.355 209.063, 573.362 206.912, 564.833 209.183 M 368.500 291.871 C 351.263 302.576, 350.207 340.433, 366.909 348.953 C 387.481 359.448, 407.215 324.733, 395.009 299.519 C 391.019 291.276, 376.297 287.028, 368.500 291.871 M 557.871 303.006 C 542.290 311.239, 537.629 341.717, 549.876 355.289 C 569.340 376.860, 600.794 344.126, 588.109 315.500 C 582.547 302.950, 568.759 297.253, 557.871 303.006 M 440.156 337.009 C 426.336 338.949, 415.410 344.128, 417.631 347.687 C 418.980 349.850, 419.983 349.830, 431 347.423 C 437.042 346.102, 443.693 345.556, 454 345.533 L 468.500 345.500 477 349.373 C 487.214 354.027, 491.090 354.801, 492.952 352.557 C 495.613 349.351, 485.624 342.340, 473.097 338.621 C 466.506 336.664, 448.788 335.797, 440.156 337.009 M 433.470 358.458 C 420.372 360.838, 412.992 366.562, 413.010 374.327 C 413.034 384.693, 422.476 395.782, 435.242 400.439 L 442.500 403.086 442.582 412.293 C 442.629 417.560, 443.331 423.667, 444.223 426.564 L 445.782 431.628 441.641 434.225 C 430.161 441.426, 417.319 439.866, 406.581 429.968 C 401.018 424.840, 397.822 419.849, 397.051 415.083 C 396.335 410.660, 389.769 406.269, 387.954 409 C 383.669 415.448, 399.524 438.742, 412.500 445.064 C 421.049 449.229, 433.424 448.647, 443.341 443.613 L 450.998 439.727 454.749 442.314 C 476.613 457.396, 506.459 451.214, 523.435 428.088 C 526.111 424.443, 527.845 423, 529.550 423 C 534.732 423, 534.366 414.872, 529.055 412.030 C 525.609 410.185, 517.524 410.764, 515.500 413 C 513.753 414.930, 513.753 415.070, 515.500 417 C 516.495 418.100, 517.957 419, 518.748 419 C 523.526 419, 504.403 435.611, 495.280 439.385 C 487.215 442.723, 472.986 442.323, 466.212 438.570 C 454.837 432.268, 451 425.081, 451 410.072 L 451 403.243 457.750 401.558 C 472.692 397.826, 483.961 385.750, 483.990 373.437 C 484.018 361.692, 458.049 353.992, 433.470 358.458 M 243.497 451.456 C 232.335 455.256, 230.884 457.833, 234.418 467.571 C 235.749 471.238, 237.238 474.638, 237.727 475.127 C 238.451 475.851, 256.294 469.029, 257.926 467.405 C 258.498 466.836, 251.986 451.781, 250.596 450.456 C 249.830 449.727, 247.691 450.028, 243.497 451.456 M 639.450 461.918 C 637.332 463.964, 616.834 474.160, 607.064 478.028 C 552.181 499.755, 486.111 503.812, 421.260 489.436 L 409.099 486.740 400.995 490.882 C 381.062 501.069, 355.638 519.070, 338.500 535.129 L 328.500 544.500 336.150 548.257 C 357.203 558.597, 366.196 577.770, 361.353 601.986 L 360.767 604.913 379.243 605.206 L 397.719 605.500 398.299 590.500 C 399.356 563.181, 407.673 524.851, 413.184 521.901 C 418.727 518.935, 419.319 526.148, 414.958 543.500 C 410.190 562.473, 408 577.924, 408 592.600 L 408 605.701 417.154 606.350 C 422.188 606.708, 454.901 607, 489.849 607 L 553.391 607 555.945 604.592 C 565.592 595.498, 594.986 586, 613.482 586 C 616.967 586, 625.555 582.551, 628.278 580.057 C 628.706 579.665, 627.089 575.779, 624.686 571.422 C 614.216 552.442, 612.517 543.357, 619.589 544.170 C 622.201 544.470, 623.105 545.794, 629.573 558.793 C 633.485 566.654, 637.142 573.542, 637.701 574.101 C 638.389 574.789, 642.666 573.980, 650.942 571.597 C 673.211 565.186, 684 564.515, 684 569.540 C 684 572.593, 683.002 573.028, 668.353 576.357 C 654.123 579.591, 639.974 584.898, 628.526 591.295 L 619.500 596.339 604.500 597.066 C 586.270 597.948, 577.240 600.779, 563.241 610.002 C 540.094 625.251, 533.157 642.348, 544.598 655.949 L 547.500 659.398 548.064 652.899 C 549.207 639.719, 564.252 619, 572.679 619 C 577.413 619, 576.393 621.803, 568.674 630.009 C 555.095 644.444, 553.019 660.664, 563.567 669.925 C 566.923 672.871, 578.002 677, 582.554 677 C 584.886 677, 584.890 676.981, 583.267 673.250 C 577.540 660.085, 584.932 639.675, 597.294 634.519 C 604.261 631.613, 604.532 635.295, 597.905 642.838 C 590.086 651.737, 588.035 661.046, 591.664 671.171 C 593.337 675.837, 593.346 675.844, 598.919 676.472 C 613.583 678.125, 635.183 671.643, 649.132 661.403 L 653.768 658 667.253 658 C 694.487 658, 716.710 651.026, 729.614 638.430 C 759.941 608.828, 715.361 511.840, 651.033 467.470 C 641.031 460.571, 640.906 460.511, 639.450 461.918 M 251.086 478.550 C 240.517 483.507, 240.777 483.120, 243.515 489.799 C 246.252 496.478, 246.005 496.458, 257.750 490.979 C 267.013 486.657, 266.942 486.793, 263.483 479.967 C 260.506 474.092, 260.573 474.099, 251.086 478.550 M 259.054 498.915 C 254.409 500.982, 250.452 503.143, 250.261 503.717 C 249.138 507.086, 277.092 568.268, 285.994 581.926 C 297.420 599.457, 298.453 602.329, 298.479 616.647 L 298.500 628.794 304.355 637.414 C 312.512 649.423, 312.678 649.508, 320.849 645.851 C 329.520 641.971, 329.205 642.659, 326.378 633.755 C 324.035 626.375, 323.664 625.846, 318.498 622.542 C 308.708 616.279, 305.230 608.469, 304.007 590 C 303.087 576.116, 302.531 574.204, 290.123 542.287 C 279.801 515.733, 270.713 495.551, 268.982 495.339 C 268.167 495.239, 263.699 496.848, 259.054 498.915 M 803.593 550.723 C 801.991 566.477, 797.329 583.701, 790.415 599.410 C 788.005 604.886, 786.270 609.604, 786.560 609.893 C 787.320 610.653, 824.897 610.436, 825.666 609.667 C 827.087 608.246, 826.332 588.416, 824.618 582.127 C 820.721 567.827, 812.339 551.236, 806.207 545.687 C 804.329 543.988, 804.265 544.112, 803.593 550.723 M 307.774 563.890 C 310.662 572.632, 311.786 574.911, 312.979 574.448 C 316.392 573.124, 323.790 572.817, 325.841 573.915 C 329.576 575.914, 328.336 577.933, 321.489 581.005 C 313.677 584.510, 312.545 586.594, 313.381 595.926 C 315.298 617.296, 332.304 622.886, 346.416 606.785 C 356.632 595.127, 354.962 577.056, 342.500 564.412 C 334.608 556.405, 328.352 553.927, 314.296 553.241 L 304.091 552.742 307.774 563.890 M 256.013 564.750 C 234.492 588.790, 238.573 625.562, 264.278 639.233 C 272.259 643.478, 292.028 641.386, 291.985 636.301 C 291.954 632.750, 290.634 631.883, 287.123 633.107 C 278.128 636.243, 267.530 631.942, 261.250 622.605 C 255.274 613.722, 258.084 610.058, 265.576 616.963 C 275.654 626.253, 284.587 626.020, 288.621 616.364 C 291.878 608.569, 289.662 602.336, 276.718 582.895 C 271.447 574.978, 266.220 566.362, 265.102 563.750 C 262.541 557.760, 262.241 557.793, 256.013 564.750 M 348.734 617.411 C 346.663 619.242, 342.725 621.805, 339.984 623.106 C 334.296 625.807, 334.391 625.476, 336.947 633.628 C 343.142 653.387, 345.506 682.894, 341.235 687.165 C 340.636 687.764, 339.087 687.988, 337.792 687.663 C 333.788 686.658, 316.550 669.514, 307.349 657.386 C 297.687 644.650, 298.997 645.251, 288.859 648.913 C 285.756 650.033, 280.428 651.159, 277.017 651.413 C 271.838 651.799, 270.049 652.462, 266.158 655.435 C 261.430 659.048, 219.132 699.265, 219.518 699.781 C 219.634 699.935, 226.652 699.323, 235.114 698.421 C 280.671 693.561, 342.197 702.087, 373.377 717.580 C 378.269 720.011, 383.233 722, 384.408 722 C 387.514 722, 405.476 703.358, 431.193 673.443 C 439.204 664.124, 450.103 651.550, 455.413 645.500 L 465.068 634.500 456.284 630.298 C 434.018 619.646, 401.879 613.919, 365.050 614.042 L 352.500 614.083 348.734 617.411 M 185.961 617.782 C 184.058 618.763, 178 623.182, 172.500 627.604 C 159.891 637.739, 64.399 712.382, 53 721.012 C 41.229 729.923, 35.936 734.949, 34.352 738.718 C 31.954 744.426, 33.313 777.980, 36.159 783.297 C 39.325 789.212, 44.781 789.522, 225 794.001 C 247.825 794.569, 279.775 795.476, 296 796.019 C 342.288 797.565, 442.141 800.284, 551.500 802.975 C 656.880 805.569, 789.367 807.497, 798.632 806.573 L 805.500 805.888 817.304 793.833 C 858.854 751.401, 918.609 679.436, 921.497 668.351 C 924.190 658.013, 923.156 625.049, 920.035 621.691 C 919.621 621.246, 896.156 620.689, 867.891 620.452 C 839.626 620.215, 801.087 619.781, 782.250 619.487 C 748.965 618.967, 748 619.006, 748 620.871 C 748 625.196, 743.730 636.159, 740.234 640.806 C 729.437 655.164, 708.856 664.979, 686.054 666.643 C 681.349 666.986, 676.992 667.545, 676.371 667.884 C 675.750 668.223, 671.056 673.675, 665.940 680 C 658.456 689.253, 624.227 729.268, 604.672 751.624 L 600.844 756 606.672 756.075 C 609.877 756.116, 623.975 756.285, 638 756.451 C 652.025 756.617, 692.037 757.298, 726.916 757.965 C 761.795 758.632, 792.237 758.892, 794.564 758.543 C 803.226 757.244, 807.595 753.088, 844.026 711.500 C 854.144 699.950, 867.639 684.650, 874.016 677.500 C 880.392 670.350, 891.488 657.525, 898.674 649 C 913.637 631.248, 915.356 629.539, 917.446 630.341 C 920.410 631.478, 915.842 638.539, 901.494 655 C 896.460 660.775, 881.619 678.325, 868.514 694 C 825.458 745.498, 811.664 760.440, 804.353 763.500 C 794.141 767.774, 793.471 767.767, 423 759.493 C 385.875 758.664, 337.275 757.535, 315 756.984 C 292.725 756.433, 256.275 755.539, 234 754.996 C 211.725 754.454, 178.200 753.566, 159.500 753.023 C 140.800 752.480, 116.725 751.786, 106 751.480 C 43.227 749.689, 35.662 748.929, 37.332 744.578 C 38.194 742.331, 57.586 742.193, 113 744.040 C 129.225 744.581, 164.100 745.701, 190.500 746.530 C 283.810 749.457, 330.977 750.988, 373 752.451 C 433.157 754.546, 562.487 757.153, 561.586 756.253 C 560.197 754.864, 520.629 750.204, 495 748.412 C 464.030 746.245, 413.320 746.240, 402.500 748.401 C 391.514 750.596, 388.787 750.443, 378.302 747.045 C 355.058 739.511, 325.439 733.849, 292 730.548 C 272.187 728.592, 228.480 726.964, 215.482 727.699 C 202.930 728.408, 203.090 728.570, 202.286 714.375 L 201.675 703.579 230.426 675.426 L 259.178 647.273 255.770 645.167 C 247.642 640.143, 235.005 623.157, 235.001 617.250 C 234.999 615.025, 190.375 615.510, 185.961 617.782 M 449.581 616.835 C 450.086 617.261, 454.550 619.491, 459.500 621.790 L 468.500 625.971 481.500 624.505 C 488.650 623.699, 503.534 623.030, 514.576 623.020 L 534.651 623 536.996 620.504 C 538.286 619.131, 539.152 617.843, 538.921 617.642 C 538.689 617.441, 518.286 617.003, 493.581 616.669 C 468.875 616.335, 449.075 616.410, 449.581 616.835 M 497.960 630.985 C 478.297 632.278, 479.753 631.470, 462.403 650.736 C 454.100 659.956, 442.644 672.900, 436.945 679.500 C 421.926 696.892, 410.725 709.348, 401.557 718.853 C 396.827 723.757, 394.326 726.984, 395.500 726.670 C 396.600 726.376, 400.875 725.226, 405 724.114 C 425.116 718.694, 448.886 716.520, 479.430 717.308 C 511.902 718.145, 535.258 721.503, 567.897 730.024 C 586.452 734.869, 583.862 736.415, 614.010 702.500 C 621.344 694.250, 628.729 685.970, 630.422 684.100 C 632.823 681.447, 633.060 680.864, 631.500 681.449 C 621.582 685.166, 594.425 687.639, 581.504 686.001 C 551.505 682.197, 523.639 654.161, 531.398 635.589 C 532.294 633.446, 532.842 631.508, 532.616 631.282 C 531.727 630.393, 509.820 630.206, 497.960 630.985 M 324.648 652.890 L 318.797 655.532 323.311 661.516 C 328.645 668.586, 334 673.892, 334 672.108 C 334 668.544, 331.693 651.415, 331.140 650.874 C 330.788 650.530, 327.867 651.437, 324.648 652.890 M 654.877 671.776 C 652.884 672.724, 648.834 676.230, 645.877 679.566 C 628.428 699.250, 602.990 726.722, 595.136 734.364 C 584.745 744.473, 586.405 744.129, 570.319 739.509 C 516.472 724.046, 452.831 720.948, 409 731.655 C 403.225 733.066, 397.235 734.871, 395.689 735.667 C 392.147 737.491, 387.401 736.135, 383.313 732.132 C 374.550 723.550, 337.042 712.208, 301.500 707.393 C 285.659 705.247, 248.231 704.929, 234 706.819 C 215.810 709.235, 212.999 710.391, 211.682 716 L 211.095 718.500 236.297 718.597 C 282.428 718.774, 330.362 724.865, 373.596 736.044 L 389.500 740.155 406.173 738.940 C 425.175 737.556, 486.349 738.178, 507.500 739.972 C 537.956 742.555, 569.258 747.098, 583.839 751.052 L 591.178 753.043 593.339 750.281 C 594.528 748.762, 599.336 743.229, 604.025 737.985 C 613.736 727.125, 652.559 681.903, 658.317 674.745 C 662.581 669.444, 661.586 668.584, 654.877 671.776 M 886.103 731.801 L 870.706 749.500 871.408 818.500 C 872.011 877.826, 872.324 887.828, 873.635 889.836 C 875.104 892.089, 875.555 892.161, 886.176 891.836 C 897.050 891.504, 897.225 891.461, 899.592 888.500 L 901.990 885.500 901.995 799.750 C 901.998 752.587, 901.888 714.023, 901.750 714.051 C 901.612 714.079, 894.571 722.067, 886.103 731.801 M 796.641 769.750 C 795.365 774.275, 796.672 802.101, 798.234 803.663 C 799.659 805.087, 799.972 804.972, 801.651 802.403 C 804.331 798.305, 804.387 774.761, 801.727 770.704 C 799.703 767.617, 797.366 767.179, 796.641 769.750 M 73.038 853.250 C 73.082 915.891, 74.388 971.320, 75.914 975.298 C 78.751 982.696, 105.172 983.820, 109.233 976.716 C 110.223 974.985, 110.562 955.546, 110.781 887.893 L 111.063 801.286 105.781 800.652 C 102.877 800.303, 94.313 800.013, 86.750 800.009 L 73 800 73.038 853.250 M 226.036 809.250 C 226.055 812.138, 226.472 830.654, 226.962 850.399 C 228.038 893.760, 226.720 890.326, 242.486 890.840 L 252.920 891.180 254.710 888.238 C 256.365 885.518, 256.479 882.227, 256.228 844.648 L 255.956 804 240.978 804 L 226 804 226.036 809.250 M 341.375 816.528 C 342.227 828.649, 344.163 838.788, 348.134 851.913 C 351.719 863.767, 351.580 864.411, 344.888 866.951 C 328.949 873.002, 315.642 890.206, 315.584 904.837 C 315.542 915.515, 319.256 924.198, 325.885 928.918 L 328.683 930.911 327.771 925.205 C 326.263 915.769, 329.423 904.004, 335.250 897.368 C 341.606 890.129, 345.028 895.002, 340.438 904.756 C 337.270 911.490, 335.998 924.433, 337.929 930.283 C 339.400 934.743, 342.818 936.435, 354.458 938.465 C 366.950 940.643, 374.431 940.559, 373.536 938.250 C 369.267 927.240, 368.822 913.757, 372.483 906.411 C 376.494 898.360, 381.234 893.802, 385.197 894.183 C 389.489 894.595, 390.158 897.825, 386.640 901.156 C 379.295 908.114, 376.634 923.342, 381.250 932 C 384.082 937.311, 385.588 937.735, 395.408 935.990 C 414.299 932.632, 432.475 924.264, 442.978 914.089 C 453.608 903.792, 454.532 899.808, 453.544 868.568 C 453.126 855.330, 452.270 836.850, 451.642 827.500 L 450.500 810.500 441.500 810.260 C 436.550 810.128, 413.600 809.338, 390.500 808.505 C 367.400 807.672, 346.746 806.993, 344.602 806.995 L 340.705 807 341.375 816.528 M 461.243 826.055 C 461.537 834.335, 462.089 841.423, 462.470 841.805 C 462.852 842.187, 472.915 842.779, 484.832 843.119 C 496.749 843.459, 508.149 844.065, 510.165 844.464 L 513.831 845.191 513.665 828.733 L 513.500 812.276 503.094 811.638 C 497.371 811.287, 485.494 811, 476.699 811 L 460.709 811 461.243 826.055 M 523.653 814.161 C 520.640 825.416, 524.837 856.144, 531.254 869.811 C 533.526 874.652, 533.229 875.222, 527.500 877 C 514.545 881.020, 502.970 890.617, 497.728 901.685 C 493.756 910.071, 493.126 922.815, 496.377 929 C 498.116 932.306, 505.789 941.006, 506.958 940.995 C 507.256 940.992, 507.518 937.730, 507.541 933.745 C 507.600 923.229, 516.880 905, 522.174 905 C 524.934 905, 524.484 908.797, 520.607 918.238 C 516.431 928.405, 515.530 933.542, 516.980 938.927 C 519.422 947.993, 524.377 950.358, 545.400 952.491 L 552.300 953.191 551.588 947.346 C 551.196 944.131, 550.630 939.451, 550.329 936.947 C 549.715 931.826, 551.757 922.623, 555.071 915.573 C 557.021 911.425, 557.545 911, 560.715 911 C 564.182 911, 564.206 911.030, 563.674 914.750 C 563.379 916.813, 562.233 921.650, 561.127 925.500 C 558.346 935.179, 558.396 941.804, 561.282 946.102 C 564.302 950.599, 567.907 950.858, 581.086 947.526 C 612.360 939.621, 629.611 926.757, 633.496 908.446 C 634.911 901.778, 636.520 869.315, 637.293 831.870 L 637.637 815.241 620.068 814.632 C 610.406 814.298, 591.475 813.789, 578 813.503 C 564.525 813.216, 546.925 812.720, 538.890 812.402 L 524.280 811.823 523.653 814.161 M 648.414 816.134 C 647.948 816.885, 647.384 824.659, 647.160 833.409 L 646.753 849.317 655.937 848.665 C 683.423 846.714, 704.709 838.173, 722.224 822.068 L 727.453 817.260 705.477 816.619 C 693.390 816.266, 675.796 815.706, 666.381 815.373 C 652.498 814.882, 649.101 815.026, 648.414 816.134 M 761.731 861.250 C 761.068 911.083, 762.299 980.025, 763.927 984.309 C 766.318 990.597, 782.645 992.104, 792.067 986.907 L 796.500 984.461 796.756 901.543 C 796.958 835.870, 796.750 818.459, 795.756 817.828 C 795.065 817.389, 787.259 817.024, 778.409 817.015 L 762.319 817 761.731 861.250 M 662 858.563 C 655.675 859.281, 649.540 859.898, 648.367 859.934 C 645.930 860.009, 645.632 864.708, 644.380 922.751 L 643.748 952.001 648.624 954.159 C 656.162 957.494, 670.326 956.531, 674.455 952.402 C 676.543 950.314, 676.832 856.914, 674.750 857.129 C 674.063 857.200, 668.325 857.845, 662 858.563" stroke="none" fill="#1a1a1a" fill-rule="evenodd"/>
</svg>