<svg xmlns="http://www.w3.org/2000/svg" width="1024" height="1024" viewBox="0 0 1024 1024" version="1.1">
	<path d="M 919 59.442 C 906.625 61.316, 869.950 66.691, 837.500 71.387 C 685.323 93.408, 691.659 92.287, 686.284 98.143 C 680.949 103.954, 681 103.105, 681 186.064 L 681 262.877 676.750 263.405 C 674.413 263.694, 669.350 264.211, 665.500 264.552 C 639.802 266.828, 627.344 273.366, 626.209 285.173 C 625.404 293.558, 629.287 299.503, 638.754 304.379 C 646.397 308.316, 666.861 358.718, 673.391 389.694 C 675.836 401.286, 677.915 422, 676.635 422 C 676.277 422, 672.808 419.334, 668.928 416.076 C 658.879 407.638, 644.050 400.421, 631.500 397.858 C 611.700 393.815, 586.414 396.055, 568.270 403.458 C 564.843 404.856, 561.855 406, 561.629 406 C 561.403 406, 563.024 401.400, 565.231 395.778 C 574.266 372.762, 573.963 356.375, 564.023 330.500 C 559.094 317.670, 557.540 312.910, 556.593 307.736 L 555.904 303.971 561.238 304.598 C 594.763 308.538, 624.766 261.752, 611.736 225.853 C 605.913 209.813, 598.696 202.075, 568.500 179.500 C 555.850 170.043, 542.793 159.874, 539.483 156.903 C 520.017 139.423, 508.605 133.993, 491.356 134.006 C 482.032 134.012, 477.617 135.060, 469.298 139.242 L 463.097 142.360 453.798 139.189 C 431.169 131.471, 413.914 128.822, 386 128.781 C 362.964 128.747, 355.896 129.806, 331.076 137.007 C 305.366 144.466, 288.303 152.693, 271.834 165.570 C 265.492 170.529, 264.740 170.661, 255.831 168.377 C 247.152 166.153, 233.761 166.933, 224.985 170.175 C 216.150 173.438, 209.506 178.066, 196.500 190.017 C 190.450 195.577, 175.979 207.308, 164.341 216.086 C 131.610 240.777, 122.554 251.522, 116.402 272.966 C 114.018 281.278, 113.788 283.426, 114.266 292.891 C 115.177 310.956, 119.793 321.085, 139.378 348 C 151.932 365.253, 156.965 373.812, 162.125 386.686 C 168.697 403.082, 174.919 410.725, 185.880 415.865 C 190.961 418.247, 192.602 418.495, 203 418.447 C 216.766 418.383, 222.577 416.511, 232.636 408.897 C 236.194 406.204, 239.420 404.002, 239.803 404.005 C 240.186 404.007, 242.408 407.720, 244.739 412.255 C 255.615 433.408, 275.190 451.965, 298.895 463.596 C 303.271 465.743, 306.772 467.778, 306.676 468.118 C 306.430 468.981, 289.125 483.317, 279.500 490.630 C 232.784 526.127, 211.557 527.975, 178.500 499.421 C 164.018 486.912, 157.235 483.500, 146.849 483.500 C 135.576 483.500, 130.065 488.174, 129.212 498.459 C 128.784 503.618, 128.576 504, 126.192 504 C 121.489 504, 115.138 507.908, 112.486 512.434 C 109.787 517.039, 108.992 527.248, 111.035 531.066 C 111.775 532.448, 111.716 533.642, 110.828 535.250 C 110.145 536.487, 109.589 540.875, 109.592 545 C 109.604 558.568, 114.579 565.645, 132.435 577.495 C 164.687 598.899, 189.084 607.494, 221.114 608.740 C 237.208 609.366, 258.670 606.567, 269.261 602.460 C 270.458 601.996, 267.089 609.739, 258.741 626.639 C 241.799 660.938, 236.427 675.342, 233.447 694.462 C 231.952 704.053, 220.896 709.028, 199.500 709.738 C 176.967 710.485, 166.065 707.050, 152.824 695.034 C 143.885 686.921, 139.154 679.523, 133.987 665.582 C 128.531 650.857, 126.603 648.592, 120.063 649.220 C 111.219 650.070, 106.247 655.971, 102.557 670 C 96.530 692.909, 102.253 715.786, 118.217 732.592 C 124.668 739.383, 125 739.968, 125 744.550 C 125 754.676, 131.106 761.910, 145.650 769.016 C 168.950 780.399, 203.970 777.595, 227.644 762.451 C 234.610 757.995, 234.438 757.751, 236.030 774.309 C 238.743 802.536, 236.339 819.227, 225.204 849.500 C 215.938 874.691, 214.628 880.864, 215.267 896.330 C 216.149 917.666, 220.634 928.892, 233.363 941.620 C 243.991 952.248, 251.938 956.292, 266.500 958.483 C 280.382 960.572, 286.218 960.387, 297.616 957.496 C 321.764 951.370, 332.479 940.926, 332.493 923.500 C 332.504 910.020, 326.550 900.066, 312.331 889.790 L 308.163 886.778 313.831 882.059 C 331.775 867.123, 349.901 842.241, 360.474 818.031 L 364.610 808.562 376.555 806.271 C 389.613 803.766, 392.348 803.913, 394.115 807.216 C 397.634 813.791, 398.213 819.579, 398.990 856 C 399.983 902.511, 401.163 907.375, 414.478 919.831 C 432.272 936.476, 467.540 943.518, 498 936.508 C 522.581 930.851, 535.658 911.687, 527.229 893.675 C 521.509 881.452, 513.124 875.280, 495 869.954 C 483.972 866.714, 484.302 867.802, 488.920 849.931 C 497.451 816.911, 498.463 809.565, 498.482 780.500 C 498.501 753.493, 497.985 748.637, 493.794 736.342 L 491.695 730.184 496.795 718.342 C 507.723 692.965, 510.349 679.274, 510.435 647.242 C 510.492 626.090, 510.692 623.063, 512 623.597 C 524.526 628.717, 527.532 629.327, 540.500 629.384 C 557.217 629.457, 567.135 627.095, 583.578 619.124 C 595.235 613.474, 595.822 613.306, 606.357 612.625 C 661.926 609.032, 701.996 574.138, 710.456 521.973 C 715.031 493.759, 709.101 466.830, 692.792 441.755 L 687.755 434.010 690.238 430.755 C 691.604 428.965, 694.697 425.335, 697.111 422.689 L 701.500 417.877 710.318 428.552 L 719.136 439.226 716.818 441.719 C 713.408 445.387, 706.418 450, 704.270 450 C 701.418 450, 699.910 451.964, 701.082 454.153 C 703.214 458.136, 708.561 456.588, 715.421 450 C 718.858 446.700, 722.011 444, 722.428 444 C 722.845 444, 726.857 447.417, 731.343 451.593 C 745.443 464.719, 748.410 465.009, 759.186 454.316 L 765.985 447.569 770.242 451.663 C 783.652 464.557, 787.660 465.023, 797.249 454.806 C 803.155 448.513, 804 447.922, 804 450.084 C 804 454.716, 810.361 460.022, 810.793 455.750 C 810.863 455.063, 811.384 444.600, 811.953 432.500 C 813.454 400.550, 818.044 371.147, 824.286 353.500 L 825.701 349.500 838.101 349.500 L 850.500 349.500 851 628.596 C 851.430 868.362, 851.701 907.935, 852.927 909.412 C 855.986 913.098, 860.253 914.430, 869 914.428 C 878.706 914.427, 883.669 913.046, 887.103 909.390 L 889.500 906.839 890 628.169 L 890.500 349.500 923 349.500 L 955.500 349.500 960.500 347 C 964.192 345.154, 966.154 343.323, 968 340 L 970.500 335.500 971.237 207 C 971.732 120.808, 971.639 76.834, 970.956 73.440 C 969.733 67.368, 965.434 61.772, 959.773 58.884 C 953.121 55.491, 944.288 55.612, 919 59.442 M 943 63.719 C 941.075 63.938, 923.075 66.545, 903 69.511 C 882.925 72.478, 846.925 77.645, 823 80.994 C 799.075 84.342, 763.525 89.512, 744 92.481 C 724.475 95.450, 706.433 98.172, 703.908 98.529 C 697.180 99.482, 691.842 102.819, 689.544 107.509 C 687.668 111.338, 687.572 114.557, 687.170 186.734 C 686.818 250.015, 686.970 262.051, 688.130 262.496 C 688.888 262.787, 702.556 262.682, 718.504 262.263 L 747.500 261.500 748 213.024 L 748.500 164.548 751 163.797 C 755.163 162.547, 866.214 151.008, 874.128 151.003 C 877.082 151.001, 879.218 151.558, 880.036 152.544 C 882.073 154.998, 882.842 283.056, 880.830 284.726 C 879.967 285.442, 875.181 286.042, 868.964 286.213 L 858.543 286.500 857.431 291.500 C 855.747 299.071, 853.328 302.887, 848.348 305.830 C 845.864 307.299, 842.777 309.400, 841.490 310.500 C 839.213 312.445, 830.676 332.371, 829.412 338.691 L 828.801 341.744 887.151 342.225 C 919.243 342.490, 945.785 342.435, 946.133 342.103 C 946.960 341.314, 947.956 62.951, 947.131 63.160 C 946.784 63.248, 944.925 63.500, 943 63.719 M 953.647 126.250 C 952.662 215.455, 952.850 341, 953.969 341 C 956.383 341, 960.290 338.340, 961.602 335.803 C 963.614 331.913, 965.051 79.701, 963.095 73.783 C 961.991 70.441, 957.028 65, 955.085 65 C 954.667 65, 954.020 92.563, 953.647 126.250 M 364 137.436 C 331.938 142.068, 293.405 157.534, 275.424 172.989 L 272.348 175.633 276.171 180.067 C 280.147 184.677, 280.801 186.799, 278.848 188.752 C 277.980 189.620, 276.653 188.984, 273.447 186.162 C 262.489 176.517, 246.075 172.746, 231.535 176.533 C 222.808 178.806, 216.704 182.539, 206.243 192 C 189.669 206.990, 183.826 211.773, 167.500 223.714 C 131.982 249.695, 121.104 266.223, 122.233 292.500 C 122.926 308.647, 126.944 317.306, 145.664 343 C 158.156 360.145, 164.037 369.903, 167.648 379.480 C 176.878 403.952, 184.551 410.500, 204 410.500 C 220.238 410.500, 230.176 404.541, 241.210 388.188 C 256.684 365.257, 260.137 344.927, 257.957 289.578 C 256.580 254.614, 257.227 241.949, 261.019 229.675 C 263.607 221.293, 264.995 219.531, 268.344 220.372 C 271.727 221.221, 271.723 222.862, 268.318 232.729 C 264.925 242.557, 264.116 265.717, 265.967 300.004 C 268.321 343.632, 263.852 366.281, 247.502 393.583 C 245.660 396.658, 245.663 396.682, 248.725 403.226 C 261.856 431.287, 286.601 451.607, 328.185 468.478 C 339.076 472.897, 341.837 474.837, 340.444 477.090 C 339.357 478.849, 331.039 477.972, 323.975 475.354 C 315.314 472.143, 314.576 472.391, 302.500 482.548 C 257.868 520.088, 231.492 531.648, 205.585 525.022 C 194.011 522.062, 187.798 518.232, 169.376 502.704 C 155.202 490.756, 143.689 487.871, 138.282 494.913 C 136.199 497.627, 136.773 502.942, 139.500 506.182 C 143.937 511.455, 141.805 513.576, 133.061 512.586 C 125.717 511.756, 120.802 513.548, 118.566 517.872 C 114.986 524.796, 117.891 530.414, 127.397 534.951 C 134.693 538.433, 135.860 539.609, 133.868 541.471 C 132.755 542.512, 131.310 542.459, 126.122 541.189 C 117.313 539.034, 115.383 541.513, 118.099 551.500 C 120.330 559.702, 140.762 575.429, 163.451 586.409 C 203.776 605.923, 250.230 605.923, 286.936 586.407 C 295.285 581.969, 307.958 573.782, 313.224 569.426 C 315.975 567.151, 319.449 567.112, 320.299 569.349 C 321.805 573.308, 315.524 578.869, 295.884 590.968 C 281.072 600.093, 280.386 600.990, 265.095 631.229 C 248.373 664.300, 244.934 674.118, 240.919 700.256 C 238.568 715.561, 238.795 725.562, 242.252 759 C 246.390 799.020, 244.921 818.389, 235.863 843.249 C 221.989 881.323, 221.343 884.211, 223.017 900.671 C 225.652 926.576, 239.858 943.849, 263.282 949.630 C 266.913 950.526, 270.532 951.010, 271.324 950.706 C 275.124 949.248, 275.894 932.778, 272.537 924.744 C 270.613 920.138, 270.568 917, 272.427 917 C 277.414 917, 281.800 932.328, 279.951 943.292 C 279.116 948.240, 279.093 950.493, 279.870 951.270 C 281.163 952.563, 295.592 950.615, 300.782 948.447 C 309.653 944.740, 308.719 924.287, 299.502 920.436 C 295.240 918.656, 294.230 917.036, 296.394 915.454 C 302.883 910.709, 312.412 923.038, 312.412 936.181 C 312.412 944.105, 312.375 944.082, 317.741 939.489 C 332.520 926.839, 324.335 904.797, 300.425 892.856 C 291.872 888.584, 293.169 885.369, 306.959 876.663 C 319.727 868.602, 338.598 844.634, 349.482 822.655 C 358.545 804.355, 362.136 793.576, 366.194 772.500 C 369.188 756.949, 370.640 753.041, 372.904 754.441 C 374.862 755.651, 374.098 769.944, 371.404 782.500 C 367.163 802.270, 367.136 800.246, 371.626 799.451 C 417.277 791.370, 454.162 770.674, 474.736 741.597 C 493.632 714.891, 501.984 687.536, 502.751 649.844 C 503.578 609.114, 498.339 575.727, 485.401 539.290 C 479.501 522.676, 479.323 521.807, 481.441 520.049 C 487.704 514.851, 503.551 563.416, 508.019 601.500 C 509.402 613.292, 509.558 613.487, 521.290 618.146 C 536.362 624.132, 556.571 622.419, 576.639 613.455 L 582.500 610.837 573.500 607.588 C 560.225 602.795, 555.865 600.689, 546.218 594.409 C 516.888 575.318, 498 540.283, 498 504.972 C 498 493.621, 479.730 477.038, 467.192 477.010 C 464.823 477.004, 458.358 477.938, 452.827 479.084 C 442.418 481.241, 440.485 480.955, 441.161 477.356 C 441.424 475.960, 444.606 474.452, 454.005 471.269 C 470.026 465.844, 481.038 461.327, 498.731 452.922 L 512.963 446.162 525.731 433.311 C 532.754 426.243, 541.265 417.965, 544.644 414.916 C 561.229 399.949, 568.427 366.948, 560.221 343.500 C 558.489 338.550, 555.508 330, 553.597 324.500 C 549.264 312.031, 547.132 301.367, 541.999 266.495 C 537.482 235.802, 535.167 226.997, 528.021 213.318 C 509.784 178.415, 479.157 154.039, 440.155 143.387 C 416.542 136.938, 384.682 134.448, 364 137.436 M 482.643 142.107 C 480.522 142.605, 477.524 143.759, 475.981 144.670 L 473.176 146.328 486.826 155.286 C 502.498 165.571, 508.909 171.709, 521.552 188.534 C 539.825 212.852, 543.469 223.006, 550.049 267.931 C 553.754 293.235, 553.879 293.634, 558.736 295.663 C 575.251 302.564, 598.824 283.894, 605.142 258.911 C 609.626 241.179, 606.343 226.563, 594.623 212.073 C 589.111 205.260, 586.542 203.133, 556.500 180.517 C 546.600 173.064, 534.146 163.230, 528.825 158.663 C 511.607 143.884, 497.145 138.700, 482.643 142.107 M 866.500 158.694 C 809.870 163.755, 759.476 168.782, 756.591 169.657 C 754.746 170.216, 754.704 171.302, 755.341 201.781 C 755.703 219.131, 756 239.699, 756 247.488 L 756 261.650 779.750 262.824 C 819.355 264.781, 839.333 267.959, 848.866 273.817 C 851.267 275.293, 854.192 277.056, 855.366 277.735 C 857.697 279.085, 869.771 279.433, 871.700 278.206 C 874.439 276.465, 874.690 270.620, 874.300 217.534 C 873.880 160.432, 873.770 157.890, 871.731 158.168 C 871.054 158.261, 868.700 158.497, 866.500 158.694 M 486.750 219.566 C 483.621 221.195, 482 222.686, 482 223.936 C 482 226.831, 484.052 226.956, 488.992 224.360 C 495.909 220.726, 503.937 221.604, 507.945 226.434 C 509.981 228.887, 513 228.422, 513 225.655 C 513 218.154, 496.718 214.377, 486.750 219.566 M 339.500 244.358 C 333.697 247.073, 326.939 254.014, 323.791 260.493 C 321.682 264.835, 321.665 265.091, 323.376 266.760 C 325.463 268.795, 325.808 268.459, 331.310 259.039 C 337.160 249.023, 343.408 246.380, 357 248.171 C 358.932 248.425, 359.500 248.053, 359.500 246.530 C 359.500 241.720, 347.845 240.455, 339.500 244.358 M 692 270.033 C 651.224 271.841, 637.694 275.083, 634.032 283.922 C 627.993 298.502, 663.055 309.095, 727.580 312.185 C 793.595 315.346, 842.893 308.073, 848.638 294.324 C 856.068 276.541, 831.389 270.274, 751 269.533 C 729.275 269.332, 702.725 269.557, 692 270.033 M 502.183 276.879 C 489.505 281.311, 482.648 297.207, 486.430 313.400 C 488.911 324.026, 491.340 327.550, 498.670 331.158 C 515.503 339.445, 528.839 327.677, 527.746 305.500 C 526.676 283.781, 516.150 271.997, 502.183 276.879 M 683.500 283.008 C 667.335 283.742, 657.833 285.291, 656.007 287.491 C 654.335 289.507, 656.367 292.715, 659.742 293.386 C 682.016 297.815, 695.178 298.500, 758 298.500 C 822 298.500, 830.824 297.964, 834.250 293.870 C 836.665 290.984, 836.447 288.120, 833.733 287.089 C 823.145 283.063, 735.012 280.669, 683.500 283.008 M 504.655 285.829 C 500.765 290.127, 504.044 294.913, 511.451 295.747 C 516.669 296.335, 519 294.972, 519 291.332 C 519 285.306, 508.703 281.355, 504.655 285.829 M 686.190 289.750 C 686.500 291.361, 688.821 291.521, 715.445 291.766 C 744.282 292.031, 745.921 291.869, 745.985 288.750 C 745.993 288.337, 732.467 288, 715.927 288 C 687.824 288, 685.875 288.115, 686.190 289.750 M 753 289.815 C 753 290.994, 753.891 292.006, 755.250 292.370 C 758.532 293.249, 812.003 293.136, 811.985 292.250 C 811.930 289.579, 809.244 289.252, 781.750 288.573 C 753.659 287.879, 753 287.907, 753 289.815 M 359.014 301.177 C 343.926 308.991, 340.320 332.993, 352.207 346.497 C 361.844 357.446, 373.587 357.843, 383.620 347.559 C 397.188 333.652, 396.147 309.294, 381.678 302.112 C 374.499 298.548, 364.859 298.151, 359.014 301.177 M 371.557 309.223 C 369.279 312.475, 369.636 314.790, 372.923 318.077 C 377.902 323.056, 384 320.622, 384 313.655 C 384 307.343, 375.095 304.171, 371.557 309.223 M 653.373 310.367 C 663.612 333.704, 669.704 349.343, 674.913 365.666 C 679.868 381.195, 679.693 381.148, 686.344 368.748 C 689.455 362.948, 692 357.264, 692 356.116 C 692 354.258, 671.047 320.021, 666.352 314.206 C 664.344 311.720, 652.419 308.192, 653.373 310.367 M 823.071 314.522 C 815.455 315.946, 815.917 315.456, 804.415 334.254 C 792.337 353.992, 792.865 351.258, 799.024 362.167 C 808.660 379.232, 808.031 378.401, 809.610 376.147 C 810.367 375.065, 811.651 371.327, 812.462 367.840 C 814.682 358.300, 819.111 344.149, 824.893 328.123 C 827.746 320.216, 829.949 313.650, 829.790 313.533 C 829.630 313.416, 826.607 313.860, 823.071 314.522 M 674.038 315.137 C 674.083 316.750, 694.409 348.303, 695.676 348.725 C 696.620 349.040, 711.701 319.351, 710.955 318.647 C 710.705 318.411, 703.750 317.463, 695.500 316.540 C 687.250 315.617, 679.038 314.616, 677.250 314.317 C 674.897 313.923, 674.010 314.149, 674.038 315.137 M 790 318.245 C 782.575 318.766, 776.345 319.340, 776.156 319.523 C 775.780 319.886, 788.677 343.984, 789.972 345.336 C 790.725 346.123, 797.667 335.653, 804.947 322.750 L 808.191 317 805.845 317.150 C 804.555 317.232, 797.425 317.725, 790 318.245 M 723.594 320.250 C 727.681 327.424, 742.376 350, 742.958 350 C 743.950 350, 761.041 323.561, 761.715 320.983 C 762.219 319.055, 761.685 319, 742.558 319 C 727.104 319, 723.035 319.268, 723.594 320.250 M 766.041 325.342 C 756.909 339.040, 747 354.944, 747 355.903 C 747 356.904, 753.901 367.360, 761.751 378.254 C 763.635 380.869, 765.627 382.731, 766.177 382.391 C 766.727 382.051, 771.649 375.024, 777.116 366.777 L 787.054 351.780 782.094 342.578 C 779.365 337.517, 775.411 330.408, 773.306 326.780 L 769.480 320.184 766.041 325.342 M 708.606 337.268 C 703.873 346.318, 700 354.256, 700 354.907 C 700 356.077, 706.141 365.584, 714.785 377.796 C 719.093 383.883, 719.305 384.034, 721.167 382.349 C 723.770 379.994, 739 357.442, 739 355.944 C 739 354.948, 720.156 324.286, 717.928 321.656 C 717.535 321.192, 713.340 328.218, 708.606 337.268 M 461.387 326.940 C 443.864 329.709, 420.644 343.624, 428.510 346.642 C 429.343 346.962, 431.582 346.031, 433.505 344.564 C 443.526 336.921, 459.184 331.888, 472.500 332.031 C 485.324 332.169, 485 332.220, 485 330.059 C 485 328.991, 484.643 327.898, 484.207 327.628 C 482.616 326.644, 466.360 326.155, 461.387 326.940 M 461.336 340.410 C 447.414 344.920, 441.236 351.530, 442.280 360.800 C 443.250 369.407, 457.030 379, 468.426 379 C 472.570 379, 472.807 379.160, 473.406 382.350 C 474.235 386.769, 472.609 397.921, 470.558 401.887 C 465.234 412.183, 448.837 416.416, 431.410 411.992 C 421.287 409.423, 416.119 405.887, 414.245 400.248 C 412.008 393.518, 406.658 392.900, 406.347 399.336 C 406.263 401.076, 406.038 403.352, 405.847 404.392 C 405.597 405.755, 406.340 406.564, 408.500 407.280 C 414.554 409.290, 421.032 415.016, 423.459 420.502 C 428.913 432.837, 445.684 444.182, 458.707 444.348 C 470.911 444.504, 478.114 438.398, 482.010 424.594 C 485.471 412.335, 486.616 410.777, 493.500 408.954 C 496.800 408.081, 500.864 406.648, 502.531 405.770 C 506.827 403.509, 514.766 394.729, 517.035 389.732 C 519.432 384.452, 519.705 376, 517.479 376 C 515.864 376, 514.892 377.919, 513.079 384.687 C 509.481 398.119, 493.877 407.136, 482.270 402.491 L 478.500 400.982 478.429 389.617 L 478.358 378.253 483.468 376.642 C 489.984 374.588, 494.450 369.996, 497.007 362.720 C 500.615 352.454, 499.392 346.713, 492.808 343.012 C 483.274 337.654, 472.576 336.769, 461.336 340.410 M 858.198 625.964 C 858.486 890.290, 858.581 903.010, 860.286 904.714 C 863.195 907.624, 877.166 907.279, 880.222 904.222 L 882.500 901.945 882.755 626.285 C 882.959 405.998, 882.759 350.465, 881.755 349.828 C 881.065 349.389, 875.414 349.024, 869.198 349.015 L 857.896 349 858.198 625.964 M 787.762 361.184 C 781.210 370.086, 770 387.191, 770 388.287 C 770 389.963, 784.709 409.500, 785.971 409.500 C 786.879 409.500, 801.510 389.653, 803.914 385.160 C 804.714 383.665, 803.531 380.852, 797.940 370.965 C 794.106 364.184, 790.796 358.463, 790.585 358.252 C 790.374 358.041, 789.104 359.361, 787.762 361.184 M 690.466 372.520 C 683.763 385.017, 683.722 384.505, 692.376 396.601 C 701.737 409.688, 700.818 409.457, 707.934 400.503 C 717.080 388.993, 717.166 391.080, 706.935 376.178 C 701.991 368.977, 697.537 362.832, 697.037 362.523 C 696.538 362.214, 693.581 366.713, 690.466 372.520 M 733.538 374.701 C 728.681 381.686, 724.528 388.099, 724.309 388.951 C 723.893 390.566, 730.090 399.707, 737.764 408.798 C 743.161 415.191, 742.452 415.582, 754.132 399.761 C 760.961 390.510, 761.922 388.722, 760.992 386.986 C 758.795 382.881, 743.869 362, 743.132 362 C 742.712 362, 738.394 367.715, 733.538 374.701 M 682.357 396 C 682.682 398.475, 683.443 406.121, 684.048 412.991 C 684.653 419.861, 685.379 425.711, 685.660 425.991 C 686.328 426.655, 695.768 416.029, 696.545 413.738 C 696.949 412.548, 694.965 408.979, 690.431 402.738 C 681.614 390.601, 681.652 390.633, 682.357 396 M 799.197 401.750 C 788.799 416.457, 789.019 414.502, 796.755 423.461 C 800.429 427.715, 803.537 430.814, 803.661 430.348 C 803.785 429.882, 804.590 422.525, 805.450 414 C 806.309 405.475, 807.255 397.038, 807.551 395.250 C 808.436 389.920, 806.491 391.432, 799.197 401.750 M 756.067 406.127 C 748.829 415.607, 746.992 418.649, 747.654 420.063 C 748.800 422.513, 763.927 439, 765.029 439 C 766.588 439, 782.140 416.642, 781.714 415.014 C 781.201 413.052, 766.975 394, 766.023 394 C 765.640 394, 761.160 399.457, 756.067 406.127 M 712.651 403.490 C 708.993 408.160, 706 412.630, 706 413.424 C 706 414.887, 719.062 431.501, 721.936 433.693 C 723.241 434.688, 724.517 433.883, 729.642 428.829 C 739.577 419.032, 739.586 420.108, 729.449 406.631 C 724.637 400.234, 720.386 395, 720.002 395 C 719.617 395, 716.310 398.821, 712.651 403.490 M 595.713 403.031 C 583.652 404.920, 568.509 410.835, 556.509 418.344 L 552.519 420.841 555.509 421.525 C 615.312 435.200, 651.630 473.368, 648.751 519.517 L 648.221 528 657.361 527.985 C 662.387 527.976, 667.175 527.542, 668 527.019 C 670.949 525.150, 670.014 484.969, 666.713 471.726 C 660.318 446.075, 647.948 425.005, 631.507 411.760 C 621.629 403.802, 609.568 400.860, 595.713 403.031 M 641.403 413.148 C 666.968 439.361, 681.508 488.212, 674.368 523.911 L 673.686 527.319 680.522 526.680 C 684.282 526.329, 687.714 525.686, 688.149 525.251 C 688.584 524.816, 690.070 518.394, 691.452 510.980 C 692.833 503.566, 695.189 493.225, 696.687 488 C 700.134 475.974, 700.039 472.338, 696.026 462.710 C 689.757 447.666, 677.924 432.097, 664.666 421.447 C 656.414 414.819, 643.126 407.492, 637.366 406.394 C 634.390 405.826, 634.592 406.166, 641.403 413.148 M 449.404 422.931 C 440.848 427.241, 439.077 429.322, 441.595 432.106 C 446.237 437.239, 457.781 440.887, 463.455 439.015 C 473.573 435.676, 478.460 424.974, 471.163 422.134 C 464.114 419.391, 455.830 419.694, 449.404 422.931 M 778.410 431.250 C 774.195 436.887, 770.561 441.981, 770.336 442.568 C 769.912 443.673, 779.832 452.793, 783.684 454.840 C 787.427 456.828, 788.615 456.198, 794.225 449.250 C 803.435 437.845, 803.365 439.502, 795.052 429.630 C 791.055 424.883, 787.400 421, 786.930 421 C 786.459 421, 782.626 425.613, 778.410 431.250 M 734.321 431.833 L 727.143 439.699 733.321 445.689 C 741.230 453.357, 744.790 456, 747.209 456 C 749.117 456, 761 445.516, 761 443.833 C 761 442.658, 744.044 424.567, 742.630 424.233 C 742.009 424.087, 738.270 427.507, 734.321 431.833 M 541 429.745 C 524.653 440.306, 507.134 472.253, 506.644 492.395 L 506.500 498.290 519.500 502.685 C 558.013 515.707, 638.844 531.016, 642.082 525.902 C 643.500 523.662, 643.108 505.085, 641.499 498.258 C 634.598 468.990, 604.450 440.939, 568.797 430.613 C 554.422 426.449, 546.484 426.201, 541 429.745 M 491.768 464.852 C 484.766 467.958, 479.038 470.725, 479.038 471 C 479.039 471.275, 481.323 472.850, 484.113 474.500 C 486.903 476.150, 491.421 479.637, 494.152 482.250 C 499.859 487.710, 500 487.770, 500 484.747 C 500 482.071, 502.954 471.608, 505.787 464.250 C 508.375 457.528, 508.267 457.533, 491.768 464.852 M 699.207 499.500 C 697.485 506.650, 695.767 514.928, 695.390 517.896 L 694.704 523.291 697.602 522.580 C 703.010 521.252, 703.472 520.033, 703.826 506.149 C 704.353 485.460, 703.042 483.573, 699.207 499.500 M 505.510 506.969 C 504.766 509.313, 506.414 521.949, 508.528 530.107 C 512.415 545.110, 521.618 561.610, 532.307 572.741 C 542.387 583.238, 543.127 583.527, 559.500 583.341 C 595.007 582.937, 627.421 564.997, 637.512 540.164 C 638.880 536.795, 640 533.848, 640 533.614 C 640 533.379, 637.638 532.900, 634.750 532.548 C 594.812 527.680, 554.483 519.380, 522.459 509.437 C 505.995 504.325, 506.333 504.374, 505.510 506.969 M 161.462 523.054 C 153 525.543, 149.344 536.883, 153.942 546.381 C 156.675 552.025, 163.150 558, 166.534 558 C 169.806 558, 171.076 555.025, 168.428 553.564 C 163.352 550.764, 158.138 544.100, 157.454 539.541 C 156.048 530.164, 160.020 526.602, 169.245 528.966 C 174.537 530.322, 176.781 529.478, 175.658 526.552 C 174.551 523.668, 166.294 521.632, 161.462 523.054 M 698.160 528.430 C 696.323 529.057, 694.373 530.370, 693.826 531.346 C 692.706 533.348, 691.360 552, 692.336 552 C 694.078 552, 702.696 530.361, 701.835 528.150 C 701.651 527.677, 699.997 527.803, 698.160 528.430 M 681 531.680 C 674.638 532.334, 673 532.985, 673 534.859 C 673 546.444, 661.719 570.886, 647.865 589.319 C 641.456 597.847, 641.725 598.137, 651.500 593.232 C 663.655 587.133, 677.130 575.908, 683.274 566.764 L 686.812 561.500 687.292 546.250 C 687.724 532.556, 687.606 531.016, 686.136 531.160 C 685.236 531.248, 682.925 531.482, 681 531.680 M 642.749 541.787 C 629.229 570.107, 599.028 587.327, 559.500 589.256 L 554.500 589.500 558.500 592.076 C 580.138 606.013, 618.403 608.903, 633.184 597.716 C 638.147 593.959, 649.401 579.518, 654.783 570 C 661.468 558.176, 669.276 534.907, 667.025 533.516 C 666.598 533.251, 661.851 533.139, 656.477 533.267 L 646.706 533.499 642.749 541.787 M 114.621 660.750 C 109.899 668.104, 108.500 674.446, 108.500 688.500 L 108.500 701.500 112.704 710 C 119.927 724.605, 131.627 736.627, 140.760 738.830 C 142.817 739.327, 146.300 740.130, 148.500 740.616 C 154.178 741.871, 154.781 745.575, 149.471 746.571 C 145.802 747.260, 137.906 746.687, 134.878 745.513 C 133.554 745, 133.350 745.402, 133.770 747.692 C 134.925 753.995, 142.581 759.918, 155.751 764.699 C 178.532 772.968, 212.817 766.677, 228.893 751.277 L 233.301 747.055 232.656 738.777 C 232.302 734.225, 232.009 725.919, 232.006 720.320 L 232 710.140 225.813 712.654 C 212.865 717.915, 191.274 719.597, 176.500 716.496 C 154.640 711.906, 135.527 693.858, 127.007 669.760 C 122.122 655.941, 119.113 653.753, 114.621 660.750 M 479.706 748.796 C 463.977 770.001, 435.870 789.398, 408.250 798.107 C 400.482 800.557, 400.229 800.911, 402.456 806.241 C 405.323 813.101, 406.175 823.018, 406.947 858.500 C 407.787 897.067, 408.018 898.827, 413.277 906.649 C 422.493 920.359, 439.859 928.629, 464.725 931.150 C 478.180 932.514, 478.467 932.369, 478.467 924.212 C 478.467 917.412, 475.539 911.839, 470.653 909.336 C 465.006 906.444, 464.924 904, 470.474 904 C 477.109 904, 484 914.885, 484 925.366 L 484 930 487.951 930 C 501.521 930, 508.002 925.579, 507.996 916.327 C 507.992 909.237, 505.783 905.151, 499.971 901.482 C 495.100 898.407, 495.272 896.454, 500.399 896.618 C 506.801 896.823, 512.547 904.379, 513.699 914.107 L 514.288 919.078 516.773 916.789 C 530.375 904.259, 516.202 882.811, 490.878 877.603 C 475.020 874.342, 473.806 872.583, 478.054 859.029 C 487.033 830.381, 491.345 804.694, 491.321 780 C 491.303 761.232, 489.342 742.942, 487.110 740.710 C 486.666 740.266, 483.334 743.905, 479.706 748.796" stroke="none" fill="#1a1a1a" fill-rule="evenodd"/>
</svg>