<svg xmlns="http://www.w3.org/2000/svg" width="1024" height="1024" viewBox="0 0 1024 1024" version="1.1">
	<path d="M 325 6.597 C 177.974 83.760, 135.051 257.847, 230.155 391.269 C 233.985 396.642, 241.581 406.486, 247.036 413.143 C 258.284 426.871, 256.366 422.201, 269.471 467.735 C 279.351 502.067, 288.831 538.465, 308.152 616.262 L 324.236 681.023 322.207 685.762 C 317.734 696.207, 317.050 706.480, 320.008 718.818 C 323.010 731.340, 327.894 741.022, 334.880 748.296 C 340.841 754.504, 340.863 754.550, 343.494 766.010 C 344.945 772.330, 349.928 793.346, 354.566 812.714 C 359.205 832.082, 363 848.170, 363 848.464 C 363 848.759, 361.366 849, 359.368 849 C 354.714 849, 349.722 852.100, 346.806 856.800 C 344.102 861.159, 342.886 880.340, 344.890 887.027 C 346.595 892.718, 353.920 899, 358.850 899 C 362.578 899, 362.770 899.161, 363.340 902.750 C 363.668 904.813, 366.891 929, 370.503 956.500 C 378.692 1018.857, 377.735 1013.378, 381.394 1018.853 L 384.500 1023.500 391 1023.715 C 395.549 1023.866, 396.862 1023.664, 395.374 1023.044 C 391.818 1021.560, 386.041 1014.891, 385.016 1011.088 C 384.484 1009.115, 381.085 983.875, 377.464 955 C 373.842 926.125, 370.651 901.712, 370.372 900.750 C 369.891 899.089, 376.961 899, 508.933 899 C 615.057 899, 648 899.279, 648 900.179 C 648 900.828, 644.620 925.829, 640.490 955.739 C 632.012 1017.125, 631.907 1017.516, 622.500 1022.864 C 620.875 1023.788, 621.712 1023.954, 626.962 1023.750 L 633.424 1023.500 636.276 1018.880 C 638.966 1014.520, 639.575 1011.143, 647.082 958.880 C 656.732 891.703, 655.185 899.001, 659.769 898.996 C 664.566 898.991, 669.236 896.112, 672.537 891.123 C 675.096 887.257, 675.147 886.855, 674.827 873.154 C 674.539 860.802, 674.252 858.804, 672.408 856.319 C 669.301 852.132, 664.142 849, 660.352 849 C 658.508 849, 657 848.744, 657 848.431 C 657 848.118, 661.275 827.081, 666.500 801.681 C 671.725 776.282, 676 754.815, 676 753.977 C 676 753.140, 677.605 751.591, 679.566 750.534 C 684.927 747.647, 694.412 736.939, 697.920 729.814 C 706.095 713.205, 705.534 697.105, 695.991 674.433 C 694.809 671.625, 695.682 667.391, 706.302 624.433 C 712.684 598.620, 723.331 555.450, 729.963 528.500 C 736.595 501.550, 744.544 469.804, 747.626 457.953 L 753.231 436.405 762.452 425.740 C 798.569 383.964, 819.284 348.033, 831.453 306.053 C 852.123 234.749, 840.992 158.428, 801.183 98.500 C 778.236 63.957, 741.915 30.797, 703.500 9.321 C 688.500 0.935, 685.768 -0.007, 676.623 0.053 L 668.500 0.106 675.500 3.247 C 715.588 21.233, 755.606 51.584, 781.313 83.500 C 848.338 166.713, 852.304 283.329, 791.277 376.491 C 767.355 413.010, 756.055 424.827, 685.792 486.798 L 656.084 513 638.443 513 L 620.802 513 622.721 509.750 C 623.777 507.962, 630.459 497.376, 637.570 486.224 C 644.682 475.073, 654.272 459.998, 658.881 452.724 C 706.188 378.081, 727.563 322.372, 734.567 255.467 C 737.574 226.738, 735.580 185.871, 729.858 159 C 715.624 92.149, 681.862 40.672, 630.053 6.825 L 619.605 -0 611.553 0.021 L 603.500 0.043 613.693 5.407 C 721.033 61.896, 759.498 212.452, 702.933 354.702 C 689.723 387.924, 675.791 413.090, 636.333 475 C 628.095 487.925, 619.424 501.762, 617.064 505.750 L 612.772 513 584.351 513 C 557.599 513, 555.984 512.897, 556.849 511.250 C 557.944 509.165, 567.029 477.424, 573.449 453.251 C 586.673 403.458, 597.459 350.370, 602.960 308 C 619.716 178.936, 603.740 58.523, 562.792 5.250 C 558.881 0.162, 558.603 0, 553.786 0 L 548.815 -0 553.389 5.087 C 592.522 48.613, 611.066 161.106, 598.997 281.759 C 592.866 343.052, 580.858 401.864, 557.757 483.750 L 549.505 513 512.800 513 L 476.094 513 473.011 503.375 C 427.343 360.810, 412.225 240.693, 426.557 134.291 C 434.695 73.881, 450.393 29.800, 472.542 5.164 L 477.185 0 472.545 0 C 467.117 0, 465.961 1.043, 457.590 13.500 C 420.714 68.375, 405.442 183.794, 419.548 301 C 426.764 360.960, 443.487 434.158, 465.980 504.250 L 468.789 513 439.583 513 L 410.378 513 398.243 495.250 C 391.568 485.488, 381.329 470.525, 375.488 462 C 362.749 443.405, 346.838 417.398, 337.073 399.208 C 294.852 320.560, 281.037 230.028, 299.653 154 C 315.957 87.418, 355.756 32.650, 408.364 4.402 L 416.500 0.033 408.741 0.017 C 401.010 0, 400.950 0.020, 392.241 5.616 C 307.787 59.877, 267.831 172.836, 291.068 291.636 C 304.055 358.032, 328.305 407.602, 393.399 500.816 C 398.130 507.590, 402.001 513.215, 402.001 513.316 C 402.002 513.417, 393.786 513.275, 383.742 513 L 365.481 512.500 349.491 498.530 C 340.696 490.847, 322.932 475.322, 310.015 464.030 C 255.846 416.678, 233.785 390.506, 213.477 349.500 C 184.786 291.568, 179.154 229.076, 197.059 167.343 C 217.536 96.741, 272.999 36.488, 348 3.365 L 355.500 0.052 346.500 0.044 L 337.500 0.036 325 6.597 M 891.286 343.392 C 877.246 347.977, 867.663 359.178, 866.275 372.626 C 865.805 377.179, 865.439 377.981, 864.105 377.380 C 859.907 375.491, 846.527 375.817, 840.853 377.947 C 820.616 385.543, 813.189 410.983, 826.791 426.112 C 835.941 436.289, 850.972 440.764, 865.298 437.577 L 873.014 435.860 876.015 438.861 C 886.670 449.516, 917.370 449.321, 928.633 438.526 L 932.834 434.500 943.683 434.500 C 953.928 434.500, 954.903 434.317, 961.224 431.208 C 981.151 421.406, 986.157 395.825, 971.022 381.137 C 963.537 373.873, 952.723 371.360, 942.409 374.489 C 939.709 375.308, 937.388 375.983, 937.250 375.989 C 937.112 375.995, 937 374.667, 937 373.038 C 937 363.261, 927.365 350.345, 916.288 345.274 C 909.362 342.104, 897.878 341.239, 891.286 343.392 M 892.703 350.381 C 880.038 355.103, 873.138 364.631, 873.044 377.527 C 873.016 381.291, 872.418 384.387, 871.449 385.769 L 869.899 387.982 864.699 385.346 C 847.326 376.535, 827 389.046, 827 408.550 C 827 418.818, 834.846 427.223, 847.460 430.467 C 855.831 432.620, 856.333 432.580, 874.718 428.296 C 876.460 427.890, 877.381 428.532, 879.004 431.281 C 886.493 443.975, 927 441.454, 927 428.294 C 927 425.083, 929.236 424.477, 934.022 426.392 C 944.401 430.545, 960.004 426.671, 966.978 418.211 C 983.666 397.965, 961.995 370.771, 939.287 383.463 C 931.853 387.618, 930.022 386.089, 929.978 375.685 C 929.905 358.492, 909.004 344.304, 892.703 350.381 M 267.500 436.500 C 273.845 452.805, 307.911 582.111, 323.484 649 C 325.981 659.725, 328.356 669.260, 328.762 670.188 C 329.336 671.501, 332.078 668.618, 341.123 657.188 C 363.403 629.032, 385.107 604.991, 392.766 599.982 L 395.032 598.500 392.016 577.001 C 390.357 565.176, 389 555.164, 389 554.751 C 389 554.338, 386.535 554, 383.523 554 C 376.700 554, 376.629 553.903, 370.087 535.545 C 367.377 527.938, 364.336 520.941, 363.329 519.996 C 362.323 519.050, 349.575 507.986, 335 495.409 C 302.928 467.733, 282.830 449.956, 273.611 441.110 C 269.822 437.475, 267.072 435.400, 267.500 436.500 M 739.932 447.621 C 736.518 451.192, 720.676 465.510, 680.656 501.193 L 659.691 519.885 653.095 535.693 C 644.874 555.397, 645.904 554, 639.599 554 L 634.316 554 630.834 574.955 L 627.352 595.910 632.785 599.652 C 640.195 604.755, 674.796 643.250, 686.634 659.560 C 687.807 661.177, 688.994 662.275, 689.271 662 C 689.839 661.436, 706.231 595.765, 726.461 513 C 733.923 482.475, 740.907 454.598, 741.982 451.052 C 744.351 443.236, 744.263 443.089, 739.932 447.621 M 372.251 521.058 C 372.388 521.365, 374.503 527.328, 376.951 534.308 L 381.402 547 511.504 547 L 641.606 547 643.925 539.750 C 645.200 535.763, 647.485 529.744, 649.002 526.376 L 651.760 520.252 511.881 520.376 C 434.948 520.444, 372.114 520.751, 372.251 521.058 M 396.355 557.750 C 396.695 559.813, 397.957 568.925, 399.162 578 C 400.366 587.075, 401.404 594.594, 401.468 594.709 C 401.532 594.824, 404.266 594.214, 407.543 593.354 C 416.613 590.971, 427.332 591.885, 435.021 595.695 L 441.137 598.727 445.098 595.418 C 477.528 568.324, 534.581 565.738, 580.476 589.281 L 590.743 594.548 596.121 592.674 C 601.437 590.821, 612.946 590.729, 618.584 592.494 C 620.569 593.116, 620.797 592.358, 623.432 576.323 C 624.952 567.070, 626.433 558.263, 626.723 556.750 L 627.250 554 511.494 554 L 395.738 554 396.355 557.750 M 153.265 557.542 C 134.223 562.670, 118.564 580.239, 117.682 597.466 C 117.551 600.020, 117.114 600.865, 116.121 600.488 C 100.506 594.555, 81.670 598.695, 71.527 610.291 C 48.976 636.070, 62.527 670.556, 97.346 675.999 C 103.722 676.996, 117.011 676.084, 121.561 674.338 C 122.405 674.014, 125.346 675.947, 128.745 679.059 C 139.024 688.469, 151.945 693, 168.500 693 C 185.146 693, 195.204 689.295, 206.253 679.091 L 212.111 673.682 217.132 674.841 C 249.563 682.327, 277.125 659.118, 271.002 629.479 C 266.511 607.746, 247.865 595.725, 227.267 601.286 L 222.034 602.698 221.434 599.099 C 219.571 587.926, 213.431 575.429, 206.912 569.539 C 194.748 558.550, 170.038 553.024, 153.265 557.542 M 158.108 563.082 C 139.653 566.706, 125.369 582.564, 124.204 600.722 C 123.616 609.886, 123.370 610.007, 112.509 606.474 C 94.131 600.496, 78.228 607.340, 70.310 624.633 C 57.501 652.612, 87.305 677.832, 120.726 667.297 L 126.113 665.599 131.437 671.575 C 149.718 692.098, 190.519 691.347, 205.414 670.214 C 208.842 665.351, 208.309 665.411, 220.338 668.548 C 232.382 671.688, 247.398 667.810, 256.188 659.290 C 270.370 645.543, 265.992 616.832, 248.500 608.866 C 242.484 606.126, 232.048 606.410, 224.500 609.519 C 215.647 613.166, 215 612.831, 215 604.600 C 215 595.761, 209.622 582.800, 202.953 575.565 C 194.103 565.963, 173.144 560.129, 158.108 563.082 M 493.655 581.597 C 478.780 584.284, 464.315 590.191, 452.654 598.340 L 446.807 602.425 451.036 606.031 C 454.818 609.255, 455.141 609.867, 454.097 611.818 C 452.470 614.859, 451.334 614.576, 444.531 609.440 C 433.786 601.327, 428.895 599.498, 418 599.516 C 401.180 599.545, 392.451 606.284, 362.500 642.366 C 333.209 677.652, 329.297 683.401, 326.497 695.277 C 323.036 709.956, 327.992 730.311, 337.640 741.045 C 355.051 760.414, 379.972 760.709, 397.523 741.752 C 412.710 725.349, 419.333 703.902, 424.004 656 C 425.157 644.175, 426.303 633.487, 426.550 632.250 C 426.798 631.013, 427.234 628.875, 427.519 627.500 C 428.035 625.017, 430.086 624.328, 433.298 625.561 C 434.455 626.005, 434.576 626.941, 433.879 630.042 C 433.395 632.198, 432.084 643.533, 430.967 655.231 C 426.987 696.906, 423.608 711.967, 413.939 731.120 L 410.896 737.150 412.880 744.998 C 422.479 782.955, 460.071 805.275, 518.500 807.708 C 532.496 808.291, 547.648 806.155, 570.500 800.379 C 594.339 794.354, 617.805 779.103, 625.031 764.940 C 632.868 749.577, 633.256 743.019, 627.685 720 C 622.336 697.897, 622.347 697.960, 620.992 681.500 C 616.129 622.454, 602.359 602.073, 557.121 586.964 C 536.875 580.201, 512.696 578.157, 493.655 581.597 M 598.711 598.640 C 597.235 599.070, 597.967 600.279, 602.890 605.542 C 617.442 621.098, 623.083 637.547, 627.566 677.500 C 629.242 692.438, 631.322 704.957, 634.048 716.500 C 636.255 725.850, 638.286 734.531, 638.560 735.791 C 639.181 738.644, 649.069 745.199, 655.442 746.984 C 676.883 752.987, 697.049 730.572, 695.769 702.160 C 694.808 680.824, 687.642 669.110, 648.743 625.294 C 629.610 603.743, 622.304 598.858, 608.500 598.390 C 604.100 598.240, 599.695 598.353, 598.711 598.640 M 466.885 640.380 C 459.170 643.137, 454 648.749, 454 654.367 C 454 658.245, 456.207 658.041, 459.850 653.825 C 463.750 649.312, 467.538 647.145, 473.224 646.175 C 477.586 645.430, 479.706 643.282, 478.691 640.636 C 477.920 638.628, 472.138 638.503, 466.885 640.380 M 576.744 639.590 C 576.335 639.999, 576 641.547, 576 643.031 C 576 645.484, 576.422 645.786, 580.669 646.368 C 586.746 647.201, 593.272 651.086, 595.995 655.491 C 599.902 661.813, 603.632 658.945, 600.509 652.019 C 597.312 644.929, 591.368 640.917, 581.994 639.518 C 579.515 639.148, 577.153 639.181, 576.744 639.590 M 471.304 689.913 C 467.167 692.491, 465.370 695.340, 463.995 701.499 C 460.117 718.882, 479.992 730.245, 487.057 714.684 C 493.338 700.849, 482.104 683.185, 471.304 689.913 M 577.992 691.773 C 570.068 699.697, 570.320 713.387, 578.509 719.829 C 587.563 726.950, 599.754 716.183, 597.392 703.152 C 594.940 689.627, 585.610 684.154, 577.992 691.773 M 523.447 713.403 C 517.315 715.324, 507.566 720.800, 504.405 724.099 L 501.591 727.036 503.699 729.143 L 505.806 731.250 509.178 728.677 C 524.561 716.945, 545.780 716.177, 552.819 727.098 C 555.550 731.334, 560.638 731.742, 559.435 727.628 C 557.189 719.942, 552.379 715.033, 545.118 713.016 C 540.185 711.646, 528.385 711.857, 523.447 713.403 M 523.421 725.896 C 518.739 728.023, 515 732.271, 515 735.463 C 515 738.352, 520.317 746.291, 524.634 749.850 C 529.377 753.759, 538.618 754.034, 542.945 750.393 C 549.993 744.462, 553.670 734.990, 550.919 729.849 C 547.985 724.366, 531.887 722.051, 523.421 725.896 M 823.754 736.084 C 805.561 740.373, 788 760.247, 788 776.548 C 788 780.125, 787.970 780.151, 784.750 779.329 C 776.970 777.344, 762.869 778.365, 756.278 781.391 C 742.516 787.710, 735.517 798.866, 735.507 814.500 C 735.496 830.466, 741.680 839.779, 757.476 847.586 C 767.597 852.588, 782.166 853.664, 792.491 850.173 C 795.785 849.059, 798.504 848.227, 798.531 848.324 C 799.833 852.924, 810.223 860.737, 819.581 864.151 C 836.236 870.229, 864.303 864.754, 872.551 853.820 L 874.345 851.442 881.422 853.294 C 904.618 859.364, 929.981 847.632, 935.623 828.223 C 938.045 819.895, 937.137 806.163, 933.664 798.577 C 927.285 784.643, 918.089 778.525, 903.500 778.510 C 898.550 778.504, 892.587 778.877, 890.250 779.338 L 886 780.176 885.979 776.338 C 885.928 767.133, 878.521 752.968, 870.307 746.367 C 858.461 736.847, 838.872 732.520, 823.754 736.084 M 823.273 743.403 C 805.856 749.059, 794.075 765.117, 794.016 783.281 C 793.997 789.077, 792.651 789.878, 786.837 787.551 C 764.459 778.598, 741.790 792.348, 741.583 815 C 741.375 837.720, 773.009 853.467, 795.660 841.918 C 800.891 839.252, 801.468 839.417, 804.404 844.426 C 805.831 846.861, 808.686 850.245, 810.749 851.947 C 825.674 864.257, 859.042 861.710, 868.210 847.560 C 870.911 843.390, 870.801 843.403, 880.680 846.113 C 907.213 853.392, 930.092 839.628, 930.216 816.312 C 930.337 793.373, 913.382 780.160, 891.500 786.141 C 889.300 786.742, 885.927 787.294, 884.004 787.367 L 880.508 787.500 879.830 781.388 C 877.808 763.178, 870.775 752.559, 856.180 745.682 C 848.297 741.967, 831.314 740.791, 823.273 743.403 M 399.884 749.634 C 387.838 761.867, 369.482 765.965, 353.648 759.956 C 349.173 758.258, 348.831 758.246, 349.238 759.807 C 349.480 760.738, 354.363 781.184, 360.089 805.242 L 370.500 848.984 380.500 848.980 L 390.500 848.976 393.703 843.144 C 400.841 830.145, 426.657 800.465, 435.670 794.895 L 439.046 792.809 432.662 787.976 C 420.968 779.123, 413.748 768.841, 408.494 753.554 L 405.267 744.167 399.884 749.634 M 636.815 753.051 C 631.692 774.150, 614.615 791.645, 588.860 802.179 L 581.221 805.303 585.610 811.715 C 588.025 815.241, 590 818.548, 590 819.063 C 590 819.578, 592.605 820, 595.790 820 C 615.118 820, 637 834.074, 637 846.506 C 637 849.059, 637.083 849.088, 643.716 848.796 L 650.433 848.500 653.654 832.500 C 655.426 823.700, 659.409 803.450, 662.505 787.500 C 665.600 771.550, 668.377 757.489, 668.674 756.254 C 669.189 754.116, 669 754.038, 664.703 754.627 C 657.445 755.622, 649.540 753.315, 640.914 747.685 L 638.500 746.110 636.815 753.051 M 572.667 748.667 C 572.300 749.033, 572 751.328, 572 753.766 C 572 762.737, 565.801 770.006, 556.345 772.122 C 546.378 774.353, 537 768.126, 537 759.278 C 537 750.964, 530.934 751.013, 529.956 759.334 C 528.643 770.502, 512.749 778.258, 502.429 772.768 C 496.106 769.403, 491.976 764.005, 492.624 759.951 C 493.010 757.537, 492.656 755.235, 491.578 753.151 C 489.165 748.486, 487.511 749.080, 484.613 755.655 C 482.135 761.277, 483.477 765.086, 490.259 771.687 C 497.164 778.406, 501.039 780.228, 509.613 780.784 C 518.677 781.372, 523.117 779.906, 529.033 774.372 L 533.678 770.028 536.089 772.646 C 542.789 779.920, 557.621 781.413, 566.932 775.750 C 576.589 769.877, 580.943 760.418, 578.039 751.619 C 576.916 748.216, 574.465 746.869, 572.667 748.667 M 435.564 804.061 C 426.472 811.554, 411.724 828.156, 404.447 839.088 C 397.497 849.529, 397.290 849, 408.315 849 L 417.845 849 418.989 845.535 C 425.233 826.613, 460.114 817.480, 483.636 828.608 C 490.503 831.856, 499.411 839.993, 501.645 845.057 L 503.385 849 528.646 849 L 553.906 849 555.864 844.574 C 559.431 836.511, 571.545 825.640, 580.327 822.621 L 583.934 821.380 579.499 814.769 C 577.059 811.132, 574.622 807.884, 574.082 807.550 C 573.542 807.217, 568.240 808.062, 562.300 809.429 C 536.815 815.294, 524.582 816.126, 502.970 813.464 C 480.900 810.747, 462.743 805.958, 449.970 799.485 C 447.273 798.118, 444.856 797, 444.599 797 C 444.342 797, 440.276 800.178, 435.564 804.061 M 582.111 829.956 C 574.636 833.572, 566.950 839.727, 564.050 844.419 C 561.834 848.004, 561.444 849.462, 562.949 848.532 C 564.447 847.605, 572.731 850.034, 574.276 851.853 C 575.046 852.759, 576.455 856.471, 577.409 860.102 C 579.686 868.777, 582.056 872.478, 586.921 874.960 C 594.733 878.945, 595.554 878.292, 595.144 868.407 C 594.548 854.041, 597.959 853.991, 600.722 868.325 C 602.579 877.957, 603.371 878.563, 610.282 875.638 C 616.114 873.169, 617.482 870.665, 617.654 862.144 C 617.862 851.781, 617.826 852, 619.339 852 C 621.144 852, 623.208 856.509, 623.918 862 L 624.500 866.500 626.723 862.926 C 630.548 856.775, 631.488 849.891, 629.206 844.732 C 622.997 830.696, 597.268 822.623, 582.111 829.956 M 446.024 832.551 C 439.009 834.503, 433.100 837.984, 429.137 842.497 C 425.582 846.546, 425.219 847.990, 427.750 848.022 C 428.712 848.034, 431.356 848.887, 433.625 849.917 C 437.313 851.592, 437.879 852.328, 438.967 856.862 C 441.077 865.660, 447.803 873.812, 456.709 878.368 L 459.919 880.009 460.209 871.766 C 460.677 858.486, 465.583 860.724, 466.753 874.750 L 467.274 881 471.387 880.986 C 480.581 880.956, 483 877.529, 483 864.539 C 483 860.457, 483.430 856.852, 483.956 856.527 C 485.712 855.442, 488.310 861.062, 488.908 867.239 L 489.500 873.347 492.300 869.297 C 494.095 866.701, 495.490 862.895, 496.186 858.694 C 497.221 852.449, 497.149 851.931, 494.656 847.676 C 491.293 841.938, 487.092 838.432, 479 834.612 C 471.052 830.860, 455.576 829.892, 446.024 832.551 M 357.190 856.353 C 352.263 859.087, 351.013 862.658, 351.013 874 C 351.013 885.342, 352.263 888.913, 357.190 891.647 C 359.039 892.673, 389.583 892.936, 510.350 892.965 L 661.200 893 664.600 889.600 L 668 886.200 668.115 875.850 C 668.273 861.665, 668.323 861.904, 664.463 858.250 L 661.029 855 649.015 855 C 638.103 855, 637 855.166, 637 856.804 C 637 863.363, 627.330 874.761, 616.919 880.473 C 609.447 884.573, 592.655 885.464, 585.761 882.126 C 577.518 878.136, 570 867.133, 570 859.060 C 570 855.332, 567.151 855, 535.154 855 L 504.176 855 503.499 859.250 C 501.141 874.045, 489.410 886.042, 475.816 887.561 C 468.572 888.370, 455.152 885.865, 449.740 882.693 C 441.748 878.010, 432.045 864.926, 432.010 858.785 C 432.004 857.842, 431.130 856.605, 430.066 856.035 C 427.046 854.419, 360.149 854.711, 357.190 856.353" stroke="none" fill="#1a1a1a" fill-rule="evenodd"/>
</svg>