<svg xmlns="http://www.w3.org/2000/svg" width="1024" height="1024" viewBox="0 0 1024 1024" version="1.1">
	<path d="M 738.635 52.135 C 710.613 55.733, 678.496 71.215, 657.290 91.345 L 651.080 97.240 646.290 93.020 C 608.219 59.477, 540.772 44.565, 481.281 56.540 C 456.707 61.486, 429.660 72.446, 410.160 85.359 L 401.821 90.881 395.855 84.504 C 366.042 52.634, 322.026 43.302, 284.489 60.892 C 239.625 81.916, 210.591 134.341, 214.093 188 C 215.479 209.228, 220.871 224.198, 234.779 245.426 C 242.894 257.811, 245.903 264.463, 249.878 278.800 C 251.601 285.015, 253.911 291.865, 255.011 294.022 C 259.799 303.407, 269.939 310.973, 277.750 310.991 C 283.647 311.004, 283.188 309.140, 276.395 305.500 C 266.430 300.159, 262.160 293.468, 257.123 275.299 C 253.003 260.436, 250.681 255.442, 240.844 240.283 C 226.269 217.825, 221.721 203.158, 221.686 178.500 C 221.637 144.459, 234.759 112.850, 258.864 88.944 C 293.501 54.594, 339.699 50.639, 377.612 78.778 C 384.995 84.258, 395 94.190, 395 96.039 C 395 96.492, 392.413 99.118, 389.250 101.874 C 384.120 106.345, 370.433 121.226, 366.600 126.500 C 365.207 128.417, 364.741 128.103, 355.323 118.877 C 340.605 104.458, 329.376 99.451, 312 99.559 C 300.096 99.633, 291.802 102.238, 281.471 109.148 C 269.004 117.486, 257.406 132.746, 255.442 143.395 C 254.435 148.852, 256.132 147.440, 260.467 139.213 C 271.959 117.399, 290.185 106.166, 312.347 107.237 C 327.886 107.989, 336.774 112.219, 350.988 125.628 C 360.117 134.239, 360.260 134.991, 354.468 143.943 C 337.413 170.307, 328.061 203.853, 326.014 246 C 325.063 265.569, 323.403 274.696, 318.452 287.578 C 312.417 303.278, 311.685 310.960, 314.934 324.500 C 317.317 334.431, 320.098 341.006, 324.521 347.161 L 327.940 351.921 324.330 352.598 C 313.941 354.547, 296.942 351.058, 282.500 344.012 C 269.942 337.885, 263.278 332.287, 252.656 318.945 C 242.674 306.408, 239.606 303.671, 231 299.625 C 210.403 289.942, 191 300.288, 191 320.953 C 191 324.561, 191.424 328.993, 191.943 330.801 C 192.767 333.674, 192.454 334.806, 189.464 339.769 C 182.560 351.230, 182.844 359.495, 190.299 364.040 C 193.039 365.711, 195.374 365.993, 206.500 365.999 L 219.500 366.006 227.180 372.753 C 231.404 376.464, 238.780 383.902, 243.571 389.281 C 272.943 422.263, 310.255 439.475, 360 442.990 C 378.711 444.312, 391.923 443.092, 417.750 437.655 C 421.187 436.931, 424 436.634, 424 436.995 C 424 437.356, 419.387 440.391, 413.750 443.739 C 375.554 466.426, 347.956 476.053, 312.527 479.049 C 279.093 481.876, 268.297 485.485, 256.938 497.633 C 239.496 516.287, 242.086 546.251, 261.778 553.624 C 264.375 554.596, 268.075 556.411, 270 557.657 C 275.801 561.412, 285.555 563.446, 291.347 562.109 C 296.115 561.009, 296.296 561.054, 299.363 564.101 C 304.198 568.906, 309.755 572.116, 318.500 575.157 L 326.500 577.938 326.784 586.719 C 327.052 595.036, 326.947 595.553, 324.784 596.500 C 322.950 597.303, 322.053 599.275, 320.232 606.500 C 316.438 621.554, 309.206 655.265, 308.178 662.685 C 307.477 667.742, 306.137 671.573, 303.333 676.539 L 299.458 683.404 285.479 683.147 C 260.015 682.679, 243.239 686.375, 226.075 696.235 C 215.418 702.357, 212.241 708.340, 215.266 716.590 C 215.910 718.345, 215.030 719.456, 209.766 723.533 C 182.073 744.982, 166.225 766.129, 154.708 797 C 150.037 809.519, 147.993 820.556, 147.298 837 C 145.128 888.318, 166.621 931.599, 207.716 958.670 C 212.235 961.647, 216.199 964.514, 216.525 965.041 C 216.900 965.647, 201.482 966, 174.618 966 C 131.755 966, 129.267 966.207, 132.036 969.544 C 133.064 970.782, 140.536 971.003, 181.872 971.021 C 230.227 971.042, 230.546 971.055, 238.673 973.441 C 262.673 980.485, 294.326 980.026, 315.324 972.328 C 318.525 971.155, 324.988 970.727, 343 970.494 C 379.943 970.017, 411.657 968.834, 413.141 967.876 C 416.789 965.524, 409.953 965.030, 373.546 965.015 L 335.592 965 342.950 960.463 C 376.960 939.495, 402.566 901.303, 408.967 862 C 409.549 858.425, 410.257 854.081, 410.540 852.347 L 411.054 849.195 416.809 849.716 C 423.934 850.362, 428.261 847.420, 430.103 840.677 C 431.611 835.159, 430.663 811.177, 428.499 800.074 C 421.040 761.815, 398.713 729.989, 362.151 705.500 C 355.111 700.785, 354.611 700.202, 353.367 695.265 C 352.642 692.385, 350.907 687.777, 349.513 685.025 L 346.977 680.021 349.138 671.260 C 350.327 666.442, 351.456 662.314, 351.646 662.088 C 351.836 661.861, 356.831 666.368, 362.746 672.104 C 368.661 677.840, 384.075 692.168, 397 703.944 C 423.194 727.810, 421.497 725.948, 422.384 731.786 C 422.742 734.143, 427.023 744.739, 431.897 755.331 C 447.277 788.755, 448.368 793.383, 443.676 805.295 C 437.399 821.234, 442.410 832.938, 457.473 837.515 C 460.238 838.355, 466.205 840.263, 470.733 841.753 L 478.967 844.464 480.579 851.709 C 485.296 872.911, 498.281 885.430, 522.580 892.202 C 539.019 896.784, 584.182 895.070, 618.227 888.573 L 629.953 886.335 632.626 893.417 C 642.166 918.701, 658.507 939.384, 680.921 954.544 L 691.205 961.500 642.353 962.033 C 615.484 962.327, 593.388 962.664, 593.250 962.783 C 592.388 963.530, 593.257 965.885, 594.582 966.393 C 595.452 966.727, 620.550 967, 650.355 967 L 704.546 967 714.342 969.485 C 736.949 975.220, 757.555 975.109, 783 969.117 C 795.002 966.290, 796.772 966.147, 827.446 965.517 C 845.955 965.136, 860.196 964.430, 861.304 963.838 C 866.005 961.321, 860.700 960.754, 833.400 960.852 C 818.137 960.907, 806.065 960.593, 806.574 960.153 C 807.083 959.714, 812.098 956.335, 817.719 952.644 C 870.544 917.953, 894.017 849.406, 873.899 788.585 C 871.732 782.031, 868.457 773.842, 866.622 770.387 L 863.286 764.105 867.263 760.909 C 880.750 750.070, 875.046 735.291, 849 713.585 C 816.278 686.318, 778.946 676.073, 739.069 683.417 C 729.560 685.169, 728.172 684.799, 732.502 681.670 C 743.449 673.758, 748.013 666.565, 747.978 657.283 C 747.945 648.490, 743.851 641.374, 736.441 637.227 C 735.217 636.542, 735.495 634.996, 738.198 627.457 C 742.754 614.745, 743.026 587.088, 738.768 569.500 C 737.303 563.450, 735.817 556.475, 735.465 554 C 730.534 519.298, 682.271 422.871, 654.386 392.005 L 651.184 388.461 661.101 378.291 L 671.019 368.121 675.606 372.092 C 699.071 392.401, 731.155 398.054, 762.752 387.447 C 791.072 377.941, 810.277 356.899, 820.573 324.098 C 826.393 305.554, 831.290 295.437, 839.013 286 C 866.900 251.924, 875.343 230.260, 875.451 192.500 C 875.620 133.714, 841.445 78.535, 792.804 59.058 C 774.918 51.896, 757.664 49.691, 738.635 52.135 M 744 59.613 C 742.625 59.877, 737.450 60.766, 732.500 61.588 C 701.738 66.700, 665.868 88.810, 646.424 114.644 C 642.075 120.423, 640.316 122.044, 638.651 121.807 C 634.636 121.234, 635.374 116.285, 640.483 109.520 C 642.968 106.230, 645 103.232, 645 102.856 C 645 100.321, 622.331 84.988, 609.630 78.933 C 546.382 48.778, 463.548 56.257, 408.779 97.068 C 359.031 134.137, 335.976 180.533, 333.529 248.500 C 332.855 267.229, 330.764 278.600, 325.531 292 C 320.938 303.760, 320.243 310.159, 322.402 320.813 C 325.244 334.839, 333.561 350.558, 337.500 349.349 C 349.550 345.649, 369.737 331.872, 378.421 321.422 C 390.885 306.422, 398.896 299.936, 410.775 295.225 C 416.784 292.842, 418.830 292.556, 430 292.540 C 444.083 292.520, 449.826 294.339, 458.735 301.639 C 463.466 305.516, 463.899 307.479, 459.308 304.234 C 454.812 301.058, 442.055 296.899, 434.969 296.299 C 419.157 294.962, 396.872 305.530, 389.792 317.724 L 388.085 320.665 398.792 320.600 C 408.471 320.541, 410.072 320.801, 415.458 323.307 C 423.089 326.858, 427.596 330.319, 429.575 334.145 C 431.837 338.520, 430.739 338.658, 427.496 334.406 C 422.569 327.946, 415.538 325.496, 402 325.522 C 388.546 325.547, 385.185 326.773, 375.745 335.099 C 369.910 340.245, 369.304 342, 373.363 342 C 379.422 342, 390.768 353.148, 393.057 361.351 C 394.664 367.109, 393.619 366.752, 390.433 360.456 C 386.303 352.292, 375.570 345, 367.684 345 C 364.909 345, 338.828 357.503, 339.161 358.674 C 339.291 359.128, 341.312 360.714, 343.652 362.198 C 348.370 365.190, 351.576 370.495, 352.623 377.041 C 353.534 382.743, 351.180 382.041, 349.171 376.013 C 345.915 366.246, 333.752 358.979, 323.041 360.400 C 309.589 362.185, 286.982 356.731, 272.500 348.208 C 263.886 343.138, 250.653 330.742, 245.440 322.858 C 232.381 303.109, 208.880 297.848, 201.250 312.966 C 198.628 318.161, 198.343 324.493, 200.500 329.654 C 202.791 335.137, 202.377 337.040, 197.485 343.520 C 188.364 355.601, 190.130 358, 208.143 358 C 224.616 358, 224.262 357.795, 245.345 379.526 C 266.945 401.790, 273.336 407.133, 287 414.350 C 330.725 437.444, 377.009 441.791, 427.092 427.506 C 458.134 418.652, 496.889 393.481, 506.410 375.989 C 509.567 370.188, 509.205 369.271, 503.577 368.817 C 498.946 368.443, 498.093 366.907, 500.938 364.063 C 505.221 359.779, 514.496 361.880, 523.100 369.084 C 530.719 375.463, 529.018 379.871, 520.408 376.062 L 516.004 374.114 513.508 379.392 C 508.120 390.780, 479.703 414.448, 460.792 423.296 C 458.201 424.508, 456.064 425.774, 456.041 426.109 C 456.018 426.444, 460.612 427.262, 466.250 427.928 C 539.942 436.630, 614.910 415.035, 655.083 373.534 C 661.737 366.661, 666.772 358.539, 671.601 346.886 C 676.868 334.181, 680.891 335.669, 677.493 349.067 C 674.459 361.034, 674.380 360.312, 679.159 364.420 C 701.089 383.273, 724.877 389.018, 752.315 382.088 C 758.655 380.487, 766.808 377.762, 770.432 376.033 C 790.068 366.661, 806.755 345.244, 813.363 320.931 C 818.371 302.505, 824.012 291.156, 834.273 278.859 C 837.780 274.656, 842.923 268.131, 845.702 264.359 C 896.241 195.755, 856.741 81.861, 775.500 61.937 C 767.712 60.027, 749.026 58.649, 744 59.613 M 742 104.497 C 715.532 109.826, 686.043 133.181, 673.079 159.082 C 667.900 169.430, 667.827 173.136, 672.531 187.054 C 681.395 213.281, 686 242.940, 686 273.795 C 686 291.535, 686.918 293.717, 689.595 282.340 C 691.535 274.095, 691.461 240.086, 689.475 226.743 C 687.463 213.226, 683.749 197.905, 679.381 185.101 C 675.303 173.145, 675.395 170.664, 680.241 162 C 698.631 129.119, 732.356 108.575, 765 110.367 C 786.678 111.557, 799.254 117.455, 817.250 134.872 C 825.466 142.824, 824.639 139.551, 815.708 128.769 C 807.741 119.152, 787.097 107.517, 772.792 104.581 C 763.672 102.710, 751.045 102.675, 742 104.497 M 367.113 185.708 C 358.703 188.679, 351.030 198.465, 351.006 206.250 C 350.997 209.001, 351.872 208.429, 358.145 201.583 C 366.044 192.963, 370.877 190.684, 380.281 191.146 C 389.029 191.575, 390.040 189.781, 383.038 186.250 C 377.906 183.662, 373.344 183.507, 367.113 185.708 M 559.500 191.157 C 555.970 192.456, 552.859 194.963, 553.497 195.995 C 553.744 196.395, 556.798 196.951, 560.284 197.231 C 569.679 197.985, 575.026 200.832, 584.221 209.978 C 592.861 218.571, 594.012 219.253, 593.978 215.750 C 593.852 202.859, 571.340 186.801, 559.500 191.157 M 362.551 257.059 C 348.921 269.623, 354.457 300.184, 370.645 301.740 C 384.838 303.104, 393.087 280.282, 384.482 263.457 C 378.741 252.232, 370.421 249.805, 362.551 257.059 M 550.422 269.418 C 542.745 272.761, 536.090 287.072, 537.447 297.322 C 539.934 316.117, 554.200 325.675, 564.196 315.241 C 574.334 304.659, 575.030 284.937, 565.643 274.246 C 560.667 268.578, 555.856 267.053, 550.422 269.418 M 643.694 393.687 C 640.919 398.177, 609.831 415.741, 598 419.503 C 585.080 423.611, 580.699 427.796, 550.172 465.193 C 544.025 472.724, 538.546 479.163, 537.997 479.502 C 535.958 480.762, 537.160 482.052, 543.250 485.140 C 550.451 488.791, 549.719 489.580, 540.467 488.139 C 532.950 486.969, 530.389 487.616, 520 493.311 C 511.496 497.973, 498.921 502.912, 486.500 506.471 C 481 508.046, 476.362 509.435, 476.193 509.558 C 476.025 509.680, 478.404 512.160, 481.480 515.070 C 497.439 530.163, 505.073 557.782, 498.391 576.250 L 496.310 582 499.905 581.998 C 507.463 581.992, 530.183 579.923, 538.652 578.469 C 590.579 569.552, 628.650 537.123, 645.617 487.356 C 650.648 472.598, 653.013 469.835, 652.985 478.750 C 652.916 499.911, 633.860 534.120, 611.800 552.682 C 582.892 577.008, 557.208 585.815, 508.797 588.005 L 488.095 588.941 483.626 592.352 C 481.169 594.228, 476.872 596.311, 474.079 596.981 L 469 598.199 469.015 602.850 C 469.037 609.425, 469.234 609.551, 482 611.102 C 512.398 614.797, 568.968 611.110, 607 602.956 C 652.169 593.272, 705.306 572.239, 722.980 557.048 L 727.459 553.197 725.197 543.921 C 720.308 523.873, 698.526 475.471, 679.556 442.500 C 665.891 418.749, 645.423 390.889, 643.694 393.687 M 560.830 430.587 C 532.117 437.099, 494.314 438.891, 465.857 435.090 C 443.766 432.139, 446.309 431.597, 429.338 442.874 C 399.771 462.520, 376.896 473.388, 349.250 480.922 C 344.126 482.318, 344.150 481.529, 348.997 489.259 C 359.231 505.581, 361.374 522.268, 355.180 537.391 C 353.402 541.730, 352.129 545.462, 352.349 545.683 C 352.570 545.903, 358.094 546.507, 364.625 547.024 C 371.156 547.542, 378.170 548.234, 380.211 548.564 C 383.656 549.120, 383.970 548.960, 384.604 546.331 C 387.134 535.844, 396.356 523.321, 406.270 516.907 C 416.429 510.335, 437.702 504, 449.610 504 C 452.025 504, 454 503.608, 454 503.129 C 454 502.650, 452.623 495.337, 450.940 486.879 C 446.233 463.221, 445.868 448.468, 450.094 452.694 C 451.264 453.864, 458.895 487.248, 460.086 496.409 C 460.581 500.209, 461.189 503.522, 461.438 503.771 C 463.392 505.725, 499.412 494.834, 512.110 488.451 C 526.938 480.997, 527.527 480.475, 544.712 459.500 C 550.570 452.350, 558.943 442.549, 563.318 437.719 C 567.693 432.890, 571.098 428.816, 570.886 428.667 C 570.674 428.517, 566.148 429.381, 560.830 430.587 M 327.448 485.459 C 324.670 486.140, 315.895 487.008, 307.948 487.388 C 291.445 488.178, 283.338 489.782, 274.484 494.008 C 255.581 503.029, 246.746 525.860, 256.566 540.311 C 260.071 545.469, 260.621 544.983, 260.177 537.121 C 259.544 525.920, 265.322 512, 270.604 512 C 272.405 512, 272.426 511.887, 269.510 518.151 C 266.129 525.414, 265.942 538.183, 269.121 544.750 C 272.057 550.815, 277.534 554.266, 285.090 554.813 C 291.581 555.282, 291.763 555.069, 289.500 549.654 C 285.215 539.400, 289.602 523.843, 298.002 519.499 C 309.445 513.582, 326.548 525.411, 329.529 541.305 C 330.213 544.950, 330.287 545, 334.976 545 C 341.036 545, 344.007 542.730, 347.625 535.334 C 354.508 521.265, 351.107 504.090, 338.302 488.250 C 334.556 483.617, 334.757 483.668, 327.448 485.459 M 443.585 512.107 C 418.538 515.760, 403.122 525.012, 394.980 541.280 C 390.062 551.105, 389.590 558.429, 393.351 566.507 C 397.181 574.731, 407.230 582.037, 405.560 575.383 C 403.945 568.947, 403.859 566.774, 404.966 560.344 C 405.614 556.580, 407.215 551.475, 408.522 549 L 410.899 544.500 410.309 555.538 C 409.777 565.484, 409.936 567.067, 411.913 571.538 C 414.548 577.498, 418.356 581.757, 422.718 583.623 C 428.501 586.098, 428.859 585.727, 427.121 579.059 C 425.252 571.884, 426.470 562.447, 430.203 555.195 C 433.731 548.338, 435.022 548.763, 433.278 556.208 C 429.241 573.448, 436.247 588.543, 449.266 590.656 L 453 591.262 453 585.599 C 453 570.910, 467.836 557.738, 478.316 563.122 C 481.563 564.791, 485.986 569.132, 487.615 572.250 C 489.680 576.203, 490.720 575.681, 492.461 569.818 C 497.460 552.986, 487.958 527.779, 471.979 515.484 L 466.152 511 457.826 511.122 C 453.247 511.189, 446.838 511.632, 443.585 512.107 M 300.361 525.952 C 297.058 527.344, 294.606 534.895, 295.294 541.555 C 296.763 555.790, 309.405 565.935, 331.276 570.430 C 345.022 573.255, 390 577.294, 390 575.703 C 390 575.429, 388.881 573.246, 387.513 570.852 C 386.145 568.458, 384.732 564.328, 384.374 561.672 C 383.565 555.683, 383.228 555.537, 366.956 554.126 C 330.871 550.999, 330.556 551.030, 326.970 558.060 C 322.990 565.860, 319.266 564.024, 321.681 555.452 C 323.932 547.460, 323.643 543.639, 320.292 537.086 C 316.141 528.970, 306.277 523.460, 300.361 525.952 M 723.971 566.289 C 703.519 581.871, 649.879 602.398, 607.141 610.996 C 561.943 620.089, 502.690 622.953, 475.103 617.378 C 471.763 616.703, 471.717 616.740, 472.384 619.596 C 475.285 632.022, 485.533 644.818, 503.268 658.161 C 517.934 669.194, 517.091 668.895, 520.537 664.298 C 532.524 648.310, 551.811 633.438, 564.250 630.591 C 568.762 629.559, 567.453 631.328, 558.750 638.026 C 541.878 651.010, 525.883 668.345, 519.974 680.051 C 509.408 700.983, 510.486 721.717, 524.118 759.739 C 528.015 770.607, 531.867 781.640, 532.679 784.256 C 534.486 790.082, 535.174 790.461, 546.811 792.039 C 565.444 794.564, 594.705 791.798, 612.788 785.802 L 622.245 782.666 621.689 777.583 C 621.383 774.787, 620.383 766.200, 619.466 758.500 C 615.270 723.260, 619.419 716.265, 656.500 696.062 C 669.064 689.217, 695.778 670.808, 703.707 663.531 C 729.824 639.561, 739.244 610.871, 732.540 575.718 C 730.014 562.476, 729.589 562.008, 723.971 566.289 M 465.801 571.750 C 461.624 576.215, 459.864 580.628, 460.197 585.802 L 460.500 590.500 465.572 590.376 C 476.448 590.109, 483.793 584.457, 481.948 577.774 C 479.726 569.726, 470.808 566.399, 465.801 571.750 M 334.986 587.119 C 334.979 591.179, 334.702 595.512, 334.370 596.748 C 333.824 598.786, 334.041 598.942, 336.695 598.411 C 338.549 598.040, 342.351 598.746, 347.061 600.335 C 351.153 601.716, 354.781 602.543, 355.123 602.173 C 355.935 601.297, 358.098 583.967, 357.514 583.022 C 357.268 582.625, 353.789 582.010, 349.783 581.656 C 345.778 581.302, 340.813 580.726, 338.750 580.375 L 335 579.738 334.986 587.119 M 366 583.423 C 366 583.677, 364.833 592.073, 363.407 602.080 L 360.814 620.276 370.157 629.720 C 385.148 644.872, 420.756 676, 423.099 676 C 423.478 676, 424.978 673.025, 426.434 669.389 C 432.182 655.030, 454.085 626.504, 463.312 621.361 C 465.054 620.390, 465.044 619.958, 463.062 610.068 C 461.928 604.412, 461 599.673, 461 599.537 C 461 599.401, 457.738 599.018, 453.750 598.685 C 448.228 598.224, 444.832 597.235, 439.500 594.535 C 434.038 591.770, 431.309 590.992, 427.081 590.996 C 422.893 590.999, 420.445 590.313, 416.306 587.977 C 413.361 586.315, 409.049 584.755, 406.725 584.511 C 400.135 583.817, 366 582.906, 366 583.423 M 327.535 606.944 C 327.079 607.682, 318.043 652.448, 315.796 665.100 C 315.358 667.569, 315.642 667.761, 321.448 668.915 C 324.811 669.583, 330.138 671.375, 333.288 672.897 L 339.013 675.665 340.047 671.826 C 342.310 663.420, 350.951 626.038, 352.299 618.823 L 353.732 611.145 347.800 608.573 C 341.657 605.908, 328.813 604.876, 327.535 606.944 M 355.600 640.250 L 352.907 651.500 371.704 670.006 C 387.384 685.443, 412.393 708.130, 435.029 727.451 C 446.870 737.558, 475.387 762.582, 484 770.424 C 489.225 775.182, 495.876 780.923, 498.781 783.182 L 504.062 787.291 506.662 784.895 C 509.854 781.956, 515.021 771.406, 514.937 768 C 514.889 766.067, 513.133 764.229, 507.188 759.894 C 470.834 733.386, 453.602 718.523, 427.895 691.500 C 422.662 686, 415.377 679.317, 411.704 676.650 C 402.443 669.922, 385.822 655.386, 371.023 641.070 C 364.160 634.431, 358.489 629, 358.419 629 C 358.350 629, 357.081 634.063, 355.600 640.250 M 458.838 636.775 C 450.280 645.731, 438.763 661.577, 432.871 672.502 C 427.996 681.539, 427.224 679.720, 442.942 696.214 C 455.448 709.337, 474.099 725.612, 490.306 737.544 C 496.250 741.920, 502.729 746.737, 504.705 748.250 C 507.785 750.608, 512 751.947, 512 750.568 C 512 750.330, 510.562 744.817, 508.805 738.318 C 505.843 727.362, 505.609 725.333, 505.593 710.500 L 505.576 694.500 509.275 684.536 C 511.309 679.056, 512.641 674.274, 512.236 673.908 C 511.831 673.543, 506.550 669.731, 500.500 665.438 C 482.598 652.734, 475.475 645.586, 469.919 634.750 C 468.298 631.587, 466.812 629, 466.618 629 C 466.424 629, 462.923 632.499, 458.838 636.775 M 724.117 652.818 C 718.406 660.292, 710.644 668.136, 700.483 676.699 L 695.500 680.899 698.500 680.931 C 705.848 681.010, 722.201 677.932, 726.792 675.605 C 741.774 668.013, 745.779 649.665, 733.240 646.069 C 730.032 645.149, 729.905 645.243, 724.117 652.818 M 311.389 677.457 C 308.507 679.565, 310.638 682.950, 316.472 685.530 C 328.864 691.010, 328.904 693.405, 317.371 739.500 C 308.429 775.238, 297.802 807.394, 286.094 834.133 C 280.481 846.950, 280.058 849.533, 282.966 853.230 C 287.037 858.406, 293.050 859.108, 298.252 855.016 C 302.613 851.586, 314.487 816.986, 327.944 768.500 C 331.913 754.200, 337.379 735.525, 340.091 727 C 347.769 702.862, 348.140 698.683, 343.352 690.277 C 340.728 685.669, 335.590 682.216, 327.500 679.623 C 319.012 676.902, 313.215 676.122, 311.389 677.457 M 694.726 688.129 C 683.419 688.940, 680.212 689.830, 675.626 693.431 C 673.813 694.854, 673.841 695.056, 676.515 699.701 C 681.568 708.479, 681.491 708.449, 687.274 703.878 C 690.062 701.674, 697.891 697.209, 704.672 693.957 C 711.452 690.704, 717 687.808, 717 687.521 C 717 686.858, 709.653 687.058, 694.726 688.129 M 754 688.660 C 724.552 693.228, 711.054 697.906, 693.250 709.713 C 690.362 711.628, 688 713.799, 688 714.538 C 688 715.856, 698.517 729.525, 701.323 731.853 C 702.465 732.801, 704.216 732.133, 710.105 728.503 C 737.145 711.832, 772.976 708.667, 805.621 720.066 C 823.304 726.240, 841.355 737.635, 852.675 749.770 C 859.457 757.040, 861.742 757.375, 865.493 751.651 C 867.990 747.840, 866.589 744.960, 856.484 733.136 C 830.285 702.482, 786.735 683.582, 754 688.660 M 266.597 692.139 C 247.116 694.639, 222 705.331, 222 711.125 C 222 713.618, 227.806 719.200, 233.149 721.844 L 236.944 723.722 247.722 720.461 C 270.705 713.507, 292.616 709.723, 307.783 710.088 C 317.385 710.318, 317.571 710.202, 318.472 703.392 C 319.064 698.925, 318.857 697.952, 316.824 695.637 C 314.615 693.120, 313.810 692.941, 300.500 692.003 C 284.337 690.865, 276.271 690.897, 266.597 692.139 M 657.515 704.576 C 653.123 707.084, 649.338 709.329, 649.104 709.563 C 648.869 709.797, 650.481 712.129, 652.685 714.745 C 654.889 717.360, 663.363 727.825, 671.517 738 C 691.697 763.182, 716.273 791.862, 730.964 807.375 C 743.884 821.017, 744.874 822.499, 744.189 827.163 C 743.210 833.835, 737.645 834.358, 692.500 832.020 C 682.600 831.507, 666.555 830.790, 656.845 830.426 L 639.190 829.765 632.297 836.768 C 625.283 843.894, 619.691 847.299, 603.009 854.599 C 597.372 857.066, 595.963 858.049, 597.319 858.569 C 601.723 860.259, 631.117 858.103, 658.500 854.082 C 688.820 849.630, 712.600 846.666, 731.500 844.984 C 755.809 842.821, 765 837.527, 765 825.689 C 765 820.515, 763.471 818.009, 752.201 804.710 C 747.907 799.645, 738.749 788.525, 731.848 780 C 724.947 771.475, 713.702 758.200, 706.858 750.500 C 691.311 733.008, 678.834 717.627, 672.117 707.673 C 669.269 703.453, 666.615 700.003, 666.220 700.007 C 665.824 700.012, 661.907 702.067, 657.515 704.576 M 353.167 713.186 C 352.710 714.459, 351.300 718.327, 350.034 721.783 C 348.768 725.238, 347.905 728.231, 348.116 728.433 C 348.327 728.635, 351.923 731.085, 356.107 733.877 C 386.525 754.175, 405.967 789.985, 410.530 834.115 C 411.163 840.241, 413.035 842, 418.922 842 C 422.504 842, 423 839.872, 423 824.506 C 423 780.579, 396.137 734.554, 357.982 713.110 L 353.999 710.872 353.167 713.186 M 637.323 716.881 C 632.521 720.359, 627.281 727.987, 626.374 732.818 C 625.185 739.159, 627.188 765.019, 628.867 764.989 C 629.215 764.982, 632.425 759.781, 636 753.429 C 639.575 747.077, 644.884 738.699, 647.798 734.811 L 653.095 727.742 649.206 723.121 C 647.067 720.579, 644.688 717.487, 643.918 716.250 C 642.154 713.413, 642.104 713.418, 637.323 716.881 M 286.789 719.550 C 275.598 721.293, 264.450 723.967, 249.761 728.432 C 235.146 732.874, 234.651 732.867, 227.240 728.077 L 221.170 724.154 211.835 731.185 C 173.391 760.143, 153.545 801.004, 155.342 847.500 C 157.127 893.666, 175.936 928.705, 211.294 951.730 C 245.780 974.186, 290.363 977.094, 328.883 959.399 C 357.636 946.190, 382.921 917.761, 394.963 885.100 C 411.242 840.950, 401.303 790.280, 369.717 756.388 C 363.277 749.478, 348.054 737, 346.063 737 C 345.379 737, 340 757.330, 340 759.914 C 340 760.492, 344.165 765.135, 349.256 770.232 C 366.249 787.247, 373.015 804.540, 373.057 831.060 C 373.108 863.826, 364.243 887.489, 343.621 909.625 C 318.018 937.108, 284.340 945.777, 249.250 933.916 C 227.394 926.528, 204.759 905.443, 196.738 885 C 188.009 862.753, 188.667 828.255, 198.263 805 C 207.776 781.948, 221.199 767.281, 243 756.119 C 264.483 745.119, 278.119 742.968, 305.500 746.260 C 307.255 746.471, 307.887 745.032, 310.666 734.500 C 315.343 716.767, 315.781 717.981, 304.750 718.097 C 299.663 718.150, 291.580 718.804, 286.789 719.550 M 752 721.602 C 737.734 724.209, 725.802 728.530, 714.724 735.101 L 707.949 739.120 709.883 741.810 C 710.947 743.289, 713.163 745.778, 714.808 747.341 L 717.799 750.181 726.917 746.533 C 740.721 741.010, 748.239 739.728, 763.500 740.292 C 811.515 742.069, 840.989 775.070, 843.672 830.058 C 845.931 876.345, 819.782 917.333, 779.244 931.048 C 760.797 937.289, 734.060 935.124, 713.881 925.755 C 691.447 915.338, 673.078 893.514, 665.835 868.670 C 663.661 861.213, 663.430 860.864, 660.983 861.353 C 659.570 861.636, 652.696 862.633, 645.707 863.570 C 630.507 865.607, 631.019 864.525, 636.937 882.111 C 652.427 928.141, 680.972 954.706, 724.392 963.497 C 801.912 979.193, 872.653 917.390, 873.190 833.500 C 873.333 811.131, 869.324 794.427, 858.880 773.881 C 846.961 750.430, 824.976 733.821, 793.444 724.444 C 784.697 721.843, 759.963 720.147, 752 721.602 M 650.629 744.766 C 642.449 756.355, 633.387 774.236, 632.418 780.702 C 631.709 785.425, 632.810 788.732, 634.928 788.243 C 635.541 788.102, 641.853 788.889, 648.954 789.993 C 656.056 791.097, 662.070 792, 662.320 792 C 662.569 792, 663.084 789.925, 663.464 787.389 C 664.391 781.208, 668.459 768.927, 672.126 761.239 L 675.113 754.977 667.439 745.239 C 663.218 739.882, 659.255 735.395, 658.632 735.266 C 658.010 735.138, 654.408 739.413, 650.629 744.766 M 432 736.391 C 432 736.741, 434.300 742.083, 437.112 748.263 C 439.923 754.444, 444.405 764.291, 447.071 770.146 C 449.737 776.001, 452.445 782.882, 453.088 785.436 C 453.731 787.991, 454.537 789.930, 454.879 789.745 C 460.874 786.510, 469.226 782.909, 470.078 783.193 C 470.686 783.395, 468.043 786.022, 464.206 789.031 C 447.590 802.054, 442.929 821.041, 454.650 827.956 C 460.311 831.296, 460.999 830.841, 461.006 823.750 C 461.012 816.267, 462.242 811.414, 465.260 806.959 C 468.873 801.628, 469.908 802.357, 467.750 808.714 C 463.916 820.007, 466.472 830.375, 474.040 834.231 C 478.305 836.404, 478.891 835.786, 480.045 827.895 C 481.721 816.443, 485.709 806.099, 492.005 796.875 L 495.905 791.161 489.203 785.337 C 485.516 782.134, 475.975 773.654, 468 766.494 C 446.060 746.794, 432 735.037, 432 736.391 M 743.202 748.972 C 736.622 750.558, 724.825 755.293, 724.346 756.541 C 723.867 757.790, 754.815 796.645, 760.875 802.405 L 763.932 805.309 764.889 802.791 C 766.052 799.733, 772.812 759.297, 773.213 753 L 773.500 748.500 760 748.339 C 752.575 748.250, 745.016 748.535, 743.202 748.972 M 778.590 752.237 C 778.339 753.481, 777.610 759.337, 776.969 765.249 C 776.327 771.162, 774.359 783.189, 772.595 791.977 L 769.387 807.955 774.670 810.539 C 777.575 811.961, 780.815 814.221, 781.870 815.562 C 782.925 816.903, 784.023 818, 784.311 818 C 784.598 818, 792.009 812.038, 800.779 804.750 C 809.550 797.462, 818.453 790.118, 820.563 788.430 L 824.401 785.360 821.618 780.611 C 815.089 769.470, 802.220 758.346, 790.395 753.623 C 780.798 749.789, 779.121 749.593, 778.590 752.237 M 270 754.426 C 258.178 757.050, 243.396 763.408, 240.220 767.235 C 239.396 768.228, 240.936 771.185, 246.620 779.521 C 250.737 785.560, 257.233 795.486, 261.057 801.580 C 268.580 813.569, 272.424 817.976, 273.993 816.407 C 275.362 815.038, 281 765.173, 281 754.431 C 281 752.708, 277.744 752.707, 270 754.426 M 286 754.160 C 286 754.798, 285.353 761.885, 284.563 769.910 C 283.772 777.934, 282.623 790.575, 282.009 798 C 281.395 805.425, 280.683 812.513, 280.427 813.750 C 279.683 817.350, 284.511 816.846, 286.436 813.123 C 289.881 806.462, 305.667 756.333, 304.643 755.309 C 302.618 753.284, 286 752.260, 286 754.160 M 677.747 768.902 C 675.051 775.830, 671 789.463, 671 791.606 C 671 792.846, 682.715 794.504, 699.444 795.632 L 709.387 796.302 707.444 793.711 C 703.390 788.307, 681.476 762.106, 680.966 762.054 C 680.672 762.024, 679.223 765.106, 677.747 768.902 M 335.686 770.750 C 335.448 771.163, 333.411 778.250, 331.160 786.500 C 327.514 799.864, 318.371 829.637, 316.497 834.250 C 315.570 836.532, 313.740 837.052, 337.038 828.406 C 348.292 824.230, 359.016 820.313, 360.869 819.702 C 364.211 818.600, 364.233 818.551, 363.713 813.546 C 362.513 802.012, 353.863 785.571, 343.830 775.754 C 338.100 770.148, 336.574 769.210, 335.686 770.750 M 224.101 779.624 C 212.213 791.834, 203.881 808.274, 201.486 824.244 L 200.795 828.850 204.648 829.943 C 206.766 830.545, 216.576 832.403, 226.448 834.074 C 236.319 835.744, 247.486 837.761, 251.263 838.555 C 260.531 840.505, 260.742 840.468, 261.526 836.750 C 261.903 834.962, 263.534 831.160, 265.151 828.299 L 268.091 823.098 266.072 819.140 C 264.174 815.420, 250.518 794.044, 240.148 778.561 C 237.591 774.744, 234.880 771.425, 234.121 771.185 C 233.342 770.938, 228.983 774.609, 224.101 779.624 M 518.671 780.482 C 517.671 782.898, 514.974 786.488, 512.677 788.460 C 510.380 790.431, 506.318 793.932, 503.651 796.240 C 493.802 804.765, 486.424 824.652, 487.255 840.434 C 488.707 867.982, 503.584 882.001, 535.500 885.896 C 548.288 887.457, 577.825 887.278, 589.196 885.571 C 598.682 884.147, 620.471 880.400, 624.750 879.458 C 627.292 878.898, 627.418 878.054, 625.973 871.299 L 624.946 866.500 616.565 866.821 C 608.378 867.134, 608.156 867.209, 606.981 870.046 C 605.420 873.815, 597.894 880.725, 593.190 882.708 C 587.697 885.024, 566.401 885.461, 557.896 883.432 C 546.371 880.682, 542.397 876.614, 539.911 865.018 C 538.562 858.730, 536.879 857, 532.110 857 C 522.406 857, 512.351 851.184, 508.893 843.571 C 503.901 832.580, 509.863 815.104, 525.203 795.760 L 527.376 793.019 524.642 785.264 C 521.171 775.418, 520.866 775.174, 518.671 780.482 M 616.500 792.609 C 598.064 799.375, 557.900 802.576, 541.500 798.587 L 535.500 797.127 532.153 800.314 C 517.208 814.539, 510.438 835.638, 518.297 843.497 C 521.324 846.524, 528.349 849.521, 530.010 848.494 C 530.393 848.257, 531.003 844.514, 531.365 840.176 C 532.088 831.501, 534.312 823.816, 536.664 821.864 C 538.003 820.752, 538.083 821.187, 537.341 825.552 C 536.320 831.557, 536.712 844.114, 538.029 847.576 C 539.761 852.132, 551.419 854.692, 558.379 852.046 C 560.598 851.202, 560.878 850.536, 560.797 846.296 C 560.702 841.312, 563.486 833.973, 565.750 833.239 C 566.670 832.941, 567 834.684, 567 839.835 C 567 848.357, 567.456 849.667, 571.072 851.537 C 579.320 855.803, 598.398 850.438, 617.647 838.441 C 636.656 826.593, 640.430 809.549, 627.459 794.134 C 624.540 790.664, 622.553 790.388, 616.500 792.609 M 817.859 797.780 C 813.222 801.476, 804.354 808.515, 798.153 813.423 L 786.878 822.346 787.572 828.923 C 787.953 832.540, 788.707 835.783, 789.245 836.129 C 789.784 836.474, 795.012 837.496, 800.862 838.400 C 806.713 839.303, 816.782 840.864, 823.237 841.867 C 829.693 842.871, 835.206 843.461, 835.487 843.179 C 838.647 840.020, 831.195 794.093, 827.114 791.570 C 826.660 791.290, 822.495 794.085, 817.859 797.780 M 640 798.374 C 640 799.130, 640.712 801.718, 641.582 804.124 C 642.746 807.345, 643.002 810.373, 642.554 815.596 L 641.944 822.693 669.222 823.335 C 684.225 823.688, 705.163 824.276, 715.750 824.642 C 727.036 825.031, 734.980 824.932, 734.951 824.403 C 734.924 823.906, 731.210 819.568, 726.698 814.763 L 718.495 806.026 686.997 802.481 C 669.674 800.531, 652.800 798.504, 649.500 797.976 C 641.471 796.690, 640 796.752, 640 798.374 M 772.811 824.371 C 773.474 834.790, 767.456 843.825, 757.384 847.528 C 754.698 848.516, 750.925 849.965, 749 850.748 L 745.500 852.171 750.500 854.178 C 760.864 858.338, 769.269 855.691, 777.332 845.728 C 782.532 839.304, 782.300 827.689, 776.847 821.479 C 772.702 816.757, 772.342 817.014, 772.811 824.371 M 275.210 826.477 C 268.115 832.446, 266.273 844.376, 271.115 852.992 C 273.675 857.547, 276.658 859.409, 275.557 855.765 C 273.131 847.735, 273.786 844.480, 281.700 825.250 C 282.601 823.059, 278.306 823.871, 275.210 826.477 M 347.500 829.907 C 339.800 832.601, 329.225 836.345, 324 838.228 L 314.500 841.651 310.719 849.363 L 306.937 857.075 321.360 872.787 C 329.292 881.429, 337.668 890.300, 339.973 892.500 L 344.164 896.500 346.851 893.314 C 355.546 883.007, 363.447 860.686, 365.130 841.672 C 366.855 822.183, 367.792 822.808, 347.500 829.907 M 198.993 836.518 C 196.787 842.322, 198.567 863.870, 202.172 875 C 205.224 884.420, 214.069 901, 216.044 901 C 217.303 901, 228.389 890.874, 245.810 873.811 L 264.120 855.878 262.477 850.930 C 260.439 844.794, 260.271 844.709, 245 842.075 C 238.125 840.889, 226.875 838.854, 220 837.553 C 198.391 833.466, 200.121 833.551, 198.993 836.518 M 785.497 846.006 C 784.504 848.209, 783.086 850.514, 782.346 851.128 C 779.665 853.353, 779.811 853.615, 795.996 875.625 C 798.473 878.994, 803.186 885.685, 806.469 890.495 L 812.437 899.239 815.301 895.869 C 825.241 884.173, 837.456 853.664, 833.910 849.391 C 832.766 848.013, 826.203 846.718, 806.758 844.035 C 786.900 841.294, 787.654 841.224, 785.497 846.006 M 714 853.639 C 712.625 853.889, 702.735 855.449, 692.023 857.106 C 681.311 858.764, 672.382 860.285, 672.181 860.486 C 669.756 862.911, 686.783 896.276, 692.133 899.582 C 693.150 900.211, 728.951 866.905, 734.300 860.354 C 737.062 856.973, 737.800 855.400, 737.002 854.600 C 735.898 853.494, 718.753 852.777, 714 853.639 M 773.215 859.258 C 771.408 860.340, 767.808 861.766, 765.215 862.427 L 760.500 863.629 759.297 870.065 C 758.635 873.604, 758.069 879.425, 758.039 883 C 758.009 886.575, 757.313 894.883, 756.492 901.462 C 755.671 908.041, 755 916.541, 755 920.350 L 755 927.275 760.649 926.611 C 778.156 924.554, 793.986 917.464, 806.197 906.213 L 808.893 903.728 793.897 881.445 C 785.649 869.190, 778.361 858.742, 777.700 858.227 C 776.912 857.613, 775.372 857.967, 773.215 859.258 M 560.309 859.009 C 559.104 859.495, 555.785 860.029, 552.932 860.196 C 546.718 860.560, 546.221 861.452, 548.882 867.466 C 551.776 874.008, 556.968 876.196, 571.019 876.792 C 584.341 877.357, 591.931 875.877, 596.560 871.813 C 599.292 869.414, 601.149 866.027, 599.750 865.994 C 599.612 865.991, 596.800 865.535, 593.500 864.980 C 590.200 864.426, 584.442 863.527, 580.705 862.983 C 576.967 862.439, 572.148 861.096, 569.994 859.997 C 565.769 857.842, 563.725 857.633, 560.309 859.009 M 734.477 867.215 C 727.526 875.155, 714.944 887.200, 701.007 899.257 L 696.664 903.014 699.082 905.618 C 702.315 909.100, 711.789 915.501, 719.025 919.091 C 729.266 924.172, 749.012 927.901, 748.992 924.750 C 748.988 924.063, 749.879 914.950, 750.972 904.500 C 752.065 894.050, 753.315 880.420, 753.748 874.211 L 754.537 862.922 752.019 862.319 C 750.633 861.988, 747.903 860.917, 745.951 859.940 L 742.401 858.164 734.477 867.215 M 263.573 864.070 C 257.790 868.382, 221 904.542, 221 905.913 C 221 908.814, 237.987 920.541, 248.609 924.974 C 256.348 928.203, 270.212 931, 278.484 931 L 283.706 931 283.351 926.250 C 282.858 919.646, 281 876.836, 281 872.066 C 281 868.494, 280.701 868.056, 277.549 867.016 C 275.651 866.390, 272.573 864.842, 270.709 863.577 L 267.319 861.277 263.573 864.070 M 301.429 862.412 C 300.320 863.189, 296.883 864.560, 293.790 865.459 C 290.698 866.358, 287.609 867.766, 286.926 868.589 C 285.494 870.314, 285.533 883.932, 287.021 902 C 287.542 908.325, 287.975 917.212, 287.984 921.750 L 288 930 292.532 930 C 297.929 930, 307.259 927.019, 315.403 922.694 C 321.976 919.202, 340 903.692, 340 901.527 C 340 900.459, 304.617 861, 303.660 861 C 303.542 861, 302.538 861.635, 301.429 862.412" stroke="none" fill="#1a1a1a" fill-rule="evenodd"/>
</svg>