<svg xmlns="http://www.w3.org/2000/svg" width="1024" height="1024" viewBox="0 0 1024 1024" version="1.1">
	<path d="M 245.917 67.377 C 245.688 67.584, 243.025 68.017, 240 68.339 C 186.316 74.057, 138.773 112.567, 120.047 165.500 C 116.177 176.440, 112.309 192.053, 111.269 200.931 C 109.674 214.556, 110.567 243.692, 112.926 255 C 120.141 289.573, 128.122 304.461, 155.275 334 C 165.030 344.611, 166.930 348.218, 168.015 358.181 C 169.015 367.368, 169.199 368.403, 171.629 378.500 C 180.658 416.013, 210.124 441.175, 249 444.567 C 264.507 445.920, 289.858 439.859, 297.500 432.972 C 299.444 431.219, 299.699 431.291, 306.641 435.532 C 314.394 440.269, 324.242 444.580, 329.613 445.587 C 333.599 446.335, 333.619 446.494, 331.122 458 L 329.277 466.500 318.060 478 C 282.697 514.257, 262.927 544.691, 253.426 577.500 C 249.863 589.802, 249.351 609.716, 252.307 621 C 258.319 643.947, 275.778 662.723, 300.297 672.609 C 304.809 674.428, 307.915 675.935, 307.199 675.958 C 303.985 676.062, 303 682.481, 303 703.330 C 303 725.703, 303.553 729.511, 311.945 764.958 C 315.997 782.071, 320.711 809.646, 323.550 832.846 C 324.448 840.187, 326.281 851.437, 327.623 857.846 C 328.965 864.256, 331.244 875.350, 332.687 882.500 L 335.311 895.500 332.398 898.596 C 320.997 910.714, 320.250 926.609, 330.581 937.245 C 343.360 950.402, 377.992 960.071, 412 959.975 C 450.350 959.868, 472.549 952.684, 481.447 937.500 C 486.650 928.623, 486.943 925.267, 486.713 877.334 C 486.596 853.043, 486.725 833.018, 487 832.834 C 487.275 832.650, 494.322 832.644, 502.660 832.821 L 517.820 833.141 518.513 839.321 C 518.893 842.719, 519.379 847.075, 519.592 849 C 520.536 857.547, 522.383 867.592, 525.636 881.867 C 529.750 899.915, 529.990 907.034, 526.927 920.081 C 522.234 940.073, 529.047 952.674, 548.461 959.909 C 587.146 974.324, 653.820 968.810, 678.708 949.137 C 690.194 940.057, 691.952 929.339, 686.865 899.392 C 685.861 893.486, 687.022 864.727, 688.807 851.280 L 689.500 846.061 696 851.601 C 704.099 858.503, 716.306 864.512, 725.403 866.074 C 742.090 868.938, 762 862.970, 762 855.104 C 762 851.050, 759.827 849.683, 747 845.667 C 725.950 839.077, 713.422 829.058, 705.443 812.435 C 700.936 803.043, 698.868 800.345, 697.044 801.473 C 695.511 802.421, 695.697 800.806, 699.019 784.407 C 705.050 754.627, 707.564 731.913, 706.534 716.500 C 705.387 699.348, 701.361 674.254, 699.110 670.233 C 698.474 669.095, 699.010 668.021, 701.088 666.272 C 705.541 662.526, 715.797 649.334, 718.680 643.646 C 724.507 632.149, 729.008 612.922, 728.995 599.574 C 728.981 583.921, 722.308 554.609, 714.953 537.892 C 703.104 510.960, 680.175 480.958, 659.777 465.693 L 655.054 462.158 659.777 459.415 C 669.383 453.834, 679.147 446.794, 685.428 440.918 L 691.885 434.878 693.385 437.778 C 697.302 445.352, 712.343 456.181, 726.092 461.325 C 758.906 473.603, 786.735 470.044, 814.467 450.024 C 830.728 438.285, 840.833 425.369, 849.266 405.546 C 853.829 394.818, 854.956 393.448, 871.507 378.500 C 925.273 329.941, 945.297 248.867, 919.791 183 C 901.681 136.228, 870.327 105.377, 825.852 90.565 C 792.146 79.340, 755.114 81.943, 723.500 97.758 C 707.279 105.873, 681.133 126.920, 674.751 137 L 673.168 139.500 664.834 131.406 C 628.262 95.888, 573.663 75.569, 515 75.648 C 496.090 75.673, 490.369 76.263, 467.329 80.568 C 428.532 87.816, 389.046 105.040, 370.957 122.605 L 366.415 127.016 360.506 119.922 C 337.122 91.851, 305.072 73.017, 273.094 68.557 C 262.946 67.142, 246.945 66.447, 245.917 67.377 M 241 76.643 C 223.005 80.188, 217.318 81.744, 206.339 86.124 C 178.923 97.062, 160.469 112.209, 143.746 137.500 C 113.947 182.565, 110.446 244.317, 134.995 291.840 C 140.858 303.192, 145.485 309.525, 158.736 324.340 C 172.889 340.162, 174.057 341.986, 175.059 349.818 C 181.315 398.707, 200.026 424.121, 236.779 433.650 C 247.359 436.393, 261.136 436.503, 273 433.937 C 277.413 432.983, 291.017 427.133, 292.935 425.364 C 293.174 425.144, 291.776 423.284, 289.828 421.232 C 277.658 408.408, 271.141 389.314, 271.125 366.429 C 271.112 348.224, 274.453 335.313, 286.839 305.712 C 291.339 294.958, 293.537 285.713, 294.499 273.500 C 297.019 241.474, 303.896 217.182, 319.076 186.684 L 324.956 174.869 320.843 166.684 C 297.934 121.098, 252.138 102.810, 211.743 123.117 C 180.018 139.065, 159.332 168.605, 153.002 207 C 151.603 215.482, 150.569 218, 148.484 218 C 146.324 218, 145.688 213.876, 146.452 204.828 C 149.901 163.964, 179.499 125.241, 218.368 110.741 C 234.327 104.787, 260.688 105.843, 279.500 113.190 C 297.349 120.161, 318.124 140.735, 328.149 161.370 C 329.386 163.916, 330.646 165.996, 330.949 165.991 C 331.252 165.986, 333.300 163.174, 335.500 159.741 C 337.700 156.309, 343.887 149.059, 349.250 143.631 C 354.612 138.203, 359 133.116, 359 132.328 C 359 129.903, 332 103.754, 323.167 97.622 C 312.663 90.332, 297.147 82.828, 285.500 79.406 C 276.644 76.804, 248.919 75.082, 241 76.643 M 491.500 84.672 C 447.557 90.125, 408.603 104.119, 382.378 123.873 C 366.460 135.864, 347.419 156.086, 338.192 170.801 C 316.765 204.972, 305.949 237.116, 302.533 276.773 C 301.712 286.299, 298.894 297.109, 294.436 307.830 C 283.184 334.888, 279.466 350.016, 279.648 368 C 279.993 401.978, 293.750 422.202, 325.964 436.090 C 336.493 440.630, 336 440.527, 336 438.182 C 336 434.354, 339.894 421.993, 344.976 409.689 C 350.935 395.262, 357.243 384.674, 367.726 371.500 C 371.666 366.550, 379.091 357.100, 384.228 350.500 C 391.672 340.934, 394.067 338.500, 396.033 338.500 C 398.186 338.500, 398.481 338.919, 398.349 341.786 C 398.228 344.406, 398.532 344.975, 399.849 344.592 C 409.303 341.842, 420.557 341.411, 430.099 343.434 C 443.056 346.180, 459 356.194, 459 361.585 C 459 365.027, 457.436 364.624, 449.312 359.088 C 437.723 351.191, 432.538 349.555, 419 349.525 C 409.426 349.504, 406.199 349.919, 399.729 352 C 392.007 354.484, 391.912 354.557, 384.760 363.500 C 380.801 368.450, 374.858 375.600, 371.554 379.389 C 366.681 384.978, 366.014 386.129, 368.024 385.485 C 387.398 379.276, 412.108 384.363, 423.071 396.818 C 430.505 405.263, 426.310 408.370, 417.986 400.584 C 405.998 389.370, 391.199 386.718, 368.717 391.753 L 360.935 393.497 356.539 402.498 C 351.474 412.872, 348.462 420.191, 346.028 428.043 L 344.309 433.585 349.903 431.697 C 365.213 426.528, 384.676 429.447, 394.250 438.348 C 399.964 443.660, 396.977 446.388, 390.089 442.150 C 378.795 435.201, 364.649 433.675, 350.571 437.888 C 342.321 440.357, 342.632 439.938, 340.532 451.397 C 333.232 491.241, 343.390 514.589, 374.322 529.064 C 393.152 537.875, 408.174 537.524, 414.561 528.125 C 418.469 522.375, 417.216 512.821, 412.615 513.287 C 410.812 513.470, 410.423 512.798, 409.846 508.500 C 407.077 487.869, 411.197 472.289, 423.934 455.220 C 438.480 435.728, 446.515 431.140, 479.500 423.493 C 492.126 420.565, 500.904 416.165, 510.973 407.715 C 517.153 402.529, 517.432 402.102, 517.156 398.274 C 516.710 392.107, 519.093 392, 524.839 397.930 C 529.603 402.847, 531.419 403.603, 540 404.240 C 542.695 404.440, 543.569 404.985, 543.801 406.608 C 544.266 409.865, 539.396 411.417, 531.123 410.648 L 524.334 410.017 521.917 415.259 C 518.284 423.137, 508.786 436.881, 503.203 442.338 L 498.253 447.175 501.549 452.074 C 505.413 457.815, 508.533 465.706, 509.507 472.197 L 510.199 476.815 521.850 477.550 C 545.466 479.040, 578.722 477.466, 595.667 474.057 C 640.891 464.958, 677.649 443.992, 695.712 416.992 C 711.405 393.534, 716.007 376.466, 716.030 341.646 C 716.037 330.726, 716.524 317.226, 717.112 311.646 C 719.345 290.458, 718.221 260.210, 714.469 240.500 C 708.871 211.096, 687.583 168.860, 666.454 145.237 C 639.129 114.686, 593.378 92.163, 545.216 85.549 C 534.891 84.132, 500.394 83.568, 491.500 84.672 M 760 94.958 C 745.060 98.064, 740.263 99.564, 729.345 104.539 C 713.607 111.711, 695.039 125.951, 684.029 139.292 L 678.297 146.238 684.434 154.375 C 690.910 162.962, 699.290 176.362, 703.057 184.157 L 705.308 188.814 710.655 180.298 C 728.964 151.135, 753.394 132.792, 780.860 127.585 C 803.357 123.320, 831.031 129.822, 849.775 143.776 C 868.997 158.085, 884.794 182.591, 892.528 210.101 C 898.499 231.338, 897.942 267.890, 891.610 270.319 C 888.306 271.587, 887.670 268.406, 888.330 253.909 C 889.452 229.236, 886.401 212.068, 877.579 193.414 C 840.980 116.025, 755.752 115.366, 713.582 192.145 L 709.932 198.790 713.881 208.701 C 724.699 235.854, 728.574 265.983, 725.946 302.500 C 725.233 312.400, 724.580 330.400, 724.494 342.500 C 724.229 379.633, 717.515 402.359, 699.958 425.555 C 695.206 431.833, 695.144 432.007, 697.229 433.123 C 698.403 433.751, 702.678 436.899, 706.729 440.118 C 719.552 450.308, 727.715 454.026, 745.977 457.997 C 769.626 463.138, 792.689 457.189, 813.765 440.512 C 824.593 431.943, 832.361 421.370, 840.983 403.466 C 847.720 389.476, 847.850 389.294, 857.563 380.432 C 879.616 360.312, 890.081 347.523, 900.877 327.500 C 929.386 274.623, 929.033 212.199, 899.939 161.812 C 885.849 137.411, 863.575 115.964, 842.490 106.498 C 811.267 92.480, 787.746 89.190, 760 94.958 M 369.286 198.429 C 357.954 202.030, 347 212.788, 347 220.318 C 347 223.765, 350.593 224.566, 353.122 221.683 C 354.176 220.483, 356.866 217.385, 359.101 214.800 C 364.067 209.054, 369.866 206.118, 378.067 205.198 C 384.951 204.425, 387.395 202.442, 385.391 199.250 C 383.979 197, 375.192 196.552, 369.286 198.429 M 564.116 199.360 C 563.352 200.281, 563.032 201.991, 563.371 203.342 C 563.905 205.471, 564.688 205.777, 571.137 206.376 C 583.049 207.483, 590.634 212.080, 597.052 222.081 C 599.742 226.273, 600.710 227.056, 602.888 226.803 C 611.430 225.812, 599.091 207.455, 585.905 201.538 C 578.227 198.092, 566.169 196.887, 564.116 199.360 M 359.497 283.212 C 350.562 291.076, 348.224 300.069, 351.974 312.145 C 355.964 324.995, 361.357 329.622, 371.747 329.111 C 375.213 328.940, 381.601 322.486, 384.964 315.757 C 390.419 304.840, 388.459 294.048, 379.314 284.642 C 372.289 277.418, 366.549 277.004, 359.497 283.212 M 556.372 287.846 C 546.005 295.355, 543.300 309.568, 549.659 323.109 C 558.181 341.255, 573.749 339.575, 581.801 319.640 C 585.817 309.698, 583.634 299.571, 575.663 291.165 C 569.104 284.248, 562.829 283.168, 556.372 287.846 M 434.500 303.088 C 424.189 304.987, 409.588 312.606, 410.191 315.772 C 410.723 318.561, 414.185 318.303, 420.898 314.972 C 439.434 305.775, 462.990 307.234, 479.602 318.606 C 486.953 323.639, 489 324.069, 489 320.578 C 489 317.404, 482.385 311.636, 474.500 307.936 C 463.575 302.809, 446.952 300.794, 434.500 303.088 M 509.500 417.032 C 502.249 422.729, 493.850 426.951, 483.780 429.962 L 474.937 432.606 480.472 434.900 C 483.516 436.162, 487.626 438.293, 489.605 439.636 C 493.949 442.584, 493.853 442.645, 502.437 431.530 C 507.629 424.807, 515.577 412.871, 514.741 413.052 C 514.608 413.081, 512.250 414.872, 509.500 417.032 M 450.138 440.538 C 445.613 442.503, 433.532 454.876, 427.697 463.523 C 421.085 473.320, 418.310 482.002, 417.476 495.500 L 416.796 506.500 419.493 509 C 425.514 514.581, 426.934 523.373, 423.096 531.302 C 420.347 536.980, 420.223 536.692, 426.182 538.461 C 435.852 541.333, 441.147 539.909, 449.139 532.286 C 457.012 524.776, 461.322 524.144, 468.282 529.477 C 478.308 537.158, 487.822 539.402, 494.977 535.772 C 504.100 531.143, 505.448 522.061, 497.750 517.088 C 493.313 514.221, 493.266 513.844, 496.480 506.825 C 500.653 497.710, 502.419 486.842, 501.245 477.500 C 498.890 458.768, 491.552 448.593, 474.974 441.073 C 469.445 438.565, 455.380 438.262, 450.138 440.538 M 636 470.986 C 614.435 479.803, 596.598 483.563, 566.500 485.637 C 544.804 487.131, 517.113 486.516, 511.646 484.418 C 510.626 484.026, 510.136 485.622, 509.642 490.944 C 509.282 494.819, 507.896 500.887, 506.563 504.429 C 504.365 510.269, 504.287 510.993, 505.728 512.185 C 508.145 514.185, 510.953 521.069, 510.978 525.054 C 511.015 531.069, 506.446 538.740, 500.595 542.482 L 495.471 545.760 482.847 577.630 C 475.102 597.183, 464.180 627.807, 454.584 656.870 C 438.450 705.738, 435.635 713.125, 431.768 716.735 C 421.244 726.558, 410.364 710.673, 399.930 670.250 C 397.535 660.970, 396.631 659.436, 395.557 662.821 C 394.528 666.061, 388.636 671.251, 383.084 673.806 C 378.510 675.911, 375.401 676.429, 363.084 677.136 C 355.063 677.596, 344.111 678.265, 338.746 678.623 C 329.997 679.206, 319.898 678.344, 311 676.255 C 308.713 675.718, 308.623 675.818, 309.946 677.423 C 311.113 678.838, 311.367 683.080, 311.259 699.339 C 311.107 722.390, 311.523 725.442, 319.466 759.500 C 322.417 772.150, 325.805 788.722, 326.995 796.327 C 328.186 803.932, 329.321 811.132, 329.518 812.327 C 329.715 813.522, 330.596 820.350, 331.475 827.500 C 333.488 843.855, 335.564 855.747, 338.634 868.500 C 339.958 874, 341.318 882.551, 341.655 887.503 C 342.258 896.347, 342.214 896.594, 339.131 901.454 C 330.509 915.051, 330.063 925.235, 337.740 933.250 C 341.008 936.661, 342 936.713, 342 933.474 C 342 930.159, 348.995 923.159, 355.239 920.226 C 370.594 913.013, 381.599 922.820, 381.919 944 L 382.002 949.500 384.851 943.477 C 388.446 935.878, 392.656 931.646, 398.652 929.603 C 403.921 927.808, 411.584 927.511, 415.383 928.955 C 422.264 931.572, 429 941.351, 429 948.727 C 429 951.020, 429.189 951.077, 434.750 950.464 C 458.828 947.810, 470.607 941.746, 476.346 929.051 C 478.328 924.668, 478.405 922.746, 478.452 876.906 L 478.500 829.312 469.500 828.052 C 440.864 824.041, 413 812.388, 413 804.422 C 413 801.228, 414.122 801.354, 422.009 805.435 C 433.088 811.169, 451.041 816.759, 470.316 820.476 C 504.754 827.117, 515.760 827.264, 537.833 821.380 C 545.102 819.442, 547.479 819.152, 548.583 820.069 C 552.939 823.684, 546.476 828.074, 532.829 830.769 C 525.694 832.179, 525.213 832.432, 525.948 834.392 C 526.382 835.551, 527.068 840.100, 527.471 844.500 C 528.374 854.346, 529.971 862.801, 533.989 879 C 538.541 897.352, 538.900 906.031, 535.631 918.684 C 531.172 935.945, 532.534 941.632, 542.741 948.353 C 549.595 952.867, 549.606 952.866, 550.371 948.079 C 552.392 935.442, 570.623 926.372, 580.458 933.112 C 586.367 937.161, 593 949.495, 593 956.435 L 593 960 598.386 960 L 603.773 960 604.427 955.638 C 606.867 939.367, 625.093 929.490, 636.898 938.041 C 640.968 940.989, 647 949.107, 647 951.637 C 647 954.106, 648.982 953.969, 657.424 950.914 C 667.555 947.248, 675.801 941.478, 678.972 935.835 C 681.491 931.355, 681.484 920.971, 678.951 903.500 C 677.890 896.178, 678.226 867.286, 679.510 855.500 C 679.750 853.300, 680.420 846.100, 681.001 839.500 C 682.043 827.650, 683.393 819.690, 691.009 780.500 C 699.647 736.048, 700.032 722.216, 693.732 682.795 L 692.500 675.090 687 678.522 C 657.254 697.078, 611.083 702.848, 575.574 692.446 C 570.911 691.080, 570.325 691.132, 564.574 693.413 C 544.185 701.500, 523.315 700.177, 508.375 689.849 C 499.097 683.435, 495.764 679.659, 493.103 672.544 C 490.456 665.470, 490.460 662.397, 493.124 658.027 C 495.160 654.688, 495.171 654.515, 493.401 653.527 C 482.151 647.247, 480.710 625.190, 490.800 613.718 C 492.231 612.091, 492.178 611.546, 490.184 607.441 C 484.552 595.850, 490.020 585.570, 506 577.707 C 515.382 573.091, 532.909 572.924, 543 577.354 C 560.475 585.025, 567.010 585.601, 589 581.405 C 596.425 579.989, 604.437 578.582, 606.805 578.279 C 610.280 577.834, 610.977 577.417, 610.421 576.114 C 609.149 573.133, 607.857 535.661, 608.944 533.250 C 611.147 528.358, 614.264 531.139, 615.387 539 C 617.977 557.126, 618.296 569.834, 616.247 573.303 L 614.359 576.500 625.286 576.159 C 638.775 575.737, 642.667 576.377, 643.551 579.160 C 644.538 582.272, 642.554 582.964, 632.500 583.016 C 621.992 583.069, 611.153 584.319, 601.959 586.536 C 598.362 587.403, 589.332 588.877, 581.893 589.810 L 568.368 591.507 571.684 594.899 C 573.508 596.765, 575 599.126, 575 600.146 C 575 601.165, 575.035 602.337, 575.077 602.750 C 575.120 603.163, 574.477 603.928, 573.648 604.450 C 572.491 605.180, 570.312 603.653, 564.251 597.862 C 546.050 580.472, 522.373 576.937, 502.268 588.607 C 490.342 595.529, 495.777 608.898, 510.550 608.978 C 514.911 609.002, 517 610.357, 517 613.165 C 517 616.042, 513.320 617.295, 506.975 616.577 C 501.798 615.991, 500.947 616.173, 498.239 618.452 C 485.568 629.115, 493.561 650.879, 510.185 650.978 C 515.401 651.009, 519 652.591, 519 654.853 C 519 658.287, 516.160 659.500, 508.120 659.500 C 499.521 659.500, 498.026 660.997, 499.387 668.247 C 500.600 674.718, 509.878 682.693, 522 687.687 C 531.664 691.668, 549.721 690.554, 565.817 684.984 C 570.075 683.511, 572.395 683.174, 573.679 683.844 C 581.700 688.031, 617.045 690.194, 634.778 687.583 C 665.790 683.018, 693.963 666.826, 707.243 645.936 C 737.158 598.878, 710.764 515.634, 651.673 470.672 C 645.909 466.286, 647.577 466.253, 636 470.986 M 319.415 488.709 C 287.238 523.389, 270.519 548.810, 262.990 574.500 C 252.843 609.127, 261.845 639.249, 287.557 656.701 C 300.263 665.326, 312.166 668.881, 331 669.679 L 344.500 670.251 340.402 667.229 C 328.948 658.784, 320.591 641.621, 319.337 623.966 C 317.914 603.920, 327.359 580.490, 340.956 570.339 C 343.701 568.290, 345.837 566.503, 345.703 566.369 C 345.058 565.725, 320.148 561.928, 309.659 560.876 C 301.081 560.016, 297.665 559.290, 297.263 558.243 C 296.176 555.410, 299.416 554.877, 314.500 555.410 C 330.171 555.963, 331.491 556.108, 344.500 558.708 C 354.731 560.752, 362 561.429, 362 560.337 C 362 559.866, 360.058 553.708, 357.685 546.653 L 353.370 533.826 350.852 537.163 C 349.467 538.998, 346.689 543.087, 344.679 546.250 C 340.850 552.276, 340.160 552.760, 338.200 550.800 C 335.079 547.679, 339.068 537.095, 346.153 529.701 L 350.516 525.147 345.210 519.824 C 338.926 513.518, 332.861 502.089, 331.242 493.500 C 330.620 490.200, 329.749 485.569, 329.306 483.209 L 328.500 478.917 319.415 488.709 M 370.142 500.616 C 365.970 502.696, 364.954 503.671, 365.196 505.366 C 365.407 506.841, 366.118 507.421, 367.500 507.246 C 384.393 505.096, 387.496 504.377, 387.851 502.534 C 388.819 497.508, 378.600 496.402, 370.142 500.616 M 362 533.541 C 362 534.153, 368.874 554.957, 370.165 558.250 C 371.109 560.658, 371.778 561, 375.556 561 C 377.929 561, 380.994 561.427, 382.368 561.950 C 384.147 562.626, 384.982 562.554, 385.267 561.700 C 385.560 560.823, 386.425 560.769, 388.480 561.500 C 392.316 562.864, 393.839 565.426, 392.290 567.908 C 391.326 569.450, 391.376 569.930, 392.547 570.380 C 393.411 570.711, 394 570.342, 394 569.469 C 394 566.597, 397.887 568.064, 401.371 572.250 L 404.909 576.500 407.704 574.738 C 409.242 573.768, 415 570.424, 420.500 567.306 C 426 564.187, 430.683 561.498, 430.906 561.329 C 431.129 561.160, 429.085 558.655, 426.364 555.761 C 423.644 552.867, 420.761 549.583, 419.959 548.462 C 417.155 544.545, 411.451 542.010, 407.798 543.058 C 403.645 544.249, 390.734 544.238, 385.564 543.039 C 382.418 542.310, 381.401 542.437, 380.498 543.672 C 378.763 546.045, 375.617 544.885, 374.600 541.498 C 373.895 539.146, 372.440 537.919, 367.850 535.805 C 364.633 534.324, 362 533.304, 362 533.541 M 456.606 534.536 C 455.761 535.381, 454.318 537.345, 453.400 538.901 C 449.828 544.947, 438.098 549.813, 429.782 548.698 L 425.736 548.155 430.118 552.669 C 432.528 555.152, 435.512 557.582, 436.750 558.067 C 437.988 558.553, 439.056 559.524, 439.124 560.225 C 439.192 560.926, 442.503 564.555, 446.481 568.288 L 453.715 575.076 460.607 568.843 C 472.183 558.377, 482.472 545.372, 479.793 544.595 C 473.428 542.750, 468.815 540.366, 465.080 536.992 C 460.236 532.617, 458.911 532.232, 456.606 534.536 M 484 546.886 C 484 550.233, 475.828 561.266, 466.581 570.402 L 457.572 579.304 463.026 584.112 C 469.121 589.486, 468.820 589.558, 471.919 582 C 485.245 549.507, 486.838 545, 485 545 C 484.450 545, 484 545.849, 484 546.886 M 379.392 552.574 C 378.442 556.359, 380.498 560.211, 383.260 559.818 C 386.099 559.415, 386.738 555.775, 384.554 552.442 C 382.477 549.272, 380.206 549.329, 379.392 552.574 M 422.500 572.576 C 415.900 576.618, 410.050 580.094, 409.500 580.300 C 408.950 580.506, 412.252 584.788, 416.838 589.815 L 425.176 598.956 437.182 588.847 L 449.187 578.739 442.370 571.869 C 438.621 568.091, 435.317 565.051, 435.027 565.113 C 434.737 565.176, 429.100 568.534, 422.500 572.576 M 353.477 570.358 C 346.783 573.476, 336.944 584.287, 332.476 593.435 C 321.502 615.900, 325.835 642.681, 343.262 660.104 C 350.215 667.056, 353.865 668.499, 364.500 668.500 C 380.796 668.500, 389.012 663.036, 388.986 652.215 C 388.964 642.840, 388.597 642.226, 383.477 643.004 C 377.700 643.880, 373.277 643.163, 372.534 641.229 C 371.711 639.082, 372.635 638.501, 379.061 637.129 C 390.266 634.736, 395.071 628.627, 393.578 618.673 C 392.300 610.150, 385.672 604, 377.766 604 C 374.461 604, 374 603.707, 374 601.607 C 374 599.082, 375.647 598, 379.493 598 C 385.088 598, 389.505 587.091, 386.993 579.479 C 383.522 568.961, 366.453 564.316, 353.477 570.358 M 394.517 574.739 C 394.924 575.707, 395.477 577.513, 395.745 578.750 C 396.245 581.056, 398.400 581.780, 399.494 580.009 C 400.199 578.869, 397.163 574.355, 395.139 573.531 C 394.158 573.132, 393.984 573.470, 394.517 574.739 M 441.442 592.610 C 434.874 597.916, 429.500 602.576, 429.500 602.965 C 429.500 603.354, 434.263 608.678, 440.085 614.797 L 450.670 625.921 453.733 623.211 C 457.678 619.719, 459.253 616.685, 463.396 604.600 L 466.790 594.700 460.769 589.100 C 457.457 586.020, 454.441 583.379, 454.066 583.231 C 453.691 583.083, 448.010 587.303, 441.442 592.610 M 399.752 585.841 C 398.240 586.754, 397.003 587.986, 397.002 588.581 C 397.001 589.175, 395.901 591.831, 394.559 594.484 L 392.117 599.306 395.539 603.483 C 397.422 605.780, 399.905 609.791, 401.057 612.395 L 403.152 617.132 407.826 612.786 C 410.397 610.395, 414.188 607.162, 416.250 605.601 C 420.656 602.266, 420.656 602.264, 417.749 598.892 C 403.591 582.476, 404.380 583.048, 399.752 585.841 M 416 613.084 C 411.875 616.400, 408.102 619.509, 407.617 619.990 C 407.108 620.495, 411.288 625.980, 417.478 632.929 L 428.222 644.991 431.361 642.378 C 433.088 640.941, 437.113 637.286, 440.307 634.257 L 446.114 628.750 443.807 626.221 C 433.941 615.403, 425.541 607.004, 424.611 607.027 C 424 607.041, 420.125 609.767, 416 613.084 M 402.464 627.813 C 402.165 629.291, 401.284 631.739, 400.506 633.252 C 399.277 635.641, 399.289 636.565, 400.599 640.252 C 401.429 642.589, 403.257 649.383, 404.661 655.351 L 407.215 666.202 416.087 657.358 L 424.959 648.513 419.188 642.506 C 416.013 639.203, 411.074 633.941, 408.211 630.813 C 403.049 625.174, 403.002 625.149, 402.464 627.813 M 440.743 640.831 L 432.612 648.800 438.457 654.416 C 441.672 657.505, 444.395 659.912, 444.509 659.766 C 444.760 659.444, 449.654 645.177, 451.545 639.258 C 452.811 635.293, 452.768 634.946, 450.887 633.939 C 449.125 632.997, 447.860 633.856, 440.743 640.831 M 418.610 661.664 C 413.453 666.524, 409.181 671.044, 409.117 671.710 C 408.669 676.343, 421.088 708.168, 424.424 710.937 C 426.482 712.645, 428.238 708.751, 436.534 684.088 L 442.728 665.677 436.245 659.588 C 432.679 656.240, 429.362 653.349, 428.874 653.164 C 428.386 652.980, 423.767 656.805, 418.610 661.664 M 692.025 821.054 C 690.021 833.639, 689.830 836.443, 690.950 836.817 C 691.699 837.066, 694.874 839.626, 698.005 842.505 C 711.158 854.596, 731.373 861.269, 744.969 858.007 C 751.192 856.515, 751.068 856.381, 739 851.524 C 715.042 841.882, 698.710 826.196, 695.241 809.495 C 694.566 806.249, 694.134 807.801, 692.025 821.054 M 358.528 901.954 C 357.176 904.143, 359.782 905.317, 370.074 907.155 C 380.066 908.939, 384 908.588, 384 905.914 C 384 902.872, 360.243 899.179, 358.528 901.954 M 581.250 912.031 C 578.581 913.104, 578.266 915.726, 580.750 916.197 C 581.712 916.380, 588.340 916.522, 595.478 916.514 C 606.683 916.502, 608.500 916.277, 608.779 914.866 C 608.993 913.783, 608.021 912.855, 605.902 912.116 C 602.113 910.795, 584.476 910.735, 581.250 912.031 M 354.032 930.069 C 348.554 934.399, 346.579 937.691, 348.229 939.739 C 349.180 940.920, 364.113 946.064, 370.529 947.421 L 373.558 948.062 372.962 940.775 C 371.758 926.055, 364.386 921.885, 354.032 930.069 M 400.804 937.041 C 397.024 939.037, 393.249 943.427, 391.255 948.147 C 390.205 950.633, 390.317 950.820, 393.112 951.230 C 399.141 952.115, 419.812 952.113, 420.360 951.227 C 421.568 949.272, 418.601 942.365, 415.008 938.773 C 410.610 934.374, 406.744 933.903, 400.804 937.041 M 565.366 939.919 C 561.832 942.074, 557.642 947.180, 556.117 951.193 C 554.890 954.420, 556.269 955.020, 570.500 957.454 C 586.804 960.243, 587.383 959.779, 581.918 948.328 C 577.346 938.747, 571.858 935.960, 565.366 939.919 M 619.337 945.060 C 615.646 947.425, 613.420 950.558, 611.435 956.183 L 610.009 960.226 616.894 959.639 C 626.744 958.800, 638.364 956.941, 639.301 956.055 C 640.644 954.786, 636.951 947.101, 633.982 944.987 C 630.284 942.354, 623.508 942.388, 619.337 945.060" stroke="none" fill="#1a1a1a" fill-rule="evenodd"/>
</svg>