<svg xmlns="http://www.w3.org/2000/svg" width="1024" height="1024" viewBox="0 0 1024 1024" version="1.1">
	<path d="M 714 47.544 C 688.699 54.057, 666.902 69.713, 652.016 92.067 C 645.891 101.265, 641.273 107, 639.991 107 C 639.642 107, 634.289 103.614, 628.095 99.475 C 577.032 65.358, 509.759 54.591, 447.019 70.495 C 410.350 79.790, 378.629 96.703, 356.080 118.981 L 348.063 126.902 342.781 122.622 C 278.137 70.238, 222.219 64.374, 170.449 104.550 C 145.197 124.146, 128.115 151.914, 121.882 183.500 C 119.619 194.965, 120.143 224.592, 122.779 234.198 C 127.316 250.732, 134.405 262.866, 148.256 277.807 C 172.269 303.711, 177.968 314.868, 177.992 336.026 C 178.035 372.580, 193.796 400.383, 222.451 414.454 C 236.966 421.581, 241.654 422.513, 262.500 422.417 C 283.375 422.320, 290.765 420.830, 304.938 413.864 C 313.382 409.714, 329.130 395.698, 336.106 386.123 L 338.567 382.746 345.533 390.104 C 362.611 408.143, 374.136 417.969, 388.913 427.087 C 392.811 429.492, 396 431.694, 395.999 431.980 C 395.998 432.266, 388.011 432.510, 378.249 432.522 C 340.212 432.569, 298.784 445.896, 270.544 467.170 C 257.210 477.215, 232.059 501.840, 229.087 507.760 C 227.195 511.529, 225.885 512.533, 217.724 516.458 C 191.566 529.043, 176.638 545.370, 173.952 564.332 C 172.168 576.931, 176.759 590.843, 186.194 601.428 C 188.893 604.457, 192.679 610.087, 194.607 613.940 C 199.672 624.066, 206.458 628.977, 215.404 628.994 C 217.554 628.999, 219.203 630.045, 221.754 633.026 C 226.724 638.833, 230.257 640.385, 238.500 640.385 C 250.490 640.385, 261.280 633.442, 266.528 622.349 L 269.100 616.912 274.952 617.574 C 290.931 619.382, 299.743 608.026, 302.419 582.175 C 303.782 569.012, 304.133 568.243, 311.639 562 C 327.072 549.164, 347.094 540.541, 367 538.155 C 375.986 537.078, 375.961 537.064, 373.112 541.769 C 369.338 548.001, 356.536 574.675, 350.444 589 C 330.144 636.739, 325.879 659.289, 331.548 688.915 C 334.234 702.952, 334.695 702.305, 317.637 708.471 C 296.029 716.283, 275.024 717.643, 262.379 712.050 C 259.079 710.590, 257.969 709.419, 256.978 706.356 C 253.714 696.267, 246.835 688.689, 236.586 683.894 C 224.385 678.184, 214.684 677.857, 195 682.492 C 180.124 685.994, 171.839 685.861, 164.500 682 C 149.856 674.297, 148.695 683.209, 161.204 707.287 C 171.978 728.025, 190.095 739.016, 213.460 738.988 C 227.950 738.971, 236.309 736.442, 245.944 729.159 L 251.387 725.044 257.444 728.429 C 269.735 735.298, 274.644 736.403, 293 736.429 C 310.907 736.455, 316.300 735.523, 337.407 728.762 L 347.314 725.589 350.832 730.044 C 352.767 732.495, 358.127 738.181, 362.744 742.680 L 371.138 750.860 369.399 753.514 C 366.611 757.769, 359.099 762.915, 353.152 764.644 C 343.333 767.499, 336.464 766.273, 322.229 759.125 C 297.831 746.874, 283.560 746.572, 270.658 758.032 C 245.931 779.994, 231.387 829.444, 238.357 867.850 C 243.601 896.740, 266.512 914.248, 293.860 910.262 C 310.502 907.836, 317.897 902.905, 329.551 886.465 C 333.270 881.217, 336.678 876.699, 337.123 876.424 C 337.568 876.149, 340.534 876.729, 343.716 877.712 C 353.447 880.720, 382.477 880.166, 395.277 876.727 C 424.801 868.797, 457.436 844.414, 478.896 814.250 C 482.907 808.612, 486.846 804, 487.649 804 C 489.595 804, 500.064 811.101, 507.429 817.416 C 516.472 825.171, 526.438 837.058, 547.320 865 C 583.325 913.178, 592.202 922.506, 610.112 930.975 C 626.388 938.673, 646.514 933.728, 671.340 915.934 C 713.075 886.019, 747.317 816.719, 733.533 790.065 C 724.429 772.458, 688.522 767.519, 661.749 780.191 C 656.937 782.468, 652.851 784.145, 652.671 783.916 C 652.491 783.687, 650.644 780.350, 648.567 776.500 C 639.870 760.378, 624.001 738.626, 610.076 723.740 L 603.861 717.096 610.255 708.191 C 627.854 683.683, 635.712 659.028, 636.710 625.197 C 637.111 611.623, 637.609 606.034, 638.390 606.367 C 648.834 610.822, 653.788 612.326, 662.321 613.635 C 693.636 618.437, 728.468 608.095, 754.527 586.256 C 760.408 581.327, 764.194 579.060, 770.208 576.865 C 785.624 571.239, 795.015 565.102, 805.440 553.842 C 823.541 534.292, 828.549 503.952, 815.636 492.076 C 813.629 490.230, 813 488.694, 813 485.641 C 813 468.247, 799.371 455.106, 786.433 460.026 C 783.989 460.955, 783.427 460.690, 780.445 457.207 C 772.357 447.758, 758.352 449.469, 746.507 461.352 C 742.775 465.097, 737.988 468.607, 733.868 470.619 C 726.325 474.305, 724.210 476.818, 720.044 487.056 C 715.397 498.477, 712.024 501.273, 698.500 504.925 C 694.100 506.113, 687.692 508.427, 684.260 510.068 L 678.020 513.051 674.217 511.111 C 665.782 506.808, 620.570 472.254, 605 458.211 C 599.676 453.408, 599.293 453.970, 613.395 445.904 C 621.466 441.288, 622.689 440.876, 626.588 441.461 C 664.245 447.108, 714.733 439.172, 750.607 421.967 C 777.875 408.890, 796.807 391.532, 818.419 359.795 C 828.086 345.598, 829.880 343.853, 837.307 341.424 C 851.977 336.626, 858 329.729, 858 317.728 C 858 309.169, 854.128 303.988, 845.175 300.567 C 836.172 297.127, 835.729 296.512, 835.554 287.216 C 835.166 266.600, 816.619 257.092, 802.385 270.212 L 798.124 274.141 795.982 267.320 C 791.977 254.561, 792.675 249.368, 803.827 209 C 814.183 171.513, 817.100 145.405, 813.545 122 C 805.389 68.291, 761.353 35.354, 714 47.544 M 726.500 53.641 C 720.111 54.642, 708.362 58.341, 701.177 61.615 C 682.648 70.059, 671.984 79.597, 647.626 109.508 L 645.751 111.810 655.952 121.601 C 666.405 131.634, 675.301 142.003, 680.541 150.263 C 683.607 155.095, 685 156.099, 685 153.475 C 685 147.241, 700.642 123.450, 711.494 113.177 C 724.376 100.984, 732.032 97.500, 745.948 97.500 C 757.709 97.500, 764.266 99.962, 769.697 106.416 C 773.421 110.842, 770.958 110.884, 762.513 106.539 C 743.759 96.892, 720.515 106.830, 702.703 132.111 C 697.093 140.074, 686 157.091, 686 157.734 C 686 158.040, 688.919 164.033, 692.488 171.050 C 706.808 199.212, 711.432 216.378, 714.454 252.601 C 716.077 272.046, 717.445 279.938, 721.371 292.500 C 727.696 312.736, 729.074 326.730, 725.642 335.876 C 724.739 338.282, 724 340.470, 724 340.737 C 724 342.837, 752.832 332.584, 760.207 327.861 C 770.400 321.334, 779.746 309.294, 789.520 290.100 C 794.600 280.122, 795.192 278.375, 794.257 276.100 C 793.670 274.670, 791.577 269.900, 789.607 265.500 C 783.917 252.793, 784.169 249.302, 793.136 216.728 C 810.137 154.969, 810.762 122.176, 795.493 93.119 C 782.026 67.492, 751.091 49.791, 726.500 53.641 M 482.548 73.080 C 449.209 76.254, 411.236 89.414, 384.888 106.925 C 372.778 114.973, 354.975 130.439, 355.056 132.841 C 355.087 133.753, 357.565 136.437, 360.565 138.804 C 366.017 143.108, 376 154.263, 376 156.052 C 376 158.713, 368.571 153.969, 356.500 143.600 C 309.509 103.235, 269.315 84.678, 235 87.506 C 190.178 91.201, 147.519 126.160, 133.672 170.544 C 129.520 183.854, 128.600 190.599, 128.632 207.500 C 128.688 237.097, 134.616 250.490, 159.895 278.133 C 180.767 300.957, 184.321 308.599, 186.031 334.339 C 186.586 342.678, 187.726 353.025, 188.567 357.333 C 196.011 395.499, 230.618 418.787, 272.863 414.058 C 291.609 411.960, 304.314 406.350, 319.096 393.644 C 334.756 380.184, 338.265 367.672, 340.026 319.033 C 341.016 291.682, 342.676 280.276, 345.287 282.887 C 347.735 285.335, 345.903 356.490, 343.066 369.184 C 341.889 374.447, 343.790 377.126, 360.344 393.523 C 378.114 411.126, 392.700 421.168, 418.425 433.512 C 436.469 442.170, 442 445.351, 442 447.068 C 442 449.003, 435.733 447.852, 421.846 443.368 L 407.500 438.737 387.500 439.320 C 357.096 440.206, 338.062 443.918, 312.178 454.007 C 290.436 462.482, 277.548 470.805, 254.316 491.376 C 242.247 502.062, 233.359 511.996, 230.706 517.766 C 230.032 519.232, 226.335 521.609, 220.231 524.501 C 203.254 532.542, 190.401 543.696, 185.086 555 C 181.109 563.458, 181.297 577.309, 185.500 585.461 C 189.213 592.663, 190.094 592.563, 192.052 584.718 C 193.948 577.120, 195.877 573.397, 199.900 569.573 C 204.049 565.629, 204.413 566.526, 201.304 573.024 C 194.524 587.191, 198.416 611.768, 208.418 617.950 C 214.780 621.881, 216.622 620.985, 219.070 612.765 C 222.363 601.706, 226.769 593, 229.072 593 C 231.529 593, 231.513 593.199, 228.376 602.076 C 221.454 621.659, 226.338 634.107, 240.352 632.594 C 250.699 631.477, 258.522 623.414, 261.047 611.267 C 262.425 604.636, 263.015 604.330, 269.250 607.012 C 284.208 613.447, 292.063 604.931, 292.784 581.500 L 293.183 568.500 300.342 561.213 C 316.551 544.713, 338.003 534.149, 362.642 530.533 C 374.100 528.851, 412.905 526.571, 413.855 527.523 C 416.224 529.899, 403.867 534.991, 395.701 535.006 C 384.791 535.025, 384.149 535.834, 368.731 569 C 343.917 622.376, 338 641.438, 338 668.003 C 338 708.050, 360.194 738.246, 408.068 763.332 C 422.529 770.910, 433.486 775.044, 455 781.038 C 476.185 786.941, 486.131 791.240, 499.013 800.063 C 517.469 812.704, 526.681 822.895, 561.270 868.935 C 591.308 908.917, 598.196 915.900, 616.014 924.439 C 624.636 928.572, 626.847 928.741, 635.282 925.920 C 670.386 914.177, 708.367 872.203, 722.981 829 C 726.126 819.701, 728.071 805.233, 726.667 801.574 C 725.988 799.806, 726.508 799.619, 707.669 808.406 C 670.375 825.803, 639.644 865.610, 628.058 911.531 C 627.499 913.748, 626.391 916.448, 625.596 917.531 C 623.417 920.500, 624.510 909.158, 627.658 896.135 C 633.369 872.511, 644.073 852.904, 661.453 834.234 C 667.895 827.313, 668.184 826.794, 667.529 823.305 C 666.594 818.321, 661.209 813, 657.100 813 C 653.397 813, 653.051 811.389, 656.423 809.853 C 662.772 806.960, 672 813.525, 672 820.934 C 672 823.742, 672.202 823.667, 679.286 818.240 C 682.704 815.621, 687.585 812.258, 690.134 810.766 C 693.883 808.570, 694.896 807.369, 695.438 804.479 C 696.773 797.365, 694.393 788.476, 690.119 784.607 C 685.927 780.814, 671.546 784.226, 658.354 792.145 C 647.390 798.727, 628.683 818.873, 625.766 827.242 C 625.237 828.758, 624.399 829.747, 623.903 829.440 C 619.738 826.866, 630.790 806.323, 642.408 795.042 C 644.934 792.590, 647 790.187, 647 789.701 C 647 786.247, 607.081 733.223, 595 720.629 C 558.463 682.543, 515.027 666.150, 467.500 672.511 C 461.450 673.321, 455.150 673.972, 453.500 673.958 L 450.500 673.933 452.844 671.981 C 454.133 670.907, 458.643 668.936, 462.867 667.602 C 501.750 655.319, 552.959 669.801, 590.965 703.829 L 597.904 710.041 601.979 704.644 C 621.534 678.744, 631.368 641.638, 628.116 606.029 C 625.933 582.133, 622.511 568.189, 608.955 527.943 C 595.767 488.789, 595.191 481.155, 607.488 508.482 C 623.447 543.950, 630.580 564.635, 634.047 585.500 C 635.502 594.253, 636.531 595.882, 642.732 599.257 C 655.249 606.070, 680.489 608.535, 697.500 604.606 C 717.032 600.095, 743.012 587.231, 751.850 577.694 L 754.200 575.158 749.600 570.750 C 746.899 568.162, 745 565.446, 745 564.171 C 745 561.384, 745.093 561.402, 750.487 565.204 C 762.048 573.353, 778.112 568.574, 795.207 551.899 C 803.921 543.400, 804.537 542, 799.565 542 C 790.690 542, 779 531.043, 779 522.725 C 779 520.220, 775.431 517.963, 767.500 515.454 C 765.300 514.758, 762.712 513.873, 761.750 513.488 C 760.228 512.877, 759.999 513.418, 759.994 517.643 C 759.987 524.299, 758.345 529.645, 755.752 531.461 C 752.955 533.421, 751.642 532.073, 752.963 528.598 C 755.080 523.029, 754.285 514.233, 751.500 512.408 C 746.865 509.371, 748.183 506.823, 753.990 507.593 C 758.831 508.235, 759.100 508.135, 762.990 504.245 C 770.789 496.447, 767.223 486.793, 753.857 479.519 C 743.237 473.739, 730.641 476.896, 725.228 486.696 C 722.597 491.458, 720.652 510.680, 722.043 518.164 C 722.902 522.782, 722.088 524.631, 719.614 523.682 C 718.504 523.256, 718.013 521.262, 717.797 516.299 C 717.563 510.934, 717.184 509.546, 716 509.718 C 715.175 509.838, 709.655 511.082, 703.733 512.483 C 684.211 517.101, 677.455 520.359, 662.500 532.368 C 658.650 535.459, 655.151 537.991, 654.724 537.994 C 653.074 538.006, 657.221 531.909, 662.976 525.861 C 666.289 522.379, 669 519.276, 669 518.966 C 669 518.655, 664.916 515.571, 659.925 512.112 C 650.045 505.265, 628.337 488.178, 606.864 470.346 L 593.228 459.022 586.864 461.898 C 559.479 474.272, 531.889 475.023, 509.779 463.996 C 502.825 460.528, 495.315 453.918, 496.377 452.200 C 496.733 451.623, 500.662 452.805, 505.910 455.067 C 530.929 465.853, 556.682 465.856, 580.511 455.074 C 588.472 451.472, 609.987 438.861, 609.995 437.792 C 609.998 437.403, 606.737 436.132, 602.750 434.967 C 598.763 433.802, 591.235 431.502, 586.023 429.856 C 579.882 427.916, 576.418 427.246, 576.182 427.953 C 574.759 432.222, 567.220 441.374, 563.160 443.760 C 554.403 448.908, 541.641 446.881, 532.524 438.894 C 522.735 430.319, 518.067 417.306, 517.134 396 L 516.500 381.500 512.750 376.606 C 510.688 373.915, 509 371.129, 509 370.415 C 509 367.783, 506.628 367.810, 500.990 370.505 C 494.568 373.574, 490 373.407, 490 370.103 C 490 367.449, 491.743 366.322, 499.577 363.910 C 508.179 361.261, 510.559 360.045, 515.927 355.561 C 520.047 352.119, 524 350.889, 524 353.050 C 524 355.304, 520.875 359.957, 517.485 362.751 L 513.929 365.683 522.019 374.839 C 555.667 412.921, 612.767 437.149, 663 434.657 C 691.119 433.262, 726.321 424.387, 749.146 412.936 C 777.428 398.748, 794.106 381.937, 819.740 341.779 C 821.824 338.515, 828.448 334.808, 836.092 332.630 C 852.358 327.994, 855.019 313.518, 840.598 308.122 C 829.129 303.831, 826.888 300.783, 827.177 289.867 C 827.410 281.067, 825.556 276.710, 820.566 274.330 C 812.252 270.365, 807.236 274.459, 798.546 292.303 C 789.221 311.452, 775.792 327.478, 760.642 337.537 C 754.172 341.833, 754.241 341.694, 753.351 352.277 C 752.703 359.984, 752.584 360.312, 751.454 357.500 C 750.791 355.850, 749.935 351.913, 749.552 348.750 C 749.005 344.232, 748.485 343, 747.125 343 C 744.588 343, 725.036 349.726, 723.223 351.222 C 720.528 353.447, 717.793 361.065, 717.055 368.406 L 716.343 375.500 714.671 371.782 C 712.625 367.229, 712.562 363.112, 714.429 355.968 C 715.216 352.961, 715.553 350.208, 715.179 349.851 C 714.806 349.493, 710.450 348.892, 705.500 348.515 C 696.647 347.840, 696.395 347.884, 690.035 351.177 C 682.229 355.219, 677.982 361.131, 677.225 369.006 C 676.403 377.568, 674 374.758, 674 365.234 C 674 358.466, 676.697 352.352, 681.568 348.074 C 683.456 346.417, 685 344.870, 685 344.637 C 685 344.404, 681.962 342.995, 678.250 341.508 C 672.487 339.199, 670.639 338.900, 665.614 339.467 C 654.339 340.738, 642.735 346.745, 639.510 352.980 C 637.554 356.763, 635 356.983, 635 353.368 C 635 347.282, 641.018 341.359, 654.207 334.466 L 661.925 330.432 651.212 322.636 L 640.500 314.839 635.196 315.498 C 618.920 317.521, 606.709 323.277, 597.430 333.298 C 593.894 337.118, 591 339.941, 591 339.572 C 591 335.832, 602.590 321.918, 608.726 318.291 C 611.322 316.756, 617.716 314.091, 622.933 312.370 C 628.151 310.648, 632.584 308.747, 632.785 308.146 C 633.285 306.644, 622.025 299.517, 615.687 297.324 C 611.979 296.041, 607.506 295.529, 600 295.529 C 587.946 295.529, 583.176 296.834, 572.578 303.027 C 564.434 307.786, 563.295 307.622, 569.202 302.541 C 591.976 282.955, 622.498 284.886, 647 307.464 C 648.925 309.238, 652.278 311.752, 654.452 313.051 C 656.626 314.350, 662.164 318.691, 666.760 322.698 C 679.213 333.556, 685.588 336.587, 704.315 340.556 C 714.736 342.764, 715.726 342.593, 717.532 338.269 C 721.616 328.494, 721.088 316.049, 715.874 299.231 C 709.156 277.558, 709.154 277.548, 705.459 243 C 695.936 153.954, 631.223 89.018, 537.500 74.462 C 525.154 72.545, 495.898 71.809, 482.548 73.080 M 220.679 128.990 C 201.231 131.438, 182.846 140.973, 173.250 153.589 C 166.594 162.338, 168.445 164.220, 176.042 156.427 C 196.371 135.573, 231.298 129.220, 261.524 140.877 C 293.003 153.017, 317.903 177.927, 337.086 216.469 C 345.787 233.952, 346.308 234.490, 345.832 225.500 C 345.539 219.972, 344.673 216.841, 341.714 210.612 C 315.724 155.897, 267.150 123.140, 220.679 128.990 M 639.655 161.829 C 635.850 166.034, 639.314 168.992, 648.079 169.022 C 657.020 169.053, 662.303 171.635, 668.240 178.877 C 672.149 183.646, 674.180 179.900, 671.017 173.757 C 666.060 164.129, 658.994 160, 647.477 160 C 642.772 160, 640.917 160.434, 639.655 161.829 M 464.763 168.514 C 449.502 174.119, 431.526 198.212, 438.367 203.890 C 439.952 205.205, 440.329 204.823, 444.263 197.932 C 447.460 192.332, 459.466 180.836, 465.244 177.841 C 468.310 176.252, 471.404 175.605, 476.312 175.526 C 483.050 175.418, 484.944 174.489, 484.985 171.276 C 485.032 167.497, 472.273 165.755, 464.763 168.514 M 648.748 238.069 C 640.839 242.244, 637.561 251.270, 638.152 267.244 C 639.251 296.924, 660.650 303.737, 673.133 278.382 C 684.262 255.775, 667.548 228.145, 648.748 238.069 M 650.500 248.208 C 645.662 250.983, 644.298 258.149, 647.974 261.477 C 653.669 266.631, 662.468 254.468, 657 249 C 654.732 246.732, 653.364 246.565, 650.500 248.208 M 482.466 256.400 C 464.835 264.081, 462.126 296.040, 477.897 310.288 C 489.843 321.080, 505.507 312.795, 510.578 293.003 C 516.043 271.670, 498.838 249.268, 482.466 256.400 M 479.455 270.455 C 474.889 275.020, 477.270 284, 483.045 284 C 489.032 284, 492.647 272.967, 487.777 269.557 C 484.645 267.363, 482.292 267.617, 479.455 270.455 M 817.189 286.315 C 812.575 297.236, 822.615 314.134, 832.584 312.229 C 835.361 311.698, 835.866 310.002, 833.250 309.996 C 826.603 309.982, 819.878 300.858, 818.997 290.660 C 818.420 283.977, 818.300 283.687, 817.189 286.315 M 528.669 406.076 C 524.592 408.556, 530.140 426.282, 536.833 432.158 C 546.691 440.814, 559.039 441.114, 563.647 432.810 C 566.830 427.075, 564.988 426.039, 556.160 428.601 C 554.065 429.209, 553.840 428.978, 554.016 426.390 C 554.417 420.475, 553.914 418.910, 550.334 414.948 C 543.725 407.632, 533.198 403.322, 528.669 406.076 M 758.500 462.848 C 755.750 464.464, 752.503 466.860, 751.285 468.171 L 749.069 470.555 753.976 472.298 C 756.780 473.294, 761.220 476.176, 764.334 479.022 C 770.175 484.361, 771 484.204, 771 477.756 C 771 476.062, 772.128 472.752, 773.506 470.400 L 776.011 466.125 773.754 463.500 C 770.245 459.421, 764.730 459.185, 758.500 462.848 M 785.077 468.564 C 778.883 471.251, 776.433 476.677, 774.949 490.995 C 774.397 496.314, 773.153 502.135, 772.121 504.220 C 770.413 507.672, 770.399 508.051, 771.926 509.433 C 774.733 511.973, 780.730 514, 785.439 514 L 789.943 514 793.962 505.580 C 797.603 497.952, 799.515 495.550, 804.378 492.500 C 805.730 491.652, 805.833 490.543, 805.054 485.192 C 803.760 476.302, 801.290 471.963, 795.980 469.250 C 790.857 466.633, 789.696 466.559, 785.077 468.564 M 805.656 500.056 C 804.218 501.187, 801.283 505.814, 799.134 510.338 C 796.617 515.636, 793.762 519.885, 791.113 522.279 C 786.401 526.536, 786.113 527.840, 789.250 530.709 C 795.078 536.037, 804.121 537.733, 807.398 534.112 C 812.618 528.344, 815.754 509.105, 812.673 501.750 C 810.887 497.486, 809.385 497.123, 805.656 500.056 M 210 688.620 C 208.625 688.872, 202.209 690.186, 195.741 691.539 C 183.488 694.103, 171.981 694.704, 167.529 693.011 C 161.699 690.794, 164.134 698.073, 173.288 710.225 C 185.337 726.219, 202.530 733.370, 221.001 730.069 C 228.097 728.801, 240.178 723.475, 240.392 721.520 C 240.627 719.385, 231.371 715.526, 223.500 714.476 C 216.267 713.512, 215.719 713.289, 217.782 712.152 C 221.403 710.158, 230.884 710.579, 237.548 713.030 C 246.707 716.399, 247.445 716.269, 247.809 711.214 C 248.739 698.325, 227.212 685.460, 210 688.620 M 330 712.160 C 307.472 722.263, 277.027 725.724, 261.563 719.938 C 251.741 716.263, 252.999 719.756, 263.329 724.841 C 281.666 733.868, 306.331 733.025, 332.491 722.476 C 343.483 718.044, 342.817 718.833, 339.632 714.020 C 336.615 709.461, 336.196 709.381, 330 712.160 M 283.208 759.509 C 271.430 764.626, 256.963 786.550, 250.104 809.678 C 243.687 831.318, 242.988 863.460, 248.641 876.993 C 253.246 888.017, 264.136 891.165, 270.924 883.434 C 275.573 878.138, 274.948 872.511, 268.856 864.818 C 263.128 857.586, 256.099 855.423, 250.137 859.058 C 245.374 861.962, 245.244 860.878, 249.784 856.106 C 253.219 852.496, 254.229 852, 258.149 852 C 267.596 852, 278.312 862.640, 280.378 874.068 C 282.084 883.509, 273.339 893.904, 263.628 893.978 C 259.487 894.010, 261.555 896.078, 269.123 899.475 C 275.965 902.545, 284.015 903.603, 292.484 902.545 L 298.187 901.833 300.654 896.166 C 304.046 888.374, 304.455 887.682, 305.966 887.178 C 307.381 886.706, 307.031 893.512, 305.440 897.415 C 304.809 898.962, 305.510 898.741, 309.080 896.265 C 314.519 892.493, 317.597 889.222, 322.896 881.584 C 327.547 874.880, 327.997 872.468, 324.750 871.649 C 319.137 870.234, 303 853.355, 303 848.900 C 303 845.959, 304.523 846.588, 310.487 851.988 C 326.272 866.283, 341.818 872.007, 364.815 871.992 C 403.440 871.967, 434.803 854.459, 468.544 814.084 C 474.570 806.874, 479.500 800.445, 479.500 799.798 C 479.500 798.147, 470.652 794.904, 454.409 790.602 C 428.789 783.817, 403.719 773.278, 387.563 762.503 C 379.278 756.977, 378.751 757.039, 370 764.566 C 362.317 771.175, 358.423 773.302, 351 774.947 C 342.160 776.906, 335.771 779.140, 331.713 781.691 C 325.544 785.569, 324.112 783.220, 329.149 777.483 C 332.994 773.103, 333.439 773.524, 317.607 766.566 C 298.339 758.099, 290.266 756.442, 283.208 759.509 M 698 783.739 C 698 784.298, 698.675 786.371, 699.500 788.346 C 700.325 790.320, 701 794.698, 701 798.075 C 701 803.545, 701.191 804.131, 702.750 803.453 C 703.712 803.035, 709.112 801.123, 714.750 799.205 C 720.388 797.286, 725 795.365, 725 794.935 C 725 792.853, 719.494 788.029, 714.826 786.020 C 709.119 783.565, 698 782.058, 698 783.739 M 171.236 879.398 C 172.319 889.011, 185.897 904.930, 199.502 912.538 C 212.687 919.912, 234.598 924.393, 239.455 920.710 C 241.282 919.324, 241.020 919.150, 235.455 918.048 C 207.537 912.523, 189.164 901.429, 179.320 884.154 C 173.800 874.467, 170.458 872.501, 171.236 879.398 M 430 937.066 C 364.211 939.156, 282.890 947.580, 265.423 954.115 C 260.387 955.999, 256.362 958.952, 260.625 957.635 C 266.441 955.839, 341.090 948.894, 385 946.064 C 467.821 940.725, 575.197 943.519, 654.500 953.076 C 698.162 958.338, 714.707 960.069, 718.426 959.762 L 722.500 959.427 718.670 957.667 C 708.077 952.798, 636.492 944.078, 574 940.043 C 511.080 935.981, 482.666 935.393, 430 937.066" stroke="none" fill="#1a1a1a" fill-rule="evenodd"/>
</svg>