<svg xmlns="http://www.w3.org/2000/svg" width="1024" height="1024" viewBox="0 0 1024 1024" version="1.1">
	<path d="M 559.500 91.662 C 521.729 96.218, 495.175 105.911, 470.929 123.991 L 463.359 129.637 455.146 121.844 C 403.265 72.608, 330.298 113.220, 325.444 194.033 C 323.814 221.161, 331.430 242.705, 351.414 267.500 C 359.817 277.926, 362.716 284.577, 363.973 296.317 C 365.769 313.096, 370.098 323.020, 379.500 331.912 C 385.459 337.547, 393.123 341.596, 399.698 342.582 C 403.373 343.133, 404.182 343.741, 406.049 347.357 C 407.226 349.636, 409.047 352.904, 410.095 354.619 L 412.001 357.738 408.362 358.329 C 399.336 359.793, 388.315 354.233, 384.479 346.278 C 382.127 341.401, 377.644 336.419, 373.800 334.411 C 368.425 331.603, 357.655 333.287, 352.780 337.699 C 351.794 338.591, 350.829 339.136, 350.635 338.911 C 350.442 338.685, 343.373 330.175, 334.928 320 C 303.107 281.664, 283.154 259.876, 245.623 222.486 C 207.475 184.482, 163.380 144.371, 139.780 126.206 C 133.591 121.443, 130.197 121.244, 127.420 125.482 C 125.582 128.287, 126.272 130.269, 131.143 136.179 L 135 140.859 135 455.494 L 135 770.129 131.964 772.684 C 126.232 777.507, 124.402 784.273, 127.596 788.833 C 129.092 790.969, 129.036 791.347, 126.714 794.856 C 115.073 812.447, 111.549 833.206, 118.521 843.126 C 128.651 857.539, 151.071 856.095, 159.292 840.500 C 164.520 830.582, 158.867 805.724, 148.810 794.410 C 147.104 792.491, 147.076 792.083, 148.470 789.410 C 151.644 783.323, 149.118 774.378, 143.502 771.819 L 141 770.679 140.943 654.089 C 140.912 589.965, 140.651 449.637, 140.363 342.250 C 140.075 234.863, 140.064 147, 140.338 147 C 142.364 147, 210.902 214.870, 234.254 240 C 259.719 267.403, 293.761 306.731, 315.622 334 C 335.260 358.497, 340.222 365.291, 344.163 373.084 C 347.362 379.408, 349.900 382.623, 356.921 389.239 C 363.992 395.904, 368.746 401.943, 381.526 420.500 C 390.238 433.150, 399.260 445.990, 401.575 449.034 L 405.784 454.568 401.045 459.067 C 394.863 464.937, 391.753 472.767, 391.737 482.500 C 391.689 511.622, 419.362 535.273, 450.412 532.647 L 457.500 532.048 461.086 537.274 C 463.058 540.148, 465.868 545.136, 467.330 548.358 C 468.792 551.580, 471.566 556.365, 473.494 558.992 C 476.565 563.175, 477 564.499, 477 569.660 C 477 583.316, 480.861 603.721, 485.674 615.500 L 488.126 621.500 485.999 638 C 484.830 647.075, 483.669 655.894, 483.420 657.598 L 482.966 660.697 464.855 661.396 C 454.893 661.781, 443.988 662.289, 440.622 662.526 C 437.255 662.763, 427.525 663.435, 419 664.019 C 388.942 666.081, 339.545 671.662, 316.634 675.584 C 311.758 676.419, 307.573 676.906, 307.334 676.668 C 305.955 675.289, 320.500 646.633, 328.347 635.270 C 332.837 628.768, 333.224 627.786, 332.191 625.520 C 330.740 622.335, 328.276 622.311, 322.217 625.421 C 312.788 630.260, 299.782 642.179, 293.269 651.949 C 291.233 655.002, 289.275 657.868, 288.916 658.318 C 287.941 659.542, 292.691 638.950, 296.074 627.287 C 300.346 612.562, 305.333 599.970, 311.555 588.195 C 317.287 577.347, 317.907 574.998, 315.558 573.048 C 313.062 570.977, 307.198 574.728, 296.931 584.962 C 283.024 598.825, 274.219 613.258, 267.559 633.108 L 264.217 643.071 262.990 637.786 C 255.387 605.018, 237.156 572.240, 220.338 561.101 C 209.484 553.911, 206.885 558.243, 213.880 571.862 C 223.772 591.119, 230.430 610.753, 235.413 635.359 C 238.872 652.440, 238.735 653.951, 234.477 645.654 C 221.601 620.564, 192.718 595.861, 181.228 600.111 C 177.847 601.362, 178.512 603.784, 183.957 610.044 C 191.563 618.789, 199.537 631.278, 205.957 644.500 C 214.153 661.382, 214.364 662.328, 208.876 657.607 C 200.264 650.198, 182.764 643.291, 179.489 646.009 C 176.971 648.098, 177.774 650.003, 183.955 656.611 C 191.487 664.663, 207.001 688.288, 207 691.703 C 206.999 692.142, 202.019 693.738, 195.932 695.251 C 181.847 698.752, 170 704.063, 170 706.876 C 170 710.103, 171.283 710.107, 178.905 706.905 C 182.867 705.240, 192.014 702.347, 199.231 700.477 C 216.954 695.884, 216.544 696.568, 209.499 683.332 C 202.469 670.126, 196.169 660.313, 192.641 657.076 C 188.242 653.038, 189.644 652.950, 196.669 656.823 C 206.066 662.004, 214.728 670.984, 219.879 680.884 C 226.851 694.285, 230.189 691.200, 225.042 676.111 C 216.657 651.526, 206.743 630.426, 197.566 617.636 C 194.675 613.607, 191.940 609.711, 191.487 608.979 C 191.035 608.247, 194.111 610.031, 198.323 612.943 C 217.068 625.901, 231.789 647.814, 239.323 673.974 C 241.780 682.505, 243.917 685.483, 246.051 683.349 C 246.859 682.541, 246.854 679.044, 246.035 670.372 C 242.286 630.703, 234.921 600.775, 222.950 576.559 L 218.035 566.618 222.624 571.059 C 244.700 592.424, 260.901 635.827, 260.980 673.820 C 261 682.907, 261.056 683.131, 263.250 682.820 C 265.233 682.538, 265.583 681.728, 266.199 676 C 266.583 672.425, 267.399 664.838, 268.013 659.140 C 270.020 640.504, 277 621.238, 287.414 605.586 C 292.619 597.763, 303.643 585, 305.195 585 C 305.567 585, 304.115 588.801, 301.968 593.447 C 293.341 612.120, 285.914 637.975, 281.399 665.056 C 278.554 682.112, 278.648 684, 282.335 684 C 284.371 684, 285.069 683.058, 286.966 677.750 C 293.389 659.775, 307.368 641.078, 319.884 633.719 L 322.913 631.938 318.862 638.607 C 312.245 649.498, 299 677.233, 299 680.197 C 299 683.130, 301.458 684.129, 306.138 683.099 C 319.562 680.146, 380.281 672.804, 410.500 670.481 C 414.350 670.185, 419.975 669.724, 423 669.457 C 429.457 668.888, 464.306 667.145, 474.692 666.873 L 481.884 666.684 482.192 700.592 L 482.500 734.500 477.309 743.516 C 468.868 758.176, 468.132 764.741, 474.021 772.870 C 486.349 789.888, 527.173 795.533, 560.722 784.858 C 582.212 778.021, 585.742 770.457, 582.960 737.209 C 581.325 717.662, 581.344 697.353, 583.011 685.250 L 584.284 676 593.992 676 L 603.701 676 604.394 689.250 C 605.211 704.870, 607.101 718.278, 610.630 733.470 C 613.738 746.855, 613.456 751.253, 608.530 766.237 C 603.664 781.036, 604.068 784.991, 611.131 791.701 C 633.730 813.173, 713.177 804.817, 726.238 779.595 C 729.655 772.996, 729.752 757.372, 726.549 729.500 C 725.095 716.850, 723.632 701.435, 723.299 695.244 L 722.693 683.989 725.597 684.482 C 727.194 684.753, 734.125 685.898, 741 687.025 C 758.680 689.924, 782.413 695.510, 796.761 700.149 C 830.717 711.127, 843.124 723.190, 849.440 751.367 C 851.662 761.284, 853.535 764.179, 855.582 760.867 C 857.599 757.604, 855.528 709.917, 852.485 689.549 C 851.744 684.588, 851.294 680.373, 851.484 680.182 C 851.675 679.992, 853.885 684.035, 856.395 689.168 C 864.448 705.634, 867.399 721.808, 866.853 746.500 C 866.516 761.756, 866.590 762.500, 868.428 762.500 C 871.043 762.500, 871.821 759.220, 872.934 743.500 C 874.413 722.619, 881.510 701.946, 893.032 684.960 C 897.085 678.984, 900.890 675.122, 899.768 678.122 C 894.736 691.573, 879.870 754.885, 879.603 764 C 879.519 766.837, 879.899 767.557, 881.607 767.801 C 883.437 768.062, 884.140 766.878, 886.951 758.801 C 893.167 740.941, 903.251 724.623, 912.368 717.669 C 916.490 714.524, 916.609 714.648, 914.402 719.782 C 907.104 736.757, 895.234 770.577, 896.175 771.711 C 898.155 774.096, 899.685 773.032, 904.337 766.036 C 909.363 758.479, 916.878 751.855, 922.553 749.983 C 927.452 748.366, 927.498 748.794, 923.086 755.049 C 917.436 763.061, 909.792 777.682, 910.186 779.726 C 911.033 784.127, 914.367 781.444, 919.788 772 C 922.786 766.775, 927.230 759.802, 929.662 756.505 C 932.095 753.208, 934.341 749.490, 934.654 748.242 C 936.394 741.311, 924.482 741.138, 913.759 747.938 L 909.087 750.901 911.931 743.200 C 914.409 736.492, 916.522 731.228, 923.743 713.774 C 924.994 710.750, 925.046 709.761, 924.020 708.524 C 920.053 703.744, 907.570 711.750, 896.768 726 C 892.667 731.410, 891.957 731.997, 892.531 729.500 C 895.816 715.223, 900.789 696.299, 904.057 685.635 C 908.577 670.890, 908.734 669.463, 906.009 668.005 C 899.124 664.320, 883.897 683.553, 874.541 707.752 L 871.291 716.158 870.061 709.903 C 865.374 686.079, 851.267 665.522, 844.635 672.851 C 843.104 674.542, 843.086 675.255, 844.427 681.101 C 847.922 696.346, 851.195 732.271, 848.756 728.620 C 839.834 715.263, 834.034 709.978, 821.352 703.646 C 803.849 694.908, 771.296 685.996, 735 680.007 C 731.425 679.417, 727.197 678.674, 725.605 678.356 L 722.710 677.777 723.367 667.639 C 724.105 656.249, 724.821 652.657, 729.127 638.769 L 732.143 629.039 737.322 631.708 C 745.222 635.780, 759.192 636.214, 767.992 632.659 L 774.329 630.099 777.096 632.427 C 783.534 637.845, 788.810 639.502, 799.500 639.466 C 815.560 639.412, 823.371 634.531, 839.239 614.630 C 849.366 601.930, 849.565 599.532, 840.500 599.438 C 831.655 599.346, 831.915 599.433, 823.241 593.660 C 805.604 581.923, 792.455 583.383, 780.375 598.420 C 770.226 611.054, 767.822 613.001, 762.382 612.990 C 756.338 612.978, 749.111 609.721, 743.002 604.256 L 738.504 600.232 738.452 581.866 C 738.365 551.364, 735.416 538.321, 716.207 483.500 C 712.353 472.500, 706.723 455.838, 703.697 446.474 C 695.171 420.092, 687.667 405.943, 675.611 393.514 L 669.500 387.215 674.933 382.357 C 680.541 377.343, 691.371 363.558, 692.502 359.995 C 693.056 358.248, 693.718 358.755, 697.386 363.737 C 717.970 391.691, 754.467 400.689, 781.500 384.474 C 793.216 377.446, 797.581 371.478, 806.970 349.652 C 813.999 333.313, 818.410 326.479, 826.312 319.686 C 851.215 298.280, 857.680 291.053, 865.392 276 C 873.720 259.749, 876.967 246.012, 877.687 224 C 879.506 168.351, 851.748 123.631, 807.421 110.794 C 800.545 108.803, 797.257 108.500, 782.500 108.500 L 765.500 108.500 754.500 112.305 C 737.411 118.217, 720.307 127.823, 705.215 139.983 L 699.015 144.980 689.758 135.712 C 659.063 104.983, 603.851 86.312, 559.500 91.662 M 557.266 99.037 C 508.732 105.115, 471.483 124.774, 446.938 157.263 C 427.265 183.303, 419.648 207.459, 418.482 247.500 C 417.773 271.839, 417.760 271.924, 412.361 288.492 C 403.651 315.218, 404.659 332.456, 415.975 350.299 C 419.536 355.914, 421.612 356.244, 429.201 352.398 C 439.475 347.192, 443.894 341.698, 454.505 320.940 C 468.710 293.149, 470.009 291.642, 482.997 287.881 C 496.428 283.992, 513.836 287.535, 525.681 296.570 C 532.726 301.944, 528.698 305.263, 521.013 300.418 C 511.533 294.440, 505.596 292.626, 495.500 292.622 C 481.475 292.617, 475.037 296.036, 469.891 306.221 C 466.416 313.098, 466.409 313.172, 469.250 312.529 C 475.104 311.206, 477.979 311.118, 483.991 312.079 C 498.375 314.376, 514.400 324.189, 512.377 329.460 C 511.473 331.817, 509.578 331.325, 505.079 327.566 C 495.218 319.328, 480.627 315.424, 470 318.181 C 464.703 319.555, 464.307 319.901, 459.257 327.554 C 456.374 331.924, 454.011 335.775, 454.007 336.111 C 454.003 336.447, 456.285 336.992, 459.077 337.323 C 470.026 338.619, 487 350.836, 487 357.420 C 487 361.632, 483.723 360.562, 478.731 354.718 C 472.618 347.563, 465.585 343.846, 456.995 343.232 C 450.329 342.755, 450.276 342.771, 447.699 346.150 C 446.274 348.019, 443.083 351.065, 440.608 352.919 L 436.108 356.291 440.881 360.583 C 448.716 367.628, 454.868 381.204, 451.494 384.005 C 449.401 385.742, 447.940 384.189, 445.554 377.689 C 442.241 368.663, 432.327 358.983, 428.021 360.568 C 422.625 362.555, 411.315 365, 407.518 365 C 405.033 365, 403.007 365.113, 403.015 365.250 C 403.023 365.387, 403.679 367.300, 404.471 369.500 C 405.264 371.700, 405.932 375.217, 405.956 377.316 C 405.997 380.892, 405.828 381.113, 403.272 380.816 C 400.905 380.542, 400.447 379.923, 399.804 376.132 C 398.692 369.568, 395.324 363.298, 392.535 362.598 C 391.226 362.270, 388.750 360.819, 387.035 359.376 C 385.319 357.932, 383.798 356.920, 383.655 357.126 C 383.512 357.332, 382.573 358.850, 381.568 360.500 C 376.943 368.095, 372.636 370.677, 369.963 367.455 C 368.882 366.153, 369.236 365.331, 372.230 362.205 C 376.957 357.271, 378.894 353.149, 377.994 349.942 C 374.100 336.075, 357.760 336.807, 350.603 351.168 C 343.828 364.764, 351.037 378.555, 372.376 392.824 C 413.889 420.584, 466.145 417.941, 521.113 385.302 C 538.377 375.051, 555.606 359.689, 560.341 350.325 L 562.958 345.150 559.729 344.459 C 555.018 343.452, 553.811 342.222, 555.124 339.768 C 556.056 338.027, 556.879 337.825, 561.041 338.318 C 571.700 339.581, 582.343 346.622, 580.054 350.898 C 578.597 353.622, 577.440 353.548, 573.818 350.500 C 568.962 346.414, 568.592 346.916, 565.204 362.182 C 561.642 378.233, 558.722 385.043, 552.909 390.856 C 546.038 397.727, 536.028 398.944, 528.340 393.842 L 524.640 391.386 514.777 396.817 C 509.352 399.803, 505.045 402.378, 505.207 402.539 C 505.368 402.699, 509.589 403.980, 514.587 405.385 C 547.169 414.543, 590.776 412.431, 629 399.844 C 672.473 385.528, 696.109 356.367, 694.834 318.620 C 694.541 309.950, 694.722 308.602, 696.309 307.620 C 702.345 303.883, 703.741 327.953, 698.497 345.351 C 696.733 351.204, 698.297 354.567, 707.522 364.762 C 730.127 389.741, 765.944 392.577, 786.842 371.043 C 791.194 366.559, 796.906 356.038, 802.049 343.038 C 808.186 327.521, 814.449 319.791, 834.289 303.240 C 859.024 282.606, 871.009 254.996, 870.996 218.678 C 870.978 169.045, 844.141 128.207, 804.500 117.492 C 768.841 107.853, 723.318 126.710, 691.375 164.351 C 689.259 166.844, 687.726 167.832, 686.625 167.410 C 683.307 166.137, 685.742 159.184, 691.741 152.800 L 694.279 150.099 684.889 140.745 C 664.662 120.593, 635.660 106.346, 603 100.518 C 591.859 98.530, 567.591 97.744, 557.266 99.037 M 392 108.541 C 336.194 124.201, 313.196 206.280, 350.824 255.500 C 353.347 258.800, 357.629 264.416, 360.340 267.980 C 367.138 276.919, 368.933 281.684, 370.513 295 C 372.551 312.165, 375.837 319.833, 384.716 328.138 C 388.928 332.077, 398.549 337, 402.038 337 C 403.214 337, 403.266 337.578, 401.500 331 C 398.167 318.584, 399.807 304.879, 407.183 283.500 L 411.323 271.500 412.086 245.500 C 412.746 223, 413.184 218.086, 415.335 209 C 421.536 182.811, 433.045 160.998, 450.633 142.101 L 458.450 133.702 451.975 127.731 C 436.632 113.582, 424.499 107.965, 408 107.374 C 400.576 107.108, 395.889 107.450, 392 108.541 M 152 148.217 C 237.428 232.270, 249.045 244.534, 298.132 302.500 C 312.480 319.442, 335.888 348.373, 338.608 352.525 C 340.364 355.204, 342 355.776, 342 353.711 C 342 353.003, 342.900 350.658, 344 348.500 C 345.100 346.342, 346 344.238, 346 343.823 C 346 342.794, 317.782 309.066, 300.659 289.630 C 261.143 244.774, 206.470 190.927, 161.500 152.574 C 153.250 145.538, 143.943 137.580, 140.817 134.890 C 129.461 125.118, 133.902 130.410, 152 148.217 M 773 152.010 C 745.787 156.698, 717.674 179.373, 704.439 207.309 C 695.492 226.192, 692.670 261.364, 700.491 256.500 C 701.778 255.699, 702.173 253.207, 702.471 244 C 703.245 220.047, 711.096 202.097, 728.801 183.798 C 744.774 167.290, 763.951 158.163, 783.970 157.543 C 794.131 157.228, 796.826 155.905, 794.070 152.584 C 792.625 150.843, 781.529 150.541, 773 152.010 M 447.500 194.383 C 436.859 199.520, 429.991 210, 437.266 210 C 438.664 210, 441.152 208.405, 443.492 206.008 C 447.149 202.263, 451.745 199.945, 458.313 198.534 C 460.669 198.028, 461.075 197.489, 460.813 195.215 C 460.372 191.392, 454.463 191.023, 447.500 194.383 M 583.627 199.239 C 579.730 202.181, 582.300 204.681, 589.775 205.218 C 598.180 205.821, 603.117 208.279, 609.211 214.895 C 614.238 220.352, 615.112 220.775, 616.899 218.622 C 619.568 215.405, 611.995 205.555, 603.563 201.274 C 597.385 198.138, 586.551 197.032, 583.627 199.239 M 444.104 259.690 C 436.773 268.584, 438.481 286.309, 447.164 291.438 C 457.178 297.353, 466.613 280.493, 461.461 265.890 C 457.817 255.562, 449.852 252.717, 444.104 259.690 M 580.182 269.030 C 568.123 276.383, 571.277 305, 584.146 305 C 596.965 305, 600.976 275.733, 589.117 268.728 C 585.380 266.520, 584.235 266.559, 580.182 269.030 M 551.500 371.665 C 548.200 374.731, 541.970 379.729, 537.654 382.770 L 529.809 388.300 533.019 389.650 C 543.741 394.158, 551.941 387.564, 556.524 370.750 C 557.236 368.137, 557.747 366.020, 557.659 366.045 C 557.572 366.070, 554.800 368.599, 551.500 371.665 M 660.500 393.125 C 627.059 415.223, 560.006 424.735, 517.603 413.395 C 510.396 411.468, 503.789 409.803, 502.921 409.696 C 501.288 409.493, 495.545 416.178, 476.885 440 C 461.690 459.398, 462.424 457.954, 465.094 463.169 C 469.159 471.107, 467.296 484.325, 461.914 485.733 C 459.449 486.377, 459.331 486.024, 464.144 492.459 C 469.020 498.979, 468.340 498.786, 472.765 494.901 C 476.293 491.804, 483.909 488, 486.583 488 C 487.654 488, 488.001 486.474, 488.004 481.750 C 488.014 466.815, 496.192 431.353, 500.198 428.878 C 501.782 427.898, 504 428.943, 504 430.669 C 504 431.469, 502.889 436.033, 501.530 440.812 C 499.068 449.473, 495.677 468.110, 494.491 479.500 L 493.866 485.500 512.683 485.497 C 529.562 485.494, 532.272 485.254, 539 483.166 C 569.160 473.806, 577.872 468.361, 606.303 441.107 C 622.655 425.432, 626.064 423.119, 627.458 426.750 C 628.256 428.831, 597.052 460.180, 585.500 468.903 C 576.179 475.941, 559.030 484.181, 545.500 488.122 C 539.450 489.884, 533.274 492.229, 531.775 493.333 C 529.125 495.284, 528.859 495.293, 522.132 493.670 C 517.977 492.667, 511.107 492, 504.933 492 L 494.651 492 496.865 494.357 C 501.082 498.845, 500.918 507.894, 496.504 514.399 L 494.060 518 496.504 521.601 C 504.467 533.335, 495.786 549.875, 480.568 551.961 L 476.637 552.500 481.650 557.644 C 494.893 571.232, 516.417 573.408, 538 563.340 C 542.916 561.048, 544.934 560.746, 557 560.500 C 608.970 559.443, 656.740 531.170, 677.146 489.392 C 680.965 481.572, 682.697 479, 684.142 479 C 687.246 479, 687.312 481.378, 684.411 488.629 C 666.680 532.951, 609.532 568, 554.996 568 C 546.787 568, 544.391 568.387, 539.871 570.441 C 536.917 571.784, 531.474 573.636, 527.776 574.556 C 519.936 576.508, 519.670 574.720, 530.273 591.359 C 538.796 604.733, 539.719 608.803, 535.398 613.939 C 531.692 618.343, 523.766 621.978, 517.842 621.990 L 513.183 622 502.908 604.250 C 497.257 594.487, 490.698 582.900, 488.333 578.500 C 483.432 569.381, 483.235 569.898, 485.521 585.872 C 493.320 640.362, 530.775 669, 594.244 669 C 603.914 669, 604 668.979, 604 666.565 C 604 663.167, 605.579 659.375, 607.264 658.729 C 610.868 657.346, 611.253 659.286, 611.518 680.139 C 611.793 701.814, 613.177 713.608, 617.651 732.402 C 620.624 744.887, 620.526 752.777, 617.281 762.250 C 616.197 765.413, 615.444 768, 615.608 768 C 615.772 768, 617.033 767.486, 618.411 766.858 C 624.335 764.159, 635.305 770.670, 638.166 778.583 L 639.362 781.890 642.858 778.820 C 656.418 766.914, 677 775.237, 677 792.626 C 677 794.279, 677.568 795, 678.872 795 C 683.308 795, 700.842 789.757, 707.640 786.398 C 724.255 778.189, 724.857 773.867, 717.591 715 C 717.286 712.525, 716.735 701.931, 716.368 691.457 C 715.529 667.498, 716.634 658.268, 723.113 635.137 C 735.893 589.515, 734.805 559.388, 718.686 512.500 C 715.661 503.700, 710.470 488.625, 707.150 479 C 703.831 469.375, 698.828 454.367, 696.033 445.649 C 688.305 421.544, 682.195 410.302, 670.062 397.868 L 663.500 391.143 660.500 393.125 M 386.640 416.294 C 390.892 422.457, 398.319 432.953, 403.145 439.619 L 411.919 451.738 417.023 452.228 C 422.779 452.781, 429.054 457.777, 431.138 463.466 C 431.749 465.135, 433.642 467.400, 435.343 468.500 C 441.222 472.301, 445.105 483.408, 443.086 490.648 C 442.511 492.713, 442.832 494.604, 444.251 497.500 C 447.251 503.624, 461.255 527, 461.923 527 C 462.248 527, 462.363 525.087, 462.178 522.750 C 461.993 520.413, 462.525 515.575, 463.361 512 C 464.870 505.544, 464.863 505.476, 462.390 502 C 438.163 467.951, 399.058 414.472, 397.953 413.877 C 397.154 413.447, 392.542 411.294, 387.705 409.092 L 378.911 405.088 386.640 416.294 M 483.428 410.540 C 458.813 418.726, 427.553 421.234, 410.753 416.373 C 409.752 416.083, 413.720 422.398, 420.060 431.184 C 428.144 442.386, 431.568 446.386, 432.806 446.077 C 440.376 444.187, 449.274 446.210, 456.515 451.468 C 458.423 452.854, 458.918 452.401, 465.904 442.861 C 469.959 437.323, 477.558 427.551, 482.790 421.146 C 494.026 407.389, 494.355 406.972, 493.872 407.095 C 493.668 407.148, 488.967 408.698, 483.428 410.540 M 436 452.474 C 436 454.505, 455.662 480.984, 456.992 480.744 C 459.437 480.304, 461.233 475.337, 460.504 471.027 C 458.919 461.640, 450.044 453.095, 440.975 452.224 C 438.239 451.961, 436 452.073, 436 452.474 M 410.500 460.523 C 396.358 468.113, 394.648 490.684, 406.973 507.086 C 414.758 517.448, 428.455 525.026, 435.105 522.652 C 445.117 519.079, 446.403 516.174, 441.900 507.304 C 438.244 500.100, 438.348 500.146, 433.352 503.536 C 425.036 509.179, 423.602 504.095, 431.424 496.699 C 436.668 491.740, 437 491.143, 437 486.681 C 437 477.673, 432.580 471.885, 426.807 473.333 C 425.520 473.657, 422.031 475.739, 419.053 477.960 C 412.849 482.589, 412.443 482.696, 411.031 480.059 C 409.958 478.053, 415.474 471.757, 421.580 468.018 C 428.504 463.779, 417.855 456.575, 410.500 460.523 M 480.500 497.871 C 476.311 500.473, 473.361 503.892, 471.534 508.264 L 469.973 512 473.828 512 C 475.948 512, 479.732 512.617, 482.237 513.371 C 486.496 514.652, 486.958 514.604, 489.364 512.621 C 494.836 508.110, 495.519 500.897, 490.750 497.989 C 486.701 495.520, 484.329 495.493, 480.500 497.871 M 470.613 518.679 C 466.438 519.831, 471.009 543.293, 475.762 545.099 C 482.884 547.807, 494.013 539.379, 493.996 531.290 C 493.981 524.044, 479.491 516.229, 470.613 518.679 M 446.500 523.549 L 443.500 525.990 447.750 525.995 C 452.236 526, 452.783 525.408, 450.750 522.745 C 449.612 521.254, 449.231 521.327, 446.500 523.549 M 495.540 577.104 C 501.853 589.413, 517.447 615, 518.636 615 C 522.831 615, 531 609.926, 531 607.321 C 531 606.568, 526.897 599.438, 521.883 591.476 C 513.583 578.297, 512.507 577, 509.883 577 C 508.297 577, 506.785 576.944, 506.523 576.875 C 506.261 576.807, 504.124 576.389, 501.773 575.946 C 499.423 575.504, 496.667 574.820, 495.649 574.425 C 493.864 573.734, 493.860 573.830, 495.540 577.104 M 794.070 595.250 C 791.328 596.703, 787.286 600.678, 782.655 606.473 C 773.344 618.124, 769.822 620.228, 760.500 619.707 C 752.603 619.266, 747.161 616.947, 741.036 611.414 C 736.792 607.579, 736.888 607.516, 735.500 615 C 735.143 616.925, 734.641 619.250, 734.384 620.167 C 734.037 621.408, 735.586 622.656, 740.437 625.044 C 746.557 628.056, 747.473 628.226, 755.380 627.811 C 763.376 627.391, 764.482 627.031, 777.152 620.722 C 792.381 613.139, 797.278 611.782, 798.844 614.709 C 800.260 617.354, 799.126 618.695, 793.959 620.491 C 788.652 622.335, 781 626.245, 781 627.112 C 781 628.986, 793.160 633, 798.838 633 C 809.214 633, 815.128 630.065, 825.165 619.932 C 836.843 608.144, 837.198 607.392, 831.763 605.965 C 829.418 605.350, 824.125 602.656, 820 599.979 C 807.938 592.152, 801.969 591.063, 794.070 595.250 M 493.228 634.750 C 493.114 636.263, 492.576 640.650, 492.033 644.500 C 489.642 661.443, 488.859 678.392, 489.169 706.500 L 489.500 736.500 485.301 743.750 L 481.101 751 483.801 751.004 C 488.637 751.010, 498 758.866, 498 762.917 C 498 763.675, 499.008 763.353, 500.631 762.076 C 512.610 752.653, 532 763.848, 532 780.187 C 532 783.111, 532.019 783.120, 536.750 782.494 C 553.419 780.290, 566.633 776.155, 571.413 771.646 C 577.313 766.083, 577.606 763.354, 575.542 733.169 C 573.729 706.638, 573.890 698.719, 576.639 679.404 L 577.222 675.308 570.270 674.662 C 553.752 673.126, 532.811 665.697, 519.129 656.517 C 511.628 651.484, 499.009 639.516, 496.213 634.783 C 494.147 631.286, 493.491 631.278, 493.228 634.750 M 499.182 708.708 C 499.919 712.531, 517.099 714.520, 517.793 710.862 C 518.038 709.569, 516.756 708.989, 511.720 708.112 C 502.245 706.462, 498.781 706.626, 499.182 708.708 M 637.738 717.596 C 634.939 720.394, 639.622 722.917, 649.090 723.711 C 657.884 724.448, 663 723.484, 663 721.088 C 663 719.492, 661.796 719.194, 653.250 718.672 C 647.888 718.345, 642.370 717.803, 640.988 717.468 C 639.606 717.132, 638.144 717.190, 637.738 717.596 M 162 733.334 C 150.455 734.411, 149.477 734.662, 149.197 736.623 C 148.766 739.647, 149.885 739.793, 165.500 738.762 C 200.872 736.425, 267.177 737.751, 306 741.573 C 372.514 748.120, 425 762.883, 425 775.045 C 425 776.022, 423.650 779.673, 422.001 783.160 C 417.197 793.314, 418.194 798.580, 426.224 805.467 C 438.687 816.158, 458.539 821.518, 509.902 828.062 C 562.356 834.745, 582.219 838.605, 604.987 846.539 C 674.754 870.853, 634.365 916.644, 527.500 934.392 C 485.406 941.383, 447.728 944.076, 392 944.079 C 320.840 944.083, 252.979 938.208, 187.668 926.391 C 168.814 922.979, 167 922.903, 167 925.524 C 167 927.863, 169.976 928.790, 189.124 932.408 C 232.649 940.633, 293.956 947.692, 341.500 949.952 C 384.346 951.988, 455.553 950.135, 494.500 945.969 C 596.647 935.043, 659.338 901.644, 644.046 866.298 C 638.238 852.873, 620.856 842.905, 588.634 834.518 C 569.329 829.493, 556.994 827.364, 519 822.499 C 461.076 815.082, 438.326 808.969, 428.965 798.307 C 425.267 794.096, 425.271 792.721, 428.999 784.840 C 433.457 775.417, 433.119 772.697, 426.719 766.498 C 411.187 751.455, 356.945 739.269, 280 733.536 C 263.714 732.323, 174.472 732.170, 162 733.334 M 114 739.545 C 94.599 743.600, 74.720 750.961, 73.320 754.608 C 72.174 757.595, 74.706 758.512, 78.740 756.571 C 89.627 751.333, 102.395 747.648, 127.815 742.407 C 129.529 742.053, 130.048 741.355, 129.815 739.715 C 129.390 736.724, 127.587 736.705, 114 739.545 M 822.143 738.890 C 819.908 740.307, 821.730 743.176, 828.155 748.356 C 831.468 751.027, 834.620 754.479, 835.159 756.026 C 837.188 761.847, 841.507 760.815, 840.687 754.705 C 839.409 745.173, 827.822 735.292, 822.143 738.890 M 480 759 C 475.629 763.371, 478.695 770.064, 487.340 775.022 C 493.874 778.769, 494.001 778.754, 493.994 774.250 C 493.976 762.141, 485.785 753.215, 480 759 M 505.353 765.870 C 502.224 767.834, 500.418 771.596, 499.807 777.424 C 499.419 781.120, 501.518 781.811, 515.750 782.677 L 526 783.301 525.978 780.401 C 525.894 769.320, 513.626 760.678, 505.353 765.870 M 219 770.982 C 211.339 771.449, 210.500 771.698, 210.500 773.500 C 210.500 775.433, 211.369 775.520, 236.500 776.107 C 250.800 776.440, 265.875 777.033, 270 777.423 C 302.037 780.456, 332.945 785.709, 350.349 791.080 C 374.437 798.514, 382.163 805.533, 380.542 818.511 C 378.382 835.797, 401.753 845.924, 463.500 854.456 C 473.950 855.900, 488.800 857.984, 496.500 859.088 C 530.394 863.946, 555 873.538, 555 881.893 C 555 893.486, 518.553 905.207, 467 910.194 C 444.674 912.353, 377.957 911.953, 354 909.517 C 327.948 906.867, 322.500 906.862, 322.500 909.488 C 322.500 911.842, 324.256 912.169, 349 914.430 C 424.087 921.291, 494.732 916.863, 535.113 902.766 C 564.696 892.439, 569.444 878.324, 547.242 866.713 C 534.289 859.939, 518.173 856.214, 479.500 851.052 C 426.675 844.002, 406.997 839.468, 394.368 831.439 C 386.886 826.682, 386 824.986, 386 815.417 C 386 803.833, 382.964 799.505, 370 792.612 C 345.135 779.392, 266.297 768.098, 219 770.982 M 616.495 774.414 C 612.981 777.928, 612.333 781.610, 614.660 784.837 C 616.632 787.572, 627.235 793.331, 632.398 794.472 L 635.297 795.113 634.661 789.031 C 633.255 775.581, 623.321 767.588, 616.495 774.414 M 134.055 779.657 C 131.722 782.623, 132.047 785.206, 135.184 788.638 C 137.819 791.521, 140.860 790.580, 142.635 786.331 C 145.628 779.168, 138.687 773.769, 134.055 779.657 M 648.893 781.373 C 645.362 783.825, 642.805 787.887, 641.503 793.114 C 640.653 796.525, 642.336 796.973, 656 796.973 C 669.077 796.973, 671 796.509, 671 793.351 C 671 782.192, 657.920 775.104, 648.893 781.373 M 131.712 798.766 C 125.784 805.316, 119.734 826.831, 121.842 833.866 C 125.307 845.433, 137.360 850.328, 147.126 844.135 C 156.002 838.506, 157.368 827.575, 151.186 811.654 C 146.631 799.924, 144.021 797, 138.104 797 C 134.792 797, 132.816 797.546, 131.712 798.766 M 89.500 831.562 C 80.843 834.621, 75.881 838.403, 72.903 844.210 C 64.614 860.373, 86.810 876.881, 124.317 882.450 C 136.305 884.230, 150.576 884.495, 151.527 882.956 C 153.058 880.479, 149.760 879.289, 139.650 878.671 C 112.850 877.031, 89.401 869.055, 80.042 858.395 C 72.670 849.999, 76.038 842.938, 90.458 836.561 C 94.570 834.742, 96.064 833.572, 95.827 832.354 C 95.382 830.056, 94.186 829.906, 89.500 831.562 M 179.667 833.667 C 177.675 835.658, 179.215 837.981, 183.244 839.066 C 195.513 842.369, 199.815 847.235, 197.558 855.250 C 196.374 859.454, 201.242 859.245, 202.993 855.017 C 206.160 847.370, 200.180 838.933, 188.890 835.120 C 182.166 832.849, 180.713 832.620, 179.667 833.667 M 229.667 838.667 C 228.119 840.215, 229.267 841.966, 233.427 844.404 C 254.983 857.037, 235.035 871.383, 186.695 878.014 C 178.577 879.128, 177.914 879.389, 178.195 881.361 C 178.560 883.919, 185.297 883.936, 200.236 881.417 C 242.707 874.254, 260.592 855.112, 238.125 840.864 C 233.687 838.050, 230.985 837.348, 229.667 838.667 M 104.302 856.656 C 103.396 859.016, 108.572 863.322, 115.372 865.866 C 132.144 872.142, 155.681 870.652, 169.717 862.426 C 172.376 860.867, 174 859.196, 174 858.017 C 174 854.832, 172.319 854.804, 166.793 857.896 C 158.030 862.799, 150.325 864.267, 136 863.765 C 123.189 863.315, 112.174 860.324, 108.929 856.414 C 107.347 854.509, 105.080 854.627, 104.302 856.656" stroke="none" fill="#1a1a1a" fill-rule="evenodd"/>
</svg>