<svg xmlns="http://www.w3.org/2000/svg" width="1024" height="1024" viewBox="0 0 1024 1024" version="1.1">
	<path d="M 494.686 90.990 C 454.344 94.892, 414.244 111.853, 382.525 138.431 L 373.550 145.951 369.096 140.725 C 341.520 108.369, 313.150 93.981, 277 94.019 C 256.161 94.040, 246.242 96.230, 227.500 104.947 C 165.090 133.974, 131.726 215.638, 154.485 283.660 C 160.033 300.243, 166.905 312.573, 178.090 326.012 C 185.800 335.277, 186.971 338.747, 188.030 355.455 C 189.789 383.211, 193.861 393.945, 207.964 408.015 C 233.471 433.461, 273.946 435.771, 307.616 413.702 L 315.732 408.383 318.578 412.882 C 322.388 418.903, 331.563 428.603, 339.786 435.301 C 346.348 440.647, 371.257 454.940, 377.738 457.079 C 379.532 457.671, 381 458.528, 381 458.984 C 381 460.410, 362.993 476.879, 351.586 485.884 C 345.583 490.623, 333.739 500.012, 325.264 506.750 C 316.790 513.487, 309.671 519, 309.443 519 C 308.741 519, 303.508 508.070, 298.476 496.097 C 295.840 489.826, 291.501 481.432, 288.834 477.444 C 278.603 462.146, 273.750 460.582, 261.705 468.697 C 247.905 477.994, 248.152 479.684, 269.307 520.697 L 277.662 536.893 271.279 543.197 C 267.768 546.663, 263.232 551.912, 261.198 554.860 C 259.164 557.807, 256.229 562.082, 254.675 564.360 C 245.624 577.623, 241.752 590.678, 241.631 608.333 L 241.543 621.165 205.521 620.833 C 177.697 620.576, 168.803 620.794, 166.439 621.793 C 160.224 624.419, 147.333 640.499, 107.354 695.500 C 79.542 733.762, 75.048 740.465, 74.869 743.949 C 73.926 762.364, 75.128 780.359, 77.655 785.686 C 80.334 791.331, 91.266 794.866, 106.358 794.967 L 111.216 795 110.867 874.750 C 110.519 954.201, 110.525 954.517, 112.633 959.092 C 118.559 971.958, 141.184 974.679, 153.359 963.989 C 160.460 957.755, 160.254 960.118, 160.114 886.500 C 160.046 850.200, 159.700 814.704, 159.347 807.620 L 158.704 794.740 190.602 795.381 C 208.146 795.734, 244.550 796.130, 271.500 796.261 L 320.500 796.500 320.594 816.500 C 320.688 836.708, 322.664 852.057, 326.623 863.331 C 327.776 866.614, 327.754 867.575, 326.471 870.056 C 321.918 878.862, 319.040 901.185, 321.408 909.332 C 325.655 923.940, 344.747 933.496, 372.124 934.715 C 419.146 936.809, 460.423 919.795, 468.024 895.186 C 470.592 886.872, 470.516 880.761, 467.586 860.333 C 466.258 851.075, 464.878 839.788, 464.517 835.250 L 463.863 827 492.308 827 L 520.753 827 520.788 847.750 C 520.820 866.681, 520.612 869.262, 518.409 877.198 C 510.764 904.739, 511.108 913.005, 520.307 922.732 C 532.862 936.006, 556.317 941.676, 588.006 939.096 C 626.327 935.977, 650.354 925.217, 659.219 907.204 L 662.500 900.539 662.647 871.019 C 662.748 850.752, 663.227 839.149, 664.177 834 L 665.561 826.500 671.530 826.337 C 674.814 826.248, 680.763 825.916, 684.750 825.600 L 692 825.026 692 873.145 C 692 927.924, 691.610 925.343, 700.693 930.666 C 707.397 934.595, 722.472 935.214, 728.941 931.826 C 738.957 926.581, 738.882 927.161, 738.949 854.914 L 739 799.328 800.667 798.664 C 834.583 798.299, 862.459 798.125, 862.612 798.278 C 862.765 798.432, 863.077 834.639, 863.305 878.740 C 863.682 951.643, 863.872 959.156, 865.396 961.481 C 873.828 974.351, 901.928 976.943, 908.998 965.503 C 913.005 959.021, 913.528 949.655, 914.504 867 C 914.806 841.425, 915.305 815.531, 915.612 809.457 L 916.171 798.415 924.336 797.158 C 942.831 794.312, 947.973 786.078, 947.992 759.270 C 948.001 747.061, 947.583 745.849, 936.692 726.562 C 908.556 676.730, 884.548 638.656, 874.647 628.165 C 867.722 620.825, 872.734 621.209, 801.738 622.579 C 759.441 623.395, 754.043 623.328, 754.563 622 C 758.909 610.895, 759.891 589.085, 756.712 574.268 C 749.167 539.095, 725.411 497.736, 699.288 474.291 C 688.380 464.501, 671.034 452.253, 661.156 447.367 L 652.800 443.233 657.150 440.220 C 661.696 437.071, 676.139 422.557, 679.597 417.664 L 681.601 414.828 688.285 422.296 C 725.052 463.377, 784.647 468.758, 819.056 434.103 C 829.497 423.587, 834.456 412.654, 838.071 392.178 C 840.976 375.725, 842.088 373.748, 859.337 354.366 C 893.366 316.129, 904.443 263.047, 890.017 207.348 C 877.804 160.196, 843.207 119.619, 807.365 110.408 C 762.956 98.996, 712.715 117.315, 683.377 155.617 C 678.173 162.412, 676 164.335, 676 162.146 C 676 160.973, 655.767 140.518, 649 134.849 C 624.535 114.355, 591.195 99.287, 556.155 92.889 C 543.899 90.652, 509.254 89.581, 494.686 90.990 M 491.194 101.584 C 412.222 111.146, 355.054 159.611, 333.549 235.225 C 327.011 258.218, 325.878 267.117, 324.984 302.500 C 324.292 329.875, 323.871 335.729, 322.068 343 C 316.766 364.387, 315.949 374.373, 318.511 386.471 C 322.279 404.257, 336.313 423.310, 354.988 435.992 C 364.045 442.143, 384.485 452, 388.182 452 C 391.009 452, 401.067 426.235, 410.434 395 C 413.440 384.974, 414.262 383.503, 416.399 384.323 C 421.203 386.166, 411.684 427.449, 402.015 446.706 C 393.866 462.936, 372.785 483.401, 341.168 505.773 C 315.723 523.779, 312.859 526.029, 313.191 527.754 C 313.449 529.094, 314.466 529.374, 318.240 529.142 C 328.564 528.507, 341.331 532.961, 349.150 539.926 C 355.129 545.252, 353.660 545.769, 342.978 542.100 C 334.200 539.084, 319.478 536.188, 318.401 537.265 C 318.115 537.552, 321.458 544.921, 325.830 553.643 L 333.779 569.500 340.026 572.449 C 357.883 580.877, 369.380 602.732, 360.714 611.776 C 357.989 614.621, 357.183 617, 358.945 617 C 360.145 617, 372.576 602.930, 376.797 596.795 C 383.719 586.734, 391.717 568.525, 393.543 558.669 L 394.253 554.838 389.044 557.478 C 382.963 560.559, 379.641 560.490, 379.183 557.273 C 378.737 554.134, 387.668 548.570, 419 532.467 C 452.299 515.352, 469.791 504.464, 487 490.139 C 496.214 482.469, 512.728 466.098, 515.132 462.250 C 516.920 459.389, 517.686 459, 521.531 459 C 526.978 459, 528.302 457.410, 537.349 440 C 545.251 424.792, 545.507 423.747, 541.500 423.023 C 537.476 422.295, 537.284 418.259, 541.169 416.079 C 546.297 413.201, 560.256 418.442, 564.121 424.696 C 568.174 431.253, 564.224 435.432, 558.097 431.069 L 555.190 428.999 552.832 433.250 C 551.536 435.587, 549.415 439.546, 548.119 442.047 C 540.455 456.843, 529.653 469, 524.172 469 C 522.440 469, 520.241 470.500, 517.210 473.750 L 512.779 478.500 519.106 478.803 C 532.612 479.451, 563.515 473.572, 584.026 466.453 C 641.911 446.364, 674.505 419.519, 685.919 382.534 C 688.602 373.838, 693 350.295, 693 344.625 C 693 339.755, 694.960 336.387, 697.276 337.276 C 701.157 338.765, 700.697 363.119, 696.479 379.500 C 694.318 387.889, 692.531 392.690, 686.388 406.598 C 686.121 407.201, 689.637 411.516, 694.202 416.186 C 730.391 453.215, 781.126 458.392, 811 428.104 C 821.712 417.244, 827.587 404.622, 831.019 385.095 C 833.311 372.053, 837.059 365.519, 851.522 349.350 C 874.845 323.278, 885.757 295.743, 887.525 258.500 C 888.709 233.576, 881.809 203.671, 869.089 178.593 C 842.607 126.381, 798.779 105.543, 748.263 121.146 C 719.340 130.079, 694.238 151.726, 672.720 186.288 C 668.746 192.672, 667.496 186.913, 670.949 178.124 L 672.700 173.666 668.422 167.583 C 666.070 164.237, 660.548 157.840, 656.152 153.367 C 617.954 114.499, 552.978 94.102, 491.194 101.584 M 260.500 104.033 C 226.540 111.175, 201.865 126.894, 184.379 152.527 C 164.874 181.120, 156.902 206.547, 156.940 240.042 C 156.974 270.584, 165.130 294.122, 183.978 318.077 C 195.334 332.509, 195.463 332.857, 197.025 353.298 C 198.994 379.079, 202.693 389.460, 214.242 401.617 C 226.088 414.089, 240.438 419.392, 262.500 419.451 C 273.074 419.479, 273.848 419.331, 282.500 415.623 C 299.945 408.145, 312.387 400.565, 311.425 398 C 306.776 385.604, 307.025 364.555, 312.051 345 C 315.223 332.660, 315.274 332.091, 316.020 300.500 C 316.436 282.900, 317.294 265.575, 317.925 262 C 325.570 218.731, 336.773 192.571, 361.286 160.743 L 367.261 152.986 362.853 148.243 C 360.429 145.634, 356.883 141.531, 354.973 139.124 C 349.991 132.845, 334.557 120.240, 325.539 115.085 C 305.540 103.651, 281.634 99.589, 260.500 104.033 M 260.500 146.520 C 245.985 149.712, 233.306 156.639, 236.370 159.703 C 236.709 160.042, 240.927 159.124, 245.743 157.663 C 277.381 148.067, 296.662 154.076, 326.088 182.701 C 337.318 193.625, 338.289 194.197, 340.044 190.918 C 341.533 188.135, 338.336 183.544, 326.500 171.468 C 305.417 149.956, 283.149 141.539, 260.500 146.520 M 771.500 161.635 C 770.400 161.857, 766.800 162.547, 763.500 163.169 C 737.819 168.007, 708.697 196.372, 694.184 230.683 C 687.197 247.202, 690.875 250.216, 698.836 234.495 C 725.839 181.167, 765.809 158.166, 809.857 170.605 C 815.824 172.290, 816.644 172.072, 815.110 169.206 C 812.216 163.799, 784.570 158.999, 771.500 161.635 M 388.355 233.067 C 374.783 235.662, 356.702 252.699, 361.681 258.200 C 364.293 261.086, 365.952 260.381, 372.409 253.642 C 381.783 243.858, 390.647 240.066, 399.189 242.184 C 404.522 243.507, 407.328 242.217, 406.798 238.688 C 406.112 234.117, 397.151 231.386, 388.355 233.067 M 577 234.116 C 572.222 235.569, 571 236.770, 571 240.015 C 571 243.628, 572.985 244.278, 578.232 242.383 C 588.975 238.506, 602.430 243.899, 611.018 255.524 C 617.866 264.794, 623.487 260.626, 617.626 250.624 C 609.922 237.479, 591.096 229.829, 577 234.116 M 385.948 319.863 C 375.370 325.457, 370.293 349.930, 377.462 360.763 C 381.493 366.855, 391.825 369.859, 398.417 366.856 C 403.629 364.481, 410 349.542, 410 339.697 C 410 335.516, 403.201 322.540, 400.068 320.743 C 395.615 318.188, 389.801 317.825, 385.948 319.863 M 570.634 330.073 C 562.529 336.449, 558.146 353.395, 561.597 365.016 C 564.228 373.873, 568.189 377, 576.781 377 C 585.127 377, 588.614 374.321, 591.981 365.322 C 597.939 349.396, 595.384 334.353, 585.886 329.441 C 581.660 327.256, 573.802 327.581, 570.634 330.073 M 453.222 351.470 C 445.381 353.918, 430 364.102, 430 366.845 C 430 369.015, 433.104 368.686, 437.210 366.082 C 452.363 356.472, 466.585 354.923, 484.305 360.953 C 491.923 363.545, 494.377 364.022, 495.305 363.091 C 496.809 361.582, 493.984 359.301, 485.500 355.171 C 475.055 350.086, 462.326 348.627, 453.222 351.470 M 440.606 387.832 C 431.115 390.128, 427.886 394.718, 437 392.957 C 443.815 391.640, 457.875 391.857, 463.546 393.368 C 469.891 395.057, 472.093 396.228, 479.292 401.744 C 484.508 405.740, 488 406.716, 488 404.176 C 488 402.588, 477.460 393.276, 473.208 391.106 C 463.514 386.161, 452.204 385.025, 440.606 387.832 M 419.755 426.903 C 408.871 428.480, 411.422 431.953, 423.500 432.002 C 440.858 432.073, 451.989 436.598, 467.708 449.972 C 471.717 453.383, 470.536 447.602, 466.250 442.833 C 455.764 431.166, 436.319 424.504, 419.755 426.903 M 641 451.619 C 627.134 461.609, 591.117 476.399, 568.016 481.590 C 555.055 484.503, 555 484.524, 555 486.721 C 555 492.773, 543.450 503.928, 531 509.901 C 523.780 513.366, 523.090 513.499, 512.500 513.482 C 500.229 513.462, 497.347 512.505, 490.869 506.303 L 487.238 502.826 479.369 508.194 C 457.436 523.158, 437.174 535.076, 418.809 543.820 L 404.497 550.632 402.517 563.066 C 399.978 579.006, 399.797 600.815, 402.160 606.095 C 403.728 609.600, 403.941 609.707, 410.634 610.335 C 451.050 614.126, 456.807 615.025, 472.142 619.946 L 480.783 622.719 490.142 620.809 C 496.833 619.444, 505.473 618.756, 520.459 618.394 L 541.418 617.888 544.197 612.694 C 547.800 605.961, 557.221 597.199, 565.192 593.169 C 577.004 587.197, 583.686 585.802, 603 585.275 L 620.500 584.798 629.250 580.754 C 639.237 576.138, 638.905 576.960, 635.899 564.329 C 631.684 546.621, 629.220 530.063, 630.625 528.896 C 633.466 526.538, 635.696 531.599, 642.077 554.884 C 647.286 573.891, 646.991 573, 648.065 573 C 648.577 573, 651.172 571.436, 653.833 569.525 C 671.670 556.710, 703.530 552.462, 713.748 561.537 L 716.500 563.980 701.500 563.406 C 680.543 562.603, 667.114 566.395, 653 577.104 C 649.975 579.399, 644.391 582.776, 640.590 584.609 C 635.233 587.192, 634.110 588.082, 635.590 588.569 C 636.641 588.915, 640.200 590.479, 643.500 592.045 C 667.966 603.655, 688.573 647.274, 675.978 660.793 C 673.410 663.550, 674.371 663.628, 684.491 661.484 C 742.167 649.268, 762.066 614.031, 742.837 558.168 C 727.626 513.978, 694.884 474.817, 655 453.110 C 646.254 448.350, 645.631 448.284, 641 451.619 M 266.464 476.373 C 258.646 481.638, 258.591 481.795, 262.387 488.053 C 266.223 494.376, 266.620 494.433, 276.336 490.073 L 283.068 487.053 280.903 482.777 C 275.398 471.899, 274.017 471.287, 266.464 476.373 M 499.147 491.582 L 493.146 497.918 497.988 500.898 C 511.816 509.406, 526.103 506.846, 540.076 493.356 C 548.176 485.537, 548.420 484.883, 542.750 486.200 C 537.237 487.480, 514.711 487.501, 509.324 486.231 L 505.148 485.246 499.147 491.582 M 283 496.999 C 281.075 498.052, 277.250 499.669, 274.500 500.592 C 271.750 501.515, 269.354 502.392, 269.176 502.542 C 268.859 502.808, 271.064 507.220, 272.807 509.805 C 273.927 511.467, 282.445 508.423, 287.529 504.545 L 290.941 501.943 289.285 498.472 C 287.369 494.454, 287.566 494.500, 283 496.999 M 285.916 513.837 L 278.333 517.500 291.613 544.500 C 298.917 559.350, 306.232 574.875, 307.868 579 C 310.428 585.456, 340.182 645.515, 341.446 646.780 C 341.696 647.029, 345.218 645.298, 349.274 642.934 L 356.649 638.634 347.792 619.067 C 337.748 596.876, 294.881 509.954, 294.046 510.087 C 293.746 510.134, 290.087 511.822, 285.916 513.837 M 274.630 552.082 C 248.380 580.435, 242.762 613.097, 259.724 638.751 C 269.650 653.763, 288.214 662.248, 295.971 655.318 L 299.241 652.395 293.046 650.673 C 284.739 648.363, 274.087 642.891, 269.527 638.591 C 265.532 634.822, 265.391 633.480, 268.756 631.246 C 270.746 629.924, 271.190 630.113, 274.833 633.829 C 286.297 645.525, 310.888 650.737, 329.274 645.368 C 333.062 644.262, 325.681 637.480, 314.192 631.509 C 301.433 624.879, 291.259 617.476, 287.062 611.770 C 281.174 603.763, 284.524 598.465, 290.930 605.652 C 292.894 607.854, 296.525 611.267, 299 613.236 C 303.400 616.735, 321.027 627.341, 321.516 626.782 C 321.860 626.388, 283.181 546.781, 282.138 545.738 C 281.671 545.271, 278.293 548.126, 274.630 552.082 M 339 580.440 C 339 580.737, 342.019 587.038, 345.708 594.440 C 350.943 604.945, 352.699 607.664, 353.708 606.827 C 356.677 604.363, 354.449 595.880, 349.039 589.050 C 346.199 585.463, 339 579.289, 339 580.440 M 386.972 594.250 C 385.276 597.688, 381.858 603.127, 379.377 606.338 L 374.865 612.176 384.683 611.644 C 390.082 611.351, 394.847 611.086, 395.270 611.056 C 395.694 611.025, 395.184 609.313, 394.136 607.250 C 391.741 602.535, 389.657 592.656, 390.498 590.007 C 391.771 585.995, 389.984 588.146, 386.972 594.250 M 594 594.149 C 578.240 595.728, 567.752 600.205, 558.867 609.144 C 549.641 618.427, 545.120 630.788, 547.281 640.826 L 548.287 645.500 550.163 641.107 C 555.908 627.656, 574.372 612.691, 575.824 620.309 C 576.053 621.507, 573.500 624.714, 568.262 629.809 C 562.208 635.697, 559.961 638.655, 558.677 642.428 C 554.455 654.835, 559.424 663.466, 571.507 664.713 L 577 665.280 577 662.300 C 577 654.150, 589.948 637.513, 595.767 638.186 C 600.384 638.720, 599.755 641.671, 593.703 647.873 C 578.668 663.279, 583.241 676.071, 601.213 668.886 C 604.121 667.724, 607.850 666.318, 609.500 665.762 C 611.150 665.206, 623.075 664.470, 636 664.126 C 657.244 663.560, 659.836 663.303, 662.997 661.446 C 671.279 656.580, 672.836 649.345, 668.434 636.176 C 657.533 603.569, 633.789 590.162, 594 594.149 M 393 619.570 C 371.231 621.341, 366.136 622.226, 363.878 624.630 L 361.618 627.035 363.912 632.268 C 367.197 639.762, 367.747 643.554, 368.145 661.483 C 368.463 675.811, 368.326 677.500, 366.824 677.792 C 365.834 677.985, 358.783 672.795, 349.582 665.101 L 334.016 652.083 329.812 653.566 C 327.500 654.382, 321.580 655.336, 316.657 655.685 C 307.905 656.306, 307.630 656.404, 304.329 660.058 C 302.472 662.113, 299.888 664.062, 298.587 664.389 C 297.069 664.770, 293.255 669.012, 287.933 676.241 C 283.374 682.434, 275.111 693.574, 269.572 700.997 C 264.032 708.420, 259.376 714.753, 259.225 715.071 C 259.074 715.389, 263.799 714.851, 269.725 713.877 C 290.415 710.475, 322.960 708.745, 356 709.293 C 389.873 709.853, 398.858 710.850, 421.256 716.530 C 428.922 718.474, 435.646 720.163, 436.197 720.282 C 436.748 720.402, 438.236 717.125, 439.503 713 C 444.347 697.233, 458.859 662.299, 469.156 641.619 C 472.410 635.085, 474.850 629.517, 474.580 629.246 C 473.584 628.251, 449.171 622.992, 438.500 621.475 C 427.678 619.936, 401.818 618.853, 393 619.570 M 509.500 628.159 C 500.150 628.521, 490.305 629.436, 487.622 630.193 L 482.745 631.568 475.941 647.034 C 468.912 663.013, 447.809 713.874, 446.508 717.976 C 445.830 720.112, 445.998 720.247, 448.636 719.676 C 461.839 716.818, 471.432 715.073, 476.500 714.608 C 479.800 714.305, 488.125 713.533, 495 712.891 C 508.168 711.662, 540.996 712.179, 564 713.977 C 587.033 715.777, 590.433 716.071, 605.500 717.563 C 619.996 718.998, 627.707 720.183, 631.153 721.505 C 632.525 722.032, 633.146 720.661, 634.864 713.319 C 637.630 701.498, 639.798 687.966, 640.231 679.822 L 640.586 673.145 637.306 672.530 C 631.965 671.528, 619.308 673.012, 606.808 676.106 C 592.354 679.684, 591.945 679.682, 584.160 675.999 C 580.013 674.037, 576.249 673, 573.276 673 C 563.179 673, 559.355 670.483, 546.630 655.461 C 540.057 647.702, 537.680 642.064, 537.580 634 L 537.500 627.500 532 627.500 C 528.975 627.500, 518.850 627.796, 509.500 628.159 M 171 628.832 C 165.925 630.188, 164.323 632.196, 126.989 684 C 119.657 694.175, 107.659 710.677, 100.329 720.672 C 86.066 740.118, 86.202 739.853, 88.566 743.460 C 91.739 748.302, 90.924 748.257, 188 749.054 C 238.325 749.467, 318.650 750.323, 366.500 750.957 C 500.910 752.736, 935 751.611, 935 749.483 C 935 748.181, 925.466 729.114, 917.257 714 C 904.481 690.475, 893.567 671.847, 875.416 642.585 C 867.513 629.844, 872.194 630.753, 818 631.441 C 792.425 631.765, 766.550 632.303, 760.500 632.636 L 749.500 633.241 747 637.241 C 735.085 656.303, 696.452 672.325, 659.500 673.531 L 649.500 673.857 649.241 678.678 C 648.513 692.210, 640.011 731.137, 636.117 738.770 C 632.323 746.207, 632.591 746.160, 611 743.191 C 582.737 739.305, 567.364 738.509, 521 738.532 C 475.852 738.554, 461.229 739.349, 446.072 742.606 C 438.569 744.218, 438.270 744.204, 426.975 741.695 C 380.133 731.290, 332.628 729.313, 268.371 735.096 C 250.700 736.686, 250.554 736.635, 247.917 727.954 C 245.101 718.681, 244.703 719.489, 266.219 690.746 C 275.999 677.681, 284 666.822, 284 666.614 C 284 666.407, 282.073 665.752, 279.717 665.159 C 269.383 662.557, 255.832 650.327, 248.941 637.385 L 245.275 630.500 223.388 629.858 C 211.349 629.505, 195.200 628.980, 187.500 628.691 C 179.800 628.401, 172.375 628.465, 171 628.832 M 351.778 647.957 L 346.056 651.759 352.943 657.879 C 356.731 661.246, 359.987 664, 360.178 664 C 360.370 664, 360.119 659.500, 359.621 654 C 359.122 648.500, 358.441 644.035, 358.107 644.078 C 357.773 644.120, 354.925 645.866, 351.778 647.957 M 306.767 717.189 C 289.896 718.668, 257.283 723.446, 256.067 724.616 C 254.166 726.445, 259.490 726.650, 273.500 725.287 C 284.565 724.210, 301.221 723.703, 327.500 723.645 C 371.811 723.545, 391.935 725.100, 417.308 730.584 C 426.002 732.463, 433.265 734, 433.448 734 C 433.631 734, 433.966 732.418, 434.192 730.485 C 434.577 727.182, 434.387 726.913, 431.051 726.023 C 395.786 716.617, 350.228 713.379, 306.767 717.189 M 482.500 721.483 C 469.494 723.130, 448.753 726.763, 445.676 727.933 C 442.400 729.178, 441.203 734.414, 444.374 733.627 C 446.929 732.993, 460.378 731.435, 475.690 729.999 C 497.843 727.921, 573.035 729.174, 596.500 732.012 C 600.900 732.544, 609.620 733.743, 615.877 734.677 C 626.907 736.322, 627.296 736.316, 628.627 734.496 C 632.497 729.202, 627.755 727.335, 603.258 724.507 C 569.197 720.574, 502.802 718.911, 482.500 721.483 M 82.671 759.808 C 83.043 776.515, 84.818 782.161, 90.233 783.857 C 92.223 784.480, 117.739 785.107, 155.500 785.460 C 189.600 785.778, 222.225 786.246, 228 786.498 C 278.345 788.699, 746.440 790.307, 870.361 788.705 C 921.291 788.047, 925.531 787.859, 929.540 786.086 C 936.016 783.221, 937.494 779.723, 937.321 767.673 C 937.158 756.297, 937.359 756.750, 933.019 757.994 C 927.548 759.564, 526.749 760.152, 387 758.797 C 347.125 758.410, 265.450 757.836, 205.500 757.522 C 82.085 756.874, 87.724 757.029, 84.717 754.202 L 82.500 752.117 82.671 759.808 M 119.274 874.919 C 119.552 938.916, 119.882 955.153, 120.930 956.416 C 124.882 961.177, 142.615 961.962, 147.671 957.600 C 151.621 954.192, 151.937 949.745, 151.403 905 C 151.124 881.625, 150.919 847.313, 150.948 828.750 L 151 795 134.964 795 L 118.927 795 119.274 874.919 M 328.931 797.088 C 327.215 807.289, 329.474 837.638, 333.386 856.943 L 335.704 868.387 333.508 876.443 C 329.753 890.215, 329.714 890.777, 332.536 890.238 C 338.110 889.172, 344.995 893.660, 349.162 901.075 L 351.347 904.962 356.539 900.052 C 371.872 885.550, 399.962 898.614, 399.994 920.262 L 400 924.024 404.250 923.375 C 416.457 921.511, 436.878 913.932, 445.290 908.145 C 460.961 897.363, 463.206 890.255, 459.075 864.500 C 454.412 835.432, 454.058 816.418, 457.946 803.926 L 459.790 798 431.145 797.999 C 415.390 797.998, 385.962 797.700, 365.750 797.336 C 345.538 796.973, 328.969 796.861, 328.931 797.088 M 467.070 803.250 C 466.480 806.138, 465.606 810.638, 465.128 813.250 L 464.258 818 492.904 818 L 521.549 818 523.291 809.540 C 524.249 804.886, 525.298 800.386, 525.623 799.540 C 526.147 798.175, 522.909 798, 497.178 798 L 468.142 798 467.070 803.250 M 533.531 799.250 C 531.454 805.648, 529.757 827.548, 529.599 850 C 529.478 867.216, 529.041 876.182, 528.255 877.600 C 527.614 878.755, 526.203 882.900, 525.119 886.812 L 523.148 893.924 529.346 893.818 C 533.226 893.752, 536.686 894.303, 538.597 895.292 C 542.203 897.156, 548.513 903.890, 549.465 906.889 C 550.359 909.706, 551.216 909.552, 553.756 906.116 C 558.588 899.580, 570.254 897.164, 580.357 900.606 C 589.663 903.777, 601 917.156, 601 924.967 C 601 928.650, 600.268 928.642, 614.143 925.103 C 627.564 921.679, 636.387 917.832, 644.197 911.998 C 653.123 905.331, 653.545 903.910, 653.252 881.500 C 653.116 871.050, 653.449 857.550, 653.993 851.500 C 654.976 840.574, 655.177 839.022, 657.105 827.500 C 658.503 819.145, 661.882 807.186, 664.054 802.911 L 665.877 799.321 632.188 798.662 C 575.615 797.556, 534.001 797.803, 533.531 799.250 M 872 877.691 L 872.500 957.382 877 959.688 C 885.396 963.990, 899.649 963.999, 902.453 959.703 C 904.035 957.280, 904.417 945.368, 905.457 866 C 905.771 842.075, 906.268 816.987, 906.562 810.250 L 907.097 798 889.298 798 L 871.500 798 872 877.691 M 674.146 802.250 C 673.435 804.038, 671.740 808.379, 670.380 811.898 L 667.906 818.296 677.730 817.755 C 692.263 816.954, 692.636 816.728, 705.861 800.750 C 707.231 799.096, 706.436 799, 691.374 799 L 675.438 799 674.146 802.250 M 716.278 803.250 C 714.594 805.587, 710.448 810.515, 707.065 814.200 L 700.915 820.899 700.924 870.084 C 700.932 914.777, 701.086 919.438, 702.616 921.128 C 706.473 925.390, 721.762 926.548, 726.365 922.928 C 730.178 919.928, 730.230 919.062, 730.372 856.039 L 730.500 799.001 724.920 799.001 C 719.501 799, 719.250 799.123, 716.278 803.250 M 330.250 896.662 C 328.546 897.350, 328.663 904.447, 330.435 907.875 C 333.183 913.189, 343.775 921, 348.233 921 C 348.827 921, 348.959 919.501, 348.562 917.250 C 345.928 902.292, 338.103 893.494, 330.250 896.662 M 525.359 900.059 C 519.315 901.871, 520.994 912.843, 528.150 918.301 C 532.100 921.313, 546.846 928.488, 547.580 927.754 C 548.718 926.616, 545.852 914.196, 543.271 909.082 C 539.121 900.857, 532.995 897.771, 525.359 900.059 M 365.256 902.645 C 360.143 905.165, 357.565 910.275, 357.530 917.956 L 357.500 924.463 361.500 925.174 C 366.626 926.085, 382.770 926.196, 387.002 925.350 L 390.253 924.699 389.639 918.825 C 388.896 911.709, 387.238 908.294, 382.516 904.148 C 378.335 900.477, 370.957 899.834, 365.256 902.645 M 563.556 908.267 C 558.172 911.317, 556.070 915.297, 555.757 923.038 L 555.500 929.416 559 930.233 C 562.475 931.044, 586.031 930.309, 588.639 929.308 C 591.094 928.366, 590.348 919.270, 587.404 914.246 C 582.802 906.394, 571.753 903.624, 563.556 908.267" stroke="none" fill="#1a1a1a" fill-rule="evenodd"/>
</svg>