<svg xmlns="http://www.w3.org/2000/svg" width="1024" height="1024" viewBox="0 0 1024 1024" version="1.1">
	<path d="M 480 31.433 C 457.311 33.844, 435.065 38.258, 414 44.529 C 299.625 78.579, 208.394 181.497, 176.459 312.500 C 167.507 349.224, 164.534 372.580, 164.622 405.500 C 164.736 448.061, 168.433 470.384, 183.164 517.463 C 186.034 526.637, 186.867 530.544, 186.013 530.829 C 185.349 531.050, 183.226 532.618, 181.295 534.314 C 178.138 537.086, 177.831 537.804, 178.245 541.448 C 178.715 545.580, 190.789 571.593, 195.247 578.079 L 197.708 581.658 193.436 583.925 C 185.391 588.192, 182.603 600.585, 187.460 610.486 C 188.813 613.244, 190.395 617.373, 190.975 619.663 C 191.555 621.952, 193.604 626.002, 195.527 628.663 C 197.450 631.323, 199.880 635.360, 200.927 637.634 C 204.286 644.932, 213.069 650, 222.359 650 C 227.443 650, 227.826 650.172, 228.470 652.750 C 233.095 671.282, 262.109 669.578, 267.218 650.473 C 268.303 646.417, 268.532 646.212, 271.449 646.685 C 276.519 647.508, 299.472 645.157, 312.925 642.437 C 333.030 638.371, 352.340 630.957, 364.704 622.555 C 366.729 621.179, 368.570 620.237, 368.794 620.461 C 369.019 620.685, 367.377 629.111, 365.146 639.184 C 360.157 661.709, 356.904 680.597, 356.674 688.369 C 356.501 694.209, 356.525 694.260, 361.343 698.506 L 366.187 702.773 364.593 710.136 C 355.746 750.995, 354.722 796.679, 362.116 820.647 C 367.410 837.811, 379.941 855.246, 394.351 865.500 C 396.880 867.300, 397.053 867.781, 396.081 870.315 C 394.530 874.355, 394.749 885.793, 396.490 891.655 C 400.388 904.781, 411.853 912.323, 429.915 913.642 C 467.124 916.358, 504.895 878.105, 496.552 846.152 C 495.641 842.661, 492.119 833.436, 488.727 825.652 C 483.677 814.065, 482.577 810.575, 482.655 806.399 C 482.755 801.017, 486.659 786.329, 488.250 785.346 C 489.430 784.616, 507.278 786.936, 509.087 788.054 C 510.067 788.660, 510.621 793.161, 511.137 804.737 C 512.940 845.130, 518.340 863.698, 534.547 885.242 L 540 892.490 540 904.051 C 540 927.565, 546.645 936.666, 567.756 942.065 C 595.753 949.226, 624.165 936.409, 636.789 910.926 C 645.616 893.106, 645.376 879.606, 635.724 851 C 625.291 820.082, 625.256 818.618, 633.855 774.500 C 640.028 742.825, 642.334 728.603, 643.570 714.569 C 644.254 706.812, 644.364 706.552, 648.634 702.665 L 653 698.692 653 691.589 C 653 684.829, 647.804 651.903, 644.466 637.510 C 643.606 633.800, 643.134 630.533, 643.418 630.249 C 643.702 629.965, 646.986 631.538, 650.717 633.743 C 675.397 648.336, 707.951 657.974, 732.632 657.994 L 739.764 658 739.818 661.926 C 739.949 671.374, 749.729 680, 760.310 680 C 765.227 680, 771.739 676.240, 774.981 671.528 C 777.861 667.341, 778.006 667.270, 782.078 668.014 C 789.338 669.342, 800.412 664.140, 803.803 657.809 C 804.736 656.066, 807.183 652.763, 809.241 650.469 C 811.298 648.174, 813.953 644.092, 815.141 641.398 C 816.330 638.704, 818.136 635.910, 819.157 635.189 C 827.190 629.513, 827.367 613.138, 819.482 605.231 L 815.224 600.961 819.971 593.231 C 822.582 588.979, 826.656 582.350, 829.025 578.500 C 839.807 560.979, 840.634 556.077, 833.515 551.877 C 829.159 549.306, 829.098 550.305, 834.575 534.610 C 858.978 464.675, 865.281 407.898, 855.899 342.500 C 841.366 241.194, 789.082 154.284, 706 93.325 C 663.432 62.092, 607.154 40, 551 32.480 C 534.282 30.241, 496.466 29.684, 480 31.433 M 482.672 39.059 C 442.044 42.223, 404.032 53.193, 361.500 74.027 C 299.561 104.368, 237.279 173.326, 206.177 246 C 196.233 269.234, 182.591 313.223, 177.490 338.500 C 166.524 392.840, 172.663 470.802, 191.954 522.168 C 194.081 527.831, 194.086 527.836, 197.285 526.918 C 206.521 524.269, 208.115 525.675, 218.917 546 L 226.623 560.500 232.130 560.661 C 235.572 560.762, 240.049 561.842, 244.069 563.543 C 263.438 571.737, 316.978 562.281, 314.522 551.099 C 314.192 549.598, 314.493 547.781, 315.221 546.883 C 319.165 542.018, 362.658 509.150, 376.012 500.944 C 388.074 493.531, 396.776 484.484, 393.650 482.606 C 382.964 476.183, 375.081 470.219, 367.814 463.059 L 359.129 454.500 353.814 458.904 C 329.512 479.044, 291.646 478.567, 269.492 457.843 C 256.458 445.651, 249.534 430.917, 245.549 406.893 C 241.057 379.808, 238.071 371.996, 224.549 351.941 C 197.385 311.656, 203.409 271.645, 242.252 234.354 C 264.505 212.990, 297.710 206.142, 334.187 215.396 C 351.786 219.860, 364.589 226.684, 375.116 237.211 L 380.057 242.153 384.733 236.826 C 420.208 196.420, 463.126 177.885, 517.973 179.284 C 564.552 180.472, 597.738 195.430, 635.750 232.369 C 639.188 235.709, 642 237.977, 642 237.407 C 642 236.187, 657.513 224.395, 664.029 220.663 C 670.621 216.887, 682.279 212.247, 691.476 209.738 C 704.008 206.319, 730.620 206.611, 744.448 210.318 C 771.213 217.494, 789.319 233.570, 803.080 262.378 C 817.718 293.020, 814.029 325.362, 792.372 356.270 C 781.687 371.519, 777.380 383.524, 773.098 410 C 769.590 431.693, 763.972 443.968, 751.949 456.210 C 729.807 478.754, 692.808 479.990, 665.027 459.113 C 658.363 454.105, 659.328 454.065, 653.958 459.570 C 647.424 466.268, 637.916 473.003, 625.750 479.551 C 619.838 482.733, 615.007 485.598, 615.016 485.918 C 615.025 486.238, 620.070 489.875, 626.228 494 C 653.016 511.945, 693 544.675, 693 548.657 C 693 549.450, 692.269 551.513, 691.376 553.240 C 689.306 557.242, 690.661 558.505, 703.500 564.538 C 726.415 575.307, 753.526 579.810, 768.767 575.379 C 772.617 574.260, 776.633 573.906, 781.750 574.234 L 789.158 574.710 791.704 570.605 C 802.020 553.970, 807.669 545.712, 809.343 544.816 C 811.273 543.783, 817.965 544.147, 821.151 545.458 C 825.592 547.286, 844.460 482.675, 849.002 450.088 C 856.351 397.363, 853.039 343.874, 839.491 296.500 C 825.254 246.713, 799.102 197.871, 765.659 158.610 C 720.423 105.505, 662.039 67.606, 596.652 48.903 C 566.212 40.196, 519.678 36.177, 482.672 39.059 M 494 186.632 C 440.203 193.350, 394.163 224.926, 373.616 269.197 C 362.130 293.943, 360.019 304.348, 358.945 341.500 C 358.216 366.728, 357.877 370.540, 355.524 380 C 345.650 419.691, 356.300 449.364, 387.878 470.145 C 396.545 475.848, 397.439 475.986, 399.531 471.940 C 403.020 465.192, 416.323 453, 420.196 453 C 422.736 453, 429.238 457.877, 434.704 463.882 L 438.907 468.500 444.364 463.123 C 453.052 454.561, 455.082 449.907, 456.105 436.206 C 457.396 418.903, 459.788 413.553, 468.520 408.435 C 479.690 401.889, 497.579 401.233, 503.916 407.137 C 508.830 411.715, 504.766 413.955, 495.790 411.617 C 479.425 407.355, 465.440 415.653, 464.262 430.324 L 463.750 436.709 468.751 437.373 C 477.881 438.584, 490.002 445.947, 488.653 449.463 C 487.803 451.678, 485.481 451.366, 480.326 448.345 C 475.740 445.657, 465.339 442.672, 463.825 443.608 C 463.371 443.889, 463 445.170, 463 446.456 C 463 451.624, 455.646 463.289, 446.127 473.221 C 434.936 484.898, 432.276 485.687, 432.850 477.161 C 433.052 474.157, 432.283 472.951, 426.448 467.123 L 419.816 460.500 413.915 466.769 C 407.728 473.342, 402.993 481.351, 403.009 485.217 C 403.040 492.621, 415.641 505.837, 428.500 511.949 C 441.212 517.991, 447.665 519.425, 462 519.394 C 488.135 519.337, 501.950 511.060, 544.716 469.840 C 562.740 452.467, 572.857 441.334, 572.968 438.750 C 572.985 438.337, 571.639 438, 569.975 438 C 567.604 438, 566.727 437.413, 565.916 435.280 C 562.708 426.841, 582.112 429.576, 587.404 438.309 C 588.860 440.711, 585.595 443.276, 582.019 442.537 C 579.859 442.091, 579.005 442.763, 576.026 447.258 C 574.115 450.141, 562.801 462.346, 550.884 474.379 L 529.215 496.258 538.858 495.567 C 573.870 493.058, 610.559 481.660, 634.500 465.853 C 657.521 450.654, 668.646 430.120, 668.282 403.500 C 668.184 396.350, 668.089 376.325, 668.070 359 C 668.018 310.665, 665.373 296.045, 651.698 268.500 C 644.394 253.790, 640.010 247.879, 626.065 233.945 C 602.989 210.888, 575.200 195.608, 544.199 188.931 C 534.720 186.890, 503.416 185.456, 494 186.632 M 703.500 215.109 C 693.935 216.487, 680.161 220.755, 671.491 225.026 C 660.689 230.348, 646.785 241.315, 647.776 243.732 C 648.174 244.704, 650.616 249.332, 653.203 254.015 C 657.799 262.337, 668 285.095, 668 287.027 C 668 288.883, 669.237 287.953, 679.006 278.750 C 694.052 264.576, 708.115 257.492, 723.601 256.287 C 731.427 255.677, 737.163 257.272, 731.486 258.478 C 718.948 261.142, 714.279 262.675, 705.500 267.012 C 693.652 272.864, 687.714 277.586, 678.026 288.864 C 672.121 295.738, 670.950 297.664, 671.453 299.668 C 673.991 309.782, 675.049 323.136, 674.847 342.500 C 674.726 354.050, 674.688 367.325, 674.763 372 C 675.618 425.666, 675.874 423.162, 667.800 439.967 L 663.732 448.435 667.839 452.079 C 680.502 463.316, 701.147 468.783, 718.927 465.606 C 744.911 460.963, 760.478 442.254, 765.601 409.510 C 769.932 381.826, 773.712 371.426, 786.272 352.645 C 797.660 335.614, 803.475 320.076, 804.665 303.500 C 806.820 273.466, 785.582 236.374, 759 223.749 C 741.374 215.377, 722.273 212.403, 703.500 215.109 M 286 220.548 C 268.135 223.807, 257.186 229.623, 243.909 242.905 C 225.952 260.869, 217.829 275.958, 216.042 294.668 C 214.081 315.197, 219.034 331.474, 233.793 353 C 244.785 369.031, 247.954 377.742, 252.897 405.515 C 257.976 434.044, 266.040 448.001, 283.500 458.482 C 293.535 464.506, 301.258 466.329, 314.333 465.758 C 330.120 465.070, 340.587 461.105, 351.468 451.690 L 355.436 448.257 351.751 440.378 C 343.099 421.880, 342.234 405.193, 348.610 379.753 C 350.922 370.527, 351.257 366.696, 351.956 341.500 C 352.588 318.737, 353.141 311.558, 354.913 303.114 L 357.093 292.728 354.797 290.253 C 343.775 278.374, 324.581 269.742, 303.322 267.103 C 290.899 265.560, 291.771 263.554, 304.771 263.771 C 324.659 264.104, 347.646 272.216, 356.536 282.040 C 359.139 284.916, 359.533 284.609, 362.047 277.750 C 363.306 274.313, 366.756 266.630, 369.713 260.678 C 375.982 248.059, 375.972 247.947, 368.033 240.782 C 349.015 223.618, 315.068 215.245, 286 220.548 M 580.729 299.604 C 580.328 300.005, 580 301.141, 580 302.128 C 580 303.903, 582.011 304.713, 590.956 306.543 C 593.310 307.024, 596.099 309.005, 599.700 312.752 C 604.136 317.370, 605.230 318.054, 606.494 317.005 C 607.322 316.318, 608 315.125, 608 314.355 C 608 311.998, 599.738 303.794, 595.500 301.944 C 590.949 299.957, 581.822 298.511, 580.729 299.604 M 425.500 302.353 C 418.960 305.405, 412.769 312.173, 413.190 315.810 C 413.663 319.891, 416.332 319.608, 419.272 315.166 C 422.738 309.928, 427.789 306.981, 434.482 306.290 C 438.728 305.851, 440 305.338, 440 304.060 C 440 299.476, 433.345 298.692, 425.500 302.353 M 579.407 359.596 C 572.608 362.897, 568.973 376.405, 572.440 385.483 C 577.910 399.805, 592.316 395.177, 594.544 378.381 C 596.223 365.725, 587.943 355.451, 579.407 359.596 M 429.158 363.473 C 422.228 371.366, 422.389 384.589, 429.503 391.703 C 439.261 401.461, 451.686 385.036, 446.824 368.807 C 444.141 359.853, 434.810 357.035, 429.158 363.473 M 494.344 376.980 C 488.625 378.196, 480.249 381.907, 479.640 383.495 C 479.364 384.216, 479.722 385.605, 480.437 386.583 C 481.671 388.271, 482.006 388.241, 487.118 385.996 C 494.918 382.570, 509.412 382.005, 516.835 384.837 C 522.665 387.061, 525 386.798, 525 383.916 C 525 378.702, 506.222 374.453, 494.344 376.980 M 590.557 493.521 C 574.035 498.220, 574.108 498.176, 568.500 506.631 C 553.748 528.872, 529.831 538.771, 501 534.569 C 482.698 531.902, 477.488 529.712, 481.602 526.417 C 483.454 524.933, 483.452 524.908, 481.500 525.384 C 451.552 532.684, 419.461 523.243, 404.360 502.690 C 401.858 499.286, 399.674 496.358, 399.507 496.185 C 398.902 495.557, 387.304 501.924, 378.490 507.721 C 360.926 519.275, 326 546.232, 326 548.235 C 326 548.796, 329.733 552.910, 334.297 557.377 C 348.646 571.426, 364.680 593.448, 369.032 605.087 L 371.398 611.412 373.703 601.956 C 379.437 578.436, 384.823 561.816, 392.726 543.250 C 395.966 535.638, 396.460 535, 399.119 535 C 403.468 535, 402.931 538.511, 396.114 554.648 C 392.877 562.312, 388.834 572.933, 387.130 578.252 C 380.427 599.179, 368.753 651.989, 365.904 674.272 L 363.865 690.227 366.182 692.695 C 374.101 701.129, 415.738 714.207, 450 719.022 C 489.271 724.540, 543.210 724.066, 576.500 717.910 C 610.708 711.584, 637.096 702.848, 643.912 695.593 L 645.998 693.373 644.011 677.333 C 638.204 630.467, 627.387 581.213, 616.528 552.182 C 611.120 537.726, 610.793 534.725, 614.678 535.184 C 616.703 535.423, 617.918 536.597, 619.661 540 C 623.244 546.992, 631.531 573.162, 634.545 587 C 636.043 593.875, 637.422 599.677, 637.610 599.893 C 638.326 600.715, 641.396 597.279, 651.273 584.598 C 656.885 577.394, 666.319 566.500, 672.238 560.389 C 678.157 554.278, 683 549.013, 683 548.690 C 683 546.149, 635.338 508.948, 616.279 496.614 C 604.445 488.956, 605.963 489.139, 590.557 493.521 M 558 501.153 C 555.525 501.572, 546.035 502.320, 536.911 502.814 L 520.322 503.712 511.411 510.248 C 502.368 516.881, 492.944 522.119, 487.500 523.540 C 484.879 524.223, 485.637 524.550, 493.500 526.124 C 521.218 531.671, 544.842 524.139, 560.084 504.894 C 563.808 500.191, 563.797 500.171, 558 501.153 M 195.099 535.481 C 184.543 539.400, 184.439 539.702, 189.530 551.500 C 194.032 561.931, 202.254 577.526, 204.475 579.846 C 205.542 580.961, 206.825 579.798, 211.927 573.096 C 215.316 568.643, 218.520 565, 219.045 565 C 220.992 565, 219.841 562.121, 213.435 550.963 C 209.824 544.673, 206.173 538.059, 205.321 536.264 C 203.496 532.418, 203.374 532.409, 195.099 535.481 M 806.594 559.241 C 803.896 563.783, 800.314 570.033, 798.634 573.129 L 795.580 578.757 798.857 582.490 C 801.824 585.869, 804.988 591.640, 806.401 596.250 C 807.108 598.558, 808.713 598.480, 809.468 596.102 C 809.799 595.058, 813.244 589.321, 817.123 583.352 C 826.071 569.584, 830.256 561.382, 829.519 559.060 C 828.917 557.163, 819.318 552.366, 814.375 551.491 C 811.676 551.013, 811.200 551.488, 806.594 559.241 M 314 563.113 C 300.756 570.082, 283.403 574, 265.781 574 L 255.824 574 256.485 578.250 C 256.849 580.587, 257.369 583.288, 257.640 584.250 C 258.377 586.858, 256.487 586.365, 255.238 583.623 C 248.131 568.024, 225.811 564.874, 217.318 578.271 C 212.003 586.654, 209.471 597.043, 211.836 600.768 C 212.977 602.566, 218.855 604.068, 221.915 603.343 C 225.928 602.393, 227.800 600.200, 229.455 594.508 C 231.734 586.668, 236.979 584.040, 237.015 590.719 C 237.034 594.146, 237.534 594.881, 242.264 598.432 C 245.216 600.649, 247.409 604.125, 252.433 614.548 C 259.984 630.216, 261.480 632, 267.059 632 C 269.510 632, 270.873 632.396, 270.500 633 C 270.160 633.550, 268.971 634, 267.858 634 C 266.685 634, 266.007 634.526, 266.246 635.250 C 269.243 644.338, 325.769 635.215, 352.060 621.399 C 363.949 615.152, 364.518 612.969, 357.763 599.500 C 354.616 593.225, 338.006 570.566, 331.190 563.250 C 326.195 557.888, 323.962 557.871, 314 563.113 M 676.110 564.750 C 664.258 578.819, 643.171 606.603, 641.165 610.793 C 639.727 613.796, 639.729 614.323, 641.188 616.793 C 648.271 628.785, 691.300 646.212, 722 649.523 C 739.833 651.446, 740.348 651.420, 743.923 648.411 C 747.793 645.155, 747.772 644.537, 743.750 643.247 L 740.500 642.204 743.500 642.088 C 749.946 641.840, 750.935 640.971, 759.410 628.122 C 764.647 620.182, 768.896 614.830, 770.867 613.693 C 773.153 612.376, 774.001 611.158, 774.004 609.193 C 774.008 605.810, 777.473 600, 779.485 600 C 780.692 600, 781 601.407, 781 606.927 C 781 615.378, 783.293 618, 790.680 618 C 799.457 618, 802.344 610.255, 798.451 597.148 C 793.111 579.165, 770.229 575.658, 759.037 591.107 C 755.652 595.781, 754.727 595.224, 756.437 589.542 L 757.724 585.266 748.612 584.580 C 725.873 582.869, 704.108 575.578, 688.321 564.382 C 680.702 558.979, 680.978 558.971, 676.110 564.750 M 195.736 590.250 C 191.954 593.122, 190.865 601.376, 193.790 604.990 C 195.397 606.973, 196.039 607.105, 200.040 606.275 C 203.161 605.627, 204.377 604.921, 204.089 603.924 C 203.863 603.141, 203.474 599.462, 203.226 595.750 C 202.788 589.197, 202.695 589, 200.078 589 C 198.595 589, 196.642 589.563, 195.736 590.250 M 231.051 607.758 L 228.881 609.515 230.918 614.008 C 232.039 616.478, 232.966 620.127, 232.978 622.115 C 232.991 624.277, 233.867 626.833, 235.157 628.473 C 238.443 632.649, 238.869 640.333, 236.029 644.175 C 233.819 647.164, 233.813 647.259, 235.579 651.175 C 239.098 658.980, 244.127 660.505, 252.465 656.297 C 262.562 651.203, 262.399 648.885, 250.404 627 C 238.043 604.445, 236.740 603.151, 231.051 607.758 M 807.641 608.508 C 809.010 612.074, 806.820 617.507, 802.320 621.708 L 797.813 625.916 801.156 627.954 C 804.425 629.947, 810.224 630.619, 813.455 629.379 C 817.835 627.698, 819.199 619.271, 816.080 613.157 C 813.773 608.635, 806.059 604.385, 807.641 608.508 M 208 611.421 C 206.625 612.162, 203.571 613.087, 201.213 613.478 C 196.494 614.260, 196.333 615.197, 199.855 621.395 C 202.886 626.731, 206.401 628.500, 213.968 628.500 C 225.274 628.500, 227.565 624.344, 221.397 615.023 C 219.347 611.926, 218.093 611, 215.949 611 C 214.417 611, 212.564 610.792, 211.832 610.537 C 211.099 610.283, 209.375 610.681, 208 611.421 M 773.820 622.586 C 772.354 623.354, 767.652 629.049, 763.371 635.241 C 744.388 662.703, 744.870 661.500, 750.513 667.310 C 754.781 671.706, 760.868 673.837, 764.467 672.197 C 767.569 670.783, 772.223 661.965, 770.939 659.935 C 769.377 657.466, 769.896 649.684, 771.835 646.500 C 772.839 644.850, 773.999 642.151, 774.412 640.502 C 774.825 638.854, 776.982 634.839, 779.206 631.580 C 783.072 625.917, 783.168 625.594, 781.375 624.255 C 777.592 621.428, 776.494 621.185, 773.820 622.586 M 223.500 634.566 C 220.314 636.101, 216.706 636.979, 213.556 636.987 L 208.611 637 212.056 639.577 C 215.079 641.840, 216.265 642.108, 221.762 641.779 C 229.343 641.325, 231.524 639.664, 230.524 635.111 C 229.723 631.461, 229.915 631.476, 223.500 634.566 M 787.141 633.750 C 778.451 641.059, 783.248 648, 796.990 648 L 803.044 648 806.061 643.250 L 809.078 638.500 804.070 637.863 C 801.315 637.513, 797.055 636.050, 794.603 634.613 C 789.309 631.511, 789.743 631.561, 787.141 633.750 M 778 652.566 C 778 659.514, 784.151 662.383, 791.710 658.960 L 796.500 656.792 790.554 654.815 C 787.283 653.728, 783.696 652.200, 782.581 651.419 C 779.558 649.302, 778 649.692, 778 652.566 M 369.129 725.750 C 360.329 781.136, 361.518 805.890, 374.140 830.153 C 382.289 845.816, 403.078 865.925, 418.500 873.062 C 426.648 876.833, 419.839 876.849, 410.869 873.080 C 406.887 871.407, 403.391 870.276, 403.100 870.567 C 401.400 872.266, 402.691 888.739, 404.877 893.250 C 407.094 897.825, 410 899.646, 410 896.460 C 410 893.931, 413.810 887.247, 416.209 885.566 C 419.071 883.562, 424.256 883.564, 428.137 885.571 C 433.868 888.534, 436.362 898.682, 433.313 906.628 C 432.964 907.537, 433.536 908, 435.010 908 C 437.151 908, 437.207 907.760, 436.537 901.505 C 435.424 891.104, 438.612 885.148, 447.218 881.553 C 455.483 878.101, 461.952 881.389, 465.037 890.612 L 466.661 895.465 472.841 889.570 C 480.293 882.462, 484.780 875.849, 488.493 866.500 C 491.162 859.779, 491.227 859.204, 490.124 852.082 C 489.043 845.108, 487.572 840.995, 478.649 820 C 473.852 808.714, 474.014 801.196, 479.337 788.019 L 481.700 782.166 473.003 779.056 C 462.762 775.392, 460.434 773.917, 461.306 771.645 C 462.250 769.184, 466.087 769.605, 478.080 773.482 C 490.539 777.509, 503.638 779.999, 512.381 780.002 L 518.500 780.004 518.546 801.252 C 518.599 825.691, 519.804 836.026, 524.131 849.149 C 532.391 874.195, 549.694 895.116, 566.327 900.168 C 573.125 902.233, 573.460 902.242, 581.238 900.570 C 590.082 898.670, 590.841 898.859, 589.160 902.548 C 585.460 910.668, 567.560 910.609, 553.678 902.430 C 550.476 900.543, 547.664 899, 547.428 899 C 546.389 899, 547.220 914.869, 548.437 918.282 C 550.087 922.906, 554.188 929.087, 555.355 928.708 C 555.825 928.555, 556.817 926.663, 557.560 924.503 C 559.553 918.706, 565.556 915.015, 573 915.009 C 579.984 915.004, 586.570 923.722, 585.781 931.926 L 585.341 936.500 589.574 936.157 L 593.807 935.814 592.903 932.663 C 591.162 926.590, 597.224 913.091, 603.108 909.942 C 610.096 906.202, 617.272 907.037, 622.687 912.219 L 625.873 915.269 628.977 910.385 C 633.898 902.639, 635.502 896.010, 635.483 883.500 C 635.466 872.755, 635.341 872.152, 630.108 857.500 C 618.107 823.895, 617.980 816.715, 628.458 764.500 C 632.151 746.092, 634.105 733.285, 636.353 712.750 C 636.518 711.237, 636.502 710, 636.316 710 C 636.130 710, 630.705 711.818, 624.260 714.041 C 593.059 724.799, 566.202 728.771, 518.323 729.706 C 463.288 730.781, 415.588 723.725, 381.930 709.530 C 377.327 707.588, 373.270 706, 372.914 706 C 372.558 706, 370.855 714.888, 369.129 725.750 M 450.333 887.097 C 444.931 888.661, 442 893.193, 442 899.983 C 442 906.550, 441.510 906.373, 451.237 903.330 C 459.546 900.730, 462.606 893.515, 457.545 888.455 C 454.859 885.768, 454.899 885.775, 450.333 887.097 M 422 890.706 C 419.619 891.577, 415.942 895.247, 414.312 898.380 C 412.266 902.315, 414.608 904.604, 422.342 906.226 C 429.433 907.713, 430.262 906.908, 429.698 899.084 C 429.401 894.959, 428.768 893.231, 427.043 891.834 C 424.652 889.897, 424.379 889.836, 422 890.706 M 607.388 914.980 C 603.990 916.353, 601.281 920.620, 600.558 925.738 C 600.189 928.357, 599.656 931.288, 599.376 932.250 C 598.657 934.715, 600.522 934.461, 607.543 931.140 C 613.745 928.206, 619 923.163, 619 920.146 C 619 915.106, 613.325 912.581, 607.388 914.980 M 564.299 922.503 C 560.894 924.888, 559.259 930.985, 561.571 932.676 C 564.252 934.636, 569.825 935.988, 575.250 935.994 C 579.807 936, 580 935.884, 580 933.149 C 580 923.661, 571.182 917.682, 564.299 922.503 M 472.500 959.600 C 432.406 960.816, 401.896 962.996, 375.500 966.533 C 359.807 968.635, 359 968.857, 359 971.079 C 359 973.459, 360.648 973.505, 373.983 971.502 C 408.059 966.384, 452.492 964.574, 526 965.308 C 591.871 965.966, 615.113 967.192, 645.392 971.603 C 655.592 973.089, 659 972.826, 659 970.551 C 659 963.967, 546.441 957.357, 472.500 959.600" stroke="none" fill="#1a1a1a" fill-rule="evenodd"/>
</svg>