<svg xmlns="http://www.w3.org/2000/svg" width="1024" height="1024" viewBox="0 0 1024 1024" version="1.1">
	<path d="M 247.735 60.924 C 213.724 68.344, 186.995 85.832, 169.071 112.394 C 144.391 148.968, 142.959 191.590, 164.812 239.095 C 166.987 243.823, 170.666 253.498, 172.987 260.595 C 177.861 275.494, 178.552 277, 180.516 277 C 186.283 277, 181.772 255.500, 170.457 229.065 C 161.051 207.090, 159.499 199.779, 159.508 177.500 C 159.518 154.645, 161.017 147.620, 169.532 130.500 C 187.323 94.729, 224.338 71.371, 266.504 69.307 C 298.242 67.753, 333.499 83.642, 357.013 110.094 L 362.874 116.688 355.632 124.094 C 347.314 132.600, 339.510 142.745, 331.713 155.189 L 326.268 163.878 323.639 157.189 C 306.722 114.144, 257.627 91.855, 219.500 109.909 C 212.921 113.024, 209 116.258, 209 118.570 C 209 121.407, 211.891 121.144, 221.064 117.475 C 242.762 108.793, 258.132 109.208, 278.500 119.026 C 295.811 127.371, 309.540 142.631, 317.665 162.561 L 321.170 171.156 315.982 182.635 C 301.057 215.655, 297.322 234.674, 296.563 281.500 C 296.216 302.933, 295.973 305.488, 292.991 319 C 290.543 330.089, 289.760 336.146, 289.659 344.750 L 289.528 356 284.948 356 C 273.296 356, 258.457 350.727, 250.500 343.759 C 248.246 341.786, 244.645 336.765, 242.250 332.260 C 238.213 324.664, 238 323.837, 238 315.789 C 238 299.680, 229.073 290.891, 215.792 293.924 C 212.352 294.709, 211.793 294.493, 208.049 290.932 C 196.266 279.723, 172.756 288.792, 163.004 308.308 C 157.567 319.187, 159.345 328.153, 169.602 341.596 C 176.292 350.365, 180.632 358.371, 185.947 371.748 C 201.625 411.214, 244.288 443.368, 294.316 453.424 C 301.365 454.841, 308.201 456, 309.507 456 C 313.087 456, 313.232 457.251, 310.379 463.482 C 304.847 475.568, 303.451 489.233, 306.534 501.130 L 308.068 507.050 304.588 514.383 L 301.108 521.716 292.056 522.233 C 262.956 523.892, 237.950 554.647, 238.015 588.697 C 238.045 604.422, 242.385 615.450, 252.782 626.220 L 259.287 632.957 251.509 649.728 C 243.115 667.828, 241.836 672.848, 244.369 677.746 C 246.253 681.391, 250.560 685, 253.025 685 C 254.451 685, 253.603 687.293, 248.491 697.250 C 233.376 726.698, 230.224 742.289, 228.019 798.500 C 226.387 840.094, 223.686 858.961, 216.957 875.766 C 202.698 911.376, 164.661 933.637, 119.331 932.901 C 106.369 932.691, 104.313 933.259, 105.420 936.747 C 107.413 943.027, 134.824 943.382, 157.115 937.416 C 196.851 926.782, 225.390 895.535, 232.391 855 C 234.597 842.223, 235.894 825.458, 237.022 795.131 C 238.135 765.188, 239.168 752.946, 241.552 741.404 C 244.441 727.415, 252.636 706.913, 259.805 695.740 C 263.297 690.296, 263.665 690.022, 266.500 690.740 C 271.842 692.093, 279.520 691.464, 283.108 689.380 C 285.387 688.056, 289.750 682.606, 296.405 672.768 L 306.310 658.128 311.905 660.939 C 328.284 669.168, 350.603 666.558, 366.311 654.576 L 369.716 651.979 370.334 675.240 C 370.712 689.502, 371.575 701.981, 372.563 707.500 C 376.072 727.095, 376.091 726.914, 366.663 764 C 354.540 811.689, 354.073 814.713, 351.525 862.063 C 349.980 890.763, 348.856 898.440, 345.121 905.798 C 344.088 907.834, 341.625 912.632, 339.648 916.459 C 332.994 929.347, 332.356 940.022, 337.929 945.231 C 339.618 946.810, 341 948.675, 341 949.376 C 341 950.078, 342.012 951.579, 343.250 952.713 C 351.882 960.622, 377.262 965.990, 406 965.986 C 447.491 965.980, 468.498 958.903, 476.720 942.161 C 480.140 935.197, 480.378 924.794, 477.711 898.876 C 474.639 869.028, 475.337 849.923, 480.712 816.657 L 483.434 799.814 487.313 800.434 C 497.450 802.055, 513.109 803.165, 518.662 802.656 L 524.825 802.092 525.485 807.296 C 529.057 835.477, 532.261 851.977, 540.475 884.500 C 547.867 913.767, 548.051 916.594, 543.487 931 C 537.883 948.693, 539.006 956.635, 547.974 962.740 C 559.921 970.871, 609.162 974.248, 635.157 968.718 C 674.021 960.452, 686.632 951.405, 686.339 932 C 686.210 923.437, 684.289 914.795, 676.584 888.111 C 670.257 866.201, 665.760 848.232, 663.417 835.500 C 661.593 825.588, 660.119 782.472, 661.627 783.135 C 662.107 783.345, 666.183 785.417, 670.685 787.737 C 695.201 800.376, 727.741 801.042, 750.090 789.364 C 756.333 786.102, 756.936 785.977, 761.520 787.004 C 777.075 790.490, 793.271 777.687, 799.388 757.068 C 804.149 741.023, 798.929 734, 782.242 734 C 758.849 734, 741.593 747.047, 741.524 764.786 L 741.500 771.071 736.500 772.596 C 714.568 779.286, 693.428 769.471, 667.894 740.744 L 661 732.987 661 722.465 C 661 709.924, 658.738 686.928, 655.937 671 C 653.881 659.305, 646.309 623.968, 645.290 621.314 C 644.983 620.513, 647.829 621.756, 651.616 624.077 C 680.672 641.888, 718.670 647.374, 753.831 638.834 L 762.162 636.811 772.831 640.339 C 809.032 652.311, 830.499 647.233, 831.827 626.383 C 832.227 620.091, 832.275 620, 835.149 620 C 845.878 620, 853.469 607.602, 850.134 595.524 C 849.106 591.802, 849.252 591.281, 852.729 586.232 C 856.897 580.180, 858.250 571.316, 856.030 564.592 C 852.896 555.094, 838.264 544.502, 826.616 543.300 C 821.867 542.810, 821.014 542.438, 821.584 541.105 C 826.634 529.296, 825.867 521.446, 819.023 514.917 C 810.843 507.114, 802.932 507.497, 787 516.469 C 764.751 528.998, 745.199 531.816, 721 525.981 C 702.777 521.587, 693.516 515.522, 670.500 492.909 C 664.450 486.965, 656.754 479.941, 653.398 477.301 C 650.042 474.660, 642.842 468.875, 637.398 464.445 C 631.954 460.014, 626.471 455.685, 625.213 454.825 C 622.947 453.274, 623.012 453.199, 632.657 446.380 C 644.539 437.979, 658.391 424.981, 665.152 415.889 L 670.189 409.115 675.325 416.808 C 708.447 466.421, 770.749 480.653, 811.457 447.905 C 826.869 435.508, 836.086 419.914, 843.025 394.500 C 849.933 369.203, 856.188 356.846, 872.681 335.911 C 900.867 300.138, 912.953 271.296, 916.185 232.095 C 922.116 160.165, 885.324 101.798, 820.692 80.598 C 799.668 73.703, 770.436 72.167, 751 76.936 C 729.881 82.118, 710.545 90.070, 695.500 99.760 C 686.658 105.455, 669.105 119.836, 665.172 124.607 L 662.181 128.236 656.341 122.319 C 590.565 55.687, 454.457 48.086, 374.961 106.607 L 368.713 111.207 366.139 107.854 C 353.642 91.571, 333.188 75.937, 313.950 67.964 C 294.188 59.774, 266.502 56.830, 247.735 60.924 M 488 77.572 C 486.075 77.789, 479.775 78.479, 474 79.106 C 431.274 83.740, 380.331 108.532, 356.854 136.116 C 349.841 144.357, 333.260 169.394, 328.454 179 C 313.440 209.013, 307.288 236.420, 306.008 279 C 305.339 301.227, 304.772 308.322, 303.050 316 C 300.404 327.798, 298.043 343.926, 298.018 350.364 L 298 355.227 302.706 354.521 C 325.080 351.166, 347.897 339.132, 365.706 321.294 C 372.028 314.962, 376.883 311.077, 381.206 308.894 C 406.092 296.323, 430.943 297.016, 446.094 310.704 C 453.732 317.605, 449.563 321.556, 441.076 315.459 C 429.892 307.424, 418.269 305.421, 403.344 308.955 C 391.863 311.673, 381.636 316.582, 376.669 321.757 L 372.839 325.749 378.502 326.457 C 390.367 327.939, 402.391 333.535, 410.264 341.238 C 416.524 347.363, 418.724 352.133, 416.372 354.486 C 414.181 356.676, 414.125 356.646, 406.470 349.186 C 398.831 341.741, 391.893 337.894, 381.824 335.520 C 371.183 333.012, 366.379 333.449, 361.603 337.360 C 359.346 339.208, 354.259 342.816, 350.298 345.377 C 340.990 351.397, 340.994 351.379, 348.211 353.564 C 361.347 357.541, 377.331 374.777, 373.874 381.236 C 372.043 384.657, 369.408 383.172, 364.674 376.053 C 357.839 365.774, 346.720 358.098, 336.238 356.422 C 332.963 355.898, 329.897 356.463, 322.044 359.035 L 312.027 362.316 316.366 367.408 C 323.922 376.273, 328.642 388.787, 325.584 391.844 C 323.035 394.393, 320.938 392.270, 317.008 383.160 C 315.079 378.687, 311.590 372.584, 309.256 369.597 L 305.013 364.167 291.756 364.687 C 275.750 365.314, 267.047 363.770, 256 358.344 C 247.352 354.095, 237.468 344.898, 234.435 338.276 C 233.371 335.952, 232.247 334.040, 231.938 334.026 C 230.810 333.974, 226.621 340.489, 224.948 344.897 C 222.793 350.574, 221.500 351.044, 220.057 346.674 C 218.818 342.920, 219.034 342.074, 224.874 327.804 C 231.800 310.879, 229.597 301.710, 219.033 303.494 C 215.781 304.044, 214.998 304.594, 214.990 306.338 C 214.955 314.173, 207.545 322.382, 195.230 328.230 C 182.961 334.056, 179.478 328.745, 191 321.780 C 205.124 313.242, 209.211 305.625, 203.250 298.954 C 195.655 290.454, 179.325 297.297, 171.489 312.265 C 167.234 320.391, 168.184 324.149, 177.989 337.985 C 182.328 344.106, 186.867 351.227, 188.077 353.808 C 204.099 387.987, 208.714 395.215, 222.569 407.820 C 246.711 429.785, 278.740 443.371, 311.600 445.585 L 321.700 446.265 328.766 440.333 C 348.481 423.779, 373.221 420.372, 396.631 430.987 C 404.459 434.536, 407.965 434.694, 418.590 431.978 C 440.027 426.497, 456.651 417.189, 472.866 401.587 C 481.917 392.878, 493.911 377.804, 492.234 377.245 C 486.320 375.273, 485.855 370, 491.595 370 C 496.347 370, 520.139 379.454, 522.969 382.467 C 525.167 384.807, 525.199 385.047, 523.634 387.436 C 521.792 390.247, 521.169 390.146, 512.184 385.593 C 506.666 382.797, 506.005 382.992, 505.988 387.417 C 505.972 391.363, 501.405 418.788, 499.562 426 C 495.369 442.412, 481.925 458.899, 469.354 463.048 C 458.530 466.620, 442.496 457.473, 434.222 443.007 C 432.804 440.528, 431.566 438.380, 431.471 438.232 C 431.376 438.085, 428.644 438.608, 425.399 439.394 C 422.155 440.179, 418.246 441.100, 416.714 441.439 L 413.928 442.056 417.813 446.778 C 419.949 449.375, 423.310 454.443, 425.280 458.040 C 429.198 465.192, 438.308 472.697, 450.500 478.816 C 469.325 488.265, 491.846 485.883, 511 472.417 C 516.365 468.645, 516.691 468.556, 524.296 468.798 C 542.793 469.387, 569.242 465.884, 584.322 460.849 C 638.419 442.789, 672.197 405.658, 683.131 352.235 C 684.959 343.300, 685.357 337.755, 685.505 319.157 C 685.683 296.805, 685.948 295.084, 689.227 295.015 C 691.328 294.971, 693.022 300.602, 694.097 311.202 C 696.672 336.606, 690.219 371.804, 678.878 394.210 C 676.299 399.306, 676.435 400.184, 681.035 408.059 C 698.025 437.151, 726.418 455.203, 757.500 456.674 C 779.346 457.709, 795.927 451.244, 811.585 435.585 C 822.963 424.208, 827.856 414.837, 834.594 391.521 C 842.487 364.207, 848.173 353.006, 866.164 329.329 C 895.259 291.039, 905.369 264.825, 906.706 224.216 C 908.119 181.278, 896.650 148.623, 871.319 123.462 C 844.500 96.825, 813.717 84, 776.595 84 C 737.784 84, 687.320 109.485, 662 141.872 C 656.172 149.326, 653.808 150.915, 651.452 148.960 C 649.226 147.112, 649.685 144.942, 653.499 139.278 L 656.997 134.083 647.249 125.377 C 621.005 101.939, 588.671 87.643, 544.500 79.949 C 533.012 77.948, 497.808 76.467, 488 77.572 M 772.393 127.021 C 746.997 131.604, 719.015 148.353, 700.364 170.137 C 683.690 189.611, 674.626 210, 682.643 210 C 683.411 210, 686.106 206.738, 688.630 202.750 C 701.190 182.911, 709.781 172.597, 722.420 162.180 C 763.522 128.305, 806.368 125.324, 839.535 154.030 C 844.146 158.021, 850 159.533, 850 156.733 C 850 152.495, 835.191 139.970, 823.068 133.955 C 810.095 127.518, 787.084 124.370, 772.393 127.021 M 345.692 192.972 C 335.688 196.881, 327.636 206.105, 328.209 213 C 328.692 218.808, 331.681 218.171, 337.993 210.914 C 345.148 202.689, 350.803 200.023, 361.128 200.010 C 369.155 199.999, 371.506 198.863, 370.824 195.323 C 369.952 190.798, 354.868 189.387, 345.692 192.972 M 566 192.169 C 561.395 193.500, 560 194.754, 560 197.563 C 560 200.720, 560.985 201.146, 570.523 202.112 C 582.113 203.287, 588.898 206.085, 595.918 212.585 C 606.563 222.440, 612.472 216.545, 602.681 205.837 C 593.485 195.781, 576.022 189.274, 566 192.169 M 770.699 236.750 C 770.468 237.162, 770.858 242.900, 771.564 249.500 C 772.271 256.100, 773.558 268.125, 774.425 276.222 C 775.291 284.318, 776 295.534, 776 301.146 L 776 311.349 773.750 309.264 C 768.753 304.633, 758.723 304.060, 751.064 307.968 C 733.277 317.042, 738.338 341.690, 757.579 339.704 C 778.943 337.499, 786.223 325.459, 784.610 295 C 783.905 281.691, 781.298 255.754, 780.349 252.614 C 779.599 250.132, 781.817 250.679, 797.250 256.779 L 809 261.424 809 266.630 C 809 279.745, 815.501 276.591, 816.745 262.873 C 817.786 251.392, 815.822 249.719, 793.500 243.078 C 785.800 240.787, 778.306 238.257, 776.846 237.456 C 773.952 235.868, 771.358 235.570, 770.699 236.750 M 351.379 267.437 C 339.005 272.822, 335.763 300.376, 346.509 308.829 C 350.866 312.256, 356.149 311.764, 360.878 307.492 C 376.915 293.003, 369.031 259.754, 351.379 267.437 M 548.411 280.891 C 536.551 288.123, 533.976 312.211, 543.992 322.227 C 553.335 331.570, 565.884 322.972, 568.997 305.094 C 572.183 286.803, 560.753 273.365, 548.411 280.891 M 471.435 420.890 C 461.130 425.571, 454.540 434.893, 454.516 444.824 C 454.482 458.355, 465.883 458.486, 478.978 445.103 C 487.516 436.377, 493.629 422.278, 489.897 419.915 C 487.363 418.311, 475.766 418.923, 471.435 420.890 M 356.412 435.348 C 352.441 436.467, 352.357 436.579, 353.470 439.269 L 354.616 442.038 357.058 439.392 C 358.401 437.936, 360.850 436.145, 362.500 435.412 C 365.376 434.134, 365.396 434.081, 363 434.137 C 361.625 434.170, 358.660 434.715, 356.412 435.348 M 375.197 436.662 C 378.669 440.316, 381 445.944, 381 450.676 L 381 454.416 385.250 450.266 C 390.261 445.373, 394.190 443.673, 398.424 444.567 C 404.842 445.921, 409.939 453.747, 409.978 462.307 C 410 467.073, 410.019 467.100, 412.223 465.557 C 413.445 464.701, 415.245 464, 416.223 464 C 418.421 464, 418.429 463.617, 416.306 460.215 C 407.726 446.468, 393.068 436.770, 377.500 434.540 L 372.500 433.824 375.197 436.662 M 340.946 441.859 C 338.501 443.432, 335.409 445.907, 334.076 447.359 L 331.651 450 336.686 450 C 339.455 450, 343.809 450.286, 346.360 450.636 L 351 451.272 351 446.336 C 351 438.363, 348.272 437.148, 340.946 441.859 M 359.266 442.597 C 356.279 444.688, 353.708 447.400, 353.124 449.075 C 352.148 451.872, 352.240 451.986, 356.310 453.028 C 362.130 454.519, 367.750 456.733, 372.750 459.504 L 377 461.859 377 456.555 C 377 440.833, 369.838 435.196, 359.266 442.597 M 390.500 451.868 C 388.850 452.891, 385.359 455.630, 382.743 457.955 L 377.986 462.183 386.489 467.521 C 391.165 470.457, 396.982 474.490, 399.414 476.483 L 403.836 480.107 404.961 474.686 C 408.278 458.710, 400.150 445.884, 390.500 451.868 M 327.740 459.165 C 322.928 460.231, 320.793 462.243, 318.321 468.035 C 317.279 470.476, 317.357 470.557, 320.425 470.199 C 330.006 469.080, 355.611 476.265, 368.500 483.687 C 387.413 494.580, 406.835 514.262, 409.549 525.287 L 410.235 528.074 413.238 523.991 C 421.237 513.113, 409.287 493.353, 384.804 476.977 C 361.991 461.717, 342.986 455.785, 327.740 459.165 M 605.500 462.080 C 585.800 471.707, 555.287 477.996, 528.265 477.999 C 521.978 478, 520.392 478.393, 516.157 480.998 C 489.009 497.703, 459.535 497.881, 437 481.478 L 432.500 478.203 432.439 490.851 C 432.370 505.106, 430.391 512.250, 422.980 525 C 414.314 539.910, 395.886 550.855, 379.233 550.983 C 377.445 550.996, 375.210 553.660, 368.642 563.606 L 360.318 576.212 362.684 582.069 C 365.822 589.838, 366.029 600.063, 363.162 605.683 C 358.476 614.868, 348.619 620.258, 340.591 618.025 C 338.341 617.399, 336.002 616.800, 335.394 616.693 C 334.445 616.527, 312.675 648.078, 311.341 651.553 C 311.043 652.331, 312.851 653.486, 316.182 654.647 C 329.794 659.390, 355.474 654.409, 367.394 644.713 C 370.144 642.476, 370.329 641.817, 371.133 631.430 C 372.370 615.464, 375.687 599.556, 384.420 567.714 C 388.331 553.451, 388.520 553, 390.580 553 C 395.258 553, 394.707 560.997, 388 590.500 C 380.133 625.105, 378.349 642.275, 379.324 674 C 380.236 703.659, 383.561 723.837, 390.148 739.689 C 395.654 752.939, 391.805 759.446, 385.644 747.303 C 382.228 740.569, 381 739.582, 381 743.569 C 381 746.512, 377.610 760.252, 371.888 780.500 C 364.772 805.678, 361.982 826.202, 360.030 867.715 C 358.726 895.439, 357.467 901.497, 349.966 916.168 C 343.380 929.048, 342.948 930.334, 346.250 927.241 C 357.067 917.108, 377.971 927.296, 378.006 942.718 C 378.013 945.439, 378.102 945.396, 382.090 940.743 C 386.935 935.091, 392.943 931.352, 398.647 930.440 C 409.989 928.627, 421.920 939.780, 421.978 952.250 L 422 957 425.869 957 C 431.717 957, 446.358 954.236, 452.133 952.042 C 467.403 946.239, 471.527 938.633, 469.874 919.322 C 464.951 861.791, 465.541 842.712, 473.396 805.500 C 474.209 801.650, 474.565 798.243, 474.187 797.928 C 473.809 797.614, 469.675 796.121, 465 794.610 C 445.243 788.226, 427 777.105, 427 771.445 C 427 767.813, 428.498 767.710, 433.810 770.978 C 457.191 785.364, 496.017 795.282, 522.593 793.656 L 532.881 793.026 533.390 797.263 C 533.670 799.593, 534.413 805.775, 535.040 811 C 537.083 828.009, 540.963 846.938, 548.155 874.974 C 556.723 908.377, 557.517 915.687, 553.778 926.795 C 551.734 932.868, 551.589 933.982, 552.911 933.443 C 558.325 931.237, 560.526 930.852, 564.402 931.433 C 570.405 932.333, 577.078 936.814, 579.500 941.572 C 580.600 943.732, 581.600 945.675, 581.722 945.889 C 581.845 946.103, 583.970 944.025, 586.446 941.271 C 592.067 935.019, 595.298 933.636, 602.986 934.193 C 610.127 934.709, 615.744 938.250, 620.607 945.299 L 623.714 949.803 625.926 944.465 C 633.867 925.307, 658.026 924.261, 663.673 942.831 C 664.621 945.949, 665.520 948.675, 665.671 948.889 C 666.483 950.041, 673.484 943.145, 675.087 939.616 C 678.758 931.531, 677.313 921.088, 668.512 892.124 C 653.218 841.787, 652.026 832.641, 652.010 765.450 C 651.996 706.279, 650.701 691.788, 640.889 641 C 635.468 612.940, 635.603 613.271, 625.173 602.557 C 610.709 587.698, 603.620 576.448, 605.962 572.071 C 607.639 568.938, 608.157 569.312, 615.209 578.756 C 645.673 619.552, 692.911 639.568, 739.493 631.421 C 750.152 629.556, 749.955 629.677, 746.069 627.382 C 742.703 625.393, 742.128 623.548, 744.582 622.607 C 747.553 621.467, 749.793 622.003, 763.142 627.054 C 797.936 640.220, 815.443 641.339, 822.021 630.818 C 826.687 623.355, 822.207 615.959, 810.375 611.596 C 802.895 608.838, 801.924 608.103, 791 596.937 C 777.855 583.500, 774.294 581.009, 768.219 581.004 C 762.877 580.999, 761.475 578.654, 765.072 575.741 C 771.049 570.901, 780.476 575.435, 796.572 590.895 C 807.556 601.445, 809.517 602.886, 818.147 606.750 C 831.648 612.794, 838.693 612.372, 841.629 605.345 C 845.769 595.437, 836.738 585.414, 821.500 583.005 C 813.997 581.818, 811.543 580.354, 812.570 577.678 C 814.125 573.627, 831.219 575.957, 839.831 581.393 L 843.890 583.956 845.945 581.343 C 848.416 578.201, 848.737 570.326, 846.565 566.125 C 840.963 555.292, 818.767 547.843, 807.076 552.872 C 801.177 555.410, 796.740 555.597, 794.905 553.385 C 793.312 551.466, 794.423 550.446, 803.966 545.064 C 813.942 539.438, 817.740 532.099, 814.584 524.546 C 811.063 516.119, 804.728 516.262, 790.846 525.080 C 761.271 543.865, 716.878 542.597, 688.500 522.155 C 685.750 520.174, 676.737 512.016, 668.472 504.027 C 648.542 484.762, 616.670 457.783, 614.197 458.085 C 613.814 458.132, 609.900 459.929, 605.500 462.080 M 412.876 470.883 C 411.497 471.967, 409.543 474.687, 408.533 476.927 C 407.523 479.167, 406.253 481, 405.711 481 C 405.170 481, 406.758 483.172, 409.241 485.827 C 414.491 491.439, 418.666 497.774, 420.486 502.890 L 421.771 506.500 422.635 503.500 C 423.111 501.850, 423.498 495.325, 423.496 489 C 423.490 472.173, 419.623 465.576, 412.876 470.883 M 314.637 478.696 C 313.830 479.503, 313.825 496.743, 314.630 499.750 C 315.301 502.251, 320.756 503.054, 321.426 500.750 C 321.627 500.063, 323.166 495.016, 324.847 489.535 C 326.528 484.054, 327.813 479.505, 327.702 479.425 C 326.899 478.848, 315.141 478.192, 314.637 478.696 M 330.490 491.042 C 328.983 497.115, 327.919 502.196, 328.125 502.333 C 328.331 502.470, 331.505 503.353, 335.177 504.295 C 338.850 505.237, 342.451 506.236, 343.180 506.516 C 344.036 506.844, 344.924 505.692, 345.688 503.262 C 346.616 500.309, 350.691 490.872, 352.757 486.889 C 353.013 486.395, 335.309 480, 333.686 480 C 333.435 480, 331.996 484.969, 330.490 491.042 M 356.872 494.750 C 354.321 500.640, 351 508.949, 351 509.442 C 351 509.644, 353.587 511.253, 356.750 513.019 C 359.913 514.784, 363.992 517.348, 365.816 518.715 C 367.639 520.083, 369.249 521.044, 369.393 520.851 C 369.537 520.658, 370.243 519.023, 370.962 517.217 C 371.682 515.411, 373.784 511.419, 375.635 508.346 C 377.486 505.272, 379 502.616, 379 502.443 C 379 501.823, 360.850 490, 359.899 490 C 359.365 490, 358.003 492.137, 356.872 494.750 M 378.926 515.838 L 374.352 524.643 377.726 528.545 L 381.099 532.448 383.790 528.974 C 385.271 527.063, 388.249 523.567, 390.409 521.205 L 394.337 516.911 389.456 511.955 C 386.772 509.230, 384.333 507.007, 384.038 507.016 C 383.742 507.025, 381.442 510.995, 378.926 515.838 M 314.500 515.704 C 312.300 519.937, 310.373 523.691, 310.217 524.048 C 310.062 524.404, 313.212 525.233, 317.217 525.890 C 333.616 528.578, 348.311 534.731, 360.332 543.945 L 366.926 548.999 370.963 543.054 C 373.183 539.785, 375 536.655, 375 536.100 C 375 534.599, 364.102 526.061, 355.958 521.183 C 345.328 514.816, 326.893 508.067, 320 508.019 C 319.138 508.013, 316.798 511.282, 314.500 515.704 M 389.618 531.642 C 385.430 536.975, 382.135 541.468, 382.295 541.628 C 383.045 542.379, 395.585 538.737, 400.061 536.469 L 405.083 533.924 402.373 528.945 C 397.990 520.892, 398.074 520.874, 389.618 531.642 M 282.909 532.896 C 252.110 542.750, 236.173 591.697, 255.319 617.629 C 262.444 627.280, 262.211 627.267, 266.947 618.300 C 270.607 611.370, 270.998 609.982, 270.454 605.858 C 269.678 599.972, 270.943 599.153, 275.190 602.792 C 283.961 610.306, 290.348 612.927, 295.097 610.960 C 306.049 606.423, 297.344 589.773, 280.750 583.519 C 275.808 581.656, 274.927 580.135, 277.535 577.971 C 281.156 574.966, 296.679 581.698, 303.924 589.417 C 311.537 597.527, 319.483 585.095, 314.098 573.500 C 311.439 567.774, 309.059 565.652, 300.016 560.947 C 294.226 557.935, 292 556.244, 292 554.857 C 292 551.557, 294.627 551.674, 306.601 555.511 L 318.212 559.232 320.245 557.199 C 323.420 554.024, 323.815 546.054, 321.020 541.533 C 315.623 532.800, 296.649 528.500, 282.909 532.896 M 329 537.592 C 329 537.852, 329.675 539.680, 330.500 541.654 C 333.866 549.711, 331.275 561.519, 325.145 566.051 C 322.138 568.274, 322.122 568.334, 323.730 571.400 C 329.142 581.714, 322.650 599.073, 312.792 600.649 C 309.529 601.171, 308.997 601.621, 308.978 603.878 C 308.920 610.823, 302.353 618.975, 295.219 620.956 C 289.750 622.475, 287.861 622.264, 282.469 619.534 C 279.790 618.178, 277.490 617.177, 277.357 617.309 C 277.225 617.442, 274.899 622.729, 272.189 629.060 C 269.478 635.390, 266.360 642.354, 265.258 644.535 C 262.020 650.950, 261.604 653, 263.543 653 C 266.906 653, 277.073 659.384, 281.991 664.584 L 287.036 669.918 304.227 644.209 C 313.683 630.069, 330.756 604.208, 342.168 586.740 L 362.916 554.980 357.767 550.910 C 350.656 545.289, 329 535.263, 329 537.592 M 348 594.710 C 344.975 599.447, 341.668 604.600, 340.652 606.161 L 338.804 609 343.254 609 C 352.879 609, 358.170 601.588, 355.873 591.323 C 355.218 588.395, 354.416 586.022, 354.091 586.049 C 353.766 586.076, 351.025 589.974, 348 594.710 M 254.002 665.498 C 249.390 670.256, 250.417 673.387, 257.797 677.075 C 260.695 678.523, 263.651 680.508, 264.366 681.486 C 266.346 684.194, 277.060 683.231, 280.456 680.041 C 282.886 677.758, 282.903 677.643, 281.220 674.740 C 280.274 673.108, 277.700 670.305, 275.500 668.511 C 266.062 660.815, 259.440 659.887, 254.002 665.498 M 772.407 744.031 C 757.447 746.997, 748.397 757.151, 751.009 768.039 C 752.423 773.932, 751.925 773.807, 757.385 769.640 C 761.848 766.233, 773.003 762.469, 776.588 763.159 C 781.138 764.035, 778.641 767.393, 770.398 771.482 C 761.372 775.958, 758.759 777.800, 759.570 779.113 C 761.359 782.008, 776.069 776.961, 780.646 771.881 C 786.801 765.051, 794.112 748.341, 792.633 744.486 C 791.993 742.818, 779.896 742.546, 772.407 744.031 M 660.746 757.988 C 661.029 764.897, 661.761 771.137, 662.380 771.922 C 664.602 774.742, 683.775 783.038, 692.620 785.006 C 710.912 789.076, 726.980 788.708, 741.750 783.880 C 748.752 781.591, 748.679 781.679, 746.199 778.526 C 744.585 776.474, 744.195 776.384, 742.449 777.663 C 738.009 780.916, 727.071 783.291, 719.128 782.729 C 702.876 781.577, 688.771 773.920, 671.866 757.072 L 660.232 745.477 660.746 757.988 M 372.634 853.512 C 371.635 856.115, 373.647 857.841, 379.743 859.614 C 387.142 861.765, 399.004 861.211, 401.912 858.580 C 405.685 855.165, 404.544 854.316, 395.250 853.619 C 390.438 853.258, 383.530 852.695, 379.901 852.367 C 374.215 851.854, 373.209 852.012, 372.634 853.512 M 591.159 857.142 C 589.322 857.671, 582.797 858.418, 576.659 858.802 C 565.609 859.493, 565.500 859.524, 565.500 862 C 565.500 866.582, 575.822 868.305, 587.212 865.625 C 594.628 863.879, 598 861.645, 598 858.477 C 598 855.749, 596.807 855.516, 591.159 857.142 M 369.332 865.578 C 368.415 867.966, 370.716 869.505, 379.503 872.381 C 387.969 875.151, 396.799 875.801, 398.800 873.800 C 400.791 871.809, 400.160 870.068, 397.250 869.518 C 395.738 869.232, 389.931 867.874, 384.347 866.499 C 372.489 863.580, 370.153 863.437, 369.332 865.578 M 578.250 871.749 C 561.249 872.025, 560 872.172, 560 873.900 C 560 876.508, 561.709 877.600, 567.799 878.883 C 574.582 880.313, 585.446 880.312, 592.114 878.882 C 599.581 877.281, 605.720 870.694, 599.250 871.226 C 597.737 871.350, 588.288 871.585, 578.250 871.749 M 352.395 933.901 C 348.578 936.229, 344.746 942.175, 345.611 944.430 C 346.426 946.553, 351.698 949.219, 360.355 951.887 C 369.996 954.858, 370 954.857, 370 948.968 C 370 935.640, 361.489 928.355, 352.395 933.901 M 395.208 940.750 C 391.502 943.240, 382 954.190, 382 955.971 C 382 956.821, 396.974 958, 407.781 958 L 415.256 958 414.576 953.750 C 413.244 945.420, 406.943 938, 401.200 938 C 400.156 938, 397.459 939.237, 395.208 940.750 M 638.783 940.922 C 633.720 944.133, 629.545 950.333, 628.464 956.247 L 627.778 959.994 631.139 959.336 C 638.423 957.908, 655.385 953.015, 656.333 952.067 C 657.790 950.610, 655.365 943.274, 652.469 940.378 C 649.185 937.094, 644.527 937.280, 638.783 940.922 M 555.500 941.881 C 548.380 945.150, 545.464 950.464, 548.903 953.903 C 550.853 955.853, 563.538 960.185, 571.398 961.584 L 575.296 962.278 574.780 955.844 C 573.685 942.210, 566.350 936.898, 555.500 941.881 M 595.209 944.014 C 591.638 946.191, 581.711 960.723, 582.701 962.325 C 583.336 963.353, 614.624 962.556, 618.715 961.407 L 620.931 960.785 618.959 956.920 C 614.814 948.795, 606.530 941.994, 600.790 942.004 C 599.530 942.006, 597.019 942.910, 595.209 944.014" stroke="none" fill="#1a1a1a" fill-rule="evenodd"/>
</svg>