<svg xmlns="http://www.w3.org/2000/svg" width="1024" height="1024" viewBox="0 0 1024 1024" version="1.1">
	<path d="M 478.918 53.045 C 400.401 60.035, 340.592 92.686, 304.565 148.227 C 293.360 165.501, 282.264 192.368, 278.399 211.581 C 277.412 216.487, 276.481 220.676, 276.329 220.890 C 276.177 221.105, 274.261 219.662, 272.071 217.684 C 261.267 207.923, 252.252 207.476, 243.261 216.255 C 229.997 229.208, 226.558 266.154, 237.680 276.212 C 242.529 280.597, 253.771 282.360, 261.940 280.017 C 266.398 278.739, 266.387 278.711, 264.472 286.139 C 257.717 312.345, 248.997 331.561, 232.208 357.235 C 207.327 395.287, 201.117 412.046, 202.281 438 C 203.114 456.565, 208.018 468.998, 218.370 478.789 C 223.713 483.842, 227.110 485.511, 230.659 484.827 C 234.468 484.094, 233.173 481.017, 226.205 474.246 C 214.845 463.209, 211.041 452.973, 211.015 433.378 C 210.986 411.451, 216.624 397.034, 237.923 364.570 C 257.856 334.189, 264.676 319.496, 271.026 293.250 C 274.476 278.991, 274.369 279.169, 277.983 281.701 C 279.590 282.826, 282.170 283.360, 285.609 283.280 C 290.802 283.158, 290.808 283.161, 291.473 286.707 C 294.345 302.014, 305.262 313.519, 316.759 313.352 C 320.475 313.299, 321.971 313.634, 321.657 314.452 C 321.408 315.099, 320.647 319.087, 319.965 323.314 C 319.284 327.541, 318.643 331, 318.541 331 C 318.439 331, 316.204 330.267, 313.574 329.371 C 303.652 325.990, 289.979 329.854, 282.475 338.160 C 272.427 349.281, 268.403 370.019, 272.511 389.500 C 277.640 413.824, 298.114 430.888, 322.271 430.976 C 328.708 430.999, 329.099 431.136, 330.171 433.750 C 336.815 449.940, 346.718 466.353, 356.768 477.831 C 370.869 493.936, 397.886 512.175, 422.250 522.040 C 427.791 524.283, 428 524.502, 428 528.059 C 428 530.089, 428.265 533.075, 428.589 534.694 C 429.177 537.636, 429.174 537.639, 420.839 539.902 C 375.606 552.185, 335.647 582.465, 297.323 633.500 C 276.436 661.315, 273.870 666.151, 276.948 671.903 C 277.675 673.262, 276.753 675.643, 272.986 682.136 C 266.927 692.576, 260.598 708.341, 257.853 719.830 C 254.256 734.879, 255.464 745.402, 262.664 761.750 C 263.102 762.746, 242.044 763, 159.229 763 C 46.679 763, 52.397 762.720, 53.173 768.195 L 53.500 770.500 161.962 770.754 L 270.425 771.009 273.962 774.452 C 286.603 786.756, 307.041 787.163, 325.807 775.485 L 333.014 771 483.927 771 L 634.841 771 635.505 774.024 C 636.311 777.691, 640.255 782.563, 643.976 784.487 C 646.309 785.694, 646.811 786.734, 647.375 791.538 C 647.740 794.637, 648.749 798.548, 649.618 800.229 C 651.485 803.838, 652.457 803.976, 637.500 798.504 C 598.234 784.137, 533.613 777.492, 468.073 781.081 C 390.238 785.343, 324.712 810.064, 309.252 841 C 294.643 870.231, 312.909 897.959, 359.712 917.599 C 374.206 923.681, 373.815 923.474, 379.500 928.069 C 385.747 933.117, 403.629 941.934, 415.500 945.819 C 456.457 959.223, 526.465 961.618, 577.979 951.377 C 600.187 946.962, 613.431 941.186, 632 927.820 C 636.675 924.455, 646.370 918.867, 653.544 915.402 C 681.374 901.960, 696.936 888.210, 702.706 871.966 L 704.414 867.156 707.457 871.736 C 717.857 887.391, 742.264 878.069, 738.617 859.835 C 738.022 856.860, 735.867 852.869, 728.447 841 C 724.203 834.212, 724.195 834.415, 728.750 832.942 C 730.813 832.274, 734.975 829.325, 738 826.387 C 741.025 823.450, 745.975 819.097, 749 816.715 C 759.777 808.227, 767.982 794.297, 770.819 779.671 L 772.500 771.007 869.816 771.003 C 934.979 771.001, 967.771 770.658, 969.066 769.965 C 971.735 768.536, 971.568 764.374, 968.781 762.883 C 967.090 761.978, 943.397 761.831, 869.281 762.266 C 815.776 762.580, 771.977 762.536, 771.949 762.168 C 770.319 740.724, 761.083 716.291, 744.411 689.319 C 739.184 680.862, 738.167 678.556, 738.989 677.021 C 742.083 671.240, 740.554 667.150, 728.857 649.917 C 685.690 586.321, 649.978 556.666, 597 540.425 C 590.762 538.512, 585.359 537.673, 576.697 537.270 L 564.894 536.721 565.197 533.699 C 565.493 530.747, 565.748 530.612, 576.041 527.933 C 625.554 515.050, 662.526 485.742, 682.636 443.435 L 688.098 431.944 692.799 432.553 C 710.379 434.829, 733.344 420.603, 742.365 401.849 C 750.944 384.012, 751.404 360.597, 743.482 344.964 C 735.324 328.866, 714.768 323.026, 701.809 333.124 C 699.778 334.706, 697.709 336, 697.211 336 C 695.119 336, 690.091 316.563, 690.035 308.265 L 690 303.029 694.750 304.900 C 700.831 307.294, 715.684 310.335, 717.637 309.586 C 718.580 309.224, 719.017 308.013, 718.817 306.314 C 718.523 303.808, 717.787 303.415, 708.500 300.798 C 669.797 289.890, 638.933 257.885, 624.599 213.796 C 618.148 193.952, 616.894 182.087, 618.278 154 C 618.483 149.837, 618.307 149.478, 615.914 149.199 C 612.493 148.802, 611.859 149.827, 608.623 161 C 596.759 201.962, 560.667 239.266, 523.546 248.936 C 514.485 251.297, 513.027 252.255, 514.659 254.778 C 516.196 257.153, 525.159 256.760, 533.855 253.935 C 562.098 244.760, 592.279 217.599, 605.837 189.156 L 609.487 181.500 610.248 188.500 C 614.755 229.907, 640.224 272.175, 673.717 293.833 L 680.934 298.500 680.989 305 C 681.098 318.016, 690.274 348.044, 694.383 348.835 C 695.444 349.040, 698.423 346.993, 701.917 343.660 C 715.427 330.774, 732.661 336.961, 738.732 356.876 C 740.920 364.053, 740.862 379.154, 738.613 387.895 C 733.266 408.672, 714.428 424, 694.239 424 C 690.952 424, 690.785 423.841, 691.359 421.250 C 699.408 384.875, 699.893 372.311, 693.107 375.943 C 691.035 377.052, 690.572 378.776, 689.465 389.500 C 687.821 405.426, 681.337 427.357, 673.820 442.416 C 650.390 489.353, 602.952 518.700, 538 526.442 C 526.277 527.839, 493.746 528.083, 492.449 526.784 C 492.056 526.390, 493.931 522.229, 496.617 517.537 L 501.500 509.007 507.782 509.003 C 523.525 508.995, 532.651 498.052, 528.453 484.218 C 526.434 477.564, 526.490 477.395, 531.543 474.872 C 540.575 470.360, 548.195 460.054, 551.138 448.368 C 552.387 443.406, 558.837 437.359, 562.436 437.775 C 565.831 438.168, 567.342 436.484, 567.192 432.476 C 566.816 422.476, 556.606 416.336, 556.446 426.013 C 556.238 438.533, 515.573 451.615, 494.116 446.065 C 492.127 445.550, 487.222 444.607, 483.216 443.968 C 470.141 441.883, 457.169 433.159, 458.609 427.420 C 459.359 424.434, 455.547 421.637, 452.760 423.128 C 450.603 424.283, 447.056 431.371, 447.022 434.595 C 446.991 437.514, 450.003 439.946, 452.500 439.018 C 454.060 438.438, 455.221 439.112, 457.776 442.076 C 459.577 444.167, 462.840 446.667, 465.026 447.631 C 470.062 449.853, 470.025 450.042, 464.020 452.796 C 455.115 456.881, 451.486 464.810, 454.315 474 C 454.978 476.153, 453.830 478.095, 446.040 488 C 441.066 494.325, 435.146 503.168, 432.884 507.651 L 428.771 515.802 425.136 514.285 C 359.464 486.875, 326 434.794, 326 360 C 326 330.657, 329.557 309.936, 336.365 299.618 C 344.580 287.169, 349.561 269.310, 347.201 260.766 L 346.170 257.031 350.335 256.002 C 382.230 248.116, 418.557 230.815, 445 210.915 C 469.810 192.244, 495 164.230, 495 155.309 C 495 150.691, 491.485 152.930, 483.320 162.750 C 470.532 178.130, 465.427 183.473, 454.567 192.849 C 429.111 214.826, 397.713 232.278, 363.141 243.667 C 346.077 249.288, 342.671 249.740, 337.539 247.065 C 332.117 244.239, 320.649 244.247, 311.466 247.083 C 303.232 249.626, 301.652 248.511, 305.720 243.026 C 318.751 225.454, 339.662 201.644, 367.456 172.729 C 377.380 162.404, 385.657 153.233, 385.848 152.348 C 386.185 150.792, 384.471 149.047, 382.575 149.015 C 378.887 148.954, 336.392 195.165, 309.746 228.211 L 297.993 242.788 294.246 241.940 C 292.186 241.474, 289.566 241.326, 288.425 241.611 C 280.930 243.482, 285.127 210.613, 295.653 185 C 322.657 119.294, 377.858 78.447, 458 64.868 C 477.578 61.551, 518.719 61.534, 539.856 64.835 C 581.322 71.309, 622.905 87.786, 638.453 103.903 C 642.390 107.983, 642.436 108, 649.953 108.017 C 689.160 108.108, 728.572 143.622, 746.482 195 C 754.766 218.766, 759.301 243.639, 760.976 274.500 C 763.900 328.376, 767.648 343.188, 786.905 376.972 C 791.773 385.512, 797.323 395.650, 799.237 399.500 C 815.544 432.288, 811.383 467.227, 788.241 491.843 C 781.761 498.735, 780.889 501.268, 784.803 501.825 C 789.249 502.458, 802.065 490.229, 808.724 479 C 814.340 469.529, 818.867 445.279, 817.497 432 C 815.556 413.182, 812.531 405.181, 796.834 377.349 C 776.206 340.773, 772.449 327.531, 770.492 284.500 C 767.615 221.287, 755.210 178.326, 730.215 145.014 C 709.503 117.412, 677.902 99, 651.238 99 C 645.871 99, 645.115 98.714, 642.004 95.504 C 616.280 68.964, 535.714 47.989, 478.918 53.045 M 563.990 167.697 C 540.118 210.178, 502.142 239.377, 444.500 259.570 C 432.187 263.883, 430.029 265.723, 434.201 268.355 C 437.871 270.670, 465.161 261.453, 486.873 250.564 C 525.056 231.414, 554.756 203.251, 569.105 172.589 C 572.480 165.377, 572.548 162.653, 569.365 162.197 C 567.702 161.958, 566.555 163.133, 563.990 167.697 M 653.328 195.588 C 651.847 199.447, 655.997 213.879, 662.504 227.500 C 675.691 255.101, 695.905 275.830, 718.630 285.053 C 723.818 287.158, 724.145 287.178, 725.997 285.502 C 728.838 282.932, 727.188 280.803, 719.800 277.507 C 694.847 266.372, 673.818 240.030, 661.520 204.500 C 658.802 196.650, 657.621 194.431, 656.025 194.180 C 654.807 193.988, 653.725 194.553, 653.328 195.588 M 250.827 220.744 C 243.637 226.674, 239.892 237.246, 239.758 252 C 239.608 268.357, 243.581 273.782, 254.936 272.728 C 265.344 271.762, 268.421 269.814, 269.586 263.454 L 270.593 257.956 264.546 254.646 C 258.086 251.109, 256.279 247.673, 259.480 245.016 C 260.812 243.911, 261.912 244.134, 266.453 246.432 C 273.772 250.135, 276.214 249.671, 277.256 244.378 C 278.026 240.465, 277.790 239.857, 272.604 232.378 C 261.907 216.954, 257.971 214.851, 250.827 220.744 M 285.387 251.906 C 278.684 255.993, 275.833 267.924, 280.455 272.545 C 286.341 278.432, 295.184 272.513, 297.331 261.250 C 299.101 251.960, 293.055 247.230, 285.387 251.906 M 318.500 253.680 C 308.674 255.882, 307.187 256.899, 306.050 262.203 C 305.450 265.002, 305.080 267.355, 305.229 267.433 C 305.378 267.511, 307.750 268.471, 310.500 269.566 C 314.242 271.057, 315.584 272.146, 315.835 273.895 C 316.413 277.932, 314.655 278.515, 307.989 276.497 C 302.350 274.789, 301.796 274.775, 300.268 276.303 C 296.514 280.058, 303.612 298.468, 310.586 303.066 C 319.772 309.122, 332.173 296.790, 337.513 276.289 C 342.173 258.397, 335.082 249.965, 318.500 253.680 M 590 264.752 C 587.166 266.167, 586.500 267.071, 586.500 269.500 L 586.500 272.500 595.019 272.500 C 606.206 272.500, 614.020 276.084, 622.251 284.991 C 629.426 292.755, 633.194 291.898, 630.581 283.096 C 626.788 270.325, 601.619 258.947, 590 264.752 M 402.347 268.391 C 390.006 272.978, 377.165 286.879, 381.001 291.501 C 382.942 293.840, 383.811 293.421, 390.933 286.702 C 399.527 278.595, 405.308 275.856, 414.845 275.372 C 423.403 274.939, 424 274.684, 424 271.467 C 424 265.942, 413.101 264.394, 402.347 268.391 M 411.939 335.584 C 399.011 343.912, 400.210 372.012, 413.735 377.663 C 426.558 383.021, 437.371 364.498, 432.120 346.170 C 429.329 336.426, 419.024 331.021, 411.939 335.584 M 587.607 338.095 C 582.398 342.192, 580.506 347.494, 580.503 358 C 580.500 366.559, 580.772 367.962, 583.242 372.164 C 588.061 380.361, 597.929 382.074, 603.736 375.721 C 611.952 366.732, 611.838 347.638, 603.520 339.320 C 599.363 335.163, 592.049 334.600, 587.607 338.095 M 295.123 339.626 C 278.488 347.915, 273.949 381.913, 286.795 402 C 294.378 413.858, 309.939 422.941, 322.750 422.988 C 326.567 423.002, 326.559 423.061, 324.075 413.167 C 321.648 403.499, 319.324 390.513, 318.433 381.639 C 317.358 370.949, 310.971 365, 300.567 365 C 297.150 365, 295.823 364.537, 295.039 363.072 C 291.452 356.371, 305.708 354.095, 314.053 360.037 C 315.568 361.117, 317.039 362, 317.320 362 C 317.601 362, 317.757 357.406, 317.666 351.791 L 317.500 341.582 314.102 339.291 C 309.299 336.052, 302.038 336.180, 295.123 339.626 M 712.815 356.917 C 705.714 358.356, 698.354 366.163, 700.653 369.815 C 702.434 372.643, 705.043 372.350, 708.574 368.929 C 711.391 366.198, 712.873 365.596, 717.718 365.213 C 724.013 364.715, 726 363.704, 726 361 C 726 357.402, 719.837 355.493, 712.815 356.917 M 494.500 368.900 C 477.857 376.622, 477.693 397.574, 494.210 406.088 C 501.557 409.874, 512.531 407.733, 511.807 402.653 C 511.542 400.797, 510.625 400.404, 505.150 399.800 C 493.047 398.465, 486.997 390.438, 491.960 382.299 C 495.370 376.705, 501.317 374.827, 510.579 376.417 C 513.644 376.944, 514.969 376.743, 515.911 375.607 C 521.174 369.266, 504.779 364.131, 494.500 368.900 M 247.903 420.466 C 232.077 454.238, 238.329 497.425, 261.828 516.660 C 273.936 526.572, 289.500 531.276, 289.500 525.024 C 289.500 522.903, 288.198 521.901, 280.400 518.024 C 275.394 515.536, 269.544 511.967, 267.400 510.094 C 246.935 492.220, 241.797 458.483, 254.006 422.152 C 257.057 413.071, 257.044 412, 253.876 412 C 252.339 412, 250.944 413.977, 247.903 420.466 M 762.378 422.458 C 762.070 423.261, 763.206 427.648, 764.903 432.208 C 769.644 444.951, 770.970 452.227, 770.970 465.500 C 770.970 494.203, 760.079 512.669, 736.186 524.476 C 730.056 527.505, 728.923 528.447, 729.186 530.295 C 730.143 537.023, 747.667 530.125, 759.406 518.400 C 781.176 496.654, 786.221 459.006, 771.427 428.682 C 768.323 422.320, 767.272 421, 765.308 421 C 764.004 421, 762.685 421.656, 762.378 422.458 M 297.207 449.750 C 294.370 457.286, 293.787 460.306, 293.300 470 C 291.977 496.345, 305.313 521.384, 326.282 531.923 C 335.008 536.309, 341.500 536.776, 341.500 533.018 C 341.500 530.932, 340.153 529.809, 333.048 525.969 C 311.313 514.222, 301.500 497.124, 301.500 471 C 301.500 464.125, 301.889 455.913, 302.365 452.750 C 303.222 447.056, 303.206 447, 300.737 447 C 298.934 447, 297.956 447.762, 297.207 449.750 M 539.846 450.058 C 538.057 451.068, 528.836 453.441, 522.686 454.474 L 518.871 455.115 522.436 459.060 C 524.396 461.230, 526 463.878, 526 464.944 C 526 468.214, 527.641 468.154, 532.164 464.721 C 538.271 460.085, 545.068 447.110, 539.846 450.058 M 711.632 450.517 C 711.312 451.352, 712.483 456.189, 714.235 461.267 C 717.149 469.714, 717.421 471.564, 717.432 483 C 717.456 509.961, 706.864 526.734, 684.635 534.939 C 678.432 537.229, 677.500 537.895, 677.500 540.036 C 677.500 542.386, 677.778 542.498, 683.500 542.454 C 704.875 542.291, 726 514.431, 726 486.405 C 726 475.370, 720.884 455.180, 716.858 450.329 C 715.371 448.537, 712.350 448.645, 711.632 450.517 M 472.500 456.972 C 463.697 461.480, 461 463.984, 461 467.646 C 461 473.867, 466.880 478.183, 476.396 478.947 C 483.932 479.551, 484.492 480.006, 485.512 486.362 C 486.290 491.202, 489.941 495, 493.817 495 C 495.565 495, 498.276 496.236, 500.612 498.097 C 504.144 500.911, 505.023 501.157, 510.213 500.786 C 519.733 500.106, 523.241 494.543, 520.331 484.744 C 519.488 481.905, 518.728 476.839, 518.643 473.487 C 518.392 463.630, 514.822 460, 505.376 460 C 501.816 460, 500.055 459.334, 496.894 456.794 C 490.413 451.586, 482.911 451.641, 472.500 456.972 M 457.817 484.750 C 453.791 489.080, 441.371 506.348, 439.207 510.625 C 435.007 518.926, 434.516 529.467, 437.918 538.315 C 440.425 544.838, 439.692 546.858, 425.528 572.416 C 421.388 579.888, 418 586.391, 418 586.868 C 418 587.344, 420.255 588.670, 423.010 589.816 L 428.021 591.898 429.393 589.699 C 430.147 588.490, 434.449 580.525, 438.952 572 C 448.651 553.641, 449.834 552.278, 461.356 546.203 C 472.766 540.187, 478.406 534.077, 487.390 517.997 C 494.688 504.935, 495.013 502.829, 489.829 502.201 C 487.765 501.951, 486.601 503.021, 482.756 508.701 C 471.699 525.032, 468.823 527.680, 465.621 524.479 C 463.343 522.200, 463.162 522.641, 472 508.938 C 480.471 495.804, 480.508 495.695, 478.656 489.553 L 477.466 485.607 467.512 499.881 C 456.369 515.861, 456.795 515.416, 453.443 514.575 C 449.396 513.559, 450.465 510.043, 458.500 497.934 C 466.869 485.322, 467.045 484.797, 463.453 483.161 C 460.248 481.700, 460.797 481.545, 457.817 484.750 M 344.984 492.519 C 340.995 497.326, 347.568 513.774, 357.373 523.523 C 367.711 533.801, 384.196 541.054, 390.592 538.140 C 395.576 535.869, 393.426 533.092, 384.330 530.047 C 366.657 524.130, 356.288 513.754, 350.558 496.250 C 348.801 490.884, 347.220 489.825, 344.984 492.519 M 670.189 494.309 C 669.662 494.964, 668.902 497.075, 668.500 499 C 664.952 516.003, 654.839 527.431, 637.227 534.341 C 626.573 538.521, 627.790 543.882, 638.928 541.835 C 658.554 538.228, 677.742 514.427, 674.585 497.603 C 673.902 493.961, 671.760 492.356, 670.189 494.309 M 553.927 532.407 C 551.379 534.954, 513.099 537.438, 498.519 536.002 L 486.719 534.840 480.815 541.381 C 477.568 544.978, 473.131 548.922, 470.956 550.145 C 466.056 552.899, 466.035 554.207, 470.783 560.500 C 492.512 589.294, 553.661 583.008, 571.346 550.162 L 574.193 544.876 569.904 545.188 C 566.003 545.472, 565.541 545.793, 564.780 548.750 C 564.126 551.287, 563.414 552, 561.530 552 C 558.165 552, 557.617 550.673, 557.022 541.079 C 556.568 533.759, 555.518 530.816, 553.927 532.407 M 421.500 548.488 C 373.382 562.812, 335.327 593.600, 294.748 651.036 L 290.130 657.571 298.815 657.638 C 304.351 657.681, 309.271 658.333, 312.385 659.438 L 317.269 661.171 322.905 655.594 C 327.464 651.083, 329.089 648.533, 331.406 642.258 C 345.731 603.455, 369.834 583.017, 399.941 584.143 L 409.496 584.500 420.184 566 C 426.062 555.825, 430.900 547.163, 430.936 546.750 C 431.025 545.708, 430.535 545.798, 421.500 548.488 M 579.026 552.105 C 557.868 593.742, 482.403 599.836, 462.384 561.525 C 460.798 558.489, 459.216 556.004, 458.869 556.002 C 456.658 555.994, 450.866 564.602, 442.925 579.697 C 434.245 596.195, 433.860 597.188, 435.456 598.951 C 437.296 600.984, 439.613 608.322, 439.418 611.500 C 439.351 612.600, 439.229 614.467, 439.148 615.650 C 439.067 616.832, 437.429 620.134, 435.508 622.988 C 432.178 627.936, 432.067 628.380, 433.117 632.550 C 434.921 639.714, 432.788 646.362, 426.821 652.174 C 422.766 656.124, 422.050 657.350, 422.576 659.445 C 425.318 670.371, 413.930 682.943, 399.792 684.597 L 394.084 685.265 387.792 697.351 C 381.337 709.750, 380.629 711.805, 378.949 723 C 375.455 746.285, 374.029 756.907, 374.016 759.750 L 374 763 504.474 763 L 634.949 763 636.592 759.750 C 637.496 757.962, 639.389 754.961, 640.798 753.080 L 643.360 749.661 641.046 743.080 C 635.086 726.136, 628.619 715.017, 624.699 714.978 C 617.934 714.910, 608.461 707.021, 601.998 696.070 C 597.531 688.502, 581 649.297, 581 646.271 C 581 645.157, 581.653 643.703, 582.452 643.040 C 585.324 640.656, 587.754 642.855, 591.022 650.794 C 610.656 698.491, 614.054 703.925, 626.509 707.546 C 634.157 709.769, 636.375 712.881, 644.655 733 C 647.032 738.775, 649.481 743.371, 650.098 743.213 C 650.715 743.056, 653.191 741.925, 655.600 740.701 L 659.981 738.474 652.811 725.487 C 643.149 707.987, 642.592 706.272, 644.624 700.287 C 645.779 696.885, 646.101 693.301, 645.768 687.552 C 645.311 679.666, 645.130 679.203, 633.240 655.525 C 619.406 627.975, 619.725 628.759, 621.413 626.450 C 624.736 621.906, 626.915 624.747, 639.257 649.715 C 654.712 680.979, 656.518 687.975, 652.414 700.682 C 650.886 705.414, 650.907 705.729, 653.013 709.297 C 654.214 711.334, 655.341 713, 655.516 713 C 655.690 713, 658.296 709.485, 661.306 705.190 C 675.991 684.232, 704.222 666.910, 723.735 666.884 L 729.969 666.875 726.049 660.688 C 686.296 597.932, 643.845 562.256, 592.020 548.050 C 582.050 545.317, 582.555 545.159, 579.026 552.105 M 387 593.091 C 366.820 597.003, 347.435 618.317, 337.514 647.500 C 332.950 660.925, 332.913 660.999, 330.629 661.014 C 328.048 661.030, 313.260 675.218, 297 693.276 C 285.497 706.051, 282.772 707.841, 282.212 702.991 C 281.885 700.159, 289.906 689.581, 302.661 676.022 C 306.845 671.574, 309.984 667.650, 309.636 667.302 C 309.288 666.954, 305.425 666.462, 301.053 666.209 L 293.104 665.749 286.369 676.125 C 261.431 714.541, 257.944 746.576, 276.661 765.293 C 298.933 787.565, 329.896 773.751, 358.057 728.979 C 365.413 717.285, 365.942 716, 363.401 716 C 353.519 716, 348.017 703.220, 353.071 692 C 356.037 685.415, 373.219 660.176, 375.065 659.693 C 377.241 659.124, 396.162 664.798, 397.958 666.559 C 399.156 667.732, 399.214 668.747, 398.283 672.235 C 396.894 677.438, 396.856 677.399, 402.487 676.554 C 414.830 674.703, 418.823 660.761, 409.909 650.634 C 405.167 645.247, 399.487 642.357, 388.192 639.585 C 379.120 637.358, 376.610 635.437, 378.607 632.250 C 380.206 629.700, 382.775 629.646, 392.133 631.964 C 403.024 634.662, 410.312 638.411, 414.982 643.717 C 419.470 648.816, 420.203 648.928, 423.033 644.953 C 431.833 632.595, 419.948 619.773, 395.809 615.584 C 386.274 613.929, 383.708 611.434, 387.571 607.571 C 389.489 605.654, 388.956 605.654, 399.071 607.573 C 409.731 609.595, 415.758 611.920, 422.039 616.432 C 427.561 620.399, 428.557 620.305, 430.511 615.628 C 436.174 602.074, 410.162 588.601, 387 593.091 M 602.200 635.200 C 599.833 637.567, 601.155 641.327, 611.903 662.805 C 622.989 684.961, 624.597 687.422, 627.595 686.833 C 632.076 685.951, 631.471 683.857, 619.978 660.446 C 606.640 633.276, 605.601 631.799, 602.200 635.200 M 370.188 677.750 C 358.095 696.096, 356.051 702.142, 360.455 706.545 C 365.638 711.729, 372.865 708.502, 379.023 698.254 C 383.312 691.117, 391.591 672.258, 390.788 671.455 C 390.028 670.695, 379.754 667, 378.401 667 C 377.781 667, 374.085 671.837, 370.188 677.750 M 716.118 676.043 C 702.067 679.723, 686.011 689.819, 674.298 702.340 C 666.180 711.019, 666.184 710.992, 671.451 722.340 L 675.934 732 684.771 732 C 693.506 732, 693.646 731.961, 696.899 728.604 C 704.454 720.810, 724.238 715.385, 727.365 720.250 C 729.213 723.126, 726.933 725.246, 720.431 726.696 C 713.141 728.322, 709.354 729.761, 705.656 732.310 L 702.812 734.270 708.947 737.548 C 724.831 746.035, 738.900 764.587, 730.374 765.803 C 728.808 766.027, 727.289 764.799, 724.599 761.134 C 717.794 751.865, 710.128 746.372, 698.592 742.499 C 686.837 738.553, 675.645 739.932, 659.802 747.277 C 647.467 752.995, 640.127 763.785, 643.153 771.750 C 644.983 776.564, 649.734 779.261, 651.297 776.372 C 654.637 770.202, 666.935 762.305, 679.197 758.456 C 685.520 756.472, 688.382 757.422, 687.798 761.310 C 687.440 763.697, 686.892 764.029, 675.802 768.584 C 658.172 775.825, 650.719 788.010, 657.547 798.431 C 660.725 803.282, 663.234 802.833, 669.685 796.256 C 677.054 788.743, 690.625 781.650, 697.805 781.559 C 702.351 781.502, 702.500 781.594, 702.500 784.450 C 702.500 787.170, 702.002 787.578, 696.109 789.687 C 681.819 794.803, 673.180 801.399, 671.052 808.819 C 670.045 812.330, 669.983 812.236, 676.282 816.795 L 680.064 819.533 689.016 815.174 C 704.469 807.648, 706.515 808.011, 714.077 819.619 C 717.620 825.056, 718.667 826, 721.157 826 C 728.451 826, 736.333 818.172, 738.926 808.353 C 740.497 802.407, 745.156 801.861, 746.203 807.500 C 746.496 809.082, 747.659 808.037, 751.767 802.500 C 768.995 779.276, 767.379 750.591, 746.573 710.348 C 739.503 696.673, 725.454 673.942, 724.141 674.055 C 723.789 674.085, 720.178 674.980, 716.118 676.043 M 661.471 720.258 C 660.800 722.934, 666.155 735, 668.014 735 C 669.360 735, 669.394 735.142, 665.885 726.326 C 662.168 716.989, 662.260 717.115, 661.471 720.258 M 367.556 728.305 C 361.946 738.399, 354.125 749.580, 348.011 756.250 L 341.823 763 353.303 763 C 366.538 763, 365.108 764.359, 366.984 750 C 367.595 745.325, 368.771 737.510, 369.598 732.634 C 370.425 727.758, 370.954 723.620, 370.773 723.439 C 370.592 723.259, 369.144 725.448, 367.556 728.305 M 466.500 789.068 C 398.865 793.853, 344.606 811.050, 323.181 834.492 C 304.366 855.079, 309.989 877.849, 338.500 896.516 C 420.750 950.367, 626.765 944.788, 683.957 887.161 C 716.585 854.284, 688.202 818.462, 614.500 799.502 C 577.890 790.083, 514.905 785.643, 466.500 789.068 M 501.332 797.851 C 495.330 799.925, 490.146 803.631, 486.430 808.503 L 483.802 811.949 480.651 810.299 C 475.942 807.832, 462.516 807.338, 457.488 809.446 C 455.295 810.366, 451.700 811.338, 449.500 811.606 C 407.183 816.763, 378.383 826.763, 363.405 841.500 C 331.012 873.371, 381.781 906.541, 474 913.757 C 490.624 915.057, 532.288 914.422, 549 912.614 C 620.503 904.874, 665.099 879.004, 652.628 852.500 C 644.192 834.573, 609.085 818.468, 567.679 813.532 C 564.477 813.151, 560.216 812.153, 558.211 811.315 C 556.194 810.472, 551.869 809.829, 548.532 809.876 L 542.500 809.961 537.500 804.577 C 529.730 796.211, 514.353 793.352, 501.332 797.851 M 296.500 802.391 C 285.080 805.982, 278.218 813.489, 255.609 847.124 C 240.445 869.683, 223.580 894.454, 200.348 928.289 C 193.089 938.861, 193.239 944.549, 200.912 949.720 C 220.374 962.835, 277.877 907.918, 277.988 876.110 C 277.997 873.447, 279.574 870.662, 285.346 863.110 C 298.188 846.311, 312.801 825.413, 314.427 821.519 C 320.153 807.815, 310.843 797.882, 296.500 802.391 M 509.111 804.071 C 502.118 805.461, 496.906 808.626, 490.977 815.083 L 485.454 821.097 479.765 818.493 C 465.939 812.163, 451.664 817.375, 447.837 830.149 C 447.168 832.382, 446.144 834.339, 445.561 834.498 C 427.951 839.312, 421.790 842.952, 417.750 850.929 C 410.205 865.825, 420.169 878, 439.905 878 C 446.337 878, 447.125 878.262, 453.432 882.491 C 462.812 888.780, 469.082 890.504, 482.500 890.482 C 493.563 890.463, 501.194 888.846, 506.793 885.335 C 508.865 884.036, 509.734 884.168, 515.793 886.699 C 521.875 889.239, 523.619 889.500, 534.500 889.500 C 547.261 889.500, 553.896 887.490, 563.314 880.773 C 566.165 878.739, 567.660 878.500, 577.523 878.500 C 590.336 878.500, 595.903 876.437, 601.393 869.653 C 605.916 864.065, 605.950 854.246, 601.468 847.836 C 595.508 839.311, 582.754 833.593, 574.673 835.825 C 570.258 837.044, 569.355 836.402, 565.609 829.382 C 560.924 820.605, 555.934 817.514, 546.351 817.452 L 538.876 817.403 534.115 812.225 C 527.282 804.792, 519.025 802.099, 509.111 804.071 M 295.230 811.572 C 292.391 812.987, 287.817 816.609, 285.064 819.620 C 278.426 826.883, 256.145 858.682, 257.178 859.419 C 257.699 859.791, 273.434 863, 274.736 863 C 277.715 863, 307.025 821.230, 307.729 815.982 C 308.717 808.616, 304.295 807.055, 295.230 811.572 M 698.046 818.921 C 695.596 819.912, 693.433 821.200, 693.239 821.783 C 692.857 822.930, 706.313 853.979, 711.126 863.055 C 716.049 872.341, 723.995 874.627, 729.052 868.213 C 732.834 863.415, 731.486 860.003, 717.024 837.756 C 709.781 826.615, 703.551 817.414, 703.178 817.309 C 702.805 817.204, 700.496 817.929, 698.046 818.921 M 429.500 820.479 C 382.070 829.629, 354.584 847.319, 359.953 865.238 C 362.822 874.813, 379.421 886.577, 400.500 893.975 C 451.502 911.875, 537.158 914.057, 593.823 898.900 C 621.758 891.427, 642.685 879.177, 647.597 867.422 C 654.677 850.477, 629.049 831.895, 585.660 822.514 C 569.440 819.007, 569.642 818.982, 571.963 824.166 C 573.792 828.252, 573.931 828.336, 579.164 828.529 C 599.729 829.287, 613.045 841.682, 613.134 860.146 C 613.210 876.026, 596.911 888.071, 577.157 886.732 C 569.625 886.222, 569.399 886.276, 563.339 890.066 C 552.780 896.669, 546.437 898.256, 532.500 897.785 C 522.342 897.441, 519.656 896.992, 515 894.862 L 509.500 892.345 504.500 894.540 C 487.658 901.931, 463.077 899.711, 449.838 889.603 C 445.869 886.572, 444.726 886.235, 436.991 885.819 C 412.886 884.523, 400.706 867.775, 409.545 848.078 C 414.113 837.899, 424.040 830.718, 435.385 829.385 C 440.171 828.822, 440.927 828.426, 441.490 826.182 C 441.844 824.774, 443.034 822.357, 444.135 820.811 L 446.136 818 443.818 818.082 C 442.543 818.127, 436.100 819.205, 429.500 820.479 M 467.898 855.284 C 461.122 859.840, 463.718 864.784, 471.131 861.441 C 474.637 859.860, 475.746 859.785, 479.749 860.855 C 483.615 861.889, 484.577 861.852, 485.809 860.620 C 491.293 855.136, 475.234 850.352, 467.898 855.284 M 543.554 855.913 C 541.258 859.628, 547.446 864, 554.999 864 C 562.167 864, 561.673 858.117, 554.394 856.790 C 552.252 856.400, 549.091 855.794, 547.368 855.444 C 545.489 855.062, 543.964 855.250, 543.554 855.913 M 247.680 872.750 C 245.205 876.462, 240.528 883.325, 237.287 888 C 234.046 892.675, 227.548 902.125, 222.847 909 C 218.146 915.875, 211.757 925.035, 208.650 929.355 C 202.348 938.117, 201.855 940.204, 205.519 942.605 C 218.470 951.090, 262.417 909.977, 269.348 882.892 C 270.103 879.943, 270.671 875.754, 270.610 873.581 L 270.500 869.631 262.500 867.847 C 258.100 866.865, 253.978 866.048, 253.340 866.031 C 252.703 866.014, 250.155 869.038, 247.680 872.750 M 611.500 930.084 C 563.329 944.734, 464.218 945.841, 406.132 932.378 C 395.770 929.976, 398.003 931.506, 411.187 935.841 C 457.548 951.087, 520.622 953.933, 578.500 943.393 C 589.975 941.303, 604.541 936.496, 611.500 932.503 C 617.404 929.115, 617.404 928.289, 611.500 930.084" stroke="none" fill="#1a1a1a" fill-rule="evenodd"/>
</svg>