<svg xmlns="http://www.w3.org/2000/svg" width="1024" height="1024" viewBox="0 0 1024 1024" version="1.1">
	<path d="M 766.500 52.095 C 706.659 55.279, 691.257 57.805, 683.803 65.658 C 675.514 74.392, 675.466 75.398, 677.583 195.157 L 678.161 227.814 676.015 228.495 C 672.096 229.739, 667.063 235.051, 665.975 239.091 C 663.975 246.519, 668.156 254.914, 676.421 260.065 C 679.767 262.151, 683.236 270.443, 690.411 293.500 C 700.381 325.543, 704.933 355.378, 704.985 389.027 C 705.001 399.315, 706.073 402.251, 710.219 403.361 C 712.151 403.879, 714.334 402.053, 724.500 391.418 L 736.500 378.865 742.500 386.620 C 759.409 408.474, 759.309 408.423, 767.353 399.342 C 770.184 396.147, 775.465 390.427, 779.088 386.632 L 785.676 379.731 789.273 384.116 L 792.870 388.500 793.517 644 C 793.918 802.172, 794.525 899.872, 795.110 900.478 C 795.725 901.113, 796.657 901.075, 797.778 900.369 C 799.399 899.346, 799.515 884.566, 799.752 648.497 L 800.004 397.712 802.454 400.356 C 807.337 405.624, 810.471 403.680, 821.529 388.524 C 824.730 384.137, 827.461 380.987, 827.597 381.524 C 827.733 382.061, 828.046 499.013, 828.293 641.419 C 828.722 889.173, 828.818 900.394, 830.538 901.652 C 835.529 905.301, 835.284 920.065, 834.829 643.105 L 834.407 385.664 836.453 388.567 C 840.789 394.716, 844.601 397.917, 846.878 397.322 C 850.234 396.444, 850.712 394.574, 851.428 379.500 C 852.330 360.520, 853.665 347.604, 856.078 334.500 C 858.172 323.131, 863.699 300.512, 864.956 298.169 C 865.490 297.174, 869.804 296.728, 882.085 296.401 C 934.080 295.013, 955.776 291.988, 964.279 284.939 C 970.801 279.533, 972.235 275.401, 973.105 259.500 C 974.342 236.910, 974.178 84.329, 972.909 77.465 C 970.463 64.236, 965.330 59.797, 949.798 57.479 C 917.105 52.601, 813.939 49.570, 766.500 52.095 M 778.500 58.081 C 744.742 59.326, 705.774 62.655, 696.795 65.060 C 691.778 66.404, 687.599 70.127, 685.360 75.246 C 683.414 79.698, 682.946 116.029, 683.780 198.070 L 684.061 225.640 694.280 223.340 C 699.901 222.075, 710.575 220.320, 718 219.441 C 725.425 218.561, 733.975 217.537, 737 217.165 L 742.500 216.489 743 172.494 C 743.517 126.972, 743.691 125.170, 747.722 123.498 C 751.340 121.997, 826.266 120.889, 858.646 121.857 C 890.990 122.825, 894.005 123.223, 895.854 126.773 C 896.349 127.723, 897.075 152.847, 897.469 182.605 L 898.184 236.710 895.457 238.855 C 893.957 240.035, 892.179 241, 891.504 241 C 890.775 241, 890.033 243.072, 889.673 246.111 C 888.996 251.832, 885.782 256.814, 880.561 260.236 C 877.060 262.531, 876.883 262.880, 870.880 279.410 L 866.918 290.319 889.458 289.644 C 950.974 287.800, 963.180 284.507, 965.988 269 C 967.637 259.898, 967.812 82.711, 966.179 76.369 C 963.640 66.508, 959.843 64.768, 936 62.531 C 890.089 58.226, 824.672 56.377, 778.500 58.081 M 552 94.020 C 505.787 99.380, 472.548 134.777, 470.321 181 C 468.468 219.483, 487.880 253.030, 521.571 269.571 C 574.415 295.514, 636.168 267.097, 650.603 210.194 C 666.820 146.263, 616.162 86.577, 552 94.020 M 564.500 103.472 C 579.575 112.704, 590.460 123.071, 599 136.331 C 602.025 141.027, 605.072 144.899, 605.772 144.935 C 607.753 145.036, 612.845 136.217, 613.561 131.444 C 613.929 128.987, 613.622 124.444, 612.845 120.837 L 611.484 114.527 601.418 109.429 C 589.311 103.298, 580.670 100.934, 568 100.285 L 558.500 99.798 564.500 103.472 M 534 104.376 C 514.965 111.208, 501.679 121.275, 491.058 136.915 L 486.717 143.307 490.109 142.542 C 509.546 138.159, 523.130 138.923, 553.500 146.110 C 572.535 150.614, 583.667 151.760, 592.413 150.118 C 595.665 149.507, 598.515 148.818, 598.747 148.587 C 598.978 148.355, 597.500 145.541, 595.463 142.333 C 585.240 126.237, 572.485 114.310, 557.608 106.939 C 547.184 101.773, 542.630 101.279, 534 104.376 M 619.990 128.554 C 619.978 135.891, 616.822 143.193, 611.731 147.663 L 608.145 150.812 612.187 161.156 C 614.410 166.845, 616.383 171.667, 616.570 171.871 C 618.220 173.675, 634.287 161.073, 637.646 155.340 L 640.304 150.805 638.052 146.153 C 635.130 140.118, 628.157 130.422, 623.597 126.054 L 620 122.608 619.990 128.554 M 764.017 128.689 C 757.152 128.896, 751.095 129.505, 750.558 130.042 C 749.955 130.645, 749.566 147.269, 749.541 173.559 L 749.500 216.100 771 215.442 C 826.670 213.738, 875.322 220.733, 885.405 231.892 C 887.596 234.316, 892.544 234.860, 891.669 232.580 C 891.369 231.799, 891.035 208.423, 890.927 180.635 C 890.750 135.199, 890.567 130.040, 889.115 129.410 C 887.379 128.657, 784.698 128.065, 764.017 128.689 M 305.500 139.687 C 271.835 144.039, 242.922 157.613, 219.613 180.007 C 209.889 189.349, 209.299 189.742, 204.278 190.212 L 199.056 190.701 197.892 187.100 C 189.267 160.438, 158.519 145.223, 126.635 151.840 C 97.418 157.903, 73.783 179.385, 64.843 208 C 60.736 221.145, 61.379 244.967, 66.368 264.500 C 74.801 297.517, 72.099 308.500, 55.544 308.500 C 46.548 308.500, 45.888 310.442, 51.797 319.526 C 72.863 351.911, 121.776 351.044, 143.913 317.892 C 151.860 305.992, 153.423 298.767, 153.516 273.500 L 153.597 251.500 156.549 246 C 158.817 241.773, 160.533 239.979, 163.962 238.250 C 169.013 235.703, 173 235.321, 173 237.384 C 173 238.145, 174.869 240.455, 177.152 242.519 L 181.305 246.270 180.119 254.015 C 175.254 285.799, 182.201 320.703, 198.278 345.251 C 206.978 358.536, 210.696 362.250, 234.330 381.270 C 247.869 392.165, 272.459 402, 286.161 402 C 289.492 402, 292.741 402.852, 296.283 404.654 C 299.152 406.113, 303.661 408.072, 306.302 409.007 C 308.942 409.942, 311.080 410.998, 311.052 411.354 C 311.023 411.709, 311 412.817, 311 413.815 C 311 414.905, 309.599 416.298, 307.490 417.303 C 299.722 421.008, 290.823 431.461, 284.122 444.752 C 279.410 454.097, 277.679 458.737, 266.498 492 C 241.750 565.624, 223.432 599.497, 183.326 645.804 C 174.781 655.670, 174.615 658.818, 182.250 666.163 C 188.476 672.152, 205.875 683.881, 218.585 690.657 C 225.133 694.147, 227.522 695.919, 227.138 697 C 226.845 697.825, 225.439 702.550, 224.014 707.500 C 220.740 718.875, 220.666 718.916, 195.629 723.032 C 176.889 726.112, 176.756 726.119, 174.635 724.179 C 167.216 717.391, 142.658 711.399, 132.960 714.011 C 123.743 716.493, 117.774 726.139, 109.092 752.584 C 97.271 788.592, 97.224 813.320, 108.955 825.050 C 125.258 841.353, 155.602 824.368, 173.808 788.749 L 177.513 781.500 185.506 782.287 C 199.389 783.654, 240.592 782.541, 247.500 780.612 C 263.699 776.089, 275.123 767.743, 283.949 753.985 C 289.598 745.178, 297.436 729.614, 299.220 723.661 L 300.372 719.816 305.936 720.493 C 308.996 720.866, 311.910 721.565, 312.411 722.046 C 313.761 723.344, 311.503 747.205, 308.487 763.500 C 301.931 798.929, 287.535 845.695, 281.765 850.312 C 271.945 858.170, 264.384 867.781, 258.291 880.149 C 252.588 891.726, 253.866 894.622, 273.351 914.274 C 293.615 934.710, 310.529 947.108, 324.369 951.667 C 334.655 955.055, 355.409 955.674, 362.891 952.815 C 366.756 951.338, 369.142 951.254, 382.810 952.113 C 396.352 952.965, 398.537 952.892, 399.884 951.545 C 403.005 948.423, 399.454 947.014, 386.136 946.089 C 372.515 945.142, 372.349 945.085, 374.044 941.918 C 374.707 940.678, 375.250 936.804, 375.250 933.307 C 375.250 924.425, 371.062 916.095, 362.682 908.307 C 357.416 903.413, 356.150 901.557, 354.626 896.500 C 352.505 889.457, 343.574 870.721, 341.529 869.024 C 340.344 868.041, 341.477 865.226, 348.519 851.664 C 367.990 814.165, 381.328 773.801, 386.892 735.533 L 388.632 723.565 397.566 721.773 C 409.332 719.412, 413.037 718.175, 415.750 715.703 C 419.164 712.591, 419.417 717.604, 409.493 592 C 404.333 526.683, 403.171 512.881, 402.411 507.855 L 401.860 504.210 408.620 501.960 C 416.416 499.366, 420 496.314, 420 492.271 C 420 489.701, 420.863 489.024, 429.750 484.624 C 468.222 465.577, 503.320 434.613, 527.773 398.147 C 531.431 392.693, 533.036 391.279, 538.778 388.458 C 548.272 383.794, 549.223 383.042, 565.184 367.564 C 584.681 348.656, 586.139 345.985, 580.199 340.045 L 577.398 337.244 579.859 332.217 C 582.693 326.430, 581.885 322.347, 577.434 319.965 C 575.518 318.939, 575 317.862, 575 314.904 C 575 310.840, 571.533 307, 567.865 307 C 566.580 307, 566 306.277, 566 304.674 C 566 303.395, 564.893 301.308, 563.539 300.037 C 559.961 296.676, 555.724 297.746, 543.935 304.991 C 534.217 310.963, 533.941 311.061, 529.927 309.980 C 526.669 309.103, 525.975 308.533, 526.527 307.189 C 529.277 300.496, 527.595 292.958, 523.027 291.508 C 521.403 290.993, 521 290.006, 521 286.543 C 521 277.692, 515.417 275.471, 506.022 280.585 L 501.027 283.303 498.941 280.652 C 495.180 275.870, 489.496 277.544, 481.927 285.663 C 473.966 294.201, 467.448 305.085, 464.947 314.017 L 463.692 318.500 462.473 310.500 C 460.960 300.568, 458.160 292.270, 452.557 281.113 C 447.815 271.671, 445.615 265.119, 444.012 255.664 C 443.437 252.274, 442.258 246.347, 441.391 242.492 C 439.880 235.773, 439.902 235.229, 441.908 229.274 C 444.499 221.580, 444.731 207.621, 442.415 198.644 C 436.517 175.785, 414.371 156, 394.681 156 C 391.757 156, 387.681 154.560, 380.536 151.001 C 369.485 145.497, 357.387 141.717, 345.566 140.072 C 338.362 139.071, 312.216 138.819, 305.500 139.687 M 306.090 146.119 C 264.124 150.984, 226.739 173.671, 204.158 207.976 C 177.132 249.035, 178.617 309.018, 207.619 347.750 C 210.605 351.738, 213.164 355, 213.306 355 C 213.449 355, 213.390 351.888, 213.175 348.084 C 211.977 326.888, 228.638 313.436, 248.591 319.489 C 251.291 320.308, 253.787 320.983, 254.138 320.989 C 255.009 321.004, 260.456 307.262, 263.448 297.500 C 264.796 293.100, 267.015 286.350, 268.379 282.500 C 272.031 272.189, 274.082 260.685, 274.833 246.299 C 275.410 235.247, 275.736 233.477, 277.247 233.189 C 278.403 232.968, 279.369 233.810, 280.100 235.677 C 281.746 239.876, 280.505 262.713, 278.048 273.449 C 276.922 278.371, 276 282.562, 276 282.761 C 276 284.076, 285.943 275.601, 289.213 271.500 C 299.239 258.925, 305.919 243.877, 309.108 226.681 C 310.248 220.531, 311.378 214.468, 311.620 213.207 C 312.150 210.442, 314.859 209.167, 316.086 211.104 C 318.600 215.075, 315.280 234.594, 309.744 248.381 C 307.841 253.121, 306.473 257, 306.705 257 C 306.936 257, 309.574 255.801, 312.566 254.336 C 329.521 246.034, 345.021 225.786, 351.470 203.514 C 354.303 193.731, 355.066 192.428, 357.433 193.336 C 362.890 195.430, 355.610 217.215, 343.520 234.971 C 337.361 244.016, 337.177 244.551, 339.974 245.283 C 345.292 246.674, 357.858 241.387, 365.788 234.422 C 379.181 222.661, 386.323 206.433, 386.439 187.500 C 386.497 177.915, 386.593 177.487, 388.748 177.181 C 390.382 176.949, 391.255 177.541, 391.942 179.346 C 392.565 180.985, 395.298 183.099, 399.971 185.554 C 412.361 192.065, 424.919 205.354, 432.868 220.366 C 436.744 227.687, 437.517 226.448, 437.460 213 C 437.381 194.476, 428.119 177.553, 413 168.310 C 407.076 164.688, 396.960 161.751, 392.231 162.281 C 389.136 162.627, 387.349 162.279, 385.731 161.014 C 370.527 149.129, 335.932 142.659, 306.090 146.119 M 499.297 147.102 C 490.149 148.628, 483.626 151.359, 482.225 154.248 C 476.771 165.493, 475.049 189.017, 478.517 204.891 L 480.350 213.282 490.425 212.701 C 508.072 211.684, 532.733 205.722, 561.136 195.606 C 575.358 190.541, 605.628 178.166, 608.932 176.067 C 610.656 174.971, 609.460 170.211, 604.965 160.276 L 602.149 154.052 598.825 155.276 C 591.057 158.136, 570.050 156.817, 551.500 152.305 C 525.463 145.972, 513.323 144.762, 499.297 147.102 M 133.497 157.173 C 105.413 160.078, 78.686 182.692, 71.043 210.016 C 66.533 226.141, 67.243 241.656, 73.659 267.150 C 81.093 296.690, 77.796 310.485, 62.333 314.532 L 57.500 315.796 63.247 318.470 C 82.575 327.462, 98.765 316.852, 102.255 292.906 C 103.214 286.326, 103.098 282.182, 101.561 268.022 C 98.217 237.232, 100.750 226.315, 114.555 212.016 C 131.715 194.241, 154.032 191.310, 171.967 204.476 L 176.995 208.167 182.143 202.534 C 184.975 199.435, 188.617 196.215, 190.236 195.378 C 193.740 193.566, 193.574 191.907, 188.921 182.293 C 180.497 164.886, 157.908 154.649, 133.497 157.173 M 639.583 163.915 C 637.500 166.048, 631.763 170.181, 626.834 173.098 C 619.311 177.551, 617.961 178.732, 618.423 180.452 C 618.726 181.578, 619.521 185.936, 620.190 190.136 L 621.406 197.772 626.777 198.404 C 633.421 199.184, 638.681 201.321, 642.158 204.652 L 644.817 207.199 645.979 201.601 C 648.083 191.465, 646.526 163.193, 643.709 160.376 C 643.523 160.189, 641.666 161.782, 639.583 163.915 M 604.500 184.631 C 568.506 201.618, 510.591 219, 489.982 219 C 483.077 219, 482.724 219.519, 485.666 225.345 C 493.429 240.718, 507.324 255.097, 521.173 262.087 L 527.085 265.072 533.685 263.417 C 552.313 258.745, 561.512 251.846, 583.040 226.404 C 595.909 211.194, 601.530 206.133, 610.250 201.905 C 615.552 199.334, 615.662 198.958, 613.906 189.434 C 612.323 180.847, 612.416 180.895, 604.500 184.631 M 392.288 197.469 C 388.903 222.297, 370.780 244.777, 349.508 250.535 C 342.575 252.412, 337.117 251.974, 334.473 249.330 C 333.018 247.875, 332.651 247.952, 330.191 250.222 C 323.550 256.351, 309.099 264, 304.161 264 C 302.984 264, 300.860 266.145, 298.468 269.750 C 293.114 277.819, 284.799 285.481, 277.496 289.076 L 271.276 292.139 269.043 300.319 C 267.814 304.819, 265.256 311.872, 263.357 315.993 C 261.422 320.194, 260.128 324.372, 260.411 325.502 C 261.353 329.256, 259.553 330.664, 255.795 329.112 C 242.108 323.461, 237.145 322.843, 230.316 325.943 C 212.869 333.865, 217.035 363.537, 237.129 374.474 C 246.676 379.670, 262.959 378.574, 268.091 372.390 C 271.124 368.735, 275.402 372.160, 272.672 376.057 C 271.244 378.096, 271.431 378.442, 276.292 382.759 C 288.590 393.682, 304.630 403.222, 312.919 404.544 C 319.962 405.667, 321 406.059, 321 407.590 C 321 408.444, 320.325 409.818, 319.500 410.643 C 318.675 411.468, 318 413.394, 318 414.923 C 318 417.681, 318.065 417.709, 326.012 418.321 C 333.386 418.890, 351.227 423.861, 353.321 425.930 C 353.772 426.376, 356.809 426.069, 360.071 425.247 C 365.817 423.800, 366 423.652, 366 420.438 C 366 417.279, 365.790 417.091, 361.532 416.453 C 356.358 415.677, 354.127 413.757, 355.907 411.612 C 356.698 410.660, 360.261 410.077, 367.279 409.753 C 397.752 408.347, 431.136 388.560, 446.865 362.581 C 454.178 350.503, 456.503 341.291, 456.477 324.500 C 456.449 306.503, 455.382 301.933, 447.017 284 C 440.193 269.369, 439.601 267.569, 437.474 255 C 432.752 227.102, 417.203 201.938, 398.424 191.804 L 393.428 189.108 392.288 197.469 M 199.264 197.804 C 185.557 203.291, 177.229 215.666, 178.201 229.102 C 178.643 235.207, 182.292 241.462, 183.353 237.933 C 187.306 224.793, 194.550 209.767, 201.109 201.101 C 205.374 195.465, 205.326 195.378, 199.264 197.804 M 135.908 204.832 C 114.467 213.495, 103.839 232.903, 106.934 257.748 C 111.960 298.107, 107.056 315.940, 88.404 325.122 C 82.341 328.106, 81.521 328.253, 73.815 327.725 C 64.970 327.119, 64.977 327.267, 74 331.916 C 95.901 343.199, 126.546 334.419, 139.364 313.189 C 146.265 301.759, 147.400 296.029, 147.224 273.500 C 147.049 251.135, 147.603 247.750, 152.655 240.294 C 156.255 234.982, 163.908 230, 168.468 230 C 170.261 230, 170.773 228.894, 172.218 221.905 L 173.892 213.811 171.196 211.465 C 162.436 203.842, 146.003 200.753, 135.908 204.832 M 621.987 213.750 C 621.970 224.949, 619.114 238.741, 614.696 248.960 C 612.785 253.382, 611.544 257, 611.940 257 C 613.499 257, 625.124 245.611, 629.570 239.727 C 634.216 233.579, 642 218.879, 642 216.253 C 642 210.607, 634.297 205, 626.540 205 L 622 205 621.987 213.750 M 608.405 209.878 C 602.264 213.911, 595.802 220.265, 587.433 230.500 C 568.810 253.276, 558.844 261.375, 542.500 267.015 L 537.500 268.741 541.500 269.819 C 551.130 272.416, 562.532 273.277, 572.188 272.138 C 583.187 270.841, 596.505 266.796, 599.735 263.772 C 603.140 260.584, 610.719 244.479, 613.040 235.500 C 615.341 226.598, 616.922 206, 615.305 206 C 614.758 206, 611.653 207.745, 608.405 209.878 M 750.500 222.651 C 703.124 226.382, 678.338 231.397, 673.561 238.217 C 669.559 243.930, 672.870 251.053, 681.722 255.771 C 720.282 276.324, 862.223 273.539, 880.454 251.872 C 884.182 247.442, 884.079 239.925, 880.238 236.084 C 871.166 227.012, 835.896 221.881, 784.573 222.168 C 768.033 222.261, 752.700 222.478, 750.500 222.651 M 759.500 232.119 C 729.067 232.816, 710.821 234.486, 693.832 238.129 C 680.525 240.983, 689.823 249.423, 710.620 253.368 C 739.945 258.931, 811.542 258.949, 844 253.401 C 859.718 250.714, 870 246.225, 870 242.050 C 870 239.130, 867.682 237.978, 857.818 235.995 C 837.588 231.929, 811.929 230.917, 759.500 232.119 M 403.256 232.953 C 398.873 234.023, 397 235.755, 397 238.739 C 397 240.866, 397.331 241.130, 399.250 240.533 C 405.420 238.614, 411.917 238.755, 416.028 240.898 C 420.408 243.180, 422 242.967, 422 240.096 C 422 235.228, 411.043 231.053, 403.256 232.953 M 739.750 238.743 C 735.397 238.935, 732 239.529, 732 240.099 C 732 240.658, 732.488 243.054, 733.085 245.424 L 734.170 249.733 740.232 250.366 C 743.566 250.715, 752.302 251, 759.647 251 L 773 251 773 244.500 L 773 238 760.250 238.201 C 753.237 238.312, 744.013 238.556, 739.750 238.743 M 779.370 240.250 C 779.701 241.488, 779.979 244.412, 779.986 246.750 L 780 251 790.349 251 C 796.041 251, 804.163 250.707, 808.399 250.349 C 816.694 249.648, 817.467 248.958, 819.637 240.308 L 820.217 238 799.492 238 L 778.767 238 779.370 240.250 M 825.336 243.869 L 823.172 249 826.836 248.969 C 835.840 248.893, 859 244.643, 859 243.066 C 859 242.053, 847.237 240.137, 836.235 239.357 L 827.500 238.739 825.336 243.869 M 709.676 241.743 C 703.723 242.573, 699.223 243.569, 699.676 243.957 C 701.828 245.800, 725.385 249.948, 726.630 248.703 C 726.906 248.428, 726.635 246.356, 726.027 244.101 C 724.754 239.372, 725.700 239.508, 709.676 241.743 M 319.440 266.453 C 314.666 269.315, 309.698 277.529, 310.184 281.756 C 310.683 286.089, 313.218 285.027, 316.356 279.171 C 319.482 273.337, 323.271 270.468, 329.161 269.473 C 333.556 268.730, 334.688 267.534, 332.964 265.456 C 331.055 263.156, 324.082 263.670, 319.440 266.453 M 688.336 267.250 C 689.664 270.554, 701.073 306.033, 702.038 309.860 L 703.136 314.220 705.525 311.977 C 706.838 310.743, 709.084 308.043, 710.516 305.978 L 713.118 302.222 710.166 297.361 C 708.542 294.687, 704.805 286.978, 701.861 280.229 C 696.811 268.653, 696.310 267.903, 693.004 266.985 C 688.418 265.711, 687.733 265.750, 688.336 267.250 M 863.849 267.179 C 859.214 268.414, 855.815 274.542, 850.546 291.163 C 848.241 298.436, 844.767 306.471, 841.318 312.507 C 832.995 327.076, 836.853 327.712, 849.407 313.840 C 852.450 310.478, 855.578 305.876, 856.358 303.613 C 860.979 290.217, 868.527 266.016, 868.056 266.103 C 867.750 266.160, 865.857 266.644, 863.849 267.179 M 709.379 281.287 C 717.292 298.129, 716.345 297.226, 719.523 290.954 C 722.012 286.044, 726 275.630, 726 274.044 C 726 273.690, 722.063 272.836, 717.250 272.146 C 712.438 271.456, 707.481 270.640, 706.235 270.333 C 704.138 269.817, 704.372 270.631, 709.379 281.287 M 410.180 272.283 C 405.868 277.479, 406.434 286.198, 411.428 291.493 C 419.798 300.367, 429.009 290.250, 423.373 278.374 C 420.416 272.142, 413.100 268.764, 410.180 272.283 M 839.252 272.229 L 832.004 273.189 827.416 282.273 C 824.892 287.270, 821.142 293.895, 819.082 296.996 L 815.337 302.635 820.418 308.114 C 823.213 311.127, 826.675 314.604, 828.110 315.840 L 830.721 318.086 834.850 311.136 C 839.795 302.812, 840.038 302.234, 845.938 284.750 C 851.221 269.098, 851.991 270.541, 839.252 272.229 M 732.692 274.750 C 732.458 275.163, 731.479 277.975, 730.517 281 C 729.555 284.025, 727.011 290.057, 724.864 294.405 L 720.961 302.310 726.477 309.405 C 729.511 313.307, 733.134 317.780, 734.529 319.344 L 737.065 322.187 739.282 319.440 C 745.780 311.390, 752.997 301.362, 752.998 300.382 C 752.999 299.768, 750.929 296.177, 748.398 292.403 C 745.868 288.629, 742.486 282.944, 740.884 279.770 C 738.541 275.129, 737.497 274, 735.545 274 C 734.210 274, 732.926 274.337, 732.692 274.750 M 806.296 275.256 L 795.093 276.212 796.762 278.856 C 799.941 283.893, 810.093 297, 810.815 297 C 812.013 297, 824 276.581, 824 274.540 C 824 273.886, 820.886 274.012, 806.296 275.256 M 746 275.484 C 746 276.230, 752.919 287.971, 755.085 290.902 L 757.438 294.083 761.782 285.438 C 764.171 280.683, 765.985 276.675, 765.813 276.532 C 765.337 276.136, 746 275.113, 746 275.484 M 772.242 279.250 C 769.306 284.219, 762 298.708, 762 299.564 C 762 299.980, 767.494 305.879, 774.209 312.671 L 786.417 325.020 791.818 319.760 C 794.788 316.867, 799.425 311.882, 802.122 308.682 L 807.026 302.864 801.158 295.682 C 797.930 291.732, 793.407 285.688, 791.107 282.250 L 786.925 276 780.544 276 C 774.406 276, 774.090 276.124, 772.242 279.250 M 488.346 288.249 C 477.301 298.429, 468 318.702, 468 332.594 C 468 336.902, 465.641 342.703, 462.549 346 C 461.260 347.375, 458.765 351.991, 457.006 356.258 C 445.565 384.002, 415.876 406.695, 380.860 414.458 C 373.622 416.063, 373.187 416.314, 372.603 419.236 C 371.814 423.181, 371.088 423.046, 381.500 420.894 C 392.909 418.536, 397.652 418.528, 402.227 420.861 L 405.877 422.722 414.041 418.360 C 449.294 399.524, 488.252 365.691, 502.545 341.500 C 507.782 332.636, 512.713 327.176, 522.439 319.470 L 527.377 315.557 523.939 314.842 C 520.904 314.211, 520.084 314.530, 516.958 317.563 C 512.890 321.510, 511.399 321.834, 510.490 318.968 C 509.997 317.416, 511.143 315.533, 515.335 311.005 C 520.769 305.136, 523.161 299.761, 521.207 297.807 C 519.159 295.759, 516.519 297.714, 511.499 305 C 507.491 310.818, 505.793 312.500, 503.930 312.500 C 499.769 312.500, 500.568 309.333, 506.994 300.349 C 517.992 284.974, 518.010 280.608, 507.048 287.250 C 499.566 291.784, 492.175 305.263, 495.154 308.942 C 497.728 312.121, 499.202 318.383, 498.407 322.765 C 497.358 328.546, 494.182 334.184, 492.197 333.788 C 490.387 333.427, 490.352 332.741, 491.567 321.376 C 492.210 315.367, 492.154 315.176, 488.605 311.247 L 484.987 307.243 488.308 302.372 C 493.741 294.403, 496.951 284, 493.978 284 C 493.415 284, 490.881 285.912, 488.346 288.249 M 333.736 300.250 C 330.091 303.018, 328.984 310.632, 331.390 316.390 C 335.720 326.754, 346.302 326.627, 347.701 316.194 C 349.065 306.019, 339.908 295.563, 333.736 300.250 M 388.635 305.073 C 387.022 306.341, 386 308.132, 386 309.689 C 386 312.420, 386.368 312.432, 392.649 309.905 C 399.392 307.192, 403.660 314.349, 398.904 320.395 C 397.752 321.860, 397.063 323.721, 397.373 324.529 C 399.213 329.324, 408.007 321.270, 407.996 314.800 C 407.982 306.047, 395.419 299.736, 388.635 305.073 M 554.500 305.680 C 546.986 309.688, 522.968 327.088, 517.479 332.500 C 514.131 335.800, 509.890 341.200, 508.054 344.500 C 495.096 367.786, 452.583 404.832, 416.874 423.956 L 409.249 428.040 411.667 434.028 C 416.431 445.821, 420 463.830, 420 476.072 C 420 479.333, 420.261 482, 420.580 482 C 424.741 482, 458.370 461.500, 471.174 451.158 C 489.190 436.607, 519.584 402.328, 525.535 389.848 C 526.792 387.214, 528.280 386.015, 531.885 384.734 C 540.060 381.831, 548.069 375.723, 562.739 361.202 C 572.618 351.424, 576.796 346.632, 576.382 345.554 C 575.434 343.082, 572.679 343.726, 567.735 347.579 C 562.841 351.391, 558.785 351.887, 558.186 348.747 C 557.861 347.042, 559.018 345.712, 567.853 337.624 C 570.182 335.492, 572.969 332.021, 574.046 329.910 C 575.981 326.117, 575.981 326.060, 574.068 325.036 C 571.252 323.529, 571.550 323.356, 563 331.500 C 554.644 339.460, 553.197 340.146, 551.269 337.059 C 550.182 335.318, 551.033 334.201, 559.528 326.228 C 569.918 316.477, 571.596 313, 565.912 313 C 563.538 313, 561.282 314.396, 556.162 319.032 C 549.201 325.335, 545.364 327.208, 543.985 324.976 C 542.690 322.881, 543.715 321.553, 552.070 314.503 C 561.744 306.338, 563.205 301.037, 554.500 305.680 M 754.804 309.252 C 753.322 311.588, 749.834 316.315, 747.054 319.755 C 744.274 323.195, 742 326.354, 742 326.774 C 742 327.194, 746.473 331.993, 751.939 337.439 L 761.878 347.341 766.189 343.740 C 768.560 341.759, 773.104 337.745, 776.287 334.819 L 782.073 329.500 769.869 317.250 C 763.157 310.512, 757.628 305.001, 757.583 305.002 C 757.537 305.003, 756.287 306.915, 754.804 309.252 M 711.180 314.982 L 704.920 321.500 705.582 326.456 C 706.199 331.070, 713.572 343.018, 716.356 343.913 C 717.175 344.177, 732.018 328.147, 731.983 327.037 C 731.974 326.742, 728.698 322.442, 724.703 317.482 L 717.439 308.465 711.180 314.982 M 801.603 318.645 L 791.707 329.043 797.603 334.377 C 800.846 337.311, 804.918 340.904, 806.652 342.362 L 809.803 345.012 814.152 340.175 C 816.543 337.514, 820.491 332.755, 822.924 329.600 L 827.348 323.864 819.424 316.055 L 811.500 308.247 801.603 318.645 M 847.266 324.864 L 843.033 328.526 846.356 331.178 L 849.679 333.829 850.814 327.723 C 851.439 324.364, 851.849 321.523, 851.725 321.410 C 851.601 321.296, 849.595 322.850, 847.266 324.864 M 827.902 333.771 C 825.533 336.922, 821.365 341.869, 818.639 344.765 L 813.682 350.030 821.591 358.263 C 825.941 362.792, 829.804 366.497, 830.175 366.498 C 831.389 366.501, 848 344.904, 848 343.322 C 848 341.769, 837.130 330.675, 833.930 328.963 C 832.534 328.216, 831.395 329.124, 827.902 333.771 M 735.495 333.421 C 734.948 334.203, 731.403 338.257, 727.619 342.431 L 720.738 350.019 726.332 357.260 C 729.409 361.242, 733.011 365.833, 734.338 367.462 L 736.750 370.424 746.625 361.489 C 752.056 356.574, 756.702 352.414, 756.949 352.244 C 757.447 351.902, 737.848 332, 737.014 332 C 736.726 332, 736.042 332.639, 735.495 333.421 M 782.990 337.277 C 781.059 339.050, 776.650 343.002, 773.190 346.059 L 766.901 351.618 776.200 360.780 L 785.500 369.941 795.255 360.235 C 800.620 354.896, 804.895 350.269, 804.755 349.953 C 804.309 348.946, 787.751 333.999, 787.112 334.027 C 786.776 334.042, 784.920 335.504, 782.990 337.277 M 233.223 336.557 C 232 337.413, 231 339.039, 231 340.170 C 231 342.030, 231.416 342.165, 235.338 341.577 C 242.569 340.492, 248.293 343.792, 252.118 351.250 C 255.102 357.070, 258.778 355.959, 257.584 349.598 C 255.708 339.597, 240.503 331.457, 233.223 336.557 M 404.969 349.569 C 392.932 361.934, 379.281 363.334, 369.187 353.239 C 362.081 346.134, 358.774 350.424, 365.564 357.939 C 373.521 366.747, 386.241 368.718, 397.811 362.936 C 405.238 359.225, 412.240 351.814, 411.798 348.132 C 411.335 344.280, 409.804 344.602, 404.969 349.569 M 709 348.956 C 709 351.778, 709.215 352.067, 710.512 350.990 C 711.731 349.978, 711.786 349.421, 710.795 348.117 C 710.119 347.228, 709.439 346.313, 709.283 346.083 C 709.127 345.854, 709 347.147, 709 348.956 M 713 357.282 L 710.500 359.500 711 377.801 L 711.500 396.102 721.850 385.021 L 732.200 373.940 728.350 369.716 C 726.232 367.393, 722.720 363.131, 720.545 360.246 C 716.015 354.239, 716.302 354.352, 713 357.282 M 799.573 364.899 L 789.645 374.892 793.591 379.196 C 795.761 381.563, 799.692 386.313, 802.327 389.750 C 804.961 393.188, 807.284 396, 807.488 396 C 807.693 396, 811.154 391.674, 815.180 386.386 C 819.206 381.099, 823.317 375.710, 824.315 374.411 L 826.131 372.049 817.815 363.478 L 809.500 354.906 799.573 364.899 M 751.717 365.281 C 746.336 370.352, 741.949 374.842, 741.967 375.260 C 741.995 375.898, 756.415 394.571, 759.082 397.422 C 759.590 397.966, 761.701 396.324, 764.222 393.424 C 766.575 390.717, 771.371 385.420, 774.881 381.652 L 781.262 374.800 771.901 365.400 C 766.752 360.230, 762.306 356.014, 762.020 356.031 C 761.734 356.049, 757.098 360.211, 751.717 365.281 M 839.711 365.825 L 834.002 372.891 839.251 381.019 L 844.500 389.148 845.237 374.824 C 845.643 366.946, 845.850 360.108, 845.697 359.630 C 845.545 359.151, 842.851 361.939, 839.711 365.825 M 262.500 382.579 C 260.850 383.311, 257.250 383.950, 254.500 384 L 249.500 384.090 254 386.515 C 259.136 389.283, 276.013 395, 279.047 395 C 280.709 395, 280.394 394.431, 277.285 391.813 C 275.203 390.059, 271.700 386.965, 269.500 384.937 C 265.689 381.423, 265.358 381.311, 262.500 382.579 M 310.153 423.129 C 302.016 426.173, 291.965 440.514, 283.963 460.500 C 282.202 464.900, 276.584 481.100, 271.480 496.500 C 248.488 565.869, 227.653 604.401, 189.506 648.100 C 185.953 652.170, 183.036 656.249, 183.023 657.165 C 182.971 660.912, 204.718 676.580, 222.812 685.832 C 251.128 700.311, 279.771 709.536, 315.500 715.683 C 343.713 720.537, 384.152 719.492, 406.250 713.338 C 413.270 711.383, 413.009 717.511, 408.524 660 C 399.653 546.252, 396.379 507.046, 395.696 506.363 C 395.387 506.054, 391.167 506.720, 386.318 507.842 C 361.683 513.542, 338.052 513.519, 340.247 507.798 C 340.698 506.624, 343.658 506.178, 354.160 505.700 C 372.088 504.884, 394.196 500.628, 408.744 495.192 L 413.500 493.415 413.358 478.957 C 413.197 462.504, 411.043 450.233, 406.038 437.255 C 400.953 424.069, 399.709 423.664, 377.500 427.979 C 346.985 433.908, 334.928 438.543, 324.212 448.465 C 315.652 456.389, 311.700 455.370, 317.657 446.774 C 321.781 440.823, 338.611 430.004, 343.750 430.001 C 344.438 430, 345 429.644, 345 429.209 C 345 427.783, 332.314 425, 322.811 424.342 C 317.690 423.987, 313.275 423.371, 313 422.974 C 312.725 422.577, 311.444 422.647, 310.153 423.129 M 233 698.455 C 233 700.320, 227.468 717.980, 226.300 719.844 C 224.236 723.137, 218.118 725.512, 206.500 727.530 C 194.569 729.602, 194.619 729.570, 193.219 736.238 C 190.282 750.232, 191.049 762.060, 195.530 771.846 L 198.005 777.252 218.252 776.740 C 240.286 776.183, 248.793 774.672, 258.994 769.503 C 271.250 763.293, 282.853 747.549, 292.287 724.331 L 294.763 718.238 282.132 715.008 C 269.543 711.790, 249.599 705.008, 239.217 700.417 C 233.458 697.871, 233 697.726, 233 698.455 M 130.243 722.449 C 121.008 730.220, 106.888 774.391, 106.733 796 C 106.624 811.066, 110.529 821.594, 117.073 823.875 C 118.765 824.465, 119.980 824.622, 119.772 824.224 C 108.783 803.142, 111.130 782.652, 129.622 738.244 C 133.130 729.820, 136 722.269, 136 721.464 C 136 719.271, 133.515 719.696, 130.243 722.449 M 142.391 722.750 C 142.034 724.263, 139.286 731.305, 136.282 738.399 C 117.525 782.705, 114.819 807.100, 126.938 822.631 C 128.579 824.735, 128.659 824.739, 133.268 822.990 C 138.413 821.037, 145.904 815.845, 150.419 811.103 C 154.040 807.300, 153.535 805.852, 145.593 797.274 C 139.950 791.179, 138.788 788.402, 141.453 787.380 C 143.230 786.698, 151.082 793.052, 155.002 798.345 L 157.850 802.190 160.925 797.945 C 164.730 792.693, 164.737 792.844, 160.558 789.871 C 154.086 785.265, 148.066 775.878, 149.383 772.444 C 150.433 769.707, 153.360 771.328, 156.729 776.513 C 160.335 782.062, 164.646 785.987, 167.143 785.995 C 169.830 786.003, 172.215 779.020, 170.386 776.500 C 169.587 775.400, 167.507 771.583, 165.764 768.017 C 160.026 756.284, 160.968 737.305, 167.616 730.657 L 170.265 728.007 164.383 725.402 C 159.231 723.121, 147.826 720.068, 144.269 720.017 C 143.592 720.008, 142.747 721.237, 142.391 722.750 M 319 728.746 C 319 747.099, 309.939 793.367, 301.531 817.949 L 298.984 825.399 302.660 829.164 C 310.476 837.168, 325.665 843, 338.696 843 L 345.971 843 348.995 837.010 C 357.762 819.642, 368.478 789.343, 374.522 764.829 C 377.481 752.830, 381.998 729.073, 382 725.500 C 382.001 724.861, 373.418 724.500, 358.250 724.500 C 345.188 724.500, 331.012 724.144, 326.750 723.708 L 319 722.917 319 728.746 M 178.094 732.330 C 172.632 733.780, 170.369 736.715, 168.857 744.308 C 166.673 755.277, 172.168 772.593, 178.609 775.041 C 180.794 775.872, 190.001 776.445, 189.999 775.750 C 189.999 775.612, 189.038 773.025, 187.864 770 C 185.049 762.750, 184.263 747.149, 186.240 737.750 L 187.659 731 185.080 731.080 C 183.661 731.125, 180.517 731.687, 178.094 732.330 M 293.300 841.710 L 290.100 850.405 292.149 854.051 C 296.080 861.046, 313.080 868.924, 324.349 868.974 C 331.342 869.005, 333.273 867.342, 339.309 856.097 L 343.117 849 335.309 848.989 C 323.626 848.973, 311.880 844.716, 302.024 836.925 C 299.293 834.766, 296.933 833.003, 296.779 833.007 C 296.626 833.011, 295.060 836.927, 293.300 841.710 M 279.260 860.750 C 273.947 865.928, 267 875.636, 267 877.882 C 267 880.023, 308.545 920.930, 316.309 926.433 C 330.530 936.514, 345.913 940.044, 358.699 936.160 C 368.235 933.264, 369.478 931.759, 367.392 925.638 C 365.642 920.503, 357.476 910.815, 352.904 908.450 C 349.019 906.441, 346.472 906.619, 338.051 909.483 C 330.275 912.128, 329 912.043, 329 908.886 C 329 906.371, 338.373 901.945, 345.188 901.241 L 349.875 900.758 347.874 895.680 C 346.773 892.888, 345.689 890.305, 345.464 889.941 C 345.238 889.577, 342.905 890.320, 340.277 891.593 C 333.627 894.814, 320.160 896.589, 318.089 894.517 C 315.582 892.010, 318.590 890.156, 328.054 888.374 C 336.984 886.694, 342 884.693, 342 882.812 C 342 882.187, 340.832 879.682, 339.404 877.246 C 337.215 873.510, 336.471 872.934, 334.654 873.563 C 321.913 877.974, 299.162 871.409, 289.005 860.390 C 286.780 857.975, 284.773 856, 284.546 856 C 284.319 856, 281.940 858.138, 279.260 860.750 M 262.053 887.278 C 260.527 891.654, 263.352 895.567, 279.903 912.001 C 302.035 933.976, 317.465 944.233, 333.208 947.433 C 347.255 950.289, 361.188 948.573, 365.750 943.427 C 369.267 939.459, 368.458 939.035, 362.250 941.588 C 355.330 944.434, 344.547 944.795, 335.460 942.485 C 319.833 938.513, 307.098 929.069, 279.815 901.221 L 263.129 884.191 262.053 887.278 M 247.943 937.027 C 219.314 939.087, 202.500 942.238, 202.500 945.544 C 202.500 947.971, 204.833 947.971, 224.500 945.543 C 232.200 944.592, 246.472 943.518, 256.215 943.156 C 269.965 942.645, 274.266 942.163, 275.429 940.999 C 279.831 936.596, 271.224 935.352, 247.943 937.027" stroke="none" fill="#1a1a1a" fill-rule="evenodd"/>
</svg>