<svg xmlns="http://www.w3.org/2000/svg" width="1024" height="1024" viewBox="0 0 1024 1024" version="1.1">
	<path d="M 452 19.598 C 430.279 21.381, 421.064 22.411, 411.552 24.119 C 338.549 37.227, 281.968 73.402, 249.243 127.890 C 245.738 133.726, 242.562 138.479, 242.185 138.454 C 241.808 138.429, 238.813 137.581, 235.530 136.569 C 200.602 125.809, 160.073 148.540, 139.136 190.632 C 130.298 208.401, 127.441 223.632, 128.281 248.500 C 128.994 269.623, 130.950 278.941, 141.026 309.210 C 151.835 341.682, 151.394 357.321, 139.371 367.905 C 130.846 375.409, 122.716 375.440, 114.584 367.998 C 108.801 362.706, 106.802 362.310, 103.012 365.704 C 100.465 367.984, 99.736 369.607, 99.059 374.500 C 95.853 397.676, 113.200 423.159, 138.989 433.159 C 143.633 434.960, 144.941 435.954, 145.349 437.994 C 145.631 439.406, 147.717 442.669, 149.984 445.244 C 163.548 460.654, 200.792 464.960, 228.938 454.373 C 252.956 445.339, 272.305 425.706, 277.551 405.046 C 278.465 401.446, 279.389 397.902, 279.605 397.171 C 279.871 396.271, 281.368 397.020, 284.249 399.494 C 301.930 414.684, 330.096 416.023, 344.149 402.343 C 347.566 399.017, 347.840 398.921, 348.447 400.832 C 348.803 401.955, 352.561 405.983, 356.797 409.783 C 377.153 428.045, 396.401 437.785, 425.429 444.514 L 437.358 447.279 428.345 449.950 C 404.239 457.093, 365.318 481.451, 325.632 514.231 L 322.764 516.600 325.475 521.951 L 328.187 527.303 324.952 529.901 C 316.301 536.849, 296.939 549.846, 283 558.062 C 274.475 563.086, 260.934 571.132, 252.909 575.941 L 238.317 584.685 231.248 580.383 C 221.035 574.168, 199.714 563.603, 191 560.439 C 175.434 554.787, 162.140 557.407, 160.441 566.462 C 159.930 569.189, 159.218 570.013, 156.941 570.513 C 152.515 571.485, 147.699 577.556, 148.310 581.391 C 148.642 583.469, 147.980 586.222, 146.312 589.697 C 140.753 601.278, 148.927 610.200, 175 621.010 C 181.875 623.861, 189.616 627.198, 192.202 628.427 L 196.904 630.662 189.969 633.875 C 178.367 639.251, 173.833 648.934, 179.897 655.390 C 184.493 660.283, 188.684 660.727, 205 658.049 C 208.025 657.552, 215.225 657.102, 221 657.049 C 236.578 656.904, 247.920 653.321, 255.812 646.051 C 257.633 644.373, 259.345 643, 259.617 643 C 260.934 643, 294.663 626.556, 311.500 617.706 C 331.229 607.336, 357.119 592.213, 365.115 586.389 L 369.731 583.027 375.115 585.996 C 381.521 589.526, 384.787 589.742, 388.434 586.873 L 391.138 584.746 390.437 588.623 C 389.373 594.503, 385.096 608.984, 383.064 613.583 C 376.408 628.648, 348.743 663.268, 316.032 697.465 C 286.189 728.664, 288.756 725.591, 289.506 729.223 C 292.012 741.357, 323.020 768.646, 352.275 784.464 L 361.020 789.192 358.794 793.153 C 357.569 795.332, 356.012 797.575, 355.334 798.138 C 353.875 799.349, 323.277 799.614, 308.375 798.546 C 283.396 796.756, 269.442 807.428, 255.600 838.908 C 236.829 881.602, 240.425 919.307, 264.460 931.798 C 271.360 935.384, 281.386 935.541, 288.231 932.170 C 301.897 925.440, 317.478 902.687, 324.642 879 C 327.843 868.416, 327.453 868.767, 334.020 870.534 C 348.097 874.322, 382.568 874.078, 398.197 870.079 C 414.513 865.903, 423.040 859.799, 432.466 845.545 C 438.604 836.263, 447.193 819.526, 446.284 818.618 C 445.377 817.711, 446.994 817.841, 463.500 820 C 471.750 821.079, 480.448 821.971, 482.830 821.981 L 487.159 822 486.564 828.250 C 486.237 831.688, 485.059 843.950, 483.947 855.500 C 482.835 867.050, 481.280 885.725, 480.492 897 C 479.704 908.275, 478.751 921.775, 478.375 927 C 477.918 933.359, 477.226 936.841, 476.283 937.533 C 474.630 938.744, 471.225 955.160, 470.332 966.223 C 469.574 975.597, 471.405 981.392, 476.551 985.910 C 490.585 998.233, 573.365 1003.693, 599.259 994.004 C 621.200 985.795, 621.070 963.805, 599 950.121 C 583.654 940.606, 570.596 933.953, 561.500 931.014 C 557.650 929.770, 554.165 928.450, 553.755 928.081 C 553.345 927.711, 556.174 911.455, 560.042 891.955 C 568.593 848.843, 570.749 835.902, 571.618 822.468 L 572.286 812.131 577.393 810.926 C 601.413 805.258, 631.102 791.622, 645.076 779.839 C 653.448 772.780, 654.399 778.077, 633.598 715.927 C 609.261 643.213, 602.695 621.951, 598.425 602.022 C 596.478 592.935, 594.622 584.424, 594.299 583.109 C 593.757 580.901, 594.126 581.029, 599.106 584.771 C 607.680 591.214, 625.304 600.535, 634.785 603.643 C 648.326 608.082, 663.740 607.865, 673.521 603.099 C 686.973 596.544, 703.044 578.444, 723.738 546.541 L 734.730 529.595 742.115 528.017 C 746.177 527.149, 750.017 526.116, 750.649 525.723 C 751.315 525.308, 756.993 528.909, 764.149 534.285 C 780.901 546.870, 782.913 547.542, 792.057 543.605 C 799.318 540.478, 799.991 597.368, 793.829 693.500 C 786.208 812.401, 797.579 869.805, 836.426 908.543 C 856.166 928.227, 878.476 940.024, 904.381 944.474 C 919.815 947.126, 921.595 946.687, 920.437 940.517 C 919.785 937.040, 919.719 937, 914.639 936.978 C 887.127 936.862, 848.983 915.350, 830.592 889.577 C 802.450 850.139, 794.039 783.187, 803.008 670 C 805.244 641.770, 806.006 622.557, 806.046 593.314 C 806.090 561.219, 805.359 551.971, 801.984 541.953 C 800.005 536.077, 800.002 535.915, 801.850 532.239 C 807.909 520.185, 807.660 519.593, 789.596 503.041 C 780.868 495.044, 776.149 490.029, 776.420 489.041 C 777.887 483.678, 778.364 482.439, 779.156 481.928 C 781.761 480.246, 778.066 467.706, 771.415 455.655 C 752.076 420.617, 742.993 412.656, 722 412.344 C 716.225 412.258, 710.762 412.145, 709.861 412.094 C 708.475 412.015, 708.161 410.337, 707.831 401.250 C 707.358 388.209, 704.442 381.718, 694.144 370.782 C 687.860 364.109, 676.369 357, 671.866 357 C 669.612 357, 669.604 356.718, 671.531 346 C 675.427 324.340, 674.475 308.416, 667.579 279.868 C 665.635 271.820, 662.831 258.013, 661.346 249.184 L 658.648 233.132 662.436 228.939 C 675.561 214.411, 683.232 173.015, 678.551 141.968 C 673.650 109.454, 651.166 78.623, 621.500 63.736 C 608.839 57.382, 588.394 52, 576.922 52 C 572.714 52, 571.302 51.391, 565.733 47.177 C 548.042 33.786, 528.200 26.532, 497 22.048 C 483.655 20.131, 460.722 18.882, 452 19.598 M 447.500 28.588 C 407.584 31.587, 372.649 40.434, 343.227 54.995 C 291.968 80.364, 258.061 117.741, 239.483 169.353 L 236.657 177.207 238.541 180.705 C 241.857 186.863, 256.307 198.016, 266.500 202.285 C 272.928 204.977, 284.488 207.828, 291.958 208.565 C 298.639 209.223, 300.965 210.629, 299.444 213.090 C 298.498 214.621, 286.981 214.063, 277.848 212.043 C 261.653 208.462, 247.625 200.938, 238.762 191.081 L 234.221 186.029 233.109 192.265 C 230.410 207.393, 229.869 212.428, 229.317 227.500 C 227.695 271.823, 235.934 305.922, 256.320 339.259 L 261.676 348.018 262.935 340.975 C 266.615 320.382, 278.846 310.469, 300.500 310.527 C 311.201 310.555, 317.151 312.010, 326.500 316.883 C 329.250 318.316, 331.816 319.634, 332.202 319.811 C 333.093 320.222, 338.518 309.514, 341.725 301.013 C 345.384 291.314, 347 281.206, 347 268.020 C 347 256.367, 346.969 256.209, 344.579 255.609 C 341.906 254.938, 339 255.718, 339 257.107 C 339 257.598, 337.425 258, 335.500 258 C 330.566 258, 330.702 254.335, 335.867 248.139 C 350.248 230.886, 365 192.550, 365 172.431 C 365 170.418, 366.687 169, 369.082 169 C 370.522 169, 370.159 180.713, 368.398 191.074 C 365.569 207.718, 358.586 226.632, 349.627 241.919 C 347.632 245.322, 346 248.374, 346 248.700 C 346 249.607, 359.980 248.224, 368.717 246.453 C 381.217 243.920, 396.405 238.376, 412.500 230.474 C 461.194 206.567, 494.173 171.765, 507.950 129.750 C 510.175 122.965, 511.665 121.687, 514.031 124.537 C 515.836 126.713, 512.675 138.935, 506.023 155.500 C 500.127 170.179, 493 189.679, 493 191.128 C 493 193.883, 509.745 187.903, 519.275 181.745 C 547.650 163.410, 564.244 137.427, 566.624 107.605 C 567.394 97.963, 568.634 94.578, 570.294 97.590 C 570.872 98.641, 572.168 100.088, 573.173 100.807 C 574.541 101.785, 575 103.421, 575 107.320 L 575 112.527 580.250 113.751 C 603.305 119.127, 628.772 143.133, 641.512 171.500 C 647.160 184.076, 656 214.110, 656 220.725 C 656 224.851, 657.673 223.108, 661.254 215.250 C 671.641 192.463, 674.541 156.845, 667.947 133.051 C 656.660 92.321, 619.368 62.925, 575.952 60.536 C 568.453 60.123, 567.653 59.857, 563.714 56.464 C 543.884 39.378, 510.543 29.569, 469 28.598 C 459.925 28.386, 450.250 28.382, 447.500 28.588 M 790.639 84.750 C 789.304 89.463, 788.988 101.617, 789.942 111.500 C 790.527 117.550, 791.298 130.214, 791.656 139.643 L 792.306 156.787 786.935 155.393 C 775.043 152.308, 761.838 156.607, 757.053 165.119 C 754.039 170.483, 754.253 177.959, 757.533 181.857 C 767.050 193.167, 794.807 184.446, 799.065 168.807 C 801.249 160.783, 800.242 120.375, 797.352 100.083 L 796.723 95.666 799.762 97.830 C 801.433 99.020, 805.658 101.323, 809.150 102.946 C 821.084 108.494, 824.115 113.635, 820.895 122.872 C 819.585 126.629, 820.965 129, 824.462 129 C 829.027 129, 831.560 116.374, 828.567 108.537 C 826.460 103.019, 822.987 100.021, 812.723 94.861 C 808.344 92.659, 802.524 89.089, 799.791 86.929 C 794.428 82.690, 791.425 81.975, 790.639 84.750 M 571.652 127.951 C 564.756 154.723, 540.082 182.390, 511.204 195.732 C 501.929 200.018, 491.547 201.244, 487.423 198.542 C 485.007 196.958, 484.808 196.352, 485.237 191.883 L 485.710 186.966 475.105 197.275 C 443.519 227.978, 399.935 250.863, 364.980 255.100 L 355.043 256.304 355.651 264.902 C 356.896 282.507, 352.498 300.742, 342.362 320 C 339.322 325.775, 336.506 330.844, 336.102 331.265 C 335.699 331.686, 331.588 329.757, 326.966 326.979 C 308.410 315.827, 288.608 315.339, 278.738 325.790 C 265.411 339.903, 269.763 372.980, 287.240 390.408 C 303.773 406.895, 326.393 408.387, 342.458 394.051 C 349.250 387.989, 349.501 387.860, 352.378 388.954 C 354.507 389.763, 355 390.598, 355 393.394 C 355 396.391, 355.942 397.702, 362.250 403.493 C 383.173 422.698, 404.244 432.220, 442 439.534 C 455.583 442.166, 468.726 445.211, 474.750 447.123 C 477.482 447.991, 478 448.642, 478 451.208 C 478 454.650, 476.515 454.717, 463.709 451.861 C 459.104 450.834, 457.514 450.823, 455.943 451.803 C 454.286 452.838, 453.504 452.693, 451.082 450.902 C 444.110 445.748, 446.320 450.270, 455.083 459.089 C 475.560 479.698, 493.045 487.692, 506.450 482.572 C 515.222 479.222, 524.099 466.979, 526.360 455.112 L 527.005 451.723 520.552 452.384 L 514.099 453.046 513.430 449.476 C 512.562 444.851, 511.982 445.138, 524.594 443.961 C 552.592 441.348, 571.936 435.885, 589.200 425.717 L 596.500 421.417 597.114 408.959 C 597.974 391.505, 602.535 379.601, 612.332 369.243 C 622.417 358.579, 632.135 354.763, 649.606 354.608 L 661.713 354.500 662.969 347 C 664.823 335.925, 665.426 312.750, 664.086 304 C 663.454 299.875, 661.163 289.075, 658.994 280 C 656.826 270.925, 653.664 255.175, 651.968 245 C 643.387 193.504, 635.159 170.608, 617.452 148.946 C 606.632 135.711, 589.702 124.405, 576.479 121.586 C 573.460 120.942, 573.457 120.946, 571.652 127.951 M 207.490 142.953 C 194.195 145.806, 181.955 152.503, 170.469 163.207 C 134.257 196.956, 126.764 243.769, 148.064 303.168 C 158.759 332.990, 160.210 349.267, 153.445 363.500 C 145.005 381.255, 125.479 387.528, 111.809 376.876 C 106.995 373.126, 106.998 373.124, 107.012 379.250 C 107.073 406.240, 135.123 430.080, 166.697 429.978 C 174.420 429.953, 179.631 428.019, 185.235 423.098 L 188.840 419.933 190.420 422.189 C 192.759 425.529, 192.444 426.439, 187.421 430.861 C 181.163 436.369, 174.684 438.397, 163.163 438.454 L 153.826 438.500 157.494 441.676 C 172.258 454.459, 209.125 455.526, 232.329 443.842 C 253.935 432.962, 264.302 420.384, 271.913 395.815 L 273.984 389.130 270.609 382.088 C 268.753 378.215, 266.425 371.998, 265.436 368.273 C 263.937 362.627, 262.712 360.499, 258.069 355.480 C 219.460 313.749, 208.633 224.412, 234.172 158.295 C 236.397 152.533, 237.832 147.477, 237.359 147.060 C 233.253 143.433, 216.186 141.087, 207.490 142.953 M 873.389 155.428 C 873.088 156.213, 873.368 160.330, 874.012 164.576 C 875.422 173.881, 874.625 185.603, 870.445 217 C 868.124 234.430, 868.666 233.176, 864.246 231.330 C 855.779 227.792, 839.981 232.225, 834.242 239.750 C 828.060 247.855, 831.359 257.687, 841.040 260.010 C 854.622 263.268, 871.550 252.459, 875.970 237.705 C 877.347 233.108, 881.956 200.179, 881.982 194.750 C 881.999 191.293, 883.176 189.857, 884.387 191.818 C 884.665 192.268, 889.384 195.664, 894.872 199.365 C 904.508 205.862, 912 212.770, 912 215.158 C 912 215.808, 912.871 215.521, 914 214.500 C 916.533 212.208, 916.533 211.343, 914 234 C 912.924 243.625, 912.033 251.950, 912.021 252.500 C 912.007 253.089, 908.399 253.500, 903.249 253.500 C 887.713 253.500, 878.037 260.342, 877.200 271.917 C 876.838 276.923, 877.101 278.006, 879.308 280.570 C 881.747 283.402, 882.126 283.499, 890.666 283.481 C 905.362 283.448, 915.272 277.219, 918.408 266.043 C 920.116 259.956, 922.967 234.712, 925.064 207.112 C 926.821 183.994, 926.575 183.553, 906.005 172.921 C 898.954 169.276, 890.891 164.119, 886.378 160.367 C 878.763 154.036, 874.540 152.430, 873.389 155.428 M 581.575 162.917 C 578.868 165.908, 581.004 168.998, 585.785 169.007 C 590.075 169.015, 605.099 172.452, 608.318 174.161 C 609.518 174.799, 612.904 177.273, 615.842 179.660 C 621.439 184.208, 623.972 184.943, 625.927 182.587 C 628.641 179.317, 622.232 170.670, 614.008 166.506 C 602.844 160.853, 585.209 158.901, 581.575 162.917 M 883 174.804 C 883 181.442, 881.997 180.375, 898.950 191.781 C 904.203 195.315, 910.413 200.054, 912.750 202.312 L 917 206.416 917 198.247 C 917 188.444, 916.930 188.356, 903.711 181.503 C 898.645 178.877, 891.913 174.986, 888.750 172.857 L 883 168.985 883 174.804 M 427.500 188.383 C 415.393 191.428, 404.881 199.707, 399.485 210.446 C 396.276 216.833, 396.313 218.789, 399.655 219.628 C 402.924 220.449, 404.906 219.296, 407.500 215.067 C 414.047 204.392, 427.274 196.012, 437.619 195.985 C 445.529 195.964, 446.395 195.305, 444.225 190.956 C 442.628 187.757, 442.129 187.486, 437.500 187.313 C 434.750 187.210, 430.250 187.691, 427.500 188.383 M 235.660 239.443 C 234.602 242.200, 240.430 251.522, 247.724 258.737 C 259.866 270.749, 284 280.819, 284 273.874 C 284 271.831, 283.043 271.164, 277.250 269.171 C 264.082 264.642, 251.067 255.309, 243.453 244.936 C 239.269 239.237, 236.491 237.278, 235.660 239.443 M 595.844 244.908 C 586.270 252.439, 584.077 273.356, 591.884 282.682 C 598.938 291.108, 607.171 292.266, 613.449 285.715 C 622.522 276.246, 622.211 261.201, 612.719 250.419 C 606.455 243.302, 600.400 241.325, 595.844 244.908 M 437.832 273.709 C 428.909 279.244, 427.365 297.797, 434.893 309.007 C 445.937 325.451, 462.956 318.169, 462.956 297 C 462.956 287.847, 460.988 283.010, 455.104 277.705 C 448.506 271.756, 443.024 270.488, 437.832 273.709 M 544.483 288.471 C 538.800 291.397, 535.784 299.026, 539.322 301.527 C 541.343 302.957, 541.608 302.905, 543 300.806 C 546.036 296.226, 547.947 295, 552.045 295 C 560.384 295, 563.285 302.148, 558.655 311.292 L 556.311 315.924 558.982 318.482 C 561.518 320.912, 561.731 320.952, 563.210 319.271 C 571.236 310.144, 570.898 294.911, 562.547 289.439 C 558.926 287.066, 548.315 286.497, 544.483 288.471 M 567.500 340.582 C 536.861 351.236, 514.766 353.160, 500.108 346.449 L 494.510 343.886 492.832 345.960 C 490.350 349.025, 487.738 361.654, 488.480 367 C 490.810 383.785, 503.553 405.218, 513.435 408.975 C 523.121 412.658, 540.358 410.766, 550.677 404.886 C 569.513 394.155, 584.765 366.188, 583.794 344.162 C 583.502 337.542, 583.481 337.499, 580.500 337.303 C 578.850 337.194, 573 338.670, 567.500 340.582 M 295 345.792 C 289.874 348.590, 288.142 352.587, 290.873 355.318 L 292.964 357.409 296.024 354.477 C 299.527 351.121, 303.906 350.659, 310.761 352.921 L 314.928 354.296 312.504 357.178 C 306.787 363.972, 309.034 374.737, 317.066 379.035 C 320.254 380.741, 321.609 376.664, 319.049 373.069 C 315.777 368.474, 317.281 360, 321.369 360 C 322.945 360, 326.388 364.600, 328.379 369.365 C 329.215 371.364, 330.541 373, 331.327 373 C 339.692 373, 328.102 352.931, 316.304 346.989 C 309.757 343.692, 299.866 343.136, 295 345.792 M 573.612 353.487 C 573.246 357.056, 572.700 360.768, 572.398 361.737 C 571.883 363.390, 571.918 363.392, 572.960 361.776 C 574.095 360.014, 575.700 347, 574.783 347 C 574.504 347, 573.977 349.919, 573.612 353.487 M 638.318 363.690 L 633.136 365.218 632.456 371.563 C 631.662 378.980, 634.365 389.538, 638.303 394.400 L 640.651 397.300 642.765 393.900 C 643.927 392.030, 646.899 388.526, 649.367 386.112 L 653.856 381.725 651.763 378.893 C 650.429 377.089, 649.497 373.979, 649.193 370.318 C 648.481 361.730, 647.334 361.031, 638.318 363.690 M 497 365.570 C 497 375.246, 505.026 393.558, 511.240 398.059 C 522.462 406.188, 541.893 404.254, 553.119 393.891 L 557.125 390.191 554.153 384.346 C 546.996 370.269, 534.970 365.070, 509.450 365.020 C 502.991 365.007, 498.971 364.571, 498.200 363.800 C 497.267 362.867, 497 363.260, 497 365.570 M 653.432 368.199 C 654.081 373.088, 656.804 379.394, 657.971 378.709 C 661.249 376.787, 670.463 373, 671.862 373 C 674.555 373, 674.947 372.146, 673.783 368.807 C 672.395 364.825, 667.877 363, 659.403 363 L 652.742 363 653.432 368.199 M 679.524 370.146 C 680.470 373.219, 680.466 373.216, 683.014 372.831 C 685.060 372.521, 684.994 372.349, 681.999 370.146 L 678.799 367.792 679.524 370.146 M 624.465 370.858 C 613.934 377.280, 605.071 395.285, 605.017 410.365 L 605 415.230 607.465 413.615 C 610.702 411.494, 611.505 411.570, 614.109 414.250 C 616.096 416.296, 616.222 416.318, 615.494 414.500 C 610.376 401.718, 608.552 389.769, 611.545 388.621 C 614.007 387.676, 615.060 389.029, 615.726 393.992 C 616.156 397.201, 616.512 397.836, 617.197 396.613 C 619.640 392.248, 620.186 396.678, 617.814 401.625 C 616.519 404.327, 619.321 411.018, 623.959 416.301 C 627.373 420.189, 629 420.933, 629 418.605 C 629 417.838, 630.751 413.727, 632.890 409.470 L 636.780 401.729 633.582 397.539 C 629.120 391.694, 626.749 383.561, 627.164 375.519 C 627.349 371.931, 627.500 368.998, 627.500 369.002 C 627.500 369.005, 626.134 369.840, 624.465 370.858 M 670.500 380.222 C 658.798 384.373, 645.177 399.356, 637.975 416 C 635.868 420.867, 635.589 423.052, 635.547 434.985 L 635.500 448.470 641.895 450.757 C 649.349 453.422, 649.720 453.294, 647.423 448.851 C 638.935 432.437, 654 400.428, 673.715 392.986 C 681.355 390.103, 692.142 390.541, 696.900 393.929 L 700.054 396.174 698.372 391.837 C 696.470 386.933, 694.265 384, 692.480 384 C 691.814 384, 690.084 383.067, 688.635 381.927 C 687.186 380.788, 686 380.203, 686 380.627 C 686 381.052, 685.460 380.860, 684.800 380.200 C 683.343 378.743, 674.632 378.756, 670.500 380.222 M 675 400.075 C 662.353 405.784, 649.981 426.526, 651.325 439.768 C 651.970 446.124, 654.976 451.333, 658.948 452.979 C 662.740 454.549, 664 453.677, 664 449.479 C 664 447.607, 665.077 442.684, 666.394 438.538 C 667.710 434.392, 668.498 431.007, 668.144 431.015 C 666.323 431.059, 665.002 432.841, 665.612 434.431 C 666.247 436.085, 666.095 436.101, 663.323 434.667 C 658.508 432.177, 657.161 430, 660.437 430 C 661.970 430, 662.853 429.572, 662.500 429 C 662.151 428.435, 662.970 428, 664.382 428 C 665.757 428, 667.160 428.450, 667.500 429 C 668.572 430.735, 669.487 430.110, 671.523 426.250 C 672.610 424.188, 675.663 420.367, 678.307 417.760 C 680.951 415.152, 682.448 413.275, 681.634 413.587 C 680.760 413.922, 679.712 413.331, 679.078 412.145 C 678.486 411.040, 677.095 409.848, 675.987 409.496 C 674.878 409.144, 674.234 408.431, 674.555 407.912 C 674.876 407.392, 675.587 407.245, 676.136 407.584 C 676.684 407.923, 677.728 407.387, 678.455 406.392 C 679.683 404.713, 679.926 404.829, 681.884 408.042 C 683.044 409.944, 684.106 411.790, 684.246 412.143 C 684.386 412.497, 688.212 412.951, 692.750 413.151 C 702.197 413.568, 702.613 413.083, 698.960 405.921 C 694.969 398.099, 684.849 395.630, 675 400.075 M 608.222 418.178 C 607.550 418.850, 607 421.075, 607 423.123 C 607 429.403, 613.557 435.418, 622.141 437.015 L 625.782 437.692 626.277 431.596 C 626.668 426.787, 626.444 425.289, 625.216 424.500 C 624.359 423.950, 621.935 421.985, 619.829 420.134 C 617.723 418.282, 616 417.322, 616 418 C 616 419.172, 614.477 419.049, 610.972 417.592 C 610.131 417.242, 608.894 417.506, 608.222 418.178 M 685.262 420.435 C 679.855 422.870, 673.203 435.382, 670.923 447.406 C 669.671 454.007, 670.637 454.884, 676.748 452.693 C 679.362 451.757, 682.680 450.992, 684.123 450.995 C 686.530 451, 686.784 450.601, 687.212 446.141 C 687.728 440.771, 692.408 429.953, 696.584 424.478 C 698.066 422.535, 699.095 420.762, 698.871 420.538 C 697.535 419.202, 688.157 419.131, 685.262 420.435 M 711 422.626 C 704.753 425.406, 698 433.823, 698 438.831 C 698 441.414, 702.153 446, 704.493 446 C 706.823 446, 707.294 448.017, 705.443 450.063 C 704.430 451.182, 704.178 452, 704.845 452 C 705.480 452, 706 451.586, 706 451.081 C 706 449.081, 716.536 438.792, 722.102 435.356 C 725.346 433.354, 728 431.532, 728 431.308 C 728 430.126, 724.946 425.261, 723.226 423.705 C 720.498 421.235, 715.181 420.766, 711 422.626 M 730.522 423.750 C 730.926 424.712, 731.479 426.525, 731.751 427.779 C 732.137 429.564, 732.705 429.919, 734.372 429.416 C 738.041 428.311, 738.328 427.237, 735.668 424.577 C 732.646 421.555, 729.378 421.030, 730.522 423.750 M 593.109 433.131 C 587.281 437.268, 571.013 444.016, 561.750 446.138 C 554.837 447.721, 554.756 447.986, 560.467 450.334 C 580.632 458.626, 639.485 500.526, 644.218 509.960 C 645.163 511.844, 646.738 513.807, 647.718 514.322 C 648.698 514.838, 651.075 516.737, 653 518.543 L 656.500 521.827 664.762 511.867 L 673.024 501.907 671.930 495.203 C 670.901 488.898, 671.392 468.059, 672.674 463.622 C 673.178 461.876, 672.767 461.792, 666.826 462.428 C 657.883 463.386, 629.875 456.938, 618.248 451.245 C 608.824 446.630, 600 437.131, 600 431.599 C 600 428.933, 598.578 429.249, 593.109 433.131 M 735.452 435.806 C 728.001 438.924, 722.307 442.884, 717.133 448.545 C 711.663 454.530, 711.125 455.727, 713.500 456.638 C 715.267 457.316, 715.495 462.206, 713.900 465.188 C 713.016 466.838, 713.167 467.612, 714.665 469.110 C 716.487 470.931, 716.703 470.810, 723.723 464.064 C 732.362 455.760, 742.774 450.188, 751.296 449.309 C 757.746 448.643, 757.933 448.263, 754.598 442.588 C 749.794 434.413, 743.829 432.300, 735.452 435.806 M 622.619 441.994 L 618.738 442.500 623.369 444.737 C 627.572 446.767, 627.999 446.813, 627.985 445.237 C 627.958 442.266, 626.640 441.470, 622.619 441.994 M 697.750 449.080 C 696.788 449.641, 696 450.527, 696 451.050 C 696 452.423, 699.207 452.159, 701.234 450.619 C 704.179 448.384, 701.203 447.069, 697.750 449.080 M 534.136 458.111 C 530.963 473.499, 518.736 488.023, 506.325 491.148 L 502.134 492.204 508.817 498.137 C 523.599 511.260, 535.365 512.321, 544.958 501.395 C 552.479 492.829, 559.431 470.443, 557.601 460.686 C 556.835 456.605, 549.842 453.308, 540.897 452.811 L 535.293 452.500 534.136 458.111 M 437.500 456.221 C 431.638 457.586, 417 462.169, 417 462.639 C 417 462.861, 418.053 464.721, 419.339 466.771 C 420.626 468.822, 423.833 474.325, 426.466 479 C 436.145 496.182, 451.240 513.007, 460.753 517.215 C 474.756 523.409, 489.858 518.788, 498.991 505.514 C 501.576 501.756, 501.763 501.048, 500.454 499.962 C 499.074 498.816, 499.118 497.586, 500.690 493.391 C 500.956 492.683, 498.823 492.099, 494.786 491.775 C 479.954 490.584, 460.156 477.730, 444.913 459.395 C 441.591 455.399, 441.393 455.314, 437.500 456.221 M 754.463 457.750 C 756.803 463.799, 755.315 473.336, 752.407 470.923 C 751.633 470.281, 751 468.892, 751 467.838 C 751 464.579, 747.105 458, 745.175 458 C 743.257 458, 734.845 462.973, 731.384 466.153 C 729.114 468.239, 729.674 471.602, 733.537 479.071 C 735.718 483.289, 735.224 485.063, 733 481 L 731.084 477.500 731.042 480.444 L 731 483.389 728.534 480.046 C 727.178 478.207, 725.845 476.208, 725.572 475.602 C 725.291 474.976, 724.306 475.580, 723.291 477 C 722.309 478.375, 720.267 480.613, 718.753 481.973 C 715.182 485.180, 715.278 486.159, 719.535 489.896 C 723.893 493.723, 722.986 493.849, 729.545 488.506 C 736.339 482.973, 755.321 473.503, 762.893 471.870 C 765.977 471.205, 768.654 470.546, 768.841 470.406 C 769.907 469.610, 761.661 457.143, 759.726 456.624 C 755.488 455.488, 753.733 455.863, 754.463 457.750 M 679.448 466.709 C 678.360 478.327, 679.568 492.419, 682.197 498.762 L 684.422 504.130 679.220 508.815 C 673.815 513.684, 662.745 527.134, 654.359 539.024 C 649.429 546.014, 647.282 547.250, 644.952 544.442 C 643.595 542.807, 645.136 538.735, 649.850 531.500 L 651.804 528.500 646.372 524.113 C 643.385 521.700, 640.814 519.900, 640.659 520.113 C 637.207 524.855, 622.555 543.233, 612.315 555.663 C 604.992 564.552, 599 572.285, 599 572.846 C 599 575.906, 619.998 588.926, 633.051 593.959 C 642.500 597.603, 652.726 599.429, 659.315 598.649 C 676.191 596.650, 695.949 576.136, 721.100 534.500 C 728.308 522.569, 728.333 522.551, 740.250 520.542 C 742.313 520.194, 743.980 519.592, 743.955 519.205 C 743.930 518.817, 739.629 515.380, 734.396 511.566 C 722.448 502.859, 703.517 484.934, 700.946 479.895 C 697.919 473.961, 698.349 470.566, 702.448 468.032 C 704.345 466.860, 706.200 464.945, 706.571 463.777 C 707.777 459.975, 704.781 459, 691.894 459 L 680.171 459 679.448 466.709 M 566 466.765 C 566 472.416, 561.681 488.717, 558.350 495.637 C 554.417 503.809, 545.050 512.975, 538.165 515.391 C 528.897 518.642, 515.487 515.616, 509.412 508.903 C 507.862 507.190, 507.619 507.335, 504.557 511.800 C 495.487 525.023, 476.475 531.402, 461.717 526.176 C 445.981 520.603, 429.015 502.055, 414.708 474.782 L 410.135 466.065 395.818 474.661 C 379.656 484.365, 359.498 497.865, 343.150 509.934 L 332.108 518.086 334.123 522.793 C 344.113 546.123, 360.003 566.574, 376.358 577.151 C 383.597 581.832, 383.534 581.857, 397.559 568.837 C 403.092 563.702, 410.737 556.800, 414.549 553.500 C 418.361 550.200, 422.137 546.879, 422.941 546.120 C 424.201 544.931, 424.572 545.206, 425.632 548.120 L 426.862 551.500 413.657 564.523 L 400.452 577.546 398.596 587.523 C 397.576 593.010, 395.710 601.097, 394.450 605.493 C 391.807 614.715, 391.652 614.331, 400.425 620.289 C 411.952 628.116, 431.751 634.881, 455.627 639.149 C 473.148 642.281, 520.701 642.565, 539 639.647 C 562.522 635.897, 584.101 628.838, 591.746 622.393 L 593.992 620.500 587.528 590.500 C 581.678 563.353, 573.832 515.783, 575.022 514.680 C 575.285 514.436, 576.920 514.454, 578.656 514.718 C 582.248 515.266, 581.258 511.596, 587.472 547.379 C 589.371 558.312, 591.055 567.388, 591.214 567.547 C 591.798 568.131, 636 513.394, 636 512.088 C 636 509.789, 601.022 483.855, 581.888 471.968 C 565.257 461.636, 566 461.880, 566 466.765 M 707.117 474.359 C 706.255 475.398, 706.486 476.348, 708.099 478.399 L 710.208 481.080 711.990 477.790 C 712.970 475.981, 713.572 474.163, 713.327 473.750 C 712.582 472.495, 708.317 472.913, 707.117 474.359 M 765.176 478.360 L 762.852 479.650 766.328 482.301 C 770.093 485.173, 771 484.613, 771 479.418 C 771 476.668, 768.910 476.289, 765.176 478.360 M 745.266 487.374 C 740.252 490.193, 734.742 493.625, 733.020 495 L 729.890 497.500 740.695 506.094 C 746.638 510.821, 756.324 518.376, 762.220 522.883 L 772.941 531.078 774.340 527.728 C 776.151 523.394, 783.196 517.389, 787.728 516.317 L 791.279 515.477 781.390 506.420 C 775.950 501.438, 767.648 493.961, 762.940 489.805 L 754.380 482.247 745.266 487.374 M 786.237 524.971 C 779.805 528.943, 778.422 537, 784.172 537 C 789.337 537, 796.442 530.136, 795.819 525.748 C 795.385 522.688, 790.566 522.297, 786.237 524.971 M 317.500 545.621 C 310.350 550.827, 297.975 558.962, 290 563.698 C 282.025 568.433, 267.336 577.188, 257.357 583.154 C 247.378 589.119, 238.739 594, 238.160 594 C 237.580 594, 232.244 591.051, 226.303 587.447 C 204.897 574.461, 184.902 565.862, 175.741 565.701 C 166.403 565.538, 167.106 569.350, 177 572.534 C 180.025 573.507, 185.875 575.850, 190 577.741 C 200.409 582.512, 202.234 583.187, 201.498 581.997 C 200.437 580.280, 202.607 580.907, 205.615 583.186 C 207.202 584.388, 208.649 585.475, 208.831 585.600 C 209.013 585.726, 208.691 586.655, 208.115 587.664 C 205.526 592.200, 205.587 592.183, 200.418 589.925 C 180.541 581.242, 170.500 578, 163.481 578 C 158.870 578, 155.397 579.986, 156.226 582.147 C 156.943 584.014, 172.902 592.017, 187.773 597.968 C 199.248 602.558, 199.493 602.722, 199.182 605.580 C 199.007 607.186, 198.540 608.832, 198.143 609.239 C 197.747 609.645, 189.565 606.771, 179.961 602.852 C 170.358 598.933, 160.925 595.676, 159 595.614 C 157.075 595.551, 155.135 594.928, 154.689 594.229 C 153.720 592.712, 152 593.541, 152 595.524 C 152 600.520, 161.424 606.501, 183.454 615.488 C 191.128 618.619, 200.466 622.720, 204.204 624.603 C 215.276 630.178, 213.167 633.861, 194.770 641.082 C 179.311 647.149, 182.342 653.262, 199.752 651.128 C 205.113 650.472, 215.485 649.528, 222.801 649.032 C 237.333 648.046, 240.323 647.066, 249.500 640.284 C 252.250 638.252, 266.875 630.454, 282 622.955 C 312.143 608.010, 330.705 597.900, 350.330 585.738 L 363.160 577.787 357.624 572.852 C 351.076 567.016, 341.596 554.701, 335.267 543.809 C 332.772 539.514, 330.678 536.035, 330.615 536.077 C 330.552 536.119, 324.650 540.414, 317.500 545.621 M 381.656 631.928 C 367.805 653.102, 347.829 676.695, 316.193 709.244 L 296.886 729.108 304.193 737.229 C 347.041 784.846, 429.203 815.980, 505.987 813.697 C 552.379 812.317, 604.160 797.716, 634.679 777.409 C 639.256 774.364, 643 771.489, 643 771.020 C 643 770.550, 635.357 747.574, 626.016 719.960 C 616.675 692.347, 606.267 660.697, 602.887 649.627 C 599.508 638.557, 596.540 629.148, 596.292 628.717 C 596.044 628.287, 594.273 628.904, 592.356 630.089 C 561.182 649.356, 488.727 654.907, 437.619 641.944 C 421.130 637.761, 406.280 631.771, 396.994 625.556 L 389.225 620.356 381.656 631.928 M 364.429 798.148 C 360.364 806.653, 357.414 807.701, 336.479 808.077 C 325.099 808.281, 324.260 808.441, 319.707 811.278 C 301.810 822.427, 284.348 868.965, 293.171 882 C 296.092 886.316, 301.218 889.001, 306.500 888.983 C 312.234 888.963, 312.544 888.581, 316.889 876.193 C 320.665 865.425, 320.746 864.934, 318.911 863.953 C 316.746 862.794, 316.435 859.878, 318.177 857.088 C 319.304 855.284, 319.620 855.344, 325.549 858.490 C 334.429 863.200, 343.150 864.496, 366 864.498 C 399.926 864.501, 413.226 859.541, 424.333 842.742 C 430.032 834.122, 439.501 817.105, 438.867 816.620 C 438.665 816.466, 435.800 815.773, 432.500 815.081 C 414.207 811.242, 387.121 802.128, 373.355 795.179 L 367.307 792.126 364.429 798.148 M 293.994 806.934 C 282.049 810.568, 272.924 821.032, 263.591 841.797 C 246.597 879.609, 248.642 914.327, 268.477 924.725 C 272.723 926.952, 280.686 926.711, 285.591 924.208 C 290.795 921.554, 299.432 912.175, 304.268 903.927 L 308.037 897.500 303.195 896.881 C 285.708 894.644, 278.567 879.879, 284.003 857.203 C 288.045 840.344, 297.115 822.310, 306.831 811.816 L 312.215 806 304.358 806.086 C 300.036 806.133, 295.372 806.515, 293.994 806.934 M 558 815.556 C 541.520 819.709, 504.548 823.783, 496.793 822.301 L 494.317 821.827 493.684 834.664 C 493.336 841.724, 492.172 856.950, 491.097 868.500 C 490.023 880.050, 488.338 901.138, 487.352 915.363 L 485.560 941.225 487.874 943.099 C 497.078 950.552, 534.424 955.425, 552.685 951.556 C 561.479 949.692, 572.769 946.183, 573.435 945.106 C 573.720 944.644, 567.214 941.667, 558.977 938.491 C 549.352 934.780, 544 932.206, 544 931.287 C 544 930.501, 547.340 913.127, 551.422 892.679 C 555.504 872.230, 560.008 847.175, 561.432 837 C 562.855 826.825, 564.178 817.487, 564.371 816.250 C 564.564 815.013, 564.448 814.038, 564.111 814.085 C 563.775 814.132, 561.025 814.794, 558 815.556 M 480.156 955.700 C 476.607 978.879, 477.823 981.052, 496.500 984.887 C 528.558 991.470, 576.408 992.552, 593.955 987.091 C 613.995 980.854, 611.888 965.351, 589.494 954.270 L 582.191 950.656 576.009 953.337 C 551.979 963.758, 520.022 964.182, 493.014 954.438 C 488.896 952.952, 484.553 951.098, 483.363 950.318 C 481.241 948.928, 481.177 949.036, 480.156 955.700" stroke="none" fill="#1a1a1a" fill-rule="evenodd"/>
</svg>