<svg xmlns="http://www.w3.org/2000/svg" width="1024" height="1024" viewBox="0 0 1024 1024" version="1.1">
	<path d="M 518.500 19.036 C 439.466 25.634, 376.650 68.981, 345.768 138.232 C 342.064 146.538, 339.378 150.976, 335.550 155.114 C 322.799 168.899, 322.756 183.244, 335.422 197.742 C 341.120 204.265, 341.013 203.957, 342.493 218 C 343.890 231.247, 351.419 242.133, 362.246 246.560 C 366.824 248.431, 366.993 248.646, 366.996 252.619 C 367.002 258.617, 364.402 272.636, 360.529 287.500 C 350.782 324.900, 355.013 348.904, 375.476 372.310 C 396.764 396.660, 424.841 410.441, 462.500 415.023 C 468 415.692, 472.888 416.596, 473.362 417.032 C 474.415 418, 469.650 421.467, 455.540 430 C 430.089 445.392, 413.344 458.821, 412.808 464.271 C 412.233 470.121, 402.616 472.920, 367.074 477.583 C 342.393 480.820, 339.079 480.756, 331 476.880 C 314.090 468.769, 293.379 468.884, 277.822 477.175 C 270.423 481.119, 259.633 492.421, 256.126 499.900 C 252.245 508.177, 252.328 519.119, 256.312 524.342 C 258.884 527.714, 267.299 533, 270.096 533 C 270.735 533, 273.001 534.575, 275.132 536.500 C 277.940 539.037, 279.930 540, 282.365 540 C 284.572 540, 286.985 541.002, 289.397 542.918 C 294.081 546.641, 299.124 547.490, 305.347 545.605 C 311.435 543.761, 311.357 543.726, 318.316 551.506 C 324.224 558.111, 339.396 568.986, 345.528 571.009 C 347.340 571.607, 349.067 572.732, 349.364 573.507 C 350.272 575.872, 321.239 680.846, 318.991 683.330 C 318.577 683.787, 314.023 683.255, 308.870 682.149 C 279.177 675.773, 246.881 677.285, 224.778 686.086 C 197.318 697.020, 181.933 706.887, 163.451 725.415 C 135.570 753.367, 121.440 782.179, 115.533 823.128 C 110.150 860.448, 120.461 903.174, 142.076 933.105 C 145.334 937.617, 148 941.689, 148 942.154 C 148 942.619, 131.688 943.062, 111.750 943.138 C 58.432 943.342, 42.608 944.049, 42.188 946.247 C 41.554 949.566, 46.100 949.816, 99.803 949.404 L 152.971 948.997 162.353 958.378 C 195.685 991.710, 255.198 1009.313, 300 999.092 C 330.645 992.101, 355.199 978.867, 380.070 955.935 L 389.647 947.106 515.187 947.303 L 640.727 947.500 647.651 954.032 C 679.447 984.027, 738.062 999.882, 781 990.102 C 807.425 984.084, 833.890 971.001, 850.835 955.582 L 858.170 948.907 915.835 949.609 C 968.803 950.254, 973.612 950.176, 974.872 948.655 C 977.476 945.515, 974.643 944.002, 966.128 943.985 C 955.482 943.963, 955.367 943.756, 961.133 935 C 965.703 928.061, 970 917.358, 970 912.914 C 970 908.984, 965.337 909.422, 955.875 914.240 C 950.994 916.726, 947 918.251, 947 917.630 C 947 917.008, 947.637 913.125, 948.414 909 C 950.323 898.876, 950.892 880.797, 949.318 880.273 C 943.317 878.272, 926.759 898.410, 920.439 915.395 L 918.617 920.291 915.458 913.395 C 913.720 909.603, 911.363 905.672, 910.221 904.660 C 908.174 902.846, 908.098 902.882, 905.045 907.096 C 898.902 915.576, 897.501 927.756, 901.403 938.750 L 902.911 943 883.456 943 C 872.755 943, 864.007 942.663, 864.015 942.250 C 864.023 941.837, 866.923 937.900, 870.460 933.500 C 886.881 913.071, 899.969 882.686, 902.969 858.026 C 913.159 774.279, 859.460 698.749, 777.773 681.932 C 738.062 673.757, 689.580 687.422, 659.223 715.348 C 650.539 723.337, 652.001 723.734, 638.143 709.620 C 628.458 699.757, 627.894 698.963, 629.459 697.398 C 630.926 695.932, 631.618 695.884, 635.037 697.012 C 642.745 699.556, 678.401 696.430, 685.898 692.553 C 695.731 687.468, 702.998 676.062, 702.999 665.710 C 703 658.271, 700.614 653.567, 693.827 647.630 L 688.585 643.044 690.899 636.772 C 696.660 621.156, 697.925 609.314, 695.076 597.689 L 693.651 591.879 696.469 589.266 L 699.286 586.654 698.662 576.077 C 696.977 547.513, 685.111 499.049, 673.967 475.208 C 669.450 465.546, 668.794 466.448, 682.500 463.486 C 686.900 462.535, 693.425 460.239, 697 458.383 C 704.285 454.602, 705.825 455.571, 702.561 461.883 C 698.589 469.564, 701.445 470.005, 718.773 464.389 C 731.662 460.211, 736.875 456.996, 745.384 447.976 C 754.699 438.101, 760.758 424.603, 762.540 409.750 C 762.920 406.588, 763.649 404, 764.161 404 C 765.358 404, 769.790 413.493, 770.617 417.830 C 771.433 422.105, 773.141 422.691, 778.174 420.421 C 792.297 414.053, 801.429 392.793, 798.180 373.847 C 795.804 359.988, 785.535 346.126, 771.134 337.340 C 748.917 323.783, 740.948 317.897, 736.456 311.723 C 730.977 304.194, 730.944 302.870, 736.090 297.287 C 742.905 289.893, 745.232 283.452, 746.120 269.524 C 746.542 262.911, 747.604 254.350, 748.481 250.500 C 752.288 233.777, 752.094 199.833, 748.079 180.300 C 742.026 150.850, 723.201 110.748, 704.986 88.500 C 677.925 55.447, 635.357 30.805, 592 23.093 C 564.153 18.140, 543.133 16.980, 518.500 19.036 M 525.500 24.642 C 450.099 29.646, 386.589 69.404, 356.058 130.716 C 348.391 146.114, 348.235 145.688, 359.598 140.378 C 417.557 113.294, 514.697 111.746, 589 136.722 C 653.403 158.371, 718.578 205.877, 737.320 244.832 C 741.904 254.360, 742.283 254.202, 743.886 242.091 C 749.111 202.636, 739.185 157.680, 716.265 117 C 689.006 68.620, 638.582 35.382, 579 26.521 C 567.832 24.860, 537.998 23.812, 525.500 24.642 M 858.105 31.583 C 841.563 36.031, 823.190 54.712, 821.268 69.036 L 820.776 72.710 810.638 72.605 C 801.451 72.510, 799.967 72.762, 794.818 75.290 C 779.809 82.661, 772.650 102.847, 780.540 115.553 C 788.880 128.984, 802.190 132.429, 851.770 133.994 C 915.961 136.020, 955.626 135.101, 966.939 131.326 C 987.103 124.597, 983.163 98.755, 961.571 96.119 L 956.500 95.500 956.268 89.531 C 955.586 71.959, 941.305 62.644, 922.541 67.531 C 915.763 69.297, 915.724 69.272, 914.147 62.087 C 909.201 39.542, 882.517 25.018, 858.105 31.583 M 856.856 39.316 C 839.416 45.261, 827.135 61.289, 827.024 78.250 C 826.996 82.581, 825.423 83.039, 819.327 80.492 C 798.799 71.915, 776.512 92.418, 785.583 111.534 C 792.136 125.344, 810.358 128.012, 897.895 127.979 C 965.162 127.954, 968.811 127.483, 972.633 118.336 C 976.778 108.416, 966.135 99.969, 953.354 103.035 C 945.843 104.837, 945.069 103.836, 947.972 96.076 C 950.494 89.332, 950.209 84.742, 946.941 79.422 C 940.765 69.371, 920.012 71.855, 911.922 83.614 C 910.220 86.086, 908.305 87.930, 907.664 87.711 C 906.470 87.303, 906.467 86.664, 907.597 70.347 C 908.200 61.631, 908.097 60.949, 905.447 56.079 C 897.095 40.735, 875.029 33.122, 856.856 39.316 M 146.176 92.025 C 127.043 95.988, 110.156 117.113, 110.024 137.250 C 109.997 141.510, 109.623 141.622, 102.591 139.489 C 90.886 135.938, 78.170 138.344, 70.047 145.647 C 62.773 152.188, 60.737 156.629, 60.205 167.117 C 59.368 183.617, 67.722 195.051, 84.674 200.607 L 93.500 203.500 165.500 203.323 C 227.061 203.172, 238.572 202.916, 244.892 201.557 C 263.150 197.632, 271.284 190.105, 271.428 177 C 271.565 164.573, 263.284 156.354, 249.514 155.249 L 243.255 154.747 242.738 149.045 C 241.755 138.211, 234.245 127.089, 225.422 123.403 C 220.305 121.265, 209.246 121.584, 204.739 124 C 202.686 125.100, 200.804 126, 200.555 126 C 200.306 126, 198.707 123.077, 197.002 119.504 C 187.588 99.779, 165.748 87.972, 146.176 92.025 M 143.500 99.157 C 127.005 105.366, 115.921 122.683, 115.915 142.250 C 115.912 151.383, 115.594 151.550, 106.371 147.285 C 92.970 141.088, 76.108 144.803, 69.559 155.396 C 61.464 168.489, 66.646 185.226, 81.054 192.527 C 92.327 198.240, 93.329 198.300, 166 197.610 C 240.212 196.907, 244.497 196.577, 255.922 190.697 C 262.625 187.246, 264.500 184.110, 264.500 176.350 C 264.500 170.138, 264.336 169.696, 260.830 166.483 C 255.623 161.711, 250.221 160.457, 241.745 162.052 C 233.812 163.544, 233.307 163.258, 234.840 158.140 C 240.591 138.944, 224.521 122.836, 206.660 129.896 C 204.647 130.692, 203.206 132.473, 201.711 136.009 C 198.277 144.138, 195.857 142.954, 194.536 132.500 C 192.956 119.995, 180.053 103.946, 168.783 100.466 C 162.113 98.407, 147.502 97.650, 143.500 99.157 M 432.500 127.538 C 401.491 131.176, 361.897 142.786, 350.134 151.691 C 332.025 165.398, 328.643 174.426, 336.089 189.177 C 339.565 196.063, 340.212 196.045, 340.433 189.061 C 340.637 182.643, 342.968 180.073, 353.323 174.850 C 374.301 164.269, 411.600 155.241, 448.101 151.910 C 465.544 150.318, 518.694 151.248, 530.613 153.354 C 565.899 159.588, 621.467 181.499, 651.270 200.931 C 686.645 223.995, 722.151 262.291, 730.167 286.028 C 732.601 293.236, 733.095 293.053, 737.686 283.253 C 742.406 273.178, 742.024 269.393, 734.731 253.910 C 726.555 236.553, 721.317 229.213, 706.965 215 C 685.557 193.798, 663.631 178.217, 634.500 163.501 C 596.319 144.214, 567.056 135.273, 519.500 128.365 C 504.047 126.120, 449.045 125.598, 432.500 127.538 M 457.500 158.051 C 432.890 159.184, 401.611 164.193, 384.876 169.681 L 377.251 172.182 376.648 179.341 C 376.316 183.278, 375.763 188.751, 375.419 191.501 C 374.642 197.711, 376.031 199.236, 384.529 201.505 C 402.567 206.321, 441.712 201.244, 462.654 191.372 C 473.118 186.439, 474.653 187.355, 469 195.159 C 464.468 201.415, 464.832 202.001, 473.250 201.996 C 497.834 201.982, 522.007 193.114, 544.250 175.947 C 550.712 170.959, 556 166.514, 556 166.069 C 556 164.161, 530.015 159.175, 516.500 158.489 C 498.432 157.573, 472.140 157.377, 457.500 158.051 M 554.500 175.579 C 526.166 199.063, 503.320 208, 471.619 208 C 461.004 208, 458.407 206.881, 459.215 202.656 C 459.827 199.455, 460.250 199.467, 451 202.418 C 431.503 208.638, 393.268 211.445, 380.579 207.589 C 377.873 206.766, 375.285 206.324, 374.829 206.606 C 374.373 206.887, 374 215.304, 373.999 225.309 C 373.998 250.187, 372.699 261.973, 367.255 286.500 C 358.152 327.511, 361.792 348.634, 381.617 369.851 C 404.446 394.281, 429.753 404.931, 476 409.569 C 527.150 414.698, 565.219 403.598, 591.640 375.850 C 612.743 353.688, 631.472 303.437, 634.605 260.576 L 635.196 252.500 630.619 249.671 C 622.963 244.940, 613.697 233.997, 608.068 223.038 C 601.317 209.895, 594.032 191.065, 593.297 184.860 C 592.970 182.102, 592.116 179.259, 591.398 178.541 C 590.167 177.310, 565.882 167.932, 564.258 168.060 C 563.841 168.093, 559.450 171.476, 554.500 175.579 M 359.107 179.553 C 348.205 185.011, 348.547 184.221, 348.553 204 C 348.560 224.595, 351.214 232.009, 360.745 238.053 C 368.278 242.830, 367.999 243.494, 368.006 220.750 C 368.010 207.905, 368.558 196.875, 369.506 190.587 C 372.218 172.592, 372.473 172.863, 359.107 179.553 M 599.416 183.358 C 598.074 186.855, 613.038 221.096, 620.444 231.474 C 625.414 238.438, 632.300 244.483, 634.363 243.691 C 636.929 242.706, 638.184 202.933, 635.750 199.745 C 634.687 198.353, 616.027 188.550, 609.581 185.998 C 608.437 185.545, 605.802 184.450, 603.727 183.564 C 600.541 182.205, 599.871 182.172, 599.416 183.358 M 643.676 204.757 C 643.439 205.166, 642.942 214.950, 642.574 226.500 C 641.508 259.880, 639.196 278.256, 632.825 304 C 621.549 349.566, 604.013 378.157, 576.116 396.458 C 563.418 404.788, 564.160 405.828, 580 401.903 C 601.964 396.460, 617.543 386.779, 628.124 372 C 651.292 339.641, 661.955 300.024, 663.666 239.951 L 664.308 217.401 657.930 212.607 C 650.699 207.171, 644.317 203.657, 643.676 204.757 M 546.750 219.103 C 544.851 219.838, 544 220.881, 544 222.476 C 544 225.459, 545.923 226.136, 550.670 224.825 C 559.639 222.349, 568.376 225.174, 576.652 233.226 C 579.486 235.983, 582.299 237.933, 582.902 237.560 C 587.044 235, 579.572 224.804, 570.727 220.947 C 564.793 218.359, 551.349 217.325, 546.750 219.103 M 401.500 221.613 C 400.400 221.869, 398.522 222.285, 397.327 222.539 C 392.106 223.646, 385.285 232.171, 386.516 236.050 C 387.520 239.213, 390.232 238.323, 394.500 233.430 C 399.930 227.205, 404.404 226.450, 417.750 229.506 C 420.792 230.202, 421 230.079, 421 227.574 C 421 225.499, 420.270 224.595, 417.750 223.547 C 414.118 222.036, 404.570 220.900, 401.500 221.613 M 670 236.077 C 670 242.719, 669.287 256.031, 668.416 265.659 C 667.544 275.287, 667.091 283.425, 667.409 283.743 C 667.727 284.060, 670.803 283.461, 674.244 282.410 C 683.668 279.533, 693.433 279.891, 699.302 283.331 C 710.961 290.164, 715.779 305.791, 710.999 321.268 C 707.200 333.566, 694.188 349.802, 683.941 355.030 C 675.212 359.483, 656.364 362.854, 650.193 361.065 C 645.400 359.676, 644.715 360.195, 636.539 371.414 C 627.903 383.264, 620.985 390.086, 612.250 395.367 C 604.588 399.998, 604.478 401.155, 611.489 403.365 C 628.766 408.811, 640.643 418.974, 652.977 438.865 C 658.887 448.395, 666.589 458.231, 668.794 459.063 C 671.327 460.019, 681.053 458.248, 688.813 455.418 C 698.473 451.895, 704 446.875, 704 441.623 C 704 437.731, 706.470 435.525, 708.020 438.033 C 710.731 442.419, 712.280 450.560, 711.308 455.307 L 710.303 460.213 713.603 459.677 C 720.114 458.620, 733.387 451.518, 738.538 446.336 C 749.689 435.116, 756.274 418.810, 756.164 402.691 C 756.127 397.296, 755.820 392.008, 755.481 390.941 C 754.339 387.340, 758.833 388.764, 764.067 393.659 C 767.228 396.616, 770.374 401.002, 772.676 405.659 C 774.672 409.697, 776.696 413, 777.174 413 C 779.316 413, 786.976 404.483, 788.940 399.919 C 792.009 392.785, 792.741 380.400, 790.589 372.025 C 786.943 357.829, 779.368 349.453, 758.389 336.415 C 739.602 324.740, 733.131 319.043, 728.905 310.459 C 726.285 305.137, 725.869 303.360, 726.403 299.787 C 727.707 291.069, 721.043 277.553, 706.385 259.185 C 697.135 247.594, 673.791 224, 671.574 224 C 670.229 224, 670 225.758, 670 236.077 M 402.966 269.250 C 391.274 277.151, 391.938 300.557, 403.992 305.380 C 415.548 310.004, 423.967 302.995, 424.746 288.100 C 425.579 272.153, 413.781 261.942, 402.966 269.250 M 547.500 270.959 C 534.903 276.204, 533.335 302.747, 545.195 309.978 C 556.167 316.667, 566 306.414, 566 288.286 C 566 274.748, 557.507 266.793, 547.500 270.959 M 679.718 287.092 C 667.743 289.911, 660.694 298.701, 662.147 309 C 662.496 311.475, 662.546 311.458, 667.099 307.262 C 674.732 300.228, 681.686 298.283, 686.139 301.937 C 689.544 304.731, 687.681 307.595, 682.737 307.169 C 677.883 306.750, 673.438 309.268, 665.440 316.967 C 659.182 322.991, 658.500 324.086, 655.479 332.967 C 653.695 338.210, 651.283 344.879, 650.118 347.787 C 647.218 355.027, 647.204 355.002, 654.250 354.983 C 675.053 354.925, 692.111 344.926, 701.132 327.500 C 706.063 317.975, 707.422 311.735, 706.111 304.640 C 703.372 289.828, 694.147 283.694, 679.718 287.092 M 461.120 300.069 C 447.657 302.746, 443.807 316.291, 453.569 326.642 C 457.584 330.899, 462 331.332, 462 327.469 C 462 326.076, 461.334 324.682, 460.520 324.369 C 458.215 323.485, 455 317.587, 455 314.243 C 455 309.608, 457.739 307.013, 463.500 306.190 C 468.219 305.515, 468.500 305.308, 468.500 302.501 C 468.500 299.101, 467.554 298.790, 461.120 300.069 M 505.756 352.387 C 496.999 360.602, 487.931 364, 474.767 364 C 466.806 364, 461.105 361.272, 454.269 354.190 C 450.876 350.675, 448.505 348.976, 447.519 349.354 C 442.292 351.360, 451.604 363.726, 461.707 368.194 C 470.127 371.919, 489.664 370.273, 500.076 364.961 C 508.031 360.903, 515.940 351.892, 514.604 348.410 C 513.660 345.951, 511.654 346.853, 505.756 352.387 M 585.354 407 C 578.388 407.567, 575.952 409.210, 572.753 415.500 C 564.998 430.749, 548.550 447, 540.873 447 C 539.413 447, 536.257 447.890, 533.859 448.978 C 531.222 450.175, 527.301 450.965, 523.932 450.978 C 507.639 451.042, 496.594 441.452, 492.860 424 C 491.439 417.358, 490.839 416.573, 487.769 417.343 C 483.595 418.391, 437.825 448.572, 428.508 456.421 L 424.515 459.784 433.554 468.721 C 439.157 474.259, 445.668 482.190, 450.681 489.579 C 460.262 503.702, 460.983 504.414, 468.248 506.913 L 473.856 508.843 478.428 505.943 C 483.864 502.496, 484.036 501.263, 481.078 486.860 C 477.050 467.243, 476.287 456, 478.984 456 C 480.842 456, 482.184 460.372, 485.984 478.807 C 490.361 500.039, 493.252 513.347, 493.590 513.827 C 493.901 514.267, 507.002 510.599, 520.500 506.293 C 531.080 502.918, 545.854 496.027, 550.931 492.099 C 553.263 490.295, 553.289 490.146, 551.578 488.435 C 548.743 485.600, 550.180 481.012, 558.198 467.297 C 570.286 446.620, 582.596 433, 589.196 433 C 592.701 433, 590.908 436.179, 582.750 444.428 C 574.914 452.352, 563.893 468.224, 560.367 476.664 C 558.959 480.035, 558.964 480.047, 561.456 479.422 C 564.780 478.587, 575.216 483.488, 584.028 490.021 C 595.848 498.783, 604.616 508.963, 609.973 520.143 L 614.713 530.035 618.637 525.767 C 624.412 519.487, 631.439 507.685, 637.682 493.782 C 643.763 480.238, 645.324 477.924, 647.144 479.744 C 650.808 483.408, 632.326 520.431, 620.694 532.731 L 615.505 538.217 610.465 537.625 L 605.426 537.033 598.177 543.411 C 582.161 557.506, 557.816 564.970, 527.716 565.015 C 522.097 565.024, 516.942 565.385, 516.261 565.818 C 515.324 566.413, 515.180 569.729, 515.671 579.414 C 516.456 594.912, 515.920 594.365, 534.270 598.375 C 583.209 609.070, 632.165 608.724, 665.875 597.444 C 680.376 592.591, 693 585.443, 693 582.084 C 693 581.730, 692.333 576.054, 691.517 569.470 C 685.638 522.012, 670.245 473.517, 654.570 453.070 C 652.221 450.007, 648.397 444.021, 646.070 439.770 C 633.740 417.233, 610.926 404.920, 585.354 407 M 543.500 412.122 C 533.831 414.511, 518.028 416.986, 512.385 416.994 C 509.708 416.998, 507.324 417.744, 505.564 419.129 C 503.554 420.710, 502.567 420.967, 501.729 420.129 C 498.250 416.650, 498.012 423.335, 501.358 430.521 C 504.411 437.078, 509.121 441.686, 514.153 443.041 C 519.203 444.401, 520.177 443.660, 516.106 441.555 C 511.295 439.067, 506.067 434.051, 503.941 429.885 C 501.514 425.128, 501.518 424.328, 503.975 423.014 C 505.734 422.072, 506.267 422.586, 508.865 427.728 C 512.396 434.717, 513.910 436.054, 521 438.447 C 527.814 440.747, 527.770 440.706, 525.427 442.479 C 523.637 443.833, 523.784 443.934, 527.500 443.898 C 532.447 443.850, 537.183 442.183, 532.691 442.070 C 530.969 442.027, 530.137 441.587, 530.541 440.933 C 530.904 440.347, 531.443 440.109, 531.739 440.406 C 532.035 440.702, 533.600 439.832, 535.216 438.472 C 536.832 437.112, 539.357 435.743, 540.827 435.431 C 542.297 435.118, 544.625 434.406, 546 433.848 C 548.435 432.861, 548.422 432.919, 545.500 436.072 C 542.310 439.515, 543.419 439.244, 548.791 435.270 C 551.127 433.542, 551.913 432.302, 551.500 431 C 550.816 428.844, 556.130 422.281, 559.640 420.947 C 560.885 420.473, 562.640 418.664, 563.538 416.926 L 565.172 413.766 562.864 415.383 C 559.539 417.712, 559.057 417.425, 559.694 413.500 L 560.262 410 555.881 410.072 C 553.471 410.112, 547.900 411.034, 543.500 412.122 M 414.423 473.563 C 403.382 478.905, 398.792 479.882, 364.804 484.129 L 338.108 487.464 329.304 483.227 C 319.257 478.392, 314.100 477.059, 305.299 477.024 C 292.007 476.972, 280.580 481.300, 272.384 489.489 C 259.575 502.289, 256.618 516.294, 265.200 523.515 C 270.149 527.679, 271.480 526.637, 271.618 518.486 C 271.807 507.318, 278.046 494, 283.089 494 C 285.535 494, 285.538 496.384, 283.095 500.382 C 279.976 505.488, 277.999 513.875, 278.015 521.932 C 278.042 535.012, 281.751 536.019, 283.744 523.488 C 284.424 519.218, 286.133 513.199, 287.542 510.112 C 291.473 501.503, 300.772 492.931, 304.590 494.396 C 306.971 495.310, 306.213 496.950, 300.483 503.282 C 285.630 519.695, 285.227 543.535, 299.890 538.368 C 302.340 537.505, 302.500 537.051, 302.500 530.974 C 302.500 513.748, 315.226 507.243, 330.064 516.884 C 338.573 522.414, 339.500 522.131, 339.500 514.004 C 339.500 508.427, 339.762 507.501, 341.434 507.168 C 344.317 506.593, 346 509.729, 346 515.672 C 346 520.337, 346.266 521.023, 348.250 521.481 C 349.488 521.766, 356.125 523.353, 363 525.009 C 377.890 528.593, 395.318 530.580, 403.184 529.589 C 408.595 528.907, 409.134 528.569, 414.409 522.560 C 420.553 515.562, 430.712 509.561, 441.500 506.557 C 444.800 505.639, 448.288 504.657, 449.250 504.376 C 451.695 503.662, 451.496 502.819, 447.336 496.269 C 440.353 485.274, 426.446 468.858, 424.306 469.086 C 423.863 469.133, 419.415 471.148, 414.423 473.563 M 558 492.904 C 549.510 501.661, 540.306 506.367, 518.953 512.867 C 509.852 515.637, 499.952 519.046, 496.953 520.442 C 489.285 524.012, 485.362 523.783, 478.981 519.393 C 462.696 508.191, 445.062 507.841, 428.613 518.394 C 413.890 527.840, 406.909 545.063, 413.856 554.803 C 417.371 559.731, 419.067 558.665, 421.141 550.225 C 423.935 538.859, 428.572 531, 432.484 531 C 435.626 531, 435.253 534.248, 431.239 541.843 C 424.792 554.042, 423.677 563.511, 428.472 565.351 C 431.179 566.390, 432.953 564.892, 434.044 560.647 C 437.347 547.800, 440.408 540.804, 444.329 537.145 C 449.103 532.690, 450.707 537.412, 446.581 543.771 C 443.524 548.483, 439.886 560.203, 439.772 565.707 C 439.668 570.728, 441.279 573, 444.943 573 C 447.534 573, 447.688 572.698, 448.826 565.383 C 450.668 553.533, 456.713 542, 461.082 542 C 464.464 542, 464.162 544.191, 459.503 553.455 C 452.378 567.625, 453.656 579, 462.373 579 C 466.888 579, 468.028 577.486, 467.333 572.412 C 466.548 566.688, 467.425 563.724, 471.163 559.467 C 477.904 551.789, 485.556 550.669, 496.115 555.812 L 502.658 559 519.105 559 C 558.659 559, 579.444 552.774, 597.924 535.390 C 607.259 526.608, 607.464 525.814, 602.521 517.605 C 595.525 505.987, 585.120 496.129, 573 489.637 C 565.281 485.502, 565.148 485.531, 558 492.904 M 482.561 510.194 L 479.834 512.540 481.880 514.391 C 484.397 516.669, 487.005 515.847, 486.985 512.781 C 486.956 508.434, 485.558 507.616, 482.561 510.194 M 312.659 520.054 C 311.223 521.183, 309.521 523.866, 308.877 526.016 C 307.426 530.859, 308.735 532.787, 323.478 547.506 C 337.797 561.803, 349.092 567.803, 365 569.563 C 372.047 570.342, 375 568.088, 375 561.929 C 375 552.544, 371.169 548.442, 361.068 547.010 C 350.642 545.531, 348.534 544.234, 334.040 530.387 C 319.945 516.922, 317.898 515.932, 312.659 520.054 M 343.128 527.900 C 341.166 529.143, 341.833 530.189, 347.852 535.302 C 354.941 541.326, 360.370 542.677, 371.405 541.165 C 375.857 540.555, 385.021 539.615, 391.768 539.076 C 404.887 538.028, 406 537.735, 406 535.330 C 406 534.050, 405.343 533.928, 402.250 534.639 C 393.604 536.625, 376.964 534.761, 355.819 529.437 C 344.931 526.696, 345.012 526.706, 343.128 527.900 M 395 545 C 393.625 545.440, 389.238 545.845, 385.250 545.900 C 377.057 546.013, 376.659 546.545, 379.567 553.505 C 380.428 555.567, 381.065 559.560, 380.981 562.377 C 380.732 570.774, 380.316 570.284, 387.250 569.770 C 394.266 569.250, 403.110 566.151, 407.262 562.757 L 410.024 560.500 407.512 555.581 C 406.130 552.875, 405 549.874, 405 548.912 C 405 544.121, 401.734 542.844, 395 545 M 478.106 561.564 C 472.294 566.455, 472.161 575.581, 477.867 577.945 C 484.480 580.684, 493 573.908, 493 565.909 C 493 558.952, 484.245 556.398, 478.106 561.564 M 409.500 568.500 C 406.165 570.823, 401.543 572.734, 395.618 574.241 C 389.271 575.855, 386.333 577.111, 385.324 578.642 C 383.946 580.731, 375 622.810, 375 627.201 C 375 629.189, 424.151 680, 426.074 680 C 426.419 680, 426.964 675.163, 427.286 669.250 C 428.306 650.516, 433.841 637.201, 445.500 625.437 C 449.350 621.552, 454.181 617.597, 456.236 616.647 C 458.292 615.696, 460.445 614.037, 461.022 612.958 C 462.839 609.564, 481.126 601.721, 499.500 596.456 C 504.450 595.037, 508.870 593.512, 509.323 593.066 C 510.741 591.667, 508.913 565.904, 507.352 565.305 C 503.958 564.002, 501.064 566.088, 497.802 572.185 C 492.682 581.757, 488.588 584.480, 479.156 584.586 C 474.945 584.633, 470.114 584.990, 468.420 585.378 C 464.473 586.283, 456.088 584.415, 453.500 582.055 C 452.210 580.878, 449.394 580.066, 445.567 579.768 C 440.217 579.351, 439.332 578.946, 436.567 575.652 C 433.863 572.433, 432.960 572, 428.946 572 C 425.055 572, 423.899 571.491, 421 568.500 C 416.792 564.158, 415.734 564.158, 409.500 568.500 M 356.153 576.715 C 353.323 582.005, 348.270 605.431, 349.760 606.352 C 350.774 606.978, 368.771 611, 370.561 611 C 371.244 611, 372.820 605.466, 374.418 597.454 C 375.905 590.004, 377.734 582.170, 378.484 580.045 L 379.848 576.181 372.174 576.340 C 367.953 576.428, 362.837 576.147, 360.804 575.715 C 357.771 575.070, 356.937 575.250, 356.153 576.715 M 677.500 599.725 C 662.139 605.675, 638.605 610.281, 615.277 611.902 C 588.963 613.730, 538.255 607.778, 518.235 600.512 L 511.758 598.160 500.629 602.003 C 481.770 608.515, 473.764 611.857, 470.059 614.767 C 468.102 616.304, 463.860 619.123, 460.634 621.031 C 442.447 631.788, 433.621 649.408, 433.540 675.123 C 433.502 687.026, 433.643 687.945, 436 691.224 C 439.778 696.480, 481.761 737.196, 482.376 736.200 C 482.671 735.723, 482.038 731.096, 480.969 725.917 C 478.517 714.030, 478.353 697.545, 480.612 689.932 C 483.669 679.626, 486.844 674.849, 497.627 664.330 L 508.052 654.160 502.737 646.345 C 496.557 637.259, 487.057 628.854, 476.984 623.561 C 469.715 619.741, 469.212 619.188, 471.200 617.200 C 474.681 613.719, 487.106 621.129, 501.415 635.221 C 506.318 640.049, 510.700 644, 511.153 644 C 512.074 644, 524.093 635.400, 536.994 625.510 C 545.081 619.311, 550.191 617.092, 553.476 618.352 C 555.859 619.267, 554.188 621.700, 549.159 624.638 C 546.597 626.135, 541.125 629.922, 537 633.052 C 532.875 636.182, 527.138 640.190, 524.250 641.958 C 519.003 645.170, 517.651 647, 520.525 647 C 526.431 647, 547.587 660.785, 560.168 672.831 C 571.630 683.806, 576.276 690.410, 580.688 702 C 582.468 706.675, 584.278 710.413, 584.712 710.307 C 588.916 709.276, 622.453 692.591, 633.076 686.244 C 665.617 666.803, 682.086 648.091, 688.425 623.356 C 690.883 613.767, 690.356 595.830, 687.625 596.119 C 687.006 596.185, 682.450 597.807, 677.500 599.725 M 345.565 613.894 C 345.261 614.386, 344.081 618.773, 342.942 623.644 C 341.803 628.515, 339.285 638.259, 337.347 645.298 C 335.409 652.337, 334.030 658.637, 334.284 659.298 C 334.705 660.396, 358.680 665.700, 359.435 664.863 C 360.484 663.699, 369.922 618.522, 369.255 617.855 C 368.476 617.076, 350.169 613, 347.449 613 C 346.717 613, 345.869 613.402, 345.565 613.894 M 371.526 640.250 C 368.732 652.515, 367 661.418, 367 663.517 C 367 665.425, 370.535 669.714, 381.250 680.807 C 389.087 688.920, 412.825 713.546, 434 735.529 C 455.175 757.513, 477.962 781.088, 484.637 787.918 L 496.775 800.335 498.388 797.217 C 500.899 792.361, 500.460 789.769, 493.778 770 L 487.525 751.500 456.578 720 C 405.429 667.936, 375.110 638, 373.531 638 C 372.710 638, 371.807 639.013, 371.526 640.250 M 677.833 658.250 C 669.018 669.185, 660.699 676.413, 647.593 684.521 C 642.317 687.785, 638 690.867, 638 691.369 C 638 693.758, 674.913 689.942, 682.242 686.796 C 693.503 681.962, 700.191 668.072, 695.565 659.125 C 694.349 656.775, 686.730 649, 685.642 649 C 685.448 649, 681.934 653.163, 677.833 658.250 M 508.343 662.423 C 489.917 677.790, 485.561 686.343, 485.640 707 C 485.704 723.625, 486.640 727.997, 497.091 760.500 C 513.834 812.569, 512.205 808.301, 516.054 810.201 C 533.961 819.041, 573.419 809.553, 569.614 797.322 C 569.302 796.320, 567.901 789.200, 566.501 781.500 C 565.101 773.800, 561.673 759.175, 558.882 749 C 551.122 720.712, 551.995 715.853, 566.784 705 C 574.091 699.638, 574.110 699.524, 568.952 691.929 C 560.708 679.790, 544.295 665.200, 531.383 658.535 C 520.023 652.670, 520.040 652.667, 508.343 662.423 M 328.523 674.516 C 325.211 685.376, 326.414 687.686, 330.805 678.898 C 332.932 674.641, 336 673.744, 336 677.379 C 336 678.769, 333.270 689.714, 329.934 701.703 C 326.598 713.691, 322.301 729.350, 320.384 736.500 C 308.778 779.806, 295.438 809.453, 279.777 826.746 C 271.911 835.432, 270.209 841.550, 273.950 847.686 C 277.812 854.020, 282.676 854.383, 290.604 848.928 C 306.671 837.874, 327.608 786.233, 350.527 701.133 C 354.729 685.532, 357.792 672.412, 357.333 671.979 C 356.875 671.545, 351.977 670.279, 346.449 669.164 C 340.921 668.050, 335.222 666.843, 333.786 666.482 C 331.251 665.846, 331.096 666.083, 328.523 674.516 M 363.374 676.468 C 361.567 681.176, 358.404 697.813, 358.994 699.500 C 359.379 700.600, 363.475 704.422, 368.097 707.992 C 390.880 725.595, 407.536 747.010, 418.714 773.072 C 427.031 792.462, 429.043 802.423, 429.705 827.500 C 430.813 869.427, 422.974 897.529, 401.133 929.929 C 397.267 935.665, 394.368 940.787, 394.692 941.311 C 395.058 941.902, 402.117 941.991, 413.263 941.544 C 423.153 941.148, 477.076 940.843, 533.091 940.866 C 589.107 940.890, 635.131 940.592, 635.366 940.204 C 635.601 939.817, 632.904 935.675, 629.371 931 C 618.313 916.364, 608.197 894.150, 604.681 876.782 L 603.410 870.500 599.636 870.500 C 595.997 870.500, 595.801 870.680, 594.162 875.521 C 591.739 882.680, 588.719 886.442, 582.574 889.958 C 575.955 893.744, 575.790 894.170, 577.163 903.878 C 579.756 922.215, 578.727 922.918, 544 926.543 C 517.434 929.316, 515.495 929.205, 511.336 924.669 C 508.077 921.113, 507.849 920.444, 508.162 915.356 L 508.500 909.874 501 910.687 C 470.612 913.981, 462.011 909.568, 461.166 890.247 C 460.645 878.343, 462.100 871.618, 466.549 865.361 C 468.448 862.689, 470.275 858.927, 470.607 857.001 C 470.939 855.076, 473.475 847.797, 476.242 840.827 C 481.829 826.756, 481.835 825.557, 476.330 824.558 C 462.934 822.127, 451.044 811.285, 451.044 801.500 C 451.044 795.201, 459.471 783.255, 465.196 781.438 C 469.062 780.211, 469.775 781.032, 423.497 733.358 C 406.449 715.795, 386.802 695.480, 379.838 688.213 C 367.646 675.490, 364.587 673.308, 363.374 676.468 M 258.500 685.467 C 222.298 691.075, 196.314 703.153, 172.148 725.604 C 120.895 773.219, 106.071 854.676, 137.811 914.291 C 176.547 987.046, 259.191 1014.683, 333.944 979.879 C 366.501 964.721, 398.794 929.797, 412.580 894.835 C 434.852 838.354, 423.038 771.381, 383.525 730.120 C 370.791 716.823, 357.831 706.769, 355.906 708.694 C 355.050 709.550, 347 735.394, 347 737.285 C 347 737.806, 351.866 743.242, 357.814 749.366 C 384.434 776.774, 394.249 800.808, 394.095 838.205 C 393.923 879.964, 375.224 917.175, 341.964 941.943 C 303.009 970.951, 246.864 972.973, 206.890 946.807 C 141.227 903.825, 134.649 806.417, 193.603 750.056 C 224.697 720.330, 262.007 711.187, 307.284 722.196 C 313.098 723.610, 316.404 723.996, 317.061 723.339 C 318.159 722.241, 325 697.102, 325 694.164 C 325 688.267, 279.139 682.269, 258.500 685.467 M 732.500 687.545 C 713.623 691.059, 689.006 700.948, 675.318 710.516 C 665.201 717.589, 658 724.157, 658 726.313 C 658 728.216, 672.792 744.256, 676.291 746.147 C 677.716 746.916, 679.559 746.013, 685.291 741.735 C 742.602 698.965, 823.966 717.469, 855.746 780.500 C 879.751 828.109, 870.665 885.232, 833.060 923.136 C 809.090 947.296, 781.419 957.907, 745.500 956.713 C 697.241 955.108, 656.564 924.104, 641.290 877.282 C 639.815 872.762, 638.107 868.871, 637.494 868.636 C 634.956 867.662, 610.811 870.330, 610.308 871.640 C 609.531 873.664, 614.625 890.391, 619.195 900.819 C 638.022 943.785, 677.338 975.319, 723.790 984.712 C 736.056 987.192, 765.153 987.165, 777 984.664 C 834.759 972.466, 881.933 925.946, 894.042 869.244 C 897.066 855.086, 897.865 825.991, 895.601 812.465 C 885.362 751.280, 840.541 702.501, 782 688.832 C 770.454 686.136, 743.796 685.443, 732.500 687.545 M 620.102 706.250 C 617.156 715.344, 615.953 723.043, 617.129 725.267 C 619.972 730.644, 631.074 741.664, 652.497 760.374 C 665.149 771.423, 682.025 786.358, 690 793.563 C 697.975 800.769, 710.575 811.948, 718 818.408 C 737.727 835.568, 738.218 835.002, 701.500 837.427 C 688.300 838.298, 668.725 839.734, 658 840.617 C 647.275 841.501, 628.262 842.323, 615.749 842.446 C 603.237 842.568, 592.742 842.925, 592.428 843.239 C 592.113 843.553, 592.605 845.991, 593.520 848.655 C 594.693 852.072, 595.001 855.094, 594.564 858.906 L 593.946 864.313 614.223 863.624 C 625.375 863.245, 640.350 862.287, 647.500 861.494 C 667.338 859.295, 708.240 855.156, 730 853.147 C 751.835 851.130, 756.164 849.820, 758.723 844.454 C 761.813 837.976, 760.527 835.954, 742.250 818.551 C 703.716 781.861, 654.397 734.453, 638.963 719.269 C 629.868 710.321, 622.140 703, 621.790 703 C 621.441 703, 620.681 704.462, 620.102 706.250 M 604.889 707.793 L 597.674 711.586 595.413 720.043 C 591.490 734.720, 587.151 746.033, 579.460 761.633 C 570.988 778.817, 571.299 777.228, 574.147 788.786 C 576.691 799.114, 577.395 800.197, 581.305 799.801 C 584.016 799.527, 584.622 798.712, 588.108 790.650 C 598.389 766.870, 616.778 704, 613.453 704 C 612.711 704, 608.857 705.707, 604.889 707.793 M 570.007 709.382 C 564.104 714.053, 559.996 720.434, 560.016 724.900 C 560.045 731.587, 568.361 762.446, 570.232 762.806 C 574.057 763.543, 590.159 724.203, 589.115 716.668 C 589.052 716.211, 587.461 716.788, 585.579 717.951 L 582.159 720.065 580.592 717.828 C 579.730 716.597, 578.308 713.432, 577.432 710.795 C 575.535 705.083, 575.458 705.069, 570.007 709.382 M 257.874 725.037 C 239.988 727.126, 209 740.658, 209 746.379 C 209 747.820, 250.408 805.859, 256.081 812.369 C 256.929 813.342, 266.735 808.056, 269.260 805.265 C 273.690 800.370, 296.825 728.491, 294.665 726.332 C 292.609 724.276, 270.926 723.512, 257.874 725.037 M 744.500 724.645 C 732.206 726.062, 717.222 730.729, 706 736.636 C 696.367 741.706, 683.765 749.978, 683.288 751.544 C 683.114 752.118, 695.058 764.333, 709.830 778.688 L 736.690 804.787 742.063 803.394 C 745.018 802.627, 748.435 802, 749.657 802 C 752.483 802, 752.424 802.458, 755.040 760.024 C 757.484 720.368, 758.285 723.057, 744.500 724.645 M 763.985 725.639 C 763.977 726.112, 763.334 734.825, 762.555 745 C 757.755 807.747, 757.548 802.454, 764.956 806.424 C 767.957 808.032, 772.343 811.334, 774.702 813.761 L 778.992 818.175 790.246 812.434 C 796.436 809.276, 807.614 803.428, 815.087 799.438 C 822.560 795.448, 832.797 790.113, 837.837 787.582 C 848.964 781.994, 849.110 781.383, 841.808 771.018 C 831.346 756.168, 816.174 743.445, 799.486 735.526 C 788.749 730.430, 764.021 723.544, 763.985 725.639 M 299.997 733.134 C 297.448 744.001, 287.994 774.902, 283.070 788.459 C 276.961 805.278, 276.993 804.654, 282.197 805.533 C 285.903 806.159, 286.648 805.948, 288.556 803.730 C 293.245 798.278, 315 740.972, 315 734.070 C 315 731.365, 310.957 728.862, 305.613 728.260 L 301.255 727.769 299.997 733.134 M 613.054 736.250 C 612.558 737.487, 610.133 745.732, 607.666 754.571 C 605.199 763.410, 600.871 776.460, 598.049 783.571 C 591.614 799.782, 591.675 801.203, 598.857 802.339 C 605.472 803.386, 605.246 803.642, 608.446 791.509 C 611.570 779.665, 618.544 762.987, 624.051 754.192 C 626.223 750.723, 628 747.560, 628 747.163 C 628 746.212, 615.663 734, 614.702 734 C 614.292 734, 613.551 735.013, 613.054 736.250 M 344.211 748.271 C 343.662 748.947, 340.858 756.925, 337.980 766 C 331.707 785.780, 324.076 805.694, 317.108 820.467 C 314.292 826.437, 312.177 831.511, 312.409 831.742 C 313.337 832.671, 385.388 823.945, 386.572 822.761 C 387.915 821.418, 383.060 801.792, 378.776 791.246 C 373.184 777.480, 364.735 764.434, 355.779 755.736 C 347.626 747.817, 345.628 746.528, 344.211 748.271 M 194.806 757.325 C 180.094 772.083, 168.569 792.420, 163.424 812.701 C 160.657 823.609, 158.301 844.701, 159.694 846.094 C 160.252 846.652, 172.168 845.645, 190.056 843.528 C 206.250 841.611, 224.661 839.463, 230.970 838.754 L 242.440 837.465 245.024 830.483 C 246.446 826.642, 248.421 822.266, 249.414 820.758 C 251.748 817.213, 252.057 817.819, 238.761 799.883 C 232.489 791.422, 222.057 776.962, 215.578 767.750 C 209.099 758.538, 203.194 751, 202.455 751 C 201.716 751, 198.274 753.846, 194.806 757.325 M 630.571 755.251 C 625.048 763.681, 614.557 790.667, 613.332 799.598 L 612.770 803.697 617.582 804.356 C 620.229 804.719, 626.748 805.301, 632.070 805.650 L 641.745 806.284 643.482 800.892 C 644.437 797.926, 647.849 790.439, 651.064 784.253 L 656.910 773.007 654.705 770.612 C 651.471 767.100, 634.082 753, 632.985 753 C 632.469 753, 631.382 754.013, 630.571 755.251 M 655.253 789.750 C 648.756 803.552, 648.022 806.739, 651.179 807.446 C 654.871 808.274, 687.525 811, 693.744 811 L 699.392 811 695.946 807.388 C 688.489 799.573, 664.064 779, 662.243 779 C 660.770 779, 659.115 781.544, 655.253 789.750 M 465.802 788.011 C 455.152 796.791, 455.073 806.885, 465.601 813.859 C 470.468 817.083, 481.965 820.611, 484.470 819.650 C 486.156 819.003, 492.017 807.558, 491.972 805 C 491.941 803.171, 472.716 785, 470.813 785 C 470.066 785, 467.812 786.355, 465.802 788.011 M 838 795.570 C 831.125 799.149, 815.895 806.844, 804.156 812.670 L 782.812 823.262 783.640 827.881 C 784.683 833.695, 784.667 842.268, 783.605 847.616 L 782.787 851.732 795.144 859.047 C 823.525 875.848, 847.400 889.070, 848.852 888.790 C 850.706 888.433, 855.101 877.344, 858.677 864 C 862.174 850.950, 862.926 832.240, 860.533 817.850 C 858.495 805.594, 853.406 788.987, 851.703 789.032 C 851.041 789.049, 844.875 791.991, 838 795.570 M 501.752 802.256 C 495.913 811.167, 478 850.513, 478 854.426 C 478 855.894, 478.267 855.907, 480.750 854.562 C 485.999 851.718, 496.428 842.452, 500.952 836.612 L 505.500 830.740 505.189 816.120 C 504.862 800.744, 504.280 798.397, 501.752 802.256 M 573.293 807.903 C 571.727 810.411, 563.167 814.394, 553.382 817.169 C 542.528 820.246, 526.018 820.301, 517.817 817.287 C 514.692 816.139, 511.879 815.454, 511.567 815.766 C 510.810 816.524, 510.845 823.974, 511.625 827.873 C 513.504 837.269, 548.469 837.924, 566.825 828.908 C 574.560 825.108, 576.991 821.624, 576.996 814.332 C 577.002 806.442, 575.660 804.112, 573.293 807.903 M 582.745 815.166 C 582.379 821.468, 582.576 824.950, 583.352 825.884 C 583.983 826.645, 585.400 829.120, 586.500 831.384 L 588.500 835.500 598 836.308 C 608.355 837.189, 618.706 836.858, 653 834.549 C 665.375 833.716, 683.375 832.573, 693 832.010 C 714.001 830.780, 720 830.098, 720 828.943 C 720 828.464, 717.330 825.851, 714.066 823.135 L 708.132 818.197 698.316 817.538 C 665.006 815.305, 598.914 808.732, 586.394 806.408 L 583.287 805.831 582.745 815.166 M 744.517 809.973 C 744.046 810.734, 747.631 814.891, 754.315 821.336 C 763.009 829.721, 764.976 832.166, 765.549 835.306 C 767.884 848.100, 758.392 858, 743.788 858 C 737.758 858, 737 858.215, 737 859.922 C 737 864.702, 755.049 866.199, 763.358 862.108 C 780.503 853.668, 784.009 831.934, 770.386 818.539 C 763.523 811.792, 746.812 806.258, 744.517 809.973 M 267.201 814.058 C 244.167 825.568, 242.421 856.059, 264.174 866.929 C 274.556 872.117, 283.233 870.532, 291.901 861.864 C 299.078 854.687, 298.711 851.060, 291.288 855.801 C 280.992 862.376, 273.119 860.214, 267.614 849.300 C 263.554 841.251, 265.805 833.856, 275.852 822.228 C 283.732 813.108, 284.011 812.504, 280.750 811.630 C 276.403 810.465, 273.264 811.028, 267.201 814.058 M 377 831.044 C 374.525 831.480, 358.100 833.489, 340.500 835.508 C 321.581 837.679, 307.980 839.677, 307.229 840.396 C 306.530 841.066, 305.531 844.237, 305.009 847.444 C 304.487 850.650, 302.719 856.141, 301.079 859.645 L 298.098 866.015 302.299 871.965 C 304.610 875.237, 314.421 888.396, 324.103 901.207 C 333.784 914.018, 342.330 925.513, 343.093 926.750 C 345.384 930.464, 347.386 929.414, 355.488 920.250 C 376.164 896.865, 384.958 874.665, 387.575 839.250 L 388.258 830 384.879 830.125 C 383.021 830.194, 379.475 830.607, 377 831.044 M 572.775 832.557 C 564.248 838.143, 554.756 840.327, 539.500 840.217 C 531.015 840.155, 522.618 839.501, 518.184 838.557 C 509.864 836.786, 508.910 837.064, 503.941 842.712 L 500.608 846.500 506.054 847.274 C 518.856 849.094, 524.946 851.791, 526.548 856.351 C 527.735 859.727, 525.561 860.043, 520.465 857.235 C 512.683 852.948, 496.336 853.156, 486.820 857.665 C 470.092 865.590, 462.110 880.501, 469.921 889.234 L 472.843 892.500 488.671 892.424 C 518.959 892.278, 562.382 880.643, 578.858 868.258 C 582.959 865.175, 586.977 856.903, 586.990 851.516 C 587.001 847.130, 579.473 829.956, 577.584 830.059 C 576.988 830.091, 574.824 831.216, 572.775 832.557 M 226.500 846.006 C 223.200 846.409, 208.350 847.938, 193.500 849.405 C 178.650 850.871, 164.982 852.311, 163.128 852.604 L 159.755 853.137 160.431 860 C 162.107 877, 172.060 901.821, 182.943 916.135 C 192.691 928.957, 211.680 944.854, 214.116 942.232 C 214.490 941.830, 219.165 933.175, 224.504 923 C 229.844 912.825, 238.440 896.799, 243.606 887.386 C 248.773 877.974, 253 869.623, 253 868.830 C 253 868.037, 251.839 865.839, 250.421 863.944 C 246.966 859.331, 243.406 852.236, 242.544 848.250 C 241.759 844.618, 239.947 844.365, 226.500 846.006 M 776.447 861.056 C 773.862 863.753, 767.238 867.418, 758.750 870.846 C 756.540 871.739, 755.999 872.599, 755.992 875.229 C 755.988 877.028, 755.120 890.200, 754.063 904.500 C 753.006 918.800, 751.831 935.183, 751.452 940.907 L 750.762 951.313 759.533 950.639 C 792.224 948.126, 823.295 930.321, 841.290 903.788 C 846.893 895.528, 846.820 895.314, 836.500 889.706 C 831.550 887.016, 817.077 878.781, 804.337 871.407 C 791.597 864.033, 780.769 858, 780.274 858 C 779.779 858, 778.057 859.375, 776.447 861.056 M 703.500 861.570 C 666.613 865.392, 649.284 867.414, 647.290 868.128 L 645.080 868.920 646.902 874.210 C 649.332 881.264, 657.250 896.949, 662.445 905 C 678.091 929.248, 707.832 947.360, 737.157 950.500 L 743.706 951.201 744.359 943.851 C 750.787 871.546, 750.802 871.203, 747.750 870.576 C 736.584 868.285, 734.828 867.601, 730.634 863.909 C 725.493 859.384, 725.002 859.341, 703.500 861.570 M 584.268 870.916 C 574.068 882.758, 527.464 896.935, 493.188 898.623 C 481.374 899.205, 478.588 898.938, 469.750 896.373 C 466.995 895.574, 467.614 898.767, 470.837 901.991 C 474.670 905.824, 480.354 906.540, 495.362 905.081 C 512.601 903.406, 523.029 901.525, 543 896.489 C 579.048 887.399, 587.270 882.901, 589.030 871.303 C 589.930 865.370, 589.103 865.303, 584.268 870.916 M 288.263 872.621 C 282.423 876.159, 273.833 876.872, 265.919 874.475 C 262.294 873.378, 259.580 873.026, 259.033 873.582 C 258.536 874.087, 254.271 881.792, 249.555 890.705 C 244.839 899.618, 236.260 915.593, 230.491 926.205 C 224.721 936.817, 220.001 946.003, 220.001 946.618 C 220 948.352, 237.621 954.681, 248.778 956.955 C 271.666 961.619, 297.436 957.817, 320.211 946.415 C 329.506 941.762, 340.229 934.179, 339.403 932.843 C 338.907 932.041, 304.425 885.860, 294.500 872.706 L 292.500 870.055 288.263 872.621 M 939.724 894.500 C 931.771 902.925, 925.172 916.560, 923.002 929.051 C 921.179 939.546, 918.133 941.182, 916.021 932.801 C 914.151 925.381, 910.423 915.641, 909.312 915.271 C 908.136 914.879, 907.188 916.752, 905.957 921.896 C 904.992 925.931, 907.348 940.805, 909.239 942.611 C 910.646 943.955, 937.579 945.267, 943.622 944.286 C 946.589 943.805, 948.016 942.627, 951.720 937.601 C 955.617 932.312, 962 921.091, 962 919.529 C 962 916.079, 950.825 924.086, 943.666 932.665 C 939.355 937.830, 936.872 940, 935.272 940 C 932.459 940, 932.231 941.542, 937.367 925.845 C 942.198 911.079, 944.369 900.575, 943.845 894.500 L 943.500 890.500 939.724 894.500 M 560.633 898.023 C 557.407 899.036, 547.507 901.508, 538.633 903.518 C 513.793 909.143, 514.555 908.841, 514.192 913.208 C 513.812 917.792, 515.333 920.796, 518.679 922.068 C 523.331 923.837, 569.496 918.352, 571.160 915.833 C 571.991 914.575, 571.410 901.536, 570.353 897.750 C 569.757 895.611, 568.179 895.656, 560.633 898.023" stroke="none" fill="#1a1a1a" fill-rule="evenodd"/>
</svg>