<svg xmlns="http://www.w3.org/2000/svg" width="1024" height="1024" viewBox="0 0 1024 1024" version="1.1">
	<path d="M 242.508 10.103 C 177.100 83.960, 158.368 177.908, 189.917 273.854 C 203.785 316.027, 227.888 355.539, 272.970 410 C 329.695 478.526, 348.039 506.707, 365.986 552.897 C 369.884 562.927, 370.343 554.629, 361.441 635 C 354.827 694.711, 352.889 710.534, 345.943 761.500 C 343.770 777.450, 339.727 808.275, 336.959 830 C 330.675 879.326, 331.431 875.866, 326.574 877.536 C 317.925 880.509, 315.330 887.365, 316.945 902.976 C 318.119 914.320, 319.809 917.591, 325.925 920.348 L 330.696 922.500 333.450 940 C 336.665 960.428, 345.464 1011.403, 347.064 1018.861 C 348.090 1023.648, 348.369 1024, 351.142 1024 C 353.123 1024, 353.881 1023.617, 353.410 1022.855 C 352.909 1022.044, 353.549 1021.903, 355.601 1022.372 C 357.196 1022.735, 363.113 1023.315, 368.750 1023.660 C 378.673 1024.267, 379 1024.221, 379 1022.203 C 379 1019.323, 378.564 1019.167, 366.859 1017.862 C 353.517 1016.375, 352.422 1015.939, 351.712 1011.829 C 345.401 975.316, 342.004 955.358, 342.002 954.775 C 342.001 954.376, 343.142 954.484, 344.537 955.014 C 348.049 956.349, 369.310 958.479, 371.342 957.699 C 372.254 957.349, 373 956.169, 373 955.077 C 373 952.908, 373.146 952.946, 357.500 951.011 C 344.503 949.403, 341.118 948.348, 340.504 945.714 C 339.735 942.418, 337.187 924.539, 337.445 924.250 C 337.567 924.112, 345.730 924.879, 355.584 925.954 C 374.292 927.995, 402.227 930.067, 439.500 932.178 C 501.694 935.700, 616.754 932.736, 681 925.957 C 691.175 924.883, 699.775 924.004, 700.112 924.002 C 700.632 924, 699.522 932.736, 697.492 944.618 C 696.880 948.201, 694.042 949.065, 675.500 951.313 C 665.838 952.484, 665.500 952.609, 665.500 955.012 C 665.500 957.467, 665.598 957.496, 672.927 957.189 C 677.012 957.018, 683.762 956.285, 687.927 955.561 C 692.092 954.837, 695.604 954.330, 695.730 954.436 C 695.857 954.541, 694.169 964.949, 691.980 977.564 C 689.790 990.179, 687.479 1003.559, 686.845 1007.297 C 685.434 1015.612, 685.376 1015.648, 670.747 1017.327 C 658.174 1018.770, 657 1019.187, 657 1022.211 C 657 1024.240, 657.312 1024.285, 667.250 1023.666 C 672.888 1023.315, 678.962 1022.603, 680.750 1022.084 C 683.342 1021.331, 684 1021.429, 684 1022.570 C 684 1023.471, 685.040 1024, 686.811 1024 L 689.621 1024 692.242 1010.250 C 693.683 1002.688, 697.664 979.850, 701.089 959.500 L 707.315 922.500 712.407 920 C 719.028 916.750, 721.039 911.425, 721.260 896.555 C 721.462 883.022, 718.866 878.526, 710 877.050 C 706.609 876.485, 706.478 876.296, 705.797 870.983 C 705.411 867.968, 703.251 849.975, 700.997 831 C 698.744 812.025, 695.134 783, 692.975 766.500 C 684.759 703.695, 674.555 617.532, 670.489 576.631 L 668.912 560.763 671.956 553.451 C 673.630 549.429, 675 545.652, 675 545.056 C 675 542.771, 686.510 518.018, 692.231 508 C 709.039 478.569, 726.697 454.558, 765.041 409 C 829.250 332.708, 856.038 274.455, 861.111 200.084 C 865.824 130.987, 840.015 56.384, 794.326 7.035 C 788.115 0.327, 787.603 -0, 783.309 -0 L 778.804 -0 787.793 9.497 C 864 90.021, 876.766 218.275, 818.934 322.365 C 803.113 350.840, 786.977 372.924, 747.776 419.751 C 723.060 449.277, 705.420 473.540, 688.887 500.753 C 685.670 506.047, 684.847 506.762, 681.387 507.264 C 679.249 507.574, 670.750 508.970, 662.500 510.366 C 645.756 513.201, 633 514.598, 633 513.598 C 633 513.235, 635.349 506.990, 638.221 499.719 C 647.740 475.614, 663.780 444.653, 685.477 408.500 C 730.563 333.376, 750.139 282.558, 758.668 218.500 C 760.836 202.216, 761.145 153.982, 759.183 138 C 752.747 85.566, 739.759 46.401, 716.650 9.750 C 710.655 0.242, 710.410 0, 706.751 0 C 704.688 0, 703 0.130, 703 0.290 C 703 0.449, 706.351 5.653, 710.448 11.855 C 733.695 47.049, 746.499 85.946, 753.124 141.500 C 754.945 156.764, 754.639 198.713, 752.585 215.500 C 745.140 276.342, 725.214 329.417, 683.504 399.500 C 652.971 450.803, 638.397 479.348, 628.496 507.239 C 625.887 514.589, 625.661 514.879, 622.145 515.419 C 616.875 516.229, 587.408 518.746, 574.167 519.519 L 562.834 520.179 563.518 514.340 C 566.354 490.152, 573.764 455.723, 587.405 403.355 C 602.730 344.523, 607.325 323.434, 613.413 284 C 628.727 184.804, 623.666 76.329, 600.384 4.750 C 598.959 0.368, 598.586 0, 595.572 0 L 592.305 -0 596.163 12.750 C 610.688 60.741, 616.742 113.090, 615.679 181.500 C 614.613 250.083, 607.529 299.890, 587.874 377 C 583.458 394.325, 577.897 416.150, 575.515 425.500 C 567.087 458.592, 559.950 493.684, 557.464 514.250 L 556.770 520 545.635 520.221 C 534.343 520.444, 487.671 520.012, 487.356 519.680 C 487.262 519.581, 486.671 515, 486.043 509.500 C 484.177 493.151, 480.463 473.070, 471.929 433.188 C 449.999 330.701, 445.954 306.297, 440.816 245.500 C 439.143 225.702, 439.160 153.727, 440.843 132 C 444.681 82.446, 454.759 27.245, 464.695 1.352 C 465.068 0.381, 464.266 0, 461.853 -0 L 458.492 -0 454.772 12.750 C 434.388 82.627, 427.993 175.579, 437.085 269.857 C 441.217 312.715, 445.917 339.817, 463.641 423 C 476.252 482.185, 478.654 495.136, 480.504 513.909 L 481.135 520.318 465.100 519.657 C 448.674 518.980, 425.910 517.357, 420.429 516.472 C 417.688 516.030, 417.167 515.359, 415.587 510.238 C 409.230 489.640, 392.142 454.566, 367.238 411 C 334.154 353.127, 322.437 327.717, 309.596 286 C 279.988 189.806, 291.652 86.461, 340.528 11.957 C 344.638 5.693, 348 0.440, 348 0.284 C 348 0.128, 346.299 -0, 344.219 -0 C 340.507 -0, 340.321 0.187, 334.032 10.250 C 310.904 47.252, 296.148 89.281, 289.777 136.298 C 287.212 155.221, 286.677 199.966, 288.806 217.500 C 296.776 283.162, 315.382 333.458, 361.496 414 C 387.171 458.844, 398.542 481.683, 407.466 506.337 L 410.890 515.795 407.195 515.383 C 390.598 513.530, 377.455 511.634, 365.796 509.408 L 352.092 506.792 345.057 495.522 C 329.808 471.094, 314.611 450.760, 281.517 410.500 C 245.063 366.152, 228.541 342.446, 213.567 313 C 158.816 205.337, 173.883 91.597, 254.135 6.750 L 260.519 0 255.987 0 C 251.501 0, 251.366 0.101, 242.508 10.103 M 154.487 476.799 C 138.973 482.163, 127.400 494.966, 123.880 510.657 L 122.723 515.814 118.817 514.435 C 111.872 511.985, 105.803 511.679, 98.933 513.433 C 59.795 523.422, 57.762 575.984, 96 589.246 L 102.500 591.500 185.618 591.374 C 278.368 591.234, 274.536 591.513, 282.995 584.272 C 299.739 569.940, 290.955 542.268, 269.466 541.650 L 264.244 541.500 263.682 536.133 C 261.521 515.483, 239.810 502.576, 220.552 510.493 C 217.281 511.837, 214.535 512.839, 214.450 512.719 C 214.365 512.598, 213.757 510.302, 213.099 507.616 C 209.517 492.983, 195.493 479.658, 179.888 476.061 C 172.967 474.465, 160.159 474.837, 154.487 476.799 M 155.500 482.746 C 140.758 488.033, 129.988 502.101, 129.480 516.737 C 129.175 525.529, 128.406 526.009, 120.783 522.165 C 109.746 516.599, 99.347 517.225, 89.424 524.052 C 64.630 541.111, 71.694 576.478, 101.500 584.513 C 108.560 586.417, 263.826 585.782, 271.483 583.819 C 276.934 582.421, 283.441 575.772, 285.022 569.983 C 288.851 555.964, 274.079 542.254, 261.921 548.541 C 257.519 550.817, 256.804 549.761, 257.559 542.101 C 259.805 519.308, 233.765 505.639, 215.700 520.127 C 210.634 524.190, 209.586 523.489, 208.299 515.174 C 206.067 500.760, 198.664 490.552, 186.201 484.706 C 177.637 480.689, 163.715 479.800, 155.500 482.746 M 675.500 514.645 C 655.516 518.773, 598.945 524.690, 567 525.995 C 499.498 528.751, 409.243 524.246, 366.782 516.002 C 361.127 514.904, 356.418 514.005, 356.318 514.003 C 356.218 514.001, 358.071 518.163, 360.435 523.250 C 365.587 534.335, 372 550.460, 372 552.329 C 372 555.211, 395.098 559.696, 429.129 563.423 C 474.209 568.359, 548.177 568.795, 599 564.425 C 635.176 561.315, 666 555.831, 666 552.506 C 666 550.527, 674.021 529.981, 678.303 520.990 C 680.259 516.885, 681.778 513.499, 681.679 513.466 C 681.581 513.433, 678.800 513.964, 675.500 514.645 M 661.900 561.434 C 659.686 563.647, 618.714 569.286, 589 571.466 C 540.861 574.998, 454.061 573.929, 426.389 569.463 C 423.340 568.971, 423.264 569.058, 422.610 573.731 C 421.260 583.368, 414 640.966, 414 642.031 C 414 642.636, 416.660 639.164, 419.910 634.316 C 436.783 609.149, 464.163 591.562, 496 585.441 C 508.618 583.015, 537.169 582.991, 551.500 585.394 C 594.769 592.648, 629.743 623.063, 640.164 662.500 C 643.086 673.556, 643.920 702.798, 641.657 714.800 C 640.289 722.052, 640.276 723.531, 641.551 727.145 C 643.222 731.879, 643.443 741.866, 641.993 747.085 C 641.195 749.957, 641.578 753.438, 643.919 764.585 C 647.785 782.995, 648.439 790.164, 647.062 799.036 C 644.003 818.755, 630.840 832.223, 611.837 835.079 C 603.954 836.264, 594 839.026, 594 840.028 C 594 840.366, 595.812 845.449, 598.026 851.325 C 600.240 857.201, 602.317 863.335, 602.641 864.956 C 603.184 867.671, 603.478 867.848, 606.365 867.202 C 612.915 865.735, 626.387 866.510, 632.551 868.708 C 637.271 870.391, 642.736 871.066, 659 871.972 C 670.275 872.601, 683.940 873.561, 689.368 874.107 C 694.795 874.652, 699.430 874.903, 699.669 874.664 C 700.159 874.174, 693.095 814.588, 686.489 763.500 C 676.898 689.320, 668.069 614.500, 665.095 582.196 C 663.326 562.972, 662.930 560.403, 661.900 561.434 M 375 564.923 C 375 574.929, 359.487 707.588, 351.428 766.500 C 348.946 784.650, 345.125 813.675, 342.938 831 C 340.751 848.325, 338.493 865.134, 337.918 868.354 C 337.344 871.573, 337.025 874.358, 337.209 874.542 C 337.393 874.726, 343.834 874.245, 351.522 873.473 C 359.210 872.701, 376.300 871.597, 389.500 871.020 C 402.700 870.442, 418.471 869.713, 424.546 869.399 L 435.592 868.828 437.528 863.664 C 438.593 860.824, 439.586 858.273, 439.734 857.995 C 439.882 857.718, 437.280 856.435, 433.952 855.145 C 430.624 853.854, 425.687 851.308, 422.980 849.486 C 418.706 846.610, 417.209 846.168, 411.603 846.125 C 403.825 846.065, 400.916 845.421, 394.937 842.435 C 390.651 840.294, 383 833.045, 383 831.125 C 383 830.647, 381.270 829.979, 379.156 829.641 C 369.541 828.103, 361.682 816.192, 361.566 802.982 C 361.466 791.564, 365.315 784.414, 376.815 774.657 C 398.068 756.626, 398.263 756.125, 399.121 717.500 C 399.781 687.838, 400.343 682.163, 403.979 668.500 C 405.004 664.650, 407.039 650.700, 408.502 637.500 C 409.965 624.300, 412.475 603.635, 414.081 591.577 C 415.686 579.520, 417 569.282, 417 568.827 C 417 568.372, 415.747 568, 414.215 568 C 411.974 568, 394.876 565.310, 377.750 562.262 C 375.228 561.814, 375 562.035, 375 564.923 M 843.656 580.975 C 827.591 586.107, 815.212 601.077, 814.188 616.613 L 813.784 622.726 808.642 620.770 C 796.951 616.323, 782.505 619.908, 772.516 629.736 C 752.887 649.046, 760.660 679.766, 787.511 689.004 C 793.001 690.892, 796.354 690.971, 872.863 691.014 C 961.245 691.063, 957.775 691.308, 965.795 684.443 C 981.808 670.737, 972.779 643.128, 952.250 643.022 L 948 643 947.990 638.750 C 947.970 630.150, 940.789 619.570, 931.723 614.784 C 925.402 611.447, 913.384 611.568, 906.364 615.040 L 901.229 617.581 900.639 612.601 C 897.876 589.269, 868.583 573.011, 843.656 580.975 M 844.848 586.516 C 829.959 591.276, 819.923 605.906, 819.737 623.122 C 819.631 632.884, 819.131 633.224, 811.354 628.817 C 803.079 624.128, 792.228 623.989, 784.141 628.468 C 760.484 641.571, 762.983 673.367, 788.418 682.884 C 793.416 684.753, 797.064 684.850, 872.571 685.104 C 959.634 685.398, 955.475 685.672, 962.373 679.197 C 973.905 668.373, 965.746 647.430, 950.741 649.340 C 940.335 650.665, 941.455 651.417, 941.849 643.367 C 942.575 628.516, 932.890 618, 918.500 618.015 C 914.157 618.020, 904.801 621.913, 901.339 625.157 C 897.201 629.034, 895.547 627.364, 895.322 619.082 C 894.959 605.756, 886.986 594.113, 874.175 588.202 C 867.118 584.946, 852.405 584.100, 844.848 586.516 M 506.408 590.003 C 452.173 595.854, 413.601 633.912, 405.977 689.094 C 405.338 693.717, 404.734 708.750, 404.635 722.500 C 404.393 755.940, 402.900 759.684, 383.089 776.533 C 378.205 780.687, 373.005 785.905, 371.534 788.128 C 364.367 798.957, 366.767 816.229, 376.241 822.005 C 380.642 824.689, 380.544 824.788, 380.164 818.054 C 379.602 808.109, 385.668 793, 390.223 793 C 392.643 793, 392.462 794.749, 389.337 801.574 C 383.424 814.490, 385.802 829.532, 394.687 835.411 C 398.502 837.936, 411.519 841.814, 412.588 840.745 C 412.891 840.442, 412.249 838.448, 411.161 836.315 C 407.127 828.409, 406.256 815.692, 409.561 812.950 C 411.876 811.028, 412.679 812.669, 413.357 820.717 C 414.560 834.981, 421.323 843.748, 435.227 849.068 C 442.529 851.863, 442.705 851.767, 448.453 841.857 C 457.185 826.801, 470.101 816.063, 483.626 812.613 L 488.369 811.403 482.435 809.228 C 467.972 803.928, 452.724 791.581, 447.929 781.287 C 446.190 777.555, 445.074 776.240, 444 776.658 C 440.011 778.212, 432.916 778.133, 427.939 776.480 C 405.696 769.092, 403.524 732.316, 424.952 725.896 C 429.787 724.448, 430.322 722.992, 435.538 697.120 C 439.434 677.799, 439.420 677.840, 441.664 678.701 C 444.459 679.774, 441.247 703.346, 436.011 720.203 C 434.313 725.667, 434.314 725.974, 436.019 727.518 C 437.678 729.019, 437.973 728.902, 440.329 725.813 C 443.156 722.107, 446.362 715.083, 447.995 709.019 C 448.948 705.481, 450.159 704.272, 458.121 698.918 C 474.252 688.072, 488.406 672.828, 497.584 656.416 C 499.557 652.887, 501.782 650, 502.527 650 C 509.455 650, 494.642 674.638, 478.586 689.821 C 471.666 696.365, 457.029 707, 454.943 707 C 454.502 707, 453.395 709.568, 452.483 712.707 C 448.099 727.786, 436.781 741.187, 434.500 733.999 C 432.283 727.013, 421.828 730.587, 416.942 740 C 413.858 745.942, 416.542 760.518, 421.788 766.320 C 427.216 772.322, 437.883 774.089, 444.394 770.066 C 448.706 767.401, 449.156 767.686, 451.402 774.500 C 458.989 797.524, 495.716 814.278, 535 812.636 C 568.947 811.218, 587.138 804.394, 604.500 786.565 C 618.629 772.055, 620.447 765.060, 619.584 728.540 C 618.551 684.880, 618.515 684.664, 611.996 682.499 C 601.045 678.861, 583.825 663.620, 573.826 648.715 L 569.360 642.057 564.449 651.754 C 556.189 668.067, 545.444 677.968, 532 681.655 C 528.425 682.636, 523.612 684.869, 521.305 686.618 C 515.615 690.932, 506.363 695.353, 504.512 694.643 C 501.522 693.496, 503.184 691.425, 510.647 687 C 524.478 678.800, 535.111 665.056, 541.981 646.500 C 544.525 639.629, 547.065 637.386, 547.827 641.338 C 548.501 644.842, 543.054 659.538, 538.129 667.500 C 535.407 671.900, 533.344 675.667, 533.545 675.871 C 533.745 676.076, 535.900 675.076, 538.333 673.651 C 551.075 666.184, 562.358 649.085, 565.549 632.409 C 567.216 623.698, 567.302 623.518, 569.457 624.345 C 570.485 624.740, 571 626.248, 571 628.867 C 571 643.928, 602.682 676.223, 620.789 679.620 C 624.560 680.328, 625.842 682.280, 623.997 684.504 C 623.214 685.447, 622.986 687.523, 623.367 690.241 C 623.695 692.583, 624.050 699.469, 624.156 705.543 L 624.349 716.585 627.924 716.549 C 629.891 716.529, 632.452 716.858, 633.615 717.281 C 635.476 717.957, 635.809 717.595, 636.383 714.275 C 637.874 705.650, 638.192 690.766, 637.119 679.813 C 632.631 634.005, 598.346 599.178, 549.668 590.978 C 541.601 589.619, 515.430 589.029, 506.408 590.003 M 578.250 685.491 C 573.623 687.502, 574.836 691.826, 579.500 689.947 C 584.396 687.973, 591.903 689.354, 597.222 693.207 C 599.809 695.081, 601.601 692.940, 599.832 690.090 C 596.595 684.876, 585.234 682.455, 578.250 685.491 M 486.500 691.483 C 481.862 693.155, 479 696.234, 479 699.552 C 479 702.990, 480.677 703.422, 482.605 700.481 C 484.879 697.009, 489.380 694.823, 493.836 695.027 C 499.357 695.278, 500 695.125, 500 693.559 C 500 690.615, 492.225 689.420, 486.500 691.483 M 579.291 720.372 C 575.895 723.484, 575.579 724.253, 575.191 730.335 C 574.793 736.595, 574.924 737.078, 577.809 739.963 C 585.023 747.177, 594 740.812, 594 728.482 C 594 717.464, 586.798 713.493, 579.291 720.372 M 625.363 740.497 C 625.438 750.670, 625.822 758.995, 626.215 758.997 C 626.609 758.999, 628.492 757.629, 630.400 755.953 C 641.314 746.371, 639.360 722, 627.678 722 L 625.225 722 625.363 740.497 M 490.566 725.927 C 484.399 732.742, 488.245 748.120, 496.289 748.807 C 504.178 749.481, 507.522 733.442, 500.950 726.447 C 498.106 723.420, 493.064 723.167, 490.566 725.927 M 547.292 740.475 C 544.132 742.735, 545.346 744.980, 549.374 744.327 C 555.377 743.353, 557.538 749.179, 553.064 754.274 C 548.538 759.429, 552.415 761.313, 557.364 756.364 C 564.620 749.107, 555.449 734.640, 547.292 740.475 M 425.597 744.304 C 423.310 745.978, 424.261 748, 427.337 748 C 430.580 748, 433.749 750.588, 436.066 755.129 C 438.534 759.967, 441.631 760.183, 441.282 755.492 C 440.745 748.287, 430.317 740.848, 425.597 744.304 M 634.007 760.493 C 632.694 761.890, 629.945 763.535, 627.898 764.149 C 624.654 765.121, 623.912 765.954, 622.118 770.643 C 617.809 781.905, 607.381 793.906, 594.448 802.491 C 588.123 806.689, 574.582 812.968, 571.809 812.988 C 569.270 813.006, 568.686 814.766, 570.978 815.493 C 574.554 816.628, 582.829 823.853, 586.964 829.452 L 590.998 834.912 595.216 833.424 C 609.544 828.369, 619.328 817.582, 623.634 802.092 C 624.577 798.700, 625.894 796, 626.605 796 C 632.018 796, 625.784 816.409, 617.671 825.250 C 613.672 829.608, 614.531 829.897, 621.640 826.587 C 629.372 822.987, 634.220 818.033, 638.088 809.780 C 641.351 802.818, 641.500 801.997, 641.500 791 C 641.500 783.755, 640.802 775.985, 639.614 770 C 637.166 757.672, 636.970 757.339, 634.007 760.493 M 175.763 769.467 C 163.390 774.166, 154.329 785.277, 153.261 797.062 L 152.743 802.768 149.122 801.767 C 143.328 800.167, 133.727 801.384, 128.645 804.362 C 109.122 815.803, 110.607 842.793, 131.273 852.137 L 136.500 854.500 189 854.500 L 241.500 854.500 246.727 852.137 C 263.860 844.391, 267.849 822.884, 254.699 809.162 C 247.969 802.141, 236.533 799.287, 227 802.251 L 222.500 803.650 222.376 798.504 C 222.116 787.721, 214.857 777.025, 204.250 771.800 C 196.391 767.928, 182.757 766.811, 175.763 769.467 M 182.920 774.112 C 168.040 776.300, 159.062 787.258, 159.022 803.281 C 158.998 812.937, 157.421 815.488, 154.122 811.207 C 149.264 804.904, 135.080 805.759, 127.658 812.803 C 117.007 822.913, 119.382 839.268, 132.474 845.958 L 137.448 848.500 188.974 848.500 C 239.686 848.500, 240.574 848.466, 245.181 846.337 C 265.132 837.117, 257.345 806.934, 235.038 807.022 C 229.605 807.044, 221.975 809.613, 220.564 811.896 C 219.759 813.198, 216.348 813.372, 215.592 812.149 C 215.303 811.681, 215.582 808.525, 216.212 805.137 C 219.599 786.923, 202.728 771.200, 182.920 774.112 M 521 774.923 C 521 778.790, 532.671 785.700, 540.834 786.667 C 550.329 787.791, 563 781.929, 563 776.411 C 563 773.189, 561.848 773.366, 556.565 777.398 C 548.777 783.344, 538.448 783.157, 529.363 776.906 C 525.247 774.074, 521 773.067, 521 774.923 M 490.347 817.095 C 477.850 819.183, 467.104 825.818, 458.502 836.758 C 450.548 846.874, 439.654 871.157, 436.547 885.699 L 435.863 888.898 450.867 889.199 L 465.870 889.500 469.364 884.795 C 473.408 879.350, 472.774 878.645, 464.187 879.042 C 457.645 879.344, 457 879.203, 457 877.475 C 457 874.103, 467.209 872.914, 474.338 875.456 C 480.091 877.508, 481.228 875.813, 483.310 862.087 C 485.201 849.612, 485.407 849, 487.710 849 C 489.098 849, 489.226 850.252, 488.707 858.773 C 488.379 864.148, 487.783 869.402, 487.382 870.447 C 486.771 872.040, 486.964 872.213, 488.576 871.519 C 493.323 869.474, 510.486 869.697, 514.722 871.858 C 519.830 874.464, 525.265 880.742, 527.022 886.066 L 528.372 890.156 543.936 889.556 C 552.496 889.226, 564.159 888.695, 569.852 888.375 L 580.205 887.794 579.510 882.147 C 579.128 879.041, 577.780 870.200, 576.515 862.500 C 575.250 854.800, 574.586 848.103, 575.040 847.617 C 578.017 844.434, 580.158 850.698, 583.612 872.695 L 585.370 883.889 587.043 880.153 C 588.594 876.689, 592.228 872.968, 596.515 870.455 C 598.223 869.454, 598.223 869.183, 596.526 863.955 C 587.682 836.721, 575.368 820.456, 561.391 817.550 C 558.609 816.971, 558.150 817.224, 557.017 819.959 C 555.168 824.423, 549.116 830.242, 543.449 833.007 C 535.994 836.644, 521.604 836.541, 514.437 832.799 C 508.748 829.829, 503.113 824.101, 501.101 819.243 C 499.637 815.710, 499.181 815.619, 490.347 817.095 M 507.710 819.590 C 514.149 828.624, 526.245 832.274, 538.500 828.882 C 542.111 827.882, 553.033 818.677, 551.905 817.584 C 551.682 817.368, 547.225 817.641, 542 818.190 C 532.954 819.141, 518.054 818.748, 509.568 817.334 L 505.635 816.679 507.710 819.590 M 602.707 873.533 C 596.750 875.719, 593.365 878.631, 591.572 883.112 C 590.661 885.388, 590.048 887.377, 590.208 887.534 C 590.369 887.690, 593.513 887.574, 597.197 887.276 C 603.786 886.743, 603.898 886.686, 604.197 883.694 C 604.663 879.024, 606.733 879.289, 608.037 884.185 C 610.737 894.329, 617.652 901.491, 620.765 897.367 C 622.162 895.517, 621.993 888.729, 620.373 881.619 C 619.872 879.420, 620.046 878.842, 621.108 879.174 C 623.450 879.906, 626.450 887.175, 626.989 893.421 C 627.554 899.969, 628.832 901.168, 631.938 898.063 C 634.487 895.513, 634.667 889.708, 632.375 883.979 C 630.465 879.206, 631.133 877.917, 634.132 880.589 C 636.844 883.007, 639 888.045, 639 891.968 C 639 895.194, 639.850 895.750, 641.800 893.800 C 646.335 889.265, 637.426 875.601, 628.277 873.060 C 622.941 871.578, 607.242 871.869, 602.707 873.533 M 411.500 875.679 C 369.101 877.422, 338.203 879.917, 344 881.131 C 353.120 883.039, 411.570 888, 424.944 888 L 430.728 888 431.351 883.750 C 431.693 881.413, 432.256 878.487, 432.603 877.250 C 433.293 874.787, 433.262 874.785, 411.500 875.679 M 489.332 876.851 C 482.616 879.172, 473.161 886.364, 473.033 889.250 C 473.015 889.663, 475.025 890, 477.500 890 C 480.833 890, 482 889.611, 482 888.500 C 482 885.367, 484.080 887.216, 486.949 892.898 C 493.972 906.811, 504.463 906.271, 499.079 892.273 C 495.709 883.512, 495.606 883, 497.214 883 C 499.483 883, 505.022 891.513, 505.823 896.232 C 506.397 899.609, 507.013 900.567, 508.774 900.820 C 511.748 901.246, 511.877 894.299, 509.030 887.077 C 506.875 881.610, 507.773 879.579, 511.038 882.534 C 513.489 884.752, 517 891.985, 517 894.816 C 517 897.333, 519.175 897.699, 521.008 895.490 C 524.405 891.397, 519.074 880.395, 511.929 876.752 C 507.374 874.429, 496.200 874.478, 489.332 876.851 M 645.808 881.109 L 648.499 885.219 657.499 884.550 C 668.151 883.759, 693.366 880.959, 693.811 880.519 C 694.530 879.807, 658.322 877.050, 647.809 877.015 L 643.118 877 645.808 881.109 M 323.910 887.157 C 323.001 889.313, 322.576 893.463, 322.713 898.845 C 322.985 909.493, 324.949 913.839, 330.307 915.649 C 343.091 919.967, 401.614 924.739, 470.500 927.079 C 552.354 929.860, 694.844 922.337, 710.139 914.428 C 713.691 912.591, 715.055 907.744, 715.148 896.635 C 715.257 883.499, 714.681 883.009, 701.986 885.438 C 694.627 886.846, 673.459 889.269, 657.436 890.537 C 649.762 891.144, 649.321 891.311, 648.313 893.981 C 647.195 896.943, 642.996 900.261, 640.094 900.475 C 639.145 900.545, 636.978 901.591, 635.280 902.801 C 632.201 904.993, 626.594 905.770, 625.589 904.144 C 625.298 903.673, 622.855 903.500, 620.160 903.759 C 615.619 904.195, 614.960 903.959, 611.173 900.537 C 608.925 898.506, 606.797 895.937, 606.445 894.827 C 605.834 892.901, 605.255 892.839, 593.652 893.463 C 586.969 893.822, 569.464 894.490, 554.754 894.947 L 528.008 895.780 525.103 898.890 C 523.075 901.061, 521.273 902, 519.134 902 C 517.156 902, 515.713 902.668, 515.062 903.885 C 513.783 906.274, 509.873 907.283, 506.647 906.056 C 504.818 905.361, 503.850 905.476, 503.008 906.490 C 499.137 911.155, 490.326 908.265, 485.691 900.811 L 482.701 896 475.601 895.926 C 471.695 895.885, 467.600 895.708, 466.500 895.532 C 465.400 895.356, 454.787 894.937, 442.915 894.602 C 397.916 893.329, 352.397 889.289, 328.410 884.439 C 325.616 883.874, 325.185 884.135, 323.910 887.157 M 410.119 956.794 C 408.043 957.486, 408.937 961.025, 411.426 961.972 C 412.760 962.479, 421.648 963.030, 431.176 963.197 L 448.500 963.500 448.500 961 C 448.500 958.504, 448.482 958.499, 436 957.807 C 429.125 957.426, 420.741 956.958, 417.369 956.767 C 413.998 956.577, 410.735 956.588, 410.119 956.794 M 606 957.386 L 589.500 958.500 589.500 961 L 589.500 963.500 604.940 963.165 C 625.470 962.720, 628.500 962.181, 628.500 958.972 C 628.500 955.912, 628.172 955.889, 606 957.386 M 494.596 960.610 C 493.019 964.720, 495.054 965.048, 520.387 964.767 L 544.500 964.500 544.500 962 L 544.500 959.500 519.864 959.233 C 497.775 958.993, 495.162 959.136, 494.596 960.610 M 372.176 986.775 C 370.333 987.389, 370.799 990.822, 372.877 991.934 C 376.338 993.786, 407.025 995.577, 408.009 993.985 C 410.194 990.450, 407.464 989.269, 395.361 988.513 C 388.926 988.110, 381.342 987.467, 378.507 987.082 C 375.672 986.697, 372.823 986.559, 372.176 986.775 M 654.500 987.150 C 649.550 987.649, 642.130 988.382, 638.012 988.779 C 631.840 989.373, 630.461 989.826, 630.168 991.356 C 629.479 994.952, 631.231 995.223, 647.034 993.965 C 666.016 992.453, 667.500 992.088, 667.500 988.928 C 667.500 986.010, 666.780 985.912, 654.500 987.150 M 451.344 993.545 C 449.585 998.129, 452.021 998.667, 475.684 998.927 C 491.528 999.101, 492.946 998.970, 493.864 997.254 C 495.764 993.704, 493.945 993.312, 472.701 992.695 C 455.031 992.181, 451.819 992.308, 451.344 993.545 M 558 993 L 544.500 993.500 544.500 996 L 544.500 998.500 556 998.764 C 562.325 998.910, 571.550 998.685, 576.500 998.264 C 585.230 997.523, 585.500 997.425, 585.500 995 C 585.500 992.131, 584.142 992.032, 558 993 M 617.264 1023.718 C 618.784 1023.947, 621.034 1023.941, 622.264 1023.704 C 623.494 1023.467, 622.250 1023.279, 619.500 1023.286 C 616.750 1023.294, 615.744 1023.488, 617.264 1023.718" stroke="none" fill="#1a1a1a" fill-rule="evenodd"/>
</svg>