<svg xmlns="http://www.w3.org/2000/svg" width="1024" height="1024" viewBox="0 0 1024 1024" version="1.1">
	<path d="M 542 83.590 C 500.839 87.148, 470.591 95.900, 441 112.814 C 425.886 121.453, 410 134.353, 410 137.986 C 410 138.374, 406.095 141.077, 401.322 143.994 C 371.713 162.087, 352.570 196.772, 356.975 224.346 C 359.396 239.497, 364.065 248.246, 376.166 260.302 L 385 269.104 385 284.328 C 385 303.724, 383.803 313.369, 379.417 329.309 C 377.478 336.354, 375.639 344.257, 375.329 346.870 C 374.858 350.848, 374.213 352, 371.367 353.951 C 361.742 360.546, 349.303 376.318, 341.666 391.611 C 330.194 414.583, 290.568 513.252, 280.032 545.079 L 276.861 554.658 271.680 555.953 C 238.733 564.193, 195.675 589.049, 170.738 614.225 C 139.772 645.486, 126.946 675.616, 125.283 721 L 124.678 737.500 120.589 739.566 C 113.473 743.162, 110.663 750.264, 110.787 764.346 C 111.074 797.061, 119.448 807.098, 155.480 817.913 L 164.460 820.608 166.530 828.060 C 171.882 847.327, 183.648 862.326, 200.271 871.076 L 207.065 874.651 190.783 875.837 C 181.827 876.490, 169.775 877.307, 164 877.653 C 151.867 878.380, 148.710 879.254, 149.189 881.753 C 149.629 884.048, 165.607 884.594, 185 882.977 C 192.425 882.358, 212.450 881.470, 229.500 881.004 C 251.764 880.396, 262.245 879.719, 266.693 878.603 C 271.195 877.474, 278.009 877.050, 291.661 877.050 C 318.275 877.050, 325.419 876.019, 322.063 872.663 C 320.747 871.347, 320.165 871.304, 301.250 871.107 L 287.500 870.964 293 867.939 C 300.740 863.682, 307.442 856.703, 311.660 848.509 L 315.274 841.489 356.992 841.494 L 398.710 841.500 400.863 851.043 C 404.895 868.923, 416.092 886.417, 429.500 895.784 L 432.500 897.879 403.520 897.955 C 373.191 898.034, 370.780 898.380, 372.332 902.422 C 373.058 904.316, 369.404 904.148, 414 904.341 C 439.277 904.451, 453.056 904.917, 458.814 905.857 C 470.419 907.750, 501.775 906.975, 512 904.542 C 530.318 900.183, 544.964 890.191, 556.431 874.230 L 559.992 869.273 569.246 868.720 C 594.920 867.186, 613.582 855.105, 624.521 832.937 L 628.254 825.373 651.377 823.667 C 681.829 821.419, 678.607 821.003, 679.344 827.272 C 681.728 847.555, 695.566 869.751, 712.848 881.012 C 715.021 882.428, 714.610 882.537, 706.334 882.746 C 686.012 883.260, 669.158 884.285, 667.873 885.086 C 666.819 885.744, 666.761 886.357, 667.621 887.722 C 668.660 889.371, 670.832 889.478, 697.621 889.191 C 713.504 889.021, 735.330 889.396, 746.122 890.023 C 770.167 891.422, 780.887 890.430, 795.636 885.441 L 805.772 882.013 838.636 880.886 C 872.767 879.714, 875.115 879.348, 873.609 875.424 C 872.993 873.819, 870.837 873.734, 844.124 874.260 L 815.303 874.827 820.741 869.684 C 834.398 856.768, 843.748 836.722, 847.064 813.250 L 848.230 805 851.865 804.993 C 856.963 804.983, 870.681 801.558, 877.239 798.658 C 891.354 792.415, 897.402 781.215, 898.653 759 C 899.395 745.817, 898.199 740.963, 892.904 735.669 L 889 731.765 889 720.106 C 889 699.045, 885.642 680.019, 877.935 657.408 C 861.982 610.607, 836.225 581.434, 798.128 567.016 L 788.756 563.470 783.999 549.701 C 773.251 518.595, 751.111 482.475, 735.490 470.561 L 731.824 467.764 735.615 463.882 C 738.827 460.593, 740.046 460, 743.598 460 C 754.314 460, 766.822 453.256, 774.193 443.503 C 786.142 427.693, 787.394 399.397, 777.116 377.434 L 774.244 371.296 785.922 371.777 C 795.083 372.154, 798.871 371.889, 803.491 370.546 C 814.372 367.383, 823 359.272, 823 352.209 C 823 350.269, 823.413 349.137, 823.990 349.494 C 824.534 349.830, 827.555 349.629, 830.703 349.047 C 849.530 345.567, 867.431 327.910, 868.794 311.475 C 869.299 305.385, 867.262 303.809, 861.646 305.945 C 853.784 308.934, 843.736 306.014, 837.728 298.995 C 830.326 290.348, 829.890 286.425, 831.048 239 C 831.517 219.843, 830.542 214.707, 823.851 201.058 C 816.403 185.864, 801.138 173.412, 785.733 169.965 L 780.433 168.779 780.830 156.036 C 781.308 140.689, 779.772 133.967, 774.437 128.061 C 761.625 113.880, 739.990 122.139, 728.332 145.662 L 724.783 152.824 715.327 142.973 C 683.686 110.008, 642.520 90.887, 590.500 84.994 C 580.665 83.880, 549.189 82.968, 542 83.590 M 544.291 92.171 C 512.481 93.489, 480.735 101.620, 452.664 115.639 C 437.686 123.120, 419.762 136.691, 416.481 143.037 C 415.630 144.683, 412.345 147.275, 408.280 149.508 C 387.976 160.663, 373.531 178.273, 366.971 199.868 C 364.051 209.484, 364.489 226.481, 367.873 234.830 C 370.497 241.303, 376.536 250.291, 381.367 254.915 C 385.435 258.808, 385.520 258.713, 386.482 249.152 C 388.974 224.410, 405.238 195.237, 431.867 167.750 C 440.218 159.129, 441.260 159.651, 442.510 173.080 C 443.230 180.816, 447.655 191.669, 453.739 200.620 C 471.062 226.110, 508.248 236.881, 529.080 222.444 L 532.998 219.730 526.113 212.482 C 511.648 197.254, 499.387 168.073, 505.368 163.110 C 508.225 160.738, 509.744 162.676, 512.868 172.681 C 525.788 214.053, 568.606 243.844, 621.963 248.583 L 629.425 249.246 624.081 243.398 C 615.796 234.333, 609.241 224.524, 603.323 212.332 C 597.040 199.391, 596 195.142, 598.503 192.640 C 601.048 190.095, 602.215 191.569, 609.397 206.391 C 622.391 233.210, 638.186 248.953, 658.326 255.160 C 665.304 257.310, 667.454 259.284, 665.926 262.138 C 665.246 263.409, 663.820 264, 661.433 264 C 657.805 264, 642.474 258.577, 641.459 256.934 C 641.142 256.421, 640.009 256, 638.941 256 C 637.242 256, 637 256.726, 637 261.816 C 637 279.465, 644.940 300.572, 655.999 312.321 L 661.500 318.166 667.500 314.542 C 691.481 300.060, 715.808 311.645, 720.163 339.621 C 725.491 373.842, 684.419 408.326, 654.595 394.672 L 649.073 392.144 644.646 398.322 C 634.377 412.652, 617.173 426.003, 596.740 435.500 C 583.062 441.857, 582.950 442.912, 595.500 447.117 C 614.014 453.319, 629.995 463.952, 636.659 474.500 C 640.007 479.799, 642.126 480.150, 652.073 477.054 C 668.276 472.012, 676.191 461.217, 678.532 440.973 C 678.890 437.874, 679.703 436.042, 681.106 435.166 C 689.201 430.111, 686.914 455.545, 678.125 468.319 C 674.323 473.844, 674.609 474.029, 688.056 474.742 C 718.937 476.379, 740.277 457.184, 740.440 427.624 C 740.495 417.597, 740.670 416.636, 742.678 415.300 C 744.693 413.960, 744.994 414.061, 746.678 416.639 C 749.375 420.766, 749.159 438.273, 746.312 446.338 L 744.251 452.175 747.666 451.535 C 773.657 446.659, 783.812 413.007, 769.090 380.538 C 767.400 376.812, 762.632 368.494, 758.494 362.055 C 744.689 340.572, 743.921 335.118, 748.422 290.500 C 755.384 221.480, 743.295 181.579, 703.867 143.439 C 665.171 106.007, 613.218 89.316, 544.291 92.171 M 752.323 131.069 C 746.493 133.955, 739.346 141.954, 736.036 149.297 C 731.378 159.631, 731.348 160.955, 735.611 168.367 C 739.273 174.735, 739.405 174.843, 741.926 173.555 C 749.414 169.732, 758.867 172.167, 763.712 179.168 L 765.923 182.364 768.441 176.932 C 772.088 169.066, 773.265 161.992, 772.828 150.576 C 772.133 132.411, 764.425 125.079, 752.323 131.069 M 428.617 183.161 C 420.376 192.379, 410.660 206.254, 405.621 216 C 395.873 234.856, 393.019 249.213, 392.998 279.500 C 392.980 304.386, 392.067 312.464, 387.013 332.448 C 383.856 344.933, 383 350.168, 383 356.998 C 383 410.031, 442.017 445.271, 526.500 442.686 C 568.851 441.390, 604.812 428.007, 628.362 404.778 C 634.861 398.367, 646 383.270, 646 380.872 C 646 378.642, 650.609 380.386, 654.029 383.911 C 663.645 393.819, 683.132 390.722, 697.403 377.018 C 711.900 363.097, 715.779 345.266, 707.802 329.208 C 699.849 313.199, 681.394 311.761, 666.034 325.956 C 660.819 330.775, 657.677 331.041, 657.179 326.705 C 656.975 324.921, 655.209 322.391, 652.298 319.707 C 639.636 308.036, 630.508 286.715, 629.256 265.892 L 628.739 257.284 619.119 256.626 C 601.436 255.417, 583.081 250.093, 564.500 240.783 C 554.169 235.606, 541.730 227.990, 540.587 226.140 C 540.183 225.487, 537.594 226.599, 533.790 229.058 C 514.671 241.415, 487.708 239.402, 464.863 223.914 C 451.671 214.970, 443.134 203.250, 437.452 186.283 L 434.284 176.822 428.617 183.161 M 776.112 180.055 C 775.349 181.809, 773.406 184.746, 771.795 186.580 C 769.316 189.405, 768.827 190.880, 768.607 196.208 C 768.276 204.229, 764.976 211.886, 759.855 216.512 L 755.949 220.041 757.081 228.771 C 758.962 243.277, 758.494 273.015, 756.005 297 C 752.763 328.253, 753.880 338.535, 761.891 351.168 C 767.638 360.230, 774.983 363.888, 787.568 363.956 C 797.743 364.011, 805.006 361.893, 809.947 357.429 C 816.024 351.939, 815.890 350.329, 809.109 347.388 C 801.571 344.119, 797.770 338.096, 801.362 335.115 C 802.401 334.253, 804.003 334.566, 808.112 336.434 C 815.973 340.008, 825.893 341.516, 831.788 340.034 C 841.940 337.481, 853.079 328.650, 857.781 319.427 L 859.783 315.500 853.631 315.484 C 842.218 315.456, 832.134 308.391, 826.587 296.537 C 821.797 286.303, 821.034 275.961, 823.126 249.608 C 825.249 222.875, 820.735 206.518, 807.203 191.902 C 800.168 184.303, 790.168 178.579, 782 177.474 C 777.672 176.889, 777.447 176.988, 776.112 180.055 M 746.241 180.107 C 743.431 181.146, 743.443 181.492, 746.545 188.505 C 747.944 191.670, 750.145 197.914, 751.434 202.380 C 752.723 206.846, 754.129 210.500, 754.558 210.500 C 754.988 210.500, 756.388 208.517, 757.669 206.093 C 764.170 193.800, 756.482 176.318, 746.241 180.107 M 426.323 243.069 C 422.281 245.070, 413 253.963, 413 255.835 C 413 259.115, 416.007 258.981, 420.570 255.499 C 427.915 249.892, 432.796 247.716, 436.392 248.444 C 438.101 248.790, 440.738 249.333, 442.250 249.650 C 444.304 250.081, 445 249.839, 445 248.695 C 445 241.715, 435.090 238.730, 426.323 243.069 M 558.518 252.625 C 555.112 256.030, 556.947 258.439, 563.500 259.166 C 574.205 260.354, 580.498 263.406, 585.105 269.643 C 588.407 274.112, 589.413 274.902, 590.576 273.937 C 595.736 269.655, 586.749 257.716, 574.669 252.806 C 569.163 250.568, 560.670 250.473, 558.518 252.625 M 429.986 298.449 C 421.707 302.954, 419.167 322.685, 425.933 329.928 C 431.939 336.357, 442.149 332.331, 444.891 322.453 C 449.438 306.076, 440.985 292.462, 429.986 298.449 M 555.607 307.095 C 546.690 314.108, 545.813 333.113, 554.122 339.260 C 563.146 345.935, 572.416 337.442, 572.416 322.500 C 572.416 307.971, 564.138 300.384, 555.607 307.095 M 469.615 331.088 C 462.264 336.870, 462.119 347.907, 469.291 355.750 C 471.554 358.225, 475.771 358.760, 476.572 356.673 C 476.852 355.944, 475.943 353.356, 474.553 350.923 C 471.672 345.883, 471.265 340.469, 473.576 337.915 C 475.035 336.303, 475.490 336.288, 479.666 337.711 C 487.626 340.423, 489.587 334.423, 482.020 330.510 C 477.899 328.379, 472.754 328.619, 469.615 331.088 M 687.764 330.985 C 675.026 334.869, 658.077 357.985, 666.101 360.532 C 668.636 361.337, 669.583 360.470, 672.925 354.282 C 674.341 351.660, 675.950 349.511, 676.500 349.507 C 678.194 349.495, 682 358.214, 682 362.105 C 682 366.656, 684.432 368.012, 687.354 365.091 C 689.815 362.629, 688.544 355.286, 684.396 348.001 L 681.833 343.502 685.167 340.699 C 688.077 338.252, 689.197 337.935, 694 338.198 C 698.904 338.467, 699.532 338.277, 699.794 336.445 C 700.377 332.370, 693.483 329.242, 687.764 330.985 M 369.296 365.774 C 362.516 371.932, 354.866 382.317, 350.078 391.864 C 335.980 419.972, 284.327 549.661, 286.404 551.737 C 286.617 551.951, 289.427 551.673, 292.646 551.119 C 295.866 550.566, 302.425 549.811, 307.222 549.441 L 315.944 548.768 319.063 540.634 C 334.799 499.598, 362.052 432.848, 367.612 421.722 C 371.821 413.302, 373.640 411, 376.088 411 C 379.354 411, 379.161 414.537, 375.454 422.630 C 364.170 447.262, 324.189 546.619, 325.207 547.501 C 325.368 547.641, 330.241 547.957, 336.036 548.204 L 346.572 548.653 344.675 543.076 C 343.026 538.228, 342.937 536.873, 343.995 532.698 C 344.666 530.049, 344.927 525.997, 344.576 523.661 C 344.060 520.219, 344.416 518.589, 346.475 514.963 C 347.869 512.508, 349.970 508.475, 351.144 506 C 356.561 494.585, 361.576 490.372, 368.728 491.227 C 372.044 491.624, 373.095 491.161, 377.424 487.391 C 395.241 471.875, 424.328 469.178, 452.106 480.465 L 458.136 482.915 461.178 479.450 C 468.493 471.119, 486.231 458.414, 496.754 453.968 C 505.026 450.473, 505.063 450.331, 497.766 450.113 C 494.320 450.010, 486.775 449.262, 481 448.452 C 421.622 440.120, 380.676 408.482, 375.240 366.735 L 374.500 361.048 369.296 365.774 M 516.403 379.758 C 509.706 387.535, 503.237 390.502, 493 390.491 C 482.904 390.481, 479.451 389.034, 473.386 382.270 C 468.688 377.031, 466 376.930, 466 381.991 C 466 384.167, 467.157 386.300, 470.023 389.409 C 481.945 402.343, 505.936 401.403, 519.476 387.472 C 524.434 382.370, 525.904 378.794, 523.989 376.487 C 522.037 374.135, 520.778 374.678, 516.403 379.758 M 571 445.161 C 561.227 447.970, 547.968 449.925, 533.750 450.654 C 519.660 451.377, 520.469 450.880, 520.995 458.495 C 521.959 472.439, 540.897 476.141, 561 466.317 C 570.160 461.840, 579.038 453.368, 578.930 449.205 C 578.779 443.386, 578.200 443.091, 571 445.161 M 586 453.378 C 586 456.057, 572.888 468.965, 566.650 472.428 C 554.883 478.959, 537.475 481.497, 527.664 478.112 C 520.648 475.691, 514.519 468.646, 512.649 460.855 C 512.045 458.338, 511.828 458.256, 508.213 459.174 L 504.412 460.139 497.731 476.819 C 494.055 485.994, 490.784 494.236, 490.461 495.135 C 489.995 496.435, 490.965 497.027, 495.187 498.022 C 502.994 499.862, 509.720 503.579, 514.943 508.942 C 519.445 513.564, 520 513.811, 536.207 518.432 C 545.360 521.041, 553.612 523.024, 554.544 522.838 C 555.476 522.652, 558.797 518.431, 561.925 513.458 C 570.925 499.148, 582.507 484.477, 594.787 471.832 C 607.659 458.576, 607.672 460.232, 594.654 455.061 C 585.754 451.526, 586 451.574, 586 453.378 M 485.928 469.108 C 477.904 474.626, 466 484.685, 466 485.947 C 466 487.418, 480.147 497.253, 480.998 496.374 C 481.464 495.893, 484.156 489.690, 486.981 482.588 C 489.805 475.486, 492.777 468.399, 493.584 466.838 C 495.622 462.897, 494.458 463.242, 485.928 469.108 M 606.363 471.250 C 597.174 479.809, 582.354 497.286, 574.536 508.784 L 568.049 518.324 572.906 519.968 C 590.536 525.936, 604.998 541.664, 609.566 559.834 C 611.073 565.827, 611.060 566.279, 609.329 568.250 L 607.500 570.333 611 568.417 C 612.925 567.363, 617.877 563.125, 622.005 559 C 641.656 539.363, 646.423 509.746, 633.805 485.686 C 630.333 479.066, 617.308 465, 614.649 465 C 613.783 465, 610.054 467.813, 606.363 471.250 M 721.061 475.527 C 719.169 476.863, 714.781 478.974, 711.311 480.219 C 707.840 481.464, 705.012 482.711, 705.026 482.991 C 705.040 483.271, 707.373 485.075, 710.209 487 C 728.088 499.132, 747.436 541.843, 749.681 574.135 C 750.492 585.799, 751.310 585.368, 723.500 587.924 C 681.180 591.814, 640.147 593.692, 576.734 594.640 C 535.577 595.255, 531.018 595.484, 531.463 596.912 C 534.355 606.181, 538.265 633.015, 539.928 655 C 541.654 677.806, 541.938 683.139, 541.978 693.500 L 542.017 703.500 548.243 707.500 C 571.217 722.260, 585.463 745.664, 592.069 779.500 C 595.246 795.770, 593.187 794.406, 613.361 793.599 C 622.788 793.222, 633.200 792.706, 636.500 792.453 C 639.800 792.200, 649.038 791.549, 657.029 791.008 C 685.067 789.108, 691.828 784.394, 698.850 761.849 C 711.594 720.928, 728.507 699.846, 756.769 689.652 C 795.007 675.858, 838.307 696.656, 852.754 735.754 L 855.500 743.185 861.180 742.615 C 867.590 741.972, 876.284 738.958, 879.112 736.398 C 880.765 734.902, 880.999 733.187, 880.992 722.595 C 880.943 650.640, 842.725 587.241, 790.500 572.484 C 782.587 570.248, 782.816 570.554, 777.424 555 C 765.795 521.455, 751.708 497.426, 733.572 480.198 C 724.984 472.041, 725.647 472.288, 721.061 475.527 M 662 481.602 C 659.525 482.876, 655.250 484.449, 652.500 485.096 C 644.232 487.042, 644.185 487.328, 652 488.105 C 665.503 489.447, 681.269 495.148, 688.647 501.356 C 699.086 510.140, 702.296 531.663, 698.501 567.428 C 697.688 575.088, 697.241 581.574, 697.508 581.841 C 697.775 582.108, 707.782 581.464, 719.747 580.410 L 741.500 578.495 741.308 572.997 C 741.045 565.478, 735.146 542.742, 730.152 530 C 722.852 511.377, 713.712 498.789, 702.682 492.168 C 698.051 489.387, 668.766 478.686, 667.037 479.142 C 666.742 479.220, 664.475 480.327, 662 481.602 M 405.293 482.439 C 397.874 484.134, 387.766 488.824, 383.185 492.697 L 379.870 495.500 383.435 502.323 C 385.396 506.075, 387 509.748, 387 510.484 C 387 511.291, 389.593 510.083, 393.537 507.439 C 411.016 495.718, 431.671 497.473, 454.604 512.628 C 457.410 514.482, 459.923 516, 460.187 516 C 460.451 516, 462.389 513.500, 464.494 510.445 C 466.598 507.389, 469.189 504.281, 470.251 503.537 C 472.050 502.276, 471.653 501.827, 464.429 496.952 C 444.913 483.783, 422.976 478.399, 405.293 482.439 M 647.409 498.716 C 649.978 512.972, 649.005 525.391, 644.337 537.950 C 643.018 541.497, 642.219 545.097, 642.561 545.950 C 642.903 546.802, 644.479 555.775, 646.063 565.888 C 647.647 576.002, 649.125 584.459, 649.348 584.681 C 649.733 585.066, 688.233 583.125, 688.609 582.701 C 689.661 581.517, 692.099 553.434, 692.132 542.112 C 692.227 509.922, 684.037 500.636, 651.114 495.603 L 646.727 494.933 647.409 498.716 M 363.923 500.923 C 360.448 504.398, 360.381 505.271, 363.049 512.402 C 365.338 518.520, 370.707 524, 374.412 524 C 381.690 524, 380.875 510.158, 373.117 502.002 C 368.570 497.222, 367.723 497.123, 363.923 500.923 M 479.068 507.208 C 470.476 511.825, 464.152 524.413, 467.397 530.438 L 469.159 533.711 474.330 528.550 C 478.045 524.842, 480.852 523.012, 484.305 522.049 C 492.385 519.796, 493.651 524.097, 486.050 527.975 C 479.085 531.528, 474.176 541.724, 476.942 546.891 C 478.075 549.009, 478.200 548.958, 482.544 544.614 C 487.856 539.302, 495.166 536.063, 497.489 537.991 C 500.081 540.142, 499.287 542.750, 495.678 543.941 C 489.511 545.977, 482.243 555.849, 483.430 560.579 C 484.809 566.072, 489.063 565.554, 500.500 558.500 C 502.700 557.143, 505.288 556.025, 506.250 556.016 C 508.698 555.993, 511.997 559.560, 512.015 562.250 C 512.045 566.641, 513.445 567.508, 517.078 565.387 C 529.731 557.996, 526.417 532.032, 510.780 516.065 C 500.885 505.959, 488.058 502.377, 479.068 507.208 M 408.734 508.417 C 406.112 509.122, 403.713 509.953, 403.403 510.264 C 402.524 511.143, 404.843 514.875, 409.219 519.622 C 412.661 523.356, 413.494 523.806, 415.238 522.872 C 416.393 522.254, 420.320 521.971, 424.381 522.212 C 431.494 522.634, 431.504 522.631, 436.701 518.432 L 441.902 514.229 436.201 511.673 C 425.719 506.975, 417.652 506.018, 408.734 508.417 M 390.500 517.680 C 384.074 521.736, 377.515 537.030, 377.942 546.962 C 378.127 551.253, 377.371 550.777, 385.283 551.588 C 390.344 552.107, 392 551.969, 392 551.031 C 392 548.333, 398.152 537.109, 402.070 532.657 L 406.211 527.953 402.219 523.622 C 400.024 521.240, 397.921 518.326, 397.546 517.146 C 396.688 514.440, 395.488 514.531, 390.500 517.680 M 355.227 517.226 C 349.288 524.383, 358.417 539, 368.827 539 C 373.821 539, 374.930 531.797, 370.250 529.760 C 364.194 527.125, 359.630 523.392, 357.993 519.736 C 356.687 516.818, 356.048 516.238, 355.227 517.226 M 444.309 522.189 C 442.214 523.967, 440.339 525.524, 440.143 525.651 C 439.946 525.777, 442.026 528.121, 444.765 530.860 C 452.586 538.682, 457.058 550.778, 455.511 559.933 L 454.882 563.655 460.691 564.945 C 463.886 565.654, 469.087 567.034, 472.250 568.012 C 475.413 568.990, 478 569.590, 478 569.345 C 478 569.101, 477.280 567.508, 476.400 565.807 C 475.520 564.105, 474.800 561.243, 474.800 559.448 C 474.800 557.156, 473.942 555.361, 471.923 553.426 C 470.341 551.910, 468.518 549.071, 467.873 547.116 C 467.228 545.161, 464.977 541.382, 462.872 538.718 C 460.766 536.054, 458.505 531.990, 457.849 529.687 C 456.450 524.782, 455.216 523.137, 451.126 520.728 C 448.124 518.960, 448.112 518.963, 444.309 522.189 M 529.410 528.622 C 534.747 542.457, 533.951 558.132, 527.480 566.615 C 524.294 570.792, 523.958 570.148, 531.750 574.804 C 553.560 587.836, 579.660 585.482, 598.307 568.800 L 603.114 564.500 601.052 558.581 C 596.694 546.065, 586.910 535.279, 574.528 529.343 C 566.183 525.342, 564.417 525.201, 563.597 528.471 C 562.256 533.811, 558.017 533.410, 529.707 525.260 C 528.024 524.776, 528.006 524.982, 529.410 528.622 M 414.407 531.893 C 409.111 535.123, 400 547.993, 400 552.244 C 400 553.174, 403.644 554.094, 412.250 555.338 C 418.988 556.312, 429.601 558.145, 435.836 559.412 C 448.784 562.042, 448.669 562.097, 447.573 553.840 C 446.215 543.605, 441.643 537.214, 432.355 532.572 C 426.046 529.418, 418.909 529.148, 414.407 531.893 M 351 538.801 C 351 544.099, 359.458 550, 367.051 550 C 372.404 550, 371.855 548.111, 365.938 546.167 C 363.497 545.365, 359.700 543.341, 357.500 541.669 C 355.300 539.997, 352.938 538.208, 352.250 537.692 C 351.352 537.019, 351 537.331, 351 538.801 M 310 557.077 C 289.206 558.602, 273.861 562.293, 251.798 571.078 C 224.564 581.922, 192.430 602.566, 175.130 620.332 L 170.761 624.820 173.361 628.228 C 182.446 640.140, 182.153 668.553, 172.747 687.842 C 169.238 695.037, 160.630 704.588, 155.057 707.471 C 150.719 709.714, 141.129 710.589, 136.931 709.126 C 135.141 708.502, 133.574 708.106, 133.451 708.245 C 133.327 708.385, 132.905 715.614, 132.513 724.310 L 131.800 740.119 135.718 743.846 C 148.071 755.598, 214.518 770.060, 278.500 774.924 C 317.762 777.909, 394.702 778.025, 412.357 775.127 C 416.186 774.498, 416.239 774.426, 419.430 765.497 C 426.060 746.949, 433.152 735.006, 444.738 722.879 C 467.055 699.520, 495.674 690.632, 525.329 697.851 C 530.185 699.033, 534.235 700, 534.329 700.001 C 534.655 700.003, 533.237 665.464, 532.564 657 C 530.578 632.026, 525.774 601.183, 523.087 596.162 C 521.963 594.063, 498.646 584.494, 480.500 578.687 C 432.323 563.267, 356.545 553.663, 310 557.077 M 626.964 564.976 C 617.592 574.515, 609.411 579.359, 600.590 580.590 C 597.890 580.967, 593.165 582.600, 590.090 584.220 L 584.500 587.165 607.500 586.553 C 639.928 585.689, 641.041 585.542, 640.454 582.183 C 639.561 577.076, 637 558.642, 637 557.324 C 637 555.073, 635.779 556.004, 626.964 564.976 M 500.199 567.715 C 498.383 569.156, 494.846 570.856, 492.338 571.493 L 487.777 572.651 495.139 575.330 C 505.401 579.066, 506 578.854, 506 571.500 C 506 564.580, 504.983 563.916, 500.199 567.715 M 514.404 575.765 C 513.801 576.169, 513.025 577.659, 512.679 579.076 C 512.103 581.432, 512.496 581.834, 517.275 583.777 C 521.241 585.390, 530.943 586.518, 530.994 585.373 C 531.013 584.955, 516.826 575.003, 516.229 575.015 C 515.828 575.024, 515.007 575.361, 514.404 575.765 M 455.584 589.646 C 427.218 595.727, 378.854 620.013, 363.616 635.828 C 356.326 643.394, 361.129 645.506, 370.615 638.906 C 404.121 615.595, 427.872 604.188, 458.692 596.606 C 467.313 594.485, 471.663 592.936, 472.408 591.722 C 474.779 587.859, 467.886 587.008, 455.584 589.646 M 745.403 590.391 C 745.110 591.157, 745.998 595.544, 747.377 600.141 C 752.070 615.782, 752.395 619.019, 752.478 650.909 C 752.548 677.936, 752.739 681.433, 754.194 682.351 C 759.037 685.406, 760.047 679.846, 760.033 650.188 C 760.019 619.749, 757.430 601.170, 751.946 592.152 C 749.941 588.854, 746.363 587.892, 745.403 590.391 M 711 610.903 C 692.553 611.776, 690 613.570, 690 625.665 C 690 633.324, 694.302 637.930, 701.650 638.136 C 717.547 638.582, 729.256 637.189, 733.613 634.334 C 738.574 631.084, 740.345 623.154, 737.585 616.548 C 735.105 610.613, 731.829 609.918, 711 610.903 M 714.400 618.931 C 699.767 619.567, 698 620.284, 698 625.587 C 698 630.554, 700.336 631.363, 712.933 630.758 C 726.657 630.099, 731 628.415, 731 623.751 C 731 620.704, 729.424 617.728, 728.050 618.181 C 727.748 618.281, 721.605 618.619, 714.400 618.931 M 159.086 639.250 C 147.416 655.167, 136.094 682.102, 135.679 694.933 L 135.500 700.463 139.655 701.918 C 154.794 707.219, 173 681.927, 173 655.596 C 173 645.439, 168.918 631, 166.047 631 C 165.545 631, 162.413 634.712, 159.086 639.250 M 361.136 650.530 C 341.064 656.095, 322.607 673.303, 315.943 692.664 C 300.960 736.192, 348.163 756.696, 384.774 722.562 C 411.754 697.409, 414.329 663.687, 390.172 651.860 C 384.214 648.942, 369.323 648.261, 361.136 650.530 M 368.496 656.986 C 338.047 661.464, 312.383 697.644, 323.750 720.066 C 334.585 741.437, 371.484 732.619, 390.406 704.137 C 404.556 682.838, 400.715 661.335, 382 657.074 C 376.994 655.934, 375.705 655.925, 368.496 656.986 M 202 679.829 C 184.071 686.498, 173.961 705.325, 179.445 721.833 C 188.719 749.757, 252.206 760.219, 276.576 737.840 C 292.512 723.205, 289.818 698.231, 271.269 688.639 C 255.634 680.554, 214.214 675.286, 202 679.829 M 208.344 685.988 C 187.562 690.368, 178.547 715.324, 193.023 728.401 C 203.094 737.500, 216.677 741.446, 238 741.467 C 259.598 741.488, 269.811 737.513, 276 726.677 C 284.859 711.165, 278.036 698.256, 257.500 691.674 C 245.226 687.740, 216.045 684.364, 208.344 685.988 M 766.808 694.488 C 737.476 701.903, 718.765 723.143, 706.455 763 C 700.268 783.033, 691.737 792.533, 676.500 796.358 C 668.989 798.244, 605.485 802.395, 598.093 801.484 C 588.838 800.342, 588.495 799.844, 585.053 782.534 C 574.915 731.548, 546.581 703.608, 505 703.595 C 469.734 703.585, 440.554 728.013, 425.981 769.745 C 421.990 781.174, 421.045 782.035, 411.277 783.139 C 397.139 784.738, 318.195 785.379, 295 784.084 C 218.210 779.797, 145.161 764.094, 129.595 748.528 L 126.106 745.040 123.072 747.593 C 118.854 751.142, 117.649 756.430, 118.309 768.500 C 119.610 792.326, 125.907 800.294, 149.481 807.946 C 202.122 825.033, 269.543 833.382, 355.500 833.459 C 423.539 833.520, 420.660 834.760, 431.057 800.924 C 438.775 775.806, 444.824 764.392, 459.143 747.929 C 476.002 728.546, 499.524 719.427, 519.540 724.515 C 552.827 732.977, 576.515 770.412, 574.830 811.894 L 574.500 820.005 582 820.002 C 597.838 819.996, 665.957 815.368, 686 812.936 C 697.547 811.536, 701.319 810.274, 706.034 806.239 C 711.279 801.749, 712.017 800.173, 716.920 783 C 728.049 744.014, 749.367 718.812, 776.624 712.416 C 805.346 705.678, 836.274 730.540, 845.146 767.500 C 848.185 780.160, 848.103 780.032, 849.671 774.500 C 856.102 751.813, 839.921 716.987, 816.298 702.672 C 802.275 694.174, 781.585 690.753, 766.808 694.488 M 771.772 721.345 C 751.712 728.181, 735.164 748.931, 726.189 778.500 C 719.344 801.053, 718.224 806.866, 719.060 815.500 C 724.217 868.748, 766.629 896.722, 804.799 872.051 C 836.107 851.816, 849.201 801.489, 833.997 759.830 C 822.576 728.536, 797.030 712.736, 771.772 721.345 M 502 732.130 C 482.762 734.491, 459.409 754.579, 447.161 779.303 C 438.753 796.273, 436.541 804.995, 436.583 821 C 436.697 863.566, 461.146 895.341, 495.608 897.707 C 528.746 899.983, 556.589 874.109, 565.240 833 C 576.664 778.713, 544.211 726.950, 502 732.130 M 884.439 742.099 C 883.078 744.301, 871.520 748.932, 864.598 750.049 L 857.500 751.195 857.480 764.348 C 857.459 778.312, 855.905 784.061, 850.935 788.559 C 849.598 789.769, 849 791.628, 849 794.576 L 849 798.842 860.202 795.903 C 883.608 789.763, 889.203 782.795, 890.697 757.926 C 891.354 746.979, 890.042 741, 886.981 741 C 885.957 741, 884.812 741.495, 884.439 742.099 M 778.358 759.091 C 769.085 761.778, 759.728 771.869, 755.261 784 C 751.489 794.245, 751.299 812.210, 754.867 821.238 C 760.468 835.411, 768.323 842.170, 779.956 842.828 C 795.549 843.709, 808.487 831.009, 813.451 809.947 C 820.491 780.078, 801.402 752.414, 778.358 759.091 M 775.500 768.890 C 765.520 774.622, 759.866 786.782, 759.909 802.428 C 760.023 844.252, 798.272 847.748, 806.067 806.647 C 811.232 779.411, 794.078 758.222, 775.500 768.890 M 495.500 773.394 C 478.420 781.506, 467.427 807.581, 471.946 829.263 C 478.048 858.539, 505.540 869.680, 524.569 850.589 C 546.849 828.235, 543.137 784.422, 518 773.075 C 511.540 770.159, 502.028 770.294, 495.500 773.394 M 498.500 780.353 C 480.637 788.689, 472.799 817.791, 482.983 837.966 C 493.301 858.407, 517.742 856.720, 527.369 834.904 C 540.975 804.070, 522.497 769.154, 498.500 780.353 M 705.255 816.050 C 702.371 817.572, 696.858 819.349, 693.005 819.999 C 689.152 820.649, 686.003 821.478, 686.007 821.840 C 686.032 824.223, 690.383 840.037, 692.191 844.316 C 702.183 867.974, 718.953 879.753, 746.500 882.465 L 752.500 883.055 746.133 879.278 C 733.819 871.971, 722.606 857.153, 717.074 840.874 C 714.211 832.451, 710.755 815.206, 711.642 813.771 C 712.401 812.541, 710.864 813.090, 705.255 816.050 M 173.177 824.113 C 173.451 824.876, 174.716 828.498, 175.991 832.161 C 182.402 850.598, 198.940 864.997, 220 870.482 C 227.479 872.429, 249.493 873.628, 256.647 872.478 L 261.500 871.697 257.618 870.837 C 242.614 867.511, 227.292 854.599, 218.502 837.872 C 216.032 833.171, 214.205 830.873, 212.699 830.569 C 169.907 821.934, 172.552 822.366, 173.177 824.113 M 611.917 826.410 C 611.688 826.635, 603.073 826.962, 592.774 827.136 L 574.048 827.452 572.946 832.976 C 571.438 840.532, 568.286 851.167, 565.917 856.694 C 564.835 859.218, 564.166 861.499, 564.430 861.763 C 565.279 862.612, 580.827 859.952, 586.576 857.974 C 593.716 855.517, 604.941 848.055, 609.490 842.741 C 613.160 838.453, 619 828.796, 619 827.015 C 619 826.058, 612.812 825.529, 611.917 826.410 M 427.036 831.456 C 424.671 834.307, 417.680 837.875, 412.129 839.066 L 406.804 840.208 407.499 844.854 C 408.819 853.676, 413.021 864.775, 417.826 872.131 C 428.987 889.216, 442.519 896.499, 468.500 899.404 L 473.500 899.963 467.714 896.816 C 449.493 886.905, 436.134 866.513, 430.590 840.148 C 428.683 831.077, 428.243 830.002, 427.036 831.456 M 225.009 832.912 C 225.093 838.181, 240.652 855.252, 249.131 859.378 C 270.641 869.846, 291.176 865.745, 302.889 848.642 C 308.292 840.753, 308.106 840, 300.752 840 C 293.251 840, 247.602 835.672, 234.250 833.694 C 229.162 832.941, 225.004 832.589, 225.009 832.912" stroke="none" fill="#1a1a1a" fill-rule="evenodd"/>
</svg>