<svg xmlns="http://www.w3.org/2000/svg" width="1024" height="1024" viewBox="0 0 1024 1024" version="1.1">
	<path d="M 353.919 36.010 C 325.250 40.863, 296.180 59.114, 282.374 80.930 C 280.243 84.297, 276.814 89.683, 274.754 92.900 C 261.969 112.860, 246.565 122.191, 226.473 122.146 C 216.957 122.124, 210.629 120.217, 203.191 115.131 C 190.203 106.248, 189.500 106.583, 189.500 121.673 C 189.500 132.313, 189.603 132.818, 193.282 140.260 C 201.653 157.190, 215.684 166.831, 234.972 168.905 L 240.500 169.500 234.569 173.763 C 212.180 189.856, 192.926 188.408, 171.732 169.038 L 166.236 164.015 164.868 167.258 C 162.616 172.595, 163.209 190.117, 165.909 198 C 177.482 231.791, 210.832 251.130, 255 249.662 C 263.525 249.378, 272.045 248.671, 273.934 248.090 C 279.435 246.398, 278.458 247.349, 270.699 251.237 C 255.564 258.822, 231.482 262.100, 212.546 259.152 C 208.724 258.557, 205.519 258.167, 205.423 258.285 C 203.278 260.933, 204.151 263.461, 208.659 267.658 C 219.254 277.523, 232.380 284.766, 248.500 289.644 C 261.778 293.661, 284.069 293.743, 298 289.826 C 327.551 281.516, 348.594 266.958, 363.516 244.500 C 372.978 230.259, 376.803 221.852, 385.409 196.386 C 390.059 182.624, 395.030 168.728, 396.454 165.507 L 399.044 159.651 402.272 162.756 C 404.047 164.464, 406.738 166.167, 408.250 166.539 C 411.609 167.367, 411.731 166.242, 407.148 176.705 C 400.138 192.710, 397.568 202.640, 396.461 218 C 391.425 287.842, 376.082 314.249, 331.163 330.384 C 294.866 343.422, 270.868 365.647, 263.972 392.609 C 262.018 400.248, 261.095 424.477, 262.607 428.418 C 263.854 431.668, 267.830 430.255, 270.117 425.750 C 275.550 415.044, 286.209 402.825, 296.500 395.503 C 301.646 391.841, 315.930 384, 317.454 384 C 317.732 384, 315.094 387.549, 311.592 391.886 C 298.240 408.424, 293.002 421.338, 292.262 439.543 C 291.667 454.183, 292.820 460.411, 298.068 470.896 C 304.475 483.697, 319.418 495.045, 328.643 494.115 C 332.323 493.744, 330.200 490.817, 322.415 485.529 C 312.325 478.675, 307.870 473.779, 303.464 464.699 C 293.572 444.314, 298.341 418.710, 316.218 396.230 C 323.561 386.996, 332.056 380.873, 354 368.997 C 360.325 365.574, 366.850 361.829, 368.500 360.675 C 376.384 355.161, 388.097 342.364, 392.002 335 C 393.668 331.858, 393.147 332.245, 380.501 343.540 C 365.639 356.814, 357.675 361.440, 338.100 368.166 C 305.612 379.330, 282.718 394.020, 271.971 410.597 L 268.793 415.500 269.278 406.500 C 270.850 377.330, 294.272 351.785, 332.082 338.006 C 368.417 324.763, 385.324 307.492, 396.696 272 C 396.960 271.175, 398.247 274.172, 399.555 278.659 C 404.521 295.697, 414.382 313.248, 432.085 336.553 C 438.730 345.301, 442 350.461, 442 352.198 C 442 360.954, 451.620 379.033, 460.297 386.582 C 472.612 397.295, 492.147 400.747, 510.759 395.497 L 517.017 393.732 525.759 402.126 C 534.388 410.413, 541.649 415.322, 555.676 422.353 C 568.755 428.910, 565.717 430.007, 541.041 427.637 C 511.458 424.797, 486.874 426.501, 447.500 434.123 C 432.915 436.947, 430.677 438.107, 431.199 442.578 C 431.572 445.775, 431.409 446, 428.716 446 C 413.864 446, 378.921 461.887, 355.629 479.230 C 351.299 482.453, 347.474 484.807, 347.129 484.460 C 346.783 484.113, 346.500 478.805, 346.500 472.665 C 346.500 457.052, 350.449 448.581, 364.460 434.143 C 374.649 423.642, 375.436 422.503, 371.458 424.016 C 357.716 429.241, 343.368 446.596, 339.974 462.101 C 338.751 467.691, 339.081 484.224, 340.505 488.694 C 341.076 490.485, 339.938 492.232, 334.316 498.194 C 330.527 502.212, 324.594 509.234, 321.131 513.799 C 312.065 525.750, 308.568 528.883, 300.067 532.671 C 276.044 543.378, 266.198 552.433, 261.027 568.574 C 256.702 582.076, 257.342 588.947, 263.782 598.164 C 265.599 600.764, 267.077 604.419, 267.473 607.293 C 268.044 611.427, 268.703 612.496, 272.265 615.077 C 274.537 616.723, 277.330 619.741, 278.472 621.784 C 280.158 624.800, 281.205 625.560, 284.025 625.820 C 286.132 626.014, 288.681 627.246, 290.500 628.950 C 299.861 637.719, 311.022 635.025, 316.971 622.561 C 321.070 613.972, 329 604.383, 329 608.016 C 329 614.001, 336.804 620.618, 342.728 619.657 C 354.386 617.765, 361.066 598.487, 359.425 571.472 C 358.606 557.980, 358.665 557.886, 375.316 546.214 C 409.289 522.401, 423.222 517.271, 440.369 522.262 C 443.543 523.186, 444.564 524.150, 446.059 527.637 C 447.549 531.113, 448.483 532, 451.190 532.507 C 454.412 533.111, 472.572 531.648, 477.636 530.376 L 480.162 529.742 476.903 535.621 C 456.067 573.205, 449.936 581.825, 430.357 601.065 C 400.201 630.699, 381.856 644.031, 348.248 660.740 C 324.880 672.357, 323.996 673.067, 324.012 680.202 C 324.062 702.671, 345.606 731.521, 378.750 753.506 C 387.640 759.403, 389 760.672, 389 763.071 C 389 764.592, 389.273 766.548, 389.607 767.418 C 391.047 771.171, 373.483 767.779, 353.500 760.447 C 346.299 757.804, 341.599 756.710, 336.708 756.536 C 330.949 756.331, 329.505 755.900, 327.208 753.704 C 325.719 752.279, 321.845 749.899, 318.599 748.414 C 315.354 746.930, 309.246 742.928, 305.026 739.521 C 295.466 731.803, 278.707 720.699, 271.761 717.481 C 259.441 711.773, 253.134 713.477, 241.084 725.773 C 224.462 742.734, 201.052 781.126, 190.197 809.228 C 177.068 843.221, 181.678 870.399, 201.879 878.094 C 220.626 885.236, 234.837 879.021, 265.525 850.262 C 275.614 840.807, 283.457 834.332, 287.340 832.251 C 290.674 830.465, 294.845 827.604, 296.610 825.894 C 300.657 821.971, 304.575 822.905, 312.097 829.586 C 317.993 834.823, 319 835.357, 335 841.744 C 376.835 858.442, 400.941 860.957, 424.095 851.041 C 440.112 844.181, 449.049 837.062, 469.655 814.751 L 478.660 805.001 489.343 806.168 C 510.664 808.496, 545.507 802.063, 564.345 792.322 C 568.204 790.326, 570.481 791.074, 578.065 796.828 C 591.309 806.878, 597.858 815.059, 604.724 830.131 C 616.855 856.761, 626.254 875.120, 632.666 884.711 C 636.241 890.057, 640.763 898.497, 642.716 903.466 C 644.669 908.435, 647.341 914.640, 648.653 917.256 C 649.966 919.872, 651.304 924.147, 651.628 926.756 C 653.333 940.516, 663.596 973.006, 667.603 977.327 C 674.957 985.259, 692.460 983.593, 721 972.247 C 745.663 962.442, 766.425 950.281, 787.500 933.296 C 811.939 913.599, 818.224 901.614, 811.587 887.360 C 800.940 864.494, 773.112 860.649, 726.787 875.643 C 714.836 879.511, 714.374 879.304, 708.654 867.500 C 705.989 862, 701.207 849.850, 698.028 840.500 C 694.848 831.150, 688.880 814.275, 684.766 803 C 680.651 791.725, 676.382 779.637, 675.279 776.139 L 673.272 769.777 676.765 766.577 C 686.939 757.253, 676.597 734.426, 652.023 711.966 L 643 703.720 643.001 696.610 C 643.001 687.425, 665.811 580.100, 668.599 576.166 C 668.729 575.982, 673.977 578.569, 680.262 581.916 C 694.648 589.576, 698.993 589.782, 702.515 582.970 C 704.487 579.157, 704.271 579.125, 716.286 584.958 C 728.309 590.795, 741.043 594.657, 751.203 595.548 C 774.142 597.559, 808.743 581.167, 837.701 554.571 C 847.226 545.823, 850.758 544.017, 858.356 544.006 C 868.343 543.991, 882.746 537.927, 894.508 528.784 C 898.354 525.795, 904.227 521.512, 907.560 519.267 C 916.154 513.476, 920.582 504.251, 920.310 492.701 C 920.163 486.479, 920.529 484.218, 922.118 481.524 C 924.450 477.573, 924.971 467.683, 923.039 464.072 C 922.224 462.550, 922.025 459.952, 922.459 456.481 C 923.074 451.561, 922.908 450.965, 920.009 447.663 C 916.476 443.639, 911.443 441.613, 906.433 442.198 L 903.009 442.597 903.255 438.621 C 903.729 430.929, 892.592 427.255, 883.527 432.113 C 878.882 434.603, 865.369 444.748, 859.071 450.474 C 856.635 452.688, 854.922 453.743, 855.264 452.818 C 856.742 448.816, 857.180 439.076, 856.038 435.616 C 854.643 431.388, 849.621 426, 847.076 426 C 844.744 426, 838.477 432.157, 836.077 436.806 C 835.028 438.838, 831.593 443.875, 828.444 448 C 819.972 459.096, 813 476.034, 813 485.520 C 813 490.772, 808.890 494.832, 795.186 503.115 C 771.739 517.288, 760.539 521.488, 752.907 518.969 C 748.139 517.396, 740.369 509.956, 739.537 506.168 C 739.185 504.567, 737.685 502.654, 736 501.659 C 734.391 500.709, 725.295 494.172, 715.787 487.133 C 693.313 470.496, 678.420 461.020, 664.372 454.419 C 658.117 451.480, 653 448.645, 653 448.120 C 653 444.729, 654.325 444, 660.482 444 C 668.407 444, 688.848 440.555, 699.975 437.345 C 759.301 420.227, 796.881 378.204, 798.734 326.911 C 799.388 308.817, 798.472 303.182, 791.517 282.490 C 786.109 266.400, 784.068 255.739, 782.514 235.452 C 781.909 227.553, 781.955 227.332, 784.996 223.505 C 806.762 196.116, 812.708 154.481, 799.027 125.245 C 785.236 95.772, 754.865 75.599, 720.500 73.084 C 710.202 72.331, 708.926 71.991, 700.500 67.756 C 640.266 37.480, 547.687 44.990, 480.884 85.570 C 473.777 89.888, 473.116 89.861, 467.537 85.032 C 462.803 80.935, 456.303 78.452, 453.031 79.490 C 451.577 79.952, 450.143 78.658, 446.590 73.678 C 426.384 45.363, 388.837 30.101, 353.919 36.010 M 361 42.633 C 339.668 45.371, 315.688 57.538, 299.771 73.698 C 296.087 77.439, 288.906 86.348, 283.814 93.495 C 263.724 121.696, 251.301 129.500, 226.500 129.500 C 213.140 129.500, 208.027 127.957, 199.294 121.291 L 194.975 117.994 195.588 122.247 C 197.316 134.258, 200.073 140.128, 207.779 148.207 C 216.939 157.811, 221.492 159.460, 239.500 159.699 C 256.448 159.924, 256.551 159.991, 250.849 167.191 C 243.765 176.135, 230.692 185.138, 219.282 188.932 C 204.292 193.916, 184.573 189.836, 172.964 179.349 L 169 175.767 169.012 180.134 C 169.071 201.810, 187.640 225.234, 212.458 234.937 C 239.210 245.397, 268.354 245.817, 293.433 236.106 C 297.797 234.416, 301.528 233.195, 301.725 233.391 C 302.583 234.249, 295.899 240.825, 288.874 246.033 C 269.124 260.677, 250.819 266.969, 227.808 267.021 L 218.500 267.043 225.105 271.323 C 245.433 284.495, 272.396 289.005, 295.330 283.068 C 337.641 272.115, 360.029 247.638, 379.538 191 C 390.628 158.802, 396.266 146.182, 406.517 130.602 L 408.423 127.705 399.962 128.428 C 380.890 130.056, 363.469 138.988, 344.813 156.702 C 340.586 160.716, 336.648 164, 336.063 164 C 332.297 164, 338.672 153.340, 347.744 144.466 C 360.991 131.510, 378.769 123, 392.592 123 C 403.353 123, 414.164 120.735, 415.300 118.242 C 416.248 116.161, 415.742 115.296, 410.429 109.919 C 397.795 97.131, 383.972 93.488, 359.500 96.495 C 355.581 96.977, 355.628 96.924, 361.841 93.863 C 378.393 85.707, 401.875 90.418, 414.759 104.478 L 420.594 110.846 423.715 106.173 C 433.090 92.138, 441 79.714, 441 79.026 C 441 78.596, 438.059 75.066, 434.464 71.184 C 415.560 50.766, 386.284 39.388, 361 42.633 M 585.506 58.634 C 539.053 63.679, 495.914 81.173, 464.753 107.603 C 441.385 127.424, 414.807 168.665, 407.464 196.500 C 396.487 238.108, 401.890 279.211, 422.318 309.500 C 427.606 317.341, 439.041 332.421, 439.973 332.784 C 440.374 332.940, 441.743 329.340, 443.015 324.784 C 447.138 310.012, 450.892 304.794, 461.304 299.357 C 468.865 295.409, 480.578 297.063, 494.370 304.027 C 498.698 306.212, 502.870 308, 503.640 308 C 505.146 308, 512.074 297.807, 516.394 289.237 C 523.115 275.902, 528.340 253.242, 527.891 239.373 C 527.620 231.013, 525.728 230.471, 513.883 235.359 C 499.065 241.475, 483.741 242.682, 474.500 238.461 L 470.500 236.634 482.695 235.893 C 522.796 233.455, 555.301 209.565, 581.191 163.500 C 594.900 139.107, 595.883 138.137, 590.626 154.186 C 580.979 183.634, 558.159 213.855, 537.397 224.675 C 532.140 227.416, 532.060 227.519, 534.739 228.132 C 559.355 233.763, 607.150 214.489, 634.025 188.094 C 650.282 172.128, 656.981 158.951, 662.700 131.689 C 663.685 126.996, 665.070 126.530, 666.240 130.500 C 669.221 140.620, 663.555 174.404, 655.546 194.263 L 653.222 200.026 656.861 197.845 C 686.007 180.381, 705.379 151.653, 705.470 125.762 C 705.503 116.135, 705.981 115.707, 712 119.918 C 713.375 120.880, 718.742 123.853, 723.927 126.526 C 754.861 142.472, 775.984 174.270, 780.368 211.494 L 781.546 221.488 786.305 212.272 C 796.775 192.001, 800.663 172.610, 796.993 158.972 C 794.714 150.501, 785.343 136.864, 770.607 120.574 C 766.815 116.383, 763.950 112.717, 764.239 112.428 C 766.498 110.169, 786.942 126.843, 794.839 137.385 C 797.830 141.377, 797.553 140.066, 793.600 131.510 C 780.053 102.189, 750.949 82.510, 719 81.068 L 705.500 80.459 695.430 74.774 C 689.891 71.647, 683.141 68.597, 680.430 67.995 C 677.718 67.394, 673.025 66.033, 670 64.971 C 650.360 58.077, 615.028 55.427, 585.506 58.634 M 448.191 86.713 C 444.821 87.357, 431.520 106.371, 425.364 119.345 L 423.539 123.190 427.255 126.595 C 429.299 128.468, 431.402 130, 431.930 130 C 432.458 130, 436.774 125.515, 441.520 120.033 C 446.267 114.551, 453.829 106.682, 458.325 102.545 L 466.500 95.024 461.808 90.512 C 457.029 85.916, 455.133 85.387, 448.191 86.713 M 712 130.656 C 712 160.618, 676.357 203.601, 648.134 207.674 C 642.966 208.419, 642.791 209.930, 650.113 190.599 C 655.861 175.425, 656.054 174.240, 651.824 180.100 C 630.351 209.852, 580.382 236.064, 544.874 236.203 L 534.249 236.244 533.742 249.872 C 533.011 269.540, 528.458 283.859, 516.533 304 C 512.494 310.821, 511.500 313.389, 511.500 317 C 511.500 323.838, 509.131 323.539, 496.524 315.109 C 481.240 304.888, 473.702 303.063, 464.493 307.351 C 454.532 311.990, 450.979 319.348, 449.449 338.505 C 447.532 362.505, 460.804 383.174, 481.671 388.689 C 490.097 390.916, 503.713 389.979, 512.186 386.589 C 520.530 383.251, 521.351 383.316, 522.842 387.438 C 526.952 398.806, 565.665 422.116, 594.134 430.366 C 611.528 435.407, 644.291 438.077, 664.443 436.097 C 727.337 429.918, 774.792 395.634, 788.604 346.397 C 793.971 327.265, 792.818 308.714, 784.892 286.655 C 779.424 271.440, 777.362 260.825, 775.536 238.500 C 773.913 218.652, 773.419 214.812, 772.067 211.500 C 771.618 210.400, 769.831 204.100, 768.097 197.500 C 761.282 171.568, 744.833 147.668, 724.633 134.350 C 720.710 131.763, 716.263 128.813, 714.750 127.793 L 712 125.940 712 130.656 M 413.253 134.762 C 402.812 149.066, 401.917 151.629, 405.876 155.867 C 409.225 159.452, 413.776 160.062, 416.196 157.250 C 417.591 155.630, 428 137.485, 428 136.674 C 428 136.475, 425.788 134.448, 423.085 132.169 L 418.171 128.025 413.253 134.762 M 722.018 192.077 C 715.942 194.833, 714 196.788, 714 200.146 L 714 202.983 720.619 200.491 C 725.116 198.799, 729.261 198, 733.548 198 C 740.762 198, 742.194 198.955, 745.080 205.687 C 747.014 210.198, 748.333 210.823, 751.250 208.608 C 755.721 205.214, 751.370 196.741, 742.971 192.485 C 736.717 189.316, 728.459 189.155, 722.018 192.077 M 601 221.935 C 585.404 226.696, 572.053 243.460, 572.011 258.333 C 571.998 262.881, 574.042 262.933, 575.337 258.418 C 578.752 246.516, 587.405 235.993, 597.625 231.314 C 603.099 228.808, 605.601 228.651, 615.500 230.189 C 617.108 230.439, 617.562 229.858, 617.815 227.226 C 618.096 224.306, 617.748 223.793, 614.597 222.476 C 610.841 220.907, 605.115 220.679, 601 221.935 M 510.500 239.673 C 506.650 241.060, 500.575 242.571, 497 243.031 C 490.740 243.837, 490.851 243.859, 500 243.647 C 509.372 243.428, 519 240.522, 519 237.911 C 519 236.680, 518.553 236.773, 510.500 239.673 M 733.500 247.787 C 732.400 248.011, 730.270 249.352, 728.768 250.767 C 714.715 264, 729.384 299.645, 743.867 287.458 C 757.056 276.361, 748.776 244.676, 733.500 247.787 M 443 260.894 C 443 262.494, 448.792 269.647, 453.303 273.618 C 465.067 283.973, 487.143 289.991, 495 284.986 C 496.243 284.195, 496.157 284.020, 494.500 283.970 C 492.942 283.923, 493.162 283.607, 495.500 282.536 C 497.780 281.492, 498.033 281.143, 496.554 281.081 C 495.360 281.031, 496.595 280.010, 499.746 278.439 C 504.563 276.039, 517.758 263.425, 516.631 262.297 C 516.358 262.025, 513.245 263.865, 509.711 266.387 C 497.885 274.826, 490.855 277.500, 480.500 277.500 C 469.863 277.500, 463.750 275.072, 450.750 265.684 C 446.488 262.606, 443 260.450, 443 260.894 M 606.630 274.020 C 593.517 285.533, 603.366 317.995, 618.461 313.013 C 634.262 307.798, 630.583 274.413, 613.883 271.466 C 610.766 270.916, 609.764 271.268, 606.630 274.020 M 692.594 299.212 C 686.978 302.502, 684.127 306.555, 686.065 308.493 C 687.360 309.789, 688.252 309.671, 693.518 307.506 C 712.091 299.872, 721.002 311.508, 711.052 330.402 C 707.296 337.534, 707.201 337.929, 709.113 338.536 C 712.198 339.515, 717.626 335.241, 721.131 329.075 C 726.490 319.648, 723.454 305.976, 714.719 300.195 C 708.956 296.381, 698.238 295.905, 692.594 299.212 M 470.411 327.891 C 464.412 331.549, 460.957 338.279, 464.399 339.600 C 465.845 340.154, 475.402 335.777, 476.451 334.079 C 477.490 332.397, 482.777 334.983, 486.146 338.819 C 487.904 340.821, 490.802 345.619, 492.587 349.480 C 496.563 358.084, 496.882 358.417, 499.169 356.347 C 503.258 352.647, 500.367 342.608, 492.871 334.475 C 485.350 326.316, 477.005 323.870, 470.411 327.891 M 631.386 356.502 C 627.376 362.712, 627.171 365, 630.624 365 C 632.372 365, 635.417 369.185, 641.173 379.500 C 652.028 398.950, 664.647 405.304, 682.940 400.528 C 697.370 396.761, 705.880 389.209, 713.962 373 C 715.196 370.525, 717.839 366.095, 719.834 363.156 C 725.154 355.320, 723.485 354.408, 709.757 357.652 C 692.440 361.745, 674.996 362.837, 650.695 361.350 L 640.079 360.701 640.689 356.252 C 641.134 353.004, 640.921 351.563, 639.899 350.917 C 637.105 349.147, 635.424 350.250, 631.386 356.502 M 697 369.157 C 693.975 369.657, 681.038 370.163, 668.250 370.283 C 655.463 370.402, 645.001 370.659, 645 370.854 C 645 371.048, 646.633 374.315, 648.629 378.113 C 656.833 393.727, 673.380 399.360, 687.871 391.474 C 695.352 387.402, 703.155 377.989, 705.464 370.250 C 706.223 367.704, 705.989 367.674, 697 369.157 M 574.013 432.816 C 574.073 440.431, 597.269 467.458, 608.421 472.907 C 618.716 477.937, 626.956 475.127, 634.874 463.888 C 640.388 456.062, 643.524 446.560, 641.090 445.055 C 640.394 444.625, 634.802 443.961, 628.662 443.579 C 610.167 442.429, 603.160 441.117, 588.250 436.011 C 576.169 431.874, 574.002 431.388, 574.013 432.816 M 503 434.710 C 485.270 436.130, 442.735 442.309, 440.290 443.821 C 439.507 444.305, 440.032 448.058, 442.065 456.504 C 445.229 469.651, 448.937 491.163, 451.587 511.750 L 453.293 525 457.714 525 C 463.312 525, 504.414 519.272, 508.734 517.890 C 510.513 517.321, 512.828 515.763, 513.878 514.428 C 516.118 511.581, 517.210 511.273, 516.281 513.750 C 515.707 515.282, 515.835 515.329, 517.313 514.128 C 521.225 510.945, 518.855 515.879, 514.577 519.822 C 510.115 523.935, 504.689 526.076, 495 527.549 C 490.138 528.287, 487 529.592, 487 530.876 C 487 532.856, 467.578 567.794, 462.367 575.188 C 437.979 609.796, 400.179 642.427, 359.500 663.990 C 341.258 673.660, 332.207 679.019, 331.645 680.482 C 329.741 685.444, 338.448 704.485, 348.048 716.354 C 357.968 728.619, 384.397 750, 389.636 750 C 393.004 750, 405.183 732.702, 413.209 716.521 L 418.500 705.853 419 709.677 C 419.452 713.133, 419.816 712.348, 422.792 701.500 C 426.010 689.770, 431.549 676, 433.049 676 C 434.023 676, 430.764 691.086, 427.434 702 C 424.416 711.889, 418.883 722.577, 407.810 739.903 C 403.451 746.725, 398.959 754.120, 397.828 756.336 L 395.773 760.366 399.136 763.137 C 414.718 775.973, 450.707 791.859, 475.692 796.931 C 505.086 802.898, 543.050 796.143, 573.500 779.528 C 576.800 777.728, 586.975 772.141, 596.111 767.113 C 626.537 750.368, 639.341 746.019, 658.250 746.007 C 665.730 746.002, 669 745.647, 669 744.841 C 669 742.470, 660.291 732.128, 648.083 720 C 626.102 698.164, 606.769 690, 577.042 690 C 569.869 690, 564 689.605, 564 689.122 C 564 687.929, 575.970 685, 580.845 685 C 586.311 685, 598.565 687.437, 610.998 690.995 C 616.772 692.648, 621.801 694, 622.174 694 C 622.546 694, 620.132 691.413, 616.808 688.250 C 599.890 672.153, 586.535 656.132, 588.443 654.223 C 588.681 653.985, 593.701 658.147, 599.598 663.472 C 613.501 676.026, 633.116 691.307, 634.025 690.293 C 634.416 689.857, 638.215 673.300, 642.468 653.500 C 646.720 633.700, 652.821 606.025, 656.026 592 C 663.601 558.854, 664.506 554.322, 667.527 534.419 C 670.297 516.167, 670.931 514.007, 672.839 516.306 C 674.355 518.132, 672.614 548.461, 670.456 557.812 C 669.655 561.284, 669 564.899, 669 565.845 C 669 567.967, 691.928 579.626, 694.305 578.713 C 697.955 577.313, 720.276 540.364, 726.659 525.157 C 732.383 511.518, 732.328 510.270, 725.750 504.744 C 711.963 493.162, 673.671 467, 670.506 467 C 670.375 467, 670.038 471.387, 669.758 476.750 C 668.474 501.351, 657.788 511.331, 637.774 506.621 C 631.808 505.217, 627.384 502.452, 620.321 495.711 L 616.142 491.723 611.858 495.389 C 600.512 505.101, 584.776 507.570, 572.500 501.565 C 556.657 493.815, 545.717 473.337, 544.279 448.742 C 543.965 443.375, 543.211 438.306, 542.604 437.478 C 540.486 434.591, 521.264 433.247, 503 434.710 M 842.452 441.805 C 827.820 461.525, 826.449 464.357, 821.542 485 C 819.943 491.728, 818.409 495.957, 817.273 496.773 C 805.756 505.042, 776.509 522.558, 768.331 526.085 C 759.335 529.963, 749.571 527.867, 741.922 520.415 L 738.344 516.930 735.520 524.215 C 731.607 534.308, 726.503 544.309, 717.602 559.319 C 713.421 566.369, 710 572.488, 710 572.918 C 710 574.209, 728.877 582.630, 738.321 585.551 C 763.467 593.330, 799.928 579.590, 830.654 550.756 C 845.761 536.580, 843.744 537.706, 855.362 536.964 C 868.039 536.155, 872.502 534.280, 889.209 522.743 C 909.725 508.575, 909.086 509.163, 911.151 502.588 C 912.173 499.336, 912.819 496.486, 912.588 496.254 C 911.878 495.545, 903.801 499.522, 898.150 503.363 C 892.639 507.109, 888 508.121, 888 505.577 C 888 504.794, 886.807 502.735, 885.349 501.002 C 882.878 498.067, 882.769 497.537, 883.750 493.250 C 885.082 487.430, 884.641 486.367, 879.883 483.940 C 873.441 480.654, 871.071 471.857, 874.942 465.594 C 876.009 463.867, 880.722 459.185, 885.413 455.190 C 892.330 449.300, 894.150 447.158, 895.038 443.859 C 898.269 431.861, 887.748 435.842, 865.503 455.036 C 852.801 465.996, 848.521 469, 845.609 469 C 843.213 469, 842.866 467.393, 844.383 463.316 C 848.029 453.519, 850.316 436.931, 848.202 435.625 C 847.762 435.353, 845.175 438.134, 842.452 441.805 M 550.527 445.500 C 551.940 463.553, 558.292 480.387, 566.965 489.060 C 573.536 495.631, 577.125 497.256, 586.267 497.798 C 596.857 498.426, 601.264 496.642, 608.544 488.779 L 614.184 482.687 605.788 478.340 C 592.918 471.677, 579.463 458.330, 570.373 443.209 L 566.941 437.500 558.382 437 L 549.823 436.500 550.527 445.500 M 904.078 450.095 C 902.745 450.627, 899.778 452.736, 897.483 454.782 C 895.188 456.827, 890.751 460.421, 887.623 462.770 C 879.988 468.501, 877.764 474.666, 881.960 478.464 C 884.993 481.208, 889.711 479.733, 897.069 473.739 C 900.606 470.857, 906.030 466.846, 909.123 464.824 C 916.515 459.992, 917.400 457.039, 912.859 452.355 C 909.459 448.846, 908.086 448.493, 904.078 450.095 M 419.479 455.963 C 382.099 465.737, 353.940 485.067, 325.464 520.500 C 315.464 532.943, 314.330 533.840, 298.500 541.830 C 277.186 552.587, 270.598 559.423, 266.415 575.119 C 264.695 581.575, 265.026 589, 267.034 589 C 267.553 589, 269.734 585.513, 271.882 581.250 C 274.029 576.987, 277.071 572.150, 278.643 570.500 L 281.500 567.500 281.805 570.131 C 281.974 571.586, 280.298 577.003, 278.055 582.252 C 274.508 590.554, 274 592.691, 274 599.312 C 274 610.968, 275.628 610.077, 281.886 595 C 284.952 587.612, 289.894 580.193, 289.964 582.872 C 289.993 583.988, 290.285 584.009, 291.524 582.980 C 294.401 580.593, 294.151 582.833, 290.653 590.789 C 284.573 604.618, 282.125 616.723, 285.044 618.527 C 286.977 619.722, 289.287 616.555, 294.710 605.281 C 300.070 594.134, 306.012 586.973, 305.992 591.682 C 305.982 594.104, 302.822 604.019, 299.602 611.730 C 295.406 621.778, 296.469 626, 303.194 626 C 305.673 626, 306.959 624.414, 310.688 616.758 C 311.958 614.150, 316.260 608.343, 320.248 603.853 C 324.237 599.364, 329.897 592.835, 332.826 589.345 C 337.280 584.039, 342 581.048, 342 583.532 C 342 585.052, 338.623 591.806, 336.416 594.699 L 333.894 598.005 336.104 604.253 C 340.020 615.325, 342.252 615.421, 347.625 604.751 C 351.986 596.093, 353.370 585.376, 351.993 570.930 C 350.401 554.217, 352.036 552.132, 382.500 532.038 C 408.418 514.941, 423.174 510.305, 438.782 514.354 C 445.078 515.987, 444.836 517.278, 441.937 497.500 C 438.424 473.530, 433.696 452.974, 431.711 453.041 C 431.045 453.063, 425.541 454.378, 419.479 455.963 M 644.512 463.229 C 637.185 476.080, 627.602 483.970, 620.939 482.638 L 618.046 482.059 621.542 486.925 C 630.051 498.770, 646.154 504.980, 653.756 499.349 C 660.052 494.685, 662.581 487.843, 663.687 472.482 C 664.349 463.285, 664.674 463.776, 654.977 459.317 L 648.453 456.317 644.512 463.229 M 908.889 474.093 C 904.878 477.444, 899.453 481.589, 896.832 483.305 C 891.464 486.819, 889.495 490.426, 890.485 494.934 C 891.357 498.902, 891.755 498.839, 899.553 493.500 C 903.169 491.025, 906.773 489, 907.563 489 C 908.353 489, 909 488.551, 909 488.003 C 909 487.454, 910.653 485.176, 912.673 482.940 C 915.731 479.556, 916.421 477.964, 916.797 473.437 C 917.045 470.447, 917.008 468, 916.714 468 C 916.421 468, 912.900 470.742, 908.889 474.093 M 848.324 470.597 C 847.952 471.568, 848.626 475.090, 849.824 478.431 C 853.508 488.704, 852.055 497.070, 845.196 505.086 C 842.808 507.876, 842.148 509.156, 843.332 508.702 C 844.339 508.316, 845.786 508, 846.547 508 C 848.992 508, 855.274 501.634, 857.260 497.145 C 859.602 491.850, 858.492 483.952, 854.155 475.051 C 851.311 469.214, 849.412 467.763, 848.324 470.597 M 254.498 725.343 C 247.587 729.051, 242.936 734.391, 230.391 753.022 C 192.166 809.789, 181.552 847.491, 198.273 867.114 C 201.099 870.431, 208.636 872.057, 206.998 868.996 C 206.445 867.963, 205.474 862.698, 204.840 857.296 C 201.889 832.137, 213.565 800.923, 241.683 758.810 C 251.284 744.429, 260.076 734.349, 267.203 729.549 L 272.070 726.272 269.285 725.128 C 261.814 722.061, 260.580 722.079, 254.498 725.343 M 272.446 734.132 C 251.901 747.144, 218.456 803.207, 212.421 834.750 C 209.125 851.977, 212.039 872, 217.842 872 C 225.744 872, 240.405 863.411, 252.933 851.442 L 260.930 843.801 255.183 839.963 C 246.967 834.477, 238.850 823.866, 244.159 825.550 C 246.695 826.355, 253.970 830.580, 261.168 835.427 C 266.917 839.299, 267.533 839.210, 272.791 833.742 L 276.082 830.320 272.117 827.696 C 258.506 818.689, 256.621 811.373, 270.006 819.504 C 282.176 826.897, 284.250 826.906, 292.500 819.612 L 296.500 816.075 292.939 816.038 C 288.391 815.990, 285.492 813.311, 282.176 806.092 C 273.871 788.016, 283.685 761.310, 301.995 752.160 L 307.751 749.284 304.625 747.462 C 302.906 746.459, 297.134 742.345, 291.798 738.320 C 280.782 730.008, 279.422 729.714, 272.446 734.132 M 645 754.665 C 639.063 755.700, 628.728 759.554, 618.500 764.547 C 602.204 772.501, 578.682 785.355, 578.326 786.500 C 578.155 787.050, 579.692 788.625, 581.742 790 C 587.698 793.996, 600.632 806.752, 603.915 811.868 C 605.573 814.452, 609.625 822.494, 612.919 829.740 C 629.813 866.900, 646.262 895, 651.121 895 C 658.448 895, 698.251 863.473, 696.436 859.107 C 696.069 858.223, 691.587 845.800, 686.476 831.500 C 672.188 791.519, 665.086 772.981, 661.924 767.409 C 660.335 764.608, 658.671 760.558, 658.227 758.409 C 657.424 754.524, 657.389 754.499, 652.460 754.364 C 649.732 754.290, 646.375 754.425, 645 754.665 M 665 754.480 C 665 755.983, 668.355 763, 669.073 763 C 672.206 763, 672.816 755.452, 669.750 754.630 C 667.013 753.897, 665 753.833, 665 754.480 M 304.422 757.365 C 287.833 764.875, 279.005 794.345, 289.578 806.911 C 291.945 809.723, 302.946 816, 305.509 816 C 306.299 816, 306.904 812.871, 307.311 806.672 C 308.454 789.272, 314.496 775.507, 325.254 765.796 L 330.464 761.093 325.482 758.849 C 319.369 756.095, 308.862 755.355, 304.422 757.365 M 331 768.355 C 320.541 776.633, 313.905 791.074, 313.215 807.054 C 312.545 822.572, 314.375 825.699, 327 830.607 C 330.025 831.783, 337.900 834.850, 344.500 837.423 C 370.817 847.680, 393.806 851.255, 410.076 847.619 C 424.147 844.475, 443.075 832.017, 458.618 815.671 C 463.778 810.244, 468 805.244, 468 804.561 C 468 803.864, 465.477 802.755, 462.250 802.035 C 447.651 798.776, 427.597 790.231, 409.656 779.624 C 400.078 773.961, 398.551 773.500, 395.788 775.436 C 390.766 778.953, 375.600 776.244, 351.700 767.561 C 339.081 762.975, 337.731 763.027, 331 768.355 M 689.377 876.121 C 672.958 891.202, 659.651 899.997, 653.250 899.999 C 650.227 900, 650.358 901.811, 654.082 911.500 C 655.773 915.900, 657.414 920.344, 657.728 921.375 C 658.230 923.026, 659.058 923.189, 664.655 922.740 C 679.377 921.558, 691.252 911.965, 701.812 892.725 C 707.789 881.834, 707.831 881.268, 703.213 873.612 L 699.254 867.048 689.377 876.121 M 765.500 874.639 C 756.383 875.667, 748.065 877.466, 744.808 879.114 C 737.987 882.565, 732.322 892.677, 729.532 906.384 C 727.869 914.553, 726.546 918, 725.072 918 C 721.619 918, 723.857 899.064, 728.432 889.583 C 730.308 885.693, 731.766 882.442, 731.672 882.358 C 731.577 882.273, 728.800 883.052, 725.500 884.088 C 722.200 885.123, 717.834 885.977, 715.797 885.985 C 712.141 886, 712.034 886.116, 707.327 895.250 C 698.029 913.291, 682.747 925.577, 666.328 928.211 C 662.573 928.814, 659.323 929.452, 659.108 929.629 C 658.892 929.806, 660.465 935.866, 662.604 943.094 C 665.965 954.452, 666.833 956.368, 668.996 957.205 C 681.525 962.052, 753.024 924.468, 790.946 893.102 L 801.099 884.705 798.299 882.803 C 789.449 876.790, 776.036 873.452, 765.500 874.639 M 797.385 896.163 C 795.798 897.353, 792.475 900.238, 790 902.574 C 780.431 911.606, 741.159 935.596, 714.706 948.567 C 697.093 957.204, 676.879 965, 672.098 965 C 667.398 965, 671.768 972.108, 677.665 974.054 C 684.835 976.421, 700.738 972.462, 724 962.519 C 754.007 949.692, 789.187 925.044, 802.618 907.434 C 809.620 898.254, 805.740 889.899, 797.385 896.163 M 286.500 934.021 C 251.554 936.515, 221.630 941.892, 215.180 946.836 L 212.859 948.615 216.680 948.233 C 218.781 948.023, 225.232 946.987, 231.015 945.932 C 260.335 940.581, 290.511 938.212, 339.346 937.429 C 377.227 936.821, 382.295 936.457, 376 934.796 C 371.283 933.551, 301.541 932.947, 286.500 934.021 M 369.500 957.044 C 335.821 957.994, 310.162 960.438, 307.666 962.934 C 305.940 964.660, 313.336 965.124, 324 963.958 C 339.846 962.226, 428.595 961.558, 463 962.911 C 540.739 965.968, 576.226 968.337, 614.474 973.023 C 625.369 974.358, 633.714 974.314, 632.330 972.930 C 628.127 968.727, 568.846 961.997, 509.500 958.986 C 488.178 957.903, 411.469 955.942, 400.500 956.199 C 397.200 956.276, 383.250 956.656, 369.500 957.044" stroke="none" fill="#1a1a1a" fill-rule="evenodd"/>
</svg>