<svg xmlns="http://www.w3.org/2000/svg" width="1024" height="1024" viewBox="0 0 1024 1024" version="1.1">
	<path d="M 479 20.095 C 415.013 22.859, 348.174 46.691, 289.071 87.813 C 251.752 113.779, 218.004 150.624, 195.580 189.885 C 152.793 264.798, 140.465 345.334, 159.923 422.825 C 167.154 451.619, 182.678 488.376, 197.301 511.323 L 202.286 519.146 200.143 522.959 C 197.353 527.923, 197.388 528.279, 201.482 536.821 C 205.349 544.891, 209.351 551.071, 215.438 558.372 L 219.500 563.243 217 564.859 C 212.537 567.743, 209.216 571.918, 207.591 576.686 C 204.595 585.479, 205.885 590.933, 213.050 599.778 C 215.848 603.231, 219.486 608.631, 221.136 611.778 C 228.371 625.579, 241.717 631.408, 255.116 626.620 L 258.732 625.328 261.891 631.733 C 263.628 635.256, 267.125 640.358, 269.662 643.069 C 275.189 648.978, 279.956 649.631, 288.507 645.649 C 298.650 640.926, 301.960 634.268, 298.015 626.530 C 296.923 624.388, 296.190 622.477, 296.385 622.282 C 296.580 622.086, 300.061 623.030, 304.120 624.379 C 324.398 631.119, 348.159 630.075, 369.397 621.514 C 374.190 619.581, 378.312 618, 378.556 618 C 378.800 618, 379.009 624.638, 379.020 632.750 C 379.040 648.336, 380.712 664.008, 383.562 675.324 L 385.280 682.148 381.947 686.824 C 363.510 712.689, 355.256 729.704, 351.421 749.750 C 344.897 783.848, 362.255 815.635, 396.588 832.465 L 404.819 836.500 399.984 842.925 C 388.001 858.845, 380.761 881.513, 380.816 902.945 C 380.877 927.067, 385.918 934.789, 403.005 936.934 C 421.402 939.244, 446.236 931.468, 456.010 920.336 C 462.343 913.122, 463.476 909.072, 463.231 894.500 L 463.013 881.500 469.045 864 C 478.725 835.919, 479.193 834.162, 479.307 825.500 C 479.449 814.763, 476.827 809.803, 463.890 796.337 C 458.450 790.675, 454 785.198, 454 784.166 C 454 780.715, 466.820 770, 470.949 770 C 471.399 770, 472.092 773.038, 472.489 776.750 C 475.827 807.952, 492.263 828.729, 521.750 839.022 C 526.837 840.798, 531 842.558, 531 842.934 C 531 843.310, 529.699 847.191, 528.109 851.559 C 521.264 870.360, 519.523 879.968, 519.511 899 C 519.499 918.455, 520.865 926.422, 526.149 937.699 C 531.551 949.228, 538.307 952.615, 554 951.661 C 577.683 950.220, 597.893 939.183, 605.565 923.500 C 608.804 916.879, 608.605 920.551, 607.896 880.500 C 607.603 863.899, 608.716 854.756, 613.063 838.062 C 615.722 827.852, 615.585 819.798, 612.646 813.488 C 609.919 807.631, 606.755 805.015, 594.500 798.483 C 583.097 792.406, 579 789.382, 579 787.045 C 579 785.281, 582.209 780.973, 595.297 765.164 C 602.907 755.972, 609.720 744.513, 614.967 732.078 C 617.376 726.370, 619.806 722, 620.572 722 C 628.013 722, 641.572 732.014, 647.016 741.528 C 651.482 749.334, 660.101 776.441, 665.398 799.342 C 668.830 814.180, 670.887 820.895, 673.553 825.969 C 680.271 838.753, 697.038 854.379, 711.096 860.958 C 740.182 874.568, 786.355 868.457, 794.006 849.985 C 795.011 847.559, 797.259 846.024, 805.873 841.880 C 832.251 829.189, 848.422 799.637, 845.469 769.523 C 844.068 755.240, 840.108 751.906, 835.454 761.090 C 829.003 773.821, 820.236 779.510, 808.178 778.790 C 789.799 777.692, 781.700 768.521, 774.992 741.216 C 764.863 699.981, 752.470 681.470, 726.674 669.047 C 697.235 654.870, 653.944 657.620, 627.855 675.323 L 624.277 677.752 623.667 670.126 C 622.933 660.946, 620.388 651.525, 614.965 637.912 C 612.738 632.323, 611.067 627.600, 611.251 627.416 C 611.435 627.231, 614.977 628.158, 619.122 629.474 C 639.005 635.788, 659.158 636.414, 682.250 631.434 C 684.778 630.889, 685 631.087, 685 633.886 C 685 637.802, 689.676 643.199, 696.422 647.069 C 707.050 653.165, 714.612 649.347, 724.285 633 C 729.015 625.008, 729.083 624.976, 736 627.535 C 748.343 632.100, 762.926 624.956, 770.056 610.849 C 771.266 608.457, 774.249 604.353, 776.687 601.729 C 782.184 595.812, 784.006 591.577, 783.978 584.782 C 783.950 578.079, 781.203 571.973, 776.867 568.975 C 775.015 567.695, 773.326 566.516, 773.114 566.354 C 772.902 566.193, 775.277 563.307, 778.393 559.942 C 781.509 556.576, 786.334 550.451, 789.115 546.330 C 797.949 533.239, 799.634 527.574, 796.348 522.012 C 794.719 519.255, 794.795 519.008, 801.737 504.358 C 858.750 384.054, 838.328 248.152, 746.460 136.500 C 690.293 68.236, 601.066 23.399, 515.500 20.440 C 507.250 20.155, 499.150 19.810, 497.500 19.673 C 495.850 19.537, 487.525 19.726, 479 20.095 M 476.500 27.607 C 367.868 36.186, 267.228 93.352, 211.735 178 C 159.298 257.987, 144.815 349.303, 171.133 434 C 177.259 453.716, 189.832 483.930, 197.765 498 C 207.563 515.378, 208.296 516.192, 212.547 514.416 C 214.411 513.637, 217.833 513, 220.152 513 C 225.792 513, 231.700 519.105, 238.318 531.776 C 240.968 536.849, 243.570 541, 244.100 541 C 244.630 541, 247.861 540.050, 251.282 538.889 C 259.757 536.012, 270.186 536.702, 282.500 540.956 C 299.959 546.986, 306.191 548.137, 321.148 548.096 C 349.930 548.017, 359.663 542.695, 388.088 511.497 C 406.157 491.665, 411.133 484.892, 422.932 464.071 C 433.614 445.222, 433.988 444.403, 431.250 445.862 C 426.153 448.579, 415.523 451.188, 407.500 451.692 C 386.900 452.986, 369.503 445.665, 360.833 432.055 C 358.348 428.155, 357.081 427.275, 350.488 424.872 C 339.558 420.887, 333.175 416.894, 326.313 409.748 C 302.692 385.148, 305.077 342.701, 331.026 325.886 L 335.801 322.792 337.348 313.646 C 339.621 300.213, 339.908 297.320, 340.997 276.931 C 342.158 255.196, 344.112 246.178, 350.044 235.181 C 354.435 227.040, 354.404 226.833, 348.500 224.998 C 327.541 218.484, 312.524 202.105, 309.771 182.758 C 307.050 163.636, 308.596 157.958, 315.048 163.387 C 322.760 169.876, 331.845 173.455, 340.667 173.478 C 345.158 173.490, 349.110 173.223, 349.448 172.885 C 349.787 172.547, 348.884 167.822, 347.443 162.385 C 342.820 144.948, 344.154 128.704, 351.455 113.528 C 358.238 99.429, 362.009 98.343, 374.162 106.988 C 382.418 112.860, 394.403 124.262, 396.774 128.500 C 398.084 130.841, 397.472 131.184, 409.437 121.393 C 439.745 96.594, 473.245 90.010, 510.171 101.596 C 528.557 107.365, 540.203 114.311, 554.365 127.956 L 563.233 136.500 566.798 132 C 578.329 117.447, 599.219 100, 605.114 100 C 611.697 100, 621.444 115.308, 626.125 133 C 627.918 139.776, 628.431 144.744, 628.654 157.493 L 628.933 173.485 636.880 180.750 C 661.890 203.610, 672.183 226.840, 677.979 273.500 C 680.980 297.666, 683.108 305.430, 688.474 311.794 C 694.824 319.325, 705.297 321.091, 716.439 316.511 C 725.244 312.891, 726.622 314.590, 722.915 324.497 C 716.925 340.508, 696.883 352.113, 680.465 349.078 C 677.273 348.488, 674.546 348.121, 674.404 348.262 C 674.263 348.404, 675.979 351.215, 678.217 354.510 C 683.972 362.979, 691.637 379.338, 693.441 387 C 698.819 409.852, 691.051 440.481, 676.467 453.923 C 668.915 460.885, 668.185 460.375, 661.523 443.500 C 658.918 436.900, 656.440 431.129, 656.018 430.675 C 654.753 429.316, 653.804 453.968, 654.847 461.118 C 657.503 479.339, 670.487 486.515, 693.750 482.621 L 699 481.742 699 484.675 C 699 496.692, 680.572 513.453, 659.500 520.603 C 650.111 523.789, 632.012 525.026, 623.016 523.097 C 620.096 522.471, 617.457 522.209, 617.151 522.516 C 616.244 523.423, 629.764 535.829, 639.654 543.165 L 648.822 549.966 664.161 550.613 C 683.903 551.446, 691.038 550.327, 705.935 544.058 C 724.103 536.413, 733.816 535.315, 742.786 539.891 L 746.709 541.892 754.261 530.696 C 768.635 509.384, 772.750 507.229, 787.197 513.443 C 791.358 515.233, 809.072 471.938, 816.491 441.841 C 835.843 363.339, 825.904 286.301, 786.646 210.515 C 737.114 114.896, 658.118 53.613, 557.922 33.079 C 536.341 28.656, 496.834 26.001, 476.500 27.607 M 463.061 104.021 C 437.280 107.620, 413.115 122.976, 387.940 151.758 C 367.307 175.349, 358.988 180.500, 341.522 180.500 C 330.843 180.500, 330.255 180.383, 322.623 176.739 L 314.746 172.978 315.382 176.239 C 316.985 184.455, 327.286 193.454, 339.479 197.291 C 345.383 199.149, 348.807 199.498, 361 199.489 C 389.832 199.466, 401.216 193.329, 417.828 168.852 C 429.300 151.950, 442.613 140.041, 457.300 133.546 C 488.122 119.915, 524.979 128.530, 541.255 153.169 C 543.315 156.288, 545 159.325, 545 159.919 C 545 162.395, 546.810 160.398, 552.215 151.959 L 557.930 143.036 553.215 137.667 C 532.204 113.743, 494.425 99.643, 463.061 104.021 M 593.500 114.828 C 569.990 134.893, 550.310 163.881, 547.403 182.729 C 546.574 188.105, 544.853 190.541, 542.517 189.645 C 540.969 189.051, 540.803 187.956, 541.207 180.982 C 541.461 176.592, 541.311 173, 540.874 173 C 539.242 173, 528.083 182.681, 515 195.446 C 507.575 202.691, 499.700 210.001, 497.500 211.691 C 478.794 226.060, 450 234.016, 432.859 229.551 C 427.942 228.271, 426.670 228.282, 421.898 229.645 C 413.202 232.130, 389.509 232.569, 375.088 230.513 C 361.317 228.549, 361.954 228.347, 356.651 236.343 C 350.454 245.686, 349.047 252.535, 347.472 281 C 346.682 295.280, 345.403 309.140, 344.566 312.500 C 343.744 315.800, 343.055 318.782, 343.036 319.126 C 343.008 319.617, 351.205 317.262, 352.875 316.299 C 353.082 316.180, 352.519 314.255, 351.625 312.021 C 349.509 306.733, 349.524 295.375, 351.656 287.566 C 353.730 279.973, 354.117 279.491, 359.829 277.375 C 365.679 275.208, 365.531 275.345, 364.020 273.524 C 359.730 268.355, 376.884 274.744, 383.107 280.633 C 389.599 286.777, 389.811 300.795, 383.594 312.817 L 382.020 315.862 387.760 317.039 C 407.831 321.152, 422.941 329.783, 432.152 342.400 C 437.917 350.295, 433.552 349.506, 424.228 340.968 C 403.845 322.304, 364.715 316.250, 341.042 328.099 C 324.462 336.397, 317.084 348.830, 317.024 368.568 C 316.963 388.687, 328.587 407.319, 346.305 415.505 C 379.246 430.725, 407.813 424.783, 441.165 395.775 C 448.002 389.828, 448.095 389.490, 443.500 387.299 C 439.128 385.214, 439.043 384.041, 443.250 383.861 C 453.346 383.430, 457 385.087, 457 390.096 C 457 393.230, 455.196 394.934, 453.972 392.955 C 453.391 392.015, 450.649 394.026, 444.097 400.193 C 421.694 421.282, 404.332 429.233, 380.297 429.410 C 368.334 429.498, 368.120 429.539, 369.400 431.500 C 374.442 439.222, 387.873 444.473, 402.500 444.441 C 414.827 444.414, 421.104 442.798, 437.115 435.529 C 450.626 429.394, 451.393 429.186, 450.538 431.880 C 450.007 433.554, 450.412 433.722, 454.221 433.411 C 456.574 433.218, 467.050 432.847, 477.500 432.587 C 520.441 431.516, 540.712 424.356, 562.554 402.539 C 590.036 375.091, 600.902 349.949, 604.047 306.530 C 606.273 275.816, 600.739 249.965, 588.913 235.821 C 583.906 229.833, 583.874 229.985, 591.250 224.682 C 618.518 205.077, 629.075 165.177, 616.621 128.795 C 614.794 123.458, 611.787 116.595, 609.938 113.545 C 605.360 105.991, 603.703 106.120, 593.500 114.828 M 360.390 111.519 C 350.521 121.388, 348.066 147.543, 355.487 163.752 L 357.959 169.151 362.166 166.826 C 366.738 164.299, 377.054 154.461, 386.413 143.703 L 392.326 136.907 390.782 133.703 C 388.504 128.976, 381.891 121.879, 373.394 115.044 C 364.943 108.245, 363.937 107.973, 360.390 111.519 M 482.500 131.604 C 467.706 133.615, 459.123 136.786, 447.358 144.585 C 437.673 151.006, 431.873 157.141, 421.201 172.250 C 407.047 192.289, 397.559 199.184, 378.812 203.052 C 355.776 207.806, 334.856 203.869, 322.073 192.376 C 317.152 187.951, 317.061 187.916, 318.328 190.928 C 322.019 199.708, 331.795 209.127, 342.816 214.523 C 361.942 223.888, 400.527 227.601, 421.191 222.064 C 444.423 215.839, 459.289 204.866, 474.789 182.500 C 492.259 157.293, 510.079 148.009, 531.472 152.969 C 536.338 154.097, 536.701 153.808, 534.348 150.680 C 525.631 139.093, 499.133 129.344, 482.500 131.604 M 586.387 146.639 C 570.685 170.454, 564.875 184.329, 563.002 202.477 C 561.866 213.494, 562.079 214, 567.857 213.999 C 577.520 213.998, 590.467 204.845, 595.917 194.163 C 601.293 183.624, 602.439 162.101, 598.557 144.545 C 595.980 132.892, 595.382 132.995, 586.387 146.639 M 591.655 148.772 C 590.704 150.572, 586.989 156.526, 583.401 162.003 C 574.446 175.670, 569.328 189.113, 567.458 203.882 L 566.776 209.265 570.603 208.547 C 580.914 206.612, 589.304 198.384, 593.595 186 C 595.684 179.970, 596.090 158.935, 594.291 150 L 593.384 145.500 591.655 148.772 M 512 157.310 C 499.771 160.850, 491.814 167.761, 479.860 185.227 C 469.546 200.296, 459.150 210.963, 448 217.915 L 439.500 223.216 447.300 222.616 C 472.152 220.707, 488.421 212.138, 513.895 187.543 C 520.828 180.849, 530.023 173.001, 534.329 170.102 C 542.069 164.893, 542.137 164.809, 540.329 162.771 C 535.637 157.483, 521.090 154.679, 512 157.310 M 626.681 182.750 C 626.441 183.162, 625.475 186.200, 624.535 189.500 C 623.594 192.800, 621.730 197.693, 620.392 200.373 C 617.585 205.995, 616.737 203.805, 628.324 220.866 C 641.734 240.610, 647.856 261.154, 651.012 297 C 652.913 318.596, 654.933 324.789, 662.857 333.304 C 676.426 347.887, 700.622 346.038, 711.965 329.551 L 714.789 325.447 708.144 325.813 C 690.793 326.770, 676.911 314.039, 674 294.500 C 673.426 290.650, 671.846 279.625, 670.488 270 C 664.862 230.113, 657.203 212.025, 636.826 190.498 C 629.027 182.259, 627.601 181.170, 626.681 182.750 M 612.500 214.166 C 610.850 216.384, 606.456 221.078, 602.735 224.596 L 595.970 230.993 598.340 234.746 C 599.643 236.811, 602.187 241.875, 603.993 246 C 605.799 250.125, 609.242 257.143, 611.645 261.595 C 621.975 280.735, 624.744 294.026, 626.001 330.500 C 627.587 376.507, 629.422 382.819, 648.887 409.203 C 661.205 425.900, 664.324 431.092, 668.477 441.815 L 671.698 450.131 676.339 443.315 C 683.824 432.325, 687.149 421.885, 687.750 407.488 C 688.579 387.623, 685.202 378.554, 665.836 348.638 C 648.697 322.162, 648.760 322.330, 646.460 297.441 C 643.539 265.840, 640.320 251.525, 632.533 235.500 C 629.023 228.277, 619.819 214.370, 616.197 210.816 C 615.814 210.440, 614.150 211.948, 612.500 214.166 M 503.216 224.845 C 500.901 226.314, 503.134 229.039, 509.138 232.070 C 512.375 233.704, 517.527 237.308, 520.587 240.079 C 526.869 245.768, 528.368 245.894, 528.805 240.770 C 529.508 232.516, 510.131 220.457, 503.216 224.845 M 364.500 236.503 C 360.324 237.980, 356 242.077, 356 244.556 C 356 246.456, 357.489 246.381, 360.631 244.322 C 362.039 243.400, 366.139 242.387, 369.742 242.072 C 374.568 241.651, 376.582 241.024, 377.396 239.691 C 379.890 235.606, 372.322 233.735, 364.500 236.503 M 609.254 269.663 C 609.819 272.323, 610.326 284.175, 610.379 296 C 610.496 321.696, 608.622 333.797, 601.478 353.508 L 597 365.861 597 379.879 C 597 421.049, 607.303 459.957, 623.542 480.118 C 640.988 501.777, 672.421 508.850, 686.295 494.239 L 689.091 491.296 679.295 490.731 C 668.162 490.089, 663.716 488.545, 657.922 483.311 C 648.612 474.900, 647.610 470.910, 647.548 442 C 647.495 417.203, 647.308 416.333, 640.040 407.140 C 627.456 391.223, 623.420 375.727, 622.035 338 C 620.632 299.822, 619.215 289.882, 612.936 274.162 C 609.207 264.828, 607.882 263.209, 609.254 269.663 M 495 270.875 C 495 271.356, 496.238 272.003, 497.750 272.313 C 499.262 272.623, 501.359 273.513, 502.409 274.291 C 504.151 275.582, 503.802 275.765, 498.409 276.381 C 490.673 277.266, 485.252 280.424, 481.259 286.371 C 469.647 303.668, 475.278 328.074, 492.369 334.525 C 505.253 339.388, 522.717 327.823, 527.139 311.500 C 529.864 301.443, 525.002 285.445, 517.288 279.086 C 509.288 272.492, 495 267.228, 495 270.875 M 364.169 283.485 C 358.934 285.119, 356.175 287.435, 354.362 291.718 C 350.862 299.986, 354.497 315.999, 359.873 316.001 C 362.411 316.001, 362.488 315.829, 362.148 310.913 C 361.278 298.351, 370.907 288.353, 380.399 291.962 C 383.885 293.287, 384.285 292.985, 383.450 289.658 C 381.648 282.478, 374.614 280.226, 364.169 283.485 M 493.469 283.007 C 486.440 285.180, 480.571 294.056, 479.588 304 C 479.056 309.384, 479.071 309.423, 480.272 305.850 C 484.467 293.379, 502.348 291.214, 510.356 302.209 C 515.202 308.863, 512.425 323.318, 505.188 329.100 L 502.500 331.248 505 330.525 C 511.332 328.693, 519.917 318.718, 522.098 310.657 C 523.503 305.464, 522.747 296.345, 520.561 292.118 C 517.050 285.328, 502.158 280.320, 493.469 283.007 M 328.341 343.216 C 324.616 347.325, 320.758 354.929, 321.469 356.762 C 322.032 358.214, 322.791 357.761, 326.091 354 L 330.040 349.500 329.770 355.500 L 329.500 361.500 333.284 361.812 L 337.068 362.125 336.382 355.312 C 335.095 342.536, 332.499 338.631, 328.341 343.216 M 398.820 349.750 C 393.339 355.404, 390.766 360.147, 391.190 363.816 C 391.626 367.589, 400.290 367.979, 400.820 364.250 C 400.995 363.012, 400.770 361.993, 400.320 361.985 C 397.422 361.931, 396.787 360.170, 398.573 357.146 C 401.992 351.357, 404.121 351.839, 406.478 358.935 C 408.464 364.914, 410.201 366.667, 411.996 364.504 C 413.731 362.414, 412.796 355.277, 410.044 349.591 C 407.108 343.526, 404.822 343.558, 398.820 349.750 M 589.122 381.346 C 587.264 384.561, 583.144 390.462, 579.968 394.460 C 570.845 405.940, 570.730 406.291, 570.203 424.154 C 569.247 456.607, 573.050 468.394, 591.471 490.058 C 596.437 495.899, 602.624 503.434, 605.221 506.802 C 611.500 514.949, 616.076 516.463, 634.500 516.485 C 648.634 516.501, 655.121 515.229, 666.527 510.204 L 672.845 507.421 663.172 506.254 C 641.697 503.663, 627.102 494.420, 614.494 475.425 C 602.983 458.083, 594.465 424.263, 593.104 390.500 L 592.500 375.500 589.122 381.346 M 554 420.407 C 532.423 434.764, 507.421 440.304, 466 439.908 L 444.500 439.703 438.248 450.101 C 413.549 491.182, 397.652 534.643, 387.806 588 C 384.883 603.844, 384.640 642.554, 387.355 659.858 C 394.036 702.445, 420.805 737.309, 463.154 758.578 L 472 763.020 472 759.121 C 472 742.992, 482.582 713.378, 494.349 696.576 C 503.260 683.853, 503.162 689.004, 494.122 708.595 C 483.189 732.289, 479 748.097, 479 765.669 C 479 805.003, 497.104 827.418, 537.079 837.582 C 542.810 839.039, 547.946 840.648, 548.492 841.157 C 549.981 842.548, 547.111 843.967, 542.773 843.985 C 538.186 844.004, 537.122 845.484, 533.614 856.727 C 528.004 874.708, 524.530 899.535, 527.302 901.835 C 528.113 902.509, 532.655 903.579, 537.395 904.213 C 551.612 906.115, 571.954 902.816, 588.530 895.921 C 600.375 890.993, 599.624 892.342, 600.290 874.795 C 600.882 859.175, 602.242 849.502, 606.106 833.423 C 609.913 817.586, 607.552 813.683, 587.221 802.199 C 567.684 791.165, 567.177 787.927, 582.197 770.126 C 596.824 752.791, 604.450 739.762, 609.780 723 C 616.644 701.412, 618.416 675.172, 614.101 659 C 607.471 634.152, 600.919 622.607, 586.068 609.604 C 570.464 595.942, 559.868 582.980, 551.240 567 C 542.794 551.357, 545.164 547.905, 554.500 562.253 C 571.825 588.879, 595.226 611.831, 613.363 619.988 C 633.333 628.969, 664.989 630.479, 686.126 623.458 L 690.795 621.907 689.296 616.704 C 688.400 613.592, 687.591 605.239, 687.284 595.924 C 686.736 579.332, 688.345 568.943, 692.883 559.772 L 694.744 556.010 688.122 556.483 C 684.480 556.743, 673.625 557.201, 664 557.501 C 654.375 557.800, 643.688 558.322, 640.250 558.661 C 632.841 559.390, 631.611 557.509, 637.624 554.642 C 639.617 553.692, 641.079 552.751, 640.874 552.552 C 640.668 552.352, 637.575 550.046, 634 547.428 C 624.404 540.399, 614.445 530.487, 608.452 522 C 605.539 517.875, 599.721 510.450, 595.524 505.500 C 591.326 500.550, 585.415 493.575, 582.387 490 C 568.668 473.802, 562.439 453.359, 563.153 426.879 C 563.344 419.795, 563.500 414.019, 563.500 414.043 C 563.500 414.067, 559.225 416.931, 554 420.407 M 394.768 514.733 C 373.443 538.819, 358.024 550.191, 342.122 553.562 C 334.759 555.122, 312.104 555.416, 305 554.043 C 302.525 553.565, 300.421 553.251, 300.324 553.346 C 300.227 553.441, 301.096 556.215, 302.256 559.509 C 306.621 571.918, 305.529 595.974, 299.957 610.109 L 298.008 615.053 300.754 616.115 C 311.082 620.108, 318.731 621.326, 333.500 621.326 C 350.719 621.326, 359.152 619.569, 371.704 613.367 C 379.840 609.347, 379.567 609.846, 380.454 597.334 C 381.989 575.674, 391.875 536.553, 402.047 511.886 C 403.680 507.925, 404.856 504.522, 404.659 504.325 C 404.461 504.128, 400.011 508.812, 394.768 514.733 M 771.781 519.327 C 769.254 521.669, 761.458 531.934, 754.680 541.844 L 751.025 547.187 753.643 551.654 C 755.975 555.632, 756.206 556.877, 755.764 563.060 C 755.490 566.877, 755.450 570, 755.673 570 C 761.859 570, 778.777 551.607, 788.032 534.819 C 791.745 528.084, 791.720 527.067, 787.750 523.347 C 780.328 516.393, 776.096 515.328, 771.781 519.327 M 210.765 523.060 C 204.062 526.600, 204.599 530.577, 213.616 544.163 C 218.434 551.423, 226.657 561, 228.072 561 C 228.560 561, 229.847 559.260, 230.932 557.134 C 232.017 555.007, 234.084 551.865, 235.525 550.152 C 238.700 546.379, 238.526 545.645, 231.715 534.114 C 223.577 520.336, 219.750 518.317, 210.765 523.060 M 251.500 546.286 C 244.029 549.877, 240.038 553.741, 236.860 560.457 C 231.837 571.075, 234.390 581.047, 243.310 585.661 C 245.920 587.010, 246.449 586.927, 250.563 584.516 C 256.091 581.277, 256.274 578.955, 251.250 575.832 L 247.500 573.500 250.184 573.190 C 255.092 572.623, 263.445 578.023, 262.460 581.126 C 262.015 582.527, 263.155 583.558, 267.696 585.864 C 274.451 589.294, 276.908 591.768, 283.746 602.029 C 290.512 612.183, 291.475 612.916, 293.334 609.321 C 299.571 597.254, 301.581 574.666, 297.607 561.298 C 295.332 553.644, 294.749 553.132, 283.031 548.482 C 270.273 543.419, 259.087 542.640, 251.500 546.286 M 723.870 545.060 C 712.548 547.739, 699.465 555.750, 696.993 561.517 C 690.916 575.693, 690.251 612, 696.067 612 C 697.120 612, 704.172 603.364, 707.500 598 C 709.036 595.525, 711.577 592.022, 713.146 590.215 C 715.320 587.713, 716 585.919, 716 582.688 C 716 577.650, 717.801 574.739, 721.992 573.003 C 726.089 571.306, 726.603 572.132, 724.644 577.261 C 721.235 586.188, 722.655 587.171, 733.636 583.488 C 745.304 579.574, 747.460 577.568, 749.557 568.670 C 751.641 559.833, 751.132 557.262, 746.225 551.818 C 740.005 544.920, 733.180 542.857, 723.870 545.060 M 224.209 568.090 C 211.099 570.775, 209.714 593.335, 222.309 599.053 C 230.174 602.624, 238.592 601.303, 243.851 595.673 L 246.202 593.156 242.851 591.464 C 235.659 587.832, 231.167 581.706, 228.729 572.208 C 227.517 567.482, 227.455 567.426, 224.209 568.090 M 764 572.341 C 762.625 573.072, 758.044 576.163, 753.820 579.210 C 749.596 582.256, 743.858 585.569, 741.070 586.572 C 735.121 588.711, 735.073 588.874, 739.044 593.397 C 747.319 602.822, 764.868 604.635, 772.169 596.819 C 778.740 589.785, 778.860 579.718, 772.441 574.082 C 768.511 570.632, 767.578 570.439, 764 572.341 M 257 588.728 C 255.742 590.326, 255.061 592.292, 255.355 593.478 C 260.262 613.293, 264.683 624.082, 271.859 633.755 C 277.496 641.353, 279.763 642.187, 285.869 638.907 C 294.005 634.537, 293.906 633.752, 282.933 615.527 C 279.282 609.462, 275.325 602.600, 274.141 600.278 C 271.400 594.902, 266.500 589.310, 262.901 587.449 C 259.298 585.586, 259.507 585.540, 257 588.728 M 713.545 601.467 C 709.912 607.165, 703.578 616.423, 699.470 622.041 C 695.361 627.659, 692 632.833, 692 633.539 C 692 636.928, 702.286 642.647, 706.486 641.593 C 711.284 640.389, 720.316 625.430, 727.976 606 C 730.253 600.225, 732.363 594.938, 732.665 594.250 C 733.053 593.366, 732.032 593, 729.172 593 C 726.949 593, 724.009 592.574, 722.640 592.053 C 720.278 591.155, 719.809 591.641, 713.545 601.467 M 245.227 599.982 C 241.210 604.661, 236.501 607, 231.099 607 C 226.150 607, 226.068 607.608, 230.264 613.172 C 236.234 621.086, 246.068 624.085, 252.730 620.023 C 255.603 618.271, 255.892 617.690, 255.344 614.777 C 254.301 609.233, 249.954 595.995, 249.206 596.085 C 248.818 596.131, 247.027 597.885, 245.227 599.982 M 734.465 607.110 L 731.554 616.219 734.281 618.565 C 742.011 625.215, 756.497 621.675, 761.551 611.901 C 763.534 608.066, 763.688 608.225, 757.250 607.463 C 750.184 606.627, 744.304 604.172, 741 600.678 C 737.571 597.052, 737.729 596.896, 734.465 607.110 M 669.500 668.043 C 645.897 671.703, 623 683.681, 623 692.368 C 623 694.366, 623.230 696, 623.511 696 C 623.792 696, 628.404 695.280, 633.761 694.400 C 655.661 690.803, 677.742 695.601, 695.840 707.891 C 709.494 717.164, 717.960 728.514, 731.199 755.301 C 746.086 785.423, 755.477 795.779, 773.580 802.037 C 800.048 811.187, 837.942 794.265, 837.994 773.272 C 837.999 771.334, 837.464 771.626, 833.873 775.522 C 823.809 786.440, 806.867 789.797, 794.460 783.331 C 779.564 775.568, 774.313 767.533, 768.099 743 C 756.842 698.556, 743.603 681.546, 712 670.927 C 701.487 667.395, 682.144 666.082, 669.500 668.043 M 382.899 698.275 C 363.540 724.470, 353.785 752.806, 357.347 772.500 C 362.331 800.062, 381.022 820.542, 410.723 830.986 C 421.783 834.875, 424.481 837.161, 419.490 838.413 C 418.055 838.773, 415.405 838.791, 413.602 838.453 C 410.455 837.863, 410.136 838.112, 405.666 844.669 C 398.210 855.606, 387.198 885.630, 389.731 888.118 C 393.308 891.631, 425.995 891.533, 439.500 887.968 C 453.738 884.210, 454.865 883.207, 458.568 871 C 460.319 865.225, 463.211 856.675, 464.993 852 C 471.821 834.092, 473.605 822.186, 470.457 815.550 C 469.608 813.761, 464.095 807.143, 458.207 800.844 C 452.318 794.545, 446.600 787.683, 445.500 785.596 L 443.500 781.800 451.991 773.974 C 456.661 769.670, 460.261 765.960, 459.991 765.730 C 459.721 765.501, 455 762.697, 449.500 759.499 C 421.929 743.471, 404.623 725.746, 393.151 701.788 C 390.593 696.446, 388.275 692.070, 388 692.063 C 387.725 692.056, 385.430 694.851, 382.899 698.275 M 632.718 699.537 C 623.048 701.460, 622 701.903, 622 704.067 C 622 705.721, 622.725 706, 627.032 706 C 638.455 706, 652.309 713.441, 664.572 726.163 C 676.735 738.781, 685.447 754.034, 696.464 782 C 705.584 805.150, 709.075 811.154, 719.460 821.547 C 733.762 835.861, 750.881 843.057, 771 843.212 C 795.797 843.404, 820.376 829.205, 830.392 808.902 C 833.359 802.887, 838.403 789, 837.620 789 C 837.512 789, 835.097 791.184, 832.254 793.854 C 812.829 812.091, 780.465 814.601, 758.337 799.587 C 746.588 791.616, 739.414 781.860, 727.018 757 C 713.328 729.545, 706.044 720.097, 691.319 710.695 C 673.631 699.403, 653.074 695.488, 632.718 699.537 M 620.607 711.582 C 619.357 714.840, 620.135 715.568, 626.081 716.698 C 647.610 720.790, 659.435 741.055, 671.478 794.500 C 678.400 825.219, 684.829 835.377, 706.541 849.899 C 718.987 858.223, 727.318 860.449, 746 860.439 C 766.528 860.429, 778.567 857.410, 784.827 850.701 L 787.154 848.208 776.827 848.732 C 760.576 849.556, 746.070 845.770, 730.624 836.672 C 712.923 826.246, 703.814 813.496, 691.498 781.906 C 684.298 763.439, 675.249 746.016, 668.371 737.378 C 662.602 730.134, 648.917 718.076, 643 715.025 C 634.101 710.437, 621.774 708.541, 620.607 711.582 M 447.500 891.188 C 435.473 895.960, 410.985 897.551, 396.569 894.497 C 392.757 893.689, 389.397 893.270, 389.102 893.565 C 388.130 894.537, 388.770 915.432, 389.900 919.629 C 392.560 929.505, 398.544 931.962, 415.220 930.023 C 434.412 927.792, 447.515 921.658, 452.719 912.469 C 455.698 907.210, 456.035 888.642, 453.143 889.102 C 452.789 889.159, 450.250 890.097, 447.500 891.188 M 595 898.933 C 580.346 906.658, 561.681 910.412, 541.250 909.744 C 523.828 909.174, 525.138 908.269, 527.468 919.266 C 529.403 928.396, 533.437 937.063, 537.647 941.137 C 541.065 944.445, 541.263 944.499, 549.811 944.428 C 580.048 944.177, 604.870 923.625, 601.564 901.578 C 600.805 896.515, 600.115 896.237, 595 898.933 M 195.250 961.662 C 193.218 962.482, 193.822 964.719, 196.250 965.370 C 199.202 966.161, 773.357 966.184, 775.418 965.393 C 777.457 964.611, 777.457 962.389, 775.418 961.607 C 773.525 960.881, 197.051 960.936, 195.250 961.662 M 397 988.090 C 364.028 989.058, 349.674 990.795, 355.566 993.102 C 356.630 993.519, 418.700 993.859, 493.500 993.859 C 617.463 993.859, 635.378 993.587, 632.405 991.751 C 625.949 987.761, 483.588 985.547, 397 988.090" stroke="none" fill="#1a1a1a" fill-rule="evenodd"/>
</svg>