<svg xmlns="http://www.w3.org/2000/svg" width="1024" height="1024" viewBox="0 0 1024 1024" version="1.1">
	<path d="M 326.436 5.358 C 322.127 7.311, 316.788 13.908, 314.606 19.974 C 306.419 42.743, 316.288 94.452, 332.302 112.691 C 335.723 116.587, 335.414 117.165, 328.715 119.402 C 322.565 121.456, 321.187 121.416, 314.722 118.997 C 306.968 116.096, 303.778 112.367, 303.212 105.543 C 301.750 87.910, 288.075 105.070, 288.016 124.614 C 287.936 150.642, 305.951 170.835, 336.585 179.054 L 344.671 181.224 342.325 187.685 C 337.796 200.163, 336.831 210.715, 337.175 244 C 337.576 282.748, 335.935 290.465, 325.916 296.957 C 315.630 303.623, 307.450 315.701, 304.386 328.750 C 302.844 335.316, 302.816 354.185, 304.342 358 C 304.786 359.110, 302.805 360.532, 296.721 363.472 C 272.899 374.983, 259.018 401.051, 262.229 428.245 C 263.046 435.171, 262.939 436.282, 261.210 438.745 C 256.238 445.832, 255.780 457.263, 260.151 465.153 C 262.784 469.905, 268.212 473.218, 276.611 475.201 L 281.722 476.407 283.796 487.454 L 285.870 498.500 281.185 502.458 C 268.748 512.965, 262.821 521.779, 259.305 535 C 257.067 543.410, 257.134 558.274, 259.449 567 C 266.185 592.397, 292.523 616.847, 319.971 623.183 C 324.593 624.250, 325.239 624.751, 326.938 628.594 C 331.635 639.210, 344.456 636.239, 347.363 623.860 C 347.948 621.368, 348.391 621.191, 355.242 620.722 C 359.234 620.448, 363.576 619.879, 364.890 619.459 C 367.159 618.732, 367.249 618.866, 366.665 622.097 C 359.153 663.627, 362.659 698.370, 377.403 728.500 L 383.764 741.500 384.360 753 C 385.880 782.339, 395.172 810.509, 411.392 834.951 C 415.799 841.592, 417 844.236, 417 847.302 C 417 853.328, 411.826 869.774, 399.792 902 C 374.198 970.535, 373.453 975.383, 387.103 984.558 C 398.067 991.929, 425.194 995.178, 448.594 991.924 C 472.597 988.585, 478.731 980.830, 486.899 943.500 C 488.584 935.800, 491.741 921.384, 493.916 911.464 C 496.090 901.544, 500.149 884.130, 502.935 872.766 C 509.002 848.015, 509.242 843.280, 505.104 829.839 C 501.180 817.089, 500.404 799.997, 503.750 800.004 C 505.015 800.006, 506.418 802.345, 508.817 808.451 C 513.498 820.367, 524.041 835.730, 534.916 846.479 C 545.196 856.641, 545.307 856.980, 542.490 869.688 C 539.934 881.221, 540.258 880.032, 518.932 956 C 512.559 978.702, 511.705 986.884, 515.177 991.976 C 528.045 1010.849, 593.121 1010.864, 609.269 991.999 C 615.841 984.321, 617.796 976.106, 628.433 911.500 C 638.502 850.341, 638.508 850.167, 631.372 830.500 C 624.915 812.704, 625.657 794.390, 633.619 775 C 635.539 770.325, 639.363 760.992, 642.117 754.260 C 646.682 743.099, 649.997 731.627, 651.521 721.716 L 652.103 717.931 656.968 720.579 C 667.760 726.453, 674.071 740.040, 674.158 757.590 C 674.214 768.818, 673.542 772.831, 667.980 794.500 C 662.566 815.588, 661.656 822.618, 662.253 838.703 C 663.465 871.382, 677.542 894.938, 705.371 910.861 C 735.809 928.276, 779.794 927.154, 807.626 908.254 C 826.563 895.394, 844.035 864.156, 839.038 852.092 C 837.292 847.876, 835.675 848.183, 829.399 853.919 C 821.453 861.181, 813.868 861.839, 804.752 856.058 C 797.462 851.434, 794.478 844.229, 794.582 831.500 C 794.669 820.887, 795.480 817.028, 802.042 796 C 818.738 742.504, 820.018 709.311, 806.649 676.521 C 797.165 653.257, 776.673 632.796, 754.188 624.137 C 721.527 611.560, 682.120 618.798, 660.042 641.430 C 657.590 643.943, 655.308 646, 654.972 646 C 654.636 646, 654.269 641.388, 654.158 635.750 C 653.648 609.972, 650.300 579.741, 645.594 558.429 C 644.266 552.418, 643.255 547.422, 643.346 547.327 C 643.437 547.233, 646.434 547.844, 650.006 548.687 C 673.323 554.188, 703.273 533.140, 703.455 511.125 C 703.513 504.202, 701.473 502.436, 697.286 505.783 C 691.580 510.345, 689.981 511.193, 686.099 511.714 C 676.746 512.968, 672.995 508.889, 673.028 497.500 C 673.049 490.091, 673.261 488.961, 677.448 474 C 682.087 457.425, 681.740 437.744, 676.502 420.340 C 675.765 417.891, 675.463 416.043, 675.831 416.233 C 690.454 423.786, 696.697 425.448, 707.987 424.795 C 727.192 423.683, 742.723 408.502, 743.806 389.782 C 744.454 378.601, 742.391 376.426, 736.882 382.480 C 722.383 398.413, 704.274 387.577, 703.168 362.307 C 702.670 350.908, 703.571 346.072, 710.449 323.245 C 723.496 279.941, 725.646 256.751, 719.441 226.250 C 714.314 201.050, 697.573 166.382, 682.014 148.744 L 677.819 143.987 680.802 136.744 C 700.953 87.821, 682.159 8.902, 650.384 9.010 C 639.488 9.047, 619.171 27.534, 602.960 52.162 L 597.259 60.825 591.879 55.310 C 583.298 46.512, 574.379 40.238, 561.500 33.942 C 510.316 8.917, 445.717 14.043, 402.157 46.585 L 394.814 52.070 390.657 47.312 C 362.990 15.644, 349.314 4.954, 335.598 4.273 C 331.902 4.089, 328.293 4.517, 326.436 5.358 M 327.774 14.963 C 322.224 19.329, 320.518 25.936, 320.535 43 C 320.552 60.164, 322.041 69.281, 327.230 84 C 331.856 97.122, 340.030 112, 342.612 112 C 345.483 112, 358.387 98.049, 368.807 83.681 C 375.025 75.106, 382.082 65.901, 384.487 63.225 L 388.861 58.360 375.573 43.411 C 361.389 27.456, 352.522 19.471, 344.554 15.478 C 338.350 12.370, 331.344 12.155, 327.774 14.963 M 643.501 20.196 C 636.505 23.882, 621.094 40.430, 612.144 53.865 C 595.242 79.236, 587.304 99.485, 584.931 123.280 C 583.603 136.598, 582.857 138.588, 580.755 134.421 C 579.944 132.815, 578.978 130.237, 578.607 128.693 C 577.789 125.284, 577.208 125.399, 564.485 131.496 C 553.381 136.817, 538.364 146.700, 522.310 159.252 C 497.409 178.722, 480.830 186.032, 461.685 185.985 C 451.275 185.959, 450.007 182.673, 458.500 177.729 C 468.508 171.903, 471.315 167.875, 475.510 153.322 C 476.908 148.470, 478.316 143.648, 478.639 142.606 C 478.999 141.445, 476.378 143.123, 471.863 146.942 C 439.912 173.973, 398.304 187.583, 360.787 183.275 L 353.074 182.389 351.030 187.444 C 346.299 199.146, 345.532 206.503, 345.765 238 C 345.982 267.299, 344.867 281.644, 341.948 287.097 C 340.730 289.372, 340.717 289.371, 347.856 287.599 C 350.960 286.828, 355.185 285.908, 357.244 285.555 C 360.833 284.938, 360.929 284.820, 359.557 282.706 C 355.397 276.296, 355.541 257.136, 359.827 246.567 C 364.361 235.390, 371.579 232.058, 378.362 238.013 C 387.006 245.603, 388.288 265.253, 381.020 278.750 C 378.237 283.917, 378.227 284, 380.346 284.001 C 387.221 284.004, 405.962 286.396, 415 288.425 C 442.078 294.503, 457.937 304.933, 467.355 322.856 C 472.323 332.311, 471.563 333.879, 465.702 326.262 C 448.435 303.823, 419.529 292.696, 378.500 292.695 C 358.716 292.695, 349.423 294.268, 338.234 299.511 C 317.743 309.114, 306.983 331.528, 311.573 355.048 C 312.065 357.571, 312.138 357.589, 318.785 356.843 C 344.209 353.992, 374.401 369.493, 384.338 390.500 C 385.899 393.800, 387.531 397.175, 387.964 398 C 388.602 399.215, 390.915 399.469, 400.126 399.338 C 420.784 399.043, 437.775 392.256, 451.250 378.915 C 459.480 370.768, 460.172 369.540, 457.005 368.712 C 454.440 368.041, 453.429 365.393, 455.011 363.487 C 458.969 358.717, 474.708 367.058, 473.794 373.441 C 473.452 375.836, 469.629 376.767, 467.475 374.979 C 466.325 374.025, 464.563 375.373, 458.098 382.152 C 453.720 386.743, 447.690 392.075, 444.699 394 C 439.271 397.494, 439.251 397.524, 434.017 411 C 431.134 418.425, 427.719 426.434, 426.431 428.798 C 423.683 433.838, 424.402 434.553, 431.419 433.762 C 438.061 433.013, 449.476 427.261, 460.340 419.187 C 470.829 411.393, 474.579 409.246, 475.716 410.383 C 476.106 410.772, 475.903 411.926, 475.266 412.946 C 473.923 415.096, 475.528 415.060, 500.431 412.383 C 558.661 406.123, 602.286 377.262, 626.469 329 C 648.596 284.840, 653.646 239.909, 641.398 196.164 C 639.703 190.109, 639.500 189.846, 636.812 190.241 C 635.265 190.468, 634 190.454, 634 190.209 C 634 189.965, 638.866 184.703, 644.814 178.516 C 660.694 161.997, 667.908 150.164, 674.506 129.813 C 684.330 99.514, 682.672 64.075, 670.202 37.794 C 661.505 19.465, 654.122 14.599, 643.501 20.196 M 467.500 28.583 C 427.445 34.768, 401.324 51.740, 376.513 87.707 C 351.775 123.566, 325.504 137.210, 306.182 124.234 C 303.911 122.709, 300.976 120.001, 299.660 118.217 L 297.266 114.972 296.644 118.736 C 291.149 151.981, 323.441 175.243, 375 175.179 C 412.502 175.132, 443.986 161.910, 473.466 133.825 C 481.948 125.745, 484.257 122.860, 487.477 116.325 C 494.502 102.066, 509.103 90.179, 526.678 84.414 C 540.098 80.011, 540.489 82.114, 527.500 88.837 C 500.501 102.812, 494.802 110.111, 486.007 141.973 C 480.878 160.556, 476.472 171.804, 472.784 175.730 C 470.247 178.431, 470.448 178.455, 478.356 176.412 C 488.004 173.920, 500.459 166.877, 513.500 156.542 C 531.128 142.571, 547.170 131.998, 562.003 124.574 C 569.226 120.958, 575.686 118, 576.358 118 C 577.135 118, 578.174 114.252, 579.215 107.691 C 581.041 96.182, 583.482 88.242, 588.722 76.780 L 592.264 69.031 588.274 63.747 C 568.711 37.835, 512.873 21.578, 467.500 28.583 M 642.611 61.087 C 622.522 83.432, 607.596 125.730, 610.438 152.265 C 611.848 165.436, 614.679 163.757, 616.122 148.894 C 619.007 119.167, 628.085 93.598, 643.242 72.500 C 650.477 62.431, 651.741 59.598, 649.960 57.452 C 648.154 55.276, 647.581 55.560, 642.611 61.087 M 454.500 59.971 C 422.175 63.776, 405.333 74.654, 385.565 104.500 C 367.443 131.859, 352.881 143.373, 336.289 143.461 C 332.281 143.483, 329.001 143.849, 329 144.275 C 328.999 146.020, 334.951 147.162, 342.014 146.773 C 358.627 145.856, 371.520 135.556, 389.140 109.124 C 401.458 90.647, 404.761 86.769, 413.500 80.525 C 429.708 68.946, 450.199 63.549, 475.705 64.141 C 489.479 64.460, 491.537 63.831, 484.018 61.598 C 477.495 59.661, 463.630 58.897, 454.500 59.971 M 671.434 156.761 C 667.308 163.888, 663.481 168.671, 654.776 177.581 L 646.881 185.662 649.976 196.081 C 661.689 235.504, 657.999 278.257, 639.237 320.500 C 637.038 325.450, 632.922 334.736, 630.091 341.136 C 622.469 358.361, 619.659 371.606, 619.619 390.500 C 619.580 408.721, 621.078 417.081, 628.489 440 C 635.033 460.235, 636.336 466.679, 635.846 476.384 C 635.425 484.717, 633.482 488.681, 632.661 482.880 C 630.557 468.009, 629.207 462.339, 624.003 446.509 C 617.172 425.732, 615.534 419.497, 614.063 408.678 C 612.264 395.438, 612.970 374.937, 615.584 364.520 C 615.934 363.125, 611.747 366.615, 604.187 374.019 L 592.236 385.723 592.080 396.611 C 591.655 426.238, 597.062 446.944, 612.652 475.392 C 626.288 500.276, 630.875 510.303, 639.462 534 C 641.326 539.144, 647.484 541.166, 659.745 540.660 C 674.155 540.066, 686.458 532.845, 692.796 521.260 L 695.092 517.063 691.578 518.532 C 684.695 521.408, 674.273 519.404, 669.776 514.342 C 663.916 507.743, 663.572 495.603, 668.698 476.373 C 675.148 452.179, 674.108 438.819, 662.982 402.923 C 657.147 384.099, 653.738 370.581, 654.215 368.167 C 654.396 367.250, 655.818 370.100, 657.375 374.500 C 666.321 399.783, 676.408 411.072, 694.103 415.605 C 711.916 420.168, 730.803 410.883, 735.456 395.274 L 736.120 393.048 731.810 395.512 C 721.551 401.377, 708.284 397.587, 701.417 386.829 C 692.076 372.192, 692.572 355.070, 703.373 319.301 C 715.125 280.386, 717.254 258.581, 711.994 231 C 707.281 206.285, 692.247 173.474, 677.747 156.261 L 674.177 152.022 671.434 156.761 M 531.500 172.354 C 528.300 174.800, 530.633 177.148, 537.693 178.588 C 547.778 180.645, 555.092 185.299, 560.221 192.923 C 564.713 199.600, 567.034 201.924, 568.606 201.321 C 572.461 199.842, 566.966 186.989, 559.563 180.165 C 551.465 172.701, 536.496 168.534, 531.500 172.354 M 363.743 195.529 C 358.257 199.256, 355.330 206, 359.197 206 C 359.791 206, 362.292 204.142, 364.755 201.872 C 369.113 197.854, 369.378 197.759, 374.673 198.306 C 379.057 198.758, 380.231 198.561, 380.719 197.289 C 382.513 192.615, 369.948 191.312, 363.743 195.529 M 671.005 206.738 C 671.002 207.419, 672.637 211.919, 674.638 216.738 C 691.067 256.311, 692.349 281.164, 679.938 319.496 C 674.946 334.915, 674.138 338.651, 676.053 337.467 C 677.186 336.767, 680.228 330.293, 685.461 317.444 C 696.305 290.821, 696.644 258.045, 686.345 232.170 C 681.915 221.041, 671.020 202.979, 671.005 206.738 M 524.559 236.541 C 513.772 240.249, 506 255.590, 506 273.173 C 506 303.024, 532.791 309.579, 543.230 282.281 C 548.485 268.539, 548.905 255.924, 544.423 246.479 C 542.498 242.422, 535.733 236.032, 533.247 235.923 C 532.286 235.881, 530.795 235.708, 529.934 235.539 C 529.073 235.370, 526.654 235.820, 524.559 236.541 M 515.989 254.250 C 512.408 260.124, 514.030 266.009, 519.225 265.985 C 523.060 265.967, 524.286 265.288, 525.850 262.316 C 530.236 253.984, 520.838 246.297, 515.989 254.250 M 328.013 316.485 C 325.136 319.951, 325.539 333.396, 328.611 336.468 C 333.137 340.994, 338 335.924, 338 326.680 C 338 318.934, 331.493 312.292, 328.013 316.485 M 408.215 322.665 C 400.959 326.241, 393.412 337.243, 395.704 340.905 C 398.069 344.685, 401.738 343.440, 409.055 336.377 C 417.091 328.619, 418.434 325.579, 415.040 322.831 C 412.321 320.630, 412.343 320.630, 408.215 322.665 M 313.402 365.420 C 293.888 369.875, 277.516 385.799, 271.245 406.427 C 269.124 413.402, 269.240 428.079, 271.467 434.419 L 273.194 439.337 269.347 442.567 C 265.759 445.579, 265.501 446.157, 265.518 451.148 C 265.543 458.294, 268.033 463.080, 273.286 466.075 C 281.287 470.637, 294.430 468.714, 300.405 462.106 C 303.163 459.057, 305.616 459.492, 310.652 463.925 C 321.497 473.471, 335.773 473.385, 349.862 463.690 C 356.153 459.361, 355.808 459.411, 360.954 462.093 C 385.276 474.770, 406.976 442.809, 386.915 423.857 C 382.066 419.276, 382 419.130, 382 413.075 C 382 383.273, 345.691 358.049, 313.402 365.420 M 579 394.600 C 553.493 411.060, 524.788 419.421, 485 421.981 L 467.500 423.107 462 427.399 C 458.975 429.760, 454.632 432.758, 452.348 434.062 C 448.700 436.144, 447.817 437.405, 445.067 444.466 C 443.345 448.885, 438.347 459.250, 433.959 467.500 C 402.889 525.913, 390.243 556.034, 380.637 594.500 C 362.883 665.599, 369.680 714.685, 402.097 749.471 C 421.977 770.803, 457.268 786.311, 499.866 792.433 C 504.089 793.040, 504.212 792.982, 503.631 790.667 C 500.046 776.382, 500.322 751, 504.063 751 C 505.903 751, 506.978 755.212, 508.509 768.424 C 512.321 801.315, 521.172 820.345, 543.750 844.197 C 554.827 855.898, 554.828 855.875, 541.159 905 C 529.394 947.283, 528.944 949.280, 530.847 950.783 C 539.884 957.918, 582.366 961.323, 602.734 956.544 C 614.627 953.754, 612.239 961.549, 625.727 881.500 C 629.637 858.293, 629.402 847.046, 624.754 835 C 619.931 822.499, 619.051 818.267, 619.038 807.500 C 619.023 796.097, 621.766 782.735, 626.453 771.369 C 638.298 742.645, 640.359 737.014, 642.078 728.687 C 643.121 723.634, 643.980 718.481, 643.987 717.236 L 644 714.972 640.249 717.454 C 625.546 727.184, 592.920 727.750, 573.500 718.611 C 564.252 714.260, 560.678 711.081, 557.301 704.204 C 553.682 696.835, 553.729 689.732, 557.600 659 C 560.122 638.983, 560.431 633.410, 560.402 608.500 C 560.366 577.557, 559.615 570.410, 553.531 543.103 C 549.174 523.548, 548.801 517, 552.044 517 C 556.060 517, 565.233 554.494, 568.063 582.472 C 569.601 597.681, 568.753 636.111, 566.520 652.406 C 564.644 666.090, 564.084 664.971, 574.378 668.082 C 596.766 674.848, 624.289 676.256, 640.731 671.476 L 646.259 669.869 645.713 639.684 C 644.432 568.920, 636.099 536.309, 604.272 477.500 C 595.317 460.955, 590.645 449.105, 588.107 436.500 C 585.987 425.974, 583.450 397.655, 584.252 393.462 C 584.511 392.108, 584.673 391.012, 584.611 391.026 C 584.550 391.040, 582.025 392.648, 579 394.600 M 424.964 403.444 C 419.548 405.440, 408.444 407.072, 398.755 407.297 L 390.010 407.500 390.005 411.563 C 390.001 414.768, 390.628 416.227, 392.974 418.475 C 396.039 421.412, 402 434.260, 402 437.930 C 402 440.523, 403.967 440.567, 408.836 438.083 C 412.992 435.964, 419.697 427.156, 423.097 419.354 C 427.016 410.359, 429.988 402, 429.241 402.070 C 428.834 402.109, 426.909 402.727, 424.964 403.444 M 362.516 434.974 C 360.941 437.522, 353.522 441.151, 348.725 441.719 C 343.060 442.390, 344.517 443.803, 351 443.926 C 356.244 444.026, 366.036 436.703, 363.736 434.402 C 363.441 434.108, 362.892 434.365, 362.516 434.974 M 282 440.449 C 282 442.345, 287.996 446.878, 292.748 448.573 C 300.559 451.361, 311.995 449.176, 312.823 444.738 C 313.123 443.129, 312.423 443.033, 304.714 443.625 C 296.969 444.221, 295.806 444.058, 290.518 441.637 C 283.982 438.645, 282 438.368, 282 440.449 M 415.244 442.073 C 413.515 443.618, 409.816 445.694, 407.023 446.685 C 402.597 448.257, 401.821 448.951, 400.976 452.090 C 399.161 458.830, 391.458 467.355, 384.944 469.831 C 382.547 470.743, 382.114 472.104, 377.598 492.966 C 374.958 505.157, 373.048 515.381, 373.353 515.686 C 375.497 517.831, 387.192 510.287, 399.331 498.930 C 411.276 487.754, 422.744 472.239, 429.953 457.500 C 438.248 440.539, 438.180 441.432, 431.151 441.831 C 427.599 442.032, 423.968 441.596, 421.855 440.713 C 418.521 439.320, 418.267 439.372, 415.244 442.073 M 301.115 472.053 C 299.803 473.145, 296.766 474.534, 294.365 475.138 C 291.964 475.743, 290 476.596, 290 477.034 C 290 477.998, 302.912 489.451, 303.369 488.893 C 305.152 486.714, 311.997 475.921, 311.988 475.305 C 311.974 474.415, 305.477 469.980, 304.264 470.033 C 303.844 470.052, 302.427 470.960, 301.115 472.053 M 356.600 470.838 C 356.256 471.394, 359.465 474.367, 363.731 477.444 L 371.487 483.037 372.724 478.269 C 373.405 475.646, 373.970 473.215, 373.981 472.866 C 373.991 472.518, 371.188 472, 367.750 471.715 C 364.313 471.431, 360.538 470.889, 359.363 470.512 C 358.187 470.135, 356.944 470.281, 356.600 470.838 M 345.106 475.715 C 341.654 477.346, 337.087 478.486, 332.421 478.881 L 325.129 479.500 331.689 484.860 L 338.249 490.221 340.602 487.360 C 348.153 478.181, 352.034 473.010, 351.316 473.083 C 350.867 473.129, 348.073 474.313, 345.106 475.715 M 347.288 484.966 L 341.075 492.822 347.788 498.600 C 351.479 501.778, 355.329 505.075, 356.342 505.927 C 358.052 507.365, 358.466 507.155, 362.149 502.988 C 367.445 496.994, 369.992 492.930, 369.996 490.469 C 370 488.556, 356.396 476.916, 354.321 477.055 C 353.869 477.086, 350.704 480.646, 347.288 484.966 M 310.592 484.750 L 306.198 491.500 313.646 499 C 317.742 503.125, 321.461 507.102, 321.910 507.838 C 322.501 508.806, 324.480 507.032, 329.048 501.441 L 335.369 493.706 332.792 491.603 C 331.375 490.446, 327.080 486.913, 323.247 483.750 C 319.414 480.587, 315.987 478, 315.632 478 C 315.276 478, 313.009 481.038, 310.592 484.750 M 292.440 490.596 C 293.417 495.928, 293.538 496.084, 296.474 495.797 C 300.793 495.373, 300.400 492.502, 295.467 488.429 L 291.433 485.099 292.440 490.596 M 331.716 504.235 C 324.089 513.959, 324.086 513.932, 333.825 523.264 L 339.840 529.028 347.555 519.935 C 353.966 512.379, 355.036 510.633, 353.885 509.609 C 353.123 508.931, 349.282 505.585, 345.349 502.173 L 338.198 495.969 331.716 504.235 M 398.287 509.948 C 389.654 518.220, 381.944 522.795, 375.089 523.715 C 372.557 524.055, 370.880 524.860, 370.588 525.878 C 370.333 526.770, 365.773 546.400, 360.455 569.500 C 355.137 592.600, 350.541 611.906, 350.240 612.403 C 349.272 614, 361.507 612.301, 365.417 610.295 L 369.170 608.369 373.499 591.435 C 380.618 563.582, 389.518 538.767, 401.362 513.750 C 404.421 507.288, 406.829 502.018, 406.712 502.039 C 406.596 502.061, 402.804 505.620, 398.287 509.948 M 364.110 506.682 C 361.114 510.318, 361.101 510.382, 363.102 511.784 C 365.538 513.490, 365.395 513.651, 366.685 507.750 C 367.931 502.045, 367.932 502.046, 364.110 506.682 M 298.061 510.750 C 293.484 534.790, 296.688 553.704, 308.394 571.750 C 313.563 579.719, 313.914 579.909, 318.034 576.976 C 328.396 569.597, 329.563 545.990, 320.720 522.637 C 318.013 515.488, 311.969 508.345, 306.539 505.878 C 299.995 502.906, 299.500 503.190, 298.061 510.750 M 287.889 507.855 C 274.997 516.031, 265.973 533.991, 266.015 551.386 C 266.077 577.221, 286.871 603.494, 314.884 613.132 C 323.389 616.058, 323.343 617.103, 315.447 600.298 L 310.185 589.096 306.342 589.597 C 304.229 589.873, 301.262 590.290, 299.750 590.524 C 295.974 591.109, 296.240 590.696, 302.037 586.976 C 306.832 583.899, 307.002 583.642, 305.572 581.622 C 300.756 574.817, 294.763 563.452, 292.326 556.500 C 289.660 548.898, 289.522 547.630, 289.539 531 C 289.554 516.588, 289.863 512.811, 291.292 509.596 C 293.520 504.582, 293.260 504.449, 287.889 507.855 M 350.169 522.811 L 342.837 531.500 350.155 538.180 C 354.180 541.855, 357.594 544.739, 357.743 544.590 C 357.892 544.442, 359.346 538.525, 360.975 531.441 L 363.937 518.562 361.794 516.281 C 358.698 512.985, 358.243 513.241, 350.169 522.811 M 332.554 530.500 C 333.785 535.656, 334.606 536.605, 335.841 534.298 C 336.735 532.626, 336.482 531.862, 334.380 529.888 L 331.837 527.500 332.554 530.500 M 336.966 538.750 C 335.153 541.038, 334.865 542.423, 335.250 547 C 335.505 550.025, 335.382 555.200, 334.978 558.500 C 334.359 563.557, 334.526 564.797, 336.041 566.392 C 337.791 568.233, 338.080 568.037, 347.008 558.937 L 356.177 549.592 348.839 542.839 C 340.495 535.162, 339.956 534.977, 336.966 538.750 M 347.598 563.901 L 340.805 570.746 345.153 574.802 C 347.986 577.444, 349.720 578.446, 350.131 577.678 C 351.045 575.971, 355.178 557.845, 354.751 557.417 C 354.552 557.219, 351.334 560.137, 347.598 563.901 M 331.431 572.217 C 331.044 573.437, 328.245 577.037, 325.211 580.217 C 322.178 583.398, 320.178 586, 320.767 586 C 322.294 586, 335.021 571.842, 334.399 570.836 C 333.472 569.337, 332.150 569.953, 331.431 572.217 M 331.244 581.798 L 324.134 589.672 333.535 599.035 C 338.706 604.184, 343.094 608.195, 343.288 607.949 C 343.802 607.292, 349.087 583.719, 348.746 583.601 C 348.588 583.545, 346.184 581.345, 343.406 578.712 L 338.354 573.924 331.244 581.798 M 321 593.126 C 321 593.401, 322.067 595.847, 323.371 598.563 C 325.467 602.925, 331.663 619.603, 333.472 625.750 C 335.023 631.017, 338.948 627.078, 341 618.196 C 341.674 615.279, 342.062 612.797, 341.863 612.681 C 341.663 612.564, 336.887 608.004, 331.250 602.547 C 325.613 597.090, 321 592.851, 321 593.126 M 702.700 627.996 C 680.269 632.724, 656.177 650.645, 654.417 663.912 L 653.708 669.255 658.604 666.455 C 661.297 664.916, 663.950 663.335, 664.500 662.944 C 665.050 662.552, 668.662 661.101, 672.526 659.718 C 709.947 646.330, 748.254 663.743, 763.806 701.210 C 773.227 723.908, 772.989 745.660, 762.813 792 C 754.544 829.649, 756.829 851.881, 770.356 865.408 C 783.451 878.503, 810.398 880.778, 820.843 869.669 L 822.882 867.500 818.012 867.842 C 806.005 868.684, 795.699 862.230, 789.750 850.141 C 786.602 843.745, 786.503 843.161, 786.609 831.519 C 786.726 818.671, 786.609 819.208, 796.807 784.839 C 811.132 736.555, 811.326 705.219, 797.484 675.259 C 780.796 639.139, 741.884 619.736, 702.700 627.996 M 685.500 661.497 C 677.425 663.017, 672.545 664.683, 664.929 668.521 C 654.657 673.697, 654.211 674.219, 653.835 681.510 C 653.651 685.082, 653.725 687.998, 654 687.991 C 654.275 687.984, 656.709 687.308, 659.409 686.489 C 684.122 678.992, 713.874 700.940, 722.072 732.713 C 726.730 750.767, 725.802 765.456, 718.023 796.801 C 711.467 823.221, 710.747 827.581, 710.728 841 C 710.682 873.433, 726.644 894.785, 756 901.560 C 766.081 903.886, 766.878 905.003, 758.450 904.988 C 734.030 904.946, 712.637 886.644, 706.417 860.472 C 702.763 845.094, 704.067 830.315, 712.021 797 C 714.713 785.725, 717.439 772.471, 718.079 767.546 C 723.179 728.297, 701.356 693.319, 671.056 692.178 C 658.312 691.698, 653.805 694.258, 652.747 702.580 C 651.797 710.052, 651.937 710.365, 656.876 711.845 C 663.268 713.760, 672.378 722.852, 676.450 731.381 C 684.315 747.856, 684.013 762.680, 675.109 797.139 C 664.371 838.694, 668.922 866.089, 690.330 888.765 C 706.855 906.269, 727.341 914.478, 754.500 914.478 C 789.330 914.478, 811.311 902.056, 826.136 873.994 C 828.261 869.971, 830 866.429, 830 866.121 C 830 865.814, 827.413 868.116, 824.250 871.237 C 802.989 892.217, 766.381 881.674, 756.031 851.589 C 750.654 835.960, 751.104 821.335, 757.932 789.815 C 766.648 749.579, 767.051 727.255, 759.446 705.968 C 747.827 673.445, 717.843 655.412, 685.500 661.497 M 563.464 675.164 C 561.711 683.145, 562.523 697.492, 564.950 701.418 C 570.497 710.395, 584.188 715.901, 603 716.722 C 631.522 717.967, 642.169 710.621, 645.084 687.686 C 645.701 682.838, 646.046 678.712, 645.851 678.518 C 645.657 678.323, 643.023 678.888, 639.999 679.772 C 635.813 680.996, 629.843 681.393, 615 681.434 C 596.236 681.485, 595.018 681.365, 582.724 678.256 C 575.698 676.479, 568.645 674.350, 567.051 673.526 C 564.184 672.044, 564.145 672.062, 563.464 675.164 M 392.419 758 C 394.973 783.610, 402.513 804.549, 418.843 831.373 C 425.062 841.588, 425.453 842.586, 425.312 847.873 C 425.075 856.768, 418.704 876.259, 402.289 918.313 C 398.550 927.894, 396.108 935.484, 396.613 935.958 C 397.996 937.254, 411.654 941.933, 420.500 944.140 C 431.851 946.974, 457.350 947.779, 469.347 945.684 C 474.213 944.835, 478.341 943.992, 478.521 943.812 C 478.701 943.632, 481.836 929.988, 485.487 913.492 C 489.139 896.997, 493.964 876.525, 496.211 868 C 501.158 849.226, 501.353 843.736, 497.472 832.500 C 495.227 826, 494.619 822.201, 494.233 812.239 C 493.787 800.727, 493.628 799.950, 491.629 799.525 C 490.458 799.276, 485.726 798.339, 481.113 797.443 C 448.512 791.106, 417.216 776.099, 398.135 757.653 L 391.771 751.500 392.419 758 M 392.189 945.483 C 389.981 950.332, 386 965.468, 386 969.020 C 386 980.338, 413.203 987.551, 443 984.134 C 464.871 981.625, 470.510 977.181, 475.338 958.652 L 476.862 952.803 472.681 953.401 C 447.482 957.005, 422.710 954.399, 401.224 945.884 C 392.512 942.431, 393.559 942.477, 392.189 945.483 M 526.504 959.250 C 522.360 971.215, 520.929 985.025, 523.458 988.636 C 527.586 994.529, 542.130 997.414, 564.324 996.740 C 595.415 995.797, 604.773 990.616, 609.472 971.746 C 610.525 967.515, 611.188 963.865, 610.944 963.634 C 610.700 963.402, 607.350 963.935, 603.500 964.816 C 598.342 965.997, 591.106 966.430, 576 966.460 C 553.565 966.504, 543.909 965.146, 533.301 960.454 C 526.835 957.595, 527.064 957.635, 526.504 959.250 M 326.512 980.876 C 322.110 981.818, 321.999 984.722, 326.333 985.535 C 332.577 986.706, 360.762 985.644, 362.202 984.183 C 363.268 983.101, 363.153 982.609, 361.559 981.433 C 359.520 979.928, 332.918 979.505, 326.512 980.876 M 631.074 982.877 C 627.822 983.786, 627.387 985.602, 630.078 987.042 C 633.050 988.632, 671.920 988.648, 674.888 987.060 C 677.706 985.552, 677.552 984.160, 674.435 982.975 C 671.585 981.892, 634.898 981.809, 631.074 982.877" stroke="none" fill="#1a1a1a" fill-rule="evenodd"/>
</svg>