<svg xmlns="http://www.w3.org/2000/svg" width="1024" height="1024" viewBox="0 0 1024 1024" version="1.1">
	<path d="M 351.697 19.913 C 341.561 31.133, 337.047 50.159, 340.052 69 C 341.516 78.182, 348.625 92.478, 354.352 97.757 L 358.847 101.900 354.311 102.581 C 343.817 104.154, 331.504 102.553, 323.437 98.566 C 319.308 96.526, 315.387 95.038, 314.723 95.259 C 314.059 95.480, 313.049 94.725, 312.478 93.581 C 311.776 92.173, 310.480 91.500, 308.470 91.500 C 304.456 91.500, 302.032 96.537, 301.283 106.435 C 299.338 132.156, 314.037 152.360, 346.684 168.840 L 352.736 171.896 349.352 183.058 C 340.563 212.049, 338.543 263.141, 345.477 281.090 C 345.940 282.289, 344.517 283.456, 339.690 285.832 C 330.807 290.205, 323.539 297.657, 319.156 306.887 C 314.684 316.304, 313.453 333.134, 316.471 343.590 C 322.331 363.888, 341.429 381.461, 361.682 385.190 L 367.865 386.328 369.542 393.170 C 377.488 425.597, 406.287 441.533, 443.375 434.025 C 449.314 432.823, 454.390 432.056, 454.655 432.322 C 454.920 432.587, 451.844 439.975, 447.818 448.739 L 440.500 464.675 430 473.942 C 408.372 493.030, 392.328 504.144, 373.249 513.258 C 363.726 517.807, 362.408 518.179, 357.915 517.583 C 353.880 517.048, 353 517.206, 353 518.466 C 353 520.395, 353.213 520.412, 345.754 517.859 C 336.582 514.718, 323.095 507.744, 311.659 500.227 L 301.602 493.617 308.930 492.382 C 339.937 487.157, 357.283 457.240, 350.106 421.365 C 344.620 393.940, 315.286 372.053, 287.090 374.345 C 246.949 377.610, 220.049 416.464, 231.482 454.666 L 233.028 459.832 226.764 465.666 C 200.458 490.167, 192.132 499.816, 184.923 514.154 C 177.070 529.771, 176.287 538.955, 182.121 547.009 C 184.826 550.743, 184.989 551.357, 183.661 552.841 C 181.090 555.717, 171.024 570.054, 169.479 573.040 C 166.884 578.058, 168.432 587.977, 171.995 589.165 C 172.577 589.359, 171.494 592.593, 169.527 596.537 C 164.828 605.957, 164.060 611.742, 166.875 616.513 L 169.009 620.129 166.600 624.315 C 162.864 630.807, 150.204 661.124, 146.474 672.509 C 134.419 709.310, 135.381 752.762, 148.886 781.465 C 159.327 803.656, 178.633 819.173, 217.366 836.505 L 235.233 844.500 234.616 857.908 C 234.277 865.283, 234 880.484, 234 891.689 C 234 907.138, 233.698 912.146, 232.750 912.407 C 232.063 912.596, 228.178 913.265, 224.119 913.895 C 209.256 916.198, 190.522 924.055, 182.196 931.478 L 177.500 935.664 162.500 937.570 C 142.072 940.165, 108.887 940.254, 97.611 937.743 C 89.011 935.828, 86.634 936.438, 87.202 940.412 C 88.408 948.854, 139.813 952.112, 166.414 945.432 C 169.016 944.779, 169.241 944.905, 168.512 946.600 C 164.980 954.814, 169.606 961.247, 181.750 965.012 C 198.897 970.328, 209.268 971.398, 243.500 971.385 C 292.416 971.366, 319.089 967.002, 328.634 957.457 C 335.447 950.643, 326.345 935.589, 310.767 927.908 L 304.395 924.765 309.987 919.133 C 320.015 909.032, 321.604 898.390, 315.029 885.366 C 306.637 868.741, 298.505 861.299, 277.694 851.200 L 263.887 844.500 264.440 786 C 264.744 753.825, 265.283 694.519, 265.637 654.208 L 266.282 580.916 268.391 582.803 C 271.796 585.848, 282.195 591.762, 293.229 596.928 C 333.324 615.697, 375.351 616.390, 400.405 598.695 L 403.310 596.643 402.666 603.071 C 399.312 636.534, 402.099 675.492, 409.121 693.307 L 411.015 698.113 408.493 706.807 C 402.689 726.805, 401.525 735.755, 401.512 760.500 C 401.501 781.472, 401.705 784.249, 403.820 792 C 406.805 802.931, 412.432 814.787, 418.536 823 L 423.367 829.500 419.579 840.500 C 415.716 851.720, 406.674 874.338, 394.126 904.165 C 386.043 923.381, 376.480 950.616, 375.484 957.258 C 373.315 971.723, 383.179 979.136, 407 980.941 C 430.267 982.704, 457.846 977.923, 470.424 969.946 C 476.253 966.249, 478.572 961.517, 483.382 943.500 C 485.291 936.350, 489.762 920.600, 493.318 908.500 C 501.341 881.193, 511.340 844.146, 513.577 833.433 C 515.258 825.384, 515.256 825.341, 512.631 814.363 C 509.735 802.250, 509.397 796.744, 511.185 790.778 C 512.284 787.108, 512.581 786.866, 515.310 787.412 C 516.927 787.735, 520.458 788, 523.156 788 C 526.958 788, 528.183 788.394, 528.598 789.750 C 536.724 816.294, 552.951 836.286, 575.802 847.906 C 578.951 849.507, 579.962 850.551, 579.573 851.797 C 579.281 852.734, 576.130 868.350, 572.572 886.500 C 569.014 904.650, 564.057 929.625, 561.557 942 C 555.161 973.655, 555.395 980.947, 563.010 987.355 C 574.551 997.066, 617.024 998.405, 644 989.908 C 658.591 985.312, 662.471 979.618, 664.586 959.695 C 666.692 939.855, 669.788 893.954, 671.113 862.909 C 672.411 832.521, 671.701 826.639, 665.683 817.926 C 664.382 816.042, 660.977 811.130, 658.117 807.012 C 648.409 793.032, 648.357 790.974, 656.938 759.931 C 659.703 749.926, 662.254 739.568, 662.606 736.914 C 663.385 731.042, 664.940 729.553, 671.799 728.113 C 691.916 723.889, 706.797 728.926, 713.615 742.268 C 719.462 753.710, 719.844 761.426, 716.443 799.500 C 712.635 842.134, 719.012 866.870, 739 887.003 C 752.030 900.128, 767.198 906.371, 784.955 905.918 C 793.375 905.703, 795.217 905.985, 800.579 908.308 C 813.462 913.889, 835.137 915.324, 849.337 911.537 C 877.663 903.982, 907.209 877.698, 915.139 853 C 917.654 845.167, 918.851 827.459, 917.089 824.165 C 914.968 820.203, 909 821.942, 909 826.523 C 909 832.438, 889.265 836.157, 877.504 832.457 C 857.141 826.053, 852.480 806.174, 862.743 769.500 C 869.461 745.494, 870.063 742.417, 870.673 729 C 872.292 693.377, 859.811 666.236, 833.794 648.803 C 816.582 637.269, 802.517 632.010, 783.304 629.922 C 743.543 625.601, 709.435 638.832, 674.605 672.086 C 664.997 681.259, 664.027 681.937, 663.544 679.820 C 663.253 678.544, 662.540 675.250, 661.959 672.500 C 660.656 666.326, 656.906 654.327, 653.991 647 C 652.788 643.975, 650.981 639.430, 649.976 636.901 L 648.148 632.302 654.324 633.753 C 663.762 635.971, 682.042 634.937, 693.500 631.538 C 734.778 619.291, 775.330 596.556, 789.644 577.635 C 801.796 561.573, 802.768 547.724, 792.345 539.133 C 788.784 536.198, 788.657 535.872, 788.885 530.281 C 789.469 515.963, 773.911 508.316, 758.526 515.360 C 751.571 518.544, 752.480 518.573, 751.049 515.117 C 748.710 509.471, 744.606 506.671, 737.961 506.191 L 731.920 505.754 703.210 519.811 C 669.116 536.503, 669.955 536.219, 667.838 531.805 C 666.966 529.987, 661.412 521.975, 655.496 514 C 643.698 498.097, 632.308 481.451, 629.503 476.015 C 627.743 472.603, 627.824 472.638, 633.354 477.692 C 652.802 495.467, 680.502 499.625, 704 488.297 C 709.744 485.528, 723 473.311, 723 470.786 C 723 469.930, 725.287 468.654, 728.750 467.577 C 745.577 462.345, 763 447.920, 763 439.221 C 763 436.302, 762.242 436.025, 753.001 435.576 C 731.511 434.530, 724.306 423.836, 726.893 396.822 C 728.304 382.090, 727.422 371.183, 723.997 361.009 C 722.980 357.990, 722.231 355.435, 722.333 355.333 C 722.435 355.231, 725.215 356.065, 728.509 357.186 C 741.629 361.650, 757.217 360.396, 770.935 353.774 C 785.061 346.955, 801.680 325.592, 800.811 315.369 C 800.390 310.408, 797.871 308.855, 794.795 311.659 C 789.479 316.504, 776.453 318.508, 766.225 316.054 C 749.288 311.991, 745.014 296.621, 750.497 259.500 C 753.978 235.940, 754.695 216.808, 752.609 203.169 C 748.548 176.624, 734.089 147.478, 717.247 131.888 C 706.473 121.915, 686.342 109.909, 678.042 108.507 L 674.253 107.867 673.017 100.183 C 665.810 55.361, 638.347 23.139, 613.159 29.952 C 605.749 31.956, 597.314 41.089, 588.361 56.799 C 585.962 61.008, 584 63.968, 584 63.376 C 584 59.149, 570.962 45.255, 561.998 39.929 C 545.608 30.193, 529.133 26.566, 504.500 27.272 C 484.673 27.841, 480.208 28.873, 451.515 39.525 C 425.866 49.047, 420.807 50.269, 406.500 50.394 C 395.438 50.492, 394.050 50.289, 388.747 47.804 C 379.672 43.551, 368.548 32.046, 362.598 20.760 C 359.471 14.827, 356.501 14.596, 351.697 19.913 M 355.053 30.126 C 349.707 38.845, 348.508 43.823, 348.577 57 C 348.670 74.692, 353.515 86.150, 363.807 93.019 C 368.309 96.024, 368.825 96.132, 376.500 95.665 C 380.900 95.398, 385.738 94.861, 387.250 94.473 C 391.628 93.349, 390.955 97.347, 386.250 100.422 C 374.982 107.785, 355.906 112.512, 340.586 111.738 C 328.266 111.115, 322.143 108.993, 316.114 103.256 C 313.662 100.922, 311.448 99.218, 311.196 99.470 C 310.944 99.722, 310.517 103.014, 310.248 106.784 C 308.613 129.623, 324.818 151.482, 346.781 156.064 C 359.848 158.791, 381.254 154.981, 397.619 147.017 C 409.934 141.024, 415.765 135.890, 428.762 119.600 C 449.810 93.219, 468.546 78.537, 489.355 72.115 C 509.674 65.845, 540.990 73.640, 564.238 90.754 C 567.514 93.166, 570.290 94.995, 570.408 94.819 C 572.564 91.592, 578 77.212, 578 74.735 C 578 61.703, 560.274 45.833, 538.759 39.601 C 513.278 32.222, 490.062 34.418, 455.636 47.465 C 419.965 60.984, 399.367 63.257, 383.254 55.451 C 376.139 52.005, 365.870 41.771, 360.811 33.085 L 357.122 26.751 355.053 30.126 M 615.115 38.723 C 609.162 39.849, 597.455 55.380, 588.920 73.476 C 579.263 93.947, 576.002 105.933, 574.042 128.160 C 572.401 146.759, 570.249 152.461, 565.548 150.657 C 564.108 150.104, 563.856 148.799, 564.019 142.748 C 564.126 138.761, 564.166 134.947, 564.107 134.270 C 563.928 132.208, 556.049 128.844, 548.063 127.419 C 524.932 123.292, 509.097 128.626, 483.411 149.195 C 461.979 166.358, 451.189 172.747, 433 179.043 C 416.548 184.738, 388.003 184.250, 369.185 177.952 C 366.058 176.905, 362.955 176.038, 362.289 176.025 C 361.440 176.007, 358 184.355, 358 186.432 C 358 186.469, 362.407 186.500, 367.794 186.500 C 380.350 186.500, 385.672 189.185, 381.461 193.396 C 380.355 194.502, 379.020 194.733, 376.711 194.217 C 366.715 191.985, 356.252 194.944, 354.842 200.402 C 349.208 222.200, 349.390 280.757, 355.087 279.267 C 356.139 278.992, 356.993 278.707, 356.985 278.633 C 356.977 278.560, 356.321 276.700, 355.529 274.500 C 351.938 264.532, 354.978 243.522, 360.658 239.054 C 366.760 234.254, 376.053 238.437, 377.599 246.678 C 378.639 252.219, 377.307 265.153, 374.987 272.037 C 373.839 275.445, 373.047 278.381, 373.228 278.561 C 373.408 278.741, 377.436 279.371, 382.180 279.960 C 394.263 281.462, 405.413 284.457, 412.833 288.194 C 419.085 291.343, 430.456 301.453, 429.495 303.009 C 429.222 303.450, 423.487 301.031, 416.750 297.635 C 386.573 282.422, 353.392 283.633, 335.048 300.616 C 326.329 308.688, 324.500 313.523, 324.500 328.500 C 324.500 339.871, 324.663 340.841, 327.612 347 C 333.632 359.573, 345.072 370.638, 356.451 374.896 C 377.603 382.810, 409.944 376.775, 438 359.679 L 446.500 354.500 446.500 350.023 C 446.500 346.410, 446.870 345.473, 448.415 345.168 C 451.037 344.650, 466.191 360.644, 465.784 363.500 C 465.326 366.724, 461.448 366.523, 457.060 363.048 L 453.152 359.952 451.999 365.726 C 448.649 382.516, 443.474 393.702, 435.302 401.820 C 428.558 408.518, 423.506 411.186, 416.425 411.787 C 405.129 412.747, 396 403.195, 396 390.416 L 396 386.130 386.750 386.702 C 381.663 387.017, 377.402 387.348, 377.282 387.439 C 376.750 387.839, 380.895 399.912, 382.920 403.863 C 391.375 420.359, 417.205 430.706, 437.979 425.919 C 448.123 423.582, 468.396 421, 484.431 420.003 C 511.090 418.346, 523.358 417.104, 534.695 414.917 C 546.742 412.592, 548.937 412.810, 544 415.843 C 534.988 421.379, 515.024 426.334, 494.948 428.016 C 487.552 428.636, 477.969 429.449, 473.653 429.822 L 465.807 430.500 459.356 445 C 426.777 518.233, 412.624 571.745, 411.294 626.713 C 410.649 653.389, 411.753 666.734, 416.004 683.635 C 425.796 722.566, 457.011 755.882, 498.832 772.036 C 509.518 776.163, 524.799 780.534, 525.632 779.702 C 525.892 779.441, 525.573 775.240, 524.923 770.364 C 522.728 753.890, 525.706 730.500, 530 730.500 C 531.244 730.500, 531.609 733.229, 532.140 746.500 C 533.988 792.666, 544.993 815.392, 576.080 837.236 C 591.373 847.982, 590.889 840.471, 579.853 895.785 C 574.617 922.028, 570.371 943.569, 570.417 943.654 C 570.939 944.624, 598.558 948.289, 608.539 948.713 C 626.484 949.476, 653.191 944.544, 656.036 939.943 C 657.297 937.901, 663.012 861.440, 663.233 843.639 C 663.383 831.558, 662.541 829.177, 653.922 817.313 C 639.751 797.809, 638.994 790.697, 647.762 759.500 C 655.760 731.043, 656.453 726.872, 656.400 707.500 C 656.363 693.792, 655.919 688.466, 654.109 680 C 651.603 668.280, 639.409 630.426, 637.638 628.869 C 637.012 628.318, 634.250 626.587, 631.500 625.022 C 611.862 613.844, 590.657 585.804, 579.679 556.500 C 573.055 538.818, 568.723 513.525, 571.973 511.516 C 573.676 510.464, 574.504 512.073, 576.509 520.322 C 587.290 564.678, 613.735 605.525, 640 618.391 C 658.997 627.696, 671.933 628.174, 696.630 620.483 C 739.741 607.058, 777.829 583.082, 787.802 563.090 C 791.856 554.965, 791.863 552.053, 787.842 547.473 L 784.684 543.876 779.092 549.286 C 770.682 557.422, 759.883 563.564, 756.250 562.276 C 752.100 560.806, 756.430 554.934, 768.139 546.156 C 781.008 536.507, 783.840 525.066, 774.082 522.143 C 770.376 521.032, 769.464 521.182, 762.918 523.967 C 758.998 525.635, 755.050 527.002, 754.145 527.004 C 753.120 527.006, 751.777 528.797, 750.583 531.754 C 745.984 543.138, 740.450 548.879, 737.204 545.633 C 735.774 544.203, 735.971 543.232, 739.374 534.912 C 743.363 525.158, 744.245 519.205, 742.086 516.604 C 739.404 513.372, 734.801 514.777, 714.932 524.891 C 704.244 530.330, 688.750 537.331, 680.500 540.448 C 672.250 543.565, 663.392 546.990, 660.815 548.058 C 654.638 550.618, 652.136 550.539, 651.099 547.750 C 649.867 544.436, 650.686 543.285, 655.621 541.401 C 661.156 539.287, 661.711 538.414, 659.266 535.676 C 650.141 525.459, 628.575 491.643, 621.186 475.966 C 606.258 444.292, 604.683 437.893, 605.185 410.930 C 605.358 401.617, 605.391 393.998, 605.259 393.999 C 605.126 393.999, 602.876 395.642, 600.259 397.648 C 594.938 401.727, 584.467 406.998, 581.680 406.999 C 578.113 407.001, 580.185 402.700, 585 400.107 C 610.475 386.387, 636.857 351.424, 647.885 316.767 C 656.990 288.152, 659.173 255.090, 654.144 222 C 651.105 202.001, 651.725 203.323, 647.115 207.028 C 642.589 210.665, 638.683 210.788, 638.188 207.310 C 637.970 205.773, 640.071 202.574, 645.240 196.573 C 656.930 183.001, 662.111 169.958, 665.020 146.776 C 671.994 91.201, 645.135 33.046, 615.115 38.723 M 494.854 75.563 C 470.450 79.980, 446.997 98.035, 425.442 129 C 412.289 147.895, 399.458 156.576, 376 162.452 C 362.477 165.838, 361.963 166.637, 371.500 169.438 C 408.270 180.236, 441.522 172.460, 473.500 145.587 C 487.825 133.549, 505.301 123.067, 516.681 119.687 C 529.197 115.971, 549.486 117.025, 560.673 121.974 L 565 123.888 565.017 121.194 C 565.027 119.712, 565.688 115.415, 566.487 111.644 C 568.214 103.495, 567.213 101.567, 557.235 93.816 C 536.598 77.787, 515.950 71.745, 494.854 75.563 M 626.367 82.485 C 626.054 83.302, 626.293 89.892, 626.899 97.128 C 629.987 134.028, 626.195 155.642, 612.871 177.072 C 610.594 180.734, 610.797 184, 613.302 184 C 615.186 184, 624.553 169.360, 627.969 161.074 C 636.846 139.548, 638.365 100.553, 631.001 83.250 C 629.915 80.699, 627.223 80.254, 626.367 82.485 M 674.992 127.250 C 674.984 137.489, 673.681 153.374, 672.430 158.467 C 672.026 160.114, 672.970 161.039, 677.399 163.338 C 708.163 179.303, 722.492 230.038, 708.357 272.948 C 701.279 294.433, 699.039 308.039, 701.009 317.568 C 703.328 328.784, 711.343 341.002, 718.023 343.505 C 719.936 344.221, 724.406 346.031, 727.958 347.527 C 740.279 352.717, 756.108 351.795, 768.474 345.166 C 773.849 342.285, 783.480 333.174, 786.159 328.435 L 787.819 325.500 775.659 325.500 C 764.360 325.500, 763.096 325.302, 757.786 322.694 C 740.257 314.086, 735.982 297.413, 741.585 259.500 C 747.698 218.127, 744.955 193.928, 730.983 166 C 722.379 148.801, 711.249 136.605, 694.968 126.534 C 686.839 121.506, 676.681 116, 675.533 116 C 675.240 116, 674.996 121.063, 674.992 127.250 M 668.928 172.251 C 666.778 179.478, 662.315 189.256, 659 194 C 657.321 196.404, 657.362 197.016, 660.081 210 C 664.862 232.827, 666.341 247.430, 665.703 265.500 C 664.098 310.965, 648.442 352.190, 622.717 378.686 L 614.769 386.873 614.242 406.301 C 613.353 439.088, 615.785 447.157, 631.642 464.032 C 647.435 480.838, 665.567 488.092, 684.059 485.002 C 694.229 483.303, 701.078 480.587, 707.002 475.904 C 712.568 471.505, 713.207 470, 709.511 470 C 705.362 470, 694.859 465.239, 688.500 460.476 C 676.615 451.573, 666.900 437.187, 661.843 421 C 658.008 408.726, 658.408 383.567, 662.829 359 C 664.659 348.825, 666.542 339.600, 667.011 338.500 C 668.826 334.247, 667.934 350.975, 665.410 368.507 C 659.530 409.352, 667.901 435.954, 691.428 451.190 C 708.760 462.416, 731.800 460.973, 745.917 447.780 L 749.286 444.632 743.282 443.407 C 722.304 439.128, 714.876 424.638, 717.992 394.076 C 719.964 374.738, 718.552 368.476, 706.476 343 C 702.435 334.475, 698.589 325.337, 697.931 322.692 C 695.950 314.739, 697.271 301.405, 701.891 282.722 C 711.017 245.810, 711.789 233.872, 706.427 212.535 C 701.423 192.627, 688.489 173.881, 675.009 167.005 L 671.084 165.002 668.928 172.251 M 511.939 176.061 C 508.061 179.939, 509.663 181.378, 519.394 182.760 C 533.150 184.715, 543.083 191.311, 548.568 202.134 C 551.415 207.753, 552.351 208.487, 554.053 206.436 C 557.224 202.615, 548.495 186.491, 539.927 180.347 C 531.574 174.356, 516.025 171.975, 511.939 176.061 M 505.479 236.871 C 492.609 242.717, 482.121 266.415, 483.293 287 C 484.786 313.219, 502.344 325.728, 523.270 315.481 C 557.539 298.701, 551.817 234.902, 516.054 235.022 C 511.883 235.036, 508.038 235.708, 505.479 236.871 M 508.420 245.827 C 506.726 246.892, 503.902 249.504, 502.144 251.632 L 498.947 255.500 503.229 256.019 C 509.241 256.747, 512.507 259.497, 516.255 266.981 C 519.314 273.090, 519.497 274.064, 519.449 283.981 C 519.397 294.647, 519.234 295.307, 513.320 308.792 C 512.053 311.681, 524.603 304.885, 528.689 300.468 C 538.876 289.458, 540.215 269.333, 531.745 254.535 C 527.103 246.425, 514.784 241.826, 508.420 245.827 M 336.964 313.336 C 332.420 315.612, 332.598 323.513, 337.259 326.408 C 338.583 327.230, 339.668 327.130, 341.654 326 C 348.769 321.952, 344.231 309.696, 336.964 313.336 M 388.736 317.250 C 383.366 321.328, 385.317 332, 391.432 332 C 398.731 332, 403.346 320.602, 397.600 316.765 C 395.847 315.594, 390.534 315.885, 388.736 317.250 M 423.385 383.617 C 412.486 387.483, 404.170 399.934, 410.547 402.839 C 418.188 406.321, 430.277 399.218, 436.083 387.837 L 438.055 383.971 435.462 382.986 C 431.993 381.666, 428.348 381.857, 423.385 383.617 M 282.500 383.901 C 279.026 384.723, 279.046 384.390, 281.915 393.500 C 285.414 404.609, 285.599 404.732, 293.156 400.944 C 296.645 399.194, 299.605 397.674, 299.734 397.564 C 299.862 397.455, 298.654 394.246, 297.048 390.433 L 294.129 383.500 289.815 383.346 C 287.442 383.261, 284.150 383.511, 282.500 383.901 M 298 383.904 C 298 384.475, 299.095 387.419, 300.434 390.446 L 302.867 395.949 308.462 393.474 C 311.539 392.113, 314.719 391, 315.529 391 C 318.687 391, 316.749 389.051, 311.750 387.199 C 306.992 385.437, 305.448 384.942, 299.750 383.353 C 298.788 383.085, 298 383.333, 298 383.904 M 268.020 388.557 C 265.006 389.967, 260.987 392.081, 259.089 393.254 L 255.637 395.387 263.541 396.722 C 267.889 397.457, 273.787 399.129, 276.649 400.440 L 281.853 402.822 279.863 398.179 C 278.768 395.626, 277.544 391.956, 277.143 390.024 C 276.222 385.594, 274.830 385.370, 268.020 388.557 M 320.841 393.750 C 325.871 405.078, 326.349 405.699, 328.824 404.130 C 330.792 402.882, 328.003 396.850, 324.209 394.149 C 320.549 391.542, 319.823 391.457, 320.841 393.750 M 310.250 396.501 C 304.233 399.235, 304.381 398.908, 306.961 403.790 C 310.488 410.461, 310.163 410.301, 315.730 408.106 C 318.509 407.011, 321.056 406.389, 321.391 406.724 C 322.566 407.899, 321.981 405.023, 319.928 399.538 C 317.585 393.275, 317.445 393.231, 310.250 396.501 M 248.842 401.750 C 246.774 404.217, 243.776 409.128, 244.170 409.406 C 244.352 409.534, 247.425 410.423, 251 411.382 C 259.234 413.592, 273.829 419.790, 281.807 424.466 C 300.836 435.619, 321.470 457.273, 325.922 470.764 C 327.589 475.814, 327.802 475.860, 331.523 471.976 C 334.203 469.179, 334.330 468.712, 333.213 465.754 C 327.700 451.148, 310.879 432.136, 290.686 417.686 C 274.594 406.172, 273.178 405.437, 261.251 402.412 C 249.910 399.535, 250.666 399.575, 248.842 401.750 M 295.492 403.615 C 288.369 407.348, 288.365 407.364, 293.796 411.351 L 298.725 414.969 302.739 413.255 L 306.753 411.541 304.168 406.270 C 301.145 400.106, 301.805 400.308, 295.492 403.615 M 327.479 408.467 C 327.808 409.585, 328.344 411.962, 328.670 413.750 C 329.328 417.363, 329.383 417.401, 331.951 416.026 C 334.496 414.664, 331.649 406.075, 328.726 406.296 C 327.362 406.398, 327.037 406.965, 327.479 408.467 M 334.022 407.101 C 333.952 408.993, 336.337 413.910, 337.097 413.440 C 337.594 413.133, 337.990 412.571, 337.978 412.191 C 337.949 411.310, 334.052 406.295, 334.022 407.101 M 316.742 410.294 C 311.509 412.585, 311.533 412.430, 315.153 420.612 L 317.114 425.046 321.298 422.551 C 326.393 419.512, 326.454 419.349, 324.716 413.389 C 323.058 407.701, 322.849 407.620, 316.742 410.294 M 304.250 415.220 C 301.152 416.715, 301.271 416.957, 307.500 421.822 C 313.651 426.626, 314.131 426.166, 310.483 418.967 C 307.786 413.644, 307.667 413.573, 304.250 415.220 M 240.062 417.338 C 238.330 421.891, 236.856 431.527, 237.177 436.191 L 237.500 440.883 242.731 436.691 L 247.962 432.500 247.353 424.500 C 247.018 420.100, 246.689 416.451, 246.622 416.391 C 246.555 416.331, 245.255 415.983, 243.734 415.618 C 241.428 415.064, 240.817 415.350, 240.062 417.338 M 250.582 422.239 C 251.432 430.027, 251.086 429.748, 256.753 427.231 C 259.364 426.072, 262.849 424.721, 264.497 424.229 L 267.495 423.335 265.187 422.100 C 263.917 421.421, 259.958 419.765, 256.389 418.422 L 249.898 415.979 250.582 422.239 M 335.075 419.176 L 330.752 422.355 331.376 428.324 C 331.719 431.607, 332 435.568, 332 437.125 C 332 439.830, 332.123 439.905, 334.750 438.792 C 344.024 434.862, 344.629 433.424, 341.814 422 C 340.269 415.731, 339.945 415.595, 335.075 419.176 M 322.500 427.219 C 320.300 428.337, 318.323 429.409, 318.108 429.601 C 317.892 429.794, 319.892 432.550, 322.552 435.726 C 325.213 438.902, 327.534 441.695, 327.711 441.933 C 329.198 443.934, 329.710 439.400, 328.685 433.320 C 327.205 424.544, 327.395 424.732, 322.500 427.219 M 270.487 429.250 C 272.391 438.836, 275.323 450, 275.936 450 C 277.147 450, 287.423 446.828, 289.110 445.933 C 290.588 445.149, 290.586 444.689, 289.087 440.290 C 286.820 433.637, 286.679 433.478, 279.610 429.524 C 271.446 424.959, 269.623 424.904, 270.487 429.250 M 259.500 431.385 C 255.218 433.783, 253.592 435.247, 253.823 436.499 C 254.623 440.844, 256.094 442.984, 258.715 443.615 C 260.247 443.984, 263.700 445.386, 266.390 446.731 L 271.279 449.175 270.640 446.838 C 270.288 445.552, 269.224 440.788, 268.275 436.250 C 267.326 431.712, 266.313 428.005, 266.025 428.012 C 265.736 428.018, 262.800 429.536, 259.500 431.385 M 246.500 439 L 243.500 440.987 247.785 440.993 C 251.761 441, 251.993 440.856, 251 439 C 249.710 436.590, 250.139 436.590, 246.500 439 M 291 437.451 C 291 439.213, 294.207 443.990, 295.043 443.474 C 296.972 442.281, 298.379 444.250, 296.552 445.585 C 293.798 447.600, 297.428 461.303, 300.471 460.378 C 311.920 456.896, 311.463 454.614, 296.750 441.807 C 293.587 439.054, 291 437.094, 291 437.451 M 338.977 440.896 C 336.489 442.450, 333.431 444.046, 332.180 444.443 L 329.906 445.164 332.600 449.832 C 334.081 452.400, 335.428 454.664, 335.594 454.864 C 335.759 455.064, 337.478 454.250, 339.413 453.053 C 343.152 450.743, 344.454 447.252, 343.827 441.219 L 343.500 438.072 338.977 440.896 M 239.100 449.394 C 239.379 455.304, 240.239 456.161, 247.812 458.084 C 259.040 460.936, 266.217 465.312, 275.922 475.223 C 285.175 484.672, 286.749 485.340, 292.106 482.082 L 295.260 480.164 287.880 472.794 C 273.702 458.637, 260.832 451.085, 246.698 448.627 C 239.104 447.307, 239.001 447.317, 239.100 449.394 M 284.621 451.509 L 278.742 453.662 284.121 458.319 C 287.079 460.880, 290.400 464.330, 291.500 465.985 C 293.824 469.481, 295 469.822, 295 467 C 295 465.900, 294.541 465, 293.981 465 C 293.395 465, 293.227 463.944, 293.585 462.518 C 294.211 460.022, 292.362 450.270, 291.150 449.675 C 290.792 449.500, 287.854 450.325, 284.621 451.509 M 339.250 456.220 C 336.863 457.371, 336.490 458.646, 337.890 460.857 C 338.388 461.643, 339 461.809, 339.345 461.251 C 340.076 460.069, 342.037 454.974, 341.725 455.068 C 341.601 455.105, 340.488 455.624, 339.250 456.220 M 313 460.427 C 313 461.276, 313.544 464.003, 314.208 466.487 C 315.333 470.694, 317.186 471.708, 319.765 469.528 C 320.196 469.163, 314.921 460.069, 313.920 459.450 C 313.414 459.138, 313 459.577, 313 460.427 M 303.368 463.737 C 297.547 465.977, 295.712 472.358, 299.589 476.871 C 299.764 477.074, 301.616 475.902, 303.704 474.265 C 305.792 472.629, 308.451 470.791, 309.613 470.183 C 311.515 469.187, 311.615 468.724, 310.618 465.538 C 309.377 461.572, 309.145 461.514, 303.368 463.737 M 232.029 472.421 C 225.620 478.936, 225.587 479, 228.529 479.009 C 236.228 479.034, 245.605 487.715, 248.569 497.562 C 254.157 516.130, 239.503 540.877, 216.195 552.232 C 208.071 556.190, 206.959 556.466, 199.250 556.425 C 194.713 556.402, 191 556.654, 191 556.986 C 191 557.319, 187.850 561.986, 184 567.359 C 175.119 579.753, 174.983 581.449, 182.750 583.024 C 190.996 584.695, 197.509 589.160, 201.174 595.655 C 202.833 598.595, 204.555 601, 205.001 601 C 206.460 601, 215.334 588.105, 242.507 546.500 C 257.234 523.950, 271.564 502.184, 274.350 498.130 L 279.415 490.760 270.206 481.827 C 260.087 472.012, 251.384 467.012, 243.109 466.261 C 238.568 465.849, 238.405 465.940, 232.029 472.421 M 317.752 472.926 C 316.240 473.792, 315.003 475.288, 315.002 476.250 C 314.999 478.618, 313.110 478.472, 312.208 476.034 C 311.523 474.182, 311.147 474.284, 305.754 477.784 C 298.658 482.388, 298.082 485, 304.162 485 C 309.481 485, 318.149 482.277, 321.393 479.587 C 323.861 477.540, 323.876 477.441, 322.205 474.426 C 320.540 471.424, 320.436 471.390, 317.752 472.926 M 425.905 488.572 C 399.274 512.207, 360.481 533.327, 355.598 526.847 C 354.957 525.997, 350.963 524.857, 346 524.108 C 331.559 521.929, 313.592 513.604, 302.847 504.111 C 300.287 501.850, 298.037 500, 297.846 500 C 297.655 500, 297.404 503.038, 297.288 506.750 C 297.011 515.608, 293.100 530.739, 288.681 540.052 C 284.321 549.240, 273.019 564.421, 268.988 566.506 C 266.150 567.974, 266.002 568.364, 266.030 574.276 C 266.053 578.992, 266.308 580.076, 267.080 578.750 C 268.552 576.224, 268.844 576.305, 286.455 584.121 C 315.837 597.162, 334.851 602, 356.718 602 C 372.154 602, 382.172 598.934, 398.649 589.167 L 404.798 585.522 406.937 574.011 C 411.788 547.904, 421.585 513.094, 430.369 490.750 C 432.261 485.938, 433.697 482, 433.560 482 C 433.422 482, 429.978 484.957, 425.905 488.572 M 214.382 490.403 C 203.894 495.286, 188.892 518.838, 187.391 532.776 C 185.992 545.774, 197.730 551.477, 211.857 544.662 C 234.370 533.801, 246.512 510.965, 238.168 495.174 C 234.244 487.748, 224.346 485.763, 214.382 490.403 M 274.203 512.969 C 266.666 524.502, 258.170 537.552, 255.322 541.969 L 250.143 550 253.137 550 C 256.982 550, 259.817 551.510, 263.255 555.391 L 266.010 558.500 270.531 553.500 C 279.785 543.267, 287.362 524.561, 288.502 509.132 C 288.812 504.934, 289.292 499.363, 289.567 496.750 C 289.889 493.702, 289.681 492, 288.987 492 C 288.393 492, 281.740 501.436, 274.203 512.969 M 245.008 621.250 C 245.012 654.938, 244.558 723.900, 243.999 774.500 C 243.440 825.100, 242.874 879.382, 242.741 895.128 L 242.500 923.755 249.500 923.836 L 256.500 923.917 256.485 826.208 C 256.476 772.469, 256.701 691.375, 256.985 646 C 257.565 553.138, 258.134 560, 249.845 560 L 245 560 245.008 621.250 M 225.500 588.411 C 213.990 605.656, 210.035 609.431, 203.440 609.472 C 199.253 609.498, 198.746 609.819, 194.654 615.033 C 188.622 622.718, 185.876 624.339, 179.861 623.761 C 176.972 623.483, 175 623.700, 175 624.295 C 175 624.846, 171.862 632.590, 168.028 641.505 C 148.931 685.898, 143.764 713.637, 148.468 746.500 C 154.237 786.801, 169.100 804.120, 217.132 826.512 L 234.763 834.732 235.446 773.616 C 235.821 740.002, 235.987 681.209, 235.814 642.964 L 235.500 573.429 225.500 588.411 M 177.658 599.794 C 173.170 609.358, 173.061 611.463, 176.950 613.474 C 181.543 615.849, 183.489 615.333, 187.215 610.750 C 195.373 600.718, 195.417 599.087, 187.644 594.531 C 181.714 591.056, 181.773 591.026, 177.658 599.794 M 747.113 640.545 C 722.241 645.941, 703.845 657.234, 676.500 683.895 L 665.500 694.619 666 701.767 L 666.500 708.914 675.281 703.042 C 718.959 673.835, 755.740 672.697, 781.052 699.771 C 799.529 719.534, 804.822 743.401, 800.508 787.500 C 796.844 824.966, 801.006 842.004, 817.985 859.040 C 832.259 873.361, 843.877 878.433, 862.500 878.474 C 880.734 878.514, 891.295 874.038, 899.604 862.752 C 903.442 857.538, 909.909 841.576, 908.681 840.348 C 908.475 840.142, 906.550 840.755, 904.404 841.709 C 898.556 844.308, 881.431 844.060, 873.787 841.266 C 847.614 831.698, 840.894 802.033, 855.367 759.952 C 862.601 738.920, 863.538 719.522, 858.360 698 C 851.365 668.925, 823.926 646.057, 789.287 640.434 C 778.295 638.650, 755.573 638.709, 747.113 640.545 M 721.281 687.481 C 709.195 690.605, 694.940 696.734, 682.262 704.258 C 668.647 712.338, 666.287 714.506, 665.495 719.658 L 664.855 723.816 668.906 722.420 C 675.549 720.132, 687.050 718.723, 694.218 719.319 C 709.577 720.597, 718.879 728.659, 724.575 745.630 C 728.331 756.816, 728.611 766.454, 725.997 794.464 C 722.472 832.249, 724.965 850.045, 736.343 868.301 C 744.456 881.317, 760.407 893.491, 773.137 896.382 L 775.774 896.981 773.031 890.241 C 771.522 886.533, 769.084 881.125, 767.612 878.221 C 762.963 869.048, 757.938 846.593, 760.500 846.441 C 761.050 846.408, 762.916 850.043, 764.646 854.518 C 775.655 882.994, 787.995 895.520, 811.545 902.125 C 832.564 908.019, 852.208 904.051, 873.831 889.544 C 882.126 883.979, 882.255 883.815, 877.250 885.197 C 871.432 886.804, 852.626 885.610, 845 883.150 C 831.190 878.695, 816.435 867.214, 807.605 854.053 C 795.203 835.568, 792.961 819.757, 797.029 779.500 C 799.629 753.777, 797.318 735.526, 789.493 720 C 774.987 691.216, 751.026 679.793, 721.281 687.481 M 416.616 711.046 C 409.864 731.572, 407.977 771.800, 412.888 790.500 C 415.930 802.087, 421.468 812.858, 431.367 826.443 C 434.230 830.373, 429.768 843.132, 404.150 904.270 C 392.008 933.247, 392.270 930.215, 401.685 932.778 C 414.100 936.156, 421.408 936.987, 438.500 936.961 C 453.210 936.939, 474.319 935.014, 475.770 933.564 C 476.104 933.229, 478.040 927.228, 480.072 920.228 C 482.103 913.227, 486.967 896.700, 490.879 883.500 C 494.792 870.300, 499.862 852.181, 502.146 843.236 L 506.299 826.971 503.649 816.236 C 500.669 804.170, 500.305 795.628, 502.463 788.456 C 503.268 785.781, 503.831 783.536, 503.713 783.466 C 503.596 783.397, 499.900 782.091, 495.500 780.565 C 463.339 769.409, 435.984 746.208, 421.198 717.546 C 418.828 712.953, 416.892 710.206, 416.616 711.046 M 264 883.464 L 264 913 266.432 913 C 267.770 913, 274.183 914.375, 280.682 916.056 C 294.484 919.625, 297.442 919.403, 303.001 914.380 C 313.789 904.634, 311.378 889.918, 296.391 874.031 C 290.702 868.001, 288.043 866.153, 276.901 860.488 L 264 853.927 264 883.464 M 220.296 923.534 C 199.768 929.064, 185.077 937.813, 177.695 948.905 C 173.400 955.359, 182.816 958.452, 216 961.484 C 251.906 964.765, 290.949 962.543, 313.134 955.954 C 321.807 953.379, 322.984 951.983, 320.450 947.278 C 315.556 938.190, 288.817 925.091, 270.381 922.749 C 266.474 922.252, 266.179 922.402, 264.618 925.675 C 259.846 935.681, 236.304 935.469, 234.416 925.403 C 233.809 922.169, 233.572 922.003, 229.639 922.066 C 227.362 922.102, 223.158 922.763, 220.296 923.534 M 390.186 940.232 C 383.777 957.361, 382.928 962.024, 385.537 965.750 C 390.397 972.688, 429.151 973.987, 450.962 967.943 C 466.866 963.536, 470.926 959.619, 472.585 947.085 C 473.203 942.416, 473.087 941.753, 471.743 942.268 C 470.886 942.597, 463.731 943.402, 455.843 944.056 C 429.656 946.228, 407.968 943.194, 392.842 935.241 C 392.479 935.050, 391.285 937.296, 390.186 940.232 M 648.500 950.189 C 628.045 958.309, 591.681 958.703, 574.252 950.993 C 571.743 949.884, 569.593 949.094, 569.473 949.238 C 568.786 950.062, 565.996 968.190, 565.998 971.816 C 566.001 977.241, 567.226 979.549, 571.198 981.602 C 586.059 989.287, 640.208 986.147, 649.963 977.034 C 653.401 973.823, 654.601 969.521, 655.485 957.250 C 656.238 946.784, 656.475 947.024, 648.500 950.189" stroke="none" fill="#1a1a1a" fill-rule="evenodd"/>
</svg>