<svg xmlns="http://www.w3.org/2000/svg" width="1024" height="1024" viewBox="0 0 1024 1024" version="1.1">
	<path d="M 349.597 71.993 C 341.616 74.542, 333.993 79.997, 328.862 86.831 C 326.521 89.949, 324.324 92.848, 323.980 93.273 C 323.636 93.698, 321.714 93.361, 319.709 92.523 C 315.128 90.609, 302.321 90.539, 295.368 92.390 C 277.225 97.221, 262.201 113.553, 257.365 133.700 L 255.663 140.791 250.267 141.875 C 236.734 144.593, 221.546 156.808, 216.935 168.683 C 212.354 180.482, 213.375 200.832, 218.838 206.586 C 220.534 208.372, 220.509 208.627, 218.235 212.696 C 213.742 220.735, 214.281 233.168, 219.466 241.089 L 221.815 244.678 218.959 246.365 C 213.325 249.693, 199.297 260.534, 188 270.290 C 177.538 279.326, 169.818 285.316, 150.561 299.343 C 122.702 319.637, 117.373 338.587, 134.406 356.796 C 143.371 366.380, 155.162 370.970, 172.790 371.738 C 203.378 373.070, 230.386 364.296, 249.519 346.809 L 254.848 341.938 258.674 346.645 C 265.584 355.148, 270.444 360.274, 274.169 362.990 L 277.837 365.665 275.084 367.291 C 266.568 372.322, 260.812 382.905, 262.692 390.076 L 263.629 393.652 256.755 395.423 C 240.910 399.505, 224.813 411.370, 218.144 423.881 C 215.806 428.268, 214.292 429.958, 212.249 430.461 C 207.511 431.629, 191.529 439.566, 185.031 443.979 C 168.624 455.120, 156.473 471.795, 150.400 491.500 C 147.557 500.725, 147.767 522.510, 150.771 530 C 156.050 543.163, 170.910 561.985, 184.694 572.966 C 188.987 576.387, 197.844 583.485, 204.375 588.741 L 216.249 598.296 215.625 605.648 C 215.281 609.692, 214.713 616.370, 214.363 620.490 L 213.726 627.980 209.922 627.372 C 207.830 627.037, 204.742 627.243, 203.061 627.829 C 200.418 628.750, 199.243 628.495, 194.400 625.947 C 185.493 621.262, 176.666 622.170, 169.228 628.537 L 165.087 632.081 159.392 630.426 C 141.854 625.327, 128.350 637.943, 130.489 657.426 C 131.799 669.362, 139.001 677.375, 150.250 679.412 C 153.991 680.089, 154 680.102, 154 685.077 C 154 702.789, 169.699 711.698, 194.721 708.186 C 204.222 706.852, 205.406 707.286, 208.833 713.358 C 210.429 716.186, 213.428 720.717, 215.497 723.428 L 219.258 728.355 218.614 736.076 C 216.677 759.302, 211.081 769.670, 187.218 794.242 C 170.126 811.843, 168.490 814.798, 164.102 836 C 162.452 843.975, 159.090 859.275, 156.631 870 C 149.048 903.082, 148.765 904.681, 149.151 912.283 C 149.994 928.910, 164.158 945.024, 179.443 946.746 C 183.293 947.180, 184.190 946.898, 186.345 944.573 C 188.011 942.775, 189.054 942.278, 189.533 943.053 C 189.924 943.686, 191.703 944.814, 193.487 945.559 C 200.669 948.560, 210.023 942.077, 216.665 929.495 C 221.673 920.009, 231.480 894.574, 234.978 882 C 236.737 875.675, 239.251 866.869, 240.565 862.432 L 242.953 854.363 258.227 846.724 C 299.225 826.217, 325.032 801.859, 342.344 767.327 C 344.874 762.281, 347.293 757.956, 347.722 757.714 C 348.150 757.473, 351.832 757.551, 355.905 757.887 L 363.311 758.500 373.405 773.249 C 378.957 781.361, 385.633 791.036, 388.239 794.749 C 395.150 804.593, 396.687 809.963, 398.491 830.553 C 400.812 857.059, 401.847 860.359, 419.179 896.500 C 437.779 935.288, 441.236 940.508, 451.924 945.961 C 465.040 952.653, 486.403 952.722, 489.955 946.085 C 490.727 944.643, 492.061 943.995, 494.285 943.984 C 499.265 943.958, 505.016 940.123, 507.758 935 C 512.804 925.573, 507.958 904.009, 492.238 865.942 C 482.784 843.049, 482.077 834.823, 487.002 805 C 488.174 797.906, 489.313 785.147, 489.636 775.500 C 490.551 748.197, 487.631 735.007, 473.305 701.720 C 466.749 686.485, 464.993 681.502, 466.055 681.148 C 469.603 679.966, 477.920 670.579, 480.608 664.722 C 484.764 655.669, 484.797 641.024, 480.686 629.853 L 477.872 622.206 482.398 615.595 C 493.310 599.657, 494.010 580.928, 484.411 561.716 L 481.021 554.932 483.969 549.709 C 490.723 537.741, 491.624 522.495, 486.630 504.695 L 484.159 495.890 486.329 495.047 C 541.738 473.525, 574.669 443.719, 610.880 382.313 C 624.276 359.597, 630 345.153, 630 334.066 C 630 325.334, 624.929 318, 618.891 318 C 616.479 318, 616.160 317.551, 615.518 313.250 C 613.625 300.563, 606.149 293, 595.500 293 C 586.998 293, 582.172 296.805, 569.498 313.500 C 557.516 329.284, 538.845 351.129, 527.500 362.637 C 514.477 375.848, 505.243 380.962, 477.500 390.331 L 461.500 395.734 458.478 389.418 L 455.456 383.102 462.733 380.448 C 477.775 374.961, 486.401 366.887, 487.719 357.056 C 488.199 353.483, 488.743 352.863, 493.510 350.450 C 504.779 344.749, 515.316 333.868, 519.126 324 C 522.157 316.148, 522.749 302.006, 520.507 291 C 518.497 281.133, 508.826 248.092, 506.058 241.634 L 504.168 237.227 510.334 236.021 C 516.710 234.773, 528.896 229.634, 533.859 226.100 L 536.695 224.081 542.393 232.471 C 548.893 242.039, 563.022 255.914, 571.273 260.831 C 600.215 278.075, 635.514 279.832, 665.706 265.530 C 726.093 236.924, 743.149 160.093, 700.521 108.707 C 688.725 94.488, 668.598 81.792, 650 76.838 C 637.535 73.518, 613.385 73.529, 600.500 76.860 C 559.416 87.483, 528.047 123.524, 525.307 163.250 C 524.975 168.063, 524.536 172, 524.330 172 C 524.124 172, 520.478 170.252, 516.228 168.116 C 506.802 163.378, 493.427 158.578, 485.064 156.933 C 480.108 155.958, 478.947 155.383, 479.354 154.104 C 479.635 153.222, 481.239 148.675, 482.919 144 C 486.383 134.359, 486.618 131.444, 484.505 124.328 C 481.810 115.254, 473.207 107.395, 462.262 104.008 C 456.943 102.363, 456.613 102.059, 454.776 97.135 C 452.293 90.479, 445.211 83.227, 437.500 79.444 C 432.004 76.747, 430.609 76.500, 420.883 76.500 C 410.596 76.500, 410.041 76.615, 403.009 80.222 L 395.752 83.944 391.663 80.444 C 380.568 70.946, 363.567 67.531, 349.597 71.993 M 356.650 77.038 C 346.144 78.824, 329.903 90.969, 331.461 95.876 C 331.854 97.115, 331.044 98.812, 329.032 100.966 L 326.013 104.198 321.592 101.607 C 303.415 90.954, 278.242 101.543, 267.383 124.409 C 263.356 132.888, 262.273 138.476, 263.804 142.868 C 265.232 146.964, 263.884 147.854, 256.500 147.691 C 238.494 147.294, 221.508 164.867, 220.289 185.154 C 219.685 195.202, 222.292 204.750, 225.481 204.173 C 229.249 203.491, 230.268 209.543, 226.898 212.593 C 223.430 215.731, 221.999 219.579, 222.022 225.700 C 222.044 231.476, 224.565 238.995, 226.980 240.487 C 229.019 241.748, 242.552 234.251, 248.656 228.480 C 255.661 221.855, 256.114 221.813, 259.432 227.473 C 264.417 235.981, 275.720 239.914, 285.677 236.607 C 298.144 232.466, 306.012 215.988, 302.075 202.262 C 301.327 199.654, 301.513 198.602, 303.046 196.768 L 304.942 194.500 307.482 197.672 C 313.216 204.831, 327.937 206.234, 336.221 200.412 C 341.188 196.921, 344.960 190.850, 344.984 186.309 C 345.013 180.601, 351.232 180.408, 352.366 186.080 C 353.734 192.918, 365.134 198.963, 374.102 197.606 C 384.402 196.047, 391.483 188.797, 392.763 178.500 C 393.624 171.573, 396.344 170.145, 398.823 175.318 C 404.476 187.111, 428.652 183.982, 436.595 170.429 C 438.991 166.339, 439.345 164.724, 439.217 158.445 C 439.028 149.190, 440.596 148.146, 445.961 153.958 C 451.652 160.123, 455.980 161.561, 461.052 158.973 C 474.615 152.054, 482.575 134.928, 477.162 124.317 C 473.069 116.294, 461.970 108.830, 457.865 111.338 C 454.801 113.211, 450.134 110.318, 449.477 106.139 C 448.547 100.220, 444.368 92.383, 440.616 89.521 C 429.140 80.767, 411.544 80.759, 401.866 89.502 C 397.058 93.846, 394.096 93.974, 391.134 89.967 C 384.352 80.794, 368.819 74.970, 356.650 77.038 M 634.402 86.276 C 656.269 105.823, 674.305 139.096, 681.563 173.282 L 683.215 181.064 687.858 178.385 C 699.719 171.542, 715.013 157.080, 714.987 152.731 C 714.958 147.938, 703.685 121.013, 701.701 120.999 C 701.590 120.998, 701.645 127.474, 701.822 135.390 C 702.162 150.607, 700.287 166.142, 697.810 168.619 C 696.730 169.699, 696.500 165.587, 696.500 145.215 C 696.500 116.470, 696.053 114.109, 689.225 106.809 C 676.989 93.728, 655.698 83.653, 635.126 81.208 L 627.751 80.332 634.402 86.276 M 604.390 83.002 C 583.628 87.694, 560.145 102.824, 549.293 118.500 L 547.216 121.500 551.858 121.181 C 570.163 119.921, 604.328 131.077, 621.020 143.763 C 637.271 156.115, 652.884 178.371, 652.976 189.317 C 652.995 191.514, 653.385 192.027, 654.750 191.647 C 655.712 191.378, 657.625 190.846, 659 190.463 C 660.375 190.081, 664.987 188.437, 669.250 186.811 C 678.344 183.342, 678.140 184.030, 674.368 169.581 C 664.817 132.989, 642.843 97.642, 621.054 83.820 C 615.933 80.571, 615.284 80.539, 604.390 83.002 M 545.446 128.068 C 539.148 129.899, 531 155.556, 531 173.559 C 531 179.023, 532.741 195.063, 533.408 195.738 C 533.537 195.869, 539.911 196.963, 547.572 198.169 C 566.418 201.137, 601.813 201.392, 619 198.685 C 634.925 196.177, 646.347 193.886, 647.320 193.004 C 650.382 190.227, 636.012 165.931, 625.610 156.297 C 605.756 137.911, 563.174 122.916, 545.446 128.068 M 469.370 161.471 C 467.455 162.872, 469.149 166.835, 477.292 180 C 482.539 188.483, 482.558 188.500, 487.025 188.747 C 498.468 189.379, 511.980 191.349, 519.195 193.439 C 524.891 195.089, 526.971 195.368, 526.613 194.434 C 526.339 193.719, 525.812 190.460, 525.442 187.190 C 524.562 179.408, 525.080 179.956, 512.996 174.043 C 497.452 166.438, 472.437 159.229, 469.370 161.471 M 445 165.540 C 445 183.449, 413.209 197.067, 400.671 184.528 C 399.312 183.170, 399.026 183.392, 397.955 186.635 C 392.398 203.474, 366.488 209.567, 352.846 197.242 C 349.361 194.093, 349 193.965, 349 195.881 C 349 199.104, 342.603 205.484, 336.742 208.105 C 330.055 211.095, 316.915 211.485, 312.838 208.813 L 310.264 207.127 309.765 213.333 C 308.458 229.626, 294.702 243.451, 278.508 244.751 C 270.071 245.429, 264.516 243.347, 258.110 237.107 L 253.280 232.403 250.191 234.982 C 248.492 236.400, 243.367 239.538, 238.801 241.955 C 223.073 250.281, 213.876 257.046, 182.896 283.075 C 176.628 288.341, 165.104 297.478, 157.287 303.379 C 137.616 318.230, 131 326.314, 131 335.500 C 131 347.070, 145.894 360.370, 162.799 363.895 C 175.955 366.638, 200.186 364.389, 216 358.956 C 250.160 347.220, 266.799 323.433, 270.101 281.616 C 271.267 266.848, 272.355 262.748, 275.258 262.189 C 276.808 261.890, 277 262.828, 277 270.703 C 277 294.093, 271.289 317.716, 262.477 330.770 L 258.920 336.040 262.210 340.155 C 273.309 354.040, 280.537 359.942, 291.312 363.919 C 296.255 365.744, 298.598 367.150, 298.846 368.439 C 299.180 370.174, 298.668 370.267, 291.853 369.706 C 284.607 369.110, 284.421 369.155, 279.027 372.801 C 266.974 380.949, 265.622 391.047, 275.818 396.778 C 279.240 398.701, 280.217 398.858, 282.443 397.844 C 286.361 396.059, 287.185 397.616, 285.804 404.197 C 284.319 411.279, 285.572 415.972, 290.481 421.707 C 297.326 429.704, 306.393 432.019, 315.262 428.035 C 317.880 426.859, 320.468 426.171, 321.012 426.507 C 322.518 427.438, 322.190 431.597, 320.500 433 C 317.116 435.809, 319.207 445.547, 324.558 451.893 C 333.376 462.352, 348.068 462.161, 359.941 451.434 C 363.799 447.948, 364.223 447.794, 365.744 449.315 C 368.198 451.770, 363.117 457.578, 354.754 461.877 C 334.869 472.099, 313.106 461.923, 313.022 442.363 L 313 437.226 306.250 436.835 C 290.623 435.930, 279.196 425.163, 278.199 410.403 L 277.787 404.307 273.005 402.287 C 259.383 396.532, 232.602 410.692, 222.147 429.178 C 219.573 433.729, 218.298 434.992, 215.718 435.548 C 206.551 437.520, 190.360 447.064, 180.165 456.506 C 153.115 481.557, 146.677 514.387, 163.734 540.288 C 170.638 550.772, 201.138 580, 205.174 580 C 210.157 580, 233.691 563.372, 243.117 553.191 C 253.623 541.844, 253.570 542.294, 245.419 533.731 C 241.614 529.733, 234.300 521.633, 229.168 515.731 C 224.035 509.829, 219.422 505, 218.918 505 C 218.413 505, 218 504.100, 218 503 C 218 499.810, 222.462 500.480, 226.625 504.296 L 230.221 507.591 253.361 497.707 C 273.144 489.257, 277.175 487.167, 281.154 483.294 C 285.794 478.778, 288 478.379, 288 482.056 C 288 486.139, 281.001 491.971, 269.478 497.489 L 258.321 502.833 257.180 509.743 C 256.552 513.544, 255.762 520.444, 255.423 525.077 L 254.809 533.500 262.475 543 C 279.625 564.253, 283.371 572.378, 281.039 583.256 C 278.978 592.863, 272.597 600.997, 267.115 601.003 C 265.121 601.005, 264.025 601.891, 262.500 604.737 C 258.866 611.517, 246.839 615.752, 238.776 613.091 C 236.852 612.456, 232.241 609.900, 228.530 607.411 C 224.818 604.922, 221.647 603.024, 221.483 603.193 C 221.319 603.362, 220.542 612.347, 219.757 623.159 C 218.402 641.837, 218.201 642.972, 215.740 645.898 C 209.301 653.549, 206.193 676.804, 209.513 692.479 C 212.310 705.683, 215.674 712.749, 224.157 723.237 L 226.371 725.974 224.115 740.638 C 220.101 766.717, 215.692 774.652, 192.521 797.500 C 176.188 813.606, 175.127 815.079, 172.714 825 C 169.733 837.256, 162 872.877, 162.036 874.189 C 162.128 877.529, 174.624 888.269, 183.806 892.899 C 193.550 897.813, 202.260 900, 212.082 900 C 223.098 900, 222.124 901.283, 229.978 876.428 C 239.618 845.917, 236.295 850.364, 257.219 839.973 C 278.180 829.563, 288.606 822.823, 301.400 811.410 C 324.144 791.122, 341.421 761.781, 348.089 732.118 C 349.056 727.816, 352.996 699.031, 352.999 696.250 C 353.001 693.758, 356.943 694.924, 357.619 697.617 C 359.465 704.973, 356.328 728.589, 351.475 743.874 L 349.134 751.248 363.317 750.778 C 379.724 750.235, 392.456 746.762, 402.833 739.999 C 410.108 735.257, 411.572 733.532, 414.304 726.478 C 417.463 718.324, 419.809 716.884, 427.681 718.270 C 443.694 721.089, 455.747 708.474, 456.316 688.299 L 456.565 679.500 461.532 676.818 C 477.303 668.302, 481.644 645.218, 471.681 622.848 L 470.055 619.196 473.303 616.718 C 484.933 607.848, 486.944 586.896, 478.328 564.384 C 475.385 556.695, 474.883 554.450, 475.815 553.139 C 485.808 539.073, 485.582 522.363, 474.930 487.771 C 468.863 468.071, 468.543 465.608, 472 465.217 C 474.384 464.947, 474.667 465.506, 478.078 477.217 C 480.045 483.973, 482.070 489.412, 482.578 489.305 C 483.085 489.199, 489.816 486.244, 497.536 482.740 C 543.904 461.692, 571.201 435.391, 604.073 380.088 L 611.451 367.677 608.475 365.383 C 606.839 364.122, 601.900 360.401, 597.500 357.116 C 593.100 353.830, 585.191 347.172, 579.924 342.321 C 574.657 337.469, 569.162 332.506, 567.712 331.290 L 565.077 329.081 554.351 342.290 C 536.264 364.565, 522.406 377.658, 510.478 383.742 C 500.196 388.986, 479.053 396.726, 468.647 399.054 C 465.054 399.859, 462.611 400.968, 462.314 401.932 C 460.948 406.361, 458.519 411.126, 456.862 412.625 C 455.066 414.251, 455.133 414.422, 458.787 417.550 C 468.386 425.766, 471.470 441.974, 465.504 452.856 C 460.034 462.831, 449.600 468.333, 439.911 466.351 L 435.323 465.413 433.578 470.324 C 430.466 479.086, 417.995 488.521, 406.175 491.056 C 396.653 493.098, 385.505 487.955, 379.019 478.528 C 372.590 469.183, 377.979 466.749, 385.530 475.587 C 396.172 488.043, 410.743 488.051, 421.697 475.606 C 427.634 468.862, 429.103 462.334, 425.704 457.799 C 422.274 453.221, 421.618 450.562, 423.529 448.976 C 424.879 447.855, 425.841 448.395, 430.301 452.779 C 435.954 458.335, 439.251 460, 444.597 460 C 463.733 460, 468.123 433.329, 451.478 418.190 L 446.740 413.881 449.248 411.190 C 455.831 404.128, 455.489 393.657, 448.397 385.126 C 448.226 384.921, 444.354 385.696, 439.793 386.848 C 407.641 394.969, 361.693 395.782, 359.248 388.274 C 358.939 387.323, 362.406 387.185, 374.675 387.659 C 418.906 389.367, 472.556 375.993, 479.410 361.549 C 482.962 354.064, 481.740 353.778, 469.533 359.240 C 454.231 366.086, 439.732 362.421, 425.611 348.137 C 418.503 340.948, 417.525 338, 422.246 338 C 423.812 338, 426.238 339.912, 429.784 343.941 C 441.684 357.459, 458.921 360.313, 472.081 350.943 C 477.849 346.835, 481.811 333.594, 480.417 323.086 L 479.779 318.276 475.656 319.494 C 465.709 322.431, 451 314.610, 451 306.385 C 451 302.433, 452.714 302.620, 457.500 307.094 C 468.618 317.488, 483.560 314, 488.555 299.845 C 490.189 295.214, 493.764 290.736, 495.145 291.590 C 498.229 293.496, 493.684 308.314, 488.663 312.722 C 486.052 315.015, 485.558 316.043, 486.113 318.033 C 487.140 321.716, 487.084 335.931, 486.025 340.499 C 484.807 345.754, 485.608 346.303, 490.983 343.896 C 514.771 333.246, 520.262 313.890, 509.679 278 C 497.635 237.158, 486.155 208.993, 469.883 180.365 L 461.849 166.231 456.826 166.231 C 453.280 166.231, 450.962 165.609, 448.942 164.115 C 445.177 161.331, 445 161.395, 445 165.540 M 708.362 170.716 L 700.225 178.932 704.315 186.716 C 706.565 190.997, 709.376 196.876, 710.562 199.781 L 712.719 205.062 714.319 199.281 C 716.706 190.655, 717.996 181.347, 717.893 173.500 C 717.733 161.387, 717.631 161.358, 708.362 170.716 M 690 184.378 L 684.500 187.259 684.474 206.880 C 684.450 225.243, 683.323 236.146, 680.328 246.994 C 678.230 254.592, 699.846 230.531, 706.509 217.851 L 710.057 211.100 705.185 200.218 C 702.506 194.234, 699.231 187.573, 697.907 185.416 L 695.500 181.496 690 184.378 M 446.750 190.368 C 442.840 193.730, 443.164 194, 451.106 194 C 455.014 194, 460.914 194.700, 464.216 195.556 C 470.874 197.281, 471.492 197.127, 470.495 193.983 C 468.700 188.330, 452.065 185.797, 446.750 190.368 M 665.383 194.773 L 655.267 198.239 654.674 204.593 C 652.666 226.087, 630.111 254.353, 607.568 263.624 C 605.060 264.656, 603.006 265.797, 603.004 266.160 C 602.997 267.324, 620.140 268.294, 629.977 267.686 C 646.366 266.674, 673.303 256.965, 674.497 251.640 C 676.810 241.317, 678.246 227.377, 678.707 210.750 C 679.347 187.701, 680.831 189.481, 665.383 194.773 M 486.450 196.713 C 487.814 199.429, 491.628 208.102, 494.925 215.985 C 498.222 223.869, 501.326 230.726, 501.822 231.222 C 503.862 233.262, 524.775 225.569, 531.765 220.206 L 534.029 218.469 531.163 210.607 C 529.587 206.283, 527.660 202.389, 526.882 201.954 C 524.532 200.639, 509.749 197.094, 498.286 195.096 C 492.354 194.062, 486.706 192.892, 485.735 192.495 C 484.218 191.876, 484.319 192.471, 486.450 196.713 M 535.485 203.100 C 536.441 207.679, 544.057 223.769, 547.937 229.408 C 557.905 243.896, 574.820 257.144, 590.343 262.621 C 594.205 263.984, 594.544 263.917, 601.394 260.437 C 615.828 253.104, 628.294 242.454, 637.434 229.645 C 645.692 218.073, 652.226 198.871, 647.402 200.353 C 642.046 201.999, 614.346 206.104, 602.269 207.041 C 579.213 208.832, 551.111 205.968, 536.425 200.333 C 535.015 199.792, 534.879 200.195, 535.485 203.100 M 346 215.954 C 336.154 219.336, 328.504 229.905, 330.409 237.493 C 331.279 240.962, 332.198 240.604, 334.337 235.964 C 337.902 228.234, 346.232 222.353, 354.753 221.551 C 357.766 221.268, 358.431 220.837, 358.150 219.350 C 357.051 213.542, 354.830 212.921, 346 215.954 M 465.276 221.376 C 459.343 228.919, 462.236 246.777, 470.030 250.721 C 479.787 255.658, 489.306 248.029, 487.488 236.729 C 485.411 223.817, 471.124 213.942, 465.276 221.376 M 469.413 227.493 C 466.492 231.950, 469.827 238.048, 473.513 234.989 C 476.219 232.743, 474.909 225, 471.823 225 C 471.396 225, 470.311 226.122, 469.413 227.493 M 796.575 254.043 C 754.932 256.923, 715.956 267.320, 702.492 279.141 C 690.989 289.241, 695.074 307.345, 710.519 314.711 C 715.455 317.064, 716.777 320.531, 727.602 359.500 C 742.007 411.353, 747.192 435.592, 749.958 464 C 752.620 491.340, 754.075 498, 757.384 498 C 760.515 498, 761.525 496.725, 773.311 477.892 C 786.276 457.175, 788.358 454.028, 789.105 454.012 C 789.906 453.996, 797.246 469.854, 801.058 479.837 C 806.243 493.414, 810.493 494.206, 817.195 482.844 L 820.777 476.770 821.455 493.135 C 821.828 502.136, 822.216 599.255, 822.317 708.956 L 822.500 908.413 813 909.636 C 787.467 912.923, 770 921.986, 770 931.947 C 770 935.246, 776.494 941.500, 782.910 944.379 C 810.609 956.810, 872.505 955.761, 899.146 942.410 C 909.819 937.061, 912.660 930.875, 907.972 923.186 C 904.306 917.173, 888.169 911.370, 868.174 908.875 L 858.328 907.646 857.664 799.657 C 857.299 740.264, 857.008 646.631, 857.018 591.584 L 857.036 491.500 860.101 486 C 861.787 482.975, 865.107 475.775, 867.480 470 C 874.999 451.698, 872.800 451.925, 884.123 468.287 C 900.681 492.214, 905.099 497.500, 908.538 497.500 L 911.500 497.500 912.145 476 C 912.825 453.365, 915.266 435.935, 923 398.500 C 928.397 372.378, 945.852 313.222, 948.620 311.673 C 964.550 302.758, 966.015 282.987, 951.487 272.991 C 931.643 259.338, 855.209 249.990, 796.575 254.043 M 357.500 254.931 C 349.093 256.953, 345.583 262.552, 345.533 274.021 C 345.452 292.522, 361.079 303.575, 374.316 294.379 C 392.516 281.737, 378.896 249.786, 357.500 254.931 M 356.387 261.531 C 352.418 267.589, 358.924 274.076, 363.939 269.061 C 366.400 266.600, 366.552 264.233, 364.443 261.223 C 362.327 258.201, 358.473 258.348, 356.387 261.531 M 806 260.602 C 782.542 261.917, 753.416 266.296, 736.460 271.057 C 706.259 279.537, 696.107 290.466, 706.716 303.075 C 722.418 321.735, 828.350 330.074, 902 318.447 C 932.435 313.642, 947.919 306.997, 952.964 296.574 C 960.685 280.624, 934.602 268.764, 877 262.033 C 867.449 260.917, 818.123 259.923, 806 260.602 M 258.945 267.596 C 254.446 275.459, 245.406 286.581, 238.427 292.840 C 230.003 300.393, 217.883 305.904, 194 313.039 C 160.511 323.044, 149.203 330.678, 150.182 342.621 C 150.635 348.146, 152.985 347.655, 154.492 341.721 C 156.856 332.409, 163.646 328.471, 189.496 321.420 C 230.058 310.355, 246.954 299.398, 259.859 275.791 C 266.377 263.865, 266.963 262, 264.190 262 C 262.757 262, 261.190 263.672, 258.945 267.596 M 801.500 274.677 C 765.250 276.153, 729.776 283.368, 720.271 291.198 C 717.030 293.868, 724.392 298.889, 737.454 302.917 C 780.325 316.136, 902.992 313.549, 934.760 298.754 C 947.552 292.797, 934.830 283.143, 908.098 278.523 C 885.340 274.590, 842.022 273.027, 801.500 274.677 M 811.500 281.684 C 781.996 282.467, 757.619 285.897, 736.537 292.232 L 729.574 294.324 733.537 295.706 C 739.576 297.812, 753.368 300.692, 764.500 302.171 C 778.511 304.033, 873.365 304.044, 887.500 302.185 C 909.680 299.268, 930.679 294.115, 928.427 292.142 C 926.806 290.721, 912.526 287.056, 900.818 285.056 C 878.855 281.304, 856.950 280.477, 811.500 281.684 M 585.982 301.369 C 582.514 303.730, 572.305 317.009, 569.922 322.260 C 568.801 324.731, 568.923 325.290, 571.085 327.601 C 575.037 331.826, 591.974 345.546, 603.625 353.960 L 614.500 361.815 618.500 353.657 C 622.237 346.036, 622.500 344.927, 622.500 336.780 C 622.500 323.162, 617.413 320.375, 606.969 328.273 C 604.622 330.048, 602.115 331.934, 601.399 332.465 C 596.683 335.956, 600.402 327.425, 606.021 321.862 C 609.674 318.245, 609.747 318.030, 608.886 313.422 C 606.649 301.445, 594.932 295.280, 585.982 301.369 M 935.242 317.391 C 932.529 318.327, 930.681 320.686, 924.179 331.508 C 919.886 338.653, 913.295 349.225, 909.534 355 C 905.772 360.775, 902.693 365.950, 902.691 366.500 C 902.688 367.352, 907.347 375.441, 912.673 383.832 L 914.153 386.164 917.215 382.180 C 920.990 377.269, 924.554 367.241, 931.493 342 C 934.442 331.275, 937.350 321.200, 937.955 319.611 C 939.312 316.050, 939.257 316.005, 935.242 317.391 M 725.063 327.750 C 729.941 348.659, 739.177 376.473, 742.849 381.313 L 746.500 386.125 752.381 374.119 L 758.262 362.112 747.291 347.306 C 741.257 339.163, 734.634 330.025, 732.573 327 C 729.083 321.876, 727.152 320.244, 724.377 320.070 C 723.611 320.022, 723.828 322.458, 725.063 327.750 M 914.500 323.055 C 910.650 324.085, 901.763 325.732, 894.750 326.714 C 886.258 327.903, 882 328.912, 882 329.735 C 882 331.152, 890.502 347.600, 894.823 354.542 L 897.726 359.205 902.218 353.352 C 905.919 348.531, 920.681 326.836, 923.382 322.250 C 924.331 320.638, 923.115 320.748, 914.500 323.055 M 743.281 331.119 C 746.833 335.729, 752.340 343.498, 755.520 348.385 L 761.302 357.270 766.151 343.476 C 771.921 327.060, 771.832 328, 767.621 328 C 764.334 328, 745.366 324.923, 739.661 323.464 C 736.994 322.782, 737.211 323.243, 743.281 331.119 M 781 329.510 C 781 330.214, 796.118 352.836, 801.268 359.839 L 805.195 365.178 807.820 361.339 C 811.268 356.298, 825 332.806, 825 331.948 C 825 331.582, 821.288 331.218, 816.750 331.140 C 804.831 330.936, 785.871 329.965, 783.250 329.425 C 782.013 329.170, 781 329.209, 781 329.510 M 862 330.044 C 857.325 330.461, 848.888 330.958, 843.251 331.151 C 837.614 331.343, 833.001 331.687, 833.001 331.916 C 832.999 332.616, 842.011 346.975, 848.556 356.701 L 854.748 365.902 861.251 355.201 C 868.061 343.993, 876 330.112, 876 329.410 C 876 328.918, 873.247 329.043, 862 330.044 M 774.459 335.145 C 773.484 338.090, 770.750 345.193, 768.384 350.930 L 764.081 361.359 768.737 367.930 C 778.660 381.932, 786.290 392, 786.977 392 C 788.143 392, 801.145 371.950, 800.808 370.671 C 800.639 370.027, 797.048 364.324, 792.828 357.997 C 788.609 351.671, 783.148 342.736, 780.694 338.142 L 776.231 329.789 774.459 335.145 M 827.066 341.350 C 825.766 343.632, 821.165 351.048, 816.841 357.829 L 808.979 370.158 811.075 372.829 C 812.228 374.298, 817.394 380.105, 822.556 385.734 L 831.941 395.967 837.283 389.234 C 840.221 385.530, 844.522 379.914, 846.841 376.754 L 851.057 371.008 844.905 361.858 C 841.521 356.826, 836.655 349.219, 834.091 344.954 L 829.430 337.200 827.066 341.350 M 872.988 346.750 C 870.038 352.113, 865.684 359.800, 863.312 363.833 C 860.940 367.866, 859 371.299, 859 371.463 C 859 372.081, 874.160 391.510, 874.815 391.732 C 875.719 392.039, 894 366.541, 894 364.974 C 894 364.307, 892.469 361.228, 890.598 358.131 C 888.727 355.034, 885.479 349.012, 883.379 344.750 C 881.279 340.488, 879.289 337, 878.956 337 C 878.623 337, 875.938 341.387, 872.988 346.750 M 756 377.579 C 752.975 383.381, 750.357 388.527, 750.182 389.016 C 750.008 389.505, 752.491 392.739, 755.701 396.203 C 758.911 399.666, 763.720 405.348, 766.388 408.830 C 769.057 412.311, 771.574 414.786, 771.983 414.330 C 774.020 412.055, 783 398.569, 783 397.784 C 783 397.288, 780.372 393.421, 777.160 389.191 C 773.949 384.961, 769.158 378.238, 766.514 374.250 C 763.870 370.262, 761.660 367.007, 761.603 367.016 C 761.546 367.024, 759.025 371.778, 756 377.579 M 892 378.774 C 888.975 382.994, 884.845 388.741, 882.822 391.546 L 879.143 396.646 885.591 404.573 C 889.137 408.933, 892.446 412.500, 892.945 412.500 C 893.445 412.500, 896.924 408.498, 900.676 403.607 C 904.429 398.715, 908.273 393.725, 909.217 392.516 C 910.888 390.378, 910.767 390.058, 904.717 380.705 C 901.298 375.418, 898.275 371.094, 898 371.097 C 897.725 371.099, 895.025 374.554, 892 378.774 M 799.696 384.613 C 796.540 389.501, 793.290 394.433, 792.475 395.573 C 791.081 397.520, 791.464 398.216, 798.816 407.073 C 810.368 420.990, 809.274 420.575, 815.737 413.488 C 818.739 410.194, 822.530 405.825, 824.161 403.777 L 827.125 400.054 820.813 393.254 C 817.341 389.514, 812.460 384.040, 809.967 381.090 L 805.434 375.725 799.696 384.613 M 846.007 387.498 C 841.336 393.801, 837.373 399.382, 837.200 399.899 C 836.787 401.140, 853.989 420.125, 854.974 419.516 C 855.393 419.257, 859.165 414.317, 863.356 408.538 L 870.976 398.030 862.878 387.015 C 858.424 380.957, 854.717 376.008, 854.640 376.018 C 854.563 376.028, 850.678 381.194, 846.007 387.498 M 745.143 394.734 C 744.372 396.173, 744.309 397.683, 744.948 399.364 C 745.470 400.737, 747.520 410.091, 749.502 420.150 C 751.485 430.210, 753.197 438.531, 753.307 438.640 C 753.416 438.749, 756.756 434.551, 760.730 429.311 C 768.984 418.424, 769.074 420.102, 759.615 408.500 C 746.315 392.186, 746.441 392.307, 745.143 394.734 M 909.418 401.781 C 897.523 416.969, 896.471 418.754, 898.240 420.741 C 899.102 421.708, 902.021 425.727, 904.727 429.672 L 909.647 436.844 913.424 416.322 C 915.563 404.700, 916.824 395.424, 916.332 394.932 C 915.840 394.440, 912.841 397.410, 909.418 401.781 M 781.381 410.778 C 778.147 415.575, 775.345 419.853, 775.155 420.284 C 774.966 420.715, 778.160 426.174, 782.253 432.415 L 789.696 443.763 797.413 433.858 L 805.129 423.954 799.735 417.727 C 796.769 414.302, 792.749 409.375, 790.802 406.778 L 787.263 402.056 781.381 410.778 M 874 402.845 C 874 403.310, 870.600 408.305, 866.444 413.945 L 858.888 424.200 862.562 428.850 C 864.583 431.407, 867.837 435.615, 869.794 438.200 C 871.751 440.785, 873.669 442.705, 874.055 442.466 C 874.442 442.227, 878.013 436.849, 881.991 430.514 L 889.224 418.997 883.362 411.918 C 880.138 408.024, 877 404.200, 876.390 403.419 C 875.150 401.835, 874 401.558, 874 402.845 M 823.204 414.774 L 814.909 425.102 819.776 431.301 C 822.454 434.710, 826.227 440.071, 828.162 443.213 L 831.680 448.926 840.006 438.213 C 844.586 432.321, 848.784 426.912, 849.335 426.194 C 850.080 425.224, 848.536 423.035, 843.341 417.694 C 839.492 413.737, 835.254 409.138, 833.922 407.473 L 831.500 404.447 823.204 414.774 M 888.357 431.207 C 885.781 435.218, 882.415 440.625, 880.879 443.222 L 878.085 447.943 886.139 459.195 C 890.569 465.383, 896.512 474.248, 899.347 478.894 L 904.500 487.343 905.141 481.421 C 905.494 478.165, 905.832 471.536, 905.891 466.692 C 905.951 461.847, 906.478 454.800, 907.063 451.032 L 908.126 444.182 900.584 434.048 L 893.042 423.914 888.357 431.207 M 762.433 436.750 L 754.398 447.500 756.838 467.682 L 759.277 487.864 764.609 479.371 C 767.542 474.699, 773.330 465.943, 777.471 459.913 C 781.612 453.883, 785 448.690, 785 448.373 C 785 447.467, 771.561 426.029, 770.984 426.014 C 770.700 426.006, 766.852 430.837, 762.433 436.750 M 801.223 439.031 L 793.015 448.784 797.675 457.142 C 800.237 461.739, 804.013 469.257, 806.066 473.848 L 809.797 482.196 813.822 475.348 C 816.035 471.582, 820.056 465.309, 822.758 461.410 L 827.670 454.320 820.585 444.325 C 816.688 438.828, 812.584 433.193, 811.465 431.804 L 809.430 429.277 801.223 439.031 M 845.843 440.250 C 841.672 445.887, 837.701 451.419, 837.019 452.542 C 835.910 454.368, 836.861 456.137, 846.066 469.352 C 853.172 479.553, 856.590 483.697, 857.119 482.753 C 857.540 482, 860.182 474.336, 862.991 465.721 C 865.800 457.106, 868.524 449.794, 869.044 449.473 C 869.878 448.957, 855.326 430.229, 853.964 430.065 C 853.669 430.029, 850.015 434.613, 845.843 440.250 M 829.610 462.473 C 828.062 464.836, 828.016 473.533, 828.972 583.759 C 829.538 649.067, 829.896 752.225, 829.766 813 C 829.636 873.775, 829.816 923.950, 830.166 924.500 C 830.545 925.095, 834.910 925.371, 840.932 925.183 L 851.060 924.866 850.387 706.203 L 849.714 487.540 840.496 473.734 L 831.278 459.927 829.610 462.473 M 244.250 508.667 C 239.713 510.606, 236 512.500, 236 512.875 C 236 513.251, 238.850 516.382, 242.332 519.834 L 248.665 526.110 250.966 516.305 C 252.231 510.912, 253.458 506.163, 253.692 505.750 C 254.396 504.510, 252.883 504.977, 244.250 508.667 M 252.684 550.747 C 245.167 560.984, 228.763 574.718, 216.427 581.101 L 209.113 584.886 219.807 592.974 C 238.678 607.248, 247.913 610.240, 254.077 604.077 C 257.795 600.358, 257.849 596.775, 254.294 589.528 C 252.424 585.714, 251.909 583.691, 252.627 582.973 C 254.309 581.291, 256.235 582.715, 260.834 589.040 C 265.749 595.798, 266.591 596.085, 270.249 592.250 C 278.951 583.129, 275.582 569.307, 260.131 550.747 L 256.175 545.994 252.684 550.747 M 174.240 632.110 C 171.897 633.270, 169.059 635.513, 167.933 637.095 C 166.020 639.781, 165.736 639.873, 163.627 638.492 C 157.945 634.769, 143.792 636.258, 139.470 641.033 C 137.120 643.630, 136.306 653.708, 137.952 659.823 C 140.230 668.282, 149.111 675.013, 155.998 673.500 C 159.680 672.692, 161.356 675.923, 160.390 681.965 C 158.567 693.363, 168.260 702.930, 181.678 702.978 C 186.728 702.996, 203.111 701.270, 203.644 700.664 C 203.723 700.574, 203.170 697.575, 202.415 694 C 198.950 677.600, 202.847 654.449, 211 643.001 C 215.210 637.088, 210.097 631.877, 203.546 635.405 L 200.041 637.293 196.179 634.737 C 188.591 629.715, 180.931 628.798, 174.240 632.110 M 460.812 696.250 C 459.673 709.974, 450.088 720.984, 436.188 724.535 C 430.108 726.088, 429.723 726.072, 425.732 724.097 C 420.930 721.721, 421.176 721.510, 417.429 731.238 C 413.101 742.477, 400.267 751.194, 380.831 756.096 L 372.163 758.282 377.224 766.391 C 380.007 770.851, 385.483 779.120, 389.392 784.767 C 404.086 805.992, 405 808.413, 405 826.094 C 405 847.257, 407.771 857.580, 420.456 883.674 L 428.805 900.848 433.653 901.674 C 436.319 902.128, 444.800 902.481, 452.500 902.458 C 468.107 902.412, 473.618 901.232, 484.998 895.501 C 494.848 890.541, 494.741 890.899, 489.961 878.903 C 487.702 873.232, 483.665 862.646, 480.991 855.377 L 476.127 842.160 478.020 823.830 C 479.060 813.749, 480.381 803.250, 480.955 800.500 C 484.423 783.871, 483.147 751.632, 478.367 735.138 C 476.137 727.441, 462.254 691, 461.552 691 C 461.385 691, 461.052 693.362, 460.812 696.250 M 159.618 884.553 C 159.319 885.332, 158.095 891.942, 156.897 899.244 C 154.819 911.907, 154.794 912.780, 156.366 918.186 C 160.314 931.766, 179.165 944, 185.447 937.058 C 186.414 935.990, 188.432 931.178, 189.933 926.365 C 193.429 915.148, 195.596 913.879, 194.628 923.615 C 194.252 927.402, 193.680 931.964, 193.358 933.753 C 192.571 938.124, 198.486 941.222, 202.544 938.563 C 206.378 936.051, 220 910.261, 220 905.514 C 220 905.232, 216.738 904.997, 212.750 904.993 C 197.855 904.979, 178.420 897.851, 166.010 887.851 C 161.698 884.376, 160.018 883.510, 159.618 884.553 M 492.500 897.212 C 480.344 905.168, 466.800 908.459, 449.125 907.750 C 442.181 907.472, 435.712 906.916, 434.750 906.515 C 431.787 905.281, 432.656 908.663, 437.673 917.899 C 444.131 929.785, 448.784 936.629, 451.714 938.549 C 462.324 945.500, 483.351 945.771, 485.505 938.983 C 486.330 936.385, 485.439 928.351, 483.519 921.074 C 482.314 916.503, 482.332 915.810, 483.676 915.294 C 485.720 914.510, 486.432 915.820, 490.243 927.376 C 493.655 937.721, 494.390 938.621, 498.568 937.572 C 501.641 936.801, 504 931.845, 504 926.160 C 504 921.425, 499.869 904.733, 497.335 899.232 L 495.500 895.248 492.500 897.212 M 809 918.015 C 789.214 921.508, 778 926.019, 778 930.484 C 778 942.759, 834.020 950.028, 873.724 942.906 C 887.768 940.386, 901.058 934.619, 902.704 930.329 C 904.736 925.034, 883.355 917.286, 865.119 916.709 L 858.500 916.500 858.189 921.988 C 857.693 930.765, 857.216 931, 839.880 931 C 822.799 931, 823 931.112, 823 921.566 C 823 915.072, 824.096 915.350, 809 918.015" stroke="none" fill="#1a1a1a" fill-rule="evenodd"/>
</svg>