<svg xmlns="http://www.w3.org/2000/svg" width="1024" height="1024" viewBox="0 0 1024 1024" version="1.1">
	<path d="M 455 30.132 C 436.283 35.149, 423.429 45.949, 417.933 61.276 C 417.070 63.684, 416.098 64.868, 415.253 64.543 C 394.173 56.454, 370.195 63.153, 356.345 81 C 350.776 88.176, 346.083 99.356, 345.565 106.679 L 345.159 112.428 337.830 114.032 C 321.875 117.522, 312.803 124.586, 305.763 139 C 299.591 151.637, 298.491 161.201, 302.080 171 C 305.322 179.849, 305.350 180, 303.797 180 C 301.218 180, 294.274 186.857, 292.590 191.066 C 290.831 195.464, 290.198 205.537, 291.365 210.561 C 292.046 213.493, 291.854 213.726, 286.816 216.061 C 268.110 224.734, 221.226 261.480, 195 288.024 C 176.624 306.622, 170.685 318.044, 170.571 335 C 170.505 344.684, 170.716 345.890, 173.282 350.517 C 190.158 380.949, 237.591 390.966, 277.587 372.545 C 288.751 367.403, 299.586 359.519, 311.609 347.790 L 322.719 336.951 323.346 342.226 C 324.529 352.182, 329.862 371.509, 334.429 382.398 C 336.943 388.391, 339 393.567, 339 393.899 C 339 394.232, 336.952 395.590, 334.448 396.918 C 320.710 404.206, 310.916 423.848, 313.876 438.176 C 315.268 444.917, 314.902 446, 311.234 446 C 307.605 446, 296.686 457.259, 293.441 464.348 C 290.053 471.748, 289.233 480.703, 291.419 486.427 L 293.120 490.880 287.310 496.737 C 280.319 503.784, 274.495 513.429, 272.885 520.624 C 271.852 525.239, 271.339 525.986, 268.822 526.539 C 264.694 527.446, 256.442 536.289, 253.007 543.486 C 248.557 552.810, 246.876 560.360, 247.164 569.737 C 247.410 577.732, 247.326 578.071, 244.316 581.237 C 235.596 590.413, 231.400 610.273, 235.580 622.585 L 237.161 627.239 234.202 630.370 C 227.816 637.126, 219.497 649.754, 211.250 665.208 C 204.851 677.198, 214.937 691.156, 239 703.610 C 249.178 708.878, 260.926 709.209, 270.361 704.495 C 280.912 699.224, 291.792 686.664, 299.601 670.740 C 302.235 665.371, 304.780 662.839, 303.613 666.750 C 299.962 678.985, 300.242 690.132, 304.446 700 C 307.804 707.878, 307.804 707.683, 304.389 717 C 300.545 727.491, 300.270 747.305, 303.846 756.252 C 308.165 767.057, 317.454 775.985, 329.212 780.631 L 333.923 782.493 333.932 793.496 C 333.940 804.468, 335.366 811.908, 338.699 818.376 C 340.074 821.043, 340.003 821.586, 337.717 825.876 C 329.955 840.440, 329.602 865.625, 337.049 873.552 C 338.944 875.569, 338.960 875.855, 337.409 880.081 C 333.874 889.712, 335.840 906.002, 341.599 914.791 C 343.101 917.083, 343.304 919.692, 343.096 933.975 C 342.642 965.194, 347.354 976.953, 362.826 983.206 C 368.174 985.368, 369.647 985.486, 388.500 985.249 C 411.156 984.965, 416.398 983.919, 422.851 978.396 C 430.020 972.259, 432.958 957.802, 431.084 937.884 L 430.115 927.584 434.377 923.028 C 444.023 912.715, 447.477 902.821, 446.793 887.454 L 446.340 877.267 450.689 873.035 C 459.092 864.858, 466.296 844.628, 464.529 834.169 L 463.879 830.324 469.633 828.122 C 475.209 825.988, 485 819.408, 485 817.795 C 485 816.376, 486.835 816.948, 490.706 819.575 C 492.793 820.991, 495.681 822.386, 497.123 822.675 C 499.704 823.191, 499.755 823.366, 500.272 833.350 C 500.895 845.371, 502.762 851.960, 507.572 859.107 C 511.005 864.208, 511.077 864.509, 509.975 869.104 C 506.532 883.455, 509.764 901.177, 517.370 909.653 L 521.719 914.500 522.257 931.500 C 523.265 963.314, 529.898 973.110, 552.432 976.065 C 566.625 977.926, 596.326 976.900, 602 974.353 C 615.223 968.418, 617.163 957.707, 610.433 927.772 C 607.903 916.514, 607.861 915.855, 609.399 911.344 C 610.279 908.759, 611 904.862, 611 902.684 C 611 899.440, 611.739 897.922, 615.085 894.291 C 625.221 883.296, 628.806 868.023, 625.546 849.737 L 624.162 841.973 627.616 836.237 C 635.295 823.485, 636.840 806.711, 631.599 793 C 631.195 791.942, 632.917 790.395, 637.446 787.750 C 654.165 777.984, 663.543 752.902, 657.647 733.722 L 656.179 728.944 661.567 723.848 C 667.896 717.863, 670.846 713.077, 674.113 703.500 C 679.047 689.031, 676.849 665.144, 669.552 653.952 C 667.263 650.441, 667.258 650.369, 669.076 646.952 C 670.087 645.054, 671.420 641.018, 672.041 637.985 L 673.168 632.469 682.334 629.524 C 691.161 626.688, 709.688 617.999, 722.777 610.558 L 729.055 606.989 741.451 625.885 C 748.268 636.279, 754.343 644.948, 754.949 645.150 C 755.740 645.413, 756.231 683.048, 756.689 778.573 L 757.327 911.629 748.414 912.922 C 720.377 916.990, 701.633 923.001, 688.150 932.250 C 676.209 940.441, 679.510 959.510, 694.178 967.071 C 714.995 977.802, 778.238 981.827, 818.520 974.984 C 849.556 969.713, 863 960.906, 863 945.848 C 863 940.843, 859.947 934.054, 856.824 932.115 C 847.536 926.346, 830.725 919.743, 818.118 916.912 C 809.483 914.973, 791.512 912.021, 788.280 912.010 L 785.060 912 784.780 883.250 C 784.626 867.438, 784.369 805.060, 784.209 744.634 L 783.918 634.767 789.459 628.958 C 793.439 624.785, 795 622.371, 795 620.389 C 795 618.857, 789.215 606.001, 782 591.500 C 774.850 577.129, 769 565.010, 769 564.568 C 769 564.126, 770.797 561.967, 772.994 559.770 C 792.626 540.139, 773.856 490.941, 744.644 485.461 C 741.129 484.802, 740.628 484.219, 736.490 475.980 C 732.595 468.225, 732.193 466.814, 733.036 463.873 C 738.401 445.168, 732.317 424.322, 717.011 408.963 C 710.267 402.196, 698.968 395, 695.086 395 C 694.560 395, 692.996 394.569, 691.609 394.041 L 689.088 393.083 692.172 386.291 C 697.959 373.547, 703 348.522, 703 332.539 C 703 326, 702.608 326.138, 709.231 330.357 C 721.298 338.045, 735.572 341.454, 755.500 341.406 C 772.380 341.366, 780.808 339.625, 792.500 333.764 C 811.262 324.359, 818.677 303.729, 809.978 285.139 C 803.084 270.406, 801.204 268.539, 746.841 222.396 C 740.428 216.953, 729.172 207.100, 721.828 200.500 C 714.483 193.900, 706.022 186.407, 703.025 183.850 L 697.576 179.199 701.859 174.850 C 709.818 166.766, 711.504 162.232, 711.473 149 C 711.448 138.211, 711.239 137.016, 708.097 129.670 C 701.061 113.225, 685.187 102, 668.966 102 L 665.353 102 664.215 95.881 C 658.759 66.540, 625.207 46.461, 601.540 58.372 C 595.746 61.289, 594.760 61.525, 594.250 60.122 C 592.970 56.601, 586.580 47.274, 582.649 43.191 C 573.025 33.195, 562.348 29.561, 542.500 29.525 C 526.386 29.496, 522.218 30.813, 511.949 39.177 L 506.410 43.689 501.955 39.789 C 489.168 28.595, 473.078 25.286, 455 30.132 M 531.329 38.934 C 524.651 41.338, 518.690 45.482, 512.710 51.877 C 510.075 54.695, 507.525 57, 507.043 57 C 506.561 57, 503.428 54.148, 500.080 50.662 C 489.201 39.333, 476.131 35.633, 458.537 38.903 C 441.289 42.108, 427.033 55.482, 425.304 70.078 C 424.736 74.877, 424.638 75, 421.376 75 C 419.536 75, 414.086 73.839, 409.265 72.420 C 395.290 68.308, 384.919 70.361, 371.276 79.942 C 358.822 88.688, 351.632 105.045, 355.466 115.906 C 356.321 118.329, 356.799 120.534, 356.528 120.805 C 356.257 121.076, 352.090 121.378, 347.268 121.475 C 340.210 121.618, 337.389 122.158, 332.801 124.248 C 313.484 133.049, 304.600 159.284, 314.485 178.336 C 317.536 184.218, 317.644 186, 314.950 186 C 306.750 186, 298.660 196.796, 299.776 206.250 L 300.219 210 309.609 210 C 319.760 210, 320.194 210.286, 317.853 215.424 C 316.568 218.243, 313.262 219.531, 304.876 220.477 C 285.602 222.654, 209.224 280.807, 189.694 308.176 C 178.310 324.129, 175.943 334.002, 180.939 344.692 C 193.615 371.811, 238.129 380.269, 274.660 362.499 C 307.102 346.718, 331.998 313.445, 342.900 271.295 C 344.636 264.583, 346.721 257.209, 347.532 254.908 C 348.887 251.069, 348.864 250.617, 347.254 249.395 C 344.649 247.418, 344.569 247.478, 340.525 254.392 C 328.461 275.022, 304.040 299.344, 282.335 312.348 C 261.974 324.547, 224.654 337.863, 213.766 336.815 C 211.220 336.569, 210.427 335.986, 210.170 334.168 C 209.633 330.378, 212.619 328.218, 220.867 326.428 C 268.115 316.177, 303.046 292.975, 328.609 254.863 L 337.085 242.226 334.189 237.863 C 329.986 231.529, 329 227.755, 329 218.006 C 329 203.959, 336.003 192.529, 343.463 194.401 C 346.989 195.286, 347.178 197.518, 344.007 200.836 C 338.807 206.276, 336.693 218.550, 339.500 226.999 C 344.585 242.311, 361.315 248.803, 378.365 242.082 C 390.800 237.181, 397.790 224.440, 394.714 212.281 C 391.845 200.936, 395.424 200.179, 405.258 210.051 C 409.121 213.930, 414 217.980, 416.101 219.051 C 425.445 223.818, 443.961 218.997, 455.618 208.762 C 459.667 205.207, 464.977 196.507, 464.991 193.405 C 465 191.206, 467.852 188, 469.798 188 C 470.425 188, 472.573 190.588, 474.571 193.750 C 481.910 205.370, 490.015 211.553, 502.932 215.388 C 524.817 221.885, 548.167 208.964, 558.654 184.554 C 561.946 176.891, 564.127 175.954, 567.659 180.681 C 583.657 202.098, 607.766 207.889, 626.699 194.863 C 633.982 189.852, 636.500 185.025, 636.500 176.072 C 636.500 171.907, 636.864 167.938, 637.309 167.250 C 638.428 165.521, 642.491 165.682, 644.012 167.515 C 646.116 170.049, 646.482 181.912, 644.595 186.426 C 642.971 190.314, 642.980 190.369, 645.673 193.180 C 655.480 203.417, 671.721 203.311, 682.135 192.941 C 688.668 186.436, 689.216 183.088, 684.587 177.964 C 680.008 172.896, 680.078 172, 685.050 172 C 700.713 172, 708.201 150.643, 698.942 132.377 C 694.814 124.231, 686.757 115.665, 680.708 112.989 C 674.816 110.383, 663.612 110.115, 659.055 112.472 C 654.878 114.631, 653.894 113.399, 655.202 107.650 C 659.173 90.193, 644.770 71.039, 623.540 65.543 C 612.629 62.719, 605.999 63.960, 597.548 70.412 C 594.962 72.385, 592.462 74, 591.992 74 C 591.521 74, 589.019 69.984, 586.431 65.076 C 577.519 48.174, 569.309 41.653, 553.057 38.570 C 542.429 36.554, 537.720 36.633, 531.329 38.934 M 822.038 105.500 C 822.046 110.689, 822.844 121.610, 825.503 152.883 C 826.363 162.994, 826.898 171.435, 826.693 171.641 C 826.487 171.847, 823.209 172.407, 819.409 172.886 C 798.481 175.524, 783.442 193.387, 793.799 203.306 C 803.662 212.754, 821.715 209.913, 833.300 197.089 C 835.384 194.783, 837.519 191.765, 838.045 190.383 C 839.351 186.946, 839.251 175.337, 837.893 172.799 C 837.283 171.661, 836.577 167.528, 836.323 163.615 C 836.069 159.702, 834.993 149.525, 833.932 141 C 831.225 119.239, 831.068 120.319, 836.355 124.257 C 838.750 126.040, 843.442 129.453, 846.781 131.840 C 857.681 139.631, 861.125 147.357, 858.582 158.312 C 856.073 169.119, 856.963 170.118, 863.281 163.586 C 869.303 157.361, 870.489 150.054, 866.992 140.708 C 864.226 133.315, 859.476 128.137, 847.991 119.994 C 842.597 116.169, 835.336 110.330, 831.857 107.020 C 825.406 100.881, 824.012 100.037, 823.985 102.250 C 823.974 103.083, 823.646 103, 823 102 C 822.304 100.923, 822.033 101.909, 822.038 105.500 M 693.645 193.277 C 692.507 197.811, 685.785 204.224, 678.762 207.477 L 671.958 210.629 677.564 219.564 C 699.253 254.135, 721.394 273.054, 756.471 286.988 C 766.703 291.053, 768 291.981, 768 295.241 C 768 297.842, 767.744 298, 763.529 298 C 747.961 298, 708.493 274.296, 692.943 255.606 C 689.949 252.009, 687.360 249.472, 687.188 249.968 C 687.017 250.465, 688.676 256.413, 690.876 263.186 C 694.942 275.705, 700.345 298.206, 701.582 307.775 L 702.264 313.049 711.037 318.917 C 725.383 328.513, 738.240 332.395, 755 332.191 C 792.145 331.740, 812.704 311.858, 800.776 287.924 C 793.977 274.281, 787.944 268.460, 735.595 225.029 C 730.697 220.966, 723.947 215.094, 720.595 211.981 C 713.410 205.308, 695.889 191, 694.903 191 C 694.526 191, 693.960 192.025, 693.645 193.277 M 562.031 198.233 C 552.989 213.712, 538.137 223.231, 520.233 225.021 C 502.173 226.826, 488.439 222.389, 476.447 210.874 L 470.335 205.005 468.947 207.599 C 464.527 215.857, 451.207 224.517, 437.590 227.985 C 423.955 231.458, 415.209 230.448, 407.410 224.499 L 404.211 222.059 403.606 225.280 C 400.387 242.396, 385.651 253.403, 365.866 253.468 L 356.233 253.500 354.518 261.500 C 350.348 280.947, 342.037 303.241, 333.943 316.689 C 329.306 324.394, 327.877 329.188, 329.853 330.409 C 330.323 330.700, 331.006 334.157, 331.372 338.093 C 334.961 376.714, 350.759 403.673, 384.239 428.313 C 445.495 473.396, 539.433 483.272, 612.750 452.337 C 618.530 449.898, 619 449.464, 619 446.560 C 619 444.833, 619.682 440.738, 620.515 437.460 C 626.522 413.829, 646.080 396.460, 670.508 393.062 C 679.965 391.747, 679.999 391.718, 684.082 381.500 C 692.115 361.401, 694.993 327.481, 690.659 304 C 686.786 283.019, 676.213 247.774, 667.260 226 C 660.935 210.617, 660.743 210.358, 654.282 208.480 C 647.127 206.400, 643.252 204.474, 639.882 201.325 L 637.263 198.878 631.438 202.959 C 613.577 215.470, 585.224 212.472, 569.493 196.408 L 565.486 192.317 562.031 198.233 M 625.123 227.374 C 619.815 229.294, 616.221 234.783, 619.104 236.565 C 619.712 236.940, 623.523 236.680, 627.572 235.988 C 636.011 234.544, 638.660 235.509, 641.536 241.070 C 643.770 245.390, 648.033 244.915, 649.378 240.197 C 652.301 229.944, 638.373 222.580, 625.123 227.374 M 444.138 248.214 C 436.612 251.861, 432.270 259.899, 435.035 265.066 C 436.615 268.017, 438.418 267.416, 442.336 262.634 C 447.666 256.130, 451.924 254.422, 458.738 256.057 C 463.353 257.164, 464.299 257.145, 465.090 255.929 C 466.254 254.140, 465.343 250.054, 463.267 247.750 C 460.929 245.155, 449.897 245.423, 444.138 248.214 M 657.667 287.667 C 657.300 288.033, 657 290.751, 657 293.707 C 657 308.702, 641.837 317.570, 629.336 309.888 C 625.967 307.817, 620.624 300.145, 619.665 296 C 618.580 291.310, 616.647 289.583, 614.041 290.978 C 611.945 292.100, 611.787 292.716, 612.260 297.927 C 614.264 320.031, 640.423 330.214, 656.974 315.333 C 664.898 308.209, 668.649 295.818, 664.965 288.934 C 663.954 287.045, 659.126 286.207, 657.667 287.667 M 482.553 300.228 C 481.402 301.870, 481.158 303.713, 481.625 307.231 C 483.646 322.464, 471.092 333.785, 456.790 329.627 C 450.084 327.678, 446.064 323.606, 442.103 314.750 C 439.538 309.015, 438.707 308, 436.577 308 C 429.159 308, 430.614 320.736, 439.138 330.419 C 455.934 349.501, 489.670 339.715, 492.579 314.917 C 493.992 302.870, 487.433 293.261, 482.553 300.228 M 593.405 341.420 C 588.236 347.604, 581.637 351, 574.793 351 C 569.828 351, 568.672 350.523, 561.455 345.500 C 553.161 339.727, 551.039 339.043, 549.011 341.487 C 544.404 347.037, 559.404 358.723, 573.640 360.674 L 578 361.272 578 366.926 C 578 378.751, 572.845 391.089, 566.016 395.608 C 556.527 401.888, 545.573 398.974, 535.244 387.424 C 532.085 383.891, 528.825 381.008, 528 381.016 C 522.976 381.065, 522.401 386.237, 526.743 392.312 C 529.211 395.765, 529.867 397.904, 530.475 404.500 C 532.522 426.672, 539.704 440.498, 550.922 443.859 C 569.594 449.453, 586.177 438.128, 587.735 418.716 C 588.334 411.254, 590.151 408.575, 595.611 407.105 C 607.426 403.923, 620.300 390.679, 620.178 381.832 C 620.079 374.627, 616.700 373.833, 612.587 380.048 C 602.753 394.908, 590.841 401.986, 586.589 395.496 C 584.007 391.555, 583.690 387.780, 585.448 381.924 C 586.505 378.404, 587.015 373.420, 586.900 367.728 L 586.724 358.956 591.469 355.812 C 597.725 351.669, 604 343.706, 604 339.910 C 604 334.902, 598.157 335.735, 593.405 341.420 M 573.948 401.563 C 572.760 402.994, 572.868 403.150, 574.837 402.846 C 576.070 402.656, 577.095 402.061, 577.115 401.525 C 577.176 399.842, 575.358 399.864, 573.948 401.563 M 340.863 404.041 C 326.585 411.464, 318.179 431.537, 324.851 442.278 C 327.717 446.892, 327.107 447.907, 319.020 451.990 C 311.684 455.693, 303.161 463.436, 300.871 468.479 C 295.610 480.059, 302.570 494, 313.612 494 C 319.365 494, 320.576 499.304, 315.140 500.691 C 311.772 501.550, 304.260 501.558, 300.922 500.706 C 294.799 499.143, 282.670 514.640, 280.018 527.415 C 279.045 532.100, 278.559 532.838, 276.128 533.324 C 264.748 535.600, 252.842 559.489, 255.844 574.022 C 257.498 582.033, 257.325 583.531, 254.603 584.771 C 248.458 587.571, 242.924 599.469, 242.824 610.095 C 242.740 619.038, 245.438 624.777, 251.666 628.902 C 255.726 631.591, 258.307 632.321, 267 633.237 C 269.086 633.456, 269.510 634.039, 269.559 636.752 C 269.761 647.926, 290.639 659.121, 303.616 655.014 C 312.648 652.156, 317.574 646.499, 320.954 635.104 L 322.617 629.500 327.730 628.869 C 337.421 627.672, 347.213 617.954, 350.654 606.117 C 352.455 599.922, 352.146 584.746, 350.178 582.778 C 348.075 580.675, 348.911 578.434, 352.250 577.224 C 361.813 573.757, 367.858 564.062, 368.724 550.804 C 369.352 541.187, 370.206 539, 373.335 539 C 376.886 539, 378 540.947, 378 547.151 C 378 559.965, 373.053 572.931, 365.513 579.882 L 360.991 584.050 361.616 590.779 C 363.428 610.279, 348.804 633.546, 332.605 636.934 C 330.257 637.425, 329.475 638.333, 328.471 641.734 C 326.718 647.669, 322.679 654.196, 318.476 657.887 C 309.086 666.132, 307.528 687.985, 315.322 702.115 L 318.420 707.731 315.260 714.615 C 308.021 730.386, 308.301 747.002, 316.009 759.014 C 321.681 767.853, 326.313 770.855, 337.442 772.907 C 343.902 774.099, 345.242 775.217, 344.044 778.417 C 340.621 787.564, 342.266 804.390, 347.745 816.262 L 351.326 824.024 349.221 826.265 C 343.858 831.973, 339.144 849.153, 340.540 857.899 C 341.720 865.286, 342.185 866.283, 346.696 871.106 L 351.311 876.040 349.072 878.423 C 344.953 882.808, 343.773 894.506, 346.518 903.750 C 353.151 926.084, 412.467 932.050, 431.261 912.273 C 437.074 906.156, 439.776 890.474, 436.907 879.500 C 434.611 870.721, 434.549 871.216, 438.144 869.709 C 448.409 865.408, 456 851.257, 456 836.421 L 456 831.262 452.357 830.670 C 447.998 829.963, 444 826.502, 444 823.436 C 444 821.310, 444.430 821.207, 454.750 820.853 C 469.413 820.350, 476.958 815.844, 483.014 803.972 C 485.637 798.832, 486.281 798.948, 490.517 805.328 C 496.176 813.852, 504.266 816.354, 518.848 814.092 C 530.637 812.262, 536.794 809.635, 542.502 803.998 C 549.306 797.278, 552.011 797.516, 551.993 804.832 C 551.971 813.899, 536.431 822.662, 518.609 823.656 C 506.153 824.352, 507.035 823.465, 508.639 833.670 C 510.378 844.742, 511.169 846.796, 517.152 855.780 C 522.774 864.222, 522.567 863.395, 519.973 867.038 C 514.536 874.673, 517.680 897.330, 525.282 905.298 C 534.569 915.033, 560.561 921.944, 577 919.049 C 596.183 915.671, 601.984 911.251, 602.566 899.569 C 602.858 893.718, 603.066 893.297, 608.366 887.842 C 618.230 877.689, 620.759 860.134, 614.780 843.320 C 613.725 840.353, 613.927 839.779, 617.792 834.770 C 627.253 822.506, 628.371 807.601, 620.934 792.868 C 616.936 784.949, 617.521 783, 623.896 783 C 635.419 783, 647.343 769.132, 650.121 752.500 C 651.364 745.063, 649.065 732.786, 645.469 727.652 C 644.661 726.498, 644 724.305, 644 722.777 C 644 720.146, 644.241 720, 648.566 720 C 654.635 720, 656.477 718.856, 660.476 712.604 C 670.103 697.556, 670.096 672.005, 660.461 657.308 L 657.057 652.117 659.531 646.713 C 660.892 643.741, 662.532 638.684, 663.177 635.475 C 666.023 621.301, 657.916 594.751, 646.545 581.007 C 641.246 574.602, 641.118 573.649, 644.658 566.881 C 649.575 557.475, 649.157 527.338, 643.836 507.615 C 641.870 500.330, 641.092 499.001, 634.860 492.280 C 627.293 484.119, 621.915 474.145, 620.021 464.760 L 618.862 459.020 616.181 460.390 C 606.807 465.180, 577.868 473.043, 557.013 476.465 C 480.094 489.089, 399.292 463.491, 353.407 411.963 C 349.752 407.858, 346.252 403.971, 345.631 403.325 C 344.768 402.429, 343.638 402.598, 340.863 404.041 M 666.500 404.732 C 664.027 405.350, 663.296 406.424, 661.896 411.500 C 661.289 413.700, 660.277 415.831, 659.647 416.235 C 659.016 416.639, 661.087 417.061, 664.250 417.172 C 676.258 417.596, 675.304 417.881, 676.552 413.500 C 679.044 404.759, 679.125 404.015, 677.512 404.634 C 676.681 404.953, 676 406.011, 676 406.985 C 676 409.012, 673.295 411.628, 672.264 410.597 C 671.885 410.219, 672.050 409.142, 672.630 408.205 C 674.812 404.675, 672.338 403.273, 666.500 404.732 M 683.387 410.216 L 681.321 416.569 690.102 416.771 C 698.741 416.969, 698.917 416.926, 700.942 414.082 C 702.074 412.492, 703 410.898, 703 410.540 C 703 409.546, 692.956 405.220, 688.976 404.500 L 685.453 403.862 683.387 410.216 M 539 405.557 C 539 406.679, 541.230 415.635, 542.720 420.500 C 548.953 440.849, 572.173 439.986, 576.837 419.231 L 577.731 415.252 571.615 415.676 C 564.788 416.149, 561.086 414.790, 559.513 411.232 C 558.755 409.518, 557.689 409, 554.919 409 C 552.936 409, 548.697 408.100, 545.500 407 C 539.052 404.782, 539 404.770, 539 405.557 M 652.500 409.417 C 646.220 412.309, 639.851 418.716, 635.425 426.596 C 631.154 434.198, 631.136 435, 635.250 434.401 C 641.561 433.482, 642.534 436.974, 637.484 442.423 C 635.123 444.971, 634.921 445.011, 632.016 443.508 L 629 441.949 629 446.262 C 629 450.416, 629.119 450.583, 632.250 450.793 C 634.038 450.913, 636.625 451.241, 638 451.522 C 640.372 452.005, 640.589 451.660, 642.230 444.766 C 643.477 439.527, 644.695 436.858, 646.595 435.199 C 649.149 432.969, 649.192 432.750, 647.964 428.199 C 646.561 423, 644.460 420, 642.223 420 C 641.055 420, 641 419.704, 641.958 418.551 C 642.868 417.454, 644.828 417.212, 650.034 417.554 L 656.908 418.006 657.541 414.253 C 657.890 412.189, 658.391 409.712, 658.655 408.750 C 659.264 406.530, 658.619 406.600, 652.500 409.417 M 705 415.383 C 705 416.628, 707.894 417.986, 710.500 417.964 C 711.622 417.954, 706.925 414.057, 705.750 414.022 C 705.337 414.010, 705 414.623, 705 415.383 M 677.999 425.656 C 673.502 433.625, 673.818 434.730, 680.750 435.271 C 683.913 435.517, 687.468 436.048, 688.651 436.450 C 690.491 437.076, 690.904 436.712, 691.516 433.926 C 691.909 432.136, 693.324 428.615, 694.660 426.103 L 697.089 421.534 694.295 420.755 C 692.758 420.327, 689.137 420.059, 686.249 420.159 C 681.007 420.342, 680.993 420.351, 677.999 425.656 M 650.500 422.833 C 649.545 423.788, 650.008 426.151, 651.429 427.571 C 653.541 429.684, 653.952 429.356, 653.814 425.667 C 653.701 422.669, 652.064 421.269, 650.500 422.833 M 699.695 426.682 C 698.152 429.222, 696.633 432.583, 696.320 434.150 C 695.763 436.933, 695.852 437.001, 700.125 437.024 C 702.531 437.037, 706.217 437.446, 708.316 437.933 C 711.486 438.669, 712.227 438.538, 712.690 437.160 C 712.997 436.247, 714.339 433.035, 715.673 430.022 C 718.701 423.182, 717.635 421.984, 708.559 422.032 L 702.500 422.063 699.695 426.682 M 657.678 424.750 C 657.373 425.712, 656.351 427.681, 655.406 429.124 C 652.457 433.632, 653.943 434.944, 661.502 434.506 L 668.109 434.124 670.550 429.312 C 673.841 422.825, 673.978 423, 665.617 423 C 659.463 423, 658.141 423.291, 657.678 424.750 M 719.125 432.766 C 717.013 436.713, 717.665 439.787, 720.500 439.245 C 723.298 438.710, 723.639 436.781, 721.590 433.082 C 720.252 430.668, 720.248 430.667, 719.125 432.766 M 650 441.041 C 650 441.984, 650.675 443.315, 651.500 444 C 652.325 444.685, 653 446.005, 653 446.934 C 653 449.280, 656.681 453, 659.004 453 C 661.151 453, 662.863 450.452, 664.690 444.540 C 666.233 439.543, 666.390 439.652, 657.479 439.476 C 651.025 439.348, 650 439.563, 650 441.041 M 669.750 445.932 C 666.149 453.672, 666.145 453.659, 672.250 454.325 C 675.138 454.641, 678.664 455.185, 680.086 455.534 C 682.533 456.136, 682.808 455.792, 685.171 449.162 L 687.669 442.154 683.392 441.077 C 674.335 438.797, 672.818 439.337, 669.750 445.932 M 690.615 447.938 C 688.226 455.241, 688.339 455.513, 693.750 455.530 C 696.362 455.538, 699.625 455.869, 701 456.265 C 703.284 456.923, 703.749 456.480, 706.390 451.124 C 710.101 443.599, 709.634 443, 700.056 443 L 692.230 443 690.615 447.938 M 714.645 446.193 C 713.798 449.357, 713.847 452.024, 714.750 451.882 C 716.965 451.532, 719.081 452.244, 722.285 454.418 C 726.562 457.321, 727.456 456.221, 726.422 449.326 C 725.787 445.096, 725.688 445, 721.968 445 C 719.876 445, 717.511 444.750, 716.713 444.443 C 715.780 444.085, 715.043 444.709, 714.645 446.193 M 646 451 C 646 453.069, 648.231 453.616, 651.522 452.353 C 652.859 451.840, 652.542 451.427, 649.989 450.353 C 645.912 448.639, 646 448.625, 646 451 M 629.044 455.633 C 629.068 456.110, 629.646 459.185, 630.328 462.467 L 631.569 468.434 633.706 464.967 C 636.981 459.655, 637.653 456.003, 635.358 455.986 C 634.336 455.979, 632.487 455.701, 631.250 455.370 C 630.013 455.038, 629.020 455.157, 629.044 455.633 M 642.451 457.388 C 640.855 462.061, 639.157 466.762, 638.575 468.127 C 637.995 469.486, 638.840 469.867, 643.690 470.437 C 646.886 470.812, 650.186 471.315, 651.025 471.555 C 652.961 472.110, 655.737 466.979, 656.612 461.231 C 657.144 457.733, 656.998 457.063, 655.803 457.522 C 655.001 457.830, 651.754 457.676, 648.588 457.179 C 644.524 456.542, 642.719 456.603, 642.451 457.388 M 663.320 460.217 C 661.685 462.360, 659 468.700, 659 470.420 C 659 471.621, 659.608 471.885, 661.358 471.446 C 662.655 471.121, 665.410 471.562, 667.480 472.427 C 673.329 474.871, 674.217 474.436, 677.672 467.431 C 681.318 460.039, 681.869 460.637, 670.400 459.526 C 666.026 459.102, 664.022 459.298, 663.320 460.217 M 691.624 460.918 C 685.750 461.500, 685.747 461.502, 683.983 466 C 681.328 472.770, 681.034 472.757, 695.750 466.503 C 699.031 465.109, 700 464.161, 700 462.348 C 700 461.047, 699.443 460.075, 698.750 460.168 C 698.063 460.261, 694.856 460.598, 691.624 460.918 M 704.500 469.150 C 677.620 484.056, 670.625 491.481, 675.151 500.304 C 676.194 502.337, 677.213 504, 677.415 504 C 677.617 504, 681.389 500.962, 685.796 497.250 C 697.968 486.998, 712.648 479.614, 720.709 479.690 C 727.917 479.758, 728.203 479.279, 724.868 472.741 C 721.743 466.616, 718.835 462.997, 717.062 463.025 C 716.203 463.038, 710.550 465.794, 704.500 469.150 M 636.469 476.750 C 637.101 479.279, 640.592 484.615, 643.717 487.824 C 644.783 488.920, 645.117 488.833, 645.651 487.324 C 646.005 486.321, 646.904 483.983, 647.648 482.128 C 649.704 477.001, 649.402 476.436, 643.924 475.172 C 636.282 473.408, 635.668 473.538, 636.469 476.750 M 663 476.917 C 663 477.421, 663.563 478.032, 664.250 478.276 C 664.938 478.519, 663.779 479.205, 661.675 479.799 C 659.572 480.394, 657.278 480.660, 656.577 480.391 C 655.776 480.084, 654.243 482.236, 652.441 486.201 C 650.867 489.666, 649.439 492.752, 649.269 493.061 C 648.865 493.792, 659.052 497, 661.779 497 C 663.754 497, 663.794 496.833, 662.447 494.250 C 659.853 489.277, 660.576 486.482, 665.500 482.446 C 671.005 477.936, 671.305 476, 666.500 476 C 664.575 476, 663 476.413, 663 476.917 M 709.268 490.122 C 697.122 496.495, 692.803 499.488, 686.652 505.796 C 681.038 511.554, 680.674 509.736, 690.636 525.696 C 694.136 531.304, 697 536.130, 697 536.421 C 697 536.712, 699.813 541.222, 703.250 546.443 C 710.613 557.627, 719.743 572.034, 734.458 595.690 C 740.340 605.145, 745.756 613.383, 746.495 613.996 C 747.528 614.853, 748.935 614.273, 752.589 611.484 C 759.105 606.510, 768.322 602, 771.971 602 C 773.637 602, 775.012 601.663, 775.027 601.250 C 775.041 600.837, 771.554 593.207, 767.277 584.293 L 759.500 568.086 754 568.021 C 732.110 567.763, 710.657 534.496, 716.409 509.729 C 718.369 501.288, 721.024 496.014, 726.071 490.539 C 731.085 485.099, 731.057 485, 724.515 485 C 719.852 485, 717.565 485.768, 709.268 490.122 M 732.269 497.920 C 725.698 502.680, 723.600 508.319, 724.293 519.356 C 724.815 527.686, 726.413 535, 727.709 535 C 727.991 535, 732.001 532.718, 736.619 529.928 C 745.794 524.386, 748.329 524.034, 748.814 528.234 C 749.075 530.495, 748.338 531.501, 744.425 534.225 C 741.838 536.026, 737.929 538.780, 735.738 540.345 L 731.756 543.190 737.123 548.624 C 746.737 558.360, 754.078 560.239, 762.249 555.057 C 769.284 550.596, 770.500 547.566, 770.500 534.500 C 770.500 524.549, 770.233 522.928, 767.701 517.500 C 760.997 503.131, 753.995 497.517, 740.386 495.600 C 736.910 495.110, 735.652 495.469, 732.269 497.920 M 652.358 506.250 C 652.683 507.488, 653.509 511.827, 654.193 515.893 C 655.838 525.661, 658.012 526.864, 669.469 524.346 C 673.611 523.436, 677 522.407, 677 522.059 C 677 521.710, 675.087 518.342, 672.750 514.574 L 668.500 507.723 661.500 505.919 C 652.151 503.510, 651.643 503.528, 652.358 506.250 M 670.500 533.640 C 663.352 536.372, 661.037 536.870, 659.250 536.061 L 657 535.043 656.992 545.271 C 656.984 556.820, 655.533 567.525, 653.573 570.500 C 652.401 572.280, 652.735 573.171, 656.609 578.600 C 662.289 586.561, 666.132 595.833, 669.622 610 C 671.181 616.325, 672.545 621.654, 672.654 621.843 C 673.680 623.618, 723.582 601.196, 723.906 598.813 C 723.958 598.436, 720.044 591.911, 715.209 584.313 C 710.374 576.716, 700.868 561.388, 694.086 550.250 C 687.303 539.112, 681.246 530.045, 680.627 530.100 C 680.007 530.154, 675.450 531.747, 670.500 533.640 M 765.500 610.985 C 761.100 613.081, 755.989 616.376, 754.142 618.307 L 750.785 621.817 755.435 629.006 C 759.723 635.635, 760.297 636.144, 762.793 635.539 C 767.339 634.436, 775.928 628.760, 780.617 623.760 L 785.062 619.020 783.417 615.760 C 781.197 611.362, 776.978 606.981, 775.063 607.086 C 774.203 607.134, 769.900 608.888, 765.500 610.985 M 234.399 646.768 C 221.421 665.162, 217.698 671.472, 218.442 673.819 C 219.606 677.483, 224.855 683.804, 229.243 686.823 C 236.417 691.759, 236.934 691.565, 239.442 683 C 242.927 671.098, 246.163 667.719, 250.206 671.761 C 252.172 673.728, 251.226 679.599, 246.434 695.160 C 245.139 699.364, 256.513 699.820, 264.249 695.873 C 271.409 692.220, 284.329 678.033, 289.336 668.326 L 290.973 665.152 285.736 663.454 C 276.728 660.533, 270.975 656.791, 264.124 649.394 C 259.875 644.807, 255.528 641.263, 252 639.508 C 248.975 638.003, 245.799 636.157, 244.942 635.404 C 243.572 634.203, 242.294 635.581, 234.399 646.768 M 769.750 642.733 L 766 644.271 765.957 660.386 C 765.797 720.603, 766.079 802.348, 766.648 860.250 L 767.313 928 771.156 928 L 775 928 775 784.500 C 775 705.575, 774.663 641.044, 774.250 641.097 C 773.837 641.151, 771.813 641.887, 769.750 642.733 M 744.295 922.624 C 723.403 925.465, 701.585 932.704, 693.500 939.479 L 690.500 941.992 692.990 944.101 C 713.443 961.419, 790.576 966.497, 832.500 953.286 C 842.552 950.119, 851.610 945.597, 852.961 943.072 C 856 937.394, 826.500 926.020, 799.699 922.535 C 782.881 920.348, 784 920.096, 784 926.066 C 784 932.651, 782.959 934.399, 777.808 936.460 C 768.381 940.232, 758.904 935.212, 757.476 925.690 C 757.089 923.110, 756.262 921.053, 755.636 921.118 C 755.011 921.183, 749.908 921.861, 744.295 922.624 M 532.221 936.139 C 532.552 945.583, 533.235 951.704, 534.214 954.016 C 537.504 961.787, 547.438 967, 558.959 967 C 562.470 967, 565.406 967.596, 566.839 968.600 C 568.932 970.066, 569.270 970.066, 570.890 968.600 C 572.078 967.525, 574.540 967, 578.396 967 C 583.404 967, 584.065 966.777, 583.585 965.250 C 578.525 949.146, 578.575 942.588, 583.750 943.184 C 587.608 943.627, 589.894 948.811, 590.670 958.873 C 591.363 967.861, 592.112 968.545, 597.961 965.520 C 605.565 961.588, 606.224 957.584, 602.656 937 C 600.945 927.129, 600.175 924.570, 598.995 924.834 C 598.173 925.018, 594.800 925.885, 591.500 926.761 C 581.291 929.472, 554.685 929.104, 544 926.104 C 539.325 924.791, 534.649 923.281, 533.608 922.748 C 531.785 921.813, 531.735 922.295, 532.221 936.139 M 352.008 936.250 C 352.028 966.076, 358.896 976, 379.517 976 L 386.782 976 388.391 967.329 C 391.843 948.718, 399.922 952.128, 397.658 971.241 L 397.061 976.284 403.489 975.683 C 411.961 974.892, 417.220 972.148, 419.554 967.300 C 421.565 963.123, 422.815 942.920, 421.575 934.650 L 420.911 930.223 416.205 931.705 C 413.487 932.561, 405.587 933.409, 397.500 933.713 C 382.521 934.277, 368.374 931.913, 357.236 926.986 C 354.767 925.894, 352.578 925, 352.373 925 C 352.168 925, 352.003 930.063, 352.008 936.250 M 698.500 958.578 C 711.485 968.411, 776.889 973.863, 811.422 967.992 C 819.773 966.572, 835.176 962.843, 834.691 962.358 C 834.473 962.139, 831.415 962.619, 827.897 963.423 C 791.072 971.840, 732.192 970.012, 704.631 959.596 C 696.782 956.630, 695.687 956.448, 698.500 958.578" stroke="none" fill="#1a1a1a" fill-rule="evenodd"/>
</svg>