<svg xmlns="http://www.w3.org/2000/svg" width="1024" height="1024" viewBox="0 0 1024 1024" version="1.1">
	<path d="M 521.362 15.494 C 512.326 17.459, 504.257 21.769, 497.618 28.177 L 491.737 33.854 487.999 31.381 C 465.321 16.373, 431.781 26.265, 421.481 51 C 420.450 53.475, 419.556 55.602, 419.494 55.726 C 419.432 55.851, 416.933 55.017, 413.940 53.874 C 399.430 48.329, 379.074 53.197, 366.318 65.261 C 356.594 74.457, 352.401 84.769, 353.217 97.481 L 353.697 104.953 347.375 107.912 C 323.820 118.934, 315.229 147.482, 330.311 164.616 C 332.599 167.216, 333.986 169.505, 333.392 169.703 C 330.700 170.600, 316.319 180.810, 304 190.571 C 276.880 212.059, 262.709 220.100, 234.277 230.135 C 216.967 236.245, 210.024 243.733, 210.006 256.312 C 209.991 266.409, 220.953 279.300, 235.238 285.985 C 261.460 298.256, 291.374 297.946, 316.721 285.143 C 320.143 283.414, 323.338 282, 323.820 282 C 325.376 282, 323.137 292.362, 319.483 302.079 C 306.509 336.575, 307.054 364.464, 321.012 380.361 C 324.149 383.934, 324.240 384.258, 322.904 387.077 C 321.503 390.033, 321.477 390.040, 311.500 390.359 C 277.462 391.447, 249.651 425.788, 257.006 457.646 C 257.778 460.989, 257.571 462.928, 255.941 467.646 C 252.891 476.472, 251.788 490.766, 253.616 497.783 C 254.813 502.380, 254.870 504.373, 253.918 508.341 C 250.414 522.949, 259.498 543.893, 272.250 550.604 C 273.763 551.400, 275 552.698, 275 553.488 C 275 556.984, 279.408 566.182, 283.086 570.360 C 290.304 578.561, 305.621 583.850, 314.500 581.208 C 316.972 580.472, 318.416 580.828, 322.700 583.225 C 325.906 585.019, 330.047 586.356, 333.501 586.712 C 337.717 587.147, 338.971 587.633, 338.570 588.677 C 334.098 600.332, 334.029 613.894, 338.392 623.594 L 341.133 629.689 337.616 636.094 C 327.967 653.667, 329.713 676.927, 341.514 688.013 C 343.679 690.047, 343.710 690.308, 342.311 694.814 C 338.567 706.877, 342.247 721.580, 351.619 732 L 356.565 737.500 355.363 742 C 351.541 756.305, 355.575 778.620, 363.283 785.811 C 365.514 787.894, 365.668 788.529, 364.839 792.219 C 362.251 803.739, 364.448 818.233, 370.136 827.173 C 373.771 832.885, 381.106 839.792, 384.966 841.138 C 387.609 842.059, 387.754 842.371, 386.907 845.317 C 386.404 847.068, 384.619 855.025, 382.942 863 C 380.266 875.718, 378.221 883.889, 377.672 884.051 C 377.578 884.079, 367.976 885.322, 356.335 886.814 L 335.171 889.527 336.672 886.014 C 339.628 879.097, 340 877.827, 339.985 874.685 C 339.939 865.110, 328.767 865.241, 317.715 874.946 L 314.374 877.879 316.676 867.690 C 321.984 844.193, 318.307 833.247, 307.350 839.928 C 301.893 843.256, 292 860.770, 292 867.104 C 292 871.054, 290.366 868.716, 287.559 860.750 C 283.017 847.860, 274.275 831.462, 268.683 825.344 C 258.662 814.379, 248.360 812.604, 248.731 821.907 C 248.984 828.268, 258 859.582, 263.584 873.500 C 264.080 874.734, 262.323 873.650, 258.996 870.669 C 250.476 863.036, 241.276 859.184, 236.185 861.120 C 228.514 864.036, 230.782 871.232, 245.673 891.232 C 249.294 896.096, 252.087 900.206, 251.879 900.365 C 251.670 900.525, 247.929 901.190, 243.564 901.843 C 227.218 904.290, 203 913.932, 203 917.992 C 203 921.807, 205.789 921.807, 215.324 917.992 C 225.756 913.820, 240.210 909.701, 250.500 907.970 C 259.409 906.471, 262 905.446, 262 903.418 C 262 902.524, 258.537 896.776, 254.305 890.646 C 237.374 866.123, 237.992 867.437, 244.410 869.624 C 250.668 871.756, 261.420 882.867, 272.340 898.484 C 274.416 901.453, 278.266 901.618, 278.811 898.762 C 278.993 897.806, 275 884.531, 269.937 869.262 C 254.541 822.826, 254.067 820.019, 263.292 829.882 C 272.838 840.086, 287 875.567, 287 889.276 C 287 894.601, 288.330 898, 290.413 898 C 292.895 898, 293.800 895.555, 295.896 883.175 C 297.044 876.397, 299.087 867.675, 300.437 863.795 C 303.032 856.332, 309.251 846, 311.148 846 C 312.782 846, 311.569 856.138, 307.400 877.333 C 304.605 891.544, 304.139 895.463, 305.109 896.631 C 307.116 899.049, 310.290 897.779, 312.613 893.628 C 315.735 888.050, 321.601 881.302, 326.263 877.925 C 333.402 872.753, 333.779 874.507, 328 886 C 325.800 890.376, 324 894.655, 324 895.509 C 324 898.718, 325.113 898.672, 360.433 894.006 C 368.647 892.921, 375.538 892.204, 375.747 892.413 C 376.103 892.770, 373.785 899.049, 364.190 923.712 C 357.143 941.827, 356.688 947.099, 361.660 953.008 C 364.343 956.197, 371.888 959, 377.787 959 C 379.953 959, 382.271 959.892, 384.096 961.427 C 387.991 964.705, 396.374 966.351, 409 966.317 C 440.201 966.233, 460.763 952.643, 466.974 928 C 467.598 925.525, 469.880 918.100, 472.045 911.500 C 474.209 904.900, 476.834 896.125, 477.876 892 L 479.772 884.500 506.310 884.234 L 532.848 883.968 532.026 887.234 C 531.574 889.030, 529.984 897.025, 528.492 905 C 527 912.975, 523.992 925.800, 521.809 933.500 C 513.079 964.283, 516.339 973.202, 536.881 974.747 C 542.348 975.158, 545.291 975.904, 547.302 977.387 C 549.610 979.088, 551.956 979.522, 560.589 979.841 C 585.435 980.761, 608.481 970.232, 618.089 953.569 C 621.760 947.203, 622.171 945.679, 628.048 916.646 C 630.703 903.526, 633.107 892.560, 633.390 892.277 C 634.318 891.348, 654.154 894.215, 673.464 898.068 C 683.895 900.150, 692.782 901.635, 693.214 901.368 C 695.011 900.257, 693.689 895.359, 688.333 883.280 C 680.132 864.785, 674.037 849.630, 674.580 849.086 C 674.840 848.827, 677.795 851.289, 681.147 854.557 C 690.668 863.841, 699.559 878.542, 703.189 891 C 704.291 894.784, 704.898 895.500, 707 895.500 L 709.500 895.500 709.291 883.844 C 709.177 877.433, 708.174 864.833, 707.064 855.844 C 704.319 833.613, 702.991 818.765, 703.055 811 L 703.109 804.500 705.175 809.500 C 712.514 827.263, 718.562 857.298, 720.256 884.399 C 720.412 886.895, 721.151 888.694, 722.309 889.399 C 725.137 891.121, 726.552 888.208, 727.967 877.754 C 731.957 848.253, 747.980 805.810, 764.302 781.500 C 768.707 774.940, 781.121 759.788, 781.655 760.321 C 782.023 760.690, 769.861 796.984, 759.479 826.500 C 746.601 863.112, 739.008 891.278, 741.008 895.016 C 743.318 899.331, 746.071 896.825, 752.013 885 C 760.861 867.392, 776.782 849.104, 795.399 835.165 C 802.198 830.075, 804.806 828.799, 803.402 831.250 C 803.008 831.938, 795.834 842.850, 787.461 855.500 C 770.462 881.181, 758.713 901.264, 759.199 903.814 C 759.925 907.624, 763.475 906.082, 770.500 898.905 C 782.466 886.682, 793.721 879.665, 805.250 877.241 C 811.492 875.929, 811.263 876.417, 802.310 883.500 C 787.645 895.103, 774.862 908.010, 775.198 910.876 C 775.477 913.252, 776.072 913.545, 782.975 914.696 C 792.335 916.256, 802.610 919.351, 810.888 923.104 C 818.209 926.423, 821.497 926.748, 822.463 924.250 C 823.968 920.359, 811.069 913.787, 792.655 909.062 L 785.809 907.306 788.287 905.403 C 801.996 894.875, 822 876.130, 822 873.810 C 822 866.895, 803.276 867.792, 787.760 875.451 C 784.052 877.281, 781.317 878.265, 781.681 877.639 C 782.044 877.013, 787.956 868.175, 794.817 858 C 813.014 831.016, 816.181 823.088, 809.441 821.396 C 801.413 819.381, 776.155 838.394, 761.024 857.842 C 758.012 861.714, 755.383 864.716, 755.182 864.515 C 754.980 864.314, 758.730 852.753, 763.514 838.824 C 780.653 788.924, 788.991 763.533, 790.115 757.820 C 794.645 734.793, 766.584 759.722, 747.138 796 C 738.962 811.254, 726 844.968, 726 850.982 C 726 855.625, 724.367 852.477, 723.286 845.750 C 720.201 826.545, 708.745 796.906, 702.735 792.578 L 699.969 790.586 697.773 792.782 C 695.835 794.721, 695.573 796.065, 695.539 804.239 C 695.462 822.644, 697.811 850.336, 700.557 863.394 C 701.317 867.007, 701.446 867.122, 693.196 856.862 C 681.656 842.511, 672.608 837.422, 668.250 842.831 C 665.253 846.551, 668.939 858.799, 680.582 883.804 C 683.941 891.018, 684.530 892.991, 683.207 892.589 C 677.677 890.911, 654.826 886.818, 645.143 885.771 L 633.787 884.543 634.428 878.022 C 636.045 861.566, 636.833 849.044, 636.417 846.393 C 636.060 844.115, 636.928 842.224, 640.497 837.500 C 649.332 825.807, 650.772 811.243, 644.595 796.042 L 642.246 790.259 646.107 785.380 C 652.158 777.735, 655.238 769.128, 655.774 758.372 L 656.228 749.244 663.864 748.764 C 681.397 747.664, 695 736.044, 695 722.169 C 695 717.345, 695.024 717.309, 699.150 716.073 C 705.312 714.227, 713.445 706.086, 716.074 699.131 C 720.024 688.683, 716.413 673.607, 708.436 667.242 C 705.846 665.175, 704.798 663.346, 703.998 659.493 C 701.337 646.675, 689.295 638.575, 675.651 640.425 L 671.367 641.006 669.681 635.656 C 668.171 630.868, 659.531 617.064, 657.104 615.564 C 656.572 615.236, 657.331 612.890, 658.827 610.238 C 664.563 600.070, 661.832 583.823, 652.464 572.391 L 648.983 568.143 650.907 564.821 C 658.086 552.429, 657.263 534.447, 648.887 520.706 L 645.965 515.913 648.463 512.638 C 658.982 498.846, 654.461 475.259, 638.627 461.321 C 633.963 457.215, 633.894 457.066, 633.556 450.329 C 633.161 442.461, 631.629 438.403, 626.541 431.750 C 623.883 428.274, 623.334 427, 624.494 427 C 628.805 427, 639.134 419.195, 640.527 414.885 C 640.912 413.694, 642.772 413.132, 647.614 412.743 C 666.288 411.244, 680.500 396.986, 680.500 379.750 C 680.500 372.969, 680.724 372, 682.290 372 C 685.362 372, 691.909 368.096, 696.128 363.749 C 703.320 356.338, 706.967 346.598, 706.988 334.750 C 706.995 331.038, 707.126 328, 707.280 328 C 707.435 328, 711.147 329.504, 715.530 331.341 C 731.634 338.092, 738.642 339.451, 757.500 339.477 C 780.258 339.508, 791.764 336.381, 809.057 325.464 C 834.730 309.257, 835.977 284.435, 811.766 271.528 C 797.439 263.890, 789.191 257.285, 768 236.479 C 740.390 209.371, 729.665 200.495, 711.745 189.922 C 708.580 188.055, 706.126 186.296, 706.290 186.014 C 712.380 175.567, 713.500 171.519, 713.486 160 C 713.474 149.637, 713.207 147.931, 710.790 142.747 C 707.131 134.900, 699.511 127.090, 692.022 123.510 C 687.512 121.355, 686.095 120.202, 686.542 119.051 C 695.606 95.751, 673.432 71.232, 645.551 73.726 L 641 74.133 641 70.104 C 641 44.391, 603.606 26.645, 579.453 40.895 L 576.366 42.717 573.536 37.313 C 564.615 20.273, 542.299 10.941, 521.362 15.494 M 524.482 23.521 C 512.329 25.616, 502.445 31.916, 497.917 40.451 C 494.739 46.441, 493.651 46.651, 489.150 42.150 C 469.531 22.531, 431.900 34.070, 427.658 61.007 C 426.396 69.027, 424.912 70.248, 420.995 66.495 C 412.490 58.347, 392.313 57.940, 379.153 65.651 C 364.809 74.056, 357.284 91.811, 362.790 104.258 C 365.327 109.995, 364.488 111.318, 357.251 112.988 C 338.009 117.428, 326.012 138.579, 333.630 154.632 C 336.755 161.217, 348.704 170, 354.538 170 C 354.792 170, 355 167.505, 355 164.455 C 355 159.859, 355.432 158.477, 357.523 156.386 C 361.985 151.924, 363.420 153.372, 364.091 163.011 C 364.789 173.021, 366.929 177.896, 373.055 183.431 C 390.226 198.944, 416.050 191.756, 431.407 167.189 C 433.648 163.604, 434.558 162.930, 436.801 163.189 C 439.240 163.470, 439.560 163.989, 440.119 168.573 C 441.451 179.488, 446.934 185.677, 458.360 189.167 C 473.702 193.852, 489.709 187.451, 501.103 172.074 C 504.323 167.729, 506.212 168.344, 509.202 174.709 C 512.205 181.102, 518.302 187.020, 525.554 190.581 C 530.857 193.184, 532.527 193.500, 541 193.500 C 552.892 193.500, 559.652 190.643, 566.235 182.836 C 573.518 174.199, 576.266 174.146, 578.022 182.608 C 580.533 194.704, 590.976 202.500, 604.666 202.500 C 611.567 202.500, 613.304 202.151, 615.876 200.250 C 619.325 197.700, 622.233 197.371, 623.871 199.345 C 624.725 200.374, 624.023 202.521, 620.886 208.476 C 617.105 215.652, 616.815 216.750, 617.182 222.511 C 617.811 232.402, 625.313 239.913, 634.628 239.978 C 640.246 240.017, 640.563 242.062, 636.036 249.066 C 631.288 256.412, 629.620 261.791, 630.491 266.946 C 631.810 274.753, 638.128 280.989, 644.727 280.996 C 650.638 281.003, 651.656 284.434, 648.024 292.110 C 646.362 295.625, 645.001 300.099, 645.001 302.054 C 645 306.706, 649.327 315.276, 653.328 318.546 C 655.072 319.972, 657.288 321.778, 658.250 322.560 C 660.442 324.339, 660.488 326.536, 658.367 328.211 C 648.881 335.703, 646.343 341.030, 647.502 351.016 C 648.670 361.083, 642.145 359.832, 640.017 349.581 C 638.535 342.442, 640.184 335.222, 644.628 329.400 L 648.072 324.889 644.111 320.389 C 637.346 312.704, 635.349 302.761, 638.489 292.409 C 639.308 289.709, 639.983 287.444, 639.989 287.375 C 639.995 287.306, 638.763 286.993, 637.250 286.678 C 624.945 284.120, 618.146 264.220, 625.265 251.598 C 626.785 248.902, 627.910 246.628, 627.765 246.544 C 627.619 246.461, 625.551 245.545, 623.169 244.508 C 617.723 242.138, 611.341 234.980, 609.899 229.626 C 608.810 225.582, 609.091 214.910, 610.362 212 C 610.913 210.739, 609.777 210.500, 603.233 210.500 C 596.459 210.500, 594.586 210.075, 588.803 207.226 C 582.110 203.929, 572 194.418, 572 191.419 C 572 189.396, 571.636 189.547, 565.770 194.008 C 557.876 200.011, 551.180 202.205, 541 202.125 C 526.719 202.013, 518.211 198.316, 508.773 188.122 L 503.246 182.151 499.873 185.632 C 482.967 203.076, 455.252 203.737, 439.659 187.067 C 437.298 184.543, 434.934 181.704, 434.405 180.759 C 433.570 179.267, 432.554 179.889, 426.731 185.460 C 415.877 195.844, 407.361 199.500, 394.026 199.500 C 384.105 199.500, 383.047 199.299, 376.806 196.226 C 370.195 192.971, 361.057 184.413, 358.724 179.293 C 355.018 171.159, 345.531 182.459, 338.512 203.369 C 333.656 217.836, 333.001 223.408, 332.992 250.315 C 332.981 283.001, 332.148 289.877, 325.991 308.118 C 316.234 337.022, 315.721 353.121, 323.993 370.800 L 327.023 377.274 330.954 371.193 C 336.238 363.017, 339.257 361.489, 350 361.555 C 369.020 361.673, 394.109 369.980, 417.955 384.055 L 423.410 387.275 421.510 384.387 C 417.330 378.033, 416.547 375.459, 416.523 368 C 416.511 363.875, 416.844 358.884, 417.266 356.909 C 418.012 353.406, 417.926 353.271, 413.775 351.409 C 403.452 346.779, 394.208 334.192, 398.200 330.200 C 400.480 327.920, 402.489 329.031, 410.491 336.992 C 420.239 346.688, 420.731 346.770, 432.852 340.690 C 443.175 335.512, 447.310 334.842, 449.036 338.067 C 451.277 342.254, 444.565 348.144, 433.619 351.594 C 419.017 356.197, 421.386 380.034, 437.250 388.128 C 449.804 394.532, 462.048 389.773, 469.136 375.731 C 471.759 370.534, 472.395 369.911, 474.796 370.188 C 478.497 370.615, 478.734 373.578, 475.595 380.183 C 468.677 394.740, 456.256 401.133, 441.371 397.799 C 438.515 397.160, 438.959 397.816, 446.443 405.300 C 456.934 415.792, 459.154 420.690, 456.530 427.561 C 455.572 430.069, 454.951 432.284, 455.150 432.484 C 456.892 434.225, 480.119 436.274, 498.500 436.306 C 521.147 436.346, 534.641 434.859, 551.500 430.464 C 586.531 421.332, 618.115 399.218, 624.697 379.214 C 626.704 373.112, 628.692 371.411, 631.180 373.663 C 633.750 375.989, 633.447 379.552, 630.073 386.684 C 626.893 393.405, 614.646 407.082, 607.250 412.172 C 602.867 415.188, 601.850 417, 604.540 417 C 605.387 417, 607.942 417.950, 610.218 419.111 C 618.066 423.115, 628.639 419.558, 633.795 411.179 L 636.803 406.290 643.241 405.773 C 661.729 404.289, 675.363 390.090, 673.616 374.140 L 672.998 368.500 678.749 366.032 C 691.589 360.521, 698.020 350.820, 698.793 335.797 C 699.373 324.517, 698.909 323.036, 693.782 319.788 C 683.262 313.124, 678.745 306.655, 682.200 303.200 C 684.152 301.248, 685.883 301.798, 689.015 305.364 C 696.357 313.726, 714.395 323.777, 730.600 328.535 C 747.398 333.468, 771.649 333.196, 786.500 327.910 C 813.152 318.423, 827.058 300.743, 818.387 287.370 C 815.530 282.965, 815.709 283.098, 802 275.193 C 787.796 267.003, 782.514 262.619, 759 239.509 C 730.773 211.767, 713.979 198.944, 690.101 186.905 C 679.731 181.677, 678.365 180.059, 682.255 177.609 C 683.611 176.755, 685.428 177.027, 690.255 178.804 C 693.690 180.069, 697.287 181.358, 698.248 181.668 C 701.583 182.744, 706.400 170.177, 706.400 160.401 C 706.400 144.201, 694.154 129, 681.104 129 C 675.583 129, 674.742 126.805, 677.748 120.240 C 684.466 105.564, 678.266 90.871, 662.391 83.849 C 656.473 81.231, 646.607 80.358, 640.455 81.907 C 634.304 83.456, 633.153 82.465, 633.760 76.145 C 634.440 69.067, 631.837 61.232, 626.967 55.700 C 616.328 43.613, 598.197 40.774, 582 48.658 C 577.325 50.933, 573.152 52.583, 572.727 52.324 C 572.301 52.065, 570.687 49.060, 569.139 45.646 C 561.445 28.678, 544.182 20.125, 524.482 23.521 M 331.520 179.516 C 326.687 182.549, 317.731 189.006, 311.617 193.864 C 282.553 216.956, 264.362 227.708, 240.246 236.052 C 221.005 242.709, 215.051 249.990, 219.443 261.491 C 222.689 269.991, 238.695 280.269, 255.500 284.645 C 276.938 290.228, 312.758 283.395, 322.452 271.874 L 325.052 268.785 324.955 250.029 L 324.858 231.272 319.679 236.430 C 304.039 252.005, 279.504 262.184, 257.319 262.300 C 245.625 262.362, 243 261.562, 243 257.937 C 243 255.122, 244.788 254.598, 253.464 254.869 C 274.357 255.523, 299.037 245.264, 316.194 228.793 C 323.863 221.430, 326.553 217.375, 327.995 211 C 329.816 202.957, 335.529 188.025, 339.422 181.137 C 342.514 175.668, 342.879 174, 340.986 174 C 340.612 174, 336.352 176.482, 331.520 179.516 M 371.994 216.924 C 364.915 219.106, 356 227.033, 356 231.145 C 356 234.988, 359.809 235.375, 363.733 231.930 C 368.439 227.798, 374.563 225.050, 379.128 225.022 C 382.995 224.999, 385.378 223.149, 384.498 220.855 C 383.293 217.714, 376.430 215.556, 371.994 216.924 M 650.325 217.595 C 649.001 221.047, 652.227 233.125, 656.953 242.408 C 672.143 272.244, 697.079 295.136, 725.592 305.421 C 741.745 311.247, 759.870 313.998, 763.319 311.145 C 765.489 309.351, 763.800 306.006, 760.715 305.984 C 753.477 305.933, 732.786 300.032, 720.575 294.537 C 694.497 282.801, 667.718 253.157, 659.564 227 C 656.395 216.833, 655.924 216, 653.347 216 C 652.022 216, 650.662 216.718, 650.325 217.595 M 532.200 225.200 C 529.100 228.300, 531.333 231.355, 537.500 232.449 C 544.280 233.651, 550.128 236.817, 556.113 242.527 C 562.588 248.702, 562.292 248.565, 564.463 246.395 C 566.380 244.477, 565.770 241.838, 562.354 237.277 C 556.032 228.838, 536.418 220.982, 532.200 225.200 M 368.389 269.905 C 355.781 277.593, 354.178 301.932, 365.700 310.720 C 370.742 314.566, 379.178 315.084, 383.908 311.839 C 396.353 303.299, 397.073 278.214, 385.102 270.258 C 380.729 267.352, 372.848 267.185, 368.389 269.905 M 525.728 280.367 C 516.289 283.203, 509.569 293.447, 509.614 304.931 C 509.712 329.920, 539.219 335.472, 547.480 312.056 C 553.777 294.210, 541.103 275.746, 525.728 280.367 M 343.374 369.985 C 340.614 371.100, 337.875 375.020, 332.874 385.013 C 329.253 392.247, 328.787 394.004, 328.558 401.311 C 328.072 416.808, 314.829 450.923, 305.378 461.027 C 301.662 465, 300.863 466.546, 300.698 470.085 L 300.500 474.351 310 475.728 C 336.998 479.641, 371.923 498.295, 383.484 514.978 L 386.418 519.211 389.776 515.548 C 392.718 512.337, 393.032 511.489, 392.317 508.692 C 389.537 497.827, 392.432 479.115, 397.893 472.659 C 399.362 470.921, 401.450 467.772, 402.532 465.660 C 406.801 457.330, 417.080 450.899, 426.535 450.643 C 431.778 450.500, 431.812 450.478, 436.648 444.101 C 451.338 424.729, 451.833 423.163, 445.657 415.626 C 437.750 405.977, 417.223 391.291, 400.748 383.495 C 379.483 373.434, 351.279 366.793, 343.374 369.985 M 304.124 398.616 C 272.148 406.990, 255.017 441.588, 270.143 467.243 C 273.382 472.736, 273.747 475.499, 271.355 476.417 C 269.863 476.990, 266.626 475.070, 264.807 472.534 C 263.530 470.752, 261.790 477.421, 261.261 486.127 C 260.796 493.781, 261 495.280, 263.069 499.425 C 265.152 503.595, 265.264 504.439, 264.113 507.298 C 263.404 509.059, 262.393 512.267, 261.867 514.427 C 259.403 524.541, 267.350 540.086, 277.494 544.997 C 280.759 546.577, 282.157 547.918, 282.549 549.841 C 283.954 556.735, 285.162 559.827, 287.918 563.573 C 294.017 571.868, 307.372 576.039, 316.574 572.525 L 321.156 570.775 323.828 573.334 C 331.986 581.149, 342.252 580.854, 347.901 572.644 L 350.979 568.171 349.011 563.835 C 345.622 556.367, 347.102 541.063, 352.385 528.949 C 352.912 527.739, 351.457 526.780, 345.781 524.596 C 315.330 512.879, 287.015 489.144, 290.847 478.547 C 293.255 471.886, 292.555 470.172, 287.459 470.249 C 284.961 470.287, 282.427 469.827, 281.826 469.226 C 280.406 467.806, 281.469 465.107, 283.727 464.399 C 295.185 460.807, 303.914 452.563, 308.874 440.649 C 313.388 429.804, 313.188 428.430, 306.818 426.539 C 303.969 425.692, 299.049 425, 295.886 425 C 290.968 425, 290.041 424.703, 289.485 422.952 C 287.606 417.034, 299.160 415.863, 313.679 420.500 C 315.651 421.130, 316.048 420.584, 317.841 414.779 C 320.622 405.777, 321.472 399.410, 320.015 398.509 C 317.812 397.148, 309.515 397.203, 304.124 398.616 M 583.049 427.064 C 554.493 442.067, 509.600 448.226, 469.500 442.641 C 447.851 439.626, 448.667 439.665, 455.688 441.988 C 463.462 444.559, 471.530 451.660, 475.203 459.163 C 477.865 464.600, 481.027 475.288, 480.967 478.644 C 480.948 479.665, 482.411 483.469, 484.217 487.098 L 487.500 493.696 495.185 494.179 C 506.498 494.890, 519.912 502.235, 522.147 508.942 C 522.418 509.754, 523.773 509.639, 526.889 508.539 C 529.288 507.693, 533.368 507, 535.955 507 C 540.633 507, 540.671 506.973, 543.050 501.893 C 546.317 494.917, 552.184 489, 555.832 489 C 560.189 489, 560.224 489.871, 556.064 494.873 C 552.440 499.231, 548 506.886, 548 508.775 C 548 509.245, 549.618 510.401, 551.595 511.344 C 557.173 514.004, 562.446 518.670, 564.992 523.200 L 567.313 527.328 564.963 529.231 L 562.614 531.133 557.091 525.477 C 547.734 515.894, 537.088 512.711, 527 516.482 C 518.756 519.563, 518.626 519.546, 516.663 515.098 C 513.672 508.318, 502.055 502.068, 492.358 502.024 C 487.603 502.002, 487.166 502.202, 486.542 504.690 C 483.265 517.747, 463.345 538.136, 447.499 544.653 C 442.510 546.705, 442.315 547.342, 444.471 554.568 C 447.145 563.530, 456.095 571.699, 466.904 575.043 C 472.337 576.724, 472.511 576.891, 473.228 581.091 C 475.612 595.056, 490.097 605.265, 507.942 605.555 C 515.701 605.681, 516.505 605.887, 517.881 608.096 C 528.366 624.927, 554.534 627.884, 570.320 614.024 C 574.033 610.764, 574.074 610.754, 579.775 611.869 C 599.129 615.655, 619.416 601.169, 621.694 581.938 C 622.015 579.222, 622.778 576.996, 623.389 576.990 C 626.081 576.967, 635.030 571.903, 638.482 568.451 C 650.218 556.716, 650.657 535.316, 639.465 520.657 C 635.333 515.247, 635.268 514.710, 638.487 512.600 C 642.152 510.199, 645.197 503.413, 645.761 496.390 C 646.703 484.649, 640.699 472.551, 629.828 464.288 C 624.209 460.018, 624.173 459.957, 625.155 456.400 C 628.172 445.474, 619.866 432.576, 605.476 425.842 C 595.676 421.256, 593.922 421.351, 583.049 427.064 M 441.535 450.587 C 440.603 452.009, 439.989 453.284, 440.170 453.419 C 440.352 453.553, 443.097 454.695, 446.270 455.956 C 453.075 458.660, 464.549 466.487, 468.377 471.037 C 471.997 475.338, 472.211 474.683, 469.697 467 C 465.190 453.226, 446.821 442.520, 441.535 450.587 M 419.500 460.490 C 415.694 462.280, 411.767 465.726, 409.529 469.240 C 407.856 471.865, 407.861 472.005, 409.642 472.588 C 421.028 476.319, 431.396 484.840, 430.794 489.973 C 430.322 494.001, 427.633 493.452, 421.488 488.075 C 418.215 485.211, 413.332 482.145, 410.140 480.951 L 404.536 478.855 402.859 480.926 C 398.597 486.189, 398.284 501.338, 402.219 511.855 C 406.216 522.538, 424.609 536.602, 437.269 538.656 C 447.189 540.266, 469.012 522.824, 477.084 506.834 C 482.594 495.918, 480.311 490.930, 462.942 475.940 C 446.892 462.089, 429.357 455.852, 419.500 460.490 M 301 484.461 C 301 490.965, 333.442 511.861, 354.739 519.075 C 363.734 522.122, 377.544 524.790, 378.641 523.693 C 380.774 521.559, 365.165 507.444, 352.052 499.650 C 335.046 489.541, 301 479.412, 301 484.461 M 392.453 525.082 C 390.279 527.328, 387.224 529.834, 385.665 530.652 C 382.388 532.371, 371.305 532.582, 366.007 531.026 C 360.568 529.429, 360.395 529.561, 357.876 537.250 C 354.417 547.808, 354.568 557.728, 358.297 564.821 L 361.094 570.143 357.183 573.939 C 349.076 581.806, 342.009 601.470, 343.432 612.197 C 344.148 617.595, 347.275 625.154, 349.586 627.072 C 351.866 628.964, 351.242 631.667, 347.354 636.741 C 336.065 651.477, 336.838 671.189, 349.231 684.635 L 353.319 689.070 351.040 693.635 C 349.072 697.575, 348.821 699.316, 349.207 706.350 C 349.879 718.577, 354.627 726.515, 364.656 732.175 C 367.595 733.834, 370 735.733, 370 736.395 C 370 738.140, 367.873 740, 365.878 740 C 363.269 740, 361.572 746.320, 361.581 756 C 361.593 768.337, 363.865 775.025, 370.061 780.966 C 375.590 786.266, 375.639 786.413, 373.377 790.946 C 368.233 801.257, 371.723 817.781, 381.363 828.760 C 384.288 832.092, 392.616 837, 395.344 837 C 397.824 837, 399.555 839.926, 398.205 841.834 C 395.079 846.251, 393.968 849.609, 391.034 863.509 C 389.295 871.754, 386.325 884.169, 384.436 891.098 C 382.546 898.027, 381 903.982, 381 904.331 C 381 907.417, 400.453 912.953, 418.500 915.003 C 435.385 916.922, 459.161 913.839, 463.881 909.119 C 467.651 905.349, 477.492 861.912, 476.612 852.921 C 476.078 847.460, 476.150 847.259, 480.014 843.486 C 487.519 836.158, 488.872 824.989, 483.507 814.648 L 480.976 809.769 484.432 805.944 C 487.888 802.118, 491 794.071, 491 788.958 C 491 786.471, 490.624 786.234, 485.750 785.663 C 478.647 784.829, 470.279 780.388, 466.516 775.454 C 463.662 771.712, 463.202 771.481, 459.973 772.165 C 451.179 774.028, 437.561 769.578, 431.488 762.855 C 424.814 755.468, 427.711 751.922, 435.912 757.440 C 443.161 762.319, 449.803 764.115, 459.783 763.895 L 468.066 763.713 470.898 768.179 C 474.198 773.381, 478.540 775.758, 487.573 777.305 C 496.263 778.794, 498.496 777.693, 499.345 771.498 C 500.413 763.704, 503.427 758, 506.475 758 C 509.945 758, 510.431 759.810, 508.607 765.951 C 506.658 772.516, 507.127 785.689, 509.554 792.500 C 510.823 796.064, 513.306 799.477, 518.199 804.385 L 525.063 811.269 523.392 815.643 C 518.831 827.588, 525.909 842.235, 539.470 848.911 C 546.130 852.189, 547.581 854.443, 544.615 856.905 C 543.788 857.591, 542.953 861.169, 542.542 865.777 C 541.641 875.892, 539.431 890.986, 536.975 903.801 C 534.468 916.879, 534.295 915.805, 539.250 917.969 C 558.031 926.170, 591.872 926.632, 612.362 918.966 C 620.479 915.929, 621.878 912.829, 625.028 890.896 C 629.173 862.036, 629.779 850.800, 627.485 845.311 L 625.971 841.685 630.304 837.533 C 637.549 830.591, 639.500 825.368, 639.500 812.911 C 639.500 802.924, 639.315 801.964, 636.250 796.021 C 632.178 788.125, 632.127 788.640, 637.532 782.863 C 647.195 772.531, 650.910 752.293, 645.513 739.376 C 643.214 733.875, 643.608 732.288, 647.989 729.389 C 661.753 720.280, 665.122 695.397, 654.534 681.046 C 651.306 676.671, 651.325 676.490, 655.457 671.916 C 662.005 664.669, 663.494 660.608, 663.497 650 C 663.501 638.040, 660.637 631.036, 652.429 622.930 C 646.281 616.858, 646.076 616.104, 649.376 611.683 C 655.174 603.916, 655.322 593.835, 649.797 583.090 C 645.477 574.691, 644.224 573.964, 639.835 577.312 C 637.942 578.756, 634.783 580.611, 632.815 581.433 C 629.668 582.748, 629.157 583.466, 628.566 587.411 C 625.698 606.535, 605.029 621.374, 583.735 619.598 C 576.255 618.974, 575.704 619.071, 572.787 621.526 C 562.619 630.081, 545.614 633.206, 531.824 629.054 C 526.544 627.464, 516.887 620.676, 514.201 616.666 C 511.905 613.237, 511.896 613.234, 502.701 612.820 C 485.540 612.046, 471.022 601.479, 466.950 586.797 C 466.172 583.991, 464.972 582.991, 458.885 580.076 C 446.365 574.082, 437.137 562.767, 435.418 551.299 C 434.854 547.539, 434.392 546.957, 431.143 545.905 C 420.453 542.443, 406.615 533.174, 401 525.712 C 396.750 520.066, 397.273 520.104, 392.453 525.082 M 673.655 648.750 C 673.401 649.163, 672.695 652.200, 672.087 655.500 C 670.785 662.572, 667.042 670.673, 663.570 673.934 L 661.097 676.258 663.557 681.112 C 672.630 699.016, 669.168 722.776, 655.958 733.268 C 653.732 735.037, 653.261 736.070, 653.691 738.250 C 654.207 740.867, 654.511 741, 659.958 741 C 676.031 741, 687 732.239, 688.680 718.058 C 689.269 713.082, 689.475 712.793, 694.109 710.445 C 704.058 705.403, 710 697.527, 710 689.381 C 710 683.507, 705.626 675.420, 701.014 672.766 C 697.450 670.714, 697.241 670.322, 697.310 665.798 C 697.448 656.650, 688.500 648.050, 678.809 648.016 C 676.229 648.007, 673.910 648.337, 673.655 648.750 M 499.070 789.568 C 498.965 794.179, 496.315 802.256, 493.593 806.269 C 491.250 809.721, 491.223 809.963, 492.735 814.165 C 494.851 820.046, 494.902 834.360, 492.825 839.073 C 491.959 841.038, 489.844 844.247, 488.125 846.205 C 485.553 849.135, 484.996 850.625, 484.976 854.632 C 484.963 857.309, 484.136 863.212, 483.137 867.750 L 481.322 876 507.102 876 C 521.281 876, 533.086 875.663, 533.336 875.250 C 533.586 874.837, 534.102 870.225, 534.484 865 L 535.179 855.500 531.568 853.581 C 519.559 847.199, 511.769 830.371, 514.786 817.331 C 515.722 813.286, 515.634 813.049, 511.793 809.331 C 507.085 804.774, 503.247 798.532, 500.872 791.574 C 499.338 787.080, 499.132 786.851, 499.070 789.568 M 373.285 921.789 C 368.416 933.357, 365.657 943.342, 366.551 946.161 C 367.625 949.545, 375.961 952.103, 380.384 950.406 C 381.235 950.079, 383.999 945.477, 386.526 940.178 C 392.108 928.473, 394.004 926.719, 396.100 931.320 C 396.961 933.210, 396.493 935.340, 393.579 942.799 C 389.347 953.629, 389.084 956.515, 392.250 957.384 C 398.300 959.045, 411.888 959.161, 420.680 957.627 C 443.039 953.724, 452.496 946.412, 458.653 928.267 C 461.801 918.992, 461.822 918.815, 459.683 919.452 C 438.990 925.611, 400.027 923.037, 382.783 914.370 C 380.189 913.067, 377.918 912, 377.736 912 C 377.554 912, 375.551 916.405, 373.285 921.789 M 532.546 925.146 C 526.741 941.837, 523.740 958.778, 525.882 962.779 C 527.187 965.218, 532.566 966.986, 538.705 966.994 C 542.779 967, 542.930 966.884, 543.578 963.250 C 544.651 957.226, 549.864 944.433, 552.051 942.454 C 553.915 940.767, 554.182 940.754, 555.702 942.273 C 557.222 943.793, 557.140 944.570, 554.589 952.888 C 553.074 957.825, 551.760 964.032, 551.668 966.682 L 551.500 971.500 560.488 971.792 C 583.351 972.536, 605.053 962.697, 612.362 948.273 C 615.354 942.367, 619.311 924.667, 617.481 925.369 C 593.101 934.725, 560.316 934.367, 534.758 924.467 C 533.691 924.054, 532.835 924.317, 532.546 925.146 M 266.444 942.091 C 265.882 943, 268.792 950.316, 274.262 961.750 C 276.935 967.337, 281.678 963.235, 279.954 956.826 C 277.048 946.023, 269.262 937.531, 266.444 942.091 M 710.249 943.250 C 706.755 946.995, 702.644 956.229, 702.570 960.500 C 702.508 964.067, 702.776 964.532, 705.056 964.798 C 707.857 965.124, 707.420 965.768, 713.552 952.277 C 716.648 945.467, 717.072 943.792, 716.023 942.527 C 714.272 940.418, 712.709 940.614, 710.249 943.250 M 292.015 945.182 C 288.934 950.195, 287.615 955.831, 289.103 957.625 C 290.782 959.648, 294.399 958.939, 294.846 956.500 C 295.048 955.400, 296.118 952.496, 297.224 950.048 C 300.435 942.936, 295.962 938.758, 292.015 945.182 M 683.204 946.600 C 682.505 947.850, 682.906 949.639, 684.673 953.158 C 686.010 955.819, 687.430 959.906, 687.828 962.240 C 688.689 967.282, 691.100 968.304, 693.498 964.644 C 695.535 961.535, 694.833 957.243, 691.180 950.469 C 688.301 945.131, 684.939 943.500, 683.204 946.600 M 245.250 949.662 C 242.295 950.855, 244.146 954.758, 250.536 960.810 C 257.248 967.166, 257.715 967.430, 260.418 966.393 C 263.475 965.220, 261.963 961.777, 255.593 955.407 C 249.476 949.291, 248.085 948.518, 245.250 949.662 M 730.957 954.362 C 722.266 960.784, 719.131 966.204, 722.495 968.996 C 724.349 970.535, 725.929 969.547, 735 961.178 C 740.579 956.031, 741.344 954.920, 740.398 953.340 C 738.659 950.436, 735.861 950.739, 730.957 954.362" stroke="none" fill="#1a1a1a" fill-rule="evenodd"/>
</svg>