<svg xmlns="http://www.w3.org/2000/svg" width="1024" height="1024" viewBox="0 0 1024 1024" version="1.1">
	<path d="M 477.656 36.581 C 463.996 39.889, 448.489 50.619, 442.798 60.704 C 440.636 64.534, 439.307 65.922, 438.137 65.569 C 424.361 61.409, 409.015 62.308, 397.500 67.951 C 387.737 72.734, 376.682 85.357, 374.468 94.250 C 373.819 96.858, 373.482 97, 367.941 97 C 339.410 97, 317.238 121.061, 319.321 149.764 C 319.837 156.874, 319.791 157.057, 317.142 158.426 C 313.018 160.559, 305.119 169.499, 302.690 174.783 C 300.939 178.591, 300.519 181.379, 300.511 189.249 C 300.504 195.460, 300.114 198.998, 299.437 198.999 C 296.980 199.002, 280.525 208.272, 267.500 216.991 C 225.123 245.359, 204.244 264.255, 177.707 298.253 C 160.004 320.935, 152.224 342.765, 157.915 353.790 C 170.078 377.350, 219.012 379.592, 261 358.512 C 277.836 350.060, 292.733 337.954, 302.575 324.728 L 306.871 318.956 307.444 323.728 C 309.167 338.085, 310.305 344.723, 311.599 347.956 C 312.970 351.383, 312.892 351.869, 310.003 357.832 C 298.107 382.389, 298.882 414.233, 312.047 441.862 C 323.370 465.625, 339.747 482.572, 366.247 497.945 C 372.157 501.374, 377.216 504.540, 377.488 504.980 C 377.760 505.421, 373.824 508.596, 368.741 512.036 C 347.471 526.434, 320.827 548.459, 306.946 563.117 L 298.391 572.151 295.063 565.325 C 293.233 561.571, 291.177 556.917, 290.494 554.983 C 287.881 547.578, 279.694 532.081, 277.063 529.561 C 272.120 524.824, 260.582 525.608, 253.524 531.160 C 250.339 533.665, 246 542.703, 246 546.831 C 246 548.356, 251 561.956, 257.110 577.052 C 270.842 610.974, 269.988 608, 265.986 608 C 262.322 608, 254.312 615.444, 243.808 628.613 C 227.722 648.778, 220.419 665.063, 219.306 683.250 L 218.709 693 169.529 693 L 120.349 693 118.326 695.250 C 117.214 696.488, 114.043 701.325, 111.280 706 C 97.891 728.651, 39.319 838.029, 25.273 866.609 L 16.865 883.718 16.306 897.179 C 14.769 934.144, 27.333 949.952, 58.281 949.992 L 64.061 950 63.781 987.001 L 63.500 1024.001 67.633 1024.001 L 71.765 1024 72.478 1016.392 C 72.870 1012.208, 72.869 995.558, 72.477 979.392 L 71.763 950 83.131 949.788 C 89.384 949.671, 98.212 949.559, 102.749 949.538 L 110.999 949.500 110.999 986.750 L 111 1024 115.524 1024 L 120.048 1024 119.774 986.853 L 119.500 949.705 174 950.340 C 203.975 950.689, 378.279 950.980, 561.341 950.987 L 894.182 951 893.841 987.500 L 893.500 1024.001 897.750 1024 L 902 1024 902.017 1016.250 C 902.078 988.281, 903.397 952.420, 904.389 951.753 C 905 951.341, 913.375 951.116, 923 951.253 L 940.500 951.500 940.762 987.750 L 941.025 1024 946.150 1024 L 951.275 1024 950.636 990.631 C 950.285 972.278, 950.262 955.939, 950.586 954.322 C 951.162 951.439, 951.349 951.360, 960.228 950.239 C 975.578 948.302, 985.107 941.628, 991.705 928.192 C 994.471 922.558, 994.499 922.311, 994.414 904 C 994.306 880.591, 996.268 885.262, 952.198 803.500 C 948.641 796.900, 940.679 782.050, 934.505 770.500 C 904.412 714.206, 894.752 697.523, 890.151 693.904 C 887.844 692.089, 885.370 692, 837.502 692 L 787.273 692 788.250 686.750 C 792.082 666.161, 783.559 632.183, 766.926 601.739 C 738.206 549.171, 707.259 516.384, 659.146 487.551 C 652.901 483.809, 648.221 480.466, 648.746 480.123 C 649.271 479.781, 650.856 477.656, 652.267 475.402 C 654.753 471.432, 655.036 471.286, 661.396 470.692 C 683.482 468.629, 700.990 449.126, 701.004 426.568 L 701.007 420.500 705.727 418.559 C 718.357 413.363, 728.260 393.830, 726.743 377.106 C 726.135 370.402, 723.345 363.486, 719.069 358.087 C 716.097 354.335, 716.096 354.330, 717.596 349.416 C 718.421 346.712, 719.412 342.130, 719.798 339.233 L 720.500 333.967 724.372 336.603 C 750.155 354.152, 791.993 361.628, 819.322 353.568 C 831.102 350.095, 834.752 348.099, 842.387 340.957 C 852.141 331.832, 854.410 322.110, 849.910 308.718 C 843.804 290.546, 801.338 240.382, 771.243 215.790 C 754.028 201.723, 725.731 184.780, 717.165 183.410 C 714.874 183.044, 713 182.599, 713 182.421 C 713 182.243, 713.624 179.701, 714.387 176.772 C 718.429 161.254, 707.022 141.053, 689.619 132.909 L 683.221 129.915 682.836 123.106 C 681.464 98.816, 656.208 79.252, 629 81.404 L 621.500 81.997 618.196 75.605 C 612.059 63.732, 598.250 53.121, 583.067 48.612 C 572.884 45.588, 553.094 47.264, 542.123 52.079 C 539.715 53.136, 537.604 54, 537.431 54 C 537.258 54, 534.503 51.690, 531.308 48.866 C 517.637 36.781, 496.665 31.979, 477.656 36.581 M 484.500 44.699 C 474.324 46.052, 463.465 51.700, 456.129 59.457 C 451.325 64.537, 446.033 73.640, 446.010 76.863 C 445.998 78.555, 442.805 78.013, 434.500 74.909 C 424.757 71.268, 411.476 71.559, 403 75.597 C 391.617 81.022, 383.165 92.048, 381.408 103.765 C 380.819 107.690, 380.518 108.093, 378.624 107.478 C 364.642 102.940, 344.919 109.845, 336.402 122.261 C 329.532 132.275, 327.904 140.146, 329.474 155.750 L 330.203 163 327.242 163 C 322.837 163, 315.756 169.720, 311.893 177.566 C 308.650 184.154, 308.317 189.947, 310.596 200.117 C 311.152 202.601, 310.608 203.018, 299.841 208.352 C 265.065 225.580, 227.569 253.810, 203.921 280.570 C 181.365 306.093, 173.511 317.138, 168.416 330.500 C 159.800 353.098, 171.230 364, 203.540 364 C 235.340 364, 265.175 351.240, 287.147 328.242 C 301.427 313.295, 307.266 302.808, 308.995 289 C 309.649 283.775, 310.818 276.433, 311.592 272.685 C 312.366 268.936, 313 265.617, 313 265.308 C 313 265, 307.004 270.568, 299.676 277.683 C 265.948 310.429, 214.056 340.420, 198.500 336.157 L 195.500 335.335 198.500 333.770 C 200.150 332.909, 203.908 330.583, 206.850 328.602 C 209.793 326.621, 212.805 325, 213.542 325 C 216.404 325, 245.838 309.411, 256.208 302.404 C 277.872 287.763, 301.906 265.385, 319.197 243.754 C 324.207 237.486, 331.605 231.272, 332.724 232.391 C 333.071 232.738, 332.413 234.705, 331.260 236.761 C 326.943 244.461, 320.152 271.379, 317.953 289.500 C 316.586 300.773, 316.607 328.690, 317.988 336 C 320.552 349.566, 320.397 352.791, 316.604 364.774 C 300.557 415.476, 319.997 459.865, 371.387 489.866 C 409.518 512.125, 449.514 520.961, 506.405 519.692 C 549.819 518.725, 575.871 513.215, 604.500 498.949 C 621.487 490.483, 642.268 474.939, 647.413 466.851 C 649.495 463.578, 652.753 462.293, 660.500 461.691 C 679.691 460.198, 693.219 442.479, 691.829 420.656 L 691.406 414.014 694.953 413.471 C 700.072 412.688, 706.696 409.147, 709.710 405.584 C 720.861 392.404, 720.324 368.669, 708.703 361.082 C 704.317 358.219, 704.215 357.305, 707.519 350.551 C 710.214 345.042, 711.713 334.605, 710.633 328.869 C 710.284 327.016, 707.368 321.990, 704.153 317.700 C 695.449 306.083, 691.253 298.471, 690.488 292.911 L 689.812 288 684.656 287.999 C 665.632 287.996, 649.523 266.614, 641.598 230.844 C 641.010 228.191, 641.001 228.189, 633.255 228.704 C 620.248 229.568, 606.696 224.833, 599.556 216.931 L 596.220 213.238 590.181 218.984 C 575.162 233.275, 545.946 236.050, 527.735 224.914 C 525.114 223.311, 522.817 222, 522.630 222 C 522.443 222, 520.457 224.613, 518.217 227.806 C 507.202 243.509, 491.823 251.163, 471 251.305 C 447.870 251.462, 429.723 242.165, 421.646 226.019 L 418.209 219.149 415.854 221.670 C 407.359 230.766, 387.656 235.453, 374.584 231.487 C 363.921 228.252, 354.188 219.836, 351.864 211.841 C 348.970 201.887, 350.978 193, 356.120 193 C 358.552 193, 359.617 195.371, 360.296 202.297 C 362.066 220.331, 380.918 229.114, 400.123 220.852 C 406.173 218.249, 414.138 209.820, 415.805 204.256 C 417.277 199.342, 419.225 197.589, 422.341 198.371 C 424.447 198.899, 424.776 199.699, 425.330 205.634 C 427.527 229.154, 446.560 243.253, 474 241.687 C 496.636 240.395, 511.592 229.075, 516.767 209.317 C 519.049 200.606, 521.218 200.138, 525.189 207.500 C 530.758 217.823, 539.161 222, 554.356 222 C 565.220 222, 571.835 220.296, 578.651 215.741 C 584.894 211.568, 591.491 201.881, 592.451 195.475 C 593.449 188.825, 593.903 188, 596.572 188 C 599.486 188, 600.845 190.404, 602.024 197.647 C 604.889 215.250, 621.316 223.665, 641.757 218 C 650.796 215.495, 650.617 215.486, 652.626 218.552 C 654.216 220.979, 654.193 221.248, 652.153 224.006 C 649.746 227.262, 650.543 233.707, 654.905 246.275 C 663.948 272.327, 679.525 282.559, 701.804 277.079 C 704.721 276.362, 707.360 276.027, 707.668 276.335 C 708.599 277.266, 704.332 283.378, 701.064 285.795 C 697.156 288.684, 697.192 289.155, 702.061 298.882 C 713.144 321.026, 740.808 340.016, 771 346.206 C 786.982 349.483, 809.788 348.507, 821 344.067 C 849.005 332.977, 850.309 318.012, 825.971 287 C 784.442 234.083, 749.947 205.397, 710.500 190.975 C 698.824 186.707, 698.199 186.127, 701.254 182.401 C 713.041 168.033, 701.231 145.423, 679.077 139.942 C 673.561 138.578, 672.559 138.008, 672.863 136.408 C 673.759 131.698, 672.976 119.105, 671.536 115.062 C 664.776 96.078, 641.319 86.292, 618.696 93.016 C 613.253 94.634, 611.567 93.573, 612.660 89.219 C 613.474 85.973, 607.904 75.114, 602.653 69.711 C 588.105 54.742, 554.890 51.987, 540.232 64.534 C 535.119 68.910, 534.699 68.877, 532.464 63.919 C 526.605 50.927, 504.445 42.047, 484.500 44.699 M 680 225.566 C 680 232.681, 694.371 253.597, 709.380 268.325 C 741.253 299.601, 771.498 314.839, 797.555 312.748 C 808.127 311.899, 807.501 310.265, 795.527 307.459 C 756.827 298.391, 734.611 283.685, 697.669 242.681 C 688.412 232.407, 680.650 224, 680.419 224 C 680.189 224, 680 224.704, 680 225.566 M 581.500 252.005 C 575.927 253.232, 572 255.876, 572 258.403 C 572 262.547, 574.233 263.436, 581.022 261.995 C 591.975 259.671, 602.490 262.591, 611.772 270.537 C 617.297 275.266, 620.575 275.061, 620.332 270 C 619.862 260.209, 595.507 248.922, 581.500 252.005 M 381.831 259.379 C 367.980 265.076, 354.751 279.351, 359.200 283.800 C 361.624 286.224, 364.794 285.088, 368.615 280.424 C 376.713 270.542, 388.596 264.840, 394.504 268.002 C 400.173 271.036, 404.241 266.321, 400.228 261.367 C 396.199 256.393, 390.569 255.785, 381.831 259.379 M 584.422 325.418 C 569.308 332, 562.718 356.760, 571.500 373.967 C 579.054 388.767, 597.354 391.951, 608.140 380.342 C 619.059 368.588, 619.200 341.396, 608.397 330.607 C 602.357 324.575, 591.671 322.262, 584.422 325.418 M 388.804 331.041 C 379.971 335.706, 374.030 349.753, 373.836 366.435 C 373.591 387.468, 387.941 399.226, 403.879 391.052 C 411.493 387.147, 415.687 379.452, 416.931 367.106 C 419.611 340.530, 405.381 322.285, 388.804 331.041 M 596.390 336.519 C 593.291 339.618, 593.142 345.640, 596.073 349.365 C 601.005 355.635, 608.960 349.473, 607.280 340.684 C 606.226 335.169, 600.087 332.822, 596.390 336.519 M 400.571 344.571 C 398.619 346.524, 398.460 354.879, 400.326 357.431 C 403.441 361.692, 408.901 355.257, 407.618 348.839 C 406.492 343.212, 403.652 341.491, 400.571 344.571 M 445.642 414.180 C 437.941 418.490, 454.164 435.912, 468.801 439.051 L 473.669 440.095 472.894 444.797 C 471.722 451.909, 471.856 465.289, 473.135 468.958 C 474.632 473.252, 473.437 473.965, 464.718 473.985 C 454.120 474.009, 445.690 469.033, 441.022 460 C 438.130 454.404, 435.931 452.853, 432.973 454.320 C 425.262 458.144, 435.438 474.140, 449.825 480.811 C 456.383 483.852, 469.971 484.568, 475.647 482.171 C 478.383 481.016, 479.233 481.070, 482.147 482.581 C 486.436 484.805, 502.568 485.687, 509.961 484.102 C 525.872 480.690, 541.136 467.311, 542.025 456 C 542.375 451.550, 542.031 450.226, 540.359 449.584 C 537.363 448.435, 534.986 450.094, 532.444 455.110 C 525.236 469.334, 511.298 477.063, 495.623 475.528 C 486.848 474.668, 484 473.577, 484 471.074 C 484 469.987, 483.340 466.562, 482.532 463.463 C 481.476 459.407, 481.238 455.200, 481.681 448.442 L 482.298 439.055 487.869 437.436 C 498.682 434.292, 506.703 428.007, 509.951 420.132 C 512.922 412.930, 506.099 410.230, 501.706 416.869 C 490.281 434.133, 461.393 434.197, 452.489 416.979 C 450.915 413.936, 448.121 412.793, 445.642 414.180 M 636.567 489.926 C 626.489 501.062, 590.563 517.179, 562.672 523.077 L 551.843 525.367 549.004 530.992 C 543.288 542.315, 526.164 554.560, 510.540 558.498 C 502.591 560.501, 485.930 560.457, 478.932 558.415 C 464.568 554.222, 455.082 545.270, 450.943 532.005 C 449.282 526.682, 449.092 526.485, 444.864 525.713 C 431.320 523.240, 419.729 520.218, 405.252 515.385 L 389.005 509.961 379.444 515.985 C 353.229 532.500, 303 575.373, 303 581.233 C 303 582.214, 305.228 587.954, 307.952 593.990 C 310.675 600.026, 314.548 609.360, 316.558 614.732 C 319.896 623.654, 328.809 645.133, 329.435 645.765 C 329.579 645.911, 332.275 646.702, 335.427 647.523 C 344.183 649.804, 351.436 653.631, 357.498 659.172 C 360.524 661.938, 363.002 663.593, 363.005 662.850 C 363.020 659.086, 369.340 622.443, 372.466 608 C 378.195 581.532, 381.236 574, 386.196 574 C 389.802 574, 390.312 577.932, 387.631 585.055 C 384.703 592.835, 377.698 625.208, 374.984 643.500 C 373.924 650.650, 372.374 661.013, 371.540 666.528 C 370.088 676.125, 370.109 676.780, 372.012 681.789 C 373.105 684.667, 374 688.142, 374 689.511 L 374 692 450.665 692 L 527.330 692 533.431 686.142 C 545.522 674.532, 559.673 669.607, 587.099 667.465 C 609.102 665.747, 607.016 666.246, 628.055 657.663 L 645.610 650.502 639.265 631.127 C 630.023 602.905, 628.654 595.114, 632.665 593.575 C 636.331 592.168, 637.747 595.378, 647.035 626.133 C 650.418 637.335, 653.286 646.605, 653.409 646.733 C 653.533 646.862, 659.678 644.924, 667.067 642.427 C 692.039 633.986, 705 632.503, 705 638.084 C 705 640.579, 701.762 642.527, 694.500 644.401 C 681.483 647.760, 641.700 661.942, 628.485 667.934 L 621.785 670.972 626.680 674.842 C 646.691 690.659, 658.079 724.388, 650.276 744.724 C 648.640 748.986, 696.557 744.179, 723.417 737.388 C 749.231 730.861, 766.859 718.693, 773.962 702.496 C 786.049 674.936, 779.856 641.605, 754.434 597.388 C 728.674 552.585, 687.566 511.894, 647.933 491.967 C 638.809 487.379, 638.863 487.389, 636.567 489.926 M 528 528.546 C 515.097 530.102, 480.656 530.345, 468.610 528.965 C 463.721 528.405, 459.483 528.184, 459.194 528.473 C 458.390 529.277, 465.883 539.722, 469.394 542.692 C 484.811 555.734, 513.702 552.925, 532.718 536.535 C 537.794 532.159, 541.742 526.936, 539.818 527.140 C 539.093 527.216, 533.775 527.849, 528 528.546 M 259.288 539.512 C 255.595 543.205, 255.586 543.272, 257.717 552 C 258.757 556.262, 262.025 557.026, 268.554 554.533 C 279.089 550.509, 277.039 536, 265.935 536 C 263.683 536, 261.810 536.990, 259.288 539.512 M 278.056 555.440 C 275.280 558.396, 266.147 563, 263.062 563 C 260.286 563, 260.455 563.883, 264.073 568.272 C 267.950 572.975, 269.897 572.975, 277.852 568.269 C 284.724 564.204, 284.903 563.649, 281.793 556.029 L 280.494 552.845 278.056 555.440 M 281 575.985 C 277.425 577.536, 273.088 579.333, 271.363 579.977 L 268.226 581.149 275.185 596.325 C 279.013 604.671, 283.072 613.975, 284.204 617 C 286.509 623.154, 306.407 670.169, 308.278 673.881 C 308.938 675.191, 312.657 678.859, 316.541 682.034 C 333.866 696.191, 339.500 704.915, 339.500 717.588 C 339.500 725.006, 339.225 726.118, 336.187 731.006 L 332.874 736.336 335.738 739.200 C 338.507 741.969, 338.772 742.028, 343.682 740.975 C 349.155 739.801, 357.433 734.453, 356.614 732.621 C 356.338 732.005, 352.015 721.825, 347.007 710 C 341.999 698.175, 336.554 686.109, 334.906 683.186 C 333.259 680.264, 330.820 674.864, 329.486 671.186 C 328.152 667.509, 321.618 651.900, 314.966 636.500 C 308.313 621.100, 299.660 600.513, 295.736 590.750 C 291.812 580.987, 288.354 573.037, 288.051 573.082 C 287.748 573.127, 284.575 574.433, 281 575.985 M 263.900 618.750 C 246.974 636.324, 235.016 654.455, 230.428 669.500 C 229.090 673.889, 228.585 678.856, 228.549 688 C 228.493 702.169, 230.839 709.208, 238.378 717.500 L 242.015 721.500 241.300 718.500 C 236.150 696.893, 251.194 669.158, 274.036 658.150 C 278.731 655.887, 284.044 653.741, 285.841 653.382 C 287.668 653.016, 288.908 652.237, 288.652 651.614 C 284.474 641.453, 273.838 616.566, 273.019 615.036 C 271.353 611.923, 269.908 612.511, 263.900 618.750 M 334 657.598 C 334 657.851, 335.297 660.632, 336.881 663.779 C 338.466 666.925, 342.319 675.800, 345.444 683.500 C 354.258 705.222, 360.231 718.176, 361.028 717.300 C 362.243 715.962, 364.825 706.806, 365.499 701.445 C 367.374 686.522, 357.253 667.782, 343.528 660.764 C 339.293 658.598, 334 656.840, 334 657.598 M 282.049 665.061 C 247.416 681.478, 238.836 718.457, 264.746 739.643 C 277.305 749.913, 303.398 752.426, 313.058 744.297 C 316.770 741.174, 316.743 740.436, 312.843 738.419 C 303.005 733.331, 293.907 720.005, 296.931 715.111 C 297.514 714.168, 299.463 715.401, 304.116 719.658 C 313.997 728.699, 314.355 728.940, 319.335 729.870 C 323.851 730.714, 324.121 730.626, 326.959 727.394 C 331.604 722.104, 332.059 715.044, 328.241 707.500 C 327.406 705.850, 320.997 698.650, 314 691.500 C 303.035 680.296, 300.678 677.291, 296.936 669.750 C 294.548 664.938, 292.123 661.012, 291.547 661.028 C 290.971 661.043, 286.697 662.858, 282.049 665.061 M 584.500 676.607 C 569.029 678.302, 558.498 680.998, 551 685.183 C 544.080 689.046, 531 698.792, 531 700.085 C 531 700.621, 528.057 703.958, 524.460 707.502 C 514.935 716.888, 512.863 723.705, 516.863 732.500 C 520.141 739.704, 521.497 739.854, 523.360 733.215 C 528.087 716.369, 545.374 701.869, 557 705 C 562.479 706.475, 562.090 707.318, 553.965 711.588 C 541.868 717.945, 530.206 733.337, 530.044 743.161 C 529.998 745.925, 534.833 751, 537.512 751 C 540.768 751, 544.515 748.597, 550.364 742.756 C 553.809 739.315, 559.074 735.211, 562.064 733.637 C 565.054 732.062, 568.510 729.587, 569.745 728.137 L 571.990 725.500 571.995 730.104 C 572.001 735.447, 571.011 736.739, 560.500 745.113 C 551.283 752.454, 550.580 753.346, 551.960 755.926 C 557.594 766.452, 589.844 762.312, 604.186 749.222 C 610.665 743.308, 615 741.415, 615 744.500 C 615 747.257, 637.445 745.081, 641.310 741.949 C 646.536 737.714, 643.329 715.125, 635.332 699.841 C 624.509 679.156, 612.277 673.565, 584.500 676.607 M 376.407 700.765 C 375.806 701.169, 375.030 702.962, 374.682 704.750 L 374.050 708 379.010 708 C 396.563 708, 442.474 713.352, 462 717.675 C 469.518 719.339, 475.231 720.055, 478.500 719.743 C 481.250 719.481, 488.563 719.544, 494.751 719.883 C 504.354 720.410, 506.005 720.280, 506.023 719 C 506.065 715.995, 509.949 709.011, 514.052 704.560 L 518.255 700 447.877 700.015 C 409.170 700.024, 377.008 700.361, 376.407 700.765 M 786.943 700.698 C 784.958 701.007, 783.763 702.408, 781.599 706.964 C 778.055 714.427, 770.860 723.375, 764.475 728.262 C 749.540 739.691, 716.951 750.294, 686.865 753.512 L 681.231 754.115 681.231 758.992 C 681.231 765.860, 677.867 779.217, 667.470 813.630 C 665.621 819.752, 661.842 833.383, 659.072 843.920 C 653.760 864.136, 649.304 875.945, 645.510 879.867 L 643.220 882.234 632.360 880.128 C 599.728 873.799, 508.685 866.260, 461.993 866.020 C 448.501 865.951, 445.708 866.221, 440.493 868.098 C 426.385 873.176, 400.032 871.222, 394.339 864.675 C 391.902 861.872, 385.688 860.931, 354 858.566 C 336.874 857.288, 324.352 856.662, 273 854.513 C 266.675 854.249, 254.392 854.025, 245.705 854.016 C 230.278 854, 229.852 853.943, 227.455 851.545 C 223.922 848.013, 223.925 838.846, 227.459 834.055 C 229.685 831.038, 229.780 830.524, 228.459 828.638 C 225.735 824.749, 226.651 820.735, 231.750 814.229 C 237.124 807.371, 254.990 787.368, 268.655 772.908 C 277.303 763.757, 281.752 758.227, 280.885 757.706 C 280.673 757.578, 278.025 756.649, 275 755.640 C 257.166 749.692, 224.310 719.793, 221.487 706.943 C 221.130 705.315, 219.995 703.533, 218.966 702.982 C 217.772 702.343, 200.313 702.074, 170.797 702.240 L 124.500 702.500 120.828 708.020 C 116.541 714.463, 94.994 753.593, 79.539 783 C 73.614 794.275, 66.047 808.675, 62.725 815 C 59.402 821.325, 52.535 834.150, 47.465 843.500 C 33.380 869.476, 27 882.677, 27 885.848 C 27 889.578, 30.130 893.489, 35.345 896.278 L 39.500 898.500 191.500 899 C 275.100 899.275, 484.125 899.500, 656 899.500 L 968.500 899.500 973 897.133 C 978.574 894.202, 980.812 892.265, 982.586 888.833 C 984.535 885.064, 983.350 882.147, 967.826 852.500 C 945.238 809.361, 897.792 720.847, 891.610 710.315 C 885.038 699.117, 889.734 699.977, 836.115 700.150 C 810.477 700.232, 788.349 700.479, 786.943 700.698 M 367.613 722.763 C 365.813 726.530, 365.052 729.274, 365.573 730.118 C 366.031 730.859, 366.651 734.497, 366.953 738.203 L 367.500 744.942 382.511 745.455 C 401.488 746.104, 437.512 750.013, 440.357 751.732 C 442.018 752.736, 438.701 753.770, 435.123 753.364 C 420.143 751.664, 373.866 747.160, 371.250 747.148 L 368 747.134 368 757.067 L 368 767 372.750 767.010 C 378.941 767.022, 401.203 769.555, 411.936 771.468 C 420.009 772.907, 423.113 774.221, 421.723 775.610 C 421.124 776.209, 373.622 770.513, 369.750 769.378 C 368.377 768.976, 367.999 769.472, 367.994 771.683 C 367.985 776.207, 366.054 781.901, 364.190 782.898 C 361.808 784.173, 359.546 782.785, 350.226 774.328 L 342.323 767.157 327.911 766.539 C 299.651 765.327, 296.933 763.769, 323.399 763.953 L 340.961 764.074 335.086 755.873 C 331.855 751.362, 328.629 745.906, 327.917 743.749 L 326.623 739.828 324.404 744.164 C 319.820 753.118, 313.232 756.743, 299.763 757.722 L 292.026 758.284 287.820 763.892 C 285.507 766.976, 277.738 775.829, 270.557 783.565 C 250.557 805.109, 236.234 822.438, 237.720 823.295 C 239.388 824.257, 248.602 825.011, 277 826.506 C 302.196 827.833, 332.830 830.087, 343.500 831.399 C 345.150 831.602, 349.425 832.079, 353 832.458 C 373.977 834.682, 392.445 839.051, 405.972 844.988 C 409.937 846.728, 413.339 847.994, 413.532 847.801 C 413.725 847.608, 415.513 843.636, 417.505 838.975 C 425.045 821.336, 447.485 780.131, 460.343 760.317 C 468.394 747.910, 472.773 739.270, 473.586 734.189 L 474.220 730.226 468.739 728.175 C 458.585 724.376, 434.196 720.502, 414 719.481 C 407.125 719.133, 400.953 718.677, 400.283 718.468 C 399.614 718.259, 392.636 717.788, 384.776 717.421 L 370.486 716.753 367.613 722.763 M 483.517 733.165 C 482.628 739.999, 479.743 746.361, 471.965 758.639 C 456.244 783.456, 448.416 797.167, 437.504 819 C 431.044 831.925, 424.830 843.812, 423.694 845.415 C 421.282 848.819, 420.424 848.927, 434 844.122 C 466.895 832.478, 531.611 833.655, 595.167 847.053 C 621.248 852.551, 626.397 853.445, 628.132 852.780 C 628.983 852.453, 636.096 835.280, 644.875 812.356 C 653.271 790.435, 662.032 768.640, 664.343 763.923 L 668.547 755.346 652.874 754.051 C 644.255 753.340, 636.808 753.001, 636.326 753.299 C 635.844 753.596, 629.836 754.378, 622.975 755.036 C 610.445 756.237, 609.272 756.607, 599.794 762.349 L 596.089 764.593 611.544 766.975 C 620.045 768.285, 627 769.770, 627 770.276 C 627 770.806, 624.558 770.918, 621.250 770.542 C 599.984 768.122, 588.657 767.971, 573.616 769.908 C 560.717 771.569, 552.886 769.912, 546.794 764.233 L 544.089 761.711 526.294 762.369 C 516.507 762.732, 504.803 763.295, 500.285 763.621 C 493.648 764.100, 491.774 763.917, 490.528 762.671 C 487.943 760.086, 490.323 759.664, 510.172 759.189 L 528.950 758.739 527.150 756.119 C 526.159 754.679, 524.766 752.038, 524.053 750.250 C 523.160 748.010, 522.096 746.999, 520.629 746.996 C 515.504 746.987, 508.711 740.203, 507.329 733.714 C 506.523 729.928, 505.025 729.353, 493.856 728.535 L 484.211 727.829 483.517 733.165 M 351.250 747.844 C 347.262 749.820, 344 751.787, 344 752.215 C 344 754.184, 352.748 765.075, 354.763 765.616 C 359.702 766.942, 360.845 762.710, 359.151 749.375 L 358.500 744.251 351.250 747.844 M 495.264 761.718 C 496.784 761.947, 499.034 761.941, 500.264 761.704 C 501.494 761.467, 500.250 761.279, 497.500 761.286 C 494.750 761.294, 493.744 761.488, 495.264 761.718 M 667.039 779.243 C 665.235 783.784, 658.700 800.775, 652.516 817 C 634.920 863.166, 635.864 860.996, 633.065 861.698 C 631.664 862.050, 619.960 860.230, 606.047 857.498 C 555.789 847.626, 543.727 846.029, 512.500 845.109 C 474.217 843.982, 457.010 845.830, 434.781 853.457 C 420.249 858.442, 412.910 858.492, 403.278 853.670 C 387.734 845.888, 352.565 839.819, 304 836.539 C 283.313 835.142, 243.690 833, 238.525 833 C 236.719 833, 236.139 833.887, 235.155 838.150 C 234.501 840.982, 234.086 843.413, 234.233 843.553 C 234.380 843.692, 250.250 844.314, 269.500 844.934 C 303.452 846.029, 338.473 848.013, 360 850.060 C 365.775 850.610, 375.015 851.470, 380.533 851.972 C 391.571 852.976, 394.709 853.880, 400.153 857.624 C 407.617 862.759, 428.286 862.925, 442.372 857.965 C 447.863 856.031, 449.711 855.935, 470.872 856.478 C 535.786 858.145, 589.169 862.473, 622 868.729 C 629.425 870.144, 637.075 871.485, 639 871.710 L 642.500 872.118 645.115 861.809 C 647.705 851.596, 656.743 819.786, 666.075 788.040 C 668.735 778.986, 670.779 771.446, 670.616 771.282 C 670.452 771.119, 668.843 774.701, 667.039 779.243 M 495.250 782.386 C 476.110 783.893, 482.767 785, 510.966 785 C 542.149 785, 567.038 786.292, 589 789.050 C 597.525 790.120, 606.075 790.979, 608 790.959 L 611.500 790.922 608.500 789.628 C 593.675 783.235, 533.411 779.381, 495.250 782.386 M 297.166 784.876 C 295.195 786.126, 298.074 787, 304.161 787 C 306.910 787, 313.286 787.429, 318.330 787.953 C 323.373 788.478, 334.250 789.404, 342.500 790.012 C 350.750 790.620, 367.175 792.211, 379 793.547 C 403.821 796.353, 404.809 796.409, 403.340 794.940 C 398.900 790.500, 302.682 781.380, 297.166 784.876 M 278 807.938 C 278 809.301, 280.035 809.626, 296.500 810.897 C 317.506 812.518, 343.152 814.795, 365.382 817.015 C 387.991 819.272, 389.325 819.335, 388.568 818.110 C 387.922 817.065, 377.256 814.431, 368 813.031 C 342.213 809.129, 278 805.496, 278 807.938 M 487.320 808.385 C 476.782 809.821, 475.482 811.146, 485.061 810.689 C 489.153 810.493, 506.450 810.714, 523.500 811.179 C 550.277 811.909, 565.112 812.835, 595.750 815.691 C 604.295 816.488, 603.930 814.543, 595.250 813.025 C 563.603 807.492, 510.594 805.214, 487.320 808.385 M 981.891 902.647 C 972.489 907.702, 992.347 907.500, 505 907.500 C 19.812 907.500, 38.164 907.675, 28.917 902.958 L 25 900.959 25 905.770 C 25 920.647, 34.233 935.558, 45.944 939.593 C 48.821 940.584, 144.099 940.892, 506.536 941.083 L 963.500 941.324 967.889 939.071 C 974.536 935.658, 981.390 928.252, 983.739 921.941 C 985.449 917.348, 987.947 899.824, 986.854 900.084 C 986.659 900.130, 984.426 901.284, 981.891 902.647" stroke="none" fill="#1a1a1a" fill-rule="evenodd"/>
</svg>