<svg xmlns="http://www.w3.org/2000/svg" width="1024" height="1024" viewBox="0 0 1024 1024" version="1.1">
	<path d="M 344.500 6.190 C 294.653 33.311, 260.161 67.094, 233.397 115.009 C 200.286 174.289, 190.475 240.226, 205.129 305 C 217.699 360.567, 245.913 409.980, 292.262 457.607 L 302.098 467.713 305.054 480.566 C 310.690 505.074, 312.938 518.872, 323.450 593.500 C 329.260 634.750, 335.362 677.050, 337.009 687.500 C 345.871 743.714, 356.355 822.247, 356.432 832.986 C 356.495 841.713, 356.340 842.502, 354.500 842.835 C 345.101 844.537, 341.440 850.559, 342.379 862.773 C 343.372 875.685, 346.589 881.543, 354.596 885.019 L 358.692 886.797 359.917 900.648 C 361.333 916.658, 367.342 966.100, 369.549 979.901 C 372.460 998.109, 378.556 1011.278, 387.366 1018.396 C 393.682 1023.499, 395.221 1024.005, 404.184 1023.933 C 412.379 1023.867, 412.442 1023.848, 408.500 1022.596 C 391.736 1017.272, 382.799 1007.221, 377.915 988.197 C 374.118 973.411, 364.073 887.739, 365.926 885.944 C 366.491 885.396, 405.658 886.538, 423.750 887.629 L 433 888.187 433.005 900.343 C 433.012 919.874, 436.833 973.204, 440.574 1006 C 442.648 1024.174, 442.593 1024, 446.239 1024 C 449.178 1024, 449.244 1023.897, 448.625 1020.250 C 447.767 1015.196, 443.315 968.916, 442.012 951.500 C 441.435 943.800, 440.674 926.288, 440.319 912.586 L 439.673 887.671 466.113 888.332 C 480.655 888.695, 498.079 889.290, 504.835 889.653 L 517.117 890.314 516.402 957.157 L 515.687 1024 518.728 1024 L 521.770 1024 522.522 993.250 C 522.936 976.338, 523.550 946.075, 523.887 926 L 524.500 889.500 565.250 889 C 587.663 888.725, 606.001 888.867, 606 889.315 C 605.999 891.627, 602.828 929.861, 601.922 938.500 C 599.728 959.402, 591.543 1007.601, 588.464 1017.747 C 586.556 1024.035, 586.547 1024, 589.961 1024 C 592.667 1024, 593.059 1023.547, 594.499 1018.750 C 599.989 1000.460, 608.234 946.351, 610.611 913 C 611.494 900.625, 612.358 889.990, 612.532 889.366 C 612.735 888.637, 617.431 888.018, 625.674 887.634 C 660.796 885.997, 668.222 885.831, 667.687 886.698 C 667.375 887.203, 665.946 897.265, 664.512 909.058 C 655.513 983.052, 650.103 1003.497, 636.641 1014.398 C 631.580 1018.496, 626.928 1020.927, 621 1022.572 L 616.500 1023.821 625.320 1023.911 C 633.618 1023.995, 634.406 1023.816, 638.646 1020.900 C 654.422 1010.045, 662.057 984.406, 670.479 914 C 671.894 902.175, 673.273 891.099, 673.545 889.387 C 673.927 886.979, 675.152 885.583, 678.959 883.216 C 682.147 881.235, 684.616 878.713, 685.973 876.054 C 688.618 870.869, 689.782 857.899, 688.068 852.706 C 686.729 848.648, 681.860 844, 678.948 844 C 677.429 844, 677.145 843.452, 677.527 841.250 C 677.789 839.737, 678.926 828.150, 680.055 815.500 C 683.377 778.267, 690.905 723.353, 707.612 614.500 C 712.845 580.400, 718.665 538.775, 720.544 522 C 722.424 505.225, 724.474 487.675, 725.100 483 L 726.239 474.500 738.963 461.500 C 775.449 424.225, 798.497 392.484, 813.715 358.559 C 843.696 291.719, 846.805 219.606, 822.586 152.792 C 799.524 89.168, 752.752 34.989, 695.826 5.954 C 684.583 0.220, 683.869 0, 676.511 0 L 668.870 0 683.234 7.347 C 732.503 32.547, 758.852 55.719, 786.984 98.585 C 832.592 168.081, 843.346 244.254, 818.943 324.966 C 805.853 368.262, 786.172 400.883, 749.239 440.500 C 726.464 464.928, 708.738 481.624, 696.982 489.716 C 691.217 493.684, 685.375 497.837, 684 498.943 C 681.386 501.047, 678 501.676, 678 500.057 C 678 498.295, 666.967 487.187, 662.142 484.091 C 656.485 480.461, 647.779 477.305, 640.908 476.393 C 638.209 476.035, 636 475.458, 636 475.112 C 636 474.765, 640.972 468.185, 647.049 460.490 C 694.472 400.443, 721.351 325.741, 723.689 247.500 C 726.377 157.545, 697.333 74.787, 643.547 19.140 C 629.031 4.122, 623.316 -0, 617.009 -0 L 611.802 0 617.651 4.400 C 691.031 59.601, 732.131 181.352, 713.894 289.500 C 702.339 358.023, 678.237 412.013, 636.628 462.579 C 633.808 466.007, 630.600 470.300, 629.500 472.120 C 627.395 475.601, 627.098 475.790, 614.649 481.544 C 606.467 485.326, 593.902 496.058, 588.860 503.572 C 587.174 506.084, 585.929 506.969, 584.500 506.668 C 579.383 505.589, 553.411 497.760, 552.712 497.085 C 552.279 496.666, 554.589 488.939, 557.847 479.912 C 587.440 397.911, 599.973 322.068, 599.970 225 C 599.968 144.887, 589.638 80.770, 567.499 23.451 C 560.001 4.037, 557.586 0, 553.473 0 L 549.975 0 553.610 7.219 C 567.866 35.527, 581.347 84.327, 587.999 131.700 C 596.368 191.306, 595.940 275.435, 586.946 338.500 C 580.017 387.089, 565.184 445.906, 549.818 485.722 L 545.874 495.943 521.687 495.722 C 508.384 495.600, 494.319 495.857, 490.430 496.293 L 483.360 497.086 482.065 494.293 C 464.870 457.196, 447.091 383.774, 441.557 327 C 429.951 207.940, 445.338 89.966, 482.477 13.250 L 488.891 0 485.456 0 C 482.131 0, 481.874 0.291, 477.510 8.980 C 430.669 102.246, 418.062 264.115, 447.094 399.500 C 453.362 428.731, 462.630 459.497, 473.891 488.458 C 475.592 492.834, 476.651 496.696, 476.242 497.040 C 475.245 497.878, 451.482 504.002, 449.258 503.993 C 448.291 503.989, 446.414 502.392, 445.088 500.444 C 436.770 488.232, 419.095 476.240, 406 473.923 C 396.415 472.227, 395.997 471.954, 389.831 463.382 C 365.429 429.454, 341.046 376.754, 330.569 335.300 C 319.343 290.886, 317.634 226.558, 326.478 181.284 C 340.626 108.850, 378.247 42.552, 424.808 8 L 434.915 0.500 429.870 0.195 C 425.092 -0.094, 424.419 0.193, 417.162 5.634 C 371.753 39.677, 331.760 113.695, 319.524 186.339 C 313.236 223.675, 313.443 283.138, 319.981 317 C 328.990 363.667, 355.040 424.893, 381.800 462.297 C 385.028 466.808, 387.968 471.019, 388.334 471.653 C 388.770 472.410, 386.664 473.515, 382.207 474.868 C 371.316 478.176, 362.526 484.592, 355.371 494.454 C 352.762 498.050, 355.116 499.423, 326.985 477.894 C 270.866 434.947, 230.177 375.305, 214.512 313.033 C 199.158 252.001, 202.902 201.046, 226.894 144.500 C 253.478 81.843, 299.686 34.252, 362 5.352 L 373.500 0.018 364.500 0.112 L 355.500 0.205 344.500 6.190 M 862 406.108 C 843.028 409.359, 827 426.473, 827 443.478 L 827 446.592 817.592 446.181 C 806.311 445.688, 800.256 447.902, 793.205 455.101 C 780.936 467.626, 779.151 490.638, 789.509 502.739 C 799.580 514.506, 817.028 518.948, 832.173 513.602 L 838.847 511.247 842.173 514.682 C 855.966 528.925, 884.042 528.064, 900.501 512.893 L 904.821 508.910 911.517 510.076 C 923.546 512.171, 934.562 508.995, 943.452 500.869 C 951.720 493.313, 954.525 486.816, 954.403 475.500 C 954.149 451.789, 938.884 436.852, 916.346 438.258 L 908 438.779 907.990 436.139 C 907.977 432.503, 903.614 423.455, 899.387 418.297 C 891.443 408.602, 876.286 403.660, 862 406.108 M 858.286 413.451 C 842.080 418.515, 831.678 434.016, 833.721 450.056 C 834.399 455.383, 832.658 456.262, 825.986 453.959 C 811.835 449.075, 799.162 453.831, 793.005 466.338 C 787.570 477.378, 787.984 489.536, 794.081 497.953 C 802.396 509.432, 825.084 513.513, 835.674 505.435 L 839.110 502.814 844.388 507.805 C 847.290 510.551, 852.103 514.077, 855.083 515.641 C 868.763 522.826, 890.775 516.631, 900.061 502.984 C 901.620 500.693, 901.628 500.692, 906.251 502.458 C 922.543 508.680, 941.957 500.178, 946.987 484.619 C 948.744 479.184, 947.850 466.648, 945.297 460.911 C 939.473 447.823, 924.147 441.162, 910.719 445.882 C 903.899 448.279, 901.576 447.824, 902.469 444.269 C 904.050 437.969, 896.375 422.565, 889.237 417.714 C 881.202 412.253, 867.957 410.428, 858.286 413.451 M 149.272 476.437 C 127.275 481.767, 112.054 500.648, 112.012 522.656 L 112 528.813 102.250 529.163 C 64.956 530.504, 47.470 575.629, 73.974 602.134 C 88.292 616.453, 106.956 619.758, 127.121 611.545 C 128.310 611.061, 129.421 612.043, 131.287 615.227 C 146.377 640.976, 187.509 643.411, 210.985 619.944 L 217.544 613.387 222.632 615.696 C 234.366 621.021, 251.822 620.863, 265.709 615.307 C 289 605.988, 295.134 578.731, 277.444 563.160 C 273.183 559.409, 264.008 555, 260.462 555 C 259.319 555, 259 553.480, 259 548.038 C 259 534.795, 253.062 524.624, 242.241 519.330 C 234.578 515.580, 222.133 514.900, 213.669 517.768 C 209.716 519.108, 207.752 519.383, 207.568 518.622 C 207.420 518.005, 206.541 514.357, 205.615 510.516 C 199.113 483.529, 176.485 469.843, 149.272 476.437 M 311 475.395 C 311 475.746, 312.092 481.089, 313.428 487.267 C 317.697 507.023, 320.829 526.289, 328.421 579.500 C 332.502 608.100, 339.432 656.475, 343.821 687 C 348.210 717.525, 354.182 759.533, 357.091 780.352 L 362.380 818.204 368.440 811.852 C 371.773 808.358, 376.623 803.802, 379.218 801.727 C 381.812 799.652, 385.362 795.827, 387.107 793.227 C 392.439 785.280, 399.878 778.314, 414.250 767.809 C 421.813 762.282, 428 757.474, 428 757.125 C 428 756.776, 423.613 754.401, 418.250 751.846 C 375.401 731.435, 350.621 694.191, 353.479 654.500 C 355.061 632.545, 362.054 608.639, 376.634 575.350 C 376.916 574.706, 375.677 573.713, 373.819 573.092 C 365.761 570.400, 354.866 558.603, 351.072 548.463 C 346.653 536.653, 346.378 515.988, 350.503 505.764 C 351.030 504.457, 350.499 503.760, 348.352 502.945 C 346.783 502.349, 343.025 499.730, 340 497.125 C 335.504 493.254, 325.583 485.581, 312.848 476.128 C 311.832 475.373, 311 475.044, 311 475.395 M 153.347 482.095 C 139.077 484.479, 127.790 492.548, 122.401 504.218 C 119.782 509.889, 119.486 511.606, 119.351 521.871 C 119.158 536.649, 118.215 537.956, 109.134 536.029 C 93.985 532.814, 78.354 541.221, 71.478 556.282 C 56.469 589.155, 90.947 620.990, 124.782 605.499 C 131.222 602.551, 131.426 602.648, 136.524 611.040 C 147.956 629.858, 174.964 635.749, 195.622 623.930 C 203.177 619.608, 210.632 612.588, 211.320 609.150 C 212.163 604.937, 214.141 604.723, 221.864 608.010 C 250.295 620.108, 281 608.821, 281 586.272 C 281 573.228, 271.717 563.576, 256.648 560.952 C 249.200 559.655, 249.404 559.839, 251.635 556.435 C 254.035 552.772, 253.001 542.566, 249.506 535.422 C 243.102 522.333, 225.914 518.069, 210.857 525.834 C 203.754 529.498, 202 528.958, 202 523.107 C 202 518.296, 198.550 506.007, 195.558 500.161 C 188.528 486.425, 171.375 479.083, 153.347 482.095 M 382.597 482.938 C 366.748 488.147, 357.775 499.982, 354.871 519.511 C 351.993 538.861, 363.900 562.782, 378.720 567.421 C 380.940 568.116, 381.736 567.156, 391.282 552.281 C 391.816 551.450, 390.176 550.108, 386.134 548.068 C 375.271 542.584, 372.661 536.439, 376.010 524.231 C 378.447 515.350, 381.307 510.214, 384.492 509.003 C 391.787 506.230, 420 520.835, 420 527.385 C 420 528.317, 417.175 532.099, 413.723 535.790 C 398.985 551.545, 389.017 566.059, 379.516 585.598 C 376.482 591.837, 374 597.301, 374 597.739 C 374 598.178, 379.165 602.026, 385.477 606.291 C 397.779 614.602, 399.253 616.205, 397.898 619.794 C 396.475 623.565, 391.366 624.939, 377.686 625.233 L 365.226 625.500 363.498 633.036 C 360.960 644.108, 360.885 643.987, 372.500 647.679 C 378 649.427, 384.716 651.227, 387.426 651.679 C 391.670 652.386, 392.485 652.905, 393.318 655.428 C 394.827 659.995, 390.609 663.024, 376.345 667.616 C 362.645 672.027, 362 672.393, 362 675.765 C 362 679.606, 365.809 691.556, 367.765 693.851 L 369.500 695.888 380.996 692.504 C 396.206 688.027, 401.211 687.354, 403.355 689.498 C 407.293 693.436, 404.864 697.539, 392.986 707.011 C 388.159 710.860, 383.901 714.795, 383.524 715.755 C 381.974 719.694, 405.077 737.112, 424.500 746.648 C 452.927 760.605, 474.047 764.949, 513.644 764.983 C 545.624 765.010, 563.740 762.624, 585.500 755.519 C 604.319 749.374, 629 736.370, 629 732.600 C 629 731.871, 625.962 729.012, 622.250 726.246 C 605.635 713.866, 600.603 707.804, 602.607 702.582 C 603.444 700.401, 604.459 700.525, 617.967 704.450 C 627.547 707.234, 650.829 711.562, 651.611 710.704 C 652.969 709.216, 660 691.559, 660 689.637 C 660 686.703, 660.922 687.033, 644.205 683.974 C 630.797 681.520, 620.696 678.544, 619.052 676.562 C 618.398 675.775, 618.007 673.647, 618.182 671.833 C 618.575 667.762, 619.010 667.621, 637.531 665.549 C 645.249 664.686, 654.699 663.197, 658.531 662.240 L 665.500 660.500 665.801 655.837 C 665.967 653.273, 665.715 649.673, 665.240 647.837 L 664.378 644.500 646.507 643.309 C 627.602 642.050, 623.900 640.951, 623.212 636.392 C 622.698 632.984, 625.286 631.103, 638.862 625.016 C 646.211 621.721, 653.715 618.103, 655.538 616.976 L 658.853 614.928 656.937 608.015 C 654.221 598.213, 650.397 588.373, 646.885 582.146 C 643.522 576.183, 643.687 574, 647.501 574 C 653.888 574, 665.260 565.352, 670.396 556.588 C 679.877 540.409, 679.769 517.699, 670.144 503.710 C 657.778 485.736, 636.148 479.557, 617.772 488.750 C 609.189 493.044, 596.836 504.417, 593.410 511.178 C 590.542 516.836, 588.179 518.399, 584.565 517.025 C 583.154 516.488, 582 515.564, 582 514.970 C 582 514.093, 572.165 509, 570.471 509 C 570.212 509, 570 509.867, 570 510.928 C 570 511.988, 567.289 519.301, 563.976 527.178 C 557.700 542.099, 553.789 547.396, 549.500 546.785 C 547.571 546.510, 547.500 545.738, 547.500 525 L 547.500 503.500 539.500 502.960 C 535.100 502.663, 531.408 502.454, 531.297 502.497 C 531.185 502.539, 530.137 507.957, 528.968 514.537 C 526.552 528.132, 519.096 552.073, 515.704 557.122 C 511.267 563.729, 504.738 561.985, 503.094 553.753 C 501.632 546.432, 500.026 526.340, 499.995 515 C 499.961 502.354, 500.091 502.500, 489.868 503.602 C 480.228 504.641, 481.628 502.531, 477.371 522.440 C 474.232 537.118, 471.592 543.345, 468.308 543.812 C 465.501 544.211, 463.688 540.742, 462.137 532 C 459.366 516.386, 457.494 509, 456.309 509 C 455.628 509, 453.494 510.383, 451.569 512.074 C 446.498 516.526, 444.277 515.801, 440.619 508.500 C 436.298 499.873, 426.172 490.183, 416.466 485.386 C 406.664 480.541, 392.916 479.548, 382.597 482.938 M 715.988 484.514 C 715.297 485.347, 709.954 489.231, 704.116 493.144 C 687.551 504.248, 681.821 509.123, 682.543 511.500 C 683.910 515.999, 684.254 539.290, 683.036 544.852 C 680.250 557.578, 670.473 571.708, 660.350 577.641 C 654.906 580.831, 654.892 581.557, 659.979 595.820 C 676.324 641.639, 676.460 673.863, 660.448 706.752 C 653.367 721.294, 641.003 734.684, 624.751 745.409 L 614.282 752.318 623.029 760.909 C 633.197 770.894, 641.454 783.043, 647.665 797.158 C 653.096 809.498, 660 832.985, 660 839.122 C 660 844.116, 661.026 844.955, 667.171 844.986 C 670.350 845.003, 670.450 844.642, 672.034 827.500 C 674.770 797.876, 679.394 759.509, 684.506 724 C 687.554 702.825, 690.517 682.125, 691.089 678 C 692.352 668.892, 698.003 631.762, 705.394 584 C 708.416 564.475, 712.031 539.050, 713.427 527.500 C 719.116 480.440, 719.097 480.768, 715.988 484.514 M 634 514.317 C 630.975 515.566, 624.788 519.193, 620.250 522.377 C 612.096 528.099, 612 528.217, 612 532.461 C 612 535.198, 612.587 537.242, 613.619 538.098 C 614.509 538.837, 617.372 542.605, 619.982 546.471 C 625.617 554.817, 633.092 562, 636.144 562 C 637.348 562, 639.496 560.920, 640.917 559.601 C 642.337 558.282, 645.902 555.033, 648.837 552.383 C 656.426 545.530, 657.367 543.284, 656.730 533.551 C 655.506 514.875, 648.013 508.534, 634 514.317 M 385.673 517.765 C 383.385 522.361, 381.728 529.779, 382.396 532.441 C 383.282 535.971, 388.607 541.759, 393.059 544.030 L 396.808 545.943 398.297 543.721 C 399.117 542.500, 402.310 538.609, 405.394 535.074 C 408.477 531.540, 411 528.283, 411 527.835 C 411 526.328, 400.558 520.098, 393.768 517.554 L 387.036 515.031 385.673 517.765 M 633.226 522.711 C 629.225 524.737, 624.516 527.593, 622.761 529.058 L 619.571 531.722 621.535 536.087 C 624.158 541.913, 631.276 551.480, 634.619 553.670 L 637.312 555.435 643.157 549.080 C 650.633 540.952, 651.973 536.929, 649.656 529.577 C 647.709 523.402, 644.589 518.994, 642.177 519.014 C 641.255 519.021, 637.227 520.685, 633.226 522.711 M 434.500 574.568 C 430.224 576.094, 425 581.338, 425 584.105 C 425 586.657, 427.981 587.260, 430.766 585.273 C 438.225 579.950, 438.391 579.888, 443.341 580.497 C 451.093 581.451, 454.056 577.175, 447.532 574.449 C 443.277 572.671, 439.725 572.704, 434.500 574.568 M 565.667 575.667 C 565.300 576.033, 565 577.608, 565 579.167 C 565 581.798, 565.281 582, 568.935 582 C 573.836 582, 577.761 583.444, 581 586.439 C 585.044 590.178, 590 590.239, 590 586.550 C 590 580.936, 569.546 571.788, 565.667 575.667 M 432.459 621.880 C 414.448 630.061, 419.475 659.012, 438.957 659.306 C 448.015 659.443, 453.889 653.250, 454.739 642.667 C 455.575 632.244, 452.209 625.362, 444.579 621.896 C 439.477 619.579, 437.529 619.576, 432.459 621.880 M 564.500 627.421 C 554.222 632.022, 549.829 645.818, 555.144 656.798 C 560.100 667.036, 574.038 667.373, 581.616 657.437 C 585.818 651.928, 585.899 639.348, 581.773 633.394 C 576.993 626.497, 571.109 624.463, 564.500 627.421 M 484.369 648.493 C 460.020 653.788, 460.328 668.921, 485 679.513 C 490.905 682.048, 490.972 682.183, 490.954 691.500 C 490.924 706.968, 485.775 714.112, 474.584 714.213 C 467.340 714.278, 463.334 711.845, 459.335 704.954 C 455.095 697.646, 453.466 696, 450.477 696 C 448.101 696, 448.038 696.132, 449.391 698.250 C 450.181 699.487, 451.388 702.416, 452.074 704.758 C 454.499 713.038, 462.854 720.153, 471.838 721.590 C 480.386 722.957, 490.514 718.039, 493.086 711.273 C 494.325 708.015, 495.053 708.345, 500.481 714.632 C 508.815 724.286, 518.437 726.343, 529.730 720.885 C 535.063 718.308, 547 705.601, 547 702.501 C 547 696.414, 539.383 696.414, 537.356 702.500 C 535.741 707.350, 528.043 714.597, 522.846 716.160 C 511.941 719.440, 501.212 709.816, 498.946 694.722 C 498.432 691.300, 497.796 687.263, 497.531 685.750 C 497.054 683.021, 497.092 683, 502.635 683 C 512.595 683, 527.876 672.889, 530.035 664.870 C 533.462 652.142, 508.596 643.223, 484.369 648.493 M 441.667 677.667 C 438.866 680.468, 443.385 685.002, 448.973 684.996 C 452.985 684.992, 459.349 681.556, 458.745 679.720 C 458.179 678, 454.115 677.601, 451.487 679.007 C 449.707 679.960, 448.667 679.879, 446.186 678.596 C 442.674 676.780, 442.574 676.759, 441.667 677.667 M 545.657 683.676 C 542.802 686.531, 547.699 690, 554.582 690 C 557.910 690, 560.321 686.818, 558.349 685.027 C 557.207 683.989, 546.485 682.848, 545.657 683.676 M 799.798 686.878 C 782.525 692.562, 772.832 704.532, 772.167 721 L 771.824 729.500 762.907 729.179 C 755.163 728.900, 753.289 729.179, 748.659 731.299 C 727.924 740.791, 722.534 771.505, 738.994 786.376 C 749.611 795.968, 765.830 799.437, 779.124 794.958 L 785.185 792.916 789.668 797.048 C 805.100 811.273, 830.839 810.463, 847.259 795.236 C 851.867 790.962, 852.862 790.459, 855.500 791.069 C 862.278 792.637, 874.784 792.053, 880.540 789.899 C 887.345 787.353, 896.557 778.730, 899.880 771.795 C 907.241 756.434, 899.995 735.406, 884.500 727.161 C 879.877 724.701, 878.585 724.500, 867.366 724.500 L 855.232 724.500 854.614 718.586 C 853.306 706.063, 844.338 693.704, 832.722 688.415 C 824.467 684.657, 808.773 683.924, 799.798 686.878 M 804 692.302 C 786.231 697.368, 778.028 708.206, 778.010 726.643 C 777.999 738.342, 777.535 738.940, 770.367 736.506 C 752.077 730.297, 736.057 742.389, 735.750 762.636 C 735.439 783.126, 760.683 797.239, 780.394 787.596 L 786.109 784.800 792.026 790.443 C 801.880 799.843, 812.135 802.667, 825.271 799.600 C 836.039 797.086, 842.106 793.256, 847.578 785.518 L 849.657 782.579 855.764 784.429 C 870.565 788.910, 885.472 783.559, 892.770 771.145 C 896.472 764.847, 896.757 750.883, 893.315 744.432 C 886.400 731.470, 869.079 726.065, 856.114 732.823 C 849.859 736.084, 849.320 735.531, 848.814 725.330 C 848.068 710.315, 841.156 699.057, 829.500 693.871 C 823.428 691.170, 810.715 690.388, 804 692.302 M 601 758.152 C 569.525 772.215, 499.753 776.463, 458.525 766.826 C 453.588 765.672, 446.390 763.653, 442.529 762.340 C 435.289 759.877, 434.625 759.983, 432.786 763.892 C 432.629 764.226, 430.390 765.493, 427.810 766.708 L 423.121 768.915 427.413 775.317 C 432.935 783.551, 434.174 787.030, 432.654 790.027 C 430.202 794.864, 428.419 794.831, 423.270 789.853 C 420.647 787.316, 416.501 783.822, 414.057 782.089 L 409.613 778.937 402.835 785.664 C 399.107 789.363, 396.265 792.598, 396.520 792.853 C 396.774 793.108, 400.810 794.547, 405.487 796.051 C 418.969 800.386, 428.736 807.645, 433.418 816.808 C 436.139 822.134, 435.670 822.904, 438.410 808.629 C 439.240 804.301, 441.555 797.274, 443.554 793.016 C 446.214 787.346, 447.095 784.257, 446.844 781.481 C 446.393 776.512, 448.144 775.990, 452.076 779.922 L 455.161 783.007 452.016 788.254 C 445.817 798.595, 443.893 803.775, 442.684 813.379 C 441.963 819.113, 440.871 823.516, 439.891 824.646 C 438.582 826.155, 438.371 828.194, 438.757 835.607 L 439.231 844.714 448.865 845.288 C 463.008 846.130, 522.296 846.224, 536.951 845.427 L 549.592 844.740 551.848 838.620 C 555.694 828.189, 555.789 829, 550.716 829 L 546.198 829 541.629 819.608 C 535.403 806.810, 527.822 801.054, 512.391 797.409 C 502.728 795.126, 480.392 795.989, 470.500 799.026 C 461.066 801.922, 458.500 802.033, 458.500 799.543 C 458.500 795.121, 483.137 790.301, 500.500 791.327 C 524.986 792.773, 536.364 799.186, 546.299 817.138 C 551.025 825.677, 551.843 825.921, 560.453 821.357 C 564.329 819.302, 570.200 816.679, 573.500 815.528 C 578.692 813.717, 579.929 812.766, 582.686 808.468 C 587.992 800.193, 590.303 797.795, 592.250 798.542 C 594.691 799.479, 594.434 801.896, 591.425 806.325 C 588.249 810.999, 589.163 812.533, 595.554 813.253 C 610.039 814.886, 629.766 834.144, 631.828 848.665 L 632.515 853.500 636.768 853.808 C 644.460 854.365, 651.727 848.505, 653.448 840.357 C 654.434 835.689, 650.220 821.695, 648.083 822.540 C 645.168 823.693, 636.758 824.749, 634.617 824.231 C 631.516 823.480, 629.500 821.436, 627.511 817.024 C 625.023 811.507, 625.736 810.647, 635.412 807.500 C 640.136 805.963, 643.990 804.435, 643.978 804.103 C 643.899 801.864, 634.115 785.528, 632.933 785.660 C 632.145 785.748, 626.464 786.985, 620.310 788.410 C 606.396 791.630, 602.462 791.732, 600.951 788.909 C 598.727 784.753, 601.283 781.785, 612.049 776.023 C 617.522 773.094, 622 770.407, 622 770.052 C 622 769.031, 614.873 762.621, 610.757 759.939 C 608.698 758.598, 607.011 757.163, 607.007 756.750 C 606.997 755.673, 606.058 755.892, 601 758.152 M 386.205 806.835 C 369.186 812.903, 358.866 837.314, 367.115 851.992 C 369.716 856.618, 370.893 857.201, 375.995 856.385 L 379.832 855.771 379.278 850.407 C 378.322 841.140, 384.962 841.402, 386.119 850.677 C 387.231 859.595, 391.186 863.718, 397.625 862.673 C 405.595 861.380, 407.004 858.712, 404.405 849.831 C 403.792 847.738, 407.526 846.361, 409.460 847.967 C 410.210 848.590, 411.366 851.358, 412.028 854.118 C 413.313 859.471, 415.281 861, 420.891 861 C 430.420 861, 435.977 838.367, 429.775 824.819 C 422.484 808.894, 402.994 800.849, 386.205 806.835 M 580.344 822.031 C 566.987 824.706, 557.296 835.476, 554.708 850.522 C 553.397 858.144, 554.832 861.541, 560.742 864.801 C 565.892 867.642, 566.971 867.114, 567.100 861.691 C 567.263 854.831, 568.263 852.500, 571.045 852.500 C 573.400 852.500, 573.520 852.818, 574 860.341 C 574.583 869.490, 576.125 871.446, 583.634 872.572 C 589.341 873.428, 592.428 871.422, 596.019 864.526 C 598.682 859.410, 601.365 857.661, 604.250 859.161 C 606.566 860.365, 606.466 861.224, 603.500 865.595 C 600.166 870.509, 600.259 870.766, 605.665 871.577 C 618.014 873.429, 628.837 856.558, 623.016 844.532 C 615.476 828.958, 596.285 818.839, 580.344 822.031 M 350.571 852.202 C 348.581 855.043, 348.438 867.721, 350.345 872.282 C 353.316 879.389, 348.363 878.934, 447 881.158 C 550.127 883.484, 666.194 881.584, 675.805 877.414 C 680.027 875.582, 682 870.980, 682 862.966 C 682 851.962, 680.812 851.035, 666.673 851.015 C 655.945 851, 655.819 851.028, 652.817 854.029 C 647.978 858.868, 644.187 860.403, 636.803 860.513 L 630.106 860.613 625.954 866.831 C 618.600 877.844, 611.751 880.980, 602.649 877.504 C 598.203 875.806, 598.011 875.816, 593.471 878.014 C 587.543 880.884, 581.529 880.305, 573.113 876.057 C 569.782 874.376, 565.676 873, 563.989 873 C 555.178 873, 547.004 864.343, 546.998 855.007 L 546.997 852.500 491.977 852.500 L 436.958 852.500 434.560 857.674 C 430.844 865.693, 425.228 868.334, 415.198 866.778 C 411.281 866.171, 408.725 866.354, 405.413 867.478 C 397.049 870.318, 386.669 868.645, 383.760 863.988 C 382.880 862.578, 381.560 862.370, 376.023 862.766 C 369.669 863.221, 369.177 863.094, 365.804 860.133 C 363.855 858.421, 361.569 855.595, 360.725 853.851 C 358.687 849.644, 353.009 848.722, 350.571 852.202" stroke="none" fill="#1a1a1a" fill-rule="evenodd"/>
</svg>