<svg xmlns="http://www.w3.org/2000/svg" width="1024" height="1024" viewBox="0 0 1024 1024" version="1.1">
	<path d="M 290.919 46.010 C 246.603 53.511, 221.674 85.707, 225.722 130.213 C 227.392 148.572, 234.327 162.664, 248.640 176.781 L 256.023 184.062 250.617 197.781 C 224.930 262.970, 221.405 320.134, 241.035 353.176 C 255.786 378.005, 281.566 401.774, 308.412 415.296 L 318.954 420.606 314.227 427.096 C 302.125 443.712, 291.005 468.324, 276.996 509.500 C 272.131 523.800, 267.215 537.679, 266.071 540.343 C 260.795 552.631, 249.566 596.766, 246.992 615.336 C 245.552 625.725, 246.150 625.587, 233.915 618.364 C 220.452 610.416, 211.858 601.267, 208.680 591.500 C 204.124 577.499, 202.395 558.734, 204.166 542.500 C 206.754 518.764, 208.424 507.464, 210.742 498 C 214.468 482.791, 215.089 456.691, 212.139 439.332 C 205.171 398.334, 180.910 367.135, 146.904 355.439 C 122.767 347.138, 96.422 355.165, 86.949 373.707 C 81.787 383.809, 84.485 402.495, 92.308 410.830 C 95.131 413.838, 113.061 423.913, 118.509 425.553 C 134.180 430.269, 143.683 440.620, 148.062 457.741 C 151.249 470.203, 150.524 481.133, 144.461 512 C 137.504 547.424, 137.044 561.619, 141.928 590.111 C 149.183 632.430, 174.357 671.130, 207 690.142 C 218.380 696.770, 223.411 698.721, 236.500 701.577 C 248.427 704.180, 251.012 705.214, 250.987 707.372 C 250.979 707.993, 252.854 716.302, 255.153 725.838 C 259.773 745.006, 259.864 744.336, 252.505 745.344 C 247.861 745.981, 194.515 758.420, 178.715 762.550 C 146.015 771.099, 118.050 784.543, 106.178 797.423 C 101.798 802.175, 101.215 803.815, 103.200 805.800 C 105.337 807.937, 107.136 807.110, 114.641 800.538 C 126.828 789.867, 145.495 780.467, 168.168 773.585 C 177.394 770.785, 225.205 759.611, 245.500 755.512 C 252.650 754.068, 259.187 752.689, 260.026 752.447 C 261.794 751.938, 265.865 766.528, 268.691 783.500 C 270.687 795.488, 270.919 821.933, 269.126 833.113 C 267.303 844.475, 267.383 859.718, 269.289 864.208 C 274.936 877.513, 303.269 890.680, 333.510 894.052 C 348.230 895.693, 381.543 895.739, 388 894.127 C 396.229 892.072, 408.552 885.309, 415.080 879.265 C 422.602 872.301, 424.409 867.306, 423.806 855.140 C 423.060 840.079, 416.801 829.947, 402.380 820.449 C 395.846 816.147, 394.001 814.442, 394.494 813.166 C 400.032 798.824, 404.242 779.193, 406.001 759.514 C 406.590 752.922, 407.427 747.173, 407.860 746.740 C 408.583 746.017, 418.767 744.019, 421.801 744.006 C 423.638 743.998, 425.941 750.017, 428.111 760.500 C 430.649 772.762, 430.605 790.322, 428 804.500 C 424.157 825.419, 425.234 830.483, 435.737 840.867 C 451.215 856.170, 470.729 861.316, 509.500 860.320 C 536.305 859.632, 547.754 856.887, 558.445 848.585 C 567.883 841.256, 571 835.955, 571 827.231 C 571 811.935, 564.809 801.745, 549 791.021 C 536.258 782.378, 536.855 783.687, 539.193 769.500 C 541.551 755.196, 541.260 733.517, 538.429 712.463 C 536.592 698.801, 536.877 694.667, 539.762 693.133 C 541.364 692.282, 557.805 690.632, 590.500 688.042 C 597.650 687.475, 622.868 686.713, 646.540 686.348 L 689.581 685.684 691.040 692.092 C 692.522 698.599, 694.356 700.228, 698.435 698.663 C 702.354 697.160, 688.522 646.196, 679.365 628.401 L 674.967 619.853 679.197 622.177 C 689.358 627.757, 696.181 636.257, 704.784 654.053 C 713.004 671.057, 714.623 673.410, 717.702 672.821 C 719.291 672.518, 719.638 670.504, 720.690 655.489 C 722.225 633.574, 723.910 624.550, 729.881 606.264 C 736.653 585.529, 742.348 574.047, 749.856 565.997 L 755.914 559.500 754.003 566.500 C 752.952 570.350, 750.931 576.875, 749.513 581 C 738.294 613.626, 734.865 673.601, 744.053 676.517 C 746.937 677.432, 747.478 676.741, 750.475 668.298 C 755.053 655.402, 760.449 644.658, 768.311 632.786 C 774.981 622.713, 788.388 607.055, 789.441 608.108 C 790.917 609.584, 783.319 634.539, 777.092 648.665 C 767.900 669.519, 766.070 677.800, 769.557 682.777 C 772.137 686.461, 774.573 685.520, 778.881 679.175 C 784.618 670.728, 802.066 656, 806.338 656 C 806.655 656, 804.908 660.275, 802.457 665.500 C 800.006 670.725, 795.975 679.315, 793.500 684.589 C 788.429 695.396, 788.215 696.510, 790.934 697.965 C 794.125 699.672, 794.879 699.224, 797.750 693.917 L 800.500 688.835 807 689.371 C 810.575 689.666, 825.313 690.690, 839.750 691.646 L 866 693.385 866 711.542 L 866 729.700 832.750 730.314 C 751.481 731.816, 679.649 743.600, 642.325 761.552 C 626.029 769.390, 619.399 780.136, 624.625 790.242 C 626.876 794.594, 635.332 803.365, 642.500 808.783 C 655.459 818.576, 659.088 823.621, 659.153 831.927 C 659.224 841.128, 651.613 850.301, 638.022 857.397 C 630.647 861.248, 599.985 871.411, 572.755 879.031 C 562.715 881.841, 547.504 886.096, 538.954 888.487 C 500.369 899.275, 468.041 916.422, 460.511 930.092 C 453.838 942.208, 457.520 954.836, 470.842 965.522 C 483.883 975.983, 502.500 982.495, 502.500 976.596 C 502.500 975.162, 500.528 973.869, 494.500 971.351 C 484.806 967.301, 473.810 959.206, 469.168 952.702 C 462.052 942.730, 464.140 934.037, 475.741 925.338 C 495.466 910.547, 516.097 902.478, 572.500 887.494 C 603.667 879.214, 636.944 867.609, 646.953 861.529 C 663.095 851.723, 670.758 834.882, 664.928 822.028 C 661.771 815.070, 658.787 811.751, 646.473 801.499 C 631.187 788.773, 628.947 784.589, 633.611 777.471 C 640.538 766.898, 687.489 752.560, 736.500 746.049 C 745.300 744.880, 755.425 743.500, 759 742.984 C 774.790 740.703, 824.238 738.038, 851.225 738.013 L 865.950 738 866.225 773.549 L 866.500 809.099 864.263 810.564 C 861.487 812.382, 858 819.042, 858 822.526 C 858 826.106, 859.579 828.886, 863.948 833 C 872.905 841.433, 876.356 874.471, 869.660 887.684 C 860.751 905.264, 838.152 906.822, 827.250 890.608 C 822.979 884.255, 823.041 884.108, 829.750 884.682 C 839.296 885.499, 842.405 880.400, 833.913 877.856 C 828.924 876.361, 827.635 874.854, 824.219 866.517 C 821.106 858.923, 819.023 856.859, 816.250 858.624 C 813.481 860.386, 813.816 878.318, 816.780 887.004 C 824.818 910.560, 850.716 919.460, 870.156 905.348 C 885.269 894.376, 889.336 866.534, 879.602 840.675 L 877.189 834.265 879.757 831.697 C 881.730 829.725, 882.433 827.826, 882.791 823.505 C 883.257 817.890, 883.250 817.872, 878.629 813.569 L 874 809.259 874 774.129 L 874 739 882.250 739 C 891.471 739, 924.400 741.394, 939.048 743.130 C 951.303 744.581, 958.898 741.480, 953.685 737.154 C 951.522 735.359, 922.806 732.514, 885.750 730.423 L 874 729.760 874 711.808 L 874 693.856 879.750 694.497 C 899.876 696.739, 928.167 700.428, 937.846 702.072 C 944.087 703.132, 949.599 703.748, 950.096 703.440 C 951.311 702.690, 951.252 697.274, 950.020 696.513 C 948.618 695.646, 879.286 686, 874.457 686 C 874.206 686, 874 564.874, 874 416.830 L 874 147.660 880.480 140.948 C 887.530 133.646, 889 130.896, 889 125.012 C 889 117.353, 880.631 111.445, 873.836 114.306 C 870.123 115.868, 824.652 161.574, 800.473 188.047 C 762.024 230.144, 720.045 282.146, 685.519 330.451 C 668.920 353.672, 611.940 435.993, 611.287 437.694 C 610.560 439.589, 609.613 439.346, 604.643 435.992 C 587.533 424.444, 568.010 435.793, 565.490 458.752 C 565.112 462.190, 564.452 465.221, 564.023 465.486 C 563.594 465.751, 560.392 462.488, 556.909 458.234 C 547.427 446.655, 536.939 436.029, 533 434.008 C 529.045 431.979, 525.456 428.425, 526.685 427.753 C 527.133 427.509, 529.750 426.739, 532.500 426.044 C 566.061 417.556, 588.992 403.664, 610.628 378.711 C 627.715 359.004, 631.184 351.575, 635.551 325.341 C 638.823 305.685, 638.092 293.806, 632.021 268 C 627.979 250.823, 624.927 235.148, 622.967 221.500 C 621.717 212.796, 616.277 190.790, 613.203 181.999 L 611.279 176.498 619.666 166.999 C 632.661 152.280, 638.093 139.344, 638.773 121.500 C 639.553 101.020, 634.455 85.820, 622.586 73.238 C 600.711 50.050, 572.481 44.345, 545.528 57.666 C 534.538 63.097, 518.856 76.711, 513.270 85.670 C 510.765 89.687, 510.213 90.056, 507.500 89.523 C 462.580 80.708, 440.199 79.362, 407.500 83.509 C 391.940 85.482, 372.106 90.354, 362.487 94.565 C 361.930 94.809, 360.056 91.969, 358.322 88.254 C 345.182 60.106, 315.936 41.776, 290.919 46.010 M 283.362 56.929 C 268.979 60.805, 259.314 67.080, 250.442 78.300 C 237.628 94.505, 233.420 106.287, 234.298 123.500 C 235.292 142.955, 241.935 157.021, 257.250 172.099 C 263.063 177.821, 267 182.496, 267 183.675 C 267 184.763, 264.351 191.694, 261.114 199.077 C 257.877 206.460, 254.080 216.241, 252.676 220.813 L 250.124 229.125 258.312 234.441 C 270.393 242.283, 285.487 249.712, 294 252.005 C 298.125 253.117, 304.115 254.735, 307.312 255.602 C 318.262 258.571, 316.998 264.625, 304.484 269.152 C 291.352 273.902, 269.575 272.703, 249.350 266.115 L 241.200 263.461 240.116 270.480 C 239.520 274.341, 238.746 280.902, 238.396 285.060 L 237.759 292.619 241.022 295.365 C 254.082 306.354, 284.889 312.452, 312.003 309.414 C 318.246 308.715, 320.484 310.169, 321.577 315.634 C 322.443 319.967, 318.403 324.272, 309.063 328.968 C 292.696 337.197, 276.818 339.842, 258.716 337.355 C 252.785 336.540, 246.813 336.015, 245.444 336.187 L 242.956 336.500 246.361 343.500 C 250.369 351.737, 257.827 362.498, 264.744 370.020 C 269.528 375.222, 269.836 375.383, 274.591 375.174 C 289.669 374.511, 311.045 369.707, 326.306 363.552 C 340.717 357.739, 343.821 359.456, 338.072 370.058 C 331.716 381.778, 312.795 395.698, 300.511 397.692 L 296.880 398.281 299.690 400.193 C 313.261 409.424, 347.254 421.866, 367.350 424.958 C 374.583 426.071, 384.550 427.653, 389.500 428.473 C 394.450 429.294, 400.588 429.973, 403.139 429.983 C 409.533 430.007, 412.921 432.684, 411.235 436.383 C 409.624 439.920, 404.396 439.873, 377.721 436.079 C 360.388 433.614, 355.034 432.418, 343.413 428.416 L 329.643 423.673 323.382 430.282 C 317.431 436.563, 303.625 460.958, 305.155 462.488 C 305.441 462.775, 310.136 460.750, 315.588 457.990 C 328.373 451.516, 337.571 449, 348.452 449 C 356.178 449, 357.035 449.196, 358.114 451.213 C 359.563 453.920, 357.769 455.627, 332 476.061 C 322.375 483.693, 311.377 492.802, 307.559 496.304 L 300.619 502.671 302.916 509.586 C 306.085 519.125, 311.899 530.580, 318.197 539.692 L 323.500 547.365 324.191 541.869 C 325.204 533.810, 326.953 529.487, 333.969 517.709 C 351.097 488.956, 369.710 474.757, 383.435 479.975 C 386.378 481.094, 386.821 484.078, 384.441 486.750 C 380.475 491.201, 364.422 513.156, 360.312 519.749 C 352.218 532.736, 344 556, 344 565.927 C 344 568.194, 380.114 589, 384.049 589 C 384.398 589, 384.689 583.713, 384.694 577.250 C 384.715 552.499, 396.129 524.738, 414.236 505.396 L 419.013 500.293 409.810 491.896 C 394.503 477.930, 390.327 473.016, 391.700 470.585 C 393.374 467.623, 401.297 471.907, 411.616 481.354 C 422.445 491.268, 428.886 495.691, 439.911 500.785 C 464.221 512.017, 490.731 516.737, 521.364 515.289 L 534.227 514.680 533.770 498.590 C 532.949 469.647, 521.275 431.858, 513.419 432.708 C 512.363 432.822, 505.367 433.834, 497.870 434.958 C 481.380 437.429, 472.008 437.572, 467.478 435.423 C 461.642 432.653, 462.620 428.908, 469.291 428.482 C 486.961 427.353, 517.831 421.301, 535.375 415.527 C 570.749 403.882, 585.950 394.627, 602.129 374.885 C 619.251 353.992, 626.791 340, 620.928 340 C 613.899 340, 592.348 318.747, 594.278 313.719 C 594.742 312.509, 595.745 312.496, 601.161 313.630 C 604.647 314.361, 612.405 314.968, 618.401 314.979 L 629.301 315 628.642 304.750 C 627.622 288.906, 627.890 289.452, 620.149 287.432 C 610.630 284.948, 602.431 280.456, 600.968 276.924 C 598.853 271.817, 600.245 269.768, 609.139 264.900 C 619.572 259.190, 619.667 259.027, 618.208 249.332 C 617.560 245.024, 616.298 236.100, 615.403 229.500 C 612.550 208.442, 604.851 184.007, 593.979 161.500 C 582.499 137.735, 562.667 118.792, 540.140 110.074 L 529.779 106.065 530.347 108.782 C 535.073 131.391, 531.922 155, 524.179 155 C 519.516 155, 518.009 151.730, 508.048 120 C 501.256 98.362, 500.715 97.532, 492.756 96.522 C 489.865 96.155, 486.712 95.632, 485.749 95.360 C 484.229 94.930, 484.132 95.217, 485.011 97.530 C 487.255 103.431, 491 127.523, 491 136.055 C 491 147.809, 486.782 161.576, 481.423 167.310 C 476.145 172.959, 474.978 172.139, 471.709 160.487 C 461.808 125.190, 451.543 101.880, 442.372 93.864 C 439.695 91.525, 427.675 90.717, 428.534 92.934 C 435.727 111.483, 437.633 135.008, 432.845 146.138 C 427.457 158.663, 421.336 156.828, 414.957 140.776 C 408.783 125.240, 399.496 107.899, 393.636 100.965 C 391.118 97.985, 390.246 97.598, 386.423 97.764 C 381.682 97.971, 372.746 100.707, 363.786 104.697 C 356.481 107.949, 355.969 107.683, 352.552 98.858 C 345.127 79.681, 334.458 67.352, 318 58.931 C 309.566 54.616, 295.056 53.777, 283.362 56.929 M 562 60.616 C 549.758 63.876, 532.042 75.841, 524.087 86.221 C 519.780 91.840, 520.308 92.641, 530.467 95.896 C 534.300 97.124, 541.433 99.987, 546.320 102.257 C 554.836 106.214, 555.248 106.305, 556.238 104.443 C 556.806 103.374, 559.860 99.945, 563.025 96.821 C 574.135 85.858, 588.541 85.278, 598.649 95.386 C 607.226 103.962, 609.066 122.340, 602.662 135.453 C 597.283 146.466, 597.286 146.010, 602.542 155.777 C 605.124 160.575, 607.416 164.696, 607.636 164.935 C 607.857 165.174, 609.851 163.599, 612.068 161.435 C 626.275 147.566, 633.184 124.023, 628.494 105.460 C 626.213 96.432, 618.638 81.859, 613.045 75.740 C 601.447 63.050, 578.449 56.236, 562 60.616 M 284.713 88.360 C 272.691 91.749, 262.968 106.120, 263.017 120.432 C 263.074 137.056, 270.270 149.763, 284.946 159.155 C 289.776 162.246, 292.686 162.695, 295.293 160.750 C 297.904 158.802, 296.390 155.755, 291.190 152.491 C 277.664 144.003, 272.545 135.638, 272.532 122 C 272.514 102.825, 284.175 93.200, 301.708 97.921 C 307.315 99.431, 316.573 110.363, 322.100 122 C 324.321 126.675, 326.493 131.175, 326.928 132 C 327.362 132.825, 329.019 133.500, 330.609 133.500 C 342.247 133.500, 320.693 95.784, 305.404 89.396 C 300.308 87.266, 290.361 86.768, 284.713 88.360 M 575.307 99.021 C 571.306 101.055, 563 109.010, 563 110.808 C 563 111.277, 565.138 113.171, 567.750 115.016 C 570.362 116.861, 576.696 122.450, 581.825 127.436 C 592.408 137.723, 592.088 137.727, 595.999 127.272 C 603.044 108.443, 590.490 91.302, 575.307 99.021 M 875.500 123.984 C 874.400 124.452, 863.776 134.659, 851.891 146.667 C 785.159 214.092, 733.829 276.265, 674.525 361.500 C 663.045 378, 648.067 399.504, 641.240 409.287 C 622.673 435.892, 618.795 443, 622.845 443 C 623.859 443, 627.239 443.841, 630.355 444.869 L 636.021 446.738 640.458 439.619 C 642.898 435.704, 645.610 430.786, 646.485 428.690 C 647.361 426.595, 653.320 417.145, 659.728 407.690 C 666.136 398.236, 676.760 382.400, 683.337 372.500 C 738.921 288.827, 802.493 208.256, 862.673 145.210 C 878.841 128.272, 881.749 124.264, 878.500 123.400 C 877.950 123.254, 876.600 123.517, 875.500 123.984 M 858.051 164.250 C 840.050 183.712, 799.968 230.625, 780 255.602 C 753.195 289.131, 717.816 338.441, 666.709 413.500 C 658.119 426.116, 644 449.160, 644 450.564 C 644 450.945, 645.556 452.979, 647.457 455.084 C 655.303 463.768, 659.549 477.125, 658.681 490.386 C 656.409 525.072, 632.431 551.221, 591.249 563.924 C 585.611 565.664, 580.564 567.630, 580.034 568.293 C 579.503 568.957, 577.704 571.134, 576.035 573.132 C 573.483 576.185, 573 577.619, 572.999 582.132 C 572.998 592.804, 565.918 603.439, 557.909 604.799 L 553.500 605.547 553.268 611.524 C 552.364 634.803, 550.238 643.806, 539.675 669.079 C 536.554 676.548, 534 683.208, 534 683.879 C 534 685.142, 535.727 685.066, 555 682.955 C 575.056 680.758, 611.196 678.961, 647.765 678.341 L 687.030 677.675 686.383 674.087 C 684.759 665.073, 675.350 638.745, 670.285 629.044 C 665.468 619.817, 664.854 617.991, 665.284 614.176 C 665.918 608.547, 666.621 607.987, 671.834 608.957 C 682.701 610.977, 699.922 626.470, 707.507 641.050 C 713.006 651.621, 713.623 651.395, 713.882 638.708 C 714.052 630.383, 716.434 619.886, 722.192 602.094 C 731.004 574.864, 740.201 560.017, 753.858 550.970 C 759.181 547.445, 760.871 547.299, 763.882 550.104 C 766.703 552.733, 766.347 555.426, 760.853 573 C 752.686 599.125, 748.452 620.019, 747.246 640.158 C 746.829 647.120, 746.771 652.641, 747.118 652.427 C 747.464 652.213, 748.915 649.574, 750.340 646.562 C 757.782 630.846, 770.890 613.114, 783.138 602.198 C 789.685 596.361, 790.513 595.918, 794.336 596.198 C 800.694 596.663, 801.018 598.926, 797.050 615.149 C 792.991 631.740, 792.091 634.449, 785.397 650.190 C 782.428 657.169, 780 663.174, 780 663.533 C 780 663.892, 782.198 662.209, 784.885 659.793 C 795.090 650.618, 811.910 644.310, 815.800 648.200 C 817.801 650.201, 817.240 652.333, 811 666.419 C 807.700 673.868, 805 680.354, 805 680.832 C 805 681.309, 809.837 681.978, 815.750 682.318 C 830.950 683.190, 853.472 684.838, 860.250 685.573 L 866 686.196 866 422.098 C 866 233.070, 865.692 158, 864.916 158 C 864.320 158, 861.231 160.813, 858.051 164.250 M 549.203 184.131 C 545.380 185.233, 544.392 186.996, 545.958 189.922 C 546.965 191.803, 547.974 192, 556.601 192 C 567.616 192, 568.695 192.435, 575.729 199.721 C 581.994 206.209, 586.266 206.885, 586.797 201.472 C 587.131 198.067, 578.311 187.246, 572.936 184.467 C 569.694 182.791, 554.593 182.577, 549.203 184.131 M 388.994 186.870 C 377.890 190.533, 367.757 202.941, 370.969 208.941 C 372.403 211.621, 374.585 211.552, 377.055 208.750 C 378.146 207.512, 380.866 204.385, 383.099 201.801 C 388.114 195.999, 392.112 194.546, 400.906 195.329 C 405.724 195.758, 407.996 195.543, 409.341 194.532 C 411.575 192.851, 410.817 189.508, 407.841 187.915 C 405.228 186.517, 392.246 185.797, 388.994 186.870 M 554.500 247.156 C 538.415 253.047, 538.513 284.203, 554.650 294.892 C 560.768 298.944, 563.449 298.864, 567.557 294.508 C 576.221 285.322, 578.536 263.223, 571.852 253.500 C 567.511 247.184, 560.961 244.789, 554.500 247.156 M 392.761 253.062 C 380.412 259.582, 379.524 287.225, 391.236 300.530 C 399.642 310.080, 411.194 304.267, 417.970 287.077 C 421.619 277.817, 420.278 262.340, 415.345 256.793 C 410.437 251.273, 399.555 249.476, 392.761 253.062 M 474.317 294.429 C 465.189 296.522, 459.952 299.177, 455.750 303.843 C 451.465 308.600, 451.462 308.614, 453.569 313.882 C 455.797 319.449, 475.157 334.509, 485.701 338.876 C 490.611 340.910, 491.424 348.502, 487.973 360.091 C 484.893 370.434, 477.773 374.457, 462.500 374.485 C 448.942 374.510, 441.267 369.966, 437.188 359.500 C 435.082 354.094, 433.185 352.958, 430.595 355.548 C 425.751 360.392, 434.284 374.526, 445.520 380.270 C 456.545 385.906, 477.211 384.539, 486.341 377.570 L 490.601 374.318 494.793 378.038 C 501.893 384.339, 510.454 384.989, 521.572 380.071 C 528.354 377.071, 537.786 369.341, 540.029 364.943 L 542.027 361.027 540.013 359.013 C 537.016 356.016, 535.848 356.460, 530.531 362.618 C 520.907 373.766, 506.309 377.509, 499.400 370.600 C 495.804 367.004, 495.326 364.888, 497.079 360.315 C 497.672 358.767, 498.459 353.944, 498.829 349.598 L 499.500 341.696 503.285 340.388 C 514.477 336.521, 529.664 323.275, 533.018 314.454 C 534.860 309.607, 534.232 302.565, 531.750 300.251 C 525.896 294.791, 489.032 291.055, 474.317 294.429 M 475.500 304.610 C 471.728 305.609, 464.500 308.331, 463.641 309.075 C 461.672 310.779, 475.389 322.467, 485.155 327.408 L 494.811 332.293 499.155 330.560 C 516.144 323.785, 528.312 309.741, 520.341 306.110 C 517.600 304.860, 479.378 303.582, 475.500 304.610 M 431.209 315.835 C 426.150 317.731, 425.511 321.269, 430.130 321.805 C 433.993 322.253, 439.095 317.701, 437 315.676 C 435.689 314.409, 434.959 314.429, 431.209 315.835 M 548.064 322.939 C 545.304 324.686, 548.836 326.717, 558.275 328.813 C 573.697 332.237, 576.702 332.048, 573.631 327.848 C 571.466 324.888, 551.150 320.987, 548.064 322.939 M 408.500 329.462 C 405.750 330.207, 400.575 331.346, 397 331.995 C 388.560 333.525, 385 334.907, 385 336.653 C 385 339.222, 387.762 339.196, 400.693 336.504 C 417.849 332.934, 417.167 333.181, 416.808 330.674 C 416.423 327.984, 414.822 327.751, 408.500 329.462 M 541.380 343.452 C 540.457 345.858, 541.827 346.982, 551.291 351.589 C 559.761 355.711, 566 357.196, 566 355.089 C 566 353.302, 559.416 348.684, 552.142 345.369 C 543.938 341.630, 542.198 341.320, 541.380 343.452 M 412.985 349.616 C 407.861 352.705, 400.771 356.532, 397.229 358.121 C 392.359 360.306, 390.938 361.395, 391.395 362.587 C 391.728 363.454, 392 364.352, 392 364.582 C 392 366.066, 396.925 364.150, 408.278 358.250 C 420.918 351.682, 427.599 346.778, 426.448 344.916 C 425.280 343.027, 422.037 344.159, 412.985 349.616 M 117.389 362.426 C 101.687 366.003, 93.466 375.075, 93.620 388.657 C 93.743 399.517, 96.544 403.581, 109.284 411.385 C 110.815 412.323, 118.139 415.729, 125.560 418.954 L 139.052 424.818 141.140 420.659 C 148.223 406.550, 167.979 391.412, 178.779 391.818 C 182.877 391.972, 182.622 391.498, 173.970 382.894 C 158.688 367.694, 133.793 358.689, 117.389 362.426 M 190.621 415.866 C 189.693 416.892, 185.235 420, 180.716 422.773 C 172.560 427.777, 162.337 435.503, 156.412 441.141 L 153.323 444.079 155.587 451.894 C 156.832 456.193, 158.164 462.893, 158.547 466.784 L 159.244 473.858 161.872 472.870 C 163.317 472.327, 166.750 470.833, 169.500 469.549 C 180.145 464.579, 193.591 464.152, 202.030 468.516 L 204.740 469.917 205.364 465.364 C 206.705 455.574, 202.386 430.467, 197.430 419.250 C 194.962 413.664, 193.342 412.859, 190.621 415.866 M 584.267 442.578 C 582.489 443.356, 579.921 445.681, 578.561 447.746 C 573.602 455.273, 570.515 474.462, 573.211 481 L 574.654 484.500 575.952 482 C 579.021 476.088, 583.451 473.072, 591.194 471.622 C 595.400 470.834, 596.582 468.661, 595.027 464.570 C 593.661 460.977, 595.309 454.575, 599.058 448.912 L 601.950 444.544 597.725 442.828 C 592.632 440.759, 588.596 440.684, 584.267 442.578 M 536.526 453.057 C 540.467 464.611, 544 492.327, 544 511.680 L 544 517.959 547.960 519.980 C 550.138 521.091, 552.136 522, 552.400 522 C 552.664 522, 556.298 515.987, 560.477 508.637 L 568.074 495.274 565.910 489.488 C 562.720 480.963, 545.494 456.487, 537.102 448.557 L 533.988 445.614 536.526 453.057 M 610.419 452.033 C 601.565 454.725, 602.272 459.501, 613.040 469.721 C 621.728 477.966, 622.224 479.136, 618.500 482.587 L 616.001 484.904 607.850 482.843 C 595.400 479.695, 588.662 480.478, 584.350 485.576 C 580.572 490.041, 580.315 491.755, 582.679 496.737 C 584.568 500.717, 592.547 506.328, 600.750 509.445 C 604.051 510.699, 606.056 512.106, 606.396 513.408 C 607.062 515.953, 604.167 519.277, 601.819 518.663 C 600.495 518.317, 599.154 519.821, 596.404 524.739 C 594.393 528.334, 590.330 535.127, 587.374 539.835 C 582.973 546.844, 582 549.196, 582 552.822 C 582 558.226, 582.527 558.199, 598.428 551.982 C 621.071 543.129, 637.971 526.996, 646.831 505.779 C 652.136 493.073, 649.855 470.864, 642.342 462.087 C 636.392 455.135, 618.621 449.538, 610.419 452.033 M 172 495.025 C 162.995 496.081, 157.311 497.747, 156.627 499.530 C 155.317 502.943, 150.020 526.914, 149.397 532.250 C 148.601 539.056, 148.498 539.020, 158.379 535.369 C 167.363 532.051, 183.813 531.015, 191.173 533.304 L 195.846 534.758 196.506 529.629 C 196.869 526.808, 198.029 518.995, 199.083 512.267 C 200.137 505.538, 201 499.163, 201 498.099 C 201 494.499, 188.125 493.134, 172 495.025 M 287.481 506.222 C 286.514 508.575, 282.424 520.352, 278.391 532.394 L 271.060 554.288 274.046 558.059 C 281.183 567.070, 294.259 576.975, 313 587.569 C 327.406 595.711, 329.658 599.080, 324.195 604.313 C 320.689 607.672, 318.330 607.704, 303.610 604.586 C 292.365 602.204, 280.715 597.575, 267.826 590.368 L 262.153 587.195 261.118 591.847 C 259.776 597.886, 258.282 606.339, 257.557 612 L 256.981 616.500 262.741 620.198 C 274.908 628.011, 300.014 637.899, 315.500 640.977 C 321.784 642.227, 324 643.937, 324 647.536 C 324 659.216, 276.521 659.465, 257.382 647.886 C 255.667 646.849, 253.980 646, 253.632 646 C 252.560 646, 252.950 657.845, 254.488 672 C 256.905 694.249, 257.541 696.987, 261.021 700.166 C 265.019 703.818, 285.332 710.234, 301.500 712.952 C 308.100 714.061, 316.425 715.458, 319.999 716.055 C 331.363 717.955, 332.995 721.905, 324.693 727.416 C 313.929 734.560, 294.475 736.911, 279.410 732.887 C 268.049 729.853, 267.446 729.885, 267.763 733.500 C 268.098 737.308, 272.899 757.244, 273.813 758.621 C 276.344 762.433, 299.734 769.204, 318.559 771.574 C 334.479 773.579, 336.390 774.356, 336.832 779.006 C 337.014 780.926, 336.863 782.197, 336.496 781.829 C 336.128 781.462, 334.619 782.514, 333.141 784.168 C 331.386 786.132, 328.555 787.697, 324.977 788.681 C 318.107 790.569, 296.838 791.463, 287.250 790.266 L 280 789.362 279.940 804.431 C 279.908 812.719, 279.480 821.750, 278.990 824.500 C 278.500 827.250, 277.783 835.454, 277.396 842.731 L 276.692 855.962 280.358 861.483 C 288.941 874.411, 311.224 883.662, 340.731 886.548 C 356.927 888.131, 363.934 874.426, 354.421 859.771 C 351.414 855.140, 351.336 851.896, 354.189 850.114 C 356.857 848.448, 358.527 850.172, 363.281 859.497 C 366.561 865.933, 367.408 874.417, 365.715 883.897 L 364.929 888.294 371.715 887.650 C 384.935 886.395, 391.043 883.312, 394.814 875.992 C 398.778 868.299, 397.001 862.061, 388.228 852.868 C 383.486 847.899, 382.934 844.727, 386.719 844.186 C 394.153 843.124, 405 859.028, 405 870.989 C 405 875.855, 405.049 875.935, 407.374 874.876 C 415.493 871.176, 417.639 854.115, 411.507 842.015 C 407.554 834.213, 393.393 823.141, 388.878 824.322 C 382.888 825.888, 382.839 820.536, 388.658 800.538 C 395.696 776.353, 399.784 741.805, 397.926 722.200 C 396.865 711.001, 397.082 709, 399.358 709 C 403.521 709, 405.017 712.218, 406.520 724.410 C 407.327 730.961, 408.107 736.441, 408.254 736.587 C 408.733 737.066, 425.259 734, 436 731.439 C 471.452 722.988, 489.991 714.047, 509.101 696.185 C 525.719 680.653, 540.249 651.466, 542.672 628.750 C 543.374 622.164, 543.287 622.113, 535.799 624.750 L 530.829 626.500 524.065 640.500 C 513.177 663.036, 493.487 691, 488.507 691 C 481.197 691, 460 677.397, 460 672.706 C 460 670.132, 472.342 646.493, 483.446 627.800 C 489.171 618.160, 491.596 613.196, 490.911 612.512 C 490.278 611.880, 479.123 611.470, 461.199 611.421 C 428.992 611.332, 421.850 610.513, 401 604.516 C 362.764 593.519, 334.817 576.192, 315.490 551.500 C 307.083 540.760, 302.809 533.245, 295.440 516.247 L 289.240 501.943 287.481 506.222 M 570.564 507.848 C 569.048 510.957, 566.276 516.034, 564.404 519.131 C 562.532 522.228, 561 525.310, 561 525.981 C 561 526.652, 564.361 530.486, 568.470 534.502 L 575.939 541.804 583.470 529.789 C 587.611 523.181, 591 517.458, 591 517.071 C 591 516.685, 589.087 515.296, 586.750 513.985 C 584.413 512.675, 580.435 509.486, 577.910 506.899 L 573.321 502.196 570.564 507.848 M 436.218 513.317 C 427.583 522.721, 413.858 551.660, 409.099 570.500 C 408.351 573.459, 405 593.952, 405 595.564 C 405 595.681, 408.938 596.738, 413.750 597.914 C 430.227 601.938, 441.780 602.921, 467.286 602.467 L 491.071 602.044 506.778 610.111 C 524.035 618.975, 525.643 619.264, 533.995 615.003 C 538.603 612.652, 544 606.367, 544 603.353 C 544 602.125, 541.843 598.801, 539.093 595.793 C 533.341 589.499, 531.636 584, 535.437 584 C 537.870 584, 544.007 588.106, 547.897 592.335 C 551.109 595.828, 556.532 597.633, 558.617 595.903 C 561.100 593.842, 565 585.328, 565 581.968 C 565 577.257, 563.682 575.582, 553.706 567.617 C 542.692 558.824, 540.715 556.727, 541.171 554.324 C 542.075 549.561, 547.140 551.742, 561.944 563.267 C 570.303 569.774, 573.396 568.097, 573.240 557.144 C 573.134 549.755, 559.841 536.732, 544.409 528.900 L 536.318 524.794 512.409 524.512 C 499.259 524.358, 487.326 523.914, 485.892 523.526 C 483.450 522.866, 483.242 523.084, 482.621 526.966 C 481.969 531.048, 472.758 556.870, 464.929 576.567 C 461.296 585.706, 456.539 593, 454.211 593 C 450.473 593, 447.433 581.651, 448.319 571 C 449.431 557.639, 455.386 535.966, 460.916 525.153 C 462.139 522.762, 462.988 520.655, 462.803 520.470 C 462.618 520.284, 458.199 518.574, 452.983 516.669 C 447.767 514.763, 442.313 512.739, 440.861 512.169 C 438.643 511.299, 437.903 511.482, 436.218 513.317 M 167.500 558.468 C 158.723 560.384, 147 565.854, 147 568.035 C 147 571.161, 150.980 593.328, 152.514 598.750 C 153.331 601.638, 154.721 606.525, 155.603 609.610 L 157.206 615.220 160.017 612.360 C 172.421 599.738, 176.385 596.899, 189.350 591.350 C 193.805 589.443, 197.555 587.778, 197.683 587.650 C 197.811 587.522, 197.262 583.386, 196.462 578.459 C 195.662 573.531, 195.006 566.961, 195.004 563.857 C 195.001 559.636, 194.601 558.061, 193.418 557.607 C 190.654 556.546, 173.729 557.109, 167.500 558.468 M 205.115 611.588 C 195.339 615.715, 174.875 634.018, 173.187 640.146 C 172.087 644.141, 172.908 645.726, 181.446 656.105 C 186.599 662.369, 198.978 673.312, 203.874 675.933 C 205.458 676.780, 205.580 676.339, 205.202 671.120 C 204.594 662.716, 209.121 651.927, 221.196 633 L 225.981 625.500 223.741 623.657 C 222.508 622.643, 219.463 619.943, 216.973 617.657 C 208.277 609.671, 208.901 609.990, 205.115 611.588 M 492.580 628.938 C 488.473 635.421, 481.444 647.633, 476.960 656.075 L 468.807 671.426 471.154 673.362 C 472.444 674.427, 476.417 676.633, 479.981 678.264 L 486.462 681.230 489.871 677.365 C 495.658 670.804, 507.431 652.105, 513.898 639.204 C 519.664 627.702, 520.413 625, 517.838 625 C 517.264 625, 513.026 623.234, 508.421 621.076 L 500.047 617.152 492.580 628.938 M 236.095 634.186 C 235.597 635.459, 233.826 639.879, 232.158 644.009 C 226.673 657.593, 224.662 666.568, 224.578 677.833 L 224.500 688.167 231.500 690.454 C 244.117 694.576, 244.632 694.591, 245.379 690.855 C 245.736 689.071, 245.521 679.486, 244.902 669.555 C 244.282 659.625, 244.031 648.084, 244.344 643.910 L 244.913 636.319 240.956 634.095 L 236.999 631.872 236.095 634.186 M 519 707.048 C 513.764 708.929, 510.258 710.638, 482.679 724.754 C 472.863 729.778, 450.395 738.015, 434.325 742.482 L 432.151 743.087 434.077 747.441 C 439.691 760.132, 441.073 786.010, 437.126 804.489 C 433.350 822.160, 435.514 830.431, 446.030 838.523 C 457.665 847.476, 469.898 850.929, 492.731 851.706 C 510.800 852.321, 514.091 851.658, 516.547 846.909 C 519.936 840.355, 517.060 830.554, 510.109 824.968 C 502.713 819.024, 505.839 813.755, 514.277 817.945 C 524.095 822.819, 529.665 838.406, 525.464 849.250 C 524.587 851.515, 528.560 851.617, 535.649 849.512 C 540.184 848.165, 540.916 847.521, 543.331 842.747 C 547.946 833.625, 546.227 824.998, 537.895 815.477 C 532.644 809.477, 532.521 807, 537.472 807 C 545.341 807, 553 818.936, 553 831.196 C 553 840.147, 553.603 840.597, 558.732 835.468 C 562.219 831.981, 562.258 831.850, 561.747 825.218 C 561.201 818.126, 558.432 810.566, 554.485 805.392 C 551.071 800.915, 536.796 793.666, 533.026 794.494 C 530.856 794.971, 529.613 794.613, 528.065 793.065 C 525.528 790.528, 525.519 789.748, 527.925 780.167 C 528.983 775.950, 530.161 769.462, 530.541 765.750 C 531.362 757.744, 531.987 757.971, 518.822 761.497 C 506.432 764.817, 492.488 765.035, 489.189 761.961 C 487.562 760.446, 487 758.764, 487 755.415 L 487 750.908 495.750 746.838 C 500.563 744.600, 510.488 739.879, 517.806 736.347 L 531.111 729.926 530.590 725.713 C 530.303 723.396, 529.784 718.384, 529.436 714.576 C 528.442 703.697, 528.404 703.670, 519 707.048 M 788 770.082 C 735.576 772.228, 690 783.834, 690 795.039 C 690 800.527, 699.438 807.114, 716.505 813.538 C 750.175 826.212, 759.601 842.816, 742.365 859.095 C 729.556 871.193, 702.784 881.916, 651.500 895.487 C 580.252 914.341, 561.833 923.138, 561.833 938.314 C 561.833 947.170, 568.008 953.745, 581.233 958.971 C 596.493 965.001, 626.280 970, 646.952 970 C 655.779 970, 656 969.943, 656 967.654 C 656 965.335, 655.838 965.300, 642.250 964.702 C 593.861 962.570, 561.398 949.850, 567.473 935.402 C 570.475 928.264, 579.014 923.337, 601.794 915.601 C 616.679 910.545, 625.775 907.930, 663 898.002 C 720.242 882.736, 748.650 868.214, 754.425 851.266 C 760.164 834.422, 748.757 820.595, 719.573 809.023 C 704.670 803.114, 695 797.533, 695 794.840 C 695 793.597, 705.722 788.469, 713 786.231 C 736.300 779.066, 785.305 772.991, 807.327 774.537 L 817.155 775.227 816.827 772.511 C 816.421 769.144, 814.627 768.992, 788 770.082 M 867.040 819.452 C 865.337 821.504, 866.697 824.886, 869.510 825.592 C 872.632 826.375, 874 825.426, 874 822.476 C 874 818.756, 869.309 816.718, 867.040 819.452 M 165.972 836.533 C 162.578 840.623, 163.657 850.347, 170.679 878.956 C 173.857 891.904, 177.169 909.128, 176.595 909.728 C 176.475 909.853, 174.739 907.828, 172.735 905.228 C 165.514 895.853, 152.306 883.189, 146.885 880.442 C 139.458 876.678, 129.685 875.851, 128.080 878.851 C 126.406 881.978, 127.698 885.484, 133.824 894.441 C 143.533 908.637, 151.774 927.713, 154.077 941.324 C 155.289 948.487, 157.648 951.116, 161.529 949.627 C 166.980 947.536, 154.900 910.523, 143.091 893.134 C 138.973 887.070, 138.964 887.036, 141.722 888.084 C 149.377 890.992, 163.225 905.183, 173.357 920.500 C 175.903 924.350, 178.686 928.513, 179.540 929.750 C 180.587 931.266, 182.105 932, 184.196 932 L 187.299 932 186.674 923.185 C 185.985 913.486, 182.717 896.195, 177.406 874.157 C 175.505 866.268, 173.669 857.043, 173.326 853.657 L 172.703 847.500 174.880 849.431 C 186.505 859.740, 201.873 896.379, 205.527 922.497 C 207.086 933.638, 207.805 935.279, 211.629 936.422 C 213.443 936.964, 214.451 935.944, 218.465 929.504 C 221.536 924.577, 225.315 920.208, 229.336 916.936 C 235.611 911.830, 247.565 905.231, 248.622 906.289 C 248.943 906.609, 247.337 910.926, 245.055 915.881 C 240.633 925.479, 234 944.236, 234 947.140 C 234 948.101, 235 949.587, 236.222 950.443 C 239.473 952.720, 241.101 950.515, 244.974 938.582 C 246.745 933.127, 250.412 923.830, 253.124 917.923 C 262.335 897.853, 259.094 893.082, 240.991 900.064 C 232.276 903.424, 223.597 909.326, 217.672 915.918 C 215.567 918.261, 213.736 920.025, 213.603 919.839 C 213.469 919.653, 212.546 915, 211.551 909.500 C 207.327 886.150, 194.600 857.927, 182.339 844.719 C 173.991 835.728, 168.797 833.130, 165.972 836.533 M 920.627 888.682 C 921.009 890.143, 922.658 890.942, 927.248 891.890 C 963.456 899.369, 955.849 925.682, 913.500 939.442 C 860.105 956.792, 764.562 945.929, 747.250 920.540 C 742.374 913.389, 743.595 904.780, 750.136 900.193 C 752.597 898.468, 752.596 895, 750.135 895 C 745.157 895, 739 904.317, 739 911.848 C 739 925.902, 753.193 936.844, 781.141 944.336 C 825.461 956.218, 877.410 956.233, 915.273 944.376 C 950.809 933.248, 965.813 911.449, 948.454 896.169 C 940.639 889.289, 919.283 883.544, 920.627 888.682 M 901.747 911.535 C 892.608 921.737, 874.870 927.225, 850.500 927.391 C 823.842 927.572, 805.143 922.109, 794.539 911.041 C 790.892 907.234, 788.078 906.955, 788.749 910.466 C 790.038 917.212, 804.575 926.180, 820.791 930.235 C 833.643 933.448, 863.478 933.416, 876.460 930.175 C 888.302 927.218, 898.419 922.234, 904.253 916.482 C 909.340 911.467, 910.025 909.575, 907.250 908.208 C 905.892 907.539, 904.660 908.284, 901.747 911.535" stroke="none" fill="#1a1a1a" fill-rule="evenodd"/>
</svg>