<svg xmlns="http://www.w3.org/2000/svg" width="1024" height="1024" viewBox="0 0 1024 1024" version="1.1">
	<path d="M 774.862 22.421 C 774.663 22.593, 764.150 23.034, 751.500 23.402 C 698.324 24.949, 629.157 29.586, 607.017 33.088 C 595.235 34.951, 588.032 39.395, 583.658 47.500 C 581.518 51.467, 581.496 52.099, 581 124 L 580.500 196.500 576.794 202.367 C 562.385 225.183, 557.580 259.301, 564.782 287.662 L 566.572 294.710 561.036 297.603 C 550.421 303.151, 537.280 317.713, 530 331.995 C 528.740 334.468, 524.599 343.681, 520.797 352.470 C 516.995 361.258, 513.798 368.534, 513.692 368.638 C 513.587 368.742, 513.492 361.779, 513.482 353.164 C 513.455 329.393, 508.381 314.104, 493.847 294 C 490.468 289.325, 482.981 278.075, 477.211 269 C 466.037 251.429, 452.210 232.399, 447.102 227.563 C 443.287 223.950, 443.287 223.897, 447.102 218.352 C 467.875 188.160, 452.940 145.211, 419.201 138.115 C 392.870 132.576, 366.743 150.221, 361.783 176.891 L 360.643 183.019 354.572 182.414 C 351.232 182.081, 343.172 182.311, 336.659 182.927 C 298.077 186.571, 257.938 202.098, 230.788 223.881 L 222.204 230.768 214.821 223.527 C 179.188 188.580, 124.099 212.743, 124.015 263.356 C 123.962 295.237, 149.626 321.850, 180.552 321.983 L 184.604 322 183.846 328.750 C 179.589 366.693, 182.785 402.858, 192.347 424.922 C 205.098 454.346, 235.396 476.510, 277.415 487.149 L 285.946 489.309 275.223 496.576 C 223.807 531.419, 202.881 569.761, 215.096 606.743 C 221.217 625.274, 240.123 642.791, 265.159 653.127 C 269.507 654.922, 272.885 656.865, 272.667 657.445 C 272.448 658.025, 270.112 667.416, 267.475 678.314 L 262.680 698.128 258.090 700.453 C 236.485 711.393, 203.989 708.438, 184.515 693.763 C 163.812 678.163, 157.309 654.678, 164.228 620.500 C 174.015 572.152, 171.316 539.734, 155.482 515.429 C 149.015 505.503, 135.710 493.073, 126.376 488.238 C 95.446 472.216, 60 483.569, 60 509.497 C 60 524.694, 69.074 534.230, 88.022 538.946 C 116.357 545.998, 121.828 560.920, 113.158 607.500 C 108.244 633.905, 107.894 636.740, 107.877 650.387 C 107.823 691.250, 129.794 726.801, 166.500 745.246 C 191.879 757.999, 228.418 760.823, 248.585 751.590 L 254 749.111 254 751.879 C 254 762.300, 247.796 786.576, 242.033 798.706 C 235.919 811.575, 230.779 818.353, 214.513 835 C 198.202 851.693, 194.273 857.572, 191.938 868.781 C 185.747 898.496, 212.781 945.031, 240.312 952.052 C 242.066 952.499, 246.558 954.020, 250.295 955.432 C 258.743 958.624, 268.441 958.870, 276.782 956.103 C 279.927 955.060, 284.525 953.885, 287 953.492 C 312.425 949.456, 322.844 920.608, 307.680 896.231 C 306.404 894.179, 305.020 891.926, 304.605 891.224 C 304.093 890.360, 304.868 889.593, 307.008 888.847 C 342.450 876.492, 376.852 842.952, 390.512 807.434 L 393.230 800.368 400.133 799.184 C 410.265 797.446, 409.643 797.090, 412.477 806.250 C 420.219 831.278, 421.866 861.709, 417.222 893.905 C 413.300 921.092, 414.266 927.367, 423.727 936.172 C 436.927 948.456, 473.503 958.803, 498.500 957.324 C 502.900 957.064, 507.400 956.976, 508.500 957.129 C 509.600 957.282, 514.115 957.403, 518.534 957.399 C 527.014 957.390, 526.518 957.563, 544.500 948.383 C 556.514 942.250, 560.500 935.553, 560.500 921.500 C 560.500 912.381, 560.236 910.974, 557.500 905.534 C 552.005 894.607, 540.549 885.077, 527.394 880.489 L 522.287 878.708 524.595 869.604 C 536.737 821.695, 535.341 778.297, 519.886 723.256 L 516.884 712.565 518.935 704.032 C 529.501 660.080, 521.057 591.344, 498.529 537.927 L 495.294 530.258 498.169 528.559 C 522.767 514.029, 554.182 476.957, 571.097 442.500 C 580.924 422.483, 590.966 392.329, 590.992 382.761 C 590.998 380.681, 592.654 378.448, 597.880 373.475 C 604.593 367.086, 609.446 359.613, 611.925 351.848 L 613.090 348.196 618.054 351.537 C 620.785 353.374, 624.477 355.412, 626.259 356.065 C 631.421 357.957, 639.302 376.090, 644.963 399.098 C 650.453 421.413, 653.970 450.414, 653.990 473.527 C 654.007 494.159, 656.456 494.799, 672.968 478.490 L 684.621 466.980 690.751 474.740 C 700.387 486.939, 706.343 492.382, 709.258 491.650 C 710.592 491.315, 716.970 485.598, 723.430 478.945 C 734.762 467.276, 735.243 466.910, 737.088 468.580 C 738.960 470.274, 739 475.007, 739 693.755 L 739 917.200 742.284 920.484 C 749.869 928.069, 781.123 928.604, 788.452 921.275 L 791 918.727 791 693.695 L 791 468.662 798.250 475.646 C 807.541 484.596, 814.166 489.078, 819.075 489.737 C 825.532 490.603, 825.623 490.325, 826.289 467.756 C 827.571 424.360, 831.781 400.676, 845.670 358.750 L 852.212 339 890.557 339 C 934.271 339, 937.603 338.626, 943.140 333.092 C 949.851 326.386, 949.482 334.300, 949.591 195 C 949.696 60.691, 949.379 44.010, 946.601 37.500 C 942.363 27.570, 936.382 24.494, 918.454 23.026 C 907.158 22.101, 775.876 21.548, 774.862 22.421 M 783.500 30.666 C 699.042 33.447, 614.239 38.775, 601.737 42.087 C 596.747 43.409, 591.418 48.222, 589.875 52.800 C 589.072 55.180, 588.637 62.388, 588.656 73 C 588.672 82.075, 588.756 110.831, 588.842 136.902 L 589 184.304 594.750 178.828 C 610.994 163.356, 632.472 152.485, 654.135 148.770 L 661 147.593 661.016 130.546 C 661.035 110.984, 662.127 107.456, 669.428 103.360 C 675.312 100.060, 675.516 100.052, 766 99.883 C 858.709 99.708, 855.400 99.505, 859.720 105.637 C 862.914 110.169, 862.865 109.104, 863.190 181 C 863.545 259.346, 863.969 255.246, 855.038 259.750 C 850.643 261.966, 850.002 262, 812.381 262 L 774.185 262 773.793 267.750 C 773.577 270.913, 773.423 273.570, 773.450 273.656 C 773.478 273.742, 779.575 274.104, 787 274.461 C 837.672 276.896, 862.165 282.416, 869.544 293.063 C 876.303 302.816, 872.748 315.513, 861.573 321.530 C 858.504 323.184, 856 327.055, 856 330.149 C 856 331.402, 928.705 331.210, 933.259 329.945 C 937.601 328.739, 939.938 325.690, 941.105 319.709 C 941.984 315.203, 942.322 91.587, 941.484 69 C 940.228 35.156, 938.890 32.705, 920.707 30.945 C 912.669 30.167, 805.283 29.949, 783.500 30.666 M 711.500 108 C 664.546 108.652, 668.498 106.194, 668.850 134.533 L 669 146.566 679.250 147.787 C 719.640 152.595, 751.554 177.208, 766.582 215.139 C 770.073 223.950, 773.994 240.497, 774.014 246.500 C 774.023 249.250, 774.374 252.040, 774.793 252.699 C 775.357 253.587, 785.043 253.977, 812.028 254.199 C 853.003 254.537, 853.599 254.452, 855.317 248 C 855.877 245.898, 856.016 218.196, 855.667 178.639 C 855.015 104.784, 855.453 108.759, 847.825 107.470 C 843.666 106.768, 783.359 107.002, 711.500 108 M 398.033 146.536 C 383.656 150.570, 371.390 164.582, 369.376 179.273 L 368.728 184 371.735 184 C 374.635 184, 393.720 189.091, 395.922 190.452 C 396.604 190.873, 397 189.983, 397 188.027 C 397 179.682, 403.209 172.896, 411.472 172.211 C 416.819 171.767, 417.112 171.877, 420.994 175.759 C 423.973 178.737, 425 180.572, 425 182.914 C 425 187.934, 422.335 188.031, 418.287 183.157 C 413.056 176.859, 407.580 177.594, 404.620 184.991 C 401.888 191.819, 402.345 193.217, 408.219 196.006 C 415.626 199.522, 423.606 204.840, 431.410 211.461 C 439.174 218.047, 438.858 218.146, 444.038 207.496 C 460.486 173.680, 432.669 136.820, 398.033 146.536 M 652.500 157.506 C 638.199 160.213, 623.301 166.710, 611.793 175.260 L 606.086 179.500 611.293 180.109 C 640.461 183.523, 672.307 202.260, 705.621 235.609 L 719.743 249.745 724.841 242.932 L 729.939 236.119 724.692 227.761 C 721.806 223.165, 717.708 214.925, 715.586 209.452 C 700.515 170.589, 692.504 158.163, 681.548 156.662 C 674.084 155.639, 660.238 156.041, 652.500 157.506 M 702.257 164.253 C 707.132 170.647, 712.361 181.165, 718.532 196.994 C 724.443 212.153, 727.672 219.036, 731.805 225.281 L 734.373 229.162 736.343 225.331 C 740.114 218, 743.935 206.091, 744.600 199.598 L 745.270 193.065 737.885 185.423 C 728.866 176.091, 721.013 170.362, 709.173 164.479 C 698.167 159.010, 698.261 159.013, 702.257 164.253 M 593.610 194.276 C 580.064 208.138, 572.250 226.578, 569.630 250.865 L 569.159 255.230 572.830 254.659 C 601.193 250.245, 647.123 252.634, 667.916 259.605 C 677.430 262.794, 685.167 267.171, 691.144 272.744 L 695.787 277.075 704.144 267.964 C 714.825 256.318, 714.690 256.593, 711.678 252.645 C 703.369 241.750, 676.224 217.350, 662.500 208.438 C 643.594 196.161, 619.346 187.027, 605.610 187.007 C 600.852 187, 600.526 187.198, 593.610 194.276 M 337.181 190.736 L 332.861 191.122 337.249 196.311 C 350.486 211.965, 360.658 234.478, 359.808 246.240 C 359.308 253.161, 356.433 252.597, 349.939 244.302 C 336.930 227.685, 316.406 209.123, 301.841 200.801 C 298.313 198.786, 298.001 198.769, 293.174 200.348 C 281.630 204.124, 281.896 203.226, 290.338 209.935 C 303.396 220.312, 312.441 235.445, 312.479 246.977 C 312.506 255.416, 311.421 255.563, 302.500 248.328 C 288.958 237.345, 257.448 219, 252.126 219 C 250.257 219, 240.651 225.632, 232.250 232.723 C 228.171 236.167, 227 237.793, 227 240.018 C 227 246.152, 221.861 245.071, 217.016 237.917 C 191.293 199.937, 137.790 211.935, 131.825 257.021 C 127.919 286.543, 151.593 313.891, 181.136 313.985 L 185.773 314 186.477 309.250 C 187.678 301.146, 192.756 282.609, 195.433 276.556 L 197.984 270.787 195.977 267.967 C 193.770 264.868, 186.093 259.076, 181.703 257.197 C 175.271 254.445, 168.335 257.198, 165.263 263.723 C 163.788 266.855, 162.973 267.500, 160.492 267.500 C 156.180 267.500, 155.911 263.086, 159.846 256.894 C 167.665 244.590, 183.427 245.385, 198.122 258.825 C 206.628 266.605, 206.969 268.104, 202.667 278.852 C 197.963 290.604, 195.541 300.423, 192.984 318.109 C 190.099 338.059, 190.370 340.811, 195.500 343.708 C 206.732 350.049, 224.339 353.981, 241.559 353.992 C 254.865 354.002, 257.462 355.104, 254.985 359.694 C 253.062 363.257, 238.480 370.721, 228 373.507 C 222.057 375.086, 217.308 375.500, 205.121 375.500 L 189.743 375.500 190.394 383.963 C 191.623 399.955, 191.555 399.783, 197.378 401.572 C 214.257 406.756, 244.056 402.902, 264.410 392.903 C 270.879 389.725, 272.981 389.381, 274.800 391.200 C 278.257 394.657, 274.643 401.572, 264.580 410.759 C 250.641 423.483, 228.938 431.966, 210.250 431.992 C 207.363 431.997, 205 432.256, 205 432.570 C 205 435.301, 217.154 448.640, 224.037 453.462 L 227.500 455.889 238.471 453.895 C 257.225 450.487, 272.511 444.366, 287.132 434.410 C 296.048 428.339, 297.691 427.919, 298.584 431.480 C 300.749 440.104, 284.027 459.337, 264.646 470.513 L 259.793 473.312 264.646 475.191 C 281.188 481.598, 286.438 482.322, 318.383 482.603 C 348.329 482.867, 350.911 483.184, 349.658 486.448 C 348.579 489.261, 344.774 489.795, 321.062 490.462 L 297.746 491.118 292.821 494.434 L 287.897 497.751 293.547 500.940 C 309.503 509.945, 323.917 532.443, 316.885 537.368 C 314.186 539.258, 313.002 538.770, 304.500 532.261 C 292.987 523.448, 280.508 518.398, 265.871 516.630 L 261.242 516.071 249.371 527.487 L 237.500 538.903 246.040 538.951 C 260.481 539.034, 275.067 544.265, 283.571 552.414 C 291.789 560.288, 289.192 562.267, 274.894 559.025 C 256.824 554.928, 233.511 560.516, 223 571.465 C 219.666 574.938, 219.484 575.498, 219.164 583.305 C 218.044 610.594, 235.359 632.504, 269.231 646.659 C 285.937 653.641, 284.470 652.318, 287.420 663.064 C 290.588 674.603, 299.037 681.930, 309.602 682.299 C 315.120 682.492, 315.458 682.358, 317.680 679.102 C 320.438 675.062, 320.760 668.406, 318.507 662.019 C 316.312 655.799, 318.580 653.789, 322.759 658.250 C 327.587 663.404, 328.708 674.440, 325.036 680.663 C 322.325 685.258, 322.301 685.224, 327.750 684.431 C 347.915 681.494, 356.449 668.106, 348.955 651.165 C 346.770 646.226, 346.538 644.404, 347.979 643.513 C 351.704 641.211, 358.143 652.615, 358.143 661.513 L 358.143 667.214 360.491 665.009 C 366.936 658.954, 369.105 643.938, 365.156 632.704 C 359.589 616.866, 346.569 604.947, 318.003 589.540 C 301.852 580.829, 297.568 577.907, 297.197 575.344 C 296.631 571.440, 299.909 571.789, 308.673 576.566 C 316.726 580.956, 317.213 581.091, 319.519 579.580 C 324.696 576.187, 329.263 571.434, 336.021 562.404 C 341.002 555.747, 343.672 553, 345.160 553 C 350.571 553, 342.795 567.892, 331.268 579.604 C 325.348 585.619, 325.342 585.376, 331.500 588.686 C 365.919 607.186, 382.280 636.799, 371.435 660.967 C 368.891 666.634, 359.622 677, 357.098 677 C 356.536 677, 353.295 679.482, 349.895 682.514 C 341.967 689.589, 333.134 692.635, 323.645 691.567 C 320.265 691.187, 313.900 690.785, 309.500 690.674 C 296.691 690.351, 288.346 684.683, 282.466 672.312 C 281.110 669.458, 280 666.106, 280 664.862 C 280 660.081, 278.128 664.937, 275.116 677.530 C 273.402 684.696, 272 691.264, 272 692.124 C 272 693.898, 283.593 703.943, 295.500 712.487 C 303.209 718.019, 324.659 729.177, 330.176 730.526 C 338.457 732.550, 336.696 738.088, 327.138 740.080 C 313.074 743.011, 281.423 736.205, 268.575 727.486 C 266.609 726.152, 264.998 725.159, 264.995 725.280 C 264.992 725.401, 264.092 730.817, 262.995 737.316 C 260.271 753.450, 259.957 752.208, 268.250 758.093 C 278.051 765.050, 291.667 771.545, 307.838 776.980 C 322.295 781.838, 324.640 783.530, 321.590 786.900 C 313.930 795.364, 284.335 794.574, 264.109 785.365 C 260.044 783.514, 256.589 782, 256.430 782 C 256.272 782, 255.409 784.521, 254.514 787.601 C 253.618 790.682, 251.817 795.618, 250.511 798.571 L 248.137 803.939 255.318 810.597 C 259.268 814.259, 267.900 820.772, 274.500 825.069 C 291.041 835.840, 291.752 836.449, 290.396 838.682 C 286.430 845.213, 258.655 837.855, 243.069 826.144 L 237.788 822.176 221.371 838.524 C 207.410 852.428, 204.472 855.892, 201.727 861.686 C 190.465 885.464, 209.017 928.723, 235.878 941.318 C 241.908 944.145, 242.399 944.222, 244.878 942.731 C 250.412 939.403, 251.500 936.681, 251.500 926.170 C 251.500 917.167, 251.638 916.500, 253.500 916.500 C 256.220 916.500, 258.998 922.315, 258.993 928 C 258.987 934.752, 257.254 939.713, 253.419 943.958 C 249.175 948.656, 249.580 948.897, 262.977 949.639 C 271.593 950.117, 272.926 949.945, 276.977 947.834 C 285.461 943.412, 288.443 933.316, 284.845 921.195 C 283.066 915.204, 282.906 913.676, 283.988 913.007 C 290.173 909.185, 295.978 932.019, 291.169 941.250 C 288.779 945.838, 289.942 946.059, 296.054 942.176 C 310.748 932.840, 311.037 913.298, 296.776 893.356 C 292.487 887.358, 293.133 886.270, 303.500 882.042 C 349.922 863.106, 377.921 831.724, 390.275 784.784 C 393.311 773.249, 393.668 772.481, 396.126 772.196 C 399.948 771.752, 400.312 774.003, 397.994 783.761 C 396.879 788.457, 396.086 792.405, 396.233 792.535 C 396.894 793.117, 426.412 785.719, 434.500 782.944 C 478.793 767.749, 507.034 735.427, 513.962 692 C 514.620 687.875, 515.351 683.375, 515.586 682 C 519.958 656.457, 511.913 598.911, 498.398 559.054 C 486.056 522.655, 463.495 481.311, 447.713 466.172 L 444.243 462.843 439.371 465.281 C 428.046 470.949, 416.472 473.394, 415.309 470.364 C 414.182 467.426, 416.561 465.571, 426.104 461.944 C 459.460 449.267, 482.891 429.188, 496.953 401.232 C 500.726 393.732, 503.938 382.836, 503.983 377.386 C 503.997 375.622, 503.223 375.165, 499.307 374.629 C 487.082 372.953, 486.975 364.478, 499.128 360.556 L 505.500 358.500 505.824 353.500 C 506.003 350.750, 505.858 346.137, 505.502 343.250 L 504.856 338 497.577 338 C 486.937 338, 480 335.164, 480 330.814 C 480 329.782, 480.788 328.667, 481.750 328.337 C 487.562 326.345, 495.127 322.494, 496.868 320.640 C 499.393 317.953, 498.080 314.475, 490.055 302.581 C 484.454 294.281, 484.641 294.372, 477.591 296.511 C 462.681 301.034, 459.782 294.946, 470.079 280.732 C 473.439 276.095, 473.822 277.221, 463.704 262 C 438.535 224.136, 415.293 204.230, 386.237 195.654 L 380.974 194.100 383.402 198.300 C 388.387 206.925, 391.070 225.530, 387.800 228.800 C 385.684 230.916, 382.154 230.179, 380.385 227.250 C 368.955 208.332, 350.613 189.689, 343.909 190.175 C 342.584 190.271, 339.556 190.523, 337.181 190.736 M 751 204.498 C 751 207.939, 746.067 222.382, 742.645 228.958 L 739.285 235.416 743.893 239.254 C 748.570 243.150, 758.247 248.289, 763.250 249.533 C 766.574 250.360, 766.613 250, 764.506 238.028 C 761.831 222.828, 751 195.939, 751 204.498 M 411.580 241.912 C 410.557 243.042, 409.983 244.983, 410.175 246.662 C 410.488 249.393, 410.712 249.503, 416.138 249.589 C 419.238 249.637, 423.835 250.254, 426.353 250.959 C 431.604 252.429, 434 251.874, 434 249.186 C 434 242.997, 415.910 237.127, 411.580 241.912 M 729.247 249.083 L 723.994 256.055 729.380 263.778 C 739.551 278.362, 745.169 291.597, 747.126 305.587 L 748.305 314.015 750.781 310.371 C 758.271 299.349, 764.713 280.452, 765.687 266.644 L 766.279 258.253 760.890 256.488 C 753.335 254.014, 746.374 250.433, 740.293 245.890 C 737.429 243.750, 734.954 242.025, 734.793 242.055 C 734.632 242.086, 732.136 245.248, 729.247 249.083 M 593.500 259.747 C 585.247 260.257, 569.964 262.251, 569.615 262.864 C 569.020 263.907, 570.762 276.937, 572.607 285.250 L 574.327 293 579.452 293 C 589.124 293, 596.898 299.036, 598.377 307.695 C 598.931 310.938, 599.653 311.795, 603.262 313.500 C 607.723 315.607, 611.772 320.645, 612.695 325.238 C 613.325 328.373, 613.181 328.383, 626.500 324.250 C 644.093 318.790, 664.499 305.740, 685.500 286.520 L 690.500 281.944 686.321 278.149 C 675.868 268.657, 661.259 263.742, 635.500 261.051 C 625.641 260.021, 601.296 259.265, 593.500 259.747 M 709.754 272.535 L 700.009 282.778 702.452 288.139 C 710.266 305.287, 706.118 327.738, 691.030 349.956 L 687.059 355.803 691.779 354.503 C 708.013 350.032, 724.495 340.291, 736.402 328.129 L 741.304 323.123 740.647 313.772 C 739.507 297.554, 733.553 281.740, 723.188 267.396 L 719.500 262.292 709.754 272.535 M 288.500 271.389 C 276.432 276.661, 265.558 299, 275.060 299 C 276.062 299, 278.301 297.016, 280.055 294.574 C 283.331 290.011, 287.026 286.745, 295.250 281.141 C 304.665 274.725, 299.139 266.741, 288.500 271.389 M 770.385 285.853 L 769.356 289.706 783.806 290.362 C 809.891 291.547, 841.823 295.895, 848.750 299.205 C 851.783 300.654, 852.860 304.259, 850.949 306.562 C 846.622 311.776, 810.882 318.105, 775 320.012 L 753.500 321.155 750.265 324.828 C 745.282 330.484, 745.745 331, 755.800 331 C 779.858 331, 822.843 325.682, 842 320.335 C 863.672 314.286, 871.299 303.268, 860.046 294.263 C 852.682 288.370, 810.454 282.026, 778.457 282.005 L 771.413 282 770.385 285.853 M 429.182 286.030 C 419.420 291.982, 419.703 312.564, 429.714 324.657 C 435.858 332.078, 446.105 334.307, 451.851 329.472 C 468.814 315.199, 447.701 274.740, 429.182 286.030 M 684.500 297.195 C 673.123 307.345, 657.419 318.259, 645.753 324.124 C 637.852 328.097, 618.728 335, 615.623 335 C 610.586 335, 618.568 342.738, 628.500 347.484 C 640.631 353.281, 656.784 357, 669.825 357 C 675.512 357, 675.926 356.824, 679.467 352.905 C 695.532 335.123, 703.305 307.341, 696.399 292.387 L 694.500 288.274 684.500 297.195 M 440.250 294.731 C 438.309 295.408, 438.777 300.489, 440.963 302.466 C 443.346 304.623, 446 303.832, 446 300.966 C 446 296.818, 443.144 293.721, 440.250 294.731 M 764.144 302.408 C 763.005 304.982, 761.089 308.471, 759.885 310.162 L 757.696 313.235 765.598 312.640 C 769.944 312.312, 778.086 311.763, 783.691 311.418 L 793.882 310.793 794.562 305.351 C 794.936 302.357, 794.977 299.643, 794.652 299.319 C 794.328 298.995, 787.797 298.504, 780.138 298.229 L 766.214 297.728 764.144 302.408 M 802 302.873 C 802 305.053, 801.707 307.600, 801.349 308.533 C 800.767 310.049, 801.271 310.154, 806.099 309.517 C 815.223 308.314, 827.295 306.089, 831.500 304.836 L 835.500 303.643 830.500 302.844 C 827.750 302.404, 821.675 301.585, 817 301.024 C 812.325 300.463, 807.038 299.758, 805.250 299.457 C 802.038 298.916, 802 298.956, 802 302.873 M 567.315 303.174 C 550.832 309.673, 539.923 324.670, 524.523 362 C 516.643 381.103, 503.933 406.526, 496.462 418.132 L 492.193 424.764 498.962 431.683 C 509.422 442.373, 514.191 451.936, 510.564 454.947 C 508.752 456.450, 507.334 455.722, 496.660 447.808 C 492.238 444.529, 486.904 440.971, 484.806 439.901 L 480.992 437.955 474.739 443.228 C 471.299 446.127, 464.776 450.919, 460.243 453.876 C 455.709 456.833, 452 459.561, 452 459.939 C 452 460.317, 453.412 461.948, 455.137 463.563 C 462.871 470.805, 474.907 489.064, 486.279 510.808 L 492.653 522.995 501.037 516.853 C 540.090 488.247, 571.162 438.870, 582.435 387.500 L 585.069 375.500 591.014 370 C 604.503 357.522, 610.604 337.386, 604.662 324.956 C 599.776 314.737, 587.614 316.860, 575.758 330.002 C 571.774 334.418, 570.775 335.058, 569.508 334.007 C 567.385 332.244, 567.597 331.028, 570.948 325.743 C 574.256 320.528, 581.511 314.811, 587.212 312.930 C 591.990 311.353, 592.298 308.144, 588.077 303.923 C 584.384 300.230, 575.586 299.913, 567.315 303.174 M 310.429 321.893 C 299.725 326.755, 295.177 340.385, 299.980 353.212 C 306.569 370.813, 326.505 376.916, 336.761 364.474 C 351.849 346.170, 331.045 312.529, 310.429 321.893 M 841.984 328.596 C 837.598 329.944, 837.386 330.200, 834.588 337.529 C 831.662 345.191, 821.089 365.024, 815.820 372.734 L 812.926 376.967 818.939 385.910 C 825.313 395.388, 827 397.169, 827 394.417 C 827 390.157, 841.906 342.403, 847.497 328.750 C 848.323 326.734, 848.065 326.727, 841.984 328.596 M 323.667 329.667 C 320.979 332.354, 324.899 340, 328.965 340 C 332.992 340, 333.873 334.016, 330.363 330.506 C 328.823 328.966, 324.864 328.469, 323.667 329.667 M 818.500 333.127 C 813 334.067, 805.462 335.156, 801.750 335.547 C 798.038 335.938, 795 336.597, 795 337.010 C 795 339.859, 807.704 369, 808.946 369 C 810.629 369, 830.133 332.540, 828.902 331.695 C 828.681 331.543, 824 332.187, 818.500 333.127 M 404.147 335.096 C 386.961 339.711, 373 349.161, 373 356.179 C 373 365.172, 388.165 376.370, 405.720 380.340 C 410.874 381.505, 411.535 381.941, 411.820 384.362 C 412.697 391.801, 400.368 406.625, 390.987 409.411 C 376.894 413.596, 362.108 408.275, 356.863 397.130 C 354.306 391.699, 352.525 390.319, 350.373 392.105 C 345.200 396.399, 354.247 409.785, 365.875 415.040 C 369.986 416.898, 371.109 417.998, 372.430 421.456 C 378.174 436.495, 400.293 444.285, 416.148 436.852 C 426.826 431.846, 433.708 422.307, 434.724 411.106 L 435.256 405.240 439.378 404.033 C 449.198 401.159, 457.251 394.017, 461.830 384.120 C 467.008 372.927, 464.642 355.500, 457.944 355.500 C 455.252 355.500, 455.260 355.432, 456.559 367.511 C 458.876 389.044, 436.247 405.482, 422.799 392.035 C 417.762 386.997, 417.482 381.828, 422.012 377.489 C 433.508 366.475, 440.325 344.511, 434.335 337.784 C 429.754 332.641, 417.390 331.540, 404.147 335.096 M 734.548 340.544 C 731.274 343.492, 724.879 348.064, 720.337 350.702 C 715.795 353.341, 712.250 356.003, 712.458 356.618 C 712.666 357.234, 719.263 366.414, 727.118 377.019 L 741.400 396.301 745.950 391.353 C 748.452 388.631, 752.666 383.869, 755.313 380.770 L 760.127 375.136 753.636 362.818 C 750.065 356.043, 745.920 347.350, 744.423 343.500 C 740.834 334.268, 741.345 334.421, 734.548 340.544 M 776 338.056 C 771.325 338.466, 763.788 338.846, 759.250 338.901 C 754.712 338.955, 751.001 339.337, 751.001 339.750 C 751.004 341.497, 764.588 367.359, 765.496 367.346 C 766.476 367.331, 785.937 339.212, 785.979 337.750 C 785.990 337.337, 785.663 337.070, 785.250 337.155 C 784.837 337.240, 780.675 337.645, 776 338.056 M 407.768 342.081 C 399.382 344.059, 388.005 349.224, 383.833 352.949 L 379.500 356.816 382.213 359.675 C 388.128 365.905, 405.186 374, 412.401 374 C 419.706 374, 432.569 348.005, 427.992 342.491 C 426.589 340.800, 414.258 340.550, 407.768 342.081 M 782.712 356.250 C 779.017 361.887, 774.440 368.552, 772.542 371.059 L 769.091 375.618 776.623 387.559 C 780.765 394.127, 784.480 399.838, 784.877 400.250 C 785.602 401.002, 793.210 392.160, 800.422 382.186 L 804.265 376.872 798.708 365.686 C 795.652 359.534, 792.558 352.587, 791.832 350.250 C 791.107 347.913, 790.269 346, 789.972 346 C 789.674 346, 786.407 350.613, 782.712 356.250 M 701.385 359.985 C 700.162 360.477, 697.263 364.558, 694.508 369.668 C 691.888 374.525, 687.758 381.581, 685.330 385.347 L 680.915 392.194 685.207 397.394 C 692.252 405.927, 711.391 427, 712.097 427 C 712.910 427, 736 402.459, 736 401.595 C 736 400.705, 705.028 359.538, 704.192 359.317 C 703.811 359.216, 702.548 359.517, 701.385 359.985 M 641 361.819 C 641 362.067, 642.785 366.720, 644.967 372.158 C 648.194 380.202, 654.894 404.180, 656.202 412.366 C 656.408 413.657, 658.859 410.925, 664.161 403.495 L 671.822 392.758 664.161 383.105 C 659.947 377.796, 654.948 371.182, 653.052 368.408 C 650.191 364.221, 648.872 363.193, 645.302 362.365 C 642.936 361.816, 641 361.570, 641 361.819 M 685.500 364.069 C 683.850 364.451, 677.438 364.817, 671.250 364.882 C 665.063 364.947, 660 365.226, 660 365.502 C 660 366.216, 675.074 385.452, 675.854 385.732 C 676.802 386.072, 689.649 364.163, 688.831 363.601 C 688.649 363.476, 687.150 363.686, 685.500 364.069 M 754.761 392.207 L 746.021 402.264 748.848 406.108 C 750.403 408.222, 754.456 413.340, 757.855 417.481 L 764.034 425.011 772.026 416.255 C 776.422 411.440, 779.901 407.034, 779.759 406.464 C 779.369 404.902, 764.576 382.025, 764 382.092 C 763.725 382.124, 759.567 386.676, 754.761 392.207 M 801.223 393.250 C 797.338 398.337, 793.186 403.534, 791.996 404.798 C 789.903 407.022, 789.889 407.183, 791.584 409.798 C 794.818 414.788, 809.234 434.100, 809.500 433.798 C 817.716 424.495, 822.218 417.330, 823.142 412.083 L 824.163 406.288 816.510 395.144 C 812.301 389.015, 808.729 384, 808.572 384 C 808.415 384, 805.108 388.163, 801.223 393.250 M 668.333 410.250 L 660.278 421.500 663.308 426 C 668.807 434.166, 684.488 454.986, 685.144 454.993 C 686.398 455.007, 706.077 433.730, 705.741 432.724 C 705.314 431.443, 677.701 399.177, 676.944 399.075 C 676.639 399.034, 672.764 404.063, 668.333 410.250 M 728.750 420.446 C 722.288 427.190, 717 433.010, 717 433.379 C 717 433.748, 719.587 436.852, 722.750 440.275 C 725.913 443.699, 730.100 448.448, 732.055 450.828 L 735.609 455.156 743.657 446.828 C 748.083 442.248, 753.302 436.694, 755.254 434.487 L 758.804 430.474 750.436 419.987 C 745.833 414.219, 742.052 409.163, 742.033 408.750 C 741.956 407.002, 739.891 408.820, 728.750 420.446 M 397.500 414.858 C 396 416.299, 386.100 419, 382.318 419 C 377.877 419, 378.125 420.504, 383.398 425.557 C 393.772 435.497, 412.191 435.286, 421.389 425.122 C 423.811 422.447, 422.664 420.941, 415.647 417.584 C 410.097 414.929, 399.140 413.283, 397.500 414.858 M 776.818 422.053 C 772.793 426.483, 769.387 430.423, 769.248 430.809 C 769.109 431.196, 773.801 437.095, 779.673 443.919 L 790.350 456.326 793.724 452.413 C 795.581 450.261, 798.705 446.589, 800.668 444.253 L 804.236 440.006 796.457 429.253 C 792.178 423.339, 787.962 417.502, 787.089 416.281 C 784.856 413.164, 784.936 413.120, 776.818 422.053 M 816.639 436.406 C 813.448 440.590, 813.456 440.428, 816.250 444.346 L 818.500 447.500 819.056 440.500 C 819.734 431.974, 819.859 432.185, 816.639 436.406 M 660.588 439.500 C 660.968 442.800, 661.554 453.049, 661.890 462.276 L 662.500 479.052 671.356 470.149 L 680.213 461.247 671.271 449.373 C 666.353 442.843, 661.782 436.600, 661.113 435.500 C 660.111 433.853, 660.018 434.559, 660.588 439.500 M 752.367 448.514 C 746.390 454.896, 741.363 460.501, 741.196 460.970 C 740.837 461.977, 750.620 473.399, 757.892 480.462 L 763 485.425 768.081 480.462 C 770.876 477.733, 775.869 472.465, 779.178 468.757 L 785.194 462.013 774.945 449.757 C 769.307 443.015, 764.366 437.368, 763.965 437.206 C 763.563 437.044, 758.344 442.133, 752.367 448.514 M 700.699 449.845 C 694.814 455.809, 690 461.028, 690 461.441 C 690 462.872, 707.117 483, 708.334 483 C 709.006 483, 714.345 477.897, 720.199 471.661 L 730.842 460.321 721.389 449.661 C 716.190 443.797, 711.815 439, 711.667 439 C 711.519 439, 706.583 443.880, 700.699 449.845 M 807.883 446.809 C 807.672 447.418, 804.721 451.015, 801.324 454.804 L 795.149 461.692 803.324 469.697 C 807.821 474.100, 813.002 478.727, 814.837 479.981 L 818.173 482.260 817.837 470.290 C 817.522 459.106, 817.319 458.063, 814.741 454.410 C 809.729 447.306, 808.271 445.689, 807.883 446.809 M 774.793 484.031 C 763.643 495.517, 762.802 495.608, 753.019 486.379 L 746 479.758 746 696.807 C 746 888.450, 746.176 914.033, 747.501 915.358 C 751.207 919.064, 774.224 920.138, 781.250 916.933 L 784 915.679 784 695.339 C 784 574.153, 783.888 475.014, 783.750 475.031 C 783.612 475.047, 779.582 479.097, 774.793 484.031 M 89 488.970 C 75.619 491.463, 68.078 498.945, 68.022 509.782 C 67.963 521.358, 74.503 527.821, 90 531.498 C 94.125 532.477, 98.715 533.891, 100.200 534.639 C 103.815 536.461, 103.653 536.572, 104.423 531.750 C 105.709 523.700, 111.741 513.119, 119.625 505.080 C 124.811 499.791, 126.603 497.351, 125.732 496.761 C 116.690 490.637, 99.557 487.003, 89 488.970 M 140 519.166 C 133.333 522.981, 122.346 533.780, 118.615 540.185 L 115.886 544.870 118.407 548.685 C 119.794 550.783, 121.720 555.650, 122.687 559.500 C 123.655 563.350, 124.527 566.644, 124.626 566.820 C 124.725 566.996, 126.569 566.240, 128.724 565.141 C 136.200 561.327, 145.326 558.998, 153.780 558.746 L 162.061 558.500 161.414 553 C 160.051 541.412, 150.286 517.562, 146.389 516.306 C 145.900 516.149, 143.025 517.436, 140 519.166 M 131.269 586.087 C 124 588.390, 123.629 588.932, 122.095 599.500 C 121.456 603.900, 120.116 611.235, 119.117 615.799 C 117.664 622.439, 117.571 623.995, 118.655 623.579 C 127.103 620.337, 146.131 619.283, 154.613 621.587 C 156.822 622.188, 157.011 621.332, 161.651 589.626 C 162.043 586.943, 161.800 585.488, 160.859 584.892 C 158.140 583.169, 137.896 583.987, 131.269 586.087 M 126.230 646.550 C 123.332 647.331, 119.565 648.691, 117.859 649.573 L 114.757 651.177 115.457 659.199 C 116.657 672.958, 120.825 686.174, 127.631 697.807 L 130.151 702.113 133.825 696.046 C 139.399 686.842, 150.943 676.240, 158.030 673.815 C 158.536 673.642, 158.039 670.575, 156.925 667 C 155.810 663.425, 154.584 657.370, 154.199 653.544 C 153.566 647.245, 153.264 646.522, 151 645.893 C 146.636 644.682, 131.698 645.078, 126.230 646.550 M 167.530 695.181 C 158.964 699.696, 145.522 717.707, 147.287 722.304 C 148.660 725.883, 176.024 743, 180.371 743 C 180.717 743, 181 740.845, 181 738.210 C 181 730.016, 186.339 713.598, 190.498 709.003 C 191.733 707.637, 191.321 707.124, 187.068 704.734 C 184.410 703.239, 179.978 699.988, 177.220 697.508 C 174.463 695.029, 172.047 693.020, 171.853 693.044 C 171.659 693.069, 169.713 694.030, 167.530 695.181 M 252.689 710.667 C 243.555 713.865, 227.658 715.537, 218.161 714.297 C 209.643 713.186, 210.059 712.756, 207.315 725.500 C 205.939 731.888, 205.929 747.262, 207.299 748.633 C 207.562 748.895, 213.340 749.107, 220.139 749.103 C 234.159 749.095, 243.402 747.073, 249.851 742.603 C 254.884 739.115, 255.474 737.708, 257.896 723.404 C 259.023 716.751, 260.230 710.564, 260.579 709.654 C 261.346 707.657, 261.247 707.670, 252.689 710.667 M 508.492 731.151 C 494.314 758.970, 469.724 779.031, 435.960 790.321 C 430.207 792.245, 423.808 794.136, 421.739 794.523 C 416.790 795.449, 416.683 795.770, 419.052 802.633 C 426.902 825.376, 428.956 862.044, 424.220 894.905 C 420.858 918.233, 421.374 924.414, 427.121 929.680 C 438.103 939.742, 465.057 948.106, 491.580 949.683 C 501.257 950.258, 501.747 950.188, 503.854 947.927 C 509.078 942.320, 508.918 932.583, 503.461 923.939 C 498.908 916.725, 502.484 913.112, 508.180 919.172 C 515.146 926.582, 517.641 939.323, 513.609 946.891 L 511.802 950.283 518.905 949.775 C 539.566 948.296, 546.445 932.477, 534.016 915.023 C 529.277 908.367, 533.457 905.996, 539.119 912.129 C 543.811 917.211, 547 925.330, 547 932.193 C 547 937.215, 547.036 937.277, 548.964 935.533 C 552.339 932.478, 554.337 925.653, 553.750 919.181 C 552.446 904.795, 540.956 892.848, 522.819 887.018 C 513.288 883.955, 513.273 883.918, 516.381 871.512 C 518.350 863.655, 522.970 841.876, 522.997 840.326 C 522.999 840.230, 520.488 841.034, 517.418 842.113 C 502.402 847.391, 481 844.357, 481 836.950 C 481 834.258, 484.119 832.616, 495 829.581 C 504.733 826.865, 516.882 821.644, 522.079 817.944 L 525 815.864 525 801.432 C 525 793.494, 524.730 787, 524.401 787 C 524.071 787, 521.259 788.567, 518.151 790.483 C 501.378 800.820, 476.020 804.830, 471.656 797.834 C 470.096 795.334, 472.202 793.424, 481.946 788.504 C 497.560 780.621, 520.013 762.205, 519.993 757.298 C 519.984 755.200, 513.197 724.864, 512.604 724.270 C 512.383 724.050, 510.533 727.146, 508.492 731.151" stroke="none" fill="#1a1a1a" fill-rule="evenodd"/>
</svg>