<svg xmlns="http://www.w3.org/2000/svg" width="1024" height="1024" viewBox="0 0 1024 1024" version="1.1">
	<path d="M 393.061 113.020 C 352.391 118.707, 321.967 150.384, 318.946 190.187 C 317.899 203.985, 318.635 202.877, 306.463 208.974 C 299.825 212.299, 297.408 213, 292.583 213 C 275.326 213, 242.588 224.183, 221.349 237.333 C 150.483 281.209, 109.982 366.699, 98.572 496.500 C 89.791 596.390, 97.872 651.306, 127.979 696.330 C 141.217 716.127, 165.538 738, 174.313 738 C 175.390 738, 175.843 740.665, 176.312 749.750 C 177.577 774.262, 183.651 791.575, 195.241 803.705 C 218.218 827.753, 267.508 854.326, 307.922 864.452 C 358.129 877.032, 442.747 873.175, 636.859 849.460 C 673.933 844.930, 692.353 838.883, 706.722 826.524 C 715.163 819.263, 721.823 800.599, 722.430 782.500 C 722.615 777, 723.694 768.225, 724.827 763 C 729.607 740.967, 730.260 700.771, 726.987 630 C 724.018 565.799, 721.491 548.387, 712.664 531.318 C 711.090 528.274, 708.712 502.906, 707.478 476 C 705.895 441.454, 697.421 391.022, 688.827 365 C 673.417 318.335, 642.903 274.059, 607.417 246.873 C 576.097 222.878, 543.156 205.615, 508.644 195.109 L 496.788 191.500 494.071 183.500 C 487.914 165.377, 476.344 146.341, 464.959 135.600 C 446.554 118.237, 418.578 109.451, 393.061 113.020 M 389 123.447 C 353.184 131.144, 327.063 161.354, 327.008 195.141 L 327 199.782 334 196.933 C 337.851 195.366, 345.223 193.053, 350.384 191.792 C 360.930 189.216, 360.646 189.536, 363.042 177.500 C 368.489 150.128, 397.591 136.970, 429.437 147.482 C 442.993 151.957, 448.428 157.260, 457.240 174.615 C 460.133 180.311, 463.021 185.173, 463.657 185.419 C 464.293 185.665, 469.143 186.183, 474.435 186.572 L 484.057 187.278 481.404 179.889 C 470.974 150.848, 452.478 132.537, 425.961 125.005 C 416.278 122.254, 398.114 121.489, 389 123.447 M 394.733 155.880 C 381.780 159.258, 374.629 166.722, 372.757 178.817 C 372.147 182.757, 371.905 186.238, 372.219 186.553 C 372.534 186.867, 376.325 186.648, 380.645 186.066 C 395.554 184.058, 422.501 182.841, 436.817 183.528 L 451.133 184.215 447.469 176.938 C 441.265 164.620, 439.475 162.486, 432.840 159.509 C 421.158 154.266, 406.335 152.854, 394.733 155.880 M 399 193.586 C 397.075 193.809, 391.225 194.479, 386 195.076 C 313.279 203.380, 260.843 240.864, 232.568 304.757 C 210.501 354.622, 202.979 400.292, 196.442 524.101 L 195.777 536.702 204.138 542.804 C 215.803 551.317, 236.863 562, 241.980 562 C 242.346 562, 242.075 558.512, 241.376 554.250 C 240.678 549.987, 240.082 543.474, 240.053 539.775 C 239.999 532.931, 245.170 503.330, 249.446 486 C 250.736 480.775, 252.090 471.775, 252.456 466 C 257.966 379.041, 286.766 310.735, 333.916 272.796 C 377.102 238.047, 427.996 221.942, 494.670 221.929 C 524.082 221.923, 536.806 223.247, 558 228.517 C 564.671 230.176, 552.531 222.561, 539.064 216.640 C 502.667 200.637, 471.206 194.148, 427 193.526 C 413.525 193.336, 400.925 193.363, 399 193.586 M 270 227.065 C 240.942 234.640, 218.445 247.257, 196.268 268.414 C 138.342 323.680, 107.642 417.206, 105.316 545.500 C 103.967 619.837, 111.098 653.332, 136.538 692.165 C 142.507 701.275, 159.543 718.455, 168.091 723.983 L 174.500 728.128 175.272 703.500 C 176.002 680.237, 175.939 678.722, 174.149 676.186 C 166.111 664.798, 156.458 637.694, 153.248 617.500 C 149.576 594.396, 151.048 525.959, 156.077 486 C 166.267 405.033, 195.069 325.325, 226.538 291 C 230.336 286.857, 243.599 266, 242.436 266 C 240.989 266, 203.814 285.819, 199.703 288.782 C 194.112 292.812, 193.692 292.698, 195.116 287.542 C 197.456 279.069, 211.234 270.012, 242.076 256.676 C 252.289 252.260, 253.085 251.679, 265.326 239.728 C 275.607 229.690, 279.940 224.573, 277.750 225.055 C 277.613 225.085, 274.125 225.990, 270 227.065 M 460 232.505 C 390.928 240.975, 336.718 271.351, 304.839 319.449 C 280.508 356.157, 265.995 405.076, 261.437 465.750 L 260.742 475 263.421 475 C 267.189 475, 271.076 477.235, 275.149 481.743 L 278.648 485.616 280.386 471.058 C 293.383 362.202, 327.345 300.216, 391.500 268.255 C 451.969 238.130, 527.068 234.166, 594.856 257.520 C 602.202 260.051, 608.416 261.917, 608.665 261.669 C 609.373 260.960, 598.080 254.385, 587.750 249.491 C 568.249 240.253, 547.429 234.299, 526.789 232.055 C 513.721 230.635, 473.013 230.909, 460 232.505 M 475.302 253.510 C 410.121 261.769, 362.220 287.943, 333.492 331 C 304.721 374.119, 290.187 433.654, 283.566 535.500 C 278.319 616.225, 277.024 648.825, 277.010 700.603 C 276.988 779.992, 282.124 827.950, 292.271 843.093 C 302.273 858.022, 334.246 863.233, 402.495 861.059 C 461.315 859.184, 498.707 856.366, 556.500 849.448 C 568.050 848.066, 587.175 845.816, 599 844.449 C 660.925 837.290, 669.769 835.673, 682.630 829.154 C 701.619 819.529, 713 804.384, 713 788.740 C 713 784.961, 712.883 784.793, 711.250 786.235 C 704.903 791.838, 677.558 802.216, 659.500 805.875 C 623.992 813.069, 527.037 821.556, 457.500 823.556 C 368.239 826.124, 333.310 809.001, 325.504 758.850 C 323.205 744.079, 322.473 692.654, 323.920 647.524 C 325.949 584.258, 327.788 571.873, 338.248 551.040 C 354.984 517.706, 374.525 513.171, 558 500.047 C 637.633 494.350, 666.782 497.259, 691.987 513.418 C 696.655 516.411, 700.589 518.745, 700.728 518.605 C 701.917 517.417, 697.147 456.583, 693.939 432 C 686.377 374.068, 665.525 321.319, 640.160 295.953 C 624.692 280.485, 595.334 265.070, 569.839 259.029 C 542.478 252.546, 501.699 250.165, 475.302 253.510 M 205.732 341.619 C 192.078 364.095, 175.091 421.696, 167.134 472.500 C 158.136 529.948, 157.858 605.981, 166.541 635 C 168.372 641.122, 176.190 661.143, 176.592 660.741 C 176.838 660.495, 177.819 644.827, 180.035 605.750 C 181.280 583.780, 183.509 560.198, 185.413 548.837 C 186.181 544.251, 187.100 533.075, 187.454 524 C 189.145 480.745, 193.028 430.232, 197.026 399.500 C 199.338 381.721, 199.306 381.880, 205.619 356.179 C 208.094 346.102, 209.952 337.355, 209.747 336.740 C 209.542 336.125, 207.735 338.321, 205.732 341.619 M 260.099 488.750 C 259.561 490.813, 258.395 495.425, 257.508 499 C 256.621 502.575, 255.687 506.212, 255.433 507.083 C 254.524 510.200, 263.711 512.295, 268.066 509.965 C 272.308 507.694, 269.986 488.669, 265.150 486.080 C 261.923 484.353, 261.137 484.769, 260.099 488.750 M 581 508.075 C 537.105 510.781, 475.452 518.186, 444.500 524.468 C 400.401 533.418, 378.297 550.601, 370.195 582.231 L 368.255 589.801 370.940 590.338 C 386.944 593.539, 407.258 593.465, 458.500 590.021 C 474.450 588.949, 505.050 586.907, 526.500 585.483 C 576.138 582.188, 658.608 575.102, 683.474 571.996 C 687.859 571.448, 694.963 571, 699.259 571 C 706.756 571, 707.027 571.080, 706.002 572.997 C 703.780 577.148, 695.841 579.737, 678.500 581.963 C 638.494 587.100, 492.096 598.196, 426.087 601.095 C 402.982 602.110, 370.736 601.191, 367.898 599.437 C 367.051 598.913, 366 604.205, 366 608.995 L 366 612.740 371.750 613.849 C 404.057 620.084, 467.504 619.229, 587 610.947 C 643.182 607.054, 713.057 598.276, 716.676 594.657 C 717.649 593.684, 713.877 566.310, 711.349 556 C 708.013 542.397, 705.630 537.945, 697.328 529.806 C 686.429 519.121, 675.962 513.898, 656.500 509.433 C 648.008 507.485, 603.539 506.685, 581 508.075 M 272.036 518.600 C 267.324 521.850, 263.078 522.466, 257.222 520.750 L 252.294 519.305 250.634 526.403 C 247.274 540.770, 250.664 563.122, 256.545 565.379 C 258.962 566.306, 265.030 566.120, 269.086 564.993 L 272.672 563.996 274.185 540.248 C 275.017 527.187, 275.653 516.435, 275.599 516.355 C 275.545 516.275, 273.941 517.286, 272.036 518.600 M 401.069 523.504 C 362.655 531.479, 349.989 540.774, 341.113 567.500 C 334.572 587.197, 332.750 614.069, 332.671 692 C 332.597 764.306, 334.652 776.818, 348.933 791.047 C 354.286 796.380, 364.783 803.288, 363.658 800.737 C 354.808 780.667, 353.095 769.167, 353.048 729.500 C 353.006 693.567, 356.406 610.737, 358.567 595.055 C 363.551 558.881, 379.018 538.338, 411.436 524.836 C 419.923 521.302, 420.246 521.064, 416.500 521.096 C 414.300 521.115, 407.356 522.199, 401.069 523.504 M 193.140 559.777 C 187.112 621.870, 182.767 717.488, 184.802 743.277 C 188.370 788.496, 198.102 801.464, 251 831.487 C 258.372 835.671, 278.886 845, 280.714 845 C 281.228 845, 280.636 841.963, 279.400 838.250 C 275.062 825.219, 272.387 807.569, 269.964 776 C 267.358 742.022, 267.738 638.358, 270.656 587.350 L 271.290 576.269 260.395 575.742 C 244.374 574.968, 223.543 567.044, 204 554.291 C 199.875 551.600, 196 549.095, 195.389 548.726 C 194.622 548.262, 193.925 551.684, 193.140 559.777 M 704.500 607.623 C 650.333 616.873, 515.369 627.032, 442.165 627.369 L 413.830 627.500 414.378 631 C 418.504 657.325, 419.178 672.602, 416.452 678 C 409.891 690.996, 383.569 690.712, 377.060 677.575 L 374.619 672.650 376.383 651.575 C 377.354 639.984, 378.382 629.094, 378.669 627.377 L 379.190 624.253 372.516 623.539 C 368.846 623.146, 365.688 622.979, 365.498 623.169 C 364.419 624.248, 361.832 723.579, 362.338 744.500 C 363.921 809.953, 374.132 816.994, 463.131 813.999 C 503.859 812.629, 542.001 810.054, 597 804.963 C 671.359 798.080, 706.548 786.558, 713.873 766.692 C 718.709 753.579, 719.449 744.600, 719.366 700 C 719.265 645.869, 716.835 607.118, 713.500 606.456 C 712.950 606.346, 708.900 606.872, 704.500 607.623 M 388.583 628.750 C 387.115 635.762, 385.977 646.665, 385.372 659.508 C 384.558 676.777, 384.368 676.500, 397.004 676.500 C 406.952 676.500, 409 675.474, 409 670.487 C 409 666.292, 404.075 627.931, 403.396 626.831 C 403.113 626.374, 399.794 626, 396.020 626 C 389.341 626, 389.144 626.073, 388.583 628.750" stroke="none" fill="#1a1a1a" fill-rule="evenodd"/>
</svg>