<svg xmlns="http://www.w3.org/2000/svg" width="1024" height="1024" viewBox="0 0 1024 1024" version="1.1">
	<path d="M 366.500 116.994 C 295.510 117.979, 292.809 118.352, 286.193 128.074 C 284.066 131.201, 283.911 132.337, 284.193 142.732 L 284.500 154.001 281.500 153.518 C 274.892 152.453, 159.989 140.911, 136.276 138.929 C 107.995 136.566, 92.303 139.030, 87.335 146.612 C 85.567 149.310, 85.490 160.731, 85.215 461.456 C 85.058 633.080, 85.194 774.976, 85.516 776.781 C 86.251 780.895, 91.228 784.659, 101.688 789.014 C 114.944 794.532, 109.188 795.078, 197 779.972 C 219.175 776.157, 282.275 766, 283.797 766 C 284.183 766, 284.500 794.238, 284.500 828.750 C 284.500 885.693, 284.656 891.784, 286.184 894.573 C 288.505 898.808, 290.355 900.145, 295.806 901.529 L 300.500 902.721 300.165 909.244 C 299.671 918.854, 300.003 919, 322.272 919 C 344.357 919, 345.937 918.468, 346.125 910.974 C 346.194 908.238, 346.306 905.555, 346.375 905.011 C 346.457 904.365, 403.083 903.932, 509.726 903.761 L 672.951 903.500 673.476 906.250 C 673.764 907.763, 674.251 910.303, 674.557 911.896 C 675.713 917.915, 677.442 918.465, 696.408 918.845 C 719.799 919.315, 724.237 917.278, 722.480 906.881 L 721.853 903.172 727.462 902.008 C 739.398 899.530, 740.050 897.385, 738.929 864.295 C 738.467 850.658, 738.069 822.482, 738.044 801.683 C 738.003 766.122, 738.104 763.896, 739.750 764.386 C 742.173 765.108, 811.371 781.187, 828.500 785.009 C 895.087 799.865, 910.210 801.793, 924.622 797.260 C 932.775 794.696, 940.878 789.654, 942.717 786 C 943.722 784.004, 943.928 719.281, 943.738 464.831 L 943.500 146.161 941.085 143.591 C 938.339 140.667, 929.840 137.194, 922.597 136.035 C 915.303 134.868, 869.554 138.283, 821.500 143.581 C 783.216 147.803, 740.871 152.962, 739.979 153.513 C 738.643 154.339, 738.226 152.979, 737.054 143.972 C 735.178 129.556, 732.034 124, 723.809 120.564 C 716.668 117.581, 488.525 115.302, 366.500 116.994 M 417.500 124.138 C 340.187 125.172, 301.499 126.413, 297.229 127.997 C 292.609 129.711, 292 131.505, 292 143.396 L 292 153.923 295.984 154.996 C 298.175 155.586, 301.213 157.139, 302.734 158.448 L 305.500 160.827 305.500 458.163 C 305.500 621.699, 305.157 756.725, 304.738 758.221 C 303.848 761.400, 301.520 762.846, 295.703 763.834 C 292.481 764.381, 291.429 765.038, 291.197 766.649 L 290.894 768.749 391.197 768.887 C 545.368 769.100, 730.115 767.424, 731.143 765.804 C 732.787 763.211, 731.907 762.298, 726.634 761.117 C 723.683 760.457, 720.420 759.297, 719.384 758.539 C 717.548 757.196, 717.493 750.500, 717.243 496.331 C 717.102 352.874, 717.336 218.817, 717.763 198.426 C 718.642 156.479, 718.626 156.563, 725.915 155.398 L 729.796 154.777 729.263 146.639 C 728.470 134.536, 727.371 131.933, 721.912 129.222 C 717.559 127.061, 715.629 126.894, 684.412 125.984 C 645.809 124.858, 516.420 122.945, 494 123.168 C 485.475 123.253, 451.050 123.690, 417.500 124.138 M 915.678 325.618 C 915.862 426.203, 916.291 572.097, 916.630 649.827 L 917.246 791.155 919.873 790.523 C 926.422 788.948, 935.024 784.068, 936.061 781.339 C 937.369 777.898, 936.911 150.426, 935.598 147.673 C 934.409 145.179, 931.042 144.063, 922.544 143.344 L 915.341 142.735 915.678 325.618 M 116.524 146.976 C 116.229 148.364, 116.395 190.675, 116.892 241 C 117.411 293.504, 117.438 383.003, 116.954 451 C 116.490 516.175, 116.085 618.201, 116.055 677.725 L 116 785.950 118.750 785.496 C 120.263 785.247, 124.875 784.572, 129 783.998 C 133.125 783.424, 151.977 780.239, 170.893 776.920 C 189.810 773.602, 224.460 767.777, 247.893 763.975 C 271.327 760.173, 292.159 756.770, 294.186 756.411 L 297.872 755.759 298.260 745.630 C 298.926 728.213, 299.041 171.578, 298.380 166.753 C 297.810 162.598, 297.464 162.123, 294.626 161.603 C 281.660 159.226, 172.347 148.201, 140 146.007 C 131.475 145.428, 122.826 144.842, 120.780 144.704 C 117.520 144.484, 116.993 144.765, 116.524 146.976 M 885 145.127 C 822.645 150.741, 729.430 161.241, 727.784 162.838 C 726.842 163.751, 725.018 235.691, 725.008 272.307 L 725 301.113 727.223 299.557 C 728.611 298.584, 731.612 298, 735.223 298 L 741 298 741.035 251.250 C 741.071 203.251, 741.902 190.669, 745.260 187.312 C 746.126 186.446, 751.951 185.388, 761.065 184.442 C 769.004 183.617, 783.150 182.036, 792.500 180.928 C 875.412 171.100, 888.366 170.366, 893.217 175.217 C 895.289 177.289, 895.289 177.317, 894.617 251.395 C 894.247 292.153, 893.706 425.161, 893.414 546.968 C 893.072 689.815, 892.534 768.857, 891.900 769.621 C 890.056 771.842, 874.337 773.272, 857.593 772.740 C 842.016 772.246, 839.642 771.857, 783.572 760.626 C 751.712 754.244, 725.426 749.241, 725.160 749.507 C 724.893 749.774, 725.159 751.053, 725.750 752.350 C 727.251 755.646, 747.224 760.443, 814 773.549 C 826.925 776.086, 846.725 780.339, 858 783 C 881.682 788.590, 892.564 790.685, 902.815 791.627 L 910.131 792.299 909.546 507.400 C 909.224 350.705, 908.692 204.838, 908.363 183.250 L 907.766 144 901.133 144.136 C 897.485 144.211, 890.225 144.657, 885 145.127 M 103.217 147.070 C 92.646 148.443, 93.273 147.726, 92.542 159.288 C 92.187 164.904, 92.032 306.035, 92.198 472.910 L 92.500 776.320 98.500 779.594 C 101.800 781.394, 105.737 783.171, 107.250 783.542 L 110 784.217 110 465.108 C 110 289.599, 109.888 146.057, 109.750 146.127 C 109.612 146.197, 106.673 146.621, 103.217 147.070 M 391.500 157.083 C 360.150 157.539, 330 158.379, 324.500 158.951 C 310.199 160.437, 310.008 160.705, 309.975 179.306 C 309.252 588.049, 309.261 744.555, 310.006 746.516 C 310.504 747.825, 312.149 749.706, 313.662 750.698 C 316.286 752.417, 324.162 752.497, 483.956 752.436 C 576.105 752.400, 664.076 752.009, 679.446 751.567 L 707.392 750.762 710.038 748.116 L 712.684 745.470 713.331 718.485 C 714.535 668.254, 713.442 166.695, 712.124 164.231 C 710.297 160.819, 706.034 159.158, 696.367 158.091 C 684.405 156.771, 463.231 156.040, 391.500 157.083 M 369 164.084 C 334.961 164.885, 325.406 165.499, 322.968 167.041 C 322.161 167.552, 322.012 167.976, 322.638 167.985 C 324.247 168.006, 332.975 174.068, 343.501 182.474 C 348.452 186.428, 353.520 190.208, 354.764 190.874 C 358.559 192.905, 652.749 192.477, 660.614 190.429 C 667.701 188.583, 671.337 186.510, 684.873 176.601 C 690.578 172.424, 697.059 168.463, 699.276 167.799 L 703.306 166.592 700.403 165.751 C 692.204 163.374, 450.775 162.160, 369 164.084 M 698.500 174.349 C 692.334 177.223, 674.150 191.578, 670.895 196.142 L 668.500 199.500 668.242 252 C 668.100 280.875, 667.840 305.738, 667.665 307.250 C 667.356 309.918, 667.498 310.004, 672.423 310.117 C 675.215 310.182, 682 310.520, 687.500 310.867 L 697.500 311.500 697.803 317.969 C 698.357 329.771, 698.309 329.804, 679 330.903 L 668.500 331.500 668.241 384.229 L 667.982 436.957 672.741 439.337 C 675.359 440.647, 681.414 443.182, 686.197 444.972 C 697.912 449.355, 698.001 449.481, 698.274 462.307 C 698.584 476.851, 698.917 476.575, 681.461 476.248 L 668 475.995 667.750 511.748 C 667.338 570.645, 667.179 566.140, 669.795 569.528 C 671.057 571.163, 678.257 577.241, 685.795 583.036 L 699.500 593.571 699.500 602.135 C 699.500 614.250, 699.857 614, 682.535 614 L 668.315 614 667.660 631.250 C 666.615 658.821, 666.851 693.853, 668.098 696.184 C 668.703 697.313, 677.075 706.171, 686.705 715.868 C 703.756 733.040, 704.241 733.435, 705.276 731 C 707.458 725.866, 708.523 213.449, 706.418 181.250 C 705.740 170.877, 705.814 170.941, 698.500 174.349 M 317.307 174.254 C 316.863 174.939, 316.475 210.375, 316.445 253 C 316.415 295.625, 316.202 421.262, 315.972 532.193 C 315.742 643.125, 315.913 734.247, 316.353 734.687 C 317.394 735.727, 350.129 702.551, 352.563 697.989 C 354.279 694.774, 354.443 691.338, 354.650 654.250 L 354.874 614 341.387 614 C 323.516 614, 320.867 612.716, 321.100 604.168 C 321.286 597.314, 322.306 596.037, 337.474 583.670 C 350.253 573.251, 352.622 570.879, 353.646 567.481 C 354.996 563.003, 355.568 477.100, 354.250 476.868 C 353.837 476.795, 346.541 476.457, 338.035 476.118 L 322.569 475.500 321.646 472.270 C 321.090 470.325, 321.076 465.371, 321.611 459.814 L 322.500 450.587 338.750 444.045 L 355 437.504 355 386.443 C 355 347.133, 354.712 335.006, 353.750 333.747 C 352.721 332.402, 350.049 332.058, 338.659 331.806 C 321.848 331.434, 321 330.888, 321 320.415 C 321 311.917, 321.977 311.440, 340.825 310.725 C 348.704 310.427, 355.244 310.029, 355.358 309.841 C 355.906 308.936, 354.145 207.685, 353.485 202.189 L 352.728 195.877 345.370 190.436 C 329.426 178.645, 318.531 172.362, 317.307 174.254 M 849 180.577 C 841.575 181.319, 823.545 183.500, 808.933 185.425 C 794.322 187.350, 775.118 189.704, 766.259 190.657 L 750.151 192.389 748.826 200.944 C 747.907 206.874, 747.515 220.091, 747.549 244 C 747.607 284.706, 748.393 297.691, 750.840 298.411 C 754.945 299.620, 884.903 297.498, 886.200 296.201 C 888.295 294.107, 889.472 184.369, 887.432 181.256 C 886.029 179.115, 885.357 179.006, 874.227 179.114 C 867.777 179.177, 856.425 179.835, 849 180.577 M 495.822 198.750 L 361.143 199.007 360.513 204.254 C 360.167 207.139, 360.247 231.474, 360.692 258.331 C 361.472 305.487, 361.569 307.215, 363.500 308.697 C 365.275 310.058, 374.512 310.162, 445.500 309.616 C 489.500 309.278, 555.451 309.001, 592.059 309.001 C 643.751 309, 658.989 308.721, 660.281 307.750 C 662.701 305.932, 663.398 200.499, 661 198.980 C 660.175 198.458, 652.975 198.135, 645 198.262 C 637.025 198.389, 569.895 198.608, 495.822 198.750 M 761.828 305.749 L 728.156 306.026 727.551 312.263 C 726.728 320.745, 728.309 348.709, 729.690 350.090 C 731.713 352.113, 743.146 352.877, 789 354.050 C 856.310 355.772, 880.791 354.640, 885.858 349.570 C 887.604 347.823, 888.405 310.703, 886.781 306.750 C 886.018 304.891, 875.992 304.810, 761.828 305.749 M 129.389 315.980 C 125.949 317.370, 125.912 318.620, 128.198 355.824 C 130.645 395.627, 131.041 466.039, 129.176 529.500 C 128.073 567.043, 127.896 566.069, 135.834 566.178 C 148.390 566.352, 154.363 552.052, 158.465 512 C 166.536 433.183, 160.312 339.922, 145.744 321.401 C 141.988 316.626, 134.188 314.041, 129.389 315.980 M 468.500 315.679 C 428.319 315.961, 337.641 317.926, 331.938 318.638 C 327.638 319.175, 327.400 319.365, 327.780 321.955 L 328.183 324.703 340.249 325.351 C 346.885 325.708, 418.506 326.003, 499.407 326.006 C 677.037 326.014, 691 325.533, 691 319.412 C 691 318.710, 690.212 317.897, 689.250 317.606 C 681.429 315.246, 614.136 314.658, 468.500 315.679 M 135.344 338.750 C 135.701 347.962, 136.656 366.075, 137.468 379 C 139.614 413.183, 139.507 431.038, 136.506 539.829 C 135.979 558.934, 136.053 560.137, 137.723 559.829 C 151.729 557.239, 159.949 429.494, 150.388 363 C 146.967 339.202, 140.684 322, 135.413 322 C 135.018 322, 134.987 329.538, 135.344 338.750 M 508 332.065 C 430.725 332.424, 366.304 333.051, 364.842 333.458 C 362.218 334.189, 362.176 334.343, 361.454 345.849 C 361.051 352.257, 360.952 374.789, 361.233 395.920 C 361.707 431.574, 361.875 434.435, 363.563 435.670 C 365.669 437.209, 646.935 437.602, 654.830 436.076 C 657.212 435.616, 659.687 434.713, 660.330 434.071 C 661.593 432.809, 662.707 342.582, 661.537 336.346 C 660.529 330.971, 672.369 331.302, 508 332.065 M 724.033 426.892 L 723.939 497.878 727.213 496.939 C 729.014 496.423, 732.627 496, 735.243 496 L 740 496 740.188 430.500 C 740.291 394.475, 740.403 363.766, 740.438 362.258 C 740.496 359.683, 740.134 359.449, 734.500 358.424 C 731.200 357.823, 727.516 357.011, 726.314 356.619 L 724.128 355.906 724.033 426.892 M 748.862 362.106 C 747.298 364.856, 746.290 453.070, 747.529 478.859 C 748.425 497.504, 747.449 496.531, 766.115 497.399 C 808.464 499.368, 823.556 500.185, 844.123 501.621 C 865.486 503.114, 885.100 503.239, 886.443 501.892 C 887.149 501.184, 887.224 362.172, 886.519 361.031 C 886.259 360.610, 883.673 360.712, 880.773 361.258 C 875.260 362.297, 779.425 361.583, 760.362 360.361 C 750.404 359.723, 750.201 359.754, 748.862 362.106 M 478.500 442.992 L 354.500 443.500 343.610 448.500 L 332.721 453.500 352.110 454.117 C 376.999 454.909, 590.215 454.902, 646.500 454.107 C 694.912 453.424, 692.157 454.139, 674.286 446.889 C 663.313 442.437, 658.924 441.980, 629.614 442.242 C 614.701 442.375, 546.700 442.713, 478.500 442.992 M 328 462.091 C 328 463.004, 328.281 465.154, 328.624 466.870 L 329.248 469.989 510.124 470.245 L 691 470.500 691 465.485 L 691 460.469 509.500 460.451 C 341.103 460.434, 328 460.552, 328 462.091 M 368.540 476.918 C 363.260 477.434, 362.501 477.785, 361.890 480 C 361.510 481.375, 361.155 501.255, 361.100 524.178 L 361 565.856 366.315 566.520 C 369.239 566.885, 436.738 567.030, 516.314 566.842 L 660.997 566.500 660.999 522.450 C 661 489.521, 660.697 478.097, 659.800 477.200 C 658.542 475.942, 381.285 475.674, 368.540 476.918 M 732.196 503.713 C 728.997 504.324, 728.370 506.680, 727.593 521 C 726.895 533.884, 727.931 543.359, 730.297 545.726 C 730.990 546.419, 734.020 547.429, 737.029 547.971 C 750.036 550.313, 828.740 558.653, 847.502 559.678 C 858.441 560.276, 880.084 558.679, 884.669 556.936 L 887 556.050 887 532.907 L 887 509.765 879.750 510.425 C 875.656 510.798, 863.793 510.412, 852.500 509.539 C 823.619 507.308, 788.978 505.196, 762.014 504.022 C 737.930 502.974, 736.157 502.956, 732.196 503.713 M 723.779 596.485 C 723.933 621.243, 724.383 651.817, 724.779 664.426 L 725.500 687.352 731 688.634 C 734.025 689.339, 737.288 689.934, 738.250 689.958 C 739.900 689.998, 740 686.165, 740 623.117 L 740 556.233 737.750 555.630 C 736.513 555.299, 734.358 555.021, 732.961 555.014 C 731.565 555.006, 728.865 554.206, 726.961 553.235 L 723.500 551.470 723.779 596.485 M 747.707 557.702 C 746.948 558.987, 745.714 687.522, 746.438 689.804 C 747.256 692.381, 744.670 691.849, 808.500 702.579 C 864.855 712.053, 875.203 713.013, 882.512 709.446 L 886.500 707.500 886.500 636.500 L 886.500 565.500 883 565.743 C 859.171 567.399, 842.651 567.102, 821.500 564.638 C 809.400 563.228, 789.825 561.157, 778 560.035 C 766.175 558.913, 754.627 557.750, 752.339 557.450 C 750.050 557.150, 747.965 557.263, 747.707 557.702 M 474.500 572.962 L 361.500 573.500 357.500 575.857 C 352.906 578.564, 335 592.037, 335 592.787 C 335 593.062, 414.649 593.110, 511.999 592.893 C 609.348 592.677, 688.996 592.275, 688.995 592 C 688.993 591.725, 682.655 587.225, 674.910 582 L 660.828 572.500 624.164 572.462 C 603.999 572.441, 536.650 572.666, 474.500 572.962 M 446.366 598.754 L 329.231 599.008 328.681 601.111 C 328.379 602.268, 328.540 604.291, 329.041 605.607 L 329.950 608 509.820 608 C 682.805 608, 689.753 607.930, 691.345 606.171 C 692.255 605.165, 693 602.909, 693 601.158 L 693 597.973 628.250 598.236 C 592.638 598.381, 510.790 598.614, 446.366 598.754 M 503.286 613.925 C 380.688 614.431, 363.890 614.681, 362.554 616.017 C 360.827 617.744, 360.461 629.260, 360.800 671.154 L 361 695.808 371.250 696.436 C 385.946 697.336, 658.669 695.665, 659.667 694.668 C 660.330 694.007, 662.095 615.221, 661.469 614.233 C 660.979 613.461, 630.134 613.401, 503.286 613.925 M 726.035 697.934 C 725.416 699.092, 725 708.320, 725 720.915 C 725 741.921, 725.004 741.963, 727.250 742.482 C 737.744 744.907, 747.223 746.814, 779 752.896 C 844.300 765.395, 844.541 765.431, 863 765.364 C 872.075 765.331, 881.221 764.895, 883.324 764.394 L 887.147 763.484 887.039 741.090 C 886.979 728.773, 886.723 718.361, 886.471 717.953 C 886.218 717.544, 884.097 717.655, 881.756 718.200 C 874.466 719.896, 855.833 718.441, 835 714.551 C 824.275 712.548, 801.100 708.462, 783.500 705.470 C 765.900 702.479, 746.776 699.124, 741.002 698.016 C 728.073 695.533, 727.322 695.529, 726.035 697.934 M 425.500 702.976 C 376.759 703.357, 357.941 703.821, 356.450 704.678 C 352.123 707.165, 319 743.157, 319 745.372 C 319 746.395, 579.002 746.077, 635.500 744.985 C 679.738 744.130, 701.271 743.062, 702.679 741.654 C 702.852 741.481, 699.940 738.225, 696.207 734.420 C 692.474 730.614, 684.332 722.114, 678.115 715.530 L 666.811 703.561 654.656 702.862 C 641.357 702.097, 530.909 702.152, 425.500 702.976 M 291.227 831 C 291.693 890.185, 291.816 891.749, 296.202 894.122 C 300.129 896.246, 408.208 897.170, 571.972 896.480 C 735.633 895.790, 728.893 896.041, 730.981 890.550 C 731.673 888.730, 730.794 781.924, 730.024 774.263 C 730.011 774.133, 631.176 774.133, 510.391 774.263 L 290.783 774.500 291.227 831 M 307.394 904.416 C 307.095 905.194, 306.997 907.107, 307.175 908.666 L 307.500 911.500 320.761 911.779 C 336.121 912.102, 338 911.523, 338 906.465 L 338 903 322.969 903 C 310.929 903, 307.829 903.282, 307.394 904.416 M 684.750 903.728 C 680.624 904.160, 679.863 906.061, 682.418 909.559 C 683.714 911.334, 685.144 911.500, 699.168 911.500 L 714.500 911.500 714.807 907.250 L 715.115 903 701.807 903.168 C 694.488 903.261, 686.813 903.513, 684.750 903.728" stroke="none" fill="#1a1a1a" fill-rule="evenodd"/>
</svg>