<svg xmlns="http://www.w3.org/2000/svg" width="1024" height="1024" viewBox="0 0 1024 1024" version="1.1">
	<path d="M 531.885 245.448 C 531.638 245.695, 514.576 246.163, 493.968 246.489 C 473.361 246.815, 450.425 247.509, 443 248.033 C 435.575 248.556, 424.100 249.204, 417.500 249.471 C 389.949 250.589, 358.910 251.987, 350.500 252.488 C 345.550 252.783, 333.850 253.228, 324.500 253.477 C 301.884 254.080, 259.994 255.853, 242 256.971 C 234.025 257.466, 221.746 257.920, 214.714 257.981 C 207.682 258.041, 201.382 258.274, 200.714 258.498 C 200.046 258.722, 187.800 259.411, 173.500 260.029 C 143.772 261.314, 139.822 261.875, 131.364 266.012 C 124.890 269.178, 121.235 273.064, 117.976 280.244 C 115.336 286.059, 115.437 296.805, 118.547 341.500 C 119.924 361.300, 121.712 387.175, 122.520 399 C 123.328 410.825, 124.657 428.600, 125.473 438.500 C 126.289 448.400, 127.855 468.875, 128.953 484 C 131.914 524.793, 133.174 541.152, 133.614 544.500 C 133.830 546.150, 135.343 560.100, 136.975 575.500 C 140.657 610.232, 141.493 613.416, 149.427 622.913 L 152.998 627.187 152.357 639.855 C 151.465 657.485, 152.953 660.656, 167.820 672.821 C 173.654 677.594, 185.419 687.576, 193.964 695.002 C 222.494 719.796, 236.417 731.602, 246.500 739.548 C 252 743.882, 262.575 752.409, 270 758.496 C 283.113 769.246, 311.781 790.522, 327 800.800 C 342.124 811.013, 351.289 811.781, 383 805.488 C 390.425 804.014, 401.900 801.759, 408.500 800.476 C 415.100 799.193, 433.775 795.211, 450 791.628 C 489.922 782.811, 508.362 779.166, 526.500 776.505 C 528.700 776.183, 534.775 775.037, 540 773.959 C 545.225 772.881, 558.500 770.175, 569.500 767.945 C 580.500 765.715, 595.800 762.548, 603.500 760.909 C 611.200 759.269, 623.125 756.794, 630 755.408 C 651.128 751.149, 698.113 741.440, 716.473 737.539 C 717.038 737.419, 719.300 736.977, 721.500 736.556 C 818.187 718.073, 818.400 717.976, 821.199 691.209 C 823.606 668.184, 827.303 670.980, 731.500 623.379 C 694.650 605.070, 660.225 587.542, 655 584.428 C 640.380 575.715, 607.404 558.908, 601.122 556.968 L 595.500 555.231 594.824 545.866 C 594.452 540.715, 593.660 528.850, 593.065 519.500 C 592.470 510.150, 591.532 495.975, 590.980 488 C 590.027 474.234, 589.252 461.734, 587.012 424 C 585.945 406.037, 585.658 402.143, 583.469 376 C 581.355 350.736, 581.046 346.569, 580.508 336 C 577.351 273.929, 575.505 260.287, 569.284 253.019 C 563.368 246.107, 560.045 245, 545.207 245 C 538.126 245, 532.132 245.202, 531.885 245.448 M 515.500 252.082 C 455.810 253.930, 423.346 255.102, 407 255.998 C 365.165 258.292, 346.750 259.139, 319.500 260.022 C 303.550 260.540, 280.375 261.414, 268 261.965 C 255.625 262.515, 229.525 263.664, 210 264.516 C 147.745 267.235, 146.059 267.430, 139.146 272.703 C 132.186 278.011, 130.555 288.258, 132.970 311.500 C 133.484 316.450, 134.156 325.225, 134.463 331 C 134.770 336.775, 135.246 343.975, 135.520 347 C 135.794 350.025, 136.469 361.275, 137.020 372 C 137.571 382.725, 138.446 396.675, 138.966 403 C 139.485 409.325, 140.156 418.550, 140.458 423.500 C 140.759 428.450, 141.448 436.550, 141.988 441.500 C 142.528 446.450, 143.668 458.150, 144.521 467.500 C 145.374 476.850, 146.270 486.525, 146.513 489 C 146.756 491.475, 147.663 502.050, 148.529 512.500 C 149.394 522.950, 150.994 539.600, 152.085 549.500 C 153.175 559.400, 154.712 576.275, 155.499 587 C 156.286 597.725, 157.433 608.245, 158.047 610.378 C 159.301 614.728, 163.042 619, 165.597 619 C 168.286 619, 219.957 611.095, 251 605.935 C 260.625 604.335, 271.650 602.579, 275.500 602.033 C 279.350 601.487, 293.975 599.258, 308 597.080 C 322.025 594.902, 335.750 592.818, 338.500 592.449 C 341.250 592.080, 344.400 591.592, 345.500 591.364 C 346.600 591.136, 350.425 590.553, 354 590.068 C 357.575 589.583, 369.500 587.812, 380.500 586.132 C 391.500 584.453, 410.175 581.730, 422 580.081 C 433.825 578.433, 455.650 575.285, 470.500 573.085 C 485.350 570.886, 506.950 567.728, 518.500 566.069 C 530.050 564.410, 544 562.377, 549.500 561.552 C 555 560.728, 564.675 559.327, 571 558.440 C 590.086 555.764, 589.950 555.916, 588.216 539.074 C 587.618 533.258, 587.093 525.800, 587.051 522.500 C 586.975 516.483, 586.854 514.719, 584.997 492.500 C 584.445 485.900, 583.538 471.275, 582.981 460 C 581.731 434.710, 581.369 428.526, 580.581 419 C 580.240 414.875, 579.523 405.875, 578.988 399 C 578.453 392.125, 577.337 378.175, 576.507 368 C 575.677 357.825, 574.081 334.200, 572.960 315.500 C 569.907 264.575, 568.554 258.322, 559.500 253.266 C 555.004 250.756, 556.797 250.804, 515.500 252.082 M 523.500 276.084 C 519.100 276.461, 507.175 277.047, 497 277.385 C 486.825 277.723, 469.500 278.441, 458.500 278.982 C 447.500 279.523, 423.200 280.451, 404.500 281.045 C 354.454 282.635, 346.369 282.998, 304.500 285.534 C 291.300 286.334, 268.575 287.435, 254 287.981 C 147.520 291.973, 157.456 289.236, 158.458 314.299 C 159.196 332.734, 160.847 363.295, 161.468 370 C 161.697 372.475, 162.360 381.250, 162.942 389.500 C 163.524 397.750, 164.448 409.900, 164.996 416.500 C 165.545 423.100, 166.466 435.025, 167.043 443 C 167.620 450.975, 168.740 464.025, 169.532 472 C 170.324 479.975, 171.661 495.050, 172.504 505.500 C 173.347 515.950, 174.198 526.075, 174.394 528 C 174.875 532.708, 176.091 548.311, 176.460 554.500 C 178.202 583.702, 180.196 587.709, 191.717 585.155 C 200.431 583.223, 237.592 577.932, 291.500 570.947 C 295.900 570.377, 315.475 567.721, 335 565.044 C 354.525 562.368, 372.975 559.884, 376 559.526 C 379.025 559.167, 394.775 557.091, 411 554.911 C 427.225 552.732, 449.050 549.815, 459.500 548.429 C 538.538 537.949, 561.954 534.046, 565.185 530.815 C 567.787 528.213, 567.686 524.488, 563.531 469.500 C 563.240 465.650, 562.777 458.450, 562.502 453.500 C 562.228 448.550, 561.323 433.925, 560.493 421 C 559.663 408.075, 557.880 379.500, 556.532 357.500 C 553.423 306.775, 552.014 287.306, 551.145 283.056 C 549.689 275.934, 543.484 274.369, 523.500 276.084 M 124.406 281.207 C 122.831 284.701, 122.502 287.785, 122.511 298.968 C 122.521 310.430, 125.923 365.577, 127.510 380 C 127.782 382.475, 128.700 395.525, 129.548 409 C 130.397 422.475, 131.961 442.950, 133.024 454.500 C 134.087 466.050, 135.655 487.145, 136.509 501.378 C 138.160 528.897, 145.212 598.985, 147.074 606.381 C 147.686 608.811, 149.469 612.307, 151.037 614.150 L 153.887 617.500 152.404 612.500 C 151.588 609.750, 150.459 601.425, 149.895 594 C 149.330 586.575, 147.792 570.150, 146.476 557.500 C 145.160 544.850, 143.601 528.875, 143.010 522 C 142.420 515.125, 141.521 505, 141.012 499.500 C 140.503 494, 139.808 486.125, 139.468 482 C 139.128 477.875, 138.670 472.925, 138.451 471 C 138.231 469.075, 137.564 463.225, 136.968 458 C 135.845 448.147, 134.371 427.411, 131.030 374.500 C 128.382 332.566, 128.041 327.375, 127.515 321 C 127.266 317.975, 126.778 311, 126.431 305.500 C 126.084 300, 125.598 295.169, 125.350 294.765 C 125.103 294.361, 125.401 290.376, 126.012 285.910 C 127.317 276.383, 127 275.456, 124.406 281.207 M 529.917 282.403 C 529.688 282.624, 521.400 283.090, 511.500 283.438 C 428.842 286.342, 356.134 289.058, 349.500 289.489 C 345.100 289.775, 332.950 290.458, 322.500 291.006 C 312.050 291.554, 299.900 292.224, 295.500 292.495 C 282.842 293.274, 249.855 294.877, 234 295.483 C 178.020 297.624, 168.668 298.056, 166.858 298.586 C 164.667 299.227, 164.025 302.112, 164.566 308.884 C 164.812 311.973, 165.477 323.275, 166.042 334 C 168.417 379.104, 169.010 389.028, 169.924 399 C 171.229 413.244, 171.735 419.274, 173.530 442 C 174.377 452.725, 175.726 469.150, 176.527 478.500 C 177.327 487.850, 179.127 509.675, 180.527 527 C 184.301 573.709, 184.648 577.048, 185.852 578.252 C 186.658 579.058, 194.329 578.226, 214.228 575.177 C 238.268 571.493, 256.841 568.838, 268 567.493 C 271.455 567.076, 298.165 563.567, 321.500 560.463 C 328.100 559.586, 335.075 558.671, 337 558.431 C 338.925 558.192, 345.225 557.321, 351 556.496 C 361.916 554.937, 395.528 550.437, 402.500 549.601 C 406.968 549.066, 419.379 547.398, 425.500 546.511 C 427.700 546.192, 432.650 545.494, 436.500 544.960 C 440.350 544.427, 453.175 542.636, 465 540.982 C 476.825 539.327, 489.875 537.523, 494 536.973 C 535.804 531.398, 553.248 528.789, 558.251 527.363 C 561.651 526.395, 562.222 523.445, 561.099 512.667 C 560.517 507.075, 559.353 492.825, 558.512 481 C 557.672 469.175, 556.784 457.475, 556.540 455 C 556.295 452.525, 555.621 443.525, 555.043 435 C 554.465 426.475, 553.773 416.575, 553.505 413 C 553.238 409.425, 552.580 398.400, 552.044 388.500 C 551.508 378.600, 550.401 361.275, 549.584 350 C 548.767 338.725, 547.816 322.975, 547.471 315 C 546.300 287.934, 545.819 284.509, 542.984 282.992 C 541.206 282.040, 530.778 281.570, 529.917 282.403 M 584 562.607 C 582.625 562.855, 574.075 564.162, 565 565.510 C 555.925 566.859, 540.850 569.136, 531.500 570.570 C 522.150 572.005, 511.575 573.598, 508 574.111 C 504.425 574.624, 500.825 575.233, 500 575.465 C 499.175 575.696, 496.025 576.166, 493 576.510 C 489.975 576.853, 476.925 578.653, 464 580.508 C 451.075 582.363, 433.975 584.792, 426 585.905 C 401.456 589.329, 369.930 593.987, 361 595.510 C 356.325 596.306, 341.475 598.524, 328 600.439 C 283.028 606.827, 242.255 613.208, 235 614.992 C 233.075 615.465, 229.250 616.138, 226.500 616.487 C 223.750 616.836, 217 617.768, 211.500 618.557 C 164.134 625.358, 165.838 624.961, 167.855 628.729 C 169.531 631.861, 185.894 647.001, 208.995 666.794 C 220.823 676.928, 231.625 686.197, 233 687.392 C 237.162 691.007, 263.312 711.729, 284 727.806 C 294.725 736.140, 309.800 747.903, 317.500 753.946 C 339.153 770.939, 345.067 773.435, 360.008 771.881 C 372.224 770.611, 375.934 770.107, 381 769.030 C 383.475 768.503, 392.925 766.662, 402 764.938 C 411.075 763.214, 445.275 756.488, 478 749.991 C 510.725 743.494, 539.231 737.909, 541.346 737.580 C 543.462 737.250, 547.062 736.557, 549.346 736.041 C 554.279 734.925, 584.754 728.997, 601 725.994 C 607.325 724.824, 621.275 722.106, 632 719.953 C 642.725 717.800, 664.325 713.584, 680 710.583 C 695.675 707.582, 717.050 703.490, 727.500 701.489 C 779.077 691.616, 814 681.593, 814 676.664 C 814 672.247, 807.265 668.475, 731.500 630.458 C 694.100 611.691, 658.550 593.510, 652.500 590.055 C 646.450 586.600, 632.324 579.027, 621.109 573.227 C 601.401 563.035, 600.479 562.673, 593.609 562.419 C 589.699 562.275, 585.375 562.360, 584 562.607 M 556.500 579.111 C 542.865 581.711, 516.852 585.776, 470.500 592.551 C 461.150 593.917, 449.450 595.692, 444.500 596.494 C 439.550 597.296, 430.100 598.643, 423.500 599.486 C 416.900 600.330, 405.875 601.910, 399 602.999 C 392.125 604.087, 377.275 606.336, 366 607.997 C 354.725 609.658, 338.525 612.140, 330 613.513 C 321.475 614.886, 305.275 617.393, 294 619.084 C 282.725 620.775, 263.620 623.672, 251.545 625.522 C 239.470 627.371, 226.645 629.191, 223.045 629.566 C 210.984 630.821, 210.248 632.768, 219.250 639.601 C 222.688 642.211, 231.350 649.536, 238.500 655.879 C 251.512 667.423, 254.168 669.845, 274.287 688.500 C 290.714 703.732, 295.286 705.617, 308.294 702.524 C 311.708 701.713, 322.600 699.657, 332.500 697.955 C 342.400 696.253, 362.425 692.429, 377 689.456 C 409.529 682.822, 450.838 675.113, 492.500 667.903 C 501.850 666.285, 510.055 664.762, 510.733 664.519 C 511.411 664.275, 517.711 663.148, 524.733 662.014 C 531.755 660.881, 545.600 658.405, 555.500 656.514 C 573.268 653.120, 587.176 650.580, 594 649.482 C 595.925 649.172, 605.600 647.364, 615.500 645.464 C 625.400 643.565, 643.798 640.244, 656.384 638.085 C 670.595 635.648, 679.826 633.603, 680.737 632.691 C 683.054 630.374, 681.414 627.599, 676.245 625.091 C 673.635 623.825, 664.300 618.619, 655.500 613.522 C 636.234 602.362, 592.946 579.598, 587.008 577.503 C 581.084 575.413, 573.907 575.791, 556.500 579.111 M 561.779 583.450 C 542.619 586.935, 542.244 587.413, 553.177 594.408 C 561.357 599.642, 563.800 599.963, 576.662 597.497 C 580.973 596.671, 586.467 595.726, 588.872 595.399 C 595.169 594.540, 601.291 592.627, 601.704 591.388 C 602.231 589.807, 583.833 581.821, 578.819 581.453 C 576.443 581.279, 568.775 582.177, 561.779 583.450 M 521.500 589.914 C 519.300 590.352, 512.871 591.300, 507.213 592.022 C 492.303 593.923, 492.079 594.378, 502.523 601.544 C 512.916 608.675, 515.653 608.887, 537.500 604.256 C 552.865 600.999, 553.210 600.462, 544.047 594.070 C 537.085 589.213, 530.822 588.059, 521.500 589.914 M 462 598.498 C 454.025 599.780, 447.387 600.867, 447.250 600.914 C 444.498 601.856, 455.408 611.436, 462.950 614.701 C 468.203 616.975, 502 611.253, 502 608.090 C 502 607.628, 498.545 604.861, 494.323 601.942 C 484.905 595.432, 482.603 595.187, 462 598.498 M 594 599.202 C 588.225 600.276, 581.138 601.602, 578.250 602.149 C 571.054 603.510, 571.491 605.059, 580.750 610.996 C 590.527 617.265, 592.865 617.685, 605.899 615.509 C 611.730 614.535, 620.261 613.164, 624.857 612.462 C 638.674 610.352, 638.301 608.645, 622.461 601.502 C 611.119 596.387, 609.731 596.275, 594 599.202 M 426 604.045 C 424.075 604.506, 418.399 605.408, 413.387 606.048 C 400.955 607.636, 400.466 608.102, 406 613.079 C 412.530 618.952, 419.022 623, 421.910 623 C 423.295 623, 430.668 621.818, 438.294 620.374 C 456.688 616.891, 456.841 616.414, 442.595 606.931 C 436.416 602.818, 433.342 602.283, 426 604.045 M 554.928 605.393 C 554.693 605.622, 552.925 606.061, 551 606.369 C 532.564 609.316, 523 611.715, 523 613.394 C 523 614.743, 531.971 621.438, 537.700 624.365 C 541.973 626.548, 544.887 626.443, 563.042 623.457 C 585.730 619.725, 585.937 619.552, 575.250 613.244 C 564.334 606.802, 556.566 603.801, 554.928 605.393 M 369.280 612.351 C 352.837 615.024, 352.410 615.399, 359.208 621.204 C 372.228 632.324, 370.934 632.068, 393.842 628.061 C 412.302 624.831, 412.206 624.983, 401.342 616.195 C 392.288 608.871, 391.365 608.760, 369.280 612.351 M 488.262 616.950 C 479.881 618.431, 472.698 619.968, 472.301 620.366 C 471.454 621.212, 474.870 624.153, 484.330 630.720 C 492.342 636.283, 492.948 636.335, 511.170 633.012 C 525.683 630.366, 531.237 628.873, 531.678 627.500 C 531.855 626.950, 527.613 623.688, 522.251 620.250 C 510.739 612.869, 511.139 612.907, 488.262 616.950 M 623.347 617.565 C 606.536 620.512, 602 621.755, 602 623.417 C 602 624.154, 606.077 627.511, 611.060 630.878 C 619.596 636.646, 620.449 636.996, 625.810 636.931 C 634.063 636.832, 669.262 630.734, 669.729 629.323 C 670.162 628.013, 654.672 618.505, 648.624 616.369 C 643.554 614.578, 639.210 614.784, 623.347 617.565 M 325.060 619.442 C 318.218 620.651, 312.460 622.119, 312.265 622.706 C 311.813 624.061, 326.712 636.890, 329.571 637.607 C 331.714 638.145, 360.672 633.662, 361.701 632.633 C 362.938 631.395, 360.702 628.787, 353.486 623.053 C 344.579 615.975, 344.643 615.983, 325.060 619.442 M 442.660 624.067 C 435.598 625.559, 429.369 627.231, 428.818 627.782 C 426.927 629.673, 443.700 643.012, 447.931 642.981 C 451.141 642.957, 477.876 638.399, 480.250 637.470 C 483.030 636.383, 482.417 635.495, 475.250 630.235 C 461.384 620.059, 461.517 620.084, 442.660 624.067 M 284.661 625.546 C 268.984 628.161, 267.981 628.443, 268.048 630.219 C 268.106 631.770, 281.914 643.158, 285.177 644.345 C 287.799 645.300, 316.804 640.596, 318.451 638.949 C 319.561 637.839, 307.494 626.302, 303.124 624.295 C 299.958 622.841, 301.503 622.737, 284.661 625.546 M 583.500 624.555 C 582.950 624.774, 575.772 626.083, 567.548 627.464 C 547.612 630.812, 547.520 630.950, 559.165 639.985 L 568.500 647.228 575.500 646.646 C 579.350 646.326, 586.100 645.365, 590.500 644.511 C 594.900 643.657, 601.129 642.448, 604.341 641.823 C 613.893 639.967, 613.268 638.103, 600.072 629.079 C 592.913 624.184, 587.887 622.812, 583.500 624.555 M 400.500 631.476 C 393.900 632.710, 386.363 634.036, 383.750 634.421 C 377.600 635.329, 377.698 636.768, 384.250 641.746 C 396.630 651.153, 397.612 651.393, 413.773 648.948 C 439.021 645.127, 439.892 644.465, 429.725 636.816 C 418.004 627.998, 418.559 628.099, 400.500 631.476 M 159.598 631.560 C 158.191 635.148, 157.755 647.451, 158.887 651.619 C 160.480 657.480, 162.291 659.446, 180.881 675.501 C 190.021 683.395, 205.375 696.681, 215 705.026 C 224.625 713.370, 238.340 724.766, 245.478 730.349 C 252.616 735.932, 264.997 745.900, 272.991 752.500 C 280.985 759.100, 290.626 766.750, 294.416 769.500 C 298.205 772.250, 308.100 779.552, 316.403 785.727 C 337.435 801.367, 339.157 802.216, 351.052 802.788 C 357.763 803.112, 363.627 802.723, 370.121 801.524 C 375.280 800.571, 380.625 799.607, 382 799.381 C 385.797 798.756, 427.671 790.092, 434.500 788.519 C 437.800 787.758, 446.125 785.950, 453 784.499 C 459.875 783.049, 471.125 780.575, 478 779.002 C 484.875 777.428, 495 775.385, 500.500 774.461 C 506 773.536, 511.382 772.612, 512.460 772.407 C 513.538 772.202, 516.238 771.773, 518.460 771.455 C 526.591 770.289, 538.787 768.015, 550.500 765.479 C 579.214 759.264, 682.033 738.200, 743 726.042 C 809.897 712.702, 812.521 711.533, 814.416 694.238 C 815.245 686.667, 814.355 685.977, 806.663 688.235 C 803.823 689.069, 795.197 691.595, 787.493 693.849 C 771.412 698.554, 740.899 705.660, 720.500 709.451 C 712.800 710.882, 696.150 714.049, 683.500 716.489 C 670.850 718.929, 659.375 721.125, 658 721.369 C 655.073 721.889, 618.104 729.065, 582.500 736.024 C 568.750 738.711, 548.950 742.489, 538.500 744.419 C 528.050 746.348, 509.375 749.978, 497 752.485 C 357.760 780.688, 349.734 781.826, 337.251 775.143 C 333.813 773.303, 325.668 767.681, 319.151 762.649 C 258.197 715.591, 235.675 697.689, 213.500 678.671 C 187.534 656.403, 174.303 644.427, 166.430 636.067 C 161.087 630.393, 160.268 629.853, 159.598 631.560 M 237 632.783 C 231.775 633.533, 227.096 634.541, 226.601 635.022 C 225.226 636.362, 228.306 640.349, 235.050 645.962 C 240.315 650.343, 241.681 651, 245.533 651 C 254.332 651, 274.117 647.208, 274.705 645.409 C 274.900 644.809, 271.567 641.301, 267.296 637.613 L 259.531 630.908 253.016 631.164 C 249.432 631.305, 242.225 632.033, 237 632.783 M 517.500 636.169 C 508.700 637.805, 501.050 639.602, 500.500 640.161 C 499.393 641.288, 506.312 647.943, 514 653.146 C 519.383 656.788, 524.324 656.699, 545.400 652.577 C 563.284 649.080, 563.340 648.988, 552.388 641 C 539.680 631.731, 540.644 631.865, 517.500 636.169 M 350.225 639.959 C 342.923 641.476, 336.623 643.053, 336.225 643.462 C 335.290 644.423, 347.498 655.487, 351.749 657.530 C 354.771 658.984, 356.017 658.911, 369.679 656.485 C 377.753 655.051, 385.208 653.424, 386.245 652.869 C 388.699 651.555, 387.981 650.718, 377.825 643.050 C 368.455 635.974, 369.074 636.044, 350.225 639.959 M 469.750 644.807 C 453.269 647.869, 452.947 648.388, 462.712 656.159 C 474.070 665.198, 474.771 665.332, 493.528 662.049 C 505.089 660.026, 510 658.593, 510 657.243 C 510 656.429, 496.390 645.533, 492.567 643.285 C 489.688 641.594, 485.570 641.868, 469.750 644.807 M 316 645.029 C 313.525 645.466, 309.925 646.101, 308 646.440 C 288.347 649.907, 288.550 649.453, 301.846 660.149 L 309.360 666.194 315.430 665.534 C 325.952 664.390, 342.048 661.352, 343.085 660.315 C 344.269 659.131, 330.740 646.612, 326.561 645.023 C 323.565 643.884, 322.487 643.885, 316 645.029 M 420.904 652.453 C 404.251 655.412, 402.975 656.383, 409.250 661.319 C 411.038 662.726, 414.750 665.929, 417.500 668.437 C 420.250 670.946, 423.597 673.294, 424.937 673.655 C 427.433 674.327, 463.067 668.622, 465.748 667.121 C 466.886 666.484, 465.450 664.907, 459.627 660.395 C 444.758 648.872, 443.041 648.520, 420.904 652.453 M 265.500 653.096 C 251.202 655.355, 251 655.420, 251 657.809 C 251 659.605, 264.649 671.923, 268.059 673.205 C 270.308 674.050, 298.290 669.149, 299.149 667.759 C 300.204 666.052, 299.101 664.589, 292.463 658.899 C 286.643 653.908, 281.362 650.898, 278.782 651.101 C 278.077 651.156, 272.100 652.054, 265.500 653.096 M 376.952 659.889 C 363.345 662.644, 361 663.392, 361 664.973 C 361 665.444, 365.072 669.226, 370.048 673.378 C 380.516 682.112, 382.958 682.896, 393.985 681.060 C 415.032 677.555, 418.847 675.730, 413.776 671.590 C 412.368 670.441, 408.052 666.890, 404.185 663.700 C 395.492 656.528, 394.345 656.368, 376.952 659.889 M 569 661.466 C 562.675 662.775, 549.175 665.275, 539 667.022 C 528.825 668.768, 516.689 671.072, 512.031 672.141 C 502.724 674.276, 460.867 682.499, 454.500 683.443 C 437.844 685.911, 432.950 687.619, 431.138 691.597 C 428.860 696.596, 430.461 698.203, 461.691 722.266 C 480.941 737.098, 483.924 737.937, 503.642 734.063 C 550.830 724.792, 605.218 714.813, 638.305 709.355 C 647.016 707.917, 652.110 701.303, 648.367 696.289 C 646.222 693.417, 606.952 666.635, 598.500 662.280 C 591.530 658.689, 583.488 658.467, 569 661.466 M 335 667.439 C 319.260 670.456, 318 670.830, 318 672.476 C 318 673.267, 322.318 677.758, 327.595 682.457 C 338.661 692.309, 337.935 692.136, 354.699 688.943 C 368.777 686.262, 373 685.124, 373 684.014 C 373 682.921, 357.740 669.506, 353.500 666.871 C 349.900 664.635, 349.572 664.645, 335 667.439 M 564 668.550 C 554.375 670.418, 544.700 672.204, 542.500 672.520 C 540.300 672.836, 523.875 675.980, 506 679.506 C 488.125 683.033, 468.100 686.847, 461.500 687.981 C 448.169 690.273, 438.193 692.473, 437.362 693.304 C 436.136 694.531, 439.258 697.454, 454.855 709.681 C 484.218 732.699, 483.140 732.212, 497.866 729.112 C 513.062 725.914, 580.690 713.290, 623.747 705.614 C 638.679 702.952, 642 701.844, 642 699.527 C 642 697.604, 609.540 675.128, 598.690 669.539 C 587.985 664.024, 587.405 664.008, 564 668.550 M 287 675.558 C 280.125 676.848, 274.387 677.925, 274.250 677.952 C 271.592 678.467, 288.562 695.082, 293.815 697.107 C 298.123 698.768, 309.382 697.456, 325.474 693.417 C 329.750 692.344, 328.236 689.787, 318.166 681.075 C 307.217 671.603, 307.660 671.682, 287 675.558" stroke="none" fill="#1a1a1a" fill-rule="evenodd"/>
</svg>