<svg xmlns="http://www.w3.org/2000/svg" width="1024" height="1024" viewBox="0 0 1024 1024" version="1.1">
	<path d="M 486 183.554 C 451.156 191.033, 416.408 222.038, 396.406 263.500 C 386.647 283.728, 365.169 344.246, 358.940 369.066 C 353.049 392.535, 353.668 413.958, 360.972 439.500 C 368.075 464.336, 367.425 469.970, 355.245 489.121 C 341.809 510.247, 338.670 521.583, 342.339 535.726 L 343.678 540.888 331.962 547.521 C 311.718 558.983, 285.114 580.079, 260.500 604.187 L 245.500 618.879 248.199 621.616 L 250.898 624.353 229.969 645.696 C 185.979 690.555, 169.995 715.781, 165.854 746.877 C 161.502 779.567, 179.945 796.954, 219 796.981 C 245.368 796.999, 274.592 789.299, 327.176 768.477 C 338.852 763.854, 348.552 760.218, 348.732 760.398 C 348.912 760.578, 349.926 767.214, 350.986 775.144 C 353.500 793.958, 354.377 815.761, 353.172 829.500 C 352.410 838.197, 352.480 840.786, 353.506 841.867 C 356.621 845.145, 357.421 839.507, 357.460 814 C 357.491 793.208, 357.142 787.176, 355.153 774.145 C 353.865 765.700, 353.190 758.453, 353.655 758.041 C 354.854 756.978, 375.906 749, 377.512 749 C 378.245 749, 379.332 750.475, 379.926 752.277 C 381.607 757.370, 386.567 762.669, 391.370 764.503 C 394.464 765.685, 396.325 767.233, 397.795 769.849 C 404.313 781.446, 411.607 784.769, 426.745 783.039 C 436.938 781.874, 437.780 781.921, 442.853 783.931 C 450.534 786.975, 458.314 787.496, 465 785.417 C 468.167 784.431, 473.166 783.780, 476.786 783.881 C 486.417 784.151, 490.502 782.617, 497.226 776.203 C 503.101 770.599, 511.129 759.546, 512.445 755.250 C 513.199 752.791, 515 752.172, 515 754.372 C 515 756.649, 524.386 770.169, 529.608 775.412 C 536.317 782.148, 541.117 784.119, 550.224 783.876 C 554.825 783.753, 559.522 784.315, 563 785.405 C 569.637 787.484, 577.440 786.984, 585.180 783.982 C 590.197 782.037, 591.160 781.988, 602.086 783.128 C 613.388 784.307, 613.789 784.280, 618.441 782.028 C 622.611 780.010, 631.989 769.715, 632.004 767.140 C 632.006 766.788, 634.037 765.665, 636.517 764.645 C 641.516 762.590, 646.404 757.335, 648.101 752.195 C 649.049 749.323, 649.558 748.923, 651.610 749.438 C 655.544 750.426, 674.930 758.078, 675.392 758.826 C 675.627 759.206, 674.888 765.363, 673.750 772.509 C 671.286 787.977, 670.635 835.176, 672.815 840.331 C 674.311 843.869, 676.549 843.282, 676.355 839.402 C 674.910 810.398, 674.853 804.080, 675.924 791.882 C 677.193 777.421, 679.360 762.306, 680.300 761.367 C 680.611 761.056, 690.202 764.489, 701.613 768.997 C 754.950 790.065, 781.181 796.980, 807.808 796.994 C 847.495 797.015, 863.351 783.931, 861.722 752.506 C 861.049 739.527, 858.230 729.179, 851.649 715.537 C 841.196 693.864, 830.538 680.432, 790.193 638.088 L 776.886 624.121 779.443 622.446 C 783.013 620.106, 782.754 619.296, 776.249 612.443 C 756.211 591.335, 722.052 563.252, 701.058 550.628 C 695.866 547.505, 691.473 544.807, 691.298 544.631 C 691.122 544.456, 691.707 542.329, 692.596 539.906 C 693.591 537.198, 694.408 530.876, 694.718 523.500 C 695.544 503.876, 692.318 493.560, 676.703 465.887 C 663.281 442.100, 661.172 430.904, 664.409 400.621 C 668.786 359.679, 663.977 331.382, 644.504 283.500 C 624.285 233.786, 606.596 210.414, 578.448 196.222 C 567.799 190.853, 561.911 189.609, 546.500 189.470 C 534.292 189.360, 531.891 189.059, 527.744 187.123 C 517.446 182.313, 499.094 180.744, 486 183.554 M 488.500 187.477 C 455.586 193.575, 421.146 223.588, 401.158 263.591 C 392.007 281.905, 367.344 351.326, 362.466 372.500 C 357.223 395.261, 358.113 414.401, 365.604 440 C 372.323 462.956, 371.076 472.524, 358.866 491.710 C 347.178 510.076, 343.764 520.863, 345.931 532.582 C 346.514 535.741, 347.179 538.513, 347.408 538.741 C 347.637 538.970, 352.921 537.509, 359.150 535.496 C 379.795 528.822, 402.605 525.265, 428.624 524.663 C 440.987 524.377, 443.199 524.055, 448.044 521.837 C 460.936 515.935, 466.128 505.469, 467.603 482.411 L 468.237 472.500 464.935 470.585 C 459.923 467.678, 446.581 454.532, 441.104 447.105 C 433.573 436.891, 427.840 424.524, 424.094 410.410 C 423.134 406.791, 422.525 406.174, 418.815 405.063 C 413.323 403.417, 403.395 393.419, 399.771 385.885 C 390.032 365.636, 395.330 346.519, 410.690 346.489 L 416.232 346.478 417.939 340.961 C 425.314 317.126, 437.902 304.432, 479.189 279.198 C 498.274 267.533, 508.251 259.823, 521.776 246.287 C 529.077 238.979, 535.225 233, 535.438 233 C 535.651 233, 537.837 236.488, 540.295 240.750 C 547.476 253.199, 557.510 265.302, 576.154 284 C 594.453 302.352, 601.001 310.504, 605.963 321.107 C 608.825 327.224, 613 341.422, 613 345.040 C 613 346.471, 613.911 346.738, 618.422 346.630 C 628.943 346.378, 633.505 352.545, 633.490 367 C 633.473 384.356, 623.355 400.592, 609.861 404.916 C 606.454 406.007, 606.119 406.494, 604.594 412.564 C 599.349 433.445, 584.862 455.525, 567.786 468.665 L 562 473.117 562 480.970 C 562 497.641, 566.028 510.221, 573.452 516.739 C 580.465 522.896, 585.076 524.086, 605.825 525.095 C 635.652 526.545, 657.106 530.591, 676.520 538.428 C 681.459 540.421, 685.910 542.153, 686.411 542.276 C 688.637 542.823, 690.328 533.268, 690.354 520 C 690.387 503.544, 688.492 496.919, 678.489 478.500 C 667.744 458.717, 662.120 446.839, 660.517 440.540 C 658.578 432.920, 658.570 414.838, 660.500 397 C 663.994 364.698, 661.343 344.329, 648.865 307.590 C 632.663 259.885, 614.750 228.476, 594.120 211.599 C 577.459 197.967, 566.153 193.769, 546.136 193.781 C 534.305 193.788, 532.167 193.522, 527.504 191.459 C 516.063 186.400, 502.043 184.968, 488.500 187.477 M 513.502 205.409 C 509.096 211.185, 497.552 219.248, 479.053 229.469 C 457.264 241.507, 450.197 246.194, 440.957 254.735 C 426.239 268.339, 408.166 297, 414.305 297 C 415.227 297, 417.600 293.735, 420.135 288.976 C 432.957 264.912, 447.067 251.944, 480.500 233.495 C 488.200 229.247, 497.644 223.691, 501.488 221.150 C 509.202 216.050, 520.293 205.380, 519.708 203.622 C 518.910 201.227, 516.067 202.046, 513.502 205.409 M 533.584 203.864 C 533.254 204.398, 533.417 207.887, 533.945 211.619 C 534.474 215.351, 534.651 220.270, 534.338 222.551 C 533.896 225.772, 534.123 226.833, 535.353 227.305 C 537.772 228.234, 538.307 226.422, 538.218 217.603 C 538.108 206.702, 535.891 200.131, 533.584 203.864 M 509 235.865 C 500.918 244.370, 489.263 253.024, 473.579 262.167 C 454.569 273.248, 445.041 279.806, 437.626 286.912 C 430.044 294.178, 421 306.279, 421 309.157 C 421 312.850, 424.063 310.851, 428.029 304.571 C 430.262 301.035, 436.056 294.398, 440.904 289.821 C 449.385 281.815, 454.216 278.499, 476.888 265.127 C 496.133 253.776, 519.894 234.185, 518.714 230.642 C 517.827 227.975, 515.110 229.436, 509 235.865 M 554.026 231.750 C 554.041 232.816, 556.828 235.260, 561.150 238 C 570.679 244.041, 575.127 249.210, 589.548 271 C 608.248 299.258, 618.947 311.453, 622.191 308.209 C 623.165 307.235, 622.455 306.095, 618.790 302.739 C 612.023 296.544, 606.109 288.740, 592.466 268 C 577.939 245.915, 574.222 241.573, 564.215 235.004 C 556.049 229.643, 553.985 228.984, 554.026 231.750 M 529.406 245.013 C 519.392 257.132, 501.550 270.898, 476.009 286.212 C 441.294 307.026, 429.302 319.712, 421.470 343.908 C 418.542 352.951, 419.411 352.368, 411.747 350.431 C 399.776 347.405, 395.363 366.975, 404.027 384.672 C 408.555 393.920, 423.030 406.336, 421.496 399.655 C 420.195 393.991, 418.008 378.031, 418.004 374.177 C 418.001 370.597, 418.301 369.911, 419.750 370.189 C 421.097 370.448, 421.684 372.019, 422.298 377.013 C 427.987 423.283, 441.665 449.775, 469.676 468.776 C 496.208 486.773, 519.994 489.366, 545.706 477.061 C 578.767 461.240, 597.240 434.682, 604.516 392.507 C 610.499 357.830, 610.783 351.183, 606.908 336.388 C 602.378 319.093, 596.232 310.139, 573.013 287 C 554.574 268.624, 547.738 260.577, 539.718 247.803 L 534.271 239.126 529.406 245.013 M 459.734 323.024 C 452.134 324.944, 441 331.794, 441 334.551 C 441 336.678, 442.135 336.375, 448.491 332.548 C 458.301 326.640, 470.665 325.557, 482.340 329.581 C 486.868 331.142, 487.286 331.141, 488.840 329.563 C 490.388 327.992, 490.368 327.780, 488.546 326.430 C 483.998 323.058, 467.379 321.094, 459.734 323.024 M 547.009 323.543 C 540.688 325.315, 539.669 326.077, 540.187 328.644 C 540.633 330.848, 542.334 330.845, 550.460 328.627 C 561.646 325.573, 571.909 327.018, 581.285 332.965 C 586.666 336.379, 588 336.679, 588 334.479 C 588 332.562, 580.320 327.097, 574.176 324.642 C 567.778 322.087, 554.169 321.536, 547.009 323.543 M 400.947 329.462 C 378.028 353.043, 374.391 383.604, 388.028 438 C 395.095 466.186, 394.609 481.306, 385.925 503.556 C 381.436 515.058, 381.284 516, 383.927 516 C 385.858 516, 389.107 508.911, 393.323 495.500 C 398.726 478.311, 398.258 461.937, 391.593 435.038 C 378.834 383.539, 382.198 354.632, 403.476 332.940 C 407.226 329.118, 409.034 326.530, 408.651 325.533 C 407.712 323.087, 406.584 323.663, 400.947 329.462 M 630.453 326.075 C 630.117 326.619, 631.926 331.262, 634.473 336.393 C 645.785 359.187, 646.504 387.236, 636.858 429.500 C 632.964 446.566, 633.950 477.217, 638.345 475.707 C 638.998 475.482, 639.372 473.831, 639.206 471.905 C 637.752 455.072, 638.711 440.253, 642.338 423.500 C 650.667 385.031, 649.196 355.659, 637.848 333.830 C 633.987 326.403, 631.720 324.026, 630.453 326.075 M 467.736 347.250 C 462.157 351.487, 463.570 364.927, 469.830 367.163 C 471.711 367.834, 472.744 367.410, 475.197 364.957 C 482.392 357.762, 475.483 341.367, 467.736 347.250 M 552.989 349.250 C 548.816 356.094, 551.872 367, 557.962 367 C 564.687 367, 567.428 354.056, 561.949 348.175 C 558.927 344.931, 555.361 345.359, 552.989 349.250 M 617.014 350.902 C 614.591 351.566, 614.459 352.101, 611.818 371.920 C 610.327 383.104, 608.688 394.223, 608.175 396.628 C 607.602 399.315, 607.600 401, 608.171 401 C 612.106 401, 621.327 392.194, 625.081 384.849 C 634.084 367.240, 629.395 347.509, 617.014 350.902 M 502.177 397.644 C 502.694 400.273, 507.125 402.938, 512.096 403.609 C 517.237 404.303, 525.528 401.394, 526.635 398.508 C 527.625 395.928, 526.215 395.527, 522.454 397.321 C 518.174 399.361, 509.423 399.457, 506 397.500 C 502.706 395.617, 501.785 395.652, 502.177 397.644 M 615.594 417.847 C 612.305 423.169, 607.010 456.301, 607.019 471.500 C 607.031 490.504, 613.729 516.500, 618.614 516.500 C 620.991 516.500, 620.851 515.518, 616.974 505 C 609.277 484.123, 608.922 464.429, 615.712 435 C 617.171 428.675, 618.395 422.193, 618.432 420.595 C 618.499 417.720, 616.731 416.008, 615.594 417.847 M 476.373 420.471 C 473.842 427.067, 486.397 442.635, 497.921 447.189 C 507.249 450.875, 524.393 450.499, 533.003 446.418 C 540.766 442.739, 547.835 435.979, 551.400 428.825 C 556.333 418.925, 555.286 418.330, 535.163 419.604 C 518.723 420.645, 514.257 420.638, 493.278 419.539 C 478.194 418.749, 477.008 418.814, 476.373 420.471 M 413 423.113 C 413 424.356, 413.878 428.551, 414.951 432.436 C 418.919 446.804, 420.385 457.231, 420.372 471 C 420.357 486.973, 418.856 494.162, 412.830 507.133 C 409.544 514.204, 408.933 516.329, 409.909 517.288 C 414.546 521.846, 424.958 490.662, 424.987 472.128 C 425.013 455.713, 418.202 421.818, 414.750 421.178 C 413.504 420.947, 413 421.504, 413 423.113 M 481.152 424.603 C 481.427 426.068, 483.556 427.045, 490.504 428.894 C 510.690 434.265, 548.858 430.829, 548.985 423.629 C 548.993 423.135, 543.054 423.135, 535.250 423.629 C 518.171 424.711, 511.061 424.704, 494.148 423.588 C 481.334 422.742, 480.811 422.783, 481.152 424.603 M 488.421 435.919 C 495.117 442.776, 502.673 445.500, 515 445.500 C 527.071 445.500, 533.343 443.317, 540.404 436.656 C 545.374 431.968, 544.853 431.578, 536.397 433.654 C 527.135 435.929, 503.426 435.917, 493.185 433.632 C 489.161 432.734, 485.582 432, 485.232 432 C 484.881 432, 486.316 433.764, 488.421 435.919 M 471.640 485.318 C 469.947 509.406, 462.085 522.183, 445.940 527.087 L 439.013 529.191 442.256 533.723 C 452.547 548.103, 472.190 560.568, 492.647 565.700 C 503.366 568.390, 528.910 568.128, 539.644 565.219 C 559.984 559.706, 578.156 547.547, 588.808 532.325 L 591.029 529.150 585.295 527.483 C 566.477 522.013, 558.036 508.148, 558.008 482.667 C 558.003 478.908, 557.663 476.006, 557.250 476.217 C 536.741 486.718, 527.003 489.452, 512.549 488.770 C 501.404 488.245, 487.941 484.386, 478.265 478.944 C 475.386 477.325, 472.865 476, 472.663 476 C 472.461 476, 472 480.193, 471.640 485.318 M 406.500 530.097 C 366.292 534.272, 339.946 544.549, 308.544 568.310 C 290.604 581.885, 252 616.416, 252 618.889 C 252 619.246, 256.162 622.451, 261.250 626.011 C 277.541 637.413, 302.576 664.043, 310.746 678.662 L 313.269 683.176 320.385 682.551 C 330.255 681.683, 345.083 680.013, 347.574 679.488 C 349.392 679.104, 349.857 677.663, 351.354 667.795 C 353.096 656.305, 354.110 653.710, 356.087 655.687 C 356.870 656.470, 356.730 659.569, 355.587 666.756 C 354.714 672.247, 354 677.201, 354 677.765 C 354 678.385, 358.400 677.840, 365.102 676.391 C 374.973 674.256, 376.699 673.555, 380.658 670.070 C 395.691 656.837, 421.124 663.002, 433.998 683 C 435.592 685.475, 441.769 692.052, 447.726 697.615 C 453.683 703.178, 459.669 709.363, 461.029 711.359 C 463.408 714.853, 463.671 714.966, 468.091 714.386 C 473.167 713.721, 477.827 715.487, 480.295 719.010 C 481.613 720.892, 481.910 720.927, 484.605 719.522 C 491.471 715.942, 500.128 718.754, 501.503 725.012 C 501.864 726.655, 502.737 728, 503.445 728 C 508.265 728, 511.924 736.412, 509.067 740.926 C 508.425 741.941, 509.002 743.134, 511.074 745.069 L 513.982 747.786 516.827 745.180 C 519.595 742.643, 519.633 742.474, 518.228 738.898 C 516.302 733.996, 518.083 729.917, 522.750 728.543 C 525.024 727.874, 526.010 726.973, 526.032 725.543 C 526.128 719.337, 535.856 715.806, 542.868 719.432 C 545.475 720.780, 545.790 720.699, 548.293 718.047 C 551.325 714.835, 556.113 713.599, 560.570 714.877 C 563.510 715.720, 563.843 715.476, 569.396 708.421 C 572.571 704.389, 578.332 698.501, 582.200 695.337 C 586.495 691.823, 591 686.900, 593.773 682.691 C 607.357 662.071, 631.673 657.023, 648.737 671.281 C 652.156 674.136, 654.603 675.077, 663.486 676.951 C 669.344 678.186, 674.329 679.005, 674.563 678.771 C 674.797 678.536, 674.136 673.655, 673.094 667.922 C 671.588 659.633, 671.453 657.234, 672.436 656.200 C 674.517 654.010, 675.581 656.632, 677.471 668.609 L 679.224 679.718 688.862 680.850 C 694.163 681.473, 702.169 682.272, 706.654 682.627 L 714.808 683.272 716.367 680.257 C 723.407 666.644, 747.499 640.523, 765 627.530 C 770.775 623.242, 775.500 619.231, 775.500 618.617 C 775.500 615.961, 738.102 582.382, 719.478 568.316 C 684.884 542.188, 654.634 531.625, 608 529.389 L 595.500 528.789 593.227 532.882 C 590.049 538.607, 579.746 549.367, 572.476 554.555 C 541.881 576.386, 497.025 577.966, 463.583 558.390 C 454.350 552.985, 441.690 541.203, 437.500 534.114 L 434.500 529.040 424.500 529.153 C 419 529.215, 410.900 529.640, 406.500 530.097 M 503 592.500 C 462.303 601.729, 447.814 652.157, 477.423 681.517 C 488.784 692.782, 499.042 697.010, 514.960 696.988 C 538.103 696.956, 556.807 683.989, 564.573 662.594 C 578.804 623.390, 543.584 583.297, 503 592.500 M 506 596.091 C 468.473 602.547, 452.846 649.059, 478.778 677.116 C 506.471 707.081, 555.618 692.732, 563.095 652.500 C 569.107 620.143, 539.015 590.412, 506 596.091 M 232.831 648.779 C 202.406 680.753, 191.893 693.717, 182.165 711.261 C 169.994 733.211, 166.351 759.528, 173.538 773.581 C 182.093 790.310, 208.072 796.518, 244.091 790.443 C 264.533 786.995, 290.286 778.480, 340 758.731 C 357.325 751.849, 372.512 745.914, 373.750 745.542 C 376.745 744.641, 376.658 743.935, 371.929 730.804 C 367.144 717.517, 366.984 716.684, 369.142 716.236 C 370.891 715.873, 371.952 718.292, 379.951 740.895 C 387.180 761.322, 388.759 762.298, 413.820 761.829 C 434.578 761.440, 432.224 762.326, 451.779 747.554 C 466.072 736.757, 478 725.869, 478 723.619 C 478 721.802, 475.002 719.281, 471.928 718.514 C 468.510 717.662, 461.319 720.472, 450.879 726.741 C 433.718 737.047, 430.998 738.076, 424.126 736.865 C 418.634 735.898, 417.744 735.995, 414.664 737.899 C 408.187 741.901, 404.762 740.574, 391.190 728.802 C 381.768 720.629, 374.343 711.156, 375.334 708.572 C 376.212 706.284, 378.095 707.549, 382 713.049 C 385.441 717.895, 400.867 732.244, 405.259 734.684 C 408.680 736.585, 410.864 736.249, 413.486 733.421 C 418.971 727.502, 417.960 721.516, 409.938 712.429 C 404.043 705.752, 404 705.658, 404 699.474 C 404 695.483, 404.482 692.845, 405.342 692.131 C 407.414 690.412, 408 691.808, 408 698.458 C 408 704.432, 408.115 704.694, 412.621 709.042 C 418.694 714.901, 421.268 720.632, 420.834 727.326 L 420.500 732.483 425 733.111 C 430.173 733.833, 431.466 733.296, 448.716 723.265 C 458.836 717.380, 459.810 716.567, 458.679 714.952 C 456.330 711.599, 448.274 703.376, 442.004 697.931 C 438.563 694.944, 434.055 690.025, 431.986 687 C 418.686 667.558, 397.065 661.268, 383.768 672.973 C 379.663 676.587, 378.366 678.745, 374.596 688.240 C 373.504 690.989, 372.685 691.816, 371.504 691.363 C 369.691 690.668, 370.177 686.582, 372.646 681.750 C 373.419 680.237, 373.802 679, 373.497 679 C 373.192 679, 367.443 680.109, 360.721 681.464 C 344.619 684.711, 324.752 686.714, 296 687.990 C 244.617 690.270, 232.495 691.661, 220.500 696.651 C 212.972 699.784, 211.666 699.935, 211.211 697.729 C 210.938 696.407, 212.195 695.372, 216.173 693.644 C 229.489 687.858, 240.283 686.301, 278.747 684.619 C 294.832 683.916, 308.159 683.151, 308.362 682.920 C 309.461 681.666, 292.802 660.876, 282 650.021 C 270.349 638.312, 256.805 626.993, 254.500 627.039 C 253.950 627.050, 244.199 636.833, 232.831 648.779 M 766.392 631.818 C 750.839 643.985, 738.749 656.483, 725.879 673.698 C 718.518 683.544, 718.513 683.994, 725.750 684.022 C 737.008 684.064, 784.604 686.971, 790.678 687.987 C 803.342 690.105, 816 694.874, 816 697.526 C 816 699.407, 812.714 699.421, 809.105 697.554 C 800.153 692.925, 784.388 690.839, 744.500 689.008 C 701.227 687.021, 669.649 683.605, 655.807 679.414 C 654.247 678.942, 654.261 679.317, 655.974 684.181 C 659.190 693.314, 655.228 693.806, 651.547 684.730 C 645.619 670.111, 634.943 664.604, 619.946 668.427 C 610.500 670.835, 604.056 675.558, 597.555 684.835 C 594.291 689.492, 589.092 695.138, 584.776 698.709 C 580.774 702.021, 575.348 707.471, 572.718 710.821 L 567.936 716.912 570.218 718.298 C 590.313 730.497, 598.107 733.997, 602.771 732.914 C 604.822 732.437, 606.809 732.037, 607.187 732.024 C 607.565 732.011, 607.619 730.426, 607.307 728.502 C 606.331 722.492, 608.798 716.332, 614.757 709.896 C 620.178 704.041, 620.186 704.021, 619.843 698.281 C 619.560 693.542, 619.793 692.475, 621.165 692.209 C 623.014 691.851, 623.805 693.718, 624.044 699 C 624.332 705.358, 624.041 706.077, 619.023 711.382 C 611.147 719.709, 609.344 725.772, 612.973 731.723 C 615.435 735.761, 618.781 736.682, 623.022 734.489 C 626.133 732.880, 642.581 717.101, 648.394 710.148 C 651.461 706.480, 653.758 707.037, 652.458 711.133 C 651.367 714.569, 630.190 735.421, 625.290 737.884 C 619.990 740.548, 617.736 740.542, 612.947 737.850 C 609.489 735.907, 608.589 735.806, 603.596 736.809 C 597.222 738.089, 594.325 737.119, 581.050 729.259 C 563.788 719.038, 558.752 717.241, 553.508 719.432 C 545.869 722.624, 550.822 728.665, 577.451 748.638 C 595.333 762.050, 595.054 761.952, 615.185 761.978 C 641.034 762.012, 640.069 762.847, 651.564 730.500 C 656.565 716.427, 657.106 715.443, 659.365 716.310 C 660.610 716.787, 660.033 719.263, 655.970 730.887 C 651.100 744.821, 651.087 744.892, 653.288 745.545 C 654.505 745.906, 671.475 752.517, 691 760.235 C 762.245 788.400, 792.283 795.781, 821 792.179 C 848.135 788.775, 857.521 779.174, 857.349 755 C 857.159 728.265, 843.605 702.157, 811.880 667.419 C 799.636 654.011, 773.689 626.999, 773.074 627.020 C 772.759 627.031, 769.751 629.190, 766.392 631.818 M 485.500 723.926 C 483.850 724.981, 479.350 729.072, 475.500 733.016 C 465.283 743.485, 439.977 762.498, 433.177 764.815 C 431.349 765.438, 423.361 765.997, 415.427 766.058 C 407.492 766.119, 401 766.514, 401 766.935 C 401 769.234, 407.617 776.326, 411.542 778.233 L 416.036 780.416 431.843 778.207 C 455.250 774.936, 455.216 774.952, 470.550 759.581 C 485.885 744.210, 496.816 731.580, 497.646 728.275 C 499.026 722.776, 491.508 720.084, 485.500 723.926 M 531.750 723.080 C 526.544 726.112, 531.995 734.118, 554.924 757.117 C 571.541 773.784, 573.030 774.598, 592.500 777.645 C 610.354 780.440, 612.159 780.493, 616.663 778.355 C 619.769 776.882, 627 768.897, 627 766.941 C 627 766.517, 620.508 766.119, 612.573 766.058 C 604.639 765.997, 596.651 765.446, 594.823 764.833 C 587.671 762.435, 562.909 743.879, 550.558 731.661 C 540.933 722.140, 536.689 720.203, 531.750 723.080 M 493.876 740.750 C 482.787 753.970, 462.020 774.530, 457.453 776.812 C 455.228 777.923, 451.681 779.157, 449.571 779.553 C 443.730 780.648, 447.696 782.284, 456.431 782.381 C 465.856 782.485, 470.717 780.160, 480.522 770.858 C 497.503 754.746, 509.997 734.748, 504.418 732.607 C 501.692 731.561, 501.385 731.798, 493.876 740.750 M 522.040 733.452 C 520.307 735.539, 521.464 738.325, 528.079 748 C 545.023 772.781, 556.864 782.256, 570.975 782.324 C 581.518 782.375, 583.668 781.136, 576.750 778.996 C 573.647 778.035, 568.921 775.644, 566.247 773.681 C 560.313 769.325, 540.617 749.156, 532.625 739.250 C 526.785 732.013, 524.344 730.676, 522.040 733.452 M 504.370 749.250 C 503.282 750.487, 500.424 754.200, 498.018 757.500 C 495.612 760.800, 490.044 767.212, 485.644 771.750 L 477.645 780 480.855 780 C 488.111 780, 497.352 772.259, 505.919 759.004 C 510.199 752.381, 510.785 750.185, 508.800 748.200 C 507.147 746.547, 506.641 746.667, 504.370 749.250 M 519.544 748.344 C 517.090 750.139, 517.914 753.146, 522.914 760.633 C 531.356 773.276, 539.777 780, 547.167 780 L 550.399 780 544.694 774.915 C 541.556 772.118, 535.130 764.693, 530.415 758.415 C 525.699 752.137, 521.738 747, 521.612 747 C 521.485 747, 520.555 747.605, 519.544 748.344" stroke="none" fill="#1a1a1a" fill-rule="evenodd"/>
</svg>