<svg xmlns="http://www.w3.org/2000/svg" width="1024" height="1024" viewBox="0 0 1024 1024" version="1.1">
	<path d="M 301.500 222.099 C 195.365 226.800, 168.014 248.576, 165.346 330.500 C 164.822 346.587, 166.103 380.865, 167.626 391.515 L 168.200 395.531 159.096 396.771 C 116.719 402.542, 61.702 439.292, 47.557 471.275 C 38.102 492.655, 41.657 522.813, 55.839 541.534 C 59.100 545.838, 63.128 549.592, 77.802 562 L 81.941 565.500 82.447 617 C 82.725 645.325, 83.434 685.600, 84.023 706.500 C 85.789 769.161, 86.278 770.892, 103.172 774.256 L 109.420 775.500 110.701 783.783 C 113.527 802.048, 115.504 802.945, 153.038 802.980 C 183.605 803.008, 185.109 802.100, 186.535 782.750 L 187.180 774 511.946 774 L 836.713 774 837.403 783.250 C 838.813 802.143, 840.270 802.996, 871.114 802.998 C 907.928 803.001, 910.657 801.579, 912.662 781.343 L 913.272 775.186 917.886 774.539 C 931.711 772.601, 936.096 768.112, 937.457 754.500 C 939.119 737.880, 941.117 676.133, 941.685 623.797 C 942.036 591.511, 942.588 564.725, 942.912 564.274 C 943.235 563.822, 946.425 561.145, 950 558.326 C 971.770 541.157, 980.455 525.562, 981.721 501.365 C 983.239 472.382, 967.707 448.550, 931.500 424.306 C 911.559 410.954, 880.427 398.618, 861.172 396.440 L 855.099 395.753 855.800 392.626 C 857.430 385.349, 856.568 316.999, 854.671 303.089 C 845.689 237.231, 816.212 223.193, 683 221.337 C 605.231 220.254, 562.618 224.127, 542 234.154 C 529.568 240.200, 517.642 255.095, 513.834 269.332 C 512.378 274.775, 511.492 275.211, 510.631 270.906 C 507.348 254.489, 490.055 238.191, 469.647 232.281 C 438.125 223.151, 370.377 219.048, 301.500 222.099 M 293 230.007 C 210.621 235.012, 184.023 251.070, 175.409 301 C 173.196 313.829, 172.422 353.015, 173.954 374.695 C 175.545 397.213, 175.396 396.648, 179.967 397.379 C 193.199 399.495, 211.350 414.054, 218.234 428.074 C 225.817 443.515, 230.271 469.781, 229.799 496.265 C 229.539 510.852, 229.694 512.943, 231 512.392 C 242.071 507.722, 254.225 505.991, 283 504.985 C 317.907 503.765, 469.969 503.768, 481.552 504.989 C 491.804 506.069, 502.571 509.088, 506.112 511.874 L 508.500 513.753 508.248 445.626 C 507.616 274.558, 507.878 280.698, 500.544 265.255 C 490.297 243.677, 474.083 237.225, 415.500 231.412 C 397.069 229.583, 315.399 228.646, 293 230.007 M 605.500 230.065 C 544.375 233.994, 526.647 244.026, 518.798 279.128 C 515.696 293.003, 514.617 516.532, 517.665 513.848 C 521.360 510.595, 528.099 507.979, 537.190 506.268 C 545.689 504.668, 555.601 504.517, 651 504.527 C 769.533 504.541, 774.676 504.799, 792.479 511.630 C 793.438 511.999, 793.848 507.005, 794.267 489.804 C 795.718 430.287, 808.721 407.121, 846.658 396.459 C 852 394.957, 849.870 309.651, 843.901 286.020 C 835.651 253.361, 811.802 237.992, 760.972 232.580 C 729.349 229.213, 640.988 227.783, 605.500 230.065 M 149.500 406.409 C 127.911 412.200, 96.464 428.160, 82.307 440.511 L 78.500 443.832 85.500 441.887 C 117.118 433.101, 148.127 448.356, 160.489 478.779 C 166.982 494.759, 170.656 521.631, 171.146 556.734 L 171.345 570.967 175.332 564.234 C 179.243 557.628, 200.813 535.003, 215.861 521.722 L 222.221 516.108 222.186 498.304 C 222.085 446.916, 211.374 419.080, 187.346 407.759 C 177.838 403.280, 163.124 402.755, 149.500 406.409 M 841.500 405.343 C 825.869 410.531, 814.075 423.504, 808.171 442 C 803.213 457.535, 800.477 481.279, 801.198 502.527 L 801.655 515.996 808.077 521.700 C 821.617 533.726, 840.417 552.824, 846.086 560.312 L 852 568.123 852 559.294 C 852 535.791, 855.247 503.865, 859.049 489.974 C 869.355 452.329, 902.904 431.733, 937.486 441.824 C 941.328 442.945, 944.609 443.725, 944.777 443.556 C 945.192 443.141, 932.885 434.121, 925.520 429.442 C 915.845 423.297, 894.065 413.255, 880.810 408.828 C 866.777 404.141, 849.685 402.626, 841.500 405.343 M 87.362 448.981 C 62.809 455.418, 50 472.240, 50 498.050 C 50 521.129, 56.979 534.787, 77.101 551.082 C 82.528 555.477, 87.538 560.069, 88.234 561.286 C 89.130 562.852, 89.572 570.082, 89.746 586 C 90.400 645.891, 92.138 730.049, 92.993 743.220 C 94.175 761.432, 95.242 764.418, 101.174 766.131 C 105.913 767.499, 131.945 767.688, 152.648 766.505 L 164.795 765.810 165.538 749.155 C 165.946 739.995, 165.980 716.975, 165.612 698 C 165.245 679.025, 164.533 634.475, 164.029 599 C 163.526 563.525, 162.879 532.925, 162.591 531 C 162.304 529.075, 161.563 522.325, 160.944 516 C 159.508 501.307, 157.724 492.764, 154.190 483.663 C 143.071 455.030, 116.631 441.308, 87.362 448.981 M 906.105 448.583 C 883.383 454.693, 868.210 475.207, 863.568 506.093 C 859.518 533.038, 855.569 761.768, 859.090 765.448 C 860.471 766.892, 917.570 767.481, 922.646 766.104 C 929.323 764.292, 929.742 762.330, 931.574 724.230 C 932.440 706.228, 933.461 662.925, 933.845 628 C 934.427 574.962, 934.785 564.012, 936.021 561.539 C 936.834 559.910, 941.900 555.044, 947.277 550.725 C 966.907 534.959, 974 520.813, 974 497.429 C 974 481.281, 969.962 470.915, 960.064 461.657 C 947.464 449.871, 923.187 443.989, 906.105 448.583 M 307.500 512.069 C 239.363 513.186, 235.495 514.223, 208.967 538.480 C 192.911 553.162, 183.838 563.896, 178.005 575.108 L 174.003 582.800 177.751 582.788 C 179.813 582.781, 251.925 582.832, 338 582.902 C 424.075 582.971, 497.538 582.738, 501.250 582.384 L 508 581.742 508.231 558.121 C 508.569 523.593, 508.661 525.366, 506.370 522.267 C 503.506 518.396, 497.310 515.182, 489.316 513.423 C 481.213 511.640, 379.733 510.884, 307.500 512.069 M 586.500 512.067 C 513.744 513.166, 516.018 511.664, 516.006 558.622 L 516 581.744 519.750 582.342 C 525.061 583.189, 849.999 582.990, 850 582.140 C 850 581.942, 848.643 579.242, 846.986 576.140 C 841.779 566.398, 834.404 557.574, 819.212 542.909 C 788.273 513.044, 789.509 513.420, 717.500 512.030 C 665.003 511.017, 655.800 511.019, 586.500 512.067 M 493.474 590.004 C 486.309 590.385, 411.241 590.652, 326.657 590.598 L 172.866 590.500 173.201 619 C 173.495 644.036, 173.760 648.019, 175.383 651.766 C 177.465 656.575, 184.628 663.397, 188.761 664.507 C 197.081 666.742, 489.475 667.302, 495 665.093 C 507.906 659.934, 508.432 658.227, 508.814 620.250 C 509.069 594.882, 508.881 589.029, 507.814 589.156 C 507.091 589.242, 500.638 589.623, 493.474 590.004 M 516.633 615.802 C 517.277 656.822, 517.607 658.726, 524.856 663.234 L 528.500 665.500 680.500 665.500 L 832.500 665.500 837.108 663.369 C 842.547 660.854, 846.589 655.936, 848.675 649.295 C 849.964 645.191, 851.631 617.246, 851.944 594.500 L 851.999 590.500 684.115 590.302 L 516.230 590.105 516.633 615.802 M 508.653 664.715 C 503.720 670.118, 496.629 672.803, 484.178 673.981 C 473.158 675.023, 240.534 674.245, 208 673.056 C 184.180 672.186, 180.217 671.289, 175.263 665.647 L 172.500 662.500 172.500 714.090 L 172.500 765.679 225.500 766.339 C 294.008 767.191, 809.107 767.202, 832.590 766.351 L 850.500 765.703 850.500 714.399 L 850.500 663.094 847.500 665.997 C 842.090 671.230, 838.539 672.027, 815.649 673.139 C 787.833 674.490, 532.047 673.495, 526.882 672.016 C 522.081 670.640, 517.015 667.140, 514.524 663.476 L 512.500 660.500 508.653 664.715 M 153 774.041 C 146.675 774.424, 135.926 774.796, 129.114 774.868 L 116.728 775 117.365 779.647 C 118.142 785.314, 119.669 790.984, 120.961 793 C 122.019 794.650, 170.295 796.311, 174.652 794.847 C 177.283 793.963, 178.674 789.760, 179.295 780.811 C 179.906 772.022, 181.138 772.340, 153 774.041 M 845.220 773.766 C 843.687 774.831, 845.202 791.334, 847.036 793.544 C 848.889 795.777, 852.619 795.980, 877.305 795.196 C 896.559 794.585, 901.290 794.159, 902.051 792.970 C 903.421 790.831, 904.982 785.175, 905.654 779.910 L 906.241 775.319 885.870 774.633 C 874.667 774.256, 861.225 773.706, 856 773.412 C 850.775 773.117, 845.924 773.276, 845.220 773.766" stroke="none" fill="#1a1a1a" fill-rule="evenodd"/>
</svg>