<svg xmlns="http://www.w3.org/2000/svg" width="1024" height="1024" viewBox="0 0 1024 1024" version="1.1">
	<path d="M 213.445 227.016 C 205.303 228.172, 199.801 231.259, 190.037 240.146 C 184.989 244.741, 178.979 249.989, 176.680 251.809 C 174.381 253.629, 167.100 259.996, 160.500 265.957 C 153.900 271.918, 140.850 283.681, 131.500 292.097 C 94.626 325.286, 93.010 327.918, 92.656 355.359 C 92.309 382.317, 98.638 389.818, 122.862 391.161 C 130.218 391.569, 136.437 392.104, 136.684 392.350 C 136.930 392.597, 136.648 403.531, 136.057 416.649 C 135.466 429.767, 134.531 454.900, 133.978 472.500 C 133.426 490.100, 132.553 513.275, 132.037 524 C 131.161 542.224, 129.749 577.657, 128.510 612.500 C 126.114 679.868, 124.629 716.669, 122.496 761.500 C 119.395 826.697, 119.301 833.748, 121.481 837.963 C 123.619 842.098, 129.012 844.484, 140.820 846.522 C 159.124 849.681, 170.787 844.511, 174.499 831.592 C 175.869 826.824, 179.583 782.665, 181.950 743 C 182.525 733.375, 183.664 714.475, 184.482 701 C 185.300 687.525, 186.428 666.600, 186.989 654.500 C 187.550 642.400, 188.246 630.025, 188.536 627 C 189.028 621.871, 193.642 533.215, 196.004 483.500 C 196.579 471.400, 197.281 459.250, 197.564 456.500 L 198.078 451.500 211.542 451.804 L 225.006 452.108 224.487 479.804 C 223.155 550.866, 221.346 624.749, 219.864 668.648 C 218.703 703.006, 218.928 705.705, 223.293 709.805 C 233.388 719.289, 261.515 715.448, 265.803 704 C 267.019 700.754, 267.780 690.184, 269.008 659.500 C 269.558 645.750, 270.220 630.900, 270.479 626.500 C 271.041 616.933, 271.786 595.798, 272.521 568.500 C 273.169 544.412, 274.728 495.372, 275.645 470.207 L 276.312 451.913 511.997 452.073 L 747.682 452.232 748.364 483.866 C 748.739 501.265, 749.263 519.775, 749.529 525 C 749.794 530.225, 750.472 546.200, 751.035 560.500 C 751.599 574.800, 752.700 598.650, 753.483 613.500 C 754.266 628.350, 755.393 654, 755.986 670.500 C 757.428 710.557, 757.554 710.854, 774.008 713.181 C 787.725 715.121, 801.670 712.012, 804.205 706.449 C 805.369 703.894, 803.941 629.560, 802.034 593.500 C 801.540 584.150, 800.877 559.400, 800.561 538.500 C 800.245 517.600, 799.724 489.575, 799.404 476.221 L 798.821 451.942 812.578 452.221 L 826.334 452.500 826.589 455 C 826.730 456.375, 827.351 468.075, 827.969 481 C 829.089 504.385, 832.181 565.728, 834.019 601 C 834.549 611.175, 835.670 629.850, 836.510 642.500 C 837.350 655.150, 838.694 678.550, 839.496 694.500 C 842.518 754.552, 846.396 818.650, 847.586 828.189 C 849.160 840.806, 858.836 847.500, 875.500 847.500 C 892.642 847.500, 902.877 842.504, 904.605 833.293 C 905.190 830.174, 904.426 795.570, 903.539 785 C 903.377 783.075, 902.954 775.425, 902.598 768 C 902.242 760.575, 901.517 746.850, 900.987 737.500 C 900.457 728.150, 899.550 708.575, 898.971 694 C 898.392 679.425, 897.716 664.575, 897.468 661 C 896.925 653.146, 894.438 596.547, 893.030 560 C 892.469 545.425, 891.771 529.675, 891.478 525 C 891.186 520.325, 890.501 495.800, 889.956 470.500 C 889.411 445.200, 888.556 417.079, 888.056 408.010 C 887.556 398.940, 887.226 391.450, 887.323 391.365 C 887.421 391.280, 894.618 390.778, 903.317 390.250 C 920.873 389.185, 922.995 388.414, 926.199 381.935 C 931.560 371.098, 931.343 340.690, 925.822 329.035 C 923.658 324.466, 893.764 293.898, 877.111 279.225 C 872.925 275.537, 864.723 268.240, 858.883 263.009 C 848.918 254.084, 838.707 245.663, 824.787 234.892 C 815.620 227.799, 816.072 227.865, 771 226.945 C 721.828 225.941, 220.565 226.005, 213.445 227.016 M 213.221 236.050 C 207.252 236.885, 208.660 235.869, 184.881 256.500 C 175.372 264.750, 164.421 274.239, 160.546 277.587 C 156.671 280.935, 149.424 287.460, 144.441 292.087 C 139.459 296.714, 129.864 305.403, 123.120 311.395 C 109.169 323.790, 102.898 331.765, 105.763 333.467 C 108.918 335.343, 241.192 336.236, 535.500 336.370 C 897.588 336.534, 914.925 336.408, 917.742 333.591 C 918.063 333.270, 917.240 331.505, 915.913 329.669 C 912.950 325.568, 876.334 289.910, 865.926 280.991 C 861.760 277.421, 854.335 270.895, 849.426 266.488 C 838.273 256.477, 823.878 244.217, 819.785 241.241 C 811.775 235.418, 833.491 235.820, 512.500 235.554 C 350.800 235.421, 216.124 235.644, 213.221 236.050 M 101.457 351.766 C 100.688 363.007, 101.347 367.474, 104.983 375.695 C 108.142 382.836, 107.135 382.742, 188 383.415 C 277.616 384.161, 816.593 384.187, 856.500 383.447 C 887.248 382.878, 913.295 381.592, 916.132 380.503 C 919.333 379.275, 920.280 374.725, 920.774 358.198 L 921.263 341.896 918.881 342.436 C 913.408 343.676, 903.988 343.864, 807.500 344.663 C 626.663 346.161, 143.099 345.257, 114.500 343.367 C 109.550 343.040, 104.755 342.380, 103.845 341.902 C 102.373 341.128, 102.109 342.218, 101.457 351.766 M 145.524 391.962 C 145.301 392.322, 144.837 405.190, 144.492 420.558 C 143.823 450.412, 139.008 577.705, 137.535 604.500 C 137.263 609.450, 136.795 620.700, 136.496 629.500 C 136.197 638.300, 135.742 650.450, 135.484 656.500 C 135.226 662.550, 134.553 678.525, 133.987 692 C 133.422 705.475, 132.306 730.675, 131.508 748 C 127.121 843.196, 126.768 833.790, 134.827 836.409 C 149.677 841.233, 162.894 838.671, 166.056 830.354 C 166.541 829.076, 167.839 817.336, 168.938 804.265 C 172.420 762.883, 173.749 741.753, 178.488 652.500 C 179.277 637.650, 180.626 613.125, 181.487 598 C 182.349 582.875, 184.412 544.175, 186.072 512 C 187.733 479.825, 189.510 445.625, 190.022 436 C 190.534 426.375, 190.963 412.538, 190.976 405.250 L 191 392 179.750 391.904 C 173.563 391.851, 163.421 391.695, 157.214 391.557 C 151.007 391.419, 145.746 391.601, 145.524 391.962 M 845.887 391.779 L 833.275 392.058 833.629 405.779 C 833.824 413.325, 834.178 426.925, 834.417 436 C 834.788 450.108, 838.753 530.605, 840.451 558.500 C 840.752 563.450, 841.900 584.150, 843.001 604.500 C 844.102 624.850, 845.654 651.850, 846.449 664.500 C 847.245 677.150, 848.164 693.800, 848.491 701.500 C 848.819 709.200, 849.519 722.250, 850.048 730.500 C 850.576 738.750, 851.676 758.550, 852.491 774.500 C 855.274 828.933, 855.974 833.384, 862.261 836.635 C 867.677 839.436, 882.266 839.672, 889.142 837.071 C 897.631 833.860, 897.572 834.188, 895.624 801.226 C 893.984 773.467, 892.029 733.946, 890.024 688 C 889.436 674.525, 888.728 659.450, 888.452 654.500 C 887.009 628.676, 884.927 583.175, 884.012 557.500 C 883.444 541.550, 882.775 525.575, 882.526 522 C 882.277 518.425, 881.810 499.975, 881.488 481 C 881.166 462.025, 880.474 436.194, 879.951 423.597 C 879.428 411, 879 398.482, 879 395.779 L 879 390.864 868.750 391.182 C 863.112 391.357, 852.824 391.625, 845.887 391.779 M 199.984 393.500 C 199.779 405.999, 198.868 432.043, 198.471 436.750 L 197.944 443 510.972 443 C 683.137 443, 824.270 443, 824.600 442.999 C 825.293 442.999, 825.140 395.529, 824.442 393.709 C 823.837 392.132, 200.009 391.924, 199.984 393.500 M 232.637 490.750 C 231.928 530.719, 230.953 573.663, 228.938 653.734 C 228.299 679.163, 228.054 701.080, 228.395 702.439 C 229.842 708.204, 251.158 708.270, 256.900 702.528 C 259.227 700.202, 261.658 647.640, 265.482 517 C 266.311 488.675, 267.263 462.462, 267.596 458.750 L 268.203 452 250.764 452 L 233.325 452 232.637 490.750 M 756.473 472.226 C 757.655 519.055, 757.962 526.955, 762.464 626.500 C 763.807 656.200, 765.088 685.183, 765.309 690.908 C 765.775 702.970, 766.139 703.499, 774.712 704.570 C 780.977 705.352, 792.355 704.415, 795.223 702.881 C 797.051 701.902, 797.124 700.949, 796.572 685.173 C 796.251 676.003, 795.525 654.100, 794.958 636.500 C 794.391 618.900, 793.488 593.475, 792.950 580 C 792.413 566.525, 791.723 533.675, 791.417 507 C 791.112 480.325, 790.751 457.150, 790.616 455.500 L 790.371 452.500 773.166 452.226 L 755.962 451.953 756.473 472.226" stroke="none" fill="#1a1a1a" fill-rule="evenodd"/>
</svg>